<?xml version="1.0" encoding="UTF-8"?>
<svg id="Layer_1" data-name="Layer 1" xmlns="http://www.w3.org/2000/svg" viewBox="0 0 180 200">
  <defs>
    <style>
      .cls-1, .cls-2, .cls-3, .cls-4, .cls-5 {
        fill-rule: evenodd;
      }

      .cls-1, .cls-6 {
        fill: #fff;
      }

      .cls-2 {
        fill: #231f20;
      }

      .cls-3 {
        fill: #817f60;
      }

      .cls-7 {
        letter-spacing: -.05em;
      }

      .cls-6 {
        font-family: AmericanTypewriter-Bold, 'American Typewriter';
        font-size: 19.28px;
        font-weight: 700;
      }

      .cls-5 {
        fill: #9a495c;
      }

      .cls-8 {
        letter-spacing: .02em;
      }
    </style>
  </defs>
  <g>
    <polygon class="cls-5" points="28.69 87.62 5.74 121.21 6.89 122.65 50.66 121.13 34.94 92.25 30.26 86.78 28.69 87.62 28.69 87.62"/>
    <path class="cls-2" d="M27.56,91.97c-.83.36-.24-.83-1.07-.47-.4.14-.18.83-1,.58-.32,1.37-.64,2.72-1.93,3.22-.31,1.44.73,1.38,1.15,2.03-1.81,1.32-1.82,5.56-5.01,4.15.29.77,1.25.81,1.39,1.76-.69.35-1.2.49-1.53.6,1.11.9-.3.68-.72,1.34-1.11,1.73-1.71,4.44-3.66,4.87-.07,1.26-.53,2.17-1.71,2.43.66,1.35-.38.19-.74.82,1.67.32-1.07,1.14.1,1.82-1.85.39-1.4,2.87-2.68,3.78-.17-.45.24-1.54-.33-1.55,0,.41.08.9-.49.81-.28.86.85.15.57,1.01-1.08.27-.88,1.69-1.44,2.42,2.71-.6,7.11-.65,10.14-.51.04-.2-.02-.51.23-.53,10.08.92,18.12-.65,30.43-.98-.56-2.73-2.98-4.04-3.92-5.54-.31-2.31-2.5-2.54-2.59-5.08-1.17.18-1-.93-.86-1.52-1.04.02-1.97-1.66-1.14-2.03-.81.44-.87-.15-1.59-.44-1.88-5.68-6.37-9.68-8.52-14.17.01.26-.44.35-.52.02.32-.04.61-.11.5-.54-.73.25-.69-.33-1.32-.19-1.26,1.76-1.82,4.14-3.92,5.14.55.89-.19,1.27-.68,1.86-.32-1.03-.06-2.03.38-2.89.43-.02.18.71.56.75.06-1.12.95-3.24,1.71-2.17-.03-.36.09-.58.22-.79h0ZM42.74,103.98c1.54.22,1.13,2.59,2.74,2.74.04,1.68.91,2.47,1.97,3.02-.12,1.78.89,2.31,1.96,2.77.12.44-.18.5-.49.54.37.36,1.22.59.58,1.27.2-.15.41-.29.76-.3.12.52-.01.82-.48.81.52.66,2.02,2.08,1.17,2.55.27.44.84.53,1.58.44.15,2.13,1.32,3.12,1.31,5.41-.25-.15-.98-.56-.76.3-.47-.49-1.81-.01-1.87-.95-.58,1.02-1.78-.68-3.09.67-.79.13-.58-.82-.85-1.26-.74.26.37.64.07,1.3-.2-.17-.88-1.05-.78.04-3.63-.25-9.02-.27-12.24.08-.01-.26-.03-.51-.04-.78-1.17.69-2.55.83-3.64.18-.7,1.02-5.54,1.05-7.02.35-2.86,1.64-9.21.1-10.59,1.82-2.24-1.26-6.1.17-8.9-.86-.26-.82.17-1,.46-1.33-1.05-.04-.44-.2-.61-1.79,1.21-.4,1.71-1.43,1.68-2.95,1.21.19.52-1.34,1.77-1.13-.23-.79-.21-.49-.07-1.3,1.77.2.7-2.18,2.23-2.19-.18-.26-.61-.24-.56-.76,1.05.29.49-.88,1.53-.6-.02-.43-.04-.87-.06-1.3.22-.21.58-.31,1.02-.31,1.53-3.92,4.38-6.63,6-10.46.9-.02,1.18-.58.96-1.61.76.03.76-.63,1.53-.6.63-3.48,3.95-4.54,4.55-8.04,2.85-.64,2.17-4.48,4.95-5.19-.18-.26-.61-.24-.56-.75.86-.06,1.27-.51,2.33-.38,1.16.82-.31,1.34,1.36,1.23-1.07,1.18.34,4.61,1.51,4.09.38.07.07,1.97,1.38,1.76-.14.8.32.93.35,1.54,3.34,2.79,3.98,8.57,7.33,11.36.12.44-.18.5-.5.54h0Z"/>
  </g>
  <text class="cls-6" transform="translate(19.29 116.77) scale(.79 1)"><tspan class="cls-7" x="0" y="0">1</tspan><tspan class="cls-8" x="11.61" y="0">1</tspan></text>
  <g>
    <path class="cls-1" d="M161.74,146.95c-1.35,1.24-2.71,2.48-4.06,3.72-1.99,1.37-3.97,2.74-5.95,4.11-1.74.99-3.49,1.97-5.23,2.96-4.54,2.64-9.64,3.54-14.67,4.51-5.16.99-10.39,1.69-15.63,2.17-7.38.68-14.64-.29-21.53-3-3.37-1.33-6.52-3.3-9.6-5.25-3.03-1.91-5.85-4.16-8.76-6.26-1.56-1.6-3.27-3.08-4.64-4.82-2.79-3.55-5.8-6.94-8.09-10.87-1.68-2.9-2.94-5.94-3.95-9.17-1.27-4.05-2.05-8.16-2.61-12.33-.61-4.54-.95-9.11-.57-13.71.86-10.64,4.72-20.06,11.44-28.34.35-.43.66-.9.98-1.35,3.23-3.14,6.6-6.16,9.65-9.46,2.31-2.5,5.18-4.17,7.83-6.16,1.03-.57,2.05-1.14,3.09-1.71,6.15-3.34,12.74-5.1,19.72-5.48,1.91-.11,3.82-.41,5.74-.54,4.26-.27,8.51-.6,12.7.83,2.45.84,5.06,1.21,7.53,2.01,6.58,2.14,12.76,5.12,18.41,9.12,1.76,1.24,3.24,2.87,4.85,4.32.19.25.34.53.57.73,5.43,4.82,9.67,10.6,13.24,16.87.79,1.39,1.38,2.92,1.81,4.46,1.15,4.05,2.37,8.1,3.17,12.22.55,2.83.69,5.79.59,8.68-.11,3.51-.56,7.03-1.04,10.53-.57,4.17-1.36,8.3-3.4,12.08-.79,1.47-1.39,3.04-2.01,4.59-2.1,5.2-5.73,9.38-9.03,13.79-.19.25-.37.5-.55.74Z"/>
    <path class="cls-4" d="M128.66,82.14c1.29-.58,2.11-1.47,2.81-2.41,1.09-1.48,2.08-3.04,3.11-4.57.29-.43.56-.88.89-1.41-.56-.36-.63-.88-.37-1.49.27-.63.46-1.28,1.29-1.43,1.08-.18,1.65-.84,1.75-1.94.05-.47.21-.93.35-1.5-.56.04-1.02.1-1.48.12-.47.02-.94,0-1.4,0-.11-1.39.24-1.96,1.38-2.29.38-.11.77-.25,1.16-.29.94-.08,1.68-.37,2.39-1.09.45-.45,1.39-.48,2.13-.53.23-.01.66.5.71.81.09.57.03,1.2-.09,1.77-.23,1.08-.54,2.14-.87,3.42,1.85-.56,3.53-.94,4.72-2.47-.95-.87-1.97-.43-2.92-.4.08-1.64.7-2.24,2.12-1.95.89.18,1.77.5,2.61.84.39.16.74.49,1.01.82.64.78.56,1.56-.18,2.23-.24.21-.51.4-.79.55-2.36,1.27-4.72,2.56-7.11,3.77-.73.37-1.16.8-1.46,1.59-1.14,3.02-1.84,6.13-2.36,9.29-.08.48-.21.97.3,1.3.56.36,1.08.19,1.56-.17,1.32-.97,2.19-2.32,3.05-3.67.53-.84,1.03-1.71,1.54-2.55,1.03.51,1.31.83,1.06,1.63-.93,2.96-2.25,5.67-5.17,7.21-1.44.76-2.9,1.01-4.51.51-.98-.31-1.46-.92-1.67-1.83-.25-1.05-.03-2.07.17-3.1.18-.9.39-1.79.41-2.81-.61.66-1.21,1.33-1.83,1.98-.85.9-1.71,1.8-2.59,2.67-.25.25-.56.45-.87.64-1.75,1.08-2.67.97-4.17-.45-.2-.2-.4-.4-.71-.7-.58.57-1.15,1.16-1.76,1.71-.59.54-1.17,1.11-1.83,1.55-1.33.88-2.23.58-2.88-.85-.13-.29-.22-.6-.38-1.02-.28.25-.49.47-.73.64-.92.63-1.79,1.37-2.8,1.83-1.71.77-3.28-.33-3.43-2.29-.11-1.51.3-2.95.85-4.33,1.13-2.85,3.09-5.02,5.71-6.61,1.02-.62,2.15-.9,3.31-1,1.75-.15,3.21,1.46,2.9,3.27-.24,1.38-.64,2.72-.98,4.08-.07.3-.19.58-.22.89,1.39-1.16,2.48-2.45,2.77-4.33.24-1.58.69-3.13,1.04-4.69.16-.73.32-1.46.5-2.33-.35.09-.54.12-.71.19-3.75,1.56-7.68,2.5-11.64,3.36-2.21.48-4.46.43-6.7.46-1.15.02-2.31-.2-3.45-.37-.46-.07-.9-.28-1.48-.47.59-.97,1.12-1.84,1.69-2.79,1.28.21,2.57.43,3.9.64.25-.7.77-1.29.22-1.97-.49-.59-1.18-.61-1.88-.5-2.22.36-4.42,2.48-4.82,4.67-.24,1.32.14,2.47,1.06,3.42,1.08,1.12,2.21,2.21,3.33,3.29,1.26,1.22,2.26,2.62,2.74,4.31.79,2.77-.2,5.12-1.95,7.22-.86,1.03-1.93,1.78-3.12,2.4-.96.5-1.86,1.11-2.8,1.63-2.26,1.24-4.71,1.55-7.22,1.29-2.36-.24-4.55-3.2-3.22-5.93.3-.6.65-1.23,1.13-1.69,2.48-2.39,5.29-4.15,8.84-4.4.4-.03.81,0,1.2.06.49.08.94.26.96.88.02.56-.27.88-.77,1.09-1.07.44-2.13.91-3.2,1.36-1.18.5-2.07,1.35-2.9,2.29-.03.03-.05.06-.08.09-.4.56-.83,1.2-.59,1.87.26.73,1.08.78,1.74.82.79.04,1.61,0,2.38-.18,1.84-.45,3.4-1.42,4.64-2.85,1.57-1.81,1.58-4.24-.03-6.02-.96-1.07-2.07-2-3.16-2.96-1.16-1.02-2.13-2.17-2.81-3.56-.8-1.63-.83-3.24.05-4.84.33-.6.64-1.2,1.01-1.88-.27-.29-.53-.58-.81-.86-.77-.77-1.21-1.69-1.34-2.76-.13-1.04.11-1.96.84-2.78,1.59-1.79,3.29-3.44,5.59-4.23,1.51-.52,3.08-.86,4.62-1.3,2.36-.67,4.68-.39,6.99.26,1.18.34,2.21.92,3.17,1.67.58.45.95,1.03,1.39,1.91-.91-.27-1.61-.45-2.29-.69-4.87-1.7-9.39-.92-13.55,2.03-.66.47-1.17,1.2-1.62,1.9-.25.39-.22.96-.37,1.68.48-.21.73-.29.96-.42,1.86-1.11,3.9-1.61,6.04-1.85,2.64-.29,4.64,1.77,4.26,4.47-.03.24-.04.47-.07.88,1.08-.11,2.12-.13,3.12-.32,2.57-.46,5.08-1.14,7.46-2.23.87-.4,1.79-.69,2.69-1.04,1.01-.39,1.68-1.04,2.16-2.07.94-1.99,2.03-3.9,3.12-5.82.35-.62.84-1.18,1.36-1.66.74-.67,1.47-.55,2.01.29.28.43.52.92.61,1.42.35,1.92.36,3.87-.31,5.7-1.58,4.33-3.32,8.6-5.88,12.46-.75,1.13-.81,2.29-.54,3.76ZM100.35,69.98c.33-.28.67-.56,1.03-.86-.54-2.11.57-3.48,2.08-4.61,1.61-1.22,3.41-2.1,5.35-2.64,1.55-.43,3.16-.51,4.76-.21,1.52.29,3.03.63,4.6.96-.43-.68-1.07-1.07-1.76-1.36-3.1-1.27-6.29-1.47-9.53-.7-1.96.46-3.74,1.41-5.47,2.41-1.31.76-2.36,1.79-3.16,3.07-1.14,1.83-.61,3.9,1.32,5.06.27-.38.55-.77.82-1.16l-.04.04ZM126.55,68.75c-.13.07-.27.14-.4.21-.38.12-.76.24-1.13.36-1.7.57-3.38,1.26-5.12,1.7-2.58.66-5.13,1.58-7.88,1.43-1.12-.07-2.24.04-3.36,0-.91-.04-1.83-.14-2.73-.3-1.38-.24-1.89.09-2.21,1.61.72.04,1.44.08,2.15.14,2.96.22,5.93.25,8.87-.2,4.57-.7,8.9-2.25,13.11-4.1.84-.37,1.63-.88,2.5-1.17.92-.31,1.24-.87,1.18-1.9-1.82.5-3.53,1.07-4.98,2.23ZM117.62,84.67c.36-.39.63-.3.75.19.13.5.15,1.04.33,1.52.32.91,1.04,1.2,1.91.82.29-.13.58-.3.81-.51.95-.92,1.88-1.86,2.81-2.79.27-.27.52-.55.83-.87.12.26.2.4.24.55.61,2.06,2.01,2.64,3.85,1.55,1.22-.73,2.18-1.73,3.02-2.88,1.29-1.76,2.65-3.48,3.97-5.22-.05,1.2-.26,2.37-.53,3.51-.39,1.65-.73,3.28-.69,4.99.03,1.26.28,1.67,1.48,1.96,2.48.6,4.42-.47,5.97-2.22,1.14-1.28,2-2.8,2.56-4.46.1-.3.23-.62.23-.92,0-.26-.18-.51-.36-.95-.34.52-.53.82-.72,1.12-.58.96-1.12,1.95-1.75,2.87-.72,1.06-1.52,2.06-2.84,2.48-1.04.33-1.89-.12-1.93-1.19-.02-.67,0-1.38.17-2.03.72-2.83,1.51-5.64,2.25-8.46.13-.47.37-.77.79-.98,1.03-.53,2.06-1.07,3.09-1.62,1.69-.9,3.41-1.77,5.06-2.75,1.33-.79,1.24-1.98-.2-2.59-.84-.36-1.75-.53-2.64-.74-.85-.21-.86-.18-1.12.8,1.03.09,2.23-.18,2.75,1.11-1.1,1.64-4.17,3.07-6.2,2.85.41-1.39.81-2.76,1.23-4.12.2-.65.48-1.28.03-1.92-1.64-.15-2.17.19-2.67,1.59-.48,1.36-1.08,2.68-1.48,4.05-.32,1.12-.88,1.76-2.05,2-.99.21-1.03.4-1.04,1.57.33.04.67.08,1.11.12-1.14,1.71-2.28,3.3-3.31,4.96-.85,1.37-1.75,2.68-3.01,3.72-.56.46-1.15.85-1.9.87-.58-1.35-.43-3.08.3-4.4,2.08-3.8,4.13-7.61,5.46-11.75.6-1.88,1.08-3.78.63-5.78-.18-.77-.48-1.43-1.29-1.94-2.44,2.14-3.72,4.97-5.04,7.92,1.04-.12,1.62-.5,1.9-1.39.22-.72.62-1.39.96-2.07.09-.19.26-.34.5-.66.53,1.26.61,2.46.42,3.54-.36,2.09-.93,4.14-1.95,6.03-.63,1.16-1.23,2.34-1.86,3.5-.08.14-.23.25-.34.37-.06-.03-.12-.06-.18-.08.42-2.11.84-4.21,1.29-6.42-.32.14-.52.26-.73.33-.79.26-1.2.77-1.38,1.61-.54,2.58-1.16,5.15-1.75,7.73-.08.35-.11.75-.31,1.01-.76.97-1.57,1.89-2.38,2.82-.41.47-.84.91-1.26,1.36-.13-.38-.12-.66-.05-.92.41-1.51.81-3.01,1.25-4.51.31-1.07.38-2.13.11-3.2-.27-1.03-.98-1.6-1.91-1.45-1.39.22-2.76.58-3.87,1.51-2.95,2.45-4.76,5.58-5.45,9.35-.33,1.83,1.17,3.04,2.9,2.37.41-.16.83-.36,1.14-.65.75-.71,1.43-1.5,2.15-2.25l-.03.03ZM112.18,71.66c.95-2.82-.63-5.11-3.21-4.96-5.16.3-8.68,2.93-10.77,7.58-.5,1.12-.53,2.24-.07,3.38.6,1.48,1.51,2.72,2.69,3.78,1.08.96,2.2,1.87,3.2,2.91,2.17,2.27,2.07,5.33-.22,7.47-1.37,1.28-2.97,2.17-4.82,2.56-1.16.24-2.31.2-3.42-.29-.73-.32-.89-.62-.8-1.41.1-.79.5-1.42,1.01-2.01,1.38-1.62,3.25-2.42,5.15-3.19.3-.12.64-.14.91-.31.21-.13.46-.4.46-.61,0-.18-.31-.44-.52-.51-.33-.1-.71-.11-1.07-.08-3.39.2-6.06,1.91-8.47,4.11-.4.37-.69.88-.99,1.35-1.56,2.46.5,5.57,2.97,5.7,2.14.11,4.14-.26,6.09-1.07,2.16-.9,4.09-2.18,5.9-3.66,1.69-1.38,3.31-4.8,2.32-7.51-.64-1.76-1.78-3.19-3.17-4.46-1.14-1.05-2.19-2.22-3.21-3.4-.82-.94-.96-2.08-.69-3.28.48-2.07,1.81-3.46,3.66-4.35.86-.41,1.8-.69,2.8-.46.98.23,1.41.85,1.26,1.83-.05.31-.08.61-.15,1.06,1.13-.07,2.15-.14,3.18-.2ZM128.89,73.43c.96-1.43,1.72-2.92,2.11-4.67-.66.08-1.11.3-1.25.87-.31,1.26-.57,2.54-.85,3.8ZM139.25,65.5c-.86.14-1.44.28-2.02.31-.71.04-.92.44-.96,1.23.98-.57,2.39.2,2.98-1.54ZM131.83,65.75c-.08-.72.19-1.32-.26-2.05-.34.8-.61,1.45-.94,2.24.45-.07.75-.11,1.2-.19Z"/>
    <path class="cls-4" d="M137.79,103.03c-3.19,2.83-4.82.96-5.06-1.82-1.16,1.34-2.32,2.7-3.51,4.03-.69.77-1.51,1.3-2.59,1.33-1.05.03-1.68-.46-1.78-1.52-.13-1.38.16-2.71.54-4.02.19-.63.36-1.27.54-1.91-.08-.04-.16-.09-.24-.14-.43.45-.91.87-1.28,1.36-1.5,2-2.75,4.14-3.69,6.45-.26.64-.6,1.1-1.34,1.2-.43.06-.84.28-1.26.39-.87.23-1,.17-1.52-.6-.91.64-1.79,1.32-2.73,1.92-.53.34-1.13.62-1.74.79-1.47.42-2.55-.11-3.21-1.45-1.05.72-2.09,1.48-3.17,2.16-.97.61-2.46.54-3.25-.24-.47-.47-.69-1.19-1.09-1.91-.3.34-.61.72-.95,1.08-1.55,1.65-3.23,3.11-5.53,3.66-1.04.25-2.05.28-3.05-.03-.78,1.92-1.46,3.87-2.36,5.72-.89,1.82-1.68,3.75-3.2,5.18-.11-.04-.22-.08-.33-.11,0-.57-.08-1.16.01-1.72.45-2.78.11-5.51-.39-8.24-.06-.34-.15-.74-.02-1.03.4-.9.89-1.76,1.41-2.75.3.19.61.38,1.03.65.16-1.16.31-2.28.47-3.39.17-1.15.33-2.3.52-3.45.12-.74.05-1.39-.48-2.01-.46-.54-.8-1.2-1.12-1.84-.75-1.49-.66-3.02-.06-4.54.32-.83.99-1.33,1.91-1.7.02.28.05.53.07.78.08,1.46.46,2.85,1.1,4.16.36.73.89,1.32,1.71,1.58.38.12.73.32,1.07.47.78-.46,1.54-.98,2.36-1.37.53-.25,1.14-.38,1.73-.42,1.56-.11,2.41.64,2.59,2.19.15,1.31-.11,2.55-.62,3.75-.2.47-.39.94-.52,1.43,1.28-1.01,2.13-2.33,2.87-3.77-.19-.25-.41-.47-.57-.74-.37-.61-.46-1.26-.23-1.96.43-1.3,2.29-2.54,3.81-2.46-.15.56-.3,1.11-.49,1.79,1.75-.48,2.98-2.08,4.87-1.59.3,1.04-.21,1.83-.56,2.68-.76,1.81-1.47,3.63-2.19,5.45-.06.14-.06.3-.15.74,1.22-.97,2.12-1.86,2.81-2.98,1.07-1.76,1.82-3.66,2.31-5.65.2-.8.63-1.26,1.32-1.56.48-.21.95-.45,1.44-.59.87-.25,1.4.12,1.5,1.03.12,1.02-.18,1.99-.54,2.93-.64,1.64-1.29,3.28-1.93,4.92-.16.4-.28.81-.42,1.22.07.06.15.11.22.17.26-.29.55-.57.79-.88,1.73-2.26,3.31-4.62,4.58-7.19.5-1,1.07-1.97,1.57-2.97.27-.53.51-1.09.66-1.67.24-.94-.12-1.55-1.01-1.9-.97-.39-1.96-.23-2.97-.15.49.96.33,1.82-.26,2.57-.65.83-1.59.85-2.53.64-.95-.2-1.32-.82-1.08-1.77.09-.35.22-.69.38-1,.8-1.5,1.26-1.65,2.8-.95,1.33-.71,2.75-1.19,4.29-1.36,2.24-.24,4.02,1.38,4.11,3.55.03.63,0,1.27,0,2.12.44-.41.74-.69,1.05-.98.84-.8,1.8-1.3,3-1.33,1.4-.03,2.54,1.16,2.26,2.56-.24,1.21-.64,2.4-.99,3.58-.2.69-.46,1.35-.57,2.13.17-.17.35-.32.51-.5.81-.89,1.64-1.76,2.41-2.68.53-.64,1.01-1.33,1.46-2.03,1.75-2.75,4.14-4.76,7.02-6.21.39-.19.89-.16,1.49-.25-.32,1.28-.52,2.26-1.64,2.96-.8.5-1.39,1.42-1.92,2.25-1.01,1.59-1.94,3.23-2.38,5.09-.04.19-.06.38-.11.7.81-.07,1.33-.49,1.71-1.02.9-1.28,1.87-2.53,2.54-3.92,1.01-2.08,1.78-4.28,2.67-6.43.11-.27.29-.58.52-.72,2.41-1.4,3.93-3.48,4.81-6.08.14-.42.3-.83.52-1.21.09-.16.34-.23.59-.39.42,2.44.35,4.65-1.18,6.61-.64.82-1.23,1.68-1.82,2.53-.22.32-.43.68-.54,1.04-.49,1.61-.93,3.23-1.41,4.84-.69,2.3-1.54,4.53-2.47,6.75-.87,2.08-1.81,4.09-3.03,5.98-1.76,2.72-4.19,4.73-6.8,6.54-.6.42-1.38.67-2.11.79-1.03.17-1.62-.23-1.87-1.24-.53-2.17-.34-4.29,1.24-5.98,1.86-1.99,4.14-3.45,6.8-4.12,1.16-.29,1.64-.93,1.91-2.03ZM133.28,98.96c.09.02.17.04.26.05-.03.39-.08.77-.1,1.16-.02.6-.09,1.21-.02,1.8.16,1.39,1.18,2.03,2.5,1.55.48-.17.95-.46,1.31-.81.57-.55,1.05-1.2,1.57-1.82.17-.19.31-.41.48-.63.12.15.22.23.2.26-.58,1.44-1.14,2.89-1.77,4.31-.08.19-.43.33-.67.38-1.88.35-3.54,1.22-5.16,2.2-1.43.86-2.41,2.09-3.17,3.53-.5.95-.66,1.98-.62,3.03.07,1.56,1.02,2.14,2.44,1.56.26-.1.53-.22.74-.38,1.45-1.13,2.96-2.2,4.32-3.44,1-.91,1.96-1.94,2.67-3.07,1.61-2.59,2.85-5.38,3.82-8.27,1.04-3.11,1.88-6.28,2.82-9.43.07-.22.18-.44.32-.63.7-.92,1.43-1.82,2.13-2.74.73-.98,1.09-2.14,1.34-3.32.1-.47.02-.97.02-1.46-.15,0-.2-.02-.22,0-.06.05-.13.11-.15.18-.72,2.8-2.56,4.75-4.82,6.39-.26.19-.46.53-.57.84-.57,1.54-1.01,3.13-1.66,4.63-.95,2.16-2.01,4.29-3.86,5.87-.6.51-1.19,1.07-2.24.94.07-.7.05-1.39.22-2.02.76-2.82,2.2-5.23,4.49-7.08.61-.5,1.07-1.03,1.24-2.02-.48.18-.85.28-1.19.45-1.59.8-3.01,1.83-4.12,3.25-.96,1.23-1.89,2.49-2.88,3.7-1.47,1.8-2.97,3.58-4.46,5.35-.13.15-.35.24-.73.5.06-.57.05-.92.14-1.24.21-.73.49-1.44.72-2.16.46-1.45.93-2.89,1.32-4.36.19-.72-.16-1.35-.72-1.8-.59-.47-1.21-.25-1.81.04-1.37.66-2.45,1.65-3.31,2.89-.36.53-.64,1.16-1.41,1.64.07-.54.1-.89.16-1.23.21-1.22.43-2.44.65-3.66.22-1.19-.19-2.1-1.12-2.84-1.15-.9-3.75-.79-5.11.3.5,0,.94-.02,1.37,0,1.5.1,2.41,1.04,2.23,2.52-.1.85-.41,1.71-.8,2.48-.66,1.32-1.43,2.6-2.21,3.86-1.23,1.97-2.49,3.92-3.76,5.86-.42.64-.95,1.18-1.91,1.26,0-.53-.11-1.02.02-1.44.46-1.49,1-2.95,1.53-4.42.27-.75.64-1.48.88-2.23.22-.67.43-1.38,0-2.08-.87-.18-1.57.22-2.3.55-.63.29-.33.93-.56,1.37-.04.07-.07.14-.09.22-.72,2.22-1.71,4.31-3.15,6.17-.76.98-1.56,1.88-2.88,2.31.36-3.07,1.55-5.86,2.98-8.81-.5.08-.8.08-1.07.19-.82.33-1.62.68-2.43,1.04-1.12.49-1.34.36-1.41-.81-.01-.19-.03-.37-.04-.58-1.08.42-1.75,1.08-2.27,2.06-.34.65-.36,1.31.17,1.76.66.58.53,1.14.12,1.67-.95,1.23-1.91,2.48-2.99,3.59-.66.67-1.56,1.12-2.34,1.66-.06-.07-.11-.13-.17-.2.25-.35.45-.75.75-1.05,1.32-1.29,1.95-2.92,2.3-4.67.12-.57.06-1.2-.03-1.78-.2-1.37-1.01-1.89-2.32-1.6-1.5.33-3.01.87-3.75,2.48-.06.13-.26.2-.48.37,0-.33.01-.53,0-.72-.02-.19-.06-.38-.09-.56-3.13-1.18-3.63-3.79-3.66-6.88-1.12,1.1-1.64,2.15-1.47,3.48.2,1.54.72,2.94,1.77,4.13.21.24.33.63.35.96.03.47-.06.96-.12,1.43-.3,2.42-.6,4.85-.92,7.27-.05.39-.17.77-.3,1.34-.49-.84-.19-1.83-1.13-2.25-.26.56-.45,1.08-.73,1.56-.28.49-.38.94-.1,1.46.11.2.13.46.14.7.09,1.87.18,3.75.25,5.63.03.73,0,1.46,0,2.41,2.21-3.35,3.83-6.73,4.42-10.53.82.23,1.49.54,2.18.59,1.88.12,3.63-.46,4.99-1.69,1.24-1.11,2.2-2.52,3.29-3.8.18-.21.36-.42.72-.82,0,.91-.04,1.51,0,2.11.13,1.54,1.49,2.34,2.92,1.81,1.39-.53,2.51-1.39,3.5-2.47.19-.21.43-.39.73-.64.05.28.07.4.08.52.26,1.74,1.59,2.45,3.15,1.69.25-.12.51-.25.73-.42,1.42-1.05,2.75-2.21,3.83-3.62.26-.34.55-.66.82-.99.07.03.14.06.2.09-.29,1.06-.57,2.12-.9,3.34.65-.2,1.06-.37,1.49-.43.77-.1,1.13-.55,1.44-1.23,1.36-2.91,3.04-5.64,4.85-8.29.32-.47.64-1.03,1.52-.86-.09.62-.12,1.22-.26,1.78-.41,1.67-.85,3.34-.88,5.08,0,.65-.04,1.42.57,1.73.66.34,1.4.06,2.01-.41.16-.12.33-.23.46-.38.87-.99,1.8-1.94,2.59-2.99.79-1.04,1.46-2.19,2.18-3.29ZM116.03,93.21c.03-.72-1.04-1.71-1.77-1.62-.14.02-.34.09-.41.2-.44.67-.82,1.37-.76,2.22.04.52.34.78.82.88,1.11.21,2.08-.55,2.12-1.67Z"/>
    <path class="cls-3" d="M109.87,113.97s.06-.06.09-.09c1.07-.19,1.78.15,2.04,1.11.17.6.24,1.27.19,1.89-.19,2.69-1.11,5.15-2.53,7.43-.17.27-.3.58-.45.87.38.06.59-.01.79-.1.44-.19.86-.43,1.32-.56,1.21-.35,2.3.44,2.27,1.7-.01.58-.17,1.18-.37,1.73-.46,1.24-1.02,2.44-1.48,3.68-.15.41-.12.88-.18,1.37.94.13,1.51-.24,1.95-.78,1.93-2.4,4.03-4.69,5.06-7.68.28-.82.61-1.56,1.6-1.72.04,0,.07-.12.13-.23-.23-.25-.48-.49-.69-.77-.42-.56-.32-1.25.26-1.97.51-.64.99-.76,1.67-.53.9.31,1.33,2.11.54,2.63-.23.15-.42.33-.69.54.76.83.23,1.64-.01,2.4-.68,2.14-1.46,4.24-2.19,6.36-.12.36-.2.73-.35,1.28.42-.13.67-.13.82-.26.54-.47,1.09-.95,1.57-1.48,2.31-2.59,4.02-5.59,5.66-8.62.42-.77.5-1.75.63-2.65.1-.69-.31-1.22-.84-1.64-.59-.46-1.45-.42-1.84.09-.36.46-.1,1.12.68,1.54.46.25.99.39,1.65.65-.93.36-1.57.06-2.16-.33-.58-.38-.79-1.11-.58-1.82.17-.58.61-.87,1.39-.91,1.77-.09,4.17,1.52,4.68,3.21.17.55.08,1.18.09,1.77,0,.24-.05.48-.08.73.1.06.2.13.3.19.58-.66,1.1-1.38,1.74-1.96.55-.5,1.21-.95,1.89-1.22,1.09-.43,1.72.04,1.76,1.2.02.43-.02.89-.15,1.3-.4,1.3-.86,2.58-1.27,3.88-.25.79-.47,1.6-.06,2.59.35-.23.7-.35.9-.6.72-.86,1.45-1.72,2.05-2.66.93-1.45,1.72-2.98,2.64-4.43.88-1.37,2.02-2.47,3.51-3.21.8-.4,1.65-.43,2.46-.25,1.3.3,1.77,1.63,1.03,3.02-.78,1.46-1.79,2.75-3.14,3.74-.15.11-.36.13-.54.2.23-.27.45-.53.67-.79.68-.79,1.39-1.55,2.04-2.36.51-.63.61-1.38.45-2.16-.2-.96-.81-1.46-1.73-1.16-.85.28-1.75.68-2.4,1.28-1.28,1.16-2.2,2.63-3.03,4.15-.57,1.05-1.27,2.02-1.9,3.03-.03.04.03.13.05.22.11-.04.21-.08.31-.13.14-.06.27-.11.46-.19.39,2.85,2.4,3.68,4.84,3.92q-.53,1.57.14,1.97c.09-.13.21-.26.25-.4.57-2.14,1.96-3.52,3.97-4.34.37-.15.69-.39,1.06-.56.34-.16.71-.28,1.07-.41-2.44.13-4.21,1.5-5.91,3.23-1.46-.9-3.3-1.27-3.86-3.41.72-.32,1.44-.65,2.16-.97-.51.42-1.03.84-1.63,1.34.53.48.96.95,1.48,1.3,1.48,1.01,2.02.93,3.48-.22,1.79-1.41,3.83-2.13,6.13-1.99.89.06,1.51.51,1.75,1.39.21.78-.17,1.64-1.08,2.06-1.22.57-2.52.99-3.79,1.45-.23.09-.51.01-.88.01.46-1.01.92-1.74,2.08-1.85.64-.06,1.26-.45,1.86-.75.41-.2.49-.62.35-1.04-.16-.48-.58-.53-.99-.44-1.69.41-3.3,1.02-4.62,2.17-1.23,1.07-2.11,2.38-2.08,4.09-.99.08-1.37-.02-1.74-.39-.69-.68.18-1.32.05-2.09-2.29.44-3.56-1.03-4.79-2.69-.33.37-.62.64-.85.95-.83,1.11-1.92,1.92-3.07,2.65-.7.44-1.93.48-2.37.04-.57-.59-.5-1.3-.27-2.03.49-1.56.95-3.13,1.44-4.7.17-.55.33-1.07-.15-1.61-.33.07-.68.13-1.02.2.36-.37.68-.8,1.09-1.1.58-.42,1.26-.09,1.29.62.02.42-.11.87-.23,1.28-.37,1.27-.79,2.52-1.15,3.79-.2.73-.39,1.47-.47,2.22-.07.71.48,1.16,1.14.96,1.47-.44,2.52-1.38,3.28-3.01-.88.69-1.55,1.22-2.15,1.7-.58-.21-.79-.49-.68-.97.2-.85.37-1.72.59-2.57.34-1.27.72-2.54,1.09-3.8.17-.58.09-1.09-.35-1.66-2.94.35-4.38,2.83-6.49,4.66.15-.41.25-.65.32-.91.29-.99.65-1.98.85-3,.24-1.29-.56-2.61-1.8-3.06.04.43.11.81.11,1.19,0,.43.03.9-.11,1.29-.64,1.76-1.2,3.57-2.32,5.12-.55.76-1.06,1.55-1.58,2.33.04.05.08.1.12.15.41-.23.81-.45,1.29-.72-.27,1.24-.52,2.39-.77,3.58,1.23-.12,1.6-.42,1.93-1.39.8-2.37,2.25-4.29,4.2-5.84-.35.62-.69,1.25-1.06,1.87-.99,1.65-1.93,3.33-3,4.91-.71,1.05-1.65,1.94-3.1,2.46.13-.78.22-1.4.34-2.01.13-.61.29-1.21.48-1.99-.41.13-.68.13-.81.27-.6.59-1.14,1.23-1.74,1.82-.88.87-1.71,1.82-2.7,2.54-1.53,1.11-2.94.4-3.14-1.48-.04-.41-.09-.82-.13-1.23-.72.53-1.18,1.13-1.67,1.7-.76.88-1.47,1.81-2.32,2.59-1.35,1.23-2.61.92-3.28-.77-.21-.52-.29-1.19-.17-1.73.21-.88.61-1.72.97-2.56.22-.51.52-.99.75-1.51.15-.34.18-.78-.24-.92-.21-.07-.64.1-.79.3-.77,1.02-1.53,2.05-2.22,3.12-.9,1.42-1.67,2.92-2.61,4.3-.68.99-1.68,1.61-3.07,1.71.59-2.39,1.15-4.65,1.75-7.06-.6.14-1.11.26-1.64.38-.31-.39-.61-.75-.98-1.22.48-.22.88-.38,1.26-.57,1.27-.62,2.33-1.39,2.44-2.97.02-.35.15-.7.25-1.05,1.16-4.08,2.89-7.88,5.55-11.22ZM110.9,126.71c.06.54.21.94.14,1.29-.17.82-.41,1.62-.67,2.42-.31.95-.72,1.86-.97,2.83-.11.43,0,.95.12,1.39.19.64.77.92,1.42.76.55-.13,1.47-1.04,1.73-1.71-.69.09-1.02,1.07-2.02.75.05-.63-.01-1.28.16-1.87.42-1.46.95-2.88,1.42-4.32.14-.42.32-.84.36-1.26.11-1.17-.49-1.67-1.6-1.36-.86.24-1.65.62-2.26,1.3-1.16,1.29-2.33,2.57-3.45,3.81.25-1.31.27-1.3.87-2.24,1.04-1.61,2.12-3.21,3.07-4.88,1.02-1.77,1.81-3.66,2.09-5.72.12-.85.05-1.66-.41-2.37-1.14.07-1.84.71-2.34,1.58-.59,1.04-1.14,2.11-1.65,3.2-.97,2.08-1.59,4.28-2.01,6.52-.2,1.09-.8,1.67-1.72,2.1-.44.21-.84.51-1.38.85,1.01.77,1.62-.19,2.51-.22-.47,1.74-.91,3.39-1.36,5.04-.13.47-.45.93-.02,1.56.37-.36.73-.62.97-.96.49-.68.9-1.42,1.36-2.13.94-1.44,1.84-2.91,2.85-4.3.65-.89,1.39-1.75,2.79-2.09ZM119.39,133.11c-1.08.09-1.3-.07-1.15-.95.19-1.05.39-2.12.72-3.13.51-1.55,1.15-3.06,1.71-4.59.11-.31.16-.64.23-.91-1.41-.09-1.94.71-2.26,1.8-.25.84-.66,1.63-.88,2.48-.35,1.35-.62,2.71-.86,4.09-.12.65.04,1.37.58,1.73.58.39,1.23.07,1.77-.31.03-.02.05-.07.14-.2ZM120.12,121.57c.68.23,1.32.38,1.72-.19.39-.55-.25-.93-.52-1.32-.13-.19-.62-.33-.81-.23-.7.38-.55,1.04-.4,1.73ZM152.14,128.66c-1.11.4-2.21.79-3.32,1.18.04.1.08.21.12.31,1.26,0,2.28-.62,3.2-1.49Z"/>
    <path class="cls-4" d="M131.56,123.4c.34-.07.68-.14,1.02-.2.48.53.32,1.06.15,1.61-.49,1.56-.95,3.14-1.44,4.7-.23.73-.3,1.44.27,2.03.44.45,1.67.41,2.37-.04,1.15-.73,2.24-1.54,3.07-2.65.23-.31.52-.58.85-.95,1.24,1.66,2.5,3.13,4.79,2.69.13.76-.74,1.41-.05,2.09.38.37.75.48,1.74.39-.03-1.71.85-3.02,2.08-4.09,1.32-1.15,2.94-1.76,4.62-2.17.4-.1.83-.05.99.44.14.42.06.84-.35,1.04-.6.3-1.22.69-1.86.75-1.16.11-1.62.83-2.08,1.85.37,0,.65.07.88-.01,1.27-.46,2.57-.88,3.79-1.45.92-.43,1.29-1.29,1.08-2.06-.24-.88-.86-1.33-1.75-1.39-2.3-.14-4.34.58-6.13,1.99-1.46,1.14-2,1.23-3.48.22-.52-.35-.95-.83-1.48-1.3.6-.5,1.12-.92,1.63-1.34.13-.06.27-.11.4-.17.33-.26.67-.53,1-.79l-.04.05c.18-.07.4-.09.54-.2,1.35-.99,2.37-2.29,3.14-3.74.74-1.39.28-2.72-1.03-3.02-.82-.18-1.66-.15-2.46.25-1.49.73-2.63,1.84-3.51,3.21-.93,1.45-1.71,2.99-2.64,4.43-.6.94-1.34,1.79-2.05,2.66-.2.24-.55.37-.9.6-.41-.99-.19-1.8.06-2.59.41-1.3.87-2.58,1.27-3.88.13-.41.16-.87.15-1.3-.04-1.16-.67-1.63-1.76-1.2-.69.27-1.34.72-1.89,1.22-.64.58-1.17,1.3-1.74,1.96-.1-.06-.2-.12-.3-.19.03-.24.08-.48.08-.73,0-.59.07-1.22-.09-1.77-.51-1.69-2.91-3.29-4.68-3.21-.78.04-1.22.32-1.39.91-.2.71,0,1.44.58,1.82.59.39,1.23.69,2.16.33-.66-.26-1.19-.4-1.65-.65-.77-.42-1.03-1.08-.68-1.54.39-.51,1.25-.55,1.84-.09.53.42.94.95.84,1.64-.14.9-.22,1.88-.63,2.65-1.64,3.03-3.35,6.03-5.66,8.62-.48.53-1.02,1.01-1.57,1.48-.15.13-.4.13-.82.26.15-.55.23-.93.35-1.28.73-2.12,1.5-4.23,2.19-6.36.24-.76.77-1.57.01-2.4.27-.21.46-.4.69-.54.79-.52.36-2.32-.54-2.63-.68-.23-1.16-.11-1.67.53-.58.73-.68,1.41-.26,1.97.21.28.47.53.69.77-.06.11-.09.23-.13.23-.99.15-1.32.9-1.6,1.72-1.03,2.99-3.12,5.29-5.06,7.68-.43.54-1,.91-1.95.78.06-.48.02-.96.18-1.37.46-1.24,1.02-2.44,1.48-3.68.21-.55.36-1.15.37-1.73.02-1.26-1.06-2.05-2.27-1.7-.46.13-.88.37-1.32.56-.2.09-.41.16-.79.1.15-.29.28-.6.45-.87,1.42-2.28,2.34-4.74,2.53-7.43.04-.62-.02-1.29-.19-1.89-.26-.96-.97-1.3-2.04-1.11.46-.77,1.13-.91,1.81-.33.61.52.9,1.23.92,2.02.04,2.1-.24,4.16-1.1,6.1-.38.86-.82,1.7-1.31,2.69.44-.15.73-.24,1.03-.33,1.57-.47,2.61.2,2.79,1.83.13,1.16-.25,2.21-.69,3.25-.37.87-.68,1.76-1.01,2.65.09.06.17.12.26.17.31-.28.64-.55.92-.85,1.83-2,3.31-4.22,4.29-6.76.09-.22.17-.45.28-.66.28-.55.61-1.05,1.63-1.02-1.01-.55-1.36-1.17-1.22-2.04.16-1,.77-1.66,1.57-2.16.54-.34,1.06-.08,1.58.18,1.75.86,1.93,2.73.56,3.79-.09.07-.15.18-.23.27.5.98.04,1.89-.25,2.78-.47,1.44-1.05,2.86-1.57,4.28-.15.4-.28.81-.41,1.21.08.06.16.11.25.17.56-.55,1.22-1.03,1.66-1.66,1.26-1.85,2.44-3.76,3.62-5.66.52-.85.97-1.75,1.52-2.75-.61-.23-1.11-.43-1.62-.63-1-.39-1.42-1.07-1.34-2.15.07-.9.61-1.42,1.61-1.68,1.27-.33,2.37.02,3.38.78,1.79,1.34,2.08,1.87,2.36,4.37.46-.46.84-.84,1.22-1.22.64-.64,1.4-1.07,2.29-1.22,1.06-.18,1.73.29,1.87,1.34.07.51.05,1.06-.08,1.54-.35,1.27-.81,2.51-1.19,3.77-.18.6-.3,1.22-.33,1.88.73-.49,1.19-1.18,1.62-1.88.92-1.5,1.76-3.06,2.76-4.51.72-1.05,1.61-1.98,2.49-2.91.85-.9,1.95-1.42,3.16-1.61,1.82-.3,3.53.46,3.11,2.99-.22,1.33-1.07,2.31-1.96,3.24-1.17,1.22-2.49,2.25-3.97,3.09-.24.13-.45.32-.74.53.63.83,1.43,1.3,2.34,1.61.46.16.75-.12,1.05-.41,1.64-1.65,3.69-2.38,5.95-2.51.66-.04,1.38.07,1.99.31,1.46.56,1.81,1.82.9,3.11-.27.38-.64.72-1.04.98-1.68,1.09-3.52,1.62-5.65,1.49.32-.74.55-1.38.88-1.96.13-.24.45-.42.72-.52.72-.26,1.46-.44,2.18-.68.38-.12.78-.26.69-.88-.26,0-.54-.05-.78,0-2.21.52-3.89,1.85-5.23,3.61-.51.67-.81,1.45-.25,2.34-.92.33-1.79.74-2.72.05-.76-.56-.89-1.27-.54-2.16-1.82-.12-3.21-.88-4.13-2.5-.87,1.24-1.77,2.36-3.07,3.03-.46.24-.93.49-1.42.61-1.8.43-3.2-.81-2.82-2.62.3-1.44.88-2.82,1.35-4.22.16-.48.38-.94.48-1.48-.63.23-.97.73-1.27,1.25-.89,1.52-1.74,3.07-2.67,4.56-.63,1.01-1.29,2.04-2.09,2.92-.48.53-1.22.91-1.91,1.15-1.07.38-1.54-.1-1.31-1.2.16-.74.37-1.46.42-2.29-.47.51-.92,1.05-1.42,1.53-.98.94-1.98,1.85-2.99,2.76-1.17,1.06-3.36.48-3.52-1.41-.02-.22-.09-.44-.17-.84-.41.49-.69.87-1.01,1.21-.87.93-1.72,1.9-2.65,2.77-.75.69-1.71,1.03-2.66.48-.91-.53-1.36-1.44-1.38-2.52-.03-1.5.6-2.8,1.21-4.11.18-.39.37-.77.37-1.26-.3.43-.64.85-.91,1.3-.78,1.35-1.49,2.75-2.3,4.09-.62,1.02-1.32,2-2.06,2.94-.53.68-1.28,1.09-2.16,1.18-.53.06-1.04-.01-1.51-.57.62-2.02,1.27-4.11,1.93-6.25-1.6.45-1.57-1.19-2.44-1.73.35-.72,1-1.02,1.58-1.29,1.48-.67,2.1-1.77,2.48-3.35.88-3.69,2.39-7.14,4.67-10.2.34-.45.57-1.09,1.29-1.15-2.66,3.34-4.38,7.14-5.55,11.22-.1.35-.23.69-.25,1.05-.11,1.58-1.17,2.36-2.44,2.97-.38.19-.77.35-1.26.57.37.47.67.83.98,1.22.53-.12,1.04-.24,1.64-.38-.6,2.41-1.16,4.67-1.75,7.06,1.39-.1,2.39-.72,3.07-1.71.95-1.38,1.71-2.89,2.61-4.3.69-1.08,1.44-2.11,2.22-3.12.15-.2.58-.37.79-.3.42.14.38.58.24.92-.22.52-.53.99-.75,1.51-.36.84-.76,1.68-.97,2.56-.13.54-.04,1.2.17,1.73.67,1.69,1.93,2,3.28.77.85-.78,1.57-1.71,2.32-2.59.49-.57.94-1.16,1.67-1.7.04.41.09.82.13,1.23.2,1.87,1.61,2.59,3.14,1.48.99-.72,1.82-1.67,2.7-2.54.6-.59,1.14-1.23,1.74-1.82.14-.13.4-.14.81-.27-.19.78-.36,1.38-.48,1.99-.13.61-.21,1.23-.34,2.01,1.45-.53,2.38-1.41,3.1-2.46,1.07-1.59,2.01-3.26,3-4.91.37-.62.71-1.24,1.06-1.86.27-.29.54-.59.81-.88ZM127.09,119.41c-.06-.78-.44-1.23-1.01-1.45-.23-.09-.57.1-.86.17.07.28.06.66.24.81.41.34.9.63,1.64.47Z"/>
    <path class="cls-4" d="M79.08,95.58c.7-.33,1.31-.61,1.91-.9,1.46-.69,2.85-1.48,3.78-2.86.48-.72.93-1.52.4-2.33-.51-.79-1.42-.62-2.21-.46-2.43.47-4.39,1.73-5.76,3.79-1.31,1.98-1.29,3.78.19,5.4,1.02,1.12,2.21,2.08,3.3,3.15,1.14,1.12,2.32,2.21,3.35,3.43,1.38,1.64,1.66,3.58,1.23,5.66-.66,3.17-2.39,5.57-4.94,7.55-2.18,1.69-4.57,2.55-7.27,2.8-1.68.15-3.35.3-5.02-.08-1.13-.26-2.09-.81-2.88-1.64-1.71-1.8-1.24-4.21.16-5.77.74-.82,1.65-1.54,2.61-2.08,1.17-.67,2.44-1.22,3.73-1.62,2.45-.76,4.94-1.38,7.52-1.47.22-.01.44-.08.83-.16-.91-.94-1.73-1.75-2.52-2.59-1.1-1.16-2.21-2.32-3.28-3.52-1.99-2.21-2.02-4.74-1.2-7.43.93-3.05,2.91-5.07,5.78-6.35,1.99-.89,4.02-1.61,6.16-1.94.8-.12,1.7-.03,2.47.23,1.75.6,2.52,2.28,2,4.07-.3,1.06-.81,1.94-1.67,2.7-2.04,1.81-4.45,2.63-7.08,2.97-.5.07-1.04.12-1.6-.54ZM80.33,95.48c.02.09.04.17.06.26.59-.09,1.17-.18,1.76-.27,2.28-.37,4.08-1.59,5.62-3.24.73-.79,1.14-1.75,1.3-2.8.06-.4-.04-.9-.25-1.23-.87-1.32-2.08-1.89-3.71-1.62-3.17.53-6.1,1.66-8.73,3.52-.93.66-1.68,1.48-2.13,2.55-.28.67-.6,1.32-.83,2-.97,2.88-.62,5.46,1.82,7.52.49.41.98.83,1.43,1.28,1.76,1.75,3.57,3.45,4.63,5.78.74,1.63.4,4.29-.95,5.44-2.43,2.08-5.07,3.81-8.37,4.14-.7.07-1.44.07-2.13-.08-1.8-.39-2.38-1.79-1.56-3.46.46-.94,1.18-1.61,1.97-2.23,2.74-2.15,5.77-3.43,9.33-3.11.39.03.78,0,1.18,0-.08-1.19-.29-1.41-1.18-1.38-3.95.15-7.64,1.27-11.15,3.06-1.17.59-2.12,1.45-2.94,2.44-.46.56-.79,1.18-.82,1.95-.09,2.29,1.16,3.59,3.35,4.21,2.27.65,4.55.19,6.78-.32,1.88-.43,3.68-1.14,5.21-2.38,2.76-2.25,4.17-5.22,4.59-8.7.02-.2.06-.41.02-.59-.47-2-1.34-3.74-3-5.06-1.89-1.51-3.49-3.31-4.95-5.22-.68-.9-.86-1.92-.72-3.06.37-3.18,4.7-6.3,7.78-6.25,2.06.02,2.24,1.11,1.81,2.7-.06.22-.24.41-.36.62-.79,1.27-1.98,2.08-3.26,2.76-.52.28-1.06.52-1.59.78ZM71.24,118.28c.19-.01.44,0,.67-.04,2.98-.55,5.61-1.85,7.88-3.85.78-.69,1.18-1.6,1.25-2.65.07-.94,0-1-.9-1.17-1.37-.26-2.7,0-4.04.24-2.38.41-4.31,1.65-6.11,3.14-.45.37-.81.89-1.13,1.39-.83,1.27-.21,2.61,1.27,2.82.36.05.72.08,1.12.13Z"/>
    <path class="cls-4" d="M96.83,121.2c.67-.75,1.76-.96,2.15-1.9-.84-.98-1.45-1.1-2.53-.55-1.69.88-2.85,2.99-2.71,4.89.05.64.33,1.15.77,1.58.69.67,1.41,1.3,2.11,1.96.58.55,1.17,1.09,1.73,1.67,2.59,2.68,2.45,5.51.6,8.54-.77,1.27-1.94,2.13-3.1,2.99-2.74,2.04-5.73,3.37-9.24,3.16-1.59-.1-3.09-.5-4.25-1.7-1.01-1.05-1.14-2.11-.49-3.4,1.63-3.23,4.38-5.01,7.77-5.92.81-.21,1.65-.31,2.48-.43.83-.12,1.39.19,1.52.79.18.83-.23,1.47-1.04,1.76-1.32.47-2.65.91-3.91,1.51-1.09.52-1.85,1.37-1.8,2.74.04,1.08.54,1.58,1.57,1.34,2.59-.59,4.75-1.88,6.31-4.06,1.18-1.65,1.01-3.58-.45-5-.95-.92-1.99-1.75-2.91-2.69-2.25-2.32-2.74-5.53-1.17-8.3.96-1.7,2.38-3,4.21-3.81,1.7-.75,3.42-1.39,5.32-1.25.63.04,1.29.11,1.89.3,1.64.51,2.79,1.86,2.15,3.9-.49,1.55-1.38,2.69-2.84,3.38-1.92.91-3.13.49-4.16-1.52ZM97.52,121.37c.67,1.02,1.18,1.29,2.19,1.14,1.71-.25,2.81-1.35,3.48-2.83.79-1.75.11-3.17-1.73-3.8-.67-.22-1.42-.36-2.12-.32-3.68.24-6.56,1.92-8.58,5-1.16,1.78-1.19,3.66-.36,5.62.57,1.35,1.63,2.26,2.65,3.21.85.79,1.76,1.53,2.54,2.38.38.41.72,1.02.76,1.56.08,1-.08,2-.71,2.86-1.81,2.48-4.31,3.94-7.2,4.69-1.64.43-2.66-.71-2.26-2.37.11-.45.35-.89.62-1.28.59-.84,1.4-1.44,2.35-1.82,1.07-.43,2.18-.79,3.27-1.18.62-.22.89-.59.75-1.13-.16-.64-.64-.46-1.07-.4-3.61.57-6.64,2.27-9.16,4.88-.4.42-.67,1-.92,1.53-.34.71-.19,1.39.27,2.03.62.85,1.48,1.33,2.46,1.64,1.45.46,2.93.41,4.41.19,2.4-.37,4.46-1.51,6.38-2.93,1.16-.86,2.36-1.71,3.08-3,1.61-2.9,1.66-4.71-.14-7.13-.57-.77-1.26-1.44-1.95-2.11-.75-.73-1.56-1.38-2.34-2.08-.93-.84-1.33-1.87-1.15-3.13.23-1.69,1.11-3,2.45-3.99.95-.7,2.04-.89,3.18-.41,1.18.49,1.33,1.4.31,2.18-.47.36-.99.64-1.49.96Z"/>
    <path class="cls-4" d="M140.8,107.73c.68-.88,1.33-1.79,2.05-2.64.16-.19.56-.29.85-.27,2.28.11,4.57.16,6.83-.23,2.28-.39,4.56-.75,6.69-1.8,2.54-1.26,3.64-4.03,2.5-6.94-.62-1.57-1.49-3-2.75-4.23.32-.65.84-.58,1.27-.25.76.58,1.53,1.19,2.12,1.93.83,1.02,1.5,2.17,2.22,3.28,1.04,1.62,1.06,3.4.78,5.22-.18,1.2-.83,2.04-1.94,2.56-2.25,1.07-4.59,1.93-7.05,2.32-3,.48-6.03.75-9.06,1.1-.88.1-1.75.19-2.63.24-.59.04-1.18,0-1.77,0-.04-.1-.08-.2-.12-.29ZM141.93,107.27c1.17.35,2.26.29,3.3.16,3.37-.41,6.75-.87,10.09-1.47,2-.36,3.97-.92,5.72-2.07,1.54-1,2.22-2.37,1.94-4.18-.43-2.8-1.84-5.08-3.85-7.02-.16-.16-.4-.24-.55-.34.68,1.29,1.4,2.53,2.02,3.83.65,1.37.44,2.74-.25,4.04-.88,1.65-2.19,2.83-3.96,3.48-2.73,1.01-5.58,1.4-8.47,1.56-1.52.09-3.04.02-4.56.02-.48.66-.92,1.27-1.44,1.98Z"/>
    <path class="cls-4" d="M81.16,78.41c.9.02,1.56.13,2.18.73,1.7,1.64,3.51,3.15,5.45,4.52,1.35.96,2.53,2.16,3.94,3.38-1.02-.17-1.67-.64-2.3-1.21-.46-.42-1.01-.74-1.52-1.12-.38-.29-.79-.55-1.12-.89-1.39-1.41-2.94-2.58-4.75-3.4-.66-.3-1.26-.97-1.87-2.02Z"/>
    <path class="cls-4" d="M99.36,157.22c1-.95,1.15-2.03,1.02-3.28.26.09.41.11.53.18,1.24.71,2.71.71,4,1.29.54.24.74.57.34,1.2-.2-.22-.39-.42-.72-.77-.15.6-.34,1.07-.37,1.55-.03.43.12.88.2,1.43-.54-.15-1.05-.3-1.72-.49,1.07-.79.63-1.95,1.09-2.87-.08-.03-.16-.07-.24-.11-.14.22-.28.44-.43.68-.31-.15-.84-.24-.93-.5-.18-.46-.35-.68-.85-.6-.4.42-.37.83.18,1.18q-.92.3-.7,1.47c-.49-.13-.9-.24-1.4-.37Z"/>
    <path class="cls-4" d="M119.78,160.59v-3.02c-.4-.02-.74-.04-1.21-.06.03,1.04-.24,2.01.4,2.95-.41.37-.84.28-1.31.15-.05-1.2.33-2.34-.1-3.51h3.32c-.69,1.01-.27,1.97-.29,2.9,1.29.38.55-.99,1.3-1.31.03.65.06,1.21.09,1.91h-2.2Z"/>
    <path class="cls-4" d="M110.09,159.72c.51-1.05.74-2,.32-2.99.46-.44.88-.42,1.2-.09-.18.97-.35,1.88-.5,2.71.54.54.87.3,1.1-.09.44.09.43.98,1.18.37-.18-.26-.37-.54-.56-.82-.18-.26-.42-.5-.53-.78-.27-.77.12-1.27.92-1.24.23,0,.46.08.75.13v1.13c-.36-.24-.6-.4-.88-.59-.28.57,0,.88.34,1.17.41.35.63.77.31,1.26-.29.46-.71.54-1.26.4-.57-.15-1.17-.13-1.75-.24-.22-.04-.42-.21-.67-.34Z"/>
    <path class="cls-4" d="M113.2,123.21c.79-3.23,1.57-6.45,2.37-9.68.02-.08.18-.11.45-.26-.05.63-.04,1.13-.14,1.61-.33,1.55-.69,3.1-1.06,4.65-.23.97-.47,1.94-.76,2.89-.1.34-.37.64-.56.95-.09-.05-.19-.1-.28-.15Z"/>
    <path class="cls-4" d="M93.82,154.77c.5-.99.97-1.93,1.46-2.91.29.1.62.23.96.32.51.13.9.38.94.94.04.6-.27.98-.86,1.12-.07.02-.13.08-.2.12-.1.47-.2.94-.33,1.5-.82-.54-.27-1.18-.45-1.83-.41.57-.7,1.37-1.53.73ZM96.58,153.16c-.29-.27-.36-.74-.83-.46-.12.07-.24.38-.19.48.22.38.55.33,1.02-.02Z"/>
    <path class="cls-4" d="M99.64,153.68c-.48,1.14-.85,2.17-.65,3.48-.47-.17-.85-.3-1.25-.44q.51-.75-.15-1.17c-.22.31-.44.62-.7.97-.25-.19-.45-.36-.62-.48.7-1.02,1.36-1.99,2.1-3.07.4.22.8.45,1.26.71ZM97.84,155.01c.9.02.9.02.67-1.03-.21.32-.4.61-.67,1.03Z"/>
    <path class="cls-4" d="M129.82,155.95c.13.37.42.77.35,1.1-.18.92.37,1.48.8,2.12-.61.24-1.03.1-1.23-.61-.06-.21-.3-.38-.53-.64-.3.7.08.98.55,1.37-.45.16-.83.3-1.34.48.23-1.29-.19-2.29-.78-3.39.77-.15,1.47-.29,2.18-.43h0ZM128.74,156.69c.11.28.22.57.37.94q.46-.64-.37-.94Z"/>
    <path class="cls-4" d="M126.96,92.59c1.13-2.05,2.13-3.9,3.18-5.72.34-.59.85-1.08,1.38-1.52-.78,1.64-1.51,3.3-2.35,4.91-.46.89-.98,1.81-2.21,2.32Z"/>
    <path class="cls-4" d="M154.4,95.29c-3.32,1.1-6.37,2.11-9.57,3.18.18-.84.63-1,1.16-1.09.58-.1,1.16-.23,1.72-.4,1.15-.35,2.28-.75,3.42-1.13.83-.27,1.65-.55,2.49-.79.14-.04.34.09.78.23Z"/>
    <path class="cls-4" d="M107.16,159.37c.42-1.06.64-2.1.46-3.22.86-.23,1.48.11,1.92.81.46.74.06,1.37-.34,1.98-.54.84-1.29.56-2.03.43ZM108.75,156.74c-.69.46-.61,1.04-.56,1.58,0,.06.31.09.56.17v-1.75Z"/>
    <path class="cls-4" d="M117.07,158.21c-.22-.26-.4-.48-.59-.72-.52,1.19-.39,2.3.34,2.85-.57.47-1.13.51-1.59.2v-3.14c-.23.18-.41.31-.65.5-.02-.19-.09-.35-.05-.47.19-.55,1.22-.83,2.11-.55.62.2.75.65.43,1.32Z"/>
    <path class="cls-4" d="M124.88,156.9c.75-.42,1.52-.44,2.36-.27v.99c-.44-.05-.53-1-1.04-.44-.42.47.14.74.39.92-.11.44-.21.84-.31,1.24.66.24,1.04.14,1.14-.57.5.87.49.95-.22,1.16-.49.14-1,.19-1.47.27-.51-1.12.08-2.39-.84-3.31Z"/>
    <path class="cls-4" d="M138.99,153.73c.46.79.93,1.58,1.47,2.51-.34.17-.73.36-1.19.58-.29-1.03-.58-1.94-1.29-2.86-.07.42-.11.66-.17.97-.54-.29-.49-.72-.49-1.18.49-.21.96-.43,1.44-.62.8-.33.83-.3,1.13.78-.26-.16-.48-.28-.69-.41-.07.07-.14.14-.22.22Z"/>
    <path class="cls-4" d="M140.17,152.76c.72-.46,1.48-.8,2.31-.27.68.43.85,1.15.75,1.89-.12.84-.82,1.07-1.59,1.28.14-1.31-.95-1.93-1.46-2.89ZM142.27,154.96c.41-1.07-.01-1.83-1.14-2.15.39.73.74,1.4,1.14,2.15Z"/>
    <path class="cls-4" d="M129.82,155.95c.41-.12.82-.24,1.25-.37.34.51.65.98,1.08,1.62.21-.71.43-1.23-.22-1.76.37-.13.66-.22.99-.33.09,1.18-.51,2.34.42,3.48-.54.2-.98.37-1.59.6.38-1.87-.69-2.61-1.94-3.23h0Z"/>
    <path class="cls-4" d="M121.81,111.43c1.06-.38,1.73-.06,2.25.37.85.7,1.61,1.53,2.39,2.31.07.07.08.2.06.39-1.48-1.03-3.34-1.45-4.71-3.07Z"/>
    <path class="cls-4" d="M135.6,89.22c.06.15.13.3.18.45.05.15.1.29.13.37-1.4,1.55-2.75,3.04-4.1,4.54-.08-.63.25-1.55.79-2.12.25-.26.52-.49.8-.71.63-.49,1.2-1.02,1.45-1.83.06-.21.26-.37.4-.56.12-.05.23-.1.35-.15Z"/>
    <path class="cls-4" d="M145.61,112.27c-2.05-.46-4.11-.92-6.17-1.38,0-.1.01-.2.02-.3.52-.01,1.06-.1,1.57-.02,1.18.17,2.35.36,3.5.65.45.12.83.53,1.24.81-.05.08-.1.16-.15.24Z"/>
    <path class="cls-4" d="M155.46,113.4c-2.54-.09-5.03-.54-7.54-1.32.95-.33,2.77-.39,3.58.11.97.61,2.05.56,3.08.77.3.06.61.09.91.13,0,.1-.02.2-.03.3Z"/>
    <path class="cls-4" d="M95.12,68.73c1.05,1.39,1.67,2.87,2.18,4.51-.72.05-.86-.39-1.07-.75-.4-.73-.8-1.46-1.22-2.18-.31-.53-.32-1.01.1-1.59Z"/>
    <path class="cls-4" d="M124.53,158.83c.09.41.18.81.27,1.23-.74.47-1.46.49-2.23.32.31-1.22.14-2.69-.4-3.39.11-.05.21-.13.31-.13.36-.02.71,0,1.18,0-.63.94-.31,1.87-.21,2.79.01.14.35.24.66.45.06-.56.09-.89.13-1.23.1-.01.19-.02.29-.03Z"/>
    <path class="cls-4" d="M94.6,151.55c-.07.17-.11.36-.21.51-.08.11-.25.17-.43.29-.07-.33-.12-.58-.19-.9-.88.5-1.21,1.29-1.61,2.31.51-.17.81-.27,1.14-.38,0,.1.04.27,0,.31-.22.16-.45.35-.7.41-.6.15-.98-.15-.87-.76.11-.58.29-1.18.61-1.66.56-.85,1.06-.84,2.27-.13Z"/>
    <path class="cls-4" d="M134.94,154.9c.35-.53.8-.81,1.61-.77-.86,1.12.35,1.83.24,2.86.32-.09.54-.15.83-.22-.07-.35-.13-.66-.19-.98.08-.04.15-.07.23-.11.22.35.45.7.77,1.21-.78.29-1.39.52-1.99.75-.45-1.01-.35-2.19-1.5-2.73Z"/>
    <path class="cls-4" d="M108.83,113.68c-.1.19-.16.41-.3.56-.75.81-1.15,2-2.42,2.26-.33.07-.67.14-1,.21l-.13-.26c1.2-1,2.4-2,3.6-3,.08.08.16.15.25.23Z"/>
    <path class="cls-4" d="M106.43,77.18c.55.07.94.12,1.13.71.28.85.76,1.63,1.03,2.48.16.51.08,1.1-.03,1.69-.39-.81-.8-1.61-1.16-2.43-.34-.78-.62-1.58-.97-2.46Z"/>
    <path class="cls-4" d="M120.47,150.71c-.22.37.12.91-.54,1.17-.06-.92-.11-1.78-.16-2.69.91-.44.9.55,1.39,1.25-.03-.6-.05-.95-.08-1.35.62.5.69,1.9.15,2.64-.26-.35-.51-.68-.76-1.02Z"/>
    <path class="cls-4" d="M119.91,113.2c1.75,1.85,2.71,3.81,2.45,4.71-1.53-1.2-1.83-3.04-2.45-4.71Z"/>
    <path class="cls-4" d="M112.41,53.49c-.08-1.07-.16-2.01-.23-2.96q1.5-.15,1.63.79c-.31-.11-.57-.2-.87-.29-.31.59.79,1.13-.33,1.72.14.03.27.06.4.08.32-.04.63-.08,1.03-.13-.02.18.02.38-.05.45-.52.5-1.12.49-1.57.34Z"/>
    <path class="cls-4" d="M117.66,113.5c.21.4.41.64.46.9.27,1.5.77,3.03-.48,4.59,0-1.01-.02-1.85,0-2.7.03-.85-.53-1.69.02-2.79Z"/>
    <path class="cls-4" d="M114.71,151.76c-.87-.07-.58-.88-1.03-1.14-.35.27.26,1.17-.75,1.02v-2.6c.19-.06.44-.2.7-.22.66-.05,1.17.43.91,1.03-.29.68.01,1.21.17,1.91ZM114.51,149.76c-.48-.27-.63-.42-.71-.39-.15.06-.25.22-.38.34.12.11.24.3.37.32.17.01.35-.12.72-.27Z"/>
    <path class="cls-4" d="M117.63,148.94h1.14c.18.91.36,1.83.55,2.79-.32.08-.68.22-.66-.41,0-.39-.14-.62-.36-.55-.66.2-.07,1.16-.91.97.08-.9.15-1.78.23-2.8ZM118.54,150.23c-.08-.26-.15-.52-.23-.79-.28.34-.51.65.23.79Z"/>
    <path class="cls-4" d="M123.78,90.14c-.22-.69-.25-1.19.06-1.86.36-.78.29-1.76.42-2.74.19-.06.43-.13.8-.23-.4,1.67-.33,3.32-1.27,4.83Z"/>
    <path class="cls-4" d="M105.04,76.53c1.08-1.72,1.63-1.91,3.96-1.45.04.53-.4.67-.75.79-.99.35-1.94.92-3.21.66ZM106.05,76.15c.83-.25,1.54-.47,2.24-.68q-1.66-.37-2.24.68Z"/>
    <path class="cls-4" d="M124.85,116.14c-.56-.48-1.11-.97-1.69-1.42-.55-.43-1.14-.82-1.85-1.32.32-.22.47-.31.6-.42.12-.09.22-.2.3-.28.96,1.11,1.89,2.2,2.83,3.29-.06.05-.13.1-.19.15Z"/>
    <path class="cls-4" d="M100.22,99.96c-.7-.29-1.38-.65-2.1-.85-.74-.21-1.54-.17-2.34-.54,1.34-.84,3-.33,4.44,1.4Z"/>
    <path class="cls-4" d="M108.81,92.14c.53,1.53,1.97,2.7,1.83,4.64-.91-.5-.96-1.31-1.09-1.97-.09-.44-.13-.78-.5-1.11-.44-.4-.65-.96-.24-1.56Z"/>
    <path class="cls-4" d="M121.54,64.77c.33.9.86,1.74.14,2.73-.26.36-.19.95-.3,1.6-.59-1.07-.52-2.72.15-4.34Z"/>
    <path class="cls-4" d="M126.07,51.16c-.21.15-.42.3-.67.48.92.61,1.05,1.05.52,1.73-.15.19-.53.43-.66.36-.23-.12-.51-.45-.5-.7,0-.63.09-1.28.26-1.89.17-.61.51-.59,1.06,0ZM125.6,52.18c-.42.48-.55.73,0,1.07v-1.07Z"/>
    <path class="cls-4" d="M89.49,127.47c-.84,1.19-1.95,2-3.6,2.47.94-1.5,2.22-2.05,3.6-2.47Z"/>
    <path class="cls-4" d="M110.48,150.57c0-.77.11-1.3.66-1.62.42-.24.79-.15.97.3.26.65.3,1.33-.05,1.95-.13.24-.44.47-.7.51-.18.02-.47-.24-.61-.45-.17-.25-.23-.57-.27-.7ZM111.48,149.31c-.67.9-.65,1.29.05,1.95.34-.64.53-1.24-.05-1.95Z"/>
    <path class="cls-4" d="M116.95,50.76c.13.91.24,1.64.36,2.47-.3.02-.62.03-1.07.06.61-.86.34-1.65.37-2.43-.11-.08-.21-.16-.32-.24-.02.26-.03.51-.06.86-.57-.64-.63-.99-.02-1.07.58-.08,1.19-.02,1.84-.02v1.06c-.39-.25-.65-.42-1.1-.7Z"/>
    <path class="cls-4" d="M84.71,130.9c-.45.99-2.66,2.51-3.51,2.42.33-.82,1.84-1.87,3.51-2.42Z"/>
    <path class="cls-4" d="M111.95,91.6c-.66-1.31-1.19-2.37-1.75-3.48,1.32.03,2.12,1.54,1.75,3.48Z"/>
    <path class="cls-4" d="M115.5,51.17c-.23-.07-.43-.13-.63-.2-.05.06-.1.12-.16.17.26.31.5.64.79.91.35.33.44.74.2,1.07-.17.23-.58.39-.89.41-.61.05-.58-.38-.47-.92.3.17.57.31.86.46.24-.48-.08-.67-.3-.95-.23-.3-.43-.66-.53-1.02-.1-.4.09-.7.57-.7.54,0,.7.24.56.76Z"/>
    <path class="cls-4" d="M105.27,112.46c-1.5.58-2.82,1.57-4.55,1.91.55-.87,3.47-2.08,4.55-1.91Z"/>
    <path class="cls-4" d="M122.33,50.31c.85.94.77,2.05-.2,2.96-.94-1.09-.86-2.3.2-2.96ZM122.07,52.37c.1,0,.2,0,.31-.01.09-.45.29-.9-.31-1.56v1.57Z"/>
    <path class="cls-4" d="M116.73,148.97c.02.23.04.45.07.75-.33-.08-.57-.14-1-.25-.06.53-.14.98-.13,1.43,0,.13.24.25.38.37.1-.13.21-.26.31-.39.09-.11.17-.23.26-.35.1.14.3.29.29.42-.04.41-.18.78-.69.84-.47.05-.83-.16-.9-.6-.08-.5-.08-1.04,0-1.54.03-.2.34-.41.57-.52.23-.11.53-.1.86-.16Z"/>
    <path class="cls-4" d="M124.29,151.97c-1.08-1.64-.83-2.45.89-2.98.02.31.04.61.07,1.08-.34-.2-.55-.33-.74-.44-.43.24-.44.95-.02,1.76.2-.19.39-.36.64-.6.09.73-.19,1.06-.84,1.18Z"/>
    <path class="cls-4" d="M106.73,97.68c-1.21-.47-2.08-.97-2.77-1.92.19-.09.36-.25.48-.22.74.16,1.63.97,2.28,2.14Z"/>
    <path class="cls-4" d="M120.72,50.96c-.39.11-.57.16-.8.23-.05-.57.23-.81.73-.76.49.04.55.46.42.81-.2.54-.51,1.05-.86,1.76.34-.14.52-.22.7-.3q.04.73-1.21.51c.32-.71.62-1.39,1.01-2.25Z"/>
    <path class="cls-4" d="M120.15,135.64c.47,1.07.21,2.13.3,3.16-1-1.16-1.06-1.89-.3-3.16Z"/>
    <path class="cls-4" d="M116.64,99.23c-.06-1.04-.12-2.09-.18-3.13.09-.03.18-.05.26-.08.15.25.37.47.45.74.15.48-.04,1.81-.54,2.47Z"/>
    <path class="cls-4" d="M123.34,109.82c1.5.23,2.44.94,3.3,1.8-1.21-.2-2.27-.66-3.3-1.8Z"/>
    <path class="cls-4" d="M128.87,132.27c.7.26,1.48,1.45,1.82,2.62-1.42-.38-1.3-1.72-1.82-2.62Z"/>
    <path class="cls-4" d="M97.32,91.01c1.26-.37,1.73.48,2.4.83.22.11.31.45.6.9-1.45-.08-1.84-1.25-3-1.73Z"/>
    <path class="cls-4" d="M123.01,149.17v2.7c-.19.03-.46.06-.85.12.48-1.05.42-1.93-.09-2.82h.93Z"/>
    <path class="cls-4" d="M120.9,143.58c-.58-1-.83-1.89-.46-2.94.67.85.87,2.01.46,2.94Z"/>
    <path class="cls-4" d="M108.22,140.76c.39,1.1.12,2.07-.35,3.14-.49-.86-.3-2.27.35-3.14Z"/>
    <path class="cls-4" d="M124.16,50.57v2.89c-.2.02-.41.03-.6.05-.05-.13-.12-.23-.09-.28.34-.66.36-1.37.13-2.05-.17-.48.07-.53.56-.62Z"/>
    <path class="cls-4" d="M106.91,111.66c.52-.8,1.38-1.24,2.41-1.23-.64.93-1.22,1.22-2.41,1.23Z"/>
    <path class="cls-4" d="M130.91,117.74c1.36-.7,1.85.53,2.75.93-1.25.62-1.79-.58-2.75-.93Z"/>
    <path class="cls-4" d="M108.34,139.4c.05-.71.03-1.41.89-1.72.36,1.15.12,1.65-.89,1.72Z"/>
    <path class="cls-4" d="M126.96,109.11c-1.15.44-2.08-.38-3.14-.51,1.13-.42,2.1.29,3.14.51Z"/>
    <path class="cls-4" d="M139.19,116.11c1.01.03,1.57.42,1.8,1.43-.86-.2-1.53-.46-1.8-1.43Z"/>
    <path class="cls-4" d="M110.6,112.34c.62-.57,1.16-1.35,2.27-1.19-.77.89-1.01,1.02-2.27,1.19Z"/>
    <path class="cls-4" d="M88.11,104.35c-.81.41-1.6.41-2.37-.12.8-.56,1.58-.23,2.37.12Z"/>
    <path class="cls-4" d="M96.32,122.06v1.02c-.51.3-1.02.6-1.54.91.19-.92.8-1.38,1.54-1.93Z"/>
    <path class="cls-4" d="M138.3,130.64c1.45.16,1.56.84,2.3,2.25-.7-.69-1.41-1.38-2.3-2.25Z"/>
    <path class="cls-4" d="M137.79,115.93c-.82-.29-1.64-.57-2.62-.91.32-.15.57-.36.7-.31.68.32,1.56.24,2.05.92-.04.1-.08.2-.13.3Z"/>
    <path class="cls-4" d="M118.99,95.75c-.38-.96-.47-1.72.15-2.63.42.98.26,1.73-.15,2.63Z"/>
    <path class="cls-4" d="M80.71,93.38c-.76.53-1.37.12-2.01-.29.83-.49,1.16-.44,2.01.29Z"/>
    <path class="cls-4" d="M114.81,112.32c-.35.78-.83,1.05-1.55.85.43-.86.6-.96,1.55-.85Z"/>
    <path class="cls-4" d="M132.89,139.86c.81.71,1.04,1.43,1.36,2.25-.91-.55-1.04-.76-1.36-2.25Z"/>
    <path class="cls-4" d="M75.46,103.8c-.52.6-.71.59-1.74.01q.69-.19,1.74-.01Z"/>
    <path class="cls-4" d="M79.24,76.63c.34.1.77.11.98.33.25.26.19.66-.38.9-.24-.31-.5-.64-.77-.97.05-.09.11-.17.17-.26Z"/>
    <path class="cls-4" d="M112.49,77.51c-.13-.49-.25-.98-.41-1.61.97.52,1.04.74.41,1.61Z"/>
    <path class="cls-4" d="M124.12,120.76c.18.58.36,1.16.59,1.9-.84-.57-.98-.99-.59-1.9Z"/>
    <path class="cls-4" d="M130.79,106.23q-.61.88-1.66.26c.69-.11,1.17-.19,1.66-.26Z"/>
    <path class="cls-4" d="M132.78,139c-.99-.24-1.09-.86-1.03-1.72.54.48.76,1.01,1.03,1.72Z"/>
    <path class="cls-4" d="M107.31,145c.36.61.27,1.02-.17,1.5-.39-.59-.36-1.01.17-1.5Z"/>
    <path class="cls-4" d="M145.04,127.26c-.36-.13-.72-.25-1.08-.38.25-.54.67-.5,1.04-.37.13.04.16.37.24.56-.07.07-.13.13-.2.19Z"/>
    <path class="cls-4" d="M144.7,153.46c.27.6,0,.89-.45,1.19-.42-.65-.09-.92.45-1.19Z"/>
    <path class="cls-4" d="M125.36,106.92c-.38.6-.84.34-1.38.21.44-.59.95-.13,1.38-.21Z"/>
    <path class="cls-4" d="M122.76,105.23q.73-.39.91.56c-.35-.21-.61-.37-.91-.56Z"/>
    <path class="cls-4" d="M72.48,91.34c.43-.81.71-.68,1.09-.08-.38.02-.65.04-1.09.08Z"/>
    <path class="cls-4" d="M114.92,90c.17-.15.27-.3.38-.31.12-.01.24.12.36.19-.11.14-.2.31-.33.41-.03.02-.22-.15-.41-.29Z"/>
    <path class="cls-4" d="M119.29,88.9c.2-.06.39-.13.6-.17.02,0,.08.18.12.28-.21.07-.42.13-.63.2-.03-.1-.06-.21-.09-.31Z"/>
    <path class="cls-4" d="M118.22,52.6c.08.19.19.32.17.43-.02.09-.19.14-.3.21-.05-.13-.13-.25-.14-.38,0-.06.13-.13.27-.26Z"/>
    <path class="cls-3" d="M117.65,84.63c-.71.75-1.4,1.53-2.15,2.25-.31.29-.74.49-1.14.65-1.73.67-3.23-.55-2.9-2.37.68-3.77,2.49-6.9,5.45-9.35,1.11-.93,2.48-1.29,3.87-1.51.93-.14,1.64.42,1.91,1.45.28,1.07.2,2.14-.11,3.2-.44,1.5-.85,3-1.25,4.51-.07.26-.08.53.05.92.42-.45.86-.89,1.26-1.36.81-.93,1.62-1.85,2.38-2.82.2-.26.24-.66.31-1.01.6-2.57,1.21-5.14,1.75-7.73.18-.84.6-1.35,1.38-1.61.21-.07.41-.18.73-.33-.44,2.21-.87,4.32-1.29,6.42.06.03.12.05.18.08.12-.12.27-.23.34-.37.63-1.16,1.23-2.34,1.86-3.5,1.02-1.89,1.6-3.95,1.95-6.03.18-1.09.1-2.28-.42-3.54-.25.32-.41.47-.5.66-.34.68-.74,1.35-.96,2.07-.28.9-.86,1.28-1.9,1.39,1.32-2.95,2.6-5.77,5.04-7.92.81.51,1.11,1.18,1.29,1.94.46,2-.02,3.9-.63,5.78-1.33,4.14-3.39,7.95-5.46,11.75-.72,1.32-.88,3.05-.3,4.4.75-.02,1.34-.41,1.9-.87,1.26-1.03,2.15-2.35,3.01-3.72,1.03-1.66,2.16-3.26,3.31-4.96-.44-.05-.77-.09-1.11-.12.02-1.17.05-1.37,1.04-1.57,1.17-.25,1.73-.89,2.05-2,.4-1.38.99-2.7,1.48-4.05.5-1.4,1.04-1.74,2.67-1.59.46.64.17,1.28-.03,1.92-.42,1.37-.81,2.73-1.23,4.12,2.04.22,5.1-1.22,6.2-2.85-.52-1.29-1.72-1.02-2.75-1.11.26-.99.27-1.01,1.12-.8.89.21,1.81.39,2.64.74,1.44.61,1.53,1.8.2,2.59-1.65.98-3.37,1.85-5.06,2.75-1.02.55-2.05,1.08-3.09,1.62-.42.21-.67.51-.79.98-.74,2.83-1.53,5.64-2.25,8.46-.17.65-.2,1.36-.17,2.03.04,1.07.89,1.52,1.93,1.19,1.32-.42,2.11-1.42,2.84-2.48.63-.93,1.17-1.92,1.75-2.87.19-.31.39-.6.72-1.12.18.44.36.69.36.95,0,.31-.12.62-.23.92-.56,1.65-1.41,3.17-2.56,4.46-1.56,1.75-3.5,2.82-5.97,2.22-1.2-.29-1.45-.7-1.48-1.96-.04-1.7.3-3.34.69-4.99.27-1.14.48-2.31.53-3.51-1.33,1.74-2.68,3.46-3.97,5.22-.84,1.15-1.8,2.15-3.02,2.88-1.83,1.09-3.23.51-3.85-1.55-.04-.15-.13-.29-.24-.55-.31.33-.57.61-.83.87-.93.94-1.86,1.88-2.81,2.79-.23.22-.52.39-.81.51-.88.38-1.59.09-1.91-.82-.17-.48-.2-1.02-.33-1.52-.12-.49-.39-.58-.75-.2.49-.78,1.45-1.84,2-2.17-.28,1.29-.63,2.53.04,3.74.99.05,1.45-.05,2.07-.72,1.16-1.26,2.25-2.58,3.38-3.87.27-.31.54-.62.91-1.05.09,1.1.08,1.99.26,2.84.23,1.09,1.25,1.62,2.2,1.09,1.5-.84,2.75-2,3.62-3.51.11-.04.25-.04.32-.12,1.53-1.65,2.9-3.42,3.99-5.39.06-.1.04-.24.07-.48-1.46,1.94-2.83,3.75-4.19,5.57-.09.12-.11.29-.17.43-.61.56-1.21,1.14-1.85,1.67-.57.48-1.19.9-1.73,1.3-.7-.3-.96-.73-1.01-1.28-.09-.87-.16-1.75-.26-2.62-.08-.71.15-1.3.56-1.89.76-1.08,1.54-2.16,2.13-3.33.93-1.85,1.8-3.75,2.55-5.68.95-2.44,1.46-4.99,1.5-7.62,0-.51.09-1.05-.46-1.43-.9.2-1.39.79-1.7,1.7.29-.05.49-.08.87-.14.04,1.46.28,2.88.07,4.23-.65,4.19-2.52,7.91-4.86,11.39-.13.2-.34.33-.67.64.11-1.03.18-1.83.28-2.62.1-.75.3-1.49.37-2.25.07-.74.55-1.46.07-2.5-.2.5-.36.76-.41,1.05-.44,2.4-.86,4.8-1.3,7.2-.07.38-.16.81-.39,1.1-1.31,1.61-2.65,3.19-4.02,4.76-.24.28-.62.43-1.12.77-.08-.64-.22-1.07-.17-1.48.23-1.86.4-3.74,1.06-5.53.14-.37.26-.76.35-1.15.08-.35.18-.8-.34-.84-.18-.01-.45.37-.55.62-.17.44-.2.94-.36,1.39-.79,2.19-2.16,4-3.67,5.73-.72.82-1.45,1.6-2.51,1.99-.73.27-1.24,0-1.24-.76,0-.63.08-1.29.31-1.87.5-1.31,1.07-2.59,1.7-3.84.68-1.36,1.5-2.63,2.75-3.59.96-.73,1.94-1.09,3.12-.68.14.05.29.06.68.13-.29-.22-.36-.31-.45-.35-1.31-.59-2.49-.2-3.65.45-1.34.75-2.2,1.96-3,3.22-1.19,1.87-2.17,3.84-2.44,6.08-.18,1.52.83,2.29,2.25,1.7.65-.27,1.21-.75,1.8-1.15.42-.29.84-.58,1.26-.87ZM142.25,64.79c-.96-.14-1.26,0-1.51.7-.59,1.66-1.25,3.3-1.71,4.99-.26.95-.78,1.27-1.64,1.38-.44.05-.87.19-1.3.29,0,.11.01.22.02.34.76.05,1.52.1,2.32.14-.04.29-.03.53-.1.75-1.08,3.24-1.68,6.59-2.21,9.95-.12.78-.18,1.59-.13,2.38.05.76.62,1.33,1.3,1.31.71,0,1.51,0,2.11-.31,1.72-.89,3.22-2.09,4.16-3.85.1-.19.05-.46.07-.7-.45.29-.68.66-.95.99-.5.62-.99,1.26-1.55,1.83-.93.94-2.14,1.23-3.4,1.27-.89.03-1.25-.4-1.16-1.26.44-4.21,1.74-8.2,3.02-12.2.17-.53.54-.69,1.01-.88,1.71-.67,3.44-1.31,5.08-2.13.95-.47,1.76-1.23,2.61-1.89.39-.31.56-.72.2-1.35-.21,1.1-.9,1.67-1.69,2.05-1.8.86-3.64,1.64-5.48,2.43-.27.12-.59.11-.97.17.64-2.18,1.24-4.25,1.88-6.41ZM120.21,75.8c-.13-.06-.26-.11-.38-.17-.48.32-1.07.55-1.43.97-.98,1.16-1.94,2.35-2.76,3.62-.84,1.29-1.2,2.79-1.38,4.32-.05.41-.17.9.5,1.25.34-.27.78-.54,1.11-.9,1.59-1.77,2.83-3.78,3.86-5.92.27-.57.47-1.2.58-1.82.08-.43-.06-.89-.1-1.34Z"/>
    <path class="cls-3" d="M112.18,71.66c-1.03.07-2.05.13-3.18.2.06-.45.1-.76.15-1.06.15-.98-.28-1.6-1.26-1.83-1-.23-1.94.05-2.8.46-1.85.89-3.18,2.28-3.66,4.35-.28,1.2-.13,2.34.69,3.28,1.02,1.17,2.06,2.35,3.21,3.4,1.39,1.27,2.53,2.7,3.17,4.46.99,2.71-.63,6.13-2.32,7.51-1.81,1.48-3.74,2.76-5.9,3.66-1.94.81-3.95,1.18-6.09,1.07-2.47-.13-4.53-3.24-2.97-5.7.3-.47.59-.98.99-1.35,2.41-2.2,5.08-3.91,8.47-4.11.35-.02.73-.02,1.07.08.22.07.52.33.52.51,0,.2-.25.47-.46.61-.27.16-.61.19-.91.31-1.9.76-3.78,1.57-5.15,3.19-.51.59-.91,1.22-1.01,2.01-.09.79.07,1.09.8,1.41,1.1.48,2.26.53,3.42.29,1.85-.39,3.46-1.28,4.82-2.56,2.29-2.14,2.38-5.2.22-7.47-.99-1.04-2.12-1.96-3.2-2.91-1.19-1.06-2.1-2.3-2.69-3.78-.46-1.14-.43-2.26.07-3.38,2.09-4.65,5.61-7.28,10.77-7.58,2.58-.15,4.16,2.14,3.21,4.96ZM111.44,71.13c.55-2.05-.07-2.44-1.34-3.11-.73-.38-1.51-.56-2.32-.49-3.81.33-6.47,2.34-8.18,5.68-1.14,2.22-.84,4.28.91,6.06,1.01,1.03,2.04,2.05,3.16,2.95,1.71,1.37,2.72,3.06,2.63,5.26-.05,1.34-.11,2.74-1.11,3.83-1.34,1.46-2.84,2.7-4.76,3.35-.65.21-1.31.39-1.93.66-.98.43-1.97.31-2.93.03-1.53-.44-2.05-1.6-1.4-3.06.89-2,2.24-3.59,4.26-4.54.49-.23.96-.51,1.43-.76-.03-.08-.06-.16-.1-.24-.53.13-1.12.15-1.59.4-1.38.72-2.74,1.49-4.06,2.32-1.06.67-1.65,1.71-1.99,2.91-.48,1.71.15,2.91,1.83,3.47,1.49.5,3.02.57,4.5.17,2.87-.79,5.36-2.29,7.35-4.54,1.09-1.23,1.73-2.69,1.81-4.35.1-2.31-1.04-4.05-2.6-5.58-.6-.59-1.3-1.07-1.89-1.67-.76-.77-1.49-1.56-2.15-2.41-.47-.61-.7-1.33-.61-2.14.39-3.66,2.34-5.84,6.21-6.85.9-.23,1.75-.11,2.59.16,1,.33,1.13.59.9,1.59-.07.29-.11.59-.17.92h1.54Z"/>
    <path class="cls-3" d="M126.55,68.75c1.46-1.16,3.17-1.73,4.98-2.23.05,1.03-.26,1.6-1.18,1.9-.87.29-1.66.8-2.5,1.17-4.22,1.85-8.54,3.4-13.11,4.1-2.94.45-5.9.42-8.87.2-.71-.06-1.43-.09-2.15-.14.32-1.51.83-1.85,2.21-1.61.9.16,1.82.26,2.73.3,1.12.05,2.24-.06,3.36,0,2.74.15,5.29-.77,7.88-1.43,1.74-.44,3.41-1.12,5.12-1.7.37-.13.75-.24,1.13-.36-.27.22-.51.52-.81.64-1.6.62-3.21,1.23-4.84,1.75-1.1.35-2.26.52-3.37.85-2.49.73-5.06.66-7.61.76-1.46.05-2.94-.11-4.41-.17-.09,0-.19.09-.55.25.74.14,1.22.27,1.72.32,2.11.23,4.22.2,6.34-.04,2.94-.34,5.86-.71,8.65-1.78,2.54-.97,5.08-1.91,7.62-2.88.47-.18.9-.45,1.35-.68-.03-.08-.06-.15-.09-.23-.44.11-.88.21-1.32.34-.76.22-1.52.45-2.28.68Z"/>
    <path class="cls-3" d="M100.39,69.94c-.27.39-.55.78-.82,1.16-1.93-1.16-2.46-3.23-1.32-5.06.8-1.28,1.85-2.31,3.16-3.07,1.74-1,3.51-1.95,5.47-2.41,3.24-.77,6.44-.57,9.53.7.69.29,1.33.67,1.76,1.36-1.57-.33-3.08-.67-4.6-.96-1.59-.3-3.2-.23-4.76.21-1.94.54-3.74,1.42-5.35,2.64-1.51,1.14-2.63,2.5-2.08,4.61-.36.31-.7.58-1.03.86-.39-1.3-.02-2.48.67-3.53,1.25-1.92,2.92-3.37,5.08-4.23,2.25-.89,4.58-1.08,6.96-.92.45.03.91,0,1.36,0-1.24-.57-2.5-.63-3.83-.57-2.96.13-5.64,1.13-8.2,2.47-1,.52-1.87,1.37-2.67,2.19-.78.79-1.09,1.88-1.17,2.96-.05.66.1,1.37.8,1.76.35-.06.7-.11,1.05-.16Z"/>
    <path class="cls-4" d="M126.55,68.75c.76-.22,1.52-.46,2.28-.68.44-.13.88-.23,1.32-.34.03.08.06.16.09.23-.45.23-.88.51-1.35.68-2.54.97-5.08,1.92-7.62,2.88-2.79,1.07-5.71,1.45-8.65,1.78-2.12.24-4.22.27-6.34.04-.5-.05-.98-.18-1.72-.32.36-.17.46-.26.55-.25,1.47.06,2.94.23,4.41.17,2.55-.1,5.12-.03,7.61-.76,1.11-.33,2.27-.49,3.37-.85,1.63-.52,3.23-1.13,4.84-1.75.31-.12.54-.42.81-.64.13-.07.27-.14.4-.21Z"/>
    <path class="cls-1" d="M128.89,73.43c.28-1.27.54-2.54.85-3.8.14-.56.59-.79,1.25-.87-.39,1.75-1.14,3.25-2.11,4.67Z"/>
    <path class="cls-3" d="M139.25,65.5c-.59,1.74-2,.98-2.98,1.54.04-.79.26-1.19.96-1.23.58-.04,1.16-.18,2.02-.31Z"/>
    <path class="cls-1" d="M131.83,65.75c-.45.07-.75.12-1.2.19.33-.79.6-1.43.94-2.24.45.73.18,1.33.26,2.05Z"/>
    <path class="cls-3" d="M133.28,98.96c-.72,1.1-1.38,2.25-2.18,3.29-.79,1.05-1.72,2-2.59,2.99-.13.15-.3.26-.46.38-.61.46-1.35.74-2.01.41-.62-.31-.58-1.08-.57-1.73.03-1.74.47-3.4.88-5.08.14-.57.17-1.16.26-1.78-.88-.17-1.2.39-1.52.86-1.81,2.65-3.49,5.38-4.85,8.29-.32.68-.67,1.13-1.44,1.23-.43.06-.84.24-1.49.43.33-1.22.61-2.28.9-3.34-.07-.03-.14-.06-.2-.09-.27.33-.56.65-.82.99-1.08,1.41-2.41,2.57-3.83,3.62-.22.17-.48.3-.73.42-1.56.77-2.88.05-3.15-1.69-.02-.12-.04-.24-.08-.52-.29.25-.53.43-.73.64-.99,1.08-2.1,1.95-3.5,2.47-1.42.53-2.79-.27-2.92-1.81-.05-.6,0-1.2,0-2.11-.36.41-.54.61-.72.82-1.09,1.28-2.05,2.69-3.29,3.8-1.37,1.23-3.12,1.81-4.99,1.69-.69-.04-1.36-.36-2.18-.59-.59,3.8-2.21,7.18-4.42,10.53,0-.95.02-1.68,0-2.41-.07-1.88-.16-3.76-.25-5.63-.01-.24-.03-.5-.14-.7-.28-.53-.18-.97.1-1.46.27-.48.47-1,.73-1.56.94.42.64,1.41,1.13,2.25.13-.56.25-.95.3-1.34.31-2.42.62-4.84.92-7.27.06-.48.15-.96.12-1.43-.02-.33-.14-.71-.35-.96-1.05-1.19-1.57-2.59-1.77-4.13-.17-1.33.35-2.38,1.47-3.48.03,3.09.53,5.7,3.66,6.88.03.18.08.36.09.56.02.2,0,.4,0,.72.22-.16.42-.23.48-.37.74-1.61,2.25-2.14,3.75-2.48,1.3-.29,2.11.22,2.32,1.6.09.58.15,1.21.03,1.78-.35,1.74-.98,3.38-2.3,4.67-.3.3-.5.7-.75,1.05.06.07.11.13.17.2.79-.54,1.69-.99,2.34-1.66,1.08-1.11,2.04-2.36,2.99-3.59.41-.53.55-1.09-.12-1.67-.52-.46-.51-1.11-.17-1.76.52-.98,1.19-1.64,2.27-2.06.01.21.03.39.04.58.06,1.18.29,1.31,1.41.81.8-.36,1.61-.71,2.43-1.04.27-.11.58-.11,1.07-.19-1.43,2.95-2.62,5.74-2.98,8.81,1.31-.43,2.12-1.33,2.88-2.31,1.44-1.86,2.42-3.95,3.15-6.17.02-.08.05-.15.09-.22.22-.44-.08-1.08.56-1.37.73-.33,1.43-.73,2.3-.55.43.7.21,1.41,0,2.08-.24.76-.61,1.48-.88,2.23-.53,1.47-1.07,2.93-1.53,4.42-.13.42-.02.91-.02,1.44.95-.08,1.49-.62,1.91-1.26,1.27-1.94,2.53-3.89,3.76-5.86.78-1.26,1.55-2.54,2.21-3.86.39-.77.69-1.63.8-2.48.18-1.48-.73-2.43-2.23-2.52-.44-.03-.88,0-1.37,0,1.36-1.1,3.96-1.21,5.11-.3.94.74,1.34,1.65,1.12,2.84-.23,1.22-.44,2.44-.65,3.66-.06.34-.09.69-.16,1.23.77-.48,1.05-1.1,1.41-1.64.86-1.25,1.94-2.23,3.31-2.89.6-.29,1.22-.51,1.81-.04.56.45.91,1.09.72,1.8-.39,1.47-.86,2.91-1.32,4.36-.23.72-.51,1.43-.72,2.16-.09.32-.08.67-.14,1.24.38-.26.59-.35.73-.5,1.5-1.78,3-3.55,4.46-5.35.98-1.21,1.92-2.47,2.88-3.7,1.11-1.42,2.53-2.45,4.12-3.25.34-.17.71-.27,1.19-.45-.17.98-.62,1.52-1.24,2.02-2.29,1.85-3.73,4.26-4.49,7.08-.17.63-.15,1.32-.22,2.02,1.05.13,1.65-.43,2.24-.94,1.85-1.58,2.92-3.7,3.86-5.87.66-1.5,1.09-3.09,1.66-4.63.12-.31.31-.66.57-.84,2.27-1.64,4.1-3.58,4.82-6.39.02-.07.09-.13.15-.18.02-.02.07,0,.22,0,0,.48.08.99-.02,1.46-.25,1.18-.6,2.33-1.34,3.32-.69.93-1.42,1.82-2.13,2.74-.14.19-.25.41-.32.63-.94,3.14-1.79,6.32-2.82,9.43-.96,2.88-2.21,5.68-3.82,8.27-.71,1.14-1.66,2.17-2.67,3.07-1.36,1.23-2.86,2.3-4.32,3.44-.22.17-.49.28-.74.38-1.43.57-2.37,0-2.44-1.56-.05-1.04.11-2.08.62-3.03.76-1.44,1.74-2.67,3.17-3.53,1.62-.98,3.27-1.85,5.16-2.2.25-.05.59-.19.67-.38.62-1.42,1.19-2.87,1.77-4.31.01-.03-.08-.11-.2-.26-.17.23-.31.44-.48.63-.51.61-.99,1.26-1.57,1.82-.36.35-.84.64-1.31.81-1.32.47-2.34-.17-2.5-1.55-.07-.59,0-1.2.02-1.8.02-.39.07-.77.1-1.16-.09-.02-.17-.03-.26-.05ZM120.27,98.67c-.07-.03-.15-.07-.22-.1-.46.64-.92,1.29-1.37,1.94-1.26,1.81-2.47,3.65-3.79,5.41-.59.79-1.38,1.44-2.13,2.1-.29.26-.73.35-1.26.6,0-.59-.04-.95,0-1.3.37-2.62.9-5.21,2.05-7.62.13-.29.23-.6.34-.9.13-.34.12-.71-.24-.81-.25-.07-.6.08-.85.24-.18.11-.29.37-.38.59-.28.7-.56,1.41-.79,2.14-.63,2.02-1.76,3.77-3.01,5.44-.7.94-1.52,1.76-2.64,2.22-.4.17-.8.43-1.31-.03.03-.4-.02-.9.11-1.34.25-.88.6-1.74.91-2.6.48-1.34.95-2.69,1.5-4.23-.53.07-.84.07-1.12.15-.46.13-.9.34-1.35.49-1.46.48-1.81.26-1.85-1.23-.69.39-1.05,1.03-.97,1.68.06.5.57.95.96,1.54-1.25,2.12-2.47,4.48-4.67,6.09-1.2.87-2.55,1.41-3.99,1.9.03-.18.01-.27.05-.32.12-.16.26-.31.4-.44,1.54-1.46,2.62-3.22,3.52-5.12.37-.78.52-1.59.49-2.44-.06-1.43-1.1-2.12-2.38-1.5-.75.36-1.45.83-2.13,1.32-.76.55-1.48,1.18-2.28,1.83,0-.65.15-1.23-.04-1.65-.21-.47-.73-.79-1.12-1.18-.03-.03-.05-.07-.07-.1-1.05-1.2-2-2.47-2.4-4.06-.22,1.4-.05,2.18.67,3.18.26.36.48.76.79,1.05.61.57.59,1.23.51,1.98-.25,2.19-.36,4.39-.69,6.56-.28,1.87-.77,3.71-1.2,5.71-.69-.9-.33-2.07-1.28-2.71.17,2.36.33,4.62.49,6.87.9-1.85,1.63-3.74,2.25-5.66.26-.82.33-1.72.44-2.58.13-.95.15-1.92.33-2.86.17-.9.32-1.86.78-2.62.79-1.31,1.99-2.29,3.25-3.17.35-.24.79-.41,1.21-.49.95-.17,1.58.43,1.42,1.39-.1.62-.26,1.28-.56,1.83-1.08,1.98-2.28,3.87-4.06,5.32-.18.15-.42.22-.63.33.05.11.1.23.15.34.35.13.7.34,1.06.37,1.26.1,2.47-.07,3.56-.79,2.02-1.35,3.8-2.94,5.09-5.03.78-1.26,1.61-2.49,2.44-3.72.11-.15.38-.2.68-.35-.61,1.57-1.21,2.92-1.67,4.33-.22.66-.25,1.42-.21,2.12.06.95.92,1.45,1.82,1.14.37-.13.78-.27,1.08-.51,1.15-.92,2.38-1.77,3.15-3.09.25-.43.62-.79,1.09-1.37,0,.61,0,.95,0,1.29,0,.6-.03,1.21.04,1.8.08.7.48,1.13,1.17,1.14.5,0,1.05-.09,1.48-.33.59-.32,1.11-.79,1.61-1.24,2.65-2.39,4.25-5.49,5.79-8.63.04-.09,0-.22,0-.34ZM121,91.24c.48.99.61,1.98.49,3.05-.24,2.16-.69,4.26-1.38,6.31-.57,1.7-1.04,3.44-1.55,5.16-.15.49-.32.99.26,1.54.26-.42.5-.77.69-1.13.13-.24.14-.55.28-.78,1.76-2.91,3.51-5.83,5.82-8.36.28-.31.64-.55,1.13-.95.24.54.51.9.56,1.29.07.46.02.97-.08,1.43-.21.93-.52,1.85-.74,2.78-.26,1.12-.62,2.24-.14,3.32,1.27.71,2.14.18,2.84-.78.9-1.23,1.76-2.48,2.62-3.73.14-.21.2-.47.3-.7-.83.8-1.48,1.71-2.18,2.56-.71.85-1.21,1.94-2.3,2.48-.65-1.23-.73-1.53-.41-2.74.37-1.39.85-2.75,1.26-4.13.15-.49.3-1.01.31-1.52.03-.8-.48-1.2-1.23-.96-.56.18-1.13.44-1.57.81-1.42,1.18-2.67,2.53-3.69,4.09-.4.61-.83,1.18-1.24,1.77.1-.97.38-1.84.64-2.72.45-1.5.9-3,.79-4.58-.1-1.33-.41-2.58-1.46-3.51ZM144.59,89.28c-.81.31-1.22.85-1.44,1.71-.65,2.51-1.37,5.02-2.17,7.49-.7,2.17-1.56,4.29-2.34,6.43-.16.44-.36.77-.9.82-2.19.17-4.05,1.21-5.9,2.25-1.16.66-2.07,1.58-2.51,2.92,1.28-1.03,2.5-2.09,3.79-3.04,1.34-.99,2.86-1.45,4.8-1.26-1.52,2.88-3.47,5.13-5.73,7.15.91-.28,2.28-1.3,3.22-2.39,2.07-2.38,3.57-5.13,4.84-7.98.71-1.61,1.3-3.28,1.81-4.96.82-2.68,1.53-5.39,2.28-8.09.09-.33.16-.67.24-1.04ZM136.66,107.48c-.04-.1-.08-.21-.12-.32-.5.07-1.01.08-1.49.23-2.44.78-4.1,2.54-5.58,4.51-.26.34-.42.78-.53,1.2-.09.36-.17,1.02-.03,1.09.38.19.89.17,1.34.17.18,0,.36-.15.53-.26,2.51-1.72,4.49-3.91,5.87-6.61ZM138.03,100.91c-.43.35-.84.74-1.3,1.05-.45.31-.96.73-1.54.45-.58-.28-.44-.97-.57-1.5-.01-.04,0-.08,0-.12.29-2.26.93-4.37,2.47-6.13.79-.9,1.58-1.8,2.37-2.69-.76.32-1.43.74-2.03,1.25-2.6,2.22-3.62,5.09-3.36,8.45.02.27.12.55.25.79.3.58.73.71,1.39.52,1.09-.31,1.84-1.04,2.31-2.07ZM91.02,110.92c.54-.2,1.01-.26,1.33-.51,1.37-1.07,2.54-2.32,3.24-3.93.23-.54.4-1.13.46-1.72.03-.34-.11-.88-.36-1.02-.25-.14-.74.06-1.07.21-.28.13-.51.38-.72.62-.62.68-1.2,1.39-1.83,2.06-1.13,1.2-1,2.66-1.04,4.29Z"/>
    <path class="cls-3" d="M116.03,93.21c-.04,1.11-1.01,1.88-2.12,1.67-.49-.09-.79-.35-.82-.88-.06-.85.32-1.55.76-2.22.07-.11.27-.18.41-.2.73-.09,1.8.9,1.77,1.62ZM114.08,94.27c.91.14,1.09.08,1.29-.38.24-.56-.02-1.12-.94-1.8-.02.26-.11.5-.03.64.48.83.49.82-.32,1.54Z"/>
    <path class="cls-4" d="M110.9,126.71c-1.4.34-2.14,1.2-2.79,2.09-1.01,1.39-1.92,2.86-2.85,4.3-.46.7-.87,1.44-1.36,2.13-.24.34-.6.6-.97.96-.43-.63-.11-1.1.02-1.56.44-1.65.89-3.3,1.36-5.04-.88.03-1.49.99-2.51.22.54-.34.94-.64,1.38-.85.92-.43,1.52-1.02,1.72-2.1.42-2.24,1.04-4.44,2.01-6.52.51-1.09,1.06-2.16,1.65-3.2.49-.87,1.2-1.51,2.34-1.58.46.72.53,1.52.41,2.37-.29,2.06-1.07,3.94-2.09,5.72-.96,1.67-2.03,3.26-3.07,4.88-.6.94-.62.93-.87,2.24,1.12-1.24,2.29-2.52,3.45-3.81.62-.68,1.41-1.06,2.26-1.3,1.11-.31,1.71.19,1.6,1.36-.04.42-.22.84-.36,1.26-.48,1.44-1,2.87-1.42,4.32-.17.59-.11,1.24-.16,1.87,1,.32,1.33-.66,2.02-.75-.26.67-1.18,1.58-1.73,1.71-.65.15-1.23-.12-1.42-.76-.13-.44-.24-.96-.12-1.39.25-.97.66-1.88.97-2.83.26-.8.51-1.6.67-2.42.07-.35-.07-.75-.14-1.29ZM106.11,126.26c1.01-.82,2.83-4.33,3.79-7.37.18-.56.46-1.16.22-1.82-1.7.82-3.58,5.23-4.01,9.19Z"/>
    <path class="cls-4" d="M131.56,123.4c-.27.3-.54.59-.81.88-1.95,1.54-3.4,3.47-4.2,5.84-.33.97-.69,1.27-1.93,1.39.26-1.19.51-2.34.77-3.58-.47.26-.88.49-1.29.72-.04-.05-.08-.1-.12-.15.53-.78,1.04-1.57,1.58-2.33,1.12-1.55,1.68-3.36,2.32-5.12.14-.39.11-.86.11-1.29,0-.39-.07-.77-.11-1.19,1.24.45,2.05,1.77,1.8,3.06-.19,1.01-.55,2-.85,3-.08.26-.18.5-.32.91,2.11-1.83,3.55-4.31,6.49-4.66.45.57.53,1.08.35,1.66-.38,1.27-.75,2.53-1.09,3.8-.23.85-.39,1.71-.59,2.57-.11.48.1.76.68.97.61-.48,1.28-1.01,2.15-1.7-.77,1.63-1.81,2.56-3.28,3.01-.66.2-1.22-.24-1.14-.96.08-.75.26-1.49.47-2.22.36-1.27.78-2.52,1.15-3.79.12-.42.25-.86.23-1.28-.03-.72-.7-1.05-1.29-.62-.41.3-.73.73-1.09,1.1Z"/>
    <path class="cls-4" d="M142.69,125.34c-.13.06-.27.11-.4.17-.72.32-1.44.65-2.16.97.56,2.14,2.4,2.51,3.86,3.41,1.7-1.73,3.47-3.1,5.91-3.23-.36.13-.72.25-1.07.41-.36.17-.69.41-1.06.56-2.01.82-3.39,2.21-3.97,4.34-.04.15-.17.27-.25.4q-.67-.4-.14-1.97c-2.44-.24-4.45-1.07-4.84-3.92-.19.08-.32.14-.46.19-.1.04-.21.08-.31.13-.02-.09-.08-.18-.05-.22.63-1.01,1.33-1.99,1.9-3.03.83-1.53,1.75-2.99,3.03-4.15.66-.6,1.55-.99,2.4-1.28.91-.3,1.53.19,1.73,1.16.16.78.07,1.54-.45,2.16-.66.81-1.36,1.57-2.04,2.36-.23.26-.45.53-.67.79l.04-.05c-.33.26-.67.53-1,.79ZM140.26,125.78c1.74-.83,3.26-1.92,4.58-3.25.51-.51.85-1.27,1.08-1.98.37-1.11-.21-1.71-1.35-1.47-.38.08-.78.23-1.07.48-1.83,1.52-2.78,3.57-3.35,5.82-.02.09.05.22.11.4Z"/>
    <path class="cls-4" d="M119.39,133.11c-.09.14-.1.18-.14.2-.55.38-1.2.7-1.77.31-.54-.36-.69-1.08-.58-1.73.24-1.37.52-2.74.86-4.09.22-.85.62-1.64.88-2.48.32-1.09.85-1.89,2.26-1.8-.07.28-.11.61-.23.91-.57,1.53-1.2,3.04-1.71,4.59-.33,1.01-.53,2.08-.72,3.13-.15.88.07,1.04,1.15.95Z"/>
    <path class="cls-4" d="M120.12,121.57c-.15-.7-.3-1.36.4-1.73.19-.1.68.04.81.23.27.39.91.76.52,1.32-.4.57-1.05.42-1.72.19Z"/>
    <path class="cls-4" d="M152.14,128.66c-.92.87-1.94,1.49-3.2,1.49-.04-.1-.08-.21-.12-.31,1.11-.4,2.22-.79,3.32-1.18Z"/>
    <path class="cls-3" d="M127.09,119.41c-.74.15-1.23-.13-1.64-.47-.18-.15-.16-.53-.24-.81.29-.07.63-.26.86-.17.57.22.95.66,1.01,1.45Z"/>
    <path class="cls-1" d="M142.69,125.34c.33-.26.67-.53,1-.79-.33.26-.67.53-1,.79Z"/>
    <path class="cls-3" d="M80.33,95.48c.53-.26,1.07-.5,1.59-.78,1.29-.68,2.47-1.49,3.26-2.76.13-.21.3-.4.36-.62.43-1.59.26-2.67-1.81-2.7-3.08-.04-7.41,3.08-7.78,6.25-.13,1.15.04,2.17.72,3.06,1.46,1.92,3.06,3.72,4.95,5.22,1.66,1.32,2.53,3.06,3,5.06.04.19,0,.4-.02.59-.42,3.48-1.83,6.45-4.59,8.7-1.52,1.24-3.33,1.95-5.21,2.38-2.22.51-4.51.96-6.78.32-2.19-.62-3.44-1.92-3.35-4.21.03-.77.36-1.39.82-1.95.82-1,1.77-1.85,2.94-2.44,3.51-1.79,7.2-2.9,11.15-3.06.89-.04,1.1.19,1.18,1.38-.39,0-.79.03-1.18,0-3.57-.32-6.6.96-9.33,3.11-.79.62-1.51,1.29-1.97,2.23-.82,1.66-.24,3.07,1.56,3.46.68.15,1.42.14,2.13.08,3.3-.33,5.94-2.06,8.37-4.14,1.35-1.16,1.69-3.82.95-5.44-1.06-2.32-2.87-4.03-4.63-5.78-.45-.45-.94-.87-1.43-1.28-2.45-2.06-2.79-4.63-1.82-7.52.23-.68.55-1.33.83-2,.45-1.07,1.2-1.89,2.13-2.55,2.63-1.86,5.55-2.99,8.73-3.52,1.62-.27,2.84.3,3.71,1.62.22.33.31.84.25,1.23-.16,1.04-.57,2.01-1.3,2.8-1.54,1.65-3.33,2.87-5.62,3.24-.59.1-1.17.18-1.76.27-.02-.09-.04-.17-.06-.26ZM75.32,109.66c-.11-.01-.22-.05-.32-.04-.28.04-.55.09-.82.16-2.42.68-4.58,1.89-6.53,3.47-.37.3-.71.65-1.02,1.02-1.42,1.68-.96,3.98,1.01,4.89.68.31,1.43.5,2.17.65,1.54.31,2.99-.22,4.49-.51,1.86-.36,3.46-1.18,4.99-2.23,2.83-1.94,4.11-4.72,4.38-8.03.07-.78.01-1.63-.59-2.27-1.32-1.4-2.58-2.86-4-4.14-1.39-1.25-2.51-2.68-3.53-4.22-1.1-1.65-1.07-3.29-.07-4.96.08-.14.17-.27.25-.41,1.69-2.73,4.27-4.16,7.27-4.9.8-.2,1.67-.17,2.51-.13.81.03,1.02.3,1.16,1.1.24,1.42-.49,2.47-1.33,3.46-.39.45-.84.86-1.26,1.29.07.06.14.12.21.18,1.67-1.05,3.03-2.37,3.51-4.4.21-.9-.11-1.46-.96-1.82-1.22-.51-2.49-.48-3.77-.29-1.84.27-3.4,1.18-4.88,2.19-1.7,1.16-3.17,2.5-3.83,4.6-.85,2.71-.4,5.05,1.53,7.09,1.37,1.45,2.83,2.84,4.2,4.29.71.75,1.42,1.54,1.99,2.4.38.57.6,1.3.72,1.99.28,1.65-.45,3.05-1.38,4.33-1.49,2.05-3.58,3.3-5.91,4.14-2.14.77-4.36,1.03-6.62.51-1.78-.41-2.5-1.8-1.72-3.46.62-1.31,1.47-2.46,2.7-3.32,1.68-1.17,3.49-2.04,5.47-2.61Z"/>
    <path class="cls-1" d="M71.24,118.28c-.4-.04-.77-.08-1.12-.13-1.48-.2-2.1-1.54-1.27-2.82.33-.5.68-1.02,1.13-1.39,1.8-1.49,3.73-2.74,6.11-3.14,1.34-.23,2.67-.49,4.04-.24.9.17.97.23.9,1.17-.07,1.05-.47,1.96-1.25,2.65-2.27,2-4.9,3.3-7.88,3.85-.24.04-.48.03-.67.04ZM79.83,113.13c-1.37.04-2.74.02-4.14.55,1.44.63,2.94.45,4.14-.55Z"/>
    <path class="cls-3" d="M97.52,121.37c.5-.32,1.02-.61,1.49-.96,1.01-.78.86-1.69-.31-2.18-1.15-.49-2.24-.29-3.18.41-1.33.98-2.21,2.3-2.45,3.99-.17,1.26.23,2.29,1.15,3.13.77.7,1.59,1.35,2.34,2.08.69.66,1.38,1.34,1.95,2.11,1.8,2.42,1.75,4.23.14,7.13-.72,1.3-1.92,2.14-3.08,3-1.92,1.42-3.98,2.56-6.38,2.93-1.47.22-2.96.28-4.41-.19-.97-.31-1.83-.79-2.46-1.64-.47-.64-.61-1.32-.27-2.03.25-.54.52-1.11.92-1.53,2.52-2.61,5.54-4.31,9.16-4.88.43-.07.91-.25,1.07.4.13.54-.13.92-.75,1.13-1.1.38-2.2.75-3.27,1.18-.94.38-1.76.98-2.35,1.82-.27.38-.51.83-.62,1.28-.4,1.65.62,2.79,2.26,2.37,2.9-.75,5.39-2.21,7.2-4.69.62-.85.79-1.86.71-2.86-.04-.54-.38-1.15-.76-1.56-.79-.85-1.69-1.59-2.54-2.38-1.02-.95-2.08-1.86-2.65-3.21-.83-1.95-.8-3.84.36-5.62,2.02-3.08,4.9-4.77,8.58-5,.7-.04,1.45.1,2.12.32,1.84.62,2.52,2.05,1.73,3.8-.67,1.48-1.77,2.57-3.48,2.83-1.01.15-1.51-.11-2.19-1.14ZM98.76,121.44c.41.05.68.15.9.1,1.36-.32,2.2-1.22,2.77-2.45.49-1.07.21-1.94-.91-2.27-.83-.24-1.72-.37-2.58-.35-2.26.05-4.16,1.09-5.91,2.41-1,.76-1.82,1.71-2.26,2.91-.74,2.06-.12,4.02,1.64,5.63,1.21,1.1,2.42,2.22,3.54,3.41,1.17,1.25,1.73,2.69.84,4.37-.52.98-.87,2.13-1.6,2.91-1.83,1.96-4.21,3.01-6.85,3.44-1.12.18-2.14-.19-3.09-.75-.2-.12-.42-.45-.41-.67.11-1.25.37-2.51,1.41-3.34.96-.77,2.03-1.39,3.06-2.07.28-.18.57-.34.86-.51-.34-.16-.65-.25-.87-.15-1.15.55-2.32,1.09-3.41,1.74-1.05.62-1.85,1.53-2.37,2.65-.72,1.54-.09,3.06,1.53,3.63.34.12.7.2,1.05.24,2.41.25,4.69-.13,6.82-1.31,1.81-1,3.35-2.34,4.68-3.89,1.87-2.17,1.71-5.15-.28-7.15-1.25-1.24-2.54-2.44-3.77-3.7-1.14-1.18-1.71-2.56-1.44-4.26.19-1.17.7-2.02,1.64-2.8,1.49-1.24,3.14-1.92,5.03-2,.6-.02,1.29.18,1.79.5.65.41.55,1.45-.15,2.23-.44.49-.98.9-1.63,1.49Z"/>
    <path class="cls-3" d="M141.93,107.27c.52-.72.96-1.32,1.44-1.98,1.52,0,3.04.07,4.56-.02,2.88-.16,5.73-.55,8.47-1.56,1.77-.66,3.09-1.83,3.96-3.48.69-1.3.89-2.68.25-4.04-.61-1.29-1.33-2.54-2.02-3.83.15.09.39.18.55.34,2.01,1.94,3.41,4.22,3.85,7.02.28,1.82-.4,3.18-1.94,4.18-1.75,1.14-3.73,1.71-5.72,2.07-3.34.6-6.72,1.05-10.09,1.47-1.04.13-2.13.19-3.3-.16ZM143.69,106.89c1.6-.09,3.11-.1,4.6-.28,2.01-.25,4.01-.64,6.02-.97,2.45-.4,4.65-1.41,6.62-2.91,1.49-1.13,1.77-3.54.57-5.29,0,.32-.02.5,0,.68.31,1.83-.26,3.3-1.77,4.39-.29.21-.57.44-.88.63-2.16,1.37-4.54,2.19-7.07,2.43-2.38.22-4.78.33-7.17.44-.52.02-.84.11-.92.89Z"/>
    <path class="cls-1" d="M96.58,153.16c-.47.35-.8.4-1.02.02-.05-.1.06-.4.19-.48.48-.29.54.19.83.46Z"/>
    <path class="cls-1" d="M97.84,155.01c.28-.43.46-.71.67-1.03.23,1.05.23,1.06-.67,1.03Z"/>
    <path class="cls-1" d="M128.74,156.69q.83.29.37.94c-.14-.36-.26-.65-.37-.94Z"/>
    <path class="cls-1" d="M108.75,156.74v1.75c-.25-.07-.55-.1-.56-.17-.06-.54-.13-1.12.56-1.58Z"/>
    <path class="cls-1" d="M142.27,154.96c-.4-.75-.75-1.41-1.14-2.15,1.12.32,1.54,1.08,1.14,2.15Z"/>
    <path class="cls-1" d="M114.51,149.76c-.37.15-.55.28-.72.27-.13-.01-.25-.2-.37-.32.12-.12.23-.28.38-.34.08-.03.23.11.71.39Z"/>
    <path class="cls-1" d="M118.54,150.23c-.74-.14-.51-.45-.23-.79.08.26.15.52.23.79Z"/>
    <path class="cls-1" d="M106.05,76.15q.58-1.06,2.24-.68c-.7.21-1.41.43-2.24.68Z"/>
    <path class="cls-1" d="M125.6,52.18v1.07c-.55-.34-.42-.59,0-1.07Z"/>
    <path class="cls-1" d="M111.48,149.31c.58.71.4,1.31.05,1.95-.71-.66-.72-1.05-.05-1.95Z"/>
    <path class="cls-1" d="M122.07,52.37v-1.57c.6.66.39,1.11.31,1.56-.1,0-.2,0-.31.01Z"/>
    <path class="cls-4" d="M117.65,84.63c-.42.29-.83.59-1.26.87-.59.4-1.15.88-1.8,1.15-1.42.59-2.44-.18-2.25-1.7.27-2.24,1.25-4.21,2.44-6.08.8-1.26,1.66-2.47,3-3.22,1.16-.65,2.34-1.04,3.65-.45.09.04.16.12.45.35-.39-.08-.54-.09-.68-.13-1.18-.42-2.16-.05-3.12.68-1.25.96-2.07,2.23-2.75,3.59-.63,1.25-1.2,2.53-1.7,3.84-.22.58-.3,1.24-.31,1.87,0,.75.51,1.03,1.24.76,1.05-.39,1.79-1.17,2.51-1.99,1.51-1.73,2.88-3.54,3.67-5.73.16-.45.19-.94.36-1.39.1-.25.37-.63.55-.62.52.03.42.49.34.84-.09.39-.21.77-.35,1.15-.66,1.78-.83,3.66-1.06,5.53-.05.41.09.84.17,1.48.5-.34.88-.49,1.12-.77,1.36-1.57,2.71-3.15,4.02-4.76.23-.29.32-.71.39-1.1.45-2.4.86-4.8,1.3-7.2.05-.28.21-.55.41-1.05.47,1.04,0,1.76-.07,2.5-.07.76-.27,1.5-.37,2.25-.11.79-.17,1.58-.28,2.62.33-.31.54-.44.67-.64,2.34-3.49,4.21-7.2,4.86-11.39.21-1.35-.03-2.77-.07-4.23-.38.06-.58.1-.87.14.31-.91.81-1.5,1.7-1.7.54.38.46.93.46,1.43-.05,2.63-.55,5.18-1.5,7.62-.76,1.93-1.62,3.83-2.55,5.68-.59,1.17-1.37,2.26-2.13,3.33-.41.59-.64,1.18-.56,1.89.1.87.17,1.75.26,2.62.06.55.31.98,1.01,1.28.53-.4,1.15-.82,1.73-1.3.64-.53,1.23-1.11,1.85-1.67h-.01c-.88,1.5-2.12,2.66-3.62,3.5-.94.53-1.96,0-2.2-1.09-.18-.85-.17-1.73-.26-2.84-.37.42-.64.74-.91,1.05-1.12,1.29-2.22,2.61-3.38,3.87-.62.67-1.08.77-2.07.72-.68-1.2-.32-2.45-.04-3.74-.55.33-1.52,1.39-2,2.17,0,0,.03-.03.03-.03Z"/>
    <path class="cls-4" d="M142.25,64.79c-.63,2.16-1.24,4.23-1.88,6.41.37-.06.7-.05.97-.17,1.83-.79,3.68-1.56,5.48-2.43.79-.38,1.48-.95,1.69-2.05.36.64.19,1.05-.2,1.35-.85.66-1.66,1.42-2.61,1.89-1.64.81-3.37,1.46-5.08,2.13-.47.18-.84.35-1.01.88-1.28,4-2.58,7.99-3.02,12.2-.09.86.27,1.29,1.16,1.26,1.27-.04,2.47-.33,3.4-1.27.56-.56,1.05-1.2,1.55-1.83.27-.33.5-.7.95-.99-.02.24.03.51-.07.7-.94,1.76-2.44,2.96-4.16,3.85-.6.31-1.4.3-2.11.31-.69.01-1.26-.55-1.3-1.31-.05-.79,0-1.6.13-2.38.53-3.36,1.13-6.71,2.21-9.95.07-.22.07-.47.1-.75-.8-.05-1.56-.1-2.32-.14,0-.11-.02-.23-.02-.34.43-.1.86-.23,1.3-.29.86-.11,1.38-.43,1.64-1.38.46-1.7,1.12-3.34,1.71-4.99.25-.7.55-.84,1.51-.7Z"/>
    <path class="cls-4" d="M120.21,75.8c.04.45.17.91.1,1.34-.11.62-.31,1.25-.58,1.82-1.02,2.14-2.27,4.15-3.86,5.92-.33.37-.77.63-1.11.9-.67-.36-.55-.84-.5-1.25.18-1.53.55-3.03,1.38-4.32.83-1.27,1.78-2.46,2.76-3.62.36-.42.94-.65,1.43-.97.13.06.25.12.38.17ZM114.79,85.09c1.59-1.56,3.52-4.2,4.29-5.88.27-.58.47-1.18.68-1.78.15-.41.09-.78-.36-.98-2.2,1.25-4.64,5.77-4.61,8.64Z"/>
    <path class="cls-4" d="M132.12,81.01c.05-.14.08-.31.17-.43,1.36-1.82,2.73-3.64,4.19-5.57-.03.24-.01.38-.07.48-1.1,1.97-2.47,3.74-3.99,5.39-.07.07-.21.08-.32.12h.01Z"/>
    <path class="cls-4" d="M111.44,71.13h-1.54c.06-.33.1-.63.17-.92.24-1,.1-1.27-.9-1.59-.85-.27-1.7-.39-2.59-.16-3.87,1.01-5.82,3.19-6.21,6.85-.09.81.14,1.54.61,2.14.66.85,1.39,1.65,2.15,2.41.59.6,1.29,1.08,1.89,1.67,1.56,1.53,2.7,3.28,2.6,5.58-.07,1.66-.71,3.12-1.81,4.35-1.99,2.25-4.48,3.75-7.35,4.54-1.48.41-3.02.33-4.5-.17-1.68-.56-2.3-1.76-1.83-3.47.33-1.2.93-2.24,1.99-2.91,1.32-.83,2.68-1.6,4.06-2.32.47-.24,1.06-.27,1.59-.4.03.08.06.16.1.24-.48.25-.95.52-1.43.76-2.02.96-3.37,2.54-4.26,4.54-.65,1.46-.13,2.62,1.4,3.06.96.27,1.94.4,2.93-.03.62-.27,1.28-.45,1.93-.66,1.92-.65,3.42-1.88,4.76-3.35,1-1.09,1.06-2.49,1.11-3.83.08-2.2-.92-3.89-2.63-5.26-1.12-.89-2.15-1.92-3.16-2.95-1.76-1.78-2.05-3.84-.91-6.06,1.71-3.33,4.37-5.35,8.18-5.68.81-.07,1.59.11,2.32.49,1.27.67,1.9,1.05,1.34,3.11Z"/>
    <path class="cls-4" d="M100.39,69.94c-.35.06-.69.11-1.05.16-.69-.39-.85-1.1-.8-1.76.09-1.08.39-2.17,1.17-2.96.81-.82,1.67-1.66,2.67-2.19,2.56-1.34,5.24-2.34,8.2-2.47,1.32-.06,2.58,0,3.83.57-.45,0-.91.03-1.36,0-2.38-.16-4.71.03-6.96.92-2.16.86-3.83,2.31-5.08,4.23-.69,1.05-1.06,2.24-.67,3.53l.04-.04Z"/>
    <path class="cls-4" d="M120.27,98.67c0,.11.04.25,0,.34-1.54,3.14-3.14,6.23-5.79,8.63-.5.45-1.02.92-1.61,1.24-.43.23-.99.34-1.48.33-.68-.01-1.09-.44-1.17-1.14-.06-.59-.03-1.2-.04-1.8,0-.34,0-.68,0-1.29-.47.58-.84.94-1.09,1.37-.77,1.32-2,2.17-3.15,3.09-.3.24-.7.38-1.08.51-.89.31-1.76-.19-1.82-1.14-.04-.7,0-1.46.21-2.12.46-1.4,1.06-2.76,1.67-4.33-.3.15-.57.2-.68.35-.83,1.23-1.66,2.46-2.44,3.72-1.29,2.09-3.07,3.68-5.09,5.03-1.09.73-2.3.9-3.56.79-.36-.03-.71-.24-1.06-.37-.05-.11-.1-.23-.15-.34.21-.11.45-.19.63-.33,1.77-1.45,2.98-3.34,4.06-5.32.3-.55.46-1.2.56-1.83.16-.95-.47-1.56-1.42-1.39-.42.08-.86.24-1.21.49-1.25.88-2.46,1.85-3.25,3.17-.45.76-.61,1.72-.78,2.62-.18.94-.2,1.9-.33,2.86-.12.87-.18,1.76-.44,2.58-.62,1.92-1.35,3.81-2.25,5.66-.16-2.26-.32-4.51-.49-6.87.95.64.58,1.8,1.28,2.71.43-2,.92-3.84,1.2-5.71.32-2.18.43-4.38.69-6.56.09-.75.1-1.41-.51-1.98-.31-.3-.54-.7-.79-1.05-.71-1-.89-1.78-.67-3.18.4,1.59,1.35,2.86,2.4,4.06.02.03.04.07.07.1.38.39.91.71,1.12,1.18.19.42.04.99.04,1.65.8-.65,1.52-1.28,2.28-1.83.68-.49,1.38-.96,2.13-1.32,1.28-.62,2.32.07,2.38,1.5.03.85-.12,1.66-.49,2.44-.9,1.89-1.99,3.66-3.52,5.12-.14.14-.28.29-.4.44-.04.05-.03.14-.05.32,1.44-.49,2.8-1.03,3.99-1.9,2.21-1.61,3.42-3.97,4.67-6.09-.39-.6-.9-1.04-.96-1.54-.08-.65.29-1.29.97-1.68.04,1.5.39,1.72,1.85,1.23.46-.15.9-.36,1.35-.49.28-.08.59-.08,1.12-.15-.55,1.54-1.02,2.88-1.5,4.23-.31.86-.66,1.72-.91,2.6-.13.44-.08.94-.11,1.34.51.46.91.2,1.31.03,1.11-.46,1.94-1.28,2.64-2.22,1.25-1.67,2.38-3.42,3.01-5.44.23-.72.51-1.43.79-2.14.09-.22.2-.48.38-.59.24-.15.6-.3.85-.24.36.09.37.47.24.81-.11.3-.2.61-.34.9-1.15,2.42-1.67,5-2.05,7.62-.05.35,0,.7,0,1.3.53-.24.97-.34,1.26-.6.75-.66,1.53-1.31,2.13-2.1,1.32-1.76,2.53-3.6,3.79-5.41.45-.65.92-1.29,1.37-1.94.08.03.15.07.22.1Z"/>
    <path class="cls-4" d="M121,91.24c1.05.93,1.37,2.18,1.46,3.51.12,1.59-.34,3.09-.79,4.58-.26.88-.54,1.74-.64,2.72.42-.59.85-1.17,1.24-1.77,1.01-1.56,2.26-2.91,3.69-4.09.45-.37,1.02-.63,1.57-.81.75-.24,1.26.16,1.23.96-.02.51-.17,1.02-.31,1.52-.41,1.38-.89,2.74-1.26,4.13-.32,1.21-.24,1.51.41,2.74,1.09-.54,1.59-1.62,2.3-2.48.71-.86,1.35-1.76,2.18-2.56-.1.23-.16.49-.3.7-.86,1.25-1.73,2.5-2.62,3.73-.7.96-1.57,1.49-2.84.78-.49-1.08-.12-2.2.14-3.32.22-.94.53-1.85.74-2.78.1-.46.15-.97.08-1.43-.06-.39-.32-.75-.56-1.29-.49.4-.85.64-1.13.95-2.31,2.53-4.06,5.45-5.82,8.36-.14.23-.15.54-.28.78-.19.37-.43.71-.69,1.13-.58-.55-.41-1.05-.26-1.54.51-1.72.98-3.46,1.55-5.16.69-2.06,1.14-4.15,1.38-6.31.12-1.06,0-2.06-.49-3.05Z"/>
    <path class="cls-4" d="M144.59,89.28c-.09.37-.15.71-.24,1.04-.75,2.7-1.46,5.41-2.28,8.09-.51,1.68-1.1,3.35-1.81,4.96-1.27,2.86-2.77,5.6-4.84,7.98-.94,1.09-2.31,2.1-3.22,2.39,2.25-2.02,4.21-4.26,5.73-7.15-1.94-.19-3.46.28-4.8,1.26-1.29.95-2.51,2.01-3.79,3.04.43-1.34,1.34-2.26,2.51-2.92,1.85-1.04,3.71-2.09,5.9-2.25.54-.04.74-.38.9-.82.78-2.14,1.64-4.26,2.34-6.43.8-2.47,1.51-4.98,2.17-7.49.22-.86.63-1.4,1.44-1.71Z"/>
    <path class="cls-4" d="M136.66,107.48c-1.38,2.71-3.36,4.89-5.87,6.61-.16.11-.35.26-.53.26-.46,0-.96.03-1.34-.17-.14-.07-.07-.73.03-1.09.11-.42.27-.86.53-1.2,1.48-1.97,3.14-3.74,5.58-4.51.47-.15.99-.16,1.49-.23.04.11.08.21.12.32ZM135.43,107.86c-2.21.73-3.77,2.25-5.21,3.92-.28.33-.55.7-.74,1.08-.1.22-.14.65-.02.76.2.17.57.2.86.2.18,0,.36-.15.53-.26,2.12-1.41,3.48-3.45,4.58-5.7Z"/>
    <path class="cls-4" d="M138.03,100.91c-.48,1.03-1.22,1.76-2.31,2.07-.67.19-1.09.06-1.39-.52-.13-.24-.23-.52-.25-.79-.26-3.36.75-6.23,3.36-8.45.59-.51,1.27-.93,2.03-1.25-.79.9-1.58,1.8-2.37,2.69-1.54,1.75-2.18,3.87-2.47,6.13,0,.04,0,.08,0,.12.13.53-.01,1.22.57,1.5.57.28,1.08-.13,1.54-.45.46-.31.87-.69,1.3-1.05Z"/>
    <path class="cls-4" d="M91.02,110.92c.04-1.63-.09-3.09,1.04-4.29.63-.66,1.21-1.38,1.83-2.06.21-.23.45-.49.72-.62.34-.15.83-.35,1.07-.21.24.13.39.68.36,1.02-.06.58-.22,1.18-.46,1.72-.7,1.62-1.87,2.87-3.24,3.93-.32.25-.78.31-1.33.51ZM91.7,109.89c2.01-1.27,3.57-2.84,3.73-5.37-1.89,1.34-3.62,2.79-3.73,5.37Z"/>
    <path class="cls-4" d="M114.08,94.27c.81-.72.8-.71.32-1.54-.08-.14.01-.38.03-.64.92.68,1.18,1.24.94,1.8-.2.46-.37.52-1.29.38Z"/>
    <path class="cls-3" d="M106.11,126.26c.43-3.96,2.31-8.37,4.01-9.19.24.66-.05,1.26-.22,1.82-.95,3.04-2.77,6.55-3.79,7.37Z"/>
    <path class="cls-3" d="M140.26,125.78c-.05-.19-.13-.31-.11-.4.57-2.26,1.52-4.3,3.35-5.82.29-.24.7-.4,1.07-.48,1.14-.24,1.72.36,1.35,1.47-.24.71-.57,1.47-1.08,1.98-1.32,1.34-2.84,2.42-4.58,3.25ZM141.37,124.61c1.29-.31,1.85-1.37,2.56-2.19.7-.8,1.3-1.7,1.09-2.9-1.47.31-3.46,3.05-3.65,5.09Z"/>
    <path class="cls-4" d="M75.32,109.66c-1.98.58-3.79,1.45-5.47,2.61-1.23.86-2.08,2.01-2.7,3.32-.78,1.65-.06,3.04,1.72,3.46,2.25.53,4.48.26,6.62-.51,2.33-.83,4.43-2.09,5.91-4.14.93-1.28,1.66-2.67,1.38-4.33-.12-.69-.34-1.41-.72-1.99-.56-.86-1.27-1.65-1.99-2.4-1.38-1.45-2.83-2.83-4.2-4.29-1.93-2.04-2.39-4.38-1.53-7.09.66-2.1,2.13-3.45,3.83-4.6,1.49-1.01,3.05-1.92,4.88-2.19,1.28-.19,2.55-.23,3.77.29.85.36,1.17.92.96,1.82-.48,2.04-1.84,3.36-3.51,4.4-.07-.06-.14-.12-.21-.18.42-.43.87-.84,1.26-1.29.85-.99,1.57-2.04,1.33-3.46-.14-.8-.34-1.07-1.16-1.1-.84-.03-1.71-.07-2.51.13-3.01.74-5.58,2.18-7.27,4.9-.09.13-.17.27-.25.41-.99,1.67-1.02,3.31.07,4.96,1.02,1.54,2.14,2.97,3.53,4.22,1.42,1.28,2.69,2.74,4,4.14.6.64.65,1.48.59,2.27-.28,3.31-1.55,6.09-4.38,8.03-1.54,1.06-3.13,1.87-4.99,2.23-1.49.29-2.94.82-4.49.51-.74-.15-1.49-.33-2.17-.65-1.97-.9-2.42-3.2-1.01-4.89.31-.37.64-.72,1.02-1.02,1.95-1.58,4.1-2.78,6.53-3.47.27-.08.55-.12.82-.16.1-.02.22.02.32.04Z"/>
    <path class="cls-4" d="M79.83,113.13c-1.2,1-2.71,1.17-4.14.55,1.4-.52,2.78-.51,4.14-.55Z"/>
    <path class="cls-4" d="M98.76,121.44c.65-.59,1.19-.99,1.63-1.49.7-.77.8-1.82.15-2.23-.51-.32-1.2-.52-1.79-.5-1.89.08-3.54.75-5.03,2-.93.78-1.45,1.63-1.64,2.8-.27,1.7.3,3.08,1.44,4.26,1.23,1.26,2.52,2.45,3.77,3.7,1.99,1.99,2.15,4.97.28,7.15-1.33,1.55-2.87,2.89-4.68,3.89-2.14,1.19-4.42,1.56-6.82,1.31-.36-.04-.71-.12-1.05-.24-1.62-.57-2.25-2.09-1.53-3.63.53-1.12,1.33-2.03,2.37-2.65,1.1-.65,2.26-1.19,3.41-1.74.22-.1.53-.01.87.15-.29.17-.58.32-.86.51-1.03.68-2.1,1.31-3.06,2.07-1.04.83-1.29,2.08-1.41,3.34-.02.21.2.55.41.67.95.55,1.97.93,3.09.75,2.64-.43,5.02-1.48,6.85-3.44.73-.79,1.08-1.93,1.6-2.91.89-1.68.34-3.12-.84-4.37-1.12-1.19-2.33-2.31-3.54-3.41-1.76-1.61-2.38-3.57-1.64-5.63.43-1.19,1.25-2.14,2.26-2.91,1.75-1.33,3.65-2.36,5.91-2.41.86-.02,1.76.11,2.58.35,1.12.33,1.4,1.2.91,2.27-.56,1.23-1.41,2.14-2.77,2.45-.23.05-.49-.05-.9-.1Z"/>
    <path class="cls-4" d="M143.69,106.89c.08-.77.4-.86.92-.89,2.39-.11,4.79-.22,7.17-.44,2.54-.24,4.91-1.06,7.07-2.43.3-.19.58-.42.88-.63,1.51-1.09,2.08-2.56,1.77-4.39-.03-.18,0-.36,0-.68,1.2,1.76.92,4.16-.57,5.29-1.97,1.49-4.16,2.5-6.62,2.91-2,.33-4,.72-6.02.97-1.49.19-3.01.19-4.6.28Z"/>
    <path class="cls-1" d="M114.79,85.09c-.03-2.87,2.41-7.4,4.61-8.64.45.2.51.57.36.98-.21.6-.42,1.2-.68,1.78-.77,1.68-2.7,4.32-4.29,5.88Z"/>
    <path class="cls-1" d="M135.43,107.86c-1.1,2.25-2.45,4.29-4.58,5.7-.16.11-.35.26-.53.26-.3,0-.66-.02-.86-.2-.13-.11-.09-.54.02-.76.19-.39.45-.75.74-1.08,1.44-1.67,3-3.2,5.21-3.92ZM132.43,109.77c-.01.11-.02.22-.03.33.38.22.77.6,1.2-.25-.46-.03-.81-.05-1.16-.08Z"/>
    <path class="cls-1" d="M91.7,109.89c.11-2.59,1.85-4.03,3.73-5.37-.16,2.53-1.72,4.11-3.73,5.37Z"/>
    <path class="cls-4" d="M141.37,124.61c.19-2.04,2.19-4.78,3.65-5.09.21,1.19-.39,2.1-1.09,2.9-.72.82-1.28,1.89-2.56,2.19ZM142.09,123.54c1.61-1.15,2.42-2.4,2.36-3.59-1.05,1.08-1.81,2.26-2.36,3.59Z"/>
    <path class="cls-4" d="M132.43,109.77c.35.02.7.05,1.16.08-.42.85-.82.47-1.2.25.01-.11.02-.22.03-.33Z"/>
    <path class="cls-1" d="M142.09,123.54c.55-1.33,1.31-2.51,2.36-3.59.06,1.19-.75,2.44-2.36,3.59Z"/>
  </g>
</svg>