<?xml version="1.0" encoding="UTF-8"?>
<svg id="Layer_1" data-name="Layer 1" xmlns="http://www.w3.org/2000/svg" viewBox="0 0 180 200">
  <defs>
    <style>
      .cls-1, .cls-2, .cls-3 {
        fill-rule: evenodd;
      }

      .cls-1, .cls-4 {
        fill: #fff;
      }

      .cls-2 {
        fill: #231f20;
      }

      .cls-4 {
        font-family: AmericanTypewriter-Bold, 'American Typewriter';
        font-size: 19.28px;
        font-weight: 700;
      }

      .cls-3 {
        fill: #9a495c;
      }

      .cls-5 {
        letter-spacing: -.01em;
      }

      .cls-6 {
        letter-spacing: .02em;
      }
    </style>
  </defs>
  <g>
    <polygon class="cls-3" points="27.52 81.69 4.58 115.28 5.72 116.72 49.5 115.21 33.77 86.32 29.09 80.85 27.52 81.69 27.52 81.69"/>
    <path class="cls-2" d="M26.39,86.04c-.82.36-.24-.84-1.07-.47-.4.14-.18.83-1,.58-.32,1.37-.64,2.72-1.93,3.22-.31,1.44.73,1.38,1.15,2.03-1.81,1.33-1.82,5.57-5.01,4.16.29.77,1.25.81,1.39,1.76-.69.35-1.2.49-1.53.59,1.11.91-.3.68-.72,1.34-1.11,1.72-1.71,4.44-3.66,4.87-.07,1.25-.53,2.17-1.71,2.43.66,1.35-.38.18-.74.82,1.67.32-1.07,1.14.1,1.82-1.85.39-1.4,2.87-2.68,3.78-.17-.45.24-1.54-.33-1.55,0,.41.08.9-.49.8-.28.86.85.16.57,1.01-1.08.26-.88,1.69-1.44,2.42,2.71-.6,7.11-.64,10.14-.5.04-.2-.02-.51.23-.54,10.08.93,18.12-.64,30.43-.98-.56-2.73-2.98-4.05-3.92-5.54-.31-2.31-2.5-2.54-2.59-5.08-1.17.17-1-.93-.86-1.52-1.04.02-1.97-1.66-1.14-2.03-.81.44-.87-.15-1.59-.44-1.88-5.68-6.37-9.68-8.52-14.17.01.26-.44.35-.52.02.32-.04.61-.11.5-.55-.73.25-.69-.33-1.31-.19-1.26,1.76-1.82,4.14-3.92,5.14.55.89-.19,1.27-.68,1.86-.32-1.04-.06-2.03.38-2.89.43-.02.18.72.56.76.06-1.12.95-3.25,1.72-2.17-.03-.36.09-.58.22-.79h0ZM41.58,98.05c1.54.23,1.13,2.59,2.74,2.73.04,1.68.91,2.47,1.97,3.03-.12,1.78.89,2.31,1.96,2.77.12.44-.18.5-.49.55.37.36,1.22.6.58,1.28.2-.15.41-.29.76-.31.12.52-.01.82-.48.81.52.67,2.02,2.08,1.17,2.55.27.44.84.53,1.58.44.15,2.13,1.32,3.12,1.31,5.41-.25-.15-.98-.56-.76.3-.47-.49-1.81-.02-1.87-.95-.58,1.02-1.78-.68-3.09.67-.79.13-.58-.82-.85-1.26-.74.26.37.63.07,1.3-.2-.17-.88-1.05-.78.04-3.63-.25-9.02-.27-12.24.08-.01-.26-.03-.51-.04-.78-1.17.7-2.55.83-3.64.18-.7,1.01-5.54,1.05-7.02.35-2.86,1.64-9.21.09-10.59,1.82-2.24-1.26-6.1.17-8.9-.86-.26-.82.17-1,.46-1.33-1.05-.04-.44-.2-.61-1.79,1.21-.4,1.71-1.43,1.68-2.95,1.21.19.52-1.34,1.77-1.13-.23-.78-.21-.49-.07-1.3,1.77.2.7-2.18,2.23-2.19-.18-.26-.61-.24-.56-.76,1.05.29.49-.88,1.53-.6-.02-.43-.04-.87-.06-1.3.22-.21.58-.31,1.02-.31,1.53-3.92,4.38-6.64,6-10.46.9-.02,1.18-.58.96-1.61.76.03.76-.63,1.53-.6.63-3.48,3.95-4.53,4.55-8.05,2.85-.64,2.17-4.48,4.95-5.19-.18-.26-.61-.24-.56-.75.86-.06,1.27-.51,2.33-.38,1.16.83-.31,1.34,1.36,1.23-1.07,1.18.34,4.61,1.51,4.1.38.07.07,1.97,1.38,1.76-.14.8.32.93.35,1.54,3.34,2.79,3.98,8.57,7.33,11.36.12.44-.18.5-.5.55h0Z"/>
  </g>
  <text class="cls-4" transform="translate(17.8 111.53) scale(.79 1)"><tspan class="cls-5" x="0" y="0">1</tspan><tspan class="cls-6" x="12.42" y="0">2</tspan></text>
  <g>
    <path class="cls-1" d="M54.84,79.03s-.37,19.62-.37,21.1-.37,17.4-.37,18.88,1.48,9.62,1.48,11.1,1.11,2.96,2.59,3.33,4.81,1.48,8.51,1.11,26.28-.74,29.24-.74,22.21.74,25.17.74,21.47.74,25.17,1.11,22.58.37,22.58.37l3.7-.37s2.59,1.11,2.59-2.59-.74-11.48-.74-18.14-.74-18.88-.74-23.32.37-11.48.37-12.59-1.85-3.7-1.85-3.7c0,0-1.11-2.22-9.99-1.48-8.88.74-24.06-.37-33.31-.37s-23.69.37-29.61.37-10.73.37-16.29,0c-5.55-.37-21.47-.37-23.32-.37s-5.92,2.22-4.81,5.55Z"/>
    <g>
      <path d="M164.89,94.85c.5.69.96,1.24,1.33,1.85.97,1.6,1.91,3.23,2.83,4.86.11.2.08.56-.02.78-.3.6-.62,1.21-1.05,1.71-.59.68-1.07.67-1.93.29-1.61-.71-2.53-2.14-3.57-3.41-1.05-1.28-1.96-2.68-2.88-4.06-.64-.95-1.58-1.32-2.62-1.45-.66-.08-1.36-.08-2.02.04-1.28.23-2.54.56-3.8.86-.49.12-.77.43-.82.94-.06.76-.09,1.53-.18,2.28-.13,1.02-.23,2.06-.49,3.05-.36,1.38-1.84,2.14-3.2,1.71-.65-.2-1.04-.65-1.11-1.38-.19-1.92-.46-3.84-.6-5.76-.19-2.69-.4-5.38-.4-8.08,0-1.96.28-3.94.57-5.89.17-1.14.87-1.87,2.14-2.05,4.77-.68,9.55-1.16,14.36-.49,2.92.4,5.25,1.8,6.51,4.59.7,1.54.48,3.18.24,4.78-.21,1.44-1,2.57-2.05,3.54-.39.36-.75.76-1.25,1.28ZM154.73,90.73s0-.08,0-.12c1.88-.08,3.76-.18,5.64-.25.89-.03,1.68-.32,2.31-.94,1.32-1.28.87-3.01-.89-3.49-.34-.09-.7-.14-1.06-.17-2.28-.14-4.56-.27-6.84-.41-1.27-.08-2.38.38-3.42,1.02-.79.49-1.15,1.58-.91,2.5.24.94.89,1.42,1.84,1.52,1.11.12,2.23.23,3.34.34Z"/>
      <path d="M120.07,120.51c.5.67.95,1.2,1.31,1.78.96,1.55,1.89,3.12,2.8,4.7.11.19.08.55-.02.75-.3.58-.61,1.17-1.04,1.65-.58.66-1.05.64-1.91.28-1.59-.68-2.5-2.07-3.53-3.3-1.04-1.24-1.94-2.59-2.85-3.92-.63-.92-1.56-1.27-2.59-1.4-.65-.08-1.35-.08-1.99.03-1.26.22-2.51.54-3.75.83-.49.11-.76.42-.81.91-.06.74-.09,1.48-.18,2.21-.13.99-.22,1.99-.48,2.95-.36,1.34-1.82,2.07-3.16,1.66-.64-.2-1.03-.63-1.1-1.33-.19-1.86-.46-3.71-.59-5.57-.19-2.6-.4-5.21-.39-7.81,0-1.9.28-3.81.56-5.69.16-1.11.86-1.81,2.12-1.98,4.71-.65,9.44-1.12,14.19-.48,2.88.39,5.19,1.74,6.43,4.44.69,1.49.47,3.07.24,4.62-.2,1.39-.99,2.49-2.02,3.42-.39.35-.74.73-1.24,1.23ZM110.03,116.52s0-.08,0-.12c1.86-.08,3.71-.17,5.57-.24.88-.03,1.66-.31,2.29-.9,1.3-1.24.86-2.91-.88-3.38-.34-.09-.7-.14-1.05-.16-2.25-.14-4.51-.26-6.76-.4-1.26-.08-2.36.36-3.38.99-.78.47-1.14,1.53-.9,2.41.24.91.88,1.37,1.81,1.47,1.1.11,2.2.22,3.3.33Z"/>
      <path d="M131.85,80.66c2.91-.26,5.58.04,8.26.41.96.14,1.48.63,1.68,1.48.22.95-.07,1.8-.83,2.42-.25.2-.66.24-1,.26-3.32.16-6.64.28-9.95.45-1.38.07-2.78.18-4.14.41-1.37.24-2.11,1.08-2.11,2.97,0,.58.26.91.73,1.17,1.23.68,2.55.99,3.94,1.21,1.32.2,2.63.56,3.89,1,1.34.47,1.49,1.8.41,2.74-.64.56-1.41.77-2.24.78-1.26.01-2.52-.02-3.78.02-1.26.04-2.38.46-3.15,1.54-.85,1.21-.53,2.2.91,2.5,1,.21,2.07.34,3.08.22,2.48-.31,4.93-.17,7.39.1,1.42.15,2.87.18,4.3.2,1.51.02,2.68.84,3.12,2.26.28.92-.14,1.69-1.15,1.87-1.14.21-2.3.36-3.46.43-1.34.09-2.7.13-4.04.09-1.57-.05-3.14-.1-4.69-.35-1.88-.3-3.66.04-5.47.4-.74.15-1.51.24-2.27.25-1.14.02-1.55-.46-1.78-1.56-1.2-5.64-.88-11.36-.95-17.06-.01-1.25.24-2.5.44-3.74.14-.85.56-1.32,1.57-1.5,3.81-.66,7.63-1.18,11.3-.97Z"/>
      <path d="M92.18,92.7c0-2.87-.01-5.75,0-8.62.01-1.92.42-2.35,2.26-2.99,1.68-.58,3.34-.48,5.04-.17,1.19.22,2.4.4,3.6.46,2.78.13,5.26,1.25,7.58,2.57,6.01,3.4,6.26,11.38,2.94,15.47-1.36,1.67-2.97,3-4.59,4.31-1.6,1.29-3.65,1.66-5.66,1.97-2.33.36-4.66.38-6.94-.29-.98-.29-1.96-.65-2.88-1.11-.94-.48-1.17-1.45-1.2-2.42-.03-1.21.01-2.43.02-3.64,0-1.84,0-3.69,0-5.53-.06,0-.13,0-.19,0ZM96.57,93.26s.08,0,.12,0c0,1.26-.08,2.52.02,3.77.17,2.01.79,2.62,2.78,2.99.26.05.54.06.8.09,2.1.24,4.1-.31,6.1-.78.34-.08.66-.28.95-.49,4.48-3.31,3.52-9.22-.38-12.07-1.78-1.31-4.01-1.53-6.21-1.19-.79.12-1.54.48-2.32.69-1.06.28-1.28.46-1.38,1.49-.18,1.83-.32,3.67-.48,5.5Z"/>
      <path d="M66.03,120.87c1-1.11,2.01-2.18,2.96-3.31.76-.9,1.68-1.43,2.84-1.64.89-.16,1.62.04,2.19.69.5.57.93,1.21,1.41,1.8.44.53.71,1.27,1.63,1.43.08-.32.21-.6.21-.89.04-1.8.1-3.59.06-5.39-.03-1.37.08-2.69.58-3.97.48-1.24,1.33-2.13,2.65-2.45,1.15-.28,1.7.1,1.89,1.27.07.44.13.9.11,1.34-.15,2.6-.31,5.19-.52,7.79-.19,2.37-.59,4.71-.12,7.11.19.95.09,1.97.05,2.95-.03.73-.19,1.51-.98,1.77-.84.28-1.6-.1-2.21-.68-.52-.49-1.05-1.01-1.44-1.59-.94-1.4-2.32-2.22-3.7-3.06-.3-.19-.64-.32-.96-.49-1.45-.77-2.61-.62-3.76.57-1.03,1.07-1.95,2.23-3,3.28-.65.66-1.36,1.34-2.18,1.75-1.56.8-2.49.13-2.74-1.2-.08-.4-.19-.8-.19-1.2-.05-5.61-.08-11.23-.11-16.84,0-.09.01-.18.02-.27.04-.9.24-1.73,1.23-2.02.82-.25,2.07.27,2.5,1.19.36.75.62,1.61.65,2.43.1,2.65.08,5.3.11,7.95,0,.58-.08,1.19.81,1.67Z"/>
      <path d="M160.76,107.04c1.79-.29,3.83.59,5.94.98.96.18,1.79,1.76,1.54,2.66-.3,1.09-1.5,1.77-2.58,1.64-2.4-.29-4.81-.49-7.22-.73-1.26-.12-2.52-.16-3.71.33-.69.28-1.37.69-1.93,1.18-.69.6-.52,1.29.35,1.63.58.22,1.19.4,1.8.46,2.41.21,4.84.27,7.25.56,1.68.21,3.38.5,4.75,1.69,1.22,1.05,1.89,2.39,2.12,3.94.13.88.09,1.8.02,2.69-.03.42-.24.86-.49,1.22-1.39,2.04-3.34,3.17-5.8,3.12-3.81-.08-7.64-.19-11.41-.86-.66-.12-1.31-.34-1.92-.62-1.01-.45-1.2-1.23-.62-2.16.94-1.5,2.1-1.98,3.77-1.43,3.42,1.13,6.89,1.08,10.36.39.62-.12,1.28-.48,1.75-.91.75-.69.47-1.6-.53-1.75-1.68-.26-3.39-.37-5.08-.57-1.56-.19-3.11-.45-4.67-.64-2.01-.25-3.57-1.22-4.97-2.68-1.35-1.4-1.78-2.85-1.03-4.64.07-.17.12-.34.17-.51.68-2.26,2.14-3.65,4.49-4.15,2.38-.51,4.77-.84,7.63-.84Z"/>
      <path d="M137.29,116.81c2.88,2.25,4.84,5.01,7.14,7.46,1.02,1.09.91,2.91-.35,3.92-.71.57-1.27.67-2.07.19-.34-.21-.69-.43-.97-.72-2.04-2.14-4.1-4.28-6.08-6.48-.83-.92-1.4-1.17-2.59-.74-1.4.5-2.08,1.4-2.15,2.91-.05,1.16-.05,2.33-.1,3.49-.02.4-.1.8-.18,1.19-.13.64-.54,1.08-1.17,1.12-.73.04-1.63.34-2.06-.54-.35-.71-.6-1.5-.71-2.27-.13-.93-.04-1.88-.08-2.83-.18-3.99-.38-7.98-.54-11.97-.06-1.4-.05-2.79.71-4.05.65-1.08,1.39-1.45,2.57-1.26.85.13,1.1.34,1.2,1.19.07.62.05,1.26.04,1.88-.01,1.12-.06,2.25-.06,3.37,0,.4.05.81.17,1.2.28.93.74,1.09,1.6.59.43-.25.84-.52,1.22-.84,2.15-1.77,4.28-3.57,6.44-5.32.83-.68,1.7-1.34,2.62-1.88.9-.53,1.81-.31,2.42.4.61.71.59,1.76.01,2.58-1.33,1.89-2.98,3.47-4.72,4.97-.8.69-1.46,1.55-2.3,2.45Z"/>
      <path d="M59.81,94.3c-.24-2.76.53-5.15,1.77-7.38,1.71-3.07,4.26-4.91,7.85-5.16,2.13-.15,4.21.06,6.25.66,1.91.56,3.49,1.63,4.78,3.12,1.3,1.5,1.17,3.07-.33,4.36-.69.6-1.32.62-2.06.06-.93-.71-1.86-1.41-2.78-2.14-1.51-1.2-3.18-1.51-5.07-1.09-2,.44-3.72,1.21-4.88,3.02-1.21,1.89-1.65,3.88-.86,6.01.74,2.01,2.1,3.55,3.96,4.61,1.31.75,2.67.68,4,.02,1.25-.63,2.41-1.37,3.37-2.42.85-.93,1.94-1.44,3.22-1.45,1.43-.01,2.43,1.13,1.97,2.47-.79,2.3-2.2,4.13-4.68,4.81-1.47.4-2.99.62-4.45,1.04-2.24.64-4.27.11-6.19-1.01-.85-.49-1.65-1.09-2.4-1.73-2.41-2.09-3.8-4.65-3.47-7.79Z"/>
      <path d="M92.14,108.86c1.81-.26,2.96,1.01,4.28,1.87,2.98,1.94,2.11,7.65-.08,9.51-.6.51-1.33.95-2.08,1.19-1.93.62-3.98,1.22-5.87.16-1.94-1.09-3.04-2.97-3.6-5.12-.04-.17-.02-.36-.02-.54.08-3.13,3.17-7.41,7.37-7.07ZM95.18,115.22c.03-2.08-1.29-3.56-3.19-3.58-2.7-.03-4.28,1.42-4.34,4-.04,1.99,1.46,3.55,3.42,3.57,2.45.02,4.07-1.55,4.11-3.99Z"/>
      <path d="M89.55,95.24c-.17,1.94-.35,4.25-.57,6.57-.04.44-.18.88-.32,1.3-.49,1.45-1.9,1.79-2.9.61-.41-.48-.71-1.18-.77-1.81-.37-3.48-.81-6.96-.59-10.46.09-1.38.26-2.77.58-4.12.45-1.93,1.93-2.03,3.07-.87.66.67,1.11,1.43,1.18,2.35.13,2.01.21,4.02.32,6.43Z"/>
      <path d="M90.88,123.27c1.7,0,3.4,0,5.09,0,.18,0,.36,0,.54,0,.67.01,1.25.23,1.57.84.25.49-.13,1.48-.72,1.9-.32.23-.71.44-1.08.48-2.58.28-5.16.54-7.75.75-.52.04-1.07-.08-1.58-.22-.81-.23-1.29-.91-1.29-1.69,0-.83.39-1.5,1.23-1.73.77-.2,1.58-.25,2.38-.31.53-.04,1.07.04,1.61.07,0-.03,0-.07,0-.1Z"/>
      <path d="M84.64,82.57c.08-1.07.27-2.16,1.45-2.76.98-.5,1.71-.33,2.33.55.97,1.37.63,3.23-1,3.77-.5.17-1.02.46-1.5.42-.85-.06-1.32-.87-1.27-1.99Z"/>
    </g>
  </g>
</svg>