<?xml version="1.0" encoding="UTF-8"?>
<svg id="Layer_1" data-name="Layer 1" xmlns="http://www.w3.org/2000/svg" viewBox="0 0 180 200">
  <defs>
    <style>
      .cls-1 {
        fill: #231f20;
      }

      .cls-1, .cls-2 {
        fill-rule: evenodd;
      }

      .cls-3, .cls-4 {
        fill: #fff;
      }

      .cls-4 {
        font-family: AmericanTypewriter-Bold, 'American Typewriter';
        font-size: 19.28px;
        font-weight: 700;
      }

      .cls-5 {
        letter-spacing: -.02em;
      }

      .cls-2 {
        fill: #9a495c;
      }

      .cls-6 {
        fill: #333;
      }

      .cls-7 {
        letter-spacing: .02em;
      }
    </style>
  </defs>
  <g>
    <g>
      <polygon class="cls-2" points="26.63 82.97 3.68 116.55 4.83 118 48.6 116.48 32.88 87.59 28.2 82.13 26.63 82.97 26.63 82.97"/>
      <path class="cls-1" d="M25.5,87.32c-.82.36-.24-.84-1.07-.47-.4.14-.18.83-1,.58-.32,1.37-.64,2.72-1.93,3.22-.31,1.44.73,1.38,1.15,2.03-1.81,1.33-1.82,5.57-5.01,4.16.29.77,1.25.81,1.39,1.76-.69.35-1.2.49-1.53.59,1.11.91-.3.68-.72,1.34-1.11,1.72-1.71,4.44-3.66,4.87-.07,1.25-.53,2.17-1.71,2.43.66,1.35-.38.18-.74.82,1.67.32-1.07,1.14.1,1.82-1.85.39-1.4,2.87-2.68,3.78-.17-.45.24-1.54-.33-1.55,0,.41.08.9-.49.8-.28.86.85.16.57,1.01-1.08.26-.88,1.69-1.44,2.42,2.71-.6,7.11-.64,10.14-.5.04-.2-.02-.51.23-.54,10.08.93,18.12-.64,30.43-.98-.56-2.73-2.98-4.05-3.92-5.54-.31-2.31-2.5-2.54-2.59-5.08-1.17.17-1-.93-.86-1.52-1.04.02-1.97-1.66-1.14-2.03-.81.44-.87-.15-1.59-.44-1.88-5.68-6.37-9.68-8.52-14.17.01.26-.44.35-.52.02.32-.04.61-.11.5-.55-.73.25-.69-.33-1.31-.19-1.26,1.76-1.82,4.14-3.92,5.14.55.89-.19,1.27-.68,1.86-.32-1.04-.06-2.03.38-2.89.43-.02.18.72.56.76.06-1.12.95-3.25,1.72-2.17-.03-.36.09-.58.22-.79h0ZM40.68,99.33c1.54.23,1.13,2.59,2.74,2.73.04,1.68.91,2.47,1.97,3.03-.12,1.78.89,2.31,1.96,2.77.12.44-.18.5-.49.55.37.36,1.22.6.58,1.28.2-.15.41-.29.76-.31.12.52-.01.82-.48.81.52.67,2.02,2.08,1.17,2.55.27.44.84.53,1.58.44.15,2.13,1.32,3.12,1.31,5.41-.25-.15-.98-.56-.76.3-.47-.49-1.81-.02-1.87-.95-.58,1.02-1.78-.68-3.09.67-.79.13-.58-.82-.85-1.26-.74.26.37.63.07,1.3-.2-.17-.88-1.05-.78.04-3.63-.25-9.02-.27-12.24.08-.01-.26-.03-.51-.04-.78-1.17.7-2.55.83-3.64.18-.7,1.01-5.54,1.05-7.02.35-2.86,1.64-9.21.09-10.59,1.82-2.24-1.26-6.1.17-8.9-.86-.26-.82.17-1,.46-1.33-1.05-.04-.44-.2-.61-1.79,1.21-.4,1.71-1.43,1.68-2.95,1.21.19.52-1.34,1.77-1.13-.23-.78-.21-.49-.07-1.3,1.77.2.7-2.18,2.23-2.19-.18-.26-.61-.24-.56-.76,1.05.29.49-.88,1.53-.6-.02-.43-.04-.87-.06-1.3.22-.21.58-.31,1.02-.31,1.53-3.92,4.38-6.64,6-10.46.9-.02,1.18-.58.96-1.61.76.03.76-.63,1.53-.6.63-3.48,3.95-4.53,4.55-8.05,2.85-.64,2.17-4.48,4.95-5.19-.18-.26-.61-.24-.56-.75.86-.06,1.27-.51,2.33-.38,1.16.83-.31,1.34,1.36,1.23-1.07,1.18.34,4.61,1.51,4.1.38.07.07,1.97,1.38,1.76-.14.8.32.93.35,1.54,3.34,2.79,3.98,8.57,7.33,11.36.12.44-.18.5-.5.55h0Z"/>
    </g>
    <text class="cls-4" transform="translate(16.98 112.81) scale(.79 1)"><tspan class="cls-5" x="0" y="0">1</tspan><tspan class="cls-7" x="12.23" y="0">3</tspan></text>
  </g>
  <g>
    <path class="cls-3" d="M52.04,85.8v15.01s.33,4.73.33,5.38v6.03l-.16.98,15.33.16s7.99.33,10.28.33,34.09.16,34.09.16c0,0,26.1-.49,27.24-.33s23.81-.33,23.81-.33c0,0,10.44-.16,11.42-.16s.16-15.33.16-15.33c0,0-.16-3.59-.16-4.57s-.49-7.83-.49-7.83l-.16-1.3-13.54.16-31.81.82-27.89.33-23.98-.65-21.37.16s-3.43-.16-3.1.98Z"/>
    <g>
      <path class="cls-6" d="M116.33,89.58c.01.14,0,.22.03.27.93,1.57,1.71,3.21,2.55,4.83.03.05.1.07.16.12.3-.14.34-.46.47-.72.51-1.05.49-1.05-.1-2.08-.41-.72-.78-1.46-1.16-2.19-.11-.22-.24-.38-.51-.4-.19-.02-.27-.17-.25-.36.02-.18.13-.3.3-.36.09-.04.19-.06.29-.06.5,0,1,.02,1.49.04.1,0,.19.05.28.08.19.07.25.3.13.5-.05.08-.13.15-.2.24.04.41.36.67.55,1.01.17.31.26.68.57.91.07-.02.15-.01.18-.05.39-.5.69-1.05,1-1.67-.27-.01-.48-.01-.7-.04-.14-.02-.27-.09-.27-.24,0-.12.05-.25.1-.37.02-.05.09-.1.15-.12.51-.15,1.03-.27,1.56-.21.13.02.25.08.37.14.19.08.28.36.14.5-.45.45-.75,1.01-1.07,1.55-.3.51-.6,1.03-.91,1.58.32.82.68,1.62,1.29,2.31.69-1.7,1.36-3.35,2.05-5.03-.07-.04-.14-.09-.22-.11-.21-.05-.36-.16-.41-.38-.04-.18.14-.34.45-.44.65-.22,1.31-.14,1.97-.11.06,0,.13.04.19.06.34.11.54.34.46.55-.1.25-.31.32-.57.31-.13,0-.27-.02-.4-.01-.1,0-.19.02-.28.04-.31.2-.46.5-.59.8-.47,1.1-.93,2.19-1.38,3.3-.25.61-.51,1.23-.67,1.87-.15.58-.56.95-.88,1.4-.05.07-.18.07-.27.11-.33-.21-.48-.56-.64-.87-.31-.58-.58-1.18-.88-1.78-.35.06-.41.34-.53.55-.1.17-.15.37-.27.53-.34.44-.71.86-1.07,1.29-.04.05-.11.06-.18.09-.29-.06-.44-.28-.58-.51-.13-.23-.24-.47-.35-.71-.78-1.61-1.56-3.22-2.36-4.82-.21-.41-.46-.8-.69-1.2-.28-.07-.54-.12-.77-.22-.09-.04-.15-.21-.16-.33-.01-.13.08-.24.22-.29.03-.01.06-.02.1-.02.86,0,1.73,0,2.59,0,.09,0,.19.06.27.1.13.06.15.35.01.42-.17.09-.36.15-.58.24Z"/>
      <path class="cls-6" d="M70.76,94c-.35.65-.69,1.26-1.01,1.87-.16.3-.35.56-.61.78-.24.21-.52.18-.68-.08-.07-.11-.13-.23-.19-.35-.59-1.23-1.17-2.45-1.76-3.68-.5-1.05-1.01-2.09-1.54-3.18-.15-.05-.34-.09-.51-.17-.11-.05-.22-.15-.3-.25-.15-.19-.01-.51.23-.52.23,0,.47-.02.69.02.65.11,1.3.24,1.95.37.09.02.21.05.26.12.08.09.14.22.15.34,0,.07-.08.19-.16.23-.17.08-.37.12-.55.18.15.76,1.31,3.29,2.42,5.29.15.03.24-.04.3-.18.25-.54.5-1.08.75-1.62.09-.19.09-.39.03-.58-.07-.19-.15-.37-.25-.54-.38-.66-.75-1.33-1.16-1.97-.28-.43-.49-.94-1.05-1.13-.05-.02-.09-.17-.09-.26,0-.15.11-.25.25-.26.7-.05,1.39-.02,2.06.22.2.07.3.24.27.47,0,.03-.02.06-.03.09-.04.09-.08.18-.13.31.37.58.41,1.36,1.03,1.86.19-.36.35-.69.54-1,.17-.28.36-.54.58-.84-.29-.07-.51-.11-.72-.18-.2-.06-.24-.36-.07-.48.13-.09.28-.2.43-.21.5-.03.99-.02,1.49,0,.12,0,.25.08.35.16.16.11.16.45,0,.52-.68.3-1.01.93-1.38,1.5-.27.41-.47.88-.67,1.33-.06.14-.07.36,0,.48.39.68.81,1.35,1.33,1.96.68-.86,1.93-3.55,2.3-4.93-.12-.28-.39-.19-.6-.25-.2-.06-.3-.17-.3-.34,0-.19.11-.31.27-.38.09-.04.19-.06.29-.07.17-.01.33,0,.5,0,.63-.02,1.26.05,1.88-.13.18-.05.4.11.46.3.07.21-.07.49-.29.56-.12.04-.26.07-.39.07-.43,0-.65.16-.76.6-.18.71-.54,1.34-.91,1.98-.76,1.32-1.45,2.68-2.17,4.02-.09.18-.17.36-.27.53-.26.5-.54.52-.84.02-.28-.48-.51-1-.76-1.5-.13-.27-.26-.54-.41-.79-.06-.1-.17-.17-.28-.28Z"/>
      <path class="cls-6" d="M168.17,92.96c.21,1.3.86,2.28,1.94,2.99.36.24.74.44,1.11.66.08.05.17.11.24.17.23.19.15.64-.13.75-.09.04-.19.07-.28.08-.16.02-.33,0-.5.02-1.07.12-1.85-.39-2.51-1.14-.52-.6-1.01-1.23-1.39-1.94-.17-.32-.39-.61-.59-.92h-.76c-.03.16-.09.32-.09.47,0,.66,0,1.32,0,2.02.26.08.52.13.76.23.16.06.25.21.25.39,0,.19-.17.41-.35.43-.16.02-.34.05-.49,0-.62-.16-1.25-.11-1.88-.13-.2,0-.4-.02-.58-.08-.11-.04-.22-.18-.24-.29-.02-.11.04-.29.13-.34.22-.14.47-.23.71-.34.12-.05.24-.1.4-.17,0-.14.02-.26,0-.38-.07-.43-.08-.85.01-1.28.04-.19.07-.4.05-.59-.11-1.08-.15-2.18-.39-3.25-.06-.28-.22-.55-.33-.79-.2-.07-.36-.11-.51-.17-.1-.04-.13-.28-.05-.35.08-.06.15-.14.24-.16.39-.09.76-.21,1.17-.19.66.02,1.33,0,1.99-.02.71-.03,1.37.18,2.03.38.3.09.54.27.71.52.29.44.55.91.55,1.47,0,.27,0,.53,0,.8,0,.45-.23.75-.63.92-.18.08-.36.14-.57.23ZM165.31,92.75c.73-.06,1.39-.37,2.08-.58.15-.05.3-.14.41-.26.08-.08.15-.23.14-.35-.06-.81-.62-1.41-1.42-1.52-.29-.04-.59-.02-.89-.02-.12,0-.25.03-.36.05-.13.96-.12,2.02.03,2.67Z"/>
      <path class="cls-6" d="M97.51,89.66h-3c-.21.38-.09.78-.11,1.17-.02.36,0,.72,0,1.07.33.25.69.09,1,.21.28.11.58.09.86.03.23-.14.13-.37.18-.55.06-.23.23-.38.4-.37.22.01.36.15.47.32.02.03.04.06.04.09.03.43.14.85.04,1.29-.08.35-.14.71-.22,1.06-.03.15-.15.22-.28.23-.14,0-.27-.05-.31-.2-.08-.28-.14-.57-.22-.87-.55-.15-1.02-.17-1.7-.07-.11.71-.1,1.8.02,2.66.08.02.17.07.26.08.76.07,1.52.03,2.27.18.53.1.71-.04.92-.53.09-.21.17-.43.26-.64.06-.13.19-.21.32-.18.12.03.22.12.33.19.03.02.05.05.05.08.1.65.34,1.28.3,1.95-.01.27-.22.5-.52.51-.66,0-1.32.1-1.98-.08-.28-.08-.59-.07-.89-.07-.99-.02-1.99-.02-2.99-.03-.3,0-.59-.04-.86-.2-.19-.12-.25-.47-.07-.6.21-.16.44-.28.64-.41.09-.83.1-5.22.02-6.19-.22-.22-.54-.21-.81-.31-.12-.04-.25-.08-.36-.14-.19-.11-.18-.51.03-.59.43-.17.84-.36,1.34-.23.35.09.72.1,1.08.11.96.02,1.92.03,2.89.04.34,0,.66.07.97.17.39.12.51.26.51.62,0,.4-.03.8-.05,1.19,0,.06-.03.13-.06.19-.09.15-.22.24-.4.24-.16,0-.31-.14-.32-.32-.02-.33-.04-.65-.06-1.07Z"/>
      <path class="cls-6" d="M152.77,95.98c0-.43.01-.8.02-1.16.02-.63.03-1.25.13-1.88.08-.59.11-1.2.04-1.79-.07-.58-.31-1.14-.75-1.57-.22-.21-.43-.43-.36-.76.05-.24.41-.37.86-.32.16.02.32.05.48.04.49-.03.99-.08,1.48-.11.13,0,.27.02.4,0,.79-.18,1.58.04,2.36.04.41,0,.66.23.82.61.16.38.13.78.15,1.18,0,.19-.11.33-.27.37-.17.04-.34.02-.46-.11-.23-.28-.45-.57-.66-.87-.13-.18-.3-.25-.51-.25-.73.01-1.46.03-2.19.05-.06,0-.12.05-.21.1.03.27.08.56.1.85.02.3,0,.6,0,.9.01.29.04.58.07.91.6.1,1.15.07,1.72-.04.04-.22.04-.42.1-.6.05-.15.16-.29.27-.4.1-.1.24-.12.36-.03.21.16.44.32.49.6.07.39.12.78.17,1.18.01.1,0,.2-.02.3-.04.21-.25.41-.47.45-.21.04-.36-.06-.5-.36-.03-.06-.05-.12-.08-.17-.02-.03-.05-.05-.07-.07h-1.7c-.04.11-.11.21-.09.28.15.55.16,1.11.15,1.68,0,.23,0,.46,0,.69.14.05.22.11.31.11.76,0,1.53,0,2.29-.02.39,0,.63-.16.75-.52.08-.22.11-.45.19-.66.07-.17.22-.23.41-.22.18.01.32.11.38.27.06.15.08.32.08.48.02.43-.02.86.12,1.28.04.14-.03.32-.08.47-.05.17-.18.29-.36.29-.36,0-.75.05-1.09-.04-.85-.23-1.71-.18-2.57-.18-.96,0-1.92.01-2.89.02-.1,0-.2,0-.3-.02-.25-.03-.43-.24-.43-.47,0-.17.15-.35.38-.39.29-.06.58-.09.97-.14Z"/>
      <path class="cls-6" d="M83.36,89.48c.03.92.06,1.77.09,2.66.64.36,1.3.23,1.9.24.29-.24.22-.52.26-.78.04-.27.16-.39.36-.39.24,0,.41.17.42.45.02.36.07.74.02,1.09-.06.45-.21.89-.26,1.35,0,.09-.17.19-.28.24-.11.05-.35-.11-.38-.25-.05-.25-.08-.51-.13-.81-.32-.12-.65-.06-.97-.1-.29-.03-.58-.05-.88-.08-.02.12-.05.22-.05.31,0,.89,0,1.78,0,2.62.18.2.36.16.51.16.56.01,1.13-.02,1.69.04.63.06,1.01-.25,1.3-.73.21-.34.35-.71.53-1.07.1-.18.37-.17.5,0,.04.05.08.1.11.16.03.06.06.12.07.19.03.63.07,1.26.07,1.89,0,.35-.21.53-.58.53-.7,0-1.39.04-2.08-.11-.29-.06-.59-.07-.89-.08-1.03-.01-2.06,0-3.09,0-.2,0-.4,0-.6-.01-.24-.01-.38-.15-.39-.36-.02-.22.11-.39.33-.42.26-.03.52-.04.83-.07.07-.16.16-.3.18-.45.24-1.44.37-2.89.27-4.35-.04-.64-.28-1.22-.59-1.77-.12-.22-.32-.32-.52-.45-.25-.16-.31-.32-.24-.48.07-.19.23-.22.4-.23.23-.02.46-.02.7-.02,1.29,0,2.59,0,3.88,0,.3,0,.6,0,.9.02.34.02.59.22.62.54.05.53.05,1.06.05,1.59,0,.14-.1.26-.25.26-.12,0-.29-.03-.35-.11-.16-.21-.28-.45-.39-.69-.18-.37-.45-.55-.86-.56-.6,0-1.19-.04-1.79-.05-.09,0-.19.04-.4.09Z"/>
      <path class="cls-6" d="M137.17,95.74c.26.07.55.15.83.23.17.05.27.19.29.37.02.21-.09.38-.29.46-1.01.43-2.06.46-3.13.34-.13-.01-.25-.08-.37-.13-.27-.11-.31-.48-.07-.64.16-.11.35-.16.58-.25-.13-.52-.26-1.06-.4-1.63-.83-.34-1.72-.29-2.65-.29-.34.68-.67,1.35-1.02,2.06.26.21.57.1.84.16.21.05.34.2.32.43-.01.18-.13.35-.29.35-.83,0-1.66,0-2.49-.02-.16,0-.32-.1-.47-.16-.16-.07-.31-.18-.27-.37.04-.15.13-.33.25-.4.23-.13.49-.2.74-.25.39-.08.65-.28.82-.65.37-.81.76-1.62,1.14-2.43.08-.18.15-.37.25-.54.53-.93.86-1.94,1.28-2.91.12-.27.25-.54.38-.81.17-.35.54-.3.77-.17.21.12.34.32.4.55.3.98.78,1.9.99,2.91.19.88.64,1.67.98,2.49.17.43.37.85.56,1.29ZM132.28,93.12c.33.09.61.17.9.23.23.04.46.05.69.06.12,0,.26.03.33-.12-.27-.67-.54-1.34-.82-2.01-.01-.03-.11-.03-.19-.05-.29.61-.59,1.23-.9,1.88Z"/>
      <path class="cls-6" d="M107.35,89.52v6.58c.25.05.48.07.69.14.18.06.37.15.51.27.08.07.14.24.12.35-.03.16-.17.28-.35.31-.06.01-.13.02-.2.02-.96.01-1.92-.04-2.87.16-.11.02-.25-.06-.36-.13-.2-.14-.19-.48.01-.59.32-.17.65-.32,1.02-.49.07-.53.04-1.06.04-1.58,0-.56,0-1.13,0-1.69,0-.53,0-1.06,0-1.59,0-.53-.02-1.05-.03-1.56-.46-.09-1.38-.14-1.6-.07-.29.09-.53.27-.72.51-.18.24-.37.47-.56.7-.06.07-.16.12-.24.17-.16.09-.43-.05-.47-.24-.15-.9.23-1.61.8-2.25.18-.2.43-.31.71-.3.5,0,1,0,1.49,0,.6.01,1.19.08,1.77-.13.12-.04.26-.02.4-.02.56,0,1.13.01,1.69,0,.5-.01.9.19,1.27.49.12.1.21.26.25.41.17.61.2,1.24.17,1.87,0,.18-.11.31-.28.38-.14.06-.4.02-.45-.09-.09-.18-.17-.36-.23-.55-.24-.71-.75-1.07-1.48-1.12-.36-.03-.72-.07-1.13.07Z"/>
      <path class="cls-6" d="M56.93,90.6c.15.11.3.24.46.36.3.2.61.41.92.59.7.42,1.22,1.01,1.68,1.67.24.36.44.74.49,1.18.08.68-.23,1.22-.6,1.74-.13.19-.32.33-.48.5-.24.25-.53.37-.89.38-.4.02-.79.07-1.18.13-.61.1-1.18-.06-1.75-.25-.31-.11-.39-.31-.37-.7,0-.16-.02-.32-.03-.48-.02-.36-.05-.73-.06-1.09,0-.06.02-.14.06-.18.06-.07.14-.16.23-.18.08-.02.22.03.25.09.14.22.25.47.37.7.16.34.4.61.7.83.44.32.9.37,1.4.1.57-.31.72-.71.42-1.32-.24-.48-.56-.89-.98-1.24-.43-.36-.85-.74-1.27-1.11-.59-.54-.73-1.26-.72-2,0-.99.92-1.86,1.93-1.92.75-.05,1.45.06,2.07.52.2.14.35.09.5-.11.08-.1.14-.22.23-.32.07-.09.3-.06.35.05.06.12.15.25.14.37-.02.43-.07.86-.14,1.28-.02.16-.11.31-.19.46-.09.17-.39.22-.52.07-.24-.27-.47-.55-.7-.84-.21-.27-.46-.46-.79-.57-.2-.07-.38-.05-.57.03-.49.21-.83.53-.96,1.25Z"/>
      <path class="cls-6" d="M144.82,89.86c.02,1.19.03,2.29.07,3.38.03,1.09-.07,2.17-.02,3.3.27.02.5.02.72.06.12.02.26.09.34.18.07.09.11.24.11.36,0,.14-.11.24-.26.25-.95.11-1.91.22-2.87.16-.19-.01-.39-.06-.58-.12-.17-.05-.28-.17-.28-.36,0-.19.16-.4.35-.43.16-.02.33-.02.49-.04.16-.01.33.03.47-.1.13-1.54.1-5.79-.05-6.67-.61-.07-1.24-.04-1.86.01-.29.03-.55.23-.73.48-.12.16-.24.31-.33.44-.3.03-.41-.13-.47-.33-.03-.12-.03-.27,0-.39.07-.29.16-.57.25-.86.26-.79.52-.92,1.33-.73.13.03.25.1.37.13.71.17,1.42.33,2.15.09.21-.07.46-.05.69-.05.9,0,1.79.03,2.69.04.13,0,.27,0,.4.01.35.05.61.32.62.67,0,.36-.01.73-.04,1.09-.01.13-.06.27-.14.37-.07.09-.2.19-.31.2-.11,0-.28-.07-.33-.16-.1-.16-.13-.36-.18-.55-.12-.46-.28-.61-.75-.63-.36-.01-.73-.03-1.09,0-.22.02-.44.1-.75.18Z"/>
      <path class="cls-6" d="M121.5,107.63c0-1.07.03-1.99-.11-2.91-.06-.36-.05-.72-.05-1.09,0-.15.12-.24.25-.27.14-.03.27.02.34.15.07.14.16.3.16.46.03,1.09.28,2.17.21,3.27-.03.6.02,1.19.01,1.79,0,.1-.11.23-.2.31-.12.09-.36.04-.44-.1-.34-.62-.91-1.05-1.33-1.61-.4-.52-.76-1.06-1.15-1.6-.18.25-.24.54-.24.84,0,.53-.04,1.06-.05,1.59,0,.24-.04.46-.17.66-.08.13-.19.22-.32.16-.11-.05-.24-.16-.26-.27-.05-.19-.06-.39-.04-.59.08-.86.03-1.72.14-2.58.07-.55.1-1.13-.08-1.68-.03-.09-.02-.2.01-.29.05-.16.17-.31.35-.31.12,0,.27.04.35.12.12.11.2.27.28.41.35.64.72,1.27,1.05,1.92.28.58.68,1.05,1.29,1.6Z"/>
      <path class="cls-6" d="M77.05,105.12c0-.4,0-.8,0-1.2,0-.33.16-.52.46-.53.53,0,1.06,0,1.58.12.78.18,1.27.66,1.57,1.38.31.75.43,1.52.44,2.33,0,.68-.33,1.17-.89,1.44-.78.37-1.62.59-2.5.54-.28-.02-.44-.16-.46-.42-.01-.16,0-.33,0-.5-.02-.5-.03-.99-.11-1.48-.09-.55-.05-1.12-.07-1.69ZM78.05,108.24s.05.06.08.06c.65.04,1.23-.16,1.78-.47.21-.12.33-.33.34-.58.03-.85-.15-1.64-.57-2.39-.14-.25-.37-.38-.63-.45-.19-.05-.4-.04-.59-.07-.19-.02-.37-.06-.56-.08-.18,1.09-.11,2.97.14,3.98Z"/>
      <path class="cls-6" d="M127.88,108.53c.08-.52.07-.99.01-1.52-.32-.03-.62-.05-.9-.1-.28-.05-.5-.28-.44-.43.08-.21.25-.3.46-.31.52,0,1.05-.08,1.54.05.06.09.13.15.13.2.02.73.05,1.46.04,2.18,0,.37-.31.72-.67.75-.49.05-.99.07-1.48-.06-.9-.23-1.35-.89-1.68-1.68-.18-.45-.18-.91-.13-1.37.07-.56.19-1.11.43-1.62.03-.06.06-.12.09-.18.64-1.52,2.43-1.28,3.23-.47.15.15.23.4.29.61.02.09-.1.23-.19.31-.04.04-.22,0-.25-.05-.39-.61-.98-.74-1.65-.7-.26.02-.44.14-.57.34-.43.69-.64,1.45-.61,2.27.04,1.09.83,1.91,1.92,1.82.13-.01.25-.03.42-.06Z"/>
      <path class="cls-6" d="M90.13,107.53c-.05-.47-.32-.72-.73-.87-.37-.14-.74-.28-1.1-.44-.51-.22-.77-.61-.72-1.18.02-.26.02-.53.06-.79.07-.39.37-.61.76-.66.93-.1,1.6.32,2.12,1.04.14.2.18.43-.02.68-.13-.06-.29-.11-.42-.2-.13-.09-.24-.22-.36-.34-.33-.32-.71-.48-1.18-.36-.04.05-.11.09-.13.14-.21.57-.14.8.37,1.04.36.17.74.28,1.11.43.31.13.57.31.75.62.59,1.05.34,1.29-.26,1.92-.62.65-1.4.7-2.21.58-.18-.03-.37-.17-.5-.31-.21-.21-.37-.47-.54-.71-.12-.18-.1-.37,0-.57.11-.22.17-.27.57-.37.11.33.21.67.49.93.18.17.37.26.62.25.62-.01,1.09-.24,1.32-.83Z"/>
      <path class="cls-6" d="M137.35,108.53c.28-.21.57-.44.86-.65.08-.06.17-.11.26-.12.09,0,.2.02.27.08.06.06.07.17.1.26,0,.03,0,.07-.01.1-.31.58-.78.99-1.43,1.13-.59.13-1.41-.28-1.65-.87-.34-.83-.57-1.69-.39-2.61.04-.23.09-.46.1-.68.01-.31.12-.59.27-.84.65-1.11,1.98-1.24,2.84-.27.19.22.34.48.48.74.03.06-.02.2-.08.26-.06.05-.2.08-.26.04-.2-.12-.38-.26-.56-.4-.16-.12-.29-.27-.46-.38-.32-.2-.75-.17-1.01.09-.24.24-.43.5-.44.86,0,.2-.04.39-.09.59-.13.6-.04,1.18.14,1.76.15.47.4.84,1.06.91Z"/>
      <path class="cls-6" d="M144.64,106.79c.06.8-.01,1.37-.36,1.9-.32.5-.76.73-1.34.65-.39-.05-.77-.17-1.08-.45-.48-.43-.7-.94-.63-1.58.11-.99.55-1.73,1.5-2.15.47-.2.91-.15,1.34.05.36.16.51.51.56.88.04.29,0,.59,0,.69ZM143.85,106.93c0-.2,0-.4,0-.59,0-.03,0-.07-.01-.1-.05-.35-.41-.53-.75-.4-.74.3-1.08,1.05-1.02,1.85.03.43.68.9,1.09.8.19-.04.38-.13.47-.33.09-.21.17-.43.21-.65.04-.19,0-.39,0-.59Z"/>
      <path class="cls-6" d="M94.62,104.46c-.5-.21-.96-.25-1.41-.31-.14-.02-.24-.15-.22-.28.01-.12.07-.27.16-.33.13-.08.31-.13.46-.13.7,0,1.39.02,2.09.02.37,0,.72.11,1.05.26.1.05.17.19.21.3.04.12-.13.31-.3.33-.16.02-.33.03-.49.03-.22,0-.45.01-.73.02-.02.2-.05.35-.05.51,0,1.13.01,2.25.02,3.38,0,.17.01.33,0,.5-.02.18-.15.29-.31.35-.15.05-.42-.14-.44-.32-.03-.2-.03-.4-.03-.59,0-.96,0-1.92.01-2.88,0-.26,0-.53,0-.85Z"/>
      <path class="cls-6" d="M109.67,108.38c.35.04.74-.01,1.13,0,.16,0,.34.02.48.08.1.05.2.2.2.3,0,.1-.1.27-.19.31-.69.25-1.41.34-2.14.27-.19-.02-.37-.21-.4-.39-.02-.1-.03-.2-.03-.3,0-1.49.02-2.98.03-4.47,0-.23,0-.47.2-.64.07-.06.18-.11.26-.1.08.01.2.09.22.16.05.15.08.32.08.48.01,1.19.02,2.39.03,3.58,0,.23-.05.46.13.73Z"/>
      <path class="cls-6" d="M103.25,109.1c-.05-.11-.09-.17-.09-.23,0-1.52,0-3.04.02-4.56,0-.13,0-.27.05-.39.04-.11.15-.2.22-.28.21.09.27.23.27.41.03,1.12.06,2.25.08,3.37,0,.26,0,.53,0,.73.13.22.3.24.46.23.46-.02.92,0,1.37-.15.25-.08.42.02.57.27.07.11.05.28-.06.35-.14.09-.28.21-.43.23-.81.1-1.61.41-2.47.02Z"/>
      <path class="cls-6" d="M84.62,106.82c-.06.7-.12,1.48-.2,2.27-.02.17-.17.3-.33.3-.19,0-.34-.1-.37-.27-.05-.26-.07-.53-.03-.78.17-1.09.14-2.17.02-3.26-.05-.42-.03-.86-.02-1.29,0-.11.11-.24.19-.33.12-.14.46-.07.51.1.02.06.04.13.04.19.06.99.13,1.98.2,3.06Z"/>
      <path class="cls-6" d="M99.39,106.19c0-.66,0-1.33,0-1.99,0-.16.02-.33.04-.49.02-.15.23-.3.36-.28.16.03.21.15.24.28.05.19.09.39.09.58.02,1.39.03,2.78.04,4.17,0,.33-.19.53-.47.52-.14,0-.26-.07-.3-.21-.03-.12-.04-.26-.04-.39,0-.73,0-1.46,0-2.19,0,0,.02,0,.03,0Z"/>
      <path class="cls-6" d="M115.31,106.56c0,.56,0,1.12,0,1.69,0,.27-.04.53-.18.76-.08.13-.19.18-.33.16-.14-.02-.24-.11-.25-.26,0-.07-.01-.13-.01-.2.01-1.06,0-2.12.04-3.17.02-.59.11-1.18.18-1.77,0-.04.09-.09.15-.1.05,0,.15.02.17.06.17.33.21.69.21,1.05,0,.6,0,1.19,0,1.79h.02Z"/>
      <path class="cls-6" d="M148.24,108.62c-.33.16-.53.26-.73.35-.12.05-.28.05-.35-.07-.06-.1-.1-.24-.09-.36.03-.24.2-.41.41-.51.21-.1.47-.15.63.04.1.12.08.35.13.55Z"/>
    </g>
  </g>
</svg>