<?xml version="1.0" encoding="UTF-8"?>
<svg id="Layer_1" data-name="Layer 1" xmlns="http://www.w3.org/2000/svg" viewBox="0 0 180 200">
  <defs>
    <style>
      .cls-1, .cls-2, .cls-3, .cls-4 {
        fill-rule: evenodd;
      }

      .cls-1, .cls-5 {
        fill: #fff;
      }

      .cls-2 {
        fill: #231f20;
      }

      .cls-5 {
        font-family: AmericanTypewriter-Bold, 'American Typewriter';
        font-size: 19.28px;
        font-weight: 700;
      }

      .cls-6 {
        letter-spacing: -.04em;
      }

      .cls-7 {
        letter-spacing: .02em;
      }

      .cls-4 {
        fill: #a08651;
      }
    </style>
  </defs>
  <polygon class="cls-4" points="28.4 81.4 5.45 114.98 6.59 116.43 50.37 114.91 34.65 86.03 29.97 80.56 28.4 81.4 28.4 81.4"/>
  <path class="cls-2" d="M26.56,85.75c-.83.36-.24-.83-1.07-.47-.4.14-.18.83-1,.58-.32,1.37-.64,2.72-1.93,3.22-.31,1.44.73,1.38,1.15,2.03-1.81,1.32-1.82,5.56-5.01,4.15.29.77,1.25.81,1.39,1.76-.69.35-1.2.49-1.53.6,1.11.9-.3.68-.72,1.34-1.11,1.73-1.71,4.44-3.66,4.87-.07,1.26-.53,2.17-1.71,2.43.66,1.35-.38.19-.74.82,1.67.32-1.07,1.14.1,1.82-1.85.39-1.4,2.87-2.68,3.78-.17-.45.24-1.54-.33-1.55,0,.41.08.9-.49.81-.28.86.85.15.57,1.01-1.08.27-.88,1.69-1.44,2.43,2.71-.6,7.11-.64,10.14-.51.04-.2-.02-.51.23-.53,10.08.92,18.12-.64,30.43-.98-.56-2.73-2.98-4.04-3.92-5.54-.31-2.31-2.5-2.54-2.59-5.08-1.17.17-1-.93-.86-1.52-1.04.02-1.97-1.66-1.14-2.03-.81.44-.87-.15-1.59-.44-1.88-5.68-6.37-9.68-8.52-14.17.01.26-.44.35-.52.02.32-.04.61-.11.5-.54-.73.25-.69-.33-1.32-.19-1.26,1.76-1.82,4.14-3.92,5.14.55.89-.19,1.27-.68,1.86-.32-1.03-.06-2.03.38-2.89.43-.02.18.71.56.75.06-1.12.95-3.24,1.71-2.17-.03-.36.09-.58.22-.79h0ZM41.74,97.76c1.54.22,1.13,2.58,2.74,2.73.04,1.68.91,2.47,1.97,3.02-.12,1.78.89,2.31,1.96,2.77.12.44-.18.5-.49.54.37.36,1.22.6.58,1.28.2-.15.41-.29.76-.3.12.52-.01.82-.48.81.52.66,2.02,2.08,1.17,2.55.27.44.84.53,1.58.44.15,2.13,1.32,3.12,1.31,5.41-.25-.15-.98-.56-.76.3-.47-.49-1.81-.01-1.87-.95-.58,1.02-1.78-.68-3.09.68-.79.13-.58-.82-.85-1.27-.74.26.37.64.07,1.3-.2-.17-.88-1.05-.78.04-3.63-.25-9.02-.27-12.24.08-.01-.26-.03-.51-.04-.78-1.17.69-2.55.83-3.64.18-.7,1.02-5.54,1.05-7.02.35-2.86,1.64-9.21.1-10.59,1.82-2.24-1.26-6.1.17-8.9-.86-.26-.82.17-1,.46-1.33-1.05-.04-.44-.2-.61-1.79,1.21-.39,1.71-1.42,1.68-2.95,1.21.19.52-1.34,1.77-1.13-.23-.79-.21-.49-.07-1.3,1.77.2.7-2.18,2.23-2.19-.18-.26-.61-.24-.56-.76,1.05.29.49-.88,1.53-.6-.02-.43-.04-.87-.06-1.3.22-.21.58-.31,1.02-.31,1.53-3.92,4.38-6.63,6-10.46.9-.02,1.18-.58.96-1.61.76.03.76-.63,1.53-.6.63-3.48,3.95-4.54,4.55-8.04,2.85-.64,2.17-4.48,4.95-5.19-.18-.26-.61-.24-.56-.75.86-.06,1.27-.51,2.33-.38,1.16.82-.31,1.34,1.36,1.23-1.07,1.18.34,4.61,1.51,4.09.38.07.07,1.97,1.38,1.76-.14.8.32.93.35,1.54,3.34,2.79,3.98,8.57,7.33,11.36.12.44-.18.5-.5.55h0Z"/>
  <g>
    <path class="cls-1" d="M111.69,42.15c3.43.15,6.86.15,10.26.46,5.04.48,10.07,1.27,14.78,3.14,3.15,1.25,6.14,2.99,9.11,4.66,5.45,3.07,9.87,7.36,13.72,12.22,2.3,2.91,4.51,5.92,6.55,9.01,1.05,1.59,1.63,3.49,2.46,5.23,3.58,7.59,4.76,15.76,5.53,23.99.65,6.9-1.05,13.49-4.06,19.63-2.54,5.18-5.65,10.1-8.6,15.08-1.61,2.72-4.04,4.73-6.43,6.75-1.3,1.1-2.68,2.13-3.89,3.32-3.33,3.31-7.54,5.25-11.47,7.65-3.72,2.27-7.63,4.07-11.91,4.83-3.94.69-7.93,1.22-11.92,1.55-6.11.49-12.16-.19-18.16-1.36-5.06-.99-9.95-2.55-14.56-4.83-2.17-1.07-4.15-2.6-6.08-4.1-4.39-3.44-8.4-7.33-12.08-11.51-2.74-3.11-4.16-7.02-5.49-10.88-1.9-5.5-2.8-11.21-3.11-17.02-.15-2.81-.61-5.61-.98-8.41-.82-6.2-.62-12.31,1.68-18.2,1.7-4.36,3.36-8.75,5.36-12.96,2.3-4.83,5.95-8.69,9.84-12.3,2.61-2.42,5.31-4.75,8.04-7.04,6.18-5.18,13.35-7.92,21.38-8.44,3.33-.22,6.68-.31,10-.46Z"/>
    <path class="cls-3" d="M96.62,136.65c.02,1.61-.89,2.49-2.87,2.63-1.13.08-2.04-.94-2.06-2.17-.02-1.24,1.36-2.54,2.72-2.55,1.34-.03,2.2.8,2.21,2.09Z"/>
    <path class="cls-3" d="M153.85,60.75c-.18.32-.32.62-.52.87-.82,1.04-1.66,2.06-2.49,3.08-.07.09-.14.17-.23.24-.49.34-1.07.9-1.58.29-.23-.28-.11-1.12.15-1.47.98-1.25,2.07-2.43,3.18-3.57.19-.2.71-.18,1.04-.11.18.04.28.42.44.68Z"/>
    <path class="cls-3" d="M124.22,44.72c.32.68.72,1.13.72,1.57,0,2.3-.8,4.41-1.73,6.47-.05.11-.28.12-.42.19-.58-1.4.18-6.41,1.44-8.23Z"/>
    <path class="cls-3" d="M139.96,60.19c.07-.52,0-.98.2-1.27,1.14-1.69,2.33-3.35,3.53-4.98.16-.22.57-.43.8-.38.24.06.43.43.58.69.06.11,0,.34-.09.47-1.29,1.91-2.41,3.95-4.29,5.39-.07.05-.21.03-.73.09Z"/>
    <path class="cls-3" d="M157.34,64.21c-.24.36-.42.77-.72,1.06-1.09,1.03-2.21,2.01-3.33,3-.24.21-.53.47-.83.51-.26.04-.63-.12-.81-.32-.1-.11-.02-.56.13-.72,1.29-1.36,2.6-2.71,3.96-4.01.26-.25.78-.28,1.17-.28.13,0,.25.43.43.76Z"/>
    <path class="cls-3" d="M128.02,54.01c-.84-.11-.96-.63-.92-1.13.2-2.21,1.09-4.26,1.58-6.67.49.39.78.53.92.76.13.22.16.55.12.81-.29,2.12-.44,4.3-1.7,6.23Z"/>
    <path class="cls-3" d="M101.71,45.26c1-.38,1.46-.11,1.66.48.61,1.78,1.18,3.57,1.73,5.37.13.43.16.98-.44,1.04-.25.03-.68-.35-.8-.63-.86-2.02-1.53-4.1-2.16-6.26Z"/>
    <path class="cls-3" d="M140.95,51.07c-.08.29-.1.52-.2.72-.79,1.59-1.56,3.19-2.42,4.75-.16.29-.68.37-1.03.55-.09-.35-.23-.69-.25-1.05-.01-.26.1-.55.23-.79.78-1.47,1.55-2.94,2.38-4.37.13-.22.54-.37.82-.36.16,0,.32.37.47.55Z"/>
    <path class="cls-3" d="M171.37,106.87c-.93,1.71-1.58,2.05-2.99,1.54-.87-.31-1.71-.74-2.51-1.23-.24-.14-.27-.62-.4-.95.29-.11.6-.35.87-.31,1.62.26,3.23.6,5.03.94Z"/>
    <path class="cls-3" d="M57.19,102.19c.31-.24.58-.57.92-.71,1.47-.59,3.02-.63,4.57-.48.28.02.75.29.75.47.02.32-.15.76-.4.98-.26.23-.7.38-1.06.37-1.53,0-3.06-.08-4.59-.13-.07-.17-.13-.34-.2-.51Z"/>
    <path class="cls-3" d="M160.32,68.36c-.18.28-.3.54-.48.72-1.07,1.1-2.56,1.75-3.36,3.17-.09.16-.74.14-1.04,0-.23-.1-.46-.53-.42-.78.05-.34.28-.73.55-.96,1.05-.9,2.12-1.78,3.23-2.6.26-.19.7-.23,1.04-.18.18.03.31.39.48.63Z"/>
    <path class="cls-3" d="M168.71,84.24c-1.64,1.01-3.29,1.76-5.08,2.17-.48.11-1.1.31-1.23-.37-.05-.26.39-.74.72-.91,1.24-.61,2.51-1.17,3.79-1.69.73-.3,1.43-.3,1.81.79Z"/>
    <path class="cls-3" d="M115.33,48.3c.04.71.13,1.43.07,2.14-.02.3-.32.72-.58.82-.52.2-.86-.2-.89-.68-.09-1.58-.14-3.18-.17-4.77,0-.2.08-.46.22-.61.17-.18.44-.4.64-.37.2.03.5.31.53.52.12.98.17,1.97.24,2.95-.02,0-.04,0-.07,0Z"/>
    <path class="cls-3" d="M95.25,47.04c.66-.66,1.21-.55,1.51,0,.77,1.46,1.47,2.96,2.13,4.47.18.42.38,1.03-.28,1.28-.6.22-.93-.2-1.14-.68-.75-1.71-1.49-3.41-2.21-5.07Z"/>
    <path class="cls-3" d="M105.39,158.52c-.28-.69-.54-1.01-.53-1.34.02-1.5.09-3,.18-4.49.02-.32.13-.66.29-.95.25-.47.8-.46,1.05,0,.1.18.19.42.17.63-.16,1.71-.33,3.41-.53,5.11-.03.23-.26.45-.63,1.04Z"/>
    <path class="cls-3" d="M165.08,91.6c-.22-.01-.46.03-.65-.05-.24-.09-.62-.28-.61-.42,0-.28.18-.71.39-.79,1.08-.41,2.18-.76,3.29-1.07.52-.14,1.08-.21,1.63-.21.21,0,.55.23.6.42.05.2-.11.61-.29.69-1.41.58-2.85,1.1-4.28,1.64-.03-.07-.05-.13-.08-.2Z"/>
    <path class="cls-3" d="M168.87,114.51c-1.62-.4-3.12-.72-4.59-1.16-.28-.09-.61-.68-.58-1,.06-.62.58-.7,1.14-.54,1.38.39,2.76.77,4.14,1.16.46.13.9.37.7.9-.1.28-.53.43-.8.64Z"/>
    <path class="cls-3" d="M166.18,101.56c-.11-1.06.25-1.45.88-1.47,1.27-.07,2.54-.08,3.81-.07.48,0,.96.25.84.78-.08.36-.49.9-.77.91-1.58.03-3.15-.08-4.76-.14Z"/>
    <path class="cls-3" d="M157.9,76.82c.28-.56.43-1.3.88-1.65,1.13-.88,2.37-1.59,3.61-2.31.21-.12.73-.03.85.15.13.19.08.75-.09.86-1.59,1.14-3,2.56-4.88,3.24-.12-.1-.24-.2-.36-.29Z"/>
    <path class="cls-3" d="M132.3,55.5c-.04-2.49,1.23-4.56,2.18-6.74.91.19.88.68.74,1.18-.37,1.33-.69,2.67-1.16,3.96-.25.68-.79,1.25-1.2,1.86-.19-.09-.38-.17-.57-.26Z"/>
    <path class="cls-3" d="M134.37,153.82c-.23.32-.39.71-.66.86-.16.08-.68-.18-.78-.4-.62-1.34-1.2-2.71-1.72-4.1-.1-.28.13-.68.21-1.03.39.1,1.02.09,1.13.33.66,1.38,1.2,2.83,1.82,4.35Z"/>
    <path class="cls-3" d="M162.41,116.39c.24.06.35.1.46.12,1.46.3,2.93.6,4.39.88.48.09.89.23.82.82-.08.59-.48.96-1.03.83-1.61-.39-3.22-.84-4.8-1.32-.21-.07-.44-.53-.4-.76.04-.24.4-.42.57-.57Z"/>
    <path class="cls-3" d="M64.08,88.29c-1.49-.35-2.79-.62-4.07-.98-.26-.08-.65-.65-.57-.8.17-.33.54-.65.9-.78.26-.09.63.11.95.19.91.23,1.82.48,2.73.68.56.13,1.23.21,1.03.95-.09.34-.69.54-.98.74Z"/>
    <path class="cls-3" d="M120.22,158.8c-.84.08-.99-.37-1.02-.8-.12-1.48-.22-2.97-.24-4.45,0-.28.36-.77.58-.78.28-.02.81.32.84.55.16,1.23.68,2.43.21,3.71-.2.55-.25,1.15-.38,1.77Z"/>
    <path class="cls-3" d="M92.53,54.61c-.92.45-1.37.15-1.69-.34-.77-1.15-1.54-2.31-2.21-3.51-.16-.29,0-.84.19-1.17.06-.11.85-.07.96.12.95,1.59,2.06,3.1,2.75,4.91Z"/>
    <path class="cls-3" d="M149.61,56.48c.03.31.19.72.05.89-1.02,1.28-1.63,2.89-3.09,3.79-.25.16-.67.06-1.01.08-.02-.35-.2-.86-.03-1.05,1.12-1.28,2.31-2.49,3.49-3.7.08-.08.31-.01.59-.01Z"/>
    <path class="cls-3" d="M166.46,79.49c-1.5.98-2.88,2.05-4.6,2.52-.44.12-.96.24-1.1-.32-.06-.26.19-.76.45-.91,1.22-.73,2.48-1.41,3.75-2.05.56-.28,1.07-.12,1.5.76Z"/>
    <path class="cls-3" d="M118.62,53.1c-.13-.44-.38-.87-.38-1.31-.02-1.77.03-3.53.07-5.3.01-.43.02-1.01.64-.92.27.04.67.49.68.77.03,2.24-.09,4.47-.48,6.67-.18.03-.36.06-.53.09Z"/>
    <path class="cls-3" d="M138.35,146.23c.68,1.44,1.38,2.88,2.03,4.33.09.2.04.68-.06.72-.26.1-.69.15-.88,0-1.28-1.07-1.93-2.54-2.42-4.08-.19-.6.13-.79,1.33-.97Z"/>
    <path class="cls-3" d="M127.81,156.78c-.77.31-1.09-.23-1.26-.82-.37-1.26-.71-2.54-.96-3.83-.07-.34.21-.75.33-1.12.34.21.89.36.99.66.54,1.6,1.21,3.19,1.03,4.94,0,.05-.06.09-.12.18Z"/>
    <path class="cls-3" d="M82.11,53.05c.49-.65.92-.51,1.24-.17,1.36,1.43,2.46,3.06,3.56,4.59-.44.69-.9.72-1.25.38-1.45-1.43-2.62-3.07-3.54-4.8Z"/>
    <path class="cls-3" d="M163.22,127.94c-.47.42-.66.7-.92.78-.22.07-.55-.04-.78-.16-1.07-.55-2.14-1.13-3.19-1.72-.52-.29-.93-.77-.49-1.33.15-.19.82-.17,1.14-.02,1.09.52,2.13,1.14,3.18,1.74.33.18.63.42,1.06.72Z"/>
    <path class="cls-3" d="M74.27,69.53c-.5.78-1.01.64-1.44.38-1.22-.77-2.42-1.56-3.59-2.4-.21-.15-.26-.55-.38-.84.33-.12.66-.24,1-.35.05-.02.11.02.16.04,1.68.74,2.94,2,4.25,3.18Z"/>
    <path class="cls-3" d="M92.76,149.17c.86-.12,1.27.2,1.11.9-.38,1.7-.85,3.39-1.27,5.03-.9.09-1.1-.39-1.03-.91.13-1.09.32-2.18.56-3.25.13-.58.4-1.13.64-1.77Z"/>
    <path class="cls-3" d="M109.53,50.7c-.35-2-.69-3.92-1.03-5.86,1.01-.4,1.44.13,1.58.8.29,1.35.48,2.72.66,4.09.09.69-.29,1.02-1.21.98Z"/>
    <path class="cls-3" d="M58.54,110.81c.22-.3.32-.57.47-.62,1.43-.42,2.86-.85,4.31-1.18.27-.06.64.28.96.43-.19.3-.32.74-.59.87-1.56.76-3.18,1.26-5.15.49Z"/>
    <path class="cls-3" d="M73.37,61.12c.41-.66.95-.58,1.34-.27,1.19.98,2.34,2.01,3.46,3.08.15.14.14.68-.01.85-.16.18-.59.25-.86.17-.3-.08-.57-.33-.81-.55-.93-.87-1.85-1.74-2.75-2.64-.18-.18-.26-.45-.37-.64Z"/>
    <path class="cls-3" d="M82.05,61.11c-.38,0-.8.11-1.14-.02-1.09-.41-3.07-2.72-3.54-4.05.53-.59,1.07-.43,1.53.07,1.08,1.17,2.13,2.38,3.18,3.57-.01.14-.03.29-.04.43Z"/>
    <path class="cls-3" d="M156.12,138.09c-.46-.12-.75-.12-.94-.25-1.09-.74-2.18-1.48-3.22-2.28-.23-.18-.47-.78-.36-.91.24-.29.86-.66,1.02-.55,1.16.8,2.27,1.68,3.32,2.63.23.21.12.78.18,1.36Z"/>
    <path class="cls-3" d="M88.58,146.82c-.3.75-.59,1.51-.91,2.26-.28.66-.5,1.37-.92,1.94-.24.33-.86.65-1.21.57-.6-.14-.58-.78-.32-1.24.66-1.16,1.35-2.3,2.09-3.4.17-.24.61-.3.92-.45.11.11.22.22.34.33Z"/>
    <path class="cls-3" d="M171.03,94.84c.33.77.09,1.25-.44,1.36-1.45.28-2.92.46-4.39.64-.18.02-.38-.17-.56-.25-.18-.65.11-1.12.61-1.2,1.6-.25,3.22-.38,4.78-.55Z"/>
    <path class="cls-3" d="M145.92,148.22c-.48-.18-.81-.21-.94-.38-.91-1.18-1.82-2.37-2.65-3.6-.16-.23-.13-.8.05-1.01.35-.41.85-.24,1.13.17.83,1.24,1.63,2.49,2.39,3.77.12.19.02.51.02,1.05Z"/>
    <path class="cls-3" d="M161.12,121.09c1.39.63,2.75,1.22,4.07,1.88.23.11.34.48.51.72-.26.17-.52.48-.78.48-1.62-.02-2.91-.85-4.07-1.87-.38-.33-.32-.79.26-1.2Z"/>
    <path class="cls-3" d="M147.79,138.47c1.27,1.44,2.42,2.74,3.62,4.09-1.34.62-1.68.46-3.25-1.29-1.11-1.23-1.16-1.47-.37-2.8Z"/>
    <path class="cls-3" d="M112.64,154.93c0-.72-.05-1.44.03-2.15.03-.25.34-.48.53-.72.28.22.78.43.79.65.03,1.49-.01,2.98-.11,4.47-.01.21-.45.56-.65.54-.24-.03-.58-.39-.61-.63-.08-.71-.03-1.43-.03-2.15h.06Z"/>
    <path class="cls-3" d="M99.52,156.52c-1.08-.05-1.37-.53-1.29-1.13.15-1.2.37-2.41.66-3.59.06-.26.52-.44.79-.65.17.31.53.63.5.92-.16,1.47-.42,2.93-.65,4.44Z"/>
    <path class="cls-3" d="M82.41,143.04c-.1.25-.12.43-.22.55-.77,1-1.53,2.01-2.37,2.94-.18.21-.66.15-1,.22-.02-.36-.2-.83-.04-1.05.76-1.06,1.61-2.08,2.47-3.07.13-.15.53-.21.73-.14.2.07.31.38.43.55Z"/>
    <path class="cls-3" d="M155.55,129.89c1.33.92,2.56,1.75,3.75,2.64.23.18.27.61.41.93-.34.06-.77.3-.99.17-1.15-.65-2.28-1.35-3.34-2.13-.55-.41-.63-1,.18-1.61Z"/>
    <path class="cls-3" d="M63.48,93.72c-.32,1.05-.94,1.17-1.63,1.06-1.03-.15-2.06-.33-3.07-.57-.26-.06-.45-.38-.68-.58.26-.23.53-.66.79-.66,1.52.02,3.04.12,4.59.75Z"/>
    <path class="cls-3" d="M63.16,126.92c.28-.41.39-.7.59-.84,1.14-.77,2.28-1.53,3.47-2.22.2-.12.62.01.85.16.1.07.06.63-.08.72-1.33.86-2.69,1.68-4.05,2.47-.11.06-.37-.13-.78-.29Z"/>
    <path class="cls-3" d="M65.64,116.44c-.35,1.78-1.92,1.66-3,2.26-.74.41-1.48.28-2.19-.5,1.65-.95,3.4-1.39,5.19-1.75Z"/>
    <path class="cls-3" d="M74.08,141.2c-.46.03-.94-.63-.62-1.07.7-.94,1.53-1.82,2.42-2.6.37-.32,1.1.38.79.8-.72,1.01-1.61,1.89-2.44,2.82-.03.03-.1.03-.16.04Z"/>
    <path class="cls-3" d="M69.76,74.92c-.45.87-.93.98-1.5.7-.83-.41-1.64-.88-2.46-1.33-.54-.31-.61-.77-.29-1.25.31-.46.74-.37,1.16-.11,1,.65,2.01,1.29,3.09,1.98Z"/>
    <path class="cls-3" d="M68.08,135.09c-.61-.67-.43-1.23.06-1.66.66-.58,1.38-1.09,2.13-1.56.22-.14.78-.14.85-.02.16.28.26.78.11,1-.76,1.14-2,1.6-3.15,2.24Z"/>
    <path class="cls-3" d="M66.66,81.31c-1.18.89-1.26.88-4.58-.3.13-1.03.32-1.27,1.09-1.03,1.18.37,2.33.88,3.49,1.33Z"/>
    <g>
      <path class="cls-3" d="M137.71,104.3c0,.13-.03.21-.02.28.28,1.21-.11,2.39-.17,3.58-.02.55-.08,1.11-.08,1.66,0,.26.12.53.17.8.07.4.13.8.16,1.2,0,.09-.12.22-.22.28-.16.09-.33.16-.51.21-.33.1-.46.31-.48.66-.04.71-.13.81-.81.97-.41.1-.83.18-1.25.24-.57.08-1-.15-1.33-.61-.15-.21-.18-.4-.07-.62.63-1.22.85-2.59,1.38-3.86.13-.32.14-.68.21-1.03.06-.27.1-.54.18-.81.17-.53.31-1.06.08-1.62-.04-.11-.02-.24-.03-.33-.46.18-.89.37-1.34.52-.22.08-.48.15-.7.11-1.35-.25-2.72-.21-4.08-.3-1.31-.09-2.62-.18-3.93-.27-.46-.03-.93-.04-1.39-.03-.4,0-.57.15-.62.56-.13,1.05-.69,1.9-1.19,2.78-.19.35-.48.6-.88.72-.34.11-.63.31-.73.69-.02.06-.06.15-.12.18-.43.28-.35.66-.3,1.09.1.93.39,1.81.7,2.67.15.43.42.83.61,1.24.28.59.26.62-.3.81.14.39.32.78.42,1.19.13.49,0,.62-.49.69-.42.06-.82.2-1.23.29-.34.08-.68.16-1.02.22-.27.05-.55.05-.82.1-.54.1-.79-.09-.82-.64,0-.07,0-.15-.02-.22,0-.03-.03-.06-.07-.15-.33,0-.7,0-1.06,0-.5,0-.61-.13-.45-.59.14-.4.31-.79.44-1.2.11-.33.2-.68.29-1.01.09-.35.03-.63-.25-.9-.32-.31-.45-.72-.31-1.18.04-.12.05-.25.07-.42-.78-.45-1.07-1.26-1.46-2.01-.14-.28-.33-.53-.51-.79-.38-.54-.77-1.06-1.12-1.55-.11.78-.19,1.66-.47,2.5-.02.07-.06.14-.06.22-.03.97-.55,1.79-.8,2.69-.18.63-.75.94-1.39.84-.42-.06-.83-.14-1.25-.22-.05-.01-.09-.06-.19-.14.06-.35.12-.73.2-1.1.24-1.12.55-2.23.72-3.35.1-.61.02-1.26-.07-1.88-.12-.86-1.19-1.76-2.05-1.78,0,.1-.05.22-.01.31.49,1.02.35,2.09.24,3.15-.02.2-.04.4-.07.6-.02.12-.04.29-.13.35-.38.28-.45.71-.59,1.1-.18.52-.22.54-.74.52-.31-.02-.62.04-.92.09-.22.03-.44.14-.62-.06-.18-.18-.13-.43-.05-.63.13-.3.32-.58.47-.86.09-.17.25-.35.26-.53.03-1.03.11-2.07-.33-3.05-.22-.48-.24-.54-.79-.51-1.08.06-2.14-.08-3.2-.19-1.21-.12-2.43-.19-3.64-.28-.13,0-.26,0-.39,0-.53.03-.57.08-.7.59-.15.61-.36,1.21-.47,1.83-.13.8-.19,1.61-.25,2.42-.05.86-.05,1.73-.1,2.6-.03.51-.09.53-.61.57-.42.03-.85.08-1.27.12-.5.04-.94-.11-1.39-.36,0-.09-.02-.18-.01-.27.03-.33-.11-.54-.41-.63-.41-.12-.63-.43-.87-.75-.16-.2-.17-.4.05-.58.23-.19.47-.37.67-.57.35-.35.69-.72,1.01-1.09.08-.1.1-.28.1-.41-.05-.88-.21-1.7-.66-2.49-.43-.76-.7-1.61-1.04-2.43-.44-1.08-.81-2.17-1.45-3.17-.43-.68-.67-1.48-.96-2.24-.22-.57-.38-1.16-.6-1.72-.22-.55-.49-1.07-.75-1.62-.63.21-1.2.39-1.77.58-.74.26-1.42.06-2.06-.29-.39-.21-.58-.58-.55-1.02.02-.35.1-.69.16-1.03.02-.12.04-.25.05-.26.31-.28.56-.48.78-.71.4-.43.77-.9,1.18-1.32.22-.23.27-.43.1-.68-.1-.15-.24-.28-.34-.43-.29-.42-.59-.84-.86-1.28-.05-.1-.02-.3.05-.4.15-.22.36-.41.57-.65.15.09.34.14.42.26.32.47.83.66,1.29.91.13.07.26.09.28.29.02.23.22.37.43.35.13-.01.26-.17.34-.29.24-.33.45-.68.67-1.01.05-.08.11-.15.18-.21.31-.23.63-.09.68.3.01.13,0,.26,0,.38,0,.11.03.21.06.38.24-.08.43-.16.64-.22.57-.16.72-.05.76.6.18-.06.35-.11.51-.16.2-.05.39-.14.59-.15.6-.03.86.28.7.86-.16.55-.36,1.08-.56,1.62-.24.67-.42,1.35-.14,2.05.11.29.23.6.44.82.69.75,1.53,1.35,2.48,1.72.82.32,1.71.4,2.61.29,1.24-.15,2.4-.58,3.59-.93,1.33-.39,2.65-.83,4-1.12.89-.18,1.84-.23,2.75-.16.78.06,1.54.36,2.31.56.1.03.2.08.34.13.09-.31,0-.57-.08-.81-.3-.83-.45-1.67-.45-2.55,0-.33-.05-.66-.09-.99-.06-.5-.37-.83-.74-1.13-.09-.07-.24-.1-.35-.08-.62.11-1.21.3-1.73.68-.31.22-.65.43-1,.59-.92.43-1.79.29-2.62-.27-.05-.03-.08-.08-.13-.1-1.03-.48-.98-1.4-.95-2.31.03-.99.66-1.52,1.43-2.01.44-.28.79-.71,1.15-1.1.16-.17.11-.36-.06-.54-.33-.38-.63-.77-.94-1.16-.42-.53-.3-1.16-.27-1.76.01-.22.19-.34.4-.25.36.17.73.35,1.05.59.34.26.67.52,1.1.62.25.05.42,0,.55-.25.31-.57.74-1.04,1.24-1.47.59-.51,1.25-.74,1.98-.76.36,0,.73.17,1.21.28.65-.52,1.52-.86,2.47-.65,1.18.26,1.17.32,1.4.71-.01.03-.02.08-.04.09-.62.32-1.25.63-1.88.94-.74.38-1.35.89-1.79,1.6-.02.04-.02.09-.04.2.34-.11.58-.29.8-.52.24-.25.42-.25.66-.01.49.48.85,1.01.65,1.77-.12.46-.02.88.26,1.31.22.34.28.79.4,1.2.11.35.18.72.29,1.07.26.86.79,1.46,1.67,1.78.37.13.69.42.99.68.42.36.87.54,1.42.65.82.15,1.63.28,2.46.33.07,0,.15.03.22.03,1.68-.25,3.4-.08,5.08-.44,1.21-.26,2.43-.47,3.64-.73.63-.13,1.24-.37,1.88-.48,1.02-.17,2.05-.28,3.08-.39.57-.06,1.14-.09,1.71-.12.2-.01.41,0,.61.02.48.02.96.09,1.44.07.82-.04,1.57.17,2.3.51.52.24,1.07.44,1.53.75.59.41,1.1.92,1.64,1.4.07.06.13.14.16.22.21.57.54,1.14.57,1.72.05.81.2,1.61.25,2.42.04.63,0,1.25.01,1.88.02.7.04,1.4.08,2.11.05.9.1,1.81.17,2.71.03.36.13.72.18,1.08.05.31.12.62.12.92,0,.31-.16.53-.49.66-.52.21-.83.58-.87,1.21-.08,1.14-.25,2.27-.4,3.41-.17,1.28-.36,2.56-.52,3.84-.03.25-.11.41-.35.56-.22.13-.46.4-.49.63-.08.59-.41.88-.96,1.02.02.12.04.22.06.32-.02,0-.04.03-.05.02-.45-.23-1.06-.01-1.43-.47-.07-.08-.1-.24-.08-.35.06-.35.13-.69.25-1.02.35-1,.53-2.03.61-3.09.05-.66.13-1.32.26-1.97.19-.94.18-1.88.15-2.82,0-.27-.13-.45-.37-.63-.66-.52-1.36-1.03-1.55-1.94-.05-.22-.16-.41-.49-.45ZM122.55,104.75c.13.01.22.02.3.03.25.03.51.12.75.09.96-.14,1.92,0,2.87.06.99.07,1.98.2,2.98.29.37.03.74.03,1.11.06,1.56.16,3.05-.03,4.41-.87.25-.16.58-.03.54.22-.1.66.11,1.28.19,1.92.05.39.02.76-.06,1.15-.29,1.36-.75,2.66-1.31,3.93-.21.49-.38,1-.54,1.52-.13.43-.01.59.43.6.27,0,.55-.06.83-.1.76-.1.75-.1.94-.82.06-.22.15-.55.3-.61.6-.23.67-.61.49-1.14-.01-.03,0-.08,0-.11.07-.9.1-1.8.21-2.7.12-.98.24-1.94-.03-2.92-.08-.3,0-.66.07-.98.12-.58.45-.71.97-.42.55.31.82.85,1.09,1.37.21.41.49.69.91.84.32.12.45.33.5.65.19,1.09.18,2.17-.03,3.25-.1.55-.23,1.1-.23,1.65,0,1.35-.36,2.63-.75,3.9-.08.25-.28.53.03.76.18.13.72.02.93-.18.05-.05.11-.11.14-.17.36-.6.73-1.2,1.08-1.8.06-.11.07-.25.09-.38.16-1.25.34-2.49.48-3.73.06-.49.02-.99.06-1.49.03-.44.1-.88.16-1.31.02-.16.1-.32.11-.48.03-.34.18-.59.45-.78.69-.5.9-1.58.55-2.41-.14-.35-.24-.74-.24-1.12-.02-1.13.05-2.26.02-3.38-.03-1.29.12-2.59-.21-3.86-.03-.12,0-.26,0-.38,0-.87-.28-1.67-.64-2.45-.03-.08-.11-.15-.18-.21-.3-.28-.6-.55-.91-.81-.37-.31-.77-.57-1.37-.68.34.4.64.7.88,1.04.23.32.65.54.67,1.03-.08-.02-.12-.02-.14-.04-.44-.5-.85-1.02-1.3-1.5-.26-.28-.54-.66-1.03-.34-.04.02-.11.01-.16,0-.37-.11-.77-.17-1.1-.37-.28-.17-.54-.2-.83-.21-.2,0-.4-.04-.61-.05-.59-.02-1.18-.05-1.76-.04-.66.02-1.33.11-1.99.12-1.17.02-2.32.14-3.44.51-.79.25-1.59.48-2.41.62-1.38.24-2.78.39-4.17.58-.09.02-.18.03-.27.05-.92.23-1.85.28-2.8.2-.53-.04-1.09-.07-1.59.05-.63.16-1.2,0-1.79-.12-.41-.08-.78-.51-.77-.83.02-.49-.05-.6-.52-.72-.24-.06-.45-.13-.57-.38-.05-.11-.18-.18-.27-.27-.67-.63-1.21-1.35-1.43-2.26-.1-.41-.15-.87-.35-1.21-.46-.77-.48-1.57-.42-2.41,0-.15.03-.3-.01-.43-.09-.33-.26-.4-.58-.25-.18.09-.35.21-.55.27-.35.11-.71.2-1.07.24-.12.02-.31-.12-.38-.23-.04-.07.07-.26.14-.37.08-.12.21-.21.3-.32.76-1,1.75-1.68,2.9-2.17.18-.07.34-.18.63-.34-.27-.12-.41-.21-.56-.24-.76-.15-1.5-.09-2.1.43-.52.44-.98.95-1.44,1.46-.26.29-.47.62-.71.92-.24.3-1.09.2-1.24-.15-.04-.09-.02-.22.02-.31.15-.32.3-.63.49-.94.4-.65.73-.77,1.48-.56.26.08.37-.02.47-.3-.24-.08-.47-.22-.68-.22-.62,0-1.22.12-1.69.57-.37.35-.74.72-1.07,1.12-.19.23-.29.54-.42.81-.72.08-1.29-.2-1.81-.6-.3-.22-.59-.43-1-.5-.03.11-.07.19-.08.27-.09.63.17,1.12.59,1.55.33.34.67.67,1.02,1.01-.04.09-.07.17-.11.25-.41.77-1.01,1.38-1.76,1.79-1.1.61-1.53,2.77-.07,3.58,1.07.59,1.88.46,2.67-.17.35-.28.71-.57,1.07-.84.07-.05.17-.07.26-.09.53-.06,1.06-.12,1.59-.18.63-.08.63-.07.83.52.4,1.16.63,2.36.74,3.57.09.97.26,1.9.7,2.77.11.21.13.48.21.8-.48-.12-.73-.38-.92-.66-.35-.52-.85-.76-1.43-.87-.78-.15-1.56-.31-2.36-.22-.88.1-1.77.17-2.63.37-1.09.27-2.13.71-3.22,1.02-1.55.45-3.08.92-4.71.94-.48,0-.95-.06-1.43-.11-.27-.03-.54-.14-.81-.15-.54-.03-.98-.28-1.3-.65-.79-.88-1.28-1.97-1.81-3.03-.06-.11-.06-.26-.05-.38.06-.55.16-1.09.48-1.57.17-.26.33-.54.43-.83.11-.3.27-.6.19-.96-.29-.09-.53.02-.75.13-.27.14-.51.3-.78.43-.3.15-.45.06-.48-.26-.02-.17-.01-.34-.02-.52-.04-.02-.08-.03-.12-.05-.19.16-.37.33-.56.49-.34.29-.55.22-.65-.22-.04-.2.02-.44-.22-.6-.3.22-.52.47-.66.81-.13.32-.3.38-.62.26-.17-.06-.34-.16-.48-.27-.3-.21-.58-.46-.88-.68-.18-.13-.4-.21-.6-.32-.03.03-.06.07-.09.11.2,1.02,1.15,1.61,1.58,2.56-.25.17-.5.32-.73.49-.74.51-1.28,1.22-1.89,1.86-.67.69-.12,1.52.54,1.66.55.11,1.06.06,1.55-.22.32-.18.65-.37.99-.49.48-.18.72-.05.94.4.25.53.51,1.06.76,1.6.08.18.14.38.2.57.12.43.22.86.37,1.28.19.52.4,1.03.63,1.54.18.4.38.8.63,1.16.26.39.47.78.62,1.23.28.82.59,1.63.95,2.43.2.45.51.85.76,1.28.12.21.28.41.33.63.14.56.24,1.12.32,1.69.05.36.08.73.05,1.09-.03.28-.21.55-.26.83-.13.67-.25,1.34-.33,2.02-.04.41.08.51.5.58.21.03.42.03.71.05-.15.09-.22.14-.36.22.33,0,.58.02.83,0,.37-.03.43-.1.45-.49.03-.46.07-.92.05-1.38-.08-1.26.15-2.5.37-3.73.14-.78.38-1.54.59-2.31.04-.17.13-.33.18-.48.27.02.48.06.69.06.31-.02.62-.12.92-.09,1.38.14,2.75.32,4.13.48.55.06,1.11.21,1.65.16,1.03-.09,2.06-.24,3.06-.49.83-.21,1.52-.11,2.14.48.15.14.31.26.46.39.64.57,1.02,1.25,1.01,2.13,0,.37.04.74.02,1.11-.02.38-.05.77-.13,1.14-.09.43-.33.85-.34,1.28-.01.64-.13,1.24-.37,1.82,0,.02.02.07.03.1.76.43,1.52.28,1.79-.4.26-.65.5-1.32.64-2,.38-1.78.61-3.59.68-5.39.19-.14.33-.12.41.03.09.16.14.34.21.51.26.63.48,1.28.78,1.89.36.71.8,1.37,1.19,2.06.11.19.22.4.27.61.1.39.35.63.68.83.52.3.52.32.34.87-.12.34-.02.56.21.84.34.38.68.81.83,1.29.25.83.35,1.7.51,2.55.05.25.08.5.12.77.24,0,.45.04.64,0,.75-.21,1.5-.39,2.27-.48.36-.03.41-.17.37-.54-.06-.46-.29-.84-.63-1.15-.44-.39-.75-.85-.9-1.43-.05-.21-.15-.42-.25-.62-.41-.85-.82-1.69-1.03-2.63-.04-.2-.15-.35-.36-.46-.12-.06-.2-.23-.27-.37-.09-.18-.15-.38-.22-.57-.2-.54-.44-1.06-.57-1.61-.17-.69-.19-1.41-.19-2.19.32-.02.59-.02.86-.03.4-.02.64.17.71.55.07.36.17.73.15,1.09-.04.83-.15,1.65-.22,2.48-.01.17,0,.4.1.51.34.38.45.84.58,1.3.1.35.24.7.38,1.03.27.63.58,1.24.82,1.88.12.33.29.58.59.77.29-.12.33-.31.2-.58-.18-.37-.35-.74-.5-1.11-.29-.74-.63-1.46-.68-2.27-.02-.28,0-.57-.08-.82-.09-.34.03-.57.23-.81.38-.46.67-1.01,1.26-1.27.1-.04.14-.21.22-.31.07-.08.16-.2.23-.19.3.03.38-.19.48-.38.4-.7.68-1.43.76-2.24.03-.32.1-.65.16-.99ZM106.22,105.76c-.53.06-.98.17-1.46.41.48,1.13.43,2.32.49,3.49.02.33-.03.61-.24.88-.18.23-.29.52-.47.85.33,0,.55-.02.77,0,.34.03.5-.15.61-.43.12-.31.27-.6.41-.91.32-.68.47-1.36.19-2.13-.18-.49-.19-1.05-.27-1.57-.02-.16-.02-.33-.03-.61ZM117.31,109.77c.07-.08.12-.1.12-.13.03-.78.07-1.58.09-2.36,0-.12-.03-.29-.1-.36-.13-.13-.32-.28-.49-.28-.23,0-.24.25-.21.43.11.74.22,1.49.35,2.23.03.16.16.31.24.48ZM116.3,114.63c-.28.91-.54,1.73-.79,2.56.43.23.77.02,1.16-.08-.12-.82.08-1.65-.37-2.48ZM90.73,111.77c.22.08.38.15.55.19.18.03.33-.04.39-.23.11-.37.2-.73.3-1.1-.49.29-.98.53-1.24,1.14ZM109.06,81.55c-.39-.14-.59,0-.75.18-.14.17-.25.36-.34.56-.09.19-.29.37-.11.68.21-.27.38-.5.56-.72.18-.21.39-.42.64-.7Z"/>
      <path class="cls-3" d="M122.55,104.75c-.06.35-.13.67-.16.99-.09.81-.37,1.54-.76,2.24-.11.18-.18.41-.48.38-.07-.01-.17.12-.23.19-.08.1-.12.27-.22.31-.59.26-.88.8-1.26,1.27-.19.24-.32.47-.23.81.08.26.06.55.08.82.05.81.39,1.53.68,2.27.15.38.32.75.5,1.11.14.27.09.46-.2.58-.3-.18-.47-.43-.59-.77-.24-.64-.55-1.25-.82-1.88-.14-.34-.28-.68-.38-1.03-.13-.46-.24-.92-.58-1.3-.1-.11-.11-.34-.1-.51.07-.83.18-1.65.22-2.48.02-.36-.08-.73-.15-1.09-.07-.38-.31-.57-.71-.55-.27.01-.54.02-.86.03,0,.78.02,1.5.19,2.19.14.55.37,1.08.57,1.61.07.19.13.38.22.57.07.14.15.31.27.37.21.1.32.25.36.46.2.93.62,1.78,1.03,2.63.1.2.19.41.25.62.14.58.46,1.04.9,1.43.34.31.57.68.63,1.15.05.37,0,.51-.37.54-.78.08-1.52.27-2.27.48-.18.05-.4,0-.64,0-.04-.28-.08-.52-.12-.77-.16-.85-.26-1.72-.51-2.55-.14-.47-.49-.91-.83-1.29-.24-.28-.33-.49-.21-.84.19-.55.18-.57-.34-.87-.34-.2-.58-.44-.68-.83-.05-.21-.16-.42-.27-.61-.4-.68-.84-1.35-1.19-2.06-.31-.61-.52-1.26-.78-1.89-.07-.17-.13-.35-.21-.51-.09-.15-.23-.17-.41-.03-.07,1.8-.3,3.6-.68,5.39-.14.68-.38,1.35-.64,2-.27.68-1.04.83-1.79.4-.01-.03-.04-.08-.03-.1.24-.58.36-1.18.37-1.82.01-.43.25-.85.34-1.28.08-.38.12-.76.13-1.14.02-.37-.03-.74-.02-1.11.01-.88-.37-1.56-1.01-2.13-.15-.14-.32-.26-.46-.39-.62-.59-1.3-.69-2.14-.48-1,.25-2.03.4-3.06.49-.54.05-1.1-.09-1.65-.16-1.37-.16-2.75-.34-4.13-.48-.3-.03-.62.08-.92.09-.21,0-.42-.03-.69-.06-.06.15-.14.31-.18.48-.2.77-.45,1.53-.59,2.31-.22,1.23-.45,2.47-.37,3.73.03.46-.02.92-.05,1.38-.02.39-.08.46-.45.49-.25.02-.51,0-.83,0,.14-.08.21-.12.36-.22-.29-.02-.5-.02-.71-.05-.42-.06-.54-.17-.5-.58.07-.68.2-1.35.33-2.02.06-.28.23-.55.26-.83.04-.36,0-.73-.05-1.09-.08-.57-.18-1.13-.32-1.69-.05-.22-.21-.42-.33-.63-.25-.42-.56-.83-.76-1.28-.35-.79-.66-1.61-.95-2.43-.15-.45-.36-.84-.62-1.23-.24-.37-.44-.76-.63-1.16-.23-.51-.45-1.02-.63-1.54-.15-.41-.24-.85-.37-1.28-.06-.19-.12-.39-.2-.57-.25-.54-.5-1.07-.76-1.6-.21-.45-.46-.58-.94-.4-.34.12-.67.31-.99.49-.49.28-1,.33-1.55.22-.66-.14-1.21-.96-.54-1.66.62-.64,1.16-1.35,1.89-1.86.24-.17.48-.32.73-.49-.43-.95-1.38-1.54-1.58-2.56.03-.04.06-.07.09-.11.2.11.41.19.6.32.3.22.58.46.88.68.15.11.31.2.48.27.32.12.49.06.62-.26.13-.34.36-.59.66-.81.23.16.17.4.22.6.1.44.31.51.65.22.19-.16.37-.33.56-.49.04.02.08.03.12.05,0,.18,0,.35.02.52.03.33.18.42.48.26.26-.13.51-.29.78-.43.23-.11.46-.22.75-.13.08.35-.08.66-.19.96-.11.29-.26.57-.43.83-.32.48-.42,1.02-.48,1.57-.01.12-.01.27.05.38.53,1.05,1.01,2.14,1.81,3.03.32.37.77.62,1.3.65.27.01.54.12.81.15.47.05.95.12,1.43.11,1.63-.02,3.16-.49,4.71-.94,1.08-.31,2.13-.75,3.22-1.02.85-.21,1.75-.27,2.63-.37.8-.09,1.59.07,2.36.22.57.11,1.08.35,1.43.87.18.28.44.54.92.66-.08-.33-.1-.59-.21-.8-.45-.87-.62-1.8-.7-2.77-.11-1.21-.34-2.41-.74-3.57-.2-.59-.2-.59-.83-.52-.53.06-1.06.12-1.59.18-.09.02-.19.03-.26.09-.36.28-.72.56-1.07.84-.79.63-1.59.76-2.67.17-1.46-.81-1.04-2.97.07-3.58.76-.42,1.35-1.03,1.76-1.79.04-.08.07-.17.11-.25-.35-.35-.69-.68-1.02-1.01-.41-.43-.68-.92-.59-1.55.01-.08.05-.17.08-.27.4.08.7.28,1,.5.53.4,1.09.68,1.81.6.13-.26.23-.57.42-.81.33-.4.7-.76,1.07-1.12.47-.45,1.08-.57,1.69-.57.22,0,.44.13.68.22-.1.28-.22.37-.47.3-.75-.21-1.08-.09-1.48.56-.18.3-.34.62-.49.94-.04.09-.06.22-.02.31.16.35,1.01.45,1.24.15.24-.3.45-.63.71-.92.46-.5.92-1.01,1.44-1.46.6-.52,1.34-.58,2.1-.43.15.03.29.12.56.24-.29.16-.45.26-.63.34-1.14.49-2.14,1.17-2.9,2.17-.09.12-.22.21-.3.32-.07.11-.18.3-.14.37.07.12.26.25.38.23.36-.04.72-.14,1.07-.24.19-.06.36-.18.55-.27.32-.15.48-.09.58.25.04.13.02.29.01.43-.06.84-.04,1.64.42,2.41.21.34.25.8.35,1.21.23.91.77,1.63,1.43,2.26.09.09.22.16.27.27.12.25.33.32.57.38.47.12.54.23.52.72-.01.32.36.75.77.83.59.12,1.16.28,1.79.12.5-.12,1.06-.09,1.59-.05.95.08,1.88.03,2.8-.2.09-.02.18-.04.27-.05,1.39-.19,2.79-.34,4.17-.58.82-.14,1.62-.37,2.41-.62,1.12-.37,2.27-.49,3.44-.51.66,0,1.33-.1,1.99-.12.59-.02,1.18.02,1.76.04.2,0,.41.04.61.05.29.02.56.05.83.21.33.19.73.25,1.1.37.05.02.12.03.16,0,.49-.32.76.06,1.03.34.46.48.87,1,1.3,1.5.02.03.06.02.14.04-.02-.49-.44-.7-.67-1.03-.24-.34-.54-.64-.88-1.04.59.11.99.38,1.37.68.31.26.61.54.91.81.07.06.14.13.18.21.36.78.64,1.58.64,2.45,0,.12-.03.26,0,.38.33,1.27.17,2.57.21,3.86.03,1.13-.04,2.26-.02,3.38,0,.38.1.77.24,1.12.35.84.13,1.91-.55,2.41-.28.2-.42.45-.45.78-.01.16-.09.32-.11.48-.06.44-.13.88-.16,1.31-.03.5,0,1-.06,1.49-.14,1.25-.32,2.49-.48,3.73-.02.13-.03.27-.09.38-.35.61-.72,1.2-1.08,1.8-.04.06-.09.12-.14.17-.21.19-.76.31-.93.18-.3-.23-.1-.51-.03-.76.39-1.28.75-2.55.75-3.9,0-.55.13-1.1.23-1.65.2-1.08.21-2.16.03-3.25-.06-.32-.18-.53-.5-.65-.41-.15-.69-.43-.91-.84-.27-.52-.54-1.06-1.09-1.37-.51-.29-.84-.17-.97.42-.07.32-.15.68-.07.98.26.98.15,1.94.03,2.92-.11.9-.14,1.8-.21,2.7,0,.04,0,.08,0,.11.18.53.1.91-.49,1.14-.16.06-.24.39-.3.61-.2.72-.19.72-.94.82-.28.03-.55.11-.83.1-.44-.01-.56-.18-.43-.6.16-.51.32-1.03.54-1.52.56-1.27,1.02-2.57,1.31-3.93.08-.38.11-.75.06-1.15-.08-.64-.28-1.26-.19-1.92.04-.25-.29-.38-.54-.22-1.36.85-2.85,1.03-4.41.87-.37-.03-.74-.03-1.11-.06-.99-.09-1.98-.22-2.98-.29-.95-.07-1.91-.2-2.87-.06-.24.03-.5-.06-.75-.09-.09-.01-.18-.02-.3-.03ZM93.97,106.37c-.01-.23,0-.4-.04-.56-.12-.48-.23-.98-.71-1.25-.16-.09-.4-.14-.56-.08-.22.07-.13.31-.08.48.21.66.42,1.33.65,1.98.04.11.22.25.31.24.14-.03.3-.15.35-.28.07-.18.05-.4.07-.53Z"/>
      <path class="cls-3" d="M106.22,105.76c.02.28.01.45.03.61.08.52.1,1.08.27,1.57.28.77.13,1.45-.19,2.13-.14.3-.3.6-.41.91-.11.29-.27.47-.61.43-.22-.02-.44,0-.77,0,.18-.34.29-.62.47-.85.21-.27.26-.55.24-.88-.06-1.17,0-2.36-.49-3.49.48-.25.93-.36,1.46-.41Z"/>
      <path class="cls-1" d="M117.31,109.77c-.09-.17-.21-.31-.24-.48-.13-.74-.25-1.48-.35-2.23-.02-.18-.02-.43.21-.43.17,0,.35.15.49.28.08.08.11.24.1.36-.02.78-.06,1.58-.09,2.36,0,.03-.05.05-.12.13Z"/>
      <path class="cls-3" d="M116.3,114.63c.45.83.25,1.66.37,2.48-.4.11-.74.31-1.16.08.26-.83.51-1.65.79-2.56Z"/>
      <path class="cls-3" d="M90.73,111.77c.27-.62.75-.85,1.24-1.14-.1.37-.2.74-.3,1.1-.06.19-.21.26-.39.23-.17-.03-.33-.11-.55-.19Z"/>
      <path class="cls-3" d="M93.97,106.37c-.01.14,0,.35-.07.53-.05.12-.22.25-.35.28-.09.02-.27-.13-.31-.24-.24-.65-.45-1.32-.65-1.98-.05-.17-.14-.41.08-.48.16-.06.4,0,.56.08.48.26.59.77.71,1.25.04.16.03.33.04.56ZM93.43,106.28s.09-.02.14-.02c.13-.49-.17-.85-.33-1.25-.04.01-.08.02-.12.03.11.42.21.83.32,1.24Z"/>
      <path class="cls-1" d="M93.43,106.28c-.11-.41-.21-.83-.32-1.24.04-.01.08-.02.12-.03.16.4.46.77.33,1.25-.05,0-.09.02-.14.02Z"/>
    </g>
    <path class="cls-3" d="M103.75,62.39c-.08-.31-.09-.49-.17-.62-.31-.45-.47-.97-.66-1.47-.28-.77-.6-1.52-.98-2.28-.25.02-.47.04-.69.04-.22,0-.36-.16-.34-.39.05-.54.34-.92.87-1,.7-.09,1.41-.14,2.11-.17.18,0,.38.11.56.19.17.07.18.32.03.41-.17.1-.36.17-.53.27-.31.2-.39.37-.27.72.18.57.38,1.13.6,1.68.44,1.1.92,2.19,1.14,3.37.04.25.2.47.28.71.04.13.04.27.06.41-.29.13-.6.04-.83.26-.07.06-.22.08-.32.06-.63-.13-1.28-.23-1.81-.66-.31-.25-.64-.47-.95-.72-1.1-.89-2.18-1.8-3.28-2.69-.14-.11-.31-.2-.56-.36.02.26.02.39.05.52.37,1.21.74,2.43,1.11,3.65.02.08.06.16.08.25.1.29.29.47.6.52.25.04.5.1.74.17.38.13.58.41.73.81-.18.08-.31.14-.43.2-.18.08-.37.14-.54.25-.24.15-.45.42-.69.46-.67.09-1.35.09-2.02.12-.05,0-.11-.01-.16-.03-.26-.07-.4-.26-.33-.51.07-.2.17-.41.31-.58.1-.13.26-.21.4-.31.39-.3.42-.4.3-.86,0-.03-.02-.05-.02-.08-.5-1.5-1-3.01-1.5-4.51-.03-.11-.1-.2-.17-.32-.46.08-.9.06-1.31-.15-.21-.25-.1-.49,0-.72.1-.21.26-.38.49-.44.63-.15,1.27-.31,1.91-.41.47-.08.88.03,1.17.48.16.25.45.42.69.62.4.32.8.64,1.2.94.88.66,1.76,1.32,2.65,1.98.09.06.2.09.48.21Z"/>
    <path class="cls-3" d="M153.31,98.21c.32.02.5.07.64.03.53-.15,1.06-.14,1.6-.16.82-.03,1.63-.09,2.47-.21.06-.24.11-.46.18-.67.07-.21.27-.29.47-.2.5.21.77.62.67,1.15-.13.69-.31,1.38-.51,2.06-.05.17-.22.33-.35.47-.13.14-.37.07-.4-.11-.04-.19-.05-.39-.1-.58-.09-.36-.22-.49-.59-.49-.6-.01-1.19,0-1.78.04-1.19.06-2.37.18-3.56.02-.25-.04-.5.04-.76.04-.13,0-.26-.05-.4-.08-.03-.31.15-.58.02-.86-.04-.08-.01-.23.04-.32.32-.56.62-1.14,1.2-1.51.33-.21.64-.46.98-.67,1.19-.76,2.39-1.51,3.59-2.26.15-.1.28-.23.52-.42-.25-.06-.38-.11-.51-.11-1.27-.04-2.54-.07-3.82-.1-.09,0-.17,0-.25,0-.31,0-.54.13-.68.41-.12.23-.25.45-.4.65-.24.32-.57.42-.99.44-.02-.2-.04-.34-.05-.47-.02-.2-.02-.4-.06-.59-.06-.27-.26-.56-.22-.8.12-.66.34-1.31.53-1.96.01-.05.05-.1.08-.15.15-.23.37-.3.58-.15.18.13.34.3.46.48.09.14.12.32.17.48.16.46.24.52.72.55h.08c1.59,0,3.17,0,4.76,0,.11,0,.22-.03.36-.06.07-.45.22-.88.55-1.2.3-.11.5.06.68.23.17.16.28.37.26.61-.06.64-.11,1.29-.2,1.94-.07.47-.3.82-.83.95-.29.08-.54.3-.8.46-.43.28-.85.56-1.27.85-.91.63-1.81,1.26-2.71,1.89-.09.06-.15.16-.35.39Z"/>
    <path class="cls-3" d="M85.2,121.12c.01-.32-.46-.68-.04-1.05.08.02.15.02.18.04.6.53,1.07,1.17,1.51,1.84.17.27.21.54.12.85-.1.35-.49.46-.75.19-.09-.09-.15-.22-.23-.33-.14-.2-.33-.27-.56-.21-1.01.23-2.03.46-3.04.71-1.29.32-2.58.68-3.87,1-.34.08-.69.12-1.03.12-.58.02-.85-.22-1.03-.79-.12-.38-.28-.74-.44-1.11-.07-.17-.19-.32-.26-.5-.14-.34-.03-.59.33-.64.26-.03.42-.17.6-.34.75-.69,1.51-1.35,2.27-2.03.69-.63,1.38-1.26,2.06-1.91.15-.14.27-.33.39-.5.26-.35.34-.71.13-1.12-.12-.23-.23-.49-.07-.81.23-.08.5-.17.79-.26.09.11.2.2.25.31.23.55.58,1.01,1,1.43.12.12.23.3.25.47.04.32-.16.52-.49.62-.18.05-.38.08-.51.18-.71.57-1.37,1.19-1.91,1.92-.16.21-.17.43-.11.68.18.72.52,1.34.99,1.91.09.1.29.21.41.19,1.02-.2,2.06-.29,3.01-.78.02-.01.03-.04.06-.1ZM77.15,122.58c.75.11,2.05-.08,2.61-.38-.08-.19-.15-.39-.24-.58-.1-.21-.22-.41-.32-.61-.36.15-1.71,1.01-1.88,1.22-.08.09-.12.22-.18.35ZM82.04,114.89c.03.11.03.19.08.24.04.04.12.05.18.08-.01-.07,0-.15-.04-.2-.04-.05-.11-.07-.22-.12Z"/>
    <path class="cls-3" d="M146.46,82.06c-.01.32.46.69.04,1.04-.08-.01-.15,0-.18-.04-.6-.53-1.07-1.17-1.5-1.84-.17-.27-.21-.54-.12-.85.1-.35.49-.46.75-.19.09.09.15.22.23.33.14.2.33.27.56.22,1.01-.23,2.03-.46,3.04-.71,1.29-.32,2.58-.68,3.88-1,.33-.08.69-.12,1.03-.13.58-.01.85.23,1.03.8.12.38.28.74.44,1.11.07.17.19.33.26.5.14.34.03.6-.34.65-.26.03-.42.16-.6.33-.75.69-1.52,1.35-2.27,2.03-.69.63-1.38,1.26-2.06,1.9-.15.14-.27.33-.4.5-.26.35-.34.71-.13,1.12.11.24.23.49.07.81-.23.08-.5.17-.8.26-.09-.11-.2-.2-.25-.31-.23-.56-.58-1.01-1-1.44-.12-.12-.23-.3-.25-.47-.04-.31.16-.52.49-.61.18-.05.38-.08.51-.18.71-.57,1.37-1.19,1.92-1.92.16-.21.18-.43.11-.68-.18-.71-.52-1.34-.99-1.9-.09-.11-.29-.22-.41-.19-1.02.19-2.06.29-3.01.77-.02.01-.03.05-.06.1ZM154.51,80.61c-.75-.12-2.05.08-2.61.38.08.19.15.38.24.57.1.21.21.41.32.62.36-.16,1.71-1.01,1.88-1.22.08-.09.12-.22.18-.35ZM149.61,88.29c-.03-.11-.03-.19-.08-.24-.04-.05-.12-.05-.18-.08,0,.07,0,.15.04.2.04.05.12.07.22.12Z"/>
    <path class="cls-3" d="M144.45,133.12c.31-.92.29-.91-.32-1.6-.63-.71-1.36-1.31-2.12-1.87-.83-.6-1.66-1.22-2.49-1.83-.16-.12-.33-.21-.48-.31-.25.05-.47.11-.69.14-.15.02-.27-.19-.18-.31.52-.75,1.02-1.52,1.78-2.06.12-.09.27-.11.38.02.11.12.11.26.03.4-.11.16-.23.31-.37.48.12.16.2.31.33.42.65.56,1.29,1.13,1.95,1.67.29.24.48.23.75-.06.66-.71,1.31-1.43,1.94-2.18.26-.3.24-.5-.01-.75-.69-.68-1.42-1.32-2.2-1.91-.22.07-.41.14-.6.18-.07.02-.18-.02-.23-.07-.04-.06-.03-.16-.03-.24,0-.05.04-.11.08-.15.53-.57,1.05-1.13,1.58-1.69.06-.06.12-.12.2-.17.17-.1.33-.24.55-.14.14.06.13.26-.03.61-.05.1-.1.2-.14.29.59,1.01,3.47,3.49,5.33,4.58.29-.09.61-.22.94-.3.12-.03.32.01.38.09.06.08.03.28-.03.38-.16.23-.34.46-.54.66-.47.45-.96.9-1.46,1.33-.11.1-.29.12-.43.17-.07-.09-.13-.14-.12-.18.07-.47-.09-.83-.46-1.12-.4-.32-.78-.68-1.18-1-.27-.21-.47-.2-.69.04-.6.65-1.17,1.33-1.75,2-.09.11-.13.26-.19.38-.11.24-.08.45.11.63.44.4.88.81,1.33,1.21.22.2.46.2.71.04.21-.14.43-.27.66-.38.08-.05.23.11.21.2-.02.08-.03.17-.08.23-.58.66-1.02,1.45-1.73,2.01-.18.14-.36.28-.67.14Z"/>
    <path class="cls-3" d="M79.67,130.44c-.2-.2-.35-.35-.49-.51-.1-.12-.07-.33.06-.43.08-.06.18-.12.27-.16.9-.32,1.81-.64,2.72-.95.1-.03.2-.08.31-.08.07,0,.17.03.2.09.04.05.06.17.03.22-.17.24-.35.47-.54.69-.56.67-.45,1.43.3,1.88.32.19.67.33,1.01.49.07.03.15.05.23.06.88.11,1.39-.41,1.24-1.29-.09-.55-.33-1.07-.53-1.59-.11-.29-.3-.56-.43-.86-.12-.27-.23-.55-.28-.83-.21-1.3.4-2.06,1.63-2.32,1.67-.36,2.99.25,3.88,1.73.33.55.7,1.08.92,1.69.05.15.14.29.23.42.19.28.35.32.69.22.15-.04.3-.1.41-.14.25.1.25.27.17.41-.09.15-.21.32-.36.41-.76.44-1.54.85-2.32,1.26-.12.06-.25.08-.38.1-.15.02-.3-.21-.21-.35.09-.13.19-.26.31-.35.35-.25.4-.58.39-.98-.02-.56-.17-1.05-.58-1.44-.52-.5-1.01-1.03-1.55-1.51-.42-.37-.73-.33-1.12.06-.61.62-.83,1.35-.58,2.2.15.51.33,1.02.44,1.54.09.41.12.85.14,1.27.01.21-.03.43-.08.63-.23.89-.7,1.27-1.61,1.23-.4-.02-.8-.1-1.18-.2-.42-.11-.75-.35-1.03-.71-.42-.52-.86-1.01-1.17-1.62-.22-.43-.27-.43-.77-.34-.1.02-.2.04-.35.07ZM84.79,127.79s.05,0,.06-.01c.01-.02,0-.04,0-.07-.02,0-.06,0-.06.01-.01.02,0,.05,0,.07Z"/>
    <path class="cls-3" d="M116.68,146.64c-.27.08-.47.15-.68.2-.16.03-.33-.09-.35-.25-.02-.1-.03-.21-.02-.32.14-.95.28-1.9.43-2.85.02-.11.03-.22.07-.31.03-.06.11-.13.17-.14.07-.01.18.03.21.08.13.26.25.53.37.8.33.81,1.06,1.06,1.81.61.32-.19.6-.43.9-.66.06-.05.12-.11.16-.18.51-.73.28-1.42-.57-1.7-.53-.17-1.1-.21-1.65-.27-.32-.04-.64,0-.96-.02-.29-.03-.59-.05-.87-.14-1.25-.42-1.64-1.31-1.29-2.52.46-1.64,1.62-2.52,3.34-2.62.64-.03,1.28-.11,1.92-.02.16.02.32,0,.48-.02.33-.04.45-.15.52-.5.03-.16.05-.31.07-.43.2-.18.35-.1.44.04.1.15.19.34.19.51.03.88.03,1.76.03,2.64,0,.13-.05.26-.09.38-.06.14-.33.16-.4.02-.08-.13-.15-.29-.17-.44-.06-.42-.33-.63-.69-.8-.51-.24-1.01-.34-1.55-.16-.68.23-1.38.41-2.05.67-.53.2-.63.49-.47,1.02.26.83.81,1.36,1.67,1.54.52.11,1.05.19,1.57.33.41.11.8.29,1.19.47.19.09.37.23.52.37.68.61.79,1.21.33,2-.2.34-.46.65-.73.95-.29.32-.66.5-1.11.59-.66.12-1.3.29-1.98.28-.48,0-.51.04-.66.52-.03.1-.06.2-.1.34ZM116.73,140.88s.03-.05.02-.06c0-.02-.04-.02-.06-.03,0,.02-.03.05-.02.06,0,.02.04.02.06.03Z"/>
    <path class="cls-3" d="M71.65,83.15c.05-.27.08-.48.14-.69.04-.15.23-.24.39-.19.1.03.2.07.29.14.78.56,1.55,1.13,2.33,1.69.09.06.18.12.24.2.04.06.06.16.04.22-.02.06-.11.15-.17.15-.29,0-.58-.02-.88-.05-.87-.08-1.43.45-1.38,1.32.02.37.11.74.17,1.11.01.08.05.16.08.23.41.78,1.13.9,1.77.28.4-.38.69-.88,1.01-1.34.18-.26.29-.57.46-.85.16-.25.32-.5.53-.7.95-.91,1.92-.84,2.84.02,1.24,1.17,1.49,2.6.78,4.17-.26.58-.49,1.18-.87,1.71-.09.13-.15.28-.21.43-.12.32-.07.47.2.69.12.1.25.18.35.25.06.26-.08.36-.24.38-.18.02-.39.01-.55-.06-.79-.38-1.57-.79-2.35-1.2-.11-.06-.21-.16-.29-.26-.1-.11,0-.36.17-.37.16,0,.32,0,.47.05.4.14.71,0,1.03-.25.45-.34.77-.73.86-1.29.12-.71.27-1.41.36-2.13.06-.56-.14-.79-.69-.89-.86-.15-1.58.09-2.14.77-.34.41-.65.85-1.02,1.23-.29.31-.63.58-.96.84-.17.13-.37.22-.57.29-.86.32-1.44.14-1.92-.63-.21-.34-.37-.71-.51-1.08-.15-.4-.14-.82,0-1.25.19-.64.34-1.29.67-1.88.23-.42.2-.46-.16-.82-.07-.08-.15-.15-.26-.25ZM76.74,85.85s.03.05.05.05c.02,0,.04-.03.05-.04-.01-.02-.03-.05-.04-.05-.02,0-.03.02-.05.04Z"/>
    <path class="cls-3" d="M140.97,63.32c.26.1.46.17.66.26.15.06.21.26.14.4-.05.09-.1.18-.17.25-.64.63-1.29,1.26-1.93,1.89-.07.07-.14.15-.23.19-.06.03-.16.03-.22,0-.06-.03-.13-.13-.12-.19.04-.27.09-.55.15-.81.18-.81-.26-1.43-1.11-1.54-.36-.05-.73-.03-1.1-.04-.08,0-.16.02-.23.04-.81.25-1.02.9-.49,1.61.33.44.77.81,1.18,1.2.23.21.52.38.76.59.22.19.45.39.62.62.78,1.06.59,1.96-.36,2.67-1.29.96-2.72.93-4.16-.03-.54-.35-1.09-.68-1.56-1.12-.11-.11-.25-.2-.39-.28-.3-.17-.45-.15-.7.07-.11.09-.21.2-.29.28-.26.01-.34-.14-.33-.29,0-.18.04-.37.13-.5.47-.68.96-1.34,1.45-2,.07-.1.18-.17.29-.23.12-.08.35.07.34.22-.02.15-.04.31-.11.43-.19.36-.09.67.11,1.02.27.49.62.86,1.16,1.05.68.24,1.34.52,2.03.72.54.17.79.02.95-.49.25-.78.11-1.51-.49-2.16-.36-.4-.75-.77-1.08-1.19-.27-.33-.48-.7-.7-1.06-.1-.18-.17-.38-.21-.58-.21-.87.04-1.38.85-1.7.35-.14.73-.22,1.11-.28.42-.06.82.02,1.22.22.6.3,1.21.56,1.75.97.38.29.43.28.82,0,.08-.06.16-.11.28-.2ZM137.72,67.62s-.05.02-.05.03c0,.02.02.04.03.06.02-.02.05-.02.05-.04,0-.01-.02-.03-.03-.05Z"/>
    <path class="cls-3" d="M159.26,104.53c.18-.3.29-.54.45-.75.05-.07.22-.11.31-.08.09.03.14.16.2.26.02.05,0,.12,0,.18-.21,1.26-.47,2.5-1.08,3.64-.59,1.12-1.52,1.88-2.51,2.6-.05.03-.1.06-.16.08-1.21.38-2.41.61-3.65.12-.44-.17-.88-.35-1.33-.51-.61-.21-1.01-.63-1.17-1.24-.15-.54-.28-1.1-.32-1.66-.1-1.44.14-2.83.72-4.16.12-.27.23-.55.37-.8.11-.2.42-.16.5.05.03.08.07.17.07.26.02.52.35.72.79.81.78.16,1.57.32,2.36.47,1.17.21,2.33.42,3.5.62.29.05.58.08.94.13ZM155.01,105.61s0,.02,0,.02c-1.02-.18-2.04-.37-3.06-.53-1.02-.16-1.37.22-1.03,1.17.57,1.62,1.59,2.81,3.34,3.25.75.19,1.41.09,2.03-.33.81-.55,1.52-1.23,2.1-2.03.5-.69.22-.93-.4-1.03-.99-.17-1.98-.35-2.97-.52Z"/>
    <path class="cls-3" d="M111.74,59.99c.2-.03.33-.08.46-.07.85.08,1.69.17,2.53.26.17.02.33.07.48.14.19.09.3.26.31.48,0,.08,0,.17-.02.25-.04.14-.08.27-.14.4-.04.07-.11.12-.2.2-.25-.06-.52-.12-.83-.19-.07.18-.16.32-.17.48-.09.75-.22,1.51-.12,2.29.02.19.04.4-.24.53-.15-.12-.32-.26-.49-.41-.41-.06-.75.18-1.11.33-1.23.48-2.37.23-3.23-.74-.96-1.09-1.42-2.38-1.38-3.82.02-.75.13-1.53.3-2.26.33-1.36,1.27-2.24,2.49-2.83.58-.29,1.2-.3,1.8.03.12.07.25.12.35.17.32-.05.43-.3.59-.49.12-.15.26-.22.45-.18.23.05.42.17.48.43.03.14.03.28.02.42-.05.81-.1,1.63-.16,2.5-.3.15-.66.12-.97.2-.31-.17-.33-.43-.37-.68-.06-.35-.26-.54-.59-.65-.55-.19-1.1-.25-1.67-.16-.55.09-.96.39-1.15.9-.33.88-.57,1.78-.63,2.72-.02.31.04.62.11.92.07.34.25.63.54.84.3.21.6.43.9.64.73.51,1.55.46,2.37.32.22-.03.36-.16.4-.38.03-.2.06-.39.08-.59.05-.41-.05-.7-.48-.88-.4-.16-.38-.2-.71-1.11Z"/>
    <path class="cls-3" d="M69.56,105.36c.22-.54,0-1.08-.04-1.63-.02-.29-.04-.58-.03-.87.02-1.1.06-2.2.09-3.3,0-.15-.02-.29,0-.44.05-.81.41-1.18,1.33-1.37.41-.08.82-.15,1.24-.21.33-.05.61.03.83.25.18.18.38.35.57.53.22.21.13.49-.18.58-.05.02-.11.03-.16.04-.56.05-1.11.1-1.67.12-.9.03-1.17.19-1.06,1.03.14,1.02.14.97,1.22.95,1.26-.03,2.52-.03,3.79-.05.36,0,.73-.04,1.09-.08.66-.08.69-.11.84-.64.03-.12.04-.25.1-.35.04-.08.14-.17.23-.19.15-.04.28.05.32.17.1.28.23.55.25.85.04.63.03,1.27.03,1.91,0,.07,0,.14-.03.21-.11.45-.47.57-.84.26-.39-.34-.79-.62-1.35-.68-.06,0-.12-.02-.16-.05-.45-.35-.98-.29-1.51-.27-.81.04-1.62.05-2.44.09-.39.02-.78.04-1.18.08-.28.03-.4.14-.42.38-.02.34-.01.68,0,1.02.02.36.25.58.65.69.49.12.99.18,1.5.13.22-.02.38.05.5.21.13.17.12.34-.05.45-.09.06-.18.12-.28.15-.46.12-.92.23-1.4.18-.53-.06-1.05-.13-1.59-.07-.04,0-.09-.04-.18-.08Z"/>
    <path class="cls-3" d="M134.96,137.59c.32-.3.65-.32.88-.08.6.66,1.37.65,2.15.66.36,0,.66-.1.94-.34.5-.43.92-.92,1.28-1.48.22-.34.2-.56-.07-.84-.32-.33-.67-.65-1.02-.95-.21-.18-.46-.2-.69-.06-.29.17-.6.34-.79.72.1.21.23.45.35.7.11.25.04.47-.19.65-.22.18-.49.21-.69.06-.12-.09-.23-.21-.32-.33-.4-.48-.77-.97-1.18-1.44-.25-.29-.42-.61-.52-.98-.07-.28.17-.52.43-.43.23.08.45.2.67.31.16.08.31.18.48.29.34-.2.66-.37.97-.57.25-.16.3-.4.11-.64-.44-.52-.87-1.06-1.36-1.54-.42-.41-.67-.26-.97.02-.35.31-.71.6-1.09.88-.46.34-.79.79-1.11,1.25-.28.4-.33.79-.07,1.22.16.26.31.54.43.82.12.28.04.52-.19.65-.26.15-.55.09-.75-.15-.04-.05-.07-.1-.1-.15-.41-.69-.82-1.39-1.25-2.12.07-.09.12-.21.21-.28,1.26-1.11,2.51-2.23,3.79-3.32.45-.38.96-.69,1.44-1.02.05-.03.11-.06.17-.08.33-.12.65.09.64.45,0,.17-.08.35-.16.52-.05.11-.16.19-.23.29-.05.07-.09.16-.16.27.06.12.09.28.18.39,1.07,1.21,2.16,2.41,3.24,3.61.04.04.09.09.14.12.8.6.63.86,1.79.32.16-.07.36-.1.54-.11.07,0,.18.08.21.14.03.07.02.22-.03.26-1.27,1.09-2.27,2.48-3.77,3.3-.62.34-1.21.74-1.82,1.12-.26.16-.52.18-.78,0-.33-.24-1.45-1.6-1.74-2.13Z"/>
    <path class="cls-3" d="M125.25,141.47c.41-.15.73-.04.84.27.3.83,1.01,1.13,1.72,1.44.33.14.64.17.99.06.63-.2,1.21-.5,1.75-.86.34-.23.4-.43.26-.8-.16-.43-.37-.86-.57-1.28-.12-.25-.34-.36-.62-.32-.33.05-.68.08-1.01.36.01.23.04.51.05.78,0,.27-.15.45-.43.53-.27.07-.53,0-.66-.21-.08-.13-.13-.28-.17-.43-.18-.6-.33-1.2-.52-1.79-.12-.37-.15-.73-.09-1.11.04-.28.36-.41.57-.22.18.17.34.36.5.55.12.14.22.29.33.46.39-.05.76-.09,1.12-.15.29-.05.43-.25.35-.54-.2-.66-.39-1.31-.65-1.94-.23-.54-.52-.5-.9-.37-.44.15-.89.28-1.35.39-.55.13-1.03.41-1.51.72-.41.26-.61.6-.53,1.09.05.31.08.62.08.93,0,.3-.17.49-.43.52-.3.04-.54-.13-.63-.43-.02-.06-.03-.12-.03-.18-.11-.8-.22-1.6-.33-2.43.1-.06.2-.15.3-.18,1.59-.53,3.18-1.08,4.78-1.58.56-.18,1.15-.26,1.73-.38.06-.02.13-.01.19,0,.35.02.56.34.41.66-.07.16-.21.29-.35.42-.09.08-.22.11-.33.18-.08.05-.15.11-.25.19,0,.13-.03.3.02.43.52,1.54,1.05,3.06,1.58,4.59.02.06.05.12.08.17.5.86.25,1.03,1.53.99.18,0,.37.05.54.11.07.03.14.14.14.21,0,.08-.06.21-.13.23-1.59.51-3.05,1.4-4.76,1.57-.71.07-1.41.21-2.11.32-.3.05-.55-.03-.72-.31-.21-.35-.71-2.03-.78-2.64Z"/>
    <path class="cls-3" d="M105.66,141.52c.44.03.68.26.65.6-.08.88.44,1.45.96,2.03.24.27.52.42.88.47.66.08,1.31.05,1.95-.05.4-.07.55-.22.57-.62.03-.46.02-.93.01-1.4,0-.28-.16-.47-.43-.55-.32-.1-.65-.21-1.07-.1-.09.22-.17.48-.28.73-.11.25-.33.35-.61.3-.28-.05-.49-.22-.51-.47-.01-.15,0-.31.02-.46.09-.61.2-1.22.27-1.84.05-.38.17-.72.38-1.04.15-.23.5-.22.61.03.1.23.16.47.22.71.05.18.07.36.11.55.38.12.73.23,1.08.33.29.08.5-.04.54-.35.1-.67.2-1.35.22-2.04.02-.58-.26-.67-.67-.71-.46-.05-.92-.12-1.38-.21-.56-.11-1.11-.05-1.67.02-.48.07-.8.29-.94.77-.08.3-.19.6-.32.88-.12.28-.36.37-.61.3-.29-.09-.44-.34-.39-.66,0-.06.03-.12.04-.18.23-.77.47-1.54.71-2.35.12-.01.24-.05.35-.04,1.67.18,3.34.35,5.01.57.58.07,1.15.25,1.73.37.06.02.12.05.17.07.31.16.37.55.1.78-.13.11-.32.18-.49.23-.11.04-.25.02-.37.03-.09.01-.18.04-.31.06-.05.13-.15.26-.16.4-.17,1.61-.32,3.21-.48,4.83,0,.06,0,.12,0,.19.1.98-.21,1.05.97,1.54.17.07.31.2.44.32.05.05.07.18.04.25-.03.07-.14.16-.21.15-1.66-.2-3.36,0-4.98-.55-.67-.23-1.37-.4-2.05-.59-.3-.08-.49-.26-.52-.58-.04-.4.2-2.14.39-2.72Z"/>
    <path class="cls-3" d="M153.08,122.17c.28.16.51.26.71.4.32.23.28.65-.07.85-.2.11-.41.13-.62.03-.14-.06-.27-.15-.41-.23-.72-.42-1.45-.84-2.17-1.27-.16-.09-.31-.21-.45-.33-.17-.14-.11-.48.12-.52.24-.05.49-.05.73-.05.37,0,.74.03,1.11,0,.18,0,.36-.08.52-.18.53-.31.71-.85.52-1.45-.12-.35-.26-.7-.37-1.05-.15-.43-.41-.78-.78-1.01-.65-.43-1.29-.88-1.99-1.2-.75-.35-1.56-.42-2.36-.09-.49.2-.96.45-1.42.69-.13.06-.25.21-.29.34-.2.63-.28,1.29-.05,1.92.09.25.28.47.44.7.1.15.24.29.32.45.11.23-.14.52-.4.48-.12-.02-.25-.05-.34-.13-1.17-.9-1.57-2.27-1.03-3.37.26-.52.54-1.04.87-1.54.34-.51.84-.83,1.48-.86.83-.05,1.68-.16,2.51-.09,1.12.1,2.18.47,3.12,1.12.68.47,1,1.17,1.22,1.92.1.36.17.73.24,1.09.18.9.02,1.72-.54,2.47-.2.27-.47.49-.59.9Z"/>
    <path class="cls-3" d="M78.49,105.91c.56,1.24,1.08,2.4,1.61,3.57.33.72.68,1.43,1.02,2.14.05.12.09.26.09.4.02.42-.24.62-.69.55-.2-.03-.4-.09-.6-.13-.3-.05-.59-.03-.89.09-.79.33-1.58.65-2.36.98-.87.37-1.72.77-2.59,1.14-.39.17-.69.37-.8.77-.07.26-.21.48-.54.51-.37.02-.48-.22-.6-.48-.38-.81-.39-1.7-.57-2.55,0-.02,0-.06,0-.08.06-.09.12-.2.2-.25.05-.03.19,0,.24.04.17.18.36.36.47.57.42.74.61.62,1.35.37,1.76-.61,3.44-1.42,5.16-2.11.11-.05.23-.1.33-.16.24-.14.36-.33.28-.57-.2-.63-.37-1.26-.66-1.85-.16-.32-.52-.56-.83-.8-.63-.46-1.34-.74-2.22-.62-.12.02-.25.05-.36.02-.13-.02-.28-.07-.37-.15-.1-.1,0-.35.17-.43.96-.47,1.93-.91,3-1.02.05,0,.11.03.16.05Z"/>
    <path class="cls-3" d="M143.79,78.78c-.94-.98-1.82-1.91-2.71-2.83-.55-.57-1.12-1.12-1.67-1.68-.09-.09-.17-.21-.22-.34-.15-.39.02-.66.47-.75.2-.04.41-.05.61-.08.3-.05.57-.17.81-.38.63-.57,1.27-1.14,1.9-1.72.69-.65,1.37-1.3,2.06-1.94.31-.28.53-.58.49-.99-.02-.27.03-.53.34-.66.34-.14.52.05.73.26.62.63.93,1.48,1.39,2.21.01.02.03.06.02.08-.03.11-.04.23-.11.31-.03.04-.18.06-.24.04-.22-.11-.46-.22-.64-.38-.64-.56-.79-.38-1.4.11-1.46,1.16-2.76,2.49-4.16,3.71-.09.08-.18.17-.26.26-.18.22-.23.43-.07.63.4.52.77,1.07,1.24,1.52.26.25.68.36,1.05.47.75.23,1.51.26,2.3-.15.11-.06.22-.13.33-.14.13-.02.29-.03.4.03.13.06.12.32-.02.46-.75.76-1.52,1.5-2.49,1.97-.05.02-.11,0-.16,0Z"/>
    <path class="cls-1" d="M81.74,113.44c.1.06.18.08.21.12.04.05.03.13.04.19-.06-.02-.14-.03-.18-.08-.04-.05-.04-.13-.07-.24Z"/>
    <path class="cls-1" d="M84.24,124.94s-.02-.05,0-.06c0-.02.04,0,.06-.02,0,.02.02.05,0,.06,0,.02-.04.01-.06.02Z"/>
    <path class="cls-3" d="M85.46,75.96c-.21-.49-.09-.95.07-1.45-.13-.13-.25-.28-.39-.39-1.19-.97-2.27-2.07-3.32-3.2-.26-.28-.53-.54-.79-.82-.25-.26-.51-.37-.87-.21-.11.06-.26.09-.38.08-.06,0-.14-.17-.13-.24.02-.09.11-.19.19-.25,1.02-.63,1.8-1.54,2.66-2.35.41-.37.8-.71,1.39-.75.21-.02.41-.12.61-.21.29-.12.58-.1.87-.03.4.09.68.33.79.73.06.2.1.42.12.63.03.32.16.56.41.75.75.57,1.48,1.16,2.24,1.73.26.19.55.35.83.49.28.14.57-.07.55-.37-.01-.18-.07-.37-.15-.53-.14-.26-.32-.5-.48-.75-.06-.09-.13-.17-.17-.27-.1-.2.06-.44.29-.46.24-.02.42.08.57.25.47.51.72,1.14.84,1.81.03.17-.04.38-.13.53-.52.87-1.45,1.15-2.37.72-.35-.16-.63-.4-.88-.69-.17-.2-.37-.4-.57-.57-.24-.2-.53-.25-.83-.25s-.52.09-.68.35c-.18.3-.38.59-.56.89-.16.26-.16.43.06.65.74.74,1.34,1.62,2.24,2.19,0,.06.03.13,0,.16-.4.5-.8,1.01-1.23,1.49-.2.22-.45.38-.8.31ZM84.43,70.7c.35-.31.36-.31.45-.56.14-.43.28-.86.4-1.31.21-.75-.15-1.45-.88-1.75-.27-.12-.51-.12-.74.08-.36.32-.73.63-1.08.95-.29.27-.3.47-.03.75.53.57,1.07,1.12,1.61,1.68.07.07.18.1.26.14Z"/>
    <path class="cls-3" d="M74.98,77.96c.28-.66.66-1.33,1.12-1.96.14-.19.28-.39.39-.6.27-.51.67-.91,1.11-1.27.76-.6,1.92-.52,2.6.18.41.42.67.92.72,1.5.06.71.06,1.43-.28,2.1-.15.29-.28.6-.38.91-.11.31-.04.52.25.68.42.23.86.42,1.29.62.24.11.47.09.66-.11.3-.31.68-.48,1.08-.59.37-.11.6.12.52.47-.12.49-.25.98-.38,1.47-.02.08-.05.17-.09.25-.21.36-.42.72-.63,1.08-.15.26-.36.38-.67.35-.03,0-.06-.02-.09-.02-.94-.11-1.01-.22-.77-1.11.03-.12.1-.24.08-.35-.02-.13-.07-.31-.17-.38-.19-.13-.43-.22-.65-.28-.74-.23-1.43-.56-2.11-.95-.64-.37-1.35-.63-2.03-.94-.42-.18-.81-.12-1.18.15-.21.15-.44.43-.7.24-.3-.22-.08-.54.03-.8.08-.2.17-.38.28-.63ZM76.69,77.96c.61.24,1.14.45,1.66.65.22.09.44.2.66.26.15.03.32-.02.48-.03.01-.66.04-1.25.03-1.84-.02-.74-.29-1.39-.77-1.95-.24-.28-.49-.32-.79-.14-.18.11-.36.23-.49.38-.28.34-.53.71-.78,1.08-.26.36-.37.74-.14,1.17.07.13.09.28.13.42Z"/>
    <path class="cls-3" d="M90.11,61.54c.66-.27,1.32-.53,1.98-.8.11-.05.24-.08.36-.09.14-.02.26.05.34.2.09.15.09.36-.03.47-.12.11-.27.2-.41.29-.21.13-.26.35-.17.62.21.63.39,1.28.66,1.88.46,1,.98,1.97,1.48,2.96.18.35.41.56.76.57.14,0,.3.07.44.15.2.14.24.45.06.56-.4.25-.76.59-1.25.71-.32.08-.59.31-.89.45-.19.09-.41-.03-.48-.28-.04-.14-.04-.29-.03-.43,0-.09.06-.17.1-.26.2-.4.14-.83-.03-1.28-.04-.09-.08-.18-.12-.28-.47-1.06-.93-2.11-1.41-3.16-.14-.3-.32-.58-.49-.86-.18-.3-.43-.39-.7-.34-.15.03-.29.05-.44.09-.16.03-.3.02-.4-.18-.13-.25-.13-.45.03-.6.19-.17.4-.31.6-.46.01.03.03.05.04.08Z"/>
    <path class="cls-3" d="M130.75,59.41c.64.3,1.29.6,1.93.89.11.06.22.12.32.2.1.09.13.23.09.39-.05.17-.2.31-.36.3-.17-.02-.33-.06-.49-.1-.24-.06-.43.05-.57.31-.31.58-.66,1.16-.91,1.77-.41,1.02-.76,2.06-1.14,3.1-.13.37-.13.68.11.94.09.11.16.27.18.43.04.24-.16.48-.37.42-.46-.12-.95-.15-1.37-.42-.27-.18-.63-.22-.94-.34-.2-.08-.26-.32-.12-.54.07-.12.19-.23.29-.32.07-.06.17-.08.25-.1.43-.13.7-.47.92-.91.05-.09.08-.18.12-.28.45-1.06.9-2.12,1.33-3.19.12-.31.2-.63.28-.95.09-.34,0-.58-.23-.75-.12-.09-.24-.17-.36-.26-.13-.09-.22-.21-.15-.42.09-.26.23-.4.46-.39.25.02.5.08.75.12,0,.03-.02.06-.03.08Z"/>
  </g>
  <text class="cls-5" transform="translate(18.22 111.41) scale(.79 1)"><tspan class="cls-6" x="0" y="0">1</tspan><tspan class="cls-7" x="11.78" y="0">4</tspan></text>
</svg>