<?xml version="1.0" encoding="UTF-8"?>
<svg id="Layer_1" data-name="Layer 1" xmlns="http://www.w3.org/2000/svg" viewBox="0 0 180 200">
  <defs>
    <style>
      .cls-1 {
        fill: #231f20;
      }

      .cls-1, .cls-2 {
        fill-rule: evenodd;
      }

      .cls-3, .cls-4 {
        fill: #fff;
      }

      .cls-4 {
        font-family: AmericanTypewriter-Bold, 'American Typewriter';
        font-size: 19.28px;
        font-weight: 700;
      }

      .cls-5 {
        letter-spacing: -.02em;
      }

      .cls-6 {
        letter-spacing: .02em;
      }

      .cls-2 {
        fill: #a08651;
      }
    </style>
  </defs>
  <polygon class="cls-2" points="29.74 80.85 6.79 114.44 7.94 115.89 51.71 114.37 35.99 85.49 31.31 80.01 29.74 80.85 29.74 80.85"/>
  <path class="cls-1" d="M27.9,85.21c-.83.36-.24-.84-1.07-.47-.4.14-.18.83-1,.58-.32,1.37-.64,2.72-1.93,3.22-.31,1.44.73,1.38,1.15,2.03-1.81,1.32-1.82,5.56-5.01,4.15.29.77,1.25.81,1.39,1.76-.69.35-1.2.49-1.53.59,1.11.91-.3.68-.72,1.34-1.11,1.72-1.71,4.44-3.66,4.87-.07,1.25-.53,2.17-1.71,2.43.66,1.35-.38.18-.74.82,1.67.32-1.07,1.14.1,1.82-1.85.39-1.4,2.87-2.68,3.78-.17-.45.24-1.54-.33-1.55,0,.41.08.9-.49.81-.28.86.85.15.57,1.01-1.08.27-.88,1.69-1.44,2.42,2.71-.6,7.11-.64,10.14-.5.04-.2-.02-.51.23-.53,10.08.92,18.12-.65,30.43-.98-.56-2.73-2.98-4.05-3.92-5.54-.31-2.31-2.5-2.54-2.59-5.08-1.17.17-1-.93-.86-1.52-1.04.02-1.97-1.66-1.14-2.03-.81.44-.87-.15-1.59-.44-1.88-5.68-6.37-9.68-8.52-14.17.01.26-.44.35-.52.02.32-.04.61-.11.5-.54-.73.25-.69-.34-1.32-.19-1.26,1.76-1.82,4.14-3.92,5.14.55.89-.19,1.27-.68,1.86-.32-1.04-.06-2.03.38-2.89.43-.02.18.72.56.76.06-1.12.95-3.24,1.71-2.17-.03-.36.09-.58.22-.79h0ZM43.09,97.22c1.54.23,1.13,2.59,2.74,2.74.04,1.68.91,2.47,1.97,3.02-.12,1.78.89,2.31,1.96,2.77.12.44-.18.5-.49.54.37.36,1.22.6.58,1.28.2-.15.41-.29.76-.3.12.52-.01.82-.48.8.52.67,2.02,2.08,1.17,2.55.27.44.84.53,1.58.44.15,2.13,1.32,3.12,1.31,5.41-.25-.15-.98-.56-.76.3-.47-.49-1.81-.01-1.87-.95-.58,1.02-1.78-.68-3.09.67-.79.13-.58-.82-.85-1.26-.74.26.37.64.07,1.3-.2-.17-.88-1.05-.78.04-3.63-.25-9.02-.27-12.24.08-.01-.26-.03-.51-.04-.78-1.17.69-2.55.83-3.64.18-.7,1.02-5.54,1.05-7.02.35-2.86,1.64-9.21.09-10.59,1.82-2.24-1.26-6.1.17-8.9-.86-.26-.82.17-1,.46-1.33-1.05-.04-.44-.2-.61-1.79,1.21-.39,1.71-1.42,1.68-2.95,1.21.19.52-1.34,1.77-1.13-.23-.79-.21-.49-.07-1.3,1.77.2.7-2.18,2.23-2.19-.18-.26-.61-.24-.56-.76,1.05.29.49-.88,1.53-.6-.02-.43-.04-.87-.06-1.3.22-.21.58-.31,1.02-.31,1.53-3.92,4.38-6.63,6-10.46.9-.02,1.18-.58.96-1.61.76.03.76-.63,1.53-.6.63-3.48,3.95-4.54,4.55-8.05,2.85-.64,2.17-4.48,4.95-5.19-.18-.26-.61-.24-.56-.75.86-.06,1.27-.51,2.33-.38,1.16.82-.31,1.34,1.36,1.23-1.07,1.18.34,4.61,1.51,4.09.38.07.07,1.97,1.38,1.76-.14.8.32.93.35,1.54,3.34,2.79,3.98,8.57,7.33,11.36.12.44-.18.5-.5.54h0Z"/>
  <text class="cls-4" transform="translate(19.41 109.64) scale(.79 1)"><tspan class="cls-5" x="0" y="0">1</tspan><tspan class="cls-6" x="12.17" y="0">5</tspan></text>
  <g>
    <path d="M116.34,161.76c-3.77-.22-7.55-.37-11.31-.68-2.59-.21-5.25-.35-7.74-1.03-6.82-1.88-13.35-4.51-19.2-8.6-1.18-.82-2.32-1.7-2.89-3.11-.11-.28-.38-.52-.63-.73-8.28-6.91-13.35-15.92-17.07-25.86-1.46-3.9-1.82-8.01-2.73-12.01-1.14-5.04-.45-9.98.13-14.99.99-8.64,4.6-16.29,8.68-23.76.77-1.42,1.9-2.65,2.92-3.92,3.42-4.3,6.85-8.62,11.11-12.11,3.09-2.53,6.68-4.34,10.4-5.81,2.79-1.11,5.59-2.24,8.46-3.05,2.56-.73,5.22-1.16,7.86-1.51,8.04-1.07,16.07-.75,23.92,1.29,4.4,1.15,8.62,2.88,12.58,5.29,3.81,2.32,7.54,4.69,10.8,7.75,4.58,4.32,8.87,8.89,11.94,14.44,2.73,4.93,4.59,10.22,6.38,15.55,2.18,6.5,2.19,13,1.19,19.72-.77,5.14-1.83,10.15-3.63,14.99-.86,2.31-1.91,4.59-3.13,6.73-1.94,3.4-4.1,6.67-6.15,10.01-1.54,2.5-3.88,4.21-5.97,6.18-4.32,4.07-9.39,7.06-14.52,9.92-1.58.88-3.3,1.62-5.05,2.09-5.35,1.44-10.66,3.19-16.33,3.21ZM115.04,159.81c6.26.26,12.16-1.51,18.06-3.19,1.37-.39,2.7-1.01,3.94-1.7,5.43-3.02,10.64-6.36,15.15-10.71,1.6-1.54,3.37-2.91,4.56-4.82,2.08-3.32,4.2-6.61,6.14-10.01,1.13-1.97,2.1-4.07,2.87-6.21,1.56-4.36,3.07-8.74,3.37-13.44.16-2.47.76-4.91.93-7.38.3-4.28-.39-8.45-1.69-12.54-1.68-5.3-3.55-10.52-6.22-15.41-2.92-5.34-7.01-9.74-11.37-13.9-3.23-3.08-6.94-5.49-10.76-7.8-3.68-2.23-7.58-3.92-11.64-5.03-5.28-1.44-10.75-2.2-16.27-2.07-1.56.04-3.13.17-4.68.36-3.04.38-6.18.47-9.09,1.34-4.42,1.32-8.75,3.04-12.98,4.9-2.48,1.09-4.86,2.58-6.99,4.27-4.07,3.21-7.21,7.36-10.53,11.3-1.01,1.2-2.18,2.34-2.87,3.71-3.07,6.05-6.25,12.09-7.57,18.84-1.22,6.29-2.4,12.57-1.09,19.03.87,4.28,1.42,8.62,2.95,12.76,4.12,11.13,10.65,20.44,20.26,27.52,1.2.88,2.24,2.05,3.55,2.71,4.65,2.37,9.38,4.61,14.47,5.89,5.75,1.44,11.67,1.08,17.5,1.57Z"/>
    <path class="cls-3" d="M115.04,159.81c-5.83-.49-11.75-.12-17.5-1.57-5.09-1.28-9.82-3.52-14.47-5.89-1.3-.66-2.35-1.83-3.55-2.71-9.6-7.08-16.14-16.39-20.26-27.52-1.53-4.14-2.08-8.48-2.95-12.76-1.31-6.46-.14-12.74,1.09-19.03,1.32-6.76,4.5-12.79,7.57-18.84.7-1.37,1.86-2.51,2.87-3.71,3.32-3.95,6.46-8.09,10.53-11.3,2.13-1.68,4.51-3.18,6.99-4.27,4.23-1.86,8.56-3.58,12.98-4.9,2.9-.87,6.04-.96,9.09-1.34,1.55-.19,3.12-.33,4.68-.36,5.52-.13,10.99.63,16.27,2.07,4.06,1.11,7.96,2.8,11.64,5.03,3.82,2.32,7.53,4.72,10.76,7.8,4.36,4.16,8.45,8.56,11.37,13.9,2.67,4.89,4.54,10.11,6.22,15.41,1.3,4.1,1.99,8.26,1.69,12.54-.17,2.47-.78,4.91-.93,7.38-.3,4.7-1.81,9.08-3.37,13.44-.76,2.14-1.74,4.23-2.87,6.21-1.94,3.4-4.07,6.69-6.14,10.01-1.19,1.91-2.96,3.27-4.56,4.82-4.51,4.35-9.71,7.7-15.15,10.71-1.25.69-2.58,1.31-3.94,1.7-5.9,1.68-11.8,3.44-18.06,3.19ZM72.2,108.18c.23.15.44.29.66.43,2.37,1.46,4.11.99,5.5-1.44,1.37-2.39.93-4.84.5-7.46-5.47.48-10.81.08-16.3.77-.01,2-.13,3.84.26,5.7.51,2.44,2.24,3.59,4.37,4.26,1.96.62,3.38-.39,4.57-1.84.12-.15.28-.27.44-.42ZM104.32,136.61c.19.8.48,1.4.45,1.99-.07,1.3-.32,2.58-.46,3.87-.27,2.66-.54,5.31-.74,7.97-.08,1.11.47,1.72,1.58,1.79.91.06,1.82,0,2.73-.04,4.3-.18,7.86-3.5,8.37-7.79.39-3.27-1.3-6.11-4.36-7.28-1.09-.42-2.21-.79-3.34-1.06-1.47-.35-2.95-.5-4.22.54ZM149.08,110.29v-2.03c-.7.16-1.28.2-1.79.41-3.1,1.29-4.93,5.35-3.88,8.49.64,1.91,2.33,2.83,4.32,2.31,2.26-.59,4.19-1.7,5.73-3.54.69-.82,1.63-1.5,2.59-1.99.92-.47,1.65-.04,2.05.88.97,2.24-.61,4.79-3.06,4.97-.35.03-.7.13-1.08.2.7,1.7,1.36,2.16,2.4,1.52,2.32-1.42,4.17-3.6,3.42-6.82-.45-1.96-1.89-3.13-3.88-3.24-1.7-.09-3.23.29-4.56,1.4-1,.84-1.99,1.7-3.03,2.48-.56.43-1.19.79-1.84,1.06-.53.22-.99.01-1.26-.59-1.1-2.49.22-4.9,2.93-5.32.25-.04.5-.11.92-.21ZM73.12,118.16c.15.1.31.21.46.31-.5,3.45-3.36,5.91-4.4,9.34.58.33,1.16.67,1.86,1.07,1.26-2.81,2.43-5.39,3.52-7.83,1.55.38,2.84.76,4.15,1.02,1.53.3,2.12-.04,2.84-1.4.5-.95.77-1.9.35-2.99-.4-1.03-.62-2.12-.96-3.18-.46-1.42-.84-1.6-2.27-1.01-3.86,1.58-7.71,3.17-11.56,4.76-.18.07-.43.12-.52.26-.25.4-.58.84-.58,1.26,0,.21.66.64.98.61.82-.08,1.65-.28,2.42-.58,1.26-.49,2.48-1.09,3.71-1.64ZM111.26,62.1c.9-.75,1.57-1.36,2.28-1.9,1.16-.89,1.57-2.03,1.24-3.45-.33-1.43-1.27-2.32-2.66-2.54-1.47-.24-2.97-.3-4.46-.28-.36,0-.85.54-1.03.94-.2.45-.12,1.02-.13,1.54-.08,3.71-.16,7.43-.23,11.14,0,.52-.01,1.06.14,1.55.1.31.53.75.74.72.36-.06.82-.38.97-.72.2-.45.15-1.02.18-1.54.09-1.65.16-3.31.24-4.96,2.17,2.01,3.99,4.1,5.77,6.24.95,1.14,1.2,1.2,2.61.16-1.88-2.28-3.76-4.56-5.68-6.9ZM155.93,95.38c1.4,1.17,2.25,1.06,2.86-.37.33-.78.77-1.58.82-2.4.11-1.61.36-3.36-.14-4.81-.85-2.52-2.65-4.47-5.12-5.68-4.33-2.12-9.08.74-10.22,3.56-1.22,3-1.5,6.08.78,8.87,1.29,1.58,2.58,3.13,4.65,3.73,1.12.33,1.34.2,1.87-1.25-3.22-.3-5.18-2.25-6.52-4.99-.83-1.69-.65-3.13.57-4.51.48-.54.93-1.1,1.43-1.61,3.01-3.03,8.88-3.66,11.34,1.4.91,1.87.95,3.67-.13,5.41-.57.92-1.39,1.69-2.19,2.65ZM139.17,83.32c.72-.32,1.3-.41,1.64-.74,3.32-3.31,6.61-6.65,9.89-10,.08-.08-.02-.34-.07-.81-1.86.79-2.81,2.43-4.15,3.56-1.37,1.15-2.55,2.51-3.82,3.78-.07-.06-.15-.13-.22-.19.88-4.16,1.76-8.33,2.64-12.49-.11-.08-.22-.17-.34-.25-.41.35-.83.68-1.22,1.05-1.5,1.45-2.95,2.95-4.48,4.36-1.72,1.6-3.52,3.11-5.27,4.69-.35.32-.91.67-.14,1.43,2.88-2.43,5.77-4.86,8.67-7.3.1.06.2.12.29.18-1.11,4.13-2.23,8.26-3.43,12.73ZM77.98,136.29c1.47-1.71,2.76-3.47,4.59-4.78.69.66,1.23,1.22,1.83,1.72.54.45.89,1.35,2.1.9-.55-1.64-2.43-2.24-2.88-4,.9-1.22,1.84-2.51,2.84-3.88,1.21,1.03,2.27,1.93,3.49,2.97.17-.52.38-.86.3-.95-1.27-1.45-2.57-2.86-3.84-4.25-.34.16-.54.21-.68.34-.24.21-.46.46-.66.72-2.56,3.23-5.29,6.29-8.71,8.66-.27.18-.49.43-.73.66-.63.59-.68,1.19-.1,1.88,1.24,1.47,2.76,2.58,4.5,3.37.2.09.54-.15,1.18-.36-1.19-1.1-2.16-2-3.24-2.99ZM130.99,57.59l-.38-.2c-3.16,3.42-6.32,6.84-9.46,10.26-.35.38-.65.8-.93,1.24-.08.12.02.35.07.82,1.66-.79,2.37-2.54,3.87-3.24,1.07.43,2.09.88,3.13,1.26,1.24.46,1.85,1.19,1.73,2.63-.1,1.27.14,2.57.24,4.02.66.04,1.2.08,1.73.12v-16.91ZM84.71,144.41c.14.15.28.3.42.45.42-.33.86-.63,1.26-.98.83-.73,1.61-1.53,2.47-2.21.31-.25.92-.5,1.2-.36,1.55.77,3.21,1.38,4.47,2.6-.04.36-.07.62-.08.88-.05,1.1-.17,2.21-.11,3.31.02.32.47.75.82.87.2.07.69-.32.84-.62.19-.38.19-.87.25-1.32.1-.84.2-1.68.28-2.52.3-3.11.62-6.22.86-9.33.04-.52-.12-1.25-.48-1.55-.58-.49-1.01.17-1.44.56-2.62,2.34-5.26,4.66-7.87,7.01-.82.74-1.62,1.51-2.39,2.31-.24.24-.34.61-.5.93ZM144.87,126.05c-.5.6-.86.94-1.13,1.35-1.47,2.19-3.11,4.23-5.34,5.66-2.91,1.87-5.91,3.58-8.9,5.31-1.07.62-2.25,1.05-3.31,1.69-.35.21-.7.85-.63,1.22.13.67.78.83,1.41.62.62-.21,1.24-.44,1.8-.77,3.43-2,6.89-3.99,10.26-6.08,2.48-1.54,4.37-3.71,5.94-6.15.31-.48.56-1.05.62-1.61.03-.31-.38-.68-.73-1.25ZM88.55,70.68c-1.32-.72-1.65-.71-2.75.26-5.13,4.5-8.99,9.91-11.54,16.24-.1.24-.29.5-.26.72.06.41.25.79.39,1.19.44-.17.96-.25,1.28-.54.31-.28.41-.8.59-1.21,2.16-5.02,5.14-9.48,9.02-13.34,1.05-1.04,2.08-2.11,3.27-3.31ZM98.71,56.77c-.04-.15-.08-.3-.12-.45-.24-.05-.52-.19-.73-.12-1.61.51-3.22,1.03-4.79,1.63-.26.1-.49.62-.5.95-.01.44.17.9.33,1.32,1.46,3.78,2.93,7.55,4.41,11.31.12.3.24.66.48.84.28.21.74.41,1.03.31.28-.09.63-.57.61-.85-.03-.63-.22-1.28-.44-1.88-.52-1.45-1.09-2.89-1.61-4.24,1.17-1.06,2.84-1.07,3.69-2.97-1.63.61-2.86,1.08-4.18,1.57-.81-1.84-1.57-3.55-2.4-5.42,1.53-.72,2.88-1.36,4.22-1.99ZM148.44,104.75c1.79-.13,3.29-.25,4.79-.34,2.34-.15,4.69-.28,7.03-.41.64-.04,1.25-.26,1.25-.97,0-.7-.6-.95-1.26-.93-1.7.03-3.39.05-5.09.12-2.99.12-5.98.27-8.98.4-.2,0-.44-.07-.58.01-.35.22-.66.51-.99.78.27.32.49.86.82.93,1.07.24,2.19.31,3,.41Z"/>
    <path d="M72.2,108.18c-.17.16-.32.28-.44.42-1.19,1.46-2.6,2.46-4.57,1.84-2.13-.68-3.86-1.83-4.37-4.26-.39-1.87-.27-3.71-.26-5.7,5.48-.69,10.82-.28,16.3-.77.43,2.62.88,5.07-.5,7.46-1.4,2.43-3.14,2.91-5.5,1.44-.22-.14-.43-.28-.66-.43ZM64.04,102.97c-.28,2.97.9,4.94,3.15,5.6,1.6.47,3.84-.81,3.85-2.29,0-1.13-.2-2.27-.31-3.31h-6.69ZM77.86,102.04c-2.07.33-3.93.18-5.8.92.31.94.48,1.7.81,2.4.49,1.05,2.09,1.91,3.08,1.63,1.11-.31,1.69-1.22,1.89-2.28.14-.74.03-1.53.03-2.67Z"/>
    <path d="M104.32,136.61c1.27-1.04,2.75-.89,4.22-.54,1.13.27,2.25.65,3.34,1.06,3.07,1.17,4.75,4.01,4.36,7.28-.51,4.29-4.06,7.61-8.37,7.79-.91.04-1.83.11-2.73.04-1.11-.08-1.66-.68-1.58-1.79.2-2.66.47-5.32.74-7.97.13-1.29.39-2.58.46-3.87.03-.59-.25-1.19-.45-1.99ZM106.85,137.84c-.44,4.6-.85,8.79-1.25,13,4.68-.01,7.2-2.09,7.86-6.24.3-1.91-1.25-5.11-2.91-5.76-1.07-.42-2.23-.61-3.7-1Z"/>
    <path d="M149.08,110.29c-.42.1-.66.17-.92.21-2.71.42-4.03,2.83-2.93,5.32.26.6.72.81,1.26.59.65-.27,1.28-.64,1.84-1.06,1.04-.79,2.03-1.64,3.03-2.48,1.32-1.11,2.86-1.49,4.56-1.4,1.99.1,3.42,1.28,3.88,3.24.75,3.22-1.11,5.4-3.42,6.82-1.05.64-1.71.18-2.4-1.52.38-.07.72-.18,1.08-.2,2.45-.18,4.03-2.73,3.06-4.97-.4-.92-1.13-1.36-2.05-.88-.96.49-1.9,1.17-2.59,1.99-1.54,1.84-3.46,2.94-5.73,3.54-1.99.52-3.68-.4-4.32-2.31-1.06-3.14.78-7.2,3.88-8.49.51-.21,1.09-.25,1.79-.41v2.03Z"/>
    <path d="M73.12,118.16c-1.23.55-2.45,1.15-3.71,1.64-.77.3-1.6.5-2.42.58-.33.03-.98-.39-.98-.61,0-.42.33-.86.58-1.26.09-.14.34-.18.52-.26,3.85-1.59,7.7-3.18,11.56-4.76,1.43-.59,1.82-.41,2.27,1.01.34,1.05.56,2.15.96,3.18.43,1.09.16,2.04-.35,2.99-.72,1.36-1.31,1.7-2.84,1.4-1.31-.26-2.6-.63-4.15-1.02-1.09,2.43-2.26,5.02-3.52,7.83-.7-.4-1.27-.73-1.86-1.07,1.04-3.43,3.9-5.89,4.4-9.34-.15-.1-.31-.21-.46-.31ZM79.63,115.34c-1.9.78-3.49,1.43-5.07,2.08.96,2.33,2.24,3.3,3.96,3.16,1.66-.13,2.49-1.2,2.07-2.77-.22-.8-.59-1.55-.95-2.47Z"/>
    <path d="M111.26,62.1c1.93,2.34,3.8,4.62,5.68,6.9-1.42,1.04-1.67.98-2.61-.16-1.78-2.13-3.6-4.23-5.77-6.24-.08,1.65-.16,3.31-.24,4.96-.03.52.02,1.08-.18,1.54-.14.33-.6.66-.97.72-.21.04-.64-.41-.74-.72-.15-.48-.15-1.03-.14-1.55.07-3.71.15-7.43.23-11.14.01-.52-.07-1.1.13-1.54.18-.4.67-.94,1.03-.94,1.49-.01,2.99.05,4.46.28,1.38.22,2.33,1.11,2.66,2.54.33,1.42-.08,2.56-1.24,3.45-.72.55-1.39,1.15-2.28,1.9ZM108.47,54.99v6.2c1.66.13,2.62-.72,3.57-1.63,1.02-.98.85-2.09.46-3.25-.41-1.2-1.33-1.5-2.48-1.4-.51.04-1.02.06-1.55.08Z"/>
    <path d="M155.93,95.38c.8-.95,1.62-1.73,2.19-2.65,1.08-1.74,1.03-3.54.13-5.41-2.45-5.06-8.33-4.44-11.34-1.4-.51.51-.95,1.07-1.43,1.61-1.22,1.37-1.41,2.81-.57,4.51,1.35,2.73,3.31,4.69,6.52,4.99-.53,1.45-.75,1.58-1.87,1.25-2.07-.6-3.36-2.15-4.65-3.73-2.28-2.79-2-5.86-.78-8.87,1.14-2.81,5.89-5.68,10.22-3.56,2.47,1.21,4.27,3.16,5.12,5.68.49,1.46.24,3.21.14,4.81-.05.82-.49,1.62-.82,2.4-.6,1.43-1.46,1.54-2.86.37Z"/>
    <path d="M139.17,83.32c1.2-4.47,2.32-8.6,3.43-12.73-.1-.06-.2-.12-.29-.18-2.89,2.44-5.79,4.88-8.67,7.3-.77-.76-.21-1.11.14-1.43,1.74-1.58,3.54-3.09,5.27-4.69,1.53-1.42,2.98-2.91,4.48-4.36.38-.37.81-.7,1.22-1.05.11.08.22.17.34.25-.88,4.16-1.76,8.33-2.64,12.49.07.06.15.13.22.19,1.26-1.27,2.45-2.63,3.82-3.78,1.34-1.12,2.29-2.76,4.15-3.56.05.46.15.73.07.81-3.28,3.35-6.56,6.69-9.89,10-.34.33-.91.43-1.64.74Z"/>
    <path d="M77.98,136.29c1.07.99,2.04,1.89,3.24,2.99-.63.2-.98.45-1.18.36-1.74-.79-3.25-1.9-4.5-3.37-.58-.69-.53-1.28.1-1.88.24-.22.46-.47.73-.66,3.42-2.37,6.15-5.43,8.71-8.66.2-.25.42-.5.66-.72.14-.12.34-.17.68-.34,1.27,1.39,2.57,2.81,3.84,4.25.08.09-.13.43-.3.95-1.22-1.04-2.28-1.94-3.49-2.97-1,1.36-1.95,2.66-2.84,3.88.45,1.75,2.33,2.36,2.88,4-1.22.45-1.56-.45-2.1-.9-.6-.5-1.14-1.07-1.83-1.72-1.83,1.3-3.12,3.07-4.59,4.78Z"/>
    <path d="M130.99,57.59v16.91c-.53-.04-1.06-.07-1.73-.12-.1-1.44-.34-2.74-.24-4.02.11-1.44-.49-2.17-1.73-2.63-1.04-.38-2.05-.82-3.13-1.26-1.5.7-2.21,2.44-3.87,3.24-.05-.47-.15-.7-.07-.82.28-.43.58-.86.93-1.24,3.15-3.43,6.31-6.84,9.46-10.26l.38.2ZM128.91,61.43c-1.09.46-2.72,2.2-3.91,4.31,1.24.52,2.46,1.03,3.91,1.64v-5.95Z"/>
    <path d="M84.71,144.41c.16-.31.27-.68.5-.93.77-.8,1.56-1.57,2.39-2.31,2.62-2.35,5.25-4.66,7.87-7.01.43-.39.86-1.05,1.44-.56.35.3.52,1.03.48,1.55-.24,3.11-.56,6.22-.86,9.33-.08.84-.17,1.68-.28,2.52-.06.45-.06.94-.25,1.32-.15.29-.64.69-.84.62-.34-.12-.8-.55-.82-.87-.05-1.1.06-2.21.11-3.31.01-.26.05-.51.08-.88-1.26-1.22-2.92-1.83-4.47-2.6-.28-.14-.89.11-1.2.36-.86.69-1.64,1.48-2.47,2.21-.4.35-.84.66-1.26.98-.14-.15-.28-.3-.42-.45ZM90.72,140.31c1.39.72,2.59,1.33,4.05,2.08.15-2.17.29-4.05.45-6.38-1.67,1.59-2.97,2.84-4.49,4.29Z"/>
    <path d="M144.87,126.05c.35.57.76.93.73,1.25-.06.55-.31,1.13-.62,1.61-1.57,2.44-3.46,4.61-5.94,6.15-3.38,2.1-6.83,4.08-10.26,6.08-.56.33-1.18.56-1.8.77-.63.21-1.29.05-1.41-.62-.07-.37.28-1.01.63-1.22,1.06-.64,2.24-1.07,3.31-1.69,2.99-1.73,5.99-3.45,8.9-5.31,2.22-1.43,3.87-3.48,5.34-5.66.27-.41.63-.75,1.13-1.35Z"/>
    <path d="M88.55,70.68c-1.19,1.2-2.22,2.26-3.27,3.31-3.88,3.86-6.86,8.32-9.02,13.34-.18.42-.28.93-.59,1.21-.32.3-.85.37-1.28.54-.14-.39-.33-.78-.39-1.19-.03-.22.16-.48.26-.72,2.56-6.33,6.41-11.74,11.54-16.24,1.1-.97,1.43-.98,2.75-.26Z"/>
    <path d="M98.71,56.77c-1.35.64-2.7,1.27-4.22,1.99.83,1.87,1.59,3.58,2.4,5.42,1.32-.5,2.55-.96,4.18-1.57-.86,1.9-2.53,1.91-3.69,2.97.52,1.36,1.09,2.79,1.61,4.24.22.61.41,1.25.44,1.88.01.29-.33.76-.61.85-.28.09-.74-.1-1.03-.31-.24-.17-.36-.54-.48-.84-1.48-3.77-2.95-7.54-4.41-11.31-.16-.42-.34-.88-.33-1.32,0-.33.24-.85.5-.95,1.58-.6,3.19-1.12,4.79-1.63.21-.07.48.08.73.12.04.15.08.3.12.45Z"/>
    <path d="M148.44,104.75c-.81-.1-1.93-.17-3-.41-.33-.07-.55-.61-.82-.93.33-.26.64-.56.99-.78.14-.09.38,0,.58-.01,2.99-.13,5.98-.28,8.98-.4,1.7-.07,3.39-.08,5.09-.12.66-.01,1.25.23,1.26.93,0,.71-.61.93-1.25.97-2.34.13-4.69.26-7.03.41-1.5.09-2.99.21-4.79.34Z"/>
    <path class="cls-3" d="M64.04,102.97h6.69c.1,1.04.31,2.18.31,3.31,0,1.48-2.25,2.75-3.85,2.29-2.24-.66-3.42-2.63-3.15-5.6Z"/>
    <path class="cls-3" d="M77.86,102.04c0,1.14.11,1.93-.03,2.67-.2,1.06-.78,1.97-1.89,2.28-.99.28-2.59-.58-3.08-1.63-.32-.69-.5-1.46-.81-2.4,1.88-.74,3.74-.59,5.8-.92Z"/>
    <path class="cls-3" d="M106.85,137.84c1.46.38,2.62.58,3.7,1,1.67.65,3.22,3.85,2.91,5.76-.66,4.16-3.18,6.23-7.86,6.24.41-4.21.81-8.4,1.25-13Z"/>
    <path class="cls-3" d="M79.63,115.34c.36.92.74,1.68.95,2.47.42,1.57-.41,2.63-2.07,2.77-1.71.14-2.99-.83-3.96-3.16,1.59-.65,3.18-1.3,5.07-2.08Z"/>
    <path class="cls-3" d="M108.47,54.99c.53-.03,1.04-.04,1.55-.08,1.15-.1,2.06.2,2.48,1.4.4,1.16.56,2.27-.46,3.25-.95.91-1.92,1.76-3.57,1.63v-6.2Z"/>
    <path class="cls-3" d="M128.91,61.43v5.95c-1.45-.61-2.67-1.12-3.91-1.64,1.19-2.1,2.82-3.85,3.91-4.31Z"/>
    <path class="cls-3" d="M90.72,140.31c1.52-1.45,2.83-2.7,4.49-4.29-.16,2.32-.3,4.21-.45,6.38-1.46-.75-2.66-1.37-4.05-2.08Z"/>
  </g>
</svg>