<?xml version="1.0" encoding="UTF-8"?>
<svg id="Layer_1" data-name="Layer 1" xmlns="http://www.w3.org/2000/svg" viewBox="0 0 180 200">
  <defs>
    <style>
      .cls-1 {
        fill: #231f20;
      }

      .cls-1, .cls-2 {
        fill-rule: evenodd;
      }

      .cls-3, .cls-4 {
        fill: #fff;
      }

      .cls-4 {
        font-family: AmericanTypewriter-Bold, 'American Typewriter';
        font-size: 19.28px;
        font-weight: 700;
      }

      .cls-5 {
        letter-spacing: -.04em;
      }

      .cls-6 {
        letter-spacing: .02em;
      }

      .cls-2 {
        fill: #a08651;
      }
    </style>
  </defs>
  <polygon class="cls-2" points="29.22 83.94 6.27 117.53 7.41 118.97 51.19 117.45 35.46 88.57 30.79 83.1 29.22 83.94 29.22 83.94"/>
  <path class="cls-1" d="M27.38,88.29c-.83.36-.24-.84-1.07-.47-.4.14-.18.83-1,.58-.32,1.37-.64,2.72-1.93,3.22-.31,1.44.73,1.38,1.15,2.03-1.81,1.32-1.82,5.56-5.01,4.15.29.77,1.25.81,1.39,1.76-.69.35-1.2.49-1.53.59,1.11.91-.3.68-.72,1.34-1.11,1.72-1.71,4.44-3.66,4.87-.07,1.25-.53,2.17-1.71,2.43.66,1.35-.38.18-.74.82,1.67.32-1.07,1.14.1,1.82-1.85.39-1.4,2.87-2.68,3.78-.17-.45.24-1.54-.33-1.55,0,.41.08.9-.49.81-.28.86.85.15.57,1.01-1.08.27-.88,1.69-1.44,2.42,2.71-.6,7.11-.64,10.14-.5.04-.2-.02-.51.23-.53,10.08.92,18.12-.65,30.43-.98-.56-2.73-2.98-4.05-3.92-5.54-.31-2.31-2.5-2.54-2.59-5.08-1.17.17-1-.93-.86-1.52-1.04.02-1.97-1.66-1.14-2.03-.81.44-.87-.15-1.59-.44-1.88-5.68-6.37-9.68-8.52-14.17.01.26-.44.35-.52.02.32-.04.61-.11.5-.54-.73.25-.69-.34-1.32-.19-1.26,1.76-1.82,4.14-3.92,5.14.55.89-.19,1.27-.68,1.86-.32-1.04-.06-2.03.38-2.89.43-.02.18.72.56.76.06-1.12.95-3.24,1.71-2.17-.03-.36.09-.58.22-.79h0ZM42.56,100.3c1.54.23,1.13,2.59,2.74,2.74.04,1.68.91,2.47,1.97,3.02-.12,1.78.89,2.31,1.96,2.77.12.44-.18.5-.49.54.37.36,1.22.6.58,1.28.2-.15.41-.29.76-.3.12.52-.01.82-.48.8.52.67,2.02,2.08,1.17,2.55.27.44.84.53,1.58.44.15,2.13,1.32,3.12,1.31,5.41-.25-.15-.98-.56-.76.3-.47-.49-1.81-.01-1.87-.95-.58,1.02-1.78-.68-3.09.67-.79.13-.58-.82-.85-1.26-.74.26.37.64.07,1.3-.2-.17-.88-1.05-.78.04-3.63-.25-9.02-.27-12.24.08-.01-.26-.03-.51-.04-.78-1.17.69-2.55.83-3.64.18-.7,1.02-5.54,1.05-7.02.35-2.86,1.64-9.21.09-10.59,1.82-2.24-1.26-6.1.17-8.9-.86-.26-.82.17-1,.46-1.33-1.05-.04-.44-.2-.61-1.79,1.21-.39,1.71-1.42,1.68-2.95,1.21.19.52-1.34,1.77-1.13-.23-.79-.21-.49-.07-1.3,1.77.2.7-2.18,2.23-2.19-.18-.26-.61-.24-.56-.76,1.05.29.49-.88,1.53-.6-.02-.43-.04-.87-.06-1.3.22-.21.58-.31,1.02-.31,1.53-3.92,4.38-6.63,6-10.46.9-.02,1.18-.58.96-1.61.76.03.76-.63,1.53-.6.63-3.48,3.95-4.54,4.55-8.05,2.85-.64,2.17-4.48,4.95-5.19-.18-.26-.61-.24-.56-.75.86-.06,1.27-.51,2.33-.38,1.16.82-.31,1.34,1.36,1.23-1.07,1.18.34,4.61,1.51,4.09.38.07.07,1.97,1.38,1.76-.14.8.32.93.35,1.54,3.34,2.79,3.98,8.57,7.33,11.36.12.44-.18.5-.5.54h0Z"/>
  <text class="cls-4" transform="translate(19.04 112.72) scale(.79 1)"><tspan class="cls-5" x="0" y="0">1</tspan><tspan class="cls-6" x="11.78" y="0">6</tspan></text>
  <g>
    <path class="cls-3" d="M56.42,41.52s1.22,29.96,1.22,35.4-.81,43.57-.81,46.3-.41,22.18,0,25.29c.41,3.11,2.85,11.28,2.85,11.28l.81,9.34s10.59,1.95,17.51,2.33,43.16,1.95,44.79,1.95h19.55c2.04,0,10.59-.78,12.22-.78s7.74-.39,7.74-1.95,3.26-19.06,3.26-21.01,1.63-24.12,1.63-26.84-.41-42.02-.81-44.74c-.41-2.72-3.19-14.41-2-16.35,1.19-1.94-.14-12.82.12-14.77s-3.41-9.34-3.41-9.34c0,0-28.41-1.84-30.29-1.7-1.88.14-36.09.92-40.16.92s-32.58,1.17-32.58,1.17l-1.63,3.5Z"/>
    <g>
      <path d="M119.97,127.57c-1.87,6.63-1.4,13.01-1,19.37.17,2.66,1.08,5.13,3.57,6.69.68.43,1.55.77,2.35.8,4.13.16,8.19-.18,12.1-1.62,4.17-1.54,7.78-3.76,10.15-7.51.33-.53.58-1.11.99-1.91-1.62-.15-3.01-.28-4.81-.45.76-1.37,1.4-2.44,1.97-3.54.58-1.14,1.11-2.3,1.63-3.46.53-1.16,1.03-2.33,1.53-3.5.49-1.16.95-2.32,1.47-3.57.38.14.68.16.83.32,3.69,3.76,5.22,8.42,6.05,13.36.06.37.05.76.03,1.14-.05,1.54-.44,1.88-2.03,1.82-.39-.01-.78,0-1.22,0-.19.38-.38.7-.51,1.05-1.87,4.83-5.42,8.36-9.74,11.23-4.93,3.28-10.34,5.63-16.15,7.11-.38.1-.77.21-1.16.24-3.18.26-5.8,1.76-8.13,3.67-1.28,1.05-2.25,2.46-3.34,3.71-.37.42-.68.88-1.17,1.52-.34-.56-.58-.9-.75-1.27-.5-1.1-.93-2.23-1.44-3.33-.67-1.47-1.86-2.37-3.39-3.03-3.49-1.48-7.17-2.33-10.91-2.76-7.24-.83-13.04-3.97-17.5-9.41-1.22-1.49-2.37-3.05-3.39-4.67-.98-1.56-1.75-3.24-2.64-4.91-.83.1-1.72.2-2.69.32-.65-1.63-.36-3.16-.05-4.6.73-3.47,2.55-6.5,4.62-9.38.41-.58,1.12-.96,2.1-1.78.05,5.12,2.64,8.91,4.77,13.05-1.17.36-2.14.65-3.11.95.03,1.27.71,2.1,1.55,2.85,1.26,1.12,2.54,2.22,3.8,3.35,2.3,2.07,5.18,3.06,8.15,3.75,2.11.48,4.3.67,6.46.86,2.01.18,3.75-.63,5.37-1.67.95-.61,1.42-1.5,1.53-2.55.29-2.7.69-5.41.77-8.12.13-4.11.04-8.23.05-12.35,0-2.06.31-2.43,2.52-2.42,2.18,0,4.36.19,6.54.32,1.36.08,2.72.22,4.23.34Z"/>
      <path d="M118.55,83.06c-3.37,0-6.41.02-9.44-.01-1.35-.02-1.52-.23-1.61-1.61-.09-1.45-.17-2.9-.25-4.41-.48-.13-.84-.29-1.21-.31-3.3-.19-6.6-.36-9.9-.52-.73-.04-1.46-.06-2.19-.04-2.89.06-4.61-1.67-6.06-3.71-.37-.53-.45-1.32-.46-1.99,0-1.06.85-1.91,1.96-2,.92-.08,1.85-.02,2.78-.03,4.77-.09,9.53-.17,14.29-.28,1.11-.03,1.55-.43,1.65-1.48.17-1.7-.43-3.08-1.89-4.15-.99-.73-1.88-1.58-2.85-2.34-2.8-2.21-3.09-5.09-2.13-8.11.89-2.81,2.38-5.31,4.91-7.19,3.5-2.6,7.34-2.97,11.45-1.95,2.26.56,4.44,1.39,6,3.15.67.76,1.41,1.63,1.64,2.55.98,3.99,1.04,7.95-1.73,11.42-1.04,1.3-2.16,2.63-3.53,3.57-2.16,1.5-1.96,3.34-1.49,5.66,2.06,0,4.1.01,6.13,0,4.17-.02,8.34-.1,12.51-.08,2.08,0,2.45.89,1.48,2.69-1.15,2.15-3.22,3.32-5.11,4.68-.4.29-1.12.24-1.7.25-3.77.03-7.54,0-11.3.06-1.39.03-1.88.55-1.96,1.9-.08,1.31-.02,2.63-.02,4.3ZM112.78,58.1c2.71,0,4.78-2.02,4.85-4.75.06-2.3-2.11-4.64-4.4-4.48-3.39.23-5.52,1.35-5.5,4.85.02,2.66,1.98,4.38,5.05,4.38Z"/>
      <path d="M143.27,86.65c2.6,3.71,4.06,7.58,5.43,11.5.13-.01.26-.03.39-.04.06-.44.14-.89.17-1.34.23-2.96.45-5.92.68-8.88.04-.53.21-1.14.87-.99.34.08.68.69.76,1.1.12.61.08,1.27-.03,1.89-.73,4.15-.53,8.32-.41,12.49.02.82.08,1.65-.04,2.46-.05.34-.46.75-.8.88-.21.08-.76-.26-.9-.53-.39-.73-.66-1.51-.95-2.28-.59-1.54-1.17-3.08-1.73-4.64-.53-1.49-1.01-3-1.53-4.49-.2-.57-.45-1.12-1.03-1.63-.08.39-.2.78-.23,1.17-.24,3.15-.45,6.3-.69,9.46-.05.7.25,1.63-.83,1.88-.67.15-1.04-.53-.92-1.95.38-4.85.8-9.7,1.24-14.55.04-.44.32-.86.57-1.5Z"/>
      <path d="M129.97,96.49c.82,2.05,1.62,3.99,2.38,5.94.27.68.85,1.57-.15,2-1.02.44-1.34-.59-1.6-1.24-.66-1.65-1.23-3.34-1.8-5.02-.33-.99-.31-.99-1.93-1-.09,1.41-.18,2.84-.29,4.27-.06.82-.09,1.65-.28,2.44-.06.28-.59.69-.82.64-.36-.08-.84-.44-.93-.76-.19-.73-.22-1.5-.21-2.26.02-2.97.07-5.94.11-8.92.02-1.2.04-2.4.06-3.6.03-1.99.68-2.61,2.73-2.67,1.81-.06,3.42.34,4.64,1.71,1.72,1.92,1.63,4.58-.25,6.79-.45.53-.99,1.01-1.66,1.68ZM126.64,88.35v6.58c2.34.22,4.25-1.53,4.38-3.71.1-1.78-1.82-3.5-4.38-2.88Z"/>
      <path d="M79.8,100.23c-1.66-.09-3.35-.19-5.19-.29-.43,1.39-.76,2.68-1.23,3.91-.15.4-.63.92-.99.95-.76.05-.91-.63-.86-1.22.05-.56.2-1.12.35-1.67,1.14-4.03,2.29-8.06,3.46-12.09.25-.85.53-1.71.94-2.5.16-.31.71-.63,1.06-.61.34.01.79.39.98.71.28.49.37,1.08.55,1.62,1.56,4.58,2.77,9.24,3.66,13.98.05.25.19.54.1.74-.16.37-.43.9-.72.95-.3.05-.89-.34-1-.65-.35-.95-.53-1.96-.79-2.94-.06-.24-.17-.47-.33-.89ZM75.16,98.02h4.41c-.4-1.44-.75-2.7-1.1-3.96-.33-1.21-.66-2.42-.99-3.63-.11.01-.22.02-.33.03-.65,2.47-1.3,4.94-2,7.56Z"/>
      <path d="M115.43,99.08c-.03,1.39-.04,2.77-.11,4.15-.03.56-.12,1.13-.32,1.66-.08.21-.51.44-.76.42-.26-.02-.62-.3-.7-.53-.14-.41-.13-.87-.13-1.31.02-4.05.03-8.11.09-12.16.01-.88.18-1.76.31-2.64.21-1.38.62-1.78,2.07-1.68,1.18.08,2.4.25,3.49.65,2.45.9,3.63,4.17,2.4,6.64-1.24,2.49-3,4.48-6.35,4.8ZM115.47,97.22c1.02-.4,1.71-.51,2.14-.88.77-.67,1.48-1.45,2.06-2.28.84-1.22.81-2.56-.03-3.76-.86-1.23-2.21-1.4-3.75-1.22-.13,2.59-.26,5.1-.42,8.14Z"/>
      <path d="M163.29,89.25c-.39-.13-.71-.21-1.01-.33-2.36-.92-4.14-.35-4.86,1.94-.89,2.81-1.19,5.74.22,8.52.42.81,1.16,1.54,1.91,2.12.95.73,1.82.37,1.95-.81.13-1.12.03-2.26.03-3.53-.52-.03-1.05.05-1.51-.1-.37-.12-.78-.46-.9-.79-.08-.2.29-.75.56-.84.87-.29,1.78-.53,2.69-.62.94-.08,1.5.47,1.47,1.39-.06,1.71-.12,3.43-.38,5.11-.34,2.19-2.68,3.17-4.7,2.03-2.41-1.36-3.68-3.5-3.86-6.08-.14-1.94.05-3.93.33-5.86.29-1.98,1.44-3.52,3.39-4.4,1.64-.74,3.57-.29,4.65,1.05.15.19.22.45.28.69.02.09-.1.22-.25.52Z"/>
      <path d="M67.32,86.71c.47.21,1.41.51,2.21,1.01.31.19.32.83.46,1.27-.41.06-.83.2-1.24.17-.31-.02-.6-.26-.91-.36-1.25-.39-2.39-.09-3.03.78-.59.8-.7,2.24,0,3.04,1.01,1.16,2.11,2.26,3.3,3.26,1.66,1.39,2.58,3.02,2.32,5.17-.2,1.73-1.29,2.91-3.23,3.43-1.7.45-3.14-.16-4.38-1.19-.28-.23-.16-.89-.23-1.35.42-.05.87-.21,1.25-.12.57.13,1.07.5,1.63.67,1.61.47,2.92-.49,2.97-2.08.04-1.34-.78-2.2-1.72-3.07-1.23-1.14-2.49-2.28-3.54-3.56-1.23-1.49-1.08-3.22-.25-4.85.77-1.51,2.18-2.14,4.4-2.21Z"/>
      <path d="M110.06,89.83c-.61-.34-1.06-.57-1.48-.84-.78-.48-1.53-1.06-2.53-.45-.94.57-1.59,1.92-1.22,2.99.29.81.81,1.58,1.36,2.27.92,1.15,2.01,2.19,2.93,3.34,1.94,2.43,1.24,6.03-1.44,7.67-1.62.99-3.7.7-4.62-.63-.34-.49-.63-1.03-.06-1.53.52-.46.94-.09,1.39.21,1.38.91,2.17.76,3.1-.53,1.1-1.54,1.08-2.84-.18-4.33-1-1.18-2.1-2.28-3.11-3.45-2.1-2.45-1.81-5.67.63-7.4,1.95-1.38,4.95-.35,5.52,1.91.04.15-.12.34-.3.79Z"/>
      <path d="M122.92,114.32c-.12,1.87-.2,3.75-.37,5.61-.06.68.22,1.82-.93,1.72-.94-.08-.6-1.13-.59-1.77.04-3.1.14-6.2.23-9.3.02-.55-.09-1.22.69-1.4.84-.2,1.2.38,1.44,1,.53,1.36,1.03,2.74,1.55,4.1.38.99.78,1.97,1.55,2.91.1-.45.27-.9.29-1.35.07-1.71.07-3.42.15-5.12.03-.58.2-1.15.3-1.69,1.01.01,1.12.52,1.12,1.04.01,1.27,0,2.53-.04,3.8-.07,2.21-.14,4.43-.3,6.64-.03.41-.47.79-.73,1.19-.38-.29-.93-.51-1.11-.89-.86-1.78-1.62-3.6-2.41-5.4-.17-.39-.35-.77-.52-1.15-.11.02-.22.04-.33.06Z"/>
      <path d="M94.99,89c-.9-.14-1.76-.22-2.57-.44-.37-.1-.65-.5-.97-.77.3-.29.55-.71.9-.82.48-.15,1.04-.08,1.57-.08,1.98.03,3.96.07,5.93.1.2,0,.43-.1.58-.03.33.16.86.39.86.6,0,.36-.25.92-.55,1.04-.65.27-1.39.34-2.1.43-.57.08-1.16.06-1.95.1.05.84.1,1.57.13,2.3.19,3.92.39,7.84.56,11.76.02.5.02,1.04-.15,1.49-.1.28-.56.62-.84.61-.28,0-.71-.38-.79-.66-.15-.54-.11-1.13-.12-1.69-.03-1.77-.02-3.55-.09-5.32-.11-2.78-.26-5.55-.41-8.62Z"/>
      <path d="M140.98,115.78c.11-2.15.55-4.07,1.85-5.8,1.33-1.77,3.45-1.84,4.73-.04.51.71,1.02,1.57,1.1,2.4.25,2.66-.02,5.29-1.31,7.74-.55,1.04-1.36,1.69-2.63,1.7-1.36,0-2.34-.71-2.75-1.83-.49-1.34-.68-2.78-.99-4.18ZM147.46,114.1c-.24-.99-.38-1.73-.61-2.43-.27-.82-.85-1.67-1.72-1.58-.58.06-1.23.85-1.57,1.46-1.26,2.3-.94,4.75-.55,7.19.02.12.09.24.14.35.31.66.75,1.36,1.56,1.2.53-.1,1.23-.63,1.39-1.11.57-1.72.95-3.5,1.36-5.08Z"/>
      <path d="M86.24,86.87c.16.63.42,1.26.46,1.89.22,3.6.38,7.2.56,10.79.05.94.13,1.87.2,2.97.91.06,1.69.08,2.46.16.59.06,1.22.09,1.73.33.32.15.6.66.61,1.02,0,.24-.5.7-.76.69-1.65-.04-3.3-.12-4.93-.36-.4-.06-.86-.74-1-1.21-.22-.72-.22-1.5-.24-2.26-.07-4.05-.14-8.1-.16-12.15,0-.63.22-1.26.33-1.9.24,0,.49,0,.73,0Z"/>
      <path d="M80.73,114.9c1.3,2.11,2.49,4,3.63,5.92.19.32.29.97.11,1.14-.52.49-1,.02-1.28-.39-.68-1-1.3-2.05-1.93-3.08-.38-.63-.73-1.28-1.23-2.16-1.01,2.03.11,4.16-1.28,5.97-.31-.34-.6-.52-.6-.69.11-4.36.25-8.71.41-13.07,0-.16.33-.31.64-.58.95,1.84.16,3.71.67,5.72.44-.53.74-.88,1.03-1.24.88-1.1,1.74-2.23,2.66-3.3.15-.18.67-.27.84-.16.19.12.3.59.2.81-.21.45-.57.84-.88,1.24-.97,1.27-1.95,2.54-2.98,3.87Z"/>
      <path d="M110.75,121.84c-1.14-.72-.54-1.83-.64-2.75-.1-.93-.02-1.88-.02-2.92-1.15-.17-2.17-.32-3.49-.52-.01,1.48,0,2.84-.05,4.2-.03.69.35,1.8-.8,1.77-.99-.02-.65-1.07-.64-1.71.03-1.96.16-3.92.19-5.88.02-.95-.13-1.89-.13-2.84,0-.7.12-1.41.45-2.12,1.14,1.53.76,3.33,1.23,5.19.91.12,1.91.26,3.18.43v-5.77c.13-.04.26-.09.39-.13.22.21.59.39.64.63.19.93.38,1.87.4,2.81.05,2.66.03,5.32,0,7.98,0,.59.19,1.31-.73,1.62Z"/>
      <path d="M137.51,87.02c.16.43.45.85.45,1.28.04,4.75.06,9.49.02,14.24,0,.6-.44,1.19-.7,1.88-1.12-.6-1.1-1.39-1.08-2.12.09-4.62.21-9.24.35-13.86.01-.46.23-.92.35-1.38.21-.01.42-.02.62-.03Z"/>
      <path d="M119.13,110.16c-.93,1.08-2.13.02-3.34.42.06,1.12.13,2.29.18,3.27.7.97,2.4.04,2.54,1.74h-2.58c-.16,1.31-.3,2.51-.46,3.75,1.46.48,2.96-.47,4.25.64-.32.29-.51.63-.76.66-1.11.16-2.23.27-3.35.32-.94.04-1.5-.4-1.48-1.36.02-.57.04-1.14.06-1.71.07-2.27.14-4.54.23-6.8.02-.44,0-.9.13-1.31.08-.26.34-.55.59-.67.75-.35,3.1.31,3.98,1.07Z"/>
      <path d="M103.35,111.28c-.93-.58-1.52-.94-2.15-1.33-1.55.84-2.25,2.23-2.45,3.72-.19,1.48-.14,3.03.11,4.51.32,1.92,1.48,2.27,3.26,1.18.16-.1.35-.14.52-.21.5,1.08.32,1.7-.59,2.08-1.5.62-3.54-.09-4.25-1.48-1.44-2.84-.76-7.68,1.41-10.05,1.39-1.52,3.18-1.32,4.13.48.1.19.01.46.01,1.1Z"/>
      <path d="M140.01,110.82c-.43-.17-.91-.28-1.26-.53-.92-.66-1.64-.34-2.19.41-.4.55-.7,1.21-.92,1.86-.58,1.68-.29,3.39.04,5.06.28,1.4.98,1.8,2.54,1.71.25-.01.5,0,.77,0,.48.7.14,1.09-.48,1.34-1.23.51-2.71.11-3.46-1.04-1.54-2.36-1.38-4.95-.76-7.5.23-.93.82-1.88,1.5-2.6,1.61-1.67,3.35-1.26,4.22,1.3Z"/>
      <path d="M93.41,122.09c-1.25-.3-1.12-.96-1.1-1.49.06-1.71.2-3.41.25-5.12.04-1.51,0-3.01,0-4.64-.98-.25-1.96-.5-2.93-.75-.03-.86.54-.92,1.06-.91,1.65.03,3.3.08,4.95.18.24.02.64.34.65.54.02.22-.28.59-.52.67-.55.17-1.14.2-1.84.31.04,3.73-.2,7.4-.54,11.2Z"/>
      <path d="M87.57,121.73c-1-.17-.87-.82-.87-1.35-.02-1.51-.01-3.02,0-4.53.02-1.76.05-3.52.1-5.28.02-.58-.15-1.26.6-1.62,1.01,1.76,1.13,10.51.16,12.79Z"/>
      <path d="M95.61,66.01c.1-1.99-.27-4.01.09-6.03,2.62.3,3.32,1.23,3.06,3.74-.19,1.8-1.04,2.46-3.15,2.3ZM96.57,61c-.21,2.09-.04,3.38.51,4.08,1.3-1.68,1.18-3.03-.51-4.08Z"/>
      <path d="M134.58,63.13c-.13.63-.23,1.58-.54,2.46-.13.38-.69.87-1.05.87-.39,0-1.03-.45-1.13-.82-.38-1.39-.71-2.81-.25-4.27.26-.82.66-1.35,1.63-1.31,1.01.03,1.07.78,1.2,1.45.08.43.08.87.14,1.62ZM132.85,65.72c1.11-2.41,1.07-3.57-.02-4.76-.84,1.48-.48,2.88.02,4.76Z"/>
      <path d="M85.43,60.32c.79-.1,1.24-.17,1.69-.19.16,0,.33.11.53.18-1.86,1.39-1.94,1.9-.56,2.95-.28.46-.78.92-.76,1.35.02.34.69.64,1.32,1.17-.78.22-1.4.39-2.22.61v-6.07Z"/>
      <path d="M140.3,60.85c-.66.22-1.14.37-1.67.54-.01-.2-.09-.41-.02-.53.48-.77,1.25-.95,2.04-.62.81.34.83,1.15.65,1.81-.32,1.14-.8,2.24-1.24,3.43.44.2.85.39,1.27.58-.01.14-.03.27-.04.41-.77.04-1.53.08-2.39.13-.1-2.11,1.95-3.5,1.41-5.75Z"/>
      <path d="M129.08,61.04c-.21.22-.41.43-.73.77-.4-.61-.49-1.17.08-1.63.25-.2.93-.33,1.04-.2.33.39.75.98.66,1.4-.24,1.16-.72,2.27-1.12,3.46.47.15.93.3,1.38.45-.1.71-.98.77-2.68.25.56-1.44,1.13-2.88,1.69-4.33-.1-.06-.21-.12-.31-.18Z"/>
      <path d="M90.4,63.94c-.36-.23-.71-.41-1-.64-.25-.2-.48-.44-.64-.71-.49-.85-.28-1.83.42-2.19.7-.35,1.15-.05,1.83,1.35-.56-.21-.99-.37-1.43-.53-.4,1.01.17,1.4.88,1.72.69.31,1.03.82.81,1.53-.25.81-.88,1.28-1.74,1.35-.89.07-1.14-.42-.96-1.32.69.16,1.54.93,1.84-.55Z"/>
      <path d="M137.67,66.09c-.75.05-1.24.09-1.75.12-.12-1.79.92-3.57-.49-5.3.26-.19.64-.47,1.09-.79,1.42,1.92-.48,4.12,1.15,5.98Z"/>
      <path d="M91.99,60.35c.72.05,1.44.1,2.03.14-.13,1.97-.26,3.74-.38,5.51h-.47c-.46-.95-.15-2-.23-3-.07-.9.33-1.96-1.47-2.22.17-.14.34-.28.52-.43Z"/>
      <path d="M150.67,121.76c-.16-.23-.54-.56-.63-.95-.16-.74.56-1.71,1.21-1.6.38.06.86.53.96.9.2.69-.57,1.59-1.55,1.65Z"/>
    </g>
  </g>
</svg>