<?xml version="1.0" encoding="UTF-8"?>
<svg id="Layer_1" data-name="Layer 1" xmlns="http://www.w3.org/2000/svg" viewBox="0 0 180 200">
  <defs>
    <style>
      .cls-1 {
        fill: #231f20;
      }

      .cls-1, .cls-2 {
        fill-rule: evenodd;
      }

      .cls-3 {
        fill: #fff;
        font-family: AmericanTypewriter-Bold, 'American Typewriter';
        font-size: 19.28px;
        font-weight: 700;
      }

      .cls-4 {
        letter-spacing: -.03em;
      }

      .cls-5 {
        letter-spacing: .02em;
      }

      .cls-2 {
        fill: #a08651;
      }
    </style>
  </defs>
  <polygon class="cls-2" points="28.67 73.69 5.72 107.28 6.87 108.73 50.64 107.21 34.92 78.32 30.24 72.85 28.67 73.69 28.67 73.69"/>
  <path class="cls-1" d="M26.83,78.05c-.83.36-.24-.84-1.07-.47-.4.14-.18.83-1,.58-.32,1.37-.64,2.72-1.93,3.22-.31,1.44.73,1.38,1.15,2.03-1.81,1.32-1.82,5.56-5.01,4.15.29.77,1.25.81,1.39,1.76-.69.35-1.2.49-1.53.59,1.11.91-.3.68-.72,1.34-1.11,1.72-1.71,4.44-3.66,4.87-.07,1.25-.53,2.17-1.71,2.43.66,1.35-.38.18-.74.82,1.67.32-1.07,1.14.1,1.82-1.85.39-1.4,2.87-2.68,3.78-.17-.45.24-1.54-.33-1.55,0,.41.08.9-.49.81-.28.86.85.15.57,1.01-1.08.27-.88,1.69-1.44,2.42,2.71-.6,7.11-.64,10.14-.5.04-.2-.02-.51.23-.53,10.08.92,18.12-.65,30.43-.98-.56-2.73-2.98-4.05-3.92-5.54-.31-2.31-2.5-2.54-2.59-5.08-1.17.17-1-.93-.86-1.52-1.04.02-1.97-1.66-1.14-2.03-.81.44-.87-.15-1.59-.44-1.88-5.68-6.37-9.68-8.52-14.17.01.26-.44.35-.52.02.32-.04.61-.11.5-.54-.73.25-.69-.34-1.32-.19-1.26,1.76-1.82,4.14-3.92,5.14.55.89-.19,1.27-.68,1.86-.32-1.04-.06-2.03.38-2.89.43-.02.18.72.56.76.06-1.12.95-3.24,1.71-2.17-.03-.36.09-.58.22-.79h0ZM42.02,90.06c1.54.23,1.13,2.59,2.74,2.74.04,1.68.91,2.47,1.97,3.02-.12,1.78.89,2.31,1.96,2.77.12.44-.18.5-.49.54.37.36,1.22.6.58,1.28.2-.15.41-.29.76-.3.12.52-.01.82-.48.8.52.67,2.02,2.08,1.17,2.55.27.44.84.53,1.58.44.15,2.13,1.32,3.12,1.31,5.41-.25-.15-.98-.56-.76.3-.47-.49-1.81-.01-1.87-.95-.58,1.02-1.78-.68-3.09.67-.79.13-.58-.82-.85-1.26-.74.26.37.64.07,1.3-.2-.17-.88-1.05-.78.04-3.63-.25-9.02-.27-12.24.08-.01-.26-.03-.51-.04-.78-1.17.69-2.55.83-3.64.18-.7,1.02-5.54,1.05-7.02.35-2.86,1.64-9.21.09-10.59,1.82-2.24-1.26-6.1.17-8.9-.86-.26-.82.17-1,.46-1.33-1.05-.04-.44-.2-.61-1.79,1.21-.39,1.71-1.42,1.68-2.95,1.21.19.52-1.34,1.77-1.13-.23-.79-.21-.49-.07-1.3,1.77.2.7-2.18,2.23-2.19-.18-.26-.61-.24-.56-.76,1.05.29.49-.88,1.53-.6-.02-.43-.04-.87-.06-1.3.22-.21.58-.31,1.02-.31,1.53-3.92,4.38-6.63,6-10.46.9-.02,1.18-.58.96-1.61.76.03.76-.63,1.53-.6.63-3.48,3.95-4.54,4.55-8.05,2.85-.64,2.17-4.48,4.95-5.19-.18-.26-.61-.24-.56-.75.86-.06,1.27-.51,2.33-.38,1.16.82-.31,1.34,1.36,1.23-1.07,1.18.34,4.61,1.51,4.09.38.07.07,1.97,1.38,1.76-.14.8.32.93.35,1.54,3.34,2.79,3.98,8.57,7.33,11.36.12.44-.18.5-.5.54h0Z"/>
  <text class="cls-3" transform="translate(18.36 101.97) scale(.79 1)"><tspan class="cls-4" x="0" y="0">1</tspan><tspan class="cls-5" x="12.13" y="0">9</tspan></text>
  <g>
    <path d="M82.53,98.82c-2.26,1.42-4.15,2.65-6.09,3.81-2.66,1.59-5.58,1.67-8.54,1.32-.66-.08-1.32-.35-1.41-1.18-.07-.65.56-1.49,1.29-1.76.31-.11.64-.19.96-.26,4.54-.91,8.27-3.32,11.71-6.28.25-.22.47-.47.69-.72.07-.08.09-.2.19-.45-.44.12-.82.16-1.13.32-1.88.95-3.77,1.86-5.6,2.9-1.45.83-2.77.49-4.09-.18-.27-.13-.37-.59-.64-1.06,1.01-.53,1.83-1.16,2.75-1.42,4.33-1.25,7.9-3.69,11.12-6.75,1.19-1.13,2.08-2.49,2.75-4.07-.48.33-.98.63-1.44.98-2,1.56-4.25,2.34-6.79,2.31-.89-.01-1.78.01-2.66,0-.9,0-1.44-.46-1.66-1.32.25-.81.83-1.12,1.55-1.37,2.88-.97,5.78-1.9,8.61-3.01,1.21-.47,2.4-1.2,3.36-2.07,2.13-1.94,4.11-4.05,6.14-6.09.15-.15.25-.36.51-.74-.92.25-1.71.32-2.35.66-1.47.78-3.07.93-4.66,1.08-1.58.15-3.07-.27-4.46-1.02-.18-.1-.29-.31-.43-.47.23-.76.89-.65,1.38-.76,2.9-.7,5.82-1.36,8.73-2.03.54-.12,1.08-.33,1.62-.34,2.45-.08,4.42-1.32,6.38-2.58.6-.39,1.2-.82,1.85-1.11.65-.29,1.37-.55,2.02.12.31.67.22,1.29-.37,1.77-.84.7-1.66,1.46-2.59,2.03-.86.52-1.44,1.15-1.77,2.09-.84,2.47-1.1,4.97-.56,7.54.23,1.08.49,2.16.67,3.26.12.7.11,1.41.15,2.04-1.45,1-2.24.89-2.99-.34-.64-1.06-1.06-2.18-1-3.46.06-1.21.01-2.43.01-3.96-.38.41-.62.59-.76.82-1.33,2.34-1.61,4.8-.79,7.38.22.68.29,1.41.46,2.11.42,1.77.82,3.56,1.31,5.31.36,1.3.42,1.28.27,2.51-1.5-.83-3.13-1.39-3.51-3.38-.24-1.3-.66-2.57-.99-3.85-.14-.53-.27-1.06-.44-1.74-1.86,1.4-2.87,2.95-2.83,5.25.05,3.29,1.18,6.17,2.84,8.9,1.03,1.7,2.15,3.34,3.35,5.19-.25,1.59-1.16,2.04-2.59.89-2.05-1.65-3.6-3.76-5.09-5.89-.33-.46-.36-1.15-.47-1.74-.09-.48-.08-.97-.44-1.49-.35,2.19-.82,4.37-1.01,6.57-.18,2.09-.2,4.21-.04,6.3.2,2.55.95,5,2,7.34.8,1.77,1.46,3.6,2.35,5.32.89,1.71,1.87,3.41,3.03,4.95,1.73,2.3,3.61,4.49,5.94,6.25,1.5,1.13,2.88,2.42,4.35,3.61,2.07,1.67,4.49,2.59,7.06,3.18,2.53.58,5.02,1.33,7.57,1.82,1.73.34,3.5.43,5.29.2,4.12-.53,8.22-1.18,12.21-2.37,4.46-1.33,8.34-3.75,11.95-6.65,1.31-1.05,2.49-2.14,3.41-3.59.85-1.35,2.09-2.44,3-3.76,2.1-3.01,3.83-6.23,5.16-9.66.88-2.27,1.83-4.52,2.69-6.79.21-.56.3-1.19.3-1.79.03-3.39-.11-6.76-.76-10.11-.25-1.3-.37-2.63-.59-3.94-.08-.49-.19-.98-.38-1.44-.78-1.84-1.59-3.66-2.39-5.49-.82-1.87-1.63-3.74-2.47-5.6-.61-1.36-1.2-2.73-1.89-4.05-1.91-3.65-4.08-7.08-7.15-9.92-1.84-1.71-3.68-3.33-5.91-4.52-1.46-.78-2.77-1.83-4.2-2.67-1.81-1.05-3.61-2.22-5.55-2.96-2.93-1.1-5.83-2.33-9.08-2.43-2.31-.07-4.61-.56-6.92-.83-2.37-.28-4.74-.35-7.11.13-.87.18-1.76.3-2.64.31-4.89.06-9.36,1.55-13.57,3.93-1.83,1.04-3.62,2.14-5.43,3.22-2.08,1.23-3.85,2.84-5.38,4.67-2.52,3.02-5.05,6.05-7.34,9.24-2.57,3.59-4.1,7.74-5.4,11.93-1.31,4.24-2,8.63-2.38,13.06-.36,4.3.65,8.37,1.72,12.45.77,2.91,1.96,5.64,3.31,8.32,1.09,2.18,2.03,4.43,2.96,6.69.76,1.84,1.81,3.41,3.42,4.61,2.76,2.06,5.25,4.43,7.68,6.88,1.36,1.37,2.69,2.78,4.09,4.12,1.38,1.32,3.04,2.19,4.85,2.82,4.27,1.47,8.17,3.66,11.96,6.09.6.38,1.28.64,1.93.93.43.19.88.32,1.51.55-1.44,1.13-2.78,1.45-4.34.95-2.26-.73-4.56-1.35-6.81-2.12-1.67-.57-3.34-1.21-4.91-2.01-2.56-1.31-5.31-2.29-7.57-4.11-1.89-1.53-3.68-3.19-5.44-4.87-1.76-1.68-3.48-3.42-5.11-5.22-1.82-2.01-3.61-4.06-5.25-6.22-2.89-3.78-4.47-8.12-5.17-12.82-.45-3.01-1.04-6-1.49-9.02-.23-1.53-.37-3.08-.39-4.63-.05-2.83-.09-5.67.06-8.49.1-1.98.35-3.99.83-5.92,2.14-8.55,5.82-16.36,11.28-23.33,3.81-4.87,8.57-8.44,14.17-10.95,2.07-.93,4.11-1.95,6.24-2.7,1.97-.69,4.03-1.21,6.1-1.55,2.83-.46,5.7-.79,8.56-.98,3.36-.22,6.74-.2,10.12-.35,1.93-.09,3.73.25,5.46,1.13.93.47,1.97.7,2.95,1.09,1.85.73,3.7,1.46,5.52,2.24,1.72.74,3.41,1.56,5.11,2.35,1,.47,2.02.92,2.99,1.45,2.52,1.38,5.06,2.75,7.27,4.59,1.05.87,1.84,2.06,2.69,3.15.78,1.01,1.51,2.05,2.19,3.13.74,1.17,1.39,2.39,2.12,3.57.7,1.13,1.44,2.24,2.16,3.35.52.79,1.09,1.54,1.56,2.36,1.01,1.78,2.05,3.54,2.91,5.39.6,1.29,1,2.69,1.39,4.07.56,1.97,1.01,3.97,1.53,5.95.17.64.33,1.29.58,1.9,1.03,2.53,1.26,5.11.89,7.82-.56,4.12-.93,8.27-1.46,12.39-.22,1.7-.52,3.41-1.01,5.04-.4,1.31-1.04,2.58-1.77,3.73-1.51,2.38-2.99,4.81-5.16,6.7-.33.29-.62.66-.98.89-2.48,1.54-4.38,3.73-6.46,5.71-2.71,2.58-5.7,4.67-9.09,6.34-4.21,2.06-8.63,2.64-13.19,2.77-1.55.04-3.11.13-4.66.1-.93-.02-1.85-.2-2.78-.33-1.1-.15-2.19-.29-3.28-.47-1.58-.26-3.17-.45-4.72-.83-1.93-.47-3.85-1.05-5.74-1.68-6.17-2.04-11.63-5.09-15.49-10.56-1.93-2.74-3.33-5.75-4.75-8.76-.83-1.75-1.58-3.55-2.41-5.3-1.67-3.47-1.94-7.11-1.54-10.88.3-2.8.42-5.63.64-8.71Z"/>
    <path d="M113.95,118.11c-.98.14-1.84.27-2.89.42-.18-2.09-.35-4.09-.52-6.1-1.51.22-1.37,2.52-3.39,2.14-.41-.44-.95-1.04-1.71-1.87v5.22c-.94.12-1.72.21-2.61.32-.65-3.91.25-7.62.12-11.68,1.8,1.48,3.35,2.76,4.96,4.08,1.76-1.1,2.98-2.98,4.75-4.01.94.37.76,1.05.79,1.63.11,2.55.2,5.09.31,7.64.03.66.11,1.31.19,2.21Z"/>
    <path d="M113.62,97.68c-3.38-.05-5.88-2.28-6.29-5.45-.31-2.4,1.18-4.7,3.3-5.81,3.05-1.59,7.1.99,7.66,3.86.48,2.46.14,4.46-1.71,6.21-.91.86-1.86,1.38-2.96,1.19ZM109.99,91.38c-.1,1.23.67,2.06,1.6,2.82.56.46,1.12.55,1.83.26,1.44-.6,2.18-1.65,2.02-3.03-.13-1.17-1.38-2.29-2.74-2.48-1.84-.25-2.69.49-2.71,2.43Z"/>
    <path d="M119.68,106.68c4.88.23,7.08,4.13,5.49,8.18-1.02,2.61-4.78,3.79-7.4,2.44-.39-.2-.76-.46-1.14-.69-2.56-1.51-3.29-3.73-1.92-6.34,1.04-1.97,2.41-3.64,4.96-3.59ZM120.27,115.01c1.69.02,2.45-.99,2.5-3.33.03-1.33-1.09-2.31-2.64-2.31-1.42,0-2.72,1.39-2.75,2.98-.04,1.61,1.08,2.64,2.89,2.67Z"/>
    <path d="M126.89,113.12c0-3,1.63-5.38,4.24-6.33,1.76-.65,4.69.28,5.8,1.81,1.3,1.8,1.69,3.66,1.17,5.93-.53,2.31-3.34,4.19-5.87,3.75-1.66-.29-3.14-1.02-4.31-2.3-.79-.87-1.08-1.9-1.03-2.86ZM135.41,112.59c0-1.59-1.55-3.28-2.94-3.24-1.6.05-3.18,1.9-3.16,3.69.02,1.42,1.53,2.54,3.36,2.49,1.56-.04,2.75-1.33,2.74-2.95Z"/>
    <path d="M120.08,86.42c1.65.09,3.18.17,4.72.27,1.42.1,2.41.82,2.81,2.18.39,1.32.17,2.52-.98,3.43-.22.17-.4.38-.71.66.85,1.33,1.69,2.66,2.62,4.13-1.07.26-1.95.47-2.92.71-1.06-1.26-1.44-2.94-2.58-4.32v3.76c-1.08.13-1.98.24-3.02.37-.29-3.7-.32-7.32.06-11.19ZM122.72,90.68c.98.17,1.81.31,2.33-.76-.58-.77-1.2-1.17-2.18-.56-.04.4-.09.81-.15,1.32Z"/>
    <path d="M141.56,117.98c-.55.03-1.07.06-1.72.09v-10.94c.37-.37.78-.1,1.08.21,1.09,1.1,2.15,2.23,3.2,3.36.33.35.6.76,1.15,1.47v-5.09c.92-.1,1.66-.18,2.35-.25.44,1.51.4,9.9,0,11.35-.98-.5-3.71-2.66-5.49-5.37-.46,1.73.21,3.5-.56,5.17Z"/>
    <path d="M134.62,86.84c-.11.81-.19,1.39-.29,2.07-.92-.07-1.73-.13-2.77-.21.05.66.1,1.22.15,1.86.87.07,1.62.13,2.49.19v2.33c-.77.09-1.56.18-2.5.29-.04.36-.08.75-.15,1.29h3.22c.07.98.13,1.84.2,2.87h-5.72c-.57-3.54-.18-7.13-.1-10.86,1.91.15,3.6-.31,5.47.17Z"/>
    <path d="M142.32,86.74c-.15.84-.25,1.44-.37,2.04-.02.09-.13.15-.27.3-.35-.21-.7-.48-1.09-.63-.63-.24-1.21-.08-1.59.51-.34.52-.16,1.12.5,1.54.69.45,1.46.78,2.14,1.26,1.04.73,1.86,1.7,1.58,3.06-.3,1.49-1.52,2.14-2.88,2.41-1.21.24-2.44.29-3.54-.72v-2.29c1.08-.26,2.17.83,3.02-.26-.08-.95-.81-1.25-1.44-1.52-1.13-.49-1.8-1.18-1.78-2.5.02-1.49.48-2.77,1.74-3.55.55-.34,1.38-.36,2.06-.3.63.05,1.23.4,1.94.66Z"/>
    <path d="M102.9,89.15v1.83c.91-.05,1.75-.1,2.79-.15.04.72.07,1.27.1,1.86-1.02.26-1.87.47-2.87.72v3.83h-2.04c-.2-3.56-.43-7.01-.09-10.58,1.76-.49,3.5-.31,5.41-.22.14.67.27,1.28.39,1.83-1.14,1.08-2.51.37-3.69.89Z"/>
    <path d="M146.14,88.66c-.91.12-1.65.21-2.48.32v-2.14c2.32-.86,4.68-.39,7.2-.49.05.8.09,1.47.13,2.18-.94.18-1.73.33-2.64.5.23,2.71.46,5.33.68,7.97-.83.33-1.47.58-2.3.91-.21-3.16-.4-6.16-.61-9.25Z"/>
    <path d="M136.13,150.36c1.32.03,2.18.89,2.18,2.17,0,1.79-1.11,3.1-2.57,3.05-1.36-.05-2.32-1.18-2.29-2.71.03-1.48,1.16-2.55,2.68-2.51ZM134.33,152.82c-.04,1.01.62,1.83,1.47,1.84.8.01,1.43-.77,1.51-1.85.07-.9-.44-1.54-1.27-1.6-.92-.07-1.68.64-1.71,1.61Z"/>
    <path d="M122.02,152.73c-.05-1.16,1.08-2.3,2.32-2.35,1.48-.06,2.79.96,2.82,2.19.04,1.42-1.3,2.97-2.56,2.98-1.15,0-2.53-1.5-2.58-2.82ZM126.26,152.59c-.82-1.24-1.38-1.54-2.26-1.25-.67.22-1.1.87-1.01,1.52.1.77.94,1.73,1.53,1.76.75.04,1.28-.56,1.74-2.03Z"/>
    <path d="M145.24,150.02c.78,1.96,1.45,3.62,2.09,5.29.06.17-.05.4-.12.86-.49-.47-.82-.79-1.22-1.18h-1.65c-.26.28-.57.63-1.05,1.15-.11-.45-.27-.71-.2-.9.49-1.35,1.02-2.69,1.55-4.02.13-.32.31-.62.6-1.2ZM145.13,152.67c-.22.6-.32.89-.46,1.27h.96c-.15-.38-.27-.67-.51-1.27Z"/>
    <path d="M120.63,156c-.93-.63-.33-1.67-.82-2.54-.35-.02-.81-.05-1.16-.07-.69.6.08,1.58-.87,2.02-.12-.15-.36-.3-.36-.46-.03-1.47-.02-2.95-.02-4.64,1.13.52.68,1.46,1.05,2.16h1.39c.15-.7.29-1.35.49-2.33.68,1.75.77,4.53.3,5.85Z"/>
    <path d="M129.38,153.08c.21.44.44.93.68,1.43.61.08,1.14.14,2,.25-.43.38-.63.72-.91.78-.87.21-1.68-.16-2.12-.94-.54-.96-.82-1.95-.12-2.97.84-1.22,1.92-1.51,3.11-.76-1.06.47-2.38.54-2.66,2.2Z"/>
    <path d="M153.16,150.36c.62.09,1.18.17,1.75.24.02.13.03.25.05.38-.45.15-.89.29-1.39.46v1.01c.34.17.7.35,1.07.53-.26.71-1.68.58-.83,1.83.23.08.66.24,1.26.45-.73.68-1.4.57-2.04.54-.51-1.36-.47-3.89.15-5.44Z"/>
    <path d="M156.05,155.09c.54-.18,1.09-.37,1.91-.65-.5-.47-.81-.82-1.18-1.1-1.03-.8-1.22-1.29-.74-2,.57-.85,1.51-1.04,2.57-.5-.66.36-1.29.7-2.07,1.12.62.5,1.04.83,1.46,1.17.5.4.9.88.63,1.55-.27.68-.85,1-1.57.98-.34,0-.69-.15-1.03-.22,0-.12,0-.23,0-.35Z"/>
    <path d="M149.08,151.28c-.61-.22-1.03-.38-1.59-.58,1.44-.58,2.87-.54,4.26.18-.69.21-1.16.36-1.86.57v4.11c-.84-.71-.84-.71-.82-2.08.01-.71,0-1.42,0-2.21Z"/>
    <path d="M116.28,151.08c-1.3.31-2.61.32-2.63,1.81-.02,1.48,1.28,1.56,2.38,1.83-.87.75-1.66.72-2.43,0-1.05-.99-1.18-2.22-.35-3.27.82-1.03,1.75-1.21,3.03-.37Z"/>
    <path d="M140.22,150.44c.07,1.39.15,2.77.22,4.17.65.16,1.28.32,2.26.56-1.14.77-2,.34-3.01.56-.16-1.87-.12-3.57,0-5.28.17,0,.35,0,.52-.01Z"/>
  </g>
</svg>