<?xml version="1.0" encoding="UTF-8"?>
<svg id="Layer_1" data-name="Layer 1" xmlns="http://www.w3.org/2000/svg" viewBox="0 0 180 200">
  <defs>
    <style>
      .cls-1, .cls-2, .cls-3, .cls-4, .cls-5, .cls-6, .cls-7, .cls-8, .cls-9, .cls-10, .cls-11, .cls-12 {
        fill-rule: evenodd;
      }

      .cls-1, .cls-13 {
        fill: #fff;
      }

      .cls-2 {
        fill: #865f43;
      }

      .cls-3 {
        fill: #231f20;
      }

      .cls-4 {
        fill: #f4f4f4;
      }

      .cls-14 {
        stroke: #fff;
        stroke-width: 1.62px;
      }

      .cls-14, .cls-15 {
        fill: none;
        stroke-miterlimit: 10;
      }

      .cls-5 {
        fill: #466d20;
      }

      .cls-6 {
        fill: #608b2f;
      }

      .cls-15 {
        stroke: #618d30;
        stroke-width: .41px;
      }

      .cls-7 {
        fill: #618d30;
      }

      .cls-8 {
        fill: #5b412e;
      }

      .cls-9 {
        fill: #7eb03e;
      }

      .cls-10 {
        fill: #bedbe1;
      }

      .cls-11 {
        fill: #00a14b;
      }

      .cls-12 {
        fill: #83bcc8;
      }

      .cls-13 {
        font-family: AmericanTypewriter-Bold, 'American Typewriter';
        font-size: 23.14px;
        font-weight: 700;
        letter-spacing: .02em;
      }
    </style>
  </defs>
  <polygon class="cls-11" points="28.88 78.7 5.94 112.29 7.08 113.73 50.86 112.22 35.13 83.33 30.45 77.86 28.88 78.7 28.88 78.7"/>
  <path class="cls-3" d="M27.04,83.05c-.83.36-.24-.83-1.07-.47-.39.14-.18.83-1,.58-.32,1.37-.64,2.72-1.93,3.22-.31,1.44.73,1.38,1.15,2.03-1.81,1.32-1.82,5.56-5.01,4.16.29.77,1.25.81,1.39,1.75-.69.35-1.2.49-1.53.59,1.11.91-.29.68-.72,1.34-1.11,1.73-1.71,4.44-3.66,4.87-.07,1.26-.53,2.17-1.71,2.43.66,1.35-.38.19-.74.82,1.67.32-1.07,1.14.09,1.82-1.85.39-1.4,2.87-2.68,3.78-.17-.45.24-1.54-.33-1.55,0,.41.08.9-.49.81-.27.86.85.15.57,1.01-1.08.27-.88,1.69-1.44,2.42,2.71-.6,7.11-.64,10.14-.51.04-.2-.02-.51.23-.54,10.08.92,18.12-.65,30.43-.98-.56-2.74-2.98-4.05-3.92-5.54-.31-2.31-2.5-2.54-2.59-5.08-1.17.17-1-.93-.86-1.52-1.04.02-1.97-1.66-1.14-2.03-.81.44-.87-.15-1.58-.44-1.88-5.68-6.37-9.68-8.52-14.17.01.26-.44.35-.52.02.32-.04.61-.11.5-.54-.73.25-.69-.33-1.32-.19-1.26,1.76-1.82,4.14-3.92,5.14.55.89-.19,1.27-.69,1.86-.32-1.03-.06-2.03.38-2.89.43-.02.18.71.56.76.06-1.12.95-3.24,1.71-2.17-.03-.36.09-.58.22-.79h0ZM42.23,95.07c1.54.22,1.13,2.58,2.74,2.73.04,1.68.91,2.47,1.97,3.03-.12,1.78.89,2.31,1.96,2.77.12.44-.18.5-.49.54.37.36,1.23.6.58,1.28.2-.15.41-.3.76-.3.12.52-.01.82-.48.81.52.66,2.01,2.08,1.17,2.55.27.44.84.53,1.58.44.15,2.13,1.31,3.12,1.31,5.41-.25-.15-.98-.56-.76.3-.47-.49-1.81-.01-1.87-.95-.57,1.02-1.78-.68-3.09.68-.79.13-.58-.82-.85-1.26-.74.26.37.64.07,1.3-.2-.17-.88-1.06-.78.04-3.63-.25-9.02-.27-12.24.08-.01-.26-.03-.51-.04-.78-1.17.69-2.55.83-3.64.18-.7,1.02-5.54,1.05-7.02.35-2.86,1.64-9.21.1-10.59,1.82-2.24-1.26-6.1.17-8.9-.86-.26-.82.17-1,.46-1.33-1.05-.04-.44-.19-.61-1.79,1.21-.39,1.71-1.43,1.68-2.95,1.21.19.52-1.34,1.77-1.13-.23-.79-.21-.49-.07-1.3,1.77.2.7-2.18,2.23-2.19-.18-.26-.61-.24-.56-.76,1.05.29.49-.88,1.53-.6-.02-.43-.04-.87-.06-1.3.22-.21.58-.31,1.02-.31,1.53-3.92,4.38-6.63,6-10.46.9-.02,1.18-.58.96-1.61.76.03.76-.63,1.53-.6.63-3.48,3.95-4.54,4.55-8.04,2.85-.64,2.17-4.48,4.95-5.19-.18-.26-.61-.24-.56-.75.86-.06,1.27-.51,2.33-.38,1.16.82-.3,1.34,1.36,1.23-1.07,1.17.34,4.61,1.51,4.09.38.07.07,1.97,1.39,1.76-.14.8.32.93.35,1.55,3.34,2.79,3.98,8.57,7.33,11.36.12.44-.18.5-.5.55h0Z"/>
  <g>
    <path class="cls-7" d="M157.25,74.88c.22-.21-.32-1.44-.72-1.01.44.13.36.8.72,1.01h0ZM153.35,69.11c-.52-.25-1-1.3-1.44-1.15.28.49.86,1.44,1.44,1.15h0ZM130.71,54.11c-2.01-.97-4.72-2.07-7.5-2.89-.73-.22-1.46-.11-2.16-.29-2.13-.54-4.59-1.79-6.35-.43-.26-.62-1.17-.18-1.87-.58-.63-.2-.31.56-.86.43-2.59-.72-6.07.05-9.09.86-4.62,1.26-8.56,2.92-12.41,4.47-1.12.45-2.41.8-3.46,1.3-4.1,1.94-7.49,5.35-11.11,8.51-4.07,3.56-7.97,7.74-10.68,12.26.19,1.05-.82,1.73-1.15,2.6-.3.8-.19,1.75-.43,2.6-.44,1.56-1.29,3.03-1.73,4.61-1.69,6.04-2.29,12.12-1.3,19.04.83,5.78,2.4,11.93,4.76,17.02,1.37,2.94,3.13,6.24,5.05,8.8,7.88,10.5,19.29,19.28,34.04,20.77,1.79,1.08,4.3.42,6.63.29,4.03-.22,6.99-.37,10.39-.72,7.31-.75,13.01-4.53,18.46-6.64.24-.53.63-.91,1.44-.86.44-.77,1.38-1.03,1.88-1.73,5.1-2.77,8.68-7.9,12.41-12.98.26-.35.62-.53.86-.86,2.94-4.11,4.05-9.55,5.63-14.28.39-1.17,1.22-2.21,1.44-3.46.11-.65-.18-1.83-.15-2.6.06-1.24.51-2.49.58-3.75.1-1.95.16-4.08,0-6.06-.54-6.78-1.84-13.28-4.19-19.33-1.33-1.62-2.39-3.3-3.46-4.9-1.42-2.14-2.6-3.94-4.18-5.77-3.22-3.71-5.5-7.83-10.1-9.66-.49.05-.79.71-.57,0,.11-.04.17-.12.15-.29h-.29c-1.09-.5-1.25-1.05-2.74-1.15-1.58-2.13-4.95-2.73-7.07-3.9-.08-.21.17-.74-.15-.72.09.75-.3.22-.72.29h0ZM158.69,128.83c-1.42,1.44-7.15,14.13-16.19,17.38-3.24,2.53-5.4,2.83-7.8,4.36-.2.52-10.02,4.23-14.19,3.85-.39.13-3.2.23-4.97.61-.4.1-6.33-.03-7.77-.09-15.65-.65-17.89-4.89-20.82-5.59-1.1-.93-7.1-4.16-10.04-6.89-4.03-3.75-9.8-12.81-12.87-18.15-1.14-3.63-3.25-7.7-4.02-10.48-.67-1.72-.53-3.39-.72-5.19-.17-1.55-.92-3.08-1.15-4.62-.54-3.58.3-6.92,1.01-10.1.3-.25.24-2.53.87-4.04.67-3.99.98-3.67,1.73-6.06.19-.35.73-2.41,1.01-2.89.04-.06.21-.6.43-1.15,2.69-6.54,9.13-12.88,14.43-17.17.27-.02,5.46-4.45,8.22-6.2,5.51-2.38,12-4.79,18.61-6.63.47-.13,1.03-.15,1.59-.29,1.63-.43,3.75-.99,5.48-1.01,18.82-.2,29.47,8.95,33.61,11.4,5.38,4.52,12.07,9.79,15.29,18.46-.17.17.21.61.23.96.8,1.93,1.9,4.92,1.93,4.81.8,1.98,2.61,8.69,2.02,9.23.04.3,1.9,6.9.86,9.95.67,5.67-.93,12.77-2.88,17.31-.62,2.29-4.03,7.77-3.89,8.22h0Z"/>
    <path class="cls-15" d="M157.25,74.88c.22-.21-.32-1.44-.72-1.01.44.13.36.8.72,1.01h0ZM153.35,69.11c-.52-.25-1-1.3-1.44-1.15.28.49.86,1.44,1.44,1.15h0ZM130.71,54.11c-2.01-.97-4.72-2.07-7.5-2.89-.73-.22-1.46-.11-2.16-.29-2.13-.54-4.59-1.79-6.35-.43-.26-.62-1.17-.18-1.87-.58-.63-.2-.31.56-.86.43-2.59-.72-6.07.05-9.09.86-4.62,1.26-8.56,2.92-12.41,4.47-1.12.45-2.41.8-3.46,1.3-4.1,1.94-7.49,5.35-11.11,8.51-4.07,3.56-7.97,7.74-10.68,12.26.19,1.05-.82,1.73-1.15,2.6-.3.8-.19,1.75-.43,2.6-.44,1.56-1.29,3.03-1.73,4.61-1.69,6.04-2.29,12.12-1.3,19.04.83,5.78,2.4,11.93,4.76,17.02,1.37,2.94,3.13,6.24,5.05,8.8,7.88,10.5,19.29,19.28,34.04,20.77,1.79,1.08,4.3.42,6.63.29,4.03-.22,6.99-.37,10.39-.72,7.31-.75,13.01-4.53,18.46-6.64.24-.53.63-.91,1.44-.86.44-.77,1.38-1.03,1.88-1.73,5.1-2.77,8.68-7.9,12.41-12.98.26-.35.62-.53.86-.86,2.94-4.11,4.05-9.55,5.63-14.28.39-1.17,1.22-2.21,1.44-3.46.11-.65-.18-1.83-.15-2.6.06-1.24.51-2.49.58-3.75.1-1.95.16-4.08,0-6.06-.54-6.78-1.84-13.28-4.19-19.33-1.33-1.62-2.39-3.3-3.46-4.9-1.42-2.14-2.6-3.94-4.18-5.77-3.22-3.71-5.5-7.83-10.1-9.66-.49.05-.79.71-.57,0,.11-.04.17-.12.15-.29h-.29c-1.09-.5-1.25-1.05-2.74-1.15-1.58-2.13-4.95-2.73-7.07-3.9-.08-.21.17-.74-.15-.72.09.75-.3.22-.72.29h0ZM158.69,128.83c-1.42,1.44-7.15,14.13-16.19,17.38-3.24,2.53-5.4,2.83-7.8,4.36-.2.52-10.02,4.23-14.19,3.85-.39.13-3.2.23-4.97.61-.4.1-6.33-.03-7.77-.09-15.65-.65-17.89-4.89-20.82-5.59-1.1-.93-7.1-4.16-10.04-6.89-4.03-3.75-9.8-12.81-12.87-18.15-1.14-3.63-3.25-7.7-4.02-10.48-.67-1.72-.53-3.39-.72-5.19-.17-1.55-.92-3.08-1.15-4.62-.54-3.58.3-6.92,1.01-10.1.3-.25.24-2.53.87-4.04.67-3.99.98-3.67,1.73-6.06.19-.35.73-2.41,1.01-2.89.04-.06.21-.6.43-1.15,2.69-6.54,9.13-12.88,14.43-17.17.27-.02,5.46-4.45,8.22-6.2,5.51-2.38,12-4.79,18.61-6.63.47-.13,1.03-.15,1.59-.29,1.63-.43,3.75-.99,5.48-1.01,18.82-.2,29.47,8.95,33.61,11.4,5.38,4.52,12.07,9.79,15.29,18.46-.17.17.21.61.23.96.8,1.93,1.9,4.92,1.93,4.81.8,1.98,2.61,8.69,2.02,9.23.04.3,1.9,6.9.86,9.95.67,5.67-.93,12.77-2.88,17.31-.62,2.29-4.03,7.77-3.89,8.22h0Z"/>
    <path class="cls-6" d="M142.1,59.88c6.13,4.38,7.24,6.88,10.41,10.54,1.56,1.8,2.52,3.16,3.92,5.27,1.05,1.58,1.38,3.26,2.7,4.85,2.31,5.96,3.59,12.37,4.12,19.04.15,1.95.1,4.05,0,5.97-.07,1.25-.52,2.47-.57,3.69-.03.76.26,1.92.14,2.56-.22,1.23-1.03,2.25-1.42,3.41-1.55,4.66-2.65,10.02-5.54,14.06-.24.34-.6.51-.85.86-3.67,5-7.19,10.06-12.22,12.79-.49.69-1.42.95-1.85,1.7-.8-.04-1.18.33-1.42.85-5.38,2.07-10.99,5.8-18.19,6.53-3.35.34-6.26.49-10.23.71-2.3.13-4.77.78-6.54-.28-14.53-1.47-25.77-10.12-33.53-20.46-1.89-2.51-3.63-5.77-4.97-8.66-2.33-5.02-3.87-11.07-4.69-16.77-.98-6.82-.38-12.8,1.28-18.75.44-1.56.62-2.86,1.05-4.39.24-.84.83-1.91,1.08-2.71,1.12-3.61,7.09-10.58,11.65-14.64,4.43-3.94,7.11-6.08,10.94-8.38,3.86-2.32,11.07-4.44,15.63-5.68,2.97-.81,9.57-1.57,10.19-1.37,2.6-.09,9.25.91,10,.98,8.35.73,18.86,8.3,18.91,8.3h0Z"/>
    <path class="cls-14" d="M142.1,59.88c6.13,4.38,7.24,6.88,10.41,10.54,1.56,1.8,2.52,3.16,3.92,5.27,1.05,1.58,1.38,3.26,2.7,4.85,2.31,5.96,3.59,12.37,4.12,19.04.15,1.95.1,4.05,0,5.97-.07,1.25-.52,2.47-.57,3.69-.03.76.26,1.92.14,2.56-.22,1.23-1.03,2.25-1.42,3.41-1.55,4.66-2.65,10.02-5.54,14.06-.24.34-.6.51-.85.86-3.67,5-7.19,10.06-12.22,12.79-.49.69-1.42.95-1.85,1.7-.8-.04-1.18.33-1.42.85-5.38,2.07-10.99,5.8-18.19,6.53-3.35.34-6.26.49-10.23.71-2.3.13-4.77.78-6.54-.28-14.53-1.47-25.77-10.12-33.53-20.46-1.89-2.51-3.63-5.77-4.97-8.66-2.33-5.02-3.87-11.07-4.69-16.77-.98-6.82-.38-12.8,1.28-18.75.44-1.56.62-2.86,1.05-4.39.24-.84.83-1.91,1.08-2.71,1.12-3.61,7.09-10.58,11.65-14.64,4.43-3.94,7.11-6.08,10.94-8.38,3.86-2.32,11.07-4.44,15.63-5.68,2.97-.81,9.57-1.57,10.19-1.37,2.6-.09,9.25.91,10,.98,8.35.73,18.86,8.3,18.91,8.3h0Z"/>
    <path class="cls-10" d="M112.21,77.2c-.76-.67-2.37-.62-2.39.68.51-.06.74.15,1.18.15.74,1.27,2.33,1.93,4.26,1.53.44.1.65.78,1.15,1.01.37.17,1.06-.02,1.61.16.6.2.86.66,1.27.69.71.04,1.42-.65,2.07-.69-.4-1.78-2.84-1.65-3.67-3.02-.26.13-.75.02-.98.19-.81-1.12-3.13-1.35-4.5-.68h0ZM121.78,81.27c-.88.24-1.75.77-2.82.55-.35-.07-.64-.44-1.06-.57-1.13-.34-2.07-.19-2.55-1.05-1.96.23-3.75-.57-4.58-1.76-.32,0-.64-.02-.97-.03-.22-.21.07-.9-.29-.98.12-1.15,1.8-1.45,2.71-.78,1.79-.89,3.87.49,5.48.39.66.26.95,1,1.68,1.46,1.09.68,2.97.79,2.39,2.77h0Z"/>
    <path class="cls-10" d="M116.71,77.88c.23-.16.72-.05.98-.18.83,1.37,3.28,1.24,3.67,3.02-.65.04-1.35.73-2.07.69-.41-.02-.68-.49-1.27-.69-.55-.18-1.24.01-1.61-.16-.5-.23-.71-.91-1.15-1.01-1.93.39-3.52-.26-4.26-1.53-.44,0-.67-.21-1.18-.15.02-1.3,1.64-1.35,2.39-.68,1.37-.67,3.69-.44,4.5.68h0Z"/>
    <path class="cls-3" d="M113.57,81.98c.18-.03.18.11.32.12-.1.15-.1.41-.44.31-.04-.23.08-.28.12-.43h0Z"/>
    <path class="cls-9" d="M105.65,83.78c.2,2.35-.66,5.98,1.18,6.82.44-1.76,1.23-3.14,2.39-4.12.66,1.5,1.17,3.14,2.23,4.27.54-.24.37-1.23.7-1.7.34-.04.27.38.54.13.65-.79.83-2.08,1.59-2.75.23,1.7.82,3.06,1.81,4.04.85-.99.91-2.82,1.53-4.04.58.63.86,1.61.78,2.61-.06.7-.77,1.63-.07,2.15.41-.26.8-.55,1.31-.71.82-1.35,1.13-3.24,1.97-4.56.42,1.85-.05,4.72,1.54,5.75.25-.71,1.09-.16,1.32-.93.21.08.23.34.42.44.79-.49.83-1.78.85-3.09,1.13.87.67,2.58,1.61,3.6.7-.41.81-1.44,1.04-2.34.2,1.2.84,2,1.75,2.53.49-.11.36-.87.68-1.16.42-.08.16.48.63.34.48-.38.48-1.27.5-2.14,1.01.46.5,2.22,1.2,2.73.08-.07.36-.44.33,0,.35-.55.53-1.28.6-2.13.38.42.64.88.8,1.86.09.54.42.85.72,1.1.67.57.76-.7,1.23-1.36.81,1.4,1.5,2.9,1.9,4.69-2.62-1.1-6.36-.9-8.81-.71-2.63-.84-5.57-.36-8.4-.16-2.7.19-6.95.28-10.13.32-3.32.04-6.06-.36-8.79-1.36-.4-.15-.74-.56-1.16-.68-1.21-.36-2.3-.36-3.09-1.17-1.37-.04-2.37-1-3.62-1.19-1.44-.21-3.34.17-4.75.49-1.77.42-3.39,1.31-4.79,1.68.81-2.87,2.84-5.32,4.43-7.29.69.44.18,1.99,1.12,2.19.28-.7.56-1.41.82-2.12.28.85.33,1.91,1.22,2.19.49-.97.83-2.09,1.39-2.97.5,1.23.18,3.24,1.16,4.02.36-.13.4-.61.57-.95.31.02.7-.04.86.13.39-1.25.67-2.61,1.09-3.84.76.79-.16,2.83,1.19,3.27.44-.91.25-2.48,1.17-2.87.47,1.78-.13,3.79,1.35,4.78.27.17.83-.11,1.3-.07.63-.92,1.14-1.98,1.19-3.51,1.46.67.89-1.7,1.58-2.21h0Z"/>
    <path class="cls-4" d="M99.61,101.03c-.49.27-.27.7-1.43,1.03-2.52.72-6.23,1.09-8.76,1.23-.43.02-1.08-.09-1.51-.05-1.39.12-2.77.7-4,.63-1.77-.11-3.73-.67-5.36-.82-1.15-.1-2.31.21-3.45.22-1.17,0-2.4-.3-3.54-.33-.49-.01-.95.19-1.4.17-1.66-.07-3.31-.62-4.93-.8-1.65-.19-3.26.25-4.73-.37.31-.6,1.29-.62,1.96-.8,3.89-1.06,9.41-.03,13.68-.1,3.7-.06,7.27.2,10.76.23,3.57.03,6.99-.61,10.36-.75.71-.03,1.71-.16,2.35.5h0Z"/>
    <path class="cls-1" d="M131.03,108.49c.33,4.64.86,10.09,2.25,13.96-.16.5-.65.64-1,.94-1.61-3.76-2.13-9.79-1.25-14.9h0Z"/>
    <path class="cls-1" d="M134.15,108.58c.6,1.28-.06,3.74,1.26,4.35-1.19,2.38.95,4.93.65,6.7-.13.78-1.01,1.09-1.46,1.78-1.78-3.71-1.25-8.44-.45-12.83h0Z"/>
    <path class="cls-1" d="M127.37,108.58c.32.11.25.6.51.77.13,4.12,1.67,7.17,2.23,11.16,1.03.7.93,2.47,1.39,3.71-.32.15-.34.6-.77.62-2.41-4.21-3.41-9.74-3.36-16.26h0Z"/>
    <path class="cls-1" d="M93.05,107.82c.89,4.78-.44,10.02-1.94,13.61-1.37-.61-.8-1.96-.53-3.57.13-.81.06-1.75.19-2.47.45-2.57,2.27-5.11,2.29-7.57h0Z"/>
    <path class="cls-3" d="M82.24,107.86c.44.12.44,0,.97.03-.12.36-1.04.46-.97-.03h0Z"/>
    <path class="cls-1" d="M96.74,110.09c.67.1,0,.54-.03.86-.13,4.58-1.45,8.83-2.76,12.51-.63-.08-.93-.45-1.27-.79,1.61-3.92,3.01-8.06,4.06-12.58h0Z"/>
    <path class="cls-1" d="M136.4,112.21c.34,1.73-.46,4.68.89,5.85-.11.4-.32.7-.67.84-.44-1.97-1.23-4.56-.22-6.68h0Z"/>
    <path class="cls-1" d="M89.71,111.05c.46,2.61.52,5.92-.28,8.71-1.07-.59-.45-1.73-.33-3.03.07-.78-.19-1.67-.14-2.48.08-1.29.68-2.26.75-3.21h0Z"/>
    <path class="cls-1" d="M87.87,111.53c.53,1.94.74,4.35.33,6.58-.63-.24-.85-.87-1.13-1.44.52-1.45.77-3.19.81-5.14h0Z"/>
    <path class="cls-1" d="M123.28,125.46c-6.74-.17-13.67-.59-20-.74-1.92-.05-3.86-.02-5.5.26,1.56,1.01,3.62.21,5.59.28,2.97.1,6.2.33,9.35.51,2.82.16,5.57.07,8.18.15,1.6.05,3.56.47,4.84-.06-.52-.79-1.59-.38-2.46-.4h0ZM97.03,121.29c6.34.41,12.89,0,19.16.29,2.12.1,4.81.09,7.21.12,1.11.02,2.29.13,3.03-.44-9.41-.41-20.07-.64-29.39.03h0ZM122.56,117.69c-8.09-.19-16.84,0-24.55-.13,1.16.64,2.97.59,4.51.57,7.54-.08,15.58.05,23.37-.12-.67-.78-2.21-.3-3.33-.32h0ZM129.85,125.46c-1.19.81-2.72,1.91-4.17,2.56-2.12.95-4.84,1.29-7.49,2.02-1.21.33-2.69.52-4.11.62-2.57.19-4.46.42-6.67-.21-2.33-.67-4.68-1.82-6.8-2.91-2.18-1.13-4.24-2.43-5.91-3.63.17-1.15.64-2.29,1.08-3.52.58-1.65.58-3.53,1.75-4.36.14-.14.56-.94.66-.41.21-.26.12-.84.36-1.06,7.47-.51,16.01.89,22.91.73,1.26-.03,3.13-.44,4.2.03,1.67.73,1.76,2.95,2.32,5.03.51,1.88,1.01,3.59,1.88,5.12h0Z"/>
    <path class="cls-1" d="M132.7,116.94c.27.3.36.77.28,1.41-.22-.35-.34-.79-.28-1.41h0Z"/>
    <path class="cls-2" d="M125.89,118.01c-7.79.17-15.82.04-23.37.12-1.54.02-3.35.07-4.51-.57,7.7.14,16.45-.05,24.55.13,1.12.02,2.66-.46,3.33.32h0Z"/>
    <path class="cls-2" d="M126.43,121.26c-.73.57-1.91.46-3.03.44-2.4-.02-5.09-.02-7.21-.12-6.27-.29-12.82.13-19.16-.29,9.32-.68,19.99-.44,29.39-.03h0Z"/>
    <path class="cls-2" d="M125.74,125.87c-1.28.53-3.24.11-4.84.06-2.61-.08-5.36,0-8.18-.15-3.15-.18-6.38-.41-9.35-.51-1.97-.07-4.03.73-5.59-.29,1.64-.27,3.59-.3,5.5-.26,6.33.15,13.26.57,20,.74.87.02,1.95-.39,2.46.4h0Z"/>
    <path class="cls-4" d="M72.73,80.99c-.49-.28-1.09-.63-1.48-.63-.86.02-2.48,2.07-2.59,3.02,2.61,2.65,6.79,5.32,10.52,6.65.97-.1,2.37-2.01,2.34-3.17-.29-.39-.86-.68-1.54-1.22-.3-.24-1.53-1.64-1.82-.74-.14.43.56.52,1,.99.45.48.68,1.4.09,2.16-.65.84-1.55.18-2.27-.2-.33-.17-.77-.23-1.12-.41-1.97-1.02-3.97-2.54-5.38-3.88-.03-.54-.04-1.16.41-1.63.6-.63,1.77.06,2.51.26.45-.65-.18-.92-.66-1.2h0ZM68.08,82.97c1.52-2.97,4.14-4.4,6.25-1.69-.24.56-.32,1.07-.54,1.63-.83.2-1.89-.89-2.68-.44-.15,1.23,1.2,1.78,2.16,2.49,1.68,1.23,3.53,2.52,5.34,2.89,1.08-1.33-.53-1.72-1.15-2.46.06-.45.56-1.35.87-1.6.94.22,1.61.91,2.42,1.58.96.8,1.53,1.23,1.31,2.31-.89,1.4-1.8,2.99-3.1,2.96-.68-.02-1.78-.57-2.5-.98-2.63-1.51-6.14-3.78-7.97-5.41-.13-.43-.4-.81-.4-1.29h0Z"/>
    <path class="cls-4" d="M73.39,82.19c-.74-.19-1.91-.88-2.51-.26-.45.47-.44,1.09-.41,1.63,1.41,1.34,3.41,2.86,5.38,3.88.35.18.79.24,1.12.42.73.38,1.63,1.04,2.27.2.59-.76.35-1.68-.09-2.16-.43-.47-1.13-.56-.99-.99.28-.89,1.52.5,1.82.74.68.55,1.25.84,1.54,1.23.03,1.15-1.37,3.07-2.34,3.17-3.73-1.33-7.91-4-10.52-6.65.12-.95,1.73-3,2.59-3.02.39,0,.98.34,1.48.63.48.27,1.12.55.66,1.2h0Z"/>
    <path class="cls-4" d="M73.81,76.86c1.83,1.5,4.83,4.35,7.39,5.53,1.93.89,3.13,1.2,4.2-1.02-.37-1.65-2.14-3.1-3.74-4.47-1.15-.98-2.48-1.96-3.61-3-.25-.24-.69-1.1-1.15-.48-.23.4.33.62.53.81.91.86,1.9,1.64,2.88,2.48,1,.85,2.91,2.44,3.23,3.42.12.38.06,1.53-.37,1.96-1.03,1-2.59-1.02-3.6-1.8-1.82-1.4-3.78-2.93-5.37-4.17-.03.04-.05.08-.08.11-.04.2-.21.43-.3.64h0ZM74.44,75.09c1.84,1.92,4.43,4.07,6.75,5.76.39.28.87.64,1.36.63.49-.62.15-1.46-.2-1.94-1.43-1.94-4.54-3.96-6.34-5.9.23-.54.49-1.18,1.02-1.32.67.14,1.06.84,1.64,1.34,2.08,1.8,4.54,3.5,6.19,5.45.49.58,1.04,1.3,1.13,1.83.15.95-.65,1.69-1.29,2.59-2.82,1.7-5.62-1.61-8.45-3.72-1.26-.94-3.27-2.49-3.44-3.23,0-.07.01-.15.08-.11.7.03.95-1.32,1.54-1.38h0Z"/>
    <path class="cls-4" d="M74.11,76.21s.05-.08.08-.11c1.59,1.25,3.54,2.78,5.37,4.17,1.01.77,2.58,2.8,3.6,1.8.44-.43.5-1.58.37-1.96-.32-.97-2.23-2.56-3.23-3.42-.98-.84-1.96-1.62-2.88-2.48-.2-.19-.76-.4-.53-.8.47-.62.9.25,1.15.48,1.12,1.04,2.46,2.02,3.61,3,1.6,1.37,3.37,2.82,3.74,4.47-1.06,2.23-2.27,1.91-4.2,1.03-2.56-1.18-5.56-4.03-7.39-5.54.09-.21.27-.44.3-.64h0Z"/>
    <path class="cls-4" d="M83.6,68.45c-2.05-.18-4.36,1.78-1.84,3.71,1.35,1.03,3.61,1.02,5.1,1.29.53.09,1.35.29,1.66.59.72.68.79,2.44.18,3.11-.86.93-1.78-.17-2.67-.29.24,1.08,1.54,2.43,2.6,2.2.31-.07.51-.36.83-.57,1.03-.7,1.16-1.18,1.36-2.12.05-1.45-1.14-3.19-2.64-3.71-1.97-.68-4.44-.28-6.26-1.57-.27-.71-.38-1.51.34-1.99.78-.52,1.8.34,2.64.78-.23-.47-.74-1.1-1.29-1.43h0ZM85.59,69.8c-.13.27-.46.54-.87.7-.84-.46-1.67-1.41-2.33-.64-1.05,1.22,2.57,1.65,3.07,1.71.49.07,1.02.23,1.57.32.89.16,1.95.28,2.87,1.1,1.66,1.46,1.98,3.85.7,5.51-1.18.95-2.42,1.6-3.8.59-.59-.43-1.64-1.91-1.4-2.41.68-1.42,1.96.74,2.8.16.56-.38.31-1.96-.16-2.4-.67-.61-2.2-.54-3.04-.65-1.47-.19-4.79-.96-5.07-3.33-.18-1.47,2.45-2.79,3.38-2.72.8.06,1.63.98,2.28,2.07h0Z"/>
    <path class="cls-1" d="M84.89,69.88c-.84-.44-1.86-1.3-2.64-.78-.72.48-.61,1.28-.34,1.99,1.82,1.29,4.29.88,6.26,1.57,1.5.52,2.7,2.26,2.64,3.71-.2.94-.33,1.42-1.36,2.12-.31.21-.51.5-.83.57-1.05.23-2.36-1.11-2.6-2.2.89.12,1.81,1.22,2.67.29.61-.67.54-2.43-.18-3.11-.32-.3-1.13-.5-1.66-.59-1.49-.26-3.75-.26-5.1-1.29-2.52-1.93-.2-3.89,1.84-3.71.55.33,1.05.96,1.29,1.43h0Z"/>
    <path class="cls-4" d="M108.5,136.17c-1.11-1.88-4.29-2.74-4.45.57-.09,1.77,1.32,3.73,2.01,5.18.25.52.57,1.34.5,1.79-.16,1.02-1.68,2.12-2.66,1.98-1.37-.2-.96-1.64-1.39-2.49-.82.84-1.21,2.76-.35,3.54.26.23.64.24,1.02.38,1.26.49,1.77.32,2.73-.06,1.33-.8,2.14-2.86,1.67-4.46-.61-2.11-2.5-4.01-2.48-6.35.47-.65,1.11-1.21,1.99-.87.95.38.81,1.76.94,2.75.27-.48.52-1.29.48-1.96h0ZM108.53,138.69c-.33.04-.77-.08-1.16-.34-.11-.99.22-2.27-.87-2.39-1.74-.2.12,3.2.37,3.67.25.46.43,1.01.68,1.55.41.87.96,1.86.81,3.13-.27,2.3-2.21,3.97-4.48,3.83-1.58-.47-2.93-1.16-2.88-2.95.02-.77.68-2.54,1.28-2.63,1.69-.24.56,2.13,1.6,2.52.69.26,1.94-.88,2.04-1.54.13-.94-.88-2.23-1.31-3.02-.73-1.38-2.1-4.72-.17-6.35,1.2-1.02,4,.5,4.52,1.34.45.73.13,1.99-.43,3.19h0Z"/>
    <path class="cls-4" d="M108.01,138.12c-.13-.99,0-2.37-.94-2.75-.87-.34-1.52.23-1.99.87-.02,2.34,1.87,4.24,2.48,6.35.46,1.6-.34,3.66-1.67,4.46-.96.38-1.46.55-2.73.06-.38-.15-.76-.15-1.02-.38-.86-.78-.47-2.7.35-3.54.44.85.03,2.28,1.39,2.49.97.15,2.5-.95,2.66-1.98.07-.45-.25-1.27-.5-1.79-.69-1.45-2.1-3.41-2.01-5.18.16-3.32,3.34-2.46,4.45-.57.04.67-.21,1.48-.48,1.96h0Z"/>
    <path class="cls-4" d="M87.49,63.75c.92,2.2,2.76,4.05,3.92,6.25.75,1.43,1.43,2.89,2.3,4.21.28-.08.52,0,.82-.21-.63-1.35-1.8-2.96-2.25-4.47.37-.54,1.46-.92,2.25-1.1.84,1.02,1.6,2.33,2.22,3.42.18.31.38.95.78.81-.08-.81-.62-1.51-1.01-2.27-1.62-3.09-2.95-6.21-4.86-8.64-.26.1-.72.2-.86.38.81,1.96,2.15,3.62,2.99,5.53-.93.26-1.44,1.21-2.28,1.05-1.01-1.5-2.11-4.22-3.52-5.28-.27.15-.27.12-.49.31h0ZM88.78,63.18c.98,1.75,2.01,3.24,2.91,4.97.49-.13,1.09-.47,1.48-.7-.78-1.6-3.07-3.62-3.04-5.5.54-.5,1.34-.8,2.01-.72,1.07,1.04,1.52,2.5,2.14,3.85.3.65.74,1.22,1.09,1.84,1.08,1.96,2.15,3.91,2.96,5.71-.24.34-.85.68-1.35.69-.75-1.3-1.78-2.79-2.6-4.25-.38-.12-1.07.31-1.35.46,0,1.4,1.93,3.1,2.21,4.73-.59.18-1.17.37-1.76.57-.7-.77-.99-1.89-1.57-2.83-1.67-2.74-3.84-5.44-4.97-8.26-.06-.09-.05-.16,0-.23.67-.4,1.31-.63,1.85-.32h0Z"/>
    <path class="cls-4" d="M87.98,63.44c1.4,1.07,2.51,3.79,3.52,5.28.84.16,1.35-.79,2.28-1.05-.84-1.92-2.18-3.57-2.99-5.53.14-.19.59-.28.86-.38,1.91,2.43,3.25,5.54,4.86,8.64.4.75.94,1.46,1.01,2.27-.4.14-.6-.5-.78-.81-.62-1.09-1.38-2.4-2.22-3.42-.79.18-1.87.56-2.25,1.1.46,1.51,1.62,3.12,2.25,4.47-.3.21-.55.13-.82.21-.86-1.32-1.55-2.78-2.3-4.21-1.16-2.21-3-4.05-3.92-6.25.22-.19.22-.16.49-.31h0Z"/>
    <path class="cls-4" d="M96.86,58.75c1.03,3.89,2.51,7.9,3.61,11.76,1.13-.04,2.4-.41,3.7-.84-.04-.23-.09-.63-.29-.78-.79.05-1.82.65-2.47.38-.4-1.27-1.41-3.24-1.18-4.38.52-.26,1.05-.33,1.5-.63-.07-.18-.14-.36-.2-.54-.7.08-1.51.39-2.04.09-.31-1.39-1.26-3.08-1.14-4.26.61-.42,1.82-.48,2.54-.89.05-.21-.16-.54-.23-.8-1.23.23-2.68.51-3.81.89h0ZM101.15,57.34c.1.55.49,1.25.45,1.73-.96.33-2.05.34-2.65.79,0,.95.61,2.61,1.18,3.5.57.03,1.28-.24,1.86-.22.26.27.57.97.6,1.41-.47.38-1.1.42-1.69.84.08,1.04.49,2.23.96,3.45.8-.05,1.64-.48,2.34-.54.34.32.4.93.81,1.46-.7.53-2.34.86-3.44,1.16-.27.07-.94.27-1.12.22-.77-.18-1.63-3.82-2.12-5.46-.29-.99-.85-3.06-1.16-3.98-.33-.99-.86-2.55-.95-3.24-.01-.08.07-.13.05-.22,1.65-.1,3.26-.8,4.89-.88h0Z"/>
    <path class="cls-1" d="M100.67,57.86c.07.26.29.59.23.8-.73.41-1.93.47-2.54.89-.13,1.18.82,2.87,1.13,4.26.53.3,1.34,0,2.04-.09.07.18.14.36.2.54-.46.3-.98.37-1.5.63-.23,1.14.78,3.11,1.18,4.38.64.27,1.68-.33,2.47-.38.2.14.24.55.29.78-1.3.43-2.57.8-3.7.85-1.1-3.86-2.58-7.88-3.61-11.76,1.13-.38,2.59-.65,3.81-.89h0Z"/>
    <path class="cls-4" d="M154.5,83.64c-3.75,1.32-7.59,3.1-11.31,4.48.14,1.12.62,2.37,1.15,3.63.22-.06.62-.14.74-.35-.12-.78-.8-1.77-.59-2.44,1.22-.49,3.08-1.64,4.23-1.5.3.5.42,1.02.76,1.46.17-.08.34-.16.51-.24-.14-.69-.51-1.48-.26-2.03,1.35-.41,2.94-1.49,4.12-1.45.47.58.63,1.78,1.09,2.47.21.04.51-.2.77-.29-.33-1.21-.73-2.64-1.2-3.75h0ZM156.26,87.82c-.54.14-1.19.58-1.67.58-.41-.94-.51-2.02-1.01-2.59-.94.08-2.52.81-3.36,1.44.01.57.34,1.26.38,1.84-.25.28-.91.64-1.34.7-.42-.44-.51-1.07-.97-1.63-1.02.16-2.16.65-3.32,1.21.12.79.62,1.6.73,2.3-.29.36-.89.47-1.37.92-.58-.66-1.05-2.28-1.44-3.36-.09-.26-.34-.92-.31-1.11.12-.78,3.63-1.91,5.21-2.52.96-.37,2.95-1.08,3.84-1.45.95-.4,2.44-1.05,3.13-1.19.08-.01.14.06.22.03.25,1.64,1.07,3.19,1.29,4.81h0Z"/>
    <path class="cls-1" d="M155.71,87.39c-.25.09-.56.33-.76.29-.46-.69-.63-1.89-1.09-2.47-1.18-.04-2.77,1.04-4.12,1.45-.25.55.12,1.33.26,2.03-.17.08-.34.16-.51.24-.34-.43-.45-.95-.76-1.46-1.15-.14-3.01,1.02-4.23,1.5-.21.67.47,1.65.59,2.44-.12.21-.52.28-.74.35-.53-1.26-1.01-2.51-1.15-3.63,3.72-1.38,7.56-3.16,11.31-4.48.47,1.11.87,2.54,1.2,3.75h0Z"/>
    <path class="cls-4" d="M98.18,131.37c-1.94,3.84-3.67,8.1-5.54,11.96.78.73,1.88,1.28,3.03,1.8.12-.22.37-.57.33-.82-.56-.49-1.66-.69-1.9-1.35.6-1.3,1.25-3.58,2.18-4.35.52.14.92.43,1.43.5.08-.19.15-.38.23-.57-.53-.41-1.27-.7-1.42-1.3.73-1.33,1.24-3.34,2.13-4.22.69.07,1.54.83,2.29.99.18-.13.26-.54.38-.8-.98-.63-2.13-1.39-3.14-1.85h0ZM101.99,133.11c-.31.51-.51,1.34-.87,1.71-.86-.38-1.6-1.11-2.3-1.14-.64.77-1.35,2.53-1.58,3.63.35.41,1.01.66,1.39,1.07,0,.4-.28,1.17-.55,1.54-.58,0-1.02-.39-1.69-.46-.65.9-1.18,2.13-1.69,3.44.57.49,1.42.71,1.92,1.14,0,.49-.36,1.02-.44,1.73-.83-.04-2.14-.88-3.08-1.38-.22-.12-.8-.42-.89-.58-.39-.66,1.49-4.19,2.28-5.85.48-1,1.5-3.05,1.92-4.01.45-1.02,1.15-2.64,1.56-3.27.05-.07.14-.06.18-.15,1.17,1.02,2.71,1.54,3.85,2.57h0Z"/>
    <path class="cls-4" d="M101.33,133.21c-.13.26-.21.67-.38.8-.76-.16-1.6-.92-2.29-.99-.89.87-1.39,2.88-2.13,4.22.15.6.89.89,1.42,1.3-.08.19-.15.38-.23.57-.51-.06-.91-.36-1.43-.5-.92.77-1.58,3.05-2.18,4.35.24.65,1.34.86,1.9,1.35.04.25-.21.61-.33.82-1.16-.53-2.25-1.08-3.03-1.8,1.88-3.87,3.61-8.12,5.54-11.97,1.01.45,2.17,1.21,3.14,1.85h0Z"/>
    <path class="cls-4" d="M115.02,68.52c.34.02.56.06.8.03.2-1.98.38-4.44.65-6.19.09-.59.05-1.36.61-1.58.35.27.57.66.5,1.31.67,1.93,1,4.17,1.18,6.57.29.15.73.12,1.1.04.43-4.06,1.69-7.74,1.84-12.3-.37,0-.68.13-.92.09-.23,2.37-.91,4.91-.91,6.92-.25-.06-.32.08-.55.04-.61-2.22-.83-5.27-1.88-7.27-.58-.07-.99-.3-1.52-.42-.19,4.32-1.05,8.86-.88,12.77h0ZM116.17,55.02c.05,0,.06.03.06.06.46.54,1.53.5,1.98,1.06.43,1.56.92,3.06,1.24,4.72.46-1.49.58-3.33.91-4.95.87.07,1.31-.11,1.89.25.07.79-.21,1.9.03,2.71-.68,2.66-1.17,5.59-1.46,8.44-.07.65-.4,1.26-.44,1.89-.52.11-1.4.23-2.08.11-.45-2.07-.69-4.35-1.18-6.38-.19.59-.06,1.19-.13,1.84-.15,1.48-.72,3.02-.39,4.23-.51.73-1.85.07-2.31-.32.09-4.23.78-9.09,1.08-13.32.35-.14.8.19.81-.34h0Z"/>
    <path class="cls-1" d="M115.9,55.75c.53.12.93.35,1.52.42,1.05,1.99,1.28,5.04,1.88,7.27.23.04.3-.1.55-.04,0-2.01.68-4.55.92-6.92.24.04.56-.08.92-.09-.15,4.57-1.41,8.24-1.84,12.3-.37.08-.81.11-1.1-.04-.17-2.4-.51-4.63-1.18-6.57.07-.66-.16-1.04-.5-1.31-.56.22-.52,1-.61,1.58-.26,1.75-.44,4.21-.65,6.19-.23.04-.46,0-.8-.03-.17-3.91.69-8.45.88-12.77h0Z"/>
    <path class="cls-4" d="M148.3,72.12c-3.47,3.06-7.13,6-10.48,8.67.4.38.73.58.93,1.04,1.53-.54,3.47-3.27,4.86-3.06.1.51-.36,1.17-.57,1.81-.11.32-.08.79-.23,1.24-.31.94-.63,1.53-1.01,2.47-.26.64-.84,1.62.2,1.56.63-.97.96-2.16,1.39-3.3.44-1.15.88-2.59,1.28-3.66.08-.13-.25-.27-.15-.4.59-.68,1.49-.71,2.2-.89,1.51-.37,3.08-.7,4.47-1.47-.13-.3-.26-.67-.52-.85-1.51.41-3.05,1.02-4.61,1.73-.4-.08-.89.46-1.15.11-.33-.43.47-.79.95-1.23.88-.79,2.4-2.05,3.23-2.78-.3-.53-.6-.41-.81-.99h0ZM149.75,73.25c-.91.96-2.46,1.9-3.25,2.86,1.44-.23,3.03-1.23,4.46-1.38.46.76.84,1.32,1.11,2.02-1.1.48-1.98.44-3.17.78-.44.12-.98.35-1.59.55-.48.15-1.22.17-1.58.46-.66.53-.91,1.97-1.27,2.9-.18.49-.44.98-.59,1.45-.17.53-.24,1.06-.41,1.46-.08.2-.31.38-.37.52-.26.59-.3,1.4-.89,1.85-.32-.02-.82-.11-1.12-.29-.94-.55-.6-.91,0-1.86.49-.79.75-1.96.7-2.51.3-.82.77-1.64.92-2.47-1.46.76-2.61,2.27-4.11,2.89-.49-.57-1.14-.99-1.38-1.8,3.71-2.98,7.51-6.17,11.25-9.15.47.44,1.28,1.08,1.3,1.71h0Z"/>
    <path class="cls-1" d="M149.1,73.1c-.83.73-2.35,1.99-3.23,2.78-.48.43-1.28.8-.95,1.23.26.35.74-.19,1.15-.11,1.56-.71,3.11-1.32,4.61-1.73.26.18.39.55.52.85-1.39.77-2.96,1.09-4.47,1.47-.71.18-1.61.21-2.2.89-.11.13.23.27.15.4-.39,1.07-.84,2.51-1.28,3.66-.43,1.14-.76,2.33-1.39,3.3-1.05.07-.46-.92-.2-1.56.37-.93.69-1.52,1.01-2.46.15-.45.13-.92.23-1.24.21-.64.67-1.29.57-1.81-1.39-.21-3.33,2.52-4.86,3.06-.21-.46-.53-.66-.93-1.04,3.35-2.67,7.01-5.61,10.48-8.67.21.58.51.46.81.99h0Z"/>
    <path class="cls-4" d="M111.39,67.62c.56-1.49-.07-5.48-.36-7.76-.18-1.46-.57-3.59-1.46-4.01-.44-.21-1.11-.03-1.63.06-.47.08-1.05.25-1.5.5-.15.24-.27.51-.45.73-.67,2.18.11,4.84.52,7.22.24,1.42.31,2.91.99,4.21,1.55.54,3.32.55,3.89-.95h0ZM110.03,55.52c.33.57,1.09,1.08,1.27,2.01.04.21-.03.5,0,.78.09.73.38,1.61.48,2.6.23,2.37.81,6.05.11,7.41-.56.81-1.55,1.17-2.84,1.17-.38,0-1.16-.04-1.41-.17-1.49-.71-1.97-4.76-2.35-7.25-.13-.84-.22-1.99-.16-2.97.1-1.66.23-2.89,1.53-3.44,1-.42,2.22-.28,3.38-.15h0Z"/>
    <path class="cls-4" d="M109.38,58.56c-.41-.4-.6-.97-1.32-.77-.54.15-.8,1.07-.79,1.76.03,2.17.66,5.34.96,7.21.41.33.68.86,1.53.54,1.03-2.09-.14-5.7-.38-8.74h0ZM107.51,68.57c-.68-1.3-.74-2.79-.99-4.21-.41-2.37-1.19-5.04-.52-7.22.18-.22.3-.48.45-.73.45-.24,1.03-.42,1.5-.5.52-.09,1.18-.27,1.63-.06.89.42,1.28,2.54,1.46,4,.28,2.29.92,6.28.36,7.77-.57,1.5-2.34,1.48-3.89.95h0Z"/>
    <path class="cls-4" d="M118.97,146.96c.61-1.55-.05-5.7-.34-8.08-.19-1.52-.59-3.73-1.55-4.16-.48-.21-1.2-.02-1.75.08-.5.09-1.13.27-1.61.53-.16.25-.29.53-.49.76-.73,2.27.1,5.04.52,7.51.25,1.47.32,3.02,1.04,4.37,1.66.55,3.55.56,4.17-1h0ZM117.57,134.38c.35.59,1.16,1.12,1.35,2.09.04.22-.04.52,0,.82.09.76.4,1.67.5,2.7.24,2.46.84,6.29.08,7.71-.6.85-1.67,1.23-3.06,1.24-.41,0-1.24-.04-1.52-.16-1.6-.74-2.09-4.94-2.49-7.53-.14-.87-.23-2.07-.16-3.09.12-1.72.27-3.01,1.67-3.58,1.08-.45,2.39-.31,3.63-.17h0Z"/>
    <path class="cls-1" d="M116.86,137.54c-.44-.41-.63-1.01-1.41-.79-.58.16-.86,1.11-.86,1.83.02,2.25.68,5.55.99,7.5.43.34.72.89,1.65.55,1.12-2.19-.12-5.93-.36-9.09h0ZM114.79,147.97c-.72-1.35-.78-2.9-1.04-4.38-.42-2.47-1.25-5.24-.52-7.51.2-.22.32-.5.49-.75.48-.26,1.11-.44,1.61-.53.55-.1,1.27-.29,1.75-.08.96.43,1.36,2.64,1.55,4.16.29,2.38.95,6.52.34,8.08-.62,1.56-2.52,1.56-4.18,1.01h0Z"/>
    <path class="cls-4" d="M130.59,59.98c-1.77,4.19-4.67,7.71-5.88,11.61.88.78,2.34,1.26,3.58,1.84.36-.31.61-1.02.89-1.59-.68-.55-1.61-.9-2.05-1.44-.33-.41-.17-.92.18-1.6,1.38-2.71,3.44-5.67,4.45-8.26-.24-.44-.66-.56-1.18-.55h0ZM132.54,60.57c-1.34,3.18-3.56,6.34-4.59,9.48.35.73,1.53,1.1,2.14,1.72-.49.69-.97,1.68-1.29,2.44-1.56-.58-3.54-1.27-4.7-2.53,1.19-4.28,4.42-8.15,6.33-12.43.78.05,2.01.45,2.11,1.31h0Z"/>
    <path class="cls-1" d="M131.77,60.53c-1.01,2.6-3.07,5.55-4.45,8.26-.35.69-.5,1.2-.18,1.6.44.54,1.37.89,2.05,1.44-.28.57-.53,1.28-.89,1.59-1.25-.58-2.7-1.06-3.58-1.84,1.2-3.9,4.1-7.42,5.88-11.61.52,0,.93.11,1.18.55h0Z"/>
    <path class="cls-4" d="M141.23,66.36c-3.52,3.32-7.08,5.41-10.59,8.79.52.85,1.38-.04,2.04-.4.68-.37,1.58-1.02,2.17-.75.69.32,1.31,1.39,1.94,1.98-.49.84-1.12,1.71-1.46,2.53.13.25.44.67.77.74,1.71-2.56,2.6-5.54,4.36-8.15.79-1.18,1.72-2.22,2.21-3.54-.45-.59-.75-.88-1.44-1.21h0ZM143.28,67.52c-1.04,1.98-2.33,3.88-3.54,5.81-.69,1.09-1.2,2.33-1.81,3.43-.61,1.12-.94,2.31-1.52,3.3-.59.05-1.26-.88-1.73-1.25.2-.96.98-2,1.35-2.99-.29-.33-.89-.74-1.4-1.26-1.14.03-2.23,1.34-3.35,1.86-.44-.3-1.33-.86-1.45-1.39.88-1.65,2.47-2.43,3.63-3.18,1.01-.65,2.07-1.58,3.14-2.4,1.06-.8,2.27-1.53,3.15-2.4.55-.55,1-1.26,1.68-1.62.4.76,1.35,1.05,1.85,2.09h0Z"/>
    <path class="cls-1" d="M139.34,69.9c-1.03.5-2.02,1.82-3.05,2.48.13.52.92,1.18,1.27,1.51.52-1.26,1.25-2.74,1.93-3.87-.05-.04-.1-.08-.15-.12h0ZM142.67,67.57c-.49,1.32-1.42,2.36-2.21,3.54-1.75,2.61-2.65,5.59-4.36,8.15-.33-.07-.64-.49-.77-.74.34-.82.97-1.68,1.46-2.53-.62-.59-1.25-1.66-1.94-1.98-.59-.27-1.5.38-2.17.75-.66.35-1.52,1.25-2.04.39,3.51-3.38,7.08-5.47,10.6-8.79.69.32.99.62,1.44,1.21h0Z"/>
    <path class="cls-12" d="M97.26,100.52c-3.37.14-6.79.78-10.36.75-3.48-.03-7.06-.3-10.76-.23-4.26.08-9.79-.96-13.68.1-.67.18-1.65.2-1.96.8,1.47.61,3.08.18,4.73.36,1.61.18,3.26.74,4.93.8.46.02.92-.18,1.4-.17,1.14.02,2.38.33,3.55.33,1.15,0,2.3-.32,3.45-.21,1.62.15,3.59.71,5.36.82,1.23.07,2.61-.5,4-.63.42-.04,1.08.07,1.51.05,2.53-.14,6.24-.51,8.76-1.23,1.17-.33.94-.76,1.43-1.03-.65-.67-1.64-.53-2.35-.5h0ZM162.42,100.11c-1.24-.02-2.48-.2-3.76-.22-2.65-.06-4.98,1-7.36,1.27-1.36.16-2.79.34-4.32.4-1.33.06-2.53-.38-4.08-.56-3.32-.39-5.63.19-8.4.16.15,1.41,1.83,1.01,2.87,1.17,1.55.23,3.23.36,5.04.59,2.28.29,4.61,1.21,6.53,1.18.62,0,1.29-.32,1.95-.37,2.61-.18,5.21-.46,7.25-1.06.43-.19.55.45.75.13-.15-.02-.11-.28.11-.22,1.29-.19,3.22-.53,4.14-1.48-.53-.06-.11-1-.72-.99h0ZM98.69,113.16c-.57.1-.91.44-1.42.6.48-2.06.34-4.34.31-6.45-.01-.88.46-2.17-.46-2.6-.67.43-.21,1.18-.27,1.82-.15,1.46-.84,3.26-1.24,4.91-.87,3.64-1.87,7.55-3.56,10.55-.32-2.09,1.3-4.03,1.61-6.52.38-3.03.28-6.09-.15-8.94-.09-.58.31-1.33-.5-1.42-.93,2.84-.87,5.85-2.21,8.44-.11-1.41-.5-3.16-.61-4.54-.08-1.02.27-2.39-.88-2.72-.6,1.67.48,4.07-.5,5.8-.2-.76-.79-1.78-.99-2.72-.12-.58.28-1.78-.7-1.74.05,2.77.36,5.67-.49,8.49-1.48-1.75-2.39-4.45-2.91-6.77.03-.46.09-1.26-.38-1.52-.41-.23-1.15.42-1.63.49-2.91.42-6.58.04-9.48.02-.76,0-1.56.14-2.26.04-.28.06-.39-.05-.31-.33-1.01.5-2.13.22-3.46.32.38-.23.53-.2.87-.29-3.44-.65-5.5.7-9.27.24-.41-1.67.8-2.92,1.21-4.16.16-.48-.03-1.24.48-1.6-.07-2.48-1.99-3.21-2.64-5.14,4.91-.51,11.33-.31,16.5-.66.83-.06,1.7.19,2.26.18,2.83-.03,5.55-.42,8.08-.07.43-.15.65-.81.68-1.06.42.02.67-.22.97-.08.53-.76,1.72-.8,2.62-1.1,1.64-.55,2.69-1.2,4.24-1.27,1-.04,2.02-.28,2.92-.23,3.06.18,6.7,2.63,10.34,3.23,2.87.48,5.45.71,8.59.6,1.35-.05,2.72-.45,4-.41,4.37.11,8.38-.51,12.49-.04,2.14.25,4.19-.3,6.78.22.37-.06.35.23.53.34.57-.2.9-.04,1.3-.29.92,1.53,2.95.92,4.92,1.02,3.02.17,6.91.46,10.23,0,.05-.66-.88.04-.95-.46,5.21-.66,9.05-.37,14.44-.51-.33,2.08-2.13,4.09-2.25,6.39,1.16,1.27,2.47,2.41,3.32,3.98-1.35.04-2.77.03-3.99.09-.07.14-.88-.2-1.08.08-8.05.36-14.17.1-22.97,1.32-.48,3.64-1.42,6.79-3.4,8.83-.61-3.35-.24-7.02.52-9.78-1.88-.11-1.84,2.78-2.4,4.45-.33-2.04-.82-3.83-.45-6.04-.9-.03-1.28,1.08-1.46,1.78-.61,2.46-.68,6.15-.92,8.8-.83-2.87-.81-6.63-.98-9.83-1.24.12-1.52,1.65-1.7,2.75-.29,1.77,0,3.67-.18,5.7-.98-2.84-1.54-6.06-1.96-9.43-1.32,0-1.38,2.3-1.32,4.16.05,1.75.28,3.54.29,4.53-.03.12-.11.06-.11,0-1.64-.95-3.66-.89-5.57-1.04-1.99-.17-4.12.48-6.36.33-.41-.02-.86-.35-1.28-.36-.45-.01-.85.24-1.3.28-4.04.35-8.36-.91-12.92-.2-.34,0-.3-.24-.63-.45h0Z"/>
    <path class="cls-12" d="M119.39,78.51c-.73-.46-1.02-1.19-1.68-1.45-1.61.1-3.69-1.28-5.48-.39-.92-.68-2.6-.38-2.71.77.36.08.07.77.29.98.33.01.65.02.97.03.82,1.19,2.62,1.99,4.58,1.76.47.86,1.42.71,2.55,1.05.43.13.71.51,1.06.57,1.07.21,1.94-.31,2.82-.56.58-1.98-1.3-2.09-2.39-2.77h0ZM133.77,86.61c-.35.29-.32,1-.58,1.38-.95-.81-1.12-3.42-3.05-2.36.51,1.11.41,2.97-.34,3.86-.14-1.18-.11-2.21-.32-3.35-1.21-.47-1.57.71-2.5.89-.88-1.22-.52-3.91-1.46-4.89-1.68.21-.1,4.02-1.15,5.56-1.46-.68-1.06-3.11-2.13-4.16-1.23.92-1.42,3.15-3.52,2.26-.44-1.1-1.15-2.89-2.51-2.45.6,1.53.51,3.26-.25,4.51-.36-1.72-.91-3.07-.59-5.19-.36-.18-.68-.11-.97-.03-.38.41-.58,1.01-.6,1.81-1.07.19-.63,1.99-1.68,2.21.07-.55-.08-.9-.29-1.19-.46.02-.71.28-1.09.39-.15-1.22-.33-2.4-.64-3.47-1.63,0-1.03,2.39-2.24,2.84-.06-.41.15-1.2-.83-.99-.62-.67.14-2.63-.55-3.25-1.4.33-.77,2.14-2.02,2.63.04-.52-.05-.92-.17-1.3-.92.14-1.02-.96-1.59-.8.21,1.06.37,3.32-.36,4.51-.42.02-.42-1.01-1.05-.9.03-.48-.28-.64-.18-1.19.26-.46.62-.83.49-1.71-.74.03-1.42.12-1.85.48-.24-.65-.73-1.06-1.03-1.65-1.54.62-1.44,2.99-2.5,4.12-.25-.04-.4-.18-.75-.13-.31-.48-.06-1.47-.26-2.05-1.31.45-1.75,1.83-2.46,2.94-.55-.49.18-1.88-.25-2.27-.81.21-1.13.95-1.56,1.57-.27-1.56,1.35-2.41,2.48-3.37,2.99-2.55,8.24-5.43,12.27-6.61,1.14-.33,2.51-.34,4-.52,1.84-.22,2.7-.09,5.06.16,6.88.75,11.13,3.83,15.26,7.49,1.36,1.2,2.35,2.9,3.74,4.21h0Z"/>
    <path class="cls-5" d="M132.98,118.35c.08-.63,0-1.11-.28-1.41-.06.61.06,1.06.28,1.41h0ZM127.96,120.34c-.56-2.08-.65-4.3-2.32-5.03-1.07-.47-2.93-.06-4.2-.03-6.91.16-15.44-1.24-22.91-.73-.24.23-.15.81-.36,1.06-.1-.53-.52.27-.66.41-1.17.83-1.17,2.71-1.75,4.36-.44,1.23-.91,2.37-1.08,3.52,1.67,1.2,3.73,2.51,5.91,3.63,2.12,1.09,4.47,2.24,6.8,2.91,2.21.63,4.1.4,6.67.21,1.42-.1,2.91-.29,4.11-.63,2.65-.73,5.37-1.07,7.49-2.02,1.45-.65,2.99-1.74,4.17-2.56-.88-1.53-1.38-3.24-1.88-5.12h0ZM87.06,116.67c.28.56.51,1.19,1.14,1.44.42-2.22.2-4.64-.33-6.58-.04,1.96-.29,3.7-.81,5.14h0ZM88.96,114.25c-.05.81.21,1.7.14,2.48-.12,1.29-.74,2.43.33,3.03.8-2.79.74-6.11.28-8.71-.06.95-.67,1.92-.75,3.21h0ZM136.62,118.89c.35-.15.56-.44.67-.84-1.35-1.17-.55-4.11-.89-5.85-1.02,2.13-.22,4.71.22,6.68h0ZM92.68,122.66c.34.34.64.72,1.27.79,1.31-3.68,2.64-7.93,2.77-12.51.03-.32.7-.76.03-.86-1.05,4.52-2.45,8.66-4.06,12.58h0ZM90.76,115.39c-.13.72-.05,1.66-.19,2.47-.27,1.61-.84,2.96.53,3.57,1.5-3.59,2.83-8.83,1.94-13.61-.02,2.46-1.84,5-2.29,7.57h0ZM130.73,124.84c.44-.02.46-.48.77-.62-.46-1.24-.36-3-1.39-3.71-.56-3.99-2.1-7.04-2.23-11.16-.27-.17-.19-.66-.51-.77-.05,6.52.95,12.05,3.36,16.26h0ZM134.61,121.41c.45-.69,1.33-1,1.46-1.78.29-1.77-1.85-4.31-.65-6.7-1.32-.6-.66-3.06-1.26-4.35-.79,4.39-1.33,9.11.45,12.83h0ZM132.28,123.38c.35-.3.83-.44,1-.94-1.39-3.86-1.92-9.32-2.25-13.96-.88,5.11-.36,11.13,1.25,14.9h0ZM99.32,113.62c4.56-.72,8.88.55,12.92.19.46-.04.85-.3,1.3-.28.42.02.87.34,1.28.37,2.24.14,4.37-.5,6.36-.34,1.9.16,3.93.09,5.57,1.04,0,.06.08.12.11,0-.01-.99-.23-2.79-.29-4.53-.06-1.86,0-4.15,1.32-4.16.42,3.37.98,6.59,1.96,9.43.17-2.03-.11-3.93.18-5.7.18-1.1.46-2.63,1.7-2.75.17,3.2.15,6.96.98,9.83.25-2.65.32-6.34.92-8.8.18-.7.55-1.82,1.46-1.78-.37,2.21.12,4,.45,6.04.56-1.67.53-4.55,2.4-4.45-.76,2.77-1.13,6.43-.53,9.78,1.98-2.04,2.92-5.19,3.4-8.83,8.8-1.22,14.92-.96,22.97-1.31.21-.3,3.72-.12,5.07-.16-.85-1.57-2.16-2.71-3.32-3.98.12-2.3,1.92-4.31,2.25-6.39-5.39.14-9.24-.15-14.45.51.07.5,1-.2.96.46-3.32.46-7.21.16-10.23,0-1.97-.1-4,.51-4.92-1.02-.4.25-.74.09-1.3.28-.18-.11-.16-.41-.53-.34-2.59-.51-4.64.04-6.78-.22-4.11-.48-8.12.15-12.49.04-1.27-.04-2.65.36-4,.41-3.15.11-5.72-.12-8.6-.6-3.64-.6-7.27-3.05-10.34-3.23-.9-.05-1.92.19-2.92.23-1.55.06-2.6.72-4.24,1.27-.9.3-2.09.34-2.62,1.1-.3-.14-.55.09-.97.08-.04.24-.25.91-.68,1.05-2.53-.36-5.24.03-8.08.07-.55,0-1.43-.24-2.25-.18-5.17.35-11.58.15-16.49.66.65,1.93,2.57,2.67,2.63,5.14-.52.36-.32,1.12-.48,1.6-.41,1.24-1.62,2.48-1.21,4.16,3.77.46,5.83-.89,9.27-.24-.34.1-.49.06-.87.29,1.32-.1,2.44.18,3.45-.32-.07.28.03.39.31.33.71.11,1.5-.04,2.26-.03,2.89.02,6.56.4,9.48-.02.48-.07,1.22-.72,1.63-.49.47.26.42,1.05.38,1.52.52,2.32,1.43,5.02,2.9,6.77.85-2.82.54-5.73.49-8.49.98-.03.58,1.17.7,1.74.2.94.8,1.96.99,2.72.99-1.72-.09-4.13.51-5.8,1.16.33.8,1.7.88,2.72.11,1.37.5,3.13.61,4.54,1.34-2.59,1.28-5.59,2.21-8.44.8.08.41.83.49,1.42.43,2.86.53,5.91.15,8.94-.31,2.49-1.93,4.43-1.61,6.52,1.7-3,2.69-6.91,3.56-10.55.4-1.65,1.08-3.45,1.24-4.91.07-.64-.39-1.4.27-1.82.91.43.45,1.72.46,2.6.02,2.1.16,4.39-.31,6.45.51-.16.85-.5,1.42-.6.33.21.29.46.63.45h0ZM104.08,85.99c-.05,1.54-.55,2.6-1.19,3.51-.47-.04-1.03.24-1.3.07-1.48-.99-.88-3-1.35-4.78-.92.39-.73,1.96-1.17,2.87-1.35-.43-.42-2.47-1.19-3.27-.42,1.22-.7,2.59-1.09,3.84-.15-.17-.55-.11-.86-.13-.17.34-.21.82-.57.95-.98-.78-.66-2.79-1.16-4.02-.56.88-.9,2-1.39,2.97-.89-.28-.94-1.35-1.22-2.19-.26.72-.54,1.43-.82,2.12-.94-.2-.43-1.75-1.12-2.19-1.59,1.97-3.62,4.42-4.43,7.29,1.4-.37,3.02-1.26,4.79-1.68,1.41-.33,3.32-.71,4.75-.49,1.26.19,2.25,1.15,3.62,1.19.78.81,1.87.81,3.09,1.17.42.13.76.54,1.16.68,2.73.99,5.47,1.4,8.79,1.36,3.18-.04,7.43-.14,10.13-.32,2.82-.2,5.77-.68,8.4.16,2.45-.18,6.19-.38,8.8.71-.39-1.79-1.08-3.3-1.89-4.69-.47.66-.56,1.93-1.23,1.36-.3-.25-.63-.56-.72-1.1-.16-.98-.42-1.44-.8-1.86-.07.85-.25,1.59-.61,2.13.04-.45-.24-.08-.32,0-.7-.51-.19-2.27-1.2-2.73-.02.87-.02,1.76-.5,2.14-.47.13-.22-.42-.63-.34-.32.29-.19,1.05-.68,1.16-.91-.53-1.55-1.33-1.75-2.53-.24.9-.35,1.93-1.04,2.34-.93-1.03-.48-2.74-1.61-3.6-.02,1.32-.06,2.61-.85,3.09-.18-.11-.21-.36-.42-.44-.23.77-1.07.22-1.32.93-1.59-1.04-1.12-3.91-1.54-5.75-.84,1.33-1.16,3.21-1.97,4.56-.51.16-.9.45-1.31.71-.71-.52.01-1.45.07-2.15.08-1-.2-1.98-.78-2.61-.62,1.23-.68,3.05-1.53,4.04-.99-.98-1.58-2.34-1.81-4.04-.76.67-.94,1.97-1.59,2.75-.26.26-.2-.17-.54-.13-.33.47-.16,1.46-.7,1.7-1.06-1.13-1.57-2.77-2.23-4.27-1.16.99-1.95,2.37-2.39,4.12-1.84-.84-.99-4.47-1.18-6.82-.69.51-.11,2.88-1.58,2.21h0ZM130.03,82.4c-4.13-3.65-8.39-6.74-15.26-7.48-2.35-.26-3.22-.38-5.06-.16-1.49.18-2.86.19-4,.52-4.03,1.18-9.28,4.06-12.27,6.61-1.12.96-2.75,1.81-2.48,3.37.43-.62.74-1.36,1.56-1.57.43.39-.3,1.78.25,2.27.71-1.1,1.15-2.49,2.46-2.94.19.58-.05,1.58.26,2.06.35-.05.5.09.75.13,1.06-1.14.96-3.5,2.5-4.12.3.59.79,1,1.03,1.65.43-.36,1.11-.45,1.85-.48.13.88-.22,1.25-.49,1.7-.1.55.21.71.18,1.19.63-.11.63.91,1.05.9.73-1.2.57-3.45.36-4.51.57-.15.67.95,1.59.8.12.38.21.78.17,1.3,1.25-.49.62-2.3,2.02-2.63.68.62-.07,2.58.55,3.25.98-.21.77.59.83.99,1.22-.44.61-2.83,2.24-2.83.31,1.06.5,2.24.64,3.46.38-.12.63-.37,1.09-.39.21.29.35.64.29,1.19,1.05-.21.61-2.02,1.68-2.21.01-.8.21-1.4.6-1.81.29-.08.61-.15.97.03-.32,2.12.23,3.47.59,5.19.76-1.26.85-2.99.25-4.51,1.36-.45,2.07,1.35,2.51,2.45,2.1.89,2.28-1.34,3.52-2.26,1.07,1.05.67,3.48,2.13,4.16,1.04-1.54-.53-5.35,1.15-5.56.94.98.58,3.67,1.46,4.89.93-.17,1.3-1.35,2.5-.89.22,1.14.18,2.17.32,3.35.75-.9.85-2.76.34-3.87,1.93-1.06,2.09,1.55,3.05,2.36.27-.38.23-1.09.58-1.38-1.39-1.3-2.38-3.01-3.74-4.21h0ZM109.44,72.91c.1.08.16.2.21.33,2.3.16,4.59-.34,6.68,0,3.21.52,6.04,1.98,8.62,3.18,1.67.78,3.41,2.03,4.85,3.28,1.96,1.7,4.2,3.88,6.05,6.22.49.61,1.18,1.12,1.56,1.67,1.01,1.44,1.49,3.22,2.55,4.5.27,1.05.74,1.98,1.41,2.95,3.93.29,9.71.11,14.52.35.96-.63,3.49-.19,5.39-.15,1.08.02,2.16-.13,2.7-.13.23,0,.62-.13.64.24.69-.63,1.11-.18,2.16-.04,1.06.15,2.32.03,2.78.52.9.95-.22,2.47-.64,3.32-.6,1.22-.71,2.26-1.39,3.08,1.08,1.95,2.34,3.72,3.71,5.39-.25.55-.54,1.06-.8,1.59-7.5.48-16.2.85-21.89,1.03-1.44.3-3.61.24-5.71.14-1.23,1.23-.88,3.01-1.43,4.48-.58,1.55-1.76,3.32-2.84,4.76-1.14,1.51-2.09,3.18-3.26,4.31-2.09,2.01-5.06,3.92-7.82,5.46-2.15,1.2-4.74,1.54-7.29,2.25-2.41.67-7.33,1.57-10.37,1.07-.86-.14-1.94-.49-2.99-.74-2.91-.7-5.67-1.92-8.29-3.28-1.65-.85-3.35-1.35-4.55-2.51-6.2-2.88-8.94-9-11.57-15.22-2.05-.44-4.48-.07-6.02-.52-5.41.1-12.8.59-17.46.42-1.2-.05-3.81.08-4.06-.99-.1-.45.36-1.08.59-1.7.25-.65.32-1.31.49-1.82.46-1.41,1.83-2.83,1.64-4.36-.1-.81-1.19-1.57-1.76-2.32-.85-1.13-1.78-2.14-1.72-3.61,8.74-.95,18.22-.51,27.59-.85.96-.83,1.09-2.54,1.63-3.82,1.88-3.04,3.82-6.01,6.19-8.52,5.72-4.11,11.48-8.16,19.69-9.6.1-.08.07-.29.23-.32h0Z"/>
    <path class="cls-4" d="M163.14,101.11c-.92.95-2.84,1.29-4.14,1.48-.22-.06-.26.2-.11.22-.2.31-.32-.32-.75-.13-2.04.6-4.64.88-7.25,1.06-.66.05-1.33.36-1.95.37-1.93.03-4.25-.89-6.53-1.18-1.81-.23-3.49-.36-5.04-.59-1.04-.15-2.72.24-2.87-1.17,2.77.03,5.08-.56,8.4-.16,1.54.18,2.74.62,4.07.56,1.53-.07,2.95-.24,4.32-.4,2.39-.27,4.71-1.34,7.36-1.27,1.28.03,2.53.2,3.76.22.61-.01.19.94.72.99h0Z"/>
    <path class="cls-8" d="M100.31,109.13c.03.48.08.95.15,1.39-.33.17-.88.02-1.17-.07.26-.52.5-1.07,1.02-1.32h0Z"/>
    <path class="cls-2" d="M108.65,111.54c.22.36.41.75.44,1.32-.24-.09-.06.24-.29.15.16-.5-.25-.81-.14-1.46h0Z"/>
    <path class="cls-8" d="M109.16,113.08c.52.67.87,1.52,1.17,2.41-.15.1-.22-.03-.44.08-.12-.87-1.03-1.68-.73-2.49h0Z"/>
    <path class="cls-2" d="M109.89,115.57c.22-.11.29.02.44-.07-.3-.89-.65-1.74-1.17-2.41-.3.81.61,1.62.73,2.49h0ZM108.79,113.01c.24.09.06-.24.3-.15-.02-.56-.21-.96-.44-1.32-.1.65.3.97.14,1.46h0ZM109.45,110.52c-.12.12-.06.43-.07.66.47.08.55.12,1.1.07v-.66c-.25,0-.62-.23-1.02-.07h0ZM99.28,110.45c.29.1.84.25,1.17.07-.07-.44-.11-.91-.15-1.39-.53.25-.77.79-1.02,1.32h0ZM100.96,104.37c-.44.54-.25,1.69-.07,2.93.24,1.66.53,3.57.44,5.34-.08.19-.39.15-.44.37-.31,1.45-1.34,2.56-1.61,3.8.32,0,.66.02.88-.07.6-.89,1.05-1.92,1.53-2.93-.09-.16.4-.13.49-.47,1.37-.39,3.03-1.21,4.49-.92-.12,1.4-1.43,2.61-1.61,3.95,1.25.15,1.09-1.1,1.68-1.61.2-1.09.9-1.91.58-3.29.74-1.26,2.43-1.57,3.44-2.56-.04-.37-.14-.69-.15-1.1-1.31.39-1.87,1.93-2.92,2.34-.36-1.19-.33-3.19-.51-4.53-.06-.42-.11-1.16-.73-1.1-.08,1.8.09,3.3.22,5.19-.54.21-1.08.43-1.68.59-.92-1.35-.72-3.94-.88-5.85-.17-.04-.33-.11-.59-.07-.15,2.02.22,4.05.07,5.85-.56.12-1.7.51-2.05-.14-.28-.53-.2-2.41-.22-3.44-.02-.98.12-1.77-.15-2.27h-.22ZM105.35,109.42c.55-.04.27-.65.29-1.02.07-1.1.04-2.5-.29-3.58.44-.25.25-.74.51-1.1,2.51-.41,1.68,3.01,2.27,4.76.27-.37.71-.58,1.17-.8.33-.16.92-.57,1.32-.52,1.06.15,1.79,2.38.51,3,.03.55.14,1.03.22,1.54-.42.32-1.03.08-1.61.29.37,1.33,1.07,2.35,1.32,3.8-.62.13-.87.66-1.53.37-.39-1.05-.87-2.01-1.39-2.93-.45,1.28-1.12,2.34-1.53,3.66-.51.33-1.9.55-2.56,0,.22-1.42.97-2.29,1.32-3.59-.96-.22-1.86.3-2.78.37-.68,1.13-1.25,2.35-1.83,3.59-.61.11-1.61.33-2.12-.15.3-1.7,1.57-3.06,1.76-5.12-.48-.17-.99.24-1.61.07-.88-1.6.55-2.99,1.31-3.88-.08-1.36-.06-2.59-.37-3.58.3-.73,1.12-.83,1.97-.73.4,1.56.19,4.03.66,5.63.26-.04.18.26.44.22.07-1.6.09-4.02,0-5.78.55-.06,1.14-.3,1.68-.15.09.23.48.45.51.8.15,1.49.25,3.37.37,4.83h0Z"/>
    <path class="cls-8" d="M101.27,104.12c.27.5.39,1.64.41,2.61.01,1.03.04,2.94.48,3.35.28.25.81-.13,1.37-.25-.25-1.75-.48-3.43-.33-5.45.25-.03,1.17-.05,1.34,0,.16,1.91.41,4.11.56,5.47.61-.15.7-.02,1.24-.23-.13-1.89-.29-3.63-.2-5.43.62-.06,1.13.57,1.19.99.18,1.34,0,3.78.37,4.97,1.05-.41,1.61-1.95,2.92-2.34.01.4.19,1.1.23,1.47-1.01.99-2.71,1.15-3.45,2.41.32,1.38-.46,1.97-.66,3.07-.59.51-.44,1.76-1.68,1.61.18-1.34,1.49-2.56,1.61-3.95-1.46-.29-3.11.53-4.49.92-.09.34-.57.31-.49.47-.48,1.01-.94,2.03-1.53,2.93-.22.1-.56.08-.88.07.27-1.24,1.02-2.19,1.33-3.64.06-.21-.03-1.23.05-1.42.09-1.77.09-1.38-.15-3.04-.18-1.24-.66-3.51-.23-4.06.07,0,.92-.53.99-.53h0Z"/>
    <path class="cls-8" d="M110.47,110.59v.66c-.54.05-.62,0-1.09-.07.01-.23-.05-.54.07-.66.41-.15.77.07,1.02.07h0Z"/>
    <path class="cls-8" d="M114.3,109.13c.03.48.07.95.14,1.39-.32.17-.88.02-1.17-.07.26-.52.5-1.07,1.03-1.32h0Z"/>
    <path class="cls-2" d="M122.63,111.54c.23.36.42.75.44,1.32-.24-.09-.06.24-.29.15.16-.5-.25-.81-.15-1.46h0Z"/>
    <path class="cls-8" d="M123.15,113.08c.52.67.87,1.52,1.17,2.41-.15.1-.22-.03-.44.08-.13-.87-1.03-1.68-.73-2.49h0Z"/>
    <path class="cls-2" d="M123.88,115.57c.22-.11.29.02.44-.07-.3-.89-.65-1.74-1.17-2.41-.3.81.61,1.62.73,2.49h0ZM122.78,113.01c.23.09.05-.24.29-.15-.02-.56-.21-.96-.44-1.32-.1.65.31.97.15,1.46h0ZM123.44,110.52c-.12.12-.06.43-.07.66.48.08.55.12,1.1.07v-.66c-.25,0-.62-.23-1.02-.07h0ZM113.27,110.45c.29.1.84.25,1.17.07-.07-.44-.11-.91-.14-1.39-.53.25-.77.79-1.02,1.32h0ZM114.95,104.37c-.43.54-.25,1.69-.07,2.93.24,1.66.53,3.57.44,5.34-.08.19-.38.15-.44.37-.31,1.45-1.34,2.56-1.61,3.8.32,0,.66.02.88-.07.6-.89,1.05-1.92,1.54-2.93-.08-.16.4-.13.49-.47,1.37-.39,3.03-1.21,4.49-.92-.12,1.4-1.43,2.61-1.61,3.95,1.25.15,1.09-1.1,1.68-1.61.19-1.09.9-1.91.58-3.29.74-1.26,2.43-1.57,3.44-2.56-.05-.37-.14-.69-.15-1.1-1.31.39-1.87,1.93-2.93,2.34-.36-1.19-.33-3.19-.51-4.53-.06-.42-.11-1.16-.73-1.1-.08,1.8.09,3.3.22,5.19-.54.21-1.08.43-1.68.59-.92-1.35-.73-3.94-.88-5.85-.18-.04-.34-.11-.59-.07-.15,2.02.22,4.05.07,5.85-.56.12-1.7.51-2.05-.14-.28-.53-.2-2.41-.22-3.44-.02-.98.12-1.77-.15-2.27h-.22ZM119.34,109.42c.55-.04.27-.65.29-1.02.07-1.1.04-2.5-.29-3.58.44-.25.25-.74.51-1.1,2.51-.41,1.68,3.01,2.27,4.76.27-.37.71-.58,1.17-.8.33-.16.92-.57,1.32-.52,1.06.15,1.79,2.38.51,3,.03.55.15,1.03.22,1.54-.42.32-1.03.08-1.61.29.38,1.33,1.07,2.35,1.32,3.8-.62.13-.87.66-1.54.37-.39-1.05-.87-2.01-1.39-2.93-.45,1.28-1.12,2.34-1.54,3.66-.51.33-1.89.55-2.56,0,.22-1.42.97-2.29,1.32-3.59-.96-.22-1.86.3-2.78.37-.68,1.13-1.25,2.35-1.83,3.59-.61.11-1.61.33-2.12-.15.3-1.7,1.57-3.06,1.76-5.12-.48-.17-.99.24-1.61.07-.89-1.6.55-2.99,1.31-3.88-.08-1.36-.06-2.59-.36-3.58.3-.73,1.12-.83,1.97-.73.4,1.56.19,4.03.66,5.63.26-.04.18.26.44.22.07-1.6.09-4.02,0-5.78.55-.06,1.14-.3,1.68-.15.09.23.48.45.51.8.15,1.49.25,3.37.37,4.83h0Z"/>
    <path class="cls-8" d="M115.26,104.12c.27.5.39,1.64.41,2.61.02,1.03.03,2.94.48,3.35.28.25.81-.13,1.37-.25-.25-1.75-.48-3.43-.33-5.45.25-.03,1.17-.05,1.34,0,.15,1.91.41,4.11.56,5.47.6-.15.7-.02,1.25-.23-.13-1.89-.29-3.63-.2-5.43.62-.06,1.13.57,1.19.99.18,1.34,0,3.78.37,4.97,1.06-.41,1.61-1.95,2.93-2.34.01.4.18,1.1.23,1.47-1.01.99-2.71,1.15-3.45,2.41.32,1.38-.47,1.97-.66,3.07-.59.51-.44,1.76-1.68,1.61.18-1.34,1.49-2.56,1.61-3.95-1.46-.29-3.11.53-4.49.92-.09.34-.57.31-.49.47-.48,1.01-.94,2.03-1.53,2.93-.22.1-.56.08-.88.07.27-1.24,1.03-2.19,1.33-3.64.06-.21-.03-1.23.05-1.42.09-1.77.08-1.38-.15-3.04-.18-1.24-.66-3.51-.23-4.06.07,0,.91-.53.99-.53h0Z"/>
    <path class="cls-8" d="M124.46,110.59v.66c-.54.05-.62,0-1.1-.07.01-.23-.05-.54.07-.66.41-.15.77.07,1.02.07h0Z"/>
    <path class="cls-8" d="M107.96,112.58l-1.88,3.9-1.39.28s1.57-3.55,1.57-3.8c0,0-.61-.33-1.06-.3-.46.02-2.26.35-2.26.35l1.8-1.11,3.4-1.09s.2.03.23.35c.02.33.4.46.51.53.1.08.58.76.61.84.03.08.25.78.28,1.01.02.22.61,1.6.63,1.72.03.13-.25.41-.25.41l-.2.02s-.2-.25-.33-.5c-.13-.25-.94-1.85-1.16-2.08-.23-.23-.48-.53-.48-.53h0Z"/>
    <path class="cls-8" d="M124.69,115.42s-.56-1.34-.86-1.98c-.3-.63-.43-1.5-.43-1.5l-.3-.46-.28-.13-.76.48,1.72,4,.91-.43h0Z"/>
    <path class="cls-4" d="M129.19,130.76c.3.53.4.87.71,1.17.84-.51,1.52-.76,2.09-1.17,2.42,2.28,4.36,6.31,6.46,9.14.23-.04.67-.11.78-.38-.06-1.01-.95-2.12-1.78-3.36-1.02-1.54-2.23-3.37-3.25-4.95-.3-.46-.76-.79-.46-1.32.44-.09.57-.26,1.03-.54-.11-.5-.58-.98-.91-1.22-1.72.94-3.38,1.62-4.67,2.65h0ZM134.26,127.52c.61.44,1,1.29,1.14,1.88-.25.41-.52.62-1.04.81,1.28,2.84,4.03,6,5.77,9.11-.42.66-1.51,1.59-2.25,1.18-.94-.52-3-4.41-4.06-6.15-.56-.92-1.13-2.07-1.75-2.75-.73.21-1.52.73-2.27,1.02-.61-.59-1.41-1.5-1.41-2.34.53-.71,1.96-.94,3.09-1.61,1.01-.6,1.79-1.3,2.78-1.15h0Z"/>
    <path class="cls-4" d="M133.86,128.12c.33.24.8.72.91,1.22-.45.27-.59.45-1.03.54-.3.53.16.85.46,1.32,1.02,1.58,2.23,3.41,3.25,4.95.83,1.25,1.72,2.35,1.78,3.36-.11.28-.55.34-.78.38-2.1-2.83-4.04-6.85-6.46-9.14-.57.41-1.25.66-2.09,1.17-.31-.29-.41-.63-.71-1.17,1.29-1.02,2.95-1.71,4.67-2.65h0Z"/>
    <path class="cls-4" d="M90.72,133.34c.58-.42,1.72-2.67,1.82-3.19.26-1.28-1.44-2.71-2.29-3.34-.19-.14-.44-.32-.72-.34-2.34,3.45-4.35,6.74-6.5,10.28.42.36.89.69,1.23.86,1.14-1.36,1.89-3.08,3.12-3.81.99.49.52,1.41.43,2.13-.15,1.23-.31,2.7-.62,3.87.29.21.57.4.83.42.4-1.86.7-3.7,1.07-5.54-.11-.34-.14-.7.22-1.12.56-.02.99.1,1.42-.21h0ZM89.71,133.99c-.39,1.81-.68,3.54-.99,5.44-.09.53-.1,1.15-.47,1.59-.65-.34-.99-.49-1.54-.99.19-1.79.96-3.68.72-5.39-1.26.46-2.21,2.58-3.21,3.82-.37-.13-.53-.56-.86-.83-.34-.28-.73-.28-.99-.53.3-.96,1.06-1.89,1.65-2.83,1.58-2.51,3.46-5.51,5.36-8.53,1.59.65,3.23,2.38,3.68,3.75.38,1.61-1.48,4.81-3.37,4.5h0Z"/>
    <path class="cls-4" d="M90.68,131.56c.95-1.1.66-2.9-.44-3.49-.36,1.13-1.56,2.51-1.9,3.77.45.86,1.81.35,2.34-.28h0ZM89.3,133.55c-.36.42-.33.78-.22,1.12-.37,1.85-.67,3.69-1.07,5.54-.25-.02-.54-.2-.83-.41.31-1.16.47-2.63.62-3.87.09-.73.56-1.65-.43-2.13-1.23.73-1.99,2.44-3.12,3.81-.35-.17-.81-.5-1.23-.86,2.15-3.54,4.16-6.83,6.5-10.28.28.02.52.2.72.34.85.63,2.55,2.05,2.29,3.34-.1.52-1.24,2.78-1.82,3.19-.43.31-.86.19-1.42.21h0Z"/>
    <path class="cls-4" d="M127.47,137.48c.05-.71-.96-3.03-1.29-3.43-.83-1.02-3.01-.62-4.04-.37-.23.06-.53.14-.72.34,1.17,4,2.41,7.65,3.77,11.57.55-.09,1.09-.24,1.45-.4-.33-1.74-1.17-3.42-.94-4.83,1.01-.46,1.41.5,1.92,1.03.85.91,1.88,1.97,2.58,2.95.35-.09.67-.19.85-.37-1.18-1.48-2.39-2.9-3.59-4.36-.33-.13-.62-.33-.72-.89.34-.44.71-.69.74-1.22h0ZM127.33,138.68c1.14,1.46,2.29,2.77,3.55,4.23.35.4.82.81.92,1.37-.68.28-1.01.45-1.74.55-1.26-1.29-2.22-3.08-3.69-3.99-.45,1.27.58,3.35.89,4.91-.33.21-.77.04-1.18.13-.44.09-.68.38-1.04.42-.55-.85-.78-2.02-1.13-3.08-.92-2.82-2.03-6.18-3.15-9.57,1.51-.8,3.9-.97,5.24-.44,1.48.73,2.76,4.2,1.32,5.47h0Z"/>
    <path class="cls-1" d="M126.08,136.38c-.25-1.43-1.81-2.36-2.97-1.88.64.99.94,2.8,1.69,3.87.95.2,1.42-1.17,1.28-1.99h0ZM126.73,138.71c.1.55.39.75.72.89,1.19,1.46,2.41,2.87,3.59,4.36-.17.18-.5.28-.85.37-.7-.98-1.73-2.04-2.58-2.94-.5-.53-.91-1.48-1.92-1.03-.23,1.41.61,3.09.94,4.83-.35.16-.9.31-1.45.4-1.35-3.92-2.6-7.57-3.77-11.57.19-.2.49-.28.72-.33,1.03-.25,3.21-.65,4.04.37.33.41,1.35,2.72,1.3,3.44-.04.53-.4.78-.74,1.23h0Z"/>
  </g>
  <text class="cls-13" transform="translate(22.38 107.95) scale(.79 1)"><tspan x="0" y="0">1</tspan></text>
</svg>