<?xml version="1.0" encoding="UTF-8"?>
<svg id="Layer_1" data-name="Layer 1" xmlns="http://www.w3.org/2000/svg" viewBox="0 0 180 200">
  <defs>
    <style>
      .cls-1, .cls-2, .cls-3, .cls-4, .cls-5, .cls-6 {
        fill-rule: evenodd;
      }

      .cls-1, .cls-7 {
        fill: #fff;
      }

      .cls-2 {
        fill: #a2b979;
      }

      .cls-3 {
        fill: #231f20;
      }

      .cls-4 {
        fill: #3b3b3b;
      }

      .cls-5 {
        fill: #005c7b;
      }

      .cls-6 {
        fill: #00a14b;
      }

      .cls-7 {
        font-family: AmericanTypewriter-Bold, 'American Typewriter';
        font-size: 23.14px;
        font-weight: 700;
        letter-spacing: .02em;
      }
    </style>
  </defs>
  <polygon class="cls-6" points="29.16 73.85 6.21 107.43 7.35 108.88 51.13 107.36 35.41 78.48 30.73 73.01 29.16 73.85 29.16 73.85"/>
  <path class="cls-3" d="M27.32,78.2c-.83.36-.24-.83-1.07-.47-.39.13-.18.83-1,.58-.32,1.37-.64,2.72-1.93,3.22-.31,1.44.73,1.38,1.15,2.03-1.81,1.32-1.82,5.56-5.01,4.16.29.77,1.25.81,1.39,1.76-.69.35-1.2.49-1.53.59,1.11.9-.29.68-.72,1.34-1.11,1.72-1.71,4.44-3.66,4.87-.07,1.26-.53,2.17-1.71,2.43.66,1.35-.38.19-.74.82,1.67.32-1.07,1.14.09,1.82-1.85.39-1.4,2.87-2.68,3.78-.17-.45.24-1.55-.33-1.55,0,.41.08.9-.49.8-.27.86.85.16.57,1.01-1.08.27-.88,1.69-1.44,2.42,2.71-.6,7.11-.64,10.14-.5.04-.21-.02-.51.23-.54,10.08.92,18.12-.65,30.43-.98-.56-2.73-2.98-4.05-3.92-5.54-.31-2.31-2.5-2.54-2.59-5.08-1.17.17-1-.93-.86-1.52-1.04.02-1.97-1.66-1.14-2.03-.81.44-.87-.15-1.58-.44-1.88-5.68-6.37-9.68-8.52-14.17.01.26-.44.35-.52.02.32-.04.61-.11.5-.54-.73.25-.69-.33-1.32-.19-1.26,1.75-1.82,4.14-3.92,5.14.55.89-.19,1.26-.69,1.86-.32-1.03-.06-2.03.38-2.89.43-.02.18.71.56.75.06-1.12.95-3.24,1.71-2.17-.03-.36.09-.58.22-.79h0ZM42.51,90.21c1.54.22,1.13,2.58,2.74,2.73.04,1.68.91,2.47,1.97,3.03-.12,1.78.89,2.31,1.96,2.77.12.44-.18.5-.49.54.37.36,1.23.59.58,1.28.2-.15.41-.3.76-.3.12.52-.01.82-.48.81.52.66,2.01,2.08,1.17,2.55.27.44.84.53,1.58.44.15,2.13,1.31,3.12,1.31,5.41-.25-.15-.98-.56-.76.3-.47-.49-1.81-.01-1.87-.95-.57,1.02-1.78-.68-3.09.68-.79.13-.58-.82-.85-1.26-.74.26.37.64.07,1.3-.2-.17-.88-1.05-.78.04-3.63-.25-9.02-.27-12.24.08-.01-.26-.03-.51-.04-.78-1.17.69-2.55.83-3.64.18-.7,1.02-5.54,1.05-7.02.35-2.86,1.64-9.21.1-10.59,1.82-2.24-1.26-6.1.17-8.9-.86-.26-.82.17-1,.46-1.33-1.05-.04-.44-.19-.61-1.79,1.21-.39,1.71-1.43,1.68-2.95,1.21.19.52-1.34,1.77-1.13-.23-.79-.21-.49-.07-1.3,1.77.2.7-2.18,2.23-2.19-.18-.26-.61-.24-.56-.76,1.05.29.49-.88,1.53-.59-.02-.43-.04-.87-.06-1.3.22-.21.58-.31,1.02-.31,1.53-3.92,4.38-6.63,6-10.46.9-.02,1.18-.58.96-1.61.76.03.76-.62,1.53-.6.63-3.48,3.95-4.54,4.55-8.05,2.85-.64,2.17-4.48,4.95-5.19-.18-.26-.61-.24-.56-.75.86-.06,1.27-.51,2.33-.38,1.16.83-.3,1.34,1.36,1.23-1.07,1.17.34,4.61,1.51,4.09.38.07.07,1.97,1.39,1.76-.14.8.32.93.35,1.54,3.34,2.79,3.98,8.57,7.33,11.36.12.44-.18.5-.5.55h0Z"/>
  <text class="cls-7" transform="translate(22.66 103.09) scale(.79 1)"><tspan x="0" y="0">2</tspan></text>
  <g>
    <path class="cls-1" d="M55.94,71.49s.15,10.52,0,13.26c-.15,2.74-1.07,7.93-.92,12.35.15,4.42.76,10.82.46,14.02-.3,3.2-.61,3.2-.46,7.32.15,4.12,0,5.49.92,7.32.91,1.83,1.98,5.79,3.35,6.4,1.37.61-2.44-.46,4.88.46,7.32.91,43.6.46,46.19.46s17.38-.15,19.51.3c2.13.46,13.26.92,17.83.92s22.41,0,21.65.15c-2.06.41,3.99-1.79,3.51-7.93-.46-5.79.3-5.33.3-8.08s-.76-7.32-.61-11.43c.15-4.12-.15-14.33-.46-18.14-.3-3.81-.46-7.16-.61-9.45-.15-2.29-.91-5.03-.76-6.1.15-1.07,1.37-6.25-6.56-6.56-7.93-.3-16.92-.76-17.99-.76s-12.04-.46-16.62-.46-20.73.92-24.39.92-15.7-.3-20.58-.15c-4.88.15-10.21,0-12.35.15-2.13.15-10.21.61-10.21.61,0,0-6.4-1.22-6.1,4.42Z"/>
    <g>
      <path class="cls-5" d="M131.12,116.7c-1.78,1.24-3.73,1.74-5.78,1.79-1.27.03-2.53-.26-3.64-.94-1.06-.64-1.76-1.59-2.04-2.82-.28-1.23-.34-2.45.01-3.69.31-1.05.89-1.91,1.8-2.49.72-.45,1.49-.83,2.28-1.15.86-.34,1.8-.3,2.67-.12,1.07.23,2.11.59,3.13.99.59.24,1.1.68,1.7,1.07.02-.28.03-.56.05-.84.01-.19-.02-.41.05-.58.07-.15.26-.34.39-.34.13,0,.3.21.37.37.06.14.03.34.02.5-.05,1-.06,2,.18,2.98.19.78.16,1.56-.02,2.32-.29,1.2-.25,2.42-.29,3.64-.04,1.17-.1,2.34-.17,3.5-.01.18-.1.37-.21.51-.39.5-.84.94-1.42,1.24-.3.16-.59.34-.87.55-1.22.9-2.61,1.14-4.03.78-1.2-.3-2.35-.79-3.5-1.26-.75-.3-1.27-.89-1.61-1.63-.11-.24-.19-.5-.24-.76-.08-.45.03-.76.3-.8.44-.08.51.27.62.57.62,1.7,1.99,2.4,3.65,2.62.81.11,1.66.07,2.48,0,1.18-.09,2.3-.41,3.19-1.28.54-.53.9-1.16.92-1.93.02-.92,0-1.83,0-2.82ZM125.34,108.04c-1.54-.03-2.76.69-3.89,1.62-.54.44-.85,1.05-1.02,1.73-.25.99-.23,1.97-.02,2.96.28,1.38,1.04,2.35,2.36,2.82,1.15.41,2.32.67,3.57.45,1.26-.22,2.48-.49,3.6-1.12.84-.48,1.3-1.22,1.33-2.2.02-.63-.03-1.27.06-1.9.2-1.37-.5-2.35-1.51-3.01-1.33-.87-2.87-1.3-4.48-1.36Z"/>
      <path class="cls-4" d="M81.04,96.18c-.15,1.17.18,2.17.93,3.04,1.08,1.25,2.45,1.89,4.11,1.9.1,0,.2,0,.29.02,1.39.28,2.51-.34,3.6-1.07.49-.33.78-.78.9-1.37.04-.21.11-.45.25-.59.11-.11.36-.15.51-.1.11.03.24.27.22.4-.09.81-.32,1.6-.99,2.13-1.27,1-2.63,1.77-4.35,1.54-.72-.1-1.46-.13-2.16-.31-1.98-.5-3.32-1.75-4.06-3.65-.26-.66-.27-1.34-.22-2.02.26-3.32,2.02-5.32,4.96-6.12,1.24-.34,2.47-.05,3.58.63.78.47,1.45,1.07,1.96,1.83.61.92,1.1,1.9,1.37,2.97.23.9-.06,1.23-.98,1.19-1-.05-2-.05-2.99-.1-1.58-.09-3.16-.23-4.74-.32-.7-.04-1.41,0-2.2,0ZM81.19,95.22c3.28.15,6.52.3,9.86.45-.51-1.58-1.15-2.95-2.43-3.92-.69-.52-1.45-.92-2.33-.92-1.97-.01-3.43.93-4.47,2.55-.34.53-.57,1.12-.63,1.84Z"/>
      <path class="cls-5" d="M137.17,113.67c-.11,1.71.35,3.09,1.77,4.09,1.17.82,2.49,1.07,3.87,1.11.32.01.63-.02.95-.03,1.82-.04,3.15-.87,4.03-2.46.09-.17.17-.38.31-.49.13-.1.36-.18.51-.13.21.06.25.28.15.49-.64,1.3-1.47,2.43-2.88,2.96-1.45.55-2.95.54-4.47.32-1.08-.16-2.07-.52-2.96-1.16-1.2-.87-1.91-2.01-2.03-3.48-.06-.8-.05-1.61.02-2.41.11-1.3.69-2.37,1.7-3.2.81-.67,1.73-1.19,2.7-1.58,1.2-.49,2.45-.47,3.66-.11,1.52.46,2.9,1.22,3.81,2.56.59.86,1.04,1.81,1.5,2.75.24.49,0,.81-.55.81-1.24.01-2.48,0-3.73,0-1.54-.01-3.07-.03-4.61-.04-1.22,0-2.43,0-3.75,0ZM137.23,112.7c1.01.21,10.96.3,11.63.09-.38-.69-.69-1.41-1.13-2.03-.94-1.33-2.29-2.09-3.85-2.45-.86-.2-1.75-.2-2.59.11-.99.37-1.9.88-2.7,1.56-.83.71-1.31,1.6-1.35,2.71Z"/>
      <path class="cls-5" d="M114.63,116.48c-.23.2-.42.34-.59.5-.87.84-1.96,1.21-3.11,1.32-1.53.14-3.01-.21-4.39-.88-1.78-.87-2.09-2.87-.95-4.39.39-.52.95-.78,1.58-.8.83-.02,1.66-.02,2.48.04,1.23.09,2.44.05,3.63-.22,1.16-.27,1.33-.51,1.14-1.68-.14-.84-.36-1.67-.97-2.33-.56-.6-1.22-1-2.05-.95-.95.06-1.89.14-2.83.29-1.08.18-1.86.78-2.28,1.84-.18.46-.27,1-.73,1.31-.3-.07-.34-.26-.27-.5.19-.58.35-1.17.58-1.73.38-.95,1.22-1.37,2.12-1.64,1.23-.37,2.5-.41,3.77-.36,1.32.06,2.63,1.23,3.11,2.55.48,1.29.47,2.63.55,3.95.06.92.01,1.85.04,2.78.02.53.04,1.07.14,1.6.12.61.54.89,1.17.86.29-.01.61-.12.72.28.07.27-.18.45-.66.51-.85.11-1.66-.38-1.95-1.21-.12-.34-.17-.69-.28-1.13ZM114.61,112.53c-1.74.69-3.43.74-5.15.6-.7-.06-1.41-.04-2.12-.03-.62,0-1.05.31-1.33.87-.58,1.17-.08,2.4,1.22,2.89.93.35,1.88.64,2.9.68,1.94.08,3.36-.8,4.44-2.32.08-.11.11-.27.11-.41-.02-.73-.05-1.46-.08-2.26Z"/>
      <path class="cls-5" d="M158.91,120.63c-1.18.05-2.29-.25-3.38-.6-1.52-.49-2.08-1.88-2.13-3.25-.01-.27.1-.5.4-.51.3-.02.44.19.46.46.08.96.65,1.66,1.27,2.31.14.15.37.22.57.29,1.39.49,2.83.45,4.27.3.53-.05,1.06-.14,1.59-.24.71-.14,1.28-.52,1.83-1.01.89-.79.71-2.34-.42-2.97-1.32-.74-2.69-1.2-4.21-1.32-1.13-.09-2.25-.37-3.38-.56-.12-.02-.24-.06-.35-.1-1.44-.51-1.71-1.21-1.37-2.67.17-.71.61-1.26,1.21-1.69,1.16-.83,2.44-1.19,3.86-1.03,1.6.18,3.07.76,4.41,1.64.66.44,1.09,1.04,1.17,1.85.03.27.07.55-.25.68-.23.09-.51-.11-.66-.45-.03-.07-.06-.14-.06-.21-.02-.67-.45-1.06-.98-1.35-1.39-.78-2.84-1.39-4.49-1.35-1.08.03-1.98.47-2.8,1.12-.22.17-.39.44-.52.7-.53,1.11-.29,1.74.9,2.01,1.33.3,2.68.54,4.03.67,1.51.14,2.82.74,4.08,1.49,1.51.89,1.54,3.02.57,4.01-.73.74-1.54,1.27-2.57,1.43-1.01.15-2.03.26-3.04.38Z"/>
      <path class="cls-4" d="M68.33,92.41c.67-.77,1.37-1.34,2.2-1.8,1.18-.65,2.43-.61,3.7-.43,2.15.3,3.58,2.12,3.82,3.96.23,1.78.22,3.55.25,5.33,0,.54,0,1.07-.01,1.61,0,.19,0,.41-.11.56-.09.13-.3.26-.45.26-.11,0-.28-.18-.33-.32-.06-.15-.03-.33-.04-.5-.01-1.49-.01-2.97-.05-4.46-.02-.68-.11-1.36-.16-2.04-.18-2.23-1.64-3.46-3.87-3.58-.86-.05-1.69.08-2.47.5-1.66.89-2.41,2.31-2.4,4.13,0,1.66.13,3.31.19,4.97,0,.26-.01.54-.07.79-.03.11-.2.24-.3.24-.1,0-.28-.13-.31-.23-.08-.25-.12-.52-.13-.79-.1-3.95-.2-7.89-.3-11.84-.01-.59-.02-1.17-.02-1.75,0-.17,0-.34.04-.51.02-.07.13-.16.2-.17.08,0,.21.06.23.13.07.18.12.37.13.56.06,1.22.12,2.43.17,3.65.03.58.06,1.16.09,1.74Z"/>
      <path class="cls-5" d="M79.08,106.11c.79-.01,1.46.24,2.14.64,1.57.91,2.78,2.1,3.55,3.76.92,1.99.58,4.37-1.41,5.88-2.5,1.9-5,1.68-7.52.31-.92-.5-1.67-1.2-2.19-2.1-1.14-1.97-.93-3.89.37-5.69.92-1.28,2.13-2.21,3.69-2.59.45-.11.91-.14,1.36-.21ZM80.1,116.93c1.48-.19,2.91-.97,3.88-2.48.41-.63.53-1.37.41-2.11-.26-1.64-1.06-2.97-2.38-3.97-.6-.45-1.26-.83-1.91-1.21-.16-.09-.37-.11-.56-.12-2.19-.12-3.81.88-4.99,2.63-1.23,1.82-1.01,3.8.5,5.33,1.3,1.32,2.92,1.89,5.03,1.94Z"/>
      <path class="cls-5" d="M70.11,109.68c-.17-.24-.31-.46-.47-.66-.22-.26-.41-.58-.69-.74-1.09-.64-2.23-1.18-3.49-1.45-1.68-.36-4.06,1.06-4.54,2.72-.19.65-.38,1.33-.4,2-.05,1.59.59,2.95,1.67,4.08.53.56,1.28.8,2.05.87,1.32.13,2.62.11,3.87-.46.91-.42,1.55-1.08,1.98-1.97.14-.29.24-.63.66-.51.28.08.34.44.12.9-.75,1.61-2.07,2.51-3.76,2.83-.85.16-1.75.19-2.62.15-1.91-.09-3.28-1.02-4.13-2.78-.83-1.71-.89-3.42-.3-5.18.37-1.1,1.04-1.95,2-2.62,1.67-1.16,3.4-1.19,5.2-.41.49.21.98.44,1.47.66.76.35,1.34.88,1.65,1.68.11.3.21.62-.26.91Z"/>
      <path class="cls-5" d="M98.64,107.75c0,1.38-.03,2.64,0,3.9.04,1.24.15,2.48.27,3.72.04.41.2.8.27,1.21.1.63.49.93,1.08,1,.29.04.58.03.87.05.19.01.39,0,.58.03.26.05.59.08.55.45-.04.29-.32.35-.57.34-.63-.04-1.26-.08-1.89-.16-.73-.1-1.14-.56-1.36-1.26-.32-1.03-.52-2.08-.55-3.16-.06-1.88-.1-3.75-.15-5.63,0-.12-.02-.24-.04-.46-.71-.01-1.41-.02-2.1-.05-.24-.01-.48-.08-.79-.14.24-.48.59-.48.91-.51.65-.05,1.31-.09,1.97-.14,0-.72,0-1.37,0-2.03,0-.41-.05-.83-.04-1.24,0-.27.06-.58.42-.57.31.01.37.3.38.54.06.9.11,1.8.16,2.7,0,.14.03.29.05.53.7.01,1.4.03,2.1.04.32,0,.63,0,.95,0,.24.01.43.14.43.4,0,.28-.21.37-.44.38-.71.02-1.41.03-2.12.04-.29,0-.58,0-.94,0Z"/>
      <path class="cls-4" d="M61.15,90.38c0-1.02,0-1.94,0-2.87,0-.19,0-.39.04-.58.02-.09.16-.2.25-.21.1-.01.27.06.3.14.08.25.14.51.16.78.07.9.12,1.8.19,2.77.39.03.74.07,1.1.08.37.02.73,0,1.1.02.45.03.71.24.66.51-.08.37-.37.4-.68.39-.65,0-1.31,0-2.07,0,.06.79.1,1.53.16,2.27.14,1.55.29,3.1.44,4.65.05.51.18,1.01.24,1.51.08.65.46.92,1.07.97.31.03.63.08.94.15.29.07.59.17.54.57-.03.26-.31.4-.7.34-.46-.07-.92-.14-1.37-.23-.72-.14-1.18-.57-1.31-1.3-.16-.91-.32-1.82-.41-2.74-.19-1.94-.33-3.88-.5-5.82-.01-.12-.04-.24-.08-.43-.33-.03-.66-.09-.99-.1-.34-.01-.68.03-1.02.03-.25,0-.53,0-.58-.31-.05-.3.19-.42.45-.47.29-.06.58-.11.87-.13.39-.02.77,0,1.22,0Z"/>
      <path class="cls-5" d="M88.98,107.77c-.52-.05-1.02-.09-1.52-.14-.36-.03-.73-.04-1.09-.12-.15-.03-.38-.2-.39-.33-.02-.28.25-.32.47-.32.58,0,1.17.02,1.75.03.26,0,.52,0,.88,0,0-.27,0-.51,0-.74.01-.9.03-1.8.04-2.7,0-.1-.02-.22.03-.29.08-.12.21-.22.32-.32.08.11.22.21.23.32.04.36.03.73.04,1.1.02.85.04,1.7.06,2.61.3.02.53.05.76.05.61,0,1.22-.02,1.83-.02.27,0,.54.02.79.1.13.04.32.25.3.34-.04.15-.2.32-.35.39-.14.07-.33.02-.5.02-.92.02-1.84.03-2.81.05-.08.75-.19,1.45-.21,2.15-.06,1.68-.09,3.36-.1,5.04,0,.46.07.92.17,1.37.17.77.36.93,1.14.96.7.03,1.41,0,2.12,0,.19,0,.4-.01.58.04.11.03.26.18.27.29.01.11-.11.25-.21.34-.06.06-.18.08-.28.08-1.02,0-2.04.02-3.06,0-.63-.02-1.05-.4-1.22-.99-.16-.56-.3-1.14-.34-1.71-.14-2.12-.02-4.24.24-6.34.04-.29.07-.58.09-.87,0-.09-.02-.19-.03-.35Z"/>
      <path class="cls-4" d="M67.83,122.71c1.17,1.31,2.04,2.89,3.6,3.93.06-.93.02-1.81-.21-2.68-.07-.25-.08-.53-.06-.79,0-.11.16-.2.33-.42.43,1.69.56,3.27.48,5-.93-.38-1.37-1.16-1.99-1.69-.63-.55-1.14-1.24-1.76-1.94.06.51.15.94.14,1.36-.01.65-.09,1.31-.15,1.96-.02.2-.08.43-.33.37-.1-.02-.22-.25-.23-.38-.06-1.36-.11-2.73-.15-4.09,0-.23,0-.49.32-.63Z"/>
      <path class="cls-4" d="M156.17,130.46c.11-1.5.21-2.82.32-4.14,0-.02.08-.04.22-.1.06.16.16.32.16.48,0,.46-.06.92-.07,1.39-.01.85,0,1.71-.01,2.56,0,.22-.08.44-.14.81-1.58-1.25-2.86-2.56-3.94-4.21-.04.22-.08.34-.08.47-.05,1-.08,2-.14,2.99,0,.16-.11.32-.16.48-.06,0-.12,0-.18,0-.07-.16-.18-.32-.19-.48-.02-.51,0-1.02,0-1.53,0-.8.05-1.6.01-2.4-.02-.4.06-.66.52-.82.53.78,1.03,1.62,1.64,2.36.59.73,1.3,1.37,2.04,2.14Z"/>
      <path class="cls-4" d="M159.52,131.24v-2.62c0-.49,0-.97,0-1.46,0-.48.12-.56.6-.61.88-.1,1.7.14,2.49.44,1.08.42,1.55,1.35,1.67,2.46.05.4-.17.7-.44.96-.64.6-1.43.93-2.28,1.06-.66.1-1.35.29-2.04-.23ZM160.09,127.2c0,1.17-.01,2.35.02,3.53,0,.12.25.33.38.32,1.06-.03,2.07-.24,2.92-.94.34-.28.4-.61.3-1.04-.33-1.43-1.82-2.13-3.62-1.87Z"/>
      <path class="cls-4" d="M120.16,129.13c-.04-1.21.1-2.32-.16-3.42-.07-.29-.14-.57.26-.74.26.41.34.86.36,1.31.04,1.05.05,2.09.06,3.14,0,.15-.08.41-.16.43-.16.04-.4-.02-.52-.12-.96-.82-1.93-1.64-2.6-2.74-.21-.34-.47-.65-.7-.98-.04.02-.09.04-.13.06,0,.25,0,.5,0,.76-.02.78-.04,1.56-.07,2.33,0,.24-.02.5-.44.58-.04-.17-.13-.34-.11-.5.14-.86,0-1.7-.06-2.55-.05-.6-.06-1.2.18-1.86.21.13.38.19.48.3.47.56.93,1.12,1.36,1.71.62.84,1.28,1.62,2.27,2.28Z"/>
      <path class="cls-4" d="M109.23,126.86c.95.67,1.61,1.45,2.04,2.59-.24-.05-.43-.04-.5-.12-.17-.2-.29-.45-.44-.67-.5-.73-1.06-1.38-2.12-1.52-.01.37-.03.7-.03,1.03,0,.39.04.78,0,1.16-.02.15-.19.37-.32.4-.26.05-.29-.2-.29-.4-.02-.29-.01-.58-.01-.87,0-1.14.14-2.28-.09-3.41-.1-.49.12-.73.62-.75.63-.03,1.27-.09,1.81.36.73.59.71,1.34-.06,1.86-.16.11-.33.19-.6.35ZM108.3,126.64c.49-.22.91-.35,1.27-.57.48-.29.47-.68.02-1.05-.43-.35-.92-.31-1.52-.23.08.61.15,1.17.23,1.84Z"/>
      <path class="cls-4" d="M63.55,127.58c-1.29.01-1.97-.42-2.38-1.35-.39-.9-.22-2.19.47-2.77.67-.56,1.35-.71,2.23-.43.97.32,1.67.85,2.11,1.76.24.49.22.93-.07,1.38-.59.94-1.39,1.49-2.36,1.42ZM63.65,127.08c.6.03,1.28-.35,1.77-1.11.22-.34.24-.66.05-1.02-.5-1-1.77-1.68-2.84-1.48-.18.04-.36.15-.51.26-.62.48-.82,1.34-.51,2.18.28.78.87,1.18,2.04,1.17Z"/>
      <path class="cls-4" d="M146.25,129.43c-.28.55-.54,1.07-.86,1.72-.14-.25-.28-.4-.26-.5.06-.28.17-.55.3-.82.5-1.06,1.03-2.1,1.5-3.17.19-.43.44-.74.96-.83.06.1.18.21.2.33.22,1.35.82,2.54,1.46,3.72.16.29.45.6.14,1.06-.6-.36-.57-1.12-1.06-1.52h-2.38ZM147.58,126.63c-.39.8-.71,1.48-1.07,2.23h1.88c-.27-.74-.51-1.41-.81-2.23Z"/>
      <path class="cls-4" d="M126.39,128.29c-.44-.24-1.04,0-1.36-.62.23-.05.38-.12.53-.12.19,0,.38.09.57.12.75.12.97.43.88,1.23-.07.57-.52.9-1.17.8-.5-.07-1.01-.15-1.5-.3-.93-.3-1.66-1.52-1.52-2.49.07-.47.27-.88.65-1.19.84-.67,2.47-.82,3.4-.3.21.12.25.18.31.66-.21-.06-.38-.09-.54-.17-.85-.42-1.69-.38-2.53.02-.59.28-.87.78-.76,1.43.15.79.51,1.43,1.37,1.62.31.07.62.14.93.17.79.08.86-.01.73-.86Z"/>
      <path class="cls-4" d="M103.43,126.84c0,.51,0,1.1,0,1.68,0,.15.02.3-.03.43-.05.13-.19.24-.28.35-.08-.11-.17-.21-.22-.32-.04-.08-.02-.19-.02-.29-.06-1.26-.13-2.52-.19-3.78,0-.17.01-.34.02-.51.02-.33.21-.5.52-.48.56.03,1.12.05,1.66.16.48.09.98.8,1.02,1.31.04.48-.24.96-.82,1.16-.49.17-1.02.19-1.66.29ZM103.35,124.39c0,.47-.02.86.01,1.24.02.17.1.38.23.47.43.31,1.34.15,1.65-.29.1-.14.16-.38.11-.53-.12-.41-.37-.74-.84-.79-.38-.04-.76-.06-1.16-.1Z"/>
      <path class="cls-4" d="M82.72,123.52c.48,1.23.71,2.49,1.49,3.52.19.25.31.55.44.84.04.08,0,.26-.06.3-.07.04-.24.02-.31-.05-.11-.09-.17-.23-.24-.35-.16-.27-.34-.54-.46-.82-.21-.49-.61-.57-1.08-.55-.37.02-.63.14-.78.52-.17.41-.42.8-.64,1.22-.42-.24-.28-.56-.22-.81.06-.26.22-.48.32-.73.33-.83.67-1.67.99-2.51.11-.28.18-.55.57-.58ZM82.66,124.84c-.06,0-.12,0-.18,0-.11.35-.22.69-.35,1.08h.84c-.11-.39-.21-.74-.31-1.08Z"/>
      <path class="cls-4" d="M101.04,125.03c-.32-.15-.48-.24-.65-.31-.4-.19-.8-.18-1.18.07-.38.26-.37.58.04.78.15.07.32.1.49.14,1.09.33,1.49,1.1,1.58,2.04.04.46-.14.83-.59.99-.36.13-.75.22-1.13.25-.48.03-.82-.26-1.06-.66-.1-.17-.17-.4.07-.5.2-.09.4-.08.52.21.19.46.58.56,1.18.34.48-.17.57-.37.45-.9-.15-.68-.54-1.12-1.24-1.28-.26-.06-.52-.15-.74-.3-.29-.2-.48-.49-.39-.87.1-.45.7-.9,1.27-.95.61-.06,1.05.21,1.36.96Z"/>
      <path class="cls-4" d="M94.13,124.17c-.64.44-1.32.2-1.96.44-.02.17-.05.35-.05.54-.01.93-.01,1.85-.03,2.78,0,.25-.06.5-.09.74-.38-.02-.38-.23-.38-.42,0-.75,0-1.51,0-2.26v-1.47c-.51-.02-.96-.03-1.41-.05-.45-.03-.45-.03-.44-.68,1.38.04,2.75.08,4.13.14.06,0,.12.13.23.25Z"/>
      <path class="cls-4" d="M136.91,125.53c.4.15.81.28,1.2.47.1.05.12.27.17.42-.15.01-.32.07-.46.03-.21-.06-.38-.21-.59-.27-.41-.12-.76-.02-.92.24-.14.24-.05.62.26.91.12.12.27.2.42.29.12.07.26.12.39.19.56.32.85.8.78,1.29-.08.5-.63,1.09-1.14,1.22-.52.13-.88-.18-1.26-.44-.06-.04-.1-.2-.06-.25.06-.08.19-.18.28-.16.15.03.3.13.44.21.39.23.75.13,1.05-.28.27-.37.22-.72-.17-1.01-.17-.13-.41-.17-.57-.31-.31-.26-.66-.52-.85-.86-.44-.81.08-1.58,1.04-1.67Z"/>
      <path class="cls-4" d="M76.52,127.25c.35-.36.51-.1.71,0,.2.1.43.25.64.23.25-.02.54-.13.58-.46.04-.34.05-.7-.28-.93-.26-.18-.55-.32-.81-.49-.73-.45-.87-1.19-.36-1.86.26-.34.6-.48,1.03-.42.5.07.72.26.95.85-.3-.11-.53-.21-.78-.28-.47-.13-.75,0-.91.37-.16.39-.06.67.34.92.23.14.46.27.7.4.4.22.59.57.65,1,.09.6-.07.97-.54,1.24-.55.32-1.02.29-1.48-.1-.16-.14-.29-.3-.46-.47Z"/>
      <path class="cls-4" d="M141.01,130.44c.73,0,1.39,0,2.06,0,.05,0,.1.14.18.27-.17.06-.29.13-.42.14-.58.06-1.16.1-1.74.14-.43.03-.58-.07-.58-.53,0-1.55.01-3.1.03-4.65,0-.1.09-.21.19-.42.39.58.32,1.14.35,1.67.03.56.05,1.12.04,1.67,0,.55-.05,1.1-.09,1.7Z"/>
      <path class="cls-4" d="M86.9,123.4c.05,1.59.1,3.04.14,4.57.78.09,1.55.18,2.35.28-.1.41-.36.47-.63.45-.61-.04-1.21-.1-1.82-.17-.3-.03-.47-.2-.47-.53,0-1.12-.04-2.24-.02-3.36,0-.38-.08-.83.44-1.23Z"/>
      <path class="cls-4" d="M113.34,124.53c.03.11.08.22.09.33.1,1.55.25,3.1.09,4.66-.02.14-.13.35-.23.37-.27.06-.32-.18-.29-.38.19-1.48-.01-2.96-.01-4.44,0-.19.09-.38.14-.57.07.01.15.02.22.04Z"/>
      <path class="cls-4" d="M133.09,125.36c.07.19.16.38.2.57.25,1.37.23,2.76.15,4.15,0,.13-.15.26-.24.38-.09-.12-.21-.23-.27-.36-.04-.08-.02-.19,0-.29.17-1.31.04-2.63-.06-3.94-.01-.16,0-.32,0-.48.07-.01.15-.03.22-.04Z"/>
      <path class="cls-2" d="M162.86,102.42c.03.27.05.51.07.74-1.42.06-2.78-.24-4.12-.69-.46-.16-.96-.23-1.39-.45-.92-.46-1.92-.6-2.9-.86-.61-.16-1.19-.49-1.83-.65-1.62-.39-3.27-.48-4.92-.61-2.5-.19-5-.43-7.51-.54-1.4-.06-2.82.11-4.23.17-.49.02-.97.03-1.46.06-.65.04-1.31.1-1.96.14-.44.03-.87.03-1.3.08-.28.04-.54.18-.82.22-1.2.15-2.37.51-3.61.51-.8,0-1.61.36-2.41.55-.19.05-.38.12-.57.12-1.23,0-2.3.53-3.48.94-.22-.33-.51-.25-.88-.06-.84.43-1.78.45-2.69.58-.43.06-.87.13-1.29.24-1.76.46-3.55.56-5.35.52-.58-.01-1.17-.05-1.75.02-1.31.17-2.47-.52-3.72-.62-.12-.01-.28-.12-.34-.23-.2-.37-.53-.55-.89-.72-.71-.34-.92-1-1.06-1.79.78.31,1.47.58,2.16.85.18.07.36.18.54.2.45.06.86.13,1.09.6.05.1.23.18.36.19.65.06,1.3.09,2.05.13.1.28.38.32.8.2,1.21-.35,2.45-.62,3.67-.98.57-.17,1.13-.26,1.72-.22.24.02.48,0,.75,0,.07-.81.18-1.55.18-2.29-.01-1.63-.09-3.26-.14-4.89,0-.34.06-.68.05-1.02,0-.3-.15-.62-.1-.91.15-.88-.6-1.64-.29-2.54.1-.29.08-.63.1-.94.07-.94.15-1.87.22-2.81.02-.28.16-.62-.21-.77-.32-.14-.66-.17-.96.09-.39.34-.78.67-1.17.99-.18.15-.38.29-.51.39-.27-.4-.51-.75-.82-1.21.08-.1.2-.33.39-.5.4-.36.78-.76,1.24-1.01.89-.5,1.38-1.36,2.04-2.07.25-.27.32-.55-.07-.78.69-.59,1.38-1.12,1.99-1.73.84-.84,1.64-1.73,2.41-2.64.25-.3.28-.77.66-1.02.29-.2.51-.43.91-.51.33-.06.63-.42.87-.71.36-.43.65-.91.96-1.38.03-.04.05-.08.09-.12.62-.66,1.3-1.26,1.87-1.99.31-.4.93-.58,1.45-.77.19-.07.54.09.7.25.34.34.64.74.92,1.13.54.77,1.05,1.56,1.6,2.33.16.23.42.4.65.57.52.4,1.05.79,1.57,1.19.06.04.13.09.16.15.31.69.94,1.01,1.57,1.36.33-.11.27-.42.3-.7.06-.69.15-1.38.23-2.15.47.08.85.12,1.21.23.25.07.45.12.68-.05.28-.2.59-.15.93-.05,0,.87.03,1.72,0,2.56-.03.56-.17,1.11-.21,1.66-.02.22.03.49.15.67.22.34.51.65.78.96.83.92,1.72,1.8,2.49,2.77.32.4.62.79,1,1.13.28.26.1,1.08-.26,1.17-.15.04-.41-.05-.5-.17-.67-.85-1.67-1.01-2.67-1.4-.05.38-.11.66-.13.94-.08,1.12-.12,2.24-.23,3.35-.05.53-.18,1.05-.34,1.56-.47,1.44-.45,2.87-.12,4.33.05.23.12.49.06.7-.27.91-.22,1.82-.06,2.74.05.28.11.57.16.85,1.25.03,2.48.04,3.7.1,1.48.07,2.97.19,4.45.28.17.01.34.03.51.05,2.58.35,5.16.7,7.75,1.04.7.09,1.4.15,2.09.24.21.03.44.09.62.2,1,.6,2.11.87,3.19,1.25,1.05.38,2.09.8,3.18,1.22ZM124.38,74.91c0-.37.51-.55.34-1.14-.22.39-.37.65-.5.92-.01.03.12.13.18.2-.04.06-.07.13-.13.17-1.01.69-1.98,1.42-2.56,2.55-.05.1-.15.2-.25.26-.36.22-.33.52-.19.76-.42.46-.79.86-1.23,1.34-.58-.19-.96.27-1.32.75-.18.23-.37.45-.56.68-.5.62-.85,1.31-.95,2.11-.15,1.26-.29,2.51-.41,3.77-.05.58-.06,1.16-.06,1.75,0,.82.04,1.65.04,2.47,0,.62-.04,1.24.03,1.87.13,1.08.09,2.19.14,3.28.02.41.08.82.1,1.23.04.65.07,1.31.09,1.96.01.4,0,.8,0,1.28,1.06-.15,2.08-.24,3.08-.46,1.09-.24,2.15-.61,3.23-.91.28-.08.57-.11.86-.13.89-.07,1.8-.05,2.67-.21,1.79-.34,3.57-.79,5.35-1.16.76-.16,1.54-.24,2.31-.32.17-.02.35.11.53.18.17-.83.35-1.66.51-2.5.07-.36.13-.72.12-1.08-.03-1.17.06-2.32.27-3.49.19-1.04.15-2.13.2-3.19,0-.07-.03-.14-.04-.22-.09-.77-.22-1.54-.27-2.31-.05-1-.05-2-.04-3,0-.26.14-.51.22-.79-.37-.34-.77-.72-1.18-1.09-.49-.44-1.02-.83-1.47-1.3-.32-.35-.66-.61-1.08-.82-.51-.26-1.06-.51-1.37-1.05-.08-.14-.24-.25-.38-.33-1.07-.58-1.9-1.45-2.7-2.33-.53-.59-1.09-.56-1.71-.39-.32.09-.66.24-.91.46-.31.28-.63.27-.98.22ZM106.9,102.89c.48.13.89-.06,1.26-.33-.47-.11-.92-.11-1.26.33ZM119.04,78.68c.02.06.05.12.07.18.46-.1.92-.21,1.48-.33-.38-.05-.65-.08-.92-.12,0-.04,0-.09,0-.13-.21.13-.42.26-.63.4ZM135.85,97.41c.06.02.13.03.19.05.43-.39.26-.86.04-1.34-.08.43-.15.86-.23,1.29ZM133.92,78.65c-.05.05-.09.1-.14.15.27.47.68.78,1.25.89-.37-.35-.74-.69-1.11-1.04ZM142.57,99.11c.41.1.75.3,1.13-.06-.39-.2-.73-.26-1.13.06ZM116.11,100.54c.05.01.11.02.16.04.28-.43.29-.5.1-1.39-.11.55-.18.95-.26,1.36ZM116.95,81.9c.35-.46.35-.63.1-1.14-.04.42-.07.78-.1,1.14ZM134.92,75.64c-.07,0-.13-.01-.2-.02-.25.34-.28.69.02,1.11.07-.41.13-.75.18-1.1ZM109.98,102.77c-.3-.18-.59-.22-.97.09.41.14.69.05.97-.09ZM110.77,102.52c.38.22.66.16,1.04.12-.34-.33-.63-.23-1.04-.12ZM113.63,84.78q.41-.2.45-.61c-.29.1-.48.25-.45.61ZM115.84,83.3c.21-.32.5-.5.31-.91-.27.24-.52.44-.31.91ZM134.51,78.21c.16.39.36.56.83.61-.18-.42-.37-.59-.83-.61ZM135.83,77.82q-.36-.44-.74-.54c.03.42.29.51.74.54ZM132.78,98.65c.02.07.03.14.05.21.3-.06.59-.12.89-.17-.34-.16-.66-.25-.94-.03ZM122.37,75.9c.38,0,.58-.13.49-.6-.21.25-.35.43-.49.6ZM116.02,83.82s-.08-.02-.12-.02c-.03.16-.07.32-.09.48,0,.02.11.05.21.1v-.56ZM105.3,102.47c0-.07,0-.14,0-.21h-.59s0,.07-.01.11c.2.03.4.07.6.1Z"/>
      <path class="cls-1" d="M125.34,108.04c1.61.06,3.15.49,4.48,1.36,1.01.66,1.71,1.64,1.51,3.01-.09.62-.04,1.26-.06,1.9-.03.99-.49,1.73-1.33,2.2-1.12.63-2.34.91-3.6,1.12-1.25.22-2.42-.05-3.57-.45-1.32-.47-2.08-1.44-2.36-2.82-.2-1-.23-1.97.02-2.96.17-.68.49-1.29,1.02-1.73,1.12-.93,2.35-1.65,3.89-1.62Z"/>
      <path class="cls-1" d="M81.19,95.22c.06-.72.29-1.31.63-1.84,1.04-1.62,2.5-2.56,4.47-2.55.88,0,1.64.4,2.33.92,1.28.97,1.92,2.33,2.43,3.92-3.34-.15-6.57-.3-9.86-.45Z"/>
      <path class="cls-1" d="M137.23,112.7c.04-1.11.52-2,1.35-2.71.8-.69,1.72-1.19,2.7-1.56.85-.32,1.73-.31,2.59-.11,1.56.36,2.91,1.12,3.85,2.45.44.63.75,1.35,1.13,2.03-.67.21-10.62.12-11.63-.09Z"/>
      <path class="cls-1" d="M114.61,112.53c.03.8.06,1.53.08,2.26,0,.14-.03.3-.11.41-1.08,1.53-2.5,2.4-4.44,2.32-1.02-.04-1.96-.33-2.9-.68-1.3-.48-1.8-1.71-1.22-2.89.28-.56.71-.86,1.33-.87.71,0,1.42-.02,2.12.03,1.72.14,3.4.09,5.15-.6Z"/>
      <path class="cls-1" d="M80.1,116.93c-2.11-.06-3.73-.62-5.03-1.94-1.51-1.53-1.74-3.5-.5-5.33,1.18-1.75,2.81-2.74,4.99-2.63.19,0,.4.03.56.12.65.39,1.31.76,1.91,1.21,1.32.99,2.12,2.33,2.38,3.97.12.74,0,1.48-.41,2.11-.97,1.51-2.4,2.29-3.88,2.48Z"/>
      <path class="cls-1" d="M160.09,127.2c1.79-.26,3.28.44,3.62,1.87.1.43.03.76-.3,1.04-.85.7-1.86.91-2.92.94-.13,0-.38-.21-.38-.32-.03-1.18-.02-2.36-.02-3.53Z"/>
      <path class="cls-1" d="M108.3,126.64c-.08-.67-.16-1.23-.23-1.84.6-.08,1.09-.12,1.52.23.45.36.46.75-.02,1.05-.36.22-.77.35-1.27.57Z"/>
      <path class="cls-1" d="M63.65,127.08c-1.17,0-1.76-.39-2.04-1.17-.3-.84-.1-1.7.51-2.18.15-.11.33-.23.51-.26,1.07-.21,2.34.48,2.84,1.48.19.37.16.69-.05,1.02-.49.76-1.17,1.14-1.77,1.11Z"/>
      <path class="cls-1" d="M147.58,126.63c.3.82.54,1.5.81,2.23h-1.88c.36-.75.69-1.43,1.07-2.23Z"/>
      <path class="cls-1" d="M103.35,124.39c.4.03.78.05,1.16.1.47.06.72.38.84.79.05.16-.01.39-.11.53-.31.44-1.21.6-1.65.29-.13-.09-.22-.31-.23-.47-.03-.38-.01-.77-.01-1.24Z"/>
      <path class="cls-1" d="M82.66,124.84c.1.34.2.68.31,1.08h-.84c.12-.39.24-.73.35-1.08.06,0,.12,0,.18,0Z"/>
      <path class="cls-2" d="M126.52,90.42c.05-.83.05-1.54.13-2.24.19-1.74.33-1.68,1.9-1.9.58-.08,1.17-.07,1.75-.06.56,0,.78.17.81.73.05.83.04,1.66.01,2.48-.02.45-.23.59-.7.47-.32-.08-.61-.2-.86.12-.01.02-.04.04-.06.04-.98.12-1.96.24-2.98.36ZM130.83,89.74c0-1.02,0-1.92,0-2.82,0-.3-.22-.45-.49-.44-.92.06-1.84.15-2.76.23-.28.03-.41.23-.5.47-.2.54-.28,2.35-.13,2.94.77-.11,1.57-.11,2.29-.36.5-.17.94-.3,1.58-.04Z"/>
      <path class="cls-2" d="M126.44,82.6c-.16.73-.29,1.29-.4,1.86-.11.53.27,1.09-.04,1.62-.59-.06-1.14-.15-1.69-.15-.53,0-1.06.12-1.6.17-.19.02-.39,0-.58-.04-.25-.04-.37-.19-.37-.46.01-.82,0-1.65.01-2.47,0-.19.06-.38.1-.63.57.36,1.06-.1,1.59-.06.96.08,1.92.11,2.97.16ZM125.87,85.63c-.28-.9,0-1.82.24-2.77-.83-.08-1.6-.2-2.37-.21-.43,0-.94-.07-1.22.44-.04.07-.28.03-.4.04v2.67c1.21-.06,2.42-.11,3.75-.17Z"/>
      <path class="cls-2" d="M125.91,90.52c-.85-.18-1.65-.35-2.46-.51-.4-.08-.79-.17-1.21,0-.34.14-.48,0-.49-.38,0-.07,0-.15.02-.22.15-.66.26-1.33.14-2.01-.02-.13.05-.28.08-.44.58-.07,1.13-.18,1.68-.2.82-.03,1.65,0,2.48,0,.16.4,0,2.9-.24,3.77ZM122.01,89.72c1.35-.25,2.48.37,3.75.42.08-1.03.16-2.05.24-3.1-1.15-.1-2.24-.08-3.32.1-.51.09-.52.15-.49.68.02.36-.02.72-.05,1.08-.02.26-.08.51-.12.82Z"/>
      <path class="cls-2" d="M127.28,82.7c.59-.12,1.08-.23,1.58-.32.49-.08.49-.07.84.4.23-.09.47-.22.72-.27.47-.1.73.13.68.57-.09.89-.2,1.77-.31,2.71h-.65c-.68,0-1.36,0-2.03,0-.15,0-.29.04-.44.04-.35.01-.55-.14-.54-.52.02-.58.03-1.16.06-1.74.01-.29.05-.57.08-.87ZM130.57,85.51c.03-.49.04-.93.09-1.36.04-.44.12-.88.2-1.45-.34.1-.55.13-.73.23-.32.17-.58.18-.84-.12-.09-.1-.3-.17-.44-.14-.42.08-.84.2-1.23.3-.23.9-.36,1.72-.1,2.55h3.06Z"/>
      <path class="cls-2" d="M130.83,89.74c-.65-.27-1.08-.14-1.58.04-.72.25-1.52.25-2.29.36-.16-.59-.07-2.41.13-2.94.09-.24.22-.44.5-.47.92-.09,1.84-.17,2.76-.23.27-.02.48.14.49.44.01.9,0,1.79,0,2.82Z"/>
      <path class="cls-2" d="M125.87,85.63c-1.33.06-2.54.12-3.75.17v-2.67c.12,0,.36.03.4-.04.29-.52.8-.45,1.22-.44.77.01,1.54.13,2.37.21-.23.95-.51,1.86-.24,2.77Z"/>
      <path class="cls-2" d="M122.01,89.72c.05-.3.1-.56.12-.82.03-.36.07-.72.05-1.08-.03-.53-.02-.6.49-.68,1.08-.18,2.17-.2,3.32-.1-.08,1.05-.16,2.07-.24,3.1-1.27-.04-2.4-.66-3.75-.42Z"/>
      <path class="cls-2" d="M130.57,85.51h-3.06c-.25-.83-.13-1.65.1-2.55.4-.1.81-.23,1.23-.3.14-.02.35.04.44.14.26.3.51.3.84.12.18-.1.4-.13.73-.23-.08.57-.16,1.01-.2,1.45-.04.43-.06.87-.09,1.36Z"/>
    </g>
  </g>
</svg>