<?xml version="1.0" encoding="UTF-8"?>
<svg id="Layer_1" data-name="Layer 1" xmlns="http://www.w3.org/2000/svg" viewBox="0 0 180 200">
  <defs>
    <style>
      .cls-1 {
        font-family: AmericanTypewriter-Bold, 'American Typewriter';
        font-size: 19.28px;
        font-weight: 700;
        letter-spacing: .02em;
      }

      .cls-1, .cls-2 {
        fill: #fff;
      }

      .cls-3 {
        fill: #231f20;
      }

      .cls-3, .cls-4 {
        fill-rule: evenodd;
      }

      .cls-5 {
        fill: #fbe577;
      }

      .cls-6 {
        fill: #9e1d21;
      }

      .cls-7 {
        fill: #f29220;
      }

      .cls-4 {
        fill: #a08651;
      }
    </style>
  </defs>
  <polygon class="cls-4" points="29.63 78.69 6.68 112.28 7.83 113.72 51.6 112.21 35.88 83.32 31.2 77.85 29.63 78.69 29.63 78.69"/>
  <path class="cls-3" d="M27.79,83.04c-.83.36-.24-.84-1.07-.47-.4.14-.18.83-1,.58-.32,1.37-.64,2.72-1.93,3.22-.31,1.44.73,1.38,1.15,2.03-1.81,1.32-1.82,5.56-5.01,4.15.29.77,1.25.81,1.39,1.76-.69.35-1.2.49-1.53.59,1.11.91-.3.68-.72,1.34-1.11,1.72-1.71,4.44-3.66,4.87-.07,1.25-.53,2.17-1.71,2.43.66,1.35-.38.18-.74.82,1.67.32-1.07,1.14.1,1.82-1.85.39-1.4,2.87-2.68,3.78-.17-.45.24-1.54-.33-1.55,0,.41.08.9-.49.81-.28.86.85.15.57,1.01-1.08.27-.88,1.69-1.44,2.42,2.71-.6,7.11-.64,10.14-.5.04-.2-.02-.51.23-.53,10.08.92,18.12-.65,30.43-.98-.56-2.73-2.98-4.05-3.92-5.54-.31-2.31-2.5-2.54-2.59-5.08-1.17.17-1-.93-.86-1.52-1.04.02-1.97-1.66-1.14-2.03-.81.44-.87-.15-1.59-.44-1.88-5.68-6.37-9.68-8.52-14.17.01.26-.44.35-.52.02.32-.04.61-.11.5-.54-.73.25-.69-.34-1.32-.19-1.26,1.76-1.82,4.14-3.92,5.14.55.89-.19,1.27-.68,1.86-.32-1.04-.06-2.03.38-2.89.43-.02.18.72.56.76.06-1.12.95-3.24,1.71-2.17-.03-.36.09-.58.22-.79h0ZM42.98,95.05c1.54.23,1.13,2.59,2.74,2.74.04,1.68.91,2.47,1.97,3.02-.12,1.78.89,2.31,1.96,2.77.12.44-.18.5-.49.54.37.36,1.22.6.58,1.28.2-.15.41-.29.76-.3.12.52-.01.82-.48.8.52.67,2.02,2.08,1.17,2.55.27.44.84.53,1.58.44.15,2.13,1.32,3.12,1.31,5.41-.25-.15-.98-.56-.76.3-.47-.49-1.81-.01-1.87-.95-.58,1.02-1.78-.68-3.09.67-.79.13-.58-.82-.85-1.26-.74.26.37.64.07,1.3-.2-.17-.88-1.05-.78.04-3.63-.25-9.02-.27-12.24.08-.01-.26-.03-.51-.04-.78-1.17.69-2.55.83-3.64.18-.7,1.02-5.54,1.05-7.02.35-2.86,1.64-9.21.09-10.59,1.82-2.24-1.26-6.1.17-8.9-.86-.26-.82.17-1,.46-1.33-1.05-.04-.44-.2-.61-1.79,1.21-.39,1.71-1.42,1.68-2.95,1.21.19.52-1.34,1.77-1.13-.23-.79-.21-.49-.07-1.3,1.77.2.7-2.18,2.23-2.19-.18-.26-.61-.24-.56-.76,1.05.29.49-.88,1.53-.6-.02-.43-.04-.87-.06-1.3.22-.21.58-.31,1.02-.31,1.53-3.92,4.38-6.63,6-10.46.9-.02,1.18-.58.96-1.61.76.03.76-.63,1.53-.6.63-3.48,3.95-4.54,4.55-8.05,2.85-.64,2.17-4.48,4.95-5.19-.18-.26-.61-.24-.56-.75.86-.06,1.27-.51,2.33-.38,1.16.82-.31,1.34,1.36,1.23-1.07,1.18.34,4.61,1.51,4.09.38.07.07,1.97,1.38,1.76-.14.8.32.93.35,1.54,3.34,2.79,3.98,8.57,7.33,11.36.12.44-.18.5-.5.54h0Z"/>
  <text class="cls-1" transform="translate(18.98 107.48) scale(.79 1)"><tspan x="0" y="0">20</tspan></text>
  <g>
    <path d="M171.53,57.4c-.24-.09-.36-.18-.49-.19-1.33-.05-2.67-.11-4-.12-12.06-.07-24.11-.01-36.17-.4-9.51-.31-19.05,0-28.58.1-7.09.07-14.17.27-21.26.32-4.85.03-9.63.61-14.38,1.53-1.35.26-2.7.39-4.1.3-1.62-.11-3.27.12-5.05.2,0,1.76.04,3.37,0,4.97-.19,5.75-.44,11.49-.6,17.24-.06,1.88.08,3.77.1,5.66.09,6.44.17,12.89.25,19.33.13,10.82.26,21.63.37,32.45.03,2.9.24,5.78.72,8.65.4,2.4.6,4.82.08,7.25-.05.22.15.49.23.75.25,0,.44.05.61,0,1.66-.54,3.35-.45,5.06-.36,1.15.06,2.3,0,3.45-.04,1.33-.06,2.66-.23,3.99-.25,7.64-.08,15.28-.07,22.9-.63,2.2-.16,4.41-.21,6.62-.36,4.45-.3,8.9-.66,13.35-.94,4.22-.26,8.45-.46,12.68-.66,5.33-.26,10.66-.61,15.99-.7,5.75-.1,11.5.04,17.26.09,4.24.04,8.45.33,12.62,1.09.79.15,1.12-.11,1.14-.94.02-.78-.09-1.56-.1-2.34-.05-6.03-.09-12.06-.13-18.09,0-.55.01-1.11-.04-1.66-.42-4.16-.85-8.33-1.29-12.49-.77-7.23-1.25-14.48-1.31-21.76-.02-1.93.01-3.87-.01-5.8-.01-.96-.15-1.93-.14-2.89.02-2.07.1-4.14.15-6.21.07-2.58.11-5.15.2-7.73.06-1.79.28-3.58.28-5.37,0-2.76-.13-5.52-.22-8.28-.02-.59-.11-1.17-.17-1.71Z"/>
    <path class="cls-6" d="M171.53,57.4c.06.54.15,1.13.17,1.71.09,2.76.22,5.52.22,8.28,0,1.79-.21,3.58-.28,5.37-.09,2.57-.14,5.15-.2,7.73-.05,2.07-.13,4.14-.15,6.21,0,.96.13,1.93.14,2.89.02,1.93,0,3.87.01,5.8.06,7.28.54,14.53,1.31,21.76.44,4.16.87,8.33,1.29,12.49.06.55.04,1.1.04,1.66.04,6.03.08,12.06.13,18.09,0,.78.12,1.56.1,2.34-.02.83-.35,1.08-1.14.94-4.17-.77-8.39-1.06-12.62-1.09-5.75-.05-11.51-.19-17.26-.09-5.33.09-10.66.45-15.99.7-4.23.2-8.46.4-12.68.66-4.45.28-8.9.64-13.35.94-2.2.15-4.41.19-6.62.36-7.62.56-15.26.55-22.9.63-1.33.01-2.66.19-3.99.25-1.15.05-2.3.1-3.45.04-1.71-.09-3.4-.18-5.06.36-.16.05-.36,0-.61,0-.08-.25-.28-.53-.23-.75.51-2.42.31-4.85-.08-7.25-.48-2.87-.69-5.75-.72-8.65-.11-10.82-.24-21.63-.37-32.45-.08-6.44-.16-12.89-.25-19.33-.03-1.89-.16-3.77-.1-5.66.17-5.75.42-11.49.6-17.24.05-1.6,0-3.21,0-4.97,1.78-.09,3.42-.31,5.05-.2,1.4.09,2.75-.04,4.1-.3,4.75-.92,9.53-1.49,14.38-1.53,7.09-.05,14.17-.25,21.26-.32,9.53-.09,19.06-.41,28.58-.1,12.06.39,24.11.34,36.17.4,1.33,0,2.67.07,4,.12.13,0,.25.09.49.19ZM62.85,148.58c.64.03,1.09.07,1.54.07,11.55-.08,23.11-.16,34.66-.24,18.73-.13,37.47-.25,56.2-.37,2.9-.02,5.8-.02,8.7-.04,1.23-.01,1.34-.13,1.36-1.35.09-4.88.19-9.76.26-14.64.22-14.45.42-28.91.64-43.36.14-8.79.3-17.58.44-26.38,0-.48-.05-.97-.09-1.55-.57,0-.98,0-1.39,0-4.42.08-8.84.18-13.25.25-11.87.2-23.75.39-35.62.57-7.82.12-15.65.22-23.47.33-9.8.15-19.6.3-29.41.45-.45,0-.89.06-1.5.1.18,28.73.61,57.34.92,86.15Z"/>
    <path class="cls-2" d="M62.85,148.58c-.31-28.8-.75-57.41-.92-86.15.61-.04,1.05-.1,1.5-.1,9.8-.15,19.6-.31,29.41-.45,7.82-.12,15.65-.21,23.47-.33,11.87-.18,23.75-.37,35.62-.57,4.42-.07,8.84-.17,13.25-.25.41,0,.82,0,1.39,0,.04.58.1,1.07.09,1.55-.14,8.79-.31,17.58-.44,26.38-.22,14.45-.42,28.91-.64,43.36-.07,4.88-.17,9.76-.26,14.64-.02,1.22-.13,1.34-1.36,1.35-2.9.03-5.8.02-8.7.04-18.73.12-37.47.24-56.2.37-11.55.08-23.11.16-34.66.24-.45,0-.9-.04-1.54-.07ZM63.69,147.85c33.66-.24,67.15-.47,100.77-.71.45-28.58.89-57,1.34-85.57-.65,0-1.15,0-1.64,0-3.36.06-6.72.14-10.08.19-11.05.18-22.09.36-33.14.53-12.98.2-25.96.39-38.93.6-6.03.1-12.06.21-18.09.33-.4,0-.8.07-1.25.12.34,28.16.68,56.22,1.02,84.52Z"/>
    <path class="cls-6" d="M63.69,147.85c-.34-28.29-.68-56.35-1.02-84.52.46-.04.86-.11,1.25-.12,6.03-.11,12.06-.23,18.09-.33,12.98-.21,25.96-.4,38.93-.6,11.05-.17,22.09-.35,33.14-.53,3.36-.05,6.72-.13,10.08-.19.49,0,.99,0,1.64,0-.45,28.57-.89,56.99-1.34,85.57-33.62.24-67.1.47-100.77.71ZM147.55,86.27c-.08-.39-.17-.78-.25-1.17-1.08-.14-.6.9-1.11,1.23h-2.43c-.05-.66-.09-1.23-.12-1.73.82-.47,1.81.13,2.37-.77-.7-.79-1.64-.17-2.43-.56v-1.78c.86-.08,1.67-.15,2.36-.21.56.45.1,1.4,1.22,1.44.02-.43.09-.85.04-1.26-.13-1.06-.25-1.16-1.3-1.13-.6.02-1.19.08-1.79.15-.9.11-1.77.23-2.72.05-.7-.13-1.63-.15-2.29.49.32.36.83.67.83.99.01,1.33-.05,2.67-.24,3.98-.12.84-1.18,1.12-1.81.5-.32-.3-.58-.75-.68-1.17-.18-.76-.24-1.54-.32-2.32-.08-.76-.16-1.54.81-2-.49-.22-.91-.37-1.33-.38-.78-.03-1.56.04-2.34.04-1.31,0-1.3,0-1.82,1.21-.23.55-.53,1.07-.76,1.62-.22.51-.39,1.05-.67,1.81-.89-1.79-1.63-3.29-2.51-5.07-.49.73-1.35.36-1.6,1.16.95.58.95.58.97,1.71.01.64.04,1.29.07,1.93.04.92-.04,1.8-.93,2.36-.03.02.02.17.04.33.9.04,1.83.36,2.66-.39-.91-.99-1.05-1.87-.58-3.44.8,1.07.95,2.55,2.13,3.47,1.08-1.32.74-3.12,2.04-4.39-.15,1.54.38,2.91-.5,4.12,1.28.58,1.57.55,2.24-.13-.24-.42-.64-.81-.67-1.23-.09-1.28-.03-2.56-.03-3.97.53-.14,1.02-.27,1.61-.43.14,1.3.2,2.44.41,3.56.13.7.41,1.41.79,2.02.55.9,1.51,1.01,2.45.83.89-.17,1.27-.89,1.37-1.71.14-1.14.19-2.29.28-3.44.03-.39.06-.78.09-1.16,1.32,0,1.39.04,1.41,1.02.02,1.28,0,2.57,0,3.95-.14.11-.41.33-.7.57.52.66,1.16.47,1.72.48,1.01,0,2.02-.09,3.03-.06,1.07.03,1.09.04.98-1.15.93,1.09,2.58,1.52,3.96,1.02,1.41-.51,1.75-1.84.68-2.92-.34-.34-.84-.52-1.29-.74-.41-.2-.88-.29-1.26-.53-.24-.15-.55-.53-.49-.72.1-.35.38-.81.69-.91.49-.15,1.06-.04,1.53-.04.24.49.43.87.65,1.3.88-.96.66-2.09-.34-2.27-.58-.11-1.2-.13-1.78-.07-.94.1-1.56.75-1.74,1.7-.17.88.06,1.36,1.01,1.89.43.24.93.38,1.4.54.7.23,1.24.58,1.2,1.39-.49.56-1.09.47-1.68.57-1.08.17-1.17-.91-1.82-1.41-.27.47-.49.84-.7,1.21ZM115.45,95.82c0-.11,0-.23,0-.34,1.98-.45,3.96-.9,6.13-1.39-1.61-.66-3.04-.34-4.38-.01-2.67.65-5.3,1.49-7.94,2.26-1.29.38-2.56.79-3.85,1.19,2.57-1.91,5.66-2.48,8.75-3.53-.32-.13-.44-.23-.55-.22-1.23.17-2.46.32-3.68.56-3.19.61-6.1,2.04-9,3.42-2.09,1-3.62,2.54-3.66,4.89-2.54,1.48-4.98,2.84-7.37,4.31-4.25,2.61-7.66,6.05-9.8,10.59-.97,2.07-2,4.19-2.51,6.39-.59,2.58-.63,5.28-.9,7.93,0,.08.1.17.29.49.2-.76.32-1.28.48-1.79.53-1.71.98-3.46,1.63-5.12,1.35-3.41,3.49-6.24,6.44-8.45,3.22-2.4,6.92-3.76,10.67-5.03.51-.17.84-.05,1.24.27,1.29,1.01,3.51,1.06,4.73.04.67-.56,1.24-.63,1.99-.26,1.05.52,2.2.85,3.34.57,1.78-.42,3.46.78,5.26.16.42-.15,1.08.42,1.64.62,1.24.46,2.26,1.47,3.74,1.36.43-.03.91.39,1.33.67.54.35,1.03.78,1.56,1.14.78.52,1.58,1.01,2.38,1.51.04-.06.09-.11.13-.17-.11-.22-.22-.44-.42-.84,2.85,1.64,5.46,3.34,7.79,5.46-.96-1.53-2.07-2.89-3.54-3.94-1.02-.73-1.94-1.6-2.48-2.84,1.25,1.75,3.3,2.37,4.89,3.64,1.58,1.26,3.21,2.45,4.77,3.72,1.56,1.27,3.05,2.62,4.57,3.93-1.69-3.39-3.21-5.07-5.91-7.19-1.27-1-2.36-2.22-3.53-3.33,3.43,1.01,5.97,3.43,8.93,5.15-.63-.81-1.39-1.49-1.98-2.29-1.27-1.72-2.97-2.9-4.81-3.84-1.23-.62-2.32-1.24-2.85-2.59-.11-.28-.39-.51-.61-.74-1.04-1.02-2.08-2.03-3.26-3.17,2.45.62,4.63,1.37,6.38,3.05.32.31.9.87,1.05.78.92-.52,1.42.3,2.11.5.06.02.15-.05.3-.11-.12-.32-.24-.64-.45-1.21,1.87,1.15,3.08,2.67,4.51,3.92,1.43,1.25,2.87,2.5,4.48,3.89-.15-1.4-1.07-2.28-1.5-3.57,1.96,1.02,3.12,2.49,4.28,3.99.73.94,1.5,1.85,2.27,2.76.14.16.37.24.68.44-.57-1.05-1.02-1.95-1.54-2.81-.53-.88-1.13-1.71-1.7-2.56,1.27.85,2.41,1.82,3.56,2.77,1.14.94,2.25,1.89,3.05,3.17.29.46.74.81,1.1,1.23.32.38.62.78.94,1.16-.24-1.4-.83-2.61-1.88-3.44-1.85-1.46-3.09-3.39-4.44-5.24-.16-.22-.26-.49-.42-.81,3.82.9,5.34,4.04,7.28,6.77-.75-2.84-3.04-4.68-4.62-7.19,2,1.27,3.91,2.31,5.61,3.63,1.72,1.34,3.34,2.79,5.32,3.76-.05-.25-.15-.44-.3-.57-2.34-2.15-4.75-4.2-7.38-6.01-1.4-.96-2.58-2.24-3.86-3.37,2,.13,2.93,1.85,4.53,2.88-.07-.69-.45-.97-.76-1.26-1.1-1.04-2.19-2.09-3.33-3.09-1.41-1.24-2.87-2.43-4.3-3.66-2.23-1.9-4.72-3.3-7.51-4.23-1.54-.51-2.99-1.29-4.76-2.07,5.99-.28,11.33,1.63,16.86,2.29-1.63-1.25-3.39-2.18-5.39-2.64-2.5-.58-5-1.2-7.63-1.83,1.76-.45,3.32-.16,4.88.21,2.86.67,5.72,1.34,8.59,2,.27.06.55.04.83.06.02-.1.03-.2.05-.29-5.12-2.19-10.42-3.82-15.96-4.67.02-.09.03-.19.05-.28,2.81.24,5.61.49,8.42.73-.3-.27-.64-.48-1.01-.55-2.52-.5-5.03-1.08-7.57-1.42-2.09-.28-4.22-.24-6.33-.38-4.32-.29-8.64-.39-12.96.05-.41.04-.82,0-1.23,0ZM90.13,70.49c.43.84.81,1.48,1.09,2.17.49,1.19.89,2.41,1.37,3.6.09.21.38.46.58.47.2,0,.48-.24.59-.45.23-.44.36-.94.57-1.4.46-1.05.95-2.09,1.42-3.14.26-.57.71-.87,1.32-.71.53.14.59.63.56,1.12-.03.64-.05,1.29-.06,1.93-.01.97.2,2.01-1.01,2.54.98.53,4.45.59,5.76.15-.09-.69.33-1.49-.64-2.22-.22.57-.39,1-.56,1.46h-2.49v-1.57c.85-.48,1.96.33,2.57-.77-.72-.81-1.74-.07-2.52-.62v-1.74h2.15c.25.3.51.62.82.98.7-1.31.53-2.07-.41-2.07-2.24,0-4.47.04-6.71-.06-.21,0-.43.2-.78.38.42.34.72.59,1.05.86-.53,1.11-1.03,2.16-1.53,3.21-.45-1.29-1.93-2.36-.53-3.94-.93-.34-1.74-.86-2.59-.16ZM133.59,70.35c-.05-.13-.1-.27-.15-.4-.3-.02-.6-.07-.89-.04-.76.09-1.63.53-2.24.29-1.8-.7-3.53-.21-5.29-.08-.79.06-.92.36-.62,1.11.08.21.2.41.37.77.58-.99,1.14-1.22,1.96-.88,0,.47-.01.93,0,1.38.01.46.03.92.08,1.38.1.93.04,1.79-.75,2.45-.03.03.03.17.05.25,1.43.36,2.73,0,2.64-.79-.3-.18-.63-.39-.97-.6.09-1.45-.22-2.86.08-4.19.98-.44,1.41.23,2.06,1.06.12-.3.19-.48.27-.65.08-.19.17-.37.36-.76.29.38.63.63.6.82-.29,1.59.01,3.28-.77,4.86.76.26,1.47.34,2.17-.28-1.32-1.58-.31-3.24-.3-4.81.49-.32.92-.6,1.34-.89ZM88.81,82.87c.68,1.03,1.21,1.87,1.78,2.68.57.8.94,1.79,2.16,2.24.09-.4.22-.72.23-1.05.02-.64-.02-1.29-.04-1.93-.03-1.18-.07-2.37,1.15-3.1-.99-.7-2.17-.68-3.07.03.39.24.75.47,1.09.67-.1.97-.19,1.86-.3,2.99-.3-.37-.48-.55-.62-.76-.54-.85-1.05-1.72-1.6-2.58-.61-.95-1.45-1.11-2.27-.54.8,2.15.35,4.3.25,6.53.81.02,1.65.32,2.38-.61-.45-.26-.82-.48-1.14-.67v-3.92ZM149.97,74.23c-1.25-1.13-1.77-2.31-2.39-3.42-.6-1.08-1.04-1.23-2.24-.77-.09.03-.11.22-.2.41.34.17.65.32,1.03.52-.12,1.78.21,3.6-.68,5.36.82.2,1.58.4,2.39-.22-1.23-.98-.82-2.14-.6-3.62.9,1.3,1.59,2.37,2.36,3.39.19.25.58.36.88.53.14-.31.39-.61.41-.92.12-1.51.18-3.03.26-4.49.37-.31.68-.58,1.05-.9-1.24-.59-2.6-.54-3.38.12.46.24.87.45,1.34.7-.07,1.01-.14,2-.24,3.32ZM74.76,81.98c.29.36.77.7.83,1.09.21,1.31.3,2.64-.02,3.9-.44.21-.79.38-1.15.56.62,1.05,1.88,1.1,2.78.2-.68-.96-.69-1.03-.23-2.32,1.8-.3,1.89-.22,1.91,1.58,0,.41-.03.86.12,1.22.08.21.5.38.76.38.16,0,.5-.36.48-.52-.12-.94-.27-1.88-.53-2.78-.12-.43-.17-.7.13-1.09.47-.61.17-1.2-.25-1.75-.89-1.17-3.61-1.39-4.83-.6-.02.02-.01.09-.02.14ZM118.4,70.55q.95.74.99,2.04c.01.46.02.92.02,1.38,0,.85.07,1.73-.79,2.3,1.1.68,1.55.66,2.56-.09-.51-.53-1.21-1.05-.64-1.96.1-.04.22-.13.35-.15,1.79-.29,1.93-.16,2.11,1.64.03.32.21.75.46.89.39.23.89.22,1.04-.13-.34-1.11-.62-2.03-.89-2.9,1.05-1.31.82-2.44-.66-3.14-1.28-.61-2.65-.74-4.02-.28-.19.06-.33.26-.51.4ZM87.1,70.36l-.43.03c-.51,1.31-1.02,2.62-1.52,3.93-.36.95-.47,2.05-1.65,2.5,1.03.79,1.6.83,2.51.21-.36-.53-.7-1.1.1-1.7.27,0,.64-.05.99.01.38.07.83.15,1.07.4.42.44-.26.67-.35,1.03-.02.08.03.17.05.25,1.16.42,1.76.37,2.53-.29-1.36-.76-1.55-2.17-2-3.45-.25-.69-.46-1.4-.74-2.08-.13-.31-.38-.57-.57-.85ZM110.51,87.29c1.61.59,1.89.56,2.52-.12-.4-.55-.83-1.05-1.16-1.62-.37-.63-.63-1.32-.94-1.99-.37-.79-.72-1.59-1.13-2.36-.11-.2-.42-.43-.62-.4-.19.02-.38.32-.5.54-.1.19-.07.46-.15.67-.69,1.8-.78,3.83-2.07,5.47.69.49,1.29.38,1.82.08.07-.66.12-1.2.18-1.72q2.09-.03,2.62.61c-.17.24-.34.48-.58.83ZM118.34,76.03c-1.63-.33-1.18-1.86-1.83-2.83-.63-.93-.77-2.19-1.13-3.32-.67-.03-.66.5-.86.89-.92,1.83-1.2,3.98-2.84,5.52.74.72,1.53.5,2.48.24-.13-.28-.24-.46-.31-.65-.26-.74,0-1.12.75-1.17,1.54-.1,1.74.11,1.58,1.67,0,.07.09.15.18.28.62.09,1.29.25,1.97-.64ZM105.22,74.36c-.89.84-.83,1.59-.58,2.27.23.64.93.44,1.46.47.46.03.92.02,1.38-.03,1.63-.16,2.21-1.4,1.26-2.72-.29-.4-.72-.71-1.13-.98-.3-.2-.67-.28-1.02-.41-.46-.17-.94-.44-.73-.97.14-.36.57-.71.95-.83.39-.12.87.03,1.19.06.26.54.44.92.67,1.39.83-.56.61-1.26.48-1.82-.06-.26-.59-.5-.95-.57-.53-.11-1.1-.12-1.64-.06-.89.1-1.62.86-1.74,1.71-.13.93.2,1.47,1.19,1.93.33.15.7.23,1.02.4.62.33,1.16.73,1.08,1.57-.8.63-1.64.41-2.44.36-.15-.58-.26-1.04-.44-1.75ZM137.19,75.23c-1.55.91-1.89.84-3.06-.6-.78.74-.49,1.77.63,2.05.96.24,1.91.12,2.8-.39.62-.35.79-.85.58-1.52-.3-.99-.89-1.69-1.9-2.01-.39-.12-.83-.23-1.11-.49-.23-.21-.38-.65-.33-.96.03-.19.48-.41.76-.44.48-.05.98.04,1.35.06.39.5.01,1.34.89,1.33.63-1.75.26-2.36-1.48-2.42-.5-.02-1.03,0-1.49.15-1.06.36-1.41,1.33-.92,2.34.37.76,1.01,1.17,1.82,1.33.82.16,1.27.67,1.46,1.55ZM100.26,84.83c-.19-.7-.33-1.42-.6-2.1-.48-1.21-1.47-1.75-2.73-1.6-1.12.14-2.09.97-2.26,2.1-.11.71-.11,1.48,0,2.19.25,1.57,1.57,2.58,3.01,2.43,1.45-.15,2.45-1.37,2.58-3.02ZM145.02,75.98c-.45-.45-.9-.71-1.05-1.08-.5-1.31-.9-2.66-1.33-4-.07-.22-.1-.45-.2-.66-.23-.49-.67-.52-.94-.08-.11.19-.15.43-.23.64-.68,1.85-1.12,3.81-2.47,5.46.83.37,1.49.36,1.97,0,.11-.63.15-1.44.26-1.45.6-.05,1.23.1,1.84.18-.12.39-.24.77-.39,1.24.84.32,1.65.49,2.53-.26ZM77.56,77.04c2.05.6,4.15.13,5.3-1.14.32-.35.56-.86.61-1.33.19-1.91-1.32-4.09-3.49-3.89-.5.05-1.01-.01-1.52.04-.28.03-.55.19-.99.36,1.29.83.82,1.96.84,2.95.02,1,.36,2.11-.76,3.01ZM83.09,86.08c.73.12,1.41.09,1.94.36.73.38-.25,1.02.09,1.67.57-.03,1.17-.07,2.05-.12-.99-1.08-.84-2.32-1.6-3.27-.74-.91-.69-2.27-1.49-3.56-.35.66-.6,1.03-.76,1.43-.29.72-.54,1.46-.79,2.2-.36,1.05-.59,2.18-1.81,2.69q.83.68,1.97.39c.13-.56.25-1.1.41-1.79ZM73.74,81.8c-.6-.07-1.07-.06-1.5-.2-1.48-.46-3.15,1.03-3.56,2.38-.51,1.68,0,2.83,1.59,3.62.29.14.58.28.88.38,1.77.57,2.51.04,2.54-1.83,0-.09,0-.18,0-.28.01-.43,0-.91-.51-1-.59-.11-1.28-.31-1.65.6.42.21.79.4,1.26.63-.14.41-.26.77-.4,1.22-.69-.26-1.27-.42-1.79-.68-1.03-.51-1.38-1.22-.96-2.25.25-.6.71-1.18,1.22-1.59.68-.55,1.75-.33,2.15.34.17.28.25.69.63.47.19-.11.26-.53.28-.81.01-.3-.11-.61-.18-1.01ZM117.48,84.58c.42.81.57,1.51.13,2.45-.24-.79-.35-1.42-.62-1.98-.15-.32-.52-.7-.84-.75-.49-.08-.96.17-1.07.89.22.01.39.01.55.03.17.02.33.05.5.08-.17.24-.34.26-.49.32-.69.29-1.16.94-1.01,1.45.21.74.83.79,1.45.74.54-.04,1.08-.2,1.62-.25,1.11-.1,1.13-.08,1.09-1.12-.03-.66.04-1.2.81-1.28.79.72-.26,1.94.73,2.62.7-.85.73-2.67.07-3.29-.18-.17-.5-.28-.74-.26-.66.06-1.32.2-2.17.33ZM157.74,87.22c.29-1.62.26-1.73-.61-2.17-.12.38-.24.75-.39,1.21-.55.07-1.12.14-1.84.23.07-1.17.17-2.16.17-3.15,0-.95-.07-1.88.79-2.55-1.2-.7-2.88-.5-2.89.36.32.14.67.3,1.08.48-.12,1.95.36,3.95-1,5.97,1.72-.14,3.16-.25,4.68-.37ZM100.52,81.46c.35.44.9.82.88,1.17-.09,1.61.7,3.33-.76,5.04,1.84.17,3.37.19,4.95.02.08-.81.16-1.43-.66-1.84-.5,1.24-1.41,1.02-2.42.75v-4.36c.33-.23.63-.43,1.01-.69-1.3-.67-2.1-.67-3-.09ZM158.09,80.89c.5.36,1.2.33,1.11,1.03-.22,1.74.26,3.6-.91,5.28.94.09,1.83.33,2.67-.36-.97-.86-.95-.86-.93-2.03.02-1.05,0-2.1,0-3.11.2-.14.3-.22.41-.29.12-.07.27-.09.36-.18.31-.33.21-.79-.23-.81-.79-.03-1.64-.26-2.5.48ZM124.49,87.45c-.17-.8-.35-1.43-.44-2.07-.1-.73-.1-1.47-.2-2.19-.03-.23-.29-.42-.61-.87-.08.6-.13.86-.15,1.13-.03.27-.03.54-.04.73-.46.18-.87.27-1.2.5-.71.48-.9,1.49-.5,2.36.36.79.78.97,1.82.75.49-.1.97-.23,1.34-.32ZM103.04,69.54v2.96c.77,0,1.05-.22,1.16-.96.14-.89-.3-1.7-1.16-2Z"/>
    <path class="cls-7" d="M115.45,95.82c.41,0,.82.04,1.23,0,4.32-.43,8.64-.34,12.96-.05,2.11.14,4.24.1,6.33.38,2.54.34,5.05.92,7.57,1.42.37.07.71.28,1.01.55-2.81-.24-5.61-.49-8.42-.73-.02.09-.03.19-.05.28,5.54.85,10.84,2.48,15.96,4.67-.02.1-.03.2-.05.29-.28-.02-.56,0-.83-.06-2.86-.66-5.72-1.33-8.59-2-1.56-.37-3.12-.66-4.88-.21,2.64.63,5.13,1.25,7.63,1.83,2,.46,3.76,1.39,5.39,2.64-5.53-.66-10.87-2.57-16.86-2.29,1.77.78,3.22,1.56,4.76,2.07,2.79.93,5.28,2.33,7.51,4.23,1.43,1.22,2.89,2.41,4.3,3.66,1.14,1,2.23,2.05,3.33,3.09.31.29.69.57.76,1.26-1.6-1.04-2.53-2.75-4.53-2.88,1.28,1.13,2.47,2.41,3.86,3.37,2.63,1.81,5.04,3.86,7.38,6.01.15.14.25.32.3.57-1.98-.97-3.6-2.42-5.32-3.76-1.7-1.32-3.61-2.36-5.61-3.63,1.58,2.51,3.87,4.35,4.62,7.19-1.94-2.73-3.46-5.88-7.28-6.77.16.31.26.58.42.81,1.35,1.85,2.6,3.78,4.44,5.24,1.05.83,1.64,2.04,1.88,3.44-.31-.39-.61-.79-.94-1.16-.36-.42-.81-.77-1.1-1.23-.8-1.27-1.91-2.23-3.05-3.17-1.16-.95-2.29-1.91-3.56-2.77.57.85,1.17,1.69,1.7,2.56.52.86.97,1.76,1.54,2.81-.31-.19-.54-.28-.68-.44-.77-.91-1.54-1.82-2.27-2.76-1.16-1.49-2.32-2.97-4.28-3.99.43,1.3,1.34,2.17,1.5,3.57-1.61-1.39-3.05-2.64-4.48-3.89-1.43-1.25-2.64-2.77-4.51-3.92.21.57.33.89.45,1.21-.14.06-.23.13-.3.11-.68-.2-1.19-1.02-2.11-.5-.16.09-.73-.47-1.05-.78-1.75-1.69-3.93-2.44-6.38-3.05,1.18,1.14,2.22,2.15,3.26,3.17.23.22.5.46.61.74.53,1.35,1.62,1.97,2.85,2.59,1.85.93,3.54,2.12,4.81,3.84.59.8,1.35,1.48,1.98,2.29-2.96-1.73-5.49-4.14-8.93-5.15,1.17,1.12,2.26,2.34,3.53,3.33,2.7,2.12,4.22,3.8,5.91,7.19-1.52-1.31-3.02-2.66-4.57-3.93-1.56-1.28-3.2-2.46-4.77-3.72-1.59-1.27-3.64-1.89-4.89-3.64.53,1.24,1.46,2.1,2.48,2.84,1.47,1.05,2.58,2.41,3.54,3.94-2.33-2.11-4.93-3.81-7.79-5.46.2.4.31.62.42.84-.04.06-.09.11-.13.17-.79-.5-1.6-.99-2.38-1.51-.54-.36-1.02-.79-1.56-1.14-.42-.27-.91-.7-1.33-.67-1.49.11-2.5-.91-3.74-1.36-.56-.21-1.21-.77-1.64-.62-1.8.62-3.49-.58-5.26-.16-1.14.27-2.29-.06-3.34-.57-.75-.37-1.32-.3-1.99.26-1.22,1.02-3.44.96-4.73-.04-.41-.32-.73-.44-1.24-.27-3.75,1.27-7.45,2.63-10.67,5.03-2.96,2.2-5.1,5.04-6.44,8.45-.66,1.66-1.1,3.41-1.63,5.12-.16.51-.28,1.04-.48,1.79-.19-.32-.3-.41-.29-.49.27-2.65.31-5.35.9-7.93.5-2.21,1.53-4.32,2.51-6.39,2.14-4.55,5.55-7.99,9.8-10.59,2.38-1.46,4.83-2.83,7.37-4.31.05-2.35,1.58-3.9,3.66-4.89,2.9-1.38,5.8-2.81,9-3.42,1.22-.23,2.45-.38,3.68-.56.1-.01.23.09.55.22-3.1,1.05-6.18,1.62-8.75,3.53,1.28-.4,2.56-.81,3.85-1.19,2.64-.78,5.27-1.62,7.94-2.26,1.34-.33,2.78-.65,4.38.01-2.17.49-4.15.94-6.13,1.39,0,.11,0,.23,0,.34ZM148.52,101.68l.06-.28c-.33-.13-.66-.28-1-.39-3.96-1.35-7.97-2.52-12.14-3.03-.96-.12-1.96-.25-3.12-.93,2.6-.33,4.89.32,7.17.06-.62-.22-1.25-.39-1.88-.44-3.76-.29-7.51-.64-11.27-.79-3.45-.14-6.9-.06-10.34.35-.63.08-1.34.25-2.12-.39.86-.37,1.56-.67,2.26-.98-4.41.59-8.36,2.81-12.77,3.32,1.09-1.34,2.88-1.5,4.29-2.63-.35,0-.55-.05-.69,0-2.11.91-4.22,1.81-6.3,2.77-.57.27-1.1.7-1.55,1.15-.96.96-1.63,2.07-1.41,3.44-2.12,1.18-4.25,2.27-6.28,3.52-3.95,2.43-7.57,5.2-9.92,9.37-2.02,3.6-3.82,7.24-4.11,11.45-.03.5-.11,1-.17,1.49.53-.77.81-1.59,1.1-2.41,1.61-4.48,4.34-8.09,8.4-10.61,3.3-2.05,6.91-3.39,10.76-4.49.1,1.03.85,1.3,1.62,1.4,1.11.14,2.23.07,3.08-.82.52-.55,1.11-.69,1.73-.29,2.03,1.31,4.35.28,6.47.82.07.02.16-.09.24-.1.38-.05.79-.18,1.15-.11.81.17,1.59.45,2.38.68.08.02.17-.02.26-.03-.03-.2-.06-.39-.13-.89,2.61,1.47,4.89,2.94,7.28,4.44-.02-.41-.04-.73-.07-1.33,1.51,1.58,3.17,2.47,4.81,3.4-.84-1.19-1.95-2.13-2.7-3.62,1.08.24,1.8.62,2.4,1.31.42.47.92.89,1.44,1.25.86.61,1.8,1.12,2.64,1.76,2.31,1.77,4.59,3.59,6.88,5.39.07-.06.14-.12.21-.17-.25-.36-.44-.76-.75-1.06-1.02-.99-2.08-1.94-3.12-2.92-1.27-1.2-2.54-2.39-3.78-3.63-.37-.37-.76-.82-.54-1.49,1.21.64,2.4,1.21,3.52,1.89,1.12.67,2.17,1.44,3.25,2.17-.22-.6-.55-1.1-1.01-1.41-1.29-.87-2.61-1.72-3.98-2.45-.68-.36-1.17-.78-1.58-1.43-1.13-1.81-2.61-3.32-4.4-4.47-1.11-.71-2.28-1.31-3.42-1.97.56-.06,1.07.03,1.55.21,2.36.88,4.68,1.92,7.09,2.61.87.25,1.5.67,2.2,1.11.49.3.97.62,1.45.93.04-.06.09-.11.13-.17-.33-.54-.65-1.07-.98-1.61,3.67,1.93,6.2,5.17,9.58,7.52-.16-.99-1.17-1.53-.95-2.82,1.4,1.05,2.65,1.98,3.96,2.95-.2-.43-.37-.81-.61-1.33,2.1.39,2.85,2.45,4.67,3.13-.57-1.38-1.95-2.22-2.23-3.91,1.16.44,2.08.8,3.27,1.26-.61-.81-1.02-1.36-1.44-1.91.09-.09.17-.18.26-.27,1.13.71,2.25,1.41,3.38,2.12.07-.1.14-.2.21-.3-1.89-1.62-3.77-3.24-5.72-4.92,1.17.02,1.94,1.27,3.56.92-.48-.33-.77-.48-1.01-.68-1.37-1.15-2.73-2.31-4.1-3.47-1.8-1.53-3.83-2.68-6.02-3.57-2.55-1.04-5.1-2.06-7.65-3.09-.06-.02-.08-.14-.14-.26,1.38-.05,2.74-.19,4.09-.13,1.14.05,2.28.28,3.41.5,2.75.53,5.49,1.11,8.24,1.65.31.06.63.03.94.05.01-.11.02-.21.03-.32-4.13-1.72-8.55-2.41-12.91-3.53.4-.12.81-.24,1.23-.37-.25-.23-.49-.45-.73-.67.04-.09.08-.18.12-.27,1.36.28,2.73.56,4.09.86,1.35.29,2.69.6,4.03.91,1.38.32,2.75.66,4.12.99Z"/>
    <path class="cls-2" d="M147.53,86.24c.11,1.2.09,1.19-.98,1.16-1.01-.03-2.02.07-3.03.06-.56,0-1.2.19-1.72-.48.3-.24.56-.45.7-.57,0-1.38.02-2.66,0-3.95-.02-.98-.09-1.01-1.41-1.02-.03.38-.06.77-.09,1.16-.09,1.15-.14,2.3-.28,3.44-.1.82-.48,1.54-1.37,1.71-.94.18-1.9.07-2.45-.83-.37-.61-.65-1.32-.79-2.02-.21-1.12-.27-2.26-.41-3.56-.59.16-1.08.29-1.61.43,0,1.41-.05,2.7.03,3.97.03.41.43.8.67,1.23-.67.68-.96.71-2.24.13.88-1.21.35-2.58.5-4.12-1.3,1.27-.97,3.06-2.04,4.39-1.18-.92-1.33-2.4-2.13-3.47-.47,1.57-.33,2.45.58,3.44-.83.75-1.76.42-2.66.39-.02-.16-.07-.31-.04-.33.89-.56.97-1.43.93-2.36-.02-.64-.05-1.29-.07-1.93-.02-1.12-.02-1.12-.97-1.71.25-.8,1.11-.43,1.6-1.16.88,1.77,1.62,3.28,2.51,5.07.28-.76.45-1.3.67-1.81.23-.55.53-1.07.76-1.62.51-1.21.51-1.2,1.82-1.21.78,0,1.56-.07,2.34-.04.42.01.84.16,1.33.38-.97.46-.89,1.24-.81,2,.08.78.14,1.56.32,2.32.1.42.37.87.68,1.17.63.61,1.69.34,1.81-.5.19-1.31.25-2.65.24-3.98,0-.31-.51-.62-.83-.99.67-.64,1.59-.62,2.29-.49.95.18,1.81.07,2.72-.05.59-.07,1.19-.13,1.79-.15,1.05-.03,1.17.07,1.3,1.13.05.41-.02.83-.04,1.26-1.12-.04-.67-.99-1.22-1.44-.69.06-1.49.13-2.36.21v1.78c.8.4,1.74-.23,2.43.56-.56.9-1.56.3-2.37.77.04.5.08,1.07.12,1.73h2.43c.51-.33.03-1.37,1.11-1.23.08.39.17.78.25,1.17l-.02-.03Z"/>
    <path class="cls-2" d="M90.13,70.49c.85-.69,1.66-.17,2.59.16-1.4,1.59.08,2.66.53,3.94.5-1.05,1.01-2.11,1.53-3.21-.33-.27-.63-.51-1.05-.86.35-.17.57-.38.78-.38,2.24.09,4.47.07,6.71.06.94,0,1.11.76.41,2.07-.3-.37-.57-.68-.82-.98h-2.15v1.74c.78.56,1.8-.19,2.52.62-.61,1.1-1.72.3-2.57.77v1.57h2.49c.18-.45.34-.88.56-1.46.96.73.55,1.54.64,2.22-1.31.45-4.78.39-5.76-.15,1.21-.54,1-1.57,1.01-2.54,0-.64.03-1.29.06-1.93.03-.49-.03-.98-.56-1.12-.6-.16-1.06.14-1.32.71-.48,1.04-.96,2.09-1.42,3.14-.2.46-.33.96-.57,1.4-.11.21-.39.45-.59.45-.2,0-.49-.26-.58-.47-.48-1.19-.89-2.41-1.37-3.6-.28-.68-.66-1.33-1.09-2.17Z"/>
    <path class="cls-2" d="M133.59,70.35c-.43.28-.86.56-1.34.89-.01,1.58-1.03,3.23.3,4.81-.7.62-1.4.54-2.17.28.78-1.58.48-3.27.77-4.86.03-.18-.31-.44-.6-.82-.19.39-.28.58-.36.76-.08.17-.14.35-.27.65-.65-.83-1.08-1.49-2.06-1.06-.29,1.33.01,2.74-.08,4.19.34.21.68.42.97.6.09.8-1.21,1.15-2.64.79-.02-.09-.08-.23-.05-.25.79-.65.85-1.52.75-2.45-.05-.46-.07-.92-.08-1.38-.01-.45,0-.91,0-1.38-.83-.34-1.38-.11-1.96.88-.18-.36-.29-.56-.37-.77-.3-.75-.17-1.05.62-1.11,1.76-.13,3.5-.62,5.29.08.61.24,1.48-.19,2.24-.29.29-.04.59.02.89.04.05.13.1.27.15.4Z"/>
    <path class="cls-2" d="M88.81,82.87v3.92c.32.19.69.4,1.14.67-.72.93-1.57.63-2.38.61.1-2.22.55-4.38-.25-6.53.82-.57,1.66-.41,2.27.54.54.85,1.06,1.72,1.6,2.58.13.21.32.39.62.76.11-1.13.2-2.03.3-2.99-.33-.21-.69-.43-1.09-.67.89-.71,2.08-.73,3.07-.03-1.22.73-1.18,1.92-1.15,3.1.01.64.06,1.29.04,1.93-.01.33-.13.65-.23,1.05-1.22-.45-1.59-1.44-2.16-2.24-.57-.81-1.1-1.65-1.78-2.68Z"/>
    <path class="cls-2" d="M149.97,74.23c.1-1.32.17-2.31.24-3.32-.48-.25-.88-.46-1.34-.7.78-.66,2.14-.71,3.38-.12-.37.32-.69.58-1.05.9-.08,1.46-.14,2.98-.26,4.49-.03.32-.27.62-.42.92-.3-.17-.69-.27-.88-.53-.76-1.02-1.46-2.09-2.36-3.39-.22,1.48-.63,2.64.6,3.62-.81.62-1.57.42-2.39.22.89-1.76.56-3.58.68-5.36-.38-.19-.69-.35-1.03-.52.09-.19.12-.38.2-.41,1.19-.46,1.63-.31,2.24.77.62,1.11,1.14,2.29,2.39,3.42Z"/>
    <path class="cls-2" d="M74.76,81.98s0-.12.02-.14c1.22-.78,3.94-.56,4.83.6.42.55.71,1.15.25,1.75-.3.39-.26.66-.13,1.09.26.91.41,1.85.53,2.78.02.16-.31.52-.48.52-.27,0-.68-.17-.76-.38-.15-.36-.11-.81-.12-1.22-.03-1.81-.11-1.88-1.91-1.58-.46,1.29-.46,1.36.23,2.32-.9.9-2.16.85-2.78-.2.36-.17.71-.34,1.15-.56.32-1.26.22-2.59.02-3.9-.06-.4-.54-.73-.83-1.09ZM76.72,84.45c.93-.29,1.64-.5,2.39-.73-.78-1.22-1.2-1.4-2.39-1.18v1.91Z"/>
    <path class="cls-2" d="M118.4,70.55c.18-.15.32-.34.51-.4,1.38-.45,2.74-.32,4.02.28,1.48.7,1.71,1.83.66,3.14.26.86.55,1.79.89,2.9-.15.35-.65.36-1.04.13-.25-.14-.43-.57-.46-.89-.18-1.81-.32-1.93-2.11-1.64-.13.02-.25.11-.35.15-.57.91.13,1.42.64,1.96-1.01.75-1.45.77-2.56.09.87-.57.79-1.44.79-2.3,0-.46,0-.92-.02-1.38q-.04-1.3-.99-2.04ZM123.31,72.28c-.62-1.27-1.7-1.36-2.98-1.3.04.73.07,1.39.11,2.13,1.11-.12,2.07-.06,2.87-.83Z"/>
    <path class="cls-2" d="M87.1,70.36c.2.28.45.54.57.85.28.68.49,1.38.74,2.08.45,1.27.65,2.69,2,3.45-.76.66-1.37.71-2.53.29-.02-.08-.07-.18-.05-.25.09-.36.77-.6.35-1.03-.24-.25-.7-.33-1.07-.4-.35-.06-.73-.01-.99-.01-.8.61-.47,1.17-.1,1.7-.9.62-1.48.58-2.51-.21,1.17-.45,1.28-1.55,1.65-2.5.5-1.31,1.01-2.62,1.52-3.93l.43-.03ZM86.19,74.32c.61-.04.97-.07,1.44-.1-.2-.64-.36-1.14-.59-1.89-.32.76-.53,1.24-.85,1.99Z"/>
    <path class="cls-2" d="M110.51,87.29c.24-.35.41-.59.58-.83q-.53-.64-2.62-.61c-.05.52-.11,1.06-.18,1.72-.53.3-1.13.41-1.82-.08,1.29-1.64,1.38-3.66,2.07-5.47.08-.21.05-.47.15-.67.12-.22.31-.52.5-.54.19-.02.51.2.62.4.41.77.76,1.57,1.13,2.36.31.66.58,1.35.94,1.99.33.57.76,1.07,1.16,1.62-.63.68-.91.71-2.52.12ZM108.74,84.78h1.63c-.33-.66-.59-1.2-.96-1.96-.26.77-.43,1.27-.67,1.96Z"/>
    <path class="cls-2" d="M147.55,86.27c.21-.37.43-.74.7-1.21.65.5.74,1.58,1.82,1.41.59-.09,1.2,0,1.68-.57.04-.81-.5-1.16-1.2-1.39-.48-.16-.97-.3-1.4-.54-.95-.53-1.17-1.01-1.01-1.89.18-.94.8-1.6,1.74-1.7.59-.06,1.2-.03,1.78.07,1,.18,1.22,1.31.34,2.27-.22-.43-.41-.81-.65-1.3-.48,0-1.04-.11-1.53.04-.31.09-.59.55-.69.91-.05.18.26.57.49.72.38.24.85.33,1.26.53.45.21.95.4,1.29.74,1.07,1.08.73,2.41-.68,2.92-1.38.5-3.03.08-3.96-1.02,0,0,.01.03.01.03Z"/>
    <path class="cls-2" d="M118.34,76.03c-.68.89-1.35.72-1.97.64-.09-.13-.19-.21-.18-.28.15-1.56-.05-1.77-1.58-1.67-.76.05-1.01.44-.75,1.17.07.19.18.37.31.65-.95.26-1.74.48-2.48-.24,1.64-1.54,1.92-3.7,2.84-5.52.2-.39.19-.92.86-.89.36,1.13.5,2.39,1.13,3.32.66.96.2,2.49,1.83,2.83ZM115.45,73.6c-.16-.32-.29-.6-.53-1.07-.2.51-.31.79-.43,1.1.2.05.34.1.47.1.13,0,.26-.07.49-.13Z"/>
    <path class="cls-2" d="M105.22,74.36c.18.71.3,1.17.44,1.75.81.06,1.65.27,2.44-.36.08-.83-.46-1.24-1.08-1.57-.32-.17-.69-.25-1.02-.4-.99-.45-1.32-1-1.19-1.93.12-.84.85-1.61,1.74-1.71.54-.06,1.11-.05,1.64.06.35.07.89.31.95.57.13.55.35,1.25-.48,1.82-.22-.47-.41-.85-.67-1.39-.33-.03-.81-.18-1.19-.06-.38.12-.81.47-.95.83-.2.53.27.8.73.97.34.13.72.21,1.02.41.41.28.84.59,1.13.98.96,1.32.37,2.56-1.26,2.72-.46.05-.92.05-1.38.03-.53-.03-1.23.17-1.46-.47-.25-.67-.3-1.43.58-2.27Z"/>
    <path class="cls-2" d="M137.19,75.23c-.19-.88-.64-1.39-1.46-1.55-.81-.16-1.45-.57-1.82-1.33-.49-1-.14-1.98.92-2.34.46-.16.99-.17,1.49-.15,1.74.06,2.11.67,1.48,2.42-.88.01-.49-.82-.89-1.33-.38-.02-.87-.11-1.35-.06-.28.03-.73.25-.76.44-.05.3.11.75.33.96.28.26.72.37,1.11.49,1.02.32,1.6,1.02,1.9,2.01.2.66.03,1.16-.58,1.52-.89.51-1.84.63-2.8.39-1.12-.28-1.41-1.31-.63-2.05,1.17,1.44,1.51,1.51,3.06.6Z"/>
    <path class="cls-2" d="M100.26,84.83c-.12,1.65-1.12,2.87-2.58,3.02-1.45.15-2.76-.86-3.01-2.43-.12-.71-.11-1.47,0-2.19.17-1.14,1.14-1.96,2.26-2.1,1.26-.15,2.25.39,2.73,1.6.27.67.4,1.4.6,2.1ZM99.15,84.57c-.09-.31-.22-.93-.43-1.53-.25-.69-.85-.94-1.52-.97-.6-.03-1.39.57-1.49,1.21-.11.66-.12,1.36-.01,2.02.14.92,1.04,1.65,1.78,1.61.89-.05,1.66-.98,1.68-2.35Z"/>
    <path class="cls-2" d="M145.02,75.98c-.87.75-1.69.58-2.53.26.15-.47.27-.86.39-1.24-.62-.08-1.24-.23-1.84-.18-.11,0-.15.83-.26,1.45-.48.36-1.14.37-1.97,0,1.35-1.65,1.79-3.61,2.47-5.46.08-.22.12-.45.23-.64.26-.45.7-.41.94.08.1.2.13.44.2.66.43,1.34.83,2.69,1.33,4,.14.37.6.63,1.05,1.08ZM142.34,73.72c-.17-.44-.27-.71-.46-1.22-.22.54-.34.84-.5,1.22h.96Z"/>
    <path class="cls-2" d="M77.56,77.04c1.12-.9.78-2.01.76-3.01-.02-.99.45-2.13-.84-2.95.44-.17.71-.33.99-.36.5-.05,1.01,0,1.52-.04,2.17-.2,3.68,1.98,3.49,3.89-.05.46-.3.98-.61,1.33-1.15,1.27-3.26,1.74-5.3,1.14ZM79.27,76.59c.74-.22,1.37-.32,1.93-.58,1.57-.72,1.88-2.1.83-3.49-.68-.91-1.59-1.17-2.76-.89v4.95Z"/>
    <path class="cls-2" d="M83.09,86.08c-.16.68-.28,1.23-.41,1.79q-1.14.29-1.97-.39c1.22-.51,1.45-1.64,1.81-2.69.25-.74.5-1.47.79-2.2.16-.4.41-.77.76-1.43.8,1.28.75,2.65,1.49,3.56.76.94.62,2.19,1.6,3.27-.88.05-1.48.09-2.05.12-.34-.65.64-1.29-.09-1.67-.52-.27-1.2-.24-1.94-.36ZM83.95,83.68c-.21.69-.34,1.09-.5,1.63.45-.03.74-.05,1.17-.07-.22-.51-.39-.9-.67-1.56Z"/>
    <path class="cls-2" d="M73.74,81.8c.08.39.2.7.18,1.01-.01.28-.09.7-.28.81-.38.22-.46-.18-.63-.47-.4-.68-1.47-.89-2.15-.34-.51.41-.98.99-1.22,1.59-.42,1.03-.07,1.74.96,2.25.53.26,1.1.42,1.79.68.15-.45.27-.8.4-1.22-.47-.23-.84-.42-1.26-.63.37-.91,1.06-.71,1.65-.6.5.09.52.57.51,1,0,.09,0,.18,0,.28-.03,1.87-.77,2.4-2.54,1.83-.3-.1-.6-.24-.88-.38-1.6-.79-2.1-1.94-1.59-3.62.41-1.35,2.08-2.84,3.56-2.38.43.13.9.12,1.5.2Z"/>
    <path class="cls-2" d="M117.48,84.58c.85-.14,1.5-.28,2.17-.33.24-.02.56.1.74.26.66.62.63,2.44-.07,3.29-.99-.68.06-1.9-.73-2.62-.77.07-.84.61-.81,1.28.04,1.04.02,1.03-1.09,1.12-.54.05-1.08.2-1.62.25-.61.05-1.24,0-1.45-.74-.15-.51.32-1.15,1.01-1.45.15-.06.32-.08.49-.32-.17-.03-.33-.06-.5-.08-.16-.02-.33-.02-.55-.03.11-.72.57-.98,1.07-.89.32.05.68.43.84.75.27.56.38,1.18.62,1.98.44-.94.29-1.64-.13-2.45Z"/>
    <path class="cls-2" d="M157.74,87.22c-1.52.12-2.96.24-4.68.37,1.35-2.01.88-4.02,1-5.97-.41-.18-.76-.34-1.08-.48,0-.86,1.69-1.06,2.89-.36-.87.67-.79,1.61-.79,2.55,0,.99-.1,1.99-.17,3.15.72-.09,1.29-.16,1.84-.23.15-.46.27-.83.39-1.21.87.44.9.55.61,2.17Z"/>
    <path class="cls-2" d="M100.52,81.46c.9-.58,1.7-.58,3,.09-.38.26-.68.46-1.01.69v4.36c1.01.27,1.92.49,2.42-.75.82.41.74,1.03.66,1.84-1.58.17-3.11.15-4.95-.02,1.45-1.71.66-3.42.76-5.04.02-.35-.53-.73-.88-1.17Z"/>
    <path class="cls-2" d="M158.09,80.89c.86-.74,1.71-.51,2.5-.48.44.02.54.48.23.81-.09.09-.24.11-.36.18-.11.06-.21.15-.41.29,0,1.01.02,2.06,0,3.11-.03,1.18-.04,1.18.93,2.03-.84.69-1.73.45-2.67.36,1.17-1.68.69-3.54.91-5.28.09-.69-.61-.66-1.11-1.03Z"/>
    <path class="cls-2" d="M124.49,87.45c-.37.09-.86.22-1.34.32-1.04.22-1.45.04-1.82-.75-.4-.86-.21-1.88.5-2.36.33-.22.75-.31,1.2-.5.01-.19.02-.46.04-.73.03-.26.07-.52.15-1.13.33.45.58.65.61.87.11.73.1,1.47.2,2.19.09.64.27,1.27.44,2.07ZM122.65,85.2c-.67.57-.69,1.03-.41,1.5.07.12.31.22.43.19.14-.03.35-.25.34-.36-.06-.39-.19-.76-.36-1.34Z"/>
    <path class="cls-2" d="M103.04,69.54c.86.3,1.3,1.11,1.16,2-.11.74-.39.96-1.16.96v-2.96Z"/>
    <path class="cls-5" d="M148.52,101.68c-1.37-.33-2.74-.67-4.12-.99-1.34-.31-2.69-.62-4.03-.91-1.36-.3-2.73-.57-4.09-.86-.04.09-.08.18-.12.27.24.22.48.44.73.67-.42.13-.83.25-1.23.37,4.36,1.12,8.78,1.81,12.91,3.53-.01.11-.02.21-.03.32-.31-.01-.64.01-.94-.05-2.75-.54-5.49-1.12-8.24-1.65-1.13-.22-2.27-.45-3.41-.5-1.35-.06-2.71.08-4.09.13.06.12.08.24.14.26,2.55,1.04,5.1,2.05,7.65,3.09,2.18.89,4.21,2.04,6.02,3.57,1.36,1.16,2.73,2.32,4.1,3.47.24.2.52.36,1.01.68-1.62.35-2.39-.9-3.56-.92,1.95,1.67,3.83,3.29,5.72,4.92-.07.1-.14.2-.21.3-1.13-.71-2.25-1.41-3.38-2.12-.09.09-.17.18-.26.27.41.55.83,1.1,1.44,1.91-1.18-.45-2.11-.81-3.27-1.26.28,1.68,1.66,2.53,2.23,3.91-1.82-.68-2.57-2.74-4.67-3.13.24.52.41.9.61,1.33-1.3-.97-2.56-1.91-3.96-2.95-.22,1.28.79,1.83.95,2.82-3.37-2.35-5.9-5.59-9.58-7.52.33.54.65,1.07.98,1.61-.04.06-.09.11-.13.17-.48-.31-.96-.63-1.45-.93-.7-.44-1.33-.86-2.2-1.11-2.42-.69-4.73-1.73-7.09-2.61-.48-.18-.99-.27-1.55-.21,1.14.65,2.32,1.25,3.42,1.97,1.79,1.16,3.27,2.66,4.4,4.47.41.66.9,1.07,1.58,1.43,1.37.73,2.69,1.58,3.98,2.45.46.31.79.81,1.01,1.41-1.08-.73-2.13-1.5-3.25-2.17-1.13-.67-2.31-1.25-3.52-1.89-.21.67.18,1.12.54,1.49,1.23,1.24,2.51,2.43,3.78,3.63,1.04.98,2.1,1.93,3.12,2.92.3.3.5.7.75,1.06-.07.06-.14.12-.21.17-2.29-1.8-4.57-3.62-6.88-5.39-.84-.64-1.78-1.14-2.64-1.76-.52-.37-1.02-.78-1.44-1.25-.6-.68-1.32-1.07-2.4-1.31.75,1.49,1.86,2.43,2.7,3.62-1.64-.93-3.3-1.82-4.81-3.4.03.6.05.92.07,1.33-2.38-1.5-4.67-2.97-7.28-4.44.07.5.1.69.13.89-.09.01-.18.05-.26.03-.79-.23-1.58-.51-2.38-.68-.36-.08-.77.06-1.15.11-.08.01-.17.11-.24.1-2.12-.54-4.44.49-6.47-.82-.62-.4-1.21-.26-1.73.29-.85.89-1.96.97-3.08.82-.77-.1-1.52-.37-1.62-1.4-3.85,1.09-7.46,2.44-10.76,4.49-4.06,2.52-6.79,6.13-8.4,10.61-.29.81-.57,1.63-1.1,2.41.06-.5.14-.99.17-1.49.29-4.21,2.09-7.85,4.11-11.45,2.35-4.17,5.97-6.94,9.92-9.37,2.03-1.25,4.16-2.34,6.28-3.52-.22-1.37.45-2.48,1.41-3.44.45-.45.97-.88,1.55-1.15,2.08-.97,4.2-1.86,6.3-2.77.15-.06.34,0,.69,0-1.41,1.12-3.2,1.29-4.29,2.63,4.41-.51,8.37-2.73,12.77-3.32-.7.3-1.4.61-2.26.98.78.64,1.49.46,2.12.39,3.44-.42,6.89-.49,10.34-.35,3.76.15,7.52.5,11.27.79.63.05,1.25.22,1.88.44-2.28.26-4.57-.39-7.17-.06,1.16.68,2.16.81,3.12.93,4.17.51,8.18,1.67,12.14,3.03.34.12.67.26,1,.39l-.06.28ZM87.72,109.93c-1.77.99-3,2.52-4.15,4.14-2.01,1.76-2.95,4.15-3.89,6.57.44-.2.81-.45,1.1-.78.66-.77,1.3-1.55,1.9-2.37,1.77-2.37,3.73-4.55,6.01-6.45,3.55-2.97,7.45-5.19,12.08-5.96.12-.02.22-.15.3-.21-.78-.41-1.56-.82-2.46-1.29-1.4.63-2.93,1.27-4.4,2.02-.83.42-1.57,1.03-2.35,1.56-1.62.56-3.02,1.45-4.15,2.76ZM116.19,106.61c-.47-1.03-.59-2.05-1.98-2.05-4.42.02-8.81,0-13.12,1.29-4.64,1.38-8.96,3.31-12.69,6.44-.99.83-1.89,1.77-3.04,2.86.49-.04.65,0,.75-.06,3.12-1.9,6.41-3.37,10.01-4.1.27-.05.6-.28.73-.52.75-1.35,1.96-2.19,3.25-2.89,2.64-1.42,5.54-1.94,8.5-2.07,1.09-.05,2.2.11,3.28.27,1.39.21,2.77.53,4.31.83ZM127.26,106.62c-.3.93-.2,1.36.6,1.88.43.28.98.37,1.48.55.14-.83.67-.31,1.06-.31.23,0,.46-.03.69-.04,0-.05.01-.1.02-.15-.78-.27-1.56-.53-2.46-.84.34-.24.51-.35.78-.54-.77-.19-1.42-.36-2.17-.55ZM131.93,104.03c-1.09.36-1.96.77-2.87.9-.89.13-1.82-.04-2.74-.07,1.63,1.48,4.14,1.2,5.6-.83ZM123.05,109.4c-.61.04-1,.02-1.38.09-1.19.23-2.37.22-3.55-.1-.71-.19-.8-.15-1.87.21,1.86.75,5.46.73,6.8-.2ZM103.26,102.5c1.62.9,4.41.49,5.82-.92-1.05.25-2.01.69-2.94.64-.99-.05-1.9.25-2.88.28ZM136.5,108.34c.3.99,1.16,1.02,1.82,1.24,1.66.56,3.62.5,4.65-.21-1.26,0-2.31.13-3.3-.04-1.04-.17-2.03-.63-3.17-1ZM115.21,102.56c-1.9,0-3.54-.01-5.17.02-.2,0-.4.25-.67.43,1.43.64,4,.46,5.85-.45ZM101.3,109.36c.57.35,1.1.21,1.66.05,1.57-.47,2.6-1.67,3.74-2.72.04-.03-.06-.21-.15-.51-1.56,1.48-3.15,2.74-5.24,3.18ZM108.08,99.85c.79.71,1.54.44,2.14-.02.79-.61,1.48-1.36,2.19-2.06.11-.11.12-.33.18-.5-.82.46-1.39,1.12-2.11,1.57-.7.44-1.54.66-2.4,1.02ZM101.53,99.04c.09,1.71-1.12,2.54-2.11,3.55,1.21-.06,2.3-.98,2.72-2.14.22-.6.13-1.02-.61-1.41ZM137.46,106.09c-1.06.3-1.89.69-2.73.72-.88.03-1.78-.28-2.96-.49,1.89,1.38,4.31,1.28,5.69-.23ZM114.04,98.53c1.22.48,3.11-.15,4.02-1.3-.02-.04-.03-.09-.06-.12-.07-.05-.17-.14-.23-.12-1.24.5-2.47,1.01-3.74,1.54ZM120.98,102.27c-1.51.72-3.03,1.41-4.97,1.06,1.52,1.18,3.43.73,4.97-1.06ZM124.35,99.94c1.37,1.02,4.23,1.58,5.8,1.1-2.03-.38-3.8-.72-5.8-1.1ZM121.28,103.99c.61.95,1.4.63,2.04.59,1.45-.08,2.41-.63,2.88-1.49-3.56,1.53-2.89.97-4.92.9ZM121.71,100.2c0-.11,0-.22-.01-.33-1.89-.15-3.77-.3-5.66-.46,1.83.81,3.75.79,5.67.78ZM129.59,99.52c1.72,1.18,3.54,1.62,4.95,1.22-1.83-.45-3.39-.84-4.95-1.22ZM139.74,113.11c-.4-.64-.92-.98-2.06-1.35-.13.7-.11.81.58,1.61.59.69,1.12,1.52,2.23,1.42-.85-.54-1.62-1.14-2.21-2.25.61.24,1.02.4,1.46.57ZM125.12,107.15c.03-.1.06-.21.08-.31-.55-.13-1.1-.23-1.64-.4-.56-.17-1.11-.4-1.67-.59-.48-.16-.81-.82-1.65-.5,1.55,1.26,3.12,1.79,4.88,1.79ZM124.89,97.02c-2,.35-3.83,1.4-5.91,1.38,1.49.4,4.65-.34,5.91-1.38ZM110.59,106.52c-.64.42-1.25.9-1.92,1.25-.65.33-1.38.52-2.14.81,1.59.42,3.04-.25,4.07-2.06ZM116.56,107.36c-.7.28-1.38.67-2.1.8-.76.14-1.57.03-2.35.03.54,1.1,2.86.76,4.45-.83ZM112.22,110.7c.02-.12.04-.24.05-.35-.51-.04-1.03-.06-1.54-.12-.5-.05-.98-.17-1.48-.2-.47-.03-.87-.7-1.53-.14,1.47.88,2.96.94,4.49.81ZM145.37,114.89c-1.09-.63-1.85-1.28-2.96-1.3.35,1.28.41,1.31,2.96,1.3ZM117.51,111.27c-1.39-.42-2.82-.86-4.22-1.28,1,1.05,2.99,1.65,4.22,1.28ZM115.91,100.64c-1.45.26-2.91.39-4.63-.31,1.36,1.2,2.94,1.27,4.63.31ZM136.91,111.08c.07-.1.14-.19.2-.29-.63-.4-1.27-.79-1.89-1.21-.65-.44-1.27-.91-1.91-1.36.84,1.48,2.32,2.02,3.6,2.86ZM121.71,114.32c.05-.08.11-.16.16-.24-.81-.74-1.7-1.37-2.69-1.87-.09-.04-.32.21-.71.47,1.21.61,2.22,1.13,3.24,1.64ZM146.83,113.8c-1.29-.83-2.9-1.11-3.92-2.4.51,1.3,1.42,1.86,3.92,2.4ZM97.9,110.36c1.1.37,2.53-.89,2.91-2.68-.88,1.28-1.59,2.33-2.91,2.68ZM127.79,116.22c.07-.1.15-.19.22-.29-1.1-.88-2.47-1.31-3.57-2.18-.07.11-.13.22-.2.33,1.18.71,2.37,1.43,3.55,2.14ZM119.32,107.14c.05-.09.1-.17.15-.26-.95-.59-1.9-1.17-2.85-1.76.62,1.11,1.54,1.75,2.7,2.02ZM131.61,98.09c0-.13-.02-.27-.02-.4-.76,0-1.52.02-2.28,0-.78-.02-1.55-.08-2.33-.13,0,.12,0,.23-.01.35,1.54.27,3.1.11,4.64.19ZM104.08,103.73h-3.69c1.33.68,2.49.65,3.69,0ZM107,98.58c-1.06,1.04-1.97,1.94-2.87,2.83.07.07.14.13.21.2,1.04-.76,2.18-1.43,2.66-3.03ZM142.44,112.63c-.65-.31-1.18-.55-1.69-.82-.47-.25-.93-.52-1.4-.78,1.04,1.24,1.84,1.62,3.09,1.6ZM123.33,112.76c.03-.11.06-.22.09-.33-1.15-.32-2.3-.64-3.45-.96-.03.1-.06.2-.08.31,1.15.33,2.3.65,3.45.98ZM123.77,98.72c1.09.45,2.17.81,3.25.18-1.08-.06-2.17-.12-3.25-.18ZM124.13,111.4c.79.94,1.7,1.64,3.25,1.76-1.25-.68-2.25-1.22-3.25-1.76ZM104.58,110.49c-1.27-.12-2.54-.24-3.81-.36,1.15.9,2.49.52,3.81.36ZM99.14,111.13c0,.12,0,.23-.01.35h1.36c0-.09,0-.18,0-.27-.45-.03-.9-.05-1.36-.08ZM142.32,114.88c-.06.08-.12.16-.17.25.32.13.64.26.95.39.03-.07.06-.14.09-.21-.29-.14-.58-.29-.87-.43Z"/>
    <path class="cls-6" d="M76.72,84.45v-1.91c1.19-.23,1.61-.04,2.39,1.18-.75.23-1.46.45-2.39.73Z"/>
    <path class="cls-6" d="M123.31,72.28c-.8.77-1.77.71-2.87.83-.04-.74-.07-1.39-.11-2.13,1.29-.06,2.36.02,2.98,1.3Z"/>
    <path class="cls-6" d="M86.19,74.32c.32-.74.52-1.23.85-1.99.23.75.39,1.25.59,1.89-.47.03-.83.06-1.44.1Z"/>
    <path class="cls-6" d="M108.74,84.78c.24-.7.41-1.2.67-1.96.37.76.64,1.3.96,1.96h-1.63Z"/>
    <path class="cls-6" d="M115.45,73.6c-.23.07-.36.13-.49.13-.13,0-.26-.05-.47-.1.12-.31.23-.59.43-1.1.23.47.37.75.53,1.07Z"/>
    <path class="cls-6" d="M99.15,84.57c-.02,1.37-.79,2.29-1.68,2.35-.74.05-1.64-.69-1.78-1.61-.1-.66-.09-1.36.01-2.02.1-.64.89-1.24,1.49-1.21.66.03,1.27.27,1.52.97.21.6.35,1.22.43,1.53Z"/>
    <path class="cls-6" d="M142.34,73.72h-.96c.16-.38.28-.68.5-1.22.19.51.3.79.46,1.22Z"/>
    <path class="cls-6" d="M79.27,76.59v-4.95c1.17-.29,2.08-.02,2.76.89,1.05,1.39.73,2.76-.83,3.49-.56.26-1.19.36-1.93.58Z"/>
    <path class="cls-6" d="M83.95,83.68c.28.65.45,1.05.67,1.56-.43.03-.72.05-1.17.07.17-.54.29-.94.5-1.63Z"/>
    <path class="cls-6" d="M122.65,85.2c.16.58.3.95.36,1.34.02.11-.2.32-.34.36-.13.03-.37-.08-.43-.19-.28-.48-.25-.93.41-1.5Z"/>
    <path class="cls-7" d="M116.19,106.61c-1.54-.3-2.92-.62-4.31-.83-1.08-.17-2.19-.32-3.28-.27-2.96.13-5.85.65-8.5,2.07-1.3.69-2.51,1.53-3.25,2.89-.13.24-.46.47-.73.52-3.6.73-6.89,2.2-10.01,4.1-.1.06-.26.03-.75.06,1.15-1.09,2.05-2.03,3.04-2.86,3.73-3.12,8.06-5.05,12.69-6.44,4.31-1.28,8.71-1.27,13.12-1.29,1.39,0,1.51,1.01,1.98,2.05ZM101.23,106.42c-3.1.16-11.11,4.11-13.43,7.15.55-.24.96-.42,1.37-.59,2.11-.87,4.17-1.91,6.47-2.24.47-.07.79-.31,1.05-.77.29-.5.73-.96,1.2-1.3,1.1-.8,2.25-1.53,3.34-2.26ZM115.36,106.08c-.03-.78-.32-1.13-.93-1.13-1.13,0-2.26,0-3.4,0l-.03.23c1.41.29,2.81.59,4.35.91Z"/>
    <path class="cls-7" d="M91.87,107.17c.78-.53,1.52-1.13,2.35-1.56,1.47-.75,3-1.38,4.4-2.02.9.47,1.68.88,2.46,1.29-.08.06-.18.19-.3.21-4.63.77-8.53,2.99-12.08,5.96-2.27,1.9-4.24,4.08-6.01,6.45-.61.81-1.24,1.6-1.9,2.37-.28.33-.66.59-1.1.78.94-2.42,1.87-4.81,3.89-6.57,0,0-.02-.02-.02-.02-.46.72-.93,1.44-1.37,2.17-.29.49-.55,1-.82,1.5,4.97-5.69,10.31-10.75,17.81-12.85-.17-.82-.55-.88-1.13-.61-1.45.69-2.9,1.37-4.35,2.05-.61.29-1.23.56-1.85.83l.02.03Z"/>
    <path class="cls-7" d="M127.26,106.62c.75.19,1.4.35,2.17.55-.27.19-.44.31-.78.54.9.31,1.68.57,2.46.84,0,.05-.01.1-.02.15-.23.01-.46.04-.69.04-.39,0-.91-.53-1.06.31-.5-.18-1.05-.26-1.48-.55-.8-.53-.9-.95-.6-1.88Z"/>
    <path class="cls-7" d="M131.93,104.03c-1.46,2.03-3.98,2.31-5.6.83.92.04,1.85.2,2.74.07.91-.13,1.78-.55,2.87-.9Z"/>
    <path class="cls-7" d="M123.05,109.4c-1.35.93-4.94.96-6.8.2,1.07-.36,1.16-.4,1.87-.21,1.18.31,2.36.33,3.55.1.38-.07.77-.05,1.38-.09Z"/>
    <path class="cls-7" d="M103.26,102.5c.98-.02,1.88-.33,2.88-.28.93.05,1.89-.39,2.94-.64-1.41,1.41-4.2,1.82-5.82.92Z"/>
    <path class="cls-7" d="M136.5,108.34c1.13.37,2.13.82,3.17,1,1,.16,2.04.04,3.3.04-1.03.7-2.99.76-4.65.21-.65-.22-1.52-.24-1.82-1.24Z"/>
    <path class="cls-7" d="M115.21,102.56c-1.84.91-4.41,1.09-5.85.45.27-.18.47-.42.67-.43,1.64-.03,3.27-.02,5.17-.02Z"/>
    <path class="cls-7" d="M101.3,109.36c2.1-.44,3.68-1.7,5.24-3.18.09.29.19.47.15.51-1.14,1.05-2.17,2.26-3.74,2.72-.55.16-1.09.3-1.66-.05Z"/>
    <path class="cls-7" d="M108.08,99.85c.87-.36,1.7-.58,2.4-1.02.71-.45,1.29-1.11,2.11-1.57-.06.17-.06.39-.18.5-.71.71-1.4,1.45-2.19,2.06-.6.47-1.35.73-2.14.02Z"/>
    <path class="cls-7" d="M101.53,99.04c.74.39.83.81.61,1.41-.42,1.17-1.51,2.08-2.72,2.14.99-1.01,2.19-1.84,2.11-3.55Z"/>
    <path class="cls-7" d="M137.46,106.09c-1.38,1.51-3.8,1.61-5.69.23,1.18.21,2.08.52,2.96.49.84-.03,1.67-.42,2.73-.72Z"/>
    <path class="cls-7" d="M114.04,98.53c1.27-.53,2.5-1.04,3.74-1.54.05-.02.16.07.23.12.03.02.04.08.06.12-.91,1.15-2.8,1.77-4.02,1.3Z"/>
    <path class="cls-7" d="M120.98,102.27c-1.54,1.79-3.46,2.24-4.97,1.06,1.94.36,3.46-.33,4.97-1.06Z"/>
    <path class="cls-7" d="M124.35,99.94c2,.38,3.77.71,5.8,1.1-1.58.48-4.43-.08-5.8-1.1Z"/>
    <path class="cls-7" d="M121.28,103.99c2.04.07,1.36.63,4.92-.9-.47.87-1.43,1.42-2.88,1.49-.64.03-1.43.36-2.04-.59Z"/>
    <path class="cls-7" d="M121.71,100.2c-1.92,0-3.84.03-5.67-.78,1.89.15,3.77.3,5.66.46,0,.11,0,.22.01.33Z"/>
    <path class="cls-7" d="M129.59,99.52c1.56.39,3.12.77,4.95,1.22-1.41.4-3.23-.05-4.95-1.22Z"/>
    <path class="cls-7" d="M139.74,113.11c-.44-.17-.85-.33-1.46-.57.59,1.11,1.36,1.71,2.21,2.25-1.11.09-1.64-.74-2.23-1.42-.69-.8-.7-.91-.58-1.61,1.13.37,1.66.71,2.06,1.35Z"/>
    <path class="cls-7" d="M125.12,107.15c-1.76,0-3.33-.53-4.88-1.79.84-.32,1.17.34,1.65.5.56.19,1.11.42,1.67.59.54.16,1.09.27,1.64.4-.03.1-.06.21-.08.31Z"/>
    <path class="cls-7" d="M124.89,97.02c-1.26,1.04-4.42,1.78-5.91,1.38,2.08.01,3.92-1.03,5.91-1.38Z"/>
    <path class="cls-7" d="M110.59,106.52c-1.03,1.81-2.48,2.48-4.07,2.06.77-.28,1.49-.47,2.14-.81.68-.35,1.29-.83,1.92-1.25Z"/>
    <path class="cls-7" d="M116.56,107.36c-1.59,1.59-3.91,1.94-4.45.83.78,0,1.59.11,2.35-.03.73-.13,1.4-.52,2.1-.8Z"/>
    <path class="cls-7" d="M112.22,110.7c-1.53.13-3.03.07-4.49-.81.66-.57,1.06.11,1.53.14.5.03.99.15,1.48.2.51.05,1.02.08,1.54.12-.02.12-.04.24-.05.35Z"/>
    <path class="cls-7" d="M145.37,114.89c-2.55,0-2.61-.02-2.96-1.3,1.12.02,1.88.67,2.96,1.3Z"/>
    <path class="cls-7" d="M117.51,111.27c-1.23.37-3.22-.23-4.22-1.28,1.4.42,2.83.86,4.22,1.28Z"/>
    <path class="cls-7" d="M115.91,100.64c-1.69.95-3.26.89-4.63-.31,1.72.71,3.17.57,4.63.31Z"/>
    <path class="cls-7" d="M136.91,111.08c-1.27-.84-2.76-1.39-3.6-2.86.63.45,1.26.92,1.91,1.36.62.42,1.26.81,1.89,1.21-.07.1-.14.19-.2.29Z"/>
    <path class="cls-7" d="M121.71,114.32c-1.02-.51-2.04-1.03-3.24-1.64.39-.27.63-.51.71-.47.98.5,1.88,1.13,2.69,1.87-.05.08-.11.16-.16.24Z"/>
    <path d="M83.57,114.07c1.14-1.62,2.38-3.15,4.15-4.14l-.02-.03c-1.2,1.27-2.39,2.55-3.6,3.82-.14.15-.36.22-.55.33l.02.02Z"/>
    <path class="cls-7" d="M146.83,113.8c-2.5-.54-3.42-1.1-3.92-2.4,1.02,1.29,2.63,1.57,3.92,2.4Z"/>
    <path class="cls-7" d="M97.9,110.36c1.32-.36,2.03-1.4,2.91-2.68-.38,1.79-1.81,3.05-2.91,2.68Z"/>
    <path class="cls-7" d="M127.79,116.22c-1.18-.71-2.37-1.43-3.55-2.14.07-.11.13-.22.2-.33,1.1.87,2.47,1.3,3.57,2.18-.07.1-.15.19-.22.29Z"/>
    <path class="cls-7" d="M119.32,107.14c-1.16-.27-2.08-.9-2.7-2.02.95.59,1.9,1.17,2.85,1.76-.05.09-.1.17-.15.26Z"/>
    <path class="cls-7" d="M131.61,98.09c-1.55-.08-3.11.08-4.64-.19,0-.12,0-.23.01-.35.78.04,1.55.1,2.33.13.76.02,1.52,0,2.28,0,0,.13.02.27.02.4Z"/>
    <path d="M87.72,109.93c1.12-1.31,2.52-2.2,4.15-2.76,0,0-.02-.03-.02-.03-1.38.92-2.76,1.84-4.15,2.76l.02.03Z"/>
    <path class="cls-7" d="M104.08,103.73c-1.19.65-2.36.68-3.69,0h3.69Z"/>
    <path class="cls-7" d="M107,98.58c-.48,1.6-1.62,2.26-2.66,3.03-.07-.07-.14-.13-.21-.2.91-.89,1.81-1.78,2.87-2.83Z"/>
    <path class="cls-7" d="M142.44,112.63c-1.25.02-2.05-.36-3.09-1.6.47.26.93.53,1.4.78.51.26,1.03.5,1.69.82Z"/>
    <path class="cls-7" d="M123.33,112.76c-1.15-.33-2.3-.65-3.45-.98.03-.1.06-.2.08-.31,1.15.32,2.3.64,3.45.96-.03.11-.06.22-.09.33Z"/>
    <path class="cls-7" d="M123.77,98.72c1.08.06,2.17.12,3.25.18-1.08.63-2.16.27-3.25-.18Z"/>
    <path class="cls-7" d="M124.13,111.4c1,.54,1.99,1.08,3.25,1.76-1.54-.13-2.46-.82-3.25-1.76Z"/>
    <path class="cls-7" d="M104.58,110.49c-1.32.16-2.65.54-3.81-.36,1.27.12,2.54.24,3.81.36Z"/>
    <path class="cls-7" d="M99.14,111.13c.45.03.9.05,1.36.08,0,.09,0,.18,0,.27h-1.36c0-.12,0-.23.01-.35Z"/>
    <path class="cls-7" d="M142.32,114.88c.29.14.58.29.87.43-.03.07-.06.14-.09.21-.32-.13-.64-.26-.95-.39.06-.08.12-.16.17-.25Z"/>
    <path class="cls-6" d="M101.23,106.42c-1.09.73-2.25,1.46-3.34,2.26-.47.34-.91.8-1.2,1.3-.26.46-.58.7-1.05.77-2.3.33-4.35,1.37-6.47,2.24-.41.17-.82.35-1.37.59,2.32-3.04,10.34-7,13.43-7.15Z"/>
    <path class="cls-6" d="M115.36,106.08c-1.54-.32-2.95-.61-4.35-.91l.03-.23c1.13,0,2.26,0,3.4,0,.61,0,.9.35.93,1.13Z"/>
    <path class="cls-6" d="M87.7,109.9c1.38-.92,2.76-1.84,4.15-2.76.62-.28,1.24-.55,1.85-.83,1.45-.68,2.9-1.36,4.35-2.05.58-.28.96-.21,1.13.61-7.5,2.11-12.84,7.16-17.81,12.85.27-.5.53-1.01.82-1.5.44-.73.91-1.45,1.37-2.17.18-.11.4-.18.55-.33,1.21-1.26,2.4-2.54,3.6-3.82Z"/>
  </g>
</svg>