<?xml version="1.0" encoding="UTF-8"?>
<svg id="Layer_1" data-name="Layer 1" xmlns="http://www.w3.org/2000/svg" viewBox="0 0 180 200">
  <defs>
    <style>
      .cls-1 {
        fill: #fff;
      }

      .cls-1, .cls-2, .cls-3 {
        fill-rule: evenodd;
      }

      .cls-2, .cls-4 {
        fill: #231f20;
      }

      .cls-3 {
        fill: #ffda40;
      }

      .cls-4 {
        font-family: AmericanTypewriter-Bold, 'American Typewriter';
        font-size: 19.28px;
        font-weight: 700;
        letter-spacing: .02em;
      }
    </style>
  </defs>
  <g>
    <path class="cls-1" d="M52.55,77.6s-.26,13.86-.26,15.14-.26,11.81-.26,11.81l1.03,2.57s71.86.77,74.17.77,8.73-.51,13.09-.51,17.45.51,18.74.26,10.78-.51,11.55-.77.26.26.77-1.8.26-8.21.26-9.24-.77-14.12-.77-14.89v-3.85s-52.61.26-57.49-.26c-4.88-.51-20.02-.77-24.38-.77h-34.65l-1.8,1.54Z"/>
    <g>
      <path d="M168.17,80.78v5.48c-.85-.05-.99-1.28-1.41-1.9-.5-.74-2.68-3.13-3.5-3.13h-6.74v9.48c0,.07-.31.33-.23.57h3.54c.95,0,2.41-1.65,2.74-2.52.3-.78.1-2.25,1.03-2.28v10.28c-.75.06-.79-1.37-1.1-1.98-1.21-2.35-3.69-3.09-6.21-2.82.09,3.74.53,7.5.23,11.2,4.49-.27,8.8,1.8,11.39-3.13.52-.99.52-2.36,1.41-3.04v6.74c0,.05.43.3.11.34-1.52-.05-3.06.06-4.58,0-2.99-.09-5.94-.23-8.9-.23-2.63,0-5.27-.02-7.89-.01-.04-.57-.06-.39.34-.45.43-.06,3.07-.21,3.09-.36-.21-6-.32-12.02-.24-18.05.02-1.27.4-2.47.01-3.76-.22-.23-2.76.96-2.74-.45h19.66Z"/>
      <path d="M77.43,86.95c-1.01.17-1.11-1.22-1.56-1.98-1.44-2.42-3.01-3.74-5.98-3.73l-.46,22.17,2.82.04.38.64-11.05-.26-.37-.31c0-.57,2.64-.28,3.2-.34-.11-2.02-.15-4.04-.23-6.05-.02-.44-.22-.88-.24-1.36-.14-4.71.45-9.42.25-14.14-1.91-1-4.38.6-5.59,2.15-.74.95-.98,2.07-1.73,2.95l-.2-5.81c.1-.27.29-.32.55-.36.76-.13,2.48-.11,3.39-.14,1.39-.04,3.03.15,4.37.15,3.41,0,9.02-.48,12.13-.01.19.03.35.06.47.23.14.16-.13.29-.13.35v5.83Z"/>
      <path d="M121.05,80.82c.38,2.1.64,4.7-.53,6.58-.52.13-1.43-2.94-1.74-3.51-1.22-2.27-2.94-2.98-5.51-2.6-4.85.71-5.98,6.26-.64,7.83,4.15,1.22,7.36.57,9.35,5.5,1.1,2.73-.6,7.16-3.16,8.66-1.84,1.08-5.03,1.73-7.15,1.42-1.83-.27-3.51-1.71-5.52-1.05-.4.13-.24.85-.71.65l-.33-.55c.5-1.93.05-4.01.2-5.97.03-.4-.05-.75.36-1.01.4-.2.42.41.49.64.5,1.47.82,2.99,1.9,4.21,2.59,2.93,8.08,3.31,10.39-.07,1.21-1.76,1.05-3.32-.33-4.89-2.43-2.77-7.22-1.67-9.93-3.78-6.17-4.8-.83-13.97,7.21-12.23.88.19,2.54,1.06,3.08,1.06,1-.01,1.61-1.51,2.58-.88Z"/>
      <path d="M91.34,79.9l10.08,23.34c.59.73,2.19.16,2.98.5-.26.38-.62.33-1.02.36-1.96.14-4.19-.04-6.19-.02-1.29.01-2.59.53-3.99-.1-.36-.18-.06-.53.13-.57.44-.1,2.52.73,2.39-.12l-3.65-8.24-7.22-.27-3.75,8.51c.03.5,1.73.32,2.17.34.35.01.9-.21.8.34-.77.78-1.94.14-2.85.11-1.1-.04-2.22.05-3.32,0-.1-.59.09-.41.49-.52.61-.17,2.1-.07,2.27-.3l6.26-14.94,3.23-8.42h1.19ZM91.83,94.49l-3.54-8.23-3.3,7.67c-.2.35.96.56,1.02.56h5.83Z"/>
      <path d="M138,81.23c.58,4.9-.11,9.82-.01,14.75.01.65.22,1.2.25,1.81.08,1.87-.19,3.76.23,5.6.84-.01,1.61-.02,2.43.21.39.11.64-.17.53.49-2.24-.05-4.51.07-6.75.01-.66-.02-1.21-.24-1.82-.26-.71-.03-1.38.48-2.17.02-.32-.33.02-.41.34-.45.44-.06,2.32.09,2.41,0l.02-22.04c-3.77-.71-5.75,1.36-6.73,4.71-.07.23-.09.84-.49.64-.4-.27-.33-.61-.36-1.01-.12-1.55.12-3.14-.21-4.69l20.56-.69c.28,1.72,0,3.25,0,4.92,0,.42.6,1.82-.11,1.71-.93-.14-1.25-2.59-1.94-3.54-.4-.54-2.25-2.17-2.86-2.17h-3.31Z"/>
    </g>
  </g>
  <g>
    <polygon class="cls-3" points="27.99 77.39 5.04 110.98 6.19 112.43 49.97 110.91 34.24 82.02 29.56 76.56 27.99 77.39 27.99 77.39"/>
    <path class="cls-2" d="M26.15,81.75c-.83.36-.24-.83-1.07-.47-.4.14-.18.83-1,.58-.32,1.37-.64,2.72-1.93,3.22-.31,1.44.73,1.38,1.15,2.03-1.81,1.32-1.82,5.56-5.01,4.15.29.77,1.25.81,1.39,1.76-.69.35-1.2.49-1.53.6,1.11.9-.3.68-.72,1.34-1.11,1.73-1.71,4.44-3.66,4.87-.07,1.26-.53,2.17-1.71,2.43.66,1.35-.38.18-.74.82,1.67.32-1.07,1.14.1,1.82-1.85.39-1.4,2.87-2.68,3.78-.17-.45.24-1.54-.33-1.55,0,.41.08.9-.49.81-.28.86.85.15.57,1.01-1.08.27-.88,1.69-1.44,2.42,2.71-.6,7.11-.64,10.14-.5.04-.2-.02-.51.23-.53,10.08.92,18.12-.65,30.43-.98-.56-2.73-2.98-4.04-3.92-5.54-.31-2.31-2.5-2.54-2.59-5.08-1.17.17-1-.93-.86-1.52-1.04.02-1.97-1.66-1.14-2.03-.81.44-.87-.15-1.59-.44-1.88-5.68-6.37-9.68-8.52-14.17.01.26-.44.35-.52.02.32-.04.61-.11.5-.54-.73.25-.69-.33-1.32-.19-1.26,1.76-1.82,4.14-3.92,5.14.55.89-.19,1.27-.68,1.86-.32-1.03-.06-2.03.38-2.89.43-.02.18.71.56.75.06-1.12.95-3.24,1.71-2.17-.03-.36.09-.58.22-.79h0ZM41.34,93.76c1.54.22,1.13,2.58,2.74,2.73.04,1.68.91,2.47,1.97,3.02-.12,1.78.88,2.31,1.96,2.77.12.44-.18.5-.49.54.37.36,1.22.6.58,1.28.2-.15.41-.29.76-.3.12.52-.01.82-.48.81.52.66,2.02,2.08,1.17,2.55.27.44.84.53,1.58.44.15,2.13,1.32,3.12,1.31,5.41-.25-.15-.98-.56-.76.3-.47-.49-1.81-.01-1.87-.95-.58,1.02-1.78-.68-3.09.67-.79.13-.58-.82-.85-1.26-.74.26.37.64.07,1.3-.2-.17-.88-1.05-.78.04-3.63-.25-9.02-.27-12.24.08-.01-.26-.03-.51-.04-.78-1.17.69-2.55.83-3.64.18-.7,1.02-5.54,1.05-7.02.35-2.86,1.64-9.21.1-10.59,1.82-2.24-1.26-6.1.17-8.9-.86-.26-.82.17-1,.46-1.33-1.05-.04-.44-.2-.61-1.79,1.21-.39,1.71-1.42,1.68-2.95,1.21.19.52-1.34,1.77-1.13-.23-.79-.21-.49-.07-1.3,1.77.2.7-2.18,2.23-2.19-.18-.26-.61-.24-.56-.76,1.05.29.49-.88,1.53-.6-.02-.43-.04-.87-.06-1.3.22-.21.58-.31,1.02-.31,1.53-3.92,4.38-6.63,6-10.46.9-.02,1.18-.58.96-1.61.76.03.76-.63,1.53-.6.63-3.48,3.95-4.54,4.55-8.05,2.85-.64,2.17-4.48,4.95-5.19-.18-.26-.61-.24-.56-.75.86-.06,1.27-.51,2.33-.38,1.16.82-.31,1.34,1.36,1.23-1.07,1.18.34,4.61,1.51,4.09.38.07.07,1.97,1.38,1.76-.14.8.32.93.35,1.54,3.34,2.79,3.98,8.57,7.33,11.36.12.44-.18.5-.5.55h0Z"/>
    <text class="cls-4" transform="translate(17.34 107.51) scale(.79 1)"><tspan x="0" y="0">22</tspan></text>
  </g>
</svg>