<?xml version="1.0" encoding="UTF-8"?>
<svg id="Layer_1" data-name="Layer 1" xmlns="http://www.w3.org/2000/svg" viewBox="0 0 180 200">
  <defs>
    <style>
      .cls-1 {
        fill: #9d1c20;
      }

      .cls-1, .cls-2, .cls-3, .cls-4, .cls-5 {
        fill-rule: evenodd;
      }

      .cls-2 {
        fill: #fff;
      }

      .cls-3, .cls-6 {
        fill: #231f20;
      }

      .cls-4 {
        fill: #bbbdbf;
      }

      .cls-5 {
        fill: #ffda40;
      }

      .cls-6 {
        font-family: AmericanTypewriter-Bold, 'American Typewriter';
        font-size: 19.28px;
        font-weight: 700;
        letter-spacing: .02em;
      }
    </style>
  </defs>
  <g>
    <path class="cls-3" d="M93.02,86.72c.17,0,.19.14.22.27-.13.02-.21,0-.27-.05,0-.1.07-.12.05-.22h0Z"/>
    <path class="cls-2" d="M88.52,96.1c.08.02.13.45-.06.38-.03-.17.04-.25.06-.38h0Z"/>
    <path class="cls-3" d="M92.36,104.23c.08.03.14.08.22.11-.03.18-.29.11-.22-.11h0Z"/>
    <path class="cls-2" d="M87.92,87.77c-.06.57-.32.31,0,0h0Z"/>
    <path class="cls-3" d="M170.05,74.23c-.33.05-.37-.18-.73-.11-1.33-1.77-3.25-2.95-4.81-4.5-.37,0-.6-.16-.94-.21-1.45-.96-2.95-2.24-4.71-3.04-2.83-1.29-6.02-1.84-9.2-3.03-1.41-.52-2.68-.79-4.08-1.15-2.54-.65-4.66-1.42-7.43-1.57-2.8-.15-5.73-.77-8.37-.32-1.51-.53-3.58-.19-5.44-.21-1.72-.02-3.03.08-4.5,0-.58-.04-1.17-.29-1.78-.32-.53-.03-.95.16-1.47.21-.59.05-1.11-.14-1.78-.21-3.2-.33-6.43.68-9.73.84-3.42.16-6.12.41-9,1.26-.35.06-.2.64-.63.63-.93-.28-2.17-.21-3.24,0-2.38.47-5.67,2.04-7.95,2.61-.97.24-1.48.51-2.2.83.05.5.1.66-.21.95-.65.03-.88-.37-1.46-.42-6.41,3-11.53,7.3-16.95,11.3-1.98,1.89-3.63,3.8-5.33,6.07-.95,1.27-1.65,2.58-2.41,3.98-1.62,2.98-3.23,5.61-3.66,9.1-.22,1.8-.42,3.93-.21,5.96.16,1.53,1.1,2.87,1.15,4.39,1.28,1.86,1.69,4.09,3.03,5.65.27.32.67.52.94.94.47.71.79,1.49,1.36,2.09,1.12,1.18,2.48,2.21,3.66,3.24.56.49,1.02,1.1,1.57,1.57,3.04,2.6,7.13,4.25,10.99,5.75.91.35,1.86.32,2.82.63.25.08.38.35.63.42.29.09.64-.02.94.1.89.37,1.44,1.11,2.2,1.36.82.27,1.72.12,2.72.32.94.19,1.72.56,2.72.62.56.04,1.16-.05,1.78,0,.78.08,1.53.43,2.31.53.89.1,1.86-.01,2.82.1,1.12.13,2.25.64,3.24.63.99-.01,1.96-.37,2.93-.42,1.21-.07,2.36.43,3.56.42,1.13-.01,2.48-.41,3.55-.42,3.5,1.13,8.38-.84,12.35-.63.2.4-.63.56-.11.63,1.5-.28,3.2-.21,4.81-.52,2.45-.46,5.08-1.98,7.01-1.78.97-.76,2.41-1.09,3.56-1.36,1.31-.3,2.49-.31,3.87-.73.33-.05.28.28.52.32.05-.65.41-.47.74-.94,3.44-1.9,8.21-2.22,11.09-4.5,3.43-.54,5.22-2.45,8.16-3.87.3-.11.43-.11.73,0v-.53c1.06-.36,1.39-1.31,2.4-1.46.7-1.16,1.41-2.29,2.62-2.94.6-1,1.15-2.05,2.3-2.51.3-1.3,1.56-1.64,1.88-2.93.26-.11.4.49.42,0,.31-.14-.19-.36-.11-.63.25-.03.43-.21.63,0v-.63c1.17-1.03,1.53-2.87,2.72-3.87-.02-.5.26-.71.52-.94.21-1.08.88-1.7,1.36-2.51.07-1.44,1.17-2.73,1.68-4.08,0-.59.06-1.12.52-1.26.08-.32-.36-.13-.21-.52.94-1.2-.24-2.69.42-4.5-1.06-.76-.05-1.15-.21-2.2-.26-.13-.33.05-.42-.11-.1-1.35-.77-2.51-.94-3.45-.03.11-.17.25-.21.1-.42-.69-.58-1.69-.94-2.3-.05-.08-.25.08-.31,0-.42-.54-.58-1.5-.94-1.88-.69-.75-1.13-1.61-1.67-2.41-.3-.3.21-.33.11-.73-.47-.2-.14.42-.52.32-.3-.71-.18-.59-.53-1.26h0ZM157.5,121.72c-.71.12-.71.26-1.36.21-.66.78-2.11.76-3.14,1.15-.48.55-1.45,1.12-2.2,1.05-.8.58-1.74,1.51-2.93,1.36-.29.13-.3.53-.52.73-.39.05-.5.14-.73.52-1.96.62-3.77,1.13-5.34,1.78-.18.03-.39-.03-.62,0-1.62.22-3.21,1.13-4.82,1.57-.47.13-1,.01-1.46.1-1.49.29-2.81.75-4.08,1.15-.15-.02-.04-.31-.21-.32-.69.34-1.56.52-2.3.32-1.34.7-3.33.58-4.71,1.36-.5-.22-.9.16-1.36.11-.62-.07-1.17-.01-2.4.11-1.89.17-4.4.5-5.96.42-1.51.7-3.14-.07-4.5.83,0-.28-.29-.26-.42-.42-.65.55-1.82.04-2.51.63-1.66-.57-4.68-.86-6.7-.53-.04-.16-.33-.09-.21-.42-1.22-.08-1.85.34-3.04-.31-.38.32-.73.04-1.15,0-.49-.05-1.25.24-1.68.21-.69-.05-1.28-.23-1.67-.63-.27.45-.9-.09-1.15-.31-1.08-.09-1.65.15-2.51-.32-1.17.35-2.93-.89-4.18-.53-.28-.17-.67-.24-.94-.41h-1.05c-1.76-1.26-4.51-2.1-7.01-2.93-1.58.24-2.05-1.06-3.77-1.15-1.03-.64-2.27-1.08-3.45-1.57-.1-.26-.25-.45-.21-.84-.39-.11-.16.4-.52.32-.77-.53-1.09-1.14-2.3-1.36-1.27-1.57-3.32-1.95-4.18-3.77-.25,0-.3.18-.62.11.23-1.03-1.18-.87-1.26-1.88-.34-.13-.08.34-.42.21.51-.76-.83-.72-.63-1.78-.77.4-.97-.82-1.05-1.36-.92-.3-.79-1.65-1.78-1.88-.81-1.55-.9-3.39-2.09-4.39.24-1.25-.97-2.06-.52-2.83-.23-.22-.39-.53-.63-.74-.2-1.8-.35-2.77-.31-4.39.05-.22-.15-.2-.31-.21.37-.75.66-2.3.21-2.72.26-.34.03-1.61.42-1.46,0-1.15.14-1.59.11-3.03.51-.2.61-.71.52-1.26.61.16.32-.59.84-.52-.66-.66.18-1.05.21-1.88-.11-.29-.1.33-.31,0,.22-.72,1.21-.67,1.15-1.67.14.03.16.18.31.21-.12-.65.44-.61.52-1.05.06-.37-.37-.26-.32-.63.63-.21,1.03-.65,1.15-1.36.76.03.84-.62.83-1.36.47-.61.78-1.38,1.15-2.09.36.08.44-.12.63-.21-.07-.42.21-.48.31-.74,1.19-.68,1.54-3.04,3.24-3.56.06-.22.26-.3.21-.63.22-.05.28.07.42.11,1.38-1.48,3.11-2.6,4.39-4.18.77-.14,1.12-.69,1.57-1.15,1.46-1.04,3.32-1.7,4.6-2.93.53,0,1.61-.84,2.51-1.36,1.76-1,3.62-2.14,5.44-2.72.13-.21.43-.26.52-.52,1.24-.26,1.87-1.14,3.25-1.25.22-.26.59-.39.83-.63,1.78-.15,3.44-1.25,5.54-1.15.34.09.22-.28.42-.32,1.15-.05,2.36-.06,3.56-.52.2.01.35.07.42.21,3.21-1.29,7.9-1.59,11.72-1.78.33-.09.55-.28.84-.42,4.52-.26,9.21-.33,13.91.11,1.5.14,3.09-.1,4.6,0,2.44.16,4.78.11,7.22,0,3.47-.16,6.65,1.24,9.84,1.78.59.1,1.2-.03,1.78.11.95.22,1.87.79,2.82,1.04,1.36.36,2.82.43,4.08.94.61.25,1.05.54,1.67.74,1.24.37,2.68.74,3.56,1.46,1.33.05,2.14,1.11,3.25,1.05.05.16.15.26.2.42,3.9,1.5,7.39,3.42,9.52,6.69.09.18.37.19.52.32.06.22.26.3.21.63h.52c1.1.68,1.24,2.32,2.3,3.03,1.36,2.53,2.54,5.24,3.45,8.16.21.67.61,1.33.73,2.09.14.91.42,2,.42,2.93,0,.88-.63,1.88-.31,2.93.02.34-.33.3-.42.53-.98,4.19-2.49,7.84-4.29,11.19-.14.12-.16.04-.31,0-.59,1.4-.87,2.6-2.09,3.45-.42,1-1,1.85-1.78,2.51-.95,2.4-2.88,3.81-4.71,5.33-.5.89-1.13,1.66-2.2,1.99-.9.95-2.22,2.02-3.35,2.41-.2.25-.71,1.46-1.36,1.25.03.24-.02.4-.11.52h0Z"/>
    <path class="cls-4" d="M137.1,64.08h.42c.03-.24-.01-.4-.1-.52h-.31v.52h0ZM170.58,75.49c.38.1.05-.51.52-.32.1.41-.41.43-.11.73.54.8.98,1.66,1.67,2.41.36.39.52,1.35.94,1.88.07.08.27-.08.31,0,.36.61.52,1.61.94,2.3.03.15.18.01.21-.1.17.94.85,2.1.94,3.45.09.16.16-.03.42.11.15,1.04-.86,1.44.21,2.2-.65,1.81.52,3.3-.42,4.5-.15.39.29.2.21.52-.46.13-.51.67-.52,1.26-.5,1.36-1.6,2.64-1.68,4.08-.48.81-1.14,1.43-1.36,2.51-.26.22-.54.43-.52.94-1.19,1.01-1.55,2.84-2.72,3.87v.63c-.19-.21-.38-.03-.63,0-.08.27.41.48.11.63-.01.49-.16-.11-.42,0-.32,1.29-1.59,1.63-1.89,2.93-1.15.46-1.7,1.51-2.3,2.51-1.21.65-1.92,1.78-2.62,2.94-1.02.14-1.35,1.1-2.41,1.46v.53c-.29-.11-.43-.11-.73,0-2.95,1.42-4.73,3.33-8.16,3.87-2.88,2.28-7.64,2.6-11.09,4.5-.32.47-.68.29-.73.94-.24-.03-.19-.37-.52-.32-1.38.42-2.57.43-3.87.73-1.14.27-2.58.6-3.56,1.36-1.92-.2-4.56,1.32-7.01,1.78-1.61.31-3.31.25-4.81.52-.53-.07.3-.23.11-.63-3.97-.21-8.85,1.76-12.35.63-1.07,0-2.42.41-3.55.42-1.2.01-2.35-.49-3.56-.42-.96.05-1.94.41-2.93.42-.99.01-2.12-.49-3.24-.63-.96-.12-1.94,0-2.83-.11-.77-.09-1.53-.45-2.31-.53-.61-.05-1.22.04-1.78,0-1-.07-1.78-.44-2.72-.62-1-.2-1.91-.05-2.72-.32-.75-.25-1.3-.99-2.2-1.36-.3-.12-.65-.01-.94-.1-.24-.07-.38-.34-.63-.42-.96-.31-1.92-.28-2.83-.63-3.85-1.5-7.94-3.16-10.99-5.75-.55-.47-1.01-1.08-1.57-1.57-1.18-1.03-2.54-2.06-3.66-3.24-.57-.61-.88-1.38-1.36-2.09-.27-.42-.67-.62-.94-.94-1.35-1.56-1.75-3.79-3.03-5.65-.05-1.52-.99-2.87-1.15-4.39-.21-2.03-.01-4.16.21-5.96.43-3.49,2.04-6.12,3.66-9.1.76-1.4,1.45-2.71,2.41-3.98,1.71-2.27,3.35-4.18,5.33-6.07,5.42-4,10.54-8.29,16.95-11.3.58.05.81.45,1.46.42.31-.28.26-.45.21-.94.72-.33,1.23-.59,2.19-.83,2.28-.57,5.57-2.14,7.95-2.61,1.08-.21,2.31-.28,3.24,0,.43.01.27-.57.63-.63,2.88-.85,5.58-1.09,9-1.26,3.3-.16,6.54-1.17,9.73-.84.66.07,1.18.27,1.78.21.52-.05.93-.24,1.46-.21.61.03,1.2.28,1.78.32,1.47.08,2.78-.02,4.5,0,1.86.01,3.93-.32,5.44.21,2.64-.45,5.57.17,8.37.32,2.77.15,4.89.91,7.43,1.57,1.41.37,2.68.63,4.08,1.15,3.19,1.2,6.38,1.75,9.2,3.03,1.76.8,3.26,2.07,4.71,3.04.34.04.57.2.94.21,1.56,1.54,3.48,2.73,4.81,4.5.36-.08.4.16.73.11.34.66.22.55.53,1.26h0Z"/>
    <path class="cls-1" d="M128.61,66.25c.07.43.35,1.02.39,1.66,1.02-.86,2.09-1.94,3.79-1.81,1.63.1,1.58,2.2,1.81,3.69-.05.11-.11.22-.17.32.38.41.06,1.15.15,1.78.17,1.25.24,2.57.32,3.82.03.44.06.92,0,1.3-.05.3-.19.54-.07,1-.21.31-.87.3-1.14.09-.07-1.94-.25-3.91-.21-6.08-.32-1.49-.42-2.85-.65-4.14-.09-.11-.33-.28-.35-.62-.48-.17-.75.13-1.02.38-.03-.12.08-.11.03-.25-.03.13-.22.12-.18.31-.41,0-.75.67-1.17.95-.34.68-.49,1.52-.71,2.31-.19,1.99.05,3.99-.09,6.05-.04.53.03,1.38.03,2.09-.4.26-.84.18-1.16-.05.02-.29-.25-.57-.32-.82-.12-.48.04-.95.03-1.45-.09-3.45-.48-7.49-.48-10.5.23-.23.83-.26,1.14-.05h0Z"/>
    <path class="cls-1" d="M124.82,66.86c-.15,1.26-.5,2.56-.52,3.94,0,.13.11.12.11.14.07.38-.15.79-.15,1.17,0,.2.1.39.1.59,0,.41-.14.83-.14,1.26,0,.87.07,1.88-.03,2.6-.13.89.26,2.01-.16,2.86.03.48,0,.79.11,1.24-.22.26-.22.7-.53.89-.23-.22-.6,0-.91-.17-.48-.7-.71-1.61-1.1-2.4-.2-.4-.46-1-.86-1.33-.16.08-.25.32-.3.57-.05.3-.1.38-.24.72-.23.57-.27,1.33-.59,1.9-.06.11-.24.18-.27.27-.1.24-.1.51-.3.67-.42.34-1.16.2-1.52.28-.33-.37-.46-.95-.57-1.45-.17-.77-.25-1.48-.44-2.31-.14-.63-.41-1.23-.55-1.85-.17-.7-.25-1.4-.42-2.06-.07-.25-.24-.47-.31-.72-.12-.44-.11-.91-.21-1.33-.1-.41-.4-.8-.25-1.22,0,.05.01.1.01.14.09-.06-.01-.28.12-.31.24-.13.59.06.75-.01.11-.26-.18-.56-.07-.84.54-.29.93-.03,1.22.25-.29.54.13,1.12.14,1.69,0,.27-.14.58-.13.86.04.53.29,1.21.35,1.82.09.86.34,1.54.54,2.35.42.78.39,2.11.89,2.82.57-.88.61-2.21,1.08-3.19.05-.05.13-.08.25-.07-.26-.78.51-1.65,1.25-1.11.2.15.25.49.42.86.35.77.92,1.62,1.32,2.09.25-3.41.14-7.11.52-10.48.18-.5.08-1.03.43-1.44.13.12.21-.05.4-.03.22.21.42.13.58.35h0Z"/>
    <path class="cls-1" d="M93.58,83.91c.02-.14-.05-.29-.04-.45.02-.22.17-.44.19-.67.01-.09-.08-.23-.08-.34,0-.33.17-1.02.08-1.41-.13-.56-1.06-1.62-1.45-1.78-.65-.25-1.29.21-1.93.21-.52,1.16-.34,2.65-.1,4.16.25,1.52.18,3.04.6,4.14,1.34-.65,2.48-2.02,2.72-3.87h0ZM89.15,77.54c.07.27.23.45.31.72.71-.12,1.41-.36,2.13-.23.2.04.42.25.68.34.83.32.98.28,1.62.87.49.45,1.08,1.14,1.26,1.94.37,1.64.39,3.5.02,5.04-.62.58-1.09,1.29-1.58,1.98-.25.08-.53.29-.91.48-.69.33-1.8.34-1.49,1.32-.17.11-.42.16-.58.29.08,3.79.93,7.27,1.64,10.6-.41.09-.7-.02-.92-.27-.09-.82-.55-1.68-.75-2.44-.15-.54-.13-1.29-.27-2.02-.19-.96-.35-1.77-.49-2.86-.17-1.32-.25-2.62-.45-4.21-.35-2.73-.36-5.11-.8-7.72-.06-.38-.18-.74-.24-1.13-.06-.38-.02-.8-.24-1.12.4-.33.29-1.05.22-1.57.18-.25.64-.1.85-.02h0Z"/>
    <path class="cls-2" d="M106.25,77.4c0-.06.1-.05.16-.05.05.07.07.15.06.28-.21.06-.11-.18-.22-.22h0Z"/>
    <path class="cls-2" d="M110.2,79.71c.13.03.26.07.27.21-.14,0-.27,0-.27.11-.12-.03-.04-.29,0-.33h0Z"/>
    <path class="cls-2" d="M75.8,83.82c-.03.08-.08.14-.11.22-.19-.03-.11-.29.11-.22h0Z"/>
    <path class="cls-2" d="M76.79,85.19c.07.09.23.21.11.33-.13-.03-.23-.21-.11-.33h0Z"/>
    <path class="cls-3" d="M112.89,92.93c-.31.36-.95.4-1.32.6-.2.12-.31.35-.55.44-.11.04-.28-.03-.38,0-.12.03-.25.17-.39.22-.16.06-.36.05-.49.11-.31.13-.51.47-.82.6-.15.07-.4.04-.6.11-.56.18-.88.35-1.54.27-.26.4-.2.82-.22,1.32-.05,1.38-1.03,3.01-.5,4.28.9-.24,1.43-.53,2.14-.93.31-.17.4-.42.66-.61.4-.29,1.09-.45,1.53-.71.66-.38,1.44-1.02,2.08-1.32.58-.26,1.32.08,1.37.61.06.66-.86,1.77-1.15,2.58-.07.2-.04.41-.11.61-.17.47-.52.82-.66,1.21-.12.34-.07.71-.17,1.04-.13.47-.43,1.05-.66,1.48-.34.65-.79,1.24-1.15,1.87-.19.34-.31.71-.49,1.04-.23.42-.66,1.05-.82,1.42-.08.17-.05.37-.11.55-.33,1.01-1,1.7-1.48,2.58-.38.7-.59,1.47-1.04,2.08-.38,1.82-.42,4.04-.06,6.09,1.89-.32,2.97-1.46,4.61-2.03.86-.54,1.81-1.03,2.74-1.54.5-.27.94-.59,1.48-.82.52-.22,1.11-.36,1.53-.76-.16-1.77-.37-4.11.33-5.76-.39.25-.84.69-1.32.66-.27.43-.74.66-1.32.77-.1.14-.17.31-.33.38-.3-.09-.35.19-.49.28-.07.04-.23,0-.33.05-.17.08-.3.27-.44.33-.42.18-.94.2-1.32.38-.31.16-.51.5-.88.5-.21-.18-.55-.22-.6-.55-.06-.36.17-.43.38-.76.41-.66.79-1.65,1.32-2.53.52-.88,1.04-1.75,1.48-2.36.36-1.38,1.2-2.54,1.92-3.79.2-.34.25-.75.44-1.09.11-.2.32-.35.44-.55.3-.53.56-1.31.88-1.92.17-.32.53-.6.6-.87.14-.49.07-1.31.05-1.76-.04-1.69.6-4.06.55-5.7-1.78.54-2.84,1.54-4.83,1.92h0ZM119.42,89.86c-.04.23-.23.32-.33.49-.3,1.87-.61,4.03-.71,6.2-.06,1.25.05,2.32-.38,3.29-.11.11-.31.13-.44.22-.91,1.83-1.45,4.04-2.91,5.32-.34,2.16-2.05,2.96-2.3,5.21.42.04.68-.33,1.04-.55.67-.4,1.44-.69,2.14-1.1.29-.17.68-.48,1.04-.71.35-.22.84-.66,1.1-.66,1.09,0,.43,1.77.39,2.58-.02.37.04.76,0,1.15-.07.68-.25,1.37-.27,1.98,0,.21.11.39.11.6.01.75-.16,1.47,0,2.25-1.14.32-2.25.53-2.96,1.37-.07-.06-.19-.06-.33-.05-.88.39-1.53,1.16-2.63,1.37-1.3.88-2.87,1.49-4.28,2.25.01.02-.54-.04-.49-.06-.2.08-.19.36-.39.55-.04.04-.21,0-.27.06-.09.06-.09.21-.11.22-.07.04-.2-.04-.33,0-.28.09-.21.2-.66.17-.29-.03-.41-.02-.71-.28-.21-.71,0-1.48,0-2.14-.01-.72-.29-1.33-.33-1.98-.1-1.72.1-3.16.88-4.66.47-.91,1.04-1.62,1.53-2.63.52-1.45,1.08-2.84,1.76-4.28.19-.42.49-.84.66-1.26.13-.32.09-.72.22-1.04.12-.33.37-.65.49-.99.13-.37.24-.7.38-1.04.28-.65.7-1.33.66-2.09-.45-.07-.53.56-.82.16.03.26-.23.21-.38.33-.14.12-.25.4-.44.5-.05.03-.18-.04-.22,0-.27.21-.2.23-.6.38-.4.15-.64.78-1.15.5-.23.33-.63.5-.93.76-.29.25-.56.54-.88.77-.33-.14-.5-.11-.71-.33-.17-2.95.29-5.41.55-7.9.16-.13.43-.16.55-.33.92-.11,1.64-.41,2.31-.77,1.44-.46,3.06-1.21,4.67-1.92.23-.1.38-.29.6-.38.49-.21,1.06-.29,1.54-.5.34-.14.63-.38.93-.54.35-.19.7-.24,1.04-.38.6-.23,1.09-1,1.87-.71.21.08.37.41.55.61h0Z"/>
    <path class="cls-1" d="M117.72,91.01c.05,1.65-.59,4.02-.55,5.7.01.45.08,1.26-.05,1.76-.08.27-.44.55-.6.87-.32.62-.57,1.39-.88,1.92-.12.2-.33.35-.44.55-.19.34-.24.75-.44,1.09-.72,1.25-1.56,2.4-1.92,3.79-.44.61-.96,1.48-1.48,2.36-.53.88-.91,1.86-1.32,2.53-.21.33-.44.41-.38.76.05.33.39.37.6.55.36,0,.57-.33.88-.5.37-.19.9-.2,1.32-.38.14-.06.28-.25.44-.33.1-.05.25,0,.33-.05.15-.09.19-.37.49-.27.16-.08.23-.25.33-.38.58-.11,1.04-.34,1.32-.77.48.03.93-.41,1.32-.66-.7,1.65-.49,3.99-.33,5.76-.43.41-1.02.55-1.53.77-.55.24-.98.55-1.48.82-.93.51-1.88,1-2.75,1.54-1.64.58-2.72,1.71-4.61,2.03-.37-2.05-.32-4.27.06-6.09.45-.62.66-1.39,1.04-2.08.48-.88,1.15-1.58,1.48-2.58.06-.18.03-.37.11-.55.16-.38.59-1,.82-1.42.18-.34.3-.7.49-1.04.36-.62.81-1.21,1.15-1.87.23-.43.53-1.01.66-1.48.09-.33.04-.7.16-1.04.14-.38.49-.74.66-1.21.07-.2.04-.41.11-.61.29-.81,1.22-1.92,1.15-2.58-.05-.52-.8-.86-1.37-.6-.65.29-1.42.94-2.09,1.32-.44.25-1.14.43-1.53.71-.26.19-.35.43-.66.61-.72.4-1.25.69-2.14.93-.53-1.26.45-2.9.5-4.28.01-.5-.05-.92.22-1.32.66.08.98-.09,1.54-.27.21-.07.45-.05.6-.11.31-.14.52-.47.83-.61.13-.06.34-.05.49-.11.13-.05.27-.19.39-.22.11-.03.28.04.39,0,.23-.09.34-.33.55-.44.37-.2,1.01-.24,1.32-.6,1.98-.38,3.04-1.38,4.83-1.92h0Z"/>
    <path class="cls-3" d="M128.43,85.96c-.31.36-.95.4-1.32.6-.2.11-.31.35-.55.44-.11.04-.28-.03-.39,0-.11.03-.25.17-.38.22-.16.06-.37.05-.5.11-.3.14-.51.47-.82.61-.15.06-.4.04-.61.11-.56.18-.87.35-1.54.28-.26.4-.2.82-.22,1.32-.05,1.38-1.02,3.01-.49,4.28.89-.25,1.42-.53,2.14-.94.31-.17.4-.42.66-.6.4-.29,1.09-.46,1.54-.71.67-.38,1.44-1.03,2.09-1.32.58-.26,1.32.08,1.37.61.06.66-.87,1.77-1.15,2.58-.07.2-.04.41-.11.6-.17.47-.52.83-.66,1.21-.12.34-.07.71-.16,1.04-.13.47-.43,1.05-.66,1.49-.34.65-.79,1.24-1.15,1.87-.2.34-.32.71-.49,1.04-.23.42-.66,1.05-.82,1.42-.08.17-.05.38-.11.55-.33,1-1,1.7-1.48,2.58-.38.7-.6,1.47-1.04,2.09-.37,1.82-.42,4.04-.05,6.09,1.89-.33,2.97-1.45,4.61-2.03.86-.54,1.81-1.03,2.74-1.54.5-.27.94-.59,1.48-.82.52-.22,1.11-.36,1.54-.77-.16-1.78-.37-4.11.33-5.76-.39.25-.84.69-1.32.66-.27.42-.73.66-1.32.77-.1.14-.17.31-.33.38-.3-.09-.35.19-.49.28-.07.04-.23,0-.33.05-.16.08-.3.26-.44.33-.42.18-.94.19-1.32.38-.32.16-.52.5-.88.5-.21-.18-.55-.22-.61-.55-.06-.36.18-.44.38-.77.41-.66.79-1.65,1.32-2.53.52-.88,1.04-1.75,1.48-2.36.36-1.39,1.2-2.54,1.92-3.79.2-.34.25-.75.44-1.1.11-.2.32-.35.44-.55.31-.53.56-1.3.88-1.92.16-.32.52-.6.6-.88.14-.49.07-1.31.05-1.76-.04-1.68.6-4.06.55-5.7-1.79.55-2.84,1.53-4.83,1.92h0ZM134.95,82.89c-.04.23-.23.32-.33.49-.31,1.87-.61,4.03-.72,6.2-.06,1.26.05,2.32-.38,3.29-.12.11-.31.13-.44.22-.91,1.84-1.45,4.04-2.91,5.32-.34,2.17-2.05,2.96-2.3,5.21.43.04.68-.33,1.04-.55.67-.4,1.44-.69,2.14-1.09.29-.17.68-.48,1.04-.71.35-.22.84-.66,1.1-.66,1.08.01.43,1.77.39,2.58-.02.37.04.76,0,1.15-.07.68-.25,1.36-.28,1.97,0,.21.11.39.11.6.01.75-.16,1.47,0,2.25-1.14.32-2.25.54-2.97,1.37-.06-.06-.19-.06-.33-.05-.88.39-1.52,1.16-2.63,1.37-1.3.88-2.87,1.49-4.28,2.25.01.03-.54-.03-.49-.05-.2.08-.18.36-.39.55-.03.03-.21,0-.27.05-.09.07-.09.21-.11.22-.07.04-.2-.04-.33,0-.28.09-.22.2-.66.17-.29-.03-.41-.02-.71-.28-.22-.71,0-1.48,0-2.14-.01-.73-.29-1.33-.33-1.98-.1-1.72.1-3.15.88-4.66.47-.92,1.04-1.62,1.53-2.63.52-1.45,1.08-2.84,1.76-4.28.2-.42.49-.84.66-1.26.12-.32.1-.72.22-1.04.13-.33.37-.65.49-.99.14-.37.24-.7.38-1.05.28-.64.7-1.32.66-2.08-.45-.07-.53.56-.82.16.03.25-.23.2-.39.33-.14.12-.25.39-.44.5-.05.03-.17-.04-.22,0-.27.21-.2.23-.61.38-.4.15-.63.78-1.15.49-.23.34-.63.51-.93.76-.29.26-.56.55-.88.77-.33-.14-.5-.1-.71-.33-.17-2.95.29-5.41.55-7.9.16-.13.42-.16.55-.33.92-.11,1.64-.41,2.3-.76,1.44-.46,3.06-1.21,4.67-1.92.22-.1.38-.29.6-.38.49-.22,1.06-.29,1.54-.5.33-.14.64-.38.93-.55.35-.19.7-.24,1.04-.38.6-.24,1.09-.99,1.86-.71.21.07.36.41.55.6h0Z"/>
    <path class="cls-1" d="M133.25,84.04c.05,1.65-.59,4.02-.55,5.7.01.45.08,1.26-.05,1.76-.08.28-.44.56-.6.88-.32.62-.58,1.39-.88,1.92-.11.2-.33.36-.44.55-.19.35-.24.76-.44,1.09-.72,1.25-1.56,2.4-1.92,3.79-.44.61-.96,1.47-1.48,2.36-.52.88-.9,1.87-1.32,2.53-.21.33-.44.41-.38.77.06.32.4.37.61.55.36,0,.56-.33.88-.5.37-.19.9-.2,1.32-.38.14-.07.28-.25.44-.33.1-.05.26-.01.33-.05.15-.09.19-.37.49-.28.16-.07.23-.25.33-.38.58-.11,1.05-.34,1.32-.77.48.03.93-.41,1.32-.66-.7,1.65-.49,3.98-.33,5.76-.43.41-1.02.55-1.54.77-.54.23-.98.55-1.48.82-.93.51-1.88,1-2.74,1.54-1.64.58-2.72,1.7-4.61,2.03-.37-2.05-.32-4.27.05-6.09.45-.61.67-1.38,1.04-2.08.48-.88,1.15-1.58,1.48-2.58.06-.17.03-.38.11-.55.16-.38.59-1,.82-1.43.18-.33.3-.7.49-1.04.36-.62.81-1.22,1.15-1.87.23-.43.53-1.01.66-1.49.09-.33.04-.7.16-1.04.14-.38.49-.74.66-1.21.08-.19.04-.41.11-.6.29-.81,1.22-1.92,1.15-2.58-.05-.52-.79-.87-1.37-.6-.64.29-1.42.93-2.09,1.32-.44.25-1.13.43-1.54.71-.26.18-.35.43-.66.6-.71.41-1.24.68-2.14.94-.53-1.26.44-2.9.49-4.28.02-.5-.04-.92.22-1.32.66.07.98-.09,1.54-.28.21-.07.46-.04.61-.11.31-.13.52-.47.82-.61.13-.06.34-.05.5-.11.13-.05.27-.19.38-.22.11-.03.28.04.39,0,.23-.09.34-.33.55-.44.37-.2,1.01-.24,1.32-.6,1.99-.39,3.04-1.38,4.83-1.92h0Z"/>
    <path class="cls-1" d="M100.93,96.22h.11c.59,1.77.03,4.12.11,6.25.11,2.96-.43,6.05-.49,9-.08,3.67-.56,7.13-.55,10.48-1.25.38-1.74,1.51-3.02,1.86-.52-2.69.14-5.58,0-8.67-.08-1.75.08-3.57,0-5.37-.17-3.96-.16-7.48-.27-11.14.43-.59,1.36-.69,1.75-1.32.07.19.38.13.27-.16.12,0,.12.14.11.28.32-.22.76-.77,1.48-.77.03-.26.28-.31.44-.44h.06Z"/>
    <path class="cls-1" d="M87.6,117.61c.42-1.25.24-3.17.44-4.77.04-.26.15-.48.16-.71.14-2.5-1.04-6.1-3.51-4.72-.83,1.31-1.29,2.99-1.7,4.72,0,.18.12.24.11.44-.04-.04-.17-.23-.17,0-.42,2.06-.35,4.06-.05,5.98.45,1.04,1.47,1.45,2.91,1.37.39-.7,1.5-1.38,1.81-2.3h0ZM89.08,101.43c.41.28.52.87.99,1.1.19,1.05.95,1.54.99,2.74.47.68.79,2.19,1.04,3.4.49,2.37.5,4.75.06,7.19-.42,2.29-.89,4.6-1.92,6.09-.71,1.03-1.9,1.59-2.63,2.41-.97.02-2.17.37-3.18.28-.84-.08-.87-1.67-2.03-1.54-.23.33-.34.85-.27,1.32-.11.24-.35.34-.44.61.43,1.62-.13,3.86-.16,5.82-.01.76.13,1.82-.05,2.8-.05.27.25.18.22.43,0,.24-.13,0-.27.06-.19,1.25.06,3.06-.44,4.11-.54.59-1.38.88-1.7,1.7-.41.06-.53.49-.82.72-.61.47-1.31.83-1.98,1.26-.07-.67-.08-1.76.27-2.19.1-1.51.2-3.24.22-5.05.02-2.31-.06-4.95.44-7.08.02-.24-.16-.28-.16-.49.45-4.05.4-8.06.88-11.91.09-.69-.11-1.49-.06-2.2.15-2.02.17-4.28.39-6.36.08-.84.07-2.03.11-3.07.38-.21.76-.41,1.15-.6.21-.06.18.12.28.16.64-.34,1.69-.91,2.47-.6.33.58-.22,1.28-.05,1.86.13.43.79.89,1.26.82.38-.05.4-.64.88-.22.36-.45.46-1.15.77-1.65,1.08-.86,1.85-2.24,3.79-1.92h0Z"/>
    <path class="cls-3" d="M85.68,117.78c.33-.61.83-1.82.93-2.46.08-.48-.06-1.07,0-1.65.06-.61.27-1.24.27-1.81.02-1.25-.32-2.48-.6-3.35h-.11c-.65.37-.66,1.39-1.2,1.86-.21.99-.89,2.1-1.04,3.4-.02.14.06.28.05.44-.01.52-.28,1.04-.33,1.54-.09,1.02.08,2.17.49,3.02.77.36,1.25-.45,1.54-.99h0ZM85.79,119.92c-1.44.07-2.45-.33-2.91-1.37-.3-1.92-.37-3.92.05-5.98,0-.23.13-.04.16,0,.02-.2-.1-.26-.11-.44.41-1.73.87-3.41,1.7-4.72,2.47-1.38,3.64,2.21,3.51,4.72-.01.24-.13.45-.16.71-.2,1.6-.02,3.52-.44,4.77-.31.92-1.42,1.6-1.81,2.31h0Z"/>
    <path class="cls-2" d="M141.78,104.96c.28.25-.44.33-.49.61-.55.09-.69.5-1.21.49,0-.28.28.03.22-.27.69-.08.98-.56,1.48-.83h0Z"/>
    <path class="cls-2" d="M139.33,109.82c.13.02.21.09.38.05.04.16-.08.14-.06.28-.17-.04-.35-.09-.33-.33h0Z"/>
    <path class="cls-2" d="M75.42,79.71c-.02.11-.05.63-.28.71-.12-.25.15-.53.28-.71h0Z"/>
    <path class="cls-3" d="M139.2,106.27c-.02-.13.1-.12.05-.27-.18.03-.25-.04-.38-.05-.02.24.15.29.33.33h0ZM140.3,105.78c.06.3-.22-.01-.22.27.52,0,.66-.4,1.21-.49.05-.27.77-.36.49-.61-.51.26-.79.75-1.48.83h0ZM147.82,99.7c.14-.38-.18-.66-.22-.83-.23-.95.07-1.95.05-2.8-.38-1.11-.15-2.55-.27-3.46.02-.11.21-.04.16-.22.13-4.03-.17-7.37.06-10.76-.29-.13-.08-.47-.17-.76-.05-.18-.24-.37-.33-.61-.16-.43-.21-.96-.33-1.26-.04-.11-.29,0-.11-.16-.18-.03-.17.1-.27,0-.26-.53-.83-.52-1.32-.72,0,.07-.07.08-.05.17-.38.1-.8-.06-1.21,0-.51.07-.96.37-1.42.55-.16.05-.34-.01-.49.05-.23.09-.41.33-.66.44-.35.15-.76.19-1.1.38-.19.11-.41.35-.6.49-.54.4-.86.72-1.21,1.21-.07,1.58-.16,3.04-.22,4.66.44-.05.57-.42,1.1-.39.61-.43,1.19-.89,1.97-.93,1.01-.05,2.06.86,2.3,1.59.16.47-.42.99-.06,1.59-.15.43-.5.5-.88.82-.27.23-.42.5-.6.61-.52.29-1.18.36-1.54.49-.03.41-.42.45-.66.66,0-.14.03-.32-.11-.33-.11.27-.06.37-.16.66-.3.03-.35.32-.61.38-.21.76-.94.99-1.1,1.81-1.27,1.3-1.21,3.6-1.86,5.49.04,2.16-.03,4.57,1.04,5.98.21.28.77.62,1.04.71,1.5.51,2.69-.97,4.11-1.26.17-.48.75-.72,1.26-1.26.29-.31.63-1.11,1.15-1.1.7,0,.66.98.88,1.7.58-.28,1.29-.19,2.08-.16.4-.37,1.09-.44,1.43-.88-.23-.99-.48-1.97-1.1-2.57h0ZM134.76,101.78c.26,0,.04-.67-.16-.82-.11-.38.35-.66-.06-.93.14-1.57.58-3.07.6-4.5.61-.42.47-1.58,1.04-2.03-.13-.87.58-1.3.71-2.09.38-.05.56-.29.71-.55.03-.13-.25.03-.16-.16.21.06.16-.14.33-.11-.05-.06-.08-.14-.06-.28.22-.03.45-.14.49-.44.12-.02.15.04.22.06.03-.34.3-.34.27-.61.23.01.21-.07.38,0,.11-.1,0-.14,0-.28.41,0,.55-.53.88-.44.13-.27.43-.38.55-.66.2.11.3.03.33-.17.19-.04.23.06.33.11.16-.72.73-.88,1.1-1.48-.06-.21-.15-.4-.33-.5-.65.05-1.15.24-1.48.71-.06,0-.05-.1-.06-.16-.15.36-.84.18-.71.82-.11.11-.14,0-.28,0-.09.23-.42.2-.44.5-.88.03-.85.99-1.59,1.15-1-.03-.84-1.48-.38-2.03-.2-.2-.04-.85.11-1.04-.13-.08-.02-.38-.22-.39.15-1.36.12-2.63.27-3.79,0-.24-.27-.24-.38-.38.25-.54.55-1.02,1.15-1.2.63-.67,1.52-1.08,2.25-1.65.1,0,.12.07.22.05.23-.49,1.21-.23,1.32-.82.94-.02,1.87-.68,2.91-.38,1.21-.32,2.81.64,3.13,2.03.21.94,1.08,1.62.93,2.85-.13,1.13.61,2.68.22,3.73.2,1.58-.02,2.62-.16,4.23.39.54,0,1.21-.06,1.87-.02.33.12.69.11,1.04-.01.75-.25,1.5-.11,2.25.15.77.04,1.99-.05,2.69.34,1.4.59,2.49,1.37,3.51.29.38.58.47.55,1.09-.07.08-.27.03-.27.17.09.2.37.49.11.71-.24-.04-.25-.01-.44-.05-.12,0-.12.14-.11.27-.13.01-.23-.03-.27-.11-.1.01-.12.09-.11.22-.68.02-1.17.55-2.03.61-.11.01-.05.2-.16.22-.14.04-.25.06-.38-.05-.07.02-.06.11,0,.11-.8.36-2.42.66-2.63-.66-.52.08-.49.95-1.04.82-.27.7-.94,1-1.37,1.54-.1-.14-.34.13-.39-.11-.13.07-.21.19-.27.33-.1-.05-.16-.13-.27-.16-.12.01-.02.24-.11.27-.2.12-.52-.21-.55.17-.15.01-.13-.21-.28-.05-.08.04.13.11,0,.28-.18.09-.23-.24-.33-.06-.19-.11.21-.07.22-.16-.04-.13-.31-.02-.44-.05-.19.06.15.02.06.16-.45-.02-1.07-.17-1.37-.6-.13-.03-.12.1-.28.05,0-.1.07-.12.05-.22-.13-.11-.21.05-.38-.05-.09-.11,0-.07,0-.22-.39-.08-.74-.21-.71-.71-.17-.04-.16.09-.33.05-.58-.56-.66-1.61-1.32-2.08.02-.63-.24-.97-.39-1.43h0Z"/>
    <path class="cls-3" d="M141.56,94.86c-.28,1.44-1.58,3.28-.44,4.67.12.03.42-.24.55-.38.13.07.29.11.22.38.35-.04.39-.38.71-.44-.12-.34.29-.56.22-.88.01.04,0,.11.06.11.15-.28-.02-.67.11-1.1.16-.01-.05.34.11.33-.05-.22.17-.17.11-.38-.08-.01-.2.01-.22-.05.1-.68-.08-1.36,0-2.31.13.01.21-.01.28-.05-.42-.54,0-1.15.05-1.92-.07,0-.08-.07-.16-.05-.57.66-1.1,1.34-1.59,2.08h0ZM143.98,94.1c.06.93-.13,2.02-.06,3.24.04.63-.22.99-.27,1.65-.06.66-1.39,1.62-1.81,1.97-.17.07-.34-.3-.39,0-.11-.13-.32-.24-.44-.22-.39-.1-.45-.54-.88-.61-.16-.69-.41-1.07-.33-1.92.08-.07.09-.02.16,0-.03-.5-.33-1.15.11-1.48-.13-.05-.43-.69.16-.61.07-.3-.17-.3-.11-.6.17-.04.11-.04.27,0v-.22c-.01-.14-.09.08-.22,0,.03-.13.08-.25.06-.44.15.16.18-.1.33-.11.06-.9.53-1.37,1.04-1.81.08-.48.59-.67.99-.93.29-.2,1.29-.97,1.7-.94.25.03.56.36.55.71,0,.12-.22.29-.33.61-.25.7-.12,1.33-.55,1.7h0Z"/>
    <path class="cls-3" d="M85.29,103.35c-.3.5-.41,1.2-.77,1.65-.48-.42-.5.16-.88.22-.47.07-1.14-.39-1.26-.82-.17-.58.38-1.29.05-1.86-.77-.3-1.83.26-2.47.6-.1-.05-.07-.22-.28-.16-.39.19-.77.4-1.15.6-.04,1.04-.03,2.24-.11,3.07-.21,2.08-.24,4.34-.39,6.36-.05.71.14,1.5.06,2.2-.48,3.85-.43,7.86-.88,11.91,0,.21.19.25.16.49-.49,2.12-.42,4.77-.44,7.08-.02,1.8-.12,3.54-.22,5.05-.36.43-.34,1.52-.27,2.19.67-.42,1.37-.79,1.98-1.26.29-.22.41-.66.82-.72.32-.82,1.17-1.11,1.7-1.7.5-1.06.25-2.86.44-4.11.14-.06.28.18.27-.05.03-.26-.27-.17-.22-.44.19-.98.04-2.04.05-2.8.03-1.96.59-4.19.16-5.82.09-.26.33-.36.44-.61-.06-.47.05-.99.27-1.32,1.16-.14,1.19,1.46,2.03,1.54,1.01.09,2.21-.25,3.18-.28.73-.82,1.92-1.38,2.63-2.41,1.03-1.49,1.5-3.79,1.92-6.09.44-2.44.44-4.82-.06-7.19-.25-1.2-.58-2.72-1.04-3.4-.04-1.21-.79-1.7-.98-2.74-.47-.23-.58-.82-.99-1.1-1.94-.32-2.71,1.06-3.79,1.92h0ZM79.53,141.81c-.15.16-.15-.08-.28-.11-.07.07-.05.24-.05.38-.44-.07-1.07.37-.99.82-.69.42-1.38,1.29-1.98,1.98-.58-.08-1.16.6-1.59-.06-.08-.59.27-1.15.05-1.54.51-.68.51-2.26.44-3.18.15-.46.33-1.08.05-1.43-.06-.28.22-.22.22-.44.08-.27-.16-.21-.16-.38.54-.99.02-2.2.27-3.24.03-.15.17-.21.22-.33.2-.53.04-1,.06-1.59.03-1.05.2-2.11.28-3.18.17-2.63.27-4.98.38-7.52.08-1.73.17-3.11.11-4.66-.08-2.21.28-4.45.17-6.47-.02-.15.2-.05.22-.16-.02-.08-.13-.05-.22-.05.09-.83.12-1.76.11-2.63.48-.95.26-2.23.66-2.96.08-.21-.15-.11-.11-.28-.01-.27.19,0,.22-.21-.07-.25-.23-.74.06-.88-.17-.22-.23-.61-.06-.88-.36-.32-.01-.61.11-.99h.33c.14-.14.14-.41.28-.55.17.05.26.17.33.33,1.51-.12,2.73-.78,4.11-.93,1.23.21.81,1.45.77,2.69.59-.14.61-.86,1.15-1.04.01-.16.1-.23.11-.38.76-.33,1.16-1.03,1.76-1.54.17-.04.11.15.27.11.46-.43,1.23.03,1.86-.22.44.28,1,.24,1.53.33.3.37.62.74,1.04.99.03.2.15.29.11.55.57,1.28,1.26,2.76,1.59,4.45.39,2.05,1.05,4.14,1.26,6.41.06.68-.1,1.35-.17,2.09-.09.99-.16,1.92-.33,2.8-.12.61-.46.99-.6,1.48-.1.33-.18.61-.27.88-.44,1.21-.84,2.62-1.87,2.91-.32.45-.73.89-1.32,1.21-.74.41-1.28,1.25-2.25,1.48-.13.03-.31-.04-.44,0-.69.17-1.34.49-2.14.28-.22.01-.27.2-.55.16-.16,0-.23-.1-.27-.22-.19.02-.26.14-.49.12-.04,1.75-.61,3.68-.5,5.59-.08.19-.18.37-.27.55.27,1.17-.15,2.43-.27,3.62-.06.53.04,1.05-.06,1.54-.08.47-.33,1.49.28,1.75-.03.9-.68,2.73-1.37,1.37-.25.26-.66.09-.71.61-.29-.17-.37.02-.61.05-.09.19.05.37-.11.55-.12,0-.02-.23-.05-.33-.3.13-.13.16-.33.33h0Z"/>
    <path class="cls-1" d="M99.38,74.43c.5-.45,1.31-.59,1.88-.21.14.22.21.79.14,1.09-.82.37-1.68.7-2.08,1.42.07,1.56.69,3.28.71,4.93.01.95.01,2.59.2,3.63.08.46.27.8.63.95,1.14-.03,1.25-.91,2.26-1.04.24.13.46.3.6.55-.39,1.4-2.87,1.61-3.96.98-.73-.65-.78-1.92-1.05-3,0-.21-.13.06-.16-.14.4-1.32-.54-2.94-.36-4.26-.35-.54-.02-1.55-.32-2.07-.75.33-2.13.6-2.48-.34.45-.42,1.14-.45,1.64-.74.25-.14.69-.43.79-.66.24-.55-.12-1.73-.23-2.18-.05-.15.12-.11.13-.21-.43-.29.15-1.3-.31-1.37-.06-.16.06-.16.13-.21-.32-.25.09-.48-.06-.7.07-.14.19-.23.27-.37.55.28,1.16.48,1.44,1.08,0,.87-.05,1.95.19,2.88h0Z"/>
    <path class="cls-1" d="M110.09,84.28c0-.11.11-.12.24-.12-.03-.13-.14-.16-.26-.17-.04.04-.09.28.03.3h0ZM106.53,82.37c0-.12-.02-.19-.07-.24-.06.01-.14,0-.14.07.1.02.03.25.21.18h0ZM111.99,81.97c.25-1.24.52-2.64.36-4.08-.03-.14.1-.16.07-.3-.19-.3-.24-.77-.3-1.22-.79-1.32-1.22-3.07-2.92-3.3-.12,0-.15.09-.19.16-1.42.01-1.89,1.55-2.43,2.6-.54,2.63.4,5.9,1.78,7.54.28,0,.47.1.62.25-.04-.13,0-.18.14-.16.15.09-.11.4.14.44.08-.04-.03-.24.13-.21.85.4,1.26-.25,1.99-.66-.02-.38.29-.81.61-1.05h0ZM106.07,82.22c-.29-.13-.56-.38-.51-.76.08-.1.09.02.25-.02-.02-.28-.38-.15-.53-.36-.2-.27-.18-.8-.14-1.08-.2-.3-.3-.71-.14-1.04-.01-.05-.09-.03-.15-.03.04-.12,0-.3.06-.41-.2-.3-.26-1.13.04-1.3-.13-.21-.06-.86.11-1.11-.01-.15-.02-.3-.04-.45.08-.15.11-.12.24-.17-.2-.47.15-.76.2-1.17.31-.43.66-.83.99-1.24.21.05.45-.13.52-.34.57-.17,1.05-.62,1.79-.65.25-.01.48.1.75-.01.62.36,1.26.32,1.78.9.36.41.8.79,1.16,1.36.17.26.32.63.48.96.42.89.93,1.96.88,3.37-.08,2.18-.73,4.38-1.92,5.66-.43.06-.86.87-1.5.62-1.11.31-2.28-.14-2.78-1.01-.7.04-1.16-.83-1.62-1.41-.02-.14,0-.25.08-.3h0Z"/>
    <path class="cls-1" d="M80.4,91.75c.1-.12-.05-.21-.13-.29-.1.12,0,.27.13.29h0ZM79.2,90.5c.02-.08.06-.13.08-.21-.2-.04-.26.2-.08.21h0ZM78.43,87.27c.2-.09.19-.56.2-.66-.1.18-.32.45-.2.66h0ZM85.46,80.59c.44,1.09.47,2.62.57,3.9.3,1.47.69,3.56.73,5.13.01.4-.09.83-.05,1.2.07.65.48,1.19.69,1.69-.11.18-.26.33-.46.43-.26-.24-.96-.32-.83-.98-.26-.14-.34-.51-.51-.75-.58.35-.9.97-1.39,1.26-1.37.33-2.63.99-4.1.49-.17-.42-.57-.56-.87-.83-.08-.38-.42-.67-.29-1.12.04-.16-.17-.02-.12-.19-.13-1.31-.43-2.12-.65-3.54-.08-.53.02-1.12-.28-1.57.16-.99-.29-2.31-.29-3.52.29-.28.59-.08,1.04-.14.3-.41.58-.26.99-.08.05.78.09,1.72-.11,2.31.32.66.31,1.98.28,2.67.24.42.24,1.58.17,2.03.41.95.44,2.35.92,3.22.39.12.8.06,1.14-.04.44-.14.94-.29,1.26-.46.67-.34.92-1.17,1.62-1.43.01-.33.27-.45.39-.68-.21-1.43-.48-3.35-.54-4.65-.03-.15-.1-.25-.18-.33-.05-1.23.09-2.73-.34-4.12.24-.46.93-.08,1.21.1h0Z"/>
    <path class="cls-1" d="M144.52,92.4c.11-.32.32-.49.33-.61.01-.35-.31-.69-.55-.71-.41-.04-1.41.74-1.7.94-.4.26-.91.45-.99.93-.51.44-.98.92-1.04,1.81-.15.01-.18.26-.33.11.02.19-.02.31-.06.44.13.08.21-.14.22,0v.22c-.17-.04-.11-.04-.27,0-.06.3.18.3.11.6-.6-.09-.29.55-.16.61-.44.33-.14.98-.11,1.48-.08-.02-.09-.07-.16,0-.08.85.17,1.23.33,1.92.43.06.49.5.88.61.12-.02.32.08.44.22.05-.3.21.07.39,0,.42-.35,1.75-1.31,1.81-1.98.06-.66.31-1.01.28-1.65-.07-1.22.12-2.31.05-3.24.43-.37.3-1,.55-1.7h0ZM148.91,102.27c-.33.43-1.02.51-1.43.88-.8-.03-1.5-.11-2.08.16-.22-.72-.18-1.7-.88-1.7-.52,0-.86.79-1.15,1.1-.51.54-1.09.78-1.26,1.26-1.42.29-2.61,1.78-4.11,1.26-.27-.09-.83-.44-1.04-.72-1.07-1.4-1-3.82-1.04-5.98.66-1.89.59-4.19,1.86-5.49.16-.81.89-1.05,1.1-1.81.26-.07.3-.36.61-.38.1-.29.05-.39.16-.66.14,0,.11.18.11.33.24-.21.63-.25.66-.66.36-.13,1.02-.2,1.54-.49.18-.11.33-.38.6-.61.38-.32.72-.39.88-.82-.37-.61.21-1.12.06-1.59-.24-.73-1.3-1.65-2.31-1.59-.78.05-1.37.5-1.98.93-.53-.03-.66.34-1.1.39.06-1.63.15-3.09.22-4.66.35-.48.67-.8,1.21-1.21.2-.14.42-.38.6-.49.33-.2.75-.24,1.1-.38.25-.11.43-.34.66-.44.15-.07.34,0,.49-.05.47-.17.92-.47,1.43-.55.4-.06.83.1,1.21,0-.02-.09.05-.1.05-.17.49.2,1.06.19,1.32.71.1.1.1-.04.27,0-.18.16.07.06.11.16.12.3.17.83.33,1.26.09.23.28.42.33.6.08.3-.13.63.16.77-.23,3.38.08,6.73-.06,10.75.05.17-.14.11-.16.22.12.91-.11,2.34.28,3.45.01.84-.28,1.85-.06,2.8.04.16.36.44.22.82.62.61.86,1.58,1.1,2.58h0Z"/>
    <path class="cls-3" d="M100.88,96.22c-.16.13-.41.18-.44.44-.72,0-1.17.55-1.49.77.01-.14.01-.27-.11-.28.11.3-.2.35-.27.16-.4.63-1.33.72-1.76,1.32.12,3.66.1,7.18.27,11.14.08,1.8-.08,3.62,0,5.37.14,3.08-.51,5.98,0,8.67,1.28-.35,1.77-1.48,3.02-1.86-.02-3.36.47-6.82.55-10.48.06-2.95.61-6.03.49-9-.08-2.13.48-4.49-.11-6.25h-.16ZM101.81,122.33c-.32.53-1.09.49-1.54.93-.03.04-.02.2-.06.22-.22.16-.49.24-.71.38-.46.3-.84.73-1.26.99-.28.17-.65.26-1.04.55-.5.36-.87.87-1.59.44-.43-.71-.12-1.52-.11-2.25.01-.75-.12-1.5-.11-2.25.02-.83.28-1.62.33-2.47.22-3.79.03-7.92,0-11.68-.02-1.66-.1-3.21-.17-4.89-.02-.6-.15-1.23-.11-1.75.01-.19.14-.41.16-.66.12-1.12-.11-1.98.77-2.41.16,0,.36.03.44-.05,1.32-.88,3.23-1.38,4.55-2.08.98.01.91.5.88,1.26-.05,1.04.27,2.11.22,3.18-.01.24-.14.47-.16.71-.18,1.9.11,3.92-.11,5.93-.04.35-.19.69-.22,1.04-.02.24.06.51.05.77-.02.5-.15,1-.16,1.54-.02.91.06,1.87,0,2.74-.02.4-.21.83-.22,1.2,0,.2.11.39.11.61.03.99-.29,2.15-.33,3.24-.02.59-.03,1.16-.05,1.7-.04,1.18-.08,2.32.44,3.07h0Z"/>
    <path class="cls-3" d="M109.64,126.91v.34c-.3.06-.2-.37,0-.34h0Z"/>
  </g>
  <polygon class="cls-5" points="27.42 79.53 4.47 113.12 5.61 114.56 49.39 113.05 33.66 84.16 28.99 78.69 27.42 79.53 27.42 79.53"/>
  <path class="cls-3" d="M25.58,83.88c-.83.36-.24-.84-1.07-.47-.4.13-.18.83-1,.58-.32,1.37-.64,2.72-1.93,3.22-.31,1.44.73,1.38,1.15,2.03-1.81,1.33-1.82,5.56-5.01,4.16.29.77,1.25.81,1.39,1.76-.69.35-1.2.49-1.53.59,1.11.91-.3.68-.72,1.34-1.11,1.72-1.71,4.44-3.66,4.87-.07,1.25-.53,2.17-1.71,2.43.66,1.35-.38.18-.74.82,1.67.32-1.07,1.14.1,1.82-1.85.39-1.4,2.87-2.68,3.79-.17-.45.24-1.55-.33-1.55,0,.4.08.9-.49.8-.28.86.85.15.57,1.01-1.08.26-.88,1.69-1.44,2.42,2.71-.6,7.11-.64,10.14-.5.04-.21-.02-.52.23-.54,10.08.93,18.12-.64,30.43-.98-.56-2.73-2.98-4.05-3.92-5.54-.31-2.31-2.5-2.54-2.59-5.08-1.17.17-1-.93-.86-1.52-1.04.02-1.97-1.66-1.14-2.03-.81.44-.87-.15-1.59-.44-1.88-5.68-6.37-9.68-8.52-14.17.01.26-.44.35-.52.02.32-.04.61-.11.5-.55-.73.25-.69-.33-1.32-.19-1.26,1.76-1.82,4.14-3.92,5.14.55.89-.19,1.27-.68,1.86-.32-1.04-.06-2.03.38-2.89.43-.02.18.72.56.75.06-1.11.95-3.24,1.71-2.17-.03-.36.09-.58.22-.79h0ZM40.76,95.89c1.54.23,1.13,2.58,2.74,2.73.04,1.68.91,2.47,1.97,3.03-.12,1.78.89,2.31,1.96,2.77.12.44-.18.5-.49.55.37.36,1.22.6.58,1.28.2-.15.41-.3.76-.31.12.52-.01.82-.48.81.52.67,2.02,2.08,1.17,2.55.27.44.84.53,1.58.44.15,2.13,1.32,3.12,1.31,5.41-.25-.15-.98-.56-.76.29-.47-.49-1.81-.01-1.87-.95-.58,1.02-1.78-.68-3.09.67-.79.13-.58-.82-.85-1.27-.74.26.37.64.07,1.3-.2-.17-.88-1.05-.78.04-3.63-.25-9.02-.27-12.24.08-.01-.26-.03-.51-.04-.78-1.17.7-2.55.83-3.64.18-.7,1.01-5.54,1.05-7.02.35-2.86,1.64-9.21.09-10.59,1.82-2.24-1.25-6.1.17-8.9-.86-.26-.82.17-1,.46-1.33-1.05-.03-.44-.19-.61-1.79,1.21-.4,1.71-1.43,1.68-2.95,1.21.19.52-1.34,1.77-1.13-.23-.78-.21-.49-.07-1.3,1.77.2.7-2.18,2.23-2.19-.18-.26-.61-.24-.56-.76,1.05.29.49-.88,1.53-.6-.02-.43-.04-.87-.06-1.3.22-.21.58-.31,1.02-.31,1.53-3.92,4.38-6.64,6-10.46.9-.02,1.18-.58.96-1.61.76.03.76-.63,1.53-.6.63-3.48,3.95-4.53,4.55-8.05,2.85-.64,2.17-4.48,4.95-5.19-.18-.26-.61-.24-.56-.76.86-.05,1.27-.5,2.33-.37,1.16.82-.31,1.34,1.36,1.23-1.07,1.18.34,4.61,1.51,4.09.38.07.07,1.97,1.38,1.76-.14.8.32.93.35,1.54,3.34,2.79,3.98,8.57,7.33,11.36.12.44-.18.5-.5.55h0Z"/>
  <text class="cls-6" transform="translate(16.77 109.55) scale(.79 1)"><tspan x="0" y="0">24</tspan></text>
</svg>