<?xml version="1.0" encoding="UTF-8"?>
<svg id="Layer_1" data-name="Layer 1" xmlns="http://www.w3.org/2000/svg" viewBox="0 0 180 200">
  <defs>
    <style>
      .cls-1, .cls-2 {
        fill-rule: evenodd;
      }

      .cls-1, .cls-3 {
        fill: #231f20;
      }

      .cls-4 {
        fill: #fff;
      }

      .cls-2 {
        fill: #ffda40;
      }

      .cls-3 {
        font-family: AmericanTypewriter-Bold, 'American Typewriter';
        font-size: 19.28px;
        font-weight: 700;
        letter-spacing: .02em;
      }

      .cls-5 {
        fill: #096962;
      }

      .cls-6 {
        fill: #49bb8c;
      }
    </style>
  </defs>
  <g>
    <path class="cls-4" d="M166.64,141.48s1.1-32.27.64-38.63c-.46-6.37.64-48.02.64-48.02,0,0,4.65-23.73-6.38-23.73s-77.37-1.43-77.37-1.43c0,0-11.49-2.39-14.71,4.38-3.22,6.76.46,84.74.46,84.74,0,0-.61,28.49-.46,31.03.31,5.4-.1,9.92,4.72,8.78,4.01-.95,77.55-2.02,77.55-2.02,0,0,14.91,2.84,15.55-6.54"/>
    <g>
      <path class="cls-6" d="M90.93,110.1c.21,1.33.28,2.68.43,4.3.31-.46.47-.7.64-.93.93-1.25,2.31-1.76,3.98-1.84,1.2-.06,2.39-.18,3.57-.27-.01-1.15-.19-1.45-1.14-1.74-1.76-.54-3.38-.12-4.93.63-.42.2-.81.46-1.22.71-.7-.64-.38-1.2-.13-1.69,1.79-3.54,5.59-3.58,8.52-1.72,1.76,1.12,2.57,2.83,2.94,4.62.27,1.32.27,2.7.18,4.04-.1,1.61-1.31,2.62-2.98,3.17-2.93.95-7.07.15-8.76-1.8-.09-.1-.22-.17-.42-.32-.12.39-.21.71-.32,1.03-.27.76-.68.98-1.57.83-1.28-.22-2.38-1.33-2.48-2.49-.12-1.44-.21-2.88-.37-4.32-.06-.56-.19-1.14-.44-1.65-.32-.66-.86-1.24-1.79-1.24-1,0-1.8.44-2.12,1.25-.33.82-.6,1.69-.64,2.55-.05,1.3.13,2.62.19,3.92.03.72.44,1.7-.45,2.03-.56.22-1.52-.21-2.24-.47-.74-.26-1.21-.83-1.33-1.51-.2-1.08-.42-2.17-.43-3.25,0-4.64.07-9.28.09-13.93,0-.78-.15-1.56-.21-2.34-.02-.3.03-.59.05-1.02.42,0,.71-.07.91.01,2.41.98,3.85,2.01,3.93,4.22.05,1.53.05,3.07.07,4.6,0,.38,0,.77,0,1.29.6-.18,1.01-.31,1.43-.44M78.43,97.22c-.07,1.02-.17,1.8-.18,2.57-.02,4.95-.03,9.9-.02,14.84,0,.65.12,1.31.26,1.95.31,1.44,1.03,1.93,2.88,1.99,0-.69.02-1.38,0-2.07-.04-.92-.24-1.84-.15-2.75.11-1.08.36-2.17.72-3.2.35-1.01,1.28-1.54,2.52-1.61,1.25-.07,1.98.57,2.49,1.43.22.38.36.82.41,1.25.21,1.61.38,3.22.54,4.83.14,1.35.73,1.89,2.6,2.2.12-.39.36-.8.33-1.19-.17-2.66-.28-5.33-.65-7.98-.25-1.83-2.19-3.02-4.3-3.02-1.17,0-2.16.38-3.11.91-.28.16-.55.31-.97.55-.04-.36-.08-.56-.08-.75,0-2.06-.02-4.11.05-6.17.07-1.93-1.26-2.91-3.34-3.8ZM92.6,110.09c.27-.13.48-.23.68-.33,1.41-.72,2.95-.96,4.53-.75.7.09,1.44.43,1.95.86.37.31.59.96.52,1.41-.1.6-.88.64-1.48.69-1.26.11-2.53.13-3.77.3-.57.07-1.19.31-1.61.63-2.2,1.71-1.61,4.72,1.09,5.7,1.77.65,3.57.85,5.48.41,1.9-.43,3.09-1.4,3.26-3.02.21-2.03-.02-4.02-1.07-5.89-1.13-2.03-2.78-3.26-5.56-3.13-2.1.1-3.58,1.12-4.01,3.11Z"/>
      <path d="M138.94,115.55c-.13,1.48.36,2.27,1.76,2.79,1.96.73,3.87.7,5.77-.28,1.89-.97,2.37-2.45,2.14-4.16-.2-1.46-1.5-2.08-2.98-2.47-.34-.09-.68-.16-1.02-.23-.68-.15-1.37-.29-2.05-.44-.53-.12-.89-.38-.97-.89-.08-.54.13-.93.67-1.21,1.02-.54,2.07-.89,3.3-.54.45.13.93.15,1.43.23,0-.26.03-.4,0-.52-.35-1.08-1.39-1.24-2.46-1.44-2.97-.53-5.53,1.03-5.85,3.59-.21,1.75.51,2.62,2.52,2.96,1.09.18,2.2.27,3.27.48,1.03.21,1.29.54,1.34,1.34.05.86-.27,1.31-1.16,1.65-1.34.51-2.65.41-3.95-.13-.57-.24-1.15-.48-1.76-.74Z"/>
      <path class="cls-6" d="M151.76,146.15c.12.91.21,1.6.31,2.43,1.44,0,2.84.05,4.24-.01,1.59-.07,1.78.08,1.51,1.68-2.58.29-5.19.09-7.77.09-.46-1.25-.7-8.63-.33-9.7,2.37-.48,4.79-.42,7.21-.37,1,.02,1.09.28.73,1.59-1.91.08-3.86.17-5.91.25v2c1.85.78,3.83,0,5.7.14.23,1.17.1,1.42-.95,1.55-.8.1-1.62.05-2.42.11-.74.05-1.48.16-2.32.25ZM151.48,149.06c-.14-.91-.23-1.73-.41-2.53-.14-.65.23-.91.86-.97.7-.07,1.41-.06,2.12-.08.91-.02,1.8-.12,2.62-.52-.41-.11-.81-.11-1.2-.11-1.11,0-2.22-.01-3.33-.02-.55,0-1.05-.11-1.1-.67-.07-.81-.24-1.63.09-2.54,1.97-.17,3.98.06,6.06-.46-1.32-.42-5.56-.4-7.13.02.15,2.77.31,5.59.47,8.51.6.08,1.14.21,1.67.22,1.26.04,2.52.05,3.79.02.45,0,1.2.18,1.19-.45,0-.65-.75-.41-1.2-.42-1.46-.03-2.91-.01-4.5-.01Z"/>
      <path class="cls-6" d="M89.45,144.13c-1.15.25-1.83.19-2.47-.67-1.2-1.61-3.64-1.44-4.7.24-.79,1.26-.82,2.61-.46,3.96.11.41.56.87,1,1.09,1.59.8,4.09.86,4.78-1.52.05-.16.09-.32.14-.5.55-.02,1.04-.05,1.52-.07.54,1.62-.53,3.54-2.27,4.03-4.6,1.29-7.55-1.72-7.47-4.51.03-.95.17-1.93.53-2.82.67-1.7,2.58-2.71,4.74-2.72,2.14,0,3.73.96,4.52,2.75.08.19.09.41.16.75ZM88.35,143.74c.11-.3.14-.34.13-.38-.02-.08-.04-.17-.08-.25-.82-1.4-2.17-2.06-3.96-1.94-1.86.13-3.31.87-3.89,2.48-.27.74-.31,1.54-.39,2.32-.26,2.64,2.75,5.31,6.41,4.25,1.46-.42,2.21-1.45,1.91-2.92-.37.51-.67,1.01-1.06,1.45-.91,1.03-2.16,1.2-3.55.95-1.38-.25-2.51-.85-2.8-2.11-.32-1.39-.22-2.79.57-4.09,1.18-1.95,3.76-2.3,5.57-.76.34.29.68.59,1.13.99Z"/>
      <path class="cls-6" d="M126.89,140.61c2.47-.54,4.98-.31,7.54-.36.07.39.16.64.14.89-.05.84-.21.99-1.16,1.02-1.11.04-2.22.02-3.33.04-.44,0-.89.06-1.4.09v2.3c1.8-.01,3.49-.36,5.15-.02.12,1.4.08,1.44-1.27,1.57-1.15.11-2.29.24-3.61.38-.08,1.31-.16,2.63-.24,4.01h-1.76c-.51-1.25-.55-8.49-.07-9.93ZM127.43,141.07c-.42,2.44-.22,8.08.43,8.97.59-1.42.04-2.86.55-4.12,2.24.11,3.93-.16,4.95-.89h-5.14c-.32-1.11-.53-2.08-.13-3.14,1.9-.28,3.88.02,5.82-.6-.92-.52-4.44-.61-6.48-.22Z"/>
      <path class="cls-5" d="M153.12,129.94c.07.95.14,1.9.2,2.85.05.72-.28,1.04-.99,1-.46-.03-.82-.2-.81-.62.05-1.95.12-3.91.19-5.8,1.56-.39,1.55-.38,2.35.48.74.81,1.51,1.6,2.49,2.64v-3.21c1.19-.28,1.33-.26,1.35.44.05,1.7.02,3.41.01,5.11,0,.41-.13.8-.69.89-.55.09-.92-.06-1.21-.54-.62-1-1.35-1.94-2.03-2.91-.13-.18-.25-.37-.38-.56-.16.07-.31.15-.47.22ZM152.53,128.81c2.62.56,2.84,2.97,4.5,4.31.21-.42.39-.72-.11-.96-.2-.1-.39-.26-.52-.43-.87-1.06-1.71-2.14-2.57-3.2-.27-.33-.59-.62-.89-.93-.09.04-.19.08-.28.12-.04.37-.08.74-.11,1.09ZM152.41,131.61c-.05,0-.11.01-.17.02.03.41.06.81.08,1.22.09,0,.19-.02.28-.03-.07-.4-.13-.81-.2-1.21Z"/>
      <path class="cls-6" d="M102.77,150.8c.07-.32.09-.66.21-.98,1.1-2.77,2.23-5.53,3.32-8.3.37-.93.59-1.07,1.63-.98.36.03.86.35.99.64,1.33,3.06,2.6,6.13,3.91,9.27-.26.08-.59.17-.9.28-.69.25-1.18.06-1.48-.51-.3-.55-.64-1.1-.86-1.68-.21-.55-.58-.78-1.22-.78-3.07-.02-2.56-.34-3.49,2.02-.48,1.23-.66,1.33-2.11,1.02ZM103.59,150.34c.11.02.22.03.33.05.32-.77.58-1.55.97-2.29.16-.31.56-.72.88-.74,1.34-.08,2.7-.04,3.97-.04q1.27,2.73,2.22,2.71c-1.28-2.95-2.54-5.88-3.8-8.79-.93-.29-1.18.24-1.41.81-1.03,2.6-2.07,5.2-3.09,7.8-.06.15-.05.32-.07.49Z"/>
      <path class="cls-5" d="M139.32,134.03c-.1-2.07-.19-3.98-.27-5.89-.02-.45.22-.79.76-.82,1.45-.08,2.91-.16,4.37-.16.22,0,.61.37.62.57,0,.22-.33.59-.58.63-.79.12-1.61.12-2.41.16-.85.04-1.04.39-.66,1.11.88-.04,1.77-.07,2.66-.11.51-.02.93.06.92.61,0,.49-.36.69-.88.73-.4.03-.81.03-1.21.05-1.69.08-1.86.29-1.45,1.89.72-.05,1.45-.11,2.19-.16.35-.02.74-.08,1.05.02.25.09.51.38.56.61.03.14-.31.48-.51.49-1.6.12-3.21.17-5.14.27ZM139.7,127.85c.21,1.89-.17,3.67.49,5.46h3.63c-1.13-.14-2.3.19-3.58-.27,0-.47-.01-.94,0-1.41.04-.98.08-1,1.18-1.14.64-.08,1.28-.19,1.92-.28,0-.04,0-.08,0-.12h-2.9c-.56-1.9-.34-2.15,1.8-2.21.55-.01,1.09-.04,1.64-.06-.22-.26-.41-.31-.6-.29-1.1.09-2.19.19-3.58.32Z"/>
      <path class="cls-5" d="M130.43,131.44h-2.94c-.09.85-.18,1.64-.26,2.42-1.3.19-1.45.14-1.45-.84,0-1.92.1-3.83.16-5.85h1.64c0,.62-.03,1.18,0,1.74.06.86.21.99,1.16,1.04.35.02.71.01,1.06,0,.19,0,.38-.06.68-.11.04-.45.09-.87.12-1.3.09-1.23.17-1.29,1.8-1.04.03.57.11,1.16.09,1.76-.03,1.27-.09,2.53-.17,3.8-.05.71-.42,1.15-1.42,1.04-.76-.76-.01-1.76-.47-2.66ZM131.72,128.03c-.13,0-.27-.01-.4-.02-.02.53-.01,1.07-.05,1.6-.06.85-.27,1-1.19.9-.15-.02-.29-.07-.44-.09-.82-.12-1.91,0-2.38-.42-.49-.43-.37-1.37-.52-2.09-.04,0-.08,0-.12-.01v5.24s-.06,0-.09,0c.09-.76.19-1.51.3-2.35,1.57,0,2.95-.14,4.37.09.06.86.11,1.6.15,2.33.1,0,.2,0,.3-.01.03-1.73.27-3.46.06-5.19Z"/>
      <path class="cls-5" d="M80.93,127.49c.09.76.18,1.46.29,2.35.95-.74,1.73-1.4,2.57-2,.85-.62,1.2-.61,2.39-.05-.98.89-1.95,1.76-3.03,2.73.76,1.15,1.49,2.26,2.21,3.37-1.17.55-1.46.54-2.05-.24-.49-.65-.89-1.35-1.34-2.05-1.04.24-1.16.84-1.12,1.53.05.76-.31,1.15-1.25,1.08-.09-.11-.25-.21-.26-.31-.02-1.74-.06-3.48-.02-5.23.02-.66.39-1.18,1.59-1.19ZM82.65,131.27c-.3-.57-.17-.99.35-1.42.63-.52,1.17-1.11,1.75-1.67-1.67.51-2.45,2.03-4.28,2.56-.05-.87-.08-1.56-.12-2.26-.07,0-.14,0-.21,0-.09,1.54-.17,3.08-.26,4.62-.1-1.34,1.03-1.79,2.09-2.32.26.19.47.34.68.49ZM84.04,133.55c.09-.06.18-.13.27-.19-.26-.29-.52-.59-.79-.88-.06.04-.12.08-.18.12.23.32.47.63.7.95Z"/>
      <path class="cls-6" d="M107.84,119.31c-1.96-.23-3.16-1.19-3.27-2.8-.17-2.53-.19-5.07.45-7.58.37-1.45,1.35-2.31,3-2.61,1.74-.31,3.04.39,4.12,1.47.53.53.53,1.19.25,1.94-.46-.04-.9-.08-1.33-.11-1.37-.08-2.12.27-2.52,1.42-.31.87-.46,1.79-.52,2.7-.1,1.35-.05,2.71-.08,4.07,0,.47-.05.94-.09,1.5ZM111.95,109.19c-.24-1.44-1.49-2.39-3.03-2.45-1.57-.07-2.9.73-3.26,2.07-.68,2.59-.64,5.22-.41,7.85.08.89.56,1.75,1.95,1.98.03-.53.05-.96.07-1.39.09-1.62.14-3.24.29-4.85.06-.64.27-1.3.58-1.89.73-1.35,2.03-1.73,3.8-1.32Z"/>
      <path class="cls-5" d="M119.22,129.66c-.47.1-.85.18-1.34.28-.07-.09-.17-.19-.23-.3-.33-.7-.82-1.21-1.81-1.11-.93.09-1.52.64-1.73,1.3-.2.64-.23,1.44.05,2.04.22.48.95.91,1.56,1.08.66.19,1.23-.27,1.6-.78.16-.22.2-.58.41-.68.35-.17.84-.31,1.2-.24.51.1.37.53.26.88-.56,1.78-1.89,2.49-4.16,2.19-1.63-.21-3.12-1.74-2.89-3.23.14-.93.54-1.88,1.09-2.68.65-.94,1.72-1.47,3.1-1.2,1.46.28,2.7.78,2.87,2.46ZM118.48,131.63c-.25.34-.34.47-.44.59-.8,1.05-1.74,1.49-2.71,1.26-1.17-.27-2.02-1.27-2.09-2.46-.09-1.61.77-2.59,2.85-3.23-.84-.2-1.51.05-2.04.56-.88.84-1.3,1.88-1.26,3,.05,1.37,1.37,2.46,2.91,2.56,1.51.09,2.36-.54,2.78-2.27ZM118.11,128.98c.09-.07.17-.14.26-.21-.31-.25-.62-.49-.93-.74-.06.05-.12.11-.18.16.28.26.56.52.85.79Z"/>
      <path class="cls-5" d="M115.13,51.23c-2.84-2.55-5.16-12.21-3.91-15.5.63-.09.89.35,1.13.69,1.71,2.41,3.02,4.97,3.18,7.84.1,1.75.02,3.5-.03,5.25-.01.5-.21.99-.38,1.71ZM114.69,49.84c.93-5.01-.57-11.32-3.13-13.05-.06,4.57.5,8.92,3.13,13.05Z"/>
      <path class="cls-5" d="M102.4,128.96c-.85-.11-1.39-.19-1.92-.26-.4-1.01-.26-1.31.71-1.34,1.46-.04,2.93-.03,4.4.01.85.02.85.07,1.04,1-.75.17-1.52.33-2.48.54,0,.83-.02,1.65,0,2.46.02.82.08,1.65.13,2.58h-1.88v-4.99ZM103.14,133.4c.11,0,.23-.02.34-.02.02-.21.05-.42.05-.64-.01-1.18-.02-2.36-.05-3.54-.02-.64.32-.98,1.06-1.03.28-.02.56-.04.91-.07-1.45-.78-2.84.05-4.24-.02.61.06,1.22.11,1.94.18v5.13Z"/>
      <path class="cls-5" d="M120.01,40.84c1.44,2.49-1.1,8.41-4.06,9.65-.43-.65-.11-1.29.12-1.87,1.07-2.65,1.78-5.44,3.94-7.78ZM116.62,49.27c2.26-2.27,3.79-5.04,3.08-7.1-1.06,1.41-2.85,5.53-3.08,7.1Z"/>
      <path class="cls-5" d="M93.93,134.26c-.58.02-1.02.04-1.65.06-.12-.68-.28-1.31-.32-1.94-.07-1.13-.02-2.27-.11-3.4-.11-1.38.1-1.56,1.96-1.21.17,2.1.08,4.25.11,6.48ZM93.16,133.99c.28-1.54.1-4.75-.26-5.46-.37,1.44-.28,4.44.26,5.46Z"/>
      <path class="cls-6" d="M115.63,73.72c1.01.25.98,1.07,1.28,1.74-.46.19-.81.15-.94-.29-.14-.48-.22-.97-.32-1.46h-.02Z"/>
      <path class="cls-5" d="M112.33,77.68c-.26.34-.52.57-.61.84-.09.26-.12.65.04.82.91.99,1.78,2.03,2.86,2.87,4.92,3.81,8.01,5.46,14.79,6.45-.33.22-.56.42-.82.54-3.05,1.44-6.32,2.42-9.72,2.87-1.96.26-4.03-.08-6.04-.22-3.32-.24-6.42-1.17-9.41-2.38-.37-.15-.75-.29-1.07-.49-.97-.62-1.94-1.08-3.11-.14-.03-.28-.08-.41-.04-.52.85-2.52,1.72-5.04,2.56-7.56.2-.6.53-.98,1.28-1.14,2.93-.66,5.85-1.36,8.78-2.05.08-.02.19.03.53.1Z"/>
      <path class="cls-5" d="M90.71,69.23c0-.44-.06-.78,0-1.1,1.38-6.97,4.95-12.83,11.65-17.06,1.75-1.11,3.57-2.15,5.95-2.3-.1-.76-.2-1.5-.29-2.24.11-.03.22-.07.33-.1,2.32,2.06,3.8,4.66,5.87,6.88-1.4,2.83-2.77,5.6-4.23,8.56-.32-.46-.53-.76-.84-1.21-2.84.52-5.81.85-8.63,1.62-4.08,1.1-7.31,3.31-9.47,6.58-.07.11-.18.19-.35.37Z"/>
      <path class="cls-5" d="M141.01,62.8c-.21-.17-.45-.33-.63-.52-2.12-2.33-5.12-3.11-8.32-3.19-4.57-.11-9.06.57-13.44,1.74-.37.1-.77.15-1.14.23-.13-.17-.26-.27-.29-.38-.49-2.01-.94-4.03-1.45-6.04-.16-.64.06-1.1.61-1.5,1.97-1.44,3.95-2.87,5.91-4.32.49-.37,1.01-.5,1.67-.45,1.7.14,3.22.69,4.71,1.36,3.72,1.69,6.62,4.17,8.95,7.14,1.22,1.55,2.21,3.23,3.28,4.86.19.29.27.63.39.95-.09.05-.17.09-.26.14Z"/>
      <path class="cls-6" d="M94.84,82.36c-.55-.78-1.09-1.4-1.45-2.09-1.44-2.77-2.4-5.66-2.9-8.67-.26-1.53.51-2.86,1.44-4.05,1.65-2.09,3.87-3.68,6.53-4.77.13-.05.29-.04.63-.09.25,2.1.67,4.21,2.35,5.8,1.59,1.5,3.43,2.8,5.31,4.31-1.34.9-2.8,1.8-4.16,2.82-1.34,1-2.58,2.1-3.82,3.18-1.27,1.11-2.5,2.26-3.93,3.55Z"/>
      <path class="cls-6" d="M144.66,74.62c-2.27.14-4.23.2-6.19.39-1.4.14-2.79.41-4.17.68-.62.12-1.12.06-1.47-.4-1.48-1.97-2.95-3.96-4.52-6.07h1.41c.67-1.6,1.49-3.2,2.01-4.87.51-1.67.72-3.42,1.09-5.27.53.04,1.07.05,1.59.14,2.57.47,4.7,1.54,6.26,3.42.81.97,1,2.08,1.25,3.2.52,2.38.82,4.76.6,7.18-.05.57.25.9.86,1.08.37.11.71.29,1.27.53Z"/>
      <path class="cls-6" d="M119.92,85.81c3.98-3.38,5.08-7.74,6.18-12.26,4.59,2.22,8.31,5.39,12.86,7.75-.85,1.23-1.74,2.22-2.76,3.12-.96.84-2.06,1.57-2.93,2.46-1.47,1.51-3.29,1.96-5.43,1.63-2.55-.39-4.97-1.11-7.23-2.22-.17-.08-.31-.21-.69-.48Z"/>
      <path class="cls-4" d="M116.74,62.76c-1.08-.57-2-.22-2.86.47-.05-.07-.11-.15-.16-.22.44-.34.89-.68,1.41-1.07-1.68-1.91-1.4-3.96-.31-6.03-.1.57-.12,1.17-.31,1.72-.49,1.45.04,2.67,1,3.82.38.46.81.89,1.22,1.34l.02-.02Z"/>
      <path class="cls-4" d="M115.81,72.76c.34-1.43,1.36-2.56,2.24-3.75-.57,1.33-1.22,2.63-2.23,3.77h-.02Z"/>
      <path class="cls-4" d="M116.71,62.78c1.05.62,1.59,1.47,1.4,2.66-.46-.89-.92-1.78-1.38-2.68l-.02.02Z"/>
      <path class="cls-4" d="M115.82,72.78c-.21.44-.41.88-.62,1.31,0,0,.02.01.02.01.19-.45.39-.89.58-1.34h.02Z"/>
      <path class="cls-6" d="M78.43,97.22c2.08.9,3.41,1.87,3.34,3.8-.07,2.05-.04,4.11-.05,6.17,0,.2.04.4.08.75.42-.24.7-.39.97-.55.94-.54,1.94-.91,3.11-.91,2.11,0,4.05,1.19,4.3,3.02.37,2.64.48,5.32.65,7.98.03.39-.22.8-.33,1.19-1.87-.31-2.46-.85-2.6-2.2-.17-1.61-.33-3.22-.54-4.83-.06-.43-.19-.87-.41-1.25-.51-.86-1.24-1.5-2.49-1.43-1.24.07-2.16.6-2.52,1.61-.36,1.04-.61,2.12-.72,3.2-.09.9.11,1.83.15,2.75.03.69,0,1.38,0,2.07-1.85-.06-2.57-.56-2.88-1.99-.14-.64-.26-1.3-.26-1.95-.01-4.95,0-9.9.02-14.84,0-.78.1-1.55.18-2.57Z"/>
      <path class="cls-6" d="M92.6,110.09c.43-1.99,1.92-3.01,4.01-3.11,2.79-.13,4.43,1.1,5.56,3.13,1.05,1.88,1.28,3.86,1.07,5.89-.17,1.62-1.36,2.58-3.26,3.02-1.91.44-3.71.23-5.48-.41-2.7-.98-3.29-3.99-1.09-5.7.42-.33,1.05-.56,1.61-.63,1.25-.17,2.52-.19,3.77-.3.6-.05,1.38-.09,1.48-.69.07-.45-.15-1.11-.52-1.41-.51-.42-1.26-.76-1.95-.86-1.58-.21-3.12.02-4.53.75-.2.1-.41.2-.68.33ZM97.31,117.1c1.9.09,3.23-1.03,3.11-2.4-.05-.59-.59-1.09-1.02-.85-.93.54-1.95.32-2.92.45-.74.1-1.15.54-1.29,1.14-.15.64.22,1.11.89,1.36.46.16.96.24,1.22.31Z"/>
      <path class="cls-5" d="M128.8,113.89c.07,1.68,1.67,2.88,3.68,2.69.89-.08,1.76-.36,2.64-.58.57-.14,1.12-.34,1.71-.53.05,2.13-2.05,3.84-4.37,3.66-3.58-.27-5.62-1.83-6.3-4.91-.22-.98-.37-2-.32-2.99.11-2.23,1.78-3.97,4.27-4.57.77-.19,1.58-.36,2.38-.38,1.21-.04,2.27.35,3.1,1.15.85.82,1.28,1.79,1.39,2.85.15,1.42-.93,2.6-2.68,2.86-1.64.25-3.3.4-4.95.6-.19.02-.38.09-.55.13ZM130.01,111.74c.85-.11,1.69-.21,2.54-.34.68-.1,1.26-.3,1.33-1.03.07-.78-.21-1.37-.87-1.68-1.45-.69-3.93.41-4.14,1.84-.11.74.31,1.19,1.15,1.2Z"/>
      <path class="cls-5" d="M118.75,118.86c-.29-.32-.47-.53-.64-.73-.71-.82-.85-1.56.05-2.44.65-.63,1.07-1.47,1.48-2.27.94-1.83,1.82-3.69,2.7-5.55.51-1.08,1.59-1.36,2.89-1.66.25,1.34-.74,2.28-1.15,3.34-.41,1.08-.87,2.14-1.36,3.19-.51,1.09-1.04,2.18-1.65,3.23-.59,1-1.11,2.05-2.31,2.87Z"/>
      <path class="cls-6" d="M113.26,106.91c.6.22,1.05.41,1.52.55.58.17.84.51,1.06,1.01.75,1.76,1.54,3.51,2.39,5.24.72,1.47.73,1.6-.74,2.78-1.91-1.49-4.29-6.78-4.23-9.57Z"/>
      <path class="cls-5" d="M138.94,115.55c.61.26,1.18.5,1.76.74,1.3.54,2.61.64,3.95.13.89-.34,1.21-.79,1.16-1.65-.05-.8-.32-1.13-1.34-1.34-1.08-.22-2.19-.3-3.27-.48-2.01-.34-2.73-1.2-2.52-2.96.31-2.56,2.88-4.12,5.85-3.59,1.07.19,2.11.35,2.46,1.44.04.12,0,.26,0,.52-.5-.08-.98-.1-1.43-.23-1.23-.35-2.27,0-3.3.54-.54.28-.75.67-.67,1.21.08.5.44.77.97.89.68.15,1.37.3,2.05.44.34.07.69.14,1.02.23,1.48.39,2.78,1.01,2.98,2.47.23,1.7-.25,3.19-2.14,4.16-1.9.97-3.81,1.01-5.77.28-1.4-.52-1.89-1.31-1.76-2.79Z"/>
      <path class="cls-6" d="M151.48,149.06c1.58,0,3.04-.02,4.5.01.44,0,1.19-.24,1.2.42,0,.64-.74.45-1.19.45-1.26.02-2.53.01-3.79-.02-.54-.02-1.07-.14-1.67-.22-.16-2.92-.32-5.74-.47-8.51,1.57-.42,5.81-.44,7.13-.02-2.07.53-4.08.29-6.06.46-.33.91-.16,1.74-.09,2.54.05.56.55.67,1.1.67,1.11,0,2.22.01,3.33.02.39,0,.79,0,1.2.11-.82.4-1.71.49-2.62.52-.71.02-1.42.02-2.12.08-.63.06-1,.32-.86.97.18.8.27,1.62.41,2.53Z"/>
      <path class="cls-6" d="M88.35,143.74c-.45-.39-.78-.69-1.13-.99-1.81-1.54-4.39-1.19-5.57.76-.79,1.3-.9,2.7-.57,4.09.29,1.26,1.42,1.85,2.8,2.11,1.38.25,2.63.08,3.55-.95.39-.44.69-.94,1.06-1.45.3,1.47-.45,2.5-1.91,2.92-3.67,1.06-6.68-1.61-6.41-4.25.08-.78.12-1.58.39-2.32.58-1.61,2.03-2.36,3.89-2.48,1.78-.12,3.13.53,3.96,1.94.04.08.07.16.08.25,0,.04-.02.08-.13.38Z"/>
      <path class="cls-6" d="M127.43,141.07c2.05-.39,5.56-.3,6.48.22-1.95.61-3.93.31-5.82.6-.4,1.05-.19,2.03.13,3.14h5.14c-1.02.73-2.71,1-4.95.89-.5,1.27.04,2.7-.55,4.12-.65-.89-.86-6.53-.43-8.97Z"/>
      <path class="cls-5" d="M152.53,128.81c.04-.36.07-.72.11-1.09.09-.04.19-.08.28-.12.3.31.62.6.89.93.87,1.06,1.71,2.14,2.57,3.2.14.17.32.33.52.43.51.24.33.54.11.96-1.66-1.34-1.88-3.75-4.5-4.31Z"/>
      <path class="cls-5" d="M152.41,131.61c.07.4.13.81.2,1.21-.09,0-.19.02-.28.03-.03-.41-.06-.81-.08-1.22.06,0,.11-.01.17-.02Z"/>
      <path class="cls-6" d="M103.59,150.34c.02-.16,0-.34.07-.49,1.03-2.6,2.06-5.2,3.09-7.8.23-.57.48-1.1,1.41-.81,1.26,2.91,2.53,5.84,3.8,8.79q-.94.02-2.22-2.71c-1.27,0-2.63-.05-3.97.04-.32.02-.72.43-.88.74-.39.74-.65,1.53-.97,2.29-.11-.02-.22-.03-.33-.05ZM109.4,146.31c-.32-1.1-.57-2.1-.92-3.08-.08-.23-.47-.52-.72-.52-.27,0-.69.25-.79.48-.39.84-.69,1.72-.98,2.59-.07.22.03.49.06.83,1.11-.1,2.12-.19,3.35-.3Z"/>
      <path class="cls-5" d="M139.7,127.85c1.38-.12,2.48-.23,3.58-.32.19-.02.39.03.6.29-.55.02-1.09.05-1.64.06-2.14.05-2.36.31-1.8,2.21h2.9s0,.08,0,.12c-.64.09-1.28.2-1.92.28-1.1.14-1.14.17-1.18,1.14-.02.47,0,.94,0,1.41,1.28.46,2.45.13,3.58.27h-3.63c-.67-1.79-.28-3.57-.49-5.46Z"/>
      <path class="cls-5" d="M131.72,128.03c.21,1.73-.03,3.46-.06,5.19-.1,0-.2,0-.3.01-.05-.74-.1-1.47-.15-2.33-1.43-.23-2.81-.08-4.37-.09-.11.84-.2,1.59-.3,2.35.03,0,.06,0,.09,0v-5.24s.08,0,.12.01c.15.72.03,1.66.52,2.09.47.41,1.56.3,2.38.42.15.02.29.08.44.09.93.1,1.13-.05,1.19-.9.04-.53.03-1.07.05-1.6.13,0,.27.01.4.02Z"/>
      <path class="cls-5" d="M82.65,131.27c-.21-.15-.42-.3-.68-.49-1.05.54-2.19.99-2.09,2.32.09-1.54.17-3.08.26-4.62.07,0,.14,0,.21,0,.04.69.07,1.39.12,2.26,1.83-.54,2.61-2.06,4.28-2.56-.58.56-1.13,1.16-1.75,1.67-.51.42-.65.84-.35,1.42Z"/>
      <path class="cls-5" d="M84.04,133.55c-.23-.32-.47-.63-.7-.95.06-.04.12-.08.18-.12.26.29.52.59.79.88-.09.06-.18.12-.27.19Z"/>
      <path class="cls-6" d="M111.95,109.19c-1.77-.41-3.08-.03-3.8,1.32-.31.58-.52,1.25-.58,1.89-.16,1.61-.2,3.24-.29,4.85-.02.43-.04.86-.07,1.39-1.39-.23-1.87-1.09-1.95-1.98-.23-2.62-.27-5.26.41-7.85.35-1.35,1.69-2.14,3.26-2.07,1.53.06,2.79,1.01,3.03,2.45Z"/>
      <path class="cls-5" d="M118.48,131.63c-.42,1.73-1.28,2.36-2.78,2.27-1.55-.09-2.86-1.19-2.91-2.56-.04-1.12.38-2.15,1.26-3,.53-.51,1.2-.76,2.04-.56-2.08.64-2.94,1.62-2.85,3.23.07,1.19.92,2.2,2.09,2.46.97.22,1.91-.21,2.71-1.26.1-.13.19-.26.44-.59Z"/>
      <path class="cls-5" d="M118.11,128.98c-.28-.26-.56-.52-.85-.79.06-.05.12-.11.18-.16.31.25.62.49.93.74-.09.07-.17.14-.26.21Z"/>
      <path class="cls-5" d="M114.69,49.84c-2.63-4.13-3.19-8.48-3.13-13.05,2.57,1.73,4.06,8.04,3.13,13.05Z"/>
      <path class="cls-5" d="M103.14,133.4v-5.13c-.72-.07-1.33-.12-1.94-.18,1.39.07,2.79-.76,4.24.02-.35.03-.63.05-.91.07-.73.05-1.07.39-1.06,1.03.03,1.18.04,2.36.05,3.54,0,.21-.03.42-.05.64-.11,0-.23.02-.34.02Z"/>
      <path class="cls-5" d="M116.62,49.27c.23-1.57,2.02-5.69,3.08-7.1.71,2.06-.82,4.83-3.08,7.1Z"/>
      <path class="cls-5" d="M93.16,133.99c-.55-1.03-.63-4.02-.26-5.46.36.72.55,3.93.26,5.46Z"/>
      <path class="cls-6" d="M109.4,146.31c-1.22.11-2.23.2-3.35.3-.03-.34-.13-.61-.06-.83.29-.87.59-1.75.98-2.59.1-.23.52-.48.79-.48.25,0,.64.29.72.52.35.98.6,1.98.92,3.08ZM107.96,143.49c-.15-.02-.3-.05-.45-.07-.29.79-.58,1.59-.9,2.46h1.97c-.23-.88-.42-1.64-.62-2.39Z"/>
      <path class="cls-5" d="M113.43,71.67c-.15.89-.06,1.75.74,2.44.83.71.93,1.11.3,2.01-.42.6-.09,1.02.17,1.51.26-.45.42-.91.54-1.37.11-.4.24-.82.24-1.22,0-.54-.13-1.09-.21-1.63.2.16.4.33.61.49h-.02c1.65-.83,3.07-1.84,3.66-3.5.28-.79.57-1.59.8-2.4.33-1.18.34-2.29-.53-3.18-.9.14-1.76.51-2.38.84-.03.06-.06.13-.1.17-.5.6-1.09,1.15-1.64,1.72-1.16,1.2-1.94,2.57-2.2,4.12ZM115.23,73.17c-.1.21.39-.66.29-.45.09-.22.19-.44.28-.65.34-1.43,3.02-5.76,3.91-6.95-.57,1.33-3.48,6.91-4.48,8.05Z"/>
      <path class="cls-6" d="M113.41,61.72c-.27-.6-.05-1.42-.98-1.66-.27-.07-.64.17-.97.27-.06.1-.13.19-.19.29,1.11.38,1.31,1.08,1.36,1.92.05.85.73,1.1,1.6.67.43-.21.82-.48,1.4-.83.46.55.86,1.04,1.27,1.53-.07.07-.14.14-.21.22-.55-.14-1.11-.28-1.64-.42q-.39.63-1.67,1c.48.63,1.07.93,1.91.76.39-.08.75-.3,1.14-.34.3-.03.79.03.91.2.03.04.08.29.09.34.68-.31,1.5-.6,2.19-.62-.18-.17-.37-.33-.62-.48-.05-.03-.02-.16-.03-.24,1.44-1.47,1.39-2.24-.22-2.79-.03.51-.07,1-.11,1.56-3.3-1.99-4.18-3.85-3.24-6.94.02.06-.02-.11,0-.06-.03-.54-.05-1.06-.24-1.45-.33-.67-.56-.8-.56-.8l-.56,1.33c-.26.8-.59,1.59-.74,2.41-.2,1.14-.1,2.27.59,3.31.29.45.31.82-.48.83Z"/>
      <path class="cls-6" d="M115.22,73.41s-.78.04-.82.47c-.04.42.27.46.31,1,.04.54,0,1.08-.4,1.58-.4.5.34,1.18.34,1.18,0,0,1.18-2.22.95-2.99-.22-.77-.38-1.24-.38-1.24Z"/>
      <path class="cls-5" d="M152.93,97.13s.19,7.38.66,8.51c.46,1.13,4.45.64,4.45.64,0,0,.38,1.19-.6,1.65-.98.46-3,.85-4.17.69,0,0-.55,7.63,1.05,7.79,1.6.15,4.42-.55,4.42-.55,0,0-2.91,5.33-7.54,2.71,0,0-2.76-9.72-1.96-14.96.8-5.24,1.68-6.17,3.69-6.48Z"/>
    </g>
  </g>
  <polygon class="cls-2" points="39.82 81.97 16.87 115.56 18.01 117.01 61.79 115.49 46.06 86.6 41.39 81.13 39.82 81.97 39.82 81.97"/>
  <path class="cls-1" d="M37.98,86.33c-.83.36-.24-.84-1.07-.47-.4.13-.18.83-1,.58-.32,1.37-.64,2.72-1.93,3.22-.31,1.44.73,1.38,1.15,2.03-1.81,1.33-1.82,5.56-5.01,4.16.29.77,1.25.81,1.39,1.76-.69.35-1.2.49-1.53.59,1.11.91-.3.68-.72,1.34-1.11,1.72-1.71,4.44-3.66,4.87-.07,1.25-.53,2.17-1.71,2.43.66,1.35-.38.18-.74.82,1.67.32-1.07,1.14.1,1.82-1.85.39-1.4,2.87-2.68,3.79-.17-.45.24-1.55-.33-1.55,0,.4.08.9-.49.8-.28.86.85.15.57,1.01-1.08.26-.88,1.69-1.44,2.42,2.71-.6,7.11-.64,10.14-.5.04-.21-.02-.52.23-.54,10.08.93,18.12-.64,30.43-.98-.56-2.73-2.98-4.05-3.92-5.54-.31-2.31-2.5-2.54-2.59-5.08-1.17.17-1-.93-.86-1.52-1.04.02-1.97-1.66-1.14-2.03-.81.44-.87-.15-1.59-.44-1.88-5.68-6.37-9.68-8.52-14.17.01.26-.44.35-.52.02.32-.04.61-.11.5-.55-.73.25-.69-.33-1.32-.19-1.26,1.76-1.82,4.14-3.92,5.14.55.89-.19,1.27-.68,1.86-.32-1.04-.06-2.03.38-2.89.43-.02.18.72.56.75.06-1.11.95-3.24,1.71-2.17-.03-.36.09-.58.22-.79h0ZM53.16,98.34c1.54.23,1.13,2.58,2.74,2.73.04,1.68.91,2.47,1.97,3.03-.12,1.78.89,2.31,1.96,2.77.12.44-.18.5-.49.55.37.36,1.22.6.58,1.28.2-.15.41-.3.76-.31.12.52-.01.82-.48.81.52.67,2.02,2.08,1.17,2.55.27.44.84.53,1.58.44.15,2.13,1.32,3.12,1.31,5.41-.25-.15-.98-.56-.76.29-.47-.49-1.81-.01-1.87-.95-.58,1.02-1.78-.68-3.09.67-.79.13-.58-.82-.85-1.27-.74.26.37.64.07,1.3-.2-.17-.88-1.05-.78.04-3.63-.25-9.02-.27-12.24.08-.01-.26-.03-.51-.04-.78-1.17.7-2.55.83-3.64.18-.7,1.01-5.54,1.05-7.02.35-2.86,1.64-9.21.09-10.59,1.82-2.24-1.25-6.1.17-8.9-.86-.26-.82.17-1,.46-1.33-1.05-.03-.44-.19-.61-1.79,1.21-.4,1.71-1.43,1.68-2.95,1.21.19.52-1.34,1.77-1.13-.23-.78-.21-.49-.07-1.3,1.77.2.7-2.18,2.23-2.19-.18-.26-.61-.24-.56-.76,1.05.29.49-.88,1.53-.6-.02-.43-.04-.87-.06-1.3.22-.21.58-.31,1.02-.31,1.53-3.92,4.38-6.64,6-10.46.9-.02,1.18-.58.96-1.61.76.03.76-.63,1.53-.6.63-3.48,3.95-4.53,4.55-8.05,2.85-.64,2.17-4.48,4.95-5.19-.18-.26-.61-.24-.56-.76.86-.05,1.27-.5,2.33-.37,1.16.82-.31,1.34,1.36,1.23-1.07,1.18.34,4.61,1.51,4.09.38.07.07,1.97,1.38,1.76-.14.8.32.93.35,1.54,3.34,2.79,3.98,8.57,7.33,11.36.12.44-.18.5-.5.55h0Z"/>
  <text class="cls-3" transform="translate(29.16 111.99) scale(.79 1)"><tspan x="0" y="0">25</tspan></text>
</svg>