<?xml version="1.0" encoding="UTF-8"?>
<svg id="Layer_1" data-name="Layer 1" xmlns="http://www.w3.org/2000/svg" viewBox="0 0 180 200">
  <defs>
    <style>
      .cls-1 {
        fill: #cab9a8;
      }

      .cls-2, .cls-3 {
        fill: #231f20;
      }

      .cls-2, .cls-4 {
        fill-rule: evenodd;
      }

      .cls-5 {
        fill: #fff;
      }

      .cls-3 {
        font-family: AmericanTypewriter-Bold, 'American Typewriter';
        font-size: 19.28px;
        font-weight: 700;
        letter-spacing: .02em;
      }

      .cls-4 {
        fill: #b4c934;
      }
    </style>
  </defs>
  <g>
    <path d="M55.32,69.51c.33-.24.74-.25,1.13-.28,4.29-.31,8.74.2,13,.23,11.93.1,23.86.34,35.74.2,19.97-.25,40.01-.41,60-.65,1.61-.02,8.17-.25,9.16.17,1.33.57.71,1.61.69,2.54-.14,10.35.26,20.81.24,31.21,0,3.89-.02,7.81-.02,11.68,0,4.7-.22,9.38-.02,14.05-.31.91-2.16.16-2.89.14-20.47-.7-41.03,1.55-61.54.88-5.97-.19-11.3-.46-17.31-.43-9.16.03-18.17-.39-27.29-.67-3-.09-6.42.28-9.33.02-.48-.04-1.37-.1-1.39-.75l-.18-58.33ZM173.76,70.54c-2.87-.01-5.69-.24-8.57-.22-18.24.1-36.57.26-54.81.65-8.52.18-17.06-.02-25.54.02-6.54.03-12.98-.28-19.5-.45-2.99-.08-6.01.08-9,0l.22,41.59c1.35.07,2.66.24,4.02.23,11.14-.15,22.26-.05,33.36,0,19.02.08,38,.5,56.95.22,6.22-.09,12.98-.64,19.07-.44,1.22.04,2.77.28,4.01.43l-.21-42.02ZM75.79,117.59c-2.2.38-2.69,2.69-2.06,4.56s1.69,1.42,3.26,1.73c.78.15,1.97,1.12,1.89-.15l-1.07-.66c2.03-1.91,1.21-6.03-2.01-5.47ZM63.5,117.75v5.74l.32.32h3.14l-.25-1.05-1.9-.26-.46-4.74h-.86ZM70.86,117.75c-.59,0-1.17-.18-1.3.54-.29,1.58.41,3.42.02,4.95,1.98,1.28,1.06-1.32,1.05-2.35s.39-2.07.23-3.15ZM85.16,117.75v3.14c0,.08-.41,1.36-.47,1.48-.63,1.14-2.13-.11-2.13-.83v-3.57h-.87v3.79c0,.37.63,1.79,1.02,2.02,3.38,1.96,3.85-3.99,3.11-5.93l-.66-.1ZM90.51,117.8c-2.11.48-2.31,4.83-.43,5.75,2.58,1.26,4.02-.72,4.16-3.12.12-2.11-1.85-3.06-3.73-2.63ZM112.02,119.7v4.01l1.08.33-.22-5.74c-.05-.65-.81-.73-1.2-.33-.35.36-1.01,3.24-1.51,3.25-.94-1.46-.2-3.76-2.71-3.25.3.94-.5,5.61-.01,5.97l.66.1c.36-1.24.06-2.61.22-3.8.04-.3.15-.67.43-.32l.89,3.88h.83c.2-1.11.51-2.84,1.04-3.81.14-.26,0-.36.48-.28ZM116.13,117.97v6.06l3.47-.33v-.75s-2.39,0-2.39,0v-1.73c1.28-.16,2.4.89,2.17-1.08h-2.17s.01-1.29.01-1.29l2.04-.23c.88-1.38-3-.81-3.13-.65ZM122.63,124.03l.76-.21c.41-.6-.4-2.53.65-2.62,1.48-.12.97,2.44,1.39,2.74l1.08-.25-1.05-3.21c2.93-2.25-.98-3.21-3.05-2.51l.22,6.06ZM133,118c-2.73-1.13-4.51,1.38-4.04,3.93.33,1.81,3.62,2.4,4.06.91.18-.6-.75-.07-1.16-.11-3.36-.27-1.83-5.24,1.16-3.9l-.03-.84ZM140.61,123.82v-5.09c0-.17-.36-.64-.22-.98h-.65s-.42,2.29-.42,2.29l-2.07-.1c-.29-.49.18-1.99-.43-2.18-1.27-.4-.51,1.8-.52,2.27-.03,1.2-.46,2.49-.21,3.76h1.24s.03-2.79.03-2.79l2.35.25.03,2.57h.87ZM167.69,117.75c-1.71-.22-3.22.37-2.78,2.35,1.09.23,3.7,2.21,1.49,2.74-.59.14-1.7-.14-1.52.54,1.46.65,4.24-.44,3.05-2.29-.44-.68-1.89-.59-1.97-1.51s1.02-1.21,1.74-.75v-1.08ZM100.47,120.5c1.81-2.52-1.88-2.8-3.61-2.53-.11.7.2,1.36.23,2.05.03.95-.53,4.53.97,3.59l.13-2.03c2.14-1.51.42,2.26,2.03,2.26,1.67,0,.11-2.09-.31-2.76-.1-.38.43-.4.56-.57ZM146.24,117.98c-.3-.02-.64-.05-.93.04-.85.27-1.67,4.6-2.1,5.59,1.28.22,1.37-.41,1.54-1.49l1.4-.24.41.2c.34,1.23.36,1.75,1.84,1.52-.65-1.89-1.94-3.57-2.17-5.62ZM162.06,118.84l-.1-.66c-1.31-.31-3.02.19-4.45.23-.1,1.05,1.46.46,1.71.67.52.44-.06,4.3.44,4.65l.88.1.09-4.78,1.43-.2ZM151.66,123.82v-4.12c.81.17,1.04,1.58,1.47,2.32s1.06,1.8,1.99,1.58v-5.41l-.66.1-.21,2.94c-1.63-.47-.77-4.06-3.15-2.83.1.89-.65,4.94-.11,5.33l.66.1Z"/>
    <path class="cls-5" d="M173.76,70.54l.21,42.02c-1.23-.15-2.79-.39-4.01-.43-6.09-.2-12.85.35-19.07.44-18.95.28-37.93-.14-56.95-.22-11.1-.04-22.23-.14-33.36,0-1.36.02-2.67-.16-4.02-.23l-.22-41.59c2.99.07,6.01-.09,9,0,6.51.17,12.95.48,19.5.45,8.48-.03,17.02.17,25.54-.02,18.24-.39,36.57-.55,54.81-.65,2.88-.02,5.7.21,8.57.22ZM125.01,79.42c.56-3.07-1.52-7.64-4.87-8.01-4.51-.51-9.28,1.84-13.76.44.16.44.65.67,1.07.77,5.4,1.27,13.26-3.83,16.38,2.47.8,1.62.55,2.42.75,4.02.04.32.17.66.43.32ZM161.19,83.32c.44-.2.67-.82.8-1.25.65-2.18.95-6.99.44-9.2-.12-.52-.31-1.09-.71-1.46-.56-.08-.19.23-.1.54.8,2.64.56,5.69.19,8.43-.14,1-.58,1.93-.62,2.95ZM172.24,74.87c-2.94.44-.54-2.37-1.73-3.47-.25,1.53-.79,5.6,1.73,3.47ZM64.58,72.06c-1.73.71-3.33.3-4.98-.43-.58.57,2.4,1.28,2.71,1.31.66.05,1.25-.07,1.84-.34.33-.15.54.03.43-.53ZM71.29,71.62c-1.83-.41-2.9.82-4.33,1.4-1.28.52-4.35.88-5.74.76-1.18-.1-2.8-1.33-3.58-.43,3.77,1.33,8.26,1.35,11.55-1.12l2.1-.6ZM129.13,71.62c-.35-.02-.49-.1-.43.32.09.64.76,1.39.93,2.1.84,3.36-3.93,7.13,0,9.75l6.21,2.34c.4-.35-1.18-1.05-1.37-1.12-1.64-.68-5.16-1.06-5.83-3.05-.6-1.77,1.46-4.57,1.58-6.54.1-1.66-.64-2.34-1.1-3.8ZM135.2,71.62c-.48-.03-.4-.08-.44.33-.07.75.32,1.84.31,2.73-.02,2.38-1.96,4.45.85,5.86l6.65,2.77c.09-.44-.22-.5-.5-.69-1.45-.98-6.36-2.26-7.05-3.56-.52-.98.61-2.99.63-4.31.01-1-.59-2.08-.44-3.13ZM139.52,71.62l-.65.11c.44.95.61,3.64,1.4,4.23.91.69,2.59.21,3.6.52.96.29,1.15,1.73,2.53,2.02,3.76.78,1.41-4.91,2.01-6.66h-.65c-.3,1.24,1.44,6.23-.72,6.22-1.63-.01-1.75-1.7-2.74-2.01-1.79-.55-3.38.58-4.19-1.66-.31-.86-.41-1.87-.59-2.77ZM142.12,71.62c-.37-.01-.47-.12-.42.31.35,3.07,5.64,4.57,4.76.12-.88-.09-.12,1.33-.75,1.95-1.78.74-3.25-.67-3.58-2.39ZM154.47,71.62c-.39-.02-.45-.11-.43.32.04.7.38,1.46.43,2.17.28,4.22-.19,10.58-5.2,11.69-.5.91,1.12.19,1.53.01,3.46-1.52,4.32-6.54,4.34-9.97,0-.55-.47-4.02-.67-4.23ZM162.71,83.97c.44.47,1.17-1.68,1.25-1.89,1.19-3.35,1.22-6.93,1.13-10.45-.35.03-.41.93-.43,1.19-.09,1.06.1,2.21,0,3.25-.24,2.73-.94,5.37-1.96,7.9ZM88.84,72.27c-.12-.41-.29-.4-.65-.35-1.66.23-6.59,3-8.08,4.07-4.07,2.91-4.54,7.7-10.22,7.97-2.54.12-2.67-.89-4.34-2.16-1.66-1.26-2.49-2.06-4.75-2.18-.43-.02-1.4-.22-1.2.44,1.19.18,2.43.2,3.55.68,1.57.67,3.41,3.18,4.67,3.56,2.34.69,5.64-.3,7.38-1.95,1.08-1.02,1.7-2.58,2.6-3.69,2.31-2.85,7.59-5.27,11.04-6.4ZM78.44,83.32c1.25-.82,1.82-2.28,2.81-3.36s3.09-2.72,4.49-3.3c2.84-1.19,7.19-.41,7.21-4.81l-1.12,2.02c-1.29,1.88-3.82,1.39-5.87,2.14-2.71,1-5.74,3.99-7.21,6.44-.17.29-.43.44-.31.88ZM125.88,80.07c1.01-2.14,2.25-3.8,1.4-6.27-.31-.92-.91-2.04-2.05-1.95l1.27,1.44c1.14,2.2.16,4.38-1.02,6.29l.4.5ZM138.66,83.32c-.99-.2-1.81-.88-2.76-1.25-1.53-.61-4.69-.77-4.35-3.13.3-2.07,1.93-2.86,1.38-5.59-.07-.35-.41-1.32-.77-1.5.05,1.07.53,1.77.43,2.92-.22,2.56-3.62,5.22.38,6.98,1.11.49,3.72,1.56,4.81,1.91.42.13,1.02.34.87-.33ZM137.58,71.84c-.36,0-.47-.14-.39.28.21,1.1.67,4.59,1.07,5.21.36.55,2.83,2.02,3.58,2.48.49.3,1.13.38,1.66.72,2.47,1.57,1.71,3.29,5.62,1.65,1.84-.77,2.11-1.55,2.58-3.49.53-2.2.52-4.63.18-6.85-1.05-.03-.25,1.55-.22,2.28.07,1.42-.5,5.77-1.28,6.89-.15.21-2.08,1-2.44,1.08-2.47.59-2.11-.58-3.66-1.68s-3.96-1.83-5.5-3.16l-1.2-5.41ZM157.51,71.84c-.57-.08-.44.1-.44.55,0,1.02.57,2.35.65,3.46.21,2.68-.47,4.98-1.3,7.47.58.12.37-.15.54-.43,1.88-3.19,1.2-7.6.54-11.05ZM169.2,71.84c-.42-.08-.52.2-.69.5-.29.51-1.05,4.41-1.02,5.01.09,2,1.88,2.48,3.44,1.52.43-.26,1.88-1.78.66-1.83.04,1.19-1.87,2.08-2.82,1.62-1.44-.69,0-5.56.43-6.82ZM78.88,72.49c-.36-.66-1.82-.48-2.5-.44-3.3.22-4.63,1.78-7.32,2.86-3.51,1.41-7-.69-10.69.59-.33.11-.62-.19-.51.45,1-.05,1.9-.39,2.91-.44,2.24-.12,4.8.72,6.92.42,1.85-.26,4.22-2.25,6.25-2.85,1.6-.48,3.26-.68,4.93-.6ZM159.89,72.49c-.12-.12-.46-.16-.38.27.68,3.94.02,6.74-.91,10.56,1.07-1.25,1.55-4.12,1.7-5.77.08-.82.06-4.59-.41-5.06ZM96.85,72.71c-.46-.47-1.81,2.29-2.02,2.52-3.01,3.26-9.07,2.39-12.15,7.46l-4.67,8c3.42-3.15,4.12-8.22,8.22-10.73,3.74-2.29,9.18-2.26,10.62-7.25ZM167.04,72.71c-.58-.19-.56.85-.62,1.22-.42,2.42-.61,5.09-.9,7.55.82,3.58,3.18,1.93,4.99.22.29-.28,2.06-1.93,1.73-2.28-.43-.1-.51.23-.74.45-.68.67-2.41,2.61-3.1,2.96-1.11.55-2.08.12-2.23-1.14-.24-2.08.41-3.9.63-5.88.11-1.03-.07-2.07.24-3.11ZM83.21,72.92c-1.48.49-3.01.49-4.48,1.04-3.48,1.3-5.1,4.69-9.34,5.18-3.1.36-5.09-.9-7.88-1.53-.4-.09-3-.63-2.99-.03.26.41.58.3.96.33,4.33.39,7.49,2.86,12.09,1.24,3.23-1.14,5.14-4.33,8.55-5.1.9-.2,2.77.2,3.09-1.13ZM119.17,80.72c.33-.42-1.63-4.02-2.07-4.54-1.83-2.16-5.15-.62-7.35-.43-4.27.35-6.15-1.03-10.66,1.03-2.87,1.31-4.57,3.76-7.49,4.64-1.29.39-2.48.45-3.78.99-5.83,2.42-6.53,8.1-9.73,12.8-1.66,2.44-2.18,2.8-4.64,4.25-.12.07-.84.21-.43.54.48.39,3.21-1.54,3.68-2.06,4.42-4.96,5.16-12.92,11.99-15.3.87-.3,1.69-.3,2.49-.54,4.85-1.51,7.09-5.81,12.93-6.13,1.7-.09,3.41.46,4.97.44,2.25-.03,4.63-1.61,6.89-.39,1.27.68,1.99,3.07,2.65,4.29.16.3-.02.53.54.42ZM123.5,80.5c.46-.95.34-3.91-1.17-2.8-1.03.75.23,2.85.09,3.01-2.78.59-4.49,2.96-3.29,5.78.32.76.63,1.29,1.56,1.15-2.34-2.28-1.41-5.66,1.82-6.29.51,1.17.67-.75,2.16.05,1.66.88,1.89,2.92,1.37,4.57-.21.67-.67,1.05-.8,1.69,1.27.1,1.75-2.44,1.75-3.36,0-1.63-1.67-4.04-3.48-3.79ZM115.05,83.97c.1-.11-1.17-2.53-1.3-2.71-.74-1.06-3.41-1.74-4.66-1.83s-2.7.4-3.68.21c-.46-.09-.73-.55-1.19-.76-3.69-1.65-6.08,2.45-9.01,3.55-1.09.41-2.3.11-3.12,1.21l3.23-.67c2.61-1.2,5.42-4.93,8.52-3.72.57.22,1.01.95,1.81,1.02.73.07,1.62-.42,2.36-.43,1.15-.01,4.41.65,5.18,1.53.21.23,1.34,3.11,1.86,2.58ZM111.59,85.05c-1.65-.19-2.87-1.69-4.4-2.21-4.08-1.41-7.18,1.19-10.99,1.78-.17.64.53.48.96.41,3.68-.55,6.1-3.33,10.53-1.39,1.15.5,2.39,1.87,3.56,1.85.43,0,.35-.02.33-.44ZM162.28,88.52c1.14,4.51,5.91-.13,7.15-2.27l3.68-3.47c-.32-.51-.63-.14-.97.11-2.07,1.52-4.77,5.97-6.89,6.76-1.87.7-1.76-.17-2.97-1.13ZM147.9,85.99c-1.56-1.53-5.67-2.36-7.72-1.69-3.55,1.15-6.81,4.12-7.15,8.01-1,11.59,15.68,13.11,17.7,3.84.26-1.2.38-2.76.17-3.95-.69-1.17-7.3.5-8.76.02l-.21,2.98c1.69.7,3.42-.41,5.17-.19-.71,3.66-3.68,4.36-6.98,3.4-4.47-1.3-4.41-7.96-.8-10.21,2.96-1.85,5.2-.68,6.95,2,.59.47,2.68-1.78,2.75-2.06.1-.37-.83-1.87-1.13-2.16ZM65.17,84.46c-.59-.58-2.59.13-3.4.17l.09.87c2.92,5.64,5.57,11.47,8.89,16.88l8.76-17.62c-.18-.62-2.59-.29-3.2-.31l-5.88,10.58-5.26-10.56ZM88.57,84.24c-8.37,1.41-8.96,15.26-.8,18.03,3.91,1.33,9.51-1.62,10.51-5.73,1.73-7.1-1.69-13.65-9.7-12.3ZM106.82,102.16c1.11-.12,2.32.6,3.37.01.42-.6-.4-4.4-.07-5.7.39-1.53,3.82-6.05,4.83-7.95.31-.58,1.52-2.77,1.59-3.19.14-.92-2.03-1.11-2.68-.95l-5.63,8.03-4.13-7.78c-.56-.62-2.44-.24-3.26-.02-.33.45.87,2.67,1.17,3.19,1.12,2.01,3.96,5.58,4.49,7.64.44,1.72.05,4.84.32,6.72ZM159.02,87.87l8.25-.1.4-2.8-.34-.32-12.1.17c-.33,5.11.09,10.19.13,15.29,0,.84-.43,1.74.31,2.48h10.18c.24,0,.88-.38,1.42-.11l.31-.32-.14-3-8.2-.25-.22-2.69c1.3-1,6.34.12,7.17-.44.46-.31-.3-2.15.21-2.83l-.33-.54h-7.04v-4.55ZM128.48,95.23l-.66-.1c-1.69-2.67-2.47-6.31-3.95-9.04-.3-.55-.52-.97-1.13-1.25l-4.34,10.38-.64.22c-.73-1.52-1.27.02-.87,1.09.23.42,1.16-.76.97.09-.17.75-2.45,5.49-2.15,5.75.96-.16,2.13.55,2.92-.22.61-.6,1.43-4.37,2.23-5.57.48-.73.95-.5,1.77-.48l.33,1.07c.43-.18.26-1,.33-1.07.11-.11.96-.03,1.19.2.69.7,1.78,5.3,2.7,5.75l3.9-.21c.36-.28.12-.23,0-.43-.43-.69-1.01-1.36-1.38-2.09-.22-.43-1.13-2.36-1.21-2.69-.14-.59.58-.12.66-.43l-.02-1.62h-.65s0,.65,0,.65ZM133.9,87.65c-.09-.37-.5-.47-.81-.6-1.64-.68-3.79-1.07-5.48-1.78-.42.38,1.67,1.16,1.89,1.25,1.33.53,2.97,1.01,4.39,1.13ZM173.11,85.27c-.42-.09-.58.1-.88.31-1.66,1.22-3.16,3.57-4.75,5-.29.26-1.56.67-1.09,1.19.24.26,1.66-1.02,1.96-1.18l4.76-5.31ZM110.72,87.87c-1.95-.15-2.95-2.39-4.98-2.17-.11.62.15.35.48.49,1.32.54,1.94,1.2,3.06,1.72.36.16,1.64.81,1.45-.04ZM100.54,85.92c-.72-.05-1.39,0-2.1.18-.37.1-.6-.16-.5.46.65-.02,1.32-.16,1.95-.33.25-.06.7.02.65-.32ZM119.6,90.9c.2-.18-1.7-2.41-1.91-2.75-.23-.36-.84-2-1.01-2.01-.48-.04-.14.59-.1.74.1.42.26.89.47,1.27.23.43,2.12,3.15,2.56,2.74ZM57.43,86.57c.52.64,1.49.43,2.32.82.68.32,1.32,1.17,1.96,1.5.36.18.64.39.91-.05-1.69-1.08-2.96-2.66-5.19-2.27ZM149.71,88.73c.08.37.4.45.74.43.52-.03,3.58-1.93,3.16-2.38-1.33.58-2.35,1.96-3.9,1.95ZM101.4,87.65c-.95-.04-1.92-.01-2.81.32.54.57,1.76.24,2.49.1.35-.07.37.14.33-.43ZM132.6,90.25c.1-.48-.24-.49-.53-.66-1.03-.58-3.2-1.54-4.33-1.74-.36-.06-.44-.37-.76.12l5.63,2.27ZM109.85,89.38c-.69-.87-2.21-1.02-3.25-1.08-.1.58.1.38.47.49.83.26,1.91.47,2.78.59ZM144.73,90.9c-.03-.87-1.26-.76-1.88-1.04-.7-.31-1.31-.75-1.96-1.08-.37-.19-.35-.41-.71.06,1.34,1.14,2.81,1.78,4.54,2.06ZM172.89,89.17c-.57-.58-2.51,3.35-2.73,3.66-1.2,1.74-2.36,2.7-4.36,3.44-.73.27-1.99.05-2.01.91,2.67-.19,4.74-1.4,6.37-3.48l2.72-4.53ZM118.52,94.15c-.08-1.96-1.62-3.56-3.03-4.76.13,1.25,1.59,2.13,2.13,3.17.29.55.19,1.69.9,1.59ZM102.05,89.6c-.45-.02-.9-.02-1.36.05-.27.04-1.17.27-1.24.6.74-.07,1.54-.11,2.27-.22.38-.06.36.11.32-.43ZM160.53,89.82c-.21-.15-.49.13-.63.32l2.27,1.84c.28-.27.41-.22.11-.54-.36-.39-1.07-.74-1.51-1.1-.19-.16-.22-.49-.24-.51ZM153.32,90.83c.14-.15.47-.66.18-.8-.69.99-1.79.87-2.7,1.41-.02.75,2.22-.28,2.52-.61ZM138.23,90.25c.14.6,1.09,1.24,1.57,1.57.34.23.92.83,1.24.27-.93-.52-1.74-1.71-2.81-1.84ZM71.94,90.47c-.1-.08-1.82.48-2.12.59-.35.12-.58-.11-.47.49.76.07,1.52-.18,2.17-.54.13-.07.83-.22.42-.54ZM58.3,91.98c3.4.02,3.16,4.01,5.78,5.81.55.38,2.59,1.1,2.67.14.03-.4-1.22-.07-1.57-.15-2.11-.47-3.17-4.64-4.72-5.68-.59-.4-1.7-1-2.15-.13ZM127.18,91.55c-.43.4,1.99,1.44,2.24,1.55.53.25,1.46.68,1.99.83.18.05.79.35.75-.11-.03-.31-4.3-2.08-4.98-2.27ZM111.15,95.66c.56.84,3.32.05,4.05-.39,2.66-1.59-.98-3.79-1.24-3.51-.68.75,1.8.86,1.69,2.02-.66,1.81-2.93,1.65-4.5,1.88ZM154.47,93.28c.12-1.05-2.08-.3-2.6-.1-.35.14-.53-.02-.43.53.97-.36,2-.49,3.03-.43ZM104,92.85l-1.13.06-3.2.8c1.25.05,2.59-.13,3.81-.42.37-.09.63.21.52-.44ZM112.24,94.8c1.25.04,1.9-1,.97-1.95l.02,1.08-.99.87ZM137.75,93.34c-.21-.14-.72-.21-.6.26.21.5,3.99,3.17,4.7,3.53,1.18.6,1.69.94,3.1.47.16-.86-.93-.25-1.38-.28-1.2-.1-4.29-2.6-5.42-3.43-.22-.16-.33-.51-.39-.56ZM58.69,104.71c1.12-1.55,2.77-2.79,3.05-4.84.3-2.17-.8-5.82-3.34-6.16-.49.42.01.34.2.46.74.46,1.16.48,1.68,1.34,2.31,3.79.41,6.37-2.21,9.14l.61.06ZM105.3,94.37c-2.1-.17-4.13.18-6.06.97.28.43.43.19.76.13.93-.15,1.88-.5,2.83-.65.8-.12,2.02.31,2.46-.46ZM154.47,95.23l-2.67.43-.14.65c.71-.41,1.54-.4,2.31-.62.37-.1.6.16.5-.46ZM105.73,95.45c-2.43.31-5.32.01-7.15,1.95,1.34-.16,2.69-1.2,4.04-1.29,1.13-.07,1.3.38,2.63-.18.32-.13.59.13.48-.49ZM168.34,101.51c2.62-.59,3.5-3.64,4.33-5.85-1.22,1.09-1.49,2.85-2.51,4.1-.64.79-1.53.93-1.82,1.75ZM57.21,101.51c2.07-.88,2.18-4.1.76-5.63-.15,1.04.64,1.82.53,2.9s-.92,1.8-1.29,2.73ZM81.47,96.1l-5.2,5.08c-1.87,2.03-5.16,6.84-7.67,7.7-1.02.35-2.02.28-3.01.89-.3.18-2.12,1.87-1.88,2.13,1.01-.3,1.42-1.37,2.37-1.85.89-.45,1.83-.43,2.73-.73,2.47-.85,6.14-5.97,8-8.03,1.02-1.13,2.24-2.11,3.26-3.24.46-.52,1.16-1.31,1.4-1.95ZM133.03,97.18c-.21-.21-2.15-.99-2.6-.87-.12.63.18.35.48.49.15.07,3.14,1.41,2.12.38ZM115.7,97.4c-1.61.57-2.95-.43-4.55-.43-.1.6.13.36.47.49.88.31,3.84,1.27,4.07-.05ZM105.3,97.18c-4.75.16-11.55,4.92-12.94,9.48-.28.92-.66,2.69-.71,3.63-.02.5-.15,1.05.32,1.4l.82-4.81c1.79-4.58,6.57-7.88,11.19-9.17.54-.15,1.49.16,1.31-.53ZM105.95,98.48c-3.29.58-7.5,2.54-9.64,5.19-1.37,1.7-3.36,5.78-1.95,7.8-.34-4.45,2.1-8.18,5.89-10.35,1.71-.98,3.44-1.44,5.22-2.15.33-.13.59.13.48-.49ZM114.83,100.21l-4.12-1.3c.74.72,2.44,1.37,3.45,1.64.45.12.77.28.67-.34ZM77.14,111.69c.02-4.71,3.75-8.18,5.41-12.34-.3.11-.55.42-.74.66-1.52,2-4.94,8.1-5.11,10.48-.03.42-.21,1.41.44,1.2ZM139.53,111.26c-.18-1.78-.49-3.11-1.72-4.45-.42-.46-.96-.66-1.4-1.2-1.59-1.91-1.78-5.54-4.99-6.26l-.34.42c2.99.65,3.29,3.9,4.67,5.84.88,1.23,2.33,1.83,2.85,3.43.07.23.38,2.85.93,2.21ZM153.9,100.72c.04-.05,1.38-.92.47-.94-1.53-.02-2.77,6.05-3.25,7.35-.59,1.58-1.43,3.09-2.27,4.55.53.5,2.06-2.78,2.2-3.1,1-2.23,1.55-6.22,2.85-7.87ZM173.1,99.99c-1.26.65-3.37,1.34-3.03,3.13.25,1.32,2.81,1.14,2.81.66-.64-.8-2.47.3-2.38-1.06.09-1.46,2.34-1.46,2.6-2.73ZM114.83,101.51c-1.31-.13-2.22-1.42-3.68-.87l2.97,1.25c.45.09.83.23.71-.38ZM125.45,111.26l-3.13-7.16-2.28-3.45c-.04,1.51,1.27,2.61,1.89,3.85.75,1.5,1.33,3.29,2.11,4.82.12.23,1.11,2.29,1.41,1.94ZM84.72,101.08c-.46-.11-.48.26-.7.49-2.11,2.33-3.6,6.23-4.39,9.25-.11.42-.48.99,0,1.29.98-2.1,1.37-4.44,2.34-6.54.73-1.59,1.85-3.01,2.75-4.5ZM125.66,101.08c-1.73,0-1.5,2.75-1.2,3.91.28,1.1,2.41,4.94,3.11,5.99.19.28.25.59.69.5-.71-3.1-4.04-5.53-3.45-8.98.14-.81.8-.77.85-1.42ZM141.48,110.82c.18-1.96-.9-4.3-2.07-5.83-.53-.7-1.44-1.28-1.92-1.98s-.28-1.24-.77-1.72c-.73,1.87,1.13,2.64,2.04,3.69.62.71,1.7,2.74,1.98,3.66.22.72-.12,1.77.74,2.18ZM68.04,101.73c-2.49.37-5.15,2.04-6.71,4.01-.69.86-1.45,2.78-2.44,3.19-.44.18-1.14,0-1.24.38,2.2.76,3.04-2.02,4.12-3.35,1.36-1.67,4.12-3.54,6.27-3.58v-.65ZM105.95,101.73c-4.54.33-6.09,5.91-5.4,9.73h.85c-.62-.76-.52-2.14-.43-3.12.2-2.21,1.56-4.91,3.63-5.9.51-.25,1.48-.06,1.35-.71ZM132.31,102.23c-.09-.08-.56-.32-.58-.29v.54c1.56,1.57,2.94,4.07,3.78,6.18.17.43.67,2.59.87,2.59.46-.3.28-.47.23-.87-.2-1.73-2.97-6.96-4.31-8.15ZM82.53,111.66l3.49-9.5c-.33.05-.41.4-.54.65-1.44,2.82-2,6.03-3.58,8.77l.62.08ZM145.59,110.82c.91-2.83,2.22-5.9.32-8.66-.45-.09-.37.18-.28.5,1.23,4.44.08,3.97-.46,7.64-.07.45-.11.61.42.52ZM86.67,111.69v-3.57c0-1.24,1.2-3.49,1.52-4.76-.02-.65-.24-.22-.38.05-.96,1.85-2.15,5.79-1.6,7.79.1.37-.16.6.46.5ZM123.5,111.26c.08-.38-.12-.63-.24-.95-.74-1.83-2.33-5.42-3.56-6.83-.22-.25-.33-.53-.74-.45-.17.18,1.62,2.79,1.85,3.24.67,1.29,1.25,3.37,2.01,4.49.19.28.24.59.69.5ZM131.08,111.69v-3.14c0-.24-.55-1.15-.75-1.41-.63-.83-2.99-1.97-3.1-2.52-.13-.62.76-1.07,1.28-1.05,1.97.07,3.82,2.57,4.32,4.32.35,1.24.13,2.67.75,3.8l.1-2.27c.39-2.42-4.22-8.42-6.5-5.86-1.63,1.83,1.47,2.53,2.49,3.58,1.35,1.39.77,2.62.98,4.22.04.32.17.67.43.32ZM89.92,103.46c-.43-.09-.52.19-.69.49-.56.99-1.53,7.05-.82,7.73.85.17.23-.94.22-1.41-.07-2.13.39-4.9,1.3-6.82ZM116.35,103.46l2.42,3.97c.29.57,1.38,3.79,1.8,3.82.52.04.11-.57.07-.71-.42-1.46-2.44-5.67-3.46-6.73-.29-.3-.31-.45-.84-.35ZM173.1,105.84c-2.32,1.05-4.53.98-7,.61-3.16-.47-3.62-1.3-6.11-2.78-.28-.17-.55-.17-.53.11.03.51,3.4,2.43,4.05,2.66,1.29.45,4.66.99,5.99.89.61-.05,2.82-.53,3.33-.78.44-.22.27-.24.27-.71ZM119.38,111.69l-2.17-3.14c-2.93-2.76-7.82-5.63-11.68-2.8-2.01,1.47-1.34,4.37-.12,6.16.45.07.36-.1.23-.45-.74-1.9-1.66-4.2.55-5.48,3.6-2.08,8.52.46,10.92,3.33.7.83.97,2.28,2.27,2.39ZM168.45,109.96c1.14.17,2.61-.12,3.79,0,.02-.32-.78-.38-1-.41-2.57-.28-4.53-.59-7.01-1.43-3.55-1.21-6.93-4.32-10.18-.43-.87,1.04-1.42,2.48-1.74,3.78.51.55,1.18-1.95,1.26-2.1,1.59-2.94,3.54-3.65,6.65-2.46,2.46.94,5.56,2.65,8.23,3.04ZM167.47,111.26c-.3-1.15-2.43-.49-3.65-.79-1.4-.34-1.55-1.47-3.39-1.39-1.32.06-3.53,1.27-4,2.61.81-.31,1.36-.98,2.16-1.41,3.29-1.76,2.85.29,4.93.71.43.09,3.81.39,3.96.26ZM116.78,112.12c-.79-2.37-5.2-2.99-6.51-.98-.13.21-.4.62-.1.77,1.28-1.47,2.93-1.87,4.72-1.03.34.16,1.68,1.45,1.89,1.25Z"/>
    <path class="cls-5" d="M112.02,119.7c-.49-.09-.35.02-.48.28-.53.98-.85,2.71-1.04,3.83h-.83s-.89-3.89-.89-3.89c-.28-.35-.39.03-.43.32-.15,1.19.15,2.56-.22,3.8l-.66-.1c-.49-.36.31-5.03.01-5.97,2.51-.52,1.77,1.78,2.71,3.25.5-.01,1.17-2.89,1.51-3.25.39-.4,1.15-.32,1.2.33l.22,5.74-1.08-.33v-4.01Z"/>
    <path class="cls-5" d="M90.51,117.8c1.88-.43,3.85.52,3.73,2.63-.14,2.4-1.58,4.39-4.16,3.12-1.88-.92-1.68-5.27.43-5.75ZM90.63,122.68c2.56,2.06,3.11-5.17.43-3.9-.98.47-1.23,3.25-.43,3.9Z"/>
    <path class="cls-5" d="M75.79,117.59c3.22-.56,4.04,3.57,2.01,5.47l1.07.66c.08,1.27-1.11.3-1.89.15-1.57-.31-2.61.2-3.26-1.73s-.14-4.18,2.06-4.56ZM75.04,118.68c-1.85,1.54.21,5.83,2.11,3.51,1.44-1.76-.36-4.96-2.11-3.51Z"/>
    <path class="cls-5" d="M100.47,120.5c-.13.17-.66.19-.56.57.42.68,1.98,2.76.31,2.76-1.6,0,.11-3.77-2.03-2.26l-.13,2.03c-1.5.94-.94-2.64-.97-3.59-.02-.68-.34-1.35-.23-2.05,1.73-.26,5.42.02,3.61,2.53ZM97.94,120.35c2.17.36,2.45-1.88.21-1.64l-.21,1.64Z"/>
    <path class="cls-5" d="M140.61,123.82h-.87s-.03-2.57-.03-2.57l-2.35-.25-.03,2.79h-1.24c-.25-1.27.18-2.56.21-3.76.01-.48-.75-2.67.52-2.27.61.19.14,1.69.43,2.18l2.07.1.42-2.29h.65c-.14.34.22.81.22.98v5.09Z"/>
    <path class="cls-5" d="M122.63,124.03l-.22-6.06c2.07-.7,5.98.26,3.05,2.51l1.05,3.21-1.08.25c-.41-.3.09-2.86-1.39-2.74-1.05.09-.23,2.02-.65,2.62l-.76.21ZM124.96,120.3c.95-.95-.37-2.09-1.46-1.68l-.12,1.74c.27.37,1.3.23,1.59-.06Z"/>
    <path class="cls-5" d="M151.66,123.82l-.66-.1c-.54-.4.2-4.44.11-5.33,2.39-1.23,1.52,2.36,3.15,2.83l.21-2.94.66-.1v5.41c-.93.22-1.57-.88-1.99-1.58s-.67-2.14-1.47-2.32v4.12Z"/>
    <path class="cls-5" d="M116.13,117.97c.13-.16,4.01-.73,3.13.65l-2.04.23v1.29s2.16,0,2.16,0c.23,1.97-.89.92-2.17,1.08v1.73s2.38,0,2.38,0v.75s-3.47.33-3.47.33v-6.06Z"/>
    <path class="cls-5" d="M85.16,117.75l.66.1c.74,1.93.27,7.88-3.11,5.93-.38-.22-1.02-1.65-1.02-2.02v-3.79h.87v3.57c0,.71,1.5,1.97,2.13.83.06-.11.47-1.4.47-1.48v-3.14Z"/>
    <path class="cls-5" d="M146.24,117.98c.23,2.05,1.52,3.73,2.17,5.62-1.48.23-1.5-.29-1.84-1.52l-.41-.2-1.4.24c-.18,1.08-.26,1.7-1.54,1.49.43-.98,1.25-5.32,2.1-5.59.29-.09.63-.06.93-.04ZM144.96,121.2c.49.17.94.45,1.27-.1l-.75-2.04-.52,2.14Z"/>
    <path class="cls-5" d="M133,118l.03.84c-2.99-1.34-4.52,3.62-1.16,3.9.41.03,1.34-.49,1.16.11-.44,1.49-3.73.9-4.06-.91-.47-2.55,1.3-5.07,4.04-3.93Z"/>
    <polygon class="cls-5" points="63.5 117.75 64.36 117.76 64.81 122.5 66.72 122.76 66.96 123.82 63.82 123.82 63.5 123.49 63.5 117.75"/>
    <path class="cls-5" d="M162.06,118.84l-1.43.2-.09,4.78-.88-.1c-.51-.35.08-4.21-.44-4.65-.25-.21-1.81.38-1.71-.67,1.42-.04,3.14-.54,4.45-.23l.1.66Z"/>
    <path class="cls-5" d="M167.69,117.75v1.08c-.72-.46-1.83-.2-1.74.75s1.54.84,1.97,1.51c1.19,1.85-1.59,2.94-3.05,2.29-.17-.68.93-.39,1.52-.54,2.21-.54-.39-2.51-1.49-2.74-.44-1.97,1.07-2.57,2.78-2.35Z"/>
    <path class="cls-5" d="M70.86,117.75c.16,1.07-.24,2.09-.23,3.15s.93,3.63-1.05,2.35c.39-1.54-.31-3.38-.02-4.95.13-.72.71-.54,1.3-.54Z"/>
    <path d="M147.9,85.99c.3.29,1.22,1.79,1.13,2.16-.07.29-2.16,2.53-2.75,2.06-1.75-2.68-3.99-3.84-6.95-2-3.61,2.25-3.67,8.91.8,10.21,3.3.96,6.27.25,6.98-3.4-1.75-.22-3.48.89-5.17.19l.21-2.98c1.46.48,8.07-1.19,8.76-.02.22,1.2.1,2.76-.17,3.95-2.02,9.27-18.71,7.75-17.7-3.84.34-3.89,3.6-6.86,7.15-8.01,2.05-.66,6.16.16,7.72,1.69Z"/>
    <path d="M88.57,84.24c8.02-1.35,11.44,5.2,9.7,12.3-1,4.1-6.59,7.05-10.51,5.73-8.16-2.77-7.56-16.61.8-18.03ZM89.21,87.27c-.61.12-1.94,1.03-2.43,1.47-2.25,2.06-2.44,5.42-.81,7.94,3.35,5.16,10.21.63,9.58-4.6-.32-2.65-3.71-5.35-6.35-4.82Z"/>
    <path d="M159.02,87.87v4.55h7.04l.33.54c-.52.68.24,2.52-.21,2.83-.83.56-5.86-.56-7.17.44l.22,2.69,8.2.25.14,3-.31.32c-.54-.27-1.18.11-1.42.11h-10.18c-.74-.74-.31-1.64-.31-2.48-.04-5.1-.46-10.18-.13-15.29l12.1-.17.34.32-.4,2.8-8.25.1Z"/>
    <path d="M65.17,84.46l5.26,10.56,5.88-10.58c.62.03,3.02-.31,3.2.31l-8.76,17.62c-3.32-5.41-5.98-11.24-8.89-16.88l-.09-.87c.81-.04,2.81-.74,3.4-.17Z"/>
    <path d="M128.48,95.23v-.65s.65,0,.65,0l.02,1.62c-.08.31-.8-.15-.66.43.08.33.99,2.26,1.21,2.69.38.73.96,1.39,1.38,2.09.12.2.37.15,0,.43l-3.9.21c-.92-.45-2.01-5.05-2.7-5.75-.23-.23-1.08-.31-1.19-.2-.07.07.1.89-.33,1.07l-.33-1.07c-.82-.02-1.29-.25-1.77.48-.8,1.19-1.62,4.97-2.23,5.57-.79.77-1.95.07-2.92.22-.29-.26,1.98-5.01,2.15-5.75.19-.85-.74.33-.97-.09-.4-1.07.14-2.61.87-1.09l.64-.22,4.34-10.38c.61.28.83.7,1.13,1.25,1.49,2.73,2.27,6.37,3.95,9.04l.66.1ZM124.15,95.44c-.22-.29-1.15-3.53-1.51-3.25l-1.08,3.25h1.08s.32-.87.32-.87c.22.76.31.98,1.19.87Z"/>
    <path d="M106.82,102.16c-.27-1.88.13-5-.32-6.72-.53-2.06-3.37-5.63-4.49-7.64-.29-.53-1.5-2.74-1.17-3.19.81-.22,2.7-.6,3.26.02l4.13,7.78,5.63-8.03c.65-.16,2.82.03,2.68.95-.06.43-1.28,2.61-1.59,3.19-1,1.9-4.44,6.42-4.83,7.95-.33,1.3.49,5.1.07,5.7-1.06.59-2.26-.13-3.37-.01Z"/>
    <path class="cls-1" d="M119.17,80.72c-.56.11-.38-.12-.54-.42-.66-1.22-1.38-3.61-2.65-4.29-2.26-1.22-4.65.36-6.89.39-1.56.02-3.27-.53-4.97-.44-5.84.31-8.09,4.61-12.93,6.13-.8.25-1.62.24-2.49.54-6.82,2.39-7.57,10.35-11.99,15.3-.47.52-3.19,2.45-3.68,2.06-.41-.33.3-.46.43-.54,2.46-1.45,2.98-1.8,4.64-4.25,3.19-4.7,3.89-10.37,9.73-12.8,1.3-.54,2.48-.6,3.78-.99,2.91-.88,4.61-3.33,7.49-4.64,4.52-2.06,6.39-.68,10.66-1.03,2.2-.18,5.52-1.72,7.35.43.44.52,2.4,4.12,2.07,4.54Z"/>
    <path class="cls-1" d="M88.84,72.27c-3.45,1.13-8.74,3.54-11.04,6.4-.89,1.11-1.52,2.66-2.6,3.69-1.75,1.65-5.04,2.64-7.38,1.95-1.26-.37-3.1-2.89-4.67-3.56-1.12-.48-2.36-.5-3.55-.68-.2-.66.77-.46,1.2-.44,2.27.12,3.09.92,4.75,2.18,1.67,1.27,1.79,2.28,4.34,2.16,5.68-.28,6.15-5.06,10.22-7.97,1.49-1.07,6.42-3.83,8.08-4.07.36-.05.54-.07.65.35Z"/>
    <path d="M123.5,80.5c1.82-.25,3.47,2.16,3.48,3.79,0,.92-.48,3.46-1.75,3.36.14-.64.59-1.01.8-1.69.51-1.64.29-3.68-1.37-4.57-1.49-.79-1.64,1.13-2.16-.05-3.23.63-4.16,4.01-1.82,6.29-.93.15-1.24-.39-1.56-1.15-1.2-2.83.51-5.19,3.29-5.78.14-.16-1.12-2.26-.09-3.01,1.51-1.11,1.64,1.85,1.17,2.8Z"/>
    <path class="cls-1" d="M137.58,71.84l1.2,5.41c1.54,1.33,3.96,2.06,5.5,3.16s1.18,2.27,3.66,1.68c.36-.09,2.29-.87,2.44-1.08.78-1.12,1.35-5.47,1.28-6.89-.03-.73-.83-2.3.22-2.28.34,2.23.35,4.65-.18,6.85-.47,1.94-.74,2.72-2.58,3.49-3.91,1.64-3.15-.07-5.62-1.65-.53-.34-1.17-.42-1.66-.72-.75-.47-3.23-1.93-3.58-2.48-.4-.62-.86-4.11-1.07-5.21-.08-.42.03-.27.39-.28Z"/>
    <path class="cls-1" d="M83.21,72.92c-.32,1.33-2.19.93-3.09,1.13-3.41.76-5.32,3.96-8.55,5.1-4.6,1.62-7.76-.85-12.09-1.24-.38-.03-.7.07-.96-.33,0-.6,2.6-.06,2.99.03,2.79.63,4.78,1.89,7.88,1.53,4.24-.49,5.86-3.87,9.34-5.18,1.47-.55,3-.56,4.48-1.04Z"/>
    <path class="cls-1" d="M115.05,83.97c-.52.53-1.65-2.35-1.86-2.58-.77-.88-4.03-1.54-5.18-1.53-.74,0-1.63.5-2.36.43-.8-.08-1.24-.8-1.81-1.02-3.1-1.21-5.91,2.52-8.52,3.72l-3.23.67c.82-1.1,2.03-.8,3.12-1.21,2.93-1.1,5.32-5.2,9.01-3.55.47.21.74.67,1.19.76.97.19,2.46-.3,3.68-.21s3.92.78,4.66,1.83c.13.18,1.4,2.6,1.3,2.71Z"/>
    <path class="cls-1" d="M96.85,72.71c-1.44,4.99-6.88,4.96-10.62,7.25-4.1,2.51-4.8,7.58-8.22,10.73l4.67-8c3.08-5.06,9.13-4.2,12.15-7.46.21-.23,1.57-2.99,2.02-2.52Z"/>
    <path class="cls-1" d="M119.38,111.69c-1.3-.1-1.57-1.56-2.27-2.39-2.4-2.86-7.32-5.41-10.92-3.33-2.21,1.28-1.3,3.58-.55,5.48.13.34.22.52-.23.45-1.22-1.78-1.89-4.68.12-6.16,3.86-2.82,8.75.05,11.68,2.8l2.17,3.14Z"/>
    <path class="cls-1" d="M168.45,109.96c-2.67-.39-5.77-2.09-8.23-3.04-3.11-1.19-5.06-.48-6.65,2.46-.08.15-.75,2.64-1.26,2.1.32-1.3.87-2.74,1.74-3.78,3.24-3.89,6.63-.78,10.18.43,2.49.85,4.44,1.16,7.01,1.43.22.02,1.02.09,1,.41-1.18-.12-2.65.17-3.79,0Z"/>
    <path class="cls-1" d="M125.01,79.42c-.26.34-.39,0-.43-.32-.19-1.6.05-2.4-.75-4.02-3.11-6.3-10.97-1.19-16.38-2.47-.42-.1-.91-.33-1.07-.77,4.48,1.4,9.25-.94,13.76-.44,3.35.38,5.44,4.94,4.87,8.01Z"/>
    <path class="cls-1" d="M131.08,111.69c-.27.35-.39,0-.43-.32-.2-1.6.37-2.83-.98-4.22-1.02-1.05-4.12-1.76-2.49-3.58,2.28-2.56,6.89,3.44,6.5,5.86l-.1,2.27c-.62-1.13-.39-2.56-.75-3.8-.5-1.75-2.35-4.25-4.32-4.32-.52-.02-1.41.43-1.28,1.05.11.55,2.48,1.69,3.1,2.52.2.26.75,1.17.75,1.41v3.14Z"/>
    <path class="cls-1" d="M81.47,96.1c-.25.64-.94,1.43-1.4,1.95-1.01,1.14-2.24,2.11-3.26,3.24-1.86,2.06-5.53,7.18-8,8.03-.9.31-1.84.28-2.73.73-.95.49-1.36,1.56-2.37,1.85-.25-.26,1.58-1.95,1.88-2.13.99-.61,1.99-.54,3.01-.89,2.52-.87,5.8-5.67,7.67-7.7l5.2-5.08Z"/>
    <path class="cls-1" d="M105.3,97.18c.18.69-.77.38-1.31.53-4.62,1.29-9.4,4.59-11.19,9.17l-.82,4.81c-.47-.35-.35-.9-.32-1.4.04-.93.43-2.71.71-3.63,1.39-4.56,8.19-9.32,12.94-9.48Z"/>
    <path class="cls-1" d="M78.88,72.49c-1.67-.08-3.33.12-4.93.6-2.03.61-4.39,2.59-6.25,2.85-2.12.3-4.68-.54-6.92-.42-1.01.05-1.91.39-2.91.44-.11-.65.18-.34.51-.45,3.69-1.27,7.18.83,10.69-.59,2.69-1.09,4.01-2.64,7.32-2.86.68-.05,2.14-.22,2.5.44Z"/>
    <path class="cls-1" d="M139.52,71.62c.18.9.28,1.91.59,2.77.81,2.24,2.39,1.11,4.19,1.66.99.3,1.11,2,2.74,2.01,2.16.01.42-4.98.72-6.22h.65c-.6,1.75,1.76,7.45-2.01,6.67-1.38-.29-1.57-1.73-2.53-2.02-1.01-.31-2.69.17-3.6-.52-.78-.59-.96-3.28-1.4-4.23l.65-.11Z"/>
    <path class="cls-1" d="M129.13,71.62c.46,1.45,1.2,2.13,1.1,3.8-.12,1.97-2.18,4.77-1.58,6.54.67,1.99,4.19,2.37,5.83,3.05.18.08,1.76.77,1.37,1.12l-6.21-2.34c-3.93-2.62.84-6.39,0-9.75-.18-.71-.85-1.46-.93-2.1-.06-.42.08-.34.43-.32Z"/>
    <path class="cls-1" d="M105.95,98.48c.11.61-.15.36-.48.49-1.78.71-3.51,1.17-5.22,2.15-3.79,2.18-6.23,5.91-5.89,10.35-1.42-2.02.57-6.1,1.95-7.8,2.14-2.65,6.35-4.61,9.64-5.19Z"/>
    <path class="cls-1" d="M78.44,83.32c-.11-.43.14-.59.31-.88,1.47-2.45,4.5-5.44,7.21-6.44,2.05-.76,4.58-.26,5.87-2.14l1.12-2.02c-.01,4.4-4.37,3.63-7.21,4.81-1.41.59-3.46,2.17-4.49,3.3s-1.56,2.54-2.81,3.36Z"/>
    <path class="cls-1" d="M167.04,72.71c-.31,1.04-.13,2.08-.24,3.11-.22,1.98-.87,3.8-.63,5.88.15,1.26,1.12,1.69,2.23,1.14.7-.35,2.43-2.29,3.1-2.96.23-.22.31-.55.74-.45.33.35-1.44,2-1.73,2.28-1.81,1.71-4.16,3.36-4.99-.22.29-2.46.48-5.13.9-7.55.06-.37.04-1.41.62-1.22Z"/>
    <path class="cls-1" d="M154.47,71.62c.2.2.67,3.68.67,4.23-.02,3.43-.88,8.45-4.34,9.97-.41.18-2.02.9-1.53-.01,5.01-1.11,5.48-7.47,5.2-11.69-.05-.71-.39-1.47-.43-2.17-.02-.43.04-.34.43-.32Z"/>
    <path class="cls-1" d="M111.59,85.05c.02.42.1.43-.33.44-1.17.01-2.41-1.35-3.56-1.85-4.43-1.93-6.85.85-10.53,1.39-.43.06-1.13.23-.96-.41,3.81-.59,6.9-3.19,10.99-1.78,1.53.53,2.74,2.02,4.4,2.21Z"/>
    <path class="cls-1" d="M135.2,71.62c-.15,1.05.45,2.13.44,3.13-.02,1.32-1.14,3.34-.63,4.31.69,1.3,5.61,2.58,7.05,3.56.28.19.59.25.5.69l-6.65-2.77c-2.81-1.42-.87-3.49-.85-5.86,0-.89-.38-1.98-.31-2.73.04-.41-.04-.36.44-.33Z"/>
    <path class="cls-1" d="M138.66,83.32c.15.67-.45.46-.87.33-1.09-.34-3.69-1.42-4.81-1.91-4-1.76-.6-4.42-.38-6.98.1-1.15-.39-1.85-.43-2.92.35.19.7,1.15.77,1.5.55,2.73-1.08,3.52-1.38,5.59-.34,2.36,2.82,2.53,4.35,3.13.95.38,1.76,1.06,2.76,1.25Z"/>
    <path class="cls-1" d="M173.1,105.84c0,.47.17.49-.27.71-.51.25-2.71.74-3.33.78-1.33.1-4.71-.44-5.99-.89-.65-.23-4.02-2.15-4.05-2.66-.02-.28.26-.27.53-.11,2.49,1.48,2.95,2.31,6.11,2.78,2.47.37,4.68.43,7-.61Z"/>
    <path class="cls-1" d="M139.53,111.26c-.55.63-.85-1.98-.93-2.21-.52-1.6-1.97-2.2-2.85-3.43-1.38-1.94-1.68-5.18-4.67-5.84l.34-.42c3.21.71,3.4,4.34,4.99,6.26.44.53.98.74,1.4,1.2,1.23,1.34,1.54,2.67,1.72,4.45Z"/>
    <path class="cls-1" d="M162.28,88.52c1.21.96,1.1,1.83,2.97,1.13,2.11-.79,4.82-5.24,6.89-6.76.33-.25.65-.62.97-.11l-3.68,3.47c-1.24,2.14-6.01,6.78-7.15,2.27Z"/>
    <path class="cls-1" d="M153.9,100.72c-1.3,1.65-1.86,5.64-2.85,7.87-.14.32-1.67,3.61-2.2,3.1.84-1.46,1.68-2.97,2.27-4.55.48-1.3,1.72-7.38,3.25-7.35.91.01-.43.88-.47.94Z"/>
    <path class="cls-1" d="M167.47,111.26c-.15.13-3.53-.18-3.96-.26-2.08-.42-1.63-2.47-4.93-.71-.81.43-1.35,1.1-2.16,1.41.47-1.34,2.68-2.55,4-2.61,1.84-.08,1.99,1.05,3.39,1.39,1.22.3,3.36-.36,3.65.79Z"/>
    <path class="cls-1" d="M77.14,111.69c-.65.21-.47-.78-.44-1.2.17-2.38,3.6-8.48,5.11-10.48.19-.25.44-.56.74-.66-1.66,4.16-5.4,7.63-5.41,12.34Z"/>
    <path class="cls-1" d="M58.69,104.71l-.61-.06c2.62-2.77,4.52-5.36,2.21-9.14-.52-.86-.94-.88-1.68-1.34-.19-.12-.69-.04-.2-.46,2.54.34,3.64,3.98,3.34,6.16-.29,2.05-1.93,3.3-3.05,4.84Z"/>
    <path class="cls-1" d="M105.95,101.73c.13.65-.84.46-1.35.71-2.06,1-3.43,3.7-3.63,5.9-.09.98-.19,2.37.43,3.13h-.85c-.69-3.83.86-9.41,5.4-9.74Z"/>
    <path class="cls-1" d="M71.29,71.62l-2.1.6c-3.29,2.48-7.78,2.45-11.55,1.12.77-.9,2.4.33,3.58.43,1.38.12,4.46-.24,5.74-.76,1.43-.58,2.5-1.81,4.33-1.4Z"/>
    <path class="cls-1" d="M68.04,101.73v.65c-2.16.04-4.92,1.9-6.28,3.58-1.08,1.33-1.92,4.11-4.12,3.35.1-.37.8-.2,1.24-.38,1-.41,1.76-2.32,2.44-3.19,1.56-1.97,4.21-3.64,6.71-4.01Z"/>
    <path class="cls-1" d="M125.45,111.26c-.3.35-1.29-1.71-1.41-1.94-.78-1.53-1.36-3.32-2.11-4.82-.62-1.24-1.93-2.34-1.89-3.85l2.28,3.45,3.13,7.16Z"/>
    <path class="cls-1" d="M172.89,89.17l-2.72,4.53c-1.63,2.08-3.7,3.29-6.37,3.48.02-.87,1.27-.64,2.01-.91,2-.73,3.16-1.7,4.36-3.44.21-.31,2.15-4.25,2.73-3.66Z"/>
    <path class="cls-1" d="M169.2,71.84c-.44,1.26-1.87,6.13-.43,6.82.95.46,2.86-.43,2.82-1.62,1.21.06-.23,1.57-.66,1.83-1.56.95-3.35.48-3.44-1.52-.03-.6.73-4.5,1.02-5.01.17-.3.27-.58.69-.5Z"/>
    <path class="cls-1" d="M161.19,83.32c.04-1.02.48-1.95.62-2.95.38-2.74.62-5.79-.19-8.43-.09-.3-.46-.61.1-.54.4.37.59.95.71,1.46.51,2.2.21,7.01-.44,9.2-.13.43-.36,1.06-.8,1.25Z"/>
    <path class="cls-1" d="M125.66,101.08c-.05.65-.71.61-.85,1.42-.59,3.45,2.74,5.87,3.45,8.98-.44.09-.5-.22-.69-.5-.7-1.04-2.83-4.88-3.11-5.99-.3-1.16-.52-3.91,1.2-3.91Z"/>
    <path class="cls-1" d="M58.3,91.98c.45-.88,1.56-.27,2.15.13,1.55,1.04,2.61,5.21,4.72,5.68.36.08,1.6-.25,1.57.15-.08.96-2.12.24-2.67-.14-2.61-1.8-2.38-5.79-5.78-5.81Z"/>
    <path class="cls-1" d="M162.71,83.97c1.01-2.52,1.72-5.17,1.96-7.9.09-1.04-.1-2.2,0-3.25.02-.26.08-1.16.43-1.19.08,3.52.06,7.1-1.13,10.45-.07.21-.81,2.36-1.25,1.89Z"/>
    <path class="cls-1" d="M141.48,110.82c-.87-.41-.53-1.46-.74-2.18-.28-.92-1.36-2.94-1.98-3.66-.91-1.05-2.78-1.83-2.04-3.69.49.48.29,1.03.77,1.72s1.39,1.27,1.92,1.98c1.17,1.54,2.25,3.87,2.07,5.83Z"/>
    <path class="cls-1" d="M157.51,71.84c.65,3.45,1.34,7.86-.54,11.05-.17.28.04.55-.54.43.83-2.49,1.5-4.79,1.3-7.47-.09-1.11-.65-2.45-.65-3.46,0-.45-.13-.63.44-.55Z"/>
    <path class="cls-1" d="M132.31,102.23c1.34,1.19,4.11,6.41,4.31,8.15.05.4.23.57-.23.87-.2,0-.7-2.16-.87-2.59-.84-2.11-2.23-4.61-3.79-6.18v-.54s.49.21.58.29Z"/>
    <path class="cls-1" d="M84.72,101.08c-.9,1.49-2.02,2.91-2.75,4.5-.97,2.1-1.35,4.44-2.34,6.54-.48-.3-.11-.87,0-1.29.79-3.03,2.28-6.92,4.39-9.25.21-.24.23-.6.7-.49Z"/>
    <path class="cls-1" d="M159.89,72.49c.47.47.49,4.24.41,5.06-.15,1.65-.63,4.52-1.7,5.77.93-3.82,1.6-6.62.91-10.56-.07-.43.26-.39.38-.27Z"/>
    <path class="cls-1" d="M123.5,111.26c-.45.09-.5-.22-.69-.5-.76-1.12-1.34-3.2-2.01-4.49-.23-.45-2.02-3.07-1.85-3.24.41-.08.52.2.74.45,1.24,1.42,2.83,5,3.56,6.83.13.31.32.57.24.95Z"/>
    <path class="cls-1" d="M145.59,110.82c-.53.08-.48-.07-.42-.52.54-3.68,1.69-3.21.46-7.64-.09-.32-.17-.58.28-.5,1.89,2.76.58,5.83-.32,8.66Z"/>
    <path class="cls-1" d="M125.88,80.07l-.4-.5c1.18-1.91,2.16-4.09,1.02-6.29l-1.27-1.44c1.14-.09,1.74,1.03,2.05,1.95.84,2.48-.4,4.13-1.4,6.27Z"/>
    <path class="cls-1" d="M137.75,93.34c.07.04.17.39.39.56,1.13.83,4.22,3.32,5.42,3.43.45.04,1.54-.57,1.38.28-1.41.47-1.91.12-3.1-.47-.71-.36-4.49-3.03-4.7-3.53-.12-.47.39-.4.6-.26Z"/>
    <path class="cls-1" d="M173.11,85.27l-4.76,5.31c-.3.16-1.72,1.45-1.96,1.18-.47-.52.8-.93,1.09-1.19,1.59-1.43,3.09-3.78,4.75-5,.29-.22.45-.4.88-.31Z"/>
    <path class="cls-1" d="M116.35,103.46c.53-.1.54.05.84.35,1.01,1.05,3.04,5.26,3.46,6.73.04.14.45.75-.07.71-.42-.03-1.51-3.25-1.8-3.82l-2.42-3.97Z"/>
    <path class="cls-1" d="M82.53,111.66l-.62-.08c1.57-2.74,2.14-5.95,3.58-8.77.13-.25.2-.6.54-.65l-3.49,9.5Z"/>
    <path class="cls-1" d="M142.12,71.62c.33,1.71,1.8,3.13,3.58,2.39.63-.62-.12-2.04.75-1.95.88,4.45-4.41,2.95-4.76-.12-.05-.43.05-.33.42-.31Z"/>
    <path class="cls-1" d="M86.67,111.69c-.62.1-.36-.13-.46-.5-.56-2,.63-5.93,1.6-7.79.14-.27.37-.7.38-.05-.32,1.27-1.52,3.53-1.52,4.76v3.57Z"/>
    <path class="cls-1" d="M111.15,95.66c1.58-.22,3.84-.07,4.5-1.88.11-1.16-2.36-1.28-1.69-2.02.25-.28,3.9,1.92,1.24,3.51-.73.44-3.49,1.23-4.05.39Z"/>
    <path class="cls-1" d="M116.78,112.12c-.21.2-1.55-1.09-1.89-1.25-1.79-.84-3.44-.44-4.72,1.03-.3-.14-.03-.56.1-.77,1.31-2,5.72-1.39,6.51.98Z"/>
    <path class="cls-1" d="M173.1,99.99c-.26,1.26-2.51,1.27-2.6,2.73-.09,1.36,1.74.27,2.38,1.06,0,.48-2.56.66-2.81-.66-.35-1.79,1.77-2.48,3.03-3.13Z"/>
    <path class="cls-1" d="M105.73,95.45c.11.62-.16.35-.48.49-1.34.55-1.5.1-2.63.18-1.35.09-2.7,1.13-4.04,1.29,1.82-1.93,4.71-1.63,7.15-1.95Z"/>
    <path class="cls-1" d="M89.92,103.46c-.91,1.92-1.37,4.69-1.3,6.82.02.46.63,1.57-.22,1.41-.71-.68.25-6.74.82-7.73.17-.3.27-.58.69-.49Z"/>
    <path class="cls-1" d="M168.34,101.51c.29-.82,1.18-.96,1.82-1.75,1.02-1.25,1.29-3.01,2.51-4.1-.83,2.2-1.71,5.26-4.33,5.85Z"/>
    <path class="cls-1" d="M133.9,87.65c-1.42-.12-3.06-.6-4.39-1.13-.22-.09-2.31-.86-1.89-1.25,1.69.71,3.84,1.1,5.48,1.78.3.13.72.23.81.6Z"/>
    <path class="cls-1" d="M132.6,90.25l-5.63-2.27c.33-.49.41-.19.76-.12,1.13.2,3.3,1.16,4.33,1.74.3.17.63.18.53.66Z"/>
    <path class="cls-1" d="M119.6,90.9c-.44.41-2.33-2.31-2.56-2.74-.21-.38-.37-.85-.47-1.27-.04-.16-.38-.78.1-.74.17.01.78,1.65,1.01,2.01.21.34,2.11,2.57,1.91,2.75Z"/>
    <path class="cls-1" d="M127.18,91.55c.67.19,4.95,1.96,4.98,2.27.04.45-.57.16-.75.11-.53-.15-1.46-.58-1.99-.83-.25-.12-2.67-1.15-2.24-1.55Z"/>
    <path class="cls-1" d="M118.52,94.15c-.71.09-.61-1.05-.9-1.59-.55-1.04-2-1.92-2.13-3.17,1.41,1.2,2.94,2.81,3.03,4.76Z"/>
    <path class="cls-1" d="M57.43,86.57c2.24-.39,3.5,1.2,5.19,2.27-.28.44-.55.24-.91.05-.65-.33-1.29-1.18-1.96-1.5-.83-.39-1.8-.18-2.32-.82Z"/>
    <path class="cls-1" d="M57.21,101.51c.37-.93,1.19-1.65,1.29-2.73s-.68-1.85-.53-2.9c1.43,1.53,1.31,4.75-.76,5.63Z"/>
    <path class="cls-1" d="M110.72,87.87c.2.85-1.09.2-1.45.04-1.12-.52-1.73-1.18-3.06-1.72-.33-.13-.59.13-.48-.49,2.03-.22,3.03,2.02,4.98,2.17Z"/>
    <path class="cls-1" d="M105.3,94.37c-.45.76-1.67.34-2.46.46-.96.14-1.91.49-2.83.65-.33.06-.48.3-.76-.13,1.94-.79,3.96-1.14,6.06-.97Z"/>
    <path class="cls-1" d="M144.73,90.9c-1.74-.28-3.2-.91-4.54-2.06.35-.47.34-.25.71-.06.65.33,1.26.77,1.96,1.08.62.28,1.85.17,1.88,1.04Z"/>
    <path class="cls-1" d="M172.24,74.87c-2.53,2.14-1.98-1.94-1.73-3.47,1.19,1.1-1.21,3.91,1.73,3.47Z"/>
    <path class="cls-1" d="M115.7,97.4c-.23,1.32-3.2.36-4.07.05-.35-.12-.58.11-.47-.49,1.59,0,2.94,1,4.55.43Z"/>
    <path class="cls-1" d="M64.58,72.06c.11.56-.1.38-.43.53-.59.27-1.18.39-1.84.34-.31-.02-3.29-.73-2.71-1.31,1.65.73,3.25,1.14,4.98.43Z"/>
    <path class="cls-1" d="M149.71,88.73c1.55.01,2.57-1.37,3.9-1.95.42.45-2.64,2.36-3.16,2.38-.34.02-.65-.06-.74-.43Z"/>
    <path class="cls-1" d="M114.83,100.21c.11.62-.22.46-.67.34-1.01-.27-2.71-.92-3.45-1.64l4.12,1.3Z"/>
    <path class="cls-1" d="M114.83,101.51c.12.61-.26.47-.71.38l-2.97-1.25c1.46-.56,2.38.73,3.68.87Z"/>
    <path class="cls-1" d="M104,92.85c.11.65-.16.35-.52.44-1.21.29-2.56.47-3.81.42l3.2-.8,1.13-.06Z"/>
    <path class="cls-1" d="M138.23,90.25c1.07.13,1.88,1.32,2.81,1.84-.32.56-.9-.05-1.24-.27-.48-.33-1.44-.97-1.57-1.57Z"/>
    <path class="cls-1" d="M160.53,89.82s.06.35.24.51c.44.37,1.15.72,1.51,1.1.3.32.17.26-.11.54l-2.27-1.84c.14-.18.42-.47.63-.32Z"/>
    <path class="cls-1" d="M109.85,89.38c-.87-.12-1.95-.33-2.78-.59-.37-.12-.57.09-.47-.49,1.04.06,2.56.21,3.25,1.08Z"/>
    <path class="cls-1" d="M153.32,90.83c-.31.33-2.55,1.36-2.52.61.91-.54,2.02-.41,2.7-1.41.29.14-.04.65-.18.8Z"/>
    <path class="cls-1" d="M154.47,95.23c.1.62-.13.36-.5.46-.77.22-1.6.21-2.31.62l.14-.65,2.67-.43Z"/>
    <path class="cls-1" d="M154.47,93.28c-1.03-.06-2.06.08-3.03.43-.1-.55.08-.39.43-.53.52-.21,2.72-.96,2.6.1Z"/>
    <path class="cls-1" d="M133.03,97.18c1.02,1.03-1.97-.31-2.12-.38-.29-.14-.6.14-.48-.49.44-.12,2.39.65,2.6.87Z"/>
    <path class="cls-1" d="M101.4,87.65c.05.57.03.36-.33.43-.73.13-1.95.46-2.49-.1.9-.34,1.86-.36,2.81-.32Z"/>
    <path class="cls-1" d="M71.94,90.47c.41.32-.3.47-.42.54-.66.36-1.41.61-2.17.54-.1-.6.12-.37.47-.49.31-.11,2.03-.67,2.12-.59Z"/>
    <path class="cls-1" d="M102.05,89.6c.04.54.05.37-.32.43-.73.11-1.53.15-2.27.22.07-.33.97-.55,1.24-.6.45-.07.9-.07,1.36-.05Z"/>
    <path d="M100.54,85.92c.05.33-.4.25-.65.32-.63.17-1.29.31-1.95.33-.1-.62.13-.36.5-.46.7-.19,1.37-.23,2.1-.18Z"/>
    <path class="cls-1" d="M112.24,94.8l.99-.87-.02-1.08c.92.95.28,1.98-.97,1.95Z"/>
    <path d="M90.63,122.68c-.8-.65-.55-3.43.43-3.9,2.68-1.27,2.13,5.95-.43,3.9Z"/>
    <path d="M75.04,118.68c1.74-1.44,3.55,1.75,2.11,3.51-1.9,2.32-3.96-1.98-2.11-3.51Z"/>
    <path d="M97.94,120.35l.21-1.64c2.25-.23,1.97,2.01-.21,1.64Z"/>
    <path d="M124.96,120.3c-.29.29-1.32.43-1.59.06l.12-1.74c1.1-.41,2.41.73,1.46,1.68Z"/>
    <path d="M144.96,121.2l.52-2.14.75,2.04c-.33.55-.79.27-1.27.1Z"/>
    <path class="cls-5" d="M89.21,87.27c2.64-.54,6.03,2.16,6.35,4.82.63,5.23-6.23,9.76-9.58,4.6-1.63-2.52-1.45-5.88.81-7.94.48-.44,1.81-1.35,2.43-1.47ZM86.24,94.58c.48-1.08,1.23-2.43,1.96-3.35s2.38-1.97,2.81-2.6c.22-.33.07-.55-.11-.54-1.77,1.4-3.94,3.49-4.78,5.62-.07.19-.3.92.12.88ZM93.17,89.38c-.42-.09-.58.1-.88.31-1.18.86-4.15,4.99-4.89,6.37-.16.3-.38.5-.29.9l6.06-7.58ZM94.47,90.25c-.41-.09-.51.23-.76.43-2.13,1.78-3.95,4.3-5.31,6.71l6.06-7.14Z"/>
    <path class="cls-5" d="M124.15,95.44c-.88.12-.98-.1-1.19-.87l-.32.87h-1.08s1.08-3.25,1.08-3.25c.36-.28,1.3,2.96,1.51,3.25Z"/>
    <path class="cls-1" d="M93.17,89.38l-6.06,7.58c-.09-.4.13-.6.29-.9.74-1.38,3.72-5.5,4.89-6.37.29-.22.45-.4.88-.31Z"/>
    <path class="cls-1" d="M94.47,90.25l-6.06,7.14c1.35-2.42,3.18-4.93,5.31-6.71.24-.2.35-.52.76-.43Z"/>
    <path class="cls-1" d="M86.24,94.58c-.42.04-.19-.69-.12-.88.83-2.12,3-4.22,4.78-5.62.18,0,.34.21.11.54-.43.63-2.12,1.73-2.81,2.6-.73.92-1.48,2.27-1.96,3.35Z"/>
  </g>
  <g>
    <polygon class="cls-4" points="28.7 83.92 4.9 118.75 6.09 120.25 51.48 118.68 35.18 88.72 30.33 83.05 28.7 83.92 28.7 83.92"/>
    <path class="cls-2" d="M26.79,88.44c-.85.37-.24-.87-1.1-.49-.41.14-.18.87-1.04.59-.34,1.42-.67,2.83-2.01,3.34-.32,1.49.76,1.43,1.19,2.1-1.88,1.37-1.89,5.77-5.2,4.31.31.8,1.29.84,1.44,1.82-.71.37-1.23.51-1.59.61,1.15.94-.3.71-.74,1.39-1.15,1.79-1.78,4.6-3.8,5.05-.07,1.31-.55,2.25-1.77,2.51.68,1.4-.4.2-.77.85,1.73.33-1.11,1.18.09,1.89-1.91.4-1.45,2.97-2.77,3.92-.18-.46.25-1.6-.35-1.61,0,.42.09.94-.5.84-.28.89.88.16.59,1.05-1.12.28-.91,1.75-1.5,2.51,2.81-.62,7.38-.67,10.52-.52.04-.21-.02-.53.24-.55,10.46.95,18.79-.67,31.56-1.02-.59-2.84-3.1-4.19-4.07-5.74-.33-2.4-2.6-2.63-2.69-5.28-1.21.18-1.04-.96-.9-1.57-1.07.03-2.05-1.71-1.18-2.1-.84.45-.91-.17-1.65-.46-1.94-5.89-6.59-10.04-8.82-14.69,0,.27-.46.36-.54.02.33-.04.64-.1.51-.56-.75.26-.72-.34-1.36-.2-1.3,1.82-1.88,4.3-4.07,5.33.58.93-.19,1.31-.7,1.93-.33-1.07-.07-2.11.39-2.99.44-.02.19.74.58.78.06-1.16.99-3.36,1.78-2.26-.02-.37.09-.6.22-.81h0ZM42.54,100.9c1.59.23,1.17,2.68,2.84,2.83.04,1.75.94,2.56,2.04,3.14-.13,1.85.92,2.39,2.03,2.88.13.45-.18.52-.51.56.38.37,1.26.62.61,1.32.21-.15.43-.3.79-.31.12.54,0,.85-.5.83.54.69,2.09,2.15,1.21,2.64.28.46.88.56,1.65.46.15,2.21,1.36,3.24,1.36,5.61-.25-.16-1.02-.58-.79.31-.48-.51-1.88-.01-1.93-.98-.6,1.06-1.86-.71-3.2.7-.82.13-.61-.85-.89-1.31-.77.27.38.66.06,1.35-.21-.18-.91-1.1-.8.04-3.77-.26-9.37-.28-12.69.09-.02-.27-.03-.54-.04-.81-1.22.72-2.64.85-3.78.18-.72,1.06-5.74,1.09-7.27.37-2.96,1.71-9.56.11-10.99,1.89-2.32-1.3-6.33.17-9.23-.89-.27-.85.18-1.05.47-1.38-1.09-.04-.45-.21-.63-1.86,1.25-.41,1.77-1.48,1.74-3.06,1.25.19.55-1.39,1.83-1.18-.23-.81-.21-.5-.06-1.34,1.83.2.72-2.26,2.31-2.28-.19-.26-.63-.24-.58-.78,1.08.3.5-.91,1.59-.62-.03-.45-.05-.9-.07-1.35.23-.22.6-.32,1.06-.32,1.58-4.07,4.54-6.87,6.22-10.84.93-.02,1.22-.61,1-1.68.79.03.8-.64,1.59-.62.65-3.61,4.09-4.7,4.72-8.34,2.96-.66,2.24-4.65,5.13-5.38-.19-.27-.63-.25-.59-.79.9-.05,1.33-.52,2.42-.39,1.2.86-.32,1.39,1.41,1.28-1.11,1.22.35,4.78,1.56,4.24.4.07.06,2.05,1.44,1.82-.14.84.33.97.36,1.6,3.46,2.89,4.13,8.89,7.6,11.78.12.45-.19.52-.51.57h0Z"/>
  </g>
  <text class="cls-3" transform="translate(18.03 114.52) scale(.79 1)"><tspan x="0" y="0">26</tspan></text>
</svg>