<?xml version="1.0" encoding="UTF-8"?>
<svg id="Layer_1" data-name="Layer 1" xmlns="http://www.w3.org/2000/svg" viewBox="0 0 180 200">
  <defs>
    <style>
      .cls-1 {
        fill: #804d32;
      }

      .cls-2, .cls-3 {
        fill: #231f20;
      }

      .cls-2, .cls-4 {
        fill-rule: evenodd;
      }

      .cls-5 {
        fill: #bababc;
      }

      .cls-3 {
        font-family: AmericanTypewriter-Bold, 'American Typewriter';
        font-size: 19.28px;
        font-weight: 700;
        letter-spacing: .02em;
      }

      .cls-4 {
        fill: #f5881f;
      }
    </style>
  </defs>
  <polygon class="cls-4" points="40.08 82.08 17.13 115.67 18.28 117.11 62.05 115.59 46.33 86.71 41.65 81.24 40.08 82.08 40.08 82.08"/>
  <path class="cls-2" d="M38.24,85.21c-.83.36-.24-.83-1.07-.47-.4.14-.18.83-1,.58-.32,1.37-.64,2.72-1.93,3.22-.31,1.44.73,1.38,1.15,2.03-1.81,1.32-1.82,5.56-5.01,4.15.29.77,1.25.81,1.39,1.76-.69.35-1.19.49-1.53.59,1.11.9-.3.68-.72,1.34-1.11,1.73-1.71,4.44-3.66,4.87-.07,1.26-.53,2.17-1.71,2.43.66,1.35-.38.19-.74.82,1.67.32-1.07,1.14.09,1.82-1.85.39-1.4,2.87-2.68,3.78-.17-.45.24-1.54-.33-1.55,0,.41.08.9-.49.81-.28.86.85.15.57,1.01-1.08.27-.88,1.69-1.44,2.43,2.71-.6,7.11-.65,10.14-.51.04-.2-.02-.51.23-.53,10.08.92,18.12-.64,30.43-.98-.56-2.73-2.98-4.05-3.92-5.54-.31-2.31-2.5-2.55-2.59-5.08-1.17.17-1-.93-.86-1.52-1.04.02-1.97-1.66-1.14-2.03-.81.44-.87-.15-1.59-.44-1.88-5.68-6.37-9.68-8.52-14.17.01.26-.44.35-.52.02.32-.04.61-.11.5-.55-.73.25-.69-.33-1.32-.19-1.26,1.76-1.82,4.14-3.92,5.14.55.89-.19,1.27-.68,1.86-.32-1.03-.06-2.03.38-2.89.43-.02.18.71.56.75.06-1.12.95-3.24,1.71-2.17-.03-.36.09-.58.22-.79h0ZM53.43,97.22c1.54.22,1.13,2.58,2.74,2.73.04,1.68.91,2.47,1.97,3.02-.12,1.78.89,2.31,1.96,2.77.12.44-.18.5-.49.55.37.35,1.22.59.58,1.27.2-.15.41-.29.76-.3.12.52-.01.82-.48.81.52.66,2.02,2.08,1.17,2.55.27.44.84.53,1.58.44.15,2.13,1.32,3.12,1.31,5.41-.25-.15-.98-.56-.76.3-.47-.49-1.81-.01-1.87-.95-.58,1.02-1.78-.68-3.09.67-.79.13-.58-.82-.85-1.26-.74.26.37.64.07,1.3-.2-.17-.88-1.05-.78.04-3.63-.25-9.02-.27-12.24.08-.01-.26-.03-.52-.04-.78-1.17.69-2.55.83-3.64.18-.7,1.02-5.54,1.05-7.02.35-2.86,1.64-9.21.1-10.59,1.82-2.24-1.26-6.1.17-8.9-.86-.26-.82.17-1,.46-1.33-1.05-.04-.44-.2-.61-1.79,1.21-.39,1.71-1.42,1.68-2.95,1.21.19.52-1.34,1.77-1.13-.23-.79-.21-.49-.07-1.3,1.77.2.7-2.18,2.23-2.19-.18-.26-.61-.24-.56-.76,1.05.29.49-.88,1.53-.6-.02-.43-.04-.87-.06-1.3.22-.21.58-.31,1.02-.31,1.53-3.92,4.38-6.63,6-10.46.9-.02,1.18-.58.96-1.61.76.03.76-.63,1.53-.6.63-3.48,3.95-4.54,4.55-8.05,2.85-.64,2.17-4.48,4.95-5.19-.18-.26-.61-.24-.56-.75.86-.06,1.27-.5,2.33-.38,1.16.82-.31,1.34,1.36,1.23-1.07,1.17.34,4.61,1.51,4.09.38.07.07,1.97,1.39,1.76-.14.8.32.93.35,1.54,3.34,2.79,3.98,8.57,7.33,11.36.12.44-.18.5-.5.55h0Z"/>
  <text class="cls-3" transform="translate(29.43 110.97) scale(.79 1)"><tspan x="0" y="0">28</tspan></text>
  <g>
    <path d="M70.07,160.58c.93.41,1.97.4,3.06.3,2.03-.19,4.07-.4,6.11-.4,6.04,0,12.07.11,18.11.18.26,0,.51.03.77.04,5.51.27,11.02.69,16.54.78,6.44.11,12.89-.09,19.33-.1,6.7,0,13.41.06,20.11.09.8,0,1.6-.07,2.45-.11,0-.97.11-1.8,0-2.6-.41-3.01-.55-6.03-.4-9.06.23-4.54.26-1.35.28-3.37.06-6.47.21-12.94.27-19.41.14-14.87.24-29.74.36-44.61.01-1.24.03-2.48.09-3.72.15-2.98.4-5.95.48-8.93.09-3.3.06-6.61.05-9.91,0-1.19-.04-2.39-.15-3.57-.37-3.94-.53-7.87-.03-11.81.04-.32.07-.64.06-.96-.05-.95-.59-1.39-1.65-1.35-.46.01-.92.04-1.38.04-8.29-.04-16.58-.04-24.87-.17-3.57-.06-7.17-.22-10.71-.65-5.14-.63-10.28-.91-15.45-.79-1.94.04-3.88.22-5.81.33-2.14.13-4.28.32-6.42.37-2.86.06-5.73-.03-8.59,0-2.81.03-5.61.16-8.42.22-1.07.02-2.15-.05-3.22-.04-.39,0-.77.08-1.3.14,0,.69.01,1.28-.01,1.87-.04.92-.13,1.83-.16,2.74-.08,2.52-.22,5.03-.2,7.55.02,2.2.3,4.4.33,6.6.05,3.21.05,6.43-.05,9.64-.16,5.18-.49,10.36-.62,15.54-.09,3.53.13,7.06.09,10.59-.06,5.69-.24,11.38-.32,17.06-.03,2.25-.05,4.5.08,6.74.29,4.86.21,9.72-.06,14.58-.17,3.02-.12,6.05-.06,9.08.06,2.66.4,5.31.39,7.97-.02,5.27.04-5.75-.12-.47-.1,3.17.09,6.31,1.05,9.56Z"/>
    <path class="cls-1" d="M70.07,160.58c-.96-3.25-1.14-6.39-1.05-9.56.16-5.27.1,5.75.12.47,0-2.66-.33-5.31-.39-7.97-.06-3.03-.11-6.06.06-9.08.27-4.86.35-9.72.06-14.58-.14-2.24-.12-4.5-.08-6.74.09-5.69.26-11.38.32-17.06.04-3.53-.17-7.06-.09-10.59.13-5.18.46-10.36.62-15.54.1-3.21.1-6.43.05-9.64-.03-2.2-.31-4.4-.33-6.6-.02-2.52.11-5.03.2-7.55.03-.92.12-1.83.16-2.74.03-.59.01-1.18.01-1.87.52-.06.91-.14,1.3-.14,1.07,0,2.15.07,3.22.04,2.81-.06,5.61-.18,8.42-.22,2.86-.04,5.73.06,8.59,0,2.14-.04,4.28-.24,6.42-.37,1.94-.12,3.87-.29,5.81-.33,5.17-.12,10.31.16,15.45.79,3.54.43,7.13.59,10.71.65,8.29.13,16.58.12,24.87.17.46,0,.92-.03,1.38-.04,1.06-.03,1.61.4,1.65,1.35.02.32-.02.64-.06.96-.5,3.94-.34,7.87.03,11.81.11,1.19.15,2.38.15,3.57,0,3.3.04,6.61-.05,9.91-.08,2.98-.33,5.95-.48,8.93-.06,1.24-.08,2.48-.09,3.72-.12,14.87-.23,29.74-.36,44.61-.06,6.47-.2,12.94-.27,19.41-.02,2.02-.06-1.17-.28,3.37-.15,3.03-.02,6.05.4,9.06.11.8,0,1.63,0,2.6-.85.04-1.65.11-2.45.11-6.7-.03-13.41-.1-20.11-.09-6.45,0-12.89.21-19.33.1-5.52-.09-11.03-.51-16.54-.78-.26-.01-.51-.04-.77-.04-6.04-.07-12.07-.17-18.11-.18-2.04,0-4.08.21-6.11.4-1.09.1-2.13.11-3.06-.3ZM145.22,136.78c-.57-.03-1.17-.1-1.77-.1-3.73-.02-7.46-.03-11.19-.05-.82,0-1.66.04-2.44-.11-3.7-.74-7.48-.72-11.23-1.06-1.47-.13-2.93-.29-4.39-.46-2.37-.29-4.73-.6-7.1-.89-.7-.09-1.2.22-1.42.81-.22.57.1,1.06.63,1.26.64.24,1.36.39,2.05.4,4.5.06,8.99.07,13.49.12.66,0,1.32.09,1.96.22,3.85.74,7.7,1.41,11.66,1.23.51-.02,1.02.03,1.53.08,2.45.26,4.88.26,7.33-.04.98-.12,1.03-.16.89-1.39ZM125.58,89.98c-1.11-.68-2.41-.08-3.4-.67-.17-1.17-.07-1.26,1.12-1.38.76-.07,1.63.29,2.35-.42-.16-.16-.29-.39-.41-.39-1.16,0-2.33,0-3.49.1-.61.05-.76.54-.75,1.04.02,1.24.02,2.48.09,3.71.05.82.48,1.15,1.4,1.11.91-.04,1.83-.13,2.73-.27.21-.03.36-.32.59-.54-1.25-.76-2.5.23-3.67-.21,0-.49,0-.93,0-1.32,1.04-.68,2.4.16,3.43-.77ZM83.87,89.9c.68.19,1.14.32,1.68.47,0,.39,0,.78,0,1.27-.65.05-1.25.11-1.85.15-.3.02-.61.01-.91-.03-1.37-.19-2.12-1.24-1.75-2.41.36-1.14,1.56-1.82,2.84-1.51.76.18,1.46.53,2.19.81.45-.5.07-.81-.32-1.01-1.1-.58-2.29-.81-3.53-.46-1.36.38-2.14,1.5-2.09,2.88.05,1.35.81,2.33,2.33,2.51,1.13.13,2.32-.08,3.47-.23.25-.03.59-.44.61-.69.05-.58-.03-1.19-.14-1.77-.03-.17-.3-.39-.51-.44-.64-.17-1.3-.24-2.01.47ZM131.12,89.63c.35-1.52,1.4-1.59,2.49-1.59.1,0,.2,0,.31,0,.5,0,1.04.11,1,.6-.03.31-.44.77-.78.86-.72.17-1.5.14-2.25.2-.33.03-.75,0-.98.16-.55.41-.4,2.06.31,2.81.2-.78.37-1.45.54-2.13.34-.02.59-.05.84-.06,1.79-.03,1.81-.01,2.21,1.57.06.26.26.48.45.81.66-.55.5-1.07.32-1.52-.3-.76-.33-1.41.15-2.18.55-.87-.13-1.74-1.29-1.82-.81-.06-1.63-.03-2.44,0-1.39.05-1.69.6-.88,2.29ZM96.08,89.86c.37-1.12-.45-1.56-.88-2.1-.75-.93-1.31-.88-1.87.18-.66,1.23-1.23,2.51-1.8,3.78-.14.31-.34.71.36.94.46-.99,1.3-1.5,2.53-1.56,1.01-.06,1.93-.12,2.44.91.17.33.46.77,1.23.32-.4-.56-.74-1.16-1.21-1.66-.9-.97-2.19-.15-3.4-.42.32-.61.59-1.11.88-1.65.64.47,1.12.82,1.72,1.27ZM113.23,91.5c-.53-1.45.29-3.01-.59-4.66-1.24,1.98-.37,3.84-.6,5.6,2.12.33,3.04.27,3.9-.27-.7-.77-1.74-.35-2.71-.68ZM140.66,87.53c-.09.11-.19.22-.28.32.59.73,1.17,1.47,1.79,2.18.4.46.62.92.53,1.51-.07.43-.2.9.32,1.23.73-.23.55-.77.52-1.17-.07-.94.26-1.69,1-2.33.36-.32.71-.66,1-1.03.15-.18.16-.45.31-.9-1.37.48-1.81,1.6-2.76,2.1-.94-.56-.99-2.03-2.43-1.92ZM103.67,91.91c.1-1.04.22-1.81.24-2.58.02-.76.26-1.6-.56-2.28-.4.76-.85,4.71-.56,5.18.14.23.53.46.81.46,1.12-.01,2.23-.1,3.35-.2.14-.01.26-.21.68-.56-1.47,0-2.6-.01-3.95-.02Z"/>
    <path d="M105.04,123.88c.23.07.42.18.6.18,2.15.02,4.3.04,6.44.03.4,0,.82-.1,1.19-.23,2.23-.8,4.47-.68,6.76-.22.87.18,1.81.18,2.71.11.86-.06,1.69-.32,2.54-.5,4.46-.9,8.94-1.45,13.48-.46.62.13,1.09-.03,1.57-.34,1-.63,1.99-1.22,3.32-1.28,1.06-.05,1.45-.61,1.44-1.58,0-.36-.06-.73-.11-1.09-.15-1.18-.28-2.37-.47-3.55-.43-2.75-.17-5.48.08-8.23.22-2.42.25-4.85.31-7.28.02-.96-.35-1.18-1.42-1.08-.66.06-1.32.14-1.98.12-1.89-.06-3.77-.23-5.66-.25-12.58-.09-25.17-.15-37.75-.23-1.41,0-2.81-.02-4.45-.02.78,1.11,2.13.31,2.74,1.22-.16.83.23,1.74,1.18,1.86,1.59.2,2.82,1.05,4.27,1.45.25.07.45.25.92.51-.5.12-.73.25-.95.22-.9-.12-1.8-.25-2.69-.43-.66-.13-1.32-.38-1.93.31.86.51,2.09.11,2.67,1.19-.55.17-1.03.33-1.57.5.55.82,1.42,1.11,2.3,1.27,1.18.22,1.84.86,2.26,1.87-.85.46-1.57.68-2.35-.06-.8-.76-1.89-.59-2.9-.5-.46.04-.81.32-.74.74.97.54,2.08-.5,2.88.38-.16,1.34-1.79.66-2.34,1.42.45.43.84.81,1.21,1.18-.38.45-.66.78-.98,1.15,2.67.6,4.22,1.56,4.8,2.93-1.12.43-2.13-.4-3.27-.21.28.27.53.53.78.77-.73.88-1.71-.06-2.51.4.04.31.08.6.12.93-.75.21-1.57.3-1.76.89.22,1.11.41,2.02.6,2.95.97,0,1.8,0,2.64.01.03-.06.06-.13.09-.19-.49-.31-.98-.61-1.37-.85.11-.59.15-1.07.3-1.52.09-.28.32-.68.55-.72.68-.11,1.47-.26,2.06-.05,1.08.39,2.05,1.03,3.17,1.62-.52.27-1.02.53-1.62.84.5.12.9.22,1.42.34-.22.64-.41,1.19-.59,1.71.39.94,1.33.31,2.02.51,0,.44,0,.83,0,1.26ZM88.66,112.23c.09.08.19.16.28.24.39-.27.73-.61,1.17-.78.43-.16,1.05-.34,1.4-.18,1.14.53,2.2,1.22,3.55,1.99-.62.22-.92.41-1.23.42-.76,0-1.53-.04-2.28-.13-1.03-.13-1.43.04-1.69.91-.13.46-.14.95-.19,1.28,1.23.45,2.25.82,3.09,1.12.63-.62,1.02-1.21,1.59-1.51,1.07-.57,1.44-1.35,1.34-2.41-.07-.73-.05-1.47-.13-2.2-.03-.27-.23-.53-.36-.83-2.07,1.4-2.53,1.34-3.17-.31,1-.45,2-.9,3-1.36-2.53-.08-3.53-.31-4.19-1.08,1.17-.32,2.37-.66,3.58-.99.5-.14.87-.41.75-.89-.23-.89-.07-1.69.76-2.64-.6.13-.9.13-1.11.25-.19.12-.27.38-.42.56-.35.41-.82.41-1.21.14-.46-.32-.13-.64.16-.92.16-.16.31-.34.46-.51-.12-.16-.22-.27-.29-.39-.06-.11-.09-.24-.13-.36q1.05-.52.96-1.41c-.85.28-1.36.01-1.59-.77-.06-.2-.33-.36-.53-.51-.33-.25-.67-.5-1.03-.71-.37-.21-.77-.54-1.16-.54-2.79,0-5.58.09-8.53.15-.13,4.89-.25,9.59-.37,14.31.42.15.87.21,1.14.44.71.6,1.25.34,1.9-.21-.81-.61-.61-1.19-.26-2.01.32-.75.34-1.45,1.65-1.5-.03.48-.05.87-.09,1.25-.05.45-.22.93.56,1.04.07-.14.21-.3.17-.38-.39-.82.2-1.5.36-2.24.12-.53.9-.89,1.44-.77.66.14.68.59.61,1.08-.03.2,0,.41,0,.62.77.02,1.56-.3,2.03.72-1.19.27-1.61,1.13-1.99,2.02ZM99.75,102.59c.13-.07.2-.09.21-.12.01-.03-.03-.1-.07-.11-.69-.26-1.36-.62-2.08-.74-.72-.12-1.23-.38-1.58-.92-.27-.43-.51-.87-.8-1.37-.62-.1-1.28-.21-1.99-.32-.09,1.23,1.21.46,1.55,1.18-.03.62.44,1.47-.96,2.14,1.15.08,2.08.4,2.77.15,1.1-.4,2.03-.49,2.94.12Z"/>
    <path d="M105.69,64.88c-1.18-.34-2.08-.1-2.91.43-.54.34-1.05.73-1.56,1.11-1.2.88-1.66,2.05-1.63,3.41.03,1.32.41,2.53,1.15,3.67,1.24,1.9,2.68,2.33,4.89,1.41.92-.38,1.81-.81,2.7-1.22.67.37.86.89.82,1.46-.06.77-.16,1.55-.36,2.3-.17.64-.61,1.24-1.45,1.23-.84-.02-1.6-.31-1.95-1.11-.14-.33-.31-.66-.48-1.04-1.45.23-2.83.45-4.2.66.21,3.1,3.82,5.1,7.17,4.03,3.56-1.14,6.61-3.01,6.84-6.95.01-.18.11-.36.13-.54.18-2.47-.09-4.87-1.8-6.94-1.19-1.43-3.31-2.05-5.19-1.56-.04,1.09-.48,2.23.88,3.08.32.2.47.87.38,1.26-.17.74-.46,1.51-.92,2.14-.74,1.02-2.1.99-2.98.06-.83-.88-1.09-2.42-.24-3.33,1.04-1.12.75-2.28.71-3.57Z"/>
    <path d="M123.91,81.49c.08-1.1.16-1.96.2-2.82.01-.26-.04-.54-.13-.8-.3-.91-.79-1.8-.92-2.72-.28-2.01-.25-4.03.72-5.94.26-.51.58-1.01,1.32-.99.77.02,1.19.47,1.45,1.06.1.21.17.43.23.65.56,2.08.54,4.18.38,6.29-.03.4-.14.86-.4,1.16-1.06,1.2-.59,2.48-.48,3.94.86-.11,1.64-.03,2.22-.3,2.65-1.22,4.42-3.14,4.81-5.83.26-1.82.18-3.69-.55-5.44-.49-1.19-1-2.52-1.96-3.37-3.71-3.29-9.87-1.94-11.68,1.26-.66,1.16-1.29,2.29-1.31,3.61-.03,1.51-.05,3.02.01,4.53.09,2.16,1.28,3.73,3.43,4.7.81.36,1.67.63,2.65,1Z"/>
    <path d="M90.36,77.11l-.15-.32c.41-.36.78-.77,1.22-1.08,1.87-1.31,3.51-2.82,4.78-4.6,1.87-2.62.53-5.78-2.81-6.69-.68-.19-1.38-.35-2.08-.44-2.65-.33-5.15-.14-7.4,1.39-1.53,1.05-2.2,2.42-2.51,4.18,1.72,0,3.31.02,4.87.03.57-.56,1.08-1.19,1.74-1.67.62-.45,1.43-.55,2.17-.2.76.35.98.99.99,1.73,0,.84-.35,1.53-1.01,2.08-.71.59-1.45,1.17-2.25,1.65-1.9,1.15-3.86,2.24-5.77,3.38-.35.21-.79.57-.81.88-.08,1.16-.27,2.37.5,3.63,4.94-.08,9.91-.16,14.83-.23,0-1.3.01-2.43.02-3.62-2.15-.38-4.27.12-6.34-.09Z"/>
    <path d="M80.6,59.17c.25,1.89,1.46,3.19,3.08,3.36,1.9.2,3.67-.21,5.16-1.31,1.67-1.23,1.44-3.15-.47-4.07-.67-.32-1.42-.51-2.13-.77-.66-.24-1.37-.42-1.96-.76-.9-.51-.83-1.37.08-1.88.79-.44,1.97-.47,2.56.45.38.59.91.67,1.56.55.4-.07.79-.14,1.19-.21-.27-1.17-.35-1.44-.91-1.69-1.39-.63-2.84-.99-4.43-.73-1.04.17-1.95.55-2.64,1.28-1.07,1.12-.88,2.51.53,3.28.73.4,1.56.66,2.37.93.62.2,1.3.25,1.91.48.83.3,1.28,1,1.17,1.61-.12.68-1.05,1.27-2.11,1.34-.89.06-1.17-.13-1.55-1.01-.12-.29-.26-.58-.37-.83-1.04,0-1.99-.01-3.04-.02Z"/>
    <path d="M119.31,54.08c2.98-.34,4.64.46,5.18,2.35.3,1.06.25,2.09-.29,3.08-.69,1.26-2.21,1.15-3.36,1.58-.01,1.34.17,1.5,1.37,1.25.5-.11.98-.27,1.48-.35,1.38-.24,2.27-.99,2.77-2.13.22-.51.44-1.03.6-1.55.82-2.68-.91-4.97-4-5.32-.61-.07-1.21-.18-1.82-.21-1.46-.07-2.92-.18-4.33.04-.43,2.7-.27,8.12.26,9.29.56,0,1.14,0,1.85.01.09-2.73-.1-5.37.3-8.03Z"/>
    <path d="M139.84,61.16c-1.53-.33-2.15-1.24-2.47-2.36-.41-1.46-.14-2.82.87-4.04.96-1.16,2.94-1.41,4.21-.52,2.15,1.51,2.09,4.9-.11,6.34-1,.66-1.01.67-.55,1.97,1.95-.13,3.19-1.03,3.71-2.73.42-1.35.41-2.71.09-4.08-.27-1.17-1.05-1.92-2.2-2.49-1.48-.74-2.97-.82-4.58-.43-2.05.49-3.72,2.12-3.76,4.03-.02,1.08.13,2.21.44,3.26.51,1.73,2.08,2.63,4.04,2.47.09-.42.19-.86.31-1.41Z"/>
    <path d="M139.32,69.98c.2,1.53-.08,2.74-.15,3.96-.12,2.15-.16,4.3-.22,6.45-.01.44.12.85.73.88,1.81.08,3.63.14,5.56.21,0-.89,0-1.75.02-2.6.09-2.74.15-5.48.31-8.21.1-1.68.31-3.35,0-5.08-1.77-.15-3.42-.29-5.13-.44-.85,2.16-3.09,2.47-4.97,3.24,0,1.13-.01,2.19-.02,3.45,1.3-.62,2.45-1.17,3.87-1.85Z"/>
    <path d="M103.86,52.43c-.1,2.09-.21,4.01-.28,5.93-.01.41.09.82.18,1.22.24,1.13.94,1.89,2.18,2.26,1.54.46,3.05.53,4.64.14,2.14-.52,2.74-.93,2.96-2.91.19-1.72.25-3.47.25-5.2,0-1.33-.5-1.6-2.11-1.3-.16,1.42-.31,2.87-.5,4.32-.1.82-.2,1.64-.41,2.44-.24.92-.92,1.52-1.95,1.75-1.03.22-1.66-.39-2.16-1.02-.37-.47-.69-1.06-.76-1.62-.19-1.59-.25-3.19-.35-4.78-.03-.39-.04-.79-.06-1.22-.58,0-1.02,0-1.62,0Z"/>
    <path d="M145.03,145.42c-.05-.08-.1-.16-.15-.25-2.44-.14-4.87-.3-7.31-.41-3.11-.14-6.23-.13-9.33-.39-2.78-.24-5.54-.71-8.28-1.21-1.67-.3-3.22-.06-4.82.33-1.95.48-3.92.57-5.82-.21-1.78-.73-3.67-.38-5.51-.5-.09,0-.2.14-.43.32,1.19.16,2.24.3,3.29.45,2.59.36,5.05,1.32,7.79,1.07,1.9-.17,3.86.11,5.79.21,3.46.19,6.92.39,10.38.59,3.05.18,6.1.39,9.16.51,1.47.06,2.95-.06,4.43-.14.28-.02.54-.23.81-.36Z"/>
    <path class="cls-5" d="M145.22,136.78c.14,1.23.09,1.27-.89,1.39-2.44.3-4.88.3-7.33.04-.51-.05-1.02-.11-1.53-.08-3.97.18-7.82-.5-11.66-1.23-.64-.12-1.31-.21-1.96-.22-4.5-.05-8.99-.06-13.49-.12-.69-.01-1.41-.16-2.05-.4-.54-.2-.85-.68-.63-1.26.23-.58.72-.89,1.42-.81,2.37.29,4.73.61,7.1.89,1.46.18,2.92.33,4.39.46,3.74.34,7.53.32,11.23,1.06.78.16,1.63.11,2.44.11,3.73.02,7.46.03,11.19.05.6,0,1.19.07,1.77.1Z"/>
    <path d="M109.79,132.99c3.18.78,6.39,1.2,9.67,1.09,3.01-.1,6.02-.15,9.03-.23,1.73-.05,3.47-.16,5.2-.16,1.52,0,3.05.1,4.57.18,1.93.1,3.86.23,5.8.32.24.01.48-.11.72-.18-2.68-.29-5.32-.47-7.96-.55-5.82-.16-11.64-.27-17.46-.4-.41,0-.81-.06-1.21-.13-2.13-.37-4.26-.75-6.38-1.12.34,1,.29,1.09-.78,1.17-.4.03-.8,0-1.19,0Z"/>
    <path d="M107.46,129.18c-.02.15-.04.3-.06.44.53.09,1.06.2,1.6.25.61.06,1.23.03,1.84.08,3.4.27,6.79.58,10.19.81,2.29.16,4.59.22,6.88.29,5.3.15,10.61.28,15.91.41.43.01.86-.05,1.38-.08-.42-.79-1.08-.59-1.65-.61-4.75-.13-9.5-.23-14.24-.38-2.44-.08-4.88-.25-7.33-.34-3.36-.13-6.73-.22-10.09-.34-.4-.01-.8-.12-1.2-.17-1.08-.13-2.15-.24-3.23-.36Z"/>
    <path d="M106.94,125.64c0,.09,0,.17,0,.26.24.04.48.1.73.11,2.19.11,4.38.2,6.57.32,3.52.19,7.03.42,10.55.59,2.86.14,5.72.22,8.58.33,2.76.1,5.51.22,8.27.31,1,.03,2,0,3.14-.02-.08-.52-.13-.85-.18-1.14-1.3-.13-2.46-.31-3.63-.36-3.47-.14-6.94-.3-10.42-.33-7.62-.08-15.25-.09-22.87-.13-.24,0-.49.03-.73.05Z"/>
    <path d="M143.14,129.5c.02-.07.03-.14.05-.22-1.57-.08-3.14-.14-4.71-.23-1.58-.09-3.15-.2-4.73-.28-3.87-.22-7.74-.42-11.61-.65-1.47-.09-2.94-.27-4.42-.37-2.9-.19-5.8-.35-8.7-.51-.27-.01-.54.1-.9.17.37.68.94.48,1.39.49,2.71.07,5.42.02,8.13.18,2.89.17,5.77.6,8.67.77,3.36.2,6.73.23,10.1.35,2.24.08,4.48.2,6.72.3Z"/>
    <path d="M144.35,142.78s.02-.02.03-.04c-6.85-.31-13.71-.63-20.44-.94,1.86.64,3.96,1.07,6.06,1.09,4.78.07,9.57-.07,14.35-.12ZM112.35,139.38c-.04.11-.08.22-.13.33.27.19.51.5.8.55,2.58.39,5.17.73,7.76,1.09-2.73-1.01-5.47-1.93-8.43-1.96Z"/>
    <path d="M95.53,61.99c.71,0,1.29,0,1.99.01.11-1.51.23-2.92.3-4.33.05-.87,0-1.74.05-2.61.05-1.01.16-1.07,1.27-1.02.55.03,1.1.01,1.62.01.22-1.18.21-1.21-.73-1.24-2.3-.09-4.59-.16-6.89-.24-1.13-.04-1.28.17-1.01,1.46.53-.04,1.08-.07,1.62-.12,1.1-.11,1.4.06,1.47,1.07.11,1.78.15,3.57.22,5.36.02.54.06,1.07.1,1.66Z"/>
    <path d="M131.74,62.21c.56-1.27.75-8.2.27-9.38-.6,0-1.24,0-1.95-.01.1,3.16-.42,6.24.02,9.38.6,0,1.1,0,1.66,0Z"/>
    <path class="cls-5" d="M125.58,89.98c-1.03.93-2.39.08-3.43.77,0,.39,0,.83,0,1.32,1.18.43,2.42-.55,3.67.21-.23.22-.38.51-.59.54-.9.13-1.82.23-2.73.27-.91.04-1.35-.29-1.4-1.11-.07-1.24-.06-2.47-.09-3.71,0-.5.14-.99.75-1.04,1.16-.09,2.32-.09,3.49-.1.13,0,.25.23.41.39-.71.71-1.59.34-2.35.42-1.19.12-1.29.21-1.12,1.38.99.59,2.29-.01,3.4.67Z"/>
    <path class="cls-5" d="M83.87,89.9c.7-.71,1.36-.63,2.01-.47.21.05.48.27.51.44.11.58.19,1.18.14,1.77-.02.25-.36.66-.61.69-1.15.15-2.34.36-3.47.23-1.51-.18-2.27-1.16-2.33-2.51-.05-1.37.73-2.49,2.09-2.88,1.24-.35,2.43-.11,3.53.46.39.2.77.51.32,1.01-.73-.28-1.44-.63-2.19-.81-1.28-.31-2.48.38-2.84,1.51-.37,1.18.38,2.22,1.75,2.41.3.04.61.05.91.03.6-.03,1.2-.09,1.85-.15,0-.49,0-.88,0-1.27-.54-.15-1-.28-1.68-.47Z"/>
    <path class="cls-5" d="M131.12,89.63c-.81-1.69-.51-2.24.88-2.29.81-.03,1.63-.05,2.44,0,1.15.09,1.83.95,1.29,1.82-.49.77-.46,1.42-.15,2.18.18.45.34.97-.32,1.52-.19-.33-.38-.56-.45-.81-.4-1.58-.41-1.6-2.21-1.57-.25,0-.5.03-.84.06-.17.67-.34,1.35-.54,2.13-.7-.75-.86-2.4-.31-2.81.22-.17.64-.13.98-.16.75-.06,1.53-.03,2.25-.2.34-.08.75-.54.78-.86.04-.49-.5-.61-1-.6-.1,0-.2,0-.31,0-1.09,0-2.14.06-2.49,1.59Z"/>
    <path class="cls-5" d="M96.08,89.86c-.61-.45-1.09-.8-1.72-1.27-.29.55-.56,1.05-.88,1.65,1.21.27,2.49-.56,3.4.42.47.5.8,1.1,1.21,1.66-.77.46-1.06.02-1.23-.32-.51-1.03-1.44-.97-2.44-.91-1.22.07-2.07.58-2.53,1.56-.69-.23-.5-.63-.36-.94.57-1.27,1.14-2.54,1.8-3.78.56-1.06,1.12-1.11,1.87-.18.43.54,1.25.98.88,2.1Z"/>
    <path class="cls-5" d="M113.23,91.5c.97.32,2.01-.1,2.71.68-.86.54-1.78.6-3.9.27.23-1.77-.64-3.62.6-5.6.88,1.65.06,3.21.59,4.66Z"/>
    <path class="cls-5" d="M140.66,87.53c1.44-.11,1.48,1.36,2.43,1.92.95-.5,1.4-1.62,2.76-2.1-.15.45-.16.71-.31.9-.3.37-.64.71-1,1.03-.74.64-1.07,1.39-1,2.33.03.4.21.94-.52,1.17-.52-.33-.39-.8-.32-1.23.09-.59-.12-1.06-.53-1.51-.63-.71-1.2-1.45-1.79-2.18.09-.11.19-.22.28-.32Z"/>
    <path class="cls-5" d="M103.67,91.91c1.35,0,2.48.01,3.95.02-.42.35-.54.55-.68.56-1.11.09-2.23.19-3.35.2-.27,0-.66-.24-.81-.46-.29-.47.16-4.41.56-5.18.82.69.58,1.52.56,2.28-.02.77-.14,1.53-.24,2.58Z"/>
    <path class="cls-5" d="M105.04,123.88c0-.42,0-.81,0-1.26-.69-.19-1.63.43-2.02-.51.18-.53.37-1.07.59-1.71-.52-.13-.92-.22-1.42-.34.59-.31,1.1-.57,1.62-.84-1.12-.59-2.09-1.23-3.17-1.62-.59-.21-1.39-.06-2.06.05-.23.04-.46.45-.55.72-.15.44-.19.92-.3,1.52.39.24.88.55,1.37.85-.03.06-.06.13-.09.19-.83,0-1.66,0-2.64-.01-.19-.93-.37-1.84-.6-2.95.19-.59,1.01-.67,1.76-.89-.04-.33-.08-.63-.12-.93.8-.46,1.78.48,2.51-.4-.25-.25-.51-.5-.78-.77,1.15-.19,2.16.64,3.27.21-.58-1.37-2.13-2.32-4.8-2.93.32-.37.6-.7.98-1.15-.38-.36-.77-.75-1.21-1.18.55-.75,2.18-.08,2.34-1.42-.79-.87-1.91.16-2.88-.38-.07-.42.29-.7.74-.74,1.01-.09,2.09-.26,2.9.5.78.74,1.5.52,2.35.06-.42-1.02-1.08-1.65-2.26-1.87-.88-.17-1.75-.46-2.3-1.27.55-.17,1.03-.33,1.57-.5-.58-1.09-1.81-.68-2.67-1.19.61-.68,1.26-.44,1.93-.31.89.18,1.79.31,2.69.43.21.03.45-.1.95-.22-.46-.26-.67-.44-.92-.51-1.46-.4-2.69-1.25-4.27-1.45-.96-.12-1.35-1.02-1.18-1.86-.61-.91-1.96-.1-2.74-1.22,1.64,0,3.04.02,4.45.02,12.59.07,25.17.13,37.75.23,1.89.01,3.77.19,5.66.25.66.02,1.32-.06,1.98-.12,1.07-.09,1.44.13,1.42,1.08-.06,2.43-.09,4.86-.31,7.28-.25,2.75-.52,5.48-.08,8.23.19,1.18.32,2.37.47,3.55.05.36.11.73.11,1.09.01.97-.37,1.54-1.44,1.58-1.33.06-2.32.65-3.32,1.28-.48.3-.95.47-1.57.34-4.54-.98-9.02-.44-13.48.46-.85.17-1.68.43-2.54.5-.9.07-1.84.06-2.71-.11-2.29-.46-4.53-.58-6.76.22-.37.13-.79.23-1.19.23-2.15.01-4.3,0-6.44-.03-.19,0-.37-.11-.6-.18Z"/>
    <path class="cls-5" d="M88.66,112.23c.38-.89.79-1.75,1.99-2.02-.47-1.02-1.26-.7-2.03-.72,0-.21-.02-.42,0-.62.07-.49.05-.94-.61-1.08-.54-.12-1.32.25-1.44.77-.16.73-.75,1.42-.36,2.24.04.08-.1.24-.17.38-.78-.11-.62-.6-.56-1.04.04-.39.06-.77.09-1.25-1.32.05-1.33.74-1.65,1.5-.35.82-.55,1.4.26,2.01-.64.56-1.18.81-1.9.21-.27-.23-.72-.28-1.14-.44.12-4.72.24-9.42.37-14.31,2.95-.06,5.74-.14,8.53-.15.39,0,.79.32,1.16.54.36.21.7.46,1.03.71.2.15.47.31.53.51.22.79.74,1.05,1.59.77q.09.9-.96,1.41c.04.12.07.25.13.36.07.12.16.23.29.39-.15.17-.29.35-.46.51-.29.28-.61.6-.16.92.39.28.86.27,1.21-.14.15-.18.23-.44.42-.56.21-.13.51-.13,1.11-.25-.83.94-.98,1.75-.76,2.64.12.48-.25.75-.75.89-1.21.33-2.41.67-3.58.99.66.77,1.66,1,4.19,1.08-1,.45-2,.9-3,1.36.64,1.65,1.09,1.71,3.17.31.13.29.33.55.36.83.08.73.07,1.47.13,2.2.1,1.06-.27,1.83-1.34,2.41-.57.31-.96.9-1.59,1.51-.84-.31-1.86-.67-3.09-1.12.05-.34.06-.83.19-1.28.25-.87.66-1.04,1.69-.91.75.09,1.52.14,2.28.13.3,0,.61-.2,1.23-.42-1.35-.77-2.41-1.46-3.55-1.99-.35-.16-.97.01-1.4.18-.43.17-.78.51-1.17.78-.09-.08-.19-.16-.28-.24Z"/>
    <path class="cls-1" d="M99.75,102.59c-.91-.6-1.84-.51-2.94-.12-.68.25-1.62-.06-2.77-.15,1.4-.67.93-1.53.96-2.14-.34-.72-1.65.04-1.55-1.18.7.11,1.36.22,1.99.32.29.49.52.94.8,1.37.35.54.86.81,1.58.92.72.12,1.39.48,2.08.74.04.01.08.08.07.11-.01.03-.08.05-.21.12Z"/>
    <path class="cls-5" d="M105.69,64.88c.04,1.28.32,2.45-.71,3.57-.85.91-.59,2.46.24,3.33.88.93,2.24.95,2.98-.06.46-.63.74-1.4.92-2.14.09-.39-.06-1.06-.38-1.26-1.35-.85-.91-1.99-.88-3.08,1.88-.49,4,.13,5.19,1.56,1.71,2.07,1.99,4.46,1.8,6.94-.01.18-.11.36-.13.54-.23,3.94-3.28,5.81-6.84,6.95-3.35,1.07-6.95-.94-7.17-4.03,1.36-.22,2.74-.43,4.2-.66.18.38.34.71.48,1.04.35.8,1.11,1.09,1.95,1.11.84.02,1.27-.58,1.45-1.23.2-.75.3-1.53.36-2.3.05-.56-.15-1.09-.82-1.46-.89.4-1.78.84-2.7,1.22-2.21.92-3.65.49-4.89-1.41-.74-1.13-1.12-2.35-1.15-3.67-.03-1.36.43-2.53,1.63-3.41.51-.38,1.02-.77,1.56-1.11.83-.53,1.73-.77,2.91-.43Z"/>
    <path class="cls-5" d="M123.91,81.49c-.97-.36-1.84-.64-2.65-1-2.15-.96-3.34-2.53-3.43-4.7-.06-1.51-.04-3.02-.01-4.53.02-1.32.66-2.45,1.31-3.61,1.81-3.2,7.97-4.55,11.68-1.26.96.85,1.46,2.18,1.96,3.37.72,1.75.81,3.62.55,5.44-.39,2.69-2.16,4.61-4.81,5.83-.58.27-1.36.2-2.22.3-.11-1.47-.58-2.74.48-3.94.26-.3.37-.76.4-1.16.16-2.11.18-4.22-.38-6.29-.06-.22-.13-.44-.23-.65-.27-.59-.69-1.04-1.45-1.06-.74-.02-1.06.48-1.32.99-.97,1.9-1.01,3.92-.72,5.94.13.93.62,1.81.92,2.72.09.26.14.53.13.8-.04.86-.12,1.72-.2,2.82Z"/>
    <path class="cls-5" d="M90.36,77.11c2.07.21,4.18-.3,6.34.09,0,1.18-.01,2.31-.02,3.62-4.93.08-9.9.16-14.83.23-.77-1.26-.58-2.46-.5-3.63.02-.31.47-.67.81-.88,1.91-1.15,3.87-2.23,5.77-3.38.8-.48,1.54-1.06,2.25-1.65.66-.54,1.02-1.23,1.01-2.08,0-.75-.23-1.38-.99-1.73-.75-.35-1.56-.25-2.17.2-.66.48-1.17,1.12-1.74,1.67-1.56,0-3.16-.02-4.87-.03.31-1.76.98-3.13,2.51-4.18,2.25-1.54,4.75-1.73,7.4-1.39.7.09,1.4.25,2.08.44,3.34.91,4.68,4.07,2.81,6.69-1.28,1.79-2.92,3.29-4.78,4.6-.45.31-.82.72-1.22,1.08l.15.32Z"/>
    <path class="cls-5" d="M80.6,59.17c1.06,0,2,.01,3.04.02.11.25.25.54.37.83.38.88.66,1.07,1.55,1.01,1.06-.07,1.99-.66,2.11-1.34.11-.62-.34-1.31-1.17-1.61-.61-.22-1.29-.27-1.91-.48-.81-.26-1.64-.53-2.37-.93-1.41-.77-1.6-2.16-.53-3.28.69-.73,1.6-1.11,2.64-1.28,1.58-.26,3.04.1,4.43.73.56.26.65.52.91,1.69-.4.07-.79.14-1.19.21-.65.11-1.18.04-1.56-.55-.59-.91-1.77-.88-2.56-.45-.91.5-.98,1.37-.08,1.88.59.34,1.3.52,1.96.76.71.26,1.46.44,2.13.77,1.91.92,2.13,2.84.47,4.07-1.49,1.1-3.26,1.51-5.16,1.31-1.63-.17-2.83-1.47-3.08-3.36Z"/>
    <path class="cls-5" d="M119.31,54.08c-.4,2.66-.21,5.3-.3,8.03-.71,0-1.29,0-1.85-.01-.54-1.16-.69-6.59-.26-9.29,1.41-.22,2.87-.11,4.33-.04.61.03,1.21.14,1.82.21,3.09.35,4.82,2.64,4,5.32-.16.53-.38,1.04-.6,1.55-.5,1.14-1.39,1.89-2.77,2.13-.5.09-.98.25-1.48.35-1.2.26-1.38.1-1.37-1.25,1.16-.43,2.68-.31,3.36-1.58.54-.99.59-2.02.29-3.08-.54-1.89-2.2-2.69-5.18-2.35Z"/>
    <path class="cls-5" d="M139.84,61.16c-.12.55-.21.99-.31,1.41-1.97.16-3.54-.74-4.04-2.47-.31-1.05-.46-2.17-.44-3.26.04-1.91,1.71-3.53,3.76-4.03,1.61-.39,3.09-.31,4.58.43,1.15.57,1.93,1.32,2.2,2.49.32,1.37.33,2.73-.09,4.08-.52,1.7-1.76,2.6-3.71,2.73-.45-1.29-.45-1.31.55-1.97,2.2-1.44,2.26-4.83.11-6.34-1.26-.89-3.24-.64-4.21.52-1.01,1.22-1.28,2.57-.87,4.04.32,1.13.94,2.03,2.47,2.36Z"/>
    <path class="cls-5" d="M139.32,69.98c-1.42.68-2.57,1.23-3.87,1.85,0-1.25.01-2.32.02-3.45,1.88-.77,4.12-1.08,4.97-3.24,1.71.15,3.37.29,5.13.44.3,1.73.09,3.4,0,5.08-.16,2.73-.22,5.47-.31,8.21-.03.85-.01,1.71-.02,2.6-1.93-.07-3.75-.13-5.56-.21-.6-.03-.74-.43-.73-.88.06-2.15.11-4.3.22-6.45.07-1.22.34-2.43.15-3.96Z"/>
    <path class="cls-5" d="M103.86,52.43c.6,0,1.04,0,1.62,0,.02.43.03.83.06,1.22.1,1.59.16,3.19.35,4.78.07.56.39,1.15.76,1.62.5.63,1.12,1.24,2.16,1.02,1.03-.23,1.72-.83,1.95-1.75.21-.8.31-1.62.41-2.44.18-1.44.33-2.89.5-4.32,1.61-.3,2.11-.03,2.11,1.3,0,1.73-.05,3.48-.25,5.2-.22,1.98-.82,2.39-2.96,2.91-1.6.39-3.11.32-4.64-.14-1.23-.37-1.94-1.14-2.18-2.26-.09-.4-.19-.82-.18-1.22.07-1.92.18-3.83.28-5.93Z"/>
    <path class="cls-5" d="M145.03,145.42c-.27.13-.53.34-.81.36-1.47.08-2.96.2-4.43.14-3.06-.12-6.11-.33-9.16-.51-3.46-.2-6.92-.4-10.38-.59-1.93-.1-3.89-.39-5.79-.21-2.74.25-5.2-.7-7.79-1.07-1.05-.15-2.1-.29-3.29-.45.23-.18.33-.32.43-.32,1.84.12,3.73-.22,5.51.5,1.9.77,3.87.69,5.82.21,1.59-.39,3.14-.63,4.82-.33,2.74.49,5.5.96,8.28,1.21,3.09.27,6.22.25,9.33.39,2.44.11,4.87.27,7.31.41.05.08.1.16.15.25Z"/>
    <path class="cls-5" d="M109.79,132.99c.4,0,.8.03,1.19,0,1.07-.08,1.13-.17.78-1.17,2.12.37,4.25.75,6.38,1.12.4.07.81.12,1.21.13,5.82.14,11.64.24,17.46.4,2.64.07,5.28.26,7.96.55-.24.06-.48.19-.72.18-1.93-.09-3.86-.22-5.8-.32-1.52-.08-3.05-.18-4.57-.18-1.73,0-3.47.11-5.2.16-3.01.08-6.02.13-9.03.23-3.28.11-6.49-.31-9.67-1.09Z"/>
    <path class="cls-5" d="M109.99,147.84c-.08-.3-.16-.6-.27-.99,2.99-.13,5.91-.53,8.86-.14,1.56.21,3.14.29,4.71.44.3.03.6.12.88.23,1.92.79,3.94.77,5.98.67,1.43-.07,2.86.02,4.29-.02,3.2-.08,6.4-.2,9.68-.31-.07.57-.46.8-1.09.83-1.58.07-3.15.14-4.73.21-1.37.06-2.75.17-4.12.2-3.12.07-6.21-.14-9.24-.85-2.4-.56-4.81-.6-7.28-.38-2.18.19-4.39.07-6.58.09-.36,0-.71.01-1.07.02,0,0-.01,0-.01,0Z"/>
    <path class="cls-5" d="M104.5,137.65c.55-.08,1.09-.22,1.64-.22,3.02,0,6.03-.02,9.05.05,2.41.06,4.71.68,7.01,1.3.82.22,1.69.34,2.54.37,3.37.15,6.74.2,10.1.38,1.83.1,3.64.37,5.41.56-1.06,0-2.17-.03-3.28-.02-2.71.03-5.42.08-8.12.11-2.94.03-5.77-.44-8.51-1.42-3.2-1.15-6.5-1.31-9.91-.98-1.94.19-3.94-.08-5.91-.15,0,0-.01.02-.01.02Z"/>
    <path class="cls-5" d="M107.46,129.18c1.08.12,2.15.24,3.23.36.4.05.8.15,1.2.17,3.36.12,6.73.21,10.09.34,2.44.09,4.88.26,7.33.34,4.75.15,9.49.25,14.24.38.57.02,1.23-.18,1.65.61-.52.03-.95.09-1.38.08-5.3-.13-10.61-.26-15.91-.41-2.29-.07-4.59-.13-6.88-.29-3.4-.23-6.79-.54-10.19-.81-.61-.05-1.23-.02-1.84-.08-.54-.05-1.07-.17-1.6-.25.02-.15.04-.3.06-.44Z"/>
    <path class="cls-5" d="M106.94,125.64c.24-.02.49-.05.73-.05,7.62.04,15.25.05,22.87.13,3.47.04,6.95.19,10.42.33,1.17.05,2.33.23,3.63.36.05.29.1.62.18,1.14-1.13,0-2.14.05-3.14.02-2.76-.09-5.51-.21-8.27-.31-2.86-.11-5.72-.19-8.58-.33-3.52-.17-7.03-.4-10.55-.59-2.19-.12-4.38-.21-6.57-.32-.24-.01-.48-.07-.73-.11,0-.09,0-.17,0-.26Z"/>
    <path class="cls-5" d="M143.14,129.5c-2.24-.1-4.48-.22-6.72-.3-3.37-.12-6.74-.15-10.1-.35-2.89-.17-5.77-.6-8.67-.77-2.7-.16-5.42-.11-8.13-.18-.46-.01-1.03.18-1.39-.49.35-.07.63-.18.9-.17,2.9.16,5.8.32,8.7.51,1.47.1,2.94.28,4.42.37,3.87.23,7.74.43,11.61.65,1.58.09,3.15.2,4.73.28,1.57.09,3.14.15,4.71.23-.02.07-.03.14-.05.22Z"/>
    <path class="cls-5" d="M144.35,142.78c-4.78.05-9.57.18-14.35.12-2.1-.03-4.2-.45-6.06-1.09,6.74.31,13.59.62,20.44.94-.01.01-.02.02-.03.04Z"/>
    <path class="cls-5" d="M112.35,139.38c2.96.03,5.7.95,8.43,1.96-2.59-.36-5.18-.7-7.76-1.09-.29-.04-.53-.36-.8-.55.04-.11.08-.22.13-.33Z"/>
    <path class="cls-5" d="M95.53,61.99c-.03-.59-.07-1.12-.1-1.66-.07-1.79-.1-3.57-.22-5.36-.06-1.01-.37-1.18-1.47-1.07-.54.06-1.09.08-1.62.12-.27-1.29-.12-1.49,1.01-1.46,2.3.07,4.59.15,6.89.24.94.04.95.07.73,1.24-.53,0-1.08.01-1.62-.01-1.12-.05-1.22,0-1.27,1.02-.04.87,0,1.74-.05,2.61-.08,1.41-.19,2.82-.3,4.33-.71,0-1.28,0-1.99-.01Z"/>
    <path class="cls-5" d="M131.74,62.21c-.57,0-1.07,0-1.66,0-.44-3.13.09-6.21-.02-9.38.72,0,1.35,0,1.95.01.48,1.17.29,8.11-.27,9.38Z"/>
    <path class="cls-5" d="M109.12,140.13c-1.61-.12-3.22-.24-4.82-.36,0-.04,0-.08,0-.12,1.6-.11,3.2-.23,4.9-.35-.03.4-.05.61-.07.83h0Z"/>
  </g>
</svg>