<?xml version="1.0" encoding="UTF-8"?>
<svg id="Layer_1" data-name="Layer 1" xmlns="http://www.w3.org/2000/svg" viewBox="0 0 180 200">
  <defs>
    <style>
      .cls-1 {
        fill: #fff;
      }

      .cls-1, .cls-2, .cls-3, .cls-4 {
        fill-rule: evenodd;
      }

      .cls-2 {
        fill: #4277bb;
      }

      .cls-3, .cls-5 {
        fill: #231f20;
      }

      .cls-5 {
        font-family: AmericanTypewriter-Bold, 'American Typewriter';
        font-size: 19.02px;
        font-weight: 700;
        letter-spacing: .02em;
      }

      .cls-4 {
        fill: #f5881f;
      }
    </style>
  </defs>
  <g>
    <path class="cls-3" d="M81.34,139.14c16.94.66,32.64,1.21,50.25,1.21,4.33,0,8.86.12,12.64.12,7.23,0,19.57.92,23.92-2.43,4.04-3.11,2.53-10.31,2.88-16.31.47-8.17-.23-18.27-.68-27.84-.2-4.3-.88-10.43-2.66-12.98-2.69-3.87-7.83-3.77-13.91-4.06-2.31-.11-7.03-.83-10.49-.69-1.5.06-2.93.43-4.25.38-2.08-.08-3.52-.94-5.96-1.3-4.7-.7-11.15-.56-16.83-.5-5.66.06-11.46.07-16.89.26-8.38.3-15.69.93-24.3.61-7.69-.28-9.11-.77-12.22,4.51-3.05,5.18-4.61,13.6-5.58,20.39-1.92,13.37-1.1,24.43,2.66,32.86,4.79,5.46,12.32,5.4,21.42,5.76h0ZM169.48,78.27c3.16,8.09,4.25,19.18,5.19,30.8.35,4.26.6,8.96.28,13.02-.48,6.23-.82,15.42-4.63,18.44-3.86,3.07-9.72,2.34-15.98,2.13-10.42-.37-18.54.61-28.75.21-11.43-.44-22.14-.65-32.88-.93-8.92-.23-17.65-.21-24.64-1.71-3.96-.85-6.54-3.27-9.36-4.92-1.54-2.84-2.62-6.07-4.31-8.8-1.35-14.26-.88-35.94,5.09-47.46,1.39-2.68,3.9-4.54,5.8-6.61,3.47-.75,5.54-.56,10.29-.09,13.52,1.33,28.37.04,42.94.31,14.22.26,28.48,1.93,41.23,1.93,3.48,0,6.69,2,9.73,3.68h0Z"/>
    <path class="cls-2" d="M59.92,133.38c-3.75-8.43-4.57-19.49-2.66-32.86.97-6.8,2.53-15.22,5.58-20.39,3.11-5.28,4.53-4.78,12.22-4.51,8.61.32,15.93-.32,24.3-.61,5.43-.19,11.23-.2,16.89-.26,5.68-.06,12.13-.2,16.83.5,2.44.36,3.88,1.22,5.96,1.3,1.32.05,2.75-.32,4.25-.38,3.46-.14,8.18.58,10.49.69,6.08.3,11.22.19,13.91,4.06,1.78,2.55,2.45,8.68,2.66,12.98.46,9.57,1.15,19.66.68,27.84-.34,6,1.16,13.2-2.88,16.31-4.34,3.35-16.68,2.42-23.92,2.43-3.78,0-8.31-.12-12.64-.12-17.62,0-33.31-.56-50.25-1.21-9.1-.36-16.63-.29-21.42-5.76h0Z"/>
    <path class="cls-3" d="M134.59,85.42c-.45,3.24-.85,5.77.59,7.92,1.73,2.59,7.6,3.24,6.62,7.92-.8,3.8-6.1,2.32-8.08,1.47-.39,1.51.02,3.35.29,4.61.57-.21,1.24.17,1.91.37,5.22,1.53,11.55.49,10.43-7.55-.64-4.66-4.06-5.91-7.2-6.82-.88-1.65-.81-4.16.15-5.34,1.33-1.63,3.24-.65,5.15-.37-.08-1.5-.07-3.1-.29-4.42-2.85-.69-7.97-.41-9.55,2.21h0ZM145.02,82.66c-.16,1.61.39,4.42,0,6.26-3.02-.74-6.34-1.37-5.59,3.5,1.97,1.45,4.49,1.44,5.88,3.32,2.66,3.6,2.51,11.48-1.47,13.26-1.63.73-3.9.53-5.59.37-1.6-.16-3.14-.98-4.7-1.1-.46-1.62-1.04-5.03-.15-6.63,1.96.96,7.44,2.83,7.79-.92.35-3.77-5.36-4.19-6.76-6.82-1.78-3.35-.95-9.42,1.03-11.06,2.19-1.8,5.2-.94,8.67-1.29.19.51.59.74.88,1.11h0Z"/>
    <path class="cls-3" d="M80.5,84.13c-1.84,1.59-3.99,6.01-4.7,9.03-1.85,7.87,2.31,14.1,7.2,15.29,4.15,1.01,6.46-1.53,9.26-3.69.13-3.57.82-6.87.15-10.13-2.43.33-4.82,1.49-7.2,1.29-.23.47-.23,1.92,0,2.39,1.41,0,2.28-.9,3.53-.18.26,1.7-.58,3.55-.59,5.53-4.54,1.16-8.27-2.66-8.52-7.37-.38-7.14,7.06-11.71,11.76-7.37.21-1.87.05-2.52,0-4.79-3.74-1.33-8.32-2.2-10.88,0h0ZM92.11,83.76c-.27,1.87-.1,4.3-.14,6.45-1.23-.32-2.44-1.99-3.97-2.21-4.21-.6-7.6,3.36-7.94,8.29.82,4.19,3.66,7.4,7.5,6.63.21-1.21.44-2.4.59-3.69-1.1-.63-2.17.35-3.38.18-.39-1.11-.42-3.21-.29-4.42,2.86.11,5.92-.98,8.53-1.29.74,3.28.04,7.74,0,11.24-1.55,2.03-3.67,4.41-6.61,4.61-4.03.27-7.75-2.29-9.55-5.34-.55-.26-.4-.32-1.03-.55-2.63-4.82-1.02-11.81,1.47-16.4.86-1.58,2.14-3.59,3.09-4.24,3.14-2.13,8.45-1.07,11.76.74h0Z"/>
    <path class="cls-3" d="M117.24,84.13c-1.34,7.84-3.1,15.15-4.55,22.85,1.01.61,2.76.39,3.82,0,.5-2.44.51-5.5,1.18-7.74,2.62-.48,3.34.55,6.32.55,1.02,1.61,1.08,4.42,1.77,6.45.92.32,2.01.43,3.23.36-.45-2.6-.67-5.26-1.32-7.74-.42-1.59-1.12-3.13-1.47-4.79-.79-3.69-1.13-7.47-2.65-10.68-2.06.36-4.44.68-6.32.73h0ZM124.59,82.29c1.7,8.5,4.5,16.59,5.44,25.42-1.43.25-3.65-.08-5-.55-.46-2.12-.88-4.3-1.47-6.26-1.93-.63-3.31-.74-5.15-.56-.93,1.85-.58,5.3-1.32,7.37-1.57,1.19-3.42.51-5.14.74.58-8.18,3.3-15.27,4.26-23.58-.15-.95-.16-1.48.29-2.03,2.58.29,5.22-.79,8.08-.55h0Z"/>
    <path class="cls-1" d="M144.14,83.21c.22,1.32.22,2.92.29,4.42-1.9-.28-3.82-1.26-5.15.37-.96,1.18-1.03,3.69-.15,5.34,3.14.91,6.56,2.16,7.2,6.82,1.11,8.04-5.21,9.08-10.43,7.55-.67-.2-1.34-.58-1.91-.37-.27-1.26-.69-3.1-.29-4.61,1.99.84,7.28,2.33,8.08-1.47.99-4.68-4.89-5.33-6.62-7.92-1.43-2.15-1.03-4.69-.59-7.92,1.58-2.62,6.71-2.9,9.55-2.21h0Z"/>
    <path class="cls-3" d="M150.61,84.94c-.45,3.24-.85,5.78.59,7.93,1.73,2.59,7.6,3.24,6.61,7.92-.8,3.81-6.09,2.32-8.08,1.48-.39,1.51.02,3.35.29,4.61.57-.21,1.24.17,1.91.37,5.22,1.53,11.55.49,10.43-7.56-.64-4.65-4.06-5.9-7.2-6.81-.88-1.65-.81-4.17.15-5.34,1.33-1.63,3.24-.65,5.14-.37-.08-1.5-.07-3.1-.29-4.42-2.84-.68-7.97-.41-9.55,2.21h0ZM161.05,82.18c-.16,1.61.39,4.41,0,6.26-3.02-.74-6.34-1.37-5.59,3.5,1.97,1.45,4.49,1.44,5.88,3.31,2.66,3.6,2.51,11.48-1.47,13.27-1.62.73-3.9.53-5.59.37-1.6-.15-3.14-.98-4.7-1.1-.46-1.62-1.04-5.03-.15-6.63,1.97.96,7.44,2.83,7.79-.92.35-3.77-5.37-4.19-6.76-6.81-1.78-3.35-.95-9.43,1.03-11.06,2.19-1.81,5.2-.95,8.67-1.29.19.5.59.74.88,1.11h0Z"/>
    <path class="cls-1" d="M160.17,82.73c.22,1.32.22,2.92.29,4.42-1.9-.28-3.82-1.26-5.14.37-.96,1.18-1.03,3.7-.15,5.34,3.14.91,6.56,2.16,7.2,6.81,1.11,8.04-5.21,9.09-10.43,7.56-.67-.2-1.34-.58-1.91-.37-.28-1.26-.69-3.1-.3-4.61,1.99.84,7.28,2.33,8.08-1.48.99-4.68-4.89-5.33-6.61-7.92-1.43-2.15-1.04-4.69-.59-7.93,1.59-2.62,6.71-2.89,9.55-2.21h0Z"/>
    <path class="cls-1" d="M91.37,84.13c.05,2.27.2,2.92,0,4.79-4.7-4.34-12.14.24-11.76,7.37.25,4.71,3.98,8.53,8.52,7.37,0-1.98.85-3.83.59-5.53-1.25-.72-2.12.19-3.53.18-.23-.47-.23-1.93,0-2.39,2.38.2,4.77-.97,7.2-1.29.67,3.26-.02,6.57-.15,10.13-2.8,2.16-5.11,4.7-9.26,3.69-4.89-1.2-9.05-7.43-7.2-15.29.71-3.02,2.87-7.44,4.7-9.03,2.55-2.2,7.14-1.33,10.88,0h0Z"/>
    <path class="cls-3" d="M96.37,106.79c3.2.75,7.8-.63,11.61-.55.1-1.48-.13-2.54-.15-3.87-2.49-.37-4.2.13-6.76-.74.57-6.65-.13-10.65.29-17.31-1.43.23-3.44.18-4.56,0-.36,6.47-.19,14.72-.44,22.47h0ZM101.81,83.39c.26,5.39.46,11.61.15,17.13,2.17.92,5.46,1.01,6.76.74.35,1.93-.02,3.74.15,5.71-3.51.28-9.05,1.43-13.67.74,1.32-8.03.17-17.15,1.03-24.32.12-.03.15-.18.29-.18,1.74.13,3.52.65,5.29.18h0Z"/>
    <path class="cls-1" d="M118.71,94.27c1.12.39,3.19.52,4.26.37-.08-2.43-1.4-4.87-2.06-7.19h-.44c-.89,1.9-1.42,4.24-1.76,6.82h0ZM123.56,83.39c1.52,3.21,1.86,6.99,2.65,10.68.35,1.65,1.05,3.2,1.47,4.79.66,2.48.87,5.14,1.32,7.74-1.23.06-2.31-.05-3.23-.36-.69-2.03-.75-4.84-1.77-6.45-2.98,0-3.7-1.04-6.32-.55-.67,2.24-.67,5.3-1.18,7.74-1.06.39-2.81.61-3.82,0,1.45-7.69,3.21-15.01,4.55-22.85,1.88-.05,4.26-.38,6.32-.73h0Z"/>
    <path class="cls-1" d="M96.81,84.32c1.12.18,3.13.23,4.56,0-.42,6.66.28,10.67-.29,17.32,2.56.87,4.27.36,6.76.74.02,1.33.24,2.4.15,3.87-3.81-.08-8.41,1.29-11.61.55.25-7.76.08-16,.44-22.47h0Z"/>
    <path class="cls-3" d="M119.74,93.16c.7.26,1.63.77,2.2.18-.32-1.13-.77-2.11-1.03-3.32h-.44c-.38.88-.53,2.04-.73,3.13h0ZM120.48,87.44h.44c.66,2.32,1.98,4.76,2.06,7.19-1.07.15-3.14.02-4.26-.37.35-2.58.87-4.92,1.77-6.82h0Z"/>
    <path class="cls-3" d="M74.92,111.46c-2.73.44-6.08.21-8.75.71-.63,5.75.35,11.8,0,17.27.94.15,2.48-.09,3.26-.57-.07-2.27-.25-4.13,0-6.94,1.41-1.29,3.33-1.15,5.49-1.56-.05-.65-.09-1.31-.26-1.84-2.14-.25-3.22.61-5.22.14-.03-1.54-.59-2.6-.13-3.82,2.37-.07,3.82-.12,6.27-.42-.27-.93.01-2.47-.65-2.97h0ZM75.71,110.89c.41,1.17.56,2.7.39,4.11-1.58.75-4.13.43-6.14.71-.22.77-.12,1.76.13,2.41,1.91,0,2.87-.37,5.22-.29.21.88.4,2.46.26,3.26-1.59.64-4.19.18-5.35,1.27-.4,2.29.14,5.23-.13,7.36-1.34.39-2.6.86-4.44.71-.8-2.39-.08-5.19-.26-7.93-.23-3.53-.48-7.29.26-10.9,2.89-.67,7.19-.34,10.06-.71h0Z"/>
    <path class="cls-1" d="M75.58,114.43c-2.44.3-3.9.35-6.27.42-.46,1.23.1,2.28.13,3.82,2,.47,3.08-.39,5.23-.14.17.53.21,1.19.26,1.84-2.15.41-4.08.27-5.49,1.56-.25,2.81-.07,4.67,0,6.94-.78.47-2.33.72-3.26.57.35-5.47-.63-11.53,0-17.27,2.67-.5,6.02-.27,8.75-.71.66.51.38,2.05.65,2.97h0Z"/>
    <path class="cls-3" d="M119.01,123.91c-1.58-.5-2.19-2.06-2.74-3.68-1.63-1.1-2.46-6.02-4.05-6.51-.76-.24-1.71.4-2.74.43-.05,4.93.04,10.09.13,14.44.91.65,1.86.43,3,.71.1-2.85-.71-6.06-.26-9.06,1.01.3,1.36,1.72,1.96,2.69.63,1.01,1.12,2.11,1.7,3.12.56.97,1.55,2.66,2.48,3.11,1.08.52,2.38.22,3.92.57.25-4.94.6-10.85-.39-16.14-.8.05-1.67-.04-2.87-.14-.14,3.22-.1,7.73-.13,10.47h0ZM118.23,112.73c1.89,0,3.31.15,4.7.42.83,4.95.93,12.15.26,17.42-1.57-.13-3.56-.6-5.35-.71-1.74-2.22-2.96-5-4.7-7.22.11,2.44.65,5.14.52,7.36-1.73.11-3.51-.03-4.96-.57-.1-5.06-.44-11.05-.13-16,1.12-.48,2.69-.48,4.18-.57,2.13,2.65,3.29,6.34,5.35,9.06-.1-3.61.37-6.21.13-9.2h0Z"/>
    <path class="cls-3" d="M138.66,124.4c.57-2.39-.03-6.19-1.31-7.93-1.87-2.56-5.47-3.48-9.27-3.12-.23,5.41.13,10.9.26,16.85,5.29.1,9.31-1.6,10.32-5.8h0ZM127.69,131.2c-.86-6.42-.43-12.37-.79-18.55-.02-.12.05-.13.13-.14.1-.03.13-.14.26-.14,2.73.45,6.24-.06,8.62,1.42,4.83,3,5.13,11.92.52,15.43-2.18,1.66-5.34,1.93-8.75,1.98h0Z"/>
    <path class="cls-3" d="M77.98,118.13c-1.26,3.88.64,9.15,3.62,10.68,2.33,1.19,5.85.66,7.37-.92,2.84-2.94,3.11-10.27.13-12.82-1.23-1.05-3.1-1.31-4.82-1.37,0-.09-.11-.17-.14,0-2.76.11-5.46,2.25-6.16,4.42h0ZM89.11,128.96c-2.36,1.08-5.43,2.01-7.77.92-.85-.4-2.71-2.27-3.35-3.51-1.48-2.83-1.77-7.24-.27-9.77.8-1.35,2.11-1.69,3.08-3.05,1.68-.35,2.99-1.16,4.56-1.07,3.64.22,6.64,3.41,6.97,7.63.28,3.62-1.55,6.62-3.22,8.85h0Z"/>
    <path class="cls-1" d="M119.14,113.44c1.2.1,2.08.19,2.87.14.99,5.29.64,11.21.39,16.14-1.54-.35-2.84-.05-3.92-.57-.93-.45-1.92-2.14-2.48-3.11-.58-1.01-1.07-2.1-1.7-3.12-.6-.97-.95-2.39-1.96-2.69-.45,3.01.36,6.21.26,9.06-1.14-.28-2.1-.06-3-.71-.09-4.35-.18-9.51-.13-14.44,1.03-.02,1.98-.66,2.74-.43,1.59.49,2.42,5.41,4.05,6.51.55,1.62,1.17,3.17,2.74,3.68.03-2.74,0-7.26.13-10.47h0Z"/>
    <path class="cls-3" d="M150.1,117.93c.15-4.35-5.17-4.25-8.08-4.05-.26,5.43.8,11.13.28,16.5.92-.07,2.02.12,2.55,0,.7-1.91-.88-4.45.57-4.95,1.89,1.35,2.6,3.94,4.25,5.55.98.03,1.63-.27,2.27-.6-1.12-3.02-3.28-4.93-4.54-7.8.96-1.61,2.62-2.42,2.69-4.65h0ZM148.54,122.58c1.45,3.02,3.73,5.16,4.82,8.55-1.6.23-2.65,1.08-4.54.75-.85-1.35-1.7-2.7-2.69-3.9-.04,1.63-.08,2.3-.14,3.6-2.1-.25-2.99.18-4.96-.45.62-5.44-.28-11.15-.29-17.7,2.51-1,8.09-.77,9.64,1.5,1.67,2.44.27,6.38-1.84,7.65h0Z"/>
    <path class="cls-3" d="M162.65,113.12c-1.52,2.01-1.8,5.29-2.89,7.73-1.19-.77-1.66-2.3-2.36-3.53-.73-1.27-1.61-2.48-2.37-3.66-1.12-.06-1.42-.15-2.63-.13.37,2.39,2.19,4.04,3.29,6.1.7,1.31,1.75,2.77,1.97,4.34.28,2.01-.54,4.56,0,7.06,1,.09,1.94.25,2.89.41-.04-1.09.12-2.23.13-3.52.01-1.38-.29-3.06,0-4.34.14-.63.78-1.06,1.05-1.63,1.31-2.77,2.53-6.21,3.81-8.68-.9-.17-2.07-.02-2.89-.14h0ZM166.59,112.72c-1.5,4.02-3.29,7.73-5.12,11.39,0,2.85.06,5.76-.26,8.27-1.63-.22-2.56-.53-4.2-.54-1.12-2.83.36-6.64-.66-9.22-1.41-3.56-4.38-6.71-5.65-10.17,1.51.25,3.22.29,4.6.67,1.4,2.04,2.67,4.2,3.94,6.37,1.16-2.06,1.47-4.99,2.63-7.05,1.63,0,3.61-.5,4.73.27h0Z"/>
    <path class="cls-1" d="M135.53,117.89c-1.04-1.63-3.94-2.87-5.88-1.7.28,3.79.35,7.47.26,11.19,5.05.9,8.22-5.39,5.62-9.49h0ZM128.35,130.2c-.13-5.95-.5-11.44-.26-16.85,3.81-.37,7.41.56,9.27,3.12,1.27,1.74,1.88,5.55,1.31,7.93-1.01,4.2-5.03,5.91-10.32,5.8h0Z"/>
    <path class="cls-1" d="M79.99,122.71c.47,2.24,3.06,3.76,5.09,3.51,2.85-.35,4.74-3.92,3.62-7.63-.47-1.56-2.73-3.06-5.23-2.6-2.13.4-4.29,2.91-3.48,6.71h0ZM84.15,113.71c.03-.17.14-.09.14,0,1.73.06,3.59.32,4.83,1.37,2.98,2.55,2.7,9.88-.14,12.82-1.52,1.57-5.05,2.11-7.37.92-2.98-1.53-4.88-6.8-3.62-10.68.7-2.18,3.41-4.31,6.16-4.42h0Z"/>
    <path class="cls-1" d="M145.28,120.93c1.12.1,2.59-1.09,2.55-2.4-.05-1.68-2.01-2.53-3.83-1.8.35,2.02-.63,4.03,1.28,4.2h0ZM147.4,122.58c1.26,2.87,3.42,4.78,4.54,7.8-.64.33-1.3.63-2.27.6-1.65-1.6-2.36-4.2-4.25-5.55-1.45.49.13,3.04-.57,4.95-.53.13-1.63-.07-2.55,0,.52-5.38-.54-11.07-.28-16.5,2.91-.19,8.23-.3,8.08,4.05-.08,2.23-1.73,3.04-2.69,4.65h0Z"/>
    <path class="cls-1" d="M165.54,113.26c-1.28,2.47-2.5,5.91-3.81,8.68-.27.57-.91,1-1.05,1.63-.29,1.28.01,2.96,0,4.34-.01,1.3-.17,2.43-.13,3.52-.95-.15-1.89-.31-2.89-.41-.54-2.5.28-5.05,0-7.06-.22-1.57-1.27-3.03-1.97-4.34-1.1-2.06-2.91-3.71-3.29-6.1,1.2-.01,1.5.07,2.63.13.76,1.18,1.63,2.39,2.36,3.66.7,1.23,1.18,2.75,2.36,3.53,1.09-2.45,1.37-5.73,2.89-7.73.82.12,1.99-.04,2.89.14h0Z"/>
    <path class="cls-3" d="M134.49,124.97c2.06-3.38.29-8.25-3.79-8.22.03,3.59.05,6.43.26,9.91,1.27-.01,2.44-1.05,3.53-1.7h0ZM129.91,127.37c.09-3.71.02-7.39-.26-11.19,1.93-1.17,4.84.07,5.88,1.69,2.61,4.1-.57,10.4-5.62,9.49h0Z"/>
    <path class="cls-3" d="M80.8,122.4c1.77,5.39,9.13,2.03,6.83-3.81-2.37-2.98-7.7-1.59-6.83,3.81h0ZM83.48,115.99c2.49-.47,4.76,1.03,5.23,2.6,1.12,3.71-.77,7.28-3.62,7.63-2.03.25-4.62-1.27-5.09-3.51-.81-3.8,1.35-6.32,3.48-6.71h0Z"/>
    <path class="cls-3" d="M144.85,119.88c1.22-.17,2.19-.58,2.13-2.1-.42-.3-1.34-.08-1.99-.15.02.82.02,1.61-.14,2.25h0ZM144,116.73c1.82-.73,3.78.12,3.83,1.8.04,1.31-1.44,2.5-2.55,2.4-1.91-.16-.93-2.18-1.28-4.2h0Z"/>
    <path class="cls-3" d="M95.58,123.85c-.25.06-.56.05-.52.42-.48,4.31,4.42,5.85,8.1,5.1,2.27-.47,2.19-6.1,2.35-8.92.12-2.12-.12-4.18-.39-6.37-.47-.07-1.41-.35-1.83,0,.22,2.47.2,6.98,0,9.91-.88,2.17-4.79,2.17-5.75.14-1.06-2.25.07-5.68-.26-8.21-.49-.14-.29.7-.65.28.02-.69.07-.47.26-.99.22,0,.07.39.26.42.14-.32.08-.85.26-1.13-.66-.09-1.72-.33-2.61-.56.43,2.98.04,6.71.78,9.91h0ZM94.39,113.3c.68-.09.86.36,2.37.09.85.14,1.2,0,1.69.6.38,2.98.14,5.83.26,9.29.48,1.1,2.39,1.81,3.01.28.37-.92.13-2.97.13-4.96,0-2.3.25-3.75.39-5.52,1.13-.25,2.57.06,3.66.57.43,3.17.85,8.73.13,12.6-.24,1.28-1,3.13-1.7,3.54-2.68,1.57-8.05-.41-9.54-2.41-1.13-2.92-.4-7.11-1.08-10.08.02-.16.04-1.18.04-1.1.08.35-.13-1.79.64-2.9h0Z"/>
    <path class="cls-1" d="M94.79,113.94c.89.23,1.95.47,2.61.56.24.41-.33,1.37.16,1.51,0,.03-.28-.04-.28,0,.29,2.52-.8,5.89.25,8.12.96,2.03,4.86,2.02,5.75-.14.2-2.93.22-7.44,0-9.91.41-.35,1.36-.07,1.83,0,.28,2.19.52,4.25.39,6.37-.16,2.82-.08,8.45-2.35,8.92-3.67.75-8.58-.79-8.1-5.1-.04-.37-.45-2.23-.2-2.29-.74-3.2.37-5.07-.06-8.05h0Z"/>
    <path class="cls-3" d="M64.58,92.68c1.66-.88,4.71.06,6.9-.65.35.59.28,1.54.1,2.16-.79.06-1.81-.13-2.44.11-.04.61.03,1.48-.2,2.27.73-.03,1.83.11,2.84.11-.02.7-.32,1.1-.51,1.62-1.91.04-4.29.04-6.19.11v-1.3c.52-.57,1.58-.55,2.64-.54.22-.63-.13-1.5,0-2.38-.93.09-1.62-.09-2.54.11-.39-.37-.73-1.02-.61-1.62h0Z"/>
    <path class="cls-3" d="M65.29,84.69c-.22.25.27.35.41.54-.34.75.04,1.76,0,2.81.61.34,1,.11,1.73.11,0-.52,0-2.11.51-2.05.53.3.28,1.43.51,2.05h1.22c.19-.7.49-1.85.2-2.7.38-.32.61-.79,1.42-.65.03,1.69.5,3.22,0,4.54-2.14.16-4.41.21-6.6.32-.02-1.79-.75-4.18.61-4.97h0Z"/>
    <path class="cls-3" d="M65.29,100.57c.36-.23.75-.42,1.01-.76.73.19.65,1.26.71,2.16,1.74.28,3.2-.04,4.98,0,.44.6-.11,1.14-.1,1.62-1.51.5-3.28,0-4.77.22-.19.56-.15,1.36-.51,1.73-.55-.08-.79.17-1.32.11-.02-1.73-.17-3.25,0-5.08h0Z"/>
  </g>
  <g>
    <polygon class="cls-4" points="27.18 82.46 4.54 115.6 5.67 117.02 48.86 115.52 33.34 87.03 28.72 81.63 27.18 82.46 27.18 82.46"/>
    <path class="cls-3" d="M26.06,86.75c-.81.36-.23-.82-1.05-.46-.39.13-.18.82-.99.57-.32,1.35-.64,2.69-1.9,3.18-.3,1.42.72,1.36,1.13,2-1.78,1.3-1.79,5.49-4.94,4.1.29.76,1.23.8,1.37,1.73-.68.35-1.18.48-1.51.59,1.09.89-.29.67-.71,1.32-1.09,1.7-1.69,4.38-3.61,4.81-.07,1.24-.52,2.14-1.69,2.39.65,1.33-.38.18-.73.81,1.65.31-1.05,1.13.09,1.79-1.82.38-1.38,2.83-2.65,3.73-.16-.44.24-1.52-.33-1.53,0,.4.08.89-.48.8-.27.84.84.15.56,1-1.06.26-.86,1.66-1.42,2.39,2.68-.59,7.02-.64,10-.5.04-.2-.02-.51.23-.53,9.95.91,17.88-.64,30.02-.97-.55-2.7-2.94-3.99-3.87-5.47-.31-2.28-2.46-2.51-2.56-5.01-1.15.17-.99-.91-.85-1.5-1.02.02-1.95-1.63-1.12-2-.8.43-.86-.15-1.56-.44-1.86-5.6-6.28-9.55-8.4-13.98.01.26-.44.34-.51.02.31-.04.6-.1.49-.53-.72.25-.68-.33-1.3-.19-1.24,1.73-1.79,4.09-3.86,5.07.54.88-.19,1.25-.67,1.84-.31-1.02-.06-2,.37-2.85.42-.01.17.71.55.75.06-1.1.94-3.2,1.69-2.14-.03-.35.09-.57.22-.78h0ZM41.04,98.6c1.52.22,1.12,2.55,2.71,2.7.04,1.66.9,2.44,1.95,2.98-.12,1.75.87,2.28,1.93,2.73.12.43-.18.49-.49.54.36.35,1.21.59.58,1.26.2-.15.41-.29.75-.3.12.52-.01.81-.47.8.51.65,1.99,2.05,1.15,2.51.26.43.83.53,1.56.44.14,2.1,1.3,3.08,1.29,5.34-.25-.15-.97-.55-.75.29-.46-.48-1.79-.01-1.85-.94-.57,1.01-1.76-.67-3.05.67-.78.13-.58-.81-.84-1.24-.73.26.37.63.07,1.28-.2-.17-.86-1.04-.77.04-3.58-.25-8.9-.27-12.07.08-.01-.25-.03-.51-.04-.77-1.16.68-2.51.82-3.59.18-.69,1-5.46,1.03-6.92.35-2.82,1.62-9.09.1-10.45,1.8-2.21-1.24-6.02.16-8.78-.85-.26-.81.17-.98.45-1.31-1.03-.04-.43-.19-.6-1.77,1.19-.39,1.68-1.4,1.66-2.91,1.19.19.52-1.32,1.74-1.11-.22-.78-.21-.48-.07-1.29,1.74.2.69-2.15,2.2-2.16-.18-.25-.6-.24-.55-.75,1.03.28.48-.87,1.51-.59-.02-.43-.04-.86-.06-1.28.22-.21.57-.3,1.01-.3,1.51-3.87,4.32-6.54,5.92-10.32.89-.01,1.16-.58.95-1.59.75.03.75-.62,1.51-.59.62-3.44,3.9-4.48,4.49-7.94,2.82-.63,2.14-4.42,4.88-5.12-.18-.25-.6-.24-.55-.74.85-.06,1.26-.5,2.3-.37,1.15.81-.3,1.32,1.34,1.21-1.06,1.16.33,4.55,1.49,4.04.38.07.07,1.94,1.37,1.74-.14.79.32.92.34,1.52,3.29,2.75,3.93,8.46,7.24,11.21.11.43-.17.49-.49.54h0Z"/>
    <text class="cls-5" transform="translate(17.63 111.49) scale(.79 1)"><tspan x="0" y="0">29</tspan></text>
  </g>
</svg>