<?xml version="1.0" encoding="UTF-8"?>
<svg id="Layer_1" data-name="Layer 1" xmlns="http://www.w3.org/2000/svg" xmlns:xlink="http://www.w3.org/1999/xlink" viewBox="0 0 180 200">
  <defs>
    <style>
      .cls-1, .cls-2 {
        fill: none;
      }

      .cls-3 {
        fill: #231f20;
      }

      .cls-3, .cls-4 {
        fill-rule: evenodd;
      }

      .cls-5, .cls-6 {
        fill: #fff;
      }

      .cls-2 {
        stroke: #004026;
        stroke-miterlimit: 10;
        stroke-width: 1.31px;
      }

      .cls-7 {
        fill: #094737;
      }

      .cls-4 {
        fill: #00a14b;
      }

      .cls-8 {
        clip-path: url(#clippath);
      }

      .cls-6 {
        font-family: AmericanTypewriter-Bold, 'American Typewriter';
        font-size: 23.14px;
        font-weight: 700;
        letter-spacing: .02em;
      }
    </style>
    <clipPath id="clippath">
      <rect class="cls-1" x="56" y="75.85" width="118.14" height="38.93"/>
    </clipPath>
  </defs>
  <g>
    <g>
      <path class="cls-5" d="M107.38,86.12c.65,1.03,1.23,1.97,1.85,2.88.2.29.49.55.8.7.64.33,1.32.59,1.96.87.36-.15.69-.28,1.05-.43.03-.11.09-.24.09-.37.02-.98-.01-1.96.05-2.94.05-.74-.14-1.38-.49-1.99-.35-.6-.69-1.2-1.04-1.8-.49-.85-1.02-1.66-1.99-1.99-.28-.09-.44-.29-.44-.62.01-.4.26-.55.58-.66,1.16-.37,2.29-.2,3.38.09.19.66-.4.74-.58,1.12.33,1.23,1.29,2.08,1.92,3.23.88-.85,1.3-1.97,1.87-3.1-.09-.12-.22-.24-.28-.39-.18-.45-.06-.82.33-.85,1.02-.1,2.04-.16,3.11.3-.16.29-.23.57-.38.65-.73.37-1.14,1.04-1.58,1.69-.49.73-.9,1.51-1.41,2.22-.63.86-.85,1.83-.88,2.87-.02.79,0,1.58,0,2.47.57.27,1.46.1,1.7,1.02-.29.37-.68.46-1.08.45-1.21-.05-2.41-.12-3.62-.18-.17,0-.41-.05-.5.05-.56.58-1.18.32-1.78.17-.56-.14-1.11-.37-1.66-.58-.97-.37-1.7-1.01-2.12-2.02-.16-.38-.38-.74-.61-1.08-.26-.39-.59-.71-1.14-.7-.62.82-.34,1.74-.31,2.63q1.3.37,1.1,1.45c-.72.08-1.47.17-2.23.24-.67.06-1.35.06-2.02.16-1.77.24-3.19-.44-4.29-1.82-.63-.78-1.1-1.69-1.75-2.7-.25-.04-.68-.12-1.13-.2-.4,1.12.05,2.09.17,3.14.32.15.65.29.95.46.1.06.21.24.18.34-.03.16-.14.37-.27.42-.29.12-.61.2-.91.2-1.98.04-3.95.06-5.93.07-.25,0-.49-.14-.82-.24.32-1.16-.24-2.09-.55-3.09-.17-.54-.54-.74-1.03-.71-.53.04-1.06.14-1.64.22-.19.55-.37,1.08-.54,1.6-.16.46-.22.84.27,1.22.35.27.17.72-.25.81-.17.04-.35.05-.53.03-.67-.04-1.35-.08-2.01-.16-.28-.03-.55-.18-1.02-.34.35-.34.53-.66.77-.73.91-.27,1.22-1.01,1.51-1.82.86-2.4,1.73-4.8,2.62-7.19.2-.55.38-1.15,1.02-1.4.61.31.74.92.93,1.48.33.96.63,1.94.97,2.9.49,1.35,1,2.7,1.54,4.03.24.6.5,1.21.87,1.73.44.62,1.27.45,1.47-.28.16-.57.22-1.19.21-1.79-.02-1.73-.1-3.45-.14-5.18-.02-.77-.06-1.47-.85-1.9-.38-.21-.31-.75.1-.86.51-.15,1.05-.23,1.58-.23.8,0,1.61.12,2.41.16,1.03.05,1.91.47,2.67,1.18.43.4.64.88.65,1.48.01.76-.08,1.49-.42,2.17-.25.49-.5.99-.77,1.49.51,1.16,1.03,2.29,1.91,3.2.84.86,1.81,1.15,2.96.77.04-.25.11-.48.11-.71.02-2.43.04-4.85.05-7.28,0-.6-.08-1.12-.81-1.23-.09-.01-.23-.41-.18-.57.06-.16.32-.34.49-.34,1.21.01,2.42.1,3.63.09.8,0,1.49.24,2.19.57.8.37,1.13,1.02,1.2,1.87.07.86-.06,1.68-.52,2.42-.24.39-.5.77-.77,1.19ZM104.1,85.46c.98.04,1.8.05,2.19-1.03.38-1.04.09-1.91-.52-2.71-.44-.58-1.01-.7-1.7-.31-.33,1.33-.16,2.65.02,4.05ZM93.84,81.25c0,.78-.02,1.47,0,2.16.03.67-.18,1.37.14,2.01,1.59.11,2.31-.45,2.35-1.76.04-1.69-.69-2.47-2.49-2.42ZM84.65,85.92c.55-.11.87-.18,1.22-.25-.16-.64-.18-1.21-.6-1.84-.22.74-.39,1.3-.63,2.1Z"/>
      <path class="cls-5" d="M97.02,112.26c-.16.03-.33.09-.5.09-1.35.01-2.69.02-4.04,0-.55,0-1.06-.11-1.31-.79.51-.59,1.23-.76,1.95-1.1-.11-.97-.24-1.93-.31-2.89-.07-.97-.07-1.94-.1-2.92-1.46-.05-2.79-.14-4.12-.13-.98,0-1.96.15-2.91.22-.26,1.15-.26,4.11-.04,5.08.14.61.34,1.15.88,1.52.16.11.25.34.43.6-.26.15-.44.32-.63.34-1.07.13-2.14.22-3.22.32-.18.02-.36.02-.54,0-.4-.06-.73-.42-.76-.86-.03-.44.18-.73.6-.78,1.01-.11,1.22-.86,1.22-1.7,0-1.68-.03-3.36-.12-5.04-.09-1.54-.26-3.07-.42-4.6-.05-.51-.17-1.01-.26-1.48-.38-.2-.8-.3-1.03-.58-.15-.18-.03-.61-.03-.98,1.21-.24,2.37-.08,3.52-.05.49.01.98.09,1.46.19.15.03.37.22.37.34,0,.2-.1.44-.23.6-.1.13-.32.16-.47.25-.44.24-.65.61-.65,1.13,0,1.3,0,2.6,0,3.95,1.11.41,2.2,0,3.24.24,1.02.25,2.04.14,3.13.11.34-.93.26-1.86.35-2.78.08-.87.13-1.74.2-2.65-.41-.1-.72-.13-1-.26-.18-.08-.42-.31-.42-.47,0-.24.13-.61.31-.7.39-.19.85-.35,1.28-.34.98.03,1.97.14,2.94.28.21.03.49.27.57.48.12.32-.02.64-.38.77-.17.06-.34.1-.61.19-.1,1.19-.24,2.38-.28,3.59-.08,2.42-.1,4.85-.15,7.28,0,.19,0,.37.01.56.07,1.03.21,1.2,1.26,1.45.9.22.97.35.84,1.52Z"/>
      <path class="cls-5" d="M97.27,104.23c-.15-4.04,2.71-7.02,5.51-7.91.5-.16,1.07-.28,1.58-.2,1.6.23,3.17.59,4.63,1.37,1.39.74,2.29,1.89,2.78,3.43.53,1.69.64,3.37.06,5.07-.39,1.13-.45,2.38-1.17,3.4-.5.71-.98,1.44-1.45,2.18-.31.49-.83.61-1.28.67-1.37.19-2.72.39-4.13.2-3.12-.42-6.83-4.1-6.52-8.2ZM99.75,104.06c-.02.86-.04,1.66.36,2.38.33.61.61,1.25.98,1.83.5.77,1.03,1.52,1.91,1.9,2.01.85,4.75.2,5.71-2.78.71-2.22.67-4.53-.11-6.72-.51-1.44-1.45-2.48-3.09-2.77-.97-.17-1.75.18-2.6.43-1,.31-1.71.99-2.2,1.93-.63,1.21-1.01,2.48-.96,3.8Z"/>
      <path class="cls-5" d="M67.41,91.78c-1.22.07-2.2.19-3.18.18-3.43-.06-5.32-3.09-5.4-5.84-.05-1.57.35-3.04,1.3-4.32.96-1.29,2.14-2.13,3.79-1.96.85.09,1.71.12,2.53.34,1.31.35,2.27,1.16,2.91,2.47,1.13,2.31.9,4.49-.3,6.65-.13.24-.28.48-.41.7.19.67.71.96,1.24,1.23,1.35.67,2.81.91,4.26,1.22,1.58.34,3.11.24,4.64-.27.11-.04.26.02.38.03.26.35.09.63-.12.87-.66.77-1.54,1.18-2.49,1.25-1.34.11-2.69.09-4.03.07-.43,0-.89-.17-1.29-.35-1.41-.6-2.82-1.21-3.83-2.27ZM68.29,85.77c.01-.85-.09-1.68-.57-2.39-.63-.94-1.48-1.63-2.49-2.06-.68-.29-1.43-.24-2.07.17-1.2.77-2.07,1.79-2.02,3.38.02.7-.02,1.4.08,2.09.28,2.05,2.46,3.21,3.83,2.92,2.17-.46,3.24-1.79,3.26-4.11Z"/>
      <path class="cls-5" d="M124.12,97.98c-.53-.25-1.14-.17-1.08-.86.05-.54.51-.61.9-.68,1.2-.23,2.39-.22,3.56.29.09.97-.61,1.19-1.21,1.52-.03.38-.06.75-.08,1.12-.14,2.7-.27,5.4-.42,8.1-.03.6-.18,1.2-.26,1.8-.16,1.19-.85,1.95-1.87,2.36-1.91.77-3.87.69-5.81.17-1.03-.28-1.65-.96-1.97-2.07-.38-1.3-.68-2.6-.78-3.96-.14-2.05-.3-4.09-.47-6.13-.04-.5-.14-.99-.2-1.43-1.58-.49-1.6-.54-.91-1.83,1.28,0,2.62,0,3.96,0,.51,0,.98.12,1.18.7q-.5.52-1.47.8c-.33.47-.38,1.03-.36,1.59.08,2.33.14,4.66.28,6.99.06.98.33,1.92.8,2.8.31.58.72.95,1.4.87.84-.09,1.69-.18,2.53-.27.99-.11,1.46-.81,1.74-1.71.08-.26.15-.54.17-.82.19-2.6.37-5.2.53-7.81.03-.5-.08-1.01-.13-1.54Z"/>
      <path class="cls-5" d="M138.75,98.23c-.37-.09-.63-.15-.89-.21-.34-.08-.61-.24-.58-.64.03-.42.26-.67.68-.73.49-.06.98-.2,1.46-.2,2.2-.02,4.4,0,6.67,0-.02.39-.05.79-.07,1.18-.02.37-.03.75-.07,1.12-.04.35-.19.62-.56.69-.4.08-.72-.06-.9-.44-.15-.33-.26-.68-.42-1.09-.98.02-1.95-.28-2.98.3-.1,1.45-.15,2.92.02,4.44.72.33,1.39.28,2.09-.02.65-.27,1.27-.71,2.17-.58.01,1.15.04,2.31.03,3.46,0,.2-.19.39-.36.69-.29-.23-.58-.37-.74-.61-.32-.5-.52-1.15-1.16-1.28-.66-.14-1.34-.16-2.07.28-.05.34-.18.74-.16,1.14.06,1.3.13,2.61.26,3.9.08.81.37,1.05,1.16,1.03.71-.02,1.42-.16,2.03-.23.46-.56.82-1.04,1.23-1.47.13-.13.44-.19.6-.12.16.07.31.35.31.54,0,.93-.15,1.85-.46,2.75-.18.06-.35.16-.52.17-2.55.08-5.11.15-7.66.21-.07,0-.14-.1-.23-.16-.23-.59.04-1.06.53-1.24,1.24-.46,1.35-1.4,1.23-2.56-.19-1.85-.31-3.72-.43-5.58-.07-1.07-.08-2.15-.13-3.22-.02-.5-.07-1-.11-1.51Z"/>
      <path class="cls-5" d="M135.73,96.69c0,.89,0,1.77,0,2.65,0,.17-.1.34-.16.56-1.38-.22-1.12-1.38-1.28-2.32-.89-.27-1.69-.1-2.4.48-.85.69-1.02,1.62-.48,2.61.58,1.08,1.38,1.96,2.33,2.69.88.67,1.63,1.46,2.23,2.41,1.02,1.61.91,3.46-.3,4.9-1.6,1.91-3.7,2.38-5.99,2.13-1.13-.13-1.56-.7-1.63-1.86-.04-.74-.11-1.49.14-2.33.27.15.54.22.68.4.32.39.57.83.86,1.25.33.5.78.73,1.37.75,1.05.03,1.94-.32,2.64-1.14.47-.54.58-1.14.28-1.81-.42-.94-.94-1.8-1.69-2.5-.57-.53-1.13-1.07-1.67-1.63-1.3-1.32-1.89-2.91-1.7-4.81.13-1.32.71-2.28,1.91-2.81,1.4-.61,3.34-.51,4.86.38Z"/>
      <path class="cls-5" d="M145.21,85.22c.31,2.81-1.31,4.69-3.46,6.16-1.34.92-2.85.7-4.25.06-.69-.31-1.34-.78-1.91-1.29-1.34-1.23-1.83-2.81-1.64-4.65.14-1.33.56-2.53,1.34-3.6.9-1.24,1.97-2.11,3.53-2.24,2.38-.19,4.32.59,5.74,2.61.58.82.74,1.79.65,2.94ZM136.21,85.27c.01,1.29.22,2.42.75,3.47.64,1.26,2.67,1.94,3.86,1.3,1.49-.79,2.53-2.98,2.26-4.72-.26-1.68-1.2-2.86-2.53-3.77-.83-.57-1.69-.76-2.84.12-1.21.92-1.5,2.25-1.5,3.59Z"/>
      <path class="cls-5" d="M78.43,81.54c-.38-.5-1.14-.38-1.02-1.23.97-.6,2.1-.51,3.2-.45.26.01.51.25.78.4-.98,1.26-.93,1.26-.97,2.95-.04,1.72-.14,3.45-.3,5.16-.05.58-.33,1.16-.56,1.71-.54,1.24-1.55,1.75-2.8,1.82-.58.03-1.17,0-1.75-.05-1.71-.14-2.88-1.01-3.27-2.79-.24-1.09-.42-2.2-.52-3.31-.08-.92.02-1.86.03-2.8,0-.6,0-1.19,0-1.81-.41-.1-.71-.18-1.03-.26-.19-.41-.12-.79.26-.94.45-.18.95-.33,1.42-.32.76.02,1.51.17,2.26.31.18.03.38.23.46.4.05.1-.09.42-.2.45-.6.21-.63.73-.68,1.24-.12,1.21-.26,2.41-.35,3.62-.08,1.03.01,2.05.43,3.02.42.98,1,1.34,2.15,1.3,1.15-.04,1.72-.4,2.01-1.48.23-.85.39-1.73.44-2.61.07-1.48.02-2.98.02-4.33Z"/>
      <path class="cls-5" d="M146.76,79.7c.56-.24.75.14.97.41,1.34,1.63,2.67,3.27,4,4.91.52.64,1.03,1.29,1.57,1.92.2.23.44.41.77.71.06-.31.13-.48.13-.64-.03-1.54-.05-3.08-.12-4.61-.05-1.06-.09-1.06-.78-1.76.02-.51.44-.56.76-.63.93-.2,1.85-.17,2.86.27-.18.28-.27.57-.46.67-.43.24-.53.6-.52,1.04,0,.37.03.75.03,1.12.01,1.07.04,2.15.03,3.22-.02,1.72-.07,3.43-.12,5.28-1.16-.45-1.73-1.43-2.51-2.14-.78-.71-1.56-1.41-2.32-2.13-.79-.75-1.55-1.53-2.4-2.37-.06.18-.17.37-.18.56-.04,1.07-.11,2.15-.07,3.21.05,1.28.11,1.31,1.03,2.17-.13.12-.24.3-.38.32-.8.09-1.61.14-2.42.19-.17.01-.37-.02-.52-.09-.15-.08-.33-.22-.36-.37-.03-.14.08-.37.2-.46.21-.16.47-.25.72-.39,0-1.55,0-3.08,0-4.62,0-1.54-.03-3.08-.03-4.62,0-.4.07-.81.1-1.16Z"/>
      <path class="cls-5" d="M158.13,81.18c-.29-.15-.56-.24-.75-.41-.11-.09-.16-.35-.12-.5.04-.14.24-.34.37-.33,1.92.09,3.84-.31,5.74-.04.38,1.52.29,1.97-.54,2.47-.42-.89-.99-1.57-2.17-.98-.4.97-.48,2.03-.11,3.14,1,.47,1.81-.53,2.81-.31.15,1.06.24,2.07-.69,3.01-.21-.35-.36-.61-.57-.96-.52.1-1.08.21-1.65.31-.45,1.15.12,2.15.12,3.25,1.31.28,2.31-.39,3.33-.89q.36.59-.04,2.48c-.53.03-1.1.08-1.66.1-1.3.04-2.6.09-3.91.1-.42,0-.91.08-1.2-.52.1-.12.19-.31.33-.38.72-.34.89-.92.88-1.7-.04-1.96,0-3.92-.02-5.88,0-.65-.09-1.3-.13-1.94Z"/>
      <path class="cls-5" d="M132.39,90.76c-.11.59-.36.92-.91.91-1.03-.02-2.06-.05-3.09-.08-.09,0-.2,0-.26-.04-.13-.11-.27-.23-.33-.38-.04-.09.04-.3.13-.37.29-.21.6-.38.9-.56.19-.99.21-7.32.02-8.82-.55-.37-1.21-.36-1.77-.16-.5.18-.9.67-1.35,1.04q-.37-.98.02-2.32c.44-.28.97-.36,1.51-.36,2.38-.02,4.75-.03,7.13-.03.12,0,.25.09.42.16-.05.64-.1,1.28-.15,1.92-.03.36-.2.61-.56.69-.38.08-.59-.11-.72-.45-.07-.17-.15-.34-.25-.58h-2.03c-.29.71-.23,1.51-.26,2.28-.04,1.21-.02,2.42-.01,3.63q0,2.12,1.57,3.51Z"/>
      <path class="cls-5" d="M124.77,79.9c.15,1.06.47,1.93-.35,2.6-.16-.08-.28-.1-.3-.16-.34-.97-1.09-.98-1.88-.89-.68.09-1.01.56-.68,1.17.34.64.81,1.22,1.3,1.75.4.43.92.74,1.37,1.12,1.74,1.45,1.53,4.23-.37,5.46-1.2.77-2.48.73-3.77.61-.24-.02-.54-.34-.66-.59-.47-1.01-.27-1.96.36-3.07.21.38.37.58.43.81.17.64.61,1.02,1.13,1.32.94.55,1.93-.05,1.97-1.19.02-.66-.18-1.17-.7-1.57-.58-.44-1.14-.91-1.67-1.4-1.31-1.23-1.54-2.32-.9-4.01.48-1.26,1.33-1.95,2.66-1.96.66,0,1.32,0,2.09,0Z"/>
      <path class="cls-7" d="M104.1,85.46c-.18-1.4-.35-2.73-.02-4.05.68-.38,1.26-.26,1.7.31.6.8.89,1.67.52,2.71-.39,1.08-1.21,1.07-2.19,1.03Z"/>
      <path class="cls-7" d="M93.84,81.25c1.8-.05,2.54.72,2.49,2.42-.03,1.31-.76,1.87-2.35,1.76-.31-.64-.11-1.34-.14-2.01-.03-.69,0-1.38,0-2.16Z"/>
      <path class="cls-7" d="M84.65,85.92c.24-.8.41-1.35.63-2.1.41.64.43,1.21.6,1.84-.36.07-.67.14-1.22.25Z"/>
      <path class="cls-7" d="M99.75,104.06c-.05-1.32.32-2.6.96-3.8.49-.94,1.2-1.62,2.2-1.93.84-.26,1.62-.6,2.6-.43,1.64.28,2.57,1.33,3.09,2.77.78,2.2.82,4.5.11,6.72-.95,2.98-3.7,3.64-5.71,2.78-.88-.37-1.42-1.12-1.91-1.9-.37-.58-.65-1.22-.98-1.83-.39-.73-.38-1.52-.36-2.38Z"/>
      <path class="cls-7" d="M68.29,85.77c-.02,2.31-1.09,3.65-3.26,4.11-1.36.29-3.54-.87-3.83-2.92-.09-.69-.06-1.39-.08-2.09-.05-1.59.82-2.61,2.02-3.38.64-.41,1.39-.46,2.07-.17,1.01.43,1.86,1.12,2.49,2.06.49.72.58,1.54.57,2.39Z"/>
      <path class="cls-7" d="M136.21,85.27c0-1.35.29-2.67,1.5-3.59,1.16-.88,2.02-.69,2.84-.12,1.33.91,2.26,2.09,2.53,3.77.27,1.73-.77,3.92-2.26,4.72-1.19.63-3.22-.04-3.86-1.3-.53-1.05-.74-2.18-.75-3.47Z"/>
      <g class="cls-8">
        <path class="cls-7" d="M371.1,75.87c0-.51-.53-.99-.53-1.51,0-.3-.06-.61-.08-.81-2.57.14-5.04.24-7.5.43-2.34.18-4.67.16-7-.09-.67-.07-1.34-.18-2.01-.2-3.42-.12-6.83-.28-10.25-.29-6.03-.02-12.05-.08-18.08.25-4.58.24-9.17.21-13.76.31-.94.02-1.88.11-2.83.17-1.88.13-3.76.33-5.65.39-3.28.1-6.56.1-9.85.16-2.56.05-5.13.07-7.69.21-2.39.13-4.76.11-7.15,0-1.88-.09-3.78-.02-5.66-.02-1.17,0-2.34.07-3.5.02-2.02-.09-4.04-.29-6.06-.38-2.92-.14-5.84-.28-8.76-.32-3.19-.04-6.39-.01-9.58.08-3.37.1-6.73.4-10.1.45-3.14.05-6.29-.1-9.44-.18-2.16-.05-4.32-.12-6.47-.21-3.23-.14-6.47-.34-9.7-.44-1.48-.05-2.99-.09-4.44.17-3.38.6-6.79.78-10.2.94-4.37.2-8.72-.24-13.07-.55-2.73-.19-5.47-.34-8.21-.47-.81-.04-1.62.07-2.43.05-4.45-.12-8.9-.27-13.35-.4-1.3-.04-2.61-.05-3.91-.08-4.58-.13-9.17-.33-13.75-.38-3.06-.04-6.11.16-9.17.19-5.76.05-11.51.06-17.27.08-.27,0-.54.02-.81.03-4.86.12-9.71.24-14.57.37-3.42.09-6.83.19-10.25.32-2.11.08-4.22.28-6.33.32-2.65.05-5.31,0-7.96-.03-1.03,0-2.07-.03-3.1-.04-1.75-.02-3.5-.05-5.26-.07-1.39-.02-2.79-.06-4.18-.03-1.93.04-3.86.13-5.79.21-1.03.04-2.07.08-3.1.15-.29.02-.58.14-.9.22,0,.45-.01.82,0,1.18.13,3.36.3,6.72.4,10.08.16,5.6.33,11.21.4,16.82.09,7.01.11,14.02.13,21.03.01,5.05-.03,10.09-.04,15.14,0,.5-.12,1.02.11,1.46.14.05.15,1.56.23,1.57,2.82.09,5.72-1.23,8.54-1.22,3.64,0,6.98,1.02,10.63,1,7.65-.05,15.59-1.2,23.24-1.24.47,0,.94-.04,1.55-.07-.92-1.94-1.14-3.78-.41-5.72-.42-.06-.76-.12-1.18-.18.11-1.14-.88-1.94-.75-3,.75-1.14,2.17-.71,3.03-1.65.03-.96.04-1.98.09-3.01.04-1.02.08-2.04.19-3.06.09-.84.35-1.11,1.08-1.2,1.15-.15,2.32-.28,3.48-.31,1.17-.04,2.34.1,3.51.08,1.52-.03,3.05-.14,4.57-.23.75-.05,1.5-.2,2.34.12-.06.38-.08.74-.16,1.09-.22.92-.19,1.85-.1,2.78.06.69.03,1.39.06,2.08,0,.25.07.5.13.92,1.55-.87,2.96-1.66,4.29-2.41.62-2.23,1.2-4.34,1.8-6.44.09-.31.22-.61.38-.89.59-1.05,1.42-1.68,2.64-1.56.44.04.88.1,1.33.16,1.44-1.6,2.79-.94,3.88.63.13-.32.43-.52.05-.86-.22-.19-.39-.44-.67-.77.78-.31,1.46-.5,1.93-1.09.09-.11.34-.1.52-.1.44,0,.88.03,1.32.04.19.55.24,1.03.77,1.31.49.26.42.8-.08.91-.6.13-.89.59-1.4.99.2.24.33.44.5.58.7.58.92,1.33.85,2.23-.03.44.04.88.06,1.36q1.52-.65,2.45-.55c.1.26.21.56.32.85.94.61,2.16.57,3.08,1.33-.37.63-.87.52-1.34.45-.62-.09-1.24-.18-1.85-.34-.97-.24-1.78-.15-2.6.59-.74.66-1.42.36-1.92-.59-.06-.12-.15-.23-.26-.39-.33.24-.65.47-.97.7.08.31.13.54.19.76.44,1.59.59,3.21.41,4.85-.08.75-.2,1.48-.81,2.02-.13.11-.27.32-.25.46.09.66-.36,1.01-.65,1.47-.44.71-.82,1.45-1.19,2.19-.11.22-.08.52-.11.79.44.33,1.18.29,1.08,1.14-.92.35-1.79.39-2.72-.26.19-.75.41-1.46.55-2.18.15-.75.67-1.44.44-2.32-.8.12-1.38,1.03-2.34.55-.12-.92.79-1.71.38-2.84-.74,1.1-1.37,2.12-2.09,3.06-.76.98-1.49,1.97-2,3.12.27.2.52.38.77.58-.31.69-.85.92-1.44.97-.49.05-.99.02-1.48-.02-.45-.04-.75.13-1.02.7,21.36-.06,42.57-.16,63.79-.32,21.23-.15,42.46-.24,63.69-.34,21.23-.11,42.46-.2,63.69-.31,21.21-.11,43.53-.24,64.82-.37.03-.58-.32-1.86-.32-2.32,0-2.99.09-5.99.12-8.98.04-3.46-.09-6.02-.06-9.48.03-2.48-.54-5.02-.64-7.49-.18-4.34.36-9.04.21-13.39-.11-3.22-.43-5.94-.17-9.16.33-4.09.67-8.36.68-12.47ZM138.83,79.67c2.38-.19,4.32.59,5.74,2.61.58.82.74,1.79.65,2.94.31,2.81-1.31,4.69-3.46,6.16-1.34.92-2.85.7-4.25.06-.69-.31-1.34-.78-1.91-1.29-1.34-1.23-1.83-2.81-1.64-4.65.14-1.33.56-2.53,1.34-3.6.9-1.24,1.97-2.11,3.53-2.24ZM120.02,81.85c.48-1.26,1.33-1.95,2.66-1.96.66,0,1.32,0,2.09,0,.15,1.06.47,1.93-.35,2.6-.16-.08-.28-.1-.3-.16-.34-.97-1.09-.98-1.88-.89-.68.09-1.01.56-.68,1.17.34.64.81,1.22,1.3,1.75.4.43.92.74,1.37,1.12,1.74,1.45,1.53,4.23-.37,5.46-1.2.77-2.48.73-3.77.61-.24-.02-.54-.34-.66-.59-.47-1.01-.27-1.96.36-3.07.21.38.37.58.43.81.17.64.61,1.02,1.13,1.32.94.55,1.93-.05,1.97-1.19.02-.66-.18-1.17-.7-1.57-.58-.44-1.14-.91-1.67-1.4-1.31-1.23-1.54-2.32-.9-4.01ZM79.06,93.08c-.66.77-1.54,1.18-2.49,1.25-1.34.11-2.69.09-4.03.07-.43,0-.88-.17-1.29-.35-1.41-.6-2.82-1.21-3.83-2.27-1.22.07-2.2.19-3.18.18-3.43-.06-5.32-3.09-5.4-5.84-.05-1.57.35-3.04,1.3-4.32.96-1.29,2.14-2.13,3.79-1.96.85.09,1.71.12,2.53.34,1.31.35,2.27,1.16,2.91,2.47,1.13,2.31.9,4.49-.3,6.65-.13.24-.28.48-.41.7.19.67.71.96,1.24,1.23,1.35.67,2.81.91,4.26,1.22,1.58.34,3.11.24,4.64-.27.11-.04.26.02.38.03.26.35.09.63-.12.87ZM76.76,91.89c-.58.03-1.17,0-1.75-.05-1.71-.14-2.88-1.01-3.27-2.79-.24-1.09-.42-2.2-.52-3.31-.08-.92.02-1.86.03-2.8,0-.6,0-1.19,0-1.81-.41-.1-.71-.18-1.03-.26-.19-.41-.12-.79.26-.94.45-.18.95-.33,1.42-.32.76.02,1.51.17,2.26.31.18.03.38.23.46.4.05.1-.09.42-.2.45-.6.21-.63.73-.68,1.24-.12,1.21-.26,2.41-.35,3.62-.08,1.03.01,2.05.43,3.02.42.98,1,1.34,2.15,1.3,1.15-.04,1.72-.4,2.01-1.48.23-.85.39-1.73.44-2.61.07-1.48.02-2.98.02-4.33-.38-.5-1.14-.38-1.02-1.23.97-.6,2.1-.51,3.2-.45.26.01.51.25.78.4-.98,1.26-.93,1.26-.97,2.95-.04,1.72-.14,3.45-.3,5.16-.05.58-.33,1.16-.56,1.71-.54,1.24-1.55,1.75-2.8,1.82ZM97.02,112.26c-.16.03-.33.09-.5.09-1.35.01-2.69.02-4.04,0-.55,0-1.06-.11-1.31-.79.51-.59,1.23-.76,1.95-1.1-.11-.97-.24-1.93-.31-2.89-.07-.97-.07-1.94-.1-2.92-1.46-.05-2.79-.14-4.12-.13-.98,0-1.96.15-2.91.22-.26,1.15-.26,4.11-.04,5.08.14.61.34,1.15.88,1.52.16.11.25.34.43.6-.26.15-.44.32-.63.34-1.07.13-2.14.22-3.22.32-.18.02-.36.02-.54,0-.4-.06-.73-.42-.76-.86-.03-.44.18-.73.6-.78,1.01-.11,1.22-.86,1.22-1.7,0-1.68-.03-3.36-.12-5.04-.09-1.54-.26-3.07-.42-4.6-.05-.51-.17-1.01-.26-1.48-.38-.2-.8-.3-1.03-.58-.15-.18-.03-.61-.03-.98,1.21-.24,2.37-.08,3.52-.05.49.01.98.09,1.46.19.15.03.37.22.37.34,0,.2-.1.44-.23.6-.1.13-.32.16-.47.25-.44.24-.65.61-.65,1.13,0,1.3,0,2.6,0,3.95,1.11.41,2.2,0,3.24.24,1.02.25,2.04.14,3.13.11.34-.93.26-1.86.35-2.78.08-.87.13-1.74.2-2.65-.41-.1-.72-.13-1-.26-.18-.08-.42-.31-.42-.47,0-.24.13-.61.31-.7.39-.19.85-.35,1.28-.34.98.03,1.97.14,2.94.28.21.03.49.27.57.48.12.32-.02.64-.38.77-.17.06-.34.1-.61.19-.1,1.19-.24,2.38-.28,3.59-.08,2.42-.1,4.85-.15,7.28,0,.19,0,.37.01.56.07,1.03.21,1.2,1.26,1.45.9.22.97.35.84,1.52ZM111.82,105.98c-.39,1.13-.45,2.38-1.17,3.4-.5.71-.98,1.44-1.45,2.18-.31.49-.83.61-1.28.67-1.37.19-2.72.39-4.13.2-3.12-.42-6.83-4.1-6.52-8.2-.15-4.04,2.71-7.02,5.51-7.91.5-.16,1.07-.28,1.58-.2,1.6.23,3.17.59,4.63,1.37,1.39.74,2.29,1.89,2.78,3.43.53,1.69.64,3.37.06,5.07ZM112.28,91.36c-.17,0-.41-.05-.5.05-.56.58-1.18.32-1.78.17-.56-.14-1.11-.37-1.66-.58-.97-.37-1.7-1.01-2.12-2.02-.16-.38-.38-.74-.61-1.08-.26-.39-.59-.71-1.14-.7-.62.82-.34,1.74-.31,2.63q1.3.37,1.1,1.45c-.72.08-1.47.17-2.23.24-.67.06-1.35.06-2.02.16-1.77.24-3.19-.44-4.29-1.82-.63-.78-1.1-1.69-1.75-2.7-.25-.04-.68-.12-1.13-.2-.4,1.12.05,2.09.17,3.14.32.15.65.29.95.46.1.06.21.24.18.34-.03.16-.14.37-.27.42-.29.12-.61.2-.91.2-1.98.04-3.95.06-5.93.07-.25,0-.49-.14-.82-.24.32-1.16-.24-2.09-.55-3.09-.17-.54-.54-.74-1.03-.71-.53.04-1.06.14-1.64.22-.19.55-.37,1.08-.54,1.6-.16.46-.22.84.27,1.22.35.27.17.72-.25.81-.17.04-.35.05-.53.03-.67-.04-1.35-.08-2.01-.16-.28-.03-.55-.18-1.02-.34.35-.34.53-.66.77-.73.91-.27,1.22-1.01,1.51-1.82.86-2.4,1.73-4.8,2.62-7.19.2-.55.38-1.15,1.02-1.4.61.31.74.92.93,1.48.33.96.63,1.94.97,2.9.49,1.35,1,2.7,1.54,4.03.24.6.5,1.21.87,1.73.44.62,1.27.45,1.47-.28.16-.57.22-1.19.21-1.79-.02-1.73-.1-3.45-.14-5.18-.02-.77-.06-1.47-.85-1.9-.38-.21-.31-.75.1-.86.51-.15,1.05-.23,1.58-.23.8,0,1.61.12,2.41.16,1.03.05,1.91.47,2.67,1.18.43.4.64.88.65,1.48.01.76-.08,1.49-.42,2.17-.25.49-.5.99-.77,1.49.51,1.16,1.03,2.29,1.91,3.2.84.86,1.81,1.15,2.96.77.04-.25.11-.48.11-.71.02-2.43.04-4.85.05-7.28,0-.6-.08-1.12-.81-1.23-.09-.01-.23-.41-.18-.57.06-.16.32-.34.49-.34,1.21.01,2.42.1,3.63.09.8,0,1.49.24,2.19.57.8.37,1.13,1.02,1.2,1.87.07.86-.06,1.68-.52,2.42-.24.39-.5.77-.77,1.19.65,1.03,1.23,1.97,1.85,2.88.2.29.49.55.8.7.64.33,1.32.59,1.96.87.36-.15.69-.28,1.05-.43.03-.11.09-.24.09-.37.02-.98-.01-1.96.05-2.94.05-.74-.14-1.38-.49-1.99-.35-.6-.69-1.2-1.04-1.8-.49-.85-1.02-1.66-1.99-1.99-.28-.09-.44-.29-.44-.62.01-.4.26-.55.58-.66,1.16-.37,2.29-.2,3.38.09.19.66-.4.74-.58,1.12.33,1.23,1.29,2.08,1.92,3.23.88-.85,1.3-1.97,1.87-3.1-.09-.12-.22-.24-.28-.39-.18-.45-.06-.82.33-.85,1.02-.1,2.04-.16,3.11.3-.16.29-.23.57-.38.65-.73.37-1.14,1.04-1.58,1.69-.49.73-.9,1.51-1.41,2.22-.63.86-.85,1.83-.88,2.87-.02.79,0,1.58,0,2.47.57.27,1.46.1,1.7,1.02-.29.37-.68.46-1.08.45-1.21-.05-2.41-.12-3.62-.18ZM126.28,98.25c-.03.38-.06.75-.08,1.12-.14,2.7-.27,5.4-.42,8.1-.03.6-.18,1.2-.26,1.8-.16,1.19-.85,1.95-1.87,2.36-1.91.77-3.87.69-5.81.17-1.03-.28-1.65-.96-1.97-2.07-.38-1.3-.68-2.6-.78-3.96-.14-2.05-.3-4.09-.47-6.13-.04-.5-.14-.99-.2-1.43-1.58-.49-1.6-.54-.91-1.83,1.28,0,2.62,0,3.96,0,.51,0,.98.12,1.18.7q-.5.52-1.48.8c-.33.47-.38,1.03-.36,1.59.08,2.33.14,4.66.28,6.99.06.98.33,1.92.8,2.8.31.58.72.95,1.4.87.84-.09,1.69-.18,2.53-.27.99-.11,1.46-.81,1.74-1.71.08-.26.15-.54.17-.82.19-2.6.37-5.2.53-7.81.03-.5-.08-1.01-.13-1.54-.53-.25-1.14-.17-1.08-.86.05-.54.51-.61.9-.68,1.2-.23,2.39-.22,3.56.29.09.97-.61,1.19-1.21,1.52ZM127.81,91.18c-.04-.1.04-.3.13-.37.29-.21.6-.38.9-.56.19-.99.21-7.32.02-8.82-.55-.37-1.21-.36-1.77-.16-.5.18-.9.67-1.35,1.04q-.37-.98.02-2.32c.44-.28.97-.36,1.51-.36,2.38-.02,4.75-.03,7.13-.03.12,0,.25.09.42.16-.05.64-.1,1.28-.15,1.92-.03.36-.2.61-.56.69-.38.08-.59-.11-.72-.45-.07-.17-.15-.34-.25-.58h-2.03c-.29.71-.23,1.51-.26,2.28-.04,1.21-.02,2.42-.01,3.63q0,2.12,1.57,3.51c-.11.59-.36.92-.91.91-1.03-.02-2.06-.05-3.09-.08-.09,0-.2,0-.26-.04-.13-.11-.27-.23-.33-.38ZM135.66,110.67c-1.6,1.91-3.7,2.38-5.99,2.13-1.13-.13-1.56-.7-1.63-1.86-.04-.74-.11-1.49.14-2.33.27.15.54.22.68.4.32.39.57.83.86,1.25.33.5.78.73,1.37.75,1.05.03,1.94-.32,2.64-1.14.47-.54.58-1.14.28-1.81-.42-.94-.94-1.8-1.69-2.5-.57-.53-1.13-1.07-1.67-1.63-1.3-1.32-1.89-2.91-1.7-4.81.13-1.32.71-2.28,1.91-2.81,1.4-.61,3.34-.51,4.86.38,0,.89,0,1.77,0,2.65,0,.17-.1.34-.16.56-1.38-.22-1.12-1.38-1.28-2.32-.89-.27-1.69-.1-2.4.48-.85.69-1.02,1.62-.48,2.61.58,1.08,1.38,1.96,2.33,2.69.88.67,1.63,1.46,2.23,2.41,1.02,1.61.91,3.46-.3,4.9ZM146.06,112.14c-.18.06-.35.16-.52.17-2.55.08-5.11.15-7.66.21-.07,0-.14-.1-.23-.16-.23-.59.04-1.06.53-1.24,1.24-.46,1.35-1.4,1.23-2.56-.19-1.85-.31-3.72-.43-5.58-.07-1.07-.08-2.15-.13-3.22-.02-.5-.07-1-.11-1.51-.37-.09-.63-.15-.89-.21-.34-.08-.61-.24-.58-.64.03-.42.26-.67.68-.73.49-.06.98-.2,1.46-.2,2.2-.02,4.4,0,6.67,0-.02.39-.05.79-.07,1.18-.02.37-.03.75-.07,1.12-.04.35-.19.62-.56.69-.4.08-.72-.06-.9-.44-.15-.33-.26-.68-.42-1.09-.98.02-1.95-.28-2.98.3-.1,1.45-.15,2.92.02,4.44.72.33,1.39.28,2.09-.02.65-.27,1.27-.71,2.17-.58.01,1.15.04,2.31.03,3.46,0,.2-.19.39-.36.69-.29-.23-.58-.37-.74-.61-.32-.5-.52-1.15-1.16-1.28-.66-.14-1.34-.16-2.07.28-.05.34-.18.74-.16,1.14.06,1.3.13,2.61.26,3.9.08.81.37,1.05,1.16,1.03.71-.02,1.42-.16,2.03-.23.46-.56.82-1.04,1.23-1.47.13-.13.44-.19.6-.12.16.07.31.35.31.54,0,.93-.15,1.85-.46,2.75ZM156.47,80.94c-.43.24-.53.6-.52,1.04,0,.37.03.75.03,1.12.01,1.07.04,2.15.03,3.22-.02,1.72-.07,3.43-.12,5.28-1.16-.45-1.73-1.43-2.51-2.14-.78-.71-1.56-1.41-2.32-2.13-.79-.75-1.55-1.53-2.4-2.37-.06.18-.17.37-.18.56-.04,1.07-.11,2.15-.07,3.21.05,1.28.11,1.31,1.03,2.17-.13.12-.24.3-.38.32-.8.09-1.61.14-2.42.19-.17.01-.37-.02-.52-.09-.15-.08-.33-.22-.36-.37-.03-.14.08-.37.2-.46.21-.16.47-.25.72-.39,0-1.55,0-3.08,0-4.62,0-1.54-.03-3.08-.03-4.62,0-.4.07-.81.1-1.16.56-.24.75.14.97.41,1.34,1.63,2.67,3.27,4,4.91.52.64,1.03,1.29,1.57,1.92.2.23.44.41.77.71.06-.31.13-.48.13-.64-.03-1.54-.05-3.08-.12-4.61-.05-1.06-.09-1.06-.78-1.76.02-.51.44-.56.76-.63.93-.2,1.85-.17,2.86.27-.18.28-.27.57-.46.67ZM163.86,91.4c-.53.03-1.1.08-1.66.1-1.3.04-2.6.09-3.91.1-.42,0-.91.08-1.2-.52.1-.12.19-.31.33-.38.72-.34.89-.92.88-1.7-.04-1.96,0-3.92-.02-5.88,0-.65-.09-1.3-.13-1.94-.29-.15-.56-.24-.75-.41-.11-.09-.16-.35-.12-.5.04-.14.24-.34.37-.33,1.92.09,3.84-.31,5.74-.04.38,1.52.29,1.97-.54,2.47-.42-.89-.99-1.57-2.17-.98-.4.97-.48,2.03-.11,3.14,1,.47,1.81-.53,2.81-.31.15,1.06.24,2.07-.69,3.01-.21-.35-.36-.61-.57-.96-.52.1-1.08.21-1.65.31-.45,1.15.12,2.15.12,3.25,1.31.28,2.31-.39,3.33-.89q.36.59-.04,2.48ZM356.34,123.12c.1-.31.38-.51.74-.48.38.03.55.32.55.66,0,.31-.03.68-.2.9-.25.32-.64.49-1.25.11.05-.39.04-.81.16-1.19ZM278.98,123.52c.02.46-.39.89-.93.85-.09-.15-.3-.36-.3-.57-.01-.43.38-.8.74-.79.3,0,.48.2.5.51ZM190.77,132.76c-1.77.62-3.58.57-5.23-.32-1.44-.77-2.16-2.19-2.38-3.85-.3-2.2.98-4.46,2.96-5.28.42-.17.84-.33,1.26-.48,1.05-.38,2.1-.41,3.15.05.36.16.75.22,1.14.33.25.67.18,1.31.04,1.94-.03.14-.22.32-.35.35-.13.02-.4-.11-.42-.22-.12-.57-.33-1.03-.91-1.25-.66-.24-1.32-.25-1.98-.04-.43.13-.85.29-1.27.46-2.25.9-3.08,3.31-1.92,5.49.57,1.07,1.45,1.64,2.59,1.74.71.06,1.43.01,2.15.01.57,0,.93-.28,1.08-.85.02-.09.02-.21.08-.26.18-.18.36-.46.57-.48.37-.05.52.29.58.63.14.82-.27,1.72-1.12,2.02ZM196.32,132.89c-.28.09-.62.11-.91.04-1.29-.29-2.21-1.06-2.52-2.42-.34-1.48-.21-2.86,1.03-3.94.96-.84,2.06-1.1,3.26-.98.79.08,1.36.54,1.62,1.29.23.64.33,1.34.48,2.02-.11,1.75-1.34,3.48-2.97,3.99ZM210.21,133.12c-.49.02-.99.04-1.48-.02-.23-.03-.44-.22-.78-.41.27-.22.42-.36.59-.48.14-.11.3-.19.42-.27.39-2.54.16-4.32-.74-5.45-.81.13-1.41.68-1.97,1.28-.17.18-.26.5-.27.76-.03.97-.01,1.95-.01,2.82.19.15.25.25.32.26.34.07.8.04.75.57-.04.44-.45.51-.8.61-1.05.32-1.05.32-1.94-.28q.49-.9.5-2.04c0-.65,0-1.31-.02-1.96,0-.32-.03-.66-.1-.97-.27-1.3-1.13-1.12-1.8-.62-.38.28-.61.69-.64,1.18-.05.93-.12,1.87-.1,2.8.01.42.24.84.38,1.26-.9.73-1.15.74-2.3.01.13-.13.24-.26.37-.36.11-.08.23-.13.38-.22.09-1.47.18-2.96.28-4.55-.26-.09-.51-.15-.73-.26-.19-.09-.34-.24-.48-.34.08-.53.39-.54.71-.58.8-.12,1.61-.18,2.37-.42,1.14-.37,1.93-.06,2.47,1.01.04.07.13.11.25.22.33-.27.67-.56,1.03-.83,1.3-.97,2.39-.66,2.97.9.19.51.27,1.08.34,1.63.07.55.07,1.12.08,1.68.01.56,0,1.12,0,1.66.07.08.12.17.19.2.34.14.76.25.7.71-.07.59-.58.48-.96.49ZM217.49,132.52c-.9.74-1.91,1.35-3.08,1.02-1.15-.33-2.12-1.01-2.41-2.37-.41-1.91-.11-3.62,1.3-5.01,1.42-1.4,2.93-1.13,3.81.68.12.25.21.51.3.72-.19.57-.61.7-1.07.8-1.05.23-2.09.5-3.14.76-.23,1.16-.18,2.11.81,2.79.48.33.97.47,1.52.2.45-.21.9-.42,1.36-.6.28-.11.53-.01.7.25.18.28.11.57-.11.75ZM225.78,132.53c-.12.18-.49.37-.65.31-.75-.29-1.46-.21-2.2,0-.25.07-.54.04-.8.01-1.19-.1-1.92-1.18-1.6-2.37.24-.91.82-1.54,1.66-1.88.37-.15.77-.21,1.3-.34-.03-.44-.01-.82-.08-1.17-.09-.53-.5-.76-1-.62-.6.17-.98.6-1.09,1.32-.26-.18-.44-.25-.45-.33-.06-1.53,1.46-2.59,2.75-1.93.53.27.83.7.87,1.3.05.7.09,1.39.12,2.09.02.42,0,.84,0,1.26,0,.73.1,1.39.88,1.7.28.11.46.4.28.66ZM232.67,132.29c-.43.51-1.01.37-1.71.09.87-1.55.56-3.13.14-4.69-.12-.46-.19-1.06-.89-1.04-.7.02-1.31.51-1.48,1.2-.01.05-.02.09-.02.14-.01,1.38-.48,2.76,0,4.15.1.29-.06.57-.36.65-.53.15-1.06.2-1.48-.35.77-1.87.61-3.74.87-5.61-.56-.1-1.02-.18-1.54-.27.11-.21.14-.4.22-.43.79-.23,1.51-.85,2.41-.39.13.07.33-.01.5-.05.26-.06.51-.17.78-.21,1.03-.17,1.56.09,1.91,1.08.29.83.53,1.69.62,2.56.11,1.01.02,2.04.02,3.18ZM241.79,132.26c-.35.46-.79.61-1.3.42-.17-.06-.32-.16-.48-.26-.15-.1-.29-.21-.46-.34-.33.13-.65.29-.99.38-1.48.39-2.92-.38-3.53-1.82-.43-1.02-.52-2.07-.2-3.14.38-1.27,1.32-2.01,2.61-2.01.58,0,1.15.11,1.84.18.08-.89.15-1.67.22-2.51-.33-.18-.63-.35-.96-.54.11-.14.17-.31.26-.34,1.38-.4,1.6-.22,1.55,1.23-.06,1.58-.13,3.17-.16,4.75-.02,1.02.08,2.04.4,3.11.31.02.61.02.9.07.43.07.57.47.3.83ZM249.68,128.29c-.86.24-1.74.44-2.6.66-.26.07-.5.18-.82.29.04.91.16,1.7.93,2,.56.22,1.21.22,1.82.29.12.02.25-.08.39-.1.33-.06.65-.06.76.35.1.36-.04.66-.34.83-.31.18-.65.36-.99.39-2.23.18-3.7-1.17-3.85-3.48-.06-.9,0-1.77.4-2.59.95-1.96,3.34-2.23,4.67-.52.11.14.22.3.29.47.26.66.01,1.22-.65,1.41ZM256.94,126.27c-.66.11-1.12.45-1.4,1.11-.2.46-.51.88-.8,1.35.46,1.36,1.08,2.63,2.11,3.79q-.79.58-1.79.4c.23-1.16-.66-1.92-.99-2.96-.74.45-1.07,1.17-1.54,1.73.09.35.16.65.23.95q-1.1.32-1.83-.38c.86-1.11,1.72-2.23,2.6-3.37-.59-1.18-1-2.36-2.36-2.81q.75-.61,2.05-.38c.16.7.27,1.49,1.01,2.03.41-.26.6-.72.85-1.12-.15-.27-.27-.49-.42-.76.59-.54,1.24-.21,1.83-.23.2,0,.42.21.62.33-.09.18-.12.32-.17.32ZM264.62,129.76c-.2,1.8-1.65,3.04-3.47,3.01-.35,0-.7-.08-1.18-.15v1.96c.22.2.45.4.68.62-.07.16-.1.34-.19.39-.74.44-1.49.41-2.33,0,.27-.43.58-.76.68-1.15.12-.43.04-.92.06-1.39.04-1.44.08-2.89.1-4.33,0-.6-.03-1.2-.06-1.84-.44-.13-.8-.24-1.17-.34.03-.15.03-.3.07-.31,1.46-.62,1.5-.62,2.06-.02.71-.2,1.37-.45,2.06-.57.72-.12,1.32.17,1.72.83.61,1,1.08,2.06.95,3.28ZM270.6,128.23c-1.02.34-2.06.62-3.09.92-.17.05-.34.08-.63.14,0,.43-.05.76,0,1.07.11.61.46,1.03,1.09,1.04.84,0,1.65.45,2.51.1.11-.04.39.11.42.22.05.19.04.54-.08.62-.32.22-.71.5-1.06.48-.89-.05-1.79-.16-2.64-.4-.81-.22-1.23-.95-1.31-1.78-.08-.87-.12-1.78,0-2.64.18-1.21,1-1.97,2.1-2.31,1.09-.33,2.02.08,2.82.87.13.13.23.29.31.45.26.55.11,1.03-.46,1.23ZM276.14,126.81c-.74,0-1.3.31-1.75.88-.46.58-.51,1.27-.51,1.98,0,.05,0,.09,0,.14q-.01,1.37.8,2.42c-.15.14-.28.36-.46.43-.24.08-.55.12-.78.04-.4-.14-.93-.05-1.15-.57q.51-.82.52-1.88c0-1.11,0-2.23,0-3.4-.44-.15-1.01.22-1.07-.43-.04-.46.42-.55.75-.66.63-.2,1.3-.56,1.79.34.37-.15.73-.34,1.11-.43.29-.06.64-.05.89.08.18.09.31.43.32.67,0,.13-.29.39-.45.39ZM279.9,132.44c-.8.22-1.62.22-2.43.18-.14-.66.46-.7.65-1.11.04-1.47.08-3,.13-4.55-.27-.23-.53-.45-.81-.69.11-.16.17-.35.25-.37.43-.06.87-.07,1.22-.09.52.51.35,1.06.36,1.55.02,1.35,0,2.7,0,4.09.33.27.59.48.83.68-.11.17-.14.3-.2.32ZM285.97,128.26c-.43.1-.89.09-1.33.2-.65.15-1.29.36-2.11.59.14.54.19,1.03.39,1.42.42.83,1.08,1.36,2.05,1.3.31-.02.63-.1.94-.07.19.02.45.18.5.34.05.17-.04.5-.18.6-.28.2-.63.38-.96.43-1.37.19-2.92-.78-3.45-2.14-.38-.97-.49-1.99-.39-3.02.1-1.06,1.28-2.31,2.3-2.44.51-.07,1,.03,1.39.38.44.39.87.81,1.24,1.27.4.49.22,1-.39,1.14ZM291.2,132.37c.59-.41.7-1,.66-1.68-.05-.79.01-1.59-.02-2.38-.02-.5-.13-1.01-.19-1.43-.48-.36-.88-.5-1.33-.22-.48.3-.9.69-.93,1.3-.06,1.12-.07,2.24-.04,3.36,0,.27.26.54.39.8-1.03.84-1.06.84-2.09.24.44-.42.63-.94.65-1.55.04-1.4.13-2.79.2-4.2-.36-.18-.7-.34-1.1-.54.55-.67,1.22-.54,1.8-.46.35.05.62.12.99-.03,1.4-.56,2.53.11,2.77,1.64.12.78.08,1.58.1,2.38.03.95-.18,1.94.55,2.72-1.04.72-1.49.73-2.4.06ZM299.64,126.89c-.17,0-.34-.09-.5-.15-1.27-.46-1.95-.14-2.36,1.17-.34,1.1-.38,2.2.14,3.27.24.48.56.82,1.14.84.3.01.62.11.9.24.13.06.25.29.24.44,0,.15-.14.35-.28.43-.68.4-1.9.18-2.47-.54-.39-.49-.78-1.09-.9-1.69-.24-1.19-.26-2.42.21-3.58.16-.38.37-.75.64-1.05,1.23-1.37,2.4-1.27,3.66.38-.21.12-.32.24-.42.24ZM305.81,128.3c-.59.23-1.19.41-1.8.59-.56.17-1.12.32-1.77.51v1.18c.28.64,1.57,1.27,2.22,1.14.31-.06.61-.21.91-.2.18,0,.4.2.5.37.06.1-.02.38-.13.49-.19.19-.43.34-.67.45-1.7.76-3.92-.71-3.99-2.64-.06-1.45.2-2.75,1.23-3.85,1.01-1.08,3.23-.56,3.94,1.09.15.35-.03.72-.45.88ZM313.91,132.47c-.31.52-.81.7-1.39.62-1.12-.16-1.73-.74-1.89-2-.13-1.01-.14-2.04-.19-3.06-.01-.28-.03-.57.03-.83.12-.56-.25-.82-.62-1.1.42-.54.82-1.06,1.42-1.82.15.63.25,1.01.35,1.45.42.03.87.04,1.3.12.18.04.46.23.48.38.05.33-.24.46-.53.47-.44.02-.87,0-1.43,0,0,.52-.03.93,0,1.34.08.93.15,1.86.3,2.77.17.98.55,1.19,1.5.94.09-.02.18-.09.25-.07.16.04.42.08.46.18.07.19.06.47-.03.63ZM321.39,132.33c-.15.62-.7.46-1.12.46-.56,0-1.14.14-1.64-.13,0-.21-.03-.36,0-.38.62-.36.82-.89.75-1.61-.09-.88-.12-1.76-.19-2.65-.01-.18-.07-.37-.14-.54-.21-.52-.69-.86-1.14-.82-.62.06-1.12.5-1.18,1.12-.07.79-.09,1.58-.12,2.37-.02.65,0,1.31-.02,1.96-.04,1.04-.34,1.17-1.38.64.45-1.58.17-3.21.34-4.81.16-1.57.14-3.15.19-4.77-.4-.14-.6-.2-.8-.27.04-.15.04-.28.09-.31.28-.14.56-.28.85-.38.11-.04.26.02.44.04.61,1.11.12,2.38.49,3.64.14-.03.3-.04.44-.09,1.47-.48,2.72.24,2.98,1.81.21,1.28.28,2.58.42,3.93.19.26.85.21.72.78ZM323.56,130.7c.21.8.54,1.03,1.36,1.07.54.03,1.08,0,1.62.01.27,0,.55-.03.8.05.19.06.4.24.47.42.12.3-.09.55-.34.67-.24.11-.51.19-.77.2-.63.02-1.26.03-1.88-.02-1.58-.12-2.69-1.51-2.52-3.16.06-.56.17-1.1.26-1.66.22-1.42,1.17-2.16,2.37-2.59,1.02-.36,2.47.44,2.9,1.51.15.36-.01.72-.45.86-.94.31-1.89.58-2.84.87-.3.09-.6.19-1.08.34.03.53,0,1,.1,1.43ZM341.23,133.06c-.69.06-1.4.27-2.05-.11,0-.16-.05-.3-.01-.33.5-.4.65-.9.6-1.55-.07-.93-.02-1.87-.04-2.8-.01-.45-.08-.91-.12-1.32-1.64-.37-2.65.55-2.48,2.13.04.37.13.75.09,1.11-.08.75-.03,1.45.39,2.01-.19.52-.54.62-.91.62-.61,0-1.27.16-1.93-.56.42-.19.69-.31,1.02-.46.35-1.36.19-2.73-.12-4.1-.23-.99-1.17-1.36-1.99-.8-.52.35-.82.83-.74,1.53.15,1.29.28,2.58.43,3.91-.72.63-.96.63-1.99-.04.11-.18.18-.42.33-.53.26-.18.35-.4.33-.7-.1-1.39-.2-2.79-.3-4.17-.27-.19-.51-.37-.79-.57.1-.16.14-.33.23-.36.25-.08.52-.12.78-.14.75-.06,1.49-.03,2.24-.23,1.03-.27,1.46,0,2.6,1.2.2-.22.37-.49.61-.65.3-.19.65-.3.98-.39.3-.09.62-.14.93-.16.78-.04,1.16.24,1.35,1.05.1.45.13.92.14,1.39.03.93.04,1.87.04,2.8,0,.56-.07,1.09.52,1.47.3.19.16.72-.16.75ZM347.91,132.39c-.09.22-.4.51-.56.48-.73-.14-1.39.11-2.08.19-1.15.13-1.98-.52-2.2-1.59-.22-1.1.33-2.16,1.37-2.57.29-.11.59-.19.87-.28q.04-1.15-.59-2.11c-.55,0-.91.22-.99.85-.04.33-.14.65-.58.64-.4-.3-.32-.71-.24-1.13.09-.49.37-.83.77-1.09.87-.55,1.77-.42,2.19.47.31.65.48,1.4.6,2.12.11.64.03,1.3.08,1.96.05.67.17,1.31,1,1.43.31.05.47.36.35.63ZM354.7,125.1c-.18.2-.45.29-.66.47-.19.18-.35.4-.54.63.19.26.36.48.51.71.53.82.47,1.69.06,2.52-.46.91-1.24,1.32-2.22,1.27-.36-.02-.71-.13-1.07-.12-.17,0-.33.19-.63.38.7.3,1.22.14,1.73.09.77-.08,1.42.19,1.95.74.62.65.82,1.44.53,2.32-.51,1.59-2.13,2.6-3.72,2.36-1.49-.23-2.39-2.04-1.69-3.44.12-.24.31-.44.47-.68-.54-.69-.5-1.4-.04-2.07.23-.33.27-.63.27-1.03,0-.6.08-1.21.2-1.8.33-1.68,1.19-2.28,2.96-2.09.27-.24.55-.54.89-.76.21-.14.5-.18.75-.22.1-.01.3.11.32.2.03.16.02.4-.07.51ZM357.88,131.98c-.1.46-.48.53-.85.5-.55-.05-1.18.23-1.68-.38.21-.32.5-.62.62-.97.13-.39.1-.83.14-1.25.08-.97.17-1.95.26-2.98-.27-.13-.53-.26-.77-.37.05-.41.18-.48,1.42-.88.09.29.25.57.26.86,0,1.02-.04,2.05-.06,3.07-.01.51,0,1.02,0,1.65.24.25.78.22.67.75ZM363.94,126.93c-.13-.01-.26-.05-.38-.1-.78-.34-1.48-.28-2.08.4-.67.76-1.09,1.62-.89,2.67.05.27.31.6.56.72.43.21.93.3,1.4.41.26.06.54,0,.79.08.14.04.34.24.34.37,0,.2-.1.5-.24.58-.35.18-.75.26-.93.31-1.06-.01-1.8-.33-2.45-.86-.54-.43-.75-1.03-.76-1.72-.02-1.73.71-3.06,2.1-3.98.72-.48,2.03-.36,2.67.19.1.09.17.21.23.34.13.26-.09.62-.35.6ZM367.15,132.17c-.35.31-.79.51-1.29.83-.16-.34-.39-.6-.34-.75.13-.38.35-.74.6-1.05.28-.34.68-.37.94-.14.3.27.39.83.09,1.1Z"/>
      </g>
    </g>
    <polygon class="cls-2" points="173.77 114.4 161.99 114.66 150.18 114.66 138.37 114.61 126.55 114.55 114.74 114.46 102.93 114.52 91.12 114.56 79.3 114.23 67.48 114.17 55.69 114.41 55.83 101.58 55.38 88.71 55.72 75.9 67.48 75.66 79.29 76.04 91.1 76.14 102.91 75.79 114.72 75.91 126.53 75.77 138.35 75.73 150.16 75.78 161.98 76.1 173.83 75.82 173.64 88.7 173.65 101.57 173.77 114.4"/>
  </g>
  <polygon class="cls-4" points="28.61 80.53 5.67 114.12 6.81 115.57 50.59 114.05 34.86 85.17 30.18 79.7 28.61 80.53 28.61 80.53"/>
  <path class="cls-3" d="M26.77,84.89c-.83.36-.24-.83-1.07-.47-.39.13-.18.83-1,.58-.32,1.37-.64,2.72-1.93,3.22-.31,1.44.73,1.38,1.15,2.03-1.81,1.32-1.82,5.56-5.01,4.16.29.77,1.25.81,1.39,1.75-.69.35-1.2.49-1.53.59,1.11.9-.29.68-.72,1.34-1.11,1.72-1.71,4.44-3.66,4.87-.07,1.26-.53,2.17-1.71,2.43.66,1.35-.38.18-.74.82,1.67.32-1.07,1.14.09,1.82-1.85.39-1.4,2.87-2.68,3.78-.17-.45.24-1.55-.33-1.55,0,.41.08.9-.49.81-.27.86.85.15.57,1.01-1.08.27-.88,1.69-1.44,2.42,2.71-.6,7.11-.64,10.14-.51.04-.2-.02-.51.23-.54,10.08.92,18.12-.65,30.43-.98-.56-2.73-2.98-4.05-3.92-5.54-.31-2.31-2.5-2.54-2.59-5.08-1.17.17-1-.93-.86-1.52-1.04.02-1.97-1.66-1.14-2.03-.81.44-.87-.15-1.58-.44-1.88-5.68-6.37-9.68-8.52-14.17.01.26-.44.35-.52.02.32-.04.61-.11.5-.54-.73.25-.69-.33-1.32-.19-1.26,1.76-1.82,4.14-3.92,5.14.55.89-.19,1.27-.69,1.86-.32-1.03-.06-2.03.38-2.89.43-.02.18.71.56.75.06-1.12.95-3.24,1.71-2.17-.03-.36.09-.58.22-.79h0ZM41.96,96.9c1.54.22,1.13,2.58,2.74,2.73.04,1.68.91,2.47,1.97,3.03-.12,1.78.89,2.31,1.96,2.77.12.44-.18.5-.49.54.37.36,1.23.59.58,1.28.2-.15.41-.3.76-.3.12.52-.01.82-.48.81.52.66,2.01,2.08,1.17,2.55.27.44.84.53,1.58.44.15,2.13,1.31,3.12,1.31,5.41-.25-.15-.98-.56-.76.3-.47-.49-1.81-.01-1.87-.95-.57,1.02-1.78-.68-3.09.68-.79.13-.58-.82-.85-1.26-.74.26.37.64.07,1.3-.2-.17-.88-1.06-.78.04-3.63-.25-9.02-.27-12.24.08-.01-.26-.03-.51-.04-.78-1.17.69-2.55.83-3.64.18-.7,1.02-5.54,1.05-7.02.35-2.86,1.64-9.21.1-10.59,1.82-2.24-1.26-6.1.16-8.9-.86-.26-.82.17-1,.46-1.33-1.05-.04-.44-.19-.61-1.79,1.21-.39,1.71-1.43,1.68-2.95,1.21.19.52-1.34,1.77-1.13-.23-.79-.21-.49-.07-1.3,1.77.2.7-2.18,2.23-2.19-.18-.26-.61-.24-.56-.76,1.05.29.49-.88,1.53-.59-.02-.43-.04-.87-.06-1.3.22-.21.58-.31,1.02-.31,1.53-3.92,4.38-6.63,6-10.46.9-.02,1.18-.58.96-1.61.76.03.76-.63,1.53-.6.63-3.48,3.95-4.54,4.55-8.05,2.85-.64,2.17-4.48,4.95-5.19-.18-.26-.61-.24-.56-.75.86-.06,1.27-.51,2.33-.38,1.16.83-.3,1.34,1.36,1.23-1.07,1.18.34,4.61,1.51,4.1.38.07.07,1.97,1.39,1.76-.14.8.32.93.35,1.55,3.34,2.79,3.98,8.57,7.33,11.36.12.44-.18.5-.5.55h0Z"/>
  <text class="cls-6" transform="translate(22.11 109.46) scale(.79 1)"><tspan x="0" y="0">3</tspan></text>
</svg>