<?xml version="1.0" encoding="UTF-8"?>
<svg id="Layer_1" data-name="Layer 1" xmlns="http://www.w3.org/2000/svg" viewBox="0 0 180 200">
  <defs>
    <style>
      .cls-1, .cls-2, .cls-3, .cls-4, .cls-5, .cls-6, .cls-7, .cls-8, .cls-9, .cls-10 {
        fill-rule: evenodd;
      }

      .cls-1, .cls-11 {
        fill: #fff;
      }

      .cls-2 {
        fill: #508066;
      }

      .cls-3 {
        fill: #bfbd6e;
      }

      .cls-4 {
        fill: #519cd0;
        stroke: #519cd0;
        stroke-linecap: round;
        stroke-width: 1.64px;
      }

      .cls-4, .cls-12, .cls-13, .cls-14 {
        stroke-miterlimit: 3;
      }

      .cls-11 {
        font-family: AmericanTypewriter-Bold, 'American Typewriter';
        font-size: 19.28px;
        font-weight: 700;
        letter-spacing: .02em;
      }

      .cls-5, .cls-12, .cls-13, .cls-14 {
        fill: #231f20;
      }

      .cls-6 {
        fill: #d32820;
      }

      .cls-7 {
        fill: #00a9c7;
      }

      .cls-8 {
        fill: #89a48b;
      }

      .cls-12 {
        stroke-width: .43px;
      }

      .cls-12, .cls-13, .cls-14 {
        stroke: #231f20;
      }

      .cls-13 {
        stroke-width: .55px;
      }

      .cls-14 {
        stroke-width: .28px;
      }

      .cls-9 {
        fill: #00844f;
      }

      .cls-10 {
        fill: #0e6949;
      }
    </style>
  </defs>
  <g>
    <path class="cls-1" d="M57.54,55.14v56.05c0,3.38-.28,18.87-.28,18.87l2.25,3.66s65.63,1.13,71.27,1.69c5.63.56,35.49.56,36.34.56s3.66-.56,3.66-.56c0,0-.28-14.08-.28-15.49s.28-30.98.28-31.83-1.13-34.37-1.13-34.37l-.28-2.25s-32.68.28-34.65.28-30.98-.28-34.93-.56c-3.94-.28-36.9.28-36.9.28,0,0-5.63-2.54-5.35,3.66Z"/>
    <path class="cls-4" d="M111.36,95.95c.18.2.18.57.28.85.77.83,6.25-2.05,7.87-1.94.94.06,3.05,2.48,4.01,2.54.55.02-4.5,1.16-4.01,1.14.54-.01,1.06-.24,1.57-.29,3.31-.33,3.38-3.99,6.24-4.23,2.61-.22,8.12,3.37,10.88,2.76.36-.08.69-.01,1.02-.11,1.22-.35,1.55-.06,2.57-.44,1.48-.54,2.4.13,3.7-.21.13.14,2.23.57,2.43.63.58-.36,2.73-.91,3.59-.63,1.09.35.13-.17,1.51.28,1.42.47,5.27.96,6.84,1.2.06.43-2.86.32-2.86.69-.93.19-1.98.31-2.96.49-.81.15-1.47.77-2.04.56-1.07.97-2.27,1.82-3.97,2.23-.03-.34.21-.43.18-.78-.33-.45-.65-1.37-1.48-1.43-1.31-.09-3.92.6-5.37,1.06-1.07.34-1.88,1.18-2.31,1.68.11.27.29.47.47.68.51.09.64-.16,1.02-.19.31.16.84.48.74.75-2.65.39-5.05.29-7.13,1.1-4.94-.11-9.12-1.07-13.52-1.96-.51-.46-1.81-1.15-3.06-1.14-.82,0-2.03.56-2.13,1.07-.18.89.87.77.84,1.7-1.13-.02-1.77-.79-2.96-.88-.46-.04-1.06.03-1.48-.06-.72-.15-1.15-.62-1.76-.91-1.36-.65-3.07-.95-5.09-.67-1.13.16-1.97.57-3.43.33-2.22-.37-2.53-.17-3.81-1.48-.15-.23-4.22-.68-4.44-.85-2.77-.04-3.02-.25-5.55.63-1.28.44-2.19,1.04-3.33,1.7-.65.38-1.19,1.03-1.85,1.33-1.22.55-3.6.8-4.44.26,3.34-1.38,3.05-1.33,3.45-1.7.37-.33.74-.5,1.16-.85.87-.71,1.77-1.57,2.75-2.32.65-.5-1.06-.42-1.54-1.35-.5-.15-.89.12-1.2.37-3.64-.31-7.65-.53-11.02-.98-.76-.1-1.78.09-2.22-.56,1.62-.96,16.87-1.23,18.33-.38.36-.01.58-.16.83-.28,2.08.47,4.22-.12,6.39-.13,2.31-.01,4.57.57,6.95.37,2.54-.21,6.56-.07,9.35.32Z"/>
    <path class="cls-8" d="M123.93,76.77c.79,1.45,1.99,2.77,2.25,4.4.07.42-.11.86,0,1.3.09.36.47.84.71,1.29.55,1.03,1.03,2.38,1.89,3.19.38.35,1,.55,1.42.89.71.58,1.13,1.31,1.78,1.89,1.01.89,2.69,1.67,4.03,2.3,1.49.7,2.95,1.35,4.39,1.99,3,.64,6.23,1.12,9.26,1.75-.63.69-2.52,1.05-4.16,1.45-1.62.39-6.17,1.67-6.75.79-7.86-.27-13.28-3.6-14.46-3.62-.79-.01-33.01.23-35.4.84-1.32.33-2.37.27-4.13.58-1.36.24-2.64-.51-4.27-.64,1.77-.8,3.54-.61,5.22-.94,2.6-.51,4.95-1.79,6.88-2.88,1.5-.84,3.15-1.45,4.28-2.6.56-.58.96-1.33,1.54-2.02,1.55-1.83,3.62-3.72,4.87-5.83.79-1.34,1.75-2.91,2.5-4.41,1.11-2.23,1.89-3.66,4.16-5.13,1.02-.66,1.87-1.05,3.21-1.44,1.14-.11,2.86.16,3.56.78.18.88,1.28,2.33,1.77,3.49.41.95.44,1.97,1.9,2.27,1.03.21,2.51-.13,3.56.32Z"/>
    <path class="cls-2" d="M134.39,100.6c-1.17.58-2.82,1.13-4.73,1.06-1.5-.06-3.01-.68-4.63-.88-4.53-.58-10.51,1-13.98-.71.05-.41-.02-.4-.32-.81,2.14-.59,5.19-.25,7.31-.87.27-.08,1.78-.69,1.83-1.17.06-.67-1.34-.83-2.36-1.09-.65-.16-1.13-.47-1.51-.54-.44-.09-.93,0-1.19-.06-1.42-.34-2.36-1.05-3.33-1.56.8-.95,1.69-1.96,2.79-2.73.32-.23.77-.27,1.07-.51.84-.67.94-1.7,1.93-2.31.43-.18.74.1,1.29.06,2.45,3.09,4.61,6.12,8.18,8.43,1.14.73,2.23,1.67,3.44,2.2.89.39,2.18.38,2.69,1.16.57.04,1.08.14,1.5.3Z"/>
    <path class="cls-10" d="M117.08,96.25c-2.58.88-6.46.85-9.63.8-2.78-.04-5.49-.22-8.15-.26-3.18-.04-6.3-.07-9.54-.24,1.36-.87,2.67-.84,3.98-1.46.93-.44,1.76-1.14,2.59-1.69.46-.3.9-.56,1.29-.89.37-.32.62-.75,1.01-1.05.48-.36,1.46-.62,2.31-1.17,1.53-.97,2.42-1.52,4.99-1.56,1.82-.03,2.93,3.05,3.99,3.96,1.99,1.71,4.64,2.12,7.14,3.55Z"/>
    <path class="cls-9" d="M129.02,108.17c1.64,1.25-.85,1.29-2.01,2.21-1.57,1.24-3.58,1.8-6.02.95-.85-.29-2.28-.48-2.85-.74-2.17-.98-3.84-1.49-5.28-3.27-1.35-1.67-3.95-2.22-7.91-2.53-.43-.03-1.01-.15-1.3-.32-.1-.05-2.78-.3-2.78-.8,0-.3.74-1.08,1.11-1.31.79-.5,5.2-1.7,6.65-1.58.63.05,3.39-.21,4.12,0,.75.22,1.82.69,2.64,1.06,1.41.64,1.86,2.3,3.35,3.02.7.34,1.43.52,2.04.82.47.23.81.65,1.3.83,2.24.85,4.39,1.14,6.94,1.67Z"/>
    <path class="cls-3" d="M122.86,92.67c.51.57.5,1.43.56,2.14.21,2.34.15,4.87.2,7.13.03,1.17-.03,2.36-.08,3.61-.04.97.24,2.17-.45,2.94-.51-.59-.58-1.72-.56-2.57.11-4.13.03-9.3.15-12.99,0-.09,0-.17,0-.26.06,0,.12,0,.19,0Z"/>
    <path class="cls-6" d="M122.89,93.17c2.56.35,3.73,2.02,6.21,2.45-1.85,1.44-3.93,2.67-5.73,4.16-.28-2.09-.29-4.44-.48-6.61Z"/>
    <g>
      <path class="cls-12" d="M98.99,115.94c.37.19.43.35.12.31-.96-.1-1.18-.1-1.43.01-1.62.77-1.85,3.63-.38,4.57.44.29,1.17.33,1.48.09.2-.15.21-.18.16-.6-.06-.58-.24-.87-.56-.94-.14-.03-.29-.11-.34-.18-.17-.24.04-.33.79-.37.93-.05.96-.02.96,1.01,0,.68-.02.77-.2,1.02-.21.31-.45.45-.77.45-.12,0-.3.04-.4.09-.39.18-1.45-.16-1.81-.57-.16-.19-.56-1.02-.68-1.45-.21-.7-.1-1.42.36-2.41.29-.61.61-.94,1.11-1.12.44-.16,1.17-.11,1.61.11Z"/>
      <path class="cls-12" d="M105.03,117.04c.07.14.17.56.22.92.08.59.07.76-.04,1.36-.07.38-.18.85-.26,1.05-.14.37-.4.7-.54.7-.04,0-.17.04-.28.1-.11.06-.41.12-.67.15-.37.04-.54.02-.76-.08-.4-.18-.98-.56-.98-.63,0-.04-.07-.16-.15-.28-.19-.29-.4-.52-.47-.92-.18-1.09-.12-1.7.26-2.46.24-.5.51-.72,1.17-.95.86-.32,2.06.18,2.49,1.03ZM103.13,116.37c-.06.03-.3.15-.53.26-.72.35-.97.9-.97,2.14,0,1.06.05,1.22.48,1.69.62.68,1.43.81,1.93.33.61-.59.87-2.39.48-3.34-.23-.57-.4-.82-.65-.95-.27-.14-.62-.2-.75-.12Z"/>
      <path class="cls-12" d="M107.09,115.57c.21.11.24.46.26,2.69.01,1.14.04,2.11.07,2.15.03.04.4.07.94.07.93,0,1.12.04,1.04.23-.03.07,0,.12.12.15.13.04.15.07.07.15-.07.09-.29.11-1.03.1-.72,0-.99.03-1.17.12-.26.13-.48.08-.68-.15-.19-.22-.23-.86-.11-2.05.07-.7.09-1.51.07-2.22-.02-.62-.01-1.17,0-1.23.04-.13.21-.14.4-.04ZM107.73,120.71c-.12,0-.19.04-.19.12,0,.14.3.12.35-.03.01-.05-.04-.09-.16-.09Z"/>
      <path class="cls-12" d="M112.23,115.68c.67.02,1.31.07,1.42.11.21.08.26.21.11.26-.15.05-1.06.12-1.71.15-.57.01-.59.02-.57.19,0,.1.02.43.04.73l.02.55.61.04c.42.03.64.08.72.16.22.22.08.33-.48.38-.29.03-.62.09-.71.12l-.18.07v1.39c.03,1.53,0,1.71-.31,1.41-.16-.16-.16-.21-.21-2.64-.02-1.36-.07-2.53-.1-2.61-.03-.07-.01-.18.04-.24.08-.1.29-.11,1.31-.08Z"/>
      <path class="cls-12" d="M121.1,115.75c.48.01.65.05.81.17.25.19.26.36.01.33-.71-.07-1-.04-1.38.15-.59.3-.94.62-1.24,1.15-.25.43-.27.54-.3,1.14-.03.61-.01.69.18,1.06.28.54.62.79,1.16.9.4.07.65.07,1.59-.05.26-.03.35-.01.43.08.14.17.04.23-.54.32-.54.1-1.1.06-1.72-.11-.29-.08-.42-.09-.54-.02-.13.07-.19.04-.4-.15-.38-.37-.76-1.48-.77-2.24,0-.54.23-1.39.48-1.8.32-.53.7-.76,1.42-.91.1-.01.46-.02.79-.01Z"/>
      <path class="cls-12" d="M124.19,115.57c.21.11.24.46.26,2.69.01,1.14.04,2.11.07,2.15.03.04.4.07.94.07.93,0,1.12.04,1.04.23-.03.07,0,.12.12.15.13.04.15.07.07.15-.07.09-.29.11-1.03.1-.72,0-.99.03-1.17.12-.26.13-.48.08-.68-.15-.19-.22-.23-.86-.11-2.05.07-.7.09-1.51.07-2.22-.02-.62-.01-1.17,0-1.23.04-.13.21-.14.4-.04ZM124.83,120.71c-.12,0-.19.04-.19.12,0,.14.3.12.35-.03.01-.05-.04-.09-.16-.09Z"/>
      <path class="cls-12" d="M128.69,116.35l.22.12-.05.45c-.1.76-.09,1.64.01,2.36.17,1.2.34,1.49.9,1.56.31.04.39.12.18.2-.18.07-.05.18.21.15.25-.03.24-.04.4-.07.12-.01.54-.56.58-.77.02-.1.11-.42.19-.69.21-.75.35-1.7.35-2.45,0-.62.01-.69.17-.79.09-.06.25-.12.35-.12q.18-.02.18.6c0,.94-.15,3.1-.22,3.27-.13.34-.9,1.06-1.13,1.06-.04,0-.15.04-.27.08-.59.24-1.52.1-1.91-.3-.33-.33-.54-.64-.54-.79,0-.08-.04-.27-.1-.43-.14-.4-.22-1.27-.23-2.41,0-.94,0-.95.18-1.04.23-.12.26-.12.53.02Z"/>
      <path class="cls-12" d="M135.85,115.77c.48.18.71.35.92.72.14.24.18.37.14.53-.07.29-.29.71-.43.82-.21.18-.13.38.34.81l.46.42v.63c0,.58-.01.65-.22.94-.12.18-.4.42-.62.55-.34.19-.51.24-.99.27-.33.02-.86,0-1.17-.04-.53-.08-.59-.1-.63-.27-.03-.1-.04-1.39-.04-2.86v-2.67s.19-.05.19-.05c.35-.1,1.56.03,2.06.21ZM134.07,115.99s-.05.46-.05.95c0,.69.02.92.1.95.18.07,1-.1,1.45-.31.57-.25.81-.53.81-.92,0-.34-.13-.45-.77-.61-.43-.12-1.44-.16-1.53-.07ZM135.45,118.32c-.69-.01-1.24.04-1.32.12-.09.09-.06,2.58.03,2.67.13.13.92.14,1.37,0,.76-.21,1.25-.74,1.33-1.42.04-.29.01-.37-.15-.57-.1-.12-.19-.26-.19-.3,0-.04-.12-.18-.27-.29-.23-.18-.34-.21-.79-.21Z"/>
    </g>
    <g>
      <path class="cls-14" d="M106.1,125.08c.07.03.12.09.12.12,0,.06-.1.08-.57.09-.77.02-.77.03-.77.69v.49s.31.04.31.04c.17.02.34.07.38.1.06.06.05.08-.06.12-.07.02-.21.05-.31.05s-.22.04-.28.08c-.09.08-.09.14-.1.77v.69s.15.03.15.03c.09.01.43.06.76.09.6.06.81.11.73.2-.03.03-.18.02-.4,0-.2-.03-.61-.05-.92-.04-.53,0-.57,0-.63-.09-.08-.11-.14-1.32-.13-2.65v-.76l.28-.03c.15-.02.29-.05.3-.06.05-.04,1.03.03,1.15.09Z"/>
      <path class="cls-14" d="M108.72,125.04c.18.04.71.3.71.36,0,.03-.14.04-.45.02-.4-.03-.47-.02-.7.08-.3.13-.42.32-.42.66,0,.25.12.39.52.56.34.15.76.43.76.5,0,.03.05.1.12.17.13.12.24.54.2.78-.08.46-.4.82-.77.85-.12.01-.31.04-.43.05-.16.03-.24.01-.33-.04-.07-.04-.14-.07-.17-.05-.06.04-.36-.15-.45-.29-.04-.07-.07-.15-.05-.19.04-.11.2-.07.44.12.21.18.25.19.52.19.22,0,.33-.02.45-.11.42-.29.42-.86,0-1.38-.08-.1-.15-.21-.15-.24,0-.1-.12-.17-.38-.2-.22-.02-.29-.06-.48-.25-.22-.22-.23-.23-.23-.5,0-.22.03-.33.14-.53.17-.3.3-.39.71-.49.17-.05.37-.07.43-.06Z"/>
      <path class="cls-14" d="M112.1,125.25c.96,0,1.07,0,1.16.08.06.05.1.11.08.13-.01.02-.26.04-.54.03-.8-.01-.72-.16-.69,1.24,0,.66.02,1.41.02,1.66,0,.32,0,.48-.05.53-.09.1-.13.1-.27-.04-.11-.11-.11-.12-.09-.94.02-1,0-2.12-.03-2.25,0-.03,0-.09,0-.13.01-.1-.22-.11-.3,0-.03.04-.2.09-.44.12-.33.04-.42.04-.54-.02-.08-.04-.14-.1-.14-.14v-.11s.18-.06.39-.09c.22-.03.87-.06,1.45-.06Z"/>
      <path class="cls-14" d="M114.56,127.86c.1,0,.16.14.09.21-.08.08-.05.28.06.39.06.06.09.12.07.14-.05.06-.55.04-.61-.01-.08-.08.08-.57.21-.66.05-.03.13-.07.18-.07Z"/>
      <path class="cls-14" d="M119.38,125.1c.02.05.09.1.15.11.15.02.2.3.16,1.04-.01.33-.04.88-.06,1.24-.01.35-.04.68-.07.72-.02.04-.04.2-.05.36,0,.47-.05.66-.18.67-.08.01-.12-.01-.15-.1-.03-.07-.07-.13-.1-.15-.03-.02-.04-.46-.02-1.28.01-.68.03-1.55.03-1.93,0-.55.02-.68.08-.72.1-.07.13-.06.19.04Z"/>
      <path class="cls-14" d="M121.83,124.93c.14.05.24.06.35.03.36-.1.49.21.53,1.28.02.67,0,1.06-.1,2.19-.03.34-.04.36-.15.34-.07,0-.2-.05-.29-.1-.16-.08-.17-.09-.16-.34,0-.14.05-.53.1-.86.07-.47.08-.62.03-.66-.04-.04-.08-.04-.12,0-.16.13-.47.19-.77.15-.35-.04-.43-.08-.62-.28-.11-.12-.14-.19-.13-.35.02-.47-.03-.36.21-.86.14-.29.31-.45.55-.53.24-.09.34-.09.58,0ZM121.87,125.26c-.39-.02-.67.24-.86.8-.14.42-.15.61-.03.72q.11.1.39-.02c.44-.19.75-.77.7-1.32-.01-.17-.02-.18-.2-.19Z"/>
      <path class="cls-14" d="M124.82,125.25h.53c.12.12.24.24.37.37l-.04.33c-.13,1.26-1.27,2.52-1.2,2.61.02.02.24,0,.5-.06.58-.11,1.27-.13,1.27-.02,0,.05-.06.08-.21.09-.12,0-.42.05-.67.09-1.78.3-1.74.32-1.21-.47.2-.3.39-.6.43-.68.04-.08.13-.24.2-.36.3-.49.49-1.19.38-1.42-.05-.11-.09-.12-.27-.12-.2,0-.34.05-.52.16-.13.08-.3.14-.44.23-.12.07-.15.08-.26,0-.07-.04-.13-.09-.14-.12-.03-.1.43-.55.6-.59.09-.02.4-.04.69-.04Z"/>
      <path class="cls-14" d="M129.09,125.13c.49.25.48.48-.04.99-.27.26-.34.36-.36.51-.03.19-.02.2.25.5.33.37.42.54.46.84.02.2,0,.25-.11.37-.07.08-.18.14-.24.15-.09,0-.11.04-.1.11.04.31-.95.52-1.39.29-.08-.04-.17-.08-.21-.08-.14,0-.29-.2-.29-.38,0-.09.02-.19.04-.22.02-.02.07-.13.1-.25.04-.13.18-.33.38-.55.39-.42.58-.67.58-.74,0-.03-.06-.11-.14-.18-.27-.23-.45-.67-.34-.86.02-.05.08-.17.13-.27.06-.13.15-.21.28-.27.29-.13.73-.12,1.02.03ZM128.29,127.14c-.09.04-.18.11-.19.15-.01.04-.15.21-.3.38-.29.32-.34.45-.31.81.01.21.02.21.22.25.17.03.26.02.49-.07.33-.13.85-.53.85-.65,0-.05.02-.11.05-.14.04-.04.03-.09-.02-.19-.08-.13-.19-.48-.34-.53-.24-.09-.3-.1-.45-.02ZM128.67,125.34c-.18,0-.26.03-.4.15-.33.28-.4.56-.19.8.14.17.34.2.38.06.02-.04.13-.2.26-.36.25-.3.32-.47.23-.58-.04-.04-.14-.07-.28-.07Z"/>
    </g>
    <g>
      <path class="cls-13" d="M74.61,74.58c.2-.2.99-.68,1.06-.63.04.03-.06.22-.35.6-.37.5-.42.59-.48.99-.07.5.07.81.52,1.09.33.21.61.16,1.17-.22.48-.32,1.19-.64,1.28-.58.04.02.18.02.32-.02.27-.07.91.14,1.19.39.53.48.74,1.2.48,1.71-.08.17-.21.44-.29.61-.1.23-.18.33-.33.4-.11.05-.21.13-.21.17,0,.11-.5.35-.75.35-.12,0-.25-.04-.29-.09-.11-.15.07-.32.52-.47.41-.13.46-.17.68-.53.18-.29.24-.45.23-.68-.02-.79-.77-1.26-1.81-1.15-.2.02-.4.02-.44,0-.14-.09-.33.02-.58.34-.22.27-.31.33-.73.42-.47.11-.49.11-.85-.12-.29-.19-.41-.31-.57-.62-.26-.48-.26-.71-.06-1.34.08-.26.21-.54.28-.62Z"/>
      <path class="cls-13" d="M78.2,69.66c.18-.2.61-.15.86.07.22.2,1.19.59,1.41.71.13.06.57.25.96.42,1.46.6,2.55,1.14,2.59,1.26.03.1-.22.29-.48.36-.13.03-.28-.01-.48-.15-.45-.31-.95-.52-1.11-.46-.24.08-1.11.88-1.12,1.02,0,.15.22.58.62,1.17.51.75.34.6,0,1.15-.09.14-.18.22-.24.21-.09-.01-.69-1.11-1.38-2.54-.38-.77-1.14-2.17-1.36-2.49-.09-.13-.2-.34-.24-.47-.05-.12-.06-.25-.04-.27ZM79.6,70.73s.08.36.19.46c.03.03.21.31.41.64.23.37.39.58.46.58.13,0,.99-.66.99-.75,0-.08-1.55-.88-1.84-.95-.08-.02-.18-.01-.21.02Z"/>
      <path class="cls-13" d="M82.03,66.13c.23-.05.48.2,1.91,1.92.73.87,1.37,1.61,1.42,1.62.05.02.35-.19.78-.54.72-.59.89-.67.96-.48.02.08.08.09.19.05.13-.06.16-.04.15.07,0,.11-.15.27-.73.73-.56.46-.75.65-.83.83-.12.27-.32.37-.62.32-.29-.05-.72-.52-1.38-1.52-.39-.58-.89-1.23-1.36-1.77-.41-.46-.75-.9-.77-.96-.05-.12.08-.24.29-.28ZM85.78,69.71c-.1.08-.12.15-.07.21.09.11.31-.1.25-.25-.02-.05-.09-.04-.18.03Z"/>
      <path class="cls-13" d="M87.38,62.19c1.26-.77,1.41-.85,1.6-.82.12.01.22.06.21.11,0,.04-.31.26-.69.48-1.07.63-1.08.36.07,2.19.54.87,1.15,1.85,1.36,2.18.26.42.37.64.36.75-.03.21-.1.23-.38.16-.23-.06-.24-.07-.87-1.17-.77-1.34-1.69-2.81-1.85-2.96-.03-.03-.08-.11-.11-.17-.07-.15-.39.03-.4.23,0,.08-.19.28-.49.51-.41.32-.52.39-.73.4-.13,0-.27-.02-.3-.07l-.09-.14s.19-.22.45-.43c.27-.21,1.11-.77,1.86-1.24Z"/>
      <path class="cls-13" d="M97.74,57.82c.28-.02,1.19.14,1.22.22.01.05-.19.13-.65.23-.61.14-.7.17-1.01.43-.38.33-.48.66-.33,1.16.11.37.35.52,1.02.6.57.08,1.32.3,1.35.4.01.04.12.13.25.19.24.13.59.7.64,1.07.09.71-.23,1.39-.76,1.6-.17.07-.45.2-.62.27-.23.11-.35.13-.51.08-.12-.03-.24-.04-.27,0-.07.08-.6-.07-.8-.23-.09-.08-.17-.2-.16-.26.01-.19.26-.19.7-.01.39.17.46.17.86.05.33-.1.48-.18.62-.36.5-.61.25-1.46-.61-2.05-.16-.11-.31-.24-.33-.29-.05-.16-.26-.2-.66-.13-.34.06-.45.04-.82-.16-.43-.23-.44-.24-.56-.65-.1-.33-.1-.51-.02-.85.12-.53.27-.71.83-1.05.23-.15.51-.27.61-.28Z"/>
      <path class="cls-13" d="M103.47,56.82c.16.01.44.12.62.23.29.18.35.26.51.7.23.61.27,1.01.13,1.5-.13.46-.36.76-.71.89-.14.06-.32.15-.39.21s-.32.16-.56.23l-.43.12.33,2.11-.51.1-.32-1.4c-.72-3.19-.82-3.64-.92-3.87-.11-.28-.07-.34.28-.5.28-.14,1.59-.33,1.96-.29ZM102.39,57.26c-.07.05-.12.08-.12.05,0-.02-.09.03-.2.1-.15.12-.18.22-.17.47.01.34.5,2.25.61,2.36.09.1.7-.13,1.06-.41.51-.41.72-.95.56-1.56-.18-.74-.43-1.13-.68-1.08-.07.01-.24,0-.36-.04-.26-.08-.54-.04-.7.1Z"/>
      <path class="cls-13" d="M109.15,55.77c.77.15,1.19.51,1.28,1.07.09.64-.22,1.13-1.2,1.91l-.17.13.49.82c.27.45.6.96.74,1.12.13.17.25.35.26.4,0,.05.07.16.13.22.17.18.17.38,0,.45-.15.07-.45-.03-.46-.14,0-.06-.22-.36-1.02-1.47-.28-.39-.27-.62-.58-.94-.19-.21-.24-.23-.6-.2-.23.02-.41.07-.44.13-.02.05-.02.61.01,1.24l.06,1.14-.51.05-.24-2.7q-.24-2.69-.09-2.86c.1-.11.3-.2.6-.26.78-.16,1.3-.2,1.71-.11ZM108.63,56.12c-.57,0-.89.1-1.06.32-.15.19-.15.26-.08,1.2l.07,1h.24c.55,0,1.51-.57,1.59-.95.02-.1.08-.22.12-.28.04-.06.06-.26.04-.43-.02-.26-.08-.36-.31-.59-.23-.23-.33-.27-.61-.27Z"/>
      <path class="cls-13" d="M112.74,55.86c.17,0,.67.27.72.4.11.28.14,1.33.07,2.21-.04.52-.09,1.49-.11,2.13l-.03,1.18-.26-.02c-.52-.04-.51.01-.5-2.42,0-1.21-.03-2.43-.07-2.73-.04-.35-.04-.59,0-.65.04-.04.12-.09.18-.09Z"/>
      <path class="cls-13" d="M119.13,55.81c.14.11.14.17-.01,2.09-.13,1.7-.14,2.28-.07,3.44.01.23-.35.22-.54-.02-.19-.22-.55-.91-.74-1.41-.08-.2-.19-.4-.25-.47-.07-.06-.12-.13-.11-.17,0-.04-.11-.26-.24-.49-.14-.24-.34-.61-.46-.83-.32-.6-.39-.54-.5.48-.06.48-.13,1.27-.17,1.74-.07.95-.15,1.23-.37,1.21-.29-.02-.29-.14-.13-2.56.09-1.28.15-2.42.15-2.52-.02-.1.03-.2.11-.24.2-.11.66.43,1.33,1.58.89,1.52,1.08,1.8,1.18,1.81.11,0,.37-2.19.37-3.12,0-.3.02-.58.05-.6.09-.08.28-.04.43.08Z"/>
      <path class="cls-13" d="M124.78,56.96c.34.25.37.41.06.32-.93-.26-1.15-.3-1.42-.23-1.72.49-2.44,3.27-1.15,4.45.39.36,1.1.52,1.44.34.22-.12.23-.15.26-.57.04-.58-.08-.9-.39-1.02-.13-.05-.27-.16-.31-.24-.13-.26.09-.32.85-.24.92.11.95.14.78,1.16-.12.67-.15.76-.37.97-.26.27-.52.37-.84.31-.12-.02-.3-.01-.41.02-.41.11-1.4-.4-1.69-.87-.13-.22-.38-1.1-.43-1.55-.09-.72.14-1.42.76-2.32.39-.55.76-.82,1.28-.92.46-.09,1.17.09,1.57.38Z"/>
      <path class="cls-13" d="M132.85,59.14c.16.06.51.5.52.64,0,.3-.37,1.28-.76,2.07-.24.47-.65,1.34-.91,1.93l-.47,1.08-.23-.11c-.46-.23-.47-.18.45-2.43.45-1.12.89-2.27.97-2.56.09-.34.18-.56.25-.6.05-.03.14-.04.2-.02Z"/>
      <path class="cls-13" d="M137.77,61.05c.22.18.78.91.74.99-.02.05-.23-.04-.63-.28-.54-.32-.63-.35-1.03-.37-.51-.02-.8.15-1.03.63-.17.35-.09.62.34,1.14.36.44.76,1.12.71,1.21-.02.04,0,.18.05.31.09.26-.04.91-.26,1.22-.42.58-1.12.86-1.65.65-.17-.06-.46-.16-.64-.22-.24-.07-.35-.15-.43-.29-.06-.1-.15-.19-.2-.19-.11.01-.4-.46-.43-.71-.01-.12.01-.26.06-.3.14-.13.33.04.52.47.18.39.22.44.59.62.31.15.47.19.7.16.78-.1,1.17-.9.95-1.92-.04-.19-.06-.39-.04-.44.07-.14-.05-.32-.4-.54-.29-.19-.36-.28-.49-.68-.16-.46-.16-.48.03-.86.15-.31.27-.44.56-.63.45-.3.68-.33,1.32-.2.27.05.56.15.64.21Z"/>
      <path class="cls-13" d="M141.35,63.01c.11.2-.04.51-1.25,2.41-.61.96-1.11,1.8-1.11,1.85,0,.05.29.28.75.57.78.51.91.64.75.77-.07.05-.06.11.01.19.09.1.09.14-.02.17s-.3-.06-.92-.47c-.6-.39-.85-.52-1.05-.54-.29-.03-.45-.2-.49-.5-.04-.29.28-.85,1.02-1.78.44-.55.9-1.22,1.27-1.83.32-.53.62-.99.67-1.03.1-.08.25,0,.36.19ZM139.09,67.68c-.1-.07-.18-.07-.22,0-.08.12.19.26.31.17.04-.04.01-.1-.09-.16Z"/>
      <path class="cls-13" d="M147.32,67.21c.2.17.17.6-.05.86-.19.22-.56,1.2-.67,1.43-.06.13-.23.58-.39.97-.56,1.48-1.07,2.58-1.19,2.62-.1.03-.29-.21-.37-.47-.04-.13,0-.28.14-.48.3-.45.49-.96.43-1.12-.09-.23-.9-1.09-1.05-1.1-.15,0-.57.24-1.16.65-.73.53-.59.35-1.15.04-.14-.08-.23-.18-.22-.23,0-.09,1.09-.72,2.5-1.45.76-.39,2.14-1.2,2.45-1.42.13-.09.33-.21.46-.25.12-.05.25-.07.27-.05ZM146.27,68.64c-.05-.04-.36.09-.45.2-.03.03-.31.22-.63.43-.37.24-.58.41-.57.47.01.13.68.98.78.97.08,0,.84-1.57.91-1.86.01-.08,0-.18-.03-.21Z"/>
      <path class="cls-13" d="M152.84,73.24c.02.18-.03.22-1.53,1.43-1.32,1.08-1.75,1.46-2.54,2.32-.16.17-.4-.1-.36-.41.03-.28.28-1.03.51-1.51.09-.19.16-.41.16-.5,0-.09.02-.18.04-.2s.11-.26.19-.52c.08-.26.21-.67.28-.9.21-.65.13-.65-.69-.03-.39.29-1.01.78-1.37,1.07-.73.6-.99.74-1.14.57-.18-.22-.1-.3,1.76-1.86.99-.82,1.86-1.56,1.93-1.63.07-.08.17-.12.25-.09.22.07.14.77-.23,2.05-.48,1.69-.56,2.02-.49,2.1.07.08,1.84-1.24,2.51-1.88.22-.21.44-.38.47-.38.11.01.22.17.24.37Z"/>
      <path class="cls-13" d="M154.94,76.08c.29.5.63,1.47.64,1.85.03.5-.2,1.36-.46,1.78-.2.32-.28.39-.92.75-.56.32-.8.43-1.18.49-.73.13-1.1.09-1.45-.15-.35-.26-.85-.52-1.12-.97-.11-.17-.25-.36-.31-.41-.15-.11,0-.41-.13-.51-.11-.09-.03-.34.11-.36.17-.03,3.6-2.26,3.92-2.54.25-.23.32-.27.51-.25.19,0,.25.06.4.31ZM154.66,76.54c-.16-.06-.25-.02-1.55.74-1.67.97-2.57,1.61-2.59,1.84-.03.21.21.48.78.89.87.62,1.74.63,2.68,0,.58-.38.77-.7,1.06-1.81.15-.59.17-.77.08-.85-.07-.06-.1-.14-.07-.19.06-.11-.21-.54-.4-.63Z"/>
    </g>
  </g>
  <polygon class="cls-7" points="29.66 69.81 5.86 104.64 7.05 106.14 52.44 104.56 36.13 74.61 31.29 68.94 29.66 69.81 29.66 69.81"/>
  <path class="cls-5" d="M27.75,74.32c-.85.37-.24-.86-1.11-.49-.4.14-.18.86-1.04.6-.34,1.42-.67,2.83-2,3.34-.31,1.49.76,1.43,1.18,2.11-1.87,1.37-1.88,5.77-5.19,4.31.3.8,1.29.84,1.44,1.82-.72.37-1.24.51-1.59.62,1.14.94-.3.7-.75,1.38-1.15,1.79-1.77,4.6-3.79,5.05-.07,1.31-.55,2.25-1.77,2.51.67,1.4-.4.2-.78.85,1.73.33-1.11,1.19.1,1.89-1.91.4-1.45,2.97-2.77,3.92-.18-.47.25-1.61-.35-1.61,0,.42.09.93-.5.84-.29.89.88.16.6,1.05-1.11.27-.92,1.75-1.5,2.51,2.81-.62,7.38-.67,10.51-.53.05-.21-.02-.53.24-.55,10.46.96,18.79-.67,31.56-1.02-.58-2.83-3.09-4.19-4.07-5.74-.32-2.39-2.59-2.64-2.68-5.27-1.21.18-1.03-.96-.89-1.57-1.07.02-2.05-1.72-1.18-2.11-.85.46-.91-.16-1.64-.46-1.95-5.89-6.6-10.04-8.83-14.68.01.27-.46.35-.54.02.33-.04.63-.11.51-.56-.75.25-.72-.35-1.35-.21-1.31,1.82-1.89,4.3-4.07,5.33.57.93-.19,1.31-.71,1.93-.33-1.08-.06-2.1.4-3,.45-.02.19.74.58.78.06-1.16.99-3.36,1.78-2.25-.03-.37.09-.6.22-.82h0ZM43.49,86.79c1.6.23,1.17,2.67,2.84,2.83.05,1.74.95,2.56,2.05,3.14-.13,1.85.92,2.4,2.03,2.88.12.45-.18.51-.51.56.37.37,1.27.62.6,1.33.21-.16.43-.31.8-.32.13.54,0,.85-.49.84.54.68,2.08,2.15,1.21,2.64.28.46.88.56,1.64.46.15,2.2,1.37,3.24,1.37,5.61-.26-.15-1.03-.58-.79.31-.49-.51-1.88,0-1.94-.98-.6,1.07-1.85-.7-3.2.7-.82.14-.61-.85-.89-1.31-.77.27.38.67.07,1.35-.21-.18-.92-1.1-.82.04-3.76-.27-9.36-.29-12.69.08-.01-.26-.02-.54-.04-.81-1.22.72-2.64.85-3.77.18-.73,1.05-5.75,1.09-7.28.37-2.97,1.7-9.56.1-10.99,1.89-2.32-1.3-6.33.17-9.23-.89-.27-.85.18-1.04.47-1.37-1.09-.03-.45-.21-.63-1.86,1.27-.41,1.77-1.48,1.75-3.05,1.24.19.54-1.39,1.83-1.18-.23-.82-.22-.51-.07-1.35,1.83.21.72-2.26,2.32-2.28-.18-.26-.63-.24-.58-.78,1.08.3.5-.91,1.6-.62-.03-.45-.05-.9-.07-1.35.23-.22.6-.32,1.06-.32,1.58-4.07,4.53-6.88,6.23-10.85.93-.02,1.22-.61.99-1.67.79.03.8-.65,1.59-.62.65-3.62,4.09-4.7,4.72-8.34,2.96-.67,2.24-4.65,5.12-5.39-.18-.26-.62-.25-.57-.78.88-.06,1.32-.53,2.42-.4,1.2.86-.32,1.4,1.4,1.28-1.12,1.22.35,4.79,1.56,4.25.41.07.07,2.04,1.44,1.82-.15.84.33.97.36,1.6,3.47,2.9,4.13,8.9,7.61,11.78.11.45-.19.52-.53.57h0Z"/>
  <text class="cls-11" transform="translate(18.99 101.26) scale(.79 1)"><tspan x="0" y="0">30</tspan></text>
</svg>