<?xml version="1.0" encoding="UTF-8"?>
<svg id="Layer_1" data-name="Layer 1" xmlns="http://www.w3.org/2000/svg" viewBox="0 0 180 200">
  <defs>
    <style>
      .cls-1 {
        fill: #231f20;
      }

      .cls-1, .cls-2 {
        fill-rule: evenodd;
      }

      .cls-3, .cls-4 {
        fill: #fff;
      }

      .cls-2 {
        fill: #00a9c7;
      }

      .cls-5 {
        fill: #f7dd00;
      }

      .cls-6 {
        fill: #7f5023;
      }

      .cls-7 {
        fill: #e41f28;
      }

      .cls-4 {
        font-family: AmericanTypewriter-Bold, 'American Typewriter';
        font-size: 19.28px;
        font-weight: 700;
      }

      .cls-8 {
        letter-spacing: -.04em;
      }

      .cls-9 {
        fill: #c19764;
      }

      .cls-10 {
        fill: #2a91cd;
      }

      .cls-11 {
        letter-spacing: .02em;
      }
    </style>
  </defs>
  <polygon class="cls-2" points="35.62 77.63 11.82 112.46 13.01 113.96 58.4 112.38 42.09 82.43 37.25 76.76 35.62 77.63 35.62 77.63"/>
  <path class="cls-1" d="M33.71,82.14c-.85.37-.24-.86-1.11-.49-.4.14-.18.86-1.04.59-.34,1.42-.67,2.83-2,3.34-.31,1.49.76,1.43,1.18,2.1-1.87,1.37-1.88,5.77-5.19,4.31.3.8,1.29.84,1.44,1.82-.72.37-1.24.51-1.59.62,1.14.94-.3.7-.75,1.39-1.15,1.79-1.77,4.6-3.79,5.05-.07,1.31-.55,2.25-1.77,2.51.67,1.4-.4.2-.78.85,1.73.33-1.11,1.19.1,1.89-1.91.41-1.45,2.98-2.77,3.92-.18-.47.25-1.61-.35-1.61,0,.43.09.93-.5.84-.29.89.88.16.6,1.05-1.11.27-.92,1.75-1.5,2.51,2.81-.62,7.38-.67,10.51-.52.05-.21-.02-.53.24-.55,10.46.95,18.79-.67,31.56-1.02-.58-2.83-3.09-4.19-4.07-5.74-.32-2.4-2.59-2.64-2.68-5.27-1.21.18-1.03-.96-.89-1.57-1.07.02-2.05-1.72-1.18-2.11-.85.46-.91-.16-1.64-.46-1.95-5.88-6.6-10.04-8.83-14.68.01.27-.46.35-.54.02.33-.04.63-.11.51-.56-.75.26-.72-.35-1.35-.2-1.31,1.82-1.89,4.3-4.07,5.33.57.92-.19,1.31-.71,1.93-.33-1.07-.06-2.1.4-2.99.45-.02.19.74.58.78.06-1.16.99-3.36,1.78-2.25-.03-.37.09-.59.22-.82h0ZM49.45,94.61c1.6.23,1.17,2.67,2.84,2.83.05,1.75.95,2.56,2.05,3.14-.13,1.85.92,2.4,2.03,2.88.12.45-.18.51-.51.56.37.37,1.27.61.6,1.32.21-.16.43-.31.8-.31.13.54,0,.85-.49.84.54.69,2.08,2.15,1.21,2.64.28.46.88.55,1.64.46.15,2.2,1.37,3.24,1.37,5.61-.26-.15-1.03-.58-.79.31-.49-.51-1.88-.01-1.94-.99-.6,1.07-1.85-.7-3.2.7-.82.14-.61-.86-.88-1.31-.77.27.38.66.07,1.35-.21-.18-.92-1.1-.82.04-3.76-.27-9.36-.29-12.69.08-.01-.26-.02-.53-.04-.8-1.22.72-2.64.85-3.77.18-.73,1.05-5.75,1.09-7.28.37-2.97,1.71-9.56.1-10.99,1.89-2.32-1.3-6.33.17-9.23-.89-.27-.85.18-1.04.47-1.38-1.09-.03-.45-.2-.63-1.86,1.27-.41,1.77-1.48,1.75-3.06,1.24.19.54-1.39,1.83-1.18-.23-.82-.22-.5-.07-1.35,1.83.21.72-2.26,2.32-2.28-.18-.26-.63-.24-.58-.78,1.08.29.5-.91,1.6-.62-.03-.45-.05-.9-.07-1.35.23-.22.6-.32,1.06-.32,1.58-4.07,4.53-6.88,6.23-10.85.93-.02,1.22-.6.99-1.67.79.03.8-.65,1.59-.62.65-3.62,4.09-4.7,4.72-8.34,2.96-.67,2.24-4.65,5.12-5.39-.18-.26-.62-.25-.57-.78.88-.06,1.32-.53,2.42-.39,1.2.86-.32,1.4,1.4,1.28-1.12,1.22.35,4.79,1.56,4.25.41.07.07,2.03,1.44,1.82-.15.83.33.97.36,1.6,3.47,2.9,4.13,8.89,7.61,11.78.11.45-.19.52-.53.57h0Z"/>
  <text class="cls-4" transform="translate(26.21 108.74) scale(.79 1)"><tspan class="cls-8" x="0" y="0">3</tspan><tspan class="cls-11" x="11.78" y="0">1</tspan></text>
  <g>
    <path class="cls-3" d="M172.75,98.76c.05,2.9.08,5.77-.81,8.6-.43,1.36-.42,2.85-.73,4.26-1.54,7.05-4.89,13.3-8.72,19.32-1.63,2.56-3.67,4.73-6.28,6.41-4.39,2.83-8.63,5.92-13.48,7.92-2.84,1.17-5.77,2.13-8.7,3.05-2.52.79-5.12,1.29-7.63,2.09-4.25,1.34-8.57,1.15-12.9.77-5.89-.52-11.32-2.82-16.92-4.44-.12-.03-.23-.09-.34-.16-5.3-3.08-11.16-5.27-15.38-10.03-3.47-3.91-6.86-7.87-9.25-12.57-3.2-6.31-5.63-12.89-7.09-19.82-.19-.92-.3-1.87-.36-2.8-.51-7.78-.43-15.5,2.49-22.89,2.5-6.32,6.17-11.93,10.47-17.18,2-2.44,3.94-4.93,6.48-6.83,1.66-1.24,3.38-2.4,5.16-3.45,2.43-1.44,4.9-2.84,7.44-4.06,1.86-.89,3.86-1.5,5.82-2.17.49-.17,1.07-.07,1.6-.11.36-.03.77,0,1.08-.15,2.41-1.27,5.03-1.65,7.68-1.64,4.21,0,8.47-.15,12.61.43,3.76.52,7.42,1.86,11.09,2.95,5.45,1.63,10.66,3.86,15.22,7.32,2.81,2.12,5.53,4.38,8.09,6.79,3.4,3.21,5.59,7.29,7.24,11.6,1.71,4.46,3.19,9,4.68,13.54,1.16,3.56,1.5,7.26,1.48,10.99,0,.76,0,1.51,0,2.27Z"/>
    <path d="M92.6,73.78c-.81.72-1.52,1.36-2.25,2-.45.39-.93.44-1.43.07-1.07-.79-2.24-1.47-3.2-2.38-1.58-1.5-3.03-3.14-4.53-4.72-.47-.49-.81-1.04-.68-1.73.06-.33.22-.7.46-.92,1.49-1.36,2.95-2.76,4.53-4.01,1.32-1.04,2.76-1.96,4.23-2.79.59-.34,1.39-.43,2.09-.41,1.36.04,2.14.81,2.09,2.16-.04,1.15-.36,2.29-.57,3.44-.05.26-.19.51-.31.84.35.04.63.04.89.11.77.21,1.58.36,2.27.71.86.44,1.64,1.03,2.41,1.61.73.56.71,1.15-.05,1.65-.84.55-1.74,1.02-2.67,1.56-.44-.41-.84-.8-1.25-1.17-.39-.35-.77-.72-1.2-1-1.49-.97-3.3-.26-3.84,1.41-.25.77.04,1.26.57,1.69.47.38.99.7,1.48,1.06.31.23.6.5.97.81ZM89.62,63.23c-1.57-.25-2.66.38-3.65,1.35-.73.72-.98,1.52-.68,2.52.21.7.52,1.28,1.3,1.43.81.15,1.28-.36,1.64-.97.77-1.29,1.27-2.68,1.39-4.33Z"/>
    <path d="M85.02,82.56c-.19-.51-.32-.87-.46-1.22-.25-.64-.45-1.31-.79-1.89-.52-.9-1.43-1.07-2.11-.3-1.37,1.55-2.24,3.37-2.29,5.48-.03,1.04.55,1.41,1.58,1.24.94-.16,1.88-.32,3.01-.52-.17.39-.24.6-.34.79-.65,1.21-1.35,2.39-1.93,3.63-.28.59-.67.84-1.23.7-1.13-.28-2.38-.42-3.32-1.03-3.09-1.98-5.03-4.75-5.08-8.58,0-.57.02-1.13.04-1.7.08-1.67.91-2.85,2.28-3.78,4.85-3.3,9.84-1.63,12.88,2.26.41.53.58,1.09.22,1.68-.59.96-1.22,1.9-1.85,2.84-.08.12-.25.17-.61.4ZM76.26,83.79c.29-.19.45-.23.48-.32.69-2.13,1.8-4.05,2.94-5.95.05-.09,0-.23,0-.4-.97-.22-1.92-.22-2.86.08-.7.22-1.12.64-1.31,1.42-.34,1.39-.25,2.73.13,4.07.11.36.37.68.61,1.11Z"/>
    <path d="M150.3,72.09c-.06.91-.12,1.62-.16,2.34-.09,1.46-.65,2.75-1.45,3.93-.58.86-1.04.89-1.71.08-.64-.77-1.18-1.62-1.74-2.41.54-.75,1.06-1.36,1.44-2.06.32-.59.54-1.27.69-1.93.28-1.22-.36-2.26-1.48-2.53-1.07-.27-2.42.54-2.72,1.64-.05.19-.06.4-.12.59-.32,1.02-.67,1.14-1.53.55-.23-.16-.47-.31-.71-.46-1.26-.77-1.48-1.19-1.02-2.59.26-.79.69-1.55,1.15-2.25,1.13-1.72,2.33-3.4,3.47-5.11.44-.67.97-1.23,1.75-1.39.44-.09.97-.08,1.38.1.81.35,1.58.8,2.33,1.28.5.33.97.73,1.39,1.17,1.3,1.38,2.57,2.8,3.85,4.2.79.86,1.28,1.86,1.51,2.99.24,1.19-.45,2.33-1.61,2.4-1.51.09-3.07.38-4.69-.54ZM146.27,67.08c1.56,1.15,3.38,1.7,5.3,1.93.3.04.64-.31.95-.47-.98-2.79-1.85-3.54-3.94-3.47-1.23.04-1.9.6-2.31,2Z"/>
    <path d="M120.92,50.95c1.69-.05,3.34.15,4.82,1.1.25.16.47.46.57.74.48,1.29.87,2.64.68,4.02-.33,2.4-.73,4.78-1.16,7.16-.19,1.07-.41,1.19-1.49,1.14-1.09-.05-2.17-.16-3.26-.26-.1,0-.2-.12-.42-.25.19-.27.34-.53.53-.75.98-1.1,1.75-2.32,2.11-3.77.28-1.16-.13-1.81-1.3-1.96-1.8-.22-3.54-.21-5,1.16-.66.62-.97,1.25-.74,2.13.14.55.28,1.09.43,1.64.1.38.22.75.37,1.24-.89.12-1.67.29-2.46.32-.82.03-1.29-.59-1.69-1.21-.74-1.16-.97-2.49-1.09-3.81-.17-1.98-.14-3.96.27-5.91.11-.54.32-1.08.59-1.57.29-.53.66-.95,1.44-.83.49.07,1.03-.16,1.54-.26.81-.17,1.6-.14,2.39.21.16.61-.35.86-.65,1.19-.9.99-1.31,2.1-1.03,3.51.2.02.41.1.57.05,1.35-.41,2.72-.28,4.09-.27.62,0,1.43.25,1.77-.44.33-.67-.17-1.31-.56-1.88-.5-.72-1-1.44-1.51-2.16.06-.09.12-.18.18-.27Z"/>
    <path d="M133.27,53.37c4.12.9,10.26,3.6,11.15,4.95-.86.9-2.02,1.22-3.18,1.49-.42.1-.68-.18-.84-.54-.42-.99-1.26-1.43-2.23-1.68-.58-.15-1.17-.36-1.76-.41-.55-.04-1.14.01-1.66.19-.32.11-.67.49-.75.82-.13.49.36.68.75.78.62.16,1.27.22,1.9.38.82.21,1.64.43,2.42.74.28.11.53.47.64.77.14.4-.17.65-.51.84-.52.3-1.05.61-1.53.97-.48.37-.85.3-1.29-.05-.87-.68-1.78-1.25-2.97-1.11-1.55.18-2.09,1.22-1.29,2.56.79,1.32,2.08,1.71,3.49,1.84.52.05,1.05,0,1.58-.02.59-.02.91.22.9.85-.02.77.02,1.54-.04,2.3-.03.37-.22.73-.39,1.23-3.36-1.71-6.52-3.47-10.18-4.41.08-.84.07-1.61.25-2.33.48-2.02,1.33-3.91,2.4-5.67.94-1.54,1.68-3.24,3.16-4.49Z"/>
    <path d="M110.29,59.26c1.32,1.43,1.32,3.44.11,4.66-1.59,1.6-3.54,2.65-5.7,3.01-3.67.61-6.86-1.11-8.08-4.78-.31-.93-.32-1.93.02-2.87.9-2.49,2.44-4.4,4.84-5.66,2.21-1.15,4.5-1.46,6.93-1.11.69.1,1.12.45,1.36,1.04.25.6-.18,1.01-.55,1.37-.37.36-.8.69-1.24.95-.81.47-.96.4-1.64-.27-.23-.23-.59-.42-.91-.46-1.77-.2-3.6.93-4.37,2.65-.66,1.46-.17,3.86,1.06,4.92.31.27.78.5,1.18.5,1.05,0,2.11-.03,3.13-.25,1.32-.28,2.3-1.14,3.03-2.27.28-.44.53-.89.86-1.43Z"/>
    <path d="M106.87,137.35c.05.21.08.37.13.51.08.22.19.44.33.75.45-.05.89-.05,1.3-.15.98-.22,1.95-.52,2.94-.71.58-.11,1.2-.13,1.79-.06.59.07.89.51.92,1.11.05.91-.64,1.42-1.39.91-.91-.62-1.77-.5-2.62-.07-.3.15-.66.59-.64.88.02.27.45.63.78.74.35.13.79.05,1.18,0,.3-.04.59-.17,1.01-.31-.13,1.08-.62,1.77-1.49,2.14-1.49.62-2.89.4-4.03-.74-.63-.63-1.21-.72-2.05-.55-2.18.43-4.07-.32-5.66-1.8-.41-.38-.7-1.02-.8-1.58-.08-.39.12-1,.41-1.28.83-.78,1.77-1.43,3.02-1.3.15.02.32-.03.54-.06-.03-.17-.02-.33-.08-.46-.53-1.26-.13-2.4,1.15-2.8,1.66-.53,3.37-.51,4.97.25,1.6.77,1.68,2.64.19,3.56-.58.36-1.2.64-1.91,1.01ZM104.76,139.7c-.27-.47-.5-.97-.81-1.42-.31-.44-.74-.43-1.17-.14-.49.33-.57.72-.26,1.24.48.81,1.17.94,2.24.32ZM107.28,134.3c-.95-.74-1.52-.8-1.88-.25-.31.47-.12,1.23.35,1.46.52.25,1.06-.17,1.53-1.21Z"/>
    <path d="M91.5,123.81c.72.57,1.27,1.01,1.77,1.4-.19,1.16-1.45,1-1.84,1.89.27.1.52.19.77.28,2.46.88,3.32,4.18,1.6,6.09-.8.89-1.93.97-2.98,1.12-2.47.36-4.23-.93-5.77-2.66-.47-.53-.38-1.03.05-1.51.62-.69,1.24-1.38,1.88-2.05,1.46-1.5,2.94-2.98,4.51-4.57ZM92.3,130.09c-.11-.26-.22-.74-.48-1.13-.53-.8-1.12-.87-1.79-.18-.56.57-1.07,1.22-1.49,1.9-.41.65-.07,1.42.62,1.7,1.2.47,3.09-.77,3.15-2.28Z"/>
    <path d="M129.11,134.47c-.66.35-.99.53-1.3.69.33.56.79,1.05.91,1.61.3,1.4-.47,2.47-1.9,2.93-.8.26-1.61.53-2.39.85-.4.16-.82.4-.71,1.03.7.33,1.3-.04,1.91-.3.89-.37,1.77-.78,2.67-1.11.69-.25,1.54-.47,2.04.16.53.66-.04,1.37-.41,1.99-.06.1-.16.18-.3.34-1.68-.78-3.15.23-4.7.68-.95.28-1.88.4-2.85.13-.62-.18-1.14-.46-1.27-1.14-.13-.68.22-1.16.76-1.53.23-.16.46-.31.69-.47-.28-.53-.6-.99-.79-1.51-.41-1.13-.05-2.16,1.01-2.66.9-.43,1.86-.76,2.83-1.02.5-.14.87-.31,1.18-.74.72-1,.95-1.02,1.92-.27.15.12.35.18.7.34ZM126.35,136.85c-.28-.09-.51-.21-.74-.24-.71-.07-1.36.13-1.83.68-.23.27-.44.79-.01.92.58.17,1.26.19,1.85.05.57-.13.88-.65.73-1.42Z"/>
    <path d="M86.45,122.05c.53.58.9.98,1.28,1.39.35.38.36.81.14,1.24-.97,1.89-2.35,3.38-4.33,4.21-1.01.43-1.82.15-2.38-.8-.19-.32-.1-.8-.16-1.44-.11-.06-.42-.22-.73-.38-2.11-1.11-2.54-3.05-1.08-4.93.87-1.12,2.09-1.77,3.33-2.36.92-.43,1.5-.21,2.1.59.26.35.46.74.77,1.24-.7.26-1.28.49-1.88.68-1.23.39-1.95,1.24-2.25,2.47-.27,1.06.24,1.72,1.31,1.53,1.41-.24,2.52-1.03,3.27-2.27.18-.3.33-.63.61-1.18Z"/>
    <path d="M156.09,107.1c.27-.98.46-1.8.71-2.59.15-.48.56-.54.99-.42,1.26.33,2.28,1.04,3.02,2.09.88,1.23,1.56,2.55,1.59,4.12.03,1.37.06,2.74.07,4.11,0,.32-.09.64-.19.94-.26.74-.69.93-1.4.64-.41-.17-.8-.37-1.2-.57-.1-.05-.15-.18-.26-.33.29-1.13,1.12-2.21.57-3.68-.51.29-.96.52-1.38.79-.87.56-1.8.9-2.85.82-.77-.06-1.09-.38-1.06-1.15.03-.74.22-1.43.87-2.01.23.07.5.13.74.25.97.49,1.8.18,2.57-.45.64-.53.66-.87.09-1.52-.47-.53-1.05-.88-1.77-.96-.27-.03-.55-.04-1.12-.08Z"/>
    <path d="M153.19,123.11c1.16.97,1.4,1.99.95,3.32-.75,2.24-3.52,4.14-5.87,4.07-.58-.02-.98-.22-1.34-.68-2.08-2.67-.79-7.28,2.38-8.53.77-.3,1.5-.36,2.15.23.66.6.84,1.4.38,2.33-.42.87-.98,1.67-1.5,2.48-.48.75-.49.74-.31,1.76,2.55-.62,3.21-2.49,3.15-5ZM148.14,127.01c.87-1.19,1.59-2.18,1.79-3.5-1.65.01-2.38,1.36-1.79,3.5Z"/>
    <path d="M134.77,134.81c-1.2-.92-2.48-.35-3.27,1.34-1.1-.08-1.54-.76-1.01-1.64,1.45-2.43,4.73-2.62,6.18-1.23.32.31.67.6.92.96.67,1.01,1.32,2.03,1.93,3.07.42.7.29,1.07-.42,1.49-.03.02-.07.06-.1.06-1.47.22-2.64,1.14-3.95,1.74-.85.39-1.73.33-2.6.04-1.1-.36-1.61-1.36-1.07-2.39.36-.69.97-1.27,1.54-1.82.49-.47,1.08-.83,1.62-1.26.09-.07.13-.2.23-.37ZM135.31,136.29c-.46.36-.94.65-1.31,1.04-.19.2-.37.69-.26.83.22.28.65.6.95.55.53-.07,1.17-.28,1.48-.66.37-.44-.13-.96-.4-1.4-.06-.1-.18-.15-.46-.37Z"/>
    <path d="M76.96,114.43c-1.37.83-2.47.73-3.34-.18-.57-.59-.94-1.28-1.19-2.08-.5-1.62-.6-3.25-.24-4.9.37-1.68,1.59-2.27,3.05-1.83,2.08.63,3.3,2.1,4.15,3.95.35.76.53,1.61.7,2.43.17.82-.17,1.37-.74,1.41-.77.05-1.35-.52-1.25-1.35.15-1.33-.33-2.28-1.54-2.86-.65-.31-1.34-.38-1.96.03-.65.43-.59,1.13-.47,1.76.24,1.26,1.2,2.06,2.04,2.92.21.22.46.4.79.69Z"/>
    <path d="M152.44,117.26c.12-.75.18-1.52.38-2.25.29-1.01,1.21-1.45,2.05-1.07.99.44,1.1,1.27.25,1.94-1.53,1.22-1.4,2.97.37,3.83.67.33,1.45.46,2.19.58.86.14,1.07.39.77,1.19-.11.3-.26.59-.44.86-.99,1.5-1.82,1.73-3.31.73-1.06-.71-2.02-1.59-2.97-2.45-1.27-1.16-1.16-2.35.7-3.35Z"/>
    <path d="M74.66,118.27c1.53-1.46,2.99-2.79,4.85-3.52,1.08-.43,2.22-.72,3.35-1.01.92-.24,1.03-.17,1.44.61.22.42.35.88.57,1.43-.37.15-.64.31-.93.37-2.15.47-3.9,1.69-5.56,3.05-.39.32-.63.83-.96,1.24-.42.52-.76.56-1.17.04-.55-.68-1.03-1.42-1.59-2.2Z"/>
    <path d="M142.08,125.07c.96,1.44,1.85,2.82,2.8,4.16.95,1.35,2.26,2.32,3.9,3.19-.91.75-1.57,1.31-2.26,1.85-.49.39-.94.17-1.29-.2-.98-1.06-2.03-2.08-2.87-3.25-.72-1-1.29-2.14-1.72-3.29-.59-1.59-.27-2.02,1.44-2.45Z"/>
    <path d="M144.52,135.71c-.78.7-1.57,1.42-2.82,1.74-.43-.5-.94-1.01-1.35-1.59-.8-1.16-1.6-2.33-2.28-3.56-.44-.8-.73-1.7-.96-2.59-.38-1.46.27-2.2,2.01-2.28.51,1.55.71,3.28,1.93,4.56,1.14,1.19,2.24,2.41,3.46,3.73Z"/>
    <path class="cls-3" d="M89.62,63.23c-.12,1.65-.62,3.04-1.39,4.33-.36.61-.84,1.12-1.64.97-.77-.15-1.08-.73-1.3-1.43-.3-1-.06-1.8.68-2.52.99-.97,2.08-1.6,3.65-1.35Z"/>
    <path class="cls-3" d="M76.26,83.79c-.24-.43-.5-.75-.61-1.11-.39-1.34-.48-2.68-.13-4.07.19-.78.61-1.19,1.31-1.42.94-.3,1.88-.3,2.86-.08,0,.17.05.32,0,.4-1.15,1.9-2.25,3.83-2.94,5.95-.03.09-.19.13-.48.32Z"/>
    <path class="cls-3" d="M146.27,67.08c.41-1.4,1.09-1.96,2.31-2,2.09-.07,2.96.67,3.94,3.47-.3.16-.65.5-.95.47-1.92-.23-3.74-.78-5.3-1.93Z"/>
    <path class="cls-3" d="M104.76,139.7c-1.07.62-1.76.49-2.24-.32-.31-.53-.24-.91.26-1.24.42-.28.86-.3,1.17.14.31.45.55.95.81,1.42Z"/>
    <path class="cls-3" d="M107.28,134.3c-.47,1.04-1.01,1.46-1.53,1.21-.47-.23-.66-.98-.35-1.46.36-.56.93-.5,1.88.25Z"/>
    <path class="cls-3" d="M92.3,130.09c-.06,1.51-1.95,2.76-3.15,2.28-.69-.27-1.02-1.05-.62-1.7.42-.68.93-1.32,1.49-1.9.68-.69,1.26-.62,1.79.18.26.39.37.88.48,1.13Z"/>
    <path class="cls-3" d="M126.35,136.85c.15.77-.15,1.28-.73,1.42-.59.14-1.28.12-1.85-.05-.42-.13-.22-.65.01-.92.47-.55,1.12-.75,1.83-.68.23.02.45.14.74.24Z"/>
    <path class="cls-3" d="M148.14,127.01c-.59-2.14.14-3.49,1.79-3.5-.2,1.32-.92,2.32-1.79,3.5Z"/>
    <path class="cls-3" d="M135.31,136.29c.28.22.4.28.46.37.27.44.77.95.4,1.4-.32.38-.96.58-1.48.66-.3.04-.74-.28-.95-.55-.11-.14.07-.63.26-.83.38-.39.85-.69,1.31-1.04Z"/>
    <g>
      <circle class="cls-5" cx="117.31" cy="98.89" r="10.02"/>
      <path d="M147.01,95.33h.02c-.08-.6-.19-1.18-.3-1.76,0-.04-.02-.07-.02-.11-.1-.5-.21-.98-.34-1.46-.04-.16-.07-.33-.11-.49-.01-.06-.05-.11-.07-.17-1.01-3.57-2.49-6.31-3.56-7.98-.07-.15-.15-.3-.26-.46-1.88-2.82-4.16-5.22-6.83-7.16-6.68-4.85-14.06-6.63-22.03-5.46-7.94,1.17-14.61,4.95-19.67,11.65-5.08,6.73-7.04,14.44-5.5,22.99,1.26,7.03,4.66,12.78,10.01,17.02,9.51,7.54,19.96,8.82,30.89,4.25,8.1-3.39,13.79-9.57,16.67-18.47,1.32-4.09,1.67-8.24,1.11-12.41ZM138.12,102.8c-.92,5.25-3.46,9.41-7.48,12.51-4.86,3.75-10.3,5.04-16.21,4.1-4.74-.75-8.85-2.9-12.2-6.59-3.54-3.89-5.43-8.58-5.32-14.02.13-6.03,2.53-10.98,6.9-14.74,5.09-4.37,10.95-5.88,17.37-4.74,5.98,1.06,10.77,4.21,14.21,9.61.08.12.72,1.32,1.1,1.98.1.23.18.4.18.4l.92,2.76c.8,2.84,1.04,5.75.52,8.74Z"/>
      <path class="cls-10" d="M138.95,96.44h.01c-.06-.44-.14-.86-.22-1.28,0-.03-.01-.05-.02-.08-.07-.36-.16-.71-.24-1.06-.03-.12-.05-.24-.08-.36-.01-.04-.03-.08-.05-.12-.73-2.59-1.81-4.58-2.59-5.8-.05-.11-.11-.22-.19-.33-1.37-2.05-3.02-3.79-4.96-5.2-4.85-3.52-10.21-4.81-16-3.96-5.76.85-10.61,3.59-14.28,8.46-3.69,4.89-5.11,10.49-4,16.7.92,5.11,3.38,9.28,7.27,12.36,6.91,5.48,14.49,6.41,22.44,3.09,5.89-2.46,10.02-6.95,12.11-13.41.96-2.97,1.21-5.99.8-9.01ZM131.92,101.77c-.64,3.66-2.42,6.57-5.22,8.74-3.39,2.62-7.19,3.52-11.32,2.87-3.31-.53-6.18-2.03-8.52-4.6-2.47-2.72-3.79-5.99-3.71-9.79.09-4.21,1.76-7.67,4.82-10.3,3.56-3.05,7.65-4.11,12.13-3.31,4.17.74,7.52,2.94,9.93,6.71.06.09.51.92.77,1.38.07.16.13.28.13.28l.64,1.93c.56,1.99.73,4.02.36,6.1Z"/>
      <path class="cls-7" d="M132.18,97.37h.01c-.04-.3-.09-.59-.15-.87,0-.02,0-.04-.01-.06-.05-.25-.11-.49-.17-.72-.02-.08-.03-.16-.06-.24,0-.03-.02-.06-.03-.08-.5-1.77-1.24-3.13-1.77-3.97-.04-.07-.08-.15-.13-.23-.94-1.4-2.07-2.59-3.39-3.56-3.32-2.41-6.98-3.29-10.94-2.71-3.94.58-7.26,2.46-9.77,5.78-2.53,3.34-3.5,7.17-2.73,11.42.63,3.49,2.31,6.35,4.97,8.46,4.73,3.75,9.91,4.38,15.35,2.11,4.03-1.68,6.85-4.75,8.28-9.17.66-2.03.83-4.09.55-6.16ZM126.27,100.83c-.39,2.22-1.47,3.98-3.16,5.29-2.06,1.59-4.36,2.13-6.86,1.74-2.01-.32-3.75-1.23-5.17-2.79-1.5-1.65-2.3-3.63-2.25-5.94.05-2.55,1.07-4.65,2.92-6.24,2.16-1.85,4.64-2.49,7.35-2.01,2.53.45,4.56,1.78,6.02,4.07.03.05.31.56.46.84.04.1.08.17.08.17l.39,1.17c.34,1.2.44,2.43.22,3.7Z"/>
      <g>
        <path class="cls-6" d="M162.69,79.6l.58-.4s-.9-1.12-1.22-1.26-.07-.25-.32-.14-.43.18-.97.5-1.84.54-1.87,1.04-.14.5-.07.86,0,.76.22,1.01.79.97.79.97c0,0,.32.07.47.07s1.53-.54,1.9-.49.94-.12.94-.12c0,0,.36-.94.29-1.15s0-.25-.25-.29-.47.11-.4-.11-.07-.5-.07-.5Z"/>
        <path class="cls-9" d="M117.89,99.79c-.4-.59.02-.75.35-.91,1.52-.77,3.04-1.55,4.57-2.29,4.65-2.21,9.31-4.41,13.97-6.61,1.43-.68,2.87-1.36,4.4-2.09.13.67.25,1.23.37,1.86-7.89,3.35-15.76,6.68-23.67,10.03Z"/>
        <path class="cls-7" d="M160.28,90.72c-.85-.36-1.68-.8-2.55-1.08-1.36-.43-2.76-.76-4.13-1.14-.31-.09-.78-.15-.89-.37-.37-.76-1.03-1.19-1.61-1.72-.15-.14-.22-.37-.37-.63.2-.06.34-.16.46-.14,1.03.24,2.07.44,3.07.77.67.22,1.39.51,1.87.99,1.11,1.12,2.41,1.95,3.71,2.8.17.11.34.24.51.36-.03.05-.05.11-.08.16Z"/>
        <path class="cls-9" d="M155.31,81.47c1.07-.59,1.99-1.1,2.84-1.58.47.94.9,1.8,1.37,2.77-.71.54-1.67.83-2.62,1.12-.47.14-.9-.07-1.07-.6-.17-.53-.33-1.08-.52-1.72Z"/>
        <path class="cls-7" d="M148.43,83.07c.41-1.77.93-3.29,2.01-4.63-.01.26-.03.53-.05.79-.09,1.2-.17,2.41-.3,3.61-.03.26-.17.61-.37.73-.51.31-1.08.5-1.63.75-.81-2.69-.83-3.96,0-4.71.2,1.12-.59,2.27.33,3.45Z"/>
        <path class="cls-7" d="M152.92,76.52c.03,1.22-.72,2.33-.19,3.61l.67-2.39c.27,1.46.09,2.85-.58,4.14-.16.31-.57.49-.97.66.01-2.11,0-4.17,1.06-6.02Z"/>
        <path class="cls-7" d="M148.53,91.52c-.1.03-.19.09-.23.06-.17-.08-.34-.17-.47-.3-.98-.97-1.96-1.95-3.02-3,.52-.2.93-.36,1.24-.49,1.18.97,2.29,1.89,3.41,2.81-.02.04-.04.09-.05.13-.58-.26-1.15-.52-1.73-.78-.05.06-.1.12-.15.18.34.46.67.92,1.01,1.38Z"/>
        <path class="cls-7" d="M144.12,83.5c.29.76.57,1.51.88,2.3-.27.21-.6.24-.71-.11-.21-.7-.31-1.43-.45-2.15.09-.02.19-.03.28-.05Z"/>
        <path d="M162.65,84.3c-1.73,1.18-3.76.89-5.24-.32,1.76-.57,3.23-1.73,5.09-1.99.73-.1,1.13-.75,1.13-1.49,0-.41-.22-.52-.57-.54-.03,0-.06-.1-.1-.15.15-.17.3-.34.5-.56-.22-.31-.4-.64-.64-.92-.75-.83-.94-.81-1.94-.25-1.26.71-2.54,1.36-3.82,2.02-.1.05-.25,0-.46,0,.52-.98,1.19-1.54,2.21-1.76,1.1-.23,1.3-.76.7-1.73-.59-.97-1.24-1.91-1.91-2.83-.43-.58-.84-.57-1.29,0-.25.31-.44.65-.79,1.18.05-.61.08-.96.13-1.6-.44.54-.72.83-.94,1.17-.31.47-.58.98-.87,1.46-.02.04-.1.05-.16.07-.05-.24-.1-.46-.17-.75-1.66,1.27-1.57,3.2-2.15,4.85-.26-1.22-.06-2.38.28-3.56-.28.22-.46.48-.64.74-.12.18-.2.48-.37.54-.92.33-1.14,1.17-1.48,1.92-.22.49-.42.99-.62,1.49-.07-.02-.15-.05-.22-.07.12-.67.24-1.34.37-2.04-1.33.29-1.55.5-1.49,1.65.05.91.22,1.81.33,2.71.04.31.05.61.07.92-.94-.95-.58-2.19-.93-3.23-.63-.04-.81.29-.81.77,0,.64,0,1.27,0,1.91-.05,0-.11,0-.16,0l-.29-1.72c-.08-.02-.16-.04-.25-.07-.21.33-.41.65-.62.99-.14-.04-.4-.18-.49-.11-.27.21-.49.28-.69.27l-.44,1.19-.17.82c.21.94-.27,1.76-1.4,2.26-.86.38-12.68,6-14.51,6.87,0,0,0,0,0,0-1.25.62-2.36,1.17-3.17,1.57l-6.09,3.04-.17.53.37.5s13.77-5.76,15.46-6.55c.03.07,6.57-2.63,6.55-2.67.96-.35,1.78-.66,2.6-.94.61-.21,1.17-.15,1.69.31.38.34.88.55,1.28.87l1.8.6c-.03-.17-.06-.36-.1-.6,1.16,1.05,1.39,1.12,2.54.73-.4-.25-.72-.45-1.04-.65.78-.17,1.43.35,2.22-.05-.33-.24-.58-.4-.8-.59-.19-.17-.35-.38-.66-.71.73.16,1.21.27,1.92.43-.38-.72-1.25-.85-1.03-1.67,1.02.67,2.05,1.27,3,1.98,1.01.75,2.89.79,4.01-.09-.84-.4-1.63-.79-2.42-1.17.2-.13.36-.17.49-.12,1.38.52,2.77,1.01,4.12,1.6.58.25,1.09.37,1.82.03-1.38-1.07-2.95-1.66-4.23-3.04,1.6.85,2.96,1.58,4.34,2.29.5.26,1.03.48,1.53-.05-.26-.62-1.19-.33-1.37-1.13.86.18,1.65.35,2.52.53.4-2.06-1.18-3.33-1.4-5.06ZM117.89,99.79c-.4-.59.02-.75.35-.91,1.52-.77,3.04-1.55,4.57-2.29,4.65-2.21,9.31-4.41,13.97-6.61,1.43-.68,2.87-1.36,4.4-2.09.13.67.25,1.23.37,1.86-7.89,3.35-15.76,6.68-23.67,10.03ZM144.29,85.7c-.21-.7-.31-1.43-.45-2.15.09-.02.19-.03.28-.05.29.76.57,1.51.88,2.3-.27.21-.6.24-.71-.11ZM149.45,90.61s-.04.09-.05.13c-.58-.26-1.15-.52-1.73-.78-.05.06-.1.12-.15.18.34.46.67.92,1.01,1.38-.1.03-.19.09-.23.06-.17-.08-.34-.17-.47-.3-.98-.97-1.96-1.95-3.02-3,.52-.2.93-.36,1.24-.49,1.18.97,2.29,1.89,3.41,2.81ZM150.4,79.23c-.09,1.2-.17,2.41-.3,3.61-.03.26-.17.61-.37.73-.51.31-1.08.5-1.63.75-.81-2.69-.83-3.96,0-4.71.2,1.12-.59,2.27.33,3.45.41-1.77.93-3.29,2.01-4.63-.01.26-.02.53-.05.79ZM159.65,79.11c.39-.13.75-.37,1.11-.57.33-.19.64-.4,1.07-.66.36.34.71.68,1.28,1.23-1.46.11-2.89-.33-3.47,1.4,1.23-.06,2.38-.12,3.54-.17-.04,1.1-.16,1.26-1,1.45-.41.09-.82.16-1.22.27-.78.22-1.53-.11-1.81-.88-.35-.96-.26-1.81.5-2.06ZM152.92,76.52c.03,1.22-.72,2.33-.19,3.61.22-.8.45-1.59.67-2.39.27,1.46.09,2.85-.58,4.14-.16.31-.57.49-.97.66.01-2.11,0-4.17,1.06-6.02ZM159.84,90.2c.17.11.34.24.51.36-.03.05-.05.11-.08.16-.85-.36-1.68-.8-2.55-1.08-1.36-.43-2.76-.76-4.13-1.14-.31-.09-.78-.15-.89-.37-.37-.76-1.03-1.19-1.61-1.72-.15-.14-.22-.37-.37-.63.2-.06.34-.16.46-.14,1.03.24,2.07.44,3.07.77.67.22,1.39.51,1.87.99,1.11,1.12,2.41,1.95,3.71,2.8ZM156.9,83.78c-.47.14-.9-.07-1.07-.6-.17-.53-.33-1.07-.52-1.72,1.07-.59,1.99-1.1,2.84-1.58.47.94.9,1.8,1.37,2.77-.71.54-1.67.83-2.62,1.12Z"/>
      </g>
      <polygon class="cls-7" points="143.04 85.1 143.41 86.84 141.87 87.64 142.24 85.89 142.67 85.84 142.61 85.05 143.04 85.1"/>
      <polygon class="cls-7" points="142.24 89.7 144.09 91.07 144.3 90.54 145.37 91.04 145.31 90.54 146.1 90.7 143.72 88.69 142.24 89.7"/>
      <path d="M116.94,98.26l.42.35s.29.24.23.4c-.06.17.06.63.06.63l.21.26.21.16.18.24.14.26-.03.4s-.05-.36-.46-.79-.52-.15-.55-.58.05-.46-.05-.7-.2-.34-.37-.63Z"/>
    </g>
  </g>
</svg>