<?xml version="1.0" encoding="UTF-8"?>
<svg id="Layer_1" data-name="Layer 1" xmlns="http://www.w3.org/2000/svg" viewBox="0 0 180 200">
  <defs>
    <style>
      .cls-1, .cls-2 {
        fill: #fff;
      }

      .cls-1, .cls-3, .cls-4, .cls-5, .cls-6, .cls-7, .cls-8 {
        fill-rule: evenodd;
      }

      .cls-9 {
        fill: none;
        stroke: #231f20;
        stroke-miterlimit: 1;
        stroke-width: 2.24px;
      }

      .cls-2 {
        font-family: AmericanTypewriter-Bold, 'American Typewriter';
        font-size: 19.28px;
        font-weight: 700;
        letter-spacing: .02em;
      }

      .cls-3 {
        fill: #231f20;
      }

      .cls-4 {
        fill: #1da2b8;
      }

      .cls-5 {
        fill: #bd2625;
      }

      .cls-6 {
        fill: #ed2d2c;
      }

      .cls-7 {
        fill: #f7de97;
      }

      .cls-8 {
        fill: #0e7584;
      }
    </style>
  </defs>
  <polygon class="cls-6" points="35.47 84.42 10.91 118.49 12.06 120.01 57.26 119.58 41.79 89.37 37.11 83.61 35.47 84.42 35.47 84.42"/>
  <path class="cls-3" d="M33.5,88.9c-.86.35-.22-.87-1.09-.52-.42.13-.21.86-1.05.57-.37,1.4-.74,2.8-2.08,3.28-.36,1.48.71,1.45,1.13,2.12-1.9,1.32-2.01,5.7-5.27,4.16.28.81,1.26.87,1.39,1.85-.71.34-1.24.47-1.59.57,1.12.96-.32.69-.78,1.36-1.19,1.75-1.88,4.54-3.91,4.93-.1,1.31-.6,2.24-1.82,2.47.64,1.4-.4.18-.79.83,1.72.37-1.13,1.15.05,1.88-1.92.36-1.51,2.92-2.86,3.83-.16-.46.28-1.58-.31-1.6-.01.42.07.93-.52.82-.3.87.88.18.57,1.05-1.12.25-.95,1.72-1.56,2.47,2.81-.55,7.37-.48,10.48-.25.05-.21-.01-.53.25-.55,10.38,1.21,18.72-.2,31.43-.22-.51-2.84-2.97-4.25-3.91-5.82-.26-2.4-2.5-2.69-2.54-5.31-1.2.15-1.01-.98-.84-1.59-1.07,0-1.99-1.76-1.13-2.12-.85.43-.89-.18-1.62-.5-1.79-5.9-6.32-10.15-8.42-14.84,0,.27-.47.35-.53,0,.32-.04.62-.09.52-.54-.76.23-.71-.37-1.35-.24-1.34,1.78-1.98,4.23-4.18,5.21.55.94-.23,1.3-.75,1.9-.3-1.07,0-2.09.46-2.96.44-.01.17.74.55.79.09-1.16,1.07-3.32,1.83-2.2-.01-.37.11-.6.25-.81h0ZM48.86,101.69c1.58.27,1.1,2.7,2.76,2.89,0,1.74.87,2.58,1.96,3.18-.17,1.83.86,2.4,1.95,2.91.12.45-.19.5-.52.55.37.37,1.24.64.57,1.33.22-.15.44-.29.8-.29.1.54-.03.84-.52.82.52.69,2.03,2.19,1.13,2.65.26.46.86.57,1.63.5.1,2.2,1.27,3.25,1.21,5.61-.25-.16-1-.61-.79.29-.47-.52-1.87-.06-1.91-1.03-.62,1.05-1.82-.75-3.21.62-.81.11-.57-.86-.84-1.33-.77.26.36.67.03,1.35-.21-.18-.88-1.11-.8.02-3.74-.35-9.31-.52-12.63-.23,0-.27-.01-.53-.02-.81-1.23.68-2.65.78-3.77.09-.74,1.03-5.74.93-7.25.18-2.99,1.62-9.5-.14-10.98,1.6-2.27-1.36-6.29.01-9.15-1.12-.26-.85.2-1.03.5-1.36-1.08-.06-.45-.21-.58-1.86,1.26-.37,1.8-1.42,1.81-3,1.24.22.58-1.37,1.86-1.12-.21-.82-.21-.5-.04-1.34,1.82.25.78-2.23,2.37-2.2-.18-.26-.63-.26-.56-.79,1.07.32.52-.89,1.6-.57-.02-.44-.02-.9-.04-1.34.24-.21.6-.31,1.07-.29,1.68-4.01,4.69-6.72,6.46-10.63.94,0,1.24-.58,1.04-1.63.79.05.81-.63,1.6-.58.74-3.57,4.19-4.58,4.91-8.18,2.96-.59,2.35-4.57,5.24-5.23-.18-.27-.62-.27-.56-.8.88-.03,1.34-.49,2.41-.32,1.18.89-.35,1.38,1.38,1.31-1.15,1.19.22,4.76,1.44,4.26.4.08.02,2.04,1.39,1.85-.17.83.3.97.31,1.6,3.38,2.97,3.89,8.96,7.28,11.91.11.45-.2.51-.53.55h0Z"/>
  <g>
    <path class="cls-1" d="M157.96,37.68c.02-.1.2-.07.33-.09-.05.26.2.77-.33.63.18,0,.44-.58,0-.54h0Z"/>
    <path class="cls-1" d="M115.7,48.42c.42.38.55.99.55,1.72-.15-.24-.48-1.11-.55-1.72h0Z"/>
    <path class="cls-3" d="M108.95,66.12c.29.63.49,1.34,1.08,1.72,1.1-2.35.81-6.32-2.5-6.59-.38,1.98.53,3.66,1.41,4.87h0ZM109.93,60.71c.13.26.1.64.21.9.1.13.28.2.55.18,1.17,2.2,1.14,5.86-.44,7.68-1-.14-1.22-.92-2.06-1.18-.09-.34.13-.43.1-.73-.93-1.98-2.4-3.95-1.85-6.86.87-.89,2.46-.57,3.48,0h0Z"/>
    <path class="cls-3" d="M113.74,67.75c1.03.32,1.25-.59,1.96-.81.43-1.23,2.3-3.54.22-4.43-.23-.23-.08-.77-.54-.81-.73,1.84-1.38,3.65-1.64,6.05h0ZM116.13,60.35c.5,1.01,1.43,1.65,1.86,2.71-.04,1.68-.73,3.45-2.07,4.34-.1.21,0,.29-.11.63-.46.28-.91.56-1.19.99h-1.2c-1.66-1.12-.43-3.88.22-5.23.33-1.51.17-3.88,2.5-3.44h0Z"/>
    <path class="cls-7" d="M107.53,61.25c3.32.26,3.6,4.24,2.5,6.59-.59-.37-.79-1.08-1.08-1.72-.89-1.22-1.8-2.9-1.42-4.87h0Z"/>
    <path class="cls-7" d="M115.38,61.7c.46.05.31.58.54.81,2.08.89.22,3.19-.22,4.43-.71.22-.93,1.14-1.96.81.26-2.4.91-4.21,1.64-6.05h0Z"/>
    <path class="cls-3" d="M130.51,85c.61.1,1.34.09,1.75.36,2.38.17,3.7,1.2,5.55,1.81,0,.39.56.31.44.81,1.46.41,2.13,1.48,2.72,2.62-.39.13.16.35.11.72,1.01.28,1.74.78,1.85,1.81,1.14,0,1.12,1.55,1.63,2.35.94.18,1.5.4,2.51.36.72.54,1.88,1.1,3.26.81-.04-1.1-.45-1.91-.43-3.07-.55-.93-.75-2.14-.98-3.34-2.22-1.38-3.3-3.71-6.1-4.61-.1-.25-.29-.42-.55-.54-.47.84-.21,2.29-1.96,2.08-.08-.32-.35-.5-.65-.63.04-.21-.2-.2-.11-.45-.8-.57-1.36-1.34-1.52-2.44-.42-.49-1.02-.84-1.31-1.45-.51-.02-.74-.28-.87-.63-1.84-.32-2.49-.57-4.14-.9-.17.32-.51.11-.76,0-.86.92-.03,2.92-.44,4.34h0ZM132.48,79.67v.27c.18.03.2-.07.21-.19,1.36.65,3.24.17,3.93,1.09.12-.02.07-.17.21-.18.37.11.28.61.87.54-.08.28.19.27.11.55,1.68.29,1.72,2.65,2.83,3.7.2-.47.33-1,.44-1.53.28-.1.75-.04.87-.27.34.08.47.34.98.27-.02.47.61.39.66.81,1.64.38,2.48,1.43,3.81,2.08.74,1.31,2.27,1.97,2.94,3.34.04.36-.05.83.33.9.38,1.32.46,2.92.76,4.33.2.87.78,1.24,0,1.9-.66-.21-1.2.52-1.41.09-.47.45-.75.25-1.2.45-.52-.27-1.09-.49-1.42-.9-1.34.23-2.79-.42-4.14-.72-.02-.23-.02-.47-.33-.45.09-1.34-.8-1.86-1.2-2.8-1.32-.62-2.37-1.46-2.61-2.98-.43-.06-.48-.45-.98-.46-.75-1.37-2.45-1.94-4.25-2.44-.39-.49-1.22-.62-1.96-.81-.4-.1-.17.34-.54.27-.5-.76-1.92-.2-2.51-.81.5-1.65.42-2.97.33-4.6-.51-.38-.51-.98,0-1.36,1.18.05,2.06-.15,3.27-.09h0Z"/>
    <path class="cls-7" d="M130.95,80.66c.24.11.58.32.76,0,1.65.34,2.29.58,4.14.9.13.35.36.61.87.63.29.61.88.96,1.31,1.45.16,1.1.72,1.87,1.52,2.44-.09.25.15.24.11.45.31.14.57.31.65.63,1.74.21,1.49-1.23,1.96-2.08.26.11.44.29.55.54,2.8.89,3.88,3.23,6.1,4.61.23,1.2.43,2.41.98,3.34-.02,1.15.39,1.96.44,3.07-1.38.29-2.54-.26-3.26-.81-1,.04-1.57-.18-2.51-.36-.51-.8-.5-2.35-1.63-2.35-.1-1.03-.84-1.53-1.85-1.81.05-.37-.5-.59-.11-.72-.59-1.14-1.26-2.21-2.72-2.62.12-.49-.44-.42-.44-.81-1.86-.6-3.17-1.64-5.56-1.81-.4-.27-1.13-.26-1.74-.36.4-1.41-.43-3.42.43-4.34h0Z"/>
    <path class="cls-3" d="M90.01,82.47c-3.42.66-4.69,3.1-5.56,5.87-.46.07-.53.47-.87.63-2.42-.2-2.64-2.64-2.39-4.52-3.22.71-4.91,2.68-6.87,4.43,0,.67.09,1.25.55,1.53-.34.07-.33.45-.87.36.02,2.04-.71,3.46-.55,5.6h1.2c.18,0,.06-.26.22-.27,1.81-.35,3.7-.29,5.66-.36-.01-1.07.37-1.8.44-2.8.59-.36.84-.99,1.09-1.62.56-.17.73-.61,1.2-.9.53-.33,1.26-.47,1.73-.9.6.05.82-.22,1.1-.45,3.82-.28,5.53-2.74,8.82-3.16v-3.43c-2.03-.05-2.74-.02-4.9,0h0ZM95.99,81.57c.13,1.93.33,4.04-.32,5.33-2.14.03-4.14.88-5.34,1.99-1.35.29-2.53.73-3.6,1.26-2.61.42-4.06,1.8-4.79,3.79,0,1.12.2,1.89-.22,2.71-.62.05-1.39-.01-1.74.27-.24.05-.15-.18-.32-.18-1.33.43-3.56.11-5.12.36-.77.26-1.37,1.06-2.39.81.1-.38-.13-.5-.22-.72.67-3.05.78-6.58,1.09-9.93.28-.09.93-.18,1.19,0,2.46-1.64,4.04-4,8.39-4.07.47,1.26-.92,3.37.55,4.34.75-.37.55-1.53,1.31-1.9.08-1.41,1.31-1.86,1.85-2.89.58-.24,1.2-.45,1.52-.9,1.44-.46,2.72-.49,4.14-.54.14,0,.33.19.54.19.41-.02,1.13-.49,1.52,0,.81-.16,1.01.11,1.96.09h0Z"/>
    <path class="cls-7" d="M79.87,87.8c.29.03.35-.12.32-.36h-.32v.36h0ZM94.9,82.47v3.43c-3.29.42-5,2.88-8.82,3.16-.28.23-.49.5-1.1.45-.47.43-1.2.57-1.74.9-.46.29-.64.73-1.2.9-.25.63-.51,1.27-1.09,1.62-.06,1-.45,1.73-.44,2.8-1.95.07-3.86,0-5.66.36-.16.02-.04.27-.22.27h-1.2c-.16-2.14.56-3.57.55-5.61.55.1.53-.28.87-.36-.46-.28-.55-.86-.54-1.53,1.96-1.75,3.64-3.72,6.86-4.43-.25,1.88-.03,4.32,2.4,4.52.35-.17.41-.57.87-.63.87-2.77,2.14-5.21,5.56-5.87,2.16-.02,2.86-.05,4.89,0h0Z"/>
    <path class="cls-3" d="M79.87,87.43h.32c.03.24-.04.39-.32.36v-.36h0Z"/>
    <path class="cls-3" d="M84.22,160.31c.19-.08.59,0,.55-.27-.42-.13-.21.25-.55.18-.02-.07,0-.18-.11-.18,0,.13.05.2.11.27h0ZM94.03,81.48c-.39-.49-1.11-.02-1.52,0-.21,0-.4-.19-.55-.19-1.43.05-2.7.09-4.14.54-.32.46-.94.67-1.52.9-.54,1.03-1.77,1.48-1.85,2.89-.75.37-.55,1.52-1.3,1.89-1.47-.96-.08-3.08-.55-4.34-4.35.06-5.93,2.42-8.39,4.07-.26-.18-.91-.09-1.19,0-.3,3.36-.41,6.89-1.09,9.93.09.22.32.33.22.72,1.03.25,1.63-.55,2.4-.81,1.55-.25,3.79.07,5.12-.36.17,0,.08.22.33.18.34-.29,1.12-.22,1.74-.27.41-.81.21-1.59.22-2.71.73-1.99,2.17-3.37,4.79-3.79,1.07-.53,2.25-.97,3.6-1.26,1.19-1.11,3.19-1.96,5.34-1.99.66-1.28.45-3.39.32-5.33-.95.03-1.15-.25-1.96-.09h0ZM129.21,79.75c-.51.38-.51.99,0,1.36.1,1.63.18,2.95-.32,4.6.59.61,2.01.05,2.51.81.37.07.14-.37.54-.27.75.19,1.58.32,1.96.81,1.8.49,3.5,1.07,4.25,2.44.5,0,.55.39.98.46.24,1.51,1.29,2.35,2.61,2.97.4.94,1.3,1.46,1.2,2.8.31-.01.31.22.33.45,1.35.3,2.8.94,4.14.72.33.42.9.64,1.41.9.45-.21.72,0,1.2-.45.21.43.75-.31,1.41-.09.78-.66.2-1.03,0-1.9-.31-1.41-.37-3.01-.76-4.33-.38-.08-.3-.54-.33-.9-.67-1.37-2.2-2.03-2.94-3.34-1.33-.64-2.18-1.69-3.81-2.07-.04-.42-.67-.35-.66-.81-.51.06-.64-.19-.98-.27-.11.24-.59.17-.86.27-.11.53-.24,1.06-.44,1.53-1.11-1.05-1.14-3.41-2.83-3.7.09-.28-.19-.27-.11-.55-.59.07-.5-.43-.87-.54-.14,0-.1.16-.22.18-.69-.92-2.57-.43-3.92-1.09-.01.12-.03.22-.22.19v-.27c-1.21-.06-2.09.13-3.27.09h0ZM113.63,63.78c-.64,1.35-1.88,4.1-.22,5.23h1.2c.28-.43.74-.71,1.2-.99.1-.34,0-.43.11-.63,1.34-.89,2.04-2.66,2.07-4.34-.43-1.05-1.36-1.69-1.85-2.7-2.33-.45-2.17,1.93-2.5,3.44h0ZM106.45,60.71c-.55,2.91.92,4.88,1.85,6.86.03.29-.19.38-.1.73.84.26,1.07,1.04,2.06,1.18,1.58-1.82,1.62-5.48.44-7.68-.27.02-.45-.05-.55-.18-.12-.26-.09-.64-.21-.9-1.02-.57-2.61-.89-3.49,0h0ZM156.43,44.09c-.15-.05-.57.1-.54-.09v-.27c.15-.31.71.05.65-.27-.21-.31-.58-.48-.86-.72-.42.23-1.75.04-2.19-.27-2.47,0-6.9.4-10.02.82-1.28-.1-3-.41-4.25-.18-.29.05-.43.21-.55.18-.3-.07-.95-.33-1.52,0-2.72-.54-7.46.12-11.01-.54-.62.33-1.93-.42-2.6-.09-3.04-.54-6.38-.82-9.7-1.08-4.19-.34-8.08.23-12.3-.27-.17.04-.1.28-.45.18-1.56-.39-4.62.41-6.42-.18-.14-.02-.11.19-.22.18-5.52-.59-13.14-.07-19.6-.63-1.03.35-1.33,1.31-2.18,1.81.07.69-.19,1.66.22,2.08-.5.57-.29.9-.54,1.53.39.09.05-.44.54-.27.19.99-.12,2.7.33,3.71-.28,1.67-.57,3.82-.33,5.42-.5,1.49-.3,2.98-.54,4.51-.46,2.89.29,5.88-.22,8.58-.1.54-.12.59,0,.99.1.34-.19.47-.22.81-.09,1,.16,2.3-.11,3.25-.06.2-.03.52,0,.9-.21,1.7-.35,3.55-.54,5.06-.26,2.06.34,3.52.65,5.51.41.08.46.46,1.09.36.08-.36.33-.57.55-.81,1.68-.86,2.19-2.7,4.36-3.16.06-.16.05-.37.22-.45.99-.02,1.4-.52,2.51-.45.17-.42.48-.74.98-.9.91-2.27-.81-4.11-1.09-6.23.11.06.4.21.33-.09-.43-.39-.61.25-1.09-.09-.58,1.89,1.45,3.1,1.09,5.42-1.48.22-2.42.89-3.82,1.17-.04.2-.23.29-.32.45-.54,0-.45.53-1.09.45-.2.43-.57.73-1.08.9-.67.71-.84,1.83-1.53,2.53-.63-4.54.26-8.82,0-12.83.8-4.12-.02-9.33.98-13.27-.41-.06-.04-.79,0-.73-.32-.58.08-3.32.32-3.61-.31-2.15.01-4.39.23-6.86.24-.04.34-.19.54-.27-.58-.29-.04-.99-.32-1.45-.38-.12-.52.1-.77-.09-.13-1.22.28-1.99.98-2.53,1.06.08,2.55-.19,3.27.18.16-.32.77-.15.99,0,.07-.33,1.33-.24,1.42,0,.18-.55.99-.05,1.41,0,.34-.16,1.27-.44,1.41,0,2.1-.4,4.11-.11,6.75-.27,0,.15-.02.31.21.27.49.14.34-.26.77-.18.96.48,2.52.05,3.7.18.28.03.59.24.87.27,2.61.27,4.24-.5,6,0,.62-.33,1.24.16,2.28,0-.07-.31.22-.3.33-.45v.45c2.35.04,4.14-.19,6.32,0,2.59-.11,6.99.56,9.04.45,1,.28,2.56.48,4.03.45v.27c1.66-.36,4.03.58,6.1.09.45.42,1.93.28,2.61,0v.27c1.47.07,3.64-.4,5.34.27.01-.35.66-.18.87-.37,2.71.07,4.56.25,7.08-.18.02.11.04.21.22.18.47-.39,1.77-.1,2.17-.54,0,.49.23-.09.55.27.78-.23,2.84-.3,3.7-.72-.09.26.15.23.11.45.96.18,1.38.1,1.85.37.07.33-.33.26-.33.54.59.08-.15.27,0,.54.26.68.53,2.78,0,3.89-.13.29.35.07.22.36-.09,2.84-.12,5.28,0,8.76.13,3.76.14,8.83.11,11.92.47,3.69.14,8.31.44,12.37.01.15.27.08.21.27-.17,1.07.36,2.71-.32,3.34.03-.37-.04-.21-.33-.18-.56-.65-1.15-1.28-2.18-1.53-.32-.57-1.02-.84-1.85-.99-1.98-1.72-5.14-2.48-7.84-3.61-.39-1.05-.29-1.88,0-3.16.04-.18.28-.92.43-1.17.35-.55.99-.58.98-1.09,0-.3-.32-.51-.44-.72-1.06-.24-1.71-.21-2.72-.09-.02,0,0-.2-.11-.18-.51.11-1.26.19-1.74.37-.33.12-1.81,1.13-1.85,1.17-.1.1,0,.36-.11.45-.29.24-.88.21-.98.63-.2,0-.34.02-.44.09-.88-.79-1.86-1.47-2.83-2.17.14-1.54-.02-3.44-.11-4.7.64,1.61,2.66,1.48,5.01,1.36,1.06-.46,1.47-1.5,1.2-2.8-.4-.05-.6-.28-.65-.63-1.43-.1-1.28.37-2.61.54-1.03-1.45.72-2.56,1.63-3.25.66.78,1.57,1.35,2.39,1.99,1.93-.31,1.92-3.21,1.42-4.7-.34.07-.32-.15-.65-.09-1.08-1.26-2-2.68-3.16-3.88-.34-.98.24-1.57.22-2.53-1.19-.27-1.46-1.32-1.85-2.25-1.31-.52-1.21-2.2-2.72-2.53-.18.04-.1.29-.43.18.04.92.43,2.4-.55,2.71-1.25-1.19-4.44-1.68-5.78-1.72-.1.15-.34.2-.54.27,0,1.38,1.51,1.51,1.73,2.71-.35.26-1.03.33-1.41,0-.29.48-1.11.53-1.85.63v.9c1.49,1.49-1.22,2.81-3.05,2.99.09.5-.77.69-1.2.45-.05-.47.16-.71.32-.99.53-2.07-.79-2.87-1.09-4.51-.45-.14-.95-.23-1.63-.18-.24-.98-.05-2.31-.11-3.44-.42-2.27-2.03-3.55-2.94-5.42-.21-.02-.21.13-.32.18.23-.51-.17-.83-.55-1.08-.63.2-.89.71-1.3,1.08-.46.11-.48-.15-.77-.18.04.31-.2-.03-.32,0-.59.18-1.31,1.19-1.86,1.45-1.18.56-.56,1.3-.98,2.44-.08.22-.44.35-.54.54-.75,1.37-1.27,3.15-.87,4.88-1.68.26-2.29,1.41-3.49,2.08-.24.99-.09,2.09.55,2.61-.37.1-.46.41-1.09.27v-.37c-.45-.07-.56.14-.98.09-.15-.23-.35-.44-.66-.54-.48-.13-.33.27-.76.19-1.67-.24-1.82-1.75-1.74-3.44.63-.46,1.24-1.26.98-2.16-1.05-.09-1.29.48-2.17.54-.15-1.04,1.23-1.78.33-2.62-.92-.07-.85.69-1.41.9,0-.33-.3-.42-.55-.54-.73.22-1.81,1.23-2.39.27-3.12.63-3.56,3.49-4.91,5.59-.87,2.8-.79,6.38-2.5,8.49.76,1.24,2.6,1.81,3.81,1.35.39-.37.56-.92,1.08-1.17-.14-.75.49-.87.98-1.08,3.01.15,2.92,3.65.44,4.06-.15.03-.1-.18-.22-.18-.68.04-1.35.4-2.19.54-.69.79.09,1.65.45,2.35.46-.18.54.23.87.27.88.11,1.6-.67,2.18-.36.43-.3.83-.63,1.3-.9,1.16.8,2.24-.04,2.84-.72-.12.27.17.25.21.36,1.01,2.52-1.5,3.35-2.94,4.33-1.15.53-2.43.63-4.03.63-.09.19-.4.21-.76.18-.51-1.34-1.4-1.87-2.73-3.07-.33-.31-.51-.39-.87-.63-.28-.19-.4-.55-.54-.63-.48-.27-1.89-.63-2.18-.63-1.3,0-2.44,1.04-2.18,2.44-.41-.04-.39.28-.54.46.25.42.07,1.21.76,1.26.38.14.06-.31.33-.27.01.14-.02.31.21.27.68-.02,1.07-.71.76-1.26-.4.11-.17.48-.76.27.1-.63.39-1.12.65-1.63.77-.35.98.38,1.53,0,.38.78,1.93.58,1.96,1.63,1.95.47,2.26,2.28,3.38,3.43.51.07.65-.19.98-.27,1.81.21,3.97-.62,5.12-1.54.41.06.46-.15.87-.09,1.44-.79,1.78-2.49,2.61-3.79.07-.45-.18-.63-.54-.72-.4-1.21-.44-3.5.66-4.06.35-.11.08.29.43.18.39-.47,1.17-1.07.43-1.71-4.3-.41-1.78,4.84-5.66,4.78-.02.14.04.34-.11.36-.13-.05-.24-.1-.32-.18,1.3-1.57,1.16-5.7-1.09-6.23-.91.15-1.71,0-2.5.09-.66.48-.84,1.35-1.31,1.99-.8.4-1.83.12-1.85-.63.68-.66.68-1.8.97-2.89.2-.69.83-1.38.44-1.62.28-.13.31-.47.87-.36.03-.46.32-.7.55-.99-.11-2.24.58-4.56,1.96-5.87.14-.12.47-.09.76-.09.02.13-.04.33.11.36.54-.73.84-1.34,1.85-1.53-.07.72-.85,2.04.21,2.35.16-.26.75-.16.87-.45-.07.52.27.68.33,1.08.46.05.72-.06,1.1-.09-.13,1.93.29,3.42,1.41,4.34,1.38.09,2.25.6,2.84,1.35,1.38-.05,1.86-.32,3.05-.54.2.1.08.47.54.36.15-.54.11-1.24.44-1.63-2.5-.5-1.06-2.66.55-3.16.96.02,1.03.77,1.52,1.18.67.08.63-.47,1.09-.1-.02-.16.11-.21.33-.18.25-1.66-.22-3.8-.55-4.7.29-1.09.47-2.34.55-3.43.7-.11.4-1.05,1.09-1.18.05.38-.06.89.32.99.14-.38-.17-.4-.22-.63.6-.37,1.02-.9,1.96-.99,1.96.42,2.45,2.14,2.94,3.88.35,1.26.5,2.93.43,4.51.37-.03.2.38.55.37.59-.52,1.59-.89,2.28-.18.08.5.34.86.66,1.18-.1.85-.15,1.74-.66,2.25-.05.35.2.44.11.81-.21.24-.42.49-.32.99.3-.07.21.18.32.26,1.2.32,2.15-.21,2.62-.63.4-.37.78-.26,1.53-.54.35-.13.89-.64,1.19-.73.7-.17,1.11-.88,1.09-1.36.22-.02.29-.18.44-.27.02-.47-.32-.64-.34-1.08.7-.86,1.51-.72,2.72-.54.8-1.09-.48-1.9-.65-2.98.55,0,.58.04.99.27-.11-.27.24-.16.43-.18,1.35.56,2.44,1.34,3.7,1.98.11-.36.71-.98.33-1.17.39.09.05-.44.54-.27.07-.4-.14-1.02.1-1.26.96,1.07,2.07,2.01,2.4,3.61.21.04.47.04.43.27,0,.48-.44.6-.32,1.17.32.79.99,1.29,1.2,2.17,1.38.71,1.52,2.46,3.05,3.07.31.69-.08,1.47,0,2.26-.47-.12-.14.43-.55.36-.74-.23-1.35-.57-1.63-1.18-.48-.02-.84-.47-1.42-.36-.26.05-1.81,1.34-2.07,1.62-.97,1.06-.11,3.61,1.2,3.79.49-.44,1.45-.48,2.07-.81.64,1.97-2.12,1.13-3.27,1.63.06-.36-.63-.08-.65-.37-.69-1.32-1.97-2.16-2.72-3.43-.27-.04-.25.16-.55.1-.18,1.42.74,2.68.98,4.06.02,1.35.07,2.21,0,3.52-.62.44-.24,1.4.32,1.62,2.03.16,2.3,1.77,3.81,2.35,1.93-1.13,3.31-3.23,6.1-2.88-.13.29.17.22.21.36-.57,1.76-1.71,4.28-.33,5.87.85-.04,1.24.41,1.74.63.17.08.46-.06.65,0,.23.08.4.41.56.46-.02,0,1.11-.13,1.08.36.97-.02,1.57.27,1.85.81,1.02.45,2.24.73,2.83,1.53,1.93.78,3.68,1.7,4.36,3.53.33.05.53.21.65.45v.54c.39.02.71-.01.98-.09.18-.84-.75-1.78,0-2.71.03-.18-.15-.18-.21-.27h.32c-.31-1.02.42-2.61,0-3.61.26-1.26-.34-3.37,0-4.79.03-.24-.43-.07-.32-.36.19-.42.13-.62.21-.99.46-1.92.29-4.43,0-6.41-.05-.39-.05-1.54-.21-2.17-.05-.19-.3-.34-.33-.53-.17-.99-.05-2.04.21-2.98.14-.38-.17-.39-.21-.63.36-1.71-.15-2.74.21-4.79-.46-2.17-.31-4.99,0-7.59-.35-.98-.48-2.18,0-3.07-.64-.92.46-1.63-.21-2.71.01-.14.28-.07.21-.27-.15,0-.24.04-.32.09.16-.37.22-.84.65-.99h0ZM146.85,161.12c.4-.04.14.16-.11.09.18.6.92.19,1.64.27.26-.23.32-.63.65-.81-.28-.05-.63-.31-.98-.37-.11-.01-.09.18-.11.18-2.69-.32-5.9-.23-9.58-.27-1.54-.3-4.93.39-6.21-.18-1.02.5-3.54-.07-4.25.18-.21-.15-.81-.33-.97,0-.35.11-.08-.29-.43-.18-.34.13-1.26.38-1.53,0-2.03-.24-4.72.27-6.53,0-.15-.02-.32,0-.32-.27-.12.06-.12.21-.33.18-.24-.2-1.57-.38-1.63.09-3.93-.63-8.3-.38-11.98-.9-.24-.05-.16.17-.32.18-.52-.42-1.59.05-1.86-.45-.99.33-3-.23-4.36-.27-.16.17-.36.3-.54.45-.22-.02-.65-.6-.65,0-.4-.53-2.23-.25-2.72,0-.41-.35-.6.16-.76-.27-.39-.08-.04.44-.54.27-.15-.42-1.17-.1-1.42-.45-.79.6-2.23-.15-3.04.45-.2-.02-.55.1-.44-.18-.85.66-2.42-.2-3.27.45-.28-.42-.8-.03-1.08.09.04-.19-.07-.24-.11-.37-1.25-.05-2.94.26-4.13-.18-.22.18-1.47.37-1.64,0-.55.16-.95.28-1.52,0-1.09.5-2.22-.27-3.05.27-.03-.37-.79-.52-.87-.1-.5-.83-2.51-.2-3.05-.81-.84.06-1.38-.12-2.17-.09-.85-2.51-.36-6.19-.11-8.85-.38-4.13-.36-8.39.11-12.46.73-6.32,1.05-13.44.65-20.23.08-.74-.21-1.79.22-2.26.16-.41-.32-.28-.22-.63-.14-.35.36-.18.22-.54-.45-4.18-.89-9.35-.33-13.54.12-.29-.17-.22-.22-.37-.01-.25.37-.17.22-.54-.63-1.41.55-3.69-.22-5.23.36-1.83.36-5.38,0-7.05.1-.25-.22-.84.22-.81-.09-3.31.07-6.98-.22-9.84-.01-.16.21-.18.22-.37,0-.12-.23-.27-.22-.36.02-.34.59-1.04,0-1.36.23-.35.09-.32,0-.63-.52-1.78.3-5.17,0-7.58-.25-2.03-.16-5.07-.11-7.23.04-1.46.05-3.23.34-4.15-.53-.64.42-1.71-.22-2.44.56-1.3-.12-3.28.55-4.34-.6-.67.04-2.23-.33-3.25-.1-.29.28-.18.33-.36-.48-.48-.15-1.24,0-1.62.15-.37-.24-.57-.22-.9.02-.82.54-1.46.22-2.26-.21-.52-.51-1.69.1-2.44,2.29.05,4.63.65,6.98.27,3.6.7,7.23-.14,11.43.27.2-.05.47-.04.43-.27.33.36,1.95.26,2.51,0,.18-.03.2.07.22.18.73-.54,1.8.04,2.5-.45.55.58,3.06.04,3.16.45.97-.63,1.37.31,2.28-.18.02.34,1.16.22,1.2,0,.92.31,2.58.35,3.38.27,2.65.38,5.73.42,8.28.53.18.28,1.06.53,1.2.09.02.32.82-.01.65.46,2.7-.31,7.29.77,9.7-.27,0,.09-.13.07-.22.09-.06.2.2.13.22.27.2-.04.47-.03.43-.27.3.25,1.32.42,1.52,0,.42.5,1.13-.34,1.52.18.14-.1.2-.26.55-.18.08-.26.37-.36.32-.72.5,0,.23.65.43.9.09-.15.36-.5.33,0,.13-.01.09-.16.11-.27,1.1.63,2.42.1,3.7.36.35.04.04-.45.44-.36v.27c.08-.06.34-.38.33,0,.46-.4,1.28-.16,1.3,0,.3-.08.63-.43.98-.18.01-.13.02-.26-.1-.27.14-.19.32.33.43.46,1-.33,2.26.06,3.27-.18.66.68,2.08-.3,2.39.27-.05-.26.81-.66.77-.09.09-.16.28-.25.32-.46.31.16.1.24.11.54.92-.11,2.5.37,2.72-.36.45-.06-.1.32.22.45,1.17.01,1.08.15,1.96.18.34-.24.12-.52.11-.91.2.27.64.48.33.91.04-.1.48-.38.43,0,.12-.4.43-.08.66-.36.3.04,0,.28-.22.18-.08.4.71.07.54.54.6.11.79-.12,1.1-.27.08.31-.45.12-.34.45.1-.2.78-.48.77,0,.16-.29.56-.37.65-.72,1.39.22,3.55-.39,5.23.18.42.11.22-.3.65-.18.03.15-.1.16-.11.27,1.92-.19,2.78.11,4.35,0,.05.2-.15.18-.32.18.37,1.11.59,2.34.98,3.43-.53.76.08,1.67.11,2.53h-.33c.37.98-.42,1.7.22,2.71-.52.31-.24.93-.32,1.45-.35,2.02-.79,4.44-.34,6.5-.06.18.18.62-.21.53-.07.25.23.18.33.28-.86,1.56-.18,3.96-.76,5.78.23.26.23.71.43.99h-.43c.07.66,0,2.61,0,3.16.46,1.5-.57,4.2-.11,5.69-.26.25-.26.57,0,.81-.4,1.88-.36,4.49,0,6.42-.26,4.1.43,9.26-.22,13.55.11,1.17-.04,3.61-.32,5.05.21,3.33.13,7.35.87,10.48-.23.47-.15.92,0,1.36-.5,2.34-.63,5.38-.32,7.4-.31,2.77-.7,4.94-.77,8.13-.04,2.08.34,4.57.11,6.5-.15,1.28,0,4.23.33,5.33.03.3.02.56-.22.63.65,1.7-.15,3.97.55,5.5-.1,2.41.82,4.63.11,6.78.14,2.21.22,5.35.32,8.12.07.19.21.31.44.37v2.35c-3.19.49-7.06-.27-10.57,0,.04.18-.02.28-.21.26.19,0,.45.59,0,.54.53.39,1.46-.18,1.96.37.1-.07.18-.17.23-.27.36.28.56.09.65.27.23.04.21-.13.21-.27.53.16.8-.02,1.41,0v.37c.33.09.2-.2.23-.37.26.26.64.38.87,0,.23.02.02.4.32.37.22.03.17-.41-.1-.27.16-.25,1.43-.36,1.3.18.29-.49,1.08-.05,1.42-.55-.15.4.37.24.32.55.29-.6.61.31,1.2-.18.22.17.08.65.65.54.14,1.77.07,3.29.34,5.05-.48-.09-.61.1-.88.18-1.07-.51-2.35.09-3.16-.45-.55.28-2.51.31-3.05,0-1.08.29-2.76.37-3.7,0-3.23.21-5.87-.07-8.39.18-.51-.24-1.69-.45-1.95.09-.64-.08-1.11-.13-1.64.18-2.46-.54-5.55.12-7.95-.45-.65.52-1.54-.22-2.17.18-1.47-.6-4.69,0-6.32-.45-.26.2-1.63.37-1.85,0-.96.38-2.67-.47-3.59.18-.49-.19-1.8-.43-2.07,0-.14-.25-.6-.22-.76-.45-.61.23-.71,0-1.1,0-.18,0-.37.17-.32.18-3.01-.18-7.39-.33-11-.54-.46-.11-.48.14-.76.18-2.18-.53-5.33-.62-7.73-.54-.77-.5-2.04-.33-2.72,0-.12-.38-.35.2-.65-.18-1.88.57-6.12-.02-7.62.45-.53-.24-1.53-.35-1.96,0-4.4-.02-9.55.27-12.52.1-.06-2.07-.86-5.73,1.31-6.69.34.32,1.06-.12,1.19.45.36,0,.26-.38.66-.36.04.39.71.25.87.54.36-.15.96-.11,1.09-.45.42-.08.08.47.33.54.41.1.17-.34.54-.27,0,.6,1-.12,1.09.46.39-.01-.23-.3.11-.27.28-.05.39.04.32.27.79-.26,1.21.24,1.74-.27.34.47,1.63.45,1.63-.18.39.04.29.24.22.46.53-.05.23-.21.65,0,.21-.04.01-.41.43-.27,0,.09-.13.07-.22.09.03.3.49.26.87.27.34.05.04-.44.43-.36v.27c.05-.41,1-.08,1.09-.46.24.59,1.17.14,1.42-.09,0,.53.04-.02.43.09v.46c.33-.06.4.1.65.09.26-.1.05-.57.11-.81.49.12.09.63.33.81.53-.02.14-.3.32-.54.97.23,2.23.2,3.48.18-.02.1-.22.06-.22.18.46.33.78-.31.98.18.33-.05.42-.31.43-.63.31-.08,1.03.19.99-.18.1.16.41.15.33.45.46.08.59-.11.76-.27.26-.04-.06.41.32.27.51.08-.07-.29.23-.27.42-.08.17.4.65.27.45.05.18-.52.55-.54.38-.05.38.22.54.36.28.03.35-.12.32-.36.28.07,1.05.2,1.31,0,.23.02.03.4.33.36.34.02.17-.39.54-.36.42-.14.04.39.33.36.54-.42.96.14,1.3-.36.91.25,2.02.61,3.05,0,.4-.03.34.33.44.54.62.05,1.2.03,1.41-.27-.23.35.58.48,0,.54.46.32.89-.16.98-.46.36.1.27.57.55.73.63.11.58-.44.65-.54.29-.05.39.04.33.27.37.04.17-.4.65-.27v.36c.33.07.32-.15.65-.09.08.08.11.21.1.37.82.04,1.4-.17,1.96-.55.42.01.06.68.65.55.31-.05.29-.37.65-.37.36-.02.31.28.54.37.83-.08,1.43-.47,2.29-.28.21.37.45.71,1.2.63.07-.34.51-.36.65-.63.56.26,1.53.18,1.64.82.23.02.04-.32.1-.45.75.51,1.63.16,2.18.54.26-.03.51-.06.44-.36.36.09.56.32.76.54.12-.24.7-.31.54-.72h.76c-.15.34.31.17.22.45.28-.17,1.82-.51,1.85,0,.12-.09.22-.18.33-.27-.08.28,1,.5.87,0,.7.08,1.07.07,1.31.27.24.02.05-.32.11-.45.32.21.56.35.88,0,.43.12.73.36.87.72.02-.54,1.12.02,1.41-.45.31-.04-.08.5.22.45.28-.04.31-.28.44-.45.79.3,1.31.18,1.85-.09.24.17.56.26.66.54.24.07.39-.45.43,0,.18-.21.08-.66.65-.54v.54h.76c.05-.2-.16-.17-.33-.18.18-.23.65.06.76.18.24.02.06-.32.11-.45.31-.01.32.22.33.45.29-.22.68-.22.98,0,.39,0-.23-.3.11-.27.27.14.4.39.99.27.11-.27-.25-.16-.44-.18-.04-.23.61.09.44-.27.12.26.29.33.65.18-.07.09-.25.09-.22.27.51-.45,1.47.28,1.42-.27.33-.09.2.2.22.36.77-.23,1.29,0,1.52-.36.46.14,1.16.51,1.74.09,1.37.5,3.29.26,5.23.27.03-.18-.03-.28-.22-.27.1-.25.38.16.55-.09h0Z"/>
    <path class="cls-1" d="M159.26,37.95c-.04-.15-.34-.08-.21-.37.48-.07.39.59,0,.55-.04-.16.08-.17.21-.18h0Z"/>
    <path class="cls-1" d="M148.92,37.68v.27c-.09-.02-.11-.09-.22-.09-.12.01-.09.16-.11.27-.1-.06-.1-.2-.32-.18.24-.07.29-.3.66-.27h0Z"/>
    <path class="cls-1" d="M159.7,37.86v.36c-.15,0-.3-.02-.32.09-.12,0,.09-.47.32-.45h0Z"/>
    <path class="cls-1" d="M112.65,45.72c.41-1.42,1.4-.1,1.63.63-.53-.23-.78-.68-1.63-.63h0Z"/>
    <path class="cls-3" d="M84.12,160.04c.11,0,.09.11.11.18.34.07.13-.31.55-.18.03.28-.36.19-.55.27-.05-.07-.11-.14-.11-.27h0Z"/>
    <path class="cls-3" d="M87.66,135.41c-.26.07-.5.28-.73.37-.23.08-.5.02-.73.12-.21.09-.34.32-.52.42-.51.31-1.23.6-1.25,1.16-.75.19-.95.84-.88,1.71-.46.26-.7.89-.8,1.41-.1.45-.23.94-.3,1.34.01-.08.17.22.15.31-.11.6-.82,1.3-.36,1.89,1.38-.86,2.65-1.83,4.55-2.26.53-.39,1.37-.67,1.84-.92.31-.16.81-.33,1.1-.42.57-.17.63-.29.96-.55.45-.35.86-.66,1.25-1.04.02-.62.44-.89.29-1.65-.18-.3-.41-.56-.51-.92-.58-.45-1.25-1.15-2.36-.97-.06-.09-.05-.24-.29-.18-.26.31-.95.06-1.4.18h0ZM93.91,136.2c.08-.84-.35-1.11-.74-1.52-.8-.84-1.07-1.03-2.06-1.46-.92.05-1.73-.07-2.79.06-.78.62-2.17.72-2.57,1.64.69-.03,1.19-.23,1.61-.48.99.11,2.01-.22,2.79,0,.14.04.33.3.59.43.49.23.75.24,1.03.49.73.67,1.23,1.52,1.54,2.43.19-.56.54-1.05.59-1.58h0ZM95.08,136.87c-.26.1-.17.47-.21.73-1.11,1.32-2.41,2.47-3.76,3.6h-.51c-.4.42-1.17.37-1.76.73-.19.11-.21.06-.52.18-.1.05-.12.19-.22.25-.25.12-.87.16-1.25.31-.46.17-1.63.57-2.06.91-.21.16-.18.14-.52.31-.28.14-.52.45-.81.61-.11.06-.26,0-.37.06-.19.13-.26.38-.45.55-.03.03-.18-.03-.22,0-.04.03.04.16,0,.18-.56.42-1.36.9-.88,1.95-2.05.66-1.63-1.94-1.32-2.86-.52-1.49.01-3.61.88-4.7.15-1.01.76-1.64,1.03-2.56.93-.59,1.14-1.78,2.2-2.25.41-1.1,1.95-1.27,2.72-2.08.62-.05,1.05-.26,1.47-.49,1.22-.05,2.05-.11,3.24,0,.39.47,1.4.42,1.54,1.1.14.11.13-.04.37,0,.3.47.7.73.96,1.22.06.12.11.33.22.49.02.04.21.05.21.06.15.39.08.92-.14,1.28-.09.26.11.26.14.42h0Z"/>
    <path class="cls-8" d="M93.32,137.79c-.31-.92-.8-1.77-1.53-2.44-.29-.25-.54-.26-1.04-.49-.26-.13-.45-.39-.59-.43-.78-.22-1.8.11-2.79,0-.43.26-.92.46-1.62.48.4-.92,1.79-1.03,2.57-1.64,1.06-.13,1.88,0,2.79-.06,1,.42,1.27.62,2.06,1.46.39.41.82.68.74,1.52-.05.53-.4,1.02-.59,1.59h0Z"/>
    <path class="cls-4" d="M89.06,135.23c.23-.05.23.1.29.18,1.11-.18,1.77.52,2.35.97.11.36.33.62.51.92.15.76-.27,1.03-.29,1.65-.38.37-.8.68-1.25,1.04-.33.26-.39.38-.96.55-.3.09-.8.26-1.1.42-.47.25-1.31.53-1.84.92-1.91.43-3.17,1.4-4.56,2.25-.46-.58.25-1.29.36-1.88.02-.09-.13-.39-.14-.31.07-.4.2-.89.29-1.34.11-.52.34-1.14.81-1.4-.07-.87.13-1.51.88-1.71.03-.56.74-.85,1.25-1.16.17-.1.31-.34.52-.42.23-.1.5-.05.73-.12.24-.08.48-.3.73-.37.45-.12,1.14.12,1.4-.18h0Z"/>
    <path class="cls-5" d="M109.6,139.64c-.04-.26.06-.41.08-.61.74-.85.89-2.19,1.69-2.99.29-1.16.72-2.21.81-3.54-.23-.88-.5-1.74-1.4-2.07-.26.03-.48.09-.81.06-.16.15-.38.26-.73.25.09.24-.21.16-.3.25-.88,2.12-1.34,5.88-.29,8.17.03.48.07.95.29,1.28.44-.09.38-.57.66-.79h0ZM108.72,141.77c-.96-.79-.81-2.5-1.39-3.6-.05-.76.05-1.63-.22-2.2.08-.22-.17-.71.15-.73.09-.2-.24-.05-.15-.25.43-.82.43-1.88.51-2.87.32-.38.43-.95.59-1.46.75-.58,2.04-1.18,3.45-.68.58.58.86,1.4,1.18,2.19.21,1.1-.26,2.01-.51,2.81-.21.64-.36,1.35-.66,1.95-.15.31-.62.96-.81,1.46-.07.18,0,.4-.07.55-.05.12-.25.21-.3.31-.16.37-.11.73-.29,1.04-.34.58-.98,1.05-1.47,1.46h0Z"/>
    <path class="cls-5" d="M109.24,131.47c.12-.05.04-.44-.15-.43.06.14-.13.47.15.43h0ZM108.94,140.42c-.22-.32-.26-.79-.29-1.28-1.05-2.29-.59-6.05.29-8.17.09-.09.39,0,.3-.25.36.01.58-.1.73-.25.33.03.55-.03.81-.06.9.33,1.17,1.19,1.4,2.07-.1,1.32-.52,2.37-.81,3.54-.8.8-.95,2.14-1.69,2.99-.02.21-.12.35-.08.61-.28.21-.22.7-.66.79h0Z"/>
    <path class="cls-5" d="M114.31,139.94c.23.03.17-.19.44-.12.98-1.05,2.42-1.73,3.38-2.8.61-.04.47-.71,1.03-.79.1-.39.54-.85.59-1.34.07-.58-.22-.83-.59-1.22-.8-.18-1.42.31-2.2.49-.44.77-1.32,1.18-1.84,1.89-.77,1.88-2.4,3.06-2.8,5.25.7-.42,1.44-.8,1.99-1.35h0ZM120.34,133.47c0,1.22.04,2.47-.8,2.99.06.22-.13.26-.07.48-.99.64-1.58,1.62-2.8,2.07-.94,1.41-2.83,2.04-4.05,3.23-.48.02-.63.53-1.17.3-.14-.39,0-.66.29-.85-.46-.91.33-1.67.51-2.44.78-.97,1.29-2.18,2.2-3.05.1-.71.48-1.19,1.1-1.46.56-.61,1.12-1.22,2.21-1.4.04-.27.53-.17.66-.37.3-.05.2.21.52.13.31-.42.87.37,1.39.36h0Z"/>
    <path class="cls-5" d="M112.33,141.28c.4-2.19,2.03-3.36,2.8-5.25.51-.71,1.4-1.12,1.84-1.89.79-.18,1.4-.67,2.21-.49.36.4.65.64.58,1.22-.06.49-.48.95-.58,1.34-.57.08-.43.75-1.03.79-.96,1.07-2.4,1.75-3.38,2.81-.27-.07-.2.15-.44.12-.55.55-1.29.93-1.99,1.35h0Z"/>
    <path class="cls-5" d="M100.57,138.96c.33.04.55.15.59.43,1.88.58,3.32,1.67,5.22,2.13-.31-.13-.26-.56-.29-.92-.3-.93-1.34-1.24-1.77-2.07-1.03-.45-1.77-1.14-2.36-1.95-1.97-.67-1.89,1.26-1.4,2.37h0ZM107.47,141.28c-.11.7.76,1.15.15,1.71-1.14-.18-2.1-.65-2.72-1.1-1.1-.22-1.84-.75-2.65-1.22-.69-.14-1.24-.4-1.62-.79h-.51c-.8-.39-.8-1.45-1.19-2.2-.1-.59.31-.77.23-1.34.45-.76,1.74-1.04,2.86-.73,1.11.62,1.9,1.51,3.02,2.13.51,1.24,1.98,1.7,2.06,3.29.18.03.07.31.36.25h0Z"/>
    <path class="cls-5" d="M101.96,136.59c.58.82,1.32,1.5,2.36,1.95.42.83,1.46,1.14,1.76,2.07.03.36-.02.78.29.92-1.9-.46-3.34-1.55-5.22-2.13-.04-.28-.26-.4-.59-.43-.49-1.11-.58-3.04,1.39-2.37h0Z"/>
    <path class="cls-5" d="M120.05,141.52c-.6-.09-.78.17-1.33.12-.93.57-2.29.78-3.23,1.35-.1,0-.07-.11-.15-.12-.01.19-.29.16-.22.42.96.28,1.87.57,3.01.55.95.39,2.14.58,3.54.62.79-.52,1.99-.71,2.13-1.77-.43-1.29-2.1-2.05-3.75-1.16h0ZM123.36,140.91c.09.73,1.52,1.01,1.03,1.83.4,1.39-1.67,1.78-2.57,2.5-2.92.5-5.1-1.1-8.02-.78-.16-.52.07-.99,0-1.59,2.71-1.03,5.2-2.24,8.9-2.44.09.15.28.21.3.42,0,.12.27-.09.37.06h0Z"/>
    <path class="cls-5" d="M123.8,142.68c-.14,1.06-1.34,1.25-2.13,1.77-1.39-.03-2.58-.23-3.54-.62-1.14.02-2.05-.26-3.01-.55-.07-.26.21-.23.22-.42.08.01.05.12.14.12.94-.57,2.3-.78,3.24-1.35.55.05.73-.21,1.33-.12,1.65-.89,3.32-.13,3.75,1.16h0Z"/>
    <path class="cls-5" d="M97.99,146.46c3.25.31,5.77-1.18,8.53-1.46-.09-.24.24-.12.15-.36-.14-.11-.39-.13-.59-.18-.51-.74-2.3-.52-3.09-.86-.07.26-.77.1-.88,0-.14.25-1.02.14-1.18,0-.04.19-.36.15-.51.25-.09-.1-.29-.12-.36-.25-1.21.44-2.72,1.49-2.06,2.87h0ZM108.14,145.06c-.52.6-1.8.58-2.43,1.1-.52-.19-.9.33-1.03.06-.69.56-2.31.36-3.02.91-1.48.04-2.72.45-4.04,0-.17-.08-.17-.31-.44-.31-.39-1.46.11-2.69.88-3.48.4-.19.96-.26,1.25-.55,1.31-.3,3.04-.27,4.63-.18.3.1.48.29.96.25,1.29.35,2.01,1.18,3.16,1.65-.02.18.19.48.07.55h0Z"/>
    <path class="cls-5" d="M100.05,143.6c.07.12.27.14.36.24.15-.09.47-.05.51-.24.17.13,1.04.25,1.18,0,.11.1.81.26.88,0,.79.34,2.58.12,3.09.86.2.05.45.07.59.18.1.24-.24.12-.14.36-2.77.28-5.29,1.78-8.54,1.46-.65-1.38.86-2.42,2.06-2.86h0Z"/>
    <path class="cls-5" d="M116.3,149.75c.29.16.56.36.59.73.47.26.81.63,1.18.98.54.05.9.27,1.24.49.48-.06.95-.11,1.33-.25.07-.53.66-.63.51-1.34-.19-.55-.5-1-.81-1.47-1.28-.56-2.36-1.29-4.04-1.51-.56-.35-1.23-.61-2.06-.74.55,1.16,1.76,1.75,2.06,3.11h0ZM113.07,146.46c.21-.06.3-.23.58-.24.5-.89,1.67.09,2.43.12.83.45,1.63.91,2.79,1.1.3.39.84.6,1.46.73-.02.18.17.18.15.37.62.02.68.48,1.1.85.43.38.16,1.28.22,2.01-.37.33-.47.88-.96,1.1-1.05.09-2.24-.24-3.02-.37-1.46-1.04-2.58-2.37-3.38-3.96-.5-.54-1.34-.8-1.39-1.71h0Z"/>
    <path class="cls-5" d="M105.05,148.41c-.16.41-.41.75-.88.91-.71.95-1.55,1.8-2.35,2.68-.26.72-.02,1.24.22,1.83.26.09.4.27.66.37.34-.07.56-.23.81-.37,0-.22.07-.39.29-.43.66-1.47,1.2-3.03,1.99-4.39-.01-.36.07-.63.37-.73-.08-.18.11-.42,0-.42-.29.25-.63.46-1.11.55h0ZM107.77,146.1c.17,1.81-1.36,2.72-1.61,4.39-.34.35-.45.89-.59,1.41-.41.77-.89,1.46-1.25,2.26-.29-.05-.13.26-.44.18v.37c-1.7.6-2.8-.82-3.24-2.01.07-.53.45-1.32.81-1.71.2-.22.34-.75.66-.98.14-.1.56-.22.51-.61,1.03-.63,1.57-1.67,2.58-2.31-.06-.19.12-.18.07-.37.26.04.29-.13.29-.31.79.13,1.19-.75,2.2-.3h0Z"/>
    <path class="cls-5" d="M114.24,146.64c.83.13,1.5.39,2.06.73,1.68.23,2.76.96,4.04,1.52.31.46.62.91.81,1.46.15.71-.44.81-.51,1.34-.38.13-.85.19-1.33.25-.34-.22-.71-.43-1.24-.49-.37-.34-.71-.72-1.18-.98-.03-.38-.3-.57-.59-.73-.29-1.36-1.51-1.95-2.06-3.11h0Z"/>
    <path class="cls-5" d="M110.78,154.94c.23.15.35.4.51.61,1.04.09,2.49.15,2.72-.67.13-.47-.36-.78-.29-1.41-.57-.78-1.22-1.53-1.77-2.37-.54-.84-1.06-2.11-1.69-2.81-.37,2.16.31,4.45.51,6.64h0ZM113.8,156.04c-.55.14-1.31-.13-1.47.24-.24.07-.05-.2-.29-.12-.19.07-.34.17-.59.18-.8-.17-1.06-.78-1.55-1.22-.27-2.31-1.06-4.65-.88-6.95.5-.4.32-1.86,1.46-1.34,1.43,2.27,2.88,4.54,4.27,6.83.14.62.24,1.25-.15,1.71-.46.07-.58.42-.81.68h0Z"/>
    <path class="cls-5" d="M110.27,148.29c.63.69,1.15,1.97,1.69,2.81.55.84,1.19,1.59,1.77,2.37-.07.63.42.93.29,1.41-.23.82-1.68.76-2.72.67-.16-.21-.29-.46-.51-.61-.21-2.2-.89-4.48-.51-6.64h0Z"/>
    <path class="cls-9" d="M124.03,102.29c.02.18.1.3.35.29.15-.29.26-.39,0-.62-.19.05-.1.33-.35.33h0ZM124.63,98.74c-.28.57-.97,1.02-.8,1.82.43-.02.72-.15.9-.37,1.01-.04,1.67-.77,1.39-1.61-.14-.07-.44,0-.4-.21-.18,0-.14.05-.3,0-.09.26-.57.22-.8.37h0ZM118.95,88.46c-.09.45-.62.74-.65,1.12h-.15c-.08.39-.38.62-.59.9.06,0,.14,0,.15.04-.77.41-.48,1.44-.94,2.1,0,.28-.06.51-.2.66.09.03-.06.48-.04.62.42-.03.31-.48.74-.5.13-.65.81-1.06.79-1.69.6-.55.75-1.47,1.2-2.14-.04-.17.16-.94.05-1.2-.22-.06-.15.13-.35.09h0ZM120.05,86.97c.08.23.22.4.45.5.12.53.35,1.39,0,1.94h-.2s.1.08.15.12c-.37.39-.5,1.37-.8,1.94-.06.11-.22.25-.3.33.01.05.1.03.1.08-.14.03-.23.51-.2.45-.07.14-.28.23-.35.37-.04.08,0,.21-.04.29-.02,0-.14.01-.15.04-.12.19-.13.6-.45.62,0,.07.06.09.05.16-.29,0-.26.28-.54.29-.4.89-1,1.62-1.59,2.35.03.34-.22.45,0,.66.78-.04,2.33-.11,2.58.54.37.03.62.18.7.45.73.46.88,1.15,1.14,2.02-.25.14.15.79.29,1.11.28.06.75.14,1.05.05.21-.23,0-.8.25-.99-.04,0-.02-.55.1-.75.33-.57.68-1.74,1.49-1.9-.04-.11.2-.19.05-.25.77-.7,2.86-.78,3.39.21.26.1.43.27.69.37.34.61.4,1.48.1,2.19-.28-.05-.24.21-.45.29-.38.15-1.04.04-1.4.21-.24.18-.39.45-.8.49-.02.33-.37.47-.45.62.36.28.84.85,1.39.7v.16c.54.14,1.18.18,1.7.33.11.3-.06.46-.3.74-.94.09-2.88.26-3.53-.25-.54.06-.61-.27-1.1-.25.04-.17-.17-.29-.35-.28-.22,0-.21.3-.45.37-.49.14-.96-.17-1.49-.09-.78-.3-1.43-.72-1.94-1.23.08-.25-.14-.54,0-.58-.26-.97-.95-1.83-1-3.1-.21.04-.61.03-.85.04-.39.82-1.23,1.86-1.5,2.89-.26.98-.37,2.24-.74,3.23-1.38.11-1.33-1.15-1.14-2.06.15-.8.49-1.55.7-2.07-.04-.27.06-1-.15-1.36-.29.4-.72.67-.84,1.2-.35.17-.46.55-.6.79-.23.07-.43.16-.4.45-.24.04-.3.21-.65.16-.27.33-.65.56-.9.91h-.5c-.04-.1-.09-.2-.2-.25-.18-.47.38-.69.5-.95.13-.33-.14-.58.1-.91.35-.04.4-.33.7-.41v-.25c1-.59,1.43-1.45,2.14-2.23-.21-.15.05-.13.2-.28.06-.08.09-.31.2-.42.04-.04.19-.06.2-.08.07-.13.01-.28.05-.41.01-.03.15-.08.15-.08.1-.36.11-.77.2-1.11,0-.04-.1-.04-.1-.04.08-.34.16-.52.3-.83.06-.14-.17-.04-.1-.17.28-.77.41-1.58.75-2.4.06-.02.47-.7.49-.78.01-.03-.09-.05-.1-.05.19-.37.35-.56.5-1.03.02-.06.16-.09.2-.16.03-.08-.04-.21,0-.29.18-.37.53-.69.7-1.07.18.03.22-.07.4-.05-.02-.08,0-.13.1-.12-.03-.05-.12-.05-.1-.13.13-.17.42-.2.35-.54.24-.09.38-.26.4-.53.59-.24,1.16-.13,1.74.04h0ZM105.76,87.96h.35c.05.16-.24.05-.35.08v-.08h0ZM101.02,90.85h.3c-.11.03-.13.14-.3.12v-.12h0ZM101.78,90.85v.12c-.09,0-.25.04-.2-.08.04-.04.11-.05.2-.05h0ZM101.57,90.9c-.05.12.11.07.2.08v-.12c-.09,0-.15,0-.2.05h0ZM101.03,90.98c.17.01.19-.09.29-.12h-.29v.12h0ZM104.57,99.69c.23-.03.35.05.55.04-.05.31.67.28.65.7.37.11.48.43.7.66-.06.3-.12.43-.2.99-.35.06-.14.46-.6.5,0,.27-.35.26-.4.5-.32-.01-.61,0-.8.08-.17-.04-.2-.19-.39-.21v-.53c.39-.26.63-.93.39-1.45-1.11-.08-.73.8-.94,1.32.01.13.42-.06.35.13-.13,0-.29-.02-.35.03-.05.56.29.78.35,1.24.31.12.64.21.7.54.17,0,.36.02.4-.08.23.2,1,.16,1.24,0,.08-.18.2-.33.45-.37.55-1.43-.09-2.83-.3-4.17.03-.41-.04-.75,0-.99.03-.19.25-.77,0-1.24,0-.04.06-.03.1-.04-.21-.11-.11-.49-.3-.62,0-.21.16-.17,0-.33.4-.77.15-1.98,0-2.59,0-.05.1-.04.1-.04-.14-.73-.23-1.3-.1-2.11.04-.26.21-.54.15-.87-.05-.13.12-.09.15-.16-.15-.1.09-.16-.1-.33-.03-.03-.27-.1-.4-.21-.04-.03,0-.14-.05-.16-.05-.04-.19,0-.25-.05l-.29-.28c-.17-.05-.34.03-.45,0,.06-.07.06-.11,0-.17-.56.05-.76-.19-1.14-.29.03-.04.11-.04.1-.12-.27-.12-.72-.09-1.1-.12-.01-.07.04-.08.1-.08-.58.06-.82-.02-1.3.12-.04.05-.06.11-.05.21-.57.05-.5.63-.94.79,0,.25-.08.42-.05.7,0,.11.21.07.2.2.72.02,1.43.03,1.79-.25-.14-.58-.03-.85.05-1.28.42-.06.58.09.9.12-.32.12.2.41.45.45-.04.28.18.35.34.45.13.66.03,1.23-.5,1.41-.04.15,0,.11-.05.25-.17.16-.57.13-.6.42-.74.22-1.31.03-1.99,0,.02-.06.13-.04.19-.05-.31-.21-.93-.18-1.29-.37.01-.1-.01-.16-.06-.21-.61-.14-.43-.73-.75-1.15-.05-.13.08-.1.1-.17-.22-.3-.06-.88-.2-1.15-.11-.24-.34-.81,0-1.2,0-.04-.05-.03-.1-.04.13-.24.5-.28.54-.58.32-.08.63-.16.65-.5,1.03-.17,2.3.01,3.34.09-.09.08,0,.05,0,.16.54,0,.74.27,1.34.21.1.3.38.46.8.5v.16c.57.02.86.28,1.4.33-.22.2.21.1.15.29.06,0,.04-.08.04-.12.15.16.42.2.75.21.26.26.52.51,1,.58.04.03.05.09.05.16.81.29,1.78.18,2.69,0,0-.05,0-.12-.05-.12.38-.11.81-.18,1.2-.29.04-.05.06-.11.05-.21.62-.24,1.03-.65,1.74-.83-.04-.04-.12-.04-.1-.12.57-.09.8-.38,1.29-.04.02.29.06.54-.05.95-.12.01-.21.05-.3.08.12.31-.44.36-.44.7-.36.1-.7.19-.81.5-.41-.02-.53.21-.89.24-.09.17.38,0,.04.13-.21.07-.56.21-.8.37-.15.1-.54.18-.8.29-.04.01-.08.12-.1.12-.09.03-.27,0-.3,0-.09.04-.01.12-.1.17-.02,0-.75.16-.8.16-.51.09-1.09.03-1.44.04-.29.47-.32,1.42-.65,1.98-.06.13.16.03.1.16-.39.74-.42,1.93-.69,2.48-.06.13.16.03.1.16-.06.03-.17.23,0,.33-.15.4.18,1.23.1,1.57.25.16.02.73.3.87.04.13-.17.05-.09.21.25,1.59.59,4.28-.91,5-.08.29-.32.44-.7.49-.02.07.04.08.1.08-.23.05-.37.17-.55.25-.36-.05-.95-.09-1.2.08-.34-.14-1.07-.1-1.49-.28-.17-.08-.13-.28-.4-.21-.04-.13-.11-.23-.3-.25-.04-.28-.52-.52-.6-.91,0-.05-.09-.04-.15-.04-.22-.55-.07-1.05,0-1.65.21-.06.13-.37.2-.54-.06-.17-.53-.22-.06-.16.16-.96,1.07-1.41,2.19-1.44.1,0,.03-.14.1-.17h0Z"/>
    <path class="cls-1" d="M124.03,102.29c.02.18.1.3.35.29.15-.29.26-.39,0-.62-.19.05-.1.33-.35.33h0ZM124.63,98.74c-.28.57-.97,1.02-.8,1.82.43-.02.72-.15.9-.37,1.01-.04,1.67-.77,1.39-1.61-.14-.07-.44,0-.4-.21-.18,0-.14.05-.3,0-.09.26-.57.22-.8.37h0ZM118.95,88.46c-.09.45-.62.74-.65,1.12h-.15c-.08.39-.38.62-.59.9.06,0,.14,0,.15.04-.77.41-.48,1.44-.94,2.1,0,.28-.06.51-.2.66.09.03-.06.48-.04.62.42-.03.31-.48.74-.5.13-.65.81-1.06.79-1.69.6-.55.75-1.47,1.2-2.14-.04-.17.16-.94.05-1.2-.22-.06-.15.13-.35.09h0ZM120.05,86.97c.08.23.22.4.45.5.12.53.35,1.39,0,1.94h-.2s.1.08.15.12c-.37.39-.5,1.37-.8,1.94-.06.11-.22.25-.3.33.01.05.1.03.1.08-.14.03-.23.51-.2.45-.07.14-.28.23-.35.37-.04.08,0,.21-.04.29-.02,0-.14.01-.15.04-.12.19-.13.6-.45.62,0,.07.06.09.05.16-.29,0-.26.28-.54.29-.4.89-1,1.62-1.59,2.35.03.34-.22.45,0,.66.78-.04,2.33-.11,2.58.54.37.03.62.18.7.45.73.46.88,1.15,1.14,2.02-.25.14.15.79.29,1.11.28.06.75.14,1.05.05.21-.23,0-.8.25-.99-.04,0-.02-.55.1-.75.33-.57.68-1.74,1.49-1.9-.04-.11.2-.19.05-.25.77-.7,2.86-.78,3.39.21.26.1.43.27.69.37.34.61.4,1.48.1,2.19-.28-.05-.24.21-.45.29-.38.15-1.04.04-1.4.21-.24.18-.39.45-.8.49-.02.33-.37.47-.45.62.36.28.84.85,1.39.7v.16c.54.14,1.18.18,1.7.33.11.3-.06.46-.3.74-.94.09-2.88.26-3.53-.25-.54.06-.61-.27-1.1-.25.04-.17-.17-.29-.35-.28-.22,0-.21.3-.45.37-.49.14-.96-.17-1.49-.09-.78-.3-1.43-.72-1.94-1.23.08-.25-.14-.54,0-.58-.26-.97-.95-1.83-1-3.1-.21.04-.61.03-.85.04-.39.82-1.23,1.86-1.5,2.89-.26.98-.37,2.24-.74,3.23-1.38.11-1.33-1.15-1.14-2.06.15-.8.49-1.55.7-2.07-.04-.27.06-1-.15-1.36-.29.4-.72.67-.84,1.2-.35.17-.46.55-.6.79-.23.07-.43.16-.4.45-.24.04-.3.21-.65.16-.27.33-.65.56-.9.91h-.5c-.04-.1-.09-.2-.2-.25-.18-.47.38-.69.5-.95.13-.33-.14-.58.1-.91.35-.04.4-.33.7-.41v-.25c1-.59,1.43-1.45,2.14-2.23-.21-.15.05-.13.2-.28.06-.08.09-.31.2-.42.04-.04.19-.06.2-.08.07-.13.01-.28.05-.41.01-.03.15-.08.15-.08.1-.36.11-.77.2-1.11,0-.04-.1-.04-.1-.04.08-.34.16-.52.3-.83.06-.14-.17-.04-.1-.17.28-.77.41-1.58.75-2.4.06-.02.47-.7.49-.78.01-.03-.09-.05-.1-.05.19-.37.35-.56.5-1.03.02-.06.16-.09.2-.16.03-.08-.04-.21,0-.29.18-.37.53-.69.7-1.07.18.03.22-.07.4-.05-.02-.08,0-.13.1-.12-.03-.05-.12-.05-.1-.13.13-.17.42-.2.35-.54.24-.09.38-.26.4-.53.59-.24,1.16-.13,1.74.04h0Z"/>
    <path class="cls-1" d="M105.76,87.96h.35c.05.16-.24.05-.35.08v-.08h0Z"/>
    <path class="cls-1" d="M101.02,90.85h.3c-.11.03-.13.14-.3.12v-.12h0Z"/>
    <path class="cls-1" d="M101.78,90.85v.12c-.09,0-.25.04-.2-.08.04-.04.11-.05.2-.05h0Z"/>
    <path class="cls-1" d="M101.57,90.9c-.05.12.11.07.2.08v-.12c-.09,0-.15,0-.2.05h0ZM101.03,90.98c.17.01.19-.09.29-.12h-.29v.12h0ZM104.57,99.69c.23-.03.35.05.55.04-.05.31.67.28.65.7.37.11.48.43.7.66-.06.3-.12.43-.2.99-.35.06-.14.46-.6.5,0,.27-.35.26-.4.5-.32-.01-.61,0-.8.08-.17-.04-.2-.19-.39-.21v-.53c.39-.26.63-.93.39-1.45-1.11-.08-.73.8-.94,1.32.01.13.42-.06.35.13-.13,0-.29-.02-.35.03-.05.56.29.78.35,1.24.31.12.64.21.7.54.17,0,.36.02.4-.08.23.2,1,.16,1.24,0,.08-.18.2-.33.45-.37.55-1.43-.09-2.83-.3-4.17.03-.41-.04-.75,0-.99.03-.19.25-.77,0-1.24,0-.04.06-.03.1-.04-.21-.11-.11-.49-.3-.62,0-.21.16-.17,0-.33.4-.77.15-1.98,0-2.59,0-.05.1-.04.1-.04-.14-.73-.23-1.3-.1-2.11.04-.26.21-.54.15-.87-.05-.13.12-.09.15-.16-.15-.1.09-.16-.1-.33-.03-.03-.27-.1-.4-.21-.04-.03,0-.14-.05-.16-.05-.04-.19,0-.25-.05l-.29-.28c-.17-.05-.34.03-.45,0,.06-.07.06-.11,0-.17-.56.05-.76-.19-1.14-.29.03-.04.11-.04.1-.12-.27-.12-.72-.09-1.1-.12-.01-.07.04-.08.1-.08-.58.06-.82-.02-1.3.12-.04.05-.06.11-.05.21-.57.05-.5.63-.94.79,0,.25-.08.42-.05.7,0,.11.21.07.2.2.72.02,1.43.03,1.79-.25-.14-.58-.03-.85.05-1.28.42-.06.58.09.9.12-.32.12.2.41.45.45-.04.28.18.35.34.45.13.66.03,1.23-.5,1.41-.04.15,0,.11-.05.25-.17.16-.57.13-.6.42-.74.22-1.31.03-1.99,0,.02-.06.13-.04.19-.05-.31-.21-.93-.18-1.29-.37.01-.1-.01-.16-.06-.21-.61-.14-.43-.73-.75-1.15-.05-.13.08-.1.1-.17-.22-.3-.06-.88-.2-1.15-.11-.24-.34-.81,0-1.2,0-.04-.05-.03-.1-.04.13-.24.5-.28.54-.58.32-.08.63-.16.65-.5,1.03-.17,2.3.01,3.34.09-.09.08,0,.05,0,.16.54,0,.74.27,1.34.21.1.3.38.46.8.5v.16c.57.02.86.28,1.4.33-.22.2.21.1.15.29.06,0,.04-.08.04-.12.15.16.42.2.75.21.26.26.52.51,1,.58.04.03.05.09.05.16.81.29,1.78.18,2.69,0,0-.05,0-.12-.05-.12.38-.11.81-.18,1.2-.29.04-.05.06-.11.05-.21.62-.24,1.03-.65,1.74-.83-.04-.04-.12-.04-.1-.12.57-.09.8-.38,1.29-.04.02.29.06.54-.05.95-.12.01-.21.05-.3.08.12.31-.44.36-.44.7-.36.1-.7.19-.81.5-.41-.02-.53.21-.89.24-.09.17.38,0,.04.13-.21.07-.56.21-.8.37-.15.1-.54.18-.8.29-.04.01-.08.12-.1.12-.09.03-.27,0-.3,0-.09.04-.01.12-.1.17-.02,0-.75.16-.8.16-.51.09-1.09.03-1.44.04-.29.47-.32,1.42-.65,1.98-.06.13.16.03.1.16-.39.74-.42,1.93-.69,2.48-.06.13.16.03.1.16-.06.03-.17.23,0,.33-.15.4.18,1.23.1,1.57.25.16.02.73.3.87.04.13-.17.05-.09.21.25,1.59.59,4.28-.91,5-.08.29-.32.44-.7.49-.02.07.04.08.1.08-.23.05-.37.17-.55.25-.36-.05-.95-.09-1.2.08-.34-.14-1.07-.1-1.49-.28-.17-.08-.13-.28-.4-.21-.04-.13-.11-.23-.3-.25-.04-.28-.52-.52-.6-.91,0-.05-.09-.04-.15-.04-.22-.55-.07-1.05,0-1.65.21-.06.13-.37.2-.54-.06-.17-.53-.22-.06-.16.16-.96,1.07-1.41,2.19-1.44.1,0,.03-.14.1-.17h0Z"/>
    <path class="cls-8" d="M83.39,153.65c.03-.66-.37-.96-.29-1.65-.39-.31-.56-.9-.52-1.41-.28-.15-.78-.12-.95-.36-.36-.02-.67,0-.96.06-.31.19-.47.5-.95.55-.47.47-1.21.89-1.47,1.58-.18.46.08.94-.3,1.28-.05-.32.03-.42-.22-.61-.1-.65.26-.92.22-1.52.57-.42.79-1.13,1.61-1.34.55-.49,1.25-.88,2.21-.73.86.12,1.5.89,2.2,1.04.21.29.54.49.44,1.03.32.79-.34,2.01-.73,2.26.17-.33-.1-.01-.3-.18h0Z"/>
    <path class="cls-4" d="M81.41,155.05c-.29-.07-.42-.19-.66,0-.5-.29-1.43-.23-1.69-.73-.02-.75-.13-1.45.23-2.14.16-.14.23.11.5.06.14-.18.13-.47.23-.67,1.81-1.07,2.58,1.11,2.5,2.75-.34.26-.62.58-1.1.73h0Z"/>
    <path class="cls-3" d="M82.51,154.32c.09-1.63-.69-3.82-2.5-2.75-.1.21-.09.49-.23.67-.27.05-.34-.2-.5-.06-.36.68-.25,1.38-.23,2.14.26.5,1.19.44,1.69.73.24-.18.37-.07.66,0,.48-.16.76-.47,1.1-.73h0ZM83.69,153.83c.4-.25,1.06-1.46.73-2.26.1-.54-.23-.74-.43-1.04-.7-.14-1.35-.9-2.21-1.03-.96-.15-1.67.24-2.21.73-.82.21-1.04.92-1.61,1.34.04.6-.32.88-.22,1.52.25.2.18.29.22.61.38-.33.12-.82.3-1.28.26-.7,1-1.12,1.47-1.58.48-.05.65-.36.95-.55.29-.05.59-.09.95-.06.18.24.68.21.95.36-.04.51.12,1.09.52,1.41-.07.69.32.99.29,1.65.19.17.46-.14.29.18h0ZM80.75,148.65c.1.04.55.28.59,0,.2.15.54.15.74,0,.87.35,1.48.93,2.5,1.15.39.83.92,1.93.37,2.93.11.34.08.06-.07.24-.09.1-.1.56-.29.85-.07.1-.33.17-.43.31-.26.33-.1.49-.59.54.06.19-.12.19-.07.37-.2-.35-.32.28-.58.06-.23,1.21-2.35.28-3.02.67-.34-.26-.81-.42-1.47-.42-.59-.36-1.05-.84-1.54-1.28-.3-2.92,1.5-4.54,3.89-5.43h0Z"/>
    <path class="cls-5" d="M106.15,147.87c.12,0-.08.25,0,.42-.29.1-.38.37-.37.73-.79,1.36-1.33,2.93-1.99,4.39-.22.04-.28.21-.29.43-.26.13-.48.29-.81.37-.26-.09-.4-.28-.66-.37-.23-.6-.48-1.11-.21-1.83.8-.88,1.64-1.73,2.35-2.68.47-.16.72-.5.88-.91.48-.09.82-.3,1.11-.55h0Z"/>
    <path class="cls-9" d="M113.21,111.09h.13c-.05.09-.12.16-.13.29-.12-.06.03-.19,0-.29h0ZM83.69,112.4c.18.16.05.62-.04.79-.14-.25-.22-.64.04-.79h0ZM111.48,115.8h.13v.21c-.16.03-.14-.1-.13-.21h0ZM124.02,120.4h.13c.06.16-.14.12-.09.29-.08.1-.03-.21-.04-.29h0ZM120.98,120.76h.14c-.02.15-.1.23-.14.37-.13-.09.04-.24,0-.37h0ZM92.95,125.84h.13c0,.05,0,.1.05.11,0,.09-.17.03-.13.14-.11-.08-.05-.13-.05-.25h0ZM146.5,125.17h.13v.15c-.15.03-.15-.05-.13-.15h0ZM109.44,127.06c0,.1-.18.03-.3.11-.11-.14.18-.22.3-.11h0ZM133.35,127.02c.1.07.21.13.3.22-.21.02-.32-.05-.3-.22h0ZM103.89,127.38c-.1.03-.34.07-.43,0-.02-.39.35-.18.43,0h0ZM124.49,127.88h.22c0,.07.05.08.04.15-.11-.04-.25-.04-.26-.15h0ZM124.75,128.03c.01-.07-.05-.08-.04-.15h-.22c.02.11.15.11.26.15h0ZM103.45,127.38c.09.07.33.03.43,0-.08-.18-.45-.39-.43,0h0ZM133.65,127.24c-.08-.09-.2-.15-.3-.22-.02.17.09.24.3.22h0ZM109.13,127.17c.13-.08.3,0,.31-.11-.13-.12-.42-.03-.31.11h0ZM108.53,127.13c0-.23-.43-.1-.52-.25.05.18.32.19.52.25h0ZM93,126.09c-.04-.11.14-.05.13-.14-.05,0-.05-.06-.05-.11h-.13c0,.12-.06.17.04.25h0ZM111.61,123.82c-.05-.36.09-1.01-.09-1.51-.23-.05-.13.17-.26.21-.1-.04-.07-.18-.22-.18-.07,0-.02.1-.08.11-.1-.05-.27-.04-.35-.11-.15.05-.09.14-.31.07-.01.26-.29.13-.48.29v.18c-.22-.08-.39.16-.39.36-.27.16-.58.4-.52.72-.08.04-.21.05-.31.07-.07.47-.5.63-.56,1.12.29-.06.5.23.7.03-.02.15.27.04.39.07.02-.06-.06-.09,0-.1.36-.04.55-.22.74-.4.07,0,.02.1.09.1.51-.36,1.67-.36,1.56-1.12,0,.05.02.09.09.07h0ZM120.98,121.13c.04-.13.12-.21.13-.37h-.13c.04.13-.13.27,0,.37h0ZM124.06,120.69c-.06-.17.15-.12.09-.29h-.13c.01.07-.04.38.04.29h0ZM113.21,111.37c.01-.12.08-.2.13-.29h-.13c.03.1-.13.23,0,.29h0ZM114.99,113.86c-.04.23-.13.47-.17.68-.13.68.08,1.38-.09,2.01-.03.11,0,.14,0,.21,0,.06-.13.2-.13.26,0,.23.09.42.13.54-.21.44-.18,1.35.04,1.76.4-1.1.45-2.48.95-3.49.17-.37.15-.89.39-1.19,0-.21.08-.37.05-.61.34-1.08.02-2.45-.18-3.56-.51.94-.76,2.22-1,3.38h0ZM104.15,125.98c.56-.15.83-.55,1.04-1.01.29.07.24-.13.43-.14.1-1.38.91-2.17,1.43-3.2.56-.36.87-.93,1.52-1.22.07-.16.31-.18.31-.4.3.1.33-.32.65-.32.08-.04.05-.16.09-.21.24.14.95-.4,1.25-.54.08-.02.09.02.09.07.19-.12.4-.22.73-.22-.1-.89.04-1.93.09-2.55-.15-.14-.06-.46-.13-.65.34-.33.16-.89.21-1.33.13-1.11.44-2.23.69-3.2.34-.16.35-.57.52-.87.36-.16.34-.63.65-.83-.02-.14.07-.17.04-.32.26-.04.28-.29.34-.51.31-.07.31-.42.65-.47.06-.44.8-.33.95-.68,2.03-.32,2.15,1.46,2.78,2.51.1,1.31-.07,2.59-.35,3.75-.05.23-.2.44-.26.68-.25,1.03-.31,2.12-.87,2.98-.04.3-.1.61-.22.86-.01.03-.12,0-.13.04-.26.43-.16.82-.26,1.33-.04.17-.12.39-.18.57-.26.79-.54,1.99-1.08,2.81.05.16.18.27.09.47-.16.05-.08-.1-.21-.07-.13.58.19,1.36.52,1.8h.39c-.07.1-.28.08-.22.29.14-.18,0,.08.18.07.02.08-.09.05-.09.11.13.32.37.94.69.86.13,0,.11.1.17.14.32-.07.52-.24.95-.21,1.37-.65.89-2.83,1.74-3.92-.03-.19.06-.26.04-.43.41-.38.68-.89,1.13-1.26.13-.86.71-1.59.87-2.51.08-.47,0-.97.09-1.48.04-.26.31-.56.34-.86.26-.1.38-.31.61-.43.54.21,1,.52,1.39.86.36.95.12,2.41,0,3.49.31.25.89.27,1.25.47.69-.04,1.2-.03,1.65.18,0,.15.14.2.22.29-.06.88-1.24.83-1.7,1.37-.12.52.26,1,0,1.41.21.9.17,2.04.52,2.83.88-.52,1.46-1.3,2.17-1.98h.25c.05-.08.15-.12.26-.15-.1-.3.07-.55.13-.83h.18c-.06-.39.28-.7.34-1.01.05-.23-.01-.47.09-.68.05-.1.21-.16.26-.25.15-.26.18-.51.39-.72.2-.2.47-.3.7-.47.09-.06.1-.19.17-.26.04-.03.14,0,.17-.03.04-.03.01-.12.04-.15.23-.17.67-.33.91-.46.27-.15.71-.37,1.09-.51.63.15.86-.36,1.43-.11-.04.11.06.11.13.15.08.47.26.87.64,1.08,0,.15.11.34,0,.47h-.48c0,.16-.33.06-.3.26-.34.05-.67.12-.87.28-.88.1-1.39.89-1.56,1.69-.23,1.1-.06,2.48.65,3.06v.29c.28.22.4.58,1.04.5.04.17.35.12.39.29.36.11.65-.02,1.04-.11.42-.1.95-.11,1.3-.22.6-.18.95-.68,1.05-1.26.04-.02.04-.08.13-.07v-1.15c-.09-.51-.46-.78-.7-1.15-.99-.15-1.53.79-1.3,1.66.82-.33,1.11.91.43,1.15-.39-.14-.8-.06-1.18-.15-.81-.2-1.19-.98-1.03-1.73.05-.11-.15-.03-.09-.14.15-.2.09-.75.17-.94.12-.25.43-.35.53-.68.75-.35,1.21-.76,2.38-.57.27.04.57.16.87.21-.03.11.15.05.08.18.61.06.53.71,1.04.86.02.49.47.81.39,1.26.33.26.28.83.17,1.26-.25.18-.12.68-.48.76-.09.74-.51,1.23-.73,1.87-.21.08-.31.25-.4.43-.39.1-.73.19-1.12.36,0,.11-.1.16-.09.29-.14.05-.31.05-.39.14-.05-.2-.45-.05-.44-.21-1.24.37-2.72-.2-3.65-.65h-.34c-.46-.14-.96-.3-1.3-.36.09-.23-.24-.11-.17-.32-.47-.15-.65-.52-1.04-.72-.22-.37-.22-.88-.39-1.26-.03-.07-.1-.17-.21-.18-.26.61-.76,1.02-1.21,1.47,0,.15.2.14.13.36-.48,0-.31.52-.65.61-.08-.05-.28,0-.31-.11-.06.06-.09.15-.09.26-.58-.05-.89.51-1.35.32-.33.21-.93,0-1.12-.21-.07-.08-.08-.23-.17-.37-.2-.27-.44-.42-.56-.72-.05-.48-.11-.97-.09-1.5.02-.09-.09-.05-.09-.11-.03-1.2.21-2.21.09-3.49-.06-.11-.31-.08-.43-.04v-.15h-.65c-.35.4-.31,1.11-.74,1.44,0,.53-.4.73-.44,1.23-.42.35-.33.83-.69,1.22-.05.05-.21.1-.26.21-.05.11-.02.23-.09.29-.02.02-.11,0-.13.04-.11.19-.06.42-.3.5.02.23-.14.31-.21.46-.17.04-.07-.13-.22-.11-.23.57-.95.73-1.52,1.01-.37-.12-.86,0-1.13-.04-.04-.18-.31-.18-.39-.32-.38.15-.59-.13-.96-.11-.31-.29-.48-.68-.87-.9.04-.44-.52-.39-.56-.76-.12-.03-.17-.13-.26-.18-.05,0-.04.07-.04.11-.1-.03-.02-.2-.04-.29-.3-.05-.31.15-.48.21-.03.08.08.05.09.11-.39.31-.86.54-1.13.94-.16-.03-.2.05-.35.04-.13.32-.69.28-.91.54-.07.01-.08-.03-.09-.07.05.2-.46.09-.35.21-.05,0-.34.09-.34-.07.03.19-.4,0-.35.21-1.27-.3-2.48-.65-3.08-1.51-.05.16-.23.05-.22.21-.04-.04-.09-.07-.13-.11-.02.04,0,.18-.04.29-.1.01-.12-.02-.18-.04.04.04.05.08.05.15-.24,0-.15.09-.35,0,.15.21-.23.47-.26.75-.11.02-.15-.02-.13-.1-.06,0-.06.2-.13.07.04.27-.61.51-.74.36-.06.04-.06.12-.13.15-.18,0-.32-.07-.48,0-.04-.16-.26-.17-.43-.21,0-.14-.17-.15-.26-.21-.14-.28.02-.73-.18-.9.1-1.39-.51-2.5-.35-3.77.05-.42.18-.83.09-1.3-.02-.05-.13-.03-.09-.15-.08.02-.03.14-.17.11-.16-.32-.74-.3-.87-.53-.26-.03-.5-.07-.52-.29-.03.09-.2.08-.35.07-.39.44-.49,1.12-.56,1.83-.04.02-.05.08-.13.07-.08.87-.72,1.28-.87,2.09-.54.24-.49.96-1.04,1.19,0,.11.08.15.05.29h-.18c-.06.4-.46.52-.65.82-.14.03-.09-.1-.17-.1-.06.11-.17.2-.12.39-.43-.02-.65.37-.87.61-.25.03-.44.12-.56.25-.61-.26-.91-.8-1.21-1.33-.02-.22.04-.52-.05-.68-.65.26-1.96.77-2.56.04-.19.03-.18.1-.43.06-1.41-.2-1.18-1.92-1.08-3.19.1-.19.32-.79.52-1.12.45-.31.73-.73,1.04-1.15,1.1-.38,1.62-1.25,3.12-1.29.1-.04.2-.07.27-.15.32.03.54.15.65.36.03-.1.26-.05.31-.14.02-.1-.02-.13-.14-.11.48-.28,1.24.02,1.01.53-.27-.03-.21.16-.31.29-.04.05-.24.1-.31.21-.04.07,0,.17-.04.22-.09.1-.33.25-.35.47-.48.11-.73.4-1.25.47-.35.43-.78.79-1.65.79-.15.14-.33.19-.48.29-.77.53-.79,1.2-1,2.13.14.04.04-.12.18-.07.31.2.72.28,1.04.14.15-.06.2-.26.39-.43.26-.23.81-.42.87-.86.05-.05.2-.02.26-.06.13-.48.37-.88.52-1.34.22,0,.46-.12.65,0,.27-.15.68-.32.95-.07.02.34-.17.63-.26,1.01-.15.67.04,1.48-.3,1.98-.04.25.03.4.08.58.19.07.37-.14.35,0,.6-.48.92-1.21,1.34-1.84.08-.63.28-1.16.61-1.58v-.28c.3-.71.54-1.29.69-2.05.56-.99.07-2.47.48-3.6.47-.26.63-.75,1.13-.97.1.13.4.1.61.15.1.14.47.42.35.5.63.47.1,1.18.09,1.91.06.12-.15.03-.09.15.06.18.1.37.18.54.21.16.6.17.69.43.43.01.57.46.95.4.05,0,.03.06.04.11.18-.09.41.09.7.11-.04.16-.07.03-.09.25-.16-.02-.25,0-.26.11.14.1.2-.11.35-.11-.02.2.13.01.17.14.1-.01.16-.06.18-.14-.09-.05-.17,0-.35-.04-.04-.14.15-.09.09-.25.39-.06.76-.15,1.04.07.09.26-.2.39-.26.57-.08.23.08.54-.22.65-.29,1.93-.74,3.53-.3,5.07h0ZM108.01,126.88c.09.15.52.02.52.25-.2-.06-.46-.07-.52-.25h0ZM83.65,113.19c.09-.17.21-.63.04-.79-.26.15-.18.55-.04.79h0ZM71.81,108.66c-.99.07-1.27,1.25-.87,2.01.03,0,.09,0,.09.04.64-.11.49-.92.21-1.26.06-.04.16-.4.57-.36.08.1.28.1.26.29.75.23.56,1.13.3,1.68-.26.15-.69.15-.86.37-1.38-.1-1.75-1.02-2.04-2.01-.44.49-.37,1.15.21,1.47-.03.39.2.76.39,1.08.1,0,.12.06.26.03.37.54,1.31.37,2.03.22.73-.49,1.13-1.31.87-2.34-.21-.13-.06-.55-.26-.68.11-.23-.26-.64-.52-.79-.27.04-.59.04-.65.26h0ZM76.84,104.81h-.08c.62.73.85,1.79,1.51,2.49.18.52.35,1.05.65,1.47.18.63.37,1.14.56,1.84.23.78.07,1.59.26,2.34.06.62,0,1.33.18,1.93,0,.1-.15.07-.1.21.11.37.21.78.26,1.19.1.68-.02,1.38.05,2.05.01.15.11.26.13.39.06.5.06,1.06,0,1.48-.02.15,0,.45,0,.68.42-.65.72-1.4.95-2.19.21-.74.66-1.41.87-2.12.16-.1.04-.42.26-.47,0-.41.22-.63.39-.9.04-1.11-.54-2.66.26-3.56.51-.16.9-.13,1.39.03.05.23.32.29.52.4.09.25.21.47.39.64.06.53.03.84,0,1.33-.04.03-.08.07-.12.11-.09.79.07,1.63-.09,2.37-.04.2-.17.36-.17.54-.04.74.36,1.35.69,1.94-.02.26.1.39.08.64.13.52.52,1.01.65,1.55.11.39-.06.84.44,1.05.5-.29.25-1.2.51-1.69.16-2.19,1.05-3.76,1.61-5.61.17-.12.4-.2.39-.47.29-.14.42-.42.61-.65.33-.18.52-.47.78-.72.16.04.12-.09.26-.07.48-.46,1.19-.71,1.78-1.08.61,0,.97-.21,1.65-.15.1.14.35.15.57.18.78.72,1.87,1.18,2.34,2.16.18.83.09,1.86-.13,2.59-.13.05-.19.15-.21.29h-.27c-.08.16-.06.17-.08.36-.18-.03-.15.11-.18.21-.37.18-.61.55-1.22.5-.32-.21-.64-.42-1.13-.5-.15-.29-.28-.67-.52-1.04-.16-.26-.46-.51-.52-.76-.14-.57.12-1,.39-1.4,1.63-.22,1.02,1.2,1.39,2.01.15.16.65.13.87.04.31-.4.47-.92.43-1.62-.1-.1-.1-.22-.18-.4-.1-.23-.37-.33-.52-.54-.07-.1-.02-.22-.13-.33-.32-.3-.87-.37-1.3-.61-.18.17-.44.26-.78.29-.59.5-.87,1.24-1.52,1.69.06.2-.12.23-.21.32-.16.16-.22.58-.36.79-.01.03-.11.02-.12.04-.05.08-.01.19-.05.25-.1.19-.53.41-.48.83-.47.48-.47,1.36-.99,1.8-.13.56-.43.96-.57,1.51-.06,0-.12,0-.13.04-.05.12.15.02.08.14-.19.79-.55,1.69-.69,2.59-.22.26,0,.73-.26.94.05.23.05.98-.21,1.26-.02.09.2-.02.13.11-.41.81-.36,1.97-.13,2.88-.1-.03-.21.08-.31.07-.11,0-.1-.12-.26-.18-.05-.02-.17.03-.21,0-.1-.05-.18-.26-.26-.29-.22-.09-.75-.09-.91-.04-.2-.05-.33-.15-.61-.14-.3-.54-.2-1.3-.39-2.05-.14-.24-.19-.57-.17-.94-.24-.3-.05-.94-.26-1.26.12-.52-.14-1-.22-1.48-.1-.62.04-1.24-.3-1.69.09-.38-.17-1.04-.26-1.51-.54.6-.71,1.52-1,2.34.01.09-.09.09-.17.1.07.81-.22,1.33-.61,1.77.03.25-.07.4-.04.65-.34.24-.29.81-.65,1.04.17.65-.48,2.07-.09,3.06-.15,0-.31.16-.61,0-.08-.04-.1-.19-.21-.25-.08-.05-.22,0-.31-.04-.07-.03-.14-.2-.26-.26-.2-.09-.4-.08-.43-.28-.22-.03-.48-.04-.61-.15-.12.11-.05-.03-.21.07-.64-.24-.62-1.02-1.04-1.44.04-.63.2-2.07,0-2.91.2-.86-.23-2.4.09-3.09.02-.12-.02-.18-.09-.21.07-.08.11-.2.09-.36-.37-1.14.02-2.64-.26-3.63-.01-.74-.03-1.27-.17-1.87.06-.42-.12-1.03.09-1.33-.27-.96-.03-2.32-.43-3.16.17-1.2-.73-1.51-.78-2.52-.12-.08-.17-.22-.31-.29.02-.38-.31-.48-.47-.72-.26-.03-.64-.08-.78.07-.1.02-.06-.07-.13-.07-.64.28-1.4.47-1.95.83-.5.45-.97.93-1.56,1.3-.16.49-.7.67-.78,1.23.05-.08.15-.12.27-.15.18-.55.74-.78,1.21-1.08.45-.02.47.1.73,0,.63.24,1.27.48,1.47,1.08.12.03.11.18.26.18.25.76.49,1.48.35,2.34-.13.82-.9,1.37-1.3,1.91-.26.04-.48.13-.65.25-.44-.18-1.09.46-1.65.07-.17-.03-.11.12-.3.07-.87-.27-1.7-.57-2.21-1.12-.11-.73-.54-1.66.13-2.15.28-1.28.85-2,1.44-3.1.54-.35.99-.78,1.38-1.26.08,0,.09-.04.17-.03.05-.06.11-.13.13-.22.29-.13.69-.17.78-.47.76-.21,1.15-.75,1.87-1,.04-.12.15-.16.21-.26.5-.07.9-.09,1.3,0,.37.09.57.35.91.39.12.23.3.4.52.54h0ZM146.63,125.31v-.15h-.13c-.01.1-.01.18.13.15h0ZM142.94,116.97c.29-.4.31-1.02.65-1.36,0-.5.26-.79.22-1.33.29-.58.04-1.22.13-1.84.1-.66.52-1.35.31-2.04-.08,0-.11-.04-.09-.11-.1,0-.17,0-.22-.04-.09.16-.18.33-.48.32-.02.23-.26.42-.35.64-.04.1,0,.22-.04.33-.13.37-.35.8-.48,1.22-.22.76.02,1.71-.26,2.55-.09.27-.18.64-.17,1.05.02.74,0,1.57.09,2.15.26-.49.64-.88.69-1.54h0ZM146.37,113.34s.09.02.09.07c-.15.18-.05.56-.26.68-.03.22.05.52-.18.58.1.1.01.61-.21.68.03.58-.39.78-.4,1.33-.21-.05-.06.19-.25.15,0,.68-.45.97-.57,1.54-.13-.03-.15.04-.25.04.06.23-.13.23-.22.32.04.22,0,.24-.04.43-.46.05-.36.57-.82.61,0,.58-.84.7-1,1.26.23,1.15.19,2.59.65,3.67.14.32.48.46.74.72.54.05,1.36.17,1.77-.08.25-.39.93-.91.79-1.47.19-.7.49-1.55.3-2.37-.12-.53-.54-.95-.87-1.26-.74.58-.9,2.25-.47,3.24-.1-.01-.05.1-.13.1-.12.06-.21-.15-.44-.1v-.11c-.42-.07-.57-.36-.82-.58-.31-.63-.18-1.39-.12-2.12.17-.1.28-.25.34-.43.59-.3.9-.84,1.78-.89.13-.07.19-.2.34-.26-.05.1.14.1.09,0,.26.12.66.15.95.26.39.58,1.31.71,1.38,1.54.04.07.06.15.13.18-.03.08.09.28-.09.25.28.8.05,1.72-.35,2.4.07.06.02.23.13.26-.2.49-.61.79-.69,1.36-.17,0-.12-.04-.26,0-.73.72-1.29,1.6-2.25,2.12-.57,0-1.06.05-1.74-.03-.36-.3-.62-.69-1-.97-.38-1.17-1.49-1.74-1.47-3.24-.1-.17-.21-.31-.18-.58-.8.5-1.16,1.33-2.3,1.22-.15-.26.07-.45.18-.61-.06-.25-.12-.37,0-.61.95-.26,1.25-1.06,1.86-1.62-.25-1.42-.56-2.87-.74-4.47-.1-.91.02-2.26.09-3.27.13-.12.2-.28.17-.53.15-.84.76-1.3,1-2.05.26-.2.55-.38.65-.72.1-.02.17-.07.3-.07.24-.57.99-.72,1.3-1.23.49.04.58-.47.96-.57.5-.15.97.13,1.56.18.18.19.41.36.65.5.48.71.42,1.94.39,3.06,0,.15-.02.35-.04.47-.07.37-.16.78-.44,1.01h0ZM156.88,125.34c.02-.06.17-.19.05-.26,0,.14-.21.1-.22.21,0-.04,0-.08-.09-.07,0,.11.13.11.26.11h0ZM153.41,120.74c-.25.19-.73.35-.87.58h-.22c-.26.31-.75.43-.92.83.85.24,1.99.15,2.91.18.31-.34.32-.93.48-1.4-.36-.34-1.09-.4-1.38-.18h0ZM156.23,122.18c-.34.03-.38.3-.48.54-.1-.05-.23-.07-.31-.14-.07.08-.07.2-.09.32-.24.12-.47.26-.65.43-.4,0-.58,0-.69.25-.04-.28-.31.21-.35-.1-.21.1-.46.16-.74.04-.18.1-.83.16-.99,0-.24.22-.59.08-.92.14.02.29.25.42.52.51.27.51.56,1,1.08,1.29,1.05-.11,2.25-.1,3.13-.5.37-.01.79,0,1-.14.58.02.75-.11,1.08-.32.3-.01.39.19.31.4-.37-.02-.36.27-.7.29-.07.51-.65.46-.82.82-.47-.11-.51.35-.91.32-.31.31-.9.28-1.34.55-.25-.26-.7.14-.83-.07-.01.04-.19.15-.17,0-.09.01-.04.14-.18.1-.3-.28-.76,0-1.09-.25-.51.17-1.08-.2-1.68-.18-.11-.12-.19-.26-.3-.37.2-.57-.21-1.11-.35-1.62-.06-.42-.01-.7-.22-.97-.38.02-.51-.16-.82-.18-.43-.57.07-1.42.91-1.11.12-.12.12-.34.13-.55.18-.61.75-.9,1.18-1.33.72-.27,1.69-.79,2.51-.47.3,0,.61,0,.74.14.85-.03,1.24.54,1.74.87.18.12.36.14.48.36,0,.22.02.45-.13.54.12.16-.04.16-.04.39h0Z"/>
    <path class="cls-1" d="M113.21,111.09h.13c-.05.09-.12.16-.13.29-.12-.06.03-.19,0-.29h0Z"/>
    <path class="cls-1" d="M83.69,112.4c.18.16.05.62-.04.79-.14-.25-.22-.64.04-.79h0Z"/>
    <path class="cls-1" d="M111.48,115.8h.13v.21c-.16.03-.14-.1-.13-.21h0Z"/>
    <path class="cls-1" d="M124.02,120.4h.13c.06.16-.14.12-.09.29-.08.1-.03-.21-.04-.29h0Z"/>
    <path class="cls-1" d="M120.98,120.76h.14c-.02.15-.1.23-.14.37-.13-.09.04-.24,0-.37h0Z"/>
    <path class="cls-1" d="M92.95,125.84h.13c0,.05,0,.1.05.11,0,.09-.17.03-.13.14-.11-.08-.05-.13-.05-.25h0Z"/>
    <path class="cls-1" d="M146.5,125.17h.13v.15c-.15.03-.15-.05-.13-.15h0Z"/>
    <path class="cls-1" d="M109.44,127.06c0,.1-.18.03-.3.11-.11-.14.18-.22.3-.11h0Z"/>
    <path class="cls-1" d="M133.35,127.02c.1.07.21.13.3.22-.21.02-.32-.05-.3-.22h0Z"/>
    <path class="cls-1" d="M103.89,127.38c-.1.03-.34.07-.43,0-.02-.39.35-.18.43,0h0Z"/>
    <path class="cls-1" d="M124.49,127.88h.22c0,.07.05.08.04.15-.11-.04-.25-.04-.26-.15h0Z"/>
    <path class="cls-1" d="M124.75,128.03c.01-.07-.05-.08-.04-.15h-.22c.02.11.15.11.26.15h0ZM103.45,127.38c.09.07.33.03.43,0-.08-.18-.45-.39-.43,0h0ZM133.65,127.24c-.08-.09-.2-.15-.3-.22-.02.17.09.24.3.22h0ZM109.13,127.17c.13-.08.3,0,.31-.11-.13-.12-.42-.03-.31.11h0ZM108.53,127.13c0-.23-.43-.1-.52-.25.05.18.32.19.52.25h0ZM93,126.09c-.04-.11.14-.05.13-.14-.05,0-.05-.06-.05-.11h-.13c0,.12-.06.17.04.25h0ZM111.61,123.82c-.05-.36.09-1.01-.09-1.51-.23-.05-.13.17-.26.21-.1-.04-.07-.18-.22-.18-.07,0-.02.1-.08.11-.1-.05-.27-.04-.35-.11-.15.05-.09.14-.31.07-.01.26-.29.13-.48.29v.18c-.22-.08-.39.16-.39.36-.27.16-.58.4-.52.72-.08.04-.21.05-.31.07-.07.47-.5.63-.56,1.12.29-.06.5.23.7.03-.02.15.27.04.39.07.02-.06-.06-.09,0-.1.36-.04.55-.22.74-.4.07,0,.02.1.09.1.51-.36,1.67-.36,1.56-1.12,0,.05.02.09.09.07h0ZM120.98,121.13c.04-.13.12-.21.13-.37h-.13c.04.13-.13.27,0,.37h0ZM124.06,120.69c-.06-.17.15-.12.09-.29h-.13c.01.07-.04.38.04.29h0ZM113.21,111.37c.01-.12.08-.2.13-.29h-.13c.03.1-.13.23,0,.29h0ZM114.99,113.86c-.04.23-.13.47-.17.68-.13.68.08,1.38-.09,2.01-.03.11,0,.14,0,.21,0,.06-.13.2-.13.26,0,.23.09.42.13.54-.21.44-.18,1.35.04,1.76.4-1.1.45-2.48.95-3.49.17-.37.15-.89.39-1.19,0-.21.08-.37.05-.61.34-1.08.02-2.45-.18-3.56-.51.94-.76,2.22-1,3.38h0ZM104.15,125.98c.56-.15.83-.55,1.04-1.01.29.07.24-.13.43-.14.1-1.38.91-2.17,1.43-3.2.56-.36.87-.93,1.52-1.22.07-.16.31-.18.31-.4.3.1.33-.32.65-.32.08-.04.05-.16.09-.21.24.14.95-.4,1.25-.54.08-.02.09.02.09.07.19-.12.4-.22.73-.22-.1-.89.04-1.93.09-2.55-.15-.14-.06-.46-.13-.65.34-.33.16-.89.21-1.33.13-1.11.44-2.23.69-3.2.34-.16.35-.57.52-.87.36-.16.34-.63.65-.83-.02-.14.07-.17.04-.32.26-.04.28-.29.34-.51.31-.07.31-.42.65-.47.06-.44.8-.33.95-.68,2.03-.32,2.15,1.46,2.78,2.51.1,1.31-.07,2.59-.35,3.75-.05.23-.2.44-.26.68-.25,1.03-.31,2.12-.87,2.98-.04.3-.1.61-.22.86-.01.03-.12,0-.13.04-.26.43-.16.82-.26,1.33-.04.17-.12.39-.18.57-.26.79-.54,1.99-1.08,2.81.05.16.18.27.09.47-.16.05-.08-.1-.21-.07-.13.58.19,1.36.52,1.8h.39c-.07.1-.28.08-.22.29.14-.18,0,.08.18.07.02.08-.09.05-.09.11.13.32.37.94.69.86.13,0,.11.1.17.14.32-.07.52-.24.95-.21,1.37-.65.89-2.83,1.74-3.92-.03-.19.06-.26.04-.43.41-.38.68-.89,1.13-1.26.13-.86.71-1.59.87-2.51.08-.47,0-.97.09-1.48.04-.26.31-.56.34-.86.26-.1.38-.31.61-.43.54.21,1,.52,1.39.86.36.95.12,2.41,0,3.49.31.25.89.27,1.25.47.69-.04,1.2-.03,1.65.18,0,.15.14.2.22.29-.06.88-1.24.83-1.7,1.37-.12.52.26,1,0,1.41.21.9.17,2.04.52,2.83.88-.52,1.46-1.3,2.17-1.98h.25c.05-.08.15-.12.26-.15-.1-.3.07-.55.13-.83h.18c-.06-.39.28-.7.34-1.01.05-.23-.01-.47.09-.68.05-.1.21-.16.26-.25.15-.26.18-.51.39-.72.2-.2.47-.3.7-.47.09-.06.1-.19.17-.26.04-.03.14,0,.17-.03.04-.03.01-.12.04-.15.23-.17.67-.33.91-.46.27-.15.71-.37,1.09-.51.63.15.86-.36,1.43-.11-.04.11.06.11.13.15.08.47.26.87.64,1.08,0,.15.11.34,0,.47h-.48c0,.16-.33.06-.3.26-.34.05-.67.12-.87.28-.88.1-1.39.89-1.56,1.69-.23,1.1-.06,2.48.65,3.06v.29c.28.22.4.58,1.04.5.04.17.35.12.39.29.36.11.65-.02,1.04-.11.42-.1.95-.11,1.3-.22.6-.18.95-.68,1.05-1.26.04-.02.04-.08.13-.07v-1.15c-.09-.51-.46-.78-.7-1.15-.99-.15-1.53.79-1.3,1.66.82-.33,1.11.91.43,1.15-.39-.14-.8-.06-1.18-.15-.81-.2-1.19-.98-1.03-1.73.05-.11-.15-.03-.09-.14.15-.2.09-.75.17-.94.12-.25.43-.35.53-.68.75-.35,1.21-.76,2.38-.57.27.04.57.16.87.21-.03.11.15.05.08.18.61.06.53.71,1.04.86.02.49.47.81.39,1.26.33.26.28.83.17,1.26-.25.18-.12.68-.48.76-.09.74-.51,1.23-.73,1.87-.21.08-.31.25-.4.43-.39.1-.73.19-1.12.36,0,.11-.1.16-.09.29-.14.05-.31.05-.39.14-.05-.2-.45-.05-.44-.21-1.24.37-2.72-.2-3.65-.65h-.34c-.46-.14-.96-.3-1.3-.36.09-.23-.24-.11-.17-.32-.47-.15-.65-.52-1.04-.72-.22-.37-.22-.88-.39-1.26-.03-.07-.1-.17-.21-.18-.26.61-.76,1.02-1.21,1.47,0,.15.2.14.13.36-.48,0-.31.52-.65.61-.08-.05-.28,0-.31-.11-.06.06-.09.15-.09.26-.58-.05-.89.51-1.35.32-.33.21-.93,0-1.12-.21-.07-.08-.08-.23-.17-.37-.2-.27-.44-.42-.56-.72-.05-.48-.11-.97-.09-1.5.02-.09-.09-.05-.09-.11-.03-1.2.21-2.21.09-3.49-.06-.11-.31-.08-.43-.04v-.15h-.65c-.35.4-.31,1.11-.74,1.44,0,.53-.4.73-.44,1.23-.42.35-.33.83-.69,1.22-.05.05-.21.1-.26.21-.05.11-.02.23-.09.29-.02.02-.11,0-.13.04-.11.19-.06.42-.3.5.02.23-.14.31-.21.46-.17.04-.07-.13-.22-.11-.23.57-.95.73-1.52,1.01-.37-.12-.86,0-1.13-.04-.04-.18-.31-.18-.39-.32-.38.15-.59-.13-.96-.11-.31-.29-.48-.68-.87-.9.04-.44-.52-.39-.56-.76-.12-.03-.17-.13-.26-.18-.05,0-.04.07-.04.11-.1-.03-.02-.2-.04-.29-.3-.05-.31.15-.48.21-.03.08.08.05.09.11-.39.31-.86.54-1.13.94-.16-.03-.2.05-.35.04-.13.32-.69.28-.91.54-.07.01-.08-.03-.09-.07.05.2-.46.09-.35.21-.05,0-.34.09-.34-.07.03.19-.4,0-.35.21-1.27-.3-2.48-.65-3.08-1.51-.05.16-.23.05-.22.21-.04-.04-.09-.07-.13-.11-.02.04,0,.18-.04.29-.1.01-.12-.02-.18-.04.04.04.05.08.05.15-.24,0-.15.09-.35,0,.15.21-.23.47-.26.75-.11.02-.15-.02-.13-.1-.06,0-.06.2-.13.07.04.27-.61.51-.74.36-.06.04-.06.12-.13.15-.18,0-.32-.07-.48,0-.04-.16-.26-.17-.43-.21,0-.14-.17-.15-.26-.21-.14-.28.02-.73-.18-.9.1-1.39-.51-2.5-.35-3.77.05-.42.18-.83.09-1.3-.02-.05-.13-.03-.09-.15-.08.02-.03.14-.17.11-.16-.32-.74-.3-.87-.53-.26-.03-.5-.07-.52-.29-.03.09-.2.08-.35.07-.39.44-.49,1.12-.56,1.83-.04.02-.05.08-.13.07-.08.87-.72,1.28-.87,2.09-.54.24-.49.96-1.04,1.19,0,.11.08.15.05.29h-.18c-.06.4-.46.52-.65.82-.14.03-.09-.1-.17-.1-.06.11-.17.2-.12.39-.43-.02-.65.37-.87.61-.25.03-.44.12-.56.25-.61-.26-.91-.8-1.21-1.33-.02-.22.04-.52-.05-.68-.65.26-1.96.77-2.56.04-.19.03-.18.1-.43.06-1.41-.2-1.18-1.92-1.08-3.19.1-.19.32-.79.52-1.12.45-.31.73-.73,1.04-1.15,1.1-.38,1.62-1.25,3.12-1.29.1-.04.2-.07.27-.15.32.03.54.15.65.36.03-.1.26-.05.31-.14.02-.1-.02-.13-.14-.11.48-.28,1.24.02,1.01.53-.27-.03-.21.16-.31.29-.04.05-.24.1-.31.21-.04.07,0,.17-.04.22-.09.1-.33.25-.35.47-.48.11-.73.4-1.25.47-.35.43-.78.79-1.65.79-.15.14-.33.19-.48.29-.77.53-.79,1.2-1,2.13.14.04.04-.12.18-.07.31.2.72.28,1.04.14.15-.06.2-.26.39-.43.26-.23.81-.42.87-.86.05-.05.2-.02.26-.06.13-.48.37-.88.52-1.34.22,0,.46-.12.65,0,.27-.15.68-.32.95-.07.02.34-.17.63-.26,1.01-.15.67.04,1.48-.3,1.98-.04.25.03.4.08.58.19.07.37-.14.35,0,.6-.48.92-1.21,1.34-1.84.08-.63.28-1.16.61-1.58v-.28c.3-.71.54-1.29.69-2.05.56-.99.07-2.47.48-3.6.47-.26.63-.75,1.13-.97.1.13.4.1.61.15.1.14.47.42.35.5.63.47.1,1.18.09,1.91.06.12-.15.03-.09.15.06.18.1.37.18.54.21.16.6.17.69.43.43.01.57.46.95.4.05,0,.03.06.04.11.18-.09.41.09.7.11-.04.16-.07.03-.09.25-.16-.02-.25,0-.26.11.14.1.2-.11.35-.11-.02.2.13.01.17.14.1-.01.16-.06.18-.14-.09-.05-.17,0-.35-.04-.04-.14.15-.09.09-.25.39-.06.76-.15,1.04.07.09.26-.2.39-.26.57-.08.23.08.54-.22.65-.29,1.93-.74,3.53-.3,5.07h0Z"/>
    <path class="cls-1" d="M108.01,126.88c.09.15.52.02.52.25-.2-.06-.46-.07-.52-.25h0Z"/>
    <path class="cls-1" d="M83.65,113.19c.09-.17.21-.63.04-.79-.26.15-.18.55-.04.79h0ZM71.81,108.66c-.99.07-1.27,1.25-.87,2.01.03,0,.09,0,.09.04.64-.11.49-.92.21-1.26.06-.04.16-.4.57-.36.08.1.28.1.26.29.75.23.56,1.13.3,1.68-.26.15-.69.15-.86.37-1.38-.1-1.75-1.02-2.04-2.01-.44.49-.37,1.15.21,1.47-.03.39.2.76.39,1.08.1,0,.12.06.26.03.37.54,1.31.37,2.03.22.73-.49,1.13-1.31.87-2.34-.21-.13-.06-.55-.26-.68.11-.23-.26-.64-.52-.79-.27.04-.59.04-.65.26h0ZM76.84,104.81h-.08c.62.73.85,1.79,1.51,2.49.18.52.35,1.05.65,1.47.18.63.37,1.14.56,1.84.23.78.07,1.59.26,2.34.06.62,0,1.33.18,1.93,0,.1-.15.07-.1.21.11.37.21.78.26,1.19.1.68-.02,1.38.05,2.05.01.15.11.26.13.39.06.5.06,1.06,0,1.48-.02.15,0,.45,0,.68.42-.65.72-1.4.95-2.19.21-.74.66-1.41.87-2.12.16-.1.04-.42.26-.47,0-.41.22-.63.39-.9.04-1.11-.54-2.66.26-3.56.51-.16.9-.13,1.39.03.05.23.32.29.52.4.09.25.21.47.39.64.06.53.03.84,0,1.33-.04.03-.08.07-.12.11-.09.79.07,1.63-.09,2.37-.04.2-.17.36-.17.54-.04.74.36,1.35.69,1.94-.02.26.1.39.08.64.13.52.52,1.01.65,1.55.11.39-.06.84.44,1.05.5-.29.25-1.2.51-1.69.16-2.19,1.05-3.76,1.61-5.61.17-.12.4-.2.39-.47.29-.14.42-.42.61-.65.33-.18.52-.47.78-.72.16.04.12-.09.26-.07.48-.46,1.19-.71,1.78-1.08.61,0,.97-.21,1.65-.15.1.14.35.15.57.18.78.72,1.87,1.18,2.34,2.16.18.83.09,1.86-.13,2.59-.13.05-.19.15-.21.29h-.27c-.08.16-.06.17-.08.36-.18-.03-.15.11-.18.21-.37.18-.61.55-1.22.5-.32-.21-.64-.42-1.13-.5-.15-.29-.28-.67-.52-1.04-.16-.26-.46-.51-.52-.76-.14-.57.12-1,.39-1.4,1.63-.22,1.02,1.2,1.39,2.01.15.16.65.13.87.04.31-.4.47-.92.43-1.62-.1-.1-.1-.22-.18-.4-.1-.23-.37-.33-.52-.54-.07-.1-.02-.22-.13-.33-.32-.3-.87-.37-1.3-.61-.18.17-.44.26-.78.29-.59.5-.87,1.24-1.52,1.69.06.2-.12.23-.21.32-.16.16-.22.58-.36.79-.01.03-.11.02-.12.04-.05.08-.01.19-.05.25-.1.19-.53.41-.48.83-.47.48-.47,1.36-.99,1.8-.13.56-.43.96-.57,1.51-.06,0-.12,0-.13.04-.05.12.15.02.08.14-.19.79-.55,1.69-.69,2.59-.22.26,0,.73-.26.94.05.23.05.98-.21,1.26-.02.09.2-.02.13.11-.41.81-.36,1.97-.13,2.88-.1-.03-.21.08-.31.07-.11,0-.1-.12-.26-.18-.05-.02-.17.03-.21,0-.1-.05-.18-.26-.26-.29-.22-.09-.75-.09-.91-.04-.2-.05-.33-.15-.61-.14-.3-.54-.2-1.3-.39-2.05-.14-.24-.19-.57-.17-.94-.24-.3-.05-.94-.26-1.26.12-.52-.14-1-.22-1.48-.1-.62.04-1.24-.3-1.69.09-.38-.17-1.04-.26-1.51-.54.6-.71,1.52-1,2.34.01.09-.09.09-.17.1.07.81-.22,1.33-.61,1.77.03.25-.07.4-.04.65-.34.24-.29.81-.65,1.04.17.65-.48,2.07-.09,3.06-.15,0-.31.16-.61,0-.08-.04-.1-.19-.21-.25-.08-.05-.22,0-.31-.04-.07-.03-.14-.2-.26-.26-.2-.09-.4-.08-.43-.28-.22-.03-.48-.04-.61-.15-.12.11-.05-.03-.21.07-.64-.24-.62-1.02-1.04-1.44.04-.63.2-2.07,0-2.91.2-.86-.23-2.4.09-3.09.02-.12-.02-.18-.09-.21.07-.08.11-.2.09-.36-.37-1.14.02-2.64-.26-3.63-.01-.74-.03-1.27-.17-1.87.06-.42-.12-1.03.09-1.33-.27-.96-.03-2.32-.43-3.16.17-1.2-.73-1.51-.78-2.52-.12-.08-.17-.22-.31-.29.02-.38-.31-.48-.47-.72-.26-.03-.64-.08-.78.07-.1.02-.06-.07-.13-.07-.64.28-1.4.47-1.95.83-.5.45-.97.93-1.56,1.3-.16.49-.7.67-.78,1.23.05-.08.15-.12.27-.15.18-.55.74-.78,1.21-1.08.45-.02.47.1.73,0,.63.24,1.27.48,1.47,1.08.12.03.11.18.26.18.25.76.49,1.48.35,2.34-.13.82-.9,1.37-1.3,1.91-.26.04-.48.13-.65.25-.44-.18-1.09.46-1.65.07-.17-.03-.11.12-.3.07-.87-.27-1.7-.57-2.21-1.12-.11-.73-.54-1.66.13-2.15.28-1.28.85-2,1.44-3.1.54-.35.99-.78,1.38-1.26.08,0,.09-.04.17-.03.05-.06.11-.13.13-.22.29-.13.69-.17.78-.47.76-.21,1.15-.75,1.87-1,.04-.12.15-.16.21-.26.5-.07.9-.09,1.3,0,.37.09.57.35.91.39.12.23.3.4.52.54h0Z"/>
    <path class="cls-1" d="M146.63,125.31v-.15h-.13c-.01.1-.01.18.13.15h0ZM142.94,116.97c.29-.4.31-1.02.65-1.36,0-.5.26-.79.22-1.33.29-.58.04-1.22.13-1.84.1-.66.52-1.35.31-2.04-.08,0-.11-.04-.09-.11-.1,0-.17,0-.22-.04-.09.16-.18.33-.48.32-.02.23-.26.42-.35.64-.04.1,0,.22-.04.33-.13.37-.35.8-.48,1.22-.22.76.02,1.71-.26,2.55-.09.27-.18.64-.17,1.05.02.74,0,1.57.09,2.15.26-.49.64-.88.69-1.54h0ZM146.37,113.34s.09.02.09.07c-.15.18-.05.56-.26.68-.03.22.05.52-.18.58.1.1.01.61-.21.68.03.58-.39.78-.4,1.33-.21-.05-.06.19-.25.15,0,.68-.45.97-.57,1.54-.13-.03-.15.04-.25.04.06.23-.13.23-.22.32.04.22,0,.24-.04.43-.46.05-.36.57-.82.61,0,.58-.84.7-1,1.26.23,1.15.19,2.59.65,3.67.14.32.48.46.74.72.54.05,1.36.17,1.77-.08.25-.39.93-.91.79-1.47.19-.7.49-1.55.3-2.37-.12-.53-.54-.95-.87-1.26-.74.58-.9,2.25-.47,3.24-.1-.01-.05.1-.13.1-.12.06-.21-.15-.44-.1v-.11c-.42-.07-.57-.36-.82-.58-.31-.63-.18-1.39-.12-2.12.17-.1.28-.25.34-.43.59-.3.9-.84,1.78-.89.13-.07.19-.2.34-.26-.05.1.14.1.09,0,.26.12.66.15.95.26.39.58,1.31.71,1.38,1.54.04.07.06.15.13.18-.03.08.09.28-.09.25.28.8.05,1.72-.35,2.4.07.06.02.23.13.26-.2.49-.61.79-.69,1.36-.17,0-.12-.04-.26,0-.73.72-1.29,1.6-2.25,2.12-.57,0-1.06.05-1.74-.03-.36-.3-.62-.69-1-.97-.38-1.17-1.49-1.74-1.47-3.24-.1-.17-.21-.31-.18-.58-.8.5-1.16,1.33-2.3,1.22-.15-.26.07-.45.18-.61-.06-.25-.12-.37,0-.61.95-.26,1.25-1.06,1.86-1.62-.25-1.42-.56-2.87-.74-4.47-.1-.91.02-2.26.09-3.27.13-.12.2-.28.17-.53.15-.84.76-1.3,1-2.05.26-.2.55-.38.65-.72.1-.02.17-.07.3-.07.24-.57.99-.72,1.3-1.23.49.04.58-.47.96-.57.5-.15.97.13,1.56.18.18.19.41.36.65.5.48.71.42,1.94.39,3.06,0,.15-.02.35-.04.47-.07.37-.16.78-.44,1.01h0Z"/>
    <path class="cls-1" d="M156.88,125.34c.02-.06.17-.19.05-.26,0,.14-.21.1-.22.21,0-.04,0-.08-.09-.07,0,.11.13.11.26.11h0ZM153.41,120.74c-.25.19-.73.35-.87.58h-.22c-.26.31-.75.43-.92.83.85.24,1.99.15,2.91.18.31-.34.32-.93.48-1.4-.36-.34-1.09-.4-1.38-.18h0ZM156.23,122.18c-.34.03-.38.3-.48.54-.1-.05-.23-.07-.31-.14-.07.08-.07.2-.09.32-.24.12-.47.26-.65.43-.4,0-.58,0-.69.25-.04-.28-.31.21-.35-.1-.21.1-.46.16-.74.04-.18.1-.83.16-.99,0-.24.22-.59.08-.92.14.02.29.25.42.52.51.27.51.56,1,1.08,1.29,1.05-.11,2.25-.1,3.13-.5.37-.01.79,0,1-.14.58.02.75-.11,1.08-.32.3-.01.39.19.31.4-.37-.02-.36.27-.7.29-.07.51-.65.46-.82.82-.47-.11-.51.35-.91.32-.31.31-.9.28-1.34.55-.25-.26-.7.14-.83-.07-.01.04-.19.15-.17,0-.09.01-.04.14-.18.1-.3-.28-.76,0-1.09-.25-.51.17-1.08-.2-1.68-.18-.11-.12-.19-.26-.3-.37.2-.57-.21-1.11-.35-1.62-.06-.42-.01-.7-.22-.97-.38.02-.51-.16-.82-.18-.43-.57.07-1.42.91-1.11.12-.12.12-.34.13-.55.18-.61.75-.9,1.18-1.33.72-.27,1.69-.79,2.51-.47.3,0,.61,0,.74.14.85-.03,1.24.54,1.74.87.18.12.36.14.48.36,0,.22.02.45-.13.54.12.16-.04.16-.04.39h0Z"/>
    <polygon class="cls-4" points="162.35 161.08 62.85 158.49 62.17 166.95 162.62 167.9 162.35 161.08 162.35 161.08"/>
    <path class="cls-3" d="M159.37,38.31c.02-.11.18-.1.32-.09v-.36c-.24-.01-.45.46-.32.45h0ZM148.26,37.95c.22-.03.22.12.33.18.02-.11-.01-.26.11-.27.11,0,.13.07.22.09v-.27c-.37-.03-.42.21-.66.27h0ZM159.05,38.13c.39.04.48-.62,0-.55-.12.29.17.22.21.37-.14,0-.26.03-.21.18h0ZM157.96,38.22c.52.13.27-.37.32-.63-.13.02-.31,0-.32.09.44-.04.18.54,0,.54h0ZM146.3,161.21c.2,0,.26.09.23.27-1.95-.01-3.86.22-5.23-.27-.59.42-1.28.05-1.74-.09-.23.37-.75.13-1.52.36-.02-.16.11-.45-.22-.36.06.55-.91-.18-1.42.27-.03-.18.15-.18.22-.27-.36.15-.53.07-.65-.18.17.35-.47.04-.44.27.19.02.54-.09.44.18-.59.12-.72-.13-.99-.27-.34-.03.28.26-.11.27-.3-.22-.68-.22-.97,0-.01-.23-.02-.47-.33-.45-.06.13.13.47-.11.45-.1-.13-.58-.41-.76-.18.17.01.38-.01.33.18h-.76v-.54c-.58-.11-.48.33-.65.54-.05-.45-.19.07-.43,0-.1-.28-.42-.37-.66-.54-.54.27-1.06.39-1.85.09-.12.17-.16.42-.44.45-.3.05.09-.49-.22-.45-.29.47-1.39-.09-1.41.45-.15-.36-.44-.6-.87-.72-.31.35-.55.21-.88,0-.06.13.13.47-.1.45-.23-.2-.61-.19-1.31-.27.13.5-.95.28-.87,0-.11.1-.22.18-.33.27-.03-.51-1.57-.17-1.85,0,.08-.28-.38-.11-.22-.45h-.76c.16.41-.42.48-.54.72-.2-.22-.4-.45-.76-.54.07.3-.18.33-.44.36-.55-.38-1.42-.03-2.18-.54-.06.13.13.47-.1.45-.11-.63-1.08-.55-1.64-.82-.15.27-.59.3-.65.63-.75.08-.99-.26-1.2-.63-.86-.19-1.45.2-2.28.28-.23-.09-.19-.39-.54-.37-.37,0-.35.32-.65.37-.59.13-.23-.53-.65-.55-.56.37-1.14.59-1.96.55,0-.16-.02-.29-.11-.37-.34-.07-.32.16-.65.09v-.36c-.49-.13-.29.31-.66.27.07-.24-.04-.33-.33-.27-.07.1-.02.65-.65.54-.28-.16-.19-.62-.55-.72-.09.29-.52.77-.98.45.58-.06-.23-.2,0-.54-.21.3-.79.31-1.41.27-.1-.21-.03-.57-.44-.54-1.03.61-2.14.24-3.05,0-.35.5-.77-.07-1.3.36-.29.02.09-.5-.33-.36-.37-.04-.2.38-.54.36-.31.04-.1-.34-.33-.36-.25.2-1.03.07-1.31,0,.03.24-.04.38-.32.36-.17-.14-.17-.41-.54-.36-.37.02-.1.58-.55.54-.48.13-.23-.35-.65-.27-.29-.03.29.35-.22.27-.38.14-.06-.31-.32-.27-.17.16-.3.35-.76.27.08-.3-.22-.29-.33-.45.04.37-.68.1-.99.18-.01.32-.1.58-.43.63-.2-.49-.51.16-.98-.18,0-.12.19-.08.22-.18-1.26.02-2.52.05-3.49-.18-.18.24.21.52-.32.54-.24-.17.16-.69-.33-.81-.07.24.14.71-.11.81-.25,0-.32-.16-.65-.09v-.45c-.4-.11-.43.44-.43-.09-.25.23-1.18.68-1.42.09-.09.37-1.04.04-1.09.45v-.27c-.39-.08-.09.41-.43.36-.38-.01-.84.03-.87-.27.08-.02.21,0,.22-.09-.42-.14-.23.24-.43.27-.43-.21-.13-.05-.65,0,.07-.21.16-.42-.22-.45,0,.63-1.29.65-1.63.18-.53.52-.95.01-1.74.27.06-.24-.05-.33-.33-.27-.34-.02.28.26-.11.27-.09-.58-1.09.15-1.09-.45-.37-.07-.14.37-.54.27-.25-.07.1-.62-.33-.54-.13.34-.73.29-1.09.45-.16-.29-.83-.16-.87-.54-.39-.03-.3.36-.66.36-.13-.57-.86-.13-1.19-.45-2.17.96-1.37,4.61-1.31,6.68,2.97.18,8.13-.11,12.52-.09.43-.35,1.43-.24,1.96,0,1.51-.47,5.75.12,7.63-.45.3.37.53-.21.65.18.68-.34,1.95-.5,2.72,0,2.4-.07,5.55,0,7.73.54.29-.04.31-.29.76-.18,3.6.22,7.99.37,11,.54-.06,0,.14-.18.32-.18.38,0,.49.23,1.1,0,.17.22.62.2.76.45.27-.43,1.58-.19,2.07,0,.92-.65,2.63.2,3.59-.18.23.37,1.59.21,1.85,0,1.63.44,4.85-.16,6.32.45.63-.4,1.52.34,2.17-.18,2.4.57,5.49-.09,7.95.45.53-.31,1-.26,1.64-.18.27-.54,1.44-.33,1.95-.09,2.52-.25,5.16.03,8.39-.18.94.37,2.63.29,3.71,0,.54.31,2.5.28,3.05,0,.81.54,2.09-.06,3.16.45.27-.08.4-.27.87-.18-.26-1.76-.2-3.28-.34-5.05-.57.11-.43-.37-.65-.54-.59.49-.91-.42-1.2.18.04-.31-.48-.15-.32-.55-.34.49-1.13.05-1.42.55.13-.54-1.14-.43-1.3-.18.26-.14.32.31.1.27-.3.03-.1-.34-.32-.37-.23.38-.61.26-.87,0-.02.16.11.45-.23.37v-.37c-.62-.02-.89.16-1.41,0,0,.14.02.32-.21.27-.09-.18-.29,0-.65-.27-.05.1-.12.21-.23.27-.5-.54-1.43.03-1.96-.37.44.05.19-.54,0-.54.19.01.25-.09.21-.26,3.5-.27,7.38.49,10.56,0v-2.35c-.22-.05-.37-.18-.43-.37-.1-2.77-.18-5.91-.32-8.12.72-2.14-.21-4.36-.11-6.78-.7-1.54.1-3.8-.55-5.51.23-.07.25-.33.22-.63-.33-1.1-.48-4.05-.33-5.33.23-1.93-.15-4.42-.11-6.5.07-3.19.45-5.36.77-8.13-.31-2.02-.18-5.06.32-7.4-.15-.44-.23-.88,0-1.36-.73-3.12-.66-7.15-.87-10.47.29-1.44.43-3.88.32-5.05.65-4.29-.04-9.45.22-13.55-.36-1.93-.4-4.54,0-6.42-.26-.24-.26-.56,0-.81-.46-1.48.56-4.19.11-5.69,0-.56.07-2.51,0-3.16h.43c-.2-.29-.21-.73-.43-.99.58-1.83-.1-4.22.76-5.78-.1-.1-.4-.03-.32-.28.4.09.15-.35.21-.54-.45-2.05-.02-4.48.34-6.5.08-.52-.2-1.15.32-1.45-.64-1,.16-1.73-.22-2.71h.33c-.03-.85-.64-1.77-.11-2.53-.39-1.1-.62-2.32-.98-3.43.18,0,.38.01.32-.18-1.57.11-2.44-.19-4.35,0,0-.11.14-.12.11-.27-.43-.12-.23.3-.65.18-1.68-.58-3.84.04-5.23-.18-.09.35-.5.44-.65.72.01-.48-.67-.2-.77,0-.11-.33.42-.14.34-.45-.31.15-.5.38-1.1.27.17-.47-.62-.14-.54-.54.22.1.51-.15.22-.18-.23.28-.54-.04-.66.36.04-.38-.4-.1-.43,0,.31-.43-.13-.64-.32-.91.01.39.22.67-.11.91-.88-.04-.79-.17-1.96-.18-.32-.14.23-.52-.22-.45-.22.73-1.8.25-2.72.36,0-.31.2-.38-.11-.54-.04.21-.24.29-.32.46.04-.57-.81-.18-.77.09-.31-.57-1.73.41-2.39-.27-1.01.24-2.27-.15-3.27.18-.11-.13-.29-.65-.43-.46.12.02.11.15.1.27-.35-.25-.67.1-.98.18-.02-.16-.84-.4-1.3,0,.01-.38-.25-.06-.33,0v-.27c-.4-.09-.09.4-.44.36-1.28-.26-2.6.26-3.7-.36-.02.1.01.26-.11.27.03-.5-.24-.15-.33,0-.2-.26.07-.9-.43-.9.04.37-.24.46-.33.72-.35-.08-.41.08-.55.18-.39-.52-1.11.32-1.52-.18-.2.41-1.23.25-1.52,0,.04.24-.23.23-.43.27-.01-.14-.28-.07-.22-.27.09-.02.22,0,.22-.09-2.42,1.04-7-.03-9.7.27.17-.47-.63-.14-.65-.46-.14.44-1.02.19-1.2-.09-2.55-.11-5.63-.16-8.28-.53-.8.08-2.45.04-3.38-.27-.04.22-1.18.34-1.2,0-.91.49-1.32-.45-2.28.18-.1-.42-2.62.13-3.16-.45-.7.49-1.77-.09-2.5.45-.02-.1-.04-.21-.22-.18-.56.26-2.17.36-2.51,0,.04.24-.23.23-.43.27-4.2-.42-7.83.42-11.43-.27-2.35.38-4.69-.22-6.97-.27-.61.75-.32,1.91-.11,2.44.32.8-.2,1.44-.22,2.26-.02.34.37.53.22.9-.15.38-.48,1.14,0,1.62-.05.18-.43.07-.33.36.37,1.02-.27,2.59.33,3.25-.67,1.05,0,3.03-.55,4.34.64.73-.31,1.8.22,2.44-.28.92-.29,2.69-.33,4.15-.05,2.16-.14,5.2.11,7.22.3,2.42-.52,5.8,0,7.59.09.31.23.28,0,.63.59.32.02,1.01,0,1.36,0,.09.23.24.22.36-.01.19-.23.21-.22.37.29,2.87.13,6.53.22,9.84-.44-.03-.12.56-.22.81.36,1.66.36,5.22,0,7.05.78,1.54-.4,3.82.22,5.23.15.37-.24.29-.22.54.05.14.34.08.22.37-.56,4.19-.13,9.35.33,13.54.14.37-.36.19-.22.54-.1.36.38.23.22.63-.43.46-.14,1.52-.22,2.26.39,6.78.08,13.9-.65,20.23-.47,4.07-.49,8.33-.11,12.46-.24,2.66-.74,6.35.11,8.85.79-.03,1.33.16,2.17.09.54.61,2.56-.02,3.05.81.07-.42.84-.27.87.1.83-.55,1.96.22,3.05-.27.57.28.98.16,1.52,0,.17.37,1.42.18,1.64,0,1.19.43,2.88.12,4.13.18.04.12.15.17.11.37.28-.12.8-.52,1.09-.09.85-.65,2.42.21,3.27-.45-.11.27.24.16.44.18.81-.6,2.25.16,3.04-.45.24.34,1.27.03,1.42.45.5.17.15-.35.54-.27.16.43.36-.08.76.27.5-.25,2.32-.53,2.72,0,0-.6.43-.02.65,0,.19-.15.38-.28.54-.45,1.35.04,3.37.6,4.36.27.27.5,1.34.03,1.86.45.16,0,.08-.23.32-.18,3.68.51,8.05.27,11.98.9.07-.47,1.39-.29,1.63-.09.22.03.22-.12.33-.18,0,.26.18.25.32.27,1.81.27,4.5-.25,6.53,0,.28.38,1.19.13,1.53,0,.35-.11.09.3.44.18.16-.33.76-.15.97,0,.71-.25,3.23.32,4.25-.18,1.28.57,4.67-.11,6.21.18,3.68.03,6.88-.05,9.58.27.02,0,0-.2.11-.18.35.06.7.31.98.37-.32.18-.39.58-.65.81-.71-.09-1.45.32-1.63-.27.26.08.51-.13.11-.09-.17.25-.45-.16-.55.09h0ZM65.39,37.41c-.17-.58-.48-1.05-.66-1.62-.08-.31.45-.11.33-.45,3.47-.81,8.32.19,10.89,0,.42-.03.37.05.87,0,.21-.03.67.2.98.18.34-.02.39-.31.76,0,.24.05.15-.17.33-.18,1.44.53,4.64-.45,7.3.18,2.04-.34,4.3-.44,5.99,0,.41.13.21-.25.54-.18v.27c.94-.35,1.03-.12,2.51-.27v.45c.21-.1.29-.31.44-.45.89.39,1.78-.36,2.39.45,1.55-.7,3.32.47,5.12,0,.64.46,1.24.35,1.96.09.29-.05.39.04.33.27.19-.08.59,0,.54-.27.21.58,1.63.03,2.51.27.12.03.22.26.33.27,1.24.16,2.73-.23,3.81.27.42.14.21-.25.54-.18,1.17.73,2.11-.04,3.7.45,2.92-.29,7.03-.45,10.45-.45.48.26,2.16.32,2.62,0,1.81.11,4.66.05,7.19,0,0,.37.95,0,.98,0,.11.01.2.25.32.27,1.43.3,4.17-.36,5.12.45.43-.25.87.05,1.96.09.71.02,1.58-.16,2.29-.09.16,0,.39.17.32.18,1.17,0,2.14-.92,2.94-.18.27.04-.06-.41.32-.27v.27c1.05-.77,3.48.35,4.8-.18.36.49,1.97-.1,2.39.53.45-.46.97-.17,1.74-.18.12.29-.17.22-.22.37.07.21.67-.01.76.18.56,1.16,1.07,2.42,1.31,3.88.23,1.4-.32,3.24,0,4.24.07.21-.21.12-.22.18-.04.26.27.49.22,1.09-.65,1.52,0,3.46-.33,5.06-.03.17.04.32-.32.37.51.49-.6,1.88.21,2.71.02.5-.45.72,0,1.09-.59,1.1-.18,2.32-.65,3.16-.12.34.23.29.32.45-.29.36-.34.39,0,.73-.69,2.65.21,4.76-.54,7.04.25.21.25.64.22,1.08-.49,1.67-.17,3.81-.22,5.6-.06,2.22.02,4.49,0,6.95-.06.2.21.12.22.27-.09.72.19,1.73-.22,2.17.72.68-.44,1.8.22,2.44-.14,2.24-.09,3.88,0,6.23-.69,1.86-.13,3.53-.65,5.15.3.09.4,1.19,0,1.26.86,1.37-.23,4.51.65,6.42.24,1.11-.21,2.56.32,3.25-.21,1.78-.18,3.76-.54,5.42.01.32-.09.73.22.81-.26.49-.18.52,0,1.08-.51.47,0,1.08,0,1.53,0,1.76-.46,3.5-.65,5.15-.19,1.67-.04,3.34,0,5.06.11,4.71-.14,9.59.65,14.9.05.2-.21.13-.22.27.48,1.89.57,4.11.54,6.41-.39.65-.39,2.15,0,2.71.23,3.19.57,6.25.87,9.48-.13.29.35.07.22.36-.46,1.45.56,4,.11,5.42.43.29,1.04-.01,1.53.18-.08.3.22.3.32.45-.78.66-.92.73-1.96.36-.39,0-.37.36-.54.54-.35.13-.92.09-1.42.09-.13-.69-1.13-.85-1.74-.91-.19-.01-.85.18-.87.18-.27,0-.65-.24-.98-.27-2.44-.24-6.76.09-10.24.09-1.02,0-2.38-.05-2.94-.27-.43-.12-.23.3-.66.18-.43.12-.26-.26-.55-.26-1.38.46-3.95.16-6.1.54-.31-.2-.55-.2-.87,0-3.19-.54-6.34-.05-9.04-.27-.17,0-.22-.18-.22-.18-.15,0-.29.2-.44.18-.34-.03-.65-.26-.98-.26-.54-.01-1.29.36-1.52-.18-1.52.5-2.01-.31-3.27.18-.85-.15-.62-.12-1.63-.18-2.76.71-4.5-.23-6.09.18-2.78-.63-5.85-.13-8.71-.37-.38-.03-.63-.23-.98-.27-2.76-.26-5.19.23-7.63-.45-1.65.11-4.06-.04-5.98-.27-.61.46-2.1-.09-2.4.45-.35-.46-1.11,0-1.3,0-.39.14-.06-.3-.32-.27-.35-.08-.23.24-.44.27-3.42-.15-7.22.33-10.01.09-1.06.4-2.6-.37-4.14.18-1.82-.43-4.25.49-6.1-.27-1.17-2.01.3-5.3-.77-7.49.76-2.98-.1-7.32.65-10.48-.32-1.04-.39-3.21,0-4.24-.28-.3-.42-1.61,0-1.89-.55-1.38-.21-2.81,0-4.34.26-1.91.16-3.97.43-5.96.5-3.56.13-7.47.66-10.29-.16-6.42-.45-15.69-.66-20.77.29-.24.29-.76,0-.99.58-4.8.09-10.21.22-15.17-.17-4.08.41-9.58-.22-13.45-.14-.36.37-.19.22-.54.15-.37-.24-.29-.22-.54.21-1.34.33-3.62.33-5.69.01-4.06-.45-8.88.33-13.19-.56-.6-.34-2.21,0-3.07-.28-1.83.19-4.01.32-5.24-.31-.52-.4-1.51,0-1.89.12-.29-.17-.22-.22-.36.39-1.63-.78-3.01-.11-3.79h0Z"/>
    <path class="cls-7" d="M73.53,42.96l-1.09,41.02s-.68,1.13,1.5-.91c2.18-2.04,5.88-3.74,6.83-4.31.96-.56.41-1.13.41-1.58s-.65-4.11-.65-4.11c0,0,1.62-2.01,2.84-1.89,1.24.11,6.7,4.75,6.7,4.75,0,0,9.02-1.02,8.61-5.1-.41-4.08-1.51-1.7-2.05-1.47-.54.22-2.05.79-2.87.79s2.33-4.65-.54-5.89c-2.88-1.25-3.56,2.04-3.56,2.04,0,0-2.19-.11-2.6-.68-.41-.57,3.28-10.2,3.28-10.2,0,0,.48-3.09,5.98-3.75l1.66,3.41s-.22,3.31,1.78,3.51c2,.21,1.78,1.13,2.74,1.13s1.78-.34,1.78-.34c0,0-1.63-1.93-.14-3.06,1.5-1.13,3.01-1.47,3.41-1.58.41-.11.41-6.69,1.91-7.48,1.5-.79,4.24-1.59,4.24-1.59,0,0,2.86,7.14,2.86,8.05s1.91.23,2.32,1.02c.41.79.95,3.51.41,4.87-.55,1.36,6.15-1.02,5.88-2.94-.27-1.93-.27-1.13-.27-1.13,0,0,1.39-.96,2.33-1.16.95-.2-.69-2.46-.69-2.46,0,0,5.61,1.14,5.74,1.58.14.46.82-2.38.82-2.38,0,0,2.94,3.22,3.18,4.61.24,1.4,1.75,3.66,1.75,3.66,0,0,3.28,2.38,2.87,3.74-.41,1.36-1.51,2.5-1.51,2.5l-2.24-1.41s-3.64,1.06-2.82,1.97c.82.9,1.19,1.28,1.19,1.28l2.61-.54s1.39,1.75.16,2.32c-1.23.57-4.1.79-4.37.45-.27-.34-2.19-2.38-2.19-2.38l.27,6.12,3.29,2.83s5.6-2.64,7.1-2.37c1.51.26-3.55,4.86,1.63,6.69,5.2,1.81,11.21,5.66,11.21,5.66l-.28-43.17-12.3.57h-9.7l-18.45-1.36-39.35-.9-1.64,1.58h0Z"/>
    <path class="cls-3" d="M155.78,45.08c.09-.05.18-.09.33-.09.07.2-.2.13-.21.27.67,1.08-.43,1.78.21,2.71-.48.89-.35,2.09,0,3.07-.31,2.6-.46,5.42,0,7.59-.36,2.04.14,3.08-.21,4.79.04.24.35.25.21.63-.26.94-.38,2-.21,2.98.03.2.28.34.33.53.16.63.16,1.78.22,2.17.28,1.98.45,4.49,0,6.41-.09.38-.03.57-.22.99-.1.29.35.12.32.36-.34,1.42.26,3.53,0,4.79.42,1-.31,2.59,0,3.61h-.32c.07.09.25.09.22.27-.75.93.17,1.87,0,2.71-.28.07-.59.12-.98.09v-.54c-.12-.24-.32-.4-.65-.45-.67-1.83-2.42-2.75-4.36-3.53-.59-.8-1.81-1.08-2.83-1.53-.28-.54-.88-.84-1.85-.81.02-.48-1.1-.36-1.09-.36-.15-.05-.32-.38-.55-.46-.19-.06-.48.08-.65,0-.5-.22-.89-.67-1.74-.63-1.39-1.59-.24-4.11.33-5.87-.05-.14-.34-.07-.21-.36-2.79-.35-4.18,1.75-6.1,2.88-1.52-.58-1.78-2.19-3.82-2.35-.57-.23-.94-1.18-.32-1.62.07-1.31.02-2.17,0-3.52-.24-1.37-1.17-2.63-.98-4.06.3.07.28-.13.55-.09.75,1.26,2.04,2.11,2.72,3.43.02.29.71,0,.65.37,1.14-.5,3.9.34,3.27-1.63-.62.32-1.58.37-2.07.81-1.31-.18-2.16-2.73-1.2-3.79.26-.29,1.81-1.57,2.07-1.62.58-.11.94.34,1.41.36.28.61.89.94,1.63,1.18.41.06.07-.48.54-.36-.07-.79.31-1.56,0-2.26-1.52-.6-1.66-2.35-3.05-3.07-.21-.88-.88-1.38-1.2-2.17-.12-.57.32-.69.32-1.17.03-.23-.23-.23-.43-.27-.33-1.6-1.44-2.54-2.4-3.61-.24.24-.04.87-.11,1.26-.49-.17-.15.36-.54.27.39.2-.21.82-.32,1.17-1.26-.64-2.35-1.42-3.71-1.98-.19.02-.54-.09-.43.18-.41-.23-.44-.27-.99-.27.17,1.08,1.45,1.89.65,2.98-1.21-.18-2.02-.31-2.72.54.02.44.35.61.33,1.08-.15.09-.22.24-.44.27.02.48-.39,1.18-1.09,1.36-.31.08-.84.59-1.2.72-.75.28-1.12.18-1.53.54-.47.42-1.41.95-2.62.63-.11-.08-.02-.33-.32-.26-.1-.51.11-.75.32-.99.09-.37-.16-.47-.11-.81.51-.52.56-1.41.66-2.26-.31-.31-.57-.67-.66-1.17-.7-.71-1.7-.34-2.28.18-.35.02-.18-.4-.55-.37.07-1.58-.08-3.24-.43-4.51-.49-1.75-.99-3.46-2.94-3.88-.95.09-1.36.62-1.96.99.04.23.35.25.22.63-.38-.11-.28-.62-.33-.99-.68.13-.39,1.06-1.09,1.18-.08,1.09-.26,2.34-.55,3.43.32.9.8,3.04.55,4.7-.22-.03-.34.02-.33.17-.45-.37-.42.18-1.09.1-.5-.4-.56-1.15-1.52-1.17-1.61.5-3.05,2.66-.55,3.16-.32.38-.28,1.09-.43,1.62-.47.11-.35-.26-.54-.36-1.19.22-1.66.48-3.05.54-.58-.75-1.45-1.26-2.83-1.35-1.11-.91-1.54-2.4-1.41-4.34-.37.02-.63.14-1.1.08-.05-.4-.4-.56-.32-1.08-.12.29-.71.2-.88.45-1.06-.32-.29-1.64-.21-2.35-1.02.2-1.32.8-1.86,1.53-.15-.02-.08-.22-.11-.36-.29,0-.62-.04-.76.08-1.38,1.31-2.07,3.63-1.96,5.88-.23.29-.51.54-.54.99-.57-.11-.59.23-.87.36.39.24-.25.93-.44,1.62-.29,1.09-.29,2.23-.97,2.89.02.76,1.05,1.04,1.85.63.46-.64.65-1.51,1.31-1.99.79-.09,1.59.05,2.5-.09,2.25.53,2.39,4.67,1.09,6.23.07.08.19.13.32.18.15-.03.09-.22.11-.36,3.88.06,1.36-5.19,5.66-4.78.74.64-.04,1.24-.44,1.71-.35.11-.08-.29-.43-.17-1.1.55-1.05,2.85-.66,4.06.36.09.61.27.55.72-.83,1.3-1.17,3-2.61,3.79-.41-.06-.47.16-.87.09-1.15.92-3.3,1.74-5.11,1.54-.34.08-.47.34-.98.27-1.12-1.15-1.44-2.96-3.38-3.43-.03-1.05-1.58-.85-1.96-1.62-.56.37-.76-.35-1.53,0-.26.51-.54.99-.65,1.62.59.21.36-.16.76-.27.31.55-.08,1.24-.76,1.26-.23.04-.21-.13-.22-.27-.26-.04.06.41-.33.27-.69-.06-.51-.84-.76-1.26.15-.18.13-.5.55-.46-.26-1.4.87-2.44,2.18-2.44.29,0,1.7.36,2.17.63.15.08.27.44.54.63.36.25.54.33.87.63,1.33,1.2,2.22,1.73,2.73,3.07.35.03.66,0,.76-.18,1.6,0,2.88-.09,4.03-.63,1.44-.99,3.95-1.82,2.94-4.33-.04-.11-.34-.09-.22-.37-.59.69-1.68,1.52-2.83.73-.48.27-.87.61-1.31.9-.57-.31-1.29.47-2.17.36-.32-.04-.41-.45-.88-.27-.36-.7-1.13-1.55-.44-2.35.84-.15,1.5-.51,2.19-.54.11,0,.06.21.21.18,2.48-.41,2.56-3.91-.43-4.06-.49.21-1.12.32-.98,1.08-.53.26-.7.8-1.08,1.17-1.21.46-3.05-.11-3.81-1.35,1.71-2.11,1.63-5.7,2.5-8.49,1.35-2.1,1.79-4.96,4.91-5.59.58.96,1.66-.05,2.39-.27.26.11.54.21.55.54.57-.22.5-.98,1.42-.91.91.84-.48,1.57-.33,2.62.89-.05,1.13-.63,2.17-.54.26.9-.35,1.71-.98,2.16-.07,1.69.07,3.2,1.75,3.44.43.09.28-.31.76-.18.31.1.5.31.65.54.43.05.53-.16.98-.09v.36c.63.13.72-.18,1.09-.27-.64-.53-.79-1.63-.55-2.61,1.2-.67,1.8-1.82,3.48-2.08-.4-1.73.12-3.51.88-4.88.1-.19.46-.32.54-.54.42-1.14-.21-1.88.98-2.44.55-.26,1.27-1.26,1.86-1.45.11-.03.36.31.32,0,.29.04.31.29.77.18.41-.37.67-.88,1.3-1.08.38.25.78.57.55,1.08.1-.05.1-.21.32-.18.92,1.87,2.53,3.14,2.94,5.42.06,1.12-.13,2.46.11,3.43.68-.05,1.19.04,1.64.18.29,1.63,1.61,2.44,1.09,4.51-.17.29-.37.53-.33.99.44.24,1.29.05,1.2-.45,1.83-.18,4.53-1.5,3.05-2.99v-.9c.74-.1,1.57-.15,1.85-.63.39.33,1.06.26,1.41,0-.23-1.2-1.74-1.32-1.74-2.7.2-.08.43-.12.54-.27,1.33.04,4.53.53,5.77,1.72.98-.32.58-1.79.55-2.71.34.1.26-.15.43-.18,1.52.33,1.42,2.02,2.73,2.53.39.93.65,1.98,1.85,2.25.02.97-.56,1.56-.22,2.53,1.17,1.2,2.07,2.61,3.16,3.88.33-.06.32.16.66.09.5,1.48.51,4.39-1.42,4.7-.82-.64-1.73-1.21-2.39-1.99-.91.69-2.67,1.81-1.63,3.25,1.33-.18,1.18-.64,2.61-.54.05.35.25.58.65.63.27,1.3-.14,2.35-1.2,2.8-2.34.12-4.37.26-5.01-1.36.09,1.26.25,3.16.1,4.7.98.7,1.96,1.38,2.84,2.17.1-.07.24-.1.43-.09.1-.42.7-.4.99-.63.11-.09,0-.35.1-.45.04-.05,1.52-1.05,1.85-1.17.47-.17,1.23-.26,1.73-.36.12-.02.1.18.11.18,1.01-.12,1.66-.15,2.72.09.12.21.43.42.44.72,0,.5-.64.54-.98,1.09-.17.25-.4.99-.44,1.17-.28,1.28-.39,2.11,0,3.16,2.7,1.14,5.85,1.89,7.84,3.61.82.16,1.53.42,1.85.99,1.03.26,1.62.89,2.18,1.53.29-.02.36-.18.33.18.69-.63.16-2.27.32-3.34.06-.19-.2-.12-.21-.27-.3-4.07.03-8.68-.43-12.37.03-3.09.02-8.16-.11-11.92-.12-3.48-.09-5.92,0-8.76.13-.29-.35-.07-.22-.36.53-1.1.26-3.21,0-3.89-.15-.27.59-.46,0-.54,0-.28.39-.21.33-.54-.48-.26-.9-.19-1.85-.37.04-.21-.2-.19-.11-.45-.87.42-2.93.49-3.71.72-.32-.36-.55.22-.55-.27-.4.45-1.71.16-2.17.54-.19.04-.21-.06-.22-.18-2.52.43-4.37.25-7.08.18-.21.19-.86.01-.87.37-1.7-.67-3.87-.2-5.34-.27v-.27c-.69.28-2.16.42-2.62,0-2.07.49-4.43-.45-6.1-.09v-.27c-1.48.04-3.03-.17-4.03-.45-2.06.1-6.45-.56-9.04-.45-2.17-.19-3.97.04-6.32,0v-.45c-.11.16-.41.15-.33.45-1.04.16-1.67-.33-2.29,0-1.74-.5-3.39.27-5.99,0-.28-.04-.59-.24-.86-.27-1.19-.12-2.74.3-3.7-.18-.43-.08-.28.32-.77.18-.23.04-.21-.12-.22-.27-2.63.16-4.65-.13-6.75.27-.15-.44-1.07-.16-1.42,0-.42-.05-1.24-.55-1.41,0-.09-.24-1.35-.33-1.42,0-.22-.15-.82-.32-.98,0-.72-.37-2.2-.1-3.27-.18-.7.54-1.1,1.31-.98,2.53.24.19.39-.04.77.09.28.46-.26,1.15.33,1.45-.2.08-.3.23-.55.27-.21,2.47-.54,4.72-.22,6.86-.24.29-.65,3.03-.33,3.61-.04-.07-.41.67,0,.73-1,3.94-.19,9.15-.98,13.27.25,4.01-.63,8.28,0,12.83.68-.7.86-1.82,1.52-2.53.52-.16.89-.47,1.08-.9.65.08.56-.46,1.09-.46.09-.16.28-.25.32-.45,1.4-.29,2.34-.95,3.81-1.18.37-2.31-1.66-3.52-1.08-5.41.48.33.66-.31,1.08.09.07.3-.22.15-.32.09.28,2.12,2,3.96,1.09,6.23-.5.16-.81.48-.98.9-1.11-.07-1.52.43-2.51.45-.16.08-.16.29-.22.45-2.17.46-2.67,2.3-4.36,3.16-.21.24-.46.45-.54.81-.62.1-.68-.28-1.09-.37-.32-1.98-.92-3.45-.66-5.5.19-1.51.34-3.36.55-5.06-.03-.39-.06-.7,0-.9.27-.94.02-2.25.11-3.25.02-.35.32-.47.22-.81-.12-.4-.1-.45,0-.99.51-2.7-.24-5.7.22-8.58.23-1.54.04-3.02.54-4.51-.24-1.6.04-3.75.33-5.42-.45-1.01-.14-2.72-.33-3.71-.49-.16-.14.36-.54.27.25-.63.04-.96.54-1.53-.41-.42-.14-1.39-.22-2.08.85-.5,1.16-1.46,2.18-1.81,6.46.56,14.08.04,19.6.63.11.01.08-.2.22-.18,1.81.58,4.86-.21,6.43.18.34.11.27-.14.44-.18,4.22.51,8.11-.06,12.3.27,3.31.26,6.65.55,9.69,1.08.68-.34,1.99.42,2.61.09,3.54.67,8.29,0,11,.54.57-.33,1.22-.07,1.52,0,.11.02.26-.13.54-.18,1.25-.23,2.97.08,4.25.18,3.12-.42,7.55-.81,10.02-.82.44.31,1.77.5,2.19.27.28.24.66.41.86.72.06.33-.5-.04-.65.26v.27c-.02.2.39.05.55.09-.44.15-.5.62-.66.99h0Z"/>
    <path class="cls-1" d="M151.11,148.15c.02-.08-.02-.12-.03-.18-.24-.31-.47-.63-.64-.98-.15-.17-.34-.3-.4-.54-.15-.15-.33-.27-.4-.49-.13-.1-.27-.19-.31-.36-.03-.04-.08-.05-.15-.05-.04-.12.03-.33-.15-.33-.03-.35-.26-.74-.69-.85-.04,0,0,.08-.06.08-.28-.05-.61-.05-.96.03-.11.03-.29.09-.46.16-.07.02-.06.11-.12.02-.02.02-.05.05-.06.08-1.66.19-2.07,1.44-2.72,2.46-.02.48-.28.84-.4,1.31-.04.11.07.09.06.16-.25.59.17,1.04.16,1.59.17.42.15,1,.47,1.31v.18c.38.77,1.05,1.3,1.67,1.87h.16c0,.19.36.09.36.28h.16v.08c.46.12.69.42,1.18.51.17.19.59.18.8.34.62.08.98.26,1.65.28.07-.01.04.05.09.05.07,0,.39-.12.53.03.7-.17,1.31-.18,2.19-.28.15-.21.63-.13.77-.34.22-.03.4-.1.5-.22.4,0,.47-.25.8-.29.07-.1.2-.15.35-.18.19-.19.48-.3.74-.41.21-.13.31-.36.62-.41.17-.37.65-.5.86-.84.34-.04.38-.31.69-.37-.02-.06.05-.05.03-.13.13-.08.27-.09.43-.18.15-.08.23-.22.37-.28.08-.04.17,0,.25-.05.12-.06.14-.17.24-.25.09,1.14-.12,1.92-.06,3.08.05.89.02,1.83,0,2.51,0,.14-.01.3-.03.44-.09.66.02,1.32,0,2-.56.03-1.25.04-1.77.08-.67,0-1.07.03-1.76.03-.06.05-.32.09-.37,0-.6-.03-1.33.02-1.77-.08-.06-.01-.04.05-.09.05-.18-.15-.53.15-.68-.05-.1-.03-.07.04-.13.05-.77-.16-1.7.05-2.38-.13-.48.02-1.25-.15-1.79-.1-.23-.19-.63,0-.87-.15-1,.1-1.6-.4-2.5-.21-.6-.11-1.09-.29-1.58-.49-.08,0-.08.06-.12.08-.14-.04-.36-.02-.37-.17-.21.02-.2-.12-.4-.11,0-.12-.16-.12-.18-.23-.58-.09-.74-.51-1.3-.62-.29-.26-.57-.54-1.02-.67.01-.06-.06-.05-.03-.12-.2.02-.18-.14-.37-.13-.29-.42-.81-.64-1.36-.85.01-.06-.05-.06-.03-.13-.5-.21-.99-.42-1.33-.77h-.15c.01-.11-.08-.12-.19-.13.02-.08-.09-.06-.06-.16-.36-.18-.74-.34-1.02-.59-.37-.02-.38-.35-.77-.36,0-.09-.04-.14-.09-.18-.4-.16-.65-.45-1.08-.59-.07-.2-.34-.23-.41-.43-.44-.17-.59-.59-1.08-.72-.04-.11-.21-.12-.22-.26-.1.02-.09-.05-.18-.03.02-.07-.05-.07-.04-.13-.12.01-.15-.04-.28-.02-.33-.39-.92-.57-1.49-.77.02-.08-.11-.03-.07-.13-.57-.09-1.23-.34-1.7-.43.03,0-.1,0-.09,0-.12,0-.21.11-.34.16-.12.04-.33-.01-.34.16-.33.13-.72.22-.71.64-.2.55-.35,1.35.03,1.87.33.13.48.44.81.47.04,0,.07-.05.06-.05.26.04.52.12.72-.05.17-.15.29-.45.43-.72-.1-.49-.3-.89-.5-1.31.24,0,.23.02.44,0,.66.42,1.21,1.38.96,2.34-.09.33-.39.53-.59.79-.13,0-.2.05-.22.13-.12-.05-.19.04-.22.13-.34,0-.67.27-.99.13-.05,0-.02.08-.13.05-.18-.08-.37-.16-.68-.13-.02-.03-.03-.06-.03-.1-.69-.24-1.4-.45-1.42-1.26.02-.05-.06-.04-.06-.07,0-.23-.1-.38-.07-.64.01-.05-.06-.04-.06-.08,0-.47,0-.79.12-1.2.02-.09.12-.17.15-.26.11-.37.08-.78.43-1.01.08-.47.62-.55.92-.84.29-.1.76-.04,1.03-.16.05,0,.05.02.06.05.06,0,.02-.08.09-.07.73,0,1.22.05,1.95.18.29.26.94.25,1.06.59.73.15,1.15.56,1.92.68,0,.09.11.08.12.16.3,0,.33.21.62.21.4.28,1.02.38,1.33.74.1,0,.15.05.28.02.36.29.95.37,1.33.64.41.03.54.28.93.33.43.31.92.41,1.34.69h.21c.51.3,1.28.48,1.67.95.16-.03.19.05.28.08.09-.02.11-.1.18-.13.03-.11-.05-.11-.06-.18.01-.08.1-.1.15-.16-.12-.45-.1-1.03-.24-1.46-.13-1.31.14-2.4.46-3.47.02-.06-.06-.03-.06-.07.06-.18.17-.32.16-.57.18-.18.28-.44.31-.75.19-.05.1-.34.31-.38-.02-.11.06-.16.03-.28.54-.62,1.02-1.3,1.7-1.79.1.02.12-.04.21-.02.08-.13.32-.13.44-.23h.12c.07.02.13.06.15.13.02.12-.13-.05-.09.1.15.08.17-.17.31-.18.04-.1-.09-.05-.07-.13.12-.01.12-.11.25-.1-.14-.06.04-.09,0-.21-.67-.14-1.49.49-2.04.23-.07-.02-.04.05-.09.05-.73-.02-1.76-.08-2.33-.43-.04-.27-.33-.36-.43-.59h-.19c-.05-.21-.25-.37-.34-.57-.05-.1-.02-.24-.16-.31.02-.26-.15-.37-.12-.64-.14-.2-.17-.32-.12-.57-.2-.27,0-.88-.18-1.2.17-.39.06-1.06.12-1.54.03-.2.15-.43.1-.57,0-.01-.1-.04-.1-.02,0-.05.09,0,.1-.03.02-.08-.02-.17,0-.26.07-.51.19-1.12.28-1.67.04-.1-.08-.05-.06-.13.09-.69.21-1.23.19-1.84.15-.14.05-.26.06-.47-.53.06-.89.12-1.3-.18-.03,0-.02.05-.06.05-.3-.14-.62-.17-.93-.23.01-.12.18-.09.28-.1.59-.06,1.43.07,1.89,0,.34-.21.41-.65.86-.77-.02-.07.04-.07.04-.13.15,0,.18-.1.24-.17.4-.09.61-.34,1.18-.28.47-.24,1.13.07,1.64.13.21.14.52.19.68.38,0,.34.25.48.25.82.26.23.25.67.46.93.04.51.21.88.4,1.25-.09.21.23.45.25.72.34.26.4.75.78.98.04.37.33.51.34.9.17.27.14.72.28,1.03h-.06c.18.18.09.57.28.74,0,.13-.02.29.1.33.03.45.11.85.31,1.15.1.51.27.95.43,1.47.35.34.71.63,1.02.87.27.17.73.31.78.59-.38.05-.67,0-.96.1-.01.15-.16.2-.16.37.2.1.14.42.43.44.2.39.57.64.74,1.05.03.04.1.04.15.05v.1c.17.03.13.22.31.23.06.3.38.37.46.64.39.3.5.82.96,1.05,0,.1.01.18.13.18-.01.08.02.12.03.18.05.03.08.07.15.07.49.8,1.14,1.46,1.77,2.14.11.03.13.12.28.12.12.2.25.37.53.44.07.18-.02.26-.06.41.1-.02.13-.09.25-.11.3.1.3.45.62.54-.03.11.05.14.12.18-.24.24-.59.37-.86.59-.28-.15-.5-.34-.65-.59-.03.02-.03.06-.09.05-.25-.35.45-.35.46-.72-.18.16-.42.27-.65.39-.49-.35-.79-.84-1.27-1.2-.51-.73-1.32-1.2-1.77-1.98-.07-.03-.09-.11-.18-.13.02-.1.05-.06-.06-.05h0Z"/>
  </g>
  <text class="cls-2" transform="translate(23.92 115.59) scale(.79 1)"><tspan x="0" y="0">34</tspan></text>
</svg>