<?xml version="1.0" encoding="UTF-8"?>
<svg id="Layer_1" data-name="Layer 1" xmlns="http://www.w3.org/2000/svg" viewBox="0 0 180 200">
  <defs>
    <style>
      .cls-1 {
        fill: #404041;
      }

      .cls-1, .cls-2, .cls-3, .cls-4, .cls-5, .cls-6, .cls-7, .cls-8, .cls-9, .cls-10 {
        fill-rule: evenodd;
      }

      .cls-2 {
        fill: #62bac8;
      }

      .cls-3 {
        fill: #3da7c1;
      }

      .cls-4, .cls-11 {
        fill: #fff;
      }

      .cls-12 {
        stroke: #317d89;
        stroke-linecap: round;
        stroke-linejoin: round;
        stroke-width: 8px;
      }

      .cls-12, .cls-13 {
        fill: none;
      }

      .cls-11 {
        font-family: AmericanTypewriter-Bold, 'American Typewriter';
        font-size: 19.28px;
        font-weight: 700;
        letter-spacing: .02em;
      }

      .cls-5 {
        fill: #231f20;
      }

      .cls-6 {
        fill: #909295;
      }

      .cls-7 {
        fill: #626366;
      }

      .cls-8 {
        fill: #ed2d2c;
      }

      .cls-13 {
        stroke: #fff;
        stroke-miterlimit: 1;
        stroke-width: 2.88px;
      }

      .cls-9 {
        fill: #302d2f;
      }

      .cls-10 {
        fill: #317d89;
      }
    </style>
  </defs>
  <polygon class="cls-8" points="33.33 85.55 8.78 119.61 9.93 121.14 55.13 120.71 39.66 90.49 34.98 84.74 33.33 85.55 33.33 85.55"/>
  <path class="cls-5" d="M31.37,90.02c-.86.35-.22-.87-1.09-.52-.42.13-.21.86-1.05.57-.37,1.4-.74,2.8-2.08,3.28-.36,1.48.71,1.45,1.13,2.12-1.9,1.32-2.01,5.7-5.27,4.16.28.81,1.26.87,1.39,1.85-.71.34-1.24.47-1.59.57,1.12.96-.32.69-.78,1.36-1.19,1.75-1.88,4.54-3.91,4.93-.1,1.31-.6,2.24-1.82,2.47.64,1.4-.4.18-.79.83,1.72.37-1.13,1.15.05,1.88-1.92.36-1.51,2.92-2.86,3.83-.16-.46.28-1.58-.31-1.6-.01.42.07.93-.52.82-.3.87.88.18.57,1.05-1.12.25-.95,1.72-1.56,2.47,2.81-.55,7.37-.48,10.48-.25.05-.21-.01-.53.25-.55,10.38,1.21,18.72-.2,31.43-.22-.51-2.84-2.97-4.25-3.91-5.82-.26-2.4-2.5-2.69-2.54-5.31-1.2.15-1.01-.98-.84-1.59-1.07,0-1.99-1.76-1.13-2.12-.85.43-.89-.18-1.62-.5-1.79-5.9-6.32-10.15-8.42-14.84,0,.27-.47.35-.53,0,.32-.04.62-.09.52-.54-.76.23-.71-.37-1.35-.24-1.34,1.78-1.98,4.23-4.18,5.21.55.94-.23,1.3-.75,1.9-.3-1.07,0-2.09.46-2.96.44-.01.17.74.55.79.09-1.16,1.07-3.32,1.83-2.2-.01-.37.11-.6.25-.81h0ZM46.72,102.81c1.58.27,1.1,2.7,2.76,2.89,0,1.74.87,2.58,1.96,3.18-.17,1.83.86,2.4,1.95,2.91.12.45-.19.5-.52.55.37.37,1.24.64.57,1.33.22-.15.44-.29.8-.29.1.54-.03.84-.52.82.52.69,2.03,2.19,1.13,2.65.26.46.86.57,1.63.5.1,2.2,1.27,3.25,1.21,5.61-.25-.16-1-.61-.79.29-.47-.52-1.87-.06-1.91-1.03-.62,1.05-1.82-.75-3.21.62-.81.11-.57-.86-.84-1.33-.77.26.36.67.03,1.35-.21-.18-.88-1.11-.8.02-3.74-.35-9.31-.52-12.63-.23,0-.27-.01-.53-.02-.81-1.23.68-2.65.78-3.77.09-.74,1.03-5.74.93-7.25.18-2.99,1.62-9.5-.14-10.98,1.6-2.27-1.36-6.29.01-9.15-1.12-.26-.85.2-1.03.5-1.36-1.08-.06-.45-.21-.58-1.86,1.26-.37,1.8-1.42,1.81-3,1.24.22.58-1.37,1.86-1.12-.21-.82-.21-.5-.04-1.34,1.82.25.78-2.23,2.37-2.2-.18-.26-.63-.26-.56-.79,1.07.32.52-.89,1.6-.57-.02-.44-.02-.9-.04-1.34.24-.21.6-.31,1.07-.29,1.68-4.01,4.69-6.72,6.46-10.63.94,0,1.24-.58,1.04-1.63.79.05.81-.63,1.6-.58.74-3.57,4.19-4.58,4.91-8.18,2.96-.59,2.35-4.57,5.24-5.23-.18-.27-.62-.27-.56-.8.88-.03,1.34-.49,2.41-.32,1.18.89-.35,1.38,1.38,1.31-1.15,1.19.22,4.76,1.44,4.26.4.08.02,2.04,1.39,1.85-.17.83.3.97.31,1.6,3.38,2.97,3.89,8.96,7.28,11.91.11.45-.2.51-.53.55h0Z"/>
  <text class="cls-11" transform="translate(21.79 116.71) scale(.79 1)"><tspan x="0" y="0">35</tspan></text>
  <g>
    <path class="cls-10" d="M159.76,72.8c.22-.21-.32-1.44-.72-1.01.44.13.35.8.72,1.01h0ZM155.86,67.03c-.52-.26-1-1.3-1.44-1.16.29.49.86,1.44,1.44,1.16h0ZM133.2,52.02c-2.01-.98-4.72-2.07-7.5-2.89-.74-.21-1.46-.11-2.17-.29-2.13-.54-4.6-1.79-6.35-.43-.26-.62-1.18-.18-1.88-.58-.63-.2-.31.56-.87.43-2.59-.72-6.07.04-9.09.86-4.63,1.26-8.57,2.92-12.41,4.48-1.12.45-2.42.8-3.47,1.3-4.1,1.94-7.49,5.35-11.11,8.52-4.07,3.56-7.97,7.75-10.68,12.27.19,1.06-.83,1.73-1.16,2.6-.3.8-.19,1.75-.43,2.6-.45,1.56-1.29,3.03-1.74,4.62-1.69,6.04-2.29,12.13-1.3,19.05.83,5.78,2.4,11.93,4.76,17.03,1.37,2.95,3.13,6.25,5.05,8.8,7.89,10.5,19.3,19.3,34.07,20.79,1.79,1.08,4.31.42,6.64.29,4.03-.22,6.99-.37,10.39-.72,7.32-.75,13.02-4.54,18.48-6.64.24-.53.63-.91,1.44-.87.44-.77,1.38-1.03,1.88-1.73,5.11-2.77,8.69-7.91,12.41-12.99.26-.35.62-.52.87-.86,2.94-4.11,4.06-9.56,5.63-14.29.39-1.18,1.22-2.21,1.44-3.46.12-.65-.18-1.83-.14-2.6.06-1.25.51-2.49.58-3.75.1-1.95.16-4.08,0-6.06-.53-6.78-1.84-13.28-4.18-19.34-1.34-1.62-2.4-3.3-3.47-4.91-1.42-2.14-2.6-3.95-4.18-5.77-3.22-3.71-5.51-7.84-10.11-9.67-.5.05-.79.71-.58,0,.11-.03.17-.12.15-.29h-.29c-1.09-.51-1.25-1.05-2.74-1.16-1.59-2.13-4.95-2.73-7.07-3.9-.08-.21.17-.75-.14-.72.09.75-.3.21-.72.29h0ZM161.78,125.49c.02.31-.51.06-.72.14-.29.52.02.7.14,1.15-1.42,1.44-3.89,3.84-4.33,6.07-3.61,2.89-6.9,8.45-11.98,10.82-1.97,2.26-5.39,2.65-7.79,4.18-.2.53-.71.74-1.16,1.01-.31.03-.46-.12-.43-.43-3.59,1.89-8.24,3.7-12.41,3.32-.39.13.44.32,0,.58-1.34-.55-3.43-.53-5.2-.14-.4.1.4.75-.43.58-.53.11-.17-.39.15-.29-.42-.36-1.01-.11-.87.29-.46.12-.2-.47-.58-.43-.45-.04.37.42-.14.43-.31.07-.28-.21-.29-.43-.71.49-4.04.58-5.48.58-2.24-.01-5-.93-7.51-1.3-2.39-.36-4.21-.16-5.63-1.3-2.88-.27-4.73-2.77-7.65-3.46-1.27-1.08-2.64-2.08-4.33-2.74-.5-.97-1.33-.74-1.73-1.73-1.34-.23-2.15-1.85-3.32-2.74-1.26-.95-2.67-1.38-3.32-3.03-4.42-3.99-7.17-9.67-10.25-15.01-1.14-3.63-2.34-6.32-3.32-10.1-.54-.21-.27.4-.72.29-.67-1.72-.52-3.39-.72-5.2-.17-1.55-.92-3.08-1.16-4.62-.53-3.58.3-6.92,1.02-10.11.29-.25.28.11.58-.14.35-1.25-.34-2.39.29-3.9.4.3-.14.66.14,1.01,0-2.86.84-4.68,1.59-7.07.19-.36.44.26.58-.14-.49.11.15-2.26.43-2.74.04-.07.17.22.14.28.14-.36.06-.89.29-1.44,2.69-6.55,9.14-12.89,14.43-17.17.27-.03.09-.49.29-.58,2.63-1.89,5.17-3.87,7.94-5.63,5.51-2.39,12-4.8,18.62-6.64.48-.13,1.03-.14,1.59-.29,1.63-.43,3.76-.82,5.48-1.01,4.16-.45,7.77.43,11.26,1.59,4.29-.82,5.93,2.99,9.67,2.74,4.61,1.98,8.55,4.63,12.7,7.07,5.64,5.62,11.94,10.58,15.3,18.48-.17.17-.17.51-.14.86.8,1.93,1.77,3.1,2.16,5.2.14,0,.11-.18.14-.29-.21,1.64.83,3.03,1.16,4.91.19-.78.86.64,0,.43.41.35.15,1.39.86,1.44-.25,1.07.59,1.92,0,2.46.04.29.38.29.57.43-.3,2.52,1.33,6.47.29,9.53.67,5.67-.94,12.77-2.89,17.32-.99.79-.67,2.89-2.02,3.32.14.54.31.38.14,1.01-.47-.67-.89.58-.72,1.01-.05.11-1.36,1.29-.72,1.59h0Z"/>
    <path class="cls-12" d="M159.76,72.8c.22-.21-.32-1.44-.72-1.01.44.13.35.8.72,1.01h0ZM155.86,67.03c-.52-.26-1-1.3-1.44-1.16.29.49.86,1.44,1.44,1.16h0ZM133.2,52.02c-2.01-.98-4.72-2.07-7.5-2.89-.74-.21-1.46-.11-2.17-.29-2.13-.54-4.6-1.79-6.35-.43-.26-.62-1.18-.18-1.88-.58-.63-.2-.31.56-.87.43-2.59-.72-6.07.04-9.09.86-4.63,1.26-8.57,2.92-12.41,4.48-1.12.45-2.42.8-3.47,1.3-4.1,1.94-7.49,5.35-11.11,8.52-4.07,3.56-7.97,7.75-10.68,12.27.19,1.06-.83,1.73-1.16,2.6-.3.8-.19,1.75-.43,2.6-.45,1.56-1.29,3.03-1.74,4.62-1.69,6.04-2.29,12.13-1.3,19.05.83,5.78,2.4,11.93,4.76,17.03,1.37,2.95,3.13,6.25,5.05,8.8,7.89,10.5,19.3,19.3,34.07,20.79,1.79,1.08,4.31.42,6.64.29,4.03-.22,6.99-.37,10.39-.72,7.32-.75,13.02-4.54,18.48-6.64.24-.53.63-.91,1.44-.87.44-.77,1.38-1.03,1.88-1.73,5.11-2.77,8.69-7.91,12.41-12.99.26-.35.62-.52.87-.86,2.94-4.11,4.06-9.56,5.63-14.29.39-1.18,1.22-2.21,1.44-3.46.12-.65-.18-1.83-.14-2.6.06-1.25.51-2.49.58-3.75.1-1.95.16-4.08,0-6.06-.53-6.78-1.84-13.28-4.18-19.34-1.34-1.62-2.4-3.3-3.47-4.91-1.42-2.14-2.6-3.95-4.18-5.77-3.22-3.71-5.51-7.84-10.11-9.67-.5.05-.79.71-.58,0,.11-.03.17-.12.15-.29h-.29c-1.09-.51-1.25-1.05-2.74-1.16-1.59-2.13-4.95-2.73-7.07-3.9-.08-.21.17-.75-.14-.72.09.75-.3.21-.72.29h0ZM161.78,125.49c.02.31-.51.06-.72.14-.29.52.02.7.14,1.15-1.42,1.44-3.89,3.84-4.33,6.07-3.61,2.89-6.9,8.45-11.98,10.82-1.97,2.26-5.39,2.65-7.79,4.18-.2.53-.71.74-1.16,1.01-.31.03-.46-.12-.43-.43-3.59,1.89-8.24,3.7-12.41,3.32-.39.13.44.32,0,.58-1.34-.55-3.43-.53-5.2-.14-.4.1.4.75-.43.58-.53.11-.17-.39.15-.29-.42-.36-1.01-.11-.87.29-.46.12-.2-.47-.58-.43-.45-.04.37.42-.14.43-.31.07-.28-.21-.29-.43-.71.49-4.04.58-5.48.58-2.24-.01-5-.93-7.51-1.3-2.39-.36-4.21-.16-5.63-1.3-2.88-.27-4.73-2.77-7.65-3.46-1.27-1.08-2.64-2.08-4.33-2.74-.5-.97-1.33-.74-1.73-1.73-1.34-.23-2.15-1.85-3.32-2.74-1.26-.95-2.67-1.38-3.32-3.03-4.42-3.99-7.17-9.67-10.25-15.01-1.14-3.63-2.34-6.32-3.32-10.1-.54-.21-.27.4-.72.29-.67-1.72-.52-3.39-.72-5.2-.17-1.55-.92-3.08-1.16-4.62-.53-3.58.3-6.92,1.02-10.11.29-.25.28.11.58-.14.35-1.25-.34-2.39.29-3.9.4.3-.14.66.14,1.01,0-2.86.84-4.68,1.59-7.07.19-.36.44.26.58-.14-.49.11.15-2.26.43-2.74.04-.07.17.22.14.28.14-.36.06-.89.29-1.44,2.69-6.55,9.14-12.89,14.43-17.17.27-.03.09-.49.29-.58,2.63-1.89,5.17-3.87,7.94-5.63,5.51-2.39,12-4.8,18.62-6.64.48-.13,1.03-.14,1.59-.29,1.63-.43,3.76-.82,5.48-1.01,4.16-.45,7.77.43,11.26,1.59,4.29-.82,5.93,2.99,9.67,2.74,4.61,1.98,8.55,4.63,12.7,7.07,5.64,5.62,11.94,10.58,15.3,18.48-.17.17-.17.51-.14.86.8,1.93,1.77,3.1,2.16,5.2.14,0,.11-.18.14-.29-.21,1.64.83,3.03,1.16,4.91.19-.78.86.64,0,.43.41.35.15,1.39.86,1.44-.25,1.07.59,1.92,0,2.46.04.29.38.29.57.43-.3,2.52,1.33,6.47.29,9.53.67,5.67-.94,12.77-2.89,17.32-.99.79-.67,2.89-2.02,3.32.14.54.31.38.14,1.01-.47-.67-.89.58-.72,1.01-.05.11-1.36,1.29-.72,1.59h0Z"/>
    <path class="cls-4" d="M133.24,53.41c.3-.02.06.49.14.69,2.05,1.13,5.29,1.71,6.82,3.76,1.44.1,1.6.62,2.65,1.11h.28c.02.16-.03.25-.14.28-.21.69.08.05.56,0,4.43,1.77,6.64,5.75,9.75,9.33,1.53,1.76,2.66,3.51,4.04,5.57,1.03,1.55,2.05,3.17,3.34,4.74,2.26,5.84,3.52,12.12,4.04,18.66.15,1.91.1,3.96,0,5.85-.07,1.22-.5,2.42-.55,3.62-.04.74.25,1.88.14,2.5-.22,1.21-1.02,2.21-1.39,3.35-1.52,4.57-2.6,9.83-5.43,13.79-.23.33-.58.49-.83.84-3.6,4.91-7.05,9.86-11.98,12.54-.48.68-1.39.93-1.81,1.67-.78-.04-1.16.33-1.39.84-5.27,2.03-10.77,5.68-17.83,6.41-3.28.34-6.14.48-10.03.69-2.25.12-4.68.76-6.41-.28-14.25-1.44-25.26-9.92-32.87-20.05-1.85-2.47-3.55-5.66-4.88-8.5-2.28-4.91-3.79-10.85-4.59-16.43-.96-6.68-.38-12.55,1.25-18.39.43-1.53,1.24-2.95,1.67-4.45.23-.82.12-1.74.42-2.51.32-.84,1.29-1.48,1.12-2.51,2.61-4.36,6.38-8.4,10.31-11.84,3.49-3.05,6.76-6.35,10.72-8.22,1.01-.47,2.26-.82,3.34-1.25,3.71-1.5,7.51-3.1,11.98-4.32,2.91-.79,6.27-1.53,8.77-.84.54.12.23-.61.83-.42.68.39,1.56-.04,1.81.55,1.69-1.31,4.07-.1,6.13.42.68.17,1.38.07,2.09.28,2.69.78,5.3,1.85,7.24,2.79.41-.07.78.44.69-.28h0Z"/>
    <path class="cls-13" d="M133.24,53.41c.3-.02.06.49.14.69,2.05,1.13,5.29,1.71,6.82,3.76,1.44.1,1.6.62,2.65,1.11h.28c.02.16-.03.25-.14.28-.21.69.08.05.56,0,4.43,1.77,6.64,5.75,9.75,9.33,1.53,1.76,2.66,3.51,4.04,5.57,1.03,1.55,2.05,3.17,3.34,4.74,2.26,5.84,3.52,12.12,4.04,18.66.15,1.91.1,3.96,0,5.85-.07,1.22-.5,2.42-.55,3.62-.04.74.25,1.88.14,2.5-.22,1.21-1.02,2.21-1.39,3.35-1.52,4.57-2.6,9.83-5.43,13.79-.23.33-.58.49-.83.84-3.6,4.91-7.05,9.86-11.98,12.54-.48.68-1.39.93-1.81,1.67-.78-.04-1.16.33-1.39.84-5.27,2.03-10.77,5.68-17.83,6.41-3.28.34-6.14.48-10.03.69-2.25.12-4.68.76-6.41-.28-14.25-1.44-25.26-9.92-32.87-20.05-1.85-2.47-3.55-5.66-4.88-8.5-2.28-4.91-3.79-10.85-4.59-16.43-.96-6.68-.38-12.55,1.25-18.39.43-1.53,1.24-2.95,1.67-4.45.23-.82.12-1.74.42-2.51.32-.84,1.29-1.48,1.12-2.51,2.61-4.36,6.38-8.4,10.31-11.84,3.49-3.05,6.76-6.35,10.72-8.22,1.01-.47,2.26-.82,3.34-1.25,3.71-1.5,7.51-3.1,11.98-4.32,2.91-.79,6.27-1.53,8.77-.84.54.12.23-.61.83-.42.68.39,1.56-.04,1.81.55,1.69-1.31,4.07-.1,6.13.42.68.17,1.38.07,2.09.28,2.69.78,5.3,1.85,7.24,2.79.41-.07.78.44.69-.28h0Z"/>
    <path class="cls-3" d="M93.72,78.6c-.59-.85-1.38-1.38-2.18-1.91-1.41.71-2.89-.91-4.17,0-.93.66-1.56,3.57-1.65,5.59-.17,3.43.2,7.79.17,10.77.62.44,1.33.73,2.09.96.16-2.54.06-5.08.26-7.37,1.26.12,2.65.03,3.57.68.06,2.25.28,4.25.09,6.55.73-.12,1.09.35,1.65.14.58-4.37.39-10.4.17-15.42h0ZM94.42,78.46c-.07,5.07.52,11.63-.34,16.09-.81.01-1.83.1-2.7-.13-.07-1.62.05-4.45-.09-6.69-.7-.35-1.56-.46-2.52-.41-.12,2.45-.21,4.94-.26,7.5-1.03-.33-2.02-.74-3.04-1.09.05-3.59-.7-9.71-.09-13.64.31-2.01,1.23-4.51,2.79-4.5,2.44.02,5.18.57,6.26,2.87h0Z"/>
    <path class="cls-3" d="M81.03,76.21c-.02,1.25.28,2.21,0,3.2-1.52-.52-3.4-.18-3.66,1.72-.35,2.56,1.62,4.27,1.83,6.4,1.56,2.65,3.95,7.79,3.48,12.8-.31,3.34-3.77,4.62-6.61,3.69-.34-1.24-.42-2.97-.17-4.19.95-.14,1.62,1.27,2.78.62,1.25-.7,1.4-3.79,1.04-5.91-.28-1.66-.98-3.71-1.57-5.41-.66-1.94-1.37-3.81-2.17-4.56-.43-1.66-1.48-3.31-1.21-5.29.38-2.84,4.21-2.88,6.26-3.08h0Z"/>
    <path class="cls-3" d="M88.33,82.56c.68,1.08,2.44-.35,3.13.68.42-.69.32-2.22.35-3.54-1.34-2.64-4.2-1.12-3.48,2.87h0ZM93.55,94.01c-.56.21-.93-.25-1.65-.14.19-2.3-.03-4.3-.09-6.55-.92-.66-2.31-.56-3.57-.68-.2,2.29-.1,4.83-.26,7.37-.76-.23-1.47-.52-2.09-.96.02-2.99-.34-7.34-.17-10.77.1-2.02.73-4.94,1.65-5.59,1.29-.91,2.76.71,4.18,0,.79.53,1.58,1.06,2.17,1.91.21,5.02.41,11.05-.17,15.42h0Z"/>
    <path class="cls-3" d="M97.55,77.32c.09,8.6.42,16.95.35,24.86,2.27,1.2,4.53.71,7.14.74.09-1.09.1-2.32.08-3.57-1.56-.37-3.48-.24-4.61-1.23-.43-6.32-.23-13.21-.43-19.82-.36-.25.34-1.25-.26-1.11-.64-.05-1.6.12-2.26.12h0ZM100.51,76.83c.62,5.76.17,13.48.61,20.55,1.12,1.19,3.77.46,4.96,1.48-.35,1.27-.12,3.35-.52,4.56-2.53.25-5.89.2-8.44-.74.03-7.75.02-18.07-.52-25.72.99-.79,2.78-.16,3.92-.12h0Z"/>
    <path class="cls-3" d="M99.81,77.2c.6-.14-.1.86.26,1.11.21,6.6,0,13.5.44,19.82,1.13.99,3.05.86,4.61,1.23,0,1.25,0,2.47-.09,3.57-2.61-.03-4.87.46-7.14-.74.07-7.91-.26-16.26-.35-24.86.67,0,1.62-.17,2.26-.12h0Z"/>
    <path class="cls-2" d="M145.49,69.1c-9.81,1.38-24.6-.05-34.43,0-11.47.07-15.89-1.61-27.34-.79,2.2-5.4,8.25-8.57,14.98-11.04,5.44-1.99,9.06-3.45,15.52-3.68,13.78-.47,25.5,6.06,31.28,15.51h0Z"/>
    <path class="cls-10" d="M91.51,69.33c-.28,4.67-9.42,5.92-9.14,0,3.52.22,5.14-.14,9.14,0h0Z"/>
    <path class="cls-10" d="M103.14,70.18c-.75,2.83-3.08,4.26-6.85,4.45-1.47-1.39-2.96-2.74-3.8-4.67,3.39-.66,7.11.27,10.66.22h0Z"/>
    <path class="cls-10" d="M104.31,70.13c2.77-.71,6.41.32,10.89,0-1.03,6.25-9.53,5.25-10.89,0h0Z"/>
    <path class="cls-10" d="M116.45,70.67c3.43.14,7.55-.3,10.54.23-1.09,4.82-9.68,4.38-10.54-.23h0Z"/>
    <path class="cls-10" d="M138.05,70.85c-.13,4.47-10.05,3.89-9.89.22,2.56.42,6.15-.42,9.89-.22h0Z"/>
    <path class="cls-10" d="M147.49,71.07c-.11,4.65-8.98,5.17-7.61,0,3.51-.55,4.49.09,7.61,0h0Z"/>
    <path class="cls-10" d="M101.22,118.01c.2.09.49.08.78.08.39-1.59.53-3.28.78-4.89.12-.78-.07-1.62.36-2.23.56.15.74.87,1.07,1.36.14.22.33.46.5.72.17.25.43.57.5.79.44,1.43-.35,3.02-.14,4.75.37.11.81.14,1.21.21.33-3.91.12-7.46.57-11.29-.27-.14-.58-.23-.93-.29-.41,1-.23,2.6-.71,3.52-.48.03-.49-.5-.64-.79-.51-.93-1.25-1.77-1.49-2.95-.35-.14-.76-.24-1.21-.29.13,4-.81,7.46-.64,11.28h0ZM104.93,109.82c.29-.88.14-2.32.78-3.02.46-.07,1.14.23,1.57.43.01,2.71-.42,5.57-.5,8.27-.03,1.21.33,2.39.07,3.52-.61.29-1.73.09-2.35-.21.16-1,.09-2.1.14-3.02.03-.43.21-.86.14-1.22-.07-.42-.4-.94-.57-1.3-.2-.42-.51-.76-.71-1.15-.43,1.05-.2,2.58-.36,3.95-.12,1-.27,2.26-.78,2.66-.49-.27-1.29-.11-1.71-.29-.34-2.63.36-5,.57-7.55.12-1.44-.23-2.94.22-4.38.04-.06.07-.12.07-.21.06-.01.07.02.07.07.63-.17,1.23.22,1.78.36.5,1.05,1.04,2.07,1.57,3.09h0Z"/>
    <path class="cls-10" d="M109.39,108.54c0,.37-.19.53-.43.65-.39,1.54-.74,3.13-.64,5.18.51.96.75,2.35,1.35,3.3.26.42.83,1.16,1.21,1.37.45.25,1.06.09,1.28.72.7,0,1.04.12,1.57-.07.05-2.5.27-4.67.21-7.33-.31-.17-.8-.15-1.28-.14-.05.75.06,1.44,0,2.23-.07.84-.23,2.53-.71,2.66-1.38.38-2.17-4.98-1.78-6.61.58-.95,1.61-1.73,3.2-1.44.09-.49,0-.91.07-1.3-1.49-.47-3.45-.38-4.06.79h0ZM114.3,107.03c.16.83,0,1.91-.07,2.73-.65.03-.97-.29-1.71-.22-2.87.31-1.75,4.67-.93,6.69.68-1.21-.11-3.5.86-4.75.83.22,1.22.12,1.99.29.52.62.18,1.48.14,2.23-.1,2.31.14,3.99-.29,6.11-.58.05-1.67.07-2.42.14-.25-.08-.28-.39-.36-.64-.73-.07-.95-.47-1.42-1.01-.64-.72-1.02-1.2-1.5-2.37-.43-1.05-.74-1.62-.78-2.95-.08-2.25.6-4.84,1.92-6.04,1.28-.38,3.31-.95,4.56-.21h0Z"/>
    <path class="cls-10" d="M87.81,110.52c.04-.46.2-.77.14-1.28-.18-1.57-.72-2.71-2.21-2.89-.76-.09-1.9-.08-2.35.32-.09.08,0,.41-.21.24-.09,2.55-.27,4.99-.29,7.62.25.11.3-.39.43-.16-.1,1.12-.31,2.97-.14,4.17.6.06.86,0,1.49,0-.01-2,.33-3.94.29-5.7,1.12-.58,2.08-1.34,2.85-2.33h0ZM85.53,113.17c-.07,2.11-.12,4.35-.36,5.85-.77,0-1.72.19-2.49-.16-.12-.48-.11-.77-.35-1.21.07-3.96-.1-7.72.35-11.31,1.47-.75,4.34-.55,5.27.88.31,1.02.87,2.53.36,3.61-.5,1.06-2.01,1.75-2.78,2.33h0Z"/>
    <path class="cls-10" d="M93.57,112.33c.46-.88,1.05-1.95.87-3.11-.33-2.11-2.67-2.91-4.28-2.65-.83,4.06-.02,7.7-.36,11.74.61-.04,1.02.15,1.52.23.26-1.31-.01-2.77.22-4.28.68.37,1.02,1.29,1.38,2.02.38.78.64,1.64,1.38,2.02.37-.35.75-.7,1.01-1.17-.99-1.28-1.85-2.69-2.61-4.2.22-.28.55-.45.87-.62h0ZM93.35,113.26c.33.55.62,1.35,1.16,2.18.39.61,1.33,1.48,1.31,2.02-.03.67-1.01.99-1.37,1.55-1.3-.63-1.65-2.28-2.47-3.42-.11,1.35.11,2.41-.21,3.58-.9-.18-1.19-.33-2.11-.31-.68-.57-.27-1.32-.21-2.41.12-2.71-.38-7.57.29-10.11.03-.1.05-.2.14-.31,2.09.1,3.43.33,4.43,1.79,1.17,1.71.71,4.28-.94,5.44h0Z"/>
    <path class="cls-10" d="M101.87,106.72c.45.05.86.14,1.21.29.24,1.18.99,2.02,1.5,2.95.15.29.16.82.64.79.48-.93.3-2.52.71-3.52.35.06.66.15.93.29-.45,3.83-.24,7.37-.57,11.29-.4-.07-.84-.11-1.21-.21-.21-1.73.57-3.32.14-4.75-.06-.21-.33-.53-.5-.79-.17-.25-.36-.5-.5-.72-.33-.5-.51-1.21-1.07-1.36-.43.62-.23,1.45-.36,2.23-.26,1.61-.39,3.3-.78,4.89-.29,0-.58.01-.78-.08-.17-3.83.77-7.28.64-11.28h0Z"/>
    <path class="cls-10" d="M86.59,108.99c-.17-.82-1.07-1.58-1.85-1.6-.09.03-.15.1-.14.24,0,0-.07,0-.07,0,.15.77,0,2.41.07,3.53,1.35.82,2.32-.58,1.99-2.17h0ZM84.96,112.84c.04,1.76-.3,3.69-.29,5.7-.63,0-.89.06-1.49,0-.17-1.19.04-3.05.14-4.17-.12-.23-.18.27-.43.16.01-2.64.19-5.08.28-7.62.21.18.12-.16.21-.24.45-.41,1.59-.42,2.35-.32,1.49.19,2.03,1.32,2.21,2.89.06.51-.1.83-.14,1.28-.77.98-1.73,1.74-2.85,2.33h0Z"/>
    <path class="cls-10" d="M90.96,107.74c-.25.22.17.38.29.47-.11,1.04-.3,2.01-.29,3.19,2.68,1.21,2.26-4.14,0-3.65h0ZM92.7,112.95c.77,1.51,1.63,2.92,2.61,4.2-.27.47-.65.82-1.02,1.17-.74-.39-1-1.24-1.38-2.02-.36-.73-.7-1.65-1.38-2.02-.23,1.51.04,2.97-.21,4.28-.51-.08-.91-.27-1.53-.23.34-4.04-.46-7.68.36-11.74,1.62-.27,3.95.53,4.28,2.64.18,1.15-.42,2.23-.87,3.11-.33.17-.65.34-.87.62h0Z"/>
    <path class="cls-10" d="M113.45,107.74c-.07.38.02.8-.07,1.3-1.6-.3-2.63.48-3.2,1.44-.4,1.63.4,7,1.78,6.61.48-.13.65-1.82.71-2.66.06-.79-.05-1.48,0-2.23.48,0,.98-.03,1.28.14.06,2.66-.16,4.83-.21,7.33-.53.19-.87.07-1.57.07-.22-.63-.83-.47-1.28-.72-.38-.2-.95-.95-1.21-1.37-.6-.96-.85-2.34-1.35-3.3-.11-2.05.25-3.63.64-5.18.24-.12.43-.28.43-.65.61-1.18,2.57-1.27,4.06-.79h0Z"/>
    <path class="cls-10" d="M97.43,106.99c-.17,2.78-.22,4.78-.29,7.26.46.29,1.11.3,1.64.21.51-2.42.3-4.8.57-7.47-.7.1-1.23,0-1.92,0h0ZM99.99,106.7c-.32,2.35-.34,5.55-.57,7.98-.66.53-2.13.24-2.64-.07-.51-1.26-.18-3.08-.21-4.74-.03-1.19-.13-2.47.35-3.31.98-.26,1.84.23,2.49-.14.21-.11.37.16.57.29h0Z"/>
    <path class="cls-10" d="M99.35,106.99c-.27,2.67-.06,5.06-.57,7.47-.53.09-1.18.08-1.64-.21.06-2.48.12-4.47.28-7.26.7,0,1.22.1,1.92,0h0Z"/>
    <path class="cls-3" d="M146.46,131.79c.26.73-.1,1.47-.48,2.06-1.51,2.33-3.36,4.34-5.27,6.34-1.83.77-2.98,1.99-4.91,2.85-.78.35-1.96.59-2.99.95-2.72.93-6.43,1.8-10.05,2.14-3.43.32-7.35.57-11.01.16-4.67-.52-8.13-1.43-11.61-2.69-1.1-.4-1.99-.9-3.11-1.35-1.04-.41-2.47-.52-2.75-1.42,4.25.2,8.5-.89,12.33-1.82.69-.16,1.23-.53,1.91-.71,5.24-1.35,11.55.41,17.83.08,4.17-.21,8.08-1.22,11.49-2.38.25-.17.36.1.72.08,2.72-1.32,5.34-2.7,7.54-4.36.2-.02.21.07.36.08h0Z"/>
    <path class="cls-3" d="M74.76,79.29c-.27,1.98.78,3.63,1.22,5.29.81.74,1.51,2.62,2.18,4.56.58,1.71,1.29,3.76,1.57,5.41.35,2.12.2,5.21-1.04,5.91-1.16.65-1.84-.75-2.78-.62-.24,1.22-.17,2.94.17,4.19,2.85.93,6.3-.36,6.61-3.69.47-5.01-1.92-10.15-3.48-12.8-.21-2.13-2.17-3.84-1.83-6.4.26-1.9,2.14-2.24,3.65-1.72.28-1-.02-1.95,0-3.2-2.05.2-5.88.24-6.26,3.08h0ZM81.46,75.23c.67,1.47.43,4.18.17,6.03-.5.14-.95-.93-1.65-.99-2.83-.21-.86,5.31.09,7.14,1.27,2.45,2.93,4.9,3.48,8.25.43,2.62,0,5.63-.96,7.02-.48.69-1.46,1.59-2,1.85-1.7.81-3.57.45-5.13-.12-.46-1.33-.13-3.49-.35-5.17,1.39-.86,3.57,1.98,4-.98-.25-5.31-2.44-9.63-4.09-13.78-.83-2.1-1.86-5.33-.43-7.39,1.27-1.82,4.79-1.6,6.87-1.84h0Z"/>
    <path class="cls-10" d="M79.92,106.2c0,.55.16.98,0,1.42-.89-.23-1.98-.08-2.13.76-.2,1.13.94,1.89,1.07,2.83.91,1.17,2.31,3.44,2.03,5.65-.18,1.47-2.2,2.04-3.86,1.63-.2-.55-.25-1.31-.1-1.85.55-.06.95.56,1.62.27.73-.31.82-1.67.61-2.61-.16-.73-.58-1.64-.92-2.39-.38-.86-.79-1.69-1.27-2.01-.26-.74-.87-1.46-.71-2.34.22-1.25,2.46-1.27,3.66-1.36h0Z"/>
    <path class="cls-10" d="M76.26,107.56c-.16.88.46,1.6.71,2.34.47.32.88,1.16,1.27,2.01.34.75.75,1.66.92,2.39.21.93.12,2.3-.61,2.61-.68.28-1.08-.34-1.63-.27-.14.54-.09,1.3.1,1.85,1.66.41,3.68-.16,3.86-1.63.28-2.21-1.12-4.49-2.03-5.65-.12-.94-1.27-1.7-1.07-2.83.15-.84,1.25-.99,2.14-.76.16-.44,0-.86,0-1.41-1.2.09-3.44.11-3.66,1.36h0ZM80.18,105.76c.39.66.25,1.85.1,2.67-.29.06-.55-.42-.96-.44-1.65-.09-.5,2.35.05,3.15.74,1.08,1.71,2.16,2.03,3.64.25,1.16,0,2.49-.56,3.1-.28.31-.85.7-1.17.82-.99.36-2.08.2-3-.06-.27-.59-.07-1.55-.2-2.28.81-.38,2.08.87,2.34-.44-.14-2.34-1.43-4.25-2.39-6.09-.48-.93-1.09-2.35-.26-3.26.74-.8,2.8-.7,4.02-.82h0Z"/>
    <path class="cls-1" d="M118.42,85.09c-.04.27-.33.15-.5.18-.61.12-1.26.31-1.71.59.28.23.78.05,1.08.27.18-.04.37-.19.4.04.16-.17.24.05.5,0,0,.46-.74.17-.86.5.39.11,1-.1,1.31.18.55-.35,1.29-.08,2.03-.14.03.11.2.07.13.27-.24-.16-.45.07-.49-.18-.05,0-.04.08-.04.14-1.24-.14-2.2.17-3.24-.27,0-.25.23-.28.45-.32-.42-.35-1.31.02-1.66-.45.09-.33.45-.4.77-.5-.8-.02-1.71.3-2.48.36-.33.03-.5-.03-.86.09-.04.02-.04-.09-.04-.09-.15.04-.37.23-.54.18.17.39.75.36.94.72-.23.09-.41-.16-.54-.32-.06.27-.51-.26-.54-.27.03.01-.19.07-.18-.14.26-.19.72-.29.95-.27.05-.21-.27-.06-.27-.23.18-.3.48,0,.72.05.45.07,1.33-.05,1.94-.23.88-.09,1.65-.4,2.75-.18h0Z"/>
    <path class="cls-1" d="M104.32,89.55c.13-.31-.09-.46-.18-.68.23-.49.28-1.17.72-1.35.02,0,.04.09.09.09.17,0,.59-.16.85-.09.41.11.88.62.81,1.18-.12.91-1.28,1.17-2.3.85h0Z"/>
    <path class="cls-4" d="M105.31,87.87c.3-.07.53.15.66.3.04.46-.63.89-1.09.62-.38-.21-.09-.9.43-.87v-.05h0Z"/>
    <path class="cls-6" d="M99.82,89.32c.07-.01.08.04.13.04.04.56.13,1.07.36,1.44,1.41,1.03,3.22-.52,4.59-.18-.44.35-.99.39-1.49.59-1.19.46-2.45,1.17-3.47,1.8-.87.54-1.79,1.07-2.52,1.62-.41.31-.67.84-1.26.9-.09.12-.1.32-.31.31.41-1.39.98-2.62,1.76-3.74h.18c-.09-.23.07-.16.18-.27.43-1.03,1.24-1.67,1.85-2.52h0Z"/>
    <path class="cls-1" d="M142.28,98.69c.59,1.56,2.38,1.92,3.42,3.02-.61.02-.86-.7-1.57-.72-.66-.65-1.46-1.16-1.94-1.98-.36-.07-.73-.07-1.08-.04-.78.05-1.42.03-1.98.18.12.35.58.36.81.58-.09.73,1.02.59,1.03,1.35-.4-.4-1.04-.58-1.26-1.17-.21-.14-.45-.25-.63-.41-.12-.25,0-.45-.04-.63.2-.11.42-.34.68-.13.88-.02,1.59,0,2.56-.05h0Z"/>
    <path class="cls-5" d="M133.32,100.76s.1,0,.18.09c-.05.12-.37.13-.45.09.08-.09.17-.19.31-.23,0,.04-.02.04-.05.05h0Z"/>
    <path class="cls-5" d="M139.13,101.03c-.07.14-.32.18-.31-.04-.11.15-.33.18-.54.23-.09-.03-.01-.23-.18-.19.33-.17.68-.12,1.03,0h0Z"/>
    <path class="cls-5" d="M145.52,101.88c.2.03.26.05.45.14-.03.04-.05.07-.05.14-.18-.01-.31-.07-.49-.09.02-.07.06-.12.09-.19h0Z"/>
    <path class="cls-7" d="M122.47,105.63c-.7.8-1.83,1.41-2.66,1.94-.24.16-.47.53-.76.49,0,.09.12.06.09.18-.49-.04-1.04.33-1.13.95.04.13.06.05.18.04-.07.55.45.86.54,1.39-.58-.03-1.04.05-1.44-.04-.17-.04-.28-.21-.45-.18-.33.04-.77.78-.9,1.08-.05.1,0,.26-.05.36-.25.65-.86,1.13-1.03,1.67-.06-1.11.62-1.87.67-3.02,0-.11-.14-.1-.18-.18-.48.16-1.04-.03-1.44-.05-.77-.02-1.74.42-2.3-.09.72-.31,2-.31,2.7-.77-.01-.48-.58-.51-.85-.72-.38-.29-.71-.64-.81-1.17.63.2,1.16.49,1.62.85.43-.09.85.15,1.13.36.45-.06.91-.19,1.21-.4.96-.68,2.14-1.32,3.15-2.03.62-.43,1.21-.85,1.67-1.3.34.2.48.79,1.03.63h0Z"/>
    <path class="cls-7" d="M124.49,113.55c.21.01-.1.13-.05.27.27.19.58-.18.77.05-.77.93-2.06,1.37-2.75,2.34-.11,0-.13.08-.27.04-.85.79-1.69,1.58-2.48,2.43-.12.98.7,1.02.9,1.67-.78.1-1.22-.52-1.85-.72-.88.77-.42,2.6-.81,3.87-.34.02-.63,0-.76-.18.05-1.19.14-2.28-.45-2.97-.83-.24-1.24.21-1.94.58-.3.16-.61.27-.76.59-.48.06-1.01.35-1.31,0,.02-.33.34-.5.54-.68.2-.18.4-.4.63-.54.61-.38,1.38-.52,1.98-.94.55-.38,1-.93,1.53-1.35,1.59-1.25,3.3-2.45,4.95-3.65.31-.23.82-.58,1.17-.77.29-.15.58-.17.94-.04h0Z"/>
    <path class="cls-9" d="M145.43,102.07c.18.01.31.07.49.09,0-.06.02-.1.05-.13-.2-.1-.25-.11-.45-.14-.03.07-.07.12-.09.19h0ZM138.09,101.03c.17-.04.09.16.18.19.21-.05.43-.08.54-.23,0,.22.25.18.31.04-.35-.12-.7-.17-1.03,0h0ZM132.6,101.17s0-.09,0-.09c-.47.1-1.03.13-1.44.32.12.14.16.35.13.63-.21.02-.23.05-.31-.09-.1.27.23.14.4.27.19-.17.14-.42.04-.68.5-.39,1.28-.11,1.63-.5-.21.07.04-.27-.09-.13-.09.12-.33.09-.36.27h0ZM133.36,100.72c-.14.04-.23.13-.31.23.08.05.39.03.45-.09-.08-.09-.14-.04-.18-.09.03,0,.06,0,.05-.05h0ZM141.56,100.85c.31.31.88.46,1.58.68.15.36.56.28.85.4.02-.05.05-.1.09-.13.43.16,1.03.08,1.26.27-.3-.62-1.18-.36-1.71-.5-.41-.11-.64-.48-1.08-.58-.14-.04-.14.07-.22.09-.38-.31-.79-.62-1.35-.76,0,.17-.15.18,0,.31.19.02.54.18.59.23h0ZM135.48,100.22c-.3.32-1,.46-.99.95h-.09c0-.06.06-.06.04-.14-.19.04-.3.12-.41.05-.01-.18-.38-.4-.54-.36.29.25.92.93,1.26.27.27-.09.5-.32.54-.5.28.1.59-.22.63-.45.09.03.09.14.18.05-.09-.27.07-.11.18-.18.03-.17-.15-.12-.22-.18-.11.2-.38.25-.5.45.04.01.2.12.09.14,0-.09-.15-.03-.18-.09h0ZM139.71,98.74c-.26-.2-.48.02-.68.13.04.18-.08.38.05.63.19.16.42.27.63.41.22.59.86.77,1.26,1.17-.02-.76-1.12-.63-1.03-1.35-.24-.23-.69-.23-.81-.58.57-.15,1.21-.13,1.98-.18.35-.03.72-.03,1.08.04.47.82,1.28,1.33,1.93,1.98.71.02.97.74,1.58.72-1.05-1.1-2.84-1.46-3.42-3.02-.98.04-1.69.02-2.57.05h0ZM122.2,96.04c0-.48-.57-.12-.72-.41-.02.14.14.1.09.27-.36.05-.58.25-.77.49.25.67.66,1.17,1.12,1.62.03.16-.05.22-.09.32.21.05.23-.18.31,0-.03-.77-.98-1-1.03-1.89.11-.09.28-.18.54-.22-.05.16.2.31.44.22.03-.14-.08-.14,0-.22-.15.03-.2-.04-.23-.14.15-.12.24-.03.23-.18.02.05.05.1.09.13h0ZM124.32,95.45c-.02-.11,0-.17.09-.18-.09.77.14,1.89.58,2.56-.13.02-.23.07-.31.14.1.42.4.79.18,1.17.27.27.77.45.81.86.04.39-.32.58-.41.99.69.39.76,1.76,1.17,2.61.26.53.39.96.54,1.39.26.76-.03,1.41-.22,2.21.08.04.17.07.27.09.52-.85,1.13-1.6,1.62-2.48.01.04,0,.09.04.09.27-.44.47-1.29.85-1.76.42,0,.41.03.72,0,.1-.45.09-1.02.18-1.48.17.07.28.2.45.27-.18-.22-.46-.59-.77-.54.1.52.03,1.26-.18,1.62-.16,0-.37-.08-.64-.09-.02.05-.05.09-.13.09-.28,1.45-1.13,2.48-1.84,3.24.04-2.07-1.28-3.51-1.71-5.4.65-.59-.1-1.32-.45-1.71.22-.27-.28-.59-.18-1.04.17.02.28-.02.31-.13-.58-.57-.73-1.73-.68-2.79-.19,0-.37,0-.41.04.12-.02-.04.25.09.23h0ZM124.77,94.68c0-.08.03-.15.09-.18.37.16.81.47.77.9.08.01.1-.05.18-.04,1.02,1.3,2.7,1.95,4.1,2.88.14.02.1-.14.27-.09.85.41,2,.85,2.89.94.09-.24-.12-.27-.09-.54.08.11.34.05.32.27.65.18,1.42.51,2.07.63.09-.32-.18-.61-.22-.94.39-.03.69.17,1.08.27.05-.16.1-.32.22-.41.51.02.9-.1,1.21.05-.34.36-.98.66-1.08,1.12-.14-.18-.26.07-.36.18.95-.19,1.27-1.25,2.16-1.35.13-.2.11-.52-.18-.54-.15,0-.15.14-.31.14-.09-.3-.17-.61-.45-.72-.11.3.21.41.18.77-.49.19-.81.03-1.39.05-.08.14-.04.41-.27.41-.09-.11-.34-.33-.45-.14-.1-.19-.36-.16-.63-.27-.14.39.21.65.22,1.03-.21-.08-.51,0-.63-.23,0,.05,0,.13-.04.14,0-.23-.44-.02-.41-.27-1.1-.14-1.38-1.02-2.16-1.76.13.69.45,1.2.81,1.67-.23,0-.25-.1-.41.09-.11-.16-.16-.27-.31-.14,0-.05,0-.13-.04-.13-.29.11-.84-.34-1.13-.27v-.13c-.46.1-.71-.59-1.26-.5-.17-.28-.7-.39-.99-.41-.34-.28-.44-.36-.9-.5-.23-.35-.55-.36-.81-.54.08-.1-.31-.38-.27-.18-.02-.16-.2-.16-.18-.36-.44-.16-.65-.71-.86-1.17-.48-.05-.61-.29-1.03-.45-.02.25.24.45.14.63-.3-.16-.41-.5-.77-.59-.11.16.06.41.18.59.57-.02.55.56.95.72.11-.22-.13-.69-.18-.63h0ZM129.36,92.66c.23.05.24.06.27-.09h.09c-.03.14-.04.09.05.18.09.02.09-.06.13-.09.22.24.77.17,1.03.22-.6-.6-2.09-.35-2.61-1.21.25-.26.86-.16,1.08-.45.25.15.88.04.9-.36-.03-.01-.09,0-.09-.05-.15.15-.45.14-.5.41,0-.14,0-.28-.13-.27-.07,0-.03.12-.09.14-.41-.09-.97.09-1.31.27-.02.08.07.12,0,.14-.17-.12,0,.08-.09.09-.14.04-.14-.07-.22-.09.1.48.62.5.76.68,0,.05-.06.06-.05.13.15.1.23-.04.23.09.11-.07.53.02.54.27h0ZM143.49,94.19c-.04-.11-.31.01-.36-.09-.07.03,0,.22-.14.18.05-.14-.07-.11-.09-.18-.24-.03-.37.1-.54.04-.26-.08-.3-.38-.5-.54-.03-.03-.15.03-.18,0-.01-.02.06-.09.05-.09-.2-.1-.73-.15-.77-.14-.05.02-.07.16-.13.18-.72-.03-1.39.49-2.25.45-.34-.24-.89-.48-1.4-.41-1.07-.22-2.39-.11-3.6.04-.51-.61-1.77-.28-2.43-.68.04.47.57.27.77.5.18-.12.58-.05.68-.09-.05.26.2-.08.09.18.14.03.09-.12.22-.09.55.32,1.17.47,2.21.32.04.08.12.12.09.27.56-.05,1.07-.34,1.53-.22.09,0,.03-.15.13-.14.01.09.12.09.18.14.56-.16,1.07.3,1.58.31.06.09.12.18.13.32.89-.29,1.95-.75,2.83-.77.38.29.81.94,1.58.59.07,0,.04.11.14.09-.03-.18.22.07.18-.18h0ZM143.49,94.37c.18.07.1-.11.18-.14.05.13.22.14.36.18.32-.71-.62-1.14-1.26-1.04,0-.06-.02-.1-.05-.13-.6,0-.53-.87-1.04-.81v-.18c-.69-.42-1.61-.61-2.2-1.12-.08.12-.18-.07-.22.09-.3-.14-.64-.24-.9-.41-.06-.31-.5-.43-.77-.41-.6-.21-1.17-.72-1.8-.85-.06-.28-.29-.22-.5-.36-.36-.26-.55-.79-.94-.49.01-.21-.26-.2-.41-.14-.2-.29-.59-.45-.9-.41.09.03.15.09.18.18-.76-.02-.88,0-1.57.05.06.37.66.38.94.27.03.22.22.09.27.22-.07.08-.19.11-.23.23,0-.07.02-.17-.04-.18-.76.23-1.53.26-1.76.63.11.23.44.25.54.49-.04.08-.14.1-.27.09.12.21-.17.21-.22.36-.09-.09.02-.09.04-.18-.24.07-.42.45-.45.59.04-.08.14-.1.27-.09.03-.07-.05-.23.05-.23,0,.05.01.11.09.09.1-.27.87-.18.9-.77-.23-.18-.53-.06-.63-.32.16-.1.26-.04.27-.18.74-.09,1.48-.33,2.25-.27,0-.09.05-.1.05-.18.02-.14-.23-.02-.18-.18.34-.07.71.18,1.13.18.92.91,2.12,1.55,3.56,1.94.37.51,1.25.52,1.84.81,0-.05,0-.13.04-.14-.11.25.14.1.04.31.54.07.77.42,1.21.41.35.41.77.77,1.08,1.22.27-.09.63.25.9.23.02,0,.04-.11.09-.09.17.05.5.25.45.54-.12,0-.26.02-.31-.05-.02.09-.1.12-.09.23h0ZM106.62,88.7c.07-.55-.4-1.06-.81-1.17-.26-.07-.68.09-.85.09-.04,0-.06-.1-.09-.09-.44.18-.5.86-.72,1.35.09.21.31.37.18.68,1.01.31,2.18.06,2.3-.85h0ZM121.3,95.4c0-.26-.26-.25-.27-.5.11-.08.27.06.36-.09-.3-.59-.18-1.07-.23-1.89.22-.44.8-.52,1.17-.81-.03-.53-.84-.27-.95-.72.19-.08.49-.05.54-.27v-.09c-.25-.25-.73-.29-.81-.72.37-.16.85.37,1.22.18-.04-.2-.15-.33-.41-.32-.65-.57-1.38-1.19-2.25-1.57-.32-.14-.73-.12-.94-.45.96-.49,1.92-.6,3.02-.63-.14-.45-.58-.7-.9-.72.04.32.59.14.54.54-.23,0-1,0-1.3.18-.67-.05-1.13.49-1.85.54-.06.38.46.17.45.5,1.08.25,1.79.8,2.61,1.44-.18.09-.52.01-.59.22.18.34.4.65.77.81-.15.19-.37.07-.45.36.17.41.69.42.9.68-.44.06-.76.46-.99.59-.11.7-.04,1.33.09,1.94-.14.03-.31.04-.36.18.08.48.35.34.63.63h0ZM117.92,97.02s0-.09.05-.09c.06.3.84.12.81.36-.97-.11-1.78-.31-2.92-.45-.07-.32-.37-.41-.81-.36.02.33.34.64.59.77.09.04.21-.04.31,0,.14.05.32.27.54.36.09.04.23,0,.31.04.65.29,1.27.95,1.58,1.49.32.23.78.67.99,1.17.53.11.64.65.99.94-.08.22.14.27.18.5.4.16.65.58.99.67.24-.16.74-.07,1.03.14.11-.23-.16-.34-.31-.45-.57-.6-.73-1.61-1.26-2.25-.03-.11-.07-.2-.05-.36-.15-.2-.39-.29-.45-.59.36.16.35-.41.76-.23.07-.25-.3-.29-.18-.45.14.05.61.32.68,0-.14,0-.51-.09-.59.05-.18-.17-.61-.51-.86-.32.12.27.48.29.59.58-.09.1-.17.22-.32.27-.05-.2-.29-.03-.58-.14.15.47.8.62.72,1.17.59.59.71,1.63,1.26,2.25-.99.23-1.28-.57-1.62-1.08-.28-.41-.73-.72-1.08-1.12-.43-.49-.76-1.04-1.17-1.44-.58-.56-1.32-.92-2.02-1.31.06-.03,0-.17.09-.18.03.26.45.11.59.27.08-.07.51-.04.59.14.9-.02,1.06.24,1.98.23-.06-.59-.68-.61-1.26-.68,0-.11,0-.22-.09-.23.05.14-.21.2-.05.31h0ZM114.54,87.21c.17.02.21.03.27.23.44.19.84.15.95.68-.37.12-.59.15-.99.27.17.55.66.33.99.63.14.04.09-.11.18-.13-.06.2.17.09.13.27-.69.34-1.09.52-1.71.77v.27c.49.14.9.27,1.4.23.14.28.43.18.59.41,0-.05,0-.13.05-.14.07.11.1.23.27.14-.1.13.09.27.27.27.16.2.4.62.63.72-.07.39.64.52.45,1.03-.21.02-.51.32-.81.41.09.24.36.38.32.63-.06.06-.21.03-.27.09-.02.24.18.27.22.45-.14.16-.71.15-.9.4.18.21.54.24.68.5-.14.16-.24.09-.45.14-.05.11.06.2.04.31.6.16.76.56,1.04,1.08,0-.07.17-.18.04-.23-.11-.22-.46-.64-.67-1.03.15.06.35-.05.54-.09-.04-.41-.67-.23-.68-.68.25-.05.39-.09.63-.18.04-.2-.07-.25-.09-.41.14.04.14-.07.23-.09-.11-.21-.06-.6-.18-.81.33,0,.65-.34.63-.63-.01-.16-.29-.41-.5-.68-.35-.46-.61-1.13-1.17-1.21-.44-.46-1.09-.46-1.71-.77.26-.36,1.51-.44,1.53-.85.02-.45-.96-.41-1.13-.67.27-.04.54-.09.68-.27-.54-.93-1.49-1.27-2.39-1.57.16.23.54.44.86.36-.09.09.02.09.04.18h0ZM115.67,85.27c-.6.17-1.48.3-1.93.23-.24-.04-.54-.35-.72-.05,0,.16.32.01.27.23-.23-.02-.68.08-.95.27-.02.21.21.15.18.14.03.01.48.53.54.27.13.16.31.4.54.32-.19-.36-.78-.33-.94-.72.18.05.39-.14.54-.18,0,0,0,.11.04.09.36-.12.52-.06.86-.09.77-.06,1.68-.37,2.48-.36-.32.1-.68.16-.77.5.36.46,1.25.1,1.66.45-.22.04-.44.07-.45.32,1.04.44,2,.13,3.24.27,0-.05,0-.13.04-.14.04.26.26.03.49.18.06-.2-.1-.17-.13-.27-.74.06-1.48-.21-2.02.14-.32-.28-.92-.07-1.31-.18.12-.33.86-.04.86-.5-.26.05-.34-.17-.5,0-.04-.24-.22-.09-.41-.05-.29-.22-.8-.04-1.08-.27.45-.27,1.1-.46,1.71-.59.17-.03.45.09.5-.18-1.1-.22-1.87.09-2.75.18h0ZM136.2,104.95c.1,0-.4.29-.13.49-.49-.03-1.27-.16-1.49.32-.17-.03-.19-.04-.32.05-.17,0,.02.37-.27.27.14.48-.21.89-.36,1.21-.27-.39-.58-.74-.94-1.03-.62-.04-.77-.02-1.17.13-.19-.15-.44-.25-.63-.41-.61.02-.68.36-1.17.54-.05.28-.29.37-.13.63-.69,1.42-1.02,3.15-1.48,4.68-.23.23-.49.45-.63.77-.37.09-.57.36-1.04.36-.23.14-.23.32-.31.53-.2.18-.41.07-.77.09-.27-.3-.75-.4-1.26-.45-.1-.17.05-.2.04-.4,0-.1-.12.06-.22,0,.15-.3.35-.55.5-.86-.3-.7.18-1.74-.14-2.53,0-.13.08-.15.14-.22-.18-1.33-1.09-2.19-1.31-3.33-.22-.15-.33-.39-.49-.59-.15-.01-.19.08-.36.04-.6-1.37-1.68-2.26-2.71-3.19-.13-.04-.16.04-.27.04.02-.17-.09-.21-.13-.31-.14-.04-.13.08-.27.05-.44-.22-.67-.65-.95-1.04-.29-.09-.55-.2-.72-.41-1.59-.44-1.77-2.31-3.24-2.88-.04-.14-.04-.31-.22-.31-.41,0-.25.59-.58.67-.32-1.51-1.38-2.28-2.25-3.24-.78-.18-1.54-.38-2.2-.68-.17-.05-.13.11-.27.09-.98-.27-2.53.02-3.47-.49-.18-.1-.76-.48-.77-.59,0-.1.39-.37.4-.54.03-.24-.18-.25-.09-.59.15-.12.18-.36.5-.31.07-.3.29-.46.4-.72-.01-.36-.22-.53-.45-.68-.75,0-1.44.28-2.3.41-.84.12-1.64.42-2.07-.09.08-.75-.5-1.22-.4-2.07.04-.43.2-.93.31-1.26.48-1.43,2.74-2.11,4.23-2.7.61-.24,1.28-.68,1.94-.81.45-.09.97.04,1.31.05.56.02,1.08-.06,1.62.05.75.15,1.47.44,2.29.5.55.03,1.1-.11,1.67-.23,1.65-.34,3.2-.66,4.95-.77.64-.04,1.31-.04,1.98-.04,2.11-.02,4.11.32,5.94.72.2.19.51.27.81.36.03.13-.06.11-.05.22.42.34,1.44.06,1.53.72.43.17.9.32,1.35.27.18.11-.04.19,0,.41.92-.15,1.85.24,2.39.9.47.09,1.14-.04,1.53.05s.9.36,1.35.54c.88.37,1.63.96,2.48,1.31.84.34,1.72.36,2.34,1.03.73.26,1.03.94,1.85,1.12.71-.23,1.25.41,1.75.68.87,1.12,2.52,1.47,3.38,2.61.47.25.77.66,1.35.81.21.16.28.5.49.68.2.16.46.14.67.27.18.11.3.32.5.45.29.2.68.29.95.5.21.17.31.41.54.54.47.26,1,.26,1.49.59,1.07.11,2.18.55,2.97,1.08.52,0,.89.16,1.35.23-1.01.22-2.3.39-3.24.81.08.18.27.24.36.41-.9-.04-2.07-.3-3.19-.59-.34-.09-.73-.29-1.31-.27-.33.01-.62.14-.94.04-.08-.02-.16-.11-.27-.13-.79-.15-1.68.37-1.17,1.17-.24-.05-.33-.25-.54-.32-.02.22.13.33.27.27-.08.08.02.13.05.23.72.39,1.15,1.05,1.89,1.3.36.49,1.01.7,1.35,1.22.11-.06.19.13.23,0,.28.3.8.62,1.17.86.3.19.49.5.76.72,1.34,1.07,2.85,2.07,4.23,3.1.52.18,1,.41,1.4.72.79.18,1.25.7,1.84,1.08-.43.06-.84-.14-1.26-.23-.41-.08-.85-.1-1.31-.18-.62-.11-1.38-.34-2.03-.5-.58-.14-1.33-.62-1.75-.27-.06.42.17.58.13.85-1.11-.16-1.75-1.19-2.65-1.71-.08-.07.06-.18-.04-.27-.63-.36-1.26-.87-1.85-1.12-.31-.56-1.27-.46-1.71-.9-.44.29-.15,1.14-.36,1.71-.53-.43-1.54-1.34-2.47-1.26-.29.03-.7.36-1.08.32-.39-.04-.57-.66-.95-.49-.88-.81-1.72-1.67-2.48-2.61-.3,0-.35-.22-.58-.27-.63.29-1.01.52-1.76.49-.13.16-.18.4-.31.54-.6-.04-1.13.93-1.62.49-.05.14-.09.3-.22.36.07.05.08.24.18.14h0Z"/>
    <path class="cls-1" d="M114.5,87.03c-.31.08-.7-.13-.86-.36.9.3,1.85.64,2.39,1.57-.13.18-.41.23-.68.27.17.26,1.15.22,1.13.67-.02.41-1.27.5-1.53.85.62.3,1.27.3,1.71.77.56.09.82.75,1.17,1.22.2.27.48.52.5.68.02.29-.31.62-.63.63.12.21.07.59.19.81-.09.02-.09.12-.23.09.02.15.13.2.09.41-.24.09-.38.13-.63.18.01.44.64.26.68.68-.19.04-.39.15-.54.09.22.39.57.82.67,1.03.12.04-.04.16-.04.23-.29-.52-.44-.93-1.04-1.08.01-.12-.09-.21-.04-.32.22-.05.31.02.45-.13-.13-.26-.49-.29-.67-.5.19-.25.75-.24.9-.41-.05-.18-.24-.21-.23-.45.06-.06.21-.03.27-.09.05-.25-.22-.39-.31-.63.29-.08.6-.38.81-.41.19-.52-.52-.64-.45-1.03-.23-.11-.48-.53-.63-.72-.18,0-.37-.14-.27-.27-.17.09-.2-.02-.27-.14-.05,0-.04.08-.04.14-.16-.23-.44-.12-.59-.41-.5.04-.91-.08-1.39-.23v-.27c.62-.25,1.02-.43,1.71-.77.04-.17-.2-.07-.14-.27-.09.02-.04.18-.18.13-.33-.3-.82-.08-.99-.63.4-.12.62-.14.99-.27-.11-.52-.51-.48-.95-.67-.05-.2-.1-.21-.27-.23-.03-.09-.13-.09-.04-.18h0Z"/>
    <path class="cls-1" d="M120.67,94.77c.04-.14.21-.14.36-.18-.13-.61-.2-1.23-.09-1.94.23-.12.55-.53.99-.59-.21-.25-.73-.27-.9-.68.08-.29.3-.18.45-.36-.36-.16-.58-.47-.77-.81.06-.21.41-.13.59-.22-.83-.65-1.53-1.2-2.61-1.44.01-.33-.51-.12-.45-.5.72-.05,1.18-.59,1.85-.54.31-.18,1.08-.19,1.3-.18.04-.4-.5-.21-.54-.54.33.02.77.27.9.72-1.09.03-2.06.14-3.02.63.21.33.63.31.94.45.86.38,1.6,1.01,2.25,1.57.25-.01.37.11.41.32-.37.19-.84-.34-1.22-.18.08.43.55.46.81.72v.09c-.05.21-.35.19-.54.27.1.45.92.19.95.72-.37.29-.95.37-1.17.81.05.82-.07,1.3.23,1.89-.09.15-.25,0-.36.09.01.25.28.23.27.5-.28-.29-.55-.15-.63-.63h0Z"/>
    <path class="cls-1" d="M143.31,94.37c-.1.02-.06-.09-.13-.09-.77.36-1.2-.29-1.58-.59-.88.01-1.94.48-2.83.77-.02-.13-.07-.23-.13-.31-.51-.02-1.01-.48-1.58-.32-.06-.05-.17-.04-.18-.14-.1-.01-.05.13-.13.14-.46-.12-.97.17-1.53.22.04-.15-.05-.19-.09-.27-1.04.16-1.66,0-2.21-.32-.14-.03-.08.12-.23.09.11-.26-.14.08-.09-.18-.1.04-.5-.04-.68.09-.2-.22-.73-.03-.77-.5.66.39,1.92.06,2.43.68,1.22-.15,2.53-.26,3.6-.04.51-.08,1.05.17,1.4.41.86.04,1.53-.48,2.25-.45.07-.03.08-.16.13-.18.04-.01.57.04.77.14,0,0-.06.07-.05.09.03.03.15-.03.18,0,.2.16.23.46.49.54.17.05.3-.07.54-.05.02.07.14.04.09.18.14.04.06-.15.13-.18.05.1.32-.02.36.09.04.25-.22,0-.18.18h0Z"/>
    <path class="cls-1" d="M128.81,92.39c0-.13-.07,0-.22-.09-.01-.07.04-.08.04-.13-.14-.17-.66-.2-.76-.68.08.02.08.13.22.09.08,0-.08-.21.09-.09.07-.02-.02-.06,0-.14.34-.18.9-.36,1.31-.27.06,0,.02-.14.09-.14.14,0,.14.14.14.27.04-.26.34-.26.49-.41,0,.04.05.03.09.05-.01.4-.65.51-.9.36-.21.29-.83.19-1.08.45.52.87,2,.62,2.61,1.22-.26-.06-.81.02-1.03-.23-.04.03-.04.1-.14.09-.08-.08-.08-.03-.04-.18h-.09c-.03.15-.05.14-.27.09-.01-.25-.43-.35-.54-.27h0Z"/>
    <path class="cls-1" d="M124.94,95.31c-.39-.16-.38-.73-.95-.72-.12-.18-.29-.43-.18-.59.36.09.47.43.76.59.11-.18-.16-.38-.13-.63.43.16.55.41,1.03.45.2.46.42,1.02.86,1.17-.02.2.16.2.18.36-.04-.2.35.08.27.18.26.18.58.19.81.54.46.14.56.22.9.5.29.01.82.13.99.41.54-.09.8.6,1.26.5v.14c.29-.07.83.39,1.13.27.05,0,.04.08.04.14.15-.13.2-.02.31.14.16-.19.18-.08.41-.09-.36-.47-.68-.98-.81-1.67.78.73,1.06,1.62,2.16,1.76-.03.25.41.04.41.27.05,0,.04-.08.04-.14.12.23.41.15.63.23-.01-.39-.37-.64-.23-1.03.27.11.53.08.63.27.11-.2.37.03.45.13.23,0,.19-.26.27-.4.58-.02.89.14,1.39-.05.03-.35-.28-.46-.18-.77.28.11.36.42.45.72.16,0,.17-.14.32-.14.28.02.31.34.18.54-.89.1-1.21,1.16-2.16,1.35.1-.11.22-.36.36-.18.1-.46.74-.76,1.08-1.12-.32-.14-.7-.02-1.21-.04-.13.08-.17.25-.22.4-.39-.1-.69-.3-1.08-.27.04.34.31.62.22.94-.65-.12-1.42-.45-2.07-.63.03-.22-.24-.16-.32-.27-.03.28.19.3.09.54-.89-.09-2.03-.53-2.88-.94-.17-.05-.13.11-.27.09-1.4-.93-3.08-1.58-4.1-2.88-.08,0-.1.05-.18.04.04-.43-.39-.74-.77-.9-.06.03-.08.09-.09.18.05-.05.29.42.18.63h0Z"/>
    <path class="cls-1" d="M124.22,95.22s.22-.04.41-.04c-.05,1.06.1,2.22.68,2.79-.03.11-.14.16-.31.13-.1.45.4.77.18,1.04.36.39,1.1,1.12.45,1.71.42,1.9,1.75,3.33,1.71,5.4.71-.77,1.57-1.8,1.85-3.24.08,0,.11-.03.13-.09.27,0,.48.09.64.09.21-.36.27-1.1.18-1.62.3-.05.58.31.76.53-.18-.06-.28-.2-.45-.27-.08.46-.08,1.03-.18,1.48-.31.03-.3,0-.72,0-.39.46-.59,1.31-.85,1.76-.04,0-.04-.06-.04-.09-.5.87-1.1,1.63-1.62,2.48-.11-.02-.19-.05-.27-.09.19-.8.48-1.45.22-2.21-.15-.44-.28-.86-.54-1.39-.41-.85-.48-2.23-1.17-2.61.08-.41.44-.6.41-.99-.04-.41-.54-.59-.81-.86.22-.38-.07-.75-.18-1.17.09-.07.18-.12.31-.14-.44-.68-.67-1.79-.59-2.57-.08.01-.1.08-.09.18-.13.02.03-.24-.09-.22h0Z"/>
    <path class="cls-1" d="M140.97,100.63c-.15-.14,0-.14,0-.31.56.14.97.45,1.35.76.09-.02.08-.12.23-.09.44.11.66.47,1.08.58.53.14,1.41-.12,1.71.5-.23-.2-.83-.11-1.26-.28-.04.04-.06.08-.09.14-.3-.12-.71-.05-.85-.4-.7-.22-1.26-.36-1.58-.68-.05-.05-.4-.2-.59-.23h0Z"/>
    <path class="cls-1" d="M132.96,100.9c.13-.14-.12.2.09.13-.35.39-1.12.11-1.62.5.1.26.14.5-.05.68-.17-.13-.5,0-.4-.27.09.15.11.11.31.09.02-.28-.02-.49-.13-.63.41-.19.97-.22,1.44-.32,0,0,0,.09,0,.09.04-.17.27-.15.36-.27h0Z"/>
    <path class="cls-4" d="M144.75,106.3c.11-.02.44-.15.54,0-.08.15-.38.04-.54,0h0Z"/>
    <path class="cls-5" d="M123.55,113.6c-.35.18-.86.54-1.17.77-1.66,1.19-3.37,2.4-4.96,3.65-.53.42-.98.97-1.53,1.35-.6.42-1.37.56-1.98.94-.23.14-.43.37-.63.54-.2.17-.52.34-.54.68.29.35.83.06,1.31,0,.16-.32.46-.42.76-.59.7-.37,1.11-.82,1.94-.58.59.69.5,1.78.45,2.97.13.18.43.2.76.18.38-1.27-.07-3.11.81-3.87.62.21,1.06.82,1.85.72-.2-.65-1.02-.69-.9-1.67.78-.85,1.63-1.64,2.47-2.43.14.04.17-.05.27-.04.69-.97,1.98-1.41,2.74-2.34-.19-.23-.5.14-.76-.05-.05-.13.26-.26.04-.27-.37-.13-.66-.11-.94.05h0ZM121.43,104.99c-.46.45-1.05.88-1.67,1.31-1.01.7-2.19,1.35-3.15,2.03-.3.21-.77.34-1.21.4-.27-.2-.7-.45-1.12-.36-.46-.37-1-.66-1.62-.85.1.53.43.88.81,1.17.27.2.84.24.85.72-.71.46-1.98.45-2.7.77.56.51,1.52.07,2.3.09.4.01.96.21,1.44.05.04.08.17.07.18.18-.05,1.15-.74,1.91-.67,3.02.18-.54.79-1.02,1.03-1.67.04-.1,0-.26.04-.36.12-.3.57-1.04.9-1.08.17-.02.28.14.45.18.4.09.86.02,1.44.04-.09-.53-.61-.85-.54-1.39-.12,0-.14.09-.18-.04.08-.62.64-.99,1.12-.95.03-.12-.09-.09-.09-.18.3.04.52-.33.77-.5.83-.52,1.96-1.13,2.66-1.93-.56.16-.69-.44-1.03-.63h0ZM103.87,91.49c-2.56.94-4.63,2.39-6.57,3.96,1,.07,1.59-.38,2.34-.77,1.35-.69,2.62-1.37,4.01-1.89.03-.14.16-.2.22-.31-.09-.02-.15-.3-.04-.36,0,.08-.05.23.09.18.07-.36.24-.62.36-.94-.19,0-.37-.02-.4.14h0ZM97.97,91.85c-.11.11-.27.04-.18.27h-.18c-.78,1.12-1.35,2.35-1.76,3.74.22.01.23-.19.31-.31.59-.07.85-.59,1.26-.9.73-.55,1.66-1.08,2.52-1.62,1.02-.63,2.28-1.34,3.47-1.8.49-.19,1.04-.24,1.49-.59-1.37-.34-3.19,1.21-4.59.18-.23-.37-.32-.89-.36-1.44-.06,0-.06-.06-.14-.05-.61.85-1.42,1.5-1.85,2.52h0ZM136.02,104.82c.14-.06.17-.22.22-.36.49.44,1.02-.53,1.62-.49.14-.14.19-.39.32-.54.74.03,1.13-.2,1.75-.49.24.05.29.28.58.27.76.94,1.6,1.8,2.48,2.61.38-.16.55.46.95.5.38.03.79-.29,1.08-.32.93-.08,1.94.84,2.48,1.26.21-.58-.08-1.42.36-1.71.44.44,1.41.34,1.71.9.59.25,1.22.76,1.85,1.12.11.1-.04.2.04.27.9.52,1.54,1.55,2.66,1.71.04-.27-.19-.43-.13-.85.42-.36,1.18.13,1.75.27.65.16,1.41.39,2.03.5.45.07.89.09,1.31.18.43.09.84.29,1.26.22-.6-.38-1.05-.9-1.85-1.08-.39-.31-.87-.54-1.4-.72-1.38-1.03-2.89-2.04-4.23-3.1-.27-.22-.46-.54-.76-.72-.37-.23-.89-.55-1.17-.86-.04.14-.12-.05-.23,0-.34-.51-.98-.73-1.35-1.21-.74-.26-1.17-.91-1.89-1.3-.03-.09-.13-.14-.05-.23-.14.06-.29-.05-.27-.27.21.07.3.27.54.32-.51-.8.37-1.32,1.17-1.18.11.02.19.12.27.14.33.1.61-.03.94-.04.57-.02.96.18,1.3.27,1.12.29,2.29.54,3.19.59-.09-.16-.28-.23-.36-.41.95-.42,2.23-.59,3.24-.81-.46-.07-.83-.22-1.35-.23-.79-.53-1.9-.98-2.97-1.08-.49-.32-1.02-.32-1.49-.59-.23-.13-.33-.37-.54-.54-.27-.21-.66-.29-.95-.5-.19-.14-.32-.34-.5-.45-.21-.13-.48-.11-.68-.27-.21-.17-.28-.51-.49-.68-.58-.14-.88-.56-1.35-.81-.86-1.14-2.5-1.49-3.38-2.61-.5-.27-1.04-.91-1.75-.68-.82-.18-1.12-.86-1.85-1.12-.62-.67-1.5-.69-2.34-1.04-.85-.35-1.6-.94-2.48-1.31-.45-.18-.96-.45-1.35-.54-.39-.08-1.06.04-1.53-.04-.54-.66-1.47-1.05-2.39-.9-.04-.21.18-.3,0-.41-.45.05-.92-.1-1.35-.27-.09-.66-1.12-.39-1.53-.72-.02-.11.08-.09.05-.22-.3-.09-.61-.17-.81-.36-1.84-.4-3.84-.75-5.94-.72-.67,0-1.34,0-1.98.04-1.75.11-3.3.43-4.95.77-.57.11-1.12.26-1.67.23-.82-.05-1.55-.35-2.29-.5-.54-.11-1.06-.03-1.62-.05-.34-.01-.86-.14-1.31-.05-.66.14-1.33.57-1.94.81-1.49.59-3.74,1.27-4.23,2.7-.11.33-.27.83-.31,1.26-.1.85.48,1.32.4,2.07.43.51,1.23.21,2.07.09.86-.13,1.55-.41,2.3-.41.23.14.44.31.45.68-.12.26-.33.42-.4.72-.31-.05-.35.19-.49.31-.09.33.12.35.09.59-.02.17-.41.44-.41.54,0,.11.59.49.77.59.94.51,2.49.23,3.46.49.14.02.1-.14.27-.09.67.3,1.43.5,2.21.68.87.96,1.93,1.73,2.25,3.24.34-.08.17-.66.58-.67.18,0,.19.18.22.31,1.47.57,1.65,2.43,3.25,2.88.17.21.43.32.71.41.28.39.5.82.95,1.04.14.03.13-.08.27-.05.05.1.15.14.14.31.11,0,.13-.07.27-.04,1.03.94,2.1,1.83,2.7,3.19.17.04.22-.05.36-.04.16.2.28.44.49.59.23,1.14,1.13,1.99,1.31,3.33-.05.07-.14.09-.13.22.31.78-.16,1.83.13,2.53-.14.3-.34.56-.49.86.11.06.21-.1.22,0,0,.2-.14.23-.04.4.52.05.99.15,1.26.45.36-.02.57.09.77-.09.09-.22.08-.4.32-.54.46,0,.66-.27,1.04-.36.14-.32.4-.53.63-.77.47-1.53.8-3.26,1.48-4.68-.15-.26.08-.35.14-.63.49-.19.55-.52,1.17-.54.2.15.44.25.63.41.4-.15.55-.18,1.17-.13.37.29.67.64.94,1.03.15-.32.5-.73.36-1.21.29.11.1-.27.27-.27.13-.09.14-.07.32-.05.21-.47,1-.34,1.49-.32-.26-.2.23-.5.13-.49-.1.1-.12-.08-.18-.14h0ZM128.01,83.7c.02.32-.27.33-.36.54.69.16,1.39.32,1.75.81.27.04.25-.2.49-.18.27.15.39.3.81.22.04.1.03.27.09.36,1.04-.1,1.41.48,1.89.94.91-.24,1.87.19,2.66.36,1.21.8,2.6,1.53,4.1,2.03.23.07.48.05.72.14.78.28,1.07,1.48,2.03,1.48.18-.06.31-.17.49-.23.87.34,1.36,1.17,2.07,1.71.85.65,1.89,1.02,2.7,1.76,1.59.65,2.51,2.27,4.14,2.93.5.2.99.25,1.49.5.43.22.85.48,1.39.54.13.31.45.3.81.45.38.16.73.49,1.04.59.43.14,1.17.16,1.75.27.23.04.42.16.72.09.35.16.85.18,1.04.49-.12.34-.57.24-.86.23-1.14-.05-2.53-.24-3.37.36,1.04.88,2.22,1.62,3.24,2.52-.15.37-.67.11-.81.04-.38-.2-.78-.57-1.13-.77-.5-.06-.93-.4-1.35-.4-.73-.38-1.81-.4-2.48-.72-.16.02-.11.12-.27.04-1.38-.48-2.77-1.19-4.41-.59.21.61.62,1.03,1.17,1.31.03.14-.04.16-.04.27,1.37.93,2.77,2.1,4.23,3.02.53.33.98.71,1.44,1.08.78.62,1.43,1.35,2.3,1.94.8.19,1.05.69,1.94.81.38.87,1.55.94,1.94,1.8-.35.37-.6-.02-.77-.31-.27-.05-.35.07-.45.18-2.19-.19-3.84-1.04-5.45-1.26-.17.62.33.96.54,1.35-.08.22-.29,0-.45,0-.14,0-.28.1-.41.09-.68-.05-.9-.81-1.49-.95-1.39-1.28-3.06-2.28-4.73-3.28.13.5.31,1.23-.18,1.44-1.31.04-2.03-.98-3.15-1.08-.69-.06-1.45.03-1.98-.31-.12-.08-.19-.27-.31-.36-.5-.38-1.09-.77-1.49-1.21-.35-.4-.7-.8-1.13-1.18-.78.48-1.49,1.02-2.39,1.26-.09.23-.15.5-.18.81-.08.06-.15.12-.32.09-.14.37.23.57,0,.86-.35-.13-.74-.37-1.13-.22.03.25.17.12.14.41-.35.04-.43-.2-.59-.36-.3-.02-.15.39-.32.5-.34.04-.31-.29-.59-.32-.28.41-.22,1.19-.45,1.76-.64-.34-.95-1-1.35-1.58-.18.22-.63.18-.76.45-.25-.06-.27-.52-.5-.23-.07-.3-.51-.57-.94-.36-1.19,1.53-1.59,3.85-2.3,5.85-.65.51-1.21,1.1-1.93,1.53-.64.11-1.11.63-1.53,1.09-1.78,1.07-3.37,2.33-4.77,3.78.24.62,1.23.72.99,1.67-.69.51-1.43-.23-2.07-.45-.73.76-.18,2.21-.63,3.06.06.41-.03.51-.18.77-.2-.09-.48-.12-.72-.05-.94-.55-.3-2.4-.72-3.19-1.01,0-1.73.63-2.39,1.12-.42-.09-.69.27-.99.32-.17.02-.24-.12-.4-.14-.3-.03-.76.27-.99-.09.11-.31.36-.48.4-.85.25-.27.59-.43.77-.77.57-.42,1.11-.71,1.76-.99.56-.24,1.1-.58,1.57-.94.39-.3.72-.7,1.13-.99.26-.19.56-.3.81-.5,1.66-1.29,3.36-2.55,5.04-3.69-.08-.69.43-.8.59-1.26.02-.24-.23-.22-.23-.45.56-1.74-.12-4.03-1.03-5.18-1.58.85-2.99,1.87-4.23,3.06.12.65.52,1.01.81,1.49-.66.24-1.63.27-2.29-.05-1.13.92-1.06,2.6-2.39,3.38-.23-.23-.17-.67-.13-1.03.07-.87.35-1.62.68-2.39-.88.1-1.95.24-2.84.09-.11-.02-.3-.05-.4-.09-.44-.16-1.05-.46-1.13-.9.86-.05,2.01-.37,2.88-.68-.57-.47-1.55-.95-1.31-1.94.66-.2,1.53.58,2.25.85.61.23,1.1.26,1.76-.04.33-.15.62-.48.99-.72.68-.45,1.35-.91,2.03-1.39.63-.45,1.21-.81,1.89-1.22-.44-.82-1.12-1.4-1.84-1.94-.26.07-.26.32-.54.32-.56,0-.58-.89-.86-1.35-.39-.63-.95-.81-1.31-1.12-.33.02-.63,0-.85-.09-.31-.56-.54-1.2-1.22-1.39-.26-.47-.74-.7-1.08-1.08-.1.24-.14.51-.36.54-.56.07-.48-1.16-.81-1.44-.12.06.03.38-.09.45-.24.05-.22-.02-.45-.05-.52-1.11-1-2.26-2.16-2.75-.03.12.17.66-.09.77-.58-.46-1.15-1.16-2.12-1.31-1.03-.16-2.02.15-2.79-.27-.42-.23-.56-.58-.99-.81-1.43.42-2.91,1.33-4.28,2.12-.44.25-1.06.63-1.53.77-.4.11-.78-.07-1.13-.23-.56.14-.66.75-1.26.85-.23-.47-.1-1.01.04-1.44.8-2.45,2.53-4.65,4.1-6.48.16-1.3.6-2.23,1.3-3.06.39-.11.75-.25.9-.59.07.01.02.13.09.13.74-.4,1.61-.82,2.48-1.17.89-.36,1.75-.86,2.84-.9.36-.01.75.04,1.13.04,1.45.04,2.81.78,4.51.59.91-.1,1.79-.48,2.74-.67,1.18-.24,2.23-.56,3.52-.32.93-.05,3.11-.2,4.45.09,1.53.33,2.97.43,4.37.81h0Z"/>
    <path class="cls-1" d="M143.59,94.14c.06.06.2.04.31.04.05-.29-.28-.49-.45-.54-.05-.01-.07.09-.09.09-.27.02-.63-.31-.9-.23-.32-.45-.73-.8-1.08-1.22-.45.02-.67-.33-1.21-.41.1-.21-.16-.06-.05-.31-.05,0-.04.08-.04.14-.59-.29-1.47-.3-1.85-.81-1.44-.39-2.64-1.03-3.56-1.94-.42,0-.79-.25-1.13-.18-.04.16.2.04.18.18,0,.08-.05.09-.04.18-.77-.06-1.52.18-2.25.27,0,.14-.11.08-.27.18.1.25.4.13.63.32-.03.58-.8.49-.9.77-.07.02-.08-.04-.09-.09-.1,0-.02.16-.04.23-.13-.01-.23.01-.27.09.03-.14.21-.52.45-.59-.02.09-.13.09-.04.18.06-.15.34-.15.23-.36.13,0,.22-.01.27-.09-.1-.24-.43-.26-.54-.5.23-.37.99-.39,1.75-.62.06,0,.04.11.05.18.03-.11.15-.15.22-.23-.05-.14-.23,0-.27-.23-.28.11-.88.1-.94-.27.69-.05.82-.06,1.58-.05-.03-.09-.09-.15-.18-.18.31-.05.69.12.9.41.14-.07.42-.08.41.14.39-.3.58.23.94.49.2.14.44.08.49.36.63.14,1.2.65,1.8.85.26-.03.7.09.77.41.27.17.61.27.9.41.04-.16.14.03.23-.09.59.52,1.51.71,2.2,1.12v.18c.51-.06.44.82,1.04.81.03.03.04.07.04.13.64-.1,1.58.33,1.26,1.04-.14-.04-.31-.05-.36-.18-.09.02,0,.21-.18.14,0-.11.07-.14.09-.23h0Z"/>
    <path class="cls-6" d="M104.28,91.35c-.12.32-.29.58-.36.94-.13.05-.08-.1-.09-.18-.1.06-.04.34.05.36-.06.12-.19.17-.23.31-1.39.52-2.66,1.19-4.01,1.89-.75.39-1.34.84-2.34.77,1.94-1.57,4.01-3.01,6.58-3.96.03-.15.21-.14.4-.14h0Z"/>
    <path class="cls-5" d="M122.11,95.9c.01.15-.08.06-.23.18.03.09.07.17.23.14-.08.09.03.08,0,.22-.24.09-.5-.06-.45-.22-.27.04-.44.13-.54.22.06.89,1,1.13,1.03,1.89-.09-.18-.1.05-.31,0,.04-.1.12-.15.09-.32-.46-.45-.88-.95-1.12-1.62.18-.24.41-.44.77-.5.05-.17-.11-.13-.09-.27.15.29.73-.07.72.41-.04-.03-.06-.09-.09-.14h0Z"/>
    <path class="cls-1" d="M117.97,96.71c.1,0,.1.11.09.23.58.06,1.2.09,1.26.68-.92.02-1.08-.25-1.98-.23-.08-.18-.5-.21-.58-.14-.13-.15-.56-.01-.59-.27-.08,0-.03.15-.09.18.7.39,1.45.75,2.02,1.31.42.4.75.95,1.17,1.44.35.4.81.71,1.08,1.12.34.52.63,1.31,1.62,1.08-.55-.62-.68-1.66-1.26-2.25.08-.55-.57-.7-.72-1.17.3.1.53-.06.59.13.14-.05.22-.17.31-.27-.1-.29-.46-.31-.58-.59.24-.19.68.15.85.32.08-.14.45-.04.59-.05-.07.32-.54.05-.68,0-.12.16.25.2.18.45-.41-.18-.4.39-.76.22.05.3.3.39.45.59-.02.16.02.25.04.36.53.64.7,1.65,1.26,2.25.15.11.42.22.32.45-.3-.2-.8-.29-1.04-.14-.34-.09-.59-.51-.99-.67-.03-.23-.26-.28-.18-.5-.36-.29-.46-.83-.99-.94-.21-.5-.66-.94-.99-1.17-.3-.54-.93-1.19-1.58-1.49-.09-.04-.23,0-.32-.04-.22-.1-.39-.31-.54-.36-.1-.04-.23.04-.32,0-.24-.12-.56-.43-.58-.77.44-.05.73.04.81.36,1.15.14,1.95.34,2.93.45.03-.23-.76-.05-.81-.36-.04,0-.04.05-.05.09-.17-.11.1-.17.05-.31h0Z"/>
    <path class="cls-5" d="M135.66,100.31c.11-.02-.05-.12-.09-.14.12-.2.38-.25.5-.45.07.07.26.02.23.18-.12.07-.27-.09-.18.18-.09.09-.09-.02-.18-.05-.04.23-.35.55-.63.45-.04.18-.27.41-.54.5-.35.66-.97-.03-1.26-.27.16-.04.53.18.54.36.1.08.22,0,.4-.05.01.08-.04.08-.04.14h.09c0-.48.69-.62.99-.95.03.06.17,0,.18.09h0Z"/>
    <path class="cls-5" d="M136.72,117.73c1.48.05.96,2.51.24,3.12-.47.05-.88-.15-1.26-.36-.23-1.05.28-2.28,1.02-2.76h0Z"/>
    <path class="cls-5" d="M116.41,128.28c.58.52,1.14.18,1.61.12.62-.37.6-1.47.42-2.34-.15-.02-.53-.18-.6-.48-1.28.12-1.77,1.5-1.43,2.7h0ZM144.93,123.06c.46.03.3-.07.3,0,.59-.31,1.14-.65,1.38-1.32-.94-.18-1.42.62-1.68,1.32h0ZM139.77,122.43c0,.25,0,.59.13.69.53-.79,2.09-2.78.84-3.65-.44-.03-1.07.95-.96,2.96h0ZM141.69,125.82c.45-.11.78-.35.84-.84.14.02.06.26.18.3.14-.11.09-.33.54-.24.04-.51.01-1.24,0-1.62.33-.89,1.05-2.23,1.86-2.87.18-.15.59-.43.78-.48,1.27-.39,2.02.78,2.58,1.62.05.19-.46,1.29-.78,1.62-.6.63-1.6.89-2.16,1.62.14.41.75.44,1.2.36.77-.14,1.25-1.23,2.03-1.02.2.54.38-.12.39.43-.43.77-1.6,2.24-2.61,2.39-1.28.18-2.91-.62-3.17-1.74-.21.05-.23-.09-.42-.06.02.28.22.37.3.6-.33,1.11-1.19,1.99-2.39,1.74-.15,0-.15.13-.24.18-.89-.17-1.1-1.02-1.5-1.68-.73.37-1.18,1.81-2.22,1.92-.67.07-1.83-.36-2.04-1.02-.57.84-1.32,1.62-2.63,1.8-.94.12-1.42-.34-1.74-1.14-.46.36-.77,1.14-1.26,1.5-.55.41-1.18.28-1.56-.3-.66-1.03-.73-2.92-1.2-4.01-.74-.11-.79.05-1.38.24-.83.84-.72,2.9.06,3.72-.05.59-.2,1.08-.66,1.26-.31.03-.71-.32-1.08-.42-.03-.58.1-.99-.12-1.32-.25.15-.12.68-.54.66.15.58-.94.92-1.38,1.32-.36-.21-.56.11-.9,0-.44-.14-.67-.83-1.19-.96-.67.48-.95,1.33-1.8,1.38-1.3.08-2.55-1.22-2.46-2.82.03-.48.32-2,.6-2.45.44-.72,1.78-1.39,2.81-.72.23-.27.21-.78.48-1.01.68-.18,1.39.08,1.5.66.08.38-.19,1-.24,1.62-.09,1.2.04,2.32.72,2.81.79-.49,1.27-1.28,1.92-1.92.22-.05.32.11.42,0,0-1.39-.75-2.25-.78-3.41.46-.38,1.64-.26,1.8.36.68-.68,1.66-.93,2.88-.54,1.23.67,1.14,2.54,1.38,4.08,1.33.19,1.62-2.69,1.62-4.08-.64-.06-1.7-.2-1.74-.9-.03-.54.77-1.08,1.56-1.08.22-.66.07-1.69.42-2.22.69,0,1.26.13,1.86.24.51.72.12,1.97.3,2.88.62.21,1.52.16,1.68.84-.17.57-.97.74-1.44.66-.14,1.04-.12,2.2.42,2.99.41.05.8-.52,1.02-.96.44-.87.73-2.01.66-3.11.2-.78,1.25-1.29,1.92-.6.22,1.44-.83,3.35,0,4.49.98-.32,1.37-1.23,1.98-1.92-.45-1.18-.15-2.54-.06-4.01.01-.23-.04-.46,0-.66.21-1.1,1.66-2.61,2.69-2.15.34.14.44.53.84.78.8,1.2.16,2.81-.48,3.89-.11.18-.16.44-.24.54-.13.18-.37.21-.48.36-.34.47-.48,1.28,0,1.98.26.12.39.36.66.48h0Z"/>
    <path class="cls-5" d="M99.76,128.87c-.21.38-.24,1.18,0,1.56.49-.36,1.37-1.05.96-1.74-.48.02-.66.05-.96.18h0ZM113.84,127.62c-.59.02-.83-.55-1.26-.54-.99.02-1.53,2.58-.78,3.35,1.29.16,2.52-2.36,3.36-.78-.31,1.33-2.76,3.09-4.19,1.5-.67.18-1.02,1.03-1.74,1.08-.5.03-1.08-.54-1.62-.42-.14-.05.05-.26.06-.36-.77-.77-.5-2.03-.42-3.42-.55.23-.78.77-1.44.9.12,1.12.83,1.65.78,2.94-.41.29-.59.88-1.14.9-.39.01-1.16-.48-1.26-.96-.11-.52.39-1.19,0-1.67-.53.85-1.18,2.04-2.04,2.81-.21.19-.51.47-.66.54-1.18.54-2.18-.14-2.76-.96-.5.19-1.17.2-1.55.06.05-.54-.43-.78-.66-1.2-.65-1.19-.53-2.81-1.14-4.07-.66,1.69-.62,4.64.6,5.69.05.57-.27.82-.48,1.26-.74.23-1.5-.01-1.92-.42-.45-1.76-.18-4.95-1.14-6.23-.69-.93-1.5,0-1.68,1.02-.23,1.32.24,4.24.72,4.97.14.21.38.3.48.54.23.78-1.05,1.89-1.98,1.62-.78-.23-.79-2.16-.84-3.17-.03-.7,0-1.48-.12-2.22-.19-1.17-.59-2.8-1.02-2.81-.4.13-.54.53-.72.9-.56.04-.72-.32-1.02-.54.12-1.03,1.01-2.2,1.98-2.03.88.16.99,1.48,1.2,2.46.37-1.41.6-2.95,2.16-3.17.95.28,1.65.83,2.1,1.62.42-.73.97-1.4,2.1-1.26,1.37.18,1.38,1.81,1.68,3.29.22,1.09.45,2.03.96,2.88-.8-2.23.94-5.16,3.29-3.84.38,1.23-.47,2.23-.96,3.12,1.76.2,3.03-.92,2.99-2.51-.93-.28-1.95-2.57-.53-2.88,1.06-.23,1.13.82,1.91.78.54,1.3,1.93.05,2.28-.6.49.37,1.02.7,1.5,1.08-.13.79-.73,1.6-.54,2.58.06.3.38.47.36.84.27.25.64.4,1.14.42-.82-1.88.28-4.3,1.56-5.27,1.35-1.03,3.04.46,2.4,2.22h0Z"/>
    <path class="cls-1" d="M124.52,94.71s.03.89.14,1.8c.11.91.64,1.46.64,1.46l-.31.13s.06.45.09.73l.03.28s.77.55.72.94c-.05.39-.36.86-.36.86,0,0,1.96,4.11,1.87,5.35,0,0,1.73-1.5,1.92-3.03,0,0,.57-.19.69-.22.12-.03.26-.28.26-.8s.08-.72.08-.72c0,0,.53.53.81.55.28.03.25-.14.25-.33v-.36s1.38-.31,1.55-.36c.17-.05.41-.39.62-.28.21.11.46.37.68.41.22.04.2.21.31.04.11-.18,1.63-1.23,1.63-1.23l2.02-1.8h-.66l-1.27.03s.08.3-.03.3-1.08-.14-1.08-.14l.08.97s-2.1-.78-2.22-.86c-.11-.08-.38-.17-.38-.17l.25.61s-2.84-.83-4.33-1.73c-1.48-.9-2.29-1.32-2.95-2.25-.66-.94-.8-.42-.8-.42l-.22.22h0Z"/>
    <path class="cls-1" d="M133.19,88.7s1.25.08,1.44.17c.19.08,1.69,1.19,1.86,1.21.16.03,1.74.57,1.74.69,0,.12,1.35.72,1.61.72s1.51.67,1.69.8c.18.13.75.89.94,1.02.19.14.8.09.99.2.2.11.61.39.53.53-.08.14-.58.15-.69.2-.11.04-.47.19-.69.08-.22-.11-.31-.11-.61-.41-.29-.3-.39-.3-.47-.3s-.41-.05-.58,0c-.17.05-1.77.58-1.85.58s-.67-.16-1.08-.33c-.41-.16-1.25-.3-1.6-.22-.36.08-.75.03-1.13.03s-.83.08-1.22.08-.5.17-.77-.11c-.28-.28-.62-.17-.67-.25-.05-.08-.6-.05-.77-.11-.16-.05-.28-.11-.28-.11l-1.05-.39s-1.1-.36-1.27-.44c-.17-.09-.9-.5-.91-.66,0-.17,1.21-.53,1.41-.56.19-.03,1.36-.64,1.6-.85l.25-.22s-.56-.47-.47-.53c.09-.05,1.11-.36,1.88-.39l.19-.41h0Z"/>
    <path class="cls-1" d="M145.75,101.82s-.8-.66-.94-.77c-.13-.11-1.08-.5-1.35-.75-.28-.25-1.25-1.44-1.25-1.44,0,0-.41-.14-.97-.06-.55.08-1.71.05-1.91.2-.2.14-.33.14-.22.3.11.16.58.33.66.5.08.16.86,1.03,1.02,1.05.17.03.83-.25.97-.14.14.11.26.29.56.36.29.08.35.14.46.19.11.05.53.36.75.36s.97.06,1.19.09c.22.03,1,.3,1,.3l.03-.2h0Z"/>
    <path class="cls-1" d="M118.58,88.18s.41.45.66.45,2.32,1.49,2.32,1.49c0,0-.55.14-.55.22s.3.44.3.44l.28.28s-.41.2-.36.28c.06.08.64.61.64.61l.06.13s-.97.59-.94.89c.03.3.14,1.69.14,1.69l-.22.11s.67,1.08.83,1.08.03.25.03.25c0,0-.59.25-.64.34-.05.1.73,1.45.81,1.58.08.12-.68.32-.76.27-.09-.05-.43-.06-.43-.06,0,0,.47.06.16.33-.31.27-.41.36-.41.36l.36.72,1.13,2.48-.3.13s-.55.25-2.27-2.08c-1.72-2.32-3.43-3.04-3.43-3.04,0,0,2.77.39,2.88.36.11-.03-.09-.17-.58-.47-.5-.31-.94-1.22-1.11-1.25-.17-.02.36-.41.25-.47-.11-.06-.47-.3-.47-.3l.5-.36s.11-.17.17-.61c.06-.44.06-.86.06-.86l.53-.53s-.91-1.62-1.8-1.96c-.88-.34-1.49-.53-1.49-.53l-.17-.25s1.33-.2,1.36-.64c.03-.44.19-.16-.39-.44-.58-.27-.61-.27-.58-.27.03,0,.81-.22.81-.22,0,0,0-.42-.5-.72-.5-.3-.89-.25-1.19-.5-.3-.25-.17-.83-.67-.86-.5-.03,2.74-1.11,3.05-1.08.3.02-.5.45-.4.69.1.25,1.37.36,1.45.44.08.08-.5.4-.42.39.09-.02,3.6-.03,4.18.52l.14.2s-2.16.11-2.99.77h0Z"/>
    <path class="cls-3" d="M108.25,77.57c-.36.89-.1,2.65-.17,3.94.9.78,2.38.73,3.65.98.06,6.52-.19,13.29-.09,19.82.56.39,1.54.45,2.17.37.34-4.79.57-9.31.7-14.03.06-2.17-.19-4.42.35-6.4,1.05.16,1.96-.35,2.78-.12-.03-1.49.19-2.53.17-3.94-2.7-.16-6.43-.96-9.56-.61h0ZM118.69,77.69c-.32,1.84.17,4.84-.61,6.03-.9-.44-1.3-.46-2.43-.37-1.01,5.97-.32,13.64-1.13,19.94-1.04.3-2.45.42-3.48-.12-.24-7.05-.13-13.12.09-19.69-1.28-.32-2.25-.76-3.57-1.23-.28-1.62-.15-4.06-.09-5.29,2.74-.98,6,.04,8.87.25.85.06,1.7-.3,2.35.49h0Z"/>
    <path class="cls-3" d="M117.81,78.18c.02,1.41-.21,2.45-.17,3.94-.83-.23-1.73.28-2.78.12-.54,1.98-.29,4.23-.35,6.4-.12,4.72-.36,9.24-.7,14.03-.64.08-1.61.02-2.17-.37-.1-6.52.14-13.29.08-19.81-1.27-.25-2.75-.21-3.65-.99.08-1.28-.18-3.04.18-3.94,3.14-.34,6.86.45,9.56.61h0Z"/>
    <path class="cls-5" d="M148.87,124.97c.02-.07-1.03-.55-.89-.57.39-.4,2.86-3.6,4.5-1.61.88,1.07-.84,3.51-1.54,4.2-.88,1.15-3.11,3.42-5.83,4.29-2.65.9-4.91,2.21-7.96,3.07-1.24.35-2.71.52-4.07.78-1.16.23-2.31.56-3.61.7-.54.06-1.09.02-1.64.07-2.23.22-4.1.54-6.2.45-3.49-.13-7.86-.29-11.13.43-.55.12-.96.36-1.5.49-1.25.28-2.84.38-4.31.73-2.78.67-5.16,1.08-8.39,1.46-1.49.17-3.38.41-4.56.32-.56-.04-2.13-.68-2.62-.91-1.01-.48-1.53-1.16-1.95-1.67,3.71.88,8.08.96,13.04.28,1.47-.2,3.35-.65,4.89-1,2.48-.56,4.74-1.74,7.42-2.02,3.46-.36,5.92-.02,8.47.54,1.39.1,2.79,0,4.34,0,1.93,0,3.47.05,5.39-.36,1.2-.25,2.52-.62,3.83-.95,2.64-.66,5-1.27,7.18-2.13,1.92-.76,7.01-3.62,7.92-4.68.44-.51.64-1.09.98-1.74,1.91-3.61-.32-1.78-1.74-.16h0Z"/>
  </g>
</svg>