<?xml version="1.0" encoding="UTF-8"?>
<svg id="Layer_1" data-name="Layer 1" xmlns="http://www.w3.org/2000/svg" viewBox="0 0 180 200">
  <defs>
    <style>
      .cls-1, .cls-2 {
        fill-rule: evenodd;
      }

      .cls-1, .cls-3 {
        fill: #231f20;
      }

      .cls-4 {
        fill: #5b775e;
      }

      .cls-5 {
        fill: #fff;
      }

      .cls-2 {
        fill: #f48668;
      }

      .cls-3 {
        font-family: AmericanTypewriter-Bold, 'American Typewriter';
        font-size: 19.28px;
        font-weight: 700;
        letter-spacing: .02em;
      }

      .cls-6 {
        fill: #947396;
      }
    </style>
  </defs>
  <g>
    <polygon class="cls-2" points="33.58 87.34 10.63 120.93 11.77 122.38 55.55 120.86 39.82 91.98 35.15 86.51 33.58 87.34 33.58 87.34"/>
    <path class="cls-1" d="M31.74,91.7c-.83.36-.24-.83-1.07-.47-.39.14-.18.83-1,.58-.32,1.37-.64,2.72-1.93,3.22-.31,1.44.73,1.38,1.15,2.03-1.81,1.32-1.82,5.56-5.01,4.15.29.77,1.25.81,1.39,1.76-.69.35-1.2.49-1.53.6,1.11.9-.29.68-.72,1.34-1.11,1.72-1.71,4.44-3.66,4.87-.07,1.25-.53,2.17-1.71,2.43.66,1.35-.38.18-.74.82,1.67.32-1.07,1.14.09,1.82-1.85.39-1.4,2.87-2.68,3.78-.17-.45.24-1.54-.33-1.55,0,.41.08.9-.49.81-.27.86.85.15.57,1.01-1.08.27-.88,1.69-1.44,2.42,2.71-.6,7.11-.64,10.14-.5.05-.2-.02-.51.23-.53,10.08.92,18.12-.65,30.43-.98-.56-2.73-2.98-4.04-3.92-5.54-.31-2.31-2.5-2.54-2.59-5.08-1.17.17-1-.93-.86-1.52-1.04.02-1.97-1.66-1.14-2.03-.81.44-.87-.15-1.58-.44-1.88-5.68-6.37-9.68-8.52-14.17.01.26-.44.35-.52.02.32-.04.61-.11.5-.54-.73.25-.69-.33-1.32-.19-1.26,1.76-1.82,4.14-3.92,5.14.55.89-.19,1.27-.68,1.86-.32-1.03-.06-2.03.38-2.89.43-.02.18.72.56.76.06-1.12.95-3.24,1.71-2.17-.03-.36.09-.58.22-.79h0ZM46.92,103.71c1.54.22,1.13,2.58,2.74,2.73.04,1.68.91,2.47,1.97,3.02-.12,1.78.89,2.31,1.96,2.77.12.44-.18.5-.49.54.37.36,1.22.6.58,1.28.2-.15.42-.29.76-.3.12.52-.01.82-.48.8.52.67,2.02,2.08,1.17,2.55.27.44.84.53,1.58.44.15,2.13,1.32,3.12,1.31,5.41-.25-.15-.98-.56-.76.3-.47-.49-1.81-.01-1.87-.95-.57,1.02-1.78-.68-3.09.67-.79.13-.58-.82-.85-1.26-.74.26.37.64.07,1.3-.2-.17-.88-1.05-.78.04-3.63-.25-9.02-.27-12.24.08-.01-.26-.03-.51-.04-.78-1.17.69-2.55.83-3.64.18-.7,1.02-5.54,1.05-7.02.35-2.86,1.64-9.21.09-10.59,1.82-2.24-1.26-6.1.17-8.9-.86-.26-.82.17-1,.46-1.33-1.05-.04-.44-.2-.61-1.79,1.21-.39,1.71-1.42,1.68-2.95,1.21.19.52-1.34,1.77-1.13-.23-.79-.21-.49-.07-1.3,1.77.2.7-2.18,2.23-2.19-.18-.26-.61-.24-.56-.76,1.05.29.49-.88,1.53-.6-.02-.43-.04-.87-.06-1.3.22-.21.58-.31,1.02-.31,1.53-3.92,4.38-6.63,6-10.46.9-.02,1.18-.58.97-1.61.76.03.76-.63,1.53-.59.63-3.48,3.95-4.54,4.55-8.05,2.85-.64,2.17-4.48,4.95-5.19-.18-.26-.61-.24-.56-.75.86-.06,1.27-.51,2.33-.38,1.16.82-.3,1.34,1.36,1.23-1.07,1.18.34,4.61,1.51,4.09.38.07.07,1.97,1.39,1.76-.14.8.32.93.35,1.54,3.34,2.79,3.98,8.57,7.33,11.36.12.44-.18.5-.5.55h0Z"/>
    <text class="cls-3" transform="translate(23.49 117.41) scale(.79 1)"><tspan x="0" y="0">39</tspan></text>
  </g>
  <g>
    <polygon class="cls-5" points="175.67 138.08 169.43 137.66 163.36 138.15 157.3 137.82 151.23 137.91 145.16 137.89 139.09 138 133.02 138.02 126.96 137.8 120.89 137.99 114.82 137.94 108.76 137.7 102.69 137.81 96.62 138.07 90.55 138.15 84.48 137.84 78.41 137.97 72.34 137.79 66.26 137.78 60.13 137.95 60.4 131.98 60.06 126.06 60.46 120.14 60.34 114.22 60 108.3 59.99 102.38 59.91 96.46 60.13 90.53 60.47 84.61 60.08 78.69 59.9 72.76 60.36 67.01 66.25 66.57 72.32 66.95 78.38 66.56 84.45 66.99 90.52 66.61 96.59 66.98 102.66 66.85 108.72 66.71 114.79 66.96 120.86 66.65 126.92 66.97 132.99 66.73 139.06 66.76 145.13 66.71 151.2 66.99 157.27 66.56 163.34 66.79 169.42 67.02 175.54 66.79 175.46 72.75 175.49 78.67 175.5 84.59 175.25 90.51 175.3 96.43 175.56 102.35 175.69 108.27 175.77 114.2 175.31 120.12 175.56 126.04 175.22 131.98 175.67 138.08"/>
    <path class="cls-4" d="M144.74,134.69c-.19-.19-.43-.35-.55-.58-1.91-3.37-3.87-6.71-4.94-10.47-.83-2.91-1.4-5.86-1.22-8.92.14-2.42.65-4.76,1.24-7.09.9-3.52,2.55-6.69,4.58-9.67.5-.74,1.09-1.42,1.67-2.1.9-1.03,2.12-1.64,3.22-2.41.1-.07.34-.04.44.04.1.08.17.33.11.43-.18.36-.37.74-.65,1.02-2.63,2.61-4.34,5.79-5.75,9.15-.45,1.08-.76,2.24-1.04,3.38-.57,2.38-1.11,4.76-1.38,7.2-.09.77-.11,1.54-.15,2.32-.01.24.04.47.07.9.14-.27.22-.36.23-.46.83-4.78,2.73-9.11,5.46-13.1.62-.91,1.21-1.84,1.8-2.76,1.13-1.75,2.56-3.27,3.87-4.88.38-.47.83-.88,1.23-1.3.41.14.35.39.24.61-.1.22-.25.42-.4.61-.74.92-1.49,1.83-2.23,2.76-.55.7-1.11,1.41-1.62,2.15-1.19,1.75-2.4,3.5-3.51,5.3-1.44,2.33-2.48,4.85-3.21,7.5-.36,1.3-.7,2.59-.96,3.91-.17.85-.27,1.69-.26,2.55.01,1.26.02,2.53.29,3.77.07.31.19.6.36,1.12.17-.53.27-.82.35-1.12.43-1.57.85-3.15,1.28-4.72.3-1.11.76-2.14,1.3-3.16,1.01-1.91,2.12-3.76,3.33-5.55,1.41-2.08,3.12-3.86,5.08-5.42.41-.33.82-.66,1.24-1.01.23.04.26.23.23.44-.08.59-.44,1.04-.78,1.5-1.1,1.46-2.26,2.89-3.28,4.41-2.13,3.18-4.2,6.42-5.64,9.99-.89,2.2-1.55,4.48-1.53,6.88.02,2.18.41,4.29,1.54,6.21.07.12.1.27.15.41-.07.05-.15.11-.22.16Z"/>
    <path class="cls-6" d="M162.12,90.16c-.61.16-.79-.45-1.3-.58-.14.09-.33.22-.5.32,0,.13-.03.22,0,.27.12.2.34.31.37.6.02.2.23.38.4.63-.17.17-.39.4-.66.67.14.2.29.41.43.62-.07.08-.12.18-.17.19-.92.08-1.84.16-2.77.21-.17,0-.39-.12-.52-.25-.19-.2-.31-.47-.49-.76-.63-.19-1.59,0-1.7-1.17.31-.16.61-.32.94-.49.03-.43.06-.84.09-1.27.14-.01.26-.06.35-.03.82.29.93.26,1.37-.43.06-.1.13-.2.19-.29.53-.25.64.13.81.54.4-.34.79-.67,1.21-1.04-.24-.51-.54-.97-.92-1.4-.35-.39-.37-.61-.16-.85.3-.33.57-.17.88.05.16-.17.32-.34.54-.58.25.33.49.64.76.99.5,0,.82-.33,1.44-.7-.64-.12-.98-.19-1.4-.27.1-.17.15-.41.29-.47.44-.2.27-.52.23-.91.27-.24.7-.36.79-.9.09-.54.51-.57.99-.14.06.05.11.12.22.24.22-.23.43-.46.65-.69-.17-.23-.31-.42-.45-.61,0-.34.75-.49.21-.88.04-.1.05-.16.07-.18.25-.13.5-.25.78-.39v-.73h.73c.03-.08.1-.17.07-.22-.17-.36-.35-.71-.53-1.08.37-.23.66-.42.99-.63.15.06.33.15.52.19.27.05.47-.22.34-.46-.1-.17-.24-.32-.37-.46-.1-.12-.23-.22-.33-.34-.02-.02,0-.08.03-.21h1.6c-.06-.28-.06-.49-.15-.64-.16-.27-.38-.51-.61-.8.35-.33.67-.63.97-.91-.06-.35-.11-.67-.15-.93.27-.38.56-.14.82-.15.39-.02.59-.25.57-.63,0-.12-.02-.25-.05-.36-.23-.87.04-1.5.84-1.94.2-.11.33-.34.47-.53.16-.22.3-.46.53-.82.12.24.25.38.22.48-.09.35-.24.69-.35,1.04-.14.46-.36.92-.23,1.46.18.13.37.26.6.43-.13.19-.27.39-.4.58.05.45.61.15.72.5-.02.07,0,.18-.06.22-.42.31-.85.61-1.3.93.1.38.52.5.89.64-.16.59-.71.72-1.03,1.14.11.14.22.29.36.48-.33.51-1.14.11-1.42.66.02.51.52.35.72.62.03.26-.29.22-.37.37-.09.17-.14.37-.25.51-.12.15-.28.27-.44.39-.16.12-.32.21-.59.39.21.13.32.25.45.26.36.05.72.06,1.17.09-.04.24-.01.45-.1.6-.19.31-.44.58-.7.91-.18-.04-.37-.09-.57-.11-.11-.01-.33,0-.34.03-.1.7-.73.31-1.06.5.03.46.48.38.69.6.13.14.25.32.27.49.01.09-.21.3-.32.29-.38-.03-.55.28-.83.44-.28-.15-.56-.3-.9-.49-.35.28-.7.55-1.01.8.07.6,1.03.37.81,1.14.28.04.54.09.81.13-.04.1-.04.19-.09.23-.29.23-.59.43-.88.66q-.83.65-1.9.43c-.15.14-.35.28-.5.47-.14.18-.08.41.1.53.26.17.55.29.93.48-.35.25-.62.42-.87.62-.38.3-.51.92-1.17.85-.07,0-.17.24-.24.38-.06.14-.1.29-.14.4Z"/>
    <path d="M81.82,125.15c-.25.07-.47.14-.69.2-.95-.66-1.3-1.77-2-2.61-.14.09-.26.14-.32.23-1.1,1.49-2.68,2.24-4.38,2.74-1.18.35-2.42.28-3.62-.01-.65-.16-1.2-.5-1.66-.99-1.22-1.28-2.04-2.74-1.95-4.58.01-.28,0-.57,0-.86-.02-1.42.49-2.64,1.47-3.64.68-.69,1.45-1.3,2.2-1.93.65-.54,1.43-.94,1.98-1.65-.19-.68-.61-1.24-.96-1.83-.25-.42-.54-.82-.78-1.24-.83-1.47-1.11-3.06-.89-4.72.19-1.42.97-2.15,2.39-2.37,1.63-.25,2.63.24,3.44,1.68.36.65.56,1.34.62,2.09.1,1.19.05,2.36-.31,3.5-.19.59-.44,1.12-.87,1.59-.41.44-.85.88-1.1,1.53,1.39,2.18,2.79,4.37,4.2,6.56.05.09.18.13.36.25.27-1.59.53-3.11.8-4.62.06-.31.16-.62.31-.9.05-.09.29-.13.43-.11.09,0,.22.13.26.23.06.15.07.32.06.48-.03.41-.07.81-.14,1.21-.28,1.77-.55,3.54-.87,5.3-.08.44-.02.8.2,1.16.39.62.79,1.24,1.19,1.85.29.44.6.87.61,1.45ZM78.49,121.41c-.21-.38-.39-.74-.59-1.08-.83-1.44-1.67-2.88-2.5-4.32-.12-.21-.18-.45-.3-.67-.43-.82-.91-1.61-1.61-2.36-1.21,1.04-2.55,1.8-3.65,2.9-.17.17-.35.34-.51.52-.74.82-1.12,1.78-1.14,2.88,0,.24.01.49,0,.73-.09,1.34.45,2.45,1.23,3.48.68.9,1.6,1.31,2.72,1.4,1.58.13,2.96-.39,4.28-1.15.9-.52,1.6-1.23,2.08-2.34ZM73.73,111.27c.56-.63,1.01-1.09,1.39-1.61.21-.28.36-.65.41-1,.15-1.08.24-2.17.08-3.27-.09-.58-.27-1.11-.6-1.57-.68-.95-1.12-1.08-2.3-.91-.24.04-.46.15-.68.25-.39.18-.63.48-.72.91-.3,1.45-.1,2.84.57,4.13.52,1,1.17,1.94,1.86,3.06Z"/>
    <path d="M123.44,96.29c-.25.18-.4.25-.51.36-1.51,1.47-3.78.88-5.11.06-.66-.41-1.01-1.08-1.2-1.79-.38-1.37-.75-2.75-.72-4.2.04-1.51-.02-3.02.02-4.53.02-.73.09-1.47.24-2.18.28-1.33,1.06-2.37,2.07-3.24.92-.8,2.02-.83,3.12-.5.58.17,1.12.49,1.67.74.21.1.43.19.72.32.03-.41.09-.72.08-1.04-.02-1.67-.06-3.34-.08-5.01,0-.53,0-1.06.03-1.59.01-.21.14-.42.38-.36.12.03.27.2.29.33.09.81.19,1.62.22,2.43.08,2.65.15,5.3.18,7.95.03,3.22.03,6.44,0,9.66,0,1.06-.13,2.11-.21,3.17-.01.16-.05.33-.14.46-.08.12-.25.25-.38.25-.13,0-.33-.13-.38-.25-.12-.29-.18-.61-.29-1.04ZM123.8,88.74h0c0-1.51,0-3.02,0-4.53,0-.92-.35-1.67-1.11-2.19-.64-.44-1.36-.74-2.13-.89-.65-.13-1.23.03-1.71.45-.88.77-1.56,1.68-1.76,2.86-.12.72-.18,1.46-.2,2.19-.03,1.1.03,2.2-.02,3.3-.07,1.45.26,2.83.56,4.23.3,1.38,1.19,2.04,2.51,2.31,1.25.26,2.14-.22,2.85-1.19.19-.26.29-.61.53-.82.45-.4.5-.89.5-1.43-.02-1.43,0-2.85,0-4.28Z"/>
    <path d="M87.54,110.46c.31-.25.53-.4.73-.59,1.16-1.05,2.55-1.19,4.01-1.04.57.06.95.45,1.27.88.52.69.85,1.48,1.05,2.32.36,1.53.39,3.08.26,4.62-.11,1.3-.33,2.59-.53,3.88-.17,1.11-.63,2.1-1.28,3.01-.53.76-1.25,1.28-2.07,1.68-.66.32-1.36.31-2.01,0-.6-.29-1.16-.68-1.8-1.07,0,.31.01.59,0,.86-.01.26-.11.48-.39.56-.23.07-.5-.14-.59-.5-.06-.27-.1-.56-.09-.84.05-2-.08-3.99.12-5.99.11-1.09.07-2.2.1-3.3.09-3.18.18-6.36.25-9.53.02-.81-.03-1.63-.04-2.45,0-.28.02-.57.04-.86.02-.25.05-.55.33-.58.31-.03.35.28.37.53.08,1.18.18,2.36.2,3.54.03,1.39-.02,2.77-.03,4.16,0,.19.05.38.11.7ZM87.29,116.54s-.02,0-.04,0c-.05.98-.12,1.95-.15,2.93-.03.81-.14,1.63.49,2.31.15.16.17.45.25.68.11.31.21.62.36.91.49.93,1.69,1.3,2.61.8.58-.31,1.07-.72,1.46-1.27.62-.89.98-1.87,1.14-2.93.13-.85.23-1.69.37-2.54.2-1.3.21-2.6.05-3.9-.09-.72-.25-1.45-.5-2.13-.52-1.4-1.05-1.71-2.5-1.54-1.32.15-2.27.78-2.7,2.12-.19.61-.2,1.3-.73,1.78-.1.09-.09.31-.09.47,0,.77,0,1.55,0,2.32Z"/>
    <path d="M109.03,123.82c-.29.17-.49.3-.7.41-.64.35-1.26.76-1.94,1.01-2.05.75-4.17-.74-4.78-2.18-.26-.62-.21-1.29-.13-1.93.06-.48.19-.96.33-1.42.23-.75.75-1.23,1.49-1.5,1.11-.4,2.2-.87,3.31-1.25.87-.3,1.57-.85,2.28-1.39.17-.13.31-.4.33-.61.08-1.02.05-2.04-.27-3.02-.05-.15-.11-.31-.18-.46-.64-1.38-1.6-1.84-3.06-1.45-.64.17-1.2.5-1.72.9-.43.34-.72.77-.85,1.3-.08.32-.14.64-.22.95-.05.21-.15.4-.39.4-.25,0-.35-.2-.37-.4-.12-1.02.11-1.95.84-2.7.66-.69,1.47-1.15,2.39-1.42.08-.02.16-.03.24-.05.71-.14,1.44-.41,2.14-.01.8.45,1.44,1.08,1.84,1.91.4.81.62,1.68.61,2.59-.03,1.71-.07,3.42-.08,5.13-.01,1.92,0,3.83-.01,5.75,0,.36-.06.73-.15,1.08-.03.11-.24.25-.37.25-.13,0-.33-.12-.38-.24-.09-.22-.11-.47-.14-.71-.04-.27-.05-.55-.09-.93ZM109.13,116.82c-.75.39-1.38.76-2.04,1.04-1.05.44-2.11.86-3.19,1.23-.7.24-1.1.67-1.25,1.36-.07.32-.14.64-.2.96-.16.99.21,1.76,1.01,2.33.96.69,1.96.96,3.09.37.65-.34,1.3-.68,1.79-1.25.24-.28.49-.54.79-.87v-5.16Z"/>
    <path d="M127.59,116.37c.59.98,1.19,1.95,1.77,2.92,1.17,1.96,2.33,3.92,3.5,5.88.14.23.17.47-.08.65-.23.16-.49.1-.67-.08-.2-.2-.36-.44-.5-.69-.89-1.51-1.77-3.02-2.66-4.53-.58-.98-1.2-1.94-1.74-2.94-.4-.73-.94-.94-1.79-.7-.02.39-.06.79-.06,1.19,0,2.16,0,4.32,0,6.48,0,.32-.01.65-.06.97-.04.26-.32.49-.52.4-.16-.07-.35-.24-.39-.4-.07-.27-.04-.56-.04-.85.02-5.01.05-10.02.04-15.03,0-1.42-.19-2.84-.23-4.27-.03-1.1.02-2.19.05-3.29,0-.11.07-.23.14-.33.04-.05.14-.09.21-.08.07,0,.18.06.2.11.07.19.15.38.15.58.1,3.87.59,7.72.44,11.59-.01.33,0,.65,0,.98.03.49.19.68.62.78.42.1.71,0,.94-.36.42-.65.77-1.35,1.22-1.97.91-1.25,1.85-2.47,2.8-3.7.17-.22.37-.45.61-.59.13-.08.39-.02.54.07.09.06.16.32.11.43-.14.28-.36.54-.54.8-1.24,1.71-2.69,3.27-3.68,5.16-.13.25-.25.5-.39.81Z"/>
    <path d="M128.4,90.68c-.12,1.09-.14,2.03-.02,2.95.18,1.51,1.31,3.32,3.67,3.15.97-.07,1.71-.53,2.26-1.27.39-.51.66-1.12.97-1.69.12-.21.17-.46.28-.68.1-.21.31-.32.5-.23.15.08.26.28.34.45.05.1.02.25-.02.36-.52,1.55-1.29,2.91-2.81,3.68-1.65.85-3.93.33-5.09-1.11-.81-1-1.14-2.13-1.17-3.39-.03-1.71,0-3.42.15-5.12.07-.89.14-1.78.24-2.67.11-.98.44-1.9.83-2.8.49-1.11,1.35-1.69,2.55-1.79,1.1-.09,2.11.1,2.97.84.28.24.56.47.85.69,1.26,1,1.21,2.62.7,3.77-.61,1.38-1.54,2.37-2.94,2.94-.68.28-1.35.57-2.02.87-.74.33-1.47.68-2.25,1.03ZM128.56,89.44c1.45-.64,2.83-1.22,4.19-1.84,1.16-.53,1.75-1.55,2.09-2.72.22-.75.07-1.46-.56-1.99-.41-.34-.8-.71-1.24-.98-1.48-.91-3.13-.33-3.77,1.28-.1.26-.19.54-.28.81-.53,1.69-.49,3.44-.54,5.19,0,.04.03.07.11.25Z"/>
    <path d="M78.06,96.54c-1.8.84-2.24.91-4.12.82-1.07-.06-1.84-.55-2.41-1.43-.86-1.32-.89-2.77-.62-4.24.15-.8.68-1.39,1.42-1.74.88-.41,1.77-.85,2.69-1.14,1.06-.34,2-.88,2.95-1.52.13-.96.11-1.93-.02-2.9-.08-.58-.34-1.09-.73-1.53-.58-.66-1.3-.97-2.19-.72-.43.12-.85.29-1.25.47-.58.26-1,.67-1.26,1.27-.17.41-.38.81-.62,1.19-.06.1-.3.16-.42.12-.12-.04-.21-.22-.3-.34-.02-.03-.02-.08,0-.12.28-.98.58-1.97,1.45-2.61.7-.51,1.47-.86,2.33-1.01,1.39-.24,2.47.26,3.27,1.4.61.86.83,1.86.85,2.89.05,3.66.06,7.33.08,10.99,0,.28-.02.57-.1.84-.03.12-.23.25-.36.26-.13.01-.33-.08-.4-.2-.12-.2-.16-.45-.26-.75ZM78.08,88.6c-.18.02-.28,0-.33.04-.81.56-1.72.9-2.64,1.23-.8.29-1.57.65-2.34,1.02-.47.22-.8.61-.88,1.11-.2,1.18-.18,2.35.52,3.4.38.58.9.93,1.62.93.49,0,.98-.01,1.46,0,.64.02,1.2-.2,1.69-.58.32-.24.63-.51.92-.75.14-1.16.13-5.39-.02-6.41Z"/>
    <path d="M94.07,90.77c-.17,1.09-.08,2.09.19,3.08.52,1.93,2.35,2.67,3.8,2.69.8.01,1.43-.31,1.76-1.07.26-.6.49-1.2.73-1.81.18-.44.44-.65.68-.53.32.16.3.46.26.74-.15,1.03-.61,1.94-1.22,2.77-.38.51-.94.77-1.57.86-2.04.3-4.8-.72-5.5-3.59-.26-1.08-.27-2.18-.22-3.28.04-.85.11-1.71.12-2.56.01-1.31.23-2.6.58-3.85.23-.83.63-1.59,1.16-2.28.56-.73,1.28-1.08,2.21-1.11,1.57-.05,2.87.58,3.97,1.61,1.08,1.01.94,2.29.54,3.53-.31.96-.96,1.7-1.88,2.16-1.38.69-2.67,1.55-4.19,1.95-.5.13-.94.45-1.4.69ZM94.13,89.4c2-.45,3.62-1.38,5.24-2.28.72-.4,1.17-1.05,1.32-1.82.28-1.42.06-1.95-.99-2.6-.51-.32-1.07-.58-1.65-.75-1.22-.36-2.02-.03-2.71,1.02-.13.2-.26.41-.35.64-.75,1.83-1.02,3.73-.86,5.8Z"/>
    <path d="M105.16,96.74c-.47-.39-.45-.84-.46-1.29-.02-2.57-.03-5.13-.07-7.7-.03-1.95-.1-3.9-.16-5.86,0-.24-.04-.5.02-.73.05-.17.23-.29.36-.44.14.12.35.23.4.38.11.33.14.69.22,1.14.34-.18.58-.3.82-.43,1.1-.6,2.27-.86,3.53-.76.83.07,1.47.42,1.94,1.11.42.61.75,1.27.85,2.01.13.93.24,1.86.27,2.79.06,2.44.06,4.89.1,7.33.01.65.1,1.3.13,1.95.01.28-.01.58-.11.84-.06.15-.28.28-.45.32-.1.02-.3-.15-.35-.28-.09-.22-.12-.47-.13-.71-.04-1.18-.05-2.36-.09-3.54-.07-2.48-.13-4.97-.22-7.45-.03-.86-.23-1.69-.69-2.44-.37-.61-.87-.9-1.6-.93-.98-.04-1.87.22-2.69.67-.94.51-1.35,1.42-1.34,2.45.02,2.08.13,4.15.18,6.23.03,1.43.03,2.85.03,4.28,0,.4-.02.82-.5,1.08Z"/>
    <path d="M113.86,118.27c0,.86-.03,1.71,0,2.57.05,1.18.39,2.25,1.28,3.08.09.08.17.18.27.25,1.22,1,3.69.76,4.65-.49.32-.41.55-.9.81-1.36.1-.18.16-.38.27-.54.06-.09.22-.18.3-.16.14.03.32.13.38.25.08.17.12.41.06.58-.55,1.7-1.93,3.43-4.15,3.35-.04,0-.08,0-.12,0-2.42.14-3.95-1.44-4.5-3.36-.19-.66-.27-1.36-.29-2.05-.05-1.22.02-2.45-.02-3.67-.05-1.58.32-3.07.87-4.53.3-.8.65-1.58,1.13-2.3.62-.91,1.42-1.25,2.51-1.15,1.16.11,2.09.64,2.95,1.35.18.15.35.37.42.59.27.9.5,1.8.74,2.71.02.07,0,.17-.03.24-.06.1-.15.24-.24.25-.14,0-.35-.04-.41-.14-.16-.28-.26-.59-.37-.9-.08-.23-.14-.47-.22-.7-.17-.54-.28-1.11-.79-1.47-.71-.51-1.47-.87-2.36-.93-.48-.03-.88.14-1.18.52-.13.16-.26.32-.36.5-.93,1.66-1.57,3.4-1.61,5.32-.02.73,0,1.47,0,2.2h0Z"/>
    <path d="M86.52,95.68c.1-.39.23-.77.29-1.17.25-1.67.73-3.26,1.45-4.78.94-2.01,1.4-4.17,1.99-6.28.15-.55.3-1.1.48-1.64.07-.23.19-.46.34-.64.12-.15.34-.28.53-.12.11.09.19.25.23.39.03.11-.03.24-.06.35-.5,1.81-.99,3.62-1.52,5.41-.22.74-.49,1.47-.79,2.18-.75,1.77-1.4,3.56-1.71,5.47-.11.68-.37,1.33-.57,1.99-.06.19-.15.38-.25.56-.14.25-.31.55-.64.46-.2-.05-.4-.26-.51-.45-.17-.27-.29-.59-.38-.9-.35-1.17-.73-2.34-1.02-3.52-.91-3.68-1.78-7.37-2.66-11.05-.06-.23-.07-.48-.06-.72,0-.09.12-.22.21-.25.09-.03.28,0,.33.06.16.23.33.47.41.73.23.7.44,1.4.61,2.11.65,2.65,1.28,5.31,1.94,7.96.26,1.07.55,2.13.85,3.19.06.23.18.44.27.65.08,0,.16,0,.24,0Z"/>
    <path d="M68.19,84.1c0,3.14,0,6.28,0,9.42,0,.77.1,1.54.12,2.32,0,.27-.08.55-.17.82-.03.09-.19.2-.28.19-.14-.01-.34-.09-.4-.2-.1-.21-.16-.46-.17-.69-.04-1.1-.07-2.2-.09-3.3-.05-3.01-.11-6.03-.13-9.04-.02-2.41.01-4.81.04-7.22.01-.81.08-1.63.14-2.44.01-.15.1-.3.18-.44.1-.17.43-.18.51,0,.1.21.19.45.19.68,0,.77-.04,1.55-.05,2.32,0,2.53,0,5.06,0,7.58.03,0,.06,0,.09,0Z"/>
    <path class="cls-6" d="M155.49,98.07c-.37-.2-.45-.77-1.01-.63-.07.02-.28-.2-.3-.33-.12-.73-.7-1.05-1.22-1.43-.27-.2-.54-.23-.91-.13-.82.21-1.35-.26-1.3-1.09.03-.4.03-.82.35-1.15.23.04.46.08.68.12.2-.21-.18-.67.35-.74.06,0,.08-.34.14-.6.21.06.43.12.64.18.07-.02.17-.03.21-.08.17-.22.28-.54.63-.5.4.04.8.12,1.05.5.15.23.42.43.46.67.11.6.87.57.99,1.13.27.04.54.08.81.12.36.64.1,1.32.1,1.99.16.22.33.45.55.75-.34.04-.6.08-.9.12-.04.08-.12.18-.14.29-.09.74-.09.74-.75.79-.16.01-.32.02-.44.02Z"/>
    <path d="M99.16,106.28c0,.65.02,1.3,0,1.96-.04.97-.11,1.95-.16,2.92-.09,1.5-.19,3.01-.25,4.51-.06,1.34-.11,2.69-.11,4.03,0,1.42.07,2.85.1,4.27,0,.28,0,.57-.02.85-.03.39-.22.59-.5.57-.31-.03-.38-.25-.43-.51-.01-.08-.02-.16-.02-.24-.05-2.4-.21-4.81-.11-7.2.1-2.31.03-4.64.42-6.94.08-.48.06-.97.07-1.46.02-1.87.04-3.75.06-5.62,0-.37.01-.73.04-1.1.04-.44.2-.66.44-.61.37.08.36.39.39.67.03.28.03.57.03.85,0,1.02,0,2.04,0,3.06.02,0,.03,0,.05,0Z"/>
    <path d="M139.68,82.67c.54-.34.93-.63,1.36-.85.36-.18.76-.3,1.15-.42.63-.18,1.28-.22,1.93-.07.21.05.41.18.35.41-.04.17-.2.37-.35.43-.21.09-.48.07-.72.09-.28.03-.57.01-.85.08-1.75.41-2.63,1.42-2.88,3.32-.02.16-.04.32-.04.49,0,1.67-.02,3.34-.02,5.01,0,1.67,0,3.34,0,5.02,0,.2,0,.43-.07.6-.08.16-.26.35-.41.36-.14,0-.36-.19-.41-.34-.08-.26-.08-.56-.08-.84,0-.82.02-1.63,0-2.45-.03-1.02-.1-2.03-.13-3.05-.02-.53.02-1.06.02-1.59.03-2.16.05-4.32.08-6.47,0-.08-.05-.15-.1-.3-.3-.1-.66-.17-.98-.33-.14-.07-.26-.3-.29-.47-.03-.22.17-.41.38-.39.52.05,1.05.12,1.56.25.15.04.32.27.37.44.09.31.09.64.14,1.07Z"/>
    <path class="cls-4" d="M155.34,93.34c.46-.49.83-.91,1.23-1.3.08-.07.34-.07.41,0,.08.08.1.32.04.41-.24.37-.52.71-.8,1.05-.15.18-.25.15-.87-.16Z"/>
    <path class="cls-5" d="M78.49,121.41c-.47,1.1-1.17,1.82-2.08,2.34-1.32.76-2.7,1.29-4.28,1.15-1.12-.09-2.04-.5-2.72-1.4-.78-1.03-1.32-2.14-1.23-3.48.02-.24,0-.49,0-.73.02-1.1.41-2.06,1.14-2.88.16-.18.34-.35.51-.52,1.09-1.1,2.44-1.86,3.65-2.9.7.75,1.18,1.54,1.61,2.36.11.21.18.46.3.67.83,1.44,1.67,2.88,2.5,4.32.2.35.39.71.59,1.08Z"/>
    <path class="cls-5" d="M73.73,111.27c-.69-1.12-1.34-2.05-1.86-3.06-.66-1.29-.87-2.68-.57-4.13.09-.44.33-.73.72-.91.22-.1.45-.21.68-.25,1.19-.18,1.62-.05,2.3.91.33.46.51.99.6,1.57.16,1.1.07,2.19-.08,3.27-.05.35-.2.71-.41,1-.38.52-.84.98-1.39,1.61Z"/>
    <path class="cls-5" d="M123.8,88.74c0,1.43-.01,2.85,0,4.28,0,.55-.05,1.03-.5,1.43-.23.21-.34.56-.53.82-.7.97-1.6,1.45-2.85,1.19-1.32-.27-2.21-.93-2.51-2.31-.3-1.4-.62-2.78-.56-4.23.05-1.1-.02-2.2.02-3.3.02-.73.08-1.47.2-2.19.2-1.18.88-2.09,1.76-2.86.48-.42,1.07-.58,1.71-.45.77.15,1.48.45,2.13.89.76.52,1.11,1.27,1.11,2.19,0,1.51,0,3.02,0,4.53h0Z"/>
    <path class="cls-5" d="M87.29,116.54c0-.77,0-1.55,0-2.32,0-.16,0-.38.09-.47.53-.48.54-1.18.73-1.78.43-1.34,1.38-1.97,2.7-2.12,1.46-.17,1.98.14,2.5,1.54.25.68.41,1.41.5,2.13.16,1.3.16,2.6-.05,3.9-.13.84-.24,1.69-.37,2.54-.16,1.06-.52,2.04-1.14,2.93-.38.55-.87.96-1.46,1.27-.93.5-2.12.13-2.61-.8-.15-.29-.24-.6-.36-.91-.09-.23-.1-.52-.25-.68-.63-.68-.52-1.5-.49-2.31.04-.98.1-1.95.15-2.93.01,0,.02,0,.04,0Z"/>
    <path class="cls-5" d="M109.13,116.82v5.16c-.31.34-.56.6-.79.87-.49.57-1.14.91-1.79,1.25-1.12.59-2.13.33-3.09-.37-.79-.58-1.16-1.35-1.01-2.33.05-.32.13-.64.2-.96.15-.7.55-1.13,1.25-1.36,1.08-.36,2.14-.78,3.19-1.23.66-.28,1.29-.65,2.04-1.04Z"/>
    <path class="cls-5" d="M128.56,89.44c-.08-.18-.11-.22-.11-.25.05-1.74.02-3.49.54-5.19.08-.27.17-.54.28-.81.64-1.62,2.29-2.19,3.77-1.28.45.27.84.64,1.24.98.64.53.79,1.24.56,1.99-.34,1.16-.93,2.18-2.09,2.72-1.36.63-2.74,1.21-4.19,1.84Z"/>
    <path class="cls-5" d="M78.08,88.6c.15,1.01.16,5.25.02,6.41-.29.24-.59.5-.92.75-.5.38-1.05.6-1.69.58-.49-.01-.98,0-1.46,0-.72,0-1.23-.35-1.62-.93-.7-1.05-.73-2.22-.52-3.4.08-.5.41-.89.88-1.11.77-.36,1.54-.73,2.34-1.02.92-.33,1.83-.67,2.64-1.23.06-.04.15-.02.33-.04Z"/>
    <path class="cls-5" d="M94.13,89.4c-.16-2.06.11-3.96.86-5.8.09-.22.22-.43.35-.64.69-1.05,1.48-1.38,2.71-1.02.57.17,1.14.44,1.65.75,1.05.65,1.27,1.18.99,2.6-.15.77-.61,1.42-1.32,1.82-1.62.9-3.24,1.83-5.24,2.28Z"/>
  </g>
</svg>