<?xml version="1.0" encoding="UTF-8"?>
<svg id="Layer_1" data-name="Layer 1" xmlns="http://www.w3.org/2000/svg" xmlns:xlink="http://www.w3.org/1999/xlink" viewBox="0 0 180 200">
  <defs>
    <style>
      .cls-1 {
        fill: none;
      }

      .cls-2, .cls-3, .cls-4, .cls-5, .cls-6, .cls-7 {
        fill-rule: evenodd;
      }

      .cls-2, .cls-8 {
        fill: #fff;
      }

      .cls-3 {
        fill: #231f20;
      }

      .cls-4 {
        fill: #133369;
      }

      .cls-5 {
        fill: #1c7a81;
      }

      .cls-6 {
        fill: #214988;
      }

      .cls-9 {
        fill: #094737;
      }

      .cls-7 {
        fill: #00a14b;
      }

      .cls-10 {
        clip-path: url(#clippath);
      }

      .cls-8 {
        font-family: AmericanTypewriter-Bold, 'American Typewriter';
        font-size: 23.14px;
        font-weight: 700;
        letter-spacing: .02em;
      }
    </style>
    <clipPath id="clippath">
      <rect class="cls-1" x="-153.98" y="75.85" width="118.14" height="38.93"/>
    </clipPath>
  </defs>
  <g class="cls-10">
    <path class="cls-9" d="M161.11,75.87c0-.51-.53-.99-.53-1.51,0-.3-.06-.61-.08-.81-2.57.14-5.04.24-7.5.43-2.34.18-4.67.16-7-.09-.67-.07-1.34-.18-2.01-.2-3.42-.12-6.83-.28-10.25-.29-6.03-.02-12.05-.08-18.08.25-4.58.24-9.17.21-13.76.31-.94.02-1.88.11-2.83.17-1.88.13-3.76.33-5.65.39-3.28.1-6.56.1-9.85.16-2.56.05-5.13.07-7.69.21-2.39.13-4.76.11-7.15,0-1.88-.09-3.78-.02-5.66-.02-1.17,0-2.34.07-3.5.02-2.02-.09-4.04-.29-6.06-.38-2.92-.14-5.84-.28-8.76-.32-3.19-.04-6.39-.01-9.58.08-3.37.1-6.73.4-10.1.45-3.14.05-6.29-.1-9.44-.18-2.16-.05-4.32-.12-6.47-.21-3.23-.14-6.47-.34-9.7-.44-1.48-.05-2.99-.09-4.44.17-3.38.6-6.79.78-10.2.94-4.37.2-8.72-.24-13.07-.55-2.73-.19-5.47-.34-8.21-.47-.81-.04-1.62.07-2.43.05-4.45-.12-8.9-.27-13.35-.4-1.3-.04-2.61-.05-3.91-.08-4.58-.13-9.17-.33-13.75-.38-3.06-.04-6.11.16-9.17.19-5.76.05-11.51.06-17.27.08-.27,0-.54.02-.81.03-4.86.12-9.71.24-14.57.37-3.42.09-6.83.19-10.25.32-2.11.08-4.22.28-6.33.32-2.65.05-5.31,0-7.96-.03-1.03,0-2.07-.03-3.1-.04-1.75-.02-3.5-.05-5.26-.07-1.39-.02-2.79-.06-4.18-.03-1.93.04-3.86.13-5.79.21-1.03.04-2.07.08-3.1.15-.29.02-.58.14-.9.22,0,.45-.01.82,0,1.18.13,3.36.3,6.72.4,10.08.16,5.6.33,11.21.4,16.82.09,7.01.11,14.02.13,21.03.01,5.05-.03,10.09-.04,15.14,0,.5-.12,1.02.11,1.46.14.05.15,1.56.23,1.57,2.82.09,5.72-1.23,8.54-1.22,3.64,0,6.98,1.02,10.63,1,7.65-.05,15.59-1.2,23.24-1.24.47,0,.94-.04,1.55-.07-.92-1.94-1.14-3.78-.41-5.72-.42-.06-.76-.12-1.18-.18.11-1.14-.88-1.94-.75-3,.75-1.14,2.17-.71,3.03-1.65.03-.96.04-1.98.09-3.01.04-1.02.08-2.04.19-3.06.09-.84.35-1.11,1.08-1.2,1.15-.15,2.32-.28,3.48-.31,1.17-.04,2.34.1,3.51.08,1.52-.03,3.05-.14,4.57-.23.75-.05,1.5-.2,2.34.12-.06.38-.08.74-.16,1.09-.22.92-.19,1.85-.1,2.78.06.69.03,1.39.06,2.08,0,.25.07.5.13.92,1.55-.87,2.96-1.66,4.29-2.41.62-2.23,1.2-4.34,1.8-6.44.09-.31.22-.61.38-.89.59-1.05,1.42-1.68,2.64-1.56.44.04.88.1,1.33.16,1.44-1.6,2.79-.94,3.88.63.13-.32.43-.52.05-.86-.22-.19-.39-.44-.67-.77.78-.31,1.46-.5,1.93-1.09.09-.11.34-.1.52-.1.44,0,.88.03,1.32.04.19.55.24,1.03.77,1.31.49.26.42.8-.08.91-.6.13-.89.59-1.4.99.2.24.33.44.5.58.7.58.92,1.33.85,2.23-.03.44.04.88.06,1.36q1.52-.65,2.45-.55c.1.26.21.56.32.85.94.61,2.16.57,3.08,1.33-.37.63-.87.52-1.34.45-.62-.09-1.24-.18-1.85-.34-.97-.24-1.78-.15-2.6.59-.74.66-1.42.36-1.92-.59-.06-.12-.15-.23-.26-.39-.33.24-.65.47-.97.7.08.31.13.54.19.76.44,1.59.59,3.21.41,4.85-.08.75-.2,1.48-.81,2.02-.13.11-.27.32-.25.46.09.66-.36,1.01-.65,1.47-.44.71-.82,1.45-1.19,2.19-.11.22-.08.52-.11.79.44.33,1.18.29,1.08,1.14-.92.35-1.79.39-2.72-.26.19-.75.41-1.46.55-2.18.15-.75.67-1.44.44-2.32-.8.12-1.38,1.03-2.34.55-.12-.92.79-1.71.38-2.84-.74,1.1-1.37,2.12-2.09,3.06-.76.98-1.49,1.97-2,3.12.27.2.52.38.77.58-.31.69-.85.92-1.44.97-.49.05-.99.02-1.48-.02-.45-.04-.75.13-1.02.7,21.36-.06,42.57-.16,63.79-.32,21.23-.15,42.46-.24,63.69-.34,21.23-.11,42.46-.2,63.69-.31,21.21-.11,43.53-.24,64.82-.37.03-.58-.32-1.86-.32-2.32,0-2.99.09-5.99.12-8.98.04-3.46-.09-6.02-.06-9.48.03-2.48-.54-5.02-.64-7.49-.18-4.34.36-9.04.21-13.39-.11-3.22-.43-5.94-.17-9.16.33-4.09.67-8.36.68-12.47ZM-71.15,79.67c2.38-.19,4.32.59,5.74,2.61.58.82.74,1.79.65,2.94.31,2.81-1.31,4.69-3.46,6.16-1.34.92-2.85.7-4.25.06-.69-.31-1.34-.78-1.91-1.29-1.34-1.23-1.83-2.81-1.64-4.65.14-1.33.56-2.53,1.34-3.6.9-1.24,1.97-2.11,3.53-2.24ZM-89.96,81.85c.48-1.26,1.33-1.95,2.66-1.96.66,0,1.32,0,2.09,0,.15,1.06.47,1.93-.35,2.6-.16-.08-.28-.1-.3-.16-.34-.97-1.09-.98-1.88-.89-.68.09-1.01.56-.68,1.17.34.64.81,1.22,1.3,1.75.4.43.92.74,1.37,1.12,1.74,1.45,1.53,4.23-.37,5.46-1.2.77-2.48.73-3.77.61-.24-.02-.54-.34-.66-.59-.47-1.01-.27-1.96.36-3.07.21.38.37.58.43.81.17.64.61,1.02,1.13,1.32.94.55,1.93-.05,1.97-1.19.02-.66-.18-1.17-.7-1.57-.58-.44-1.14-.91-1.67-1.4-1.31-1.23-1.54-2.32-.9-4.01ZM-130.92,93.08c-.66.77-1.54,1.18-2.49,1.25-1.34.11-2.69.09-4.03.07-.43,0-.88-.17-1.29-.35-1.41-.6-2.82-1.21-3.83-2.27-1.22.07-2.2.19-3.18.18-3.43-.06-5.32-3.09-5.4-5.84-.05-1.57.35-3.04,1.3-4.32.96-1.29,2.14-2.13,3.79-1.96.85.09,1.71.12,2.53.34,1.31.35,2.27,1.16,2.91,2.47,1.13,2.31.9,4.49-.3,6.65-.13.24-.28.48-.41.7.19.67.71.96,1.24,1.23,1.35.67,2.81.91,4.26,1.22,1.58.34,3.11.24,4.64-.27.11-.04.26.02.38.03.26.35.09.63-.12.87ZM-133.22,91.89c-.58.03-1.17,0-1.75-.05-1.71-.14-2.88-1.01-3.27-2.79-.24-1.09-.42-2.2-.52-3.31-.08-.92.02-1.86.03-2.8,0-.6,0-1.19,0-1.81-.41-.1-.71-.18-1.03-.26-.19-.41-.12-.79.26-.94.45-.18.95-.33,1.42-.32.76.02,1.51.17,2.26.31.18.03.38.23.46.4.05.1-.09.42-.2.45-.6.21-.63.73-.68,1.24-.12,1.21-.26,2.41-.35,3.62-.08,1.03.01,2.05.43,3.02.42.98,1,1.34,2.15,1.3,1.15-.04,1.72-.4,2.01-1.48.23-.85.39-1.73.44-2.61.07-1.48.02-2.98.02-4.33-.38-.5-1.14-.38-1.02-1.23.97-.6,2.1-.51,3.2-.45.26.01.51.25.78.4-.98,1.26-.93,1.26-.97,2.95-.04,1.72-.14,3.45-.3,5.16-.05.58-.33,1.16-.56,1.71-.54,1.24-1.55,1.75-2.8,1.82ZM-112.96,112.26c-.16.03-.33.09-.5.09-1.35.01-2.69.02-4.04,0-.55,0-1.06-.11-1.31-.79.51-.59,1.23-.76,1.95-1.1-.11-.97-.24-1.93-.31-2.89-.07-.97-.07-1.94-.1-2.92-1.46-.05-2.79-.14-4.12-.13-.98,0-1.96.15-2.91.22-.26,1.15-.26,4.11-.04,5.08.14.61.34,1.15.88,1.52.16.11.25.34.43.6-.26.15-.44.32-.63.34-1.07.13-2.14.22-3.22.32-.18.02-.36.02-.54,0-.4-.06-.73-.42-.76-.86-.03-.44.18-.73.6-.78,1.01-.11,1.22-.86,1.22-1.7,0-1.68-.03-3.36-.12-5.04-.09-1.54-.26-3.07-.42-4.6-.05-.51-.17-1.01-.26-1.48-.38-.2-.8-.3-1.03-.58-.15-.18-.03-.61-.03-.98,1.21-.24,2.37-.08,3.52-.05.49.01.98.09,1.46.19.15.03.37.22.37.34,0,.2-.1.44-.23.6-.1.13-.32.16-.47.25-.44.24-.65.61-.65,1.13,0,1.3,0,2.6,0,3.95,1.11.41,2.2,0,3.24.24,1.02.25,2.04.14,3.13.11.34-.93.26-1.86.35-2.78.08-.87.13-1.74.2-2.65-.41-.1-.72-.13-1-.26-.18-.08-.42-.31-.42-.47,0-.24.13-.61.31-.7.39-.19.85-.35,1.28-.34.98.03,1.97.14,2.94.28.21.03.49.27.57.48.12.32-.02.64-.38.77-.17.06-.34.1-.61.19-.1,1.19-.24,2.38-.28,3.59-.08,2.42-.1,4.85-.15,7.28,0,.19,0,.37.01.56.07,1.03.21,1.2,1.26,1.45.9.22.97.35.84,1.52ZM-98.16,105.98c-.39,1.13-.45,2.38-1.17,3.4-.5.71-.98,1.44-1.45,2.18-.31.49-.83.61-1.28.67-1.37.19-2.72.39-4.13.2-3.12-.42-6.83-4.1-6.52-8.2-.15-4.04,2.71-7.02,5.51-7.91.5-.16,1.07-.28,1.58-.2,1.6.23,3.17.59,4.63,1.37,1.39.74,2.29,1.89,2.78,3.43.53,1.69.64,3.37.06,5.07ZM-97.7,91.36c-.17,0-.41-.05-.5.05-.56.58-1.18.32-1.78.17-.56-.14-1.11-.37-1.66-.58-.97-.37-1.7-1.01-2.12-2.02-.16-.38-.38-.74-.61-1.08-.26-.39-.59-.71-1.14-.7-.62.82-.34,1.74-.31,2.63q1.3.37,1.1,1.45c-.72.08-1.47.17-2.23.24-.67.06-1.35.06-2.02.16-1.77.24-3.19-.44-4.29-1.82-.63-.78-1.1-1.69-1.75-2.7-.25-.04-.68-.12-1.13-.2-.4,1.12.05,2.09.17,3.14.32.15.65.29.95.46.1.06.21.24.18.34-.03.16-.14.37-.27.42-.29.12-.61.2-.91.2-1.98.04-3.95.06-5.93.07-.25,0-.49-.14-.82-.24.32-1.16-.24-2.09-.55-3.09-.17-.54-.54-.74-1.03-.71-.53.04-1.06.14-1.64.22-.19.55-.37,1.08-.54,1.6-.16.46-.22.84.27,1.22.35.27.17.72-.25.81-.17.04-.35.05-.53.03-.67-.04-1.35-.08-2.01-.16-.28-.03-.55-.18-1.02-.34.35-.34.53-.66.77-.73.91-.27,1.22-1.01,1.51-1.82.86-2.4,1.73-4.8,2.62-7.19.2-.55.38-1.15,1.02-1.4.61.31.74.92.93,1.48.33.96.63,1.94.97,2.9.49,1.35,1,2.7,1.54,4.03.24.6.5,1.21.87,1.73.44.62,1.27.45,1.47-.28.16-.57.22-1.19.21-1.79-.02-1.73-.1-3.45-.14-5.18-.02-.77-.06-1.47-.85-1.9-.38-.21-.31-.75.1-.86.51-.15,1.05-.23,1.58-.23.8,0,1.61.12,2.41.16,1.03.05,1.91.47,2.67,1.18.43.4.64.88.65,1.48.01.76-.08,1.49-.42,2.17-.25.49-.5.99-.77,1.49.51,1.16,1.03,2.29,1.91,3.2.84.86,1.81,1.15,2.96.77.04-.25.11-.48.11-.71.02-2.43.04-4.85.05-7.28,0-.6-.08-1.12-.81-1.23-.09-.01-.23-.41-.18-.57.06-.16.32-.34.49-.34,1.21.01,2.42.1,3.63.09.8,0,1.49.24,2.19.57.8.37,1.13,1.02,1.2,1.87.07.86-.06,1.68-.52,2.42-.24.39-.5.77-.77,1.19.65,1.03,1.23,1.97,1.85,2.88.2.29.49.55.8.7.64.33,1.32.59,1.96.87.36-.15.69-.28,1.05-.43.03-.11.09-.24.09-.37.02-.98-.01-1.96.05-2.94.05-.74-.14-1.38-.49-1.99-.35-.6-.69-1.2-1.04-1.8-.49-.85-1.02-1.66-1.99-1.99-.28-.09-.44-.29-.44-.62.01-.4.26-.55.58-.66,1.16-.37,2.29-.2,3.38.09.19.66-.4.74-.58,1.12.33,1.23,1.29,2.08,1.92,3.23.88-.85,1.3-1.97,1.87-3.1-.09-.12-.22-.24-.28-.39-.18-.45-.06-.82.33-.85,1.02-.1,2.04-.16,3.11.3-.16.29-.23.57-.38.65-.73.37-1.14,1.04-1.58,1.69-.49.73-.9,1.51-1.41,2.22-.63.86-.85,1.83-.88,2.87-.02.79,0,1.58,0,2.47.57.27,1.46.1,1.7,1.02-.29.37-.68.46-1.08.45-1.21-.05-2.41-.12-3.62-.18ZM-83.7,98.25c-.03.38-.06.75-.08,1.12-.14,2.7-.27,5.4-.42,8.1-.03.6-.18,1.2-.26,1.8-.16,1.19-.85,1.95-1.87,2.36-1.91.77-3.87.69-5.81.17-1.03-.28-1.65-.96-1.97-2.07-.38-1.3-.68-2.6-.78-3.96-.14-2.05-.3-4.09-.47-6.13-.04-.5-.14-.99-.2-1.43-1.58-.49-1.6-.54-.91-1.83,1.28,0,2.62,0,3.96,0,.51,0,.98.12,1.18.7q-.5.52-1.48.8c-.33.47-.38,1.03-.36,1.59.08,2.33.14,4.66.28,6.99.06.98.33,1.92.8,2.8.31.58.72.95,1.4.87.84-.09,1.69-.18,2.53-.27.99-.11,1.46-.81,1.74-1.71.08-.26.15-.54.17-.82.19-2.6.37-5.2.53-7.81.03-.5-.08-1.01-.13-1.54-.53-.25-1.14-.17-1.08-.86.05-.54.51-.61.9-.68,1.2-.23,2.39-.22,3.56.29.09.97-.61,1.19-1.21,1.52ZM-82.17,91.18c-.04-.1.04-.3.13-.37.29-.21.6-.38.9-.56.19-.99.21-7.32.02-8.82-.55-.37-1.21-.36-1.77-.16-.5.18-.9.67-1.35,1.04q-.37-.98.02-2.32c.44-.28.97-.36,1.51-.36,2.38-.02,4.75-.03,7.13-.03.12,0,.25.09.42.16-.05.64-.1,1.28-.15,1.92-.03.36-.2.61-.56.69-.38.08-.59-.11-.72-.45-.07-.17-.15-.34-.25-.58h-2.03c-.29.71-.23,1.51-.26,2.28-.04,1.21-.02,2.42-.01,3.63q0,2.12,1.57,3.51c-.11.59-.36.92-.91.91-1.03-.02-2.06-.05-3.09-.08-.09,0-.2,0-.26-.04-.13-.11-.27-.23-.33-.38ZM-74.32,110.67c-1.6,1.91-3.7,2.38-5.99,2.13-1.13-.13-1.56-.7-1.63-1.86-.04-.74-.11-1.49.14-2.33.27.15.54.22.68.4.32.39.57.83.86,1.25.33.5.78.73,1.37.75,1.05.03,1.94-.32,2.64-1.14.47-.54.58-1.14.28-1.81-.42-.94-.94-1.8-1.69-2.5-.57-.53-1.13-1.07-1.67-1.63-1.3-1.32-1.89-2.91-1.7-4.81.13-1.32.71-2.28,1.91-2.81,1.4-.61,3.34-.51,4.86.38,0,.89,0,1.77,0,2.65,0,.17-.1.34-.16.56-1.38-.22-1.12-1.38-1.28-2.32-.89-.27-1.69-.1-2.4.48-.85.69-1.02,1.62-.48,2.61.58,1.08,1.38,1.96,2.33,2.69.88.67,1.63,1.46,2.23,2.41,1.02,1.61.91,3.46-.3,4.9ZM-63.92,112.14c-.18.06-.35.16-.52.17-2.55.08-5.11.15-7.66.21-.07,0-.14-.1-.23-.16-.23-.59.04-1.06.53-1.24,1.24-.46,1.35-1.4,1.23-2.56-.19-1.85-.31-3.72-.43-5.58-.07-1.07-.08-2.15-.13-3.22-.02-.5-.07-1-.11-1.51-.37-.09-.63-.15-.89-.21-.34-.08-.61-.24-.58-.64.03-.42.26-.67.68-.73.49-.06.98-.2,1.46-.2,2.2-.02,4.4,0,6.67,0-.02.39-.05.79-.07,1.18-.02.37-.03.75-.07,1.12-.04.35-.19.62-.56.69-.4.08-.72-.06-.9-.44-.15-.33-.26-.68-.42-1.09-.98.02-1.95-.28-2.98.3-.1,1.45-.15,2.92.02,4.44.72.33,1.39.28,2.09-.02.65-.27,1.27-.71,2.17-.58.01,1.15.04,2.31.03,3.46,0,.2-.19.39-.36.69-.29-.23-.58-.37-.74-.61-.32-.5-.52-1.15-1.16-1.28-.66-.14-1.34-.16-2.07.28-.05.34-.18.74-.16,1.14.06,1.3.13,2.61.26,3.9.08.81.37,1.05,1.16,1.03.71-.02,1.42-.16,2.03-.23.46-.56.82-1.04,1.23-1.47.13-.13.44-.19.6-.12.16.07.31.35.31.54,0,.93-.15,1.85-.46,2.75ZM-53.51,80.94c-.43.24-.53.6-.52,1.04,0,.37.03.75.03,1.12.01,1.07.04,2.15.03,3.22-.02,1.72-.07,3.43-.12,5.28-1.16-.45-1.73-1.43-2.51-2.14-.78-.71-1.56-1.41-2.32-2.13-.79-.75-1.55-1.53-2.4-2.37-.06.18-.17.37-.18.56-.04,1.07-.11,2.15-.07,3.21.05,1.28.11,1.31,1.03,2.17-.13.12-.24.3-.38.32-.8.09-1.61.14-2.42.19-.17.01-.37-.02-.52-.09-.15-.08-.33-.22-.36-.37-.03-.14.08-.37.2-.46.21-.16.47-.25.72-.39,0-1.55,0-3.08,0-4.62,0-1.54-.03-3.08-.03-4.62,0-.4.07-.81.1-1.16.56-.24.75.14.97.41,1.34,1.63,2.67,3.27,4,4.91.52.64,1.03,1.29,1.57,1.92.2.23.44.41.77.71.06-.31.13-.48.13-.64-.03-1.54-.05-3.08-.12-4.61-.05-1.06-.09-1.06-.78-1.76.02-.51.44-.56.76-.63.93-.2,1.85-.17,2.86.27-.18.28-.27.57-.46.67ZM-46.12,91.4c-.53.03-1.1.08-1.66.1-1.3.04-2.6.09-3.91.1-.42,0-.91.08-1.2-.52.1-.12.19-.31.33-.38.72-.34.89-.92.88-1.7-.04-1.96,0-3.92-.02-5.88,0-.65-.09-1.3-.13-1.94-.29-.15-.56-.24-.75-.41-.11-.09-.16-.35-.12-.5.04-.14.24-.34.37-.33,1.92.09,3.84-.31,5.74-.04.38,1.52.29,1.97-.54,2.47-.42-.89-.99-1.57-2.17-.98-.4.97-.48,2.03-.11,3.14,1,.47,1.81-.53,2.81-.31.15,1.06.24,2.07-.69,3.01-.21-.35-.36-.61-.57-.96-.52.1-1.08.21-1.65.31-.45,1.15.12,2.15.12,3.25,1.31.28,2.31-.39,3.33-.89q.36.59-.04,2.48ZM146.36,123.12c.1-.31.38-.51.74-.48.38.03.55.32.55.66,0,.31-.03.68-.2.9-.25.32-.64.49-1.25.11.05-.39.04-.81.16-1.19ZM69,123.52c.02.46-.39.89-.93.85-.09-.15-.3-.36-.3-.57-.01-.43.38-.8.74-.79.3,0,.48.2.5.51ZM-19.21,132.76c-1.77.62-3.58.57-5.23-.32-1.44-.77-2.16-2.19-2.38-3.85-.3-2.2.98-4.46,2.96-5.28.42-.17.84-.33,1.26-.48,1.05-.38,2.1-.41,3.15.05.36.16.75.22,1.14.33.25.67.18,1.31.04,1.94-.03.14-.22.32-.35.35-.13.02-.4-.11-.42-.22-.12-.57-.33-1.03-.91-1.25-.66-.24-1.32-.25-1.98-.04-.43.13-.85.29-1.27.46-2.25.9-3.08,3.31-1.92,5.49.57,1.07,1.45,1.64,2.59,1.74.71.06,1.43.01,2.15.01.57,0,.93-.28,1.08-.85.02-.09.02-.21.08-.26.18-.18.36-.46.57-.48.37-.05.52.29.58.63.14.82-.27,1.72-1.12,2.02ZM-13.66,132.89c-.28.09-.62.11-.91.04-1.29-.29-2.21-1.06-2.52-2.42-.34-1.48-.21-2.86,1.03-3.94.96-.84,2.06-1.1,3.26-.98.79.08,1.36.54,1.62,1.29.23.64.33,1.34.48,2.02-.11,1.75-1.34,3.48-2.97,3.99ZM.23,133.12c-.49.02-.99.04-1.48-.02-.23-.03-.44-.22-.78-.41.27-.22.42-.36.59-.48.14-.11.3-.19.42-.27.39-2.54.16-4.32-.74-5.45-.81.13-1.41.68-1.97,1.28-.17.18-.26.5-.27.76-.03.97-.01,1.95-.01,2.82.19.15.25.25.32.26.34.07.8.04.75.57-.04.44-.45.51-.8.61-1.05.32-1.05.32-1.94-.28q.49-.9.5-2.04c0-.65,0-1.31-.02-1.96,0-.32-.03-.66-.1-.97-.27-1.3-1.13-1.12-1.8-.62-.38.28-.61.69-.64,1.18-.05.93-.12,1.87-.1,2.8.01.42.24.84.38,1.26-.9.73-1.15.74-2.3.01.13-.13.24-.26.37-.36.11-.08.23-.13.38-.22.09-1.47.18-2.96.28-4.55-.26-.09-.51-.15-.73-.26-.19-.09-.34-.24-.48-.34.08-.53.39-.54.71-.58.8-.12,1.61-.18,2.37-.42,1.14-.37,1.93-.06,2.47,1.01.04.07.13.11.25.22.33-.27.67-.56,1.03-.83,1.3-.97,2.39-.66,2.97.9.19.51.27,1.08.34,1.63.07.55.07,1.12.08,1.68.01.56,0,1.12,0,1.66.07.08.12.17.19.2.34.14.76.25.7.71-.07.59-.58.48-.96.49ZM7.5,132.52c-.9.74-1.91,1.35-3.08,1.02-1.15-.33-2.12-1.01-2.41-2.37-.41-1.91-.11-3.62,1.3-5.01,1.42-1.4,2.93-1.13,3.81.68.12.25.21.51.3.72-.19.57-.61.7-1.07.8-1.05.23-2.09.5-3.14.76-.23,1.16-.18,2.11.81,2.79.48.33.97.47,1.52.2.45-.21.9-.42,1.36-.6.28-.11.53-.01.7.25.18.28.11.57-.11.75ZM15.8,132.53c-.12.18-.49.37-.65.31-.75-.29-1.46-.21-2.2,0-.25.07-.54.04-.8.01-1.19-.1-1.92-1.18-1.6-2.37.24-.91.82-1.54,1.66-1.88.37-.15.77-.21,1.3-.34-.03-.44-.01-.82-.08-1.17-.09-.53-.5-.76-1-.62-.6.17-.98.6-1.09,1.32-.26-.18-.44-.25-.45-.33-.06-1.53,1.46-2.59,2.75-1.93.53.27.83.7.87,1.3.05.7.09,1.39.12,2.09.02.42,0,.84,0,1.26,0,.73.1,1.39.88,1.7.28.11.46.4.28.66ZM22.69,132.29c-.43.51-1.01.37-1.71.09.87-1.55.56-3.13.14-4.69-.12-.46-.19-1.06-.89-1.04-.7.02-1.31.51-1.48,1.2-.01.05-.02.09-.02.14-.01,1.38-.48,2.76,0,4.15.1.29-.06.57-.36.65-.53.15-1.06.2-1.48-.35.77-1.87.61-3.74.87-5.61-.56-.1-1.02-.18-1.54-.27.11-.21.14-.4.22-.43.79-.23,1.51-.85,2.41-.39.13.07.33-.01.5-.05.26-.06.51-.17.78-.21,1.03-.17,1.56.09,1.91,1.08.29.83.53,1.69.62,2.56.11,1.01.02,2.04.02,3.18ZM31.81,132.26c-.35.46-.79.61-1.3.42-.17-.06-.32-.16-.48-.26-.15-.1-.29-.21-.46-.34-.33.13-.65.29-.99.38-1.48.39-2.92-.38-3.53-1.82-.43-1.02-.52-2.07-.2-3.14.38-1.27,1.32-2.01,2.61-2.01.58,0,1.15.11,1.84.18.08-.89.15-1.67.22-2.51-.33-.18-.63-.35-.96-.54.11-.14.17-.31.26-.34,1.38-.4,1.6-.22,1.55,1.23-.06,1.58-.13,3.17-.16,4.75-.02,1.02.08,2.04.4,3.11.31.02.61.02.9.07.43.07.57.47.3.83ZM39.7,128.29c-.86.24-1.74.44-2.6.66-.26.07-.5.18-.82.29.04.91.16,1.7.93,2,.56.22,1.21.22,1.82.29.12.02.25-.08.39-.1.33-.06.65-.06.76.35.1.36-.04.66-.34.83-.31.18-.65.36-.99.39-2.23.18-3.7-1.17-3.85-3.48-.06-.9,0-1.77.4-2.59.95-1.96,3.34-2.23,4.67-.52.11.14.22.3.29.47.26.66.01,1.22-.65,1.41ZM46.96,126.27c-.66.11-1.12.45-1.4,1.11-.2.46-.51.88-.8,1.35.46,1.36,1.08,2.63,2.11,3.79q-.79.58-1.79.4c.23-1.16-.66-1.92-.99-2.96-.74.45-1.07,1.17-1.54,1.73.09.35.16.65.23.95q-1.1.32-1.83-.38c.86-1.11,1.72-2.23,2.6-3.37-.59-1.18-1-2.36-2.36-2.81q.75-.61,2.05-.38c.16.7.27,1.49,1.01,2.03.41-.26.6-.72.85-1.12-.15-.27-.27-.49-.42-.76.59-.54,1.24-.21,1.83-.23.2,0,.42.21.62.33-.09.18-.12.32-.17.32ZM54.63,129.76c-.2,1.8-1.65,3.04-3.47,3.01-.35,0-.7-.08-1.18-.15v1.96c.22.2.45.4.68.62-.07.16-.1.34-.19.39-.74.44-1.49.41-2.33,0,.27-.43.58-.76.68-1.15.12-.43.04-.92.06-1.39.04-1.44.08-2.89.1-4.33,0-.6-.03-1.2-.06-1.84-.44-.13-.8-.24-1.17-.34.03-.15.03-.3.07-.31,1.46-.62,1.5-.62,2.06-.02.71-.2,1.37-.45,2.06-.57.72-.12,1.32.17,1.72.83.61,1,1.08,2.06.95,3.28ZM60.62,128.23c-1.02.34-2.06.62-3.09.92-.17.05-.34.08-.63.14,0,.43-.05.76,0,1.07.11.61.46,1.03,1.09,1.04.84,0,1.65.45,2.51.1.11-.04.39.11.42.22.05.19.04.54-.08.62-.32.22-.71.5-1.06.48-.89-.05-1.79-.16-2.64-.4-.81-.22-1.23-.95-1.31-1.78-.08-.87-.12-1.78,0-2.64.18-1.21,1-1.97,2.1-2.31,1.09-.33,2.02.08,2.82.87.13.13.23.29.31.45.26.55.11,1.03-.46,1.23ZM66.16,126.81c-.74,0-1.3.31-1.75.88-.46.58-.51,1.27-.51,1.98,0,.05,0,.09,0,.14q-.01,1.37.8,2.42c-.15.14-.28.36-.46.43-.24.08-.55.12-.78.04-.4-.14-.93-.05-1.15-.57q.51-.82.52-1.88c0-1.11,0-2.23,0-3.4-.44-.15-1.01.22-1.07-.43-.04-.46.42-.55.75-.66.63-.2,1.3-.56,1.79.34.37-.15.73-.34,1.11-.43.29-.06.64-.05.89.08.18.09.31.43.32.67,0,.13-.29.39-.45.39ZM69.92,132.44c-.8.22-1.62.22-2.43.18-.14-.66.46-.7.65-1.11.04-1.47.08-3,.13-4.55-.27-.23-.53-.45-.81-.69.11-.16.17-.35.25-.37.43-.06.87-.07,1.22-.09.52.51.35,1.06.36,1.55.02,1.35,0,2.7,0,4.09.33.27.59.48.83.68-.11.17-.14.3-.2.32ZM75.99,128.26c-.43.1-.89.09-1.33.2-.65.15-1.29.36-2.11.59.14.54.19,1.03.39,1.42.42.83,1.08,1.36,2.05,1.3.31-.02.63-.1.94-.07.19.02.45.18.5.34.05.17-.04.5-.18.6-.28.2-.63.38-.96.43-1.37.19-2.92-.78-3.45-2.14-.38-.97-.49-1.99-.39-3.02.1-1.06,1.28-2.31,2.3-2.44.51-.07,1,.03,1.39.38.44.39.87.81,1.24,1.27.4.49.22,1-.39,1.14ZM81.22,132.37c.59-.41.7-1,.66-1.68-.05-.79.01-1.59-.02-2.38-.02-.5-.13-1.01-.19-1.43-.48-.36-.88-.5-1.33-.22-.48.3-.9.69-.93,1.3-.06,1.12-.07,2.24-.04,3.36,0,.27.26.54.39.8-1.03.84-1.06.84-2.09.24.44-.42.63-.94.65-1.55.04-1.4.13-2.79.2-4.2-.36-.18-.7-.34-1.1-.54.55-.67,1.22-.54,1.8-.46.35.05.62.12.99-.03,1.4-.56,2.53.11,2.77,1.64.12.78.08,1.58.1,2.38.03.95-.18,1.94.55,2.72-1.04.72-1.49.73-2.4.06ZM89.66,126.89c-.17,0-.34-.09-.5-.15-1.27-.46-1.95-.14-2.36,1.17-.34,1.1-.38,2.2.14,3.27.24.48.56.82,1.14.84.3.01.62.11.9.24.13.06.25.29.24.44,0,.15-.14.35-.28.43-.68.4-1.9.18-2.47-.54-.39-.49-.78-1.09-.9-1.69-.24-1.19-.26-2.42.21-3.58.16-.38.37-.75.64-1.05,1.23-1.37,2.4-1.27,3.66.38-.21.12-.32.24-.42.24ZM95.83,128.3c-.59.23-1.19.41-1.8.59-.56.17-1.12.32-1.77.51v1.18c.28.64,1.57,1.27,2.22,1.14.31-.06.61-.21.91-.2.18,0,.4.2.5.37.06.1-.02.38-.13.49-.19.19-.43.34-.67.45-1.7.76-3.92-.71-3.99-2.64-.06-1.45.2-2.75,1.23-3.85,1.01-1.08,3.23-.56,3.94,1.09.15.35-.03.72-.45.88ZM103.93,132.47c-.31.52-.81.7-1.39.62-1.12-.16-1.73-.74-1.89-2-.13-1.01-.14-2.04-.19-3.06-.01-.28-.03-.57.03-.83.12-.56-.25-.82-.62-1.1.42-.54.82-1.06,1.42-1.82.15.63.25,1.01.35,1.45.42.03.87.04,1.3.12.18.04.46.23.48.38.05.33-.24.46-.53.47-.44.02-.87,0-1.43,0,0,.52-.03.93,0,1.34.08.93.15,1.86.3,2.77.17.98.55,1.19,1.5.94.09-.02.18-.09.25-.07.16.04.42.08.46.18.07.19.06.47-.03.63ZM111.4,132.33c-.15.62-.7.46-1.12.46-.56,0-1.14.14-1.64-.13,0-.21-.03-.36,0-.38.62-.36.82-.89.75-1.61-.09-.88-.12-1.76-.19-2.65-.01-.18-.07-.37-.14-.54-.21-.52-.69-.86-1.14-.82-.62.06-1.12.5-1.18,1.12-.07.79-.09,1.58-.12,2.37-.02.65,0,1.31-.02,1.96-.04,1.04-.34,1.17-1.38.64.45-1.58.17-3.21.34-4.81.16-1.57.14-3.15.19-4.77-.4-.14-.6-.2-.8-.27.04-.15.04-.28.09-.31.28-.14.56-.28.85-.38.11-.04.26.02.44.04.61,1.11.12,2.38.49,3.64.14-.03.3-.04.44-.09,1.47-.48,2.72.24,2.98,1.81.21,1.28.28,2.58.42,3.93.19.26.85.21.72.78ZM113.57,130.7c.21.8.54,1.03,1.36,1.07.54.03,1.08,0,1.62.01.27,0,.55-.03.8.05.19.06.4.24.47.42.12.3-.09.55-.34.67-.24.11-.51.19-.77.2-.63.02-1.26.03-1.88-.02-1.58-.12-2.69-1.51-2.52-3.16.06-.56.17-1.1.26-1.66.22-1.42,1.17-2.16,2.37-2.59,1.02-.36,2.47.44,2.9,1.51.15.36-.01.72-.45.86-.94.31-1.89.58-2.84.87-.3.09-.6.19-1.08.34.03.53,0,1,.1,1.43ZM131.25,133.06c-.69.06-1.4.27-2.05-.11,0-.16-.05-.3-.01-.33.5-.4.65-.9.6-1.55-.07-.93-.02-1.87-.04-2.8-.01-.45-.08-.91-.12-1.32-1.64-.37-2.65.55-2.48,2.13.04.37.13.75.09,1.11-.08.75-.03,1.45.39,2.01-.19.52-.54.62-.91.62-.61,0-1.27.16-1.93-.56.42-.19.69-.31,1.02-.46.35-1.36.19-2.73-.12-4.1-.23-.99-1.17-1.36-1.99-.8-.52.35-.82.83-.74,1.53.15,1.29.28,2.58.43,3.91-.72.63-.96.63-1.99-.04.11-.18.18-.42.33-.53.26-.18.35-.4.33-.7-.1-1.39-.2-2.79-.3-4.17-.27-.19-.51-.37-.79-.57.1-.16.14-.33.23-.36.25-.08.52-.12.78-.14.75-.06,1.49-.03,2.24-.23,1.03-.27,1.46,0,2.6,1.2.2-.22.37-.49.61-.65.3-.19.65-.3.98-.39.3-.09.62-.14.93-.16.78-.04,1.16.24,1.35,1.05.1.45.13.92.14,1.39.03.93.04,1.87.04,2.8,0,.56-.07,1.09.52,1.47.3.19.16.72-.16.75ZM137.93,132.39c-.09.22-.4.51-.56.48-.73-.14-1.39.11-2.08.19-1.15.13-1.98-.52-2.2-1.59-.22-1.1.33-2.16,1.37-2.57.29-.11.59-.19.87-.28q.04-1.15-.59-2.11c-.55,0-.91.22-.99.85-.04.33-.14.65-.58.64-.4-.3-.32-.71-.24-1.13.09-.49.37-.83.77-1.09.87-.55,1.77-.42,2.19.47.31.65.48,1.4.6,2.12.11.64.03,1.3.08,1.96.05.67.17,1.31,1,1.43.31.05.47.36.35.63ZM144.72,125.1c-.18.2-.45.29-.66.47-.19.18-.35.4-.54.63.19.26.36.48.51.71.53.82.47,1.69.06,2.52-.46.91-1.24,1.32-2.22,1.27-.36-.02-.71-.13-1.07-.12-.17,0-.33.19-.63.38.7.3,1.22.14,1.73.09.77-.08,1.42.19,1.95.74.62.65.82,1.44.53,2.32-.51,1.59-2.13,2.6-3.72,2.36-1.49-.23-2.39-2.04-1.69-3.44.12-.24.31-.44.47-.68-.54-.69-.5-1.4-.04-2.07.23-.33.27-.63.27-1.03,0-.6.08-1.21.2-1.8.33-1.68,1.19-2.28,2.96-2.09.27-.24.55-.54.89-.76.21-.14.5-.18.75-.22.1-.01.3.11.32.2.03.16.02.4-.07.51ZM147.89,131.98c-.1.46-.48.53-.85.5-.55-.05-1.18.23-1.68-.38.21-.32.5-.62.62-.97.13-.39.1-.83.14-1.25.08-.97.17-1.95.26-2.98-.27-.13-.53-.26-.77-.37.05-.41.18-.48,1.42-.88.09.29.25.57.26.86,0,1.02-.04,2.05-.06,3.07-.01.51,0,1.02,0,1.65.24.25.78.22.67.75ZM153.96,126.93c-.13-.01-.26-.05-.38-.1-.78-.34-1.48-.28-2.08.4-.67.76-1.09,1.62-.89,2.67.05.27.31.6.56.72.43.21.93.3,1.4.41.26.06.54,0,.79.08.14.04.34.24.34.37,0,.2-.1.5-.24.58-.35.18-.75.26-.93.31-1.06-.01-1.8-.33-2.45-.86-.54-.43-.75-1.03-.76-1.72-.02-1.73.71-3.06,2.1-3.98.72-.48,2.03-.36,2.67.19.1.09.17.21.23.34.13.26-.09.62-.35.6ZM157.17,132.17c-.35.31-.79.51-1.29.83-.16-.34-.39-.6-.34-.75.13-.38.35-.74.6-1.05.28-.34.68-.37.94-.14.3.27.39.83.09,1.1Z"/>
  </g>
  <polygon class="cls-7" points="33.12 79.49 10.17 113.07 11.32 114.52 55.1 113 39.37 84.12 34.69 78.65 33.12 79.49 33.12 79.49"/>
  <path class="cls-3" d="M31.28,83.84c-.83.36-.24-.83-1.07-.47-.39.13-.18.83-1,.58-.32,1.37-.64,2.72-1.93,3.22-.31,1.44.73,1.38,1.15,2.03-1.81,1.32-1.82,5.56-5.01,4.16.29.77,1.25.81,1.39,1.75-.69.35-1.2.49-1.53.59,1.11.9-.29.68-.72,1.34-1.11,1.72-1.71,4.44-3.66,4.87-.07,1.26-.53,2.17-1.71,2.43.66,1.35-.38.19-.74.82,1.67.32-1.07,1.14.09,1.82-1.85.39-1.4,2.87-2.68,3.78-.17-.45.24-1.55-.33-1.55,0,.41.08.9-.49.8-.27.86.85.15.57,1.01-1.08.27-.88,1.69-1.44,2.42,2.71-.6,7.11-.64,10.14-.51.04-.2-.02-.51.23-.54,10.08.92,18.12-.65,30.43-.98-.56-2.73-2.98-4.05-3.92-5.54-.31-2.31-2.5-2.54-2.59-5.08-1.17.17-1-.93-.86-1.52-1.04.02-1.97-1.66-1.14-2.03-.81.44-.87-.15-1.58-.44-1.88-5.68-6.37-9.68-8.52-14.17.01.26-.44.35-.52.02.32-.04.61-.11.5-.54-.73.25-.69-.33-1.32-.19-1.26,1.75-1.82,4.14-3.92,5.14.55.89-.19,1.26-.69,1.86-.32-1.03-.06-2.03.38-2.89.43-.02.18.71.56.75.06-1.12.95-3.24,1.71-2.17-.03-.36.09-.58.22-.79h0ZM46.47,95.85c1.54.22,1.13,2.58,2.74,2.73.04,1.68.91,2.47,1.97,3.03-.12,1.78.89,2.31,1.96,2.77.12.44-.18.5-.49.54.37.36,1.23.59.58,1.28.2-.15.41-.3.76-.3.12.52-.01.82-.48.81.52.66,2.01,2.08,1.17,2.55.27.44.84.53,1.58.44.15,2.13,1.31,3.12,1.31,5.41-.25-.15-.98-.56-.76.3-.47-.49-1.81-.01-1.87-.95-.57,1.02-1.78-.68-3.09.68-.79.13-.58-.82-.85-1.26-.74.26.37.64.07,1.3-.2-.17-.88-1.05-.78.04-3.63-.25-9.02-.27-12.24.08-.01-.26-.03-.51-.04-.78-1.17.69-2.55.83-3.64.18-.7,1.02-5.54,1.05-7.02.35-2.86,1.64-9.21.1-10.59,1.82-2.24-1.26-6.1.17-8.9-.86-.26-.82.17-1,.46-1.33-1.05-.04-.44-.19-.61-1.79,1.21-.39,1.71-1.43,1.68-2.95,1.21.19.52-1.34,1.77-1.13-.23-.79-.21-.49-.07-1.3,1.77.2.7-2.18,2.23-2.19-.18-.26-.61-.24-.56-.76,1.05.29.49-.88,1.53-.59-.02-.43-.04-.87-.06-1.3.22-.21.58-.31,1.02-.31,1.53-3.92,4.38-6.63,6-10.46.9-.02,1.18-.58.96-1.61.76.03.76-.62,1.53-.6.63-3.48,3.95-4.54,4.55-8.05,2.85-.64,2.17-4.48,4.95-5.19-.18-.26-.61-.24-.56-.75.86-.06,1.27-.51,2.33-.38,1.16.82-.3,1.34,1.36,1.23-1.07,1.17.34,4.61,1.51,4.09.38.07.07,1.97,1.39,1.76-.14.8.32.93.35,1.54,3.34,2.79,3.98,8.57,7.33,11.36.12.44-.18.5-.5.55h0Z"/>
  <g>
    <path class="cls-5" d="M110.61,122.55c-.01.19.12.26.28.3-.12-.28-.12-.18-.01-.47-.26-.09,0,.26-.27.17h0ZM106.23,123.01c.25.11.37-.03.7,0-.05-.43.55-.32.61-.66-.08-.31-.31-.48-.64-.58.05-.4-.43-.33-.36-.76-.19.05-.18-.08-.35-.06-.18.65.25,1.54.04,2.06h0ZM106.16,118.71c.23.07.05-.19.28-.12.63.16,1.29.31,1.96.44.25.25.38.59.91.58.26.51.73.84,1.2,1.16.05.22.04.48.35.47.14.35-.03.98.23,1.23-.07.26-.24.43-.2.77-.25.08-.25,0-.48.07.11.11.12.29.21.41-.37.33-.6.79-1.17.96.03.34-.57.15-.48.54-.23.04-.35-.02-.42-.11-.13.21-.46.24-.62.42-.23.07-.06-.19-.28-.12-.07.04-.07.14-.21.12.24.73.74,1.23,1.28,1.69.29.73.92,1.15,1.28,1.81.05.08.15.11.28.11-.05.22.09.28.07.47.71.36.67,1.36,1.56,1.57.04.4.62.34.71.7.07-.04.07-.14.21-.12.15.2.32.39.36.7-.29.07-.3-.09-.49-.11-.03.19-.31.16-.41.3-.42-.38-1.25-.39-1.55-.87-.07.04-.07.14-.21.12,0-.08,0-.15,0-.23-.21-.04-.13-.04-.35,0-.74-.69-1.6-1.28-2.19-2.09-.34-.06-.6-.2-.63-.52,0-.17-.46.08-.36-.17-.2.16-.53.66-.19.89-.08.99-.24,1.8-.17,2.77-.26.11-.56.2-.83.31-.19-.28-.52-.43-.85-.58-.16.1-.02.45-.06.64-.37.18-.44.33-1.04.25-.46-.38-1.19-.52-1.27-1.22-.07-.19.15-.64-.15-.64.02-.08.18-.05.28-.06-.09-1.02-.12-2.15-.06-3.59.11-2.87.24-5.34.15-8.25,0-.07-.13-.05-.21-.05-.14-.58.4-.6.68-.83,1.11.38,1.89-.47,2.86.2h0Z"/>
    <path class="cls-5" d="M139.97,121.52c-.46.05-.59-.17-1-.16-.6.49-1.15,1.02-1.37,1.82-.12-.01-.14.07-.27.06-.31,1.52-.74,3.26-.25,4.96.59.43.93.87,1.62,1.11.16-.16.36-.3.45-.51.14,0,.27,0,.4,0,.08-.38.7-.31.99-.52.37-.8.21-2.01.49-2.88-.24-.13-.18-.76-.01-.9-.37-1.01-.1-2.38-1.05-2.97h0ZM140.06,119.09c.59.21.97.6,1.55.83,0,.13.12.17.07.33.02.08.17.05.27.06.24.65.84.99.89,1.79.15.08.15.28.47.22.05.22.02.51.21.61.08.18-.1.14-.13.23.3.27.2.89.48,1.18.1,1.35.44,2.78-.41,3.66.02.34-.02.62-.32.68.22.11-.11.52-.06.84-.14.03-.09-.11-.2-.11-.18.07-.12.35-.12.57-.57-.08-.47.39-.92.4.15.49-.37.44-.39.79-.24.09-.04-.19-.2-.16-.28.41-.62.78-1.18.97-.14,0-.14.15-.13.28-.96.1-1.77.52-2.46.08-.07.04-.07.14-.2.12-.21-.15-.23-.48-.67-.44-.02-.32-.32-.41-.54-.55-.28-.5-.54-1.02-.95-1.4-.11-.84-.67-1.29-.63-2.25-.02-.06-.13-.03-.14-.11,0-.29.02-.59-.14-.73.33-.02-.13-.03,0-.22.14-.12.23-.64-.02-.74.4-.55.16-1.2.31-1.81.2-.81.81-1.56.83-2.43.31-.06.3-.39.32-.68.09,0,.18,0,.27,0-.02-.18.11-.24.06-.45.8-.55,1.24-1.97,2.7-1.61.21.06.05-.18.26-.11.15.21.83-.03.87.27.22.06.05-.18.26-.12h0Z"/>
    <path class="cls-5" d="M116.32,119.07c.09.26.65.11.7.4.46-.08,1.85-.05,2.1.45,1.07-.07,1.79.15,1.97.86-.42-.05-.63.07-.7.3-.18-.24-1.18-.48-1.25.02-.16-.04-.29-.1-.28-.29-1.36.11-.88,1.72-1.56,2.38.08.78-.33,1.16-.18,2,1.37-.03,2.85.66,3.34-.33.27,0,.51,0,.69-.07-.32.7.16,1.09.37,1.65-.46.07-.83.3-1.19.01-.29.38-.81.13-1.03.37-.4-.22-.83-.16-1.26-.05-.01-.29-.74.05-.77-.23-.23-.07-.05.19-.28.13-.02,1.29-.03,3.01,0,3.89.12-.49,1.32-.1,1.45-.6,1.1-.05,2.57-.31,2.65.79-.36-.21-.6.04-.9.19-.19.01-.2-.14-.21-.29-.15-.04-.24.3-.28,0-.05.15-.34.1-.34.3-.08,0-.06-.1-.07-.17-.21,0-.29.11-.34.24.06.15.45,0,.42.23.19-.04.24-.19.48-.18.79.36,2.33-.42,2.44.79-.24.1-.04-.2-.21-.17-.09.35-.54.4-.61.77-.14-.02-.18-.11-.28-.17-.18.27-.96.22-1.18.01-.18.16-.91.29-.97.01-.14.07-.18.2-.27.3-.47-.2-1.29.06-1.75-.1-.19.03-.26.17-.34.3-.47.05-.74-.07-1.18-.04-.14-.21-.33-.39-.56-.53,0-2.82-.74-5.3-.48-7.94.17-1.63.14-3.28.13-5.08.41-.61,1.32.05,1.74-.14h0Z"/>
    <path class="cls-5" d="M132.01,120.36c-.47.21-1.35.09-1.73.37-.24.56-.59,1.03-1.16,1.31,0,.63-.42.89-.53,1.42.33.27.06,1.06.78,1,0,.08,0,.16,0,.23,1.6.48,2.76,1.35,3.32,2.73.06,1.31-.11,2.43-1,2.96.01.78-.78.91-1.16,1.37-.32-.03-.52.04-.56.24-1.68.14-3.03,1.25-4.72.82-.11.02-.06.19-.28.12-1.08-.02-1.57-1.16-.16-1.18.15-.56.89-.62,1.52-.78.09-.02.06-.15.06-.23,1.52-.15,2.23-.96,2.47-2.15.23.07.05-.19.28-.12.12-.47-.1-.69-.29-.94-.18-.23-.3-.63-.43-.76-.19-.19-.27-.3-.5-.59-.29-.38-.75-.77-.92-1.41-.17-.04-.38-.07-.63-.05.04-.25-.26-.21-.42-.29,0-.27-.17-.41-.49-.41-.1-.23-.19-.47-.36-.64.15-.92-.55-1.58-.38-2.35.18-.86.94-1.38,1.99-1.67.05-.1.22-.09.21-.24.42.04.58-.14.76-.31.29.18,1.03-.26,1.46.1.23.07.05-.19.28-.12,1.11.31,2.3.55,2.6,1.56h0Z"/>
    <path class="cls-2" d="M139.2,75.78c.2-.05.26.2.15.26-.18.01-.07-.2-.15-.26h0Z"/>
    <path class="cls-5" d="M128.71,125.23c.31.15.66.27.64.72-.42-.04-.46-.45-.64-.72h0Z"/>
    <path class="cls-4" d="M161.47,88.92c-.15.04-.22.17-.37.24-.04.02-.14-.02-.18,0-.49.24-.73.83-1,1.26.02.3.37.36.46.62.54.05,1.21-.03,1.78.1.22-.08.3-.25.59-.27-.01-.08,0-.13.05-.17.45-.04.53-.38.91-.48.03-.15,0-.42,0-.41.04-.22.19-.42.09-.58-.11-.17-.43-.11-.59-.34-.28.02-.51,0-.68-.07-.27.15-.8.03-1.05.1h0ZM162.88,82.76c.1.02.07-.06.14-.07.4.07.65.24,1,.34.5.75,1.38,1.22,1.73,2.09.14.48.24,1.11.37,1.71.03.08-.09.05-.09.1.14.06.05.59.09.68-.24.96.06,2.27-.23,3.15-.14.46.19.8.32,1.13.16.39.18.84.59.92-.07.12.09.15.09.24,0,.28-.86.59-.91.27-.12.1-.24.21-.36.31-.21-.09-.39-.21-.78-.17-.25-.25-.34-.61-.64-.82-.44.14-1.19.04-1.41.34-1.02-.13-1.51.03-2.55-.03.06-.11-.15-.03-.09-.14-.21.02-.29-.06-.5-.03.05-.12-.22-.02-.14-.17-.23.05-.14-.12-.32-.1-.35-.63-.94-1.07-1.23-1.74-.02-.79.32-1.31.41-2.02.32-.25.64-.5.91-.78.27-.13.6-.21.73-.45.25-.04.53-.06.59-.24.7-.08,1.68-.21,2.33-.1.18-.35.09-1.06-.05-1.4-.02-.06.04-.06.09-.07-.17-.42-.31-.86-.82-1.02-.39.24-1.08.26-1.46.51-.12-.03-.19-.12-.28,0-.75-.35-1.11-.99-1.37-1.71.27-.13.55-.25.73-.45.27-.03.6,0,.69-.17.36.03.52-.09.68-.21.62.01,1,0,1.64,0,.03.04.1.04.09.1h0Z"/>
    <path class="cls-3" d="M78.84,79.89c.12.04.05.3-.11.24-.08-.18.15-.09.11-.24h0Z"/>
    <path class="cls-2" d="M102.68,90.95c.13-.01.25-.01.2.14-.1-.02-.22-.02-.2-.14h0Z"/>
    <path class="cls-4" d="M138.75,95.42c.86.23,1.39.73,1.62,1.47-.04.37.17.76-.18.92.12.56-.58.47-.69.84-1,.32-2,.1-2.86-.29.02-.16-.06-.25-.18-.29-.12-.77-.05-1.57.37-2.01h.19c0-.32.5-.24.6-.48.45-.04.97-.1,1.16-.15h0Z"/>
    <path class="cls-4" d="M135.52,101.25c-.32.05-.66.09-.74.33-.6.06-1.01.44-1.48.47-.31.48-1.09.58-1.11,1.28-.18-.06,0,.16-.18.11-.42,2.32-.2,5.14-.92,7.22-.13.07-.48-.04-.51.11-.66-.14-1.34.09-1.99-.29-.03-.16.07-.42-.09-.48.17-.78.2-2.07.14-2.79-.07-.49.04-1.11-.14-1.5-.14-1.08.08-2.01-.28-2.86-.31-.18-.63-.36-.79-.66.13-.63.86-.79,1.06-1.36.21-.11.44-.19.56-.37.21.02.35-.01.46-.08.52.14,1.04.28,1.29.63.2-.22.66-.23.74-.55.65-.18.93-.65,1.57-.85.06,0,.04-.09.05-.14.37-.03.61-.17.79-.37.46.05.49-.36.97-.18.15.11.11.38.32.44.08.55.16,1.1.37,1.54.05.17-.16.14-.09.33h0Z"/>
    <path class="cls-4" d="M157.12,83.93c-.32.05-.65.08-.73.31-.59.05-.99.41-1.46.44-.31.44-1.08.54-1.1,1.2-.17-.05,0,.15-.18.1-.41,2.17-.2,4.8-.91,6.74-.13.06-.47-.03-.5.1-.66-.13-1.32.08-1.96-.27-.03-.15.07-.4-.09-.45.17-.73.19-1.93.14-2.6-.06-.45.04-1.03-.14-1.4-.14-1.01.08-1.87-.27-2.67-.31-.17-.62-.33-.78-.61.12-.59.85-.73,1.05-1.26.2-.1.43-.18.55-.34.21.02.35,0,.46-.07.51.13,1.03.26,1.28.58.2-.21.65-.22.73-.51.64-.17.92-.61,1.55-.79.06,0,.04-.08.05-.14.37-.03.6-.16.78-.34.45.04.49-.33.95-.17.15.1.11.35.32.41.08.51.16,1.03.37,1.44.05.16-.16.13-.09.31h0Z"/>
    <path class="cls-2" d="M169.1,101.79c-.04.15.07.19.23.18v.25c-.33-.08-.64-.17-.73-.44.19-.04.32-.04.5,0h0Z"/>
    <path class="cls-4" d="M143.43,99.9s.05.09.04.16c.62.09.78.56,1.22.8.71-.07,1.52-.33,2.22-.6.14,0,.26,0,.29.07.33-.14,1.14-.13,1.68.03v.13c.09.02.27-.04.29.03.49.31.88.7,1.09,1.23.3-.01.13.68.38.9-.03.29.03.54.04.77.01.16.08.31.08.43,0,.26-.29.62,0,.9.04.87,0,1.23.08,1.93,0,.35-.03.74.13.96-.31.4.12,1.28-.09,1.7.1.54.15,1.27.17,1.76-.94-.18-1.6-.15-2.6-.23-.05-.06-.03-.18-.13-.2.09-1-.02-1.69.09-2.56-.14-.6-.21-1.33,0-1.83.05-.12-.09-.18-.09-.3.02-.26.24-.67-.08-.9-.09-.49.15-1.08,0-1.4.08-.29-.03-.94-.25-1.2-.14-.08-.33-.11-.33-.3-.2.09-.42-.04-.67.1-.11.22-.44.25-.72.33-.17.06-.12.22-.21.33-.04.06-.3.2-.38.33-.1.16-.1.4-.21.57-.04.07-.17.09-.21.17-.09.2-.07.44-.13.73-.13.7-.11,1.48-.21,2.26-.15,1.25-.12,2.57-.08,3.83-.4.15-.82.41-1.38.33-.27-.36-.88-.36-.84-.86,0-.08.13-.13.17-.23.15-.4-.09-1.09.13-1.36-.29-.3.19-.82-.08-1.1.27-.6-.15-1.14.17-1.53-.12-.03-.05-.21-.17-.23.19-.46-.19-.78.17-1.23-.18-.55.36-2.26-.21-2.63-.12-.08-.21-.15-.38-.2,0-.44-.42-.56-.67-.8.14-.33.63-.39.67-.8.43-.03.5-.34,1.01-.3h0Z"/>
    <path class="cls-4" d="M126.89,83.44s.05.08.04.15c.62.09.77.52,1.2.74.7-.07,1.5-.31,2.2-.56.14,0,.25,0,.29.06.32-.13,1.12-.12,1.66.03v.12c.09.02.27-.04.29.03.48.29.87.66,1.08,1.15.29-.01.13.63.37.84-.04.27.03.5.04.71.01.15.08.28.08.4,0,.24-.28.58,0,.84.04.81,0,1.15.08,1.8,0,.33-.03.69.13.9-.31.37.12,1.19-.08,1.58.1.5.15,1.19.17,1.65-.92-.17-1.58-.14-2.57-.22-.05-.06-.03-.16-.13-.19.09-.93-.02-1.57.09-2.39-.13-.56-.21-1.24,0-1.71.05-.12-.09-.17-.09-.28.02-.24.24-.62-.08-.84-.09-.46.14-1.01,0-1.31.08-.27-.03-.87-.25-1.12-.13-.08-.33-.11-.33-.28-.2.09-.41-.04-.66.09-.1.21-.44.23-.71.31-.17.05-.12.21-.21.31-.04.05-.29.19-.37.31-.1.15-.1.37-.21.53-.04.06-.17.08-.21.16-.09.18-.07.41-.12.68-.13.66-.11,1.38-.21,2.11-.15,1.16-.12,2.4-.08,3.57-.4.14-.81.39-1.37.31-.26-.33-.87-.33-.83-.81,0-.08.13-.12.17-.22.15-.37-.1-1.02.12-1.27-.29-.28.18-.76-.08-1.03.26-.56-.15-1.06.17-1.43-.12-.02-.05-.19-.17-.22.19-.43-.19-.73.17-1.15-.18-.51.36-2.11-.21-2.45-.12-.07-.21-.14-.37-.19,0-.41-.41-.52-.66-.75.14-.31.62-.36.66-.74.42-.02.49-.31.99-.28h0Z"/>
    <path class="cls-4" d="M138.73,100c.19.03.24.16.46.17.53,1.6.07,3.92.21,5.73-.08.23.05.22-.08.4.2,1.14.14,2.66.08,3.89-.17-.04-.15.06-.21.1-.38.05-.43-.17-.63-.27-.37,0-.79.03-.92-.17-.18.2-.7.07-.84-.07-.12-.16.12-.28.17-.43.02-.08-.08-.05-.08-.07,0-.03.08-.03.08-.07.03-.39-.08-.97-.08-1.36,0-.51.07-1.47-.08-2.13.15-.63.02-1.5.08-2.26.02-.29-.09-.47,0-.74-.18-.56-.05-1.35-.12-1.96-.05-.39-.11-.69.37-.83.14.1.21.04.38,0,.19.18.92.19,1.22.07h0Z"/>
    <path class="cls-4" d="M121.72,79.68c.86.22,1.38.68,1.6,1.37-.03.35.17.71-.18.86.12.52-.57.44-.68.78-.99.3-1.97.1-2.83-.27.01-.15-.06-.23-.18-.27-.12-.71-.05-1.47.36-1.88h.18c0-.3.49-.22.59-.45.44-.04.95-.1,1.14-.14h0Z"/>
    <path class="cls-4" d="M121.7,83.95c.18.02.24.15.45.15.52,1.49.06,3.66.21,5.34-.08.21.05.2-.08.37.2,1.06.14,2.48.08,3.63-.17-.04-.15.06-.21.09-.38.05-.42-.16-.62-.25-.36,0-.78.03-.91-.15-.18.19-.69.06-.83-.06-.12-.15.12-.26.16-.4.02-.07-.08-.04-.08-.06,0-.03.08-.02.08-.06.03-.36-.08-.91-.08-1.27,0-.47.07-1.37-.08-1.99.15-.59.02-1.4.08-2.11.02-.27-.09-.44,0-.68-.18-.52-.05-1.26-.12-1.83-.05-.37-.1-.64.37-.78.14.1.21.04.37,0,.19.16.91.17,1.2.06h0Z"/>
    <path class="cls-3" d="M83.57,108.85c.2-.04.07.23.11.34-.13-.02-.11.09-.26.05-.03-.2.12-.24.16-.39h0Z"/>
    <path class="cls-4" d="M171.87,85.94c.11,1.16.28,2.11.45,3.28.03.13-.19.06-.23.14.16.95.51,2.19.23,3.14-.28-.1-.33.09-.68.1-.18.02-.04-.2-.23-.17-.27.08-.56.15-.73.31-.34,0-.22-.06-.5,0-.05-.08-.13-.13-.23-.17-.05-.96-.1-1.53-.14-2.43-.11-.89-.24-1.59-.27-2.7-.27-1.12-.52-1.83-.46-3.18.06-.11-.15-.03-.09-.14-.14-.92-.07-2-.46-2.73-.23-1.1-.26-2.11-.46-3.11-.03-.26.08-.63-.09-.79-.02-.62-.04-1.12-.14-1.78,0-.02-.09-.13-.09-.14,0-.07.15-.13.18-.24.12-.39-.13-.96.14-1.16,1-.15,1.62-.08,2.55-.17.05.07.06.16.18.17.04.91.11,1.63.05,2.33-.02.28.13.54.18.96.06.45-.04,1.05.14,1.37.02.22-.06.5.09.61.04.47-.03,1.03.14,1.4.05,1.08.1,1.97.23,2.94-.11.76.22,1.53.14,2.05.4.01.38-.29.55-.45.02.17-.17.49-.45.55h0Z"/>
    <path class="cls-5" d="M172.22,120.89c.06-.19-.09-.18-.27-.17-.01.15.14.14.27.17h0ZM171.63,121.18c0-.11,0-.23,0-.34-.14.01-.02.24-.06.34-.23,0-.35-.12-.34-.34-.24-.08-.04.19-.19.18-.57-.3-1.22.14-2,.02v-.17c-.65.02-1.85.12-1.45,1.03.05.17-.23.07-.13.28-.05.2.25.09.27.22-.27.49.17,1.22.09,1.74-.03.08-.08-.02-.2,0,.07.33.27.63-.12.79.02.08.17.05.26.06-.16.51.41,1.79-.09,2.25.06.26.27.52,0,.73.1,1.32.8,2.59.19,3.72-.77.1-.97.68-1.17,1.25.03.11.3,0,.21.22-.03.26-.57.09-.53.4-.25-.23-.87-.15-.94-.55-.7.21-1.14-.1-1.6-.37-.21-1.52.05-3.05.26-4.45.02-.1-.13-.26-.14-.22,0-.15.18-.19.13-.34-.1-.37-.06-1.49.17-2.03-.42-.45,0-.91.11-1.24.31-.94-.21-2.04-.05-3.1-.04-.06-.15-.06-.14-.17-.28.14-.47.05-.73-.1-.18-.04.05.26-.13.22-.95-.41-1.66.03-2.27-.2-.05.09-.21.09-.19.23-.77.1-1.1-.18-1.41-.49-.01-.18.12-.24.06-.45.34-.01.34-.31.66-.35.04-.18-.05-.26-.07-.39-.42.18-.49-.1-.94-.16.04-.26-.14-.33-.21-.5.2.02.14-.19.19-.29.22-.03.44-.09.6-.17,0,.04,0,.08,0,.11.93-.41,2.26-.59,3.59-.43,1.91.22,4.15,0,6.05.21,1.32.14,2.83-.01,3.47.86-.09.3-.43.39-.32.85.39.09.62.33.87.55,0,.16-.31.19-.13.34-.34,0-1.39.09-1.66.24h0Z"/>
    <path class="cls-4" d="M121.62,108.36c.09-.14.23-.23.41-.29.16-.28.36-.52.6-.73.07-.39.15-.96.23-1.28.17-.71-.43-1.3-.32-2.05-.31-.13-.45-.41-.79-.44-.2-.02-.7.11-.88.19-.1.04-.18.21-.23.25-.03.03-.15,0-.18.04-.1.1-.1.27-.18.37-.06.06-.17.03-.23.08-.12.08-.17.27-.28.37-.12.12-.23.19-.37.26-.25.45-.47,1.22-.37,1.87.04.24.16.48.32.62-.04.2.06.3.04.48.5.37,1.38.49,2.22.29h0ZM118.75,110.16c-.18,0-.12.17-.28.18.2.98.13,2.82.32,3.63-.14.23.15.56-.09.81.04.09.16.15,0,.22.07,1.25.33-.83.18.38-.03.29-.22.68,0,.92.03.08.22.02.23.11-.03.37-.46.71-.79.95.04-.14-.23-.02-.14-.18-.52-.02-.79.15-1.11.29-.26.03-.68-.07-.79.07-.19-.06-.4-.12-.65-.15-.15-.76-.03-1.3-.37-2.05.16-.22.13,2.51,0,2.29-.02-.08.06-.07.14-.08,0-.04-.09-.03-.14-.03.25-2.99.43-5.77.32-8.87-.19-.51-.32-1-.09-1.54.04-.12-.04-.14-.1-.18.22-.25-.15-.36.1-.66-.04-.05-.19-.33,0-.48-.25-.48.04-1.19-.55-1.5.03-.42-.51-.38-.51-.77-.13-.04-.17-.16-.32-.18,0-.19-.07-.27,0-.44.84-.39,1.05-1.27,2.22-1.39.24.05.29.26.55.29.03.32.16.56.37.73.58-.21.77-.73,1.48-.84.09-.26.49-.27.69-.44.09-.01.14,0,.14.08,1.51-.26,3.09-.1,4.48.11.42.48,1.24.65,1.52,1.25.02.05.11.03.18.04.18.25.26.58.46.81.42,1.25.31,2.69-.09,3.92-.09.12-.18.23-.14.44-.46.5-.53,1.14-1.2,1.43-.03.11-.16.15-.19.25-.43-.05-.43.25-.88.19-.04.06-.17.06-.14.18-.05-.02-.05-.08-.14-.07-.46.28-1.27.29-1.85.47-.07-.23-.62.02-.69.15-.07-.04-.11-.11-.19-.15-.65.05-1.22-.05-1.98-.18h0Z"/>
    <path class="cls-4" d="M103.43,109.42c.05-.12-.06-.12-.18-.11-.02.1.09.09.18.11h0ZM108.51,94.69c.46.12.92.25,1.48.29.06.11.13.21.37.18.62.43,1.04,1.01,1.85,1.28v.36c-.48.22-.78.58-1.02.99-.35-.17-.67.28-.83.51-.73.09-.77-.37-1.06-.63-.18-.15-.39-.13-.69-.25-.11-.05-.06-.13-.14-.15-1.15-.2-1.84.88-2.45,1.25.01.17.09.29.28.33.15.67.78.97,1.15,1.47.31.02.36.23.46.4.28.1.32.37.6.51.04.02.15-.02.19,0,.1.06.23.23.37.33.09.06.13.16.33.15,0,.17.14.23.28.29-.04.38,0,.71.42.73.49,1,1.16,1.87,1.8,2.75-.01.47-.03.73.09,1.1.29.8.1,1.89-.14,2.64-.58.34-.6,1.11-1.15,1.47-.28-.11-.7.2-.83.44-.25,0-.51-.02-.6.11-1.45-.16-2.75.53-3.93.18-.06-.02-.05-.12-.09-.15-.23-.12-.66-.2-.74-.48-.16.03-.18-.05-.33-.04,0-.06-.06-.08-.05-.15-.46-.02-.41-.46-.88-.48-.17-.25-.39-.45-.74-.55,0-.17-.02-.36.05-.48.48.03.43-.33.65-.62.03-.05.21-.07.23-.11.07-.11-.04-.17.05-.26.28-.11.4-.34.74-.4.54.34,1.04.72,1.48,1.13.16.03.18-.05.32-.04.02.32.42.35.6.55.51-.09,1.01-.32,1.43-.37.05-.1.1-.19.28-.18-.05-.26.24-.25.18-.52.14.01.16-.07.23-.11.05-.5-.11-1.16.09-1.54-.16-.6.09-1.04-.32-1.47-.12-.12-.31-.15-.41-.26-.02-.02.02-.09,0-.11-.14-.11-.47-.2-.46-.47-.76-.52-1.18-1.31-1.94-1.83-.32-.48-.66-.94-1.15-1.28.03-.11-.08-.11-.04-.22-.03-.05-.1-.07-.19-.07-.26-.69-.61-1.3-.83-2.02-.03-.11.16-.05.09-.18-.33-.86.5-1.4.74-2.05h.19c.1-.47.68-.56.92-.92h.19c.07-.03.1-.09.09-.18.32-.13.64-.31.97-.47.11-.06.09-.16.19-.18.06-.02.18.03.28,0,.25-.09.36-.16.83-.19.1,0,.38-.04.55-.07h0Z"/>
    <path class="cls-5" d="M150.22,121.6c-.21.58.24,1.48-.23,2.03.07.14.2.2.14.45,1.35-.14,1.65-1.15,2.16-1.99-.23-.12-.05-.12,0-.29-.07-.07-.18-.11-.21-.22-.28.15-.49,0-.67-.1-.14.25-.83.06-1.2.13h0ZM149.62,118.85c-.05.32.66-.09.76.11,1.13.12,1.83.61,2.87.81.32.39,1.03.43,1.21.94.55-.1.32.48.81.44.63,1.92-.65,3.53-2.06,4.3.07.25.39.27.34.62.22.01.21.15.34.28.29.29.92.74,1.15,1.06.06.09.01.24.07.34.11.2.44.42.61.67.19.28.22.64.41.89.06.07.2.05.27.11.13.11.24.43.41.62.22.23.48.62.81.89,0,.19,0,.37.01.56-.46.04-.59-.06-.93-.1-.16.11-.02.47-.06.68-.47,0-.87.15-1-.21-.14-.03-.09.1-.2.11-.42-.04-.34-.53-.8-.55-.45-.94-1.48-1.37-1.77-2.46-.26-.02-.18-.34-.47-.33-.17-.77-.85-1.09-1.1-1.79-.13-.08-.35-.08-.4-.22-.39,1.43.36,2.92.2,4.67-.42.32-.73.73-.71,1.41-.75.18-1.35-.21-1.48-.77-.05.04-.2.24-.2,0-.26-.05-.08.27-.33.23-.37,0-.31-.37-.8-.28-.16-1.15-.57-2.17-.39-3.71.02-.22.08-.5.12-.73.13-.8.11-1.6-.04-2.31.04-.72.05-2.6-.19-3.6.24-.58.05-2.09-.04-2.81.63-.14,1.05,0,1.79-.02l.77.16h0Z"/>
    <path class="cls-4" d="M156.69,103.7c-.08,0-.09.04-.17.03-.01.16,0,.34-.21.33-.12.46-.33.85-.54,1.24-.17.56-.07,1.23.12,1.7.19.02.18.19.21.33.19-.02.23.08.29.17.14.04.03-.11.17-.07.04.03.09.07.12.1.89.12,1.07-.32,1.64-.47-.02-.2.25-.21.29-.3.08-.17.12-.36.29-.37-.05,0-.1-.01-.08-.07.81-.38.88-1.71.63-2.63-.2-.08-.31-.25-.33-.47h-.21c-.13-.46-.94-.28-1.05-.7-.2,0-.28-.11-.42-.17-.2.49-.68.75-.76,1.33h0ZM163.73,99.17c.41.02.42.36.8.4.03.13.07.31,0,.43-.22,0-.37.06-.42.2h-.17c-.39.32-.9.55-1.18.97.06.33-.26.66-.04.9-.13.43-.15,1.3,0,1.73-.11.09-.11.32,0,.4h-.08c.22.61.09,1.74.08,2.6-.01,1.41.19,2.89,0,4.09-.04.25-.24.48-.29.7-.09.38-.08.68-.21,1.03-.02.04-.11.06-.13.1-.03.09.03.19,0,.27-.1.23-.4.42-.42.67-.39.1-.45.46-.63.73-.15,0-.24.03-.21.17-.34.13-.86.12-.96.43-.36.03-.46.25-.92.2.03.18-.33.08-.21.24-.66.17-1.48,0-2.14.1-.25-.09-.47-.21-.84-.2-.04-.13-.2-.17-.42-.17-.24-.23-.45-.48-.84-.6.03-.13-.05-.16-.04-.27-.27-.11-.56-.2-.59-.5-.04-.05-.14-.05-.21-.07-.05-.3-.21-.52-.55-.6,0-.22-.14-.33-.34-.4.07-.33-.21-.39-.42-.5.03-.15-.02-.26-.09-.33.27-.17.84-.25,1.3-.17.1-.18.44-.18.67-.27.27.27.76.38.88.77.3.03.52.12.55.37.01.04.1.02.17.03.05.4.45.51.67.77.7-.04,1.13-.15,1.47-.33.28.14.41-.29.8-.27.59-.35.94-.9,1.09-1.6h.21v-.26c-.01-.07-.18,0-.21-.07.08-.79.07-1.1.13-2h-.21c-.05.11.14.03.08.14-.59.13-1.02.39-1.59.53-.1,0-.1-.07-.17-.1-.11.05-.21.11-.29.17-.17.04-.13-.07-.25-.07-.42.14-1.13.06-1.47-.07-.22-.37-.8-.45-1.09-.76-.47.08-.52-.19-.92-.17-.28-.6-.9-.93-1.01-1.66-.07-.03-.06-.11-.17-.1,0-.41-.02-.81-.21-1.06-.16-1.52.7-2.22,1.17-3.23.07,0,.09-.04.17-.03-.04-.24.22-.25.21-.47.41-.35.75-.76,1.34-.96.06-.02.08-.07.08-.14.37-.08.68-.21.8-.5.16,0,.24-.05.25-.17.65-.15,1.47-.14,2.18-.03v.1c.63-.01,1.07.12,1.55.23.15-.18.15-.48.38-.6-.02-.57.63-.59.92-.9.56.16,1.73-.52,1.97.17h0Z"/>
    <path class="cls-4" d="M169.44,100.33c1.4-.26,2.52.61,3.69.53.06.13.22.16.33.07.5.3.86.72.97,1.33-.57.31-.33,1.27-1.38,1.2-.08-.26-.45-.29-.55-.53h-.29v-.13c-.12.02-.83.04-.93-.1-.24,0-.21.23-.46.23-.05-.11.14-.03.08-.13.02-.09-.24.03-.17-.1-.24.14-.52.25-.92.26-.18.15-.23.4-.46.5-.05.33.01.56.09.86.24.13.32.39.71.4.01.18.41.05.38.27.35-.04.28.25.59.23.02.16.13.25.34.26.14.45.63.61.71,1.1,0,.28.06.51.21.67.01.28-.03.59.13.76-.11.08-.15.46,0,.53-.03.16-.08.28,0,.43-.17.22-.28.47-.34.77-.14,0-.2.07-.17.2-.21,0-.2.18-.42.17-.09.41-.8.32-.88.73-.64.12-1.06.75-1.64.7-.06.05-.14.09-.17.16-.15,0-.34-.03-.38.07-.68-.04-1.47.31-1.84-.07-.58-.02-.73-.38-1.26-.43-.42-.22-.49-.72-.84-1-.07-.39-.36-.6-.46-.96-.17-.04-.16-.21-.29-.27-.09-.39.29-.38.5-.63.06-.08.12-.27.21-.34.15-.11.13-.05.25-.23.16-.24.62-.22.71-.43.41.25.51.75.67,1.2.03.04.09.06.17.07-.03.4.53.33.59.67.26,0,.32.12.5.1.4-.03.53-.53,1.01-.53.23-.3.67-.42.88-.73v-.73c-.18-.22-.25-.53-.42-.77-.04-.05-.13-.05-.17-.1-.03-.03.03-.11,0-.13-.07-.08-.3-.15-.34-.23-.15-.33-.36-.48-.75-.67v-.13c-.07-.06-.12-.13-.29-.1-.4-.39-.61-.94-.96-1.37-.02-.38.03-.79-.21-1.06-.02-.61.48-1.27.76-1.86.3-.09.46-.3.63-.5.74-.07,1.22-.4,1.89-.2h0Z"/>
    <path class="cls-5" d="M117.79,130.86s3.66-.99,3.84-.32c.17.67.18,1.32-.46,1.22-3.16-.46-3.37-.91-3.37-.91h0Z"/>
    <path class="cls-4" d="M117.04,75.4c-.22,5.77.61,11.63.03,17.41-.67.2-1.72-.13-2.08-.17-.49-2.54.09-5.51-.27-8.53-.16-1.36-.73-.09-.56-2.24-.6.24-2.43,9.59-3.08,10.17-.87.76.2.81-1.48.16-1.04-.41-2.61-7.14-3.46-7.71-.46,4.07.11,3.51.24,8.25-.7.11-2.38.03-3.11.09.04-.26-.26-.23-.42-.33-.29-5.31.25-11.16.1-16.5.43-.07,1.9-.23,2.29-.33,2.02.52,3.07,10.41,4.81,11.44.92-.35,1.62-9.24,2.49-10.01.77-.68,1.77-1.08,2.53-1.79.26-.24,1.52-.12,1.98.08h0Z"/>
    <path class="cls-4" d="M144.22,85.21c-.47-.46-1.7-.95-2.61-.47-.02.17-.14.25-.23.36-.23-.03-.25.1-.44.1-.41.45-.72.96-.98,1.52.14.14.49.35.71.14-.05.1.09.06.17.07.49-.2,1.45,0,1.99-.27.04.1.45.1.49,0,.43.26,1.16-.12,1.68,0,.03-.15.17-.22.13-.43-.44-.25-.79-.55-.93-1.03h0ZM142.27,83.16c.14.06.18.13.4.06.09,0,.14.03.13.1.61-.01.88.23,1.32.33.4.35,1.06.51,1.33.96.13-.03.11.04.22.03.09.16.28.25.31.46.27.13.33.41.62.53.14.71.39,1.29.31,2.09-1.44.14-3.25.1-4.69.3-.39.02-.77,0-1.15,0-.78.01-1.58-.32-1.77.37.16.07.41.07.49.2-.17.09-.01.42-.22.47.06.52.31.92.4,1.42.26.33.8.46,1.1.76,1.86.54,3.93-.05,4.25-1.39.12-.01.21-.04.27-.1.59.14,1.41.24,1.95,0,.08.15.27.05.48.07-.1,1.32-1.1,1.96-1.95,2.72-.37.05-.6.22-.93.3-.83.11-1.88.29-2.61.3-.09,0-.41-.18-.49,0-.1.02-.06-.06-.13-.07-.35.13-1.04,0-1.37-.1-1.11.05-1.44-.49-2.17-.73.02-.11-.03-.16-.05-.23-.03-.05-.14-.05-.22-.07-.34-.52-.78-.96-.97-1.59-.1-.03-.08-.14-.22-.13-.18-.94.37-1.86.26-2.62.14-.44.09-1.02.26-1.43.2-.02.22-.17.22-.33h.13c.07-.46.52-.63.71-.99.11.01.1-.06.22-.03v-.17c.25-.06.27-.28.53-.33.14-.49.9-.52,1.24-.86.6-.07.88-.3,1.37-.23.2-.13.34.04.4-.06h0Z"/>
    <path class="cls-2" d="M93.46,131l-32.57-.13s3.13-38.52,3.13-39.28-1.46-13.85,4.59-16.7c6.05-2.85,19,13.28,19,18.03s1.46,1.14,1.88,3.42c.42,2.28,3.97,34.66,3.97,34.66Z"/>
    <path class="cls-6" d="M72.99,115.23h.11c.27.42.23,1.13.43,1.84.03.09.17.13.21.24.11.31.09.99.16,1.45.06.4-.77.69-.84.87.19.2.08.52.16.77.04.14.19.24.21.34.51,2.22-.4,4.33-.8,6.04-.1,0-.11.06-.22.05-.04.57-.31.95-.69,1.21-.13.75-.66,1.14-.85,1.84-.32.01-.3.34-.37.58-.39.27-1.04-.14-1.91.05-.24.05-1.1.22-1.33,0-.09-.15.28-.21,0-.24.52-.48.67-1.29,1.33-1.64-.11-.59.47-.57.42-1.11.41-.16.34-.76.69-.97.11-.58.35-1.03.64-1.45.02-.24-.04-.55.16-.63.06-.16-.17-.03-.11-.19.84-2.79,2.42-5.95,2.59-9.04h0Z"/>
    <path class="cls-6" d="M79.38,121.8c.49.13.33.86.85.97v.29c.58.65.78,1.64,1.28,2.37-.05.38.11.58.27.77.06,1.66-.26,2.99-.53,4.35-.17,0-.25.09-.27.24-1.52.03-2.92.03-3.99-.1-.12-.86.44-1.5.8-2.08.07-.61.47-1.15.64-1.74.11-.37,0-.82.27-1.06.03-.11-.1-.07-.11-.15.33-.75.23-1.89.64-2.56-.21-.34.13-.88.16-1.3h0Z"/>
    <path class="cls-6" d="M83.42,109.24c.15.04.14-.07.26-.05-.04-.11.1-.38-.11-.34-.04.14-.19.18-.16.39h0ZM78.73,80.13c.16.06.23-.21.11-.24.04.15-.18.06-.11.24h0ZM82.08,73.37c-.05.24.13.27.16.43.46.05.34.63.8.68.15.77.89,1,.96,1.84.58.53.92,1.28,1.22,2.08.02.07.14.04.21.05-.04.23.06.33.05.53.08.04.08.16.21.15.07.51.18.96.53,1.21.09.42.23.79.53,1.01.18.87.53,1.58.96,2.22.15.72.42,1.33.8,1.84,0,.3,0,.62.27.68.06,1.17.59,1.91.58,3.14.12.02.05.21.21.19.17,1.58.64,2.9.85,4.45.43,1.11.5,2.55.91,3.68.07.71-.04,1.58.26,2.08-.07.44.07,1.42.27,1.94-.05,1.28.09,2.4.42,3.34.03.55-.04,1.2.16,1.59.29,2.12.46,4.35.8,6.43.03.11-.1.07-.11.15.13.55.33,1.52.26,1.93.48,1.5.59,3.33.91,4.98.03.16-.01.25-.1.29.34,1.21.21,2.48.53,3.82-.23.53-.02,1.65-.16,2.52-.06.36-.27.63-.21,1.16-.59.63-.15,2.19-.32,2.95-1.17.43-2.14-.04-3.24.39-1.19-.32-2.18-.09-3.56-.14-.07-.21-.26-.31-.32-.53.29-1.58-.09-3.64-.27-5.37,0-1.49-.07-2.9-.37-4.11-.06-.15.09-.12.1-.2-.71-2.61-2-4.69-2.45-7.54-.12-.02-.05-.21-.21-.19-.29-1.3-.75-2.44-.96-3.82-.03-.11.1-.07.11-.14-.47-1.08,0-3.48-.37-4.93-.1-1.78.14-3.42,1.28-4.21.41-.04.39.32.69.39.12.99-.58,1.72-.64,2.56-.03.42.35,1.04.8,1.3.06.04.2-.03.27,0,.03.02.04.14.05.15.49.17,1.07.2,1.65,0,.41-.26.57-.73,1.12-.87.46-1.03.89-2.09,1.06-3.39-.16-.14-.1-.49-.11-.77-.3-1.42-.78-2.67-1.65-3.58-.52-.32-1.17-.52-1.6-.92-.26,0-.51.01-.64-.1-.2-.07-.1.14-.26.1-.45-.31-1.19-.05-1.81-.1-.11.02-.05.18-.16.2-.94.2-1.45.78-2.18,1.16-.12.81-.97.95-1.01,1.84-.32.23-.51.56-.53,1.06-.6.38-.5,1.38-.9,1.93-.66-1.54-.83-3.83-1.06-6-.05-.48-.05-1.03,0-1.45.09-.83.05-1.56.26-2.32.12-.43.52-.62.64-1.06.26-.05.39-.23.53-.39h.53c.01.17-.02.37.16.39.04.26-.32.56-.37.73-.06.17.01.47-.05.72-.04.15-.19.3-.21.44-.07.43.1,1.08.27,1.3.14.19.65.45.96.48.75.08,1.22-.35,1.92-.44,1.31-.78,1.28-3.01.69-4.44-.06-.08-.15-.12-.21-.19-.03-.12-.08-.22-.05-.39-.33-.4-.56-.88-.8-1.36-.25-.03-.16-.37-.48-.34-.29-.79-.9-1.27-1.76-1.55.02-.12-.1-.1-.05-.24-.66-.17-1.18-.36-1.91-.25-.15.11-.27.24-.53.25-.54.38-1.05.79-1.54,1.21-.09.28-.24.53-.53.63-.08.48-.2.61-.32,1.11-.06.25-.15.62-.27.92-.12.3-.38.58-.48.87-.06.17.01.35-.05.48-.04.08-.19.07-.22.14-.23.63-.3,1.57-.48,2.32-.04.17-.07.52-.11.87-.04.42-.06,1.2-.26,1.59-.02-.31-.2-.46-.16-.82-.44-.81-.82-1.67-1.06-2.66-.15,0-.03-.27-.22-.24-.36-1.91-1.05-3.52-1.49-5.36,0-.39-.01-.76-.27-.92.06-.61-.18-1.17-.27-1.64-.16-.91.1-1.61.27-2.51.29-.2.33-.63.69-.77.26.71-.2,2.03.32,2.61.11.14.32.2.32.43.35.02.49.24.69.39.34-.04.89.1,1.06-.1.12-.03.07.09.16.1.95-.21,1.34-.94,1.81-1.59.04-.71,0-.97,0-1.74.03-.11-.1-.07-.11-.14v-.43c-.4-1.01-.85-1.98-1.38-2.86-.52-.41-1.06-.81-1.91-.92-1.33.11-2.17.96-3.35,1.45-.17.39-.57.57-.64,1.06-.1,0-.11.06-.21.05.02.23-.1.33-.06.58-.72.92-.66,2.45-1.06,3.58-.13.36-.05.91-.16,1.45-.2,1-.31,2.44-.11,3.53.06.21-.06.27-.11.39.17.38.18,1.36,0,1.74-.06.16.17.04.11.19-.15,1.59-.13,3.34.11,5.08.14,1.07.37,2.13.42,3,0,.09-.17.5.11.68.1,1.92.47,3.6.85,5.27.06.25-.13.73.11.82.03.11-.1.07-.11.14.3.49,0,1.51.37,1.94.03.1-.1.07-.1.14.13.11.19.63,0,.73.2.19.03.71.26.87.3,3.42.39,6.7,0,9.77-.07.55-.93,1.21-1.21,1.69-.23,1.16-.35,2.43-.8,3.38.09.75-.5,1.18-.69,1.74-.21.61.63,1.27.04,1.6-.18.32-.23.76-.53.97-.13.69-.56,1.11-.69,1.79-.21.03-.21.27-.42.29-.07.16.17.04.11.19-.57.3-.79,1.03-1.17,1.36-.63-.03-1.42.11-1.97-.1-.82.34-1.68-.58-2.34,0-.1-.3-.62-.21-.91-.34.04-.24-.09-.63.11-.73-.46-1.21-.23-3.13,0-4.49-.27-1.33.38-4.16,0-5.56.25-.55.05-1.15.16-1.74.08-.39.31-.77.37-1.16.09-.53.1-1.01.16-1.55.08-.69.3-1.38.37-2.07.07-.69-.04-1.3.26-1.84.11-.72.08-1.46.16-2.18.03-.26.18-.51.21-.77.05-.49-.02-.97.05-1.45.14-.84.58-1.48.53-2.51.36-.82.33-1.7.43-2.61.03-.24.18-.49.21-.72.14-1.26.12-2.59.43-3.72.1-.39.06-.86.16-1.26.04-.14.18-.29.21-.44.07-.3,0-.65.05-.97.04-.22.18-.43.21-.63.05-.31-.07-.59,0-.87.06-.23.31-.45.16-.78.62-2.28,1.13-4.65,1.76-6.91.01-1.81.87-2.85,1.11-4.45.21.07.01-.21.22-.15.08-.78.48-1.27.58-2.03.27-.34.5-.7.53-1.26.39-.32.34-1.05.75-1.35,0-.63.42-.88.48-1.45.34-.21.28-.77.74-.87.17-.96.81-1.49,1.12-2.32.82-1.36,2.47-1.98,3.77-2.9,1.34-.23,2.29-.44,3.88-.24.25.03.49.16.75.19.44.06.86-.02,1.22.15.25.11.38.43.85.39.78.52,1.4,1.18,1.86,1.98.47.25.62.79,1.07,1.06.03.46.27.72.69.82h0Z"/>
    <path class="cls-6" d="M83.02,77.36s.21-17.27,13.15-14.8c0,0,12.32,5.5,13.99,11.76l3.55-.76s-9.81-14.04-18.58-12.52c-8.77,1.52-10.23,18.98-9.81,20.87.42,1.9-2.3-4.55-2.3-4.55Z"/>
  </g>
  <text class="cls-8" transform="translate(26.62 108.73) scale(.79 1)"><tspan x="0" y="0">4</tspan></text>
</svg>