<?xml version="1.0" encoding="UTF-8"?>
<svg id="Layer_1" data-name="Layer 1" xmlns="http://www.w3.org/2000/svg" viewBox="0 0 180 200">
  <defs>
    <style>
      .cls-1, .cls-2, .cls-3 {
        fill-rule: evenodd;
      }

      .cls-1, .cls-4 {
        fill: #fff;
      }

      .cls-2, .cls-5 {
        fill: #231f20;
      }

      .cls-3 {
        fill: #f48668;
      }

      .cls-5 {
        font-family: AmericanTypewriter-Bold, 'American Typewriter';
        font-size: 19.28px;
        font-weight: 700;
        letter-spacing: .02em;
      }
    </style>
  </defs>
  <g>
    <path class="cls-4" d="M58.47,76.32s.34,49.13.34,52.55,0,8.87.68,10.58,1.36,3.07,4.44,3.41,20.81,1.71,21.84,1.71,11.26,1.71,15.7,1.36c4.44-.34,21.15-.34,27.3-.34s27.3-1.36,29-1.36,6.48-1.02,8.87-2.05,6.82-3.41,6.82-3.41c0,0,1.36-1.02,1.71-6.82.34-5.8-1.02-9.89-1.36-19.11s-3.41-39.92-3.75-41.29c-.34-1.36,1.02-7.17-.34-7.51s-7.85-1.02-13.99-1.02-36.17-.68-39.92-.68-36.51,1.36-39.92,1.71c-3.41.34-16.04.34-16.72,1.71s-.68,10.58-.68,10.58Z"/>
    <g>
      <path d="M147.24,117.82c-3.39-.91-6.46-.54-9.85.11-1.69.32-3.72.82-5.35,1.36-3.95,1.29-9.87,4.86-13.98,4.81-7.05-.1-14.47-5.13-21.36-6.39-2.35-.43-5.11-.42-7.51-.33-.74.03-1.44.36-2.23.24-.33-.05-.36.13-.34-.34.05-.94,2.53-3.72,2.83-4.8.15-.55-.44-.62-.36-1.12.27-.01.61-.04.84-.17.6-.34,6.49-10.12,7.4-11.62,1.66-2.73,3.24-5.53,4.92-8.27.58-.94,1.57-3.2,2.17-3.87.14-.15.17-.28.42-.22.88.21,2.72,3.19,3.71,2.57l8.17-13.76c3.59,4.13,5.42,9.37,8.61,13.76,1.68-.64,2.6-2.32,4.15-3.25.68-.41.48.58.73,1.05,3.95,7.28,8.2,14.45,12.39,21.61.63,1.08,5.28,8.02,4.65,8.65ZM110.67,113.35c1.64.24,3.78-.18,5.48,0v4.25l1.54-.03c.63-1.05-.81-3.93.25-4.56l5.82-.34-3.8-5.7c.74-.28,1.59-.22,2.35-.34.3-.05.4.15.34-.33l-3.8-4.93c.1-.99,1.16.02,1.79-.44l-3.13-5.26-.46.14-3.34,4.89c-.35.83,1.97-.46,1.79.44l-3.58,5.6c.37.38,2.16-.29,2.02.45-.23,1.2-3.17,4.41-3.81,5.81.05.11.52.33.56.33ZM98.92,110.89h3.69c.74,1.4-.28,2.92,2.01,3.36.47.09.25.07.23-.23-.04-.86-.31-1.81-.02-2.7.05-.07,1.26-.43,1.36-.43h3.24c-.17-1.48-2.77-3.31-2.91-4.36-.1-.75,1.63-.06,2.02-.45l-3.58-4.25,1.79-.22c-.91-.57-2.19-4.37-3.02-4.37l-2.57,4.14c.18.34,1.83-.22,1.56.44l-3.13,4.26c-.23.78,1.74.09,1.89.12l.35.54c-1.16,1.23-2.22,2.59-2.91,4.14ZM129.12,111.34v3.13l1.53-.48.04-2.65,4.47-.45-2.68-4.14c-.2-.7,1.49-.08,1.78-.44l-3.13-4.48c-.31-.73,1.86.07,1.56-.66-.15-.38-1.1-1.98-1.38-2.42-.15-.24-1.1-1.49-1.19-1.49l-3.02,3.91c.37.24,1.66-.11,1.55.65l-2.89,4.39c.23.2,2.45-.38,2.23.33l-3.12,4.25c0,.5,3.65.32,4.25.56ZM89.53,113.35h5.03c4.84,0,13.6,5.39,19.34,6.61,8.12,1.72,12.33-1.47,19.09-4.63,3.62-1.7,7.89-1.99,11.78-1.3-1-2.75-2.02-2.92-4.8-2.68-5.53.49-12.29,5.22-18.41,6.42-9.18,1.81-13.47-2.05-21.25-4.8-3.07-1.09-6.25-1.49-9.52-1.36l-1.27,1.75ZM146.34,117.15c-.05-.76-.61-2.08-1.28-2.4-.5-.24-2.84-.49-3.51-.51-7.1-.23-10.32,3.57-16.41,5.54-4.01,1.3-7.82,1.59-11.95.67-6.65-1.48-16.78-8.17-23.29-6.41-.23.06.02.65-1.04.22l-1.35,2.68c3.31-.39,6.57-.31,9.85.34,6.69,1.33,13.83,6.09,20.69,6.17,3.91.05,9.47-3.2,13.19-4.5,3.79-1.32,9.44-2.57,13.42-2.23.58.05,1.15.23,1.68.44Z"/>
      <path d="M79.41,123.15l-4.2,1.61c1.02.2,2.06-.21,3.01-.23,7.15-.18,14.33.4,21.49.45,2.37.01,4.75-.16,7.14-.22,4.92-.12,9.89.41,14.77.44,8.49.04,17.22.09,25.72.01,2.23-.02,4.46.06,6.69-.02.72-.24.19-2.21.4-2.84.24-.12.51-.2.77-.23,3.03-.38,6.95-.23,10.04-.26.8,0,4.99-.12,5.25.25.18,1.4-1.3,2.15-2.09,3.13-.38.47-1.75,2.32-1.71,2.77.06.68,4.13,3.98,4.26,5.37-.85.96-1.86.34-2.78.34-2.94-.01-5.93-.12-8.85.24l2.01,3.8c-9.42,1.04-18.9.18-28.32-.42l-1.31.21c-2.09,0-4.19-.04-6.28-.02-16.65.12-33.31.11-49.89.22-1.03,0-1.44.31-2.67,0-.2-.05-.48.13-.33-.33s2.39-3.12,2.01-3.47c-1.23,0-2.47-.01-3.7-.01-1.8,0-3.74.18-5.58,0-.89-.08-1.65-.23-1.35-1.33l3.7-4.6-.11-.32c-1.25-.96-2.72-2.44-3.69-3.7-1.38-1.78-.45-2.17,1.45-2.34,3.15-.28,9.16-.29,12.31-.01,1.09.1,2.27.14,1.85,1.53ZM79.01,122.3c-2.84-.32-5.75-.27-8.62-.23-1.45.02-3.01-.1-4.47,0-.8.06-1.57.3-2.34.46-.46.62,4.36,4.45,4.48,5.27.22,1.54-4.03,4.83-3.59,5.46.41.11.79.21,1.22.24,2.07.15,5.57.17,7.62,0,.43-.04,1.34-.13,1.66-.35.21-.14,1.13-1.99,1.09-2.19-.1-.51-3.03-3.82-3.43-4.86-.72-1.85,4.59-2.29,5.77-2.94.34-.19.68-.39.61-.84ZM170.28,133.26c-.11-1.31-4.23-4.63-4.25-5.25.9-1.9,2.29-3.51,3.8-4.93l-.33-.56h-12.97c-.07,0-1.24.24-1.23.44l5.6,1.9c.35.12.7.39.78.76.26,1.17-3.38,4.47-3.6,5.83-.06.38.87,1.22.8,1.8h11.41ZM154.85,124.98h4.25l-4.25-1.79v1.79ZM93.77,127.67c.72,3.22.17,8.47,4.93,7.72,4.99-.78,3.77-5.02,2.91-8.75l-1.58-.1c-.48.48,2.26,8.21-2.08,6.89-1-.3-1.69-5.09-1.95-6.22l-2.24.45ZM128.56,133.48h-4.03c-.1,0-.37-.35-.32-.54l.88-5.95-1.88-.2c-.61.16-.51,2.61-.6,3.19-.29,1.76-.96,3.48-.87,5.28l7.16.45c-.05-.51.22-2.07-.34-2.24ZM88.41,135.72l-.35-2.92c.34-.47,3.92.2,4.5-1.99,1.31-5.02-4.63-3.61-7.5-3.14l1.12,8.28,2.24-.23ZM130.46,127.22v8.39l.37.3c2.3.03,4.44-.83,6.79-.19v-1.79c-.32-.32-3.7.3-4.36.24-1.36-.12-.8-2.14.03-2.18.56-.03,2.07.4,2.52.12l.26-1.53h-3.58l.13-1.37,5.23-.43v-1.56c-2.48-.21-4.88-.06-7.37,0ZM111.23,127.22c-2.54.29-5.04.6-7.61.45v2.01s4.92-.67,4.92-.67c-1.04,1.37-4.21,3.19-4.81,4.7-.17.42.32,1.63.11,2.23,2.7.29,5.33-.1,8.06,0l-.21-2.14-4.49.12c-.1-.39.16-.45.33-.67,1.47-1.92,4.36-3.1,3.69-6.04ZM119.84,127.22c-2.08-.27-4.68.2-6.82,0v2.01h4.81c.06,0,.58-.49.45.23-.75.89-4.59,3.06-4.92,3.8-.3.67-.02,1.72-.11,2.46h7.83l-.24-2-4.46.43c-.52-.59,1.9-2.2,2.25-2.56.26-.27,1.97-2.14,2-2.29.11-.51-.05-1.17.02-1.72-.03-.1-.69-.35-.8-.36ZM145,129.46c-4.85-.45-4.83,4.02-.22,4.03v-1.12c-3.45.55-2.89-2.63.22-2.01v-.89ZM146.4,130.41c-1.59,1.49.55,4.2,2.3,2.63,2.09-1.88-.91-3.94-2.3-2.63Z"/>
      <path d="M88.57,78.05c.19-.05.37-.06.56,0l7.31,3c-.47,3.06-2.06.85-3.14,1.1-.55.12-1.19,1.1-1.66,1.45l1.01,2.36-1.23,1.22-3.82-7.59c-.19-.49.55-1.43.96-1.54ZM91.76,81.15l-1.79-.67,1.01,1.56.78-.89Z"/>
      <path d="M155.07,96.58l-1.47-.21c-.41-.58.65-2.41-.88-3.6-2.53-1.97-5.72,1.95-3.86,3.75.3.29.93.07.85.62-.05.29-.9,1.48-1.2,1.43-1.51-.69-2.19-2.53-2.18-4.12.01-2.79,3.73-4.7,6.16-3.9.74.25,2.58,1.83,2.58,2.56v3.47Z"/>
      <path d="M106.53,69.51c-6.3-1.66-2.6,9.2,1.46,3.36l.98,1.27c-.78,2.74-5.32,2.97-6.87.81-2.49-3.47-.44-7.96,3.89-7.47,1.34.15.34,1.04.55,2.02Z"/>
      <path d="M83.94,96.12l2.58,1.13c.07.12.02,1.06,0,1.32-.01.13.34.29-.24.25-.67-.05-3.61-1.1-4.41-1.4-1.1-.42-2.2-.88-3.2-1.51-.42-.67,2.2-6.96,4.82-3.69.92,1.15.8,2.54.45,3.9ZM80.58,94.78l1.57.35c1.27-3.19-.99-2.96-1.57-.35Z"/>
      <path d="M132.29,72.39l2.39,1.41-.21,1.28c-.38.26-2.59-.67-3-1.09l-1.47,2.89-1.76-.44,3.36-7.59c.21-.15,1.18.28,1.48.4,1.07.44,2.42,1.18,3.41,1.75l-.56,1.4-2.89-1.1c-.47,0-.98.68-.75,1.08Z"/>
      <path d="M117.94,74.21l.22-8.28,1.64.04.33.47c-.48,2.44-.39,4.92-.44,7.4l-.33.34-1.42.03Z"/>
      <path d="M146.12,78.46l.89,1.24-5.59,5.37c-.51.23-1.26-.45-1.26-.91.03-.28.22-.46.37-.67.4-.56,4.44-4.41,5.03-4.82.19-.13.23-.31.56-.22Z"/>
      <path d="M126.81,139.11c2.89-1,2.49,4.48-.09,3.37-1.25-.53-.82-3.06.09-3.37ZM127.22,139.97c-.52.1-.53,1.93.22,1.79.52-.1.53-1.93-.22-1.79Z"/>
      <path d="M120.45,142.37c-1.01-.95-.52-3.8,1.35-3.26,2.1,1.04.3,4.82-1.35,3.26ZM121.72,139.99l-.87-.02c-.34,2.53,1.37,2.19.87.02Z"/>
      <path d="M107.42,139.3v.89s-1.57,0-1.57,0c.23.63,1.41.21.74,1.12h-.74s0,.67,0,.67c.14.15,1.94-.39,1.79.67h-2.68s0-3.35,0-3.35h2.46Z"/>
      <path d="M124.87,141.76l.64.02.03.87c-.43-.2-2.43.51-2.46-.11.32-.68,1.24-1.51,1.34-2.24.09-.62-.53-.4-.56.12-1.17.24-1.06-1.66.62-1.31,1.37.29.98,1.79.39,2.64Z"/>
      <path d="M118.83,141.75c.84-.05.99.34.9,1.12l-2.68-.22c-.13-.09,1.95-2.07,1.56-2.68-.67,0-.41.74-1.34.45.39-2.83,3.41-.73,1.56,1.34Z"/>
      <path d="M110.09,139.32v.65c-.4.29-1.29-.34-1.1.45,1.89-.05,1.71,2.9-.06,2.43-.86-.23-1.33-1.63.03-1.51l.37.65.33-.66-1.29-.27c-.78-1.32.41-2.42,1.72-1.72Z"/>
      <path d="M113.46,139.07l-.04.87c-1.77-.04.1,3.13-1.75,2.93v-2.91s-1.01,0-1.01,0c-.52-1.43,1.88-.76,2.8-.9Z"/>
      <path d="M115.03,142.65h-.67s0-.67,0-.67c.42-.07.74.26.67.67Z"/>
      <path class="cls-4" d="M146.34,117.15c-.53-.22-1.1-.39-1.68-.44-3.98-.34-9.63.9-13.42,2.23-3.72,1.3-9.28,4.54-13.19,4.5-6.87-.08-14-4.85-20.69-6.17-3.27-.65-6.54-.73-9.85-.34l1.35-2.68c1.06.42.81-.16,1.04-.22,6.51-1.76,16.64,4.94,23.29,6.41,4.13.92,7.94.63,11.95-.67,6.08-1.97,9.31-5.77,16.41-5.54.67.02,3.02.27,3.51.51.68.33,1.23,1.65,1.28,2.4Z"/>
      <path class="cls-4" d="M110.67,113.35s-.51-.23-.56-.33c.64-1.4,3.58-4.61,3.81-5.81.14-.74-1.65-.07-2.02-.45l3.58-5.6c.18-.9-2.14.39-1.79-.44l3.34-4.89.46-.14,3.13,5.26c-.63.46-1.69-.55-1.79.44l3.8,4.93c.06.47-.04.28-.34.33-.76.12-1.61.06-2.35.34l3.8,5.7-5.82.34c-1.06.63.38,3.51-.25,4.56l-1.54.03v-4.25c-1.7-.18-3.84.24-5.48,0Z"/>
      <path class="cls-4" d="M89.53,113.35l1.27-1.75c3.27-.13,6.45.27,9.52,1.36,7.77,2.75,12.07,6.61,21.25,4.8,6.12-1.21,12.88-5.94,18.41-6.42,2.78-.24,3.81-.07,4.8,2.68-3.89-.69-8.16-.39-11.78,1.3-6.77,3.17-10.97,6.36-19.09,4.63-5.74-1.22-14.5-6.61-19.34-6.61h-5.03Z"/>
      <path class="cls-4" d="M129.12,111.34c-.59-.23-4.25-.06-4.25-.56l3.12-4.25c.21-.71-2-.13-2.23-.33l2.89-4.39c.12-.76-1.17-.41-1.55-.65l3.02-3.91c.1,0,1.04,1.25,1.19,1.49.28.44,1.23,2.04,1.38,2.42.3.74-1.87-.07-1.56.66l3.13,4.48c-.29.36-1.98-.26-1.78.44l2.68,4.14-4.47.45-.04,2.65-1.53.48v-3.13Z"/>
      <path class="cls-4" d="M98.92,110.89c.69-1.55,1.75-2.91,2.91-4.14l-.35-.54c-.14-.03-2.12.66-1.89-.12l3.13-4.26c.26-.67-1.38-.11-1.56-.44l2.57-4.14c.83,0,2.1,3.79,3.02,4.37l-1.79.22,3.58,4.25c-.39.39-2.12-.3-2.02.45.15,1.05,2.75,2.88,2.91,4.36h-3.24c-.1,0-1.3.36-1.36.43-.28.89-.02,1.83.02,2.7.01.3.24.32-.23.23-2.29-.44-1.28-1.95-2.01-3.36h-3.69Z"/>
      <path class="cls-4" d="M79.01,122.3c.07.45-.27.66-.61.84-1.18.65-6.48,1.1-5.77,2.94.4,1.03,3.33,4.35,3.43,4.86.04.21-.88,2.05-1.09,2.19-.32.22-1.23.32-1.66.35-2.05.18-5.55.15-7.62,0-.43-.03-.81-.13-1.22-.24-.44-.63,3.81-3.93,3.59-5.46-.12-.82-4.94-4.64-4.48-5.27.77-.16,1.54-.4,2.34-.46,1.47-.1,3.02.02,4.47,0,2.87-.03,5.78-.09,8.62.23Z"/>
      <path class="cls-4" d="M170.28,133.26h-11.41c.08-.58-.86-1.42-.8-1.8.22-1.36,3.86-4.66,3.6-5.83-.08-.37-.43-.64-.78-.76l-5.6-1.9c-.01-.21,1.16-.44,1.23-.44h12.97l.33.56c-1.5,1.42-2.9,3.03-3.8,4.93.02.62,4.13,3.94,4.25,5.25Z"/>
      <path class="cls-4" d="M111.23,127.22c.66,2.94-2.22,4.12-3.69,6.04-.17.22-.43.28-.33.67l4.49-.12.21,2.14c-2.72-.1-5.35.29-8.06,0,.2-.6-.28-1.81-.11-2.23.6-1.52,3.77-3.33,4.81-4.7l-4.92.67v-2.01c2.56.15,5.07-.16,7.61-.45Z"/>
      <path class="cls-4" d="M88.41,135.72l-2.24.23-1.12-8.28c2.87-.47,8.81-1.88,7.5,3.14-.57,2.19-4.15,1.52-4.5,1.99l.35,2.92Z"/>
      <path class="cls-4" d="M119.84,127.22c.11.01.77.26.8.36-.07.54.09,1.21-.02,1.72-.03.15-1.74,2.02-2,2.29-.35.36-2.77,1.97-2.25,2.56l4.46-.43.24,2h-7.83c.09-.74-.19-1.79.11-2.46.34-.74,4.17-2.91,4.92-3.8.13-.72-.39-.23-.45-.23h-4.81v-2.01c2.14.2,4.75-.27,6.82,0Z"/>
      <path class="cls-4" d="M130.46,127.22c2.49-.06,4.89-.21,7.38,0v1.56s-5.24.43-5.24.43l-.13,1.37h3.58l-.26,1.53c-.44.28-1.95-.15-2.52-.12-.82.05-1.38,2.07-.03,2.18.66.06,4.05-.56,4.36-.24v1.79c-2.35-.64-4.48.22-6.79.19l-.37-.3v-8.39Z"/>
      <path class="cls-4" d="M93.77,127.67l2.24-.45c.25,1.13.95,5.92,1.95,6.22,4.34,1.32,1.61-6.41,2.08-6.89l1.58.1c.86,3.72,2.08,7.96-2.91,8.75-4.76.75-4.22-4.5-4.93-7.72Z"/>
      <path class="cls-4" d="M128.56,133.48c.55.17.28,1.73.34,2.24l-7.16-.45c-.09-1.8.58-3.52.87-5.28.1-.58-.01-3.04.6-3.19l1.88.2-.88,5.95c-.05.19.23.54.32.54h4.03Z"/>
      <path class="cls-4" d="M146.4,130.41c1.39-1.31,4.39.75,2.3,2.63-1.75,1.57-3.89-1.14-2.3-2.63ZM147.02,131.25l.34,1.11c1.33-.05.9-1.38-.34-1.11Z"/>
      <path class="cls-4" d="M145,129.46v.89c-3.12-.62-3.67,2.56-.22,2.01v1.12c-4.6,0-4.63-4.48.22-4.03Z"/>
      <polygon class="cls-4" points="154.85 124.98 154.85 123.19 159.1 124.98 154.85 124.98"/>
      <polygon class="cls-4" points="91.76 81.15 90.98 82.04 89.97 80.48 91.76 81.15"/>
      <path class="cls-4" d="M80.58,94.78c.58-2.6,2.85-2.84,1.57.35l-1.57-.35Z"/>
      <path class="cls-4" d="M127.22,139.97c.75-.15.73,1.69.22,1.79-.75.15-.73-1.69-.22-1.79Z"/>
      <path class="cls-4" d="M121.72,139.99c.5,2.16-1.21,2.51-.87-.02l.87.02Z"/>
      <path d="M147.02,131.25c1.23-.26,1.67,1.06.34,1.11l-.34-1.11Z"/>
    </g>
  </g>
  <path class="cls-2" d="M26.13,37.54c.07.02.04.15.05.23h-.16c-.06-.18.08-.14.11-.23h0Z"/>
  <path class="cls-1" d="M25.61,37.3c.09.02.1-.05.1-.12.11.14-.02.21.05.41-.03.11-.1-.23-.16-.29h0Z"/>
  <g>
    <polygon class="cls-3" points="31.18 85.44 8.23 119.03 9.37 120.48 53.15 118.96 37.42 90.07 32.75 84.6 31.18 85.44 31.18 85.44"/>
    <path class="cls-2" d="M29.34,89.79c-.83.36-.24-.83-1.07-.47-.39.14-.18.83-1,.58-.32,1.37-.64,2.72-1.93,3.22-.31,1.44.73,1.38,1.15,2.03-1.81,1.32-1.82,5.56-5.01,4.15.29.77,1.25.81,1.39,1.76-.69.35-1.2.49-1.53.6,1.11.9-.29.68-.72,1.34-1.11,1.72-1.71,4.44-3.66,4.87-.07,1.25-.53,2.17-1.71,2.43.66,1.35-.38.18-.74.82,1.67.32-1.07,1.14.09,1.82-1.85.39-1.4,2.87-2.68,3.78-.17-.45.24-1.54-.33-1.55,0,.41.08.9-.49.81-.27.86.85.15.57,1.01-1.08.27-.88,1.69-1.44,2.42,2.71-.6,7.11-.64,10.14-.5.05-.2-.02-.51.23-.53,10.08.92,18.12-.65,30.43-.98-.56-2.73-2.98-4.04-3.92-5.54-.31-2.31-2.5-2.54-2.59-5.08-1.17.17-1-.93-.86-1.52-1.04.02-1.97-1.66-1.14-2.03-.81.44-.87-.15-1.58-.44-1.88-5.68-6.37-9.68-8.52-14.17.01.26-.44.35-.52.02.32-.04.61-.11.5-.54-.73.25-.69-.33-1.32-.19-1.26,1.76-1.82,4.14-3.92,5.14.55.89-.19,1.27-.68,1.86-.32-1.03-.06-2.03.38-2.89.43-.02.18.72.56.76.06-1.12.95-3.24,1.71-2.17-.03-.36.09-.58.22-.79h0ZM44.52,101.81c1.54.22,1.13,2.58,2.74,2.73.04,1.68.91,2.47,1.97,3.02-.12,1.78.89,2.31,1.96,2.77.12.44-.18.5-.49.54.37.36,1.22.6.58,1.28.2-.15.42-.29.76-.3.12.52-.01.82-.48.8.52.67,2.02,2.08,1.17,2.55.27.44.84.53,1.58.44.15,2.13,1.32,3.12,1.31,5.41-.25-.15-.98-.56-.76.3-.47-.49-1.81-.01-1.87-.95-.57,1.02-1.78-.68-3.09.67-.79.13-.58-.82-.85-1.26-.74.26.37.64.07,1.3-.2-.17-.88-1.05-.78.04-3.63-.25-9.02-.27-12.24.08-.01-.26-.03-.51-.04-.78-1.17.69-2.55.83-3.64.18-.7,1.02-5.54,1.05-7.02.35-2.86,1.64-9.21.09-10.59,1.82-2.24-1.26-6.1.17-8.9-.86-.26-.82.17-1,.46-1.33-1.05-.04-.44-.2-.61-1.79,1.21-.39,1.71-1.42,1.68-2.95,1.21.19.52-1.34,1.77-1.13-.23-.79-.21-.49-.07-1.3,1.77.2.7-2.18,2.23-2.19-.18-.26-.61-.24-.56-.76,1.05.29.49-.88,1.53-.6-.02-.43-.04-.87-.06-1.3.22-.21.58-.31,1.02-.31,1.53-3.92,4.38-6.63,6-10.46.9-.02,1.18-.58.97-1.61.76.03.76-.63,1.53-.59.63-3.48,3.95-4.54,4.55-8.05,2.85-.64,2.17-4.48,4.95-5.19-.18-.26-.61-.24-.56-.75.86-.06,1.27-.51,2.33-.38,1.16.82-.3,1.34,1.36,1.23-1.07,1.18.34,4.61,1.51,4.09.38.07.07,1.97,1.39,1.76-.14.8.32.93.35,1.54,3.34,2.79,3.98,8.57,7.33,11.36.12.44-.18.5-.5.55h0Z"/>
    <text class="cls-5" transform="translate(20.52 115.11) scale(.79 1)"><tspan x="0" y="0">40</tspan></text>
  </g>
</svg>