<?xml version="1.0" encoding="UTF-8"?>
<svg id="Layer_1" data-name="Layer 1" xmlns="http://www.w3.org/2000/svg" xmlns:xlink="http://www.w3.org/1999/xlink" viewBox="0 0 180 200">
  <defs>
    <style>
      .cls-1 {
        fill: url(#linear-gradient-8);
      }

      .cls-2 {
        fill: url(#linear-gradient-7);
      }

      .cls-3 {
        fill: url(#linear-gradient-5);
      }

      .cls-4 {
        fill: url(#linear-gradient-6);
      }

      .cls-5 {
        fill: url(#linear-gradient-9);
      }

      .cls-6 {
        fill: url(#linear-gradient-4);
      }

      .cls-7 {
        fill: url(#linear-gradient-3);
      }

      .cls-8 {
        fill: url(#linear-gradient-2);
      }

      .cls-9 {
        fill: url(#linear-gradient);
      }

      .cls-10, .cls-11 {
        fill-rule: evenodd;
      }

      .cls-10, .cls-12 {
        fill: #231f20;
      }

      .cls-13 {
        fill: #1a5865;
      }

      .cls-11 {
        fill: #f48668;
      }

      .cls-14 {
        fill: url(#linear-gradient-10);
      }

      .cls-15 {
        fill: url(#linear-gradient-11);
      }

      .cls-16 {
        fill: url(#linear-gradient-12);
      }

      .cls-17 {
        letter-spacing: -.02em;
      }

      .cls-12 {
        font-family: AmericanTypewriter-Bold, 'American Typewriter';
        font-size: 19.28px;
        font-weight: 700;
      }

      .cls-18 {
        letter-spacing: .02em;
      }
    </style>
    <linearGradient id="linear-gradient" x1="144.77" y1="116.01" x2="144.77" y2="152.43" gradientUnits="userSpaceOnUse">
      <stop offset=".05" stop-color="#6fcbdb"/>
      <stop offset="1" stop-color="#e4da59"/>
    </linearGradient>
    <linearGradient id="linear-gradient-2" x1="73.93" y1="58.75" x2="73.93" y2="107.24" xlink:href="#linear-gradient"/>
    <linearGradient id="linear-gradient-3" x1="136.52" y1="59.2" x2="136.52" y2="106.62" xlink:href="#linear-gradient"/>
    <linearGradient id="linear-gradient-4" x1="128.58" y1="115.97" x2="128.58" y2="152.5" xlink:href="#linear-gradient"/>
    <linearGradient id="linear-gradient-5" x1="102.69" y1="116.34" x2="102.69" y2="152.53" xlink:href="#linear-gradient"/>
    <linearGradient id="linear-gradient-6" x1="161.93" y1="116.34" x2="161.93" y2="152.53" xlink:href="#linear-gradient"/>
    <linearGradient id="linear-gradient-7" x1="116.35" y1="58.62" x2="116.35" y2="107.77" xlink:href="#linear-gradient"/>
    <linearGradient id="linear-gradient-8" x1="88.08" y1="115.9" x2="88.08" y2="152.57" xlink:href="#linear-gradient"/>
    <linearGradient id="linear-gradient-9" x1="95.47" y1="58.86" x2="95.47" y2="107.07" xlink:href="#linear-gradient"/>
    <linearGradient id="linear-gradient-10" x1="72.01" y1="116.55" x2="72.01" y2="152.51" xlink:href="#linear-gradient"/>
    <linearGradient id="linear-gradient-11" x1="115.68" y1="116.24" x2="115.68" y2="152.3" xlink:href="#linear-gradient"/>
    <linearGradient id="linear-gradient-12" x1="158.23" y1="58.75" x2="158.23" y2="107.24" xlink:href="#linear-gradient"/>
  </defs>
  <polygon class="cls-11" points="28.83 86.44 5.88 120.03 7.03 121.48 50.8 119.96 35.08 91.08 30.4 85.61 28.83 86.44 28.83 86.44"/>
  <path class="cls-10" d="M26.99,90.8c-.83.36-.24-.83-1.07-.47-.39.14-.18.83-1,.58-.32,1.37-.64,2.72-1.93,3.22-.31,1.44.73,1.38,1.15,2.03-1.81,1.32-1.82,5.56-5.01,4.15.29.77,1.25.81,1.39,1.76-.69.35-1.2.49-1.53.6,1.11.9-.29.68-.72,1.34-1.11,1.73-1.71,4.44-3.66,4.87-.07,1.26-.53,2.17-1.71,2.43.66,1.35-.38.18-.74.82,1.67.32-1.07,1.14.09,1.82-1.85.39-1.4,2.87-2.68,3.78-.17-.45.24-1.54-.33-1.55,0,.41.08.9-.49.81-.27.86.85.15.57,1.01-1.08.27-.88,1.69-1.44,2.42,2.71-.6,7.11-.64,10.14-.5.05-.2-.02-.51.23-.54,10.08.93,18.12-.64,30.43-.98-.56-2.73-2.98-4.04-3.92-5.54-.31-2.31-2.5-2.54-2.59-5.08-1.17.17-1-.93-.86-1.52-1.04.02-1.97-1.66-1.14-2.03-.81.44-.87-.15-1.58-.44-1.88-5.68-6.37-9.68-8.52-14.17.01.26-.44.35-.52.02.32-.04.61-.11.5-.54-.73.25-.69-.33-1.32-.19-1.26,1.76-1.82,4.14-3.92,5.14.55.89-.19,1.27-.68,1.86-.32-1.03-.06-2.03.38-2.89.43-.02.18.71.56.75.06-1.12.95-3.25,1.71-2.17-.03-.36.09-.58.22-.79h0ZM42.18,102.81c1.54.22,1.13,2.58,2.74,2.73.04,1.68.91,2.47,1.97,3.03-.12,1.78.88,2.31,1.96,2.77.12.44-.18.5-.49.54.37.36,1.23.6.58,1.28.2-.15.42-.29.76-.3.12.52-.01.82-.48.81.52.66,2.01,2.08,1.17,2.55.27.44.84.53,1.58.44.15,2.13,1.32,3.12,1.31,5.41-.25-.15-.98-.56-.76.3-.47-.49-1.81-.01-1.87-.95-.57,1.02-1.78-.68-3.09.67-.79.13-.58-.82-.85-1.26-.74.26.37.64.07,1.3-.2-.17-.88-1.05-.78.04-3.63-.25-9.02-.27-12.24.08-.01-.26-.03-.51-.04-.78-1.17.69-2.55.83-3.64.18-.7,1.01-5.54,1.05-7.02.35-2.86,1.64-9.21.1-10.59,1.82-2.24-1.26-6.1.17-8.9-.86-.26-.82.17-1,.46-1.33-1.05-.04-.44-.2-.61-1.79,1.21-.39,1.71-1.42,1.68-2.95,1.21.19.52-1.34,1.77-1.13-.23-.79-.21-.49-.07-1.3,1.77.2.7-2.18,2.23-2.19-.18-.26-.61-.24-.56-.76,1.05.29.49-.88,1.53-.6-.02-.43-.04-.87-.06-1.3.22-.21.58-.31,1.02-.31,1.53-3.92,4.38-6.63,6-10.46.9-.02,1.18-.58.97-1.61.76.03.76-.63,1.53-.6.63-3.48,3.95-4.54,4.55-8.04,2.85-.64,2.17-4.48,4.95-5.19-.18-.26-.61-.24-.56-.75.86-.06,1.27-.51,2.33-.38,1.16.82-.3,1.34,1.36,1.23-1.07,1.18.34,4.61,1.51,4.09.38.07.07,1.97,1.38,1.76-.14.8.32.93.35,1.54,3.34,2.79,3.98,8.57,7.33,11.36.12.44-.18.5-.5.55h0Z"/>
  <text class="cls-12" transform="translate(18.18 115.2) scale(.79 1)"><tspan class="cls-17" x="0" y="0">4</tspan><tspan class="cls-18" x="12.15" y="0">1</tspan></text>
  <g>
    <path class="cls-13" d="M55.64,55.41s-1.01,44.89-.68,47.59.51,27.51.68,30.21.68,16.37.68,16.88.51,4.22.68,4.89-1.18,2.19,1.52,2.36c2.7.17,17.55.68,19.75.68s45.9-.17,49.28-.17,20.76.51,24.64.34c3.88-.17,13.67-1.18,15.02-1.35s5.4-1.01,5.74-2.36.34-3.71.17-7.26c-.17-3.54-.51-35.27-.17-37.47s.17-9.28.34-20.25c.17-10.97.17-21.26.17-25.15s-.17-5.23-.51-6.24-1.18-3.38-2.03-3.38-1.86.17-7.43-.17c-5.57-.34-62.95,0-67.34-.17-4.39-.17-27,.68-30.88.51-3.88-.17-9.11-.51-9.62.51Z"/>
    <path d="M148.48,131.1c.08-.44.23-.89.22-1.33-.06-3.4-.1-6.8-.27-10.2-.04-.77-.44-1.59-.86-2.27-.71-1.14.03-1.89,1.04-1.89,1.18,0,2.37.09,3.54.27,1.1.16,1.43.89.89,1.91-1.3,2.51-1.92,5.21-2.25,7.99-.08.66-.04,1.34-.03,2,.02,2.06.18,4.13.05,6.18-.35,5.5.07,10.91,1.46,16.25.05.2.14.39.18.59.33,1.51-.55,2.48-2.13,2.36-1.97-.15-3.38-1.09-4.22-2.9-.9-1.94-1.36-4.01-1.59-6.11-.3-2.66-.48-5.33-.64-8.01-.25-4.22-.43-8.44-.69-12.65-.05-.82-.04-1.75-1.04-2.42-.05.32-.11.49-.11.66.09,4.79.17,9.58.3,14.37.11,4.28.5,8.54,1.24,12.76.13.73.56,1.42.89,2.11.21.44.51.85.85,1.42-.59.21-1.01.48-1.42.49-2.11.04-4.22.04-6.32-.04-.43-.02-1.09-.36-1.21-.71-.12-.34.2-1.02.53-1.29,1.1-.91,1.53-2.07,1.51-3.41-.03-1.85,0-3.72-.23-5.55-.69-5.31-.54-10.6.07-15.89.33-2.83.29-5.53-1.25-8.07-.7-1.15-.18-1.84,1.2-1.83.88,0,1.75.04,2.63.12,2,.18,3.49,1.17,4.42,2.96,1.32,2.55,2.07,5.26,2.36,8.11.14,1.36.39,2.7.58,4.05.11,0,.21-.01.32-.02ZM141.7,119.69c.36.21.59.31.77.47,1.03.88,1.25,2.09,1.31,3.35.22,4.43.36,8.86.65,13.28.2,3.08.49,6.17.98,9.21.25,1.54.91,3.05,1.58,4.49.68,1.47,2.12,1.89,3.62,1.94,1.08.03,1.55-.65,1.31-1.72-.04-.2-.11-.4-.17-.59-1.35-4.76-1.64-9.64-1.61-14.55.01-2.37.28-4.75.13-7.1-.17-2.68.18-5.24.98-7.77.43-1.36.99-2.67,1.56-4.18-1.69-.38-3.27-.74-4.94-.29.42,1.17.92,2.15,1.11,3.19.2,1.1.11,2.26.15,3.39.02.52.07,1.03.06,1.55-.03,2.27-.07,4.53-.14,6.8-.01.4-.19.8-.3,1.21-.14.01-.28.03-.41.04-.25-.52-.63-1.01-.74-1.56-.28-1.41-.47-2.84-.63-4.28-.29-2.54-1.01-4.94-2.16-7.21-.52-1.04-1.25-1.93-2.36-2.35-1.61-.61-3.31-.63-5.01-.45-.07,0-.12.15-.18.23,0,.1-.02.21-.01.3.01.1.04.21.09.29,1.73,2.74,1.71,5.7,1.35,8.81-.52,4.51-.63,9.04-.22,13.59.24,2.61.33,5.24.42,7.87.04,1.29-.45,2.41-1.47,3.27-.25.21-.4.53-.7.94,2.65.7,5.1.54,7.59.17-.49-1.2-1.1-2.19-1.29-3.25-.89-5.14-1.21-10.34-1.33-15.54-.09-4.07-.14-8.14-.19-12.21,0-.39.1-.78.18-1.31Z"/>
    <path d="M66.2,64.41c-1.58.07-2.14-.26-2.6-1.4-.45-1.1-.19-2.34.69-3.11.73-.63,1.58-.94,2.55-.98,1.29-.05,2.58-.1,3.86-.18.77-.05,1.58-.05,2.29-.3,2.01-.71,3.79.02,5.49.85,1.2.58,1.79,1.88,2.16,3.1.62,2.07,1.19,4.16,1.53,6.29.77,4.73,1.41,9.48,2.07,14.22.12.86.14,1.75.16,2.62.12,4.84.29,9.69.32,14.53.01,1.79-.27,3.59-.48,5.38-.17,1.42-.53,1.73-2.02,1.72-2.33,0-4.62-.27-7.01-.89,0-.7-.07-1.41.02-2.09.12-.92.36-1.82.58-2.72,1.51-6.25,2.05-12.61,2.03-19.01,0-2.41-.45-4.81-.71-7.22-.04-.36-.12-.71-.23-1.06-.2-.67-.49-1.24-1.31-1.34-.88-.1-1.22.49-1.42,1.14-.83,2.65-1.68,5.3-2.41,7.98-1.62,6-.97,11.97.51,17.88.32,1.28.96,2.49,1.53,3.7.47,1.01.83,1.99.45,3.12-.19.55-.49.86-1.07.95-2.45.35-4.83.1-7.15-.73-.87-.31-1.42-1.01-1.71-1.89-.57-1.76-1.13-3.52-1.05-5.43.08-1.85.03-3.71.02-5.57-.04-6.55,1.15-12.91,2.7-19.24.87-3.55,1.7-7.11,2.46-10.69.16-.77.09-1.66-.15-2.41-.33-1.03-1.36-1.09-2.04-.24-.74.92-.54,1.9-.09,3.01ZM75.48,105.69c2.49.34,4.67.67,6.87.91.93.1,1.3-.27,1.44-1.22.16-1.12.38-2.25.38-3.37.02-3.81,0-7.63-.08-11.44-.07-2.99-.08-5.99-.45-8.95-.63-5.06-1.49-10.09-2.3-15.12-.31-1.94-.9-3.8-1.92-5.51-.53-.88-1.23-1.47-2.24-1.77-1.4-.42-2.71-.65-4.23-.31-1.69.38-3.48.31-5.23.39-1.1.05-2.16.19-3.05.91-.67.54-.87,1.26-.76,2.08.1.72.39,1.32,1.12,1.59.12-.83.17-1.54.35-2.22.29-1.11.93-1.59,1.85-1.5.95.09,1.71.82,1.74,1.85.03.97.02,1.98-.18,2.92-.75,3.42-1.65,6.81-2.37,10.23-.79,3.72-1.55,7.46-2.16,11.22-.69,4.29-.52,8.63-.56,12.96-.02,1.91.5,3.66,1.06,5.42.3.96.96,1.66,1.93,1.82,1.82.3,3.66.58,5.5.64,1.55.05,2.01-.64,1.75-2.17-.07-.4-.21-.81-.42-1.15-1.21-2.02-1.82-4.25-2.25-6.54-1.01-5.38-1.28-10.74.2-16.08.43-1.54.81-3.09,1.27-4.62.33-1.08.75-2.14,1.17-3.19.28-.71.73-1.24,1.62-1.15.87.08,1.45.51,1.7,1.34.17.54.34,1.09.39,1.65.24,3.08.56,6.16.62,9.24.05,2.41-.12,4.85-.41,7.25-.38,3.16-.97,6.3-1.49,9.45-.23,1.4-.54,2.8-.85,4.43Z"/>
    <path d="M139.55,73.58c.06.23.07.29.1.33,2.47,3.2,2.98,6.88,2.92,10.8-.08,4.9.4,9.77,1.25,14.6.35,1.99,1.03,3.88,2.23,5.55.15.21.27.44.36.68.28.75.12,1.16-.63,1.21-.75.05-1.56-.01-2.26-.26-1.28-.46-2.5-.44-3.78-.03-1.19.39-1.38.31-1.97-.76-1.28-2.31-1.72-4.85-1.89-7.43-.23-3.41.15-6.77.75-10.14.53-2.98.76-6.02,1.07-9.04.11-1.12-.26-2.14-1.07-2.96-.62-.64-1.18-.61-1.59.18-.33.63-.55,1.34-.7,2.03-.19.85-.32,1.73-.36,2.6-.17,3.76-.4,7.51-.41,11.27-.01,4.16.8,8.18,2.4,12.04.35.83.58,1.71.94,2.81-.72,0-1.18.11-1.56-.02-1.77-.57-3.55-.48-5.35-.21-.25.04-.51.09-.76.12-2.39.28-3.33-.66-2.57-2.94,1.11-3.35,1.06-6.8,1.32-10.23.14-1.85.26-3.7.32-5.55.08-2.57.11-5.15.13-7.72.04-4.22.06-8.45.07-12.67,0-1.54-.03-3.09-.13-4.63-.03-.49-.32-.96-.51-1.43-.15-.38-.4-.73-.5-1.12-.26-1.05.11-1.57,1.19-1.62,2.47-.12,4.93-.2,7.4-.27,1.8-.05,3.61-.05,5.41-.04,1.16,0,1.46.32,1.09,1.39-.48,1.39-.15,2.58.36,3.88.48,1.23.81,2.54.99,3.85.24,1.67-.5,3-1.89,3.97-.8.56-1.57,1.15-2.4,1.77ZM127.65,59.68c.19.65.24,1.18.49,1.58.61.96.81,1.97.81,3.08,0,6.19.12,12.37.02,18.55-.07,4.37-.42,8.74-.64,13.12-.13,2.52-.24,5.04-1.05,7.47-.16.48-.13,1.03-.29,1.51-.26.8.18,1.2.8,1.41.42.14.92.15,1.35.07,2.21-.39,4.4-.49,6.58.15.11.03.27-.08.51-.16-.15-.47-.25-.92-.42-1.33-2.12-4.92-2.9-10.07-2.74-15.39.06-2.11.17-4.22.33-6.33.13-1.8.32-3.59.57-5.37.09-.65.33-1.31.64-1.89.63-1.22,1.5-1.28,2.43-.28.9.97,1.26,2.15,1.14,3.42-.27,2.82-.48,5.66-1.02,8.43-.72,3.67-1.05,7.34-.79,11.06.15,2.16.56,4.29,1.57,6.25.23.44.53.83.77,1.19,2.71-.71,2.71-.69,5.44,0,.56.14,1.17.07,1.95.11-.2-.55-.26-.91-.45-1.18-1.73-2.49-2.43-5.33-2.74-8.28-.54-5.07-1.02-10.15-.94-15.26.03-2-.52-3.87-1.58-5.57-.51-.81-1.01-1.63-1.55-2.52,1.01-.75,1.95-1.46,2.91-2.15,1.3-.93,1.87-2.22,1.62-3.76-.2-1.2-.55-2.4-1-3.54-.52-1.33-.93-2.62-.32-4.03.08-.18.06-.4.11-.8-4.78.25-9.51-.47-14.52.44Z"/>
    <path d="M128.13,121.65c.18,0,.32-.03.46,0,1.12.27,1.41.12,1.63-.9.22-1.01-.02-1.7-.68-2.01-.75-.34-1.42-.06-2.04.9-.19.3-.37.63-.48.97-1.31,4.14-1.9,8.33-.78,12.63.3,1.17,1,2.02,2.05,2.59.81.43,1.52.33,2.13-.24,1.44-1.35,1.69-5.85.35-7.6-.28.17-.58.34-.85.53-.33.24-.62.55-.97.75-.98.53-1.45.3-1.55-.79-.05-.51,0-1.03.05-1.54.12-1.04.66-1.74,1.75-1.83,1.28-.11,2.57-.26,3.85-.2,1.47.07,2.08.66,2.18,2.11.1,1.48-.03,2.98-.09,4.47-.05,1.08-.17,2.15-.22,3.23-.11,2.37-.18,4.74-.31,7.1-.15,2.58-.04,5.15.37,7.71.46,2.91.1,3.38-2.88,3.46-1.48.04-2.98-.08-4.46-.27-1.47-.19-2.57-1.04-3.23-2.38-1.34-2.75-2.36-5.59-2.35-8.72,0-2.32-.19-4.64-.08-6.96.14-3.14.5-6.26.73-9.39.12-1.54.23-3.09.23-4.63,0-.64-.3-1.29-.5-1.92-.57-1.83.18-2.92,2.1-3.01,2.47-.11,4.93-.22,7.4-.32.36-.01.73,0,1.07.09.68.18,1.15.65.87,1.37-.4,1.05.02,1.91.39,2.81.18.43.41.84.53,1.28.42,1.6-.57,3.13-2.18,3.23-1.82.12-3.31-.6-4.42-2.07-.07-.1-.03-.28-.05-.47ZM133.43,116.21c-.56-.1-1-.26-1.42-.24-2.52.09-5.04.2-7.55.33-1.41.08-1.92.83-1.52,2.19.17.59.5,1.17.51,1.76.02,1.59.03,3.21-.18,4.78-.45,3.48-.84,6.96-.79,10.47.03,2.06.05,4.12.08,6.19.04,3.07,1.05,5.86,2.43,8.54.53,1.02,1.4,1.62,2.51,1.9,1.88.47,3.79.42,5.69.22.89-.1,1.27-.52,1.32-1.41.03-.51-.04-1.03-.13-1.53-.4-2.45-.49-4.92-.36-7.4.12-2.42.2-4.84.32-7.26.05-.98.15-1.95.2-2.93.07-1.54.23-3.09.15-4.62-.07-1.27-.53-1.68-1.75-1.72-1.23-.05-2.47.06-3.69.21-.39.05-.9.39-1.06.74-.36.78-.58,1.64.02,2.67.51-.36.96-.65,1.37-1,1.19-1,2.17-.76,2.39.79.2,1.41.14,2.87.07,4.31-.03.65-.29,1.31-.58,1.91-.81,1.66-2.33,2.02-3.85.98-1.08-.74-1.68-1.77-1.96-3.03-.94-4.25-.45-8.41.89-12.49.22-.66.65-1.29,1.11-1.83.56-.67,1.36-.79,2.1-.47.74.32,1.09.93,1.07,1.87-.02,1.03-.43,1.86-1.52,2.59.88.34,1.52.65,2.19.84.96.27,1.87.1,2.5-.74.56-.74.4-1.55.03-2.34-.61-1.31-1.24-2.61-.57-4.27Z"/>
    <path d="M103.14,120.09c.27.01.32,0,.37.02.5.21,1.02.36,1.31-.28.21-.45-.21-.92-.97-1.14-1.3-.38-2.62.12-3.02,1.16-.5,1.26.15,2.83,1.42,3.36.47.2.97.35,1.47.48,1.8.46,2.87,1.67,3.66,3.28,1.28,2.65,1.92,5.43,2,8.35.08,3.09.12,6.18.14,9.28.01,1.89-.42,3.69-1.31,5.35-1.66,3.1-4.42,4.13-7.6,2.16-2.47-1.53-3.84-3.61-4.18-6.48-.55-4.68-.84-9.34.04-14.01.15-.81.23-1.71,1.13-2.06,1.1-.42,2.24-.31,3.32.12.59.24.6.82.35,1.32-.25.5-.61.95-.89,1.44-.48.86-.33,1.58.41,2.19,1.51,1.25,2.8,1.06,3.89-.57,1.34-2.01.39-5.53-1.82-6.54-.48-.22-1.09-.23-1.64-.2-.97.07-1.94.31-2.91.37-1.24.09-1.78-.3-1.85-1.54-.07-1.38.02-2.78.17-4.15.17-1.51.23-2.94-.52-4.36-.55-1.04-.07-1.71,1.09-1.75,2.01-.08,4.02-.19,6.02-.15,1.12.02,2.23.31,3.34.53.92.18,1.5.84,1.51,1.73.01,1.17-.08,2.36-.34,3.49-.2.89-1.36,1.65-2.09,1.56-1.05-.12-1.78-.78-2.25-1.69-.18-.34-.17-.78-.27-1.3ZM100.93,130.44c-2.46-1.22-3.68-.64-4.07,1.77-.02.15-.03.31-.06.46-.63,4.16-.38,8.32.06,12.48.3,2.84,1.56,5,4.1,6.51,2.81,1.66,5.06.9,6.63-1.77.93-1.58,1.38-3.33,1.36-5.17-.02-3.24-.04-6.49-.14-9.73-.08-2.76-.79-5.37-2.02-7.86-.7-1.41-1.66-2.46-3.24-2.86-.6-.15-1.19-.34-1.75-.6-1.91-.89-2.31-3.75-.73-5.07.99-.82,2.12-.7,3.23-.37.67.2,1.18.65,1.17,1.45,0,.77-.53,1.05-1.17,1.21-.12.03-.22.14-.4.26.23.28.39.55.62.74,1.12.95,2.27.66,2.76-.75.2-.58.29-1.21.33-1.82.13-1.69-.35-2.33-2.02-2.71-.65-.15-1.32-.29-1.98-.27-2.26.05-4.52.16-6.78.26-.08,0-.15.12-.3.25.04.19.02.47.13.67.79,1.32.8,2.73.58,4.19-.15.97-.24,1.94-.32,2.92-.04.46-.02.93.05,1.38.17,1,.43,1.2,1.47,1.12.67-.05,1.33-.14,1.99-.25,2.39-.4,3.51.12,4.7,2.21,1.21,2.13.96,4.48-.66,6.14-1.08,1.11-2.49,1.07-4.02-.11-1.08-.83-1.2-1.99-.37-3.27.29-.45.55-.93.83-1.41Z"/>
    <path d="M107.12,90.96c.18-1.09.4-3.2.91-5.24,1.26-5,3.26-9.64,6.86-13.49,1.37-1.46,2.5-3.13,3.71-4.73.56-.74.63-1.61.56-2.51-.16-2.06-1.71-3.26-3.74-2.9-1.24.22-2,1.78-1.38,2.89.12.21.45.37.71.42.09.02.37-.36.37-.56,0-.48-.08-.98.59-1.04.63-.05.91.4,1.1.9.55,1.44.35,3.15-1.49,3.81-.73.26-1.42.62-2.15.86-1.94.63-3.4-.27-3.69-2.28-.23-1.56-.16-3.09.64-4.5.42-.74.55-1.5.35-2.37-.27-1.13,0-1.55,1.15-1.69.84-.1,1.74-.01,2.58.15,2.08.41,4.14.96,6.25.28.74-.24,1.45-.55,2.19-.75,1.26-.35,1.76-.03,1.91,1.24.06.55.07,1.16-.09,1.68-1.98,6.31-1.78,12.81-1.74,19.31.04,6.08,1.18,11.97,2.37,17.89.4,2,.75,4.06.08,6.11-.52,1.6-1.43,2.23-3.03,1.77-1.1-.31-1.92,0-2.71.65-.86.7-1.77,1.21-2.9,1.33-1.82.2-3.34-.34-4.64-1.61-1.32-1.28-2.3-2.77-2.97-4.47-1.29-3.26-1.79-6.65-1.81-11.15ZM115.83,64.17c-.07.41-.11.6-.13.8-.07.57-.33,1.1-.93.98-.43-.08-.97-.45-1.16-.84-.79-1.62.37-3.46,2.17-3.58,2.05-.13,3.62,1.13,3.88,3.17.13.99.06,1.97-.52,2.83-.66.98-1.32,1.97-2.05,2.9-1.55,1.99-3.23,3.88-4.71,5.92-1.61,2.24-2.44,4.85-3.3,7.46-1.82,5.51-1.98,11.01-.25,16.56.7,2.25,1.73,4.29,3.49,5.92,1.3,1.21,2.8,1.8,4.53,1.31.81-.23,1.57-.71,2.31-1.16,1.12-.69,2.13-1.5,3.63-.83.92.42,1.52-.02,1.87-1.05.64-1.87.49-3.78.09-5.65-1.46-6.87-2.57-13.76-2.56-20.82,0-5.69.09-11.34,1.79-16.83.05-.15.07-.3.1-.45.32-2.13-.22-2.63-2.19-1.85-2.1.84-4.2.94-6.37.43-.65-.15-1.3-.33-1.96-.43-.96-.15-1.94-.27-2.74.46.3,1.86.29,1.85-.55,3.88-.53,1.28-.61,2.6-.27,3.94.39,1.54,1.36,2.13,2.88,1.69.74-.21,1.44-.55,2.15-.85,1.76-.76,2.07-1.95.81-3.92Z"/>
    <path d="M94.61,143.76c.15,1.4-.15,3.37-.76,5.3-.77,2.44-3.83,4.78-6.99,3.93-.43-.12-.86-.37-1.2-.66-1.54-1.28-2.67-2.83-3.14-4.83-.52-2.21-.88-4.43-.94-6.71-.13-4.86.11-9.68.94-14.47.28-1.6.2-3.16,0-4.76-.18-1.37-.26-2.77-.26-4.15,0-1.4.3-1.48,1.64-1.51,1.74-.04,3.48-.31,5.22-.45.97-.08,1.96-.19,2.92-.09,1.13.11,1.64.83,1.21,1.83-.59,1.37-.24,2.63.13,3.91.23.79.51,1.57.89,2.3.67,1.28.42,2.49-.11,3.71-.26.61-.74.85-1.37.73-1.06-.2-2.11-.47-3.18-.64-.75-.12-1.55-.22-2.29-.12-2.09.29-2.84,1.39-2.47,3.45.32,1.76.95,3.38,2.36,4.57,1.52,1.29,2.73.99,3.46-.86.26-.67.4-1.39.68-2.05.15-.35.51-.89.71-.87.38.05.83.37,1.06.71.31.45.52,1.01.64,1.55.22.95.41,1.92.48,2.89.16,2.21.23,4.42.38,7.27ZM82.75,116.78c.09,1.47.12,3.01.31,4.52.21,1.64.36,3.26.07,4.92-.85,4.89-1.23,9.83-.91,14.78.14,2.15.54,4.28.92,6.41.33,1.86,1.48,3.26,2.9,4.44.31.26.69.49,1.07.58,2.68.64,5.04-.99,6.04-3.2.67-1.5.98-3.14.9-4.83-.14-2.73-.22-5.46-.4-8.18-.06-.97-.3-1.93-.56-2.87-.13-.49-.49-.91-.89-1.63-.25.67-.38.99-.5,1.32-.27.72-.46,1.49-.82,2.16-.71,1.34-1.94,1.67-3.26.92-.4-.23-.78-.51-1.1-.83-1.69-1.72-2.31-3.85-2.34-6.2,0-.74.36-1.23.94-1.66,1.39-1.04,2.92-1.2,4.55-.84.75.16,1.5.38,2.26.51,1.56.27,1.93.01,2.09-1.58.05-.53-.09-1.11-.25-1.64-.19-.64-.54-1.23-.74-1.87-.51-1.61-1.16-3.21-.37-4.94.28-.6-.1-1.03-.7-1.09-.66-.07-1.34-.09-2-.02-2.29.24-4.58.53-7.21.84Z"/>
    <path d="M96.57,107.65c-.7-.2-1.44-.43-2.19-.6-1.25-.28-2.5-.61-3.78-.75-.79-.09-1.62.1-2.42.25-.6.11-1.2.44-1.71-.17-.49-.6-.64-1.28-.43-2.03.04-.15.12-.28.21-.41,1.52-2.33,1.86-4.99,2.1-7.67.66-7.61.8-15.24.35-22.87-.17-2.87-.6-5.73-1.03-8.58-.14-.94-.69-1.82-1.01-2.73-.27-.77-.6-1.55-.68-2.34-.1-1.07.55-1.58,1.56-1.23,2.4.82,4.78.42,7.19.13,1.68-.2,3.39-.25,5.09-.2,1.82.06,2.45,1.06,1.85,2.76-.23.66-.1,1.19.22,1.75.63,1.13,1.14,2.29,1.17,3.64.03,1.2-.39,2.1-1.42,2.71-.22.13-.44.27-.66.41-1.49.91-1.4.86-.53,2.44,1.09,1.97,2.78,3.63,3.23,5.94.48,2.42,1.15,4.83,1.34,7.28.18,2.24-.13,4.53-.3,6.79-.22,2.93-.49,5.85-.81,8.77-.1.91-.38,1.82-.69,2.69-.68,1.9-2,3.05-4.04,3.37-.86.13-1.68.44-2.6.68ZM87.21,106.33c2.35-1.09,4.65-.48,6.95.13.35.09.69.2,1.03.33.9.34,1.78.41,2.7,0,.46-.21.99-.28,1.5-.37,1.55-.28,2.68-1.14,3.19-2.61.44-1.25.75-2.57.98-3.87.54-3.05.54-6.15.78-9.23.28-3.68.26-7.29-.69-10.88-.49-1.86-1.02-3.65-2.2-5.22-.71-.94-1.3-1.98-1.9-3-.48-.82-.38-1.26.41-1.84.41-.3.89-.52,1.32-.81,1.23-.81,1.58-1.57,1.25-3.02-.18-.79-.45-1.6-.83-2.31-.52-.96-.78-1.84-.33-2.92.34-.82-.02-1.4-.86-1.67-.34-.11-.71-.19-1.06-.17-1.8.09-3.61.13-5.39.34-1.91.23-3.8.34-5.7.03-.63-.1-1.44-.71-1.81,0-.26.51.09,1.35.21,2.03.03.19.19.36.27.55.39,1,.85,1.99,1.13,3.02.93,3.46.97,7.04,1.13,10.59.33,7.37.09,14.74-.59,22.09-.2,2.16-.59,4.3-1.79,6.18-.58.9-.64,1.71.31,2.63Z"/>
    <path d="M79.65,135.61c-.28,3.59-.55,7.18-.86,10.77-.06.71-.21,1.44-.46,2.11-.76,2.08-2.18,3.5-4.41,3.9-1.11.2-2.25.25-3.37.35-1.38.13-2.77.22-4.14.4-.69.09-1.37.21-1.83-.43-.51-.71-.26-1.42.26-1.97,1.54-1.65,1.71-3.67,1.7-5.76,0-4.69-.13-9.39.06-14.07.12-3.15.18-6.29-.33-9.4-.21-1.25-.76-2.44-1.1-3.67-.13-.46-.24-1.04-.06-1.43.1-.22.8-.19,1.24-.22.92-.05,1.86.05,2.77-.1,3.75-.6,7.19,1.47,8.56,5.03,1.32,3.43,1.92,6.93,1.79,10.59-.05,1.29,0,2.58,0,3.87.07,0,.13,0,.2.01ZM65.55,152.51c.36-.04.76-.09,1.16-.13,1.28-.11,2.56-.19,3.83-.32,1.22-.13,2.46-.22,3.66-.47,1.97-.41,3.18-1.79,3.64-3.62.49-1.94.79-3.95.89-5.94.16-3.5.05-7.01.14-10.51.1-3.61-.54-7.06-1.85-10.42-1.02-2.61-3.92-4.67-6.58-4.54-1.68.08-3.35.22-5.13.34.09.25.2.56.31.88.37,1.12.9,2.22,1.06,3.36.27,1.93.4,3.9.41,5.85,0,2.42-.25,4.84-.25,7.26,0,3.61.18,7.21.16,10.82-.01,1.94-.05,3.94-1.49,5.53-.53.58-.44,1.22.06,1.92Z"/>
    <path d="M121,152.29c-2.47.19-4.82.42-7.17.53-.74.03-1.53-.2-2.25-.45-.56-.2-.97-.68-.63-1.34,1.74-3.38,1.51-7.1,1.82-10.72.27-3.13.55-6.27.59-9.41.05-3.7-.12-7.41-.27-11.11-.03-.64-.42-1.26-.64-1.89-.14-.39-.34-.76-.39-1.16-.1-.73.23-1.11.94-1.08,1.7.07,3.39.17,5.09.3.74.06,1.03.47.74,1.16-1.9,4.5-1.4,9.2-1.11,13.87.26,4.11.6,8.22,1.04,12.32.22,2.09.7,4.16,1.16,6.22.2.88.64,1.7,1.07,2.78ZM119.99,151.53c-1.11-3.67-1.73-7.15-2.03-10.7-.21-2.51-.4-5.03-.55-7.55-.18-3.08-.43-6.17-.41-9.25.02-2.14.11-4.33,1.01-6.36.14-.31.22-.65.41-1.23-1.09,0-2,.02-2.92,0-.94-.03-1.88-.11-3.08-.19.3.74.5,1.2.66,1.67.22.63.54,1.26.59,1.91.26,3.59.6,7.18.27,10.8-.27,3.03-.52,6.06-.66,9.09-.18,4-.24,8.01-1.93,11.97,2.91,1.11,5.66.53,8.62-.15Z"/>
    <path d="M154.6,88.67c-.14-.22-.27-.43-.41-.65.06-.04.13-.09.19-.13.15.21.3.41.46.62-.08.05-.16.11-.24.16Z"/>
    <path class="cls-9" d="M141.7,119.69c-.08.53-.18.92-.18,1.31.05,4.07.09,8.14.19,12.21.12,5.21.44,10.41,1.33,15.54.18,1.07.8,2.06,1.29,3.25-2.49.37-4.94.54-7.59-.17.3-.42.45-.73.7-.94,1.02-.86,1.51-1.98,1.47-3.27-.09-2.62-.18-5.25-.42-7.87-.41-4.54-.31-9.08.22-13.59.36-3.1.39-6.07-1.35-8.81-.05-.08-.08-.19-.09-.29-.01-.1,0-.2.01-.31.06-.08.11-.22.18-.23,1.7-.19,3.39-.17,5.01.45,1.11.42,1.84,1.31,2.36,2.35,1.15,2.28,1.87,4.68,2.16,7.21.16,1.43.35,2.86.63,4.28.11.55.49,1.04.74,1.56.14-.01.28-.03.41-.04.1-.4.28-.8.3-1.21.07-2.27.1-4.53.14-6.8,0-.51-.04-1.03-.06-1.55-.04-1.13.05-2.29-.15-3.39-.19-1.04-.69-2.02-1.11-3.19,1.67-.44,3.25-.09,4.94.29-.57,1.51-1.13,2.83-1.56,4.18-.8,2.52-1.15,5.09-.98,7.77.15,2.36-.12,4.74-.13,7.1-.03,4.91.26,9.79,1.61,14.55.06.2.12.39.17.59.24,1.08-.23,1.76-1.31,1.72-1.5-.05-2.94-.47-3.62-1.94-.66-1.44-1.33-2.94-1.58-4.49-.49-3.05-.77-6.13-.98-9.21-.29-4.42-.43-8.85-.65-13.28-.06-1.26-.28-2.47-1.31-3.35-.18-.16-.42-.26-.77-.47Z"/>
    <path class="cls-8" d="M75.48,105.69c.32-1.63.62-3.02.85-4.43.52-3.15,1.11-6.29,1.49-9.45.29-2.4.46-4.83.41-7.25-.06-3.08-.38-6.16-.62-9.24-.04-.56-.22-1.11-.39-1.65-.25-.83-.84-1.25-1.7-1.34-.89-.09-1.34.44-1.62,1.15-.42,1.05-.84,2.11-1.17,3.19-.47,1.53-.85,3.08-1.27,4.62-1.48,5.34-1.21,10.71-.2,16.08.43,2.29,1.04,4.51,2.25,6.54.21.35.35.76.42,1.15.26,1.53-.19,2.22-1.75,2.17-1.84-.06-3.68-.34-5.5-.64-.98-.16-1.63-.87-1.93-1.82-.56-1.76-1.08-3.52-1.06-5.42.05-4.33-.13-8.67.56-12.96.61-3.76,1.36-7.5,2.16-11.22.73-3.42,1.63-6.81,2.37-10.23.21-.94.21-1.95.18-2.92-.03-1.04-.79-1.76-1.74-1.85-.92-.09-1.56.39-1.85,1.5-.18.68-.22,1.39-.35,2.22-.73-.27-1.02-.87-1.12-1.59-.11-.81.09-1.54.76-2.08.89-.72,1.95-.86,3.05-.91,1.75-.08,3.54-.01,5.23-.39,1.51-.34,2.83-.11,4.23.31,1.01.3,1.71.89,2.24,1.77,1.02,1.71,1.61,3.57,1.92,5.51.81,5.03,1.67,10.06,2.3,15.12.37,2.96.38,5.96.45,8.95.09,3.81.1,7.62.08,11.44,0,1.13-.22,2.25-.38,3.37-.14.96-.51,1.33-1.44,1.22-2.19-.24-4.37-.58-6.87-.91ZM70.14,68.67c0,.31-.01.62,0,.93.03.67.02,1.46.85,1.61.68.12.92-.56,1.16-1.06.56-1.19,1.37-1.95,2.73-2.25,1.31-.28,1.87-1.15,1.77-2.52-.05-.69-.26-1.43-.61-2.03-.9-1.54-2.5-1.73-3.73-.46-1.55,1.59-2.17,3.58-2.16,5.77Z"/>
    <path class="cls-7" d="M127.65,59.68c5.01-.91,9.74-.18,14.52-.44-.05.4-.03.62-.11.8-.61,1.41-.2,2.69.32,4.03.45,1.14.8,2.34,1,3.54.25,1.54-.32,2.83-1.62,3.76-.96.69-1.9,1.4-2.91,2.15.55.89,1.05,1.71,1.55,2.52,1.06,1.71,1.61,3.57,1.58,5.57-.08,5.11.4,10.19.94,15.26.31,2.94,1.01,5.78,2.74,8.28.19.27.25.63.45,1.18-.78-.04-1.39.04-1.95-.11-2.73-.7-2.73-.72-5.44,0-.24-.36-.55-.76-.77-1.19-1.01-1.96-1.42-4.09-1.57-6.25-.26-3.72.07-7.39.79-11.06.54-2.77.74-5.61,1.02-8.43.12-1.26-.24-2.45-1.14-3.42-.93-1-1.8-.94-2.43.28-.3.59-.55,1.24-.64,1.89-.24,1.78-.43,3.58-.57,5.37-.15,2.11-.26,4.22-.33,6.33-.16,5.32.63,10.47,2.74,15.39.18.41.28.86.42,1.33-.24.08-.4.19-.51.16-2.18-.64-4.37-.54-6.58-.15-.44.08-.94.06-1.35-.07-.62-.21-1.07-.6-.8-1.41.16-.48.13-1.03.29-1.51.81-2.43.93-4.95,1.05-7.47.22-4.37.57-8.74.64-13.12.1-6.18-.02-12.37-.02-18.55,0-1.11-.2-2.13-.81-3.08-.25-.4-.3-.93-.49-1.58ZM132.11,73.96c.52-.44.93-.72,1.25-1.08.94-1.02,1.9-2.03,2.76-3.12.76-.96,1.55-1.95,2.05-3.05.38-.84.49-1.89.43-2.83-.08-1.17-.91-1.96-2.03-2.27-1.11-.31-1.96.35-2.46,1.2-.7,1.18-1.41,2.45-1.67,3.77-.4,2.06-.43,4.18-.59,6.28-.02.28.13.56.26,1.1Z"/>
    <path class="cls-6" d="M133.43,116.21c-.67,1.66-.04,2.96.57,4.27.37.79.53,1.6-.03,2.34-.63.84-1.54,1.01-2.5.74-.67-.19-1.31-.5-2.19-.84,1.09-.73,1.5-1.56,1.52-2.59.02-.94-.33-1.55-1.07-1.87-.73-.32-1.54-.2-2.1.47-.45.54-.89,1.17-1.11,1.83-1.34,4.08-1.83,8.23-.89,12.49.28,1.27.88,2.29,1.96,3.03,1.52,1.04,3.04.69,3.85-.98.29-.59.55-1.26.58-1.91.07-1.43.13-2.9-.07-4.31-.22-1.55-1.21-1.79-2.39-.79-.41.35-.87.63-1.37,1-.61-1.03-.39-1.89-.02-2.67.16-.35.67-.69,1.06-.74,1.22-.15,2.46-.26,3.69-.21,1.22.05,1.69.45,1.75,1.72.08,1.53-.07,3.08-.15,4.62-.05.98-.15,1.95-.2,2.93-.11,2.42-.19,4.84-.32,7.26-.13,2.48-.04,4.94.36,7.4.08.51.16,1.03.13,1.53-.05.9-.43,1.32-1.32,1.41-1.9.2-3.81.25-5.69-.22-1.11-.28-1.98-.88-2.51-1.9-1.38-2.68-2.39-5.47-2.43-8.54-.02-2.06-.05-4.12-.08-6.19-.05-3.52.34-6.99.79-10.47.2-1.58.2-3.19.18-4.78,0-.59-.33-1.17-.51-1.76-.4-1.36.1-2.11,1.52-2.19,2.52-.13,5.04-.24,7.55-.33.43-.01.86.14,1.42.24Z"/>
    <path class="cls-3" d="M100.93,130.44c-.28.48-.54.95-.83,1.41-.83,1.29-.7,2.44.37,3.27,1.53,1.18,2.94,1.23,4.02.11,1.62-1.66,1.87-4.01.66-6.14-1.19-2.09-2.31-2.61-4.7-2.21-.66.11-1.33.2-1.99.25-1.04.08-1.3-.12-1.47-1.12-.07-.45-.09-.92-.05-1.38.08-.98.17-1.95.32-2.92.22-1.46.21-2.87-.58-4.19-.12-.2-.1-.48-.13-.67.15-.13.22-.25.3-.25,2.26-.1,4.52-.21,6.78-.26.66-.01,1.33.13,1.98.27,1.67.38,2.15,1.02,2.02,2.71-.05.61-.13,1.24-.33,1.82-.49,1.41-1.64,1.71-2.76.75-.22-.19-.38-.46-.62-.74.18-.12.28-.23.4-.26.65-.16,1.17-.44,1.17-1.21,0-.8-.5-1.25-1.17-1.45-1.11-.33-2.24-.45-3.23.37-1.58,1.32-1.18,4.18.73,5.07.56.26,1.15.45,1.75.6,1.58.4,2.54,1.45,3.24,2.86,1.23,2.48,1.94,5.1,2.02,7.86.09,3.24.11,6.49.14,9.73.01,1.84-.43,3.59-1.36,5.17-1.58,2.67-3.82,3.43-6.63,1.77-2.55-1.5-3.8-3.66-4.1-6.51-.44-4.16-.69-8.32-.06-12.48.02-.15.03-.31.06-.46.39-2.41,1.61-2.99,4.07-1.77Z"/>
    <path d="M162.38,120.09c.27.01.32,0,.37.02.5.21,1.02.36,1.31-.28.21-.45-.21-.92-.97-1.14-1.3-.38-2.62.12-3.02,1.16-.5,1.26.15,2.83,1.42,3.36.47.2.97.35,1.47.48,1.8.46,2.87,1.67,3.66,3.28,1.28,2.65,1.92,5.43,2,8.35.08,3.09.12,6.18.14,9.28.01,1.89-.42,3.69-1.31,5.35-1.66,3.1-4.42,4.13-7.6,2.16-2.47-1.53-3.84-3.61-4.18-6.48-.55-4.68-.84-9.34.04-14.01.15-.81.23-1.71,1.13-2.06,1.1-.42,2.24-.31,3.32.12.59.24.6.82.35,1.32-.25.5-.61.95-.89,1.44-.48.86-.33,1.58.41,2.19,1.51,1.25,2.8,1.06,3.89-.57,1.34-2.01.39-5.53-1.82-6.54-.48-.22-1.09-.23-1.64-.2-.97.07-1.94.31-2.91.37-1.24.09-1.78-.3-1.85-1.54-.07-1.38.02-2.78.17-4.15.17-1.51.23-2.94-.52-4.36-.55-1.04-.07-1.71,1.09-1.75,2.01-.08,4.02-.19,6.02-.15,1.12.02,2.23.31,3.34.53.92.18,1.5.84,1.51,1.73.01,1.17-.08,2.36-.34,3.49-.2.89-1.36,1.65-2.09,1.56-1.05-.12-1.78-.78-2.25-1.69-.18-.34-.17-.78-.27-1.3ZM160.17,130.44c-2.46-1.22-3.68-.64-4.07,1.77-.02.15-.03.31-.06.46-.63,4.16-.38,8.32.06,12.48.3,2.84,1.56,5,4.1,6.51,2.81,1.66,5.06.9,6.63-1.77.93-1.58,1.38-3.33,1.36-5.17-.02-3.24-.04-6.49-.14-9.73-.08-2.76-.79-5.37-2.02-7.86-.7-1.41-1.66-2.46-3.24-2.86-.6-.15-1.19-.34-1.75-.6-1.91-.89-2.31-3.75-.73-5.07.99-.82,2.12-.7,3.23-.37.67.2,1.18.65,1.17,1.45,0,.77-.53,1.05-1.17,1.21-.12.03-.22.14-.4.26.23.28.39.55.62.74,1.12.95,2.27.66,2.76-.75.2-.58.29-1.21.33-1.82.13-1.69-.35-2.33-2.02-2.71-.65-.15-1.32-.29-1.98-.27-2.26.05-4.52.16-6.78.26-.08,0-.15.12-.3.25.04.19.02.47.13.67.79,1.32.8,2.73.58,4.19-.15.97-.24,1.94-.32,2.92-.04.46-.02.93.05,1.38.17,1,.43,1.2,1.47,1.12.67-.05,1.33-.14,1.99-.25,2.39-.4,3.51.12,4.7,2.21,1.21,2.13.96,4.48-.66,6.14-1.08,1.11-2.49,1.07-4.02-.11-1.08-.83-1.2-1.99-.37-3.27.29-.45.55-.93.83-1.41Z"/>
    <path class="cls-4" d="M160.17,130.44c-.28.48-.54.95-.83,1.41-.83,1.29-.7,2.44.37,3.27,1.53,1.18,2.94,1.23,4.02.11,1.62-1.66,1.87-4.01.66-6.14-1.19-2.09-2.31-2.61-4.7-2.21-.66.11-1.33.2-1.99.25-1.04.08-1.3-.12-1.47-1.12-.07-.45-.09-.92-.05-1.38.08-.98.17-1.95.32-2.92.22-1.46.21-2.87-.58-4.19-.12-.2-.1-.48-.13-.67.15-.13.22-.25.3-.25,2.26-.1,4.52-.21,6.78-.26.66-.01,1.33.13,1.98.27,1.67.38,2.15,1.02,2.02,2.71-.05.61-.13,1.24-.33,1.82-.49,1.41-1.64,1.71-2.76.75-.22-.19-.38-.46-.62-.74.18-.12.28-.23.4-.26.65-.16,1.17-.44,1.17-1.21,0-.8-.5-1.25-1.17-1.45-1.11-.33-2.24-.45-3.23.37-1.58,1.32-1.18,4.18.73,5.07.56.26,1.15.45,1.75.6,1.58.4,2.54,1.45,3.24,2.86,1.23,2.48,1.94,5.1,2.02,7.86.09,3.24.11,6.49.14,9.73.01,1.84-.43,3.59-1.36,5.17-1.58,2.67-3.82,3.43-6.63,1.77-2.55-1.5-3.8-3.66-4.1-6.51-.44-4.16-.69-8.32-.06-12.48.02-.15.03-.31.06-.46.39-2.41,1.61-2.99,4.07-1.77Z"/>
    <path class="cls-2" d="M115.83,64.17c1.26,1.97.95,3.16-.81,3.92-.71.31-1.41.64-2.15.85-1.52.44-2.49-.15-2.88-1.69-.34-1.34-.26-2.66.27-3.94.84-2.03.85-2.02.55-3.88.8-.73,1.78-.61,2.74-.46.66.1,1.31.28,1.96.43,2.17.51,4.27.41,6.37-.43,1.96-.78,2.51-.28,2.19,1.85-.02.15-.05.31-.1.45-1.71,5.49-1.79,11.15-1.79,16.83-.01,7.06,1.1,13.95,2.56,20.82.4,1.86.55,3.78-.09,5.65-.35,1.02-.94,1.46-1.87,1.05-1.5-.68-2.5.14-3.63.83-.73.45-1.49.93-2.31,1.16-1.74.49-3.23-.1-4.53-1.31-1.75-1.63-2.78-3.67-3.49-5.92-1.73-5.55-1.56-11.05.25-16.56.86-2.6,1.69-5.22,3.3-7.46,1.47-2.04,3.15-3.94,4.71-5.92.73-.93,1.38-1.92,2.05-2.9.58-.86.65-1.83.52-2.83-.27-2.03-1.83-3.3-3.88-3.17-1.8.12-2.95,1.96-2.17,3.58.19.39.73.75,1.16.84.61.11.87-.41.93-.98.02-.2.07-.39.13-.8ZM118.96,71.55c-1.55.28-2.2.64-2.83,2.08-.76,1.74-1.52,3.52-1.88,5.37-.48,2.49-.48,5.05.75,7.4.32.62.79,1.21,1.32,1.67.69.59,1.31.47,1.83-.29.31-.46.52-1,.72-1.53,1.56-4.24,1.53-8.58.8-12.96-.1-.62-.48-1.19-.72-1.74Z"/>
    <path class="cls-1" d="M82.75,116.78c2.63-.31,4.91-.6,7.21-.84.66-.07,1.34-.06,2,.02.6.07.98.49.7,1.09-.79,1.73-.14,3.33.37,4.94.2.64.55,1.23.74,1.87.16.53.3,1.1.25,1.64-.16,1.59-.52,1.85-2.09,1.58-.76-.13-1.5-.34-2.26-.51-1.63-.36-3.16-.19-4.55.84-.58.43-.95.93-.94,1.66.03,2.35.65,4.48,2.34,6.2.32.33.71.61,1.1.83,1.32.75,2.55.42,3.26-.92.36-.68.55-1.44.82-2.16.12-.32.24-.64.5-1.32.4.72.75,1.14.89,1.63.26.94.5,1.91.56,2.87.18,2.72.26,5.46.4,8.18.08,1.68-.23,3.33-.9,4.83-.99,2.2-3.35,3.84-6.04,3.2-.38-.09-.76-.32-1.07-.58-1.42-1.18-2.57-2.57-2.9-4.44-.38-2.12-.78-4.26-.92-6.41-.31-4.96.06-9.89.91-14.78.29-1.66.14-3.27-.07-4.92-.19-1.52-.22-3.05-.31-4.52ZM88.03,125.22s0-.01,0-.02c.41,0,.82.03,1.23,0,.97-.07,1.31-.31,1.43-1.28.24-2.04-.47-3.85-1.64-5.46-.51-.7-1.3-.72-1.91-.27-1.5,1.09-2.49,3.76-2.06,5.52.21.87.82,1.42,1.72,1.51.41.04.82,0,1.23,0Z"/>
    <path class="cls-5" d="M87.21,106.33c-.95-.92-.89-1.73-.31-2.63,1.2-1.88,1.59-4.02,1.79-6.18.68-7.35.92-14.72.59-22.09-.16-3.54-.19-7.12-1.13-10.59-.28-1.03-.74-2.02-1.13-3.02-.07-.19-.23-.36-.27-.55-.11-.69-.47-1.52-.21-2.03.37-.72,1.18-.11,1.81,0,1.9.31,3.79.2,5.7-.03,1.79-.21,3.59-.26,5.39-.34.35-.02.73.06,1.06.17.84.27,1.2.84.86,1.67-.45,1.08-.19,1.97.33,2.92.38.71.65,1.52.83,2.31.33,1.45-.02,2.21-1.25,3.02-.43.28-.9.5-1.32.81-.79.58-.89,1.02-.41,1.84.6,1.02,1.19,2.05,1.9,3,1.18,1.57,1.71,3.36,2.2,5.22.95,3.6.97,7.2.69,10.88-.23,3.08-.24,6.18-.78,9.23-.23,1.31-.54,2.62-.98,3.87-.51,1.47-1.64,2.32-3.19,2.61-.51.09-1.04.16-1.5.37-.92.42-1.8.34-2.7,0-.34-.13-.68-.23-1.03-.33-2.3-.61-4.6-1.22-6.95-.13ZM91.56,77.76c-.06,1.9.27,3.61,1.19,5.15.51.85,1.13,1.6,2.16,1.86,1.98.51,3.68-.71,4.04-2.97.44-2.86-.3-5.51-1.49-8.08-.53-1.15-1.54-1.77-2.68-1.84-1.13-.07-1.79.91-2.31,1.81-.76,1.28-.94,2.71-.91,4.06ZM95.86,62.27c-2.73.03-4.5,1.71-4.53,3.89-.02,1.12.12,2.25.28,3.36.13.91.81,1.22,1.56.66,1.43-1.08,2.83-2.21,4.15-3.41.83-.76,1.25-1.72.71-2.91-.55-1.21-1.51-1.59-2.17-1.57Z"/>
    <path class="cls-14" d="M65.55,152.51c-.5-.7-.58-1.34-.06-1.92,1.45-1.59,1.48-3.59,1.49-5.53.02-3.61-.16-7.21-.16-10.82,0-2.42.26-4.84.25-7.26,0-1.95-.14-3.92-.41-5.85-.16-1.15-.69-2.25-1.06-3.36-.1-.32-.22-.63-.31-.88,1.78-.12,3.45-.26,5.13-.34,2.66-.13,5.56,1.93,6.58,4.54,1.31,3.36,1.95,6.81,1.85,10.42-.1,3.5.02,7.01-.14,10.51-.09,1.99-.4,4.01-.89,5.94-.46,1.83-1.68,3.21-3.64,3.62-1.2.25-2.43.35-3.66.47-1.28.13-2.56.21-3.83.32-.4.03-.8.09-1.16.13ZM70.69,118.5c-.4.92-.86,1.73-1.1,2.6-.98,3.56-.91,7.14.17,10.67.42,1.37.95,2.74,1.66,3.97,1.04,1.79,2.54,1.68,3.53-.12.78-1.42.9-2.95.68-4.5-.24-1.73-.47-3.48-.83-5.19-.32-1.51-.75-3-1.26-4.45-.45-1.28-1.14-2.44-2.86-2.98Z"/>
    <path class="cls-15" d="M119.99,151.53c-2.96.67-5.72,1.25-8.62.15,1.69-3.96,1.75-7.97,1.93-11.97.14-3.03.39-6.07.66-9.09.33-3.61,0-7.2-.27-10.8-.05-.65-.37-1.28-.59-1.91-.16-.47-.37-.93-.66-1.67,1.2.08,2.13.16,3.08.19.92.03,1.83,0,2.92,0-.19.58-.27.92-.41,1.23-.9,2.03-.99,4.22-1.01,6.36-.02,3.08.23,6.17.41,9.25.15,2.52.34,5.03.55,7.55.3,3.54.92,7.03,2.03,10.7Z"/>
    <path d="M70.14,68.67c0-2.19.61-4.18,2.16-5.77,1.24-1.27,2.83-1.07,3.73.46.35.59.56,1.33.61,2.03.1,1.36-.45,2.23-1.77,2.52-1.36.29-2.17,1.06-2.73,2.25-.23.5-.47,1.19-1.16,1.06-.83-.15-.82-.94-.85-1.61-.02-.31,0-.62,0-.93ZM71.02,70.87c.3-.36.51-.52.6-.73.63-1.45,1.59-2.47,3.25-2.73.66-.1,1.1-.58,1.22-1.24.18-.93.1-1.83-.49-2.64-.84-1.14-2.01-1.27-2.99-.27-1.12,1.14-1.66,2.58-1.94,4.11-.2,1.1-.33,2.22.36,3.5Z"/>
    <path d="M132.11,73.96c-.14-.54-.28-.83-.26-1.1.16-2.1.19-4.23.59-6.28.26-1.32.97-2.59,1.67-3.77.5-.85,1.35-1.51,2.46-1.2,1.12.31,1.96,1.1,2.03,2.27.06.94-.04,1.99-.43,2.83-.5,1.1-1.29,2.09-2.05,3.05-.86,1.09-1.82,2.1-2.76,3.12-.33.35-.73.63-1.25,1.08ZM132.33,72.73c.13.08.27.16.4.23.51-.56,1.05-1.1,1.52-1.69,1.15-1.45,2.36-2.86,3.34-4.42.46-.73.59-1.75.62-2.65.03-.95-.92-1.99-1.74-2.15-.95-.18-1.55.4-2.08,1.06-.19.24-.34.52-.49.78-1.62,2.76-1.5,5.81-1.57,8.82Z"/>
    <path d="M88.03,125.22c-.41,0-.83.04-1.23,0-.9-.09-1.5-.64-1.72-1.51-.43-1.76.56-4.43,2.06-5.52.61-.44,1.4-.43,1.91.27,1.17,1.61,1.88,3.42,1.64,5.46-.11.96-.46,1.2-1.43,1.28-.41.03-.82,0-1.23,0,0,0,0,.01,0,.02ZM89.75,124.63c.62-1.59-.11-4.92-1.13-5.78-.49-.41-.96-.31-1.37.08-1.27,1.21-1.8,2.71-1.61,4.44.08.75.54,1.22,1.32,1.24.96.03,1.92,0,2.79,0Z"/>
    <path d="M91.56,77.76c-.03-1.35.15-2.78.91-4.06.53-.9,1.19-1.88,2.31-1.81,1.14.07,2.14.7,2.68,1.84,1.19,2.57,1.94,5.22,1.49,8.08-.35,2.26-2.06,3.47-4.04,2.97-1.03-.27-1.66-1.02-2.16-1.86-.93-1.55-1.25-3.25-1.19-5.15ZM92.06,77.66c-.08,1.93.2,3.69,1.26,5.25.5.73,1.09,1.37,2.06,1.48,1.41.16,2.55-.56,2.96-2.13.83-3.2.03-6.24-1.75-8.82-1.19-1.72-2.47-1.49-3.56.17-.83,1.26-1.02,2.67-.97,4.05Z"/>
    <path d="M95.86,62.27c.66-.01,1.62.37,2.17,1.57.54,1.19.12,2.16-.71,2.91-1.32,1.21-2.72,2.34-4.15,3.41-.75.57-1.43.26-1.56-.66-.16-1.11-.3-2.24-.28-3.36.03-2.18,1.8-3.85,4.53-3.89ZM92.47,70.18c1.74-1.55,3.76-2.51,5-4.4.74-1.11.11-2.54-1.2-2.95-2.01-.63-4.33.9-4.5,3.02-.11,1.33-.13,2.67.7,4.33Z"/>
    <path d="M70.69,118.5c1.72.54,2.42,1.7,2.86,2.98.51,1.45.94,2.95,1.26,4.45.36,1.71.59,3.45.83,5.19.21,1.56.1,3.08-.68,4.5-.99,1.8-2.49,1.91-3.53.12-.71-1.23-1.24-2.61-1.66-3.97-1.08-3.52-1.16-7.1-.17-10.67.24-.87.7-1.67,1.1-2.6ZM70.94,119.32c-.19.36-.32.58-.42.81-.13.33-.26.68-.35,1.02-.88,3.26-.91,6.54.02,9.78.45,1.57,1.08,3.12,1.86,4.56.68,1.25,1.6,1.14,2.33-.1.77-1.31.88-2.74.66-4.2-.24-1.63-.45-3.27-.8-4.88-.32-1.51-.75-3-1.23-4.46-.34-1.02-.82-2-2.06-2.53Z"/>
    <path d="M150.49,64.41c-1.58.07-2.14-.26-2.6-1.4-.45-1.1-.19-2.34.69-3.11.73-.63,1.58-.94,2.55-.98,1.29-.05,2.58-.1,3.86-.18.77-.05,1.58-.05,2.29-.3,2.01-.71,3.79.02,5.49.85,1.2.58,1.79,1.88,2.16,3.1.62,2.07,1.19,4.16,1.53,6.29.77,4.73,1.41,9.48,2.07,14.22.12.86.14,1.75.16,2.62.12,4.84.29,9.69.32,14.53.01,1.79-.27,3.59-.48,5.38-.17,1.42-.53,1.73-2.02,1.72-2.33,0-4.62-.27-7.01-.89,0-.7-.07-1.41.02-2.09.12-.92.36-1.82.58-2.72,1.51-6.25,2.05-12.61,2.03-19.01,0-2.41-.45-4.81-.71-7.22-.04-.36-.12-.71-.23-1.06-.2-.67-.49-1.24-1.31-1.34-.88-.1-1.22.49-1.42,1.14-.83,2.65-1.68,5.3-2.41,7.98-1.62,6-.97,11.97.51,17.88.32,1.28.96,2.49,1.53,3.7.47,1.01.83,1.99.45,3.12-.19.55-.49.86-1.07.95-2.45.35-4.83.1-7.15-.73-.87-.31-1.42-1.01-1.71-1.89-.57-1.76-1.13-3.52-1.05-5.43.08-1.85.03-3.71.02-5.57-.04-6.55,1.15-12.91,2.7-19.24.87-3.55,1.7-7.11,2.46-10.69.16-.77.09-1.66-.15-2.41-.33-1.03-1.36-1.09-2.04-.24-.74.92-.54,1.9-.09,3.01ZM159.78,105.69c2.49.34,4.67.67,6.87.91.93.1,1.3-.27,1.44-1.22.16-1.12.38-2.25.38-3.37.02-3.81,0-7.63-.08-11.44-.07-2.99-.08-5.99-.45-8.95-.63-5.06-1.49-10.09-2.3-15.12-.31-1.94-.9-3.8-1.92-5.51-.53-.88-1.23-1.47-2.24-1.77-1.4-.42-2.71-.65-4.23-.31-1.69.38-3.48.31-5.23.39-1.1.05-2.16.19-3.05.91-.67.54-.87,1.26-.76,2.08.1.72.39,1.32,1.12,1.59.12-.83.17-1.54.35-2.22.29-1.11.93-1.59,1.85-1.5.95.09,1.71.82,1.74,1.85.03.97.02,1.98-.18,2.92-.75,3.42-1.65,6.81-2.37,10.23-.79,3.72-1.55,7.46-2.16,11.22-.69,4.29-.52,8.63-.56,12.96-.02,1.91.5,3.66,1.06,5.42.3.96.96,1.66,1.93,1.82,1.82.3,3.66.58,5.5.64,1.55.05,2.01-.64,1.75-2.17-.07-.4-.21-.81-.42-1.15-1.21-2.02-1.82-4.25-2.25-6.54-1.01-5.38-1.28-10.74.2-16.08.43-1.54.81-3.09,1.27-4.62.33-1.08.75-2.14,1.17-3.19.28-.71.73-1.24,1.62-1.15.87.08,1.45.51,1.7,1.34.17.54.34,1.09.39,1.65.24,3.08.56,6.16.62,9.24.05,2.41-.12,4.85-.41,7.25-.38,3.16-.97,6.3-1.49,9.45-.23,1.4-.54,2.8-.85,4.43Z"/>
    <path class="cls-16" d="M159.78,105.69c.32-1.63.62-3.02.85-4.43.52-3.15,1.11-6.29,1.49-9.45.29-2.4.46-4.83.41-7.25-.06-3.08-.38-6.16-.62-9.24-.04-.56-.22-1.11-.39-1.65-.25-.83-.84-1.25-1.7-1.34-.89-.09-1.34.44-1.62,1.15-.42,1.05-.84,2.11-1.17,3.19-.47,1.53-.85,3.08-1.27,4.62-1.48,5.34-1.21,10.71-.2,16.08.43,2.29,1.04,4.51,2.25,6.54.21.35.35.76.42,1.15.26,1.53-.19,2.22-1.75,2.17-1.84-.06-3.68-.34-5.5-.64-.98-.16-1.63-.87-1.93-1.82-.56-1.76-1.08-3.52-1.06-5.42.05-4.33-.13-8.67.56-12.96.61-3.76,1.36-7.5,2.16-11.22.73-3.42,1.63-6.81,2.37-10.23.21-.94.21-1.95.18-2.92-.03-1.04-.79-1.76-1.74-1.85-.92-.09-1.56.39-1.85,1.5-.18.68-.22,1.39-.35,2.22-.73-.27-1.02-.87-1.12-1.59-.11-.81.09-1.54.76-2.08.89-.72,1.95-.86,3.05-.91,1.75-.08,3.54-.01,5.23-.39,1.51-.34,2.83-.11,4.23.31,1.01.3,1.71.89,2.24,1.77,1.02,1.71,1.61,3.57,1.92,5.51.81,5.03,1.67,10.06,2.3,15.12.37,2.96.38,5.96.45,8.95.09,3.81.1,7.62.08,11.44,0,1.13-.22,2.25-.38,3.37-.14.96-.51,1.33-1.44,1.22-2.19-.24-4.37-.58-6.87-.91ZM154.43,68.67c0,.31-.01.62,0,.93.03.67.02,1.46.85,1.61.68.12.92-.56,1.16-1.06.56-1.19,1.37-1.95,2.73-2.25,1.31-.28,1.87-1.15,1.77-2.52-.05-.69-.26-1.43-.61-2.03-.9-1.54-2.5-1.73-3.73-.46-1.55,1.59-2.17,3.58-2.16,5.77Z"/>
    <path d="M154.43,68.67c0-2.19.61-4.18,2.16-5.77,1.24-1.27,2.83-1.07,3.73.46.35.59.56,1.33.61,2.03.1,1.36-.45,2.23-1.77,2.52-1.36.29-2.17,1.06-2.73,2.25-.23.5-.47,1.19-1.16,1.06-.83-.15-.82-.94-.85-1.61-.02-.31,0-.62,0-.93ZM155.32,70.87c.3-.36.51-.52.6-.73.63-1.45,1.59-2.47,3.25-2.73.66-.1,1.1-.58,1.22-1.24.18-.93.1-1.83-.49-2.64-.84-1.14-2.01-1.27-2.99-.27-1.12,1.14-1.66,2.58-1.94,4.11-.2,1.1-.33,2.22.36,3.5Z"/>
  </g>
</svg>