<?xml version="1.0" encoding="UTF-8"?>
<svg id="Layer_1" data-name="Layer 1" xmlns="http://www.w3.org/2000/svg" viewBox="0 0 180 200">
  <defs>
    <style>
      .cls-1 {
        fill: #9d928d;
      }

      .cls-2, .cls-3, .cls-4 {
        fill-rule: evenodd;
      }

      .cls-2, .cls-5 {
        fill: #fff;
      }

      .cls-6 {
        fill: #373432;
      }

      .cls-7 {
        fill: #746967;
      }

      .cls-3, .cls-8 {
        fill: #231f20;
      }

      .cls-9 {
        fill: #312929;
      }

      .cls-4 {
        fill: #f48668;
      }

      .cls-8 {
        font-family: AmericanTypewriter-Bold, 'American Typewriter';
        font-size: 19.28px;
        font-weight: 700;
        letter-spacing: .02em;
      }
    </style>
  </defs>
  <path class="cls-3" d="M44.95,34.06c.07.02.04.15.05.23h-.16c-.06-.18.08-.14.11-.23h0Z"/>
  <path class="cls-2" d="M19.07,156.35c.09.02.1-.05.1-.12.11.14-.02.21.05.41-.03.11-.1-.23-.16-.29h0Z"/>
  <g>
    <polygon class="cls-5" points="172.29 84.44 166.21 88.46 159.81 92.31 153.4 96.15 146.99 100 140.42 103.59 133.98 107.38 127.57 111.22 121.26 115.25 114.72 118.87 108.43 122.91 101.78 126.35 95.43 130.31 89 134.13 82.61 138.02 76.28 142 69.85 145.81 63.12 149.16 56.8 153.46 52.98 147.32 49.6 141.09 46.01 134.99 42.51 128.94 48.68 124.86 55.35 121.45 61.51 117.2 68.14 113.71 74.6 109.94 80.98 106.06 87.31 102.07 93.89 98.5 100.13 94.38 106.59 90.63 113.15 87.02 119.54 83.15 126.06 79.47 132.21 75.19 138.76 71.57 145.18 67.73 151.71 64.06 158.05 60.42 161.74 66.24 165.37 72.31 168.69 78.58 172.29 84.44"/>
    <path class="cls-1" d="M62.33,125.16s.2.75.9,1.19,1.63,1.06,1.63,1.06c0,0,.08-.16.35.07s.43.06.51.05.14-.73.14-.73l.18-.73.34.04s.38-.29.51-.49.27-1.09.39-.48.48.96.5,1.01,1.14.17,1.14.17l.39.44s.39.07.61.72.58,1.66.36,1.92-1.25,1.62-1.26,1.81.19.63.19.63c0,0-.11.12-.3-.2s-.58-1.07-.72-.99-1.01.48-1.01.48c0,0,.13.11.04.47s-.15.15-.47.66.43,1.23-.32.5-.61-.5-.97-1.09-.38-.64-.3-1.12.1-.95.29-1.11.42-1.11.37-.27-.32.81-.03,1.38.4.55.57.49.48.12.44-.35-.15-.65-.19-.94.17-.54-.55-.91-.77-.52-1.19-.67-1.16-.45-1.38-.62-1.03.75-1.41-.7c-.38-1.45-.48-1.82-.48-1.82l.75.11Z"/>
    <path class="cls-7" d="M65.95,128.48s.74.37.78.15.02-.27.09-.87.57-1.52.57-1.52c0,0-.16-.46.2.13s.45.84.45.84c0,0-.13.2.31,0s.72-.25.72-.25l.45.23c.45.23.72.06.5.63s-.05.53-.34.76-.84.57-.94.69-.03-.35-.11.13-.34.27-.31.78,1.38,1.3.26.99-1.55.19-1.52-.57-.1-.99.39-1.41.53-.82.91-.89,1.12.35.37-.07-1.47.03-1.52.15-.55.76-.78.57-.46-.48-.46-.48Z"/>
    <path class="cls-1" d="M55.11,131.95s.09,2.23.2,2.41.53,1.1.69,1.38-.22,1.18-.22,1.18c0,0-.44-.23-.12.32s1.19.65,1.34.81.8.82.66.9-.79-.09-.95-.05-.54-.6-.86-.1-.35.76-.35.76c0,0,.04.16-.17.23s-.44.2-.91.23-1.03-.07-1.03-.07c0,0-.71-.26-.84-.37s-.8-.51-.88-.65-.44.51-.35-.59.31-1.35.31-1.35c.56-.52,1.26-.38,1.26-.38h.43s.66-.15.66-.15l-.91-.39s-.85-.29-.78-.59-.04-.28.25-.52.06-.53.47-.34.58.15.92.2.85.18.85.18c0,0-.23-.6-.22-1.1s.08-.87.2-1.05.37-.89.37-.89Z"/>
    <path class="cls-7" d="M54.23,135.91c-.13.04-.21.02-.26.55s.13.54.13.54c0,0,.2-.05-.37.22s-1.24.02-1.12.36c.03.08.03.13,0,.18-.07.18-.35.24-.25.57.13.42,0,.62.32.86s.51.62.86.44.49-.26.6-.38.29-.64-.23-.65-.94-.07-1.07-.3.51-.8.79-.84-.04.15.28-.04.06.21.49-.42.61-1.47.61-1.47l-.79.38Z"/>
    <path class="cls-1" d="M62.52,142.54s0,.12.45-.08,1.86-.92,1.86-.92c-.08-.45-.2-.13-.08-.45s.04-.76-.04-.9-.73-.61-.73-.61c0,0-.64-.24-.31-.62s1.64.47,1.64.47c0,0,.15-.05.09-.57s-.11-.92.01-1.12-.07-.64.34-.57.57.03.57.03c0,0,.11-.44.3-.43s.39-.72.69-.1.25.65.4.99.14.23.19.63.34.78.34.78c0,0,.2.13.3-.12s.31-1.66.31-1.66l.27-1.32.05-.23s.68,1.14.72,1.42-.08.6.28.88.58.77.58.77c0,0,.14.2-.32.58s-.69.52-.8.64.02-.07-.09,1.1.02,2.21-.16,2.44-.88.71-1.4.96.23.17-.53.25-.79.22-1.66.12-1.21-.27-1.57-.36-1.39-1.49-1.69-1.6,0-.42,0-.42Z"/>
    <path class="cls-1" d="M56.25,127.33s-.69.59-.63.8.15.77.1,1.11-.26.28-.12.63.31.31.23.6-.35.14.11.8.5.63.59.88-.12.32.18.51.35.28.65.17.35-.14.72-.24.24-.02.85-.13.72.07.9-.04.3-.43.61-.42.49.03.95-.25.49-.23.72-.37.31-.31.51-.49,1.09-.77,1.07-1,.31,0-.08-.76.38-1.03-.6-1-.73.12-.97.02-.56.07-.56-.23-.05-.7-.27-.75-.84-.49-1.02-.57-.36-.09-.58-.15-.64-.36-.64-.36c0,0-.53-.37-.75-.23s.02-.38-.61.12-.93.64-.93.64l-.42.72Z"/>
    <path d="M124.19,86.55c.19-.09.37-.13.48-.23.57-.54,1.23-.92,1.98-1.17.36-.12.69-.35,1.03-.55.59-.35,1.24-.52,1.89-.72.6-.18,1.15-.09,1.67.26.42.29.85.54,1.15,1.02.41.67.54,1.38.53,2.12,0,.58-.13,1.15-.22,1.81.19.25.55.41.89.57.67.32,1.32.67,1.95,1.08.35.23.74.39,1.13.56.17.07.36.15.58.02,0-.07,0-.17-.03-.24-.28-.48-.57-.94-.85-1.42-.26-.45-.53-.88-.67-1.39-.09-.33-.31-.64-.5-.94-.68-1.14-1.36-2.28-2.05-3.42-.12-.19-.27-.36-.42-.53-.35-.39-.63-.81-.59-1.42.42-.27.9-.49,1.27-.84.38-.37.83-.61,1.26-.89.41-.27.82-.52,1.26-.73.46-.22.94-.44,1.44-.54.66-.14,1.34-.22,2.01.03.57.21,1.16.39,1.74.61.21.08.4.22.57.37.57.52,1.11,1.06,1.52,1.74.51.84.87,1.72,1.11,2.66.19.74.14,1.5-.05,2.21-.2.74-.62,1.38-1.26,1.9-1.44,1.18-3.11,1.97-4.68,2.93-.24.15-.49.14-.75.1.06.43-.35.58-.52.88-.63.39-1.26.79-1.91,1.16-.11.06-.31,0-.46-.02-.06,0-.12-.06-.16-.1-.52-.55-1.17-.9-1.83-1.24-.52-.27-.99-.6-1.4-1.02-.13-.14-.29-.25-.46-.39-.32.04-.56.26-.88.45.04.14.05.3.13.43.4.7.82,1.4,1.23,2.09.12.2.24.39.34.59.17.32.11.66-.15.88-.1.08-.21.15-.32.22-.39.27-.79.55-1.22.85-.09-.09-.21-.19-.29-.32-.31-.5-.59-1.01-.9-1.5-.34-.55-.63-1.12-1.09-1.6-.33-.34-.54-.81-.78-1.23-.74-1.26-1.47-2.52-2.22-3.77-.24-.39-.4-.81-.48-1.3ZM135.13,82.43c.15.18.31.38.46.57.06.08.11.16.18.23.7.65,1.18,1.48,1.51,2.34.34.89.87,1.65,1.33,2.46.03.05.1.07.18.13.1-.04.22-.08.32-.15.64-.38,1.26-.8,1.91-1.14.49-.26.77-.68,1.01-1.13.07-.13.09-.31.08-.47-.03-.48-.11-.96-.36-1.39-.36-.61-.71-1.24-1.09-1.83-.78-1.2-2.24-1.54-3.47-.83-.45.25-.87.54-1.38.67-.26.07-.55.2-.67.55ZM128.85,89.75c.36-.22.7-.4,1.02-.61.56-.36.79-.95.65-1.58-.13-.57-.52-.95-.98-1.26-.37-.24-.74-.11-1.1.05-.14.06-.3.09-.46.13-.19.27-.46.47-.46.9.2.34.47.71.65,1.12.18.4.24.86.67,1.26Z"/>
    <path d="M53.92,138.58c-.03.15-.07.31-.11.49.06.15.13.32.19.48-.05.11-.09.19-.13.28.05.03.1.09.15.09.55.02,1.1.01,1.64.04,1.21.06,2.05.67,2.57,1.75-.06.36.29.46.43.7-.06.23-.22.32-.43.31-.3-.02-.56-.13-.74-.39-.32-.45-.74-.8-1.14-1.18-.46-.44-1-.69-1.64-.74-.23-.02-.45-.05-.67-.08-.1-.01-.2,0-.29-.04-.58-.28-1.15-.57-1.73-.87-.08-.04-.16-.12-.21-.19-.46-.64-.82-1.32-.87-2.12-.02-.25.02-.51.06-.77.06-.35.16-.69.25-1.06l-.75-1.26c.07-.32.13-.64.2-.97l.66-.39c.46.09.74.57,1.29.53.03-.1.09-.21.09-.33.03-.58.12-1.16,0-1.74-.04-.18-.15-.33-.21-.45-.46-.15-.83.06-1.21.07-.85-.21-1.11-.9-1.33-1.63-.22-.71.03-1.23.59-1.7.5-.41.99-.85,1.59-1.09.72-.28,1.42-.58,2.17-.79.68-.19,1.35-.42,1.96-.81.54-.35,1.04-.73,1.45-1.26.7-.91,1.61-1.57,2.64-2.07.42-.2.86-.26,1.31-.3.24-.02.49.06.61.25.26.43.83.47,1.06.92.43.7-.08,1.34-.21,2.05.32.22.64.42.94.65.28.22.52.49.81.69.22.15.43.42.81.23-.07-.3-.14-.61-.2-.92-.07-.38.09-.65.44-.75.09-.03.19-.04.29-.04.16,0,.32,0,.48-.01.56.43.93.99,1.3,1.59.29.11.59.21.89.32.78.29,1.25.89,1.59,1.61.14.29.15.63.07.95-.19.79-.32,1.58-.68,2.32-.15.31-.22.68-.29,1.02-.05.29-.01.57.13.85.74,1.44,1.25,2.96,1.7,4.51.09.31.17.62.26.93.03.09.06.18.08.28.06.33.09.66-.22.88-.29.22-.59.23-.9.01-.05-.03-.12-.03-.23-.05-.4.38-.64.81-.56,1.43.11.9.07,1.8-.21,2.69-.16.52-.49.9-.91,1.21-.6.44-1.25.67-2,.54-.51-.09-1.02-.13-1.53-.2-.46-.07-.87-.24-1.24-.52-.15-.12-.33-.21-.48-.33-.45-.35-.93-.39-1.46-.24.03.35.09.66.09.98,0,.37-.34.57-.68.42-.49-.22-.81-.65-1.14-1.03-.31-.36-.62-.74-.88-1.14-.6-.92-1.16-1.87-1.69-2.84-.2-.36-.3-.77-.52-1.14-.22-.38-.5-.67-.89-.86-.26-.13-.52-.26-.8-.4-.53.2-1.06.41-1.6.61-.29-.19-.71-.13-.93-.47q-.19-.94.63-1.37c.35.06.73.13.99.17.4-.04.42-.45.76-.44.27.36.16.9.66,1.25.21.11.53.28.83.46.14.08.28.18.36.31.24.38.52.76.67,1.18.13.37.3.72.49,1.05.59,1,1.13,2.03,1.9,2.92.34.39.62.82,1.05,1.11.04-.04.09-.08.15-.14-.09-.23-.23-.46-.28-.7-.13-.73-.42-1.42-.58-2.14-.11-.46-.3-.77-.69-.98-.63-.35-1.17-.82-1.62-1.36-.58-.69-1.14-1.42-1.03-2.4-.1-.16-.19-.3-.26-.44-.06-.12-.25-.22-.11-.41.54.02.55.57.88.87.65-.09,1.1.25,1.56.72.58.59,1.21,1.15,1.91,1.6.05-.03.09-.04.11-.07.04-.05.07-.1.1-.16q.32-.64,1.02-.6s.1-.05.14-.07c.19-.27-.04-.66.26-.91.17.12.32.23.47.33.1-.06.18-.1.26-.16.02-.01.02-.06.04-.17-.08-.17-.23-.39-.28-.63-.12-.57-.41-1-.82-1.39-.11-.11-.19-.26-.25-.41-.02-.05.07-.15.14-.29.33.37.63.69.92,1.03.31.38.42.86.58,1.31.18.04.34.07.5.11.1-.21.19-.37.27-.53.34-.09.44.39.75.32.23-.2.3-.44.34-.7.02-.17.16-.27.32-.29.36.07.7.14,1.09.22.05-.94-.18-1.77-.36-2.56-.26-.28-.48-.51-.71-.75-.07.05-.14.1-.21.16-.05-.03-.11-.06-.15-.11-.46-.65-.67-1.4-.81-2.16-.08-.44-.05-.9.12-1.34.05-.13.14-.2.34-.12-.02.36-.08.74-.07,1.12,0,.41-.02.85.37,1.15.18-.25.14-.68.59-.67q-.08,1.06.17,1.53c.1-.38-.01-.85.47-1.05.33.1.56.31.75.58.72.99,1.09,2.13,1.29,3.31.13.78.33,1.51.8,2.15.19.26.35.55.52.82.2.33.47.6.77.79.19-.05.27-.16.26-.29-.02-.26-.03-.53-.13-.76-.24-.57-.41-1.16-.53-1.75-.13-.61-.49-1.12-.62-1.73-.02-.09-.07-.2-.15-.25-.36-.27-.41-.72-.63-1.07-.22-.35-.42-.72-.54-1.13-.12-.43-.39-.8-.69-1.15-.25-.29-.44-.63-.64-.96-.06-.09.07-.24.21-.24.22.09.29.46.64.35.16-.41.28-.84.13-1.28-.21-.16-.39-.11-.53.06-.12.15-.18.34-.29.5-.09.14-.23.22-.34.19-.32-.27-.57-.53-.86-.71-.5-.3-1.01-.58-1.55-.79-1.05-.42-1.84-1.18-2.62-1.94-.29-.28-.48-.65-.33-1.16.27.28.5.5.7.75.35.43.76.79,1.24,1.07.98.56,1.83,1.31,2.88,1.76.08.04.13.14.22.19.13.08.27.13.4.19.27-.34.48-.68.99-.7.12.08.28.18.41.27.26.79.11,1.5-.29,2.19.28.36.42.8.73,1.09.12-.36.2-.7.35-1.02.33-.71.49-1.47.61-2.23.06-.4,0-.77-.23-1.11-.37-.55-.82-.99-1.49-1.15-.22-.05-.43-.13-.64-.2-.37-.55-.71-1.1-1.21-1.52-.22-.01-.45-.09-.62.12-.06.34.03.64.2.93.12.21.15.42-.01.66-.55.16-1.03.05-1.49-.36-.51-.44-1.09-.81-1.63-1.21-.08-.06-.16-.11-.22-.19-.49-.6-.98-1.2-1.34-1.89-.04-.08-.04-.18-.06-.33.14-.02.27-.08.37-.04.3.12.58.27.86.44.14.08.27.18.46.13-.04-.35-.23-.59-.53-.76-.36-.2-.73-.4-1.05-.57-.54-.05-.95.17-1.32.43-.23.16-.41.4-.61.6-.02.02-.01.07-.02.11.18-.04.33-.08.51-.13,0,.14.05.28,0,.31-.15.11-.32.2-.5.27-.21.09-.43.13-.64.22-.82.35-1.39,1.05-2.11,1.53-.05.03-.07.11-.11.16q-.61.7-1.48.99c-.12.04-.25.06-.37.09-.75.19-1.48.44-2.11.93-.05.04-.11.06-.22.12-.73-.14-1.29.34-1.88.72-.39.89-.24,1.65.39,2.3.56.08.56.08.93-.09-.3-.1-.61-.2-.93-.31-.03-.29-.09-.58-.09-.86,0-.19.05-.39.13-.56.09-.22.3-.33.53-.37.19-.03.44.13.52.37.11.33.19.68.3,1.04.21.16.44.33.65.49.01.36-.03.69.04.99.1.42.08.83.07,1.25,0,.39-.03.77-.05,1.17-.06.1-.12.22-.19.33-.14.23-.35.29-.58.23-.18-.05-.35-.15-.52-.24-.17-.09-.33-.19-.47-.28-.43.26-.5.41-.35.7.18.34.39.67.56.95,0,.23.04.39.02.55-.03.22-.08.44-.14.67-.18.76-.19.76.03,1.5.23.77.61,1.43,1.44,1.69.15.05.29.15.43.21.05.02.11,0,.17,0-.02-.26-.03-.51-.05-.8l.42-.25ZM66.97,132.98c.16.42.28.72.38,1.02.23.7.13,1.47.4,2.17.1.24-.16.51-.45.51-.32,0-.64-.06-.96-.09-.06,0-.11.03-.16.04-.11.27-.22.53-.34.81-.19.01-.37.07-.5.02-.39-.13-.64.32-1.01.22-.05-.01-.12.03-.17.07-.04.04-.07.11-.1.17-.1.19-.27.28-.46.32-.15.04-.33-.05-.44.1-.08.19-.15.36-.23.56-.37,0-.71,0-1.05.01,0,.26-.02.51-.03.74q.96.61,1.17,1.11c-.79-.2-1.5-.6-2.12-1.11-.7-.57-1.44-1.08-2.03-1.78-.23-.27-.55-.46-.93-.44-.08,0-.16.08-.23.12.28.77.63,1.33,1.03,1.75.41.42.85.78,1.35,1.09.8.5,1.5,1.11,1.96,1.97.12.22.28.45.47.61.6.48,1.23.93,1.85,1.39.08.06.17.11.26.13.87.26,1.76.45,2.67.38,1-.07,1.88-.74,2.08-1.85.16-.85.22-1.73-.11-2.58-.07-.18-.07-.38-.09-.57-.07-.64-.17-1.28-.21-1.92-.09-1.32-.39-2.59-.75-3.87-.19-.67-.52-1.24-.9-1.81-.04-.06-.14-.08-.27-.16-.08.33-.07.62-.08.86ZM55.14,137.29c-.46.04-.94.06-1.41-.07-.16-.05-.31.06-.43.27.01.11-.02.32.05.39.29.27.59.19.93.1.34-.1.7-.14.91-.46.02-.03-.03-.12-.05-.22ZM69.51,137.87s-.09.01-.13.02c.06.5.12,1.01.19,1.51,0,.04.08.08.15.14.15-.19.3-.38.45-.56l-.66-1.1ZM61.31,142.03c.12.53.22.9.29,1.26.03.16.13.22.25.23.17.02.38.13.5-.13-.16-.18-.34-.35-.49-.54-.17-.22-.31-.45-.56-.82ZM56.58,140.72c.31.37.61.76,1.14,1.01-.37-.64-.61-.86-1.14-1.01Z"/>
    <path d="M89.91,120.17c-.68.44-1.39.8-2.22.92-.29.04-.57.06-.86.04-1.52-.12-2.9-.58-4.07-1.61-.22-.2-.41-.41-.56-.66-.28-.47-.56-.95-.84-1.42-.2-.34-.34-.69-.41-1.08-.28-1.47-.21-2.89.47-4.25.1-.21.23-.38.38-.55,1.11-1.32,2.57-2.04,4.22-2.33,1.42-.25,2.77-.04,4.05.62.43.22.84.49,1.22.79.36.29.5.74.7,1.15.07.14.07.32.15.46.6,1.08.78,2.25.67,3.46-.08.94-.33,1.85-.78,2.68-.28.52-.73.9-1.2,1.24-.29.21-.61.37-.92.55ZM89.85,117.37c.43-.9.36-1.82.04-2.67-.53-1.41-1.48-2.49-2.93-3.05-.38-.15-.76-.13-1.12.06-.34.18-.66.38-1.06.45-.26.05-.54.26-.71.48-.3.38-.54.8-.76,1.23-.26.51-.25,1.06-.1,1.6.06.22.12.43.21.64.25.6.55,1.18,1,1.65.64.67,1.46.89,2.37.91.77.02,1.45-.26,2.15-.5.14-.05.27-.17.39-.28.19-.17.36-.36.53-.53Z"/>
    <path d="M148.4,72.11c.55-.73,1.21-1.27,1.98-1.66.69.01,1.16.44,1.68.75.16.1.3.25.47.33,1.61.82,3.22,1.64,4.83,2.45.13.07.28.11.46.18-.17-.65-.49-1.19-.68-1.76-.2-.56-.47-1.06-.77-1.56-.21-.36-.46-.69-.73-1.02-.39-.47-.64-1.04-.94-1.58-.04-.07,0-.19,0-.31.42-.53,1.19-.64,1.57-1.19.24-.03.42.01.53.21.52.89,1.05,1.79,1.57,2.68.16.75.64,1.34,1.01,1.98.88,1.51,1.77,3.02,2.66,4.53.08.14.15.28.21.41-.05.35-.32.46-.55.51-.55.13-1.01.41-1.47.65-.34.02-.59-.08-.85-.23-.56-.32-1.14-.6-1.72-.9-.61-.32-1.25-.54-1.92-.68-.74-.15-1.41-.45-2.05-.83-.19-.11-.4-.18-.6-.26-.14.17,0,.26.05.35.28.51.58,1.01.87,1.52.08.14.18.28.22.43.33,1.07,1,1.95,1.51,2.92.11.2.22.4.11.71-.08.06-.2.17-.33.25-.14.08-.28.16-.44.21-.15.05-.32.06-.47.1-.15.04-.28.17-.52.09-.08-.11-.2-.26-.29-.42-.74-1.22-1.47-2.44-2.21-3.66-.22-.36-.38-.75-.74-1.01-.1-.07-.15-.21-.22-.32-.72-1.19-1.44-2.39-2.15-3.58-.03-.05-.04-.12-.09-.27Z"/>
    <path d="M77,127.25c-.19-.31-.38-.65-.58-.97-.31-.49-.52-1.04-1-1.41-.74-1.25-1.49-2.5-2.23-3.76-.17-.71-.56-1.28-1.06-1.81-.26-.28-.43-.64-.65-.97-.21-.31-.16-.59.05-.89.15-.22.34-.39.56-.52.53-.31,1.04-.66,1.59-.93.52-.26,1.06-.47,1.61-.64.46-.15.92-.28,1.38-.42.8-.24,1.6-.1,2.36.22.15.06.3.15.4.27.62.73,1.1,1.53.93,2.55-.04.26-.1.51-.15.76.11.21.33.14.5.19.29.08.56.19.77.4.41.41.83.79,1.14,1.3.79,1.28.39,2.89-.32,3.71-.12.14-.27.28-.43.38-1.36.81-2.73,1.62-4.09,2.43-.2.12-.4.22-.78.13ZM78.2,124.18c.19-.03.32-.02.43-.08.37-.19.73-.41,1.1-.61.69-.37,1.05-.93,1.03-1.71-.15-.26-.23-.55-.53-.69-.29-.02-.58,0-.84.14-.42.25-.89.35-1.36.45-.39.08-.71.26-.98.56.38.64.74,1.25,1.15,1.93ZM77.69,117.38c-.37-.24-.7-.22-1.04-.02-.27.16-.55.35-.85.44-.41.12-.76.34-1.12.55-.11.06-.22.14-.19.28.18.23.39.44.54.68.21.34.49.6.76.86.04.04.11.05.17.08.25-.07.49-.14.78-.21.42-.64,1.21-1.01,1.43-1.87l-.47-.79Z"/>
    <path d="M96.05,103.25c.5-.68.63-.79,1.48-1.15.18.04.24.2.32.33.51.86,1.01,1.73,1.53,2.59.23.39.48.76.8,1.09.31.32.5.75.75,1.13.24.38.43.79.79,1.09.17.14.26.37.37.56.46.78.93,1.56,1.41,2.38-.1.11-.18.25-.3.32-.55.33-1.12.64-1.71.98-1.08-.4-2.21-.67-3.26-1.15-.59-.27-1.18-.52-1.8-.68-.69-.18-1.29-.58-1.93-.9-.14-.07-.28-.15-.46-.25.09.58.51.96.67,1.48.17.54.52,1.03.82,1.54.28.48.52.99.88,1.39.37.42.67.86.96,1.38-.09.15-.15.35-.28.46-.43.35-.98.48-1.5.62-.08.02-.18-.05-.31-.09-.11-.5-.37-.91-.75-1.29-.27-.26-.44-.64-.64-.97-1.34-2.25-2.68-4.51-4.02-6.76-.1-.17-.22-.33-.09-.59.19-.09.41-.19.63-.3.2-.1.4-.21.64-.34.15.05.34.11.51.18,1.31.53,2.61,1.1,3.97,1.53.77.24,1.55.45,2.32.68.24.07.5.09.71.13.18-.17.18-.34.12-.49-.06-.15-.15-.29-.23-.43-.71-1.23-1.43-2.46-2.14-3.7-.13-.22-.32-.42-.26-.8Z"/>
    <path d="M109.83,105.73c.57.54,1.02,1.19,1.7,1.54-.04.55-.05.55-.42.67-.7.23-1.4.48-2.04.87-1.14.69-2.29,1.34-3.42,2.04-.89.55-1.06.44-1.51-.36-.77-1.35-1.64-2.65-2.31-4.05-.79-1.64-1.78-3.15-2.65-4.74-.03-.06-.04-.12-.06-.18.03-.23.13-.39.37-.5.75-.36,1.52-.72,2.11-1.34.13-.14.32-.21.49-.31.64-.38,1.28-.76,1.92-1.14.44-.27.9-.52,1.18-.92.26-.02.45,0,.56.2.19.34.38.68.54,1.03.13.29.21.61.33.97-.21.19-.45.4-.67.62-.23.23-.41.51-.67.69-.28.2-.58.39-.94.49-.66.19-1.03.44-1.59.94.18.64.71,1.03,1.15,1.53.16-.04.33-.03.46-.11.62-.35,1.26-.66,1.72-1.23.19-.24.48-.24.7-.05.39.33.79.67.98,1.18.1.26.05.55-.18.69-.44.27-.88.56-1.36.73-.44.16-.82.38-1.18.64-.07.05-.09.16-.16.29.45.65.63,1.45,1.05,2.14.35-.01.56-.23.82-.36.26-.13.51-.29.76-.44.28-.17.55-.34.83-.51.25-.15.48-.32.67-.55.19-.21.43-.39.84-.44Z"/>
    <path d="M145.06,76.81c.35.59.64,1.09.95,1.59.03.05.1.08.15.12.03,0,.06.02.09.02.03,0,.06-.02.09-.03.78-.46,1.56-.92,2.33-1.38.22-.02.39.04.51.22.33.52.64,1.04.93,1.55-.16.61-.52.94-1.06,1.09-.63.18-1.15.55-1.69.87.21.7.32.9.92,1.65.3-.14.61-.32.94-.41.36-.09.64-.3.95-.47.34-.19.66-.4,1.01-.59.17-.09.35-.16.54-.2.45-.1.65-.01.89.38.2.33.41.66.59,1.01.07.13.07.3.09.44-.46.36-5,3.07-5.92,3.54-.23-.02-.32-.2-.41-.37-.57-.98-1.22-1.92-1.67-2.95-.71-1.61-1.72-3.03-2.56-4.56-.25-.45-.53-.89-.79-1.34-.16-.28-.31-.56-.48-.88.15-.15.27-.3.42-.4.24-.17.5-.3.74-.46.3-.19.58-.39.85-.62.41-.36.91-.61,1.38-.9.3-.19.58-.39.84-.64.37-.34.8-.64,1.29-.78.53.53.67.76.8,1.32.1.41.2.81.32,1.25-.08.28-.28.53-.58.68-.46.24-.86.56-1.38.69-.36.09-.7.31-1.05.59Z"/>
    <path d="M119.48,100.89c-.13,1.34-.89,2.16-1.86,2.8-1.18.78-2.49,1.21-3.93,1.13-.06,0-.13,0-.19,0-1.84.22-3.22-.7-4.49-1.86-.7-.95-1.33-1.92-1.16-3.19.08-.61.09-1.23.22-1.82.21-1,.77-1.83,1.47-2.57.61-.65,1.37-1.07,2.14-1.48.28-.15.6-.25.91-.31.38-.07.77-.13,1.15-.1.47.03.98-.06,1.45.26.05.68-.04,1.36-.21,2.07-.64.07-1.25.14-1.85.22-.25.03-.5.1-.76.15-.97.18-1.51.82-1.76,1.73-.26.92-.17,1.82.12,2.75.31,1,.92,1.58,1.85,1.94.56.22,1.13.23,1.71.13.38-.06.76-.14,1.13-.23.84-.2.84-.2,1.5-.99.02-.4-.06-.79-.29-1.19-.55.11-.91.51-1.37.72-.25.04-.43-.06-.57-.27-.4-.59-.63-1.26-.84-1.91.05-.08.08-.16.13-.17.41-.1.79-.28,1.15-.49.08-.05.16-.12.26-.14.6-.12,1.07-.43,1.46-.88.06-.06.17-.08.27-.12.08.06.19.09.23.17.72,1.23,1.43,2.46,2.15,3.7Z"/>
    <path d="M122.1,98.06q-.22.85.47,2.4c-.08.11-.14.32-.26.36-.63.19-1.13.64-1.72.89-.06.02-.12.03-.19.05-.19-.03-.26-.15-.3-.32-.37-1.8-.71-3.6-.93-5.43-.18-1.54-.54-3.04-.97-4.53-.1-.34-.2-.68-.29-.99.03-.09.03-.17.07-.21.41-.36.81-.74,1.24-1.06.16-.12.42-.11.59-.15,1.07.5,1.84,1.3,2.68,2,.72.6,1.44,1.19,2.21,1.72.29.2.57.43.84.65.78.63,1.55,1.26,2.33,1.89.22.18.44.39.68.54.21.14.45.23.69.34,0,.11.03.25-.01.29-.49.41-.89.93-1.55,1.22-.14-.07-.33-.13-.48-.23-.39-.28-.8-.56-1.15-.88-.31-.29-.66-.38-1.11-.38-.81.74-1.82,1.27-2.82,1.83ZM120.51,92.79s-.07.05-.08.07c-.02.03-.04.06-.04.09.17.88.34,1.76.51,2.63.01.05.08.09.15.18.09,0,.24.03.34-.02.4-.2.81-.38,1.25-.5.11-.03.2-.14.31-.22-.84-.77-1.65-1.5-2.45-2.23Z"/>
    <path class="cls-6" d="M155.83,84.92c.15-.03.31-.07.43-.1.77.31,1.5.61,2.29.87-.06-.88-.18-1.72.1-2.55.12.01.23,0,.3.04.08.05.13.14.18.22.5.86,1.12,1.63,1.81,2.39-.11.11-.19.19-.28.28-.86-.29-1-1.16-1.52-1.71-.16.11-.14.27-.12.42.08.41.18.81.24,1.23.02.15-.02.3-.04.5-.17,0-.3.02-.41-.03-.62-.26-1.24-.53-1.91-.82.24.79.56,1.49.95,2.14-.05.1-.08.19-.11.19-.12.02-.25.03-.36,0-.08-.02-.17-.11-.21-.19-.54-.88-1.1-1.74-1.37-2.75,0-.03.01-.06.02-.11Z"/>
    <path class="cls-6" d="M128.37,104.4c-.46.14-.8.44-1.22.66-.06.43.01.83.09,1.24.03.15,0,.31-.03.47,0,.05-.09.1-.14.11-.05.01-.15,0-.17-.04-.09-.13-.2-.27-.23-.42-.27-1.19-.53-2.38-.77-3.57-.07-.34-.05-.7-.07-.99.15-.21.3-.28.46-.19.28.16.57.32.79.55.84.88,1.69,1.75,2.66,2.51-.04.14-.08.26-.11.38-.58.03-.8-.53-1.25-.71ZM127.88,103.9c-.43-.4-.66-.85-1.2-1.03.11.49.2.92.3,1.35.01.04.09.07.15.12l.74-.44Z"/>
    <path class="cls-6" d="M103.57,115.42c1.13.42,2.1.85,3.15,1.06-.08-.52-.25-.97-.51-1.39-.14-.22-.25-.45-.37-.69-.1-.21-.09-.26.08-.73.22-.04.42.03.46.23.09.49.43.88.55,1.33.12.45.35.83.55,1.24.13.27.21.53.12.85-.09.02-.19.08-.27.06-.28-.08-.55-.18-.82-.28-.15-.06-.29-.14-.45-.19-.4-.13-.8-.25-1.2-.37-.02,0-.05.03-.12.07.04.11.07.22.13.32.26.48.54.96.8,1.44.07.14.12.3.14.45,0,.07-.07.17-.13.22-.03.03-.13.01-.18-.01-.08-.04-.18-.1-.22-.17-.59-.97-1.17-1.94-1.73-2.92-.06-.11,0-.3,0-.53Z"/>
    <path class="cls-6" d="M100.45,121.53q.87-.41,1.21-1.04c-.03-.08-.05-.17-.1-.25-.05-.08-.12-.14-.17-.21-.08,0-.15,0-.2.02-.2.1-.4.23-.61.3-.14.04-.3,0-.53,0,.1-.2.14-.39.25-.47.32-.22.66-.41.95-.58.3-.02.48.07.63.28.58.81.49,1.54-.44,2.12-.25.16-.5.3-.72.43-.72-.02-1.3-.23-1.82-.67-.66-.55-.86-1.25-.78-2.07.03-.35.2-.61.48-.8.53-.38,1.16-.55,1.78-.74.08-.02.18.05.28.08-.02.1-.04.19-.06.27-.66.31-1.3.6-1.89,1.04-.09.52-.06,1.03.28,1.47.37.47.84.8,1.47.81Z"/>
    <path class="cls-6" d="M139.76,94.6c-.22-.02-.35-.03-.47-.04-.03-.06-.06-.12-.1-.22.6-.84,1.43-1.26,2.47-1.15.82.08,1.56.38,2.14,1.01.14.38-.02.71-.18,1.02-.17.31-.37.61-.61.87-.42.44-.88.84-1.33,1.25-.09.08-.22.11-.35.17-.07-.1-.15-.17-.16-.25-.01-.2-.04-.37-.15-.55-.42-.69-.83-1.39-1.26-2.11ZM140.08,94.32c.5.73.77,1.61,1.58,2.11.82-.44,1.38-1.05,1.58-1.9-.38-.48-.87-.6-1.38-.73-.68-.17-1.25-.04-1.79.52Z"/>
    <path class="cls-6" d="M152.28,91.16c-.28-.1-.49-.29-.64-.55-.19-.34-.42-.66-.59-1-.22-.46-.41-.94-.59-1.42-.04-.11.01-.25.02-.41.28-.17.54-.35.82-.51.42-.24.86-.24,1.31-.1.36.11.55.52.38.86-.11.23-.26.44-.39.66.02.17.13.21.27.23.35.04.7.1,1.06.11.37.01.67.18.96.34-.02.1-.02.17-.03.23-.33.32-.66-.01-.99-.02-.35,0-.71-.07-1.06-.11-.35-.03-.68-.18-1.07-.15.02.14.01.24.05.31.2.37.41.73.61,1.11.08.15.04.31-.11.43ZM152.48,87.75c-.48-.19-.87-.15-1.24.09-.07.05-.12.14-.17.21.09.26.17.5.44.66.45-.13.78-.39.97-.95Z"/>
    <path class="cls-6" d="M80.05,133.44c-.31-.52-.54-.93-.7-1.4-.14-.42-.45-.78-.67-1.18-.09-.16-.13-.34-.21-.56.24-.05.44-.06.6-.14.14-.07.22-.23.34-.33.17-.15.37-.23.61-.27,1.3-.22,2.51,1.07,2.07,2.4-.16.48-.4.88-.88,1.11-.23.11-.45.27-.68.37-.13.05-.3.01-.48.01ZM80.59,132.77c.27,0,.45-.12.59-.3.29-.36.45-.77.43-1.32-.08-.13-.17-.34-.31-.51-.25-.29-.55-.52-.98-.51-.49.01-.76.27-.93.75.33.55.67,1.13,1.01,1.7.05.08.13.13.18.19Z"/>
    <path class="cls-6" d="M135.25,101.08c-.04.15-.07.27-.11.41-.19,0-.32.04-.44,0-.34-.1-.68-.2-1.01-.34-.36-.14-.71-.29-1.16-.27-.22.68-.25,1.39-.37,2.08-.11.02-.2.04-.32.06-.17-.76.04-1.49.1-2.26-.15-.08-.28-.2-.42-.22-.52-.1-.97-.34-1.41-.56-.14-.18-.08-.33,0-.5.67.06,1.21.61,1.94.51.04-.47.08-.96.14-1.43.03-.22.08-.45.17-.65.07-.16.23-.21.46-.12.05.77-.25,1.55-.21,2.38.44.16.86.32,1.28.47.42.15.85.28,1.36.44Z"/>
    <path class="cls-6" d="M85.42,127.92q.72-.29,1.17-.2c0,.09.03.23-.02.26-.21.14-.44.25-.67.36-.11.05-.22.08-.39.13.25.51.46.97.79,1.39.51-.08.83-.52,1.3-.61.06.03.12.05.16.09.12.12.04.24-.02.35-.05.08-.12.16-.2.21-.32.21-.65.42-.99.62-.26.15-.52.1-.68-.15-.24-.39-.52-.76-.66-1.18-.19-.59-.5-1.12-.78-1.66-.11-.21-.18-.41-.03-.71.39-.28.86-.56,1.35-.8.14-.06.25,0,.33.17-.25.39-.65.66-1.04.93-.05.34.11.57.36.81Z"/>
    <path class="cls-6" d="M120.6,105.84c-.32.16-.57.29-.83.4-.15.07-.25-.02-.39-.34.27-.31.65-.53,1.03-.65.69-.22,1.26-.63,1.88-.97.17-.09.34-.18.52-.24.06-.02.15.08.22.13-.1.36-.34.55-.62.73-.38.23-.8.4-1.14.75.06.14.1.26.17.36.23.35.42.74.71,1.03.49.48.7,1.07.87,1.69.05.19,0,.39-.25.44-.22-.06-.33-.23-.35-.42-.07-.57-.39-1.04-.73-1.44-.38-.44-.67-.94-1.07-1.46Z"/>
    <path class="cls-6" d="M163.73,82.09c-.84-.27-1.69-.27-2.33-.89.04-.13.08-.25.13-.4.56.22,1.07.51,1.71.54.26-.22.35-.55.47-.88.15-.42.32-.84.51-1.25.07-.15.23-.22.43-.15.02.07.08.16.08.25-.01.16-.06.32-.1.47-.14.63-.27,1.26-.4,1.84.23.67.82.98,1.17,1.53,0,.03.01.14-.03.21-.04.07-.18.15-.22.13-.19-.11-.4-.22-.55-.38-.31-.32-.59-.67-.89-1.02Z"/>
    <path class="cls-6" d="M147.55,93.18c.37-.22.64-.41.93-.54.13-.06.31-.04.46-.02.06,0,.09.14.13.2-.05.08-.08.15-.13.18-.47.28-.94.56-1.44.86-.14-.08-.32-.13-.4-.25-.58-.89-1.12-1.8-1.63-2.72.58-.57.82-.72,1.47-.89.02.06.05.12.1.22-.26.2-.53.41-.79.61-.02.06-.05.1-.04.12.1.2.2.4.3.6.39.06.6-.25.9-.34.15-.04.25,0,.32.15-.13.35-.56.38-.82.71.06.38.32.69.62,1.11Z"/>
    <path class="cls-6" d="M89.93,125.29c-.41-.43-.52-.87-.24-1.36.37-.38.85-.4,1.28-.47.22.12.28.25.18.45-.34.13-.75.14-1,.45.09.39.15.47.37.48.16,0,.32,0,.48-.01.43-.04.84.03,1.27.27l.41.7c-.26.7-.68,1.19-1.36,1.46-.15.06-.24-.01-.32-.19.22-.24.42-.53.7-.74.1-.07.17-.19.23-.3.1-.16.02-.44-.16-.49-.24-.07-.5-.11-.75-.13-.29-.02-.58,0-.87-.01-.06,0-.12-.04-.23-.07Z"/>
    <path class="cls-6" d="M112.76,109.15c.27-.02.41.14.53.34.45.75.91,1.49,1.36,2.23.2.33.4.67.59,1,.05.08.1.18.1.27.01.13-.04.26-.18.3-.08.02-.18-.01-.27-.03-.03,0-.05-.04-.06-.07-.69-1.16-1.38-2.33-2.08-3.49-.11-.18-.11-.36,0-.54Z"/>
    <path class="cls-6" d="M96.15,124.31c-.12-.07-.3-.12-.37-.24-.53-.85-1.03-1.72-1.53-2.58-.06-.1-.06-.25-.04-.37.01-.07.12-.13.19-.21.09.07.19.1.24.18.54.88,1.07,1.77,1.6,2.66.11.19.11.36-.08.56Z"/>
    <path class="cls-6" d="M138,99.45c-.19.19-.38.12-.53-.01-.12-.1-.19-.25-.28-.39-.34-.5-.62-1.05-1.07-1.48-.2-.19-.33-.48-.44-.74-.05-.12,0-.29.02-.53.21.12.37.17.46.27.14.17.23.39.36.57.27.39.49.82.85,1.16.25.23.4.58.58.88.04.07.03.18.04.26Z"/>
    <path d="M54.78,138.8c.09-.04.15-.06.22-.09.06.2.13.39.19.58-.05.03-.1.09-.14.08-.06,0-.15-.03-.16-.07-.05-.17-.08-.34-.11-.51Z"/>
    <path class="cls-5" d="M135.13,82.43c.12-.35.42-.48.67-.55.51-.13.94-.42,1.38-.67,1.24-.7,2.7-.36,3.47.83.39.6.73,1.22,1.09,1.83.25.43.34.9.36,1.39,0,.15-.01.33-.08.47-.24.46-.51.88-1.01,1.13-.66.35-1.27.76-1.91,1.14-.11.06-.23.1-.32.15-.08-.06-.16-.08-.18-.13-.46-.81-.99-1.57-1.33-2.46-.33-.86-.81-1.69-1.51-2.34-.07-.07-.12-.15-.18-.23-.16-.19-.31-.39-.46-.57Z"/>
    <path class="cls-5" d="M128.85,89.75c-.43-.4-.49-.86-.67-1.26-.18-.41-.45-.78-.65-1.12,0-.42.27-.63.46-.9.15-.04.31-.06.46-.13.36-.16.74-.29,1.1-.05.46.31.85.69.98,1.26.15.63-.09,1.22-.65,1.58-.32.21-.66.39-1.02.61Z"/>
    <path class="cls-5" d="M55.14,137.29c.03.11.08.19.05.22-.22.33-.57.36-.91.46-.33.1-.64.17-.93-.1-.08-.07-.04-.29-.05-.39.11-.21.27-.31.43-.27.47.14.95.11,1.41.07Z"/>
    <path class="cls-5" d="M69.51,137.87l.66,1.1c-.14.18-.3.37-.45.56-.07-.06-.14-.09-.15-.14-.07-.5-.13-1.01-.19-1.51.04,0,.09-.01.13-.02Z"/>
    <path class="cls-5" d="M61.31,142.03c.25.37.39.6.56.82.15.19.33.37.49.54-.13.26-.33.15-.5.13-.12-.01-.22-.07-.25-.23-.07-.37-.16-.73-.29-1.26Z"/>
    <path class="cls-5" d="M56.58,140.72c.54.15.77.36,1.14,1.01-.54-.25-.84-.63-1.14-1.01Z"/>
    <path class="cls-5" d="M89.85,117.37c-.16.17-.34.36-.53.53-.12.11-.24.23-.39.28-.7.24-1.38.52-2.15.5-.91-.02-1.73-.25-2.37-.91-.45-.47-.75-1.04-1-1.65-.08-.21-.15-.42-.21-.64-.15-.54-.17-1.09.1-1.6.22-.43.47-.85.76-1.23.17-.22.45-.43.71-.48.4-.08.72-.27,1.06-.45.36-.19.74-.21,1.12-.06,1.45.56,2.4,1.64,2.93,3.05.32.85.39,1.77-.04,2.67Z"/>
    <path class="cls-5" d="M78.2,124.18c-.41-.68-.77-1.29-1.15-1.93.27-.3.59-.47.98-.56.47-.1.94-.2,1.36-.45.26-.15.55-.16.84-.14.3.14.38.43.53.69.02.78-.33,1.34-1.03,1.71-.37.2-.73.42-1.1.61-.11.05-.24.05-.43.08Z"/>
    <path class="cls-5" d="M77.69,117.38l.47.79c-.22.85-1.01,1.23-1.43,1.87-.28.08-.53.14-.78.21-.05-.02-.12-.04-.17-.08-.28-.27-.56-.53-.76-.86-.15-.24-.35-.45-.54-.68-.02-.15.08-.22.19-.28.36-.2.71-.43,1.12-.55.3-.09.58-.27.85-.44.34-.2.66-.22,1.04.02Z"/>
    <path class="cls-5" d="M120.51,92.79c.8.73,1.61,1.47,2.45,2.23-.12.08-.21.19-.31.22-.44.12-.85.3-1.25.5-.1.05-.24.02-.34.02-.07-.08-.14-.12-.15-.18-.18-.88-.35-1.76-.51-2.63,0-.03.02-.06.04-.09.02-.02.04-.04.08-.07Z"/>
    <path class="cls-5" d="M127.88,103.9l-.74.44c-.07-.05-.14-.08-.15-.12-.1-.43-.19-.86-.3-1.35.53.18.77.64,1.2,1.03Z"/>
    <path class="cls-5" d="M140.08,94.32c.54-.56,1.11-.69,1.79-.52.5.13,1,.25,1.38.73-.2.85-.77,1.46-1.58,1.9-.82-.5-1.08-1.38-1.58-2.11Z"/>
    <path class="cls-5" d="M152.48,87.75c-.19.56-.52.83-.97.95-.27-.16-.35-.4-.44-.66.05-.06.09-.16.17-.21.37-.24.76-.28,1.24-.09Z"/>
    <path class="cls-5" d="M80.59,132.77c-.05-.05-.14-.11-.18-.19-.35-.57-.69-1.15-1.01-1.7.17-.48.44-.74.93-.75.43-.01.73.21.98.51.14.17.23.38.31.51.02.55-.14.96-.43,1.32-.14.18-.32.31-.59.3Z"/>
    <path d="M58.36,126.93c.24.62.37,1.19.72,1.67.06.08.08.19.16.24.72.58.87,1.49,1.3,2.24.06.11.07.25.08.37.02.2-.1.29-.43.39-.37-.11-.36-.71-.87-.69.07.21.15.39.2.57.07.26,0,.37-.37.58-.2-.09-.4-.18-.63-.28-.23.39-.79.27-.94.71-.34-.13-.29-.36-.22-.58.1-.32.37-.32.64-.32.09-.12.19-.25.26-.34.21-.15.31.09.48.07.15-.23.3-.48.45-.72-.43-.98-1.2-2.11-1.74-2.76-.33-.39-.74-.6-1.18-.75-.05-.48.07-.68.42-.72.25-.03.51-.04.73-.05.35-.23.27-.72.66-.86.15-.05.3-.1.45-.15.02,0,.05.03.08.05.13.22,0,.43-.04.64-.05.22-.12.44-.18.67Z"/>
    <path d="M61.17,129.51c.2.02.36.03.52.05.24-.18.4-.5.83-.46.01.11.07.24.04.34-.09.27-.24.54-.49.69-.29.18-.5.39-.61.72-.02.06-.15.08-.22.12.06.25.11.5.17.77.12.04.24.08.35.11.26-.35.17-.7.05-1.08.26-.09.49-.18.73-.25.21-.07.43-.12.61-.17.23-.28.02-.52-.03-.75.25-.15.31-.15.4-.02q.22.35.02,1.04c-.33.11-.69.23-1.06.36-.08.3-.14.59-.22.86-.1.33-.3.44-.67.38-.13-.02-.25-.07-.39-.12-.06-.22-.13-.43-.16-.65-.03-.22-.08-.49.01-.66.14-.25-.06-.44-.02-.65.04-.21.11-.42.18-.66Z"/>
    <path d="M59.21,126.49c.88-.16,1.63.1,2.33.6.37.43.6.95.59,1.6-.44.34-.91.66-1.47.89-.07-.07-.13-.13-.2-.2.25-.38.75-.4,1.01-.81-.13-.13-.27-.28-.4-.4.06-.28.26-.2.4-.25,0-.06.02-.13,0-.17-.26-.49-.71-.72-1.22-.84-.08-.02-.18.02-.27.03-.03.23-.04.25-.2.47-.12-.11-.23-.21-.37-.34.01.19.02.34.03.48-.16.12-.28.1-.34-.04-.17-.38-.18-.75.1-1.02Z"/>
    <path d="M56.82,131.78c-.05-.49-.08-.9-.12-1.31-.18-.06-.33-.11-.53-.17-.11-.64-.05-1.31-.07-1.98,0-.03.1-.06.15-.09.03.01.08.02.08.03.05.38.1.76.14,1.14.02.16.02.32.04.5.16.08.33.16.53.26.04.3.08.61.12.95.5,0,.86-.57,1.37-.28.02.01.03.05.05.08-.13.13-1.22.68-1.76.86Z"/>
    <path d="M54.88,132.44c.2.06.27.18.25.31-.07.46.06.88.16,1.31.13.53.25,1.06.24,1.6,0,.12-.03.26-.08.37-.03.06-.15.08-.22.11-.04-.05-.07-.08-.07-.1.04-.81-.18-1.57-.34-2.35-.06-.28-.08-.57-.08-.85,0-.14.09-.27.14-.41Z"/>
    <path d="M54.23,135.91c-.4-.09-.84-.2-1.25-.29-.2.17-.12.38-.13.56-.4-.03-.53-.19-.4-.49.06-.14.18-.26.27-.37.34-.11.65-.09.96.05.34.16.68.3,1.07-.13q-.07.45-.51.68Z"/>
    <path d="M61.75,138.26c-.21-.11-.39-.14-.46-.25-.22-.31-.41-.64-.58-.98-.06-.12.03-.23.23-.28.26.31.55.64.79.99.07.1.02.29.02.52Z"/>
    <path d="M65.62,134.76c.11.34.2.64.29.93-.21.06-.37,0-.45-.15-.16-.32-.53-.58-.37-1.02q.27.04.52.24Z"/>
    <path d="M64.23,136.12c-.08-.31-.14-.55-.19-.77.08-.06.14-.09.23-.15.3.35.65.67.5,1.21-.26.03-.33-.2-.53-.28Z"/>
    <path d="M61.24,132.64c.63.17.81.56,1,.93.08.15.08.31-.03.45-.03,0-.06.02-.08.01-.03,0-.07-.02-.09-.04-.25-.41-.49-.83-.8-1.35Z"/>
    <path d="M52.62,137.58q-.19.52-.04,1.31c-.13-.05-.24-.1-.34-.14-.13-.4-.19-.77.02-1.13.07-.12.17-.18.36-.04Z"/>
    <path d="M67.19,128.39c-.09-.08-.2-.13-.21-.2-.09-.46.07-.87.24-1.29.08.06.16.11.16.14-.02.44.02.89-.19,1.35Z"/>
    <path d="M62.21,136.4c.1.02.19.03.3.06.1.27.19.53.29.8,0,.02-.02.05-.03.08q-.46-.12-.56-.93Z"/>
    <path d="M65.76,127.1c.09.11.07.33-.04.42-.12.11-.27.17-.43.09-.04-.02-.08-.1-.09-.15,0-.03.07-.1.1-.1.28.03,0-.38.28-.35.06,0,.13.04.16.08Z"/>
    <path d="M66.75,131.12q-.19-.26.04-.79s.12.07.13.11c.04.25.01.48-.16.68Z"/>
    <path d="M66.81,142.35c-.44-.47-.62-1.14-1.07-1.59-.44-.43-.59-1.05-1.07-1.48-.03.13-.05.23-.08.32q-.39-.2-.57-.91c.13.06.24.11.35.17.06-.14.13-.29.2-.45.08.07.16.12.21.19.18.27.34.55.51.83.38.6.69,1.24,1.19,1.76.2.2.33.48.47.74.08.15.05.31-.15.42Z"/>
    <path d="M67.52,138.41c-.15-.03-.24-.02-.26-.06-.16-.27-.29-.56-.22-.88.02-.07.12-.16.19-.17.07,0,.19.06.22.13.13.29.16.61.08.98Z"/>
    <path d="M65.66,138.83c-.16-.13-.34-.26-.5-.4-.1-.09-.11-.26-.03-.34.11-.11.25-.08.35-.02.23.14.38.34.35.62,0,.04-.09.08-.17.14Z"/>
    <path d="M63.05,139.31c.18-.11.3-.02.4.12.14.19.26.38.05.6q-.34-.26-.45-.72Z"/>
    <path d="M66.14,137.35c.11.49.17.75.26,1.14-.36-.33-.51-.58-.26-1.14Z"/>
    <path class="cls-7" d="M63.65,143.72c.16-.04.71-.05.79-.22s0-.19.27-.9.67-.95.97-.76.33-.07.33-.07c.55.72.71.99.71.99,0,0,.16-.04.27-.47s-.14-.35.1-.98.21-1.11.51-1.23.57.03.68-.1-.18.11.29-.24.52.25.55.41-.15,1.51-.15,1.51c0,0-.18.42-.16.77s-.27.59-.36.95.11.49-.51.8-1.14.68-1.59.64-1.57-.46-1.72-.35-.97-.76-.97-.76Z"/>
    <path class="cls-9" d="M65.94,144.46l.89-.47s.27-.16.43-.32.43-.63.43-.63l.55.1c.39-.17.59-.35.59-.35,0,0-.15-1.08-.1-1.42s-.08-1.06.12-1.25.32-.27.32-.27l.21.33-.02,3.4s.4.26-.52.68-1.38,1-1.77.87-1.14-.68-1.14-.68Z"/>
  </g>
  <polygon class="cls-4" points="27.87 87.13 4.92 120.72 6.06 122.17 49.84 120.65 34.12 91.77 29.44 86.3 27.87 87.13 27.87 87.13"/>
  <path class="cls-3" d="M26.03,91.49c-.83.36-.24-.83-1.07-.47-.39.14-.18.83-1,.58-.32,1.37-.64,2.72-1.93,3.22-.31,1.44.73,1.38,1.15,2.03-1.81,1.32-1.82,5.56-5.01,4.15.29.77,1.25.81,1.39,1.76-.69.35-1.2.49-1.53.6,1.11.9-.29.68-.72,1.34-1.11,1.73-1.71,4.44-3.66,4.87-.07,1.26-.53,2.17-1.71,2.43.66,1.35-.38.18-.74.82,1.67.32-1.07,1.14.09,1.82-1.85.39-1.4,2.87-2.68,3.78-.17-.45.24-1.54-.33-1.55,0,.41.08.9-.49.81-.27.86.85.15.57,1.01-1.08.27-.88,1.69-1.44,2.42,2.71-.6,7.11-.64,10.14-.5.05-.2-.02-.51.23-.54,10.08.93,18.12-.64,30.43-.98-.56-2.73-2.98-4.04-3.92-5.54-.31-2.31-2.5-2.54-2.59-5.08-1.17.17-1-.93-.86-1.52-1.04.02-1.97-1.66-1.14-2.03-.81.44-.87-.15-1.58-.44-1.88-5.68-6.37-9.68-8.52-14.17.01.26-.44.35-.52.02.32-.04.61-.11.5-.54-.73.25-.69-.33-1.32-.19-1.26,1.76-1.82,4.14-3.92,5.14.55.89-.19,1.27-.68,1.86-.32-1.03-.06-2.03.38-2.89.43-.02.18.71.56.75.06-1.12.95-3.25,1.71-2.17-.03-.36.09-.58.22-.79h0ZM41.22,103.5c1.54.22,1.13,2.58,2.74,2.73.04,1.68.91,2.47,1.97,3.03-.12,1.78.88,2.31,1.96,2.77.12.44-.18.5-.49.54.37.36,1.23.6.58,1.28.2-.15.42-.29.76-.3.12.52-.01.82-.48.81.52.66,2.01,2.08,1.17,2.55.27.44.84.53,1.58.44.15,2.13,1.32,3.12,1.31,5.41-.25-.15-.98-.56-.76.3-.47-.49-1.81-.01-1.87-.95-.57,1.02-1.78-.68-3.09.67-.79.13-.58-.82-.85-1.26-.74.26.37.64.07,1.3-.2-.17-.88-1.05-.78.04-3.63-.25-9.02-.27-12.24.08-.01-.26-.03-.51-.04-.78-1.17.69-2.55.83-3.64.18-.7,1.01-5.54,1.05-7.02.35-2.86,1.64-9.21.1-10.59,1.82-2.24-1.26-6.1.17-8.9-.86-.26-.82.17-1,.46-1.33-1.05-.04-.44-.2-.61-1.79,1.21-.39,1.71-1.42,1.68-2.95,1.21.19.52-1.34,1.77-1.13-.23-.79-.21-.49-.07-1.3,1.77.2.7-2.18,2.23-2.19-.18-.26-.61-.24-.56-.76,1.05.29.49-.88,1.53-.6-.02-.43-.04-.87-.06-1.3.22-.21.58-.31,1.02-.31,1.53-3.92,4.38-6.63,6-10.46.9-.02,1.18-.58.97-1.61.76.03.76-.63,1.53-.6.63-3.48,3.95-4.54,4.55-8.04,2.85-.64,2.17-4.48,4.95-5.19-.18-.26-.61-.24-.56-.75.86-.06,1.27-.51,2.33-.38,1.16.82-.3,1.34,1.36,1.23-1.07,1.18.34,4.61,1.51,4.09.38.07.07,1.97,1.38,1.76-.14.8.32.93.35,1.54,3.34,2.79,3.98,8.57,7.33,11.36.12.44-.18.5-.5.55h0Z"/>
  <text class="cls-8" transform="translate(17.22 117.91) scale(.79 1)"><tspan x="0" y="0">42</tspan></text>
</svg>