<?xml version="1.0" encoding="UTF-8"?>
<svg id="Layer_1" data-name="Layer 1" xmlns="http://www.w3.org/2000/svg" viewBox="0 0 180 200">
  <defs>
    <style>
      .cls-1 {
        fill: #fff;
      }

      .cls-1, .cls-2, .cls-3, .cls-4 {
        fill-rule: evenodd;
      }

      .cls-2, .cls-5 {
        fill: #231f20;
      }

      .cls-4 {
        fill: #f48668;
      }

      .cls-5 {
        font-family: AmericanTypewriter-Bold, 'American Typewriter';
        font-size: 19.28px;
        font-weight: 700;
        letter-spacing: .02em;
      }
    </style>
  </defs>
  <g>
    <path class="cls-1" d="M49.76,58.4s-.25,5.08,0,9.91c.25,4.83.51,16.26.76,26.67.26,10.42.76,21.84,1.27,29.47.51,7.62,3.3,23.37,3.56,27.17.26,3.81.51,6.35.51,6.35,0,0,41.15,1.01,41.91,1.27.76.25,19.05.76,27.18.51,8.13-.25,33.79-.76,35.31-.76s7.11-1.01,7.11-1.01c0,0,3.3.51,3.81-3.3.51-3.81-1.53-33.28-1.53-33.28,0,0-1.53-11.18-1.78-20.07-.25-8.89-.76-26.42-.76-30.48s.26-11.94.26-12.7v-3.05s-20.58-1.27-21.85-1.27-49.53,1.02-52.33.76c-2.79-.25-18.8-1.02-21.34-1.02s-22.35,3.05-22.35,3.05l.25,1.78Z"/>
    <path class="cls-3" d="M124.05,137.58c.59.16,1.18.33,1.81.5.04.79.6,1.29,1.78,1.46-.25.82.46,1.09.9,1.47.21.17.63.08,1.01.12-.31.36-.23.73.13,1.2.49.63.85,1.36,1.18,2.09.14.31.18.83-.32.87-.26.02-.54-.38-.8-.6-.03-.02-.04-.08-.04-.11.15-1.99-1.58-2.76-2.56-4.1-.24.16-.42.29-.71.49.14-1.12-.7-1.41-1.4-1.87-.13.11-.27.23-.48.4-.15-.76-.34-1.47-1.32-1.65-.28.18-.64.42-1.09.71-.11-.36-.2-.64-.34-1.08-.93.32-1.85.6-2.74.96-.92.38-1.19,1.3-1.53,2.11-.46,1.08-.9,2.17-1.26,3.29-.14.42-.02.91-.02,1.41h-.74c.05.42.1.81.15,1.2.21.07.4.14.97.33-.36.19-.56.29-.84.44.31.7.07,1.83,1.58,1.75-.23.31-.37.51-.58.8.24.42.52.9.82,1.43.55-.17,1.04-.33,1.54-.49.03.08.07.16.1.24-.4.24-.79.49-1.24.76.35,1.26.86,2.53.15,3.81-.58.04-.74-.26-.7-.67.03-.31.21-.61.25-.93.05-.43.21-1.06,0-1.28-.77-.78-.73-1.95-1.52-2.74-.43-.42-.48-1.24-.68-1.9-.14-.47-.39-.57-.91-.34.76-.83.08-1.66.18-2.61h-1.79c.85-.78.55-1.46.29-2.19-.47-1.34-.94-2.66-1.67-3.89-.18-.31-.26-.7-.84-.64-.05.28-.16.59-.16.89,0,1.87-1.01,3.1-2.53,3.97-.39.22-.93.32-1.37.27-1.62-.19-2.59-1.19-2.91-2.8-.12-.6-.28-1.19-.47-1.76-.08-.24-.29-.44-.52-.76-1.29,1.95-1.6,4.17-2.54,6.12-.27-.07-.46-.12-.74-.19-.08.82-.63,1.56-.21,2.43-.04.06-.07.15-.13.18-.93.49-.84,1.58-1.33,2.32-.48.73-1.13,1.42-.58,2.45-.71.09-.81.54-.69,1.11.06.31.22.64.18.93-.03.22-.31.53-.51.56-.17.03-.48-.24-.58-.45-.11-.24-.12-.57-.05-.82.29-1.02.29-2.13,1.01-3.03.27-.34.27-.91.44-1.55.58-.33,1.02-.98,1.01-1.91,0-.14.03-.3.09-.43.23-.58.47-1.15.77-1.9-.53.02-.82.04-1.24.06-.26-1.28-.57-2.58-.77-3.89-.25-1.65-1.05-2.75-2.73-3.16-.95-.23-1.87-.52-2.9-.81-.05.36-.09.69-.15,1.15-.33-.25-.6-.45-.87-.66-.85,0-1.61.83-1.65,1.8-.35-.05-.78-.25-1.05-.12-.61.3-1.25.67-1.2,1.42-.47.12-.9.14-1.22.34-.33.2-.87.39-.63,1,.02.06-.07.21-.15.26-.98.63-1.1.83-1.2,1.87-.02.26-.15.5-.25.84-.57-.37-.58-.8-.36-1.21.58-1.08.89-2.33,2.05-3.03.66-.4.97-1.24,1.88-1.42.37-.07.64-.64.97-.97.1-.1.22-.18.34-.25.52-.3,1.05-.59,1.65-.93-.31-.17-.5-.28-.71-.4.09-.19.17-.35.28-.55-2.17-.93-3.97-2.36-5.68-3.93-.41-.38-.73-.85-1.1-1.27-.29-.33-.59-.66-.92-.95-1.39-1.18-2.84-2.29-4.17-3.53-1.11-1.04-1.35-2.57-1.8-3.95-.2-.62.3-1.18.97-1.25,3.37-.34,6.77-.71,10,.58,2.51,1.01,4.92,2.29,7.33,3.55.77.41,1.45.62,2.29.41.94-.24,1.9-.45,2.86-.57.97-.12,1.81-.37,2.42-1.19.14-.19.38-.3.59-.46-.08-.12-.11-.25-.2-.3-1.93-1.19-3.87-2.38-5.8-3.57-1.34-.83-1.52-1.24-.92-2.71.86-2.15,1.82-4.25,2.7-6.39.29-.7.47-1.46.64-2.21.11-.52.22-.97.85-.87.31-.93-.21-1.25-1-1.45.13-.26.23-.45.41-.79-.37-.21-.77-.44-1.27-.72.1-.71-.26-1.32-1.04-1.61.12-1.39-.81-2.68-.12-4.16.64.5.53,1.11.57,1.68.04.54.14,1.08.23,1.73.36-.21.53-.32.75-.45.05.17.13.28.11.38-.04.28-.21.57-.15.82.1.42.37.72.94.31.05,1.04.35,1.92,1.28,2.48-.06.98-.44,2.07.79,2.74-.08.2-.1.37-.2.48-1.77,1.98-2.6,4.48-3.81,6.77-.09.18-.18.37-.23.56-.23.87.04,1.47.93,1.44,1.57-.05,2.41.95,3.37,1.9.85.84,1.53,1.91,2.8,2.36.13-.16.38-.42.36-.43-.59-.61.02-1.27-.08-1.92-.1-.64.21-1.34.35-2.03-.34-.31-.68-.62-1.11-1.01.36-.25.61-.42.94-.65-.36-1.2-.73-2.44-1.1-3.67-.03-.11-.08-.29-.16-.32-.96-.27-.73-1.14-.91-1.79-.29-1.09-.47-2.23-.84-3.29-.29-.82-.78-1.6-1.25-2.34-.32-.5-.49-.97-.54-1.57-.11-1.6-.65-3.05-1.77-4.24-.13-.14-.27-.32-.31-.5-.33-1.74-1.42-3.04-2.51-4.35-.16-.19-.32-.37-.44-.58-.65-1.09-1.82-1.29-2.89-1.64-.21-.06-.51.16-.84.28-.58-1.02-1.69-1.11-2.7-1.29-1.75-.33-3.53-.54-5.3-.75-.54-.06-1.14-.22-1.6.3-.06.07-.24.1-.34.07-1.97-.67-4.05-.26-6.14-.7.43-.43.95-.49,1.43-.48,2.76.05,5.51.06,8.26.22,1.36.08,2.71.45,4.07.69.83.14,1.61.58,2.5.38.11-.03.26.01.35.08,1.27.83,2.88,1.13,3.93,2.28.76.82,1.35,1.81,1.92,2.78,1.78,3.06,3.24,6.28,4.42,9.61,1.2,3.4,2.31,6.84,3.46,10.27.23.03.45.06.67.09q.1,1.51,2.02,1.75c.33-.59,1.53-.66.98-1.92.38.04.67.06,1.14.11.56-1.54,1.19-3.11,1.69-4.73,1.34-4.39,2.79-8.73,4.65-12.93.46-1.03,1.05-2.02,1.66-2.97.46-.71.78-1.51,1.67-1.94.74-.36,1.32-1.06,1.96-1.62.56-.5,1.11-1.01,1.77-1.62.39-.08.97-.21,1.55-.34.99-.23,1.98-.45,2.96-.69.35-.09.69-.22,1.03-.33.26-.08.53-.19.8-.2,1.66-.06,3.32-.1,4.98-.15,1.33-.03,2.67-.05,4.01-.1,1.05-.03,2.1-.12,3.15-.13.24,0,.5.16.72.3.06.04.03.37-.05.42-.2.11-.5.25-.65.17-.74-.39-1.52-.21-2.27-.2-1.85.02-3.72,0-5.56.18-2.99.3-5.92.98-8.76,1.99-.57.2-1.16.38-1.7.65-.87.44-1.8.82-2.51,1.45-1.69,1.48-3.07,3.22-3.94,5.28.4.28.96.47,1.09.81.15.39-.03.94-.14,1.41-.12.55-.33,1.08-.52,1.7h1.05c-.66.77-1.98.72-1.84,2,.23.08.5.18.78.27,0,.06,0,.13,0,.2-.4.08-.8.16-1.31.26-.16.48-.34.99-.53,1.55.33.14.58.24.98.4-.28.14-.44.29-.59.29-.57,0-1.03.55-.78.77.81.73.26,1.77.77,2.53.5.74.94,1.51,1.34,2.31.83,1.63,1.65,3.26,2.41,4.91.33.71-.16,1.89-.98,2.41-.68.43-1.44.74-2.15,1.13-1.27.7-2.54,1.42-3.94,2.21.47.39.8.65,1.24,1.01-.51.18-.93.34-1.43.52.34.48.77.4,1.13.39,2.33-.06,4.62.28,6.9.65.56.09,1.01,0,1.5-.27,2.37-1.26,4.75-2.5,7.34-3.24,2.39-.68,4.85-.98,7.34-1.02,1.6-.02,3.14.27,4.63,1.03.2,1.08-.23,2.03-.88,2.79-1.76,2.02-3.2,4.3-5.26,6.06-.49.42-.86.97-1.27,1.47-.74.91-1.66,1.47-2.79,1.85-1.3.44-2.52,1.11-3.76,1.71-.24.12-.48.33-.63.56-.5.8-1.21,1.29-2.14,1.46-.01.1-.02.21-.04.31ZM129.16,122.89c.89-.2,1.56.52,2.37.65.05-.07.11-.14.16-.22-.52-.59-1.04-1.19-1.63-1.86-.36.15-.74.32-1.13.49q-1.12.13-1.36,1.18c.31.47.55.82.89,1.33.1-.44.14-.78.27-1.08.08-.19.28-.33.42-.49ZM128.47,125.37c.2,0,.4.02.6.03-.06.21-.13.41-.25.82.49-.14.93-.13,1.1-.34.34-.43,1.04-.7.86-1.59-.88.23-1.88-.05-2.29,1.1-.81-.08-1.46.24-2.08.62.05.1.09.21.13.31.65-.32,1.29-.64,1.93-.95ZM112.11,127.58l.02.03c-.09-.36-.32-.66-.68-.48-1.18.57-2.52.85-3.53,1.85.44.86.88,1.67,1.29,2.5.63,1.26,1.23,2.53,1.85,3.8l-.02-.02c1.04,2.87,2.09,5.74,3.13,8.63.96-.32,1.29-.99,1.61-1.7.99-2.19.84-4.41.31-6.67-.64-2.78-2.13-5.15-3.54-7.57-.09-.15-.29-.25-.45-.37ZM116.16,97.99c-.19.34-.41.67-.55,1.02-.37.9-.71,1.81-1.05,2.73-.19.51-.53,1-.14,1.6.08.12-.13.62-.29.68-.58.2-.66.68-.78,1.14-.71,2.84-1.68,5.58-2.77,8.29-.21.53-.37,1.07-.54,1.61-.02.06.03.15.04.22.27.2.55.41.9.67-.34.26-.64.41-.83.65-.18.24-.34.57-.32.85.06.89.21,1.77.33,2.64-.23.09-.39.16-.6.25.51.75.86.32,1.21,0,.81-.74,1.59-1.51,2.41-2.22.94-.83,2.17-1.07,3.29-1.52,1.02-.41,1.1-.55.57-1.53-1.15-2.09-2.37-4.15-3.55-6.22-.2-.35-.34-.72-.53-1.1.92-.74,1.32-1.59.9-2.54.4-.45.85-.78,1.01-1.21.16-.43.03-.97.03-1.54.22-.01.51-.03.88-.06.06-.38.13-.73.17-1.08.03-.24-.06-.59.06-.7.91-.75.57-1.66.14-2.64ZM106.29,128.31c-1.39-.57-2.64-1.08-3.91-1.59-2.23,2.29-3.04,5.35-4.12,8.27-.18.48-.19,1.05-.14,1.57.14,1.45.32,2.9.55,4.34.15.93.63,1.71,1.34,2.24,2.11-4.98,4.21-9.94,6.29-14.83ZM111.79,123.25c-.66-.61-1.32-1.2-1.97-1.81-.53-.49-1.1-.51-1.79-.39-.72.13-1.67.31-2.19-.03-.67-.42-.98-.17-1.32.18-.79.8-1.51,1.66-2.26,2.5.55.75,1.12,1.53,1.71,2.29.14.18.35.32.55.46,1.84,1.31,5.43.6,6.36-1.53.24-.55.58-1.07.92-1.67ZM112.95,127.54c.4-.19.74-.36,1.22-.59-1.06-.36-1.91-.63-2.73-.95-.69-.27-.82.09-.94.7.91.15,1.91-.18,2.46.84ZM124.37,126.17c1.05.42,1.45-.4,2.01-.84-.63.26-1.26.52-2.01.84ZM114.57,144.49c.35.07.65.22.74.13.19-.18.27-.48.5-.94-.52.34-.81.52-1.24.8ZM103.51,126.51q-.29-.69-.79-.46c.25.15.47.27.79.46Z"/>
    <path class="cls-3" d="M110.72,67.81c-.98-.05-2.11-.31-3.15-.93-1.28-.75-1.86-1.86-1.76-3.35.22-3.05,3.24-5.08,6.12-4.07.5.17.99.36,1.47.59,2.35,1.09,2.66,4.16,1.23,5.92-.85,1.04-2.37,1.85-3.91,1.84ZM110.67,66.69c1.07,0,1.94-.42,2.69-1.08,1.44-1.29,1.18-3.73-.53-4.51-.47-.22-1.04-.24-1.48-.51-1.15-.7-2.09-.18-3.04.4-1.16.7-1.41,1.81-1.36,3.05.05,1.14.8,1.73,1.75,2.1.63.25,1.31.38,1.97.56Z"/>
    <path class="cls-3" d="M143.29,64.79c0,.58,0,1.09,0,1.61,0,.28.03.59-.06.84-.07.19-.31.42-.48.43-.15,0-.35-.25-.45-.44-.07-.12-.05-.32-.05-.48.01-1.74,0-3.48.05-5.22.04-1.32.14-1.38,1.4-1.68,1.78-.42,3.55-.22,5.29.21,1.36.33,1.84,1.69,1.05,2.86-.34.5-.74.97-1.21,1.57.23.39.63,1.09,1.02,1.78.14.24.29.49.36.76.04.16-.03.44-.15.52-.12.08-.39.03-.54-.05-.17-.09-.29-.27-.42-.43-.12-.16-.21-.35-.33-.51q-1.42-2.06-3.91-1.89c-.47.03-.95.06-1.58.1ZM143.31,63.53c1.65,0,3.15.08,4.59-.34.43-.12.87-.45,1.16-.79.45-.54.24-1.1-.46-1.27-1.7-.4-3.41-.41-5.18-.22-.04.3-.09.53-.1.76-.01.56,0,1.12,0,1.86Z"/>
    <path class="cls-3" d="M103.39,61.96c-.65-.2-1.11-.32-1.55-.48-1.06-.37-2.14-.44-3.23-.12-1.27.36-1.99,1.48-1.86,2.78.12,1.19,1.18,2.35,2.29,2.5,1.12.15,2.19-.05,3.19-.56.35-.18.6-.57,1.12-1.09-.81-.11-1.31-.18-1.81-.24-.37-.05-.78-.09-.75-.59.02-.48.43-.55.8-.56.65-.02,1.3,0,1.94,0,.5,0,.71.28.79.75.17.99-.36,2.23-1.24,2.71-1.44.78-3,1-4.6.7-1.43-.27-2.69-1.85-2.83-3.44-.15-1.67.73-3.21,2.23-3.82,1.28-.53,2.61-.59,3.94-.22.75.21,1.45.53,1.56,1.71Z"/>
    <path class="cls-3" d="M66.83,61.97v1.9c.42,0,.81,0,1.19,0,.53,0,1.06-.02,1.58.06.22.03.4.31.6.48-.18.18-.33.46-.54.52-.46.12-.96.16-1.44.19-.4.03-.8,0-1.25,0v2.2c.86-.06,1.62-.12,2.38-.17.85-.05,1.7-.08,2.55-.11.38-.01.79.07.83.53.04.48-.37.6-.74.61-1.74.05-3.48.11-5.23.09-.79,0-.85-.14-.91-.95-.11-1.7-.24-3.39-.34-5.1-.03-.47.03-.94.05-1.54,2.18,0,4.23,0,6.28,0,.47,0,1.04-.09,1.18.57.09.39-.38.61-1.25.6-1.18-.01-2.35-.03-3.53-.03-.44,0-.87.07-1.42.12Z"/>
    <path class="cls-3" d="M102.67,73.64v1.91c.42,0,.81,0,1.19,0,.53,0,1.06-.02,1.58.06.22.03.4.31.6.48-.18.18-.33.46-.54.52-.46.13-.96.16-1.44.19-.39.03-.8,0-1.24,0v2.2c.86-.06,1.62-.12,2.38-.17.85-.05,1.7-.09,2.55-.11.38-.01.79.07.83.52.04.48-.36.6-.74.61-1.74.05-3.49.1-5.23.09-.79,0-.85-.14-.91-.95-.11-1.7-.24-3.39-.34-5.1-.03-.47.03-.94.05-1.54,2.19,0,4.24,0,6.28,0,.47,0,1.04-.09,1.18.56.09.4-.38.61-1.25.61-1.17-.01-2.35-.03-3.53-.03-.44,0-.88.07-1.42.11Z"/>
    <path class="cls-3" d="M89.36,68.07c-1.25-1.92-2.85-3.48-4.53-5.35-.07.58-.13.88-.14,1.18-.05,1.22-.1,2.43-.12,3.65-.01.57-.2.93-.97.9-.34-1.32-.01-2.65-.07-3.96-.06-1.29-.01-2.58-.01-3.95.44-.23.79-.16,1.18.3,1.28,1.5,2.62,2.96,3.93,4.43.09-.02.18-.05.27-.07.03-.98.05-1.96.08-2.94.01-.41-.02-.82.06-1.21.04-.18.29-.32.45-.48.15.17.32.32.42.51.07.13.06.32.06.48.01,1.83.03,3.65.02,5.47,0,.45-.09.88-.65,1.04Z"/>
    <path class="cls-3" d="M85.54,74.71c0,1.24.03,2.17-.01,3.11-.03.6-.15,1.21-.28,1.8-.03.15-.31.37-.42.34-.19-.06-.39-.24-.49-.42-.08-.16-.04-.39-.03-.6.06-1.74.13-3.49.19-5.23.01-.43,0-.86,0-1.48,1.27.55,1.66,1.76,2.48,2.52.86.79,1.61,1.7,2.58,2.75.04-.58.06-.96.08-1.33.06-1.05.1-2.11.2-3.16.02-.23.24-.6.41-.63.42-.07.52.32.53.65.05,1.66.07,3.33.1,4.99,0,.41.02.81-.03,1.21-.03.21-.14.51-.3.58-.17.07-.47-.04-.65-.16-.19-.13-.3-.37-.47-.55-1.23-1.4-2.46-2.78-3.88-4.39Z"/>
    <path class="cls-3" d="M119.45,59.77c1.51-.1,2.8.29,3.78,1.53,1.16,1.46,1.51,4.04-1.11,5.27-1.55.73-3.16.96-4.84.89-.56-.02-.8-.32-.8-.85,0-1.9.02-3.81,0-5.71,0-.56.28-.8.8-.85.72-.08,1.44-.18,2.16-.27ZM117.51,60.83v5.53c1.71.26,3.19-.12,4.58-.98.82-.51,1.09-1.25.91-2.19-.24-1.24-1.33-2.28-2.59-2.35-.92-.06-1.85-.01-2.89-.01Z"/>
    <path class="cls-3" d="M98.89,73.79c-.52-.06-.91-.12-1.3-.16-.68-.07-1.37-.17-2.06-.18-.39,0-.83.07-1.17.26-.27.15-.55.5-.59.8-.06.42.33.61.72.66.52.07,1.05.12,1.57.18.95.1,1.82.41,2.55,1.04.83.72.97,1.56.39,2.49-.72,1.16-1.85,1.6-3.13,1.49-.96-.09-1.89-.41-2.84-.65-.18-.05-.4-.17-.49-.33-.11-.18-.2-.49-.12-.65.08-.15.42-.27.6-.23.67.16,1.31.45,1.97.6.55.12,1.13.18,1.68.12.41-.05.85-.3,1.16-.58.61-.56.57-1.18-.14-1.6-.54-.33-1.18-.52-1.8-.69-.58-.15-1.21-.16-1.8-.27-.74-.14-1.25-.58-1.42-1.33-.16-.76.15-1.38.79-1.77.44-.27.95-.52,1.45-.56.88-.07,1.79-.04,2.67.06.59.07,1.2.28,1.29,1.29Z"/>
    <path class="cls-3" d="M133.31,73.54c-.52-.06-.91-.12-1.3-.16-.68-.07-1.37-.17-2.05-.18-.39,0-.83.08-1.17.26-.27.15-.55.5-.59.8-.06.42.33.61.72.66.52.07,1.05.12,1.57.18.95.09,1.82.4,2.55,1.03.83.72.97,1.57.39,2.49-.72,1.16-1.85,1.61-3.13,1.5-.96-.08-1.89-.41-2.83-.65-.19-.05-.4-.17-.49-.33-.11-.18-.2-.49-.12-.65.08-.15.42-.27.6-.23.66.16,1.3.45,1.97.59.55.12,1.13.19,1.68.12.41-.05.85-.29,1.16-.57.62-.56.58-1.18-.13-1.6-.54-.32-1.18-.52-1.8-.68-.58-.15-1.21-.16-1.8-.27-.74-.14-1.25-.58-1.41-1.34-.16-.76.14-1.38.78-1.77.44-.27.96-.52,1.45-.56.88-.07,1.78-.04,2.67.06.59.07,1.19.28,1.29,1.29Z"/>
    <path class="cls-3" d="M117.18,74.02c-.37-.19-.59-.28-.78-.41-1.57-1.08-3.16-.84-4.7.02-1.02.57-1.46,2.05-1.09,3.22.38,1.21,1.37,1.92,2.63,1.95,1.14.03,2.15-.34,3.11-.91.24-.14.46-.36.71-.45.19-.06.53-.05.63.07.11.14.1.47.01.65-.12.24-.35.45-.59.6-1.18.77-2.47,1.22-3.9,1.18-1.84-.06-3.43-1.44-3.74-3.23-.3-1.73.69-3.54,2.3-4.29,1.11-.51,2.27-.6,3.45-.42,1.19.18,1.67.68,1.96,2.04Z"/>
    <path class="cls-3" d="M57.6,66.26c.37.71.8,1.36,1.72,1.47.95.11,1.85.06,2.71-.43.55-.32.85-.74.77-1.38-.09-.69-.63-.77-1.17-.84-.6-.08-1.22-.08-1.81-.19-.59-.1-1.21-.21-1.75-.45-1.26-.58-1.45-2.09-.41-3.01.63-.56,1.39-.83,2.24-.78,1.29.08,2.42.58,3.46,1.36-.73.66-.75.69-1.52.11-.73-.57-1.5-.82-2.38-.49-.32.12-.66.33-.88.6-.61.79-.2,1.75.8,1.87.52.06,1.06.02,1.58.03.36.01.74,0,1.09.09,1.63.45,2.12,2.38.89,3.54-1.52,1.43-4.23,1.38-5.84-.31-.41-.43-.3-.68.5-1.19Z"/>
    <path class="cls-3" d="M80.22,66.38h-4.02c-.21.41-.45.87-.7,1.33-.17.31-.32.77-.78.58-.54-.23-.25-.69-.11-1.05.12-.34.29-.67.45-1,.79-1.64,1.58-3.29,2.39-4.93.13-.27.35-.5.53-.73.22.1.39.12.43.21,1.15,2.19,2.3,4.38,3.41,6.58.15.31.54.81,0,1.06-.6.27-.7-.38-.91-.72-.25-.41-.44-.86-.68-1.32ZM76.78,65.2h2.94c-.57-1.03-1.04-1.88-1.6-2.9-.5,1.08-.9,1.95-1.34,2.9Z"/>
    <path class="cls-3" d="M117.96,72.23c.54-.16.83-.3,1.12-.31,1.83-.06,3.65-.1,5.47-.12.46,0,1.14-.12,1.16.54.02.68-.65.57-1.12.58-.6.02-1.21,0-1.9,0-.04.3-.11.57-.1.84.04,1.38.1,2.75.14,4.14.01.36.03.73-.04,1.08-.07.35-.28.6-.84.36-.06-2.03-.12-4.12-.18-6.22-1.09-.54-2.45.28-3.71-.91Z"/>
    <path class="cls-3" d="M81.64,72.6c.69.2.71.57.7.94-.01,1.85-.04,3.71-.06,5.56,0,.16-.01.35-.1.47-.11.14-.3.27-.47.29-.1.02-.26-.17-.32-.3-.07-.14-.07-.31-.07-.47.02-1.85.03-3.71.07-5.56,0-.29.16-.58.26-.92Z"/>
    <path class="cls-1" d="M77.26,123.65c.42-.47.72-.81,1.05-1.18.53.21,1.03.42,1.66.68-.75.41-1.55.24-2.16,1.05.71-.19,1.16-.33,1.63-.44.43-.11.88-.2,1.44-.32-1.39-1.21-2.55-1.47-3.88-.94.07.3.14.61.26,1.15ZM81.47,127.64c1.19-.11,2.38-.27,3.58-.33,1.15-.06,2.31-.01,3.46-.01-1.71-.65-4.68-.53-7.04.34ZM83.17,129.09c0,.11.01.23.02.34,1.7-.17,3.4-.34,5.1-.52,0-.09-.01-.19-.02-.29-1.72-.11-3.41.18-5.09.47ZM87.38,129.72c-1.49-.4-2.12-.32-2.99.34,1.06-.12,2.02-.23,2.99-.34Z"/>
    <path class="cls-1" d="M112.11,127.58c.15.12.35.22.45.37,1.4,2.42,2.89,4.79,3.54,7.57.52,2.26.68,4.48-.31,6.67-.32.7-.66,1.38-1.61,1.7-1.05-2.89-2.09-5.76-3.13-8.63.14.08.28.22.41.22.21-.01.45-.08.58-.21.08-.08-.05-.35-.08-.53-.2.06-.42.08-.6.18-.12.07-.2.24-.29.36-.61-1.27-1.22-2.54-1.85-3.8-.41-.83-.85-1.64-1.29-2.5,1.01-1,2.35-1.29,3.53-1.85.37-.17.59.13.68.48-.33-.22-.67-.42-.79.16-.03.12.17.42.3.43.47.07.48-.29.47-.62ZM113.93,137.93c.08-.98-.07-1.32-.61-1.47-.54-.14-.6-.1-.96.7.48.24.96.48,1.57.77ZM114.7,137.81q-.46,1.06.54,2.12c.64-.73-.2-1.56.1-2.32-.15.25-.3.5-.48.79-.06-.21-.1-.35-.16-.58ZM109.68,130.62c.05.5.16.87.72.78.08-.01.21-.16.21-.25-.04-.5-.32-.69-.93-.53ZM113.63,138.67c-.19.29-.37.46-.39.64-.01.13.19.28.3.42.16-.13.43-.24.46-.39.03-.16-.18-.36-.37-.67ZM115.41,141.26q-.95.28-.42.91c.16-.34.29-.63.42-.91ZM114.04,131.12c-.19-.19-.34-.44-.44-.42-.2.04-.47.21-.5.36-.03.15.21.35.33.53.18-.13.35-.26.61-.46ZM114.31,140.93c-.08-.03-.17-.05-.26-.07-.09.33-.19.66-.28,1,.09.02.18.05.27.07.09-.33.18-.66.27-1ZM115.15,135.37c-.17.38-.31.56-.3.72.02.15.21.28.32.42.13-.11.34-.21.37-.34.03-.12-.13-.29-.39-.8Z"/>
    <path class="cls-1" d="M116.16,97.99c.42.98.77,1.88-.14,2.64-.12.11-.03.46-.06.7-.04.35-.11.7-.17,1.08-.37.02-.67.04-.88.06,0,.57.13,1.11-.03,1.54-.17.43-.62.75-1.01,1.21.42.95.03,1.8-.9,2.54.18.38.33.76.53,1.1,1.18,2.08,2.4,4.13,3.55,6.22.53.98.45,1.12-.57,1.53-1.12.45-2.35.69-3.29,1.52-.82.72-1.6,1.48-2.41,2.22-.35.32-.71.75-1.21,0,.21-.08.37-.15.6-.25-.12-.87-.27-1.75-.33-2.64-.02-.28.14-.62.32-.85.18-.24.49-.39.83-.65-.35-.26-.62-.47-.9-.67-.01-.08-.06-.16-.04-.22.17-.54.33-1.09.54-1.61,1.09-2.71,2.06-5.45,2.77-8.29.11-.46.2-.94.78-1.14.17-.06.37-.55.29-.68-.39-.6-.05-1.09.14-1.6.34-.91.68-1.83,1.05-2.73.14-.36.37-.68.55-1.02Z"/>
    <path class="cls-1" d="M106.29,128.31c-2.07,4.89-4.18,9.85-6.29,14.83-.71-.54-1.19-1.32-1.34-2.24-.23-1.44-.41-2.89-.55-4.34-.05-.52-.04-1.09.14-1.57,1.08-2.92,1.9-5.98,4.12-8.27,1.27.51,2.53,1.03,3.91,1.59ZM100.21,140.38c-.2-.22-.39-.44-.62-.69-.48.45-.57.82-.07,1.3.26-.23.48-.43.71-.64-.24.4-.48.8-.73,1.19.93.05,1.48-.86,1.18-1.99-.16.28-.31.55-.47.83ZM99.14,139.42c.74-1.25.74-2.6.03-3.45-.17.29-.34.56-.49.84-.41.79.58,1.51.14,2.31-.01.03.16.15.33.3ZM101.78,136.15c-.37-.03-.59-.05-.86-.08-.02.36-.05.7-.07,1.07.72-.04.6-.6.93-1ZM100.32,130.48c-.17.42-.65.66-.23,1.11.06.06.26.08.33.03.41-.3.39-.65-.1-1.14ZM104.53,130.83c-.2-.27-.31-.41-.42-.56-.19.16-.41.29-.54.48-.05.07.19.44.22.43.22-.06.43-.2.74-.35ZM98.78,135.21c.13.05.28.15.34.12.21-.13.41-.3.57-.5.03-.04-.14-.24-.21-.37-.22.13-.45.25-.65.4-.06.05-.04.22-.06.35ZM103.08,127.86c-.23-.18-.42-.39-.49-.36-.19.09-.35.27-.45.45-.03.05.26.37.33.35.19-.06.35-.24.61-.44ZM100.94,138.89c.2-.25.4-.4.44-.59.02-.11-.19-.27-.3-.42-.15.19-.33.38-.44.59-.03.06.15.22.3.42ZM102.3,133.95c-.15.3-.29.49-.33.7-.02.06.2.18.32.27.12-.18.28-.33.35-.53.03-.07-.16-.22-.33-.44Z"/>
    <path class="cls-1" d="M111.79,123.25c-.34.61-.68,1.12-.92,1.67-.93,2.13-4.52,2.84-6.36,1.53-.19-.14-.41-.27-.55-.46-.59-.76-1.16-1.54-1.71-2.29.75-.84,1.47-1.7,2.26-2.5.34-.35.65-.6,1.32-.18.53.34,1.47.16,2.19.03.69-.13,1.27-.1,1.79.39.65.61,1.31,1.2,1.97,1.81ZM107.47,125.81c-.26-.14-.47-.33-.56-.29-.17.08-.32.29-.38.47-.02.06.29.35.37.32.19-.08.32-.27.57-.51ZM110.56,124.05c-.27-.19-.43-.37-.57-.36-.16,0-.32.19-.47.3.11.14.23.39.34.39.19,0,.38-.17.7-.33ZM107.99,121.65c.11.41.34.64.77.47.09-.03.18-.31.13-.39-.22-.38-.53-.42-.9-.08ZM104.54,123.76c-.25-.16-.41-.33-.56-.32-.14,0-.26.21-.39.33.14.12.27.31.42.33.13.01.28-.18.52-.34ZM105.8,121.53c-.29-.14-.47-.3-.6-.27-.15.04-.27.24-.4.37.12.12.27.36.37.34.19-.04.34-.22.62-.44Z"/>
    <path class="cls-1" d="M128.49,125.39c.41-1.15,1.42-.87,2.29-1.1.17.89-.52,1.16-.86,1.59-.17.21-.6.2-1.1.34.13-.41.19-.6.25-.82-.2,0-.4-.02-.6-.03l.02.02Z"/>
    <path class="cls-1" d="M112.95,127.54c-.54-1.03-1.54-.69-2.46-.84.12-.61.25-.97.94-.7.83.32,1.67.59,2.73.95-.48.23-.82.4-1.22.59Z"/>
    <path class="cls-1" d="M128.94,121.95c.39-.17.77-.33,1.13-.49.59.67,1.11,1.27,1.63,1.86-.05.07-.11.14-.16.22-.81-.12-1.49-.85-2.37-.65v.03c.45-.2.39-.57.35-.96-.2-.01-.39-.03-.59-.04l.03.03Z"/>
    <path class="cls-1" d="M129.16,122.89c-.15.16-.35.3-.42.49-.12.3-.16.63-.27,1.08-.34-.51-.57-.86-.89-1.33q.24-1.05,1.36-1.18l-.03-.03c-.16.12-.32.23-.49.35.2.32.5.59.74.65v-.03Z"/>
    <path class="cls-1" d="M128.47,125.37c-.64.32-1.29.63-1.93.95-.05-.1-.09-.21-.13-.31.63-.38,1.28-.7,2.09-.62l-.02-.02Z"/>
    <path class="cls-1" d="M124.37,126.17c.76-.32,1.39-.58,2.01-.84-.56.43-.97,1.26-2.01.84Z"/>
    <path class="cls-1" d="M114.57,144.49c.43-.28.72-.47,1.24-.8-.23.45-.31.75-.5.94-.09.08-.39-.06-.74-.13Z"/>
    <path class="cls-1" d="M103.51,126.51c-.32-.19-.54-.31-.79-.46q.49-.23.79.46Z"/>
    <path class="cls-1" d="M110.67,66.69c-.66-.18-1.34-.31-1.97-.56-.95-.37-1.71-.96-1.75-2.1-.05-1.24.2-2.35,1.36-3.05.95-.57,1.89-1.1,3.04-.4.44.27,1.01.29,1.48.51,1.71.78,1.97,3.22.53,4.51-.75.67-1.62,1.08-2.69,1.08Z"/>
    <path class="cls-1" d="M143.31,63.53c0-.74,0-1.3,0-1.86,0-.23.06-.47.1-.76,1.77-.18,3.49-.18,5.18.22.71.17.92.73.46,1.27-.29.35-.73.67-1.16.79-1.44.42-2.93.33-4.59.34Z"/>
    <path class="cls-1" d="M117.51,60.83c1.04,0,1.97-.04,2.89.01,1.26.07,2.35,1.11,2.59,2.35.18.94-.09,1.69-.91,2.19-1.39.85-2.87,1.24-4.58.98v-5.53Z"/>
    <path class="cls-3" d="M128.47,59.77c1.51-.1,2.8.29,3.78,1.53,1.16,1.46,1.51,4.04-1.11,5.27-1.55.73-3.16.96-4.85.89-.56-.02-.8-.32-.8-.85,0-1.9.02-3.81.01-5.71,0-.56.28-.8.8-.85.72-.08,1.44-.18,2.16-.27ZM126.53,60.83v5.53c1.71.26,3.2-.12,4.58-.98.82-.51,1.09-1.25.91-2.19-.24-1.24-1.33-2.28-2.59-2.35-.92-.06-1.85-.01-2.9-.01Z"/>
    <path class="cls-1" d="M126.53,60.83c1.04,0,1.97-.04,2.9.01,1.26.07,2.35,1.11,2.59,2.35.18.94-.09,1.69-.91,2.19-1.38.85-2.87,1.24-4.58.98v-5.53Z"/>
    <path class="cls-3" d="M154.76,59.77c1.51-.1,2.79.29,3.78,1.53,1.16,1.46,1.51,4.04-1.11,5.27-1.55.73-3.16.96-4.84.89-.56-.02-.8-.32-.8-.85,0-1.9.02-3.81.01-5.71,0-.56.28-.8.8-.85.72-.08,1.44-.18,2.16-.27ZM152.82,60.83v5.53c1.71.26,3.19-.12,4.58-.98.82-.51,1.09-1.25.91-2.19-.24-1.24-1.33-2.28-2.59-2.35-.92-.06-1.85-.01-2.89-.01Z"/>
    <path class="cls-1" d="M152.82,60.83c1.04,0,1.97-.04,2.89.01,1.26.07,2.36,1.11,2.59,2.35.18.94-.09,1.69-.91,2.19-1.38.85-2.87,1.24-4.58.98v-5.53Z"/>
    <path class="cls-1" d="M76.78,65.2c.44-.95.84-1.81,1.34-2.9.56,1.02,1.03,1.87,1.6,2.9h-2.94Z"/>
    <path class="cls-3" d="M139.66,65.36h-4.02c-.22.41-.45.87-.7,1.33-.17.31-.32.77-.78.58-.54-.23-.25-.69-.11-1.05.13-.34.29-.67.45-1,.79-1.64,1.58-3.29,2.39-4.93.13-.27.35-.5.53-.74.22.11.39.12.43.21,1.15,2.19,2.3,4.38,3.41,6.58.16.31.55.81,0,1.06-.6.27-.7-.38-.91-.72-.25-.41-.44-.86-.68-1.32ZM136.22,64.19h2.94c-.57-1.03-1.04-1.88-1.6-2.9-.5,1.09-.9,1.95-1.35,2.9Z"/>
    <path class="cls-1" d="M136.22,64.19c.44-.96.84-1.82,1.35-2.9.56,1.02,1.03,1.87,1.6,2.9h-2.94Z"/>
    <path class="cls-3" d="M129.88,130.94c.59.38,1.17.76,1.75,1.14-.03.06-.07.13-.11.19-2.1-.91-4.2-1.81-6.31-2.72.43-.13.95.03,1.39-.41.21-.22.83-.12,1.25-.05.83.13,1.64.34,2.46.52-.03.2.06.33.36.47-.2.14-.37.27-.54.4l.03-.03c-.3.02-.61.04-.91.07-.01.06-.03.11-.04.17.23.09.47.19.7.28l-.03-.03Z"/>
    <path class="cls-3" d="M126.27,127.54c.34-.04.68-.09,1.02-.14,0-.02,0-.04,0-.06h-2.09c1.15-.35,2.32-.45,3.5-.38.17.01.32.4.61.78h-3.01c0-.07-.02-.13-.02-.2Z"/>
    <path class="cls-3" d="M127.94,132.68c-.18.18-.34.52-.53.54-.67.04-.69.48-.71.95l.03-.03c-.54.09-1.07.18-1.87.31.32-.26.43-.39.57-.46.34-.16.62-.2.8-.7.24-.64.98-.88,1.73-.59l-.03-.03Z"/>
    <path class="cls-3" d="M127.96,132.7c.09-.36.19-.72.31-1.17.63.24,1.18.46,1.87.73-.85.16-1.53.28-2.21.41l.03.03Z"/>
    <path class="cls-3" d="M130.13,130.49h1.08c.02.06.04.13.05.2-.46.09-.92.17-1.39.26l.03.03c.08-.17.17-.34.25-.51l-.03.03Z"/>
    <path class="cls-3" d="M88.42,123.63c-.21.22-.42.44-.66.69,1.44,1.08,3.13,1.94,4.31,3.45-2.81-1.22-5.65-2.22-8.7-2.26.12-.68.22-1.21.35-1.92.35.13.69.26,1.14.42-.17.31-.29.53-.48.88,1.19.66,2.58.5,3.83.91-.88-.71-1.51-1.7-2.65-2.06-1.35-.42-2.69-.9-4.03-1.34-.3-.1-.61-.19-.89-.35,1.63-.18,3.2-.07,4.53.9.51-.33.93-.59,1.35-.86.05.06.1.12.14.18-.25.28-.5.56-.85.94.45.25.88.48,1.48.81-.26-.48-.41-.76-.66-1.21.61.06.99.09,1.38.12.14.23.28.46.42.7Z"/>
    <path class="cls-3" d="M88.42,123.63c-.14-.23-.28-.46-.42-.7.04-.2.08-.4.11-.61,0,0-.01-.02-.01-.02.8.9,1.59,1.81,2.39,2.7.26.29.56.54.93.9-.64.23-.89-.07-1.16-.37-.6-.65-1.23-1.27-1.84-1.91Z"/>
    <path class="cls-3" d="M113.93,137.93c-.6-.3-1.08-.53-1.57-.77.36-.8.42-.84.96-.7.53.15.69.48.61,1.47Z"/>
    <path class="cls-3" d="M114.7,137.81c.07.24.1.37.16.58.18-.29.33-.54.48-.79-.3.76.54,1.59-.1,2.32q-1-1.05-.54-2.12Z"/>
    <path class="cls-3" d="M109.68,130.62c.6-.16.89.03.93.53,0,.08-.12.24-.21.25-.56.09-.67-.27-.72-.78Z"/>
    <path class="cls-3" d="M111.05,135.28c.09-.13.17-.3.29-.36.18-.1.4-.12.6-.18.03.18.16.45.08.53-.13.14-.38.2-.58.21-.13,0-.27-.14-.41-.22,0,0,.02.02.02.02Z"/>
    <path class="cls-3" d="M113.63,138.67c.19.31.4.51.37.67-.03.15-.3.26-.46.39-.11-.14-.31-.29-.3-.42.02-.18.2-.35.39-.64Z"/>
    <path class="cls-3" d="M115.41,141.26c-.13.29-.27.57-.42.91q-.53-.64.42-.91Z"/>
    <path class="cls-3" d="M114.04,131.12c-.26.2-.43.33-.61.46-.12-.18-.36-.38-.33-.53.03-.15.31-.32.5-.36.09-.02.24.23.44.42Z"/>
    <path class="cls-3" d="M112.11,127.58c0,.33,0,.69-.47.62-.13-.02-.33-.31-.3-.43.13-.58.47-.39.79-.16l-.02-.03Z"/>
    <path class="cls-3" d="M114.31,140.93c-.09.33-.18.66-.27,1-.09-.03-.18-.05-.27-.07.09-.33.19-.66.28-1,.09.02.17.05.26.07Z"/>
    <path class="cls-3" d="M115.15,135.37c.26.51.42.67.39.8-.03.13-.24.23-.37.34-.11-.14-.3-.27-.32-.42-.02-.16.13-.34.3-.72Z"/>
    <path class="cls-3" d="M99.14,139.42c-.16-.15-.34-.27-.33-.3.44-.8-.55-1.52-.14-2.31.15-.28.32-.55.49-.84.71.85.71,2.2-.03,3.45Z"/>
    <path class="cls-3" d="M100.21,140.37c.15-.27.3-.54.47-.82.31,1.12-.25,2.03-1.18,1.99.24-.4.48-.79.73-1.19l-.02.03Z"/>
    <path class="cls-3" d="M100.23,140.35c-.23.21-.46.41-.71.64-.5-.48-.41-.85.07-1.3.22.25.42.47.62.69,0,0,.02-.03.02-.03Z"/>
    <path class="cls-3" d="M101.78,136.15c-.33.4-.21.95-.93,1,.03-.38.05-.72.07-1.07.27.02.49.04.86.08Z"/>
    <path class="cls-3" d="M100.32,130.48c.49.49.51.84.1,1.14-.07.05-.27.03-.33-.03-.42-.45.05-.68.23-1.11Z"/>
    <path class="cls-3" d="M104.53,130.83c-.3.16-.51.29-.74.35-.04,0-.27-.36-.22-.43.12-.2.35-.33.54-.48.11.15.22.29.42.56Z"/>
    <path class="cls-3" d="M98.78,135.21c.02-.13,0-.29.06-.35.2-.16.43-.27.65-.4.08.13.24.33.21.37-.16.19-.36.36-.57.5-.06.04-.21-.07-.34-.12Z"/>
    <path class="cls-3" d="M103.08,127.86c-.26.2-.42.38-.61.44-.07.02-.35-.3-.33-.35.1-.18.26-.36.45-.45.07-.03.26.18.49.36Z"/>
    <path class="cls-3" d="M100.94,138.89c-.15-.2-.32-.36-.3-.42.11-.21.29-.4.44-.59.11.14.33.31.3.42-.05.19-.24.34-.44.59Z"/>
    <path class="cls-3" d="M102.3,133.95c.18.22.36.37.33.44-.07.19-.23.35-.35.53-.11-.09-.33-.21-.32-.27.05-.21.18-.39.33-.7Z"/>
    <path class="cls-3" d="M107.47,125.81c-.24.23-.38.43-.57.51-.08.03-.4-.25-.37-.32.06-.19.21-.39.38-.47.09-.04.3.15.56.29Z"/>
    <path class="cls-3" d="M110.56,124.05c-.32.16-.51.33-.7.33-.11,0-.22-.25-.34-.39.15-.11.31-.29.47-.3.14-.01.29.18.57.36Z"/>
    <path class="cls-3" d="M107.99,121.65c.37-.34.68-.3.9.08.05.08-.04.36-.13.39-.43.17-.66-.05-.77-.47Z"/>
    <path class="cls-3" d="M104.54,123.76c-.24.16-.39.35-.52.34-.15-.02-.29-.21-.42-.33.13-.12.25-.32.39-.33.15-.01.3.16.56.32Z"/>
    <path class="cls-3" d="M105.8,121.53c-.28.22-.44.4-.62.44-.1.02-.25-.22-.37-.34.13-.13.24-.34.4-.37.13-.03.31.13.6.27Z"/>
    <path class="cls-3" d="M129.17,122.92c-.24-.06-.54-.33-.74-.65.16-.12.33-.23.49-.35.2.01.4.02.59.04.04.39.1.76-.34.96Z"/>
    <path class="cls-1" d="M130.16,130.46c-.08.17-.17.34-.25.51-.23-.09-.47-.19-.7-.28.01-.06.03-.11.04-.17.3-.02.61-.05.91-.07Z"/>
    <path class="cls-1" d="M84.81,122.6s4.64,2.29,5.08,2.48c.45.19-.44.89-.44.89,0,0-.63-.89-1.65-1.14-1.02-.25-.32-.38-1.84-.51-1.53-.13-2.6-.19-2.6-.19l1.46-1.52Z"/>
    <path class="cls-1" d="M125.97,127.81l4-.06s.89-.38,1.08-.38,1.02-.51,1.02-.51l1.21.57-.83,1.65v.64s-.06-.25-1.91-.32c-1.84-.06-2.48-.06-2.92.06-.44.12-.45.07-1.02-.32-.57-.38-1.52-1.14-1.52-1.14l.89-.19Z"/>
  </g>
  <polygon class="cls-4" points="34.08 90.26 11.14 123.84 12.28 125.29 56.06 123.77 40.33 94.89 35.65 89.42 34.08 90.26 34.08 90.26"/>
  <path class="cls-2" d="M32.25,94.61c-.83.36-.24-.83-1.07-.47-.39.14-.18.83-1,.58-.32,1.37-.64,2.72-1.93,3.22-.31,1.44.73,1.38,1.15,2.03-1.81,1.32-1.82,5.56-5.01,4.15.29.77,1.25.81,1.39,1.76-.69.35-1.2.49-1.53.6,1.11.9-.29.68-.72,1.34-1.11,1.72-1.71,4.44-3.66,4.87-.07,1.25-.53,2.17-1.71,2.43.66,1.35-.38.18-.74.82,1.67.32-1.07,1.14.09,1.82-1.85.39-1.4,2.87-2.68,3.78-.17-.45.24-1.54-.33-1.55,0,.41.08.9-.49.81-.27.86.85.15.57,1.01-1.08.27-.88,1.69-1.44,2.42,2.71-.6,7.11-.64,10.14-.5.05-.2-.02-.51.23-.53,10.08.92,18.12-.65,30.43-.98-.56-2.73-2.98-4.04-3.92-5.54-.31-2.31-2.5-2.54-2.59-5.08-1.17.17-1-.93-.86-1.52-1.04.02-1.97-1.66-1.14-2.03-.81.44-.87-.15-1.58-.44-1.88-5.68-6.37-9.68-8.52-14.17.01.26-.44.35-.52.02.32-.04.61-.11.5-.54-.73.25-.69-.33-1.32-.19-1.26,1.76-1.82,4.14-3.92,5.14.55.89-.19,1.27-.68,1.86-.32-1.03-.06-2.03.38-2.89.43-.02.18.72.56.76.06-1.12.95-3.24,1.71-2.17-.03-.36.09-.58.22-.79h0ZM47.43,106.62c1.54.22,1.13,2.58,2.74,2.73.04,1.68.91,2.47,1.97,3.02-.12,1.78.89,2.31,1.96,2.77.12.44-.18.5-.49.54.37.36,1.22.6.58,1.28.2-.15.42-.29.76-.3.12.52-.01.82-.48.8.52.67,2.02,2.08,1.17,2.55.27.44.84.53,1.58.44.15,2.13,1.32,3.12,1.31,5.41-.25-.15-.98-.56-.76.3-.47-.49-1.81-.01-1.87-.95-.57,1.02-1.78-.68-3.09.67-.79.13-.58-.82-.85-1.26-.74.26.37.64.07,1.3-.2-.17-.88-1.05-.78.04-3.63-.25-9.02-.27-12.24.08-.01-.26-.03-.51-.04-.78-1.17.69-2.55.83-3.64.18-.7,1.02-5.54,1.05-7.02.35-2.86,1.64-9.21.09-10.59,1.82-2.24-1.26-6.1.17-8.9-.86-.26-.82.17-1,.46-1.33-1.05-.04-.44-.2-.61-1.79,1.21-.39,1.71-1.42,1.68-2.95,1.21.19.52-1.34,1.77-1.13-.23-.79-.21-.49-.07-1.3,1.77.2.7-2.18,2.23-2.19-.18-.26-.61-.24-.56-.76,1.05.29.49-.88,1.53-.6-.02-.43-.04-.87-.06-1.3.22-.21.58-.31,1.02-.31,1.53-3.92,4.38-6.63,6-10.46.9-.02,1.18-.58.97-1.61.76.03.76-.63,1.53-.59.63-3.48,3.95-4.54,4.55-8.05,2.85-.64,2.17-4.48,4.95-5.19-.18-.26-.61-.24-.56-.75.86-.06,1.27-.51,2.33-.38,1.16.82-.3,1.34,1.36,1.23-1.07,1.18.34,4.61,1.51,4.09.38.07.07,1.97,1.39,1.76-.14.8.32.93.35,1.54,3.34,2.79,3.98,8.57,7.33,11.36.12.44-.18.5-.5.55h0Z"/>
  <text class="cls-5" transform="translate(23.43 119.93) scale(.79 1)"><tspan x="0" y="0">44</tspan></text>
</svg>