<?xml version="1.0" encoding="UTF-8"?>
<svg id="Layer_1" data-name="Layer 1" xmlns="http://www.w3.org/2000/svg" viewBox="0 0 180 200">
  <defs>
    <style>
      .cls-1 {
        fill: #231f20;
      }

      .cls-1, .cls-2 {
        fill-rule: evenodd;
      }

      .cls-3, .cls-4 {
        fill: #fff;
      }

      .cls-2 {
        fill: #6d2c90;
      }

      .cls-4 {
        font-family: AmericanTypewriter-Bold, 'American Typewriter';
        font-size: 19.79px;
        font-weight: 700;
      }

      .cls-5 {
        fill: #333;
      }
    </style>
  </defs>
  <g>
    <path class="cls-3" d="M47.27,76.33s-.23,7.86-.22,8.95.29,7.64.31,8.73-.04,5.9-.03,7.42l.06,5.89.07,6.11.02,1.53.44,1.74s.64.21,1.06.21,2.44.19,2.76.19l15.38-.17c1.38-.01,66.3.16,66.93.15s36.6.91,36.92.91,4.66-.27,4.66-.27c0,0-.33-1.09-.35-3.27s-.47-14.4-.47-14.4c0,0-.2-8.29-.21-9.6s-.09-8.51-.21-9.82-.26-4.15-.26-4.15c0,0-36.7.18-37.23.18s-3.82.26-7.32.08c-3.5-.18-26.31-.59-27.16-.36s-21.96-.2-22.59-.19-15.06-.06-16.97-.25c-1.91-.2-13.47.36-13.47.36l-2.12.02Z"/>
    <path class="cls-5" d="M139.99,112.08c-.28.13-.42.25-.56.26-.92.04-1.85.06-2.77.07-.1,0-.27-.1-.28-.17-.03-.14.01-.31.08-.44.05-.1.18-.16.27-.23.39-.29.56-.66.55-1.14-.01-1.53-.01-3.06-.02-4.61-.65-.36-1.24-.24-1.86.18-.04.39-.09.82-.13,1.26-.04.44-.09.88-.1,1.32-.03.81-.05,1.61-.06,2.42,0,.45-.12.87-.27,1.29-.04.12-.31.21-.42.14-.2-.13-.41-.25-.59-.41-.92-.85-1.73-1.8-2.41-2.85-.28-.44-.61-.85-.93-1.26-.15-.18-.35-.32-.52-.48-.34.19-.29.53-.31.76-.09,1.16-.13,2.32-.06,3.47.33.22.62.41.97.65-.2.14-.32.28-.45.3-.51.08-1.03.13-1.55.18-.08,0-.16,0-.23-.03-.22-.07-.48-.27-.65-.21-.82.3-1.69-.03-2.51.25-.11.04-.24.07-.35.05-.11-.01-.24-.07-.3-.15-.05-.08-.06-.25-.02-.33.14-.24.32-.45.5-.69-.16-.47-.3-.92-.49-1.36-.58-.07-1.1-.13-1.67-.19-.33.45-.75.88-.91,1.51.23.1.46.18.66.29.09.05.16.17.2.28.08.18-.06.47-.23.47-.64,0-1.29-.01-1.93-.04-.09,0-.23-.13-.24-.22-.02-.14,0-.33.09-.43.21-.29.67-.3.81-.68.13-.34.24-.68.38-1.02.41-1.01.85-2,1.23-3.01.26-.67.57-1.33.65-2.06.01-.11.1-.22.16-.32.07-.13.29-.19.42-.13.27.12.45.33.54.61.27.88.53,1.77.8,2.65.35,1.15.7,2.3,1.07,3.49.38.19.77.39,1.22.62.12-.07.28-.16.44-.26.26-.17.39-.41.32-.72-.21-1-.17-1.99-.03-2.99.1-.71.11-1.44-.1-2.15-.35-.15-.67-.29-.97-.42.03-.62.08-.72.45-.72.56,0,1.13.02,1.75.04.37.81,1.09,1.36,1.64,2.04.15.19.34.34.52.51.57.51,1.14,1.02,1.71,1.53.09.08.19.14.32.23.09-.62.16-1.2.25-1.78.09-.56.03-1.12.08-1.64-.26-.17-.47-.3-.65-.44-.05-.04-.07-.14-.06-.21,0-.07.07-.17.12-.18.59-.09,1.19-.2,1.78-.22.3,0,.6.19.93.31.27-.22.59-.43,1.04-.4.64.05,1.29.02,1.93.02.26,0,.47.1.6.33-.11.41-.71.42-.75.89-.03.36-.05.72-.08,1.08-.05.6-.08,1.2-.18,1.8-.11.67-.06,1.37-.02,2.05.04.67.19.8,1.18,1.26ZM124.2,109.26c.15-.73-.16-1.26-.29-1.85-.54.49-.55,1.16-.77,1.74,0,.02.04.05.09.11h.98Z"/>
    <path class="cls-5" d="M122.43,98.26c-.2.15-.32.28-.47.35-.27.13-.57.2-.84.33-1.6.73-3.25.77-4.92.3-1.05-.29-1.98-.84-2.8-1.55-.55-.48-1.06-1.02-1.54-1.57-.25-.29-.45-.63-.61-.98-.22-.47.16-.99.67-.99.09,0,.18-.02.26.01,1.01.36,2.04.14,3.08.01-.46-.16-.92-.31-1.38-.46.01-.11-.01-.24.03-.27.17-.12.36-.23.56-.31.84-.33,1.42-.96,1.94-1.66.56-.75.71-1.55.32-2.43-.04-.1-.03-.23-.05-.38,1.36-.21,2.67.01,4.02-.08-.67,2.58-1.76,3.8-4.82,5.42.28-.02.47.02.61-.04.45-.21.92-.2,1.4-.21.85-.03,1.5.35,1.93,1.08.22.37.41.77.5,1.18.18.81.51,1.44,1.39,1.68.26.07.46.35.73.57Z"/>
    <path class="cls-5" d="M110.63,109.02c.32,1.01.75,1.79,1.61,2.29.69.4,1.29.96,2.06,1.23.09.03.14.18.21.26-.11.21-.27.35-.48.32-.55-.09-1.1-.19-1.64-.33-1.17-.31-1.91-1.14-2.48-2.14-.18-.31-.32-.65-.5-.96-.08-.14-.16-.28-.28-.39-.08-.07-.22-.12-.32-.09-.09.03-.22.16-.22.24,0,.6.02,1.2.04,1.8.02.41.34.62.63.91-.15.09-.28.22-.42.23-.6.04-1.2.06-1.81.06-.13,0-.25-.16-.41-.27.14-.16.23-.29.34-.4.21-.21.32-.44.32-.75-.01-1.73-.01-3.45-.02-5.22-.18-.09-.36-.16-.52-.27-.23-.16-.23-.47,0-.59.14-.07.29-.17.44-.18.72-.04,1.45-.05,2.17-.07.59-.02,1.1.21,1.58.52.8.51,1.17,1.35.95,2.29-.1.44-.38.79-.72,1.08-.15.13-.31.25-.53.42ZM108.79,105.75c-.13.76-.02,1.41-.23,2.03-.09.27.19.58.47.56.44-.03.86-.14,1.23-.41.57-.42.6-1.34.04-1.77-.42-.32-.91-.43-1.51-.41Z"/>
    <path class="cls-5" d="M68.11,108.65c-.19,1.42-.66,2.72-1.89,3.6-.74.54-1.58.77-2.51.48-.34-.11-.7-.17-1.03-.3-1.46-.57-2.12-1.74-2.37-3.22-.24-1.43.47-3.02,1.42-3.61.88-.55,1.81-.87,2.86-.64.27.06.55.11.83.17.69.16,1.26.51,1.7,1.07.4.51.66,1.1.9,1.7.09.21.07.47.1.74ZM61.79,108.27c-.03,1.26.34,2.25,1.14,3.1.11.11.25.21.39.28,1.28.7,2.92-.18,3.06-1.66.13-1.34-.33-2.53-1.03-3.65-.12-.2-.33-.35-.51-.51-.09-.08-.21-.14-.32-.16-.65-.1-1.28-.09-1.83.36-.49.4-.81.88-.86,1.53-.02.24-.03.48-.04.7Z"/>
    <path class="cls-5" d="M101.51,96.78c-.56-.07-1.38-.11-2.17-.27-.86-.17-1.61-.59-2.2-1.26-.2-.23-.13-.5.17-.6.12-.04.25-.07.37-.1.89-.23,1.55-.7,1.77-1.65.08-.33.16-.66.43-.92.29-.27.59-.37.94-.2.23.11.44.26.66.4.55.33,1.11.67,1.67.98.96.54,1.98.82,3.09.78.17,0,.35-.02.51.02.1.02.2.12.27.22.03.05,0,.18-.04.23-.42.5-.89.93-1.43,1.3-1.14.79-2.43,1.03-4.04,1.07Z"/>
    <path class="cls-5" d="M105.86,108.68c.09.73-.17,1.53-.71,2.21-.63.79-1.34,1.51-2.39,1.73-.27.06-.57.11-.83.05-.66-.16-1.31-.35-1.9-.72-.79-.5-1.32-1.18-1.55-2.06-.39-1.48-.23-2.88.92-4.01.73-.72,1.64-1.14,2.67-1.25.12-.01.24,0,.35.03,1.01.22,1.87.73,2.6,1.44.53.52.79,1.2.82,1.95,0,.16.02.32.03.64ZM99.77,108.76c-.03.5.08.99.33,1.47.35.68.94,1.11,1.56,1.45.5.28,1.09.27,1.6-.1.71-.52,1.15-1.66,1.01-2.55-.05-.32-.07-.64-.13-.95-.15-.75-.38-1.47-.96-2.03-.36-.35-1.05-.53-1.54-.42-.82.17-1.32.7-1.62,1.45-.21.53-.28,1.08-.25,1.68Z"/>
    <path class="cls-5" d="M118.71,105.17c.11-.14.19-.27.3-.37.19-.17.56-.05.56.18.01.56,0,1.12-.01,1.69,0,.12-.29.24-.4.17-.1-.06-.2-.13-.28-.21-.14-.14-.25-.32-.4-.45-.69-.59-1.47-.8-2.34-.43-.69.29-1.21.78-1.54,1.46-.38.8-.44,1.64-.27,2.48.2.98.92,1.76,2.27,2.05.12.03.24.03.36.04.82.09,1.27-.1,1.45-1.19.05-.27,0-.56,0-.79-.24-.39-.64-.18-.9-.35-.12-.08-.22-.23-.25-.37-.04-.18.15-.42.32-.45.04,0,.08-.02.12-.02.84,0,1.69,0,2.53.04.18,0,.34.16.51.23-.15.58-.66.6-1.05.85-.12.68.08,1.31.39,1.93.14.29-.05.59-.39.57-.49-.03-.94.07-1.4.23-.41.14-.85.14-1.3.08-1.02-.14-1.98-.49-2.78-1.09-.81-.6-1.4-1.44-1.36-2.56.07-2.06,1.07-3.26,2.74-4.03.43-.19.93-.24,1.4-.3.18-.02.39.06.58.14.37.15.73.32,1.11.48Z"/>
    <path class="cls-5" d="M94.19,105.1c.03.34.07.62.07.89,0,.51-.09.72-.29.7-.3-.03-.35-.28-.47-.48-.08-.13-.18-.26-.26-.37-.47-.09-.9-.18-1.33-.25-.3-.05-.3-.04-1.04.32-.1.57-.03,1.17-.04,1.77,0,.15.04.3.06.44.36.18.68.04.99.06.32.02.64,0,.95,0,.08-.07.15-.11.19-.17.15-.22.22-.6.58-.48.25.08.18.42.18.65.01.44,0,.89,0,1.33,0,.16-.07.31-.26.36-.19.05-.35-.04-.46-.28-.1-.21-.19-.42-.28-.63h-1.9c-.26.19-.26.39-.25.59.02.64.04,1.28.05,1.87.4.4.84.39,1.28.35.6-.06,1.19-.15,1.85-.23.15-.25.33-.55.52-.84.03-.05.17-.09.21-.06.08.05.19.15.19.24.02.59-.28,1.07-.58,1.59-1.24.07-2.48.13-3.72.09-.36-.01-.72-.02-1.09-.03-.22-.01-.51.1-.62-.21-.08-.23.14-.35.26-.5.27-.33.33-.67.27-1.11-.09-.59-.1-1.21-.01-1.8.09-.6.09-1.2.1-1.8.02-.58,0-1.13-.63-1.43-.06-.03-.09-.23-.06-.33.03-.09.14-.17.23-.24.03-.02.08-.02.12-.02,1.57-.02,3.14-.05,4.71-.07.12,0,.23.05.47.1Z"/>
    <path class="cls-5" d="M78.76,112.29c.24-.17.42-.31.66-.48-.16-.52-.33-1.04-.5-1.6-.66-.17-1.29,0-1.95-.03-.47.42-.66.97-.85,1.6.3.16.57.31.87.47-.07.09-.14.24-.22.26-.59.11-1.19.14-1.78-.02-.1-.02-.16-.16-.24-.24.03-.05.03-.1.06-.12.68-.57.91-1.39,1.23-2.16.57-1.37,1.13-2.75,1.7-4.11.12-.29.3-.57.47-.83.14-.21.46-.19.63,0,.22.25.31.55.42.85.62,1.78,1.27,3.55,1.89,5.33.1.29.24.5.51.62.07.03.16.08.18.14.04.1.07.24.04.34-.03.1-.15.23-.23.23-.92.04-1.84.14-2.75-.07-.03,0-.05-.06-.15-.18ZM78.68,109.1q-.08-.68-.59-1.45c-.22.42-.44.84-.65,1.26-.07.14-.18.28,0,.42.41-.08.83-.15,1.24-.23Z"/>
    <path class="cls-5" d="M112.64,93c-.07-.16-.14-.27-.16-.39-.13-1.09-.53-2.06-1.15-2.97-.68-1-.56-1.57.38-2.3.54-.43,1.07-.86,1.62-1.28.13-.1.28-.19.44-.26.22-.1.57-.02.71.17.68.95,1.25,1.96,1.58,3.09.12.4.13.87.05,1.28-.15.78-.48,1.47-1.3,1.79-.72.28-1.42.58-2.15.88Z"/>
    <path class="cls-5" d="M156.38,105.88q-.74-.38-.6-1.01c1.15-.07,2.3-.09,3.46-.03,1.08.06,1.98.86,2.19,1.92.1.53-.13,1.02-.33,1.5-.12.31-.33.54-.62.71-.67.39-1.37.65-2.15.71-.58.05-.63.15-.55.78.05.35.08.71.13,1.11.25.11.51.21.75.35.07.04.13.21.11.3-.03.1-.14.2-.24.24-.1.04-.23.01-.35,0-.16-.02-.34-.11-.47-.06-.66.26-1.26-.01-1.87-.12-.02-.42.4-.5.57-.89l-.02-5.5ZM157.83,109c.52-.13.86-.22,1.2-.32.32-.09.6-.28.72-.59.16-.45.37-.9.23-1.4-.1-.36-.35-.69-.68-.8-.42-.14-.85-.45-1.38-.22-.03,1.07-.05,2.1-.08,3.33Z"/>
    <path class="cls-5" d="M106.94,87.99c.36.2.71.37,1.03.58.8.51,1.58,1.05,2.46,1.42.23.1.44.27.62.45.25.24.43.55.42.92,0,.43.05.89-.07,1.28-.27.87-.33.96-1.25,1-.84.04-1.63-.12-2.41-.35-.48-.14-.94-.43-1.37-.71-.42-.27-.62-.69-.66-1.2-.09-1.25.08-2.42,1.22-3.39Z"/>
    <path class="cls-5" d="M57.38,104.93q1.33.44,2.01.35c.03.59.13,1.17-.13,1.76-.48-.09-.69-.48-1.04-.66-.32-.17-.64-.33-.92-.47-.51.1-.9.29-1.18.66-.19.24-.18.59.05.76.42.31.83.62,1.34.79.65.22,1.23.58,1.73,1.07.34.34.5.72.44,1.2-.03.2-.03.4-.07.6-.21.89-.67,1.4-1.57,1.64-.41.11-.82.2-1.29.09-.57-.14-1.2-.04-1.8-.05-.35,0-.57-.16-.57-.47-.01-.52,0-1.04.02-1.57,0-.19.32-.32.46-.2.26.25.52.5.77.76.28.3.6.54.98.68.71.28,1.62-.23,1.78-.99.04-.21,0-.43-.17-.55-.35-.27-.71-.53-1.1-.74-.54-.28-1.05-.59-1.51-.99-1-.85-.97-2.41.23-3.02.5-.25,1.03-.44,1.54-.66Z"/>
    <path class="cls-5" d="M164.05,104.54c.11.14.21.22.25.33.38,1.05.85,2.08,1.1,3.18.28,1.23.95,2.29,1.49,3.41.11.23.33.33.57.42.15.06.3.19.2.36-.07.12-.24.25-.37.26-.8.03-1.61.03-2.41.03-.06,0-.12-.09-.2-.14.11-.32.3-.64.33-.98.03-.35-.08-.71-.14-1.07-.02-.11-.06-.23-.1-.38-.62-.23-1.26,0-1.93-.08-.12.23-.25.42-.33.64-.11.3-.18.61-.28.94.12.14.25.28.37.44.14.18.07.43-.12.49-.73.24-1.41.11-2.04-.31-.03-.02-.04-.07-.09-.16.15-.15.3-.35.49-.46.31-.16.49-.4.63-.7.18-.4.37-.8.51-1.22.4-1.26.9-2.49,1.43-3.7.13-.29.19-.61.31-.9.06-.13.19-.23.34-.4ZM164.38,108.76c-.18-.5-.35-.97-.55-1.53-.44.49-.58,1-.66,1.55.42.21.79.22,1.21-.02Z"/>
    <path class="cls-5" d="M146.59,105.17c-.02.31-.04.62-.06.93-.02.27-.04.55-.05.81-.25.04-.34-.09-.4-.24-.13-.36-.39-.61-.67-.84-.94-.77-2.36-.55-3.05.47-.3.44-.51.9-.49,1.46.02.48.01.97.02,1.45.02.89.47,1.53,1.23,1.93.38.2.82.37,1.24.43.68.09,1.26-.17,1.68-.73.14-.19.24-.4.39-.65.12.13.25.19.26.28.06.48.06.95-.03,1.43-.74.5-1.57.67-2.37.89-.19.05-.42.07-.6,0-.85-.27-1.65-.6-2.3-1.25-.63-.62-1-1.34-1.16-2.2-.33-1.76.69-3.88,2.67-4.44.5-.14,1-.26,1.53-.27.46,0,.9,0,1.26.3.28.24.62.11.9.23Z"/>
    <path class="cls-5" d="M150.18,112.01c-.05-.55-.53-1.12.03-1.77.16.12.29.2.41.31.69.62,1.53.87,2.41,1.01.49.08.95-.32,1.01-.82.04-.43-.05-.81-.42-1.07-.36-.26-.73-.49-1.11-.72-.41-.25-.84-.48-1.26-.72-.81-.47-1.09-1.56-.71-2.32.16-.32.32-.66.55-.93.4-.45.93-.63,1.53-.47.5.13.99.33,1.49.48.15.04.31.06.46.03.14-.03.29-.2.42-.03.09.12.16.29.17.44.02.36.02.73-.01,1.09,0,.09-.11.21-.2.25-.17.09-.31-.04-.4-.17-.06-.09-.07-.23-.11-.34-.09-.29-.28-.49-.54-.63-.36-.19-.73-.36-1.15-.29-.15.02-.32.07-.45.15-.39.26-.59.64-.66,1.16.54.5,1.13.97,1.8,1.33.42.23.85.46,1.26.72.77.48.84,1.39.68,2.04-.17.69-.83,1.27-1.54,1.36-.12.02-.24.01-.36.01-1.05,0-2.09,0-3.14,0-.03,0-.07-.04-.16-.09Z"/>
    <path class="cls-5" d="M104.09,82.88c.04-1.07-.1-2.1.17-3.12.07-.29.04-.6.06-.9.02-.26.06-.52.32-.66.29-.15.5.04.68.22.45.46.9.93,1.31,1.42.47.56.89,1.16,1.34,1.73.58.73.93,1.54.87,2.49-.02.38-.14.63-.48.65-.63.04-1.13.37-1.65.66-.18-.11-.35-.17-.47-.29-.72-.73-1.43-1.48-2.14-2.21Z"/>
    <path class="cls-5" d="M87.89,111.97c-1,.48-2.03.37-3.01.54-.15.03-.33,0-.47-.05-.64-.25-1.27-.51-1.79-.98-1.1-1-1.49-2.59-.93-3.97.54-1.35,1.47-2.27,2.94-2.6.75-.17,1.44.03,2.14.18.35.08.65.27,1.02.06.05-.03.23.18.33.27-.14.55-.24,1.06-.49,1.48-.32.07-.39-.14-.49-.31-.16-.28-.34-.5-.68-.63-1.95-.74-3.01.43-3.36,1.86-.14.57-.17,1.17-.07,1.78.1.64.42,1.13.78,1.6.34.44.88.57,1.4.6.81.05,1.5-.24,1.99-.91.12-.16.24-.32.38-.46.04-.04.16-.05.23-.03.06.02.1.11.14.18.02.03.02.08.02.12-.03.44-.06.87-.09,1.27Z"/>
    <path class="cls-5" d="M114.15,84.54c-.34.26-.64.5-.95.72-.18.13-.47-.02-.47-.24,0-.3,0-.6,0-.9-.02-.81.04-1.63-.27-2.42-.08-.19-.06-.42-.08-.64-.03-.27.02-.51.21-.72.41-.44.8-.9,1.23-1.31.14-.14.37-.2.58-.24.21-.04.43.01.56.22.09.15.2.29.25.45.34.92.73,1.83.98,2.78.25.96.21,1.96.09,2.94-.02.16-.09.34-.19.47-.09.13-.22.28-.36.32-.24.08-.37-.11-.49-.31-.25-.43-.41-.96-1.09-1.15Z"/>
    <path class="cls-5" d="M116.56,88.03q-.36-.3-.68-1.35c.6-.29.98-.8,1.18-1.43.16-.49.36-.97.1-1.5-.09-.18-.06-.42-.07-.64-.01-.42.15-.65.57-.73.68-.12,1.36-.24,2.04-.33.2-.03.41.04.59.06.34.7.35,1.34.25,2.05-.13.98-.26,1.96-.56,2.9-.24.74-.47.88-1.24.72-.08-.02-.17-.04-.25-.07-.62-.25-1.18-.16-1.69.25-.06.05-.16.04-.24.06Z"/>
    <path class="cls-5" d="M102.06,101.81c.29-1.07.56-2.06.84-3.05.09-.33.2-.66.32-.98.1-.26.31-.43.58-.46,1.67-.15,2.94-1.08,4.17-2.1.13-.11.26-.23.41-.29.1-.04.27,0,.35.06.08.06.16.25.12.32-.42.84-.79,1.72-1.31,2.5-.91,1.36-1.96,2.62-3.3,3.58-.34.25-.72.46-1.1.66-.4.22-.74.1-1.08-.25Z"/>
    <path class="cls-5" d="M121.77,88.73c-.45-.24-.9-.49-1.4-.75.03-.38.22-.7.51-.94.36-.3.74-.61,1.17-.78.29-.11.67-.01,1,.04.16.02.32.13.46.22.41.23.81.24,1.22.02.14-.07.32-.07.51-.1.03.17.09.29.07.4-.1.42-.15.86-.34,1.23-.94,1.8-2,3.51-3.79,4.61-.25.15-.54.27-.83.32-.24.04-.59.04-.73-.11-.28-.29.06-.57.22-.77.74-.9,1.34-1.89,1.8-2.96.05-.11.07-.24.11-.42Z"/>
    <path class="cls-5" d="M68.4,112.43c.26-.25.55-.53.88-.85,0-.81.02-1.65.02-2.5,0-.89-.03-1.77,0-2.66.01-.42-.14-.68-.51-.87-.09-.04-.13-.18-.19-.29.34-.3.71-.41,1.12-.36.52.06,1.03.13,1.55.2.07,0,.18.08.18.12,0,.11,0,.26-.07.33-.19.21-.4.38-.57.54-.37,1.81-.3,3.58-.23,5.31.17.27.42.29.66.28.68-.02,1.37-.05,2.12-.08.12-.16.25-.35.39-.54.13-.17.3-.26.52-.2.18.05.29.27.25.48-.06.35-.12.71-.18,1.06-.14.19-.35.18-.55.17-1.09-.03-2.16-.03-3.24.19-.54.11-1.12.04-1.68.03-.21,0-.38-.11-.45-.39Z"/>
    <path class="cls-5" d="M109.72,88.84c-.66-.04-1.24-.31-1.75-.71-.65-.5-.86-1.18-.72-1.95.11-.55.54-.87,1.03-1.07.69-.28,1.42-.38,2.15-.28.42.05.85.14,1.26.24.32.07.55.47.5.81-.06.44-.27.81-.6,1.12-.09.09-.21.14-.32.22q-1.03.7-1.56,1.63Z"/>
    <path class="cls-5" d="M98.43,87.59c.62-.19,1.22-.15,1.81-.07.38.05.72.28.99.57.29.32.55.66.85.97,1.37,1.45.8,1.24,2.79,2.11.07.19.17.43.24.67.06.2.08.4.13.65-.64.24-1.22.21-1.8,0-.9-.34-1.71-.82-2.28-1.63-.22-.32-.46-.62-.72-.92-.59-.69-1.1-1.44-1.85-1.97-.09-.06-.1-.22-.17-.38Z"/>
    <path class="cls-5" d="M109.58,84.45c-.15-1.28-.07-2.55-1.34-3.28.22-.59.59-1.07.92-1.56.29-.45,1.04-.44,1.33.05.49.81.98,1.63,1.32,2.51.22.58.34,1.24.31,1.9-.02.3-.18.49-.48.48-.64-.02-1.28-.06-2.05-.1Z"/>
    <path class="cls-5" d="M106.74,87.03c-.25.35-.45.73-.74,1.03-.55.56-1.05,1.13-1.11,1.97-.02.27-.39.34-.61.16-.35-.28-.6-.64-.63-1.08-.1-1.37-.11-2.75.42-4.06.09-.23.23-.44.35-.66,1.73,1.02,1.81,1.11,2.33,2.64Z"/>
    <path class="cls-5" d="M101.31,85.6c-.11-1.08.22-2.06.62-3.01.11-.25.38-.36.64-.27.16.06.32.13.47.2.39.18.6.5.6.92,0,.29-.07.59-.13.88-.03.12-.1.24-.16.35-.55,1.04-.66,2.11-.31,3.24.06.2.03.42.02.64,0,.13-.3.27-.41.2-.18-.12-.39-.22-.49-.39-.54-.84-.99-1.72-.85-2.75Z"/>
    <path class="cls-5" d="M98.11,93.04c-.22-.14-.35-.19-.42-.28-.61-.72-1.21-1.45-1.97-2.02-.16-.12-.09-.48.09-.55.6-.23,1.2-.45,1.8-.68.72-.28,1.35-.1,1.9.4.28.25.52.56.8.87-.1.19-.14.4-.26.47-.76.44-1.33,1.07-1.93,1.8Z"/>
    <circle class="cls-3" cx="108.53" cy="85.97" r=".18"/>
    <circle class="cls-3" cx="108.33" cy="86.91" r=".18"/>
    <circle class="cls-3" cx="109.75" cy="85.76" r=".18"/>
    <circle class="cls-3" cx="109.46" cy="86.68" r=".18"/>
    <circle class="cls-3" cx="109.24" cy="87.64" r=".18"/>
    <circle class="cls-3" cx="110.55" cy="86.51" r=".18"/>
    <circle class="cls-3" cx="111.18" cy="85.74" r=".18"/>
  </g>
  <polygon class="cls-2" points="29.91 88.38 7.19 121.63 8.32 123.07 51.66 121.56 36.09 92.97 31.46 87.55 29.91 88.38 29.91 88.38"/>
  <path class="cls-1" d="M28.09,92.7c-.82.35-.23-.82-1.06-.47-.4.13-.18.82-1,.57-.32,1.35-.63,2.7-1.91,3.19-.3,1.42.73,1.37,1.14,2.01-1.79,1.31-1.8,5.51-4.96,4.11.29.76,1.23.81,1.38,1.74-.68.35-1.18.49-1.52.59,1.1.9-.29.67-.71,1.33-1.1,1.71-1.69,4.39-3.63,4.82-.07,1.25-.52,2.15-1.69,2.4.65,1.34-.38.19-.74.81,1.66.31-1.06,1.13.09,1.8-1.83.38-1.38,2.84-2.66,3.74-.16-.44.24-1.53-.33-1.53,0,.4.08.89-.48.8-.27.85.84.15.57,1-1.07.26-.87,1.67-1.43,2.4,2.68-.59,7.04-.64,10.03-.5.05-.2-.02-.5.23-.52,9.98.91,17.94-.64,30.13-.97-.56-2.71-2.95-4-3.88-5.49-.31-2.29-2.47-2.52-2.57-5.03-1.15.17-.99-.92-.85-1.5-1.03.02-1.95-1.64-1.13-2.01-.81.43-.87-.15-1.57-.44-1.86-5.62-6.3-9.59-8.43-14.02.01.26-.44.34-.52.02.31-.04.61-.11.49-.54-.72.25-.69-.33-1.3-.19-1.24,1.74-1.8,4.1-3.88,5.09.54.89-.19,1.25-.68,1.84-.31-1.02-.06-2.01.38-2.86.42-.02.18.71.55.75.06-1.11.94-3.21,1.7-2.15-.03-.35.09-.57.22-.78h0ZM43.12,104.59c1.52.21,1.12,2.55,2.71,2.7.04,1.67.9,2.45,1.95,3-.12,1.76.87,2.29,1.94,2.74.12.43-.17.49-.48.54.36.35,1.21.59.57,1.26.2-.15.41-.29.76-.3.12.52-.01.81-.47.8.51.65,1.99,2.06,1.16,2.52.26.44.83.53,1.56.44.15,2.11,1.3,3.09,1.3,5.36-.25-.15-.97-.56-.75.29-.47-.49-1.8,0-1.85-.94-.57,1.02-1.77-.67-3.06.67-.78.13-.58-.81-.84-1.25-.74.26.37.63.06,1.28-.2-.16-.87-1.05-.77.04-3.59-.25-8.93-.27-12.11.08-.02-.25-.03-.5-.04-.76-1.16.69-2.52.82-3.6.18-.69,1.01-5.49,1.03-6.95.35-2.83,1.62-9.12.1-10.49,1.8-2.22-1.25-6.04.17-8.81-.85-.26-.81.17-.99.45-1.31-1.04-.04-.43-.2-.6-1.77,1.2-.39,1.69-1.41,1.67-2.92,1.19.19.52-1.32,1.74-1.12-.22-.78-.2-.48-.06-1.28,1.75.2.69-2.16,2.21-2.17-.18-.26-.6-.24-.55-.75,1.04.28.48-.87,1.52-.59-.02-.43-.04-.86-.06-1.29.22-.21.57-.31,1.01-.31,1.51-3.88,4.33-6.57,5.94-10.36.89-.02,1.17-.58.95-1.59.76.03.76-.62,1.52-.59.63-3.45,3.91-4.49,4.51-7.96,2.82-.63,2.15-4.44,4.9-5.14-.18-.25-.6-.24-.56-.75.85-.05,1.26-.5,2.31-.37,1.15.82-.3,1.33,1.35,1.22-1.06,1.16.33,4.56,1.49,4.05.38.07.07,1.95,1.37,1.74-.14.79.32.92.34,1.53,3.31,2.76,3.95,8.48,7.26,11.24.11.43-.18.5-.49.55h0Z"/>
  <text class="cls-4" transform="translate(19.14 116.45) scale(.79 1)"><tspan x="0" y="0">45</tspan></text>
</svg>