<?xml version="1.0" encoding="UTF-8"?>
<svg id="Layer_1" data-name="Layer 1" xmlns="http://www.w3.org/2000/svg" viewBox="0 0 180 200">
  <defs>
    <style>
      .cls-1 {
        fill: #231f20;
      }

      .cls-1, .cls-2 {
        fill-rule: evenodd;
      }

      .cls-3, .cls-4, .cls-5 {
        fill: #fff;
      }

      .cls-2 {
        fill: #6d2c90;
      }

      .cls-4 {
        stroke: #020202;
        stroke-miterlimit: 10;
        stroke-width: .43px;
      }

      .cls-5 {
        font-family: AmericanTypewriter-Bold, 'American Typewriter';
        font-size: 19.79px;
        font-weight: 700;
      }
    </style>
  </defs>
  <g>
    <path class="cls-4" d="M54.16,77.87l-.33,27.58.33,26.41s.17,3.01,1,3.51,1.67,1,2.51,1,84.08.5,84.92.5,7.86,0,9.86-.17,16.88-.67,18.72-.67,4.85,1,4.85,0-.67-15.88-.84-17.72-1-41.12-1.17-41.62-.17-2.84-.17-2.84c0,0-.67-.84-3.18-.84s-73.22-.33-75.05-.17-39.45,1-40.45,1.17-1,3.84-1,3.84Z"/>
    <g>
      <path d="M114.91,82.01l-.21.41h1.23c-.63.37-1.48.21-1.63,1.02,1.35.27,1.32-.3,1.94-.81,1.39-1.13,1.04.13,1.64,0,.54-1.15,1.47-1.52,2.66-1.83l.1.6,1.72-.18c.42.13-.07.69.53.59-.37.76-1.81.55-1.63,1.63,1.15-.31,2.08-1.11,3.27-1.02.17.67-1.07.44-.41,1.13.68.44,1.69-.49,1.84-.31.18.69-.46.83-1.02,1.02l.12.42.7.6c-.74.45-1.46-.07-2.09.04-.77.12-1.33,1.12-2.4.17l1.32,1.17c.66-.4,1.82-.87,2.56-.46.48.27-.87,1-1.02,1.05-.57.18-2.27-.68-2.76-1.15l-.21.42c-.45-.47-1.68.07-1.89.44s.15,1.31-.25,1.79c.34.28,1.03-.96,1.02-1.22.37-.05.19.45.11.62-.38.87-1.19.96-1.56,1.51s-.16,1.14-.42,1.61c-.24.43-.74.68-1,1.06-2.34,3.35-3.44,6.93-3.91,11.01-.02.21-.08.96-.38.94-.36-4.56,1.73-9.01.98-13.54-.14-.43-2.08-1.85-2.56-1.94-1.11-.21-1.94.6-2.58.52-.33-.04-.58-.42-.89-.52-.41-.12-.87.04-1.28-.15-.3-.14-.95-1.56-.81-1.74l2.04,1.02c-.13-1.03-1.25-.88-.61-2.04.41-.3,1,1.33,1.23,0l1.01.41-.41.4,1.22-.2c.35-.38-1.49-.89-1.64-1.33-.15-.54.75-.03.82,0,.27.15,1.08.85,1.23.71-.5-.56-.45-1.12-.41-1.84.8,0,.85,1,1.33,1.43.55.27.25-1.08.1-1.22h.8c.13.13-.1,1.45.63,1.22-.1-.43.19-.93.14-1.3-.12-1.03-1.11-.66-1.82-.8-.66-.13-1.37-.46-1.91-.54-.39-.06-3.62.17-2.01-1.01.66-.49,2.29.78,3.14.39-.16-.51-.79-.32-1.14-.6-.19-.14-.23-.53-.33-.58-.32-.19-2.01.14-1.7-1.29s1.87.33,1.94.23l-.02-1.2-.77-.25.07-.81,1.96-.08c.27-.17-.32-1.16,1.02-1.64.57-.2,1.06.07,1.62-.1l.11.63,2.14-.42v.61s1.02-.21,1.02-.21c-.05,1.08,1.02,1.07,1.84,1.02-.16,1.02-1.71.78-2.45.61l-.04.58-.58.03.33.6c.49.11.74-.6.82-.6.19,0,.42.19.74.15.77-.11,1.65-.15,2.31-.56.58,1.1-1.1,1.04-1.12,1.33-.06.79,1.63-.73,1.83-.51.63.67-1.91,1.45-2.12,1.62s-.06.47-.26.64c-.07.06-1.56.76-1.65.77-.26.03-.72-.57-1.29-.17l1.13-1.03.91.11c-.5-.75-1.82-.26-2.65-.3-.09.55.03.5.41.73l-.17.47.37.02ZM113.47,77.73h-.6s.22.99.22.99l.59.02-.22-1.01ZM112.46,78.95c-.52-1.47-1.19-.35-.3,0,.09.04.21,0,.3,0ZM115.32,79.77c-.95-.2-1.71-1-1.63.61l.41-.61c.46.64,1.02,1.07,1.22,0ZM112.46,79.97l.72.61c.41-.3.42-.51-.01-.81l-.7.2ZM112.7,80.96c-.18-.67-1.18-1.46-.97-.35.13.69,1.56.65,2.16.8v-.61s-1.19.17-1.19.17ZM111.29,82.77c.32.21,1.94.49,1.78-.25-.08-.38-1.86-.44-2.25-.51-.04.03.41.72.47.76ZM119.61,83.24c.52.05.69-.32.61-.82l-.61.82ZM121.04,83.24l-1.02.21v.2s1.02,0,1.02,0v-.41ZM117.36,84.06l-1.11-.63-.73,1.04,2.24-.41-.61-.61.2.61ZM115.32,83.65h-.82s.41.81.41.81l-.82-.41-.2,2.66c.66-.46.97-.46,1.63,0v-1.02s-1.02.2-1.02.2l.82-1.63-.41-.1.41-.51ZM122.07,84.67l.02.58c.78.17,1.11-.02.6-.7l-.62.11-.1-.41-.51.31.61.1ZM119.41,86.51c.06.06,1.48-1.09.71-1.22-.45-.08-.71.89-.71,1.22ZM118.8,86.3c.05-.37.01-.6-.31-.81-.25.26-.59.43-.51.81h.82ZM116.14,86.92c.12-.44.38-.83-.2-1.02v1.02s.2,0,.2,0ZM111.64,86.71c-.61-1.2-1.26-.29-.51,0,.12.05.35-.02.51,0ZM118.8,86.51l-2.25-.2c-.58,1.43.22,2.44,1.12,3.47,1.48-.86,1.13-1.73,1.13-3.27ZM114.5,88.35v3.37c0,.16.55,1.14.51,1.53.44-.7,1.36-.89,1.85-1.42,1.87-2.03-1.14-2.89-1.14-4.91-.52.07-.14,1.38-.2,1.43h-1.02ZM110.83,87.73c-.12-.46-.64-.43-1.02-.4.12.46.64.43,1.02.4ZM112.46,88.76c.69-.65-.03-2.01-1.22-1.22-.14.48.15.35.26.46.19.18.75.96.96.76ZM114.1,88.35l-1.02-.21.51,1.84.51-1.63Z"/>
      <path d="M58.61,122.47c-.17-.04-.4-.31-.1-.51.56-.38,1.77-.25,2.09-1.18l5.58-12.81c2.22,3.58,3.5,7.99,5.59,11.58.81,1.39,1.98,3.36,3.73,1.97.36-.88.39-6.19.1-6.62-.41-.61-2.03.64-1.95-.4.83-.04,2.56-1.68,3.22-.98l.26,1.06.4.12c.1-.81,1.65-1.47,2.35-1.44,1.71.07,1.65,2.04.62,2.05-4.7-2.45-2.94,3.13-3.13,5.79.25.87,1.71.39,2.41.76l-.34.58-10.28.24c-.05-1,1.61-.54,1.63-1.31.01-.54-1.9-4.84-2.39-4.98-.24-.07-2.22-.22-2.6-.22-.77,0-1.94.29-2.79.28-.43,1.17-1.92,3.78-1.2,4.89.38.59,1.18.49,1.78.68.35.11.53-.08.44.47h-5.42ZM68.31,115.93c.23-.2-2.48-4.88-2.86-5.31l-2.25,5.31c1.71-.2,3.39-.02,5.11,0Z"/>
      <path d="M84.05,105.92l.21,8.38c.7-.22,1.03-.72,1.79-.96,4.05-1.31,5.3,1.9,4.95,5.36-.3,2.99-2.2,3.97-5,4-1.23.02-1.94-.78-2.67-.83-.61-.04-1.25.55-1.93.4.25-.91,1.31-1.24,1.23-2.35l-.43-12.35c-.46-.12-.85.13-1.27.23-.27.07-.39.39-.35-.14.43-.4,3.06-2.15,3.47-1.74ZM86.46,114.34c-.46.07-2.04.92-2.16,1.33-.14.48-.12,4.04-.03,4.65.24,1.54,2.84,2.15,3.97,1.34,2.43-1.74,1.29-7.78-1.79-7.32Z"/>
      <path d="M165.8,113.07c.02.86-1.3.54-1.17,1.5.18,1.4,2.5,3.58,2.4,5.25.32-.05.38-.38.5-.62.26-.5,1.93-5.1,1.74-5.31-.23.06-2.13-.42-1.63-.82,1.23.11,2.35-.3,3.58-.2.3.02.59-.16.51.3-.45.43-.97.31-1.4.85-.92,1.13-2.59,7.31-3.29,7.75-.21.16-.41.11-.62,0-.84-.45-1.58-4.32-2.65-5.01-.3.81-1.51,5.11-2.35,5.12-.36,0-.41-.24-.55-.48-1.13-1.93-2.3-5.65-3.46-7.16-.46-.61-1.15-.47-1.2-1.15,1.48.08,3.17-.74,4.49.31l-1.14.5c-.16.22-.08.44-.05.67.07.5,2.33,5.48,2.62,5.26l1.39-4.15-1.8-2.59h4.09Z"/>
      <path d="M144.35,107.56l-.12.63c-.87.15-1.31.28-1.76,1.06-2.16,3.76-3.07,8.93-5.03,12.34-.42.74-.63.55-1.01-.09-1.94-3.24-3.8-9.64-6.18-12.21-.55-.6-1.23-.57-1.43-1.33,1.57-.01,3.16-.51,4.7,0,.18.57-.78.72-.83.96-.29,1.36,3.88,8.58,4.61,10.28l3.95-10.16c.08-.7-1.59-.61-1.59-.98.24-.37.54-.29.91-.32,1.26-.09,2.53-.14,3.79-.19Z"/>
      <path d="M94.47,120.53c.43,2.01,4.07.5,4.3-1.43.14-1.18-.08-2.64-.03-3.86l-.31-.31-1.2-.03c-.6-.92,2.39-2.03,2.77-1.75l.19,7.88,2.05-.1c0,.89-2.9,2.08-3.27,1.73l-.21-1.63c-1.3,1.15-4.04,2.45-5.43.83-1.06-1.23-.21-5.18-.53-6.83l-.31-.32-1.5-.12c.24-.48,3.47-2.37,3.47-1.43.31,2.1-.41,5.42,0,7.36Z"/>
      <path d="M104.9,120.12c.11.49,1.02,1.27,1.55,1.33.85.09,1.31-.66,2.13-.61.57.5-3.03,2.93-4.81,1.03-1.31-1.41.18-5.41-.54-7.23-.21-.54-1.03-.17-1.19-.75.97-.2,2.02-1.21,2.05-2.25.79-.16.23,1.06.44,1.5l.31.31,3.34-.38-.2,1.43,2.86-1.23v4.19c0,.18.23,1.46.3,1.75.3,1.35.54,2.35,2.05,2.05,3.54-.71,2.11-4,1.94-6.56l-.9.17-.33-.57,2.74-1.22.33.5.25,6.7c.34.99,1.09.12,1.59.65-.01.19-2.37,1.53-2.55,1.54-.77.02-.46-1.36-.51-1.85-1.18,1.14-2.39,2.11-4.18,1.83-2.91-.47-1.81-7.38-2.37-7.75-.57.36-1.16-.13-1.32-.13s-.33.31-.58.29c-.48-.03-1.67-.77-2.39-.58.24,1.66-.33,4.29,0,5.82Z"/>
      <path d="M150.68,116.55c-.39,3.74,2.4,5.28,5.72,4.09-1,2.35-4.1,1.96-5.82.61-4.74-3.7,1.53-10.43,4.99-7.85.79.58,1.8,3.15.73,3.15h-5.62ZM150.88,115.73h3.78c.52,0,.07-1.24-.13-1.51-1.13-1.56-3.59-.12-3.66,1.51Z"/>
      <path d="M123.91,115.73c.07-1.97-3.58-2.87-3.27-.53.22,1.69,4.29,1.99,4.22,4.69-.06,1.95-3.18,3.43-4.83,2.69-.91-.41-1.32-3.19-.72-3.16.45,1.14,2.82,3.4,3.87,2.03,1.7-2.22-2.15-3.13-3.04-4.09-2.48-2.67,1.12-5.07,3.84-4.25l.31.31c-.04.69.35,1.91-.38,2.32Z"/>
      <path d="M147.2,112.87c-.06,2.07-.36,4.13-.18,6.21.1,1.18.13,2.33,1.6,2.19v.8s-4.69,0-4.69,0c-.15-.71.79-.28,1.18-.66.41-.4.35-6.39.03-6.67l-1.41-.12c.29-.56,3.24-1.98,3.47-1.74Z"/>
      <path d="M109.39,127.38c.44-.05.54-.03.79.33.63.9.91,2.91,1.46,3.96l1.63-4.08c.22-.04.39,0,.51.2s-.13,2.79-.12,3.38c0,.44.6,2.2-.4,1.42v-3.17c-.29,0-.4.58-.5.83-.18.45-.42,1.57-.62,1.83-.91,1.13-1.69-2.33-1.89-2.82-.13-.31.12-.55-.46-.45v3.78s-.33.37-.41.31c-.33-.48,0-.91,0-1.12v-4.39Z"/>
      <path d="M103.67,127.89c.19-.61,3.05-.31,3.63.15.58,1.01.16,1.76-.77,2.31l1.22,2.03c-.26.27-.2.39-.51.11-.94-.85-.91-2.79-2.96-2.25-.01.69-.08,1.46-.21,2.14-.06.34.13.35-.4.31v-4.8ZM104.3,129.62c.83.09,2.04.54,2.66-.28.83-1.11-1.63-1.55-2.34-1.31-.53.18-.32,1.15-.32,1.6Z"/>
      <path d="M117.77,127.38c.42.93.51,1.98.87,2.92.15.39,1.32,2.47,1.18,2.6-.69.64-1.08-1.73-1.43-1.94-.3-.18-1.55-.18-1.85,0-.23.14-1.01,2.41-1.43,1.94l1.89-4.95.76-.56ZM118.18,130.44c-.24-.62-.25-1.67-.81-2.04l-.61,2.04h1.43Z"/>
      <path d="M95.7,130.03l-2.45.21c-.08.07.05,1.76,0,2.15-.04.3-.16.63-.41.3l-.2-5.11c.53-.09.37.08.47.44.15.54.19,1.04.14,1.6h2.34c.22-.03.27-1.44.33-1.74.06-.34-.13-.35.4-.31v5.21c0,.07-.27.3-.21.51-.08.06-.41-.27-.41-.31v-2.96Z"/>
      <path d="M101.83,127.79v.41h-3.07v1.43h3.07v.41h-2.86l-.2,2.04c.76.07,1.54-.05,2.3-.07.29,0,.5-.27.77.18.1.49-.4.29-.71.3-.48.02-2.5.26-2.67,0-.41-.61.23-3.36-.26-4.25l.27-.46h3.37Z"/>
      <path d="M131.88,128.81c-.75,0-.75-.93-1.42-1.14-.82-.26-1.51.53-1.43,1.34,1.31.13,2.92.73,2.66,2.35-.22,1.34-3.73,1.65-3.27-.5.66-.15.4.67.81.92.94.56,2.96-.36,1.63-1.63-.6-.57-1.86-.39-2.14-.93-.56-2.45,2.69-2.85,3.17-.41Z"/>
      <path d="M142.91,132.28c-.72.01-.79-.88-1.35-1.2-.35-.2-1.68-.39-1.9-.2-.1.09-.37,2.17-1.05,1.3l2.05-4.8c.67-.5,1.03,2.38,1.12,2.65.13.37,1.22,2.15,1.12,2.25ZM141.07,128.6c-.53-.09-.32.07-.43.29-.1.19-.66,1.49-.59,1.55h1.43s-.41-1.84-.41-1.84Z"/>
      <path d="M133.92,127.58c3.63-.76,5.09,2.92.61,2.86l-.2,1.74-.41-.21v-4.39ZM134.53,129.83c3.36.34,2.74-2.17-.2-1.84l.2,1.84Z"/>
      <path d="M146.34,108.2c1.33-.18,1.03,2.58-.25,2.62-1.35.04-1.51-2.38.25-2.62Z"/>
      <path d="M121.66,132.08h2.86l-.31.61h-2.96v-5.31c.08-.06.41.27.41.31v4.39Z"/>
      <path d="M88.96,132.9v-4.7l-1.33.2-.21-.41,3.17-.11c.44.94-.99.02-1.23.62v4.09s-.28.32-.41.31Z"/>
      <path d="M97.92,87.97l.03.79-.92-.81-.31.91c.05.18,1.99.23,1.29,1.69-.57,1.18-2.31-.06-1.89-.56.32-.38.47.58.92.63.76.08.93-.53.42-1.04-.43-.43-1.55-.39-1.03-1.42.29-.58,1.03-.43,1.51-.17Z"/>
      <path d="M133.48,87.77c.4.62-.27,1.95-.79,2.42l1.23.41-2.25.21c-.34-.34,1.08-1.17,1.23-1.38.74-.99.2-2.18-.93-1.08-.42-.66,1.22-1.03,1.5-.58Z"/>
      <path d="M93.45,87.74c.6.05,1.38-.21,1.84.31l-1.64.1v.8s1.43.32,1.43.32l-1.43.1.2,1.14c.29.21,1.23-.51,1.44.29h-1.84s0-3.06,0-3.06Z"/>
      <path d="M136.58,89.58l-.6.53.2.9c-.76.21-.26-.88-.41-1.02-.51-.02-1.09.17-1.43-.31l1.53-1.94c.31.63-.32,1.76.71,1.84ZM135.76,88.76h-.4s-.41.81-.41.81h.82s0-.81,0-.81Z"/>
      <path d="M99.99,91c-.92-.46.23-1.96-.29-2.67l-.94-.19c-.02-.44-.08-.38.31-.42.21-.02,2.34.13,1.94.42h-1.02v2.86Z"/>
      <path d="M131.06,87.53l.2.71-.82.31c.03-.4.02-1.17.61-1.02Z"/>
      <path class="cls-3" d="M114.5,88.35h1.02c.06-.04-.32-1.36.2-1.43,0,2.02,3.01,2.88,1.14,4.91-.49.53-1.42.72-1.85,1.42.04-.39-.51-1.37-.51-1.53v-3.37Z"/>
      <path class="cls-3" d="M118.8,86.51c0,1.54.36,2.41-1.13,3.27-.9-1.03-1.7-2.04-1.12-3.47l2.25.2Z"/>
      <path class="cls-3" d="M115.32,83.65l-.41.51.41.1-.82,1.63,1.02-.2v1.02c-.66-.46-.97-.46-1.63,0l.2-2.66.82.41-.41-.81h.82Z"/>
      <path class="cls-3" d="M111.29,82.77c-.05-.03-.5-.73-.47-.76.39.07,2.17.13,2.25.51.15.74-1.46.46-1.78.25Z"/>
      <path class="cls-3" d="M112.46,88.76c-.21.2-.77-.58-.96-.76-.12-.11-.41.02-.26-.46,1.19-.79,1.92.57,1.22,1.22Z"/>
      <path class="cls-3" d="M112.7,80.96l1.19-.17v.61c-.6-.14-2.03-.11-2.16-.8-.2-1.1.79-.32.97.35Z"/>
      <path class="cls-3" d="M115.32,79.77c-.2,1.06-.76.63-1.22,0l-.41.61c-.08-1.61.68-.81,1.63-.61Z"/>
      <polygon class="cls-3" points="114.1 88.35 113.59 89.98 113.08 88.14 114.1 88.35"/>
      <polygon class="cls-3" points="117.36 84.06 117.16 83.45 117.77 84.06 115.53 84.47 116.26 83.43 117.36 84.06"/>
      <polygon class="cls-3" points="113.47 77.73 113.69 78.74 113.1 78.72 112.87 77.72 113.47 77.73"/>
      <path class="cls-3" d="M119.41,86.51c0-.34.26-1.3.71-1.22.77.14-.65,1.29-.71,1.22Z"/>
      <path class="cls-3" d="M122.07,84.67l-.61-.1.51-.31.1.41.62-.11c.51.68.18.86-.6.7l-.02-.58Z"/>
      <path class="cls-3" d="M112.46,79.97l.7-.2c.43.3.42.51.01.81l-.72-.61Z"/>
      <path class="cls-3" d="M118.8,86.3h-.82c-.08-.39.26-.55.51-.81.32.22.35.44.31.81Z"/>
      <polygon class="cls-3" points="121.04 83.24 121.04 83.65 120.02 83.65 120.02 83.45 121.04 83.24"/>
      <path class="cls-3" d="M111.64,86.71c-.16-.02-.39.05-.51,0-.75-.29-.1-1.2.51,0Z"/>
      <path class="cls-3" d="M110.83,87.73c-.38.02-.9.06-1.02-.4.38-.02.9-.06,1.02.4Z"/>
      <path class="cls-3" d="M112.46,78.95c-.1,0-.21.04-.3,0-.88-.35-.22-1.48.3,0Z"/>
      <path class="cls-3" d="M119.61,83.24l.61-.82c.08.49-.1.87-.61.82Z"/>
      <path class="cls-3" d="M116.14,86.92h-.2s0-1.02,0-1.02c.58.19.32.58.2,1.02Z"/>
      <path class="cls-3" d="M68.31,115.93c-1.72-.02-3.4-.2-5.11,0l2.25-5.31c.38.43,3.08,5.11,2.86,5.31Z"/>
      <path class="cls-3" d="M86.46,114.34c3.08-.46,4.21,5.58,1.79,7.32-1.14.81-3.73.2-3.97-1.34-.1-.61-.12-4.17.03-4.65.12-.41,1.7-1.26,2.16-1.33Z"/>
      <path class="cls-3" d="M150.88,115.73c.06-1.63,2.53-3.07,3.66-1.51.19.27.65,1.51.13,1.51h-3.78Z"/>
      <path class="cls-3" d="M104.3,129.62c0-.45-.2-1.42.32-1.6.7-.23,3.17.21,2.34,1.31-.62.82-1.82.38-2.66.28Z"/>
      <path class="cls-3" d="M118.18,130.44h-1.43s.61-2.04.61-2.04c.57.37.57,1.42.81,2.04Z"/>
      <path class="cls-3" d="M141.07,128.6l.41,1.84h-1.43c-.06-.06.5-1.36.59-1.55.11-.22-.11-.38.43-.29Z"/>
      <path class="cls-3" d="M134.53,129.83l-.2-1.84c2.94-.33,3.56,2.18.2,1.84Z"/>
      <polygon class="cls-3" points="135.76 88.76 135.76 89.57 134.94 89.57 135.36 88.76 135.76 88.76"/>
    </g>
  </g>
  <g>
    <polygon class="cls-2" points="27.16 89.54 4.44 122.79 5.57 124.23 48.91 122.72 33.34 94.13 28.71 88.71 27.16 89.54 27.16 89.54"/>
    <path class="cls-1" d="M26.03,93.86c-.82.35-.23-.82-1.06-.47-.4.13-.18.82-1,.57-.32,1.35-.63,2.7-1.91,3.19-.3,1.42.73,1.37,1.14,2.01-1.79,1.31-1.8,5.51-4.96,4.11.29.76,1.23.81,1.38,1.74-.68.35-1.18.49-1.52.59,1.1.9-.29.67-.71,1.33-1.1,1.71-1.69,4.39-3.63,4.82-.07,1.25-.52,2.15-1.69,2.4.65,1.34-.38.19-.74.81,1.66.31-1.06,1.13.09,1.8-1.83.38-1.38,2.84-2.66,3.74-.16-.44.24-1.53-.33-1.53,0,.4.08.89-.48.8-.27.85.84.15.57,1-1.07.26-.87,1.67-1.43,2.4,2.68-.59,7.04-.64,10.03-.5.05-.2-.02-.5.23-.52,9.98.91,17.94-.64,30.13-.97-.56-2.71-2.95-4-3.88-5.49-.31-2.29-2.47-2.52-2.57-5.03-1.15.17-.99-.92-.85-1.5-1.03.02-1.95-1.64-1.13-2.01-.81.43-.87-.15-1.57-.44-1.86-5.62-6.3-9.59-8.43-14.02.01.26-.44.34-.52.02.31-.04.61-.11.49-.54-.72.25-.69-.33-1.3-.19-1.24,1.74-1.8,4.1-3.88,5.09.54.89-.19,1.25-.68,1.84-.31-1.02-.06-2.01.38-2.86.42-.02.18.71.55.75.06-1.11.94-3.21,1.7-2.15-.03-.35.09-.57.22-.78h0ZM41.07,105.75c1.52.21,1.12,2.55,2.71,2.7.04,1.67.9,2.45,1.95,3-.12,1.76.87,2.29,1.94,2.74.12.43-.17.49-.48.54.36.35,1.21.59.57,1.26.2-.15.41-.29.76-.3.12.52-.01.81-.47.8.51.65,1.99,2.06,1.16,2.52.26.44.83.53,1.56.44.15,2.11,1.3,3.09,1.3,5.36-.25-.15-.97-.56-.75.29-.47-.49-1.8,0-1.85-.94-.57,1.02-1.77-.67-3.06.67-.78.13-.58-.81-.84-1.25-.74.26.37.63.06,1.28-.2-.16-.87-1.05-.77.04-3.59-.25-8.93-.27-12.11.08-.02-.25-.03-.5-.04-.76-1.16.69-2.52.82-3.6.18-.69,1.01-5.49,1.03-6.95.35-2.83,1.62-9.12.1-10.49,1.8-2.22-1.25-6.04.17-8.81-.85-.26-.81.17-.99.45-1.31-1.04-.04-.43-.2-.6-1.77,1.2-.39,1.69-1.41,1.67-2.92,1.19.19.52-1.32,1.74-1.12-.22-.78-.2-.48-.06-1.28,1.75.2.69-2.16,2.21-2.17-.18-.26-.6-.24-.55-.75,1.04.28.48-.87,1.52-.59-.02-.43-.04-.86-.06-1.29.22-.21.57-.31,1.01-.31,1.51-3.88,4.33-6.57,5.94-10.36.89-.02,1.17-.58.95-1.59.76.03.76-.62,1.52-.59.63-3.45,3.91-4.49,4.51-7.96,2.82-.63,2.15-4.44,4.9-5.14-.18-.25-.6-.24-.56-.75.85-.05,1.26-.5,2.31-.37,1.15.82-.3,1.33,1.35,1.22-1.06,1.16.33,4.56,1.49,4.05.38.07.07,1.95,1.37,1.74-.14.79.32.92.34,1.53,3.31,2.76,3.95,8.48,7.26,11.24.11.43-.18.5-.49.55h0Z"/>
    <text class="cls-5" transform="translate(17.54 119.52) scale(.79 1)"><tspan x="0" y="0">46</tspan></text>
  </g>
</svg>