<?xml version="1.0" encoding="UTF-8"?>
<svg id="Layer_1" data-name="Layer 1" xmlns="http://www.w3.org/2000/svg" viewBox="0 0 180 200">
  <defs>
    <style>
      .cls-1, .cls-2, .cls-3, .cls-4 {
        fill-rule: evenodd;
      }

      .cls-1, .cls-5 {
        fill: #fff;
      }

      .cls-2, .cls-4 {
        fill: #231f20;
      }

      .cls-3 {
        fill: #6d2c90;
      }

      .cls-5 {
        font-family: AmericanTypewriter-Bold, 'American Typewriter';
        font-size: 19.79px;
        font-weight: 700;
      }

      .cls-4 {
        stroke: #231f20;
        stroke-miterlimit: 10;
        stroke-width: 3.62px;
      }
    </style>
  </defs>
  <g>
    <path class="cls-1" d="M53.88,60.38s-1.04,12.22-1.19,16.73-.44,11.93-.44,14.69-1.78,35.05-1.93,37.09c-.15,2.04-.59,10.62-.44,12.51s.44,5.24,3.11,5.67c2.67.44,5.64,1.02,8.01,1.02s60.95.15,63.77,0,38.11-.87,40.34-1.16,8.9-.87,8.45-6.69c-.44-5.82-.44-16.87-.44-18.04s-.44-11.35-.44-15.42-.44-19.64-.44-22.98,0-8.15-.15-11.2-.3-9.6-.3-10.91-.89-3.64-1.63-4.22c-.74-.58-1.63-1.45-4-1.75-2.37-.29-9.19-.15-10.53-.15s-88.83,2.18-90.76,2.18-7.42.15-7.42.15c0,0-3.56-.44-3.56,2.47Z"/>
    <g>
      <path class="cls-4" d="M118.28,64.68c.38-.01.25-.55.81-.36,3.53.76,5.74,2.9,8.36,4.61,2.45,2.84,2.03,6.68.81,9.82-.74,1.89-1.54,2.99-3.25,4.24-2.76,2.01-5.47,2.24-9.41,2.79-7.39,1.04-15.93-.93-19.05-5.82-.99-1.55-2.06-4.3-1.39-6.91.44-1.71,2.16-3.91,3.25-4.97,1.37-1.32,4.75-3.18,7.2-3.76,3.49-.82,7.27-.48,11.03-.12.51.05,1.38-.08,1.63.49Z"/>
      <path class="cls-1" d="M127.58,67.81c1.72,1.79,2.71,3.95,2.67,6.7-.03,2.07-.78,4.52-1.74,6.06-2.32,3.72-7.43,5.19-11.96,6.31-4.64-.16-9.63.2-14.52-1.7-1.61-.62-3.45-1.68-4.41-2.67-2.07-2.11-4.16-5.59-3.37-9.46.55-2.71,3.08-5.04,5-6.67,1.05-.9.9-1.06,2.21-1.58,2.5-.99,5.22-1.93,8.53-2.2,6.69-.54,13.68,1.94,17.61,5.2ZM116.65,64.2c-3.76-.36-7.54-.7-11.03.12-2.45.57-5.83,2.44-7.2,3.76-1.09,1.06-2.81,3.26-3.25,4.97-.67,2.61.41,5.37,1.39,6.91,3.12,4.89,11.65,6.86,19.05,5.82,3.94-.55,6.65-.77,9.41-2.79,1.71-1.25,2.52-2.35,3.25-4.24,1.22-3.14,1.64-6.98-.81-9.82-2.63-1.7-4.41-3.49-7.95-4.25-.56-.19-.91-.35-1.28-.33-.69-.1-1.06-.1-1.58-.15Z"/>
      <path class="cls-2" d="M107.78,94.1c-.29,3.08.27,7.23-1.12,9.52.35.75,1.64.55,1.82,1.47-.83,0-1.38-.26-2.34,0-.02.52-.14.86.09,1.21-.8-.09-.94-1.36-1.82-1.82,2.03-2.37.52-7.16,1.47-10.21-1.4-.23-2.88.66-4.07-.26.09-1.07.91-1.4,1.47-1.99.41.14.56.54.78.87.98.2,1.8-.21,2.86.09.79-.4,1.84-.16,3.29-.26.48-.03,2.08-.58,2.16.09.06.5-2.4,1.06-2.77,1.13-.86.16-1.31,0-1.82.17Z"/>
      <path class="cls-2" d="M119.91,112.08c-.29,3.08.27,7.23-1.12,9.52.35.75,1.64.55,1.82,1.47-.83,0-1.38-.26-2.34,0-.02.52-.14.86.09,1.21-.8-.09-.94-1.36-1.82-1.82,2.03-2.37.52-7.16,1.47-10.21-1.4-.23-2.88.66-4.07-.26.09-1.07.91-1.4,1.47-1.99.41.14.56.54.78.87.98.2,1.8-.21,2.86.09.79-.4,1.84-.16,3.29-.26.48-.03,2.08-.58,2.16.09.06.5-2.4,1.06-2.77,1.13-.86.16-1.31,0-1.82.17Z"/>
      <g>
        <path class="cls-4" d="M116.08,69.27c.77-.62,1.03-1.99,2.05-2.14,1.53-.22,1.76,1.83,2.22,3.21,1.6-.38,3.37-.62,4.78.18.43.89-.1,1.94-.34,2.67.74,0,1.76.16,2.13.8.08,1.92-.94,2.7-1.88,3.56.11.42.09.98.09,1.51-.72.92-1.84,1.26-3.33.89-.37-.09-.75-.44-1.11-.45-.6,0-1.31.61-2.05.89-1.06.41-2.03.7-3.07.45-.2,1.09,1.23,1.3,1.02,2.49-.2,1.14-2.01.74-2.56-.09-3.24,1.15-1.91-4.69-2.56-7.13-.63-.76-1.69-1.09-2.47-1.69.02-.13.25-.03.26-.18-.2-.52-.37-.74-.68-.98.06-3.47,1.79-5.9,3.75-7.66,2.29.14,2.77,2.15,3.75,3.65ZM113.35,79.51c.03-1.54-.31-3.8.51-4.72.51-.56,1.5-.54,2.05-1.16,1.23-1.39-.19-3.76-.85-4.9-.5-.85-1.04-2.18-1.96-2.32-1.27-.18-1.99,1.53-2.39,2.41-.31.67-.76,1.26-.94,1.78-.39,1.16,0,2.16.17,3.03.95.75,2.04,1.28,2.3,2.76.38,2.12-.27,4.71.68,6.32,1.12-.34.41-2.13.43-3.21ZM118.3,67.84c-.94-.05-1.12,1.65-1.79,2.14.37,1.04.62,2.2.68,3.56.91.24,1.44.87,2.3,1.16.78-1.73.01-6.8-1.19-6.86ZM120.52,71.23c.07,1.53-.01,2.9-.51,3.83.46.44.91.89,1.45,1.25,1.48-1.22,3.02-2.84,2.99-5.35-1.02-.29-2.96-.27-3.93.27ZM124.45,74.08c-.34,1.16-.97,2.01-1.62,2.85.48-.05.6.27,1.02.27.98-.76,2.47-1.45,2.22-3.21-.49-.2-1.2-.06-1.62.09ZM116.68,74.17c-.44.64-1.55.66-2.13,1.51-.82,1.21-.37,2.72-.26,4.54.06.93-.18,2.03,0,2.49.24.61,1.3,1.03,1.79.53-.16-.99-1.22-1.63-1.45-2.85-.28-1.51.16-3.66,1.37-3.92,1.37-.29,1.96.78,2.73,1.25.38.23.93.38,1.37.62.47.27.87.68,1.19.8.89.33,3.34.66,2.9-.89-3.48-.35-4.31-3.46-7.51-4.1ZM115.32,79.87c1.59.07,3.37-.02,4.35-.98-1.4-.94-5.38-2.75-4.35.98Z"/>
        <path class="cls-1" d="M112.93,82.72c-.95-1.61-.3-4.21-.68-6.32-.27-1.48-1.35-2.01-2.3-2.76-.16-.87-.56-1.87-.17-3.03.18-.53.63-1.11.94-1.78.4-.87,1.12-2.59,2.39-2.41.92.13,1.46,1.47,1.96,2.32.67,1.14,2.08,3.51.85,4.9-.55.62-1.54.59-2.05,1.16-.82.92-.48,3.18-.51,4.72-.02,1.08.69,2.87-.43,3.21Z"/>
        <path class="cls-1" d="M119.5,74.7c-.86-.29-1.4-.92-2.3-1.16-.06-1.36-.32-2.52-.68-3.56.67-.49.86-2.19,1.79-2.14,1.21.06,1.97,5.13,1.19,6.86Z"/>
        <path class="cls-1" d="M124.45,70.96c.03,2.5-1.51,4.12-2.99,5.35-.54-.35-.99-.81-1.45-1.25.5-.93.58-2.3.51-3.83.96-.53,2.91-.55,3.93-.27Z"/>
        <path class="cls-1" d="M126.07,73.99c.25,1.76-1.24,2.45-2.22,3.21-.43,0-.55-.32-1.02-.27.65-.84,1.28-1.69,1.62-2.85.42-.15,1.14-.28,1.62-.09Z"/>
        <path class="cls-1" d="M124.19,78.27c.44,1.55-2.01,1.22-2.9.89-.33-.12-.72-.53-1.19-.8-.43-.25-.99-.39-1.37-.62-.77-.47-1.36-1.54-2.73-1.25-1.2.26-1.64,2.41-1.37,3.92.23,1.22,1.29,1.86,1.45,2.85-.49.49-1.55.07-1.79-.53-.18-.47.06-1.56,0-2.49-.12-1.82-.57-3.33.26-4.54.58-.86,1.69-.87,2.13-1.51,3.2.64,4.03,3.75,7.51,4.1Z"/>
        <path class="cls-1" d="M119.67,78.89c-.98.96-2.76,1.05-4.35.98-1.03-3.73,2.96-1.92,4.35-.98Z"/>
        <path class="cls-2" d="M113.28,65.77c1.97,1.76,3.7,4.19,3.75,7.66-.31.24-.48.47-.68.98,0,.15.24.05.26.18-.79.61-1.84.93-2.47,1.69-.65,2.43.68,8.28-2.56,7.13-.55.83-2.36,1.23-2.56.09-.21-1.2,1.23-1.41,1.02-2.49-1.04.25-2.02-.04-3.07-.45-.73-.28-1.45-.9-2.05-.89-.35,0-.74.35-1.11.45-1.49.37-2.61.03-3.33-.89,0-.54-.03-1.1.09-1.51-.94-.86-1.96-1.64-1.88-3.56.37-.65,1.39-.8,2.13-.8-.24-.74-.77-1.79-.34-2.67,1.41-.8,3.18-.56,4.78-.18.45-1.38.69-3.43,2.22-3.21,1.02.15,1.28,1.52,2.05,2.14.98-1.5,1.47-3.51,3.75-3.65ZM112.68,82.87c.95-1.61.3-4.21.68-6.32.27-1.48,1.35-2.01,2.3-2.76.16-.87.56-1.87.17-3.03-.18-.53-.63-1.11-.94-1.78-.4-.87-1.12-2.59-2.39-2.41-.92.13-1.46,1.47-1.96,2.32-.67,1.14-2.08,3.51-.85,4.9.55.62,1.54.59,2.05,1.16.82.92.48,3.18.51,4.72.02,1.08-.69,2.87.43,3.21ZM106.11,74.86c.86-.29,1.4-.92,2.3-1.16.06-1.36.32-2.52.68-3.56-.67-.49-.86-2.19-1.79-2.14-1.21.06-1.97,5.13-1.19,6.86ZM101.16,71.11c-.03,2.5,1.51,4.12,2.99,5.35.54-.35.99-.81,1.45-1.25-.5-.93-.58-2.3-.51-3.83-.96-.53-2.91-.55-3.93-.27ZM99.54,74.14c-.25,1.76,1.23,2.44,2.22,3.21.43,0,.55-.32,1.02-.27-.65-.84-1.28-1.69-1.62-2.85-.42-.15-1.14-.29-1.62-.09ZM101.41,78.42c-.44,1.55,2.01,1.22,2.9.89.33-.12.73-.53,1.19-.8.43-.25.99-.39,1.37-.62.77-.47,1.36-1.54,2.73-1.25,1.2.26,1.64,2.41,1.37,3.92-.23,1.22-1.29,1.86-1.45,2.85.49.49,1.55.07,1.79-.53.18-.47-.06-1.56,0-2.49.12-1.82.57-3.33-.26-4.54-.58-.86-1.69-.87-2.13-1.51-3.2.64-4.03,3.75-7.51,4.1ZM105.94,79.04c.98.96,2.76,1.05,4.35.98,1.03-3.73-2.96-1.92-4.35-.98Z"/>
        <path class="cls-1" d="M112.68,82.87c.95-1.61.3-4.21.68-6.32.27-1.48,1.35-2.01,2.3-2.76.16-.87.56-1.87.17-3.03-.18-.53-.63-1.11-.94-1.78-.4-.87-1.12-2.59-2.39-2.41-.92.13-1.46,1.47-1.96,2.32-.67,1.14-2.08,3.51-.85,4.9.55.62,1.54.59,2.05,1.16.82.92.48,3.18.51,4.72.02,1.08-.69,2.87.43,3.21Z"/>
        <path class="cls-1" d="M106.11,74.86c.86-.29,1.4-.92,2.3-1.16.06-1.36.32-2.52.68-3.56-.67-.49-.86-2.19-1.79-2.14-1.21.06-1.97,5.13-1.19,6.86Z"/>
        <path class="cls-1" d="M101.16,71.11c-.03,2.5,1.51,4.12,2.99,5.35.54-.35.99-.81,1.45-1.25-.5-.93-.58-2.3-.51-3.83-.96-.53-2.91-.55-3.93-.27Z"/>
        <path class="cls-1" d="M99.54,74.14c-.25,1.76,1.23,2.44,2.22,3.21.43,0,.55-.32,1.02-.27-.65-.84-1.28-1.69-1.62-2.85-.42-.15-1.14-.29-1.62-.09Z"/>
        <path class="cls-1" d="M101.41,78.42c-.44,1.55,2.01,1.22,2.9.89.33-.12.73-.53,1.19-.8.43-.25.99-.39,1.37-.62.77-.47,1.36-1.54,2.73-1.25,1.2.26,1.64,2.41,1.37,3.92-.23,1.22-1.29,1.86-1.45,2.85.49.49,1.55.07,1.79-.53.18-.47-.06-1.56,0-2.49.12-1.82.57-3.33-.26-4.54-.58-.86-1.69-.87-2.13-1.51-3.2.64-4.03,3.75-7.51,4.1Z"/>
        <path class="cls-1" d="M105.94,79.04c.98.96,2.76,1.05,4.35.98,1.03-3.73-2.96-1.92-4.35-.98Z"/>
      </g>
      <path class="cls-2" d="M98.88,93.06c-.19.38.41.39.17.52-.24.62-1.52.21-1.99.61-.26,2.92-1.41,6.75.35,8.83,1.09.74,2.82.49,3.98.61.43-.38.73-.89,1.47-.95,0,.99-1.13,1.7-1.9,1.99-1.35.5-2.86-.28-4.24-.09-1.01.14-1.45.94-2.34.69,0-1.48.16-2.91.09-4.59-.09-2.12.53-4.13-.26-5.45.04-.37.44-.37.43-.78-.27-.6-1.1-.63-1.3-1.3,1.85.31,3.38-.34,5.54-.09Z"/>
      <path class="cls-2" d="M65.77,83.67c-.17.46-.67.57-.95.95-.51.69-.65,1.66-.69,2.86.59-.09.87-.7,1.56-.43-.08,1.11-2.04.76-1.56,2.16.66.11.83-.26,1.47-.17.54.3.52,1.16.78,1.73.52-.02.42-.68.61-1.04.31-.58,1.2-1.75,1.73-1.64.49.1.58.75.43,1.3-.21.78-1.31,1.32-1.73,1.82-.05.6.42.68.52,1.13,1.67.9,3.51-.13,4.24-1.21.52,2.51-5.14,3.2-5.45.43-.66.22.24,1.5-.43,1.73-.6-.11-.38-.87-.43-1.38-.08-.85-.19-1.68-.69-1.99-1.57.07-.61,2.23-1.13,3.12-.82-.41-.45-1.73-.43-2.68.01-.6-.13-1.11-.09-1.64-.65-.22-1.4-.33-2.16-.43-.33,1.47.2,3.6-.87,4.59-.81-.95.16-3.26-.35-4.67-2.33-.39-3.12,1.49-4.24,2.6-.03-3.55,4.1-3.9,7.44-3.03.42-1.66.44-3.71,1.73-4.5.3.08.64.11.69.43ZM67.67,90.16c.24-.51,1.03-.47.95-1.3-.02-.07-.07-.1-.17-.09-.26.4-.95.83-.78,1.38Z"/>
      <path class="cls-2" d="M78.98,90.63c.2.98-.06,2.22-.17,3.37-.05.53.08,1.3-.43,1.47-.78-.75-.24-2.41-.69-3.37-1.73-.6-2.77.73-3.37,1.82-.06.76.11,1.28.17,1.9,1.81,1.84,4.56,3.61,4.85,7.18.01.17.01.35,0,.52-.15,2.45-1.83,3.8-3.46,5.02-1.5.36-2.57.47-3.89.09-.68-.2-1.49-.48-1.82-.69-.42-.27-.57-.75-.95-1.21-.58-.7-1.36-.99-1.47-2.25-.09-1.05.33-2.34.78-3.03.58-.9,1.59-2.21,2.77-1.9.35,1.92-1.51,3.93-.09,6.14,1.04,1.62,3.18.34,4.24-.69.65-.64,1.4-1.85.95-2.94-.25-.59-.94-1.22-1.47-1.9-.89-1.15-2.32-2.35-2.68-4.07-.38-1.79.51-3.53,1.64-4.76,1.29-.54,3.55-1.78,5.11-.69Z"/>
      <path class="cls-2" d="M120.17,92.57c.2.98-.06,2.22-.17,3.37-.05.53.08,1.3-.43,1.47-.78-.75-.24-2.41-.69-3.37-1.73-.6-2.77.73-3.37,1.82-.06.76.11,1.28.17,1.9,1.81,1.84,4.56,3.61,4.85,7.18.01.17.01.35,0,.52-.15,2.45-1.83,3.8-3.46,5.02-1.5.36-2.57.47-3.89.09-.68-.2-1.49-.48-1.82-.69-.42-.27-.57-.75-.95-1.21-.58-.7-1.36-.99-1.47-2.25-.09-1.05.33-2.34.78-3.03.58-.9,1.59-2.21,2.77-1.9.35,1.92-1.51,3.93-.09,6.14,1.04,1.62,3.18.34,4.24-.69.65-.64,1.4-1.85.95-2.94-.25-.59-.94-1.22-1.47-1.9-.89-1.15-2.32-2.35-2.68-4.07-.38-1.79.51-3.53,1.64-4.76,1.29-.54,3.55-1.78,5.11-.69Z"/>
      <path class="cls-2" d="M159.29,92.29c-.26.89-1.07,1.11-1.47,1.99-.65,1.44-.26,3.35-.17,5.37.02.51-.1,1.09,0,1.56.14.65.89,1.21.87,2.42-.01.6-.25,1.8-.78,1.9-.64.12-.94-.66-1.12-1.21-.16-.07-.32-.14-.52-.17-1.29-2.26-3.48-3.62-5.28-5.36.01,2.05.63,5.16-.69,7.1-.56.12-.93.17-1.47,0,.14-2.6,1.48-8.07-.35-9.43-.26-1.11-.15-2.41.26-3.46.59-.07.44.6.69.87,1.92,2.69,4.41,4.82,7.1,6.75.38-1.37-.35-3.45,0-5.54.03-.19.34-.53.52-1.12.28-.92.13-2.12,1.04-2.25.7-.1.88.57,1.38.61Z"/>
      <path class="cls-2" d="M113,110.11c-.26.89-1.07,1.11-1.47,1.99-.65,1.44-.26,3.35-.17,5.36.02.51-.1,1.09,0,1.56.14.65.89,1.21.87,2.42-.01.6-.25,1.8-.78,1.9-.64.12-.94-.66-1.12-1.21-.16-.07-.32-.14-.52-.17-1.29-2.26-3.48-3.62-5.28-5.36.01,2.05.63,5.16-.69,7.1-.56.12-.93.17-1.47,0,.14-2.6,1.48-8.07-.35-9.43-.26-1.11-.15-2.41.26-3.46.59-.07.44.6.69.87,1.92,2.69,4.41,4.82,7.1,6.75.38-1.37-.35-3.45,0-5.54.03-.19.34-.53.52-1.12.28-.92.13-2.12,1.04-2.25.7-.1.88.57,1.38.61Z"/>
      <path class="cls-2" d="M146.8,93.57c-.17.58-1.53.15-2.12.37-.07.86-.24,2.68.18,3.41-.48.98-.12,2.26-.27,3.56-.14,1.23-.02,2.38.18,3.41.65.17,1.88-.09,2.21.52-.56.09-1.14.18-1.33.59-1.37.14-2.58.26-3.72-.37-.1-.42.91-.2,1.06-.59.04-.09-.41-.75-.44-.96-.08-.58.17-1.67.18-2.23.01-1.15-.2-2.35-.18-3.56.02-1.18.05-2.26.18-3.19-1-.05-2.13-.51-2.57-1.26,1.86-.26,4.89-.68,6.64.3Z"/>
      <path class="cls-2" d="M121.35,92.49c.34.35,1.09-.02,1.82,0,2.17.07,4.14.51,5.62,1.56.54,1.68.89,4.04-.09,5.36-.2.27-.68.38-1.13.69-.48.33-.61.49-1.3.69-.56.16-1.09.26-1.38.17-.24-.11-.42-.27-.43-.61-.18,1.28.16,2.78.26,4.07.02.37-.45.24-.61.43.51.6,1.3.53,1.56,1.47-.42.21-.86-.21-1.21-.35-.94-.05-2.32.11-2.77-.61.55-.66.74-1.05.69-2.25-.06-1.47,0-3.7-.17-5.28-.12-1.09-.7-2.22-.09-3.12.7-.29,1.38-1.2,2.34-.69.09.26-.19.15-.35.17.03,2.17-.15,3.99.17,5.97.31,0,.07-.57.26-.69,2.97.43,3.95-4.81,1.56-5.88-1.32-.6-3.38.2-4.59-.09-.14-.49.2-.64-.17-1.04Z"/>
      <path class="cls-2" d="M136.09,98.85c.43,1.07,1.08,1.85,1.64,2.94.3.59.74,1.19.95,1.73.2.51.11,1.14.35,1.56.35.61,1.23.81,1.9.95-.06.44.46.64.26.95-4.45-.1-5.04-5.5-7.79-7.87-.36.07-.44-.13-.78-.09-.54.92.44,3.24-.35,4.24,0,.46.39.53.43.95-.34.21-.64.45-.87.78.47.25,1.92-.3,2.08.61-1.66.18-2.91.69-3.98-.43.95-.43.8-1.14.69-2.34-.24-2.64.57-6.4-.17-8.48.21-.37.66-.49.87-.87-.79-.37-2.07.53-2.42-.35.69-.54,1.88-.4,3.12-.35,1.42.07,3.31-.03,4.33.26.14.55.91.83,1.13,1.56.46,1.59-.09,3.71-1.38,4.24ZM134.19,93.57c-.21-.11-.91-.08-1.47-.09-.41,1.25-.54,3.1-.26,5.11,3.18.35,3.71-3.91,1.73-5.02Z"/>
      <path class="cls-2" d="M132.2,117.43c.43,1.07,1.08,1.85,1.64,2.94.3.59.74,1.19.95,1.73.2.51.11,1.14.35,1.56.35.61,1.23.81,1.9.95-.06.44.46.64.26.95-4.45-.1-5.04-5.5-7.79-7.87-.36.07-.44-.13-.78-.09-.54.92.44,3.24-.35,4.24,0,.46.39.53.43.95-.34.21-.64.45-.87.78.47.25,1.92-.3,2.08.61-1.66.18-2.91.69-3.98-.43.95-.43.8-1.14.69-2.34-.24-2.64.57-6.4-.17-8.48.21-.37.66-.49.87-.87-.79-.37-2.07.53-2.42-.35.69-.54,1.88-.4,3.12-.35,1.42.07,3.31-.03,4.33.26.14.55.91.83,1.13,1.56.46,1.59-.09,3.71-1.38,4.24ZM130.3,112.15c-.21-.11-.91-.08-1.47-.09-.41,1.25-.54,3.1-.26,5.11,3.18.35,3.71-3.91,1.73-5.02Z"/>
      <path class="cls-2" d="M163.23,99.53c.13.18.27.6-.09.61,0-.23-.03-.49.09-.61Z"/>
      <path class="cls-2" d="M90.03,108.02c1.05.67.64,2.98.31,4.3-.47-.04-1.18-.69-1.05-1.68-.98-1.07-3.32-1.68-3.98.1-.21-.18-.11-.19-.31-.1-.92.4-2.85,3.95-2.93,5.24-.05.72.15,1.91.31,2.62.4,1.8,2.89,3.75,4.5,4.19,1.06.29,2.35-.16,3.25.73-.94.81-2.52.76-4.19.42-3.01-.62-6.18-2.84-6.29-5.87-.14-3.85,2.69-9.03,6.18-9.95,1.23-.32,2.74.2,4.19,0ZM81.65,120.59c-.16-.26-.39-.45-.52-.73,0,.36.37.88.52.73Z"/>
      <path class="cls-2" d="M85.79,126.62c-.4,0-.49.24-.66.43-.68.04-.36-.68-1.13-.58-1.07,1.22-2.15,2.57-2.16,4.39.83.49,2.67-.04,3.57.57.59.4.48,1.05,0,1.65-.22-.02-.35-.11-.66-.07-.09-.41-.34-.7-.47-1.08-.69-.25-2-.16-2.72,0-.66,1.91-.69,5-2.07,6.62-.85.99-2.03,1.85-3.29,1.37-1.03-.4-1.85-1.26-1.78-2.3,1.52.08,1.41,1.41,2.72,1.65.41-.05.37-.44.47-.72,1.99-1.36,2.6-3.76,3.01-6.33-.68-.09-1.47.36-1.97.65-.18,1.49-1.13,2.39-2.63,2.88-3.26-1.43-1.24-6.48,2.72-6.11.41.65-.12,1.38.19,2.09.84,0,1.17-.4,1.88-.5.44-1.66.21-5.76,2.54-5.9,1.18-.07,1.87.69,2.44,1.29ZM76.02,134.53c.1.27-.2.23-.28.36.91-.17,1.62-1.11,1.88-2.01-.5.13-.64.08-1.31.07.08-.25-.14-.28-.09-.5.57-.04,1.05-.15,1.5-.29-.03-.81.09-1.31-.38-1.73-1.34.62-1.65,2.66-1.32,4.1Z"/>
      <path class="cls-2" d="M91.67,125.56h.26c.07.1.11.23.09.43-.23-.03-.29-.23-.35-.43Z"/>
      <path class="cls-2" d="M98.2,114.61c-.34-.18-.25-.8-.42-1.15-2.08-1.23-4.13,1.23-4.08,3.77,1.11-.02,3.81-.67,5.34-.31.69.16,1.04.55.63,1.15-2.04-.13-3.66.09-5.97.31-.47,2.82.96,4.5,3.46,4.4,1.13-.05,2.07-.74,3.14-.63.26,1.06-1.37,1.05-1.78,1.78-1.36.39-2.71-.23-4.09-.42-1.53-1.06-2.81-2.36-2.93-4.82-.75-.06-1.09.41-1.68.21.27-.78.52-.77.42-1.57.29-.24.81-.03,1.15,0,.25-.63.31-1.74.73-2.41,1.05-1.66,3.7-3.81,5.55-3.67,1.41.11,1.69,2.64.52,3.35Z"/>
      <path class="cls-2" d="M143.14,114.17c-.34-.18-.25-.8-.42-1.15-2.08-1.23-4.13,1.23-4.08,3.77,1.11-.02,3.81-.67,5.34-.31.69.16,1.04.55.63,1.15-2.04-.13-3.66.09-5.97.31-.47,2.82.96,4.5,3.46,4.4,1.13-.05,2.07-.74,3.14-.63.26,1.06-1.37,1.05-1.78,1.78-1.36.39-2.71-.23-4.09-.42-1.53-1.06-2.81-2.36-2.93-4.82-.75-.06-1.09.41-1.68.21.27-.78.52-.77.42-1.57.29-.24.81-.03,1.15,0,.25-.63.31-1.74.73-2.41,1.05-1.66,3.7-3.81,5.55-3.67,1.41.11,1.69,2.64.52,3.35Z"/>
      <path class="cls-2" d="M104.57,128.85c.57,1.73,2.53,3,2.68,5.36.21,3.2-1,6.72-4.67,6.84-2.78.09-5.25-2.32-5.37-5.11-.06-1.51.85-2.51,1.04-3.98,1.16-1.84,3.46-4.09,6.32-3.12ZM99.72,135.34c.29,1.15,1.76,4.42,2.68,4.67.49.14,1.48-.21,1.82-.43,2.85-1.9.78-7.98-1.64-9.35-2.29.5-3.54,2.39-2.86,5.11Z"/>
      <path class="cls-2" d="M168.17,96.08c-.15.01-.18-.11-.35-.09-.01.25.05.57-.09.69-.76-.91-1.64-1.71-1.73-3.29-3.1-.15-4.89,3.65-4.33,7.18.37,2.31,2.51,3.17,5.28,2.34.53-.65.8-1.98.52-2.94-1.51.1-3.3.85-4.15.17.17-.59.66-1.98,1.38-2.08.29-.04.43.29.86.43,1.52.48,2.76-.13,4.15,0,.86.08,2.16-.23,2.42.61-1.24.49-2.72.07-3.72.69.38,1.24.21,3.73.52,5.02-.64.16-.98-.6-1.38-.95-.41.25-.92.41-1.21.78-2.81.49-5.01-.81-6.23-2.25-.67-1.67-.54-3.97-.17-5.88.94-2,2.24-4.22,5.19-4.33.24,0,.58-.09.78.26.11-.18.33-.25.35-.52,1.71.51,2.17,2.56,1.9,4.15Z"/>
      <path class="cls-2" d="M116.79,131.58c-.15.01-.18-.11-.35-.09-.01.25.05.57-.09.69-.76-.91-1.64-1.71-1.73-3.29-3.1-.15-4.89,3.65-4.33,7.18.37,2.31,2.51,3.17,5.28,2.34.53-.65.8-1.98.52-2.94-1.51.1-3.3.85-4.15.17.17-.59.66-1.98,1.38-2.08.29-.04.43.29.86.43,1.52.48,2.76-.13,4.15,0,.86.08,2.16-.23,2.42.61-1.24.49-2.72.07-3.72.69.38,1.24.21,3.73.52,5.02-.64.16-.98-.6-1.38-.95-.41.25-.92.41-1.21.78-2.81.49-5.01-.81-6.23-2.25-.67-1.67-.54-3.97-.17-5.88.94-2,2.24-4.22,5.19-4.33.24,0,.58-.09.78.26.11-.18.33-.25.35-.52,1.71.51,2.17,2.56,1.9,4.15Z"/>
      <path class="cls-2" d="M81.13,119.85c.13.28.37.47.52.73-.16.15-.53-.37-.52-.73Z"/>
      <path class="cls-2" d="M88.44,91.94c.38.52.19,1.95-.43,2.25.71,3.48,2.32,6.05,3.37,9.17.94.02,1.16-.3,1.99-.26,0,.15.06.22.17.26-.36.48-.49,1.41-.95,1.82-.31.28-1.21.5-1.56.43-.62-.13-.99-1.03-1.38-1.82-.58-1.14-.96-1.93-1.56-2.94-.43-.08-.78.66-1.13.95-1.11-.44-2.34.09-3.46.17-1.39,2.14-3.14,4.82-7.01,3.89.28-.65,1.28-.4,1.82-.52,1.35-.31,2.05-1.25,2.94-2.42,1.12-1.48,2.1-2.66,3.03-4.24.43-1.65,1.45-2.7,1.82-4.41-.31-.53-.53-1.14-.69-1.82.71,0,1.1.1,1.47.69.55-.37.64-1.21,1.56-1.21ZM84.46,100.33c1.13-.1,2.04-.1,3.29-.26-.11-1.16-.97-1.63-1.21-2.86-.28.07-.33-.08-.43-.17-.56,1.08-1.18,2.11-1.64,3.29Z"/>
      <path class="cls-2" d="M125.75,128.98c.34.52-.3.3-.51,1.3.64,3.48,2.09,6.05,3.05,9.17.85.02,1.05-.3,1.8-.26,0,.15.06.22.16.26-.33.48-.45,1.41-.86,1.82-.28.28-1.1.5-1.41.43-.56-.13-.89-1.03-1.25-1.82-.52-1.14-.87-1.93-1.41-2.94-.39-.08-.7.66-1.02.95-1-.44-2.12.09-3.13.17-1.25,2.14-2.84,4.82-6.33,3.89.25-.65,1.16-.4,1.64-.52,1.22-.31,1.85-1.25,2.66-2.42,1.01-1.48,1.89-2.66,2.74-4.24.39-1.65,1.31-2.7,1.64-4.41-.28-.53.58-.12.43-.79.64,0-.06-.93.27-.33.5-.37.69-.26,1.52-.27ZM122.04,136.43c1.02-.1,1.84-.1,2.97-.26-.1-1.16-.88-1.63-1.09-2.86-.25.07-.3-.08-.39-.17-.51,1.08-1.06,2.11-1.48,3.29Z"/>
      <path class="cls-2" d="M91.93,125.04c1.09,2.2,1,5.06,2.08,7.27,1.88-2.35,2.86-6.73,6.4-6.58.38.51,1.34.44,1.38,1.3-.88-.24-1.53-.11-2.16.26-.38.55-1.11.74-1.3,1.47-3.03,1.88-3.58,6.29-3.72,10.64-.29.37-.8.52-1.12.87.57.66,2.03-.04,2.16.95-1.48.27-3.37.51-5.02.43.17-.93,1.05-1.14,1.64-1.64,1.24-3.9-.81-9.37-2.34-12.55-.32.3-.22.18-.52-.09-.64.01-1.38.91-1.73.17.58-1.31,2.48-2.63,4.24-2.51ZM92.02,126c.03-.2-.01-.33-.09-.43h-.26c.05.21.12.4.35.43Z"/>
    </g>
  </g>
  <g>
    <polygon class="cls-3" points="27.73 88.44 5.01 121.7 6.14 123.13 49.48 121.62 33.91 93.03 29.28 87.61 27.73 88.44 27.73 88.44"/>
    <path class="cls-2" d="M26.6,92.76c-.82.35-.23-.82-1.06-.47-.4.13-.18.82-1,.57-.32,1.35-.63,2.7-1.91,3.19-.3,1.42.73,1.37,1.14,2.01-1.79,1.31-1.8,5.51-4.96,4.11.29.76,1.23.81,1.38,1.74-.68.35-1.18.49-1.52.59,1.1.9-.29.67-.71,1.33-1.1,1.71-1.69,4.39-3.63,4.82-.07,1.25-.52,2.15-1.69,2.4.65,1.34-.38.19-.74.81,1.66.31-1.06,1.13.09,1.8-1.83.38-1.38,2.84-2.66,3.74-.16-.44.24-1.53-.33-1.53,0,.4.08.89-.48.8-.27.85.84.15.57,1-1.07.26-.87,1.67-1.43,2.4,2.68-.59,7.04-.64,10.03-.5.05-.2-.02-.5.23-.52,9.98.91,17.94-.64,30.13-.97-.56-2.71-2.95-4-3.88-5.49-.31-2.29-2.47-2.52-2.57-5.03-1.15.17-.99-.92-.85-1.5-1.03.02-1.95-1.64-1.13-2.01-.81.43-.87-.15-1.57-.44-1.86-5.62-6.3-9.59-8.43-14.02.01.26-.44.34-.52.02.31-.04.61-.11.49-.54-.72.25-.69-.33-1.3-.19-1.24,1.74-1.8,4.1-3.88,5.09.54.89-.19,1.25-.68,1.84-.31-1.02-.06-2.01.38-2.86.42-.02.18.71.55.75.06-1.11.94-3.21,1.7-2.15-.03-.35.09-.57.22-.78h0ZM41.64,104.65c1.52.21,1.12,2.55,2.71,2.7.04,1.67.9,2.45,1.95,3-.12,1.76.87,2.29,1.94,2.74.12.43-.17.49-.48.54.36.35,1.21.59.57,1.26.2-.15.41-.29.76-.3.12.52-.01.81-.47.8.51.65,1.99,2.06,1.16,2.52.26.44.83.53,1.56.44.15,2.11,1.3,3.09,1.3,5.36-.25-.15-.97-.56-.75.29-.47-.49-1.8,0-1.85-.94-.57,1.02-1.77-.67-3.06.67-.78.13-.58-.81-.84-1.25-.74.26.37.63.06,1.28-.2-.16-.87-1.05-.77.04-3.59-.25-8.93-.27-12.11.08-.02-.25-.03-.5-.04-.76-1.16.69-2.52.82-3.6.18-.69,1.01-5.49,1.03-6.95.35-2.83,1.62-9.12.1-10.49,1.8-2.22-1.25-6.04.17-8.81-.85-.26-.81.17-.99.45-1.31-1.04-.04-.43-.2-.6-1.77,1.2-.39,1.69-1.41,1.67-2.92,1.19.19.52-1.32,1.74-1.12-.22-.78-.2-.48-.06-1.28,1.75.2.69-2.16,2.21-2.17-.18-.26-.6-.24-.55-.75,1.04.28.48-.87,1.52-.59-.02-.43-.04-.86-.06-1.29.22-.21.57-.31,1.01-.31,1.51-3.88,4.33-6.57,5.94-10.36.89-.02,1.17-.58.95-1.59.76.03.76-.62,1.52-.59.63-3.45,3.91-4.49,4.51-7.96,2.82-.63,2.15-4.44,4.9-5.14-.18-.25-.6-.24-.56-.75.85-.05,1.26-.5,2.31-.37,1.15.82-.3,1.33,1.35,1.22-1.06,1.16.33,4.56,1.49,4.05.38.07.07,1.95,1.37,1.74-.14.79.32.92.34,1.53,3.31,2.76,3.95,8.48,7.26,11.24.11.43-.18.5-.49.55h0Z"/>
    <text class="cls-5" transform="translate(18.11 116.42) scale(.79 1)"><tspan x="0" y="0">47</tspan></text>
  </g>
</svg>