<?xml version="1.0" encoding="UTF-8"?>
<svg id="Layer_1" data-name="Layer 1" xmlns="http://www.w3.org/2000/svg" viewBox="0 0 180 200">
  <defs>
    <style>
      .cls-1, .cls-2, .cls-3 {
        fill-rule: evenodd;
      }

      .cls-1, .cls-4, .cls-5 {
        fill: #fff;
      }

      .cls-2 {
        fill: #231f20;
      }

      .cls-3 {
        fill: #00a14b;
      }

      .cls-5 {
        font-family: AmericanTypewriter-Bold, 'American Typewriter';
        font-size: 23.14px;
        font-weight: 700;
        letter-spacing: .02em;
      }
    </style>
  </defs>
  <g>
    <polygon class="cls-4" points="172.53 155.3 164.59 154.85 156.7 155.21 148.82 154.95 140.94 155.49 133.06 154.76 125.17 155.18 117.29 155.39 109.41 155.34 101.53 155.37 93.65 155.39 85.76 154.82 77.88 155.64 69.99 155.11 62.1 155.49 54.54 154.9 54.15 147.51 54.73 139.79 53.97 132.07 54.02 124.35 54.15 116.62 54.74 108.9 54.68 101.18 54.15 93.46 54.27 85.73 54.13 78.01 54.4 70.29 54.35 62.56 54.2 54.84 54.74 47.1 54.23 39.39 62.1 39.12 69.98 39.42 77.86 39.25 85.74 39.25 93.63 38.87 101.51 38.85 109.39 39.51 117.27 39.5 125.15 39.03 133.04 39.27 140.92 39.28 148.81 39.82 156.69 39.02 164.58 38.98 172.41 39.43 172.24 47.1 172.61 54.82 172.37 62.54 172.87 70.26 172.37 77.99 172.59 85.71 172.98 93.43 172.9 101.15 172.72 108.88 172.21 116.6 172.77 124.32 172.17 132.05 172.45 139.77 172.77 147.5 172.53 155.3"/>
    <path d="M106.19,81.21c.13.66-.79.93-.62,1.63,0,.04-.26.18-.41.22-.21.06-.43.07-.71.12.25.31.44.55.62.78,0,.64-.76.55-.93,1.02.23.82.25.86-.28,1.17-.54.33-1.01.61-.96,1.38.03.43-.78.53-.55,1.2.11.33-.13.81-.28,1.2-.17.45-.37.9-.64,1.29-.54.78-.73,1.63-.77,2.57-.06,1.84.13,3.63.75,5.36.12.34.24.68.38,1.01.18.42.51.66.96.75.18.03.37.02.54.07.38.11.64.36.66.77.02.36,0,.72,0,1,.24.41.92.39.73.99-.17.55-.47,1.03-1.06,1.13-.47.08-.97.01-1.45,0-.84-.03-1.69-.08-2.53-.13-.71-.58-.66-1.53-1.06-2.26-.65-1.17-.96-2.46-1.24-3.77-.23-1.06-.62-2.08-.8-3.16-.07-.39-.3-.76-.43-1.07-.48-.14-.68.14-.87.35-.53.58-1.08,1.15-1.52,1.79-.53.76-.76,1.62-.68,2.58.05.6.1,1.27-.12,1.8-.39.96.12,1.77.23,2.64.02.18.3.38.5.47.21.09.48.03.71.09.46.13.93.26,1.36.46.4.19.64.54.64,1.02,0,.36,0,.72,0,1.07.29.25.58.47.84.72.18.17.13.54-.08.62-1.28.51-2.51,1.24-3.97,1.12-.35-.03-.7-.14-1.05-.23-.31-.08-.57-.25-.68-.55-.16-.46-.39-.85-.77-1.19-.18-.16-.17-.56-.19-.85-.03-.67.02-1.34-.46-1.9-.11-.13-.19-.33-.18-.5.05-1.16-.45-2.24-.45-3.4,0-1.33-.4-2.62-.91-3.87.08-.22.22-.44.24-.67.08-.79.45-1.35,1.15-1.72.41-.21.57-.6.61-1.05.05-.66.1-1.32.16-2.07-.31-.29-.75-.66-.3-1.27.14-.19.28-.41.36-.63.05-.14.05-.35-.02-.48-.27-.55-.13-1.04.08-1.57.21-.55.49-1.1.14-1.72-.08-.14-.05-.37-.01-.54.22-.95.19-1.89.04-2.85-.14-.95-.1-1.93-.15-3.15-.61,1.34-1.84,1.29-2.74,1.81-.25.14-.52-.32-.83-.07-.23.19-.48.35-.71.52-.54-.28-1.02-.52-1.53-.79-.51.14-1.02.31-1.54.43-.36.08-.74.05-.92-.36-.11-.26-.31-.39-.56-.37-.72.06-1.27-.23-1.8-.7-.25-.23-.63-.32-.97-.45-.45-.18-.9-.33-1.35-.49-.48-.18-.89-.5-.95-1.01-.11-.87-.75-1.35-1.28-1.91,0-.53-.12-1.05.03-1.48.24-.68.17-1.28-.04-1.92-.03-.09.06-.22.1-.39.15.04.33.03.45.12.75.53,1.43,1.12,1.99,1.85.15.19.32.36.48.55,1.74,2.12,4.09,2.37,6.59,2.14.35-.03.7-.2,1.01-.38,1.59-.91,3.02-2.01,4.2-3.44.89-1.07,1.78-2.14,2.71-3.18.36-.4.78-.76,1.21-1.09.67-.52,1.38-.98,2.05-1.51,1.68-1.32,3.63-1.85,5.72-2.05.9-.09,1.79-.27,2.68-.41.32-.69.31-.69.24-1.62-.6-.15-1.21-.4-1.63-.96-.07-.09-.19-.17-.31-.19-1.07-.17-1.65-.92-2.14-1.79-.09-.16-.19-.34-.33-.43-1.34-.84-1.69-2.3-2.26-3.66-.22-.06-.45-.1-.67-.19-.45-.18-.48-.29-.37-1.1-.76-.37-1.35-.9-1.04-1.9.16-.52-.39-.69-.54-1.08.18-.23.36-.47.51-.66-.09-.32-.17-.61-.23-.89-.07-.29-.12-.59-.2-.94.07-.35.51-.39.74-.63.43-.47.77-1.02,1.2-1.6.56-.02,1.05.32,1.49.74.61.59,1.22,1.19,1.77,1.83.58.67,1.29,1.1,2.14,1.28.82.18,1.62.47,2.5.4,1.57-.13,2.9-.56,3.91-1.93,1.04-1.41,2.29-2.67,4.12-3.28.37.18.8.39,1.25.6.26.83.52,1.63.77,2.43-.67-.18-1.04-.75-1.53-1.17l.06.05c-.06-.42-.38-.64-.72-.7-.27-.05-.6.03-.85.16-1.01.49-1.7,1.34-2.37,2.19-.33.42-.68.84-.99,1.28-.54.74-1.25,1.06-2.17,1.07-1.49.01-2.99.1-4.45-.27-.31.73-.54,1.42-.89,2.04-.37.65-.24,1.4-.49,2.1-.31.17-.63.34-.94.51-.09-.55.38-.85.57-1.28-.14-.12-.27-.24-.54-.47.79-.26.6-1.04.94-1.58.34-.55.21-1.18.31-1.79-.27-.26-.54-.5-.79-.76-.29-.31-.56-.63-.85-.94-.29-.31-.58-.62-.89-.9-.58-.53-1.22-.41-1.62.31-.14.26-.24.55-.37.86.39.56.77,1.11.69,1.81l.06-.06c-.11.13-.31.25-.32.39-.04.53-.02,1.06-.02,1.68.41.26.85.53,1.25.78.16.49.29.95.46,1.39.21.55.63.67,1.16.51.67.95.55,2.15.87,3.25.31-.07.54-.12.81-.19.04.15.08.31.11.47.19,1.21.5,1.39,1.66.96.06-.02.11-.07.17-.07.17,0,.39-.03.49.06.09.08.08.32.05.47-.09.53.09.83.55.84.12,0,.26.02.36-.03.43-.21.73-.07,1.12.2.53.36,1.17.22,1.71-.1.52-.31.95-.72,1.29-1.24.36-.55.69-1.15,1.38-1.38.08-.03.18-.16.17-.25-.03-.56.29-.89.76-1.08.89-.36,1.48-.98,1.78-1.9.07-.21.25-.39.38-.57-.24-.23-.6-.3-.53-.77.16-.18.34-.42.55-.63.65-.64.7-1.36.31-2.15-.19-.38-.38-.75-.59-1.15-.73-.44-1.55-.84-1.55-1.91.18-.03.33-.11.4-.06.9.58,1.86.3,2.8.18.08-.01.15-.17.22-.26.39.33.44.51.18.63-.36.18-.87.1-1.07.62.26.76.54,1.55.8,2.33-.09.49-.18.96-.27,1.44-.36,1.96-1.19,3.66-2.62,5.08-.68.68-1.31,1.42-1.91,2.18-.65.82-1.48,1.41-2.36,1.99v1.23c.14.1.22.19.32.24.62.29,1.3.31,1.96.29,1.65-.06,3.23.42,4.86.55,2.05.17,4.08.41,6.13.59,2.17.19,3.89-.65,5.21-2.38-.06-.27-.12-.55-.17-.81.54-.4.89.29,1.45.19v-1.29c-.18-.17-.64-.19-.69-.69.4-.23.82-.46,1.28-.72-.05-.25-.09-.48-.15-.8.33-.02.67-.04,1.02-.06.44-.47.62-1,.39-1.64.23-.28.54-.11.82-.16.29-.05.62-.1.85-.27.77-.59,1.54-1.2,2-2.07.12-.23.02-.57.02-.86.1-.04.21-.13.31-.12,1.12.09,2.16-.1,3.12-.71.52-.33,1.08-.54,1.69-.2.99-.44,2.04.05,3.05-.21.62-.16.95.44,1.43.63.28.65.73.49,1.2.27.11-.05.23-.09.34-.11.39-.08.66.2.58.67-.03.18-.12.34-.2.55.3.33.66.65.92,1.04.23.35.35.77.51,1.13,1.01.6,2.02,1.17,2.98,1.78.4.26.75.61,1.08.96.35.36.46,1.21-.02,1.66-.94.87-1.59,1.98-2.4,2.96-.84,1.02-1.84,1.92-2.8,2.85-.15.15-.44.17-.67.24-.32.09-.62.01-.79-.27-.29-.46-.53-.94-.79-1.4-.4.08-.78.16-1.19.25-.47-.84-.64-1.8-1.56-2.28-.72.38-1.47.76-2.21,1.15-.68.35-1.05.84-1.23,1.65-.25,1.09-.4,2.11-.04,3.2.15.44.15.96.13,1.43-.02.37-.06.71.16,1.04.05.07.04.28,0,.31-.67.4-.47,1.02-.49,1.62-.02.95-.44,1.71-1.32,2.17.05.29.14.58.15.87,0,.23-.03.58-.17.66-.54.29-.53.75-.54,1.24-.03.71.06,1.47-.59,2-.05.42-.11.83-.15,1.25-.09,1.04-.08,1.04-.96,1.82-.02.34-.05.71-.05,1.07,0,.69-.19,1.33-.65,1.85-.34.38-.57.77-.55,1.3,0,.17-.04.37-.12.53-.69,1.43-.86,3.01-1.36,4.49-.16.48-.23.93-.23,1.42,0,.91.01,1.82-.31,2.69-.04.11-.05.24-.06.36-.14,2.05-.16,4.1-.44,6.14-.03.23.04.48.06.75.36.32.69.67,1.09.94.83.56,1.37,1.36,1.91,2.17.25.38.29.78.1,1.32-1.23.66-2.55.77-3.93.23-.67-.26-1.34-.54-1.97-.79-.6-2.01-.56-4.01-.52-6,0-.42.13-.83.19-1.25.05-.36.14-.71.14-1.07,0-.7.01-1.41-.07-2.15-.73.24-.94.76-.99,1.31-.1,1.21-.24,2.39-.7,3.53-.07.16-.04.36-.05.54-.03,1.02,0,2.05-.27,3.06-.09.34-.01.72-.01,1.08.8.64,1.57,1.17,2.06,2.07.42.75.63,1.41.34,2.22-.48.52-1.06.74-1.79.66-.67-.07-1.27.08-1.87.49-.66.46-1.33.18-1.59-.57-.2-.57-.32-1.16-.46-1.75-.08-.35-.06-.75-.23-1.05-.32-.59-.29-1.24-.1-1.77.41-1.11.23-2.28.55-3.39.17-.61.05-1.32,0-1.99-.05-.6-.19-1.19-.29-1.79-.03-.18-.04-.45-.14-.5-.75-.35-.56-.97-.52-1.57.02-.41-.6-.7-.32-1.15.27-.44-.06-.81-.04-1.2.02-.34.3-.67.33-1.02.03-.41-.01-.86-.17-1.22-.12-.29-.17-.56-.21-.85-.03-.22-.14-.42-.22-.64.3-.15.56-.28.82-.43.05-.03.07-.1.11-.16-.17-.23-.34-.46-.53-.72.26-.78.53-1.56.84-2.48-.44-.89-.49-2.07-1.03-3.17-.53.22-1,.43-1.36.58-.8-.15-.74-.9-1.26-1.28-.84,0-1.72-.28-2.44-.85-.86-.68-1.86-.88-2.87-.99-.73-.08-1.41-.27-2.07-.52-.34-.51-.67-1.01-1.07-1.61-.2.44-.36.79-.54,1.18-.43-.15-.63-.61-1.15-.65-.36-.02-.71-.4-1.06-.62-.02-.05-.04-.1-.07-.14-.02-.02-.06-.03-.1-.04.07.05.14.09.21.14ZM100.36,90.37c-.69.02-1.3.16-1.45.99-.03.17-.11.35-.21.49-.41.59-.93,1.13-1.23,1.78-.35.77.54,1.45.34,2.27-.06.27.07.59.14.88.3,1.35.62,2.7.91,4.05.33,1.54,1.16,2.61,2.77,2.93.06.01.12.02.18.03.02.05.04.1.07.15.02.03.06.03.1.05-.07-.05-.15-.1-.22-.14.06-.22.12-.45.17-.64.89-.11,1,1.09,1.91.96-.09-.32-.21-.58-.24-.85-.07-.53-.34-.81-.82-1.08-.51-.29-.93-.77-1.29-1.24-.4-.52-.76-1.1-1.01-1.71-.4-1-.74-2.04-1.03-3.08-.19-.67.11-1.41-.23-2.1-.09-.18.03-.48.11-.7.22-.62.5-1.23.71-1.86.13-.39.19-.81.28-1.22.08-.05.17-.1.25-.15-.04-.03-.08-.05-.11-.08-.03.09-.06.18-.09.27ZM128.75,108.89c.02.05.03.12.07.16.02.03.08.02.12.03-.08-.05-.16-.1-.23-.14.03-.34.07-.69.11-1.06.43.2.62.49.67.87.03.17.04.35.09.52.06.18.45.26.63.13.15-.11.25-.23.14-.45-.15-.32-.26-.66-.38-.99,0-.03.07-.1.12-.13.05-.02.14-.03.18,0,.21.2.42.4.6.63.19.22.35.47.53.7.02.02.11.01.15,0,.05-.03.12-.1.12-.13-.07-.28-.08-.63-.25-.83-.6-.68-1.24-1.32-1.89-1.95-.46-.44-.74-.97-.75-1.59-.01-.6-.04-1.24.13-1.8.3-.97.17-1.9.13-2.76-.41-.51-.65-1.02-1.24-1.17-.06-.01-.07-.2-.1-.31.19-.49.86-.63.92-1.14-.22-.22-.54-.46-.51-.53.3-.59.04-1.24.31-1.86.28-.64.65-1.15,1.14-1.6.42-.39.74-.81.69-1.41-.05-.64.18-1.17.47-1.71.28-.53.61-1.06.57-1.7-.04-.59.21-1.05.56-1.49.15-.19.31-.37.43-.58.06-.09.09-.24.06-.34-.02-.09-.16-.25-.2-.23-.73.23-1.54.37-1.64,1.37-.02.23-.08.6-.21.64-.52.18-.39.71-.64,1.03-.23-.03-.46-.06-.68-.09-.05.06-.13.13-.12.16.33.95-.38,1.56-.75,2.27-.99.39-1.3,1.17-1.22,2.16-.48.8-.24,1.6-.11,2.45.23,1.48.51,2.97.49,4.49-.02,2,.05,3.99.05,5.99,0,.61.09,1.2.29,1.77.19.54.58.74,1.14.64ZM95.62,93.64c-.49-.06-.94-.02-1.38.29-.54.38-1.14.67-1.83,1.07-.03-.33-.13-.58-.05-.77.39-.94,1.08-1.73,1.4-2.72.14-.43.6-.6.99-.74.33-.12.7-.25,1.07.12-.52.32-1.05.61-1.53.96-.22.16-.19.4.1.52.61-.28,1.2-.55,1.76-.81.31.19.55.34.79.48.81-.75,1.2-1.67,1.38-2.71.16-.95.4-1.88.59-2.72.71-.68,1.79-.83,1.88-1.96,0-.12.27-.22.39-.35.25-.25.58-.47.72-.78.25-.57.64-1.01,1.03-1.46.62-.72,1.18-1.49,1.82-2.3,1.15.1,1.73-1.08,2.7-1.45.8.61,1.55,1.18,2.31,1.75.16.97.68,1.77,1.2,2.61.27-.09.48-.22.7-.24.97-.07,1.93-.12,2.9-.13.21,0,.48.13.61.29.16.21.26.25.54.26.71.02,1.4.24,1.95.75.08.34.05.83.27,1,.33.26.3.69.7.96.18-.23.37-.45.53-.69.47-.7,1.06-.92,1.81-.47.74-.64.51-1.8,1.36-2.32.06.07.12.11.12.16-.02.41-.17.86-.04,1.21.22.58-.22.91-.3,1.36-.05.26.04.55.06.83l.04-.05c-.31.19-.61.37-.99.6.45.95.34,2.07.8,3.04.14.29.07.57-.03.87-.11.34-.04.79-.23,1.03-.37.46.03.77.07,1.14.02.16-.07.35-.17.49-.17.23-.16.41-.02.65.17.31.26.66.44.96.15.26.09.43-.06.64-.1.14-.22.3-.23.47-.12,1.43-.55,2.79-.91,4.17.18.15.46.28.52.47.24.8.54,1.58.5,2.46-.08,1.45-.07,2.9-.09,4.35-.01.85-.06,1.69-.03,2.54.03,1.04.31,2,1.16,2.71.02.05.04.11.07.16.02.03.07.03.1.04-.07-.05-.15-.1-.22-.14.03-.12.05-.24.1-.35.14-.3.37-.38.53-.19.15.18.26.4.42.58.11.12.28.23.43-.09-.08-.17-.19-.38-.27-.6-.06-.17-.08-.35-.1-.53,0-.04.05-.13.09-.14.1-.02.24-.05.3,0,.47.45.46,1.24,1.15,1.6.14-.09.32-.16.4-.29.34-.57.36-1.17-.08-1.68-.35-.41-.77-.77-1.17-1.13-.57-.5-1.03-1.16-.99-1.86.08-1.55-.44-3.13.24-4.57-.18-.35-.61-.36-.58-.82.17-.32.54-.71.51-1.06-.04-.41-.02-.79,0-1.17-.3-.19-.59-.38-.96-.62.35-.52.66-.96.93-1.42.11-.19.11-.44.16-.67.1-.04.35.06.19-.21-.05.08-.1.17-.15.25-.18,0-.37.04-.54.01-.17-.03-.39-.08-.46-.19-.06-.12-.01-.36.08-.49.29-.39.61-.75.94-1.11.23-.24.3-.46.15-.8-.18-.42.21-.77.26-1.18.83-.26.92-1.29,1.61-1.62.65-.31.41-1.13,1.05-1.41.22-.1.34-.49.45-.76.24-.56.47-1.12.65-1.69.12-.39.14-.82.21-1.25.21.03.37.05.54.07.27-.26.04-.88.68-.92.45-.03.54-.4.59-.78.06-.44-.29-.87-.07-1.45.36.3.62.52.88.74.56-.22,1.15-.39,1.31-1.08.13-.55.71-.62,1.01-.96.02-.07.04-.13.04-.19.04-.65-.12-1.36.63-1.76.11-.06.18-.34.14-.49-.12-.52.17-.93.31-1.39.22-.73.63-1.42.44-2.24-.02-.1,0-.29.08-.34.52-.32.43-.74.26-1.22-.07-.2-.02-.48.05-.69.15-.45.39-.88.53-1.33.16-.51.41-1.07.34-1.57-.14-.99-.47-1.96-.75-3.05-.16.48-.29.88-.43,1.27-.12.35.06.8-.35,1.15-.19-.54-.4-.98-.5-1.44-.19-.87-.08-1.68.59-2.36.42-.42.78-.89,1.2-1.37-.2-.1-.37-.17-.51-.26-.44-.28-.45-.77,0-.96.26-.11.58-.07.87-.12.11-.02.2-.1.36-.17.04-.49.09-1.01.13-1.5.39-.09.68-.14.96-.23.26-.08.3-.54.76-.41.16.48.31,1,.49,1.5.08.21.19.44.5.42.43-.19.52-.84,1.28-.83.49.61,1.21,1.15,1.78,1.87.49.62,1.18.92,2.03.55.22.48.43.9.63,1.32.85-.24.74-1.04,1.02-1.61.68,0,.72.01.93-.24.61-.75,1.22-1.5,1.81-2.22-.21-.47-.43-.91-.58-1.36-.05-.13.04-.38.15-.48.07-.06.4,0,.43.07.18.49.63.52,1.02.66.25-.25.31-.58.04-.79-.95-.74-1.77-1.67-2.89-2.18-.67-.31-1.24-.72-1.75-1.24-.36-.36-.64-.84-1.25-.9-.18-.02-.43-.3-.48-.5-.1-.45-.29-.63-.74-.84-1.07-.48-2.23-.28-3.29-.65-.15-.05-.38-.02-.53.05-1.06.52-2.18.67-3.33.6-.29.3-.52.58-.78.82-.37.33-.69.67-.8,1.18-.16.71-.67.99-1.34.98-.71-.01-1.15.23-1.25,1-.02.17-.29.35-.49.45-.21.11-.47.12-.53.42q.25,1.18-.02,2.32c.28.07.59.07.83.21.28.17.5.45.82.74.4-.66.73-1.22,1.14-1.89.09.61.16,1.12.24,1.73.27-1.15.68-2.16.68-3.26,0-.34.38-.63.75-.68.41-.06.82-.09,1.17-.13.18-.43.31-.76.47-1.08.02-.05.27-.06.29-.02.33.6.18,1.45-.33,1.79-.4.26-.83.47-1.28.72.08.33.2.61.2.9,0,.29-.02.66-.19.85-.81.87-1.49,1.87-2.56,2.48-.56.31-.98.23-1.44-.3q-.99-1.13-1.98-.06c-.07.07-.1.17-.15.26.08.11.13.26.22.29.64.22.76.71.72,1.3-.04.51-.1.59-.78.53-.34-.03-.64.33-1.01.05-.29-.22-.62-.37-.94-.53-.1-.05-.23-.02-.35-.03-.24.18-.48.36-.72.54-.53-.36-.91-.18-1.2.29.23.44.43.87.67,1.29.28.47.6.91.89,1.37.24.38.73.59.8,1.19-.79.11-1.16-.76-1.86-.65-.15.17-.3.35-.41.48-.91,0-.95-1.12-1.68-1.22-.31.1-.28.57-.73.41-.98-.34-1-.33-1.11-1.36-.03-.28-.09-.57-.14-.86-2.44-.19-4.72-.9-6.97-.86-.77.35-1.03,1.18-1.76,1.32-.48-.44.42-.72.06-1.15-.44-.15-.89-.25-1.39-.09-.43.14-.89.2-1.34.27-.1.02-.3-.1-.3-.11.18-.72-.19-.5-.53-.32-.33.18-.58-.12-.85-.12-.34,0-.68.19-1.03.25-.31.05-.58-.06-.78-.34-.29-.41-.68-.5-1.11-.26-.53.3-1.02,0-1.53-.04-.18-.56-.65-.49-1.06-.44-.96.12-1.95.18-2.85.48-1.68.54-3.25,1.34-4.55,2.56-1.24,1.16-2.5,2.3-3.44,3.73-.23.35-.55.65-.84.95-.72.74-1.5,1.42-2.17,2.21-.78.93-1.79,1.38-2.91,1.68-.29.08-.59.14-.88.22-1.24.34-2.49.38-3.74.13-1.67-.33-3.08-1.08-4.01-2.57-.1-.15-.15-.35-.27-.47-.11-.1-.3-.13-.45-.12-.06,0-.11.19-.16.3-.19.47.2.8.33,1.18.38,1.15,1.13,1.84,2.41,1.78.11,0,.22.08.25.09.43.58.82,1.1,1.2,1.62.39-.08.69-.12.98-.21.41-.12.69.29,1.03.25.54-.07,1.03.29,1.58.06.83-.33,1.53-.03,2.11.56.59-.25.78-.92,1.51-1,.56-.06,1.07-.5,1.59-.77.29-.79.53-1.53.84-2.26.24-.55.54-1.07.85-1.59.03-.06.39-.02.44.06.11.2.17.45.17.68,0,1.52-.02,3.03-.02,4.55,0,.85.06,1.68.18,2.53.17,1.25.2,2.5-.15,3.78-.24.86-.86,1.8-.15,2.76.03.04,0,.12,0,.19-.22.35-.44.7-.6.94.09.46.22.81.2,1.15-.04.66-.21,1.31-.26,1.97-.03.5-.16.95-.41,1.38-.27.47-.57.92-.85,1.38-.09.15-.24.39-.19.48.32.5-.02,1.07.16,1.54.24.65.16,1.32.26,1.97.24,1.47.02,3.04.87,4.4.09.15.16.35.15.52-.04,1.02.42,1.87.83,2.75.14.29.11.65.16,1q1.24.22,2.22-.06c-.32-.37-.62-.73-.95-1.11.59-.21.87-.25,1.06-.12.45.29.88.6,1.33.91.24-.12.45-.23.75-.38-.7-.4-.75-1.37-1.64-1.49-.09-.27-.17-.54-.26-.8-.34-.17-.66-.33-.99-.49-.77-.38-1.18-1.06-1.32-1.86-.16-.88,0-1.82-.44-2.66-.05-.09-.03-.25,0-.36.26-.81.41-1.64.37-2.5,0-.17.06-.36.14-.52.29-.6.6-1.15,1.13-1.61.67-.58,1.5-1,1.95-1.82.1-.04.38.07.2-.23-.05.09-.1.19-.15.28ZM106.92,64.14c-.02-.32,0-.56-.06-.79-.07-.27-.3-.33-.56-.3-.27.03-.46.18-.42.45.04.28.14.57.28.81.06.1.32.15.47.11.12-.03.21-.21.29-.29ZM129.4,96.63c-.03-.1-.07-.2-.1-.3-.04.04-.11.08-.11.12.01.1.05.2.09.29.04-.04.08-.08.12-.12Z"/>
    <path d="M74.49,132.02c.27.14.43.21.58.3.2.12.18.37.07.45-.73.53-1.53.69-2.39.32-.13-.06-.3-.27-.28-.39.02-.14.2-.3.35-.37.21-.1.46-.12.69-.18.3-.46.24-.96.14-1.42-.33-1.56-.36-3.11-.01-4.68.06-.29-.18-.62-.49-.66-.42-.06-.85-.06-1.26-.14-.1-.02-.19-.25-.22-.4-.01-.06.15-.22.23-.22.6,0,1.21-.01,1.8.08.55.09.8.5.74,1.07-.05.42-.19.82-.23,1.24-.04.35,0,.71.01,1.13.27-.08.44-.1.59-.18.42-.23.82-.52,1.26-.71.67-.3,1.38.04,1.59.74.1.34.13.71.14,1.07.02.85,0,1.7.02,2.55,0,.44.2.6.69.67.12.02.24,0,.36,0,.4.02.78.28.66.42-.14.18-.35.41-.54.43-.72.06-1.44.06-2.17.04-.4-.01-.49-.38-.2-.76.14-.19.38-.38.38-.58.03-1.09.02-2.18-.02-3.27-.02-.48-.48-.7-.92-.44-.41.25-.8.54-1.16.85-.38.33-.57.77-.52,1.3.04.54.05,1.09.08,1.72Z"/>
    <path d="M92.49,131.71c.25.18.54.37.82.6.06.05.07.23.03.32-.04.09-.18.2-.26.19-.65-.09-1.31-.19-1.95-.31-.08-.02-.18-.15-.2-.25-.02-.09.04-.23.11-.29.14-.11.31-.17.53-.29.34-1.74.44-3.53.31-5.32-.1-.09-.17-.2-.28-.25-.25-.13-.67-.13-.54-.54.04-.14.39-.25.61-.25.48-.02.97.01,1.44.08.12.02.2.24.32.39-.27.2-.5.37-.8.59,0,.51,0,1.05,0,1.59.01.51.27.85.72.89.71.05,1.45.22,2.15-.33v-2.07c-.21-.15-.5-.36-.79-.56-.05-.29.17-.44.39-.45.66-.05,1.32-.06,1.98-.04.09,0,.17.26.27.43-.32.15-.58.28-.85.41-.06.1-.16.2-.16.31-.07,1.75-.06,3.5-.01,5.26.31.18.58.31.82.48.08.05.14.2.13.29,0,.1-.11.25-.19.26-.89.13-1.4.05-2.44-.36q.26-.43.87-.83c.01-.6.11-1.25-.1-1.96-.46-.02-.87-.04-1.28-.04-1.77,0-1.78,0-1.73,1.84,0,.06.04.11.08.23Z"/>
    <path d="M68.31,131.85c.05-1.96-.06-3.75-.43-5.63-.37-.04-.77-.07-1.08-.1-.37.28-.32.6-.33.9-.02.54-.04,1.09-.08,1.63,0,.08-.16.18-.26.21-.1.02-.25,0-.33-.06-.13-.12-.29-.28-.3-.43-.04-.78-.05-1.57-.02-2.35.01-.34.41-.65.76-.65,1.57,0,3.14,0,4.72,0,.59.94.61,1.9.5,2.87-.01.12-.24.28-.37.29-.1,0-.27-.21-.29-.34-.1-.65.05-1.35-.5-1.99h-1.2c-.06.26-.16.49-.15.7.13,1.68-.11,3.4.49,5.1.38,0,.78-.02,1.18,0,.24.01.54.33.46.46-.1.14-.25.33-.39.34-.78.06-1.57.09-2.35.11-.3,0-.61-.03-.9-.1-.17-.04-.33-.15-.47-.26-.07-.06-.11-.21-.1-.31.02-.1.11-.24.19-.26.35-.06.71-.07,1.25-.12Z"/>
    <path d="M119.75,130.5c.38-.52.62-.86.84-1.17.56-.15,1.01-.07,1.41.27.18.15.18.53-.03.61-.5.19-1.08.26-1.26.96.03.58.73.72.95,1.23-.71.54-1.04-.21-1.62-.49-.2.09-.46.23-.73.33-1.51.62-2.85-.23-2.91-1.85-.01-.35.07-.72.18-1.06.11-.34.3-.66.48-1.02-.2-.48-.46-.96-.62-1.48-.33-1.07.52-1.85,1.66-1.63.86.16,1.23.68,1.43,1.46-.12.77-.88,1.11-1.26,1.78.44.61.9,1.24,1.48,2.06ZM117.66,129.12c-.21.5-.35.77-.42,1.05-.1.39.17,1.1.5,1.23.49.19,1.01.27,1.56-.18-.43-.7-.79-1.41-1.63-2.1ZM117.7,127.62c.44-.39.78-.7,1.1-.98-.24-.62-.71-.71-1.18-.82q-.67.63.08,1.8Z"/>
    <path d="M121.42,143.08c-.31-.51-1.14-.22-.98-.81.12-.45.73-.28,1.12-.24.44.04.83.01,1.21-.24.09-.06.23-.08.35-.1.38-.07.71.18,1.04.2.3.02.62-.32.95-.43.13-.04.35.06.48.16.41.31.59.75.61,1.26.03.79.04,1.57.1,2.36.03.35.12.71.24,1.04.24.66.17.81-.54.88-.11.01-.22-.06-.41-.11-.01-.14-.05-.3-.03-.46.04-.29.2-.59.17-.87-.08-1.02-.22-2.03-.35-3.04-.01-.08-.16-.18-.25-.2-.1-.02-.27,0-.32.08-.17.24-.38.49-.42.76-.07.47-.04.96-.05,1.45,0,.73.01,1.45,0,2.18-.01.54-.36.65-1.01.31.49-1.46.29-2.96.23-4.45,0-.24-.38-.42-.54-.26-.26.25-.64.49-.7.79-.19.93-.39,1.87-.27,2.84.02.12.06.23.07.35.09.66-.19.97-.93.97-.11,0-.29-.05-.31-.12-.05-.14-.1-.39-.02-.46.45-.41.55-.9.53-1.47-.03-.84.14-1.68.04-2.35Z"/>
    <path d="M113,146.97c-.31.47-.63.59-.98.31-.27-.22-.48-.51-.71-.75-1.32.68-1.84.78-3.16.67-.52-.04-.98-.23-1.17-.72-.22-.59-.21-1.21.28-1.69.21-.21.47-.41.74-.5.57-.18,1.17-.3,1.76-.42.35-.07.7-.11,1.14-.17-.02-.42,0-.77-.07-1.11-.03-.13-.26-.32-.39-.32-.6.02-1.21.04-1.79.19-.32.08-.56.43-.85.63-.07.05-.25.03-.32-.03-.07-.06-.14-.22-.11-.31.2-.63.6-1.02,1.3-1.07.54-.04,1.08-.12,1.62-.19.62-.07,1.24.35,1.33.95.06.42.06.85.06,1.27q.03,1.88,1.33,3.26ZM110.84,145.72c-.12-.21-.22-.41-.34-.61-.06-.1-.13-.2-.22-.28-.08-.08-.18-.16-.29-.19-.63-.19-1.83.22-2.26.76-.27.33-.1.96.3,1.02,1.01.16,2,.25,2.81-.7Z"/>
    <path d="M145.12,128.37c-.41-.24-.66-.39-.92-.54.08-.16.1-.3.17-.33.27-.12.56-.25.85-.28,1.02-.11,1.44.05,1.35,1.29-.05.72-.03,1.45-.09,2.18-.06.72.18,1.29.76,1.68-.19.41-.45.53-.74.29-.31-.27-.56-.61-.9-.99-.1.09-.28.23-.43.38-.79.81-1.76.69-2.71.46-.21-.05-.42-.26-.53-.45-.31-.53-.46-1.11-.45-1.73.02-.85,0-1.69,0-2.55-.2-.14-.43-.25-.57-.42-.07-.09-.07-.39,0-.44.45-.3,1.09-.11,1.19.34.08.35.11.71.12,1.07.01.79-.02,1.57,0,2.36,0,.5.13,1,.68,1.17.83.26,1.57.03,1.91-.61.16-.31.28-.67.31-1.02.05-.6.01-1.2.01-1.85Z"/>
    <path d="M159.63,127.77c.47-.53.37-1.04.39-1.51.03-1.15-.12-1.27-1.42-1.18-.09,0-.19-.06-.29-.09.09-.13.16-.29.28-.39.08-.07.23-.06.35-.07,1.55-.1,1.84.16,1.8,1.7,0,.36-.01.73-.1,1.08-.32,1.32-.2,2.65-.2,3.98,0,.66.27.8,1.1.72.1,0,.25.03.29.1.05.09.04.25-.01.33-.17.28-.44.48-.75.4-.52-.13-1.01-.43-1.53-.49-.46-.06-.95.17-1.42.17-1.06.02-1.48-.39-1.8-1.41-.34-1.07-.09-2.03.34-2.99.32-.72,1.24-1.29,2.11-.77.25.15.53.26.87.42ZM159.66,128.63c-.52-.27-.92-.54-1.37-.7-.18-.07-.53,0-.65.14-.55.59-.85,1.32-.79,2.13.11,1.31.62,1.85,2.01,1.52.28-.07.53-.23.8-.35v-2.74Z"/>
    <path d="M130.47,126.31c-.32.23-.56.41-.84.61-.02.14-.09.32-.08.49.06.94.22,1.11,1.03,1.14.54.02,1.07,0,1.68,0,.24-.71.08-1.36.1-1.97-.21-.14-.37-.22-.5-.34-.07-.07-.13-.21-.11-.31.02-.09.14-.21.22-.22.59-.1,1.19-.19,1.76.05.13.73-.64.41-.76.66.09,1.79.17,3.47.25,5.21.1.08.25.17.37.3.21.22.18.53-.04.57-.47.09-.94.24-1.41,0q.56-1.35.47-2.92c-.2-.29-.51-.29-.81-.3-.6-.01-1.2,0-1.87,0-.25.91-.13,1.8-.1,2.69.23.15.43.28.63.41-.59.63-.96.65-1.99.12.22-.31.23-.31.44-.43.05-.11.14-.21.14-.32,0-1.57,0-3.15,0-4.77-.35-.23-.69-.45-1.02-.67.22-.52.62-.6,1.05-.6.48,0,.99-.08,1.37.6Z"/>
    <path d="M102.97,146.54c.38.14.7.26,1.02.38-.07.17-.1.34-.17.37-.94.29-1.89.26-2.85.09-.08-.01-.21-.18-.2-.26.02-.15.1-.36.21-.42.31-.16.66-.24,1.01-.36.48-1.76-.37-3.44-.17-5.1-.23-.14-.32-.21-.43-.25-.34-.16-1.02.12-.95-.52.04-.41.59-.23.93-.24,1.21-.02,2.42-.02,3.62-.03.42,0,.83,0,1.19,0,.44.57.33,1.1.21,1.63-.02.07-.18.15-.27.15-.09,0-.24-.09-.27-.17-.1-.27-.16-.56-.25-.91-1.02.04-1.97.08-2.99.13-.04.31-.1.54-.1.76.01.48.04.97.12,1.44.02.12.25.23.41.28.08.03.26-.06.3-.14.14-.25.23-.53.39-.92.12.2.22.31.25.44.13.52.25,1.05.35,1.58.05.3.11.71-.19.81-.35.13-.49-.23-.54-.54-.01-.06-.01-.15-.05-.17-.14-.09-.28-.18-.44-.21-.06,0-.2.15-.21.24-.09.65-.13,1.31.06,1.93Z"/>
    <path d="M149.79,127.82c-.41-.47-1.1.23-1.32-.58.47-.21.99-.28,1.6-.36.22.29.47.61.77,1,.28-.19.55-.42.86-.59.85-.47,1.72-.2,2.16.63.23.44.37.89.37,1.39,0,.73,0,1.46,0,2.18,0,.32.12.56.39.77.18.13.06.44-.15.52-.73.27-.94.22-1.96-.5.31-.2.6-.39.98-.64,0-.72.02-1.5-.01-2.29-.01-.29-.11-.59-.22-.87-.26-.69-.87-.87-1.45-.46-.25.18-.47.38-.7.58-.59.49-.96,1.08-.87,1.89.04.36,0,.73,0,.99.26.68,1.14.26,1.33,1.02-.7.13-1.39.26-2.09.37-.12.02-.25.01-.36-.03-.1-.04-.22-.12-.25-.21-.03-.09,0-.27.06-.31.31-.21.59-.43.57-.85-.04-.97.06-1.93.29-2.88.06-.28,0-.58-.02-.77Z"/>
    <path d="M80.53,130.11c-.28.73,0,1.21.31,1.65.28.42.72.66,1.19.76.27.06.61-.01.86-.14.48-.23.92-.55,1.39-.81.07-.04.25.01.31.08.07.07.11.25.07.32-.74,1.22-2.26,1.7-3.44,1.09-1.4-.72-1.97-2.11-1.39-3.47.16-.38.41-.73.64-1.08.34-.52.76-.95,1.42-1,.79-.06,1.63-.12,2.24.45.47.44.81,1.04,1.17,1.59.05.07-.12.41-.2.42-1.02.07-2.04.11-3.06.14-.48.02-.95,0-1.5,0ZM81.09,129.28c.74.03,1.33.08,1.92.08.29,0,.58-.07.88-.11.03-.72-.51-.82-.93-.92-.75-.19-1.43-.09-1.87.95Z"/>
    <path d="M109.42,131.31c.58.37,1.41.1,1.44,1.08-.4-.05-.74-.13-1.08-.11-.35.02-.7.19-1.05.2-.2,0-.4-.18-.6-.28.51-.97.53-.97.52-1.74,0-.72-.03-1.45-.09-2.16-.03-.35-.52-.59-.85-.43-.88.42-1.42,1.1-1.52,2.08-.04.42,0,.84,0,1.3.34.23.68.46,1.05.71-1.29.59-1.62.66-2.4.47-.15-.04-.33-.19-.38-.33-.03-.09.14-.29.26-.37.19-.13.43-.19.74-.32.07-1.11.07-2.24,0-3.41-.34-.1-.62-.17-.89-.28-.08-.03-.11-.18-.14-.29-.01-.04.02-.12.06-.14.45-.26.94-.18,1.4-.05.19.06.31.34.48.55.79-.34,1.52-1.06,2.57-.5.75,1.22.28,2.66.5,4.04Z"/>
    <path d="M99.29,130.13c-.1.67.34.96.74,1.2.29.17.69.23,1.03.2.35-.03.67-.26,1.02-.34.21-.05.44,0,.75.02-.4.77-.99,1.02-1.69,1.08-.69.06-1.33-.02-1.84-.55-.04-.04-.09-.08-.13-.12-1.25-1.31-1.16-2.11-.31-3.56.3-.52.75-.96,1.36-1.19,1.3.16,2.41.67,3.19,1.79.21.3.09.8-.23.93-.11.05-.22.08-.34.11-.88.23-1.77.38-2.68.35-.29-.01-.59.05-.86.08ZM102.43,128.8c-.4-.75-1.11-.92-1.8-1.11-.1-.03-.25-.02-.33.03-.24.16-.5.32-.68.54-.2.25-.5.53-.16,1.01.99.04,2.03.21,2.98-.47Z"/>
    <path d="M116.5,142.6c.46-.25.91-.53,1.39-.76.56-.26,1.04-.11,1.43.4.32.42.42.87.21,1.35-.04.09-.18.17-.28.19-.1.02-.24-.01-.33-.08-.29-.21-.17-.53-.2-.82-.03-.32-.45-.53-.69-.35-.48.36-.96.74-1.39,1.15-.15.15-.23.43-.24.66-.02.48,0,.97.07,1.45.05.38.27.67.71.69.37.02.73.07.88.5-.42.42-.96.48-1.51.47-.78,0-1.58.08-2.26-.44.16-.67.77-.43,1.17-.63.06-.1.18-.2.18-.3.01-.91.02-1.81,0-2.72,0-.6-.19-.77-.9-.89-.28-.05-.6.04-.79-.3.43-.63,1.08-.38,1.64-.39.5,0,.67.45.91.8Z"/>
    <path d="M135.23,130.21c.07-.41.08-.85.22-1.23.42-1.13,1.4-1.68,2.58-1.47.47.08.94.24,1.38.43.98.42,1.35,1.27,1.08,2.37-.47,1.88-2.38,2.79-4.07,1.96-.88-.43-1.23-1.11-1.18-2.06ZM136,130.18c-.19,1.55,1.56,1.98,2.47,1.5.31-.16.59-.4.85-.65.49-.46.49-1.08.39-1.68-.1-.56-.55-.73-1.05-.82-.23-.04-.44-.19-.67-.25-.92-.26-1.84.37-1.97,1.32-.02.18-.02.36-.03.59Z"/>
    <path class="cls-4" d="M123.97,97.24c-.05.22-.05.48-.16.67-.27.46-.58.9-.93,1.42.36.23.66.42.96.62-.03.38-.05.77,0,1.17.03.35-.34.74-.51,1.06-.04.46.4.47.58.82-.68,1.44-.16,3.02-.24,4.57-.04.71.43,1.36.99,1.86.41.36.82.72,1.17,1.13.44.52.43,1.11.08,1.68-.08.13-.27.2-.4.29-.69-.36-.68-1.15-1.15-1.6-.05-.05-.2-.02-.3,0-.04,0-.1.09-.09.14.02.18.04.36.1.53.08.22.19.43.27.6-.16.32-.32.21-.43.09-.16-.18-.27-.4-.42-.58-.15-.19-.38-.11-.53.19-.05.11-.07.23-.1.35l.05-.05c-.85-.7-1.13-1.66-1.16-2.71-.03-.84.02-1.69.03-2.54.02-1.45.01-2.9.09-4.35.05-.88-.25-1.66-.5-2.46-.06-.19-.34-.31-.52-.47.37-1.38.79-2.74.91-4.17.01-.16.13-.33.23-.47.15-.21.21-.38.06-.64-.18-.3-.27-.66-.44-.96-.13-.24-.15-.42.02-.65.1-.14.19-.33.17-.49-.04-.38-.44-.68-.07-1.14.2-.25.12-.7.23-1.03.1-.3.16-.58.03-.87-.46-.98-.35-2.09-.8-3.04.37-.23.68-.41.99-.6.05.57-.16,1.21.52,1.6.06.04-.08.42-.11.65-.06.48.06.59.61.54.1,0,.2,0,.3,0-.19,1.04-.47,2.05-.92,3.01-.13.28.15.39.46.33.17-.35.28-.77.53-1.09.66-.86.84-1.83.83-2.87,0-.48-.03-.51-.8-.72l.04.04c0-.29.02-.58,0-.86-.02-.16-.1-.41-.2-.44-.73-.21-.45-.83-.56-1.28.54-.24.51-.77.74-1.35-.71.37-.76.86-.7,1.38-.25.04-.35.22-.38.45-.04.27-.09.54-.39.65-.02-.28-.11-.57-.06-.83.08-.45.52-.78.3-1.36-.13-.35.03-.8.04-1.21,0-.04-.07-.09-.12-.16-.85.53-.62,1.69-1.36,2.32-.75-.46-1.34-.23-1.81.47-.16.24-.35.46-.53.69-.4-.26-.37-.7-.7-.96-.22-.17-.19-.66-.27-1-.55-.51-1.23-.72-1.95-.75-.28,0-.38-.05-.54-.26-.13-.16-.4-.3-.61-.29-.97.01-1.93.06-2.9.13-.22.01-.43.14-.7.24-.52-.84-1.04-1.64-1.2-2.61-.76-.57-1.51-1.14-2.31-1.75-.97.37-1.55,1.55-2.7,1.45-.64.81-1.21,1.58-1.82,2.3-.39.46-.78.9-1.03,1.46-.14.31-.47.53-.72.78-.13.13-.38.22-.39.35-.09,1.12-1.17,1.28-1.88,1.96-.18.84-.42,1.77-.59,2.72-.18,1.04-.57,1.96-1.38,2.71-.24-.14-.48-.29-.79-.48-.56.26-1.15.53-1.76.81-.29-.12-.32-.36-.1-.52.48-.35,1.01-.64,1.53-.96-.37-.36-.74-.23-1.07-.12-.4.14-.86.31-.99.74-.32.99-1.01,1.78-1.4,2.72-.08.18.02.44.05.77.69-.4,1.29-.69,1.83-1.07.44-.31.89-.34,1.38-.29l-.05-.05c-.45.82-1.28,1.24-1.95,1.82-.53.46-.85,1.01-1.13,1.61-.08.16-.15.35-.14.52.04.86-.1,1.68-.37,2.5-.04.11-.05.26,0,.36.45.84.27,1.78.44,2.66.15.8.56,1.47,1.32,1.86.32.16.65.32.99.49.08.26.17.53.26.8.89.12.94,1.08,1.64,1.49-.3.15-.51.26-.75.38-.45-.31-.89-.62-1.33-.91-.2-.13-.47-.09-1.06.12.33.38.63.74.95,1.11q-.98.28-2.22.06c-.05-.35-.02-.72-.16-1-.42-.88-.87-1.73-.83-2.75,0-.17-.06-.37-.15-.52-.84-1.36-.63-2.92-.87-4.4-.11-.65-.03-1.31-.26-1.97-.17-.47.17-1.03-.16-1.54-.05-.08.1-.33.19-.48.28-.46.58-.91.85-1.38.24-.42.37-.88.41-1.38.04-.66.22-1.31.26-1.97.02-.34-.11-.68-.2-1.15.16-.25.38-.6.6-.94,0-.07.03-.15,0-.19-.71-.95-.09-1.9.15-2.76.35-1.28.32-2.53.15-3.78-.11-.85-.18-1.68-.18-2.53,0-1.52.02-3.03.02-4.55,0-.23-.06-.48-.17-.68-.05-.08-.41-.11-.44-.06-.31.51-.62,1.04-.85,1.59-.31.72-.55,1.47-.84,2.26-.52.27-1.03.71-1.59.77-.73.08-.93.75-1.51,1-.58-.59-1.28-.89-2.11-.56-.55.22-1.05-.14-1.58-.06-.34.05-.62-.37-1.03-.25-.29.09-.59.13-.98.21-.38-.52-.77-1.03-1.2-1.62-.03-.01-.14-.1-.25-.09-1.29.05-2.03-.63-2.41-1.78-.13-.39-.52-.71-.33-1.18.04-.11.1-.3.16-.3.15,0,.35.03.45.12.13.11.18.31.27.47.93,1.49,2.34,2.23,4.01,2.57,1.26.25,2.51.21,3.74-.13.29-.08.59-.15.88-.22,1.12-.3,2.13-.76,2.91-1.68.66-.79,1.45-1.47,2.17-2.21.3-.3.61-.6.84-.95.94-1.44,2.2-2.57,3.44-3.73,1.31-1.22,2.88-2.02,4.55-2.56.91-.29,1.9-.36,2.85-.48.4-.05.88-.11,1.06.44.51.04,1,.34,1.53.04.43-.24.83-.15,1.11.26.2.28.47.39.78.34.35-.06.68-.24,1.03-.25.27,0,.53.29.85.12.34-.19.71-.4.53.32,0,.01.2.12.3.11.45-.07.91-.14,1.34-.27.5-.16.95-.06,1.39.09.36.43-.54.71-.06,1.15.73-.15.98-.98,1.76-1.32,2.25-.05,4.53.66,6.97.86.05.29.11.57.14.86.11,1.03.13,1.02,1.11,1.36.46.16.42-.31.73-.41.73.1.77,1.23,1.68,1.22.12-.13.26-.31.41-.48.69-.11,1.06.76,1.86.65-.07-.6-.56-.81-.8-1.19-.29-.46-.61-.9-.89-1.37-.24-.41-.45-.85-.67-1.29.29-.47.67-.65,1.2-.29.24-.18.48-.36.72-.54.12,0,.25-.02.35.03.32.16.66.31.94.53.37.28.67-.08,1.01-.05.68.06.75-.02.78-.53.04-.6-.07-1.08-.72-1.3-.09-.03-.14-.19-.22-.29.05-.08.09-.18.15-.26q.99-1.07,1.98.06c.46.52.88.61,1.44.3,1.07-.6,1.75-1.61,2.56-2.48.17-.19.2-.56.19-.85,0-.29-.12-.57-.2-.9.45-.25.88-.46,1.28-.72.51-.34.66-1.18.33-1.79-.02-.04-.27-.03-.29.02-.16.32-.29.65-.47,1.08-.35.04-.76.08-1.17.13-.37.05-.74.34-.75.68,0,1.1-.41,2.11-.68,3.26-.09-.61-.16-1.12-.24-1.73-.4.67-.74,1.23-1.14,1.89-.32-.29-.53-.57-.82-.74-.24-.14-.55-.15-.83-.21q.27-1.14.02-2.32c.06-.3.32-.31.53-.42.19-.1.46-.28.49-.45.11-.77.54-1.01,1.25-1,.67.01,1.18-.27,1.34-.98.11-.51.43-.85.8-1.18.27-.24.5-.52.78-.82,1.15.07,2.28-.08,3.33-.6.15-.07.38-.1.53-.05,1.06.37,2.22.17,3.29.65.46.2.65.38.74.84.04.2.3.48.48.5.62.06.89.53,1.25.9.51.51,1.08.93,1.75,1.24,1.11.51,1.93,1.44,2.89,2.18.27.21.21.54-.04.79-.39-.14-.84-.17-1.02-.66-.03-.07-.36-.14-.43-.07-.11.1-.2.34-.15.48.16.45.37.89.58,1.36-.58.72-1.19,1.47-1.81,2.22-.21.25-.25.25-.93.24-.27.57-.17,1.36-1.02,1.61-.2-.42-.4-.85-.63-1.32-.86.37-1.54.07-2.03-.55-.57-.72-1.29-1.26-1.78-1.87-.75,0-.84.64-1.28.83-.3.02-.42-.21-.5-.42-.18-.51-.34-1.02-.49-1.5-.46-.13-.5.33-.76.41-.28.09-.58.14-.96.23-.04.49-.09,1.01-.13,1.5-.15.08-.25.16-.36.17-.29.05-.61.01-.87.12-.46.19-.44.68,0,.96.14.09.31.16.51.26-.41.48-.78.95-1.2,1.37-.67.68-.78,1.49-.59,2.36.1.46.31.9.5,1.44.4-.35.23-.8.35-1.15.14-.39.26-.79.43-1.27.28,1.08.61,2.05.75,3.05.07.5-.18,1.05-.34,1.57-.14.45-.38.88-.53,1.33-.07.22-.12.49-.05.69.17.48.26.89-.26,1.22-.07.04-.1.23-.08.34.19.82-.22,1.51-.44,2.24-.14.45-.43.86-.31,1.39.04.15-.03.43-.14.49-.76.41-.59,1.12-.63,1.76,0,.06-.03.12-.04.19-.3.34-.88.42-1.01.96-.16.69-.76.86-1.31,1.08-.26-.22-.53-.44-.88-.74-.22.58.13,1.01.07,1.45-.06.38-.15.76-.59.78-.64.04-.41.66-.68.92-.17-.02-.34-.04-.54-.07-.07.43-.09.85-.21,1.25-.18.58-.41,1.14-.65,1.69-.12.28-.23.67-.45.76-.64.28-.4,1.1-1.05,1.41-.68.33-.77,1.36-1.61,1.62-.05.4-.44.76-.26,1.18.15.34.07.55-.15.8-.33.36-.65.72-.94,1.11-.09.12-.14.37-.08.49.06.12.29.17.46.19.18.03.36,0,.54-.01,0,0-.04-.04-.04-.04ZM114.15,76.83l.05.05c-.02-.11-.02-.24-.08-.33-.09-.12-.22-.28-.35-.29-.1,0-.24.16-.33.28-.12.16.04.46-.26.53-.17-.07-.33-.13-.48-.19,0-.36,0-.73.02-1.09.01-.39-.19-.67-.45-.95-.33-.35-.65.2-1.01-.05,0-.51-.06-1.05.02-1.58.09-.59-.44-.62-.68-.91.1-.52.23-1.05.3-1.58.02-.12-.14-.29-.26-.39-.06-.05-.26,0-.33.07-.25.26-.47.55-.7.83-.26-.35-.53-.73-.79-1.09.08-.4.43-.79-.08-1.18-.32.25-.65.48-.95.75-.31.28-.61.58-.87.92-.23.31-.39.67-.58,1-.42-.67-.8-1.28-1.19-1.91.05-.21.1-.45.15-.67-.39-.26-.77-.53-1.15-.78-.61.34-.91.79-.92,1.48,0,.61.1,1.25-.18,1.96-.37-.86.07-1.69-.37-2.44-.24.04-.48.08-.72.12-.08-.32-.18-.66-.27-1.01-.47-.03-.67-.3-.75-.75-.02-.09-.39-.24-.42-.2-.35.4-.95.25-1.29.55-.4.35-.8.74-.99,1.28-.08.23-.2.44-.33.64-.06.1-.22.25-.26.23-.49-.25-.76.13-1.09.36-.5-.21-.76.04-.93.48-.06.17-.14.34-.24.48-.24.33-.5.64-.75.96-.1-.16-.2-.31-.3-.46-.03-.04-.09-.07-.14-.09-.24-.07-.39.17-.4.67,0,.55,0,1.09,0,1.64,0,.29.16.43.49.43.28-.26.56-.59.9-.83.65-.46,1.24-.94,1.49-1.74.08-.26.33-.33.59-.33.29,0,.43-.18.55-.4.14-.26.28-.53.52-.96.06.64.07,1.1.14,1.55.09.5.71.67,1.08.28.17-.18.3-.35.56-.37.56-.04.53-.57.73-.92.1.38.19.75.29,1.11.72-.15.63-.96,1.26-1.21.05.36.07.7.16,1.02.1.34.29.65.46,1.03.56-.32,1.06-.59,1.55-.89.12-.08.18-.25.29-.4q.34.94,1.77,1.57c.28-.48.73-.46,1.19-.4.61.84,1.35.48,2,.25,1.18.54.39,1.7.93,2.59.58.38,1.27.84,1.97,1.3.08.59-.63,1.08-.18,1.81.37.1.81.21,1.29.34.43-.7.83-1.34,1.22-1.97.18.09.29.15.4.19.31.09.63.09.78-.23.13-.27-.08-.41-.33-.51-.27-.1-.28-.36-.3-.6-.03-.34-.07-.68-.13-1.26-.29.36-.49.51-.57.71-.21.54-.22,1.18-.8,1.53ZM131.68,75.73c-.82.18-.91.26-.67.87.15.4.4.76.12,1.19-.21-.28-.41-.57-.64-.83-.14-.17-.55-.11-.62.09-.21.59-.4,1.18-.66,1.97-.13-.73-.13-1.3-.34-1.77-.23-.52-.64-.96-.97-1.43-.5.29-.6.71-.61,1.14-.04.94-.65,1.52-1.29,2.08-.06.05-.23-.02-.41-.04-.03-.28-.08-.57-.09-.87-.02-.37-.06-.74-.34-1-.11-.1-.3-.14-.46-.15-.08,0-.22.14-.23.23-.05.42-.05.84-.11,1.26-.04.34-.28.53-.62.55-.23.01-.45-.04-.75-.07-.05-.48-.1-.9-.15-1.31-.04-.32-.15-.57-.53-.59-.37.39-.74.78-1.11,1.18-.78-.03-1.18.68-1.79,1.02-.24-.58-.71-.53-1.11-.58-.39-.05-.79-.06-1.21-.09-.36.31-.73.62-1.1.93-.38.33-.93.45-1.27.9.54.1.54.1,1.08-.11.09.27.12.59.29.79.22.27.54.44.82.66.15-.13.33-.41.51-.42.88-.02,1.45-.53,2.01-1.1.24-.24.49-.48.66-.64.43.11.73.15,1,.26.24.1.38.29.21.57-.03.05-.09.1-.09.16,0,.16-.06.39.02.47.09.08.35.08.47,0,.45-.3.85-.68,1.3-.98.41-.26.87-.41,1.34-.1.09.9-.79,1.34-.96,2.13.19.33.44.65.59,1.02.13.33.37.46.67.53.34.08.69.13,1.1.2.2,1.2.3,2.32-.1,3.44-.06.16-.11.34-.11.51,0,.07.14.16.23.21.04.03.12.02.18,0,.05-.02.11-.06.14-.11.2-.37.41-.74.57-1.13.19-.48.73-.38,1.02-.67.12-.12.21-.3.25-.47.07-.29.09-.59.14-1,.93.07,1.31-.45,1.41-1.29.02-.17.2-.32.21-.49.01-.13-.09-.3-.19-.41-.03-.04-.23.03-.32.1-.39.27-.43.7-.49,1.12-.02.1-.12.2-.19.3-.34.07-.69.13-1.03.2-.12.37-.22.71-.34,1.1-.19-.12-.44-.2-.46-.3-.08-.75-.25-1.43-.95-1.86-.28-.18.03-.45-.02-.61-.09-.26-.38-.45-.52-.71-.08-.14-.08-.38-.01-.52.22-.47.25-1.08.8-1.34.91.21,1.01.17,1.28-.5.18-.44.35-.89.55-1.41.21.52.25,1.01.69,1.31.43.3.49.99,1.12,1.1.64-.49.47-1.31.79-1.92.74.31.31,1.13.74,1.61.53-.08.64-.92,1.29-.8.04,0,.11-.07.13-.12.29-.89.89-1.74.33-2.74-.38-.68-.76-1.37-1.09-1.98.08-.84.16-1.62.22-2.4,0-.08-.12-.22-.21-.24-.09-.02-.28.02-.32.1-.7,1.3-1,2.6.15,3.83l.06-.05ZM116.91,75.98s.1.1.15.1c.61-.03,1.27-.53,1.81.2.03.04.28.02.3-.03.23-.57,1.01-.34,1.28-.92.15-.32.52-.27.73.02.18.24.32.5.47.74.3-.02.46-.14.48-.44.08-.85-.04-1.73.23-2.63.21.27.32.57.51.62.47.12.9.38,1.36.48.06-.1.12-.15.12-.2,0-.36.07-.73-.01-1.07-.09-.34-.49-.28-.77-.38-.27-.1-.32-.32-.36-.57-.05-.37-.29-.5-.64-.46-.34.04-.56.26-.63.57-.1.41-.1.84-.19,1.25-.05.22-.2.41-.32.65-.93-.67-.45-1.72-.8-2.45-.42-.06-.64.11-.83.37-.19.26.02.72-.42.87-.4-.38-.79-.74-1.2-1.13.5-.9.99-1.73,1.43-2.58.06-.11-.04-.33-.12-.47-.03-.05-.28-.05-.32,0-.45.63-.99.04-1.47.11-.24.42-.47.82-.7,1.23-.23-.18-.38-.36-.58-.43-.07-.02-.27.21-.34.36-.1.21-.13.45-.28.99-.12-.82-.19-1.33-.28-1.93-.24.13-.49.18-.5.27-.11.83-.17,1.66-.25,2.46-1.04.25-1.05.24-1.32-.45-.14-.36-.31-.71-.58-1.05-.7,1.05-.56,2.15-.47,3.23,0,.11.26.26.41.27.23.02.52.02.7-.1.71-.47,1.54-.6,2.27-.76.1-.2.17-.3.2-.41.05-.18.05-.36.1-.54.05-.17.1-.35.19-.51.11-.18.06-.51.45-.45.15.02.32-.07.48-.13.19-.07.29-.42.6-.15,0,.16.06.37-.01.51-.33.68-.18,1.12.5,1.48.34.18.45.83.15,1.12-.61.58-.72,1.51-1.44,2.01-.07.05-.06.21-.08.32ZM105.93,77.06c-.3-.19-.57-.43-.9-.54-.16-.05-.4.2-.6.2-.21,0-.42-.16-.72-.28-.1.5-.19.9-.27,1.3-.33-.05-.68-.28-.97.1-.29.37-.59.74-.9,1.12-.23,0-.46-.37-.77-.13-.14.4-.28.79-.42,1.18-.13.38-.08.87-.62,1.07-.04-.16-.12-.32-.11-.47.1-.9.25-1.79.64-2.61.1-.22.24-.42.33-.64.04-.09.02-.25-.04-.32-.06-.07-.23-.14-.31-.1-.33.13-.64.3-.97.46-.2,1.3-.54,2.53-.17,3.8.07.22.02.48,0,.72-.02.31-.28.49-.71.59-.45.1-.89.24-1.32.36q.07.98,1.46,1.96c.31-.33.61-.68.94-1,.34-.33.69-.65,1.01-.94.08-.65.15-1.24.22-1.88.19.22.33.38.41.48.97.03,1.03-.94,1.63-1.35.57-.38.94-1.04,1.41-1.6.15.03.38.07.63.11.16-.35.3-.67.45-1.01,1.12.2,1.62-.6,2.29-1.38-.91-.27-1.09.69-1.67.8ZM132.49,69.27c-.51-.33-.61-.97-1.28-.75-.3.1-.54-.18-.68-.47-.12-.25-.19-.57-.59-.55-.08.28-.17.55-.26.84-.22-.21-.43-.4-.64-.6-.36.2-.67.37-1.01.56.07.95.55,1.71,1,2.47.04.06.19.06.33.1.05-.41.11-.81.16-1.18.4.12.79.15,1.07.34.27.19.39.6.66.8.22.16.56.17.82.24.27-.37.54-.68.74-1.03.21-.36.37-.75.52-1.14.03-.08-.06-.3-.09-.3-.16.01-.34.03-.45.13-.13.11-.19.3-.32.54ZM146.25,59.05c-.8,0-1.49-.16-2.09.01-.78.22-1.49.69-2.26,1.07-.25-.21-.5-.57-.79-.62-.6-.1-1.19.04-1.59.59-.14.19-.04.47.19.57.22.1.49-.28.62.02.25.6.77.64,1.28.74.84-1.12,1.93-1.76,3.35-1.77.29,0,.6-.04.88-.13.12-.04.2-.23.4-.49ZM147.55,63.53c.05-.71.06-1.12.12-1.53.06-.39.18-.77.29-1.25-.97-.09-1.85.15-2.73.13-.29,0-.59.1-.87.19-.09.03-.15.17-.24.26.38.25.71.53.92.96.07.13.28.2.39.27.56-.08.91-.7,1.59-.43.13.34.28.72.53,1.39ZM139.08,58.62c1.01-.22.91-1.05,1.16-1.63-.42-.54-.44-.6-.4-1.21-1.98-.04-2.22,0-2.95.58,1.04-.18,1.57.66,2.42,1.02-.07.38-.14.76-.23,1.24ZM141.53,56.64c-.02.21-.05.44-.05.67,0,.18.03.35.06.53.06.3.32.52.64.47.28-.04.56-.15.82-.27.23-.11.36-.34.28-.58-.05-.15-.2-.32-.34-.37-.2-.07-.44,0-.65-.07-.25-.08-.34-.48-.77-.37Z"/>
    <path class="cls-4" d="M115.61,48.79c-.07.09-.14.25-.22.26-.94.12-1.89.4-2.8-.18-.07-.05-.22.03-.4.06,0,1.07.82,1.47,1.55,1.91.2.4.4.78.59,1.15.4.79.34,1.51-.31,2.15-.21.21-.4.45-.55.63-.07.47.3.54.53.77-.13.19-.31.36-.38.57-.29.92-.88,1.54-1.78,1.9-.47.19-.79.51-.76,1.08,0,.08-.09.22-.17.25-.69.23-1.03.83-1.38,1.38-.34.52-.77.93-1.29,1.24-.55.33-1.19.46-1.71.1-.39-.26-.69-.4-1.12-.2-.1.05-.24.03-.36.03-.46-.01-.64-.31-.55-.84.03-.16.04-.39-.05-.47-.1-.09-.32-.06-.49-.06-.05,0-.11.04-.17.07-1.16.42-1.47.24-1.66-.96-.03-.16-.07-.32-.11-.47-.27.06-.5.11-.81.19-.33-1.1-.2-2.3-.87-3.25l-.03.03c.32-.17.63-.34.94-.51.24-.7.12-1.45.49-2.1.35-.62.57-1.3.89-2.04,1.46.37,2.95.28,4.45.27.92,0,1.63-.33,2.17-1.07.32-.44.66-.86.99-1.28.67-.86,1.36-1.7,2.37-2.19.25-.12.58-.2.85-.16.35.06.67.27.72.7-.2.11-.41.2-.6.33-.06.04-.08.24-.04.27.07.06.21.09.3.06.37-.12.27-.44.28-.71.49.42.86.99,1.53,1.17l-.05-.06ZM108.35,60.85c-.39-.08-.7.03-.89.39-.02.04-.02.11,0,.14.03.04.1.08.15.07.34-.08.68-.18.72-.62.14-.03.43.04.17-.26-.05.09-.1.18-.16.27ZM103.23,55.4c0-.19,0-.38-.26-.18.1.05.2.1.3.14-.02.29-.05.59.3.7.09.03.24,0,.3-.05.06-.06.08-.21.05-.3-.12-.33-.38-.38-.69-.31ZM106.55,57.59c-.24.01-.52-.06-.71.05-.86.45-1.64.1-2.42-.19-.27-.1-.47-.36-.71-.55-.37.4-.54-.15-.81-.19-.09.36-.17.71.12,1.11.47.23,1,.5,1.43.71.71-.13,1.31-.19,1.88-.35.43-.12.96-.12,1.18-.64.36-.23.56-.55.57-.99-.29-.11-.57-.2-.84-.32-.24-.1-.33-.5-.72-.34-.12.31-.1.6.18.79.19.13.48.13.64.29.14.14.16.41.24.62ZM109.96,56.53c-.73.67-1.49,1.26-2.59,1.21-.43-.02-.55.72-.26,1.25.63-.3,1.28-.58,1.89-.9.36-.19.71-.44,1.02-.71.26-.23.21-.53-.07-.85ZM106.38,54.03c.27-.25.51-.42.7-.64.11-.12.19-.33-.02-.46-.09-.05-.25-.08-.33-.04-.27.13-.52.3-.84.49.17.23.3.41.49.65ZM112.53,55.42c-.23.32-.67.47-.34,1.04.24-.3.65-.46.34-1.04ZM104.03,54.39c-.18-.19-.27-.33-.39-.39-.07-.04-.2.05-.3.08.05.15.06.34.16.42.07.06.27-.05.53-.11Z"/>
    <path class="cls-4" d="M128.75,108.89c-.55.09-.94-.1-1.14-.64-.21-.57-.29-1.16-.29-1.77,0-2-.07-3.99-.05-5.99.01-1.52-.26-3.01-.49-4.49-.13-.85-.38-1.65.11-2.45-.08-.99.23-1.77,1.22-2.16.37-.71,1.08-1.32.75-2.27-.01-.03.07-.09.12-.16.22.03.45.06.68.09.24-.31.11-.84.64-1.03.13-.05.19-.42.21-.64.1-1,.91-1.14,1.64-1.37.04-.01.18.14.2.23.02.11,0,.25-.06.34-.13.2-.29.39-.43.58-.34.44-.6.9-.56,1.49.04.64-.29,1.17-.57,1.7-.29.54-.52,1.08-.47,1.71.05.6-.27,1.03-.69,1.41-.49.45-.86.96-1.14,1.6-.27.62-.01,1.27-.31,1.86-.03.06.29.31.51.53-.07.51-.73.66-.92,1.14.03.11.04.3.1.31.59.15.83.66,1.24,1.17.04.86.17,1.8-.13,2.76-.17.56-.14,1.2-.13,1.8.01.62.29,1.15.75,1.59.65.63,1.3,1.27,1.89,1.95.17.2.18.54.25.83,0,.03-.07.1-.12.13-.04.02-.13.03-.15,0-.18-.23-.34-.47-.53-.7-.19-.22-.4-.42-.6-.63-.03-.03-.12-.03-.18,0-.05.02-.13.1-.12.13.12.33.23.67.38.99.1.22,0,.34-.14.45-.18.13-.57.05-.63-.13-.05-.16-.07-.34-.09-.52-.06-.38-.24-.67-.67-.87-.04.38-.07.72-.11,1.06l.04-.04Z"/>
    <path class="cls-4" d="M101.8,103.79c-.06,0-.12-.02-.18-.03-1.62-.32-2.44-1.39-2.77-2.93-.29-1.35-.61-2.7-.91-4.05-.06-.29-.2-.61-.14-.88.2-.83-.69-1.51-.34-2.27.29-.64.82-1.18,1.23-1.78.1-.15.18-.32.21-.49.15-.83.75-.97,1.45-.99l-.04-.04c-.09.41-.15.82-.28,1.22-.21.63-.49,1.23-.71,1.86-.08.22-.19.52-.11.7.34.69.04,1.42.23,2.1.29,1.04.62,2.08,1.03,3.08.25.61.61,1.19,1.01,1.71.36.47.79.95,1.29,1.24.47.27.74.55.82,1.08.04.27.15.53.24.85-.91.13-1.03-1.07-1.91-.96-.05.19-.11.42-.17.64l.05-.05Z"/>
    <path class="cls-4" d="M97.76,51.39c.08-.71-.3-1.26-.69-1.81.13-.32.23-.6.37-.86.4-.72,1.04-.85,1.62-.31.31.29.6.59.89.9.29.31.56.64.85.94.25.26.52.5.79.76-.1.6.03,1.24-.31,1.79-.33.53-.15,1.31-.94,1.58.26.23.4.35.54.47-.19.43-.66.73-.57,1.28l.03-.03c-.53.16-.95.04-1.16-.51-.17-.44-.3-.9-.46-1.39-.4-.25-.84-.53-1.25-.78,0-.62-.02-1.15.02-1.68,0-.14.21-.26.32-.39-.05.81.55,1.24,1.03,1.73.05.05.24,0,.32-.06.13-.1.22-.25.26-.29-.22-.93-.75-1.42-1.67-1.33Z"/>
    <path class="cls-4" d="M106.92,64.14c-.07.08-.16.26-.29.29-.15.03-.41-.01-.47-.11-.15-.24-.24-.53-.28-.81-.04-.27.15-.42.42-.45.25-.03.49.03.56.3.06.23.04.47.06.79Z"/>
    <path class="cls-4" d="M129.4,96.63s-.08.08-.12.12c-.03-.1-.07-.19-.09-.29,0-.04.07-.08.11-.12.03.1.07.2.1.3Z"/>
    <path class="cls-4" d="M106.19,81.21c-.07-.05-.14-.09-.21-.14.03.01.08.02.1.04.03.04.05.1.07.14l.05-.05Z"/>
    <path class="cls-4" d="M100.36,90.37c.03-.09.06-.18.09-.27.04.03.08.05.11.08-.08.05-.17.1-.25.15l.04.04Z"/>
    <path class="cls-4" d="M95.62,93.64c.05-.09.1-.19.15-.28.18.3-.1.18-.2.23l.05.05Z"/>
    <path class="cls-4" d="M124.02,97.28c.05-.08.1-.17.15-.25.16.27-.1.17-.19.21l.04.04Z"/>
    <path class="cls-4" d="M122.88,112.22c.07.05.15.1.22.14-.04-.01-.09-.01-.1-.04-.03-.04-.05-.1-.07-.16l-.05.05Z"/>
    <path class="cls-4" d="M128.71,108.93c.08.05.16.1.23.14-.04,0-.1,0-.12-.03-.04-.04-.05-.1-.07-.16l-.04.04Z"/>
    <path class="cls-4" d="M101.76,103.84c.07.05.15.1.22.14-.03-.02-.08-.02-.1-.05-.03-.04-.05-.1-.07-.15,0,0-.05.05-.05.05Z"/>
    <path class="cls-4" d="M117.66,129.12c.84.7,1.2,1.41,1.63,2.1-.54.45-1.06.37-1.56.18-.33-.13-.6-.84-.5-1.23.07-.28.21-.54.42-1.05Z"/>
    <path class="cls-4" d="M117.7,127.62q-.75-1.16-.08-1.8c.47.11.95.2,1.18.82-.32.28-.66.59-1.1.98Z"/>
    <path class="cls-4" d="M110.84,145.72c-.81.95-1.8.86-2.81.7-.39-.06-.57-.69-.3-1.02.43-.54,1.63-.95,2.26-.76.11.03.21.11.29.19.09.08.16.18.22.28.12.2.22.4.34.61Z"/>
    <path class="cls-4" d="M159.66,128.63v2.74c-.27.12-.52.29-.8.35-1.39.33-1.9-.21-2.01-1.52-.07-.82.24-1.54.79-2.13.13-.14.47-.21.65-.14.44.16.85.43,1.37.7Z"/>
    <path class="cls-4" d="M81.09,129.28c.45-1.04,1.13-1.15,1.87-.95.42.11.96.2.93.92-.3.04-.59.11-.88.11-.59,0-1.18-.05-1.92-.08Z"/>
    <path class="cls-4" d="M102.43,128.8c-.94.68-1.99.51-2.98.47-.34-.47-.04-.75.16-1.01.18-.22.44-.38.68-.54.08-.06.23-.06.33-.03.69.19,1.39.36,1.8,1.11Z"/>
    <path class="cls-4" d="M136,130.18c.01-.23,0-.41.03-.59.12-.95,1.05-1.57,1.97-1.32.23.06.44.21.67.25.5.1.95.26,1.05.82.11.6.1,1.21-.39,1.68-.26.25-.54.49-.85.65-.91.48-2.66.05-2.47-1.5Z"/>
    <path d="M131.63,75.78c-1.14-1.23-.85-2.53-.15-3.83.04-.07.22-.12.32-.1.09.02.22.16.21.24-.06.78-.14,1.55-.22,2.4.34.61.71,1.29,1.09,1.98.55.99-.05,1.85-.33,2.74-.02.05-.09.12-.13.12-.65-.11-.76.72-1.29.8-.43-.48,0-1.3-.74-1.61-.32.61-.15,1.43-.79,1.92-.63-.11-.69-.81-1.12-1.1-.44-.3-.48-.79-.69-1.31-.2.52-.37.96-.55,1.41-.27.66-.37.7-1.28.5-.55.27-.58.87-.8,1.34-.07.14-.06.39.01.52.14.26.43.44.52.71.05.16-.26.43.02.61.7.44.87,1.11.95,1.86.01.1.27.18.46.3.12-.39.23-.72.34-1.1.35-.07.69-.13,1.03-.2.07-.1.17-.19.19-.3.07-.42.11-.85.49-1.12.09-.06.28-.13.32-.1.1.11.2.27.19.41-.01.17-.19.32-.21.49-.09.83-.48,1.36-1.41,1.29-.05.41-.07.71-.14,1-.04.17-.13.35-.25.47-.29.29-.83.19-1.02.67-.15.39-.37.76-.57,1.13-.03.05-.08.09-.14.11-.05.02-.13.03-.18,0-.09-.06-.23-.14-.23-.21,0-.17.05-.35.11-.51.41-1.12.3-2.24.1-3.44-.41-.07-.76-.12-1.1-.2-.3-.07-.53-.2-.67-.53-.15-.37-.4-.7-.59-1.02.18-.79,1.05-1.23.96-2.13-.47-.3-.93-.16-1.34.1-.45.29-.85.67-1.3.98-.11.08-.38.07-.47,0-.08-.08-.03-.31-.02-.47,0-.05.06-.11.09-.16.18-.28.03-.47-.21-.57-.27-.11-.57-.15-1-.26-.17.16-.42.4-.66.64-.56.57-1.14,1.07-2.01,1.1-.18,0-.36.29-.51.42-.28-.22-.61-.4-.82-.66-.17-.21-.2-.52-.29-.79-.54.21-.54.21-1.08.11.34-.45.88-.57,1.27-.9.37-.32.74-.63,1.1-.93.41.03.81.04,1.21.09.41.05.87,0,1.11.58.6-.34,1-1.05,1.79-1.02.37-.39.74-.78,1.11-1.18.38.03.49.28.53.59.05.41.09.83.15,1.31.3.03.53.08.75.07.34-.02.57-.21.62-.55.05-.42.05-.84.11-1.26.01-.09.15-.24.23-.23.16,0,.35.04.46.15.28.27.32.63.34,1,.01.29.06.59.09.87.19.02.35.09.41.04.64-.56,1.25-1.14,1.29-2.08.02-.43.11-.84.61-1.14.33.47.74.91.97,1.43.21.48.21,1.04.34,1.77.26-.79.46-1.38.66-1.97.07-.2.48-.26.62-.09.22.27.42.55.64.83.28-.43.04-.8-.12-1.19-.24-.61-.15-.7.67-.87,0,.3-.09.64.35.74.07.06-.06.36.21.18-.09-.04-.17-.09-.26-.13.02-.32-.04-.59-.36-.74Z"/>
    <path d="M112.75,76.82c-.69-.46-1.38-.91-1.97-1.3-.54-.89.25-2.04-.93-2.59-.65.23-1.39.58-2-.25-.46-.06-.91-.08-1.19.4q-1.42-.63-1.77-1.57c-.11.15-.17.32-.29.4-.48.3-.98.57-1.55.89-.17-.38-.36-.69-.46-1.03-.1-.32-.11-.66-.16-1.02-.63.25-.54,1.06-1.26,1.21-.09-.37-.19-.73-.29-1.11-.2.35-.17.88-.73.92-.27.02-.39.19-.56.37-.37.39-.99.22-1.08-.28-.08-.45-.09-.91-.14-1.55-.23.43-.37.69-.52.96-.12.22-.26.4-.55.4-.25,0-.51.07-.59.33-.25.8-.84,1.28-1.49,1.74-.34.24-.62.57-.9.83-.33,0-.49-.14-.49-.43,0-.55-.02-1.09,0-1.64,0-.49.16-.73.4-.67.05.01.11.05.14.09.1.15.2.3.3.46.25-.32.51-.63.75-.96.1-.14.18-.31.24-.48.16-.45.42-.69.93-.48.33-.22.59-.61,1.09-.36.04.02.2-.13.26-.23.13-.2.25-.42.33-.64.19-.54.59-.93.99-1.28.35-.3.94-.15,1.29-.55.03-.04.41.11.42.2.07.45.27.72.75.75.09.34.18.68.27,1.01.24-.04.47-.08.72-.12.44.74,0,1.58.37,2.44.28-.71.17-1.35.18-1.96,0-.69.31-1.15.92-1.48.37.25.76.52,1.15.78-.05.22-.1.46-.15.67.4.63.77,1.25,1.19,1.91.19-.33.35-.69.58-1,.25-.33.56-.63.87-.92.3-.27.63-.5.95-.75.51.38.16.78.08,1.18.26.36.53.74.79,1.09.23-.28.45-.57.7-.83.07-.07.27-.11.33-.07.12.09.27.27.26.39-.07.53-.19,1.06-.3,1.58.24.3.77.32.68.91-.08.52-.02,1.07-.02,1.58.36.24.67-.3,1.01.05.26.27.46.55.45.95,0,.36-.01.73-.02,1.09l.05-.05Z"/>
    <path d="M116.91,75.98c.03-.11.01-.27.08-.32.71-.5.83-1.42,1.44-2.01.3-.28.19-.94-.15-1.12-.68-.35-.83-.8-.5-1.48.07-.14.01-.35.01-.51-.31-.27-.41.08-.6.15-.16.06-.33.15-.48.13-.38-.06-.34.27-.45.45-.09.15-.15.33-.19.51-.05.17-.06.36-.1.54-.03.11-.1.21-.2.41-.73.16-1.56.29-2.27.76-.18.12-.47.12-.7.1-.15-.02-.4-.16-.41-.27-.1-1.08-.23-2.18.47-3.23.27.34.43.69.58,1.05.27.68.28.7,1.32.45.07-.8.14-1.63.25-2.46.01-.09.26-.15.5-.27.09.6.16,1.11.28,1.93.14-.54.18-.78.28-.99.07-.15.27-.38.34-.36.19.07.35.25.58.43.23-.41.46-.82.7-1.23.48-.07,1.02.52,1.47-.11.04-.06.29-.05.32,0,.08.14.18.36.12.47-.45.85-.93,1.69-1.43,2.58.41.38.8.75,1.2,1.13.45-.15.23-.61.42-.87.2-.26.41-.43.83-.37.35.73-.12,1.78.8,2.45.12-.24.28-.43.32-.65.09-.41.1-.84.19-1.25.07-.3.29-.53.63-.57.35-.04.59.1.64.46.04.25.09.47.36.57.27.1.68.04.77.38.09.34.02.71.01,1.07,0,.05-.06.1-.12.2-.46-.09-.89-.35-1.36-.48-.18-.05-.3-.36-.51-.62-.27.9-.15,1.78-.23,2.63-.03.3-.19.42-.48.44-.15-.24-.29-.5-.47-.74-.21-.29-.58-.34-.73-.02-.27.58-1.05.35-1.28.92-.02.05-.27.07-.3.03-.54-.73-1.2-.23-1.81-.2-.05,0-.1-.06-.15-.1ZM120.32,73.42c-.1-.03-.2-.06-.3-.08-.11.26-.25.51-.31.78-.02.1.13.24.21.36.09-.07.25-.13.27-.21.07-.27.09-.56.13-.84ZM119.21,74.18c-.07-.04-.14-.08-.22-.11-.13.2-.27.38-.38.59-.09.17.04.39.22.36.1-.01.26-.08.28-.15.06-.22.06-.45.09-.68Z"/>
    <path d="M105.93,77.06c.58-.11.77-1.07,1.67-.8-.67.78-1.17,1.58-2.29,1.38-.15.34-.3.66-.45,1.01-.25-.05-.48-.09-.63-.11-.47.56-.84,1.22-1.41,1.6-.6.4-.66,1.37-1.63,1.35-.08-.1-.22-.26-.41-.48-.08.64-.15,1.24-.22,1.88-.32.3-.68.61-1.01.94-.33.32-.63.67-.94,1q-1.38-.98-1.46-1.96c.43-.12.87-.26,1.32-.36.44-.1.69-.28.71-.59.02-.24.06-.5,0-.72-.38-1.27-.03-2.5.17-3.8.33-.16.64-.33.97-.46.08-.03.25.03.31.1.06.07.08.23.04.32-.09.22-.23.42-.33.64-.39.83-.55,1.72-.64,2.61-.02.15.07.31.11.47.54-.2.49-.68.62-1.07.13-.39.27-.78.42-1.18.31-.24.54.13.77.13.31-.39.62-.75.9-1.12.29-.38.64-.15.97-.1.08-.4.17-.81.27-1.3.3.12.5.27.72.28.2,0,.44-.25.6-.2.32.11.6.35.9.54Z"/>
    <path d="M132.49,69.27c.14-.24.19-.43.32-.54.11-.09.3-.11.45-.13.02,0,.12.22.09.3-.15.39-.31.78-.52,1.14-.21.35-.47.66-.74,1.03-.27-.07-.61-.07-.82-.24-.27-.2-.39-.61-.66-.8-.28-.19-.67-.22-1.07-.34-.05.37-.1.77-.16,1.18-.14-.04-.29-.03-.33-.1-.45-.77-.93-1.52-1-2.47.34-.19.64-.36,1.01-.56.21.2.41.39.64.6.09-.29.17-.57.26-.84.4-.02.47.3.59.55.14.3.38.57.68.47.67-.21.77.42,1.28.75Z"/>
    <path d="M123.62,87.03c.76.21.79.24.8.72.02,1.04-.17,2.01-.83,2.87-.24.32-.36.74-.53,1.09-.31.06-.59-.04-.46-.33.45-.97.72-1.98.92-3.01-.1,0-.2,0-.3,0-.55.05-.67-.06-.61-.54.03-.23.18-.61.11-.65-.68-.39-.46-1.04-.52-1.6l-.04.05c.3-.12.35-.38.39-.65.03-.23.13-.4.38-.45l-.04-.04c.11.46-.17,1.07.56,1.28.1.03.19.28.2.44.03.28,0,.57,0,.86-.05.02-.11.03-.15.06-.03.02-.03.07-.04.11.05-.07.1-.14.15-.21Z"/>
    <path d="M114.15,76.83c.58-.35.59-.99.8-1.53.08-.2.27-.35.57-.71.06.57.09.91.13,1.26.02.24.03.5.3.6.25.1.46.24.33.51-.15.32-.47.32-.78.23-.11-.04-.22-.1-.4-.19-.39.63-.79,1.27-1.22,1.97-.48-.13-.92-.24-1.29-.34-.46-.72.26-1.21.18-1.81l-.05.05c.16.06.32.13.48.19.3-.07.14-.37.26-.53.09-.12.23-.29.33-.28.13.01.26.17.35.29.06.08.06.22.08.33-.06.02-.12.03-.16.06-.03.02-.02.08-.04.13.05-.08.1-.16.15-.24Z"/>
    <path d="M146.25,59.05c-.2.26-.28.45-.4.49-.28.09-.58.13-.88.13-1.42,0-2.51.65-3.35,1.77-.52-.1-1.03-.14-1.28-.74-.13-.3-.4.07-.62-.02-.23-.1-.33-.38-.19-.57.4-.55,1-.69,1.59-.59.29.05.54.41.79.62.77-.38,1.48-.85,2.26-1.07.6-.17,1.29-.02,2.09-.01Z"/>
    <path d="M147.55,63.53c-.26-.67-.4-1.05-.53-1.39-.67-.26-1.02.35-1.59.43-.11-.08-.32-.14-.39-.27-.21-.43-.54-.71-.92-.96.08-.1.14-.23.24-.26.28-.09.58-.2.87-.19.88.02,1.76-.23,2.73-.13-.11.48-.23.86-.29,1.25-.06.41-.07.82-.12,1.53Z"/>
    <path d="M139.08,58.62c.09-.48.16-.86.23-1.24-.85-.36-1.38-1.2-2.42-1.02.74-.58.98-.62,2.95-.58-.04.6-.01.67.4,1.21-.25.58-.15,1.41-1.16,1.63Z"/>
    <path d="M141.53,56.64c.43-.1.52.29.77.37.2.07.45,0,.65.07.14.05.3.22.34.37.08.24-.05.47-.28.58-.26.12-.54.22-.82.27-.32.05-.59-.17-.64-.47-.03-.17-.06-.35-.06-.53,0-.23.03-.46.05-.67Z"/>
    <path d="M122.93,84.53c-.06-.53-.01-1.01.7-1.38-.23.58-.2,1.1-.74,1.35l.04.04Z"/>
    <path d="M106.5,57.55c-.22.52-.75.52-1.18.64-.57.16-1.17.23-1.88.35-.43-.21-.96-.48-1.43-.71-.28-.4-.21-.75-.12-1.11.28.04.44.59.81.19.23.19.44.45.71.55.78.28,1.56.64,2.42.19.19-.1.47-.04.71-.05l-.05-.04Z"/>
    <path d="M109.96,56.53c.27.33.33.63.07.85-.31.27-.66.52-1.02.71-.62.33-1.26.6-1.89.9-.3-.54-.17-1.27.26-1.25,1.1.05,1.86-.54,2.59-1.21Z"/>
    <path d="M106.55,57.59c-.07-.21-.09-.48-.24-.62-.16-.15-.45-.15-.64-.29-.27-.19-.3-.49-.18-.79.39-.16.48.24.72.34.27.12.55.21.84.32,0,.44-.21.76-.57.99l.05.04Z"/>
    <path d="M106.38,54.03c-.19-.25-.32-.43-.49-.65.32-.19.57-.36.84-.49.09-.04.25-.02.33.04.21.13.12.34.02.46-.19.22-.43.4-.7.64Z"/>
    <path d="M112.53,55.42c.3.58-.11.74-.34,1.04-.33-.57.11-.72.34-1.04Z"/>
    <path d="M104.03,54.39c-.26.06-.45.17-.53.11-.1-.08-.11-.27-.16-.42.1-.03.23-.12.3-.08.12.06.21.2.39.39Z"/>
    <path d="M103.23,55.4c.31-.06.57-.02.69.31.03.09,0,.24-.05.3-.06.06-.21.08-.3.05-.35-.11-.32-.41-.3-.7l-.04.03Z"/>
    <path d="M108.34,60.83c-.04.44-.38.54-.72.62-.04.01-.11-.03-.15-.07-.02-.03-.02-.1,0-.14.19-.37.5-.47.89-.39h-.01Z"/>
    <path d="M114.14,47.69c-.01.27.09.59-.28.71-.09.03-.23,0-.3-.06-.04-.04-.02-.23.04-.27.18-.13.4-.22.6-.33l-.06-.05Z"/>
    <path d="M108.35,60.85c.05-.09.1-.18.16-.27.25.29-.03.23-.17.26h.01Z"/>
    <path d="M103.26,55.36c-.1-.05-.2-.1-.3-.14.26-.2.26,0,.26.18l.04-.03Z"/>
    <path d="M97.76,51.39c.92-.08,1.44.4,1.67,1.33-.03.04-.13.19-.26.29-.08.06-.28.1-.32.06-.48-.49-1.08-.92-1.03-1.73l-.06.06Z"/>
    <path class="cls-4" d="M131.63,75.78c.32.15.38.42.36.74l.05-.05c-.44-.1-.35-.44-.35-.74l-.06.05Z"/>
    <path class="cls-4" d="M131.98,76.52c.09.04.17.09.26.13-.27.18-.14-.12-.21-.18l-.05.05Z"/>
    <path class="cls-4" d="M120.32,73.42c-.04.28-.06.57-.13.84-.02.09-.18.14-.27.21-.08-.12-.23-.26-.21-.36.06-.27.2-.52.31-.78.1.03.2.06.3.08Z"/>
    <path class="cls-4" d="M119.21,74.18c-.02.23-.03.46-.09.68-.02.07-.18.14-.28.15-.18.03-.31-.19-.22-.36.11-.2.25-.39.38-.59.07.04.14.08.22.11Z"/>
    <path class="cls-4" d="M123.62,87.03c-.05.07-.1.14-.15.21.01-.04.01-.09.04-.11.04-.03.1-.04.15-.06l-.04-.04Z"/>
    <path class="cls-4" d="M114.15,76.83c-.05.08-.1.16-.15.24.01-.04,0-.1.04-.13.04-.03.11-.04.16-.06,0,0-.05-.05-.05-.05Z"/>
  </g>
  <path class="cls-1" d="M72.05,32.68c.14.06.19.21.27.32-.27.06-.31-.12-.54-.11.04-.13.31-.02.27-.22h0Z"/>
  <g>
    <g>
      <polygon class="cls-3" points="31.68 77.08 8.73 110.66 9.87 112.11 53.65 110.59 37.93 81.7 33.25 76.24 31.68 77.08 31.68 77.08"/>
      <path class="cls-2" d="M30.54,81.43c-.82.36-.24-.84-1.07-.47-.4.14-.18.83-1,.58-.32,1.37-.64,2.72-1.93,3.22-.31,1.44.73,1.38,1.15,2.03-1.81,1.33-1.82,5.57-5.01,4.16.29.77,1.25.81,1.39,1.76-.69.35-1.2.49-1.53.59,1.11.91-.3.68-.72,1.34-1.11,1.72-1.71,4.44-3.66,4.87-.07,1.25-.53,2.17-1.71,2.43.66,1.35-.38.18-.74.82,1.67.32-1.07,1.14.1,1.82-1.85.39-1.4,2.87-2.68,3.78-.17-.45.24-1.54-.33-1.55,0,.41.08.9-.49.8-.28.86.85.16.57,1.01-1.08.26-.88,1.69-1.44,2.42,2.71-.6,7.11-.64,10.14-.5.04-.2-.02-.51.23-.54,10.08.93,18.12-.64,30.43-.98-.56-2.73-2.98-4.04-3.92-5.54-.31-2.31-2.5-2.54-2.59-5.08-1.17.17-1-.93-.86-1.52-1.04.02-1.97-1.66-1.14-2.03-.81.44-.87-.15-1.59-.44-1.88-5.68-6.37-9.68-8.52-14.17.01.26-.44.35-.52.02.32-.04.61-.11.5-.55-.73.25-.69-.33-1.31-.19-1.26,1.76-1.82,4.14-3.92,5.14.55.89-.19,1.27-.68,1.86-.32-1.04-.06-2.03.38-2.89.43-.02.18.72.56.76.06-1.12.95-3.25,1.72-2.17-.03-.36.09-.58.22-.79h0ZM45.73,93.44c1.54.23,1.13,2.59,2.74,2.73.04,1.68.91,2.47,1.97,3.03-.12,1.78.89,2.31,1.96,2.77.12.44-.18.5-.49.55.37.36,1.23.6.58,1.28.2-.15.41-.29.76-.31.12.52-.01.82-.48.81.52.67,2.02,2.08,1.17,2.55.27.44.84.53,1.58.44.15,2.13,1.32,3.12,1.31,5.41-.25-.15-.98-.56-.76.3-.47-.49-1.81-.02-1.87-.95-.58,1.02-1.78-.68-3.09.67-.79.13-.58-.82-.85-1.26-.74.26.37.63.07,1.3-.2-.17-.88-1.05-.78.04-3.63-.25-9.02-.27-12.24.08-.01-.26-.03-.51-.04-.78-1.17.7-2.55.83-3.64.18-.7,1.01-5.54,1.05-7.02.35-2.86,1.64-9.21.09-10.59,1.82-2.24-1.26-6.1.17-8.9-.86-.26-.82.17-1,.46-1.33-1.05-.04-.44-.2-.61-1.79,1.21-.4,1.71-1.43,1.68-2.95,1.21.19.52-1.34,1.77-1.13-.23-.78-.21-.49-.07-1.3,1.77.2.7-2.18,2.23-2.19-.18-.26-.61-.24-.56-.76,1.05.29.49-.88,1.53-.6-.02-.43-.04-.87-.06-1.3.22-.21.58-.31,1.02-.31,1.53-3.92,4.38-6.64,6-10.46.9-.02,1.18-.58.96-1.61.76.03.76-.63,1.53-.6.63-3.48,3.95-4.53,4.55-8.05,2.85-.64,2.17-4.48,4.95-5.19-.18-.26-.61-.24-.56-.75.86-.06,1.27-.51,2.33-.38,1.16.82-.31,1.34,1.36,1.23-1.07,1.17.34,4.61,1.51,4.09.38.07.07,1.97,1.38,1.76-.14.8.32.93.35,1.54,3.34,2.79,3.98,8.57,7.33,11.36.12.44-.18.5-.5.55h0Z"/>
    </g>
    <text class="cls-5" transform="translate(26.21 106.54) scale(.79 1)"><tspan x="0" y="0">5</tspan></text>
  </g>
</svg>