<?xml version="1.0" encoding="UTF-8"?>
<svg id="Layer_1" data-name="Layer 1" xmlns="http://www.w3.org/2000/svg" viewBox="0 0 180 200">
  <defs>
    <style>
      .cls-1, .cls-2, .cls-3 {
        fill-rule: evenodd;
      }

      .cls-1, .cls-4, .cls-5 {
        fill: #fff;
      }

      .cls-2 {
        fill: #231f20;
      }

      .cls-3 {
        fill: #9a495c;
      }

      .cls-5 {
        font-family: AmericanTypewriter-Bold, 'American Typewriter';
        font-size: 23.14px;
        font-weight: 700;
        letter-spacing: .02em;
      }
    </style>
  </defs>
  <g>
    <polygon class="cls-3" points="29.77 72.84 6.82 106.43 7.96 107.87 51.74 106.36 36.01 77.47 31.34 72 29.77 72.84 29.77 72.84"/>
    <path class="cls-2" d="M28.63,77.19c-.83.36-.24-.83-1.07-.47-.4.14-.18.83-1,.58-.32,1.37-.64,2.72-1.93,3.22-.31,1.44.73,1.38,1.15,2.03-1.81,1.32-1.82,5.56-5.01,4.15.29.77,1.25.81,1.39,1.76-.69.35-1.2.49-1.53.6,1.11.9-.3.68-.72,1.34-1.11,1.73-1.71,4.44-3.66,4.87-.07,1.26-.53,2.17-1.71,2.43.66,1.35-.38.19-.74.82,1.67.32-1.07,1.14.1,1.82-1.85.39-1.4,2.87-2.68,3.78-.17-.45.24-1.54-.33-1.55,0,.41.08.9-.49.81-.28.86.85.15.57,1.01-1.08.27-.88,1.69-1.44,2.42,2.71-.6,7.11-.65,10.14-.51.04-.2-.02-.51.23-.53,10.08.92,18.12-.65,30.43-.98-.56-2.73-2.98-4.04-3.92-5.54-.31-2.31-2.5-2.54-2.59-5.08-1.17.18-1-.93-.86-1.52-1.04.02-1.97-1.66-1.14-2.03-.81.44-.87-.15-1.59-.44-1.88-5.68-6.37-9.68-8.52-14.17.01.26-.44.35-.52.02.32-.04.61-.11.5-.54-.73.25-.69-.33-1.32-.19-1.26,1.76-1.82,4.14-3.92,5.14.55.89-.19,1.27-.68,1.86-.32-1.03-.06-2.03.38-2.89.43-.02.18.71.56.75.06-1.12.95-3.24,1.71-2.17-.03-.36.09-.58.22-.79h0ZM43.82,89.21c1.54.22,1.13,2.59,2.74,2.74.04,1.68.91,2.47,1.97,3.02-.12,1.78.89,2.31,1.96,2.77.12.44-.18.5-.49.54.37.36,1.22.59.58,1.27.2-.15.41-.29.76-.3.12.52-.01.82-.48.81.52.66,2.02,2.08,1.17,2.55.27.44.84.53,1.58.44.15,2.13,1.32,3.12,1.31,5.41-.25-.15-.98-.56-.76.3-.47-.49-1.81-.01-1.87-.95-.58,1.02-1.78-.68-3.09.67-.79.13-.58-.82-.85-1.26-.74.26.37.64.07,1.3-.2-.17-.88-1.05-.78.04-3.63-.25-9.02-.27-12.24.08-.01-.26-.03-.51-.04-.78-1.17.69-2.55.83-3.64.18-.7,1.02-5.54,1.05-7.02.35-2.86,1.64-9.21.1-10.59,1.82-2.24-1.26-6.1.17-8.9-.86-.26-.82.17-1,.46-1.33-1.05-.04-.44-.2-.61-1.79,1.21-.4,1.71-1.43,1.68-2.95,1.21.19.52-1.34,1.77-1.13-.23-.79-.21-.49-.07-1.3,1.77.2.7-2.18,2.23-2.19-.18-.26-.61-.24-.56-.76,1.05.29.49-.88,1.53-.6-.02-.43-.04-.87-.06-1.3.22-.21.58-.31,1.02-.31,1.53-3.92,4.38-6.63,6-10.46.9-.02,1.18-.58.96-1.61.76.03.76-.63,1.53-.6.63-3.48,3.95-4.54,4.55-8.04,2.85-.64,2.17-4.48,4.95-5.19-.18-.26-.61-.24-.56-.75.86-.06,1.27-.51,2.33-.38,1.16.82-.31,1.34,1.36,1.23-1.07,1.18.34,4.61,1.51,4.09.38.07.07,1.97,1.38,1.76-.14.8.32.93.35,1.54,3.34,2.79,3.98,8.57,7.33,11.36.12.44-.18.5-.5.54h0Z"/>
  </g>
  <text class="cls-5" transform="translate(23.97 101.99) scale(.79 1)"><tspan x="0" y="0">7</tspan></text>
  <g>
    <path class="cls-1" d="M52.75,74.55s.63,15.73.95,17.16c.32,1.43.63,7.51.95,10.37.32,2.86.16,10.36.63,11.8.48,1.43.16,2.86,2.06,4.82,1.9,1.97,4.9,1.07,7.75,1.79,2.85.71,14.38-1.79,19.76-1.61,5.38.18,33.35.89,40.63.36,7.27-.54,24.18-1.79,30.67-2.68,6.48-.89,10.91-.18,13.12-2.32,2.21-2.15,2.69-4.29,3-7.86.32-3.57.32-9.29.32-13.58s-.79-11.97-1.11-15.73c-.32-3.75-.95-8.4-1.42-10.01-.48-1.61-.63-6.43-7.11-7.15-6.48-.71-48.37.54-48.85.54s-17.07.89-23.55,1.43c-6.48.54-21.66,1.79-23.4,2.14-1.74.36-15.81,2.32-14.38,10.54Z"/>
    <g>
      <path d="M119.97,91.36c-.26.09-.51.2-.77.27-.94.26-1.86.59-2.82.74-1.08.17-1.95-.38-2.8-1.17-.33.2-.67.38-.98.61-1.53,1.15-3.31,1.57-5.17,1.72-.95.08-1.19-.1-1.78-1.09-2.28,2.15-4.54,4.28-6.79,6.42-.15.14-.22.36-.33.54-.09.14-.15.37-.28.41-1.09.38-1.65,1.36-2.45,2.07-.34.3-.56.79-1.19.61-.27-.65-.13-1.28.19-1.85.38-.69.82-1.36,1.27-2.01.98-1.39,1.98-2.76,2.97-4.15.12-.17.21-.36.38-.64-1.51.21-2.89.59-4.27.08-.53-.2-1.01-.51-1.55-.78-.74.29-1.56.65-2.41.93-2.01.67-3.94-.23-4.76-2.2-.05-.13-.08-.27-.12-.41-1,.31-1.42,1.74-2.82,1.39.25-.72.76-1.12,1.3-1.46,1.44-.9,2.88-1.79,4.34-2.65.47-.27.94-.71,1.65-.3-.34,1.27-1.61,2.16-1.53,3.62.96.2,1.76-.09,2.54-.49,1.25-.64,2.24-1.61,3.06-2.72.64-.87,1.42-1,2.37-.91.25.58-.07,1.01-.3,1.44-.26.51-.62.98-.86,1.51-.39.85-.07,1.49.85,1.54.7.04,1.48-.01,2.11-.28,1.86-.79,3.41-2.02,4.54-3.74.87-1.33,1.73-2.67,2.59-4.01.13-.21.23-.43.4-.76-1.2.15-2.21.5-3.17,1-1.12.58-2.22,1.2-3.34,1.79-.44.23-.88.52-1.37,0-.1-.11-.49.06-.82.12.1-.65.53-1.01.97-1.26,1.6-.91,3.19-1.84,4.86-2.6,1.07-.48,2.27-.71,3.43-.96.51-.11.83-.3,1.07-.77.97-1.91,2.24-3.63,3.59-5.29.35-.43.72-.79,1.34-.8.82-.01,1.14.42.78,1.16-.2.42-.49.8-.76,1.19-.87,1.28-1.75,2.56-2.65,3.86,1.18.39,12.32-.43,16.51-1.19.14-.3.31-.66.48-1.01.58-1.2,1.16-2.41,1.75-3.6.31-.63.81-.98,1.54-.94.35.5.25.99.05,1.47-.35.83-.72,1.66-1.07,2.49-.15.35-.27.72-.47,1.26,5.68-1.33,10.89-3.4,16.21-5.63-.03.28,0,.55-.1.7-.24.31-.51.64-.85.82-1.21.65-2.41,1.32-3.68,1.83-2.41.98-4.86,1.86-7.41,2.39-1.27.26-2.54.56-3.83.76-.65.1-.99.39-1.27.98-1.19,2.44-2.4,4.86-3.67,7.26-.54,1.02-1.25,1.94-1.98,3.07.31-.12.46-.16.61-.23,2.06-1.05,4.1-2.13,6.17-3.16,1.78-.88,3.59-1.71,5.38-2.55.36-.17.73-.34,1.11-.42.21-.05.55.02.68.16.12.14.13.56,0,.67-.29.29-.18.57-.18.89,0,.42-.09.85-.21,1.26-.34,1.2.06,1.8,1.32,1.86,1.1.05,2.18-.12,3.16-.63,1.09-.56,2.12-1.21,2.81-2.31.44-.7,1.03-1.3,1.54-1.95.31-.39.68-.55,1.14-.34.65.3,1.33.58,1.93.96,1.03.67,2.02,1.41,3.01,2.14.26.19.5.43.69.69.5.68.48,1.2-.06,1.86-.8.99-1.83,1.65-3.04,1.99-3.31.91-6.62,1.81-9.94,2.64-1.33.33-2.69.41-4.07-.05-.69-.23-1.49-.12-2.24-.17-.2-.01-.4-.05-.69-.09.22-.58.64-.51,1-.53,2.42-.15,4.84-.22,7.25-.44,2.78-.25,5.37-1.13,7.67-2.74.43-.3.81-.73,1.1-1.17.5-.76.38-1.46-.36-1.86-.79-.43-1.64-.75-2.5-1.03-.59-.19-.84.32-1.02.75-.45,1.05-1.2,1.78-2.19,2.31-1.86,1-3.87,1.38-5.94,1.48-.68.03-1.25-.26-1.81-.63-.94-.62-1.3-.64-2.12.12-1.23,1.14-2.72,1.26-4.26,1.21-.36-.01-.75-.26-1.06-.47-.9-.62-1.82-.79-2.87-.39-1.57.6-2.97,1.33-3.98,2.82-1.28,1.88-2.72,3.66-4.2,5.39-1.17,1.37-2.5,2.61-3.77,3.9-.32.32-.68.58-1.15.28-.39-.25-.56-.91-.28-1.36.31-.48.66-.96,1.09-1.34,2.57-2.28,4.5-5.09,6.56-7.79.45-.59.77-1.27,1.14-1.91-.05-.05-.1-.1-.15-.15ZM126.42,80.96c-.82.1-1.46.16-2.09.27-1.53.26-3.05.62-4.59.8-2.72.32-5.43.87-8.2.75-.61-.03-1.22.15-1.83.2-.38.03-.55.25-.74.54-1.11,1.78-2.24,3.54-3.37,5.31-.7,1.1-1.4,2.19-2.1,3.29-.12.19-.25.37-.43.65,1.9-1.26,3.66-2.44,5.44-3.6,1.33-.86,2.67-1.72,4.04-2.53.78-.46,1.57-.41,2.43.22-.32.34-.57.69-.88.95-1.03.85-2.09,1.67-3.13,2.51-.31.25-.58.54-.95.88.27.04.35.08.4.06,1.84-.87,3.62-1.81,4.69-3.67.09-.16.16-.37.3-.44.29-.16.65-.38.94-.33.41.06.5.5.44.87-.07.42-.23.83-.36,1.25-.17.55-.36,1.1,0,1.69,1.41.27,2.54-.3,3.55-1.19.7-.62,1.32-1.35,2.03-1.95,1.72-1.45,2.98-3.23,3.93-5.26.16-.35.27-.72.47-1.25ZM130.41,90.73c1.43,0,3.69-1.7,4.39-3.24-1.8.56-3.93,2.1-4.39,3.24Z"/>
      <path d="M131.93,104c-.18.15-.31.31-.48.41-2.3,1.31-4.79,2.19-7.29,3.01-1.55.51-3.12.84-4.76.97-2.45.19-4.89.53-7.33.78-3.75.39-7.5.31-11.25-.07-1.76-.18-3.53-.24-5.28-.48-.88-.12-1.75-.46-2.57-.81-2.03-.86-4.05-1.74-6.04-2.69-.74-.35-1.34-.97-2.05-1.4-1.45-.87-2.62-2.03-3.61-3.39-1.41-1.93-2.37-4.04-2.77-6.41-.26-1.57.25-3.01.7-4.45.95-3.08,2.52-5.84,4.5-8.36,1.92-2.44,3.87-4.86,5.83-7.28.34-.42.74-.8,1.14-1.16.19-.18.45-.28.78-.47.11.37.23.59.23.82,0,.54.13.97.66,1.25.48.26.47.71.17,1.11-.32.43-.68.85-1.07,1.22-1.49,1.43-3.03,2.79-4.48,4.26-.83.84-1.53,1.82-2.28,2.75-.27.34-.47.74-.78,1.04-1.27,1.25-1.98,2.85-2.7,4.42-.56,1.23-.66,2.56-.75,3.91-.15,2.25.82,4.07,2.02,5.81.47.68,1.03,1.29,1.59,1.9,1.26,1.38,2.81,2.33,4.41,3.27,2.77,1.62,5.66,2.89,8.8,3.56,1.19.25,2.42.37,3.64.48,3.41.3,6.79-.06,10.16-.56,1.25-.19,2.51-.35,3.77-.48,4.32-.47,8.57-1.29,12.77-2.38,1.08-.28,2.18-.5,3.28-.73.32-.07.69-.26,1.04.16Z"/>
      <path d="M61.7,80.21c-.37-1-.19-1.75.6-2.37,1.32-1.03,2.74-1.87,4.25-2.58,1.37-.64,2.7-1.38,3.99-2.18,1.15-.71,2.29-1.36,3.64-1.61.67-.12,1.3-.42,1.96-.61.59-.17,1.18-.34,1.78-.41.94-.12,1.91-.14,2.64.62.94.98,1.76,2.08,1.74,3.5-.01,1.08-.15,2.16-.35,3.22-.65,3.42-1.7,6.73-2.86,10-.9,2.55-2.08,5.01-3.23,7.46-1.55,3.31-2.98,6.66-4.14,10.14-.94,2.84-2.08,5.62-3.12,8.43-.12.33-.21.66-.31.99-.54-.16-.99-.29-1.59-.47.08-.34.12-.75.26-1.13.57-1.48,1.2-2.95,1.75-4.44.62-1.7,1.22-3.4,1.76-5.13,1.47-4.68,3.52-9.08,5.97-13.33,1.72-2.98,2.59-6.27,2.62-9.74.02-1.81.08-3.61.11-5.42,0-.25-.02-.51-.06-.76-.21-1.22-.99-1.83-2.22-1.71-.5.05-1,.16-1.48.31-4.17,1.28-7.88,3.41-11.21,6.2-.7.59-1.43,1.1-2.51,1Z"/>
      <path d="M145.27,104.08c.39-1.33.79-2.66,1.19-4-.36-.14-.7-.27-1.26-.49,1.09-.74,2.12-.38,3.08-.61.26.92-.59.66-.94,1.05-.29,1.04-.57,2.2-.93,3.33-.35,1.07-.61,2.18-1.07,3.31-.87-.58-.92-1.39-1.19-2.06-.26-.66-.44-1.35-.85-2.06-.13.39-.27.78-.4,1.16-.27.75-.52,1.5-.82,2.23-.1.23-.36.38-.54.57-.18-.21-.44-.39-.52-.63-.5-1.39-.95-2.8-1.42-4.2-.07-.21-.15-.41-.21-.62-.12-.44-.29-.81-.85-.81-.11,0-.21-.22-.47-.51,1.08-.14,1.97-.25,2.92-.37-.12.73-.72.57-1.09.91.55,1.19,1.11,2.39,1.76,3.77.16-.37.28-.56.34-.77.26-.98.48-1.96.76-2.94.09-.3.3-.57.55-1.04.9,1.65,1.17,3.26,1.98,4.79Z"/>
      <path d="M157,105.53c-1.21.39-1.33.08-1.78-.61-.55-.83-1.06-1.7-1.86-2.43-.24,1.81-.08,2.45.78,3.15-.68.44-1.36.55-2.21.3.27-.29.59-.49.68-.76.11-.32.04-.71.02-1.07-.04-.86-.09-1.72-.14-2.63-.39-.06-.7-.11-1.07-.17.08-.17.1-.36.2-.4,1-.48,1.71-.25,2.37.62.52.69.86,1.59,1.85,2.03.08-1.14.16-2.15-1.02-2.76.92-.35,1.87-.41,2.69-.19-.14.56-.71.38-1.13.69.19,1.35.4,2.77.61,4.24Z"/>
      <path d="M159.65,102.39c.64.26,1.07.22,1.21-.45.64.58.65,1.19.03,2.2-.12-.28-.17-.51-.31-.66-.15-.15-.39-.29-.59-.29-.14,0-.37.25-.39.41-.06.39-.02.79-.02,1.31.66.02,1.29.04,1.94.06.14-.42.26-.8.41-1.27q.46.63.21,1.88c-1.41,0-2.84.32-4.26,0-.02-.08-.03-.16-.05-.24.26-.14.51-.28.8-.44-.06-1.11-.08-2.23-.21-3.34-.04-.35-.39-.66-.65-1.08,1.37-.27,2.72-.16,4.14-.31.04.64.06,1.16.09,1.68-.88.17-.59-.55-.81-.95-.49.03-1.01.06-1.63.09.03.47.05.92.08,1.4Z"/>
      <path d="M162.98,103.46c.31-.02.51-.03.76-.04.21.44.04,1.1.69,1.23.42.08.78-.05,1.04-.6-.22-.21-.44-.47-.71-.67-.29-.21-.63-.35-.93-.54-1.07-.67-1.04-2.07.06-2.71.56-.32,1.01-.34,1.85-.08.21,1.4.18,1.48-.58,1.68-.08-.34-.16-.68-.25-1.06-.22.03-.45,0-.63.09-.57.26-.61.68-.11,1.06.2.15.45.23.66.37.45.3.92.57,1.32.93.46.41.49.84.2,1.36-.48.89-2.13,1.34-2.96.79-.16-.1-.29-.33-.32-.52-.07-.41-.06-.84-.08-1.29Z"/>
      <path d="M138.53,82.72c-.12.06-.24.17-.37.19-2.06.19-3.88,1.06-5.72,1.9-.29.14-.6.24-.9.36-.42.16-.83.11-1.06-.27-.26-.43-.04-.84.28-1.17.12-.12.29-.22.46-.27,1.2-.36,2.38-.84,3.68-.82.79,0,1.58-.14,2.37-.19.41-.03.82,0,1.24,0,0,.09.01.18.02.27Z"/>
      <path d="M149.53,105.11c-.07-1.25-.13-2.36-.19-3.37-.35-.34-.94,0-1.02-.59.78-.41,1.86-.49,2.93-.15-.38.24-.65.42-1.01.65.03.55.06,1.19.1,1.83.06.88,0,1.81,1.18,2.33-1.04.37-1.85.17-2.69.16-.07-.63.52-.59.69-.85Z"/>
      <path class="cls-4" d="M126.42,80.96c-.2.53-.31.9-.47,1.25-.95,2.02-2.21,3.8-3.93,5.26-.72.61-1.33,1.33-2.03,1.95-1,.89-2.13,1.47-3.55,1.19-.36-.58-.17-1.13,0-1.69.13-.41.29-.82.36-1.25.06-.37-.03-.81-.44-.87-.29-.04-.65.17-.94.33-.14.08-.21.29-.3.44-1.07,1.86-2.85,2.8-4.69,3.67-.05.02-.14-.02-.4-.06.37-.35.65-.64.95-.88,1.04-.84,2.1-1.66,3.13-2.51.32-.26.57-.61.88-.95-.86-.63-1.66-.68-2.43-.22-1.36.81-2.71,1.66-4.04,2.53-1.78,1.16-3.54,2.34-5.44,3.6.19-.28.31-.46.43-.65.7-1.1,1.4-2.19,2.1-3.29,1.13-1.77,2.26-3.53,3.37-5.31.18-.29.36-.51.74-.54.61-.05,1.23-.22,1.83-.2,2.77.12,5.47-.43,8.2-.75,1.54-.18,3.06-.54,4.59-.8.63-.11,1.27-.16,2.09-.27Z"/>
      <path class="cls-4" d="M130.41,90.73c.46-1.14,2.59-2.68,4.39-3.24-.71,1.54-2.96,3.24-4.39,3.24Z"/>
    </g>
  </g>
</svg>