<?xml version="1.0" encoding="UTF-8"?>
<svg id="Layer_1" data-name="Layer 1" xmlns="http://www.w3.org/2000/svg" viewBox="0 0 180 200">
  <defs>
    <style>
      .cls-1 {
        fill: #050505;
      }

      .cls-2 {
        fill: #525352;
      }

      .cls-3 {
        fill: #b3bb35;
      }

      .cls-4 {
        fill: #231f20;
      }

      .cls-4, .cls-5 {
        fill-rule: evenodd;
      }

      .cls-6, .cls-7 {
        fill: #fff;
      }

      .cls-8 {
        fill: #b4bc35;
      }

      .cls-5 {
        fill: #9a495c;
      }

      .cls-9 {
        fill: #353535;
      }

      .cls-7 {
        font-family: AmericanTypewriter-Bold, 'American Typewriter';
        font-size: 23.14px;
        font-weight: 700;
        letter-spacing: .02em;
      }
    </style>
  </defs>
  <g>
    <polygon class="cls-5" points="29.23 80.97 6.28 114.56 7.43 116 51.2 114.49 35.48 85.6 30.8 80.13 29.23 80.97 29.23 80.97"/>
    <path class="cls-4" d="M28.1,85.32c-.83.36-.24-.83-1.07-.47-.4.13-.18.83-1,.58-.32,1.37-.64,2.72-1.93,3.22-.31,1.44.73,1.38,1.15,2.03-1.81,1.32-1.82,5.56-5.01,4.16.29.77,1.25.81,1.39,1.76-.69.35-1.2.49-1.53.59,1.11.9-.3.68-.72,1.34-1.11,1.72-1.71,4.44-3.66,4.87-.07,1.26-.53,2.17-1.71,2.43.66,1.35-.38.19-.74.82,1.67.32-1.07,1.14.1,1.82-1.85.39-1.4,2.87-2.68,3.78-.17-.45.24-1.55-.33-1.55,0,.41.08.9-.49.81-.28.86.85.15.57,1.01-1.08.27-.88,1.69-1.44,2.42,2.71-.6,7.11-.64,10.14-.51.04-.2-.02-.51.23-.54,10.08.92,18.12-.65,30.43-.98-.56-2.73-2.98-4.05-3.92-5.54-.31-2.31-2.5-2.54-2.59-5.08-1.17.17-1-.93-.86-1.52-1.04.02-1.97-1.66-1.14-2.03-.81.44-.87-.15-1.59-.44-1.88-5.68-6.37-9.68-8.52-14.17.01.26-.44.35-.52.02.32-.04.61-.11.5-.54-.73.25-.69-.33-1.32-.19-1.26,1.75-1.82,4.14-3.92,5.14.55.89-.19,1.26-.68,1.86-.32-1.03-.06-2.03.38-2.89.43-.02.18.71.56.75.06-1.12.95-3.24,1.71-2.17-.03-.36.09-.58.22-.79h0ZM43.28,97.34c1.54.22,1.13,2.58,2.74,2.73.04,1.68.91,2.47,1.97,3.03-.12,1.78.89,2.31,1.96,2.77.12.44-.18.5-.49.54.37.36,1.22.59.58,1.28.2-.15.41-.3.76-.3.12.52-.01.82-.48.81.52.66,2.02,2.08,1.17,2.55.27.44.84.53,1.58.44.15,2.13,1.32,3.12,1.31,5.41-.25-.15-.98-.56-.76.3-.47-.49-1.81-.01-1.87-.95-.58,1.02-1.78-.68-3.09.68-.79.13-.58-.82-.85-1.26-.74.26.37.64.07,1.3-.2-.17-.88-1.06-.78.04-3.63-.25-9.02-.27-12.24.08-.01-.26-.03-.51-.04-.78-1.17.69-2.55.83-3.64.18-.7,1.02-5.54,1.05-7.02.35-2.86,1.64-9.21.1-10.59,1.82-2.24-1.26-6.1.17-8.9-.86-.26-.82.17-1,.46-1.33-1.05-.04-.44-.19-.61-1.79,1.21-.39,1.71-1.43,1.68-2.95,1.21.19.52-1.34,1.77-1.13-.23-.79-.21-.49-.07-1.3,1.77.2.7-2.18,2.23-2.19-.18-.26-.61-.24-.56-.76,1.05.29.49-.88,1.53-.59-.02-.43-.04-.87-.06-1.3.22-.21.58-.31,1.02-.31,1.53-3.92,4.38-6.63,6-10.46.9-.02,1.18-.58.96-1.61.76.03.76-.62,1.53-.6.63-3.48,3.95-4.54,4.55-8.04,2.85-.64,2.17-4.48,4.95-5.19-.18-.26-.61-.24-.56-.75.86-.06,1.27-.51,2.33-.38,1.16.82-.31,1.34,1.36,1.23-1.07,1.17.34,4.61,1.51,4.09.38.07.07,1.97,1.38,1.76-.14.8.32.93.35,1.54,3.34,2.79,3.98,8.57,7.33,11.36.12.44-.18.5-.5.55h0Z"/>
  </g>
  <text class="cls-7" transform="translate(23.43 109.75) scale(.79 1)"><tspan x="0" y="0">8</tspan></text>
  <g>
    <path d="M166.17,50.12c0,2.13.03,4.1,0,6.06-.02,1.27-.2,2.54-.2,3.81-.01,4.67.05,9.34.02,14.01-.04,7.37-.18,14.73-.18,22.1,0,4.67.34,9.35.29,14.02-.11,11.34-.36,22.67-.53,34.01-.01.91.11,1.83.2,2.74.1.98-.3,1.6-1.29,1.78-.55.1-1.13.12-1.7.1-6.94-.24-13.87-.56-20.81-.73-3.25-.08-6.51.14-9.77.17-6.87.04-13.75.04-20.62.07-6.95.02-13.89.12-20.84.05-4.53-.05-9.05-.43-13.58-.52-4.67-.09-9.35,0-14.02-.03-1.34,0-2.68-.13-4.26-.22-.15-.93-.43-1.8-.42-2.68.08-7.16.28-14.31.33-21.47.04-6.59.02-13.18-.1-19.77-.16-8-.5-16-.68-24-.1-4.18-.1-8.36-.02-12.53.09-4.82.31-9.63.52-14.44.04-.96.29-1.9.43-2.81,8.81,1.3,17.55.54,26.3.07,6.51-.35,13.01-.67,19.53-.37,3.46.16,6.93-.19,10.4-.27,4.81-.12,9.63-.33,14.45-.28,4.17.05,8.34.5,12.52.61,6.66.17,13.32.19,19.98.3,1.26.02,2.51.15,4.06.24ZM165.01,51.21c-.9-.11-1.65-.28-2.4-.28-3.61-.05-7.23,0-10.84-.09-5.81-.14-11.61-.43-17.42-.52-5.87-.09-11.75-.06-17.62-.03-4.11.02-8.21.14-12.32.23-6.66.15-13.31.28-19.97.46-5.87.16-11.74.43-17.61.56-2.18.05-4.36-.15-6.8-.24-.12.99-.3,1.94-.33,2.9-.1,2.83-.11,5.67-.21,8.5-.15,4.1-.56,8.2-.49,12.29.18,11.4.69,22.8.81,34.21.1,9.56-.18,19.12-.27,28.69-.02,2.81.06,5.63.1,8.39.44.15.64.28.83.27,3.89-.19,7.73.56,11.65.26,4.14-.32,8.34.14,12.51.19,4.82.05,9.63.01,14.45.04,9.57.05,19.14.34,28.7.11,10.57-.25,21.11.04,31.65.51,1.6.07,3.21-.05,4.87-.08.08-.66.17-1.07.17-1.49.2-11.9.47-23.8.55-35.71.05-7.58-.18-15.16-.26-22.74-.03-2.41-.03-4.81,0-7.22.05-3.82.18-7.65.18-11.47,0-4.46-.46-8.91.2-13.36.2-1.37-.06-2.8-.11-4.38Z"/>
    <path class="cls-1" d="M165.01,51.21c.05,1.58.32,3.02.11,4.38-.66,4.46-.21,8.91-.2,13.36,0,3.82-.13,7.65-.18,11.47-.03,2.41-.03,4.81,0,7.22.09,7.58.32,15.16.26,22.74-.08,11.9-.35,23.8-.55,35.71,0,.41-.09.82-.17,1.49-1.66.03-3.27.15-4.87.08-10.55-.47-21.09-.76-31.65-.51-9.56.23-19.13-.06-28.7-.11-4.82-.02-9.63.01-14.45-.04-4.17-.05-8.37-.51-12.51-.19-3.93.3-7.77-.45-11.65-.26-.19,0-.39-.12-.83-.27-.04-2.76-.12-5.58-.1-8.39.08-9.56.37-19.13.27-28.69-.12-11.4-.62-22.8-.81-34.21-.07-4.09.34-8.19.49-12.29.1-2.83.11-5.67.21-8.5.03-.96.22-1.91.33-2.9,2.45.1,4.63.29,6.8.24,5.87-.13,11.74-.4,17.61-.56,6.66-.18,13.31-.32,19.97-.46,4.11-.09,8.21-.2,12.32-.23,5.87-.04,11.75-.07,17.62.03,5.81.09,11.61.38,17.42.52,3.61.09,7.23.04,10.84.09.75,0,1.5.17,2.4.28ZM137.79,113.86c.11-1.23.26-2.19.27-3.15,0-.99-.5-1.52-1.58-1.55-2.11-.06-4.22-.24-6.34-.31-2.8-.09-3.19.38-2.72,3.16.02.14.06.28.09.41.15.97.63,1.48,1.7,1.46,2.74-.04,5.49-.01,8.58-.01ZM123.28,68.03c-1.68,3.25-4.74,5.43-6.18,8.76,2.32.83,6.89.57,9.28-.65-2.37-1.24-4.62.03-6.81-.55.31-.47.5-.83.75-1.14,1.53-1.94,3.08-3.86,4.61-5.8.42-.53,1.22-1.12.64-1.79-.37-.42-1.24-.57-1.88-.57-1.83,0-3.66.14-5.49.26-.23.01-.45.22-1,.51,2.01,1.5,4.16.34,6.09.97ZM146.42,65.95c-.25.47-.45.77-.59,1.1-1.38,3.17-2.76,6.33-4.08,9.52-.09.23.27.65.58,1.32.73-1.08,1.26-1.87,1.82-2.7h4.62c.9.72.93,2.53,2.8,1.7-.85-1.88-1.6-3.68-2.48-5.43-.84-1.68-.65-3.87-2.68-5.51ZM136.47,68.09c-.46.54-.75.85-1.01,1.17-1.46,1.83-2.94,3.63-4.35,5.49-.75,1-.56,1.83.49,1.9,2.3.14,4.62.01,6.93-.02.06,0,.11-.23.25-.56-.73-.83-1.77-.47-2.67-.54-1.03-.07-2.06-.1-3.57-.17,1.35-1.74,2.46-3.08,3.47-4.49,1-1.38,2.68-2.23,3.37-3.92-1.72-.8-7.91-.52-9.63.48,2.22.77,4.38.13,6.71.66ZM105.98,66.73c0,1.07,0,2.11,0,3.15-.02,1.91-.06,3.83-.07,5.74,0,.83.18,1.62,1.24,1.61,1.56,0,3.12-.02,4.67-.13.61-.05,1.26-.33,1.06-1.38h-5.32v-3.35c1.52-.55,3.28.44,4.46-1.24-1.51-1.05-3.16.41-4.62-.54v-2.59q4.74-.6,5.52-1.84c-2.31.19-4.44.36-6.95.57ZM77.14,73.68c-.42-1.03-.64-1.6-.87-2.16-.59-1.44-1.14-2.89-1.8-4.3-.17-.36-.69-.54-1.05-.81-.11.42-.42.91-.3,1.25.99,2.87,2.05,5.71,3.12,8.55.29.76.96.84,1.47.23.22-.27.37-.6.51-.92,1.14-2.58,2.28-5.16,3.41-7.74.25-.56.36-1.09-.64-1.53-1.75,1.97-2.59,4.51-3.85,7.42ZM73.61,106.38c2.75.25,5.33.47,7.9.74,1.37.14,1.72-.14,1.91-1.72.15-1.27-.12-1.6-1.5-1.64-2.39-.07-4.79-.1-7.18-.12-.46,0-.92.12-1.51.2.15.96.27,1.77.39,2.55ZM93.57,66.75c-.24.07-.49.14-.73.2.08.57.07,1.17.25,1.71.74,2.13,1.54,4.24,2.33,6.35.12.33.25.67.44.96.52.78,1.14.82,1.68.08.32-.45.54-.99.77-1.5,1.01-2.25,2-4.51,3.01-6.75.23-.51.69-1.12-.1-1.38-.32-.11-1.06.34-1.26.71-.77,1.42-1.4,2.92-2.08,4.39-.32.7-.64,1.41-1.09,2.41-1.23-2.65-1.78-5.13-3.22-7.17ZM139.74,90.33c1.48,0,2.75.13,3.99-.03,2-.25,3.07-1.83,3.02-4.17-.05-2.07-1.33-3.54-3.33-3.63-1.16-.06-2.32.09-3.67.15v7.68ZM113.76,137.93c2.69.18,5,.35,7.32.49.63.04,1.35.14,1.88-.1.47-.21.92-.82,1.07-1.34.19-.67-.38-.93-1.02-1.03-3.14-.49-6.3-.37-9.77-.26.21.89.37,1.59.52,2.24ZM135.38,87.19c1.06-1.03,1.2-2.14.47-3.32-.7-1.12-3.7-1.82-4.84-1.12-.26.16-.53.52-.56.81-.21,2.04-.37,4.09-.48,6.13-.01.24.43.51.89,1.02.18-1.25.3-2.13.47-3.31,1.05.21,2,.33,2.9.6,1.21.36.56,1.7,1.06,2.49,1.34-1.12,1.34-1.33.08-3.32ZM99.71,82.5c-1.47.37-1.22,1.43-1.37,2.23-.17.92-.28,1.85-.45,3.05-1.78-1.71-2.23-4.16-4.49-4.99-.7,2.19-.67,4.8.11,6.49.9-1.35-.11-2.85.61-4.19,1.71,1.47,2.04,4.11,4.45,5.02.92-2.58,1.06-4.99,1.14-7.62ZM73.83,128.77c-.54,1.78-.37,2.27.77,2.29,2.4.05,4.81.04,7.21.08.89.01,1.58-.2,1.61-1.23.03-1.14-.83-1.14-1.63-1.14-2.62,0-5.23,0-7.95,0ZM87.62,98.2c-.76.81-.45,1.57.1,2.29.49.64,1.1.31,1.73.23,1.32-.16,2.65-.2,3.98-.22,1.04-.01,2.08.09,3.13.13.02-1.89-.32-2.36-1.96-2.42-2.26-.08-4.52-.02-6.98-.02ZM108.16,89.05c-1.47-1.43-2.83.14-4.13-.51v-1.65c1-.23,1.85-.42,2.69-.61,0-.18,0-.36,0-.54-.89-.16-1.79-.32-2.71-.49v-1.45c1.22-.65,2.78.02,3.98-1.44-1.8-.59-3.3.15-4.93.09-.13,2.03-.32,3.92-.34,5.81,0,.54.36,1.46.73,1.56,1.57.41,3.07-.01,4.71-.79ZM96.62,130.36c-3.05-.21-5.99-.47-8.94-.59-1.17-.05-1.23.23-.88,1.85.06.03.12.09.18.1,2.81.21,5.63.45,8.44.6,1,.05,1.28-.69,1.19-1.95ZM120.29,89.83c.13.1.26.2.39.3,1.7-2.92,3.5-1.58,5.47.02,0-.7.07-1.04-.01-1.33-.5-1.81-1-3.62-1.58-5.4-.13-.39-.55-.69-.84-1.04-.33.31-.79.57-.96.95-.83,1.78-1.59,3.59-2.34,5.41-.13.32-.09.72-.13,1.09ZM130.13,132.21s0,.05,0,.07c-.63,0-1.29-.11-1.88.04-.37.09-.85.55-.9.91-.09.62.12,1.3.92,1.41.34.05.69-.07,1.04-.07,1.88-.03,3.76-.06,5.63-.08.49,0,1,.14,1.45.02.34-.09.61-.47.91-.73-.3-.33-.56-.9-.9-.95-2.08-.27-4.18-.43-6.28-.62ZM140.91,122.56q.23,1.9,1.37,1.89c2.4-.02,4.8-.02,7.19-.07.37,0,.73-.25,1.47-.52-.7-.64-1.16-1.42-1.63-1.43-2.74-.06-5.49.06-8.4.13ZM65.35,129.48s0,.02,0,.04c1.13,0,2.26.07,3.38-.04.46-.04,1.19-.43,1.25-.75.12-.74-.49-1.09-1.22-1.09-2.26-.01-4.51-.05-6.76.02-.36.01-.93.44-1.01.78-.18.67.33,1.02.99,1.04,1.13.02,2.26,0,3.38,0ZM123.79,130.56c-3.24-.29-6.28-.54-9.41-.42-.11,1.36.33,1.87,1.51,1.9,2.11.05,4.22.15,6.32.28,1.11.07,1.48-.5,1.59-1.76ZM150.68,100.15c-.03-1.52-.51-2.05-1.66-2.07-2.32-.05-4.64-.18-6.96-.25-.33,0-.67.14-.98.2,0,1.68.07,1.75,1.28,1.8,1.96.08,3.92.22,5.88.3.75.03,1.5,0,2.44,0ZM124.54,107.14c-1.58-2-3.68-1.5-5.5-1.62-3.98-.26-3.98-.19-4.82.7.57.94,1.45,1.23,2.5,1.22,2.38-.02,4.76-.02,7.14-.03.13,0,.26-.1.69-.27ZM96.61,123.88c.02-.99-.53-1.31-1.19-1.32-2.82-.06-5.63-.07-8.45-.08-.09,0-.18.19-.29.32-.02,1.04.6,1.2,1.5,1.19,2.26-.02,4.52.04,6.78.05.53,0,1.06-.1,1.64-.16ZM81.22,89.97c1.29-1.54,2.93-5.59,2.93-7.5-1.82,1.49-1.81,3.76-3.07,5.4-.97-1.73-1.08-3.75-2.66-5.18-.02,1.92,1.62,6.14,2.8,7.29ZM110.49,112.01c-.43-.53-.54-.82-.68-.83-2.87-.15-5.75-.3-8.62-.36-.23,0-.71.6-.65.81.08.3.53.71.84.72,1.9.08,3.81.1,5.71.05,1.03-.03,2.05-.23,3.39-.39ZM100.6,136.01c-.15,1.01.28,1.43,1.01,1.46,2.47.08,4.95.14,7.42.11.37,0,1-.42,1.06-.73.15-.78-.52-.84-1.11-.84-2.75,0-5.5,0-8.37,0ZM87.16,76.72c.29-.42.63-.68.63-.94-.01-2.97-.06-5.94-.16-8.91,0-.23-.5-.45-1.17-1.01,0,3.64-.01,6.8.03,9.96,0,.25.37.5.68.9ZM117.26,83.01c-.18-.18-.36-.36-.54-.55-.86.72-1.73,1.45-2.7,2.26-.82-.92-1.62-1.81-2.43-2.71-.15.08-.29.16-.44.24.14.47.15,1.08.45,1.4,1.6,1.67,2.28,3.63,2.2,5.91,0,.08.19.17.56.48.15-.61.45-1.12.34-1.52-.49-1.76.4-2.95,1.46-4.13.39-.43.72-.92,1.08-1.39ZM95.97,106.48c-2.36-1.51-7.54-1.43-9.04,0,.14.15.27.42.41.42,2.58.05,5.17.07,7.75.07.22,0,.45-.24.88-.49ZM96.2,136.58c-2.32-.88-8.05-1.16-9.26-.53,1.42,1.18,7.5,1.6,9.26.53ZM110.5,103.56c-1.6-1.42-7.98-1.29-9.88-.16.28.16.51.41.73.4,3.05-.06,6.1-.15,9.15-.24ZM83.01,99.31c-2.03-1.16-7.84-1.43-9.32-.56.13.16.25.43.39.45,2.65.21,5.31.4,7.97.56.22.01.46-.2.96-.45ZM154.29,109.67c1.09,1.29,6.46,1.25,8.91.33-.2-.22-.37-.57-.53-.57-2.79.06-5.58.15-8.37.24ZM154.28,118.31c1.96,1.47,7.42,1.38,9.14,0h-9.14ZM61.49,100.69c2.28,1.13,4.77.86,7.18,1.06.31.03.65-.34,1.44-.79-3.17-1.09-5.87-.7-8.62-.27ZM95.49,94.91c-1.5-.79-6.29-.89-8.64-.21.43.28.72.59,1.05.66,1.42.31,6.45.03,7.59-.46ZM150.51,141c-3.05-.4-6.08-.93-9.44-.09,2.05,1.01,7.7,1.09,9.44.09ZM141.5,108.51c1.39.7,6.81.82,8.19.18-1.21-.9-5.82-1-8.19-.18ZM128.74,98.5c1.63.87,6.12,1.05,7.94.45-.39-.3-.67-.7-.96-.72-2.33-.11-4.68-.49-6.97.27ZM100.78,108c2.37.84,6.94.9,8.21.11-1.49-.84-6.69-.91-8.21-.11ZM127.24,127.76c2.87.6,7.6.42,9.15-.27-2.29-.62-7.65-.54-9.15.27ZM114.53,94.77c1.4.94,6.3,1.29,7.54.85.18-.06.27-.38.57-.85h-8.11ZM162.96,125.65l-.09-.75c-1.36.15-2.71.3-4.07.43q-3.15.3-3.85,1.11c2.87.41,5.42-.38,8.01-.79ZM123.47,141.34c0-.2-.02-.41-.02-.61-2.86.08-5.75-.87-8.58.61h8.6ZM82.96,125.13c-2.94-.83-7.81-.66-9.04.2,3.16-.22,6.12.35,9.04-.2ZM162.02,104.26c-2.05-1.16-6.18-1.29-7.46-.4,2.51.6,4.97.66,7.46.4ZM101.14,133.47c1.72.95,7.36.73,8.38,0h-8.38ZM86.93,133.28c0,.16,0,.33,0,.49,1.38.54,7.2.74,9.19.03-3.06-.17-6.12-.35-9.18-.52ZM115.23,123.18c2.31.87,6.46.81,7.83.02-2.75-.28-5.29-.48-7.83-.02ZM88.27,83.36c-.66,1.71-.6,4.96-.07,6.67.24-.18.6-.31.61-.47.17-2.09-.05-4.16-.55-6.19ZM163.25,135.38c-2.44-.48-5.41-.29-6.5.42,1.34.51,5.27.26,6.5-.42ZM150.12,134.68c-1.93-.52-7.04-.23-8.19.48,2.94.23,5.57-.04,8.19-.48ZM81.15,117.23l.02-.54h-5.8s-.01.07-.02.11c1.93.14,3.86.29,5.8.43Z"/>
    <path class="cls-3" d="M137.79,113.86c-3.09,0-5.84-.03-8.58.01-1.07.02-1.54-.49-1.7-1.46-.02-.14-.06-.28-.09-.41-.47-2.78-.09-3.26,2.72-3.16,2.11.07,4.22.25,6.34.31,1.08.03,1.59.57,1.58,1.55,0,.96-.16,1.93-.27,3.15Z"/>
    <path class="cls-8" d="M123.28,68.03c-1.94-.63-4.08.53-6.09-.97.55-.29.77-.5,1-.51,1.83-.12,3.66-.25,5.49-.26.65,0,1.52.14,1.88.57.58.67-.22,1.26-.64,1.79-1.53,1.94-3.08,3.86-4.61,5.8-.25.31-.44.67-.75,1.14,2.19.59,4.45-.69,6.81.55-2.39,1.22-6.96,1.47-9.28.65,1.43-3.33,4.5-5.51,6.18-8.76Z"/>
    <path class="cls-8" d="M146.42,65.95c2.02,1.64,1.84,3.83,2.68,5.51.87,1.75,1.63,3.55,2.48,5.43-1.87.83-1.9-.98-2.8-1.7h-4.62c-.56.83-1.1,1.62-1.82,2.7-.31-.67-.68-1.09-.58-1.32,1.32-3.19,2.7-6.35,4.08-9.52.14-.33.34-.63.59-1.1ZM146.52,68.73c-.98,1.78-1.55,3.25-1.88,5.08,1.34-.1,2.41-.18,3.6-.26-.59-1.64-1.07-3.01-1.72-4.82Z"/>
    <path class="cls-8" d="M136.47,68.09c-2.33-.53-4.48.12-6.71-.66,1.72-1,7.91-1.29,9.63-.48-.69,1.69-2.37,2.54-3.37,3.92-1.01,1.41-2.12,2.75-3.47,4.49,1.51.07,2.54.1,3.57.17.91.07,1.95-.29,2.67.54-.14.33-.2.56-.25.56-2.31.04-4.63.16-6.93.02-1.05-.06-1.24-.89-.49-1.9,1.4-1.87,2.89-3.67,4.35-5.49.26-.33.54-.63,1.01-1.17Z"/>
    <path class="cls-8" d="M105.98,66.73c2.5-.2,4.63-.38,6.95-.57q-.77,1.25-5.52,1.84v2.59c1.46.95,3.11-.51,4.62.54-1.18,1.68-2.94.69-4.46,1.24v3.35h5.32c.2,1.05-.45,1.33-1.06,1.38-1.55.12-3.11.13-4.67.13-1.06,0-1.24-.78-1.24-1.61,0-1.91.05-3.83.07-5.74.01-1.04,0-2.08,0-3.15Z"/>
    <path class="cls-8" d="M77.14,73.68c1.26-2.91,2.1-5.45,3.85-7.42,1,.44.89.97.64,1.53-1.13,2.58-2.27,5.16-3.41,7.74-.14.32-.29.65-.51.92-.51.61-1.18.53-1.47-.23-1.07-2.84-2.13-5.68-3.12-8.55-.12-.34.19-.83.3-1.25.36.26.88.45,1.05.81.66,1.4,1.21,2.86,1.8,4.3.23.56.45,1.13.87,2.16Z"/>
    <path class="cls-6" d="M73.61,106.38c-.12-.77-.24-1.59-.39-2.55.59-.08,1.05-.2,1.51-.2,2.4.02,4.79.05,7.18.12,1.38.04,1.65.37,1.5,1.64-.19,1.58-.54,1.86-1.91,1.72-2.57-.27-5.15-.49-7.9-.74Z"/>
    <path class="cls-8" d="M93.57,66.75c1.44,2.04,2,4.52,3.22,7.17.45-1,.76-1.71,1.09-2.41.68-1.47,1.31-2.97,2.08-4.39.2-.38.94-.82,1.26-.71.79.26.33.87.1,1.38-1.01,2.25-2,4.51-3.01,6.75-.23.51-.45,1.05-.77,1.5-.53.74-1.15.7-1.68-.08-.19-.29-.32-.63-.44-.96-.79-2.11-1.59-4.22-2.33-6.35-.19-.53-.17-1.14-.25-1.71.24-.07.49-.14.73-.2Z"/>
    <path class="cls-8" d="M139.74,90.33v-7.68c1.35-.06,2.51-.21,3.67-.15,2,.1,3.29,1.56,3.33,3.63.05,2.34-1.01,3.92-3.02,4.17-1.24.15-2.51.03-3.99.03ZM140.98,84.04c-.03,1.76-.48,3.41.03,5.06,1.52.02,3.01.4,4-1,.6-.85.55-2.65-.05-3.43-1.04-1.35-2.41-.75-3.98-.64Z"/>
    <path class="cls-6" d="M113.76,137.93c-.15-.65-.31-1.35-.52-2.24,3.47-.1,6.62-.23,9.77.26.63.1,1.21.36,1.02,1.03-.15.52-.6,1.12-1.07,1.34-.53.24-1.25.13-1.88.1-2.32-.14-4.63-.31-7.32-.49Z"/>
    <path class="cls-8" d="M135.38,87.19c1.26,1.99,1.25,2.2-.08,3.32-.5-.79.14-2.14-1.06-2.49-.91-.27-1.85-.39-2.9-.6-.17,1.18-.29,2.06-.47,3.31-.46-.51-.9-.78-.89-1.02.11-2.05.27-4.09.48-6.13.03-.29.3-.65.56-.81,1.14-.71,4.14,0,4.84,1.12.73,1.18.59,2.29-.47,3.32ZM131.3,86.22c1.07,0,1.96.07,2.82-.04.31-.04.8-.5.8-.77,0-.41-.25-1.05-.57-1.18-.8-.33-1.69-.42-2.73-.65-.12.97-.2,1.69-.32,2.64Z"/>
    <path class="cls-8" d="M99.71,82.5c-.08,2.62-.22,5.04-1.14,7.62-2.42-.91-2.74-3.55-4.45-5.02-.73,1.34.28,2.84-.61,4.19-.78-1.69-.81-4.3-.11-6.49,2.26.83,2.72,3.28,4.49,4.99.18-1.2.28-2.13.45-3.05.15-.81-.11-1.86,1.37-2.23Z"/>
    <path class="cls-6" d="M73.83,128.77c2.72,0,5.34,0,7.95,0,.8,0,1.66,0,1.63,1.14-.02,1.03-.72,1.24-1.61,1.23-2.4-.04-4.81-.03-7.21-.08-1.14-.02-1.31-.51-.77-2.29Z"/>
    <path class="cls-6" d="M87.62,98.2c2.46,0,4.72-.06,6.98.02,1.65.06,1.99.53,1.96,2.42-1.05-.05-2.09-.15-3.13-.13-1.33.02-2.66.06-3.98.22-.63.08-1.24.41-1.73-.23-.55-.72-.86-1.48-.1-2.29Z"/>
    <path class="cls-8" d="M108.16,89.05c-1.64.77-3.14,1.19-4.71.79-.37-.09-.74-1.02-.73-1.56.02-1.89.21-3.78.34-5.81,1.63.05,3.13-.68,4.93-.09-1.2,1.45-2.76.79-3.98,1.44v1.45c.93.17,1.82.33,2.71.49,0,.18,0,.36,0,.54-.84.19-1.69.38-2.69.61v1.65c1.3.65,2.66-.92,4.13.51Z"/>
    <path class="cls-6" d="M96.62,130.36c.1,1.26-.19,2-1.19,1.95-2.82-.14-5.63-.39-8.44-.6-.06,0-.12-.06-.18-.1-.36-1.62-.29-1.89.88-1.85,2.95.12,5.89.38,8.94.59Z"/>
    <path class="cls-8" d="M120.29,89.83c.04-.36,0-.76.13-1.09.75-1.82,1.51-3.63,2.34-5.41.18-.38.64-.64.96-.95.29.34.71.64.84,1.04.58,1.78,1.08,3.59,1.58,5.4.08.29.01.63.01,1.33-1.97-1.6-3.77-2.94-5.47-.02-.13-.1-.26-.2-.39-.3ZM122.63,86.85c.14.13.28.27.43.4.28-.24.77-.47.8-.74.04-.39-.26-.81-.55-1.56-.31.89-.49,1.39-.67,1.9Z"/>
    <path class="cls-3" d="M130.13,132.21c2.09.19,4.19.35,6.28.62.33.04.6.62.9.95-.3.25-.57.64-.91.73-.45.11-.97-.03-1.45-.02-1.88.02-3.76.05-5.63.08-.35,0-.7.12-1.04.07-.8-.11-1.01-.79-.92-1.41.05-.35.53-.81.9-.91.59-.15,1.25-.04,1.88-.04,0-.02,0-.05,0-.07Z"/>
    <path class="cls-9" d="M140.91,122.56c2.9-.07,5.65-.19,8.4-.13.48.01.93.79,1.63,1.43-.74.27-1.1.51-1.47.52-2.4.05-4.8.05-7.19.07q-1.14,0-1.37-1.89Z"/>
    <path class="cls-6" d="M65.35,129.48c-1.13,0-2.26.01-3.38,0-.66-.01-1.17-.37-.99-1.04.09-.34.65-.77,1.01-.78,2.25-.07,4.51-.03,6.76-.02.73,0,1.34.35,1.22,1.09-.05.32-.79.71-1.25.75-1.12.11-2.25.04-3.38.04,0-.01,0-.02,0-.04Z"/>
    <path class="cls-6" d="M123.79,130.56c-.1,1.26-.48,1.83-1.59,1.76-2.1-.13-4.21-.23-6.32-.28-1.17-.03-1.62-.54-1.51-1.9,3.14-.12,6.18.12,9.41.42Z"/>
    <path class="cls-6" d="M150.68,100.15c-.94,0-1.69.03-2.44,0-1.96-.09-3.92-.22-5.88-.3-1.21-.05-1.28-.12-1.28-1.8.32-.07.65-.21.98-.2,2.32.07,4.64.2,6.96.25,1.15.02,1.64.55,1.66,2.07Z"/>
    <path class="cls-6" d="M124.54,107.14c-.44.17-.56.27-.69.27-2.38.02-4.76.01-7.14.03-1.05,0-1.93-.28-2.5-1.22.84-.88.85-.96,4.82-.7,1.83.12,3.93-.38,5.5,1.62Z"/>
    <path class="cls-6" d="M96.61,123.88c-.58.06-1.11.16-1.64.16-2.26,0-4.52-.07-6.78-.05-.9,0-1.53-.15-1.5-1.19.11-.13.2-.32.29-.32,2.82,0,5.63.01,8.45.08.66.01,1.21.33,1.19,1.32Z"/>
    <path class="cls-8" d="M81.22,89.97c-1.18-1.15-2.81-5.37-2.8-7.29,1.58,1.43,1.69,3.45,2.66,5.18,1.26-1.64,1.25-3.91,3.07-5.4,0,1.91-1.63,5.97-2.93,7.5Z"/>
    <path class="cls-6" d="M110.49,112.01c-1.35.16-2.37.36-3.39.39-1.9.05-3.81.03-5.71-.05-.31-.01-.77-.42-.84-.72-.05-.21.42-.82.65-.81,2.88.07,5.75.21,8.62.36.13,0,.25.29.68.83Z"/>
    <path class="cls-6" d="M100.6,136.01c2.87,0,5.62,0,8.37,0,.6,0,1.26.06,1.11.84-.06.31-.68.73-1.06.73-2.47.02-4.95-.03-7.42-.11-.72-.02-1.16-.45-1.01-1.46Z"/>
    <path class="cls-8" d="M87.16,76.72c-.31-.4-.68-.65-.68-.9-.04-3.16-.03-6.32-.03-9.96.67.56,1.16.78,1.17,1.01.1,2.97.15,5.94.16,8.91,0,.26-.34.53-.63.94Z"/>
    <path class="cls-8" d="M117.26,83.01c-.36.47-.68.96-1.08,1.39-1.07,1.18-1.95,2.37-1.46,4.13.11.4-.19.91-.34,1.52-.37-.31-.57-.4-.56-.48.07-2.27-.6-4.24-2.2-5.91-.31-.32-.31-.93-.45-1.4.15-.08.29-.16.44-.24.8.9,1.61,1.79,2.43,2.71.97-.82,1.83-1.54,2.7-2.26.18.18.36.36.54.55Z"/>
    <path class="cls-6" d="M95.97,106.48c-.44.25-.66.49-.88.49-2.58,0-5.17-.02-7.75-.07-.14,0-.27-.27-.41-.42,1.5-1.43,6.67-1.51,9.04,0Z"/>
    <path class="cls-6" d="M96.2,136.58c-1.76,1.08-7.84.65-9.26-.53,1.21-.63,6.94-.35,9.26.53Z"/>
    <path class="cls-6" d="M110.5,103.56c-3.05.09-6.1.18-9.15.24-.22,0-.45-.24-.73-.4,1.89-1.13,8.28-1.25,9.88.16Z"/>
    <path class="cls-9" d="M83.01,99.31c-.5.24-.74.46-.96.45-2.66-.16-5.32-.35-7.97-.56-.14-.01-.26-.29-.39-.45,1.48-.86,7.29-.6,9.32.56Z"/>
    <path class="cls-6" d="M154.29,109.67c2.79-.09,5.58-.19,8.37-.24.16,0,.33.34.53.57-2.45.92-7.82.97-8.91-.33Z"/>
    <path class="cls-6" d="M154.28,118.31h9.14c-1.72,1.38-7.18,1.47-9.14,0Z"/>
    <path class="cls-6" d="M61.49,100.69c2.75-.43,5.45-.82,8.62.27-.79.45-1.13.81-1.44.79-2.42-.2-4.9.08-7.18-1.06Z"/>
    <path class="cls-6" d="M95.49,94.91c-1.14.49-6.17.77-7.59.46-.33-.07-.62-.38-1.05-.66,2.35-.68,7.14-.59,8.64.21Z"/>
    <path class="cls-6" d="M150.51,141c-1.74,1.01-7.39.92-9.44-.09,3.36-.84,6.39-.32,9.44.09Z"/>
    <path class="cls-9" d="M141.5,108.51c2.37-.82,6.98-.72,8.19.18-1.38.63-6.8.51-8.19-.18Z"/>
    <path class="cls-3" d="M128.74,98.5c2.29-.76,4.64-.37,6.97-.27.3.01.58.42.96.72-1.81.6-6.31.42-7.94-.45Z"/>
    <path class="cls-6" d="M100.78,108c1.52-.8,6.71-.73,8.21.11-1.27.8-5.84.73-8.21-.11Z"/>
    <path class="cls-3" d="M127.24,127.76c1.49-.81,6.85-.89,9.15-.27-1.55.69-6.28.87-9.15.27Z"/>
    <path class="cls-6" d="M114.53,94.77h8.11c-.3.47-.39.79-.57.85-1.24.44-6.13.09-7.54-.85Z"/>
    <path class="cls-6" d="M162.96,125.65c-2.59.41-5.14,1.2-8.01.79q.7-.81,3.85-1.11c1.36-.13,2.71-.29,4.07-.43l.09.75Z"/>
    <path class="cls-6" d="M123.47,141.34h-8.6c2.83-1.48,5.72-.53,8.58-.61,0,.2.02.41.02.61Z"/>
    <path class="cls-2" d="M82.96,125.13c-2.92.55-5.88-.02-9.04.2,1.24-.86,6.1-1.03,9.04-.2Z"/>
    <path class="cls-9" d="M162.02,104.26c-2.49.27-4.95.2-7.46-.4,1.28-.89,5.42-.76,7.46.4Z"/>
    <path class="cls-9" d="M101.14,133.47h8.38c-1.02.73-6.66.95-8.38,0Z"/>
    <path class="cls-6" d="M86.93,133.28c3.06.17,6.12.35,9.18.52-1.99.7-7.81.51-9.19-.03,0-.16,0-.33,0-.49Z"/>
    <path class="cls-6" d="M115.23,123.18c2.54-.46,5.08-.26,7.83.02-1.37.79-5.52.85-7.83-.02Z"/>
    <path class="cls-8" d="M88.27,83.36c.5,2.04.71,4.1.55,6.19-.01.16-.37.29-.61.47-.53-1.7-.6-4.95.07-6.67Z"/>
    <path class="cls-9" d="M163.25,135.38c-1.23.67-5.16.93-6.5.42,1.1-.7,4.06-.9,6.5-.42Z"/>
    <path d="M150.12,134.68c-2.62.44-5.24.71-8.19.48,1.14-.71,6.25-1,8.19-.48Z"/>
    <path d="M81.15,117.23c-1.93-.14-3.86-.29-5.8-.43,0-.04.01-.07.02-.11h5.8l-.02.54Z"/>
    <path class="cls-1" d="M146.52,68.73c.65,1.81,1.13,3.18,1.72,4.82-1.2.09-2.26.17-3.6.26.33-1.83.9-3.3,1.88-5.08Z"/>
    <path class="cls-1" d="M140.98,84.04c1.57-.11,2.94-.71,3.98.64.6.78.65,2.58.05,3.43-.99,1.4-2.48,1.03-4,1-.51-1.66-.06-3.3-.03-5.06Z"/>
    <path class="cls-1" d="M131.3,86.22c.11-.95.2-1.67.32-2.64,1.05.23,1.94.33,2.73.65.32.13.57.77.57,1.18,0,.27-.49.73-.8.77-.86.11-1.74.04-2.82.04Z"/>
    <path class="cls-1" d="M122.63,86.85c.18-.51.36-1.01.67-1.9.29.75.59,1.17.55,1.56-.03.27-.51.49-.8.74-.14-.13-.28-.27-.43-.4Z"/>
  </g>
</svg>