<?xml version="1.0" encoding="UTF-8"?>
<svg id="Layer_1" data-name="Layer 1" xmlns="http://www.w3.org/2000/svg" viewBox="0 0 180 200">
  <defs>
    <style>
      .cls-1, .cls-2, .cls-3, .cls-4, .cls-5, .cls-6, .cls-7, .cls-8 {
        fill-rule: evenodd;
      }

      .cls-1, .cls-2, .cls-3, .cls-4, .cls-9 {
        fill: #fff;
      }

      .cls-2 {
        stroke-width: .76px;
      }

      .cls-2, .cls-3, .cls-4 {
        stroke: #fff;
        stroke-miterlimit: 10;
      }

      .cls-3 {
        stroke-width: 1.08px;
      }

      .cls-4 {
        stroke-width: .83px;
      }

      .cls-5 {
        fill: #231f20;
      }

      .cls-7 {
        fill: #ec1e24;
      }

      .cls-8 {
        fill: #9a495c;
      }

      .cls-9 {
        font-family: AmericanTypewriter-Bold, 'American Typewriter';
        font-size: 23.14px;
        font-weight: 700;
        letter-spacing: .02em;
      }
    </style>
  </defs>
  <g>
    <polygon class="cls-8" points="28.45 77.53 5.5 111.12 6.65 112.57 50.42 111.05 34.7 82.16 30.02 76.69 28.45 77.53 28.45 77.53"/>
    <path class="cls-5" d="M27.32,81.89c-.82.36-.24-.84-1.07-.47-.4.14-.18.83-1,.58-.32,1.37-.64,2.72-1.93,3.22-.31,1.44.73,1.38,1.15,2.03-1.81,1.33-1.82,5.57-5.01,4.16.29.77,1.25.81,1.39,1.76-.69.35-1.2.49-1.53.59,1.11.91-.3.68-.72,1.34-1.11,1.72-1.71,4.44-3.66,4.87-.07,1.25-.53,2.17-1.71,2.43.66,1.35-.38.18-.74.82,1.67.32-1.07,1.14.1,1.82-1.85.39-1.4,2.87-2.68,3.78-.17-.45.24-1.54-.33-1.55,0,.41.08.9-.49.8-.28.86.85.16.57,1.01-1.08.26-.88,1.69-1.44,2.42,2.71-.6,7.11-.64,10.14-.5.04-.2-.02-.51.23-.54,10.08.93,18.12-.64,30.43-.98-.56-2.73-2.98-4.05-3.92-5.54-.31-2.31-2.5-2.54-2.59-5.08-1.17.17-1-.93-.86-1.52-1.04.02-1.97-1.66-1.14-2.03-.81.44-.87-.15-1.59-.44-1.88-5.68-6.37-9.68-8.52-14.17.01.26-.44.35-.52.02.32-.04.61-.11.5-.55-.73.25-.69-.33-1.31-.19-1.26,1.76-1.82,4.14-3.92,5.14.55.89-.19,1.27-.68,1.86-.32-1.04-.06-2.03.38-2.89.43-.02.18.72.56.76.06-1.12.95-3.25,1.72-2.17-.03-.36.09-.58.22-.79h0ZM42.5,93.9c1.54.23,1.13,2.59,2.74,2.73.04,1.68.91,2.47,1.97,3.03-.12,1.78.89,2.31,1.96,2.77.12.44-.18.5-.49.55.37.36,1.22.6.58,1.28.2-.15.41-.29.76-.31.12.52-.01.82-.48.81.52.67,2.02,2.08,1.17,2.55.27.44.84.53,1.58.44.15,2.13,1.32,3.12,1.31,5.41-.25-.15-.98-.56-.76.3-.47-.49-1.81-.02-1.87-.95-.58,1.02-1.78-.68-3.09.67-.79.13-.58-.82-.85-1.26-.74.26.37.63.07,1.3-.2-.17-.88-1.05-.78.04-3.63-.25-9.02-.27-12.24.08-.01-.26-.03-.51-.04-.78-1.17.7-2.55.83-3.64.18-.7,1.01-5.54,1.05-7.02.35-2.86,1.64-9.21.09-10.59,1.82-2.24-1.26-6.1.17-8.9-.86-.26-.82.17-1,.46-1.33-1.05-.04-.44-.2-.61-1.79,1.21-.4,1.71-1.43,1.68-2.95,1.21.19.52-1.34,1.77-1.13-.23-.78-.21-.49-.07-1.3,1.77.2.7-2.18,2.23-2.19-.18-.26-.61-.24-.56-.76,1.05.29.49-.88,1.53-.6-.02-.43-.04-.87-.06-1.3.22-.21.58-.31,1.02-.31,1.53-3.92,4.38-6.64,6-10.46.9-.02,1.18-.58.96-1.61.76.03.76-.63,1.53-.6.63-3.48,3.95-4.53,4.55-8.05,2.85-.64,2.17-4.48,4.95-5.19-.18-.26-.61-.24-.56-.75.86-.06,1.27-.51,2.33-.38,1.16.83-.31,1.34,1.36,1.23-1.07,1.18.34,4.61,1.51,4.1.38.07.07,1.97,1.38,1.76-.14.8.32.93.35,1.54,3.34,2.79,3.98,8.57,7.33,11.36.12.44-.18.5-.5.55h0Z"/>
  </g>
  <g>
    <path class="cls-6" d="M110.3,47.77h2.41c8.06,0,15.85,1.27,23.13,4.9,6.83,3.42,12.75,8.06,17.64,13.92,2.22,2.66,4.33,5.47,6.14,8.42,1.42,2.31,2.34,4.94,3.45,7.44,1.77,4.01,2.59,8.25,3.29,12.57.62,3.79.57,7.59.84,11.38.07,1.05-.11,2.14-.35,3.18-1.29,5.68-2.75,11.32-5.38,16.57-2.84,5.67-6.67,10.59-11.37,14.85-3.08,2.79-6.1,5.67-9.71,7.74-4.29,2.46-8.55,5.14-13.14,6.85-6.16,2.3-12.7,3.33-19.34,2.68-6.48-.63-12.83-1.95-19.02-4.01-3.83-1.28-7.45-2.93-10.74-5.32-2.97-2.16-6.05-4.16-8.66-6.77-2.65-2.66-5.03-5.55-7.01-8.73-.73-1.17-1.17-2.52-1.63-3.83-2.17-6.26-4.21-12.57-4.99-19.19-.19-1.65-.12-3.34-.05-5,.15-3.41.46-6.81.57-10.22.11-3.33.98-6.49,2.02-9.59.98-2.9,2.44-5.64,3.48-8.52,2.36-6.55,7.16-11.19,12.11-15.71,2.72-2.47,5.54-4.84,8.33-7.22.5-.43,1.1-.77,1.7-1.06,5.1-2.45,10.37-4.31,16.07-4.74,3.4-.25,6.8-.53,10.2-.8,0,.07,0,.13.02.2ZM108.97,49.81c-2.99.13-6,.22-9.01.41-7.22.47-13.68,2.94-19.24,7.6-2.46,2.06-4.89,4.16-7.24,6.34-3.5,3.24-6.78,6.73-8.85,11.07-1.81,3.79-3.3,7.74-4.83,11.66-2.07,5.3-2.25,10.81-1.51,16.39.33,2.52.74,5.04.88,7.57.28,5.24,1.1,10.36,2.8,15.32,1.2,3.48,2.48,6.99,4.94,9.79,3.31,3.77,6.92,7.27,10.87,10.37,1.73,1.36,3.51,2.73,5.47,3.69,4.15,2.04,8.56,3.45,13.11,4.34,5.4,1.06,10.85,1.67,16.35,1.23,3.59-.3,7.18-.78,10.73-1.4,3.86-.67,7.38-2.3,10.72-4.34,3.53-2.16,7.33-3.9,10.32-6.88,1.09-1.08,2.33-2,3.5-2.99,2.15-1.82,4.33-3.62,5.78-6.08,2.65-4.48,5.45-8.91,7.74-13.57,2.71-5.52,4.24-11.46,3.65-17.67-.7-7.4-1.76-14.76-4.98-21.59-.74-1.57-1.27-3.28-2.21-4.71-1.84-2.79-3.82-5.49-5.9-8.11-3.47-4.38-7.44-8.24-12.35-11-2.68-1.51-5.36-3.07-8.2-4.2-4.24-1.69-8.77-2.4-13.31-2.83-3.06-.29-6.14-.29-9.23-.41Z"/>
    <path class="cls-7" d="M108.97,49.81c3.09.13,6.17.13,9.23.41,4.54.43,9.06,1.14,13.31,2.83,2.84,1.13,5.52,2.69,8.2,4.2,4.91,2.76,8.88,6.62,12.35,11,2.07,2.62,4.06,5.32,5.9,8.11.94,1.43,1.47,3.14,2.21,4.71,3.23,6.84,4.29,14.19,4.98,21.59.58,6.21-.95,12.15-3.65,17.67-2.29,4.66-5.08,9.09-7.74,13.57-1.45,2.45-3.63,4.26-5.78,6.08-1.18.99-2.42,1.91-3.5,2.99-2.99,2.98-6.79,4.73-10.32,6.88-3.35,2.04-6.87,3.67-10.72,4.34-3.55.62-7.14,1.1-10.73,1.4-5.49.45-10.95-.17-16.35-1.23-4.55-.89-8.96-2.3-13.11-4.34-1.95-.97-3.74-2.34-5.47-3.69-3.95-3.1-7.56-6.6-10.87-10.37-2.46-2.8-3.74-6.32-4.94-9.79-1.71-4.96-2.52-10.09-2.8-15.32-.14-2.53-.55-5.05-.88-7.57-.73-5.58-.56-11.08,1.51-16.39,1.53-3.92,3.02-7.87,4.83-11.66,2.07-4.34,5.36-7.82,8.85-11.07,2.35-2.18,4.78-4.28,7.24-6.34,5.57-4.66,12.02-7.12,19.24-7.6,3-.19,6.01-.28,9.01-.41Z"/>
    <path class="cls-3" d="M134.51,86.2c-.61.08-.81-.27-.96-.69-.52-1.49-1.04-2.97-1.56-4.45-.88-2.5-1.28-5.1-1.8-7.69-.02-.12-.06-.24-.22-.36-.06.62-.17,1.23-.17,1.85-.01,2.21.02,4.43.01,6.64,0,1-.04,1.99-.06,2.99,0,.29-.02.64-.41.64-.42,0-.49-.36-.48-.7.03-1.09.08-2.18.09-3.27.02-1.93.01-3.86.05-5.78.02-1.21.08-2.43.15-3.65,0-.18.1-.35.16-.57.93.2,1.45.61,1.63,1.61.63,3.65,1.44,7.25,2.86,10.69.06.14.12.29.21.51.09-.15.17-.22.17-.29.07-1.9.13-3.79.21-5.68.08-1.86-.12-3.72.24-5.56.09-.45.05-1.02.68-1.36.05.26.14.42.11.54-.45,1.61-.28,3.25-.3,4.89-.04,2.88-.02,5.77-.36,8.64-.03.25-.06.51-.1.76-.02.09-.08.17-.14.28Z"/>
    <path class="cls-3" d="M87,85.51c-.71.06-.76-.39-.87-.73-.42-1.32-.83-2.64-1.23-3.96-.26-.86-.34-.91-1.23-.76-.19.03-.37.1-.57.12-.54.07-.76.41-.79.92-.07.96-.14,1.92-.24,2.88-.04.41-.14.82-.22,1.23-.07.32-.26.53-.61.47-.39-.07-.48-.31-.45-.7.3-3.62.59-7.23.87-10.85.05-.69.2-1.33.66-1.87.63-.73,1.17-.69,1.46.21.39,1.25.69,2.53,1.01,3.81.59,2.33.9,4.74,1.86,6.98.21.49.29,1.05.39,1.59.04.2-.03.42-.04.65ZM83.02,73.3c-.56,2.1-.58,4.21-.51,6.46.72-.11,1.3-.2,2.01-.3-.47-2.14-.73-4.19-1.5-6.15Z"/>
    <path class="cls-3" d="M124.39,84.19c-.66.13-.94-.15-1.18-.44-.92-1.11-1.84-2.22-2.75-3.35-.45-.56-.89-1.14-1.43-1.83-.05.34-.1.55-.1.75.03,1.48.08,2.95.12,4.43,0,.19.06.4,0,.57-.07.18-.22.41-.37.45-.3.08-.46-.14-.5-.44-.02-.16-.03-.32-.03-.48-.06-1.92-.11-3.85-.19-5.77-.08-1.99-.17-3.97-.25-5.96-.03-.7.08-.84.76-.95,1.95-.31,3.82,1.82,3.29,3.74-.25.9-.78,1.6-1.43,2.24-.74.73-.79.79-.17,1.61,1.01,1.37,2.1,2.67,3.16,4,.34.42.65.85,1.08,1.41ZM118.83,77.22c.84-.27,1.18-.91,1.59-1.45,1.09-1.46.82-2.88-.71-3.81-.73-.44-1.17-.22-1.16.64.01,1.15.09,2.3.15,3.44.02.37.09.74.14,1.18Z"/>
    <path class="cls-3" d="M112.71,85.49c-.65-.01-.69-.34-.71-.67-.06-.74-.13-1.47-.16-2.21-.14-3.34-.28-6.67-.4-10.02-.04-.99.14-1.17,1.09-1.34.99-.18,1.88.09,2.53.84,1.23,1.44,1.62,3.15,1.14,4.97-.24.91-1.16,1.32-1.97,1.7-.2.1-.43.14-.65.17-.92.14-1,.1-.97,1.27.04,1.41.12,2.82.17,4.24.01.34-.04.68-.07,1.05ZM112.31,74.97h.1c0,.9-.04,1.8.01,2.69.04.71.37.9,1.04.64.35-.14.68-.36,1.01-.55.61-.34.88-.85.97-1.55.14-1.13-.05-2.18-.5-3.19-.3-.68-.78-1.17-1.58-1.23-.75-.06-1.06.21-1.06.98,0,.74,0,1.48,0,2.21Z"/>
    <path class="cls-3" d="M91.98,72.16c.9-.25,1.52-.89,2.59-.62,1.22.31,2.55.22,3.83.32.33.03.73,0,.86.51-.51.5-1.08.04-1.61.08-.54.05-1.08.01-1.6.01-.1,1.39-.27,2.73-.27,4.06,0,2.34.1,4.69.16,7.03.01.48.01.96,0,1.44,0,.32-.14.58-.51.58-.39,0-.45-.29-.46-.6-.09-3.56-.37-7.12-.05-10.69.16-1.82.05-1.93-1.77-1.79-.4.03-.82.17-1.18-.34Z"/>
    <path class="cls-3" d="M142.5,72.16c-.48-.03-.88-.07-1.28-.08-.7,0-1.2.29-1.53.95-.72,1.46-1.13,2.97-1.3,4.6-.2,1.85-.04,3.66.24,5.47.05.34.15.69.28,1.01.59,1.43,1.81,1.5,2.94.9.26-.13.47-.55.51-.87.1-.69.09-1.41.08-2.11,0-.54-.09-1.09-.15-1.63-.08-.62-.17-.69-.79-.73-.22-.02-.44-.04-.65-.08-.05,0-.08-.09-.17-.21.12-.11.22-.28.37-.32.24-.06.51-.06.77-.06,1.07,0,1.08.04,1.08,1.12,0,.57.13,1.15.16,1.72.03.67.04,1.35.02,2.02-.03.8-.47,1.33-1.23,1.55-1.98.56-3.46.02-4.01-2.31-.54-2.31-.41-4.6-.14-6.9.16-1.36.7-2.61,1.39-3.78.7-1.2,2.35-1.34,3.42-.28Z"/>
    <path class="cls-3" d="M108.58,71.92c-.15.36-.47.24-.75.25-.73.02-1.29.35-1.73.91-.43.55-.54,1.12-.26,1.8.39.94,1.02,1.7,1.65,2.47.73.89,1.44,1.81,2.11,2.74.42.58.66,1.23.67,1.98.04,1.61-.56,2.47-2.14,2.8-.59.12-1.21.12-1.81.11-.38,0-.68-.19-.48-.72.6,0,1.18,0,1.77,0,.85-.02,1.35-.54,1.65-1.26.37-.91.36-1.81-.22-2.66-.87-1.27-1.68-2.58-2.8-3.66-.63-.62-1.07-1.36-1.31-2.21-.33-1.15.34-1.9,1.13-2.55.66-.54,1.72-.59,2.44-.16.04.02.04.11.07.18Z"/>
    <path class="cls-3" d="M75.06,85.08c.59.07,1.09.19,1.58.17,1.7-.08,2.74-1.53,2.2-3.15-.22-.66-.59-1.29-1.02-1.84-.89-1.1-1.87-2.12-2.79-3.18-.4-.46-.76-.95-1.11-1.45-.67-.92-.69-1.64.29-2.66.88-.92,2.09-1.06,3.3-1.01.2,0,.4.22.59.34-.01.08-.02.16-.03.24-.45.09-.9.19-1.35.27-.93.15-1.7.52-2.23,1.34-.29.45-.4.93-.09,1.35.61.86,1.28,1.67,1.95,2.48.78.94,1.63,1.82,2.36,2.79.41.55.71,1.22.94,1.88.32.95.13,1.86-.58,2.59-.75.76-1.72.86-2.68.63-.44-.1-1.01-.17-1.31-.79Z"/>
    <path class="cls-3" d="M92.5,84.98c-.11.05-.21.16-.32.16-1.12,0-2.24,0-3.37-.01-.6-.01-.71-.48-.75-.94-.16-1.88-.32-3.77-.43-5.66-.1-1.76-.13-3.53-.2-5.29,0-.09-.05-.21-.02-.28.07-.16.17-.4.28-.41.14-.01.34.13.45.27.09.11.11.3.13.45.07.57.16,1.15.18,1.72.08,2.11.1,4.23.2,6.35.04.89.22,1.78.34,2.67.05.39.27.55.64.57.74.03,1.47.07,2.21.12.22.02.45.08.67.13,0,.05,0,.11,0,.16Z"/>
    <path class="cls-3" d="M125.58,71.17c.09.32.22.63.25.95.17,2.18.37,4.35.45,6.53.07,1.89.01,3.79.01,5.69,0,.13.04.28,0,.38-.08.15-.22.35-.34.35-.14,0-.33-.16-.41-.3-.09-.16-.11-.37-.11-.56,0-1.12.02-2.24,0-3.37-.04-1.92-.11-3.85-.17-5.77-.04-1.12-.1-2.24-.12-3.36,0-.17.11-.34.16-.52.1,0,.19-.02.29-.02Z"/>
    <path class="cls-1" d="M78.38,102.8c.25-.75.4-1.27.59-1.77.89-2.25,1.78-4.5,2.69-6.73.33-.82.71-1.62,1.07-2.43.35-.76.88-1.13,1.78-.98.82.13,1.67.12,2.51.2.41.03.81.12,1.25.19.13,1.66.82,3.02,1.5,4.4.72,1.46,1.31,2.98,1.96,4.48.22.51.42,1.02.71,1.7.26-.34.47-.51.54-.73.74-2.15,1.43-4.33,2.2-6.47.34-.95.85-1.83,1.32-2.82.36.07.72.05.96.2.75.45,1.47.95,2.18,1.47.51.37.59.93.44,1.51-.23.9-.47,1.8-.71,2.7-.62,2.33-1.22,4.66-1.88,6.99-.2.71-.55,1.38-.83,2.06-.72,1.76-1.42,3.53-2.17,5.28-.19.43-.54.78-.99,1.4-.35-.71-.59-1.15-.78-1.6-.5-1.15-.95-2.33-1.5-3.46-.34-.7-.87-1.3-1.27-1.97-.42-.72-.84-1.44-1.16-2.21-.54-1.28-.98-2.61-1.53-3.89-.19-.44-.57-.81-.96-1.33-.32.42-.58.68-.75.98-1.26,2.33-2.52,4.67-3.74,7.03-.38.73-.57,1.56-.92,2.31-.64,1.34-1.31,2.67-2.02,3.98-.27.49-.85.47-1.12-.03-1.21-2.25-2.42-4.51-3.6-6.77-1.54-2.98-3.06-5.97-4.58-8.96-.36-.71-.7-1.42-1.03-2.14-.28-.6-.15-1.13.44-1.43,1.19-.62,2.41-1.2,3.63-1.76.52-.24.89,0,1.12.5.15.34.31.67.46,1.02,1.18,2.68,2.36,5.37,3.54,8.05.12.28.32.52.64,1.03ZM84.95,92.25c-1.06,2.31-2.01,4.37-2.95,6.44-.96,2.09-1.93,4.18-3.04,6.61-.96-1.54-1.74-2.76-2.49-4.01-.74-1.23-1.48-2.48-2.14-3.76-.68-1.31-1.25-2.67-1.94-4.13-1.08.5-1.99.92-3.03,1.4,3.52,5.33,5.41,11.33,8.95,16.77.55-1.27.93-2.31,1.43-3.29,1.67-3.32,3.4-6.63,5.09-9.95.25-.5.43-1.04.7-1.52.38-.68.89-.84,1.5-.37.49.39.95.92,1.21,1.48,1.63,3.46,3.19,6.94,4.78,10.41.17.37.36.73.65,1.31.4-.72.8-1.25.99-1.85,1.19-3.63,2.35-7.27,3.49-10.91.19-.62.29-1.27.38-1.92.13-.95.08-1-1.14-1.48-1.81,3.47-2.56,7.41-4.64,11.01-.21-.14-.29-.36-.39-.57-.37-.85-.76-1.7-1.13-2.55-1.13-2.61-2.26-5.21-3.37-7.82-.24-.57-.59-.92-1.22-.99-.59-.06-1.17-.2-1.69-.29Z"/>
    <path class="cls-1" d="M137,112.5c-.56-.86-.73-1.73-.7-2.61.08-2.09.24-4.18.35-6.26.18-3.29.35-6.59.51-9.89.02-.51-.05-1.03.02-1.53.13-.98.68-1.34,1.66-1.12,2.48.56,4.96,1.16,7.44,1.72,1.18.27,2.07.91,2.86,1.86,2.13,2.55,3.25,5.5,3.64,8.76.35,2.86-1.07,4.96-3.19,6.59-1.91,1.46-4.23,2.15-6.6,2.43-1.17.14-2.41-.13-3.59-.33-1.32-.23-1.31-.29-2.41.39ZM137.74,107.14c0,.93.02,1.86,0,2.79-.02.68.29,1.07.93,1.17,1.14.18,2.29.46,3.44.47,2.61.02,4.94-1.03,7-2.49,1.78-1.26,2.79-3.14,2.77-5.38,0-1.01-.4-2-.54-3.01-.29-2.05-1.31-3.78-2.5-5.39-.73-.99-1.73-1.7-2.98-1.95-1.82-.37-3.64-.73-5.46-1.11-.66-.14-1.09.08-1.28.73-.07.27-.14.54-.19.82-.75,4.42-1.05,8.87-1.2,13.34Z"/>
    <path class="cls-1" d="M117.98,112.49c-.13-.86-.35-1.72-.36-2.58-.06-5.17-.27-10.34.2-15.5.12-1.34.16-1.37,1.52-1.4.78-.02,1.57-.08,2.39-.13.5.67.37,1.45.37,2.16-.02,3.64-.04,7.27-.12,10.9-.05,2.58.17,2.2,2.19,2.24,1.44.03,2.89.15,4.33.18.74.01,1.48-.12,2.22-.15,1.21-.06,1.51.3,1.29,1.47-.14.78-.28,1.56-.38,2.34-.13,1.04-.17.99-1.19,1.1-2.03.19-3.96-.42-5.94-.63-1.48-.15-2.96-.4-4.44-.48-.6-.03-1.21.26-2.07.47ZM121.16,101.47h.07c0-1.31-.01-2.61,0-3.92.01-.93.1-1.86.08-2.79,0-.34-.13-.8-.37-.98-.78-.59-2.16.15-2.27,1.13-.56,5.08.13,10.15,0,15.23-.02.7.33.99,1.02,1.03.7.03,1.39.11,2.09.2,2.31.3,4.61.65,6.92.92,1.82.21,1.86.13,2.2-1.61.05-.28.13-.55.16-.82.11-.88-.04-1.1-.95-1.08-2.61.05-5.22.13-7.82.25-1.09.05-1.14.03-1.13-1.13.01-2.14,0-4.29,0-6.43Z"/>
    <path class="cls-1" d="M110.26,93.81c-.04.98-.11,1.65-.08,2.31.1,2.23.22,4.46.37,6.69.24,3.56.51,7.13.76,10.7.01.18-.03.36-.05.62-1.25.15-2.48.34-3.71.44-.66.05-1.04-.39-1.14-1.01-.11-.73-.22-1.48-.19-2.22.19-5.16.25-10.31-.13-15.47-.04-.56-.03-1.12-.04-1.67-.01-.68.35-1,.99-1.13,1.27-.24,2.36.16,3.22.74ZM110.44,113.32c-.1-1.14-.2-2.1-.27-3.06-.09-1.2-.13-2.41-.22-3.61-.07-1.02-.23-2.04-.29-3.06-.11-1.91-.16-3.81-.27-5.72-.05-.79-.15-1.58-.32-2.35-.24-1.14-.81-1.4-2.07-1.01.08.91.19,1.83.23,2.76.19,4.28.36,8.56.53,12.84.04,1.09.21,2.2-.49,3.18-.03.04.07.16.15.35.91-.09,1.86-.19,3-.31Z"/>
    <path class="cls-1" d="M84.95,92.25c.52.09,1.1.22,1.69.29.63.07.98.42,1.22.99,1.11,2.61,2.24,5.21,3.37,7.82.37.85.76,1.7,1.13,2.55.1.21.18.43.39.57,2.08-3.6,2.83-7.53,4.64-11.01,1.22.48,1.27.53,1.14,1.48-.09.65-.18,1.3-.38,1.92-1.14,3.65-2.3,7.29-3.49,10.91-.2.59-.59,1.12-.99,1.85-.28-.57-.48-.94-.65-1.31-1.59-3.47-3.15-6.96-4.78-10.41-.26-.56-.72-1.09-1.21-1.48-.6-.47-1.12-.31-1.5.37-.27.49-.45,1.03-.7,1.52-1.7,3.32-3.42,6.62-5.09,9.95-.5.98-.88,2.02-1.43,3.29-3.54-5.44-5.43-11.44-8.95-16.77,1.04-.48,1.95-.9,3.03-1.4.68,1.47,1.26,2.83,1.94,4.13.66,1.28,1.41,2.52,2.14,3.76.75,1.25,1.53,2.47,2.49,4.01,1.11-2.43,2.08-4.52,3.04-6.61.95-2.07,1.9-4.13,2.95-6.44Z"/>
    <path class="cls-1" d="M121.16,101.47c0,2.14,0,4.29,0,6.43,0,1.16.04,1.17,1.13,1.13,2.6-.12,5.21-.2,7.82-.25.91-.02,1.06.2.95,1.08-.03.28-.11.55-.16.82-.34,1.74-.38,1.82-2.2,1.61-2.31-.26-4.61-.61-6.92-.92-.69-.09-1.39-.17-2.09-.2-.69-.03-1.03-.33-1.02-1.03.13-5.08-.55-10.15,0-15.23.11-.98,1.5-1.72,2.27-1.13.24.18.36.64.37.98.02.93-.07,1.86-.08,2.79-.01,1.3,0,2.61,0,3.92h-.07Z"/>
    <path class="cls-1" d="M110.44,113.32c-1.14.12-2.09.22-3,.31-.08-.19-.18-.31-.15-.35.69-.98.53-2.09.49-3.18-.17-4.28-.34-8.56-.53-12.84-.04-.92-.15-1.84-.23-2.76,1.26-.39,1.82-.13,2.07,1.01.16.77.27,1.56.32,2.35.11,1.9.16,3.81.27,5.72.06,1.02.21,2.04.29,3.06.09,1.2.13,2.41.22,3.61.07.96.17,1.93.27,3.06Z"/>
    <path class="cls-3" d="M151.33,100.7c-.29-2.05-1.31-3.78-2.5-5.39-.73-.99-1.73-1.7-2.98-1.95-1.82-.37-3.64-.73-5.46-1.11-.66-.14-1.09.08-1.28.73-.07.27-.14.54-.19.82-.75,4.42-1.05,8.87-1.2,13.34,0,.93.02,1.86,0,2.79-.02.68.29,1.07.93,1.17,1.14.18,2.29.46,3.44.47,2.61.02,4.94-1.03,7-2.49,1.78-1.26,2.79-3.14,2.77-5.38,0-1.01-.4-2-.54-3.01ZM148.47,105.82c-.41,1.12-1.16,1.92-2.18,2.44-1.69.84-3.49,1.32-5.39,1.24-1.24-.05-1.47-.35-1.4-1.53.29-4.32.69-8.64.37-12.98,0-.09.06-.19.18-.41v-.45c.03-.09.49-.15,1.17-.08.11-.23.34-.31.6-.24.85.21,1.7.47,2.48.86.74.37,1.4.91,2.08,1.41.95.72,1.65,1.63,2.03,2.78.78,2.32.93,4.63.07,6.97Z"/>
    <path class="cls-1" d="M101.74,135.44c-.44-.66-.56-1.33-.54-2.01.06-1.61.18-3.22.27-4.83.14-2.54.27-5.08.39-7.62.02-.39-.03-.79.02-1.19.1-.76.53-1.03,1.28-.86,1.91.44,3.82.89,5.73,1.33.91.21,1.6.7,2.2,1.43,1.64,1.97,2.5,4.25,2.81,6.75.27,2.21-.83,3.83-2.46,5.08-1.48,1.12-3.26,1.66-5.09,1.87-.9.11-1.85-.09-2.77-.26-1.02-.18-1.01-.22-1.86.3ZM102.32,131.31c0,.72.02,1.44,0,2.16-.02.52.22.82.72.9.88.14,1.77.35,2.65.36,2.01.01,3.8-.79,5.4-1.92,1.37-.97,2.15-2.42,2.14-4.15,0-.78-.31-1.54-.42-2.32-.22-1.59-1.01-2.91-1.93-4.16-.56-.76-1.33-1.31-2.29-1.5-1.4-.28-2.81-.56-4.21-.85-.51-.1-.84.06-.99.57-.06.21-.11.42-.14.63-.58,3.4-.81,6.84-.92,10.28Z"/>
    <path class="cls-4" d="M112.8,126.35c-.22-1.59-1.01-2.91-1.93-4.16-.56-.76-1.33-1.31-2.29-1.5-1.4-.28-2.81-.56-4.21-.85-.51-.1-.84.06-.99.57-.06.21-.11.42-.14.63-.58,3.4-.81,6.84-.92,10.28,0,.72.02,1.44,0,2.16-.02.52.22.82.72.9.88.14,1.77.35,2.65.36,2.01.01,3.8-.79,5.4-1.92,1.37-.97,2.15-2.42,2.14-4.15,0-.78-.31-1.54-.42-2.32ZM110.59,130.29c-.32.86-.89,1.48-1.68,1.88-1.3.65-2.69,1.01-4.16.95-.96-.04-1.14-.27-1.07-1.18.22-3.33.53-6.66.29-10.01,0-.07.05-.14.14-.32v-.35c.02-.07.37-.11.9-.06.09-.17.26-.24.46-.19.65.16,1.31.36,1.91.66.57.29,1.08.71,1.6,1.09.74.55,1.27,1.26,1.57,2.14.6,1.79.71,3.57.05,5.38Z"/>
    <path class="cls-1" d="M88.6,123.57c-3.67-2.98-7.99-.95-9.85,2.15-1.08,1.81-.45,3.66.52,5.34.86,1.47,2.22,2.2,3.94,2.09,1.65-.11,3.15-.6,4.41-1.75.43-.39.91-.72,1.48-1.16.16.43.29.66.32.89.09.78.15,1.56.22,2.34.07.9-.17,1.64-1.04,2.06-.31.15-.61.4-.93.46-2.96.51-5.89.57-8.69-.77-.31-.15-.61-.36-.84-.61-2.41-2.53-3.39-5.19-2.21-8.57.86-2.47,2.46-4.25,4.56-5.69,1.08-.74,2.32-.65,3.52-.8.9-.12,1.82-.24,2.73-.26.77-.02,1.56.05,2.33.14.55.07.72.55.6.99-.28,1.03-.67,2.03-1.04,3.16ZM88.16,122.25c.87-1.57.41-2.46-1.16-2.41-1.13.04-2.26.14-3.39.28-.69.08-1.4.19-2.03.45-3,1.27-4.48,3.74-5.24,6.76-.43,1.73-.38,3.38.83,4.84.19.23.27.56.47.78.46.5.89,1.11,1.47,1.43,2.54,1.4,5.29,1.37,8.02.8,1.87-.39,2.26-1.51,1.37-3.41-.26.14-.52.3-.79.41-1.15.5-2.28,1.07-3.46,1.46-1.48.49-2.82.02-4.04-.91-1.4-1.07-2.09-2.57-2.45-4.2-.32-1.47-.03-2.89.96-4.07,1.41-1.7,3.13-2.85,5.45-2.96,1.38-.06,2.69.04,4,.74Z"/>
    <path class="cls-1" d="M93.48,132.93c.38-3.72.76-7.44,1.13-11.16.06-.6.06-1.21.07-1.82,0-.49.22-.92.68-1,.81-.12,1.63-.15,2.44-.1.2.01.51.48.53.76.04.46-.12.94-.19,1.41-.25,1.63-.61,3.25-.74,4.89-.21,2.86-.28,5.74-.41,8.6-.06,1.36-.34,1.61-1.66,1.39-.26-.04-.51-.12-.76-.19-1.02-.29-1.03-.29-.99-1.34.01-.48.04-.95.07-1.43-.06,0-.11,0-.17-.01ZM95.93,135.28c.11-1.51.2-2.93.31-4.35.21-2.82.4-5.64.64-8.45.05-.65.25-1.28.36-1.92.09-.49-.04-.86-.6-.96-.59-.11-.9.1-.96.73-.15,1.38-.4,2.76-.5,4.14-.23,3.25-.4,6.51-.59,9.77-.05.9-.01.92,1.35,1.04Z"/>
    <path class="cls-1" d="M88.16,122.25c-1.31-.7-2.62-.8-4-.74-2.32.1-4.04,1.25-5.45,2.96-.98,1.18-1.28,2.61-.96,4.07.36,1.63,1.05,3.13,2.45,4.2,1.22.93,2.56,1.39,4.04.91,1.19-.38,2.31-.96,3.46-1.46.27-.12.52-.27.79-.41.89,1.9.5,3.02-1.37,3.41-2.73.56-5.48.6-8.02-.8-.58-.32-1.01-.93-1.47-1.43-.2-.22-.28-.55-.47-.78-1.2-1.46-1.26-3.11-.83-4.84.76-3.01,2.24-5.49,5.24-6.76.63-.27,1.34-.37,2.03-.45,1.12-.13,2.26-.24,3.39-.28,1.56-.06,2.03.84,1.16,2.41Z"/>
    <path class="cls-1" d="M95.93,135.28c-1.36-.12-1.4-.14-1.35-1.04.19-3.26.35-6.52.59-9.77.1-1.38.35-2.76.5-4.14.07-.62.38-.83.96-.73.56.1.69.47.6.96-.11.64-.31,1.28-.36,1.92-.23,2.81-.43,5.63-.64,8.45-.1,1.42-.2,2.84-.31,4.35Z"/>
    <path class="cls-2" d="M139.81,128.73c1.33,2.06,2.7,3.93,4.03,6.11-1.17.06-2.1.14-3.03.13-.26,0-.6-.23-.77-.47-.91-1.19-1.82-2.39-2.64-3.64-.32-.49-.67-.73-1.23-.82-1.87-.3-1.9-.33-2.17,1.51-.12.82-.08,1.67-.11,2.5-.01.4,0,.81,0,1.25-.98-.04-1.81-.08-2.63-.12-.5-.03-.77-.29-.77-.8,0-.46-.02-.91.02-1.36.4-4.03.82-8.06,1.23-12.09,0-.06.06-.12.08-.18.03-.02.06-.06.09-.06,1.63-.19,3.25-.5,4.88-.52,1.51-.02,2.85.67,3.89,1.81.7.77.78,1.78.84,2.76.03.52-.07,1.05-.11,1.57-.08,1.05-.57,1.85-1.59,2.44ZM138.41,128.66c.27-.3.4-.47.56-.59,1.41-1.11,1.8-2.59,1.54-4.3-.23-1.51-1.06-2.35-2.59-2.59-.41-.07-.83-.06-1.25-.03-1.01.06-2.02.15-3.02.24-1.07.09-1.2.15-1.3,1.23-.34,3.68-.63,7.37-.93,11.05-.02.26.07.53.12.84.58.04,1.09.08,1.64.12.05-.31.09-.52.11-.72.11-1.32.19-2.64.31-3.96.08-.83.2-.89.97-.78.58.08,1.17.17,1.76.2.67.04,1.02.34,1.35.95.64,1.16,1.37,2.27,2.18,3.31.81,1.04,1.56,1.11,2.74.54-.77-1.18-1.56-2.37-2.31-3.57-.46-.73-.8-1.55-1.84-1.94Z"/>
    <path class="cls-2" d="M117.92,119.82c.1-.02.24-.08.37-.05,2.37.38,4.75-.03,7.12.11.31.02.63.02.93.09.38.08.62.34.61.75-.02.62-.08,1.23-.13,1.87-1.15-.05-2.19-.1-3.23-.15-.52-.02-1.05-.06-1.57-.03-.99.05-1.18.26-1.23,1.26-.03.63-.1,1.26-.07,1.89.02.71.16.81.89.89.73.08,1.47.12,2.18.27.83.18.92.37.75,1.17-.08.37-.19.74-.31,1.19-.33-.04-.64-.08-.93-.12-.45-.05-.9-.15-1.35-.15-.82,0-1.02.21-1.1,1.05-.19,2.07-.1,2.24,1.95,2.57.96.15,1.95.17,2.92.24,1.1.08,1.26.29,1.07,1.38-.21,1.17-.29,1.27-1.51,1.17-.9-.07-1.81-.22-2.68-.45-1.48-.38-2.97-.42-4.47-.45-1.02-.02-1.15-.13-1.1-1.17.13-2.72.29-5.44.42-8.17.04-.84.07-1.68,0-2.51-.08-.92-.03-1.79.47-2.64ZM126.07,133.27c-.14-.06-.2-.11-.26-.12-1.53-.19-3.05-.37-4.57-.56-.94-.11-1.02-.16-1.05-1.07-.03-.84,0-1.67.04-2.51.02-.45.29-.71.75-.71.66,0,1.33-.02,1.99.03.47.04.75-.07.8-.57.05-.52-.26-.69-.69-.71-.63-.02-1.26,0-1.89,0-.94,0-1.13-.14-1.14-1.06-.01-1.08.03-2.16.03-3.25,0-.45.18-.74.64-.81.38-.06.76-.13,1.14-.13,1.19,0,2.37,0,3.56.04.64.02.82-.09.87-.6.06-.56-.12-.75-.8-.8-.35-.02-.7-.01-1.05-.02-1.82-.03-3.63-.05-5.44-.08-.54,0-.78.17-.82.72-.03.41.04.84.03,1.25-.1,3-.22,6.01-.31,9.01-.02.75.08,1.5.12,2.25.21.05.34.1.47.11,1.52.21,3.04.4,4.56.61.55.07,1.1.21,1.65.29,1.16.16,1.34-.03,1.37-1.33Z"/>
    <path class="cls-2" d="M138.41,128.66c1.04.38,1.38,1.2,1.84,1.94.75,1.2,1.54,2.39,2.31,3.57-1.18.57-1.93.5-2.74-.54-.81-1.04-1.54-2.15-2.18-3.31-.33-.6-.68-.91-1.35-.95-.59-.03-1.18-.12-1.76-.2-.78-.11-.9-.05-.97.78-.12,1.32-.2,2.64-.31,3.96-.02.2-.06.4-.11.72-.55-.04-1.06-.08-1.64-.12-.04-.31-.14-.58-.12-.84.3-3.69.6-7.37.93-11.05.1-1.08.22-1.14,1.3-1.23,1.01-.08,2.01-.18,3.02-.24.41-.03.84-.03,1.25.03,1.53.24,2.36,1.08,2.59,2.59.26,1.71-.12,3.19-1.54,4.3-.16.12-.28.3-.56.59ZM133.48,122.7c.04.93.1,1.58.08,2.22-.02.63-.12,1.25-.19,1.87-.06.47.13.75.59.82,2,.26,3.61-.11,4.71-2.24.3-.59.27-1.14-.18-1.65-.79-.92-1.79-1.47-2.97-1.61-.81-.09-1.61.04-2.04.59Z"/>
    <path class="cls-2" d="M126.07,133.27c-.03,1.31-.22,1.49-1.37,1.33-.55-.08-1.1-.22-1.65-.29-1.52-.21-3.04-.41-4.56-.61-.13-.02-.26-.06-.47-.11-.04-.75-.14-1.51-.12-2.25.08-3,.21-6.01.31-9.01.01-.41-.06-.83-.03-1.25.04-.55.27-.72.82-.72,1.81.03,3.62.05,5.44.08.35,0,.7,0,1.05.02.68.05.87.24.8.8-.06.51-.23.61-.87.6-1.19-.03-2.38-.05-3.56-.04-.38,0-.76.08-1.14.13-.46.07-.64.35-.64.81,0,1.08-.04,2.16-.03,3.25.01.92.2,1.07,1.14,1.06.63,0,1.26-.02,1.89,0,.43.01.74.19.69.71-.05.5-.33.61-.8.57-.66-.05-1.32-.04-1.99-.03-.45,0-.73.26-.75.71-.03.84-.08,1.67-.04,2.51.03.91.11.96,1.05,1.07,1.52.19,3.05.37,4.57.56.06,0,.12.06.26.12Z"/>
  </g>
  <text class="cls-9" transform="translate(22.65 105.41) scale(.79 1)"><tspan x="0" y="0">9</tspan></text>
</svg>