<?xml version="1.0" encoding="UTF-8"?>
<svg id="Layer_1" xmlns="http://www.w3.org/2000/svg" viewBox="0 0 400 400">
  <defs>
    <style>
      .cls-1 {
        fill: #f1ecd9;
      }

      .cls-2, .cls-3 {
        fill-rule: evenodd;
      }

      .cls-4 {
        font-family: AmericanTypewriter-CondensedBold, 'American Typewriter';
        font-size: 44px;
        font-weight: 700;
      }

      .cls-4, .cls-5 {
        fill: #fff;
      }

      .cls-6 {
        fill: #165c30;
      }

      .cls-3 {
        fill: #1bb24b;
      }

      .cls-7 {
        letter-spacing: -.02em;
      }
    </style>
  </defs>
  <g>
    <polygon class="cls-3" points="67.26 161.8 14.9 238.45 17.51 241.75 117.39 238.28 81.51 172.37 70.84 159.9 67.26 161.8"/>
    <path class="cls-2" d="M99.32,199.16c3.51.51,2.58,5.9,6.25,6.23.1,3.85,2.07,5.65,4.51,6.9-.28,4.06,2.02,5.29,4.46,6.32.28,1-.4,1.13-1.12,1.25.83.81,2.79,1.35,1.33,2.9.46-.34.95-.66,1.75-.68.27,1.19-.03,1.86-1.1,1.84,1.18,1.5,4.6,4.74,2.67,5.81.6,1.01,1.93,1.21,3.61,1.01.33,4.86,3,7.12,2.99,12.34-.57-.33-2.24-1.28-1.74.68-1.07-1.12-4.14-.02-4.28-2.17-1.31,2.35-4.07-1.55-7.05,1.54-1.8.3-1.33-1.87-1.94-2.88-1.7.59.85,1.45.15,2.96-.46-.38-2-2.41-1.77.09-8.28-.58-20.59-.62-27.92.19-.03-.59-.07-1.18-.09-1.77-2.68,1.57-5.81,1.88-8.31.4-1.61,2.32-12.63,2.38-16.01.8-6.52,3.76-21.02.22-24.17,4.16-5.11-2.87-13.92.38-20.31-1.96-.61-1.87.39-2.28,1.04-3.03-2.39-.09-1-.46-1.38-4.09,2.76-.89,3.9-3.25,3.84-6.72,2.74.42,1.19-3.06,4.02-2.59-.51-1.8-.47-1.11-.15-2.96,4.03.46,1.59-4.98,5.09-5-.41-.58-1.39-.55-1.27-1.73,2.38.66,1.11-2,3.5-1.36-.05-.99-.1-1.98-.15-2.96.51-.48,1.31-.7,2.34-.7,3.48-8.95,9.99-15.13,13.69-23.86,2.05-.03,2.69-1.33,2.19-3.67,1.74.07,1.75-1.44,3.51-1.37,1.44-7.95,9.01-10.35,10.39-18.35,6.51-1.46,4.95-10.24,11.3-11.85-.41-.58-1.39-.55-1.28-1.72,1.96-.12,2.9-1.16,5.32-.86,2.66,1.88-.7,3.07,3.1,2.82-2.45,2.68.76,10.53,3.43,9.33.89.15.16,4.49,3.17,4.01-.32,1.83.73,2.13.78,3.52,7.64,6.37,9.1,19.57,16.74,25.92.26,1-.41,1.15-1.13,1.25ZM64.66,171.75c-1.87.83-.53-1.9-2.43-1.07-.9.3-.4,1.9-2.29,1.31-.73,3.12-1.47,6.22-4.4,7.36-.71,3.27,1.67,3.15,2.61,4.62-4.12,3.02-4.14,12.69-11.43,9.47.67,1.77,2.84,1.86,3.17,4.01-1.56.81-2.72,1.12-3.5,1.36,2.53,2.06-.66,1.55-1.64,3.06-2.53,3.93-3.9,10.12-8.35,11.11-.16,2.87-1.21,4.96-3.9,5.53,1.5,3.08-.87.43-1.71,1.87,3.82.72-2.44,2.61.22,4.16-4.22.89-3.19,6.54-6.12,8.62-.38-1.02.55-3.52-.76-3.53,0,.93.19,2.05-1.1,1.84-.63,1.95,1.94.36,1.31,2.31-2.46.6-2.01,3.85-3.29,5.52,6.18-1.37,16.23-1.47,23.13-1.15.1-.46-.04-1.17.53-1.21,23.01,2.1,41.35-1.48,69.44-2.24-1.29-6.24-6.79-9.22-8.95-12.64-.72-5.27-5.7-5.8-5.92-11.59-2.66.4-2.28-2.11-1.96-3.46-2.36.06-4.5-3.78-2.6-4.63-1.85,1.01-1.99-.34-3.62-1.01-4.28-12.94-14.51-22.09-19.43-32.32.02.6-1.01.79-1.19.05.72-.09,1.39-.24,1.13-1.25-1.65.58-1.58-.76-3-.44-2.87,4-4.15,9.45-8.94,11.73,1.25,2.04-.44,2.89-1.57,4.25-.71-2.35-.14-4.62.87-6.59.98-.03.4,1.63,1.27,1.73.13-2.55,2.17-7.4,3.91-4.95-.06-.82.21-1.31.49-1.8Z"/>
  </g>
  <text class="cls-4" transform="translate(46.07 229.08)"><tspan class="cls-7" x="0" y="0">1</tspan><tspan x="21.16" y="0">2</tspan></text>
  <g>
    <path class="cls-6" d="M363.61,230.18c.45,2.78,1.18,5.23,1.17,7.69,0,4.71-2.3,6.75-7.04,6.84-.77.01-1.54,0-2.42,0-.19.37-.47.73-.56,1.13-.78,3.57-.78,3.56-4.24,4.1-10.07,1.56-20.2,2.09-30.37,2.16-9.39.06-18.79.42-28.16.15-8.49-.25-16.95-1.46-25.44-1.71-8.72-.25-17.45.13-26.18.27-2.98.05-5.96.24-8.94.26-14.14.07-28.28.16-42.42.13-8.28-.02-16.58-.09-24.71-2.03-.43-.1-.86-.19-1.29-.31-5.15-1.4-5.7-1.91-7.49-7.11-.65-.09-1.38-.22-2.13-.29-3.87-.38-6.42-2.82-7.01-6.72-.28-1.84-.56-3.68-.89-5.84-1.48,0-2.77-.02-4.06,0-3.75.06-7.51.25-11.26.16-3.39-.08-3.63-.48-3.86-3.8-.07-.97-.28-1.94-.45-3.1-2.43-.22-4.71-.42-7.42-.66.05-3.9-.39-7.73.27-11.54.1-.56.93-1.29,1.54-1.42,2.18-.48,3.05-2.01,3.62-3.89.7-2.33,1.46-4.64,2.04-6.99,1.22-4.92,2.35-9.87,3.56-15-2.16-1.11-2.04-3.03-1.73-5.08.42-2.79.71-5.61,1.12-8.84.86-.18,2.13-.7,3.39-.68,5.85.1,11.7.27,17.55.57,2.58.13,2.71.42,3.11,2.93.12.76.24,1.52.4,2.28.11.53.28,1.05.48,1.76,1.79.24,3.6.47,5.45.72,1.09,3.75.41,7.7,2.82,11.42,2.47-5.15,6.78-7,12.31-7.14-1.68-2.54-3.9-.52-5.42-2.11,0-.58-.13-1.45.02-2.27.52-2.82,1.22-5.62,1.69-8.45.31-1.83,1.26-2.68,3.07-2.84,6.96-.6,13.88-.34,20.78.66,1.68.24,2.29,1.05,2.12,2.68-.18,1.62-.29,3.25-.45,5.14h6.46c.23,2.17.44,4.19.68,6.38,6.32-.36,12.52-.71,18.67-1.06,1.31-8.92,7.45-15.78,16.87-12.63-.43-8.4.43-11.5,9.67-12.64,1.4-2.19,1.41-4.04-.55-6.16-2.25-2.43-2.05-5.42-.1-8.57,1.93-3.11,4.49-4.44,7.79-3.54,2.04.55,3.57.34,5.55-.58,5.09-2.37,10.1.38,11.75,5.97,1.48.34,3.06.45,4.41,1.07,1.35.62,2.47,1.75,3.85,2.77.3-.58.59-1.02.77-1.51,2.61-7.19,8.33-11.2,15.12-13.3,6.21-1.92,12.62-1.21,17.84,3.23,2.75,2.34,4.98,5.28,7.44,7.96,1.26,1.38,2.3,3.05,3.78,4.13,4.46,3.29,5.54,7.77,5,12.9-.16,1.53-.55,3.04-.83,4.55,1.66.99,3.69,1.66,4.88,3.06,1.12,1.32,1.36,3.39,2.04,5.26,1.91-.16,3.12-.98,4.12-2.46.98-1.45,2.22-2.74,3.39-4.05,4.89-5.47,12.74-1.68,14.35,3.13.56,1.67,1.12,3.35,1.67,4.98q3.79,1.31,5.63,6.39c1.89,0,3.85.11,5.79-.02,4.4-.31,7.76,2.19,11.3,4.12.64.35.97,1.65,1.07,2.54.14,1.29-.08,2.62-.14,3.99,1.73.76,3.36,1.41,4.93,2.18,2.24,1.09,2.16,1.13,1.51,3.52-.83,3.09-1.55,6.21-2.26,9.33-.36,1.61.1,2.9,1.25,4.21,4.97,5.67,4.38,13.12-1.42,17.86-7.09,5.81-15.11,6.72-23.7,4.14-.39-.12-.77-.27-1.1-.38ZM316.21,165.75c-.52-.04-.74-.1-.95-.06-1.08.23-2.3.65-2.98-.56-.73-1.3-.23-2.49.7-3.62,1.04-1.26,2.09-2.59,2.76-4.06,1.67-3.67,1.44-7.57.72-11.39-.43-2.31-1.58-4.57-3.77-5.61-3.06-1.45-6.3-2.57-9.54-3.59-1.19-.37-2.64-.27-3.9-.03-8.93,1.7-14.9,11.17-12.65,19.99.44,1.7,1.21,3.32,1.64,5.03.63,2.49-1.08,4.13-3.58,3.52-.63-.16-1.24-.46-1.83-.76-.9-.47-1.79-1.03-2.66,0-.7.84-.65,2.85.17,3.63,1.77,1.67,3.63,3.07,6.21,3.51,6.91,1.16,13.85,1.41,20.81,1.09,1.83-.08,3.73-.67,5.4-1.44,2.17-1,3.8-2.63,3.44-5.63ZM180.4,211.92c.18,2.05.08,3.3.44,4.4.32.95,1,2.22,1.81,2.49,2.85.97,5.83,1.32,8.67-.13.61-.31,1.38-1.03,1.41-1.6.13-2.16,1.32-4.51-1.14-6.34-.62-.46-.73-1.78-.85-2.74-.19-1.53-.28-3.08-.28-4.62.03-7.39.12-14.77.17-22.16.02-3.61,0-7.23,0-11.14-5.24.87-10.02,1.67-14.79,2.46l-.16.64c1.18.67,2.36,1.33,3.71,2.09.12,2.72.48,5.53-.18,8.51-1.55.18-2.97.28-4.36.52-2.75.48-5.48,1.14-7.15,3.66-1.52,2.3-3.17,4.58-4.22,7.1-2.4,5.74-2.39,11.66.07,17.39,2.24,5.22,9.67,7.51,13.52,2.37.74-.99,1.9-1.68,3.33-2.9ZM254.18,169.52c-.68.62-1.51,1.12-1.96,1.85-1.2,1.93-.74,4.08-.35,6.12.1.53,1.04,1.14,1.68,1.27.82.16,1.72-.16,2.59-.23,4.38-.37,8.69-1.03,12.83,1.56,2.63,1.65,5.71,1.54,8.51-.13,4.12-2.46,8.23-3,12.39-.09,2,1.4,4.13,1.35,6.29.42,1.22-.52,2.4-1.13,3.58-1.72,4.45-2.21,8.57-2.46,12.43,1.41,1.92,1.93,3.2,1.64,5.36-.39,2-1.88,3.01-2.04,5.63-.88,3.46,1.53,6.82-.26,7.31-3.99.17-1.31.18-2.65.08-3.97-.15-2.05-1.25-2.64-2.79-1.33-1.7,1.45-3.64,1.97-5.73,2.32-4.87.81-9.89.73-14.65,2.29-.81.26-1.76.15-2.64.14-2.65-.03-5.32.06-7.95-.19-5.03-.48-10.17-.33-14.92-2.6-1.03-.49-2.37-.39-3.57-.43-2.43-.08-4.88.12-7.28-.14-3.89-.42-5.85-2.76-5.92-6.63-.05-2.76-.14-5.53-.12-8.29.03-3.98.05-7.96,1.67-11.73.29-.68.37-1.53.27-2.26-.08-.56-.53-1.45-.93-1.51-.65-.11-1.64.13-2.03.6-.52.62-.66,1.6-.86,2.45-.21.85-.22,1.76-.48,2.59-.38,1.24-1.17,2.22-2.59,2.16-1.48-.06-2.03-1.17-2.2-2.47-.13-.98-.13-1.99-.29-2.97-.2-1.17-1.08-1.65-2.16-1.65-1.34,0-1.61,1.04-1.6,2.07.01.74.37,1.46.53,2.2.33,1.48.9,2.97.88,4.45-.06,3.97-.39,7.94-.6,11.91-.08,1.54-.22,3.1,1.28,4.38-1.56-.29-2.82-.87-4.13-1.33-2.38-.82-1.12-3.68-2.96-5.13-.8,2.54-2.89,1.83-5.25,1.73,3.56,3.47,8.55,4.01,10.65,8.13ZM158.23,213.22c-3.54-13.45-7.05-26.76-10.59-40.22-4.07-.07-7.79-.21-11.49.54-2.34.48-2.34.49-2.3,3.32q2.55,1.19,1.91,3.59c-.17.64-.4,1.26-.61,1.89-2.99,8.77-6.53,17.37-8.34,26.5-.46,2.3-1.27,4.21-3.89,4.76.13,1.31.24,2.37.35,3.43,4.66,1.07,8.86-1.06,13.23-1.15.15,0,.28-.85.45-1.42-1.38-.19-2.54-.35-3.81-.52-.48-3.33.38-6.29,1.5-9.14.68-1.73,6.83-2.59,8.15-1.25.42.43.74,1.15.76,1.76.09,2.17.04,4.35.04,6.38-1.28.48-2.39.9-3.45,1.3v4.41h21.4c.07-1.17.14-2.43.21-3.79-1.16-.13-2.01-.22-3.51-.39ZM312.53,217.35c.09-2.79.82-5.17-2.19-6.39-.56-.23-.93-1.44-.99-2.23-.12-1.53-.07-3.1.1-4.63.49-4.44.18-8.83-.62-13.2-.42-2.34-1.22-4.58-3.71-5.47-2.9-1.04-5.85-.74-8.81-.03-2.21.53-3.2,2.18-4.24,3.89-.49.8-.96,1.87-2.48,1.09-.07-1.3-.16-2.7-.24-4.15-4.46-1.3-8.59.65-13.01.64-.19,1.09-.35,2.02-.52,2.99.6.26.98.46,1.39.6,2.81.96,3,1.12,3.05,3.89.09,4.42.07,8.84.14,13.27.03,1.5-.55,2.55-1.9,3.18-.68.32-1.35.65-2.2,1.05.12,1.92.23,3.74.36,5.72h16.88c.09-1.98.83-3.88-1.65-4.86-.47-.19-.94-1.05-.94-1.6.02-4.52.12-9.04.29-13.56.03-.73.46-1.47.83-2.14.91-1.62,2.09-2.91,4.19-2.63,1.92.26,2.4,1.87,2.71,3.35,1.06,5,.62,10.04.53,15.01-1.55.55-2.76.99-4.23,1.51.39,1.7.74,3.25,1.07,4.7h16.18ZM274.59,211.38c-2.05-.45-2.17-2.03-2.16-3.8.03-4.19,0-8.39-.1-12.58-.09-3.86-4.93-9.83-8.63-10.76-.53-.13-1.09-.18-1.64-.18-5.78.03-11.51.3-16.25,4.77-.07,3.01.67,6.04,2.22,9.05h3.66c.24-1.61.37-3.14.72-4.62.27-1.16.65-2.36,1.26-3.37.93-1.54,2.4-1.88,4.02-1.19,1.77.75,2.8,3.08,2.63,5.97-.12,2.01-.67,2.89-2.98,3.32-5.31.98-8.26,4.79-10.97,8.86-.7,1.05-1.02,2.44-1.24,3.72-.5,2.93.73,5.22,3.14,6.77,2.56,1.64,6.09,1.4,8.36-.41,1.04-.82,1.97-1.77,3.02-2.58.53-.41,1.19-.66,2.01-1.09.19,1.78.33,3.16.48,4.54h12.44v-6.43ZM321.85,196.47c.17-1.81.21-3.25.45-4.66.37-2.12,1.41-2.9,3.69-3,2.52-.11,3.82.59,4.24,2.7.36,1.8.34,3.68.49,5.62-2.07.83-3.93,1.51-5.72,2.33-1.8.82-3.5,1.87-5.32,2.64-3.08,1.3-4.4,3.87-5.21,6.84-1.08,3.93,1.18,7.69,5.24,8.41,1.8.32,3.71.13,5.56.03,1.99-.11,3.55-1.06,4.55-2.85.39-.69.93-1.3,1.4-1.94.62,1.03.64,1.84.61,2.65-.07,2.36.37,2.79,2.55,2.63,2.97-.21,5.94-.39,8.91-.5,3.5-.13,4.93-1.91,4.31-5.69-1.77-.16-3.58-.33-5.57-.51,0-1.2.06-2.07-.01-2.93-.45-5.27-.67-10.58-1.46-15.8-.85-5.64-4.97-8.69-10.57-8.17-3.84.36-7.66,1.02-11.11,2.96-.92.52-1.86.99-2.62,1.39.39,2.32.78,4.26,1.04,6.21.17,1.32.76,2.04,2.13,1.95.75-.05,1.49-.19,2.43-.31ZM354.83,217.65c2.82.34,5.52.83,8.24.94,4.12.16,8.18-.4,11.87-2.43,5.38-2.96,6.62-9.81,2.64-14.43-1.83-2.13-3.96-3.81-6.73-4.6-1.27-.36-2.5-.89-3.69-1.46-2.65-1.25-3.75-3.11-2.94-4.8.88-1.84,3.41-2.49,5.84-1.28.78.39,1.35,1.32,1.83,2.12.44.74.43,1.83.99,2.39.63.63,1.7,1.18,2.54,1.12.59-.04,1.31-1.06,1.62-1.79.41-1,.57-2.13.69-3.22.37-3.3-.61-4.5-3.85-4.82-1.21-.12-2.42-.31-3.63-.29-4.52.09-8.91.35-13.06,2.8-5.26,3.11-4.89,10.82-.24,13.58,1.79,1.06,3.71,1.93,5.65,2.68,2.6,1,5.07,2.16,7.09,4.15.87.86,1.24,1.72.76,2.95-1.05,2.67-3.16,3.91-6.42,3.39-3.96-.63-4.95-1.05-4.95-4.76,0-.55-.04-1.11-.14-1.65-.36-1.97-.66-2.15-3.43-2.04-.22,3.66-.45,7.35-.7,11.46ZM195.06,216.35c6.22.22,12.34.43,18.71.65.09-1.62.16-2.76.23-4.01-4.12-.58-4.84-3.27-4.96-6.54-.17-4.78,1.79-8.81,4.28-12.64.89-1.38,2.29-1.38,3.26-.04.62.86.91,1.97,1.27,3,.28.8.43,1.64.72,2.78,1.65-.31,3.08-.59,4.67-.89v-14.17c-3.35-1.13-6.03-.42-8.08,2.25-1.21,1.57-2.22,3.29-3.39,4.89-.45.62-1.12,1.08-1.69,1.61-.24-.11-.47-.22-.71-.33.16-2.54.32-5.08.47-7.59-.61-.15-.93-.32-1.23-.29-3.83.42-7.65.85-11.47,1.34-1.68.22-1.64,1.46-1.49,2.71,2.92.87,3.01.87,3.17,4,.25,4.85.32,9.71.54,14.55.08,1.79-.58,3.05-2.24,3.62-2.39.83-2.91,2.42-2.08,5.12ZM225.44,186.09v3.78c2.9.41,3.32,2.52,3.36,4.68.09,4.19-.09,8.38.02,12.57.07,2.67-.59,4.77-3.17,5.97-1.18.55-1.63,1.41-.72,2.88h17.69c-.66-2.37,1.31-5.49-2.3-7.06-.38-.17-.52-1.17-.55-1.79-.19-4.85-.36-9.7-.46-14.55-.04-1.76.1-3.52.16-5.29.05-1.62-.63-2.55-2.35-2.38-3.82.37-7.63.78-11.67,1.19ZM223.09,224.38c-2.23.18-3.96.32-5.87.48.54,1.49.97,2.83,1.5,4.13.58,1.43,1.26,2.82,1.88,4.23q1.35,3.07,5.09,2.94c.65-1.48,1.33-3.02,2.01-4.56.27.01.53.03.8.04.44,1.38.87,2.76,1.4,4.42h5.82c.99-2.99,2.01-6,2.98-9.03.19-.6.17-1.27.26-2.05-.8-.28-1.47-.52-2.37-.83-.92,2.42-1.77,4.68-2.82,7.45-1.09-2.79-1.92-4.92-2.69-6.9-3.88-.44-3.87-.43-4.94,2.87-.25.77-.61,1.51-1.1,2.73-.75-2.27-1.31-4-1.95-5.92ZM337.56,223.85v12.64c1.52.12,2.78.21,4.17.32.22-1.54.4-2.79.59-4.15.72,0,1.27-.05,1.8,0,2.62.31,5.05-.32,7.35-1.47,1.76-.88,2.54-2.52,2.22-4.34-.31-1.77-1.6-2.31-3.12-2.39-4.26-.24-8.53-.4-13.02-.61ZM199.84,235.94c.19-3.87.38-7.83.59-12.05-1.16.09-2.08.16-3.07.24-.13,2.16-.24,4.06-.35,5.96-.25.07-.5.14-.75.21-.62-1.08-1.15-2.22-1.88-3.21-.55-.74-1.27-1.71-2.05-1.86-2.22-.41-4.53-.71-6.94.25.24,3.69-.66,7.38.52,10.98,2,.16,2.81-.55,2.85-2.42.04-1.75-.45-3.58.35-5.75,1.05,1.4,1.99,2.34,2.56,3.47,1.68,3.36,4.21,4.95,8.18,4.19ZM277.82,235.72v-11.57h-3.34c-.49,1.53-.95,2.95-1.44,4.45-1.48,0-2.81.06-4.12-.01-2.18-.12-2.35-.35-2.28-2.66.02-.54.08-1.07.14-1.79h-4.3c0,3.86-.92,7.6-.5,11.78,1.82-.3,3.28-.54,4.64-.76.23-1.36.41-2.42.62-3.64h5.73c.23,1.43.43,2.71.67,4.21h4.17ZM286.79,232.35c.44.77.67,1.81,1.27,2.12,1.64.83,3.41,1.71,5.2,1.91,2.02.23,4.18-.04,6.17-.51,1.47-.35,2.25-1.71,2.19-3.34-.06-1.59-1.06-2.35-2.48-2.67-1.07-.25-2.17-.36-3.24-.62-1.26-.3-2.56-.63-2.85-2.29,1.92-1.48,3.6-.82,5.15.42,1.16.92,2.27,1.29,3.66.22-.53-3.12-3-3.81-5.51-4.2-2.9-.45-5.83-.44-7.8,2.29-1.23,1.71-.77,3.21,1.18,3.95,1.33.5,2.77.72,4.15,1.12.99.29,1.95.69,3.17,1.13-2.42,1.87-3.32,2.03-5.19.52-1.63-1.32-3.09-1.43-5.08-.04ZM162.63,231.7c-2.55,2.28-2.78,2.28-4.77,1.12-1.01-.59-2.08-1.2-3.2-1.45-1.04-.23-2.34-.2-2.72,1.21-.35,1.33.62,2,1.6,2.58,3.74,2.22,7.43,1.46,11.07-.25,1.38-.65,2.49-1.69,2.31-3.31-.21-1.82-1.9-1.42-3.12-1.72-1.92-.47-3.85-.94-5.72-1.58-.42-.15-.93-1.1-.81-1.51.13-.45,1.01-1.06,1.44-.98,1.05.2,2.09.66,3.02,1.21,1.63.95,3.22,1.16,5.56.2-1.47-1.37-2.5-2.61-3.79-3.48-2.77-1.89-8.01-1.2-10.15,1.17-1.63,1.81-1.45,3.08.76,4.08,1.29.59,2.72.85,4.09,1.28,1.31.41,2.62.84,4.43,1.43ZM202.32,235.69c1.07.1,1.72.22,2.37.22,2.31,0,4.61.02,6.91-.11,3.02-.17,5.52-2.76,5.7-5.76.17-2.89-1.7-5.14-4.61-5.28-2.74-.14-5.49-.11-8.23-.08-.72,0-1.43.3-2.14.46v10.56ZM327.83,223.08c-.02.1-.05.2-.07.31-.55,0-1.11-.07-1.65.01-3.14.49-5.14,2.44-5.49,5.3-.37,3.07.83,5.16,4.03,6.32,1.61.58,3.42.88,5.14.85,3.07-.05,5.88-2.63,6.55-5.6.47-2.1-.42-4.61-2.27-5.37-2-.81-4.16-1.23-6.25-1.82ZM343.2,184.97c2.5,2.31,4.07,2.51,6.28.66,1.34-1.12,2.48-2.51,3.6-3.86,3.21-3.87,2.87-7.45-.94-10.65-2.27-1.9-5.04-1.63-6.64.65-1.45,2.08-.75,4.71,1.66,6.2,2.57,1.58,2.68,2.72.26,4.55-1.2.91-2.62,1.53-4.24,2.45ZM260.12,230.78c-1.5-.23-2.87-.61-3.9,1.26-.85,1.53-2.51,1.71-4.11,1.29-1.43-.37-2.18-1.43-2.32-2.89-.14-1.44.25-2.6,1.65-3.3,1.55-.77,3.55-.8,4.59.51,1.42,1.79,2.82,1.63,4.54.9-.55-2.92-.73-3.45-2.48-4.06-3.33-1.16-6.7-1.41-9.89.55-2.28,1.4-3.31,3.97-2.72,6.58.56,2.47,2.44,4.16,5.17,4.38,1.76.14,3.54.13,5.3.02,3.63-.23,4.35-1.16,4.18-5.25ZM183.52,235.06c.42-2.52-1.26-4.25-2.08-6.23-1.9-4.63-.91-3.14-5.4-4.09-1.63-.35-2.78.2-3.61,1.6-1.58,2.65-3.18,5.29-4.72,7.97-.18.31-.02.82-.02,1.29,1.71.48,3.09.82,4.49-.88,1.34-1.63,5.45-1.81,6.62-.41,1.49,1.79,2.99,1.33,4.73.75ZM318.52,235.35c0-3.28.05-6.45-.02-9.62-.03-1.49-1.15-1.63-2.64-1.67-.28,1.55-.55,3.01-.83,4.58-2.53.25-5,.98-7.41-.51-.12-1.37-.23-2.65-.36-4.18-1.13.14-2.04.25-2.96.36v11.12h4.53v-4.46c1.82.15,3.4.29,5.14.44.36,1.37.69,2.6,1.04,3.94h3.5ZM238.51,177.8c.02-2.87-2.07-4.98-4.99-5.03-2.53-.04-5.05,2.56-4.98,5.15.06,2.52,2.1,4.53,4.67,4.62,2.78.1,5.28-2.14,5.3-4.74ZM240.03,235.78h4.51c-.31-4-.6-7.67-.89-11.31-2.99-.17-3.45.05-3.58,2.46-.16,2.83-.04,5.68-.04,8.85Z"/>
    <path class="cls-1" d="M316.21,165.75c.36,3-1.27,4.63-3.44,5.63-1.67.77-3.58,1.36-5.4,1.44-6.96.31-13.91.07-20.81-1.09-2.58-.43-4.44-1.84-6.21-3.51-.83-.78-.87-2.79-.17-3.63.87-1.04,1.76-.47,2.66,0,.59.3,1.19.61,1.83.76,2.5.61,4.21-1.02,3.58-3.52-.43-1.71-1.2-3.32-1.64-5.03-2.26-8.82,3.72-18.29,12.65-19.99,1.26-.24,2.71-.34,3.9.03,3.24,1.02,6.48,2.14,9.54,3.59,2.19,1.04,3.34,3.31,3.77,5.61.72,3.82.95,7.73-.72,11.39-.67,1.47-1.72,2.8-2.76,4.06-.94,1.14-1.43,2.33-.7,3.62.68,1.21,1.9.79,2.98.56.2-.04.43.02.95.06ZM297.54,159.53c.21.22.41.44.62.66.37-.17.8-.27,1.1-.52,4.11-3.37,6.86-7.74,9.11-12.47.36-.76.48-1.71.46-2.57-.03-1.6-1.04-2.73-2.64-2.88-2.52-.24-4.85.29-6.69,2.19-1.44,1.47-1.65,3.27-.56,4.43.91.96,2.08.84,3.92-.4-.84-.39-1.73-.8-3.39-1.55,1.79-1.11,2.79-2.03,3.96-2.36.92-.26,2.27-.08,2.99.48.46.35.35,1.83.08,2.66-1.22,3.76-3.59,6.79-6.31,9.59-.89.91-1.77,1.83-2.66,2.74Z"/>
    <path class="cls-5" d="M180.4,211.92c-1.43,1.22-2.59,1.9-3.33,2.9-3.85,5.14-11.29,2.86-13.52-2.37-2.46-5.73-2.47-11.65-.07-17.39,1.05-2.52,2.71-4.8,4.22-7.1,1.67-2.52,4.4-3.18,7.15-3.66,1.4-.24,2.82-.34,4.36-.52.67-2.98.31-5.79.18-8.51-1.34-.76-2.52-1.42-3.71-2.09l.16-.64c4.78-.8,9.55-1.59,14.79-2.46,0,3.92.02,7.53,0,11.14-.05,7.39-.14,14.77-.17,22.16,0,1.54.08,3.09.28,4.62.12.96.22,2.28.85,2.74,2.47,1.83,1.28,4.18,1.14,6.34-.03.57-.8,1.29-1.41,1.6-2.84,1.45-5.83,1.1-8.67.13-.81-.28-1.49-1.54-1.81-2.49-.37-1.09-.27-2.34-.44-4.4ZM180.78,197.12c-.23-2.29-.33-4.6-.77-6.83-.16-.78-1.14-1.91-1.81-1.96-.91-.06-2.21.53-2.74,1.28-.87,1.21-1.69,2.75-1.76,4.19-.18,3.94-.06,7.89.15,11.83.09,1.61.51,3.4,2.6,3.73,1.3.21,2.42-.88,2.98-3.41.63-2.88.9-5.84,1.34-8.83Z"/>
    <path class="cls-1" d="M254.18,169.52c-2.1-4.12-7.09-4.67-10.65-8.13,2.37.1,4.45.81,5.25-1.73,1.84,1.45.58,4.3,2.96,5.13,1.31.45,2.57,1.04,4.13,1.33-1.5-1.28-1.36-2.84-1.28-4.38.21-3.97.54-7.94.6-11.91.02-1.48-.56-2.97-.88-4.45-.16-.74-.52-1.46-.53-2.2-.02-1.03.25-2.07,1.6-2.07,1.08,0,1.97.48,2.16,1.65.16.98.16,1.98.29,2.97.17,1.31.72,2.42,2.2,2.47,1.42.06,2.21-.92,2.59-2.16.26-.83.27-1.74.48-2.59.21-.85.34-1.82.86-2.45.39-.47,1.38-.7,2.03-.6.4.07.85.95.93,1.51.1.73.02,1.59-.27,2.26-1.62,3.77-1.64,7.75-1.67,11.73-.02,2.76.07,5.52.12,8.29.07,3.87,2.03,6.21,5.92,6.63,2.4.26,4.86.06,7.28.14,1.2.04,2.54-.06,3.57.43,4.75,2.27,9.89,2.12,14.92,2.6,2.63.25,5.3.15,7.95.19.88.01,1.83.13,2.64-.14,4.77-1.56,9.78-1.48,14.65-2.29,2.09-.35,4.02-.87,5.73-2.32,1.54-1.32,2.64-.73,2.79,1.33.1,1.32.09,2.66-.08,3.97-.49,3.73-3.85,5.53-7.31,3.99-2.62-1.16-3.63-1-5.63.88-2.15,2.03-3.44,2.32-5.36.39-3.86-3.87-7.98-3.62-12.43-1.41-1.19.59-2.37,1.2-3.58,1.72-2.15.93-4.29.97-6.29-.42-4.16-2.9-8.27-2.36-12.39.09-2.8,1.67-5.88,1.78-8.51.13-4.14-2.59-8.45-1.93-12.83-1.56-.87.07-1.77.4-2.59.23-.64-.13-1.58-.74-1.68-1.27-.38-2.04-.85-4.19.35-6.12.45-.73,1.28-1.23,1.96-1.85ZM260.43,155.25c-.33-.3-.63-.7-.73-.66-.34.17-.72.43-.85.76-.06.15.39.52.61.79.29-.27.59-.54.97-.89ZM258.26,159.32c-.38-.16-.67-.39-.92-.35-.23.04-.42.37-.62.58.31.19.6.48.93.54.14.02.36-.44.61-.76Z"/>
    <path class="cls-5" d="M158.23,213.22c1.5.17,2.35.26,3.51.39-.08,1.36-.15,2.63-.21,3.79h-21.4v-4.41c1.06-.4,2.17-.82,3.45-1.3,0-2.03.05-4.21-.04-6.38-.02-.6-.34-1.33-.76-1.76-1.31-1.34-7.47-.48-8.15,1.25-1.12,2.85-1.98,5.81-1.5,9.14,1.27.17,2.43.33,3.81.52-.18.57-.31,1.41-.45,1.42-4.37.09-8.57,2.22-13.23,1.15-.11-1.06-.21-2.12-.35-3.43,2.62-.55,3.43-2.46,3.89-4.76,1.82-9.13,5.35-17.73,8.34-26.5.21-.63.44-1.25.61-1.89q.65-2.4-1.91-3.59c-.04-2.83-.04-2.84,2.3-3.32,3.7-.75,7.42-.62,11.49-.54,3.54,13.45,7.05,26.76,10.59,40.22ZM142.67,199.6c-.8-4.48-1.5-8.58-2.31-12.67-.12-.62-.77-1.14-1.18-1.7-.51.48-1.29.88-1.47,1.46-1,3.27-1.87,6.59-2.75,9.9-.21.81-.29,1.65-.45,2.57,2.87,1.22,5.49.86,8.16.45Z"/>
    <path class="cls-5" d="M312.53,217.35h-16.18c-.33-1.45-.68-3-1.07-4.7,1.47-.52,2.68-.96,4.23-1.51.09-4.97.53-10.01-.53-15.01-.31-1.48-.79-3.09-2.71-3.35-2.09-.28-3.28,1.01-4.19,2.63-.37.67-.8,1.42-.83,2.14-.17,4.52-.27,9.04-.29,13.56,0,.55.47,1.42.94,1.6,2.48.99,1.74,2.89,1.65,4.86h-16.88c-.12-1.98-.24-3.8-.36-5.72.85-.41,1.52-.74,2.2-1.05,1.36-.63,1.93-1.68,1.9-3.18-.07-4.42-.06-8.84-.14-13.27-.05-2.78-.24-2.93-3.05-3.89-.41-.14-.79-.34-1.39-.6.17-.97.33-1.9.52-2.99,4.42.01,8.55-1.94,13.01-.64.08,1.45.16,2.85.24,4.15,1.52.78,1.99-.29,2.48-1.09,1.05-1.72,2.04-3.37,4.24-3.89,2.96-.71,5.91-1.01,8.81.03,2.49.89,3.29,3.13,3.71,5.47.79,4.37,1.1,8.76.62,13.2-.17,1.53-.22,3.1-.1,4.63.06.79.44,2,.99,2.23,3.01,1.22,2.28,3.6,2.19,6.39Z"/>
    <path class="cls-5" d="M274.59,211.38v6.43h-12.44c-.14-1.37-.29-2.76-.48-4.54-.82.43-1.48.68-2.01,1.09-1.04.81-1.98,1.76-3.02,2.58-2.27,1.8-5.8,2.05-8.36.41-2.42-1.55-3.65-3.84-3.14-6.77.22-1.28.54-2.67,1.24-3.72,2.71-4.07,5.66-7.88,10.97-8.86,2.31-.43,2.86-1.31,2.98-3.32.17-2.88-.86-5.22-2.63-5.97-1.62-.69-3.09-.35-4.02,1.19-.61,1.01-.99,2.21-1.26,3.37-.35,1.48-.48,3.01-.72,4.62h-3.66c-1.55-3-2.29-6.04-2.22-9.05,4.74-4.47,10.46-4.74,16.25-4.77.55,0,1.11.05,1.64.18,3.7.92,8.54,6.9,8.63,10.76.1,4.19.13,8.39.1,12.58-.01,1.76.1,3.34,2.16,3.8ZM260.72,201.09c-3,1.5-4.87,4.84-4.36,7.31.24,1.18,1.2,1.69,2.16.99.68-.49,1.29-1.21,1.66-1.97.92-1.92,1.07-3.95.54-6.33Z"/>
    <path class="cls-5" d="M321.85,196.47c-.94.12-1.68.26-2.43.31-1.37.1-1.96-.62-2.13-1.95-.25-1.96-.64-3.89-1.04-6.21.76-.4,1.7-.88,2.62-1.39,3.45-1.94,7.27-2.6,11.11-2.96,5.6-.53,9.72,2.53,10.57,8.17.79,5.22,1.02,10.53,1.46,15.8.07.86.01,1.73.01,2.93,1.99.18,3.8.35,5.57.51.62,3.78-.81,5.56-4.31,5.69-2.97.11-5.94.29-8.91.5-2.18.15-2.62-.27-2.55-2.63.02-.81,0-1.62-.61-2.65-.47.65-1.01,1.25-1.4,1.94-1.01,1.8-2.56,2.74-4.55,2.85-1.85.11-3.76.29-5.56-.03-4.06-.71-6.32-4.48-5.24-8.41.81-2.97,2.13-5.54,5.21-6.84,1.82-.77,3.52-1.82,5.32-2.64,1.79-.81,3.65-1.49,5.72-2.33-.15-1.93-.13-3.82-.49-5.62-.42-2.11-1.72-2.81-4.24-2.7-2.29.1-3.33.88-3.69,3-.24,1.41-.29,2.85-.45,4.66ZM330.1,200.58c-3.02,1.37-5.33,4.74-5.17,7.48.04.63.24,1.3.53,1.87.78,1.51,1.91,1.66,3.16.51,2.33-2.14,3.04-6.5,1.48-9.86Z"/>
    <path class="cls-5" d="M354.83,217.65c.25-4.1.47-7.79.7-11.46,2.77-.11,3.07.07,3.43,2.04.1.54.14,1.1.14,1.65,0,3.7.98,4.13,4.95,4.76,3.26.52,5.36-.72,6.42-3.39.48-1.23.11-2.08-.76-2.95-2.02-1.99-4.48-3.15-7.09-4.15-1.94-.75-3.87-1.61-5.65-2.68-4.65-2.76-5.02-10.47.24-13.58,4.14-2.45,8.54-2.7,13.06-2.8,1.21-.02,2.42.17,3.63.29,3.24.33,4.22,1.52,3.85,4.82-.12,1.09-.27,2.22-.69,3.22-.3.73-1.03,1.75-1.62,1.79-.84.05-1.91-.49-2.54-1.12-.56-.56-.55-1.65-.99-2.39-.48-.8-1.06-1.73-1.83-2.12-2.43-1.21-4.96-.56-5.84,1.28-.81,1.69.29,3.55,2.94,4.8,1.2.56,2.43,1.09,3.69,1.46,2.77.79,4.91,2.48,6.73,4.6,3.97,4.62,2.74,11.47-2.64,14.43-3.69,2.03-7.75,2.59-11.87,2.43-2.72-.1-5.42-.6-8.24-.94Z"/>
    <path class="cls-5" d="M195.06,216.35c-.84-2.69-.31-4.29,2.08-5.12,1.65-.57,2.32-1.83,2.24-3.62-.22-4.85-.29-9.71-.54-14.55-.16-3.13-.25-3.13-3.17-4-.15-1.25-.2-2.49,1.49-2.71,3.82-.49,7.65-.91,11.47-1.34.3-.03.62.14,1.23.29-.16,2.52-.31,5.06-.47,7.59.24.11.47.22.71.33.57-.53,1.23-1,1.69-1.61,1.17-1.6,2.18-3.32,3.39-4.89,2.06-2.66,4.73-3.37,8.08-2.25v14.17c-1.59.3-3.02.57-4.67.89-.29-1.13-.44-1.98-.72-2.78-.36-1.03-.65-2.14-1.27-3-.97-1.34-2.37-1.34-3.26.04-2.49,3.83-4.45,7.86-4.28,12.64.12,3.28.84,5.96,4.96,6.54-.07,1.26-.14,2.39-.23,4.01-6.38-.22-12.5-.44-18.71-.65Z"/>
    <path class="cls-5" d="M225.44,186.09c4.03-.41,7.85-.82,11.67-1.19,1.72-.17,2.41.76,2.35,2.38-.06,1.76-.2,3.53-.16,5.29.11,4.85.27,9.7.46,14.55.02.62.17,1.63.55,1.79,3.61,1.58,1.64,4.69,2.3,7.06h-17.69c-.91-1.47-.46-2.34.72-2.88,2.58-1.2,3.24-3.3,3.17-5.97-.11-4.19.07-8.38-.02-12.57-.04-2.16-.46-4.26-3.36-4.68v-3.78Z"/>
    <path class="cls-1" d="M223.09,224.38c.63,1.92,1.2,3.65,1.95,5.92.49-1.21.85-1.95,1.1-2.73,1.07-3.3,1.06-3.31,4.94-2.87.77,1.97,1.6,4.1,2.69,6.9,1.05-2.77,1.9-5.03,2.82-7.45.9.31,1.57.55,2.37.83-.09.78-.07,1.45-.26,2.05-.97,3.03-1.99,6.04-2.98,9.03h-5.82c-.53-1.66-.96-3.04-1.4-4.42-.27-.01-.53-.03-.8-.04-.68,1.54-1.36,3.09-2.01,4.56q-3.75.14-5.09-2.94c-.62-1.41-1.29-2.8-1.88-4.23-.53-1.3-.97-2.64-1.5-4.13,1.91-.16,3.65-.3,5.87-.48Z"/>
    <path class="cls-1" d="M337.56,223.85c4.49.2,8.76.37,13.02.61,1.52.09,2.81.63,3.12,2.39.32,1.82-.46,3.46-2.22,4.34-2.31,1.15-4.74,1.78-7.35,1.47-.53-.06-1.08,0-1.8,0-.19,1.36-.37,2.61-.59,4.15-1.39-.1-2.65-.2-4.17-.32v-12.64ZM342.94,229.51c1.64,0,2.97.11,4.26-.06.49-.07.89-.79,1.33-1.22-.48-.5-.89-1.28-1.47-1.43-.93-.25-1.97-.17-2.95-.07-1.78.18-1.76,1.27-1.16,2.77Z"/>
    <path class="cls-1" d="M199.84,235.94c-3.97.76-6.5-.82-8.18-4.19-.56-1.13-1.51-2.07-2.56-3.47-.81,2.17-.32,4-.35,5.75-.04,1.88-.85,2.58-2.85,2.42-1.17-3.59-.28-7.28-.52-10.98,2.42-.96,4.72-.66,6.94-.25.78.14,1.51,1.11,2.05,1.86.73.99,1.26,2.13,1.88,3.21.25-.07.5-.14.75-.21.11-1.9.22-3.8.35-5.96.99-.08,1.9-.15,3.07-.24-.21,4.22-.4,8.18-.59,12.05Z"/>
    <path class="cls-1" d="M277.82,235.72h-4.17c-.24-1.49-.44-2.77-.67-4.21h-5.73c-.21,1.22-.39,2.28-.62,3.64-1.37.22-2.82.46-4.64.76-.42-4.19.51-7.92.5-11.78h4.3c-.06.72-.13,1.26-.14,1.79-.07,2.3.11,2.54,2.28,2.66,1.31.07,2.63.01,4.12.01.48-1.5.94-2.92,1.44-4.45h3.34v11.57Z"/>
    <path class="cls-1" d="M286.79,232.35c1.99-1.39,3.45-1.28,5.08.04,1.87,1.51,2.77,1.35,5.19-.52-1.22-.44-2.18-.83-3.17-1.13-1.37-.4-2.81-.62-4.15-1.12-1.95-.74-2.41-2.24-1.18-3.95,1.97-2.74,4.9-2.75,7.8-2.29,2.51.39,4.98,1.08,5.51,4.2-1.39,1.07-2.5.7-3.66-.22-1.55-1.23-3.23-1.9-5.15-.42.29,1.67,1.59,1.99,2.85,2.29,1.07.26,2.17.38,3.24.62,1.41.32,2.42,1.09,2.48,2.67.06,1.63-.72,2.99-2.19,3.34-2,.47-4.15.74-6.17.51-1.79-.2-3.55-1.08-5.2-1.91-.6-.31-.83-1.35-1.27-2.12Z"/>
    <path class="cls-1" d="M162.63,231.7c-1.81-.58-3.12-1.02-4.43-1.43-1.36-.43-2.8-.69-4.09-1.28-2.21-1.01-2.39-2.28-.76-4.08,2.14-2.37,7.38-3.06,10.15-1.17,1.28.88,2.32,2.11,3.79,3.48-2.34.96-3.93.75-5.56-.2-.93-.54-1.97-1-3.02-1.21-.43-.08-1.31.53-1.44.98-.12.41.39,1.36.81,1.51,1.87.64,3.8,1.11,5.72,1.58,1.22.3,2.91-.11,3.12,1.72.19,1.63-.93,2.67-2.31,3.31-3.64,1.72-7.33,2.48-11.07.25-.98-.58-1.95-1.26-1.6-2.58.37-1.41,1.68-1.45,2.72-1.21,1.12.25,2.19.86,3.2,1.45,1.99,1.16,2.22,1.16,4.77-1.12Z"/>
    <path class="cls-1" d="M202.32,235.69v-10.56c.71-.16,1.43-.45,2.14-.46,2.74-.03,5.49-.06,8.23.08,2.9.15,4.78,2.4,4.61,5.28-.18,3-2.68,5.59-5.7,5.76-2.3.13-4.61.1-6.91.11-.65,0-1.3-.12-2.37-.22ZM206.21,232.27c1.83,1.15,3.33.72,4.82.29,1.17-.34,1.89-1.11,1.94-2.38.05-1.28-.58-2.1-1.76-2.49-1.67-.55-3.35-.99-5-.2v4.78Z"/>
    <path class="cls-1" d="M327.83,223.08c2.09.59,4.25,1.01,6.25,1.82,1.85.75,2.74,3.27,2.27,5.37-.66,2.97-3.47,5.54-6.55,5.6-1.71.03-3.52-.26-5.14-.85-3.21-1.16-4.4-3.25-4.03-6.32.34-2.85,2.35-4.81,5.49-5.3.54-.08,1.1-.01,1.65-.01.02-.1.05-.2.07-.31ZM328.25,232.61c2.73,0,4.18-1.05,4.25-3.07.06-1.74-1.98-3.51-4.08-3.52-1.82-.02-3.69,1.92-3.78,3.91-.09,1.92.93,2.68,3.61,2.68Z"/>
    <path class="cls-5" d="M343.2,184.97c1.62-.92,3.04-1.54,4.24-2.45,2.42-1.83,2.3-2.97-.26-4.55-2.41-1.48-3.12-4.11-1.66-6.2,1.59-2.28,4.37-2.56,6.64-.65,3.81,3.2,4.14,6.78.94,10.65-1.12,1.35-2.26,2.74-3.6,3.86-2.21,1.85-3.78,1.66-6.28-.66Z"/>
    <path class="cls-1" d="M260.12,230.78c.17,4.09-.55,5.02-4.18,5.25-1.76.11-3.54.13-5.3-.02-2.73-.23-4.61-1.91-5.17-4.38-.59-2.61.44-5.18,2.72-6.58,3.18-1.96,6.55-1.71,9.89-.55,1.75.61,1.94,1.14,2.48,4.06-1.72.74-3.12.89-4.54-.9-1.04-1.32-3.04-1.29-4.59-.51-1.4.7-1.79,1.86-1.65,3.3.14,1.47.89,2.52,2.32,2.89,1.6.42,3.26.23,4.11-1.29,1.03-1.86,2.4-1.48,3.9-1.26Z"/>
    <path class="cls-1" d="M183.52,235.06c-1.73.58-3.23,1.04-4.73-.75-1.17-1.4-5.28-1.22-6.62.41-1.4,1.7-2.77,1.36-4.49.88,0-.48-.16-.98.02-1.29,1.54-2.68,3.14-5.31,4.72-7.97.83-1.4,1.98-1.94,3.61-1.6,4.49.95,3.5-.53,5.4,4.09.81,1.98,2.5,3.7,2.08,6.23ZM175.31,227.26c-.8,1.5-1.32,2.48-2.18,4.1,1.84-.27,2.99-.44,4.67-.69-.96-1.31-1.55-2.12-2.5-3.4Z"/>
    <path class="cls-1" d="M318.52,235.35h-3.5c-.35-1.33-.68-2.56-1.04-3.94-1.75-.15-3.33-.28-5.14-.44v4.46h-4.53v-11.12c.91-.11,1.82-.22,2.96-.36.13,1.53.24,2.81.36,4.18,2.41,1.49,4.87.75,7.41.51.28-1.57.55-3.03.83-4.58,1.49.04,2.61.18,2.64,1.67.07,3.16.02,6.33.02,9.62Z"/>
    <path class="cls-5" d="M238.51,177.8c-.02,2.61-2.52,4.84-5.3,4.74-2.57-.09-4.6-2.11-4.67-4.62-.07-2.59,2.45-5.19,4.98-5.15,2.91.05,5.01,2.16,4.99,5.03Z"/>
    <path class="cls-1" d="M240.03,235.78c0-3.17-.12-6.02.04-8.85.13-2.41.59-2.63,3.58-2.46.29,3.65.57,7.31.89,11.31h-4.51Z"/>
    <path class="cls-6" d="M297.54,159.53c.89-.91,1.77-1.83,2.66-2.74,2.72-2.79,5.09-5.83,6.31-9.59.27-.84.38-2.31-.08-2.66-.72-.56-2.07-.74-2.99-.48-1.17.33-2.17,1.25-3.96,2.36,1.65.76,2.55,1.17,3.39,1.55-1.85,1.23-3.02,1.36-3.92.4-1.09-1.16-.88-2.95.56-4.43,1.84-1.89,4.17-2.43,6.69-2.19,1.6.15,2.61,1.28,2.64,2.88.02.86-.1,1.81-.46,2.57-2.24,4.72-4.99,9.1-9.11,12.47-.3.25-.73.35-1.1.52-.21-.22-.41-.44-.62-.66Z"/>
    <path class="cls-6" d="M180.78,197.12c-.44,2.99-.71,5.95-1.34,8.83-.56,2.53-1.68,3.61-2.98,3.41-2.09-.33-2.52-2.11-2.6-3.73-.21-3.94-.33-7.9-.15-11.83.07-1.44.89-2.98,1.76-4.19.53-.74,1.83-1.34,2.74-1.28.67.04,1.66,1.17,1.81,1.96.45,2.23.54,4.54.77,6.83Z"/>
    <path class="cls-6" d="M260.43,155.25c-.38.35-.67.62-.97.89-.22-.27-.68-.64-.61-.79.14-.32.51-.59.85-.76.09-.04.4.35.73.66Z"/>
    <path class="cls-6" d="M257.62,155.25c-.38.35-.67.62-.97.89-.22-.27-.68-.64-.61-.79.14-.32.51-.59.85-.76.09-.04.4.35.73.66Z"/>
    <path class="cls-6" d="M258.26,159.32c-.25.32-.47.79-.61.76-.33-.05-.62-.34-.93-.54.21-.2.39-.54.62-.58.25-.04.55.19.92.35Z"/>
    <path class="cls-6" d="M142.67,199.6c-2.67.41-5.29.76-8.16-.45.16-.91.23-1.76.45-2.57.88-3.31,1.75-6.62,2.75-9.9.18-.58.97-.98,1.47-1.46.41.57,1.06,1.08,1.18,1.7.81,4.09,1.51,8.2,2.31,12.67Z"/>
    <path class="cls-6" d="M260.72,201.09c.53,2.38.38,4.41-.54,6.33-.36.75-.98,1.48-1.66,1.97-.96.7-1.92.18-2.16-.99-.51-2.47,1.36-5.8,4.36-7.31Z"/>
    <path class="cls-6" d="M330.1,200.58c1.57,3.36.85,7.72-1.48,9.86-1.25,1.15-2.39,1-3.16-.51-.29-.57-.5-1.24-.53-1.87-.15-2.73,2.15-6.11,5.17-7.48Z"/>
    <path class="cls-6" d="M342.94,229.51c-.59-1.5-.62-2.59,1.16-2.77.98-.1,2.03-.18,2.95.07.58.15.99.93,1.47,1.43-.44.42-.84,1.15-1.33,1.22-1.29.17-2.62.06-4.26.06Z"/>
    <path class="cls-6" d="M206.21,232.27v-4.78c1.66-.79,3.34-.36,5,.2,1.18.39,1.81,1.21,1.76,2.49-.05,1.27-.77,2.04-1.94,2.38-1.49.44-2.99.86-4.82-.29Z"/>
    <path class="cls-6" d="M328.25,232.61c-2.67,0-3.69-.76-3.61-2.68.09-1.99,1.96-3.93,3.78-3.91,2.1.02,4.14,1.78,4.08,3.52-.07,2.02-1.52,3.07-4.25,3.07Z"/>
    <path class="cls-6" d="M175.31,227.26c.94,1.29,1.53,2.09,2.5,3.4-1.68.25-2.84.42-4.67.69.86-1.62,1.38-2.59,2.18-4.1Z"/>
  </g>
</svg>