<?xml version="1.0" encoding="UTF-8"?>
<svg id="Layer_1" xmlns="http://www.w3.org/2000/svg" viewBox="0 0 400 400">
  <defs>
    <style>
      .cls-1 {
        fill: #e7d9c0;
      }

      .cls-2 {
        fill: #4c4d4e;
      }

      .cls-3, .cls-4 {
        fill-rule: evenodd;
      }

      .cls-5 {
        font-family: AmericanTypewriter-CondensedBold, 'American Typewriter';
        font-size: 44px;
        font-weight: 700;
      }

      .cls-5, .cls-6 {
        fill: #fff;
      }

      .cls-7 {
        fill: #c9cccc;
      }

      .cls-8 {
        fill: #aecbe3;
      }

      .cls-9 {
        fill: #daebf9;
      }

      .cls-4 {
        fill: #1bb24b;
      }

      .cls-10 {
        letter-spacing: -.06em;
      }

      .cls-11 {
        fill: #99b4af;
      }
    </style>
  </defs>
  <g>
    <polygon class="cls-4" points="70.77 143.94 18.41 220.59 21.02 223.89 120.9 220.42 85.02 154.51 74.35 142.04 70.77 143.94"/>
    <path class="cls-3" d="M102.83,181.3c3.51.51,2.58,5.9,6.25,6.23.1,3.85,2.07,5.65,4.51,6.9-.28,4.06,2.02,5.29,4.46,6.32.28,1-.4,1.13-1.12,1.25.83.81,2.79,1.35,1.33,2.9.46-.34.95-.66,1.75-.68.27,1.19-.03,1.86-1.1,1.84,1.18,1.5,4.6,4.74,2.67,5.81.6,1.01,1.92,1.21,3.61,1.01.33,4.86,3,7.12,2.99,12.34-.57-.33-2.24-1.28-1.74.68-1.07-1.12-4.14-.02-4.28-2.17-1.31,2.35-4.07-1.55-7.05,1.54-1.8.3-1.33-1.87-1.94-2.88-1.7.59.85,1.45.15,2.96-.46-.38-2-2.41-1.77.09-8.28-.58-20.59-.62-27.92.19-.03-.59-.07-1.18-.09-1.77-2.68,1.57-5.81,1.88-8.31.4-1.61,2.32-12.63,2.38-16.01.8-6.52,3.76-21.02.22-24.17,4.16-5.11-2.87-13.92.38-20.31-1.96-.61-1.87.39-2.28,1.04-3.03-2.39-.09-1-.46-1.38-4.09,2.76-.89,3.9-3.25,3.84-6.72,2.74.42,1.19-3.06,4.02-2.59-.51-1.8-.47-1.11-.15-2.96,4.03.46,1.59-4.98,5.09-5-.41-.58-1.39-.55-1.27-1.73,2.38.66,1.11-2,3.5-1.36-.05-.99-.1-1.98-.15-2.96.51-.48,1.31-.7,2.34-.7,3.48-8.95,9.99-15.13,13.69-23.86,2.05-.03,2.69-1.33,2.19-3.67,1.74.07,1.75-1.44,3.51-1.37,1.44-7.95,9.01-10.35,10.39-18.35,6.51-1.46,4.95-10.24,11.3-11.85-.41-.58-1.39-.55-1.28-1.72,1.96-.12,2.9-1.16,5.32-.86,2.66,1.88-.7,3.07,3.1,2.82-2.45,2.68.76,10.53,3.43,9.33.89.15.16,4.49,3.17,4.01-.32,1.83.73,2.13.78,3.52,7.64,6.37,9.1,19.57,16.74,25.92.26,1-.41,1.15-1.13,1.25ZM68.17,153.89c-1.87.83-.53-1.9-2.43-1.07-.9.3-.4,1.9-2.29,1.31-.73,3.12-1.47,6.22-4.4,7.36-.71,3.27,1.67,3.15,2.61,4.62-4.12,3.02-4.14,12.69-11.43,9.47.67,1.77,2.84,1.86,3.17,4.01-1.56.81-2.72,1.12-3.5,1.36,2.53,2.06-.66,1.55-1.64,3.06-2.53,3.93-3.9,10.12-8.35,11.11-.16,2.87-1.21,4.96-3.9,5.53,1.5,3.08-.87.43-1.71,1.87,3.82.72-2.44,2.61.22,4.16-4.22.89-3.19,6.54-6.12,8.62-.38-1.02.55-3.52-.76-3.53,0,.93.19,2.05-1.1,1.84-.63,1.95,1.94.36,1.31,2.31-2.46.6-2.01,3.85-3.29,5.52,6.18-1.37,16.23-1.47,23.13-1.15.1-.46-.04-1.17.53-1.21,23.01,2.1,41.35-1.48,69.44-2.24-1.29-6.24-6.79-9.22-8.95-12.64-.72-5.27-5.7-5.8-5.92-11.59-2.66.4-2.28-2.11-1.96-3.46-2.36.06-4.5-3.78-2.6-4.63-1.85,1.01-1.99-.34-3.62-1.01-4.28-12.94-14.51-22.09-19.43-32.32.02.6-1.01.79-1.19.05.72-.09,1.39-.24,1.13-1.25-1.65.58-1.58-.76-3-.44-2.87,4-4.15,9.45-8.94,11.73,1.25,2.04-.44,2.89-1.57,4.25-.71-2.35-.14-4.62.87-6.59.98-.03.4,1.63,1.27,1.73.13-2.55,2.17-7.4,3.91-4.95-.06-.82.21-1.31.49-1.8Z"/>
  </g>
  <text class="cls-5" transform="translate(50.5 210.35)"><tspan class="cls-10" x="0" y="0">1</tspan><tspan x="19.27" y="0">7</tspan></text>
  <g>
    <path class="cls-7" d="M356.47,216.46s-4.92-2.46-13.78-1.72-19.03,1.53-20.22,1.14-13.74-1.14-17.18-1.14-8.01.19-8.01.19l-.97,3.14s4.06-1.11,6.52.25c2.46,1.35,4.18,2.83,4.31,4.31s.37,4.68.25,5.91-.37,3.69-1.85,4.18c-1.48.49-4.92,1.48-4.92,1.48l6.64.98.98,1.23s39.25-.12,44.05-2.83,4.18-17.1,4.18-17.1Z"/>
    <path class="cls-7" d="M215.48,212.52l18.21.25-.49,9.35s-12.06,8.12-11.81,10.58-15.99-1.48-15.99-1.48l10.09-18.7Z"/>
    <path class="cls-7" d="M209.08,279.45s84.89,7.38,110.97,2.46c0,0-24.11,19.19-59.55,16.49-35.43-2.71-49.95-16.98-51.43-18.95Z"/>
    <path class="cls-2" d="M372.36,233.55c-.07.68.05,1.53-.25,2.19-3.07,6.72-5.63,13.57-6.41,20.99-.15,1.44.07,2.62.93,3.79,3.55,4.83,7.06,9.71,10.78,14.84-.68.28-1.3.69-1.96.79-3.92.62-7.85,1.23-11.79,1.73-2.23.28-4.48.39-6.73.52-3.52.19-7.05.3-10.57.49-4.57.25-9.14.69-13.72.77-6.91.12-13.84.25-20.74-.09-5.59-.28-11.11.25-16.66.38-5.55.14-11.12.2-16.67.08-5.93-.13-11.85-.5-17.78-.78-2.62-.13-5.25-.36-7.87-.43-5.03-.14-10.07-.09-15.09-.32-6.45-.29-12.89-.79-19.34-1.17-6.9-.41-13.8-.78-20.7-1.17-8.84-.49-17.65-1.21-26.44-2.45-6.33-.89-12.53-2.38-18.83-3.39-.8-.13-1.59-.38-2.57-.61,1.17-1.31,2.25-2.47,3.27-3.69.77-.92,1.49-1.89,2.14-2.9,1.8-2.77,3.55-5.57,5.33-8.36.4-.63.83-1.25,1.2-1.91.8-1.44,2.09-2.86,2.21-4.37.11-1.37-1.12-2.83-1.64-4.29-1.06-2.97-2.06-5.96-3.04-8.96-.88-2.69-1.69-5.41-2.59-8.29.4-.04.8-.18,1.17-.11,1.33.24,2.65.52,3.96.83,1.36.32,2.85.19,3.98,1.31.28.27.84.29,1.28.36,4.66.78,9.32,1.65,14,2.27,4.09.55,8.21.85,12.32,1.19,6.59.54,13.17,1.16,19.77,1.47,9.91.46,19.77,1.39,29.62,2.57,3.8.45,7.63.67,11.45.96,7.19.55,14.37,1.35,21.56,1.55,8.18.23,16.36.62,24.56.17,6.23-.34,12.42-.95,18.63-1.51,6.28-.57,12.59-.87,18.88-1.36,4.12-.32,8.22-.82,12.34-1.11,3.44-.25,6.9-.32,10.35-.44,1.03-.04,2.11.29,2.99-.58.14-.14.41-.17.63-.19,2.59-.26,5.18-.5,8.05-.78ZM203.9,261.37c-.12-4.12-2.79-6.37-5.7-7.51-4.23-1.66-8.17.01-9.39,4.07-.19.64-.5,1.25-.69,1.9-1.06,3.68.54,7.03,4.17,8.25,1.67.56,3.5.71,5.28.88,2.29.22,3.93-1.01,4.86-2.95.7-1.45.99-3.09,1.46-4.64ZM325.7,257.73h-6.64c-.14,1.01-.36,1.82.83,2.31.43.17.83.89.88,1.39.22,1.94.36,3.89.39,5.84.03,2.01-.91,3.2-2.52,3.47-1.6.27-3.29-.71-4.03-2.2-1.28-2.56-1.1-5.23-.78-7.98.89-.24,1.75-.46,2.59-.69.34-1.28-.07-2.04-1.34-2.03-1.92.02-3.84.15-6.19.26.43.98.53,1.82.95,2.03,1.12.57,1.06,1.46,1.18,2.45.28,2.31.54,4.63,1.06,6.89.63,2.73,2.4,4.02,5.18,4.12.52.02,1.05-.02,1.58-.04,3.48-.15,4.95-1.39,5.24-4.88.17-2.07-.1-4.18-.18-6.28-.04-1.05-.2-2.06.98-2.76.41-.24.48-1.05.84-1.92ZM285.2,270.63c-.21-3.46-.42-6.8-.62-10.02q2.06-.85,1.98-1.98h-6.16c-.27.77-.28,1.17.56,1.45,1.18.4,1.88,3.18,1.12,4.18-.19.26-.62.46-.95.47-1.71.05-3.42.02-5.24.02,0-.58-.05-1.16.01-1.74.13-1.11-.29-2.45,1.34-2.99.29-.1.26-1.13.42-1.96-1.64,0-2.98-.02-4.31,0-.66.02-1.32.13-1.89.19-1.18,1.52.48,1.73,1.01,2.47,0,2.61,0,5.23,0,7.85,0,.77-.05,1.46-.93,1.84-1.02.44-.96,1.19-.29,2.15,1.64-.09,3.35-.16,5.05-.3.81-.07.89-.64.66-1.32-.65-.19-1.27-.38-2.08-.62,0-.84,0-1.65,0-2.46,0-.89.4-1.48,1.3-1.5,1.86-.05,3.71-.01,5.56-.01.18.42.38.68.4.96.08.96.33,1.99.07,2.86-.16.53-1.18.76-1.74,1.22-.26.21-.31.66-.49,1.09,2.01,0,3.79.05,5.58-.02.89-.03,1.34-.74,1.11-1.54-.41-.08-.84-.17-1.48-.31ZM297.63,273.13c4.07.05,6.43-2.52,7.73-5.52.74-1.7.89-3.6.3-5.51-.47-1.52-1.66-2.11-2.81-2.97-3.04-2.26-6.05-1.5-8.86.05-2.76,1.53-3.55,4.35-3.35,7.37.23,3.6,3.54,6.65,7,6.57ZM355.45,260.51c.17-.07.34-.15.5-.22v-3.78c-3.63-.55-6.95.9-10.38.87-.2,0-.53.33-.57.55-.04.22.17.67.34.71,1.39.34,1.35,1.47,1.4,2.5.09,2.24.15,4.49.12,6.73,0,.41-.47.92-.85,1.19-.81.58-1.02,1.22-.4,2.33,3.82-.12,7.75-.23,12-.36-.21-1.86-.39-3.46-.58-5.11h-1.77c-.1.59-.17,1.1-.27,1.6-.19.9-.67,1.5-1.67,1.5-1.1,0-2.2,0-3.56,0,.15-1.29.16-2.26.41-3.16.29-1.05,1.24-1.22,1.95-.3.38.49.65.73,1.25.57.74-.2.93-.74.85-1.37-.14-1.16-.35-2.31-.6-3.9-.74.53-1.29.75-1.56,1.15-.4.6-.74,1.23-1.54,1.01-.84-.22-.74-1.01-.75-1.68,0-.3,0-.6.03-.9.08-1.37.61-2.05,1.73-2.22,1.67-.26,2.59.22,3.13,1.51.13.31.53.52.8.77ZM336.99,259.22c0,.71-.05,1.23.01,1.73.12.99.91,1.71,1.75,1.69.82-.02,1.53-.89,1.57-1.89.06-1.58-1.13-3.14-2.73-3.38-2.33-.35-4.49.18-6.39,1.58-1.07.79-1.35,1.94-1.1,3.22.23,1.19,1.02,1.74,2.18,1.96,1.1.22,2.19.52,3.26.86.56.18,1.13.44,1.59.79,1.04.79,1.33,2.54.65,3.43-.76,1-3.54,1.53-4.36.79-.26-.23-.42-.61-.51-.95-.1-.35-.03-.75-.1-1.12-.24-1.23-1.6-1.66-2.55-.83-1.44,1.25-1.12,3.67.64,4.47,2.54,1.16,5.1.93,7.67.03,1.69-.59,2.63-1.72,2.67-3.5.05-1.85-.48-3.43-2.41-4.16-1.26-.48-2.52-.95-3.78-1.42-.35-.13-.8-.14-1.05-.37-.47-.43-1.25-1.08-1.16-1.45.15-.58.83-1.24,1.43-1.44.73-.25,1.61-.06,2.72-.06ZM262.35,262.38c-.26.7-.34,1.27-.65,1.62-.3.33-.92.67-1.27.57-.34-.1-.72-.74-.74-1.16-.04-.89.1-1.8.24-2.68.06-.34.3-.88.51-.91,1.02-.15,2.08-.28,3.1-.17.9.1,1.06.93,1.06,1.74,0,1.19.79,1.24,1.74,1.21.09-.35.2-.63.23-.91.06-.52.11-1.05.1-1.57-.03-1.77-.48-2.32-2.29-2.29-2.85.04-5.69.21-8.53.4-.36.02-.7.47-1.16.8.81.8,2.03.64,2.01,1.92-.06,2.92-.02,5.84-.02,8.73q-2.13.87-1.89,2.12h11.36c-.16-1.46.96-2.66-.1-3.98-2.21,3.11-3.49,3.54-6.36,2.15-.12-1.19-.7-2.75.65-3.38.76-.36,2.07.43,3.15.71.73-2.51.56-3.51-1.15-4.91ZM250.34,267.58q-1.15.4-1.98,1.71c-.69,1.09-2.19,1.6-3.51,1.2-1.31-.4-1.76-1.18-1.55-2.81.08-.63.34-1.23.63-2.26.84.68,1.37,1.12,1.91,1.54.74.57,1.64.37,1.72-.47.11-1.26.07-2.55-.03-3.82-.05-.61-1.03-.79-1.42-.3-.17.22-.19.55-.29.83-.31.82-1,.83-1.69.73-.76-.12-.83-.72-.86-1.36-.13-2.83,1.31-4.12,3.98-3.42.64.17,1.17.79,1.7,1.27.28.25.44.62.94,1.37v-4.31h-10.37c-.08.46-.16.94-.26,1.56,1.38.08,1.64.76,1.52,1.97-.21,2.09-.2,4.2-.23,6.3-.01.95-.08,1.76-1.11,2.23-.92.43-.95,1.23-.49,2.27,3.79-.29,7.66.14,11.54-.45,0-1.06,0-1.87,0-2.69,0-.29-.07-.59-.13-1.06ZM230.2,267.15c1.09.06,1.83-.14,1.87-1.39.04-.97.19-1.94.3-2.91.1-.89-.36-1.2-1.21-1.19-.16.26-.34.5-.46.76-.43.88-1.21,1.21-2.05.99-.98-.25-.67-1.19-.7-1.91-.01-.3.02-.6.06-.9.22-1.82,1.51-2.63,3.3-2.2,1.28.31,1.49,1.32,1.64,2.38.84.13,1.55.24,2.41.38v-4.61c-3.93-.21-7.78-.41-11.64-.61-.26,1.11-.71,1.95.49,2.53.29.14.49.74.5,1.13.04,2.77.02,5.54.02,8.15q-2.01,1.27-1.56,3.17c1.36,0,2.78-.02,4.2,0,.94.02,1.37-.4,1.4-1.29-1.56-1.07-1.93-2.12-1.36-3.75.42-1.19,1.26-1.02,2.19-.75.21.7.39,1.33.59,2ZM213.3,269.63c.13-.19.26-.37.4-.56-2.01-1.56-1.94-3.35-.98-5.21,1.91-.53,1.89,1.18,2.47,2.15,1.26-1.55,1.43-3.92.44-5.66-.26.43-.39.9-.71,1.14-.43.32-1,.65-1.5.64-.79-.02-.77-.75-.76-1.37,0-.52,0-1.05-.02-1.57-.04-.97.04-1.79,1.32-1.9,1.81-.16,2.91.19,3.07,1.43.19,1.45.93,1.67,2.43,1.55.13-1.55.26-3.05.39-4.65-4.03-.97-7.82-.56-12.01-.62.32.8.39,1.59.71,1.7.98.35.95,1.08.93,1.81-.06,2.02-.23,4.05-.26,6.07-.02,1.67-.02,3.29-2.17,3.94.08.15.16.31.23.46,2,.22,4,.44,6.01.66ZM183.48,264.05c-1.05.11-1.77.2-2.49.25-.89.06-1.8.22-2.68.12-3.22-.34-4.99-2.99-4.19-6.13.88-3.46,4.02-5.01,7.77-3.76-.15.64-.48,1.3-.42,1.92.06.58.52,1.12.8,1.68.55-.31,1.26-.5,1.62-.96.74-.94.47-2.81-.52-3.71-1.3-1.2-2.81-1.96-4.68-1.78-2.8.27-4.94,1.63-6.54,3.9-1.86,2.64-1.54,6.82.77,9.06.57.55,1.35.98,2.11,1.2,2.63.77,5.32.74,8.1.43.1-.62.19-1.19.35-2.21ZM321.83,244.17c0,.46-.09.8.01.88,1.25,1,1.48,2.52,2.02,3.88.39.97.82,1.93,1.27,2.87.36.75.94,1.15,2.01.77.31-1.51.65-3.13.98-4.75l.5-.05c.24.82.45,1.65.74,2.46.3.85.12,2.14,1.54,2.09,1.38-.05,1.2-1.36,1.46-2.21.3-.99.41-2.05.56-3.09.16-1.17.23-2.36,1.44-3.08h-3.42c1.71,1.81.87,3.3.24,5.03-1.14-1.14-.97-2.51-1.4-3.66-.25-.68-.42-1.46-1.49-1.31-.9.13-1.01.75-1.12,1.43-.21,1.28-.44,2.57-.73,4.24-1.85-2.05-2.25-3.8-.47-6.18-1.76.28-2.97.48-4.15.67ZM275.72,245.1c1.89,2.82,1.21,5.44.01,8.03h4.58c-.8-1.1-1.91-1.85-.8-3.38.5.57.95.99,1.28,1.48.24.36.28.86.5,1.24.85,1.44,2.19,1.39,3.29-.27-1.51-.37-2.16-1.42-2.16-3.02.11-.14.29-.37.48-.6.69-.82.88-1.75.46-2.71-.45-1.02-1.36-1.3-2.41-1.27-1.27.03-2.55,0-3.81.06-.46.03-.91.27-1.41.43ZM252.72,253.04c2.52.04,4.04-1.28,4.59-3.87.4-1.88-.45-3.94-1.99-4.87-2.18-1.31-4.11-1.39-5.61,0-1.72,1.6-2.11,3.77-1.7,5.97.38,2.08,2.19,2.42,3.95,2.64.3.04.59.1.75.12ZM266.02,244.28c-.8-.12-1.24-.18-1.67-.24-2.53-.34-2.63-.23-2.05,2.16.1.42.04.89.04,1.34,0,.75-.07,1.5,0,2.25.19,2.02,1.01,3.04,2.68,3.41,1.91.43,3.69-.28,4.5-2.08.54-1.2.8-2.55.99-3.86.09-.65-.08-1.23.58-1.77.59-.48.37-1.19-.42-1.22-1.06-.04-2.22-.39-3.2.46.39.46,1.01.85,1,1.23-.03,1.63-.14,3.28-.45,4.87-.08.42-1.02.94-1.56.93-.55,0-1.42-.48-1.59-.95-.36-1.03-.42-2.18-.5-3.28-.06-.8.32-1.39,1.04-1.84.29-.18.34-.73.62-1.4ZM203.98,248.98c.11-.14.21-.29.32-.43-1.49-1.04-.91-2.57-1.21-3.89-.45-1.99,1.62-2.17,2.34-3.61-1.5-.13-2.77-.24-4.6-.4,1.34,1.4,1.16,2.58.48,4-1.04-.21-2.08-.43-2.82-.58-1.12-1.83,1.12-2.07.97-3.54-1.22.33-2.29-.92-3.8-.07,1.36,1.33.83,2.88.93,4.39.11,1.68-1.74,2.5-1.47,4.31,1.32-.17,2.53-.33,3.95-.51-.91-1.06-1.17-2-.44-2.97h2.44c1.2,1.5-.76,2.14-.61,3.5,1.21-.07,2.37-.13,3.53-.2ZM235.63,252.2c1.99-.24,3.77-.39,5.52-.69,1.26-.22,1.87-1.28,1.54-2.52-.13-.48-.44-.9-.65-1.31,1.54-1.66,1.25-3.55-.65-4.33-1.41-.58-2.91-.68-4.41-.27-.92.25-1.18.7-.76,1.64.28.63.4,1.4.35,2.08-.11,1.44.1,3-1.07,4.2-.13.13.05.56.13,1.2ZM228.44,248.19c.38-.49.45-.67.57-.71,1.25-.45,1.8-1.32,1.52-2.63-.25-1.19-1.25-2.01-2.57-2.17-1.48-.17-2.96-.3-4.8-.49,1.09,3.08.66,5.92-.79,8.9,1.45-.08,2.54-.13,3.7-.2,0-1.09-1.13-2.02.11-3.16.55.69,1.06,1.28,1.52,1.92.3.42.46.97.8,1.35.76.86,1.69.6,2.17-.4-.77-.83-1.49-1.61-2.25-2.42ZM310.6,244.27q-.22,1.17.39,1.89c1.11,1.31.94,4.44-.28,5.64-.23.23-.49.63-.44.89.05.26.48.64.74.64,2.21-.03,4.41-.14,6.69-.23-.08-1.37.46-2.49-.65-3.6-.45.9-.65,1.87-1.24,2.35-.81.66-1.81.19-2.82-.33.16-.74.3-1.42.49-2.28.82.36,1.36.6,2.13.94,0-.96.29-1.92-.06-2.46-.73-1.12-1.15.9-2.08.37-.26-.79-.58-1.87.34-2.3.65-.3,1.67.18,2.77.35.06-.42.14-1.09.25-1.87h-6.22ZM214.67,241.54c-1.86.29-1.79.34-2.48,1.41-1.24,1.92-1.66,4.34-3.55,5.88-.17.14-.02.66-.02,1.01h3.6c-.37-.83-1.6-1.32-.51-2.14.65-.49,2.72-.42,3.19.15,1.09,1.31-.98,1.14-.96,2.11,1.39.69,2.8.11,4.39.05-2.85-2.22-2.41-5.64-3.68-8.47ZM288.27,245.19c.57,1.18,1.02,2.08,1.45,3,.69,1.5,1.39,3,2.03,4.52.35.81.82,1.23,1.94.83.42-1.19.89-2.53,1.36-3.86.28-.78.47-1.6.86-2.32.39-.73.98-1.36,1.51-2.07-1.85-.82-3.29-.85-3.66,0,.43.28.91.59,1.36.87-.8,1.9-1.44,3.44-2.09,4.98-.69-1.11-1.05-2.15-1.19-3.22-.13-1.02-.03-2.07-.03-3.24-1.22.05-2.49-.43-3.55.53ZM188.56,244.39c.08-.66.12-1.07.17-1.5-5.36-1.71-10.87-1.74-16.22-2.75-.89-.17-1.4.28-1.38,1.51,5.76.91,11.54,1.81,17.42,2.74ZM356.81,245.47c-4.54.4-8.93.79-13.32,1.18-.82.07-1.65.14-2.46.3-.76.15-.9.64-.54,1.38.65-.04,1.24-.07,1.83-.1,3.51-.23,7.03-.46,10.54-.68.82-.05,1.65-.08,2.48-.07,1.15.02,1.67-.49,1.47-2.01ZM305.49,245.11c-1.75-.77-2.21-.76-3.76-.04,1.29,1.65,1.21,5.12-.33,7.77,1.15.04,2.17.14,3.17.09.66-.04.98-.8.56-1.11-1.19-.89-.88-2.13-1.04-3.26-.29-2.1-.26-2.11,1.39-3.44Z"/>
    <path d="M358.66,231.85c.11-.93.07-1.92.35-2.8,1.66-5.12,2.28-10.39,2.61-15.74.47-7.78-.15-15.48-1.52-23.12-1.48-8.32-4.34-16.23-7.66-23.96-1.06-2.45-2.77-4.62-4.2-6.92-.32-.51-.73-.97-1-1.49-4.21-8-9.86-14.91-16.29-21.16-2.84-2.75-6.1-5.12-9.36-7.38-5.45-3.76-11.29-6.91-17.31-9.62-4.02-1.81-8.29-3.08-12.45-4.58-.71-.25-1.5-.33-2.13-.7-1.6-.92-2.95-.74-4.29.75,2.12,1.37,4.48,2.13,6.83,2.62,5.3,1.11,9.99,3.64,14.8,5.92.8.38,1.66.67,2.45,1.08,2.19,1.14,4.52,2.11,6.52,3.53,5.83,4.12,11.62,8.36,16.48,13.63,2.79,3.03,5.33,6.31,7.82,9.6,3.77,4.99,7.06,10.29,9.68,15.98,1.5,3.26,3.03,6.52,3.85,10.06.41,1.75,1.15,3.42,1.61,5.16.95,3.55,2.17,7.08,2.61,10.7.52,4.29.37,8.66.43,13,.03,2.1-.05,4.21-.2,6.31-.38,5.09-.75,10.18-1.29,15.26-.15,1.46-.82,2.87-1.32,4.27-.11.3-.48.62-.8.72-1.19.37-2.4.66-4.06,1.1.24-1.67.42-2.88.63-4.34-9.09,1.07-18.12-.31-27.24-.06.05-1.31.93-1.24,1.61-1.23,2.85.04,5.71.07,8.56.23,5.7.33,11.39.33,17.25.11.27-1.24.51-2.37.76-3.53-2.09-.58-3.98.6-6.13-.07,1.93-2.04,4.16-.7,6.17-1.45.25-1.02.52-2.16.79-3.28-2.57-.93-10.74-.95-15.53.2,3.48.38,6.95.77,10.83,1.2-.92.88-1.67.71-2.32.64-3.74-.35-7.47-.73-11.2-1.15-1.34-.15-2.67-.39-4-.65-.37-.08-.7-.4-1.15-.68.86-1.08,1.93-1.08,2.95-1.08,6.23-.01,12.46,0,18.7,0,.67,0,1.33,0,2.1,0,.18-.71.33-1.34.48-1.92-.22-.17-.32-.32-.45-.35-5.31-1.21-10.69-1.6-16.11-1.37-4.12.18-8.23.53-12.35.75-.89.05-1.79-.12-2.69-.2-8.31-.76-16.62-1.27-25.19-.95-.14.8-.28,1.57-.47,2.62,2.69-.9,5.1-.72,7.43.27,3.03,1.29,4.62,3.83,5.23,6.87.39,1.96.3,4.11-.6,5.98-.64,1.34-.59,2.58-.31,3.93.15.7.13,1.44.2,2.19-2,.24-1.72-1.59-2.57-2.29-2.08,1.44-4.17.58-6.35.24.24-1.41,1.23-1.24,1.96-1.45,3.37-1,5.37-2.92,5.37-5.85,0-1.81-.49-3.73-1.18-5.43-1.2-2.94-4.32-4.28-7.41-3.51-2.13.53-2.42.92-2.8,3.78.5,0,.99-.02,1.48,0,1.41.07,2.87-.01,4.23.29,2.99.65,4.16,3.43,2.8,6.23-.87,1.79-2.41,2.7-4.22,3.07-1.68.34-3.42.53-5.14.55-1.38.02-2.41.27-3.18,1.58-.58.99-1.32,2.04-2.76,1.89-.8-1.06.07-1.72.46-2.47,1.99-3.8,3.94-7.62,4.92-11.81.47-2.03.7-4.16.76-6.25.14-4.54-2.29-7.58-6.02-9.84-6.21-3.76-12.95-6.02-20.12-6.77-4.93-.51-9.86-.34-14.81.51-4.13.71-7.78,2.57-11.67,3.82-.5.16-.99.37-1.45.62-3.03,1.61-4.96,3.86-5.24,7.54-.43,5.65.53,11.07,2.08,16.42.65,2.22,1.46,4.39,2.19,6.58-2.4.85-3.61.37-4.41-1.64-.83-2.09-1.66-4.18-2.51-6.32-1.78.66-2.94,1.92-4.1,3.19-1.07,1.17-1.14,3.05-2.87,4.19,0-.77-.11-1.21.02-1.57.94-2.63,2.6-4.72,4.93-6.27.58-.39,1.14-.82,1.72-1.22-.08-.15-.16-.29-.23-.44-.35.09-.77.08-1.04.28-3.01,2.26-6.03,4.5-8.2,7.67-.31.45-.79.78-1.59,1.54,0-.98-.13-1.49.02-1.88.84-2.12,1.94-4.09,3.74-5.55,2.03-1.65,4.09-3.26,6.05-4.82v-8.3h-13.69c-.34,1.62-.53,3.27-1.04,4.81-1.54,4.67-3.95,8.92-6.56,13.06-.65,1.03-1.42,1.36-2.63,1.18-5.05-.77-10.1-1.53-15.16-2.15-2.98-.37-5.99-.42-8.98-.72-3.12-.31-6.24-.73-9.56-1.13-1.84-17.82-1.87-35.49,4.05-52.77-1.77-2.26-1.36-3.75.12-5.6,1.26-1.58,2.75-2.98,4.1-4.48.59-.66,1.31-1.3,1.65-2.08,2.53-5.96,6.44-11.03,10.39-16.04,2.55-3.24,5.44-6.21,8.2-9.29.4-.45.84-.88,1.34-1.2,6.58-4.35,12.99-8.92,20.06-12.51,8.23-4.19,16.84-7.1,25.93-8.65.28-.05.54-.21.82-.33-1.5-2.47-2.32-2.8-4.81-2.49-4.57.57-9.03,1.51-13.29,3.29-1.87.78-3.77,1.51-5.56,2.43-2.8,1.44-5.55,2.99-8.29,4.55-6.3,3.58-12.11,7.89-17.58,12.58-4.21,3.61-8.12,7.6-11.33,12.2-.9,1.29-1.9,2.53-3,3.66-3.25,3.34-5.3,7.48-7.48,11.48-2.74,5.02-4.64,10.4-6.58,15.78-1.71,4.73-2.35,9.62-3.07,14.52-.37,2.53-.53,5.08-.86,7.62-.76,5.71-.48,11.4.07,17.1.25,2.67.09,5.41,1.2,7.96.04.08-.12.25-.23.49-1.18-.21-1.45-1.16-1.56-2.1-.31-2.84-.53-5.68-.82-8.52-.92-8.99.41-17.84,1.6-26.71,1.1-8.15,3.98-15.7,7.49-23.03,1.81-3.79,3.95-7.42,6.02-11.08.66-1.16,1.57-2.19,2.39-3.25,1.56-2.02,3.1-4.06,4.73-6.02,1.54-1.85,3.16-3.63,4.78-5.4,3.77-4.12,7.96-7.78,12.55-10.95,4.26-2.95,8.47-6,12.95-8.6,7.96-4.62,16.28-8.42,25.64-9.2.51-.04,1.01-.23,1.5-.35.76-1.39.96-2.81.95-4.34-.01-1.49.25-2.99.44-4.48.17-1.31.81-2.09,2.12-1.76.47-1.09.9-2.08,1.45-3.35.74.66,1.21,1.07,1.64,1.46.58-.41,1.16-.82,1.69-1.19,1.35.93.55,2.07.71,3.01.63.21,1.45.24,1.81.67.36.43.27,1.24.4,2.02.76-.52,1.41-.99,2.09-1.42.1-.06.29,0,.43.02q.33,1.01-.57,4.05c2.73-.29,1.64,2.2,2.6,3.49,2.74.26,5.64.57,8.54.79.46.03.95-.41,1.44-.54,2.09-.56,4.18-1.14,6.29-1.62,1.83-.42,3.7-.62,5.51-1.1.82-.22,1.57-.82,2.28-1.34,1.34-.97,2.61-2.03,3.95-2.99.44-.32,1.02-.45,1.53-.67.88,1.21-.51,1.88-.42,2.93,2.38-1.61,4.62-3.13,6.88-4.63.04-.03.22.16.54.39-.51.68-1.02,1.36-1.73,2.3,1.1-.38,1.93-.74,2.79-.95,1.09-.26,1.7.42,1.15,1.37-.5.88-1.23,1.74-2.07,2.28-3.02,1.94-5.91,4.18-9.59,4.65-.42.84-.78,1.57-1.22,2.48.61.25,1.18.54,1.78.74,2.93.95,5.9,1.78,8.79,2.83,6.95,2.53,13.25,6.33,19.62,10.04,6.3,3.66,11.94,8.12,16.78,13.54,2.54,2.85,4.86,5.92,7.11,9.02,1.84,2.54,3.42,5.29,5.14,7.92.94,1.44,1.96,2.84,2.91,4.28,3.08,4.62,4.62,9.91,6.61,15.02,1.62,4.15,2.51,8.49,3.43,12.8,1.51,7.07,2.21,14.25,1.97,21.5-.16,4.96-.29,9.92-1.52,14.77-.53,2.11-1.07,4.22-1.64,6.32-.06.23-.33.4-.5.6-.2-.05-.4-.1-.6-.16ZM347.09,170.73c.11-.14.23-.28.34-.42-.9-1.89-1.76-3.8-2.71-5.66-1.05-2.07-2.1-4.15-3.29-6.14-3.65-6.11-8.89-10.94-13.36-16.38-.23-.29-.57-.49-.85-.74-5.24-4.67-11.05-8.52-17.05-12.14-9-5.44-18.84-8.47-29.06-10.52-3.1-.62-5.31.4-7.04,2.96-.68,1.02-1.66,1.83-2.87,3.14-.59,2.15-.03,3.41,2.59,4.16,1.93.55,3.95.81,5.94,1.18,1.6.3,3.29.08,4.77,1.09.85.58,1.14,1.23.66,2.07-.65,1.17-1.43,2.27-2.18,3.43.13.41.28.89.43,1.37-.67.41-1.22.76-1.72,1.07.2,2.52-.5,3.19-2.9,2.89-.22-.03-.44-.1-.66-.14-1.01-.21-2.02-.65-2.89.44-.15.19-.85.11-1.2-.05-.45-.21-.79-.64-1.17-.96-.43.24-.8.45-1.2.67-1.27-1.11-2.48-2.18-4.1-3.59-.06,1.3-.18,2.02-.11,2.72.37,3.78.26,7.2-3.26,9.89-1.65,1.26-3.06,2.12-4.85,2.06-1.65-1.41-.26-3.84-2.07-5.1-.56.52-.94,1.12-1.44,1.27-.98.28-1.3.88-1.43,1.77-.06.44-.23.87-.4,1.29-.6,1.46-1.42,1.83-2.84,1.08-.7-.37-1.56-.94-1.78-1.6-.77-2.42-2.13-4.97.35-7.28.2-.19.3-.52.41-.79.75-1.93,1.47-3.88,2.26-5.79.22-.53.69-1.39,1-1.37,1.86.09,2.95-1.61,4.62-1.68.3-2.72.05-5.14-1.81-7.23-.68-.76-.98-1.85-1.48-2.77-.24-.44-.55-.83-.78-1.18-2.21.18-3.6,2.15-5.78,2.13-.93-2.19.56-3.93,1.06-6.18-1.67.28-3.15.41-4.56.78-5.33,1.38-10.25,3.82-15.28,5.99-8.69,3.74-16.65,8.63-24.03,14.53-6.78,5.43-11.9,12.26-16.45,19.57-.29.47-.43,1.03-.62,1.51,1.78,1.08,3.41,1.09,5.06.19.39-.21.85-.32,1.24-.54,1.54-.9,2.96-.91,4.29.42.66.67,1.41.68,2.42.59,2.53-.22,5.19-.15,7.38,1.33,1.08.74,2.1.92,3.13.59,1.25-.39,2.49-1,3.56-1.76,2.52-1.78,5.14-3.02,8.16-1.53,1.59.78,3,.67,4.53.07,1.04-.4,2.09-.45,3,.27,1.26,1,2.57.96,4.04.57,2.02-.55,4.08-.97,6.14-1.38,1.74-.34,3.32-.19,4.85,1.04,2.32,1.87,5.1,2.77,8.1,3.02,3.07.25,5.85,1.27,8.12,3.48.47.46,1.02.84,1.41,1.16,1.75-.61,3.33-1.1,4.85-1.72.58-.24,1.21-.66,1.53-1.17,1.89-3.11,4.51-5.46,7.62-7.2,3.53-1.98,7.2-3.73,10.85-5.48,1.34-.64,2.82-.98,4.23-1.5,1.62-.6,3.13-.41,4.47.64.89.69,1.73.57,2.73.34,1.52-.35,3.08-.5,4.62-.74.95-.15,1.98-.11,2.82-.49,3.79-1.71,7.35-1.12,10.65,1.08,1.54,1.03,2.78,2.51,4.15,3.79.88.82,1.68,1.65,3.12.96.47-.23,1.33.1,1.9.38,1.54.77,3.09,1.55,4.52,2.51,3.56,2.38,7.02,4.91,10.58,7.28,1.47.98,3.13,1.68,4.7,2.51ZM219.63,177.23c-.06.2-.12.4-.18.6,1.02.97,1.94,2.06,3.07,2.87,3.17,2.27,5.53,5.27,7.94,8.25.19.23.41.47.49.75.09.33.19.85.02,1.01-.27.27-.76.42-1.16.42-.34,0-.68-.28-1.02-.44-1.73-.82-3.48-1.23-5.44-.82-.95.2-2.04-.16-3.05-.36-1.24-.25-2.45-.65-3.7-.86-.87-.15-1.62.15-1.94,1.33.56.53,1.21,1.04,1.73,1.64.93,1.07,1.82,2.18,2.65,3.33.4.55.56,1.22-.25,1.88-.48-.28-.98-.57-1.48-.84-.46-.24-.93-.46-1.4-.68,3.37,4.13,4.89,8.77,5.34,14.45-.97-.62-1.52-.94-2.03-1.3-.52-.38-1.01-.81-1.51-1.22l-.41.18c.35,1.37-.03,2.85.85,4.21h13.88c.27-.95.61-1.86.77-2.81.35-2.08,1.48-3.6,3.26-4.62,1.76-1,3.54-1.96,5.36-2.85,4.02-1.97,8.32-2.97,12.72-3.6,3.04-.43,6.07-.99,9.13-1.22,5.84-.45,11.53.69,17.1,2.29,4.81,1.38,9.17,3.74,12.89,7.15,1.76,1.61,2.94,3.59,3.56,5.9.15.56.31,1.12.47,1.67.44.03.74.08,1.04.06,7.6-.34,15.16.32,22.73.8,1.8.11,3.59.38,5.38.38,6.15.02,12.26-1.16,18.43-.79.2.01.41-.13.8-.27-.12-2.44-.27-4.9-.35-7.35-.05-1.52-.46-2.78-1.8-3.67-.31-.2-.42-.7-.47-.78,3.8-4.23,7.43-8.29,11.24-12.53-.63-1.99-1.33-4.18-2.03-6.4-.98-.08-1.8-.22-2.62-.21-4.9.09-9.72-.82-14.57-1.21-5.38-.44-10.84-.86-16.19-.42-5.53.46-10.94-.04-16.39-.48-3.89-.31-7.77-.74-11.66-1.02-7.77-.56-15.6.34-23.35-1.02-2.87-.5-5.84-.37-8.76-.57-5.84-.39-11.68-1-17.53-1.17-6.38-.19-12.78,0-19.16.04-.8,0-1.6.17-2.39.26ZM328.76,174.55c1.8-1.21,3.34-2.5,5.53-1.8.36.11.94-.08,1.27-.33,1.48-1.15,2.86-.67,4.42-.1,3.07,1.13,6.21,2.04,9.86,3.22-.48-1.02-.59-1.66-.97-1.98-.91-.76-1.87-1.55-2.95-2.01-2.8-1.19-5.22-2.93-7.71-4.62-3.54-2.4-7.14-4.71-10.73-7.02-.82-.53-1.67-.86-2.74-.33-.45.22-1.35-.04-1.83-.38-1.02-.75-1.89-1.7-2.84-2.55-1-.9-1.93-1.93-3.07-2.63-2.46-1.51-5.28-2.14-7.95-1.07-1.75.7-3.4.94-5.2,1.03-1.25.06-2.48.45-3.71.72-.95.21-1.94.68-2.79-.08-1.87-1.66-3.93-1.4-5.9-.47-4.8,2.29-9.65,4.52-14.25,7.18-2.14,1.24-3.98,3.24-5.46,5.26-1.01,1.37-2.01,2.21-3.58,2.71-1.56.5-3.03,1.27-4.52,1.98-.4.19-.7.57-1.04.87,2.06-.06,3.98-.37,5.86-.83,1.26-.31,2.29-.15,3.39.59.76.51,1.77.88,2.69.91,5.62.23,11.25.34,16.88.51,1.39.04,2.74-.12,3.85-.99,1-.79,2.05-.84,3.19-.62.88.17,1.76.38,2.63.6,4.11,1.06,8.32,1.35,12.52,1.01,2.62-.22,5.1-.1,7.49.9,2.2.92,4.19.9,6.03-.75.09-.08.28-.03.52-.04.33.31.7.66,1.14,1.08ZM327.12,174.96c-1.96,1.54-3.79,1.44-5.75.69-2.54-.98-5.15-1.62-7.92-.96-.64.15-1.35.05-2.02.05-4.14-.03-8.25-.37-12.25-1.54-1.27-.37-2.42-.4-3.62.47-1.24.91-2.78,1.02-4.32.97-5.48-.17-10.97-.26-16.44-.5-1.15-.05-2.41-.37-3.39-.95-1.07-.64-1.98-.74-3.17-.5-2.42.49-4.88.82-7.34,1.12-.61.07-1.28-.2-1.91-.37-.69-.19-1.34-.57-2.03-.64-3.73-.36-7.48-.58-11.21-.99-1.32-.15-2.4-.12-3.58.68-1.91,1.28-3.97,1.16-5.35-.39-.95-1.06-1.79-1.13-2.96-.73-.71.24-1.52.24-2.17.57-1.34.68-2.61.55-3.9-.04-1.44-.66-2.94-.69-4.4-.22-1.56.51-3.07,1.18-4.6,1.78v2.28c5.07-.06,10.03-.27,14.98-.14,7.13.18,14.26.58,21.38.94,3.9.2,7.8.46,11.7.76,3.67.28,7.32.73,10.99.94,2.17.12,4.36-.15,6.53-.13,7.97.09,15.88.99,23.8,1.83,2.97.32,6.02.32,9,.06,6.17-.54,12.31-.3,18.44.39,5.29.59,10.55,1.33,16.06,1.12-.21-.71-.5-1.32-.57-1.96-.24-2.15-1.71-2.95-3.54-3.51-3.01-.92-5.98-1.98-8.99-2.89-.57-.17-1.27-.01-1.89.12-.8.17-1.62.77-2.33.63-1.76-.34-3.11.29-4.33,1.35-1.02.89-1.93,1.14-2.9-.3ZM262.43,170.45c-2.19-2.8-5.07-4.03-8.41-4.29-2.99-.24-5.79-1.11-8.14-2.91-1.61-1.24-3.2-1.48-5.04-1.07-2.05.45-4.1.9-6.13,1.43-1.31.34-2.54.32-3.65-.51-1.01-.75-2.03-.79-3.17-.32-1.44.59-2.86.65-4.33-.12-2.38-1.26-4.65-.72-6.76.77-1.15.81-2.31,1.6-3.38,2.33.77,1.09,1.59,2.14,2.29,3.27,2.63,4.27,2.18,3.38,5.69,2.05,1.72-.65,3.58-1.48,5.23-.77,2.54,1.1,4.8.42,7.17-.17.44-.11.9-.33,1.31-.26.7.12,1.51.26,2.02.69,2.12,1.8,2.73,1.96,4.89.53.95-.63,1.85-.78,2.96-.66,4.32.46,8.65.77,12.97,1.24,1.67.18,3.05-.36,4.49-1.22ZM180.91,187.94c3.7-3.35,7.3-6.62,10.9-9.87,3.42-3.09,7.27-5.54,11.36-7.64,1.31-.67,2.61-.79,4.11-.5,2.24.43,4.56.48,6.86.69-.16-1.69-.12-1.75-1.22-2.48-1.78-1.18-3.59-2.34-5.45-3.4-.62-.35-1.44-.55-2.15-.52-4,.21-7.95.85-11.44,2.9-5.58,3.27-9.65,8-12.42,13.84-.4.85-.38,1.66.19,2.45,1.07-.74.7-2.49,2.42-2.92-.47,2.88-2.76,4.79-3.18,7.45ZM207.33,183.06c6.79.87,13.3.81,19.26,3.67-2.55-3.48-7.03-7.05-9.88-7.96-1.7-.54-3.45-.88-4.89-2.08-.52-.44-1.36-.5-2.09-.74-1.83,2.08-.88,4.79-2.41,7.1ZM198.95,163.97c-2.05-1.89-2.05-1.88-3.98-1.07-1.99.84-3.94,1.91-6.23.8-.39-.19-1.14.15-1.63.42-2.87,1.58-5.06,3.97-7.29,6.28-.55.57-.89,1.34-1.38,2.09.68.58,1.23,1.04,1.73,1.47,2.11-1.08,2.32-3.79,4.98-4.92-.68,2.73-2.99,4.33-2.66,7.17,4.54-5.45,9.01-10.63,16.45-12.24ZM182.4,190.98c1.12-1.29,2.05-2.59,3.2-3.64,3.71-3.39,7.47-6.72,11.27-10,3.36-2.89,7.18-4.86,11.65-5.38.14-.02.29.05.53.1.14.34.29.73.3.75,1.77.66,3.29,1.21,4.79,1.81.8.32,1.46.4,1.79-.73-1.4-2.1-3.64-2.33-5.9-2.48-.97-.06-2.07.2-2.88-.18-1.37-.64-2.5-.33-3.6.34-2.81,1.72-5.72,3.33-8.3,5.35-3.6,2.81-6.98,5.92-10.38,8.97-1.05.94-1.87,2.14-2.78,3.23-.56.68-.67,1.32.31,1.85ZM354.12,215.36c1-2.56.97-2.7-.74-4.24-1.4-1.26-2.79-2.52-4.21-3.75-.71-.61-1.46-1.16-2.58-2.04.17,3.35.32,6.15.47,8.95,2.55.39,4.83.74,7.07,1.08ZM182.81,193.8c-.8-1.05-1.52-1.91-2.15-2.84-.99-1.44-1.38-3.01-.59-4.68.63-1.32.39-2.54-.46-4.23-.71,5.92-1.96,11.29-2.26,16.71,1.81-1.64,3.56-3.24,5.46-4.97ZM264.96,139.86c-3.94,1.18-5.9,3.58-5.59,6.63,1.1-.42,2.19-1.13,3.31-1.17,1.14-.04,2.29.59,3.44.93.52-3.51.39-4.22-1.16-6.39ZM258.61,146.99c-.91-1.96-.18-3.52.88-4.87.76-.98,1.83-1.72,2.75-2.57.14-.13.22-.31.39-.55-.44-.25-.8-.46-1.14-.65-.56.63-1.03,1.15-1.87,2.08-.54-.76-.95-1.34-1.37-1.93-.32.66-.63,1.3-.9,1.85h-3.31c.66,2.94.95,5.75,4.55,6.65ZM206.76,184.24c.03,1.43,1.04,1.85,1.92,2.05,1.52.35,3.17.8,4.62.52,1.82-.35,3.35.02,4.96.59.42.15.86.3,1.3.35,1.38.15,2.76.27,4.49-.5-5.81-2.36-11.61-2.17-17.31-3.01ZM345.35,201.53c.97,1.14,1.49.29,1.95-.19,2.2-2.35,4.28-4.81,6.56-7.07,1-.99,1.28-1.83.52-3.19-3.05,3.54-6.02,6.97-9.03,10.45ZM294.99,225.1c.92.71,1.96,1.34,2.77,2.2.79.84,1.34,1.92,2.03,2.94.4-.23.75-.37,1.03-.6,1.62-1.38,1.69-2.42-.09-3.55-1.43-.91-3.09-1.5-4.7-2.09-.77-.29-1.01.37-1.04,1.1ZM265.16,148.46c-1.3-2.27-2.06-2.47-4.23-1.25-1.68.94-1.91,2.2-.76,4.39,2.65.42,3.19-2.32,4.99-3.14ZM292.62,230.08c1.89,1.38,3.68,1.12,5.6.43-.63-2.1-1.93-3.36-3.91-4.23-.6,1.36-1.14,2.55-1.69,3.8ZM350.92,205.89c1.5-2.64,4.91-3.76,4.62-7.2-.16-.12-.33-.25-.49-.37-1.85,2.06-3.7,4.12-5.64,6.28.57.49.89.76,1.51,1.29ZM251.11,144.9c1.6,2.08,2.53,2.58,4.58,2.53-.6-1.02-1.28-2-1.76-3.07-.48-1.09-.76-2.27-1.13-3.4-.15.01-.3.02-.45.04-.42,1.32-.83,2.63-1.23,3.91ZM347.46,203.14c.67.7,1.09.58,1.59.02,1.9-2.11,3.84-4.16,5.73-6.28.29-.32.37-.83.62-1.43-1.84.57-4.54,3.25-7.94,7.68ZM270.08,111.2c-2.04-.17-3.75-.32-5.47-.46.07,1.85,1.09,2.83,2.39,3.77,1.01-1.08,1.95-2.09,3.09-3.31ZM254.07,122.08c-.81-1.27-1.91-.91-2.98-.6-1.3.38-1.94,1.23-1.8,2.81,1.64-.76,3.16-1.46,4.78-2.21ZM253.8,148.54c-1.3-.95-2.46-1.8-3.68-2.7-.78,1.16-.64,2.1-.06,3.12,1.09,0,2.14,0,3.18-.01.11,0,.22-.15.56-.41ZM352.68,207.31c3.04-2.38,3.12-2.5,2.47-4.51-1,1.1-1.96,2.14-2.9,3.2-.57.65-.28,1.06.43,1.31ZM202,180.56c1.56-.93,1.96-1.73,1.3-2.53-.59-.71-1.3-.59-1.97-.13-.79.54-.68.97.66,2.65ZM253.31,150.44c-1.28-.46-2.25-.87-3.2.04.38,1.22,1.07,1.96,2.47,2.02.24-.67.45-1.28.73-2.06ZM355.16,209.57c.13-1.01.22-1.76.32-2.5-.13-.07-.26-.13-.39-.2-.45.47-.9.94-1.43,1.5.54.43.91.73,1.5,1.2ZM255.09,118.92c-.69-.5-1.06-.96-1.46-.99-.7-.05-1.12.5-.94,1.18.07.29.61.66.9.64.41-.04.79-.41,1.49-.83ZM302.41,225.65c-.34-1-.84-1.9-2.32-1.65.91.65,1.62,1.15,2.32,1.65ZM258.99,136.76c.35.73.53,1.11.77,1.61.7-.9.79-1.42-.77-1.61ZM256.27,138.06c.17.06.34.12.51.19.11-.43.22-.86.33-1.29-.12-.04-.24-.08-.37-.12l-.48,1.22Z"/>
    <path d="M321.26,282.14c-2.21,1.38-4.03,2.51-5.83,3.64-9.39,5.92-19.3,10.64-30.19,13.07-1.46.33-2.95.62-4.44.71-8.55.49-17.1,1.12-25.66.16-2.38-.27-4.79-.53-7.11-1.1-4.73-1.17-9.48-2.31-14.08-3.89-6.24-2.14-12.32-4.69-17.85-8.43-3.04-2.06-6.3-3.8-9.03-6.31-.32-.3-.64-.6-1.18-1.1.63-.17,1.01-.37,1.38-.35,2.63.11,4.98.55,7.26,2.34,5.8,4.56,12.25,8.12,19.15,10.8,6.19,2.4,12.55,4.06,19.2,4.46,5.24.32,10.49.53,15.73.85,4.77.29,9.43-.48,14.09-1.37,6.64-1.26,13.29-2.56,19.32-5.79,3.5-1.88,6.97-3.84,10.22-6.1,2.11-1.47,4.2-2.19,6.7-1.89.62.08,1.25.16,2.33.3Z"/>
    <path d="M263,200.93c6.89.37,12.55.75,18,2.76,2.61.96,5.25,1.81,7.58,3.35,1.88,1.24,3.8,2.52,4.45,4.87.19.67.24,1.49.04,2.15-.77,2.6-2.53,4.34-4.98,5.49-2.47,1.15-5.06,1.78-7.74,2.26-4.72.85-9.4,2.05-14.23,2.08-2.47.01-4.94-.24-7.4-.46-4.5-.4-8.89-1.31-13.2-2.67-2.74-.87-4.91-2.59-6.9-4.52-.77-.75-1.26-1.85-1.68-2.87-.74-1.79-.22-3.26,1.12-4.69,3.47-3.69,7.95-5.41,12.7-6.3,4.41-.83,8.93-1.07,12.24-1.43ZM265.34,222.69c1.79-.15,3.58-.22,5.35-.47,3.19-.46,6.38-.92,9.52-1.62,2.48-.55,4.9-1.37,7.3-2.21,1.51-.53,2.72-1.56,3.57-2.97,1.17-1.95.99-3.67-.64-5.28-2.12-2.1-4.68-3.51-7.47-4.48-4.83-1.68-9.72-2.9-14.9-3.19-5.9-.33-11.72-.03-17.46,1.17-4.28.89-8.34,2.44-11.5,5.76-1.22,1.28-1.56,2.54-.81,4.05.43.86.96,1.73,1.66,2.37,2.3,2.1,4.92,3.64,7.99,4.41,5.7,1.42,11.47,2.3,17.37,2.47Z"/>
    <path d="M326.51,282.01c-1.76,1.49-3.41,3.13-5.3,4.42-3.66,2.49-7.49,4.74-11.2,7.16-2.93,1.91-6.25,2.91-9.47,4.13-6.39,2.43-12.88,4.57-19.64,5.73-10.3,1.77-20.61,1.7-30.94.03-8.53-1.38-16.51-4.22-24.21-8.12-5.97-3.03-11.9-6.08-17.4-9.92-2.83-1.97-5.32-4.31-7.94-6.52l.34-.48c.51.33,1.06.6,1.52.99,3.83,3.28,7.84,6.32,12.18,8.89,6.93,4.1,14.13,7.64,21.57,10.7,1.38.57,2.87.9,4.33,1.2,5.93,1.23,11.73,3.24,17.84,3.43,4.57.15,9.16.09,13.73-.17,3.66-.2,7.35-.6,10.93-1.34,6.84-1.42,13.4-3.82,19.98-6.17,4.03-1.44,7.51-3.74,11.05-5.99,3.35-2.12,6.88-3.99,9.76-6.82.7-.69,1.66-1.12,2.5-1.67.12.17.24.34.36.51Z"/>
    <path class="cls-2" d="M159.73,249.3c0,2.1-1.57,3.77-3.62,3.8-2.06.04-3.95-1.62-3.98-3.48-.04-2.61,1.3-4,3.91-4.07,1.99-.05,3.67,1.66,3.68,3.74Z"/>
    <path class="cls-2" d="M369.59,254.21c.05-.11.14-.57.39-.92,1.37-1.87,4.4-1.57,5.32.52.33.75.66,1.52.9,2.31.26.86-.48,2.72-1.26,3.16-.97.56-1.83.22-2.73-.33-1.66-1.03-2.65-2.41-2.63-4.73Z"/>
    <path class="cls-2" d="M268.98,291.65c1.55-1.93,1.44-3.74.54-5.73,1.22-.31,2.08-.14,2.74,1.09.55,1.03,1.39,1.9,2.18,2.94.76-2.34.7-2.64-.7-3.87q1.04-.57,3.01-.12c-1.69,1.8-.45,4.09-1.19,6.42-1.31-1.3-2.44-2.41-3.56-3.53-.15.07-.31.15-.46.22.19.92.37,1.84.58,2.88-.98.81-1.96.24-3.15-.31Z"/>
    <path class="cls-2" d="M256.33,288.26c.13,2.29-2.06,3.21-4.24,3.29-1.78.07-2.88-1.2-2.79-3.04.1-2.2,1.44-3.53,3.55-3.51,2.12.01,3.53,1.33,3.49,3.25ZM250.74,288.41c0,1.32.53,1.95,1.6,1.92,1.24-.04,2.1-.87,2.15-2.08.05-1.16-.94-2.12-2.11-2.06-1.03.05-1.64.88-1.64,2.22Z"/>
    <path class="cls-2" d="M263.01,287.43c-2.2-1.37-2.54-1.27-2.86.86.51-.16.94-.3,1.44-.46.67.73.38,1.47.05,2.35-.51-.2-.96-.37-1.38-.53-1.03,1.1.36,1.52.58,2.24-1.63.77-1.69.76-3.14-.18,1.18-1.49,1.81-4.61-.03-6.14,1.87-.81,3.63-.77,5.64.02-.1.58-.19,1.17-.31,1.85Z"/>
    <path class="cls-2" d="M241.98,286.91c-.68-1.85-.52-2.37,1.08-2.42,1.57-.05,3.3-.67,4.8.92-.2.61-.41,1.28-.73,2.29-.5-.74-.79-1.18-1.17-1.75-1.47,1.09-.7,2.62-1.04,3.91.55.28,1.02.52,1.71.88-1.59,1.05-2.87.39-4.65.02,2.28-1.17,1.79-2.91,1.81-4.86-.76.43-1.28.73-1.8,1.02Z"/>
    <path class="cls-2" d="M281.65,292.07c-1.9.03-2.97-1.1-2.96-3.13.01-1.81,1.47-3.55,3.04-3.63,1.65-.09,3.49,1.86,3.54,3.74.04,1.43-1.83,2.99-3.62,3.03ZM279.78,288.99c.04,1.27.62,1.85,1.76,1.79,1.38-.08,2.38-1.02,2.35-2.2-.03-1.18-.87-2-1.98-1.95-1.33.06-2.18,1-2.14,2.36Z"/>
    <path class="cls-2" d="M265.07,285.32c1.02.12,2.03.23,3.26.37-1.6,1.91-1.79,4.78-.18,6.15h-3.23c1.21-2.15,1.56-4.1-.06-5.99.07-.18.14-.36.2-.54Z"/>
    <path d="M332.23,224.5c1.36-.47,6.8-.29,8.7.19-1.27.88-6.85.82-8.7-.19Z"/>
    <path class="cls-6" d="M203.9,261.37c-.47,1.56-.76,3.2-1.46,4.64-.94,1.94-2.57,3.17-4.86,2.95-1.78-.17-3.61-.32-5.28-.88-3.64-1.22-5.24-4.57-4.17-8.25.19-.64.49-1.25.69-1.9,1.22-4.06,5.16-5.73,9.39-4.07,2.91,1.14,5.59,3.39,5.7,7.51ZM200.08,260.74c.07-2.75-1.58-4.8-3.49-5.11-1.74-.29-3.81.96-4.23,2.9-.35,1.65-.37,3.39-.31,5.08.02.64.52,1.45,1.05,1.86,1.95,1.49,4.62.95,5.77-1.24.68-1.29.98-2.78,1.21-3.49Z"/>
    <path class="cls-6" d="M325.7,257.73c-.36.87-.43,1.68-.84,1.92-1.18.7-1.02,1.71-.98,2.76.08,2.09.35,4.2.18,6.28-.29,3.49-1.76,4.73-5.24,4.88-.53.02-1.05.06-1.58.04-2.78-.1-4.55-1.39-5.18-4.12-.52-2.26-.79-4.58-1.06-6.89-.12-.99-.06-1.88-1.18-2.45-.42-.21-.52-1.06-.95-2.03,2.35-.1,4.27-.24,6.19-.26,1.28-.01,1.68.75,1.34,2.03-.84.22-1.69.45-2.59.69-.32,2.75-.49,5.42.78,7.98.74,1.49,2.43,2.47,4.03,2.2,1.61-.28,2.55-1.46,2.52-3.47-.03-1.95-.18-3.9-.39-5.84-.06-.51-.46-1.22-.88-1.39-1.19-.49-.97-1.3-.83-2.31h6.64Z"/>
    <path class="cls-6" d="M285.2,270.63c.63.13,1.07.22,1.48.31.24.81-.22,1.51-1.11,1.54-1.78.06-3.57.02-5.58.02.18-.42.24-.87.49-1.09.55-.46,1.58-.69,1.74-1.22.26-.87.01-1.9-.07-2.86-.02-.28-.22-.54-.4-.96-1.85,0-3.7-.03-5.56.01-.9.02-1.31.61-1.3,1.5,0,.81,0,1.62,0,2.46.81.24,1.43.43,2.08.62.22.69.15,1.25-.66,1.32-1.7.15-3.41.21-5.05.3-.67-.96-.73-1.71.29-2.15.88-.38.93-1.07.93-1.84,0-2.62,0-5.24,0-7.85-.53-.73-2.19-.94-1.01-2.47.57-.06,1.23-.17,1.89-.19,1.34-.03,2.67,0,4.31,0-.16.83-.14,1.87-.42,1.96-1.63.54-1.21,1.87-1.34,2.99-.07.57-.01,1.16-.01,1.74,1.82,0,3.53.02,5.24-.02.33,0,.75-.21.95-.47.76-1,.06-3.78-1.12-4.18-.84-.28-.83-.68-.56-1.45h6.16q.08,1.12-1.98,1.98c.2,3.22.4,6.55.62,10.02Z"/>
    <path class="cls-6" d="M297.63,273.13c-3.45.08-6.77-2.97-7-6.57-.19-3.02.6-5.85,3.35-7.37,2.81-1.56,5.82-2.31,8.86-.05,1.15.86,2.34,1.45,2.81,2.97.59,1.91.44,3.81-.3,5.51-1.3,3-3.66,5.57-7.73,5.52ZM293.97,265.56c.45,1.24.8,2.52,1.36,3.7.86,1.82,5.03,2.45,6.1.21,1.05-2.19,1.42-4.45.66-6.75-.97-2.91-4-3.6-6.3-1.56-1.3,1.16-1.47,2.71-1.82,4.4Z"/>
    <path class="cls-6" d="M355.45,260.51c-.27-.26-.67-.46-.8-.77-.54-1.29-1.46-1.78-3.13-1.51-1.11.17-1.64.85-1.73,2.22-.02.3-.03.6-.03.9,0,.67-.1,1.46.75,1.68.8.21,1.14-.42,1.54-1.01.27-.41.82-.63,1.56-1.15.25,1.59.46,2.74.6,3.9.08.64-.11,1.17-.85,1.37-.61.16-.87-.07-1.25-.57-.71-.91-1.66-.75-1.95.3-.25.9-.25,1.87-.41,3.16,1.37,0,2.47,0,3.56,0,1,0,1.48-.6,1.67-1.5.11-.5.17-1.01.27-1.6h1.77c.19,1.65.37,3.24.58,5.11-4.25.13-8.17.25-12,.36-.63-1.11-.42-1.74.4-2.33.38-.28.84-.78.85-1.19.04-2.24-.02-4.49-.12-6.73-.04-1.02,0-2.16-1.4-2.5-.17-.04-.38-.49-.34-.71.04-.22.37-.56.57-.55,3.43.03,6.75-1.41,10.38-.87v3.78c-.17.07-.34.15-.5.22Z"/>
    <path class="cls-6" d="M336.99,259.22c-1.11,0-1.98-.19-2.72.06-.6.2-1.29.86-1.43,1.44-.09.37.68,1.02,1.16,1.45.26.23.7.24,1.05.37,1.26.47,2.52.94,3.78,1.42,1.93.73,2.46,2.31,2.41,4.16-.04,1.77-.99,2.91-2.67,3.5-2.57.9-5.13,1.13-7.67-.03-1.75-.8-2.07-3.22-.64-4.47.95-.83,2.31-.4,2.55.83.07.37,0,.76.1,1.12.1.34.26.73.51.95.82.74,3.6.2,4.36-.79.68-.89.39-2.64-.65-3.43-.47-.35-1.03-.62-1.59-.79-1.07-.34-2.16-.64-3.26-.86-1.15-.22-1.94-.77-2.18-1.96-.25-1.28.03-2.43,1.1-3.22,1.89-1.4,4.06-1.93,6.39-1.58,1.6.24,2.78,1.8,2.73,3.38-.04,1.01-.75,1.87-1.57,1.89-.85.02-1.63-.7-1.75-1.69-.06-.5-.01-1.02-.01-1.73Z"/>
    <path class="cls-6" d="M262.35,262.38c1.71,1.4,1.88,2.4,1.15,4.91-1.08-.28-2.38-1.07-3.15-.71-1.35.63-.77,2.2-.65,3.38,2.87,1.38,4.14.95,6.36-2.15,1.06,1.32-.06,2.53.1,3.98h-11.36q-.24-1.25,1.89-2.12c0-2.89-.04-5.81.02-8.73.03-1.27-1.2-1.12-2.01-1.92.46-.33.79-.77,1.16-.8,2.84-.19,5.69-.36,8.53-.4,1.81-.03,2.26.52,2.29,2.29,0,.52-.04,1.05-.1,1.57-.03.28-.14.56-.23.91-.95.03-1.73-.02-1.74-1.21,0-.8-.16-1.64-1.06-1.74-1.02-.11-2.08.02-3.1.17-.22.03-.46.58-.51.91-.15.89-.29,1.79-.24,2.68.02.42.4,1.06.74,1.16.35.1.97-.23,1.27-.57.32-.35.39-.92.65-1.62Z"/>
    <path class="cls-6" d="M250.34,267.58c.06.47.12.77.13,1.06.01.82,0,1.64,0,2.69-3.88.6-7.75.17-11.54.45-.47-1.05-.43-1.85.49-2.27,1.03-.47,1.09-1.28,1.11-2.23.03-2.1.02-4.21.23-6.3.12-1.21-.14-1.89-1.52-1.97.1-.61.18-1.1.26-1.56h10.37v4.31c-.5-.74-.66-1.12-.94-1.37-.53-.47-1.06-1.1-1.7-1.27-2.66-.71-4.1.59-3.98,3.42.03.64.1,1.25.86,1.36.68.1,1.38.09,1.69-.73.11-.28.12-.61.29-.83.39-.49,1.37-.31,1.42.3.11,1.27.14,2.55.03,3.82-.07.84-.98,1.04-1.72.47-.54-.42-1.07-.86-1.91-1.54-.3,1.03-.55,1.64-.63,2.26-.22,1.64.24,2.41,1.55,2.81,1.33.4,2.82-.1,3.51-1.2q.84-1.31,1.98-1.71Z"/>
    <path class="cls-6" d="M230.2,267.15c-.2-.67-.38-1.3-.59-2-.93-.28-1.78-.45-2.19.75-.57,1.63-.19,2.68,1.36,3.75-.03.89-.46,1.31-1.4,1.29-1.42-.03-2.84,0-4.2,0q-.45-1.9,1.56-3.17c0-2.61.02-5.38-.02-8.15,0-.39-.21-1-.5-1.13-1.2-.58-.76-1.42-.49-2.53,3.86.2,7.71.4,11.64.61v4.61c-.87-.14-1.58-.25-2.41-.38-.15-1.06-.36-2.07-1.64-2.38-1.79-.43-3.08.37-3.3,2.2-.04.3-.07.6-.06.9.03.72-.28,1.66.7,1.91.85.22,1.62-.11,2.05-.99.13-.26.3-.5.46-.76.85,0,1.31.3,1.21,1.19-.11.97-.26,1.94-.3,2.91-.05,1.25-.78,1.45-1.87,1.39Z"/>
    <path class="cls-6" d="M213.3,269.63c-2-.22-4-.44-6.01-.66-.08-.15-.16-.31-.23-.46,2.15-.65,2.15-2.27,2.17-3.94.03-2.02.19-4.05.26-6.07.02-.73.06-1.46-.93-1.81-.32-.11-.4-.9-.71-1.7,4.19.07,7.97-.35,12.01.62-.13,1.6-.26,3.11-.39,4.65-1.5.12-2.24-.1-2.43-1.55-.16-1.24-1.26-1.58-3.07-1.43-1.28.11-1.36.93-1.32,1.9.02.52.02,1.05.02,1.57,0,.62-.03,1.35.76,1.37.5.01,1.07-.32,1.5-.64.31-.23.45-.71.71-1.14.99,1.74.81,4.1-.44,5.66-.58-.97-.56-2.67-2.47-2.15-.96,1.86-1.03,3.65.98,5.21-.13.19-.26.37-.4.56Z"/>
    <path class="cls-6" d="M183.48,264.05c-.16,1.03-.25,1.6-.35,2.21-2.79.31-5.48.34-8.1-.43-.76-.22-1.54-.65-2.11-1.2-2.31-2.23-2.62-6.42-.77-9.06,1.6-2.27,3.74-3.63,6.54-3.9,1.87-.18,3.38.58,4.68,1.78.99.91,1.26,2.77.52,3.71-.36.46-1.07.65-1.62.96-.28-.56-.75-1.1-.8-1.68-.06-.62.26-1.28.42-1.92-3.75-1.25-6.89.3-7.77,3.76-.8,3.14.97,5.78,4.19,6.13.88.09,1.79-.06,2.68-.12.72-.05,1.43-.14,2.49-.25Z"/>
    <path class="cls-6" d="M321.83,244.17c1.18-.19,2.39-.38,4.15-.67-1.78,2.38-1.39,4.13.47,6.18.29-1.68.51-2.96.73-4.24.11-.69.22-1.31,1.12-1.43,1.07-.15,1.24.63,1.49,1.31.42,1.15.26,2.52,1.4,3.66.64-1.73,1.47-3.22-.24-5.03h3.42c-1.22.71-1.28,1.91-1.44,3.08-.15,1.04-.26,2.09-.56,3.09-.26.85-.08,2.15-1.46,2.21-1.41.05-1.24-1.24-1.54-2.09-.28-.81-.49-1.64-.74-2.46l-.5.05c-.33,1.62-.67,3.23-.98,4.75-1.07.37-1.65-.02-2.01-.77-.45-.94-.88-1.9-1.27-2.87-.55-1.36-.77-2.88-2.02-3.88-.11-.09-.01-.43-.01-.88Z"/>
    <path class="cls-6" d="M275.72,245.1c.51-.16.95-.41,1.41-.43,1.27-.07,2.54-.03,3.81-.06,1.06-.03,1.97.26,2.41,1.27.42.96.23,1.9-.46,2.71-.19.22-.37.46-.48.6,0,1.6.65,2.65,2.16,3.02-1.09,1.65-2.43,1.71-3.29.27-.22-.38-.26-.88-.5-1.24-.33-.5-.78-.91-1.28-1.48-1.12,1.53,0,2.28.8,3.38h-4.58c1.19-2.59,1.88-5.21-.01-8.03ZM278.88,249.31c1.06-.64,1.78-.9,2.22-1.41.3-.34.41-1.18.19-1.54-.25-.4-.97-.69-1.48-.67-.32.01-.8.62-.9,1.04-.15.67-.04,1.39-.04,2.59Z"/>
    <path class="cls-6" d="M252.72,253.04c-.16-.03-.46-.09-.75-.12-1.77-.22-3.57-.56-3.95-2.64-.41-2.2-.02-4.37,1.7-5.97,1.49-1.39,3.42-1.3,5.61,0,1.54.92,2.39,2.99,1.99,4.87-.55,2.58-2.07,3.9-4.59,3.87ZM255.34,248.29c-.02-1.61-1.15-3.22-2.29-3.42-1.21-.21-2.56.88-3.03,2.44-.02.07-.03.15-.05.22-.44,1.27-.14,2.35.85,3.23.77.68,1.7,1.06,2.66.5,1.16-.68,1.74-1.79,1.86-2.96Z"/>
    <path class="cls-6" d="M266.02,244.28c-.28.67-.33,1.22-.62,1.4-.72.45-1.1,1.04-1.04,1.84.09,1.11.14,2.26.5,3.28.17.47,1.03.95,1.59.95.54,0,1.48-.51,1.56-.93.32-1.59.43-3.24.45-4.87,0-.38-.61-.77-1-1.23.98-.84,2.15-.5,3.2-.46.79.03,1.01.74.42,1.22-.66.53-.49,1.11-.58,1.77-.19,1.31-.46,2.66-.99,3.86-.8,1.8-2.58,2.51-4.5,2.08-1.66-.37-2.49-1.39-2.68-3.41-.07-.74,0-1.5,0-2.25,0-.45.07-.91-.04-1.34-.57-2.38-.47-2.5,2.05-2.16.43.06.87.12,1.67.24Z"/>
    <path class="cls-6" d="M203.98,248.98c-1.16.07-2.31.13-3.53.2-.16-1.36,1.81-2,.61-3.5h-2.44c-.73.97-.47,1.91.44,2.97-1.42.18-2.63.34-3.95.51-.27-1.82,1.58-2.64,1.47-4.31-.1-1.52.43-3.07-.93-4.39,1.51-.85,2.59.4,3.8.07.15,1.48-2.09,1.72-.97,3.54.74.15,1.78.37,2.82.58.68-1.42.86-2.6-.48-4,1.83.16,3.1.27,4.6.4-.72,1.44-2.79,1.61-2.34,3.61.3,1.32-.28,2.85,1.21,3.89-.11.14-.21.29-.32.43Z"/>
    <path class="cls-6" d="M235.63,252.2c-.08-.64-.26-1.07-.13-1.2,1.17-1.2.96-2.76,1.07-4.2.05-.69-.07-1.45-.35-2.08-.42-.94-.16-1.39.76-1.64,1.5-.41,3-.31,4.41.27,1.9.78,2.19,2.67.65,4.33.21.41.52.84.65,1.31.33,1.24-.27,2.31-1.54,2.52-1.75.3-3.53.45-5.52.69ZM238.51,246.53c1.74.3,2.59.06,2.77-.71.16-.68-.65-1.62-1.43-1.65-.96-.03-1.32.57-1.34,2.36ZM238.38,250.55c1.21.09,2.22.28,2.49-1.04.14-.71-.57-1.39-1.41-1.33-1.55.12-1.01,1.26-1.08,2.36Z"/>
    <path class="cls-6" d="M228.44,248.19c.76.81,1.48,1.59,2.25,2.42-.48,1-1.42,1.26-2.17.4-.34-.38-.5-.93-.8-1.35-.46-.64-.97-1.24-1.52-1.92-1.24,1.14-.1,2.08-.11,3.16-1.16.06-2.25.12-3.7.2,1.45-2.98,1.88-5.82.79-8.9,1.84.19,3.32.32,4.8.49,1.32.15,2.31.98,2.57,2.17.28,1.31-.27,2.18-1.52,2.63-.12.04-.19.22-.57.71ZM225.49,246.74c1.16.14,2.21.55,2.72-.62.23-.52.19-1.41-.12-1.86-.59-.84-1.51-.7-2.45-.21-.05.87-.1,1.73-.15,2.68Z"/>
    <path class="cls-6" d="M310.6,244.27h6.22c-.1.78-.19,1.45-.25,1.87-1.1-.17-2.12-.66-2.77-.35-.91.42-.6,1.5-.34,2.3.93.53,1.35-1.49,2.08-.37.35.54.06,1.5.06,2.46-.77-.34-1.32-.58-2.13-.94-.18.86-.33,1.54-.49,2.28,1.01.52,2.01.99,2.82.33.59-.48.79-1.45,1.24-2.35,1.11,1.11.58,2.23.65,3.6-2.28.09-4.49.2-6.69.23-.26,0-.69-.38-.74-.64-.05-.26.21-.66.44-.89,1.22-1.2,1.39-4.33.28-5.64q-.61-.72-.39-1.89Z"/>
    <path class="cls-6" d="M214.67,241.54c1.27,2.83.83,6.25,3.68,8.47-1.59.07-3,.64-4.39-.05-.02-.97,2.04-.81.96-2.11-.47-.56-2.54-.63-3.19-.15-1.09.82.14,1.32.51,2.14h-3.6c0-.34-.15-.87.02-1.01,1.88-1.55,2.31-3.96,3.55-5.88.69-1.07.62-1.12,2.48-1.41ZM213.82,243.79q-.95.91-1.38,2.56c.63-.14,1.51-.19,1.54-.38.11-.65-.07-1.34-.16-2.19Z"/>
    <path class="cls-6" d="M288.27,245.19c1.06-.96,2.33-.48,3.55-.53,0,1.16-.1,2.22.03,3.24.14,1.07.5,2.11,1.19,3.22.65-1.54,1.29-3.08,2.09-4.98-.44-.28-.92-.59-1.36-.87.37-.84,1.8-.82,3.66,0-.53.71-1.12,1.34-1.51,2.07-.39.72-.58,1.54-.86,2.32-.47,1.33-.94,2.67-1.36,3.86-1.12.41-1.6-.01-1.94-.83-.64-1.52-1.34-3.02-2.03-4.52-.42-.92-.88-1.82-1.45-3Z"/>
    <path class="cls-6" d="M188.56,244.39c-5.89-.93-11.66-1.83-17.42-2.74-.03-1.23.49-1.67,1.38-1.51,5.35,1.01,10.86,1.04,16.22,2.75-.05.42-.1.84-.17,1.5Z"/>
    <path class="cls-6" d="M356.81,245.47c.2,1.52-.32,2.03-1.47,2.01-.82-.02-1.65.02-2.48.07-3.51.22-7.03.45-10.54.68-.59.04-1.18.07-1.83.1-.35-.74-.22-1.23.54-1.38.81-.16,1.64-.22,2.46-.3,4.39-.39,8.78-.78,13.32-1.18Z"/>
    <path class="cls-6" d="M305.49,245.11c-1.65,1.34-1.69,1.34-1.39,3.44.16,1.12-.15,2.37,1.04,3.26.42.31.1,1.08-.56,1.11-1.01.06-2.03-.05-3.17-.09,1.53-2.65,1.62-6.12.33-7.77,1.55-.72,2.01-.72,3.76.04Z"/>
    <path class="cls-9" d="M347.09,170.73c-1.57-.83-3.22-1.53-4.7-2.51-3.57-2.37-7.03-4.9-10.58-7.28-1.43-.96-2.98-1.74-4.52-2.51-.58-.29-1.43-.61-1.9-.38-1.44.69-2.24-.13-3.12-.96-1.37-1.28-2.61-2.76-4.15-3.79-3.3-2.2-6.86-2.79-10.65-1.08-.84.38-1.88.35-2.82.49-1.54.24-3.1.39-4.62.74-1,.23-1.85.36-2.73-.34-1.34-1.05-2.85-1.24-4.47-.64-1.4.52-2.89.86-4.23,1.5-3.65,1.75-7.32,3.5-10.85,5.48-3.1,1.74-5.73,4.09-7.62,7.2-.31.52-.95.94-1.53,1.17-1.52.62-3.1,1.11-4.85,1.72-.39-.32-.94-.7-1.41-1.16-2.26-2.21-5.05-3.23-8.12-3.48-3.01-.25-5.78-1.15-8.1-3.02-1.53-1.23-3.11-1.38-4.85-1.04-2.06.4-4.12.83-6.14,1.38-1.47.4-2.78.43-4.04-.57-.91-.72-1.96-.68-3-.27-1.52.59-2.94.7-4.53-.07-3.02-1.48-5.64-.25-8.16,1.53-1.07.76-2.31,1.37-3.56,1.76-1.04.33-2.05.15-3.13-.59-2.18-1.49-4.85-1.56-7.38-1.33-1.01.09-1.75.07-2.42-.59-1.33-1.33-2.75-1.33-4.29-.42-.39.23-.84.33-1.24.54-1.65.9-3.28.9-5.06-.19.19-.47.33-1.04.62-1.51,4.54-7.31,9.66-14.14,16.45-19.57,7.37-5.9,15.34-10.79,24.03-14.53,5.03-2.16,9.95-4.61,15.28-5.99,1.41-.37,2.88-.5,4.56-.78-.5,2.25-1.99,3.99-1.06,6.18,2.18.02,3.56-1.96,5.78-2.13.23.34.54.74.78,1.18.5.92.81,2.01,1.48,2.77,1.86,2.09,2.1,4.51,1.81,7.23-1.67.08-2.76,1.78-4.62,1.68-.32-.02-.78.84-1,1.37-.79,1.91-1.51,3.86-2.26,5.79-.11.28-.2.6-.41.79-2.48,2.31-1.12,4.86-.35,7.28.21.66,1.08,1.24,1.78,1.6,1.42.75,2.24.38,2.84-1.08.17-.42.34-.85.4-1.29.13-.89.46-1.49,1.43-1.77.51-.14.88-.75,1.44-1.27,1.81,1.26.42,3.69,2.07,5.1,1.79.07,3.2-.8,4.85-2.06,3.52-2.69,3.64-6.11,3.26-9.89-.07-.7.05-1.42.11-2.72,1.62,1.42,2.83,2.48,4.1,3.59.4-.22.77-.43,1.2-.67.37.32.72.75,1.17.96.35.17,1.05.24,1.2.05.86-1.08,1.88-.65,2.89-.44.22.05.44.11.66.14,2.4.3,3.1-.37,2.9-2.89.5-.31,1.06-.66,1.72-1.07-.15-.49-.3-.97-.43-1.37.75-1.17,1.53-2.27,2.18-3.43.47-.84.19-1.49-.66-2.07-1.47-1.01-3.17-.79-4.77-1.09-1.99-.37-4-.62-5.94-1.18-2.62-.75-3.18-2.01-2.59-4.16,1.21-1.3,2.18-2.12,2.87-3.14,1.73-2.57,3.94-3.58,7.04-2.96,10.22,2.05,20.05,5.08,29.06,10.52,5.99,3.62,11.8,7.47,17.05,12.14.28.25.61.45.85.74,4.48,5.44,9.72,10.27,13.36,16.38,1.19,1.99,2.24,4.07,3.29,6.14.95,1.87,1.81,3.77,2.71,5.66-.11.14-.23.28-.34.42Z"/>
    <path class="cls-8" d="M219.63,177.23c.8-.09,1.6-.25,2.39-.26,6.39-.05,12.78-.24,19.16-.04,5.85.18,11.68.78,17.53,1.17,2.92.2,5.9.07,8.76.57,7.76,1.36,15.58.45,23.35,1.02,3.89.28,7.77.71,11.66,1.02,5.45.44,10.86.93,16.39.48,5.35-.44,10.81-.02,16.19.42,4.86.4,9.67,1.31,14.57,1.21.82-.02,1.64.13,2.62.21.7,2.22,1.4,4.41,2.03,6.4-3.8,4.24-7.44,8.29-11.24,12.53.04.08.16.57.47.78,1.34.89,1.75,2.15,1.8,3.67.07,2.46.23,4.91.35,7.35-.39.14-.6.28-.8.27-6.17-.38-12.28.81-18.43.79-1.79,0-3.59-.27-5.38-.38-7.57-.48-15.13-1.14-22.73-.8-.3.01-.59-.03-1.04-.06-.15-.55-.31-1.11-.47-1.67-.62-2.31-1.81-4.29-3.56-5.9-3.72-3.41-8.09-5.77-12.89-7.15-5.56-1.6-11.25-2.75-17.1-2.29-3.06.24-6.09.79-9.13,1.22-4.4.63-8.7,1.63-12.72,3.6-1.82.89-3.6,1.85-5.36,2.85-1.78,1.02-2.91,2.53-3.26,4.62-.16.95-.51,1.86-.77,2.81h-13.88c-.88-1.36-.51-2.84-.85-4.21l.41-.18c.5.41.99.84,1.51,1.22.51.37,1.05.68,2.03,1.3-.45-5.68-1.97-10.32-5.34-14.45.47.23.94.44,1.4.68.51.27,1,.57,1.48.84.81-.66.65-1.33.25-1.88-.83-1.15-1.73-2.25-2.65-3.33-.53-.61-1.17-1.12-1.73-1.64.32-1.18,1.06-1.48,1.94-1.33,1.25.22,2.46.62,3.7.86,1.01.2,2.09.56,3.05.36,1.97-.41,3.71,0,5.44.82.34.16.68.44,1.02.44.4,0,.89-.15,1.16-.42.17-.17.07-.69-.02-1.01-.08-.27-.3-.51-.49-.75-2.4-2.98-4.77-5.98-7.94-8.25-1.13-.81-2.05-1.91-3.07-2.87.06-.2.12-.4.18-.6ZM226.76,180.02c-.01.16-.03.31-.04.47,2,.46,3.98.95,6.08.94,4.28-.01,8.56.05,12.84.09.6,0,1.2.08,1.8.13,2.4.18,4.79.46,7.19.53,9.69.25,19.38.4,29.07.67,3.97.11,7.94.45,11.91.68,5.32.31,10.65.63,15.97.9,4.94.25,9.89.43,14.83.68,6.07.31,12.14.67,18.21.98.32.02.65-.3.98-.46-.02-.16-.03-.32-.05-.48-1.3-.15-2.6-.36-3.91-.44-4.2-.24-8.4-.36-12.6-.66-4.94-.35-9.86-.95-14.8-1.25-4.12-.25-8.25-.13-12.37-.35-3.29-.18-6.57-.76-9.86-.9-5.93-.25-11.86-.3-17.8-.44-8.11-.19-16.21-.39-24.32-.58-.15,0-.3-.02-.45-.02-7.56-.16-15.11-.33-22.67-.49ZM305.69,197.44c2.9-1.89,5.83-1.67,8.77-1.54,1.28.06,2.57.16,3.83.04,2.68-.25,5.35-.62,8.02-.96.88-.11,1.57-.49,1.71-1.49-.55-.84-1.28-.47-2.02-.41-3.06.25-6.12.44-9.19.62-.3.02-.62-.2-1.16-.4.52-.46.79-.86,1.16-1,1.33-.5,2.71-.86,4.02-1.38.87-.35,1.71-.84,2.46-1.4.21-.16.17-.87,0-1.22-.1-.22-.72-.41-.98-.3-1.02.43-2.06.89-2.97,1.52-1.71,1.19-3.52,1.86-5.64,1.79.43-2.15.32-2.74-.51-2.98-1-.3-1.67.45-2.06,1.89-1.25,1.16-2.13,1.97-3.13,2.9-1.27,0-2.77.02-4.27,0-1.52-.03-3.04-.64-4.63-.14q.68,1.33,6.29,2.7c.07.42.15.85.3,1.77ZM237.3,184.2c.57,1.15,1.48,1.06,2.24,1.14,1.72.16,3.46.09,5.17.34,5.45.79,10.94.8,16.41.74,9.47-.1,18.93-.02,28.37.79.83.07,1.68-.02,2.64-.03-.27-1.24-.99-1.18-1.64-1.23-4.03-.31-8.06-.72-12.1-.9-7.42-.34-14.85-.57-22.28-.82-4.35-.14-8.71-.23-13.06-.34-1.43-.04-2.86-.08-4.28-.06-.45,0-.89.22-1.46.38ZM276.36,189.8c0-.27.02-.54.02-.81-.84-.1-1.67-.23-2.51-.29-7.12-.45-14.23-.88-21.35-1.31-.83-.05-1.64.03-2.08,1.31.97.16,1.81.39,2.66.43,2.03.08,4.06.02,6.09.12,5.1.23,10.21.52,15.31.76.62.03,1.24-.14,1.86-.21ZM266.06,192.7c-1.14-1.55-2-1.75-6.19-1.67-.78.02-1.83-.38-2.2,1.06,2.69.91,5.35.54,8.39.61Z"/>
    <path class="cls-11" d="M328.76,174.55c-.44-.42-.81-.77-1.14-1.08-.23.01-.43-.03-.52.04-1.84,1.66-3.83,1.67-6.03.75-2.39-1-4.87-1.11-7.49-.9-4.19.34-8.4.05-12.52-1.01-.87-.22-1.75-.43-2.63-.6-1.14-.22-2.19-.17-3.19.62-1.1.87-2.45,1.03-3.85.99-5.63-.17-11.26-.28-16.88-.51-.92-.04-1.92-.4-2.69-.91-1.1-.74-2.12-.9-3.39-.59-1.88.46-3.79.77-5.86.83.35-.29.65-.68,1.04-.87,1.49-.71,2.96-1.49,4.52-1.98,1.57-.5,2.57-1.33,3.58-2.71,1.48-2.02,3.32-4.02,5.46-5.26,4.59-2.67,9.44-4.9,14.25-7.18,1.96-.94,4.03-1.2,5.9.47.85.76,1.85.29,2.79.08,1.23-.27,2.47-.66,3.71-.72,1.8-.09,3.45-.33,5.2-1.03,2.68-1.07,5.49-.44,7.95,1.07,1.13.69,2.06,1.73,3.07,2.63.95.85,1.82,1.8,2.84,2.55.47.35,1.38.61,1.83.38,1.07-.53,1.92-.2,2.74.33,3.6,2.31,7.2,4.62,10.73,7.02,2.49,1.69,4.91,3.43,7.71,4.62,1.08.46,2.04,1.25,2.95,2.01.38.32.49.96.97,1.98-3.64-1.17-6.79-2.09-9.86-3.22-1.56-.57-2.94-1.05-4.42.1-.32.25-.91.44-1.27.33-2.2-.7-3.74.59-5.53,1.8Z"/>
    <path class="cls-11" d="M327.12,174.96c.97,1.44,1.88,1.19,2.9.3,1.22-1.07,2.57-1.69,4.33-1.35.71.14,1.54-.47,2.33-.63.62-.13,1.32-.29,1.89-.12,3.01.91,5.98,1.97,8.99,2.89,1.83.56,3.3,1.36,3.54,3.51.07.64.36,1.25.57,1.96-5.51.21-10.78-.53-16.06-1.12-6.12-.69-12.26-.92-18.44-.39-2.98.26-6.03.26-9-.06-7.92-.84-15.83-1.74-23.8-1.83-2.18-.02-4.37.25-6.53.13-3.67-.21-7.32-.66-10.99-.94-3.9-.3-7.79-.56-11.7-.76-7.13-.36-14.25-.75-21.38-.94-4.95-.13-9.9.08-14.98.14v-2.28c1.53-.6,3.04-1.27,4.6-1.78,1.46-.48,2.96-.45,4.4.22,1.29.59,2.55.72,3.9.04.65-.33,1.46-.33,2.17-.57,1.17-.4,2.01-.32,2.96.73,1.38,1.55,3.44,1.67,5.35.39,1.18-.79,2.26-.82,3.58-.68,3.73.41,7.47.63,11.21.99.69.07,1.34.45,2.03.64.63.17,1.29.44,1.91.37,2.46-.3,4.91-.63,7.34-1.12,1.19-.24,2.1-.14,3.17.5.98.58,2.23.9,3.39.95,5.48.24,10.96.33,16.44.5,1.54.05,3.08-.06,4.32-.97,1.19-.87,2.34-.84,3.62-.47,4,1.17,8.11,1.51,12.25,1.54.68,0,1.38.1,2.02-.05,2.77-.66,5.38-.02,7.92.96,1.96.75,3.79.85,5.75-.69Z"/>
    <path class="cls-11" d="M262.43,170.45c-1.44.86-2.82,1.4-4.49,1.22-4.32-.47-8.65-.78-12.97-1.24-1.11-.12-2.02.03-2.96.66-2.16,1.43-2.77,1.27-4.89-.53-.51-.43-1.32-.57-2.02-.69-.41-.07-.87.16-1.31.26-2.37.59-4.63,1.27-7.17.17-1.64-.71-3.51.11-5.23.77-3.51,1.33-3.06,2.22-5.69-2.05-.7-1.13-1.52-2.18-2.29-3.27,1.06-.73,2.23-1.53,3.38-2.33,2.12-1.49,4.38-2.02,6.76-.77,1.47.77,2.89.72,4.33.12,1.14-.47,2.16-.44,3.17.32,1.11.83,2.34.84,3.65.51,2.03-.52,4.08-.98,6.13-1.43,1.83-.4,3.43-.16,5.04,1.07,2.35,1.81,5.15,2.68,8.14,2.91,3.34.26,6.23,1.49,8.41,4.29Z"/>
    <path class="cls-6" d="M180.91,187.94c.42-2.67,2.71-4.58,3.18-7.45-1.73.43-1.35,2.18-2.42,2.92-.57-.79-.59-1.6-.19-2.45,2.77-5.84,6.84-10.56,12.42-13.84,3.49-2.05,7.44-2.69,11.44-2.9.71-.04,1.53.16,2.15.52,1.86,1.06,3.66,2.21,5.45,3.4,1.1.73,1.06.78,1.22,2.48-2.3-.21-4.62-.26-6.86-.69-1.51-.29-2.81-.17-4.11.5-4.09,2.1-7.94,4.55-11.36,7.64-3.6,3.25-7.2,6.52-10.9,9.87Z"/>
    <path class="cls-6" d="M207.33,183.06c1.52-2.31.58-5.02,2.41-7.1.73.24,1.56.31,2.09.74,1.44,1.2,3.19,1.54,4.89,2.08,2.85.9,7.33,4.47,9.88,7.96-5.96-2.86-12.48-2.81-19.26-3.67Z"/>
    <path class="cls-6" d="M198.95,163.97c-7.44,1.61-11.91,6.79-16.45,12.24-.34-2.84,1.97-4.44,2.66-7.17-2.65,1.13-2.87,3.84-4.98,4.92-.51-.43-1.05-.89-1.73-1.47.48-.75.83-1.52,1.38-2.09,2.24-2.32,4.42-4.7,7.29-6.28.49-.27,1.24-.61,1.63-.42,2.29,1.11,4.23.04,6.23-.8,1.94-.81,1.93-.83,3.98,1.07Z"/>
    <path class="cls-6" d="M182.4,190.98c-.98-.53-.87-1.17-.31-1.85.91-1.1,1.73-2.29,2.78-3.23,3.4-3.06,6.78-6.16,10.38-8.97,2.58-2.02,5.49-3.62,8.3-5.35,1.1-.67,2.23-.98,3.6-.34.81.38,1.91.11,2.88.18,2.26.15,4.49.38,5.9,2.48-.33,1.13-.99,1.04-1.79.73-1.5-.59-3.02-1.14-4.79-1.81-.01-.03-.17-.42-.3-.75-.24-.05-.39-.12-.53-.1-4.47.52-8.29,2.49-11.65,5.38-3.81,3.28-7.56,6.62-11.27,10-1.15,1.05-2.08,2.35-3.2,3.64Z"/>
    <path class="cls-6" d="M354.12,215.36c-2.23-.34-4.51-.69-7.07-1.08-.15-2.8-.29-5.6-.47-8.95,1.11.88,1.87,1.43,2.58,2.04,1.42,1.23,2.82,2.49,4.21,3.75,1.71,1.54,1.74,1.68.74,4.24Z"/>
    <path class="cls-6" d="M182.81,193.8c-1.9,1.73-3.65,3.32-5.46,4.97.31-5.42,1.55-10.79,2.26-16.71.85,1.7,1.09,2.92.46,4.23-.79,1.67-.4,3.23.59,4.68.63.92,1.35,1.78,2.15,2.84Z"/>
    <path class="cls-6" d="M264.96,139.86c1.55,2.17,1.67,2.88,1.16,6.39-1.15-.34-2.31-.97-3.44-.93-1.12.04-2.21.75-3.31,1.17-.31-3.05,1.66-5.44,5.59-6.63Z"/>
    <path class="cls-6" d="M258.61,146.99c-3.61-.9-3.89-3.71-4.55-6.65h3.31c.26-.54.58-1.19.9-1.85.42.59.83,1.17,1.37,1.93.83-.93,1.3-1.46,1.87-2.08.34.19.69.4,1.14.65-.17.24-.26.42-.39.55-.92.86-1.98,1.6-2.75,2.57-1.06,1.36-1.79,2.91-.88,4.87Z"/>
    <path class="cls-6" d="M206.76,184.24c5.69.85,11.49.65,17.31,3.01-1.73.77-3.12.64-4.49.5-.44-.05-.88-.2-1.3-.35-1.61-.57-3.14-.95-4.96-.59-1.46.28-3.11-.17-4.62-.52-.89-.2-1.89-.63-1.92-2.05Z"/>
    <path class="cls-6" d="M345.35,201.53c3.01-3.48,5.97-6.92,9.03-10.45.76,1.36.48,2.2-.52,3.19-2.28,2.26-4.36,4.73-6.56,7.07-.45.48-.97,1.33-1.95.19Z"/>
    <path class="cls-6" d="M294.99,225.1c.03-.74.26-1.39,1.04-1.1,1.61.6,3.26,1.18,4.7,2.09,1.78,1.13,1.71,2.17.09,3.55-.28.23-.63.37-1.03.6-.69-1.02-1.24-2.1-2.03-2.94-.8-.86-1.85-1.49-2.77-2.2Z"/>
    <path class="cls-6" d="M265.16,148.46c-1.8.82-2.35,3.56-4.99,3.14-1.15-2.19-.92-3.45.76-4.39,2.17-1.21,2.93-1.02,4.23,1.25Z"/>
    <path class="cls-6" d="M292.62,230.08c.55-1.24,1.09-2.44,1.69-3.8,1.97.87,3.28,2.13,3.91,4.23-1.92.69-3.71.95-5.6-.43Z"/>
    <path class="cls-6" d="M350.92,205.89c-.62-.53-.94-.81-1.51-1.29,1.94-2.16,3.79-4.22,5.64-6.28.16.12.33.25.49.37.29,3.44-3.11,4.56-4.62,7.2Z"/>
    <path class="cls-6" d="M251.11,144.9c.4-1.28.82-2.59,1.23-3.91.15-.01.3-.02.45-.04.37,1.14.65,2.32,1.13,3.4.48,1.07,1.16,2.05,1.76,3.07-2.05.05-2.98-.45-4.58-2.53Z"/>
    <path class="cls-6" d="M347.46,203.14c3.4-4.44,6.1-7.11,7.94-7.68-.25.6-.33,1.11-.62,1.43-1.89,2.11-3.83,4.17-5.73,6.28-.5.56-.93.67-1.59-.02Z"/>
    <path class="cls-6" d="M270.08,111.2c-1.14,1.22-2.08,2.23-3.09,3.31-1.3-.94-2.32-1.92-2.39-3.77,1.73.15,3.43.29,5.47.46Z"/>
    <path class="cls-6" d="M254.07,122.08c-1.62.75-3.14,1.45-4.78,2.21-.15-1.58.49-2.43,1.8-2.81,1.07-.32,2.17-.67,2.98.6Z"/>
    <path class="cls-6" d="M253.8,148.54c-.34.26-.45.41-.56.41-1.05.02-2.09.01-3.18.01-.59-1.02-.72-1.96.06-3.12,1.22.9,2.39,1.75,3.68,2.7Z"/>
    <path class="cls-6" d="M352.68,207.31c-.71-.25-1-.66-.43-1.31.93-1.06,1.89-2.1,2.9-3.2.65,2.01.58,2.14-2.47,4.51Z"/>
    <path class="cls-6" d="M202,180.56c-1.35-1.68-1.45-2.11-.66-2.65.67-.46,1.38-.59,1.97.13.66.79.26,1.6-1.3,2.53Z"/>
    <path class="cls-6" d="M253.31,150.44c-.28.78-.49,1.39-.73,2.06-1.4-.06-2.1-.8-2.47-2.02.95-.91,1.92-.5,3.2-.04Z"/>
    <path class="cls-6" d="M355.16,209.57c-.59-.47-.96-.77-1.5-1.2.53-.56.98-1.03,1.43-1.5.13.07.26.13.39.2-.09.75-.19,1.5-.32,2.5Z"/>
    <path class="cls-6" d="M255.09,118.92c-.71.42-1.09.79-1.49.83-.29.03-.83-.35-.9-.64-.18-.68.24-1.23.94-1.18.4.03.76.5,1.46.99Z"/>
    <path class="cls-6" d="M302.41,225.65c-.71-.5-1.41-1-2.32-1.65,1.48-.25,1.99.64,2.32,1.65Z"/>
    <path class="cls-6" d="M258.99,136.76c1.56.19,1.47.71.77,1.61-.24-.5-.42-.88-.77-1.61Z"/>
    <path class="cls-6" d="M256.27,138.06l.48-1.22c.12.04.24.08.37.12-.11.43-.22.86-.33,1.29-.17-.06-.34-.12-.51-.19Z"/>
    <path class="cls-1" d="M265.34,222.69c-5.91-.17-11.67-1.05-17.37-2.47-3.08-.77-5.69-2.31-7.99-4.41-.7-.64-1.23-1.51-1.66-2.37-.76-1.51-.41-2.77.81-4.05,3.17-3.32,7.23-4.86,11.5-5.76,5.74-1.2,11.56-1.5,17.46-1.17,5.18.29,10.07,1.52,14.9,3.19,2.79.97,5.35,2.38,7.47,4.48,1.63,1.61,1.82,3.33.64,5.28-.85,1.41-2.07,2.44-3.57,2.97-2.4.85-4.82,1.66-7.3,2.21-3.14.69-6.34,1.15-9.52,1.62-1.77.26-3.57.32-5.35.47ZM247.11,209.68c-.78,1.56-.25,2.8.53,3.92,1.79,2.58,4.12,4.15,7.4,4.5,3.59.38,7.38.41,10.24,3.41,1.33-1.43,2.85-2.34,4.69-2.59,1.41-.19,2.83-.4,4.24-.45,2.65-.1,4.92-1.19,7.11-2.55,1.2-.74,1.78-1.83,1.59-3.23-.06-.47-.29-.99-.62-1.3-.13-.12-.8.19-1.12.44-1.88,1.42-3.93,2.09-6.31,1.75-2.38-.34-4.61.21-6.73,1.31-1.05.54-2.16.99-3.14,1.43-2.87-1.97-2.87-1.92-6.57-2.39-3.81-.49-7.59-1.12-10.49-4.01-.13-.13-.41-.13-.83-.24ZM275.12,207.72c-.61.16-1.04.38-1.46.36-2.71-.07-5.15.69-7.4,2.19-.65.43-1.22.12-1.86-.23-1.03-.56-2.13-1.15-3.27-1.34-2.23-.38-4.38-.86-6.11-2.38-1.34,1.38-1.39,2.25-.32,3.48,1.12,1.28,2.68,1.63,4.24,1.85,1.75.25,3.34.79,4.81,1.76.55.36,1.15.64,1.7.94,2.05-1.93,2.06-1.85,4.78-2.35,1.3-.24,2.61-.72,3.78-1.34.98-.51,1.81-1.37,1.11-2.94ZM267.48,207c-.29-.44-.6-.85-.85-1.29-.98-1.69-1.47-1.75-2.74-.29-.29.33-.65.68-.77,1.09-.16.52-.34,1.28-.09,1.61.34.45,1.09.83,1.66.83,1.28,0,2.21-.75,2.8-1.94Z"/>
    <path class="cls-7" d="M250.74,288.41c0-1.35.61-2.18,1.64-2.22,1.18-.06,2.16.91,2.11,2.06-.05,1.21-.91,2.04-2.15,2.08-1.07.03-1.59-.6-1.6-1.92Z"/>
    <path class="cls-7" d="M279.78,288.99c-.04-1.37.8-2.3,2.14-2.36,1.11-.05,1.95.78,1.98,1.95.03,1.18-.98,2.12-2.35,2.2-1.15.07-1.73-.52-1.76-1.79Z"/>
    <path class="cls-2" d="M200.08,260.74c-.24.71-.54,2.2-1.21,3.49-1.14,2.19-3.82,2.73-5.77,1.24-.53-.41-1.02-1.22-1.05-1.86-.06-1.69-.04-3.44.31-5.08.42-1.94,2.49-3.19,4.23-2.9,1.91.31,3.56,2.36,3.49,5.11Z"/>
    <path class="cls-2" d="M293.97,265.56c.35-1.7.52-3.25,1.82-4.4,2.3-2.04,5.33-1.35,6.3,1.56.76,2.3.39,4.56-.66,6.75-1.07,2.23-5.24,1.61-6.1-.21-.56-1.18-.92-2.46-1.36-3.7Z"/>
    <path class="cls-2" d="M278.88,249.31c0-1.19-.11-1.92.04-2.59.09-.42.57-1.03.9-1.04.5-.02,1.23.28,1.48.67.22.36.1,1.19-.19,1.54-.44.51-1.16.77-2.22,1.41Z"/>
    <path class="cls-2" d="M255.34,248.29c-.12,1.17-.7,2.27-1.86,2.96-.96.57-1.89.19-2.66-.5-.99-.87-1.29-1.96-.85-3.23.02-.07.03-.15.05-.22.47-1.56,1.83-2.65,3.03-2.44,1.13.2,2.27,1.81,2.29,3.42Z"/>
    <path class="cls-2" d="M238.51,246.53c.02-1.79.38-2.39,1.34-2.36.77.03,1.59.96,1.43,1.65-.18.77-1.03,1.01-2.77.71Z"/>
    <path class="cls-2" d="M238.38,250.55c.07-1.1-.47-2.25,1.08-2.36.84-.06,1.55.62,1.41,1.33-.27,1.32-1.27,1.13-2.49,1.04Z"/>
    <path class="cls-2" d="M225.49,246.74c.05-.95.1-1.81.15-2.68.94-.49,1.87-.63,2.45.21.31.45.35,1.34.12,1.86-.51,1.16-1.56.75-2.72.62Z"/>
    <path class="cls-2" d="M213.82,243.79c.09.84.27,1.54.16,2.19-.03.19-.91.23-1.54.38q.44-1.65,1.38-2.56Z"/>
    <path class="cls-6" d="M226.76,180.02c7.56.16,15.11.32,22.67.49.15,0,.3.02.45.02,8.11.2,16.21.39,24.32.58,5.93.14,11.87.19,17.8.44,3.29.14,6.57.72,9.86.9,4.12.22,8.26.1,12.37.35,4.94.3,9.86.9,14.8,1.25,4.19.3,8.4.42,12.6.66,1.31.08,2.61.29,3.91.44.02.16.03.32.05.48-.33.16-.66.47-.98.46-6.07-.3-12.14-.67-18.21-.98-4.94-.25-9.89-.43-14.83-.68-5.32-.27-10.65-.6-15.97-.9-3.97-.23-7.94-.57-11.91-.68-9.69-.27-19.38-.42-29.07-.67-2.4-.06-4.79-.35-7.19-.53-.6-.05-1.2-.12-1.8-.13-4.28-.04-8.56-.1-12.84-.09-2.1,0-4.08-.48-6.08-.94.01-.16.03-.31.04-.47Z"/>
    <path d="M305.69,197.44c-.16-.92-.23-1.34-.3-1.77q-5.61-1.37-6.29-2.7c1.59-.51,3.11.11,4.63.14,1.5.03,3,0,4.27,0,1-.92,1.88-1.74,3.13-2.9.39-1.44,1.06-2.19,2.06-1.89.82.24.93.83.51,2.98,2.12.07,3.93-.6,5.64-1.79.91-.63,1.94-1.08,2.97-1.52.26-.11.88.08.98.3.16.35.2,1.06,0,1.22-.75.57-1.59,1.05-2.46,1.4-1.31.53-2.7.88-4.02,1.38-.37.14-.64.54-1.16,1,.54.19.86.41,1.16.4,3.07-.18,6.13-.37,9.19-.62.74-.06,1.47-.43,2.02.41-.14,1-.83,1.37-1.71,1.49-2.67.34-5.34.71-8.02.96-1.26.12-2.55.02-3.83-.04-2.93-.13-5.87-.35-8.77,1.54Z"/>
    <path class="cls-6" d="M237.3,184.2c.56-.15,1.01-.37,1.46-.38,1.43-.02,2.86.03,4.28.06,4.35.11,8.71.2,13.06.34,7.43.25,14.86.48,22.28.82,4.04.19,8.07.59,12.1.9.65.05,1.36,0,1.64,1.23-.96.02-1.81.1-2.64.03-9.44-.81-18.9-.89-28.37-.79-5.48.06-10.96.04-16.41-.74-1.7-.25-3.45-.18-5.17-.34-.76-.07-1.67.02-2.24-1.14Z"/>
    <path class="cls-6" d="M276.36,189.8c-.62.07-1.25.24-1.86.21-5.1-.24-10.2-.53-15.31-.76-2.03-.09-4.06-.03-6.09-.12-.85-.04-1.69-.27-2.66-.43.44-1.28,1.25-1.36,2.08-1.31,7.12.43,14.23.86,21.35,1.31.84.05,1.67.19,2.51.29,0,.27-.02.54-.02.81Z"/>
    <path class="cls-6" d="M266.06,192.7c-3.04-.07-5.7.3-8.39-.61.37-1.45,1.43-1.05,2.2-1.06,4.18-.08,5.05.12,6.19,1.67Z"/>
    <path d="M247.11,209.68c.42.12.69.11.83.24,2.91,2.89,6.69,3.53,10.49,4.01,3.7.47,3.7.42,6.57,2.39.98-.45,2.08-.89,3.14-1.43,2.12-1.09,4.35-1.64,6.73-1.31,2.38.34,4.43-.33,6.31-1.75.32-.25,1-.56,1.12-.44.33.31.56.84.62,1.3.18,1.4-.4,2.48-1.59,3.23-2.18,1.36-4.45,2.45-7.11,2.55-1.42.05-2.83.26-4.24.45-1.84.25-3.36,1.16-4.69,2.59-2.86-2.99-6.65-3.02-10.24-3.41-3.28-.35-5.61-1.93-7.4-4.5-.78-1.12-1.31-2.36-.53-3.92ZM264.94,219.37c1.98-.66,3.57-1.33,5.23-1.7,1.53-.34,3.12-.39,4.69-.51,2.34-.17,4.29-1.27,6.15-2.55.29-.2.39-.66.81-1.43-1.12.49-1.76.87-2.45,1.05-1.07.28-2.2.68-3.26.58-3.18-.32-6.11.22-8.86,1.85-.45.27-.96.43-1.43.66-.84.42-1.58.32-2.24-.37-1.23-1.28-2.81-1.55-4.5-1.73-3.13-.33-6.26-.73-9.11-2.26-.41-.22-.84-.41-1.26-.62,1.3,2.59,3.19,4.13,6.06,4.47,3.56.41,7.19.67,10.16,2.56Z"/>
    <path d="M275.12,207.72c.7,1.57-.13,2.43-1.11,2.94-1.18.61-2.48,1.09-3.78,1.34-2.71.5-2.73.42-4.78,2.35-.55-.3-1.15-.58-1.7-.94-1.47-.97-3.06-1.51-4.81-1.76-1.56-.22-3.12-.57-4.24-1.85-1.07-1.23-1.02-2.11.32-3.48,1.73,1.53,3.88,2,6.11,2.38,1.14.19,2.23.78,3.27,1.34.64.35,1.21.67,1.86.23,2.24-1.5,4.68-2.27,7.4-2.19.42.01.85-.2,1.46-.36ZM266,212.13c-3.23-2.46-7.17-2.42-11.02-4.05.88,1.58,1.91,2.08,3.14,2.31,2.19.42,4.43.72,6.3,2.12.69.51,1.25.27,1.58-.38ZM273.16,209.66c-2.96-.45-3.82-.21-5.69,1.7,2.01-.68,4.11-.12,5.69-1.7Z"/>
    <path d="M267.48,207c-.59,1.19-1.52,1.94-2.8,1.94-.57,0-1.32-.38-1.66-.83-.25-.33-.07-1.09.09-1.61.12-.4.47-.75.77-1.09,1.27-1.45,1.76-1.39,2.74.29.25.44.56.85.85,1.29ZM263.99,207.4l.26.39c.47-.18,1.08-.24,1.36-.58.17-.21-.15-.83-.34-1.68-.6.87-.94,1.37-1.29,1.87Z"/>
    <path class="cls-6" d="M264.94,219.37c-2.97-1.89-6.6-2.15-10.16-2.56-2.87-.33-4.77-1.88-6.06-4.47.42.21.85.4,1.26.62,2.84,1.53,5.98,1.93,9.11,2.26,1.69.18,3.27.45,4.5,1.73.66.69,1.4.79,2.24.37.47-.23.98-.39,1.43-.66,2.75-1.62,5.68-2.17,8.86-1.85,1.06.11,2.19-.3,3.26-.58.69-.18,1.33-.56,2.45-1.05-.42.77-.53,1.23-.81,1.43-1.87,1.27-3.82,2.37-6.15,2.55-1.57.12-3.17.17-4.69.51-1.66.37-3.25,1.04-5.23,1.7Z"/>
    <path class="cls-6" d="M266,212.13c-.34.64-.9.89-1.58.38-1.88-1.39-4.11-1.7-6.3-2.12-1.23-.23-2.25-.73-3.14-2.31,3.85,1.63,7.79,1.59,11.02,4.05Z"/>
    <path class="cls-6" d="M273.16,209.66c-1.58,1.57-3.67,1.02-5.69,1.7,1.87-1.9,2.73-2.14,5.69-1.7Z"/>
    <path class="cls-6" d="M263.99,207.4c.34-.5.69-1,1.29-1.87.19.85.52,1.47.34,1.68-.28.34-.89.4-1.36.58l-.26-.39Z"/>
  </g>
</svg>