<?xml version="1.0" encoding="UTF-8"?>
<svg id="Layer_1" xmlns="http://www.w3.org/2000/svg" viewBox="0 0 400 400">
  <defs>
    <style>
      .cls-1, .cls-2, .cls-3, .cls-4, .cls-5 {
        fill-rule: evenodd;
      }

      .cls-1, .cls-6 {
        fill: #fff;
      }

      .cls-2 {
        fill: #e0e0e0;
      }

      .cls-6 {
        font-family: AmericanTypewriter-CondensedBold, 'American Typewriter';
        font-size: 50.49px;
        font-weight: 700;
        letter-spacing: -.1em;
      }

      .cls-4 {
        fill: #ee2e2d;
      }

      .cls-5 {
        fill: #3d3d3d;
      }
    </style>
  </defs>
  <g>
    <polygon class="cls-4" points="73.27 146.41 22.18 219 24.63 222.2 120.2 220.22 86.76 156.71 76.73 144.64 73.27 146.41"/>
    <path class="cls-3" d="M103.43,182.57c3.34.52,2.39,5.66,5.9,6.03.04,3.69,1.91,5.43,4.22,6.67-.32,3.87,1.85,5.07,4.18,6.11.25.96-.39,1.08-1.08,1.17.78.8,2.65,1.34,1.23,2.8.44-.32.91-.62,1.68-.63.25,1.14-.05,1.78-1.07,1.75,1.11,1.45,4.34,4.59,2.47,5.59.57.97,1.83,1.19,3.44,1.02.25,4.64,2.77,6.84,2.7,11.84-.54-.34-2.13-1.25-1.68.62-1.01-1.09-3.96-.07-4.05-2.12-1.29,2.22-3.87-1.54-6.76,1.38-1.73.26-1.25-1.81-1.82-2.79-1.64.55.79,1.41.1,2.85-.43-.37-1.88-2.34-1.7.05-7.91-.66-19.67-.87-26.7-.19-.02-.57-.04-1.13-.06-1.7-2.58,1.48-5.58,1.72-7.95.28-1.57,2.19-12.11,2.11-15.32.55-6.29,3.49-20.11-.07-23.17,3.65-4.85-2.81-13.32.17-19.39-2.15-.55-1.79.41-2.17,1.04-2.88-2.29-.11-.95-.45-1.27-3.93,2.65-.83,3.77-3.07,3.76-6.39,2.62.45,1.18-2.91,3.88-2.41-.46-1.73-.43-1.08-.1-2.84,3.84.48,1.59-4.74,4.94-4.72-.39-.57-1.32-.54-1.19-1.66,2.27.66,1.09-1.9,3.36-1.25-.04-.95-.07-1.89-.1-2.84.48-.45,1.26-.66,2.24-.64,3.44-8.51,9.75-14.33,13.41-22.63,1.96,0,2.59-1.25,2.15-3.49,1.66.09,1.69-1.34,3.36-1.25,1.49-7.59,8.76-9.78,10.18-17.41,6.25-1.31,4.87-9.71,10.96-11.18-.39-.56-1.32-.54-1.2-1.66,1.88-.09,2.79-1.07,5.1-.74,2.51,1.83-.7,2.91,2.93,2.73-2.38,2.53.58,10.08,3.16,8.97.84.16.1,4.29,2.98,3.87-.33,1.76.67,2.05.7,3.39,7.21,6.19,8.44,18.83,15.66,25.01.23.95-.41,1.08-1.1,1.18ZM70.66,155.89c-1.81.75-.48-1.84-2.31-1.07-.87.28-.42,1.81-2.21,1.22-.74,2.98-1.48,5.94-4.3,6.98-.72,3.13,1.56,3.04,2.44,4.45-3.99,2.84-4.13,12.09-11.06,8.92.62,1.7,2.7,1.81,2.98,3.88-1.51.75-2.62,1.03-3.36,1.25,2.39,2-.66,1.47-1.62,2.9-2.47,3.73-3.86,9.62-8.12,10.51-.19,2.75-1.22,4.73-3.81,5.25,1.39,2.95-.84.39-1.65,1.77,3.63.74-2.37,2.46.14,3.98-4.05.78-3.14,6.21-5.96,8.16-.35-.99.57-3.36-.68-3.38-.02.88.16,1.96-1.08,1.74-.63,1.85,1.85.36,1.22,2.22-2.36.55-1.97,3.65-3.22,5.24,5.93-1.23,15.55-1.2,22.14-.79.11-.44-.02-1.12.52-1.16,21.98,2.31,39.56-.87,66.43-1.22-1.15-5.97-6.38-8.9-8.39-12.2-.61-5.05-5.37-5.62-5.5-11.16-2.55.34-2.16-2.05-1.83-3.34-2.26.03-4.25-3.67-2.42-4.46-1.79.93-1.91-.36-3.45-1.02-3.92-12.44-13.58-21.32-18.15-31.17.01.57-.97.75-1.14.03.69-.08,1.34-.21,1.1-1.17-1.59.52-1.5-.75-2.86-.47-2.8,3.79-4.09,8.99-8.7,11.11,1.17,1.96-.46,2.75-1.55,4.04-.66-2.26-.07-4.43.92-6.29.93-.02.36,1.57,1.2,1.66.16-2.42,2.17-7.03,3.81-4.67-.05-.78.21-1.27.49-1.72Z"/>
  </g>
  <g>
    <path class="cls-2" d="M356.07,171.09s-16.92-58.3-89.05-62.42c-46.82-2.68-98.12,19.64-111.05,69.1,0,0-7.13,3.12-12.92,5.35-5.79,2.23-11.14,8.47-10.25,19.61.89,11.14,8.47,31.64,11.59,32.09,3.12.45,11.59,1.34,17.83,3.12,6.24,1.78,29.63,24.4,33.2,25.29,3.56.89,43.45,2.34,67.52,1.89,24.06-.45,38.77,0,52.14-5.35,13.37-5.35,23.62-19.61,29.86-22.28,6.24-2.67,18.27-4.46,22.73-7.58,4.45-3.12,9.36-27.19,9.36-33.42s-5.79-16.49-9.36-16.49-11.14-1.34-11.14-1.34l-.44-7.58Z"/>
    <g>
      <path class="cls-3" d="M276.31,159.97c-.35-1.22-.57-1.49-1.48-1.53-1.79-.09-3.4.34-4.76,1.63-3.27,3.11-3.27,7.05-1.45,10.37,1.83,3.34,4.45,5.57,8.13,6.64,3.2.93,6.41,1.7,9.72,2.12,1.13.14,1.34.46.74,1.45-.81,1.36-1.71,2.67-2.63,3.96-.18.26-.59.46-.91.5-1.76.19-3.53.42-5.3.45-5.15.11-10.3.12-15.45.2-2.71.05-5.43.18-8.14.25-4.31.12-8.61.34-12.91.32-3.93-.02-7.85-.33-11.78-.49-1.82-.07-3.65-.07-5.47-.14-.33-.01-.66-.19-.99-.29.16-.31.23-.74.48-.9.97-.64,1.94-1.37,3.02-1.74,1.77-.61,3.28-1.55,4.65-2.78,1.25-1.13,2.66-2.1,3.75-3.36,1.49-1.73,2.75-3.66,4.11-5.5.27-.37.51-.81.85-1.1,2.48-2.08,4.1-4.85,5.96-7.42.14-.19.24-.4.4-.58,1.71-1.98,3.4-3.98,5.13-5.94,2.2-2.5,4.82-4.4,7.99-5.54,1.31-.46,2.56-1.13,3.77-1.83,1.76-1.02,3.67-1.36,5.65-1.49,2.75-.17,5.41.21,7.98,1.22.44.17.87.36,1.32.46,2.33.53,3.67,2.23,5.05,3.99,2.49,3.17,2.91,6.66,1.97,10.47-.46,1.87-1.62,3.03-3.29,3.72-.94.39-1.96.66-2.96.83-3.36.55-6.17-2.57-5.23-5.69.33-1.08,1.11-1.68,2.08-2.23ZM286.04,180.77c-.65-.31-1.11-.67-1.61-.74-2.8-.36-5.49-1.11-8.18-1.93-4.66-1.43-7.71-4.55-9.37-8.98-1.62-4.32-.1-8.26,3.79-10.85,1.45-.96,3.09-.99,4.74-.79.39.05.79.29,1.12.53.7.52.82,1.35.9,2.13.08.71-.6.87-1.08,1.13-.67.37-1,.93-1.14,1.67-.36,1.99,1.23,3.83,3.41,3.83,1.42,0,2.78-.38,4.04-1.05,1.13-.6,1.87-1.53,2.06-2.84.13-.88.3-1.75.37-2.63.33-4.04-1.72-6.95-4.56-9.47-.21-.18-.47-.32-.73-.41-2-.65-3.97-1.51-6.02-1.87-3.3-.59-6.61-.59-9.69,1.18-1.21.69-2.46,1.39-3.77,1.86-3,1.07-5.44,2.88-7.49,5.26-1.71,1.99-3.37,4-5.06,6.01-.12.14-.21.31-.32.47-1.89,2.61-3.5,5.44-6,7.57-.31.27-.51.67-.76,1-1.41,1.92-2.7,3.94-4.27,5.73-1.15,1.32-2.67,2.32-3.98,3.51-1.41,1.28-2.95,2.28-4.81,2.77-.51.14-.97.45-1.46.68.32.22.58.25.85.26,1.59.06,3.18.11,4.77.19,1.59.08,3.18.31,4.76.3,5.9-.03,11.8-.12,17.69-.21,5.67-.09,11.33-.27,16.99-.28,3.94-.01,7.85-.29,11.75-.81.39-.05.87-.19,1.1-.46.67-.82,1.24-1.72,1.96-2.74Z"/>
      <path class="cls-3" d="M326.28,228.62c-.77.73-1.46.79-2.14.83-2.01.1-4.02.22-6.03.26-4.35.08-8.71.02-13.06.19-10.16.41-20.31.02-30.47-.29-.19,0-.38-.02-.56-.02-6.22.06-12.45.06-18.68.23-3.13.08-6.25.47-9.37.71-1.31.11-2.61.28-3.92.31-4.72.13-9.45.38-14.17.26-4.3-.11-8.59-.57-12.87-.99-4.3-.43-8.59-.47-12.9-.34-1.78.05-3.55.22-5.33.29-4.07.16-8.14.29-12.2.47-.64.03-1.29.2-1.89.41-.54.19-.82-.02-.99-.45-.17-.45.1-.75.5-.84.73-.16,1.47-.29,2.21-.34,1.26-.07,2.52-.06,3.78-.1,1.03-.03,2.06-.07,3.09-.11,4.07-.17,8.13-.34,12.2-.5,4.45-.18,8.89.08,13.31.59,5.77.66,11.56.85,17.38.79,5.3-.05,10.56-.56,15.83-.93,3.5-.24,7-.36,10.51-.41,5.53-.07,11.05-.11,16.57-.03,4.4.06,8.79.37,13.19.45,3.09.06,6.18-.07,9.27-.12,7.58-.1,15.16-.2,22.75-.31.84-.02,1.68-.08,2.53-.1.4,0,.79.04,1.46.08Z"/>
      <path class="cls-3" d="M225.31,165.83c-1-.73-.93-1.61-.78-2.49.13-.83.67-1.36,1.49-1.47,1.3-.17,2.6-.32,3.9-.38.8-.03,1.44.43,1.81,1.14.9,1.72,1.15,3.44-.11,5.13-.36.48-.61,1.06-1,1.52-2.24,2.71-5.78,2.86-8.59.92-2.49-1.72-3.88-5.55-3.08-8.46.15-.55.5-1.18.95-1.5,2.73-1.93,5.76-3.17,9.15-3,4.44.21,7.97,4.17,7.64,8.44-.18,2.3-.78,4.51-2.11,6.47-.5.73-.97,1.49-1.35,2.29-1.27,2.66-3.44,4.27-6.07,5.33-1.02.41-1.9.97-2.72,1.69-.39.35-.79.81-1.57.52.58-.88,1.22-1.55,2.09-2.04.89-.5,1.74-1.08,2.61-1.63,3-1.9,4.77-4.9,6.47-7.82,1.42-2.44,2.02-5.24.89-8.1-.34-.86-.84-1.56-1.66-2-.99-.53-1.97-1.09-3-1.54-1.37-.61-2.82-.71-4.23-.15-1.71.67-3.28,1.56-4.57,2.93-.96,1.02-1.21,2.17-.96,3.49.27,1.37.94,2.55,1.88,3.55.36.38.91.76,1.41.81,1.54.16,3.07.14,4.56-.45,1.38-.54,2.19-1.54,2.6-2.92.26-.87-.58-2.81-1.39-3.17-.69-.31-1.39-.28-1.97.24-.48.43-.91.94-1.34,1.43-.33.37-.62.77-.96,1.21Z"/>
      <path class="cls-3" d="M249.33,206.27c-.85,5.23.09,10.39-.01,15.62-1.31.41-2.57.33-3.81.24-.23-.01-.58-.47-.62-.76-.08-.59,0-1.21.03-1.82.06-1.77.12-3.55.17-5.33.05-1.97-.11-3.91-.52-5.85-.69-3.36-.8-6.78-.61-10.2.04-.74.09-1.48.14-2.32.2-.04.41-.1.63-.12.92-.06,1.86-.03,2.77-.17,1.19-.19,1.25-.23,1.8.76,1.34,2.41,2.86,4.71,3.88,7.3.52,1.32,1.42,2.49,2.31,4,1.25-4.14,1.34-8.07,1.21-12.07.31-.04.54-.11.75-.1.88.04,1.76.15,2.65.15.74,0,1.15.3,1.24,1.02.05.37.12.75.09,1.12-.11,1.54-.09,3.11-.43,4.6-.71,3.07-.55,6.13-.23,9.21.26,2.51.48,5.03.69,7.54.04.5,0,1.01,0,1.55-1.06.28-2,.54-2.94.78-.64.16-1.04-.12-1.37-.69-1.8-3.12-3.64-6.2-5.43-9.33-.43-.76-.69-1.63-1.06-2.44-.42-.92-.89-1.81-1.34-2.71ZM248.82,204.49c.13-.01.26-.03.38-.04,2.3,5.78,5.93,10.84,8.99,16.31.85-.24,1.68-.48,2.59-.73,0-.48.03-.89,0-1.3-.21-2.28-.41-4.56-.68-6.84-.39-3.31-.56-6.6.25-9.89.33-1.35.33-2.78.41-4.18.03-.48-.14-.97-.23-1.45-1.11-.07-2.07-.14-3.18-.21.29,4.63-.34,9.15-1.56,13.73-2.64-4.64-4.7-9.42-7.45-13.75-1.25.19-2.39.37-3.57.55-.09,1.11-.26,2.17-.25,3.23.03,3.19.23,6.35.93,9.48.16.72.27,1.48.27,2.22,0,2.8-.04,5.61-.07,8.42,0,.45,0,.9,0,1.53,1.07-.08,1.97-.14,3.03-.21-.11-2.3-.28-4.44-.32-6.58-.04-2.8,0-5.6.06-8.41.02-.62.26-1.24.4-1.86Z"/>
      <path class="cls-3" d="M168.21,197.75c1.4-.38,2.81-.59,4.17-.58.13.23.22.3.22.38.18,4.34.95,8.65.76,13.01-.08,1.87.09,3.74.18,5.61.02.46.15.93.31,1.36.36.95,1.04,1.34,2.09,1.27.96-.06,1.47-.5,1.7-1.56.39-1.87-.02-3.72-.12-5.58-.05-1.03-.2-2.05-.18-3.07.03-2.67.15-5.33.22-8,.02-.93.02-1.86.02-2.79,0-.57.33-.87.87-.89,1.06-.02,2.13,0,3.32,0,.1.48.25.92.28,1.36.09,1.92.22,3.83.22,5.75,0,4.63-.12,9.25-.1,13.88.01,3.21-2.37,5.75-5.59,5.67-1.2-.03-2.42-.25-3.59-.58-2.83-.8-4.14-3.1-4.26-5.78-.04-.94-.07-1.88.02-2.81.34-3.57-.29-7.09-.51-10.63-.13-1.99-.02-4-.02-6.02ZM178.29,197.62c-.1,2.22-.22,4.31-.3,6.4-.13,3.7.08,7.39.43,11.07.08.82-.02,1.69-.2,2.5-.31,1.38-1.45,2.09-2.85,1.88-1.53-.23-2.36-1.18-2.48-3.08-.13-2.01-.2-4.02-.21-6.03-.03-3.23,0-6.45-.55-9.65-.16-.9-.14-1.82-.21-2.72q-2.03-.04-3.13.56c.08,2.07.15,4.17.25,6.28.15,2.98.34,5.97.47,8.96.05,1.17-.03,2.34,0,3.51.04,2.34,1.19,4.03,3.39,4.82.91.33,1.9.51,2.87.62,3.43.37,5.61-1.72,5.54-5.15-.05-2.81,0-5.62.03-8.42.03-2.25.18-4.49.18-6.73,0-1.58-.19-3.15-.31-4.82h-2.92Z"/>
      <path class="cls-3" d="M354.66,199.24c-.15,2.53-.29,4.98-.43,7.47,1.89.21,3.63.41,5.39.61.12,1.11.24,2.15.38,3.39-1.68.24-3.5.5-5.45.78-.22,1.39-.43,2.74-.67,4.23,1.82,0,3.45-.06,5.07.02,1.44.07,2.88.25,4.31.47.91.15,1.07.46.98,1.37-.03.37-.13.74-.18,1.11-.22,1.75-.25,1.78-1.92,1.82-3.65.1-7.29.2-10.93.29-.65.01-1.3,0-1.95,0-1.49-8.65-.97-17.19-.1-25.64,4.27-1.06,8.56-1.14,12.86-1.15.33,0,.66-.01.98,0,1.76.05,1.99.25,2.22,2,.12.88.2,1.76.33,2.82-3.57.14-7.1.27-10.88.41ZM358.91,207.89c-1.52-.13-2.96-.28-4.39-.36-.59-.03-.89-.28-.95-.81-.05-.51-.03-1.03,0-1.54.08-1.45.17-2.89.26-4.33.03-.47.12-.93.13-1.4,0-.66.36-.93.96-.93,1.17-.02,2.34,0,3.51-.05,2.04-.07,4.08-.19,6.22-.29-.05-.83-.07-1.52-.14-2.21-.11-1.09-.28-1.31-1.41-1.29-3.13.05-6.26.12-9.39.31-1.32.08-2.63.49-3.91.74-.68,8.24-1.28,16.33.21,24.51,4.45-.24,8.85-.48,13.26-.71.11-.9.21-1.67.31-2.55-3.41-.85-6.81-.59-10.28-.49-.27-1.96.28-3.73.6-5.56.95-.15,1.78-.28,2.61-.41.82-.12,1.64-.23,2.48-.35-.03-.75-.07-1.44-.1-2.27Z"/>
      <path class="cls-3" d="M331.82,210.78c.3-.96.63-1.91.9-2.87.55-2.03,1.01-4.09,1.61-6.1.51-1.7,1.15-3.36,1.75-5.02.16-.44.49-.85.52-1.29.07-1.06.76-1.33,1.6-1.39,1.19-.07,2.39-.47,3.65.11-.05.29-.04.57-.15.8-3,6.25-4.77,12.87-6.04,19.65-.39,2.06-1.05,4.07-1.54,6.12-.15.64-.5.95-1.12,1.07-.37.07-.72.18-1.08.29-1.38.44-1.53.43-2.08-.98-.66-1.69-1.3-3.41-1.77-5.17-.69-2.58-1.44-5.09-2.7-7.49-.92-1.76-1.45-3.74-1.97-5.68-.69-2.55-1.21-5.15-1.78-7.67,1.45-.29,2.7-.57,3.97-.8,1.4-.26,1.65-.1,2.02,1.22.61,2.15,1.37,4.29,1.72,6.49.39,2.5.84,4.97,1.61,7.38.15.46.39.9.59,1.35.1,0,.2-.02.31-.02ZM330.94,221.67c.55-.15,1.04-.32,1.53-.39.67-.09.95-.49,1.09-1.09.49-2,1.11-3.97,1.49-5.99,1.25-6.5,2.89-12.86,5.75-18.86.09-.19.06-.42.12-.79-1.04.07-1.98.09-2.89.24-.28.05-.64.39-.75.67-.83,2.23-1.66,4.47-2.38,6.74-.6,1.91-1.02,3.88-1.54,5.83-.29,1.08-.61,2.16-.98,3.22-.1.3-.43.53-.65.8-.24-.25-.57-.45-.73-.75-.31-.57-.56-1.18-.77-1.79-.88-2.58-1.41-5.23-1.68-7.95-.23-2.31-1.34-4.33-1.92-6.69-1.46.33-2.76.63-4.06.93,0,.31-.04.49,0,.66.55,2.36,1.04,4.74,1.71,7.07.5,1.74,1.21,3.43,1.88,5.12.5,1.26,1.13,2.46,1.59,3.72.42,1.14.68,2.33,1.01,3.5.55,1.97,1.08,3.95,2.14,5.8Z"/>
      <path class="cls-3" d="M287.58,214.95c.97.63,1.9,1.17,2.76,1.8,1.23.91,1.32,2.53.24,3.65-1.02,1.07-2.35,1.49-3.75,1.75-2.65.49-5.1-.19-7.46-1.32-1.38-.66-2.07-1.91-2.41-3.29-.35-1.4-.57-2.85-.66-4.28-.2-3.31-.25-6.63-.44-9.94-.17-2.94,1.03-5.26,3.05-7.23,1.3-1.27,2.92-1.6,4.66-1.45,1.4.12,2.79.29,4.19.4,1.1.08,1.81.67,2.31,1.59.1.21.25.41.31.63.63,2.38,1.55,4.71,1.48,7.23,0,.13-.08.26-.14.42-1.12.27-2.25.54-3.38.8-.62.14-.85-.19-.89-.76-.05-.98-.09-1.96-.18-2.93-.19-2.02-2.34-3.38-4.28-2.72-.09.03-.17.08-.25.12-2.09.87-2.42,1.36-2.25,3.6.29,4.01.61,8.02.93,12.03.15,1.91,1,2.53,2.91,2.21,1.37-.23,1.82-.53,3.26-2.27ZM291.2,204.29c-.08-.87-.08-1.66-.24-2.42-.21-1.05-.52-2.08-.82-3.11-.17-.58-.38-1.15-.63-1.7-.37-.82-.98-1.33-1.94-1.4-1.49-.11-2.98-.3-4.47-.42-1.58-.12-2.96.39-4.07,1.53-1.7,1.75-2.69,3.78-2.55,6.3.18,3.36.25,6.73.45,10.1.08,1.39.25,2.81.6,4.15.41,1.61,1.37,2.86,3.11,3.31.45.12.87.32,1.32.48,2.22.77,4.43.64,6.59-.19.59-.23,1.14-.65,1.61-1.09.62-.59.66-1.77.06-2.27-.77-.65-1.53-1.38-2.63-1.55-.92,1.01-1.94,1.76-3.33,1.92-2.2.26-3.28-.58-3.49-2.78-.02-.14-.02-.28-.03-.42-.31-3.83-.59-7.65-.93-11.47-.23-2.58.16-3.31,2.48-4.38,2.62-1.21,5.44.37,5.8,3.23.11.87.27,1.74.43,2.69.86-.16,1.63-.3,2.66-.49Z"/>
      <path class="cls-3" d="M147.39,224.35c-.54-4.07-.76-7.84-.59-11.63.13-2.82-.14-5.6-.55-8.38-.06-.37-.08-.75-.09-1.12-.06-1.81-.11-3.62-.17-5.51.2-.07.41-.21.63-.21,2.98-.11,5.96-.68,8.95-.13.69.13,1.37.28,2.04.46,1.47.39,2.45,1.38,2.98,2.75.81,2.09,1.57,4.23,1.71,6.48.16,2.7.29,5.42.21,8.12-.08,2.49-1.21,4.72-2.69,6.65-1.1,1.42-2.86,1.88-4.62,2.05-.6.06-1.22-.03-1.82.02-1.48.13-2.96.3-4.44.43-.49.04-.99,0-1.54,0ZM147.87,223.35c2.79-.06,5.34-.02,7.88-.34.55-.07,1.1-.25,1.62-.46.38-.15.77-.38,1.03-.68,1.15-1.3,2.06-2.77,2.7-4.37.24-.59.43-1.25.47-1.88.22-3.7.02-7.38-.55-11.05-.27-1.73-.88-3.33-1.92-4.76-.49-.66-1.02-1.22-1.89-1.32-1.48-.18-2.95-.44-4.44-.52-1.44-.07-2.9.08-4.35.1-1.37.02-1.66.28-1.6,1.67.09,2.04.07,4.11.38,6.13.51,3.31.32,6.62.33,9.94,0,2.42.21,4.84.34,7.54Z"/>
      <path class="cls-3" d="M215.96,201.53c-.05.19-.16.42-.16.63,0,1.92-.03,3.83.02,5.74.03,1,.27,1.19,1.3,1.26.78.05,1.57.01,2.38.01.51,1.12.28,2.19.34,3.36-1.45.25-2.86.49-4.44.76.15,2.96-.07,5.93.58,8.86-.91.68-2.99,1.21-4.26,1.04-.4-2.09-.51-4.25-.27-6.37.27-2.45-.02-4.86-.11-7.28-.09-2.52-.16-5.04-.23-7.57-.03-1.17-.03-2.33-.02-3.5,0-1.1.25-1.32,1.28-1.35,3.55-.13,7.1-.29,10.65-.43.73-.03,1.47,0,2.35,0,.24,1.14.49,2.26.75,3.52-3.48.45-6.8.89-10.17,1.32ZM219.13,209.82c-.76,0-1.37.03-1.97,0-1.54-.12-2-.54-2.05-2.08-.05-1.96-.01-3.93.01-5.9,0-.34.14-.69.19-.89,3.38-.44,6.6-.86,9.99-1.3-.19-.87-.34-1.56-.5-2.29-4.37.19-8.56.37-12.86.56-.05.87-.14,1.75-.13,2.62.03,2.85,0,5.7.16,8.54.15,2.76.4,5.5.13,8.26-.17,1.76-.05,3.52.28,5.39.99-.27,1.87-.51,2.69-.73-.12-2.81-.24-5.51-.35-8.21-.04-.99.05-1.07,1.06-1.23,1.1-.18,2.19-.4,3.35-.61v-2.14Z"/>
      <path class="cls-3" d="M203.81,200.83c-3.33.3-6.49.58-9.69.87v6.79c.25.1.57.28.91.38.54.15,1.11.21,1.65.37,1.61.46,2.11.45,1.6,2.34-.16.57-.09,1.19-.13,1.88-1.21.14-2.35.28-3.56.42-.02.38-.06.69-.06,1,0,2.01.05,4.03.02,6.04-.03,1.76-.25,1.94-2.05,2.15-.64.07-1.28.19-2.05.3-.31-1.2-.41-2.39-.45-3.59-.08-2.53,0-5.07-.25-7.58-.46-4.44-.11-8.89-.29-13.33-.06-1.4.19-1.66,1.57-1.68,3.79-.05,7.59-.09,11.38-.11,1.37,0,1.53.19,1.51,1.56,0,.64-.06,1.29-.11,2.17ZM197.82,210.38c-.21-.13-.31-.24-.44-.27-.86-.22-1.72-.43-2.58-.65-1.26-.32-1.38-.54-1.36-1.86.03-1.54-.01-3.08-.02-4.61,0-.59,0-1.19,0-1.89,1.7-.14,3.26-.29,4.84-.4,1.62-.12,3.25-.13,4.9-.64v-2.34c-4.38.1-8.66-.21-12.9.25-.39,2.2.3,22.25.84,24.54.49-.03.99-.04,1.5-.09,1.11-.12,1.3-.28,1.31-1.38.02-2.15-.03-4.3-.04-6.45,0-.44.05-.88.08-1.28,1.31-.15,2.44-.29,3.52-.42.14-.94.24-1.68.36-2.5Z"/>
      <path class="cls-3" d="M299.24,210.85c-.12-1.96-.32-3.93-.33-5.89,0-2.42-.06-4.84.8-7.2.92-2.55,2.55-3.99,5.23-4.45,3.34-.56,6.1.2,8.23,2.95.76.97,1.06,2.09,1.26,3.23.42,2.41.47,4.83.23,7.27-.12,1.26-.05,2.53-.1,3.79-.08,2.06-.15,4.11-.31,6.17-.13,1.77-1.11,2.97-2.63,3.89-1.94,1.17-3.98,1.2-6.1.94-.42-.05-.83-.17-1.24-.2-2.91-.23-4.53-1.7-4.85-4.6-.19-1.67-.16-3.37-.23-5.05-.01-.28,0-.56,0-.85h.05ZM313.97,208.35s-.08,0-.12,0c.05-.75.12-1.49.13-2.24.04-2.34.08-4.66-.35-6.99-.53-2.81-3.51-5.42-6.56-5.29-1.06.05-2.12.3-3.17.48-1.64.29-2.53,1.41-3.25,2.81-1.28,2.49-1.18,5.16-1.16,7.82.02,2.43.18,4.85.32,7.28.1,1.72.16,3.46.43,5.16.23,1.45,1.05,2.74,2.56,3.03,1.87.36,3.85.75,5.69.49,3.12-.42,5.16-1.89,5.22-4.99.05-2.52.17-5.04.26-7.57Z"/>
      <path class="cls-3" d="M327.13,184.29c.13.86-.25,1.08-.86,1.08-.94,0-1.87-.02-2.81,0-7.76.23-15.53.47-23.29.69-1.44.04-1.63-.02-3.16-.78.24-.18.4-.38.62-.46.21-.08.46-.05.69-.06,2.89-.19,5.78-.46,8.67-.55,3.04-.09,6.08-.02,9.12-.02,3.04,0,6.08-.02,9.11,0,.63,0,1.26.07,1.9.11Z"/>
      <path class="cls-3" d="M237.47,171.63c-.58-.57-.34-1.06-.14-1.43,1.31-2.52,1.43-5.3,1.83-8.01.03-.19.01-.38.06-.56.6-2.28.24-4.44-.8-6.52-.18-.37-.3-.78-.41-1.19-.14-.51,0-.94.47-1.2.5-.29.86-.07,1.23.31,1.86,1.92,2.47,4.28,2.2,6.84-.2,1.89-.59,3.78-1.04,5.64-.2.84-.75,1.59-1.17,2.37-.6,1.1-1.22,2.19-1.84,3.28-.09.15-.22.27-.38.47Z"/>
      <path class="cls-3" d="M324.07,162.55c.36-.41.61-.87,1-1.12,1.69-1.08,3.41-2.12,5.13-3.14.82-.49,1.74-.64,2.46.06.71.69,1.17,1.58.87,2.66-.29,1.02-.99,1.54-2.04,1.61-.23.02-.46.04-.76.07-.04.28-.07.55-.13.81-.25,1.03-.89,1.66-1.96,1.66-1.46.02-2.92-.06-3.48-1.87-.09-.28-.61-.43-1.09-.74ZM329.01,163.78c.2-.96-.24-1.57-.89-2.24-.58.47-1.13.91-1.68,1.36,1.09,1.2,1.17,1.23,2.57.88ZM329.72,160.02c.62,1.45,1,1.63,2.42,1.17.2-.81-.29-1.35-.78-1.98-.6.3-1.13.55-1.64.8Z"/>
      <path class="cls-3" d="M190.62,151.05c.87.76,1.78,1.5,2.61,2.31.35.35,1.06.81.54,1.37-.54.58-.98-.15-1.39-.46-1.45-1.1-2.9-2.21-4.31-3.35-.34-.27-.56-.68-.91-1.12,1.66-1.23,3.37-.59,4.97-.63-.56-.61-1.12-1.22-1.67-1.82-.24-.27-.68-.55-.29-.9.16-.14.71-.03.97.15.77.52,1.49,1.12,2.23,1.7.85.66,1.72,1.3,2.51,2.02.31.28.54.73.67,1.14.08.25-.02.72-.21.85-.17.13-.59-.02-.88-.12-1.59-.49-3.17-1-4.76-1.49-.03.11-.06.23-.09.34Z"/>
      <path class="cls-3" d="M236.65,200.34c.13.99.28,1.68.29,2.36.05,3.65.03,7.3.09,10.95.03,1.68.21,3.36.28,5.04.03.79-.02,1.59-.06,2.38-.02.52-.27.91-.82.99-1.06.15-2.11.26-3.15.39-.54-1.32-.68-5.43-.64-10.62.03-3.54-.24-7.08-.38-10.82,1.43-.23,2.79-.43,4.39-.68ZM233.59,221.71c1.14-.15,2.05-.27,3.01-.4,0-1.65.02-3.18,0-4.71-.01-.7-.17-1.39-.18-2.09-.04-3.64-.06-7.28-.08-10.93-.01-2.71-.51-3.02-3.31-1.83.19,6.54.38,13.15.57,19.96Z"/>
      <path class="cls-3" d="M306.38,239.98c.9-.04,1.35.4,1.67,1.11.43.97.94,1.89,1.55,3.09.1-1.39.14-2.49.28-3.58.03-.21.4-.52.64-.55.4-.05.69.22.7.69,0,.24.02.47.02.7,0,1.59,0,3.18-.02,4.77,0,.46,0,.92,0,1.34-1.28.27-1.45.23-1.93-.67-.48-.91-.89-1.85-1.34-2.78-.12-.24-.27-.46-.43-.75,0,1.32-.03,2.55,0,3.78.02.75-.28,1.14-1.03,1.18-.81-1.2-.91-6.51-.13-8.32Z"/>
      <path class="cls-3" d="M317.79,246.1c-.34.04-.67.16-.95.08-.31-.09-.72-.29-.83-.55-.17-.41.04-.83.51-1,.87-.32,1.73-.19,2.63.1,0,.59.03,1.13,0,1.68-.09,1.16-1.08,2.22-2.19,2.41-1,.17-2.3-.51-2.76-1.51-.75-1.65-1-3.39-.8-5.2.1-.85.61-1.47,1.38-1.81.51-.22,1.07-.36,1.61-.42,1.6-.18,2.46.7,2.39,2.32-.02.51-.22.78-.73.83-.49.05-.63-.24-.74-.65-.27-1-.49-1.18-1.21-1.12-.73.07-1.13.52-1.14,1.19-.03,1.4-.06,2.81.48,4.14.18.45.34.88.96.82.69-.06,1.15-.44,1.39-1.32Z"/>
      <path class="cls-3" d="M227.53,128.15c.72.6,1.41,1.15,2.08,1.72.25.21.49.43.71.68.33.38.28.76-.06,1.12-.37.39-.73.34-1.1,0-.79-.73-1.57-1.47-2.36-2.2-.26-.24-.54-.47-1.02-.6.19.6.37,1.2.56,1.79.12.36.26.71.35,1.07.13.49-.13.9-.57.96-.27.04-.68-.23-.85-.48-.24-.33-.32-.77-.46-1.17-.53-1.45-1.07-2.89-1.6-4.34-.37-1.03-.26-1.37.76-1.7.78-.25,1.63-.42,2.46-.43,1.6,0,2.37,1.43,1.59,2.84-.13.23-.3.45-.48.72ZM224.48,126.18c.38.53.56,1.03.88,1.16.31.12.79-.11,1.15-.28.15-.07.32-.42.27-.56-.08-.22-.35-.5-.54-.51-.49-.02-.99.1-1.76.19Z"/>
      <path class="cls-3" d="M217.65,131.23c2.29.38,3.01,2.01,1.76,3.78-.39.56-.94,1.04-1.47,1.48-.97.8-1.31.79-2.01-.28-1.15-1.76-2.18-3.59-3.24-5.41-.29-.49-.25-1.06.23-1.39.96-.65,2.05-.99,3.19-.62,1.1.35,1.62,1.21,1.54,2.45ZM217.05,135.51c1.47-.91,1.68-1.3,1.43-2.59-1.04-.38-1.82.07-2.58.81.41.63.78,1.21,1.15,1.78ZM214,130.83c.41.58.77,1.09,1.14,1.61,1-1.02,1.28-1.7.92-2.09-.43-.46-1.01-.35-2.06.48Z"/>
      <path class="cls-3" d="M270.96,125.96c-.73-.09-1.27-.16-1.94-.24-.19.7-.32,1.37-.55,2.01-.09.24-.41.4-.63.6-.16-.25-.34-.49-.47-.76-.05-.11-.01-.28.02-.41.5-2.08,1-4.16,1.5-6.25.04-.18.07-.44.19-.51.29-.18.63-.27.95-.4.11.28.34.59.3.85-.19,1.05-.47,2.08-.74,3.25.54.18,1.05.35,1.73.58.26-.84.51-1.62.75-2.39.11-.35.11-.82.35-1.04.25-.24.71-.31,1.09-.31.1,0,.34.54.29.79-.51,2.32-1.04,4.64-1.62,6.94-.08.3-.42.53-.65.8-.23-.25-.58-.46-.67-.75-.14-.47-.16-.99-.15-1.49,0-.36.14-.71.26-1.24Z"/>
      <path class="cls-3" d="M287.52,243.71c0-.75-.05-1.5.01-2.24.08-.93.46-1.31,1.36-1.53,2.48-.61,4.13.81,3.92,3.38-.04.46-.17.92-.17,1.39-.02,1.81-1.15,2.79-2.61,3.47-1.14.53-2.14-.04-2.3-1.27-.14-1.06-.2-2.13-.3-3.2.03,0,.06,0,.09,0ZM289.22,246.82c1.25-.55,1.9-1.23,1.82-2.45-.03-.46.05-.93.04-1.4-.02-1.48-.52-1.8-2.09-1.29.05,1.64-.09,3.31.23,5.14Z"/>
      <path class="cls-3" d="M325.48,151.65c1.03.7,2.47.05,3.31,1.34-.3.24-.56.47-.85.66-1.94,1.29-3.88,2.56-5.81,3.87-.36.25-.66.36-.98.03-.37-.38-.12-.68.17-.94.94-.84,1.88-1.68,2.82-2.51.27-.23.55-.45.88-.71q-1.46-.55-1.38-2.19c-.45.28-.83.5-1.19.74-1.01.67-1.99,1.38-3.02,2.02-.21.12-.57-.02-.87-.04.1-.28.1-.69.29-.83,1.76-1.3,3.54-2.58,5.36-3.81.75-.51,1.45-.03,1.44.92,0,.5-.11,1-.16,1.45Z"/>
      <path class="cls-3" d="M304.09,132.39c-.02.17,0,.28-.04.36-.91,2.33-1.92,4.6-4.54,5.53-1.54.55-3.09-.45-3.24-2.08-.02-.21.02-.49.14-.66,1.12-1.54,2.18-3.15,3.44-4.58.95-1.08,3.55-.46,4.06.83.08.22.13.44.18.59ZM302.81,132.58c-.98-.77-1.78-.67-2.36-.03-.93,1.04-1.76,2.18-2.56,3.32-.4.57-.06,1.14.65,1.13.38,0,.85-.13,1.13-.38.76-.68,1.5-1.41,2.14-2.2.42-.52.66-1.19,1-1.85Z"/>
      <path class="cls-3" d="M334.19,178.46c-.24-.74-.44-1.36-.64-1.97-.88-.4-2.18.44-2.7-1.05.19-.09.37-.24.57-.26,2.28-.19,4.56-.37,6.84-.51.55-.04,1.13,0,1.66.14.77.2.99,1.05.36,1.49-1.6,1.12-3.25,2.15-4.89,3.21-.5.33-1.04.61-1.54.95-.43.28-.83.52-1.19-.05-.35-.54,0-.85.42-1.14.34-.23.66-.49,1.1-.82ZM337.37,176.35c0-.07.02-.15.03-.23-.85.04-1.69.09-2.72.14.29.55.47.88.66,1.22.24-.11.37-.15.49-.22.52-.3,1.03-.6,1.55-.91Z"/>
      <path class="cls-3" d="M255.07,148.95c-.71.62-1.31,1.27-2.03,1.75-2.49,1.68-4.55,3.69-5.67,6.55-.11.28-.5.51-.81.63-.46.18-.69-.13-.74-.56-.01-.13.04-.28.09-.41,1.03-2.94,2.5-5.62,4.74-7.82.42-.42.95-.76,1.48-1.03,1.26-.66,1.7-.53,2.93.89Z"/>
      <path class="cls-3" d="M176.63,168.34c.12.02.56.02.93.17,1.54.63,3.08,1.3,4.6,1.97.21.09.42.24.55.42.6.91.17,1.82-.15,2.66-.27.71-.95,1.03-1.7.98-2.26-.14-4.21-1.12-6.01-2.41-.85-.61-1.06-1.58-.73-2.5.34-.95.86-1.26,2.51-1.3ZM180.77,173.25c.15-.12.54-.29.7-.59.24-.45.08-.91-.38-1.2-.16-.1-.33-.19-.5-.24-1.46-.45-2.93-.89-4.39-1.35-.41-.12-.82-.1-.92.33-.07.29.05.8.27.95,1.49,1.04,3.1,1.86,5.22,2.1Z"/>
      <path class="cls-3" d="M299.01,246.05c-.64.03-1.17.06-1.69.09-.43-1.08-.38-1.25.5-1.34.73-.07,1.46-.02,2.27-.02.17,1.09.03,2.09-.39,3.03-.16.35-.5.73-.85.85-1.87.67-3.85-.51-4.02-2.45-.11-1.3-.11-2.63.07-3.91.31-2.18,2.57-3.01,4.22-1.65,1.02.85,1,1.87-.05,2.55-.08-.04-.2-.07-.23-.13-.15-.34-.28-.69-.42-1.05-.06-.04-.13-.1-.22-.14-1.48-.7-2.12.05-2.15,1.47-.02.93.05,1.87.2,2.78.09.56.46,1.11,1.11,1.1.69,0,1.38-.2,1.65-1.18Z"/>
      <path class="cls-3" d="M255.8,244.54v-3.93c.68-.28,1.02-.07,1.15.5.06.27.11.55.12.83.05,1.83.09,3.65.14,5.48.02.64-.26.95-.91.9-.83-1.45-1.66-2.88-2.48-4.32-.06.02-.12.03-.18.06,0,1.19,0,2.39,0,3.58,0,.7-.14,1.3-1.09,1.49-.07-.26-.19-.51-.19-.75-.02-2.24-.03-4.49,0-6.73,0-.32.17-.77.42-.91.44-.27.79.07,1,.48.33.62.63,1.25.95,1.87.26.52.53,1.03.79,1.55.1-.03.19-.06.29-.09Z"/>
      <path class="cls-3" d="M227.96,244.78c-.06-.93-.13-1.86-.16-2.79-.03-.83.04-.87,1.29-.96.19,2.47.68,4.92.31,7.53-2.01-.34-2.24-2.2-3.35-3.49,0,.9,0,1.61,0,2.31q0,1.05-1.32,1.14c-.06-.34-.16-.69-.17-1.04-.07-1.68-.12-3.36-.17-5.05,0-.23-.03-.49.06-.69.1-.23.31-.51.52-.55.19-.03.51.17.64.36.58.9,1.11,1.84,1.66,2.76.11.19.28.35.41.53.1-.03.19-.06.28-.08Z"/>
      <path class="cls-3" d="M182.64,187.86c.28-.1.55-.28.84-.3,6.3-.42,12.59-.83,18.91-.41,2.37.16,4.76-.1,7.15-.15.52-.01,1.04.05,1.75.08-.49.74-1.04.71-1.5.73-1.87.1-3.74.22-5.61.23-3.22,0-6.45-.14-9.67-.1-2.61.03-5.22.26-7.83.38-1.17.05-2.33.05-3.5.05-.16,0-.32-.13-.48-.2-.02-.1-.04-.21-.05-.31Z"/>
      <path class="cls-3" d="M260.7,119.43c1.5-.01,2.31,1.18,1.67,2.54-.13.27-.52.42-.78.63-.15-.26-.42-.54-.41-.78.03-.44.16-.9-.41-1.01-.28-.06-.74.02-.87.22-.24.34-.51.89-.39,1.21.18.48.65.88,1.05,1.24.48.43,1.09.74,1.53,1.21.72.75.68,1.63-.06,2.36-.71.71-1.51,1.26-2.61,1.04-1.16-.23-2.15-1.61-1.91-2.72.03-.16.19-.38.32-.41.19-.03.47.02.61.15.19.18.27.49.45.7.2.24.43.56.7.63.31.08.73,0,1-.16.11-.07.04-.66-.13-.86-.36-.42-.81-.77-1.27-1.08-1.24-.86-1.72-1.91-1.35-3.05.36-1.09,1.52-1.84,2.86-1.85Z"/>
      <path class="cls-3" d="M292.04,127.54c-1.74,1.04-2.87,3.58-2.41,5.47.39-.15.76-.33,1.16-.41.19-.04.5.03.6.17.1.15.1.46.01.64-.35.74-1.35,1.14-2.15.89-.35-.11-.71-.25-1.03-.43-.75-.41-1-.88-.79-1.74.51-2.08,1.56-3.89,2.89-5.54.24-.31.67-.5,1.06-.65.97-.38,2.39.07,2.88.86.46.73.14,2.3-.67,2.94-.2.16-.7.24-.86.11-.24-.18-.43-.61-.39-.91.05-.49.43-.98-.3-1.39Z"/>
      <path class="cls-3" d="M241.46,244.54c.18,1.62,1.83,2.6,1.29,4.45-1.88-.92-1.78-3.09-3.3-4.5-.01.76-.04,1.2-.03,1.64.02.56.03,1.13.1,1.68.09.78-.24,1.14-1.01,1.14-.5-.89-.71-5.76-.33-7.83,1.45-.74,2.83-.86,4.09.42.85.87.88,1.34.02,2.27-.25.27-.55.5-.82.74ZM239.28,243.74c.81-.24,1.34-.35,1.82-.57.43-.2.46-.7.05-.84-.47-.16-1.09-.14-1.55.03-.2.07-.18.73-.32,1.38Z"/>
      <path class="cls-3" d="M197.86,139.49c.2.07.55.11.8.29,1.56,1.12,2.98,2.41,4.03,4.04.65,1.02-.29,3.15-1.5,3.3-.49.06-1.13-.16-1.52-.48-1.26-1.03-2.46-2.15-3.66-3.25-.68-.62-1.06-1.41-.59-2.25.49-.86,1.23-1.54,2.44-1.64ZM197.38,141.04c-.71,1.04-.76,1.28-.22,1.76,1.15,1.01,2.34,1.98,3.53,2.96.1.07.25.07.43.12.21-.29.42-.59.66-.91-1.3-1.51-2.29-3.27-4.39-3.93Z"/>
      <path class="cls-3" d="M285.36,244.37c0,.76.05,1.32,0,1.87-.14,1.3-1.35,2.42-2.51,2.37-1-.03-1.72-.61-1.8-1.6-.13-1.49-.24-2.98-.21-4.47.02-.65.33-1.36.69-1.92.47-.73,1.23-.91,2.11-.64.86.26,1.37.72,1.45,1.65.07.98.2,1.95.28,2.74ZM284.14,244.17c-.05-.49-.1-1.23-.21-1.97-.09-.61-.57-.67-1.07-.63-.5.03-.95.19-.94.8.04,1.16.09,2.33.19,3.48.05.56.35,1.02.98.95.61-.07,1.01-.46,1.04-1.12.02-.42,0-.84,0-1.52Z"/>
      <path class="cls-3" d="M249.63,245.07c0,.56.05,1.12,0,1.68-.11.95-.62,1.64-1.52,2.01-.86.36-1.53-.16-2.21-.54-.18-.1-.32-.36-.36-.57-.35-1.73-.78-3.46-.46-5.25.26-1.44,1.46-2.23,2.87-1.96,1,.19,1.25.42,1.42,1.44.16,1.06.26,2.12.4,3.18-.04,0-.08,0-.13.01ZM248.54,244.93s.08-.02.12-.03c-.18-.9-.29-1.82-.56-2.69-.09-.28-.61-.57-.94-.58-.23,0-.64.43-.69.72-.27,1.53-.07,3.06.36,4.53.07.25.66.47,1.01.46.22,0,.53-.46.6-.75.11-.54.08-1.11.1-1.66Z"/>
      <path class="cls-3" d="M313.86,148.27c.44-.26.9-.46,1.28-.76,1.28-1.01,2.54-2.06,3.81-3.09.33-.26.64-.56,1.02-.73.19-.09.61-.02.72.13.11.16.03.52-.07.74-.09.2-.31.34-.5.49-1.62,1.34-3.24,2.68-4.87,4.01-.63.52-1.3.71-2.08.34-1.11-.54-1.55-1.9-.72-2.8,1.39-1.5,2.92-2.88,4.4-4.31.1-.09.22-.21.35-.23.29-.04.59-.02.89-.02-.07.28-.05.65-.23.83-.88.91-1.8,1.76-2.71,2.64-.34.32-.7.63-1.02.96-.46.47-.65,1.01-.26,1.81Z"/>
      <path class="cls-3" d="M206.48,244.56c-.42-.78-.78-1.45-1.26-2.34-.27.54-.55.84-.57,1.16-.06,1.29-.14,2.59-.03,3.88.09.9.58,1.04,1.39.58.35-.2.7-.69,1.07-.22.39.5-.12.86-.45,1.16-1.04.98-2.7.56-3.33-.88-.24-.54-.34-1.17-.38-1.76-.06-1.12-.08-2.24,0-3.35.1-1.39.87-2.08,2.15-2.04,1.15.03,2.16,1.1,2.15,2.33,0,.54.03,1.14-.74,1.48Z"/>
      <path class="cls-3" d="M195.85,245.24c.06-1.22.1-2.43.78-3.52.45-.71,1.02-1.08,1.86-.94.82.13,1.45.58,1.54,1.41.19,1.76.37,3.53.37,5.3,0,1.21-.83,1.83-2.03,1.87-1.27.04-2.13-.57-2.32-1.75-.12-.78-.15-1.58-.21-2.37ZM197.14,245.2h.02c0,.55-.02,1.12,0,1.67.05.89.36,1.2,1.17,1.22.75.02,1.11-.23,1.09-1.1-.02-1.3-.19-2.59-.31-3.88-.06-.62-.54-.91-1.06-.92-.61-.01-.86.52-.9,1.05-.06.64-.02,1.3-.02,1.95Z"/>
      <path class="cls-3" d="M218.69,240.77c.48.4.8.53.86.74.64,2.47,2.12,4.65,2.65,7.18q-1.16.24-1.84-1.25c-.48.06-1,.07-1.49.21-.31.09-.57.37-.82.59-.13.12-.17.39-.31.45-.28.12-.62.25-.88.18-.16-.04-.33-.47-.3-.69.09-.65.24-1.29.43-1.91.52-1.73,1.07-3.46,1.7-5.48ZM218.35,246.04c.72-.06,1.16-.09,1.73-.14-.31-.74-.57-1.36-.95-2.29-.31.97-.51,1.59-.78,2.43Z"/>
      <path class="cls-3" d="M181.09,181.27c-.73.81-1.38,1.06-2.26.82-1.61-.46-3.24-.88-4.87-1.29-.53-.14-1.08-.19-1.65-.29-.2.42-.31.78-.53,1.06-.15.18-.52.38-.68.32-.24-.11-.59-.47-.56-.66.19-1.2.43-2.39.74-3.56.14-.53.37-.53,1.49-.37v1.57c1.39.39,2.78.72,4.14,1.16,1.33.43,2.91.03,4.16,1.24Z"/>
      <path class="cls-3" d="M243.25,128.83c-.66-.45-.63-1.08-.71-1.67-.18-1.34-.36-2.69-.56-4.02-.07-.45-.23-.89-.35-1.32-.86-.16-1.76.25-2.54-.42.39-.6.99-.85,1.59-.98,1.09-.24,2.21-.36,3.32-.54.05,0,.09,0,.14,0,.84.01,1.57.39,1.64.83.07.5-.31.73-1.52.87-.27.03-.54.06-.97.1.11.66.21,1.23.31,1.82.2,1.15.43,2.29.59,3.45.14,1.01.09,1.05-.95,1.91Z"/>
      <path class="cls-3" d="M209.85,249.09c-.29-2.51-.25-4.95-.08-7.5,1.44-.44,2.82-.68,4.37-.19-.63,1.71-1.94.94-3.01,1.12v2.38c.44.47,1.66-.09,1.33,1.23h-1.45v1.82c.72,0,1.36-.07,1.99.03.28.05.72.39.74.63.04.47-.43.5-.82.5-.97,0-1.94,0-3.07,0Z"/>
      <path class="cls-3" d="M231.17,241.03c1.46-.12,2.7-.24,3.94-.3.47-.02,1,.04,1,.69,0,.56-.39.81-.91.85-.78.06-1.57.11-2.45.16-.02.31-.04.58-.04.84,0,.28.04.56.06.89.42.32,1.39.22,1.18,1.05-.11.43-.69.74-1.25,1.3,0,.33.06.94-.03,1.53-.04.24-.38.44-.59.65-.18-.19-.39-.35-.53-.56-.09-.15-.14-.35-.14-.54-.09-2.13-.16-4.27-.25-6.57Z"/>
      <path class="cls-3" d="M183.67,164.67c.66.34,1.27.66,1.89.99.4.21.76.5.53.99-.26.58-.76.43-1.2.21-1.36-.72-2.72-1.47-4.07-2.2-.62-.33-1.23-.68-1.85-.99-.45-.23-.65-.55-.42-1.02.43-.88.87-1.76,1.36-2.61.1-.18.45-.21.69-.3.09.24.3.51.24.71-.21.71-.51,1.39-.85,2.23.55.29,1.1.58,1.68.89.21-.24.38-.4.52-.59.26-.34.55-.73,1.03-.43.4.24.74.57.59,1.15-.08.31-.09.64-.13.98Z"/>
      <path class="cls-3" d="M260.86,241.84h-1.54c-.18-.58-.24-1.12.47-1.18,1.29-.1,2.6-.13,3.89-.09.69.02.77.52.51,1.17-.55.05-1.1.1-1.76.16-.27,2.16.23,4.32.09,6.47-1.2.02-1.3-.02-1.4-.99-.11-1.07-.11-2.14-.16-3.21-.04-.73-.06-1.46-.1-2.33Z"/>
      <path class="cls-3" d="M274.06,248.34c-.07-2.13-.16-4.09-.2-6.05-.02-1.17.17-1.38,1.31-1.72.62,2.03.14,4.17.59,6.29h2.66c.15,1.09.05,1.38-.78,1.45-1.15.09-2.3.02-3.58.02Z"/>
      <path class="cls-3" d="M308.07,144.56c-.7-.21-1.31-.24-1.71-.55-.7-.54-1.31-1.2-1.85-1.9-.15-.19-.02-.77.17-1.01,1.38-1.65,2.79-3.27,4.23-4.87.15-.17.55-.11.84-.16,0,.3.11.69-.04.87-.91,1.13-1.87,2.21-2.82,3.3-.33.38-.68.75-.97,1.08.37,1.31,2.36,1.28,2.14,3.23Z"/>
      <path class="cls-3" d="M251.24,127.28c0-1.69,0-3.45,0-5.22,0-.59.3-1.2-.25-1.71-.05-.05-.07-.18-.05-.27.08-.39.1-.83.31-1.15.09-.14.7-.14.86.02.27.26.59.77.51,1.05-.58,1.92.32,3.77.2,5.66-.03.45,0,.96-.19,1.34-.21.43-.68.62-1.38.28Z"/>
      <path class="cls-3" d="M302.46,248.39c-.04-.98-.07-1.9-.11-2.82-.08-1.57.31-3.15-.18-4.72-.14-.44-.15-1.1.59-1.19.56-.07,1.25.66.99,1.23-.51,1.12.03,2.18-.05,3.26-.08,1.11-.03,2.24-.03,3.36,0,.62-.27.96-1.21.87Z"/>
      <path class="cls-3" d="M232.15,194.99c1.01-.05,2.01-.1,3.02-.15.71-.03,1.16.25,1.24,1,.13,1.2.27,2.39.42,3.69-.34.06-.63.14-.94.16-.83.07-1.67.07-2.49.19-.66.09-.97-.15-1.03-.78-.12-1.29-.26-2.57-.37-3.86,0-.07.09-.16.14-.24ZM233.13,198.93c1.61.18,1.92.14,2.88-.32-.1-.99-.21-1.99-.31-3.03-1.04-.1-1.99-.26-2.9.33.12,1.04.23,2.03.33,3.02Z"/>
      <path class="cls-3" d="M329.23,171.04c-.38-.81-.06-1.2.61-1.46,1.7-.64,3.4-1.31,5.11-1.92.22-.07.7.09.8.28.24.47-.11.78-.53.96-1.29.54-2.59,1.07-3.88,1.6-.39.16-.77.34-1.18.45-.3.08-.62.06-.93.09Z"/>
      <path class="cls-3" d="M185.34,155.37c.42.13.66.16.86.26,1.24.65,2.46,1.31,3.69,1.98.37.2.81.43.59.94-.23.55-.75.53-1.19.31-1.41-.71-2.82-1.44-4.2-2.21-.23-.13-.49-.58-.42-.74.11-.26.49-.41.67-.54Z"/>
      <path class="cls-3" d="M233.97,123.38c.42.57.73.84.86,1.18.45,1.27.85,2.56,1.26,3.84.12.39.07.76-.41.88-.46.13-.85.03-.98-.49-.36-1.4-.72-2.79-1.03-4.2-.06-.26.13-.57.3-1.21Z"/>
      <path class="cls-3" d="M233.87,121.36c.43,0,.88.53.9,1.06.02.52-.4,1.03-.88,1.06-.49.03-1.05-.52-1.09-1.05-.03-.46.56-1.06,1.06-1.06Z"/>
      <path class="cls-3" d="M184.65,154.84c-.46.32-.73.65-1.06.72-.43.09-.85-.11-.86-.66,0-.51.56-1.26.83-1.11.36.2.62.59,1.09,1.06Z"/>
      <path class="cls-3" d="M338.13,166.96c0,.85-.32,1.25-.85,1.28-.49.03-.82-.16-.84-.7-.02-.52.53-1.03,1.13-.98.24.02.45.31.56.4Z"/>
      <path class="cls-5" d="M286.04,180.77c-.71,1.02-1.28,1.92-1.96,2.74-.23.27-.71.41-1.1.46-3.9.52-7.81.8-11.75.81-5.66.01-11.33.19-16.99.28-5.9.09-11.8.17-17.69.21-1.59,0-3.17-.22-4.76-.3-1.59-.09-3.18-.13-4.77-.19-.26-.01-.53-.04-.85-.26.49-.23.95-.54,1.46-.68,1.86-.49,3.4-1.49,4.81-2.77,1.32-1.19,2.83-2.19,3.98-3.51,1.56-1.79,2.86-3.81,4.27-5.73.25-.34.45-.74.76-1,2.5-2.13,4.11-4.96,6-7.57.11-.15.2-.32.32-.47,1.68-2.01,3.35-4.02,5.06-6.01,2.05-2.38,4.49-4.19,7.49-5.26,1.31-.47,2.56-1.16,3.77-1.86,3.07-1.76,6.39-1.76,9.69-1.18,2.05.36,4.02,1.22,6.02,1.87.26.09.53.23.73.41,2.84,2.52,4.89,5.43,4.56,9.47-.07.88-.24,1.75-.37,2.63-.19,1.31-.92,2.24-2.06,2.84-1.26.67-2.62,1.05-4.04,1.05-2.18,0-3.77-1.85-3.41-3.83.13-.74.47-1.3,1.14-1.67.48-.26,1.16-.41,1.08-1.13-.08-.78-.2-1.61-.9-2.13-.33-.24-.73-.48-1.12-.53-1.65-.2-3.29-.17-4.74.79-3.89,2.59-5.41,6.53-3.79,10.85,1.66,4.43,4.72,7.55,9.37,8.98,2.69.83,5.38,1.57,8.18,1.93.5.06.95.43,1.61.74ZM243.72,183.25l.23.22c.62-.38,1.24-.76,2.09-1.29-.61-.36-1-.59-1.54-.9-.3.77-.54,1.37-.78,1.97ZM261.62,160.18c-.16.02-.31.04-.46.07-.03.32-.2.69-.08.94.23.49.69.49,1.34.19-.29-.44-.55-.82-.8-1.2ZM252.48,172.15c.42.35.68.55.93.76.41-.17,1.09-.29.7-.9-.42-.65-.97-.12-1.63.14ZM248.57,168.23c-.17.46-.32.85.28,1.02.65.19.84-.19.9-.76-.39-.09-.78-.17-1.18-.27ZM261.3,166.3c.03-.14.05-.28.08-.42-.37-.5-.78-.67-1.58,0,.64.18,1.07.31,1.49.42ZM267.4,183.27c-.15-.37-.29-.69-.43-1.02-.2.14-.57.28-.58.43-.03.5.28.73,1,.59ZM235.14,183.01c-.33-.52-.69-.66-1.16-.32-.07.05-.1.29-.04.37.34.47.72.48,1.2-.05ZM280.15,164.91c.04-.1.08-.21.11-.31q-.68-.64-1.45-.22c.51.2.92.36,1.33.53ZM282.68,182.37c-.73-.51-.86-.42-1.07.67.4-.25.72-.45,1.07-.67ZM271.86,152.76c-.26-.78-.26-.8-.76-.72-.09.01-.16.19-.33.42.39.11.69.19,1.09.31ZM252.92,167.82q1,.94,1.61.48c-.46-.14-.89-.26-1.61-.48ZM282.28,158.41c.3.16.6.31,1.09.57-.12-.87-.39-1.1-1.09-.57ZM265.22,171.05c-.14.04-.28.09-.41.13.07.27.13.54.2.81.18-.08.37-.16.56-.24-.12-.24-.23-.47-.35-.71ZM240.16,176.7c-.04.17-.08.34-.12.5.31.04.61.09.92.11.02,0,.08-.32.06-.33-.28-.11-.57-.19-.86-.28ZM270.09,150.2c-.19-.27-.28-.52-.43-.55-.15-.03-.35.14-.53.22.1.18.15.44.31.53.1.06.34-.1.65-.2ZM252.8,161.47c-.12.26-.22.47-.39.84.45-.12.71-.19,1.15-.3-.35-.24-.53-.37-.76-.54ZM277.55,152.1q-.62-.38-1.21.28c.51-.12.79-.18,1.21-.28ZM255.6,178.99c-.45-.26-.75-.44-1.18-.69.07.89.41.97,1.18.69ZM258.27,154.51c.52-.09.86-.16,1.47-.27-.69-.5-1.07-.8-1.47.27ZM265.16,153.24q-.81.31-.55,1.04c.16-.3.3-.56.55-1.04ZM266.23,178.99c-.03.09-.07.18-.11.28.21.1.43.2.65.28.01,0,.1-.22.16-.34-.23-.07-.46-.14-.69-.21ZM248.05,177.35c-.71-.31-1.04-.28-1.04.35,0,.07.07.14.17.3.24-.18.47-.36.87-.65ZM253.78,180.79c-.35-.56-.67-.63-1.11.05.49-.02.8-.04,1.11-.05ZM276.16,181.38c-.16-.23-.24-.47-.34-.48-.18-.02-.38.1-.57.15.11.16.19.38.35.47.09.05.29-.07.56-.15ZM253.21,182.49c0,.08-.02.16-.02.24.21.04.42.07.63.09.01,0,.04-.22.06-.34h-.67ZM238.92,183.26c0-.71-.27-.83-.76-.6-.06.03-.07.15-.15.31.29.09.56.18.91.29ZM274.29,155.4c-.09-.62-.36-.74-1.09-.37.54.18.81.27,1.09.37ZM266.88,155.91c.01-.11.03-.23.05-.34-.3-.22-.6-.62-.98.19.35.06.64.11.94.15ZM261.52,157.06c-.45-.07-.66-.13-.87-.12-.15,0-.31.09-.58.18.53.63.86.16,1.45-.06ZM264.46,159.09c.32.08.61.45.89-.07.04-.08-.01-.31-.09-.35-.39-.24-.68-.16-.8.42ZM257.58,158.56c-.07.08-.15.16-.23.24.12.47.3.84,1.08.55-.34-.32-.6-.56-.85-.79ZM282.11,161.17c-.04.12-.08.25-.12.38.29.09.58.18.88.28.04-.12.08-.25.12-.37-.29-.1-.59-.19-.88-.29ZM264.71,176.69c-.17-.16-.28-.31-.42-.37-.08-.03-.22.07-.33.1.11.16.2.33.33.46.03.03.21-.1.41-.2ZM270.32,155.18c.33-.26.57-.45.81-.65-.38,0-1.13-.45-.81.65ZM278,161.96c0,.11-.02.22-.02.33h.8c0-.09,0-.17,0-.26-.26-.02-.52-.04-.78-.06ZM272.74,179.25c.09.07.17.14.26.2.15-.18.31-.35.44-.54.01-.02-.17-.16-.26-.25-.15.2-.29.39-.44.59ZM261.21,176.24c.01.1.02.21.03.32h1.08c-.39-.28-.52-.42-.66-.45-.14-.02-.3.08-.45.13ZM263.25,179.36c.04.12.07.24.11.35.38.15.69.14.86-.6-.42.11-.69.18-.97.25ZM245.39,170.52c.1.1.2.2.3.31.19-.22.38-.44.68-.78-.92-.3-1.02.02-.98.48ZM257.41,179.42c.3.66.59.67,1.22.21-.53-.09-.8-.13-1.22-.21ZM267.3,150.55c-.04-.11-.08-.23-.12-.34-.21.09-.43.17-.63.29-.02,0,.08.22.13.34.21-.09.42-.19.63-.28ZM280.41,158.22c-.3-.16-.52-.27-.87-.46.06.4.09.64.14,1.01.3-.22.47-.35.73-.55ZM280.58,180.36c-.23-.17-.35-.33-.48-.34-.14-.01-.29.11-.44.17.12.15.21.36.37.44.08.04.28-.13.55-.28ZM280.37,152.19c-.11.07-.21.13-.31.2-.07.14-.13.28-.2.41.18.09.36.19.55.24.03,0,.19-.19.18-.26-.04-.2-.14-.4-.22-.59ZM264.02,167.33c-.03.1-.06.21-.1.32.25.05.49.1.75.15.02-.08.04-.16.06-.24-.24-.08-.47-.15-.71-.23ZM277.97,180.99q.45.36,1.34.2c-.63-.1-.95-.14-1.34-.2ZM260.27,169.68c-.04.09-.08.19-.12.28.21.06.43.12.64.18.02-.06.05-.12.07-.18-.2-.09-.39-.19-.59-.29ZM267.39,176.68c.15-.16.23-.25.31-.33-.12-.09-.23-.22-.36-.25-.06-.02-.25.18-.24.21.05.13.17.22.29.37ZM281.14,163.37c-.05.08-.11.16-.16.24.19.12.38.25.58.37.05-.07.1-.14.14-.21-.18-.13-.37-.27-.56-.4ZM249.84,164.23c-.04-.11-.08-.22-.12-.33-.2.09-.4.18-.6.28.06.11.15.31.19.3.19-.05.36-.16.53-.24ZM238.73,179.69c.02.11.04.22.06.33.2-.03.4-.05.59-.1.02,0-.02-.23-.04-.35-.2.04-.4.08-.61.12ZM265.52,184.28c.12-.16.27-.3.25-.32-.09-.12-.21-.23-.35-.29-.04-.02-.24.18-.23.2.07.14.18.24.33.41ZM281.77,159.78c-.23-.13-.35-.25-.49-.26-.09-.01-.19.12-.29.19.12.1.22.24.36.29.06.03.19-.1.42-.22Z"/>
      <path class="cls-3" d="M248.82,204.49c-.14.62-.39,1.24-.4,1.86-.06,2.81-.1,5.61-.06,8.41.03,2.14.21,4.28.32,6.58-1.05.07-1.95.14-3.03.21,0-.63,0-1.08,0-1.53.03-2.81.07-5.61.07-8.42,0-.74-.1-1.5-.27-2.22-.7-3.12-.9-6.29-.93-9.48,0-1.06.16-2.13.25-3.23,1.18-.18,2.32-.35,3.57-.55,2.75,4.33,4.81,9.11,7.45,13.75,1.22-4.59,1.85-9.1,1.56-13.73,1.11.07,2.07.13,3.18.21.08.48.26.97.23,1.45-.08,1.4-.08,2.83-.41,4.18-.81,3.3-.64,6.58-.25,9.89.27,2.28.47,4.56.68,6.84.04.41,0,.83,0,1.3-.9.26-1.74.49-2.59.73-3.07-5.48-6.69-10.53-8.99-16.31-.13.01-.26.03-.38.04Z"/>
      <path class="cls-3" d="M178.29,197.62h2.92c.11,1.66.3,3.24.31,4.82,0,2.24-.14,4.48-.18,6.73-.04,2.81-.09,5.61-.03,8.42.07,3.42-2.11,5.51-5.54,5.15-.97-.11-1.95-.29-2.87-.62-2.2-.79-3.35-2.48-3.39-4.82-.02-1.17.06-2.34,0-3.51-.13-2.99-.32-5.97-.47-8.96-.1-2.1-.17-4.21-.25-6.28q1.09-.6,3.13-.56c.06.9.05,1.82.21,2.72.55,3.2.53,6.42.55,9.65.02,2.01.08,4.02.21,6.03.12,1.9.95,2.85,2.48,3.08,1.39.21,2.54-.49,2.85-1.88.18-.81.28-1.68.2-2.5-.36-3.68-.56-7.37-.43-11.07.08-2.09.19-4.18.3-6.4Z"/>
      <path class="cls-3" d="M358.91,207.89c.03.83.07,1.52.1,2.27-.84.12-1.66.23-2.48.35-.83.13-1.66.26-2.61.41-.32,1.82-.87,3.59-.6,5.56,3.47-.1,6.86-.37,10.28.49-.11.88-.2,1.65-.31,2.55-4.41.24-8.81.47-13.26.71-1.48-8.18-.89-16.27-.21-24.51,1.28-.25,2.59-.66,3.91-.74,3.12-.19,6.25-.26,9.39-.31,1.13-.02,1.3.2,1.41,1.29.07.69.09,1.38.14,2.21-2.14.1-4.18.22-6.22.29-1.17.05-2.34.03-3.51.05-.6,0-.96.27-.96.93-.01.47-.1.93-.13,1.4-.1,1.44-.19,2.89-.26,4.33-.03.51-.04,1.03,0,1.54.05.53.36.78.95.81,1.44.07,2.87.23,4.39.36Z"/>
      <path class="cls-3" d="M330.94,221.67c-1.06-1.85-1.59-3.83-2.14-5.8-.33-1.17-.6-2.36-1.01-3.5-.46-1.27-1.1-2.47-1.59-3.72-.67-1.69-1.38-3.38-1.88-5.12-.67-2.33-1.15-4.71-1.71-7.07-.04-.17,0-.36,0-.66,1.3-.3,2.6-.6,4.06-.93.58,2.35,1.7,4.38,1.92,6.69.27,2.71.8,5.37,1.68,7.95.21.61.46,1.23.77,1.79.16.3.48.5.73.75.22-.27.54-.5.65-.8.37-1.06.69-2.14.98-3.22.52-1.94.94-3.92,1.54-5.83.71-2.27,1.54-4.51,2.38-6.74.11-.29.46-.63.75-.67.91-.15,1.84-.17,2.89-.24-.05.37-.03.61-.12.79-2.87,6-4.51,12.37-5.75,18.86-.38,2.01-1,3.99-1.49,5.99-.15.6-.42,1-1.09,1.09-.5.07-.98.24-1.53.39Z"/>
      <path class="cls-3" d="M291.2,204.29c-1.03.19-1.8.33-2.66.49-.15-.96-.32-1.82-.43-2.69-.36-2.86-3.18-4.44-5.8-3.23-2.33,1.07-2.71,1.8-2.48,4.38.33,3.82.62,7.64.93,11.47.01.14.01.28.03.42.21,2.2,1.29,3.03,3.49,2.78,1.39-.16,2.42-.92,3.33-1.92,1.1.17,1.86.9,2.63,1.55.6.5.56,1.68-.06,2.27-.47.44-1.02.87-1.61,1.09-2.16.83-4.37.96-6.59.19-.44-.16-.87-.36-1.32-.48-1.75-.45-2.7-1.7-3.11-3.31-.35-1.35-.52-2.76-.6-4.15-.2-3.36-.27-6.73-.45-10.1-.14-2.52.85-4.55,2.55-6.3,1.11-1.14,2.48-1.65,4.07-1.53,1.49.12,2.98.31,4.47.42.96.07,1.56.58,1.94,1.4.25.55.46,1.12.63,1.7.3,1.03.61,2.06.82,3.11.15.76.16,1.55.24,2.42Z"/>
      <path class="cls-3" d="M147.87,223.35c-.13-2.69-.33-5.12-.34-7.54,0-3.31.18-6.62-.33-9.94-.31-2.01-.28-4.08-.38-6.13-.06-1.38.23-1.65,1.6-1.67,1.45-.02,2.9-.17,4.35-.1,1.48.07,2.96.34,4.44.52.87.1,1.4.66,1.89,1.32,1.04,1.42,1.66,3.03,1.92,4.76.57,3.66.77,7.35.55,11.05-.04.63-.23,1.29-.47,1.88-.65,1.6-1.55,3.08-2.7,4.37-.26.3-.66.53-1.03.68-.52.21-1.07.38-1.62.46-2.54.32-5.1.28-7.88.34ZM149.69,201.42c.84,6.18.38,12.4,1.36,18.57,1.46-.12,2.77-.19,4.06-.34,1.19-.14,1.91-.75,2.15-2.02.69-3.73,1.26-7.46.75-11.26-.16-1.19-.24-2.39-1.09-3.4-1.65-1.96-3.98-2.87-7.23-1.54Z"/>
      <path class="cls-3" d="M219.13,209.82v2.14c-1.16.21-2.25.43-3.35.61-1.01.16-1.1.24-1.06,1.23.12,2.7.23,5.4.35,8.21-.81.22-1.7.47-2.69.73-.33-1.87-.45-3.63-.28-5.39.27-2.77.02-5.51-.13-8.26-.16-2.84-.13-5.69-.16-8.54,0-.87.09-1.75.13-2.62,4.31-.19,8.49-.37,12.86-.56.16.73.31,1.42.5,2.29-3.39.44-6.62.86-9.99,1.3-.05.2-.18.55-.19.89-.03,1.97-.06,3.93-.01,5.9.05,1.53.5,1.96,2.05,2.08.6.04,1.21,0,1.97,0Z"/>
      <path class="cls-3" d="M197.82,210.38c-.12.83-.22,1.56-.36,2.5-1.07.13-2.21.26-3.52.42-.03.4-.08.84-.08,1.28,0,2.15.05,4.3.04,6.45,0,1.11-.2,1.26-1.31,1.38-.5.05-1.01.06-1.5.09-.54-2.29-1.23-22.34-.84-24.54,4.24-.46,8.52-.15,12.9-.25v2.34c-1.65.51-3.28.52-4.9.64-1.57.11-3.14.26-4.84.4,0,.71,0,1.3,0,1.89,0,1.54.05,3.08.02,4.61-.02,1.32.1,1.54,1.36,1.86.86.22,1.72.42,2.58.65.12.03.23.14.44.27Z"/>
      <path class="cls-3" d="M313.97,208.35c-.09,2.52-.21,5.04-.26,7.57-.06,3.1-2.1,4.57-5.22,4.99-1.85.25-3.82-.14-5.69-.49-1.51-.29-2.33-1.58-2.56-3.03-.27-1.7-.33-3.44-.43-5.16-.14-2.43-.3-4.85-.32-7.28-.02-2.65-.12-5.33,1.16-7.82.72-1.4,1.61-2.52,3.25-2.81,1.05-.18,2.11-.43,3.17-.48,3.05-.13,6.03,2.48,6.56,5.29.43,2.32.39,4.65.35,6.99-.01.74-.09,1.49-.13,2.24.04,0,.08,0,.12,0ZM309.85,208.07c0-2.7.04-4.62-.02-6.54-.02-.87-.09-1.8-.4-2.6-.74-1.89-3.12-2.55-4.66-1.3-.98.79-1.81,1.72-2.14,3.04-.55,2.15-.81,4.31-.62,6.52.26,2.98.53,5.96.72,8.94.06.98.5,1.51,1.36,1.9,1.84.83,5.41-.09,5.76-3.19.09-.74.16-1.49.14-2.24-.03-1.77-.11-3.55-.14-4.53Z"/>
      <path class="cls-1" d="M329.01,163.78c-1.4.34-1.48.32-2.57-.88.56-.45,1.1-.89,1.68-1.36.65.67,1.09,1.28.89,2.24Z"/>
      <path class="cls-1" d="M329.72,160.02c.51-.25,1.04-.51,1.64-.8.49.63.98,1.16.78,1.98-1.42.45-1.8.28-2.42-1.17Z"/>
      <path class="cls-3" d="M233.59,221.71c-.19-6.81-.38-13.41-.57-19.96,2.8-1.19,3.3-.88,3.31,1.83.02,3.64.04,7.28.08,10.93,0,.7.17,1.39.18,2.09.03,1.53,0,3.07,0,4.71-.95.13-1.87.25-3.01.4Z"/>
      <path class="cls-1" d="M224.48,126.18c.77-.1,1.26-.22,1.76-.19.2.01.46.29.54.51.06.14-.12.49-.27.56-.36.17-.85.39-1.15.28-.33-.12-.5-.63-.88-1.16Z"/>
      <path class="cls-1" d="M217.05,135.51c-.37-.57-.74-1.15-1.15-1.78.76-.74,1.53-1.19,2.58-.81.25,1.29.04,1.69-1.43,2.59Z"/>
      <path class="cls-1" d="M214,130.83c1.04-.83,1.63-.94,2.06-.48.36.4.09,1.07-.92,2.09-.37-.52-.73-1.03-1.14-1.61Z"/>
      <path class="cls-1" d="M289.22,246.82c-.31-1.83-.18-3.49-.23-5.14,1.57-.51,2.07-.19,2.09,1.29,0,.47-.07.94-.04,1.4.07,1.21-.57,1.89-1.82,2.45Z"/>
      <path class="cls-1" d="M302.81,132.58c-.34.66-.58,1.32-1,1.85-.64.8-1.38,1.52-2.14,2.2-.28.24-.75.38-1.13.38-.71,0-1.04-.56-.65-1.13.8-1.15,1.63-2.28,2.56-3.32.58-.65,1.37-.74,2.36.03Z"/>
      <path class="cls-1" d="M337.37,176.35c-.52.3-1.03.61-1.55.91-.12.07-.25.11-.49.22-.18-.34-.36-.67-.66-1.22,1.03-.05,1.88-.1,2.72-.14-.01.08-.02.15-.03.23Z"/>
      <path class="cls-1" d="M180.77,173.25c-2.11-.24-3.72-1.06-5.22-2.1-.22-.15-.34-.66-.27-.95.1-.43.51-.45.92-.33,1.46.46,2.93.89,4.39,1.35.17.05.34.15.5.24.47.29.63.74.38,1.2-.16.3-.55.47-.7.59Z"/>
      <path class="cls-1" d="M239.28,243.74c.14-.65.12-1.31.32-1.38.47-.17,1.08-.19,1.55-.03.42.14.38.64-.05.84-.48.23-1.01.33-1.82.57Z"/>
      <path class="cls-1" d="M197.38,141.04c2.11.66,3.09,2.42,4.39,3.93-.24.33-.45.62-.66.91-.18-.05-.33-.05-.43-.12-1.18-.98-2.37-1.95-3.53-2.96-.54-.48-.48-.72.22-1.76Z"/>
      <path class="cls-1" d="M284.14,244.17c0,.68.02,1.1,0,1.52-.03.66-.42,1.05-1.04,1.12-.63.07-.94-.4-.98-.95-.1-1.16-.15-2.32-.19-3.48-.02-.61.43-.76.94-.8.49-.03.98.03,1.07.63.11.74.16,1.48.21,1.97Z"/>
      <path class="cls-1" d="M248.54,244.93c-.03.56.01,1.12-.1,1.66-.06.29-.38.74-.6.75-.34.01-.94-.21-1.01-.46-.44-1.47-.63-3-.36-4.53.05-.29.46-.72.69-.72.33,0,.85.3.94.58.28.87.38,1.78.56,2.69-.04,0-.08.02-.12.03Z"/>
      <path class="cls-1" d="M197.14,245.2c0-.65-.04-1.31.02-1.95.04-.53.29-1.07.9-1.05.51.01.99.31,1.06.92.12,1.29.29,2.58.31,3.88.02.86-.34,1.12-1.09,1.1-.8-.03-1.12-.34-1.17-1.22-.03-.55,0-1.12,0-1.67h-.02Z"/>
      <path class="cls-1" d="M218.35,246.04c.27-.84.47-1.45.78-2.43.38.93.64,1.54.95,2.29-.57.05-1.01.08-1.73.14Z"/>
      <path class="cls-3" d="M233.13,198.93c-.1-.98-.21-1.98-.33-3.02.91-.6,1.86-.44,2.9-.33.11,1.05.21,2.05.31,3.03-.97.46-1.28.5-2.88.32Z"/>
      <path class="cls-1" d="M243.72,183.25c.24-.6.48-1.2.78-1.97.54.31.93.55,1.54.9-.85.52-1.47.9-2.09,1.29l-.23-.22Z"/>
      <path class="cls-1" d="M261.62,160.18c.25.38.5.76.8,1.2-.65.31-1.11.31-1.34-.19-.12-.25.05-.63.08-.94.15-.02.31-.05.46-.07Z"/>
      <path class="cls-1" d="M252.48,172.15c.66-.26,1.21-.79,1.63-.14.39.6-.28.73-.7.9-.26-.21-.51-.41-.93-.76Z"/>
      <path class="cls-1" d="M248.57,168.23c.4.09.8.18,1.18.27-.06.56-.25.95-.9.76-.6-.17-.45-.57-.28-1.02Z"/>
      <path class="cls-1" d="M261.3,166.3c-.43-.12-.85-.24-1.49-.42.79-.67,1.21-.5,1.58,0-.03.14-.05.28-.08.42Z"/>
      <path class="cls-1" d="M267.4,183.27c-.72.14-1.04-.09-1-.59,0-.15.38-.29.58-.43.14.33.27.65.43,1.02Z"/>
      <path class="cls-1" d="M235.14,183.01c-.48.53-.86.52-1.2.05-.06-.08-.03-.31.04-.37.47-.34.83-.2,1.16.32Z"/>
      <path class="cls-1" d="M280.15,164.91c-.41-.16-.82-.33-1.33-.53q.77-.42,1.45.22c-.04.1-.08.21-.11.31Z"/>
      <path class="cls-1" d="M282.68,182.37c-.35.22-.67.42-1.07.67.21-1.1.34-1.18,1.07-.67Z"/>
      <path class="cls-1" d="M271.86,152.76c-.4-.11-.7-.19-1.09-.31.17-.23.24-.4.33-.42.5-.08.5-.06.76.72Z"/>
      <path class="cls-1" d="M252.92,167.82c.73.22,1.15.34,1.61.48q-.61.46-1.61-.48Z"/>
      <path class="cls-1" d="M282.28,158.41c.7-.54.97-.3,1.09.57-.49-.25-.79-.41-1.09-.57Z"/>
      <path class="cls-1" d="M265.22,171.05c.12.23.24.47.35.71-.19.08-.37.16-.56.24-.07-.27-.14-.54-.2-.81.13-.05.27-.09.41-.13Z"/>
      <path class="cls-1" d="M240.16,176.7c.29.09.58.17.86.28.02.01-.05.33-.06.33-.31-.02-.61-.07-.92-.11.04-.17.09-.34.12-.5Z"/>
      <path class="cls-1" d="M270.09,150.2c-.31.11-.55.26-.65.2-.15-.1-.21-.35-.31-.53.18-.08.38-.26.53-.22.15.03.23.29.43.55Z"/>
      <path class="cls-1" d="M252.8,161.47c.23.17.41.29.76.54-.44.11-.7.19-1.15.3.17-.37.26-.58.39-.84Z"/>
      <path class="cls-1" d="M277.55,152.1c-.42.1-.7.16-1.21.28q.58-.66,1.21-.28Z"/>
      <path class="cls-1" d="M255.6,178.99c-.77.28-1.11.2-1.18-.69.43.25.72.43,1.18.69Z"/>
      <path class="cls-1" d="M258.27,154.51c.41-1.07.78-.77,1.47-.27-.62.11-.95.18-1.47.27Z"/>
      <path class="cls-1" d="M265.16,153.24c-.25.47-.39.74-.55,1.04q-.27-.73.55-1.04Z"/>
      <path class="cls-1" d="M266.23,178.99c.23.07.46.14.69.21-.06.12-.15.34-.16.34-.22-.08-.43-.18-.65-.28.04-.09.08-.18.11-.28Z"/>
      <path class="cls-1" d="M248.05,177.35c-.4.29-.63.47-.87.65-.09-.16-.17-.23-.17-.3,0-.63.33-.66,1.04-.35Z"/>
      <path class="cls-1" d="M253.78,180.79c-.31.01-.62.03-1.11.05.45-.67.76-.61,1.11-.05Z"/>
      <path class="cls-1" d="M276.16,181.38c-.27.08-.47.2-.56.15-.15-.1-.24-.31-.35-.47.19-.06.39-.17.57-.15.1.01.18.24.34.48Z"/>
      <path class="cls-1" d="M253.21,182.49h.67c-.02.12-.05.34-.06.34-.21-.02-.42-.05-.63-.09,0-.08.01-.16.02-.24Z"/>
      <path class="cls-1" d="M238.92,183.26c-.35-.11-.63-.2-.91-.29.07-.16.09-.28.15-.31.49-.23.77-.11.76.6Z"/>
      <path class="cls-1" d="M274.29,155.4c-.28-.09-.55-.19-1.09-.37.73-.37,1-.25,1.09.37Z"/>
      <path class="cls-1" d="M266.88,155.91c-.29-.04-.58-.09-.94-.15.39-.81.68-.41.98-.19-.02.11-.03.23-.05.34Z"/>
      <path class="cls-1" d="M261.52,157.06c-.59.22-.92.68-1.45.06.27-.09.42-.18.58-.18.21,0,.43.05.87.12Z"/>
      <path class="cls-1" d="M264.46,159.09c.12-.58.41-.66.8-.42.08.05.14.27.09.35-.28.52-.57.14-.89.07Z"/>
      <path class="cls-1" d="M257.58,158.56c.26.24.51.47.85.79-.78.3-.96-.08-1.08-.55.07-.08.15-.16.23-.24Z"/>
      <path class="cls-1" d="M282.11,161.17c.29.1.59.19.88.29-.04.12-.08.25-.12.37-.29-.1-.59-.19-.88-.28.03-.13.08-.25.12-.38Z"/>
      <path class="cls-1" d="M264.71,176.69c-.21.1-.38.23-.41.2-.13-.13-.23-.31-.33-.46.11-.04.25-.14.33-.1.14.06.25.21.42.37Z"/>
      <path class="cls-1" d="M270.32,155.18c-.33-1.09.42-.64.81-.65-.24.19-.48.38-.81.65Z"/>
      <path class="cls-1" d="M278,161.96c.26.02.52.04.78.06,0,.09,0,.18,0,.26h-.8c0-.11.02-.22.02-.33Z"/>
      <path class="cls-1" d="M272.74,179.25c.15-.2.29-.39.44-.59.09.09.28.23.26.25-.13.19-.29.37-.44.54-.09-.07-.17-.14-.26-.2Z"/>
      <path class="cls-1" d="M261.21,176.24c.15-.05.31-.15.45-.13.14.02.27.17.66.45h-1.08c0-.11-.02-.21-.03-.32Z"/>
      <path class="cls-1" d="M263.25,179.36c.28-.07.55-.14.97-.25-.17.74-.48.75-.86.6-.03-.11-.07-.23-.11-.35Z"/>
      <path class="cls-1" d="M245.39,170.52c-.03-.46.07-.78.98-.48-.3.34-.49.57-.68.78-.1-.1-.2-.21-.3-.31Z"/>
      <path class="cls-1" d="M257.41,179.42c.42.07.69.12,1.22.21-.63.46-.92.46-1.22-.21Z"/>
      <path class="cls-1" d="M267.3,150.55c-.21.09-.42.19-.63.28-.04-.12-.14-.33-.13-.34.2-.11.42-.19.63-.29.04.11.09.23.12.34Z"/>
      <path class="cls-1" d="M280.41,158.22c-.26.2-.43.33-.73.55-.05-.38-.09-.61-.14-1.01.36.19.57.3.87.46Z"/>
      <path class="cls-1" d="M280.58,180.36c-.27.14-.46.32-.55.28-.16-.08-.25-.29-.37-.44.15-.06.3-.19.44-.17.13,0,.25.17.48.34Z"/>
      <path class="cls-1" d="M280.37,152.19c.08.2.18.39.22.59.01.08-.14.27-.18.26-.19-.05-.37-.16-.55-.24.07-.14.13-.28.2-.41.1-.07.21-.14.31-.2Z"/>
      <path class="cls-1" d="M264.02,167.33c.24.08.48.15.71.23-.02.08-.04.16-.06.24-.25-.05-.5-.1-.75-.15.03-.11.07-.21.1-.32Z"/>
      <path class="cls-1" d="M277.97,180.99c.39.06.71.11,1.34.2q-.89.15-1.34-.2Z"/>
      <path class="cls-1" d="M260.27,169.68c.2.09.39.19.59.29-.02.06-.05.12-.07.18-.21-.06-.43-.12-.64-.18.04-.09.08-.19.12-.28Z"/>
      <path class="cls-1" d="M267.39,176.68c-.13-.15-.24-.24-.29-.37-.02-.03.18-.23.24-.21.14.03.24.16.36.25-.08.09-.16.17-.31.33Z"/>
      <path class="cls-1" d="M281.14,163.37c.19.13.37.27.56.4-.05.07-.1.14-.14.21-.19-.12-.38-.25-.58-.37.06-.08.11-.16.16-.24Z"/>
      <path class="cls-1" d="M249.84,164.23c-.17.09-.35.19-.53.24-.03.01-.12-.19-.19-.3.2-.09.4-.19.6-.28.04.11.08.22.12.33Z"/>
      <path class="cls-1" d="M238.73,179.69c.21-.04.41-.08.61-.12.02.12.06.35.04.35-.19.05-.39.07-.59.1-.02-.11-.04-.22-.06-.33Z"/>
      <path class="cls-1" d="M265.52,184.28c-.14-.17-.26-.28-.33-.41-.01-.02.19-.22.23-.2.14.06.25.17.35.29.02.02-.12.16-.25.32Z"/>
      <path class="cls-1" d="M281.77,159.78c-.23.13-.35.25-.42.22-.14-.06-.24-.19-.36-.29.1-.07.2-.21.29-.19.14.02.26.13.49.26Z"/>
      <path class="cls-3" d="M149.69,201.42c3.25-1.32,5.59-.42,7.23,1.54.85,1.01.93,2.22,1.09,3.4.5,3.8-.07,7.54-.75,11.26-.24,1.27-.96,1.88-2.15,2.02-1.29.15-2.6.22-4.06.34-.98-6.17-.52-12.39-1.36-18.57ZM151.62,219.02c1.17,0,2.16.06,3.13-.02,1.29-.1,1.62-.4,1.84-1.69.33-1.89.76-3.78.83-5.68.08-2.14-.14-4.29-.36-6.43-.07-.65-.42-1.42-.9-1.84-1.63-1.41-3.48-2.13-5.65-1.23.37,5.61.73,11.19,1.1,16.88Z"/>
      <path class="cls-3" d="M309.85,208.07c.03.98.12,2.76.14,4.53.01.75-.06,1.49-.14,2.24-.35,3.1-3.92,4.02-5.76,3.19-.86-.39-1.3-.92-1.36-1.9-.19-2.98-.47-5.96-.72-8.94-.19-2.22.07-4.38.62-6.52.33-1.32,1.16-2.25,2.14-3.04,1.54-1.25,3.92-.59,4.66,1.3.32.8.38,1.72.4,2.6.06,1.92.02,3.83.02,6.54ZM302.61,207c.3,3.07.61,6.14.88,9.21.06.66.38.99.96,1.22,2.05.8,4.47-.59,4.74-2.76.07-.56.15-1.12.15-1.68-.04-4.02-.49-8.02-.21-12.04.05-.66-.18-1.4-.49-2.01-.58-1.17-2.08-1.69-3.1-1-.98.65-1.95,1.38-2.3,2.67-.57,2.1-.79,4.22-.64,6.39Z"/>
    </g>
  </g>
  <text class="cls-6" transform="translate(61.87 212.29)"><tspan x="0" y="0">1</tspan></text>
</svg>