<?xml version="1.0" encoding="UTF-8"?>
<svg id="Layer_1" xmlns="http://www.w3.org/2000/svg" viewBox="0 0 400 400">
  <defs>
    <style>
      .cls-1, .cls-2, .cls-3, .cls-4 {
        fill-rule: evenodd;
      }

      .cls-1, .cls-5 {
        fill: #fff;
      }

      .cls-2 {
        fill: #ee2424;
      }

      .cls-5 {
        font-family: AmericanTypewriter-CondensedBold, 'American Typewriter';
        font-size: 44px;
        font-weight: 700;
      }

      .cls-4 {
        fill: #1bb24b;
      }
    </style>
  </defs>
  <g>
    <g>
      <polygon class="cls-4" points="57.51 145.64 5.15 222.29 7.76 225.59 107.65 222.13 71.77 156.21 61.09 143.74 57.51 145.64"/>
      <path class="cls-3" d="M89.57,183c3.51.51,2.58,5.9,6.25,6.23.1,3.85,2.07,5.65,4.51,6.91-.28,4.06,2.02,5.28,4.46,6.32.28.99-.4,1.13-1.12,1.24.83.82,2.79,1.35,1.33,2.9.46-.34.95-.66,1.75-.68.27,1.19-.03,1.86-1.1,1.84,1.18,1.5,4.6,4.74,2.67,5.81.6,1.01,1.93,1.22,3.61,1.01.33,4.85,3,7.12,2.99,12.33-.57-.34-2.24-1.27-1.74.68-1.07-1.12-4.14-.02-4.28-2.17-1.31,2.35-4.07-1.55-7.05,1.54-1.8.31-1.33-1.87-1.94-2.88-1.7.59.85,1.46.15,2.97-.46-.39-2-2.42-1.77.08-8.28-.57-20.59-.62-27.92.19-.03-.58-.07-1.18-.09-1.77-2.68,1.57-5.81,1.88-8.31.4-1.61,2.32-12.63,2.39-16.01.81-6.52,3.75-21.02.21-24.17,4.16-5.11-2.87-13.92.37-20.31-1.97-.61-1.86.39-2.28,1.04-3.03-2.39-.09-1-.46-1.38-4.1,2.76-.89,3.9-3.25,3.84-6.72,2.74.43,1.19-3.06,4.02-2.59-.51-1.79-.47-1.11-.15-2.96,4.03.46,1.59-4.98,5.09-5-.41-.58-1.39-.54-1.27-1.73,2.38.66,1.11-2,3.5-1.36-.05-.98-.1-1.98-.15-2.96.51-.48,1.31-.7,2.34-.7,3.48-8.95,9.99-15.13,13.69-23.87,2.05-.03,2.69-1.33,2.19-3.67,1.74.07,1.75-1.44,3.51-1.36,1.44-7.95,9.01-10.36,10.39-18.36,6.51-1.46,4.95-10.23,11.3-11.85-.41-.58-1.39-.55-1.28-1.72,1.96-.12,2.9-1.16,5.32-.86,2.66,1.89-.7,3.07,3.1,2.82-2.45,2.68.76,10.53,3.43,9.33.89.15.16,4.49,3.17,4.01-.32,1.84.73,2.14.78,3.53,7.64,6.37,9.1,19.56,16.74,25.92.26,1-.41,1.14-1.13,1.25ZM54.92,155.59c-1.87.82-.53-1.9-2.43-1.07-.9.3-.4,1.9-2.29,1.31-.73,3.12-1.47,6.22-4.4,7.36-.71,3.28,1.67,3.15,2.61,4.62-4.12,3.02-4.14,12.7-11.43,9.48.67,1.77,2.84,1.85,3.17,4-1.56.82-2.72,1.12-3.5,1.36,2.53,2.06-.66,1.55-1.64,3.06-2.53,3.93-3.9,10.12-8.35,11.11-.16,2.88-1.21,4.96-3.9,5.54,1.5,3.07-.87.42-1.71,1.87,3.82.72-2.44,2.6.22,4.15-4.22.89-3.19,6.54-6.12,8.63-.38-1.03.55-3.53-.76-3.54,0,.93.19,2.05-1.1,1.84-.63,1.95,1.94.36,1.31,2.31-2.46.61-2.01,3.85-3.29,5.52,6.18-1.36,16.23-1.47,23.13-1.15.1-.46-.04-1.17.53-1.21,23.01,2.1,41.35-1.48,69.44-2.24-1.29-6.24-6.79-9.22-8.95-12.64-.72-5.27-5.7-5.8-5.92-11.59-2.66.4-2.28-2.11-1.96-3.46-2.36.06-4.5-3.77-2.6-4.63-1.85,1.01-1.99-.34-3.62-1.01-4.28-12.94-14.51-22.09-19.43-32.32.02.6-1.01.79-1.19.05.72-.09,1.39-.24,1.13-1.24-1.65.57-1.58-.76-3-.45-2.87,4-4.15,9.46-8.94,11.74,1.25,2.03-.44,2.88-1.57,4.24-.71-2.35-.14-4.62.87-6.58.98-.04.4,1.62,1.27,1.72.13-2.55,2.17-7.4,3.91-4.95-.06-.82.21-1.31.49-1.8Z"/>
    </g>
    <text class="cls-5" transform="translate(37.15 212.33)"><tspan x="0" y="0">22</tspan></text>
  </g>
  <g>
    <path class="cls-2" d="M140.43,132.07c2.27.15,5.72.37,9.17.59,1.89.12,3.78.35,5.67.36,39.82.22,79.64.42,119.46.62,29.93.15,59.85.3,89.78.43,1.81,0,3.62-.12,5.42-.25,2.64-.18,3.98,1.26,3.69,3.92-.76,6.96-1.56,13.9-2.19,20.87-.23,2.53,0,5.1.03,7.66.12,8.4.29,16.81.36,25.22.02,1.89-.34,3.78-.42,5.66-.4,9.38-.83,18.77-1.11,28.16-.08,2.54.37,5.09.44,7.65.16,5.1.22,10.2.37,15.31.03.97.18,1.95.43,2.89.6,2.28-.34,3.78-2.67,3.93-1.22.07-2.47-.06-3.7-.19-19.84-2.11-39.69-4.05-59.63-4.86-17.96-.73-35.91-1.45-53.86-2.19-14.6-.59-29.18.16-43.77.48-5.35.12-10.73.24-16.06-.15-14.82-1.07-29.65-1.05-44.48-1.08-5.6-.01-11.2-.27-16.8-.55-1.45-.07-2.93-.47-4.33-.95-1.36-.46-2-1.45-1.64-2.66.75-2.55.33-5.08.18-7.61-.36-6.34-.82-12.67-1.19-19-.57-9.7-1.19-19.41-1.63-29.13-.32-7.08-.26-14.18-.58-21.26-.41-8.89-1.02-17.77-1.57-26.65-.07-1.07-.35-2.12-.47-3.18-.21-1.75.22-2.43,1.93-2.87.95-.25,1.94-.42,2.92-.47,5.02-.25,10.05-.43,16.26-.7ZM366.92,139.34c-1.29,0-2.35,0-3.4,0-59.52-.34-119.05-.7-178.57-1.02-19.62-.11-39.23-.13-58.85-.17-.37,0-.73.18-.83.21.64,11.45,1.35,22.72,1.88,33.99.25,5.35-.05,10.73.29,16.07.65,10.2,1.34,20.39,1.47,30.62.09,6.84.64,13.66,1.01,20.5.04.63.24,1.24.39,1.96,1.05.05,1.95.15,2.84.15,9.64-.02,19.29-.09,28.93-.08,5.11,0,10.22.04,15.33.24,5.27.2,10.53.7,15.79.91,4.2.17,8.4.18,12.61.13,13.43-.19,26.87-.71,40.3-.61,21.6.17,43.18,1.21,64.74,2.57,8.56.55,17.11,1.06,25.66,1.75,8.13.66,16.25,1.52,24.37,2.29,1.12.1,2.25.13,3.42.2.15-.73.32-1.2.32-1.68,0-3.8.3-7.63-.14-11.37-1.19-10.15-.41-20.26.08-30.37.23-4.69,1.02-9.36,1.11-14.05.15-8.16.08-16.32-.15-24.48-.21-7.28.29-14.48,1.37-21.68.28-1.83.04-3.74.04-6.07Z"/>
    <path class="cls-1" d="M366.92,139.34c0,2.32.23,4.24-.04,6.07-1.08,7.19-1.58,14.39-1.37,21.68.23,8.16.3,16.32.15,24.48-.08,4.69-.88,9.36-1.11,14.05-.49,10.12-1.27,20.23-.08,30.37.44,3.74.13,7.57.14,11.37,0,.48-.18.95-.32,1.68-1.17-.07-2.3-.09-3.42-.2-8.12-.76-16.24-1.63-24.37-2.29-8.54-.69-17.1-1.2-25.66-1.75-21.56-1.36-43.14-2.4-64.74-2.57-13.43-.1-26.87.43-40.3.61-4.2.06-8.41.04-12.61-.13-5.27-.21-10.53-.71-15.79-.91-5.11-.2-10.22-.23-15.33-.24-9.64,0-19.29.06-28.93.08-.9,0-1.79-.09-2.84-.15-.15-.72-.35-1.34-.39-1.96-.37-6.83-.92-13.66-1.01-20.5-.13-10.23-.82-20.42-1.47-30.62-.34-5.34-.04-10.72-.29-16.07-.53-11.27-1.24-22.54-1.88-33.99.09-.03.46-.21.83-.21,19.62.04,39.23.06,58.85.17,59.52.32,119.05.68,178.57,1.02,1.06,0,2.11,0,3.4,0ZM268.1,177.17c-3.4-3.2-6.75-6.03-9.7-9.22-3.62-3.91-6.94-8.11-10.33-12.23-.95-1.16-1.03-1.26-2.86-.39.42,14.67-.67,29.37.04,44.44,2.45-.18,4.73-.25,6.98-.56,1.83-.25,1.96-.51,2.17-2.39.1-.98.13-1.97.13-2.96,0-4.44-.05-8.89-.06-13.34,0-.6.08-1.2.14-2.08,1.09,1.26,1.91,2.27,2.8,3.22,5,5.35,10.01,10.7,15.02,16.04.73.78,1.42,1.64,2.27,2.26,1.68,1.23,2.97.64,3.09-1.46.23-4.28.37-8.55.46-12.83.18-8.89.32-17.78.45-26.67.02-.95-.1-1.9-.15-2.83h-9.34c-.99,7.06.32,14.02-1.1,21.01ZM154.45,197.21c-.2-5.41-.38-10.56-.57-15.73,4.41.23,8.36-.16,12.23-1.63,3.19-1.21,5.09-3.33,5.6-6.6.36-2.35.47-4.74.49-7.12.05-5.6-3.65-10.05-9.16-10.89-6.29-.95-12.61-1.05-19.24-.05,0,1.57-.07,3.11.01,4.65.23,3.94.56,7.87.78,11.8.41,7.24.76,14.48,1.16,21.72.07,1.21.29,2.41.47,3.86h8.23ZM231.69,166.56c.32-3.28.63-6.34.95-9.63-1.46-.62-2.83-1.57-4.3-1.77-5.3-.71-10.28.34-14.91,3.14-4.51,2.73-6.88,6.99-8.51,11.73-1.65,4.81-1.05,9.59.92,14.2,2.69,6.3,7.79,10.01,13.79,12.76,4.08,1.87,8.27,1.94,12.56,1.01.64-.14,1.34-.28,1.84-.66.36-.27.73-1.08.58-1.39-1.06-2.1-.56-4.38-.9-6.54-.15-.92-.41-1.81-.64-2.83-2.14.58-3.95,1.13-5.78,1.54-5.51,1.23-12.05-2.21-13.31-8.84-.7-3.72-.05-7.42,1.58-10.83,1.15-2.4,3.15-4.03,5.89-4.42,3.01-.44,5.92-.15,8.55,1.55.46.3.96.56,1.7.99ZM194.22,197.77c-.12-1.46-.18-2.67-.32-3.87-.25-2.13-.72-4.24-.81-6.37-.38-9.47-.66-18.95-.99-28.42-.04-1.2-.22-2.39-.32-3.41-3.15.55-5.9-.52-8.92-.43-.71,14.24-1.11,28.51-.04,43.17,3.82-.27,7.4.21,11.41-.66ZM307.77,224.34c.59-.34.92-.57,1.28-.73,2.06-.96,3.34-2.42,3.05-4.83-.31-2.54-1.43-4.67-3.98-5.45-2.77-.84-5.64-.39-8.51-.39-.09.84-.17,1.32-.2,1.81-.18,2.62-.37,5.24-.52,7.87-.14,2.3-.25,4.61-.34,6.91-.03.7-.11,1.49,1.17,1.84.55-2.82.27-5.59.56-8.31.3-2.83.52-5.66.79-8.6,1.97,0,3.85-.1,5.72.03,1.9.13,3.48,1.89,3.83,3.97.33,1.93-.31,2.92-2.5,3.97-.76.37-1.49.81-2.52,1.37,1.81,2.57,3.4,4.85,5.03,7.11.37.51.81,1.12,1.8.33-1.52-2.26-3.05-4.52-4.65-6.89ZM204.16,210.36c-.17.25-.25.32-.25.39-.09,5.42.5,10.85-.38,16.25-.07.43.31.93.48,1.4.18-.02.37-.05.55-.07,1.54-5.28.67-10.77.94-16.39,1.73,0,3.37-.17,4.95.04,2.06.29,3.57,2.21,3.74,4.34.13,1.66-.77,2.68-3.11,3.57-.43.16-.81.46-1.19.68,1.05,2.91,4.26,6.67,6.15,7.06-.15-1.42-1.21-2.14-1.91-3.08-.76-1.02-1.52-2.05-2.32-3.14.56-.33.83-.49,1.11-.65,3.4-1.99,3.36-4.85,1.5-7.79-1.09-1.72-2.78-2.54-4.79-2.6-1.8-.06-3.61-.02-5.48-.02ZM255.25,211.74c-.26.03-.52.06-.78.1-.04.85-.07,1.71-.12,2.56-.17,3.11-.19,6.25-.57,9.34-.53,4.37-1.77,5.16-6.1,4.43-.08,0-.16-.03-.24-.04-2.94-.57-4.25-2.08-4.38-5.05-.13-2.96-.24-5.92-.42-8.87-.05-.84-.29-1.67-.44-2.5-.65.63-.96,1.25-.94,1.86.11,3.62.22,7.24.47,10.84.18,2.63,1.98,4.08,4.3,4.85,1.15.38,2.42.49,3.64.53,3.13.11,4.58-1.02,5.22-4.04.87-4.12,1.12-8.31.84-12.52-.03-.5-.33-.99-.5-1.48ZM292.31,213.45c-.7-.26-1.18-.56-1.67-.59-2.38-.14-4.77-.25-7.16-.31-1.89-.04-2.13.19-2.11,2.12.04,4.61.11,9.22.21,13.83.05,2.14.28,2.32,2.52,2.33,2.22.01,4.45,0,6.67-.06.39-.01.77-.32,1.6-.7-3.22-1.54-6.25-.34-9.31-.92v-14.75c1.57,0,3.11.1,4.64-.03,1.45-.12,3.09.64,4.61-.94ZM344.16,214.56c-.53-.21-1.05-.56-1.59-.61-2.05-.16-4.1-.29-6.16-.32-2.37-.04-2.65.29-2.74,2.69-.16,4.03-.34,8.06-.5,12.08-.03.74-.01,1.48-.03,2.22-.03,1.22.55,1.78,1.79,1.82,2.63.07,5.26.23,7.89.29.58.01,1.16-.22,1.74-.36.02-.21.03-.42.05-.63-.54-.15-1.09-.4-1.64-.43-1.97-.11-3.94-.13-5.92-.22-.78-.04-1.55-.17-2.46-.28.24-5.33.48-10.38.71-15.49,2.99-.76,5.94.71,8.87-.76ZM189.99,211.98c.8,1.86,1.48,3.33,2.06,4.83.91,2.38,1.72,4.79,2.64,7.17.33.85.51,1.93,2.35,2.13-2.32-5.95-4.03-11.75-7.08-17.47-.47.79-.81,1.21-1.01,1.69-1.31,3.28-2.62,6.56-3.88,9.86-.58,1.53-1.1,3.1-1.57,4.67-.1.34.15.8.23,1.2.18.03.37.06.55.1,1.84-4.58,3.68-9.15,5.7-14.19ZM157.61,210.68c.09-.22.17-.43.25-.65-.41-.33-.78-.82-1.25-.95-2.1-.57-4.25-.64-6.32.03-1.68.55-3.14,1.59-3.84,3.27-1.5,3.56-1.45,7.18.85,10.33,2.34,3.21,5.9,3.97,9.7,3.55.37-.04.69-.61,1.36-1.25-1.86-.09-3.16-.09-4.46-.22-3.73-.36-6.79-3.03-6.88-7.06-.02-.83-.02-1.65.06-2.47.27-2.8,2.07-4.77,4.87-5.04,1.36-.13,2.75.19,4.13.3.51.04,1.02.09,1.53.15ZM232.53,212.62c-1.41-2.38-4.22-2.87-6.61-1.55-4.35,2.4-5.86,10.52-2.65,14.35.41.49.98.87,1.52,1.25,2.49,1.74,5.33,1.33,8.11,1.26.24,0,.46-.5,1.01-1.14-1.9-.1-3.35-.18-4.8-.24-3.46-.15-5.58-1.96-5.91-5.39-.16-1.62-.09-3.32.26-4.9.67-3.11,3.94-4.95,7.02-4.18.69.17,1.37.37,2.06.55ZM245.89,212.41c-.25.02-.5.03-.76.04-.92,3.61-.68,7.26.11,10.87.12.56.93,1.25,1.53,1.4,1.97.49,4.11.56,4.42-2.66.29-3.02.34-6.07.44-9.11.01-.36-.38-.74-.59-1.11-.55.64-.72,1.24-.76,1.83-.18,2.71-.28,5.42-.48,8.12-.07.98-.52,1.71-1.71,1.68-1.12-.02-1.66-.56-1.71-1.65-.11-2.13-.2-4.26-.31-6.39-.05-1.01-.12-2.02-.18-3.04ZM234.31,223.19c-.44,0-.89.02-1.33,0-1.47-.09-2.97-.06-4.41-.34-1.81-.36-2.64-1.54-2.7-3.34-.09-2.41,1.25-3.96,3.67-4.04,1.12-.04,2.25.22,3.37.34-.33-.77-.8-1.37-1.41-1.62-2.73-1.1-6.11.67-6.89,3.52-.65,2.4.11,4.69,1.97,5.9,2.12,1.38,6.16,1.4,7.72-.43ZM156.56,213.91c-1.44-1.71-2.63-2.15-4.32-1.78-1.7.37-2.79,1.44-3.12,3.12-.18.95-.18,1.98-.04,2.94.61,3.91,5.62,5.75,8.82,3.26.07-.06,0-.3,0-.66-.43,0-.87-.02-1.31,0-.57.04-1.14.18-1.71.19-3.32.03-4.7-1.44-4.45-4.7.15-1.92,1.12-2.84,3.04-2.75.89.03,1.77.21,3.08.38ZM265.55,217.03c0,2.28-.09,4.41.03,6.53.12,2.11-.76,4.29.32,6.92.45-.92.8-1.31.83-1.72.21-3.94.38-7.88.54-11.82.04-.98-.42-1.56-1.46-1.57-1.48,0-2.97-.03-4.45.01-.31.01-.61.33-1.05.59,1.67,1.37,3.54.52,5.25,1.05ZM320.71,212.65c-.36.57-.7.86-.72,1.18-.48,6.3-.92,12.61-1.35,18.91,0,.13.33.29.63.54.19-.33.44-.58.46-.85.5-6.23.99-12.46,1.45-18.69.02-.26-.22-.53-.47-1.1ZM173.47,226.56c.3-.33.6-.51.59-.67-.12-2.12-.21-4.25-.45-6.36-.13-1.17-1.15-1.31-2.09-1.17-1.21.18-2.7-.64-3.55.91-.11.21-.12.48-.12.72,0,1.56-.04,3.12.03,4.68.02.39.36.76.55,1.15.15-.02.3-.04.45-.05.21-1.91.42-3.82.63-5.73h2.58c.53,2.25-.11,4.55,1.37,6.54ZM168.15,208.93c-.32.39-.67.61-.68.85-.1,1.89-.16,3.78-.18,5.66,0,.29.17.65.38.86.58.61,4.76.82,5.21.13.46-.7.7-1.67.68-2.51-.03-1.49.79-3.15-1-4.97-.23,2.38-.42,4.27-.61,6.2h-2.89c-.91-2.03.22-4.2-.91-6.24ZM176.61,227.11c.21-.05.42-.1.63-.15,0-.7.03-1.41,0-2.12-.2-4.09-.4-8.19-.62-12.28-.04-.9-.09-1.8-.26-2.69-.07-.34-.5-.61-.77-.91-.34,5.87-.51,11.58.39,17.25.05.33.42.6.64.89ZM323.04,232.2c.17-.02.34-.03.5-.04.18-1.48.41-2.96.53-4.44.12-1.55.17-3.11.19-4.66.03-1.64.06-3.28-.02-4.92-.07-1.45.52-3.02-.92-4.85-.84,6.34-.3,12.23-.89,18.04-.03.27.39.58.6.87ZM270.16,216.95c1.7-.08,3.19-.15,4.68-.22.04-.2.07-.41.11-.61-.42-.24-.83-.66-1.27-.7-1.14-.11-2.3-.06-3.45-.06-1.14,0-1.63.67-1.63,1.73.03,3.78.08,7.56.16,11.33,0,.3.37.59.57.89.24-.02.48-.04.72-.06.13-4.01-.38-8.06.11-12.31ZM164.46,208.46c-.07.75-.17,1.07-.12,1.37.75,4.87,1.12,9.76.81,14.7-.03.55.26,1.12.48,1.99,1.22-2.04,1.47-7.24.62-13.08-.23-1.56.2-3.46-1.79-4.99ZM341.83,225.32c-.02-.3-.04-.61-.07-.92-1.09-.06-2.18-.2-3.27-.19-2.19.02-2.35.22-2.37,2.42-.03,3.06.08,3.17,3.19,3.05.98-.04,1.97-.15,2.93-.34.37-.07.68-.44,1.02-.67-.04-.15-.08-.31-.12-.46h-5.38v-2.34c1.45-.21,2.76-.39,4.07-.57ZM260.65,212.07c-.06.25-.11.5-.17.74.5.17.99.45,1.5.48,3.93.22,7.86.41,11.79.55.43.01.87-.37,1.31-.55-.03-.2-.07-.4-.11-.59-4.74-.98-9.52-.94-14.32-.63ZM286.28,217.88c.97-.05,1.85-.08,2.74-.15.93-.08,2.05.22,2.46-1.25-2.28-1.19-4.43-.22-6.72.16,0,1.16-.08,2.22.04,3.24.04.36.59.91.94.93,1.25.09,2.5-.01,3.93-.05-.38-1.32-1.14-1.28-1.85-1.32-.79-.05-1.79.16-1.54-1.57ZM302.19,230.85c.24.03.48.05.73.07.17-.98.35-1.95.56-3.15,1.3,1.18,1.86,3.17,4.03,2.91-.81-2.07-3.91-5.7-5.72-6.48-.17,2.35-.19,4.51.41,6.65ZM341.44,221.46c-1.06-.26-1.97-.49-2.8-.7-.25-1.19.04-1.81,1.19-1.71.73.07,1.47.28,2.2.27.56,0,1.11-.24,1.99-.47-2.09-1.37-4.81-1.51-6.75-.6v4.3c1.56-.11,2.94.24,4.18-1.1ZM291.16,227.17c-.51-1.31-1.26-1.34-2-1.33-.66,0-1.32.1-1.97.07-.83-.04-1.18-.47-.87-1.3q2.42-.56,3.31-1.62c-.54-.06-1.02-.15-1.5-.16-3.72-.08-4.06.36-3.07,3.93.04.15.19.26.37.49.47.05,1.04.16,1.6.15,1.29-.03,2.57-.14,4.12-.22ZM207.3,220.97c-.81,2.72-.64,5.41.34,6.61.3-.7.56-1.33.86-2.04,1.01.9,1.1,2.58,3.46,2.62-1.73-2.5-2.5-5.01-4.65-7.19ZM208.55,218c1.95.67,2.96.48,3.68-.45.58-.75.55-1.52-.03-2.26-.98-1.26-3.85-2.18-5.42-1.69-.31.1-.55.46-1.03.89,1.86.86,4.16-.07,5.24,2.12-.37.22-.71.43-1.05.62-.33.19-.67.37-1.39.77ZM304.44,220.79c1.92.47,3.69-.15,4.17-1.22.12-.27.15-.65.06-.93-.59-1.99-4.03-2.95-5.93-1.61,1.1,1.27,3.35.15,4.24,2.01-.77.53-1.48,1.02-2.53,1.75ZM193.42,227.28c-.51-2.99-.77-3.26-2.7-3.35-.73-.03-1.47-.05-2.2,0-1.82.14-2.17.71-1.65,2.78,2.12-2.36,4.2-1.56,6.55.57ZM189.73,218.24c-.26.1-.51.21-.76.3.18.67.54,1.34.49,1.99-.04.58-.52,1.15-.85,1.81,1.3.43,2.34.67,3.42-.56-.78-1.19-1.54-2.37-2.29-3.54Z"/>
    <path class="cls-3" d="M268.1,177.17c1.42-6.99.11-13.95,1.1-21.01h9.34c.05.93.17,1.87.15,2.83-.13,8.89-.26,17.78-.45,26.67-.09,4.28-.23,8.56-.46,12.83-.12,2.11-1.4,2.69-3.09,1.46-.85-.62-1.54-1.48-2.27-2.26-5.01-5.34-10.03-10.68-15.02-16.04-.89-.95-1.71-1.96-2.8-3.22-.06.88-.14,1.48-.14,2.08.01,4.45.05,8.9.06,13.34,0,.99-.03,1.99-.13,2.96-.21,1.88-.33,2.14-2.17,2.39-2.25.31-4.52.38-6.98.56-.71-15.06.38-29.77-.04-44.44,1.83-.87,1.91-.76,2.86.39,3.39,4.12,6.71,8.32,10.33,12.23,2.95,3.19,6.31,6.02,9.7,9.22Z"/>
    <path class="cls-3" d="M154.45,197.21h-8.23c-.18-1.46-.4-2.66-.47-3.86-.4-7.24-.75-14.48-1.16-21.72-.23-3.94-.56-7.87-.78-11.8-.09-1.54-.01-3.08-.01-4.65,6.63-1,12.95-.9,19.24.05,5.51.84,9.21,5.29,9.16,10.89-.02,2.38-.12,4.78-.49,7.12-.5,3.27-2.41,5.39-5.6,6.6-3.87,1.47-7.81,1.86-12.23,1.63.18,5.18.37,10.33.57,15.73ZM152.75,162.28c-.13,3.57-.08,6.71.21,9.85,3.21.5,5.91-.3,8.53-1.17.76-.25,1.5-1.29,1.79-2.13.95-2.75-1.05-5.59-4.37-6.15-1.92-.33-3.9-.27-6.16-.4Z"/>
    <path class="cls-3" d="M231.69,166.56c-.74-.43-1.24-.68-1.7-.99-2.63-1.71-5.54-1.99-8.55-1.55-2.74.39-4.74,2.02-5.89,4.42-1.64,3.41-2.29,7.11-1.58,10.83,1.25,6.63,7.8,10.07,13.31,8.84,1.83-.41,3.64-.96,5.78-1.54.24,1.01.5,1.91.64,2.83.34,2.17-.15,4.44.9,6.54.15.31-.22,1.12-.58,1.39-.5.37-1.2.52-1.84.66-4.28.93-8.48.87-12.56-1.01-6-2.75-11.11-6.46-13.79-12.76-1.97-4.61-2.57-9.39-.92-14.2,1.63-4.74,4-9.01,8.51-11.73,4.63-2.8,9.61-3.85,14.91-3.14,1.47.2,2.84,1.15,4.3,1.77-.32,3.29-.63,6.35-.95,9.63Z"/>
    <path class="cls-3" d="M342.68,166.56c-.74-.43-1.24-.68-1.7-.99-2.63-1.71-5.54-1.99-8.55-1.55-2.74.39-4.73,2.02-5.89,4.42-1.64,3.41-2.29,7.11-1.58,10.83,1.25,6.63,7.8,10.07,13.31,8.84,1.83-.41,3.64-.96,5.78-1.54.23,1.01.49,1.91.64,2.83.34,2.17-.15,4.44.9,6.54.15.31-.22,1.12-.58,1.39-.5.37-1.2.52-1.84.66-4.28.93-8.48.87-12.56-1.01-6-2.75-11.11-6.46-13.79-12.76-1.97-4.61-2.57-9.39-.92-14.2,1.63-4.74,4-9.01,8.51-11.73,4.63-2.8,9.61-3.85,14.91-3.14,1.47.2,2.83,1.15,4.3,1.77-.33,3.29-.63,6.35-.95,9.63Z"/>
    <path class="cls-3" d="M194.22,197.77c-4.01.87-7.59.39-11.41.66-1.07-14.67-.67-28.93.04-43.17,3.02-.09,5.78.99,8.92.43.1,1.02.28,2.21.32,3.41.34,9.47.61,18.95.99,28.42.08,2.13.55,4.24.81,6.37.14,1.2.21,2.41.32,3.87Z"/>
    <path class="cls-3" d="M303.84,197.77c-4.01.87-7.6.39-11.41.66-1.07-14.67-.67-28.93.04-43.17,3.02-.09,5.77.99,8.92.43.1,1.02.28,2.21.32,3.41.34,9.47.61,18.95.99,28.42.08,2.13.55,4.24.81,6.37.14,1.2.2,2.41.32,3.87Z"/>
    <path class="cls-3" d="M307.77,224.34c1.61,2.38,3.13,4.64,4.65,6.89-.99.79-1.43.18-1.8-.33-1.63-2.26-3.22-4.54-5.03-7.11,1.03-.57,1.76-1.01,2.52-1.37,2.19-1.05,2.83-2.04,2.5-3.97-.36-2.08-1.93-3.84-3.83-3.97-1.87-.14-3.76-.03-5.72-.03-.26,2.94-.49,5.77-.79,8.6-.29,2.72-.02,5.49-.56,8.31-1.28-.36-1.19-1.15-1.17-1.84.09-2.3.2-4.61.34-6.91.15-2.63.34-5.25.52-7.87.03-.49.11-.97.2-1.81,2.87,0,5.74-.45,8.51.39,2.55.77,3.67,2.9,3.98,5.45.29,2.41-.99,3.87-3.05,4.83-.36.17-.69.39-1.28.73Z"/>
    <path class="cls-3" d="M204.16,210.36c1.86,0,3.67-.04,5.48.02,2.01.06,3.7.88,4.79,2.6,1.85,2.94,1.89,5.8-1.5,7.79-.28.16-.55.33-1.11.65.81,1.09,1.56,2.11,2.32,3.14.7.94,1.76,1.66,1.91,3.08-1.89-.39-5.1-4.15-6.15-7.06.38-.22.76-.52,1.19-.68,2.34-.89,3.24-1.91,3.11-3.57-.17-2.13-1.68-4.06-3.74-4.34-1.58-.21-3.22-.04-4.95-.04-.27,5.62.6,11.1-.94,16.39-.18.03-.36.05-.55.07-.17-.47-.55-.97-.48-1.4.89-5.41.29-10.84.38-16.25,0-.07.08-.13.25-.39Z"/>
    <path class="cls-3" d="M255.25,211.74c.17.49.47.98.5,1.48.27,4.21.02,8.39-.84,12.52-.64,3.02-2.09,4.15-5.22,4.04-1.22-.04-2.49-.15-3.64-.53-2.32-.77-4.11-2.22-4.3-4.85-.26-3.6-.37-7.22-.47-10.84-.02-.61.29-1.23.94-1.86.15.83.39,1.66.44,2.5.18,2.95.29,5.91.42,8.87.13,2.98,1.44,4.49,4.38,5.05.08.02.16.03.24.04,4.33.73,5.57-.06,6.1-4.43.38-3.09.4-6.23.57-9.34.05-.85.08-1.71.12-2.56.26-.04.52-.07.78-.1Z"/>
    <path class="cls-3" d="M292.31,213.45c-1.52,1.58-3.16.82-4.61.94-1.53.13-3.07.03-4.64.03v14.75c3.05.58,6.08-.63,9.31.92-.83.37-1.21.68-1.6.7-2.22.06-4.44.07-6.67.06-2.24,0-2.47-.2-2.52-2.33-.1-4.61-.17-9.22-.21-13.83-.02-1.93.21-2.16,2.11-2.12,2.39.06,4.78.16,7.16.31.49.03.96.33,1.67.59Z"/>
    <path class="cls-3" d="M344.16,214.56c-2.93,1.47-5.88,0-8.87.76-.23,5.11-.47,10.17-.71,15.49.91.11,1.68.24,2.46.28,1.97.09,3.95.11,5.92.22.55.03,1.09.28,1.64.43-.02.22-.03.43-.05.63-.58.13-1.16.37-1.74.36-2.63-.06-5.26-.22-7.89-.29-1.24-.04-1.82-.59-1.79-1.82.02-.74,0-1.48.03-2.22.16-4.03.34-8.05.5-12.08.1-2.4.37-2.73,2.74-2.69,2.05.03,4.11.15,6.16.32.54.05,1.06.4,1.59.61Z"/>
    <path class="cls-3" d="M189.99,211.98c-2.02,5.04-3.86,9.61-5.7,14.19-.18-.03-.37-.06-.55-.1-.09-.4-.34-.86-.23-1.2.47-1.57.99-3.14,1.57-4.67,1.26-3.3,2.57-6.58,3.88-9.86.19-.48.53-.9,1.01-1.69,3.05,5.71,4.76,11.52,7.08,17.47-1.84-.2-2.02-1.28-2.35-2.13-.91-2.38-1.73-4.8-2.64-7.17-.58-1.5-1.26-2.97-2.06-4.83Z"/>
    <path class="cls-3" d="M157.61,210.68c-.51-.05-1.02-.1-1.53-.15-1.38-.11-2.77-.43-4.13-.3-2.79.26-4.6,2.23-4.87,5.04-.08.82-.08,1.64-.06,2.47.08,4.03,3.14,6.7,6.88,7.06,1.3.13,2.6.13,4.46.22-.68.64-.99,1.21-1.36,1.25-3.81.42-7.36-.33-9.7-3.55-2.3-3.15-2.35-6.77-.85-10.33.71-1.68,2.17-2.72,3.84-3.27,2.07-.68,4.22-.61,6.32-.03.47.12.83.62,1.25.95-.08.22-.16.43-.25.65Z"/>
    <path class="cls-3" d="M232.53,212.62c-.69-.18-1.37-.37-2.06-.55-3.08-.77-6.35,1.07-7.02,4.18-.34,1.58-.42,3.28-.26,4.9.34,3.43,2.46,5.24,5.91,5.39,1.45.06,2.91.15,4.8.24-.55.64-.78,1.13-1.01,1.14-2.77.07-5.62.48-8.11-1.26-.53-.37-1.1-.75-1.52-1.25-3.21-3.83-1.7-11.95,2.65-14.35,2.39-1.32,5.2-.84,6.61,1.55Z"/>
    <path class="cls-3" d="M245.89,212.41c.06,1.01.14,2.02.18,3.04.11,2.13.2,4.26.31,6.39.05,1.08.6,1.62,1.71,1.65,1.19.03,1.64-.7,1.71-1.68.2-2.7.3-5.41.48-8.12.04-.59.21-1.19.76-1.83.21.37.6.75.59,1.11-.09,3.04-.15,6.08-.44,9.11-.31,3.21-2.45,3.15-4.42,2.66-.61-.15-1.41-.83-1.53-1.4-.79-3.61-1.03-7.26-.11-10.87.25-.01.5-.03.76-.04Z"/>
    <path class="cls-3" d="M234.31,223.19c-1.56,1.83-5.61,1.81-7.72.43-1.86-1.21-2.63-3.51-1.97-5.9.78-2.85,4.15-4.62,6.89-3.52.61.25,1.08.84,1.41,1.62-1.12-.12-2.25-.38-3.37-.34-2.42.09-3.76,1.63-3.67,4.04.06,1.8.89,2.98,2.7,3.34,1.44.28,2.94.25,4.41.34.44.03.89,0,1.33,0Z"/>
    <path class="cls-3" d="M156.56,213.91c-1.31-.17-2.19-.34-3.08-.38-1.92-.08-2.89.83-3.04,2.75-.25,3.26,1.13,4.74,4.45,4.7.57,0,1.14-.15,1.71-.19.43-.03.87,0,1.31,0,0,.37.06.61,0,.66-3.19,2.49-8.21.65-8.82-3.26-.15-.96-.15-1.99.04-2.94.32-1.68,1.41-2.75,3.12-3.12,1.69-.37,2.88.07,4.32,1.78Z"/>
    <path class="cls-3" d="M265.55,217.03c-1.71-.53-3.57.31-5.25-1.05.44-.26.74-.58,1.05-.59,1.48-.05,2.96-.02,4.45-.01,1.04,0,1.5.59,1.46,1.57-.16,3.94-.33,7.88-.54,11.82-.02.41-.37.8-.83,1.72-1.08-2.63-.2-4.81-.32-6.92-.12-2.12-.03-4.25-.03-6.53Z"/>
    <path class="cls-3" d="M320.71,212.65c.25.57.49.84.47,1.1-.46,6.23-.94,12.46-1.45,18.69-.02.27-.27.52-.46.85-.3-.25-.64-.4-.63-.54.42-6.3.87-12.62,1.35-18.91.02-.32.36-.61.72-1.18Z"/>
    <path class="cls-3" d="M173.47,226.56c-1.48-1.98-.84-4.29-1.37-6.54h-2.58c-.21,1.91-.42,3.82-.63,5.73-.15.01-.3.03-.45.05-.2-.39-.54-.76-.55-1.15-.06-1.56-.03-3.12-.03-4.68,0-.24,0-.51.12-.72.85-1.54,2.34-.73,3.55-.91.94-.13,1.95,0,2.09,1.17.24,2.11.33,4.24.45,6.36,0,.16-.29.34-.59.67Z"/>
    <path class="cls-3" d="M168.15,208.93c1.13,2.04,0,4.21.91,6.24h2.89c.19-1.94.38-3.82.61-6.2,1.79,1.81.97,3.48,1,4.97.02.84-.23,1.81-.68,2.51-.45.69-4.63.48-5.21-.13-.21-.22-.39-.58-.38-.86.02-1.89.08-3.78.18-5.66.01-.24.36-.46.68-.85Z"/>
    <path class="cls-3" d="M176.61,227.11c-.22-.29-.59-.56-.64-.89-.9-5.67-.73-11.38-.39-17.25.27.3.7.57.77.91.18.88.22,1.79.26,2.69.22,4.09.43,8.19.62,12.28.03.7,0,1.41,0,2.12-.21.05-.42.1-.63.15Z"/>
    <path class="cls-3" d="M323.04,232.2c-.21-.29-.62-.6-.6-.87.58-5.81.05-11.7.89-18.04,1.44,1.83.85,3.4.92,4.85.08,1.64.05,3.28.02,4.92-.03,1.56-.07,3.11-.19,4.66-.12,1.48-.35,2.96-.53,4.44-.17.01-.34.03-.5.04Z"/>
    <path class="cls-3" d="M270.16,216.95c-.49,4.25.02,8.3-.11,12.31-.24.02-.48.04-.72.06-.2-.3-.56-.58-.57-.89-.08-3.78-.13-7.55-.16-11.33,0-1.05.48-1.73,1.63-1.73,1.15,0,2.31-.05,3.45.06.44.04.84.46,1.27.7-.04.2-.08.4-.11.61-1.49.07-2.98.14-4.68.22Z"/>
    <path class="cls-3" d="M164.46,208.46c1.99,1.53,1.56,3.42,1.79,4.99.85,5.84.6,11.03-.62,13.08-.22-.87-.51-1.44-.48-1.99.31-4.94-.06-9.83-.81-14.7-.05-.31.05-.62.12-1.37Z"/>
    <path class="cls-3" d="M341.83,225.32c-1.31.18-2.62.36-4.07.57v2.34h5.38c.04.15.08.3.12.46-.34.23-.65.59-1.02.67-.96.18-1.95.3-2.93.34-3.11.12-3.22,0-3.19-3.05.01-2.2.18-2.4,2.37-2.42,1.09,0,2.18.12,3.27.19.02.31.05.61.07.92Z"/>
    <path class="cls-3" d="M260.65,212.07c4.8-.31,9.58-.35,14.32.63.04.19.07.39.11.59-.44.19-.88.57-1.31.55-3.93-.14-7.86-.33-11.79-.55-.5-.03-1-.31-1.5-.48.05-.25.11-.5.17-.74Z"/>
    <path class="cls-3" d="M286.28,217.88c-.25,1.73.75,1.52,1.54,1.57.71.04,1.48,0,1.85,1.32-1.43.03-2.68.13-3.93.05-.35-.02-.9-.57-.94-.93-.13-1.03-.04-2.08-.04-3.24,2.29-.38,4.44-1.36,6.72-.16-.42,1.47-1.54,1.17-2.46,1.25-.89.07-1.77.1-2.74.15Z"/>
    <path class="cls-3" d="M302.19,230.85c-.6-2.14-.58-4.3-.41-6.65,1.82.79,4.92,4.42,5.72,6.48-2.17.25-2.72-1.74-4.03-2.91-.21,1.19-.39,2.17-.56,3.15-.24-.02-.48-.04-.73-.07Z"/>
    <path class="cls-3" d="M341.44,221.46c-1.24,1.33-2.62.99-4.18,1.1v-4.3c1.94-.91,4.67-.77,6.75.6-.87.22-1.43.46-1.99.47-.73,0-1.46-.2-2.2-.27-1.15-.11-1.44.52-1.19,1.71.83.21,1.74.43,2.8.7Z"/>
    <path class="cls-3" d="M291.16,227.17c-1.55.09-2.84.19-4.12.22-.56.02-1.13-.09-1.6-.15-.18-.24-.33-.35-.37-.49-.99-3.57-.65-4.01,3.07-3.93.48.01.95.1,1.5.16q-.89,1.07-3.31,1.62c-.31.83.04,1.26.87,1.3.66.03,1.32-.06,1.97-.07.74,0,1.48.03,2,1.33Z"/>
    <path class="cls-3" d="M207.3,220.97c2.16,2.17,2.93,4.69,4.65,7.19-2.35-.03-2.44-1.71-3.46-2.62-.29.71-.56,1.34-.86,2.04-.98-1.2-1.15-3.9-.34-6.61Z"/>
    <path class="cls-3" d="M208.55,218c.72-.4,1.06-.58,1.39-.77.34-.19.68-.4,1.05-.62-1.08-2.19-3.38-1.25-5.24-2.12.49-.43.72-.79,1.03-.89,1.57-.49,4.43.43,5.42,1.69.58.74.61,1.5.03,2.26-.72.93-1.73,1.12-3.68.45Z"/>
    <path class="cls-3" d="M304.44,220.79c1.06-.73,1.76-1.22,2.53-1.75-.89-1.86-3.14-.74-4.24-2.01,1.9-1.34,5.34-.38,5.93,1.61.08.28.06.66-.06.93-.48,1.07-2.24,1.69-4.17,1.22Z"/>
    <path class="cls-3" d="M193.42,227.28c-2.35-2.13-4.43-2.93-6.55-.57-.52-2.06-.17-2.63,1.65-2.78.73-.05,1.47-.03,2.2,0,1.94.09,2.19.36,2.7,3.35Z"/>
    <path class="cls-3" d="M189.73,218.24c.76,1.17,1.52,2.35,2.29,3.54-1.08,1.23-2.13.99-3.42.56.33-.67.81-1.23.85-1.81.05-.64-.31-1.32-.49-1.99.25-.1.51-.2.76-.3Z"/>
    <path class="cls-1" d="M152.75,162.28c2.26.13,4.25.07,6.16.4,3.32.56,5.32,3.41,4.37,6.15-.29.84-1.03,1.88-1.79,2.13-2.63.86-5.32,1.67-8.53,1.17-.29-3.14-.34-6.28-.21-9.85Z"/>
  </g>
</svg>