<?xml version="1.0" encoding="UTF-8"?>
<svg id="Layer_1" xmlns="http://www.w3.org/2000/svg" viewBox="0 0 400 400">
  <defs>
    <style>
      .cls-1, .cls-2, .cls-3, .cls-4, .cls-5 {
        fill-rule: evenodd;
      }

      .cls-1, .cls-6 {
        fill: #fff;
      }

      .cls-6 {
        font-family: AmericanTypewriter-CondensedBold, 'American Typewriter';
        font-size: 44px;
        font-weight: 700;
      }

      .cls-3 {
        fill: #ef3824;
      }

      .cls-4 {
        fill: #1a1a1a;
      }

      .cls-5 {
        fill: #1bb24b;
      }
    </style>
  </defs>
  <g>
    <polygon class="cls-5" points="74.71 147.02 22.35 223.67 24.96 226.97 124.84 223.5 88.96 157.59 78.28 145.12 74.71 147.02"/>
    <path class="cls-2" d="M106.77,184.38c3.51.51,2.58,5.9,6.25,6.23.09,3.85,2.07,5.65,4.51,6.91-.28,4.06,2.01,5.28,4.46,6.32.28.99-.4,1.13-1.12,1.24.83.82,2.79,1.35,1.32,2.9.46-.34.95-.66,1.75-.68.27,1.19-.03,1.86-1.1,1.84,1.19,1.5,4.61,4.73,2.66,5.81.61,1.01,1.93,1.22,3.62,1.01.33,4.85,3,7.12,2.99,12.33-.57-.34-2.24-1.27-1.74.68-1.07-1.12-4.14-.02-4.28-2.17-1.31,2.35-4.06-1.55-7.05,1.54-1.8.31-1.33-1.87-1.94-2.88-1.7.59.84,1.46.15,2.97-.46-.39-2-2.41-1.78.09-8.28-.58-20.58-.63-27.91.18-.03-.58-.07-1.18-.09-1.77-2.68,1.57-5.82,1.88-8.31.4-1.61,2.32-12.63,2.39-16.01.8-6.52,3.76-21.02.23-24.17,4.17-5.1-2.87-13.91.37-20.31-1.97-.6-1.86.4-2.28,1.04-3.02-2.39-.09-1-.46-1.38-4.09,2.77-.9,3.9-3.26,3.84-6.73,2.74.43,1.19-3.05,4.02-2.59-.52-1.79-.47-1.11-.15-2.96,4.02.45,1.59-4.98,5.09-5.01-.41-.58-1.38-.54-1.27-1.72,2.39.65,1.12-2.01,3.51-1.37-.05-.98-.1-1.97-.15-2.96.51-.48,1.31-.7,2.34-.7,3.47-8.95,9.99-15.12,13.68-23.86,2.05-.03,2.7-1.33,2.2-3.67,1.74.07,1.74-1.43,3.5-1.36,1.44-7.95,9.02-10.36,10.39-18.36,6.51-1.46,4.95-10.23,11.3-11.85-.41-.58-1.39-.54-1.28-1.72,1.95-.12,2.9-1.15,5.32-.86,2.66,1.89-.7,3.07,3.1,2.82-2.46,2.68.76,10.53,3.43,9.33.89.15.15,4.49,3.17,4.01-.32,1.84.73,2.14.78,3.53,7.63,6.37,9.09,19.56,16.73,25.91.27,1-.4,1.15-1.13,1.25ZM72.11,156.97c-1.87.82-.53-1.9-2.43-1.07-.9.3-.41,1.9-2.29,1.31-.73,3.13-1.47,6.22-4.4,7.36-.7,3.28,1.68,3.15,2.61,4.62-4.12,3.02-4.14,12.7-11.42,9.48.67,1.77,2.84,1.85,3.16,4.01-1.56.81-2.72,1.12-3.49,1.35,2.53,2.06-.66,1.56-1.64,3.06-2.54,3.93-3.9,10.12-8.35,11.11-.15,2.88-1.2,4.96-3.89,5.53,1.5,3.08-.88.43-1.71,1.88,3.82.72-2.43,2.6.22,4.15-4.21.89-3.19,6.54-6.11,8.63-.38-1.03.55-3.52-.76-3.54,0,.94.19,2.05-1.1,1.85-.64,1.94,1.94.35,1.31,2.3-2.46.61-2.01,3.85-3.29,5.52,6.18-1.36,16.23-1.47,23.13-1.14.09-.46-.05-1.18.52-1.22,23.01,2.1,41.35-1.48,69.45-2.24-1.29-6.23-6.8-9.22-8.95-12.64-.72-5.27-5.7-5.79-5.92-11.59-2.66.4-2.28-2.11-1.96-3.46-2.36.06-4.51-3.77-2.6-4.63-1.86,1.01-1.99-.34-3.62-1.01-4.29-12.95-14.51-22.09-19.43-32.33.02.6-1.01.8-1.19.05.72-.09,1.39-.24,1.13-1.24-1.65.57-1.57-.76-2.99-.45-2.87,4-4.15,9.46-8.94,11.74,1.25,2.03-.44,2.88-1.57,4.24-.71-2.35-.14-4.62.87-6.58.98-.04.4,1.63,1.27,1.72.13-2.55,2.17-7.4,3.91-4.95-.05-.82.21-1.31.5-1.8Z"/>
  </g>
  <g>
    <path class="cls-4" d="M355,218.13c1.04-.1,1.43.45,2.07.75-.07.75.34,1.04.18,1.88-.94-.49-1.75-1.14-2.44-1.88-.02-.34.23-.4.19-.75Z"/>
    <path class="cls-4" d="M230.91,221.7c-1.18,3.74-.3,10.43-.37,14.85.79,1.1,3.29,1.43,5.08.94-.36-4.24.28-10.56-.75-15.04.47-.53,1.18-.83,1.69-1.31,4.2.36,9.02-.17,11.85,1.12-.73,8.79-.28,18.11-.76,28.96-.13,2.99-.72,6.39.57,8.64-.37.58-.6,1.28-.75,2.07-3.52,1.93-8.05-.65-11.47-.19-2.03-4.47-.63-10.75-1.32-16.35-.95-.5-1.97-.91-3.39-.94-2.26,4.15.34,12.21-1.51,17.29-.75,0-.78-.72-1.13-1.12-4.47,1.09-8.14.92-12.97,1.5-.83-.49-.77-1.85-1.69-2.26.01-.73.92-.58.94-1.31.49-15.14.47-23.96.75-39.67,3.14-.61,6.34.6,9.97.19,1.05,1.58,4.44.82,5.27,2.63Z"/>
    <path class="cls-4" d="M306.87,221.32c3.32,1.19,7.62-.15,10.91,1.13.53-.18-.27-.5.19-.75.42,1.35,1.69,0,2.26,1.5-.12.7-.69.61-1.13.57.35,1-.41,1.75-.37,2.44-.43-.2-.08-1.18-.19-1.69-.23,9.25-.67,21.02,0,31.58.14,2.27,1,4.53,0,6.77-.61,0-1.02-.24-1.13-.75-6.17.64-11.35,1.24-16.17-.75-.44-.74.36-.58.38-1.32-3.41-5.27-5.7-10.51-9.41-15.41.39,5.15,1.67,12.31.76,18.42-4.21-.52-8.01.84-11.47,1.13-.6-.47-1.31-.82-1.88-1.32-.07-8.94-.45-15.14-.56-22.93.27-.72-.84-.04-.57-.76.47-3.88.09-11.32-.37-16.35,1.25-2.93,6.12.82,8.27-1.32,1.48.46,2.83.67,4.52.19.47.28.71.79.94,1.32,1.61.94,3.71.04,5.08.93,1.41.94,1.9,4.13,2.82,5.64,1.59,2.62,3.88,5.05,4.32,7.52,1.1-1.11.13-2.36,0-3.76-.28-3.13,1.06-6.64.94-9.96.81-.72,1.61-1.23,1.88-2.07Z"/>
    <path class="cls-4" d="M267.19,224.33c.58,8.09.91,14.85.57,21.62-.15,2.82.77,5.87.56,8.84-.2,3-.86,5-.56,7.89-3.65-.76-6.78.2-9.41-1.5.41-11.94-.48-25.37-.75-37.6,2.75-.72,7.16.09,9.59.75Z"/>
    <path class="cls-1" d="M188.19,240.48h.97c.1.9-.01,1.59-.58,1.8-.08-.51-.41-.75-.38-1.8Z"/>
    <path class="cls-3" d="M380.46,233.23c1.54,1.69.98,4.81,2.82,5.83,1.29.71,2.96-.13,5.27.19-1.33,1.93-2.97,3.55-4.33,5.45.56,1.95,1.06,3.95,1.13,6.39-3.17-1.26-4.75-3.88-8.09-1.88-1.18.71-2,1.97-3.57,2.26.52-2.36,1.46-4.31,1.88-6.77-1.43-1.89-3.62-3.02-4.7-5.26,2.07-.91,3.97.23,5.64-.19,2.39-.6,2.22-4.46,3.95-6.02Z"/>
    <path class="cls-3" d="M156.28,228.75c1.54,1.69.99,4.81,2.82,5.83,1.28.71,2.96-.13,5.26.19-1.33,1.93-2.96,3.55-4.33,5.45.56,1.95,1.06,3.95,1.13,6.39-3.17-1.26-4.75-3.88-8.08-1.88-1.18.71-2,1.98-3.57,2.26.52-2.36,1.45-4.31,1.88-6.77-1.43-1.89-3.62-3.02-4.7-5.26,2.07-.91,3.97.23,5.64-.19,2.4-.6,2.23-4.46,3.95-6.02Z"/>
    <path class="cls-2" d="M221.38,273.88c-4.23-1.27-9.23.23-7.9,5.08,1.27,2.43,6.97.43,7.9,3.2-4.93,1.97-11.03-.78-10.53-6.21.17-1.8,2.3-3.83,4.14-4.32,2.1-.57,6.01-.56,6.4,2.25Z"/>
    <path class="cls-2" d="M226.83,272c5.86-1.07,8.4,8.21,3.57,10.91-.83.46-1.77-.59-2.07.18-.86-.32-1.59-.79-2.63-.93-2.94-2.36-2.12-8.58,1.13-10.16ZM231.15,278.96c.64-2.1-1.21-5.06-3.01-4.89-.96.1-2.21,1.9-2.44,2.63-.34,1.06-.12,1.8.18,3.2,1.49,1.19,4.78.65,5.27-.94Z"/>
    <path class="cls-2" d="M283.84,272c1.84-.02,1.21,2.42,1.32,4.14.91,1.24,2.94.49,4.33.19.14-1.67.01-3.07.19-4.33,2.36.09,1,3.89,2.25,5.08-1.01,1.5-.08,3.47-.19,6.01-.57.13-.66.73-1.51.57-.97-1.35-.4-3.16-.94-5.26-1.41.03-2.39.48-3.95.37-.62,1.01.57,3.35-.38,4.51-1.96-.1-1.44-8.47-1.32-10.52.02-.34.2-.4.19-.76Z"/>
    <path class="cls-2" d="M243.37,274.82c-1.69.63-4.07-.28-5.64.19v2.07c1.83.62,5.39-1,5.45,1.69-1.54.19-2.86.51-5.08.56-.2,1.21.25,2.82-.37,3.95-3.3-.95-.87-7.81-3.01-9.4.1-.9.81-1.2,1.32-1.69,1.94,1.38,7.67-1.03,7.34,2.63Z"/>
    <path class="cls-2" d="M253.71,274.82c-1.69.63-4.07-.28-5.64.19v2.07c1.83.62,5.39-1,5.46,1.69-1.54.19-2.87.51-5.08.56-.2,1.21.25,2.82-.38,3.95-3.3-.95-.87-7.81-3.01-9.4.1-.9.81-1.2,1.32-1.69,1.94,1.38,7.67-1.03,7.33,2.63Z"/>
    <path class="cls-2" d="M265,273.13c-.11.45-.27.85-.19,1.51-2.4-.06-6.37-1.42-5.26,2.44,1.95.11,4.78-.65,4.51,1.69-1.24.84-3.03-.13-4.51.56,0,.83.16,1.47.37,2.07.68.41,4.65-.73,4.89.94.01.09-.71,1.5-1.13,1.69-.2.09-.96-.38-1.51-.37-1.5.03-3.55.76-4.51-.19-.2-3.82-.61-7.55-.19-11.09,2.08-.06,5.73-.1,7.52.75Z"/>
    <path class="cls-2" d="M274.5,273.41c-.11.45-.27.85-.19,1.5-2.41-.06-6.37-1.42-5.27,2.44,1.96.12,4.79-.65,4.52,1.7-1.24.83-3.03-.14-4.52.56,0,.82.17,1.46.37,2.07.68.41,4.66-.73,4.89.94.01.09-.71,1.5-1.13,1.69-.19.09-.96-.39-1.5-.38-1.5.03-3.55.76-4.52-.18-.19-3.83-.6-7.55-.19-11.1,2.08-.06,5.73-.09,7.52.76Z"/>
    <path class="cls-2" d="M322.77,274.82c-2.08.6-4.38.09-5.65,2.26.83,1.97,4.27,2.06,4.14,4.51-.11,2.02-4.14,3.25-5.65,1.13.37-1.42,3.48.16,3.57-1.88-.92-1.69-3.77-1.97-3.95-3.95-.28-3.14,6.04-5.49,7.53-2.07Z"/>
    <path class="cls-2" d="M301.52,275.39c.79,2.34.77,5.18-.56,6.58-2.08,2.16-6.49.52-7.34-2.07-1.51-4.64,4.33-8.56,7.9-4.51ZM295.88,280.84c2.61,1.9,5.92-1.47,4.32-4.89-.75-.24-.46.55-.94.56-2.47-3.6-5.3,2.93-3.38,4.33Z"/>
    <path class="cls-2" d="M332.35,276.51c-1.8.5-3.02-.17-5.27,0-.31.37.04,1.22.19,1.7,1.97-.18,5.3-1.2,5.46,1.31-.98.74-3.74.35-5.27.75-.36.32-.24,1.74,0,2.07,2.15-.57,5.19-.95,5.64,1.51-1.89.08-5.03.94-7.33.56-.8-3.21-.33-6-.94-8.83,1.13-1.66,7.51-2.27,7.52.93Z"/>
    <path class="cls-2" d="M305.28,274.64c2.29,1.27.39,6.76,3.95,6.76,2.11-1.2,1.07-5.27,1.51-6.76,3,1.47,2.26,6.65.56,7.89-2.92,2.14-7.35-2.04-6.58-7.14.38-.06.37-.5.56-.75Z"/>
    <path class="cls-2" d="M320.96,189.53c-.38.98-1.21,3.1-2.44,3.38.11.33-.23,1.1.19,1.13-.67.84-1.91.6-1.88,2.44.03-1.81.85-4.02-1.51-4.51-3.7-5.18-.08-15.56-4.14-20.49-2.04,9.13,1.64,20.02-.38,28.2.75.8,1.55.16,2.45.19,1.32.04,2.63.7,3.95.75,1.81.07,3.81-.47,5.83-.38,8.4.37,17.36,1.74,25,3.76,2.17,4.4-6.91,4.65-10.53,5.27-1.9.32-4.42.18-6.77.38-8.47.69-18.48,1.38-27.64,1.31-3.33-.02-6.76.16-9.78.19-.88,0-1.23-.51-2.26-.56-1.21-.08-2.51.23-3.76.18-12.77-.48-26.08.04-37.79-1.5-4.43.58-9.23.13-15.05-.19-6.49-.36-12.95-.65-19.93-1.13-1.93-.12-4.21-.29-6.4-.56-2.99-.36-5.43-.73-7.52-1.69.17-.93-1.08-.69-.94-1.88.28-2.52,7.25-2.74,10.52-3.2,2.24-.31,4.95-1.27,7.9-1.5,5.16-.4,10.59-.6,14.29-1.13,3.1-.45,4-5.22,5.08-8.28.74-2.11,1.93-3.77,1.32-6.39-.58-2.44-2.54-3.54-3.95-5.82-.65-5.56.63-9.91.94-16.55-2.16-.85-3.69-2.32-5.64-3.38-1.36.15-2.21,2.93-3.76,3.57-2.5,1.03-7.56-.06-10.91.38-4.11.53-7.06,3.84-9.96,4.13-3.92.4-6.73-3.33-9.97-4.32-.1-.47-.05-1.06-.75-1.32,1.11-3.16-.45-7.61-2.45-9.96-3.66-2.37-7.65-8.42-8.84-13.92-.6-2.79-.74-6.31-.94-9.4-.38-5.82.85-11.74,2.64-15.79.92-2.08,1.82-4.55,3.95-4.89.8,14.18,4.31,25.65,12.78,32.15,1.63-.27,3.34-.7,4.89-1.5-2.8-4.55-6.79-10.4-5.83-18.24.39-3.19,2-5.93,3.95-8.27,1.22,2.47,1.81,5.15,3.01,7.9.47,1.08,1.42,2.07,1.88,3.19.39.96.34,2.08.75,3.01.76,1.74,2.64,5.21,3.95,6.58,2.18,2.28,3.84,1.63,6.58.19,1.27-.67,2.29-1.34,2.82-2.45-.57-2.71-2.23-4.39-2.63-6.76.48-2.27,1.04-5.75,3.38-5.64,3.2.14,3.18,9.22,6.77,8.46.99-.1-.44.5.19.56.53.22.79.04,1.31-.19.63-.28-.68-.5,0-.94,1.01-.2-.02.47.76.38.55.04.41-1.23.94-1.51.2-.1.48.28.56.19.54-.62.56-1.41,1.13-2.07,3.28-3.79,10.41-4.73,16.74-5.64,3.04-.43,5.43-1.44,8.65-.75.87.18.26-1.12,1.13-.94.22,1.45,1.39,2.42,2.26,3.39.89.99,1.67,1.97,2.44,3,2.12,2.85,3.52,5.44,5.08,9.22,1.65,3.99,4.13,7.83,8.09,9.4,1.51.59,3.26.52,4.89.94,2.82.72,5.66,2.03,8.65,2.82,4.91,1.29,10,2.19,14.29,4.13,4.09,2.56,5.95,8.33,8.84,11.47.31,1.92.26,4.28.19,6.39-.1,3.11.63,5.82.94,8.65.11.99-.14,1.91,0,2.82.49,3.16,2.28,7.47,1.32,12.03-.11.68.57.56.56,1.13-.29.28-.39.73-.38,1.32.5-.12.69-.57.94-.94ZM255.53,182.57c.14.63-.01,1.23.19,1.7.44,1.03,1.7,1.67,2.25,2.63,1.88,3.27,2.27,6.97,3.38,11.28,11.06,1.45,21.99,1.26,31.96.56,1.33-4.13,2.5-8.4,3.01-13.35-1.92-1.76-4.54-4.75-6.77-1.5-.97-.66-1.88.46-2.63.75-4.69,1.84-11.17,2.01-16.17.56-4.54-1.32-6.49-3.45-10.16-5.64-2.56-1.52-4.88-3.17-6.77-4.13-.04,2.55,1.2,4.94,1.69,7.14Z"/>
    <path class="cls-4" d="M176.75,217.04c.41.07-.2.7-.57.61.06-.41-.04-.63-.39-.61.19-.61.65.09.77.2.17.04.18-.08.19-.2Z"/>
    <path class="cls-4" d="M271.52,263.06c-1.94,1.53-4.87.92-6.77.75-2.95-.26-6.32.66-8.65-.75.29-2.07-.55-5.06-.76-7.71-.38-4.98,0-10.59-.37-15.98-.25-3.65-.49-8.64-.57-12.78.74-1.29,1.59-2.97,1.51-4.52,4.17-.73,8.98-.38,12.41-.56,1.78,1.99,2.8,5.17,3.01,8.84.58,10.27-1.63,21.35.19,32.71Z"/>
    <path class="cls-4" d="M208.14,254.73c.19-7.97-4.23-12.07-9.69-15.83,1.4-.94,2.04-.09,3.68-.6,3.46-1.07,5.81-5.81,5.43-10.22-.38-4.48-2.26-9.87-5.04-12.22-1.4-1.19-5.34-2.26-8.14-3-4.61-1.22-11.86-1.4-16.48-2.81-2.03,1.04-4.37-1.04-6.59-.6-.6,1.15.91,1.41,0,2.4.44.35.75.83.97,1.41.28,6.88-.18,13.92,0,21.23.11,4.61.57,9.84.19,14.42-.33,4.03.63,8.23.39,12.02-.17,2.55-.94,5.12,0,7.61,1.89.09,4.01-.66,5.82-1.4,3.09-1.26,6.25-2.66,9.06-3.48-.06-1.35-.81-19.31.67-20.56.13-.11.24-.19.35-.28,0-.05,0-.08,0-.12h.15c1.04-.78,1.13-.21,2.39,2.58.82,1.8.89,6.25.89,10.04,0,.09,0,.16,0,.24,0,1.31,0,2.52,0,3.5.37.89.29,2.24.49,3.3.07.22.14.42.2.61.03-.04.07-.06.14-.04.44.54.74,1.23,1.16,1.8,4.55,1.69,9.36.94,14.15,1.4-.97-3.39-.28-7.9-.19-11.41ZM191.66,235.31c-1.51.37-3.08,1.55-4.85,1-.46-1.85-.49-4.85-.38-8.01.09-2.9-.33-6.63.19-8.81.32-1.31.78-.3,1.13-1.18,1.96-.09,3.16.75,4.61,1.82.44,5.4,1.78,11.72-.7,15.18Z"/>
    <path class="cls-4" d="M361.83,237.05c.75-5.77,1.34-13.06-.46-18.03-2.22-1.26-3.71-3.23-6.75-3.14-3.79.1-8.51,2.12-12.69,3.36-4.43,1.32-8.72,2.68-12.69,3.56-.49,1.05-2.14.9-2.45,2.16.32,1.59-.34,3.82-.52,6-.49,6.12.38,11.57.24,18.64-.05,2.8,0,5.94.43,8.82.43,2.86.67,6.83,1.85,8.05.87.89,4.73,2.06,6.17,2.33,2.92.53,6.79.49,10.4.8,3.72.31,7.6.5,11.41.43.74-.9,1.85-1.34,2.65-2.36.64-.81.72-1.98,1.25-2.58.33-.38,1.21,0,1.02-.78,1.21-8.17-1.06-18.07.13-27.25ZM344.91,262.18c-1.38,0-3.2-1.22-4.37-2.09-2.64-7.21-.14-16.66-.32-25.06-.05-2.44-.26-4.87.14-7.21.57-.64,1.07-1.35,1.84-1.77,2.44-.18,3.77.69,4.98,1.7.97,4.8.97,11.71.84,18.45-.12,6.22,1.68,13.85-3.11,15.97Z"/>
  </g>
  <text class="cls-6" transform="translate(53.59 214.73)"><tspan x="0" y="0">23</tspan></text>
</svg>