<?xml version="1.0" encoding="UTF-8"?>
<svg id="Layer_1" xmlns="http://www.w3.org/2000/svg" viewBox="0 0 400 400">
  <defs>
    <style>
      .cls-1, .cls-2, .cls-3 {
        fill-rule: evenodd;
      }

      .cls-1, .cls-4 {
        fill: #fff;
      }

      .cls-4 {
        font-family: AmericanTypewriter-CondensedBold, 'American Typewriter';
        font-size: 44px;
        font-weight: 700;
      }

      .cls-3 {
        fill: #1bb24b;
      }
    </style>
  </defs>
  <g>
    <polygon class="cls-3" points="67.88 128.59 15.52 205.24 18.13 208.54 118.01 205.06 82.14 139.16 71.45 126.69 67.88 128.59"/>
    <path class="cls-2" d="M99.94,165.95c3.51.51,2.58,5.89,6.25,6.23.09,3.85,2.07,5.65,4.51,6.9-.28,4.07,2.01,5.28,4.46,6.33.28.99-.4,1.13-1.12,1.24.83.81,2.79,1.35,1.32,2.9.46-.34.95-.66,1.75-.69.28,1.19-.03,1.86-1.1,1.85,1.19,1.5,4.61,4.73,2.66,5.8.61,1.01,1.93,1.22,3.62,1.01.33,4.86,3,7.12,2.99,12.34-.57-.34-2.24-1.28-1.74.68-1.07-1.12-4.14-.02-4.28-2.17-1.31,2.35-4.06-1.55-7.05,1.54-1.8.3-1.33-1.87-1.94-2.88-1.7.59.84,1.45.15,2.96-.46-.38-2-2.41-1.78.09-8.28-.58-20.58-.62-27.91.19-.03-.59-.07-1.18-.09-1.77-2.68,1.57-5.82,1.88-8.31.4-1.61,2.32-12.63,2.39-16.01.8-6.52,3.76-21.02.23-24.17,4.16-5.1-2.87-13.91.38-20.31-1.96-.6-1.86.4-2.28,1.04-3.02-2.39-.09-1-.46-1.38-4.1,2.77-.89,3.9-3.25,3.84-6.72,2.74.42,1.19-3.05,4.02-2.59-.52-1.8-.47-1.11-.15-2.97,4.02.46,1.59-4.98,5.09-5-.41-.58-1.38-.55-1.27-1.73,2.39.66,1.12-2,3.51-1.36-.05-.99-.1-1.98-.15-2.96.51-.48,1.31-.7,2.34-.7,3.47-8.95,9.99-15.13,13.68-23.87,2.05-.03,2.7-1.33,2.2-3.67,1.74.07,1.74-1.43,3.5-1.37,1.44-7.94,9.02-10.35,10.39-18.35,6.51-1.46,4.95-10.24,11.3-11.85-.41-.58-1.39-.55-1.28-1.72,1.95-.13,2.9-1.16,5.32-.86,2.66,1.89-.7,3.07,3.1,2.82-2.46,2.68.76,10.53,3.43,9.33.89.15.15,4.49,3.17,4.01-.32,1.84.73,2.13.78,3.53,7.63,6.36,9.09,19.56,16.73,25.91.27,1-.4,1.14-1.13,1.25ZM65.28,138.53c-1.87.82-.53-1.9-2.43-1.07-.9.3-.41,1.9-2.29,1.31-.73,3.12-1.47,6.22-4.4,7.35-.7,3.28,1.68,3.16,2.61,4.63-4.12,3.02-4.14,12.7-11.42,9.48.67,1.76,2.84,1.85,3.16,4-1.56.81-2.72,1.12-3.49,1.36,2.53,2.06-.66,1.55-1.64,3.06-2.54,3.93-3.9,10.12-8.35,11.11-.15,2.88-1.2,4.96-3.89,5.53,1.5,3.08-.88.42-1.71,1.87,3.82.72-2.43,2.61.22,4.16-4.21.89-3.19,6.54-6.11,8.62-.38-1.02.55-3.52-.76-3.53,0,.93.19,2.05-1.1,1.84-.64,1.95,1.94.36,1.31,2.31-2.46.6-2.01,3.84-3.29,5.52,6.18-1.36,16.23-1.47,23.13-1.15.09-.46-.05-1.17.52-1.21,23.01,2.1,41.35-1.48,69.45-2.24-1.29-6.24-6.8-9.22-8.95-12.64-.72-5.27-5.7-5.8-5.92-11.59-2.66.4-2.28-2.11-1.96-3.46-2.36.06-4.51-3.78-2.6-4.63-1.86,1.01-1.99-.34-3.62-1.01-4.29-12.95-14.51-22.09-19.43-32.32.02.6-1.01.79-1.19.05.72-.09,1.39-.24,1.13-1.24-1.65.57-1.57-.76-2.99-.45-2.87,4-4.15,9.45-8.94,11.74,1.25,2.03-.44,2.88-1.57,4.24-.71-2.35-.14-4.62.87-6.58.98-.04.4,1.62,1.27,1.72.13-2.55,2.17-7.4,3.91-4.95-.05-.82.21-1.32.5-1.8Z"/>
  </g>
  <g>
    <path class="cls-2" d="M369.89,154.17c.27.02.53.03.8.05.13.54-.5.21-.81.27,0-.11,0-.22.02-.32Z"/>
    <path class="cls-2" d="M372.11,154.47c.13.14.34.2.62.2-.03.22-.06.45.13.49-.05.34-.68.02-.96.09-.04-.39.3-.33.21-.78Z"/>
    <path class="cls-2" d="M227.82,191.31c.49.21.36.03.95.06-.19.18-.47.26-.37.77-.21-.02-.42-.03-.63-.04.01-.26.03-.53.05-.79Z"/>
    <path class="cls-2" d="M235.63,193.25c-.02.37-.04.73-.07,1.1-.29.03-.79-.21-.65.28-.43-.59-.87-.3-1.04-1.18.73.1.86-.49,1.76-.2Z"/>
    <path class="cls-2" d="M266.87,130.93c.73-.73-.28.95.57.99-.81.74-.55,1.57-.49,2.66-.77-.94.43,1.38-.41,1.41.61.52-.09,1.18.19,1.92-.43-.9-.46.97-.04.64-.54.96-.12,1.32-.49,2.67.58-.65.22.37-.05.63-.27.04-.28-.14-.29-.34-.22.09-.31.33-.36.62.31-.38.22-.16.8-.1-.23.18-.06.82-.67.59-.07.35,0,.59.27.65.55-.14-.43-.09-.13-.49.19.03.29-.02.33-.14.35,0,.03.57.11.8-.23-.03-.44-.05-.49.13.68.16.46,1.18-.1,1.58.32.38.47,1.36-.25,1.42.03.21.39.15.62.2.06.34-.24.28-.49.28-.07.27.11.3.3.34-.84.65.4,1.72-.17,2.69-.26.03-.27-.16-.47-.19,0,.16-.02.32-.03.47.05.24.21-.04.48.03-.59,1.44.32,3.51-.67,5.2,0,.26.73.94-.06.95.39.15.29.74.24,1.28-.26.03-.26-.16-.47-.19.24.92.73,1.83-.13,2.06.14,2.6-.26,5.06-.38,8.23-.64-.64.13.17-.05.8-.64-1.11.26.82-.12,1.74-.28-.55-.33-.15-.34.46.68.3-.1,2.19.11,3.18-.11.03-.21-.38-.13-.48-.46.54.23,3.21-.47,4.74.73-1.57-.16,1.01.57,1.14-.09.31-.62.09-.52.6.57.44.46,1.01.05,1.6-.13.42.31.33.45.51.01.59-.58,1.74-.58,1.55,0,.13.46.23.47.19-.05.23-1.31.95-.26,1.57-.71.89-.44,2.92-.25,3.96,2.6.69,4.73,1.81,7.46,2.39.04.67-.33.87-.41,1.41-1.03-.55-1.84-.04-2.2-.47-.02.34-1.36.54-1.26-.08-.43.47-1.36.38-1.8.83.15-.85-.52.6-.46-.34-1.13.88-3.82-.27-3.73,1.34-.43.04-1.19-.82-2.04-.45-.4.17-3.46,1.14-3.8-.25-.67.52-1.11.74-2.09.34.02-.27.03-.53.05-.79-.52-.04-1.05-.07-1.58-.1-.09-.56.27-.59.22-1.1,1.61,0,2.28-1.92,3.76-1.5.15-1.43,1.92-.99,2.65-1.74.03-1.76.18-2.72.3-4.59.15,0,.31.03.48.03.03-.28-.18-.34-.12-.64-.26-.08-.3.1-.34.3.01-.7.27-1.65.46-2.04-.02-.19-.29-.15-.46-.19.57-.87.56-1.71.95-2.48-.33.05-.34-.44-.24-1.13.4.67.07-.15.64-.12-1.62-.27.86-4.49.09-6.19.89-2.66,1.04-6.22.85-8.21.64.09.1-.33.19-.63.16.11.15.38.46.35.16-.32-.48-.64-.46-.35-.38-.98.64-2.52-.26-3.35.2-.64,1.07-2.19.17-2.53.83-.97.4-1.99.52-3.15,0-.03.14.24.14.33-.03-.98-.13-3.27.77-4.4-.84.53-.11-2.95.18-2.84-.63-.7.34-1.01-.21-1.61.31.2.73-2.05,0-2.54.82-.49.37-1.62.94-2.16-.21-.59-.26.34-.64.11.04-.68.09-1.37.13-2.05.27-.04.29.15.29.34.19-.33.41-1.26-.24-1.13.58-.13.92-1.9.14-2.05.52-.51-.15-.46.09-1.43.53.14.6-.22.67-.59-.09-.03-.21.21-.18.31-.41-1.27,1.22-4.8-.77-5.29-.49,1.05-2.01-.12-2.6.78-.69-.68-2.17-.68-2.76-1.45,2.26-1.35,4.79-2.84,6.78-4,.09-.06.97-.92,1.78-.52.5,1.01,1.84,1.28,1.72,2.81-.24.13-.62.09-.52.61.76.57.64,2.35.09,3.66ZM265.27,130.99c0-.17.54,2.18.37,1.77.12.29.23-1.31.57-1.39.01-.21-.27-.16-.3-.34.91-.65-.1-1.72.47-2.35-.42.14-1.04-.15-.8.1.03.23-.32,2.02-.3,2.21Z"/>
    <path class="cls-2" d="M200.75,165.39c.28.46-.33,1.68.53,1.62.18,1.74.5,4.17.89,5.94.1.52-.44.3-.53.6.8-.23.39,2.33.91,3.24-.16,0-.32-.03-.48-.03.77,1.06.51,2.71.2,4.31.17-.09.19-.35.5-.29-.98,1.5-.31,5.18.05,6.52-.08.34-.85.07-.95-.06.12.24.09.62.6.52-.04.52,0,1.13-.54,1.07.16.21.43.32.26.81.13-.07.27-.14.48-.12.22.58-.54.05-.5.45,0,.18.28.15.46.18-1.03,1.57.03,3.56-.37,5.54.26.32.54.62.9.85.04-.28-.17-.35-.12-.64.41.49,1.4.46,1.34,1.36.92,0,1.44.33,1.52,1.06-.7.12-.95-.91-.97.25-.51-.14-.8-.49-1.22-.71-.46.25-.18.4-.21.94-3.18.13-4.56.15-7.76-.5-.34-1.11-.86-1.43-.15-2.72-.52-3.74.09-7.6.24-10.95.08-.36-.44-.21-.44-.5-.08-.54.36-.51.52-.77-.05-.24-.21.05-.47-.03.45-1.37-.92-2.25.06-3.33.13-.42-.31-.34-.45-.51.41-3.08-.53-5.22-.08-8.58-.01-.19-.28-.15-.46-.19.16-3.88-2.52-5.31-5.01-6.05-.14-.04-.16.31-.18.31-.19-.06-.24-.42-.44-.51-1.19-.52-2.6-.07-3.8-.25-.18.02-.15.28-.19.46-1.91-.03-2.66,1.28-4.23,1.63-1.17,1.23-2.93,1.19-3.37,2.96-.22.88.33,2.25.26,3.35-.21,3.29-1.68,8.15-1.08,11.69.03.17.31.13.3.34-.75,2.9.6,6.95-.32,9.82.58-.07.45.6.38,1.46.21,0,.42.03.64.03.09-.37-.73.04-.45-.5.58.14.95.46.88,1.17.13-.25.77.09.66-.44-.35.87,1.25,1.36.97,2.13-.58.06-.14-.76-.58-.83-.61.32.38.46.1.96-.55.03-1.21.06-1.73-.27-.17.03-.12.31-.33.3-2.9-.45-5.35.14-7.09-.94.08-.37.15-.74.67-.59.05-.45-.52-.34-.25-.97.51.31.71-.03,1.42.09.08-.42.61-.33.68-.76,0-.35-.67-.11-.94-.22.15-.17.23-.4.21-.77.64.51.39.2,1.22.71.77-.72-.42-2.11.32-2.36-.96-.54-.31,1.17-.75,1.7-.46.1-.4-.25-.78-.21.09-.34.53-.62.03-.32-.45-.29.19-.78.38-.92-.21-.6-.27.35-.65.11.44-3.1.31-5.8.9-8.84-.19.02-.15.28-.19.47-.08-1.39-.63-2.72-.16-4.78-.19,0-.15.27-.19.46-.43-2.43.31-3.95-.11-5.57.96-.04.1-1.44.1-1.59s.37-.12.35-.45c-.15-2.44,1.07-6.02.26-8.88-.03-.27.14-.29.34-.3-.63-.53-.37-2.13.18-2.69-.21-.23-.59-1.66.11-1.74-1.03-1.7.86-3.98-.15-5.09.4-2.67-.02-4.49.46-7.12-.15-.15,0-.58-.44-.5.42-.46.26-.58.07-.95-.06-.34.24-.28.49-.28-.25-2.78-.1-4.75-.12-7.79-1.16-.26-2.36,1.13-2.89.45-.31.33-.8.45-1.31.55-.05-.25-.49-.16-.27-.65-.91.83-1.8,0-3.35.09.45-1.59,2.95-.83,3.2-2.65,2.47-1.09,4.2-3.02,5.88-5.02.5.11.58-.25,1.13-.09.18,0,.15-.28.18-.46.32.02.64.04.95.06-.13,1,.82.15,1.4.41.88,1.79.59,4.53.21,6.52.38.06.5,1.63-.1,1.58.46.53-.12,1.71-.18,2.7-.08,1.3-.02,3.76-.05,5.71,0,.49-.54.7-.4,1.24.18.69,0,1.8.15,2.56-.31,3.27-.67,8.63-.64,12.19.94-.23,1.93-.4,2.02-1.62.71-.09,1.06-.61,1.35-1.18.49.13.51-.27.79.04.82-1.07,2-1.71,3.32-2.17-.03.02,0,.32-.01.32,1.43-.25,1.9-1.2,3.11-1.38.11-.02,1.49.55,1.9.12.16.4.58.43.79.05.46.44,1.03.95,1.55.58.28.06.35.3.28.66.92.32,2.13-.49,2.03.6.49.23.15-.5.65-.27-.02.27-.04.53-.06.8.44-.23,1.67,1.14,1.93,2.03.62-.56,1.03.49,1.03,1.34.37.09-.04-.73.5-.45.7.64.98,2.42,1.75,2.49.21.05-.42,1.11.58.83ZM175.16,131.31c.67.28.9-.67.37-.77.09.5-.56.15-.37.77ZM173.64,132.8c-.1-.58,1.15-.49.54-1.07-.19.24-.99.66-.54,1.07ZM173.22,136.74c-.32-.03-.63-.04-.95-.06-.07.6.88.59.95.06ZM167.48,137.01c-.14.48.86.71,1.09.39-.18-.04-.16-.27-.13-.49-.48-.15-.58.12-.96.1ZM187.79,159.46c-.04.19,0,.46-.19.46,0-.19-.02-.37-.3-.33-.08.53-.92.21-1.01.73,1.12.76,2.82-.71,3.64.24.03.38-.71-.14-.51.45,1.35-.14,1.76.37,2.57-.32-.19-.33-1.04-.09-.74-.84-.66-.12-1.17-.09-1.29.4.01-.21.03-.42.04-.64-.89-.34-1.29.16-2.21-.15ZM192.5,160.4c.28.15.62.25.76.52-.16-.52.52-.09.36-.61-.81.34-.76-.4-1.08-.55,0,.21-.03.42-.04.64ZM184.57,160.05c-.03.27,0,.49.12.64.43.15.42-.21.8-.11-.02-.24.09-.58-.12-.64-.08.52-.65.58-.8.11ZM192.3,163.25c.21-.37.64-.34.8.05-.03-.31.23-.29.35-.45-.35,0-.5-.16-.44-.51-.74-.05-1.48-.09-2.22-.15-.18.95,1.24.51,1.52,1.05ZM181.01,163.47c.73-.18,1.49-.35,1.65-1.17-.15,0-.31-.02-.47-.03-.21.6-1.07.48-1.19,1.19ZM187.72,162.96c.35.33,1.71.36,1.76-.21-.54.13-1.69-.46-1.76.21ZM190.99,163.96c.05.76.11.05.76.52.06-.7-1.36-.88-1.87-.59.58.07.6.26,1.11.07ZM196.16,165.1c.01-.21.03-.42.05-.64-.22,0-.43-.03-.64-.04-.24.61.4.44.59.68ZM175.79,168.05c.76-.64-.22-2.09.52-3.15-.15-.16-.29-.33-.45-.51.01,1.5-.46,2.51-.07,3.65ZM198.15,168.72c.07-.33.34-.4.52-.6-1.3.15.25-1.29-.87-1.33-.34.78.22,1.17.35,1.93ZM195.75,169.04c.61.13.59-.46.98-.58-.31.03-.3-.23-.45-.34.43.76-.59.17-.54.92ZM199.47,170.39c.89-.33,1.01-.86.92-2-1.01.24-.01,1.69-.92,2ZM176.12,172.68c.17-.7-.15-.96-.06-1.59-.15,0-.31-.03-.47-.03.13.58.09,1.31.52,1.62ZM196.41,175.91c.5-.44-.38-.43-.09-1.13-.8.07,0,.89.09,1.13ZM196.52,176.71c.11-.33.76-.94.39-1.25-.08.46-1.09.94-.39,1.25ZM200.67,176.35c.36.06.6,0,.65-.27-.99.21-.23-1.2-.58-.83-.38.32.09.54-.08,1.11ZM172.72,176.11c1.1,1.07-.32,3.64.63,4.97.61-1.85.76-4.76.11-6.51.02.82-.02,1.56-.74,1.54ZM175.31,175.33c.05.31-.28.95.27.82.02-.27.03-.53.05-.79-.11,0-.21-.02-.32-.03ZM196.5,177.03c-.18.36-.33.76-.4,1.25.61,0,.04.13.12.48.5.21.83.56.71,1.31.59.17.25-.73.39-1.08-1.16.12-.2-1.64.14-2.22-.52.07-.32.71-.97.26ZM175.14,178.02c.42.13.67-1.32.23-1.09-.35.04-.11.77-.23,1.09ZM175.09,178.82c.15,0,.31.02.46.03-.01-.24.1-.58-.12-.64-.08.24-.51.1-.35.62ZM197.25,182.48c-.02-.7-.81-.94-.37-1.62-.47-.09-.31.56-.67.59.95-.55-.03,1.25,1.04,1.02ZM172.95,182.49c.58.66-.22.74-.12,1.74.73-.44.34-.83,1.02-1.04.02-.27-.44-.12-.46-.35,0-.19.06-.45-.12-.49-.04.13-.14.18-.32.15ZM196.91,190.09c.86-.53.57-2.41.04-3.02-.25,1.28-.08,1.76-.04,3.02ZM197.12,196.77c.61-.4.35.44.25.97.1.09,1.11.26,1.13-.24-.09-.37-.89-.11-.75-.69.26-.06.62-.87.38-.93-.26.43-.98.15-1.12.09,0-.1-.01-.19-.15-.17.12.28,0,.79.25.97ZM199.18,196.75c.24-.07.81.24.8-.1-.24-.09-.1-.51-.61-.36-.01.22-.1.34-.19.46Z"/>
    <path class="cls-2" d="M292.02,152.11c.13,1.51-.43,3.06-.35,5.38.24.35,1.47.47,1.74-.04,2.63.58,5.24,1.44,6.83,2.51.1.36-.82.52-.04.64-.88.56-2.29-.31-3.35.1-.47.18-2.04.68-3.07.75-.15,0-.09-.33-.3-.33-.96-.04-2.26.29-2.92.93.65.59.95,1.87.44,3.04.14-.08.27-.15.49-.13-.57.71-.95,2.75-.2,3.16-1.38,4.99-.88,9.26-1.46,15,.38.09-.04-.73.51-.45-.26.76-.89,1.74-.17,2.54.09.49-.56.15-.37.76.83,1.83.37,5.49,3.44,5.78.67-.26,1.29-.57,2.26-.49-.58.21-1.19.34-1.79.52.4.98,1.9-.64,2.05.13.43-.41.76-.94,1.06-1.51,1.41.03,2.38-.47,2.51-1.9.35.19.95.15,1.25.4-.08,1.01-.57,2.45-.31,2.36,0,.39-.22.26-.16-.02-.8.4-1.08,1.38-1.57,2.12-.66,0-.17-.62-.43-.66.02.14-.07.15-.17.15-.55.14.43.08.12.49-1.12.09-.6.83-1.48.7.05-.16.32-.09.34-.29-.16-.39-1.07-.21-1.12.09.07.69.87-.18.74.68-.45.35-.88-.34-1.27.08-.23-.05-.03-.47-.29-.49-.33-.1-.31.2-.34.45.06-1.06-2.11-.15-1.87-.59-.37-.09.04.73-.5.44-.29-.17-.83-1.19-1.86-.76-.27.63.24.58.41.82.03.83-.9-.22-.96.26-.42-.46,0-.72-.23-1.29-.65.23-1.1.29-1.74-.12-.22.21-.14,1.42.38,1.46-.15.62-1.31.09-1.77.36-.98-1.37-1.53-2.07-1.64-4.07,0-.15-.17-.14-.3-.18-.03-.27.15-.29.33-.3-.61-3.52.26-6.12-.35-9.24.65-1.45.19-2.76.25-3.8-.18-.61.71.02.52-.6-.05-.24-.21.05-.48-.03.69-4.3.97-8.95,1.45-14.84-1.96.03-3.52.02-5.87-.07-.25-.43-.4-.95-1.22-.87.32.2.19-1.37.07-1.11.61-1.32,3.74-1.7,4.5-3.21,1.17-.26,2.21-.64,2.96-1.39.27-5.43,0-8.48.23-13.34.5.06.5.55.4,1.14,0-.53,1.35-.7.8.05,1.45-.83,3.17-3.33,5.06-2.05-.35,1.13.06,2.78-.09,3.81-.6-.1.06,5.3-1.1,7.07ZM286.95,144.48c.42,0,.88-.81.55-1.07-.06.49-.55.5-.55,1.07ZM287.46,170.88c-.74.2.16-1.81-.56-1.14.35.15-.21,1.86.56,1.14ZM298.53,191.14c-.15.52.22.6.59.68.04-.39.08-.76-.27-.81-.04.12-.14.17-.32.13ZM292.38,192.97c.59.09,1.07.09,1.14-.4-.15-.18-1.11-.4-1.26-.09.18.04.15.27.12.49Z"/>
    <path class="cls-2" d="M369.29,163.51c-.33-.09-.32.21-.34.46-.26.03-.26-.17-.46-.19.07.38.18.74.07,1.27-1.38-.64-2.05-1.92-3.65-2.46-.77-.26-1.66-.11-2.52-.33-1.81-.46-3.23-1.11-4.72-.78-.7,1.23-2.07.65-2.52,2.06-.22-.05-.02-.47-.28-.5-.46.78-1.17,1.28-2.31,1.28.46.88-1.11.27-.89,1.37-2.7-.3-.92,4.51-2.13,5.9.18.39.4.75.22,1.44-.13-.03-.15-.17-.31-.18.28,2.04-.46,4.6.22,6.53.04.27-.15.29-.34.29.83,1.26-.27,3.57.64,4.81-.15-.02-.32-.03-.48-.03.03.43.36.58.42.98.25-.22.82-.09,1.28-.07-.28.93.15.9-.12,1.74.52-1.18,1.79,1.04,2.36.31-.15,1.09.53,2.22.29,2.88-.49.13-.26-.37-.28-.65-.14.25-.51.21-.51.6-.33-.06,0-.7-.44-.66-.4.33-.59.92-1.48.7-.14-.22-.11-.59-.26-.81-.33.08-1.03-.27-1.12.09,0,.3.64-.24.61.35-.03.49-.73-.13-.53.92-.37.2-.57-.44-.64-.03-.44.03.43-.57-.11-.64-.5-.18-.26.5-.52.6-.4-.04-.81-.09-.76-.53-.77.11-1.99.42-2.52-.32-.88.58-1.16,1.31-.97,2.79-.09-.36-.65-.32-.93-.53.03-.37.06-.74.08-1.11-.54-.71-2.36-.31-2.61-1.28-.18.79-2.12.48-2.05-.29-.57-.13-.5.45-.99.41.19-.61-.52-.44-.24-1.13.89-.34,1.99-.46,2.17-1.61,1.74-.06,2.86-.82,3.78-1.82-.06-.57-.23-1.4.41-1.56-.73-1.03-.49-4.09.34-5.22-.13-.51-.44.15-.49.28.11-.73.01-1.28,0-2.39.07,1.5.43-1.44.3-2.2-.06-.36-.89-.51.03-.47.28-.58-.7-.08-.43-.67.15.02.32.03.47.03.06-.34-.09-.51-.44-.51.89-.18-.42-.93.38-.93-.3-.32-.64-2.17.14-2.05-.34-.2-.32-.72-.41-1.14.14-.13.45-.06.49-.28-.3.14-.93-.32.03-.47-1.05-2.5.78-6.14.23-8.4-.28-.55-1.36-.4-1.18-1.35-.61-.06-1.47.09-1.23-.71-1.15.24-1.78-1.19-3.08-1.31.07-.32,0-.5-.29-.5.66-.22,1.26-.5,2.1-.5.18-.12.96-.86.37-.77,1.13-.49,1.77.29,2.69.18.56-.07.99-.73,1.49-.85.07-.03.2.34.46.34,1.51-.03,2.91-1.66,4.71-1.44-.46,2.25.46,3.55-.31,4.6.41.38.39,1.15.36,1.93,4.18-2.66,8.18-5.53,13.03-7.42.84.05,1.69.1,2.53.16.93.71,2.6.81,3.55,1.5.08.28-.24.92.1.96-.03.18-.3.11-.49.12-.28.7.44.52.25,1.13.19,0,.15-.27.19-.46.23,2.11-.68,6.26-.4,8.56ZM359.28,156.17c.58-.69,2.08-.36,2.02-1.77-.21-.02-.42-.03-.63-.04-.11.89-1.72.99-1.39,1.81ZM367.51,156.72c-.15-.52.55-.95.08-1.26,0,.65-.62.16-.66.43.18.08-.31,1.01.58.83ZM345.17,158.12c.6-.12.28.56.59.68.44-.75.52-1.41.63-2.18-1.01-.19-.45,1.41-1.22,1.5ZM365.54,160.08c-.01.22-.02.42-.04.63.37.03.73.05,1.1.08-.12-.55.56-1.05.1-1.43-.34.27-.77,1.05-1.16.72ZM357.3,159.7c.83.09,1.6.13,1.63-.68-.75,0-1.46.03-1.63.68ZM363.72,161.24c-.85-.3-.02-.38-.09-1.12-.53-.14-.71.98-.4,1.25.06-.57.5.37.49-.13ZM345.6,161.32c-.13-.88.35-1.62-.19-1.92-.06.76-.11,1.49.19,1.92ZM362.01,160.64c-.01.16-.03.32-.04.48.34-.08,1.09.32.98-.26-.2-.24-.67-.46-.94-.22ZM366.12,160.92c-.34.34-1.25.04-1.16.88.64.09.83.56,1.72.42-.22.64.52.45.58.84-.23-1.03-1.53-.93-1.13-2.14ZM344.86,172.72c.15-.4-.22-1.38.39-1.25-.13-.33-.26-.66-.4-.98,0,.63-.46,1.63.01,2.23ZM344.49,178.25c.26-.5.11-3.08.06-3.33-.15,1.05-.28,2.09-.06,3.33ZM348.05,184.68c.16-1.68-.1-2.99-.68-4.01.5,1.37-.09,2.84.68,4.01ZM344.51,187.95c.03-.18.25-.15.48-.13.15-.58-.2-.71-.75-.69.07.29.04.67.27.82Z"/>
    <path class="cls-2" d="M327.68,153.32c.09-.37-.72.04-.43-.5,1.28.93,1.95,1.53,3.16,2.59-.02.37-.04.74-.07,1.11.66-.46.68-.08,1.26.09-.34.84-.01.4-.38,1.08.52.02.38-.7,1.14-.4-.1.69.03,1.16.38,1.45-.04.52-.74.29-.55,1.08.01.19.28.15.46.18-.17,1.95.38,3.26.81,4.67.26,0-.12-.67.08-1.11.18.04.11.3.12.48.51-.7-.07-1.73-.33-2.24.06-.49.65-.39.55-1.07-.34-.4-.56-.23-1.1-.23.07-.91.15-1.82,0-2.54.59,1.42,1.66,2.41,1.78,4.25-.29-.09-.08-.63-.6-.52.7,1.22.4,3.33.63,4.96.58.14.7,1.7,1.28,2.31-.37-.15-.74.17-.16.15-.42.55-.63-.34-.76-.52-.22.03-.16.39-.21.63-.32-.07-.11-.6-.43-.67-.61.32.37.46.09.96-.52.1-.18-.53-.43-.66-.78.14-1.57.25-1.96.82-3.63-.5-9.78,1.73-14.19.82-.3.47-2.26.9-2.25.33-.47.73-1.1.08-2.26.49.11.4-.4,1.34.24,1.28-.95,8.45,3.56,12.9,11.21,13.29.44-.09-.16.74.27.65.47-.03.41-.67.7-.91.45,0,.41.72.49-.12.13.17.58.09.44.5.09-.53.92-.2,1.01-.72.27-.04.29.14.3.34.18-.02.15-.28.19-.46,1.2.35,1.13-.76,2.25-.49,1.56-.58,2.42-2.57,3.84-2.77.58,1.41-.25,2.7-.53,3.3-.06.13.3.19.31.18-.49,1-1.56,1.25-1.9,2.41-.54-.16-.62.2-1.11.09.46-.78,1.59-.79,1.71-1.95-1.25.33-2.08,1.51-3.16,2.17-.37.23-1.11-.22-.98.57.4.22.45-.73.47.03.39-.41,1.38-1.02,1.95-.66-.28.49-1.15.27-1.18,1.03-.36-.07-.72-.45-.65.27-.3-.03-.08-.53-.45-.51-.47.11.48.15.12.64-.62-.27-.52.31-.96.26,0-.16.02-.32.03-.47-1.71,1.04-5.04,1.02-6.5-.27-.63.27-1.37.15-2.02-.77-.65.12-.64-.05-1.41-.09.18-.61-.53-.43-.25-1.12-.22.03-.15.38-.2.61-1.87-.29-2.54-1.64-3.98-2.32-1.56-2.41-3.58-4.41-4.61-7.29-.01-.19-.28-.15-.47-.19-.39-2.99-2.02-5.84-1.29-9.3.53.09.33-.65.83-.59.01-3.51,1.65-6.74,2.41-10.16,1.86-1.07,2.67-3.3,4.43-4.49,1.36-.09,2.26-.7,3.4-1.05.36.59,1.13-.13,2.08-.34,1.86-.42,3.96.15,5.54.36-.02.26-.03.52-.05.79.37-.09.1-.9.69-.76.21.47.6,1.37,1.19,1.03ZM312.93,157.93c1.13-1.49,2.45-2.77,3.91-3.88-1.97.54-3.08,2.05-3.91,3.88ZM329.87,156.48c.12-.61-.46-.58-.57-.99-.12.6.16.85.57.99ZM325,155.53c-3.55-.53-5.01,1.32-7.45,2.06-2.2,2.32-5.19,5.52-4.02,10.54,1.51-.53,4.1-.33,5.41-.13,1.68-.92,5.19.07,7.17-.33.4-.08.48.07.63.04,1.15-.22,2.84-.92,4.49-.51.37-5.35-1.71-8.54-5.36-10.36-.04-.39.71.13.51-.44-.4-.21-.52-.64-1.07-.71-.04.4-.14.75-.37.93.08-.88-.71.22-.63-.2,0-.21-.27-.16-.29-.34.82-.15.32-.19,1.1.07.03-.27,0-.5-.12-.64ZM329.87,159.03c-.52-.95-1.03-1.88-1.91-2.51.59.88.89,2.01,1.91,2.51ZM330.99,161.17c.62,1.09.61,2.75,1.01,4.04.14-2.43-.18-2.76-.65-4.49-.04.25-.43.1-.35.46ZM332.25,168.72c.23-1.04.42-2.65-.28-3.04-.14,1.22.23,1.99.28,3.04ZM332.92,168.13c.47.27.55-1.01.05-.8-.01.27-.03.53-.05.8ZM312.91,175.24c0-.47.27-2.53-.04-1.75,0,.59-.33,2.28.18,1.92-.1-.02-.18-.04-.15-.17ZM312.8,176.98c.16.02.32.03.48.03-.27-.57-.27-.42.06-.95-.31.03-.3-.22-.46-.34-.03.42-.06.84-.08,1.26ZM311.18,179.89c.11-.6-.17-.85-.58-.99.12.4.09.92.58.99ZM325.63,187.35c-.24.34-.54.82-.08,1.11.12-.98.83-.27,1.62-.53.05-.74,1.02-.42,1.18-1.03-1.18-.15-1.51.65-2.73.46Z"/>
    <path class="cls-2" d="M225.74,154.95c.22-.44.17.27-.02.31.68-.18,1.14-.63,1.51-1.17,1.35,0,2.37-.35,3.38-.73,4.82-.7,7.69,1.71,10.72,3.71-.02.32-.03.64-.06.95.25-.72.47.53.65-.27.34.19,0,1,.74.84.05.78-.02.75-.09,1.58.44.06-.13-1.05.52-.77-.09.66.18.64-.08,1.11.26-.05.17-.48.66-.27.18.44-.22,1.39.55,1.31.09.49-.55.15-.36.76.54-.43.62.03.75.69-.36.06-.21-.32-.46-.35-.19.52.18.53.61.52-.18.14-.09.58-.51.45.12.46.43-.21.62.2.31,1.43,1.35,3.77.95,4.83.01.19.28.15.47.19-.41,1.43.17,2.69-.43,4.11-1.24-.07-2.75-.41-3.05.59-2.5-.19-4.63.82-6.53.21-.4.34-2.12.81-2.39.17-3.49.69-8.55,1.01-12.95,1.22-.15.27-.43.4-.52.76.38,2.6.24,6.13,2.34,7.94,0,.85.32,1.42,1.01,1.65-.02.52.41.64.24,1.28.99.05,2.08,1.12,2.73,1.93.83.27,2.12.13,2.32.95,1.02-.08,2.82.39,3.42,1.18,3.12.34,6.39,1.08,8.15-.58.34.14,1.25-.21,1.08.39.31-.77.6-.3,1.77-.52-.11.49.25.58.09,1.12-.21-.17-.18-.55-.44-.66-.42.27.11.56-.22.94-.32.03-.49-.06-.45-.35.15,1.19-2.02.46-2.18,1.77-.64-.4-1.2.58-1.11-.07-.31.32-.51.77-1.01.88.05-.39-.33-.4-.43-.66-.17.09-.18.35-.5.29-.04.53.25.69-.21.94-.25-.53-.97-.64-1.03-1.34-.58.04-1.12-.09-1.76.21-.05-.26-.49-.17-.28-.65-.3.04-.16.6-.66.43-.06-.4-.35-.59-.58-.83-.42.23.65.41.41.98-.12-.11-.41-.27-.48-.03-.4-.1-.22-.7-.57-.83-.37.39.16.84-.67.44.23.24.52.43.58.82.63-.15,1.17.35,1.45-.38.72-.18-.06.95.42.98-.81.36-2.51.22-2.72.3-.47-.46-.77-.5-1.39-.57-.18,0-.16.28-.19.46-3.24-.58-5.25-1.33-7.29-2.86-.15.45-1.25.04-1.23-.56-1.27.25-1.71-1.45-2.23-2.36-.17.09-.19.34-.49.28-.45-1.48-.61-2.27-1.71-3.13.35-.64-.49-1.08.27-1.57-.11-.15-.79-.18-1.25-.4.12-1.89-.77-3.2-.65-4.65,0-.19-.27-.15-.46-.19-.1-1.39.49-2.31-.29-2.88.6-.95-.23-1.67.61-2.02-.38-1.01.28-2.23-.49-2.26-.03-.37.46-.15.5-.45-.08-.47-.51-.64-.39-1.29.15-.12.37-.15.64-.12-.56-.45.13-1.82.64-2.5.28-.58-.71-.08-.43-.67.49.22.55.08,1.09.4,0-.15-.19-.14-.31-.18.05-.17.32-.09.34-.3-.29-.47-.39.49-.62-.19,0-.11.01-.21.02-.33.63.54-.26-.55.65-.27-.73-.4.36-.71-.25-.98.03-.57.84-.27.7-1.06.34-.06.28.24.28.49.35-.45.28-.87.25-1.41.29,1.1,1.08-1.13.21-.78.39-.25,1.17-.03,1.46-.39.03-.47.07-.95.09-1.42.28,0,.32.21.62.2-.09-.16-.35-.19-.28-.5,1.24-.02.29-1.14,1.33-.87-.15-.54-.3-.27-.09-.95.19-.12.43-.18.8-.11.13-.5-.27-.51.05-.79.71.2.75-.39,1-.73.22.06.03.48.29.5.38-.49.44-.48.54-1.07.55-.25,1.37.44,1.32-.71.51.3.65.06.97-.25ZM237.68,169.23c-.03-.6.52-.54.84-.74-.01.51.31.73.4,1.13.2-.76,1.28.12,1.61-.21-.4-3.27-1.38-6.05-2.28-8.89-1.71-1.23-3.19-2.67-5.84-3.08-1.77-1.47-3.82.75-5.47,1.07-.23.39.05.51-.2.63,0-.19-.24-.19-.46-.19-.01.67-.84.4-.71,1.22-.8-.34-1.04.81-.49.13-1.66,2.22-2.7,3.68-3.15,6.79-.67.73-.71,2.17-.69,3.29.69-.1,1.06-.41,1.11.07.12-.3.5-.33.67-.58.14.51,0,.35-.07.95.49.35.55.22,1.09.39.25-.17.23-.64.67-.59.02.2-.06.45.13.49.18-.58.85-.61,1.18-1.04-.25.79,1.03.41.48.03.02.27-.25.41-.33.14.3-.56.76.07,1.13-.24-.02.2-.22.2-.19.46.26.02.53.03.79.05.11-.51.4-.8.86-.9-.12.16-.41,1.34-.06.95-.07-.9.63-.28.82-.58-.19-.03-.37-.07-.3-.33.22.02.36-.05.49-.13.01.19-.06.45.12.49.13-1.05,1.5-.05,1.96-.83-.02.21-.03.42-.04.64.65.23.33-.65.69-.75.37.46.24.45.77.21-.06.19-.03.98.13.48.1-.22-.13-.82.21-.77-.01.26-.03.52-.05.79.4-.18.48.11.64-.12-.21-.12-.27-.36-.27-.65,1.39-.13,3.48-.64,3.79.25ZM235.77,169.26c.24.04.59-.02.63.2-.03.22,0,.61.14.33.15-.47-.25-.48-.1-.96-.15,0-.31-.02-.47-.03,0,.21-.1.34-.19.46ZM241.45,160.1c1.3-.74-.49-1.99-1.12-2.46.03,1.13,1.04,1.37,1.12,2.46ZM218.11,164.61c.7.06.85-.5,1.02-1.04-.2-.03-.2-.22-.46-.2,0,.63-.23,1.01-.57,1.24ZM217.11,167.89c.04-.12.03-.31.18-.31,0,.2.01.38.3.33.26-.85-.49-1.1.13-2.05-.66.04-.65,1.74-.61,2.03ZM235.36,170.66c.04-.18.26-.15.49-.12.07-.41-.01-.69-.43-.67-.09.09-.42.72-.06.79ZM216.18,172.43c.3-.3.66-.06.2-.46.03-.25.41-.09.34-.46-.54-.21-.68.9-.54.92ZM220.12,177.93c-.19-.3-.05-.58-.08-1.28-.69-.27-.07.95-.53.92-.04-.12.01-.31-.15-.33-.06.41.37,1.15.76.69ZM216.52,179.45c.48.09.3-.56.68-.59-.3-.05-.37.15-.65.12.21-.64-.52-1.23-.73-1.01.37.37.61.86.7,1.48ZM216.73,181.05c.23.04.12.39.11.64.35.24.62-.37.64.04.25.74-.64.17-.52.76.71.52.78,2.22,1.88,2.82.03-.37.05-.74.08-1.11-1.28-.58-.9-2.11-1.39-3.11.43-.12.46-.77.06-.95.79-.23-.28-.54.38-.92-.49-.21-.36-.05-.96-.07-.06.81.04,1.07-.51.6.15.82.19.32-.07,1.11.37.03.49-.24.96-.1-.05.24.01.59-.2.63-.21,0-.14-.93-.45-.34ZM221.54,190.1c-1.15-.73-1.54-2.13-2.67-2.88.24,1.44,1.3,2.94,2.67,2.88ZM223.62,189.91c.65.13.99.53,1.21,1.04-.03-.67.58-.14.63.04.09-.63-.31-.82-.22-1.44-.53-.3-1.56-.66-1.62.36ZM230.22,193.37c.09-.82-.29-1.24-.86-1.49.3-.4,1.26-.04,1.47-.53-.12-.05-.17-.15-.14-.34-.69.7-1.22-.5-1.92.2.02-.52-.94-.95-1.39-.57.54-.13.22.51.26.81-1.07-.36-1.07.8-1.92.2.2.61-.71-.02-.52.6.62.26.58-.25.82-.43.89.96,2.61,1.19,4.19,1.55ZM231.34,193.28c-.21-.32-.21-.82-.57-.99-.1.49.27,1.34.57.99Z"/>
    <path class="cls-2" d="M152.21,159.21c-.34.21-1.05.52-1.27-.08-2.96.86-6.11,2.69-6.34,7.21-.16,0-.32-.03-.47-.03-.14.67.04,1.06.05,1.59,1.99,1.72,5.75,3.82,9.32,3.15.41.06-.24.26-.03.64.48-.3.9-.67,1.78-.52-.09.24-.51.1-.36.61.15.33.93-.19.75.69.31-.58.44.27,1.09.23.25-.18.34-.52.38-.93.43-.21-.22.88-.09,1.43.13-.25.52-.21.51-.6.33.06,0,.7.27.81.34.05.51-.09.5-.45.91.55,1.69,1.48,2.76,1.45-.6,2.11,1.31,2.29,1.99,3.63.63-.47-.61-.55-.4-1.14.85.25.64,1.43,1.81,1.39-.02.37-.04.74-.07,1.11-.26.03-.26-.16-.46-.19-.06.5.03,1.17-.25,1.42.26.02.52.03.79.05.42.08-.09-.89.52-.6.22.82-.31,1.52.51,1.93-.02.26-.84.84-.06.95-.3.94-.06,3.28-.15,4.75-.23-.04-.02-.47-.28-.5-.35,1.96-.91,2.79-1.42,4.68-.27.04-.29-.14-.3-.34-.16.4-.06,2.05-.89,1.54.29.47-.33,1.29-.87,1.05.11.15.15.37.12.64-.58.26-1.15.51-1.35,1.19-1.3.86-3.06,1.19-4.86,1.43-.17.03-.11-.33-.14-.33-1.96.1-4.16,1.04-5.27.29-.98.43-2.49.55-3.16-.21-.47.21-2.23.17-2.53-.16-2.63,1.77-3.07-.17-2.65-3.19.15.11.14.37.46.34-1.15-1.83.8-4.45,1.24-6.91.38-.03.61-.22,1.12-.09-.29,2.35,1.22,3.11,1.08,5.31,2.1.45,3.47,1.3,5.36.67,1.87,1.32,5.12-.56,7.52-.78.4,0,.29-.57.52-.77.9,0,.98-.92,1.67-1.16.76-2.69.65-6.3.6-9.17-.65-1.67-2.84-1.99-3.75-3.43-2.28-.68-4.64-1.76-6.86-2.04,0-.21.02-.42.03-.63-.36.92-3.28.64-3.97.06-.24.52-1.25.16-1.92.19-2.29-1.76-4.61-3.84-4.95-7-.14-1.3-.25-3.66.34-5.22,0-.03.45-.09.48-.13.17-.25-.02-.79.06-.95.06-.13.43-.04.49-.12.12-.21-.05-.58.04-.8.18-.4.83-.54,1.18-1.03.18-.25.15-.81.39-1.08.3-.35.85-.42,1.16-.72.49-.48.84-1.5,1.54-1.65.27-.06.02-.34.18-.46,1.22-.92,3.54-1.22,4.07-1.48.27-.04.29.14.29.33,3.95-.88,8.2,1.43,11.5,1.54-.12.34.29.25.28.5,2.75-.42,2.3,3.03,1.77,4.56.35,1.12.02,3.42-.78,4.55-.31-.02-.63-.03-.95-.05-.17-1.89-.98-3.22-1.6-4.72.66-.17.49.38.93.38.59-.91-.95-.43-1.22-.71-.04.28.17.34.12.64-1.34-.23-2.33-.76-3.42-1.18-.07.27.1.3.3.34-1.1-.43-3.64-.89-4.82-1.74ZM141.35,167.4c.09-.61.58-1.92-.17-2.23-.05.69-.43,1.77.17,2.23ZM145.99,193.76c.29-.7-.59-.38-.75-.68.09.37.24.68.75.68Z"/>
    <path class="cls-2" d="M238.97,168.83c.12-.76.88,0,1.11.08-.12.18-1.06-.07-1.11-.08Z"/>
  </g>
  <g>
    <path class="cls-2" d="M365.55,206.45c0,.92.18.79-.05,1.62-2.8.55-5.35.2-9.5.5-3.01,6.08-1.62,15.74-3.72,22.39-.54.04-.87.27-1.62.15.12-.95.05-1.74-.41-2.23-.27-.81.78-.39.51-1.19-.55-.92-.69-3.39.14-4.21-.19-3,.15-9.84,1.36-14.02-3.71-.39-6.45-.03-10.85-.96-.27-1.49,2.36-.91,1.91-1.94,1.78.65,3.76-.47,5.1-.44.29,0,.58.4.46.42,1.1-.15,1.75-.83,2.57-.93,1.13-.13,1.69.39,3.24.51.34.03,1.5-.8,2.29.07.61-.05.67-.62,1.64-.35.43.4,2.16.81,2.54.08.8.71,2.87.4,4.38.54Z"/>
    <path class="cls-2" d="M302.82,206.88c.76.35,1.28.93,2.04,1.28,2.15,6.91,5.05,13.22,8.66,18.95-.21,1.35.58,1.88.36,3.23-.29.27-1.21-.03-.94.77-1.68-2.47-2.89-5.34-4.14-8.16-1.22-.31-2.92.93-3.24.1-1.74.84-3.74.27-5.81.62-.53,2.74-1.4,5.17-2.31,7.56-1.17.23-1.22-.46-2.08-.47,1.53-1.86.33-5.16,2.31-6.75-.32-.91.31-2.9,1.04-3.78-1.39-1.73,1.74-4.37.64-5.81,1.48-2.2.65-6.55,3.48-7.53ZM300.74,221.48c2.84-.46,4.82-.2,6.73-.79-1.13-3.25-2.11-6.62-4.35-8.97-.76,3.15-2.02,6.93-2.38,9.76Z"/>
    <path class="cls-2" d="M151.99,204.33c.2-.03.21.09.23.21,2.02.68,4.44-.08,5.52,1.18,4.52.16,4.97,3.65,6.75,6.03-.09,1.08-.78,1.62-1.22,2.38-1.92.09-3.16.81-4.21,1.68,1.81.21,2.24,1.56,3.39,2.32.31.27.21.87.19,1.4,2.44,1.84.78,6.62.16,9.26-.53-.09-.85-.34-1.6-.25.51-1.74-.61-2.11-1.31-2.86-.31-.76.66-.36.5-.99.11-.42-.31-.39-.67-.42-.57-2.67-1.25-5.25-3.03-6.93-1.53.13-4.36.11-6.49.2-1.43,3.02.38,9.01-1.97,11.19-2.2-.28-.76-2.62-.8-4.04-.13-5.25.15-11.6.56-17.86.95-.55.34-1.35.76-2.19,1.71-.15,2.48.72,3.24-.3ZM150.54,206.3c-.06,3.53-.54,6.52-.31,9.62.75-.83,2.41-.3,2.56-.12.73.2.34-.65.94-.57,2.81.79,4.19-1.38,6.3-1.41.35-.71.14-1.93.77-2.39-.92-.37-.37-.75-.42-1.82-1.52-.66-2.14-3.04-4.54-2.35-1.06-1.7-2.89-.93-5.3-.96Z"/>
    <path class="cls-2" d="M201.6,209.32c-2.79-1.07-4.44-1.92-6.48-.21-.37.3-.21.84-.7.18-.37.82-1.12,1.31-2.13,1.55-.24,1.29-.38,2.66-.36,4.2,2.47.09,3.43.42,6.23.4.48.52.85,1.13,2.06,1.07.79,1.22,2.12,1.74,2.66,3.5.09.28.63.29.68.42,1.33,3.37-1.19,6.84-3.51,8.53-3.65.49-6.35,1.14-9.48-.3-.09-.04.09-.53.03-.6-.79.32-.79-.15-1.62-.26,0-.33.03-.66.03-1.01,1.67-.95,3.04,1.8,4.61.76.74-.15.28.67.9.63,4.23-.69,6.31-3.39,6.94-7.42-.66-.43-.99-1.13-1.32-1.85-2.81-.6-4.14-1.33-8.06-1.26-.44-1.18-1.18-1.02-2.26-1.47-1.46-1.73-.86-4.04-1.2-6.26,1.5-.96,3.22-3.88,5.19-3.05,1.72-.88,8.09-1.05,7.8,2.46Z"/>
    <path class="cls-2" d="M215.92,209.96c-1.48.2-6.72-.07-8.72-2.28.12-.32.73-.15.49-.79,6.18,1.4,13.69.67,21.48,1.48.43,1.21-.76.95-.74,1.79-1.37-.17-2.49-.09-2.81.71-1.75-.97-3.08.4-3.9-.73-.25,1.01-1.29.15-2.56.33-.04,4.23-1.38,10.7-.7,14.85-.37,1.57-1.34,2.6-1.52,4.37-.76.09-1.07-.17-1.62-.26.49-1.61.43-3.72,1.09-5.18-.75-4.91,1.15-10.46-.48-14.28Z"/>
    <path class="cls-1" d="M335.36,217.35c.8.67.95,3.69-.14,4.41.05-1.46.1-2.94.14-4.41Z"/>
    <path class="cls-2" d="M249.61,228.11c-1.63,1.8-2.52-1.27-3.17-2.12.03-2.43-1.42-3.67-2.14-5.49-.63.26-2.27-.39-4.15-.33-1.16.03-2.76.21-4.18.47-1.44,2.33-2.78,4.74-3.92,7.3-1.25.41-1.59-.35-2.3-.87.6-.39-.28-1.61.09-2.61.16-.46,1.2-.76,1.42-1.37.09-.21-1.03-.46.25-.4,1.27-5.01,3.55-9.1,5.52-13.47.63.03.48-.33.92.03-.93-2.47,1.71-3.37,3.14-4.33,1.38.87,1.14,2.26,1.96,4.09.56,1.24,2.93,4.17,2.37,5.49,1.18.29.24,2.28.83,3.04.19.04.21-.07.23-.19.57,2.71,1.96,7.3,3.14,10.75ZM236.73,218.06c.28.03.55.08.45.41.71-.7,2.01.65,3.02-.31.4.91,2.73.26,3.92.52-.32-3.91-1.87-6.82-3.87-9.36-1.44,2.43-2.18,5.72-3.52,8.73Z"/>
    <path class="cls-2" d="M275.42,224.31c.76-.13.21-1.46,1.19-1.38-1.51-.41.46-2.24-1.07-2.64.98-.58-.92-2.97.8-3.59.08-.65-.7-.6-.89-1.03.05-.23.43-.15.7-.18-.45,0-.87-1.52.04-1.41-.74-.23-.33-1.41-.39-2.22.49-.08.42.3.43.62.8-.46-.47-.89-.65-1.23.26-.58,1.39-.36,1.43-1.15-1.6.21.59-.7.07-2.42.74-.4.88-.1,1.62.05,1.35.28,3.5-.32,4.63-.05.35.08,1.31.95,2.76.69,4.15-.75,8.31,7.06,2.7,9.73.73,3.24,3.14,5.13,3.67,8.55-.21,1.76.44,3.33.07,4.62-.66-.33-.73,0-1.61-.25-2.69-3.53.63-11.03-6.84-10.86-.31.18-.31.66-.72.77-1.91,0-2.44-1.13-4.37-1.14-.78,3.2,0,7.84-.8,11.03-.72.13-.67-.36-1.39-.23.02-.34.03-.68.03-1.01-.26.02-.2.35-.24.59-.31-.22-.28-.69-.67-.83,1.19-1.23-.41-3.39.15-4.61.12-.43-.32-.4-.68-.42ZM288.76,212.27c-1.49-.93-3.84-2.84-6.2-1.8-.28-.55-.83-.87-1.35-1.25-.28.21-.44.58-1.16.37.07,3.1-.49,5.61-.73,8.41.76-.22.16.66.92.43,2.05-.64,5.38-.12,6.32-1.8.46,0,.92.02,1.38.03,1.55-1.87.91-1.91.83-4.39Z"/>
    <path class="cls-2" d="M179.56,218.07c-1.55-.73-5.49.39-7.63-.24.02,3.12-.67,5.71.2,8.24,4.57.23,9.65-2.2,12.96,0-.71,2.04-4.36.33-6.29,1.4-3.39-.38-5.84.39-8.1-.05-1.64-6.61-1.25-14.09-1.9-20.35,3.56-1.14,9.72-.88,14.35-.35-.34.8.49.64.43,1.21-3.76-.36-6.5.17-10.64.07-1.22,2.52-.3,4.51-.93,7.61,3.34.06,6.33.63,9,.69-.04.23.05.36.21.41-.6-.14-.89,1.03-1.65,1.36Z"/>
    <path class="cls-2" d="M335.52,204.89c1.45.78.58,3.45,1.47,4.67.32.77-.65.36-.49.99,1.08,5.03-.32,11.24-.52,16.46.55,1.07,1.37,2.42,1.04,3.64-2.66-.22-2.67-2.39-4.03-4.34-1.23-1.75-2.71-3.08-4.5-4.37-1.68-3.83-4.12-7.06-6.86-10.05-1.39.77-.65,2.9-.61,4.8.05,2.54-.69,5.23.25,6.44.03,1.15-.25,2.54.12,3.41-1.25,1.31-.95,4.07-2.92,4.74-1.26-8.62.57-16.17,1.24-24.67,1.77-.59,2.24.86,3.9.93,3.62,3.57,5.76,8.34,9.35,11.95.15-3.98,1.59-8.8,1.07-12.02.46-.89.89-1.78,1.47-2.57Z"/>
    <path class="cls-2" d="M255.36,207.39c2.54,1.21.74,5.67,1.38,7.48.05,4.52.4,8.8,1.69,12.31,3.29.38,5.21,1.2,7.16.43,2.4-1.89,1.47-5.44,3.03-7.74-.02-.37-.77-.15-.92-.43,1.03-1.16-.1-1.8,1.26-3.17-.06-.42-.86-.22-.92-.64,1.27-1.85.46-4.95,1.18-7.59.69.02,1.39.04,2.08.06.45,6.71-.22,14.19-2.92,19.4.02.77-.2.06-.7.17-.28.23-.28.7-.27,1.19-3.42,1.67-6.59.43-10.18-.12-1.78-2.48-3.08-5.78-3.18-9.14-.14-4.22.11-8.81,1.32-12.2Z"/>
  </g>
  <text class="cls-4" transform="translate(46.28 197.3)"><tspan x="0" y="0">28</tspan></text>
</svg>