<?xml version="1.0" encoding="UTF-8"?>
<svg id="Layer_1" xmlns="http://www.w3.org/2000/svg" viewBox="0 0 400 400">
  <defs>
    <style>
      .cls-1 {
        stroke-width: 3.86px;
      }

      .cls-1, .cls-2, .cls-3, .cls-4, .cls-5 {
        fill-rule: evenodd;
      }

      .cls-1, .cls-2, .cls-6 {
        fill: #fff;
      }

      .cls-1, .cls-7 {
        stroke: #231f20;
      }

      .cls-3 {
        fill: #ed1c24;
      }

      .cls-6 {
        font-family: AmericanTypewriter-CondensedBold, 'American Typewriter';
        font-size: 52.96px;
        font-weight: 700;
        letter-spacing: -.1em;
      }

      .cls-7 {
        fill: #231f20;
        font-family: 'Jay_San-Serif', Jay_San-Serif;
        font-size: 23px;
        stroke-miterlimit: 10;
        stroke-width: .91px;
      }

      .cls-5 {
        fill: #ee2e2d;
      }
    </style>
  </defs>
  <g>
    <polygon class="cls-5" points="75.74 141.64 22.15 217.79 24.72 221.15 124.96 219.06 89.89 152.44 79.36 139.79 75.74 141.64"/>
    <path class="cls-4" d="M107.37,179.57c3.51.55,2.51,5.94,6.19,6.32.03,3.87,2,5.69,4.42,7-.34,4.06,1.95,5.32,4.39,6.41.26,1-.41,1.13-1.14,1.22.82.84,2.78,1.41,1.29,2.94.47-.33.96-.65,1.76-.66.26,1.19-.05,1.87-1.12,1.84,1.16,1.52,4.54,4.81,2.59,5.86.59,1.01,1.92,1.25,3.61,1.07.26,4.86,2.91,7.18,2.83,12.42-.57-.36-2.23-1.31-1.76.65-1.06-1.14-4.15-.08-4.25-2.22-1.34,2.33-4.06-1.62-7.09,1.44-1.81.28-1.31-1.9-1.91-2.93-1.72.58.84,1.48.11,2.99-.45-.39-1.97-2.45-1.78.06-8.29-.69-20.64-.91-28.01-.2-.02-.59-.04-1.19-.06-1.78-2.71,1.55-5.84,1.8-8.34.3-1.65,2.3-12.71,2.21-16.07.58-6.59,3.66-21.09-.07-24.3,3.83-5.09-2.95-13.96.18-20.34-2.25-.58-1.88.43-2.28,1.09-3.02-2.41-.12-1-.47-1.34-4.12,2.78-.87,3.96-3.22,3.94-6.7,2.75.47,1.24-3.05,4.08-2.53-.49-1.81-.46-1.13-.11-2.98,4.03.5,1.66-4.97,5.18-4.95-.41-.59-1.39-.56-1.25-1.75,2.39.69,1.15-1.99,3.53-1.31-.03-.99-.07-1.98-.1-2.98.51-.47,1.32-.69,2.35-.67,3.61-8.93,10.23-15.03,14.07-23.74,2.06,0,2.72-1.31,2.25-3.66,1.75.09,1.78-1.41,3.53-1.31,1.57-7.96,9.19-10.26,10.68-18.27,6.55-1.37,5.11-10.19,11.5-11.72-.41-.59-1.39-.57-1.27-1.75,1.97-.09,2.93-1.12,5.35-.78,2.64,1.92-.74,3.06,3.07,2.86-2.49,2.66.61,10.57,3.31,9.41.89.17.1,4.5,3.13,4.06-.35,1.84.7,2.15.73,3.56,7.56,6.5,8.84,19.75,16.42,26.24.24,1-.42,1.14-1.16,1.24ZM73,151.59c-1.9.79-.51-1.93-2.42-1.12-.91.29-.44,1.9-2.33,1.28-.78,3.12-1.55,6.23-4.51,7.32-.76,3.28,1.63,3.19,2.56,4.67-4.19,2.98-4.34,12.69-11.6,9.35.65,1.78,2.84,1.9,3.13,4.07-1.59.79-2.75,1.08-3.53,1.31,2.51,2.1-.69,1.54-1.7,3.04-2.59,3.91-4.05,10.09-8.52,11.02-.21,2.89-1.28,4.96-3.99,5.51,1.46,3.1-.88.41-1.73,1.85,3.81.78-2.48,2.58.16,4.18-4.25.82-3.29,6.52-6.26,8.56-.36-1.03.59-3.52-.72-3.55-.02.93.16,2.05-1.13,1.83-.65,1.94,1.94.38,1.28,2.33-2.47.58-2.07,3.83-3.38,5.5,6.22-1.29,16.31-1.26,23.22-.83.11-.47-.03-1.18.54-1.22,23.05,2.43,41.5-.91,69.69-1.28-1.21-6.27-6.69-9.34-8.81-12.8-.64-5.3-5.63-5.9-5.77-11.71-2.68.36-2.27-2.15-1.92-3.51-2.38.03-4.47-3.85-2.54-4.68-1.87.98-2-.38-3.62-1.07-4.11-13.05-14.25-22.36-19.03-32.69,0,.6-1.03.79-1.2.03.73-.09,1.41-.22,1.16-1.22-1.66.55-1.57-.79-3-.5-2.93,3.97-4.28,9.44-9.13,11.65,1.22,2.05-.48,2.88-1.63,4.23-.69-2.37-.08-4.65.97-6.59.97-.02.38,1.65,1.25,1.74.16-2.54,2.28-7.38,4-4.9-.05-.82.22-1.33.52-1.8Z"/>
  </g>
  <g>
    <path class="cls-1" d="M231.56,109.79s-56.77,20.05-64.22,30.17c-7.45,10.12-26.93,101.15-17.16,117.4,9.77,16.25,121.62,48.78,212.16-2.12,0,0,19.77-13.58,16.66-29.14-3.1-15.55-6.94-77.17-30.05-93.83-23.1-16.67-37.64-33.7-117.39-22.48Z"/>
    <g>
      <path class="cls-3" d="M177.24,243.99c-.84.46-1.18,1.14-1.58,1.78-.32.52-.69.99-1.04,1.47-.11.14-.25.25-.36.39-.93,1.14-1.84,2.32-2.79,3.43-.44.52-.96.92-1.43,1.4-.71.71-1.86.08-1.92-1.03-.02-.61.07-1.29.29-1.86.29-.75.74-1.42,1.1-2.13.37-.74.73-1.48,1.08-2.23-.06-.07-.12-.14-.18-.21-.29.24-.61.46-.87.73-1.17,1.17-2.32,2.41-3.53,3.53-.84.78-1.63,1.74-2.76,1.97-.47.09-1,.35-1.33-.19-.35-.56-.39-1.18-.09-1.9.73-1.71,1.75-3.17,2.79-4.6.98-1.35,1.97-2.69,2.95-4.03.1-.14.2-.29.26-.49-.67.2-1.2.7-1.75,1.15-1.02.84-2.05,1.7-3.13,2.42-1,.66-2.07,1.17-3.11,1.75-.42.23-.82.23-1.14-.17-.28-.38-.47-.82-.2-1.34.31-.61.58-1.27,1-1.77.96-1.17,1.99-2.25,2.99-3.36.68-.75,1.35-1.52,2.05-2.24,1.25-1.29,2.5-2.59,3.8-3.84.99-.95,2.06-1.79,3.06-2.71.89-.8,1.7-1.7,2.7-2.33.56-.36.96-1.02,1.04-1.83.06-.65-.2-.99-.72-.77-.93.39-1.82.88-2.73,1.35-1.43.74-2.85,1.54-4.29,2.23-.45.22-1,.23-1.5.23-.66,0-.96-.51-.62-1.2.75-1.58,1.48-3.21,2.87-4.19,3.11-2.21,6.44-3.7,9.97-4.54.66-.16,1.4-.16,2.06-.02,1.97.43,2.94,2.4,2.39,4.72-.09.4-.2.79-.28,1.19-.02.06.03.14.07.28.13-.04.3-.02.41-.11.61-.5,1.18-1.04,1.79-1.53.73-.61,1.45-1.24,2.21-1.77,1.24-.87,2.53-1.61,3.74-2.52,1.14-.85,2.19-1.87,3.3-2.76,1.14-.92,2.27-1.86,3.47-2.64,2.21-1.45,4.47-2.81,6.71-4.17.57-.34,1.17-.61,1.79-.81,1.87-.6,3.7-1.51,5.68-1.43,1.65.06,3.31.12,4.94.38.74.13,1.43.72,2.13,1.14.7.43,1.36.96,2.06,1.38.95.58,1.18.46,1.71-.66.69-1.48,1.36-2.99,2.12-4.43.44-.83,1.09-1.49,1.56-2.29,1.48-2.5,3.32-4.49,5.55-5.99,2.04-1.37,4-2.85,6.04-4.19,1.05-.7,2.21-1.21,3.31-1.8,1.57-.85,3.14-1.66,4.68-2.57,1.44-.84,2.85-1.79,4.46-1.94.85-.08,1.71.05,2.56.16,1.48.19,2.95.42,4.43.66,1.22.2,1.8,1.1,1.96,2.57.27,2.43-.29,4.7-.9,6.98-.28,1.04-.6,2.07-.91,3.09-.06.22-.17.41-.25.61-.61,1.27-1.23,2.55-1.79,3.85-.42.95-1.01,1.14-1.5.36-.52-.82-1.14-.72-1.79-.4-.48.23-.89.41-1.44.11-.3-.16-.81.04-1.17.24-.98.55-1.93,1.19-2.88,1.79-1.78,1.12-3.61,2.14-5.32,3.4-2.14,1.59-4.23,3.27-6.08,5.33-.87.96-1.82,1.8-2.71,2.74-1.98,2.09-3.58,4.55-5.09,7.12-.44.74-.88,1.49-1.34,2.22-.52.83-.95.92-1.72.52-1.32-.7-2.63-1.39-4.11-1.62-.89-.14-1.77-.54-2.61-.95-1.93-.95-3.92-1.5-5.99-1.54-1.94-.04-3.88.09-5.81.16-.33.01-.64.11-.94.2-1.74.47-3.49.94-5.22,1.46-.87.26-1.71.61-2.55.99-1.07.47-2.12,1.05-3.21,1.47-.94.38-1.59,1.04-2.06,2.07-1.18,2.52-2.34,5.05-3.61,7.51-.69,1.35-1.56,2.58-2.39,3.84-1.11,1.67-2.19,3.36-3.38,4.95-.77,1.04-3.07,5.09-4.17,5.77-.36.22-.65.62-.96.94-.17.17-.33.39-.52.47-.5.18-.94.37-1.14,1.05-.07.2-.53.41-.72.34-.35-.16-.79-.38-.81-.97-.01-.22.04-.45.07-.67.3-1.82,2.23-6.51,3.05-8.13.11-.22.12-.49.24-.99Z"/>
      <path class="cls-3" d="M289,175.79c-2.35,2.58-5.11,4.11-7.64,6.03-2.29,1.74-4.93,2.85-7.6,3.78-3.89,1.36-7.83,2.35-11.87,2.64-2.42.16-4.83.05-7.24.07-.31,0-.63,0-.94.04-2.73.44-5.33-.38-7.98-.81-.61-.1-1.24-.09-1.86-.11-.32,0-.65.07-.94-.03-1.54-.53-3.07-1.08-4.59-1.69-.96-.39-1.87-.9-2.81-1.33-2.11-.96-3.92-2.4-5.66-4.01-.55-.49-1.16-.92-1.77-1.29-.65-.4-.91-.21-.98.64-.1,1.19-.21,2.38-.28,3.57-.15,2.39-1.54,3.77-3.28,4.69-.94.51-2.04.69-3.09.88-1.39.25-2.9-1.06-2.98-2.66-.07-1.4.06-2.83.11-4.24.04-1.01.08-2.03.12-3.04.1-1.95-.12-3.98.36-5.8.76-2.88.4-5.79.84-8.67.24-1.63-.02-3.34-.02-5.01,0-.8.09-1.59.14-2.38.05-.57.2-1.14.17-1.7-.09-2.23.23-4.39.85-6.52.49-1.69.83-3.42,1.27-5.11.37-1.38.99-2.55,1.97-3.58.96-1.02,1.69-2.34,2.51-3.53.25-.35.44-.77.74-1.04,1.84-1.74,3.58-3.68,5.89-4.7.14-.06.32-.09.43-.21,1.11-1.2,2.6-1.47,3.94-2.09,1.65-.75,3.27-1.58,4.93-2.32.66-.3,1.36-.5,2.04-.71,2.03-.64,4.06-1.18,6.16-1.4,2.67-.29,5.35-.58,8.04-.54,1.22.02,2.45-.22,3.67-.18,2.32.08,4.65.22,6.97.45.97.09,1.91.58,2.87.69,2.31.26,4.63.4,6.94.62,2.29.22,4.57.68,6.63,1.77,1.52.81,2.71,2.22,3.71,3.77.92,1.46,1.8,2.97,2.66,4.48.46.82.93,1.63,1.28,2.51.64,1.64,1.36,3.28,1.77,5,.87,3.66,1.38,7.41,1.66,11.2.25,3.33.72,6.65,1.05,9.98.13,1.4.13,2.82.24,4.23.13,1.85.23,3.7.52,5.51.13.88.62,1.69.99,2.51.41.94.89,1.85,1.29,2.8.51,1.19.43,2.34-.53,3.24-1.02.97-1.94,2.07-3.19,2.76-1.78.98-5.28.02-5.86-2.67-.39-1.84-.9-3.64-1.35-5.45-.08-.3-.16-.57-.29-1.05ZM229.97,176.83c.29.6.46,1.13.76,1.52,1.26,1.6,2.81,2.82,4.55,3.66,1.88.9,3.8,1.67,5.73,2.39,1.03.38,2.1.67,3.24.62.64-.03,1.29.37,1.93.57.64.2,1.26.45,1.91.57,1.63.31,3.28.52,4.96.28.34-.05.7.07,1.06.06,2.12-.07,4.29.11,6.38-.29,3.28-.63,6.51-1.6,9.74-2.54,1.88-.54,3.68-1.44,5.57-1.91,4.03-1,7.18-3.66,10.24-6.53.64-.59,1.25-1.26,1.94-1.76.79-.57,1.18-1.27,1.11-2.31-.09-1.14-.13-2.29-.16-3.44-.09-2.59-.17-5.19-.23-7.78-.05-2.02-.1-4.05-.05-6.07.06-2.21.24-4.41.37-6.62.14-2.39-.21-4.64-1.18-6.79-.49-1.08-1.21-1.68-2.13-2.1-.36-.17-.75-.28-1.13-.38-2.34-.59-4.7-1.05-7.14-.72-1.14.16-2.29.28-3.43.3-1.93.02-3.87-.09-5.81-.06-1.46.02-2.82-.35-4.11-1.03-.27-.14-.54-.36-.74-.62-1.43-1.9-3.34-3.3-4.56-5.44-.05-.09-.19-.12-.41-.24-.26.72-.58,1.39-.74,2.09-.39,1.68-1.23,3.01-2.36,4.09-1.28,1.23-2.67,2.26-4.49,1.99-.46-.07-.95.08-1.42.11-1.06.05-2.12.09-3.18.11-.59,0-1.19-.11-1.77-.05-1.42.15-2.84.34-4.25.57-1.25.2-2.52.34-3.71.77-1.52.53-2.99,1.24-4.41,2.04-.9.52-1.79,1.2-2.5,2.02-.97,1.16-1.81,2.49-2.61,3.81-.39.64-.65,1.43-.81,2.19-.3,1.47-.49,2.96-.76,4.44-.64,3.47-.58,6.95-.43,10.44.13,2.85.97,5.53,1.46,8.29.14.78.27,1.56.51,2.31.12.37.39.84.69.94.81.27,1.66.37,2.39.51Z"/>
      <path class="cls-3" d="M341.85,238.31c.87,1.56,2.3,5.45,2.66,7.24.05.22.09.44.09.66,0,.59-.43.85-.79,1.03-.18.09-.66-.08-.72-.27-.23-.66-.68-.82-1.17-.96-.21-.05-.37-.27-.56-.42-.33-.29-.62-.66-.99-.85-1.11-.59-2.9-3.82-3.7-4.79-1.24-1.48-2.38-3.08-3.53-4.66-.87-1.19-1.78-2.34-2.52-3.63-1.34-2.35-2.59-4.78-3.84-7.2-.51-.98-1.18-1.59-2.13-1.88-1.11-.34-2.17-.83-3.26-1.2-.84-.3-1.7-.58-2.57-.77-1.75-.37-3.5-.68-5.26-1.01-.31-.06-.62-.13-.94-.12-1.93.09-3.88.12-5.81.32-2.08.22-4.05.94-5.94,2.06-.83.48-1.69.95-2.58,1.17-1.47.35-2.75,1.16-4.05,1.96-.75.47-1.2.4-1.74-.37-.49-.69-.95-1.4-1.41-2.1-1.58-2.42-3.28-4.75-5.31-6.67-.91-.86-1.89-1.62-2.79-2.5-1.92-1.9-4.07-3.42-6.24-4.82-1.75-1.12-3.61-1.98-5.42-2.94-.98-.52-1.95-1.07-2.94-1.54-.36-.17-.88-.33-1.17-.15-.54.35-.95.21-1.44.01-.66-.24-1.28-.3-1.77.57-.47.83-1.06.66-1.51-.24-.61-1.24-1.27-2.46-1.92-3.69-.09-.19-.21-.38-.28-.58-.34-1-.7-2-1.01-3.01-.67-2.22-1.31-4.44-1.12-6.89.12-1.48.66-2.44,1.89-2.74,1.46-.37,2.93-.72,4.4-1.03.84-.18,1.71-.39,2.54-.38,1.62.02,3.06.84,4.52,1.56,1.57.79,3.19,1.46,4.77,2.18,1.11.5,2.27.91,3.35,1.52,2.07,1.17,4.1,2.48,6.17,3.67,2.26,1.31,4.18,3.14,5.73,5.51.49.76,1.17,1.37,1.63,2.16.81,1.36,1.53,2.82,2.27,4.24.57,1.07.8,1.18,1.73.52.68-.48,1.32-1.07,2-1.56.68-.48,1.35-1.13,2.1-1.31,1.62-.41,3.27-.6,4.93-.81,1.96-.25,3.82.52,5.71.95.62.15,1.23.36,1.81.66,2.29,1.16,4.58,2.33,6.84,3.59,1.22.68,2.37,1.53,3.54,2.35,1.14.8,2.22,1.73,3.37,2.48,1.25.8,2.56,1.43,3.82,2.19.78.47,1.52,1.04,2.27,1.58.62.45,1.22.93,1.84,1.38.1.08.28.05.41.08.04-.14.1-.22.08-.28-.1-.39-.22-.78-.33-1.18-.62-2.26.28-4.32,2.24-4.91.66-.19,1.39-.26,2.06-.17,3.55.54,6.93,1.75,10.1,3.69,1.42.86,2.2,2.42,2.99,3.94.35.67.07,1.19-.59,1.25-.5.05-1.04.08-1.51-.1-1.46-.56-2.9-1.23-4.35-1.85-.92-.39-1.83-.8-2.77-1.12-.52-.17-.77.18-.68.82.1.81.51,1.43,1.09,1.74,1.02.55,1.85,1.38,2.76,2.1,1.05.83,2.13,1.58,3.16,2.45,1.33,1.13,2.61,2.32,3.9,3.51.72.66,1.42,1.37,2.11,2.06,1.04,1.03,2.1,2.03,3.1,3.11.43.46.73,1.1,1.06,1.68.28.49.1.95-.17,1.35-.3.43-.7.47-1.13.27-1.05-.5-2.14-.91-3.16-1.49-1.11-.64-2.15-1.4-3.21-2.15-.57-.4-1.1-.85-1.78-1,.06.21.16.34.27.47,1.02,1.26,2.05,2.51,3.08,3.77,1.09,1.35,2.15,2.71,2.93,4.36.33.69.31,1.31-.02,1.91-.31.57-.86.35-1.33.3-1.13-.13-1.95-1.02-2.81-1.74-1.25-1.01-2.42-2.15-3.64-3.22-.28-.25-.59-.44-.88-.65-.06.07-.12.15-.17.22.38.71.75,1.43,1.15,2.13.38.69.85,1.31,1.17,2.03.23.55.35,1.22.34,1.84-.01,1.09-1.15,1.83-1.88,1.19-.48-.44-1.02-.8-1.47-1.27-1-1.04-1.94-2.13-2.9-3.19-.12-.12-.26-.22-.36-.35-.37-.45-.75-.89-1.09-1.37-.41-.6-.78-1.25-1.63-1.65.13.49.16.77.27.96Z"/>
      <path class="cls-2" d="M229.97,176.83c-.73-.14-1.58-.25-2.39-.51-.3-.1-.57-.57-.69-.94-.24-.75-.37-1.53-.51-2.31-.5-2.76-1.34-5.44-1.46-8.29-.14-3.49-.21-6.97.43-10.44.27-1.48.45-2.97.76-4.44.16-.76.42-1.55.81-2.19.8-1.32,1.64-2.65,2.61-3.81.7-.82,1.59-1.5,2.5-2.02,1.42-.8,2.89-1.5,4.41-2.04,1.19-.43,2.46-.57,3.71-.77,1.41-.23,2.83-.42,4.25-.57.58-.06,1.18.06,1.77.05,1.06-.02,2.12-.06,3.18-.11.48-.02.96-.17,1.42-.11,1.82.27,3.2-.76,4.49-1.99,1.14-1.09,1.98-2.42,2.36-4.09.15-.71.47-1.37.74-2.09.22.12.36.15.41.24,1.22,2.14,3.12,3.54,4.56,5.44.2.26.47.47.74.62,1.29.68,2.65,1.05,4.11,1.03,1.93-.03,3.87.09,5.81.06,1.15-.02,2.29-.15,3.43-.3,2.44-.33,4.8.13,7.14.72.38.1.77.22,1.13.38.92.42,1.65,1.02,2.13,2.1.97,2.15,1.32,4.4,1.18,6.79-.13,2.2-.31,4.41-.37,6.62-.05,2.02,0,4.05.05,6.07.05,2.6.14,5.19.23,7.78.03,1.14.07,2.29.16,3.44.07,1.05-.31,1.74-1.11,2.31-.69.51-1.3,1.17-1.94,1.76-3.06,2.87-6.21,5.53-10.24,6.53-1.89.47-3.69,1.37-5.57,1.91-3.23.94-6.46,1.91-9.74,2.54-2.09.4-4.26.22-6.38.29-.36.01-.72-.11-1.06-.06-1.68.23-3.33.03-4.96-.28-.65-.12-1.27-.38-1.91-.57-.64-.2-1.29-.6-1.93-.57-1.14.06-2.21-.24-3.24-.62-1.93-.72-3.86-1.48-5.73-2.39-1.74-.84-3.29-2.05-4.55-3.66-.3-.39-.47-.92-.76-1.52ZM258.37,167.88c0-.1-.01-.2-.02-.3-2.08.16-4.18.29-6.26.49-1.3.12-2.6.28-3.88.56-1.32.28-2.62.69-3.92,1.13-.46.15-1.02.44-1.26.87-1.03,1.74-1.92,3.57-2.88,5.37-.31.58-.2,1.06.26,1.36,1.08.73,1.94,2,3.42,1.81.1-.01.23.06.34.09,2.15.6,4.34.8,6.58.84,1.74.03,3.48.3,4.69,1.97.09.13.25.21.36.33,1.02,1.08,2.14,1.03,3.39.44,1.06-.49,1.92-1.25,2.7-2.16.66-.77,1.42-1.24,2.4-1.3.59-.05,1.17-.25,1.75-.38.98-.2,1.96-.59,2.92-.57,1.96.02,3.75-.65,5.5-1.51.85-.41,1.71-.75,2.5-1.27.51-.35.96-.91,1.32-1.45.13-.2.08-.82-.07-.94-1.12-.86-1.31-2.37-1.97-3.54-.59-1.03-1.27-1.62-2.3-1.78-1.09-.18-2.18-.35-3.28-.41-1.86-.11-3.71-.25-5.55-.19-2.25.08-4.49.35-6.73.54ZM283,173.32c.57-.5.33-1.05.18-1.58-.17-.63-.4-1.23-.56-1.86-.91-3.43-2.62-6.14-5.55-7.77-1.07-.59-2.02-1.43-2.61-2.58-.33-.63-.67-1.15-1.1-1.69-.72-.9-1.53-1.12-2.5-1.19-1.78-.12-3.56-.18-5.32-.43-2.61-.36-3.33-1.36-3.84-3.56-.22-.98-.31-1.99-.47-2.98-.06-.39-.05-.84-.21-1.15-.45-.83-.91-1.63-1-2.64-.02-.17-.3-.38-.49-.43-.13-.04-.39.18-.44.34-.27.86-.6,1.72-.72,2.61-.22,1.71-.36,3.4-1.18,4.97-1.34,2.55-3.18,3.86-5.84,3.73-2.44-.13-4.58.82-6.44,2.63-.65.64-1.34,1.26-2.05,1.82-1.35,1.04-2.35,2.32-2.97,4.06-.76,2.16-1.94,4.07-3.49,5.68-.87.91-1.63,1.95-2.45,2.92-.35.41-.47.83-.09,1.29.36.45.76.6,1.25.23.13-.1.27-.2.38-.33,1.4-1.52,2.8-3.05,4.18-4.58.13-.16.22-.38.32-.56.8-1.43,1.59-2.87,2.43-4.28.31-.5.72-.92,1.03-1.3.53.17.95.46,1.34.4.81-.11,1.64-.33,2.43-.62,1.55-.55,3.1-1.09,4.6-1.79,1.41-.66,2.48-.47,3.45.87.68.94,2,1.26,2.81.77.66-.39,1.32-.86,1.84-1.44.65-.74,1.36-1.05,2.24-.98,1.26.11,2.52.18,3.77.36.81.11,1.6.43,2.41.54,1.19.17,2.32.75,3.61.38.53-.16,1.13.04,1.7-.27.21-.12.6.09.87.23.74.37,1.45.85,2.23,1.15,1.25.49,2.21,1.34,2.82,2.64.72,1.5,1.37,3.06,2.06,4.58.32.73.56,1.55,1.39,1.81ZM244.2,149.24c-2.85.45-5.6,1.18-7.9,3.32-.19.17-.39.31-.58.45-1.08.79-2.12,1.47-2.41,3.11-.22,1.17-.21,1.66.84,1.79.77.09,1.55.04,2.32.12,2.12.22,4.25.42,6.36.71,1.19.16,2.26-.1,3.33-.64,1.78-.91,3.11-2.48,4.59-3.83.4-.36.72-.84,1.05-1.27.35-.44.27-.82-.14-1.1-.2-.14-.44-.21-.65-.31-1.09-.51-2.15-1.07-3.25-1.49-1.15-.44-2.28-1.03-3.57-.86ZM273.04,148.39c-1.66-.07-3.13.48-4.43,1.63-.74.65-.68,1.19.1,1.73.93.64,1.85,1.28,2.6,2.19.21.25.44.52.7.67.88.46,1.51,1.22,2.12,2.03.44.61.95,1.17,1.44,1.73.52.59,1.11.84,1.9.81,1.68-.07,3.14-.91,4.64-1.57.88-.4,1.69-.93,2.7-.9.21,0,.58-.27.61-.46.15-1.09.32-2.23-.37-3.17-1.58-2.14-3.44-3.83-6.02-4.16-1.36-.17-2.74-.22-4.12-.34-.62-.06-1.24-.13-1.87-.19ZM287.21,148.43c-.48-.9-.89-2.17-1.67-2.99-.88-.94-2.04-1.64-3.18-2.16-2.44-1.09-5.07-1.04-7.67-1.05-1.66-.01-3.21.49-4.77.93-1.23.36-2.4.94-3.58,1.45-.7.31-.96,1.06-1.13,1.78-.14.63.42.9.76,1.21.17.15.44.2.67.21.7,0,1.42,0,2.12-.07,1.62-.17,3.22-.56,4.83-.56,2.4,0,4.81.17,7.2.39,1.01.09,2.01.42,2.99.72.86.26,1.69.67,2.55.98.56.21.9-.04.9-.83ZM249.62,147.03c.83,1.29,1.73,1.67,2.66,1.23.72-.34.91-.77.68-1.57-.31-1.16-.9-2.1-1.98-2.39-1.11-.31-2.24-.57-3.37-.64-2.3-.1-4.59.26-6.81,1-1.75.58-3.5,1.18-5.21,1.91-.99.42-1.92,1.08-2.83,1.69-.6.4-1.08.91-.87,1.84.04.22-.12.57-.27.81-.18.29-.47.5-.64.79-.08.15-.11.5-.01.6.14.14.43.26.59.2,1.17-.41,2.33-.88,3.48-1.34,1.56-.62,3.1-1.37,4.7-1.87,1.09-.35,2.29-.24,3.38-.58,1.25-.4,2.49-.54,3.76-.62.88-.04,1.78-.02,2.72-.03,0-.35,0-.59,0-1.01Z"/>
      <path class="cls-3" d="M258.37,167.88c2.24-.19,4.49-.46,6.73-.54,1.84-.06,3.69.08,5.55.19,1.1.07,2.19.23,3.28.41,1.03.16,1.71.75,2.3,1.78.66,1.17.84,2.68,1.97,3.54.15.13.21.74.07.94-.36.55-.81,1.11-1.32,1.45-.79.52-1.66.87-2.5,1.27-1.75.86-3.54,1.53-5.5,1.51-.96-.01-1.94.37-2.92.57-.58.13-1.16.33-1.75.38-.98.07-1.74.53-2.4,1.3-.78.91-1.63,1.66-2.7,2.16-1.25.59-2.37.64-3.39-.44-.11-.12-.27-.2-.36-.33-1.21-1.67-2.95-1.95-4.69-1.97-2.24-.04-4.42-.24-6.58-.84-.11-.03-.24-.11-.34-.09-1.48.18-2.34-1.08-3.42-1.81-.46-.3-.57-.78-.26-1.36.96-1.79,1.85-3.62,2.88-5.37.24-.42.8-.71,1.26-.87,1.29-.44,2.6-.85,3.92-1.13,1.28-.28,2.59-.44,3.88-.56,2.08-.2,4.19-.33,6.26-.49,0,.1.02.2.02.3ZM274.34,173.23c-1.3-.8-2.43-.89-3.6-.32-.4.2-.83.29-1.24.46-.57.24-1.05.14-1.57-.19-.58-.35-1.23-.57-1.86-.77-2.21-.72-4.46-.42-6.71-.25-.31.03-.63.06-.94.02-3.16-.4-6.24-.02-9.08,1.74-1.15.71-2.21,1.12-3.48.69-.6-.2-1.14,0-1.57.83.44.19.78.37,1.14.51,1.36.51,2.74.14,4.1.02,1.38-.13,2.75-.4,4.12-.44,2.64-.09,5.28-.06,7.93-.08.23,0,.47,0,.7.04,3.85.34,7.56-.41,11.21-1.75.26-.09.47-.28.86-.52Z"/>
      <path class="cls-3" d="M283,173.32c-.83-.26-1.07-1.07-1.39-1.81-.69-1.52-1.34-3.07-2.06-4.58-.61-1.29-1.57-2.14-2.82-2.64-.78-.3-1.49-.79-2.23-1.15-.27-.14-.66-.35-.87-.23-.57.31-1.17.12-1.7.27-1.28.37-2.42-.22-3.61-.38-.81-.11-1.6-.43-2.41-.54-1.25-.17-2.52-.25-3.77-.36-.88-.08-1.59.24-2.24.98-.52.58-1.19,1.05-1.84,1.44-.81.49-2.13.17-2.81-.77-.97-1.34-2.03-1.53-3.45-.87-1.5.7-3.05,1.24-4.6,1.79-.79.29-1.62.51-2.43.62-.39.05-.81-.23-1.34-.4-.31.39-.72.8-1.03,1.3-.83,1.41-1.62,2.85-2.43,4.28-.1.19-.19.4-.32.56-1.38,1.53-2.78,3.06-4.18,4.58-.11.13-.25.23-.38.33-.49.37-.89.22-1.25-.23-.37-.46-.25-.88.09-1.29.82-.97,1.58-2.01,2.45-2.92,1.55-1.62,2.73-3.52,3.49-5.68.62-1.74,1.61-3.01,2.97-4.06.71-.56,1.4-1.18,2.05-1.82,1.87-1.81,4-2.76,6.44-2.63,2.66.13,4.5-1.18,5.84-3.73.81-1.57.95-3.26,1.18-4.97.12-.89.44-1.75.72-2.61.05-.16.31-.38.44-.34.19.05.48.26.49.43.09,1.02.55,1.81,1,2.64.17.32.15.76.21,1.15.16.99.25,2.01.47,2.98.5,2.19,1.23,3.2,3.84,3.56,1.76.25,3.54.3,5.32.43.97.07,1.77.29,2.5,1.19.43.54.78,1.06,1.1,1.69.59,1.15,1.54,1.99,2.61,2.58,2.94,1.62,4.64,4.33,5.55,7.77.16.62.39,1.23.56,1.86.15.53.39,1.08-.18,1.58Z"/>
      <path class="cls-3" d="M244.2,149.24c1.29-.17,2.41.41,3.57.86,1.1.43,2.16.98,3.25,1.49.21.1.45.17.65.31.41.28.49.66.14,1.1-.33.43-.65.91-1.05,1.27-1.47,1.35-2.8,2.92-4.59,3.83-1.07.54-2.14.8-3.33.64-2.12-.29-4.25-.5-6.36-.71-.77-.08-1.55-.03-2.32-.12-1.06-.12-1.06-.61-.84-1.79.29-1.65,1.34-2.33,2.41-3.11.19-.14.39-.28.58-.45,2.3-2.14,5.05-2.87,7.9-3.32ZM245.72,154.59c1.15-.31,1.95-.94,2.59-2.11-.39-.2-.71-.46-1.07-.52-.7-.13-1.6-.61-2.08.17-.48.79.13,1.63.56,2.47ZM240.16,156.64c.06-.11.12-.23.18-.35-.14-.33-.24-.72-.45-.98-.14-.17-.52-.28-.7-.19-.5.27-1.05.54-1.39,1.42.88.04,1.62.07,2.36.11Z"/>
      <path class="cls-3" d="M273.04,148.39c.63.06,1.25.13,1.87.19,1.38.12,2.76.17,4.12.34,2.58.33,4.45,2.02,6.02,4.16.69.94.52,2.08.37,3.17-.03.19-.41.47-.61.46-1-.03-1.81.51-2.7.9-1.5.65-2.96,1.5-4.64,1.57-.79.03-1.39-.22-1.9-.81-.49-.56-.99-1.13-1.44-1.73-.61-.81-1.24-1.56-2.12-2.03-.27-.14-.5-.42-.7-.67-.74-.91-1.67-1.55-2.6-2.19-.78-.53-.84-1.08-.1-1.73,1.3-1.15,2.77-1.7,4.43-1.63ZM283.57,154.85c-.86-1.44-1.6-2.58-3.07-3.13-.24,1.54-.45,2.97-.69,4.6,1.32-.52,2.46-.96,3.76-1.47ZM274.05,151.65c-.18.24-.41.45-.38.53.07.2.26.34.41.49.1-.16.26-.33.27-.49.02-.14-.15-.3-.3-.53Z"/>
      <path class="cls-3" d="M287.21,148.43c0,.79-.35,1.04-.9.83-.86-.31-1.69-.71-2.55-.98-.98-.3-1.98-.63-2.99-.72-2.39-.22-4.8-.4-7.2-.39-1.6,0-3.21.39-4.83.56-.7.07-1.42.07-2.12.07-.22,0-.5-.05-.67-.21-.34-.31-.9-.58-.76-1.21.17-.72.43-1.47,1.13-1.78,1.19-.52,2.35-1.1,3.58-1.45,1.56-.45,3.11-.95,4.77-.93,2.6,0,5.23-.04,7.67,1.05,1.14.52,2.3,1.22,3.18,2.16.78.82,1.19,2.09,1.67,2.99Z"/>
      <path class="cls-3" d="M249.62,147.03c0,.42,0,.66,0,1.01-.94,0-1.84,0-2.72.03-1.27.08-2.51.22-3.76.62-1.09.34-2.29.23-3.38.58-1.59.5-3.13,1.25-4.7,1.87-1.15.47-2.31.93-3.48,1.34-.17.07-.46-.05-.59-.2-.1-.1-.07-.44.01-.6.17-.29.46-.5.64-.79.15-.23.31-.58.27-.81-.21-.94.27-1.45.87-1.84.91-.62,1.84-1.28,2.83-1.69,1.71-.73,3.46-1.32,5.21-1.91,2.22-.74,4.5-1.1,6.81-1,1.13.06,2.25.33,3.37.64,1.08.3,1.67,1.23,1.98,2.39.22.8.04,1.23-.68,1.57-.93.44-1.83.06-2.66-1.23Z"/>
      <path class="cls-2" d="M274.65,172.14c-.41.26-.65.47-.92.56-3.92,1.44-7.91,2.25-12.03,1.88-.25-.03-.51-.04-.75-.04-2.84.01-5.68-.02-8.51.08-1.48.05-2.95.33-4.43.47-1.48.13-2.96.53-4.41-.03-.38-.14-.74-.33-1.23-.54.47-.9,1.05-1.11,1.7-.89,1.37.46,2.51.03,3.74-.74,3.04-1.9,6.35-2.31,9.75-1.87.33.04.67,0,1-.02,2.42-.18,4.84-.52,7.2.26.69.22,1.39.46,2,.83.57.34,1.09.44,1.69.19.44-.18.9-.28,1.33-.5,1.26-.61,2.47-.51,3.87.35Z"/>
      <path class="cls-2" d="M245.72,154.59c-.43-.84-1.03-1.68-.56-2.47.47-.78,1.37-.29,2.08-.17.36.06.68.32,1.07.52-.63,1.18-1.43,1.8-2.59,2.11Z"/>
      <path class="cls-2" d="M240.16,156.64c-.74-.04-1.48-.07-2.36-.11.33-.88.89-1.15,1.39-1.42.18-.1.56.02.7.19.21.26.31.65.45.98-.06.12-.12.24-.18.35Z"/>
      <path class="cls-2" d="M283.57,154.85c-1.31.51-2.44.95-3.76,1.47.24-1.63.45-3.06.69-4.6,1.47.55,2.21,1.7,3.07,3.13Z"/>
      <path class="cls-2" d="M274.05,151.65c.15.23.32.39.3.53,0,.17-.17.34-.27.49-.15-.16-.35-.3-.41-.49-.04-.08.2-.29.38-.53Z"/>
      <path class="cls-2" d="M275.54,151.34l-.46,2.84s-1.52-1.57-2.54-1.98c-1.01-.4-1.64-.97-1.64-.97,0,0,4.25-.93,4.64.1Z"/>
      <path class="cls-2" d="M239.77,153.3s.42,3.1,1.05,3.23c.63.12-4.39.04-4.9.06-.5.02,2.33-3.83,3.85-3.29Z"/>
      <text class="cls-7" transform="translate(191.24 250.45) rotate(19.77) scale(.84 1.01) skewX(-1.41)"><tspan x="0" y="0">H</tspan></text>
      <text class="cls-7" transform="translate(201.5 254.01) rotate(17.24) scale(.84 1.01) skewX(-1.52)"><tspan x="0" y="0">I</tspan></text>
      <text class="cls-7" transform="translate(205.9 255.41) rotate(14.61) scale(.84 1.01) skewX(-1.63)"><tspan x="0" y="0">M</tspan></text>
      <text class="cls-7" transform="translate(218.22 258.56) rotate(10.49) scale(.84 1.01) skewX(-1.76)"><tspan x="0" y="0">W</tspan></text>
      <text class="cls-7" transform="translate(232.3 260.98) rotate(7.56) scale(.84 1) skewX(-1.84)"><tspan x="0" y="0">I</tspan></text>
      <text class="cls-7" transform="translate(236.89 261.62) rotate(4.98) scale(.84 1) skewX(-1.89)"><tspan x="0" y="0">T</tspan></text>
      <text class="cls-7" transform="translate(248.65 262.53) rotate(1.53) scale(.84 1) skewX(-1.93)"><tspan x="0" y="0">S</tspan></text>
      <text class="cls-7" transform="translate(257.94 262.73) rotate(-1.94) scale(.84 1) skewX(-1.95)"><tspan x="0" y="0">A</tspan></text>
      <text class="cls-7" transform="translate(269.03 262.26) rotate(-5.82) scale(.85 1) skewX(-1.93)"><tspan x="0" y="0"> </tspan></text>
      <text class="cls-7" transform="translate(279.69 261.07) rotate(-9.4) scale(.85 1) skewX(-1.88)"><tspan x="0" y="0">L</tspan></text>
      <text class="cls-7" transform="translate(288.35 259.59) rotate(-13.14) scale(.85 .99) skewX(-1.8)"><tspan x="0" y="0">O</tspan></text>
      <text class="cls-7" transform="translate(299.18 256.95) rotate(-17.31) scale(.85 .99) skewX(-1.68)"><tspan x="0" y="0">D</tspan></text>
      <text class="cls-7" transform="translate(309.23 253.72) rotate(-21.41) scale(.85 .99) skewX(-1.52)"><tspan x="0" y="0">G</tspan></text>
      <text class="cls-7" transform="translate(318.98 249.78) rotate(-25.21) scale(.85 .99) skewX(-1.35)"><tspan x="0" y="0">E</tspan></text>
    </g>
  </g>
  <text class="cls-6" transform="translate(62.45 204.44)"><tspan x="0" y="0">2</tspan></text>
</svg>