<?xml version="1.0" encoding="UTF-8"?>
<svg id="Layer_1" xmlns="http://www.w3.org/2000/svg" viewBox="0 0 400 400">
  <defs>
    <style>
      .cls-1 {
        fill: #ce2527;
      }

      .cls-2, .cls-3 {
        fill-rule: evenodd;
      }

      .cls-4 {
        font-family: AmericanTypewriter-CondensedBold, 'American Typewriter';
        font-size: 44px;
        font-weight: 700;
      }

      .cls-4, .cls-5 {
        fill: #fff;
      }

      .cls-3 {
        fill: #1bb24b;
      }

      .cls-6 {
        letter-spacing: -.03em;
      }
    </style>
  </defs>
  <g>
    <polygon class="cls-3" points="69.8 148.13 17.44 224.77 20.05 228.07 119.93 224.6 84.06 158.7 73.37 146.23 69.8 148.13"/>
    <path class="cls-2" d="M101.86,185.48c3.51.51,2.58,5.89,6.25,6.23.09,3.84,2.07,5.65,4.51,6.9-.28,4.06,2.01,5.28,4.46,6.33.28.99-.4,1.13-1.12,1.24.83.81,2.79,1.35,1.32,2.9.46-.34.95-.66,1.75-.69.28,1.19-.03,1.86-1.1,1.85,1.19,1.5,4.61,4.73,2.66,5.8.61,1.01,1.93,1.22,3.62,1.01.33,4.86,3,7.12,2.99,12.34-.57-.34-2.24-1.28-1.74.68-1.07-1.12-4.14-.02-4.28-2.17-1.31,2.35-4.06-1.55-7.05,1.54-1.8.3-1.33-1.87-1.94-2.88-1.7.59.84,1.45.15,2.96-.46-.38-2-2.41-1.78.09-8.28-.58-20.58-.62-27.91.19-.03-.59-.07-1.18-.09-1.77-2.68,1.57-5.82,1.88-8.31.4-1.61,2.32-12.63,2.39-16.01.8-6.52,3.76-21.02.22-24.17,4.16-5.1-2.87-13.91.38-20.31-1.96-.6-1.86.4-2.28,1.04-3.02-2.39-.09-1-.46-1.38-4.1,2.77-.89,3.9-3.25,3.84-6.72,2.74.42,1.19-3.06,4.02-2.59-.52-1.8-.47-1.11-.15-2.96,4.02.46,1.59-4.98,5.09-5-.41-.58-1.38-.55-1.27-1.73,2.39.66,1.12-2,3.51-1.36-.05-.99-.1-1.98-.15-2.96.51-.48,1.31-.7,2.34-.7,3.47-8.95,9.99-15.13,13.68-23.86,2.05-.03,2.7-1.33,2.2-3.67,1.74.07,1.74-1.44,3.5-1.37,1.44-7.94,9.02-10.35,10.39-18.35,6.51-1.46,4.95-10.23,11.3-11.85-.41-.58-1.39-.55-1.28-1.72,1.95-.13,2.9-1.16,5.32-.86,2.66,1.89-.7,3.07,3.1,2.82-2.46,2.68.76,10.53,3.43,9.33.89.15.15,4.49,3.17,4.01-.32,1.84.73,2.13.78,3.53,7.63,6.36,9.09,19.56,16.73,25.91.27,1-.4,1.14-1.13,1.25ZM67.2,158.07c-1.87.82-.53-1.9-2.43-1.08-.9.31-.41,1.91-2.29,1.31-.73,3.12-1.47,6.22-4.4,7.35-.7,3.28,1.68,3.16,2.61,4.63-4.12,3.02-4.14,12.7-11.42,9.48.67,1.76,2.84,1.85,3.16,4-1.56.81-2.72,1.12-3.49,1.36,2.53,2.06-.66,1.55-1.64,3.06-2.54,3.93-3.9,10.12-8.35,11.11-.15,2.88-1.2,4.96-3.89,5.53,1.5,3.08-.88.42-1.71,1.87,3.82.72-2.43,2.61.22,4.16-4.21.89-3.19,6.54-6.11,8.62-.38-1.02.55-3.52-.76-3.53,0,.93.19,2.05-1.1,1.84-.64,1.95,1.94.36,1.31,2.31-2.46.6-2.01,3.84-3.29,5.52,6.18-1.37,16.23-1.47,23.13-1.15.09-.46-.05-1.17.52-1.21,23.01,2.1,41.35-1.48,69.45-2.24-1.29-6.24-6.8-9.22-8.95-12.64-.72-5.27-5.7-5.8-5.92-11.59-2.66.4-2.28-2.11-1.96-3.46-2.36.06-4.51-3.78-2.6-4.63-1.86,1.01-1.99-.34-3.62-1.01-4.29-12.95-14.51-22.09-19.43-32.32.02.6-1.01.79-1.19.05.72-.09,1.39-.24,1.13-1.25-1.65.58-1.57-.76-2.99-.44-2.87,4-4.15,9.45-8.94,11.74,1.25,2.03-.44,2.88-1.57,4.24-.71-2.35-.14-4.62.87-6.58.98-.04.4,1.62,1.27,1.72.13-2.55,2.17-7.4,3.91-4.95-.05-.82.21-1.31.5-1.8Z"/>
  </g>
  <g>
    <path class="cls-5" d="M137.85,132.88c-.97,2.9-.97,6.6,0,13.99.97,7.39-.97,58.59-.49,62.55.49,3.95.48,29.56,1.45,34.57.97,5.02.49,10.29,1.45,11.35.97,1.06,0,3.17,1.93,3.43,1.93.26,11.61.53,32.89.79,21.29.26,45.96.53,64.34.79,18.38.26,57.08.53,77.88.53s41.12-.79,44.5-.79,11.61-1.06,11.61-1.06c0,0-.48-14.78,0-18.21.48-3.43-.97-26.39,0-31.14.97-4.75.97-18.74,1.45-26.65.49-7.92-1.45-21.64-1.45-28.5s-.97-19.27,0-22.17c.97-2.9.48-3.96.48-3.96l-63.85-2.11s-38.22.79-56.6.53c-18.39-.26-74.5.27-85.14.27s-24.19-.27-24.19-.27l-5.8,1.06-.48,5.02Z"/>
    <g>
      <path d="M153.19,238.65c.87-2.79,1.84-5.16,2.33-7.62.61-3.11,1.11-6.29,1.16-9.44.12-7.41-.19-14.82-.05-22.23.07-3.79.57-7.54,1.91-11.22,1.95-5.36,1.72-11.07,1.69-16.7,0-1.53,0-3.07,0-4.86,2.42-1.7,4.92-.8,7.24.55,3.41,1.99,5.81,4.92,7.29,8.62,1.65,4.15,3.58,8.2,5.12,12.39,2.55,6.93,7.47,8.49,15.65,7.58,4.5-.5,8.5-2.61,12.28-5.46-.3-.82-.82-1.63-.81-2.43,0-.79.32-1.96.88-2.28,1.96-1.11,3.97-2.33,6.46-1.19,4.6,2.1,9.33,1.5,13.83-.15,3.8-1.39,7.38-3.41,11.19-5.21-.85-3-3.72-4.09-5.85-6.32,1.3-.41,2.2-.79,3.14-.98,6.93-1.47,13.01-4.48,17.92-9.67.61-.65,1.3-1.24,1.94-1.86,3.37-3.28,5.73-3.84,9.88-1.58,2.3,1.25,4.8,2.85,6.18,4.96,5.27,8.11,13.14,10.85,22.12,11.77,1.9.19,3.83.37,5.67.84,14.33,3.7,28.81,7.04,41.75,14.66,3.51,2.07,6.96,4.31,10.14,6.85,3.27,2.61,4.2,6.31,3.29,10.38-.85,3.82-3.61,5.32-7.92,4.3-2.11-.5-4.2-1.11-6.24-1.83-3.13-1.1-6.09-.58-8.89.86-4.33,2.23-8.39,4.87-11.59,8.78,7.71,6.69,15.91,4.74,24.13,1.46,1.05-.42,1.97-1.6,2.57-2.64,2.31-4.06,5.01-4.38,7.9-.77.3.38.45.89.72,1.43-1.72,3.03-4.68,4.46-7.61,5.47-15.94,5.51-31.97,10.69-49.1,10.94-5.75.08-11.49.49-17.24.73-4.39.18-8.15,1.96-11.55,4.59-1.72,1.33-3.43,2.67-5.07,4.1-3.76,3.26-8.36,4.27-13.07,4.91-1.16.16-2.41-.38-4.56-.77,1.99-1.44,3.23-2.45,4.57-3.27,1.59-.97,2.32-2.21,2.13-4.12-.16-1.63-.03-3.28-.03-4.95-5.23-1.2-10.7-2.32-16.1-3.73-3.44-.9-6.75-2.25-10.14-3.34-2.25-.72-3.87-.22-5.66,1.73-3.92,4.28-8.81,7.23-14.94,8.46.11-7.89-1.77-14.76-8.42-20.06,1.57-.78,3.06-1.51,4.9-2.42-6.31-4.11-12.86-6.43-20.08-5.75-3.22.3-5.71,2.52-7.41,5.51-2.08,3.66-4.21,7.33-6.73,10.69-2.21,2.93-4.82,5.63-7.59,8.06-2.4,2.11-5.29,3.58-9.29,2.26ZM300.28,232.12c3.85-.23,7.01-1.18,9.43-4.06,5.68-6.77,12.34-12.55,19.04-18.27,6.4-5.47,6.64-8.1,1.32-14.58-4.53-5.52-11.39-7.92-17.42-5.62-10.27,3.91-18.1,10.89-23.63,20.31-1.79,3.05-3.14,6.68-2.05,10.24,1.74,5.71,6.12,9.22,11.36,11.7.65.31,1.49.23,1.96.29ZM233.65,222.98c4.53.82,8.37,1.73,12.27,2.14,2.67.28,4.74-.94,6.15-3.58,3.07-5.72,4.61-11.88,5.77-18.16,1.29-6.97,2.75-13.82,8.55-18.73.1-.08-.03-.44-.06-.78-5.24-.39-10.36.54-15.53,1.28-5.28.75-8.57,3.6-10.29,8.48-1.54,4.37-2.37,8.86-2.36,13.51.01,5.42-.41,10.75-4.5,15.83ZM192.96,202.27c2.83,2.19,5.16,4.11,7.62,5.85,1.97,1.39,3.98,2.82,6.17,3.78,3.38,1.48,6.9,2.64,10.41,3.8,2.36.78,4.72.84,6.72-.65-.23-3.01-.79-5.8-.59-8.53.36-4.93,2.24-9.41,5.07-13.47.8-1.14,1.49-2.36,2.69-4.29-13.35,4.74-25.71,9.13-38.09,13.52ZM295.42,190.57c-2.78-.94-4.95-1.64-7.1-2.4-1.2-.42-2.36-.96-3.55-1.4-3.33-1.21-5.97-.21-8.09,2.52-2.56,3.29-3.98,7.03-5,11.06-1.6,6.3-3.44,12.55-5.51,18.71-.95,2.83-2.67,5.4-4.11,8.23,8.12-.4,13.57-4.24,16.36-11.73,1.16-3.11,2.16-6.27,3.28-9.4,1.96-5.46,5.26-9.88,10.16-13.07,1.14-.74,2.22-1.58,3.55-2.53ZM172.23,213.23c1.14-.09,2.3-.1,3.42-.3,4.62-.8,8.18-4.53,8.34-8.68.2-5.04-2.92-9.29-7.67-10.57-4.66-1.26-11.61,1.48-14.08,7.33-1.23,2.92-.2,6.92,2.09,9.15,2.21,2.15,4.69,3.52,7.9,3.07ZM242.84,178.07c6.17-.98,11.91-2.11,17.69-2.75,5.71-.63,11.48-.75,17.4-1.11-3.04-2.43-4.61-2.85-8.99-2.33-5.05.59-9.86.16-14.2-3.01v4.24c-2.24.47-4.34.83-6.41,1.36-2.13.54-3.99,1.57-5.49,3.6ZM336.93,204.49c.79.04,1.17.11,1.54.06,1.26-.18,2.52-.36,3.76-.61,3.18-.63,4.1-2.4,2.45-5.13-.76-1.26-1.87-2.53-3.14-3.2-2.92-1.55-6.03-2.74-9.06-4.08,2.47,4.14,4.42,8.06,4.45,12.96ZM280.04,222.18c-.81,2.05-1.83,4.1-2.42,6.26-.73,2.66-.07,3.62,2.63,4.54,3.59,1.22,7.13.7,10.51-.17-3.46-3.44-6.84-6.79-10.71-10.64ZM166.45,178.07c0,2.56.26,4.38-.07,6.09-.32,1.66-.82,3.97-2.01,4.64-2.69,1.52-3.42,3.73-4.07,7.32,4.91-5.55,10.68-5.68,16.82-5.12-1.41-1.24-2.84-2.3-4.44-2.78-2.47-.74-3.51-2.34-3.74-4.7-.17-1.77-.55-3.45-2.48-5.45ZM175.73,216.5c-.03-.43-.05-.85-.08-1.28-6.09,1.06-11.87.94-16.59-3.93.29,1.26.65,2.46,1.45,3.01,3.89,2.63,3.61,6.05,2.23,9.82-.5,1.35-.87,2.75-1.3,4.12l.89.41c1.15-2.05,2.53-4.02,3.4-6.18.99-2.49,2.27-4.06,5.19-4.27,1.64-.12,3.21-1.1,4.82-1.69ZM220.55,226.16c-2.93-1.72-5.22-3.26-7.69-4.46-1.54-.75-3.24-2.95-4.98-1.14-1.61,1.67.15,3.57.96,5.17,1.47,2.88,3.96,3.69,6.95,2.49,1.4-.56,2.77-1.2,4.76-2.06Z"/>
      <path d="M332.12,155.8c-.26-5.76-.52-11.42-.79-17.29,4.04-.91,7.7-.92,11.14.51,3.53,1.46,3.47,5.16-.02,8.31,1.7,2.43,3.42,4.88,5.13,7.33-.12.2-.24.4-.36.61-.73-.19-1.67-.15-2.16-.6-1.88-1.71-3.71-3.49-5.36-5.42-1.26-1.48-2.6-1.84-4.65-1.21,0,1.87.06,3.75-.02,5.63-.07,1.45-.15,1.45-2.9,2.14ZM334.32,140.02c.18,2,.33,3.6.51,5.62,2.1-.17,4-.13,5.81-.53,1.52-.34,2.44-1.75,1.97-3.21-.26-.81-1.57-1.64-2.51-1.8-1.72-.29-3.52-.08-5.78-.08Z"/>
      <path d="M176.68,147.12h-10.93c-.3,2.53-.6,4.98-.89,7.43-.26.08-.52.16-.78.24-.45-.59-1.32-1.21-1.29-1.78.31-5.29-.4-10.73,1.6-16.4,3.11,2.62.34,5.57,1.74,8.09,3.23.16,6.6.33,10.13.5.38-2.63.71-4.98,1.05-7.29,1.54-.43,2.17.23,2.18,1.42.04,4.85.06,9.69-.04,14.54-.01.66-.77,1.3-1.18,1.95-.31-.06-.62-.11-.93-.17-.21-2.78-.42-5.56-.65-8.54Z"/>
      <path d="M364.99,154.93c-4.28.99-8.56,1.16-13.42,1.08-.34-5.73-.65-11.13-.98-16.81,4.2-.77,7.96-.95,11.74-.42.03.35.06.71.09,1.06-2.98.35-5.96.71-9.11,1.08v4.63h7.46c-1.89,2.71-4.62,1.58-7.34,2.46.09,1.8.19,3.74.3,5.8,3.9.77,7.72-.47,11.27,1.13Z"/>
      <path d="M268.26,148.04h-10.49c0,1.62.04,2.97-.01,4.31-.05,1.16.35,2.59-1.83,3.15-1.27-5.52-.26-10.9-.86-16.8q2.08,2.05,2.72,7.01h10.02c.33-2.33.63-4.41,1.03-7.2.9.99,1.83,1.53,1.85,2.1.12,4.81.07,9.62.07,14.58-1.8.11-2.53-.9-2.5-2.73.02-1.38,0-2.76,0-4.42Z"/>
      <path d="M327.06,146.92c-.01,3.75-1.85,6.33-4.78,7.95-3.15,1.74-6.48,1.31-9.48-.53-2.47-1.52-4.06-3.93-4.9-6.67-1.03-3.36.36-6.47,3.5-8.09,4.35-2.25,8.66-1.88,12.71.77,2.39,1.56,2.75,4.15,2.95,6.57ZM318.21,154.03c3.74-.03,7.07-2.93,7.13-6.49.07-4.25-1.77-6.54-5.82-7.08-2.8-.38-5.32.17-7.76,1.35-1.91.92-2.69,2.6-2.37,4.72.62,4.14,4.62,7.55,8.82,7.51Z"/>
      <path d="M238.63,150.37c.82,1.15,1.18,1.76,1.64,2.27,1.96,2.2,5.91,2.14,7.84-.08.93-1.07.89-2.19-.12-3.03-.86-.71-1.94-1.19-2.99-1.6-.82-.32-1.76-.32-2.62-.54-2.61-.68-3.77-2.05-3.6-4.16.19-2.37,2.05-4.07,4.69-4.1,1.98-.02,4.04-.02,5.54,2.52-3.12-.02-6.89-2.18-7.68,3.11,1.04.41,2.05.84,3.09,1.21.6.21,1.26.24,1.86.45,3.08,1.03,4.72,2.9,4.47,5.01-.23,1.94-2.62,4.06-5.16,4.58-3.36.69-6.43-.66-7.32-3.32-.15-.46.16-1.07.37-2.31Z"/>
      <path d="M275.49,151.06c.69.64,1.34,1.34,2.08,1.92,1.97,1.57,5.4,1.34,6.97-.45,1-1.14,1.18-2.44-.25-3.22-1.65-.91-3.46-1.56-5.25-2.15-3.16-1.04-4.01-2.07-3.63-4.8.36-2.65,2.13-4.12,5.14-3.84,1.45.13,2.9.77,4.22,1.43.43.21.47,1.21.84,2.29-1.63-.72-2.73-1.3-3.88-1.7-1.72-.59-3.37.26-3.9,1.95-.57,1.85.61,2.48,2.08,2.95,1.57.5,3.22.89,4.66,1.65,3.41,1.81,3.49,5.46.27,7.62-3.07,2.06-7.19,1.62-9.31-1.11-.44-.56-.46-1.45-.67-2.19.21-.12.42-.23.63-.35Z"/>
      <path d="M187.45,153.64c3.5.16,6.59.3,10.12.47-2.07,2-3.85,2.1-11.9,1-.09-1.24-.28-2.59-.25-3.92.07-3.44.28-6.88.36-10.33.04-1.84.81-2.94,2.7-2.95,2.27-.01,4.56.01,6.82.19.77.06,1.51.63,2.78,1.2-3.63,1.9-6.99.21-10.34.98-.08,1.3-.15,2.52-.25,4.12,2.8.46,5.42.88,8.05,1.31-2.45,2.19-5.36.73-8.1,1.7v6.24Z"/>
      <path d="M215.6,148.18c-.13,2.58-.22,4.85-.37,7.12-.02.33-.38.63-.62,1.01-1.73-2.62-2.09-7.77-1.31-17.42,4.09-.53,8.23-.68,12.39.27-3.04,2.48-6.8.93-10.19,2.03v4.7h9.02c.03.36.06.72.1,1.08-2.74,1.42-5.89.79-9.01,1.21Z"/>
      <path d="M298.88,155.98c-2.35.3-2.65-1.09-2.67-2.78-.04-3.18-.08-6.36-.15-9.54-.02-.87-.15-1.73-.22-2.46-2.07-1.29-4.79.64-6.46-1.73,2.74-1.32,13.29-1.22,16.51.54-2.78.39-4.81.68-7.02.99v14.99Z"/>
      <path d="M149.1,139.5c-1.94-.35-3.47-.63-5-.91.03-.2.06-.4.09-.61h13.82c.03.29.06.59.09.88-1.77.17-3.53.34-5.84.56-.02,3.41-.04,6.79-.08,10.17-.02,1.27.09,2.59-.22,3.79-.17.65-1.08,1.11-1.66,1.66-.45-.64-1.27-1.28-1.28-1.93-.08-3.3.05-6.61.09-9.92.02-1.24,0-2.48,0-3.7Z"/>
      <path d="M230.67,137.97c.83.93,1.55,1.36,1.55,1.79.08,5.4.05,10.8.05,17.1-.96-1.2-1.8-1.76-1.84-2.37-.29-4.83-.43-9.66-.57-14.49-.01-.44.34-.89.8-2.03Z"/>
      <path class="cls-5" d="M300.28,232.12c-.47-.06-1.31.02-1.96-.29-5.24-2.48-9.62-5.99-11.36-11.7-1.08-3.56.27-7.2,2.05-10.24,5.53-9.42,13.36-16.39,23.63-20.31,6.04-2.3,12.89.1,17.42,5.62,5.32,6.48,5.08,9.12-1.32,14.58-6.7,5.72-13.35,11.5-19.04,18.27-2.42,2.89-5.58,3.83-9.43,4.06ZM314.8,199.17c-.25.03-.77.02-1.26.15-6.79,1.8-11.06,6.46-14.01,12.52-.48.98-.54,2.23-.55,3.36-.03,2.64,2.23,5.11,5.43,6.12,3.07.97,4,.44,6.26-1.97,3.36-3.6,7.07-6.87,10.48-10.42.77-.8,1.36-2.22,1.29-3.3-.25-3.46-3.82-6.42-7.63-6.46Z"/>
      <path class="cls-1" d="M233.65,222.98c4.09-5.08,4.51-10.41,4.5-15.83,0-4.65.82-9.14,2.36-13.51,1.72-4.88,5.01-7.73,10.29-8.48,5.17-.74,10.29-1.67,15.53-1.28.03.34.16.69.06.78-5.8,4.9-7.26,11.75-8.55,18.73-1.16,6.28-2.7,12.44-5.77,18.16-1.41,2.64-3.48,3.86-6.15,3.58-3.9-.41-7.74-1.32-12.27-2.14Z"/>
      <path class="cls-1" d="M192.96,202.27c12.38-4.4,24.73-8.78,38.09-13.52-1.2,1.93-1.89,3.15-2.69,4.29-2.83,4.07-4.71,8.55-5.07,13.47-.2,2.73.36,5.52.59,8.53-1.99,1.49-4.36,1.43-6.72.65-3.51-1.16-7.03-2.32-10.41-3.8-2.19-.96-4.2-2.38-6.17-3.78-2.46-1.74-4.79-3.66-7.62-5.85Z"/>
      <path class="cls-1" d="M295.42,190.57c-1.33.95-2.41,1.79-3.55,2.53-4.9,3.19-8.21,7.61-10.16,13.07-1.12,3.12-2.12,6.29-3.28,9.4-2.8,7.49-8.25,11.33-16.36,11.73,1.44-2.83,3.16-5.4,4.11-8.23,2.06-6.16,3.91-12.41,5.51-18.71,1.03-4.03,2.44-7.77,5-11.06,2.12-2.73,4.76-3.73,8.09-2.52,1.2.43,2.35.97,3.55,1.4,2.15.76,4.32,1.46,7.1,2.4Z"/>
      <path class="cls-5" d="M172.23,213.23c-3.21.45-5.69-.92-7.9-3.07-2.29-2.23-3.32-6.23-2.09-9.15,2.47-5.85,9.42-8.58,14.08-7.33,4.74,1.28,7.86,5.52,7.67,10.57-.16,4.15-3.72,7.89-8.34,8.68-1.12.19-2.28.2-3.42.3ZM173.6,210.29c4.99.02,8.26-3.17,8.26-8.08,0-3.42-3.07-6.02-7.04-5.95-4.07.06-8.11,3.41-8.12,6.72,0,3.96,3.14,7.29,6.9,7.31Z"/>
      <path class="cls-5" d="M242.84,178.07c1.5-2.03,3.36-3.06,5.49-3.6,2.07-.52,4.18-.89,6.41-1.36v-4.24c4.33,3.17,9.15,3.6,14.2,3.01,4.38-.51,5.94-.09,8.99,2.33-5.92.36-11.68.48-17.4,1.11-5.79.64-11.52,1.77-17.69,2.75Z"/>
      <path class="cls-5" d="M336.93,204.49c-.04-4.9-1.98-8.82-4.45-12.96,3.03,1.34,6.14,2.52,9.06,4.08,1.27.67,2.38,1.95,3.14,3.2,1.65,2.74.73,4.51-2.45,5.13-1.25.25-2.51.43-3.76.61-.37.05-.75-.02-1.54-.06Z"/>
      <path class="cls-1" d="M280.04,222.18c3.87,3.84,7.25,7.2,10.71,10.64-3.38.87-6.91,1.39-10.51.17-2.7-.92-3.36-1.88-2.63-4.54.6-2.16,1.61-4.21,2.42-6.26Z"/>
      <path class="cls-5" d="M166.45,178.07c1.93,1.99,2.31,3.67,2.48,5.45.23,2.36,1.27,3.97,3.74,4.7,1.6.48,3.03,1.54,4.44,2.78-6.14-.56-11.91-.44-16.82,5.12.65-3.59,1.38-5.8,4.07-7.32,1.19-.67,1.68-2.98,2.01-4.64.33-1.71.07-3.53.07-6.09Z"/>
      <path class="cls-5" d="M175.73,216.5c-1.6.59-3.18,1.58-4.82,1.69-2.92.21-4.2,1.77-5.19,4.27-.86,2.17-2.25,4.13-3.4,6.18l-.89-.41c.43-1.38.8-2.77,1.3-4.12,1.38-3.76,1.66-7.19-2.23-9.82-.8-.54-1.16-1.75-1.45-3.01,4.71,4.88,10.5,4.99,16.59,3.93.03.43.05.85.08,1.28Z"/>
      <path class="cls-1" d="M220.55,226.16c-1.99.86-3.36,1.5-4.76,2.06-3,1.2-5.48.39-6.95-2.49-.82-1.6-2.58-3.5-.96-5.17,1.74-1.8,3.44.4,4.98,1.14,2.47,1.2,4.76,2.74,7.69,4.46Z"/>
      <path d="M314.8,199.17c3.81.04,7.38,3,7.63,6.46.08,1.08-.52,2.5-1.29,3.3-3.41,3.55-7.12,6.82-10.48,10.42-2.26,2.42-3.18,2.94-6.26,1.97-3.2-1.01-5.46-3.47-5.43-6.12.01-1.13.07-2.38.55-3.36,2.95-6.06,7.23-10.72,14.01-12.52.49-.13,1.01-.12,1.26-.15Z"/>
      <path d="M173.6,210.29c-3.75-.02-6.9-3.35-6.9-7.31,0-3.31,4.05-6.66,8.12-6.72,3.98-.06,7.05,2.53,7.04,5.95,0,4.9-3.28,8.1-8.26,8.08Z"/>
    </g>
  </g>
  <text class="cls-4" transform="translate(48.91 217.11)"><tspan class="cls-6" x="0" y="0">3</tspan><tspan x="20.55" y="0">1</tspan></text>
</svg>