<?xml version="1.0" encoding="UTF-8"?>
<svg id="Layer_1" xmlns="http://www.w3.org/2000/svg" viewBox="0 0 400 400">
  <defs>
    <style>
      .cls-1 {
        fill: #bea430;
      }

      .cls-2, .cls-3 {
        fill-rule: evenodd;
      }

      .cls-4 {
        font-family: AmericanTypewriter-CondensedBold, 'American Typewriter';
        font-size: 44px;
        font-weight: 700;
      }

      .cls-4, .cls-5 {
        fill: #fff;
      }

      .cls-3 {
        fill: #1bb24b;
      }
    </style>
  </defs>
  <g>
    <path class="cls-5" d="M122.76,128.86s-2.74,35.59-2.19,39.43c.55,3.83,1.1,27.93,1.1,29.57s-.55,44.9,0,46.54,1.1,13.69,1.1,13.69l3.29,5.48s83.23,1.1,88.71,1.1,102.94-1.1,106.78-1.1,54.76-.55,58.04-1.1c3.29-.55,7.67,5.48,7.12-4.93s-1.1-100.21-1.64-102.4c-.55-2.19,0-28.47,0-28.47l-145.11,1.1-55.85-1.64s-63.52,0-61.33,2.74Z"/>
    <g>
      <path d="M197.7,229.32c-2.06.19-3.69.34-5.31.5-1.16.11-1.79-.46-2.01-1.55-.24-1.19-.44-2.39-.67-3.58-.9-4.67-1.8-9.35-2.72-14.02-.07-.33-.23-.65-.69-.97,0,2.14,0,4.28,0,6.42.01,3.81.05,7.63.04,11.44,0,3.31-1.57,4.36-5.41,3.41-.05-2.74-.28-5.59-.13-8.41.43-8.59-.2-17.14-.43-25.72-.18-6.83.19-13.68.36-20.52.06-2.42.27-4.83.41-7.25.15-.07.3-.2.46-.2,3.6-.14,3.92.1,4.45,3.72.57,3.94,1.02,7.89,1.66,11.82.3,1.82.66,3.67,1.84,5.27.17-6.81-.64-13.63.98-20.47,2.07-.88,4.18-1.12,6.26-.13,0,10.09.19,20.04-.05,29.99-.25,9.96.03,19.89.97,30.25Z"/>
      <path d="M217.16,168.11c4.07-.86,7.96.09,11.59,2.12,1.68.94,2.29,2.8,2.63,4.62,1.7,9.4,1.91,13.49-2,22.03,2.64,3.81,3.26,7.99,2.85,12.59-.39,4.39-.18,8.84-.22,13.27-.02,2.24,0,4.48,0,6.94h-5.44c-.11-1.24-.29-2.5-.31-3.75-.09-6.51-.11-13.02-.21-19.52-.02-1.38-.18-2.78-.47-4.13-.22-1.03-.74-2.03-2.18-1.47-1.46,9.99-.55,20.01-.06,30.22-2.02.15-3.55.27-5.31.4-.12-.77-.29-1.42-.3-2.07-.18-9.72-.33-19.43-.51-29.15-.05-2.51-.3-5.03-.29-7.54.02-4.94.17-9.87.23-14.81.04-3.19,0-6.38,0-9.74ZM223.42,174.92c-.18,6.53-1.11,13.02-.01,19.95,2.31-2.11,2.36-4.6,2.54-6.91.36-4.54,0-9.01-2.53-13.04Z"/>
      <path d="M340.51,176.37c-.1,1.03-.23,2.05-.3,3.08-.57,7.88-.31,15.74.33,23.61.43,5.35.74,10.71.88,16.07.14,5.01-2.46,8.72-6.8,10.24-2.96,1.04-5.98-.31-7.32-3.12-1.62-3.41-1.6-7.04-1.66-10.67-.13-7.71-.25-15.41-.32-23.12-.03-3.89.08-7.79.12-11.68.02-2.34-.01-4.68.03-7.02.1-5.21,5.21-8.57,10.07-6.55.97.4,1.9,1.24,2.52,2.11,1.48,2.07,2.37,4.42,2.45,7.04ZM335.05,198.4c-.16,0-.32,0-.49,0,0-6.85.01-13.7-.01-20.55,0-1.03-.04-2.1-.33-3.08-.43-1.42-1.73-1.62-2.46-.32-.51.92-.71,2.13-.7,3.2.06,12.74.18,25.49.28,38.23.01,1.39.02,2.78.1,4.16.11,2.04.67,2.77,2,2.75,1.07-.01,1.58-.79,1.59-2.8.03-7.2.01-14.4.01-21.6Z"/>
      <path d="M358.23,194.86c.67,2.12,1.33,3.88,1.78,5.69,1.46,5.88,1.02,11.9,1.21,17.87.09,2.69.05,5.38.01,8.07-.04,2.45-.35,2.74-2.66,2.81-3.42.11-3.65-.09-3.31-3.41.67-6.67.41-13.34.06-20.01-.11-2.14-.58-4.25-2.32-6.32-.13.89-.26,1.42-.27,1.96-.15,8.15-.29,16.3-.43,24.46-.07,3.95-.08,3.97-3.92,3.72-.25-.02-.5-.1-1.07-.22-.05-.76-.12-1.58-.15-2.41-.19-5.72-.45-11.43-.54-17.15-.06-3.98.22-7.97.16-11.96-.07-4.07-.46-8.14-.54-12.21-.09-4.68.02-9.35.04-14.03,0-1.29,0-2.57,0-3.96,3.25-.71,6.25-1.02,9.31.15,2.99,1.14,4.6,3.28,5,6.36.17,1.28.17,2.6.15,3.9-.05,3.21-.04,6.43-.27,9.62-.19,2.68-.67,5.34-2.25,7.09ZM351.25,193.01c2.05-.43,2.47-1.68,2.68-3.07.68-4.55.81-9.11.27-13.67-.18-1.53-.65-3.01-2.06-4.13-1.67,6.89-1.29,13.71-.89,20.88Z"/>
      <path d="M153.31,191.4c0-3.84,0-7.11,0-10.39,0-1.04.02-2.08.03-3.12,0-1.07-.57-1.55-1.94-1.59-.14.88-.4,1.77-.4,2.66-.05,14.06-.08,28.11-.09,42.17,0,.76.2,1.51.32,2.36,1.54-.2,2.07-1.06,2.15-2.29.21-3.09.41-6.19.62-9.45-1.9-.09-2.51-.96-2.53-2.51-.02-1.53-.31-3.06-.5-4.84,2.77,0,5.26-.06,7.73.03,1.11.04,1.33.99,1.34,1.9.03,3.04.08,6.07,0,9.11-.06,2.34-.26,4.68-.47,7.01-.42,4.66-3.03,7.61-7.33,9.14-2.53.9-4.42.01-5.41-2.46-1.38-3.44-1.72-7.1-1.8-10.72-.27-12.75-.38-25.5-.51-38.25-.03-3,.65-5.84,2.37-8.38,1.97-2.9,4.98-3.74,8.14-2.15,2.6,1.31,4.07,3.58,4.51,6.33.42,2.64.45,5.34.55,8.02.07,1.73-.02,3.47-.08,5.2-.03.97-.45,1.64-1.54,1.73-1.61.13-3.22.31-5.16.5Z"/>
      <path d="M242.39,210.89c-.36,4.23-.73,8.52-1.1,12.82-.15,1.73-.22,3.46-.45,5.18-.26,1.98-.78,2.32-2.78,2.02-.76-.11-1.5-.32-2.22-.47,1.43-20.88,3.82-41.51,3.93-62.42,2.76.17,5.15.31,7.88.48.3,2.91.66,5.8.9,8.7.82,9.94,1.59,19.88,2.4,29.81.54,6.57,1.13,13.13,1.68,19.69.14,1.67-1.78,4.03-3.39,4.08-1.02.03-1.9-.44-2.1-1.56-.2-1.11-.27-2.24-.39-3.36-.47-4.57-.91-9.14-1.42-13.7-.17-1.52-.37-1.56-2.96-1.28ZM243.73,195.74c-.28-.02-.56-.03-.84-.05-.26,3.3-.53,6.59-.8,10.08h2.74c-.38-3.46-.74-6.74-1.1-10.03Z"/>
      <path d="M294.74,209.28c0,3.77-.01,7.4,0,11.03,0,.95.03,1.91.17,2.85.2,1.35,1.11,2.35,2.07,2.32,1.35-.05,1.78-1.13,1.82-2.16.18-4.14.48-8.3-1.11-12.31-1.27-3.22-2.45-6.48-3.56-9.76-1.97-5.83-3.99-11.64-5.73-17.54-1.18-4-.94-8.08.76-11.96,1.14-2.6,3.1-4.45,5.96-4.93,3.86-.65,7.15,1.53,7.97,5.39.7,3.3,1.01,6.68-.07,10.18h-5.12c.05-.94.09-1.76.15-2.58.11-1.66.05-3.28-.9-4.76-.73-1.14-1.6-1.32-2.44-.29-.41.51-.74,1.22-.77,1.86-.06,1.11.05,2.25.25,3.34.36,1.87.85,3.71,1.29,5.57.52,2.2,1.12,4.37,2.48,6.24.35.48.65,1.05.83,1.62,1.92,6.38,4.74,12.51,5.74,19.13.74,4.91-.25,9.71-2.31,14.18-.86,1.87-1.94,4.16-4.58,4.06-2.87-.11-5.42-1.14-6.97-3.8-.39-.67-.74-1.39-.96-2.13-1.07-3.67-1.88-7.38-1.61-11.26.25-3.73.9-5.95,6.63-4.28Z"/>
      <path d="M157.72,152.67c-.56.61-1.28,1.14-1.65,1.85-1.45,2.75-2.79,5.56-4.16,8.36-.42.85-.69,1.79-1.22,2.57-.28.41-1.11.85-1.44.71-.51-.22-1.07-.91-1.12-1.45-.08-.92.14-1.89.36-2.81,1.39-5.95,3.7-11.53,6.84-16.78.26-.43.46-.9.7-1.37-3.3-.87-8.96-.51-11.72.81-2.18,1.05-4.32,2.19-6.46,3.33-1.98,1.06-3.32,2.75-4.39,4.67-1.5,2.67-1.34,5.31.26,7.87.41.66,1.23,1.35.5,2.01-.63.57-1.7,1.08-2.5.98-1.79-.24-3.32-1.29-3.88-3.06-.74-2.37-.73-4.78.61-7.04,1.47-2.49,3.3-4.68,5.55-6.49,4.39-3.54,9.13-6.3,14.99-6.47,2.94-.09,5.88-.16,8.81-.37.78-.06,1.64-.46,2.25-.97,1.88-1.58,3.86-2.96,6.22-3.68.82-.25,1.69-.46,2.53-.45,1.65.02,3.19,1.27,3.48,2.64.28,1.33-.44,2.85-1.91,3.67-2.3,1.27-4.81,1.94-7.44,2.12-.94.06-1.9.01-3.07.01-.8,1.75-1.58,3.43-2.55,5.54,1.1-.22,1.74-.37,2.39-.48,2.48-.44,3.5.64,2.7,3.07-.73,2.22-1.72,4.35-2.52,6.55-.33.9-.45,1.88-.74,3.17,1.79-.46,2.1-1.62,2.51-2.59,1.41-3.3,3.35-6.25,5.68-8.97,1.26-1.47,2.65-2.75,4.56-3.3,1.73-.5,2.88-.31,3.52.75.76,1.24.57,2.52-.23,3.67-1.17,1.69-2.66,2.86-4.83,3.18-2.63.39-2.9.88-2.7,3.79,1.86.91,3.3-.13,4.61-1.24.77-.66,1.22-1.68,1.93-2.43.69-.73,1.49-1.4,2.34-1.94.31-.19,1.09-.05,1.34.22.27.3.3.96.19,1.41-.12.48-.48.92-.81,1.31-1.34,1.59-2.65,3.21-4.08,4.72-3.64,3.84-6.26,3.81-9.86-.19-.83,1.02-1.63,2.03-2.46,3.02-.5.6-1,1.2-1.58,1.72-.74.65-1.59,1.04-2.62.54-1.03-.5-1.22-1.37-1.2-2.38.03-2.56.75-4.95,1.82-7.26.34-.74.62-1.5.93-2.25-.16-.1-.32-.19-.48-.29ZM169.73,137.73c-2.76-.57-4.78.55-6.85,2.25,3.38.81,5.77.06,6.85-2.25ZM172.22,148.32c-2.27.64-3.44,2.13-3.29,4.18,3.09-.43,4.03-1.61,3.29-4.18Z"/>
      <path d="M213.46,173.34c-1.9.49-3.81.97-5.92,1.52-.7,2.73-.04,5.68-.08,8.6-.04,2.86,0,5.72,0,8.25.48.44.59.64.73.66,2.98.5,4.59,2.04,4.16,5.26-.06.48.2,1,.39,1.88-1.87.38-3.68.74-5.81,1.17.14,7.76-.34,15.51.92,23.08,1.74.49,3.2.9,4.87,1.37-.39,2.03-.73,3.77-1.1,5.65-2.57.15-4.98.37-7.39.41-1.68.03-2.26-.63-2.41-2.4-.12-1.38-.17-2.77-.2-4.16-.16-8.33-.28-16.65-.46-24.98-.05-2.25-.41-4.5-.36-6.75.11-5.2.39-10.4.59-15.6.09-2.25.2-4.5.23-6.75.02-2.27.28-2.66,2.44-2.69,2.52-.04,5.03.04,7.55.05,1.28,0,1.93.57,1.88,1.9-.04,1.11,0,2.22,0,3.54Z"/>
      <path d="M365.41,167.43c.62-.16,1.19-.37,1.77-.43,2.83-.3,5.66-.57,8.42-.84,1.89,2.3,1.18,4.51.77,6.53-1.86.09-3.44.17-5.2.26.02,6.25-1.11,12.17-.08,18.15,1.95.62,4.43.26,4.54,3.32.12,3.62-2.78,3.01-4.95,3.54-.07.78-.18,1.44-.19,2.11-.05,5.81-.1,11.61-.13,17.42-.01,2.91.18,3.08,3.21,3.56.94.15,1.86.37,2.94.59v6.98c-.61.19-1.32.59-2.04.6-2.51.06-5.02.07-7.53-.06-1.69-.09-2.09-.56-2.16-2.29-.07-1.56.02-3.12.05-4.68.1-6.75.31-13.5.26-20.25-.04-6.75-.1-13.52-.6-20.25-.36-4.82.08-9.48.93-14.25Z"/>
      <path d="M269.75,229.51c-1.08.38-1.63.7-2.21.76-2.48.25-4.97.5-7.47.61-2.19.1-2.44-.13-2.58-2.25-.22-3.29-.36-6.58-.47-9.87-.16-4.94-.31-9.88-.38-14.82-.04-3.2.09-6.41.12-9.62.07-6.58.08-13.17.21-19.75.04-1.98.39-3.96.6-5.97,1.59-1.28,3.15-.19,4.94-.16.11,2.2.34,4.26.3,6.31-.07,3.64-.41,7.27-.45,10.9-.05,4.5-.03,9,.19,13.5.32,6.49.84,12.97,1.29,19.45.09,1.29.27,2.57.38,3.6,1.72.88,3.66,1.29,4.57,2.49.86,1.13.65,3.09.93,4.83Z"/>
      <path d="M175.73,223.66v7.22c-2.88,0-5.53.01-8.18,0-1.02,0-1.34-.83-1.39-1.59-.15-1.98-.21-3.97-.22-5.95-.04-5.97-.03-11.94-.04-17.91-.03-9.88-1.35-19.73-.48-29.62.19-2.13.21-4.28.32-6.71,1.59-.77,3.39.45,5.22.41,1.89-.04,3.78.15,5.79.25v6.06c-1.85,1.33-3.69.08-5.76.46-1.04,6.07-.35,12.25-.57,18.54h4.23c.07,1.54.19,2.97.18,4.4-.01,1.15-.96,1.34-1.84,1.4-1.21.09-1.93.54-1.95,1.89-.08,6.59-.2,13.17-.29,19.76,0,.32.17.65.33,1.19,1.52.07,3.04.14,4.68.21Z"/>
      <path d="M306.5,168.24c5.05-.46,9.73-.88,14.62-1.32v6.95c-1.6.3-3.03.57-4.66.88-1.36,9,.39,18.07-.03,27.13-.42,9.07-.5,18.17.55,27.48-1.8.15-3.39.28-5.11.42-.87-3.12-.78-6.13-.68-9.14.13-4.15.31-8.31.29-12.46-.06-10.75-.22-21.49-.34-32.24,0-.5,0-1,0-1.79-1.76.09-3.34.17-5.14.27.18-2.21.34-4.24.5-6.17Z"/>
      <path d="M151.16,146.09c-.05.16-.12.41-.21.65-1.64,4.56-3.14,9.18-4.95,13.67-2.07,5.14-5.68,9.29-9.31,13.38-.56.63-1.33,1.16-2.11,1.48-.55.22-1.43.23-1.9-.07-.85-.53-.33-1.39-.04-2.1.09-.23.27-.45.45-.63,4.22-4.35,6.3-9.91,8.64-15.31,1.49-3.44,2.99-6.84,5.44-9.71.67-.79,1.42-1.53,2.25-2.14.77-.57,1.7-.13,1.75.78Z"/>
      <path d="M231.09,239.92c.6-.1.93-.2,1.27-.2.51,0,1.03.06,1.69.1.55,1.52,1.1,3.04,1.79,4.95.36-1.89.65-3.35.95-4.92h2.89c1.05,5.28.43,10.66,1.16,16.19h-4.35c-.49-1.57-.98-3.17-1.48-4.76-.16.02-.31.05-.47.07v4.37h-4.03c-.01-5.34.06-10.57.58-15.79Z"/>
      <path class="cls-1" d="M278.77,246.84c.27,2.88.21,3.06-1.68,6.09.5.59,1.03,1.21,1.89,2.21-1.08.25-2.24.81-2.5.53-1.02-1.1-2-.46-3.07-.38-1.54.12-3.1.13-4.63,0-1.68-.15-2.98-1.1-3.44-2.74-.5-1.77-.2-3.45,1.46-4.61.28-.2.59-.36.75-.46-1.19-3.48-.46-6.22,1.82-7.52,1.63-.93,4.15-.34,5.36,1.24,1.46,1.91,1.11,3.01-2.23,6.71.9,1.05,1.82,2.12,2.74,3.2.17-.07.34-.13.51-.2.12-1.33.25-2.66.38-4.09h2.63ZM273.29,253.07c-1.34-1.74-2.06-3.48-4.02-3.93-.87,1.13-1.3,2.35-.68,3.49.65,1.19,2.01.68,3.09.72.4.02.8-.13,1.61-.28ZM271.02,245.93c.59-.9,1.17-1.6,1.5-2.4.11-.27-.33-1.01-.67-1.15-.33-.13-1.09.1-1.27.4-.52.87-.96,1.86.44,3.15Z"/>
      <path d="M344.72,250.6c0-3.27-.07-6.55.06-9.81.02-.62.66-1.44,1.24-1.79,2.08-1.27,4.33-.98,6.48-.17.51.19,1.06,1.03,1.09,1.6.2,3.62.41,7.24.32,10.86-.06,2.25-1.48,3.38-3.73,3.52-.77.05-1.58.07-2.32-.11-3.72-.9-3.38-.22-3.13-4.1ZM350.13,252.17c0-3.57.01-6.84,0-10.12,0-1.3-.7-1.62-1.94-1.19v11.31h1.94Z"/>
      <path d="M362.07,244.88c.16-2.6.28-4.54.41-6.67,1.35.08,2.35.14,3.52.21.08.96.22,1.71.19,2.46-.15,3.64-.34,7.27-.52,10.91-.01.26-.04.52-.06.78-.09,1.1-.9,1.42-1.79,1.54-.93.13-1.38-.43-1.65-1.29-.4-1.25-.9-2.48-1.36-3.71-.17.04-.33.09-.5.13-.13,1.67-.26,3.34-.4,5.21-1.11-.07-2.02-.12-3.16-.19v-15.48c1.25-.44,2.12.03,2.74,1.52.59,1.42,1.5,2.71,2.57,4.58Z"/>
      <path d="M162.34,256.62h-3.47c-.1-2-.24-3.88-.27-5.76-.04-2.77-.09-5.54.02-8.3.08-2.02.62-2.39,2.61-2.19,1.11.11,2.22.27,3.34.37,1.98.17,2.98,1.15,2.98,3.14,0,.67-.17,1.37-.4,2-.23.64-.62,1.23-.93,1.83,3.15,2.09,1.47,5.34,2.25,7.91-1.54,1.29-2.96,1.43-4.72.41v-7.26c-2,1.11-1.24,2.62-1.36,3.8-.12,1.27-.03,2.56-.03,4.04ZM162.03,247.47c2.55-.98,2.93-1.46,2.64-2.96-.34-1.7-1.01-2.33-2.64-2.4v5.35Z"/>
      <path d="M304.28,238.18c2.38.21,4.27.32,6.14.55,1.26.16,2.34,1.48,2.34,3.03,0,1.36-.29,2.71-.49,4.3,1.64,2.23,1.13,6.78-1.25,8.6-.51.39-1.25.61-1.9.65-1.12.08-2.26.02-3.37-.1-1.68-.18-1.9-.37-1.87-2.14.08-4.83.25-9.66.4-14.88ZM307.86,246.98v6.3c1.9-.82,2.24-1.34,2.22-3.14-.02-1.79-.45-2.46-2.22-3.17ZM307.38,246.01c2.05-.79,2.78-1.99,2.46-3.64-.21-1.08-.62-2.02-2.17-1.47-.09,1.61-.18,3.22-.29,5.11Z"/>
      <path d="M319.14,239.16c.77-.09,1.36-.19,1.95-.22,2.07-.11,2.21-.13,2.7,1.89,1.07,4.43,2,8.89,3.02,13.47-.79.31-1.4.6-2.03.79-1.15.34-1.83-.16-2.08-1.29-.26-1.17-.49-2.35-.73-3.5q-1.51.11-2.28,4.31c-1.09.65-2.2.75-3.6-.16.76-5.1,1.4-10.28,3.06-15.29ZM320.72,248.02c.27,0,.53.02.8.02-.05-.5-.09-.99-.14-1.49-.13,0-.26-.02-.4-.02-.09.5-.18.99-.27,1.49Z"/>
      <path d="M227.87,247.81c0,1.91.12,3.82-.03,5.72-.16,2.05-.97,2.67-3.04,2.75-.52.02-1.04,0-1.56-.04-2.96-.22-3.81-.96-4.01-3.98-.21-3.11-.19-6.24-.27-9.36,0-.09,0-.17,0-.26.14-1.96,1.48-2.86,4.39-2.94,3.13-.09,4.35.57,4.5,2.64.13,1.81.03,3.64.03,5.46ZM224.54,253.56c.21-3.74,1.2-7.38.27-11.17h-2.03c0,3.52-.03,6.87.02,10.23.01.79.54,1.25,1.73.94Z"/>
      <path d="M247.53,249.62c-.63-.68-1.37-1.29-1.86-2.06-.87-1.35-1.89-2.72-2.31-4.23-.5-1.79.4-3.05,2.2-3.54,1.32-.36,2.72-.54,4.09-.57,2.24-.04,2.81.6,2.76,2.76-.01.6-.15,1.19-.28,2.06-1.09.06-2.16.12-3.36.18-.12-1.04-.21-1.86-.31-2.78-1.3,1.45-1.11,2.72.29,4.44,1.08,1.33,2.12,2.72,2.93,4.21,1.26,2.32.92,3.94-.81,5.32-1.54,1.22-4.18,1.2-5.83-.05-1.18-.89-2.11-3.97-1.43-5.21.24-.43.92-.82,1.44-.86.84-.07,1.71.16,2.56.27,0,1.26,0,2.51,0,3.95,2.11-1.44,2.05-2.08-.05-3.91Z"/>
      <path d="M377.75,242.32h-2.75c-.19-.68-.36-1.32-.57-2.08-.53.1-.99.18-1.73.31.96,2.67,2.49,4.73,4.22,6.61,2.15,2.34,2.38,3.99.65,6.07-1.53,1.84-5.61,2.38-7.12,1.12-1.02-.85-1.77-3.89-.99-4.97.7-.97,1.75-.88,2.78-.65.24,1.09.45,2.09.69,3.07.03.13.24.21.37.32,1.85-1.27,1.98-1.34,1.06-2.96-.8-1.4-1.9-2.63-2.9-3.91-.21-.26-.55-.41-.82-.63-1.05-.89-2.31-1.69-2.03-3.35.31-1.84,1.63-2.78,3.28-3.33.56-.19,1.18-.28,1.77-.31,3.58-.16,4.75.29,4.11,4.68Z"/>
      <path d="M179.82,247.43c0,1.21.08,2.43-.01,3.64-.34,4.4-3.82,6.44-7.73,4.47-.56-.28-1.11-1.16-1.16-1.8-.21-3.11-.37-6.23-.32-9.34.04-2.31,1.64-3.81,3.95-4.06.77-.08,1.56-.07,2.33,0,2.02.2,2.72.93,2.94,2.93.02.17.02.35.02.52,0,1.21,0,2.42,0,3.64h-.02ZM174.36,242.5v12.14c1.44.39,1.87-.33,1.87-1.3.03-3.29,0-6.57-.06-9.86-.02-1.02-.63-1.35-1.81-.98Z"/>
      <path d="M205.8,244.46c-.27-.94-.45-1.56-.67-2.29-.33.24-.63.34-.7.52-.48,1.25.21,2.05,1,2.96,1.12,1.28,2.31,2.64,2.94,4.18,1.55,3.8-1.46,7.47-5.54,7.01-1.74-.2-2.61-1.07-2.79-2.83-.04-.43-.03-.86-.03-1.3,0-2.96.25-3.17,3.56-2.68.24,1.21.5,2.48.83,4.16,1.59-1.28,1.32-2.47.79-3.49-.64-1.21-1.53-2.29-2.34-3.41-.4-.56-.92-1.04-1.31-1.6-1.93-2.83-.92-5.3,2.43-5.9.67-.12,1.38-.11,2.07-.09,2.88.08,3.68,1.12,3.18,4.38-1.02.11-2.1.24-3.43.38Z"/>
      <path d="M181.67,240.44c.96-.06,1.97-.11,3.24-.19.34,1.28.66,2.49,1.07,4.06.54-1.4.99-2.55,1.54-3.96.81-.04,1.72-.09,2.9-.15.08.79.27,1.45.18,2.07-.63,4.19-1.36,8.36-1.98,12.55-.26,1.75-1.43,1.92-2.78,1.92-1.29-1.95-4.41-13.93-4.17-16.31Z"/>
      <path d="M150.98,249.41v6.66c-.59.2-1.05.43-1.54.51-1.19.18-1.78-.38-1.78-1.6,0-4.49,0-8.99,0-13.59,2.24-.82,4.48-.74,6.68-.46.57.07,1.41.93,1.47,1.49.16,1.44.03,2.93-.15,4.37-.13,1.01-.84,1.66-1.9,1.88-.84.18-1.66.43-2.78.73ZM150.72,247.53c1.81-.53,2.54-1.83,2.26-3.51-.19-1.17-.76-1.64-2.01-1-.08,1.43-.16,2.85-.26,4.51Z"/>
      <path d="M294.12,255.11h-7.63c-.37-5.18-.66-10.38.27-15.76h3.25c.38,4.18-.05,8.39.37,12.7,1.18.15,2.18.27,3.39.42.1.8.2,1.6.34,2.65Z"/>
      <path d="M335.53,238.68c.38,2.46-1.51,1.45-2.65,2.02.19,4.38.38,8.84.58,13.25-4.09.99-4.11.99-4.12-2.86-.02-3.36,0-6.71,0-10.22-.91-.09-1.83-.18-2.81-.28-.37-1.27-.28-2.19,1.21-2.23,2.15-.06,4.3-.02,6.45,0,.41,0,.82.18,1.35.31Z"/>
      <path d="M300.99,255.06c-.86.21-1.35.35-1.86.45-2.09.39-2.48.1-2.49-1.98-.02-4.74,0-9.48,0-14.44h3.63c.24,5.41.48,10.69.72,15.98Z"/>
      <path d="M215.8,255.76c-1.07.14-1.97.25-3.05.38-.52-5.33-.86-10.36-.38-15.63h3.89c.93,5.08-.11,10.07-.45,15.24Z"/>
      <path d="M193.97,255.54c-.77-5.06-.57-10.02-.38-15.15h3.48c.15,1.94.35,3.88.42,5.83.07,2.15.02,4.31.02,6.47q0,3.16-3.54,2.86Z"/>
      <path d="M338.18,238.65c1.04-.14,1.88-.25,2.66-.36,1.01,1.72,1.53,11.12.89,15.58-1,.24-2.07.51-3.48.85-.1-.86-.24-1.58-.26-2.29-.11-3.02-.26-6.05-.26-9.07,0-1.54.28-3.07.44-4.7Z"/>
      <path class="cls-5" d="M247.53,249.62c2.11,1.83,2.17,2.47.05,3.91,0-1.44,0-2.7,0-3.95,0,0-.05.05-.05.05Z"/>
    </g>
  </g>
  <g>
    <polygon class="cls-3" points="64.82 156.17 12.46 232.82 15.08 236.12 114.96 232.65 79.08 166.74 68.4 154.27 64.82 156.17"/>
    <path class="cls-2" d="M96.89,193.53c3.51.51,2.58,5.9,6.25,6.23.1,3.85,2.07,5.65,4.51,6.9-.28,4.06,2.02,5.28,4.46,6.33.28,1-.4,1.13-1.12,1.25.83.81,2.79,1.35,1.33,2.9.46-.34.95-.66,1.75-.68.28,1.19-.03,1.86-1.1,1.84,1.18,1.5,4.6,4.74,2.67,5.81.6,1.01,1.93,1.21,3.61,1.01.33,4.86,3,7.12,2.99,12.34-.57-.34-2.24-1.28-1.74.68-1.07-1.12-4.14-.02-4.28-2.17-1.31,2.35-4.07-1.55-7.05,1.54-1.8.3-1.33-1.87-1.94-2.88-1.7.59.85,1.45.15,2.97-.46-.38-2-2.41-1.77.09-8.28-.58-20.59-.62-27.92.19-.03-.59-.07-1.18-.09-1.77-2.68,1.57-5.81,1.88-8.31.4-1.61,2.32-12.63,2.38-16.01.8-6.52,3.76-21.02.22-24.17,4.16-5.11-2.87-13.92.38-20.31-1.96-.61-1.87.39-2.28,1.04-3.03-2.39-.09-1-.46-1.38-4.09,2.76-.89,3.9-3.25,3.84-6.72,2.74.42,1.19-3.06,4.02-2.59-.51-1.8-.47-1.11-.15-2.96,4.03.46,1.59-4.98,5.09-5-.41-.58-1.39-.55-1.27-1.73,2.38.66,1.11-2,3.5-1.36-.05-.99-.1-1.98-.15-2.97.51-.48,1.31-.7,2.34-.7,3.48-8.95,9.99-15.13,13.69-23.86,2.05-.03,2.69-1.33,2.19-3.67,1.74.07,1.75-1.44,3.51-1.37,1.44-7.95,9.01-10.35,10.39-18.35,6.51-1.46,4.95-10.24,11.3-11.85-.41-.58-1.39-.55-1.28-1.72,1.95-.12,2.9-1.16,5.32-.86,2.66,1.88-.7,3.07,3.1,2.82-2.45,2.68.76,10.53,3.43,9.33.88.15.16,4.49,3.17,4.01-.32,1.83.73,2.13.78,3.52,7.64,6.37,9.1,19.57,16.74,25.92.26,1-.41,1.15-1.13,1.25ZM62.23,166.12c-1.87.82-.53-1.9-2.43-1.07-.9.3-.4,1.9-2.29,1.31-.73,3.12-1.47,6.22-4.4,7.36-.71,3.27,1.67,3.15,2.61,4.62-4.12,3.02-4.14,12.69-11.43,9.47.67,1.77,2.84,1.86,3.17,4.01-1.56.81-2.72,1.12-3.5,1.36,2.53,2.06-.66,1.55-1.64,3.06-2.53,3.93-3.9,10.12-8.35,11.11-.16,2.87-1.21,4.96-3.9,5.53,1.5,3.08-.87.43-1.71,1.87,3.82.72-2.44,2.61.22,4.16-4.22.88-3.19,6.54-6.12,8.62-.38-1.02.55-3.52-.76-3.53,0,.93.19,2.05-1.1,1.84-.63,1.95,1.94.36,1.31,2.31-2.46.6-2.01,3.85-3.29,5.52,6.18-1.37,16.23-1.47,23.13-1.15.1-.46-.04-1.17.53-1.21,23.01,2.1,41.35-1.48,69.44-2.24-1.29-6.24-6.79-9.22-8.95-12.64-.72-5.27-5.7-5.8-5.92-11.59-2.66.4-2.28-2.11-1.96-3.46-2.36.06-4.5-3.78-2.6-4.63-1.85,1.01-1.99-.34-3.62-1.01-4.28-12.94-14.51-22.09-19.43-32.32.02.6-1.01.79-1.19.05.72-.09,1.39-.24,1.13-1.25-1.65.58-1.58-.76-3-.44-2.87,4-4.15,9.45-8.94,11.73,1.25,2.04-.44,2.89-1.57,4.25-.71-2.35-.14-4.62.87-6.59.98-.03.4,1.63,1.27,1.73.13-2.55,2.17-7.4,3.91-4.95-.06-.82.21-1.31.49-1.8Z"/>
  </g>
  <text class="cls-4" transform="translate(42.12 224.56)"><tspan x="0" y="0">32</tspan></text>
</svg>