<?xml version="1.0" encoding="UTF-8"?>
<svg id="Layer_1" xmlns="http://www.w3.org/2000/svg" viewBox="0 0 400 400">
  <defs>
    <style>
      .cls-1, .cls-2 {
        fill-rule: evenodd;
      }

      .cls-3 {
        font-family: AmericanTypewriter-CondensedBold, 'American Typewriter';
        font-size: 44px;
        font-weight: 700;
      }

      .cls-3, .cls-4 {
        fill: #fff;
      }

      .cls-2 {
        fill: #1bb24b;
      }
    </style>
  </defs>
  <g>
    <polygon class="cls-2" points="60.74 156 8.38 232.65 11 235.95 110.88 232.48 75 166.57 64.32 154.1 60.74 156"/>
    <path class="cls-1" d="M92.81,193.36c3.51.51,2.58,5.9,6.25,6.23.1,3.85,2.07,5.65,4.51,6.9-.28,4.06,2.02,5.29,4.46,6.32.28,1-.4,1.13-1.12,1.25.83.81,2.79,1.35,1.33,2.9.46-.34.95-.66,1.75-.68.28,1.19-.03,1.86-1.1,1.84,1.18,1.5,4.6,4.74,2.67,5.81.6,1.01,1.93,1.21,3.61,1.01.33,4.86,3,7.12,2.99,12.34-.57-.33-2.24-1.28-1.74.68-1.07-1.12-4.14-.02-4.28-2.17-1.31,2.35-4.07-1.55-7.05,1.54-1.8.3-1.33-1.87-1.94-2.88-1.7.59.85,1.45.15,2.96-.46-.38-2-2.41-1.77.09-8.28-.58-20.59-.62-27.92.19-.03-.59-.07-1.18-.09-1.77-2.68,1.57-5.81,1.88-8.31.4-1.61,2.32-12.63,2.38-16.01.8-6.52,3.76-21.02.22-24.17,4.16-5.11-2.87-13.92.38-20.31-1.96-.61-1.87.39-2.28,1.04-3.03-2.39-.09-1-.46-1.38-4.09,2.76-.89,3.9-3.25,3.84-6.72,2.74.42,1.19-3.06,4.02-2.59-.51-1.8-.47-1.11-.15-2.96,4.03.46,1.59-4.98,5.09-5-.41-.58-1.39-.55-1.27-1.73,2.38.66,1.11-2,3.5-1.36-.05-.99-.1-1.98-.15-2.96.51-.48,1.31-.7,2.34-.7,3.48-8.95,9.99-15.13,13.69-23.86,2.05-.03,2.69-1.33,2.19-3.67,1.74.07,1.75-1.44,3.51-1.37,1.44-7.95,9.01-10.35,10.39-18.35,6.51-1.46,4.95-10.24,11.3-11.85-.41-.58-1.39-.55-1.28-1.72,1.96-.12,2.9-1.16,5.32-.86,2.66,1.88-.7,3.07,3.1,2.82-2.45,2.68.76,10.53,3.43,9.33.89.15.16,4.49,3.17,4.01-.32,1.83.73,2.13.78,3.52,7.64,6.37,9.1,19.57,16.74,25.92.26,1-.41,1.15-1.13,1.25ZM58.15,165.95c-1.87.83-.53-1.9-2.43-1.07-.9.3-.4,1.9-2.29,1.31-.73,3.12-1.47,6.22-4.4,7.36-.71,3.27,1.67,3.15,2.61,4.62-4.12,3.02-4.14,12.69-11.43,9.47.67,1.77,2.84,1.86,3.17,4.01-1.56.81-2.72,1.12-3.5,1.36,2.53,2.06-.66,1.55-1.64,3.06-2.53,3.93-3.9,10.12-8.35,11.11-.16,2.87-1.21,4.96-3.9,5.53,1.5,3.08-.87.43-1.71,1.87,3.82.72-2.44,2.61.22,4.16-4.22.89-3.19,6.54-6.12,8.62-.38-1.02.55-3.52-.76-3.53,0,.93.19,2.05-1.1,1.84-.63,1.95,1.94.36,1.31,2.31-2.46.6-2.01,3.85-3.29,5.52,6.18-1.37,16.23-1.47,23.13-1.15.1-.46-.04-1.17.53-1.21,23.01,2.1,41.35-1.48,69.44-2.24-1.29-6.24-6.79-9.22-8.95-12.64-.72-5.27-5.7-5.8-5.92-11.59-2.66.4-2.28-2.11-1.96-3.46-2.36.06-4.5-3.78-2.6-4.63-1.85,1.01-1.99-.34-3.62-1.01-4.28-12.94-14.51-22.09-19.43-32.32.02.6-1.01.79-1.19.05.72-.09,1.39-.24,1.13-1.25-1.65.58-1.58-.76-3-.44-2.87,4-4.15,9.45-8.94,11.73,1.25,2.04-.44,2.89-1.57,4.25-.71-2.35-.14-4.62.87-6.59.98-.03.4,1.63,1.27,1.73.13-2.55,2.17-7.4,3.91-4.95-.06-.82.21-1.31.49-1.8Z"/>
  </g>
  <text class="cls-3" transform="translate(39.15 222.41)"><tspan x="0" y="0">39</tspan></text>
  <path class="cls-4" d="M135.63,101.15s-5.7-7.05-2.35,10.57c3.35,17.62,2.35,44.63,2.35,44.63l-3.13,56.1s-1.64,50.03,2.96,50.47c4.61.44,18-.44,18-.44,0,0,3.77,8.37,3.35,11.01-.42,2.64.84,6.61.84,6.61,0,0,101.31-9.25,113.87-8.37,12.56.88,39.77,3.08,39.77,3.08l37.68,4.4s8.23,5.42,6.42-1.92c-1.81-7.33-.14-14.82.28-29.35.42-14.53,3.77-79.71,3.35-82.36-.42-2.64-5.02-11.89-5.02-11.89,0,0-14.23-10.57-14.23-13.65s-2.09-35.23-2.09-35.23c0,0-16.75-2.2-27.21-1.32-10.47.88-40.54,8.98-43.72,5.59-3.17-3.39-52.16-2.95-67.65-3.83-15.49-.88-41.87-3.52-49.82-4.84-7.95-1.32-11.97-1.03-13.65.73Z"/>
  <g>
    <path d="M198.23,269.44c8.33-3.66,14.76-9.74,21.07-15.99.61-.6,1.37-1.14,1.76-1.87,2.68-4.98,6.98-4.88,11.85-4.43,12.62,1.16,25.26,2.06,37.91,2.81,13.17.78,26.36,1.38,39.55,1.83,7.68.26,15.37.05,23.71.05-.37-6.98-.75-13.93-1.11-20.88-.1-2.05-.22-4.1-.19-6.15.04-2.51.98-4.63,2.96-6.3,1.57-1.33,2.94-2.88,4.48-4.25,6.11-5.44,5.09-13.77-2.2-17.68-.72-.39-1.48-.72-2.49-1.2,1.14-3.56,2.05-7.01,3.39-10.29.52-1.27,1.81-2.46,3.05-3.15,8.6-4.79,8.38-11.63,7.36-18.54-.61-4.09-4.77-6.94-9.53-7.16-2.03-.09-4.07-.02-6.03-.02-1.24-5.02-.7-26.95,1.13-47.47-2.21,0-4.37-.12-6.51.02-10.26.7-20.51,1.52-30.77,2.16-1.42.09-3.21-.12-4.27-.93-4.28-3.25-8.49-2.56-12.38.21-3.82,2.72-7.91,2.81-12.24,2.66-2.57-.09-3.78-1.18-3.68-3.78.07-1.88.01-3.77.01-5.83.26-.11.72-.49,1.15-.45,13.28,1.15,26.33-.89,39.42-2.56,11.05-1.41,22.15-2.39,33.23-3.56.51-.05,1.03-.1,1.54-.1,4.23-.04,5.67,1.36,5.23,5.58-.42,4.08-.87,8.2-1.86,12.17-1.32,5.26.94,6.88,5.81,6.97,3.91.07,7.81.01,12.46.01-.45,2.2-.91,3.77-1.08,5.38-.43,4.06-1.05,8.13-1.01,12.2.13,12.34,1.09,24.69.69,37.01-.45,13.69-2.01,27.35-3.13,41.02-1.64,19.96-.67,39.73,4.18,59.2-.6,1.99-2.07,1.41-3.38,1.18-8.25-1.45-16.5-2.95-24.76-4.38-1.51-.26-3.07-.3-4.61-.36-9.76-.4-19.58-.19-29.26-1.3-16.62-1.91-33.23-.68-49.84-.78-9.95-.06-19.9-.06-29.85.11-5.64.1-11.28.66-16.92.88-1.58.06-3.17-.35-4.76-.54-.03-.5-.06-1-.09-1.49Z"/>
    <path d="M221.28,143.58c4.78-2.74,7.96-6.52,9.8-11.94,2.75-8.08,6.24-15.92,9.59-23.79,1-2.34,2.41-4.55,3.93-6.61,2.37-3.2,6.81-4.76,9.45-3.61,2.6,1.13,5.22,6.9,4.57,10.26-.23,1.17-.59,2.36-1.14,3.41-4.02,7.7-8.11,15.36-12.33,23.34.77,1.14,1.91,2.83,3.11,4.61,3.71-2.22,7.33-4.4,10.81-6.49,4.58,4.37,4.35,6.9-.19,10.03-2.39,1.65-4.62,3.54-6.8,5.47-4.14,3.66-4.15,5.45.12,10.58,9.2-7.83,14.08-19.11,22.35-28.27,2.42,2.02,4.56,3.8,6.71,5.6-3.73,7.96-7.25,15.46-11.12,23.71,5.01-1.57,7.06-6.65,12.77-6.9-.54,2.2-.49,4.05-1.37,5.21-3.94,5.22-8.19,10.15-14.72,12.38-4.84,1.65-5.31,1.55-8.45-3.32-1.21.79-2.4,1.64-3.65,2.37-4.57,2.67-8.82,1.66-11.27-3.05-1.47-2.84-2.3-6.01-3.52-9.28-1.92-.14-3.95-.29-6.59-.49-1.84,6.86-3.68,13.73-5.5,20.53-7.32,1.05-10.59-2.63-8.47-9.39,1.36-4.34,2.82-8.66,4.25-13.03-2.96-.21-4.38,1.39-5.4,3.78-2.66,6.23-6.47,11.66-11.4,16.34-3.2,3.04-6.83,5.11-11.08,6.2-6.28,1.61-11.35-1.7-12.27-8.13-.22-1.52-.41-3.16-.06-4.61,1.73-7.19,3.54-14.38,9.67-19.4,3.7-3.03,7.1-6.56,11.14-9.02,6.53-3.97,11.21-2.82,16.22,2.94.21.25.56.38.84.57ZM210.37,157.56c-1.53-.14-2.48-.19-3.43-.32-1.18-.16-2.35-.35-3.51-.6-4.86-1.04-5.96-.44-7.33,4.31-.47,1.63-.84,3.32-.98,5.01-.27,3.49,1.79,4.96,4.71,2.98,4.17-2.83,7.75-6.41,10.55-11.38ZM244.43,119.8c4.89-5.83,6.57-9.42,6.27-13.34-3.45,3.68-5.38,7.67-6.27,13.34ZM211.82,149.53c-3.36-3.87-5.51-3.84-8.56.07,2.88,2.1,5.69,1.36,8.56-.07ZM236.41,148.75c4.23-1.49,4.26-1.58,1.79-5.31q-2.4,1.57-1.79,5.31Z"/>
    <path d="M274.67,199.68c5-3.84,8.43-8.06,9.97-14.17,2.46-9.77,5.69-19.35,8.81-28.94.61-1.86,1.96-3.66,3.38-5.05,3.59-3.51,7.14-2.85,9.66,1.45,1.93,3.3,2.41,6.92,1.44,10.44-1.12,4.09-2.76,8.08-4.47,11.97-1.65,3.74-3.68,7.32-5.53,10.92,1.37,1.66,2.66,3.22,4.12,4.98,3.92-.97,5.2-5.23,8.61-7.24,2.85,1.15,4.27,3.6,5.73,6.18-1.75,4.5-5.9,6.67-9.01,9.75-3.16,3.14-3.42,3.65-1.8,7.45,1.4,3.28,3.55,3.81,5.68.92,3.13-4.27,5.95-8.78,8.65-13.35,2.67-4.52,5.03-9.23,7.86-14.47,2.42,1.9,4.36,3.42,6.8,5.34-2.13,4.31-4.11,8.44-6.2,12.5-1.65,3.21-2.45,9.65-1.4,13.47,4.21-1.53,5.26-6.04,8.08-8.73,3.37,3.08,3.64,3.62,1.56,6.31-2.6,3.36-5.04,6.89-9,9.01-5.39,2.89-5.83,2.96-10.16-1.13-2.51,1.72-4.93,3.58-7.54,5.13-4.46,2.65-9.33,1.3-11.63-3.43-1.47-3.04-2.32-6.38-3.57-9.94h-6.22c-1.28,8.59-2.59,17.3-3.92,26.25-3.79-.25-6.31-2.39-8.89-4.13-.77-.52-1.04-2.5-.82-3.67.82-4.36,1.93-8.67,2.96-12.99.39-1.63.86-3.24,1.4-5.23-3.36-.15-4.84,1.12-5.9,3.9-1.84,4.78-3.96,9.48-6.38,13.99-2.47,4.62-6.23,8.19-10.83,10.73-6.96,3.84-14.58-.21-14.61-8.18-.03-9.32,3-17.83,9.11-25.04,1.77-2.09,3.59-4.18,5.63-5.98,6.66-5.86,12.54-5.59,18.43.99ZM265.39,214.21c-1.57-.17-2.7-.24-3.82-.41-7.73-1.16-8.24-.77-8.9,6.98-.1,1.18-.19,2.39-.08,3.57.28,2.99,1.75,3.77,3.96,1.93,3.81-3.18,6.48-7.25,8.84-12.07ZM266,204.62c-4.84-1.09-6-.67-8.5,3.11,3.06-.52,6.65,1.87,8.5-3.11ZM296.33,173.92c3.11-4.01,4.06-8.7,4.07-13.68-1.33,4.57-4.52,8.56-4.07,13.68ZM292.79,196.76c-2.36.53-4.02,1.3-3.66,3.61.08.54,1.62,1.38,2.21,1.2,2.35-.71,2.06-2.56,1.44-4.81Z"/>
    <path d="M197.79,202.53c-3.05,1.34-5.24,2.09-7.22,3.22-2.53,1.44-4.88,3.19-7.32,4.79-3.15,2.05-4.14,1.94-6.33-1.1-1.07-1.49-1.83-3.21-3-5.32,3.1-1.8,5.83-3.44,8.62-4.99,12.49-6.94,25.49-12.59,39.55-15.51,2.51-.52,5.08-.77,7.64-1.05,11.2-1.22,16.11,4.4,16.57,15.15.29,6.89-2.01,13.2-5.78,19.34-9.85,16.05-22.59,29.32-37.29,40.79-4.43,3.45-9.45,6.17-14.35,8.98-3.79,2.17-7.63,2.89-11.26-.75-3.43-3.44-4.32-7.2-2.46-11.7,2.75-6.65,5.23-13.42,8.16-19.99,4.26-9.55,8.81-18.96,13.22-28.44.34-.73.56-1.51,1.25-3.41ZM189,254.49c3.49-3.17,7.01-6.43,10.59-9.61,13.18-11.72,24.04-25.39,33.56-40.15,1.74-2.7,3.09-5.74,4.1-8.8,1.23-3.76.08-5.47-3.69-6.39-1.15-.28-2.39-.41-3.56-.32-5.17.4-10.13,1.7-14.79,3.98-.84.41-1.73,1.19-2.09,2.01-2.84,6.42-5.68,12.84-8.27,19.36-3.41,8.59-6.54,17.28-9.92,25.89-1.87,4.76-3.98,9.42-5.94,14.03Z"/>
    <path d="M191.38,119.44c-.93,1.99-1.7,3.64-2.87,6.14,6.11-.34,11.36-2.46,16.81-2.87,5.62-.42,11.26-.57,16.84-.84,1.54,4.99.64,6.78-4.08,7.71-10.56,2.09-21.15,4.05-31.81,6.08-6.35,11.66-9.61,24.5-14.19,36.81-4.58,12.31-8.8,24.75-13.52,38.09-2.92-2.78-5.41-4.81-7.47-7.2-2.11-2.45-1.69-5.44-.73-8.31,1.36-4.06,2.74-8.11,4.12-12.17,4.68-13.77,9.36-27.54,14.04-41.31.27-.78.46-1.59.8-2.79-1.65,0-2.98-.11-4.29.02-11.07,1.08-22.15,2.1-33.2,3.37-5.22.6-6.7-.32-7.94-6.7,16.68-3.39,33.82-4.25,50.25-8.2,1.62-2.16.34-5.3,3.53-6.65,5.45-2.32,9.2-2.99,13.72-1.18Z"/>
    <path d="M173.71,246.93c-.77,1.93-1.17,3.2-1.76,4.36-.7,1.37-1.64,2.61-2.35,3.98-3.5,6.74-3.15,8.95,2.08,14.63.84.91,1.42,2.05,2.1,3.05-.73.55-.98.92-1.25.93-6.76.22-13.51.41-20.38.6-1.37-5.18,2.43-9.66,1.75-14.78-4.53,0-8.76-.06-12.99.02-2.56.05-5.13.58-7.67.45-3.5-.18-4.57-1.47-4.33-4.93.44-6.32,1.04-12.63,1.56-18.95.31-3.75.65-7.5.88-11.26.54-8.71,1.02-17.42,1.52-26.13.07-1.2.11-2.4.11-3.6,0-15.4,0-30.8,0-46.82,1.79-.16,4.08-.37,7.03-.63,2.3,34.16-.64,67.78-1.51,102.03,5.41.63,10.63.55,15.81-.31,5.06-.83,10.05-2.06,15.09-2.96,1.19-.21,2.49.15,4.3.3Z"/>
    <path d="M139.07,127.04c-2.68.15-4.96.28-7.73.44-.66-10.08-1.3-19.75-1.95-29.59,2.6-1.68,5.37-1.21,8.02-.89,10.38,1.24,20.71,2.91,31.11,3.86,8.86.81,17.79.93,26.7,1.24,10.1.35,20.21.58,30.31.82,3.39.08,6.79.01,10.14.01.46,7.54-1.11,9.65-7.87,9.72-6.67.06-13.36-.24-20.02-.7-18.29-1.26-36.58-2.67-54.86-4.08-3.58-.27-7.14-.84-10.71-1.13-1.31-.11-2.66.16-4.5.3.46,6.67.89,13.06,1.37,20.01Z"/>
    <path d="M292.88,118.19c-.07,4.02-4.51,10-8.31,11.38-2.12.77-4.08.5-5.74-.87-1.87-1.54-1.61-3.74-.88-5.66,1.56-4.11,4.29-7.35,8.3-9.26,4.5-2.14,6.73-.59,6.64,4.41Z"/>
    <path d="M343.27,166.56c-.36,4.1-1.41,8.17-5.2,10.92-2.43,1.76-5.25,1.9-7.13.41-2.19-1.74-2.53-4.21-1.58-6.49,1.64-3.93,3.47-7.9,8.11-9.28,3.48-1.03,5.76.62,5.81,4.44Z"/>
  </g>
</svg>