<?xml version="1.0" encoding="UTF-8"?>
<svg id="Layer_1" xmlns="http://www.w3.org/2000/svg" viewBox="0 0 400 400">
  <defs>
    <style>
      .cls-1 {
        fill: #bb9274;
      }

      .cls-1, .cls-2, .cls-3, .cls-4, .cls-5, .cls-6, .cls-7, .cls-8 {
        fill-rule: evenodd;
      }

      .cls-2, .cls-9 {
        fill: #fff;
      }

      .cls-9 {
        font-family: AmericanTypewriter-CondensedBold, 'American Typewriter';
        font-size: 44px;
        font-weight: 700;
      }

      .cls-4 {
        fill: #bdb164;
      }

      .cls-5 {
        fill: #455c6e;
      }

      .cls-6 {
        fill: #1bb24b;
      }

      .cls-7 {
        fill: #bca656;
      }

      .cls-8 {
        fill: #bb6e35;
      }
    </style>
  </defs>
  <g>
    <polygon class="cls-6" points="69.49 146.17 17.13 222.82 19.74 226.12 119.63 222.65 83.75 156.74 73.07 144.27 69.49 146.17"/>
    <path class="cls-3" d="M101.56,183.53c3.51.51,2.58,5.9,6.25,6.23.1,3.85,2.07,5.65,4.51,6.9-.28,4.06,2.02,5.28,4.46,6.33.28,1-.4,1.13-1.12,1.25.83.81,2.79,1.35,1.33,2.9.46-.34.95-.66,1.75-.68.28,1.19-.03,1.86-1.1,1.84,1.18,1.5,4.6,4.74,2.67,5.81.6,1.01,1.93,1.21,3.61,1.01.33,4.86,3,7.12,2.99,12.34-.57-.34-2.24-1.28-1.74.68-1.07-1.12-4.14-.02-4.28-2.17-1.31,2.35-4.07-1.55-7.05,1.54-1.8.3-1.33-1.87-1.94-2.88-1.7.59.85,1.45.15,2.97-.46-.38-2-2.41-1.77.09-8.28-.58-20.59-.62-27.92.19-.03-.59-.07-1.18-.09-1.77-2.68,1.57-5.81,1.88-8.31.4-1.61,2.32-12.63,2.38-16.01.8-6.52,3.76-21.02.22-24.17,4.16-5.11-2.87-13.92.38-20.31-1.96-.61-1.87.39-2.28,1.04-3.03-2.39-.09-1-.46-1.38-4.09,2.76-.89,3.9-3.25,3.84-6.72,2.74.42,1.19-3.06,4.02-2.59-.51-1.8-.47-1.11-.15-2.97,4.03.46,1.59-4.98,5.09-5-.41-.58-1.39-.55-1.27-1.73,2.38.66,1.11-2,3.5-1.36-.05-.99-.1-1.98-.15-2.97.51-.48,1.31-.7,2.34-.7,3.48-8.95,9.99-15.13,13.69-23.87,2.05-.03,2.69-1.33,2.19-3.67,1.74.07,1.75-1.44,3.51-1.37,1.44-7.95,9.01-10.35,10.39-18.35,6.51-1.46,4.95-10.24,11.3-11.85-.41-.58-1.39-.55-1.28-1.72,1.96-.12,2.9-1.16,5.32-.86,2.66,1.88-.7,3.07,3.1,2.82-2.45,2.68.76,10.53,3.43,9.33.89.15.16,4.49,3.17,4.01-.32,1.83.73,2.13.78,3.52,7.64,6.37,9.1,19.57,16.74,25.92.26,1-.41,1.15-1.13,1.25ZM66.9,156.11c-1.87.82-.53-1.9-2.43-1.07-.9.3-.4,1.9-2.29,1.31-.73,3.12-1.47,6.22-4.4,7.36-.71,3.27,1.67,3.15,2.61,4.62-4.12,3.02-4.14,12.69-11.43,9.47.67,1.77,2.84,1.86,3.17,4.01-1.56.81-2.72,1.12-3.5,1.36,2.53,2.06-.66,1.55-1.64,3.06-2.53,3.93-3.9,10.12-8.35,11.11-.16,2.87-1.21,4.96-3.9,5.53,1.5,3.08-.87.43-1.71,1.87,3.82.72-2.44,2.61.22,4.16-4.22.88-3.19,6.54-6.12,8.62-.38-1.02.55-3.52-.76-3.53,0,.93.19,2.05-1.1,1.84-.63,1.95,1.94.36,1.31,2.31-2.46.6-2.01,3.85-3.29,5.52,6.18-1.37,16.23-1.47,23.13-1.15.1-.46-.04-1.17.53-1.21,23.01,2.1,41.35-1.48,69.44-2.24-1.29-6.24-6.79-9.22-8.95-12.64-.72-5.27-5.7-5.8-5.92-11.59-2.66.4-2.28-2.11-1.96-3.46-2.36.06-4.5-3.78-2.6-4.63-1.85,1.01-1.99-.34-3.62-1.01-4.28-12.94-14.51-22.09-19.43-32.32.02.6-1.01.79-1.19.05.72-.09,1.39-.24,1.13-1.25-1.65.58-1.58-.76-3-.44-2.87,4-4.15,9.45-8.94,11.73,1.25,2.04-.44,2.89-1.57,4.25-.71-2.35-.14-4.62.87-6.59.98-.03.4,1.63,1.27,1.73.13-2.55,2.17-7.4,3.91-4.95-.06-.82.21-1.32.49-1.8Z"/>
  </g>
  <text class="cls-9" transform="translate(46.83 213.42)"><tspan x="0" y="0">40</tspan></text>
  <g>
    <path class="cls-3" d="M345.18,188.79c3.49,3.1,6.87,6.15,9.36,9.91.61.92.88,1.77.59,2.86-.21.81-.17,1.7-.1,2.54.5,6.75,1.18,13.5,1.52,20.26.33,6.75.23,13.54.51,20.31.25,6,.23,11.98-.37,17.96-.22,2.23-1.13,4.19-3.22,5.56-.14.09-.32.15-.43.26-4.19,4.5-10.34,6.31-15.55,9.41-.37.21-.74.47-1.14.53-3.83.61-6.82,2.9-10.26,4.25-5.59,2.19-11.32,4.08-17.02,6.04-1.92.65-3.93,1.07-5.87,1.71-4.41,1.45-9.03,1.97-13.64,2.11-7.8.24-15.6.31-23.4.24-6.25-.05-12.51-.23-18.73-.68-6.83-.5-13.62-1.32-20.41-2.1-5.94-.67-11.9-1.31-17.8-2.24-7.59-1.21-14.99-3.09-21.99-6.07-1.94-.83-3.88-1.64-5.79-2.49-3.87-1.71-6.76-4.36-9.28-7.49-1.36-1.7-2.06-3.36-2.21-5.47-.25-3.73-.98-7.41-1.47-11.12-.42-3.17-.88-6.34-1.12-9.52-.59-8.08-1.07-16.16-1.6-24.24-.27-4.12-.44-8.25-.93-12.35-.22-1.86.44-3.08,1.77-4.35,2-1.91,3.84-3.97,5.93-6.14-2.25-1.35-4.23-2.45-6.08-3.73-.61-.41-1.13-1.22-1.23-1.91-.53-3.61-.92-7.24-1.34-10.87-.25-2.15-.4-4.34-.78-6.47-.25-1.38-.25-2.52.87-3.67,1.12-1.17,2.1-2.5,2.84-3.9.65-1.23.89-2.63,1.27-3.83-.14-.2-.16-.32-.22-.34-3.12-.79-2.87-3.03-2.67-5.22.07-.77.3-1.54.46-2.3.46-2.17.75-4.3-.34-6.41-.59-1.14-.37-2.35.51-3.31,2.27-2.49,2.16-5.34,1.71-8.23-.26-1.72-.26-3.37.3-5.07.34-1.03.22-2.17.3-3.25.15-2.17.28-4.35.44-6.69-.79-.08-1.51-.14-2.3-.2-.09-.15-.29-.33-.32-.54-.26-2.17-.56-4.33-.73-6.5-.21-2.56-.32-5.13-.45-7.7-.03-.7-.04-1.4.08-2.1.32-1.8.97-3.29,3.09-4.19,4.44-1.87,8.81-3.91,13.09-6.08,4.68-2.38,9.73-3.82,14.75-5.4,5.99-1.88,11.95-3.86,17.94-5.76,3.48-1.1,7.02-1.96,10.7-2.48,3.45-.48,6.82-1.53,10.22-2.38,10.86-2.71,21.96-3.52,33.12-3.65,4.54-.05,9.08.17,13.63.26,13.41.28,26.23,3.16,38.85,7,8.61,2.61,16.98,5.72,25.3,9.01,2.11.83,3.14,1.93,2.98,4.02-.1,1.31-.14,2.65-.07,3.96.11,2.24.22,4.51.5,6.74.17,1.28.13,2.36-1.3,2.98-1.68.72-2.01,1.83-1.73,3.45.46,2.72.71,5.49.89,8.25.1,1.54-.22,3.11-.18,4.65.08,3.02.28,6.04.45,9.05.03.61.37,1.32.15,1.83-1.17,2.7.3,4.99,1.13,7.39.33.95.66,1.91.77,2.9.33,2.7.55,5.41.81,8.11.14,1.49.32,2.93-.82,4.26-.37.43-.46,1.19-.39,1.76.71,5.16,1.47,10.32,2.24,15.47.13.85.35,1.69.63,2.5.57,1.72.34,3.12-1.32,4.37-1.76,1.34-3.3,2.91-5.09,4.52ZM332.32,91.61l.04.03c-3.88-2.68-8.56-3.81-13.03-5.21-4.75-1.48-9.75-2.35-14.65-3.43-3.38-.75-6.84-1.23-10.19-2.09-2.84-.73-5.7-.95-8.62-1.04-1.96-.05-3.96-.24-5.84-.69-3.73-.89-7.49-.62-11.25-.47-.32.02-.91.15-.92.24-.04,1.22-1.11.75-1.69.79-1.19.11-2.4,0-3.6.01-3.85.01-7.75-.33-11.54.15-7.21.9-14.47,1.88-21.49,3.58-9.36,2.26-18.49,5.32-27.77,7.9-10.64,2.95-20.51,7.59-30.71,11.51-.22.08-.38.31-.56.46.23.35.43.67.75,1.18-1.34.66-2.6,1.27-4,1.95.19.46.39.93.63,1.52,3.93-2.36,7.95-4.15,12.19-5.56-.66.75-1.45,1.31-2.32,1.74-1.66.81-3.42,1.47-5.04,2.35-1.57.85-3.06,1.86-4.52,2.88-.27.19-.23.75-.41,1.42,2.62-1.18,4.91-2.2,7.2-3.23.07-.04.14-.08.19-.14,1.28-1.4,1.35-1.46,2.11-1.57,2.76-.4,5.18-1.46,7.48-2.92,1.22-.79,2.8-1.12,4.25-1.57.97-.3,2.02-.37,2.99-.65,6.68-2.03,13.32-4.17,20.02-6.11,4.74-1.38,9.52-2.65,14.34-3.72,3.83-.84,7.77-1.23,11.64-1.92,10.15-1.81,20.36-2.97,30.68-2.83,6.85.09,13.71.42,20.51,1.08,5.26.52,10.46,1.59,15.63,2.64,12.26,2.48,24.76,4.16,36.45,8.58.14.05.32,0,.47.02.11-.36.21-.7.35-1.14,1.15.38,2.15.71,3.41,1.13.11-1.17.2-2.13.26-2.85-2.17-.65-4.02-1.22-5.88-1.77-2.51-.75-5.04-1.48-7.55-2.23ZM293.81,133.38c1.62-6.11,3.29-12.23,4.86-18.37,1.7-6.66,3.31-13.34,5.02-20.28,2.24.57,4.33,1.1,6.21,1.57.41,6.06.72,11.89,1.2,17.69.55,6.51,1.24,13.01,1.88,19.52.14,1.4.39,2.79.53,4.18.15,1.68-.16,1.98-1.92,2.44-.98.26-1.93.63-2.87,1.01-2.35.93-4.66,1.99-7.05,2.84-6.4,2.28-12.83,4.47-19.24,6.72-.51.17-.96.49-1.44.73.93,1.45,1.9,2.35,3.8,1.75,2.66-.84,5.4-1.47,8.02-2.38,6.58-2.27,13.15-4.58,19.65-7.04,1.99-.75,3.34-.45,4.76.86,2.58,2.37,2,5.22-1.48,6.25-4,1.16-8.05,2.2-12.08,3.28-2.69.73-5.38,1.43-7.93,2.11.04,1.04.07,1.73.09,2.42.03.68.06,1.37.09,2.17,1.13.11,2.14.19,3.14.29.85.08,1.72.11,2.54.29,2.41.54,2.92,1.17,2.84,3.44-.03.76-.19,1.52-.32,2.5,1.1-.03,2.09-.04,3.09-.13.93-.08,1.92-.54,3,.8-1.96.23-3.55.38-5.12.6-.74.1-1.69.12-2.14.54-1.53,1.41-3.45,1.9-5.42,2.45-4.56,1.28-9.24,1.71-13.96,1.98-.91.05-1.81.17-2.82.26,1.73,2.82,2.77,3.38,5.68,3.18.77-.06,1.53-.22,2.3-.25.53,0,1.06.14,1.98.28-1.86,1.47-3.97.58-5.65,1.4.17.4.23.7.4.95,1.62,2.19,3.2,4.4,4.92,6.52.31.39,1.2.62,1.77.56,4.43-.47,8.85-1.01,13.26-1.58,5.52-.72,11.03-1.51,16.56-2.18,4.59-.57,9.2-.92,13.78-1.54,4.06-.55,8.07-1.31,12.25-1.99-.05-1.21-.04-2.28-.14-3.34-.26-2.86-.58-5.72-.86-8.59-.07-.77-.02-1.56-.1-2.34-.1-1.04-.61-1.64-1.91-1.77-3.85-.39-7.68-.45-11.49.32-1.12.23-2.25.56-3.87-.1,2.5-1.14,4.62-1.62,6.9-1.88,2.71-.3,5.42-.75,8.09-1.3,2-.41,3.12-1.9,3.05-3.79-.04-.92-.17-1.86-.35-2.77-.58-2.9-1.79-5.7-1.37-8.74.05-.33-.14-.85-.42-1.03-2.26-1.5-1.89-3.61-1.8-5.74.1-2.38.76-4.77-.03-7.18-.4-1.21-.91-2.51-.08-3.78.03-.04-.07-.14-.26-.48-1.19.05-2.54.15-3.88.13-1.24,0-2.64.37-3.6-.57.02-.21.04-.42.06-.63,2.58-.1,5.16-.2,7.9-.3.19-1.45.43-2.59.46-3.72.04-1.25-.07-2.5-.22-3.74-.12-1.05-.22-2.16-.65-3.12-.7-1.59-.76-3.07.37-4.43.79-.97,1.81-1.77,2.84-2.75-.13-1.01-.36-2.24-.41-3.47-.04-1.06-.43-1.79-1.59-2.1-.16-.05-.3-.14-.47-.19-3.34-.94-6.5-2.28-9.74-3.45-3.99-1.44-8.35-2.05-12.57-2.95-2.66-.56-5.34-1.02-8.02-1.51-2.68-.49-5.36-.94-8.04-1.41-1.93-.33-3.94-.48-5.77-1.07-4.55-1.47-9.2-2.34-14.05-2.46-4.62-.11-9.23-.51-13.86-.54-4.8-.03-9.61.44-14.41.31-5.43-.15-10.77-.01-16.06,1.3-2.07.51-4.19.82-6.3,1.21-5.72,1.03-11.52,1.79-17.15,3.13-4.96,1.18-9.71,3.12-14.61,4.52-11.86,3.4-22.92,8.42-33.89,13.65-.46.22-.96.4-1.32.73-1.11,1-.91,6.28.4,6.98,1.25.67,1.46,1.59,1.6,2.7.26,1.99.58,3.97.88,5.92,1.91.58,3.85-.55,5.59.51-1.47,1.75-3.69.86-5.68,1.8-.39,2.11-1.35,4.43-1.1,6.65.34,3.17-.61,5.98-1.54,8.87-.14.45-.39.88-.49,1.33-.53,2.26.89,3.73,3.34,3.54.81-.06,1.8-.58,2.73.61-1.19.27-2.16.44-3.08.73-.62.19-1.56.44-1.7.84-.74,2.11-1.59,4.23-1.69,6.75,2.18,0,4.1.11,6-.02,5.1-.37,9.89-1.92,14.69-3.4.74-.24,1.54-.28,2.69-.48-.6,1.5-1.1,2.25-2.55,2.51-1.72.32-3.38,1.01-5.05,1.57-.78.26-1.49.73-2.28.92-3.15.73-6.35,1.28-9.25,2.8-.98.5-1.46,1.13-1.9,2.03-.81,1.71-1.61,3.47-2.84,4.93-2.09,2.49-1.48,4.86-.54,7.38q4.42-.95,5.09-.17c-1.65.55-3.31,1.1-5.21,1.73.92,3.45-.08,6.97,1.72,10.33,1.08.07,2.19.25,3.27.18,2.4-.12,4.78-.46,7.18-.55,3.16-.11,6.34.04,9.51-.09,12.24-.54,24.49-1.14,36.74-1.73,2.72-.13,3.04-.46,3.18-3.06-1.48-.22-3.14.67-5.07-.81,1.77-.18,2.99-.25,4.21-.44.73-.11,1.74-.18,2.09-.61,1.51-1.86,2.82-3.86,4.39-6.09-.74.03-1.09-.03-1.38.07-3.37,1.16-6.8,2.19-10.08,3.54-3.98,1.65-7.83,3.57-11.73,5.38-3.06,1.42-4.4.62-4.25-2.52.03-.46.2-.91.31-1.38.49-.12,1.01-.19,1.47-.38,5.23-2.11,10.45-4.25,15.68-6.39.32-.13.58-.37.87-.56-1.17-.34-2.42-.62-3.26-.21-4.96,2.44-9.83,5.03-14.73,7.57-1.01.58-2,1.21-3.04,1.72-.86.42-1.78.72-2.63,1.06-1.71-2.66-1.48-3.73,1.43-5.07,1.53-.71,3.06-1.41,4.56-2.16,2.23-1.1,4.43-2.26,6.64-3.39-.03-.17-.08-.33-.12-.49-.91-.06-1.83-.05-2.71-.21-.8-.15-1.94-.32-2.24-.82-.81-1.33-1.47-2.82-1.79-4.32-.4-1.83.16-2.34,2.18-2.7,1.83-.33,3.67-.64,5.65-.99-.05-1.39-.18-2.63-.13-3.85.14-3.33,2.6-5.58,6.17-6.06,1.82-.24,3.31.16,4.75,1.11,1.93-2.42,4.51-2.98,7.5-3.18,3.43-.24,5.45,1.16,6.84,3.82,1.42-1.99,1.74-4.42,4.26-5.38,2.36-.89,4.84-1,7.33-.63,2.62.39,3.7,2.42,4.94,4.35,3.13-5.29,6.68-6.13,10.98-4.41,8.58-3.94,17.15-7.89,25.8-11.86.28-1.85.58-3.84.89-5.83l-.03.04ZM227.67,195.46c-2.7.1-5.42.15-8.14.34-2.39.17-4.76.66-7.15.74-8.99.31-17.99.26-26.89,1.96-2.81.54-5.75.53-8.64.7-1.6.09-2.68.74-3.56,1.97-.94,1.29-2.02,2.54-3.18,3.68-.84.81-1.16,1.62-1.12,2.71.15,3.51.44,7.02.21,10.51-.39,6.17.33,12.24,1.22,18.33.49,3.3.96,6.65.9,9.99-.1,5.77.1,11.48.78,17.23.54,4.58,3.11,7.89,6.76,10.48,2.78,1.97,6.17,3.27,9.39,4.68,4.62,2.02,9.32,3.85,14.44,4.67,2.36.37,4.7.84,7.06,1.25,7.82,1.35,15.63,2.75,23.59,3.22,4.86.3,9.74.49,14.62.66,4.19.16,8.39.24,12.58.37,4.37.14,8.73.45,13.09.4,9.43-.09,18.87-.28,28.12-2.45,5.47-1.29,11.09-2.26,16.36-4.06,4.95-1.68,9.55-4.25,14.27-6.48,6.72-3.19,13.11-6.83,19.03-11.16,1.66-1.2,2.39-2.5,2.36-4.37-.07-4.36-.03-8.72.01-13.08.03-2.49.3-4.98.22-7.47-.28-8.71-.72-17.42-1-26.13-.12-3.89.02-7.79.02-11.67,0-.79-.12-1.59-.18-2.39-.18,0-.34,0-.52.02-.12,1.09-.25,2.17-.37,3.25-.18,0-.35,0-.52,0-.12-1.17-.2-2.36-.37-3.53-.09-.58-.21-1.27-.6-1.67-1.42-1.45-2.97-2.78-4.45-4.17-.82-.79-1.81-1.52-2.29-2.47-.69-1.34-1.71-1.54-3.1-1.41-3.4.34-6.82.63-10.22.96-4.01.39-8.02.8-12.02,1.2-2.13.22-4.24.59-6.37.68-3.67.16-7.36.06-11.03.25-2.9.15-5.82.43-8.68.92-2.79.49-3.13.55-4.44-1.74-1.7-2.96-3.39-5.92-4.89-8.98-2.45-5.01-6.86-7.76-12.45-9.24-7.74-2.07-15.5-1.82-23.37-.27-5.59,1.1-9.78,3.72-12.55,8.19-2.47,4.01-5.23,7.93-6.42,12.49-.07.28-.32.53-.57.91ZM311.62,137.85c-1.66-13.25-2.74-26.45-2.8-39.78-1.6-.29-2.89-.52-4.08-.73-3.41,13.55-6.77,26.86-10.12,40.16,2.55.61,2.81.5,3.39-1.27.38-1.2.75-2.41,1.16-3.59.58-1.72.72-1.79,2.74-1.56.51.06,1.02.13,1.53.16,1.09.09,1.77.54,1.79,1.59,0,.85.23,1.64,1.21,1.82,2.24.39,3.71,1.73,5.18,3.2ZM208.19,185.69c.38-.04.66,0,.87-.09.86-.37,1.71-.72,2.54-1.15,7.57-3.89,15.55-6.97,23.73-9.6.88-.28,1.72-.7,2.52-1.14,3.13-1.69,6.44-2.9,10.05-3.48,1.93-.32,3.83-.84,5.67-1.44,4.49-1.47,8.95-3.01,13.39-4.6.73-.27,1.3-.95,2.01-1.48,1.09.84,2.14-.31,3.3-.52,1.14-.21,1.32-1,1.2-2.01,1.7,1.11,3.83.91,5.16-.44.34-.33.21-.61.99-.46,1.68.33,2.95-.49,3.7-1.95,1.9.93,3.64.43,4.97-1.42,1.58,1.05,2.96,0,4.32-.48.57-.2.86-1.08,1.35-1.76.41.29.98.69,1.56,1.11,1.04-.39,2.43-.51,2.84-1.13.89-1.38,2.02.39,2.81-.46.25-.28.81-.31,1.03-.6.37-.46.64-.37,1.22-.33,2.14.18,4.08-.33,5.34-2.14,1.19,1.09,2.08.38,2.97-.34-.16-.6-.3-1.11-.57-2.11,1.09.87,1.71,1.35,2.46,1.94,1.04-.33,2.15-.68,3.18-1.02-.1-3.47-1.96-4.4-5.16-3.15-6.06,2.38-12.18,4.67-18.36,6.77-4.73,1.62-9.64,2.81-14.41,4.33-4.04,1.3-8.02,2.78-12.02,4.19-1.44.51-2.85,1.09-4.27,1.65-3.22,1.26-6.43,2.56-9.68,3.79-7.92,3-15.89,5.9-23.77,8.99-4.49,1.78-8.83,3.86-13.24,5.78-2.24.98-4.52,1.9-6.77,2.86-.78.34-1.63.68-.94,1.9ZM294.25,143.97c2.84.24,4.93-.13,5.7-2.81.55.4,1.04.77,1.88,1.4.38-1.2.66-2.08.98-3.12.51.53.99,1.02,1.6,1.62,1.28-.51,2.58-1.03,3.84-1.53-.7-2.97-1.74-3.62-4.45-2.6-6.75,2.51-13.64,4.69-20.08,7.89-5.8,2.87-11.81,5.41-17.68,8.16-6.78,3.18-14.05,5.37-20.76,8.73-5.34,2.66-10.83,5.08-16.25,7.61-.61.28-1.2.63-1.84.85-5.66,1.91-10.89,4.63-16.13,7.31-2.91,1.48-5.78,3.07-8.62,4.66-.37.2-.53.72-.79,1.1.8.09,1.25-.08,1.67-.3,4.75-2.5,9.41-5.19,14.27-7.51,13.84-6.63,28.09-12.45,42.38-18.2,1.57-.63,3.34-.98,4.71-1.86,1.45-.93,3.14-1.12,4.63-1.81.75-.35,1.44-.83,2.22-1.08,2.58-.79,5.22-1.44,7.78-2.29.84-.29,1.48-1.02,2.29-1.59,1.25,1.1,2.49-.03,3.6-.67.71-.41,1.23-.78,2.16-.83,1.32-.06,2.7-.42,2.98-1.95,1.88.79,3.04.41,3.95-1.18ZM259.74,168.25c1.42.17,2.23.3,3.04.35,3.43.28,6.94.57,9.93,2.08,3.57,1.8,7.16,1.83,11.05,1.48,5.32-.48,10.53-1.26,15.58-2.87.75-.23,1.69-.67,1.99-1.25.66-1.31.98-2.75,1.53-4.4-1.16-.21-1.95-.39-2.77-.49-1.1-.13-2.26-.04-3.31-.3-1.38-.37-2.38-.12-3.46.76-2.15,1.76-4.65,1.81-7.2.84-.7-.27-1.43-.58-1.99-1.03-1.2-.97-2.29-1-3.7-.26-1.8.92-3.82,1.64-5.9,1.09-2.07-.54-3.79.14-5.61.78-2.24.79-4.5,1.54-6.75,2.31-.62.21-1.22.46-2.43.93ZM349.47,181.66c-1.25-.06-1.99-.21-2.69-.12-5.75.84-11.51,1.66-17.24,2.59-11.48,1.91-23.04,3.24-34.65,4.09-1.05.07-2.09.35-3.48.58.76,1.02,1.27,1.69,1.65,2.2,9.72-.54,19.13-1.06,28.53-1.61.85-.05,1.97.09,2.49-.34,1.33-1.1,2.84-.86,4.34-1,1.44-.13,2.9-.23,4.34-.44,3.46-.49,6.91-1.17,10.4-1.53,2.88-.3,4.54-1.86,6.3-4.43ZM225.71,190.54c-.79-.03-1.46-.09-2.11-.06-10.1.4-20.2.79-30.29,1.19-4.1.16-8.19.37-12.29.57-.34.01-.71,0-1.01.11-2.49.97-4.99.5-7.52.26-1.04-.11-2.11.05-3.18.09-.08.15-.15.29-.23.43,1.8.68,3.43,1.51,3.88,3.31,1.45-.15,2.71-.32,3.97-.43,5.72-.48,11.45-.85,17.14-1.47,9.88-1.07,19.76-1.91,29.69-2.02,1.52-.02,1.89-.69,1.96-1.98ZM230.25,166.17c1.07-.03,6.49-2.17,7.16-2.9.3-.34.55-.8.65-1.24.75-3.18-3.1-7.43-6.68-7.32-1.58.04-3.09.54-4.03,1.75-.36.47-.61,1.47-.31,1.83,1.3,1.62,1.08,3.33.74,5.11-.47,2.44-.1,2.83,2.47,2.76ZM227.66,168.01c.03-.19.05-.38.08-.58-.67-.11-1.54-.52-1.96-.26-2.72,1.59-5.56.93-8.21.27-3.15-.8-6.02-.3-9.14.48.58,1.58,1.1,3.03,1.61,4.43,2.24.17,4.28.38,6.32.43.81.02,1.71-.18,2.45-.51,2.98-1.37,5.91-2.83,8.86-4.26ZM220.75,166.65c2.08-.06,3.77-.13,4.55-1.59,1-1.85,1.36-3.8.23-5.81-1.06-1.89-2.92-2.25-4.91-2.39-2.02-.13-2.82.36-3.55,2.05-.47,1.08-.92,2.2-1.2,3.33-.55,2.14.5,3.64,2.84,4.17.82.19,1.68.2,2.03.24ZM242.28,161.37c.48-.66.89-.98.91-1.32.06-.84-.16-1.7-.07-2.54.2-1.9,1.06-2.62,3.11-2.76,2.47-.16,4.51.59,6,2.39.48-.16.91-.24,1.28-.44.34-.18.61-.48.87-.7-2.16-3.3-5.42-4.36-9.02-2.86-2.31.96-4.76,3.5-3.08,8.22ZM237.65,167.84c.06.2.12.39.18.6,2.05-.28,4.19-.32,6.13-.89,3.74-1.09,7.38-2.48,11.06-3.75.85-.31,1.69-.63,2.69-1.01-1.86-1.2-2.53-1.21-3.99-.16-2.32,1.68-4.68,3.26-7.91,2.22-.22-.07-.53-.03-.75.06-2.47.96-4.94,1.95-7.4,2.93ZM291.8,157.48c.02.65.08,1.19.06,1.74-.05,1.97-1.26,2.89-3.34,2.38-.88-.22-1.68-.71-2.49-1.13-.47-.25-.88-.58-1.39-.92-.46,1.67.32,2.64,2.51,3.31,3.42,1.06,5.37.21,6.66-1.83.76-1.19.6-3.56-.28-4.06-.48.15-1.11.33-1.73.52ZM238.31,169.58c-1.29.36-2.04-1.29-3.5-.58-2.79,1.36-5.7,2.53-8.54,3.81-.24.1-.39.39-.73.76,1.53.36,2.81.48,3.96-.18,2.57-1.49,5.45-2.34,8.24-3.38.22-.07.39-.28.59-.42ZM274.25,156.7c2.39-.93,4.38-1.71,6.68-2.61-.99-.73-1.68-1.23-2.47-1.8-2.11.83-4.22,1.69-6.32,2.53-1.84.72-1.9.93-.67,2.7,1.89-.31.72-3.43,3.27-3.08-.13.64-.28,1.27-.49,2.27ZM299.61,136.81c1.55-.63,2.57-.95,3.48-1.46.42-.23.84-.84.81-1.24-.04-.37-.63-.79-1.09-.99-.49-.21-1.12-.19-1.88-.3-.4,1.2-.76,2.28-1.32,3.99ZM264.32,152.33c-4.06-.32-4.45-.14-5.76,2.53,1.96-.86,3.65-1.62,5.76-2.53ZM258.82,158.85c-.67,1.4-.81,2.45.21,2.9.59.26,1.62-.29,2.9-.57-1.26-.94-2.05-1.54-3.12-2.33ZM266.1,156.71c-.03.84-.05,1.58-.08,2.39,1.14-.03,2.09-.14,2.33-1.17.13-.55-.01-1.15-.05-1.92-.92.29-1.53.49-2.21.7ZM289.77,158.89c.07.2.15.42.23.62-.44.29-.89.58-1.64,1.08,2.56-.19,2.68-.39,1.78-2.64-1.21.4-2.41.8-3.62,1.18.05.18.1.34.15.51,1.03-.25,2.07-.5,3.1-.75ZM264.63,157c-1.33.66-2.75.6-3.22,1.95,2.26.76,2.83.46,3.22-1.95ZM250.44,157.36c-1.28.28-2.11.6-2.92.6-1.36-.01-1.36-.09-1.7,1.54,1.58-.43,3.17-.63,4.63-2.14ZM277.25,162.25c.05.09.08.19.13.28.99-.31,1.98-.62,2.96-.92-.53-.29-.9-.17-1.27-.04-.61.22-1.21.46-1.82.69Z"/>
    <path class="cls-5" d="M206.54,182.6c-.11.46-.29.92-.31,1.38-.15,3.15,1.19,3.94,4.25,2.52,3.91-1.81,7.75-3.73,11.73-5.38,3.28-1.35,6.71-2.38,10.08-3.54.29-.11.64-.04,1.38-.07-1.57,2.23-2.88,4.24-4.39,6.09-.35.44-1.36.5-2.09.61-1.22.18-2.44.26-4.21.44,1.93,1.48,3.59.59,5.07.81-.15,2.6-.46,2.93-3.18,3.06-12.25.59-24.49,1.19-36.74,1.73-3.17.13-6.35-.02-9.51.09-2.4.09-4.78.43-7.18.55-1.09.06-2.19-.11-3.27-.18-1.8-3.35-.8-6.87-1.72-10.33,1.89-.63,3.56-1.17,5.21-1.73q-.67-.79-5.09.17c-.95-2.52-1.56-4.89.54-7.38,1.23-1.46,2.04-3.22,2.84-4.93.44-.9.92-1.53,1.9-2.03,2.89-1.52,6.09-2.07,9.25-2.8.79-.19,1.5-.65,2.28-.92,1.67-.57,3.33-1.25,5.05-1.57,1.46-.27,1.95-1.02,2.55-2.51-1.14.2-1.95.24-2.69.48-4.8,1.49-9.59,3.03-14.69,3.4-1.9.13-3.82.02-6,.02.11-2.52.96-4.64,1.69-6.75.14-.4,1.08-.65,1.7-.84.92-.28,1.89-.46,3.08-.73-.93-1.19-1.91-.67-2.73-.61-2.44.18-3.86-1.28-3.34-3.54.1-.45.35-.88.49-1.33.93-2.9,1.88-5.7,1.54-8.87-.24-2.22.72-4.54,1.1-6.65,1.99-.94,4.22-.05,5.68-1.8-1.74-1.05-3.68.07-5.59-.51-.3-1.95-.62-3.94-.88-5.92-.14-1.11-.35-2.03-1.6-2.7-1.31-.7-1.51-5.98-.4-6.98.36-.32.86-.51,1.32-.73,10.97-5.23,22.03-10.25,33.89-13.65,4.9-1.41,9.65-3.34,14.61-4.52,5.63-1.34,11.43-2.1,17.15-3.13,2.11-.39,4.23-.7,6.3-1.21,5.28-1.31,10.62-1.46,16.06-1.3,4.79.13,9.61-.34,14.41-.31,4.63.03,9.23.43,13.86.54,4.85.12,9.49.99,14.05,2.46,1.83.58,3.84.73,5.77,1.07,2.68.47,5.36.92,8.04,1.41,2.68.49,5.36.95,8.02,1.51,4.22.9,8.58,1.51,12.57,2.95,3.23,1.17,6.4,2.51,9.74,3.45.17.05.31.14.47.19,1.16.31,1.55,1.04,1.59,2.1.05,1.23.28,2.46.41,3.47-1.02.98-2.04,1.77-2.84,2.75-1.12,1.36-1.07,2.84-.37,4.43.43.96.52,2.07.65,3.12.15,1.24.26,2.49.22,3.74-.03,1.13-.27,2.27-.46,3.72-2.74.11-5.32.21-7.9.3-.03.21-.04.42-.06.63.96.94,2.36.56,3.6.57,1.34.01,2.69-.09,3.88-.13.2.34.29.44.26.48-.82,1.28-.32,2.57.08,3.78.79,2.41.13,4.8.03,7.18-.09,2.12-.46,4.24,1.8,5.74.28.18.46.7.42,1.03-.42,3.04.78,5.84,1.37,8.74.18.91.31,1.85.35,2.77.07,1.89-1.05,3.38-3.05,3.79-2.67.55-5.38,1-8.09,1.3-2.28.26-4.4.74-6.9,1.88,1.63.66,2.76.33,3.87.1,3.81-.77,7.63-.7,11.49-.32,1.31.13,1.81.73,1.91,1.77.08.77.03,1.56.1,2.34.28,2.86.59,5.72.86,8.59.1,1.06.09,2.13.14,3.34-4.17.68-8.19,1.45-12.25,1.99-4.58.61-9.19.97-13.78,1.54-5.53.67-11.04,1.47-16.56,2.18-4.41.56-8.83,1.1-13.26,1.58-.58.06-1.46-.17-1.77-.56-1.72-2.12-3.3-4.33-4.92-6.52-.17-.24-.24-.55-.4-.95,1.68-.83,3.8.07,5.65-1.4-.92-.14-1.45-.28-1.98-.28-.77.03-1.53.2-2.3.25-2.92.2-3.96-.37-5.68-3.18,1-.09,1.91-.21,2.82-.26,4.72-.27,9.4-.69,13.96-1.98,1.97-.55,3.89-1.04,5.42-2.45.46-.42,1.4-.44,2.14-.54,1.57-.22,3.16-.37,5.12-.6-1.07-1.34-2.07-.88-3-.8-1,.09-2,.09-3.09.13.13-.98.29-1.74.32-2.5.08-2.27-.43-2.9-2.84-3.44-.82-.18-1.69-.21-2.54-.29-1.01-.1-2.02-.18-3.14-.29-.03-.81-.06-1.49-.09-2.17-.03-.69-.05-1.39-.09-2.42,2.55-.68,5.24-1.38,7.93-2.11,4.03-1.08,8.08-2.12,12.08-3.28,3.47-1.03,4.06-3.88,1.48-6.25-1.42-1.31-2.77-1.61-4.76-.86-6.5,2.47-13.07,4.77-19.65,7.04-2.63.9-5.37,1.53-8.02,2.38-1.9.6-2.87-.3-3.8-1.75.48-.25.93-.56,1.44-.73,6.41-2.25,12.85-4.43,19.24-6.72,2.39-.84,4.7-1.9,7.05-2.84.93-.38,1.89-.75,2.87-1.01,1.77-.46,2.08-.77,1.92-2.44-.14-1.39-.39-2.78-.53-4.18-.64-6.51-1.33-13.01-1.88-19.52-.49-5.8-.79-11.63-1.2-17.69-1.88-.47-3.97-1-6.21-1.57-1.71,6.94-3.32,13.62-5.02,20.28-1.57,6.14-3.24,12.26-4.86,18.39.08-.86.14-1.71.26-2.57.37-2.64-.24-5.1-1.6-7.42-.44-.74-.96-1.45-1.43-2.17.13-.27.19-.51.33-.69,4.52-5.72,5.13-12.13,3.85-18.75-.73-3.74-3.64-6.35-7.25-7.6-3.28-1.14-6.88-.24-10.04,1.2-.2,2.47-.34,4.72-.62,6.97-.14,1.16.14,1.82,1.55,1.82.39.01.78.15.93.19-.36,5.58-.69,11-1.07,16.41-.39,5.41-.85,10.8-1.27,16.18,1.69.53,3.12,1,4.57,1.44,2.4.72,4.64.54,6.89-.7,2.04-1.13,3.67-2.54,4.93-4.35-.3,1.99-.61,3.98-.89,5.83-8.66,3.97-17.22,7.92-25.8,11.86-4.3-1.72-7.85-.88-10.98,4.41-1.24-1.93-2.32-3.96-4.94-4.35-2.49-.37-4.97-.26-7.33.63-2.52.95-2.84,3.39-4.26,5.38-1.39-2.66-3.41-4.05-6.84-3.82-3,.2-5.57.76-7.5,3.18-1.43-.95-2.93-1.35-4.75-1.11-3.57.49-6.03,2.73-6.17,6.06-.05,1.22.08,2.46.13,3.85-1.99.35-3.82.66-5.65.99-2.02.36-2.58.87-2.18,2.7.32,1.5.97,2.99,1.79,4.32.3.5,1.44.66,2.24.82.88.16,1.8.15,2.71.21.04.16.08.32.12.49-2.21,1.13-4.41,2.29-6.64,3.39-1.5.75-3.04,1.45-4.56,2.16-2.91,1.34-3.14,2.41-1.43,5.07.84-.34,1.77-.64,2.63-1.06,1.04-.52,2.03-1.14,3.04-1.72l-.03-.03ZM234,125.62c-4.8-6.51-4.61-6.8-13.01-13.26-.84-.66-1.66-1.35-2.34-2.15-1.31-1.55-1.83-3.3-1.14-5.26.31-.86.78-1.59,1.87-1.71,1.27-.13,1.49.79,1.84,1.59.88,2.01,1.79,4,2.81,6.29,1.43-.34,2.77-.53,3.99-.98,1.63-.61,1.92-1.14,1.09-2.54-1.65-2.7-3.49-5.3-5.33-7.91-.35-.49-.96-.95-1.56-1.16-4.86-1.57-10.17.36-10.99,4.8-.96,5.18.1,10.01,4.81,13.48,3.61,2.66,7,5.47,9.65,8.94,1.1,1.44,1.97,3.07,2.74,4.69.36.74.38,1.7.28,2.52-.11,1.04-1.29,1.37-2.05.57-.55-.57-.91-1.3-1.27-2-.81-1.59-1.57-3.2-2.36-4.83-.67.11-1.1.14-1.48.27-2.6.89-3.24,1.83-2.67,4.26.79,3.34,1.69,6.66,3.51,9.69,2.25,3.74,6.12,4.43,9.83,1.73,2.4-1.73,3.54-4.03,3.41-6.75-.14-2.81-.51-5.6-.74-8.09.75.25,1.73.58,2.91.99.78,2.77,1.6,5.69,2.42,8.62.21.76.32,1.56.72,2.22.28.45,1.07,1.06,1.46.97,1.39-.32,2.89-.7,3.97-1.47.52-.37.26-1.71.23-2.6-.02-.7-.25-1.4-.36-2.08-.38-2.43-.74-4.85-1.11-7.29,2.12-.45,4.01-.86,6.05-1.29.21.61.45,1.09.55,1.59.48,2.53.92,5.07,1.39,7.59.52,2.78,1.31,3.29,4.28,2.68.84-.17,1.65-.43,2.48-.63.91-.22,1.23-.81,1.13-1.59-.08-.61-.23-1.22-.39-1.82-.86-3.24-1.88-6.46-2.59-9.73-1.03-4.73-1.79-9.49-2.77-14.22-.94-4.58-2.02-9.13-2.98-13.71-.23-1.09-.84-1.41-1.96-1.31-1.03.08-2.05.09-3.08.15-1.67.11-1.89.35-1.73,1.89.2,2.02.37,4.03.65,6.04.57,4.08,1.21,8.15,1.83,12.22.2,1.28.45,2.56.72,4.12-1.7.24-3.17.46-4.52.65-.32-.42-.53-.6-.6-.81-1.67-5.29-3.38-10.57-4.94-15.89-.6-2.02-.85-4.11-1.24-6.17-.21-1.07-.89-1.42-2.03-1.16-1.25.3-2.5.55-3.75.86-2.1.52-2.63,1.48-1.93,3.29.78,2.03,1.58,4.07,2.3,6.11,1.83,5.18,2.9,10.52,3.95,15.92-1.64.82-2.62,1.9-1.95,3.68ZM192.64,107.82c.49,1.69.89,3.12,1.31,4.54,2.18,7.42,4.26,14.88,6.6,22.25.87,2.73,2.19,5.39,3.66,7.9,1.72,2.96,5.93,3.19,8.42.68.5-.51.93-1.07,1.39-1.61.23.15.42.22.5.34q1.31,2.11,3.86,1.5c.16-.03.34-.06.51-.09,2.44-.58,2.58-.86,1.74-3.1-.87-2.28-1.74-4.54-2.53-6.83-1.48-4.3-2.91-8.61-4.34-12.91-.74-2.23-1.49-4.45-2.14-6.7-.99-3.35-1.76-6.78-3.62-10.14-1.14.25-2.29.46-3.41.76-1.8.49-2.13.77-1.98,2.46.16,1.69.5,3.38.96,5.02,1.95,7.01,3.98,13.99,5.94,20.97.23.84.63,1.77-.47,2.78-.42-.73-.87-1.29-1.1-1.91-.91-2.57-1.8-5.17-2.63-7.78-1.51-4.77-2.92-9.56-4.47-14.33-.53-1.62-1.29-3.2-2.01-4.76-.4-.85-1.19-1.05-2.14-.68-1.33.53-2.64,1.08-4.03,1.65ZM321.11,141.45c.81-1.66,1.7-3.09,2.19-4.62.52-1.63.67-3.36.96-5.05.19-1.1.23-2.25,1.34-3.48.81,2.47,1.51,4.6,2.21,6.74.95,2.9,1.91,5.8,2.84,8.7.23.73.6,1.47,1.51,1.28,2.12-.48,4.19-1.15,6.32-1.75-1.54-6.9-4.45-13.03-7.01-19.63,1-.88,2.19-1.7,3.07-2.75,1.8-2.12,3.44-4.47,2.93-7.26-.57-3.11-1.13-6.34-3.41-8.91-1.43-1.61-2.94-3.26-4.78-4.41-1.48-.93-3.46-1.32-5.29-1.66-2.74-.49-5.55-.92-8.49.01-.21,2.3-.41,4.58-.64,7.04,1.19.34,2.3.65,3.57,1.01.08,2.1.42,4.21.19,6.27-.73,6.66-1.65,13.29-2.54,19.93-.21,1.55-.66,3.07-.94,4.59-.15.85-.32,1.83.78,2.25,1.64.62,3.33,1.1,5.18,1.7ZM186.4,149.62c.36.39.96,1.28,1.79,1.92,1.55,1.22,4.62,1.55,6.03.7,2.58-1.55,4.71-3.51,5.22-6.4,1.21-6.77.43-13.05-5.73-17.86-1.24-.95-2.4-1.97-3.6-2.97-2.03-1.7-3.84-3.54-4.67-6-.41-1.24-.77-2.52.34-3.79.37.15.82.2.95.4,1.36,2.2,2.66,4.43,4.12,6.89,1.12-.46,2.31-.85,3.38-1.44,1.05-.58,1.47-1.59.97-2.64-1.22-2.56-2.3-5.19-3.87-7.57-2.27-3.45-7.21-3.87-10.56-1.15-4.17,3.39-4.83,10.09-1.39,14,2.44,2.78,4.87,5.58,7.35,8.33,2.16,2.39,2.69,5.31,3.26,8.22.08.38-.2.8-.33,1.25-2.01-.25-2.14-2.05-3.4-2.89-.47.1-.98.18-1.46.33-3.64,1.09-4.18,2.27-2.45,5.32.77,1.35,1.62,2.66,2.65,4.34-1.3.11-2.22.13-3.12.26-.91.13-2.04-.07-2.74,1.24,2.4.47,4.41-.46,7.24-.51ZM267.55,107.5c.09-.02.19-.03.28-.05-.57-3.36-1.08-6.74-1.72-10.1-.37-1.93-.96-2.35-3.06-2.51-1.03-.08-2.05-.07-3.07-.13-1.07-.06-1.65.3-1.55,1.34.12,1.23.19,2.46.36,3.69.7,4.69,1.64,9.36,2.1,14.07.69,6.96,1.09,13.96,1.56,20.94.25,3.71.38,3.84,4.38,3.36,2.3-.28,2.54-.57,2.34-2.7-.52-5.58-1.16-11.14-1.52-16.71-.24-3.72-.07-7.47-.09-11.2ZM183.6,170.5c2,.88,3.82.94,5.51.48,3.96-1.09,8.04-1.47,12.08-2.1.41-.06.79-.34,1.4-.63-2.56-.72-15.86.86-18.99,2.25ZM298.53,178.38c.06.17.12.35.18.52,2.28.28,4.48-.36,6.69-.77,2.25-.43,4.49-.96,6.75-1.36,5.18-.92,5.19-.89,6.19-2.15-6.47,1.09-12.79,2.15-19.11,3.24-.26.04-.47.34-.7.52ZM312.81,158.28c1.14.61,1.14.58,2.21.47,2.12-.21,4.23-.43,6.35-.56,2.64-.16,5.28-.21,7.92-.39.85-.05,1.7-.32,2.54-.48-2.85-.95-17,0-19.02.95ZM202.08,151.72c2.96.37,15.3-1.75,17.01-2.86-.4-.12-.73-.31-1-.28-4.72.8-9.44,1.59-14.15,2.41-.54.1-1.04.4-1.86.72ZM342.51,168.23c-3.93.3-7.86.59-11.79.92-.22.02-.41.36-.69.62,2.11.55,10.32-.28,12.48-1.53ZM256.12,146.85c3.76.31,8.52-.35,9.82-1.28-1.88-.5-7.3.13-9.82,1.28ZM183.31,132.95c-2.32-.01-4.59.07-6.83,1.37,2.29.96,5.17.43,6.83-1.37ZM195.22,176.02c-3.27-.12-5.78.41-8.44,1.48,4.09.49,5.15.31,8.44-1.48ZM190.89,164.24c2.76.25,5.46.06,8.01-1.04-2.77-.3-5.44.04-8.01,1.04ZM336.03,155c2.45.52,4.12-.37,6.29-1.51-4.53-.04-5.29.13-6.29,1.51ZM172.74,168.65c1.4,1.13,3.3,1.09,5.38-.09-1.86-.68-3.56-.83-5.38.09ZM312.45,165.47c2.37.16,4.71.06,7.15-1.13-2.69-.15-4.97.19-7.15,1.13ZM321.58,178.26c2.29.67,3.37-.69,4.74-1.24-1.57-.18-3.1-.17-4.74,1.24ZM323.99,171.94c-1.31-.26-2.65-.62-3.94.43,1.56,1.03,2.76.34,3.94-.43ZM186.17,184.41c2.44.64,3.62.55,5.14-.35-1.76-.37-3.32-.37-5.14.35ZM342.47,106.99c.04-.17.08-.34.12-.51-2.01-1.34-2.75-1.45-4.74-.5,1.71.37,3.16.69,4.62,1.01ZM173.02,115.84c-1.63-.34-3.1-.18-4.49,1.13,1.93.43,3.26-.21,4.49-1.13ZM174.22,182.31c.06.15.1.31.16.47,3.15-.3,3.8-.51,5.1-1.98-2.03.58-3.65,1.04-5.26,1.51ZM180.28,157.34c-1.99-.91-2.78-.77-4.28.5,1.46-.17,2.87-.34,4.28-.5ZM336.96,176.97c1.27.17,2.5.11,3.63-.52-1.28-.32-2.55-.65-3.63.52ZM206.6,156.2c-.03-.23-.06-.45-.09-.66-1.17-.23-2.18.11-2.97,1.15,1.02-.16,2.04-.33,3.06-.49ZM236.6,149.64c-1.53-1.2-2.88-.36-4.28.17,1.42-.06,2.84-.11,4.28-.17ZM174.49,142.91c-1.22.41-1.97.67-3.19,1.07,1.66.72,2.42.52,3.19-1.07ZM294.31,181.72c.08.24.14.49.15.49.85-.13,1.7-.27,2.55-.42-.03-.13-.05-.28-.09-.41-.86.11-1.73.22-2.61.33ZM304.87,174.29c.04.24.08.48.12.73,1.04-.21,2.08-.43,3.12-.64-.01-.08-.03-.15-.05-.21-1.06.04-2.13.08-3.19.12ZM218.23,152.69c.04-.17.09-.34.13-.5-.39-.02-.77-.04-1.16-.06-.01.13-.02.26-.03.38.35.06.71.12,1.06.18ZM240.19,145.52c.05.18.1.36.15.54.39-.15.79-.3,1.19-.46-.04-.11-.08-.22-.12-.34-.4.09-.81.18-1.21.25ZM319.67,161.05c-.12-.15-.21-.35-.27-.34-.21.05-.41.15-.62.24.11.13.23.37.32.37.19-.01.37-.16.57-.26ZM180.52,136.48c.04.12.07.25.11.37.38-.09.78-.19,1.16-.28-.04-.14-.08-.27-.12-.41-.38.11-.77.21-1.15.32Z"/>
    <path class="cls-8" d="M227.67,195.46c.24-.38.5-.64.57-.91,1.19-4.56,3.94-8.47,6.42-12.49,2.77-4.47,6.96-7.08,12.55-8.19,7.87-1.55,15.63-1.8,23.37.27,5.58,1.48,10,4.23,12.45,9.24,1.49,3.06,3.19,6.02,4.89,8.98,1.31,2.29,1.65,2.23,4.44,1.74,2.86-.5,5.78-.78,8.68-.92,3.67-.2,7.36-.09,11.03-.25,2.13-.09,4.24-.46,6.37-.68,4-.4,8.01-.81,12.02-1.2,3.41-.33,6.82-.62,10.22-.96,1.39-.14,2.41.07,3.1,1.41.48.95,1.47,1.68,2.29,2.47,1.47,1.4,3.03,2.72,4.45,4.17.39.4.52,1.09.6,1.67.17,1.17.26,2.36.37,3.53.17,0,.34,0,.52,0,.12-1.08.25-2.17.37-3.25.17,0,.34-.01.52-.02.06.8.18,1.6.18,2.39,0,3.88-.14,7.79-.02,11.67.28,8.71.72,17.42,1,26.13.08,2.49-.19,4.98-.22,7.47-.05,4.36-.09,8.72-.01,13.08.03,1.88-.7,3.17-2.36,4.37-5.93,4.33-12.31,7.97-19.03,11.16-4.72,2.24-9.32,4.8-14.27,6.48-5.27,1.8-10.89,2.77-16.36,4.06-9.24,2.17-18.68,2.36-28.12,2.45-4.36.05-8.72-.26-13.09-.4-4.2-.13-8.39-.21-12.58-.37-4.88-.18-9.76-.36-14.62-.66-7.97-.47-15.78-1.87-23.59-3.22-2.35-.4-4.69-.88-7.06-1.25-5.11-.81-9.82-2.65-14.44-4.67-3.22-1.4-6.61-2.71-9.39-4.68-3.66-2.59-6.22-5.9-6.76-10.48-.68-5.75-.88-11.46-.78-17.23.06-3.34-.42-6.69-.9-9.99-.89-6.09-1.61-12.16-1.22-18.33.22-3.49-.07-7-.21-10.51-.04-1.09.28-1.9,1.12-2.71,1.16-1.15,2.24-2.39,3.18-3.68.87-1.23,1.95-1.88,3.56-1.97,2.89-.17,5.83-.16,8.64-.7,8.9-1.7,17.9-1.65,26.89-1.96,2.39-.09,4.76-.58,7.15-.74,2.71-.19,5.44-.23,8.14-.34ZM281.26,286.47c5.83.15,12.46-.61,19.05-1.72,3.46-.57,6.93-1.12,10.32-1.95,2.96-.72,5.99-1.51,8.68-2.81,5.62-2.7,11.03-5.76,16.52-8.68,3.04-1.61,6.04-3.28,9.1-4.86,1.77-.91,2.49-2.24,2.55-4.03.08-2.87.22-5.76.39-8.64.25-4.34.61-8.7.8-13.05.18-4.2.23-8.41.29-12.62.07-3.97.22-7.94.07-11.91-.19-4.66-.59-9.32-1.1-13.96-.13-1.26-.72-2.63-1.54-3.63-1.31-1.6-3.11-2.86-4.51-4.41-1.07-1.19-2.24-1.09-3.66-.88-2.28.32-4.58.56-6.87.73-8.63.67-17.26,1.3-25.9,1.97-1.97.15-3.91.57-5.87.62-4.28.15-8.56.09-12.85.22-1.46.05-2.2-.5-2.65-1.68-.57-1.55-1.11-3.12-1.9-4.57-1.62-2.99-3.08-6.13-5.21-8.79-3.31-4.15-8.46-5.96-13.76-7.07-4.48-.95-9.04-.37-13.47.79-2.81.73-5.61,1.56-7.89,3.35-5.97,4.68-9.68,10.49-10.6,17.65-.26,2.05-.45,2.3-2.6,2.42-4.45.23-8.91.4-13.37.65-9.33.52-18.67,1.03-27.99,1.64-3.16.22-6.3.7-9.45,1.12-2.68.36-3.79,1.43-4.52,3.8-1.07,3.47-.73,6.96-.5,10.45.26,4.03.62,8.07.79,12.11.27,6.61.29,13.23.64,19.85.24,4.26.87,8.51,1.38,12.77.19,1.62.41,3.25.81,4.83.22.87.63,1.91,1.34,2.41,2.03,1.4,4.11,2.9,6.44,3.74,4.93,1.77,9.98,3.27,15.05,4.65,5.9,1.59,11.88,2.92,17.83,4.39,4.73,1.16,9.55,1.72,14.44,1.95,3.08.14,6.16.35,9.21.67,4.67.52,9.31,1.25,13.99,1.72,8.51.84,17.06,1.23,26.52.76Z"/>
    <path class="cls-8" d="M332.32,91.61c2.51.74,5.04,1.47,7.55,2.23,1.86.55,3.72,1.11,5.88,1.77-.06.72-.15,1.68-.26,2.85-1.25-.42-2.25-.75-3.41-1.13-.14.45-.24.79-.35,1.14-.16-.02-.34.03-.47-.02-11.69-4.42-24.19-6.09-36.45-8.58-5.17-1.05-10.37-2.13-15.63-2.64-6.8-.66-13.66-.99-20.51-1.08-10.32-.14-20.53,1.02-30.68,2.83-3.87.69-7.82,1.08-11.64,1.92-4.82,1.07-9.61,2.34-14.34,3.72-6.7,1.94-13.34,4.08-20.02,6.11-.97.29-2.02.36-2.99.65-1.45.45-3.02.79-4.25,1.57-2.3,1.46-4.72,2.52-7.48,2.92-.77.11-.83.18-2.11,1.57-.05.06-.12.1-.19.14-2.29,1.03-4.57,2.05-7.2,3.23.18-.67.14-1.23.41-1.42,1.46-1.02,2.94-2.02,4.52-2.88,1.62-.87,3.38-1.53,5.04-2.35.87-.43,1.66-.99,2.32-1.74-4.24,1.42-8.26,3.21-12.19,5.56-.24-.59-.43-1.06-.63-1.52,1.4-.68,2.66-1.29,4-1.95-.32-.51-.52-.83-.75-1.18.18-.15.34-.37.56-.46,10.2-3.92,20.07-8.56,30.71-11.51,9.28-2.58,18.41-5.64,27.77-7.9,7.02-1.7,14.28-2.67,21.49-3.58,3.79-.48,7.69-.13,11.54-.15,1.2,0,2.41.09,3.6-.01.58-.04,1.65.44,1.69-.79,0-.09.6-.22.92-.24,3.77-.15,7.52-.43,11.25.47,1.89.46,3.88.64,5.84.69,2.92.09,5.78.3,8.62,1.04,3.35.86,6.81,1.34,10.19,2.09,4.91,1.08,9.9,1.95,14.65,3.43,4.47,1.4,9.15,2.53,13.03,5.21-.32.22-.64.44-1.32.92,3.36,1.16,6.14,2.68,9.46,2.96-.6-.58-1.29-.93-2.02-1.25-2.05-.89-4.11-1.77-6.17-2.66ZM244.52,84.32c-1.38-.9-2.35-.82-4.52.61,1.78-.25,3.17-.45,4.55-.65-.12.33-.25.67-.48,1.27,1.87-.29,3.5-.14,5.22-1.41-1.89.07-3.33.12-4.77.18ZM314.26,88.04c.05-.17.09-.33.14-.51-1.62-.88-3.56-.95-5.36-1.35-1.98-.43-4-.73-6.01-1.02q-4.38-.62-5.91.14c5.98.95,11.56,1.85,17.14,2.74ZM294.32,86.03c-2.59-.09-4.83-1.87-7.59-1.15-.47.12-1.03,0-1.54-.03-1.88-.15-3.75-.33-5.62-.44-.39-.02-.8.19-1.5.38,2.13.79,12.83,1.72,16.24,1.24ZM238.55,86.42c-.06-.22-.13-.44-.2-.67-5.11,1.17-10.23,2.32-15.33,3.52-.5.12-.94.49-1.41.75.07.15.14.32.2.48,5.58-1.38,11.31-2.2,16.74-4.08ZM200.44,94.39c-4.68.95-10.2,3.12-12.26,4.98,1.3-.44,2.17-.73,3.03-1.05,1.75-.63,3.5-1.28,5.26-1.91.47-.16,1.23-.47,1.43-.3,1.37,1.16,2.61.1,4.21.07-.68-.73-1.14-1.22-1.67-1.8ZM274.84,82.98c0-.24,0-.49.01-.73-3.05-.03-6.09-.08-9.13-.05-.26,0-.52.5-1.18,1.18,3.85-.08,7.09.14,10.3-.4ZM217.7,89.45c-2.34-.88-2.8-.79-4.47.75,1.46-.24,2.68-.45,4.47-.75ZM305.42,87.54c-.03.23-.07.46-.11.69.84.49,1.73.51,2.71-.18-.87-.17-1.73-.34-2.6-.51ZM212.35,92.83c-.02-.2-.03-.4-.04-.59-1.1-.35-1.86.27-2.58,1.04.87-.15,1.75-.29,2.63-.44ZM254.42,82.41c.04.2.09.4.13.59.56-.14,1.1-.27,1.65-.4-.04-.14-.07-.29-.11-.43-.55.08-1.12.17-1.67.24ZM324.86,91.65c.05-.15.09-.29.15-.45-.76-.25-1.52-.49-2.28-.75-.07.21-.15.42-.22.62.78.19,1.56.38,2.35.58ZM180.31,101.27c-.03-.19-.07-.4-.09-.59-.78.19-1.56.4-2.34.6.04.15.09.32.13.47.77-.15,1.53-.31,2.3-.48ZM226.12,87.06c-.06-.13-.11-.25-.17-.37-.54.18-1.08.37-1.62.56.07.14.14.29.21.44.53-.21,1.06-.42,1.58-.63ZM287,83.15c0,.18.01.37.01.54.43,0,.86-.03,1.28-.04,0-.12,0-.25,0-.37-.44-.05-.86-.08-1.3-.13ZM259.38,84.21c.11.08.22.24.32.23.11,0,.21-.16.31-.25-.1-.09-.22-.24-.32-.24-.12,0-.21.17-.31.26Z"/>
    <path class="cls-2" d="M311.62,137.85c-1.47-1.47-2.94-2.81-5.18-3.2-.98-.18-1.21-.98-1.21-1.82-.02-1.05-.7-1.51-1.79-1.59-.51-.03-1.02-.1-1.53-.16-2.02-.23-2.16-.16-2.74,1.56-.41,1.19-.78,2.39-1.16,3.59-.58,1.77-.84,1.88-3.39,1.27,3.35-13.3,6.71-26.61,10.12-40.16,1.19.21,2.48.45,4.08.73.06,13.32,1.14,26.52,2.8,39.78ZM303.26,116.34c-.2.2-.37.3-.4.43-.77,2.47-1.54,4.94-2.28,7.42-.54,1.79-.14,2.29,1.88,2.34.6,0,1.2-.02,1.79-.11,1.65-.26,2.21-.95,1.93-2.44-.36-1.91-.79-3.81-1.17-5.72-.18-.88-.48-1.65-1.74-1.92Z"/>
    <path class="cls-7" d="M208.19,185.69c-.69-1.22.15-1.56.94-1.9,2.26-.96,4.53-1.89,6.77-2.86,4.41-1.92,8.75-4,13.24-5.78,7.88-3.1,15.85-5.99,23.77-8.99,3.24-1.23,6.45-2.53,9.68-3.79,1.42-.56,2.83-1.14,4.27-1.65,3.99-1.42,7.97-2.9,12.02-4.19,4.78-1.52,9.68-2.72,14.41-4.33,6.18-2.1,12.29-4.4,18.36-6.77,3.2-1.25,5.06-.32,5.16,3.15-1.03.34-2.14.69-3.18,1.02-.75-.59-1.37-1.07-2.46-1.94.27,1,.41,1.51.57,2.11-.89.73-1.77,1.43-2.97.34-1.26,1.81-3.2,2.32-5.34,2.14-.59-.04-.85-.14-1.22.33-.22.28-.78.32-1.03.6-.79.85-1.92-.92-2.81.46-.41.63-1.8.74-2.84,1.13-.58-.42-1.15-.82-1.56-1.11-.49.68-.78,1.56-1.35,1.76-1.36.48-2.74,1.53-4.32.48-1.34,1.85-3.07,2.35-4.97,1.42-.75,1.47-2.02,2.28-3.7,1.95-.78-.14-.66.14-.99.46-1.33,1.35-3.46,1.55-5.16.44.12,1.01-.06,1.8-1.2,2.01-1.16.21-2.21,1.36-3.3.52-.71.53-1.28,1.21-2.01,1.48-4.44,1.59-8.9,3.13-13.39,4.6-1.84.6-3.75,1.12-5.67,1.44-3.6.59-6.91,1.79-10.05,3.48-.81.44-1.65.86-2.52,1.14-8.18,2.64-16.16,5.71-23.73,9.6-.82.43-1.68.78-2.54,1.15-.22.09-.5.05-.87.09Z"/>
    <path class="cls-7" d="M294.25,143.97c-.91,1.59-2.07,1.97-3.95,1.18-.28,1.53-1.66,1.88-2.98,1.95-.93.05-1.45.41-2.16.83-1.11.64-2.35,1.77-3.6.67-.8.57-1.45,1.3-2.29,1.59-2.56.85-5.2,1.5-7.78,2.29-.78.25-1.47.73-2.22,1.08-1.49.7-3.18.88-4.63,1.81-1.36.88-3.13,1.24-4.71,1.86-14.29,5.75-28.54,11.58-42.38,18.2-4.86,2.32-9.52,5.01-14.27,7.51-.42.22-.87.4-1.67.3.26-.37.41-.89.79-1.1,2.85-1.59,5.71-3.18,8.62-4.66,5.24-2.68,10.47-5.4,16.13-7.31.64-.22,1.23-.56,1.84-.85,5.42-2.53,10.92-4.95,16.25-7.61,6.71-3.36,13.98-5.55,20.76-8.73,5.88-2.75,11.88-5.28,17.68-8.16,6.44-3.2,13.34-5.38,20.08-7.89,2.72-1.01,3.75-.37,4.45,2.6-1.25.5-2.56,1.02-3.84,1.53-.6-.6-1.08-1.1-1.6-1.62-.32,1.04-.6,1.92-.98,3.12-.84-.63-1.33-.99-1.88-1.4-.77,2.67-2.86,3.05-5.7,2.81Z"/>
    <path class="cls-1" d="M259.74,168.25c1.2-.46,1.81-.72,2.43-.93,2.25-.77,4.51-1.51,6.75-2.31,1.82-.64,3.53-1.32,5.61-.78,2.08.55,4.09-.17,5.9-1.09,1.42-.74,2.5-.71,3.7.26.56.45,1.28.76,1.99,1.03,2.55.98,5.05.92,7.2-.84,1.08-.88,2.08-1.12,3.46-.76,1.05.26,2.21.18,3.31.3.81.1,1.61.28,2.77.49-.55,1.65-.86,3.09-1.53,4.4-.3.58-1.24,1.02-1.99,1.25-5.05,1.61-10.26,2.4-15.58,2.87-3.88.36-7.48.33-11.05-1.48-2.99-1.51-6.5-1.8-9.93-2.08-.81-.06-1.62-.18-3.04-.35ZM278.44,168.38c4.26.47,12.08-.21,13.6-1.31-4.65.17-8.97.04-13.6,1.31ZM289.56,169.57c-2.83-.7-6.25-.35-7.97.76,2.92.11,5.44-.12,7.97-.76ZM273.73,166.72c2.33.18,4.66.36,6.92-.46-2.37-.75-4.65-.15-6.92.46ZM294.06,166.05c.48.03.97.1,1.46.09.29-.01.57-.16,1.1-.32-1.01-.78-1.77-.64-2.56.23ZM296.32,167.06c.02.13.03.26.05.4.68-.06,1.36-.1,2.03-.16-.03-.16-.05-.32-.06-.49-.68.09-1.35.17-2.02.26ZM267.87,167.74c-.05-.12-.07-.3-.16-.34-.11-.05-.28.02-.42.04.06.15.12.3.18.46.14-.06.27-.11.4-.16Z"/>
    <path class="cls-8" d="M349.47,181.66c-1.77,2.57-3.42,4.12-6.3,4.43-3.49.37-6.94,1.04-10.4,1.53-1.44.21-2.9.31-4.34.44-1.49.13-3.01-.1-4.34,1-.52.43-1.64.29-2.49.34-9.4.55-18.81,1.07-28.53,1.61-.38-.52-.89-1.18-1.65-2.2,1.39-.24,2.43-.51,3.48-.58,11.62-.85,23.17-2.18,34.65-4.09,5.73-.93,11.49-1.75,17.24-2.59.7-.09,1.44.06,2.69.12Z"/>
    <path class="cls-8" d="M225.71,190.54c-.07,1.3-.44,1.97-1.96,1.98-9.93.11-19.81.95-29.69,2.02-5.69.62-11.42.98-17.14,1.47-1.26.11-2.52.28-3.97.43-.45-1.8-2.08-2.63-3.88-3.31.08-.14.15-.28.23-.43,1.06-.04,2.13-.2,3.18-.09,2.53.24,5.04.71,7.52-.26.3-.11.67-.09,1.01-.11,4.1-.2,8.19-.4,12.29-.57,10.1-.41,20.19-.8,30.29-1.19.66-.03,1.32.04,2.11.06Z"/>
    <path class="cls-2" d="M230.25,166.17c-2.57.07-2.94-.32-2.47-2.76.34-1.78.56-3.49-.74-5.11-.3-.36-.05-1.36.31-1.83.94-1.22,2.45-1.71,4.03-1.75,3.57-.12,7.43,4.13,6.68,7.32-.1.43-.34.89-.65,1.24-.67.73-6.09,2.87-7.16,2.9ZM228.98,163.05c.77,1.01,1.28,1.99,2.92,1.28-.47-1.38-1.41-1.59-2.92-1.28ZM231.65,160.95c-.07.17-.14.34-.21.51q1.1,1.21,3.02.28c-1.17-.32-1.99-.56-2.81-.79ZM234.13,158.68c-.67-.03-1.34-.06-2-.04-.22.02-.42.18-.83.36,1.05.72,1.92.61,2.83-.31ZM228.8,157.04q1.73,1.01,2.91-.34c-1.01.12-1.75.2-2.91.34Z"/>
    <path class="cls-1" d="M227.66,168.01c-2.95,1.43-5.88,2.89-8.86,4.26-.73.34-1.64.53-2.45.51-2.04-.06-4.08-.27-6.32-.43-.51-1.4-1.04-2.85-1.61-4.43,3.13-.78,5.99-1.28,9.14-.48,2.65.66,5.49,1.33,8.21-.27.42-.25,1.3.15,1.96.26-.03.2-.05.39-.08.58ZM212.47,168.62c1.19.08,2.33.89,3.79.15-1.42-.94-2.64-.43-3.79-.15ZM220.63,169.08c-.08-.1-.14-.3-.24-.32-.13-.03-.29.1-.43.15.08.11.14.31.24.33.12.02.29-.09.43-.15Z"/>
    <path class="cls-2" d="M220.75,166.65c-.35-.04-1.22-.05-2.03-.24-2.35-.52-3.39-2.03-2.84-4.17.28-1.13.73-2.24,1.2-3.33.73-1.69,1.53-2.18,3.55-2.05,2,.14,3.86.5,4.91,2.39,1.13,2.02.77,3.97-.23,5.81-.78,1.45-2.47,1.53-4.55,1.59ZM217.67,163.74c3.27,2.11,4.14,2.15,5.01.37-2.19-.99-2.29-.99-5.01-.37ZM221.42,158.36c-2.31-.64-2.93-.31-3.21,1.21.92-.35,1.91-.72,3.21-1.21ZM218.96,162.03c1.19.1,1.98.16,2.78.23-.69-1.11-1.43-1.67-2.78-.23ZM223.39,160.14c.08-.15.16-.3.24-.45-.53-.19-1.05-.38-1.58-.55-.07-.03-.21.13-.48.32.73.27,1.28.47,1.82.67Z"/>
    <path class="cls-2" d="M242.28,161.37c-1.68-4.72.77-7.26,3.08-8.22,3.6-1.5,6.87-.44,9.02,2.86-.27.22-.54.52-.87.7-.37.2-.8.28-1.28.44-1.5-1.8-3.53-2.56-6-2.39-2.05.14-2.91.86-3.11,2.76-.09.84.13,1.7.07,2.54-.02.34-.43.65-.91,1.32Z"/>
    <path class="cls-1" d="M237.65,167.84c2.47-.98,4.93-1.97,7.4-2.93.23-.09.54-.12.75-.06,3.24,1.04,5.59-.54,7.91-2.22,1.46-1.05,2.13-1.04,3.99.16-1,.37-1.83.7-2.69,1.01-3.68,1.27-7.32,2.66-11.06,3.75-1.95.57-4.08.61-6.13.89-.06-.21-.12-.4-.18-.6Z"/>
    <path class="cls-2" d="M291.8,157.48c.62-.18,1.24-.37,1.73-.52.88.49,1.04,2.87.28,4.06-1.3,2.05-3.25,2.89-6.66,1.83-2.18-.67-2.96-1.64-2.51-3.31.51.34.92.68,1.39.92.81.42,1.61.92,2.49,1.13,2.08.5,3.29-.42,3.34-2.38.02-.55-.04-1.08-.06-1.74Z"/>
    <path class="cls-1" d="M238.31,169.58c-.2.14-.36.35-.59.42-2.79,1.04-5.66,1.9-8.24,3.38-1.15.67-2.42.54-3.96.18.35-.37.49-.66.73-.76,2.85-1.28,5.75-2.45,8.54-3.81,1.46-.71,2.21.94,3.5.58Z"/>
    <path class="cls-5" d="M206.57,182.63c4.9-2.54,9.77-5.13,14.73-7.57.84-.41,2.09-.13,3.26.21-.29.19-.55.43-.87.56-5.22,2.14-10.45,4.28-15.68,6.39-.46.18-.98.25-1.47.38l.03.03Z"/>
    <path class="cls-2" d="M274.25,156.7c.22-1,.36-1.63.49-2.27-2.55-.35-1.37,2.77-3.27,3.08-1.23-1.77-1.17-1.98.67-2.7,2.1-.84,4.21-1.7,6.32-2.53.79.58,1.48,1.07,2.47,1.8-2.29.9-4.29,1.68-6.68,2.61Z"/>
    <path class="cls-5" d="M299.61,136.81c.57-1.71.93-2.79,1.32-3.99.76.11,1.39.09,1.88.3.45.2,1.05.62,1.09.99.04.4-.39,1.01-.81,1.24-.91.51-1.94.83-3.48,1.46Z"/>
    <path class="cls-2" d="M264.32,152.33c-2.1.92-3.79,1.67-5.76,2.53,1.31-2.67,1.7-2.85,5.76-2.53Z"/>
    <path class="cls-2" d="M258.82,158.85c1.06.79,1.86,1.39,3.12,2.33-1.28.28-2.31.83-2.9.57-1.02-.44-.89-1.5-.21-2.9Z"/>
    <path class="cls-2" d="M266.1,156.71c.67-.22,1.29-.41,2.21-.7.03.77.18,1.38.05,1.92-.25,1.04-1.19,1.14-2.33,1.17.03-.81.05-1.55.08-2.39Z"/>
    <path class="cls-2" d="M289.77,158.89c-1.03.24-2.07.49-3.1.75-.05-.16-.1-.33-.15-.51,1.2-.39,2.4-.78,3.62-1.18.89,2.25.78,2.45-1.78,2.64.75-.5,1.2-.79,1.64-1.08-.08-.2-.15-.42-.23-.62Z"/>
    <path class="cls-2" d="M264.63,157c-.39,2.41-.96,2.71-3.22,1.95.48-1.35,1.89-1.29,3.22-1.95Z"/>
    <path class="cls-2" d="M250.44,157.36c-1.46,1.51-3.05,1.71-4.63,2.14.35-1.63.35-1.55,1.7-1.54.82,0,1.64-.33,2.92-.6Z"/>
    <path class="cls-2" d="M277.25,162.25c.61-.23,1.21-.47,1.82-.69.37-.13.74-.25,1.27.04-.99.3-1.97.61-2.96.92-.04-.09-.08-.18-.13-.28Z"/>
    <path class="cls-3" d="M234,125.62c-.67-1.77.31-2.86,1.95-3.68-1.05-5.4-2.11-10.74-3.95-15.92-.73-2.05-1.52-4.08-2.3-6.11-.7-1.81-.17-2.76,1.93-3.29,1.25-.31,2.5-.56,3.75-.86,1.14-.26,1.82.09,2.03,1.16.4,2.06.65,4.16,1.24,6.17,1.56,5.32,3.27,10.6,4.94,15.89.06.21.28.39.6.81,1.35-.19,2.82-.4,4.52-.65-.28-1.57-.53-2.84-.72-4.12-.63-4.07-1.27-8.15-1.83-12.22-.29-2.01-.46-4.02-.65-6.04-.15-1.54.07-1.78,1.73-1.89,1.03-.07,2.06-.08,3.08-.15,1.12-.09,1.73.23,1.96,1.31.96,4.58,2.05,9.13,2.98,13.71.98,4.73,1.74,9.5,2.77,14.22.71,3.27,1.73,6.48,2.59,9.73.16.6.31,1.21.39,1.82.1.79-.21,1.37-1.13,1.59-.83.2-1.64.46-2.48.63-2.97.61-3.76.11-4.28-2.68-.47-2.53-.9-5.07-1.39-7.59-.09-.5-.34-.99-.55-1.59-2.04.43-3.93.84-6.05,1.29.37,2.44.73,4.86,1.11,7.29.11.68.34,1.38.36,2.08.03.89.29,2.23-.23,2.6-1.08.77-2.58,1.15-3.97,1.47-.39.09-1.18-.52-1.46-.97-.4-.66-.51-1.47-.72-2.22-.82-2.93-1.65-5.85-2.42-8.62-1.18-.4-2.16-.74-2.91-.99.23,2.49.61,5.28.74,8.09.13,2.72-1.01,5.01-3.41,6.75-3.71,2.69-7.58,2.01-9.83-1.73-1.82-3.04-2.72-6.35-3.51-9.69-.57-2.43.06-3.37,2.67-4.26.38-.13.81-.16,1.48-.27.8,1.63,1.55,3.24,2.36,4.83.36.7.72,1.43,1.27,2,.76.8,1.94.47,2.05-.57.1-.82.08-1.77-.28-2.52-.78-1.62-1.64-3.24-2.74-4.69-2.65-3.47-6.04-6.28-9.65-8.94-4.72-3.47-5.78-8.31-4.81-13.48.82-4.43,6.12-6.37,10.99-4.8.6.2,1.21.67,1.56,1.16,1.83,2.61,3.67,5.21,5.33,7.91.84,1.4.54,1.93-1.09,2.54-1.22.46-2.56.64-3.99.98-1.02-2.29-1.93-4.28-2.81-6.29-.35-.8-.57-1.71-1.84-1.59-1.09.12-1.56.85-1.87,1.71-.69,1.95-.17,3.71,1.14,5.26.67.8,1.5,1.49,2.34,2.15,8.4,6.46,8.2,6.75,13.01,13.26ZM243.19,125.88c2.81-.72,5.43-1.4,8.05-2.05,1.04-.26,1.63.21,1.85,1.12.15.6.29,1.2.4,1.82.51,3.06,1.01,6.11,1.51,9.22.6.06,1.01.15,1.43.13,2.24-.07,2.58-.5,1.97-2.41-.24-.75-.58-1.48-.73-2.23-1.79-9.18-3.54-18.36-5.32-27.54-.49-2.51-1.02-5.01-1.57-7.64-1.07.09-1.98.17-3.1.26.02,4.21,1.32,8.1,1.77,12.08.45,4,.81,8,1.24,12.22-2.25.17-4.2.35-6.14.48-2.33.15-2.43.18-3.03-1.87-1.22-4.19-2.37-8.41-3.47-12.63-.8-3.08-1.48-6.17-2.23-9.38-.82.16-1.48.28-2.13.42-.63.15-1.25.33-1.98.53.97,3.55,1.9,6.93,2.8,10.31,1.08,3.99,2.15,7.99,3.19,11.98.24.92.47,1.96-.72,2.48-1.86.8-1.21,1.92-.8,3.09,2.71-.33,2.69-.32,3.28,2.01.74,2.94,1.5,5.87,2.29,8.8.17.65.5,1.27.86,2.17,1.08-.46,1.93-.83,2.77-1.18-.73-4.1-1.42-7.92-2.19-12.19ZM227.97,108.56c-1.66-2.66-2.96-5-4.55-7.18-1.37-1.87-3.51-2.32-5.92-1.81-2.55.53-4.56,1.75-4.85,4.23-.51,4.49.19,8.69,4.39,11.78,2.31,1.71,4.47,3.6,6.79,5.3,3.52,2.57,4.97,6.2,6.28,9.9.31.89.22,2.02-.04,2.96-.37,1.32-1.66,2.05-3.03,2.24-1.46.21-2.02-.93-2.45-1.97-.55-1.31-1.03-2.64-1.58-3.93-.23-.55-.58-1.05-.89-1.56-2.08,1.1-2.09,1.09-1.63,2.69.43,1.51.79,3.03,1.37,4.49.73,1.81,1.57,3.61,2.54,5.32.36.61,1.17,1.28,1.88,1.4,2.62.42,6.11-.34,6.83-3.55,1.1-4.95.86-9.85-1.98-14.24-1.58-2.45-3.69-4.65-5.84-6.72-2.33-2.25-5-4.19-7.49-6.31-2.07-1.75-2.55-3.94-1.94-6.41.47-1.92,1.52-3.01,3.23-3.19,1.91-.2,2.97.36,3.96,2.28.83,1.59,1.54,3.25,2.41,5.08.69-.21,1.36-.43,2.52-.8Z"/>
    <path class="cls-3" d="M192.64,107.82c1.39-.57,2.71-1.12,4.03-1.65.94-.37,1.74-.16,2.14.68.72,1.56,1.48,3.14,2.01,4.76,1.55,4.77,2.96,9.56,4.47,14.33.83,2.61,1.72,5.2,2.63,7.78.23.62.68,1.18,1.1,1.91,1.1-1.01.7-1.94.47-2.78-1.96-6.98-3.99-13.96-5.94-20.97-.46-1.64-.8-3.33-.96-5.02-.14-1.69.18-1.97,1.98-2.46,1.12-.3,2.27-.5,3.41-.76,1.86,3.37,2.63,6.79,3.62,10.14.66,2.25,1.4,4.47,2.14,6.7,1.43,4.31,2.86,8.62,4.34,12.91.79,2.29,1.66,4.55,2.53,6.83.85,2.24.7,2.52-1.74,3.1-.17.03-.35.05-.51.09q-2.55.61-3.86-1.5c-.08-.12-.26-.18-.5-.34-.46.53-.88,1.1-1.39,1.61-2.5,2.51-6.71,2.27-8.42-.68-1.47-2.51-2.79-5.17-3.66-7.9-2.35-7.37-4.42-14.83-6.6-22.25-.42-1.42-.82-2.84-1.31-4.54ZM194.66,108.84c.24,1.07.36,1.83.58,2.58,2.34,7.71,4.6,15.44,7.1,23.1.81,2.51,2.11,4.92,3.49,7.21,1.17,1.97,3.46,2.11,5.11.4.89-.91,1.4-2.12,2.12-3.17.28-.41.67-.75,1.23-1.38.93,1.68,1.69,3.05,2.52,4.56.71-.23,1.47-.48,2.26-.74-1.41-4.23-2.74-8.24-4.1-12.24-1.32-3.94-2.77-7.84-4-11.8-1.24-4-2.26-8.04-3.43-12.24-1.29.42-2.22.73-3.24,1.07.44,2.31.74,4.46,1.29,6.56,1.62,6.11,3.4,12.19,4.99,18.31.41,1.57.43,3.22.54,4.85.05.82-.27,1.75-1.25,1.77-.7.01-1.54-.55-2.05-1.06-.55-.55-.89-1.32-1.16-2.06-.92-2.5-1.83-5-2.63-7.52-1.57-4.93-3.06-9.87-4.58-14.8-.43-1.39-.91-2.78-1.4-4.28-1.24.33-2.21.57-3.38.87Z"/>
    <path class="cls-3" d="M321.11,141.45c-1.84-.6-3.54-1.08-5.18-1.7-1.1-.42-.93-1.4-.78-2.25.28-1.53.73-3.04.94-4.59.9-6.64,1.81-13.28,2.54-19.93.23-2.07-.11-4.17-.19-6.27-1.27-.36-2.38-.67-3.57-1.01.23-2.45.43-4.73.64-7.04,2.95-.93,5.75-.51,8.49-.01,1.83.34,3.81.73,5.29,1.66,1.84,1.16,3.36,2.81,4.78,4.41,2.27,2.57,2.84,5.8,3.41,8.91.51,2.78-1.13,5.14-2.93,7.26-.88,1.05-2.07,1.87-3.07,2.75,2.56,6.6,5.47,12.73,7.01,19.63-2.14.6-4.21,1.27-6.32,1.75-.9.2-1.28-.54-1.51-1.28-.93-2.9-1.89-5.8-2.84-8.7-.7-2.14-1.4-4.28-2.21-6.74-1.11,1.24-1.15,2.39-1.34,3.48-.29,1.69-.44,3.42-.96,5.05-.49,1.53-1.38,2.96-2.19,4.62ZM329.02,123.26c1.12-.86,2.22-1.73,3.33-2.57,2.14-1.62,3.03-3.76,3-6.21-.03-3.03-1.59-5.68-2.72-8.42-.11-.28-.41-.5-.66-.71-4.15-3.62-9.26-4.97-15.05-5.2-.2,1.57-.38,2.99-.57,4.45.48.08.72.15.96.17,2.29.25,2.78.69,2.9,2.76.06,1,.11,2.03,0,3.02-.88,8.37-1.39,16.77-3.16,25.05-.46,2.12.24,2.94,2.84,3.61,1.43-4.38,1.58-9.15,4.29-13.2,2.18.21,3.08,1.09,3.62,2.87,1.34,4.41,3.05,8.71,4.57,13.07.38,1.1,1.16,1.28,2.18.97.61-.18,1.16-.54,2.01-.95-2.6-4.9-4.39-9.9-5.76-15.02-.32-1.18-1.08-2.26-1.79-3.7Z"/>
    <path class="cls-3" d="M186.4,149.62c-2.83.04-4.84.98-7.24.51.7-1.31,1.83-1.1,2.74-1.24.9-.12,1.81-.15,3.12-.26-1.03-1.68-1.88-2.99-2.65-4.34-1.73-3.05-1.19-4.23,2.45-5.32.48-.14.99-.22,1.46-.33,1.26.84,1.39,2.64,3.4,2.89.13-.45.4-.88.33-1.25-.56-2.91-1.09-5.83-3.26-8.22-2.48-2.75-4.91-5.55-7.35-8.33-3.45-3.91-2.78-10.61,1.39-14,3.35-2.72,8.29-2.3,10.56,1.15,1.57,2.38,2.65,5.01,3.87,7.57.5,1.05.08,2.05-.97,2.64-1.07.58-2.26.97-3.38,1.44-1.46-2.46-2.76-4.68-4.12-6.89-.13-.2-.57-.25-.95-.4-1.11,1.27-.75,2.55-.34,3.79.83,2.46,2.64,4.3,4.67,6,1.2,1,2.36,2.02,3.6,2.97,6.16,4.8,6.95,11.09,5.73,17.86-.51,2.89-2.64,4.85-5.22,6.4-1.41.85-4.47.51-6.03-.7-.83-.64-1.43-1.53-1.79-1.92ZM183.17,141.5c.8,2.83,3.42,6.57,5.7,8.15.4.28.86.55,1.34.64,2.76.53,6.8-1.8,7.18-4.37.34-2.38.33-4.8.32-7.21-.01-2.64-1.01-5.09-2.75-7.14-1.5-1.76-3.23-3.39-5.09-4.85-2.5-1.96-4.55-4.18-5.94-6.89-.84-1.65-.81-3.34,0-4.98.52-1.05,1.53-1.65,2.87-1.71,1.21-.04,1.63.76,2,1.53.62,1.27,1.09,2.6,1.69,3.88.3.64.68,1.28,1.73.95.97-.31,1.13-1.02.86-1.69-.75-1.9-1.42-3.85-2.51-5.58-1.3-2.08-3.66-2.45-6.08-2.07-2.33.37-4.22,1.43-4.77,3.7-1.07,4.37-.48,8.33,3.31,11.55,1.87,1.59,3.58,3.33,5.32,5.03,2.7,2.62,3.59,5.93,4.21,9.34.09.44.02.93-.08,1.38-.37,1.59-1.51,2.29-3.2,1.79-1.02-.3-2-.85-2.88-1.43-1.13-.76-2.14-.71-3.22-.03Z"/>
    <path class="cls-3" d="M293.84,133.34c-1.26,1.82-2.89,3.22-4.93,4.35-2.25,1.25-4.49,1.43-6.89.7-1.45-.44-2.88-.91-4.57-1.44.42-5.38.87-10.77,1.27-16.18.38-5.41.71-10.83,1.07-16.41-.15-.03-.54-.18-.93-.19-1.41,0-1.69-.67-1.55-1.82.28-2.24.42-4.49.62-6.97,3.16-1.44,6.76-2.34,10.04-1.2,3.6,1.25,6.52,3.86,7.25,7.6,1.28,6.63.68,13.03-3.85,18.75-.14.18-.2.42-.33.69.47.72.99,1.42,1.43,2.17,1.36,2.32,1.97,4.78,1.6,7.42-.12.85-.17,1.71-.26,2.57,0-.01.03-.05.03-.05ZM287.93,120.42c1.58-2.1,3.34-3.74,4.19-5.7,1.56-3.56,2.02-7.39,1.57-11.25-.36-3.13-2.18-5.28-5.2-6.73-2.86-1.36-5.77-.85-8.83-.51-.18,2.11-.35,4.02-.51,5.81,2.35,1.11,2.42,1.32,2.22,3.33-.28,2.87-.47,5.73-.65,8.61-.29,4.5-.51,9.01-.8,13.51-.17,2.63-.43,5.25-.65,7.95.99.4,1.81.78,2.68,1.07,4.12,1.34,8.88-.43,9.85-4.64.83-3.65.19-7.11-2.81-9.94-.55-.52-.88-1.23-1.07-1.52Z"/>
    <path class="cls-3" d="M267.55,107.5c.01,3.73-.15,7.48.09,11.2.36,5.57,1,11.13,1.52,16.71.2,2.13-.03,2.42-2.34,2.7-3.99.49-4.12.36-4.38-3.36-.47-6.98-.87-13.98-1.56-20.94-.47-4.71-1.41-9.38-2.1-14.07-.18-1.22-.24-2.45-.36-3.69-.09-1.04.48-1.4,1.55-1.34,1.02.06,2.05.06,3.07.13,2.1.16,2.69.58,3.06,2.51.64,3.36,1.15,6.74,1.72,10.1-.1.02-.19.03-.28.05ZM260.2,96.66c.01.15,4.26,39.67,4.28,39.75.81.05,1.65.09,2.78.15-.31-1.89-.76-3.63-.84-5.38-.26-5.52-.35-11.04-.57-16.56-.2-4.96-.35-9.93-.75-14.88-.28-3.53-.71-3.7-4.89-3.09Z"/>
    <path class="cls-3" d="M183.6,170.5c3.13-1.38,16.43-2.97,18.99-2.25-.61.28-.98.57-1.4.63-4.04.63-8.12,1.01-12.08,2.1-1.69.46-3.51.4-5.51-.48Z"/>
    <path class="cls-3" d="M298.53,178.38c.23-.18.44-.48.7-.52,6.32-1.09,12.64-2.14,19.11-3.24-1.01,1.25-1.01,1.23-6.19,2.15-2.26.4-4.49.93-6.75,1.36-2.21.41-4.41,1.04-6.69.77-.06-.17-.12-.35-.18-.52Z"/>
    <path class="cls-3" d="M312.81,158.28c2.02-.95,16.17-1.9,19.02-.95-.84.16-1.68.43-2.54.48-2.64.17-5.28.22-7.92.39-2.12.13-4.23.35-6.35.56-1.07.1-1.07.14-2.21-.47Z"/>
    <path class="cls-3" d="M202.08,151.72c.82-.32,1.32-.62,1.86-.72,4.71-.82,9.43-1.62,14.15-2.41.27-.03.6.16,1,.28-1.72,1.11-14.05,3.23-17.01,2.86Z"/>
    <path class="cls-3" d="M342.51,168.23c-2.16,1.25-10.37,2.09-12.48,1.53.28-.26.47-.6.69-.62,3.93-.33,7.86-.61,11.79-.92Z"/>
    <path class="cls-3" d="M256.12,146.85c2.52-1.14,7.95-1.77,9.82-1.28-1.31.93-6.07,1.58-9.82,1.28Z"/>
    <path class="cls-3" d="M183.31,132.95c-1.66,1.8-4.54,2.33-6.83,1.37,2.23-1.3,4.51-1.38,6.83-1.37Z"/>
    <path class="cls-3" d="M195.22,176.02c-3.29,1.79-4.35,1.97-8.44,1.48,2.66-1.07,5.17-1.6,8.44-1.48Z"/>
    <path class="cls-3" d="M190.89,164.24c2.57-1,5.24-1.34,8.01-1.04-2.55,1.1-5.24,1.29-8.01,1.04Z"/>
    <path class="cls-3" d="M336.03,155c1-1.38,1.76-1.56,6.29-1.51-2.17,1.14-3.84,2.04-6.29,1.51Z"/>
    <path class="cls-3" d="M172.74,168.65c1.82-.92,3.52-.77,5.38-.09-2.08,1.18-3.97,1.22-5.38.09Z"/>
    <path class="cls-3" d="M312.45,165.47c2.19-.94,4.47-1.28,7.15-1.13-2.44,1.19-4.79,1.29-7.15,1.13Z"/>
    <path class="cls-3" d="M321.58,178.26c1.64-1.41,3.16-1.42,4.74-1.24-1.36.55-2.45,1.91-4.74,1.24Z"/>
    <path class="cls-3" d="M323.99,171.94c-1.19.76-2.38,1.46-3.94.43,1.29-1.05,2.63-.69,3.94-.43Z"/>
    <path class="cls-3" d="M186.17,184.41c1.82-.72,3.38-.72,5.14-.35-1.52.9-2.7.99-5.14.35Z"/>
    <path class="cls-3" d="M342.47,106.99c-1.46-.31-2.91-.64-4.62-1.01,1.99-.95,2.73-.85,4.74.5-.04.17-.09.34-.12.51Z"/>
    <path class="cls-3" d="M173.02,115.84c-1.23.93-2.56,1.56-4.49,1.13,1.39-1.31,2.86-1.47,4.49-1.13Z"/>
    <path class="cls-3" d="M174.22,182.31c1.61-.46,3.23-.92,5.26-1.51-1.3,1.47-1.95,1.68-5.1,1.98-.06-.16-.1-.31-.16-.47Z"/>
    <path class="cls-3" d="M180.28,157.34c-1.41.16-2.82.33-4.28.5,1.5-1.27,2.29-1.41,4.28-.5Z"/>
    <path class="cls-3" d="M336.96,176.97c1.09-1.17,2.36-.84,3.63-.52-1.13.63-2.37.69-3.63.52Z"/>
    <path class="cls-3" d="M206.6,156.2c-1.02.15-2.04.32-3.06.49.79-1.04,1.8-1.38,2.97-1.15.03.22.06.43.09.66Z"/>
    <path class="cls-3" d="M236.6,149.64c-1.43.06-2.85.11-4.28.17,1.39-.52,2.75-1.37,4.28-.17Z"/>
    <path class="cls-3" d="M174.49,142.91c-.77,1.59-1.53,1.8-3.19,1.07,1.22-.41,1.96-.66,3.19-1.07Z"/>
    <path class="cls-3" d="M294.31,181.72c.89-.11,1.75-.22,2.61-.33.03.13.06.28.09.41-.85.15-1.7.29-2.55.42-.01,0-.07-.25-.15-.49Z"/>
    <path class="cls-3" d="M304.87,174.29c1.06-.04,2.13-.09,3.19-.12.02.07.03.14.05.21-1.04.21-2.07.43-3.12.64-.04-.24-.08-.49-.12-.73Z"/>
    <path class="cls-3" d="M218.23,152.69c-.35-.06-.7-.12-1.06-.18.01-.12.02-.25.03-.38.39.02.76.04,1.16.06-.05.16-.09.33-.13.5Z"/>
    <path class="cls-3" d="M240.19,145.52c.4-.08.81-.17,1.21-.25.04.12.08.23.12.34-.4.15-.79.3-1.19.46-.05-.18-.1-.36-.15-.54Z"/>
    <path class="cls-3" d="M319.67,161.05c-.2.1-.37.25-.57.26-.09,0-.21-.24-.32-.37.21-.09.4-.19.62-.24.05,0,.15.19.27.34Z"/>
    <path class="cls-3" d="M180.52,136.48c.39-.12.77-.21,1.15-.32.04.14.08.27.12.41-.38.09-.78.19-1.16.28-.04-.12-.08-.25-.11-.37Z"/>
    <path class="cls-3" d="M314.26,88.04c-5.58-.89-11.15-1.79-17.14-2.74q1.52-.75,5.91-.14c2.01.29,4.04.58,6.01,1.02,1.79.4,3.73.47,5.36,1.35-.04.18-.09.34-.14.51Z"/>
    <path class="cls-3" d="M294.32,86.03c-3.41.48-14.11-.45-16.24-1.24.7-.19,1.11-.4,1.5-.38,1.87.11,3.74.29,5.62.44.51.04,1.06.15,1.54.03,2.76-.72,5,1.06,7.59,1.15Z"/>
    <path class="cls-3" d="M238.55,86.42c-5.43,1.88-11.16,2.7-16.74,4.08-.07-.16-.13-.33-.2-.48.47-.26.91-.63,1.41-.75,5.11-1.2,10.22-2.35,15.33-3.52.07.23.13.45.2.67Z"/>
    <path class="cls-3" d="M200.44,94.39c.53.57.99,1.07,1.67,1.8-1.6.03-2.84,1.09-4.21-.07-.2-.17-.95.13-1.43.3-1.76.62-3.51,1.28-5.26,1.91-.86.31-1.73.61-3.03,1.05,2.05-1.86,7.58-4.03,12.26-4.98Z"/>
    <path class="cls-3" d="M274.84,82.98c-3.21.54-6.45.32-10.3.4.66-.68.92-1.18,1.18-1.18,3.05-.03,6.09.02,9.13.05,0,.25,0,.49-.01.73Z"/>
    <path class="cls-3" d="M332.32,91.61c2.06.88,4.12,1.76,6.17,2.66.73.31,1.42.67,2.02,1.25-3.33-.28-6.11-1.8-9.46-2.96.68-.48,1-.7,1.32-.92,0,0-.04-.03-.04-.03Z"/>
    <path class="cls-3" d="M244.52,84.32c1.44-.06,2.88-.11,4.77-.18-1.71,1.27-3.35,1.13-5.22,1.41.23-.6.35-.94.48-1.27l-.03.04Z"/>
    <path class="cls-3" d="M217.7,89.45c-1.79.31-3.01.51-4.47.75,1.66-1.54,2.13-1.64,4.47-.75Z"/>
    <path class="cls-3" d="M244.55,84.28c-1.38.2-2.77.4-4.55.65,2.17-1.43,3.14-1.51,4.52-.61l.03-.04Z"/>
    <path class="cls-3" d="M305.42,87.54c.87.17,1.74.34,2.6.51-.98.69-1.87.67-2.71.18.04-.23.08-.46.11-.69Z"/>
    <path class="cls-3" d="M212.35,92.83c-.88.15-1.75.3-2.63.44.72-.77,1.48-1.39,2.58-1.04.01.19.02.4.04.59Z"/>
    <path class="cls-3" d="M254.42,82.41c.56-.07,1.12-.16,1.67-.24.04.14.07.29.11.43-.55.13-1.1.26-1.65.4-.04-.19-.08-.39-.13-.59Z"/>
    <path class="cls-3" d="M324.86,91.65c-.79-.19-1.57-.38-2.35-.58.07-.2.14-.41.22-.62.76.25,1.52.5,2.28.75-.05.15-.1.3-.15.45Z"/>
    <path class="cls-3" d="M180.31,101.27c-.76.16-1.53.32-2.3.48-.04-.15-.09-.32-.13-.47.78-.2,1.56-.4,2.34-.6.03.2.07.4.09.59Z"/>
    <path class="cls-3" d="M226.12,87.06c-.52.21-1.05.42-1.58.63-.06-.15-.14-.3-.21-.44.54-.19,1.08-.37,1.62-.56.06.12.11.25.17.37Z"/>
    <path class="cls-3" d="M287,83.15c.44.05.86.08,1.3.13,0,.12,0,.25,0,.37-.43.02-.85.03-1.28.04,0-.18,0-.36-.01-.54Z"/>
    <path class="cls-3" d="M259.38,84.21c.1-.09.19-.25.31-.26.09,0,.21.14.32.24-.1.09-.2.24-.31.25-.1,0-.21-.15-.32-.23Z"/>
    <path class="cls-3" d="M303.26,116.34c1.26.28,1.57,1.04,1.74,1.92.38,1.91.81,3.81,1.17,5.72.28,1.49-.28,2.18-1.93,2.44-.59.09-1.2.12-1.79.11-2.02-.05-2.42-.55-1.88-2.34.74-2.48,1.51-4.94,2.28-7.42.04-.13.21-.23.4-.43ZM304.3,124.85c-.17-1.35-.31-2.44-.45-3.53-.22,0-.44-.01-.65-.03-.3,1.15-.6,2.29-.95,3.63.76-.02,1.23-.04,2.05-.07Z"/>
    <path class="cls-3" d="M278.44,168.38c4.64-1.27,8.95-1.14,13.6-1.31-1.52,1.1-9.34,1.78-13.6,1.31Z"/>
    <path class="cls-3" d="M289.56,169.57c-2.53.64-5.06.86-7.97.76,1.72-1.1,5.14-1.46,7.97-.76Z"/>
    <path class="cls-3" d="M273.73,166.72c2.27-.61,4.55-1.21,6.92-.46-2.26.81-4.59.63-6.92.46Z"/>
    <path class="cls-3" d="M294.06,166.05c.79-.87,1.55-1.01,2.56-.23-.53.16-.81.3-1.1.32-.49.02-.97-.05-1.46-.09Z"/>
    <path class="cls-3" d="M296.32,167.06c.68-.09,1.35-.17,2.02-.26.02.17.04.33.06.49-.68.06-1.36.11-2.03.16-.02-.13-.04-.26-.05-.4Z"/>
    <path class="cls-3" d="M267.87,167.74c-.13.05-.27.11-.4.16-.06-.15-.12-.3-.18-.46.14-.02.32-.09.42-.04.09.03.11.22.16.34Z"/>
    <path class="cls-3" d="M228.98,163.05c1.51-.31,2.45-.09,2.92,1.28-1.65.71-2.15-.28-2.92-1.28Z"/>
    <path class="cls-3" d="M231.65,160.95c.82.23,1.64.47,2.81.79q-1.92.93-3.02-.28c.06-.17.14-.34.21-.51Z"/>
    <path class="cls-3" d="M234.13,158.68c-.92.93-1.78,1.04-2.83.31.41-.18.61-.34.83-.36.67-.02,1.34.02,2,.04Z"/>
    <path class="cls-3" d="M228.8,157.04c1.16-.14,1.9-.22,2.91-.34q-1.18,1.35-2.91.34Z"/>
    <path class="cls-3" d="M212.47,168.62c1.14-.28,2.37-.79,3.79.15-1.46.73-2.6-.08-3.79-.15Z"/>
    <path class="cls-3" d="M220.63,169.08c-.14.06-.3.18-.43.15-.1-.02-.17-.21-.24-.33.14-.05.31-.18.43-.15.1.02.16.22.24.32Z"/>
    <path class="cls-3" d="M217.67,163.74c2.72-.62,2.82-.62,5.01.37-.87,1.78-1.74,1.74-5.01-.37Z"/>
    <path class="cls-3" d="M221.42,158.36c-1.3.49-2.29.86-3.21,1.21.28-1.53.9-1.85,3.21-1.21Z"/>
    <path class="cls-3" d="M218.96,162.03c1.35-1.44,2.09-.88,2.78.23-.8-.06-1.59-.13-2.78-.23Z"/>
    <path class="cls-3" d="M223.39,160.14c-.55-.2-1.09-.4-1.82-.67.27-.19.41-.35.48-.32.54.17,1.06.36,1.58.55-.08.15-.16.3-.24.45Z"/>
    <path class="cls-2" d="M243.19,125.88c.77,4.28,1.46,8.1,2.19,12.19-.83.35-1.69.73-2.77,1.18-.36-.9-.69-1.52-.86-2.17-.79-2.93-1.55-5.87-2.29-8.8-.59-2.33-.57-2.33-3.28-2.01-.41-1.17-1.06-2.29.8-3.09,1.18-.52.95-1.56.72-2.48-1.04-4-2.11-7.99-3.19-11.98-.91-3.38-1.84-6.75-2.8-10.31.73-.2,1.35-.39,1.98-.53.66-.15,1.31-.26,2.13-.42.76,3.21,1.44,6.3,2.23,9.38,1.1,4.22,2.24,8.44,3.47,12.63.6,2.05.71,2.03,3.03,1.87,1.94-.13,3.89-.31,6.14-.48-.43-4.22-.79-8.22-1.24-12.22-.45-3.98-1.75-7.87-1.77-12.08,1.12-.09,2.02-.17,3.1-.26.55,2.63,1.08,5.13,1.57,7.64,1.78,9.18,3.53,18.36,5.32,27.54.15.75.49,1.48.73,2.23.61,1.91.27,2.34-1.97,2.41-.41.01-.82-.08-1.43-.13-.51-3.11-1-6.16-1.51-9.22-.1-.62-.25-1.22-.4-1.82-.22-.91-.81-1.38-1.85-1.12-2.62.65-5.24,1.34-8.05,2.05Z"/>
    <path class="cls-2" d="M227.97,108.56c-1.15.37-1.83.58-2.52.8-.86-1.83-1.58-3.49-2.41-5.08-.99-1.92-2.05-2.47-3.96-2.28-1.71.18-2.76,1.27-3.23,3.19-.61,2.47-.12,4.65,1.94,6.41,2.49,2.11,5.15,4.06,7.49,6.31,2.15,2.08,4.26,4.28,5.84,6.72,2.83,4.39,3.08,9.29,1.98,14.24-.72,3.21-4.2,3.97-6.83,3.55-.71-.12-1.52-.79-1.88-1.4-.97-1.71-1.81-3.51-2.54-5.32-.58-1.46-.94-2.98-1.37-4.49-.46-1.6-.44-1.6,1.63-2.69.3.52.65,1.02.89,1.56.55,1.29,1.04,2.63,1.58,3.93.44,1.04.99,2.17,2.45,1.97,1.37-.2,2.66-.92,3.03-2.24.26-.94.35-2.07.04-2.96-1.3-3.7-2.76-7.33-6.28-9.9-2.32-1.69-4.48-3.59-6.79-5.3-4.2-3.09-4.9-7.29-4.39-11.78.29-2.48,2.29-3.7,4.85-4.23,2.41-.51,4.55-.06,5.92,1.81,1.59,2.18,2.89,4.53,4.55,7.18Z"/>
    <path class="cls-2" d="M194.66,108.84c1.17-.3,2.14-.54,3.38-.87.49,1.5.96,2.89,1.4,4.28,1.53,4.93,3.01,9.87,4.58,14.8.8,2.52,1.71,5.02,2.63,7.52.27.73.61,1.51,1.16,2.06.51.51,1.36,1.07,2.05,1.06.98-.02,1.3-.95,1.25-1.77-.11-1.62-.12-3.28-.54-4.85-1.59-6.12-3.37-12.2-4.99-18.31-.55-2.1-.84-4.25-1.29-6.56,1.02-.34,1.95-.65,3.24-1.07,1.17,4.2,2.19,8.24,3.43,12.24,1.22,3.96,2.67,7.86,4,11.8,1.35,4,2.69,8.01,4.1,12.24-.79.26-1.54.51-2.26.74-.83-1.51-1.59-2.88-2.52-4.56-.56.63-.95.98-1.23,1.38-.72,1.05-1.23,2.26-2.12,3.17-1.65,1.7-3.94,1.57-5.11-.4-1.38-2.29-2.68-4.7-3.49-7.21-2.5-7.66-4.76-15.4-7.1-23.1-.23-.75-.35-1.51-.58-2.58Z"/>
    <path class="cls-2" d="M329.02,123.26c.71,1.44,1.48,2.52,1.79,3.7,1.37,5.12,3.16,10.11,5.76,15.02-.85.41-1.39.77-2.01.95-1.01.3-1.8.12-2.18-.97-1.51-4.36-3.23-8.66-4.57-13.07-.55-1.79-1.45-2.67-3.62-2.87-2.71,4.05-2.86,8.82-4.29,13.2-2.6-.67-3.29-1.49-2.84-3.61,1.76-8.28,2.28-16.68,3.16-25.05.11-.99.06-2.02,0-3.02-.12-2.07-.61-2.51-2.9-2.76-.25-.02-.48-.09-.96-.17.19-1.46.37-2.88.57-4.45,5.79.23,10.9,1.58,15.05,5.2.25.21.55.43.66.71,1.13,2.74,2.69,5.39,2.72,8.42.03,2.45-.86,4.59-3,6.21-1.12.84-2.21,1.7-3.33,2.57ZM325.07,109.58c-.25,1.71-.44,3.01-.59,4.31-.11.92-.23,1.84-.21,2.77.01,1.65.72,2.1,2.41,1.52,1.93-.65,3.09-1.96,3.39-3.75.29-1.75-.9-2.91-2.4-3.77-.69-.4-1.48-.63-2.6-1.08Z"/>
    <path class="cls-2" d="M183.17,141.5c1.08-.68,2.09-.73,3.22.03.87.58,1.85,1.13,2.88,1.43,1.69.5,2.83-.19,3.2-1.79.1-.46.17-.94.08-1.38-.62-3.41-1.52-6.72-4.21-9.34-1.74-1.69-3.46-3.43-5.32-5.03-3.79-3.22-4.38-7.19-3.31-11.55.55-2.28,2.44-3.34,4.77-3.7,2.43-.38,4.79,0,6.08,2.07,1.09,1.73,1.76,3.68,2.51,5.58.27.67.12,1.38-.86,1.69-1.05.33-1.43-.32-1.73-.95-.61-1.28-1.08-2.61-1.69-3.88-.37-.78-.79-1.58-2-1.53-1.34.06-2.34.66-2.87,1.71-.81,1.64-.84,3.33,0,4.98,1.39,2.72,3.45,4.93,5.94,6.89,1.86,1.46,3.59,3.09,5.09,4.85,1.75,2.05,2.74,4.49,2.75,7.14.01,2.4.02,4.83-.32,7.21-.38,2.58-4.41,4.91-7.18,4.37-.47-.09-.94-.36-1.34-.64-2.29-1.58-4.91-5.32-5.7-8.15Z"/>
    <path class="cls-2" d="M287.93,120.42c.2.29.53,1,1.07,1.52,3,2.83,3.64,6.29,2.81,9.94-.96,4.21-5.73,5.98-9.85,4.64-.87-.28-1.69-.67-2.68-1.07.22-2.7.48-5.32.65-7.95.29-4.5.52-9.01.8-13.51.18-2.88.37-5.75.65-8.61.19-2.02.12-2.22-2.22-3.33.15-1.8.32-3.71.51-5.81,3.06-.34,5.97-.86,8.83.51,3.01,1.45,4.83,3.6,5.2,6.73.45,3.86-.01,7.69-1.57,11.25-.85,1.96-2.61,3.6-4.19,5.7ZM283.32,133.14c2.24-.03,4-1.31,4.52-3.3.54-2.08-.64-5.07-2.26-5.78-.95-.41-1.77-.12-1.89.86-.3,2.61-.46,5.23-.64,7.84,0,.12.18.25.28.38ZM283.33,113.6c3.03.12,4.79-.89,5.04-2.76.31-2.25-1.44-4.22-4.54-4.92-.49,2.51-.97,4.98-.49,7.68Z"/>
    <path class="cls-2" d="M260.2,96.66c4.18-.61,4.62-.44,4.89,3.09.4,4.95.55,9.92.75,14.88.22,5.52.31,11.03.57,16.56.08,1.75.53,3.48.84,5.38-1.13-.06-1.96-.1-2.78-.15-.01-.08-4.26-39.6-4.28-39.75Z"/>
    <path class="cls-5" d="M306.72,264.87c-3.02,1.38-1.91,4.58-3.36,7.22-1.38-2.39-1.85-4.46-1.5-6.69,1.32-.83,3.25-.03,4.22-1.47-.52-1.59-2.35-.77-3.21-1.56-.29-1.86,1.5-3.45.86-5.68-.64.43-1.25.64-1.45,1.02-.68,1.26-1.28,2.56-1.77,3.88-.34.91-.8,1.52-1.95,1.52-.42,0-.87.06-1.25.2-.62.24-.67,1.02-.08,1.29.66.28,1.39.45,2.24.72-.96,1.93-1.58,3.78-3.64,5.56.04-1.08.06-1.72.11-2.35.03-.55.26-1.13.12-1.62-.15-.55-.52-1.29-.98-1.44-.41-.12-1.38.35-1.59.77-.89,1.78-2.52,2.94-4,4.24-.55.48-1.19.9-1.87,1.22-1.39.65-2.31.31-2.72-1.07-.89-2.99-1.03-5.98.66-8.86.77-1.31,1.08-1.6,2.87-2.25.11.55.12,1.08.34,1.53.18.37.59.88.93.9.36,0,.93-.44,1.06-.79.35-.95.68-1.94.73-2.93.08-1.53-.98-2.37-2.61-2.06-.96.18-1.94.64-2.74,1.19-5.78,3.95-5.84,10.74-4.35,14.6.9,2.35,2.62,3.24,5.2,2.4,1.97-.65,3.76-1.75,5.88-2.78.81.55,1.61,2.18,3.23,1.6,1.24-.44,2.22-1.5,3.39-2.33.08.24.23.79.44,1.29.72,1.71,1.72,2.11,3.61,1.45.61-.22,1.2-.46,2.4-.91-.55.91-.74,1.36-1.05,1.72-2.67,3.18-2.76,4.24-.55,7.77-.56.16-1.07.36-1.6.45-10.33,1.94-20.81,2.02-31.26,2.08-6.94.03-13.88-.3-20.81-.61-2.38-.11-4.72-.72-7.1-.98-4.49-.5-9.02-.81-13.5-1.39-3.97-.5-7.93-1.16-11.86-1.93-11.48-2.27-22.38-6.25-33.45-9.69-1.61-.5-3.15-1.18-4.74-1.74-1.23-.43-1.93-1.2-2.05-2.41-.12-1.25-.34-2.48-.43-3.72-.49-6.29-.94-12.57-1.39-18.86-.01-.22.08-.45.15-.84,1-.2,2.04-.43,3.29-.69-.95-1.13-2.22-.36-3.36-.88-.07-.42-.24-1-.27-1.59-.15-3.73-.3-7.47-.38-11.2-.07-3.28.75-4.14,4.32-4.64,1.02-.13,2.06-.12,3.07-.25.54-.07,1.06-.3,1.56-.67-2.76-1.28-5.6,0-8.35-.19-.7-1.72-1.23-12.67-.8-16.26,3.83-2.16,8.17-2.72,12.53-3.01,14.21-.92,28.41-1.77,42.62-2.64.76-.05,1.51-.15,2.4-.26.21-1.18.42-2.29.62-3.36,2.09-.64,4.22-.07,6.07-.98-1.79-1.09-3.77-.06-5.73-.55.04-.49.08-.99.14-1.65.9-.03,1.73-.06,2.55-.1.02-.11.05-.22.07-.32-.69-.29-1.39-.57-2.11-.87,1.88-6.14,6.16-10.64,11.7-14.16,1.46-.93,3.53-1.27,5.37-1.45,3.32-.32,6.68-.39,10.02-.43,1.17-.02,2.41.23,3.5.63,7.35,2.68,12.57,7.35,15.44,14.09.87,2.02,1.64,4.08,2.37,6.14.33.95.87,1.41,2,1.41,9.43.02,18.86.06,28.23-1.2.51-.07,1.01-.16,1.53-.18,8.21-.53,16.43-1.06,24.64-1.61.92-.05,1.58.18,2.29.74,2.22,1.72,3.38,4.1,4.62,6.36.52.95.3,2.29.26,3.45-.07,2.17-.25,4.34-.4,6.66-1.89.81-3.97.47-5.97.59-1.96.12-3.92.16-5.96.25.58,1.19,1.57,1.44,2.75,1.38,2.23-.09,4.46-.17,6.68-.25.84-.03,1.67-.06,2.52-.09.13.55.29.86.25,1.16-.36,2.51.34,4.97.39,7.47.04,2.57.31,5.14.21,7.7-.21,5.6-.59,11.19-.94,16.78-.05.84-.32,1.67-.53,2.69-2.99.28-5.93.58-9.25.9,1.49,1.47,2.98.81,4.3.77,1.44-.03,2.88-.22,4.23-.34.21.21.41.31.42.44.16,3.57.37,7.15.37,10.72,0,.68-.72,1.59-1.39,2.03-1.93,1.3-3.96,2.49-6.03,3.6-4.6,2.44-9.24,4.83-13.9,7.18-1.72.87-3.51,1.64-5.33,2.3-2.86,1.06-5.77,2.01-8.68,2.97-.7.23-1.46.29-2.22.46.7-2.63,1.27-5.1,2.04-7.53.26-.83.93-1.61,1.56-2.29.64-.68,1.45-1.21,2.48-2.05-1.1-.39-1.75-.63-2.4-.87.03-1.32.07-2.62.08-3.92,0-.11-.21-.22-.56-.55-2.16,1.36-1.67,4.26-4.11,6,.12-2.03.23-3.65.33-5.28-.24-.07-.48-.15-.71-.23ZM292.52,219.94c4.03,4.64,7.78,9.06,11.67,13.39,3.67,4.08,7.41,8.13,11.28,12.06,2.32,2.37,4.85,4.58,7.45,6.69,1.77,1.43,3.82.66,4.44-1.47.11-.37.2-.77.21-1.15.13-2.41.37-4.83.31-7.24-.08-3.19-.43-6.37-.59-9.56-.39-7.84-.73-15.69-1.1-23.55-.09-1.89-.09-1.88,2.2-2.67.89-.3,1.88-.62,1.73-1.73-.13-1.02-1.04-1.46-2-1.52-3.92-.27-7.85-.73-11.76.24-.85.2-1.94.31-1.87,1.25.04.65.65,1.58,1.27,1.82,2.08.78,2.68,2.29,2.82,4.06.55,7.22,1.07,14.45,1.59,21.67.01.18-.18.38-.37.72-.55-.55-1.02-.98-1.46-1.44-7.16-7.55-13.06-15.92-19.21-24.13-1.69-2.27-3.74-2.98-6.43-2.9-3.5.11-7,.35-10.51.45-1.11.03-1.76.38-2.08,1.35-.7,2.05.18,3.04,2.69,2.96,2.94-.09,2.98,0,3.12,2.62.14,2.47.21,4.98.61,7.43,1.42,8.63,2.2,17.31,2.75,26.01.12,1.86.54,3.82-2.26,4.47-.28.06-.61.42-.67.67-.17.81-.44,1.7-.2,2.43.12.34,1.33.55,2.03.52,3.42-.17,6.84-.45,10.26-.68.81-.06,1.73-.21,1.68-1.08-.04-.7-.41-1.56-.96-1.99-.67-.53-1.66-.76-2.55-1.02-1.23-.34-1.83-1.03-1.9-2.18-.09-1.47-.23-2.95-.4-4.42-.45-4.03-1.02-8.04-1.36-12.06-.28-3.24-.28-6.5-.42-10.03ZM230.84,212.21c1.19,13.32,3.71,26.32,3.76,39.55-.82.37-1.54.63-2.18,1.01-.85.49-1.56,2.17-1.24,2.88.47,1.03,1.51.88,2.43.83,3.33-.21,6.67-.41,9.99-.73.65-.06,1.57-.5,1.8-.98.38-.84-.12-1.69-1.03-2.16-.66-.33-1.38-.64-2.12-.82-1.44-.33-2.13-1.06-2.24-2.44-.18-2.26-.33-4.52-.81-6.72-1.38-6.3-.93-12.71-1.45-19.07,0-.04.1-.09.26-.25.27.27.56.52.81.8,3.54,4.08,7.01,8.2,10.63,12.23,3.68,4.07,7.43,8.1,11.28,12.04,2.2,2.26,4.56,4.42,7.05,6.41,2.47,1.99,4.68,1.1,5.02-1.99.26-2.32.35-4.66.31-6.99-.07-3.74-.32-7.47-.49-11.21-.33-7.22-.64-14.47-1.01-21.69-.13-2.5-.22-2.49,2.34-3.5.82-.32,1.78-.75,1.44-1.64-.23-.61-1.09-1.05-1.72-1.48-.24-.16-.66-.14-1-.15-2.66-.06-5.31-.18-7.97-.12-1.35.03-2.72.35-4.02.73-1.13.34-1.32,1.17-.56,2.02.36.42.84.83,1.36,1.02,1.7.6,2.22,1.89,2.35,3.32.61,6.98,1.17,13.96,1.71,20.95.04.52-.17,1.08-.33,1.98-.8-.75-1.28-1.18-1.72-1.63-7.08-7.49-12.92-15.82-19.03-23.95-1.7-2.26-3.74-2.99-6.42-2.9-3.51.1-7.01.3-10.51.48-1.56.07-2.37.93-2.35,2.47.01,1.16.84,1.81,2.42,1.83.93,0,1.86-.06,3.23-.12ZM245.3,262.35c.63,1.79.07,3.43-.43,5.05-.86,2.86-1.87,5.68-2.75,8.54-.28.91-1.06,2.19.5,2.57,1.29.33,1.52-.98,1.85-1.84.59-1.53,1.14-3.09,1.86-5.04.56,1.53,1.18,2.58,2.67,2.14,1.09-.32,2.05-1.01,3.08-1.54,1.21,2.07,1.95,2.19,5.2.71.87,1.77,2.6.26,4.17.65-.67,1.43-1.4,2.67-1.82,3.99-.35,1.09-.57,2.3-.4,3.39.2,1.38,1.65,2.5,2.74,2.42,1.54-.11,1.81-1.27,2.15-2.31.24-.74.42-1.51.53-2.28.27-1.93.46-3.88.75-5.81.12-.79.43-1.55.64-2.33.45.68.39,1.3.53,1.87.07.32.43.76.73.82.3.04.88-.25,1-.51.37-.77.55-1.63.85-2.44.24-.68.07-1.59,1.16-1.86.13.16.3.27.3.39.02.85,0,1.71,0,2.56-.02,1.98,1.16,2.74,3.12,1.96.6-.24,1.12-.71,1.62-1.11.14-.12.11-.42.16-.73-.64-.34-1.28-.66-1.88-.98,0-2.49-.54-4.61-3.49-5.39.26-1.08.47-1.99.69-2.9.2-.83.51-1.68.53-2.51.01-.52-.3-1.34-.73-1.53-.79-.33-1.16.39-1.37,1.02-.34.96-.64,1.94-1.01,2.9-.67,1.73-1.4,3.44-2.12,5.21-2.76-1.44-3.99-1.19-5.4.94-.63.96-1.14,1.97-1.71,2.96-.45-1.35-.39-2.57-.44-3.78-.01-.33-.34-.64-.54-.95-.39.22-.97.35-1.14.67-.43.84-.68,1.76-1.02,2.64-.23.59-.23,1.35-1.19,1.59-.5-1.57,1.26-3.13-.27-4.57-2.43-.27-1.34,1.57-1.77,1.35-1.64-.86-3.39-.95-5.07-.05.41-1.36.75-2.24.93-3.15.17-.92.26-1.86.25-2.79-.02-2.48-1.37-3.54-3.94-2.72-2.33.73-4.51,1.87-6.7,2.93-.5.25-.75.89-1.33,1.62,3.36.4,5.67-1.69,8.55-1.76ZM199.31,215.55c.33,3.25.84,6.25.89,9.27.07,4.14,1.34,8.25.2,12.42-.06.22.23.5.32.77.17.52.41,1.02.46,1.53.23,2.64.42,5.28.59,7.92.03.5-.11,1.03-.16,1.53-1.68.21-3.26.24-4.69.67-1.38.42-3.24-.43-4.39,1.36,3.28.3,6.24-1.1,9.39-.55.06,1.56.11,2.93.16,4.3-.58.35-1.11.61-1.57.95-1.21.9-1.97,2.64-1.46,3.49.7,1.22,2.02.91,3.19.92.17,0,.34,0,.52-.03,6.06-.37,12.13-.74,18.19-1.14,1.73-.11,2.09-.76,1.3-2.16-1.03-1.82-2.62-3.01-5.09-3.34-.15-13.29-2.92-26.26-2.28-39.5.86-.3,1.7-.52,2.44-.88,1.2-.61,2.74-1.29,2.6-2.62-.16-1.53-2-1.54-3.29-1.61-2.72-.15-5.46-.12-8.18-.02-2.4.09-4.78.33-7.17.57-1.87.2-3.74.46-5.59.77-1.32.22-2.37,1.33-2.47,2.38-.1,1.04.5,1.6,2.27,2.06,1.23.31,2.46.59,3.84.92ZM256.1,190.25c-.02-.65-.07-1.25-.06-1.86.02-2.1.09-4.2.04-6.3-.01-.36-.55-1.04-.76-1.01-.51.07-1.22.37-1.39.75-.32.7-.43,1.52-.42,2.28.04,4.9.14,9.8.24,14.71,0,.69.04,1.63,1.04,1.56.58-.04,1.23-.72,1.62-1.25.3-.42.29-1.04.38-1.58.18-1.15.28-2.33.52-3.48.06-.3.48-.56.93-1.06.1.67.17.96.2,1.27.11,1.16.13,2.34.33,3.49.07.37.61.95.9.94.5-.03,1.12-.36,1.4-.74.34-.47.37-1.1.58-1.82.76.69,1.31,1.28,1.97,1.74,1.6,1.1,3.19.9,4.18-.55.31-.46.25-1.12.35-1.68-.55-.04-1.1-.05-1.64-.12-.61-.07-1.21-.21-1.81-.31.23-.52.34-1.15.73-1.56.83-.88,1.95-1.56,2.69-2.49.95-1.21.85-2.3.06-2.99-.87-.75-2.76-.83-3.78.12-.94.87-1.66,1.97-2.29,3.06-.41.7-.49,1.56-.81,2.64-.25-.88-.41-1.47-.59-2.07-.9-2.97-1.76-3.3-4.61-1.69ZM229.33,261.44c-.49.82-.91,1.37-1.15,1.97-.72,1.8-1.03,3.8-3.23,4.79-.16.06-.18.4-.25.6,1.5,1.76,1.59,3.56.11,6.09-.14-1.02-.14-2.03-.08-3.06.1-1.64-.24-2.06-2-2.33-1.17-.17-2.21.09-3.07.85-1.6,1.41-2.15,3.19-1.97,5.11.15,1.52,1.41,2.23,3.12,1.95.47-.08,1.15-.4,1.41-.22,1.71,1.17,3.17.82,4.34-.49.4.1.56.12.72.19,2.59,1.13,4.97.18,5.63-2.34.1-.42-.15-1.13-.51-1.36-.32-.2-1.1-.04-1.52.18-.61.35-1.07.91-1.71,1.48-1.43-1.8-.81-3.38-.24-4.92.27-.12.41-.19.56-.27.8-.36,2.09-.05,2.25-1.2.15-1.13-1.06-1.23-1.82-1.67-.12-.08-.18-.24-.27-.38.02-1.54,1.13-3.11-.32-4.98ZM248.91,187.66c.23.12.47.23.7.36-.06,2.14-.12,4.31-.16,6.45-.04,2.02-.1,4.03-.02,6.05.01.41.59.82.91,1.22.45-.37.91-.75,1.34-1.16.09-.09.04-.3.05-.45.18-4.03.4-8.05.5-12.08.02-.98-.25-2-.63-2.93-.47-1.16-1.38-1.51-2.67-1.1-3.22,1.01-5.59,2.96-7.24,5.65-.21.33-.23,1.12-.03,1.22.43.24,1.19.38,1.59.18,1.05-.51,1.96-1.24,2.96-1.85.89-.55,1.81-1.04,2.72-1.57ZM312.69,259.24c.02.26.04.51.05.77.92-.03,1.85-.03,2.75-.12,7.55-.76,15.11-1.54,22.65-2.35.38-.04.72-.42,1.08-.64-9.05-.24-17.82.8-26.54,2.35ZM198.56,205.92c-2.98-.55-5.8.47-8.68.82-2.91.34-5.91.49-8.46,2.11,5.63-1.45,11.79-.06,17.14-2.92ZM208.43,263.67c-3.27-.28-6.51.04-9.74.29-6.58.52-7.96.82-9.5,2.02,6.55-1,12.98-.88,19.23-2.31ZM191.44,217.51c0-.24,0-.48,0-.71-3.3-.43-6.6-.25-10.07.04.37,1.39,1.34,1.41,2.27,1.38,2.14-.09,4.28-.21,6.41-.37.46-.02.92-.21,1.39-.33ZM288.08,201.16c-4.82-.06-9.64-.03-14.44.51-.2.02-.36.38-.79.87,5.36-.12,10.31-.44,15.22-1.38ZM195.16,241.52c-2.1.09-4.2.05-6.29.28-2.07.21-4.28-.08-6.21.9,3.42.55,10.83.05,12.5-1.17ZM275.3,231.27c2.06.82,4.08.43,6.03.14,1.18-.18.54-1.01.42-1.62-3.23.19-4.84.54-6.46,1.47ZM199.36,271.58c2.48.46,9.11-.09,10.53-.87-2.78-.52-9.03,0-10.53.87ZM324.53,200.21c3.85.49,8.45,0,10.13-1.25-3.76.11-6.95.43-10.13,1.25ZM340.84,246.09c-3.14-.51-6.24-.22-9.31.48,2.43.74,6.72.57,9.31-.48ZM187.88,227.98c-2.56-.85-4.85.1-7.73.94,3.24,1.5,5.35-.61,7.73-.94ZM331.89,223.14c.04.3.07.61.11.91,2.65-.51,5.4-.27,8-1.2-.03-.18-.05-.36-.07-.53-2.67.28-5.36.54-8.03.82ZM211.25,205.08c.02.25.03.5.06.76,2.03-.3,4.25.5,6.03-1.47-2.03.23-4.06.48-6.1.72ZM192.67,255.63c-2.24-.36-4.39-.19-6.43.74,2.2.15,4.36,0,6.43-.74ZM261.37,181.37c2.42.64,4.14.55,6.32-.27-2.38-.59-4.36-.49-6.32.27ZM296.37,260.75c-.22-.16-.62-.71-1.11-.78-.74-.11-1.76,1.08-1.55,1.81.13.43.61.94,1.07,1.1.76.25,1.56-.69,1.59-2.12ZM337.59,236.23c2.23,1.44,3.91,1.26,5.92.09-2.01-.87-3.69-.37-5.92-.09ZM221.08,221.55c2.18.66,4.55.21,5.92-1.05-2.24.4-4.08.71-5.92,1.05ZM183.25,212.02c-1.53-.65-3.63-.39-5.29.72,1.94.14,3.63.1,5.29-.72ZM185.64,249.6c-1.56-.08-3.17-.47-4.97.7,2.08.94,3.5-.21,4.97-.7ZM184.45,263.54c-2.05-1.06-2.5-1.01-3.97.15,1.46-.05,2.71-.1,3.97-.15ZM275.27,195.14c2.27.35,2.84.22,4.75-.85-1.76,0-3.34-.08-4.75.85ZM199.25,266.8c0,.18,0,.37,0,.55,1.19.12,2.41.55,3.84-.69-1.56.05-2.71.1-3.84.15ZM185.8,239.46c1.41-.06,2.82-.11,4.23-.16-1.43-1.07-2.79-.66-4.23.16ZM190.62,229.84c1.47-.2,3.05,1.18,4.71-.46-1.8-.61-3.24.26-4.71.46ZM242.58,201.27c-1.83-1.07-2.42-1.05-3.74.14,1.29-.05,2.38-.09,3.74-.14ZM245.74,180.31c.03.18.07.35.1.52q2.43.19,3.75-.97c-1.52.17-2.69.31-3.85.44ZM212.18,265.82c.01.23.03.46.05.7,1.1-.04,2.26.27,3.82-.85-1.68.06-2.78.12-3.87.15ZM190.33,221.68c1.94,1.36,2.1,1.33,3.49-.13-1.03.05-1.97.08-3.49.13ZM222.68,243.59c.05.18.09.36.14.55.9-.14,1.93.28,3.12-1.04-1.46.22-2.36.35-3.26.49ZM328.38,262.27q1.97.26,3.03-.78c-1.15.06-2.26-.4-3.03.78ZM311.34,211.85c-.05-.19-.11-.39-.16-.59-.94.09-2-.16-3.01,1.2,1.35-.26,2.26-.43,3.17-.61ZM338.29,264.51c-.98-1.05-1.78-.43-2.61.1.87-.04,1.74-.06,2.61-.1ZM223.29,225.2c-.57.12-1.14.24-1.92.41.96,1.13,1.53.76,1.92-.41ZM342.79,206.17c-.06-.18-.12-.37-.17-.55-.69.15-1.38.3-2.34.51,1.26,1.08,1.86.43,2.52.03ZM275.5,188.23c.07.23.14.46.22.69.72-.22,1.43-.44,2.15-.65-.06-.16-.11-.32-.16-.49-.74.15-1.47.3-2.21.45ZM340.84,233.12c-.03-.19-.05-.4-.08-.59-.68.15-1.36.29-2.05.44.04.18.09.36.13.53.67-.13,1.33-.25,1.99-.38ZM305.81,202.16c.08.26.17.51.25.76.43-.18.87-.35,1.3-.54.03-.02-.08-.38-.11-.39-.48.04-.96.11-1.44.16ZM327.17,265.93c-.03-.14-.06-.27-.09-.4-.45.08-.9.16-1.34.24.03.15.06.29.09.42.45-.08.89-.17,1.34-.26ZM266.09,185.17c-.02-.17-.06-.34-.08-.51-.38.07-.76.14-1.14.21.01.12.03.23.04.34.4,0,.78-.02,1.17-.04ZM309.51,246.41c.04-.11.09-.22.14-.33-.18-.11-.36-.32-.55-.33-.23-.02-.47.13-.72.21.01.11.03.21.05.31.35.05.72.1,1.08.14ZM279.78,223.14c-.02-.15-.04-.3-.06-.46-.43.06-.86.12-1.28.18,0,.1.03.21.03.33.44-.02.88-.04,1.31-.06ZM279.62,238.01c.02.1.03.21.05.31.28.03.58.12.83.06.28-.07.51-.28,1.02-.59-.64-.06-.89-.12-1.12-.07-.27.05-.52.18-.78.28ZM245.65,194.46c-.34-.09-.57-.23-.75-.18-.16.04-.27.28-.4.43.2.09.41.25.59.22.17-.02.32-.24.55-.46Z"/>
    <path class="cls-5" d="M305.52,280.32c-1.04-2.31-.5-3.63,2.28-5.76-.38,2.12-.66,3.97-2.28,5.76Z"/>
    <path class="cls-5" d="M304.3,124.85c-.82.03-1.29.05-2.05.07.35-1.34.65-2.48.95-3.63.22.02.43.03.65.03.14,1.09.29,2.18.45,3.53Z"/>
    <path class="cls-3" d="M325.07,109.58c1.11.45,1.91.68,2.6,1.08,1.5.86,2.69,2.02,2.4,3.77-.3,1.79-1.47,3.1-3.39,3.75-1.69.58-2.4.13-2.41-1.52-.01-.93.11-1.85.21-2.77.16-1.3.35-2.59.59-4.31ZM325.95,117.06c2.76-1.92,2.86-3.35.46-4.75-.15,1.54-.29,2.95-.46,4.75Z"/>
    <path class="cls-3" d="M283.32,133.14c-.1-.13-.29-.25-.28-.38.18-2.61.34-5.23.64-7.84.11-.98.94-1.27,1.89-.86,1.62.71,2.8,3.71,2.26,5.78-.51,1.99-2.28,3.27-4.52,3.3ZM284.89,130.73c.24,0,.48.01.72,0,1.03-1.63.97-3.21-.65-4.68-.03,1.56-.05,3.11-.08,4.68Z"/>
    <path class="cls-3" d="M283.33,113.6c-.48-2.7,0-5.17.49-7.68,3.1.7,4.85,2.67,4.54,4.92-.25,1.87-2.01,2.89-5.04,2.76ZM285.29,108c-.26,1.42-.81,2.69-.14,4.07,2.1-1.07,2.14-2.14.14-4.07Z"/>
    <path class="cls-3" d="M292.52,219.94c.14,3.53.15,6.79.42,10.03.34,4.03.92,8.04,1.36,12.06.17,1.47.31,2.94.4,4.42.07,1.16.67,1.84,1.9,2.18.89.26,1.88.49,2.55,1.02.55.44.92,1.3.96,1.99.05.87-.87,1.02-1.68,1.08-3.42.23-6.84.51-10.26.68-.7.03-1.91-.18-2.03-.52-.24-.73.04-1.62.2-2.43.05-.25.39-.61.67-.67,2.8-.65,2.38-2.61,2.26-4.47-.54-8.7-1.33-17.38-2.75-26.01-.41-2.45-.47-4.96-.61-7.43-.13-2.63-.18-2.71-3.12-2.62-2.52.07-3.4-.92-2.69-2.96.33-.97.97-1.31,2.08-1.35,3.5-.1,7-.34,10.51-.45,2.69-.08,4.74.63,6.43,2.9,6.16,8.21,12.06,16.58,19.21,24.13.44.46.91.89,1.46,1.44.18-.34.38-.54.37-.72-.52-7.22-1.04-14.44-1.59-21.67-.14-1.78-.74-3.28-2.82-4.06-.62-.25-1.22-1.17-1.27-1.82-.07-.94,1.03-1.05,1.87-1.25,3.9-.97,7.84-.52,11.76-.24.96.06,1.87.5,2,1.52.14,1.11-.84,1.43-1.73,1.73-2.3.79-2.29.78-2.2,2.67.37,7.85.7,15.71,1.1,23.55.15,3.19.51,6.37.59,9.56.06,2.41-.18,4.83-.31,7.24-.01.38-.11.78-.21,1.15-.61,2.13-2.67,2.9-4.44,1.47-2.6-2.11-5.13-4.32-7.45-6.69-3.87-3.93-7.61-7.98-11.28-12.06-3.88-4.33-7.63-8.75-11.67-13.39ZM316.34,204.88c.7.44.97.62,1.25.77,1.85.98,2.83,2.34,2.62,4.41-.11,1.15.15,2.32.22,3.48.41,6.69.82,13.37,1.17,20.07.03.54-.38,1.09-.59,1.64-.57-.24-1.29-.34-1.69-.73-5.61-5.55-10.77-11.41-15.21-17.81-2.23-3.21-4.86-6.17-7.34-9.23-.67-.81-1.48-1.46-2.78-1.4-3.24.12-6.49.16-9.73.3-.95.04-2.08-.18-2.76.77.37,1.31,1.3.72,2.08.65,2.41-.25,3.06.14,3.58,2.31.31,1.29.45,2.61.59,3.92.42,4.11.76,8.23,1.19,12.33.73,7.06,1.53,14.09,2.24,21.14.18,1.8.02,1.9-1.81,2.59-.08.03-.16.03-.25.06-.76.17-1.3.53-1.07,1.3.21.73.85.86,1.62.78,2.47-.22,4.96-.4,7.43-.62.46-.03.9-.23,1.5-.39-.85-1.38-2.24-1.38-3.42-1.63-.99-.21-1.45-.65-1.57-1.55-.25-1.85-.63-3.69-.84-5.55-.37-3.25-.69-6.5-.93-9.76-.33-4.41-.59-8.84-.84-13.27-.04-.64.2-1.3.41-2.57.99.98,1.57,1.49,2.06,2.05.48.55.83,1.19,1.32,1.71,2.5,2.65,5.1,5.23,7.53,7.93,5.09,5.64,10.03,11.39,15.17,16.99,1.68,1.83,3.71,3.41,5.66,5.02,1.43,1.18,2.56.95,2.88-.76.34-1.8.35-3.7.27-5.55-.28-6.37-.69-12.73-1-19.11-.26-5.2-.2-10.44-.78-15.61-.25-2.26.24-3.7,2.86-5.07-3.89.15-7.17.28-11.03.43Z"/>
    <path class="cls-3" d="M230.84,212.21c-1.37.06-2.3.12-3.23.12-1.58-.02-2.41-.67-2.42-1.83-.02-1.54.79-2.4,2.35-2.47,3.5-.18,7-.37,10.51-.48,2.69-.08,4.72.64,6.42,2.9,6.11,8.13,11.95,16.46,19.03,23.95.43.45.92.88,1.72,1.63.16-.89.37-1.45.33-1.98-.54-6.99-1.11-13.97-1.71-20.95-.13-1.43-.65-2.72-2.35-3.32-.52-.18-.99-.6-1.36-1.02-.76-.85-.57-1.69.56-2.02,1.3-.37,2.67-.69,4.02-.73,2.65-.06,5.31.06,7.97.12.34,0,.76-.02,1,.15.64.43,1.5.88,1.72,1.48.34.89-.62,1.32-1.44,1.64-2.57,1.01-2.48,1-2.34,3.5.37,7.22.68,14.47,1.01,21.69.17,3.74.41,7.47.49,11.21.04,2.33-.04,4.68-.31,6.99-.34,3.08-2.54,3.97-5.02,1.99-2.49-1.99-4.85-4.15-7.05-6.41-3.85-3.94-7.61-7.97-11.28-12.04-3.62-4.03-7.09-8.15-10.63-12.23-.25-.28-.53-.53-.81-.8-.16.15-.27.21-.26.25.52,6.36.08,12.77,1.45,19.07.48,2.2.63,4.47.81,6.72.11,1.38.81,2.11,2.24,2.44.73.17,1.45.49,2.12.82.91.47,1.41,1.32,1.03,2.16-.23.48-1.15.92-1.8.98-3.32.32-6.66.52-9.99.73-.92.06-1.96.2-2.43-.83-.33-.71.38-2.39,1.24-2.88.64-.37,1.36-.64,2.18-1.01-.05-13.23-2.57-26.23-3.76-39.55ZM239.37,252.24c-2.5-8.98-3.99-28.58-2.26-31.95.63.64,1.19,1.16,1.69,1.72.48.55.84,1.17,1.34,1.7,2.34,2.47,4.77,4.87,7.04,7.39,5.19,5.76,10.25,11.63,15.5,17.35,1.73,1.89,3.82,3.52,5.83,5.19,1.39,1.15,2.4.8,2.92-.87.12-.37.23-.77.21-1.15-.11-2.16-.29-4.31-.37-6.48-.23-5.99-.36-11.99-.65-17.98-.26-5.36-.69-10.71-.99-16.07-.04-.5.16-1.09.47-1.51.49-.68,1.16-1.26,2.11-2.25-3.56.77-6.83-.15-10.33.64.48.37.66.54.87.64,2.06,1.03,2.87,2.52,2.9,4.76.03,4.11.53,8.22.79,12.35.22,3.57.42,7.16.54,10.74.01.6-.46,1.22-.7,1.84-.57-.26-1.28-.4-1.68-.8-5.57-5.47-10.65-11.31-15.06-17.62-2.28-3.27-4.96-6.3-7.49-9.44-.95-1.18-2.19-1.47-3.83-1.25-1.92.27-3.92.19-5.88.25-1.45.04-2.92.01-4.36.11-.4.03-.77.43-1.71.99,1.12.18,1.65.4,2.12.32,3.41-.6,3.89.7,4.3,3.18.03.22.06.46.08.69.34,3.96.61,7.92,1.05,11.88.86,7.82,1.83,15.63,2.7,23.44.25,2.22.18,2.25-2.07,3.09-.69.25-1.33.49-1.05,1.3.23.7.8.9,1.6.82,2.47-.24,4.95-.4,7.42-.64.43-.05.83-.31,1.34-.52-.29-.34-.4-.61-.6-.67-1.2-.41-2.41-.76-3.78-1.19Z"/>
    <path class="cls-2" d="M245.3,262.35c-2.88.07-5.19,2.16-8.55,1.76.57-.73.83-1.37,1.33-1.62,2.19-1.07,4.37-2.2,6.7-2.93,2.57-.81,3.92.24,3.94,2.72.01.93-.08,1.87-.25,2.79-.18.91-.52,1.79-.93,3.15,1.68-.9,3.53-.72,5.18.13.43.23.92-1.21,1.66-1.43,1.53,1.44-.23,3,.27,4.57.96-.24.96-1,1.19-1.59.34-.88.59-1.8,1.02-2.64.17-.32.75-.45,1.14-.67.19.32.53.63.54.95.05,1.21,0,2.44.44,3.78.56-.99,1.08-2,1.71-2.96,1.41-2.13,2.64-2.38,5.4-.94.72-1.77,1.44-3.48,2.12-5.21.38-.96.67-1.94,1.01-2.9.22-.63.58-1.34,1.37-1.02.43.18.74,1.01.73,1.53-.02.84-.33,1.68-.53,2.51-.21.91-.43,1.82-.69,2.9,2.95.79,3.5,2.9,3.49,5.39.61.32,1.24.64,1.88.98-.06.31-.02.61-.16.73-.5.4-1.02.87-1.62,1.11-1.96.77-3.14.01-3.12-1.96,0-.85.02-1.7,0-2.56,0-.12-.17-.23-.3-.39-1.08.26-.91,1.18-1.16,1.86-.3.81-.48,1.67-.85,2.44-.13.26-.71.55-1,.51-.3-.06-.66-.49-.73-.82-.14-.57-.08-1.19-.53-1.87-.21.78-.52,1.54-.64,2.33-.29,1.93-.47,3.88-.75,5.81-.11.77-.29,1.54-.53,2.28-.34,1.04-.6,2.2-2.15,2.31-1.09.07-2.54-1.04-2.74-2.42-.16-1.09.06-2.3.4-3.39.42-1.32,1.15-2.56,1.82-3.99-1.56-.4-3.3,1.12-4.17-.65-3.25,1.48-3.99,1.36-5.2-.71-1.02.53-1.98,1.22-3.08,1.54-1.48.44-2.11-.61-2.67-2.14-.72,1.96-1.26,3.51-1.86,5.04-.33.85-.55,2.17-1.85,1.84-1.55-.38-.77-1.65-.5-2.57.88-2.86,1.89-5.68,2.75-8.54.49-1.62,1.06-3.26.43-5.05ZM262.84,276.67c-1.5,1.93-1.55,2.26-.8,4.53.33-1.83.57-3.18.8-4.53ZM262.37,271.67c1.02-1.13,1.53-1.88,1.1-3.09-1.25.76-1.48,1.6-1.1,3.09ZM248.74,271.15c.22.09.43.18.65.27.22-.5.44-1.01.66-1.49-.18-.07-.37-.13-.55-.2-.25.47-.51.94-.77,1.42Z"/>
    <path class="cls-3" d="M199.31,215.55c-1.38-.33-2.61-.61-3.84-.92-1.77-.46-2.37-1.02-2.27-2.06.1-1.05,1.15-2.16,2.47-2.38,1.85-.32,3.72-.58,5.59-.77,2.39-.24,4.77-.49,7.17-.57,2.72-.1,5.46-.13,8.18.02,1.28.07,3.13.08,3.29,1.61.14,1.33-1.4,2.02-2.6,2.62-.74.36-1.58.58-2.44.88-.63,13.24,2.13,26.21,2.28,39.5,2.46.33,4.06,1.52,5.09,3.34.79,1.4.43,2.05-1.3,2.16-6.06.4-12.13.77-18.19,1.14-.17.02-.34.03-.52.03-1.17-.01-2.49.3-3.19-.92-.51-.86.25-2.6,1.46-3.49.46-.34.99-.59,1.57-.95-.05-1.37-.11-2.74-.16-4.3-3.15-.55-6.11.85-9.39.55,1.15-1.78,3.02-.94,4.39-1.36,1.44-.43,3.01-.46,4.69-.67.05-.5.2-1.02.16-1.53-.17-2.65-.36-5.28-.59-7.92-.05-.52-.28-1.02-.46-1.53-.09-.27-.39-.55-.32-.77,1.14-4.16-.13-8.28-.2-12.42-.04-3.02-.56-6.02-.89-9.27ZM220.58,257.56c-.38-1.29-1.39-2.05-2.52-2.15-2.08-.17-2.4-1.34-2.6-2.82-.39-2.93-.96-5.84-1.29-8.79-.39-3.48-.71-6.96-.86-10.45-.14-3.18.01-6.39.02-9.58.02-3.57.02-7.13.03-10.55,1.18-.78,2.13-1.39,3.52-2.3-2.71-.39-4.89-1.03-7.04-.94-3.75.15-7.49.74-11.23,1.19-1.04.13-2.04.43-3.36.71,1.74,1.86,4.02,1.61,6.02,2.5.68,9.58,1.35,19.2,2.05,28.81.22,3.03.49,6.05.71,9.08.13,1.85,1.02,4-2.28,4.52-.33.05-.79.91-.71,1.3.07.33.82.7,1.31.76.75.1,1.54,0,2.31-.06,3.66-.33,7.33-.72,10.99-1.02,1.58-.13,3.18-.14,4.93-.2Z"/>
    <path class="cls-2" d="M256.1,190.25c2.84-1.61,3.71-1.28,4.61,1.69.18.59.34,1.19.59,2.07.31-1.08.4-1.94.81-2.64.63-1.09,1.35-2.19,2.29-3.06,1.02-.95,2.91-.86,3.78-.12.79.69.89,1.78-.06,2.99-.74.93-1.86,1.61-2.69,2.49-.39.41-.5,1.04-.73,1.56.6.1,1.21.24,1.81.31.54.07,1.09.08,1.64.12-.1.56-.04,1.22-.35,1.68-.99,1.46-2.58,1.66-4.18.55-.66-.46-1.21-1.05-1.97-1.74-.21.72-.25,1.35-.58,1.82-.28.38-.9.71-1.4.74-.29.02-.83-.57-.9-.94-.2-1.15-.23-2.33-.33-3.49-.03-.31-.09-.61-.2-1.27-.45.5-.87.76-.93,1.06-.23,1.15-.34,2.32-.52,3.48-.09.54-.07,1.16-.38,1.58-.39.53-1.04,1.2-1.62,1.25-1,.08-1.03-.86-1.04-1.56-.1-4.91-.2-9.81-.24-14.71,0-.77.1-1.59.42-2.28.17-.38.88-.68,1.39-.75.21-.03.75.64.76,1.01.04,2.11-.03,4.21-.04,6.3,0,.61.04,1.21.06,1.86Z"/>
    <path class="cls-2" d="M229.33,261.44c1.45,1.87.34,3.44.32,4.99.09.13.14.3.27.37.75.44,1.97.54,1.82,1.67-.16,1.16-1.46.85-2.25,1.2-.15.07-.29.15-.56.27-.57,1.53-1.19,3.12.24,4.92.64-.57,1.1-1.13,1.71-1.48.41-.23,1.19-.38,1.52-.18.36.24.61.94.51,1.36-.66,2.52-3.04,3.47-5.63,2.34-.15-.06-.32-.09-.72-.19-1.18,1.31-2.64,1.66-4.34.49-.26-.18-.93.13-1.41.22-1.7.28-2.97-.43-3.12-1.95-.18-1.92.37-3.7,1.97-5.11.86-.75,1.9-1.02,3.07-.85,1.76.27,2.1.69,2,2.33-.06,1.03-.06,2.04.08,3.06,1.48-2.54,1.39-4.33-.11-6.09.07-.2.09-.54.25-.6,2.2-.99,2.51-2.99,3.23-4.79.25-.6.67-1.15,1.15-1.97ZM222.42,272.1c-.2-.14-.41-.28-.61-.42-.68.55-1.36,1.08-1.12,2.71.79-1.04,1.26-1.67,1.73-2.29Z"/>
    <path class="cls-2" d="M248.91,187.66c-.91.54-1.83,1.03-2.72,1.57-1,.61-1.91,1.34-2.96,1.85-.4.2-1.17.06-1.59-.18-.2-.1-.18-.89.03-1.22,1.65-2.69,4.02-4.64,7.24-5.65,1.29-.41,2.21-.06,2.67,1.1.38.92.66,1.95.63,2.93-.1,4.03-.32,8.06-.5,12.08,0,.15.04.37-.05.45-.42.41-.89.78-1.34,1.16-.32-.4-.89-.81-.91-1.22-.07-2.01-.01-4.03.02-6.05.04-2.15.1-4.31.16-6.45-.23-.12-.47-.23-.7-.36Z"/>
    <path class="cls-3" d="M312.69,259.24c8.72-1.55,17.49-2.58,26.54-2.35-.36.23-.7.61-1.08.64-7.55.81-15.1,1.59-22.65,2.35-.91.09-1.84.09-2.75.12-.01-.26-.03-.51-.05-.77Z"/>
    <path class="cls-3" d="M198.56,205.92c-5.34,2.87-11.51,1.47-17.14,2.92,2.55-1.61,5.56-1.77,8.46-2.11,2.88-.34,5.7-1.37,8.68-.82Z"/>
    <path class="cls-3" d="M208.43,263.67c-6.26,1.43-12.69,1.31-19.23,2.31,1.53-1.2,2.92-1.5,9.5-2.02,3.23-.25,6.47-.57,9.74-.29Z"/>
    <path class="cls-3" d="M191.44,217.51c-.47.12-.93.31-1.39.33-2.13.16-4.27.28-6.41.37-.93.03-1.89.02-2.27-1.38,3.47-.29,6.77-.47,10.07-.04,0,.23,0,.47,0,.71Z"/>
    <path class="cls-3" d="M288.08,201.16c-4.91.94-9.86,1.26-15.22,1.38.43-.49.59-.85.79-.87,4.8-.54,9.61-.57,14.44-.51Z"/>
    <path class="cls-3" d="M195.16,241.52c-1.67,1.22-9.08,1.73-12.5,1.17,1.93-.98,4.14-.68,6.21-.9,2.08-.22,4.19-.19,6.29-.28Z"/>
    <path class="cls-3" d="M275.3,231.27c1.61-.93,3.22-1.28,6.46-1.47.12.61.76,1.44-.42,1.62-1.95.29-3.97.67-6.03-.14Z"/>
    <path class="cls-3" d="M199.36,271.58c1.5-.86,7.75-1.39,10.53-.87-1.41.78-8.05,1.33-10.53.87Z"/>
    <path class="cls-3" d="M324.53,200.21c3.18-.82,6.37-1.14,10.13-1.25-1.68,1.24-6.28,1.74-10.13,1.25Z"/>
    <path class="cls-3" d="M340.84,246.09c-2.59,1.05-6.89,1.22-9.31.48,3.07-.7,6.17-.99,9.31-.48Z"/>
    <path class="cls-3" d="M187.88,227.98c-2.38.33-4.49,2.44-7.73.94,2.88-.84,5.17-1.79,7.73-.94Z"/>
    <path class="cls-3" d="M331.89,223.14c2.67-.28,5.36-.54,8.03-.82.02.17.04.35.07.53-2.6.93-5.35.69-8,1.2-.04-.3-.07-.61-.11-.91Z"/>
    <path class="cls-3" d="M211.25,205.08c2.03-.24,4.06-.49,6.1-.72-1.78,1.97-4,1.17-6.03,1.47-.03-.26-.05-.51-.06-.76Z"/>
    <path class="cls-3" d="M192.67,255.63c-2.08.75-4.24.89-6.43.74,2.05-.93,4.2-1.1,6.43-.74Z"/>
    <path class="cls-3" d="M261.37,181.37c1.97-.77,3.94-.86,6.32-.27-2.19.82-3.9.91-6.32.27Z"/>
    <path class="cls-2" d="M296.37,260.75c-.03,1.43-.83,2.38-1.59,2.12-.46-.15-.94-.67-1.07-1.1-.21-.73.81-1.92,1.55-1.81.49.07.89.62,1.11.78Z"/>
    <path class="cls-3" d="M337.59,236.23c2.23-.28,3.91-.77,5.92.09-2.01,1.16-3.69,1.35-5.92-.09Z"/>
    <path class="cls-3" d="M221.08,221.55c1.84-.34,3.68-.65,5.92-1.05-1.37,1.26-3.74,1.71-5.92,1.05Z"/>
    <path class="cls-3" d="M183.25,212.02c-1.66.82-3.35.86-5.29.72,1.66-1.11,3.76-1.37,5.29-.72Z"/>
    <path class="cls-3" d="M185.64,249.6c-1.47.49-2.89,1.64-4.97.7,1.8-1.17,3.41-.78,4.97-.7Z"/>
    <path class="cls-3" d="M184.45,263.54c-1.26.05-2.51.1-3.97.15,1.46-1.16,1.92-1.21,3.97-.15Z"/>
    <path class="cls-3" d="M275.27,195.14c1.41-.93,2.99-.86,4.75-.85-1.9,1.08-2.48,1.2-4.75.85Z"/>
    <path class="cls-3" d="M199.25,266.8c1.14-.05,2.28-.09,3.84-.15-1.43,1.24-2.66.81-3.84.69,0-.18,0-.37,0-.55Z"/>
    <path class="cls-3" d="M185.8,239.46c1.44-.82,2.8-1.23,4.23-.16-1.41.05-2.82.1-4.23.16Z"/>
    <path class="cls-3" d="M190.62,229.84c1.47-.2,2.91-1.07,4.71-.46-1.66,1.64-3.24.26-4.71.46Z"/>
    <path class="cls-3" d="M242.58,201.27c-1.36.05-2.44.09-3.74.14,1.32-1.19,1.9-1.21,3.74-.14Z"/>
    <path class="cls-3" d="M245.74,180.31c1.16-.13,2.33-.27,3.85-.44q-1.32,1.16-3.75.97c-.04-.18-.07-.35-.1-.52Z"/>
    <path class="cls-3" d="M212.18,265.82c1.1-.04,2.19-.09,3.87-.15-1.56,1.12-2.72.81-3.82.85-.02-.24-.03-.47-.05-.7Z"/>
    <path class="cls-3" d="M190.33,221.68c1.52-.06,2.46-.09,3.49-.13-1.39,1.47-1.56,1.49-3.49.13Z"/>
    <path class="cls-3" d="M222.68,243.59c.9-.14,1.8-.27,3.26-.49-1.19,1.32-2.23.9-3.12,1.04-.05-.19-.09-.37-.14-.55Z"/>
    <path class="cls-3" d="M328.38,262.27c.77-1.17,1.88-.71,3.03-.78q-1.07,1.04-3.03.78Z"/>
    <path class="cls-3" d="M311.34,211.85c-.91.18-1.82.35-3.17.61,1.01-1.37,2.07-1.12,3.01-1.2.06.2.11.4.16.59Z"/>
    <path class="cls-3" d="M338.29,264.51c-.88.04-1.74.06-2.61.1.84-.53,1.64-1.16,2.61-.1Z"/>
    <path class="cls-3" d="M223.29,225.2c-.39,1.17-.96,1.55-1.92.41.78-.18,1.35-.29,1.92-.41Z"/>
    <path class="cls-3" d="M342.79,206.17c-.65.39-1.26,1.05-2.52-.03.97-.21,1.65-.37,2.34-.51.06.18.12.37.17.55Z"/>
    <path class="cls-3" d="M275.5,188.23c.74-.15,1.47-.3,2.21-.45.05.17.11.33.16.49-.72.21-1.44.43-2.15.65-.08-.23-.15-.46-.22-.69Z"/>
    <path class="cls-3" d="M340.84,233.12c-.66.12-1.32.25-1.99.38-.04-.18-.09-.36-.13-.53.68-.15,1.36-.29,2.05-.44.03.19.05.4.08.59Z"/>
    <path class="cls-3" d="M305.81,202.16c.48-.05.96-.12,1.44-.16.02,0,.14.37.11.39-.43.19-.86.36-1.3.54-.08-.26-.17-.51-.25-.76Z"/>
    <path class="cls-3" d="M327.17,265.93c-.45.09-.9.18-1.34.26-.03-.13-.06-.28-.09-.42.45-.07.89-.16,1.34-.24.03.13.06.26.09.4Z"/>
    <path class="cls-3" d="M266.09,185.17c-.39.02-.78.03-1.17.04-.01-.11-.03-.22-.04-.34.38-.07.76-.14,1.14-.21.02.17.06.34.08.51Z"/>
    <path class="cls-3" d="M309.51,246.41c-.36-.04-.72-.09-1.08-.14-.02-.1-.04-.2-.05-.31.24-.08.48-.23.72-.21.19,0,.37.21.55.33-.05.11-.1.22-.14.33Z"/>
    <path class="cls-3" d="M279.78,223.14c-.44.02-.87.04-1.31.06,0-.11-.02-.22-.03-.33.43-.07.86-.12,1.28-.18.02.15.04.3.06.46Z"/>
    <path class="cls-3" d="M279.62,238.01c.26-.1.51-.24.78-.28.23-.04.48.02,1.12.07-.51.31-.74.52-1.02.59-.25.06-.55-.03-.83-.06-.02-.1-.03-.21-.05-.31Z"/>
    <path class="cls-3" d="M245.65,194.46c-.24.22-.38.44-.55.46-.18.03-.4-.13-.59-.22.13-.15.23-.39.4-.43.18-.05.41.09.75.18Z"/>
    <path class="cls-5" d="M325.95,117.06c.17-1.8.31-3.21.46-4.75,2.39,1.4,2.3,2.83-.46,4.75Z"/>
    <path class="cls-5" d="M284.89,130.73c.02-1.56.05-3.12.08-4.68,1.62,1.48,1.68,3.05.65,4.68-.24,0-.48,0-.72,0Z"/>
    <path class="cls-5" d="M285.29,108c2,1.93,1.96,3-.14,4.07-.67-1.38-.12-2.65.14-4.07Z"/>
    <path class="cls-2" d="M316.34,204.88c3.86-.15,7.14-.28,11.03-.43-2.61,1.37-3.11,2.8-2.86,5.07.58,5.18.52,10.42.78,15.61.31,6.38.72,12.74,1,19.11.08,1.85.07,3.75-.27,5.55-.32,1.71-1.45,1.95-2.88.76-1.95-1.61-3.98-3.19-5.66-5.02-5.14-5.59-10.08-11.35-15.17-16.99-2.43-2.7-5.03-5.28-7.53-7.93-.5-.52-.85-1.16-1.32-1.71-.5-.56-1.07-1.07-2.06-2.05-.21,1.27-.45,1.93-.41,2.57.24,4.43.5,8.86.84,13.27.25,3.26.57,6.51.93,9.76.2,1.86.58,3.7.84,5.55.12.9.58,1.34,1.57,1.55,1.18.25,2.57.25,3.42,1.63-.6.16-1.04.36-1.5.39-2.47.23-4.95.4-7.43.62-.77.08-1.41-.04-1.62-.78-.22-.77.31-1.13,1.07-1.3.09-.03.17-.03.25-.06,1.84-.7,2-.8,1.81-2.59-.71-7.05-1.51-14.08-2.24-21.14-.43-4.1-.77-8.22-1.19-12.33-.14-1.31-.28-2.63-.59-3.92-.52-2.17-1.17-2.56-3.58-2.31-.78.07-1.71.66-2.08-.65.67-.95,1.8-.73,2.76-.77,3.24-.14,6.49-.17,9.73-.3,1.3-.06,2.11.6,2.78,1.4,2.49,3.06,5.12,6.03,7.34,9.23,4.44,6.4,9.6,12.26,15.21,17.81.4.39,1.12.5,1.69.73.21-.55.63-1.1.59-1.64-.35-6.69-.76-13.38-1.17-20.07-.07-1.17-.33-2.34-.22-3.48.21-2.07-.77-3.42-2.62-4.41-.28-.15-.54-.33-1.25-.77Z"/>
    <path class="cls-2" d="M239.37,252.24c1.37.43,2.58.78,3.78,1.19.2.06.31.34.6.67-.51.21-.91.48-1.34.52-2.47.25-4.95.41-7.42.64-.8.08-1.37-.12-1.6-.82-.28-.81.36-1.04,1.05-1.3,2.25-.85,2.32-.88,2.07-3.09-.87-7.81-1.84-15.62-2.7-23.44-.43-3.95-.7-7.91-1.05-11.88-.02-.23-.04-.47-.08-.69-.41-2.47-.89-3.78-4.3-3.18-.47.08-1.01-.14-2.12-.32.94-.57,1.31-.96,1.71-.99,1.45-.1,2.91-.07,4.36-.11,1.96-.06,3.95.01,5.88-.25,1.64-.22,2.88.06,3.83,1.25,2.53,3.13,5.2,6.17,7.49,9.44,4.42,6.31,9.5,12.14,15.06,17.62.4.4,1.11.54,1.68.8.24-.62.71-1.24.7-1.84-.12-3.58-.32-7.17-.54-10.74-.26-4.12-.75-8.24-.79-12.35-.02-2.24-.83-3.73-2.9-4.76-.22-.1-.39-.27-.87-.64,3.49-.79,6.76.13,10.33-.64-.95.99-1.62,1.56-2.11,2.25-.31.43-.51,1.01-.47,1.51.31,5.36.73,10.7.99,16.07.29,5.99.42,11.99.65,17.98.08,2.16.26,4.32.37,6.48.02.38-.09.78-.21,1.15-.52,1.67-1.54,2.02-2.92.87-2.01-1.67-4.1-3.3-5.83-5.19-5.25-5.72-10.31-11.59-15.5-17.35-2.28-2.51-4.71-4.92-7.04-7.39-.49-.53-.86-1.16-1.34-1.7-.5-.56-1.06-1.08-1.69-1.72-1.73,3.37-.25,22.97,2.26,31.95Z"/>
    <path class="cls-5" d="M262.84,276.67c-.24,1.35-.48,2.7-.8,4.53-.75-2.27-.7-2.6.8-4.53Z"/>
    <path class="cls-5" d="M262.37,271.67c-.38-1.49-.15-2.33,1.1-3.09.42,1.21-.09,1.96-1.1,3.09Z"/>
    <path class="cls-2" d="M248.74,271.15c.26-.48.52-.95.77-1.42.18.07.37.13.55.2-.22.49-.44.99-.66,1.49-.22-.09-.44-.18-.65-.27Z"/>
    <path class="cls-2" d="M220.58,257.56c-1.75.06-3.35.07-4.93.2-3.66.3-7.33.69-10.99,1.02-.77.07-1.56.17-2.31.06-.49-.06-1.24-.43-1.31-.76-.08-.39.38-1.25.71-1.3,3.3-.51,2.41-2.67,2.28-4.52-.23-3.03-.49-6.05-.71-9.08-.69-9.61-1.37-19.24-2.05-28.81-2-.89-4.28-.64-6.02-2.5,1.31-.28,2.32-.58,3.36-.71,3.74-.45,7.48-1.03,11.23-1.19,2.15-.09,4.34.55,7.04.94-1.39.92-2.34,1.53-3.52,2.3,0,3.42-.01,6.98-.03,10.55-.01,3.2-.16,6.4-.02,9.58.15,3.49.47,6.97.86,10.45.33,2.94.9,5.85,1.29,8.79.2,1.49.52,2.65,2.6,2.82,1.13.09,2.14.86,2.52,2.15Z"/>
    <path class="cls-2" d="M222.42,272.1c-.47.63-.94,1.25-1.73,2.29-.24-1.63.44-2.17,1.12-2.71.2.14.4.28.61.42Z"/>
    <g>
      <path class="cls-4" d="M347.91,202.24c-.13-1.26-.72-2.63-1.54-3.63-1.31-1.6-3.11-2.86-4.51-4.41-1.07-1.19-2.24-1.09-3.66-.88-2.28.32-4.58.56-6.87.73-8.63.67-17.26,1.3-25.9,1.97-1.97.15-3.91.57-5.87.62-4.28.15-8.56.09-12.85.22-1.46.05-2.2-.5-2.65-1.68-.57-1.55-1.11-3.12-1.9-4.57-1.62-2.99-3.08-6.13-5.21-8.79-3.31-4.15-8.46-5.96-13.76-7.07-4.48-.95-9.04-.37-13.47.79-2.81.73-5.61,1.56-7.89,3.35-5.97,4.68-9.68,10.49-10.6,17.65-.26,2.05-.45,2.3-2.6,2.42-4.45.23-8.91.4-13.37.65-9.33.52-18.67,1.03-27.99,1.64-3.16.22-6.3.7-9.45,1.12-2.68.36-3.79,1.43-4.52,3.8-1.07,3.47-.73,6.96-.5,10.45.26,4.03.62,8.07.79,12.11.27,6.61.29,13.23.64,19.85.24,4.26.87,8.51,1.38,12.77.19,1.62.41,3.25.81,4.83.22.87.63,1.91,1.34,2.41,2.03,1.4,4.11,2.9,6.44,3.74,4.93,1.77,9.98,3.27,15.05,4.65,5.9,1.59,11.88,2.92,17.83,4.39,4.73,1.16,9.55,1.72,14.44,1.95,3.08.14,6.16.35,9.21.67,4.67.52,9.31,1.25,13.99,1.72,8.51.84,17.06,1.23,26.52.76,5.83.15,12.46-.61,19.05-1.72,3.46-.57,6.93-1.12,10.32-1.95,2.96-.72,5.99-1.51,8.68-2.81,5.62-2.7,11.03-5.76,16.52-8.68,3.04-1.61,6.04-3.28,9.1-4.86,1.77-.91,2.49-2.24,2.55-4.03.08-2.87.22-5.76.39-8.64.25-4.34.61-8.7.8-13.05.18-4.2.23-8.41.29-12.62.07-3.97.22-7.94.07-11.91-.19-4.66-.59-9.32-1.1-13.96ZM346.5,206.22c-.07,2.17-.25,4.34-.4,6.66-1.89.81-3.97.47-5.97.59-1.96.12-3.92.16-5.96.25.58,1.19,1.57,1.44,2.75,1.38,2.23-.09,4.46-.17,6.68-.25.84-.03,1.67-.06,2.52-.09.13.55.29.86.25,1.16-.36,2.51.34,4.97.39,7.47.04,2.57.31,5.14.21,7.7-.21,5.6-.59,11.19-.94,16.78-.05.84-.32,1.67-.53,2.69-2.99.28-5.93.58-9.25.9,1.49,1.47,2.98.81,4.3.77,1.44-.03,2.88-.22,4.23-.34.21.21.41.31.42.44.16,3.57.37,7.15.37,10.72,0,.68-.72,1.59-1.39,2.03-1.93,1.3-3.96,2.49-6.03,3.6-4.6,2.44-9.24,4.83-13.9,7.18-1.72.87-3.51,1.64-5.33,2.3-2.86,1.06-5.77,2.01-8.68,2.97-.51.16-1.04.25-1.59.34l-5.22,1.1-.05-.07c-.22.06-.43.12-.66.16-10.33,1.94-20.81,2.02-31.26,2.08-6.94.03-13.88-.3-20.81-.61-2.38-.11-4.72-.72-7.1-.98-4.49-.5-9.02-.81-13.5-1.39-3.97-.5-7.93-1.16-11.86-1.93-11.48-2.27-22.38-6.25-33.45-9.69-1.61-.5-3.15-1.18-4.74-1.74-1.23-.43-1.93-1.2-2.05-2.41-.12-1.25-.34-2.48-.43-3.72-.49-6.29-.94-12.57-1.39-18.86-.01-.22.08-.45.15-.84,1-.2,2.04-.43,3.29-.69-.95-1.13-2.22-.36-3.36-.88-.07-.42-.24-1-.27-1.59-.15-3.73-.3-7.47-.38-11.2-.07-3.28.75-4.14,4.32-4.64,1.02-.13,2.06-.12,3.07-.25.54-.07,1.06-.3,1.56-.67-2.76-1.28-5.6,0-8.35-.19-.7-1.72-1.23-12.67-.8-16.26,3.83-2.16,8.17-2.72,12.53-3.01,14.21-.92,28.41-1.77,42.62-2.64.76-.05,1.51-.15,2.4-.26.21-1.18.42-2.29.62-3.36,2.09-.64,4.22-.07,6.07-.98-1.79-1.09-3.77-.06-5.73-.55.04-.49.08-.99.14-1.65.9-.03,1.73-.06,2.55-.1.02-.11.05-.22.07-.32-.69-.29-1.39-.57-2.11-.87,1.88-6.14,6.16-10.64,11.7-14.16,1.46-.93,3.53-1.27,5.37-1.45,3.32-.32,6.68-.39,10.02-.43,1.17-.02,2.41.23,3.5.63,7.35,2.68,12.57,7.35,15.44,14.09.87,2.02,1.64,4.08,2.37,6.14.33.95.87,1.41,2,1.41,9.43.02,18.86.06,28.23-1.2.51-.07,1.01-.16,1.53-.18,8.21-.53,16.43-1.06,24.64-1.61.92-.05,1.58.18,2.29.74,2.22,1.72,3.38,4.1,4.62,6.36.52.95.3,2.29.26,3.45Z"/>
      <path class="cls-2" d="M311.77,264.92c0-.11-.21-.22-.56-.55-2.16,1.36-1.67,4.26-4.11,6,.12-2.03.23-3.65.33-5.28-.24-.07-.48-.15-.71-.23-3.02,1.38-1.91,4.58-3.36,7.22-1.38-2.39-1.85-4.46-1.5-6.69,1.32-.83,3.25-.03,4.22-1.47-.52-1.59-2.35-.77-3.21-1.56-.29-1.86,1.5-3.45.86-5.68-.64.43-1.25.64-1.45,1.02-.68,1.26-1.28,2.56-1.77,3.88-.34.91-.8,1.52-1.95,1.52-.42,0-.87.06-1.25.2-.62.24-.67,1.02-.08,1.29.66.28,1.39.45,2.24.72-.96,1.93-1.58,3.78-3.64,5.56.04-1.08.06-1.72.11-2.35.03-.55.26-1.13.12-1.62-.15-.55-.52-1.29-.98-1.44-.41-.12-1.38.35-1.59.77-.89,1.78-2.52,2.94-4,4.24-.55.48-1.19.9-1.87,1.22-1.39.65-2.31.31-2.72-1.07-.89-2.99-1.03-5.98.66-8.86.77-1.31,1.08-1.6,2.87-2.25.11.55.12,1.08.34,1.53.18.37.59.88.93.9.36,0,.93-.44,1.06-.79.35-.95.68-1.94.73-2.93.08-1.53-.98-2.37-2.61-2.06-.96.18-1.94.64-2.74,1.19-5.78,3.95-5.84,10.74-4.35,14.6.9,2.35,2.62,3.24,5.2,2.4,1.97-.65,3.76-1.75,5.88-2.78.81.55,1.61,2.18,3.23,1.6,1.24-.44,2.22-1.5,3.39-2.33.08.24.23.79.44,1.29.72,1.71,1.72,2.11,3.61,1.45.61-.22,1.2-.46,2.4-.91-.55.91-.74,1.36-1.05,1.72-2.58,3.09-2.75,4.18-.74,7.45l4.01-.82c.63-2.43,1.18-4.75,1.9-7.02.26-.83.93-1.61,1.56-2.29.64-.68,1.45-1.21,2.48-2.05-1.1-.39-1.75-.63-2.4-.87.03-1.32.07-2.62.08-3.92ZM305.52,280.32c-1.04-2.31-.5-3.63,2.28-5.76-.38,2.12-.66,3.97-2.28,5.76Z"/>
    </g>
    <path class="cls-5" d="M308.65,278.88s-1.47,2.53-2.64,2.49c-1.16-.04-2.55.06-2.65-.26-.1-.32-.64,1.55-.64,1.55,0,0,5.21-.22,6.64-1.42,1.43-1.19-.72-2.36-.72-2.36Z"/>
    <path class="cls-5" d="M264.26,268.66s-.33-.9-.9-.66c-.56.23-2.84,1.96-2.22,3.47.63,1.49,1.39.95,1.71.6.32-.34,1.41-3.41,1.41-3.41Z"/>
    <path class="cls-5" d="M263.16,275.68s-2.46,2.26-2.32,4.24c.14,1.97.98,2.03,1.08,1.97.1-.06,1.77-5.34,1.24-6.2Z"/>
    <path class="cls-5" d="M250.75,269s-.18.55-.82.52c-.64-.05-1.14-.84-1.14-.84,0,0-1.93,2.12-.92,3.2,1.01,1.09,2.81-.17,3.18-.97.37-.82.45-2.24-.3-1.91Z"/>
    <path class="cls-5" d="M222.18,271.84s-1.14-.44-1.86.61c-.71,1.04-1.25,3.33-.22,3.46,1.03.12,2.47-.87,2.53-1.77.06-.89-.21-2.03-.21-2.03"/>
  </g>
</svg>