<?xml version="1.0" encoding="UTF-8"?>
<svg id="Layer_1" xmlns="http://www.w3.org/2000/svg" viewBox="0 0 400 400">
  <defs>
    <style>
      .cls-1, .cls-2, .cls-3 {
        fill-rule: evenodd;
      }

      .cls-4 {
        fill: #fff;
        font-family: AmericanTypewriter-CondensedBold, 'American Typewriter';
        font-size: 44px;
        font-weight: 700;
      }

      .cls-2 {
        fill: #f5f5f5;
      }

      .cls-3 {
        fill: #1bb24b;
      }
    </style>
  </defs>
  <g>
    <path class="cls-1" d="M349.16,132.45c-1.12,1.45-4.5,1.23-6.87,1.24-5.5,0-11.38.23-16.17.29-14.33.17-28.22-.59-42.11-.54-7.99.02-15.06-.62-23.7-.44-1.12-.1-.6.93-1.57.92-7.9-.78-15.72-.49-22.93-.57-8.64-.1-17.6-.42-26.5-.04-13.01.55-26.3.95-39.36-.14-.19-1.52,2.61-.97,4.59-.98,1.83-.97,5.95-.23,9.11-.36,3.57-.13,7.02-.34,10.11-.32,2.66.02,6.34-.49,9.62-.5.73,0,1.24.36,2,.39.83.03,1.81-.39,2.8-.4,4.19-.02,10.94.62,15.41-.31,20.65-1.25,38.18.07,58.51.58,12.5.31,25.38.23,39.34.29,5.28.02,10.81.5,16.63.53,3.49,0,7.34-.64,11.08.35Z"/>
    <path class="cls-1" d="M341.22,136.71c2.91,1.96,2.25,6.72,2.32,9.05-5.31.26-12.13.72-17.52,1.46-.04,1.78.3,3.93.21,6.45,3.67.32,13.38-2.81,14.35.81.34,1.27-1.27,3.28.42,4.68-2,2.87-8.02,2.13-13.3,3.07-.48,3.61.73,7.13,0,11.15-3.28.8-8.64,2.05-11.82.97-.74-.81.16-2.14-.63-3.06.25-6.82-1.09-15.65-1.48-23.41-.17-3.29-.26-6.81-1.48-9.21,2.12-1.19,5.17-.66,7.81-.81,6.66-.38,13.67-.91,21.1-1.13ZM340.17,138.33c-7.78.88-16.84.62-24.27,1.62-.16,1.28.45,2.42.42,3.87-.02,1.36-.51,2.77-.42,4.2.08,1.25.61,2.47.84,3.71,1.34,7.38.38,14.86,1.68,21.32,2.33.07,5.12.2,6.55-.81-.06.42.08.7.64.65-.43-4.02-.82-7.29-.64-10.98,2.84-2.08,8.55-1.29,12.66-2.58.55-1.75,1.47-3.43.42-5.17-1.87.06-2.73-.07-4.01.49-2.96-.8-6.51,1.25-9.71.32.07-2.66-.64-6.47-.63-8.73,5.63-.85,11.79-1.31,17.31-2.25,0-2.4.55-4.08-.85-5.66Z"/>
    <path class="cls-1" d="M181.45,138.65c1.08,2.63,1.2,5.3,2.95,7.59.76.25.61.36,1.48.65,2.52,4.67,3.02,9.89,6.75,13.56.44-.07.55.11.84.17,1.77-1.19,2.36-3.16,3.17-4.85,2.43-5.02,4.92-10.47,7.81-15.35,1.58,1.61,1.32,4.41,2.75,5.65.16,1.71.66,3.16,1.48,4.37-.59.24.37.66-.22.81,1.12.92.56,3.13,1.91,3.88-.3.2-.22.7-.22,1.13,1.71.97,2.61,3.35,4.64,3.55.27.54-.02,1.52.64,1.77,2.35-.77,2-3.41,2.74-5.17.72-1.71,1.77-3.19,2.54-4.52,1.04-4.05,2.13-8.06,3.8-11.62-.21-.64-.13-1.05.21-1.62,2.16-.07,4.03.27,5.91.81-3.01.76-3.04,3.79-4.22,6.3,0,3.16-1.7,6.2-1.69,9.21-1.36,3.68-3.92,8.02-3.59,11.62.07.72-.24,2.3-.42,2.91-.36,1.19-1.77,2.1-1.47,3.4-7.92-4.01-7.82-14.16-15.63-18.25-1.94.49-2.96,2.17-3.79,3.39-3.37,4.89-6.55,10.26-11.4,14.05-2.61-7.17-4.84-14.42-7.18-22.11-1.17-3.86-1.69-8.28-3.37-11.47,1.74-.09,2.34,0,3.59.17Z"/>
    <path class="cls-1" d="M289.3,139.95c1.44,1.2.18,2.74,0,4.19-.18,1.46.36,2.69.63,4.2,1.08,5.93.09,12.91.85,18.24,5.85.53,14.57-2.15,18.57.65-.15,1.95.48,3.7,0,5.65-8.22,1.63-19.17,1.44-28.28,1.29-.79-2.94-.3-6.21-.21-9.53.18-6.69-.25-14.58-1.06-21.31-.16-1.37-.67-2.65.21-3.87,2.07-1.1,6.8-.09,9.29.49ZM282.76,142.53c-.61.35-1.25-.23-1.48.48,1.17,10.6,1.58,19.49,1.06,29.88,9.77-.66,16.24.1,25.33-1.29.64-2.1-.42-2.76-.63-4.52-1.87-.3-2.18.6-3.38.81-4.7-.04-8.1.82-12.24.32-.49.22.04,1.22-.64,1.29-.82-.17-1.83-.21-2.11-.81-1.33-2.72.36-6.3,0-9.52-.68-6.18-2.16-12.38-2.32-18.4-1.19-.06-2.21-.25-3.59-.17.34.79,0,.89,0,1.94Z"/>
    <path class="cls-1" d="M253,172.08c-2.3.1-7.64-.82-9.92-2.26-2.51-1.58-5.88-5.33-6.54-7.59-.25-.85-.24-1.94-.42-2.9-1.27-6.4.91-14.04,6.33-17.28,3.58-1.41,6.26-3.61,10.76-2.9.87.13,1.49.66,2.32.81,1.09.2,2.17.04,3.17.16,4.85.6,7.59,2.22,10.55,5.01,1.1,1.03,2.56,1.76,3.38,2.75,1.23,1.48,1.68,4.36,1.9,6.29.41,3.7-1.39,7.36-3.38,9.37-1,1-1.57,1.34-2.95,2.42-1.13.89-1.55.91-2.75,1.46-1.31.59-2.49,1.97-4.01,2.58-2.64,1.07-6.14.86-8.44,2.1ZM246.67,142.86c-3.51,2.02-8.14,9.22-8.66,13.4-.3,2.46-.1,5.64,1.05,7.59.38.63,1.3,1.21,1.91,1.94.64.78.92,1.79,1.47,2.26.72.6,2.84,1.63,4.23,1.93,1.03.23,2.51-.09,4.01,0,.99.06,1.75.39,2.53.32.58-.05,1.29-.47,2.11-.64,1.26-.27,2.85-.16,4.01-.49,1.42-.4,3.61-1.73,5.06-2.74,3.44-2.37,7.54-6.26,8.02-10.34.45-3.86-2.06-8.41-4.86-10.82-2.61-2.24-10.35-4.07-14.78-4.03-2.45.02-4.62.75-6.11,1.62Z"/>
    <path class="cls-1" d="M282.76,140.59c1.38-.09,2.4.1,3.59.17.17,6.01,1.64,12.22,2.32,18.4.36,3.23-1.33,6.81,0,9.52.28.6,1.28.64,2.11.81.68-.07.15-1.07.64-1.29,4.14.5,7.54-.36,12.24-.32,1.19-.21,1.51-1.11,3.38-.81.21,1.77,1.27,2.43.63,4.52-9.08,1.39-15.55.64-25.33,1.29.52-10.39.12-19.28-1.06-29.88.23-.72.86-.13,1.48-.48,0-1.05.34-1.15,0-1.94Z"/>
    <path class="cls-1" d="M252.79,141.24c4.43-.03,12.17,1.8,14.78,4.03,2.8,2.4,5.31,6.96,4.86,10.82-.48,4.08-4.59,7.97-8.02,10.34-1.45,1.01-3.65,2.34-5.06,2.74-1.16.33-2.75.22-4.01.49-.82.17-1.53.59-2.11.64-.77.07-1.53-.26-2.53-.32-1.5-.09-2.98.23-4.01,0-1.38-.31-3.51-1.34-4.23-1.93-.56-.47-.83-1.48-1.47-2.26-.6-.73-1.52-1.31-1.91-1.94-1.15-1.95-1.35-5.13-1.05-7.59.51-4.18,5.15-11.39,8.66-13.4,1.5-.86,3.67-1.6,6.11-1.62ZM247.09,148.82c-6.54,5.14-2.3,15.13,6.97,15.82,4.47-1.46,10.5-2.57,10.55-7.91.04-4.72-2.55-9-7.18-10.98-3.31-.72-8.89,1.92-10.34,3.06Z"/>
    <path class="cls-1" d="M217.8,177.94c2.15-.57,5.79-.27,8.04,0,.39,4.57-.66,8.34-.96,12.3-.26,3.49.85,7.11,0,10.54-.07.29-.34.59-.38.88-.26,2.01.31,4,0,6-2.13,2.16-4.73-.05-6.69-1.46-1.32-.94-2.77-1.59-3.82-2.35-3.59-2.55-6.01-5.93-7.85-8.19-.52,1.61.04,4.14.19,6.73.15,2.45.49,5.1-.39,6.74-2.74-.11-7.29-.34-8.8-2.49.35-8.19,1.77-19.35.19-27.51,3.79-2.5,6.02.67,8.04,3.07,3.14,3.75,8.18,9.03,10.53,12.3.16-.02.18.05.19.14.08-1.35.56-4.11.57-6.29.01-.95.42-1.93.39-2.79-.03-.76-.6-1.4-.58-2.05.07-1.86,1.7-3.63,1.34-5.56ZM218.95,178.68c-.23,4.01-.68,10.06-1.15,14.34-.18,1.62.12,2.74-1.34,3.22-1.57-.12-2.1-1.02-2.48-2.04-3.46-2.77-5.99-7.52-9.76-10.55-1.1-1.59-1.92-3.41-4.21-4.1-.08,8.88-.68,18.96-.77,26.79,1.34.89,2.91.67,4.97.44.18-4.03-.23-9.96-.38-13.9,1.26-.34,1.95.93,3.25,1.02-.23.67.53.57.39,1.17,3.53,2.94,7.26,6.18,10.71,9.08,1.2,1.01,1.99,2.28,3.44,2.93.6-4.4.95-9.34.95-14.35,0-2.51,0-5,.19-7.32.2-2.3,1.58-4.51.77-6.59-1.59-.23-3.05-.19-4.59-.14Z"/>
    <path class="cls-1" d="M311.67,210.99c-2.83-.36-5.68.56-8.17-.29-1.85-3.76-.49-7.88-1.75-11.9-3.51.27-6.06.16-9.13.59-.92,2.98.8,7.56-1.17,10.26-1.94.43-4.94-.5-6.61-.59-.97-.05-1.57.47-2.33,0-.99-.63-.23-4.87-.39-6.85-.13-1.52-.27-3.11-.2-5.06.22-6.06-.86-13.32-.39-18.3,2.91-.75,6.03-.74,9.14-.14.16,3.98.83,8.23.78,12.79,2.76,1.14,5.79-.17,9.72.3.54-4.12.39-9.97.58-13.69,2.81-.71,6.09.25,8.56.74.09.83.82,1.16,1.35,1.63.37,10.52-.9,20.14,0,30.49ZM303.9,179.47c-.59,4.13.75,10.16-1.17,13.99-3.65-.31-8.36.06-12.25.45-1.73-4.22-1.01-8.7-1.56-14.14-2.22.31-4.02.06-5.83.59-.44,4.65.45,10.92.39,16.81-.03,3.59-.27,7.28.2,10.41,2.68.06,4.2.72,6.61.45,1.28-3.29-.96-6.51.58-9.82,4.16-.56,9.7-1.8,13.61-.74.92,4.15-.45,7.44.78,11.61,1.38.37,3.39.03,4.67-.16.38-1.91-.59-3.79-.77-5.8-.13-1.26.36-2.59.39-3.87.13-6.25-.23-12.85-.97-19.19-1.58-.5-2.69-.56-4.67-.59Z"/>
    <path class="cls-1" d="M275.51,179.02c-.46,1.99-.14,5.12-.39,6.83-1.41.08-1.84-.11-2.92.74-2.53.05-4.12-.14-6.22-.15-.67,6.73.94,15.04-.39,21.87-2.45.37-6.41,1.44-8.36,0-1.5-6.3-1.07-15.66-1.94-22.01-2.67-.69-8.66.64-11.67-.6.35-1.61-.17-4.18.4-6.1.37-.51,1.66-.32,1.94-.89,6.64.49,12.48-.78,18.47-.74,3.74.02,7.22.9,11.07,1.04ZM245.38,180.21c-.54,1.61.02,3.46-.39,4.91,4.19-.08,7.86-.15,11.66,0,1.77,6.67.38,14.76,1.75,22.61,1.91.27,4.23-.31,5.83-.74-.3-4.89.52-10.47,0-16.21-.28-3.15-1.55-5.58.4-7.44,1.3-.31.55.96,1.56.89,3.05-.06,4.58-.74,7.58-.3.01-1.56.05-2.22,0-3.72-9.62-1.13-20.34.85-28.39,0Z"/>
    <path class="cls-1" d="M188.14,178.53c.12,3.98-.79,7.78-.96,11.85-.21,5.24.06,10.53-.58,15.52-1.64.18-2.81-.17-4.21.14.28-8.1,1.71-18.62.95-27.37,1.86.02,3.39-.64,4.78-.15Z"/>
    <path class="cls-1" d="M223.54,178.82c.81,2.08-.57,4.29-.77,6.59-.2,2.32-.19,4.81-.19,7.32,0,5.01-.36,9.95-.95,14.35-1.46-.64-2.25-1.92-3.44-2.93-3.46-2.9-7.19-6.13-10.71-9.08.14-.6-.62-.5-.39-1.17-1.3-.1-1.99-1.37-3.25-1.02.15,3.93.57,9.87.38,13.9-2.07.23-3.64.45-4.97-.44.09-7.83.69-17.91.77-26.79,2.29.69,3.1,2.5,4.21,4.1,3.78,3.02,6.3,7.78,9.76,10.55.38,1.02.91,1.93,2.48,2.04,1.46-.48,1.16-1.6,1.34-3.22.47-4.28.92-10.33,1.15-14.34,1.54-.05,3-.09,4.59.14Z"/>
    <path class="cls-1" d="M308.56,180.06c.74,6.34,1.1,12.94.97,19.19-.03,1.28-.51,2.6-.39,3.87.19,2,1.15,3.89.77,5.8-1.27.19-3.29.53-4.67.16-1.23-4.16.14-7.46-.78-11.61-3.91-1.05-9.45.19-13.61.74-1.54,3.31.7,6.53-.58,9.82-2.41.27-3.93-.39-6.61-.45-.47-3.13-.23-6.82-.2-10.41.06-5.89-.83-12.16-.39-16.81,1.81-.53,3.61-.28,5.83-.59.54,5.43-.18,9.92,1.56,14.14,3.89-.39,8.6-.76,12.25-.45,1.91-3.83.57-9.86,1.17-13.99,1.97.03,3.09.1,4.67.59Z"/>
    <path class="cls-1" d="M273.77,180.21c.05,1.5.01,2.16,0,3.72-3-.44-4.53.24-7.58.3-1.01.06-.26-1.2-1.56-.89-1.94,1.86-.68,4.29-.4,7.44.52,5.74-.3,11.32,0,16.21-1.6.44-3.92,1.02-5.83.74-1.37-7.84.02-15.94-1.75-22.61-3.8-.15-7.47-.08-11.66,0,.41-1.46-.16-3.31.39-4.91,8.05.85,18.77-1.13,28.39,0Z"/>
    <path class="cls-1" d="M338.7,180.36c.23,1.06.47,2.11.59,3.28-3.56.53-9.69-.62-12.64,1.34-.74,2.26-.23,4.93.19,7.14,1.69.82,4.92.43,6.41.15.86.73,1.12,2.55.78,3.72-2.83-.13-6.08-.62-7.77.74.02,2.34-.68,6.28,1.56,6.99.62.2,1.56-.29,2.33-.29,1.29,0,2.57.09,4.08,0,3.08-.19,6.4.09,8.17,1.34.04.98-.34,1.63-.19,2.68-6.33,1.93-13.32.65-20.61.15-.77-5.16.07-10.7-.2-16.06-.18-3.57-1.44-6.63-1.17-10.56,5.59-.69,12.53-1.04,18.47-.6Z"/>
    <path class="cls-1" d="M340.64,180.5c.22.54.38,1.72.39,1.94-.69-.17-.44-1.68-.39-1.94Z"/>
    <path class="cls-1" d="M329.78,227.37c-2.7-2.18-6.45-4.36-11.55-4.23-9.53.26-14.58,11.14-9.79,18.05,4.06,5.86,12.53,6.07,21.83,4.81,1.29-3.2,1.49-7.54-4.01-7.31,1.65-.21,2.48-1.38,4.01-1.91,2.34-.82,5.25-.41,7.78-1.34,1.46,4.82-.22,11.56-3.52,14.59-6.06,3.1-17.4,5.48-25.85,2.3-2.04-2.29-6.09-4.01-7.02-7.68-1.84-7.15-1.45-15.9,2.25-21.7,3.6-3.03,6.05-6.32,13.55-6.53,1.81-.05,3.7.09,5.77.19,4.31.22,6.82.17,10.04,1.73,1.24.6,3.22,2.23,3.26,2.88.07,1.49-2.7,2.44-4.02,3.65-1.12,1.03-1.23,2.04-2.75,2.5Z"/>
    <path class="cls-1" d="M314.57,271.87c.65.96,2.24,1.19,2.96,2.1.75,3.95-5.73,4.65-9.08,3.07.16-3.16-.38-6.67.42-9.86,2.5-2.83,8.39-1.41,7.6,2.43-.2.94-1.4,1.24-1.91,2.26ZM311.63,269.29c.21-.49-.47-.29-.85-.32-.17.82-.25,1.58.42,2.1,1.75-.53,3.78-1.59,2.96-3.56-1.82-.49-2.27.66-2.54,1.78ZM310.78,272.84c-.22,1.22-.39,2.42-.21,3.24,2.29.45,4.45-.15,4.86-1.62-1.06-1.28-2.81-2.08-4.65-1.62Z"/>
    <path class="cls-1" d="M337.01,267.44c.19.41.05,1.11-.22,1.61-7.53-2.48-6.97,8.8-.21,6.13.38.97,2.3,1.37,1.9,2.43-5.71.87-12.31-.9-11.82-5.81.35-3.46,4.85-6.54,10.35-4.36ZM331.51,275.67c-1.07-.74-1.91-1.65-2.53-2.75-.19,1.6,1.11,2.92,2.53,2.75Z"/>
    <path class="cls-1" d="M285.44,273.43c-.53,2.7-2.98,4.67-6.33,4.36-2.25-.21-6-2.9-5.28-5.98.4-1.69,2.42-2.83,3.17-4.19,5.65-1.63,7.99,2.54,8.44,5.81ZM283.33,273.11c0-1.96-1.76-5.31-4.22-3.88-.47.24.12,1.28-.63,1.29-.47-.13-.28-.76-.84-.8-.88.89-1.55,2.25-1.48,3.55.09,1.81,1.52,2.77,2.96,3.55,1.47-.79,4.23-1.15,4.22-3.71Z"/>
    <path class="cls-1" d="M244.06,276.02c-.64.32-1.01.84-.84,1.78-1.42.21-1.94-1.1-2.11-1.94-.52-2.57.27-7.07.42-8.88,4.33,1.14-.32,7.03,2.54,9.05Z"/>
    <path class="cls-1" d="M264.28,267c.95,2.44-.31,6.33.42,8.89-.79.54-.83,1.1-.84,1.93-4.49-.97-5.02-4.99-8.23-6.95-.93,1.57.34,4.23-.43,6.13-1.05.1-1.25-.45-1.89-.64.25-3-.12-5.85-.22-8.56,4.56.45,5.91,5.3,8.44,7.43,1.48-2.05-.76-6.54,1.48-8.56.49.05.87.2,1.27.32Z"/>
    <path class="cls-1" d="M223.44,266.19c2.77.8,8.21-1.14,8.45,1.78-2.38-.1-5.27.22-6.97,1.12-.16.72.28.97.22,1.63,2.27-.05,5.23-.79,5.69,1.29-1.26.92-3.91,0-5.69.81-.17,2.32.6,3.17,0,5-3.6-1.01-1-6.88-2.32-9.69.77-.52.35-1.32.63-1.94Z"/>
    <path class="cls-1" d="M193.27,266.99c.24.36.54.67.42,1.29-1.54-.33-3.94.13-4.85.49.57,3.06.61,5.86,1.27,9.04-1.02.03-2.02.04-2.53-.32-1.68-2.55-.48-4.82-1.06-7.92-1.01-1.43-4.82-.73-5.28-2.58,4.51.07,8.04-.18,12.03,0Z"/>
    <path class="cls-1" d="M209.01,277.76c-7.2.89-7.87-7.81-3.58-9.69,1.97-.86,5.35-.39,6.76.64,3.71,2.76.21,7.41-3.17,9.05ZM205.21,275.82c5.41,1.48,7.85-3.72,4.65-6.29-.72-.13-.35.59-.85.64-.3-.3-.3-.84-.84-.96-3.47.21-4.25,4.75-2.96,6.61Z"/>
    <path class="cls-1" d="M299.34,271.48c.59,3.24-3.6,2.47-4.86.96-.04-2.69,3.51-2.82,4.86-.96Z"/>
    <path class="cls-1" d="M347.04,263.41c-30.49-2.73-70.06-1.02-103.04-1.86-7.17-.18-14.77.51-22.34.69-7.35.19-14.76-.12-21.6.06-1.89.06-3.84.44-5.9.54-3.81.17-7.84.03-11.28.26-2.18.15-5.5,1.29-6.78-.94,1.07-.84,3.17-.48,4.71-.55,1.98-.08,3.93,0,5.64-.05,4.47-.12,8.74-.72,13.18-.88,2.98-.1,5.91.15,8.92.17,2.6.03,5.3-.37,8-.49,15.15-.67,30.98-.45,47.22-.37,1.07.02,1.85.23,2.81.22,2.89-.03,5.8-.63,8.92.02,15.74-.23,35.01.12,54.93.59,3.9.08,7.87.12,11.26.38,2,.16,4.57.54,5.33,2.21Z"/>
    <path class="cls-1" d="M347.97,284.37c-30.48-2.74-70.06-1.02-103.03-1.86-7.18-.18-14.78.51-22.34.7-7.35.18-14.76-.13-21.61.05-1.88.06-3.83.45-5.89.54-3.81.16-7.85.03-11.28.27-2.18.15-5.5,1.28-6.78-.95,1.07-.82,3.16-.48,4.71-.55,1.98-.09,3.93,0,5.64-.05,4.46-.11,8.74-.71,13.18-.87,2.99-.1,5.91.16,8.92.18,2.61.02,5.3-.37,8-.49,15.14-.67,30.98-.46,47.22-.36,1.07,0,1.86.23,2.81.21,2.9-.03,5.81-.62,8.93.02,15.73-.23,35.01.12,54.93.59,3.9.1,7.87.12,11.26.39,1.99.16,4.57.53,5.33,2.21Z"/>
    <path class="cls-1" d="M258.07,147.53c.64-.04,2.85,1.47,3.16,2.75-1.05-.92-2-1.92-3.16-2.75Z"/>
    <path class="cls-1" d="M340.64,179.91c.51-.54.49-.54,1.75-.45.78,2.16.66,4.3,0,6.25-4.88-.8-9.49-.82-13.8.6-.24,1.43.1,2.62,0,4.31,1.3,1.35,4.59-.16,6.22.6,1.19,1.37,1.77,4.08,1.36,5.79-1.9.59-4.49.34-6.61.45-.68,1.66.27,3.43-.78,4.46,4.63.19,9.51-.3,13.22,1.34.59-.2,1.55-.2,2.14,0,.59,1.32-.01,3.42-.19,5.36-1.32-.3-2.15.59-3.31.74-.72.1-1.6-.21-2.33-.14-.81.07-1.55.51-2.34.59-4.27.41-8.7-1.07-13.41-1.04-.49.06-1.71.53-2.72.14-.37-9.26-2.27-18.8-1.55-27.66.2-.86-1.65-.93-.98-1.64,2.71-1.47,6.94-1.3,10.69-1.19,3.99.11,8.35-.05,12.05.59.6-.02.58.45.58.89ZM320.22,180.96c-.27,3.93.99,6.99,1.17,10.56.27,5.36-.57,10.9.2,16.06,7.29.5,14.28,1.78,20.61-.15-.15-1.05.23-1.7.19-2.68-1.77-1.25-5.09-1.52-8.17-1.34-1.52.09-2.79,0-4.08,0-.78,0-1.71.49-2.33.29-2.23-.71-1.53-4.65-1.56-6.99,1.69-1.36,4.94-.87,7.77-.74.35-1.18.08-2.99-.78-3.72-1.49.28-4.72.67-6.41-.15-.42-2.2-.94-4.88-.19-7.14,2.95-1.95,9.08-.8,12.64-1.34-.11-1.16-.36-2.22-.59-3.28-5.94-.44-12.89-.09-18.47.6ZM341.03,182.44c0-.22-.17-1.4-.39-1.94-.05.27-.3,1.77.39,1.94Z"/>
    <path class="cls-1" d="M270.52,55.4c1.87,7.41,4.99,13.84,7.18,20.99,3.3,2.47,6.04,5.38,8.86,8.24.42.36,1.36-.32,1.89.15,1.87,4.08-.73,8.6-.42,13.25.06.65.94-.11,1.06.64.47,4.43,3.63,7.28,6.54,9.85,1.81,1.6,4.31,3.31,4.65,6.14-3.66,1.43-8.65.75-12.66,0-.6,6.15,1.57,11.74,4.65,15.5.46.56,1.52.9,1.48,1.61-.83,1.22-1.67.35-2.53.32-16.15-.58-37.22.12-55.72.49-3.69.07-7.52.45-10.56.64-1.98-4.96.27-10.35,2.11-15.02,2.96-7.48,6.79-15.3,12.45-20.83,2.34-2.27,5.07-4.08,7.39-5.97-1.76-5.19-2.53-9.83-4.01-15.5,2.44-1.01,4.26-4,7.18-3.87,3.2.13,3.51,3.83,5.91,5.16,1.19-2.04-.19-4.41-.64-6.78-.85-4.71.42-9.54,4.01-11.95.33-.21,1.36-.49,2.33-.96,2.01-.99,5.49-2.98,8.86-2.1Z"/>
    <path class="cls-1" d="M184.41,137.52c.16.61-.26.77-.21,1.29,3.65,6.24,5.1,13.39,8.65,19.86,3.26-5.96,6.53-12.87,10.13-19.05.06-.88-.26-2.03.63-2.27,1.43-.06,1.08,1.23,2.33,1.3,2.77,5.78,6.21,12.41,10.34,17.28,2.83-5.77,4.49-12.35,6.97-18.73,2.77-.6,6.69.4,9.49.81.11,2.21-.88,4.52-1.69,6.94-.39,1.19-1.06,2.35-1.47,3.56-.19.57.02,1.21-.21,1.78-.31.72-1.12,1.22-1.48,1.94-2.23,4.54-3.08,9.68-4.22,14.36-.71,2.94-.68,5.64-2.96,7.92-.99-.28-2.17.27-3.17.48-1.19-.43-1.87-1.26-2.11-2.42-4.44-4.62-8.37-9.64-11.82-15.01-2.86,1.62-3.62,4.48-5.28,6.77-1.96,2.74-4.95,4.96-6.54,7.75-.86.37-1.58.84-2.32,1.3-4.37-.07-3.5-2.52-4.43-5.33-1.35-4.05-3.15-8.84-5.06-12.92-2.28-4.85-3.09-12.24-6.76-16.8.19-.72,1.32-.72,1.06-1.78,3.98.71,7.14.3,10.13.97ZM177.87,138.49c1.69,3.19,2.2,7.61,3.37,11.47,2.33,7.69,4.57,14.94,7.18,22.11,4.86-3.79,8.03-9.16,11.4-14.05.84-1.22,1.85-2.89,3.79-3.39,7.81,4.09,7.7,14.24,15.63,18.25-.3-1.3,1.12-2.2,1.47-3.4.18-.61.49-2.19.42-2.91-.33-3.6,2.22-7.94,3.59-11.62,0-3,1.69-6.04,1.69-9.21,1.19-2.5,1.21-5.54,4.22-6.3-1.89-.53-3.75-.87-5.91-.81-.34.57-.41.97-.21,1.62-1.66,3.56-2.76,7.57-3.8,11.62-.76,1.34-1.82,2.81-2.54,4.52-.74,1.76-.39,4.4-2.74,5.17-.66-.25-.36-1.23-.64-1.77-2.03-.2-2.93-2.58-4.64-3.55,0-.43-.08-.93.22-1.13-1.34-.75-.79-2.96-1.91-3.88.58-.15-.37-.57.22-.81-.82-1.21-1.32-2.65-1.48-4.37-1.43-1.24-1.17-4.04-2.75-5.65-2.88,4.88-5.38,10.33-7.81,15.35-.81,1.68-1.4,3.66-3.17,4.85-.29-.05-.41-.24-.84-.17-3.73-3.67-4.23-8.9-6.75-13.56-.87-.29-.72-.4-1.48-.65-1.76-2.29-1.87-4.96-2.95-7.59-1.25-.17-1.85-.25-3.59-.17Z"/>
    <path class="cls-1" d="M257.43,145.76c4.63,1.98,7.22,6.26,7.18,10.98-.05,5.34-6.08,6.45-10.55,7.91-9.27-.7-13.51-10.69-6.97-15.82,1.46-1.15,7.04-3.78,10.34-3.06ZM261.23,150.28c-.32-1.28-2.52-2.79-3.16-2.75,1.16.83,2.11,1.83,3.16,2.75ZM249.41,162.39c4.65,2.14,8.65-.18,10.76-1.93,1.37-1.14,2.29-1.83,2.32-3.56.09-4.37-4.14-9.73-9.49-8.87-8.22,1.49-9.57,10.33-3.59,14.36Z"/>
    <path class="cls-1" d="M254.01,253.08c-2.74.12-9.11-.98-11.84-2.7-2.99-1.89-7.02-6.36-7.8-9.05-.3-1.01-.28-2.32-.51-3.46-1.5-7.64,1.08-16.75,7.55-20.62,4.27-1.68,7.47-4.31,12.84-3.46,1.03.16,1.76.78,2.77.96,1.3.24,2.58.05,3.77.2,5.79.72,9.06,2.66,12.6,5.97,1.3,1.22,3.05,2.1,4.03,3.28,1.47,1.77,2.01,5.22,2.26,7.51.49,4.41-1.65,8.8-4.02,11.18-1.2,1.2-1.87,1.58-3.52,2.88-1.35,1.06-1.85,1.09-3.28,1.73-1.57.72-2.97,2.35-4.79,3.09-3.14,1.27-7.33,1.02-10.07,2.51ZM246.45,218.2c-4.19,2.41-9.72,10.99-10.33,15.99-.36,2.95-.12,6.74,1.26,9.07.45.75,1.56,1.44,2.27,2.31.77.93,1.1,2.13,1.76,2.69.85.72,3.39,1.95,5.04,2.32,1.23.27,3-.11,4.79,0,1.19.07,2.09.47,3.02.39.69-.06,1.54-.57,2.52-.77,1.51-.32,3.4-.18,4.79-.57,1.69-.49,4.3-2.08,6.04-3.28,4.1-2.83,9-7.47,9.57-12.33.55-4.6-2.45-10.04-5.79-12.91-3.11-2.68-12.35-4.85-17.63-4.82-2.93.03-5.51.89-7.31,1.93Z"/>
    <path class="cls-1" d="M253.76,216.28c5.28-.04,14.51,2.14,17.63,4.82,3.34,2.87,6.34,8.31,5.79,12.91-.57,4.86-5.47,9.5-9.57,12.33-1.74,1.2-4.35,2.79-6.04,3.28-1.39.39-3.28.25-4.79.57-.98.2-1.83.71-2.52.77-.93.09-1.83-.32-3.02-.39-1.79-.11-3.56.27-4.79,0-1.64-.37-4.19-1.59-5.04-2.32-.66-.57-.99-1.76-1.76-2.69-.71-.86-1.82-1.56-2.27-2.31-1.38-2.32-1.61-6.12-1.26-9.07.61-4.99,6.14-13.57,10.33-15.99,1.8-1.04,4.37-1.9,7.31-1.93ZM246.96,225.33c-7.8,6.13-2.74,18.05,8.31,18.88,5.34-1.73,12.53-3.07,12.59-9.44.06-5.64-3.04-10.74-8.56-13.1-3.95-.86-10.6,2.28-12.34,3.66Z"/>
    <path class="cls-1" d="M260.05,223.79c.78-.05,3.4,1.75,3.78,3.28-1.25-1.1-2.39-2.3-3.78-3.28Z"/>
    <path class="cls-1" d="M259.3,221.68c5.52,2.35,8.61,7.46,8.56,13.1-.06,6.37-7.25,7.71-12.59,9.44-11.05-.83-16.11-12.75-8.31-18.88,1.74-1.37,8.39-4.52,12.34-3.66ZM263.83,227.07c-.38-1.53-3-3.33-3.78-3.28,1.39.98,2.53,2.17,3.78,3.28ZM249.73,241.52c5.55,2.55,10.32-.22,12.84-2.32,1.64-1.36,2.73-2.2,2.78-4.24.1-5.22-4.94-11.61-11.34-10.59-9.81,1.78-11.42,12.33-4.28,17.15Z"/>
    <path class="cls-1" d="M341.01,143.99c-5.52.95-11.68,1.41-17.31,2.25-.01,2.25.7,6.07.63,8.73,3.2.92,6.76-1.12,9.71-.32,1.28-.56,2.13-.42,4.01-.49,1.04,1.73.13,3.41-.42,5.17-4.11,1.29-9.82.51-12.66,2.58-.18,3.7.2,6.97.64,10.98-.56.05-.7-.22-.64-.65-1.42,1.01-4.22.88-6.55.81-1.3-6.46-.34-13.94-1.68-21.32-.23-1.23-.76-2.46-.84-3.71-.09-1.43.39-2.84.42-4.2.03-1.45-.57-2.59-.42-3.87,7.43-1,16.49-.74,24.27-1.62,1.4,1.57.84,3.26.85,5.66Z"/>
    <path class="cls-1" d="M214.03,212.75c3.43,2.31,2.65,7.91,2.74,10.66-6.26.31-14.29.84-20.64,1.71-.05,2.1.35,4.63.25,7.61,4.32.38,15.76-3.32,16.91.95.4,1.49-1.49,3.86.5,5.51-2.35,3.38-9.45,2.51-15.67,3.62-.57,4.25.86,8.4,0,13.12-3.85.95-10.18,2.43-13.93,1.15-.86-.96.19-2.52-.75-3.61.3-8.03-1.28-18.44-1.74-27.59-.19-3.86-.3-8.02-1.73-10.84,2.49-1.41,6.09-.78,9.2-.96,7.85-.45,16.1-1.08,24.87-1.33ZM212.79,214.64c-9.16,1.04-19.84.73-28.6,1.9-.18,1.52.53,2.86.49,4.57-.03,1.6-.6,3.25-.49,4.95.1,1.48.73,2.92.99,4.37,1.59,8.68.45,17.51,1.99,25.12,2.74.08,6.03.24,7.71-.95-.07.49.08.82.75.76-.51-4.73-.97-8.58-.75-12.94,3.34-2.44,10.08-1.52,14.92-3.04.64-2.06,1.72-4.05.5-6.09-2.21.08-3.23-.08-4.73.57-3.49-.94-7.67,1.48-11.44.39.08-3.14-.76-7.64-.74-10.28,6.64-1.01,13.89-1.55,20.39-2.66,0-2.83.65-4.81-1-6.66Z"/>
    <path class="cls-1" d="M213.78,221.31c-6.5,1.11-13.75,1.66-20.39,2.66-.02,2.65.83,7.14.74,10.28,3.77,1.09,7.96-1.32,11.44-.39,1.5-.65,2.52-.49,4.73-.57,1.22,2.04.14,4.03-.5,6.09-4.84,1.52-11.58.6-14.92,3.04-.22,4.36.23,8.21.75,12.94-.66.05-.82-.27-.75-.76-1.68,1.19-4.98,1.04-7.71.95-1.54-7.6-.41-16.43-1.99-25.12-.26-1.46-.89-2.9-.99-4.37-.11-1.7.47-3.35.49-4.95.04-1.71-.67-3.05-.49-4.57,8.75-1.17,19.44-.86,28.6-1.9,1.65,1.85.99,3.83,1,6.66Z"/>
    <path class="cls-1" d="M189.29,177.36c1.17,1.93.25,4.17.19,6.29-.05,2.03.48,3.99.38,6.01-.19,4.19-.65,8.4-.95,12.15-.15,1.77-.13,4-.96,5.85-2.46.98-7.27,1.28-7.65-2.2-.43-3.93.57-9.2.57-14.34s-1.33-10.52.58-13.47c2.14-.37,5.53-.54,7.84-.29ZM183.36,178.68c.76,8.75-.68,19.27-.95,27.37,1.4-.32,2.57.04,4.21-.14.63-4.99.37-10.28.58-15.52.17-4.08,1.08-7.87.96-11.85-1.39-.49-2.93.17-4.78.15Z"/>
    <path class="cls-1" d="M340.07,222.38c-.11,1.01-1.15.13-1.76.77-.96.78-2.25,2.02-4.02,3.45-1.2.98-2.85,3.19-4.02,3.27-2.09.13-2.69-2.28-4.27-3.27-7.84-3.44-15.76.29-16.81,6.72-.9,5.45,4.14,11.97,11.79,11.32,1.8-.15,2.21-1,4.02-.76.86-1.07,1.89-2.01,2.75-3.08-1.78-.3-3.63-.54-4.77-1.34-.44-2.05.39-3.8,1.26-5.37,4.71-.72,12.03-.02,15.56-.58,2.42,2.35,1.35,4.77.75,7.68-.87,4.23-1.7,8.78-5.27,11.13-5.52,1.35-9.35,2.96-15.31,3.27-9.21.48-16.72-3.02-20.08-9.02-.76-1.36-.84-3.37-1.51-5.38-1-2.97-2.33-5.22-2.01-8.45.44-4.45,3.66-8.21,5.52-12.09,3.53-1.76,6.13-5.59,10.79-6.72,1.45-.34,4.07-.42,6.02-.77,4.29-.76,8.74.6,12.3,1.92,4,1.48,7.9,4.23,9.04,7.3ZM332.53,224.87c1.32-1.21,4.09-2.16,4.02-3.65-.04-.65-2.02-2.28-3.26-2.88-3.22-1.56-5.73-1.5-10.04-1.73-2.07-.1-3.97-.24-5.77-.19-7.5.2-9.96,3.5-13.55,6.53-3.71,5.8-4.09,14.55-2.25,21.7.93,3.67,4.99,5.39,7.02,7.68,8.44,3.18,19.78.8,25.85-2.3,3.3-3.03,4.98-9.77,3.52-14.59-2.53.93-5.45.52-7.78,1.34-1.53.53-2.36,1.7-4.01,1.91,5.5-.23,5.3,4.11,4.01,7.31-9.31,1.26-17.78,1.05-21.83-4.81-4.79-6.9.26-17.79,9.79-18.05,5.09-.13,8.85,2.04,11.55,4.23,1.53-.46,1.63-1.47,2.75-2.5Z"/>
    <path class="cls-2" d="M268.67,61.66c-1.01-.26-1-1.31-1.57-1.92-.47-.16-1.29-.05-1.56-.36-.12-.93.76-1.09,1.25-1.56,1.61.41,2.17,2.76,1.88,3.83Z"/>
    <path class="cls-2" d="M277.48,80.24c.31,1.74,1.93,4.01.15,5.74-.98-.94-.7-2.36-1.33-3.38-.39-.64-1.06-.85-1.47-1.46.54-.5,1.51-1.23,2.65-.9Z"/>
  </g>
  <g>
    <polygon class="cls-3" points="64.22 132.87 11.86 209.52 14.47 212.82 114.36 209.35 78.48 143.44 67.8 130.97 64.22 132.87"/>
    <path class="cls-1" d="M96.28,170.23c3.51.51,2.58,5.9,6.25,6.23.1,3.85,2.07,5.65,4.51,6.9-.28,4.07,2.02,5.29,4.46,6.32.28,1-.4,1.13-1.12,1.25.83.81,2.79,1.35,1.33,2.9.46-.34.95-.66,1.75-.68.28,1.19-.03,1.86-1.1,1.84,1.18,1.5,4.6,4.73,2.67,5.81.6,1.01,1.93,1.21,3.61,1.01.33,4.86,3,7.12,2.99,12.34-.57-.34-2.24-1.28-1.74.68-1.07-1.12-4.14-.02-4.28-2.17-1.31,2.35-4.07-1.55-7.05,1.54-1.8.3-1.33-1.87-1.94-2.88-1.7.59.85,1.45.15,2.96-.46-.38-2-2.41-1.77.09-8.28-.58-20.59-.62-27.92.19-.03-.59-.07-1.18-.09-1.77-2.68,1.57-5.81,1.88-8.31.4-1.61,2.32-12.63,2.38-16.01.8-6.52,3.76-21.02.22-24.17,4.16-5.11-2.87-13.92.38-20.31-1.96-.61-1.86.39-2.28,1.04-3.03-2.39-.09-1-.46-1.38-4.09,2.76-.89,3.9-3.25,3.84-6.72,2.74.42,1.19-3.06,4.02-2.59-.51-1.8-.47-1.11-.15-2.97,4.03.46,1.59-4.98,5.09-5-.41-.58-1.39-.55-1.27-1.73,2.38.66,1.11-2,3.5-1.36-.05-.99-.1-1.98-.15-2.96.51-.48,1.31-.7,2.34-.7,3.48-8.95,9.99-15.13,13.69-23.87,2.05-.03,2.69-1.33,2.19-3.67,1.74.07,1.75-1.43,3.51-1.37,1.44-7.95,9.01-10.35,10.39-18.35,6.51-1.46,4.95-10.24,11.3-11.85-.41-.58-1.39-.55-1.28-1.72,1.96-.12,2.9-1.16,5.32-.86,2.66,1.88-.7,3.07,3.1,2.82-2.45,2.68.76,10.53,3.43,9.33.89.15.16,4.49,3.17,4.01-.32,1.83.73,2.13.78,3.52,7.64,6.37,9.1,19.57,16.74,25.92.26,1-.41,1.15-1.13,1.25ZM61.63,142.81c-1.87.83-.53-1.9-2.43-1.07-.9.3-.4,1.9-2.29,1.31-.73,3.12-1.47,6.22-4.4,7.36-.71,3.27,1.67,3.15,2.61,4.62-4.12,3.02-4.14,12.69-11.43,9.47.67,1.77,2.84,1.86,3.17,4.01-1.56.81-2.72,1.12-3.5,1.36,2.53,2.06-.66,1.55-1.64,3.06-2.53,3.93-3.9,10.12-8.35,11.11-.16,2.87-1.21,4.96-3.9,5.53,1.5,3.08-.87.43-1.71,1.87,3.82.72-2.44,2.61.22,4.16-4.22.89-3.19,6.54-6.12,8.62-.38-1.02.55-3.52-.76-3.53,0,.93.19,2.05-1.1,1.84-.63,1.95,1.94.36,1.31,2.31-2.46.6-2.01,3.85-3.29,5.52,6.18-1.37,16.23-1.47,23.13-1.15.1-.46-.04-1.17.53-1.21,23.01,2.1,41.35-1.48,69.44-2.24-1.29-6.24-6.79-9.22-8.95-12.64-.72-5.27-5.7-5.8-5.92-11.59-2.66.4-2.28-2.11-1.96-3.46-2.36.06-4.5-3.78-2.6-4.63-1.85,1.01-1.99-.34-3.62-1.01-4.28-12.94-14.51-22.09-19.43-32.32.02.6-1.01.79-1.19.05.72-.09,1.39-.24,1.13-1.25-1.65.58-1.58-.76-3-.44-2.87,4-4.15,9.45-8.94,11.73,1.25,2.04-.44,2.89-1.57,4.25-.71-2.35-.14-4.62.87-6.59.98-.03.4,1.63,1.27,1.73.13-2.55,2.17-7.4,3.91-4.95-.06-.82.21-1.32.49-1.8Z"/>
  </g>
  <text class="cls-4" transform="translate(41.56 199.84)"><tspan x="0" y="0">42</tspan></text>
</svg>