<?xml version="1.0" encoding="UTF-8"?>
<svg id="Layer_1" xmlns="http://www.w3.org/2000/svg" viewBox="0 0 400 400">
  <defs>
    <style>
      .cls-1 {
        fill: #027fae;
      }

      .cls-1, .cls-2 {
        fill-rule: evenodd;
      }

      .cls-3 {
        font-family: AmericanTypewriter-CondensedBold, 'American Typewriter';
        font-size: 44px;
        font-weight: 700;
      }

      .cls-3, .cls-4 {
        fill: #fff;
      }
    </style>
  </defs>
  <g>
    <g>
      <polygon class="cls-1" points="78.65 149.31 26.29 225.96 28.9 229.26 128.78 225.8 92.9 159.89 82.23 147.41 78.65 149.31"/>
      <path class="cls-2" d="M110.71,186.67c3.5.51,2.58,5.9,6.25,6.23.1,3.85,2.07,5.65,4.51,6.91-.28,4.06,2.01,5.28,4.46,6.32.28,1-.4,1.13-1.12,1.24.83.82,2.79,1.35,1.33,2.9.47-.33.95-.66,1.75-.68.27,1.19-.03,1.86-1.09,1.84,1.18,1.5,4.6,4.74,2.67,5.81.61,1.01,1.92,1.22,3.61,1.01.33,4.85,3,7.12,2.99,12.34-.57-.34-2.25-1.28-1.74.67-1.07-1.11-4.14-.02-4.27-2.16-1.32,2.34-4.07-1.55-7.05,1.54-1.8.3-1.34-1.87-1.94-2.88-1.7.6.85,1.46.15,2.97-.46-.39-2-2.41-1.78.09-8.28-.58-20.59-.63-27.92.18-.03-.58-.07-1.18-.09-1.77-2.68,1.58-5.81,1.89-8.31.41-1.6,2.32-12.64,2.38-16.01.8-6.52,3.75-21.02.23-24.17,4.16-5.11-2.87-13.92.37-20.31-1.96-.61-1.86.4-2.28,1.04-3.03-2.39-.09-.99-.46-1.38-4.09,2.76-.9,3.9-3.26,3.84-6.73,2.75.43,1.2-3.05,4.03-2.58-.51-1.8-.47-1.12-.15-2.96,4.03.45,1.59-4.98,5.1-5.01-.41-.58-1.39-.54-1.27-1.72,2.39.65,1.11-2,3.5-1.36-.05-.99-.1-1.98-.15-2.97.51-.49,1.31-.7,2.34-.7,3.47-8.95,9.98-15.13,13.69-23.86,2.05-.03,2.69-1.34,2.2-3.68,1.74.07,1.75-1.43,3.5-1.36,1.44-7.95,9.01-10.36,10.39-18.36,6.51-1.46,4.95-10.23,11.29-11.85-.41-.58-1.39-.55-1.28-1.72,1.95-.12,2.9-1.15,5.32-.85,2.66,1.88-.7,3.06,3.1,2.81-2.46,2.68.76,10.53,3.43,9.34.88.15.16,4.49,3.17,4.01-.32,1.83.73,2.14.78,3.53,7.63,6.37,9.09,19.56,16.74,25.91.26,1-.41,1.15-1.13,1.25ZM76.06,159.26c-1.88.82-.54-1.9-2.43-1.07-.91.3-.41,1.9-2.3,1.31-.73,3.12-1.47,6.22-4.4,7.35-.7,3.28,1.67,3.15,2.61,4.62-4.12,3.02-4.14,12.7-11.43,9.48.67,1.77,2.85,1.86,3.17,4.01-1.57.8-2.72,1.12-3.5,1.36,2.53,2.06-.67,1.55-1.64,3.05-2.53,3.94-3.91,10.12-8.36,11.12-.16,2.87-1.2,4.96-3.89,5.53,1.49,3.08-.87.43-1.7,1.88,3.82.72-2.44,2.6.21,4.15-4.22.89-3.19,6.55-6.11,8.63-.38-1.03.55-3.52-.76-3.54,0,.93.19,2.05-1.1,1.84-.63,1.95,1.94.35,1.31,2.3-2.46.61-2.01,3.85-3.29,5.53,6.18-1.37,16.23-1.48,23.13-1.15.11-.46-.04-1.17.53-1.22,23.01,2.1,41.35-1.48,69.44-2.24-1.29-6.23-6.79-9.23-8.96-12.64-.71-5.27-5.7-5.8-5.91-11.6-2.66.4-2.29-2.11-1.97-3.47-2.36.06-4.51-3.77-2.6-4.62-1.85,1-1.99-.35-3.62-1.01-4.29-12.95-14.51-22.09-19.43-32.33.03.6-1.01.79-1.18.05.72-.09,1.39-.24,1.13-1.24-1.66.57-1.58-.76-3-.44-2.87,4-4.15,9.46-8.94,11.73,1.25,2.03-.43,2.88-1.57,4.24-.72-2.35-.14-4.62.87-6.59.97-.03.4,1.63,1.27,1.72.13-2.55,2.17-7.39,3.91-4.94-.06-.82.21-1.32.5-1.81Z"/>
    </g>
    <text class="cls-3" transform="translate(56.73 215.56)"><tspan x="0" y="0">47</tspan></text>
  </g>
  <g>
    <path d="M282.57,271.03c-9.12-.12-18.25-.21-27.37-.39-5.58-.11-11.16-.45-16.75-.51-6.15-.06-12.3.11-18.45.14-4.32.02-8.63,0-12.95-.08-.9-.01-1.83-.2-2.7-.47-2.11-.66-3.5-2.52-3.49-4.76.03-7.14.1-14.29.16-21.43.01-1.63.02-3.25.04-4.88.07-5.23.2-10.46.18-15.69-.01-3.25-.29-6.5-.38-9.75-.15-5.09-.27-10.18-.36-15.27-.1-5.45.07-10.91-.25-16.34-.67-11.46-.36-22.91-.3-34.37.03-6.07,1.08-12.1,2.25-18.07.31-1.59.58-3.2.82-4.8.97-6.57,3.69-12.42,7.32-17.9.94-1.41,1.86-2.84,2.83-4.23,2.79-3.99,6.26-7.29,10.21-10.09,5.72-4.06,11.8-7.51,18.19-10.39,1.65-.75,3.47-1.11,5.19-1.7,1.53-.52,3.08-1.03,4.56-1.69,1.84-.82,3.72-1.26,5.73-1.37,2.61-.15,5.2-.54,7.81-.73,13.18-.96,25.04,2.43,35.42,10.74,7.95,6.37,14.81,13.76,20.6,22.13,3.28,4.75,5.68,9.93,7.05,15.56,1.15,4.74,1.95,9.55,2.34,14.42.65,8.04,1.03,16.09.56,24.16-.13,2.19-.02,4.39-.09,6.58-.22,7.28-.61,14.56-.66,21.84-.04,6.29.35,12.59.44,18.88.15,10.54.24,21.08.31,31.62.03,5.16.11,10.33-.13,15.48-.17,3.52-.83,7.01-1.33,10.51-.22,1.57-1.32,2.5-2.74,2.95-.93.29-1.94.44-2.92.42-8.56-.1-17.11-.28-25.67-.38-5.16-.06-10.33-.01-15.49-.01,0-.04,0-.08,0-.12ZM242.82,120.7c1.53-.99,1.73-1.13,3.46-.99,2.46.19,4.91.58,7.37.78,2.56.21,2.93-.11,3.49-2.55.1-.41.14-.84.23-1.25.59-2.9,2.38-4.97,4.83-6.39.97-.56,2.32-.79,3.44-.66,4.24.48,7.11,3.14,8.03,7.3.91,4.08.63,8.13-.67,12.11-.25.76-.34,1.57-.53,2.5,1.73.29,3.18.5,4.62.8,4.23.87,5.94,2.71,5.99,6.95.09,7.15.13,14.3-.07,21.44-.16,5.58-.74,11.14-1.11,16.72-.04.55,0,1.14.12,1.68.59,2.55.37,5.11-.26,7.56-.3,1.18-.09,1.97.42,2.94,1.47,2.81,2.85,5.68,4.27,8.52.21.41.47.8.56.95.94-.33,1.69-.75,2.47-.85,2.38-.3,4.77-.48,7.16-.7,2.53-.24,5.06-.65,7.59-.65,2.03,0,4.05.62,6.09.77,3.46.24,6.64,1.31,9.7,2.85,2.25,1.12,4.49,2.26,6.93,3.49,0-.78.02-1.39,0-2.01-.26-8.7.19-17.39.55-26.08.31-7.49.4-14.99.52-22.48.04-2.61-.1-5.23-.19-7.85-.27-7.94-1.17-15.8-3.7-23.37-1.03-3.07-2.38-6.04-3.7-9.01-.86-1.92-1.7-3.92-2.95-5.59-2.32-3.11-4.87-6.07-7.43-8.99-4.08-4.64-8.67-8.68-13.81-12.16-3.92-2.65-7.98-4.8-12.58-5.89-2.54-.6-5.07-1.23-7.62-1.82-.68-.16-1.39-.26-2.08-.27-1.83-.04-3.66-.01-5.48-.03-2.12-.02-4.26-.24-6.36-.05-2.38.22-4.72.81-7.08,1.24-4.54.85-8.92,2.15-12.82,4.72-.17.11-.38.31-.55.28-1.5-.23-2.54.76-3.68,1.4-2.71,1.51-5.49,2.95-8.01,4.74-3.34,2.36-6.68,4.76-9.49,7.78-2.92,3.15-6.39,5.86-8.44,9.72-1.79,3.37-3.44,6.82-4.92,10.33-.87,2.06-1.39,4.3-1.85,6.5-1.25,6.03-1.82,12.15-2.32,18.28-.14,1.74-.7,3.46-.72,5.2-.11,8.34-.24,16.69-.09,25.03.14,7.28.65,14.55,1,21.83.14,2.82.27,5.64.41,8.42.68.29,1.35.52,1.97.85,5.63,2.96,11.5,5.04,17.96,5.14,3.67.06,7.34.25,11.01.36,3.46.1,6.93.37,10.38.2,2.63-.13,5.21-.91,7.6-2.28-.97-1.57-1.82-3.04-2.74-4.46-2.7-4.15-5.33-8.35-7.19-12.96-.42-1.05-.93-1.77-2.13-2.07-.69-.17-1.37-.77-1.86-1.34-1.52-1.76-2.61-3.72-2.07-6.19.33-1.51.03-2.89-.63-4.28-2.53-5.34-3.92-11.05-5.27-16.76-1.68-7.09-3.35-14.19-1.78-21.7-.99-.19-1.87-.39-2.76-.53-4.05-.6-7.76-2.07-11.2-4.26-1.38-.88-2.26-2.13-2.81-3.62-.61-1.64-.05-2.53,1.72-2.39,1.67.13,3.39.45,4.94,1.06,3.45,1.36,7.06,1.21,10.64,1.48.19.01.39-.13.48-.16.57-1.46.96-2.92,1.68-4.19,2.12-3.7,5.95-3.98,8.62-.7.4.49.7,1.06,1.07,1.58.36.5.74.97,1.23,1.61,3.24-2.78,7.33-1.87,10.94-3.08-3.35-1.06-6.48-3.06-10.43-1.89.93-1.05.42-1.86-.09-2.6ZM287.89,200.7c.08.2.15.46.27.7,1.86,3.65,3.79,7.27,5.59,10.96,2.95,6.05,5.47,12.28,7.05,18.83,1.05,4.33,1.02,8.72-.79,12.91-.56,1.3-1.14,2.52-1.27,3.99-.09.98-.72,1.99-1.32,2.83-1.11,1.56-2.57,2.33-4.6,1.73-1.14-.33-2.37-.39-3.55-.61-2.13-.39-4.07-1.15-5.59-2.77-2.52-2.68-5.05-5.34-7.6-7.99-.74-.77-1.37-1.7-2.64-2.19,0,3.55.02,6.87-.01,10.19,0,.99-.09,1.98-.22,2.96-.11.83-.58,1.38-1.42,1.67-2.06.71-4.06.45-5.98-.38-.41-.18-.77-.82-.87-1.3-.12-.65.4-.96,1.04-1.08,1.05-.21,1.54-.83,1.29-2.08-.49.25-.84.47-1.23.62-1.24.49-2.46,1.15-3.76,1.37-1.63.29-2.88-.37-2.66-2.27.1-.84.23-1.68.37-2.51.3-1.65.05-3.23-.54-4.78-.43-1.11-.89-2.23-1.13-3.39-.58-2.77-1.08-5.55-1.55-8.34-.82-4.89-1.56-9.79-1.21-14.77.14-2-.48-3.57-1.83-4.78-1.92.63-3.69,1.36-5.54,1.79-1.85.43-3.76.73-5.65.77-2.89.05-5.79-.16-8.68-.29-2.4-.1-4.81-.45-7.2-.33-7.79.39-14.96-1.66-21.81-5.17-.4-.21-.84-.36-1.14-.49,0,2.64.03,5.18,0,7.71-.12,7.78-.3,15.55-.39,23.33-.07,6.29-.06,12.59-.07,18.88,0,2.26.11,4.52.03,6.78-.1,2.8.14,3.28,2.75,4.16.59.2,1.24.3,1.87.32,2.12.06,4.24.08,6.36.09,9.33.01,18.65-.65,27.99,0,5.71.4,11.45.38,17.18.45,16.05.21,32.11.38,48.16.56,5.37.06,10.74.14,16.11.16.81,0,1.62-.23,2.52-.38.4-3.33.99-6.48,1.1-9.64.19-5.58.12-11.17.1-16.75-.05-10.04-.14-20.09-.21-30.13-.01-1.69,0-3.38,0-5.14-2.07-1.2-3.91-2.38-5.86-3.35-3.35-1.68-6.71-3.34-10.54-3.68-1.55-.14-3.07-.5-4.62-.64-1.4-.13-2.83-.26-4.22-.12-4.69.47-9.36,1.06-14.11,1.61ZM298.05,244.95c1.64-3.35,2.18-6.47,1.92-9.78-.29-3.64-1.46-7.03-2.59-10.46-3.43-10.4-9.26-19.66-13.86-29.5-1.91-4.08-4.46-7.86-6.76-11.74-4.42-7.48-8.52-15.14-13.56-22.25-1.8-2.53-3.35-5.23-5.07-7.82-1.12-1.7-2.33-3.33-3.65-5.21-.46.93-.92,1.58-1.12,2.3-.47,1.7-.95,3.41-1.18,5.15-.57,4.47-1.64,8.74-4.17,12.55-.43.65-.68,1.4-1.12,2.04-.53.78-.6,1.52-.2,2.37,1.17,2.49,2.08,5.14,3.51,7.48,5,8.2,10.1,16.35,15.31,24.42,3.98,6.17,8.16,12.21,12.3,18.28.91,1.33,1.95,2.6,3.04,3.79,2.87,3.12,5.82,6.17,8.71,9.27,2.75,2.93,5.47,5.89,8.48,9.14ZM272.54,132.53c-1.32,1.43-2.29,2.77-3.53,3.76-1.86,1.5-3.9,2.78-5.89,4.11-1.46.97-2.99,1.13-4.58.11-.81.88-1.55,1.73-2.35,2.52-.84.84-1.7,1.74-3.16.84.46-1.8,1.41-3.36,2.75-4.46,1.04-.86,1.62-1.82,2.12-3.18-2.98.18-5.69.74-7.96,2.63-.35.29-.68.74-.77,1.17-.48,2.2-.8,4.44-1.33,6.62-1.15,4.73-1.96,9.55-3.85,14.09-1.19,2.87-2.27,5.79-3.31,8.72-.68,1.91-1.19,3.88-1.75,5.74,1.7,1.3,2.57,1.11,3.63-.62,1.74-2.83,3.33-5.75,5.07-8.58,1.55-2.53,2.28-5.31,2.77-8.18.22-1.25.35-2.52.54-3.78.39-2.47,1.07-4.84,2.56-6.89.26-.36.69-.59,1.27-1.06,4.2,6.25,8.42,12.25,12.34,18.44,3.94,6.2,7.58,12.58,11.55,19.2.7-2.74-.91-5.78,2.43-7.04.24-3.11.57-6.14.67-9.17.23-6.64.36-13.29.48-19.93.05-2.62,0-5.23-.09-7.85-.13-4.19-1.41-5.71-5.48-6.54-1.44-.29-2.91-.46-4.16-.66ZM242.04,177.27l.28.06c-.27,1.64-.58,3.28-.78,4.94-.09.75-.15,1.6.09,2.29.85,2.39,1.61,4.86,2.82,7.07,2.71,4.95,5.58,9.82,8.54,14.63,3.11,5.05,6.35,10.02,9.64,14.95,2.74,4.11,5.51,8.2,8.5,12.13,3.98,5.24,8.56,9.96,13.18,14.62,1.41,1.42,3.03,2.29,4.95,2.66,1.31.26,2.67.34,3.96.68,2.79.73,4.52-2.95,4.15-4.84-.05-.25-.25-.49-.44-.69-3.58-3.81-7.17-7.6-10.74-11.43-2.79-2.99-5.69-5.91-8.28-9.07-2.05-2.5-3.74-5.31-5.55-8.01-3.57-5.35-7.13-10.7-10.65-16.08-3.13-4.79-6.3-9.56-9.27-14.45-2.46-4.04-4.86-8.12-6.62-12.54-.12-.31-.34-.58-.6-1.01-.57.82-1.01,1.53-1.53,2.19-.52.66-1.11,1.27-1.66,1.9ZM243.79,132.86q-.94-.56-1.77-.61c-1.71-.11-2.2-.67-1.58-2.29.36-.95.23-1.6-.31-2.32-.46-.62-.83-1.32-1.33-1.91-1.78-2.1-4.2-1.99-5.84.26-.37.51-.67,1.09-.87,1.68-.92,2.85-1.39,5.77-1.03,8.76.42,3.45,1.31,6.8,2.77,9.95,1.87,4.03,3.88,7.98,5.88,11.95.59,1.17,1.32,2.28,2.13,3.68,3.37-7.05,3.95-14.54,6.16-21.42-.5-.68-1.1-1.17-1.22-1.75-.12-.59.24-1.28.43-2.06-.86-.08-1.5-.09-2.11-.22-.75-.16-1.54-.31-2.21-.67-1.32-.71-1.28-1.77,0-2.53.27-.16.55-.31.9-.51ZM237.13,176.22c.11-.05.23-.1.34-.14.17-.89.24-1.82.52-2.68.89-2.75,1.85-5.48,2.79-8.21.25-.73.49-1.35.01-2.18-1.62-2.81-3.09-5.7-4.67-8.54-2.28-4.08-4.16-8.33-5.46-12.83-.12-.42-.33-.82-.49-1.23-.14.02-.29.04-.43.06-.16,2.91-.38,5.85.09,8.74,1.24,7.67,3,15.23,5.47,22.6.5,1.51,1.21,2.94,1.83,4.41ZM257.11,215.56c-.15.04-.29.08-.44.12-.03.55-.08,1.09-.07,1.64.08,6.11,1.28,12.07,2.3,18.06.24,1.39.52,2.79.95,4.12.19.59.72,1.26,1.27,1.5.8.34,1.75.33,2.8.49.5-3.57,1.02-6.98,1.46-10.39.25-1.96-.14-3.73-1.56-5.28-.8-.86-1.25-2.04-1.91-3.04-1.58-2.41-3.19-4.8-4.79-7.2ZM213.34,129.1c.36,1.58,1.1,2.54,2.19,3.26,2.85,1.89,5.95,3.19,9.3,3.85,1.54.3,3.1.5,4.76.77v-5.34c-2.74-.22-5.41-.3-8.02-.7-2.67-.41-5.1-2-8.23-1.84ZM266.14,252.37c1.8.76,3.28,1.09,4.79.56.49-.17,1.14-.79,1.16-1.24.16-3.09.19-6.18.22-9.27,0-.84-.61-1.25-1.39-1.29-.96-.05-2.19,1.11-2.25,2.08-.11,1.89-.23,3.79-.23,5.68,0,1.56-.2,2.93-2.3,3.48ZM261.31,242.26c-.21,2.22-.4,4.1-.57,5.98-.07.8-.13,1.77,1,1.7,1.94-.13,3.69-.89,5.09-2.28.22-.22.33-.87.17-1.12-.37-.55-.81-.28-1.21.13-.15.16-.45.17-.77.28-.33-1.44-.64-2.73-.97-4.15-.96-.19-1.9-.37-2.74-.53ZM272.27,239.78c.04-1.04.58-2.15-.3-3.19-1.16-1.37-2.27-2.78-3.47-4.27-.42,2.64-.31,6.63.2,8.22,1.12-.24,2.24-.47,3.57-.76ZM238.81,177.16c-1.66,4.3-1.61,8.25,2.27,10-.14-.43-.21-.76-.36-1.05-.92-1.73-.98-3.47-.24-5.3.23-.56.25-1.24.25-1.86-.01-1.15-.53-1.87-1.92-1.8ZM266.97,230.42c-.1.03-.21.06-.31.09-.46,3.27-1.04,6.54-1.31,9.83-.11,1.34.39,2.75.72,4.1.14.57.61.94,1.4.5-.16-4.81-.33-9.67-.49-14.52ZM244.48,131.09c.33.63.68,1.29,1,1.92,2.25-.54,5.62-2.59,6.46-3.86-3.01-.44-5.45.18-7.46,1.93ZM280.58,186.79c1.28-3.61,1.15-6.6-.25-8.18-.12.18-.32.34-.33.51-.16,2.01-.36,4.03-.39,6.05,0,.48.56.97.98,1.62ZM260.37,140.06c3.87-.26,10.6-5.74,10.53-8.5-2.62,4.05-6.37,6.53-10.53,8.5ZM254.14,132.69c-2.79-.47-4.27,1.54-6.03,3.11.34.18.66.27.91.17,1.29-.5,2.54-1.12,3.85-1.55.9-.29,1.13-.91,1.27-1.72ZM249.75,132.52c-2.11.81-3.87,1.49-5.63,2.16,1.75.94,3.8.25,5.63-2.16ZM248.48,138.5c1.88-1.01,3.63-1.95,5.52-2.97-2.55-.3-4.65.85-5.52,2.97ZM267.47,129.83c1.44-1.32,3.71-1.85,4.19-4.02-1.4,1.35-2.8,2.69-4.19,4.02ZM265.68,114.2c1.34-1.84,1.44-2.8.36-3.43q-.71,2.33-.36,3.43ZM245.86,128.84c-.1-.16-.2-.33-.3-.49-1.22.65-2.44,1.3-3.66,1.95,1.74.4,2.71-.85,3.96-1.46ZM262.64,133.2c.11.12.22.24.33.37,1.03-.69,2.06-1.39,3.09-2.08-.09-.13-.18-.26-.27-.39-1.05.7-2.1,1.41-3.15,2.11ZM253.7,129.66c.03.2.06.4.09.61.82-.2,1.65-.4,2.47-.6-.02-.12-.04-.24-.06-.36-.83.12-1.66.23-2.5.35ZM262.74,113.58c-.09-.02-.17-.05-.26-.07-.16.47-.32.94-.48,1.41.33-.16.49-.39.58-.63.09-.23.11-.47.16-.71ZM267.54,112.56h.23v-1.02c-.05,0-.1,0-.16,0-.02.34-.05.68-.07,1.02ZM253.78,128.05c0-.14-.02-.28-.03-.42-.59.03-1.19.06-1.78.09.41.37.82.44,1.23.46.19,0,.38-.09.57-.14Z"/>
    <path d="M325.68,284.45c1.29,2.22,3.57,1.39,5.21,2.14.37,2.76-.2,3.82-2.2,4.31-1.14.28-2.15.07-2.83-.89-.77-1.08-1.4-2.25-2.09-3.39-.37-.62-.73-1.25-1.33-1.79-1.16,2.01-.5,3.69.91,5.33-1.93-.19-3.65-.36-5.58-.56.31-1.18.67-2.29.89-3.42.26-1.31.44-2.63.57-3.96.18-1.86-.02-3.62-1.83-4.97,2.72,0,5.44-.1,8.15.03,2.03.1,2.85.87,3.08,2.56.32,2.39-.15,3.53-1.99,4.08-.32.1-.61.32-.97.51ZM325.45,280.31c-1.4-.68-2.68-.65-3.35.21.08.46.19,1.05.29,1.6,2.67.06,2.83-.04,3.06-1.81Z"/>
    <path d="M227.34,277.32c.56-.16,1.13-.47,1.68-.45,2.04.05,4.1.07,6.12.35,2.78.39,4.58,3.99,3.19,6.4-.39.68-1.42.98-2.15,1.46.92,1.25,1.02,1.29,4.15,1.51-.03.59-.06,1.19-.08,1.79-.01.56,0,1.12,0,1.75-1.45.51-2.84.22-4.17-.12-1.14-.29-1.57-1.35-1.97-2.33-.21-.52-.25-1.1-.43-1.63-.21-.64-.57-1.17-1.37-1-.75.15-1.28.96-1.12,1.76.1.48.33.93.49,1.39.2.58.4,1.17.65,1.91-1.88.45-3.52.29-5.28-.29.44-1.02.81-1.85,1.16-2.68.77-1.84,1.2-3.72,1.13-5.75-.06-1.64-.21-3.08-2-4.05ZM233.83,279.26c-1.42-.03-1.89.35-1.91,1.41-.01.89.44,1.27,1.28,1.3,1.09.05,2.31-.73,2.22-1.49-.12-.92-.72-1.31-1.58-1.23Z"/>
    <path d="M212.67,277.66h3.38c0,1.16-.07,2.27.02,3.37.11,1.41.27,2.82.57,4.19.28,1.3,1.18,1.78,2.38,1.19.71-.35,1.42-.98,1.81-1.67.77-1.35,1.26-2.82.91-4.46-.16-.74-.13-1.52-.2-2.45h3.4c.06.41.21.81.18,1.2-.19,2.32-.35,4.65-.67,6.96-.53,3.85-4.18,5.75-7.76,4.18-2.28-1-3.62-2.54-3.64-5.16-.02-2.38-.23-4.76-.36-7.36Z"/>
    <path d="M305.08,277.58c3.36-.15,6.72-.31,10.26-.47.12,1.36.22,2.44.34,3.8-.81-.34-1.35-.69-1.93-.78-1.16-.17-2.35-.28-3.53-.24-.64.02-.9.6-.77,1.27.14.73.6.91,1.24.72.6-.17,1.19-.38,1.98-.63v3.55c-.85-.18-1.66-.42-2.48-.53-.72-.09-1.45-.03-1.6.94-.13.83-.02,1.54.87,1.94,1.43.63,2.77.34,4.05-.37.72-.4,1.39-.88,2.38-1.52-.23,1.81-.41,3.29-.6,4.73-3.61.26-7.16.52-10.82.78.49-1.45,1.05-2.87,1.43-4.34.34-1.35.54-2.75.69-4.14.19-1.71.11-3.38-1.81-4.37.09-.12.19-.24.28-.35Z"/>
    <path d="M262.46,289.89c-.06-.55-.15-1.03-.16-1.52,0-.62.05-1.25.08-1.96,2-.14,4.15,1.77,5.85-.43-.35-1.21-1.25-1.15-2.09-1.24-2.12-.22-3.06-1.13-3.27-3.13-.2-1.85.72-3.32,2.61-3.79,1.55-.38,3.17-.5,4.75-.73,1,1.4.31,2.73.41,4.1-1.45.23-3-1.53-4.33.34.45.97,1.36,1,2.24,1.17,2.15.42,3.17,1.68,3.12,3.61-.02,1.08-.5,1.91-1.32,2.53-1.92,1.47-3.97,2.46-6.46,1.47-.45-.18-.92-.28-1.43-.44Z"/>
    <path d="M294.98,290.34c.37-2.5.71-4.77,1.03-7.04.06-.41.09-.85.03-1.26-.18-1.28-.85-1.67-2.08-1.22-.52.19-1,.48-1.61.79-.77-1.31-.86-2.63-.67-4.1h11.3c.2,1.29.38,2.44.6,3.79-1.02-.31-1.77-.64-2.56-.76-1.82-.29-2.69.73-2.12,2.48.5,1.54,1.11,3.04,1.63,4.58.22.63.34,1.29.57,2.22-2.29.2-4.27.38-6.13.54Z"/>
    <path d="M201.12,286.29c1.02.41,1.65.78,2.32.9.74.13,1.59.19,2.26-.06.48-.17.9-.87,1.05-1.41.06-.21-.67-.74-1.12-.96-.56-.27-1.22-.33-1.82-.54-1.78-.65-2.32-1.54-2.1-3.4.2-1.72.92-2.5,2.69-2.74,1.58-.22,3.18-.35,4.85-.53v3.23c-1.65.04-3.28-1-4.67.45.31.98,1.08.83,1.72,1.04.98.31,2.01.68,2.79,1.32,1.43,1.18,1.54,3.02.51,4.57-1.57,2.36-3.99,3.32-6.57,2.59-1.62-.46-1.81-.68-1.89-2.32-.03-.62,0-1.24,0-2.14Z"/>
    <path d="M252.2,277.71v3.84c-.86-.54-1.46-1.02-2.13-1.31-.62-.27-1.34-.51-2-.46-.86.07-1.2.65-.6,1.67.49-.13,1-.27,1.52-.39.74-.17,1.33.05,1.39.85.08,1.03.02,2.06.02,3.18-.7-.32-1.23-.69-1.82-.82-1.39-.32-2.06.23-1.93,1.65.13,1.4.46,2.78.73,4.32h-5.46c.31-.92.58-1.63.78-2.36.38-1.36.78-2.71,1.05-4.09.42-2.19.48-4.34-2.04-6.02,3.73-.45,6.98-.74,10.49-.07Z"/>
    <path d="M281.32,285.99c1.01.48,1.61.85,2.26,1.06.59.18,1.26.32,1.84.2.66-.14,1.41-.47,1.41-1.35,0-.8-.64-1-1.28-1.17-.61-.16-1.23-.33-1.82-.55-1.43-.55-2.2-1.74-2.2-3.28,0-1.47.79-2.39,2.1-2.86,1.73-.61,3.5-1,5.5-.74.05,1.1.1,2.13.15,3.33-.95-.11-1.77-.23-2.6-.28-.85-.06-1.65.23-1.72,1.16-.07.81.61,1.18,1.38,1.3.42.06.83.18,1.24.29,2.38.69,3.19,3.27,1.63,5.2-1.76,2.18-4.22,2.36-6.75,2.27-.75-.03-1.11-.58-1.13-1.3-.03-.98,0-1.97,0-3.28Z"/>
    <path d="M279.52,277.81c-3.27,4.31-1.39,8.24-.58,12.2-1.25.67-4.5,1.04-6.35.61,2.09-4.18,2.32-8.48.68-12.81h6.25Z"/>
    <path class="cls-4" d="M242.82,120.7c.51.74,1.02,1.55.09,2.6,3.95-1.17,7.08.83,10.43,1.89-3.62,1.22-7.71.31-10.94,3.08-.49-.64-.87-1.11-1.23-1.61-.37-.52-.67-1.09-1.07-1.58-2.67-3.27-6.5-3-8.62.7-.73,1.27-1.11,2.73-1.68,4.19-.09.03-.29.17-.48.16-3.57-.27-7.19-.12-10.64-1.48-1.55-.61-3.27-.93-4.94-1.06-1.77-.14-2.33.75-1.72,2.39.55,1.49,1.43,2.73,2.81,3.62,3.45,2.19,7.15,3.67,11.2,4.26.89.13,1.78.34,2.76.53-1.57,7.52.09,14.62,1.78,21.7,1.36,5.71,2.75,11.42,5.27,16.76.66,1.39.96,2.77.63,4.28-.54,2.47.55,4.43,2.07,6.19.49.57,1.17,1.16,1.86,1.34,1.2.3,1.71,1.02,2.13,2.07,1.86,4.62,4.49,8.81,7.19,12.96.92,1.42,1.78,2.88,2.74,4.46-2.39,1.37-4.97,2.15-7.6,2.28-3.45.17-6.92-.1-10.38-.2-3.67-.11-7.34-.3-11.01-.36-6.46-.1-12.33-2.18-17.96-5.14-.62-.32-1.28-.55-1.97-.85-.14-2.78-.27-5.6-.41-8.42-.35-7.28-.86-14.55-1-21.83-.16-8.34-.02-16.69.09-25.03.02-1.74.58-3.46.72-5.2.5-6.13,1.07-12.25,2.32-18.28.46-2.2.98-4.44,1.85-6.5,1.47-3.51,3.13-6.96,4.92-10.33,2.05-3.87,5.51-6.58,8.44-9.72,2.81-3.02,6.15-5.42,9.49-7.78,2.53-1.79,5.3-3.22,8.01-4.74,1.14-.64,2.18-1.63,3.68-1.4.16.03.37-.17.55-.28,3.91-2.57,8.28-3.88,12.82-4.72,2.36-.44,4.7-1.02,7.08-1.24,2.1-.2,4.24.03,6.36.05,1.83.02,3.66-.01,5.48.03.7.02,1.4.12,2.08.27,2.54.59,5.08,1.22,7.62,1.82,4.61,1.09,8.66,3.25,12.58,5.89,5.14,3.48,9.74,7.52,13.81,12.16,2.57,2.92,5.11,5.87,7.43,8.99,1.24,1.67,2.09,3.66,2.95,5.59,1.32,2.96,2.67,5.93,3.7,9.01,2.53,7.57,3.43,15.43,3.7,23.37.09,2.62.23,5.23.19,7.85-.12,7.5-.21,14.99-.52,22.48-.36,8.69-.81,17.38-.55,26.08.02.61,0,1.23,0,2.01-2.44-1.23-4.68-2.36-6.93-3.49-3.06-1.53-6.24-2.6-9.7-2.85-2.04-.14-4.06-.76-6.09-.77-2.53,0-5.06.41-7.59.65-2.39.22-4.78.4-7.16.7-.79.1-1.54.52-2.47.85-.09-.15-.36-.54-.56-.95-1.42-2.84-2.8-5.7-4.27-8.52-.51-.97-.72-1.76-.42-2.94.63-2.46.85-5.02.26-7.56-.13-.54-.16-1.12-.12-1.68.37-5.57.95-11.14,1.11-16.72.21-7.14.16-14.29.07-21.44-.05-4.24-1.77-6.08-5.99-6.95-1.44-.3-2.89-.5-4.62-.8.19-.93.28-1.74.53-2.5,1.3-3.98,1.58-8.02.67-12.11-.93-4.17-3.79-6.82-8.03-7.3-1.12-.13-2.47.11-3.44.66-2.46,1.41-4.25,3.48-4.83,6.39-.08.42-.13.84-.23,1.25-.56,2.43-.93,2.75-3.49,2.55-2.46-.2-4.91-.59-7.37-.78-1.73-.14-1.93,0-3.46.99Z"/>
    <path class="cls-4" d="M287.89,200.7c4.75-.55,9.43-1.14,14.11-1.61,1.39-.14,2.82-.01,4.22.12,1.55.14,3.07.5,4.62.64,3.83.34,7.2,2,10.54,3.68,1.94.97,3.78,2.16,5.86,3.35,0,1.76-.01,3.45,0,5.14.07,10.04.17,20.09.21,30.13.03,5.59.1,11.17-.1,16.75-.11,3.16-.7,6.31-1.1,9.64-.9.14-1.71.38-2.52.38-5.37-.02-10.74-.1-16.11-.16-16.05-.18-32.11-.35-48.16-.56-5.73-.08-11.47-.06-17.18-.45-9.34-.65-18.66.01-27.99,0-2.12,0-4.24-.03-6.36-.09-.63-.02-1.28-.12-1.87-.32-2.61-.88-2.85-1.37-2.75-4.16.08-2.26-.04-4.52-.03-6.78,0-6.29,0-12.59.07-18.88.09-7.78.27-15.55.39-23.33.04-2.53,0-5.07,0-7.71.31.13.74.28,1.14.49,6.85,3.51,14.01,5.56,21.81,5.17,2.39-.12,4.8.23,7.2.33,2.89.13,5.79.34,8.68.29,1.89-.03,3.8-.34,5.65-.77,1.84-.43,3.62-1.16,5.54-1.79,1.36,1.21,1.97,2.78,1.83,4.78-.35,4.98.39,9.88,1.21,14.77.47,2.79.97,5.57,1.55,8.34.24,1.16.71,2.28,1.13,3.39.59,1.55.84,3.13.54,4.78-.15.83-.27,1.67-.37,2.51-.23,1.9,1.02,2.56,2.66,2.27,1.29-.23,2.51-.89,3.76-1.37.38-.15.74-.37,1.23-.62.25,1.25-.24,1.87-1.29,2.08-.64.13-1.16.43-1.04,1.08.09.48.45,1.13.87,1.3,1.93.82,3.93,1.09,5.98.38.84-.29,1.31-.85,1.42-1.67.13-.98.21-1.97.22-2.96.03-3.32.01-6.64.01-10.19,1.27.49,1.9,1.42,2.64,2.19,2.55,2.65,5.08,5.31,7.6,7.99,1.53,1.63,3.47,2.38,5.59,2.77,1.18.22,2.4.27,3.55.61,2.02.59,3.49-.17,4.6-1.73.6-.85,1.23-1.85,1.32-2.83.13-1.47.71-2.69,1.27-3.99,1.81-4.2,1.83-8.58.79-12.91-1.58-6.55-4.1-12.78-7.05-18.83-1.8-3.68-3.73-7.3-5.59-10.96-.12-.24-.19-.5-.27-.7Z"/>
    <path class="cls-4" d="M298.05,244.95c-3.01-3.25-5.74-6.2-8.48-9.14-2.9-3.1-5.84-6.15-8.71-9.27-1.09-1.19-2.13-2.45-3.04-3.79-4.14-6.07-8.32-12.11-12.3-18.28-5.21-8.07-10.31-16.22-15.31-24.42-1.42-2.34-2.33-4.98-3.51-7.48-.4-.85-.33-1.59.2-2.37.44-.64.69-1.4,1.12-2.04,2.52-3.81,3.6-8.09,4.17-12.55.22-1.74.71-3.45,1.18-5.15.2-.72.66-1.37,1.12-2.3,1.32,1.88,2.53,3.52,3.65,5.21,1.71,2.59,3.27,5.29,5.07,7.82,5.04,7.1,9.14,14.77,13.56,22.25,2.3,3.89,4.85,7.67,6.76,11.74,4.61,9.84,10.44,19.11,13.86,29.5,1.13,3.43,2.3,6.82,2.59,10.46.26,3.31-.28,6.43-1.92,9.78Z"/>
    <path d="M272.54,132.53c1.25.19,2.72.36,4.16.66,4.07.83,5.34,2.35,5.48,6.54.08,2.61.14,5.23.09,7.85-.12,6.65-.26,13.29-.48,19.93-.1,3.03-.44,6.06-.67,9.17-3.34,1.27-1.73,4.31-2.43,7.04-3.97-6.62-7.62-13-11.55-19.2-3.93-6.18-8.14-12.19-12.34-18.44-.58.47-1.01.71-1.27,1.06-1.49,2.05-2.17,4.42-2.56,6.89-.2,1.26-.33,2.52-.54,3.78-.5,2.87-1.23,5.65-2.77,8.18-1.73,2.83-3.33,5.75-5.07,8.58-1.06,1.73-1.93,1.92-3.63.62.56-1.86,1.07-3.83,1.75-5.74,1.04-2.93,2.11-5.85,3.31-8.72,1.89-4.54,2.7-9.36,3.85-14.09.53-2.19.85-4.42,1.33-6.62.09-.43.42-.88.77-1.17,2.27-1.88,4.98-2.45,7.96-2.63-.5,1.36-1.07,2.32-2.12,3.18-1.33,1.1-2.29,2.65-2.75,4.46,1.46.9,2.32,0,3.16-.84.79-.79,1.53-1.64,2.35-2.52,1.59,1.02,3.12.86,4.58-.11,1.99-1.33,4.03-2.61,5.89-4.11,1.24-.99,2.21-2.33,3.53-3.76ZM279.44,176.4c.9-.33.66-1.06.53-1.62-.6-2.76-1.01-5.59-1.98-8.22-1.09-2.96-1.29-5.87-.99-8.95.44-4.5.72-9.01,1.04-13.52.04-.5-.1-1-.15-1.51-.17-.02-.33-.05-.5-.07-.19.55-.45,1.08-.55,1.64-.56,3.13-1.21,6.25-1.57,9.41-.41,3.66-.26,7.28.8,10.91,1.09,3.78,2.78,7.43,2.98,11.45,0,.16.25.31.38.46ZM265.08,157.65c.24.06.49.11.73.17.11-.87.29-1.74.33-2.62.15-3.87-.14-7.77.78-11.6.23-.97.1-2.03-.96-3.24-1.23,6.04-1.16,11.66-.88,17.3Z"/>
    <path class="cls-4" d="M242.04,177.27c.56-.63,1.15-1.24,1.66-1.9.52-.66.96-1.37,1.53-2.19.26.43.48.7.6,1.01,1.75,4.42,4.16,8.51,6.62,12.54,2.97,4.89,6.14,9.66,9.27,14.45,3.52,5.38,7.08,10.73,10.65,16.08,1.8,2.7,3.49,5.5,5.55,8.01,2.59,3.16,5.49,6.08,8.28,9.07,3.56,3.82,7.16,7.61,10.74,11.43.19.2.39.44.44.69.37,1.89-1.36,5.58-4.15,4.84-1.29-.34-2.65-.43-3.96-.68-1.91-.38-3.53-1.24-4.95-2.66-4.63-4.67-9.21-9.39-13.18-14.62-2.98-3.93-5.76-8.03-8.5-12.13-3.29-4.93-6.53-9.9-9.64-14.95-2.96-4.81-5.84-9.67-8.54-14.63-1.21-2.21-1.97-4.68-2.82-7.07-.25-.69-.18-1.54-.09-2.29.2-1.65.51-3.29.78-4.94l-.28-.06Z"/>
    <path class="cls-4" d="M243.79,132.86c-.35.2-.63.35-.9.51-1.28.76-1.32,1.82,0,2.53.66.36,1.45.51,2.21.67.61.13,1.24.13,2.11.22-.18.78-.55,1.47-.43,2.06.12.59.72,1.08,1.22,1.75-2.21,6.88-2.79,14.37-6.16,21.42-.82-1.4-1.54-2.5-2.13-3.68-1.99-3.97-4.01-7.93-5.88-11.95-1.46-3.15-2.36-6.5-2.77-9.95-.36-2.99.11-5.91,1.03-8.76.19-.59.5-1.18.87-1.68,1.64-2.25,4.06-2.36,5.84-.26.5.59.86,1.29,1.33,1.91.54.73.67,1.38.31,2.32-.61,1.62-.13,2.18,1.58,2.29q.83.05,1.77.61Z"/>
    <path class="cls-4" d="M237.13,176.22c-.62-1.47-1.32-2.91-1.83-4.41-2.47-7.37-4.23-14.93-5.47-22.6-.47-2.89-.25-5.83-.09-8.74.14-.02.29-.04.43-.06.17.41.37.81.49,1.23,1.3,4.5,3.18,8.75,5.46,12.83,1.58,2.83,3.05,5.73,4.67,8.54.48.83.24,1.45-.01,2.18-.94,2.73-1.9,5.46-2.79,8.21-.28.86-.35,1.78-.52,2.68-.11.05-.23.1-.34.14Z"/>
    <path d="M257.11,215.56c1.6,2.4,3.21,4.79,4.79,7.2.66,1,1.11,2.18,1.91,3.04,1.43,1.55,1.82,3.32,1.56,5.28-.44,3.42-.95,6.83-1.46,10.39-1.05-.16-2-.14-2.8-.49-.55-.24-1.08-.91-1.27-1.5-.43-1.34-.71-2.73-.95-4.12-1.02-5.99-2.22-11.95-2.3-18.06,0-.54.05-1.09.07-1.64.15-.04.29-.08.44-.12Z"/>
    <path class="cls-4" d="M213.34,129.1c3.13-.16,5.55,1.43,8.23,1.84,2.62.4,5.29.47,8.02.7v5.34c-1.66-.26-3.22-.46-4.76-.77-3.35-.66-6.45-1.96-9.3-3.85-1.09-.72-1.83-1.68-2.19-3.26Z"/>
    <path class="cls-4" d="M266.14,252.37c2.1-.55,2.29-1.92,2.3-3.48,0-1.89.13-3.79.23-5.68.05-.98,1.29-2.13,2.25-2.08.77.04,1.39.44,1.39,1.29-.02,3.09-.06,6.19-.22,9.27-.02.44-.67,1.07-1.16,1.24-1.51.53-3,.21-4.79-.56Z"/>
    <path class="cls-4" d="M261.31,242.26c.83.16,1.78.35,2.74.53.33,1.42.63,2.71.97,4.15.33-.11.62-.12.77-.28.4-.41.84-.68,1.21-.13.16.24.06.89-.17,1.12-1.4,1.39-3.15,2.15-5.09,2.28-1.13.08-1.07-.9-1-1.7.17-1.88.36-3.76.57-5.98Z"/>
    <path d="M272.27,239.78c-1.33.28-2.45.52-3.57.76-.51-1.59-.62-5.58-.2-8.22,1.2,1.48,2.31,2.89,3.47,4.27.88,1.04.34,2.15.3,3.19Z"/>
    <path class="cls-4" d="M238.81,177.16c1.39-.07,1.91.65,1.92,1.8,0,.62-.02,1.3-.25,1.86-.74,1.82-.68,3.56.24,5.3.15.29.22.62.36,1.05-3.88-1.75-3.93-5.7-2.27-10Z"/>
    <path class="cls-4" d="M266.97,230.42c.16,4.85.33,9.71.49,14.52-.78.44-1.26.07-1.4-.5-.33-1.35-.83-2.76-.72-4.1.27-3.29.85-6.55,1.31-9.83.1-.03.21-.06.31-.09Z"/>
    <path class="cls-4" d="M244.48,131.09c2.02-1.76,4.46-2.37,7.46-1.93-.84,1.27-4.21,3.31-6.46,3.86-.33-.63-.67-1.29-1-1.92Z"/>
    <path class="cls-4" d="M280.58,186.79c-.41-.66-.98-1.14-.98-1.62.03-2.02.23-4.03.39-6.05.01-.18.21-.34.33-.51,1.4,1.58,1.53,4.57.25,8.18Z"/>
    <path class="cls-4" d="M260.37,140.06c4.16-1.98,7.91-4.46,10.53-8.5.07,2.77-6.66,8.25-10.53,8.5Z"/>
    <path class="cls-4" d="M254.14,132.69c-.14.82-.37,1.43-1.27,1.72-1.31.43-2.56,1.05-3.85,1.55-.25.1-.57.01-.91-.17,1.76-1.57,3.25-3.58,6.03-3.11Z"/>
    <path class="cls-4" d="M249.75,132.52c-1.83,2.42-3.88,3.11-5.63,2.16,1.76-.68,3.52-1.35,5.63-2.16Z"/>
    <path class="cls-4" d="M248.48,138.5c.87-2.12,2.97-3.27,5.52-2.97-1.89,1.02-3.64,1.96-5.52,2.97Z"/>
    <path class="cls-4" d="M267.47,129.83c1.39-1.34,2.79-2.68,4.19-4.02-.48,2.18-2.76,2.7-4.19,4.02Z"/>
    <path class="cls-4" d="M245.86,128.84c-1.26.61-2.22,1.86-3.96,1.46,1.22-.65,2.44-1.3,3.66-1.95.1.16.2.33.3.49Z"/>
    <path class="cls-4" d="M262.64,133.2c1.05-.7,2.1-1.41,3.15-2.11.09.13.18.26.27.39-1.03.69-2.06,1.39-3.09,2.08-.11-.12-.22-.24-.33-.37Z"/>
    <path class="cls-4" d="M253.7,129.66c.83-.12,1.66-.23,2.5-.35.02.12.04.24.06.36-.82.2-1.65.4-2.47.6-.03-.2-.06-.4-.09-.61Z"/>
    <path class="cls-4" d="M262.74,113.58c-.05.24-.08.49-.16.71-.09.25-.24.47-.58.63.16-.47.32-.94.48-1.41.09.02.17.05.26.07Z"/>
    <path class="cls-4" d="M267.54,112.56c.02-.34.05-.68.07-1.02.05,0,.1,0,.16,0v1.03h-.23Z"/>
    <path class="cls-4" d="M253.78,128.05c-.19.05-.38.15-.57.14-.41-.02-.82-.09-1.23-.46.59-.03,1.19-.06,1.78-.09,0,.14.02.28.03.42Z"/>
    <path class="cls-4" d="M279.44,176.4c-.13-.16-.37-.3-.38-.46-.2-4.02-1.89-7.67-2.98-11.45-1.05-3.63-1.21-7.25-.8-10.91.36-3.15,1.01-6.28,1.57-9.41.1-.56.36-1.1.55-1.64.17.02.33.05.5.07.05.5.18,1.01.15,1.51-.32,4.51-.6,9.03-1.04,13.52-.3,3.08-.11,5.98.99,8.95.97,2.63,1.38,5.46,1.98,8.22.12.56.36,1.28-.53,1.62Z"/>
    <path class="cls-4" d="M265.08,157.65c-.28-5.64-.35-11.26.88-17.3,1.06,1.21,1.19,2.27.96,3.24-.92,3.83-.63,7.73-.78,11.6-.03.88-.21,1.75-.33,2.62-.24-.06-.49-.11-.73-.17Z"/>
    <path class="cls-4" d="M260.45,113.35c-.94,1.08-1.33,2.41-1.7,3.76-.4,1.47-.89,3.17-2.29,3.98s-3.31.52-4.89.4c-1.93-.15-3.86-.31-5.79-.46-.38-.03-.37.56,0,.59,2.02.16,4.05.32,6.07.48,1.55.12,3.24.33,4.69-.39,3.04-1.52,2.32-5.65,4.31-7.95.25-.28-.17-.7-.42-.42h0Z"/>
    <path class="cls-4" d="M261.95,112.34c-2.27,2.44-2.63,5.75-4,8.65-1.94,4.1-6.52,1.06-9.78,1.25-.38.02-.38.61,0,.59,3.08-.17,7.36,2.61,9.74-.61.98-1.32,1.37-3.09,1.89-4.62.6-1.74,1.29-3.47,2.56-4.84.26-.28-.16-.69-.42-.42h0Z"/>
    <path class="cls-4" d="M264.09,111.42c-1.94,2.02-3.04,4.42-3.74,7.11-.33,1.27-.63,2.57-1.31,3.71-.83,1.39-2.22,2.28-3.83,2.39-.37.03-.38.62,0,.59,1.37-.1,2.66-.66,3.59-1.68s1.38-2.22,1.75-3.47c.4-1.39.67-2.81,1.24-4.14.64-1.52,1.57-2.9,2.72-4.1.26-.27-.15-.69-.42-.42h0Z"/>
    <path class="cls-4" d="M264.44,113.31c-2.73,3.75-2.47,9.44-6.29,12.43-2.12,1.66-4.94,1.64-7.51,1.53-1.98-.08-4.8-.56-6.4.95-.28.26.14.67.42.42,1.07-1.01,2.81-.87,4.18-.84s2.85.16,4.27.1c2.09-.08,4.19-.58,5.78-2,3.55-3.19,3.35-8.56,6.06-12.28.22-.31-.29-.6-.51-.3h0Z"/>
    <path class="cls-4" d="M266.13,112.41c-1.15,2.28-2.31,4.57-3.12,7-.43,1.3-.62,2.65-1.03,3.95-.44,1.4-1.47,2.3-2.53,3.24-1,.89-2.04,1.76-3.26,2.33s-2.69.57-3.98,1.07c-1.96.76-3.12,2.83-5.21,3.3-.37.08-.21.65.16.57,2.29-.52,3.52-2.81,5.74-3.48,1.2-.36,2.45-.41,3.6-.96s2.16-1.35,3.11-2.18c.87-.76,1.82-1.52,2.42-2.53.68-1.12.8-2.46,1.13-3.71.77-2.92,2.14-5.63,3.5-8.31.17-.34-.34-.63-.51-.3h0Z"/>
    <path class="cls-4" d="M267.53,111.94c-.36,2.62-1.2,5.11-2.18,7.56s-1.93,5.1-3.63,7.17c-1.45,1.76-3.32,3.13-5.35,4.15s-4.35,1.34-6.09,2.75c-.29.24.12.65.42.42,1.09-.88,2.44-1.2,3.73-1.68,1.03-.38,2.03-.84,2.99-1.37,1.9-1.06,3.64-2.45,4.98-4.17,1.51-1.94,2.38-4.3,3.3-6.56,1.08-2.62,2.01-5.29,2.4-8.11.05-.37-.51-.53-.57-.16h0Z"/>
    <path class="cls-4" d="M268.67,112.7c-.67,1.98-1.34,3.95-2.02,5.92s-1.29,4.11-2.33,5.98c-.95,1.7-2.25,3.21-3.52,4.68s-2.91,2.97-5.02,3.17c-.37.04-.38.62,0,.59,1.78-.17,3.26-1.1,4.51-2.34,1.47-1.46,2.86-3.17,3.99-4.9s1.85-3.87,2.55-5.9c.81-2.34,1.61-4.68,2.4-7.03.12-.36-.45-.51-.57-.16h0Z"/>
    <path class="cls-4" d="M270.05,113.17c-.6,3.8-2.56,7.32-4.42,10.64-.88,1.57-1.86,3.1-3.16,4.37s-2.94,2.14-4.17,3.5c-.25.28.16.7.42.42,1.25-1.4,2.95-2.28,4.27-3.61s2.26-2.81,3.14-4.38c1.88-3.36,3.87-6.93,4.48-10.78.06-.37-.51-.53-.57-.16h0Z"/>
    <path class="cls-4" d="M271.56,116.55c-1.45,3.6-2.98,7.13-5.63,10.03-1.21,1.32-2.49,2.61-3.84,3.77-1.44,1.23-3.08,2.27-5,2.48-.37.04-.38.63,0,.59,3.76-.41,6.63-3.59,9.06-6.2,2.82-3.03,4.45-6.71,5.98-10.5.14-.35-.43-.5-.57-.16h0Z"/>
    <path class="cls-4" d="M272.28,119.56c-1.37,1.9-2.31,4.04-3.45,6.07-1.28,2.28-2.97,4.12-5.05,5.69-1.92,1.44-4.01,2.95-6.42,3.36-1.2.2-2.43.21-3.63.45s-2.4.65-3.53,1.17c-.34.16-.04.66.3.51,1.44-.67,2.95-1.1,4.52-1.29,1.23-.14,2.47-.18,3.66-.54,2.16-.67,4.12-2.13,5.88-3.51s3.34-3.07,4.51-5.05c1.28-2.17,2.24-4.51,3.73-6.56.22-.31-.29-.6-.51-.3h0Z"/>
    <path class="cls-4" d="M272.21,123.24c-1.24,2.87-3.2,5.39-5.19,7.79-.96,1.16-2.03,2.04-3.37,2.72-1.25.64-2.53,1.19-3.61,2.11-.29.25.13.66.42.42,1.14-.97,2.55-1.5,3.86-2.21s2.33-1.65,3.26-2.79c1.96-2.39,3.91-4.88,5.14-7.74.15-.34-.36-.64-.51-.3h0Z"/>
    <path class="cls-4" d="M271.22,128.2c-1.86,3.22-4.53,5.93-7.75,7.8-1.57.91-3.28,1.54-4.87,2.42-1.27.7-3.12,1.81-3.49,3.32-.09.37.48.52.57.16.23-.96,1.33-1.76,2.11-2.29s1.56-.94,2.38-1.33c1.59-.76,3.19-1.46,4.67-2.44,2.83-1.88,5.19-4.4,6.89-7.34.19-.33-.32-.62-.51-.3h0Z"/>
  </g>
</svg>