<?xml version="1.0" encoding="UTF-8"?>
<svg id="Layer_1" xmlns="http://www.w3.org/2000/svg" viewBox="0 0 400 400">
  <defs>
    <style>
      .cls-1 {
        fill: #614e2c;
      }

      .cls-1, .cls-2, .cls-3, .cls-4, .cls-5, .cls-6, .cls-7 {
        fill-rule: evenodd;
      }

      .cls-2 {
        fill: #ad9364;
      }

      .cls-3, .cls-8 {
        fill: #fff;
      }

      .cls-4 {
        fill: #413316;
      }

      .cls-5 {
        fill: #ed1c24;
      }

      .cls-8 {
        font-family: AmericanTypewriter-CondensedBold, 'American Typewriter';
        font-size: 52.8px;
        font-weight: 700;
        letter-spacing: -.1em;
      }

      .cls-7 {
        fill: #7b6742;
      }
    </style>
  </defs>
  <g>
    <polygon class="cls-5" points="69.62 141.29 17.25 217.94 19.86 221.24 119.74 217.77 83.86 151.87 73.19 139.39 69.62 141.29"/>
    <path class="cls-6" d="M101.67,178.65c3.51.5,2.59,5.89,6.26,6.23.09,3.85,2.07,5.65,4.5,6.91-.28,4.06,2.02,5.28,4.47,6.32.28,1-.4,1.14-1.12,1.24.82.82,2.78,1.35,1.32,2.91.46-.34.95-.67,1.74-.69.28,1.19-.03,1.86-1.09,1.84,1.19,1.51,4.61,4.74,2.67,5.81.6,1.01,1.93,1.22,3.6,1.01.33,4.86,3,7.12,3,12.34-.57-.34-2.25-1.28-1.74.67-1.07-1.11-4.13-.01-4.27-2.16-1.31,2.34-4.06-1.55-7.05,1.54-1.8.3-1.34-1.87-1.95-2.88-1.69.6.85,1.46.15,2.97-.46-.38-2-2.41-1.78.08-8.28-.58-20.59-.62-27.92.18-.03-.58-.06-1.18-.09-1.77-2.68,1.57-5.81,1.88-8.3.4-1.61,2.32-12.64,2.38-16.02.8-6.51,3.75-21.02.23-24.17,4.16-5.11-2.87-13.92.37-20.31-1.97-.6-1.87.4-2.28,1.04-3.03-2.39-.09-1-.46-1.38-4.1,2.76-.89,3.9-3.25,3.83-6.72,2.75.43,1.2-3.05,4.03-2.58-.52-1.8-.47-1.11-.15-2.97,4.03.45,1.59-4.98,5.1-5-.41-.58-1.39-.55-1.27-1.72,2.39.65,1.12-2.01,3.5-1.36-.04-.99-.09-1.97-.15-2.96.52-.48,1.32-.71,2.34-.71,3.48-8.95,9.99-15.13,13.69-23.86,2.05-.04,2.7-1.34,2.2-3.68,1.74.07,1.74-1.43,3.51-1.36,1.44-7.95,9.01-10.35,10.38-18.35,6.51-1.46,4.95-10.24,11.29-11.85-.41-.58-1.38-.55-1.27-1.72,1.95-.12,2.9-1.16,5.31-.86,2.66,1.89-.7,3.06,3.11,2.81-2.46,2.68.76,10.53,3.43,9.34.89.16.15,4.49,3.16,4.01-.32,1.84.73,2.14.79,3.53,7.63,6.37,9.09,19.56,16.73,25.92.27,1-.4,1.15-1.13,1.25ZM67.02,151.24c-1.87.82-.53-1.9-2.43-1.08-.9.31-.41,1.9-2.29,1.31-.74,3.12-1.47,6.22-4.4,7.35-.7,3.28,1.67,3.15,2.61,4.63-4.12,3.02-4.14,12.7-11.42,9.47.67,1.77,2.84,1.86,3.17,4.02-1.57.81-2.73,1.12-3.5,1.35,2.53,2.07-.67,1.55-1.64,3.05-2.54,3.93-3.91,10.13-8.35,11.12-.16,2.87-1.2,4.96-3.89,5.54,1.5,3.07-.88.42-1.71,1.88,3.82.72-2.43,2.61.22,4.15-4.22.89-3.19,6.54-6.11,8.63-.39-1.03.54-3.52-.76-3.54,0,.93.19,2.05-1.1,1.84-.64,1.95,1.93.36,1.31,2.31-2.46.61-2.01,3.85-3.29,5.52,6.18-1.36,16.22-1.47,23.13-1.15.1-.46-.04-1.17.53-1.22,23.01,2.1,41.35-1.48,69.45-2.24-1.29-6.23-6.8-9.23-8.95-12.64-.72-5.27-5.7-5.8-5.92-11.6-2.66.4-2.29-2.11-1.96-3.47-2.37.06-4.51-3.78-2.6-4.63-1.86,1.01-1.99-.35-3.62-1.01-4.29-12.95-14.51-22.09-19.44-32.33.03.6-1.01.8-1.18.05.72-.09,1.38-.24,1.13-1.24-1.66.57-1.58-.76-3-.44-2.87,4-4.14,9.46-8.94,11.73,1.25,2.03-.43,2.88-1.56,4.24-.72-2.35-.14-4.62.87-6.58.98-.04.4,1.63,1.27,1.72.13-2.55,2.17-7.4,3.91-4.95-.06-.81.21-1.32.5-1.8Z"/>
  </g>
  <text class="cls-8" transform="translate(56.99 208.5)"><tspan x="0" y="0">4</tspan></text>
  <g>
    <path class="cls-6" d="M321.06,212.06c-.51,4.17-.96,8.2-1.5,12.21-.36,2.63.65,5.07.97,7.6.05.36.36.69.58,1.02.77,1.16.78,1.89-.25,2.87-1.83,1.75-3.8,3.21-6.57,3.17-3.19-.05-6.39,0-9.59.13-3.7.16-7.4.42-11.1.72-6.2.5-12.4,1-18.59,1.63-7.86.8-15.71.99-23.6.47-7.69-.5-15.39-.94-23.1-.47-2.79.17-5.58.37-8.37.34-3.02-.04-6.03-.35-9.05-.5-1.76-.08-3.53-.1-5.3-.1-1.71,0-3.5.42-5.1.03-1.34-.32-2.56-.12-3.83-.14-1.2-.01-2.1-.41-2.59-1.58-.36-.87-.93-1.53-1.92-1.8-.57-.16-.67-.65-.55-1.25.53-2.54.21-5.06-.12-7.6-.14-1.06-.25-2.16-.11-3.21.44-3.34.97-6.66.43-10.29-1.38-.2-2.82-.46-4.27-.6-3.35-.34-6.7-.66-10.06-.91-2.73-.2-5.47-.36-8.2-.42-7.59-.16-15.19-.3-22.78-.36-3.31-.02-6.62.13-9.92.31-2.22.12-4.26-.52-5.88-1.82-1.33-1.07-2.48-2.58-3.21-4.12-.69-1.44-.72-3.19-1.06-4.8-.12-.55-.16-1.16-.43-1.63-1.07-1.82-1.35-3.86-1.68-5.88-.15-.9-.31-1.8-.43-2.71-.1-.73-.22-1.46-.19-2.19.05-1.94.08-3.89.29-5.81.18-1.69.57-3.36.87-5.04.33-1.85.96-3.58,2.5-5.04-.55-.24-.8-.32-1.03-.45-.95-.53-1.22-.94-.85-1.94.45-1.21.96-2.48,1.76-3.47.99-1.22,1.51-2.51,1.7-4.02.19-1.54.21-1.55,1.75-1.77.67-.1,1.36-.12,2.04-.2.27-.03.7-.02.79-.19.67-1.13,1.76-.82,2.75-.88,1.25-.09,2.5-.23,3.75-.33,3.75-.3,7.5-.65,11.26-.85,6.04-.32,12.09-.51,18.13-.82,3.13-.16,6.26-.56,9.39-.67,4.05-.14,8.11-.12,12.16-.12,2.4,0,4.8.07,7.19.17,4.5.19,9.01.44,13.51.65.27.01.55,0,.9,0,.06-.27.18-.48.16-.68-.44-3.02.48-5.75,1.64-8.46,1.31-3.04,2.56-6.1,3.84-9.16.46-1.12.65-2.26.61-3.5-.12-4.4,1.88-7.77,5.26-10.43.74-.59,1.68-1.01,1.77-2.17.02-.24.3-.47.49-.68,3.79-4.12,8.3-6.57,14.04-6.89,4.02-.22,7.99-.13,11.95.4,4.04.54,7.83-.3,11.56-1.68,2.25-.83,4.5-1.65,6.73-2.51,1.85-.72,3.54-.41,5.25.5,1.86.99,3.77,1.91,5.71,2.74,2.07.88,4.24.83,6.32.04,2.16-.82,4.13-.52,6.06.62.19.11.38.25.54.42,1.57,1.66,3.64,2.49,5.67,3.33,1.71.7,3.07,1.75,3.96,3.37,1,1.81,2.46,2.93,4.49,3.38,1.72.38,3.44.84,5.12,1.37,3.27,1.05,3.79,3.01,1.5,5.62-.95,1.08-1.88,2.13-2.41,3.5-.62,1.61-1.86,2.29-3.57,2.46-3.92.39-7.86.71-11.72,1.42-2.72.51-5.34,1.56-7.97,2.48-1.33.46-2.29,1.44-2.95,2.73-1.55,3.05-3.13,6.09-4.68,9.14-.17.34-.24.74-.43,1.35,1.62-.16,3.07-.28,4.52-.45,9.93-1.18,19.88-1.89,29.89-1.72,5.48.09,10.96-.05,16.44,0,4.57.04,9.13.22,13.7.28,3.88.05,7.76.06,11.64-.01,3.59-.07,7.18-.28,10.77-.39,2.11-.07,4.23-.16,6.33-.08,1.27.05,2.38.47,2.82,2,.23.82.94,1.55,1.56,2.19,3.01,3.08,4.47,6.77,4.67,11.06.22,4.5.6,8.99.89,13.49.24,3.7.54,7.4.66,11.1.09,2.68-.81,5.17-2.09,7.51-.51.95-1.26,1.78-1.72,2.74-.86,1.78-2.47,2.4-4.18,2.52-3.87.27-7.63,1.31-11.55,1.33-3.06.01-6.12.72-9.19.94-5.35.4-10.71.75-16.07.95-5.99.22-11.98.26-17.98.38-.45,0-.9.06-1.57.1ZM250.85,144.51c.74-.77,1.48-1.53,2.21-2.3.1.09.19.18.29.28-1.65,2.66-3.94,4.8-6.14,7.04.58-.16,1.07-.43,1.43-.82,2.03-2.15,4.03-4.34,6.06-6.5.27-.29.65-.48.98-.71.09.1.18.21.26.31-2.05,2.83-4.77,5.11-6.85,7.94,1.12-.83,2.11-1.78,3.06-2.76.96-.98,1.84-2.04,2.83-2.98.99-.94,1.54-2.3,2.83-2.94-1.9,3.51-5.06,5.99-7.45,9.13.42-.06.76-.21,1-.46,2.15-2.21,4.28-4.44,6.43-6.65.37-.38.76-.74,1.14-1.12.09.08.18.17.26.26-1.98,2.87-4.61,5.2-6.82,7.89,3.37-1.45,5.11-4.73,7.86-6.9-1.17,2.24-3.12,3.88-4.85,6.1,1.38-.33,1.78-1.3,2.42-1.95.68-.69,1.26-1.48,1.89-2.22.58-.68,1.17-1.35,1.75-2.03-.77,2.36-2.68,3.87-3.83,5.92,1.83-1.09,2.88-2.97,4.35-4.31.36.17.62.3,1.14.54,0-1.35-.06-2.48.02-3.59.07-1.07-.18-2.25.82-3.24.81,1.17.6,2.41.63,3.55.05,1.89.09,3.75.54,5.6.43,1.77.52,3.58.33,5.43-.19,1.91-.23,3.91.89,5.65,1.51,2.35,3.04,4.68,4.62,6.98.29.42.81.86,1.29.95,1.06.19,2.16.26,3.24.19,2.39-.13,4.77-.37,7.16-.58.38-.03.75-.09,1.36-.17-.46-.41-.74-.67-1.03-.92-1.5-1.31-2.99-2.63-4.5-3.92-.64-.54-.76-1.1-.6-1.95.16-.86,0-1.81-.1-2.71-.18-1.53-.59-3.05-.59-4.57-.01-2.91.19-5.81.31-8.72.1-2.38.85-4.46,2.9-5.88.15-.1.39-.07.66-.11-.06.44-.1.77-.14,1.13.33-.11.61-.21,1.31-.46-.84,1.02-1.42,1.73-2,2.45.03.02.06.04.09.06.9-.75,1.81-1.5,2.84-2.36.05.38.06.54.09.74,1.4-.31,2.46-1.67,4.38-1.46-1.84,1.79-3.5,3.43-5.18,5.03-.83.78-1.73,1.48-2.55,2.27-.22.21-.25.62-.37.93.07.03.14.07.21.1,3.05-2.79,6.1-5.59,8.98-8.23.78.43,1.38.77,2.05,1.14-.42,1.05-1.72,1.72-2.06,3.06.8-.58,1.43-1.32,2.1-2.01.61-.61.8-1.77,2.33-1.71-1.28,1.51-2.4,2.82-3.52,4.15.67.43.95.08,1.27-.28,1.16-1.26,2.35-2.5,3.54-3.73.2-.2.47-.33.71-.49.08.09.15.17.23.25-1.13,1.28-2.25,2.55-3.38,3.83.09.09.19.17.28.26,1.94-1.39,3.21-3.51,4.98-5.14.25.63.43,1.07.62,1.54-.34.54-.7,1.13-1.07,1.72.08.07.17.13.25.2.74-.64,1.48-1.28,2.35-2.03-.08,1.01.43,1.2,1.04.95,1.55-.64,3.12-.49,4.72-.33,1.13.11,2.28.05,3.42-.01.41-.02.96-.19,1.19-.48.99-1.3,2.09-2.57,2.3-4.29q-2.03-.88-1.81-2.37c.57.32,1.09.61,1.69.95.17-.34.33-.67.53-1.08-1.76-.44-3.39-.89-5.04-1.24-1.72-.37-2.99-1.3-3.86-2.81-.43-.74-.75-1.55-1.24-2.24-.74-1.05-1.59-2.05-3.03-1.21-.42-.33-.77-.6-1.07-.84-.49.23-.88.41-1.39.65.04-.51.06-.86.09-1.24-.8.18-1.47.34-2.22.51v-1.01c-.76-.15-1.32.79-2.1.06.22-.3.43-.62.67-.91.82-1,.56-2.17-.7-2.47-1.38-.33-2.83-.47-4,.72.29,1.05.99,1.99.54,3.15-1.22-.23-2.32-.53-2.57-2-.04-.22-.48-.45-.78-.54-3.56-1.15-7.16-2.22-10.7-3.44-1.57-.54-3.02-.8-4.63-.15-3.75,1.53-7.51,3.01-11.52,3.77-1.85.35-3.65.86-5.55.45-1.94-.42-3.88-.88-5.83-1.24-4.47-.81-8.81-.65-12.82,1.85-.67.42-1.41.75-2.11,1.13-2.1,1.13-4,2.44-4.85,4.83-.11.32-.47.7-.79.78-2.41.62-3.57,2.5-4.58,4.52-.47.93-.65,1.9-.37,2.96.14.53.05,1.11.05,1.67,0,1.42-.68,2.63-1.21,3.88-.46,1.07-.73,2.11-.41,3.32.13.51-.12,1.23-.42,1.72-.75,1.22-1.45,2.44-1.79,3.85-.14.6-.49,1.15-.77,1.71-.36.71-.95,1.38-1.08,2.13-.48,2.74-1.04,5.54.86,8.04.61.81,1.36,1.54,1.88,2.4,1.12,1.86,2.89,2.08,4.75,1.96,1.28-.08,2.55-.41,4.05-.67-1.15-1.74-2.17-3.29-3.18-4.82.06-.11.08-.17.12-.21.08-.08.17-.16.26-.21,2.52-1.21,4.14-2.97,3.66-6.01-.15-.93.17-1.52,1.02-2.11,2.35-1.62,4.61-3.37,6.84-5.15,1.96-1.56,3.83-3.25,5.77-4.85.58-.48,1.17-1.09,2.32-.75-.61,1.62-1.77,2.73-2.78,3.88-1.06,1.21-2.36,2.22-3.65,3.4,1.71.49,2.18-.97,3.09-1.6.99-.69,1.75-1.73,3.12-1.9-1.19,1.12-2.38,2.23-3.57,3.34.1.1.2.21.3.31,1.64-1.5,3.27-3,4.91-4.5.08.08.17.17.25.25-.96,1.78-2.78,2.85-3.97,4.45,2.45-1.64,3.93-4.33,6.56-5.75-1.46,2.1-3.48,3.72-4.99,5.76.09.09.19.18.28.28,2.34-2.23,4.67-4.45,7-6.68.08.07.16.13.24.2-.27.47-.54.95-.8,1.42-.75.68-1.53,1.34-2.24,2.06-.71.71-1.56,1.31-1.99,2.28,1.61-1.26,3.28-2.43,4.4-4.18ZM364.63,177.52c-.76-2.26-1.49-4.47-2.24-6.67-.38-1.13-1.22-1.79-2.36-2.01-1.29-.25-2.58-.49-3.88-.62-3.97-.42-7.94-1-11.93-1.12-8.61-.25-17.24.25-25.84-.71-3.85-.43-7.75-.47-11.62-.73-1.7-.12-3.41-.47-5.11-.5-2.96-.05-5.93.05-8.9.13-1.93.05-3.86.18-5.77.27-.39,2.27-.75,2.58-3.03,2.7-3.08.16-6.15.36-9.23.46-1.07.03-2.17-.1-3.22-.34-.62-.14-1.38-.51-1.69-1.02-.47-.75-1.05-.72-1.73-.74-2.85-.08-5.71-.18-8.56-.26-2.96-.08-5.93-.14-8.9-.23-1-.03-1.88.21-2.74.75-.56.36-1.25.72-1.89.74-2.84.11-5.68.11-8.42-.93-1.08-.41-2.16-.69-3.43-.34-1.85.52-3.78.73-5.67,1.06-1.12.19-2.25.34-3.37.55-1.49.28-2.9.31-4.31-.46-1.68-.92-3.4-1.85-5.45-1.57-.27.04-.56-.07-.84-.12-2.77-.52-5.57-.44-8.37-.26-1.37.09-2.73.3-4.1.33-7.3.17-14.61.32-21.92.44-5.72.09-11.37.65-16.98,1.89-3.43.76-6.58,2.14-9.86,3.41.04.4.05.74.11,1.07.26,1.44-.3,2.42-1.62,3.04-.78.36-1.52.8-2.28,1.18-.6.3-.94.7-1.06,1.42-.08.49-.55.93-.88,1.37-.43.57-.89,1.12-1.39,1.74.38.28.59.54.83.59,1.6.35,3.08,1.21,4.78,1.16.45-.01.92.06,1.36.16.89.21,1.21.85.81,1.67-.22.46-.55.86-.82,1.26.8,1.9.75,1.86-.66,3.37-1.05,1.12-2.05,2.3-2.93,3.56-.68.97-1.22,2.05-.66,3.37.18.41-.03.98-.06,1.57.6.47,1.16,1.08,1.86,1.4.79.36,1.1.84,1.2,1.68.14,1.26.41,1.27,1.63,1.14.89-.09,1.84.17,2.73.41.29.07.42.62.69.87.32.29.7.65,1.09.7,1.68.19,3.34.42,5.08.27,2.89-.26,5.82-.31,8.72-.17,4.26.21,8.51.72,12.77.98,2.85.17,5.71.12,8.56.15.93.01,1.79.11,2.51.85.33.34.91.66,1.35.63,1.83-.14,3.44.59,5.12,1.09,1.61.48,2.14,2.08,1.04,3.32-.19.21-.37.43-.54.62q.45,1.47-1.21,3.64c.57.55.75,1.22.17,1.91-.51.6-1.06,1.17-1.57,1.72q1.13,1.8.17,3.64c-.31.61-.61,1.23-.88,1.85-.28.64-.4,1.22,0,1.94.28.48.27,1.2.21,1.8-.09.96-.36,1.9-.49,2.85-.16,1.13.59,1.84,1.72,1.73.55-.05,1.12-.12,1.67-.08.85.07,1.68.23,2.53.33.51.06,1.16-.11,1.51.14,1.06.76,2.15.49,3.27.37.34-.04.69-.03,1.03,0,2.27.18,4.54.37,6.81.57,2.38.21,4.76.53,7.15.61,2.51.08,5.02-.04,7.53-.12,1.94-.06,3.88-.33,5.81-.28,4.79.12,9.58.45,14.37.55,4.16.09,8.33,0,12.5-.04,5.59-.07,11.19-.19,16.78-.27,2.28-.04,4.59.17,6.85-.09,5.5-.62,10.94-1.66,16.29-3.12,1.74-.48,3.49-1.09,5.32-.27.3.14.73-.01,1.39-.05-.81-.62-1.41-1.03-1.95-1.52-.76-.69-.77-1.04-.2-1.91.15-.23.33-.44.56-.73-1.51-1.5-1.33-2.95.1-4.3-.68-1.68-.38-3.18.34-4.7.38-.82.67-1.7.84-2.59.13-.68.24-1.45-.7-1.88-.28-.12-.52-.79-.45-1.16.39-2.12.94-4.21,1.3-6.33.18-1.07.75-1.25,1.64-1.28,1.6-.05,3.19-.12,4.79-.25,1.47-.13,2.94-.43,4.41-.52,5.87-.33,11.74-.63,17.61-.89,2.39-.11,4.81-.27,7.18-.07,4.78.4,9.41-.67,14.14-1.07.33-.98.46-2.07,1.02-2.83.58-.78,1.59-1.24,2.51-1.92-.64-1.21,0-2,.96-2.7.5-.37.97-.8,1.38-1.28.41-.49.72-1.07,1.15-1.74-.6-.22-.96-.36-1.32-.48-1.63-.57-1.81-1-1.52-2.67.11-.67.02-1.5-.28-2.09-.48-.94-1.18-1.67-2.32-2.09-2.73-1.02-3-2.99-.78-4.84.82-.69,1.69-1.32,2.62-2.04ZM381.05,166.96c-.53-.49-1.01-.87-1.41-1.32-.71-.8-1.67-1.53-1.99-2.48-.71-2.06-2.15-3.03-4.13-3.24-2.26-.24-4.56-.4-6.83-.35-3.15.07-6.27-.16-9.4-.34-6.9-.39-13.81-.56-20.71-.73-3.14-.08-6.28.06-9.42.13-3.77.08-7.54.15-11.31.3-6.16.24-12.33.53-18.48.84-1.52.08-3.04.33-4.56.43-2.62.17-5.25.27-7.87.43-1.39.08-2.79.24-4.25.36.55,1.84,2.14,2.42,3.4,3.32.15.11.44.04.66.03,3.74-.24,7.46-.68,11.22-.7,3.13-.01,6.23-.12,9.38.26,5.09.62,10.24.8,15.37,1.08,4.56.24,9.12.42,13.68.51,7.25.13,14.5.15,21.75.22.11,0,.23,0,.34.01,1.3.11,2.64.09,3.6,1.23.17.2.5.25.75.39,1.28.71,2.58,1.4,3.83,2.16.3.18.46.6.69.91-.32.41-.59.75-1.01,1.29,1.53.41,2,1.57,2.53,2.72.18.39.6.68.91,1,.86.88.82,1.17-.11,1.87-1.27.96-2.53,1.94-3.75,2.96-.42.35-.7.86-1.11,1.38,1.42.57,2.68.99,4.08.99,2.46-.01,4.91.09,7.37.16.59.02,1.28-.13,1.61.94-.5.14-.94.28-1.39.4-.42.12-.87.15-1.26.33-.43.19-.8.53-1.22.77-.14.08-.34.06-.5.09-.83.21-1.66.43-2.49.63-.98.23-1.65.71-1.54,1.86.06.09.13.19.19.28.6,1.01,1.33,1.96,1.78,3.04.47,1.12-.17,2.09-.89,2.96-.43.52-1.08,1.04-1.16,1.62-.26,1.94-1.54,2.97-3.04,3.88-.19.11-.34.28-.56.46.12.5.22.97.35,1.52,3.7-.14,7.29-.28,10.89-.43.53-.02,1.13-.09,1.24.57.13.73-.53.79-1.02.86-.79.12-1.59.16-2.38.24-3.12.31-6.24.68-9.36.92-2.03.16-4.12-.12-6,.98-.23.13-.55.12-.84.13-2.91.09-5.82.19-8.73.25-.44.01-.88-.16-1.32-.26-.59-.14-1.18-.43-1.76-.41-4.34.12-8.68.22-13.01.48-5.8.35-11.6.85-17.2,1.27-.78.64-1.42,1.16-2.17,1.79.07.97.12,2.05.23,3.13.3,2.87.39,5.7-1.12,8.34-.45.8-.58,1.72-.23,2.65.33.88.22,1.68-.54,2.33-.53.46-.57,1-.12,1.5.96,1.06.77,2.05-.27,3.13,1.02.62,1.96,1.15,2.83,1.76.27.19.5.63.51.95,0,.2-.44.55-.71.59-1.24.15-2.48.22-3.72.29-1.13.07-2.28-.02-3.38.19-1.73.33-3.42.9-5.14,1.29-4.95,1.15-9.93,2.17-15.04,2.2-3.77.03-7.54-.2-11.3-.06-7.59.28-15.18.58-22.77.42-2.63-.06-5.26-.03-7.88-.17-3.99-.22-7.97-.6-11.96,0-.9.13-1.82.09-2.73.13-2.63.1-5.22-.19-7.83-.54-2.71-.36-5.47-.28-8.2-.47-1.7-.12-3.38-.56-5.1-.09-.3.08-.7,0-.99-.14-2.02-.98-4.19-.75-6.31-.77-1.6,0-2.98-1.53-2.68-3.09.22-1.18.2-2.41.27-3.62,0-.16-.07-.36-.18-.47-.8-.81-.5-1.71-.16-2.55.49-1.21,1.08-2.38,1.68-3.69-2.1-1.63-.43-2.85.79-4.24-.78.13-1.33.22-1.87.3-.22-1.26,2.22-.54,1.24-2.16h-1.69c-.13-.64.74-.98.02-1.62-.51-.46-.08-1.06.53-1.33.51-.23,1.03-.43,1.81-.76-1.2-.45-1.67-1.18-1.4-2.41-1.83-.44-3.54-1.22-5.24-1.18-5.38.12-10.72-.3-16.06-.66-1.99-.14-3.99-.38-5.93-.81-1.14-.25-2.23-.43-3.37-.24-3.4.57-6.83.4-10.25.39-1.28,0-2.56-.14-3.51-1.09-.71-.7-1.5-.7-2.37-.6-.9.1-1.87.78-2.65-.33-.09-.12-.55.05-.83.03-.37-.04-.72-.14-1.19-.23.21-.88.85-1.63-.03-2.39-1.26-1.1-1.33-2.71-.97-4.09.21-.84-.29-1.2-.4-1.7.41-1.06,1.35-1.79,1.27-2.95-1.55-.33-3.16.51-4.68-.65.13-.27.34-.43.56-.44,1.7-.15,3.39-.28,5.25-.42.51-.83,1.09-1.77,1.76-2.86-5.36-.76-10.47-1.11-15.62-.96-.4,0-.84.1-1.18-.04-.3-.13-.6-.5-.67-.82-.04-.19.34-.62.59-.68.66-.17,1.35-.22,2.03-.29,2.53-.25,5.07-.49,7.54-.73-.11-.68-.39-1.25-.22-1.59.18-.37.79-.52,1.38-.87-.31-1.07-.63-2.18-.92-3.17-1.41,0-2.57.13-3.69-.04-1.08-.16-2.33.29-3.56-.82,1.83-.52,3.22-1.12,5-.77,1.49.29,3.18.43,4.6-.65,1.31-1.01,2.64-1.98,3.97-2.96.67-.49,1.15-.99,1-1.98-.17-1.08.61-1.62,1.54-1.95,1.18-.42,2.36-.86,3.54-1.29,3.1-1.12,6.07-2.65,9.45-2.86.22-.01.44-.13.66-.18,2.12-.42,4.23-.94,6.38-1.2,1.57-.19,3.19,0,4.78-.04,4.8-.11,9.59-.25,14.39-.39,3.54-.1,7.09-.09,10.61-.34,4.33-.31,8.63-.17,12.94.19.18.01.37-.06.79-.12-.45-.5-.68-1.02-1.04-1.12-1.45-.43-2.85-1.05-4.47-.88-2.21.23-4.45.34-6.67.33-5.71-.02-11.42-.26-17.12-.17-10.22.16-20.43.49-30.65.75-.8.02-1.6.05-2.4.06-2.05.05-4.09.04-6.14.14-1.13.06-2.26.28-3.39.44-3.78.56-7.57,1.11-11.34,1.7-.35.05-.79.29-.96.57-.92,1.52-1.77,3.08-2.62,4.63-.09.17-.08.41-.14.77.94.12,1.77.28,2.6.34,3.07.21,6.14.37,9.21.62.66.05,1.61-.17,1.82.86.13.64-.46.95-1.83,1.04-3.25.21-6.5.23-9.74-.29-.42-.07-.87,0-1.14,0-.47,1.55-.87,2.89-1.29,4.26.93.11,1.79.16,2.62.34,1.33.29,1.41.47,1.42,1.99-.89.54-1.72,1.18-2.66,1.57-.99.41-2.08.59-3.12.89-.21.06-.39.2-.8.41-.04,1.52-.08,3.11-.12,4.69,1.13.94.92,2.37,1.34,3.57.45,1.29.66,1.39,2.12,1.47.78.04,1.78-.01,2.27.43.75.68,1.5.7,2.35.68.91-.02,1.83-.07,2.74-.08.49,0,.91.12.93.87-.3.13-.64.41-.98.42-2.11.01-4.22.01-6.32-.09-1.06-.05-2.11-.3-3.25.05.21,2.16.27,4.28,1.96,5.9.7.67.88,1.58.82,2.53-.03.49-.1.97-.17,1.56,2.84-.18,5.57-.33,8.28-.53,1.48-.1,2.95-.3,4.44-.41.69-.05,1.38.02,1.55,1.28-2.37.48-4.76.46-7.09.66-2.39.21-4.81.05-7.32.05.74,1.33,1.61,2.38,2.89,2.53,1.26.15,2.21.82,3.3,1.25.63.25,1.29.51,1.96.57,2.5.21,5,.44,7.5.45,3.02,0,6.05-.2,9.07-.34,8.28-.4,16.56-.32,24.84-.09,1.17.03,2.37-.39,3.54-.32,3.24.2,6.48.54,9.71.88.93.1,1.8.12,2.68-.28.41-.18.91-.14,1.56-.24-.15.67-.11,1.21-.34,1.38-.56.41-1.26.65-1.88.95-.44,1.13.08,1.86,1.3,2.43-1.54.71-1.57,1.74-1.26,2.84.85.31,1.6.54,2.31.86.27.12.45.43.67.65-.28.23-.53.56-.85.66-.69.21-1.42.3-2.19.45v8.06c.59.34,1.04.6,1.61.94-.49.44-.82.73-1.11.99.06.9.12,1.75.17,2.61.07,1.32.83,2.1,2.16,2.25.45.05.89.19,1.32.32,2.92.85,5.89,1.3,8.93,1.41,6.73.25,13.46.64,20.2.79,12.33.26,24.67.37,37,.57,5.49.08,10.96-.21,16.42-.74,4.6-.45,9.19-1.03,13.78-1.57,3.34-.4,6.68-.86,10.02-1.26.49-.06,1.04-.04,1.5.13,3.92,1.38,7.59.4,11.39-1.02-.21-1.66-.46-3.23-.59-4.81-.13-1.56.48-3.17-.29-4.76-.53,0-1.04.05-1.54-.02-.24-.04-.64-.34-.61-.44.07-.28.26-.65.5-.75.5-.21,1.07-.26,1.64-.39v-2.71c-.69-.52-1.77.12-2.2-1.2.75-.21,1.46-.41,2.35-.66.29-1.73.6-3.55.9-5.34-1.22-.55-2.59.56-3.61-.52.13-.87.79-.84,1.32-.92.73-.11,1.48-.14,2.22-.2.76-.07.92-.51.81-1.13-.61-.43-1.66.12-1.84-1,.09-.13.18-.35.3-.38,1.38-.29,2.75-.72,4.14-.79,3.59-.18,7.19-.29,10.79-.25,7.32.07,14.61-.26,21.88-1.09,2.77-.32,5.53-.8,8.31-1.03,3.07-.25,6.16-.28,9.23-.42.62-.03,1.25-.1,1.87-.15,1.86-.15,3.44-1.09,5.14-1.72,3.7-1.35,4.34-4.55,4.51-7.98.01-.3-.2-.61-.34-1-1.61.13-3.14.22-4.66.4-1.18.13-2.35.37-3.53.57-.5.08-1.05.06-1.48.28-.58.3-1.07.22-1.32-.27-.16-.32-.09-.93.13-1.22.26-.35.77-.65,1.2-.71,2.48-.34,4.97-.58,7.45-.88.77-.09,1.53-.26,2.47-.42-.1-1.73-.16-3.32-.3-4.9-.09-.91-.35-1.79-.47-2.7-.43-3.46-.7-6.92-.12-10.4.07-.43-.03-.9-.06-1.38-1.48-.79-2.88-1.59-4.64-1.47-1.42.09-2.85.01-4.27-.02-.58-.01-1.42.33-1.54-.58-.1-.79.72-.7,1.24-.85,1.81-.53,3.62-1.04,5.42-1.6,1.03-.32,2.06-.68,2.95-1.83ZM246.63,159.15c.39.06.56.11.73.11,4.55.02,9.11.05,13.66.05.77,0,1.54-.13,2.44-.22-.49-1.85-.94-3.53-1.38-5.19-.42-.03-.71-.07-.99-.07-3.87.03-7.74.31-11.59-.33-.22-.04-.46,0-.68.02-1.27.12-1.69.43-2.04,1.68-.36,1.27-.32,2.56-.14,3.95ZM245.92,161.68c1.09,1.3,1.91,2.28,2.79,3.33,2.32-.2,4.72.32,7.07-.42.52-.16,1.16-.14,1.7,0,2.59.67,5.21.36,7.82.32.71-.01,1.42-.07,2.33-.11-.55-1.27-.99-2.3-1.37-3.2-1.23.08-2.29.2-3.34.21-1.65,0-3.31-.11-4.96-.12-3.86-.02-7.73,0-12.03,0ZM238.62,160.26c-.13-.16-.26-.31-.38-.47.32-.22.67-.42.97-.67,1.5-1.23,2.98-2.49,4.49-3.7.43-.35.71-.66.38-1.3-1.14.89-2.21,1.74-3.3,2.56-1.06.79-1.98,1.8-3.21,2.35-.08-.09-.16-.18-.24-.27.44-.46.88-.93,1.44-1.52-.57.12-.91.2-1.26.27-.05-.1-.11-.21-.16-.31,2.27-1.72,4.55-3.44,6.93-5.25-.86-.5-1.37-.15-1.87.21-1.52,1.11-3.03,2.24-4.56,3.34-.26.19-.6.29-.89.43-.08-.12-.16-.24-.23-.37,1.6-1.23,3.21-2.45,5.05-3.86-1.41-.09-1.96.77-2.7,1.22-.79.48-1.53,1.05-2.3,1.59-.08-.09-.15-.17-.23-.26.23-.36.46-.72.77-1.2-1.27.65-1.5,1.12-1.13,2.65.44,1.8.61,3.58.25,5.42-.16.83-.21,1.71-.17,2.55.02.46.23.99.54,1.33.51.55,5.23,1.02,5.83.6.87-.61,1.67-1.31,2.57-2.03-.16-.25-.31-.51-.46-.76-1.51.69-2.62,1.91-4.28,2.1.64-.63,1.4-1.06,2.1-1.58.71-.53,1.78-.71,2.04-2.06-1.82,1.17-3.24,2.55-5.17,3.11,1.21-1.27,2.79-2.08,3.98-3.43-.56,0-1.11.06-1.5.34-1.02.72-1.96,1.56-2.95,2.33-.51.4-.97.97-1.84.74.1-.2.13-.4.24-.48,2.03-1.47,4.05-2.96,6.13-4.36.57-.39.67-.64.31-1.22-2.07,1.25-3.81,2.88-5.99,3.84.16-.45.43-.76.76-.99,1.52-1.1,3.06-2.2,4.6-3.27.56-.39,1-.78.56-1.68-.85.72-1.65,1.43-2.48,2.11-.85.7-1.61,1.54-2.63,1.99ZM233.97,153.66c-2.96.69-3.42,3.09-4.18,5.25,1.67.12,3.23.22,4.99.35-.06-1.83.21-3.73-.81-5.59ZM234.52,161.61c-1.61.09-3.07.17-4.74.27.65.91,1.16,1.63,1.68,2.35,1,.07,1.99.13,3.06.2v-2.82ZM288.77,139.83c-.05-.06-.1-.12-.15-.18-.29.22-.6.41-.85.66-2.06,2.03-4.12,4.07-6.16,6.12-.64.65-1.26,1.31-1.83,2.02-.19.24-.18.64-.26.96.12.06.24.13.36.19,2.96-3.26,5.92-6.52,8.89-9.78ZM282.71,149.23c-1.12,1.18-2.8,1.9-3.05,3.75,1.15-1.15,2.65-1.99,3.05-3.75ZM246.93,165.37c.02-.11.05-.22.07-.34-.42-.29-.85-.58-1.3-.89-.63.42-1.17.79-1.71,1.16.03.09.06.18.09.27.95-.06,1.9-.13,2.85-.19ZM235.98,152.87c.65-.44,1.31-.87,2.11-1.4-1.39-.31-1.5-.25-2.11,1.4ZM283.65,140.22c-.1-.13-.2-.25-.3-.37-.72.72-1.44,1.43-2.15,2.15.07.07.14.14.21.22.75-.66,1.49-1.33,2.24-1.99ZM279.89,155.21c.43-.69.86-1.38,1.29-2.07-.81.44-1.58.9-1.29,2.07ZM262.11,147.18c.6-.19,1.27-.43.99-1.5-.42.63-.7,1.07-.99,1.5ZM295.04,140.3c.08.08.16.17.24.25.31-.39.63-.79.95-1.19-.06-.05-.12-.1-.19-.15-.34.36-.67.73-1,1.09ZM279.75,147.01c.05.05.1.09.16.14.17-.19.35-.38.52-.57-.05-.05-.1-.1-.15-.14-.18.19-.35.38-.53.57Z"/>
    <path class="cls-4" d="M364.63,177.52c-.93.72-1.8,1.36-2.62,2.04-2.22,1.85-1.95,3.82.78,4.84,1.14.42,1.84,1.15,2.32,2.09.31.6.39,1.42.28,2.09-.29,1.67-.12,2.09,1.52,2.67.36.13.72.26,1.32.48-.44.67-.74,1.25-1.15,1.74-.4.48-.87.91-1.38,1.28-.97.7-1.6,1.5-.96,2.7-.92.68-1.93,1.14-2.51,1.92-.56.76-.69,1.85-1.02,2.83-4.73.4-9.36,1.47-14.14,1.07-2.38-.2-4.79-.04-7.18.07-5.87.26-11.75.56-17.61.89-1.48.08-2.94.39-4.41.52-1.6.14-3.19.2-4.79.25-.89.03-1.47.21-1.64,1.28-.35,2.12-.91,4.21-1.3,6.33-.07.36.17,1.03.45,1.16.94.43.83,1.2.7,1.88-.17.89-.45,1.77-.84,2.59-.71,1.51-1.02,3.02-.34,4.7-1.43,1.35-1.62,2.81-.1,4.3-.23.3-.41.5-.56.73-.57.87-.56,1.22.2,1.91.53.48,1.14.89,1.95,1.52-.66.04-1.09.19-1.39.05-1.83-.82-3.58-.2-5.32.27-5.35,1.46-10.79,2.49-16.29,3.12-2.26.26-4.57.06-6.85.09-5.59.08-11.19.2-16.78.27-4.17.05-8.33.13-12.5.04-4.79-.1-9.58-.43-14.37-.55-1.93-.05-3.87.22-5.81.28-2.51.08-5.02.2-7.53.12-2.39-.08-4.77-.4-7.15-.61-2.27-.19-4.54-.39-6.81-.57-.34-.03-.69-.03-1.03,0-1.12.12-2.21.39-3.27-.37-.35-.25-1-.08-1.51-.14-.84-.1-1.68-.26-2.53-.33-.55-.04-1.11.03-1.67.08-1.13.11-1.88-.6-1.72-1.73.13-.95.4-1.89.49-2.85.05-.6.07-1.32-.21-1.8-.41-.71-.29-1.3,0-1.94.28-.62.57-1.24.88-1.85q.95-1.84-.17-3.64c.51-.56,1.06-1.13,1.57-1.72.58-.68.4-1.36-.17-1.91q1.66-2.17,1.21-3.64c.17-.2.36-.41.54-.62,1.1-1.24.58-2.83-1.04-3.32-1.68-.5-3.29-1.23-5.12-1.09-.44.03-1.02-.29-1.35-.63-.72-.74-1.57-.84-2.51-.85-2.85-.04-5.71.02-8.56-.15-4.26-.25-8.51-.77-12.77-.98-2.9-.14-5.83-.09-8.72.17-1.74.15-3.4-.07-5.08-.27-.39-.04-.77-.41-1.09-.7-.28-.25-.41-.8-.69-.87-.89-.24-1.84-.5-2.73-.41-1.22.13-1.49.11-1.63-1.14-.09-.83-.41-1.31-1.2-1.68-.7-.32-1.26-.93-1.86-1.4.04-.59.24-1.16.06-1.57-.56-1.31-.02-2.39.66-3.37.88-1.26,1.88-2.44,2.93-3.56,1.41-1.51,1.46-1.47.66-3.37.27-.4.6-.81.82-1.26.4-.82.08-1.46-.81-1.67-.44-.1-.91-.17-1.36-.16-1.7.04-3.18-.82-4.78-1.16-.24-.05-.44-.31-.83-.59.5-.62.96-1.16,1.39-1.74.33-.44.8-.87.88-1.37.12-.72.47-1.11,1.06-1.42.76-.38,1.5-.82,2.28-1.18,1.31-.61,1.88-1.59,1.62-3.04-.06-.33-.07-.67-.11-1.07,3.27-1.27,6.42-2.65,9.86-3.41,5.61-1.25,11.26-1.8,16.98-1.89,7.31-.12,14.61-.27,21.92-.44,1.37-.03,2.73-.24,4.1-.33,2.79-.19,5.59-.27,8.37.26.28.05.57.16.84.12,2.05-.28,3.77.65,5.45,1.57,1.41.77,2.82.75,4.31.46,1.12-.21,2.24-.35,3.37-.55,1.89-.33,3.82-.54,5.67-1.06,1.26-.35,2.34-.07,3.43.34,2.74,1.04,5.58,1.05,8.42.93.65-.03,1.33-.38,1.89-.74.85-.55,1.74-.79,2.74-.75,2.97.08,5.93.14,8.9.23,2.86.08,5.71.18,8.56.26.68.02,1.26-.02,1.73.74.31.5,1.07.87,1.69,1.02,1.04.24,2.15.37,3.22.34,3.08-.1,6.15-.3,9.23-.46,2.28-.12,2.64-.43,3.03-2.7,1.91-.09,3.84-.22,5.77-.27,2.97-.08,5.94-.18,8.9-.13,1.7.03,3.4.38,5.11.5,3.87.26,7.77.3,11.62.73,8.6.96,17.23.46,25.84.71,3.99.12,7.96.7,11.93,1.12,1.3.14,2.59.38,3.88.62,1.14.22,1.98.88,2.36,2.01.75,2.2,1.48,4.4,2.24,6.67ZM171.66,182.31c0,4.15,0,8.35,0,12.56,0,.23-.06.46-.03.68.07.76,1.11,1.54,2.13,1.63.83.06,1.46-.28,1.61-1.17.19-1.11.2-2.25.22-3.39.02-1.87-.07-3.75,0-5.62.11-3.48.29-6.95.46-10.42.05-1.03-.3-1.97-1.3-2.13-1.2-.19-2.48-.07-3.69.1-.31.04-.61.74-.78,1.19-.2.52-.21,1.11-.37,1.65-.7,2.35-1.42,4.69-2.15,7.03-.12.38-.3.74-.45,1.11-.3-1.25-.31-2.43-.3-3.62.02-2.05.12-4.11.08-6.16-.03-1.46-.72-2.25-1.89-2.13-1.34.14-2.6-.04-3.88-.38-.85-.23-1.45.11-1.73.95-.12.38-.24.76-.32,1.15-.59,2.85-1.17,5.69-1.75,8.55-.44,2.18-.93,4.35-1.29,6.55-.27,1.67.64,2.72,2.3,2.95.63.09,1.21-.05,1.44-.64.55-1.42,1.54-2.63,1.65-4.26.12-1.87.45-3.73.8-5.58.21-1.14.64-2.24.97-3.35.4,4.21.58,8.36.77,12.51.02.51.03,1.03.11,1.53.16,1.04.6,1.46,1.52,1.52.97.07,1.58-.38,1.78-1.42.78-4.01,2.92-7.53,4.1-11.39.01-.03.1-.04-.01,0ZM270.79,219.65c.15-3.24-.79-6.79-2.29-8.93-1.05-1.5-2.29-2.81-3.92-3.7-1.43-.78-3.1-1.14-4.42-.29-2.39,1.53-4.43,3.52-5.85,6.05-.05.1-.06.22-.11.32-1.39,3.37-1.21,6.79-.42,10.25.42,1.83,1.29,3.43,2.59,4.74.7.7,1.61,1.33,2.54,1.63,3.52,1.11,6.98-.07,9.32-2.97,1.79-2.22,2.74-4.71,2.56-7.1ZM216.81,218.82c.67-.34,1.2-.56,1.68-.84,2.17-1.27,3.44-3.25,3.69-5.67.25-2.5-1.55-4.3-3.3-5.49-2.55-1.74-5.64-1.43-8.61-.82-1.08.22-1.42.9-1.56,1.92-.43,3.16-.93,6.31-1.43,9.46-.47,2.99-1.03,5.96-1.44,8.96-.35,2.57-.21,2.66,2.38,2.97,1.06.13,1.45-.09,1.73-1.16.2-.77.25-1.57.37-2.36.27-1.81.53-3.61.84-5.41.07-.39.32-.75.62-1.38.29.53.47.75.53,1,.48,1.88.93,3.77,1.39,5.65.34,1.38.69,2.77,1.04,4.15.19.74.57,1.14,1.43,1.15,1.15.02,2.18,0,3.22-.69,1.08-.72,1.21-.6.84-1.76-.38-1.19-.9-2.34-1.32-3.53-.72-2.03-1.41-4.07-2.12-6.15ZM229.86,189.78c-.3-.38-.44-.49-.49-.63-.98-2.8-1.98-5.59-2.92-8.4-.43-1.3-.72-2.64-1.11-3.95-.29-.99-1.54-1.68-2.75-1.48-1.03.17-.9,1.04-.94,1.75-.11,1.94-.21,3.88-.25,5.82-.12,5.13-.22,10.26-.29,15.4,0,.4.21.98.51,1.17.95.6,2.04.76,3.11.33.97-.4.98-1.33.98-2.19,0-1.94-.04-3.88-.06-5.82,0-1.13,0-2.25,0-3.71.31.43.43.55.47.68.79,2.56,1.53,5.14,2.36,7.69.26.8.69,1.55,1.12,2.27.15.26.5.49.79.56,1.76.4,2.97-.57,3.04-2.39,0-.17,0-.34,0-.51-.06-5.94-.12-11.88-.19-17.82-.01-.8-.05-1.61-.22-2.38-.08-.38-.42-.86-.76-1.01-1.08-.46-2.62.75-2.59,1.94.07,2.91.13,5.82.18,8.72.02,1.23,0,2.45,0,3.96ZM288.04,185.81c.7-.75,1.28-1.31,1.78-1.93,1.7-2.13,1.53-4.5-.28-6.5-1.76-1.94-3.74-3.15-6.48-2.58-.5.1-1.02.05-1.54.09-2.27.17-2.93.95-2.98,3.23-.09,4.39-.23,8.79-.39,13.18-.07,1.94-.28,3.87-.41,5.8-.05.82.24,1.53,1.07,1.76,1.6.44,3.2,1.37,4.89.21.25-.17.66-.11,1-.18.95-.19,1.91-.36,2.85-.58,2.42-.56,4.03-1.89,4.64-4.44.63-2.6.07-4.69-2.07-6.39-.66-.53-1.33-1.06-2.08-1.65ZM344.78,198.02c.93,0,1.66-.04,2.39,0,1.59.09,2.32-.47,2.51-2.08.08-.68.05-1.37.02-2.05-.06-1.37-.17-2.73-.23-4.1-.17-3.93-.33-7.86-.47-11.79-.09-2.39-1.05-2.64-3.17-2.03-1.11.32-1.65,1.46-1.4,2.76.39,2.08.4,4.17.14,6.32-1.39.2-2.65.37-4.04.57,0-1.27-.03-2.34.01-3.4.05-1.48.22-2.96.22-4.45,0-1.36-.39-1.7-1.71-1.82-.28-.02-.57-.05-.85-.05-1.8,0-2.46.59-2.29,2.36.4,4.16.29,8.32.11,12.49-.08,1.99,0,3.99.02,5.99,0,.72.18,1.34.96,1.65,1.67.66,3.33-.29,3.44-2.07.07-1.14-.04-2.28-.04-3.42-.01-1.63,0-3.27,0-5.08,1.37-.08,2.59-.15,4.01-.23,0,2.05.02,3.91,0,5.78-.02,1.58-.32,3.19.39,4.66ZM272.03,206.61c-.76,1.69-.46,3.01-.14,4.34.16.67.38,1.33.43,2,.31,4.84.57,9.68.9,14.52.05.78.25,1.58.54,2.31.37.94,1.18,1.17,2.11.72,1.1-.54,1.85-1.3,1.74-2.65-.17-1.99-.3-3.98-.43-5.97-.02-.34.06-.67.12-1.3.43.67.68,1.05.92,1.43,1.58,2.56,3.7,4.63,6.11,6.4,1.24.92,1.9.76,2.91-.45.78-.92.75-1.45-.26-2.51-1.02-1.07-2.1-2.1-3.18-3.12-1.21-1.14-2.26-2.39-2.99-4,.86-.94,1.68-1.88,2.54-2.78.62-.65.99-1.37.99-2.28.01-2.08-.7-3.92-1.81-5.62-.55-.84-1.32-1.3-2.45-1.23-1.42.09-2.85-.13-4.27-.11-1.29.02-2.58.2-3.8.3ZM251.37,207.91c-1.11-.34-1.93-.55-2.73-.83-4.15-1.43-9.57,1.47-10.17,6.68-.14,1.24.06,2.33.75,3.41,1.39,2.16,3.15,3.87,5.44,5.08,1,.53,1.02.91.75,2.15-.2.92-.73,1.5-1.63,1.45-1.92-.11-3.84-.35-5.75-.55-.37-.04-.74-.14-1.21-.23-.09,1.94-.18,3.76-.25,5.58,0,.21.09.42.16.73,2.89.21,5.73.27,8.54-.26,1.32-.25,2.44-.96,3.26-2.06,2.03-2.74,2.21-5.64.79-8.71-.72-1.56-1.89-2.68-3.23-3.69-.72-.55-1.37-1.19-2.01-1.84-.44-.44-.55-.97-.17-1.55.22-.33.37-.71.57-1.05.94-1.57,2.15-1.9,3.74-1.01.57.32,1.17.6,2,1.02.4-1.52.74-2.8,1.15-4.32ZM198.03,181.92c-.12-.5-.24-.76-.24-1.02.04-1.53.14-3.07.17-4.6,0-.54,0-1.47-.25-1.56-.76-.28-1.65-.37-2.46-.28-.75.08-.81.84-.85,1.49-.44,6.95-.89,13.9-1.32,20.85-.03.51-.06,1.04.04,1.53.18.86.77,1.1,1.52.65.92-.55,1.56-1.31,1.72-2.42.34-2.43.7-4.85,1.04-7.28.09-.63.15-1.27.22-1.9,1.14,1.48,2,2.95,2.71,4.49,1.02,2.23,1.92,4.51,2.91,6.76.2.44.5.95.9,1.16.73.39,2.75-.91,2.88-1.74.2-1.27-.39-2.32-.93-3.4-1.87-3.76-3.72-7.53-5.49-11.15,1.82-2.16,3.51-4.16,5.19-6.16.14-.17.34-.38.35-.58,0-.43.05-1-.19-1.23-.2-.19-.81-.06-1.2.07-.3.1-.54.41-.79.64-1.33,1.25-2.67,2.5-3.99,3.75-.61.58-1.2,1.19-1.94,1.93ZM299.84,210.83c1.22-.06,2.24-.13,3.26-.16.97-.03,1.94.03,2.91-.02,1.19-.06,1.38-.34,1.21-1.5-.06-.45-.13-.9-.17-1.36-.16-1.71-.54-1.88-2.3-1.86-3.93.05-7.87-.06-11.8-.1-1.63-.01-3.27,0-5.09,0,0,1.75-.03,3.27.01,4.79.02.59.44.93,1.03.94.45,0,.9-.11,1.35-.16,1.18-.12,2.38-.35,3.56-.32,1.08.02,1.37.48,1.38,1.52.04,3.43-.16,6.84-.79,10.23-.32,1.71-.42,3.47-.62,5.31,1.57.24,2.9.48,4.24.65,1.22.16,1.78-.45,1.62-1.7-.07-.56-.18-1.13-.17-1.69,0-3.6.01-7.2.07-10.79.02-1.19.19-2.38.31-3.79ZM220.34,175.16c-1.46,0-2.64-.02-3.82,0-1.94.04-3.87.17-5.81.16-1.67,0-2.14.38-2.16,2.07-.02,1.94-.04,3.88-.04,5.82-.01,5.13,0,10.27-.02,15.41,0,.61.24.99.8,1.13.44.11.9.2,1.34.19,2.51-.05,5.02-.12,7.52-.22.54-.02,1.08-.17,1.62-.26v-3.35h-7.33v-7.37c1.33-.12,2.52-.21,3.7-.36,2.05-.26,2.08-.3,2.25-2.41.11-1.33.12-1.43-1.14-1.51-1.58-.11-3.16-.02-4.82-.02v-4.8h6.71c.39-1.46.75-2.87,1.18-4.48ZM259.96,179.82c2.02-.43,3.95-.33,5.88-.15,1.34.13,1.63-.14,1.74-1.45.04-.51.08-1.03.08-1.54,0-1.31-.29-1.73-1.57-1.7-2.62.08-5.24.21-7.84.53-1.94.24-2.1.55-1.96,2.46.33,4.79.37,9.57.09,14.36-.1,1.81.1,3.65.31,5.46.23,2.06.87,2.47,2.86,1.95,1.83-.48,3.66-.84,5.57-.79.56.01,1.14-.12,1.67-.31.62-.23.97-.75.48-1.33-.62-.74-.48-1.43-.22-2.23.11-.32.07-.94-.13-1.06-.32-.2-.85-.21-1.24-.1-1.09.31-2.13.83-3.24,1.08-.95.21-1.97.58-3.05.04.17-2.34.33-4.65.51-7.04,1.66.05,3.07.04,4.19-1.1.82-.83,1.1-1.45.8-2.23-.35-.9-1.13-.83-1.87-.84-1-.01-2-.02-3.07-.03v-3.97ZM295.26,199.69c.86.08,1.38.21,1.87.16,2.37-.24,4.73-.66,7.11-.73,1.39-.04,1.74-.74,2.02-1.8.41-1.57-.08-2.07-1.65-2.03-1.97.05-3.95-.1-6.01-.16-.34-1.98-.52-3.82-.13-5.64,2.96-.66,3.09-.77,2.96-2.32-.21-2.45-.29-2.53-2.61-2.62-.08-1.51-.21-3.01.36-4.51,1.82,0,3.53.02,5.24,0,1.32-.01,2.01-.75,2.23-2.29.15-1.08-.2-1.69-1.66-1.91-1.61-.24-3.28-.15-4.92-.18-1.29-.01-2.59-.02-3.87.08-.35.02-.79.37-.98.7-.18.31-.11.77-.11,1.17,0,4.85,0,9.69,0,14.54,0,1.6-.01,3.19.01,4.79.01.88.09,1.77.15,2.75ZM242.23,179.1c-.29.71-.48,1.24-.71,1.74-1.44,3.16-2.93,6.3-4.32,9.49-.66,1.51-1.16,3.09-1.71,4.65-.42,1.18.14,2.29.57,3.26.42.95,1.64.86,2.6.96.34.04.69.03,1.02-.01,2.13-.31,4.26-.61,6.38-.96.77-.13,1.3-.86,1.29-1.59-.03-1.48-.76-2.2-2.24-2.14-.62.02-1.24.18-1.87.22-1.15.08-2.31.13-3.66.19.22-.58.32-.91.46-1.2,1.96-3.86,3.93-7.71,5.89-11.57.39-.76.79-1.52,1.13-2.3.78-1.83.37-2.92-1.48-3.66-.77-.3-1.64-.49-2.46-.5-2.1-.02-4.2.11-6.3.16-1.03.03-1.46.41-1.5,1.4-.08,1.97.34,2.42,2.36,2.36.96-.03,1.92-.22,2.89-.32.49-.06.99-.1,1.68-.16ZM226.19,206.66c-1.13,1.44-1.28,2.96-1.47,4.57-.63,5.2-1.52,10.37-2.29,15.56-.1.67-.21,1.37-.15,2.03.08.97.46,1.17,1.47,1.1.33-.02.66.02.99.05,1.92.21,3.83.52,5.75.59,2.27.1,2.28.02,2.11-2.21-.1-1.27-.12-1.32-1.39-1.41-1.25-.08-2.48-.24-3.7-.85.19-1.71.37-3.38.58-5.21,2.14.57,3.07-.6,3.74-2.23-.64-1.45-2.26-.63-3.22-1.24.17-2.17.33-4.26.5-6.56,1.13.12,2.38.19,3.59.4,2.94.52,3.28.32,4.03-2.61-.43-.87-1.23-.9-2.04-.87-2.53.1-5.01-.17-7.43-.93-.32-.1-.66-.13-1.06-.21ZM317.16,192.43c.54,1.76.93,3.38,1.53,4.91.59,1.51.82,1.27,2.24.94,1.18-.28.7-1.06.53-1.75-.13-.49-.21-1.01-.38-1.49-1.5-4.21-2.14-8.62-2.96-12.98-.31-1.62-.54-3.26-.81-4.89-.12-.75-.43-1.29-1.33-1.22-2.4.18-3.2.91-3.65,3.36-.05.28-.1.56-.16.84-1.12,4.94-2.18,9.9-3.37,14.83-.66,2.71-.53,3.01,2.27,3.3,1.68.18,1.97-.08,2.1-1.81.09-1.24.22-2.47.34-3.77,1.29-.1,2.42-.18,3.66-.27ZM322.03,190.08c0,.17.01.34,0,.51-.3,6.88,6.35,8.98,11.06,7.45.7-.22,1.24-.63,1.14-1.48-.14-1.18-.25-2.38-.45-3.55-.17-.96-.77-1.28-1.61-.79-1.41.83-2.88.59-4.31.34-1.68-.3-2.24-1.12-2.4-2.85-.25-2.72.72-5.15,1.83-7.54.34-.72.96-.89,1.67-.98,1.13-.14,2.27-.27,3.38-.51,1.68-.36,2.13-1.31,1.47-2.89-.46-1.1-1.28-1.73-2.49-1.78-.51-.03-1.03.08-1.54.03-2.61-.27-4.23,1.06-5.2,3.3-1.48,3.42-2.5,6.97-2.56,10.74ZM250.89,199.44c.3-.32.47-.54.68-.71.25-.19.52-.4.81-.5,1.26-.41,1.34-.47,1.4-1.75.03-.57,0-1.14-.01-1.71-.13-4.68-.25-9.35-.39-14.03-.02-.8.04-1.63-.17-2.38-.25-.91-.67-1.8-1.18-2.6-.35-.56-.93-1.01-1.75-.69-1.19.46-1.49.85-1.49,1.98-.02,5.59-.06,11.18-.09,16.76,0,1.03,0,2.05,0,3.08,0,.68.17,1.21.82,1.56.44.23.81.57,1.37.99ZM180.41,192.15c.16,1.14.3,2.1.42,3.06.08.62.31,1.16,1.03,1.12.67-.03,1.01-.54,1.03-1.16.02-.68-.02-1.37-.12-2.04-.49-3.38-1.04-6.76-1.51-10.14-.1-.72-.49-1.11-.98-1.51-.96-.8-1.42-.66-1.8.55-.05.16-.08.33-.12.5-.63,3.01-1.29,6.02-1.88,9.04-.15.77-.14,1.59-.1,2.38.04.7.54.99,1.2.88.61-.1.88-.5.69-1.11-.24-.77.04-1.42.39-2.13.61.2,1.15.38,1.75.57ZM188.45,195.82c.57,0,.92.04,1.25,0,.62-.08,1.11-.35,1.12-1.06,0-.61-.41-.91-.96-1.03-.5-.11-1.01-.19-1.5-.33-.72-.2-1.21-.67-1.28-1.43-.11-1.25-.25-2.5-.22-3.75.04-1.61.82-2.4,2.47-2.73.28-.06.61-.06.81-.23.36-.3.88-.68.89-1.05.01-.39-.4-.94-.78-1.16-2.4-1.37-5.26-.17-5.91,2.52-.56,2.34-.73,4.73-.39,7.14.25,1.74,1.12,2.61,2.86,2.92.62.1,1.24.16,1.64.21Z"/>
    <path class="cls-1" d="M381.05,166.96c-.89,1.15-1.92,1.51-2.95,1.83-1.8.56-3.61,1.07-5.42,1.6-.52.15-1.34.06-1.24.85.12.9.96.56,1.54.58,1.42.03,2.85.11,4.27.02,1.76-.12,3.17.68,4.64,1.47.02.48.13.95.06,1.38-.59,3.48-.31,6.94.12,10.4.11.9.38,1.79.47,2.7.14,1.58.2,3.17.3,4.9-.93.16-1.69.32-2.47.42-2.48.3-4.97.54-7.45.88-.44.06-.94.36-1.2.71-.22.29-.29.9-.13,1.22.25.49.73.57,1.32.27.43-.22.98-.2,1.48-.28,1.17-.2,2.35-.44,3.53-.57,1.52-.18,3.05-.26,4.66-.4.13.39.35.7.34,1-.17,3.43-.81,6.63-4.51,7.98-1.7.62-3.28,1.57-5.14,1.72-.62.05-1.24.12-1.87.15-3.08.14-6.17.17-9.23.42-2.78.22-5.54.71-8.31,1.03-7.27.83-14.56,1.16-21.88,1.09-3.6-.04-7.2.07-10.79.25-1.39.07-2.76.5-4.14.79-.12.02-.21.25-.3.38.18,1.12,1.23.57,1.84,1,.11.62-.05,1.07-.81,1.13-.74.06-1.49.09-2.22.2-.53.08-1.19.06-1.32.92,1.02,1.08,2.38-.03,3.61.52-.3,1.79-.61,3.61-.9,5.34-.89.25-1.6.45-2.35.66.42,1.32,1.51.68,2.2,1.2v2.71c-.57.12-1.14.18-1.64.39-.24.1-.44.47-.5.75-.02.1.38.41.61.44.5.07,1.01.02,1.54.02.77,1.59.16,3.2.29,4.76.14,1.58.38,3.15.59,4.81-3.8,1.42-7.48,2.4-11.39,1.02-.46-.16-1.01-.19-1.5-.13-3.34.4-6.68.85-10.02,1.26-4.59.55-9.18,1.13-13.78,1.57-5.46.53-10.93.82-16.42.74-12.33-.2-24.67-.31-37-.57-6.73-.14-13.46-.54-20.2-.79-3.04-.11-6.02-.55-8.93-1.41-.43-.13-.87-.27-1.32-.32-1.33-.15-2.08-.92-2.16-2.25-.05-.85-.11-1.7-.17-2.61.29-.26.62-.55,1.11-.99-.57-.34-1.02-.6-1.61-.94v-8.06c.77-.15,1.5-.24,2.19-.45.32-.1.57-.44.85-.66-.22-.22-.4-.53-.67-.65-.72-.31-1.46-.55-2.31-.86-.31-1.1-.28-2.13,1.26-2.84-1.22-.57-1.74-1.31-1.3-2.43.62-.3,1.32-.54,1.88-.95.23-.17.19-.71.34-1.38-.65.09-1.16.05-1.56.24-.88.39-1.75.38-2.68.28-3.23-.34-6.47-.67-9.71-.88-1.17-.07-2.36.35-3.54.32-8.28-.23-16.56-.3-24.84.09-3.02.14-6.05.35-9.07.34-2.5,0-5.01-.25-7.5-.45-.67-.06-1.33-.32-1.96-.57-1.09-.43-2.04-1.1-3.3-1.25-1.28-.15-2.15-1.2-2.89-2.53,2.51,0,4.93.16,7.32-.05,2.33-.2,4.72-.19,7.09-.66-.18-1.26-.86-1.33-1.55-1.28-1.48.11-2.95.31-4.44.41-2.72.2-5.44.35-8.28.53.06-.58.13-1.07.17-1.56.07-.95-.12-1.86-.82-2.53-1.69-1.63-1.75-3.74-1.96-5.9,1.14-.35,2.18-.1,3.25-.05,2.1.1,4.22.1,6.32.09.34,0,.68-.28.98-.42-.02-.76-.44-.88-.93-.87-.91.01-1.82.06-2.74.08-.85.02-1.59,0-2.35-.68-.49-.44-1.49-.39-2.27-.43-1.46-.08-1.68-.18-2.12-1.47-.42-1.2-.21-2.63-1.34-3.57.04-1.58.08-3.17.12-4.69.41-.21.6-.34.8-.41,1.04-.3,2.13-.47,3.12-.89.94-.4,1.77-1.03,2.66-1.57,0-1.53-.09-1.7-1.42-1.99-.83-.18-1.69-.22-2.62-.34.41-1.37.82-2.71,1.29-4.26.28,0,.72-.06,1.14,0,3.23.52,6.48.5,9.74.29,1.37-.09,1.96-.4,1.83-1.04-.22-1.03-1.16-.81-1.82-.86-3.07-.25-6.14-.41-9.21-.62-.84-.06-1.67-.22-2.6-.34.06-.36.05-.6.14-.77.85-1.55,1.7-3.11,2.62-4.63.17-.29.61-.52.96-.57,3.78-.59,7.56-1.14,11.34-1.7,1.13-.16,2.26-.38,3.39-.44,2.04-.1,4.09-.09,6.14-.14.8-.02,1.6-.04,2.4-.06,10.22-.26,20.43-.6,30.65-.75,5.7-.08,11.41.16,17.12.17,2.22,0,4.46-.1,6.67-.33,1.62-.17,3.02.46,4.47.88.36.11.59.62,1.04,1.12-.42.07-.61.14-.79.12-4.31-.36-8.61-.5-12.94-.19-3.53.25-7.07.24-10.61.34-4.8.14-9.59.28-14.39.39-1.59.04-3.21-.15-4.78.04-2.14.26-4.25.78-6.38,1.2-.22.04-.44.16-.66.18-3.38.21-6.35,1.74-9.45,2.86-1.18.43-2.35.87-3.54,1.29-.94.33-1.72.87-1.54,1.95.15.98-.34,1.49-1,1.98-1.32.98-2.66,1.96-3.97,2.96-1.41,1.08-3.11.94-4.6.65-1.77-.35-3.17.25-5,.77,1.24,1.11,2.48.66,3.56.82,1.12.17,2.27.04,3.69.04.29.99.61,2.1.92,3.17-.59.35-1.2.5-1.38.87-.17.34.11.91.22,1.59-2.47.24-5.01.48-7.54.73-.68.07-1.37.12-2.03.29-.26.07-.63.5-.59.68.07.32.37.69.67.82.34.14.78.05,1.18.04,5.15-.15,10.26.21,15.62.96-.67,1.09-1.25,2.03-1.76,2.86-1.85.14-3.55.27-5.25.42-.22.02-.42.18-.56.44,1.52,1.16,3.12.32,4.68.65.08,1.16-.86,1.89-1.27,2.95.11.49.61.86.4,1.7-.36,1.38-.29,2.99.97,4.09.87.76.24,1.51.03,2.39.47.1.83.2,1.19.23.28.02.74-.15.83-.03.78,1.12,1.75.44,2.65.33.87-.1,1.65-.1,2.37.6.95.95,2.24,1.08,3.51,1.09,3.42,0,6.85.18,10.25-.39,1.14-.19,2.23-.02,3.37.24,1.94.43,3.94.68,5.93.81,5.34.36,10.68.79,16.06.66,1.69-.04,3.41.74,5.24,1.18-.28,1.23.2,1.96,1.4,2.41-.78.32-1.31.52-1.81.76-.61.28-1.04.88-.53,1.33.72.64-.15.98-.02,1.62h1.69c.98,1.62-1.45.91-1.24,2.16.54-.09,1.09-.18,1.87-.3-1.21,1.39-2.88,2.61-.79,4.24-.6,1.31-1.19,2.48-1.68,3.69-.34.84-.65,1.74.16,2.55.11.11.18.31.18.47-.07,1.21-.05,2.44-.27,3.62-.29,1.56,1.08,3.09,2.68,3.09,2.12.01,4.29-.22,6.31.77.29.14.69.23.99.14,1.72-.47,3.4-.03,5.1.09,2.73.19,5.49.11,8.2.47,2.61.34,5.2.64,7.83.54.91-.03,1.84,0,2.73-.13,3.99-.59,7.97-.21,11.96,0,2.62.14,5.25.11,7.88.17,7.6.16,15.18-.14,22.77-.42,3.76-.14,7.53.09,11.3.06,5.11-.04,10.09-1.05,15.04-2.2,1.72-.4,3.41-.96,5.14-1.29,1.1-.21,2.26-.12,3.38-.19,1.24-.07,2.49-.14,3.72-.29.27-.04.72-.39.71-.59,0-.33-.23-.76-.51-.95-.87-.61-1.81-1.14-2.83-1.76,1.04-1.08,1.23-2.07.27-3.13-.46-.5-.41-1.04.12-1.5.75-.65.87-1.46.54-2.33-.35-.93-.22-1.85.23-2.65,1.5-2.64,1.41-5.47,1.12-8.34-.11-1.07-.16-2.15-.23-3.13.75-.62,1.39-1.14,2.17-1.79,5.6-.42,11.4-.91,17.2-1.27,4.33-.26,8.67-.36,13.01-.48.58-.02,1.17.27,1.76.41.44.1.88.28,1.32.26,2.91-.06,5.82-.16,8.73-.25.28-.01.61,0,.84-.13,1.88-1.1,3.97-.82,6-.98,3.13-.24,6.24-.61,9.36-.92.79-.08,1.6-.11,2.38-.24.49-.07,1.15-.13,1.02-.86-.12-.67-.72-.59-1.24-.57-3.59.14-7.18.28-10.89.43-.13-.55-.23-1.02-.35-1.52.22-.18.37-.35.56-.46,1.5-.91,2.77-1.93,3.04-3.88.08-.58.73-1.1,1.16-1.62.72-.87,1.36-1.83.89-2.96-.45-1.07-1.18-2.03-1.78-3.04-.06-.1-.12-.19-.19-.29-.11-1.14.56-1.62,1.54-1.85.83-.2,1.66-.42,2.49-.63.17-.04.36-.02.5-.09.42-.24.79-.57,1.22-.77.39-.18.84-.22,1.26-.33.45-.12.89-.26,1.39-.4-.32-1.07-1.02-.92-1.61-.94-2.46-.06-4.91-.17-7.37-.16-1.41,0-2.66-.42-4.08-.99.41-.52.69-1.03,1.11-1.38,1.22-1.03,2.48-2,3.75-2.96.93-.7.97-.99.11-1.87-.31-.32-.73-.61-.91-1-.53-1.15-1-2.31-2.53-2.72.42-.54.68-.87,1.01-1.29-.23-.31-.39-.73-.69-.91-1.25-.76-2.55-1.45-3.83-2.16-.25-.14-.59-.19-.75-.39-.96-1.14-2.3-1.13-3.6-1.23-.12,0-.23-.01-.34-.01-7.25-.07-14.5-.09-21.75-.22-4.56-.08-9.13-.26-13.68-.51-5.13-.27-10.28-.46-15.37-1.08-3.15-.38-6.24-.27-9.38-.26-3.76.02-7.48.45-11.22.7-.22.01-.51.08-.66-.03-1.26-.91-2.84-1.48-3.4-3.32,1.47-.13,2.86-.28,4.25-.36,2.62-.16,5.25-.26,7.87-.43,1.52-.1,3.04-.36,4.56-.43,6.16-.3,12.32-.59,18.48-.84,3.77-.15,7.54-.22,11.31-.3,3.14-.07,6.28-.2,9.42-.13,6.91.16,13.82.34,20.71.73,3.13.18,6.25.4,9.4.34,2.27-.05,4.56.11,6.83.35,1.98.2,3.42,1.17,4.13,3.24.32.95,1.28,1.68,1.99,2.48.4.45.88.83,1.41,1.32ZM334.71,161.95c-.04.15-.07.29-.11.44.21.22.39.57.64.65.53.16,1.11.24,1.67.25,5.64.12,11.28.17,16.92.34,1.75.05,3.5.38,5.25.61,1.8.24,3.59.53,5.39.74.59.07,1.05.14,1.41.74.21.34.81.65,1.22.64,1.87-.08,3.75-.23,5.6-.48.42-.06.77-.61,1.15-.94-.05-.15-.1-.3-.16-.44-1.29-.03-2.58-.05-3.86-.08-.91-.02-2.07.28-2.67-.16-1.53-1.14-3.32-1.17-5-1.53-2.72-.59-5.48-1.22-8.25-1.29-5.64-.14-11.28.08-16.93.18-.77.01-1.53.23-2.29.35ZM370.72,176.8c.02.16.04.32.06.48.53.09,1.06.24,1.6.26,2.49.07,4.99.07,7.42.73.23.06.55-.22.82-.34-.13-.28-.19-.7-.41-.83-1.01-.61-1.98-1.3-3.29-1.16-1.81.18-3.63.25-5.44.41-.27.02-.51.3-.77.46ZM140.39,197.15c-.38-.17-.71-.44-1.03-.43-2.27.06-4.53.15-6.8.27-.62.03-1.24.2-2.13.35,2.57,1.31,8.55,1.16,9.95-.19ZM137.43,168.18c.01.16.02.31.03.46.7.06,1.4.2,2.09.18,2.19-.07,7.91-1.1,8.68-1.56-.31-.19-.56-.49-.82-.49-.9-.01-1.82.02-2.71.14-2.24.3-4.47.66-6.71,1-.2.03-.38.18-.57.27ZM369.69,198.85c.24.91.63,1.17,1.32.96,2.58-.78,5.21-1.04,7.9-.7.11.01.25.03.34-.02.24-.17.46-.36.94-.76-3.74-1.1-7.04-.26-10.49.51ZM318.69,161.96c1.92.9,8.76.81,10.11.08-.81-.46-6.85-.98-8.66-.72-.39.06-.75.32-1.45.63ZM160.76,207.52c.34.39.42.58.54.6,2.27.52,4.54.17,6.79-.13.15-.02.25-.4.52-.86-2.71-.04-5.15.21-7.86.39ZM380.4,187.55c-2.64-.58-4.83-1.07-7.47-.46.51.4.7.68.91.7,1.86.18,3.73.33,5.59.44.19.01.41-.28.96-.69ZM143.64,201.59c0-.17,0-.33,0-.5-.79-.86-1.81-.39-2.74-.32-.2.02-.38.44-.57.68.25.18.51.53.75.52.86-.06,1.7-.25,2.55-.39ZM310.09,161.67c.79,1.27,1.91,1.4,3.74.48-1.22-.69-2.42-.72-3.74-.48ZM151.64,166.68c1,.14,1.62.23,2.41.34q-.69-1.15-2.41-.34Z"/>
    <path class="cls-7" d="M250.69,144.35c.27-.47.54-.95.8-1.42-.08-.07-.16-.13-.24-.2-2.34,2.23-4.67,4.45-7,6.68-.09-.09-.19-.18-.28-.28,1.51-2.04,3.53-3.66,4.99-5.76-2.63,1.42-4.12,4.11-6.56,5.75,1.19-1.6,3.02-2.67,3.97-4.45-.08-.08-.17-.17-.25-.25-1.64,1.5-3.27,3-4.91,4.5-.1-.1-.2-.21-.3-.31,1.19-1.11,2.38-2.23,3.57-3.34-1.37.17-2.13,1.21-3.12,1.9-.91.63-1.38,2.1-3.09,1.6,1.29-1.18,2.59-2.19,3.65-3.4,1.01-1.15,2.17-2.26,2.78-3.88-1.15-.34-1.74.28-2.32.75-1.94,1.6-3.8,3.29-5.77,4.85-2.23,1.78-4.49,3.53-6.84,5.15-.84.58-1.17,1.17-1.02,2.11.48,3.04-1.13,4.8-3.66,6.01-.1.05-.18.13-.26.21-.04.04-.06.1-.12.21,1.01,1.52,2.03,3.07,3.18,4.82-1.5.26-2.77.59-4.05.67-1.86.12-3.63-.1-4.75-1.96-.52-.87-1.26-1.59-1.88-2.4-1.9-2.5-1.34-5.3-.86-8.04.13-.75.73-1.41,1.08-2.13.28-.56.62-1.11.77-1.71.34-1.42,1.04-2.63,1.79-3.85.3-.49.56-1.21.42-1.72-.31-1.21-.05-2.24.41-3.32.54-1.25,1.21-2.46,1.21-3.88,0-.56.09-1.15-.05-1.67-.28-1.06-.09-2.03.37-2.96,1.01-2.02,2.17-3.9,4.58-4.52.32-.08.68-.46.79-.78.85-2.4,2.75-3.71,4.85-4.83.7-.38,1.44-.71,2.11-1.13,4-2.49,8.35-2.66,12.82-1.85,1.95.36,3.89.82,5.83,1.24,1.9.41,3.71-.1,5.55-.45,4.01-.76,7.78-2.23,11.52-3.77,1.6-.66,3.06-.4,4.63.15,3.54,1.22,7.13,2.29,10.7,3.44.3.1.74.32.78.54.25,1.46,1.35,1.77,2.57,2,.45-1.15-.25-2.1-.54-3.15,1.16-1.19,2.61-1.04,4-.72,1.26.3,1.52,1.47.7,2.47-.24.29-.45.61-.67.91.79.73,1.34-.21,2.1-.06v1.01c.75-.17,1.42-.32,2.22-.51-.03.39-.05.74-.09,1.24.5-.24.89-.42,1.39-.65.3.24.65.51,1.07.84,1.44-.83,2.29.17,3.03,1.21.49.69.82,1.5,1.24,2.24.86,1.51,2.14,2.44,3.86,2.81,1.65.36,3.28.8,5.04,1.24-.2.42-.37.75-.53,1.08-.6-.34-1.13-.63-1.69-.95q-.21,1.49,1.81,2.37c-.21,1.72-1.31,2.99-2.3,4.29-.23.3-.78.46-1.19.48-1.14.07-2.29.12-3.42.01-1.61-.16-3.17-.31-4.72.33-.61.25-1.12.06-1.04-.95-.87.75-1.61,1.39-2.35,2.03-.08-.07-.17-.13-.25-.2.37-.59.73-1.18,1.07-1.72-.19-.47-.36-.91-.62-1.54-1.77,1.63-3.03,3.75-4.98,5.14-.1-.09-.19-.18-.28-.26,1.13-1.28,2.25-2.55,3.38-3.83-.07-.08-.15-.17-.23-.25-.24.16-.51.29-.71.49-1.19,1.23-2.37,2.47-3.54,3.73-.33.35-.6.71-1.27.28,1.13-1.32,2.24-2.64,3.52-4.15-1.52-.06-1.72,1.09-2.33,1.71-.67.68-1.3,1.42-2.1,2.01.34-1.34,1.64-2.01,2.06-3.06-.67-.37-1.27-.71-2.05-1.14-2.88,2.64-5.93,5.43-8.98,8.23-.07-.03-.14-.07-.21-.1.12-.31.15-.72.37-.93.82-.79,1.72-1.49,2.55-2.27,1.69-1.6,3.34-3.24,5.18-5.03-1.93-.2-2.98,1.15-4.38,1.46-.02-.2-.04-.36-.09-.74-1.03.86-1.94,1.61-2.84,2.36-.03-.02-.06-.04-.09-.06.58-.71,1.16-1.42,2-2.45-.69.24-.98.34-1.31.46.05-.36.09-.68.14-1.13-.26.04-.5.01-.66.11-2.05,1.42-2.8,3.49-2.9,5.88-.12,2.91-.32,5.82-.31,8.72,0,1.52.42,3.04.59,4.57.1.9.26,1.84.1,2.71-.16.84-.04,1.4.6,1.95,1.51,1.29,3,2.61,4.5,3.92.29.25.57.51,1.03.92-.6.08-.98.14-1.36.17-2.38.2-4.77.44-7.16.58-1.07.06-2.18,0-3.24-.19-.48-.08-1-.52-1.29-.95-1.58-2.3-3.11-4.63-4.62-6.98-1.12-1.74-1.08-3.74-.89-5.65.18-1.86.1-3.66-.33-5.43-.45-1.86-.49-3.72-.54-5.6-.03-1.15.18-2.38-.63-3.55-1,.98-.74,2.17-.82,3.24-.08,1.12-.02,2.24-.02,3.59-.52-.24-.78-.37-1.14-.54-1.47,1.34-2.52,3.23-4.35,4.31,1.15-2.05,3.06-3.56,3.83-5.92-.59.68-1.17,1.35-1.75,2.03-.63.74-1.21,1.52-1.89,2.22-.64.65-1.04,1.62-2.42,1.95,1.73-2.22,3.68-3.86,4.85-6.1-2.75,2.17-4.5,5.45-7.86,6.9,2.21-2.69,4.84-5.02,6.82-7.89-.09-.08-.18-.17-.26-.26-.38.37-.77.73-1.14,1.12-2.14,2.22-4.27,4.45-6.43,6.65-.24.25-.59.39-1,.46,2.39-3.14,5.55-5.61,7.45-9.13-1.29.64-1.84,2-2.83,2.94-1,.94-1.88,2-2.83,2.98-.96.98-1.94,1.94-3.06,2.76,2.07-2.84,4.8-5.11,6.85-7.94-.09-.1-.18-.21-.26-.31-.33.23-.71.42-.98.71-2.03,2.16-4.03,4.34-6.06,6.5-.37.39-.85.66-1.43.82,2.2-2.24,4.49-4.38,6.14-7.04-.1-.09-.19-.19-.29-.28-.74.77-1.48,1.54-2.21,2.3-.06-.05-.11-.1-.17-.15ZM291.17,134.92c.04.19.07.38.16.84.44-.59.72-.96,1.22-1.64-.5.2-.6.24-.71.28-.11.04-.21.08-.32.12.23-.39.46-.79.73-1.26-.93.17-1.39.68-1.61,1.42,0,.03.35.16.53.24ZM237.8,126.65c1.15-1.19,2.3-2.38,3.45-3.56-1.45.5-2.49,1.54-3.51,2.56-.16.16.06.69.1,1.04-1.63.28-2.16,1.7-3.17,2.83.33.03.49.09.54.04.87-.96,1.73-1.94,2.6-2.91ZM296.68,128.4c1.15,1.3,2.45.96,3.61,1.14,1.43.21,1.43.2,2.12-1.25-.47-.24-.94-.48-1.23-.63.09-.6.16-1.04.23-1.48-.42.03-.9-.06-1.24.12-1.18.64-2.31,1.37-3.5,2.1ZM270.46,156.16c.54-1.45,1.02-2.77,1.5-4.09.05-.14.03-.46-.02-.47-1.15-.29-.29-.92-.17-1.32.28-.87.7-1.7,1.06-2.55-1.65,1.73-2.34,3.9-3.12,6.02-.07.19-.03.61.04.63.99.26.16,1.11.7,1.78ZM241.55,132.74c-1.95.82-8.12,7.52-8.79,9.39,3.02-3.23,5.91-6.31,8.79-9.39ZM265.58,124.78c.62-.56,1.48-1.01,1.83-1.7.84-1.71,2.5-2.15,3.95-2.93.55-.3,1.14-.52,1.71-.77-.06-.11-.13-.22-.2-.33-3.21.83-5.93,2.36-7.29,5.73ZM227.23,135.61c.11.08.21.16.32.24,1.67-2.21,3.33-4.42,4.99-6.63-2.55,1.55-3.82,4.06-5.31,6.4ZM270.36,141.95c-.12-.05-.24-.1-.36-.14-1.69,2.27-3.03,4.66-2.36,7.73.4-.72,1.02-1.58.86-2.25-.4-1.63.61-2.66,1.16-3.91.21-.49.47-.95.71-1.43ZM270.65,148.97c1.1-1.22,3.22-5.93,3.19-6.85-1.53,2.15-2.57,4.41-3.19,6.85ZM226.71,144.64c.12.09.24.18.36.27,1.75-2.1,3.5-4.21,5.25-6.31-2.4,1.57-4.02,3.79-5.61,6.04ZM292.37,119.94c-.08-.14-.16-.27-.24-.41-.58.09-1.22.07-1.72.32-.32.16-.57.7-.6,1.09-.02.19.51.47.83.64.24.12.53.12.95.2.27-.65.53-1.24.78-1.84ZM268.03,151.66c.13.06.25.12.38.18.79-1.87,1.58-3.75,2.38-5.62-1.74,1.43-2.24,3.44-2.76,5.44ZM240.79,121.3c-2.06.44-4.51,2.32-4.98,3.82,1.51-1.13,2.99-2.24,4.46-3.35.17-.13.32-.29.52-.47ZM267.46,119.53c-2.7.47-3.96,1.39-4.1,2.65,1.32-.85,2.71-1.75,4.1-2.65ZM274.15,158.98c.13,0,.26,0,.39.01.24-1.88.47-3.77.71-5.66-1.04,1.78-1.33,3.67-1.09,5.65ZM272.1,161.55c.15.02.31.04.46.06.27-1.43.55-2.86.82-4.29.03-.16-.05-.32-.11-.72-.94,1.7-1.03,3.33-1.16,4.95ZM269.65,130.26c-1.89,1.05-3.08,2.92-2.89,4.24.9-1.33,1.81-2.66,2.89-4.24ZM267.1,144.88c1.11-1.31,2.22-3.75,2.24-4.94-1.05,1.55-1.95,2.92-2.24,4.94ZM274.73,122.22c-1.21.45-2.75,2.05-2.81,3.44-.12-.12-.24-.24-.36-.36,1.25-1.21,2.49-2.41,3.17-3.07ZM219.87,150.8c.13.07.26.14.39.21.79-1.56,1.58-3.11,2.38-4.67-.11-.05-.21-.11-.32-.16-1.13,1.38-1.79,3-2.45,4.62ZM226.49,150.53c.1.06.2.11.3.17.64-1.16,1.28-2.31,1.92-3.47-1.35.75-1.81,2.01-2.22,3.3ZM228.66,136.31c-.11-.07-.22-.13-.33-.2-1.03,1.06-1.92,2.2-2.08,3.82.8-1.21,1.61-2.41,2.41-3.62ZM249.82,122.96c-1.68.14-2.97,1.03-3.55,2.51,1.25-.88,2.32-1.64,3.55-2.51ZM260.72,131.83c.88-1.25,1.76-2.5,2.63-3.75-1.66.69-2.41,2.06-2.63,3.75ZM229.68,127.84c.1.07.2.13.3.2.96-1.1,1.92-2.2,2.88-3.3-1.58.55-2.42,1.79-3.18,3.1ZM272.31,154.34c-1.3,1.2-1.78,2.57-1.43,4.24.5-1.5.94-2.78,1.43-4.24ZM254,137.12c-1.51.39-2.03.95-2.24,2.46.78-.86,1.49-1.63,2.24-2.46ZM222.63,157.26c.12.05.24.09.36.14.42-.97.84-1.94,1.24-2.92.08-.19.08-.41.12-.62-1.04.95-1.5,2.12-1.72,3.4ZM275.51,148.39c-.12-.04-.24-.07-.36-.1-.51,1.09-1.22,2.13-.66,3.51.34-1.14.68-2.27,1.02-3.41ZM228.48,149.41c.16.09.31.19.47.28.57-.96,1.14-1.93,1.7-2.89-.12-.07-.25-.15-.38-.23-.6.95-1.19,1.89-1.79,2.84ZM251.09,128.58c.9-.83,1.8-1.65,2.97-2.73-1.72.48-2.65,1.29-2.97,2.73ZM238.72,140.99c-1.24.46-2.09,1.38-2.58,2.65.86-.88,1.72-1.77,2.58-2.65ZM268.04,153.71c-.52,1.01-.98,2.04-.57,3.25.47-1.03.74-2.09.57-3.25ZM260.67,123.63c-1.12.19-1.92.69-2,1.9.67-.64,1.34-1.27,2-1.9ZM225.57,142.57c.89-.75,1.64-1.6,2.23-3.04-1.26.98-1.94,1.88-2.23,3.04ZM233.12,135.49c.13.13.25.26.38.4.86-.9,1.73-1.81,2.59-2.71-.1-.1-.21-.2-.31-.3-.89.87-1.77,1.74-2.66,2.61ZM269.13,135.1c.64-.81,1.28-1.62,1.93-2.43-1.25.34-1.92,1.16-1.93,2.43ZM244.33,133.67c.72-.86,1.4-1.68,2.14-2.57-1.55.48-2.02,1.05-2.14,2.57ZM218.79,158.52c.12.01.24.02.36.03q.7-1.82.28-2.98c-.26,1.18-.45,2.07-.64,2.95ZM221.93,152.29c.48-.93.96-1.86,1.44-2.78-1.11.61-1.48,1.59-1.44,2.78ZM223.83,139.67c-.1-.06-.21-.12-.31-.18-.64.73-1.15,1.51-.84,2.66.38-.82.77-1.65,1.15-2.47ZM255.05,134.26c.12.03.23.07.35.1.32-.79.64-1.58.96-2.37-.83.59-1.39,1.28-1.31,2.27ZM276.71,123.6c.84-1.08,1.45-1.87,2.06-2.66-1.19.37-1.9,1.08-2.06,2.66ZM221.39,163.32c.13.03.27.06.4.09.23-.79.45-1.58.68-2.38-.75.64-1.2,1.37-1.08,2.29ZM250.15,136.16c-1.08.38-1.7,1.06-1.66,2.57.67-1.05,1.16-1.81,1.66-2.57ZM253.88,129.43c-1.98.54-2.15.69-2.39,1.94.72-.59,1.4-1.13,2.39-1.94ZM263.7,126.32c-1.55.36-1.97.81-2.16,2.37.74-.81,1.42-1.56,2.16-2.37ZM246.08,121.82c-.86.52-1.08,1.37-1.29,2.64.96-.88,1-1.8,1.29-2.64ZM284.59,128.48c.55-.67,1.1-1.33,1.65-2-1.1.16-1.59.86-1.65,2ZM290.12,125.2c-.1-.08-.21-.16-.31-.25-.59.5-1.22.98-.98,2.03.43-.59.86-1.19,1.3-1.78ZM287.62,134.08c.65-.6,1.31-1.2,1.96-1.79-1.12.06-1.83.59-1.96,1.79ZM272.91,134.05c-.1-.07-.2-.13-.31-.2-.51.55-1.07,1.08-.75,2.34.44-.9.75-1.52,1.06-2.14ZM273.1,137.91c.15.08.3.17.44.25.36-.56.71-1.12,1.07-1.68-.11-.07-.22-.14-.33-.21-.39.55-.79,1.09-1.18,1.64ZM230.21,136.09c.12.12.24.23.37.35.52-.63,1.04-1.25,1.56-1.88-.1-.09-.2-.17-.3-.26-.55.6-1.09,1.19-1.63,1.79ZM279.79,125.58c-.07-.09-.14-.19-.21-.28-.67.3-1.23.72-1.62,1.34.08.09.16.19.23.28.53-.45,1.07-.89,1.6-1.34ZM281.93,123.87c.54-.51.98-.93,1.47-1.39-.77.16-1.29.51-1.47,1.39ZM220.98,157.36q-.91,1.13-.5,2.6c.2-1.04.35-1.82.5-2.6ZM290.26,127.93c-.79.24-1.35.64-1.09,1.59.36-.53.73-1.06,1.09-1.59ZM239.81,129.84c.6-.8.98-1.32,1.37-1.85-.82.22-1.46.56-1.37,1.85ZM243.08,136.54c.43-.38.86-.76,1.29-1.14-.78-.03-1.32.23-1.29,1.14ZM292.96,129.54q-1,.23-1.05,1.13c.38-.41.72-.77,1.05-1.13ZM292.62,126.59q.97-.01,1.73-1.13c-.75.49-1.24.81-1.73,1.13ZM250.42,125.77c.46-.33.91-.67,1.37-1-.72-.04-1.38,0-1.37,1ZM225.13,158.33q-.76.66-.52,1.66c.22-.7.37-1.18.52-1.66ZM261.05,134.75q-.9.37-.78,1.47c.29-.56.52-.99.78-1.47ZM257.46,125.4c-.13-.07-.26-.14-.39-.22-.22.43-.43.86-.64,1.3.11.06.22.11.33.17.23-.42.47-.83.7-1.25ZM262.41,136.92c.1.08.21.16.31.24.16-.33.31-.65.47-.98-.08-.05-.17-.09-.25-.13-.18.29-.35.58-.53.87Z"/>
    <path class="cls-3" d="M246.63,159.15c-.17-1.38-.22-2.67.14-3.95.36-1.25.77-1.56,2.04-1.68.23-.02.46-.06.68-.02,3.85.64,7.72.36,11.59.33.28,0,.56.04.99.07.44,1.66.89,3.34,1.38,5.19-.9.09-1.67.22-2.44.22-4.55,0-9.11-.02-13.66-.05-.17,0-.34-.05-.73-.11Z"/>
    <path class="cls-1" d="M245.92,161.68c4.3,0,8.16-.01,12.03,0,1.65,0,3.31.12,4.96.12,1.06,0,2.11-.13,3.34-.21.38.9.82,1.93,1.37,3.2-.9.04-1.61.09-2.33.11-2.61.04-5.23.35-7.82-.32-.54-.14-1.18-.16-1.7,0-2.35.74-4.75.22-7.07.42-.88-1.05-1.7-2.04-2.79-3.33Z"/>
    <path class="cls-1" d="M238.62,160.26c1.03-.45,1.78-1.3,2.63-1.99.83-.68,1.64-1.39,2.48-2.11.43.89,0,1.29-.56,1.68-1.55,1.07-3.08,2.17-4.6,3.27-.33.24-.6.54-.76.99,2.18-.95,3.92-2.58,5.99-3.84.36.58.26.84-.31,1.22-2.08,1.4-4.09,2.89-6.13,4.36-.11.08-.14.27-.24.48.86.24,1.32-.34,1.84-.74.99-.77,1.93-1.6,2.95-2.33.4-.28.95-.34,1.5-.34-1.18,1.35-2.76,2.16-3.98,3.43,1.94-.55,3.35-1.94,5.17-3.11-.26,1.35-1.33,1.54-2.04,2.06-.7.52-1.46.96-2.1,1.58,1.66-.19,2.77-1.41,4.28-2.1.15.25.31.51.46.76-.9.72-1.7,1.41-2.57,2.03-.59.42-5.32-.04-5.83-.6-.31-.34-.52-.88-.54-1.33-.04-.85.01-1.72.17-2.55.35-1.84.19-3.62-.25-5.42-.38-1.52-.14-2,1.13-2.65-.31.48-.54.84-.77,1.2.07.09.15.18.23.26.76-.54,1.5-1.11,2.3-1.59.74-.46,1.29-1.32,2.7-1.22-1.84,1.41-3.45,2.63-5.05,3.86.08.12.15.24.23.37.3-.14.63-.23.89-.43,1.53-1.1,3.04-2.22,4.56-3.34.5-.36,1.01-.71,1.87-.21-2.39,1.81-4.66,3.53-6.93,5.25.05.1.11.21.16.31.35-.07.69-.15,1.26-.27-.56.6-1,1.06-1.44,1.52.08.09.16.18.24.27,1.23-.55,2.15-1.55,3.21-2.35,1.09-.82,2.16-1.67,3.3-2.56.33.65.04.96-.38,1.3-1.51,1.21-2.99,2.47-4.49,3.7-.3.25-.65.45-.97.67.13.16.25.31.38.47Z"/>
    <path class="cls-3" d="M233.97,153.66c1.02,1.86.75,3.76.81,5.59-1.77-.12-3.32-.23-4.99-.35.76-2.16,1.22-4.56,4.18-5.25Z"/>
    <path class="cls-1" d="M234.52,161.61v2.82c-1.07-.07-2.06-.13-3.06-.2-.52-.72-1.03-1.44-1.68-2.35,1.67-.1,3.13-.18,4.74-.27Z"/>
    <path class="cls-1" d="M288.77,139.83c-2.96,3.26-5.92,6.52-8.89,9.78-.12-.06-.24-.13-.36-.19.08-.32.07-.72.26-.96.56-.71,1.19-1.38,1.83-2.02,2.04-2.05,4.1-4.09,6.16-6.12.25-.25.57-.44.85-.66.05.06.1.12.15.18Z"/>
    <path class="cls-1" d="M250.85,144.51c-1.12,1.75-2.79,2.93-4.4,4.18.42-.97,1.28-1.56,1.99-2.28.71-.72,1.49-1.37,2.24-2.06.05.05.11.1.17.15Z"/>
    <path class="cls-1" d="M282.71,149.23c-.4,1.76-1.91,2.6-3.05,3.75.25-1.86,1.93-2.57,3.05-3.75Z"/>
    <path class="cls-1" d="M246.93,165.37c-.95.07-1.9.13-2.85.19-.03-.09-.06-.18-.09-.27.54-.37,1.08-.73,1.71-1.16.45.31.88.6,1.3.89-.02.12-.04.23-.07.34Z"/>
    <path class="cls-1" d="M235.98,152.87c.61-1.65.71-1.71,2.11-1.4-.8.53-1.45.96-2.11,1.4Z"/>
    <path class="cls-1" d="M283.65,140.22c-.74.66-1.49,1.33-2.24,1.99-.07-.07-.14-.14-.21-.22.72-.71,1.44-1.43,2.15-2.15.1.12.2.25.3.37Z"/>
    <path class="cls-1" d="M279.89,155.21c-.28-1.17.49-1.62,1.29-2.07-.43.69-.86,1.38-1.29,2.07Z"/>
    <path class="cls-1" d="M262.11,147.18c.29-.44.57-.87.99-1.5.28,1.07-.39,1.32-.99,1.5Z"/>
    <path class="cls-1" d="M295.04,140.3c.33-.36.67-.73,1-1.09.06.05.12.1.19.15-.32.4-.63.79-.95,1.19-.08-.08-.16-.17-.24-.25Z"/>
    <path class="cls-1" d="M279.75,147.01c.18-.19.35-.38.53-.57.05.04.1.09.15.14-.17.19-.35.38-.52.57-.05-.05-.1-.09-.16-.14Z"/>
    <path class="cls-3" d="M171.66,182.31c.12-.04.02-.03.01,0-1.17,3.87-3.32,7.38-4.1,11.39-.2,1.04-.81,1.48-1.78,1.42-.92-.06-1.36-.48-1.52-1.52-.08-.51-.09-1.02-.11-1.53-.19-4.15-.37-8.3-.77-12.51-.33,1.12-.76,2.21-.97,3.35-.35,1.84-.68,3.71-.8,5.58-.11,1.63-1.09,2.84-1.65,4.26-.23.59-.81.73-1.44.64-1.67-.23-2.58-1.28-2.3-2.95.35-2.19.84-4.37,1.29-6.55.58-2.85,1.16-5.7,1.75-8.55.08-.39.2-.77.32-1.15.28-.85.88-1.18,1.73-.95,1.28.34,2.54.52,3.88.38,1.17-.12,1.86.67,1.89,2.13.04,2.05-.05,4.1-.08,6.16-.01,1.19,0,2.37.3,3.62.15-.37.33-.73.45-1.11.72-2.34,1.44-4.68,2.15-7.03.16-.54.17-1.13.37-1.65.17-.45.46-1.14.78-1.19,1.22-.17,2.49-.29,3.69-.1,1,.16,1.35,1.1,1.3,2.13-.17,3.48-.35,6.95-.46,10.42-.06,1.87.03,3.75,0,5.62-.01,1.13-.03,2.28-.22,3.39-.15.89-.78,1.24-1.61,1.17-1.02-.09-2.06-.87-2.13-1.63-.02-.22.03-.45.03-.68,0-4.2,0-8.41,0-12.56Z"/>
    <path class="cls-3" d="M270.79,219.65c.18,2.39-.77,4.88-2.56,7.1-2.33,2.9-5.8,4.08-9.32,2.97-.93-.29-1.85-.93-2.54-1.63-1.3-1.31-2.18-2.91-2.59-4.74-.79-3.46-.97-6.88.42-10.25.04-.1.05-.23.11-.32,1.41-2.53,3.46-4.52,5.85-6.05,1.33-.85,2.99-.49,4.42.29,1.63.89,2.88,2.2,3.92,3.7,1.5,2.15,2.45,5.7,2.29,8.93ZM265.77,219.78c-.17-3.01-.89-5.36-2.11-7.51-.46-.8-1.26-1.47-2.04-2-.94-.63-1.4-.5-1.9.55-.61,1.28-1.12,2.62-1.49,3.98-.55,2.05-.7,4.17-.41,6.28.23,1.65,1.62,2.98,3.27,3.33,1.32.28,3.06-.57,3.81-2.05.47-.94.69-2.02.87-2.57Z"/>
    <path class="cls-3" d="M216.81,218.82c.71,2.08,1.4,4.12,2.12,6.15.42,1.18.93,2.34,1.32,3.53.37,1.16.24,1.04-.84,1.76-1.04.69-2.07.72-3.22.69-.87-.01-1.25-.41-1.43-1.15-.35-1.38-.69-2.77-1.04-4.15-.46-1.88-.91-3.77-1.39-5.65-.06-.25-.24-.47-.53-1-.29.64-.55.99-.62,1.38-.31,1.8-.56,3.61-.84,5.41-.12.79-.17,1.59-.37,2.36-.28,1.07-.68,1.29-1.73,1.16-2.59-.32-2.72-.41-2.38-2.97.4-3,.97-5.97,1.44-8.96.5-3.15,1-6.3,1.43-9.46.14-1.02.48-1.7,1.56-1.92,2.96-.6,6.06-.92,8.61.82,1.74,1.19,3.55,2.99,3.3,5.49-.25,2.42-1.51,4.4-3.69,5.67-.49.28-1.01.51-1.68.84ZM211.86,216.67c1.13-.06,2.02.15,2.64-.17,1.47-.78,2.73-1.91,3.47-3.44.8-1.68.24-2.93-1.53-3.39-.8-.21-1.68-.17-2.52-.21-.85-.04-1.24.48-1.34,1.25-.24,1.86-.45,3.72-.72,5.97Z"/>
    <path class="cls-3" d="M229.86,189.78c0-1.51.02-2.74,0-3.96-.05-2.9-.11-5.81-.18-8.72-.03-1.19,1.52-2.4,2.59-1.94.34.15.68.62.76,1.01.17.78.21,1.59.22,2.38.07,5.94.13,11.87.19,17.82,0,.17,0,.34,0,.51-.07,1.82-1.28,2.79-3.04,2.39-.3-.07-.64-.3-.79-.56-.43-.73-.86-1.48-1.12-2.27-.83-2.55-1.57-5.12-2.36-7.69-.04-.14-.17-.25-.47-.68,0,1.46,0,2.59,0,3.71.02,1.94.05,3.88.06,5.82,0,.86-.01,1.79-.98,2.19-1.07.43-2.16.27-3.11-.33-.3-.19-.52-.77-.51-1.17.07-5.13.17-10.26.29-15.4.05-1.94.15-3.88.25-5.82.04-.72-.09-1.59.94-1.75,1.21-.2,2.46.49,2.75,1.48.38,1.32.67,2.66,1.11,3.95.94,2.81,1.93,5.6,2.92,8.4.05.14.19.25.49.63Z"/>
    <path class="cls-3" d="M288.04,185.81c.75.59,1.42,1.12,2.08,1.65,2.13,1.7,2.7,3.79,2.07,6.39-.61,2.55-2.22,3.88-4.64,4.44-.94.22-1.9.39-2.85.58-.34.07-.75,0-1,.18-1.7,1.17-3.29.23-4.89-.21-.83-.23-1.12-.94-1.07-1.76.13-1.93.34-3.86.41-5.8.17-4.39.3-8.79.39-13.18.05-2.28.71-3.06,2.98-3.23.51-.04,1.04.02,1.54-.09,2.74-.57,4.71.65,6.48,2.58,1.82,2,1.99,4.37.28,6.5-.5.62-1.08,1.17-1.78,1.93ZM283.34,196.23c.7-.04,1.15-.05,1.59-.1,3.07-.29,3.7-1.07,3.36-4.15-.02-.23-.08-.45-.12-.67-.61-3.43-.95-3.69-4.47-3.48-.05,0-.1.04-.25.12-.04.32-.12.71-.12,1.09-.01,2.33,0,4.65,0,7.19ZM283.31,185.36c2.2-.44,4.14-2.01,4.71-3.81.16-.49.09-1.14-.09-1.64-.67-1.87-2.55-2.99-4.98-2.99-.34,2.78.67,5.51.36,8.43Z"/>
    <path class="cls-3" d="M344.78,198.02c-.7-1.47-.41-3.08-.39-4.66.03-1.86,0-3.73,0-5.78-1.42.08-2.64.15-4.01.23,0,1.81,0,3.45,0,5.08,0,1.14.11,2.29.04,3.42-.11,1.78-1.77,2.73-3.44,2.07-.78-.31-.95-.93-.96-1.65-.02-2-.11-4-.02-5.99.18-4.17.28-8.32-.11-12.49-.17-1.77.48-2.36,2.29-2.36.28,0,.57.03.85.05,1.32.12,1.72.47,1.71,1.82,0,1.48-.17,2.96-.22,4.45-.04,1.06-.01,2.13-.01,3.4,1.39-.2,2.65-.37,4.04-.57.26-2.16.25-4.24-.14-6.32-.24-1.29.29-2.43,1.4-2.76,2.12-.62,3.08-.36,3.17,2.03.14,3.93.3,7.86.47,11.79.06,1.37.17,2.73.23,4.1.03.68.06,1.37-.02,2.05-.19,1.62-.91,2.17-2.51,2.08-.73-.04-1.46,0-2.39,0Z"/>
    <path class="cls-3" d="M272.03,206.61c1.22-.1,2.51-.27,3.8-.3,1.42-.02,2.86.2,4.27.11,1.14-.07,1.9.38,2.45,1.23,1.1,1.7,1.82,3.54,1.81,5.62,0,.92-.37,1.64-.99,2.28-.86.9-1.68,1.83-2.54,2.78.72,1.61,1.77,2.86,2.99,4,1.08,1.02,2.15,2.04,3.18,3.12,1.01,1.06,1.03,1.59.26,2.51-1.02,1.21-1.67,1.36-2.91.45-2.4-1.77-4.52-3.84-6.11-6.4-.24-.38-.49-.76-.92-1.43-.06.63-.15.97-.12,1.3.13,1.99.26,3.98.43,5.97.11,1.36-.65,2.12-1.74,2.65-.93.46-1.74.22-2.11-.72-.29-.73-.49-1.53-.54-2.31-.32-4.84-.58-9.68-.9-14.52-.04-.67-.27-1.34-.43-2-.32-1.32-.62-2.64.14-4.34ZM276.42,216.78c2.13-.62,3.33-1.96,4.37-3.49.52-.78.34-1.51-.15-2.22-1.05-1.54-2.97-2.06-5.11-1.29-.19,2.32.51,4.55.89,7.01Z"/>
    <path class="cls-3" d="M251.37,207.91c-.4,1.52-.74,2.8-1.15,4.32-.83-.42-1.43-.7-2-1.02-1.59-.88-2.81-.56-3.74,1.01-.2.34-.36.72-.57,1.05-.38.58-.27,1.11.17,1.55.64.64,1.29,1.29,2.01,1.84,1.34,1.01,2.51,2.14,3.23,3.69,1.42,3.07,1.24,5.97-.79,8.71-.82,1.1-1.94,1.81-3.26,2.06-2.81.53-5.65.47-8.54.26-.07-.3-.16-.52-.16-.73.07-1.82.16-3.64.25-5.58.47.09.84.19,1.21.23,1.92.2,3.83.44,5.75.55.89.05,1.43-.53,1.63-1.45.27-1.24.24-1.62-.75-2.15-2.29-1.21-4.05-2.91-5.44-5.08-.69-1.08-.9-2.17-.75-3.41.6-5.21,6.03-8.11,10.17-6.68.8.27,1.62.49,2.73.83Z"/>
    <path class="cls-3" d="M198.03,181.92c.74-.74,1.33-1.35,1.94-1.93,1.32-1.26,2.66-2.51,3.99-3.75.25-.23.49-.54.79-.64.38-.13.99-.26,1.2-.07.24.23.2.8.19,1.23,0,.19-.2.4-.35.58-1.68,2.01-3.37,4.01-5.19,6.16,1.78,3.61,3.62,7.39,5.49,11.15.54,1.08,1.12,2.13.93,3.4-.13.83-2.15,2.13-2.88,1.74-.4-.21-.71-.72-.9-1.16-.99-2.24-1.89-4.53-2.91-6.76-.71-1.54-1.57-3.01-2.71-4.49-.07.63-.13,1.27-.22,1.9-.35,2.43-.7,4.85-1.04,7.28-.16,1.11-.8,1.87-1.72,2.42-.75.46-1.34.21-1.52-.65-.1-.49-.07-1.02-.04-1.53.43-6.95.88-13.9,1.32-20.85.04-.65.11-1.41.85-1.49.81-.09,1.7,0,2.46.28.25.09.26,1.02.25,1.56-.02,1.53-.12,3.07-.17,4.6,0,.26.11.52.24,1.02Z"/>
    <path class="cls-3" d="M299.84,210.83c-.12,1.41-.29,2.6-.31,3.79-.06,3.6-.06,7.19-.07,10.79,0,.56.1,1.13.17,1.69.16,1.24-.4,1.86-1.62,1.7-1.34-.17-2.67-.41-4.24-.65.21-1.84.31-3.6.62-5.31.63-3.39.83-6.8.79-10.23-.01-1.04-.3-1.5-1.38-1.52-1.18-.02-2.37.2-3.56.32-.45.05-.9.16-1.35.16-.59,0-1.01-.34-1.03-.94-.04-1.52-.01-3.04-.01-4.79,1.82,0,3.46-.01,5.09,0,3.93.04,7.87.14,11.8.1,1.76-.02,2.14.15,2.3,1.86.04.46.11.91.17,1.36.16,1.16-.03,1.43-1.21,1.5-.97.05-1.94-.01-2.91.02-1.02.03-2.04.1-3.26.16Z"/>
    <path class="cls-3" d="M220.34,175.16c-.43,1.62-.8,3.02-1.18,4.48h-6.71v4.8c1.65,0,3.24-.08,4.82.02,1.26.09,1.25.19,1.14,1.51-.17,2.11-.2,2.15-2.25,2.41-1.18.15-2.37.23-3.7.36v7.37h7.33v3.35c-.54.09-1.08.24-1.62.26-2.51.09-5.01.17-7.52.22-.44,0-.9-.08-1.34-.19-.56-.14-.8-.52-.8-1.13.02-5.13.01-10.27.02-15.41,0-1.94.02-3.88.04-5.82.02-1.69.49-2.07,2.16-2.07,1.94,0,3.87-.12,5.81-.16,1.17-.03,2.35,0,3.82,0Z"/>
    <path class="cls-3" d="M259.96,179.82v3.97c1.07.01,2.07.01,3.07.03.74.01,1.52-.06,1.87.84.3.78.01,1.4-.8,2.23-1.12,1.14-2.53,1.15-4.19,1.1-.18,2.39-.34,4.7-.51,7.04,1.08.54,2.09.17,3.05-.04,1.1-.24,2.15-.76,3.24-1.08.38-.11.92-.1,1.24.1.2.12.24.74.13,1.06-.26.8-.4,1.5.22,2.23.49.58.14,1.11-.48,1.33-.53.19-1.11.32-1.67.31-1.91-.05-3.74.3-5.57.79-1.99.52-2.63.11-2.86-1.95-.21-1.81-.41-3.65-.31-5.46.27-4.79.24-9.57-.09-14.36-.13-1.91.02-2.22,1.96-2.46,2.6-.32,5.22-.45,7.84-.53,1.29-.04,1.57.39,1.57,1.7,0,.51-.04,1.03-.08,1.54-.11,1.31-.4,1.58-1.74,1.45-1.94-.18-3.86-.28-5.88.15Z"/>
    <path class="cls-3" d="M295.26,199.69c-.06-.98-.14-1.86-.15-2.75-.02-1.6-.01-3.19-.01-4.79,0-4.85,0-9.69,0-14.54,0-.4-.07-.86.11-1.17.19-.32.63-.67.98-.7,1.28-.1,2.58-.09,3.87-.08,1.64.02,3.31-.06,4.92.18,1.46.22,1.81.83,1.66,1.91-.22,1.54-.9,2.27-2.23,2.29-1.71.02-3.41,0-5.24,0-.57,1.49-.44,3-.36,4.51,2.33.09,2.41.17,2.61,2.62.13,1.55,0,1.66-2.96,2.32-.38,1.82-.21,3.66.13,5.64,2.06.06,4.03.21,6.01.16,1.58-.04,2.06.46,1.65,2.03-.27,1.06-.63,1.76-2.02,1.8-2.38.07-4.74.5-7.11.73-.5.05-1.02-.08-1.87-.16Z"/>
    <path class="cls-3" d="M242.23,179.1c-.69.07-1.18.11-1.68.16-.96.11-1.92.29-2.89.32-2.02.06-2.43-.39-2.36-2.36.04-.98.47-1.37,1.5-1.4,2.1-.05,4.2-.18,6.3-.16.82,0,1.69.19,2.46.5,1.86.74,2.27,1.83,1.48,3.66-.34.79-.74,1.54-1.13,2.3-1.96,3.86-3.93,7.71-5.89,11.57-.15.3-.24.62-.46,1.2,1.35-.07,2.51-.11,3.66-.19.62-.04,1.24-.19,1.87-.22,1.48-.06,2.21.66,2.24,2.14.01.73-.52,1.46-1.29,1.59-2.12.35-4.25.65-6.38.96-.34.05-.69.05-1.02.01-.96-.1-2.18-.01-2.6-.96-.43-.97-.99-2.08-.57-3.26.55-1.56,1.05-3.14,1.71-4.65,1.39-3.18,2.88-6.32,4.32-9.49.23-.51.42-1.04.71-1.74Z"/>
    <path class="cls-3" d="M226.19,206.66c.4.08.74.11,1.06.21,2.42.76,4.9,1.03,7.43.93.81-.03,1.62,0,2.04.87-.75,2.93-1.09,3.12-4.03,2.61-1.22-.22-2.46-.28-3.59-.4-.18,2.3-.34,4.39-.5,6.56.97.62,2.59-.2,3.22,1.24-.66,1.63-1.59,2.79-3.74,2.23-.21,1.83-.39,3.5-.58,5.21,1.22.6,2.45.76,3.7.85,1.27.08,1.29.14,1.39,1.41.17,2.22.16,2.3-2.11,2.21-1.92-.08-3.83-.39-5.75-.59-.33-.03-.66-.07-.99-.05-1.02.07-1.39-.14-1.47-1.1-.06-.67.05-1.36.15-2.03.77-5.18,1.65-10.36,2.29-15.56.19-1.62.35-3.13,1.47-4.57Z"/>
    <path class="cls-3" d="M317.16,192.43c-1.24.09-2.36.17-3.66.27-.12,1.29-.24,2.53-.34,3.77-.13,1.73-.42,1.98-2.1,1.81-2.8-.29-2.93-.59-2.27-3.3,1.19-4.93,2.26-9.88,3.37-14.83.06-.28.11-.56.16-.84.45-2.45,1.25-3.18,3.65-3.36.89-.07,1.21.47,1.33,1.22.26,1.63.5,3.27.81,4.89.82,4.37,1.46,8.77,2.96,12.98.17.48.25,1,.38,1.49.18.69.66,1.47-.53,1.75-1.42.33-1.64.57-2.24-.94-.6-1.53-.99-3.15-1.53-4.91ZM316.31,188.54c-.33-1.45-.58-2.56-.84-3.68-.09,0-.18.01-.26.01-.23,1.1-.45,2.2-.71,3.46.58.07,1.04.12,1.81.2Z"/>
    <path class="cls-3" d="M322.03,190.08c.06-3.77,1.08-7.31,2.56-10.73.97-2.25,2.59-3.57,5.2-3.3.51.05,1.03-.05,1.54-.03,1.2.05,2.03.68,2.49,1.78.66,1.59.21,2.54-1.47,2.89-1.11.24-2.25.37-3.38.51-.71.09-1.33.25-1.67.98-1.11,2.39-2.08,4.82-1.83,7.54.16,1.73.72,2.55,2.4,2.85,1.43.25,2.9.49,4.31-.34.83-.49,1.44-.17,1.61.79.2,1.17.31,2.37.45,3.55.1.85-.44,1.26-1.14,1.48-4.71,1.53-11.36-.57-11.06-7.45.01-.17,0-.34,0-.51Z"/>
    <path class="cls-3" d="M250.89,199.44c-.56-.41-.94-.76-1.37-.99-.65-.35-.83-.88-.82-1.56.01-1.03,0-2.05,0-3.08.03-5.59.06-11.18.09-16.76,0-1.13.3-1.52,1.49-1.98.82-.31,1.4.14,1.75.69.51.8.92,1.69,1.18,2.6.21.75.14,1.58.17,2.38.14,4.68.26,9.35.39,14.03.02.57.04,1.14.01,1.71-.06,1.28-.14,1.34-1.4,1.75-.29.1-.56.3-.81.5-.21.17-.38.39-.68.71Z"/>
    <path class="cls-3" d="M180.41,192.15c-.6-.19-1.13-.37-1.75-.57-.35.71-.64,1.35-.39,2.13.19.62-.07,1.01-.69,1.11-.67.11-1.17-.18-1.2-.88-.04-.79-.05-1.61.1-2.38.59-3.02,1.25-6.03,1.88-9.04.04-.17.06-.34.12-.5.39-1.21.84-1.35,1.8-.55.49.4.88.79.98,1.51.47,3.39,1.02,6.76,1.51,10.14.1.67.14,1.36.12,2.04-.02.62-.37,1.13-1.03,1.16-.71.03-.95-.5-1.03-1.12-.12-.96-.27-1.92-.42-3.06ZM179.7,187.35c-.64.52-.62,1.2-.77,1.94.37.06.65.1,1.04.15-.11-.8-.19-1.45-.28-2.09Z"/>
    <path class="cls-3" d="M188.45,195.82c-.39-.05-1.02-.11-1.64-.21-1.74-.3-2.61-1.18-2.86-2.92-.34-2.4-.17-4.8.39-7.14.65-2.69,3.51-3.88,5.91-2.52.38.22.79.77.78,1.16-.01.37-.53.76-.89,1.05-.2.17-.54.17-.81.23-1.65.33-2.43,1.12-2.47,2.73-.03,1.25.11,2.51.22,3.75.07.77.56,1.23,1.28,1.43.49.14,1,.22,1.5.33.55.12.96.41.96,1.03,0,.71-.5.98-1.12,1.06-.34.04-.68,0-1.25,0Z"/>
    <path class="cls-6" d="M334.71,161.95c.76-.12,1.53-.34,2.29-.35,5.64-.1,11.29-.32,16.93-.18,2.76.07,5.53.71,8.25,1.29,1.68.36,3.47.4,5,1.53.6.44,1.76.14,2.67.16,1.29.03,2.58.06,3.86.08.05.15.1.3.16.44-.38.32-.73.88-1.15.94-1.86.25-3.73.4-5.6.48-.41.02-1.02-.29-1.22-.64-.36-.6-.82-.67-1.41-.74-1.8-.22-3.59-.51-5.39-.74-1.75-.23-3.5-.56-5.25-.61-5.64-.17-11.28-.22-16.92-.34-.56-.01-1.14-.09-1.67-.25-.26-.08-.43-.42-.64-.65.04-.15.07-.3.11-.44Z"/>
    <path class="cls-6" d="M370.72,176.8c.26-.16.5-.43.77-.46,1.81-.16,3.63-.23,5.44-.41,1.31-.13,2.29.55,3.29,1.16.23.13.28.55.41.83-.28.12-.6.41-.82.34-2.44-.66-4.93-.66-7.42-.73-.54-.02-1.07-.17-1.6-.26-.02-.16-.04-.32-.06-.48Z"/>
    <path class="cls-6" d="M140.39,197.15c-1.41,1.36-7.38,1.5-9.95.19.89-.15,1.5-.32,2.13-.35,2.26-.12,4.53-.22,6.8-.27.32,0,.65.26,1.03.43Z"/>
    <path class="cls-6" d="M137.43,168.18c.19-.1.37-.24.57-.27,2.23-.35,4.47-.7,6.71-1,.9-.12,1.81-.15,2.71-.14.26,0,.51.3.82.49-.78.46-6.49,1.49-8.68,1.56-.7.02-1.39-.11-2.09-.18-.01-.15-.02-.31-.03-.46Z"/>
    <path class="cls-6" d="M369.69,198.85c3.45-.77,6.75-1.62,10.49-.51-.48.39-.7.59-.94.76-.08.05-.22.03-.34.02-2.68-.34-5.31-.07-7.9.7-.69.21-1.08-.06-1.32-.96Z"/>
    <path class="cls-6" d="M318.69,161.96c.71-.31,1.06-.57,1.45-.63,1.8-.27,7.84.26,8.66.72-1.35.73-8.19.82-10.11-.08Z"/>
    <path class="cls-6" d="M160.76,207.52c2.71-.18,5.14-.43,7.86-.39-.27.46-.37.84-.52.86-2.26.3-4.52.65-6.79.13-.12-.02-.21-.22-.54-.6Z"/>
    <path class="cls-6" d="M380.4,187.55c-.55.41-.77.7-.96.69-1.87-.11-3.73-.26-5.59-.44-.21-.02-.4-.3-.91-.7,2.63-.61,4.82-.13,7.47.46Z"/>
    <path class="cls-6" d="M143.64,201.59c-.85.14-1.69.32-2.55.39-.23.01-.5-.34-.75-.52.19-.24.36-.67.57-.68.93-.08,1.95-.54,2.74.32,0,.17,0,.34,0,.5Z"/>
    <path class="cls-6" d="M310.09,161.67c1.32-.25,2.52-.21,3.74.48-1.83.92-2.95.79-3.74-.48Z"/>
    <path class="cls-6" d="M151.64,166.68q1.72-.81,2.41.34c-.8-.11-1.41-.2-2.41-.34Z"/>
    <path class="cls-6" d="M296.68,128.4c1.19-.72,2.31-1.46,3.5-2.1.34-.18.82-.09,1.24-.12-.07.44-.13.88-.23,1.48.29.15.76.39,1.23.63-.69,1.44-.7,1.46-2.12,1.25-1.16-.17-2.46.16-3.61-1.14Z"/>
    <path class="cls-6" d="M270.46,156.16c-.55-.67.29-1.52-.7-1.78-.07-.02-.11-.44-.04-.63.77-2.12,1.46-4.29,3.12-6.02-.36.85-.78,1.68-1.06,2.55-.13.39-.98,1.02.17,1.32.05.01.07.33.02.47-.47,1.32-.96,2.64-1.5,4.09Z"/>
    <path class="cls-6" d="M241.55,132.74c-2.88,3.08-5.77,6.16-8.79,9.39.67-1.87,6.84-8.56,8.79-9.39Z"/>
    <path class="cls-6" d="M265.58,124.78c1.37-3.38,4.08-4.91,7.29-5.73.07.11.13.22.2.33-.57.25-1.16.47-1.71.77-1.45.78-3.11,1.22-3.95,2.93-.35.7-1.2,1.15-1.83,1.7Z"/>
    <path class="cls-6" d="M227.23,135.61c1.49-2.34,2.76-4.85,5.31-6.4-1.67,2.21-3.33,4.43-4.99,6.63-.11-.08-.21-.16-.32-.24Z"/>
    <path class="cls-6" d="M270.36,141.95c-.24.47-.5.94-.71,1.43-.54,1.25-1.56,2.28-1.16,3.91.16.67-.46,1.53-.86,2.25-.67-3.07.68-5.46,2.36-7.73.12.05.24.09.36.14Z"/>
    <path class="cls-6" d="M270.65,148.97c.61-2.45,1.66-4.71,3.19-6.85.03.93-2.09,5.64-3.19,6.85Z"/>
    <path class="cls-6" d="M226.71,144.64c1.59-2.25,3.21-4.47,5.61-6.04-1.75,2.1-3.5,4.21-5.25,6.31-.12-.09-.24-.18-.36-.27Z"/>
    <path class="cls-6" d="M292.37,119.94c-.25.6-.5,1.19-.78,1.84-.42-.08-.72-.08-.95-.2-.32-.17-.85-.44-.83-.64.03-.39.29-.93.6-1.09.51-.25,1.14-.23,1.72-.32.08.14.16.27.24.41Z"/>
    <path class="cls-6" d="M268.03,151.66c.51-2,1.01-4.02,2.76-5.44-.79,1.87-1.58,3.75-2.38,5.62-.13-.06-.25-.12-.38-.18Z"/>
    <path class="cls-6" d="M240.79,121.3c-.2.18-.35.34-.52.47-1.48,1.11-2.96,2.22-4.46,3.35.47-1.5,2.92-3.37,4.98-3.82Z"/>
    <path class="cls-6" d="M267.46,119.53c-1.39.9-2.78,1.8-4.1,2.65.14-1.26,1.4-2.18,4.1-2.65Z"/>
    <path class="cls-6" d="M274.15,158.98c-.24-1.97.05-3.86,1.09-5.65-.24,1.89-.47,3.77-.71,5.66-.13,0-.26,0-.39-.01Z"/>
    <path class="cls-6" d="M237.84,126.69c-.04-.36-.26-.89-.1-1.04,1.03-1.02,2.06-2.06,3.51-2.56-1.15,1.19-2.3,2.38-3.45,3.56l.04.04Z"/>
    <path class="cls-6" d="M272.1,161.55c.13-1.62.23-3.26,1.16-4.95.07.39.14.56.11.72-.26,1.43-.54,2.86-.82,4.29-.15-.02-.31-.04-.46-.06Z"/>
    <path class="cls-6" d="M269.65,130.26c-1.08,1.58-1.99,2.91-2.89,4.24-.19-1.32,1-3.19,2.89-4.24Z"/>
    <path class="cls-6" d="M267.1,144.88c.29-2.02,1.19-3.4,2.24-4.94-.03,1.19-1.13,3.63-2.24,4.94Z"/>
    <path class="cls-6" d="M274.73,122.22c-.68.66-1.93,1.87-3.17,3.07.12.12.24.24.36.36.06-1.39,1.6-2.99,2.81-3.44Z"/>
    <path class="cls-6" d="M219.87,150.8c.66-1.62,1.32-3.25,2.45-4.62.11.05.22.11.32.16-.8,1.56-1.59,3.11-2.38,4.67-.13-.07-.26-.14-.39-.21Z"/>
    <path class="cls-6" d="M226.49,150.53c.41-1.29.86-2.54,2.22-3.3-.64,1.16-1.28,2.31-1.92,3.47-.1-.06-.2-.11-.3-.17Z"/>
    <path class="cls-6" d="M228.66,136.31c-.8,1.21-1.6,2.41-2.41,3.62.16-1.62,1.05-2.76,2.08-3.82.11.07.22.13.33.2Z"/>
    <path class="cls-6" d="M249.82,122.96c-1.23.87-2.3,1.62-3.55,2.51.58-1.47,1.87-2.37,3.55-2.51Z"/>
    <path class="cls-6" d="M260.72,131.83c.23-1.69.98-3.06,2.63-3.75-.88,1.25-1.76,2.5-2.63,3.75Z"/>
    <path class="cls-6" d="M229.68,127.84c.76-1.31,1.59-2.56,3.18-3.1-.96,1.1-1.92,2.2-2.88,3.3-.1-.07-.2-.13-.3-.2Z"/>
    <path class="cls-6" d="M272.31,154.34c-.49,1.46-.92,2.74-1.43,4.24-.35-1.67.12-3.04,1.43-4.24Z"/>
    <path class="cls-6" d="M237.8,126.65c-.86.97-1.73,1.95-2.6,2.91-.05.05-.2-.01-.54-.04,1.01-1.14,1.54-2.56,3.17-2.83,0,0-.04-.04-.04-.04Z"/>
    <path class="cls-6" d="M254,137.12c-.75.82-1.46,1.6-2.24,2.46.21-1.51.73-2.06,2.24-2.46Z"/>
    <path class="cls-6" d="M222.63,157.26c.22-1.28.68-2.45,1.72-3.4-.04.21-.04.43-.12.62-.4.98-.83,1.94-1.24,2.92-.12-.05-.24-.09-.36-.14Z"/>
    <path class="cls-6" d="M275.51,148.39c-.34,1.13-.68,2.27-1.02,3.41-.56-1.38.15-2.42.66-3.51.12.03.24.07.36.1Z"/>
    <path class="cls-6" d="M228.48,149.41c.6-.95,1.2-1.9,1.79-2.84.13.08.25.16.38.23-.56.96-1.13,1.93-1.7,2.89-.16-.09-.31-.19-.47-.28Z"/>
    <path class="cls-6" d="M251.09,128.58c.31-1.44,1.25-2.25,2.97-2.73-1.17,1.08-2.07,1.91-2.97,2.73Z"/>
    <path class="cls-6" d="M238.72,140.99c-.86.88-1.72,1.77-2.58,2.65.48-1.27,1.34-2.19,2.58-2.65Z"/>
    <path class="cls-6" d="M268.04,153.71c.17,1.16-.1,2.22-.57,3.25-.41-1.21.05-2.24.57-3.25Z"/>
    <path class="cls-6" d="M260.67,123.63c-.67.63-1.34,1.27-2,1.9.09-1.21.89-1.71,2-1.9Z"/>
    <path class="cls-6" d="M225.57,142.57c.29-1.16.98-2.05,2.23-3.04-.59,1.44-1.35,2.28-2.23,3.04Z"/>
    <path class="cls-6" d="M233.12,135.49c.89-.87,1.77-1.74,2.66-2.61.1.1.2.2.31.3-.86.9-1.72,1.81-2.59,2.71-.13-.13-.25-.27-.38-.4Z"/>
    <path class="cls-6" d="M269.13,135.1c0-1.27.67-2.1,1.93-2.43-.64.81-1.29,1.62-1.93,2.43Z"/>
    <path class="cls-6" d="M244.33,133.67c.12-1.51.59-2.09,2.14-2.57-.74.89-1.42,1.7-2.14,2.57Z"/>
    <path class="cls-6" d="M218.79,158.52c.19-.89.39-1.77.64-2.95q.42,1.16-.28,2.98c-.12,0-.24-.02-.36-.03Z"/>
    <path class="cls-6" d="M221.93,152.29c-.04-1.19.33-2.17,1.44-2.78-.48.93-.96,1.85-1.44,2.78Z"/>
    <path class="cls-6" d="M223.83,139.67c-.38.82-.77,1.65-1.15,2.47-.31-1.15.2-1.93.84-2.66.1.06.21.12.31.18Z"/>
    <path class="cls-6" d="M255.05,134.26c-.08-.99.48-1.68,1.31-2.27-.32.79-.64,1.58-.96,2.37-.12-.04-.23-.07-.35-.1Z"/>
    <path class="cls-6" d="M276.71,123.6c.15-1.58.87-2.29,2.06-2.66-.61.79-1.22,1.58-2.06,2.66Z"/>
    <path class="cls-6" d="M221.39,163.32c-.12-.92.33-1.64,1.08-2.29-.23.79-.45,1.58-.68,2.38-.13-.03-.27-.06-.4-.09Z"/>
    <path class="cls-6" d="M250.15,136.16c-.49.76-.98,1.52-1.66,2.57-.05-1.52.57-2.2,1.66-2.57Z"/>
    <path class="cls-6" d="M253.88,129.43c-.99.8-1.67,1.35-2.39,1.94.24-1.25.42-1.39,2.39-1.94Z"/>
    <path class="cls-6" d="M263.7,126.32c-.74.81-1.42,1.55-2.16,2.37.2-1.56.61-2.01,2.16-2.37Z"/>
    <path class="cls-6" d="M246.08,121.82c-.29.83-.33,1.76-1.29,2.64.2-1.27.43-2.11,1.29-2.64Z"/>
    <path class="cls-6" d="M284.59,128.48c.05-1.13.55-1.84,1.65-2-.55.66-1.1,1.33-1.65,2Z"/>
    <path class="cls-6" d="M290.12,125.2c-.43.59-.86,1.19-1.3,1.78-.23-1.05.39-1.53.98-2.03.11.08.21.17.31.25Z"/>
    <path class="cls-6" d="M287.62,134.08c.13-1.2.85-1.73,1.96-1.79-.65.6-1.31,1.19-1.96,1.79Z"/>
    <path class="cls-6" d="M272.91,134.05c-.31.62-.61,1.24-1.06,2.14-.32-1.26.24-1.79.75-2.34.11.07.21.13.31.2Z"/>
    <path class="cls-6" d="M291.17,134.92c-.18-.08-.54-.22-.53-.24.22-.74.68-1.25,1.61-1.42-.27.47-.5.87-.73,1.26-.12.14-.23.27-.35.41Z"/>
    <path class="cls-6" d="M273.1,137.91c.4-.55.79-1.09,1.18-1.64.11.07.22.14.33.21-.35.56-.71,1.12-1.07,1.68-.15-.08-.3-.17-.44-.25Z"/>
    <path class="cls-6" d="M230.21,136.09c.54-.6,1.09-1.19,1.63-1.79.1.09.2.17.3.26-.52.63-1.04,1.25-1.56,1.88-.12-.12-.25-.23-.37-.35Z"/>
    <path class="cls-6" d="M279.79,125.58c-.54.45-1.07.89-1.6,1.34-.08-.09-.16-.19-.23-.28.39-.62.95-1.04,1.62-1.34.07.09.14.19.21.28Z"/>
    <path class="cls-6" d="M281.93,123.87c.18-.88.69-1.22,1.47-1.39-.48.46-.92.87-1.47,1.39Z"/>
    <path class="cls-6" d="M220.98,157.36c-.15.78-.3,1.56-.5,2.6q-.4-1.47.5-2.6Z"/>
    <path class="cls-6" d="M290.26,127.93c-.37.53-.73,1.06-1.09,1.59-.25-.95.31-1.35,1.09-1.59Z"/>
    <path class="cls-6" d="M239.81,129.84c-.09-1.29.55-1.63,1.37-1.85-.39.52-.78,1.04-1.37,1.85Z"/>
    <path class="cls-6" d="M243.08,136.54c-.03-.91.51-1.17,1.29-1.14-.43.38-.86.76-1.29,1.14Z"/>
    <path class="cls-6" d="M292.96,129.54c-.34.36-.67.72-1.05,1.13q.05-.9,1.05-1.13Z"/>
    <path class="cls-6" d="M292.62,126.59c.49-.32.98-.64,1.73-1.13q-.76,1.11-1.73,1.13Z"/>
    <path class="cls-6" d="M250.42,125.77c-.01-1,.65-1.04,1.37-1-.46.33-.91.67-1.37,1Z"/>
    <path class="cls-6" d="M291.17,134.92c.12-.13.23-.27.35-.41.11-.04.21-.08.32-.12.1-.04.2-.08.71-.28-.5.68-.78,1.05-1.22,1.64-.08-.45-.12-.65-.16-.84Z"/>
    <path class="cls-6" d="M225.13,158.33c-.15.48-.3.96-.52,1.66q-.24-1.01.52-1.66Z"/>
    <path class="cls-6" d="M261.05,134.75c-.25.48-.48.92-.78,1.47q-.12-1.1.78-1.47Z"/>
    <path class="cls-6" d="M257.46,125.4c-.23.42-.46.84-.7,1.25-.11-.06-.22-.11-.33-.17.22-.43.43-.86.64-1.3.13.07.26.15.39.22Z"/>
    <path class="cls-6" d="M262.41,136.92c.18-.29.35-.58.53-.87.08.05.17.09.25.13-.16.33-.31.65-.47.98-.1-.08-.2-.16-.31-.24Z"/>
    <path class="cls-4" d="M265.77,219.78c-.18.56-.4,1.63-.87,2.57-.75,1.48-2.48,2.33-3.81,2.05-1.66-.35-3.04-1.68-3.27-3.33-.3-2.11-.15-4.22.41-6.28.37-1.36.88-2.7,1.49-3.98.5-1.05.96-1.18,1.9-.55.78.53,1.59,1.2,2.04,2,1.22,2.15,1.93,4.49,2.11,7.51Z"/>
    <path class="cls-4" d="M211.86,216.67c.26-2.24.48-4.11.72-5.97.1-.77.49-1.29,1.34-1.25.85.04,1.72,0,2.52.21,1.76.46,2.33,1.72,1.53,3.39-.73,1.53-2,2.66-3.47,3.44-.61.32-1.51.12-2.64.17Z"/>
    <path class="cls-4" d="M283.34,196.23c0-2.54,0-4.87,0-7.19,0-.39.08-.77.12-1.09.15-.07.19-.11.25-.12,3.52-.21,3.86.05,4.47,3.48.04.23.09.45.12.67.34,3.08-.3,3.86-3.36,4.15-.45.04-.9.05-1.59.1Z"/>
    <path class="cls-4" d="M283.31,185.36c.32-2.93-.7-5.65-.36-8.43,2.43,0,4.32,1.12,4.98,2.99.18.5.24,1.15.09,1.64-.57,1.8-2.51,3.36-4.71,3.81Z"/>
    <path class="cls-4" d="M276.42,216.78c-.39-2.47-1.09-4.69-.89-7.01,2.14-.76,4.06-.25,5.11,1.29.49.72.67,1.45.15,2.22-1.04,1.54-2.24,2.87-4.37,3.49Z"/>
    <path class="cls-2" d="M316.31,188.54c-.77-.08-1.23-.13-1.81-.2.26-1.26.49-2.36.71-3.46.09,0,.17-.01.26-.01.25,1.11.51,2.23.84,3.68Z"/>
    <path class="cls-2" d="M179.7,187.35c.08.65.17,1.29.28,2.09-.39-.06-.68-.1-1.04-.15.15-.74.12-1.42.77-1.94Z"/>
  </g>
</svg>