<?xml version="1.0" encoding="UTF-8"?>
<svg id="Layer_1" xmlns="http://www.w3.org/2000/svg" viewBox="0 0 400 400">
  <defs>
    <style>
      .cls-1 {
        fill: #d2704d;
      }

      .cls-2 {
        fill: #f1c743;
      }

      .cls-3 {
        fill: #4e9282;
      }

      .cls-4, .cls-5 {
        fill-rule: evenodd;
      }

      .cls-6 {
        font-family: AmericanTypewriter-CondensedBold, 'American Typewriter';
        font-size: 44px;
        font-weight: 700;
      }

      .cls-6, .cls-7 {
        fill: #fff;
      }

      .cls-5 {
        fill: #ca3794;
      }

      .cls-8 {
        fill: #24585b;
      }
    </style>
  </defs>
  <g>
    <g>
      <polygon class="cls-5" points="60.75 154.43 8.39 231.07 11 234.37 110.89 230.9 75.01 165 64.33 152.53 60.75 154.43"/>
      <path class="cls-4" d="M92.82,191.78c3.51.51,2.58,5.9,6.25,6.23.1,3.85,2.07,5.65,4.51,6.9-.28,4.06,2.02,5.29,4.46,6.32.28,1-.4,1.13-1.12,1.25.83.81,2.79,1.35,1.33,2.9.46-.34.95-.66,1.75-.68.28,1.19-.03,1.86-1.1,1.84,1.18,1.5,4.6,4.74,2.67,5.81.6,1.01,1.93,1.21,3.61,1.01.33,4.86,3,7.12,2.99,12.34-.57-.33-2.24-1.28-1.74.68-1.07-1.12-4.14-.02-4.28-2.17-1.31,2.35-4.07-1.55-7.05,1.54-1.8.3-1.33-1.87-1.94-2.88-1.7.59.85,1.45.15,2.96-.46-.38-2-2.41-1.77.09-8.28-.58-20.59-.62-27.92.19-.03-.59-.07-1.18-.09-1.77-2.68,1.57-5.81,1.88-8.31.4-1.61,2.32-12.63,2.38-16.01.8-6.52,3.76-21.02.22-24.17,4.16-5.11-2.87-13.92.38-20.31-1.96-.61-1.87.39-2.28,1.04-3.03-2.39-.09-1-.46-1.38-4.09,2.76-.89,3.9-3.25,3.84-6.72,2.74.42,1.19-3.06,4.02-2.59-.51-1.8-.47-1.11-.15-2.96,4.03.46,1.59-4.98,5.09-5-.41-.58-1.39-.55-1.27-1.73,2.38.66,1.11-2,3.5-1.36-.05-.99-.1-1.98-.15-2.96.51-.48,1.31-.7,2.34-.7,3.48-8.95,9.99-15.13,13.69-23.86,2.05-.03,2.69-1.33,2.19-3.67,1.74.07,1.75-1.44,3.51-1.37,1.44-7.95,9.01-10.35,10.39-18.35,6.51-1.46,4.95-10.24,11.3-11.85-.41-.58-1.39-.55-1.28-1.72,1.96-.12,2.9-1.16,5.32-.86,2.66,1.88-.7,3.07,3.1,2.82-2.45,2.68.76,10.53,3.43,9.33.89.15.16,4.49,3.17,4.01-.32,1.83.73,2.13.78,3.52,7.64,6.37,9.1,19.57,16.74,25.92.26,1-.41,1.15-1.13,1.25ZM58.16,164.37c-1.87.83-.53-1.9-2.43-1.07-.9.3-.4,1.9-2.29,1.31-.73,3.12-1.47,6.22-4.4,7.36-.71,3.27,1.67,3.15,2.61,4.62-4.12,3.02-4.14,12.69-11.43,9.47.67,1.77,2.84,1.86,3.17,4.01-1.56.81-2.72,1.12-3.5,1.36,2.53,2.06-.66,1.55-1.64,3.06-2.53,3.93-3.9,10.12-8.35,11.11-.16,2.87-1.21,4.96-3.9,5.53,1.5,3.08-.87.43-1.71,1.87,3.82.72-2.44,2.61.22,4.16-4.22.89-3.19,6.54-6.12,8.62-.38-1.02.55-3.52-.76-3.53,0,.93.19,2.05-1.1,1.84-.63,1.95,1.94.36,1.31,2.31-2.46.6-2.01,3.85-3.29,5.52,6.18-1.37,16.23-1.47,23.13-1.15.1-.46-.04-1.17.53-1.21,23.01,2.1,41.35-1.48,69.44-2.24-1.29-6.24-6.79-9.22-8.95-12.64-.72-5.27-5.7-5.8-5.92-11.59-2.66.4-2.28-2.11-1.96-3.46-2.36.06-4.5-3.78-2.6-4.63-1.85,1.01-1.99-.34-3.62-1.01-4.28-12.94-14.51-22.09-19.43-32.32.02.6-1.01.79-1.19.05.72-.09,1.39-.24,1.13-1.25-1.65.58-1.58-.76-3-.44-2.87,4-4.15,9.45-8.94,11.73,1.25,2.04-.44,2.89-1.57,4.25-.71-2.35-.14-4.62.87-6.59.98-.03.4,1.63,1.27,1.73.13-2.55,2.17-7.4,3.91-4.95-.06-.82.21-1.31.49-1.8Z"/>
    </g>
    <text class="cls-6" transform="translate(41.3 220.84)"><tspan x="0" y="0">50</tspan></text>
  </g>
  <g>
    <polygon class="cls-7" points="376.07 206.64 375.06 212.6 374.9 218.57 374.8 224.59 373.07 230.37 371.71 236.18 370.35 242 369.01 247.87 366.89 253.49 363.95 258.74 361.73 264.34 358.82 269.59 354.74 274.09 352.01 279.48 347.86 283.84 344.46 288.81 339.54 292.38 335.61 296.92 330.94 300.65 326.33 304.45 321.43 307.87 316.17 310.72 311.07 313.79 305.67 316.33 300.2 318.68 294.96 321.68 289.12 323.1 283.42 324.9 277.68 326.71 271.69 327.29 265.69 327.39 259.79 328.55 253.8 327.98 247.81 328.54 241.84 327.99 235.95 326.94 229.95 326.49 224.14 325.03 218.58 322.72 212.86 321.03 206.99 319.63 201.85 316.47 196.5 313.83 191.04 311.33 186.15 307.88 180.97 304.84 176.11 301.3 171.73 297.18 168.02 292.42 163.29 288.66 159.88 283.71 155.69 279.39 152.81 274.11 149.72 269.02 146.48 264 143.84 258.64 141.67 253.08 139.4 247.57 137.28 241.99 135.91 236.17 134.09 230.45 133.09 224.55 132.9 218.55 132.54 212.6 131.53 206.64 131.52 200.63 132.17 194.66 132.7 188.68 134.61 182.93 135.71 177.06 137.47 171.35 139.14 165.61 141.14 159.97 143.78 154.6 146.74 149.42 149.19 143.94 152.09 138.68 156.35 134.37 159.86 129.55 163.82 125.09 167.31 120.15 171.68 116.04 176.81 112.83 181.36 108.96 185.81 104.88 191.02 101.9 196.57 99.56 201.59 96.26 206.95 93.54 212.68 91.72 218.41 89.99 224.09 88.07 230.11 87.59 235.95 86.38 241.81 85.02 247.84 85.54 253.8 84.5 259.76 85.19 265.76 85.2 271.64 86.35 277.55 87.21 283.34 88.69 289.13 90.15 294.86 91.88 300.39 94.17 305.87 96.54 311.21 99.22 316.56 101.92 321.61 105.16 326.49 108.62 330.96 112.62 335.71 116.27 340.21 120.23 344.26 124.65 347.89 129.42 352 133.81 355.06 138.98 358.49 143.89 361.75 148.94 364.13 154.46 365.97 160.18 368.77 165.5 370.91 171.12 372.59 176.88 373.82 182.76 374.91 188.67 375.28 194.67 375.91 200.64 376.07 206.64"/>
    <path d="M344.07,208.29c-.12,6.22-.43,12.06-1.45,17.82-.87,4.9-1.75,9.81-3.7,14.44-3.77,8.97-8.07,17.66-13.92,25.48-3.04,4.06-6.48,7.79-10.37,11.08-2.23,1.88-4.38,3.86-6.74,5.56-8.01,5.78-17.07,9.47-26.2,13.04-6.47,2.53-13.25,3.49-19.99,4.76-3.72.7-7.48,1.03-11.27.94-2.16-.05-4.26-.26-6.18-1.46-.61-.38-1.45-.44-2.19-.55-6.86-1.06-13.82-1.69-20.4-4.11-5.47-2.02-10.95-4-15.9-7.24-10.62-6.93-19.8-15.32-26.96-25.85-2.22-3.27-4.5-6.48-6.33-10-2.51-4.83-4.52-9.82-5.79-15.11-1.14-4.76-2.45-9.49-3.3-14.29-1.25-7.04-1.48-14.19-1.1-21.31.31-5.96,2.12-11.65,4.11-17.24,1.69-4.77,3.65-9.45,5.39-14.2,1.04-2.86,2.69-5.37,4.28-7.91,2.05-3.28,4.24-6.46,6.92-9.28,3.38-3.54,6.69-7.14,10.11-10.63,4.65-4.75,9.91-8.66,15.81-11.82,10.03-5.37,20.67-8.74,31.86-10.53.59-.09,1.23-.11,1.76-.35,2.88-1.34,5.99-1.37,9.06-1.62,6.93-.56,13.68.77,20.41,2.18,2.26.47,4.5,1.1,6.7,1.8,8.72,2.78,16.94,6.63,24.57,11.7,3,2,6.07,3.89,9,6,1.87,1.35,3.58,2.93,5.27,4.51,4.66,4.38,8.39,9.52,12.11,14.69.3.42.61.83.87,1.28,1.96,3.43,3.97,6.83,5.83,10.31.88,1.66,1.62,3.43,2.16,5.22,1.35,4.52,2.78,9.04,3.74,13.65,1.34,6.39,1.86,12.91,1.86,19.07ZM232.49,247.21c.55-3.76.96-7.13.28-10.57-.81-4.06.54-6.66,4.21-8.72,3.66-2.06,7.25-4.23,10.66-6.72,2.77-2.02,4.7-4.45,5.21-7.92.22-1.53.88-2.07,2.39-2.21.93-.09,1.93-.14,2.81.11,1.69.47,3.31,1.17,5.35,1.92-2.45,2.93-5.38,4.18-9.07,3.98,2.2,2.35,4.21,4.53,6.27,6.68,1.02,1.06,2.27,1.79,3.69,2.27,2.59.89,5.16,1.87,7.74,2.8.92.33,1.82.77,2.02,1.8.37,1.94.74,3.93-.4,5.75-.4.64-.42,1.24-.34,1.95.3,2.9.55,5.81.83,8.71.03.32.19.63.31,1.01,1.81.33,3.59.64,5.35.99,1.83.36,3.64.77,5.64,1.2,1.28-2.49,2.56-4.91,3.74-7.37.4-.83.48-1.81.78-2.69.56-1.61,1.11-3.24,1.81-4.8.6-1.35,1.75-2.07,3.24-2.21,1.45-.13,2.92-.2,4.35-.44,3.8-.64,7.61-1.25,11.37-2.07,2.12-.46,3.74-1.7,3.99-4.13.03-.34.19-.66.27-.99.24-.94.87-1.45,1.81-1.59,1.52-.23,2.92-.14,3.88,1.31.74,1.12,1.83,1.77,3.07,2.23.37.14.7.4,1.04.59-1.5,3.36-2.4,3.64-7.87,2.45-.03.59-.19,1.17-.07,1.69,1.03,4.32,3.34,7.83,6.76,10.64.93.76,1.85,1.54,2.69,2.39.8.82,1.43,1.86,1.21,3.01-.43,2.3-.22,4.86-2.34,6.58-.25.2-.42.56-.51.88-.74,2.76-1.63,5.48-1.99,8.75.47-.59.68-.84.87-1.11,4.29-5.85,7.61-12.25,10.56-18.84,1.47-3.28,2.86-6.64,3.85-10.09,2.35-8.22,3-16.7,3.21-25.21.01-.53-.23-1.23-.61-1.58-1.31-1.22-2.71-2.36-4.12-3.47-1.72-1.35-1.72-1.81.05-3.22.11-.09.11-.31.24-.69-.43-.47-.93-1.02-1.44-1.57-.41-.43-.92-.8-1.25-1.29-.95-1.44-.37-2.83,1.32-3.32.38-.11.76-.22,1.12-.33-.69-4.36-1.52-6.78-2.81-8.01-.14.66-.31,1.21-.38,1.78-.13,1.02-.28,2.05-.29,3.07-.03,2.06-.5,3.89-2.46,5.05,2.14,1.26,2.16,1.34.82,3.29-.14.2-.23.44-.33.63.31.91,1.22,1.56.9,2.75-1.45,1.03-3,.77-4.54.1-.37-.16-.77-.52-.9-.88-.58-1.56-.77-3.28-2.05-4.55-.21-.21-.11-.84-.02-1.25.13-.65-.02-1.05-.52-1.55-.87-.87-.66-1.72.41-2.2.74-.33,1.54-.51,2.31-.76-.47-2.45-3.55-2.97-3.65-5.62,1.17-.23,2.21-.44,3.38-.68-.51-1.52-2-1.9-2.59-3-.58-1.09-.94-2.29-1.58-3.91-.3.94-.65,1.47-.6,1.96.17,1.87-.59,3.14-2.24,3.94-.23.11-.46.23-.68.35.62.36,1.03.35,1.43.37,1.66.09,2.19.86,1.48,2.32-.76,1.57-1.83,2.9-3.4,3.75-.49.27-.96.57-1.97,1.17,1.18.06,1.74.1,2.3.11.72.01,1.4.11,1.73.85.37.84-.07,1.48-.61,2.08-.39.43-1.12.96-1.06,1.34.22,1.4-.95,1.93-1.59,2.86.35.41.74.75.97,1.18.19.35.35.87.22,1.21-.55,1.48-1.51,2.67-2.86,3.53-1.13.72-2.14.22-3.16-.27-.14-.07-.33-.03-.5-.05-.87.54-1.69,1.19-2.61,1.61-1.85.84-3.41.33-4.45-1.31-.89-1.4-.65-2.1.99-2.92.22-.11.4-.29.58-.42.28-1.26.06-2.19-1.15-2.84-.8-.42-1.14-1.26-1.16-2.18-.02-.96.74-1.26,1.41-1.66.12-.07.16-.27.29-.51-.89-1.36-1.52-2.95-2.89-4.31-.57,1.16-.97,2.18-1.53,3.09-.55.88-1.77,1.19-2.3,2.23.34.12.49.2.66.23.91.17,2.06.07,2.33,1.22.27,1.14-.82,1.57-1.53,2.16-.9.75-2,1.29-2.68,2.54.5.07.82.1,1.13.17,1.41.32,1.77.97,1.05,2.15-.56.93-1.31,1.75-1.98,2.62.11.1.17.17.23.19,1.96.83,2.09,1.3.81,2.91-.35.44-.68.91-1.07,1.44.68.39,1.2.67,1.7.99.63.4,1.02,1.02.91,1.73-.29,1.85-.58,3.72-1.08,5.52-.28,1.01-1.06,1.77-2.32,1.64-.88-.1-1.38.45-1.92,1.06-1.42,1.61-2.95,1.74-4.33.15-.99-1.14-1.66-2.58-2.38-3.94-.21-.39-.1-.94-.12-1.33,1.43-.94,2.62.33,3.86.07.43-1.55.45-1.64.05-2.45-.23-.46-.53-.88-.81-1.31-1.12-1.71-2.24-3.41-3.49-5.3.63-.58,1.17-1.09,1.72-1.59.95-.88,1.04-1.42.31-2.43-.4-.55-.97-.98-1.37-1.53-.55-.75-1.09-1.54-1.49-2.37-.33-.69-.09-1.34.61-1.76.31-.18.62-.38,1.07-.64-1.95-2.14-2.44-4.51-2.28-7.1.06-.93-.13-1.88-.29-2.81-.07-.36-.39-.68-.58-1-.96.34-.98,1.07-1.1,1.72-.52,2.66-1.37,5.14-3.59,6.94-.31.25-.35.85-.58,1.44.8.11,1.39.16,1.96.28,1.84.37,2.55,1.88,1.52,3.46-.7,1.07-1.64,1.98-2.47,2.96-.58.69-1.34,1.27-1.59,2.29,1.11.47,2.3.57,2.85,1.74.6,1.28-.62,2-.94,2.9.29.5.51.86.73,1.23,1.57,2.74-1.38,6.33-4.13,6.63-.32.04-.68-.06-1-.17-2.99-.98-4.66-3.72-4.18-6.83.09-.58.22-1.16.36-1.84-.79-.7-1.54-1.39-2.31-2.07-1.31-1.16-2.33-2.53-2.98-4.15-.74-1.85-.18-2.73,1.78-3.01.56-.08,1.11-.19,1.67-.29-.69-3.82-2.93-8.89-4.82-10.94-.6,1.2-.18,2.36.02,3.52.29,1.72.04,3.24-1.44,4.39-.45.35-.78.85-1.16,1.28,1.87,1.71,1.91,1.79.46,3.58-.46.57-.73,1.09-.7,1.84.04,1.01-.07,1.98.27,3.03.6,1.85-.78,3.2-2.7,2.88-1.89-.31-3.06-1.41-3.38-3.7-.26-1.85-.86-3.47-1.88-4.99-.28-.42-.49-.91-.68-1.39-.24-.6-.22-1.18.28-1.66.35-.34.69-.68,1.08-1.06-1.03-1.77-2.01-3.38-2.91-5.03-.65-1.2-.27-1.99,1.03-2.29.71-.16,1.44-.25,2.15-.36l.35-.41c-3.36-1.99-3.83-5.4-4.75-8.6-.14-.49-.33-.99-.61-1.4-.22-.32-.62-.52-.97-.79-1.13.92-1.19,2.18-1.43,3.32-.43,2.01-1.33,3.7-3.04,4.91-.36.25-.63.63-1.24,1.26,1.3-.11,2.15-.2,2.99-.25,1.94-.11,2.8,1.03,1.86,2.73-.7,1.26-1.73,2.34-2.64,3.47-.52.65-1.11,1.24-2,2.22,1.23-.1,1.97-.22,2.7-.21,1.31,0,2.12.84,1.98,2.14-.08.74-.37,1.5-.73,2.17-.35.66-.91,1.22-1.19,1.6.36.96.96,1.76.85,2.45-.14.85-.86,1.6-1.39,2.49,1.31,1.48.71,2.73-.51,3.99-.7.72-1.2,1.64-1.74,2.5-.71,1.13-1.41,1.42-2.56.82-.6-.31-1.21-.69-1.67-1.18-1.24-1.31-2.4-2.68-3.57-4.05-.27-.32-.48-.72-.65-1.11-.28-.65.15-1.24.86-1.16.5.06.99.26,1.49.36.12.02.28-.13.44-.21-.27-.6-.54-1.2-.85-1.87.93-.71,1.78-1.36,2.68-2.04-1.36-.97-2.71-1.65-3.64-2.69-.95-1.06-1.27-2.56-1.31-4.09.66-.32,1.25-.6,1.96-.94-.74-1.49-1.48-2.83-2.08-4.23-.64-1.49-1.15-3.05-1.73-4.57-.18-.48-.36-.99-.67-1.38-.28-.37-.74-.6-1.28-1.02-.26.66-.57,1.1-.59,1.55-.04,1.11,0,2.23.11,3.34.17,1.82-.19,3.41-1.68,4.62-.28.23-.48.57-.91,1.12.94-.15,1.51-.31,2.09-.33,1.54-.05,2.2.86,1.65,2.35-.85,2.28-2.01,4.35-4.12,5.77-.99.66-1.89,1.49-2.71,2.35-.34.35-.36,1-.67,1.92,1.18-.58,1.91-1,2.68-1.31,1.46-.6,2.69.27,2.45,1.8-.11.72-.51,1.45-.96,2.04-.5.67-1.2,1.19-1.94,1.89.46.34.94.56,1.22.94.45.59.97,1.25,1.09,1.95.32,1.91-.42,3.59-1.73,4.92-1.59,1.61-3.81.94-4.18-1.23-.28-1.61-.98-3.03-1.62-4.52-.23.87-.26,1.7-.36,2.53-.21,1.7-1.23,2.8-2.74,3.46-1.08.47-1.88-.14-1.8-1.34.03-.42.21-.83.25-1.26.04-.57.01-1.14.01-1.79-.48-.14-.89-.24-1.28-.39-.4-.15-.8-.32-1.15-.56-.92-.62-.92-1.47.03-2.01.58-.33,1.34-.41,1.5-1.37-.63-1.32-2.81-1.76-2.54-3.89.66-.42,1.35-.86,2.1-1.35-.74-2.17-3.1-3.44-2.97-5.98.36-.17.66-.31.96-.45,1.76-.8,1.87-1.21.85-2.9-.89-1.47-1.71-2.98-2.62-4.43-.22-.35-.08-1.08-.9-1.04-1.01,2.63-1.08,5.6-3.28,7.82,1.12.76,2.43.99,2.57,2.51.13,1.43-.86,2.37-1.29,3.5,1.94,1.57,2.09,2.15,1.08,4.17-.23.46-.5.9-.79,1.33-1.14,1.69-2.59,3.23-2.76,5.42-.01.16-.13.31-.22.46-1.02,1.71-2.74,1.88-3.97.31-.68-.87-1.22-1.87-1.76-2.84-.58-1.03-.61-2.11-.15-3.3.71-.19,1.41-.39,2.25-.62-.64-1.89-1.83-3.24-2.84-4.7-.13-.18-.08-.48-.13-.85.56-.33,1.11-.66,1.67-.98-2.39-4.02-2.37-4.44.41-6.09-1.11-.69-1.73-1.66-1.99-2.9-.23-1.12.31-2.38-.61-3.73-.51.72-1.06,1.19-1.22,1.77-.6,2.15-2.03,3.53-3.87,4.6-.17.1-.26.35-.46.64.45.14.76.23,1.08.33,1.52.5,1.79,1.09,1.07,2.42-.24.44-.52.97-.92,1.21-1.23.71-1.81,1.79-2.07,3.1-.23,1.14-1.08,1.59-2.39,1.21-1.13-.33-1.92-1.09-2.38-2.19-.49-1.17-.24-2.17.75-2.99-.5-.87-.87-1.65-1.36-2.34-.61-.85.12-1.62.07-2.24-1.01-1.3-2-2.39-2.78-3.62-1-1.57-.35-2.81,1.48-3.2.68-.14,1.46.2,2.22-.34-.81-.53-1.49-.9-2.09-1.38-1.82-1.45-1.74-2.24.32-3.5.05-.03.06-.14.14-.36-2.94-.95-2.82-4.15-4.44-6.49-.71,1.49-.15,2.89-.65,4.02-.49,1.12-1.29,2.11-2.03,3.27.52.03.95,0,1.36.08,1.25.22,1.62.9.93,1.99-.49.79-1.17,1.47-1.83,2.14-.78.79-1.51,1.59-1.72,2.98.57-.07.96-.16,1.36-.17,1.91-.03,2.69,1.18,1.8,2.84-.36.66-.87,1.24-1.33,1.89.92,1.7.59,3.23-.43,4.65-.88,1.23-2.19,1.52-3.36.61-.93-.73-1.74-1.65-2.51-2.56-.59-.69-.52-1.4.24-2.01.25-.2.41-.51.62-.78-.22-.55-.3-1.14-.63-1.47-1.65-1.64-1.81-3.57-1.44-5.73.15-.85.32-1.83-.38-2.73-.96.8-.95,1.8-.88,2.69.16,2.09-.48,3.87-1.71,5.52-.37.49-.57,1.11-.91,1.78.94-.13,1.61-.3,2.28-.3.91,0,1.47.81,1.02,1.59-.51.87-1.22,1.64-1.89,2.4-.54.62-1.37,1.01-1.6,1.96.35.11.59.2.82.26,1.66.48,1.9,1,1.23,2.56-.54,1.24-1.39,2.14-2.63,2.7-1.01.46-1.99.99-2.99,1.49-1.3.64-1.88,1.64-1.72,3.13.18,1.62.21,3.25.38,4.87.28,2.73.42,5.5.98,8.17,1,4.79,2.24,9.52,3.44,14.27.97,3.84,2.45,7.49,4.15,11.07,2.44,5.17,5.74,9.76,9.05,14.36.27.38.66.67,1.23,1.24,0-.7.06-1.05,0-1.36-.82-3.51-1.64-7.02-2.51-10.52-.12-.47-.39-.94-.7-1.32-2.76-3.3-2.63-6.94.23-10.09,3.12-3.43,6.11-6.97,9.19-10.44,1.63-1.83,2.07-3.89,1.41-6.22-.09-.33-.2-.66-.29-.99-.46-1.72-.19-2.34,1.44-2.96.62-.24,1.35-.41,2-.34,2.13.25,4.07,0,5.81-1.42.85-.7,1.66-.15,1.62,1-.06,1.52-.61,2.84-1.67,3.94-1.57,1.64-3.4,2.79-6.07,2.91,1.39.85,2.5,1.48,3.54,2.2,3.07,2.12,6.52,2.96,10.18,3.2,1.8.11,3.59.31,5.38.51.93.1,1.87.25,2.44.97.24,1.91.3,3.73.74,5.46.44,1.73,1.22,3.38,1.93,5.04.7,1.62.84,3.49,2.1,4.96,3.85-.64,7.64-1.28,11.65-1.95ZM341.02,205.62c-.03-4.46-.37-8.3-.95-12.11-.3-1.95-.64-3.9-1.16-5.8-.87-3.14-1.82-6.27-2.88-9.35-.86-2.51-1.74-5.04-2.93-7.41-3.34-6.61-7.29-12.87-12.05-18.53-3.52-4.2-7.13-8.39-11.85-11.38-2.24-1.43-4.47-2.89-6.68-4.37-7.69-5.14-15.96-9.09-24.76-11.91-1.71-.55-3.44-1.11-5.19-1.49-2.85-.62-5.72-1.17-8.6-1.62-1.94-.3-3.91-.42-5.87-.57-2.75-.22-5.47.21-8.21.4-6.54.45-12.97,1.51-19.27,3.2-7.73,2.07-15.21,4.85-22.15,8.93-3.55,2.09-7.06,4.2-10.08,7.09-5.09,4.87-10.14,9.77-14.71,15.14-3.35,3.94-6.26,8.21-8.3,12.98-2.23,5.21-4.32,10.48-6.3,15.79-1.92,5.16-3.38,10.46-4.1,15.93-.23,1.77-.18,3.55-.05,5.37,3.63-1.03,4.66-1.66,5.28-3.19-.51-.09-1.04-.11-1.51-.28-.88-.32-1.22-1-.86-1.83.27-.62.68-1.19,1.1-1.72.46-.59,1.01-1.12,1.65-1.81-.49-.19-.8-.27-1.07-.42-1.26-.68-1.49-1.24-.93-2.47.25-.54.56-1.07.92-1.55,1.22-1.63,1.95-3.37,1.75-5.49-.12-1.31.32-2.56,1.22-3.57.88-.99,2.09-.94,2.82.17.36.55.59,1.25.65,1.91.09.93.06,1.9-.09,2.82-.21,1.27-.01,2.34.83,3.36,1.33,1.61,2.02,3.38.59,5.41.75.63,1.38,1.16,2.08,1.75.95-.88,1.41-1.68.92-2.83-.83-1.91-.81-1.91.7-3.32.18-.16.28-.4.58-.84-.79.12-1.35.25-1.91.27-1.19.04-1.75-.53-1.71-1.71.05-1.46.87-2.58,1.73-3.66.46-.57.99-1.09,1.52-1.66-2.53-1.32-2.82-2.46-.98-4.08,1.01-.89,1.37-1.85,1.45-3.12.08-1.27.26-2.57.64-3.78.39-1.23,1.58-1.46,2.41-.56.4.43.73.96.98,1.5.47,1.01.88,2.05,1.28,3.09.35.9.84,1.64,1.67,2.21,2.4,1.66,2.43,2.01.67,4.46.59.34,1.19.65,1.76,1.01,1.02.66,1.35,1.42,1.07,2.37-.3.99-1.21,1.68-2.32,1.68-.56,0-1.12-.08-1.8-.13.06,1.18.61,1.73,1.52,2.14,2.18-.79,4.1-1.98,5.77-3.67,1.75-1.77,3.63-3.4,5.46-5.09.31-.29.71-.51.97-.84.72-.92.54-2.03-.51-2.59-3.18-1.69-6.41-3.29-9.6-4.96-2.73-1.43-5.45-2.88-8.16-4.35-.45-.24-.88-.57-1.19-.96-.21-.26-.18-.71-.26-1.06.95-.45,1.5.06,2.08.37,2.25,1.24,4.47,2.55,6.76,3.72,3.36,1.72,6.76,3.36,10.14,5.03.67.33,1.37.62,1.98.9,2.35-2.22,7.75-8.66,8.33-9.93-2.9-2.9-5.81-5.8-8.71-8.72-.54-.55-1.1-1.1-1.52-1.73-.18-.27-.02-.76-.01-1.14.39.02.81-.04,1.16.09.3.11.52.44.76.68,2.37,2.37,4.72,4.75,7.11,7.1.9.89,1.7,1.94,2.89,2.29,3.71-2.7,7.31-5.32,10.91-7.94-.03-.14-.03-.32-.11-.46-2.78-5.23-5.58-10.45-8.36-15.68-.68-1.29-1.34-2.59-1.98-3.91-.23-.48-.38-1.04.26-1.32.59-.26.95.18,1.24.63.19.29.34.6.5.9,1.46,2.72,2.92,5.45,4.38,8.17,1.66,3.1,3.31,6.21,4.99,9.3.28.51.68.95,1.12,1.55,3.73-2.06,7.95-2.76,11.74-4.97-.51-2.17-.95-4.17-1.46-6.16-.56-2.16-1.18-4.3-1.76-6.46-.18-.67-.35-1.36.6-1.83,1.47,1.04,1.27,2.84,1.82,4.27.58,1.52,1.02,3.1,1.45,4.67.43,1.55.77,3.11,1.16,4.75,2.33.35,4.31-.78,6.42-.96,2.19-.19,4.37-.5,6.62-.76.05-.83.11-1.51.12-2.18.07-6.27.1-12.54.2-18.81.02-1.28.2-2.56.41-3.83.06-.35.44-.64.65-.93.88.3.9.89.88,1.52-.07,2.31-.16,4.63-.19,6.95-.02,1.29.09,2.57.07,3.86-.05,4.12-.14,8.24-.2,12.36,0,.32.13.64.22,1.06.57.06,1.07.21,1.55.15,3.38-.44,6.67.26,9.98.74.56.08,1.13.17,1.75.26.21-.53.41-.91.52-1.31.75-2.91,1.48-5.82,2.22-8.73.19-.75.37-1.51.68-2.21.12-.28.59-.4,1.25-.82.03,5.04-2.38,9.26-2.51,13.87,2.15.83,4.19,1.51,6.12,2.41,1.92.9,3.73,2.03,5.78,3.16.43-.86.81-1.62,1.19-2.36,2.94-5.72,5.87-11.45,8.82-17.17.15-.3.35-.63.62-.8.25-.15.64-.18.93-.1.14.04.29.43.27.65-.02.33-.14.68-.29.98-1.38,2.86-2.63,5.79-4.22,8.53-1.85,3.21-3.52,6.49-5.03,9.86-.23.52-.34,1.11-.53,1.72,3.49,2.75,6.28,6.16,9.94,8.52.36-.26.59-.38.76-.56,3.44-3.48,6.87-6.97,10.3-10.45.18-.18.35-.38.54-.55.41-.36.89-.66,1.36-.21.48.47.1.94-.19,1.36-.2.28-.41.56-.64.8-1.9,1.98-3.78,3.98-5.73,5.92-1.64,1.62-3.42,3.1-4.78,5.13,1.34,1.62,2.69,3.16,3.93,4.79,1.23,1.61,2.35,3.31,3.51,4.95,1.93-1.01,3.65-1.98,5.43-2.83,3.32-1.6,6.69-3.12,10.02-4.72,1.78-.86,3.5-1.83,5.26-2.73.6-.31,1.21-.76,2,0-.27.37-.47.86-.84,1.11-.99.68-2.01,1.34-3.08,1.87-3.93,1.94-7.87,3.83-11.82,5.72-2.08.99-4.14,2-6.03,3.43,1.24,2.88,2.44,5.59,5.34,7.09.82.42,1.45,1.2,2.16,1.82.77.66,1.53,1.35,2.19,1.46,1.44-.95,2.55-1.72,3.7-2.42,1.02-.62,1.96-1.27,2.27-2.66-.53-.04-.87-.06-1.21-.09-.43-.03-.87,0-1.28-.09-1.25-.27-1.64-1.35-.79-2.31.51-.57,1.13-1.08,1.8-1.43,1.27-.66,1.93-1.53,1.87-3.05-.03-.8.28-1.69.66-2.43.42-.8,1.26-1.19,2.18-1.07.85.11,1.34.73,1.63,1.49.15.4.28.83.3,1.25.05,1.32.72,2.23,1.72,3.02.67.53,1.32,1.12,1.82,1.8.76,1.03.57,1.9-.45,2.66-.4.3-.85.51-1.29.77.71,1.11,1.44,2.06,1.96,3.12.66,1.34.51,1.91-.71,2.83-.48.36-.63.69-.73,1.22-.13.66-.42,1.28-.66,1.99,1.03.8,1.64,1.76,1.55,3.09-.06.8.29,1.42,1.32,1.73q-.82-1.64.13-3.1c-1.35-2.12-1.36-2.39.57-4.01.86-.72,1.31-1.5,1.36-2.62.07-1.46.21-2.91.42-4.35.14-.92.33-1.89.74-2.71.62-1.25,2.07-1.34,2.97-.26.38.45.71,1,.89,1.56.77,2.45,1.59,4.9,2.19,7.4.58,2.44.05,2.97-2.48,2.98-.07,0-.14.1-.36.28.33.37.63.74.97,1.08.48.49,1.03.92,1.47,1.44.86,1,1.23,2.07.23,3.23-.15.18-.22.43-.36.71.96.85,1.9,1.68,3.22,2.85ZM226.92,217.15c2.45-1.29,2.75-3.61.79-4.97-.28-.2-.6-.35-.85-.58-.72-.65-.77-1.55-.08-2.27.41-.43.98-.7,1.41-1.11.46-.43.83-.95,1.24-1.43-.9.05-1.54.44-2.21.73-1.74.75-2.86-.04-2.82-1.96.03-1.37.58-2.51,1.63-3.37.93-.76,1.9-1.47,2.86-2.19,1.4-1.07,2.4-2.37,2.71-4.37-.69.05-1.18.08-1.67.11-.99.05-1.97-.06-2.37-1.11-.38-1,.35-1.67,1.06-2.12,1.95-1.24,2.27-3.01,2.08-5.14-.11-1.26-.02-2.59.26-3.83.4-1.83,1.99-2.41,3.55-1.38.55.36,1.06.9,1.36,1.48.67,1.29,1.33,2.62,1.74,4.01.67,2.25,1.59,4.33,3.22,5.92-.04,1.15-.54,1.9-1.2,2.62-.8.87-.8,1.65-.04,2.45.41.42.95.72,1.46,1.03.66.4,1.39.69,2.02,1.12.9.62,1,1.33.29,2.18-.54.65-1.17,1.22-1.71,1.78q.65,2.58-1.24,3.97c1.03,1.1,1.76,2.49,3.29,3.05.96-1.23,1.85-2.37,2.75-3.53-.68-.57-1.29-1.08-1.84-1.53.25-1.68,2.03-1.75,2.61-3.02-.35-.19-.66-.33-.94-.51-1.14-.76-1.23-1.32-.34-2.22.42-.42.94-.75,1.34-1.2.62-.69,1.32-1.38,1.06-2.62-.59.05-1.16.13-1.73.15-1.06.04-2.39.65-3.01-.65-.56-1.19.43-2.1,1.16-2.92.97-1.09,2.04-2.09,3-3.18.29-.33.36-.84.64-1.51-.78,0-1.29.03-1.78,0-.77-.05-1.56-.02-2.28-.23-1.18-.35-1.45-1.5-.64-2.44.33-.39.74-.73,1.17-1.01,1.86-1.18,2.84-2.86,3.26-5.02.22-1.16.72-2.29,1.27-3.34.49-.92,1.22-1.06,2.21-.75,1.25.39,2.03,1.26,2.43,2.46.44,1.3.9,2.6,1.2,3.94.36,1.57,1.09,2.87,2.27,3.95.38.34.76.71,1.06,1.12,1.11,1.52.7,2.75-1.1,3.32-.45.14-.91.27-1.57.46,1.17,2.12,2.23,4.04,3.28,5.94-.67.78-1.2,1.41-1.82,2.12,1.37,1.93,2.3,3.93,2.4,6.24.02.47.34.99.67,1.36.45.51,1.02.94,1.89.44-.47-2.42-1.29-4.94.84-7.03-1.45-1.58-1.51-2.27-.31-3.74.27-.33.57-.66.92-.9,1.14-.8,1.38-1.89,1.15-3.17-.12-.68-.27-1.35-.31-2.03-.11-1.52.35-2.89,1.33-4.06.78-.93,1.7-.86,2.27.17.25.45.42.94.57,1.44.48,1.57,1.24,2.98,2.12,4.38,1.43,2.28,1.87,4.95,2.6,7.51.05.16.03.34.02.51-.03.79-.4,1.31-1.23,1.37-.82.06-1.64.08-2.69.13.29.7.37,1.24.68,1.6.99,1.17,1.97,2.4,3.13,3.38,1.47,1.24,2.16,2.44,1.4,4.45-.66,1.75-.11,2.58,1.63,3.8.55.39,1.04.85,1.54,1.26,1.23-.14,1.95-.85,2.51-1.74.88-1.38.65-2.28-.72-3.21-.45-.31-.84-.71-1.11-.94.16-1.48,1.93-1.38,2.09-2.95-.82.05-1.47.11-2.11.12-1.33.02-1.86-.8-1.3-2.04.21-.46.49-.91.81-1.31.92-1.13,1.9-2.21,2.83-3.34.52-.63,1.34-1.12,1.2-2.26-.58-.1-1.17-.17-1.74-.3-1.96-.45-2.61-1.97-1.55-3.67.22-.36.49-.73.83-.98,1.71-1.27,2.3-3.15,2.81-5.07.2-.75.32-1.52.56-2.25.34-1.05,1.03-1.8,2.21-1.87,1.08-.07,1.94.6,2.28,2.02.35,1.49.64,3.04.66,4.56.03,1.88.31,3.57,1.61,5.01.28.31.5.7.67,1.09.49,1.08.33,1.55-.73,2.37-.23.18-.47.36-.78.61.81.89,1.55,1.61,2.17,2.43,1.29,1.71,1.18,2.92-.3,4.54-.23.25-.44.5-.71.81,1,1.56,1.96,3.08,2.94,4.58.72,1.11,1.21,2.27,1.08,3.63-.14,1.44-.79,2.17-2.22,2.39-.43.07-.88.06-1.43.09q1.08,1.95,2.62,2.62c1-1.26,2.03-2.52,3.92-2.5.28,0,.76-.52.83-.86.31-1.49.9-2.96.52-4.6-.31-.17-.6-.35-.89-.5-2.25-1.15-2.38-1.63-.96-3.65.14-.19.22-.42.36-.68-.49-.09-.94-.11-1.32-.26-1.05-.42-1.28-1.18-.58-2,.44-.51,1.03-.91,1.51-1.39.39-.39.72-.83,1.23-1.43-.64-.03-.98,0-1.3-.07-1.48-.31-1.9-1.16-1.08-2.36.43-.63,1.01-1.17,1.55-1.71.59-.59,1.21-1.15,1.98-1.88-.6-.22-1.01-.3-1.35-.5-1.16-.69-1.36-1.8-.52-2.79.27-.32.62-.61.98-.82,1.52-.88,2.28-2.18,2.57-3.93.34-2,1.44-2.31,3.04-1.04.2.16.42.32.56.53,1.16,1.7,2.3,3.41,3.44,5.13.18.27.26.61.45,1.05-.81.61-1.56,1.18-2.65,2.01,1.37.43,2.34.69,3.27,1.04.27.1.46.44.76.76-.49.59-.9,1.11-1.35,1.65.1.34.25.66.29.99.05.41.01.82.01,1.3-.79.3-1.53.59-2.37.91.89,1.34,1.9,1.04,2.82.54,1.09-.59,1.83-1.51,2.22-2.73.1-.31.62-.68.93-.67.29.01.73.47.8.79.16.79.21,1.56,1.34,1.75.92-.37,1.51-1.14,1.9-2.18-.24-.2-.42-.38-.62-.51-1.54-.99-1.6-1.1-.74-2.56.26-.44.68-.76.29-1.35-.49-.77-.08-1.29.58-1.69.7-.42,1.4-.82,2.62-1.53-1.24,0-1.88-.15-2.4.03-1.38.49-2.51.04-3.6-.72-.63-.44-1.3-.84-1.87-1.35-2.76-2.44-5.96-4.37-8.48-7.1-.51-.55-1.23-.94-1.88-1.34-4.69-2.85-9.33-5.76-14.17-8.38-4.32-2.33-8.69-3.51-13.52-3.44-1.76.03-3.44-.34-4.54-1.88-.84-1.17-1.91-1.34-3.18-.98-3.21.93-6.49,1.61-9.46,3.26-3.31,1.84-6.57,1.83-9.5-.88-1.43-1.32-3.12-1.82-4.99-1.56-2.37.34-4.78.62-7.07,1.29-6.98,2.03-13.33,5.45-19.5,9.2-2.08,1.26-4.14,2.47-6.61,2.66-2.6.2-4.7,1.36-6.7,2.96-3.2,2.56-5.49,6.2-9.21,7.59-.08,1.23-.19,2.12-.19,3.02,0,.56.04,1.18.29,1.66.55,1.08.72,1.99-.13,3.08-.66.84,0,1.34.71,1.54,1.04-1.46,1.99-2.81,2.97-4.19-.17-.11-.35-.31-.58-.38-.85-.28-1.62-.62-1.7-1.68-.07-1.02.57-1.56,1.37-1.97.23-.12.45-.25.68-.37,1.32-.73,2.3-1.74,2.8-3.22.24-.72.67-1.39,1.09-2.04.49-.75,1.14-1.3,2.14-1.1,1.07.21,1.83.98,1.98,2.1.08.59.05,1.2.02,1.8-.05,1.19.2,2.21,1.3,2.88.28.17.54.44.72.72.44.69.51,1.45.18,2.21-.29.68-.91.67-1.52.71-.21.02-.41.21-.65.34.61,1.11,1.2,2.14,1.74,3.2.36.7.23,1.31-.41,1.82-.23.19-.39.47-.55.67.72,1.26,1.43,2.35,1.97,3.5.56,1.18.26,1.92-.9,2.55-.43.23-.91.37-1.42.58.24,1.66,1.06,2.78,2.29,3.9.34-.52.77-.9.83-1.34.24-1.7,1.11-3,2.19-4.28.73-.87,1.55-1.81,1.51-3.1-3.12-.91-3.17-1.1-1.16-3.63.53-.66,1.18-1.31.59-2.4-.37-.17-.86-.34-1.29-.6-1.17-.68-1.5-1.52-.63-2.52,1.6-1.84,2.18-4.05,2.74-6.3.4-1.62,1.2-3.04,2.41-4.19.33-.32.81-.48,1.46-.85.15.8.37,1.35.34,1.89-.09,1.6.23,3.05,1.15,4.39.73,1.06,1.38,2.17,2.04,3.27.91,1.5.86,2.43-.31,3.72-.39.43-.97.68-1.51,1.05.91,1.27,1.57,2.16,2.19,3.07,1.39,2.06,1.32,2.33-.8,3.83-.09.06-.06.3-.07.36.66.73,1.6,1.32,1.83,2.12.25.88-.14,1.95-.27,3,.39.43.98.86,1.26,1.44.29.6.28,1.34.4,2.02.45-.85.47-1.68.58-2.5.09-.67.18-1.38.48-1.97.67-1.29,2.1-1.34,2.87-.12.31.5.46,1.1.67,1.66.57,1.5,1.13,3,1.7,4.52ZM199.42,279.92c3.34,3.58,12.64,9.24,16.05,9.85,1.86-1.63,3.65-3.37,5.62-4.87,4.44-3.36,8.93-6.68,13.88-9.3,2.2-1.17,4.3-2.53,6.57-3.54,6.05-2.69,12.39-4.56,18.78-6.24,2.91-.76,5.93-1,8.93-.88,4.89.19,9.77.5,14.65.75,3.62.18,7.24.61,10.61,1.87,6.25,2.34,12.82,3.78,18.99,6.83,1.31-1.24,2.66-2.51,4.16-3.93-.67-.42-1.06-.72-1.5-.93-8.17-3.84-16.53-7.13-25.35-9.2-2.35-.55-4.68-1-6.75-.33-1.03-.51-1.74-1.08-2.53-1.23-1.93-.37-3.9-.51-5.85-.8-3.34-.5-6.68-.02-10.02.05-3.77.08-7.54.09-11.29.67-4.75.73-9.52,1.25-14.21,2.35-5.2,1.22-10.13,3.22-15.11,5.09-3.53,1.33-7.15,2.44-10.43,4.37-1.33.78-2.63,1.65-4.03,2.28-3.31,1.49-6.28,3.53-9.27,5.55-.63.42-1.18.97-1.9,1.58ZM204.7,181c2.66-.06,5.19-.32,7.37-1.88,3.52-2.51,7.47-4.22,11.28-6.18,4.83-2.48,9.88-4.34,15.32-5.04,3.21-.41,6.13-.23,8.6,2.23,1.66,1.66,3.74,1.5,5.78.84.73-.23,1.38-.68,2.07-1.04,3.09-1.58,6.45-2.31,9.78-3.11,1.29-.31,2.69-.19,3.54.96.98,1.33,2.22,1.74,3.76,1.75,1.11.01,2.22.17,3.33.3,3.08.38,6.12.9,8.89,2.41,4.29,2.34,8.69,4.47,12.73,7.26,1.29.89,2.63,1.79,4.52,2.58-.35-.82-.47-1.21-.67-1.56-2.27-4.1-5.13-7.71-8.69-10.77-1.89-1.62-3.87-3.15-5.63-4.91-2.02-2.02-4.31-3.66-6.66-5.25-4.84-3.31-10.28-5.07-15.96-6.19-4.52-.89-9.09-.53-13.61-.28-5.06.28-10.05,1.2-14.73,3.31-.78.35-1.59.65-2.41.91-11.82,3.74-20.33,11.82-27.79,21.26-.51.64-1.06,1.34-.84,2.38ZM216.89,252.6c-.78.23-1.44.39-2.08.61-6.74,2.34-13.23,5.29-19.69,8.28-1.87.86-3.67,1.87-5.44,2.93-.62.37-1.08,1.04-1.55,1.62-.51.63-.93,1.32-1.54,2.2,1.73,1.76,3.44,3.69,5.35,5.39,1.9,1.69,3.46,3.79,5.72,5.18,1.37-.99,2.59-1.91,3.85-2.79,4.66-3.26,9.77-5.74,14.8-8.32,2.73-1.4,5.74-2.25,8.6-3.43,7.57-3.13,15.34-5.51,23.48-6.58,3.49-.46,6.97-.96,10.47-1.24,3.42-.27,6.86-.28,10.29-.43.47-.02.93-.25,1.51-.42-.51-2.27-.54-4.51-1.71-6.48-1.12-.13-2.15-.18-3.16-.38-3.73-.75-7.49-.94-11.27-.81-5.49.19-10.98.39-16.47.59-.33.01-.65.15-1.12.26-.18.74-.39,1.47-.53,2.22-.22,1.18-.33,2.38-.6,3.55-.19.83-.47,1.66-.88,2.4-.46.83-1.71.77-2.09-.1-.26-.6-.32-1.32-.34-1.99-.04-1.46.04-2.92.01-4.38,0-.47-.2-.93-.35-1.59-3.66,1.16-7.37,1.13-11.01,2.09.4,1.56.8,2.86,1.08,4.19.29,1.42.02,2.32-.68,2.49-1.18.29-1.68-.61-2.21-1.39-.82-1.2-1.6-2.42-2.44-3.68ZM239.69,275.43c1.12,0,1.85.02,2.57,0,3.34-.1,6.69-.41,10.02-.27,4.45.18,8.88.68,13.32,1.1,1.96.18,3.95.32,5.84.8,3.32.83,6.59,1.86,9.86,2.88,2.29.71,4.51,1.68,6.83,2.28,2.81.74,5.3,1.91,7.23,4.13.09.11.31.1.74.23,5.57-2.79,10.98-6.12,15.69-10.7-1.15-1.09-2.37-1.48-3.58-1.89-4.47-1.5-8.94-3-13.41-4.49-3.52-1.17-7.16-1.76-10.85-2-4.79-.31-9.59-.49-14.39-.67-3.35-.12-6.68.03-9.93,1.03-1.88.58-3.8,1.06-5.68,1.63-3.85,1.18-7.69,2.4-11.37,4.06-.91.41-1.87.74-2.89,1.86ZM293.78,287.59c-1.36-1.77-2.81-2.7-4.64-3.15-1.33-.32-2.61-.85-3.91-1.26-3.75-1.19-7.55-2.25-11.26-3.58-3.45-1.24-7.06-1.31-10.62-1.77-2.63-.34-5.29-.6-7.94-.64-5.23-.07-10.46-.06-15.69.1-2.63.08-5.24.53-7.6,1.94-1.7,1.02-5.31,3.69-6.38,5.01.77-.1,1.44-.2,2.11-.26,3.15-.27,6.31-.72,9.46-.73,4.28-.02,8.56.31,12.85.49.51.02,1.03.07,1.53.15,4.67.76,9.23,1.93,13.6,3.74,1.74.72,3.4,1.63,5.14,2.35,2.15.88,4.26,1.83,6.01,3.4.75.67,1.45.7,2.35.36,2.73-1.03,5.51-1.9,8.21-2.99,2.22-.9,4.34-2.01,6.77-3.15ZM275.48,294.76c-1.24-.77-1.92-1.29-2.68-1.66-1.62-.78-3.3-1.43-4.91-2.24-6.76-3.41-13.9-5.33-21.5-5.44-1.89-.03-3.8.09-5.66-.17-4.4-.61-8.71.21-13.06.58-1.99.17-3.88.67-5.74,1.34-1.84.66-3.17,1.91-4.41,3.57.59.29,1.03.53,1.48.73,6.81,3.13,14.18,3.95,21.46,5.05,4.57.69,9.2.97,13.73,1.96.65.14,1.37.06,2.04-.05,5.66-.97,11.32-1.96,16.98-2.97.57-.1,1.11-.34,2.25-.7ZM203.9,241.6c-.6.72-.99,1.17-1.36,1.63-.57.73-1.31,1.15-2.23.97-1.4-.27-2.5.18-3.48,1.16-.95.94-2.05,1.13-3.3.56-.6-.27-1.26-.39-1.93-.58-.75.99-1.26,2.08-2.11,2.7-.91.65-2.14.85-3.24,1.25.17,4.89,1.2,11.21,2.25,13.57,8.8-4.72,18-8.52,27.55-12.11-1.68-2.97-3.19-5.74-4.83-8.43-.57-.94-1.56-1.54-2.74-1.92-1.25,1.3-2.59,2.34-4.58,1.2ZM290.36,251.4c.93.4,1.61.76,2.32.99,4.08,1.34,7.92,3.14,11.72,5.19,4.13,2.23,8.47,4.1,12.44,6.66.44.28,1.01.36,1.55.54.79-3.76,1.06-7.34.88-10.95-.1-2.03-.99-3.69-2.02-5.28-3.82,1.01-3.89.98-5.12-2.03-1.09.26-2.2,1.41-3.32.51-.89-.71-1.51-1.77-2.34-2.77-.42.09-.91.17-1.39.29-2.25.6-2.81.42-4.2-1.36-.36-.46-.73-.91-1.03-1.28-1.74.52-3.34.99-5.07,1.5-1.36,2.44-2.8,5.06-4.43,7.98ZM266.74,235.64c-1.2-.07-2.01.43-2.86.78-1.37.57-1.51.51-2.38-.58-.16-.2-.25-.45-.42-.65-.72-.83-1.29-.92-2.23-.28-.49.34-.91.78-1.39,1.15-1.78,1.37-2.68,1.32-4.25-.21-.47-.46-.96-.91-1.56-1.46-.72.71-1.3,1.31-1.92,1.89-1.73,1.6-2.89,1.68-4.81.39-.62-.42-1.25-.81-1.8-1.16-1.34.69-2.47,1.26-3.66,1.87-.52,3.03-1.65,5.9-1.86,9.1.67.11,1.17.27,1.66.25,2.66-.06,5.32-.11,7.97-.27,6.25-.39,12.49-.7,18.7.52.8.16,1.65.02,2.56.02.47-1.78-.33-3.32-.49-4.9-.22-2.1-.26-4.28-1.26-6.45ZM292.31,238.74c1.09.75,1.88,1.24,2.62,1.81.83.64,1.6.78,2.59.24,2.57-1.39,2.75-1.31,4.57,1.06.98,1.27,1.1,1.32,2.58.92.25-.07.48-.2.73-.26,1.83-.39,2.64,0,3.52,1.69.22.43.5.83.8,1.33.5-.25.86-.46,1.24-.62,1.74-.75,2.38-.5,3.25,1.21.18.35.38.7.59,1.08.56-.13.97-.23,1.38-.31,1.69-.34,2.28-.08,3.17,1.4.34.57.65,1.17.95,1.7q1.98-.19,4.44,1.44c1.5-2.96,1.39-3.43-1.16-5.09-.14-.09-.28-.19-.43-.29-4.64-3.09-9.32-6.04-14.76-7.64-2.96-.88-5.86-1.82-8.96-2.18-1.96-.23-3.88-.47-5.98-.29-.39.95-.78,1.87-1.16,2.79ZM255.11,235.49c1.03-.79,1.81-1.42,2.63-1.99,1.75-1.22,3.05-1.11,4.59.32.3.28.6.57.88.84.45-.15.79-.23,1.09-.37,1.54-.7,2.97-.65,4.35.42.46.36,1.04.63,1.6.79,1.21.34,2.01-.24,2.08-1.52.05-.92.22-1.89-.43-2.77-1.78-.62-3.63-.81-5.53-.86-3.6-.1-7.2-.32-10.8-.4-2.57-.06-5.15-.05-7.72.1-2.65.16-5.29.51-7.92.84-1.27.16-2.54.4-3.76.78-1.63.51-1.91,1.34-1.32,3.56.64-.26,1.24-.59,1.89-.73.65-.14,1.45-.34,2-.09,1.17.52,2.16.31,3.19-.23,1.03-.53,1.99-.37,2.9.28.35.25.68.53,1.04.76,1.2.78,1.66.73,2.7-.25.68-.65,1.29-1.39,2.04-1.95.93-.68,1.72-.6,2.54.21.67.65,1.23,1.42,1.95,2.27ZM214.27,235.05c-1.35,0-2.55-.14-3.7.03-2.2.31-4.39.75-6.56,1.22-5.63,1.21-11.05,3.08-16.24,5.57-2,.96-3.97,2.01-5.8,3.26-1.63,1.11-1.57,1.57-.45,3.84,1.45-1.81,3.37-2.19,5.51-1.9.87.12,1.47-.33,1.88-1.07.21-.37.41-.76.66-1.1.94-1.29,1.78-1.58,3.34-1.14.73.2,1.44.45,2.19.69,1.7-1.51,3.38-2.87,5.78-2.08,1.24-1.85,2.64-3.18,4.89-2.22.32-.24.54-.37.72-.55,1.3-1.28,2.63-1.46,4.09-.24.3.25.75.32,1.12.47.97-.75,1.84-1.42,2.84-2.2-.08-.79-.16-1.61-.26-2.59ZM239.57,228.93c4.17-.28,8.34-.73,12.51-.79,4.25-.07,8.5.24,13.05.4-.43-.35-.59-.59-.79-.64-2.71-.66-4.74-2.28-6.47-4.4-.92-1.13-1.95-2.17-2.98-3.2-.59-.59-1.21-1.22-2.23-1.21-3.93,3.81-8.4,6.91-13.09,9.83ZM286.9,257.62c2.4.55,4.57.97,6.69,1.54,2.23.6,4.44,1.29,6.63,2.03,2.11.71,4.18,1.53,6.27,2.31,2.17.81,4.32,1.65,6.49,2.47,2.01.76,3.74,2.21,6.02,2.41-.26-.49-.57-.88-.98-1.13-3.27-2.04-6.39-4.31-9.91-5.93-2.41-1.1-4.81-2.27-7.1-3.6-3.67-2.13-7.77-3.07-11.81-4.74-.79,1.6-1.5,3.02-2.29,4.63ZM184.09,241.06l.21.31c1.69-.72,3.37-1.45,5.07-2.16,1.74-.72,3.46-1.48,5.23-2.12,1.76-.64,3.6-1.08,5.36-1.73,1.67-.62,3.56-.51,5.17-1.59-4.34-.27-7.49-3.21-11.01-4.9-3.46,4.2-6.74,8.2-10.03,12.2ZM301.3,234.47c2,.57,4.05,1.13,6.09,1.76,1.96.61,3.95,1.2,5.84,2,1.92.81,3.73,1.87,5.59,2.82.16-.13.32-.26.47-.39-2.98-2.51-3.63-6.15-4.76-9.49-1.66.57-3.07,1.21-4.56,1.55-2.91.68-5.87,1.19-8.67,1.75ZM274.13,250.2v5.6c3.08.4,6.01.78,8.86,1.14,1.34-2.71,1.41-2.96,1.39-4.76-2.09-1.09-7.5-2.19-10.25-1.98ZM272.14,253.02c0-3.25.1-5.97-.03-8.67-.09-1.96-.42-3.92-.76-5.86-.18-1.02-.33-1.02-1.97-.77.39,5.02,1.43,9.92,2.76,15.3ZM237.8,236.24c-2.79.98-2.77.98-2.89,3.1-.13,2.47-.33,4.94-.44,7.42-.06,1.34-.01,2.69-.01,4.47,1.15-5.17,2.21-9.9,3.34-14.99ZM212.88,241.4c2.04,3.65,3.97,7.09,5.9,10.53-.61-4.11-1.83-7.96-3.82-11.52-.06-.11-.29-.13-.55-.24-.4.33-.85.69-1.52,1.23ZM286.36,253.63c2.51-3.9,5.38-7.53,7.06-12.13-.6-.04-1.02-.19-1.32-.06-.26.11-.42.51-.57.81-1.42,2.84-2.86,5.66-4.22,8.53-.43.9-.64,1.9-.95,2.85ZM184.12,249.58c-1.17.59-1.2,1.2-1.02,1.93.76,3.15,1.47,6.31,2.23,9.46.16.66.41,1.3.61,1.95.07-.02.14-.05.2-.07-.66-4.35-1.33-8.71-2.02-13.28ZM320.88,261.7c.09.02.18.04.26.06.64-2.39,1.28-4.79,1.93-7.18.19-.69.35-1.37-.21-1.93-.28-.27-.74-.58-1.06-.53-.29.05-.65.55-.7.89-.11.67-.14,1.39,0,2.05.28,1.38.18,2.72-.06,4.08-.15.83-.11,1.7-.16,2.55ZM322.07,229.11c-1.15-1.13-2.09-2.1-3.08-3-.81-.74-1.84-.54-2.3.47-.23.49-.2,1.1-.33,1.9,2-.19,3.47,1.73,5.72.64ZM199.18,222.3c-1.93.51-3.89-.5-5.74.11-.41,1.04-.02,1.74.5,2.4,2.36.44,4-.55,5.24-2.51ZM254.47,214.86c1.99.79,3.53.36,5.1-.91-1.04-.82-2.03-1.22-3.17-1.12-.48.04-1.1.12-1.37.43-.33.38-.37,1.02-.56,1.6Z"/>
    <path d="M261.71,102.72c-.16,1.27-.35,2.55-.46,3.82-.11,1.2-.18,2.34,1.16,3.12.72.41.54,1.44-.18,1.63-1.58.4-3.15.49-4.85-.45.34-.55.55-.88.74-1.22.28-.5.72-.98.78-1.51.27-2.13.41-4.27.61-6.41.08-.86.1-1.59-.69-2.3-.71-.63-.38-1.45.56-1.75.56-.18,1.18-.28,1.77-.28,1.13-.01,1.96.46,2.31,1.64.42,1.4.89,2.78,1.37,4.16.15.45.38.88.69,1.6.48-.75.8-1.23,1.1-1.72.49-.8.94-1.64,1.47-2.42,1.33-1.93,3.19-2.58,5.32-1.84.33.12.73.56.76.88.03.32-.31.77-.62.98-.4.28-.92.39-1.36.57-.22,2.73-.43,5.36-.65,8-.06.68.3,1.02.81,1.45.92.78.61,1.86-.56,1.97-1.18.11-2.39-.01-3.57-.16-.33-.04-.75-.46-.87-.8-.22-.59.25-.92.74-1.15.3-.14.61-.28,1.08-.49.23-2.26.46-4.54.69-6.83-.14-.05-.27-.11-.41-.16-.36.51-.74,1.01-1.08,1.53-.65,1.01-1.2,2.09-1.94,3.03-.77.98-1.89.87-2.54-.22-.39-.66-.62-1.41-.88-2.13-.31-.87-.59-1.75-.88-2.63-.14.03-.28.06-.42.08Z"/>
    <path d="M219.79,111.66c-.34-2.06-.85-3.44-1.51-4.69-.34-.65-1.25-.99-2.02-1.55,0-1.07.82-1.55,1.69-1.91.86-.36,1.76-.76,2.72-.32.64.29,1,.89.52,1.44-.79.89-.47,1.73-.16,2.62.46,1.29.94,2.57,1.4,3.87.29.81.55,1.62.81,2.44.27.85.44,1.73-.38,2.36-.88.67-1.64.04-2.32-.46-1.73-1.26-3.42-2.58-5.14-3.85-.38-.28-.82-.48-1.76-1.01.69,1.94,1.07,3.42,1.8,4.74.25.44.92.66,1.4.95.86.52.96,1.34.14,1.79-.9.48-1.86.88-2.84,1.18-.92.29-1.69-.5-1.19-1.25.7-1.05.42-1.91.02-2.89-.84-2.05-1.64-4.12-2.39-6.03-.39-.15-.54-.27-.69-.27-.62,0-1.42.62-1.74-.39-.25-.79.39-1.25.94-1.66,1.39-1,2.23-1.03,3.74,0,1.48,1.02,2.9,2.14,4.36,3.18.68.49,1.41.92,2.61,1.68Z"/>
    <path d="M300.08,123.44c.52-.7,1.19-1.28,1.44-2.01.27-.78.22-1.7.2-2.55-.02-.93-.54-1.4-1.6-1.3-.81.85-1.31,1.86-1.42,3.13-.11,1.26-.79,1.69-1.89,1.25-.69-.28-1.37-.73-1.9-1.25-.77-.76-.44-1.56.67-1.79.32-.07.65-.05,1.01-.08,1.08-2.03,2.14-3.99,3.17-5.96.51-.99.95-1.95.14-3.11-.44-.63.2-1.35,1.01-1.28.42.04.86.13,1.23.32,1.37.7,2.79,1.35,4.06,2.22.74.51,1.38,1.31,1.79,2.12,1.12,2.23.35,4.03-1.96,4.92-.56.22-1.14.38-1.79.6-.52,1.75-.59,3.47.03,5.24.32.93-.27,1.57-1.2,1.36-1.15-.27-2.32-.58-3-1.81ZM301.34,114.91c1.22,1.14,2.44,1.52,3.87,1.09.87-.26,1.15-.98.76-1.82-.63-1.36-1.83-1.87-3.28-2.38-.49,1.13-.92,2.11-1.35,3.1Z"/>
    <path d="M309.13,127.73q1.96-.77,3.48-2.71c.84-1.08,1.67-2.17,2.48-3.28.65-.9,1.4-1.78.81-3.05-.1-.21.12-.79.32-.87.34-.13.89-.16,1.17.04.76.55,1.48,1.17,2.09,1.88.64.74.34,1.67-.61,1.67-1.64,0-1.86,1.15-2.51,2.36,1.85.28,3.38.19,4.49-1.22.6-.76,1.25-.8,2.03-.47.31.13.61.33.87.54.58.46,1.51.76,1.33,1.7-.19,1.01-1.15.81-1.88.93-1.68.29-3.35.6-4.98.9-.63,1.69-.41,3.25-.26,4.75.07.68.79,1.27,1.07,1.96.17.41.21.99.04,1.39-.08.2-.83.34-1.13.2-1.36-.63-2.91-1.02-3.83-2.41.15-.28.21-.57.39-.7.47-.35,1.09-.57,1.07-1.31-.02-.94,0-1.88-.13-2.8-.08-.55-1.06-.73-1.5-.28-.65.66-1.36,1.34-1.02,2.44.17.54.12,1.13-.46,1.28-.43.12-1.05.03-1.42-.22-.95-.65-2.1-1.25-1.93-2.7Z"/>
    <path d="M177.65,143.85c-1.88-.12-3.4-.79-4.57-2.19-.5-.59-.93-1.22-1.4-1.84-1.46-1.92-1.54-3.93-.38-6.01,1.25-2.24,3.05-3.68,5.72-3.75.5-.01,1.08.03,1.5.26,2.65,1.45,4.67,3.52,5.41,6.51.64,2.6-.63,5.03-3.09,6.11-1,.44-2.11.61-3.18.9ZM181.57,137.8c-.02-.15.02-.52-.1-.82-.76-1.89-2.01-3.39-3.79-4.37-.8-.44-1.65-.25-2.44.24-1.73,1.06-2.68,3.24-2.06,4.83,1.04,2.69,3.23,4.06,5.57,3.48,1.87-.46,2.81-1.51,2.83-3.35Z"/>
    <path d="M236.14,99.21c3.18-.3,4.05.27,5.07,2.68,1.07,2.52.86,5.06.18,7.58-.53,1.99-2.34,3.25-4.42,3.33-.51.02-1.03-.01-1.54-.04-2.62-.15-4.27-1.52-5.11-3.99-.57-1.68-.58-3.4-.26-5.09.43-2.28,2.73-4.21,5.11-4.46.51-.05,1.03,0,.97,0ZM239.41,106s-.03,0-.05,0c0-.51.04-1.03,0-1.54-.28-2.78-1.36-3.57-4.11-2.97-1.44.31-2.64,1.13-2.87,2.59-.2,1.31-.13,2.75.21,4.03.51,1.93,2.24,2.72,4.5,2.4,1.44-.21,2.1-1.14,2.26-3.22.03-.43.04-.85.07-1.28Z"/>
    <path d="M282.62,111.87c-1.75.85-.82,2.03-.61,3.16-.61.18-1.1.48-1.51.41-1-.19-1.99-.49-2.93-.88-.31-.13-.64-.65-.63-.99,0-.31.46-.86.72-.86,1.43-.03,2.06-1.03,2.78-2.01,1.52-2.07,3.11-4.09,4.67-6.13.21-.27.42-.55.68-.77.95-.83,2.29-.51,2.65.72.26.89.38,1.85.42,2.78.08,1.71.09,3.43.08,5.14,0,1.36-.23,2.71.87,3.87.43.45-.09,1.39-.7,1.3-1.25-.19-2.49-.51-3.68-.94-.52-.19-.55-.84-.15-1.31.16-.19.46-.26.61-.45.73-.93.52-1.77-.59-2.2-.87-.34-1.78-.57-2.66-.85ZM286.13,110.48c.11-.85.21-1.33.22-1.82.01-.47-.07-.95-.14-1.73-1.05.87-1.73,1.63-2.27,2.79.69.24,1.27.44,2.19.76Z"/>
    <path d="M331.15,132.83c-.13-1.17-1.3-1.96-.15-2.66.81-.49,1.42.23,1.99.76,1.31,1.23,2.69,2.4,3.93,3.71,1.51,1.59,1.24,3.2-.63,4.19-.3.16-.91.13-1.15-.08-.22-.19-.22-.75-.15-1.11.08-.38.37-.73.63-1.21-.96-.87-1.83-1.65-2.84-2.57-.86.78-1.59,1.45-2.5,2.28.87.95,1.61,1.75,2.34,2.56.41.46.79.96.34,1.59-.37.51-1.18.56-1.84,0-.84-.72-1.58-1.56-2.41-2.39-1.16.23-1.96.93-2.56,1.86,1.14,2.9,1.63,3.26,4.17,3.11.85.87.29,1.56-.35,2.18-.59.58-1.32.87-2.1.42-.51-.3-1.01-.67-1.39-1.12-1.26-1.51-2.5-3.05-3.67-4.64-.24-.33-.27-.97-.13-1.38.08-.22.76-.42,1.09-.33.79.21,1.32-.13,1.86-.58,1.84-1.53,3.69-3.05,5.52-4.57Z"/>
    <path d="M168.43,154.75c-2.2-1.76-4.38-3.51-6.72-5.39-.58.85-1.04,1.54-1.49,2.2.16.34.23.59.37.8.34.52.76,1.14.07,1.54-.43.25-1.18.22-1.66.02-1.63-.69-2.01-1.76-1.05-3.27,1.47-2.31,3.04-4.57,4.66-6.77,1.04-1.41,1.84-1.42,3.24-.32.2.16.41.32.59.5.43.44.85.9.52,1.57-.33.67-.92.76-1.52.49-1.05-.47-1.62-.09-1.95,1.08,1.6,2.32,4.23,3.56,6.32,5.62.59-.43,1.05-.77,1.52-1.09.46-.31,1.01-.44,1.37.05.22.3.41.91.25,1.15-.96,1.5-2,2.97-3.09,4.38-.17.22-.8.23-1.16.13-.23-.07-.46-.52-.47-.81-.02-.58.11-1.16.2-1.87Z"/>
    <path d="M190.69,132.44c.45-1.47-.15-2.63-.95-3.79-1.16-1.68-2.18-3.46-3.62-5.01-.63.21-1.17.49-1.74.55-.34.04-.81-.18-1.05-.45-.15-.16-.1-.76.08-.92,1.84-1.66,3.63-3.38,5.62-4.85,1.19-.88,2.53-.37,3.23.97.2.38.17,1,0,1.4-.11.23-.74.32-1.12.29-.4-.03-.78-.28-1.21-.45-.37.25-.74.47-1.07.74-.26.21-.45.5-.83.91.57.83,1.13,1.65,1.78,2.61.68-.39,1.26-.71,1.82-1.06.43-.27.82-.65,1.28-.84.25-.1.72-.01.91.18.19.19.3.67.19.91-.2.45-.54.87-.9,1.22-.55.53-1.16.99-1.9,1.6.57.89,1.1,1.72,1.64,2.56.82-.36,1.41-.7,2.05-.88.72-.2,1.52.71,1.11,1.24-1.24,1.58-2.42,3.34-4.78,3.37-.07,0-.15-.08-.54-.3Z"/>
    <path d="M345.04,149.32c-2.89.92-5.03,2.75-7.32,4.42.13.61.34,1.1.32,1.59-.02.36-.24.88-.53,1.03-.29.15-.95.08-1.14-.15-.87-1.05-1.67-2.17-2.42-3.31-.36-.54-.34-1.16.22-1.62.48-.39.95-.19,1.41.1.28.18.58.33.93.53,2.33-1.48,4.63-2.94,6.92-4.4-.7-1.98-.7-1.95-2.54-1.9-.36.01-.94-.18-1.03-.42-.11-.29.09-.85.35-1.09,1.51-1.4,2.7-1.47,3.96.05,1.58,1.91,2.99,3.97,4.35,6.04.68,1.03.31,1.98-.73,2.61-.78.48-1.67.07-1.56-.86.14-1.1-.27-1.79-1.2-2.61Z"/>
    <path d="M173.58,282.38c-.75-1.26,0-2.1.15-3.22-1.59.53-2.17,1.64-2.35,3.11-1.51-.28-2.07-1.25-2.64-2.46,2.75-.75,4.8-2.11,5.31-5.01,1.92.68,2.37,1.38,1.95,2.93-.18.66-.35,1.31-.52,1.97-.01.06.07.14.11.21,3.98-.66,4.58.09,5.28,2.3-.71-.03-1.34-.07-2.09-.1-1.27,1.23-2.88,2.27-3.53,4.28-1.28-.03-1.93-.72-2.27-1.93.93-.95,2.66-.7,3.03-2.43-.84.12-1.62.24-2.45.36Z"/>
    <path d="M199.29,114.6c-.47.03-.8.04-1.13.07-.56.06-1.1-.07-1.2-.67-.06-.35.1-.93.37-1.12,1.05-.72,2.15-1.38,3.29-1.95.28-.14.91,0,1.13.24.21.23.2.78.12,1.15-.09.39-.37.74-.57,1.12,1.29,2.49,2.55,4.91,3.78,7.27.85,0,1.52-.06,2.18.02.63.07.91.87.57,1.41-.05.07-.08.16-.14.21-1.41,1.12-2.92,1.97-4.71,2.08-.17-.27-.37-.47-.33-.55.72-1.39.2-2.62-.45-3.84-.92-1.74-1.85-3.47-2.9-5.44Z"/>
    <path d="M333.5,278.61c-.25-.56-.44-1.01-.65-1.44-.18-.38-.37-.74-.54-1.08.95-1.76,2.01.14,3.12-.33.1-1.38-.98-1.9-2.06-2.45.18-1.2.87-1.82,2.05-2.29.42,1.07.75,2.09,1.21,3.05.48,1,1.14,1.92,1.6,2.93.42.9-.12,1.55-1.09,1.39-.58-.1-1.13-.32-1.77-.51-.4,1.31,1.32,2.36.29,3.8-2.03-.55-3.69-1.99-5.71-2.6-.67.23-1.35.47-2.11.73-.1-.41-.28-.73-.19-.86.5-.75,1.07-1.47,1.62-2.2,1.58.46,2.46,1.94,4.23,1.87Z"/>
    <path d="M257.01,318.66c1.07-2.31,1.44-4.54-.34-6.67.97-1.2,1.95-.92,3.09-.19-.03.63-.07,1.28-.1,1.92.74.58,1.42.62,2.31-.04-.26-.64-.52-1.31-.79-1.98q1.19-1.15,3-.24c-.57,2.32-1.42,4.73.83,6.79-1.04.96-2.01,1.07-3.19.47v-2.53c-.89-.28-1.84-.73-2.2.43-.2.64.16,1.45.29,2.26-1.05.74-2,.77-2.9-.22Z"/>
    <path d="M284.52,311.41c.85.86,1.67,1.69,2.61,2.65-.22.25-.43.63-.75.82-1.43.84-1.73.7-2.3-.94-.27-.78-.26-.79-1.66-1.01.17.87.33,1.65.5,2.55-.87.6-1.73,1.27-3.03.36.33-.63.81-1.17.89-1.77.09-.64-.17-1.34-.34-2.01-.16-.66-.39-1.31-.6-1.99-.6-.14-1.15-.27-1.75-.41.11-.35.1-.66.26-.8,1.37-1.25,3.07-1.45,4.8-1.32,1.25.1,1.92,1.03,1.83,2.34-.03.41-.24.81-.47,1.54ZM281.54,309.35c0,.91.31,1.27,1.04.91.28-.14.45-.51.94-1.11-.96.1-1.47.15-1.98.2Z"/>
    <path d="M188.11,297.09c3.12.13,4.17-2.44,4.12-4.87,1.19-.4,1.98.27,2.49,1.15.19.33-.2,1-.34,1.61.81.22,1.61-1.34,2.64-.44.4.35.73.78,1.07,1.15-.72.96-1.56.61-2.28.7-1.44.17-1.82.47-1.8,1.93.01,1.17.28,2.34.44,3.52-1.34.41-2.54-.57-2.39-2.02.07-.65.17-1.29.26-1.96-1.57-.02-.99,1.54-1.93,2.07-1.31-.32-1.98-1.23-2.28-2.82Z"/>
    <path d="M181.75,292.72c.75-.27,1.2-.43,1.87-.66-.66-.51-1.18-.92-1.76-1.37-.46.49-.86.9-1.18,1.25-.78.13-1.15-.17-2.24-1.81,3.14-.58,5.38-3.14,8.75-3.65.04.66.19,1.16.07,1.59-.17.65-.52,1.27-.81,1.88-.76,1.6-1.75,3.12-1.42,5.16-1.65-.12-2.44-.99-3.28-2.39Z"/>
    <path d="M202.06,299.94c-.33-.56-.57-.99-.84-1.45.27-.22.49-.54.64-.51,1.82.35,3.68.64,5.04,2.15-.09.99-.2,1.89-1.36,2.42-.44-.7-.86-1.38-1.26-2.02-.28.07-.5.06-.59.17-.22.24-.38.54-.61.89.53.59,1.02,1.15,1.69,1.9-.52.21-.85.46-1.19.46-.41,0-.83-.36-1.21-.3-.33.06-.79.46-.82.76-.03.29.37.86.64.9.62.09,1.28-.07,2.02-.13.18,1.33-.66,1.75-1.47,2.34-1.81-.63-3.24-1.65-4.24-3.62,2.06-.58,2.85-2.15,3.56-3.96Z"/>
    <path d="M312.39,292.98c.7-1.36,1.93-2.3,3.66-2.49,1.7-.19,2.47.58,2.49,2.34,0,.25-.04.51-.05.71.59,1.24,1.71,1.3,2.88,1.31.29,1.36-.58,1.66-1.33,1.96-1.22-.15-1.58-1.8-2.96-1.37-.35,1.33.92,1.46,1.49,2.18-.23.95-.87,1.3-1.68,1.25-1.52-2-2.95-3.87-4.49-5.89ZM316.77,292.3c-.84-.2-1.6-.36-1.83.7-.05.21.32.71.54.75,1.03.15,1.2-.56,1.28-1.45Z"/>
    <path d="M272.05,315.35c.08.34.1.6.2.82.06.14.25.22.46.39.46-.4.94-.81,1.66-1.44.21.81.52,1.38.42,1.87-.08.39-.62.83-1.04.96-1.37.44-2.76.99-4.39.19.45-1.19,1.35-2.25.86-3.69-.43-1.28-.56-2.66-1.99-3.35,1.54-1.24,3.5-1.69,5.85-1.44q.53,1.12.37,2.3c-.85.58-1.15-.49-1.78-.58-.57-.08-1.11.04-1.15.67-.02.33.26.86.55.99.65.3,1.39.4,2.05.57-.08,1.52-1.4.98-2.06,1.74Z"/>
    <path d="M308.86,298.68c-.62-.16-.93-.22-1.23-.31-1.43-.4-2.82.78-2.51,2.13.36,1.59,2.31,2.98,3.9,2.66.82-.16,1.41-.65.88-1.75-.76.03-1.52.07-2.53.11.55-1.56,1.6-1.96,2.97-2.34.42.64.95,1.21,1.21,1.89.68,1.79-.26,3.28-2.15,3.55-2.77.39-5.26-1.25-5.84-3.85-.42-1.92,1.7-4.52,3.63-4.43.76.03,1.19.57,1.67,2.34Z"/>
    <path d="M228.86,314.79c-.37-1.1-1.63-1.08-1.24-1.97.41-.94,1.3-.58,2.04-.41.64.14,1.26.34,2.11.58-.66,1.03-1.13,1.92-1.74,2.7-1.5,1.94-4.17,1.62-5.23-.63-.74-1.57-.72-3.17.04-4.72.98-2.02,3.38-2.58,5.21-1.26.91.66.91,1.24-.09,2.63-.25-.38-.42-.74-.68-1.03-1.15-1.3-2.66-1.04-3.1.63-.23.87-.15,1.87,0,2.77.06.4.59.91.99,1.01.47.11,1.04-.17,1.68-.31Z"/>
    <path d="M329.54,288c-.12,1.17-.47,2.43-1.68,3.12-1.05.6-2.2.31-3.16-.3-.85-.55-1.66-1.21-2.34-1.96-1.22-1.36-1.11-3.26.15-4.63,1.28-1.4,2.64-1.52,4.32-.47,1.54.96,2.57,2.21,2.7,4.24ZM324.8,284.62c-2.09,1.35-2.26,2.34-.7,3.8.37.35.77.73,1.23.93.52.22,1.31.54,1.63.31.47-.33.8-1.08.89-1.7.14-.9-.35-1.67-1.11-2.18-.64-.42-1.31-.79-1.94-1.16Z"/>
    <path d="M234.34,316.86c1.92-.6,2.55-1.9,3-3.44.26-.87.81-1.69,1.37-2.42.47-.61,1.39-.47,1.68.26.38.94.66,1.95.84,2.95.25,1.36.51,2.69,1.92,3.58-1.36,1.27-2.65.46-4.15.62.24-.94.39-1.54.55-2.14q-1.33-.08-2.05,1.62c-1.01.16-2.09.52-3.16-1.02ZM239.4,313.32c-.12,0-.23,0-.35.01v1.16c.14-.04.41-.08.41-.13,0-.35-.04-.7-.06-1.05Z"/>
    <path d="M249.88,312.88c0,2.33-.78,4.43,1.51,5.97-1.32,1.03-2.49.75-3.9.36.7-2.04.95-4.01.41-6.26-.54.49-.94.84-1.35,1.21-.94-.5-.92-1.23-.67-2,.21-.65.7-1,1.36-.99,1.54.04,3.09.04,4.6.27,1.23.18,1.25.41.85,2.24-.46-.22-.86-.46-1.29-.59-.38-.12-.8-.11-1.53-.2Z"/>
    <path d="M296.15,306.94c-.03.91-.38,1.34-1.09,1.36-.61.02-.98-.38-.93-.95.05-.69.55-1.08,1.22-1,.32.04.6.43.8.59Z"/>
    <path d="M215.64,308.65c-.61.18-1.04.45-1.27.33-.28-.15-.39-.62-.57-.96.34-.16.72-.49,1.01-.42.27.06.45.54.83,1.05Z"/>
    <path class="cls-8" d="M232.49,247.21c-4.01.67-7.8,1.31-11.65,1.95-1.26-1.47-1.4-3.34-2.1-4.96-.71-1.65-1.49-3.31-1.93-5.04-.44-1.73-.5-3.56-.74-5.46-.57-.72-1.51-.87-2.44-.97-1.79-.2-3.58-.4-5.38-.51-3.66-.23-7.11-1.08-10.18-3.2-1.05-.72-2.16-1.34-3.54-2.2,2.67-.12,4.5-1.27,6.07-2.91,1.05-1.1,1.61-2.43,1.67-3.94.04-1.15-.76-1.7-1.62-1-1.75,1.43-3.68,1.67-5.81,1.42-.65-.08-1.37.1-2,.34-1.63.62-1.9,1.24-1.44,2.96.09.33.2.66.29.99.66,2.33.22,4.39-1.41,6.22-3.08,3.46-6.07,7.01-9.19,10.44-2.86,3.15-3,6.79-.23,10.09.31.38.59.85.7,1.32.86,3.5,1.69,7.01,2.51,10.52.07.31,0,.66,0,1.36-.57-.57-.96-.86-1.23-1.24-3.31-4.6-6.62-9.19-9.05-14.36-1.69-3.59-3.18-7.23-4.15-11.07-1.2-4.74-2.44-9.48-3.44-14.27-.56-2.68-.7-5.44-.98-8.17-.17-1.62-.2-3.26-.38-4.87-.16-1.48.41-2.48,1.72-3.13,1-.49,1.98-1.03,2.99-1.49,1.24-.56,2.09-1.46,2.63-2.7.67-1.56.43-2.07-1.23-2.56-.24-.07-.47-.15-.82-.26.23-.95,1.06-1.34,1.6-1.96.67-.77,1.38-1.53,1.89-2.4.45-.78-.11-1.6-1.02-1.59-.67,0-1.34.17-2.28.3.34-.68.54-1.29.91-1.78,1.23-1.65,1.87-3.43,1.71-5.52-.07-.9-.08-1.89.88-2.69.7.9.53,1.88.38,2.73-.37,2.15-.21,4.09,1.44,5.73.33.33.4.92.63,1.47-.21.27-.37.58-.62.78-.76.61-.83,1.33-.24,2.01.78.91,1.58,1.83,2.51,2.56,1.17.91,2.47.62,3.36-.61,1.02-1.42,1.35-2.96.43-4.65.46-.65.97-1.22,1.33-1.89.9-1.65.12-2.86-1.8-2.84-.4,0-.8.09-1.36.17.22-1.39.94-2.18,1.72-2.98.66-.67,1.33-1.35,1.83-2.14.68-1.09.32-1.77-.93-1.99-.41-.07-.84-.05-1.36-.08.74-1.16,1.54-2.15,2.03-3.27.5-1.13-.07-2.53.65-4.02,1.63,2.34,1.5,5.54,4.44,6.49-.09.22-.09.33-.14.36-2.06,1.26-2.15,2.05-.32,3.5.6.48,1.28.85,2.09,1.38-.76.54-1.54.2-2.22.34-1.83.39-2.48,1.63-1.48,3.2.78,1.22,1.77,2.31,2.78,3.62.05.62-.68,1.4-.07,2.24.5.69.86,1.47,1.36,2.34-.98.82-1.24,1.82-.75,2.99.47,1.1,1.25,1.86,2.38,2.19,1.3.38,2.16-.07,2.39-1.21.26-1.31.84-2.39,2.07-3.1.41-.24.68-.76.92-1.21.73-1.33.45-1.92-1.07-2.42-.31-.1-.63-.19-1.08-.33.2-.29.28-.54.46-.64,1.85-1.07,3.28-2.45,3.87-4.6.16-.58.7-1.05,1.22-1.77.93,1.36.38,2.61.61,3.73.26,1.24.87,2.21,1.99,2.9-2.78,1.66-2.8,2.08-.41,6.09-.55.33-1.11.66-1.67.98.05.36,0,.66.13.85,1,1.47,2.2,2.82,2.84,4.7-.84.23-1.55.42-2.25.62-.46,1.19-.43,2.27.15,3.3.54.97,1.08,1.96,1.76,2.84,1.23,1.57,2.95,1.4,3.97-.31.09-.15.21-.3.22-.46.17-2.19,1.62-3.73,2.76-5.42.29-.43.56-.87.79-1.33,1.01-2.01.86-2.59-1.08-4.17.43-1.14,1.42-2.07,1.29-3.5-.14-1.52-1.45-1.74-2.57-2.51,2.2-2.21,2.27-5.19,3.28-7.82.82-.04.68.69.9,1.04.91,1.45,1.73,2.96,2.62,4.43,1.02,1.69.91,2.1-.85,2.9-.3.14-.6.28-.96.45-.14,2.54,2.22,3.81,2.97,5.98-.75.48-1.45.93-2.1,1.35-.26,2.13,1.91,2.57,2.54,3.89-.17.96-.92,1.04-1.5,1.37-.95.54-.94,1.38-.03,2.01.35.24.75.41,1.15.56.39.15.8.25,1.28.39,0,.65.03,1.22-.01,1.79-.03.42-.22.83-.25,1.26-.08,1.2.73,1.81,1.8,1.34,1.51-.66,2.53-1.76,2.74-3.46.1-.83.13-1.67.36-2.53.64,1.49,1.34,2.9,1.62,4.52.37,2.18,2.59,2.84,4.18,1.23,1.31-1.33,2.05-3.01,1.73-4.92-.12-.7-.64-1.36-1.09-1.95-.28-.37-.76-.6-1.22-.94.73-.7,1.43-1.22,1.94-1.89.45-.59.85-1.32.96-2.04.23-1.54-1-2.4-2.45-1.8-.77.32-1.5.73-2.68,1.31.3-.93.33-1.57.67-1.92.82-.86,1.72-1.69,2.71-2.35,2.11-1.42,3.27-3.49,4.12-5.77.56-1.49-.1-2.39-1.65-2.35-.58.02-1.15.18-2.09.33.43-.54.63-.89.91-1.12,1.49-1.21,1.85-2.8,1.68-4.62-.11-1.11-.15-2.23-.11-3.34.02-.45.33-.9.59-1.55.54.42,1,.65,1.28,1.02.31.4.49.9.67,1.38.58,1.52,1.09,3.07,1.73,4.57.6,1.4,1.34,2.74,2.08,4.23-.7.34-1.3.62-1.96.94.04,1.53.36,3.03,1.31,4.09.94,1.04,2.28,1.72,3.64,2.69-.9.69-1.75,1.33-2.68,2.04.3.67.57,1.27.85,1.87-.16.08-.31.23-.44.21-.5-.09-.99-.29-1.49-.36-.71-.09-1.15.51-.86,1.16.17.39.38.78.65,1.11,1.17,1.37,2.34,2.75,3.57,4.05.46.49,1.07.87,1.67,1.18,1.15.59,1.86.31,2.56-.82.54-.86,1.04-1.78,1.74-2.5,1.22-1.27,1.83-2.51.51-3.99.53-.89,1.26-1.65,1.39-2.49.11-.69-.49-1.5-.85-2.45.29-.38.84-.94,1.19-1.6.35-.67.64-1.42.73-2.17.15-1.3-.67-2.13-1.98-2.14-.73,0-1.47.11-2.7.21.89-.98,1.48-1.57,2-2.22.91-1.13,1.94-2.21,2.64-3.47.94-1.7.09-2.83-1.86-2.73-.85.05-1.69.14-2.99.25.61-.63.88-1.01,1.24-1.26,1.72-1.21,2.61-2.89,3.04-4.91.24-1.14.3-2.39,1.43-3.32.35.28.75.47.97.79.28.41.47.91.61,1.4.92,3.2,1.39,6.62,4.75,8.6l-.35.41c-.72.12-1.45.2-2.15.36-1.3.29-1.68,1.09-1.03,2.29.9,1.65,1.88,3.26,2.91,5.03-.39.38-.73.72-1.08,1.06-.5.49-.52,1.06-.28,1.66.19.48.4.96.68,1.39,1.02,1.52,1.63,3.14,1.88,4.99.32,2.29,1.49,3.39,3.38,3.7,1.92.32,3.3-1.03,2.7-2.88-.34-1.05-.22-2.01-.27-3.03-.03-.75.23-1.27.7-1.84,1.45-1.79,1.41-1.87-.46-3.58.38-.43.71-.93,1.16-1.28,1.48-1.15,1.73-2.68,1.44-4.39-.19-1.16-.62-2.31-.02-3.52,1.89,2.05,4.13,7.12,4.82,10.94-.55.1-1.11.21-1.67.29-1.96.28-2.52,1.16-1.78,3.01.65,1.61,1.67,2.99,2.98,4.15.77.68,1.52,1.36,2.31,2.07-.13.68-.27,1.26-.36,1.84-.49,3.11,1.19,5.85,4.18,6.83.32.1.68.2,1,.17,2.75-.3,5.7-3.89,4.13-6.63-.21-.37-.43-.74-.73-1.23.32-.9,1.54-1.62.94-2.9-.55-1.17-1.75-1.27-2.85-1.74.26-1.02,1.01-1.6,1.59-2.29.83-.98,1.77-1.89,2.47-2.96,1.03-1.58.31-3.09-1.52-3.46-.57-.12-1.15-.17-1.96-.28.23-.59.27-1.19.58-1.44,2.22-1.8,3.07-4.28,3.59-6.94.13-.65.14-1.38,1.1-1.72.2.33.52.64.58,1,.17.93.35,1.88.29,2.81-.16,2.59.33,4.96,2.28,7.1-.44.27-.75.46-1.07.64-.71.41-.94,1.07-.61,1.76.4.84.94,1.62,1.49,2.37.4.55.97.98,1.37,1.53.73,1.01.63,1.55-.31,2.43-.54.51-1.09,1.01-1.72,1.59,1.24,1.89,2.37,3.59,3.49,5.3.28.43.58.85.81,1.31.4.81.38.9-.05,2.45-1.24.26-2.43-1.01-3.86-.07.03.39-.08.94.12,1.33.72,1.35,1.39,2.79,2.38,3.94,1.38,1.59,2.91,1.46,4.33-.15.54-.61,1.04-1.16,1.92-1.06,1.26.14,2.04-.63,2.32-1.64.5-1.8.79-3.67,1.08-5.52.11-.71-.28-1.33-.91-1.73-.5-.31-1.02-.59-1.7-.99.4-.53.72-1,1.07-1.44,1.27-1.61,1.14-2.08-.81-2.91-.07-.03-.12-.1-.23-.19.66-.87,1.41-1.69,1.98-2.62.71-1.18.35-1.82-1.05-2.15-.31-.07-.64-.1-1.13-.17.68-1.25,1.78-1.79,2.68-2.54.7-.59,1.79-1.02,1.53-2.16-.27-1.15-1.42-1.05-2.33-1.22-.16-.03-.32-.11-.66-.23.52-1.04,1.75-1.34,2.3-2.23.56-.91.97-1.93,1.53-3.09,1.37,1.36,2,2.95,2.89,4.31-.13.23-.17.43-.29.51-.66.39-1.43.7-1.41,1.66.02.91.37,1.75,1.16,2.18,1.21.64,1.44,1.58,1.15,2.84-.17.13-.36.31-.58.42-1.64.82-1.88,1.51-.99,2.92,1.04,1.65,2.6,2.16,4.45,1.31.92-.42,1.74-1.07,2.61-1.61.17.01.36-.02.5.05,1.02.49,2.03.99,3.16.27,1.35-.86,2.31-2.05,2.86-3.53.12-.34-.04-.86-.22-1.21-.23-.43-.62-.77-.97-1.18.64-.93,1.81-1.45,1.59-2.86-.06-.38.67-.9,1.06-1.34.54-.6.98-1.24.61-2.08-.33-.74-1.01-.84-1.73-.85-.56-.01-1.11-.05-2.3-.11,1.01-.6,1.48-.91,1.97-1.17,1.58-.85,2.64-2.18,3.4-3.75.7-1.45.18-2.23-1.48-2.32-.4-.02-.81,0-1.43-.37.23-.12.45-.24.68-.35,1.65-.8,2.41-2.06,2.24-3.94-.04-.49.3-1.02.6-1.96.64,1.62,1,2.82,1.58,3.91.58,1.1,2.08,1.48,2.59,3-1.17.23-2.2.44-3.38.68.1,2.64,3.18,3.17,3.65,5.62-.77.25-1.57.43-2.31.76-1.07.47-1.28,1.33-.41,2.2.51.5.66.9.52,1.55-.08.41-.19,1.03.02,1.25,1.28,1.27,1.47,2.99,2.05,4.55.13.36.54.72.9.88,1.54.67,3.1.94,4.54-.1.32-1.19-.59-1.84-.9-2.75.1-.19.19-.43.33-.63,1.34-1.94,1.33-2.03-.82-3.29,1.95-1.16,2.43-2.99,2.46-5.05.02-1.03.16-2.05.29-3.07.07-.56.23-1.12.38-1.78,1.29,1.23,2.12,3.65,2.81,8.01-.36.11-.74.22-1.12.33-1.68.48-2.26,1.87-1.32,3.32.32.49.83.85,1.25,1.29.51.54,1.02,1.1,1.44,1.57-.13.38-.13.6-.24.69-1.78,1.41-1.77,1.86-.05,3.22,1.41,1.11,2.81,2.25,4.12,3.47.38.35.62,1.05.61,1.58-.21,8.51-.86,16.99-3.21,25.21-.99,3.45-2.38,6.81-3.85,10.09-2.95,6.59-6.26,12.99-10.56,18.84-.2.27-.41.52-.87,1.11.36-3.27,1.25-6,1.99-8.75.09-.32.26-.68.51-.88,2.12-1.72,1.91-4.28,2.34-6.58.22-1.15-.4-2.2-1.21-3.01-.84-.85-1.76-1.63-2.69-2.39-3.42-2.81-5.73-6.33-6.76-10.64-.12-.52.04-1.1.07-1.69,5.47,1.19,6.37.91,7.87-2.45-.33-.2-.66-.46-1.04-.59-1.24-.46-2.33-1.12-3.07-2.23-.96-1.45-2.37-1.54-3.88-1.31-.94.14-1.57.65-1.81,1.59-.09.33-.24.66-.27.99-.24,2.43-1.87,3.67-3.99,4.13-3.76.82-7.57,1.44-11.37,2.07-1.44.24-2.9.31-4.35.44-1.5.13-2.64.86-3.24,2.21-.69,1.56-1.24,3.18-1.81,4.8-.31.88-.39,1.86-.78,2.69-1.18,2.46-2.47,4.88-3.74,7.37-2-.43-3.82-.83-5.64-1.2-1.76-.35-3.54-.65-5.35-.99-.12-.38-.28-.69-.31-1.01-.28-2.9-.53-5.81-.83-8.71-.07-.71-.06-1.31.34-1.95,1.14-1.82.77-3.81.4-5.75-.2-1.03-1.1-1.47-2.02-1.8-2.58-.93-5.14-1.91-7.74-2.8-1.42-.49-2.66-1.21-3.69-2.27-2.06-2.14-4.07-4.33-6.27-6.68,3.69.2,6.61-1.04,9.07-3.98-2.04-.75-3.66-1.45-5.35-1.92-.88-.25-1.88-.2-2.81-.11-1.51.15-2.16.69-2.39,2.21-.51,3.48-2.44,5.9-5.21,7.92-3.41,2.49-6.99,4.66-10.66,6.72-3.67,2.06-5.01,4.65-4.21,8.72.68,3.44.27,6.8-.28,10.57Z"/>
    <path class="cls-1" d="M341.02,205.62c-1.32-1.17-2.26-2-3.22-2.85.14-.28.21-.53.36-.71,1-1.16.63-2.23-.23-3.23-.44-.52-.99-.95-1.47-1.44-.34-.34-.64-.71-.97-1.08.23-.18.3-.28.36-.28,2.53-.02,3.06-.54,2.48-2.98-.59-2.5-1.41-4.95-2.19-7.4-.18-.56-.51-1.1-.89-1.56-.9-1.09-2.35-1-2.97.26-.41.82-.6,1.79-.74,2.71-.21,1.44-.36,2.9-.42,4.35-.05,1.12-.51,1.89-1.36,2.62-1.93,1.62-1.92,1.89-.57,4.01q-.95,1.46-.13,3.1c-1.04-.3-1.38-.92-1.32-1.73.1-1.34-.52-2.3-1.55-3.09.24-.71.54-1.33.66-1.99.1-.53.25-.86.73-1.22,1.23-.93,1.37-1.49.71-2.83-.52-1.06-1.25-2.02-1.96-3.12.44-.26.89-.47,1.29-.77,1.01-.76,1.2-1.63.45-2.66-.5-.68-1.15-1.28-1.82-1.8-1-.79-1.67-1.7-1.72-3.02-.02-.42-.15-.85-.3-1.25-.29-.76-.78-1.38-1.63-1.49-.93-.12-1.77.27-2.18,1.07-.38.74-.7,1.62-.66,2.43.06,1.52-.6,2.38-1.87,3.05-.67.35-1.29.87-1.8,1.43-.85.96-.46,2.04.79,2.31.41.09.85.06,1.28.09.34.02.67.05,1.21.09-.31,1.39-1.25,2.03-2.27,2.66-1.15.7-2.26,1.47-3.7,2.42-.66-.1-1.42-.8-2.19-1.46-.72-.61-1.35-1.39-2.16-1.82-2.9-1.5-4.1-4.21-5.34-7.09,1.89-1.42,3.95-2.43,6.03-3.43,3.95-1.88,7.9-3.78,11.82-5.72,1.07-.53,2.09-1.19,3.08-1.87.37-.25.57-.74.84-1.11-.79-.76-1.4-.31-2,0-1.76.9-3.48,1.87-5.26,2.73-3.33,1.6-6.69,3.12-10.02,4.72-1.77.86-3.5,1.82-5.43,2.83-1.16-1.64-2.28-3.34-3.51-4.95-1.24-1.63-2.6-3.17-3.93-4.79,1.35-2.03,3.14-3.51,4.78-5.13,1.95-1.93,3.83-3.94,5.73-5.92.24-.25.45-.52.64-.8.29-.42.67-.89.19-1.36-.47-.45-.95-.15-1.36.21-.19.17-.36.37-.54.55-3.43,3.48-6.86,6.97-10.3,10.45-.18.18-.41.3-.76.56-3.67-2.36-6.46-5.76-9.94-8.52.19-.62.29-1.2.53-1.72,1.5-3.37,3.18-6.65,5.03-9.86,1.58-2.74,2.83-5.68,4.22-8.53.15-.3.27-.65.29-.98.01-.22-.13-.61-.27-.65-.29-.07-.68-.05-.93.1-.27.17-.47.5-.62.8-2.95,5.72-5.88,11.44-8.82,17.17-.38.75-.76,1.5-1.19,2.36-2.05-1.13-3.86-2.26-5.78-3.16-1.93-.9-3.97-1.57-6.12-2.41.13-4.61,2.54-8.83,2.51-13.87-.67.42-1.13.55-1.25.82-.31.7-.48,1.46-.68,2.21-.75,2.91-1.47,5.82-2.22,8.73-.1.4-.31.78-.52,1.31-.62-.09-1.19-.18-1.75-.26-3.31-.47-6.6-1.18-9.98-.74-.48.06-.99-.09-1.55-.15-.09-.42-.23-.74-.22-1.06.06-4.12.14-8.24.2-12.36.02-1.29-.09-2.57-.07-3.86.04-2.32.12-4.63.19-6.95.02-.63,0-1.22-.88-1.52-.21.28-.59.58-.65.93-.2,1.27-.39,2.55-.41,3.83-.1,6.27-.13,12.54-.2,18.81,0,.68-.07,1.35-.12,2.18-2.25.26-4.43.57-6.62.76-2.11.18-4.08,1.31-6.42.96-.4-1.64-.74-3.21-1.16-4.75-.43-1.57-.87-3.15-1.45-4.67-.55-1.43-.35-3.24-1.82-4.27-.95.47-.78,1.17-.6,1.83.58,2.16,1.2,4.3,1.76,6.46.51,1.98.95,3.98,1.46,6.16-3.79,2.21-8.01,2.91-11.74,4.97-.44-.6-.84-1.04-1.12-1.55-1.68-3.09-3.33-6.2-4.99-9.3-1.46-2.72-2.92-5.45-4.38-8.17-.16-.3-.32-.61-.5-.9-.29-.45-.65-.89-1.24-.63-.63.28-.49.84-.26,1.32.64,1.31,1.29,2.62,1.98,3.91,2.78,5.23,5.57,10.45,8.36,15.68.08.14.08.33.11.46-3.6,2.62-7.2,5.24-10.91,7.94-1.2-.36-1.99-1.41-2.89-2.29-2.39-2.35-4.74-4.73-7.11-7.1-.24-.24-.46-.57-.76-.68-.35-.13-.77-.07-1.16-.09,0,.39-.16.88.02,1.14.42.64.98,1.19,1.52,1.73,2.9,2.92,5.82,5.83,8.71,8.72-.59,1.27-5.98,7.71-8.33,9.93-.61-.28-1.31-.56-1.98-.9-3.39-1.66-6.79-3.3-10.14-5.03-2.29-1.18-4.51-2.48-6.76-3.72-.58-.32-1.13-.83-2.08-.37.07.34.05.79.26,1.06.31.39.75.72,1.19.96,2.71,1.47,5.43,2.93,8.16,4.35,3.19,1.67,6.42,3.27,9.6,4.96,1.05.56,1.23,1.67.51,2.59-.26.33-.66.55-.97.84-1.83,1.69-3.71,3.32-5.46,5.09-1.67,1.69-3.59,2.87-5.77,3.67-.91-.42-1.47-.96-1.52-2.14.68.05,1.24.13,1.8.13,1.11,0,2.02-.68,2.32-1.68.28-.95-.04-1.71-1.07-2.37-.56-.36-1.16-.67-1.76-1.01,1.76-2.45,1.73-2.81-.67-4.46-.83-.57-1.32-1.32-1.67-2.21-.41-1.04-.81-2.08-1.28-3.09-.25-.54-.58-1.07-.98-1.5-.83-.89-2.03-.67-2.41.56-.38,1.21-.56,2.51-.64,3.78-.08,1.27-.44,2.23-1.45,3.12-1.85,1.61-1.56,2.76.98,4.08-.53.58-1.07,1.09-1.52,1.66-.86,1.08-1.68,2.2-1.73,3.66-.04,1.19.52,1.76,1.71,1.71.56-.02,1.12-.15,1.91-.27-.3.43-.4.67-.58.84-1.5,1.41-1.52,1.41-.7,3.32.49,1.14.03,1.94-.92,2.83-.7-.59-1.33-1.12-2.08-1.75,1.43-2.03.74-3.8-.59-5.41-.84-1.02-1.03-2.09-.83-3.36.15-.92.18-1.89.09-2.82-.06-.66-.29-1.36-.65-1.91-.73-1.12-1.93-1.16-2.82-.17-.9,1.01-1.34,2.26-1.22,3.57.2,2.11-.53,3.86-1.75,5.49-.36.48-.67,1-.92,1.55-.56,1.22-.34,1.79.93,2.47.28.15.59.23,1.07.42-.64.69-1.18,1.22-1.65,1.81-.42.53-.83,1.1-1.1,1.72-.36.83-.03,1.51.86,1.83.47.17,1,.19,1.51.28-.62,1.52-1.65,2.15-5.28,3.19-.13-1.82-.18-3.6.05-5.37.72-5.48,2.18-10.78,4.1-15.93,1.98-5.31,4.07-10.58,6.3-15.79,2.04-4.77,4.96-9.04,8.3-12.98,4.56-5.37,9.62-10.27,14.71-15.14,3.02-2.89,6.53-5.01,10.08-7.09,6.94-4.07,14.42-6.85,22.15-8.93,6.3-1.69,12.73-2.75,19.27-3.2,2.74-.19,5.46-.61,8.21-.4,1.96.15,3.93.27,5.87.57,2.88.45,5.75,1,8.6,1.62,1.76.38,3.48.94,5.19,1.49,8.8,2.83,17.07,6.77,24.76,11.91,2.21,1.48,4.43,2.94,6.68,4.37,4.72,3,8.32,7.19,11.85,11.38,4.76,5.67,8.72,11.92,12.05,18.53,1.19,2.36,2.07,4.89,2.93,7.41,1.06,3.08,2.01,6.21,2.88,9.35.52,1.9.87,3.85,1.16,5.8.58,3.81.92,7.65.95,12.11Z"/>
    <path class="cls-3" d="M226.92,217.15c-.57-1.51-1.13-3.02-1.7-4.52-.21-.56-.36-1.16-.67-1.66-.77-1.22-2.2-1.17-2.87.12-.3.59-.39,1.3-.48,1.97-.11.82-.12,1.65-.58,2.5-.12-.68-.11-1.43-.4-2.02-.28-.58-.87-1.02-1.26-1.44.12-1.05.52-2.12.27-3-.23-.8-1.16-1.39-1.83-2.12.01-.07-.02-.3.07-.36,2.12-1.5,2.19-1.77.8-3.83-.62-.92-1.28-1.8-2.19-3.07.54-.37,1.12-.62,1.51-1.05,1.17-1.29,1.22-2.22.31-3.72-.67-1.1-1.31-2.22-2.04-3.27-.92-1.34-1.24-2.79-1.15-4.39.03-.54-.19-1.09-.34-1.89-.65.37-1.13.53-1.46.85-1.21,1.15-2.01,2.57-2.41,4.19-.56,2.26-1.14,4.46-2.74,6.3-.87,1-.54,1.84.63,2.52.44.25.92.43,1.29.6.59,1.09-.06,1.74-.59,2.4-2.02,2.53-1.97,2.72,1.16,3.63.04,1.28-.78,2.23-1.51,3.1-1.07,1.28-1.95,2.58-2.19,4.28-.06.43-.49.81-.83,1.34-1.23-1.12-2.05-2.24-2.29-3.9.51-.2.99-.34,1.42-.58,1.16-.63,1.46-1.36.9-2.55-.55-1.16-1.25-2.24-1.97-3.5.16-.21.32-.49.55-.67.64-.51.77-1.13.41-1.82-.55-1.06-1.14-2.09-1.74-3.2.24-.13.44-.32.65-.34.61-.05,1.23-.03,1.52-.71.33-.77.26-1.52-.18-2.21-.18-.28-.44-.55-.72-.72-1.1-.67-1.35-1.7-1.3-2.88.03-.6.06-1.21-.02-1.8-.14-1.11-.91-1.89-1.98-2.1-1-.2-1.65.35-2.14,1.1-.42.65-.84,1.32-1.09,2.04-.5,1.48-1.47,2.49-2.8,3.22-.23.12-.45.25-.68.37-.81.42-1.44.95-1.37,1.97.07,1.05.84,1.4,1.7,1.68.22.07.41.27.58.38-.98,1.39-1.93,2.73-2.97,4.19-.71-.2-1.37-.7-.71-1.54.85-1.09.68-1.99.13-3.08-.25-.48-.29-1.11-.29-1.66,0-.9.11-1.79.19-3.02,3.73-1.39,6.02-5.03,9.21-7.59,2-1.61,4.1-2.77,6.7-2.96,2.48-.19,4.54-1.4,6.61-2.66,6.18-3.74,12.53-7.17,19.5-9.2,2.29-.67,4.7-.95,7.07-1.29,1.87-.27,3.56.24,4.99,1.56,2.93,2.71,6.19,2.71,9.5.88,2.98-1.65,6.26-2.33,9.46-3.26,1.26-.37,2.34-.19,3.18.98,1.1,1.55,2.79,1.91,4.54,1.88,4.82-.07,9.2,1.11,13.52,3.44,4.85,2.61,9.48,5.53,14.17,8.38.66.4,1.37.78,1.88,1.34,2.52,2.74,5.71,4.66,8.48,7.1.57.51,1.24.91,1.87,1.35,1.09.76,2.22,1.21,3.6.72.52-.18,1.16-.03,2.4-.03-1.22.71-1.92,1.11-2.62,1.53-.66.4-1.08.92-.58,1.69.38.6-.03.91-.29,1.35-.86,1.46-.8,1.57.74,2.56.2.13.38.31.62.51-.39,1.04-.98,1.81-1.9,2.18-1.13-.19-1.18-.96-1.34-1.75-.07-.32-.51-.78-.8-.79-.31-.01-.83.36-.93.67-.4,1.22-1.14,2.14-2.22,2.73-.92.5-1.93.8-2.82-.54.83-.32,1.58-.61,2.37-.91,0-.48.04-.9-.01-1.3-.04-.33-.19-.65-.29-.99.44-.54.86-1.05,1.35-1.65-.31-.32-.49-.66-.76-.76-.94-.35-1.9-.62-3.27-1.04,1.09-.83,1.84-1.4,2.65-2.01-.18-.44-.27-.78-.45-1.05-1.13-1.72-2.28-3.43-3.44-5.13-.14-.21-.36-.37-.56-.53-1.6-1.28-2.7-.96-3.04,1.04-.3,1.74-1.05,3.04-2.57,3.93-.36.21-.71.5-.98.82-.84.99-.64,2.09.52,2.79.34.2.75.29,1.35.5-.77.73-1.4,1.28-1.98,1.88-.54.55-1.12,1.08-1.55,1.71-.81,1.2-.4,2.05,1.08,2.36.32.07.66.04,1.3.07-.51.6-.84,1.04-1.23,1.43-.48.48-1.07.87-1.51,1.39-.7.81-.47,1.57.58,2,.39.16.83.17,1.32.26-.14.26-.22.49-.36.68-1.42,2.02-1.29,2.5.96,3.65.3.15.58.33.89.5.38,1.63-.22,3.11-.52,4.6-.07.34-.54.87-.83.86-1.89-.02-2.92,1.24-3.92,2.5q-1.54-.67-2.62-2.62c.55-.03,1-.03,1.43-.09,1.43-.22,2.09-.95,2.22-2.39.13-1.36-.36-2.52-1.08-3.63-.98-1.51-1.94-3.02-2.94-4.58.27-.31.49-.56.71-.81,1.48-1.62,1.59-2.82.3-4.54-.61-.82-1.36-1.53-2.17-2.43.31-.24.55-.42.78-.61,1.05-.82,1.21-1.28.73-2.37-.17-.39-.39-.78-.67-1.09-1.31-1.43-1.59-3.13-1.61-5.01-.02-1.53-.31-3.07-.66-4.56-.34-1.43-1.2-2.09-2.28-2.02-1.18.07-1.86.82-2.21,1.87-.24.73-.36,1.5-.56,2.25-.51,1.93-1.1,3.8-2.81,5.07-.33.25-.61.62-.83.98-1.06,1.7-.41,3.23,1.55,3.67.57.13,1.15.2,1.74.3.14,1.14-.68,1.62-1.2,2.26-.93,1.12-1.91,2.21-2.83,3.34-.32.39-.6.84-.81,1.31-.56,1.24-.03,2.06,1.3,2.04.65,0,1.29-.07,2.11-.12-.16,1.57-1.93,1.46-2.09,2.95.26.23.65.63,1.11.94,1.37.93,1.6,1.83.72,3.21-.57.89-1.28,1.6-2.51,1.74-.49-.41-.99-.87-1.54-1.26-1.74-1.22-2.29-2.05-1.63-3.8.76-2.01.07-3.21-1.4-4.45-1.16-.99-2.14-2.21-3.13-3.38-.3-.36-.39-.9-.68-1.6,1.05-.05,1.87-.07,2.69-.13.83-.06,1.19-.58,1.23-1.37,0-.17.02-.35-.02-.51-.72-2.55-1.16-5.23-2.6-7.51-.88-1.4-1.64-2.81-2.12-4.38-.15-.49-.32-.99-.57-1.44-.57-1.03-1.48-1.1-2.27-.17-.98,1.17-1.44,2.53-1.33,4.06.05.68.19,1.36.31,2.03.23,1.28-.01,2.38-1.15,3.17-.35.24-.65.57-.92.9-1.2,1.47-1.14,2.15.31,3.74-2.13,2.1-1.31,4.61-.84,7.03-.87.5-1.44.07-1.89-.44-.33-.37-.65-.89-.67-1.36-.1-2.32-1.02-4.31-2.4-6.24.61-.72,1.15-1.34,1.82-2.12-1.05-1.9-2.11-3.82-3.28-5.94.66-.19,1.12-.32,1.57-.46,1.79-.56,2.21-1.8,1.1-3.32-.3-.41-.68-.77-1.06-1.12-1.18-1.07-1.92-2.37-2.27-3.95-.3-1.33-.77-2.64-1.2-3.94-.4-1.21-1.18-2.08-2.43-2.46-.99-.3-1.72-.17-2.21.75-.56,1.05-1.05,2.19-1.27,3.34-.42,2.15-1.4,3.84-3.26,5.02-.43.27-.83.62-1.17,1.01-.82.94-.55,2.09.64,2.44.72.22,1.52.18,2.28.23.5.03,1,0,1.78,0-.27.67-.35,1.18-.64,1.51-.96,1.09-2.04,2.09-3,3.18-.73.82-1.72,1.73-1.16,2.92.61,1.3,1.94.69,3.01.65.57-.02,1.14-.1,1.73-.15.26,1.25-.43,1.93-1.06,2.62-.4.44-.92.77-1.34,1.2-.89.89-.8,1.46.34,2.22.28.18.58.32.94.51-.58,1.27-2.36,1.34-2.61,3.02.54.45,1.16.97,1.84,1.53-.9,1.16-1.79,2.29-2.75,3.53-1.52-.56-2.26-1.95-3.29-3.05q1.89-1.39,1.24-3.97c.54-.56,1.17-1.13,1.71-1.78.7-.85.61-1.56-.29-2.18-.63-.43-1.36-.72-2.02-1.12-.51-.31-1.05-.61-1.46-1.03-.77-.8-.77-1.58.04-2.45.67-.72,1.16-1.47,1.2-2.62-1.63-1.59-2.55-3.67-3.22-5.92-.41-1.39-1.07-2.72-1.74-4.01-.3-.58-.82-1.12-1.36-1.48-1.56-1.03-3.15-.45-3.55,1.38-.27,1.24-.37,2.57-.26,3.83.19,2.12-.13,3.9-2.08,5.14-.71.45-1.45,1.13-1.06,2.12.4,1.05,1.38,1.17,2.37,1.11.49-.03.99-.06,1.67-.11-.31,2-1.31,3.31-2.71,4.37-.96.73-1.93,1.43-2.86,2.19-1.05.86-1.6,2-1.63,3.37-.04,1.92,1.08,2.71,2.82,1.96.68-.29,1.31-.68,2.21-.73-.41.48-.79,1-1.24,1.43-.43.41-1,.68-1.41,1.11-.7.72-.65,1.61.08,2.27.25.23.57.38.85.58,1.96,1.36,1.65,3.68-.79,4.97Z"/>
    <path class="cls-3" d="M199.42,279.92c.73-.61,1.27-1.16,1.9-1.58,2.99-2.02,5.95-4.06,9.27-5.55,1.4-.63,2.7-1.5,4.03-2.28,3.28-1.92,6.9-3.03,10.43-4.37,4.98-1.87,9.91-3.87,15.11-5.09,4.69-1.1,9.46-1.62,14.21-2.35,3.76-.58,7.53-.59,11.29-.67,3.34-.07,6.68-.55,10.02-.05,1.95.29,3.92.43,5.85.8.79.15,1.5.71,2.53,1.23,2.07-.68,4.4-.23,6.75.33,8.81,2.08,17.18,5.37,25.35,9.2.44.21.84.51,1.5.93-1.5,1.42-2.84,2.69-4.16,3.93-6.18-3.05-12.75-4.49-18.99-6.83-3.37-1.26-6.99-1.69-10.61-1.87-4.88-.25-9.76-.57-14.65-.75-3.01-.11-6.02.12-8.93.88-6.39,1.67-12.73,3.55-18.78,6.24-2.26,1.01-4.37,2.37-6.57,3.54-4.95,2.62-9.43,5.94-13.88,9.3-1.98,1.49-3.76,3.24-5.62,4.87-3.42-.61-12.71-6.27-16.05-9.85Z"/>
    <path class="cls-2" d="M204.7,181c-.22-1.04.33-1.74.84-2.38,7.46-9.44,15.97-17.51,27.79-21.26.82-.26,1.63-.56,2.41-.91,4.69-2.11,9.67-3.03,14.73-3.31,4.53-.25,9.1-.61,13.61.28,5.68,1.12,11.12,2.88,15.96,6.19,2.34,1.6,4.63,3.23,6.66,5.25,1.76,1.76,3.74,3.28,5.63,4.91,3.55,3.06,6.42,6.67,8.69,10.77.19.35.32.74.67,1.56-1.89-.79-3.23-1.69-4.52-2.58-4.04-2.79-8.45-4.91-12.73-7.26-2.77-1.51-5.81-2.04-8.89-2.41-1.11-.14-2.22-.29-3.33-.3-1.55-.01-2.78-.43-3.76-1.75-.85-1.15-2.25-1.27-3.54-.96-3.33.81-6.7,1.53-9.78,3.11-.69.35-1.34.81-2.07,1.04-2.05.65-4.13.81-5.78-.84-2.46-2.46-5.39-2.64-8.6-2.23-5.44.7-10.49,2.56-15.32,5.04-3.81,1.96-7.77,3.66-11.28,6.18-2.18,1.56-4.71,1.82-7.37,1.88Z"/>
    <path class="cls-3" d="M216.89,252.6c.83,1.26,1.62,2.48,2.44,3.68.53.78,1.04,1.68,2.21,1.39.71-.18.98-1.08.68-2.49-.27-1.33-.67-2.64-1.08-4.19,3.63-.96,7.34-.94,11.01-2.09.15.66.35,1.12.35,1.59.03,1.46-.05,2.92-.01,4.38.02.67.08,1.39.34,1.99.38.87,1.63.93,2.09.1.41-.74.69-1.57.88-2.4.27-1.17.38-2.37.6-3.55.14-.75.35-1.48.53-2.22.47-.11.79-.25,1.12-.26,5.49-.21,10.98-.4,16.47-.59,3.79-.13,7.55.06,11.27.81,1,.2,2.04.25,3.16.38,1.17,1.97,1.2,4.21,1.71,6.48-.58.17-1.04.4-1.51.42-3.43.16-6.87.16-10.29.43-3.5.28-6.99.78-10.47,1.24-8.14,1.07-15.91,3.45-23.48,6.58-2.85,1.18-5.86,2.02-8.6,3.43-5.03,2.58-10.14,5.06-14.8,8.32-1.26.88-2.48,1.8-3.85,2.79-2.26-1.39-3.82-3.49-5.72-5.18-1.91-1.7-3.62-3.63-5.35-5.39.61-.87,1.03-1.57,1.54-2.2.47-.58.93-1.25,1.55-1.62,1.77-1.05,3.57-2.06,5.44-2.93,6.47-2.99,12.95-5.95,19.69-8.28.64-.22,1.3-.39,2.08-.61Z"/>
    <path class="cls-3" d="M239.69,275.43c1.02-1.13,1.98-1.45,2.89-1.86,3.68-1.67,7.52-2.89,11.37-4.06,1.89-.58,3.8-1.06,5.68-1.63,3.25-1,6.58-1.15,9.93-1.03,4.8.18,9.6.36,14.39.67,3.68.24,7.33.83,10.85,2,4.47,1.49,8.94,2.99,13.41,4.49,1.21.41,2.43.8,3.58,1.89-4.72,4.58-10.13,7.91-15.69,10.7-.42-.13-.64-.12-.74-.23-1.93-2.22-4.42-3.39-7.23-4.13-2.32-.61-4.54-1.57-6.83-2.28-3.27-1.02-6.54-2.05-9.86-2.88-1.9-.47-3.88-.61-5.84-.8-4.44-.42-8.87-.92-13.32-1.1-3.33-.14-6.68.17-10.02.27-.73.02-1.45,0-2.57,0Z"/>
    <path class="cls-3" d="M293.78,287.59c-2.42,1.14-4.55,2.26-6.77,3.15-2.7,1.09-5.49,1.97-8.21,2.99-.9.34-1.6.31-2.35-.36-1.75-1.57-3.86-2.52-6.01-3.4-1.74-.71-3.4-1.63-5.14-2.35-4.37-1.81-8.93-2.98-13.6-3.74-.51-.08-1.02-.13-1.53-.15-4.28-.19-8.56-.51-12.85-.49-3.15.01-6.31.46-9.46.73-.68.06-1.35.16-2.11.26,1.07-1.32,4.68-3.99,6.38-5.01,2.36-1.41,4.97-1.86,7.6-1.94,5.23-.16,10.46-.17,15.69-.1,2.65.04,5.31.3,7.94.64,3.56.45,7.16.53,10.62,1.77,3.7,1.33,7.5,2.39,11.26,3.58,1.31.41,2.58.94,3.91,1.26,1.82.45,3.27,1.37,4.64,3.15Z"/>
    <path class="cls-3" d="M275.48,294.76c-1.14.36-1.68.6-2.25.7-5.66,1.01-11.31,2-16.98,2.97-.67.11-1.39.19-2.04.05-4.53-1-9.16-1.27-13.73-1.96-7.28-1.1-14.65-1.92-21.46-5.05-.45-.21-.89-.44-1.48-.73,1.24-1.65,2.57-2.91,4.41-3.57,1.86-.66,3.75-1.16,5.74-1.34,4.34-.38,8.65-1.2,13.06-.58,1.86.26,3.77.14,5.66.17,7.6.11,14.73,2.03,21.5,5.44,1.6.81,3.29,1.46,4.91,2.24.76.37,1.44.88,2.68,1.66Z"/>
    <path class="cls-8" d="M203.9,241.6c1.98,1.14,3.33.1,4.58-1.2,1.18.38,2.16.99,2.74,1.92,1.64,2.69,3.14,5.46,4.83,8.43-9.55,3.59-18.75,7.39-27.55,12.11-1.05-2.35-2.08-8.68-2.25-13.57,1.1-.4,2.33-.6,3.24-1.25.85-.61,1.37-1.7,2.11-2.7.67.2,1.34.31,1.93.58,1.25.56,2.35.38,3.3-.56.98-.98,2.08-1.43,3.48-1.16.92.18,1.66-.25,2.23-.97.37-.47.76-.91,1.36-1.63Z"/>
    <path class="cls-8" d="M290.36,251.4c1.62-2.92,3.07-5.53,4.43-7.98,1.73-.51,3.33-.99,5.07-1.5.3.36.67.81,1.03,1.28,1.39,1.78,1.95,1.96,4.2,1.36.48-.13.97-.21,1.39-.29.83,1.01,1.44,2.06,2.34,2.77,1.12.9,2.23-.25,3.32-.51,1.24,3.01,1.3,3.04,5.12,2.03,1.03,1.59,1.92,3.26,2.02,5.28.17,3.61-.09,7.19-.88,10.95-.54-.18-1.11-.26-1.55-.54-3.97-2.56-8.31-4.43-12.44-6.66-3.8-2.05-7.64-3.85-11.72-5.19-.71-.23-1.39-.59-2.32-.99Z"/>
    <path class="cls-8" d="M266.74,235.64c.99,2.18,1.04,4.36,1.26,6.45.16,1.57.96,3.12.49,4.9-.91,0-1.76.14-2.56-.02-6.21-1.22-12.45-.9-18.7-.52-2.65.16-5.31.21-7.97.27-.49.01-.99-.15-1.66-.25.22-3.19,1.34-6.07,1.86-9.1,1.19-.61,2.32-1.18,3.66-1.87.54.35,1.18.75,1.8,1.16,1.93,1.29,3.09,1.2,4.81-.39.62-.57,1.21-1.18,1.92-1.89.6.56,1.09,1,1.56,1.46,1.57,1.53,2.47,1.58,4.25.21.47-.37.9-.81,1.39-1.15.93-.64,1.51-.55,2.23.28.17.19.26.45.42.65.87,1.09,1.01,1.14,2.38.58.86-.35,1.67-.86,2.86-.78Z"/>
    <path class="cls-7" d="M292.31,238.74c.38-.92.77-1.85,1.16-2.79,2.1-.17,4.02.07,5.98.29,3.1.36,6,1.31,8.96,2.18,5.43,1.61,10.12,4.55,14.76,7.64.14.1.28.19.43.29,2.55,1.66,2.66,2.13,1.16,5.09q-2.46-1.62-4.44-1.44c-.3-.54-.6-1.13-.95-1.7-.89-1.48-1.48-1.74-3.17-1.4-.41.08-.82.19-1.38.31-.21-.38-.41-.72-.59-1.08-.88-1.72-1.51-1.96-3.25-1.21-.38.16-.74.37-1.24.62-.3-.5-.58-.9-.8-1.33-.88-1.68-1.69-2.08-3.52-1.69-.25.05-.48.19-.73.26-1.48.39-1.6.34-2.58-.92-1.83-2.38-2-2.45-4.57-1.06-.99.54-1.76.39-2.59-.24-.74-.56-1.53-1.06-2.62-1.81Z"/>
    <path class="cls-7" d="M255.11,235.49c-.72-.85-1.28-1.62-1.95-2.27-.82-.8-1.62-.89-2.54-.21-.75.55-1.36,1.3-2.04,1.95-1.05.99-1.51,1.03-2.7.25-.36-.23-.69-.51-1.04-.76-.91-.66-1.88-.82-2.9-.28-1.03.54-2.02.74-3.19.23-.55-.24-1.34-.05-2,.09-.65.14-1.25.47-1.89.73-.59-2.22-.31-3.05,1.32-3.56,1.22-.38,2.49-.61,3.76-.78,2.63-.34,5.27-.68,7.92-.84,2.56-.16,5.14-.16,7.72-.1,3.6.08,7.2.31,10.8.4,1.9.05,3.75.24,5.53.86.65.89.48,1.86.43,2.77-.07,1.29-.86,1.87-2.08,1.52-.57-.16-1.14-.43-1.6-.79-1.38-1.07-2.82-1.12-4.35-.42-.31.14-.64.22-1.09.37-.28-.27-.58-.55-.88-.84-1.54-1.44-2.84-1.54-4.59-.32-.82.57-1.6,1.21-2.63,1.99Z"/>
    <path class="cls-7" d="M214.27,235.05c.1.98.18,1.8.26,2.59-1,.78-1.88,1.45-2.84,2.2-.37-.15-.81-.22-1.12-.47-1.46-1.21-2.8-1.04-4.09.24-.18.18-.41.31-.72.55-2.25-.96-3.64.37-4.89,2.22-2.4-.79-4.08.57-5.78,2.08-.75-.24-1.47-.49-2.19-.69-1.56-.44-2.4-.15-3.34,1.14-.25.34-.45.73-.66,1.1-.41.74-1.01,1.19-1.88,1.07-2.14-.29-4.06.09-5.51,1.9-1.12-2.27-1.18-2.73.45-3.84,1.83-1.25,3.8-2.3,5.8-3.26,5.19-2.49,10.61-4.36,16.24-5.57,2.18-.47,4.36-.91,6.56-1.22,1.15-.16,2.35-.03,3.7-.03Z"/>
    <path class="cls-7" d="M239.57,228.93c4.69-2.92,9.16-6.02,13.09-9.83,1.01-.01,1.63.62,2.23,1.21,1.03,1.03,2.06,2.07,2.98,3.2,1.73,2.12,3.76,3.74,6.47,4.4.21.05.37.29.79.64-4.55-.16-8.8-.47-13.05-.4-4.17.06-8.34.51-12.51.79Z"/>
    <path class="cls-3" d="M286.9,257.62c.79-1.61,1.5-3.03,2.29-4.63,4.05,1.67,8.14,2.61,11.81,4.74,2.29,1.33,4.69,2.49,7.1,3.6,3.53,1.61,6.65,3.89,9.91,5.93.4.25.72.64.98,1.13-2.27-.2-4.01-1.65-6.02-2.41-2.16-.82-4.32-1.66-6.49-2.47-2.08-.78-4.16-1.6-6.27-2.31-2.19-.74-4.4-1.43-6.63-2.03-2.12-.57-4.29-.99-6.69-1.54Z"/>
    <path class="cls-7" d="M184.09,241.06c3.29-4,6.58-8,10.03-12.2,3.52,1.69,6.67,4.63,11.01,4.9-1.61,1.09-3.5.97-5.17,1.59-1.76.65-3.6,1.09-5.36,1.73-1.77.64-3.49,1.4-5.23,2.12-1.69.71-3.38,1.44-5.07,2.16l-.21-.31Z"/>
    <path class="cls-7" d="M301.3,234.47c2.8-.56,5.75-1.07,8.67-1.75,1.48-.34,2.9-.98,4.56-1.55,1.13,3.34,1.78,6.97,4.76,9.49-.16.13-.32.26-.47.39-1.86-.95-3.67-2.01-5.59-2.82-1.89-.8-3.87-1.38-5.84-2-2.03-.63-4.09-1.19-6.09-1.76Z"/>
    <path class="cls-3" d="M274.13,250.2c2.75-.21,8.16.89,10.25,1.98.02,1.8-.05,2.06-1.39,4.76-2.84-.37-5.78-.75-8.86-1.14v-5.6Z"/>
    <path class="cls-7" d="M272.14,253.02c-1.33-5.38-2.37-10.28-2.76-15.3,1.64-.25,1.79-.25,1.97.77.34,1.94.67,3.9.76,5.86.13,2.71.03,5.42.03,8.67Z"/>
    <path class="cls-7" d="M237.8,236.24c-1.14,5.09-2.19,9.83-3.34,14.99,0-1.78-.05-3.13.01-4.47.11-2.47.31-4.95.44-7.42.11-2.12.1-2.12,2.89-3.1Z"/>
    <path class="cls-7" d="M212.88,241.4c.67-.54,1.12-.9,1.52-1.23.26.11.49.13.55.24,2,3.57,3.22,7.41,3.82,11.52-1.93-3.44-3.86-6.89-5.9-10.53Z"/>
    <path class="cls-7" d="M286.36,253.63c.31-.95.52-1.95.95-2.85,1.36-2.86,2.8-5.69,4.22-8.53.15-.3.31-.7.57-.81.3-.13.72.02,1.32.06-1.68,4.59-4.55,8.23-7.06,12.13Z"/>
    <path class="cls-7" d="M184.12,249.58c.7,4.57,1.36,8.92,2.02,13.28-.07.02-.14.05-.2.07-.21-.65-.46-1.29-.61-1.95-.75-3.15-1.47-6.31-2.23-9.46-.18-.74-.15-1.35,1.02-1.93Z"/>
    <path class="cls-7" d="M320.88,261.7c.05-.85.01-1.72.16-2.55.24-1.37.34-2.7.06-4.08-.13-.66-.1-1.38,0-2.05.06-.34.42-.84.7-.89.32-.05.78.26,1.06.53.56.55.4,1.24.21,1.93-.66,2.39-1.29,4.78-1.93,7.18-.09-.02-.18-.04-.26-.06Z"/>
    <path class="cls-1" d="M322.07,229.11c-2.25,1.09-3.72-.83-5.72-.64.13-.8.11-1.4.33-1.9.47-1.01,1.49-1.2,2.3-.47,1,.9,1.93,1.87,3.08,3Z"/>
    <path class="cls-1" d="M199.18,222.3c-1.25,1.96-2.88,2.95-5.24,2.51-.52-.66-.92-1.36-.5-2.4,1.86-.61,3.81.41,5.74-.11Z"/>
    <path class="cls-1" d="M254.47,214.86c.19-.59.23-1.22.56-1.6.27-.31.89-.38,1.37-.43,1.14-.1,2.12.3,3.17,1.12-1.57,1.27-3.1,1.7-5.1.91Z"/>
    <path class="cls-7" d="M301.34,114.91c.43-.99.86-1.97,1.35-3.1,1.45.51,2.65,1.02,3.28,2.38.39.84.11,1.56-.76,1.82-1.43.43-2.65.05-3.87-1.09Z"/>
    <path class="cls-7" d="M181.57,137.8c-.03,1.84-.97,2.88-2.83,3.35-2.34.58-4.53-.79-5.57-3.48-.61-1.58.33-3.77,2.06-4.83.79-.48,1.64-.68,2.44-.24,1.78.98,3.04,2.48,3.79,4.37.12.31.09.68.1.82Z"/>
    <path class="cls-7" d="M239.41,106c-.02.43-.03.85-.07,1.28-.17,2.09-.82,3.01-2.26,3.22-2.26.33-3.99-.47-4.5-2.4-.34-1.28-.42-2.72-.21-4.03.23-1.46,1.43-2.27,2.87-2.59,2.75-.6,3.83.19,4.11,2.97.05.51,0,1.02,0,1.54.02,0,.03,0,.05,0Z"/>
    <path class="cls-7" d="M286.13,110.48c-.91-.32-1.5-.52-2.19-.76.54-1.16,1.22-1.92,2.27-2.79.07.78.15,1.26.14,1.73-.01.49-.11.97-.22,1.82Z"/>
    <path class="cls-7" d="M281.54,309.35c.52-.05,1.03-.1,1.98-.2-.5.6-.66.97-.94,1.11-.73.36-1.05,0-1.04-.91Z"/>
    <path class="cls-7" d="M316.77,292.3c-.08.88-.25,1.6-1.28,1.45-.22-.03-.59-.53-.54-.75.23-1.06.99-.9,1.83-.7Z"/>
    <path class="cls-7" d="M324.8,284.62c.62.37,1.3.73,1.94,1.16.77.51,1.25,1.27,1.11,2.18-.09.62-.42,1.37-.89,1.7-.32.23-1.12-.09-1.63-.31-.46-.2-.85-.58-1.23-.93-1.56-1.46-1.39-2.45.7-3.8Z"/>
    <path class="cls-7" d="M239.4,313.32c.03.35.07.7.06,1.05,0,.04-.27.08-.41.13v-1.16c.12,0,.23,0,.35-.01Z"/>
  </g>
</svg>