<?xml version="1.0" encoding="UTF-8"?>
<svg id="Layer_1" xmlns="http://www.w3.org/2000/svg" viewBox="0 0 400 400">
  <defs>
    <style>
      .cls-1 {
        fill: #f8963a;
      }

      .cls-1, .cls-2 {
        fill-rule: evenodd;
      }

      .cls-3 {
        fill: #231f20;
        font-family: AmericanTypewriter-CondensedBold, 'American Typewriter';
        font-size: 42.62px;
        font-weight: 700;
        letter-spacing: -.02em;
      }

      .cls-4 {
        fill: #fff;
      }
    </style>
  </defs>
  <g>
    <g>
      <polygon class="cls-1" points="65.62 144.12 13.26 220.77 15.87 224.07 115.75 220.61 79.87 154.7 69.2 142.22 65.62 144.12"/>
      <path class="cls-2" d="M97.68,181.48c3.5.51,2.58,5.9,6.25,6.23.1,3.85,2.07,5.65,4.51,6.91-.28,4.06,2.01,5.28,4.46,6.33.28,1-.4,1.13-1.12,1.24.83.82,2.79,1.35,1.33,2.9.47-.34.95-.66,1.75-.68.27,1.19-.03,1.86-1.09,1.84,1.18,1.5,4.6,4.73,2.67,5.81.61,1.01,1.92,1.22,3.61,1.01.33,4.85,3,7.12,2.99,12.34-.57-.34-2.25-1.28-1.74.67-1.07-1.11-4.14-.02-4.27-2.16-1.31,2.34-4.07-1.55-7.05,1.54-1.8.3-1.34-1.87-1.94-2.88-1.7.6.85,1.46.15,2.97-.46-.39-2-2.42-1.78.09-8.28-.58-20.59-.63-27.92.18-.03-.58-.07-1.18-.09-1.77-2.68,1.58-5.81,1.89-8.31.41-1.6,2.32-12.64,2.38-16.01.8-6.52,3.75-21.02.23-24.17,4.16-5.11-2.87-13.92.37-20.31-1.96-.61-1.86.4-2.28,1.04-3.03-2.39-.09-.99-.46-1.38-4.09,2.76-.9,3.9-3.26,3.84-6.73,2.75.43,1.2-3.05,4.03-2.58-.51-1.8-.47-1.12-.15-2.96,4.03.45,1.59-4.98,5.1-5.01-.41-.58-1.39-.54-1.27-1.72,2.39.65,1.11-2,3.5-1.36-.05-.99-.1-1.98-.15-2.97.51-.49,1.31-.7,2.34-.7,3.47-8.95,9.98-15.13,13.69-23.86,2.05-.03,2.69-1.34,2.2-3.68,1.74.07,1.75-1.43,3.5-1.36,1.44-7.95,9.01-10.36,10.39-18.36,6.51-1.46,4.95-10.23,11.29-11.85-.41-.58-1.39-.55-1.28-1.72,1.95-.12,2.9-1.15,5.32-.85,2.66,1.88-.7,3.06,3.1,2.81-2.46,2.68.76,10.53,3.43,9.34.88.15.16,4.49,3.17,4.01-.32,1.83.73,2.14.78,3.53,7.63,6.37,9.09,19.56,16.74,25.91.26,1-.41,1.15-1.13,1.25ZM63.03,154.07c-1.88.83-.54-1.9-2.43-1.07-.91.31-.41,1.9-2.3,1.31-.73,3.12-1.47,6.22-4.4,7.35-.7,3.28,1.67,3.15,2.61,4.62-4.12,3.02-4.14,12.7-11.43,9.48.67,1.77,2.85,1.86,3.17,4.01-1.57.8-2.72,1.12-3.5,1.36,2.53,2.06-.67,1.55-1.64,3.05-2.53,3.94-3.91,10.12-8.36,11.12-.16,2.87-1.2,4.96-3.89,5.53,1.49,3.08-.87.43-1.7,1.88,3.82.72-2.44,2.6.21,4.15-4.22.89-3.19,6.55-6.11,8.63-.38-1.03.55-3.52-.76-3.54,0,.93.19,2.05-1.1,1.84-.63,1.95,1.94.35,1.31,2.3-2.46.61-2.01,3.85-3.29,5.53,6.18-1.37,16.23-1.48,23.13-1.15.11-.46-.04-1.17.53-1.22,23.01,2.1,41.35-1.48,69.44-2.24-1.29-6.23-6.79-9.23-8.96-12.64-.71-5.27-5.7-5.8-5.91-11.6-2.66.4-2.29-2.11-1.97-3.47-2.36.06-4.51-3.77-2.6-4.62-1.85,1-1.99-.35-3.62-1.01-4.29-12.95-14.51-22.09-19.43-32.33.03.6-1.01.8-1.18.05.72-.09,1.39-.24,1.13-1.24-1.66.57-1.58-.76-3-.44-2.87,4-4.15,9.46-8.94,11.73,1.25,2.03-.43,2.88-1.57,4.24-.72-2.35-.14-4.62.87-6.59.97-.03.4,1.63,1.27,1.72.13-2.55,2.17-7.39,3.91-4.94-.06-.82.21-1.32.5-1.81Z"/>
    </g>
    <text class="cls-3" transform="translate(46.14 210.38)"><tspan x="0" y="0">52</tspan></text>
  </g>
  <g>
    <ellipse class="cls-4" cx="267.9" cy="191.49" rx="116.36" ry="115.32"/>
    <g>
      <path d="M293.16,215.08c3.39.06,5.49-1.01,7.1-3.1,1.01-1.31,1.14-2.78.42-4.28-1.56-3.24-3.57-6.1-6.81-7.9-2.98-1.65-5.92-3.36-8.96-4.9-3.82-1.93-5.73-5.15-6.59-9.15-.26-1.22-.43-2.46-.68-3.89,3.61-2.26,6.25-5.38,8.04-9.18q-1.44-1.28-5.89-.42c.13-.79.17-1.51.38-2.18.34-1.08,1.02-2.1,1.15-3.19.45-3.76,1.47-7.02,5.15-9.04.99-.54,1.33-2.25,2.03-3.54-1.03-.63-1.73-1.06-2.37-1.45.36-4,1.39-7.57,3.67-9.68-.29-3.36-.51-5.95-.73-8.51.83-.91,1.57-1.73,2.52-2.78-1.23-1.03-2.32-1.94-3.74-3.14,1.35-1.19,2.5-2.22,3.65-3.23-.73-1.16-1.86-2.16-1.86-3.17,0-1.04,1.2-2.03,1.7-3.12.48-1.06.73-2.22,1.1-3.42,1.6,2.09,3.18,4.15,5.18,6.76-.45.7-1.28,2-2.4,3.73,1.41.69,2.75,1.36,4.17,2.05.02,2.26-2.62,1.99-3.74,3.87.84.96,1.77,2.04,2.87,3.29,1.38-.76,2.55-1.45,3.76-2.07,1.11-.57,2.21-.73,2.94.57.69,1.23.14,2.04-.9,2.87-1.72,1.37-3.29,2.94-5.29,4.76-.35-.04-1.3-.16-2.23-.28-.73,2.03-.15,2.94,1.86,3.31,2.67.49,5.19.83,7.6-.93.89-.65,2.22-1.07,3,.23.76,1.27,1.7,2.74.33,4.15-1.93,1.99-3.82,4.04-7.11,3.53-1.65-.25-4.18,1.88-4.41,3.4-.23,1.49.67,2.39,1.9,2.91,1.39.59,2.82,1.09,4.26,1.52,2.95.88,2.96.85,2.94,3.75,0,.61,0,1.22,0,2.08,1.2-.23,2.14-.4,3.31-.62-.12-1.07-.22-2-.37-3.39h8.61c.08-.23.16-.46.24-.69-.46-.43-.84-.99-1.38-1.27-2.91-1.55-3.04-2.94-.38-4.86.48-.35,1.02-.61,1.69-1.01-.41-1.18-.76-2.22-1.19-3.47,2.83-1.75,3.39-4.64,3.39-7.92,1.82.45,1.82,1.67,1.94,2.71.28,2.42.54,4.81,3.27,5.93-.33,1.13-.6,2.05-.89,3.01.99.69,1.9,1.33,3.01,2.1-.62.82-1.12,1.48-1.8,2.39.89.06,1.62.11,2.84.19-.71,1.57-1.3,2.86-1.88,4.14,2.89,2.86,5.74,3.06,9.83.44-1.6-.76-3-1.41-4.61-2.17,1.11-1.52,2.17-2.97,3.26-4.46-.67-.7-1.18-1.23-1.81-1.89.66-1.48,1.34-3.01,2.12-4.75,1.97,1.54,2.6,3.9,3.5,6.03,1.57,3.71,3.01,7.48,4.38,11.27.59,1.65,1,3.39,1.27,5.12.64,4.1,1.1,8.23,1.72,12.34,2,13.14.47,25.91-4.05,38.35-.47,1.29-1.16,2.53-1.92,3.68-4.2,6.3-8.09,12.85-12.78,18.77-10.01,12.64-23.1,20.97-38.67,24.99-7.54,1.95-15.38,2.69-23.2,2.9-5.82.16-11.6-.38-17.18-2.13-6.48-2.02-13.3-3.46-19.27-6.52-17.44-8.93-31.28-21.62-38.51-40.45-.99-2.59-2.08-5.15-3.19-7.69-1.35-3.07-1.61-6.04.37-8.98.39-.57.47-1.35.76-2.27-2.1-.72-4.19-1.16-4.24-3.99-.03-1.71-.2-3.17,1.18-4.48.8-.76,1.34-1.82,1.94-2.79.67-1.1.27-1.86-.82-2.44-2.65-1.4-3.07-2.53-1.9-5.14.2-.44.58-.81,1.02-1.4-1.23-1.31-1.73-2.78.12-4.18.81-.61,1.32-1.2.86-2.52-.21-.6,1.1-1.74,1.9-2.88-.81-.58-1.64-1.19-2.47-1.79.17-.52.19-.95.41-1.21,1.54-1.8,2.43-3.73,1.98-6.23-.2-1.13-.36-2.8,1.43-2.98,1.47-.15,1.6,1.23,1.97,2.32.4,1.17.82,2.46,1.63,3.35,1.98,2.18,2.39,4.34.42,6.88,1.02.83,1.95,1.6,2.98,2.45-.68,1.66-1.33,3.21-2.15,5.2,2.36-.14,4.21-.36,6.05-.33,3.29.06,3.8.95,2.46,3.9-.25.54-.62,1.14-.58,1.68.14,1.79-.74,2.45-2.38,2.74-.93.16-1.78.77-3.12,1.38.76,1.03,1.19,1.92,1.89,2.48,1.24,1.01,2.47.62,3.02-.79,1.05-2.69,3.2-2.92,5.51-2.57,1.28.2,2.55.75,3.42-.55.96-1.44,1.82-2.98,2.46-4.58.11-.28-.93-1.35-1.61-1.57-1.29-.42-2.69-.49-4.38-.77.1-1.23.18-2.27.27-3.3q-3.09-1.02-3.54-3.44c3.1-1.16,6.88-1.06,9.43-4.29-1.05-.42-1.84-.76-2.65-1.05q-3.72-1.33-3.08-5.18c-1.01-.34-2.02-.67-3.3-1.1,2.02-1.53,3.75-2.84,5.95-4.5,1.49-.38,2.48,3.18,5.04,1.44-.38-.79-.73-1.67-1.2-2.48-1.48-2.58-1.42-2.88,1.13-4.36.32-.19.66-.33,1.21-.61-.89-1.35-1.73-2.63-2.71-4.12,1.14-.49,2.02-.87,2.57-1.11,1.27-3,2.43-5.75,3.7-8.77,1.82,1.21,1.87,2.68,1.82,4.14-.06,2.15-.05,4.2,1.01,6.25.43.82-.33,2.26-.59,3.62.35,1.52.78,3.37,1.28,5.52.59.24,1.7.69,3.12,1.26-1.01,1.41-1.79,2.49-2.82,3.93,2.32.35,4.36.95,6.38.9,2.25-.06,2.63-2.37,3.99-4.17h-5.98c2.31-2.12,5.09-2.85,5.58-5.92-1.05-.21-2.12-.43-3.99-.82,2.19-1.61,3.81-2.78,5.81-4.25-1.2-.51-1.91-.82-2.9-1.24.5-.65.83-1.56,1.36-1.69,2.83-.7-.1-3.69,1.89-4.58,2.22-.99,2.07-2.89,2.05-4.81,0-.99.15-1.99.25-3.15,1.75.22,2.09,1.33,2.11,2.64.02,1.26-.05,2.53-.02,3.79.02.62,0,1.35.31,1.83,1.94,3.07,2.04,3.32,1.49,6.31,1.32,1.23,2.68,2.51,4.23,3.95-.54.85-1.13,1.77-1.83,2.87,1.36,2.76,4.15,4.14,6.57,6.29-.28.91-.59,1.93-.94,3.07h-5.09c.75,2.46,1.66,3.89,4.41,3.88,2.07,0,3.67,1.4,4.33,4-2.9.76-5.69,1.5-8.73,2.3.62,4.55,5.33,3.92,8.29,6.19-.25,1.72-.53,3.65-.87,5.99-1.82-.71-3.29-1.29-4.88-1.91-1.4,1.49-.81,2.63.58,3.34,2.08,1.06,2.99,2.24,1.37,4.41-.33.44-.4,1.19-.34,1.77.78,7.14,1.58,14.28,2.47,21.41.18,1.48.63,2.96,1.17,4.36,1.48,3.81,2.34,7.66,2.08,11.81-.13,2.07.39,4.25.94,6.29,1.25,4.62,2.67,9.19,4.09,13.76,1.07,3.43.45,6.66-.76,9.93-1.34,3.6,1.22,6.48,4.98,5.78,4.37-.81,5.27-1.69,6.05-5.98.61-3.32.19-6.6-1.11-9.63-1.63-3.79-2.23-7.45-1.74-11.7.52-4.42-.33-9.04-.89-13.53-.34-2.68-.5-5.14.66-7.73.8-1.79.87-3.91,1.22-5.89.5-2.9,1.5-3.65,4.39-3.11,3.59.67,7.15,1.45,10.75,2.03,1.41.23,2.88.04,4.31-.16-12.24-3.52-16-4.06-19.65-3.09-1.18,4.04-2.54,7.97-3.42,11.99-.45,2.04-.15,4.27,0,6.41.42,6.03.94,12.06,1.42,18.08.14,1.75-.24,3.86.6,5.19,2.43,3.85.86,7.85.96,11.75.08,3.19-2.36,4.48-5.19,3.14-1.73-.82-2.36-2.1-1.26-3.65,2.65-3.72,1.82-7.59.37-11.19-2.81-6.98-4.1-14.26-5.24-21.62-.73-4.73-1.58-9.44-2.43-14.15-.7-3.85-1.32-7.72-2.29-11.5-.81-3.19-.52-6.23.22-9.34,1.03-4.29,1.9-8.62,2.91-12.91.99-4.18.28-8.27-.4-12.38-1.32-7.94-5.09-14.99-7.94-22.38-1.3-3.36-1.78-7.04-2.47-10.61-.4-2.05.43-3.74,2.31-4.75,3.1-1.67,6.13-3.56,9.38-4.85,5.29-2.09,6.89-3.98,7.21-9.75.06-1.12.07-2.29.43-3.33.18-.52,1.11-.78,2.11-1.42.39,1.23.88,2.12.9,3.01.09,3.35,1.74,5.82,4.38,7.56,3.26,2.14,6.66,4.08,10.07,5.97,4.16,2.31,6.07,6.1,4.96,10.71-.65,2.69-1.61,5.3-2.44,7.95-1.55,4.92-3.1,9.85-4.65,14.77-1.32,4.21-2.55,8.45-4,12.62-2.03,5.87-1.44,11.42,2.89,15.85,2.48,2.54,5.94,4.15,9.04,6.06,1.38.85,3.01,1.31,4.42,2.12,1.19.68,2.36,1.49,3.31,2.46,4.26,4.37,3.35,9.18-2.76,11.55ZM260.81,153.92c2.1-3,2.07-5.42.25-7.85-.52-.7-.9-1.52-1.23-2.34-2.15-5.35.57-11,5.88-12.26,2.97-.71,5.56.59,6.72,3.42,1.06,2.6.84,5.19-.3,7.71-.62,1.38-1.42,2.69-1.89,4.12-1.13,3.38-.15,5.39,3.31,7.14.67-1.05,1.11-2.43,2.06-3.08,3.18-2.17,4-5.76,5.57-8.84.79-1.55.82-3.42-.93-4.78-4.56-3.56-9.08-7.18-13.46-10.65-3.5,2.44-7.01,4.87-10.5,7.34-1.13.8-2.3,1.6-3.23,2.61-.61.67-1.25,1.78-1.12,2.57.8,5.01,2.13,9.84,6.27,13.29.72.6,1.61,1.01,2.6,1.61ZM297.93,171.74c1.48,2.74,3,4.92,3.88,7.33.91,2.5,2.56,3.62,4.96,3.93,1.45.18,2.54.68,3.45,1.93,2.4,3.28,4.33,3.12,6.85-.57-.93-.59-1.87-1.15-2.78-1.77-.6-.41-1.63-.91-1.63-1.37-.01-2.06-1.58-2.27-2.89-2.93-.61-.3-1.04-.95-1.53-1.41.88-1.81,2.36-2.05,3.89-2.15,2.21-.15,3.7-1.48,4.99-3.05.4-.49.66-1.5.43-2.01-.21-.46-1.36-.96-1.8-.77-1.79.77-2.83-.31-4-1.24-.11-.09-.44.08-.83.16-.19.96-.38,1.99-.66,3.41-1.59-.6-3-1.02-4.3-1.66-1.25-.61-2.38-1.45-3.84-2.36-.21,1.83-.35,3.02-.5,4.27-1.07.08-1.93.14-3.68.26ZM299.8,191.75c.46,4.39,2.67,7.78,5.53,10.81,2.22,2.35,4.14,2.04,6.41-1-.41-.25-.8-.67-1.22-.72-2.74-.35-4.04-2.08-4.87-4.54-.33-.96-1.2-1.87-2.05-2.5-1.13-.83-2.49-1.37-3.8-2.05ZM330.97,177.18c2.2-1.25,4.45-2.07,4.96-4.99-1.21-.28-2.25-.52-3.43-.78v-2.65c-2.34.22-4.49.42-6.88.64.59,3.66,3.02,5.56,5.35,7.78ZM235.16,174.96c-2.32-.32-2.4-.41-4.01-2.14-.38-.41-1.01-.69-1.58-.8-3.83-.7-5.21.5-5.6,4.92,1.6.78,3.25,1.58,4.89,2.39,1.97-1.37,3.91-2.71,6.3-4.37ZM197.61,206.48c1.73,1.62,2.98,2.79,4.42,4.13,2.31-2.46,4.4-4.69,6.55-6.97-1.05-.76-1.96-1.72-3.07-2.11-.73-.26-2.48.18-2.54.5-.43,2.73-2.65,3.38-5.36,4.44ZM327.08,188.74c4.08-2.36,6.19-4.8,6.63-7.94-2.18.32-4.29.48-6.3.99-1.56.39-2.49,2.71-1.88,4.41.33.92,1.03,1.71,1.55,2.55ZM231.61,185.34c-1.64,0-2.76-.05-3.87,0-2.8.14-4.29,1.58-4.62,4.38-.24,2.02.69,2.71,1.54,2.59,2.63-2.64,4.56-4.59,6.94-6.98ZM268.48,203.82c-1.02-.96-1.84-1.74-2.9-2.74q-.08,3.04,2.9,2.74Z"/>
      <path d="M157.82,199.14c.07-6.31,4.9-11.72,10.46-11.72,5.83,0,10.63,5.49,10.52,12.03-.1,5.5-5.09,10.21-10.65,10.09-4.87-.11-11.14-5.06-10.32-10.4ZM166.33,203.6c3.83-.02,6.62-.61,8.67-3.01,1.77-2.08,1.55-5.3-.39-6.7-2.75-1.98-9.2-1.87-11.82.2-3.44,2.72-3.14,6.94.74,8.88,1.07.54,2.4.54,2.81.63Z"/>
      <path d="M265.53,92.35c.81.7,1.46,1.12,1.94,1.69,2.38,2.86,1.56,6.55-1.78,8.17-.45.22-.93.45-1.41.51-4.07.48-8.15.92-12.42,1.4,0-5.73.06-10.97-.06-16.21-.02-.84-.82-1.65-1.46-2.85,4.44-.79,8.81-1.75,13.29-1.02,2.79.45,4.09,3.07,3.19,5.8-.27.82-.78,1.55-1.28,2.53ZM258.04,100.37c1.23.1,2.11.3,2.95.21,1.76-.18,3.7-2.19,3.72-3.7.02-1.28-1.89-3.06-3.68-3.22-1.08-.1-2.18.14-3.57.26.2,2.2.38,4.15.59,6.45ZM257.26,85.5v6.42c3.95.47,5.54-.3,5.6-2.58.07-3.02-1.31-4.03-5.6-3.85Z"/>
      <path d="M363.24,161.04c6.24-.02,10.86,4.03,10.7,9.68-.22,7.49-4.29,11.71-9.64,11.9-5.36.19-10.66-5.6-10.78-11.14-.14-6.36,3.64-10.43,9.72-10.45ZM364.58,165.53c-3.16-.07-6.24,1.54-8.03,4.06-1.17,1.65-1.14,3.17-.04,4.85,2.69,4.12,8.09,4.67,12.52,1.3,1.93-1.46,2.57-3.32,2.21-5.6-.51-3.22-2.42-4.53-6.65-4.61Z"/>
      <path d="M372.31,207.54c.49.61.74.93,1.25,1.57h-6.43c-.04-.2-.08-.39-.12-.59.61-.29,1.2-.6,1.82-.86,2.71-1.14,3.99-3.25,3.51-5.82-.43-2.32-3.16-5.04-5.43-5.12-4.25-.15-7.88,1.19-10.51,4.87.97,1.83,1.4,3.97,3.84,4.3,1.17.16,1.39-.21,3.34-4.42.95,4.37.55,7.86-.34,11.23-2.77.56-2.68-1.8-3.78-2.91-1.07-.14-2.18-.29-3.36-.45-.38-2.02-.75-3.97-1.11-5.91-.97-5.2.69-8.47,5.57-10.6,3.67-1.6,7.37-1.77,10.68.85,4.32,3.44,6.08,9.46,1.07,13.87Z"/>
      <path d="M296.88,292.77c-2.1,1.85-3.73,2.23-6.62,1.64,2.09-2.13,1.12-4.32.31-6.5-.53-1.41-1.1-2.81-1.58-4.24-.67-1.99-.82-4.42-4.29-3.6,2.46-3.65,5.09-4.21,7.81-2.28,2.95,2.09,5.93,4.14,9.25,5.9-1.14-3.28-.31-7.52-5.37-8.99,2.38-1.44,4.41-2.63,7.57-2.14-1,.94-1.66,1.57-2.41,2.28.04.27.01.66.14.98,1.63,4.08,3.29,8.16,4.94,12.23.44,1.08,1.01,2.42-.27,2.98-.77.34-2.18-.09-3.01-.62-4.22-2.7-8.35-5.54-12.76-8.18,1.27,3.88,1.16,8.47,6.27,10.53Z"/>
      <path d="M241.15,282.34c.04,5.09-3.69,9.3-8.34,9.44-5.75.17-10.58-4.19-10.42-9.6.18-6.21,3.37-9.28,8.13-9.5,4.43-.2,10.63,3.56,10.63,9.67ZM236.58,280.24c-.23-.61-.51-2.02-1.23-3.14-1.35-2.09-4.2-2.43-5.88-.7-2.29,2.35-3.53,5.26-3.3,8.56.2,2.93,2.63,4.35,5.42,3.4,2.76-.94,5.07-4.34,4.99-8.11Z"/>
      <path d="M219.63,115.64c-2.67,2.39-5.15,4.65-8.82,6.83.46-1.75.69-2.65.95-3.65-1.56-1.12-2.93-2.63-5.07-1.32-2.69,1.65-3.2,3.17-2.23,6.92.5,0,1.07,0,1.64,0s1.16,0,2.23,0c-1.56,3.08-4,4.41-6.26,5.99-.28-.42-.57-.73-.52-.81,1.51-2.33,1.09-4.6.23-7.1-1.63-4.75-2.87-9.63-3.17-15.25,6.78,3.48,13.36,6.24,21.02,8.39ZM202.27,115.04c.5,1.41.79,2.26,1.26,3.59.91-1.25,1.38-1.9,1.96-2.7-.96-.26-1.67-.46-3.23-.89Z"/>
      <path d="M274.98,103.23c2.94-2.78,2.84-6.32,3.39-9.55.52-3.03,1.89-6.33-1.23-8.93,2.24-.88,6.79-.39,9.69.96-.73,1.32-1.68,2.56-2.13,3.96-.89,2.75-1.58,5.57-2.2,8.39-.52,2.4,0,2.95,2.23,4.02,2.73,1.31,5.36.45,8.64-.36-.3,1.79-.53,3.16-.8,4.78-6.11-.51-11.85-1.36-17.59-3.28Z"/>
      <path d="M322.3,280.82c-6.67-.06-9.52-4.71-9.67-9.06-.2-5.79,4.59-10.58,10.16-10.55,4.48.02,8.83,5.1,8.78,10.24-.06,5.4-4.02,9.41-9.27,9.37ZM328.44,272.69c-.1-2.5-1.14-5.3-3.51-7.4-2.67-2.37-5.83-1.76-7.64,1.28-2.13,3.57-.11,9.19,3.99,11.09,4.18,1.94,6.89.3,7.16-4.97Z"/>
      <path d="M359.05,133.85c1.35,2.79,2.69,5.58,4.17,8.65-3.59.14-4.33,2.99-5.93,5.78,2.55.31,4.75.57,7.23.87v-2.96c1.44-.38,3.57,3.85,3.9,7.7-3.13-3.29-7.08-2.46-10.6-3.34-2.56-.64-4.75.45-6.7,1.77-.96.66-1.36,2.14-2.2,3.56-1.56-3.06-4.19-5.35-4.32-9.93,1.31,1.32,2,2.02,2.9,2.93,1.77-.74,4.04-.91,5.23-2.93,1.79-3.03,3.49-6.12,5.11-9.24.41-.78.38-1.79.55-2.69.22-.05.44-.11.66-.16Z"/>
      <path d="M172.85,218.47c2.51-2.38,4.81-2.98,7.81-3.44-.68,1.16-1.09,1.86-1.53,2.62,2.11,2.19,5.42,3.68,5.28,7.35-.08,2.2-.21,4.74-1.31,6.5-2.29,3.67-9.3,5.64-13.57,3.37-2.23-1.19-3.4-3.24-4.59-5.35-1.38-2.43-.27-4.56.65-6.85-.89-.18-1.59-.32-2.62-.52,1.9-1.82,3.97-2.57,6.74-3.18-1.13,2.14-2.11,3.71-2.82,5.39-1.12,2.67-.57,4.15,1.85,5.77,3.92,2.61,10.27.97,12.41-3.2,1.69-3.3-.32-7.27-4.19-8.12-1.08-.24-2.23-.19-4.11-.33Z"/>
      <path d="M351.61,220.26c1.06-3.06,1.84-5.3,2.65-7.65.63.4,1.01.54,1.01.66-.19,3.2,1.94,4.85,4.13,6.64,2.82,2.31,5.42,4.89,8.05,7.42.76.73,1.31,1.7,2.47,3.25-2.09.14-3.39.31-4.69.3-3.14-.01-6.29-.11-9.43-.17-3.05-.06-6.05,0-7.84,3.37-.73-2.27.35-6.35,2.54-10.15.71.91,1.2,2,2.04,2.49.87.5,2.08.42,3.24.61.77-2.06,1.42-3.78,2.11-5.61-1.16-.94-2.12-1.71-3.03-2.45-.87.35-1.6.64-3.24,1.29ZM363.26,225.86c-1.59-1.34-2.54-2.13-3.93-3.31-.34,1.55-.54,2.51-.82,3.79,1.58-.16,2.72-.28,4.75-.49Z"/>
      <path d="M227.24,108.79c5.98-1.16,7.75-2.44,9.22-7.13.86,2.26,1.48,3.89,2.18,5.73-5.93,2.89-11.35,5.84-17.77,6.74.61-.88,1.22-1.76,1.9-2.75-1.61-3.54-3.36-7.04-4.79-10.66-.86-2.2-2.68-1.89-5.23-2.3,3.4-2.56,6.58-3.91,9.68-5.51.27.62.5.96.43,1.03-2.14,2.36-1.69,4.76-.2,7.21,1.56,2.57,3.08,5.15,4.57,7.64Z"/>
      <path d="M179.69,172.32c-2.09-3.04-4-.12-6.07-.63-.27,1.88-.48,3.33-.69,4.84,1.85,1.03,3.19,2.93,6.03.84-.52,2.81-.93,4.98-1.36,7.27-.74-.34-1.14-.42-1.15-.53-.39-4.38-4.21-5.62-7.1-7.61-2.97-2.05-6.14-3.81-9.25-5.71.71-1.81,2.06-1.83,3.23-2.07,3.2-.66,6.44-1.13,9.6-1.92,2.77-.69,5.45-1.72,8.39-2.66.57,2.73-1.14,5.24-1.63,8.18ZM171.84,172.64c-1.55-.15-2.9-.55-4.57.61,1.49.91,2.62,1.59,4.01,2.44.22-1.2.37-2.02.55-3.05Z"/>
      <path d="M187.38,117.79c1.7,1.13,2.97,1.98,4.24,2.83-.01.29-.02.59-.03.88-3.88-1.59-5.58.71-7.35,3.86,3.61,2.69,7.21,5.56,11.04,8.07.86.57,2.55-.12,4.18-.26.41,2.07-1.46,3.05-2.49,4.43-1.1,1.48-2.24,2.93-3.37,4.4-.48-.39-.82-.58-.8-.66.85-2.8-.65-4.39-2.76-5.84-3-2.06-5.89-4.28-8.8-6.4q-2.76,2.32-3.15,6.42c-3.05-.59-3.56-1.22-2.02-3.3,3.59-4.83,7.41-9.48,11.3-14.42Z"/>
      <path d="M344.12,117.47c.74-.08,1.32-.15,1.84-.21.8,1.05-2.36,3.77-5.26,4.53.66-1.3,1.54-2.4,1.75-3.63.17-.96-.18-2.49-.87-2.99-.65-.48-2.14-.2-3.08.18-1.26.51-1.31,1.81-.86,2.93.95,2.38,1.58,4.77,1.16,7.36-.52,3.18-1.56,4.41-4.32,4.97-2.72.56-5.49-.58-6.79-2.93-.54-.97-.84-2.08-1.23-3.08h-3.15c2.17-2,3.78-3.5,5.4-4.99.21.12.43.24.64.36-.11,1.16-.44,2.35-.27,3.46.2,1.29.57,2.75,1.39,3.66.53.59,2.11.65,3.03.36,1.21-.38,1.47-1.59.98-2.84-.36-.94-.7-1.89-1-2.85-1.12-3.57-.25-6.18,2.71-8.19,2.89-1.97,5.63-1.26,7.18,1.88.32.65.5,1.36.73,2.01Z"/>
      <path d="M171.36,142.16c1.9.8,4.03,1.37,5.98,3.69-1.73-.3-2.79-.59-3.86-.64-2.04-.1-3.52,1.22-3.6,3.04-.1,2.25,1.63,3.58,3.71,2.76.8-.31,1.5-.91,2.18-1.46.78-.63,1.45-1.41,2.24-2.03,2.77-2.16,5.11-2.45,7.25-.98,1.99,1.36,3.06,5.29,2.04,7.89-.31.78-.91,1.5-1.54,2.08-.93.86-2.68,1.19-1.68,3.08-.7.3-1.62,1.03-2.07.81-1.39-.7-2.6-1.75-4.54-3.15,1.57-.23,2.27-.28,2.95-.43.73-.16,1.5-.31,2.15-.65,2.36-1.26,3.57-4.03,2.54-5.58-1.03-1.53-3.42-1.56-5.78.03-1.25.84-2.41,1.83-3.61,2.74-1.53,1.16-3.16,1.36-4.98.7-3.82-1.38-4.74-3.9-2.57-7.35.9-1.42,1.93-2.76,3.19-4.53Z"/>
      <path d="M256.98,286.34q3.41.72,5.06-1.92c1.31,1.83,1.17,4.08-.63,7.65-.59-1.26-1.08-2.3-1.65-3.51-.96.17-1.92.34-3.09.54-.3,1.5-.59,2.95-.91,4.54.94.83,1.84,1.62,3.21,2.81-3.27,1.47-5.95.43-9.51.37,4.58-4.49,2.99-9.49,3.79-13.94.09-.51-.66-1.22-1.1-1.78-.49-.61-1.06-1.15-1.67-1.79,4.41.09,8.5.16,12.58.28,3.75.11,4.38,1.31,2.49,5.33-.58-.78-1.05-1.43-1.53-2.06-.92-1.19-4.57-2.18-5.82-1.47-.47.27-.92.9-1.02,1.43-.2,1.09-.15,2.23-.2,3.53Z"/>
      <path d="M310.09,113.33c.88-1.38,1.9-3,2.92-4.62.23.06.47.12.7.18.05,1.18.07,2.36.16,3.54.14,1.78,1.5,3.43,3.11,3.81,1.55.37,2.71-.29,3.57-1.53.83-1.2.69-2.35-.28-3.43-.75-.84-1.56-1.66-2.18-2.6-1.94-2.93-1.7-6.25.47-7.85,2.33-1.72,6.05-1.23,8.25,1.02.71.73,1.53,1.36,2.49,2.21-.43,1.91-1.54,3.75-3.84,5.02.3-1.26.59-2.53.89-3.79.33-1.38.03-2.73-1.33-3.13-.91-.28-2.3-.05-3.07.51-1.16.85-1.6,2.27-.69,3.7.54.85,1.22,1.6,1.78,2.44,2.2,3.33,2.09,6.22-.27,8.14-2.21,1.79-6.78,1.43-9.1-.67-1-.91-2.09-1.72-3.57-2.93Z"/>
      <path d="M203.82,259.55c1.23-1.34,1.96-2.13,2.92-3.17,4.28,3.24,8.43,6.28,12.44,9.48,1.59,1.27,1.33,1.93-1.16,4.19-.55-2.11-.97-4.28-3.83-5.29-2.73,3.11-5.59,6.39-7.7,10.21-.45.81.28,2.27.46,3.42-2.61-.14-5.33-2.27-7.35-5.95h3.46c2.47-3.36,4.99-6.77,7.48-10.16q-2.95-2.79-6.72-2.72Z"/>
      <path d="M280.46,279.89c-.99.74-1.86,1.39-2.98,2.22.33,3.68.67,7.55,1.05,11.81.72.53,1.68,1.23,2.69,1.97-2.28,1.7-5.35,1.98-9.1.73,2.41-1.66,1.75-3.87,1.42-6.05-.22-1.49-.41-3-.47-4.5-.1-2.31-.09-4.6-3.19-5.05,1.64-2.03,7.16-2.56,10.59-1.12Z"/>
      <path d="M311.84,94.07c-4.35.73-4.89,4.33-5.93,7.41-1,2.93-3.23,5.9-.03,9.39-4.04.44-6.99-.5-9.68-2.51.3-.66.37-1.06.5-1.08,3.39-.49,4.69-2.86,5.36-5.85.22-.98.51-1.94.84-2.89.87-2.44,2.08-4.84.65-7.93,2.69.78,5.37,1.57,8.06,2.35.08.37.16.74.23,1.1Z"/>
      <path d="M191.51,252.41c-.05,1.61-1.62,3.18-3.14,3.14-1.52-.04-3.21-2.03-3.1-3.67.1-1.67,1.62-2.94,3.36-2.79,1.7.14,2.94,1.57,2.88,3.32Z"/>
      <path d="M344.71,249.26c1.74-.03,3.25,1.3,3.31,2.94.06,1.61-1.72,3.49-3.3,3.51-1.36.02-2.57-1.59-2.68-3.55-.1-1.74.94-2.86,2.68-2.9Z"/>
      <path class="cls-4" d="M260.81,153.92c-.98-.6-1.87-1-2.6-1.61-4.14-3.45-5.47-8.28-6.27-13.29-.13-.79.51-1.9,1.12-2.57.92-1.01,2.1-1.81,3.23-2.61,3.48-2.47,7-4.89,10.5-7.34,4.38,3.47,8.9,7.09,13.46,10.65,1.75,1.36,1.72,3.23.93,4.78-1.58,3.09-2.4,6.67-5.57,8.84-.95.65-1.39,2.04-2.06,3.08-3.46-1.75-4.44-3.76-3.31-7.14.48-1.42,1.27-2.74,1.89-4.12,1.14-2.53,1.36-5.11.3-7.71-1.16-2.84-3.75-4.13-6.72-3.42-5.31,1.26-8.03,6.91-5.88,12.26.33.82.71,1.64,1.23,2.34,1.82,2.43,1.85,4.85-.25,7.85Z"/>
      <path class="cls-4" d="M297.93,171.74c1.75-.13,2.61-.19,3.68-.26.15-1.25.29-2.44.5-4.27,1.46.91,2.6,1.75,3.84,2.36,1.3.64,2.72,1.06,4.3,1.66.27-1.42.47-2.45.66-3.41.39-.08.71-.25.83-.16,1.17.93,2.21,2.01,4,1.24.45-.19,1.59.3,1.8.77.24.51-.02,1.52-.43,2.01-1.29,1.57-2.78,2.9-4.99,3.05-1.52.1-3,.34-3.89,2.15.49.47.92,1.11,1.53,1.41,1.31.66,2.88.87,2.89,2.93,0,.46,1.03.96,1.63,1.37.91.62,1.85,1.19,2.78,1.77-2.52,3.69-4.45,3.85-6.85.57-.91-1.25-2-1.75-3.45-1.93-2.4-.31-4.05-1.43-4.96-3.93-.88-2.41-2.39-4.59-3.88-7.33Z"/>
      <path class="cls-4" d="M299.8,191.75c1.31.69,2.66,1.22,3.8,2.05.85.63,1.72,1.53,2.05,2.5.83,2.46,2.13,4.19,4.87,4.54.43.05.81.47,1.22.72-2.27,3.04-4.18,3.34-6.41,1-2.86-3.02-5.08-6.42-5.53-10.81Z"/>
      <path class="cls-4" d="M330.97,177.18c-2.33-2.22-4.76-4.12-5.35-7.78,2.39-.22,4.54-.42,6.88-.64v2.65c1.18.27,2.22.51,3.43.78-.51,2.92-2.76,3.74-4.96,4.99Z"/>
      <path class="cls-4" d="M235.16,174.96c-2.39,1.66-4.33,3-6.3,4.37-1.65-.8-3.29-1.61-4.89-2.39.39-4.42,1.78-5.62,5.6-4.92.56.1,1.2.39,1.58.8,1.61,1.73,1.69,1.82,4.01,2.14Z"/>
      <path class="cls-4" d="M197.61,206.48c2.71-1.07,4.93-1.71,5.36-4.44.05-.32,1.8-.76,2.54-.5,1.11.39,2.02,1.35,3.07,2.11-2.14,2.28-4.24,4.52-6.55,6.97-1.44-1.35-2.68-2.51-4.42-4.13Z"/>
      <path class="cls-4" d="M327.08,188.74c-.53-.84-1.22-1.63-1.55-2.55-.61-1.7.32-4.02,1.88-4.41,2.02-.5,4.12-.66,6.3-.99-.44,3.14-2.55,5.58-6.63,7.94Z"/>
      <path class="cls-4" d="M231.61,185.34c-2.38,2.39-4.31,4.34-6.94,6.98-.86.12-1.78-.58-1.54-2.59.33-2.79,1.82-4.24,4.62-4.38,1.11-.06,2.22,0,3.87,0Z"/>
      <path class="cls-4" d="M268.48,203.82q-2.97.3-2.9-2.74c1.05.99,1.88,1.78,2.9,2.74Z"/>
      <path class="cls-4" d="M166.33,203.6c-.4-.08-1.74-.09-2.81-.63-3.88-1.94-4.18-6.16-.74-8.88,2.62-2.07,9.08-2.18,11.82-.2,1.94,1.4,2.17,4.62.39,6.7-2.05,2.4-4.83,2.99-8.67,3.01Z"/>
      <path class="cls-4" d="M258.04,100.37c-.21-2.31-.39-4.26-.59-6.45,1.39-.11,2.5-.35,3.57-.26,1.79.16,3.7,1.94,3.68,3.22-.02,1.51-1.96,3.53-3.72,3.7-.85.08-1.72-.11-2.95-.21Z"/>
      <path class="cls-4" d="M257.26,85.5c4.29-.19,5.67.82,5.6,3.85-.05,2.28-1.65,3.05-5.6,2.58v-6.42Z"/>
      <path class="cls-4" d="M364.58,165.53c4.24.09,6.15,1.4,6.65,4.61.36,2.28-.28,4.14-2.21,5.6-4.43,3.36-9.83,2.81-12.52-1.3-1.1-1.68-1.13-3.2.04-4.85,1.8-2.52,4.87-4.13,8.03-4.06Z"/>
      <path class="cls-4" d="M236.58,280.24c.08,3.77-2.24,7.17-4.99,8.11-2.79.95-5.23-.47-5.42-3.4-.22-3.3,1.01-6.21,3.3-8.56,1.69-1.73,4.54-1.39,5.88.7.72,1.12,1,2.53,1.23,3.14Z"/>
      <path class="cls-4" d="M202.27,115.04c1.56.43,2.26.62,3.23.89-.59.81-1.06,1.46-1.96,2.7-.47-1.33-.76-2.17-1.26-3.59Z"/>
      <path class="cls-4" d="M328.44,272.69c-.27,5.27-2.99,6.91-7.16,4.97-4.1-1.91-6.12-7.52-3.99-11.09,1.82-3.04,4.98-3.64,7.64-1.28,2.37,2.1,3.41,4.9,3.51,7.4Z"/>
      <path class="cls-4" d="M363.26,225.86c-2.04.21-3.17.33-4.75.49.28-1.29.49-2.24.82-3.79,1.4,1.17,2.34,1.97,3.93,3.31Z"/>
      <path class="cls-4" d="M171.84,172.64c-.19,1.03-.33,1.85-.55,3.05-1.4-.85-2.52-1.54-4.01-2.44,1.66-1.16,3.02-.76,4.57-.61Z"/>
    </g>
  </g>
</svg>