<?xml version="1.0" encoding="UTF-8"?>
<svg id="Layer_1" xmlns="http://www.w3.org/2000/svg" viewBox="0 0 400 400">
  <defs>
    <style>
      .cls-1 {
        fill: #231f20;
        font-family: AmericanTypewriter-CondensedBold, 'American Typewriter';
        font-size: 42.62px;
        font-weight: 700;
        letter-spacing: -.02em;
      }

      .cls-2, .cls-3 {
        fill-rule: evenodd;
      }

      .cls-4 {
        fill: #fff;
      }

      .cls-3 {
        fill: #f9ed32;
      }
    </style>
  </defs>
  <g>
    <g>
      <polygon class="cls-3" points="74.93 153.52 22.56 230.16 25.18 233.46 125.05 230 89.17 164.09 78.5 151.62 74.93 153.52"/>
      <path class="cls-2" d="M106.99,190.87c3.5.51,2.58,5.9,6.25,6.23.1,3.85,2.07,5.65,4.51,6.91-.28,4.06,2.01,5.28,4.46,6.32.28,1-.4,1.13-1.12,1.24.83.82,2.79,1.35,1.33,2.9.46-.34.95-.66,1.75-.68.27,1.19-.03,1.86-1.1,1.84,1.19,1.5,4.61,4.74,2.67,5.81.6,1.01,1.92,1.22,3.61,1.01.33,4.85,3,7.12,2.99,12.34-.57-.34-2.25-1.28-1.74.67-1.07-1.11-4.13-.02-4.26-2.16-1.32,2.34-4.07-1.55-7.06,1.54-1.8.3-1.34-1.87-1.94-2.88-1.7.6.84,1.46.15,2.97-.46-.39-2-2.41-1.78.09-8.28-.58-20.59-.63-27.92.18-.03-.58-.06-1.18-.09-1.77-2.68,1.58-5.81,1.89-8.31.41-1.61,2.32-12.64,2.38-16.02.8-6.51,3.75-21.02.23-24.17,4.16-5.11-2.87-13.92.37-20.31-1.96-.6-1.86.4-2.28,1.04-3.03-2.39-.09-.99-.46-1.38-4.09,2.77-.9,3.9-3.26,3.83-6.73,2.75.43,1.2-3.05,4.03-2.58-.52-1.8-.47-1.12-.15-2.97,4.03.45,1.59-4.98,5.1-5.01-.41-.58-1.39-.54-1.28-1.72,2.39.65,1.12-2,3.51-1.36-.06-.99-.1-1.98-.15-2.97.51-.49,1.31-.7,2.34-.7,3.47-8.95,9.98-15.13,13.68-23.86,2.05-.03,2.7-1.34,2.2-3.68,1.74.07,1.75-1.43,3.51-1.36,1.44-7.95,9.01-10.36,10.39-18.36,6.51-1.46,4.95-10.23,11.29-11.85-.41-.58-1.39-.55-1.28-1.72,1.95-.12,2.9-1.15,5.32-.85,2.66,1.88-.7,3.06,3.11,2.81-2.46,2.68.76,10.53,3.43,9.34.88.15.16,4.49,3.17,4.01-.33,1.83.73,2.14.78,3.53,7.63,6.37,9.09,19.56,16.74,25.91.26,1-.41,1.15-1.13,1.25ZM72.33,163.46c-1.88.82-.54-1.9-2.44-1.07-.9.3-.41,1.9-2.29,1.31-.73,3.12-1.47,6.22-4.4,7.35-.7,3.28,1.67,3.15,2.61,4.62-4.12,3.02-4.14,12.7-11.42,9.48.67,1.77,2.84,1.86,3.17,4.01-1.57.8-2.72,1.12-3.5,1.36,2.53,2.06-.67,1.55-1.64,3.05-2.53,3.94-3.91,10.12-8.35,11.12-.16,2.87-1.2,4.96-3.89,5.53,1.5,3.08-.87.43-1.7,1.88,3.82.72-2.44,2.6.21,4.15-4.22.89-3.18,6.55-6.11,8.63-.38-1.03.55-3.52-.77-3.54,0,.93.19,2.05-1.1,1.84-.64,1.95,1.94.35,1.31,2.3-2.46.61-2.01,3.85-3.29,5.53,6.18-1.37,16.23-1.48,23.13-1.15.11-.46-.04-1.17.53-1.22,23.01,2.1,41.35-1.48,69.45-2.24-1.29-6.23-6.8-9.23-8.96-12.64-.71-5.27-5.69-5.8-5.91-11.6-2.66.4-2.29-2.11-1.97-3.47-2.36.06-4.51-3.77-2.6-4.62-1.85,1-1.99-.35-3.62-1.01-4.29-12.95-14.51-22.09-19.43-32.33.03.6-1.01.8-1.18.05.72-.09,1.39-.24,1.13-1.24-1.65.57-1.58-.76-3-.44-2.87,4-4.15,9.46-8.94,11.73,1.25,2.03-.43,2.88-1.57,4.24-.72-2.35-.14-4.62.87-6.59.98-.03.4,1.63,1.27,1.72.13-2.55,2.17-7.39,3.91-4.94-.06-.82.22-1.32.5-1.81Z"/>
    </g>
    <text class="cls-1" transform="translate(55.29 220.23)"><tspan x="0" y="0">54</tspan></text>
  </g>
  <g>
    <path class="cls-4" d="M329.79,149.15c-6.43-3.25-39.45-19.68-81.69-19.2-42.25.49-60.92,7.06-63.96,9.12-3.04,2.06-39.58,11.62-46.84,36.34-7.26,24.72-.96,28.63.48,32.41,9.19,24.22,40.84,14.16,51.24,24.63,11.26,11.33-1.92,20.46,31.35,28.05,64,14.62,77.12-24.73,84.62-31.34s43.44-9.67,47.65-36.13c4.21-26.45-22.85-43.89-22.85-43.89Z"/>
    <g>
      <path d="M310.38,192.47c-1.93,1.3-4.04,1.67-6.27,1.5-3.39-.26-4.62-1.69-4.54-5.31,0-.31,0-.62.01-1.29-.64.64-1.07,1.12-1.54,1.53-1.36,1.19-2.74,2.38-4.13,3.53-.32.27-.71.46-1.09.6-2.35.9-4.05-.51-3.83-3.16.05-.55.15-1.1.26-1.9-.63.36-1.11.57-1.52.88-1.42,1.1-3,1.73-4.74,1.91-1.42.14-2.5.79-3.43,2.02-1.16,1.53-2.25,3.06-2.97,4.9-.41,1.04-1.07,1.96-1.61,2.93-2.71,4.87-3.89,10.26-4.7,15.79-.11.74-.27,1.5-.58,2.16-.33.73-.99,1.1-1.78.85-.83-.26-1.06-.95-.96-1.79.14-1.13.27-2.26.51-3.37.8-3.69,1.3-7.45,2.54-11.03,1-2.89,1.73-5.89,2.64-9.05-.6.11-1.03.2-1.47.27-.93.16-1.85.41-2.78.44-2.21.07-2.79-.47-3.24-3.04-.95.56-1.84,1.12-2.75,1.61-2.73,1.47-5.45,2.98-8.23,4.36-2.03,1.01-3.71.4-5.13-1.58-1.87,1.1-3.71,2.2-5.58,3.26-1.08.62-2.26.69-3.45.51-2.31-.36-3.45-1.96-3.03-4.4.48-2.81,1.22-5.51,2.58-8.02,2.28-4.2,4.4-8.5,6.15-13,.29-.74.72-1.45,1.21-2.07.2-.25.86-.39,1.08-.23.31.23.58.8.56,1.21-.02.61-.28,1.22-.47,1.82-1.12,3.53-2.29,7.01-4.07,10.26-1.63,2.98-3.3,6.01-3.84,9.52-.07.43-.11.86-.17,1.3.81.8,1.6.37,2.33.04,3.29-1.47,5.94-3.82,8.11-6.83.22-.3.4-.63.64-.9.47-.54,1.05-.86,1.74-.55.73.33,1.12.98,1,1.82-.11.74-.36,1.46-.59,2.17-.27.81-.58,1.61-.91,2.51.37.05.56.14.69.08,4.33-2.15,8.69-4.24,12.56-7.28,1.97-1.55,4.22-2.17,6.62-2.33,1.84-.12,3.54.15,4.71,1.82,2.29-.6,2.39-.56,3.38,1.31,3.12.12,5.72-1.27,7.89-3.36,1.78-1.71,3.2-3.85,4.71-5.87,2.43-3.26,4.76-6.6,7.2-9.84.97-1.29,1.83-1.43,2.53-.75.71.69.64,1.57-.27,2.87-2.38,3.38-4.81,6.72-7.15,10.13-1.43,2.09-2.38,4.94-2.88,8.08,1.14-.48,1.95-1.22,2.74-2.02,1.45-1.48,2.92-2.93,4.4-4.37.3-.29.67-.53,1.03-.72,1.57-.83,2.9.09,2.77,1.98-.07,1.07-.32,2.12-.46,3.19-.08.56-.12,1.13-.16,1.7-.04.65.2,1.03.82,1.25,2.49.89,5.16-.34,6.36-2.87,1.76-3.72,3.6-7.39,5.4-11.09.21-.44.39-.89.64-1.5-1.8.16-3.43.32-5.06.45-1.94.15-3.88.3-5.82.42-.77.05-1.54.04-2.13-.81.68-.92,1.7-1.1,2.62-1.3,2.48-.54,4.98-.98,7.47-1.44,1.33-.25,2.67-.51,4.01-.67.79-.09,1.25-.48,1.69-1.15,1.27-1.98,2.6-3.91,3.91-5.85.17-.26.35-.52.56-.73.75-.75,1.6-.79,2.2-.14.61.67.6,1.71-.01,2.48-.46.58-.96,1.13-1.32,1.77-.47.83-.83,1.74-1.38,2.93,1.19-.04,2-.07,2.81-.11,3.7-.18,7.41-.36,11.11-.57,1.41-.08,2.82-.23,4.23-.32,1.48-.1,2.27.34,2.41,1.29.15,1.05-.57,1.8-2.14,1.96-1.99.2-4,.27-5.99.38-4.29.23-8.59.45-12.88.65-.67.03-1.11.31-1.38.96-.31.75-.8,1.46-.94,2.24-.5,2.85-1.82,5.33-2.89,7.93-1.79,4.34-3.51,8.7-5.36,13.01-2.02,4.71-4.16,9.35-6.26,14.02-.13.28-.26.67-.48.77-.5.22-1.13.49-1.58.34-.36-.12-.74-.84-.76-1.3-.02-.66.2-1.37.47-1.99,1.53-3.49,3.11-6.95,4.65-10.44,1.05-2.38,2.08-4.77,3.11-7.16-.12-.08-.24-.16-.36-.25ZM273.17,190.23c-.04-.17-.07-.34-.11-.5-1.43-.16-2.54.48-3.33,1.92,1.15-.47,2.29-.94,3.44-1.42Z"/>
      <path d="M164.75,198.54c.77-.14,1.44-.31,2.13-.37,3.42-.26,6.83-.34,10.21.42.45.1,1.01.24,1.27.57.34.43.68,1.15.56,1.62-.12.47-.75.88-1.24,1.11-.33.15-.8-.03-1.21-.11-2.86-.56-5.74-.74-8.62-.35-1.16.16-2.29.57-3.44.81-1.82.37-2.46,1.73-2.66,3.5-.05.44-.06.89-.18,1.31-.42,1.43-1.51,1.72-2.57.71-.2-.19-.36-.41-.58-.67-.73,2.08-.11,3.74,1.64,4.6,2.52,1.23,5.23,1.39,7.8.71,5.37-1.42,10.77-2.96,15.5-6.17,2.72-1.85,5.24-4.09,7.69-6.35,1.77-1.63,2.6-4.02,3.54-6.28,1.62-3.89,1.5-7.84.64-11.88-.48-2.27-1.74-3.85-3.55-4.95-3.15-1.91-6.48-3.3-10.06-3.96-4.98-.91-9.96-.79-14.97-.35-3.25.29-6.43.72-9.5,1.97-3.62,1.47-6.82,3.7-9.82,6.29-.9.78-1.43,1.78-1.67,3.03-1.03,5.32.96,10.11,5.5,13.06.4.26.85.46,1.2.78.57.52.66,1.48.23,2.07-.43.59-.99.64-1.58.29-3.3-1.97-6.29-4.29-7.74-8.24-1.24-3.37-1.32-6.84-.16-10.21.45-1.29,1.41-2.52,2.42-3.42,5.73-5.06,12.18-8.39,19.71-8.79,3.7-.2,7.41-.36,11.12-.35,5.64,0,10.9,1.7,15.93,4.39,4.31,2.3,6.22,6.15,6.5,11.13,0,.13,0,.26.01.38.73,4.68-.72,8.87-2.59,12.94-1,2.18-2.45,3.97-4.1,5.65-5.87,5.98-13.06,9.12-20.67,11.45-2.58.79-5.15,1.22-7.84,1.06-1.99-.12-3.84-.7-5.56-1.7-2.35-1.37-3.87-5.08-2.89-7.68.81-2.14,1.93-4.25,3.94-5.44.95-.56,1.5-1.35,1.92-2.36,2.34-5.67,5.57-10.68,9.53-15.18.48-.55.87-1.19,1.32-1.78.3-.39.55-.9.94-1.1.41-.21,1.04-.3,1.42-.1.28.15.51.93.39,1.29-.37,1.12-.78,2.28-1.42,3.22-1.21,1.79-2.58,3.45-3.91,5.14-1.31,1.65-3.94,6.36-4.53,8.29Z"/>
      <path d="M246.66,144.32c1.1.24,3.17.66,5.24,1.15,4.13.99,8.23,2.06,12.16,3.86,4.23,1.93,7.94,4.67,11.58,7.58.75.61,1.48,1.25,2.2,1.91,1.71,1.57,2.97,3.47,3.32,5.88.12.81-.04,1.76-.33,2.54-.31.8-1.1.71-1.47-.08-.16-.33-.2-.73-.33-1.08-.67-1.86-1.63-3.5-3.07-4.79-5.2-4.67-10.85-8.54-17.38-10.64-3.77-1.21-7.63-2.18-11.52-2.84-2.1-.35-4.38-.09-6.49.37-8.29,1.82-15.69,5.78-22.18,11.55-2.05,1.82-3.59,4.32-5.36,6.51-.38.47-.71,1.02-1.16,1.41-.54.48-1.21.53-1.8.06-.6-.48-.68-1.17-.42-1.88.15-.41.4-.77.62-1.14,2.98-4.91,6.83-8.9,11.56-11.78,3.93-2.4,7.87-4.87,12.22-6.34,3.77-1.28,7.6-2.27,12.61-2.26Z"/>
      <path d="M227.6,196.81c-.53.37-1.05.74-1.59,1.1-1.58,1.05-3.23,1.77-5.16,1.63-1.5-.1-2.84-.35-3.35-2.37-1.21.74-2.28,1.39-3.34,2.05-1.5.93-3.05,1.62-4.82,1.66-1.44.03-2.73-.22-3.36-1.8-1.67.85-3.24,1.68-4.84,2.46-1.11.54-2.3.86-3.34-.05-1.08-.94-.81-2.31-.58-3.54.93-5.04,5.81-7.38,10.47-4.93.38-.39.77-.83,1.21-1.22.55-.48,1.18-.63,1.79-.15.67.53.77,1.26.38,2.02-.66,1.26-1.36,2.49-2.12,3.86,1.03.41,1.8.03,2.46-.37,2.45-1.48,5.15-2.59,6.87-5.18.17-.25.4-.47.63-.66.6-.49,1.24-.76,1.94-.23.66.5.85,1.21.63,2.01-.28,1.02-.61,2.02-.92,3.03.87.51,1.62.32,2.3-.06.94-.52,1.84-1.12,2.73-1.73,1.49-1.01,2.96-2.08,4.45-3.09.68-.46,1.43-.67,2.15-.11.78.6.88,1.48.59,2.38-.35,1.07-.67,2.18-1.21,3.14-2.05,3.66-3.43,7.63-4.68,11.65-1.11,3.59-1.96,7.27-2.9,10.91-.22.87-.57,1.54-1.52,1.54-.81,0-1.41-.67-1.41-1.83,0-.93.12-1.91.42-2.77.92-2.61,1.62-5.26,2.25-7.97.64-2.74,1.77-5.35,2.73-8,.39-1.09.9-2.13,1.36-3.19-.08-.06-.16-.12-.24-.18ZM199.74,199.13c2.36-.92,4.34-2.07,6-4.09-3.11-.77-5.26.71-6,4.09Z"/>
      <path d="M264.55,236.89c1.07.77,2.32,1.45,2.18,3.1-.12,1.45-2.23,3.45-3.77,3.58-1.03.08-2.07-.11-3.21-.18-.34-2.96-.59-5.73-1-8.46-.25-1.69,1.39-3.63,2.95-3.36.58.1,1.18.12,1.75.26,2.11.51,2.83,2.86,1.43,4.64-.11.14-.22.29-.34.44ZM260.35,238.47c.41,1.56.72,2.73,1.01,3.84,2.16.04,3.43-1.11,3.4-2.84-.01-.76-.31-1.24-1.03-1.22-1.03.02-2.07.13-3.38.22ZM260.62,232.94c-.06.65-.13,1.13-.15,1.62-.03.74-.02,1.48-.03,2.47,1.18-.42,2.13-.71,3.04-1.1.56-.23,1.03-.62.93-1.42-.1-.85-.49-1.45-1.3-1.54-.8-.08-1.6-.03-2.49-.04Z"/>
      <path d="M225.87,234.79c-.34,2.55.1,5.04-.93,7.26-.88-1.1-.46-2.31-.51-3.44-.05-1.2.02-2.4.03-3.6.01-1.18.02-2.35.03-3.43,1.11-.48,1.36.3,1.68.85.92,1.54,1.8,3.1,2.71,4.65.18.3.38.58.73,1.11.54-2.35.1-4.58.75-6.62.98.27.81.93.79,1.45-.14,2.83.09,5.72-.96,8.96-1.71-2.48-2.37-5.17-4.33-7.2Z"/>
      <path d="M236.71,231.19c2.01,2.57,2.72,5.44,4.49,7.94.35-2.41.65-4.54.98-6.66,0-.04.21-.05.53-.13.09.44.29.89.26,1.32-.16,2.08-.38,4.15-.61,6.22-.04.37-.17.75-.35,1.07-.3.56-.77.6-1.17.15-.32-.36-.56-.81-.79-1.25-.77-1.49-1.51-2.99-2.42-4.8-.13.68-.25,1.05-.26,1.42-.04,1.45-.04,2.91-.08,4.36-.02.54.05,1.19-.81,1.29-.11-.16-.35-.35-.35-.54,0-2.91.02-5.81.08-8.72,0-.4.23-.79.5-1.65Z"/>
      <path d="M242.39,255.09c-.02-1.24.44-2.58,1.16-3.84,1.18-2.09,3.12-2.19,4.62-.32,2.23,2.78,1.34,4.8.09,6.66-1.11,1.66-2.39,2.08-3.99,1.43-1.38-.56-1.95-1.67-1.89-3.94ZM246.28,257.97c.68-1.02,1.33-1.84,1.81-2.76.57-1.1.26-2.29-.65-3.02-.78-.62-2.03-.72-2.63-.2-.68.58-1.16,3.85-.67,4.65.09.15.24.28.39.37.51.29,1.03.56,1.76.96Z"/>
      <path d="M218.93,241.59c-1.45-.69-.81-2.24-1.5-3.43-.7.3-1.53.54-2.24,1-.38.25-.6.84-.82,1.32-.44.98-.46,2.21-1.65,3.04-.13-.52-.33-.91-.28-1.26.06-.49.38-.93.46-1.42.12-.72.14-1.46.22-2.42.61-.19.87-1.01,1.03-1.89.25-1.29.43-2.6.73-3.88.33-1.38,1.12-1.65,1.97-.61.6.73,1.13,1.66,1.34,2.6.45,2.01.68,4.08.97,6.12.03.21-.12.45-.23.81ZM217.51,236.77c-.3-1.1-.58-2.12-.86-3.14-.85,1.3-1.33,2.58-1.35,4.17.77-.36,1.4-.65,2.21-1.03Z"/>
      <path d="M251.62,231.38c1.75,2.98,1.99,6.13,3.14,8.91.08.2-.11.54-.21.94-1.38-.68-1.18-2.23-1.98-3.28-1.74.66-3.73.91-4.29,3.41-.09.39-.48.71-.73,1.06-.14-.05-.28-.1-.41-.14-.02-.45-.17-.95-.04-1.34,1.02-3.28,2.21-6.48,4.54-9.56ZM251.5,233.66c-.5,1.47-.88,2.61-1.34,3.99.86-.38,1.48-.65,2.25-.98-.28-.94-.55-1.81-.91-3.01Z"/>
      <path d="M282.5,235.42c-1.65-2.5-3.9-2.52-5.04-.04,1.08.58,2.15,1.24,3.27,1.74.89.4,1.5.95,1.65,2.01.16,1.14-.26,2.04-1.16,2.54-1.09.6-2.26,1.04-3.4,1.52-.2.09-.47.07-.69.02-.53-.13-.87-.55-.66-1.1.1-.26.64-.54.91-.48,1.41.32,2.5-.41,3.49-1.26.76-.66.51-1.51-.48-2.04-1.05-.56-2.11-1.11-3.14-1.69-1.01-.57-1.2-1.21-.73-2.3.73-1.71,2.63-2.5,4.5-1.78.6.23,1.16.62,1.66,1.06.6.52.55.66-.15,1.81Z"/>
      <path d="M236.71,252.76c-.84-.99-1.33-1.8-2.4-1.63-.69.11-1.15.38-1.17,1.12-.05,1.5-.04,3-.06,4.67,1.46.02,2.77.03,4.11.05-.29,1.38-1.52,2.23-2.74,2.05-1.78-.26-2.98-1.62-3.09-3.55-.09-1.54.11-3.03.73-4.43.5-1.13,1.35-1.49,2.47-1.34,1.13.16,2.03.66,2.42,1.87.07.22-.11.53-.27,1.19Z"/>
      <path d="M208.4,234.2c-.36-.11-.72-.21-1.08-.32-.5-.16-.98-.43-1.49-.48-1.32-.14-1.92.23-2.2,1.57-.35,1.71-.68,3.52.71,4.96,1.16,1.2,2.25,1.08,3.29-.26.27-.35.59-.65,1.02-1.12.16,1.82-.48,2.95-1.74,3.23-2.07.46-3.55-.39-4.31-2.33-.73-1.84-.61-3.83.23-5.69.52-1.14,1.39-1.7,2.54-1.68,1.26.03,2.45.28,3.15,1.6.04.07-.05.23-.12.51Z"/>
      <path d="M259.35,179.71c-.6,2.11-1.63,3.62-3.15,4.69-.31.22-1.02.22-1.28-.02-.34-.3-.66-1.02-.55-1.43.43-1.72,1.15-3.32,2.43-4.52.53-.49,1.23-.67,1.78-.13.39.38.57,1.01.78,1.41Z"/>
      <path d="M270.75,241.69c-.09-2.69-.3-5.38,0-8.31.81.62,1.34,1.16,1.32,2.05-.06,1.81-.14,3.63-.27,5.43-.02.34-.32.66-.49.98-.18-.05-.37-.11-.55-.16Z"/>
      <path d="M251.37,258.68c.12-1.48.58-2.01,1.36-1.92.71.08,1.14.66,1.07,1.41-.09.83-.99,1.66-1.73,1.41-.36-.12-.57-.73-.69-.9Z"/>
    </g>
  </g>
</svg>