<?xml version="1.0" encoding="UTF-8"?>
<svg id="Layer_1" xmlns="http://www.w3.org/2000/svg" viewBox="0 0 400 400">
  <defs>
    <style>
      .cls-1 {
        stroke-width: 3.44px;
      }

      .cls-1, .cls-2 {
        fill: #fff;
      }

      .cls-1, .cls-2, .cls-3, .cls-4 {
        fill-rule: evenodd;
      }

      .cls-1, .cls-5 {
        stroke: #231f20;
      }

      .cls-6 {
        font-family: AmericanTypewriter-CondensedBold, 'American Typewriter';
        font-size: 42.62px;
        font-weight: 700;
        letter-spacing: -.02em;
      }

      .cls-6, .cls-5 {
        fill: #231f20;
      }

      .cls-5 {
        font-family: 'Jay_San-Serif', Jay_San-Serif;
        font-size: 21.2px;
        stroke-miterlimit: 10;
        stroke-width: .82px;
      }

      .cls-4 {
        fill: #f9ed32;
      }
    </style>
  </defs>
  <g>
    <path class="cls-1" d="M211.62,122.93s-51.59,15.47-58.46,24.07c-6.88,8.6-25.79,87.69-17.2,102.31,8.6,14.61,109.18,47.28,191.72,6.02,0,0,18.05-11.18,15.47-24.93-2.58-13.76-5.15-67.92-25.79-83.39-20.63-15.48-33.52-30.95-105.74-24.07Z"/>
    <g>
      <path class="cls-3" d="M156.66,240.62c-.81.4-1.14,1.01-1.53,1.58-.31.46-.67.88-1.01,1.31-.1.13-.24.22-.34.34-.9,1.01-1.78,2.06-2.7,3.05-.42.45-.92.81-1.38,1.23-.68.62-1.76,0-1.8-1.02-.02-.57.09-1.19.3-1.7.28-.68.73-1.27,1.08-1.92.36-.66.71-1.33,1.06-2.01-.06-.07-.11-.13-.17-.2-.28.21-.58.4-.84.64-1.13,1.03-2.23,2.13-3.39,3.11-.81.69-1.58,1.54-2.66,1.71-.44.07-.95.29-1.25-.23-.32-.54-.35-1.1-.05-1.75.72-1.55,1.71-2.85,2.72-4.13.95-1.2,1.91-2.4,2.86-3.6.1-.12.19-.26.25-.44-.64.16-1.15.6-1.68.99-.99.73-1.97,1.48-3.01,2.1-.96.58-1.98,1-2.98,1.49-.4.2-.78.19-1.07-.2-.26-.35-.44-.78-.18-1.24.3-.55.58-1.15.98-1.59.93-1.03,1.92-2,2.89-2.98.65-.67,1.3-1.35,1.97-1.98,1.21-1.14,2.42-2.29,3.66-3.39.95-.84,1.98-1.58,2.95-2.38.86-.7,1.64-1.5,2.6-2.04.53-.31.92-.9,1.01-1.64.07-.6-.17-.91-.66-.74-.89.32-1.75.74-2.61,1.14-1.37.63-2.73,1.3-4.1,1.88-.44.18-.95.17-1.43.15-.63-.03-.9-.5-.58-1.13.74-1.43,1.45-2.9,2.78-3.75,2.98-1.91,6.17-3.16,9.54-3.79.63-.12,1.33-.09,1.96.07,1.86.47,2.75,2.32,2.2,4.43-.1.37-.2.73-.28,1.09-.02.05.03.13.07.26.12-.03.28,0,.39-.09.58-.43,1.14-.91,1.72-1.34.7-.53,1.4-1.08,2.13-1.55,1.19-.75,2.43-1.38,3.59-2.17,1.09-.74,2.1-1.64,3.17-2.42,1.09-.8,2.18-1.62,3.33-2.3,2.12-1.25,4.29-2.41,6.44-3.58.54-.29,1.13-.52,1.71-.67,1.78-.48,3.54-1.25,5.41-1.1,1.56.13,3.14.24,4.68.55.7.14,1.35.71,2.01,1.14.66.42,1.27.94,1.93,1.36.89.57,1.11.47,1.64-.55.68-1.34,1.33-2.7,2.08-3.99.43-.74,1.06-1.33,1.52-2.05,1.43-2.25,3.22-4,5.36-5.3,1.95-1.18,3.85-2.47,5.8-3.63,1.01-.6,2.11-1.02,3.16-1.53,1.5-.72,3.01-1.41,4.49-2.19,1.37-.72,2.73-1.53,4.27-1.61.8-.04,1.62.11,2.43.25,1.4.23,2.8.49,4.2.78,1.16.23,1.69,1.08,1.82,2.45.22,2.25-.34,4.32-.96,6.39-.28.95-.6,1.88-.91,2.82-.06.19-.16.37-.25.55-.59,1.16-1.2,2.3-1.76,3.47-.4.85-.97,1.02-1.43.28-.48-.78-1.06-.71-1.69-.45-.46.19-.85.34-1.37.04-.28-.16-.77,0-1.11.18-.94.48-1.85,1.02-2.77,1.54-1.71.96-3.46,1.83-5.1,2.92-2.05,1.38-4.06,2.85-5.86,4.68-.83.85-1.76,1.59-2.61,2.42-1.91,1.85-3.47,4.05-4.94,6.35-.43.67-.86,1.34-1.31,1.99-.5.74-.92.81-1.64.42-1.24-.69-2.47-1.38-3.87-1.65-.84-.17-1.68-.57-2.47-.98-1.81-.95-3.7-1.54-5.67-1.66-1.83-.11-3.68-.06-5.52-.07-.3,0-.6.07-.89.14-1.66.37-3.32.72-4.97,1.14-.83.2-1.64.5-2.44.81-1.03.39-2.03.89-3.07,1.24-.9.31-1.52.9-1.99,1.82-1.16,2.28-2.3,4.56-3.54,6.78-.68,1.22-1.52,2.32-2.33,3.44-1.07,1.5-2.12,3.02-3.28,4.43-.75.92-3,4.57-4.05,5.15-.34.19-.62.55-.93.83-.16.15-.32.35-.5.41-.48.15-.9.31-1.11.92-.06.18-.5.36-.69.28-.33-.15-.74-.38-.76-.92,0-.2.04-.41.08-.62.31-1.67,2.21-5.9,3.02-7.37.11-.19.12-.45.24-.9Z"/>
      <path class="cls-3" d="M263.77,182.15c-2.26,2.28-4.92,3.59-7.34,5.25-2.21,1.52-4.72,2.43-7.28,3.19-3.71,1.1-7.47,1.86-11.31,1.97-2.29.06-4.58-.14-6.87-.22-.3-.01-.61-.03-.9,0-2.59.3-5.05-.56-7.56-1.05-.58-.11-1.17-.13-1.77-.17-.3-.02-.62.04-.89-.06-1.46-.55-2.9-1.12-4.33-1.74-.9-.39-1.76-.89-2.65-1.33-1.98-.97-3.68-2.37-5.3-3.91-.51-.48-1.09-.89-1.67-1.26-.61-.4-.85-.23-.93.56-.12,1.1-.24,2.18-.32,3.28-.18,2.2-1.52,3.41-3.19,4.2-.91.43-1.95.55-2.95.69-1.33.18-2.74-1.09-2.79-2.57-.04-1.29.1-2.6.17-3.9.05-.94.1-1.87.17-2.8.12-1.79-.06-3.67.42-5.33.77-2.62.47-5.32.93-7.95.26-1.49.03-3.08.06-4.62.01-.73.1-1.46.17-2.19.06-.52.2-1.04.18-1.56-.05-2.06.29-4.03.91-5.98.49-1.53.84-3.12,1.29-4.66.37-1.25.97-2.31,1.92-3.22.93-.91,1.64-2.09,2.44-3.15.24-.31.42-.69.71-.93,1.78-1.53,3.45-3.25,5.66-4.1.14-.05.31-.08.41-.18,1.07-1.06,2.49-1.26,3.78-1.78,1.58-.63,3.13-1.32,4.71-1.95.63-.25,1.31-.4,1.95-.57,1.94-.51,3.87-.92,5.87-1.05,2.55-.16,5.08-.33,7.64-.18,1.16.06,2.32-.11,3.49-.03,2.2.16,4.41.39,6.61.68.92.12,1.8.6,2.72.75,2.18.34,4.39.56,6.57.85,2.17.29,4.32.8,6.26,1.89,1.43.81,2.55,2.15,3.46,3.62.86,1.38,1.66,2.81,2.46,4.23.42.77.85,1.54,1.17,2.36.58,1.54,1.24,3.07,1.61,4.68.77,3.41,1.19,6.87,1.4,10.38.19,3.09.58,6.16.84,9.24.1,1.29.09,2.6.17,3.9.1,1.71.16,3.42.4,5.1.11.82.57,1.58.9,2.35.38.88.82,1.74,1.19,2.63.46,1.12.37,2.17-.55,2.97-.98.85-1.88,1.83-3.07,2.42-1.7.83-5.01-.18-5.52-2.69-.34-1.71-.8-3.38-1.2-5.07-.07-.27-.14-.54-.26-.97ZM207.73,180.81c.26.56.41,1.06.7,1.43,1.17,1.52,2.63,2.71,4.26,3.54,1.76.91,3.58,1.69,5.41,2.42.97.39,1.98.7,3.06.7.61,0,1.21.39,1.82.6.61.21,1.19.47,1.8.6,1.54.35,3.1.61,4.7.46.32-.03.67.09,1,.09,2.02.02,4.08.27,6.06-.02,3.12-.45,6.2-1.22,9.29-1.96,1.79-.42,3.51-1.19,5.31-1.54,3.84-.76,6.87-3.09,9.82-5.62.61-.53,1.2-1.11,1.86-1.55.76-.5,1.14-1.13,1.09-2.09-.06-1.06-.08-2.11-.1-3.17-.04-2.39-.08-4.79-.09-7.18-.01-1.87-.04-3.73.04-5.59.09-2.03.29-4.05.45-6.08.16-2.19-.13-4.28-1.02-6.3-.45-1.01-1.12-1.6-1.99-2.02-.34-.17-.71-.28-1.07-.39-2.22-.64-4.45-1.15-6.77-.94-1.09.1-2.18.17-3.27.14-1.84-.05-3.67-.23-5.51-.29-1.38-.04-2.67-.43-3.89-1.11-.25-.14-.51-.35-.69-.6-1.33-1.81-3.12-3.17-4.24-5.19-.05-.08-.18-.11-.39-.24-.26.65-.58,1.25-.73,1.9-.39,1.53-1.21,2.72-2.3,3.68-1.24,1.08-2.57,1.98-4.29,1.66-.43-.08-.9.04-1.34.04-1.01,0-2.02,0-3.03-.03-.56-.02-1.12-.14-1.68-.11-1.35.08-2.69.2-4.04.36-1.19.14-2.4.21-3.54.56-1.45.43-2.85,1.03-4.22,1.71-.87.44-1.72,1.03-2.4,1.76-.95,1.03-1.76,2.22-2.54,3.41-.38.58-.63,1.3-.8,1.99-.31,1.34-.51,2.71-.79,4.06-.66,3.17-.65,6.38-.56,9.6.08,2.63.83,5.13,1.26,7.69.13.72.24,1.45.45,2.14.1.35.36.79.64.89.76.28,1.57.4,2.26.57Z"/>
      <path class="cls-3" d="M312.99,241.81c.81,1.47,2.1,5.11,2.42,6.77.04.2.08.41.08.62-.02.54-.42.77-.77.92-.18.08-.62-.1-.68-.28-.21-.62-.63-.77-1.1-.92-.2-.06-.35-.26-.52-.41-.3-.28-.58-.64-.92-.83-1.05-.58-2.69-3.63-3.45-4.56-1.15-1.41-2.2-2.93-3.27-4.43-.81-1.12-1.65-2.22-2.34-3.44-1.24-2.21-2.39-4.5-3.54-6.78-.47-.92-1.09-1.51-1.99-1.82-1.05-.35-2.05-.85-3.08-1.24-.8-.31-1.61-.6-2.43-.81-1.66-.41-3.32-.77-4.98-1.14-.29-.07-.59-.14-.89-.14-1.84,0-3.69-.04-5.52.07-1.97.12-3.86.71-5.67,1.66-.79.41-1.62.82-2.47.98-1.4.27-2.63.96-3.87,1.65-.72.4-1.14.33-1.64-.41-.45-.66-.87-1.33-1.31-2-1.47-2.29-3.04-4.5-4.95-6.35-.85-.82-1.76-1.57-2.61-2.42-1.8-1.83-3.81-3.3-5.86-4.68-1.64-1.09-3.39-1.96-5.1-2.92-.92-.52-1.83-1.07-2.77-1.54-.34-.17-.83-.34-1.1-.18-.52.3-.91.15-1.37-.05-.62-.25-1.21-.33-1.69.45-.46.75-1.01.57-1.43-.28-.56-1.18-1.17-2.32-1.76-3.48-.09-.18-.19-.36-.26-.55-.31-.94-.63-1.87-.91-2.82-.6-2.07-1.17-4.14-.95-6.39.14-1.36.67-2.22,1.83-2.45,1.39-.28,2.79-.55,4.19-.78.81-.13,1.62-.29,2.42-.25,1.54.08,2.89.89,4.26,1.61,1.48.78,3,1.46,4.5,2.19,1.05.5,2.14.93,3.15,1.52,1.95,1.16,3.85,2.44,5.8,3.63,2.14,1.3,3.93,3.05,5.36,5.3.46.72,1.09,1.31,1.51,2.05.76,1.29,1.41,2.66,2.09,4,.52,1.01.74,1.11,1.64.55.65-.42,1.27-.94,1.93-1.36.65-.42,1.3-.99,2.02-1.13,1.54-.31,3.11-.43,4.68-.55,1.87-.15,3.62.62,5.41,1.1.59.16,1.17.38,1.71.68,2.15,1.16,4.32,2.33,6.44,3.57,1.15.68,2.23,1.5,3.33,2.3,1.07.78,2.08,1.68,3.16,2.42,1.17.79,2.41,1.42,3.6,2.17.73.47,1.42,1.02,2.13,1.55.58.44,1.14.9,1.72,1.34.1.08.26.06.38.09.04-.13.09-.2.08-.26-.09-.36-.2-.73-.3-1.09-.56-2.11.34-3.97,2.2-4.44.63-.16,1.32-.19,1.96-.07,3.36.63,6.55,1.88,9.53,3.79,1.33.85,2.06,2.32,2.79,3.75.32.63.05,1.1-.58,1.13-.48.02-.99.04-1.43-.15-1.38-.58-2.73-1.25-4.1-1.88-.87-.4-1.73-.82-2.61-1.14-.49-.18-.73.14-.66.73.09.75.47,1.34,1.01,1.65.96.54,1.74,1.34,2.59,2.04.98.81,2,1.54,2.96,2.38,1.24,1.09,2.45,2.24,3.65,3.38.67.64,1.33,1.32,1.98,1.98.97.99,1.96,1.95,2.89,2.99.4.44.68,1.04.98,1.59.26.46.09.88-.18,1.24-.29.39-.67.41-1.07.21-.99-.49-2.02-.92-2.97-1.5-1.05-.63-2.03-1.37-3.01-2.1-.54-.39-1.03-.83-1.67-.99.06.19.15.32.24.44.95,1.2,1.91,2.4,2.87,3.6,1.01,1.29,2,2.58,2.72,4.14.3.65.27,1.22-.05,1.75-.31.51-.82.29-1.27.23-1.07-.17-1.83-1.02-2.65-1.71-1.17-.98-2.26-2.07-3.4-3.11-.26-.24-.55-.42-.83-.64-.06.06-.12.13-.17.2.35.67.7,1.35,1.06,2.01.35.65.79,1.24,1.08,1.92.21.51.32,1.14.3,1.7-.03,1.01-1.12,1.64-1.8,1.02-.46-.42-.96-.78-1.38-1.23-.92-.99-1.8-2.03-2.7-3.05-.11-.12-.24-.22-.34-.34-.34-.43-.7-.85-1.02-1.31-.38-.57-.72-1.18-1.52-1.58.12.45.14.71.24.9Z"/>
      <path class="cls-2" d="M207.73,180.81c-.69-.17-1.5-.29-2.26-.57-.28-.11-.53-.55-.64-.89-.21-.69-.32-1.42-.45-2.14-.43-2.56-1.18-5.07-1.26-7.69-.09-3.22-.1-6.43.56-9.6.28-1.35.48-2.72.79-4.06.16-.69.42-1.41.8-1.99.78-1.19,1.59-2.38,2.54-3.41.68-.73,1.53-1.32,2.4-1.76,1.36-.68,2.77-1.28,4.22-1.71,1.14-.34,2.34-.42,3.54-.56,1.34-.16,2.69-.27,4.04-.36.56-.03,1.12.09,1.68.11,1.01.02,2.02.03,3.03.03.44,0,.91-.13,1.34-.04,1.73.32,3.05-.58,4.29-1.66,1.09-.96,1.91-2.15,2.3-3.68.16-.65.47-1.25.73-1.9.21.12.34.15.39.24,1.12,2.02,2.91,3.39,4.24,5.19.18.24.44.45.69.6,1.22.68,2.51,1.07,3.89,1.11,1.84.06,3.67.23,5.51.29,1.09.03,2.18-.05,3.27-.14,2.32-.21,4.55.31,6.77.94.37.11.73.22,1.07.39.87.42,1.54,1.01,1.99,2.02.89,2.02,1.19,4.11,1.02,6.3-.16,2.03-.36,4.05-.45,6.08-.08,1.86-.06,3.73-.04,5.59,0,2.39.05,4.79.09,7.18.02,1.06.04,2.11.1,3.17.05.97-.32,1.6-1.09,2.09-.66.44-1.25,1.02-1.86,1.55-2.95,2.52-5.98,4.85-9.82,5.62-1.8.36-3.52,1.12-5.31,1.54-3.08.74-6.16,1.5-9.29,1.96-1.98.29-4.04.04-6.06.02-.33,0-.68-.13-1-.09-1.6.15-3.15-.11-4.7-.46-.61-.13-1.2-.39-1.8-.6-.6-.21-1.21-.6-1.82-.6-1.08,0-2.09-.31-3.06-.7-1.83-.74-3.64-1.52-5.41-2.42-1.64-.84-3.09-2.02-4.26-3.54-.28-.37-.43-.87-.7-1.43ZM234.81,173.67c0-.09,0-.18-.01-.28-1.98.06-3.98.1-5.95.21-1.23.06-2.48.16-3.7.37-1.26.21-2.5.53-3.74.88-.44.13-.98.37-1.21.75-1,1.57-1.87,3.22-2.81,4.83-.3.53-.21.97.22,1.27,1.01.71,1.81,1.91,3.22,1.8.1,0,.22.06.32.1,2.03.64,4.1.91,6.22,1.03,1.66.1,3.3.42,4.43,2,.09.12.23.21.34.32.95,1.04,2.02,1.04,3.21.55,1.02-.41,1.84-1.08,2.59-1.89.65-.69,1.37-1.08,2.3-1.11.55-.02,1.11-.18,1.66-.27.93-.15,1.86-.47,2.78-.42,1.86.09,3.57-.45,5.25-1.18.81-.34,1.64-.63,2.39-1.08.49-.3.92-.8,1.27-1.29.13-.17.09-.75-.06-.87-1.05-.83-1.2-2.23-1.81-3.33-.55-.98-1.19-1.55-2.16-1.74-1.03-.2-2.06-.4-3.11-.5-1.76-.18-3.52-.38-5.27-.39-2.14-.02-4.27.14-6.4.23ZM258.12,179.65c.55-.44.32-.96.19-1.45-.15-.58-.36-1.15-.5-1.74-.82-3.2-2.39-5.76-5.15-7.37-1.01-.59-1.9-1.4-2.44-2.48-.31-.59-.63-1.08-1.03-1.6-.67-.86-1.43-1.09-2.35-1.2-1.68-.18-3.37-.3-5.04-.6-2.47-.44-3.15-1.39-3.59-3.43-.2-.91-.27-1.85-.4-2.77-.05-.36-.03-.77-.18-1.07-.41-.78-.83-1.54-.91-2.47-.01-.16-.28-.36-.46-.41-.12-.04-.37.15-.42.3-.28.78-.6,1.57-.72,2.38-.24,1.57-.4,3.12-1.19,4.53-1.31,2.29-3.07,3.43-5.6,3.21-2.32-.21-4.36.58-6.15,2.18-.63.57-1.29,1.11-1.97,1.6-1.3.91-2.26,2.04-2.88,3.62-.75,1.96-1.9,3.67-3.4,5.1-.84.8-1.58,1.73-2.37,2.59-.34.36-.46.74-.11,1.18.34.43.72.59,1.19.26.13-.08.26-.18.36-.29,1.35-1.35,2.7-2.7,4.04-4.06.13-.14.21-.33.31-.5.78-1.28,1.56-2.58,2.37-3.85.29-.45.69-.82.99-1.16.5.18.89.45,1.27.42.77-.07,1.56-.24,2.31-.47,1.48-.45,2.96-.88,4.4-1.47,1.35-.55,2.36-.34,3.26.93.63.89,1.87,1.24,2.65.82.63-.34,1.27-.74,1.77-1.26.63-.65,1.31-.91,2.14-.81,1.19.15,2.39.27,3.58.47.77.13,1.51.46,2.28.6,1.13.19,2.19.78,3.41.49.51-.12,1.07.08,1.62-.19.2-.1.57.11.83.25.7.37,1.37.84,2.1,1.15,1.18.5,2.08,1.32,2.63,2.53.66,1.42,1.26,2.86,1.88,4.3.3.69.52,1.44,1.29,1.72ZM221.65,155.95c-2.71.3-5.33.87-7.55,2.75-.18.15-.38.27-.57.4-1.03.68-2.02,1.27-2.33,2.77-.22,1.08-.22,1.53.77,1.68.73.11,1.48.1,2.21.2,2,.28,4.02.56,6.02.91,1.13.2,2.15,0,3.17-.46,1.71-.76,2.99-2.16,4.41-3.34.38-.32.69-.75,1.02-1.13.34-.39.27-.74-.12-1.02-.18-.14-.41-.21-.61-.31-1.02-.51-2.02-1.07-3.06-1.51-1.09-.45-2.15-1.03-3.37-.92ZM249.04,156.28c-1.58-.13-2.98.32-4.23,1.33-.71.57-.66,1.07.07,1.59.87.62,1.74,1.25,2.43,2.12.2.24.41.5.66.65.83.46,1.41,1.18,1.98,1.95.42.57.88,1.11,1.34,1.65.48.56,1.04.81,1.79.82,1.6,0,2.99-.71,4.42-1.26.85-.33,1.62-.79,2.57-.72.2.01.57-.23.59-.4.16-1,.34-2.04-.3-2.93-1.46-2.03-3.2-3.67-5.65-4.07-1.29-.21-2.6-.31-3.9-.48-.59-.08-1.18-.16-1.78-.25ZM262.49,156.87c-.44-.85-.82-2.03-1.55-2.82-.82-.9-1.91-1.59-2.99-2.11-2.3-1.11-4.8-1.16-7.27-1.27-1.56-.08-3.05.32-4.54.68-1.17.28-2.3.77-3.42,1.2-.67.26-.93.93-1.1,1.6-.14.58.38.84.71,1.14.16.15.41.21.63.22.67.03,1.35.06,2.02.01,1.53-.1,3.06-.38,4.59-.33,2.28.09,4.56.35,6.83.64.95.12,1.9.46,2.83.78.82.28,1.6.68,2.41,1,.52.21.86,0,.87-.74ZM226.82,154.12c.77,1.22,1.62,1.6,2.52,1.23.69-.28.87-.67.67-1.42-.28-1.08-.83-1.96-1.85-2.28-1.05-.32-2.12-.61-3.19-.71-2.18-.19-4.35.05-6.47.65-1.67.47-3.34.94-4.97,1.55-.95.35-1.84.92-2.71,1.45-.57.34-1.05.8-.86,1.66.04.22-.12.53-.26.74-.17.26-.45.44-.62.71-.08.13-.11.45-.02.55.13.14.4.26.56.21,1.12-.34,2.22-.72,3.32-1.1,1.5-.51,2.96-1.14,4.49-1.54,1.05-.28,2.18-.13,3.22-.4,1.19-.32,2.37-.4,3.58-.42.84-.01,1.69.04,2.58.07,0-.33,0-.55.02-.93Z"/>
      <path class="cls-3" d="M234.81,173.67c2.13-.09,4.26-.25,6.4-.23,1.75.01,3.51.21,5.27.39,1.05.1,2.08.3,3.11.5.97.19,1.61.76,2.16,1.74.61,1.1.76,2.5,1.81,3.33.14.12.19.7.06.87-.35.49-.78.99-1.27,1.29-.75.44-1.58.73-2.39,1.08-1.68.72-3.39,1.27-5.25,1.18-.92-.05-1.85.26-2.78.42-.55.09-1.11.26-1.66.27-.93.03-1.66.42-2.3,1.11-.75.81-1.58,1.47-2.59,1.89-1.19.49-2.26.49-3.21-.55-.11-.11-.25-.19-.34-.32-1.13-1.58-2.77-1.91-4.43-2-2.12-.12-4.19-.39-6.22-1.03-.11-.04-.22-.11-.32-.1-1.41.11-2.2-1.09-3.22-1.8-.43-.3-.53-.75-.22-1.27.94-1.61,1.82-3.26,2.81-4.83.23-.38.77-.62,1.21-.75,1.23-.35,2.48-.68,3.74-.88,1.22-.21,2.46-.3,3.7-.37,1.98-.1,3.97-.14,5.95-.21,0,.09,0,.18.01.28ZM249.9,179.22c-1.23-.78-2.3-.92-3.42-.43-.38.16-.8.24-1.18.38-.55.2-.99.08-1.49-.23-.55-.34-1.16-.57-1.76-.79-2.09-.75-4.23-.56-6.36-.48-.3.01-.61.03-.89-.02-3-.5-5.92-.27-8.65,1.25-1.1.61-2.11.94-3.31.49-.57-.21-1.08-.05-1.5.71.41.2.73.37,1.07.51,1.28.53,2.59.24,3.89.18,1.31-.06,2.62-.25,3.92-.24,2.5.02,5.01.15,7.52.24.22,0,.44.03.67.06,3.64.47,7.18-.08,10.67-1.17.24-.07.45-.24.83-.45Z"/>
      <path class="cls-3" d="M258.12,179.65c-.78-.27-1-1.03-1.29-1.72-.63-1.44-1.23-2.88-1.88-4.3-.56-1.21-1.46-2.03-2.63-2.53-.73-.31-1.39-.78-2.1-1.15-.26-.14-.62-.34-.83-.25-.55.26-1.11.07-1.62.19-1.22.29-2.29-.3-3.41-.49-.77-.14-1.51-.46-2.28-.6-1.19-.2-2.38-.32-3.58-.47-.83-.1-1.51.16-2.14.81-.51.52-1.14.92-1.77,1.26-.79.42-2.02.07-2.65-.82-.9-1.27-1.91-1.48-3.26-.93-1.44.58-2.92,1.02-4.4,1.47-.76.23-1.54.4-2.31.47-.37.03-.76-.24-1.27-.42-.3.34-.7.71-.99,1.16-.81,1.26-1.59,2.56-2.37,3.85-.1.17-.18.37-.31.5-1.34,1.36-2.69,2.71-4.04,4.06-.1.11-.23.2-.36.29-.47.32-.85.17-1.19-.26-.34-.44-.22-.82.11-1.18.79-.86,1.53-1.79,2.37-2.59,1.5-1.43,2.65-3.13,3.4-5.1.61-1.58,1.58-2.72,2.88-3.62.68-.49,1.34-1.03,1.97-1.6,1.79-1.6,3.84-2.39,6.15-2.18,2.53.23,4.29-.91,5.6-3.21.79-1.41.95-2.96,1.19-4.53.12-.81.44-1.6.72-2.38.05-.15.31-.33.42-.3.18.05.45.26.46.41.07.94.49,1.69.91,2.47.15.3.13.71.18,1.07.13.93.2,1.86.4,2.77.44,2.04,1.12,2.99,3.59,3.43,1.66.29,3.35.41,5.04.6.91.11,1.68.34,2.35,1.2.4.52.72,1.01,1.03,1.6.54,1.08,1.43,1.89,2.44,2.48,2.77,1.61,4.34,4.17,5.15,7.37.15.58.35,1.15.5,1.74.13.49.36,1.01-.19,1.45Z"/>
      <path class="cls-3" d="M221.65,155.95c1.22-.11,2.28.47,3.37.92,1.04.44,2.04,1,3.06,1.51.2.1.42.17.61.31.38.28.46.63.12,1.02-.32.38-.63.81-1.02,1.13-1.41,1.19-2.7,2.58-4.41,3.34-1.03.46-2.05.66-3.17.46-2-.35-4.02-.62-6.02-.91-.73-.1-1.48-.09-2.21-.2-.99-.15-.99-.61-.77-1.68.31-1.5,1.31-2.09,2.33-2.77.18-.12.38-.25.57-.4,2.22-1.88,4.84-2.45,7.55-2.75ZM223.01,160.93c1.1-.24,1.86-.78,2.48-1.84-.36-.2-.67-.45-1-.52-.67-.14-1.51-.62-1.97.07-.46.71.1,1.51.49,2.29ZM217.71,162.6c.06-.1.12-.21.18-.31-.13-.31-.22-.68-.42-.92-.13-.16-.49-.28-.66-.2-.48.23-1,.45-1.34,1.25.83.07,1.53.12,2.24.18Z"/>
      <path class="cls-3" d="M249.04,156.28c.6.08,1.19.17,1.78.25,1.3.16,2.61.26,3.9.48,2.45.4,4.19,2.03,5.65,4.07.65.89.47,1.93.3,2.93-.03.17-.4.41-.59.4-.95-.07-1.72.4-2.57.72-1.43.55-2.83,1.27-4.42,1.26-.75,0-1.31-.25-1.79-.82-.46-.54-.92-1.07-1.34-1.65-.57-.77-1.15-1.49-1.98-1.95-.25-.14-.47-.4-.66-.65-.69-.86-1.56-1.5-2.43-2.12-.73-.52-.78-1.02-.07-1.59,1.25-1.01,2.65-1.46,4.23-1.33ZM258.93,162.65c-.79-1.35-1.48-2.43-2.87-3-.24,1.41-.47,2.72-.73,4.21,1.27-.42,2.34-.79,3.59-1.21ZM249.96,159.33c-.18.22-.4.39-.37.47.06.18.24.32.38.47.1-.15.25-.29.26-.44.02-.13-.14-.28-.28-.5Z"/>
      <path class="cls-3" d="M262.49,156.87c-.01.73-.35.95-.87.74-.81-.32-1.59-.72-2.41-1-.93-.32-1.87-.66-2.83-.78-2.26-.29-4.55-.55-6.83-.64-1.52-.05-3.05.23-4.59.33-.67.04-1.35.01-2.02-.01-.21-.01-.47-.07-.63-.22-.32-.3-.85-.57-.71-1.14.17-.66.43-1.34,1.1-1.6,1.13-.44,2.25-.92,3.42-1.2,1.49-.35,2.97-.75,4.54-.68,2.47.11,4.97.16,7.27,1.27,1.07.52,2.16,1.21,2.99,2.11.73.79,1.1,1.97,1.55,2.82Z"/>
      <path class="cls-3" d="M226.82,154.12c0,.38-.02.6-.02.93-.89-.03-1.74-.09-2.58-.07-1.2.02-2.39.1-3.58.42-1.04.28-2.18.12-3.22.4-1.52.4-2.99,1.03-4.49,1.54-1.1.38-2.2.76-3.32,1.1-.16.05-.43-.07-.56-.21-.08-.1-.06-.41.02-.55.17-.26.44-.44.62-.71.14-.21.3-.52.26-.74-.19-.86.28-1.32.86-1.66.88-.53,1.77-1.1,2.71-1.45,1.63-.6,3.3-1.08,4.97-1.55,2.12-.6,4.28-.84,6.47-.65,1.07.1,2.14.38,3.19.71,1.02.32,1.57,1.2,1.85,2.28.2.75.02,1.14-.67,1.42-.89.37-1.74-.01-2.52-1.23Z"/>
      <path class="cls-2" d="M250.22,178.24c-.4.22-.63.4-.88.48-3.74,1.17-7.55,1.76-11.46,1.25-.24-.03-.48-.05-.72-.06-2.69-.1-5.39-.24-8.08-.26-1.4-.02-2.81.19-4.21.26-1.4.07-2.81.37-4.18-.19-.36-.15-.71-.33-1.15-.55.46-.81,1.01-.98,1.62-.76,1.29.48,2.38.12,3.56-.53,2.92-1.63,6.06-1.88,9.29-1.34.31.05.63.03.95.02,2.3-.08,4.6-.29,6.83.52.65.23,1.31.47,1.9.84.53.34,1.02.46,1.6.25.42-.15.86-.23,1.27-.41,1.21-.52,2.35-.37,3.67.47Z"/>
      <path class="cls-2" d="M223.01,160.93c-.39-.79-.96-1.59-.49-2.29.46-.7,1.31-.21,1.97-.07.34.07.64.32,1,.52-.62,1.06-1.38,1.61-2.48,1.84Z"/>
      <path class="cls-2" d="M217.71,162.6c-.71-.06-1.41-.12-2.24-.18.34-.8.86-1.02,1.34-1.25.16-.08.53.04.66.2.2.25.28.61.42.92-.06.11-.12.21-.18.31Z"/>
      <path class="cls-2" d="M258.93,162.65c-1.25.42-2.32.78-3.59,1.21.25-1.49.48-2.8.73-4.21,1.39.57,2.07,1.66,2.87,3Z"/>
      <path class="cls-2" d="M249.96,159.33c.14.22.29.37.28.5-.01.16-.16.3-.26.44-.14-.15-.32-.29-.38-.47-.03-.08.19-.25.37-.47Z"/>
      <path class="cls-2" d="M251.37,159.1l-.48,2.61s-1.43-1.51-2.38-1.92c-.95-.41-1.55-.96-1.55-.96,0,0,4.05-.69,4.4.27Z"/>
      <path class="cls-2" d="M217.38,159.51s.36,2.88.95,3.02c.59.14-4.18-.14-4.65-.14s2.26-3.43,3.7-2.88Z"/>
      <text class="cls-5" transform="translate(169.94 247.07) rotate(21.41) scale(.87 1) skewX(-.09)"><tspan x="0" y="0">H</tspan></text>
      <text class="cls-5" transform="translate(178.86 250.52) rotate(18.31) scale(.87 1) skewX(-.1)"><tspan x="0" y="0">O</tspan></text>
      <text class="cls-5" transform="translate(187.77 253.43) rotate(15.4) scale(.87 1) skewX(-.11)"><tspan x="0" y="0">U</tspan></text>
      <text class="cls-5" transform="translate(196.96 255.91) rotate(12.75) scale(.87 1) skewX(-.11)"><tspan x="0" y="0">S</tspan></text>
      <text class="cls-5" transform="translate(204.52 257.59) rotate(10.39) scale(.87 1) skewX(-.12)"><tspan x="0" y="0">E</tspan></text>
      <text class="cls-5" transform="translate(211.87 258.93) rotate(7.75) scale(.87 1) skewX(-.12)"><tspan x="0" y="0"> </tspan></text>
      <text class="cls-5" transform="translate(216.1 259.55) rotate(6.32) scale(.87 1) skewX(-.12)"><tspan x="0" y="0">O</tspan></text>
      <text class="cls-5" transform="translate(225.4 260.52) rotate(3.56) scale(.87 1) skewX(-.13)"><tspan x="0" y="0">F</tspan></text>
      <text class="cls-5" transform="translate(232.45 260.95) rotate(.75) scale(.87 1) skewX(-.13)"><tspan x="0" y="0"> </tspan></text>
      <text class="cls-5" transform="translate(236.78 261.06) rotate(-.88) scale(.87 1) skewX(-.13)"><tspan x="0" y="0">H</tspan></text>
      <text class="cls-5" transform="translate(246.24 260.82) rotate(-3.26) scale(.87 1) skewX(-.13)"><tspan x="0" y="0">I</tspan></text>
      <text class="cls-5" transform="translate(249.76 260.68) rotate(-6) scale(.87 1) skewX(-.13)"><tspan x="0" y="0">M</tspan></text>
      <text class="cls-5" transform="translate(261.06 259.46) rotate(-10.76) scale(.87 1) skewX(-.12)"><tspan x="0" y="0">W</tspan></text>
      <text class="cls-5" transform="translate(273.6 256.9) rotate(-14.06) scale(.87 1) skewX(-.11)"><tspan x="0" y="0">I</tspan></text>
      <text class="cls-5" transform="translate(277.04 256.09) rotate(-16.86) scale(.87 1) skewX(-.11)"><tspan x="0" y="0">T</tspan></text>
      <text class="cls-5" transform="translate(286.92 253) rotate(-20.63) scale(.87 1) skewX(-.1)"><tspan x="0" y="0">S</tspan></text>
      <text class="cls-5" transform="translate(294.35 250.18) rotate(-24.23) scale(.87 1) skewX(-.09)"><tspan x="0" y="0">A</tspan></text>
    </g>
  </g>
  <g>
    <g>
      <polygon class="cls-4" points="72.09 155.82 19.73 232.46 22.34 235.76 122.22 232.3 86.34 166.39 75.67 153.92 72.09 155.82"/>
      <path class="cls-3" d="M104.16,193.17c3.5.51,2.58,5.9,6.25,6.23.1,3.85,2.07,5.65,4.51,6.91-.28,4.06,2.01,5.28,4.46,6.32.28,1-.4,1.13-1.12,1.24.83.82,2.79,1.35,1.33,2.9.46-.33.95-.66,1.75-.68.27,1.19-.03,1.86-1.1,1.84,1.19,1.5,4.61,4.74,2.67,5.81.6,1.01,1.92,1.22,3.61,1.01.33,4.85,3,7.12,2.99,12.34-.57-.34-2.25-1.28-1.74.67-1.07-1.11-4.13-.02-4.26-2.16-1.32,2.34-4.07-1.55-7.06,1.54-1.8.3-1.34-1.87-1.94-2.88-1.7.6.84,1.46.15,2.97-.46-.39-2-2.41-1.78.09-8.28-.58-20.59-.63-27.92.18-.03-.58-.06-1.18-.09-1.77-2.68,1.58-5.81,1.89-8.31.41-1.61,2.32-12.64,2.38-16.02.8-6.51,3.75-21.02.23-24.17,4.16-5.11-2.87-13.92.37-20.31-1.96-.6-1.86.4-2.28,1.04-3.03-2.39-.09-.99-.46-1.38-4.09,2.77-.9,3.9-3.26,3.83-6.73,2.75.43,1.2-3.05,4.03-2.58-.52-1.8-.47-1.12-.15-2.96,4.03.45,1.59-4.98,5.1-5.01-.41-.58-1.39-.54-1.28-1.72,2.39.65,1.12-2,3.51-1.36-.06-.99-.1-1.98-.15-2.97.51-.49,1.31-.7,2.34-.7,3.47-8.95,9.98-15.13,13.68-23.86,2.05-.03,2.7-1.34,2.2-3.68,1.74.07,1.75-1.43,3.51-1.36,1.44-7.95,9.01-10.36,10.39-18.36,6.51-1.46,4.95-10.23,11.29-11.85-.41-.58-1.39-.55-1.28-1.72,1.95-.12,2.9-1.15,5.32-.85,2.66,1.88-.7,3.06,3.11,2.81-2.46,2.68.76,10.53,3.43,9.34.88.15.16,4.49,3.17,4.01-.33,1.83.73,2.14.78,3.53,7.63,6.37,9.09,19.56,16.74,25.91.26,1-.41,1.15-1.13,1.25ZM69.5,165.76c-1.88.82-.54-1.9-2.44-1.07-.9.3-.41,1.9-2.29,1.31-.73,3.12-1.47,6.22-4.4,7.35-.7,3.28,1.67,3.15,2.61,4.62-4.12,3.02-4.14,12.7-11.42,9.48.67,1.77,2.84,1.86,3.17,4.01-1.57.8-2.72,1.12-3.5,1.36,2.53,2.06-.67,1.55-1.64,3.05-2.53,3.94-3.91,10.12-8.35,11.12-.16,2.87-1.2,4.96-3.89,5.53,1.5,3.08-.87.43-1.7,1.88,3.82.72-2.44,2.6.21,4.15-4.22.88-3.18,6.55-6.11,8.63-.38-1.03.55-3.52-.76-3.54,0,.93.19,2.05-1.1,1.84-.64,1.95,1.94.35,1.31,2.3-2.46.61-2.01,3.85-3.29,5.53,6.18-1.37,16.23-1.48,23.13-1.15.11-.46-.04-1.17.53-1.22,23.01,2.1,41.35-1.48,69.45-2.24-1.29-6.23-6.8-9.23-8.96-12.64-.71-5.27-5.69-5.8-5.91-11.6-2.66.4-2.29-2.11-1.97-3.47-2.36.06-4.51-3.77-2.6-4.62-1.85,1-1.99-.35-3.62-1.01-4.29-12.95-14.51-22.09-19.43-32.33.03.6-1.01.79-1.18.05.72-.09,1.39-.24,1.13-1.24-1.65.57-1.58-.76-3-.44-2.87,4-4.15,9.46-8.94,11.73,1.25,2.03-.43,2.88-1.57,4.24-.72-2.35-.14-4.62.87-6.59.98-.03.4,1.63,1.27,1.72.13-2.55,2.17-7.39,3.91-4.94-.06-.82.21-1.32.5-1.81Z"/>
    </g>
    <text class="cls-6" transform="translate(52.61 222.06)"><tspan x="0" y="0">56</tspan></text>
  </g>
</svg>