<?xml version="1.0" encoding="UTF-8"?>
<svg id="Layer_1" xmlns="http://www.w3.org/2000/svg" viewBox="0 0 400 400">
  <defs>
    <style>
      .cls-1 {
        fill: #ead51c;
      }

      .cls-2 {
        fill: #4b6fb6;
      }

      .cls-3 {
        fill: #292929;
      }

      .cls-4 {
        fill: #5e5f56;
      }

      .cls-5, .cls-6 {
        fill-rule: evenodd;
      }

      .cls-7 {
        fill: #fff;
      }

      .cls-6 {
        fill: #f9ed32;
      }

      .cls-8 {
        fill: #f1e2a3;
      }

      .cls-9 {
        font-family: AmericanTypewriter-CondensedBold, 'American Typewriter';
        font-size: 44.93px;
        font-weight: 700;
        letter-spacing: -.03em;
      }

      .cls-10 {
        fill: #3e66b0;
      }

      .cls-11 {
        fill: #83c98c;
      }

      .cls-12 {
        fill: #c38145;
      }
    </style>
  </defs>
  <g>
    <path class="cls-12" d="M159.49,148.08c1.02-.94,1.81-.36,2.64.1.8.45,1.6,1,2.48,1.21,2.34.55,3.78,1.96,3.97,4.3.11,1.37.83,2.33,1.75,2.85,1.25.7,1.67,1.77,1.62,2.85-.12,2.37,1.45,3.84,2.55,5.58.33.52.9.98,1.02,1.54.81,3.96,2.89,7.64,2.67,11.83-.02.46-.08,1.02.13,1.39,1.34,2.36.8,4.86.71,7.34-.03.67.1,1.38.33,2.01.85,2.3,1.27,4.62,1.22,7.11-.04,2.25.29,4.52.58,6.76.18,1.42.85,1.91,2.22,1.66,1.22-.22,2.44-.58,3.59-1.05,3.15-1.31,6.48-1.76,9.82-2.07,1.44-.13,2.98.14,4.38.56,3.49,1.06,6.91.64,10.44.22,7.76-.93,15.54-1.7,23.32.07,1.95.44,4.05.56,6.04.38,4.28-.38,8.51-1.23,12.79-1.54,4.04-.29,8.11-.18,12.17-.17,1.06,0,2.12.3,3.44.51.69-4.35,3.6-7.77,6.42-11.35-1.18-2.01-.31-3.85.27-5.78.66-2.19,1.55-4.22,2.9-6.07.39-.53.53-1.29.66-1.96.47-2.53.91-5.04,2.09-7.4.93-1.87,1.38-3.91,1.82-6,.53-2.54,1.61-5.04,3.35-7.14.62-.74.96-1.72,1.39-2.61,1.57-3.24,3.04-6.58,7.15-7.35.36-.07.74-.05,1.17-.07.24,1.92.62,3.73.63,5.54,0,1.12-.35,2.36-.92,3.33-1.7,2.91-2.28,6.13-2.97,9.34-.72,3.35-1.42,6.71-2.09,10.07-.29,1.44-.48,2.91-.72,4.36-.17,1-.08,2.15-.57,2.97-.86,1.46-.56,2.75.22,3.93.95,1.42.87,2.79.29,4.23-.57,1.43-.53,2.77-.22,4.31.46,2.28.4,4.66.56,6.99.07,1.01.11,2.02.16,2.89,2.04.96,3.88,1.97,5.83,2.68,1.22.44,2.6.53,3.92.57,7.46.21,14.48,2.19,21.27,5.11.85.37,1.72.83,2.39,1.46,2.04,1.89,4.53,2.73,7.14,3.32,3.44.78,6.69,2.06,9.97,3.36,2.8,1.11,5.84,1.66,8.82,2.27,2.37.48,4.79.72,7.19,1,1.98.23,3.64.81,4.33,2.95.34,1.05.37,2.02-.39,2.86-.78.87-1.61,1.7-2.47,2.48-1.21,1.1-2.51,2.11-3.69,3.24-.96.91-2.06,1.42-3.35,1.49-1.33.08-2.66.09-3.99.12-4.61.09-9.22.23-13.83.24-2.1,0-4.24-.05-6.31-.39-4.49-.75-8.78-.41-13.17.92-4.06,1.23-8.12,2.91-12.55,2.47-2.18-.21-4.36-.38-6.54-.53-3.93-.27-7.79.11-11.65.92-7.05,1.47-14.11,1.39-21.17-.19-2.79-.63-5.62-.95-8.57-.75-4.82.33-9.67.14-14.51-.47-6.75-.85-13.5-.95-20.34-.22-6.27.67-12.65.41-18.98.46-6,.05-11.69-2.04-17.58-2.71-4.41-.5-8.84-.57-13.26.49-3.79.91-7.67,1.47-11.54,1.94-1.5.18-3.09-.28-4.62-.55-3.77-.66-7.51-1.81-11.3-1.96-5.82-.23-11.68-.56-17.48.88-2.7.67-5.57.63-8.37.87-.9.08-1.71-.13-2.14-1.08-.42-.93-.09-1.64.53-2.34,2.5-2.84,5.21-5.43,8.77-6.9,2.23-.92,4.49-1.77,6.75-2.62,1.93-.73,3.82-1.6,5.02-3.31,2.91-4.13,7.04-6.31,11.71-7.7,2.25-.67,4.55-1.15,6.75-1.95,2.48-.91,4.89-2.04,7.28-3.18.47-.23.92-.88,1.05-1.42.93-3.95,1.97-7.87,1.79-12.01-.05-1.25.41-2.64,1-3.78.58-1.13.88-2.15.47-3.33-.49-1.39-.32-2.76-.03-4.16.39-1.91.47-3.81.11-5.78-.24-1.33.03-2.81.35-4.16.53-2.3.18-4.44-.53-6.63-.32-.99-.51-2.22-.21-3.17.97-3.02-.18-5.47-1.66-7.92-1.36-2.25-2.72-4.51-3.54-7.03-.16-.49-.1-1.06-.13-1.52ZM162.84,208.92c-3.19,1.81-6.08,3.48-9.41,4.28-1.97.48-3.9,1.13-5.85,1.69-4.69,1.34-8.84,3.44-11.79,7.56-1.45,2.03-3.75,2.94-6.06,3.81-2.91,1.1-5.89,2.17-8.53,3.77-2.16,1.31-3.89,3.34-5.74,5.12-.32.31-.6,1.08-.43,1.38.19.35.89.58,1.38.58,1.4,0,2.83-.02,4.21-.23,6.24-.96,12.43-2.45,18.83-1.58,1.07.15,2.21-.13,3.28.05,3.7.63,7.37,1.4,11.06,2.05,1.45.26,2.97.64,4.39.45,4.02-.54,8-1.35,12-2.06,4.42-.79,8.86-.86,13.3-.2,6.1.9,12.05,2.82,18.29,2.68,5.86-.13,11.76.03,17.57-.6,6.68-.72,13.3-.59,19.9.17,5.62.65,11.19,1.01,16.82.36.46-.05.94,0,1.4.07,3.78.6,7.55,1.19,11.32,1.83,4.47.76,8.97.5,13.3-.44,6.76-1.47,13.46-1.53,20.25-.74,1.38.16,2.86.18,4.19-.14,2.96-.7,5.87-1.59,8.76-2.54,2.72-.89,5.48-1.29,8.32-1.07,2.49.19,4.97.68,7.46.7,6.73.04,13.46-.1,20.19-.18,1.47-.02,2.69-.55,3.72-1.68.83-.92,1.88-1.64,2.82-2.46.83-.71,1.72-1.37,2.45-2.17,1.21-1.33,1.26-2.73,0-3.93-.61-.58-1.63-.88-2.51-1.03-2.46-.41-4.98-.55-7.43-1.02-2.98-.57-6.06-1.04-8.85-2.17-3.49-1.41-6.96-2.76-10.63-3.59-2.62-.59-5.06-1.56-7.11-3.41-.68-.62-1.55-1.08-2.41-1.44-6.68-2.79-13.56-4.73-20.85-4.91-2.12-.05-4.16-.34-6.03-1.54-1.23-.79-2.6-1.32-4.21-.85-1.78.52-3.64.78-5.46,1.17-5.91,1.27-11.07-.59-15.94-3.76-.64-.41-1.38-.93-2.08-.93-4.22-.02-8.44-.07-12.64.22-3.97.27-7.9,1.06-11.87,1.41-2.24.2-4.63.4-6.76-.14-7.7-1.95-15.4-1.19-23.07-.29-4.08.48-8.05.88-12.07-.31-1.17-.35-2.47-.49-3.69-.39-3.59.29-7.09,1.09-10.48,2.34-1.46.54-2.94,1.02-4.57.44-.39-.14-1.09.12-1.45.43-2.9,2.44-6.41,3.5-9.93,4.6-2.72.85-5.24.77-7.32-1.34ZM271.69,203.37c3.58,1.76,9.14,2.5,12.61,1.69,1.06-.25,2.1-.58,3.15-.87,2.12-.6,2.46-1.13,2.12-3.39-.17-1.07-.62-2.17-.51-3.21.21-1.95-.44-3.5-1.3-4.6-3.75-.77-7.16-1.46-10.71-2.19-3.34,3.33-5.82,8.26-5.36,12.57ZM178.79,197.04c-2.35.96-4.57,1.88-6.8,2.78-2.46.98-4.81-.25-6.9-.53-.48,1.95-.89,3.66-1.31,5.37-.11.45-.24.91-.33,1.37-.32,1.6.23,2.83,1.77,3.32,1,.32,2.19.51,3.17.28,2.26-.54,4.51-1.25,6.66-2.13,1.49-.61,2.83-1.6,4.2-2.49.7-.45.94-1.09.71-2.02-.48-1.95-.78-3.95-1.16-5.94ZM177.56,188.67c-2.95,1.91-6.18,2.66-9.6,2.75-1.71.05-2.45.55-2.85,2.15-.22.88-.13,1.85-.17,2.78-.06,1.32.68,1.87,1.86,2.28,3.18,1.13,6.01.04,8.77-1.3,4.06-1.97,4.64-3.89,2.54-7.86-.14-.27-.34-.51-.54-.8ZM175.98,179.62c-2.72,2.35-6.15,1.45-9.08,2.19-.17,1.63-.18,3.1-.49,4.51-.33,1.5-.09,2.74.88,3.9,2.91.27,5.61-.29,8.18-1.54,1.42-.69,2.24-1.68,2.36-3.42.14-1.91.23-3.67-1.35-5.06-.11-.1-.19-.22-.49-.58ZM167,180.5c1.49-.07,2.73-.21,3.96-.16,1.84.08,3.29-.79,4.73-1.73.84-.55,1.21-1.3,1.22-2.36,0-2.23-.85-4.14-1.64-5.83-2.71,1.11-5.27,2.16-8.15,3.33-.04,2-1.04,4.23-.12,6.74ZM287.59,191.36c.53-2.47,2.29-4.79-.13-7.21-1.92.75-3.89.41-5.83-.32-.36-.14-.75-.22-1.13-.3-2.12-.44-3.02.08-3.63,2.1-.55,1.84.13,3.67,2.08,4.35,2.7.94,5.45,1.97,8.63,1.38ZM167.59,172.11c3.03-.34,5.4-1.59,7.44-3.44.13-2.56-2.03-3.76-2.85-5.47-2.33.79-4.44,1.5-6.52,2.21-.06.19-.18.36-.14.48.67,2.06,1.36,4.1,2.07,6.23ZM281,177.36c-.73,1.15-1.4,2.11-1.96,3.13-.45.81-.3,1.55.7,1.83,1.57.44,3.14.98,4.74,1.2,3.22.45,5.37-2.17,4.36-5.34-2.66,1.1-5.12-.25-7.84-.82ZM280.98,176.27c1.85.45,3.47.97,5.13,1.2,1.32.18,2.74-.05,3.34-1.51.5-1.19.77-2.48,1.11-3.61-2.78-.37-5.33-.71-7.94-1.06-.55,1.66-1.05,3.19-1.64,4.98ZM286.71,157.87c-.32.91-.54,1.91-1,2.76-.52.96-1.24,1.81-.64,3.24,1.63.53,3.38,1.13,5.16,1.67.82.25,1.66.09,1.9-.84.36-1.41.54-2.86.78-4.15-2.12-.92-4.03-1.75-6.19-2.69ZM282.91,170.18c2.02.36,3.62.73,5.24.93,1.71.21,2.36-.37,2.71-2.09.15-.74.32-1.47.47-2.14-2.08-.59-4.07-1.16-6-1.72-.81,1.67-1.54,3.2-2.42,5.02ZM295.17,154.59c-1.97-.54-3.86-1.05-5.67-1.54-.62,1.33-1.2,2.55-1.9,4.05,1.41.63,2.78,1.3,4.2,1.86.91.36,1.64.14,2.01-.93.4-1.17.9-2.3,1.36-3.45ZM290.31,151.83c1.97,1.36,3,1.55,5.72,1.03.94-2.09-.24-4-.44-6.02-3.41.86-3.97,1.4-5.28,4.99ZM166.33,163.71c5.01-.14,5.77-2.01,4.32-5.66-1.97-.51-3.48.51-5,1.41.24,1.52.46,2.88.67,4.25ZM168.6,156.89c-.6-1.96-1.09-3.58-1.63-5.33-1.61.82-2.96,1.51-4.56,2.33,1.11,1.63,2.03,3,3,4.43,1.2-.54,2.25-1.01,3.18-1.43ZM166.05,150.86c-1.42-.53-2.35-.84-3.26-1.22-.85-.36-1.34-1.51-2.51-1.23-.34,2.04,1.03,3.03,2.15,4.38,1.11-.59,2.14-1.15,3.61-1.93Z"/>
    <path class="cls-11" d="M181.65,160.86c-.8-.13-1.59-.25-2.59-.41.45.96.79,1.69,1.13,2.42-.12.1-.25.19-.37.29-.69-.74-1.37-1.49-2.4-2.6-.2,1.62-.35,2.86-.52,4.21-1.36-.39-.71-1.85-1.58-2.53-.36.3-.73.62-1.15.97-.16-.28-.37-.48-.37-.68,0-.86.11-1.72.09-2.57-.02-.98.36-1.9-.93-2.75-.76-.5-.67-2.28-1-3.63-.61.42-1.21.83-2.03,1.39v-4.19c-2.06.02-1.99-1.96-2.85-3.35-1.07.43-2.07.82-3.28,1.31-.83-1.26-1.7-2.58-2.59-3.94-1.56.84-2.28,1.92-2.24,3.5.03,1.09.05,2.2-.06,3.28-.08.83-.37,1.63-.54,2.46-.1.5-.37,1.08-.21,1.5.62,1.68-.09,2.7-1.63,3.46.63,1.74,1.23,3.4,2.01,5.55-1.14-.33-1.89-.54-2.89-.82.51,2.05.99,3.98,1.53,6.17-.75-.2-1.23-.33-1.99-.53.71,1.67,1.35,3.19,2.02,4.8-.56.17-.91.28-1.39.42.36,1.31.72,2.62,1.13,4.1h-2.41c-.36,2.02.78,4.09-.43,6.1-.73-.33-1.34-.62-1.88-.86-1.21,2.11-2.39,4.18-3.65,6.38-1.45-1.55-.15-3-.69-4.7-.7,1.38-1.27,2.51-1.93,3.8-1.14-1.58-.44-3.43-1.17-5.1-.59.15-1.22.3-1.91.47-1-1.9.76-3.35.53-5.22-.44.35-.8.63-1.36,1.07-.35-2.22,1.22-3.85,1.4-5.9-.56-.1-1.13-.19-2.11-.36,1.11-1.7,2.1-3.17,3.02-4.68.32-.53,1.36-1.06.19-1.84-.1-.06.19-.84.41-1.22.75-1.27,1.54-2.52,2.41-3.92-.59-.16-.99-.26-1.74-.46.46-.76.76-1.56,1.3-2.11,1.19-1.19,1.09-2.3-.09-3.68-3.3,2.46-2.4,6.29-3.16,9.84-.59-.65-1.01-1.11-1.6-1.76-.22,1.66-.42,3.16-.65,4.88-.7-.37-1.21-.63-1.88-.98-.4,1.97-.8,3.9-1.24,6.05-.81-.44-1.32-.73-2.07-1.14-.43,2.58-.84,5.01-1.27,7.55-.51.13-1,.26-1.58.42-.19,1.05-.38,2.11-.58,3.22h-1.55c-.91,1.8-1.84,3.65-2.77,5.5-.18-.02-.36-.04-.55-.06-.19-1.09-.38-2.18-.6-3.43-2.03,1.05-2.6,3.66-5.15,4.67.19-1.12.2-1.98.49-2.72,1.48-3.69,3.04-7.36,4.59-11.02.33-.79.79-1.53,1.12-2.32.18-.42.44-1.05.26-1.33-1.02-1.58.09-2.61.8-3.77.99-1.59,1.96-3.18,2.92-4.78.12-.2.29-.45.25-.64-.58-2.65,1.31-4.17,2.69-5.91.72-.92,1.57-1.74,2.5-2.75-.57-.36-1.05-.67-1.66-1.06-1.9,2.85-3.74,5.63-5.59,8.4-.26.39-.51.79-.81,1.15-.85,1-1.71,2.02-3.01.79-2.73,2.26-4.86,4.93-8.11,6.57v-2.78c-.74-.2-1.51-.41-2.76-.74,1.21-1.24,2.09-2.31,3.14-3.16,2.76-2.23,5.06-4.82,7.17-7.68,2.5-3.39,5.23-6.66,8.22-9.62,2.73-2.7,6.11-4.21,10.22-3.46.96.18,2.17-.3,3.11-.78,3.19-1.6,6.71-2.45,9.77-4.38,1.19-.75,2.78-1,4.22-1.18,1.45-.18,2.65.41,3.58,1.75.57.82,1.59,1.54,2.56,1.84,3.68,1.12,6.43,3.57,8.95,6.23,1.59,1.68,2.34,4,1.68,6.34-.52,1.84-.07,2.88,1.5,3.86.85.53,1.38,1.59,2.06,2.41-.13.14-.27.27-.4.41ZM174.57,156.09v4.65c.77-.06,1.42-.11,2.05-.16.19-.52.38-1,.55-1.47,1.01.15,1.88.28,2.74.42.13-.2.27-.39.4-.59-.36-.17-.71-.35-1.08-.51-1.98-.87-2.15-2.31-1.59-4.23.61-2.1-.04-4.2-1.45-5.7-2.35-2.5-4.92-4.83-8.33-5.89-1.44-.45-2.79-1-3.5-2.5-.46-.96-1.39-1.17-2.36-1.25-1.72-.13-3.18.62-4.67,1.33-3.16,1.5-6.34,2.96-9.52,4.41-1.44.66-2.91,1.16-4.52.52-.34-.14-.79-.13-1.15-.03-2.65.72-5.36,1.41-7.25,3.58-2.87,3.3-5.64,6.69-8.44,10.05-.9,1.08-1.66,2.29-2.65,3.27-1.73,1.7-3.59,3.25-5.38,4.88-.21.19-.31.49-.52.84.61.2,1.09.35,1.59.51.06.67.12,1.26.22,2.31,2.73-2.48,5.18-4.71,7.68-6.98.35.5.59.85,1.07,1.52,2.19-4.52,5.82-7.75,7.89-12.41.46.93.71,1.44,1.11,2.26,1.2-1.05,2.23-1.96,3.26-2.87.16.12.32.25.47.37-.35.64-.61,1.34-1.06,1.9-1.37,1.7-2.85,3.33-4.23,5.03-1.26,1.55-2.86,2.96-2.37,5.32.07.32-.21.74-.41,1.07-1.01,1.67-2.04,3.32-3.08,4.97-.54.86-1.03,1.59-.61,2.79.26.73-.19,1.82-.55,2.65-1.08,2.43-2.32,4.78-3.41,7.21-.72,1.61-1.27,3.29-1.9,4.94,1.96-.85,2.56-2.95,4.54-3.9.16,1.12.28,2,.41,2.87.11.03.23.06.34.1.75-1.58,1.51-3.15,2.27-4.75.34.12.66.23,1.08.38.23-1.21.45-2.35.68-3.59.46.08.88.14,1.42.23.1-.55.2-1.07.3-1.59.4-2.15.79-4.3,1.21-6.44.03-.15.3-.26.48-.41.44.62.82,1.15,1.48,2.06.48-2.67.87-4.9,1.32-7.4.64.82,1.03,1.33,1.62,2.08.36-2.03.67-3.74.96-5.37h1.48c1.22-5.39,1.7-6.18,4.42-7.26.37,1.02,1.05,2.05,1.01,3.06-.03.97-.8,1.91-1.24,2.86.42.11.84.21,1.44.36-.72,1.36-1.35,2.56-1.98,3.77.52.11.86.18,1.41.3-1.86,2.64-3.58,5.1-5.37,7.64.76.22,1.18.34,1.76.51-.23.99-.44,1.88-.67,2.9.82.36,1.22.94.87,1.95-.49,1.4-.88,2.83-1.29,4.26-.05.19.07.43.11.65.69-.16,1.33-.31,2.02-.47.14,1.2.27,2.23.45,3.76.66-1,1-1.59,1.41-2.12.39-.5.52-1.38,1.63-1.16-.11,1.38-.23,2.76-.34,4.14.16.04.31.08.47.12.89-1.77,1.79-3.54,2.73-5.41.6.45,1.07.8,1.94,1.46-.15-2.32-.27-4.21-.39-6.18h2.35c-.48-1.53-.89-2.87-1.32-4.25.24-.12.44-.21.64-.31.18-.1.35-.21.51-.31-.59-1.5-1.15-2.92-1.73-4.38.5-.22.7-.32.91-.38.27-.08.56-.12.94-.2-.46-2.02-.9-3.92-1.43-6.22,1.14.68,1.82,1.09,2.5,1.5.11-.08.22-.15.32-.23-.61-1.47-1.21-2.93-1.82-4.39q2.53-.94,1.51-4.55,1.19-.99,1.18-2.44c0-1.02-.03-2.03-.02-3.05,0-2.4,1.24-3.92,3.49-4.86.83,1.37,1.64,2.68,2.41,3.95,1.32-.3,2.49-.56,3.29-.74,1.15,1.53,2.04,2.71,2.93,3.9.11-.06.22-.13.33-.19v2.96c.77-.52,1.38-.93,2.2-1.49.16,1.53.3,2.8.43,4.06h1.4Z"/>
    <path class="cls-11" d="M327.99,179.53c-.76-.57-1.16-.87-1.55-1.16-1.46,1.36-1.77,3.5-3.53,4.7-.79-1.08-.26-1.95.18-2.7,1.53-2.55,1.29-5.2.71-8.2-.84.75-1.49,1.34-2.49,2.24.08-1.77.15-3.11.22-4.74-.75.43-1.28.74-1.99,1.15v-5.85c-1.17,1.71-2.01,2.95-2.99,4.38-1.56-1.92-.49-4.04-1.08-6.2-1.02,1.22-1.92,2.29-3,3.59,1.32,2.12,2.66,4.29,4.01,6.45-.43.34-.72.56-1.09.85.52,1.13,1,2.28,1.55,3.4.41.83.67,1.58-.55,2.13.76.83,1.44,1.56,2.22,2.4-.24.26-.48.53-.81.91,1.22,2.07,2.72,4.08,3.31,6.85-3.2.76-5.5-.62-7.68-2.49-.26.34-.48.61-.78.99-1.8-.59-2.29-2.38-3.32-3.72-.37.31-.7.58-1.11.92-2.04-1.4-1.99-3.63-2.53-5.93-.85,1.1-1.57,2.02-2.39,3.07-.97-1.41-.42-2.77-.57-4.03-.11-.91.46-2.02-.88-2.59-.22-.09-.15-1.01-.1-1.53.2-2.02.44-4.03.68-6.21-1.82-.4-1.61-1.61-1.75-3.02-.18-1.77-.2-3.41.09-5.36-.99.77-1.98,1.54-3.19,2.48-.12-.61-.34-1.04-.24-1.38.52-1.8,1.13-3.57,1.7-5.36.49-1.53.8-3.01-.37-4.44-.28-.34-.34-1.1-.17-1.53.32-.8,1.39-1.64,1.24-2.23-.34-1.32.87-1.52,1.17-2.3.08-.2.15-.41.35-.95-4.36-.29-8.27.1-11.47,3.69-.25-.76-.43-1.28-.68-2.06-1.35,1.27-2.62,2.48-4.03,3.81-.52-.71-.9-1.24-1.32-1.82-.17.13-.37.24-.51.39-.26.29-.48.62-.74.91-1.28,1.48-1.33,1.49-2.96.29-1.07.71-2.16,1.44-3.33,2.22-.61-1.26.51-1.89.61-3.06-1.31.72-2.49,1.36-4.09,2.24.32-2.27,1.1-3.83,2.35-4.94,2.45-2.16,5-4.25,7.72-6.07,1.22-.81,2.92-1.04,4.44-1.24,1.07-.14,1.99-.26,2.56-1.27.11-.2.29-.37.45-.54,4.81-5.6,10.55-4.3,14.72.7.25.3.45.64.76,1.07,1.71.15,3.49.32,5.27.46,4.18.35,7.37,2.4,9.68,5.8,1.71,2.5,3.26,5.12,4.96,7.81-.15.14-.46.41-.85.76,2.99,2.49,4.39,5.77,4.83,9.57.35,3.01.82,6.01,1.26,9.23-.63-.17-1.1-.3-1.89-.52-.33,2.54-.65,5.04-1.02,7.96ZM309.17,157.34c-.11-.79-.23-1.57-.34-2.36-.2.06-.41.12-.61.18.33.71.67,1.43,1,2.14.62,1.81,1.66,3.35,2.89,4.81,1.71-2.46-1.16-3.39-1.09-4.96-.77.08-1.31.14-1.85.19ZM311.03,153.5c.16.03.32.07.48.1.15,1.19.31,2.39.5,3.87.63-.75,1.03-1.23,1.44-1.7.15.04.31.09.46.13-.29,2.69-.59,5.38-.88,8.07.16.06.32.12.47.18.9-1.34,1.8-2.69,2.69-4.03.14.07.27.14.41.21v6.95c1.71-1.63,2.35-3.69,4.17-5.5-.08,1.56-.16,2.54-.18,3.52-.03,1.08,0,2.17,0,3.23q1.67.3,2.01,3.04c.53-.33,1.03-.63,1.62-1,.97,2.44.75,4.91.91,7.4.91-.75,1.64-1.37,2.27-1.89.88-2.04-.4-4.71,2.3-6.09-.35-2.57-.73-5.12-1.04-7.68-.49-3.97-2.32-7.05-5.73-9.21-.79-.5-1.4-1.3-2.48-2.34h2.84c-1.12-1.9-2.09-3.75-3.26-5.48-2.16-3.2-5.11-5.19-9.05-5.53-1.94-.17-3.87-.32-5.88-.49-.24-.35-.48-.75-.77-1.11-3.68-4.63-9.02-6.05-13.41-.76-.1.12-.23.23-.3.36-.73,1.35-1.89,1.6-3.34,1.66-1.21.04-2.51.35-3.59.89-3.1,1.56-5.66,3.89-8.09,6.33-.41.41-.64.99-.95,1.5.07.08.13.17.2.25,1.31-.69,2.62-1.37,3.94-2.06.09.12.19.25.28.37-.31.75-.63,1.5-1.02,2.45.96-.45,1.64-.77,2.29-1.07.37.46.64.79.95,1.17,1.06-1.32,2.01-2.49,3.23-4.01.24,1.3.39,2.07.59,3.16,1.85-1.72,3.46-3.22,5.39-5.02v2.54c1.88-1.43,3.65-2.26,5.85-2.46,2.09-.19,4.08-.7,6.15.59-.41.81-.74,1.47-1.08,2.13.2.36.4.73.58,1.05-.86.76-1.63,1.32-2.23,2.03-.29.34-.5,1.17-.29,1.43,1.68,2.08.73,4.16.13,6.25-.27.92-.58,1.83-.96,3.04,1.31-.68,2.23-1.15,3.49-1.81-.17,3.13-.31,5.8-.46,8.45.5.14,1.14.2,1.17.36.22,1.27.33,2.57.48,3.9.4-.3.82-.61,1.51-1.12-.3,3.58-1.81,6.71-.97,10.12,1.32-.97,1.21-2.85,2.97-3.51-.06,2.51-.32,4.83,1.04,7.34.41-1.21.69-2.02,1.08-3.17,1.1,2.11,1.15,4.36,3.01,5.87v-2.29c2.04,2.71,4.16,4.97,8.04,4.9-1.29-3.49-3.23-6.34-5.84-8.74.64-.83.65-.84.51-2.6.4-.09.77-.18,1.23-.28-.46-1.02-.98-1.84-1.18-2.74-.19-.86-.02-1.8-.09-2.69-.02-.28-.29-.54-.44-.81-1.73-3.04-3.45-6.09-5.17-9.14-.04-.08.1-.26.17-.42.36.02.73.05,1.09.06.03,0,.07-.13.15-.29-1.77-3.02-4.27-6-1.74-10.22.44,1.54.79,2.79,1.21,4.25.47-.77.82-1.34,1.16-1.91Z"/>
    <path class="cls-12" d="M162.84,208.92c2.08,2.11,4.6,2.19,7.32,1.34,3.51-1.1,7.03-2.16,9.93-4.6.36-.31,1.06-.57,1.45-.43,1.62.59,3.11.1,4.57-.44,3.39-1.25,6.89-2.05,10.48-2.34,1.22-.1,2.52.04,3.69.39,4.02,1.19,7.99.79,12.07.31,7.68-.91,15.37-1.66,23.07.29,2.13.54,4.52.34,6.76.14,3.97-.35,7.9-1.14,11.87-1.41,4.2-.29,8.43-.24,12.64-.22.7,0,1.44.52,2.08.93,4.87,3.17,10.03,5.03,15.94,3.76,1.82-.39,3.68-.65,5.46-1.17,1.62-.47,2.98.05,4.21.85,1.87,1.2,3.9,1.49,6.03,1.54,7.29.18,14.18,2.12,20.85,4.91.86.36,1.73.82,2.41,1.44,2.04,1.85,4.49,2.82,7.11,3.41,3.67.83,7.14,2.18,10.63,3.59,2.79,1.13,5.87,1.59,8.85,2.17,2.45.47,4.96.61,7.43,1.02.88.15,1.89.45,2.51,1.03,1.26,1.2,1.21,2.6,0,3.93-.73.8-1.62,1.45-2.45,2.17-.94.82-1.99,1.54-2.82,2.46-1.03,1.13-2.24,1.67-3.72,1.68-6.73.08-13.46.22-20.19.18-2.49-.01-4.97-.51-7.46-.7-2.84-.22-5.6.18-8.32,1.07-2.89.95-5.81,1.83-8.76,2.54-1.34.32-2.81.3-4.19.14-6.8-.78-13.5-.72-20.25.74-4.32.94-8.83,1.2-13.3.44-3.77-.64-7.55-1.23-11.32-1.83-.46-.07-.94-.12-1.4-.07-5.63.64-11.2.29-16.82-.36-6.59-.76-13.22-.89-19.9-.17-5.81.63-11.71.48-17.57.6-6.24.14-12.2-1.79-18.29-2.68-4.43-.65-8.87-.58-13.3.2-4,.71-7.98,1.52-12,2.06-1.42.19-2.94-.19-4.39-.45-3.69-.65-7.36-1.42-11.06-2.05-1.06-.18-2.2.09-3.28-.05-6.4-.87-12.59.62-18.83,1.58-1.38.21-2.81.24-4.21.23-.48,0-1.18-.23-1.38-.58-.17-.3.11-1.07.43-1.38,1.86-1.78,3.59-3.81,5.74-5.12,2.64-1.6,5.62-2.67,8.53-3.77,2.31-.87,4.61-1.79,6.06-3.81,2.95-4.12,7.1-6.22,11.79-7.56,1.95-.56,3.88-1.21,5.85-1.69,3.32-.8,6.21-2.48,9.41-4.28ZM206.85,213.62s0,.07,0,.1c-3.67,0-7.35-.12-11.02.04-2.72.11-5.44.49-8.12.93-.93.15-2.07.65-2.6,1.37-1.14,1.56-2.09,3.31-2.86,5.09-.81,1.87-.11,3.39,1.73,4.26,1.5.71,3.09,1.06,4.78.73.92-.18,1.85-.35,2.78-.38,5.15-.17,10.29-.36,15.44-.42,3.82-.05,7.62.18,11.43.81,3.34.55,6.82.35,10.24.36,2.65,0,5.29-.18,7.94-.28,2.9-.11,5.74.08,8.6.75,3.64.86,7.33,1.64,11.04,2.08,3.24.39,6.54.36,9.8.3.89-.02,2.06-.58,2.59-1.28,1.51-1.97,2.95-4.04,4.04-6.26,1.11-2.25-.67-5.48-3.16-6.05-1.67-.38-3.38-.63-5.09-.73-4.29-.25-8.59-.49-12.88-.53-6.41-.07-12.82-.11-19.22.11-2.5.09-4.96.34-7.44-.17-1.14-.23-2.32-.38-3.48-.42-4.84-.17-9.69-.29-14.53-.42Z"/>
    <path class="cls-8" d="M271.69,203.37c-.46-4.32,2.02-9.24,5.36-12.57,3.55.73,6.96,1.42,10.71,2.19.86,1.1,1.51,2.65,1.3,4.6-.11,1.04.34,2.13.51,3.21.35,2.25,0,2.79-2.12,3.39-1.05.29-2.09.63-3.15.87-3.47.81-9.03.07-12.61-1.69Z"/>
    <path class="cls-8" d="M178.79,197.04c.38,1.99.68,3.98,1.16,5.94.23.93-.01,1.56-.71,2.02-1.36.89-2.71,1.88-4.2,2.49-2.15.89-4.4,1.6-6.66,2.13-.99.23-2.18.04-3.17-.28-1.54-.49-2.09-1.72-1.77-3.32.09-.46.22-.91.33-1.37.42-1.71.84-3.42,1.31-5.37,2.09.28,4.45,1.51,6.9.53,2.23-.89,4.45-1.81,6.8-2.78Z"/>
    <path class="cls-8" d="M177.56,188.67c.2.29.4.53.54.8,2.1,3.98,1.52,5.89-2.54,7.86-2.76,1.34-5.58,2.43-8.77,1.3-1.17-.42-1.92-.96-1.86-2.28.04-.93-.05-1.89.17-2.78.4-1.6,1.14-2.1,2.85-2.15,3.42-.1,6.64-.85,9.6-2.75Z"/>
    <path class="cls-8" d="M175.98,179.62c.3.35.38.48.49.58,1.58,1.39,1.49,3.15,1.35,5.06-.12,1.74-.94,2.73-2.36,3.42-2.57,1.25-5.28,1.81-8.18,1.54-.97-1.16-1.21-2.4-.88-3.9.31-1.41.33-2.88.49-4.51,2.93-.74,6.37.16,9.08-2.19Z"/>
    <path class="cls-8" d="M167,180.5c-.92-2.51.08-4.74.12-6.74,2.88-1.18,5.44-2.22,8.15-3.33.79,1.68,1.65,3.6,1.64,5.83,0,1.06-.38,1.81-1.22,2.36-1.44.94-2.89,1.81-4.73,1.73-1.23-.05-2.47.09-3.96.16Z"/>
    <path class="cls-8" d="M287.59,191.36c-3.18.59-5.93-.44-8.63-1.38-1.95-.68-2.63-2.52-2.08-4.35.6-2.02,1.5-2.54,3.63-2.1.38.08.77.17,1.13.3,1.94.72,3.9,1.07,5.83.32,2.42,2.42.66,4.74.13,7.21Z"/>
    <path class="cls-8" d="M167.59,172.11c-.71-2.13-1.4-4.18-2.07-6.23-.04-.12.08-.29.14-.48,2.08-.71,4.19-1.42,6.52-2.21.82,1.71,2.98,2.91,2.85,5.47-2.04,1.86-4.41,3.11-7.44,3.44Z"/>
    <path class="cls-8" d="M281,177.36c2.72.57,5.18,1.92,7.84.82,1.02,3.17-1.14,5.79-4.36,5.34-1.61-.23-3.17-.76-4.74-1.2-1-.28-1.15-1.01-.7-1.83.56-1.02,1.23-1.97,1.96-3.13Z"/>
    <path class="cls-8" d="M280.98,176.27c.59-1.79,1.09-3.32,1.64-4.98,2.61.35,5.16.69,7.94,1.06-.34,1.13-.61,2.42-1.11,3.61-.61,1.46-2.02,1.69-3.34,1.51-1.66-.23-3.28-.76-5.13-1.2Z"/>
    <path class="cls-8" d="M286.71,157.87c2.16.94,4.07,1.77,6.19,2.69-.23,1.29-.42,2.74-.78,4.15-.24.93-1.08,1.08-1.9.84-1.78-.53-3.54-1.14-5.16-1.67-.6-1.44.12-2.28.64-3.24.47-.86.68-1.85,1-2.76Z"/>
    <path class="cls-8" d="M282.91,170.18c.88-1.82,1.61-3.35,2.42-5.02,1.93.55,3.92,1.12,6,1.72-.15.67-.32,1.4-.47,2.14-.35,1.72-1,2.3-2.71,2.09-1.62-.2-3.22-.56-5.24-.93Z"/>
    <path class="cls-8" d="M295.17,154.59c-.46,1.15-.96,2.28-1.36,3.45-.36,1.07-1.09,1.29-2.01.93-1.42-.56-2.79-1.23-4.2-1.86.7-1.5,1.28-2.73,1.9-4.05,1.8.49,3.7,1.01,5.67,1.54Z"/>
    <path class="cls-8" d="M290.31,151.83c1.32-3.59,1.87-4.12,5.28-4.99.2,2.02,1.37,3.93.44,6.02-2.72.51-3.74.32-5.72-1.03Z"/>
    <path class="cls-8" d="M166.33,163.71c-.22-1.37-.43-2.74-.67-4.25,1.51-.9,3.03-1.92,5-1.41,1.44,3.65.69,5.52-4.32,5.66Z"/>
    <path class="cls-8" d="M168.6,156.89c-.93.42-1.98.89-3.18,1.43-.97-1.43-1.9-2.8-3-4.43,1.59-.81,2.94-1.5,4.56-2.33.53,1.74,1.03,3.37,1.63,5.33Z"/>
    <path class="cls-8" d="M166.05,150.86c-1.47.79-2.51,1.34-3.61,1.93-1.12-1.35-2.49-2.35-2.15-4.38,1.16-.28,1.66.87,2.51,1.23.9.38,1.83.69,3.26,1.22Z"/>
    <path class="cls-11" d="M174.57,156.09h-1.4c-.13-1.26-.27-2.53-.43-4.06-.83.56-1.43.97-2.2,1.49v-2.96c-.11.06-.22.13-.33.19-.89-1.18-1.78-2.37-2.93-3.9-.8.18-1.97.44-3.29.74-.78-1.27-1.58-2.59-2.41-3.95-2.24.94-3.48,2.46-3.49,4.86,0,1.02.01,2.03.02,3.05q.01,1.46-1.18,2.44,1.01,3.61-1.51,4.55c.6,1.46,1.21,2.93,1.82,4.39-.11.08-.22.15-.32.23-.68-.41-1.36-.82-2.5-1.5.53,2.3.96,4.2,1.43,6.22-.38.08-.66.12-.94.2-.21.06-.4.17-.91.38.58,1.46,1.14,2.88,1.73,4.38-.17.1-.34.21-.51.31-.19.11-.4.2-.64.31.43,1.38.84,2.71,1.32,4.25h-2.35c.13,1.97.25,3.86.39,6.18-.87-.66-1.34-1.01-1.94-1.46-.94,1.87-1.84,3.64-2.73,5.41-.16-.04-.31-.08-.47-.12.11-1.38.23-2.76.34-4.14-1.11-.23-1.24.66-1.63,1.16-.42.53-.75,1.12-1.41,2.12-.18-1.52-.3-2.56-.45-3.76-.69.16-1.33.31-2.02.47-.04-.22-.17-.46-.11-.65.4-1.43.79-2.86,1.29-4.26.35-1-.05-1.59-.87-1.95.24-1.02.44-1.91.67-2.9-.58-.17-1-.29-1.76-.51,1.79-2.55,3.51-5,5.37-7.64-.55-.12-.89-.19-1.41-.3.63-1.2,1.26-2.4,1.98-3.77-.59-.15-1.02-.26-1.44-.36.44-.95,1.21-1.89,1.24-2.86.03-1.01-.65-2.04-1.01-3.06-2.73,1.08-3.21,1.87-4.42,7.26h-1.48c-.29,1.63-.6,3.35-.96,5.37-.58-.75-.98-1.26-1.62-2.08-.45,2.5-.84,4.73-1.32,7.4-.65-.91-1.03-1.45-1.48-2.06-.18.15-.45.26-.48.41-.42,2.14-.82,4.29-1.21,6.44-.1.52-.19,1.04-.3,1.59-.54-.09-.96-.16-1.42-.23-.23,1.24-.45,2.38-.68,3.59-.42-.15-.74-.26-1.08-.38-.76,1.6-1.52,3.17-2.27,4.75-.11-.03-.23-.06-.34-.1-.12-.88-.25-1.76-.41-2.87-1.98.95-2.58,3.05-4.54,3.9.63-1.65,1.18-3.33,1.9-4.94,1.08-2.43,2.33-4.78,3.41-7.21.37-.82.81-1.91.55-2.65-.42-1.2.06-1.93.61-2.79,1.04-1.65,2.07-3.3,3.08-4.97.2-.33.47-.75.41-1.07-.49-2.36,1.11-3.77,2.37-5.32,1.38-1.7,2.85-3.32,4.23-5.03.45-.56.71-1.26,1.06-1.9-.16-.12-.32-.25-.47-.37-1.03.91-2.07,1.82-3.26,2.87-.4-.82-.65-1.33-1.11-2.26-2.07,4.66-5.69,7.89-7.89,12.41-.47-.68-.72-1.03-1.07-1.52-2.5,2.27-4.95,4.49-7.68,6.98-.1-1.05-.16-1.64-.22-2.31-.5-.16-.98-.32-1.59-.51.21-.34.31-.65.52-.84,1.79-1.63,3.66-3.18,5.38-4.88,1-.98,1.76-2.19,2.65-3.27,2.8-3.36,5.57-6.75,8.44-10.05,1.89-2.17,4.6-2.87,7.25-3.58.36-.1.82-.11,1.15.03,1.61.65,3.08.14,4.52-.52,3.18-1.45,6.36-2.91,9.52-4.41,1.49-.71,2.95-1.46,4.67-1.33.97.08,1.91.28,2.36,1.25.71,1.51,2.06,2.06,3.5,2.5,3.41,1.06,5.99,3.38,8.33,5.89,1.41,1.5,2.06,3.6,1.45,5.7-.56,1.92-.39,3.36,1.59,4.23.36.16.72.34,1.08.51-.13.2-.27.39-.4.59-.86-.13-1.73-.26-2.74-.42-.18.47-.36.95-.55,1.47-.63.05-1.28.1-2.05.16v-4.65Z"/>
    <path class="cls-11" d="M311.03,153.5c-.35.57-.69,1.14-1.16,1.91-.41-1.46-.77-2.71-1.21-4.25-2.53,4.22-.03,7.2,1.74,10.22-.08.17-.12.3-.15.29-.37,0-.73-.04-1.09-.06-.07.16-.22.34-.17.42,1.71,3.05,3.44,6.1,5.17,9.14.15.27.42.53.44.81.07.9-.1,1.83.09,2.69.2.89.72,1.72,1.18,2.74-.46.11-.83.19-1.23.28.14,1.76.14,1.77-.51,2.6,2.61,2.4,4.55,5.24,5.84,8.74-3.87.07-6-2.19-8.04-4.9v2.29c-1.85-1.51-1.91-3.76-3.01-5.87-.39,1.14-.66,1.96-1.08,3.17-1.35-2.51-1.09-4.83-1.04-7.34-1.76.65-1.64,2.54-2.97,3.51-.84-3.42.68-6.55.97-10.12-.69.51-1.11.82-1.51,1.12-.15-1.34-.25-2.63-.48-3.9-.03-.16-.67-.22-1.17-.36.14-2.66.29-5.33.46-8.45-1.26.65-2.18,1.13-3.49,1.81.38-1.2.69-2.12.96-3.04.61-2.09,1.55-4.16-.13-6.25-.2-.25,0-1.08.29-1.43.59-.71,1.37-1.27,2.23-2.03-.18-.32-.38-.69-.58-1.05.33-.65.67-1.32,1.08-2.13-2.08-1.29-4.06-.77-6.15-.59-2.2.19-3.97,1.02-5.85,2.46v-2.54c-1.93,1.8-3.54,3.3-5.39,5.02-.2-1.08-.34-1.85-.59-3.16-1.22,1.52-2.17,2.69-3.23,4.01-.31-.38-.58-.72-.95-1.17-.65.3-1.33.62-2.29,1.07.39-.94.71-1.7,1.02-2.45-.09-.12-.19-.25-.28-.37-1.31.69-2.62,1.37-3.94,2.06-.07-.08-.13-.17-.2-.25.31-.5.54-1.09.95-1.5,2.43-2.45,4.99-4.77,8.09-6.33,1.08-.54,2.38-.85,3.59-.89,1.44-.05,2.61-.31,3.34-1.66.07-.14.2-.24.3-.36,4.39-5.29,9.73-3.86,13.41.76.29.36.53.77.77,1.11,2.01.17,3.94.33,5.88.49,3.94.34,6.89,2.33,9.05,5.53,1.16,1.72,2.14,3.58,3.26,5.48h-2.84c1.08,1.04,1.68,1.83,2.48,2.34,3.42,2.16,5.25,5.24,5.73,9.21.31,2.56.69,5.11,1.04,7.68-2.71,1.37-1.42,4.04-2.3,6.09-.63.52-1.37,1.14-2.27,1.89-.16-2.49.07-4.96-.91-7.4-.6.37-1.09.67-1.62,1q-.34-2.74-2.01-3.04c0-1.06-.02-2.15,0-3.23.02-.98.1-1.97.18-3.52-1.82,1.81-2.45,3.87-4.17,5.5v-6.95c-.14-.07-.27-.14-.41-.21-.9,1.34-1.8,2.69-2.69,4.03-.16-.06-.32-.12-.47-.18.29-2.69.59-5.38.88-8.07-.15-.04-.31-.09-.46-.13-.4.48-.8.95-1.44,1.7-.19-1.48-.34-2.67-.5-3.87-.16-.03-.32-.07-.48-.1Z"/>
    <path class="cls-1" d="M225.85,122.45c5.64-.15,11.43.85,17.05,2.52,7.42,2.21,13.59,6.38,18.88,12.1,3.53,3.82,5.16,8.29,6.2,13.16,1.27,5.98,2.36,11.99,2.01,18.14-.14,2.4-.56,4.8-1.07,7.15-.89,4.12-2.69,7.77-5.7,10.84-1.86,1.89-3.58,3.96-5.11,6.12-2.19,3.1-5.49,4.05-8.84,4.76-4.29.91-8.68,1.21-13.06,1.07-1.77-.06-3.57-.36-5.29-.81-2.74-.73-5.49-1.01-8.3-1.26-4.86-.43-9.45,1-14.16,1.5-3.76.39-6.7-.45-9.39-3.02-3.08-2.93-6.1-5.91-7.9-9.81-1.13-2.47-1.89-5.12-2.72-7.72-.89-2.83-1.6-5.72-2.5-8.55-1.25-3.9-1.49-7.81-.43-11.79.6-2.26.98-4.59,1.68-6.82,2.27-7.2,7.13-12.58,12.6-17.5,4.91-4.42,10.64-7.38,16.97-9.19,1.42-.41,2.88-.72,4.35-.87,1.47-.15,2.97-.03,4.73-.03Z"/>
    <path class="cls-2" d="M206.85,213.62c4.84.14,9.69.25,14.53.42,1.16.04,2.34.19,3.48.42,2.48.5,4.94.25,7.44.17,6.4-.22,12.82-.19,19.22-.11,4.3.05,8.59.28,12.88.53,1.71.1,3.42.35,5.09.73,2.49.57,4.27,3.8,3.16,6.05-1.09,2.22-2.54,4.29-4.04,6.26-.54.7-1.7,1.27-2.59,1.28-3.27.06-6.57.09-9.8-.3-3.71-.44-7.39-1.22-11.04-2.08-2.85-.68-5.7-.87-8.6-.75-2.65.1-5.29.29-7.94.28-3.42,0-6.9.19-10.24-.36-3.81-.63-7.61-.86-11.43-.81-5.15.06-10.29.25-15.44.42-.93.03-1.86.2-2.78.38-1.69.33-3.28-.03-4.78-.73-1.84-.87-2.53-2.39-1.73-4.26.77-1.78,1.72-3.53,2.86-5.09.53-.72,1.67-1.22,2.6-1.37,2.69-.44,5.41-.82,8.12-.93,3.67-.15,7.35-.04,11.02-.04,0-.03,0-.07,0-.1ZM206.67,214.93s0,.05,0,.07c-5,0-10,0-15,0-3.54,0-6.11,1.24-7.83,4.7-2,4.03-.19,5.12,3.16,5.63.52.08,1.09-.05,1.63-.13,3.41-.54,6.82-.81,10.27-.53,1.16.09,2.33-.02,3.5-.08,4.92-.24,9.84-.38,14.73.41,1.61.26,3.24.52,4.87.57,2.49.07,4.99-.04,7.49-.08,1.95-.03,3.89-.07,5.84-.1,2.96-.05,5.92-.26,8.86.43,6.46,1.52,12.94,3.06,19.67,2.5.38-.03.78.04,1.17.11,1.27.24,2.39-.08,3.11-1.15,1.27-1.86,2.59-3.72,3.6-5.72.88-1.73-.5-4.35-2.43-4.8-1.74-.41-3.53-.69-5.31-.79-4.13-.25-8.28-.48-12.42-.49-7.18-.02-14.38-.5-21.56.33-1.22.14-2.49-.06-3.73-.19-1.78-.19-3.56-.62-5.34-.66-4.77-.09-9.53-.03-14.3-.03Z"/>
    <path class="cls-2" d="M206.67,214.93c4.77,0,9.54-.06,14.3.03,1.78.04,3.56.47,5.34.66,1.24.13,2.51.33,3.73.19,7.18-.84,14.37-.35,21.56-.33,4.14,0,8.28.24,12.42.49,1.78.11,3.58.38,5.31.79,1.93.46,3.31,3.07,2.43,4.8-1.02,2-2.34,3.86-3.6,5.72-.73,1.07-1.84,1.39-3.11,1.15-.38-.07-.78-.14-1.17-.11-6.74.57-13.21-.97-19.67-2.5-2.95-.69-5.9-.48-8.86-.43-1.95.03-3.89.07-5.84.1-2.5.04-5,.15-7.49.08-1.63-.05-3.26-.31-4.87-.57-4.9-.79-9.81-.64-14.73-.41-1.16.06-2.34.17-3.5.08-3.45-.27-6.87,0-10.27.53-.54.08-1.1.21-1.63.13-3.35-.5-5.16-1.6-3.16-5.63,1.72-3.46,4.29-4.69,7.83-4.7,5-.01,10,0,15,0,0-.02,0-.05,0-.07Z"/>
    <g>
      <path class="cls-4" d="M173.05,228.72c.27.58.53,1.43,1.01,2.11.89,1.26,2.15,1.3,3.07.05.91-1.25,1.64-2.63,2.56-4.13-.68-.19-1.1-.3-1.51-.43-3.05-.92-4.41-3.33-3.78-6.46.71-3.51,2.83-6.01,5.5-8.17,2.16-1.74,8.07-2.06,10.86.61.04,2.1-1.1,3.92-1.98,5.78-1.97,4.16-3.97,8.31-6.09,12.4-1.07,2.07-2.26,4.13-3.68,5.96-3.18,4.08-6.68,3.65-9.08-.97-.29-.55-.57-1.12-.8-1.69-.32-.79-.25-1.54.44-2.13,1.12-.96,2.26-1.9,3.48-2.92ZM169.82,232.81c.49,1.01.87,1.87,1.31,2.68,1.81,3.3,4.26,3.68,6.62.8,1.57-1.91,2.86-4.1,4.02-6.3,2.14-4.08,4.14-8.23,6.11-12.4.72-1.52,1.81-2.95,1.66-4.98-.79-.36-1.59-.92-2.47-1.1-5.44-1.1-11.48,3.7-11.76,9.28-.13,2.6,1.03,4.08,3.62,4.57.67.13,1.36.2,2.32.34-.81,1.54-1.47,2.94-2.25,4.26-2.25,3.79-3.84,3.89-6.73.33-.76.78-1.52,1.55-2.46,2.51Z"/>
      <path class="cls-4" d="M259.84,229.89c1.12-1.31,1.92-2.26,2.73-3.21.14,0,.35-.06.43,0,2.03,1.85,2.19,1.84,3.99-.27,2.77-3.24,2.81-3.26,1.47-7.19-.7-2.06-1.55-4.06-2.42-6.33.73-.2,1.37-.42,2.03-.56,3.58-.76,3.84-.59,4.63,2.85.03.15.11.29.31.76.83-.95,1.56-1.79,2.29-2.63,1.98-2.28,2.83-2.36,5.67-.33-1.13,2.07-2.29,4.18-3.43,6.29-1.19,2.2-2.27,4.46-3.55,6.61-1.4,2.35-2.91,4.63-4.48,6.87-.47.67-1.26,1.16-1.98,1.61-1.33.83-2.74.87-3.89-.25-1.32-1.29-2.48-2.75-3.79-4.24ZM267.41,213.34c1.11,3.09,2.05,5.81,3.08,8.5.27.71.46,1.28-.09,1.93-1.16,1.37-2.21,2.84-3.42,4.17-1.45,1.59-1.89,1.59-3.82.49-.12-.07-.3-.05-.59-.1-.38.47-.8.99-1.16,1.43.1.25.12.33.15.4,2.9,4.87,5.4,5.04,8.33.27,3.26-5.32,6.23-10.81,9.31-16.24.17-.29.14-.7.19-1-1.33-.78-2.32-.62-3.15.54-.59.82-1.26,1.59-1.95,2.34-.5.55-1.08,1.02-1.91,1.81-.49-1.81-.86-3.2-1.29-4.81-1.19.09-2.32.17-3.68.27Z"/>
      <path class="cls-4" d="M240.11,223.3q1.09.75,5.45.18c.57,1.32,1.18,2.72,1.84,4.26-2.09,1.73-4.29,2.74-6.92,2.47-2.62-.26-4.78-2.39-5.33-5.2-.46-2.34-.16-4.64.25-6.97.56-3.21,5.93-7.25,9.19-7.39,2.41-.1,4.12.91,4.85,3.19.38,1.18.58,2.43.81,3.65.2,1.06-.18,1.65-1.3,2.08-2.9,1.09-5.72,2.39-8.84,3.73ZM244.88,224.61c-4.8.88-5.82.47-5.77-2.05,3.39-1.42,6.75-2.83,10.24-4.29-.2-1.02-.37-1.93-.54-2.83-.63-3.4-2.35-4.41-5.81-3.35-3.44,1.06-7.05,4.11-6.99,8.69.01.86-.04,1.72-.01,2.58.09,2.55,1.11,4.52,3.58,5.54,2.51,1.04,4.44-.27,6.59-1.44-.48-1.06-.85-1.9-1.28-2.84Z"/>
      <path class="cls-4" d="M196.46,210.23c1.82.2,3.78-.91,5.13,1.11,3.68-2.14,4.12-1.94,5.76,2.48-1.35,1.41-2.67,2.78-4.12,4.29-.3-.74-.55-1.35-.76-1.87-1.54-.44-2.43.38-3.06,1.39-1.98,3.16-4.26,6.17-5.17,9.9-.4,1.62-.62,1.74-2.26,1.57-3.58-.37-3.9-.94-2.37-4.21,2.25-4.8,4.48-9.6,6.85-14.66ZM199.68,214.68c.13-1.42.2-2.3.28-3.18-2.68-.39-2.77-.44-3.8,1.71-2.16,4.5-4.21,9.06-6.28,13.6-.08.18-.01.43-.01.94,1.05.08,2.07.16,3.12.24,1.11-4.41,3.46-7.92,5.93-11.32,1.48-2.03,2.87-2.08,5.15-.7.67-.68,1.37-1.39,2.22-2.26-.49-.94-.96-1.86-1.41-2.73-2.37.35-3.27,2.33-5.2,3.7Z"/>
      <path class="cls-4" d="M236.66,213.15c-1.2,1.56-2.15,2.8-3.12,4.06-.26-.08-.49-.09-.66-.2-1.74-1.13-2.31-1.13-3.55.4-.78.96-1.46,2.04-1.97,3.17-.66,1.47-.3,2.64.78,3.32,1.06.67,2.07.44,3.28-.72.15-.14.34-.25.65-.49.69,1.57.79,3.09.65,4.63-.08.97-.72,1.72-1.61,1.77-1.77.11-3.63.26-5.32-.15-2-.49-3.33-2.02-3.6-4.2-.37-3-.21-5.94,1.19-8.7,2.58-5.07,5.69-5.71,10.2-4.43,1.01.29,1.92.95,3.09,1.54ZM233.55,215.76c.59-.76,1.12-1.42,1.65-2.1-4.94-3.02-8.79-1.57-10.84,2.62-1.32,2.71-1.62,5.56-1.04,8.45.18.91.82,1.85,1.51,2.51,1.19,1.16,2.8,1.26,4.4,1.15,2.45-.18,2.87-.84,2.04-3.42-.35.07-.72.16-1.09.22-2.77.43-4.65-1.46-3.96-4.15.3-1.18.94-2.31,1.63-3.33,1.69-2.51,2.57-2.77,5.71-1.94Z"/>
      <path class="cls-4" d="M248.68,229.19c1.17-6.29,3.93-11.65,5.97-17.45,1.51-.84,3.29-.44,5.16-.2.14.39.3.81.48,1.31.51-.17,1.02-.35,1.52-.52,2.09-.72,3.28-.22,4.02,1.84.18.49.12,1.24-.14,1.69-.65,1.14-1.48,2.18-2.35,3.42-.41-.31-.76-.57-1.1-.83-.37-.27-.75-.54-1.08-.77-1.93.38-3.12,1.42-3.72,3.24-.81,2.44-1.83,4.82-2.6,7.27-.36,1.13-.88,1.52-2.02,1.36-1.3-.18-2.62-.23-4.15-.36ZM263.24,217.53c.32-.39.65-.81,1-1.22.74-.88.9-1.75.14-2.74-.8-1.03-1.67-.59-2.52-.2-1.1.49-2.16,1.06-3.59,1.78.26-1.09.43-1.8.61-2.5-3.12-.73-3.27-.64-4.29,1.98-.77,1.96-1.68,3.88-2.36,5.87-.86,2.55-1.55,5.15-2.35,7.87h3.62c1.13-2.87,2.16-5.65,3.32-8.37,1.28-2.99,3.47-3.81,6.43-2.46Z"/>
      <path class="cls-4" d="M215.85,210.99c3.41.08,4.74,1.32,4.66,4.57-.13,5.03-2.21,9.24-6.11,12.41-1.68,1.37-3.67,2.12-5.9,1.23-1.58-.62-2.73-1.75-2.81-3.44-.21-4.59.62-8.91,4.1-12.28,1.74-1.68,3.69-2.92,6.06-2.49ZM206.69,224.21c-.55,3.84,3.2,5.26,6.05,3.6.8-.47,1.62-1,2.24-1.68,2.53-2.79,4.18-6.04,4.51-9.83.08-.97-.21-2.01-.51-2.96-.14-.43-.68-.9-1.13-1.03-3.02-.84-5.59-.19-7.75,2.25-2.43,2.74-3.26,5.98-3.4,9.65Z"/>
      <path class="cls-7" d="M169.82,232.81c.94-.96,1.69-1.73,2.46-2.51,2.89,3.56,4.48,3.47,6.73-.33.78-1.32,1.44-2.72,2.25-4.26-.96-.14-1.64-.21-2.32-.34-2.6-.49-3.76-1.97-3.62-4.57.29-5.58,6.33-10.39,11.76-9.28.88.18,1.67.73,2.47,1.1.15,2.03-.95,3.46-1.66,4.98-1.96,4.17-3.96,8.32-6.11,12.4-1.16,2.2-2.45,4.38-4.02,6.3-2.37,2.89-4.81,2.5-6.62-.8-.45-.81-.82-1.67-1.31-2.68ZM185.7,215.1c-3.32-1.05-6.96,1.16-7.31,4.38-.07.65.06,1.42.36,2,.78,1.48,2.32,1.73,3.44.48,1.75-1.97,3.12-4.18,3.51-6.86Z"/>
      <path class="cls-7" d="M267.41,213.34c1.36-.1,2.49-.18,3.68-.27.43,1.61.81,3,1.29,4.81.84-.78,1.41-1.26,1.91-1.81.68-.75,1.36-1.52,1.95-2.34.84-1.17,1.82-1.32,3.15-.54-.05.3-.03.71-.19,1-3.08,5.43-6.05,10.92-9.31,16.24-2.93,4.77-5.42,4.6-8.33-.27-.04-.07-.06-.14-.15-.4.36-.45.78-.97,1.16-1.43.3.05.47.03.59.1,1.93,1.1,2.37,1.1,3.82-.49,1.21-1.33,2.26-2.79,3.42-4.17.55-.66.36-1.22.09-1.93-1.02-2.69-1.97-5.41-3.08-8.5Z"/>
      <path class="cls-7" d="M244.88,224.61c.43.95.8,1.78,1.28,2.84-2.15,1.17-4.07,2.48-6.59,1.44-2.47-1.02-3.49-2.99-3.58-5.54-.03-.86.03-1.72.01-2.58-.06-4.58,3.55-7.63,6.99-8.69,3.45-1.06,5.18-.05,5.81,3.35.17.91.35,1.81.54,2.83-3.49,1.46-6.85,2.87-10.24,4.29-.05,2.52.97,2.93,5.77,2.05ZM246.45,216.87c-.27-2.22-.85-3.11-1.83-3.1-1.82,0-3.61,1.67-4.13,4.08,2.07.03,3.89-.85,5.96-.98Z"/>
      <path class="cls-7" d="M199.68,214.68c1.92-1.37,2.82-3.35,5.2-3.7.45.87.92,1.79,1.41,2.73-.85.87-1.55,1.58-2.22,2.26-2.28-1.38-3.67-1.33-5.15.7-2.48,3.39-4.82,6.91-5.93,11.32-1.05-.08-2.07-.16-3.12-.24,0-.51-.07-.76.01-.94,2.08-4.54,4.13-9.1,6.28-13.6,1.03-2.15,1.12-2.1,3.8-1.71-.08.87-.16,1.76-.28,3.18Z"/>
      <path class="cls-7" d="M233.55,215.76c-3.14-.83-4.01-.57-5.71,1.94-.69,1.02-1.33,2.16-1.63,3.33-.69,2.69,1.2,4.58,3.96,4.15.37-.06.74-.15,1.09-.22.83,2.58.41,3.25-2.04,3.42-1.6.12-3.21.02-4.4-1.15-.68-.67-1.33-1.6-1.51-2.51-.58-2.9-.28-5.74,1.04-8.45,2.05-4.19,5.9-5.64,10.84-2.62-.53.68-1.05,1.34-1.65,2.1Z"/>
      <path class="cls-7" d="M263.24,217.53c-2.96-1.36-5.16-.53-6.43,2.46-1.16,2.72-2.19,5.5-3.32,8.37h-3.62c.8-2.72,1.49-5.32,2.35-7.87.68-1.99,1.59-3.91,2.36-5.87,1.03-2.62,1.18-2.71,4.29-1.98-.17.71-.34,1.42-.61,2.5,1.43-.71,2.49-1.28,3.59-1.78.85-.38,1.72-.83,2.52.2.76.99.61,1.86-.14,2.74-.35.41-.68.83-1,1.22Z"/>
      <path class="cls-7" d="M206.69,224.21c.15-3.67.98-6.9,3.4-9.65,2.16-2.44,4.73-3.09,7.75-2.25.45.13.99.6,1.13,1.03.31.95.6,1.99.51,2.96-.32,3.79-1.97,7.04-4.51,9.83-.62.68-1.43,1.22-2.24,1.68-2.86,1.66-6.6.24-6.05-3.6ZM211.76,224.61c.23-.06.7-.11,1.11-.3,2.04-.91,3.95-4.31,3.73-6.57-.22-2.3-1.91-3.2-3.74-1.84-2.08,1.55-3.31,3.7-3.52,6.32-.12,1.55.68,2.35,2.41,2.39Z"/>
      <path class="cls-4" d="M185.7,215.1c-.4,2.68-1.76,4.9-3.51,6.86-1.11,1.25-2.65,1-3.44-.48-.3-.57-.43-1.35-.36-2,.35-3.23,3.99-5.43,7.31-4.38ZM180.78,221.85c1.85-1.56,2.87-3.6,3.72-5.9-2.42-.14-4.13.95-4.89,2.93-.5,1.31-.35,1.74,1.16,2.97Z"/>
      <path class="cls-4" d="M246.45,216.87c-2.07.13-3.9,1.01-5.96.98.52-2.41,2.31-4.07,4.13-4.08.99,0,1.56.88,1.83,3.1ZM241.73,216.7c1.48-.29,2.49-.5,3.56-.71-.99-1.59-1.44-1.52-3.56.71Z"/>
      <path class="cls-4" d="M211.76,224.61c-1.73-.04-2.53-.83-2.41-2.39.2-2.62,1.44-4.78,3.52-6.32,1.83-1.36,3.53-.46,3.74,1.84.21,2.27-1.69,5.66-3.73,6.57-.41.19-.89.24-1.11.3ZM215.14,216.36c-.91.35-1.84.45-2.38.97-1.25,1.2-2.12,2.72-2.33,4.48-.06.52.16,1.35.54,1.58.4.24,1.22.11,1.69-.15,2.1-1.14,3.16-3.87,2.49-6.88Z"/>
      <path class="cls-4" d="M180.78,221.85c-1.52-1.24-1.67-1.66-1.16-2.97.76-1.97,2.47-3.06,4.89-2.93-.85,2.3-1.88,4.34-3.72,5.9Z"/>
      <path class="cls-4" d="M241.73,216.7c2.11-2.23,2.56-2.29,3.56-.71-1.06.21-2.08.41-3.56.71Z"/>
      <path class="cls-4" d="M215.14,216.36c.67,3.02-.38,5.75-2.49,6.88-.48.26-1.3.39-1.69.15-.37-.23-.6-1.06-.54-1.58.22-1.76,1.08-3.28,2.33-4.48.54-.52,1.48-.62,2.38-.97Z"/>
    </g>
    <path class="cls-3" d="M218.65,133.88c-.27.81-.42,1.67-.82,2.39-4.39,7.78-7.97,15.96-11.39,24.18-1.87,4.51-2.77,9.43-4.03,14.18-.41,1.56-.56,3.19-.92,5.34,1.37-.53,2.33-.75,3.13-1.24,4.54-2.78,9.07-5.58,12.66-9.62.35-.4.8-.77,1.29-.97,1.07-.44,2.03.01,2.06,1.13.03,1.41.72,2.52,1.19,3.74,1.1,2.85.61,5.35-1.86,7.08-3.84,2.69-7.85,5.13-11.8,7.65-4.17,2.66-8.61,4.76-13.24,6.48-1.67.62-2.72.31-3.81-1.17-.27-.37-.54-.79-.91-1.02-1.73-1.06-2.46-2.62-2.22-4.57.42-3.41.85-6.82,1.47-10.2.45-2.45,1.17-4.86,1.84-7.27.5-1.81,1-3.63,1.71-5.36,2.26-5.49,4.7-10.91,6.9-16.43,1.57-3.94,3.46-7.69,5.65-11.31,1.91-3.15,4.65-4.99,8.24-5.63,1.12-.2,2.12-.2,2.82,1.04.33.59,1.15.89,2.07,1.56ZM215.87,132.37c-1.18,0-1.99-.16-2.7.03-2.89.78-5.15,2.4-6.81,5-2.53,3.98-4.42,8.26-6.25,12.58-2.37,5.61-4.75,11.23-6.9,16.93-.98,2.61-1.26,5.49-2.14,8.15-1.08,3.3-1.64,6.67-1.93,10.1-.09,1.08.28,2.19.2,3.27-.13,1.79.71,2.91,2.48,2.7,1.3-.16,2.64-.49,3.81-1.05,6-2.83,11.96-5.73,17.92-8.66,1.05-.51,1.97-1.26,2.98-1.86,2.13-1.26,3.31-2.98,3.1-5.57-.09-1.16.13-2.34.13-3.51,0-.49-.21-.97-.38-1.7-.65.47-1.14.71-1.48,1.1-3.64,4.1-8.25,6.91-12.87,9.72-.66.4-1.39.75-2.14.93-1.66.41-2.85-.35-2.88-2.08-.06-3.04-.34-6.19.29-9.11,1.19-5.48,2.78-10.88,5.45-15.92,3.14-5.94,5.97-12.04,8.91-18.09.4-.83.7-1.71,1.19-2.95Z"/>
    <path class="cls-3" d="M249.35,162.23c-2.62.99-4.23,2.7-4.66,5.25-.86,5.01-1.53,10.05-2.33,15.07-.26,1.62-.58,3.24-1.05,4.81-.43,1.44-1.05,1.69-2.61,1.47-4.06-.6-5.73-2.36-5.75-6.5,0-1.93.39-3.87.68-5.8.18-1.24.48-2.46.75-3.68.25-1.13.53-2.26.81-3.44-.22,0-.38-.05-.46,0-2.26,1.49-4.37.55-4.66-2.24-.29-2.78.33-5.34,2.82-7.03,1.29-.87,2.66-1.65,4.05-2.36.77-.39,1.16-.87,1.4-1.71,1.88-6.5,5.42-12.12,9.53-17.38,2.48-3.18,5.56-5.73,9.39-7.19.66-.25,1.91-.49,2.09-.22.62.96,1.91,1.52,1.59,3.14-.59,2.98-.97,6.01-1.23,9.04-.19,2.17-.04,4.37-.04,6.72.44.06.79.11,1.14.14,1.61.17,2.9,1.82,2.56,3.42-.26,1.23-.65,2.45-1.8,3.18-1.63,1.04-2.08,2.62-2.19,4.42-.25,4.31.78,8.37,2.27,12.36.82,2.19,1.45,4.46,2.07,6.71.18.64.14,1.4,0,2.06-.38,1.76-1.18,2.24-2.89,1.56-3.98-1.6-7.22-4.06-8.91-8.17-1.54-3.73-2.31-7.62-2.42-11.65-.02-.6-.07-1.2-.12-2ZM261.33,182.33c-.13-1.33-.09-2.35-.34-3.3-.88-3.4-1.87-6.78-2.79-10.17-.83-3.05-1.18-6.14-.83-9.29.18-1.63.69-3.08,2.21-3.92,1.69-.93,1.94-2.42,1.92-4.41-1.3.3-2.39.55-3.79.87-.16-1.1-.41-2.07-.43-3.04-.07-4.32.52-8.58,1.29-12.82.24-1.33.21-2.7.31-4.19-2.32.63-4.13,1.44-5.73,2.77-6.85,5.68-11,13.11-13.84,21.37-.42,1.22-.95,1.97-2.12,2.53-1.47.7-2.9,1.57-4.17,2.59-2.03,1.63-2.3,3.85-1.72,6.67,1.89-1.37,3.54-2.55,5.26-3.8.95,1.27.6,2.29.33,3.36-1,4.02-2.02,8.03-2.87,12.08-.27,1.27-.28,2.71.04,3.95.31,1.23,1,2.49,1.87,3.41,1.23,1.3,2.48,1.02,3.08-.66.65-1.83,1.25-3.77,1.32-5.68.13-3.55.82-6.98,1.61-10.41.63-2.74,1.25-5.49,2-8.2.18-.67.73-1.44,1.32-1.75.95-.5,2.06-.74,3.13-.93,1.12-.2,1.8.31,2,1.44.13.76.04,1.57.13,2.34.38,3.02.66,6.06,1.25,9.03.49,2.46,1.47,4.81,3.21,6.7,1.59,1.74,3.38,3.22,6.36,3.47Z"/>
    <path class="cls-10" d="M215.87,132.37c-.5,1.24-.79,2.12-1.19,2.95-2.94,6.04-5.77,12.15-8.91,18.09-2.66,5.05-4.25,10.44-5.45,15.92-.64,2.92-.36,6.07-.29,9.11.04,1.73,1.22,2.48,2.88,2.08.75-.18,1.48-.53,2.14-.93,4.61-2.81,9.23-5.62,12.87-9.72.34-.38.83-.62,1.48-1.1.17.73.38,1.21.38,1.7,0,1.17-.22,2.35-.13,3.51.21,2.59-.98,4.31-3.1,5.57-1.01.6-1.94,1.35-2.98,1.86-5.95,2.92-11.92,5.83-17.92,8.66-1.18.56-2.52.89-3.81,1.05-1.78.21-2.62-.91-2.48-2.7.08-1.08-.29-2.19-.2-3.27.29-3.43.85-6.8,1.93-10.1.87-2.66,1.15-5.54,2.14-8.15,2.15-5.7,4.53-11.31,6.9-16.93,1.82-4.32,3.71-8.6,6.25-12.58,1.65-2.59,3.91-4.22,6.81-5,.71-.19,1.52-.03,2.7-.03Z"/>
    <path class="cls-10" d="M261.33,182.33c-2.98-.25-4.77-1.73-6.36-3.47-1.73-1.89-2.72-4.24-3.21-6.7-.59-2.98-.87-6.02-1.25-9.03-.1-.77,0-1.57-.13-2.34-.19-1.13-.87-1.64-2-1.44-1.07.19-2.18.43-3.13.93-.59.31-1.14,1.08-1.32,1.75-.75,2.71-1.37,5.46-2,8.2-.78,3.43-1.48,6.86-1.61,10.41-.07,1.91-.67,3.85-1.32,5.68-.6,1.68-1.85,1.96-3.08.66-.87-.92-1.55-2.18-1.87-3.41-.32-1.25-.31-2.68-.04-3.95.85-4.05,1.86-8.07,2.87-12.08.27-1.07.62-2.08-.33-3.36-1.73,1.24-3.37,2.43-5.26,3.8-.58-2.82-.31-5.04,1.72-6.67,1.27-1.02,2.7-1.89,4.17-2.59,1.17-.56,1.7-1.3,2.12-2.53,2.83-8.26,6.99-15.69,13.84-21.37,1.6-1.33,3.41-2.15,5.73-2.77-.1,1.49-.07,2.87-.31,4.19-.77,4.24-1.36,8.5-1.29,12.82.02.97.27,1.93.43,3.04,1.4-.32,2.49-.57,3.79-.87.02,1.99-.23,3.48-1.92,4.41-1.52.84-2.03,2.29-2.21,3.92-.35,3.16,0,6.25.83,9.29.93,3.39,1.91,6.77,2.79,10.17.25.95.21,1.97.34,3.3ZM245.15,154.73c2.03,1.4,2.18,1.42,5.05.76,1.04-3.44,1.69-11.13,1.01-12.89-3.06,3.57-4.47,7.84-6.06,12.13Z"/>
    <path class="cls-3" d="M245.15,154.73c1.59-4.29,3-8.55,6.06-12.13.68,1.75.03,9.44-1.01,12.89-2.87.65-3.02.64-5.05-.76ZM247.94,154.42c.19.17.37.34.56.52.35-.25.95-.46,1.01-.76.23-1.27.3-2.58.43-3.87-.17-.04-.35-.08-.52-.13-.49,1.42-.98,2.83-1.47,4.25Z"/>
    <path class="cls-7" d="M247.94,154.42c.49-1.42.98-2.83,1.47-4.25.17.04.35.08.52.13-.13,1.29-.2,2.6-.43,3.87-.06.31-.66.51-1.01.76-.19-.17-.37-.34-.56-.52Z"/>
  </g>
  <g>
    <polygon class="cls-6" points="68.66 151.09 16.3 227.74 18.91 231.04 118.8 227.56 82.92 161.66 72.24 149.19 68.66 151.09"/>
    <path class="cls-5" d="M100.73,188.45c3.51.51,2.58,5.9,6.25,6.23.1,3.85,2.07,5.65,4.51,6.9-.28,4.06,2.02,5.29,4.46,6.32.28,1-.4,1.13-1.12,1.25.83.81,2.79,1.35,1.33,2.9.46-.34.95-.66,1.75-.68.28,1.19-.03,1.86-1.1,1.84,1.18,1.5,4.6,4.74,2.67,5.81.6,1.01,1.92,1.21,3.61,1.01.33,4.86,3,7.12,2.99,12.34-.57-.33-2.24-1.28-1.74.68-1.07-1.12-4.14-.02-4.28-2.17-1.31,2.35-4.07-1.55-7.05,1.54-1.8.3-1.33-1.87-1.94-2.88-1.7.59.85,1.45.15,2.96-.46-.38-2-2.41-1.77.09-8.28-.58-20.59-.62-27.92.19-.03-.59-.07-1.18-.09-1.77-2.68,1.57-5.81,1.88-8.31.4-1.61,2.32-12.63,2.38-16.01.8-6.52,3.76-21.02.22-24.17,4.16-5.11-2.87-13.92.38-20.31-1.96-.61-1.87.39-2.28,1.04-3.03-2.39-.09-1-.46-1.38-4.09,2.76-.89,3.9-3.25,3.84-6.72,2.74.42,1.19-3.06,4.02-2.59-.51-1.8-.47-1.11-.15-2.96,4.03.46,1.59-4.98,5.09-5-.41-.58-1.39-.55-1.27-1.73,2.38.66,1.11-2,3.5-1.36-.05-.99-.1-1.98-.15-2.96.51-.48,1.31-.7,2.34-.7,3.48-8.95,9.99-15.13,13.69-23.86,2.05-.03,2.69-1.33,2.19-3.67,1.74.07,1.75-1.44,3.51-1.37,1.44-7.95,9.01-10.35,10.39-18.35,6.51-1.46,4.95-10.24,11.3-11.85-.41-.58-1.39-.55-1.28-1.72,1.96-.12,2.9-1.16,5.32-.86,2.66,1.88-.7,3.07,3.1,2.82-2.45,2.68.76,10.53,3.43,9.33.89.15.16,4.49,3.17,4.01-.32,1.83.73,2.13.78,3.52,7.64,6.37,9.1,19.57,16.74,25.92.26,1-.41,1.15-1.13,1.25ZM66.07,161.03c-1.87.83-.53-1.9-2.43-1.07-.9.3-.4,1.9-2.29,1.31-.73,3.12-1.47,6.22-4.4,7.36-.71,3.27,1.67,3.15,2.61,4.62-4.12,3.02-4.14,12.69-11.43,9.47.67,1.77,2.84,1.86,3.17,4.01-1.56.81-2.72,1.12-3.5,1.36,2.53,2.06-.66,1.55-1.64,3.06-2.53,3.93-3.9,10.12-8.35,11.11-.16,2.87-1.21,4.96-3.9,5.53,1.5,3.08-.87.43-1.71,1.87,3.82.72-2.44,2.61.22,4.16-4.22.89-3.19,6.54-6.12,8.62-.38-1.02.55-3.52-.76-3.53,0,.93.19,2.05-1.1,1.84-.63,1.95,1.94.36,1.31,2.31-2.46.6-2.01,3.85-3.29,5.52,6.18-1.37,16.23-1.47,23.13-1.15.1-.46-.04-1.17.53-1.21,23.01,2.1,41.35-1.48,69.44-2.24-1.29-6.24-6.79-9.22-8.95-12.64-.72-5.27-5.7-5.8-5.92-11.59-2.66.4-2.28-2.11-1.96-3.46-2.36.06-4.5-3.78-2.6-4.63-1.85,1.01-1.99-.34-3.62-1.01-4.28-12.94-14.51-22.09-19.43-32.32.02.6-1.01.79-1.19.05.72-.09,1.39-.24,1.13-1.25-1.65.58-1.58-.76-3-.44-2.87,4-4.15,9.45-8.94,11.73,1.25,2.04-.44,2.89-1.57,4.25-.71-2.35-.14-4.62.87-6.59.98-.03.4,1.63,1.27,1.73.13-2.55,2.17-7.4,3.91-4.95-.06-.82.21-1.31.49-1.8Z"/>
  </g>
  <text class="cls-9" transform="translate(47.26 216.25)"><tspan x="0" y="0">58</tspan></text>
</svg>