<?xml version="1.0" encoding="UTF-8"?>
<svg id="Layer_1" xmlns="http://www.w3.org/2000/svg" viewBox="0 0 400 400">
  <defs>
    <style>
      .cls-1, .cls-2, .cls-3 {
        fill-rule: evenodd;
      }

      .cls-1, .cls-4 {
        fill: #fff;
      }

      .cls-5 {
        fill: #231f20;
        font-family: AmericanTypewriter-CondensedBold, 'American Typewriter';
        font-size: 42.62px;
        font-weight: 700;
        letter-spacing: -.02em;
      }

      .cls-6 {
        fill: #273d7f;
      }

      .cls-3 {
        fill: #f9ed32;
      }
    </style>
  </defs>
  <g>
    <g>
      <polygon class="cls-3" points="75.83 113.55 23.47 190.2 26.08 193.5 125.96 190.03 90.08 124.12 79.41 111.65 75.83 113.55"/>
      <path class="cls-2" d="M107.9,150.91c3.5.51,2.58,5.9,6.25,6.23.1,3.85,2.07,5.65,4.51,6.91-.28,4.06,2.01,5.28,4.46,6.33.28,1-.4,1.13-1.12,1.24.83.82,2.79,1.35,1.33,2.9.46-.34.95-.66,1.75-.68.27,1.19-.03,1.86-1.1,1.84,1.19,1.5,4.61,4.74,2.67,5.81.6,1.01,1.92,1.22,3.61,1.01.33,4.85,3,7.12,2.99,12.34-.57-.34-2.25-1.28-1.74.67-1.07-1.11-4.13-.02-4.26-2.16-1.32,2.34-4.07-1.55-7.06,1.54-1.8.3-1.34-1.87-1.94-2.88-1.7.6.84,1.46.15,2.97-.46-.39-2-2.41-1.78.09-8.28-.58-20.59-.63-27.92.18-.03-.58-.06-1.18-.09-1.77-2.68,1.58-5.81,1.89-8.31.41-1.61,2.32-12.64,2.38-16.02.8-6.51,3.75-21.02.23-24.17,4.16-5.11-2.87-13.92.37-20.31-1.96-.6-1.86.4-2.28,1.04-3.03-2.39-.09-.99-.46-1.38-4.09,2.77-.9,3.9-3.26,3.83-6.73,2.75.43,1.2-3.05,4.03-2.58-.52-1.8-.47-1.12-.15-2.97,4.03.45,1.59-4.98,5.1-5.01-.41-.58-1.39-.54-1.28-1.72,2.39.65,1.12-2,3.51-1.36-.06-.99-.1-1.98-.15-2.97.51-.49,1.31-.7,2.34-.7,3.47-8.95,9.98-15.13,13.68-23.86,2.05-.03,2.7-1.34,2.2-3.68,1.74.07,1.75-1.43,3.51-1.36,1.44-7.95,9.01-10.36,10.39-18.36,6.51-1.46,4.95-10.23,11.29-11.85-.41-.58-1.39-.55-1.28-1.72,1.95-.12,2.9-1.15,5.32-.85,2.66,1.88-.7,3.06,3.11,2.81-2.46,2.68.76,10.53,3.43,9.34.88.15.16,4.49,3.17,4.01-.33,1.83.73,2.14.78,3.53,7.63,6.37,9.09,19.56,16.74,25.91.26,1-.41,1.15-1.13,1.25ZM73.24,123.49c-1.88.83-.54-1.9-2.44-1.07-.9.3-.41,1.9-2.29,1.31-.73,3.12-1.47,6.22-4.4,7.35-.7,3.28,1.67,3.15,2.61,4.62-4.12,3.02-4.14,12.7-11.42,9.48.67,1.77,2.84,1.86,3.17,4.01-1.57.8-2.72,1.12-3.5,1.36,2.53,2.06-.67,1.55-1.64,3.05-2.53,3.94-3.91,10.12-8.35,11.12-.16,2.87-1.2,4.96-3.89,5.53,1.5,3.08-.87.43-1.7,1.88,3.82.72-2.44,2.6.21,4.15-4.22.89-3.18,6.55-6.11,8.63-.38-1.03.55-3.52-.77-3.54,0,.93.19,2.05-1.1,1.84-.64,1.95,1.94.35,1.31,2.3-2.46.61-2.01,3.85-3.29,5.53,6.18-1.37,16.23-1.48,23.13-1.15.11-.46-.04-1.17.53-1.22,23.01,2.1,41.35-1.48,69.45-2.24-1.29-6.23-6.8-9.23-8.96-12.64-.71-5.27-5.69-5.8-5.91-11.6-2.66.4-2.29-2.11-1.97-3.47-2.36.06-4.51-3.77-2.6-4.62-1.85,1-1.99-.35-3.62-1.01-4.29-12.95-14.51-22.09-19.43-32.33.03.6-1.01.8-1.18.05.72-.09,1.39-.24,1.13-1.24-1.65.57-1.58-.76-3-.44-2.87,4-4.15,9.46-8.94,11.73,1.25,2.03-.43,2.88-1.57,4.24-.72-2.35-.14-4.62.87-6.59.98-.03.4,1.63,1.27,1.72.13-2.55,2.17-7.39,3.91-4.94-.06-.82.22-1.32.5-1.81Z"/>
    </g>
    <text class="cls-5" transform="translate(56.35 179.8)"><tspan x="0" y="0">59</tspan></text>
  </g>
  <g>
    <path class="cls-1" d="M135.11,202.6l1.01,25.13.5,6.03s19.1,1.51,25.13,2.01c6.03.5,135.7,0,138.72.5,3.02.5,16.08,0,17.59,0s5.03,0,5.03-2.01-2.51-26.64-2.51-26.64l-.5-4.02s-42.72-.5-46.24-1.01c-3.52-.5-63.33-.5-65.34-.5s-32.17-1.01-35.68-1.01-37.69,1.51-37.69,1.51Z"/>
    <g>
      <path class="cls-6" d="M237.29,85.67c7.13.2,14.15.96,21.1,2.47,2.27.49,4.62.71,6.94.93,9.82.92,19.13,3.56,28.04,7.82,4.67,2.23,9.24,4.58,13.69,7.22,2.19,1.29,4.48,2.43,6.81,3.47,4.2,1.89,7.38,4.94,10.14,8.51,2.25,2.91,4.54,5.79,6.22,9.1.5.99,1.33,1.83,2.05,2.7,3.46,4.1,4.37,8.73,3.15,13.92-.84,3.58-1.46,7.21-2.2,10.82-.52,2.53-1.6,4.8-3.02,6.96-2.73,4.16-6.46,7.27-10.29,10.33-4.3,3.43-9.24,5.74-13.92,8.52-6.37,3.77-13.17,6.58-19.94,9.42-3.44,1.44-7.09,2.4-10.7,3.4-3.47.97-6.97,1.83-10.5,2.53-5.06,1-10.15,1.87-15.25,2.65-2.79.43-5.63.6-8.46.79-5.51.37-11.01.73-16.52,1-6.67.33-13.28.02-19.81-1.64-2.73-.69-5.58-.88-8.38-1.3-1.12-.17-2.24-.33-3.35-.53-.84-.15-1.66-.45-2.5-.49-5.71-.28-10.85-2.53-16.05-4.56-5.29-2.07-10.29-4.75-15.11-7.71-4.1-2.52-8.19-5.08-12.02-7.97-2.52-1.89-4.68-4.3-6.8-6.67-2.12-2.37-3.99-4.96-5.96-7.47-3.63-4.62-6.43-9.65-7.65-15.47-.68-3.26-.61-6.5.32-9.67,1.08-3.68,2.49-7.25,4.82-10.35,3.37-4.48,7.06-8.64,11.31-12.34,4.03-3.51,8.24-6.68,12.94-9.2,1.68-.9,3.33-1.87,5.32-2.02.54-.04,1.07-.36,1.59-.56.99-.39,1.94-.89,2.96-1.17,5.74-1.59,11.1-4.22,16.7-6.19,4.88-1.72,9.88-3.05,15.02-3.69,6.81-.84,13.63-1.67,20.46-2.29,6.27-.57,12.56-.86,18.84-1.28ZM221.34,194.76c2.83-.13,5.66-.24,8.48-.4,3.32-.19,6.64-.4,9.96-.66,3.38-.26,6.78-.45,10.14-.92,4.76-.67,9.51-1.45,14.21-2.4,4.71-.95,9.46-1.85,14.01-3.36,5.76-1.91,11.45-4.15,16.95-6.71,5.7-2.65,11.27-5.64,16.67-8.86,5.91-3.53,11.34-7.72,15.3-13.54,1.38-2.03,2.36-4.17,2.83-6.57.69-3.54,1.36-7.09,2.16-10.61.87-3.85.22-7.29-2.28-10.37-.89-1.1-1.92-2.14-2.56-3.38-1.65-3.17-3.79-5.97-5.99-8.75-1.98-2.5-3.99-5.08-6.96-6.44-7.34-3.37-14.06-7.89-21.41-11.26-5.7-2.61-11.43-4.93-17.55-6.26-2.97-.65-5.95-1.24-8.95-1.71-3.21-.5-6.46-.72-9.66-1.27-4.47-.77-8.93-1.5-13.46-1.76-8.3-.48-16.56.1-24.81.88-6.13.58-12.24,1.35-18.35,2.08-6.28.75-12.38,2.23-18.25,4.63-3.21,1.31-6.36,2.84-9.67,3.79-4.32,1.24-8.37,3.02-12.4,4.95-1.7.82-3.53,1.38-5.23,2.2-3.36,1.63-5.87,4.41-8.74,6.7-4.14,3.3-7.45,7.35-10.64,11.51-2.19,2.85-3.45,6.18-4.44,9.59-.82,2.83-.78,5.71-.05,8.61,1.23,4.91,3.64,9.19,6.72,13.13,2,2.57,3.94,5.2,6.09,7.64,1.87,2.11,3.8,4.26,6.05,5.92,3.8,2.81,7.81,5.37,11.85,7.84,4.53,2.77,9.19,5.3,14.15,7.26,4.08,1.61,8.11,3.39,12.46,4.14,3.9.67,7.84,1.1,11.76,1.65,1.68.24,3.38.43,5.03.81,5.46,1.27,10.94,2.32,16.6,1.89Z"/>
      <path class="cls-6" d="M295.51,212.39c-.17,1.41-.3,2.56-.44,3.73h-3.25v-8.56c1.55-.46,3.16-.13,4.74-.07.38.02.8.52,1.09.88.66.81,1.26,1.66,2.14,2.86v-3.93c1.42.08,2.65.15,3.99.23.9,2.87.4,5.64.33,8.27-.37.21-.48.3-.61.34-2.68.94-4.76.18-6.34-2.17-.37-.55-.98-.95-1.66-1.58Z"/>
      <path class="cls-6" d="M209.88,216.72c-2.59.58-4.65.46-5.57-2.11h-3.23c-.06.72-.11,1.38-.18,2.16h-3.58v-9c2.12-.59,4.35-.54,6.6-.35.77.06,1.54.21,2.3.32,2.04.29,2.85,1.33,2.49,3.36-.16.89-.58,1.73-.94,2.75.31.36.74.81,1.11,1.3.33.44.59.93,1,1.57ZM200.53,210.61c.15.23.25.6.42.63,1.58.29,3.12.15,4.8-.33-1.38-1.33-2.66-1.37-5.22-.3Z"/>
      <path class="cls-6" d="M266.18,216.05v-8.63c2.88-.22,5.79-.73,8.75-.12,2.49.51,3.18,2.04,1.95,4.32.03.12.03.27.11.36,1.75,2.22,1.34,3.52-1.36,4.24-.61.16-1.25.28-1.87.25-2.39-.1-4.78-.26-7.57-.42ZM274.62,214.08c0-.25-.02-.5-.02-.75-1.33-.17-2.66-.36-4-.47-.22-.02-.63.35-.67.59-.04.25.21.78.4.81,1.45.26,2.94.63,4.3-.19ZM269.78,209.94c-.08.17-.15.34-.23.51.34.22.68.62,1.02.62,1.24,0,2.61.42,3.95-.97-1.81-.47-3.26-.52-4.73-.16Z"/>
      <path class="cls-6" d="M305.61,207.3c1.3.06,2.41.11,3.66.16.06.89.12,1.71.2,2.83.58-.14,1.07-.22,1.53-.38.18-.06.36-.25.47-.42,1.66-2.43,3.9-2.94,6.82-1.89-1.26,1.47-2.51,2.93-3.78,4.41,1.35,1.45,2.59,2.78,3.87,4.15-2.7,1-5.01.42-6.72-1.64-.5-.61-.95-1.28-2.02-.87-.08.89-.17,1.82-.26,2.86h-3.3c-.28-2.51-.59-4.94-.81-7.38-.05-.58.22-1.19.35-1.83Z"/>
      <path class="cls-6" d="M184.88,207.43c3.41-.13,6.5-.26,9.78-.38.18.67.37,1.38.57,2.15-2.12,1.23-4.36.64-6.72.94,1.15,1.16,2.3.6,3.31.66,1.11.07,2.23.02,3.5.02.04.8.08,1.39.12,2.28-1.69.06-3.22.11-4.75.16-.57.02-1.15-.09-1.69.03-.22.05-.35.54-.66,1.08,2.54-.24,4.75-.46,7.25-.7-.21,1.09-.36,1.87-.49,2.55-3.37.16-6.52.31-9.77.47-.64-3.12-.4-6.07-.45-9.25Z"/>
      <path class="cls-6" d="M175.8,214.5c-.13.8-.23,1.4-.35,2.12h-3.59c-.35-3.1.37-6.06.3-9.29,3.3,0,6.38-.07,9.46.04,1.31.05,2.22,1.34,2.36,2.85.17,1.8-.58,3.29-2.1,3.73-1.14.33-2.36.42-3.55.54-.77.08-1.55.01-2.53.01ZM175.51,211.41c1.92.23,3.39.12,5.05-.56-1.55-1.09-3.03-.53-4.44-.49-.16,0-.31.51-.61,1.05Z"/>
      <path class="cls-6" d="M216,216.65c-.87-.08-1.59-.07-2.28-.22-2.19-.47-3.68-1.93-3.84-3.7-.22-2.33.79-4.23,3-5.08,2.07-.8,4.23-1.08,6.38-.06,2.04.97,3.05,2.81,2.74,5.21-.25,1.95-1.38,3.06-3.64,3.51-.83.16-1.67.24-2.36.33ZM216,213.65c1.32.04,2.29.01,2.42-1.05.08-.59-.19-1.54-.62-1.82-.94-.61-2.13-.87-3.17-.14-.41.28-.84.86-.84,1.3,0,.42.46.97.87,1.23.5.33,1.16.42,1.34.48Z"/>
      <path class="cls-6" d="M226.98,207.43c-.1,1.37-.2,2.54-.27,3.73-.08,1.49.51,2.19,2,2.45,1.3.22,2.4-.47,2.69-1.77.15-.69.21-1.4.27-2.1.06-.7.07-1.4.11-2.23h3.3c.54,2.9.42,5.58-1.54,7.83-.53.61-1.58.93-2.43,1.06-1.39.21-2.82.24-4.23.21-2.14-.04-3.4-1.08-4.03-3.11-.47-1.51-.59-3.02-.22-4.58.36-1.52.62-1.79,2.12-1.74.63.02,1.25.14,2.24.26Z"/>
      <path class="cls-6" d="M260.09,207.67c-.13.91-.21,1.44-.33,2.25h-6.84c0,.18-.02.36-.03.54,1.28.4,2.61.57,3.97.65.56.03,1.13.01,1.7.04,1.08.05,1.5.6,1.23,1.93-2.35.12-4.73.24-7.1.36,0,.2,0,.4,0,.6,2.38.25,4.76.51,7.26.78-.12.76-.21,1.29-.32,1.99-3.34-.11-6.62-.22-10.07-.34v-8.79c3.39-.63,6.79.3,10.53,0Z"/>
      <path class="cls-6" d="M243.83,213.36c-1.38-.25-2.76-.51-4.15-.76-1.25-.23-2.23-.84-2.86-1.97-.68-1.22-.55-1.98.74-2.6.93-.45,2-.86,3.01-.86,1.74,0,3.5.22,5.21.57,1.26.26,1.98,1.21,2.02,2.76-1.52-.21-2.9.35-4.28-.7-1.18-.89-2.54-.48-3.88.83,1.53.18,2.89.31,4.25.51.83.12,1.68.25,2.47.52.85.29,1.41.91,1.41,1.9,0,1.01-.38,1.78-1.29,2.26-.12.07-.25.14-.39.17-2.64.65-5.29.88-7.95.17-1.15-.31-2.04-.94-2.07-2.42,1.42-.36,2.75-.96,4.03.46.33.36,1.19.37,1.79.31.7-.07,1.37-.38,2.06-.58-.04-.19-.08-.38-.11-.57Z"/>
      <path class="cls-6" d="M282.5,207.3q4.16.01,6.1,3.43c.73,1.29,1.43,2.59,2.11,3.91.24.47.38,1,.68,1.82-1.28.06-2.29.11-3.46.16-.78-2.58-2.9-1.44-4.63-1.77-.45.59-.86,1.14-1.33,1.75-1.16-.08-2.33-.15-3.79-.25,1.51-3.17,2.88-6.06,4.31-9.05Z"/>
      <path class="cls-6" d="M151.73,215.91c1.54-2.74,3.08-5.48,4.59-8.18.61,0,1.02,0,1.43,0,4.08.08,3.04-.1,4.9,3.16.45.79.72,1.69,1.15,2.5.42.8.93,1.55,1.58,2.62-1.73.25-3.14.45-4.68.68-.26-.5-.5-.97-.79-1.52h-3.42c-1.77,2.09-2.33,2.2-4.76.73ZM159.41,212.29c-.24-.52-.43-.93-.74-1.59-.33.66-.53,1.06-.8,1.59h1.53Z"/>
      <path class="cls-6" d="M219.92,225.77c.45.67.91,1.35,1.5,2.23-1.82.1-3.32.55-4.38-1.37-.32-.59-1.69-.61-2.77-.95-.08.93-.14,1.53-.2,2.27h-3.17v-7.78c2.45-.62,4.96-.79,7.43-.25,3.11.68,3.76,2.6,1.97,5.28-.12.18-.23.35-.37.57ZM217.5,223.06c-1.98-.76-2.42-.74-3.76.06,1.36.46,2.55.67,3.76-.06Z"/>
      <path class="cls-6" d="M164.19,227.83c-.63-1.45-1.6-2.29-3.4-1.68-.11.46-.24.98-.4,1.65-1.15-.07-2.25-.13-3.44-.2,0-2.18-.04-4.26.02-6.34.03-1.05.86-1.47,1.76-1.46,1.96,0,3.96-.04,5.89.26,2.96.46,3.65,2.3,2.04,4.88-.15.23-.33.45-.55.74.35.66.7,1.31,1.14,2.15h-3.05ZM164.45,223.43c-1.44-1.04-2.93-1.38-3.84-.99-.21.09-.28.53-.5.99h4.34Z"/>
      <path class="cls-6" d="M307.46,222.62c-1.78.27-3.24.68-4.68-.29-.76-.51-1.71-.58-2.36.04-.44.42-.72,1.21-.75,1.84-.05.95.56,1.62,1.55,1.66.72.03,1.45-.17,2.15-.63-.59-.13-1.18-.26-2.14-.48.44-.51.69-1.07.96-1.08,1.59-.08,3.19-.04,4.91-.04.07.83.14,1.44.17,2.06.03.62,0,1.25,0,1.81-.19.15-.34.33-.4.3-1.25-.59-2.34.11-3.49.37-.75.17-1.53.2-2.29.34-1.75.34-2.83-.61-3.65-1.94-.85-1.37-1.04-2.91-.82-4.49.13-.96.61-1.77,1.63-2.01,2.15-.51,4.31-.79,6.46-.03,1.15.41,2.14,1.01,2.75,2.56Z"/>
      <path class="cls-6" d="M177.62,219.79c-.05.68-.1,1.3-.16,2.08h-5.68c-.03.12-.07.24-.1.36.3.18.59.49.89.51.91.06,1.84-.02,2.75,0,.49,0,1.04-.01,1.45.2.35.18.64.65.76,1.05.04.13-.54.61-.87.64-.98.1-1.97.05-2.96.08-.66.02-1.32.08-2,.33.71,1.01,1.74.95,2.73.95,1.04,0,2.09,0,3.11,0,.24,1.05.4,1.9-.78,1.95-1.76.08-3.53.05-5.3.01-.98-.02-1.96-.14-3.23-.23v-7.93h9.38Z"/>
      <path class="cls-6" d="M151.23,216.61c-3.5.18-6.85.35-10.43.53-.4-3.37.23-6.48.09-9.74h4.31c.09,1.81.19,3.66.29,5.63h5.74v3.59Z"/>
      <path class="cls-6" d="M269.11,227.69c-1.13-.14-2.01-.25-3.03-.38v-7.16c1.1-.13,2.14-.35,3.17-.33.46,0,1.01.4,1.35.77.67.71,1.23,1.52,2.14,2.68.08-1.35.13-2.25.19-3.31,1.09.06,2.04.12,3.14.18v7.56c-1.82.35-3.44.41-4.65-1.39-.49-.73-1.3-1.25-2.31-2.19v3.58Z"/>
      <path class="cls-6" d="M308.21,219.89h9.16c.11.23.32.47.35.73.19,1.56-.15,1.97-1.66,1.9-.84-.04-1.68-.2-2.52-.28-.38-.04-.76,0-1.14,0,0,.14-.01.27-.02.41,1.44.1,2.88.22,4.32.31.93.06,1.51.38,1.12,1.75h-5.57c-.02.16-.04.32-.06.48.33.14.66.36,1,.39,1.2.09,2.4.08,3.59.19.97.09,1.39.62.88,1.84-2.74-.02-5.58.61-8.43-.01-.4-.09-.95-.71-.97-1.11-.1-2.09-.05-4.19-.05-6.59Z"/>
      <path class="cls-6" d="M233.09,219.78h3.14c.1.94.18,1.75.28,2.67h4.11c.16-.76.31-1.49.49-2.39.84.04,1.65.08,2.69.13v7.7h-3.44c-.08-.73-.16-1.41-.26-2.23h-3.43c-.15.54-.31,1.12-.49,1.8h-2.91c-.55-1.32-.61-3.97-.17-7.68Z"/>
      <path class="cls-6" d="M150.27,221.98c-1.12.14-1.8.23-2.48.31,0,.06-.02.11-.03.17,1.09.11,2.19.21,3.43.33.14.58.28,1.16.46,1.87-.51.18-.95.34-1.39.49-.69,2.38-1.27,2.84-3.7,2.86-1.4.01-2.82.16-4.13-.59-1.59-.92-1.97-2.12-1.06-3.7.23-.4.58-.59.36-1.25-.45-1.33.12-2.41,1.49-2.68,1.86-.37,3.81-.55,5.54.54.52.33.88.93,1.52,1.65ZM144.72,224.78c.76.93,1.52,1.12,2.62,0h-2.62ZM146.66,222.58c-1.11-.92-1.78-1.06-2.67,0h2.67Z"/>
      <path class="cls-6" d="M198.24,224.87h-5.38c.64.79,1.5.67,2.33.69.83.01,1.67,0,2.7,0,.05.84.08,1.49.13,2.47h-8.16c-.17-2.33-.37-4.95-.58-7.78,2.99-.3,5.95-.77,9.08-.14.05.55.11,1.07.17,1.78h-5.65c-.02.12-.04.24-.07.36.32.11.64.3.96.32.99.04,1.98,0,2.97.03,1.63.05,1.72.19,1.49,2.28Z"/>
      <path class="cls-6" d="M178.07,225.43c1.64-.1,2.73-.73,3.96.38.53.49,1.81.16,3.11.22-.77-1.33-1.74-1.16-2.56-1.32-.9-.17-1.84-.19-2.69-.47-1.54-.52-1.8-1.98-.63-3.13,1.87-1.83,6.52-2.12,8.49-.46.43.36.64.99,1.12,1.74-1.63.07-2.82.54-4.07-.52-.81-.69-1.94-.33-3.22.67,1.34.2,2.23.31,3.1.47.83.16,1.7.26,2.45.6,1.54.69,1.65,2.9.25,3.81-1.68,1.09-6.79.83-8.34-.48-.34-.29-.51-.77-.98-1.53Z"/>
      <path class="cls-6" d="M297.15,227.84c-1.93.07-3.34.69-4.54-1.06-.69-1.01-2.5-.53-3.09.1-1.11,1.17-2.27.67-3.43.78-.26.03-.54-.07-.93-.13.61-2.99,2.69-5.11,4.04-7.73.43-.02.91-.04,1.39-.06,1.76-.07,3.04.38,3.72,2.31.67,1.89,1.76,3.63,2.85,5.78ZM292.03,224.28c-.31-.54-.48-.82-.67-1.15q-.61.92.67,1.15Z"/>
      <path class="cls-6" d="M232.03,223.3c-1.24.07-2.37.5-3.54-.55-.48-.43-1.58-.28-2.38-.23-.74.04-1.11.65-1.09,1.34.03.79.49,1.37,1.32,1.39.6.01,1.44.01,1.75-.34.9-1.03,2.03-.8,3.1-.81.83,0,1.15.77.78,1.54-.06.12-.16.23-.24.34-2.2,2.91-7.19,2.74-9.16-.31-1.24-1.92-.9-3.83.93-5.19,3.13-2.33,7.41-.98,8.54,2.82Z"/>
      <path class="cls-6" d="M203.3,219.69c1.3.19,2.27.33,3.28.47,1.26,2.46,2.51,4.89,3.84,7.48-1.45.34-2.67.86-3.79-.45-.51-.6-3.09-.79-3.56-.17-1.27,1.7-2.75.71-4.5.68.94-1.51,1.77-2.77,2.53-4.06.75-1.27,1.44-2.57,2.2-3.94Z"/>
      <path class="cls-6" d="M255.06,224.27c.73-1.54,1.32-2.79,2.01-4.24,1.03.15,2.03.3,3.23.47-.44,2.74-1.92,4.76-2.82,7.09h-3.81c-1.62-2.41-3.22-4.78-5.07-7.53,1.46-.18,2.52-.31,3.66-.45.9,1.5,1.76,2.94,2.8,4.67Z"/>
      <path class="cls-6" d="M286.74,219.99v2.55c-.85.07-1.67.15-2.74.24-.07,1.61-.15,3.26-.23,5.1-.89.08-1.71.15-2.83.25-.19-1.66-.38-3.23-.58-4.95-.91-.09-1.8-.18-2.83-.28-.11-.94-.23-1.87-.36-2.9h9.57Z"/>
      <path class="cls-6" d="M264.16,227.54c-.57.04-.99.1-1.4.09-2.05-.06-2.11-.2-1.98-2.2.07-1.11-.11-2.23-.15-3.35-.02-.61,0-1.22,0-1.94h3.54v7.4Z"/>
      <path class="cls-6" d="M193.38,204.03q-1.69,2.84-3.8,2.26c.61-.88,1.18-1.71,1.83-2.66.59.12,1.18.24,1.97.4Z"/>
      <path class="cls-4" d="M221.34,194.76c-5.66.44-11.14-.61-16.6-1.89-1.65-.38-3.35-.58-5.03-.81-3.92-.55-7.86-.98-11.76-1.65-4.35-.75-8.38-2.53-12.46-4.14-4.96-1.96-9.62-4.49-14.15-7.26-4.04-2.47-8.05-5.02-11.85-7.84-2.25-1.66-4.18-3.81-6.05-5.92-2.15-2.44-4.09-5.07-6.09-7.64-3.08-3.95-5.49-8.22-6.72-13.13-.73-2.9-.77-5.78.05-8.61.99-3.41,2.26-6.74,4.44-9.59,3.19-4.16,6.5-8.21,10.64-11.51,2.87-2.29,5.38-5.07,8.74-6.7,1.7-.83,3.53-1.39,5.23-2.2,4.02-1.93,8.08-3.7,12.4-4.95,3.31-.95,6.47-2.48,9.67-3.79,5.87-2.4,11.97-3.88,18.25-4.63,6.11-.73,12.23-1.5,18.35-2.08,8.25-.78,16.51-1.36,24.81-.88,4.54.26,8.99.99,13.46,1.76,3.2.55,6.45.77,9.66,1.27,3,.47,5.98,1.06,8.95,1.71,6.11,1.33,11.85,3.64,17.55,6.26,7.35,3.37,14.07,7.89,21.41,11.26,2.97,1.36,4.97,3.94,6.96,6.44,2.2,2.77,4.34,5.58,5.99,8.75.64,1.24,1.67,2.28,2.56,3.38,2.5,3.08,3.16,6.52,2.28,10.37-.8,3.52-1.47,7.07-2.16,10.61-.47,2.4-1.44,4.54-2.83,6.57-3.96,5.82-9.4,10.01-15.3,13.54-5.4,3.23-10.97,6.21-16.67,8.86-5.5,2.56-11.19,4.8-16.95,6.71-4.54,1.5-9.3,2.4-14.01,3.36-4.71.95-9.46,1.73-14.21,2.4-3.36.47-6.75.66-10.14.92-3.32.26-6.64.47-9.96.66-2.83.16-5.66.27-8.48.4ZM163.17,164.28c0-.13.01-.26.02-.38-1.09-.2-2.17-.39-3.26-.59,0-.16,0-.31-.01-.47,2.01.03,3.75-1.66,6.27-.68-1.07.64-1.87,1.11-2.66,1.58l.1.5c1.41.23,2.85.15,4.29-.05,1.47-.21,2.92-.51,4.4-.66.67-.07,1.52-.09,2.01.26.94.67,1.81.6,2.8.34.38-.1.86-.17,1.19-.02,1.73.78,3.29.23,4.82-.48.65-.59-.73-2.01,1-2.17.15.42.28.81.42,1.19.64,1.85.88,1.98,2.74,1.61,1.59-.32,3.19-.56,4.76-.93.67-.16,1.59-.13,1.77-1.28-.69-.21-1.3-.41-1.95-.61.92-1.5,1.52-1.63,3.44-.94,0,.56-.03,1.08,0,1.6.04.57.15,1.14.22,1.69,2.61.2,8.64-1.7,9.84-3.15-.47-.14-.88-.27-1.29-.4,2.26.36,3.6-1.34,5.37-2.52.38,1.54,1.39,1.31,2.39,1.01.91-.27,1.8-.6,3.13-1.05-1.08,1.22-2.69.99-3.02,2.82,1.48-.09,2.79-.06,4.08-.26,2.85-.45,5.65-1.35,8.6-.78.33.06.73-.22,1.19-.37-.32-.56-.55-.98-.79-1.39.67-.25,1.39-.39,1.96-.76.84-.53.36-1.28-.1-1.92,1.29-.41,2.35-.69,3.46-.09-.48.79-.9,1.48-1.64,2.69,2.33-.55,3.78.98,5.74.53,1.79-.41,3.7-.34,5.68-.49-.31-.61-.49-.96-.68-1.32,1.61-.58,3.17-1.15,4.98-1.81-.71-.55-1.21-.93-1.75-1.35,1.34-.72,2.48-1.41,3.68-1.98,1.42-.67,2.9-.86,4.86-.08-1.15.69-2,1.13-2.77,1.69-.76.55-2.26.2-2.25,1.93,2.4-.19,4.75-.38,7.23-.58-.48.62-.84,1.08-1.4,1.79.86.07,1.41.21,1.92.13,1.89-.26,3.76-.65,5.65-.89,3.23-.42,6.46-.78,9.66.23,1.89.6,3.79.44,5.65-.12.4-.12.72-.52,1.35-1.01-1.1-.54-1.88-1.03-2.72-1.29-1.2-.38-2.52-.4-3.33-1.63-.16-.24-.82-.33-1.18-.23-1.27.35-2.41.21-3.62-.31-.67-.29-1.54-.09-2.31-.14-.49-.03-1.02-.01-1.46-.19-.99-.41-1.94-.92-3.08-1.48,1.36-.36,2.68-.72,3.94-1.05.93,1.31.93,1.34,2.05,1.39,1.27.05,2.55.03,3.82.08.48.02,1.09-.01,1.41.26,1.69,1.44,3.63.88,5.49.77.92-.06,1.82-.4,2.73-.62l.08-.51c-1.49-.93-2.97-1.86-4.84-3.02,1.89-.17,3.28-1.21,4.92-.23.44.26,1.09.18,1.65.23.67.05,1.35.07,2.03.1-.05.5-.08.82-.13,1.38h5.93l.05.35c-.53.28-1.06.56-1.59.84,5.55.33,11.01.34,16.47.31.28,0,.56-.28,1.29-.68-1.74-.5-3.05-.88-4.27-1.24-.13-.79-.24-1.38-.34-2,2.48-1.25,4.39.89,6.6,1.03.07,0,.18.23.19.35.11,1.32,1.1,1.33,2.03,1.3,3.03-.11,6.07-.26,9.1-.45.4-.03.78-.39,1.35-.69-.74-.48-1.25-.81-1.91-1.24,1.48-.2,2.7-.37,4.29-.59-.52-.65-.7-1.11-.99-1.19-.6-.16-1.26-.11-1.89-.15-4.16-.24-8.33-.53-12.49-.71-1.82-.07-3.66.07-5.48.16-1.07.05-2.14.19-3.21.29-.03-.17-.06-.34-.1-.51,1.31-.41,2.69-1.29,3.93-1.13,2.28.31,4.7-.3,6.88.9.39.21.97.15,1.45.12,2.33-.11,4.65-.22,6.97-.37,1.48-.09,2.95-.24,4.43-.39.17-.02.32-.23.6-.44-.32-.38-.6-.71-.89-1.05,1.42-1.84,1.36-2.07-.45-3.47-1.56-1.21-3.21-2.35-4.56-3.77-1.91-2.01-4.18-3.09-6.85-3.48-2.17-.32-4.33-.65-6.51-.92-3.64-.45-7.31-.75-10.94-1.32-3.17-.5-6.32-.53-9.51-.28-2.89.22-5.8.19-8.69.35-2.3.12-3.72-.94-3.58-3.3.09-1.53-.29-3.09-.42-4.64-.08-1.05-.57-1.81-1.6-1.98-2.14-.36-4.3-.76-6.46-.83-1.95-.06-3.91.11-5.92,0-.06-1.41.04-2.57-.94-3.57-.74-.77,0-2.34-1.42-3.39-.57,2.46-1.06,4.61-1.58,6.85-.13-.27-.31-.49-.35-.73-.32-2.06-.61-4.13-.93-6.18-.15-.96-.34-1.93-1.71-2.38-.23.9-.4,1.71-.64,2.49-.11.37-.28.96-.52,1.01-1.06.23-.83,1.02-.84,1.68-.03,1.61,0,3.22,0,4.83-.98.29-1.71.6-2.46.7-4.2.53-5.6,3.34-5.07,7.08.14.96.02,1.96.02,3.09-.88.2-1.68.46-2.5.56-3.86.48-7.72.93-11.59,1.37-3.79.43-7.59.82-11.38,1.24-3.23.36-6.46.71-9.69,1.11-3.86.47-7.72.93-11.57,1.48-3.21.47-6.42,1-9.6,1.63-4.23.84-8.41,1.9-12.64,2.68-5.41.99-10.57,2.61-15.29,5.45-1.68,1.01-3.38,2.13-4.74,3.52-2.58,2.64-4.41,5.74-3.91,9.68.09.72-.2,1.15-.51,1.72-.7,1.29-.1,2.27,1.38,2.25.75-.01,1.48-.4,2.24-.56.78-.16,1.57-.24,2.36-.36.11.11.21.22.32.33-1.55.69-.27,1.56-.3,2.07-.66.95-1.94.88-2,2.21.34.09.66.26.97.25,4.24-.15,8.48-.31,12.72-.5.24-.01.47-.24.7-.37ZM178.56,111.24c-1.34-.16-2.59-.4-3.84-.44-1.12-.04-1.54.78-.87,1.68.63.85,1.37,1.63,2.16,2.33.76.66.93,1.37.6,2.26-.37.99-.79,1.97-1.1,2.98-.13.42-.18,1.15.05,1.33.36.28.99.27,1.51.29.25,0,.51-.21.77-.32,3.94-1.67,3.16-1.56,5.76.99.4.4,1.13.83,1.59.72.88-.2.66-1.11.59-1.8-.11-1.13-.24-2.25-.43-3.37-.16-.92.14-1.39,1.02-1.78,1.21-.54,2.38-1.25,3.46-2.03.36-.26.62-1.04.5-1.46-.11-.41-.73-.82-1.2-.95-1.02-.27-2.08-.37-3.14-.49-.98-.11-1.54-.54-1.61-1.6-.04-.63-.17-1.29-.45-1.84-.3-.59-.82-1.48-1.26-1.49-.62,0-1.3.61-1.87,1.07-.31.25-.44.71-.65,1.08-.48.86-.97,1.72-1.59,2.83ZM268.17,171.82c-.92-.39-1.51-.65-2.13-.91,2.07-3.18,2.12-3.46.8-4.66-1.06,1.51-2.19,2.95-3.11,4.51-.39.66-.65,1.7-.39,2.35.39.98,1.52.78,2.44.67.72-.08,1.43-.44,2.2-.2-.07.26-.07.43-.15.51-.48.51-1.27,1.03-.68,1.75.37.45,1.2.6,1.85.7.68.11,1.4.05,2.09-.03.58-.07,1.15-.27,1.73-.42-.25-.53-.52-1.06-.75-1.59-.05-.12-.02-.27-.02-.31.64-.6,1.25-1.17,1.88-1.76-1.54-1.38-1.49-1.38-1.54-3.25-.05-2.26-.13-4.52-.34-6.77-.05-.51-.57-1.16-1.04-1.4-.72-.35-1.33.19-1.78.79-.81,1.06-1.08,2.27-1.05,3.59.03,2.05,0,4.1,0,6.44ZM279.33,175.01c-1.43-.73-.85-1.57-.86-2.29-.02-.99-.72-1.81-1.62-1.91-.78-.09-1.53.54-1.78,1.5-.57,2.16.77,3.95,3.04,4.07.2.01.48-.17.61-.09,1.23.78,2.18,0,3.09-.6.98-.66,1.49-1.66,1.65-2.84.12-.84.31-1.66.4-2.5.37-3.27-.04-6.34-2.49-8.82-.5-.51-1.14-1.17-1.77-.54-.36.36-.47,1.47-.18,1.85.59.78.56,1.54.55,2.38-.02,2.61.01,5.21-.06,7.81-.02.62-.36,1.23-.59,1.98ZM274.28,165.44c-.09,2.93,1.28,4.54,3.45,4.42,1.55-.08,2.04-.94,1.1-2.19-.66-.88-.88-1.76-.74-2.76.12-.82.37-1.62.53-2.44.07-.38.21-1,.03-1.14-.33-.26-.91-.4-1.33-.31-1.17.25-2.07,1-2.51,2.09-.34.84-.41,1.78-.53,2.34Z"/>
      <path class="cls-4" d="M200.53,210.61c2.56-1.07,3.85-1.03,5.22.3-1.68.48-3.22.62-4.8.33-.17-.03-.27-.4-.42-.63Z"/>
      <path class="cls-4" d="M274.62,214.08c-1.35.82-2.84.44-4.3.19-.19-.03-.44-.56-.4-.81.04-.24.45-.61.67-.59,1.34.1,2.67.3,4,.47,0,.25.02.5.02.75Z"/>
      <path class="cls-4" d="M269.78,209.94c1.47-.36,2.92-.31,4.73.16-1.34,1.38-2.71.98-3.95.97-.34,0-.68-.4-1.02-.62.08-.17.15-.34.23-.51Z"/>
      <path class="cls-4" d="M175.51,211.41c.3-.53.44-1.04.61-1.05,1.41-.04,2.89-.61,4.44.49-1.66.67-3.13.79-5.05.56Z"/>
      <path class="cls-4" d="M216,213.65c-.19-.06-.84-.15-1.34-.48-.41-.27-.87-.81-.87-1.23,0-.44.44-1.02.84-1.3,1.04-.73,2.23-.47,3.17.14.44.29.7,1.23.62,1.82-.14,1.06-1.1,1.1-2.42,1.05Z"/>
      <path class="cls-4" d="M159.41,212.29h-1.53c.27-.54.47-.94.8-1.59.31.67.5,1.07.74,1.59Z"/>
      <path class="cls-4" d="M217.5,223.06c-1.21.73-2.4.52-3.76.06,1.34-.8,1.78-.82,3.76-.06Z"/>
      <path class="cls-4" d="M164.45,223.43h-4.34c.22-.46.29-.9.5-.99.91-.39,2.4-.05,3.84.99Z"/>
      <path class="cls-4" d="M144.72,224.78h2.62c-1.1,1.12-1.86.93-2.62,0Z"/>
      <path class="cls-4" d="M146.66,222.58h-2.67c.89-1.06,1.56-.92,2.67,0Z"/>
      <path class="cls-4" d="M292.03,224.28q-1.28-.23-.67-1.15c.19.32.36.61.67,1.15Z"/>
      <path class="cls-6" d="M163.17,164.28c-.23.13-.46.36-.7.37-4.24.19-8.48.35-12.72.5-.31.01-.63-.16-.97-.25.06-1.34,1.34-1.26,2-2.21.03-.51-1.25-1.38.3-2.07-.11-.11-.21-.22-.32-.33-.79.12-1.58.2-2.36.36-.75.16-1.49.55-2.24.56-1.48.02-2.08-.96-1.38-2.25.31-.57.6-1,.51-1.72-.5-3.93,1.33-7.03,3.91-9.68,1.36-1.39,3.06-2.51,4.74-3.52,4.72-2.83,9.89-4.45,15.29-5.45,4.24-.78,8.42-1.84,12.64-2.68,3.18-.63,6.39-1.16,9.6-1.63,3.85-.56,7.71-1.01,11.57-1.48,3.23-.39,6.46-.75,9.69-1.11,3.79-.42,7.59-.81,11.38-1.24,3.86-.44,7.73-.89,11.59-1.37.82-.1,1.63-.36,2.5-.56,0-1.13.12-2.13-.02-3.09-.53-3.74.87-6.55,5.07-7.08.75-.1,1.48-.41,2.46-.7,0-1.62-.02-3.23,0-4.83.01-.66-.22-1.45.84-1.68.24-.05.41-.64.52-1.01.24-.79.41-1.59.64-2.49,1.37.45,1.56,1.42,1.71,2.38.33,2.06.61,4.12.93,6.18.04.24.22.46.35.73.52-2.25,1.01-4.39,1.58-6.85,1.43,1.06.68,2.63,1.42,3.39.97,1,.87,2.16.94,3.57,2.01.11,3.97-.07,5.92,0,2.16.07,4.32.47,6.46.83,1.02.17,1.51.93,1.6,1.98.13,1.55.5,3.1.42,4.64-.14,2.37,1.28,3.43,3.58,3.3,2.89-.16,5.8-.13,8.69-.35,3.19-.25,6.33-.22,9.51.28,3.63.57,7.29.87,10.94,1.32,2.17.27,4.34.6,6.51.92,2.67.39,4.94,1.47,6.85,3.48,1.35,1.42,3,2.56,4.56,3.77,1.81,1.4,1.87,1.63.45,3.47.29.34.57.67.89,1.05-.28.21-.43.42-.6.44-1.47.15-2.95.3-4.43.39-2.32.15-4.65.26-6.97.37-.49.02-1.06.09-1.45-.12-2.18-1.19-4.59-.59-6.88-.9-1.23-.17-2.61.72-3.93,1.13.03.17.06.34.1.51,1.07-.1,2.14-.24,3.21-.29,1.83-.09,3.66-.24,5.48-.16,4.17.17,8.33.46,12.49.71.63.04,1.29,0,1.89.15.28.07.47.54.99,1.19-1.59.22-2.82.38-4.29.59.66.43,1.16.76,1.91,1.24-.57.3-.95.67-1.35.69-3.03.19-6.07.33-9.1.45-.93.03-1.92.02-2.03-1.3-.01-.13-.12-.35-.19-.35-2.21-.14-4.12-2.28-6.6-1.03.11.62.21,1.22.34,2,1.22.35,2.53.73,4.27,1.24-.73.4-1.01.68-1.29.68-5.46.03-10.92.02-16.47-.31.53-.28,1.06-.56,1.59-.84l-.05-.35h-5.93c.05-.56.09-.89.13-1.38-.68-.03-1.35-.05-2.03-.1-.56-.04-1.21.03-1.65-.23-1.64-.99-3.02.05-4.92.23,1.87,1.17,3.36,2.1,4.84,3.02l-.08.51c-.91.22-1.81.56-2.73.62-1.86.11-3.8.67-5.49-.77-.32-.27-.93-.24-1.41-.26-1.27-.05-2.55-.02-3.82-.08-1.12-.05-1.12-.08-2.05-1.39-1.25.34-2.58.69-3.94,1.05,1.14.55,2.08,1.07,3.08,1.48.44.18.97.16,1.46.19.78.05,1.64-.14,2.31.14,1.22.52,2.36.66,3.62.31.36-.1,1.02-.01,1.18.23.81,1.23,2.13,1.25,3.33,1.63.84.27,1.61.76,2.72,1.29-.64.49-.95.88-1.35,1.01-1.86.56-3.76.72-5.65.12-3.2-1.01-6.43-.66-9.66-.23-1.89.25-3.76.63-5.65.89-.52.07-1.07-.07-1.92-.13.56-.72.92-1.17,1.4-1.79-2.49.2-4.83.39-7.23.58-.01-1.73,1.49-1.39,2.25-1.93.77-.55,1.62-1,2.77-1.69-1.96-.78-3.44-.59-4.86.08-1.2.57-2.35,1.26-3.68,1.98.55.42,1.04.8,1.75,1.35-1.81.66-3.37,1.23-4.98,1.81.18.36.37.72.68,1.32-1.99.15-3.89.08-5.68.49-1.96.45-3.41-1.08-5.74-.53.74-1.21,1.16-1.9,1.64-2.69-1.1-.6-2.16-.32-3.46.09.46.64.94,1.39.1,1.92-.58.36-1.29.51-1.96.76.23.41.47.83.79,1.39-.46.15-.86.44-1.19.37-2.95-.57-5.75.33-8.6.78-1.28.2-2.6.17-4.08.26.34-1.83,1.95-1.6,3.02-2.82-1.32.45-2.22.77-3.13,1.05-1,.3-2.01.53-2.39-1.01-1.77,1.18-3.11,2.88-5.37,2.52.41.13.82.25,1.29.4-1.21,1.45-7.23,3.35-9.84,3.15-.07-.55-.18-1.12-.22-1.69-.04-.52,0-1.04,0-1.6-1.93-.69-2.52-.56-3.44.94.64.2,1.26.39,1.95.61-.18,1.15-1.09,1.12-1.77,1.28-1.57.37-3.18.61-4.76.93-1.86.38-2.1.25-2.74-1.61-.13-.39-.27-.77-.42-1.19-1.73.16-.35,1.58-1,2.17-1.54.7-3.09,1.25-4.82.48-.33-.15-.81-.08-1.19.02-.99.26-1.86.33-2.8-.34-.49-.35-1.34-.33-2.01-.26-1.47.15-2.93.46-4.4.66-1.44.2-2.87.28-4.29.05l-.1-.5c.79-.47,1.59-.95,2.66-1.58-2.52-.98-4.25.71-6.27.68,0,.16,0,.31.01.47,1.09.2,2.17.39,3.26.59,0,.13-.01.26-.02.38ZM193.68,139.97c-1.97-.49-3.85.37-5.68-.29-.17-.06-.43,0-.61.09-1.33.58-2.45.84-3.66.86-.32,0-.76-.03-.92.16-.74.85-1.51.46-2.33.2-.61-.19-1.21-.79-2.02-.2.72,1.9,2.35,3.43,2.55,5.67-1.31-.11-2-.82-2.58-1.62-.61-.84-1.12-1.75-1.71-2.69-1.4.46-2.68.89-3.96,1.29-.2.06-.47.12-.62.03-1.5-.86-2.85-.02-4.26.3-1.44.33-2.98,1.07-4.22-.74-1.48,1.51-3.1,2.4-5.01,2.72-.32.05-.59.38-.89.56-.97.59-1.89,1.28-2.91,1.74-1.98.9-3.57,2.25-4.99,3.87-1.47,1.66-1.6,3.47-.31,5.51,1.76-.34,3.62-1.7,4.98.35,1.07,0,1.98,0,2.88,0,1.12,0,2.23.05,3.35.03.56-.01,1.15-.28,1.67-.17,2.06.47,4.12.8,6.24.49.25-.04.62.03.79.2.84.85,1.86.62,2.81.44,5.92-1.09,11.92-1.32,17.92-1.65,1.83-.1,3.68-.27,5.48-.62,2.42-.47,4.79-1.13,7.37-1.76,0-1.56.15-3.19-.04-4.78-.19-1.51-.74-2.98-1.13-4.47,2.49,2.58,1.91,5.87,2.22,8.92,1.3.51,1.78-.22,1.97-1.22.4-2.22.11-4.36-.76-6.45-.24-.57-.75-1.13-.27-2.11,1.01,1.59,1.67,3.07,1.82,4.68.15,1.57.03,3.16.03,4.79,2.31-.37,2.26-.39,2.71-2.05.53-1.94.27-3.78-.46-5.61-.21-.52-.66-1.02-.19-1.8,1.03,1.35,1.5,2.75,1.63,4.23.13,1.5.03,3.03.03,4.6.34-.03.76-.04,1.17-.13.46-.09.92-.25,1.4-.39.46-2.94-.54-5.46-1.66-7.96,2.48,2,2.31,5.01,2.87,7.83.53-.19.91-.32,1.28-.46,0-1,.02-1.92,0-2.83-.06-1.88.05-3.69-1.71-5.16-1.3-1.09-.43-2.84,1.32-3.05.54-.06,1.09-.07,1.51-.09.75,1.77,1.6,3.33,2.08,5,.5,1.72.66,3.55.98,5.34,1.23-.3,1.48-.42,1.44-1.18-.06-1.12-.31-2.23-.51-3.33-.13-.69-.33-1.38-.49-2.06.16-.03.32-.07.48-.1,1.11,2.05,1.42,4.29,1.32,6.6,1.09.42,1.52.04,1.57-1,.08-1.79-.05-3.53-.76-5.21-.19-.44-.24-.94-.35-1.41,2.13,2.28,1.84,5.15,2.05,7.87,1.93-.3,1.94-.3,2-1.69.08-1.94-.14-3.81-1.12-5.55-.13-.24-.11-.56-.17-.85,2.32,2.04,1.91,4.89,2.43,7.51,1.04-1.14,1.4-2.46,1.24-3.85-.17-1.39-.59-2.75-.91-4.12,1.84,2.14,2.03,4.54,1.34,7.1-.04.16.07.37.13.65.59-.15,1.12-.28,1.72-.43,0-1.29-.02-2.49,0-3.69.02-1.09-.42-2.26.33-3.23.17,0,.33.02.5.03v6.71c2.6-.49,4.89-.89,7.15-1.39.38-.08.85-.56.95-.94.44-1.67,1.68-3.11,1.49-4.97,0-.07.28-.18.51-.31.11.63.21,1.15.31,1.7.92.19,1.74.36,2.57.53.21.81.39,1.54.58,2.27q1.35-.38,1.08-2.8c1.67-.05.61-1.84,1.7-2.79.13,1.09.22,1.88.26,2.29.92.98,1.6,1.71,2.26,2.42,3.67-.56,7.34-1.11,10.94-1.66.08-.98-.49-1.86.52-2.5.19.8.35,1.45.47,1.95,3.64-.48,7.12-.93,10.83-1.42.17-.27.49-.79.83-1.33,8.89.22,17.49-1.58,26.2-2.47.16-.82.27-1.43.39-2.07,1.74-.15,2.91-1.17,4.38-2.32-5.44-1.21-10.59-1.15-15.96-1.18.51,1.04.85,1.74,1.19,2.44-.13.09-.27.18-.4.27-.33-.38-.78-.71-.98-1.15-.57-1.23-1.52-1.57-2.77-1.46-.84.08-1.69.1-2.54.16-5.71.42-11.43.8-17.13,1.29-2.32.2-4.6.79-6.92.94-5.36.34-10.73.57-16.09.76-2.9.11-5.8.01-8.7.08-4.6.12-9.19.3-13.79.44-.36.01-.72-.1-1.08-.16.43-.46.87-.62,1.3-.61,7.5.3,14.96-.98,22.47-.6,3.02.15,6.07-.14,9.11-.35,3.24-.22,6.46-.56,9.69-.89,2.32-.24,4.63-.62,6.95-.79,4.94-.37,9.88-.64,14.82-.97.98-.06,1.91-.24,2.37-1.46,1.15,1.25,2.48,1.21,3.83,1.22,2.47.02,4.96.03,7.42.27,2.95.29,5.87.79,8.8,1.25.79.12,1.22.01,1.23-1.04-3.41-.68-6.8-1.21-10.24-1.42-2.61-.16-5.22-.35-7.84-.45-1.83-.07-3.72-.27-5.49.07-3.23.62-6.47.77-9.71.65-7.52-.26-14.98.66-22.47,1.09-4.58.26-9.15.84-13.73,1.12-6.28.38-12.58.59-18.86.93-1.53.08-3.05.39-4.57.62-.19.03-.49.15-.53.3-.47,1.55-1.9,1.22-2.99,1.51-.87.23-1.77.36-2.81.56v3.58c-.12.05-.24.1-.36.15-1.24-1.49-2.48-2.97-3.75-4.5-2.36.56-4.71,1.12-7.28,1.73.71,1.81,1.36,3.47,2,5.12-1.01.54-1.65.2-2.1-.55-.5-.85-1-1.72-1.37-2.63-.44-1.12-1.12-1.93-2.36-2.35-.04.43-.09.83-.15,1.45ZM263.95,121.39c-4.4-1.49-14-1.18-16.34.46.05.46.21.95.14,1.41-.12.86-.65,1.39-1.57,1.42-.85.03-1.04-.6-1.18-1.24-.11-.54-.17-1.09-.26-1.75-.46.09-.84.16-1.25.24.68,1.16.89,2.21-.06,3.18-.76.78-.38,1.77.01,2.25.47.57.54,1.02.58,1.66.03.44.37.86.63,1.41,1.76-.16,3.43-.35,5.11-.47,2.75-.2,5.49-.36,8.24-.53,1.76-.11,3.52-.24,5.28-.33.67-.03,1.38-.52.9-.92-.85-.69-.15-1.6-.67-2.2-.68-.78-.15-1.27.35-1.8.13-.14.21-.33.22-.34-.34-.36-.63-.66-.9-.94.29-.57.52-.99.79-1.52ZM216.57,152.38c.72-.19,1.38-.37,2.11-.56-.03-2.46.14-4.85-1.45-6.96-.47.17-.85.3-1.09.38.14,2.38.28,4.62.43,7.13ZM309.6,138.08c1.04-2.04,1.1-2.24.83-3.17-1.93,1.07-3.83,2.1-5.68,3.19-.19.11-.13.63-.2,1.05h2.62c.35-1.18.57-2.41,2.18-2.5.08.43.15.87.25,1.42ZM311.66,135.21v2.87h1.06c.54-1.25-.36-2.03-1.06-2.87ZM313.72,137.25c-.03.53-.07,1.07-.11,1.82,1.49-.6,1.12-1.21.11-1.82Z"/>
      <path class="cls-6" d="M178.56,111.24c.62-1.11,1.1-1.97,1.59-2.83.21-.37.34-.84.65-1.08.57-.46,1.24-1.08,1.87-1.07.44,0,.96.9,1.26,1.49.28.55.41,1.22.45,1.84.07,1.05.63,1.48,1.61,1.6,1.05.12,2.12.23,3.14.49.47.12,1.09.54,1.2.95.12.42-.14,1.2-.5,1.46-1.08.78-2.24,1.49-3.46,2.03-.88.39-1.18.86-1.02,1.78.2,1.11.32,2.24.43,3.37.07.68.29,1.59-.59,1.8-.46.1-1.19-.33-1.59-.72-2.59-2.56-1.82-2.67-5.76-.99-.26.11-.52.33-.77.32-.52-.01-1.15,0-1.51-.29-.23-.18-.18-.91-.05-1.33.3-1.01.73-1.99,1.1-2.98.33-.89.16-1.6-.6-2.26-.79-.69-1.53-1.48-2.16-2.33-.67-.9-.25-1.72.87-1.68,1.26.04,2.51.28,3.84.44Z"/>
      <path class="cls-6" d="M268.17,171.82c0-2.34.03-4.39,0-6.44-.02-1.32.24-2.53,1.05-3.59.46-.6,1.06-1.14,1.78-.79.48.23.99.89,1.04,1.4.21,2.25.29,4.51.34,6.77.04,1.87,0,1.87,1.54,3.25-.63.59-1.24,1.16-1.88,1.76,0,.05-.03.2.02.31.24.54.5,1.06.75,1.59-.58.14-1.14.35-1.73.42-.69.08-1.41.14-2.09.03-.65-.1-1.48-.26-1.85-.7-.59-.71.2-1.24.68-1.75.08-.08.08-.25.15-.51-.77-.24-1.48.12-2.2.2-.92.11-2.06.31-2.44-.67-.25-.65,0-1.69.39-2.35.92-1.56,2.05-3,3.11-4.51,1.32,1.2,1.27,1.48-.8,4.66.61.26,1.21.51,2.13.91Z"/>
      <path class="cls-6" d="M279.33,175.01c.24-.75.58-1.36.59-1.98.07-2.6.04-5.21.06-7.81,0-.84.03-1.6-.55-2.38-.29-.39-.18-1.49.18-1.85.63-.64,1.26.03,1.77.54,2.45,2.48,2.86,5.54,2.49,8.82-.1.84-.29,1.66-.4,2.5-.16,1.18-.67,2.18-1.65,2.84-.92.61-1.86,1.38-3.09.6-.13-.08-.4.1-.61.09-2.27-.12-3.61-1.91-3.04-4.07.25-.96,1-1.59,1.78-1.5.9.1,1.6.92,1.62,1.91.01.72-.57,1.55.86,2.29Z"/>
      <path class="cls-6" d="M274.28,165.44c.12-.56.2-1.5.53-2.34.44-1.09,1.34-1.84,2.51-2.09.42-.09.99.05,1.33.31.18.14.05.75-.03,1.14-.15.82-.41,1.62-.53,2.44-.14,1.01.08,1.89.74,2.76.94,1.25.44,2.11-1.1,2.19-2.17.12-3.54-1.49-3.45-4.42Z"/>
      <path class="cls-4" d="M193.68,139.97c.06-.62.11-1.02.15-1.45,1.24.42,1.92,1.23,2.36,2.35.36.92.86,1.78,1.37,2.63.44.76,1.09,1.09,2.1.55-.65-1.65-1.3-3.32-2-5.12,2.57-.61,4.92-1.17,7.28-1.73,1.27,1.53,2.51,3.01,3.75,4.5.12-.05.24-.1.36-.15v-3.58c1.04-.2,1.94-.32,2.81-.56,1.09-.29,2.51.04,2.99-1.51.04-.14.34-.27.53-.3,1.52-.23,3.04-.54,4.57-.62,6.29-.34,12.58-.55,18.86-.93,4.58-.28,9.15-.86,13.73-1.12,7.48-.43,14.94-1.35,22.47-1.09,3.25.11,6.48-.03,9.71-.65,1.77-.34,3.66-.14,5.49-.07,2.61.1,5.23.29,7.84.45,3.44.21,6.83.74,10.24,1.42,0,1.05-.45,1.16-1.23,1.04-2.93-.46-5.85-.96-8.8-1.25-2.46-.24-4.94-.24-7.42-.27-1.36-.01-2.68.03-3.83-1.22-.45,1.22-1.39,1.4-2.37,1.46-4.94.32-9.89.6-14.82.97-2.32.17-4.63.56-6.95.79-3.23.33-6.46.67-9.69.89-3.03.21-6.08.5-9.11.35-7.51-.38-14.97.89-22.47.6-.43-.02-.87.14-1.3.61.36.05.72.17,1.08.16,4.6-.14,9.19-.33,13.79-.44,2.9-.07,5.8.02,8.7-.08,5.37-.2,10.73-.42,16.09-.76,2.32-.15,4.6-.74,6.92-.94,5.71-.49,11.42-.87,17.13-1.29.85-.06,1.7-.08,2.54-.16,1.25-.11,2.2.23,2.77,1.46.2.44.65.77.98,1.15.13-.09.27-.18.4-.27-.34-.7-.68-1.4-1.19-2.44,5.37.03,10.53-.03,15.96,1.18-1.47,1.15-2.64,2.17-4.38,2.32-.12.64-.23,1.24-.39,2.07-8.71.89-17.31,2.69-26.2,2.47-.33.53-.66,1.06-.83,1.33-3.71.49-7.19.94-10.83,1.42-.12-.5-.27-1.15-.47-1.95-1.01.64-.44,1.52-.52,2.5-3.6.55-7.27,1.1-10.94,1.66-.66-.71-1.34-1.44-2.26-2.42-.05-.41-.14-1.2-.26-2.29-1.09.95-.03,2.74-1.7,2.79q.27,2.41-1.08,2.8c-.19-.73-.37-1.46-.58-2.27-.83-.17-1.65-.34-2.57-.53-.1-.55-.19-1.07-.31-1.7-.23.14-.52.24-.51.31.19,1.86-1.05,3.3-1.49,4.97-.1.38-.57.86-.95.94-2.27.5-4.56.9-7.15,1.39v-6.71c-.17,0-.33-.02-.5-.03-.75.97-.31,2.14-.33,3.23-.03,1.2,0,2.4,0,3.69-.6.15-1.13.28-1.72.43-.06-.28-.17-.49-.13-.65.69-2.56.5-4.96-1.34-7.1.31,1.37.74,2.73.91,4.12.17,1.38-.19,2.71-1.24,3.85-.52-2.62-.11-5.48-2.43-7.51.05.29.03.61.17.85.98,1.73,1.2,3.61,1.12,5.55-.06,1.39-.07,1.39-2,1.69-.21-2.72.08-5.6-2.05-7.87.11.47.16.97.35,1.41.71,1.67.84,3.42.76,5.21-.05,1.04-.48,1.42-1.57,1,.09-2.31-.22-4.55-1.32-6.6-.16.03-.32.07-.48.1.17.69.36,1.37.49,2.06.21,1.11.45,2.22.51,3.33.04.77-.21.88-1.44,1.18-.31-1.79-.47-3.61-.98-5.34-.49-1.67-1.33-3.23-2.08-5-.42.02-.97.03-1.51.09-1.75.21-2.63,1.97-1.32,3.05,1.77,1.47,1.65,3.28,1.71,5.16.03.91,0,1.83,0,2.83-.37.13-.75.27-1.28.46-.56-2.82-.4-5.83-2.87-7.83,1.12,2.51,2.12,5.02,1.66,7.96-.48.14-.93.3-1.4.39-.41.08-.83.09-1.17.13,0-1.57.1-3.1-.03-4.6-.12-1.47-.6-2.88-1.63-4.23-.47.77-.02,1.28.19,1.8.72,1.82.98,3.67.46,5.61-.45,1.66-.4,1.68-2.71,2.05,0-1.62.12-3.22-.03-4.79-.15-1.61-.81-3.09-1.82-4.68-.48.98.03,1.54.27,2.11.87,2.08,1.16,4.23.76,6.45-.18,1.01-.66,1.73-1.97,1.22-.31-3.04.27-6.34-2.22-8.92.39,1.49.94,2.96,1.13,4.47.2,1.59.04,3.22.04,4.78-2.58.62-4.95,1.29-7.37,1.76-1.8.35-3.64.52-5.48.62-5.99.33-11.99.56-17.92,1.65-.95.17-1.96.4-2.81-.44-.17-.17-.54-.24-.79-.2-2.12.31-4.17-.02-6.24-.49-.52-.12-1.11.16-1.67.17-1.11.02-2.23-.02-3.35-.03-.91,0-1.81,0-2.88,0-1.36-2.05-3.22-.68-4.98-.35-1.29-2.05-1.15-3.85.31-5.51,1.42-1.61,3.01-2.97,4.99-3.87,1.02-.46,1.95-1.15,2.91-1.74.3-.18.57-.51.89-.56,1.91-.32,3.53-1.22,5.01-2.72,1.25,1.81,2.78,1.07,4.22.74,1.41-.32,2.76-1.17,4.26-.3.15.09.43.03.62-.03,1.28-.41,2.55-.83,3.96-1.29.59.94,1.1,1.85,1.71,2.69.58.81,1.27,1.52,2.58,1.62-.2-2.24-1.83-3.76-2.55-5.67.82-.59,1.41.01,2.02.2.82.26,1.58.64,2.33-.2.16-.18.61-.15.92-.16,1.21-.02,2.33-.28,3.66-.86.19-.08.44-.15.61-.09,1.83.66,3.71-.21,5.68.29ZM267.07,136.91c-1.5-1.2-2.94-1.05-4.36-.76-.31.06-.8.61-.75.82.09.38.47.84.83.99,1.49.58,2.82.18,4.28-1.05ZM261.51,138.11c-1.21-1.38-2.39-1.51-3.61-1.34-.85.12-1.15.81-1.08,1.58.08.89.82.92,1.44.78,1-.24,1.97-.61,3.25-1.02ZM250.51,138.58c-1.19-1.23-2.99-1.8-3.86-1.26-.44.27-.58,1.01-.86,1.54.4.21.83.63,1.19.58,1.09-.16,2.14-.5,3.53-.86ZM256.17,138.23c-1.3-1.4-2.53-1.06-3.66-1.1-.7-.03-1.27.27-1.21,1.08.06.78.67,1.11,1.34.99,1.07-.2,2.11-.57,3.53-.97ZM192.81,155.31c1.25-2.99.43-6.65-1.75-8.47.38,1.31,1.03,2.55,1.33,3.86.31,1.34.27,2.76.42,4.61ZM188.62,155.32c1.21-.42,1.38-1.16,1.35-1.97-.07-2.08-.48-4.07-1.5-5.9-.21,2.63,1.49,5.1.15,7.87ZM195.73,154.36c1.15-2.34.77-6.25-.6-7.91.19,2.54.39,5.09.6,7.91ZM199.76,153.03c.95-1.57.33-5.29-1.36-7.29.48,2.57.9,4.85,1.36,7.29ZM172.18,156.2c.15-.03.3-.05.45-.08.35-2.15-.33-4.9-1.66-5.9.43,2.13.82,4.05,1.21,5.98ZM175.75,155.52c.08-1.84-.08-3.67-.98-5.36-.39,1.9-.04,3.67.98,5.36ZM185.03,154.72c1.25-2.31-.03-4.32-.48-6.43-.17.02-.35.04-.52.07.34,2.12.67,4.24,1.01,6.36ZM177.94,150.07c-.27,1.86.37,4.57,1.3,5.82.29-2.23-.3-4.06-1.3-5.82ZM165.64,156.57c.18-2.1-.29-3.55-1.07-5.08-.66,1.15-.34,2.71,1.07,5.08ZM180.93,150.14c.28.91.62,1.8.82,2.72.21.96.27,1.94.46,3.33.87-2.31.48-4.15-1.27-6.06ZM168.55,155.75c.2-.04.4-.08.6-.12.07-1.98-.74-3.74-1.8-5.44.4,1.85.8,3.7,1.2,5.56ZM238.2,142.05c-.72,1.64-.13,3.15.48,4.66.58-1.62-.32-3.11-.48-4.66ZM235.13,147.69c.15-.02.3-.03.46-.05-.12-1.05-.23-2.1-.35-3.15-.14.02-.29.03-.43.05-.26,1.09-.18,2.15.32,3.16ZM250.82,145.47l.77.08c-.16-.85.43-1.65-.34-2.55-.15.82-.29,1.65-.44,2.47ZM163.01,155.3q.6-1.13-.33-2.08c.14.89.24,1.49.33,2.08ZM253.49,144.53c.4-1.01.02-1.68-.27-2.77-.58,1.19-.46,1.89.27,2.77ZM256.42,142.27c-.16-.02-.32-.03-.48-.05-.31.72-.45,1.43.3,2.62.08-1.17.13-1.87.18-2.57ZM258.95,143.84c.17,0,.34-.02.51-.03.03-.62.39-1.27-.51-2.26v2.28ZM244.81,142.42c-.15-.03-.31-.06-.46-.1-.12.52-.23,1.05-.35,1.57.17.04.34.07.52.11.1-.53.2-1.06.29-1.58Z"/>
      <path class="cls-4" d="M263.95,121.39c-.27.53-.49.95-.79,1.52.27.28.56.58.9.94,0,.01-.08.2-.22.34-.5.53-1.03,1.02-.35,1.8.52.6-.18,1.5.67,2.2.49.4-.23.88-.9.92-1.76.09-3.52.22-5.28.33-2.75.18-5.5.33-8.24.53-1.68.12-3.35.3-5.11.47-.26-.56-.6-.98-.63-1.41-.04-.64-.11-1.09-.58-1.66-.39-.47-.77-1.47-.01-2.25.95-.97.74-2.02.06-3.18.42-.08.79-.15,1.25-.24.1.66.15,1.21.26,1.75.13.64.32,1.27,1.18,1.24.92-.03,1.45-.56,1.57-1.42.06-.46-.09-.95-.14-1.41,2.35-1.64,11.94-1.96,16.34-.46ZM256.59,126.76v-3.54h-3.54c-.16,1.24-.73,2.36-.38,3.54h3.92Z"/>
      <path class="cls-4" d="M216.57,152.38c-.15-2.51-.28-4.75-.43-7.13.24-.08.62-.22,1.09-.38,1.59,2.11,1.42,4.49,1.45,6.96-.73.19-1.38.37-2.11.56Z"/>
      <path class="cls-4" d="M309.6,138.08c-.09-.54-.17-.99-.25-1.42-1.61.09-1.83,1.32-2.18,2.5h-2.62c.07-.42,0-.94.2-1.05,1.86-1.1,3.75-2.12,5.68-3.19.27.92.21,1.13-.83,3.17Z"/>
      <path class="cls-4" d="M311.66,135.21c.7.85,1.61,1.62,1.06,2.87h-1.06v-2.87Z"/>
      <path class="cls-4" d="M313.72,137.25c1.01.61,1.38,1.21-.11,1.82.05-.75.08-1.28.11-1.82Z"/>
      <path class="cls-6" d="M267.07,136.91c-1.46,1.23-2.78,1.64-4.28,1.05-.37-.14-.74-.6-.83-.99-.05-.21.44-.76.75-.82,1.42-.29,2.86-.45,4.36.76Z"/>
      <path class="cls-6" d="M261.51,138.11c-1.28.41-2.25.78-3.25,1.02-.63.15-1.37.12-1.44-.78-.07-.77.23-1.45,1.08-1.58,1.22-.18,2.4-.05,3.61,1.34Z"/>
      <path class="cls-6" d="M250.51,138.58c-1.39.35-2.45.7-3.53.86-.36.05-.79-.37-1.19-.58.28-.53.43-1.26.86-1.54.87-.55,2.67.03,3.86,1.26Z"/>
      <path class="cls-6" d="M256.17,138.23c-1.43.4-2.46.77-3.53.97-.66.12-1.28-.21-1.34-.99-.06-.81.51-1.11,1.21-1.08,1.12.04,2.36-.3,3.66,1.1Z"/>
      <path d="M192.81,155.31c-.15-1.86-.12-3.27-.42-4.61-.3-1.31-.95-2.55-1.33-3.86,2.18,1.82,3.01,5.48,1.75,8.47Z"/>
      <path d="M188.62,155.32c1.34-2.78-.36-5.25-.15-7.87,1.02,1.84,1.43,3.83,1.5,5.9.03.81-.14,1.55-1.35,1.97Z"/>
      <path d="M195.73,154.36c-.21-2.82-.41-5.37-.6-7.91,1.37,1.66,1.75,5.57.6,7.91Z"/>
      <path d="M199.76,153.03c-.45-2.44-.88-4.72-1.36-7.29,1.69,2,2.31,5.72,1.36,7.29Z"/>
      <path d="M172.18,156.2c-.39-1.92-.78-3.85-1.21-5.98,1.32,1,2.01,3.74,1.66,5.9-.15.03-.3.05-.45.08Z"/>
      <path d="M175.75,155.52c-1.03-1.68-1.37-3.46-.98-5.36.9,1.69,1.06,3.51.98,5.36Z"/>
      <path d="M185.03,154.72c-.34-2.12-.67-4.24-1.01-6.36.17-.02.35-.04.52-.07.46,2.11,1.73,4.12.48,6.43Z"/>
      <path d="M177.94,150.07c1.01,1.76,1.6,3.59,1.3,5.82-.94-1.25-1.57-3.96-1.3-5.82Z"/>
      <path d="M165.64,156.57c-1.41-2.37-1.73-3.92-1.07-5.08.78,1.53,1.25,2.98,1.07,5.08Z"/>
      <path d="M180.93,150.14c1.75,1.91,2.14,3.75,1.27,6.06-.18-1.39-.25-2.37-.46-3.33-.2-.92-.54-1.82-.82-2.72Z"/>
      <path d="M168.55,155.75c-.4-1.85-.8-3.7-1.2-5.56,1.07,1.7,1.87,3.46,1.8,5.44-.2.04-.4.08-.6.12Z"/>
      <path d="M238.2,142.05c.16,1.55,1.06,3.03.48,4.66-.61-1.51-1.21-3.02-.48-4.66Z"/>
      <path d="M235.13,147.69c-.51-1.01-.58-2.06-.32-3.16.14-.02.29-.03.43-.05.12,1.05.23,2.1.35,3.15-.15.02-.3.03-.46.05Z"/>
      <path d="M250.82,145.47c.15-.82.29-1.65.44-2.47.76.9.18,1.7.34,2.55l-.77-.08Z"/>
      <path d="M163.01,155.3c-.09-.59-.19-1.19-.33-2.08q.93.95.33,2.08Z"/>
      <path d="M253.49,144.53c-.73-.87-.84-1.58-.27-2.77.29,1.09.66,1.76.27,2.77Z"/>
      <path d="M256.42,142.27c-.05.7-.1,1.4-.18,2.57-.75-1.18-.61-1.9-.3-2.62.16.02.32.03.48.05Z"/>
      <path d="M258.95,143.84v-2.28c.9.99.54,1.64.51,2.26-.17,0-.34.02-.51.03Z"/>
      <path d="M244.81,142.42c-.1.53-.2,1.06-.29,1.58-.17-.04-.34-.07-.52-.11.12-.52.23-1.05.35-1.57.15.03.31.06.46.1Z"/>
      <path class="cls-6" d="M256.59,126.76h-3.92c-.35-1.17.22-2.3.38-3.54h3.54v3.54Z"/>
    </g>
  </g>
</svg>