<?xml version="1.0" encoding="UTF-8"?>
<svg id="Layer_1" xmlns="http://www.w3.org/2000/svg" viewBox="0 0 400 400">
  <defs>
    <style>
      .cls-1 {
        fill: #2c1503;
      }

      .cls-1, .cls-2, .cls-3, .cls-4 {
        fill-rule: evenodd;
      }

      .cls-2, .cls-5 {
        fill: #fff;
      }

      .cls-3 {
        fill: #ed1c24;
      }

      .cls-5 {
        font-family: AmericanTypewriter-CondensedBold, 'American Typewriter';
        font-size: 52.96px;
        font-weight: 700;
        letter-spacing: -.1em;
      }
    </style>
  </defs>
  <g>
    <polygon class="cls-3" points="65.8 147.81 13.27 224.69 15.89 228.01 116.08 224.53 80.09 158.41 69.38 145.9 65.8 147.81"/>
    <path class="cls-4" d="M97.96,185.28c3.51.51,2.59,5.91,6.27,6.25.09,3.86,2.08,5.66,4.52,6.93-.28,4.07,2.02,5.29,4.48,6.34.28,1-.41,1.14-1.13,1.24.83.82,2.8,1.36,1.33,2.92.47-.34.95-.67,1.75-.69.28,1.19-.03,1.86-1.09,1.84,1.19,1.51,4.62,4.75,2.68,5.83.61,1.01,1.93,1.23,3.62,1.02.33,4.87,3.01,7.14,3,12.38-.56-.34-2.25-1.28-1.75.68-1.07-1.12-4.15-.02-4.28-2.17-1.32,2.35-4.08-1.55-7.07,1.55-1.81.3-1.34-1.88-1.95-2.89-1.7.6.85,1.46.15,2.98-.47-.39-2.01-2.42-1.78.08-8.31-.58-20.65-.62-28.01.18-.03-.59-.06-1.18-.09-1.77-2.69,1.58-5.83,1.89-8.33.41-1.61,2.33-12.68,2.39-16.06.8-6.54,3.76-21.09.23-24.24,4.18-5.13-2.88-13.96.37-20.37-1.97-.6-1.87.4-2.28,1.04-3.04-2.4-.09-1-.46-1.39-4.11,2.77-.9,3.91-3.26,3.84-6.74,2.76.43,1.21-3.06,4.04-2.59-.52-1.8-.47-1.11-.15-2.97,4.04.45,1.6-4.99,5.11-5.02-.41-.59-1.4-.55-1.28-1.73,2.4.65,1.12-2.01,3.51-1.36-.05-.99-.1-1.98-.15-2.97.51-.48,1.32-.71,2.35-.71,3.49-8.97,10.02-15.18,13.73-23.94,2.06-.03,2.71-1.34,2.21-3.69,1.74.07,1.75-1.44,3.51-1.36,1.44-7.97,9.04-10.39,10.42-18.41,6.53-1.47,4.97-10.26,11.33-11.89-.42-.59-1.39-.55-1.28-1.73,1.96-.13,2.91-1.16,5.33-.86,2.67,1.89-.69,3.07,3.12,2.82-2.47,2.69.76,10.56,3.44,9.37.89.16.15,4.51,3.18,4.02-.32,1.84.73,2.14.79,3.54,7.66,6.39,9.12,19.62,16.78,26,.27,1-.41,1.15-1.13,1.26ZM63.19,157.78c-1.88.82-.54-1.91-2.44-1.08-.91.31-.41,1.91-2.3,1.31-.74,3.13-1.47,6.24-4.41,7.37-.71,3.29,1.68,3.16,2.62,4.64-4.14,3.03-4.16,12.74-11.46,9.5.67,1.77,2.85,1.86,3.18,4.03-1.57.81-2.73,1.12-3.5,1.36,2.53,2.07-.67,1.55-1.65,3.06-2.54,3.94-3.92,10.16-8.38,11.15-.16,2.89-1.21,4.97-3.9,5.55,1.5,3.08-.88.42-1.71,1.88,3.83.72-2.44,2.61.21,4.17-4.23.89-3.2,6.56-6.13,8.65-.38-1.03.55-3.53-.77-3.55,0,.93.19,2.06-1.11,1.84-.63,1.96,1.95.36,1.31,2.31-2.47.61-2.02,3.86-3.31,5.54,6.2-1.37,16.28-1.48,23.2-1.15.11-.46-.04-1.17.53-1.22,23.08,2.1,41.48-1.48,69.66-2.25-1.29-6.25-6.82-9.25-8.99-12.68-.72-5.29-5.72-5.82-5.94-11.63-2.67.4-2.29-2.12-1.97-3.48-2.37.06-4.52-3.79-2.61-4.64-1.86,1.01-2-.35-3.63-1.01-4.3-12.99-14.56-22.16-19.5-32.43.03.6-1.01.8-1.18.05.72-.09,1.39-.24,1.13-1.24-1.66.57-1.59-.76-3.01-.44-2.88,4.02-4.16,9.49-8.97,11.77,1.26,2.04-.43,2.89-1.57,4.25-.72-2.36-.14-4.64.87-6.61.98-.04.41,1.63,1.28,1.73.13-2.56,2.17-7.42,3.92-4.97-.06-.82.22-1.32.5-1.81Z"/>
  </g>
  <text class="cls-5" transform="translate(53.05 215.3)"><tspan x="0" y="0">5</tspan></text>
  <g>
    <g>
      <path class="cls-1" d="M156.38,158.41c.1.73.56.98.92,1.38,1.33,4.44-1.85,8.04-5.02,6.06-.66-1.13-.99-2.66-1.56-3.88-.62.06-.46.24-1,.08-3.44,3.46-3.59,13.39.75,16.14,6.18-.54,10.37-2.97,13.01-6.88-.09-.79-.34-1.38-.3-2.34.67-.61.66-1.89.66-3.15.63-1,1.4-1.88,1.48-3.39,1.95-1.89,3.99-5.46,7.44-4.79.82-.86,2.01-.33,3.13-.8,2.86,1.2,3.69,7.62,2.12,10.94-1.91,1.96-5.23,2.59-7.82,3.91.02,4.56,4.3,5.15,7.75,3.74,2.47-1.78,4.59-3.88,6.52-6.17.03-1.71-.24-3.31.06-4.92.12-.65.49-1.25.71-2.24.1-.41.64-.63.78-.97.13-.32-.05-.85.11-1.1.09-.15.68-.27.97-.62.34-.43.44-1.19.75-1.52.29-.31.98-.36,1.29-.83.84-1.23,2.62-1.71,4.11-1.43,1.44.79,2.68,1.84,3.54,3.35.76-.76.86-2.16,1.32-3.2,2.23-.61,2.06-.75,4.49-.55.26,4.65-1.15,7.72-.98,12.28-.79,2.09-1.49,6.18.89,6.84.07.63.02,1.4.58,1.42.64.09.16-.88.26-1.3,3.05-.38,4.76-2.01,6.14-3.96.3-5.66,1.26-10.7,1.59-16.34,1.63,1.06,4.17-.92,6.68-.18.05,1.63.21,3.11.42,4.52.22,0,.45-.03.67-.05.68-.89,1.24-1.91,1.67-3.05,3.12-1.34,7.56-4.62,9.51-.59-.02,5.6-2.79,16.55,2.4,18.75,2.52-.82,4.85-2.72,5.95-4.31.51,2.53-1.33,3.13-3.41,4.83-.8.65-1.85,1.35-3.08,1.89-1.81.2-2.17-.26-3.23-.84-.71-.16-.71.35-1.14.46-.09-.48-.57-.47-.41-1.25-.19.04-.29-.01-.34-.15-1.2-.4-1.84-1.46-2.8-2.13-.85-2.6-1.53-5.17-1.13-8.11.23-1.65.63-3.03-.57-4.14-4.55,3.92-6.94,9.88-7.55,17.55-2.3-.03-4.34,1.72-6.32.88-.03-.67-.07-1.33-.11-1.99-.87-.42-1.96.39-2.61,1.12-.1-.4-.39-.55-.55-.87-.96,2.22-3.99,3.36-6.4,2.34-.12-1.14-1.15-1.15-1.61-1.87.2-1.88-.74-2.32-1.2-3.36-.39.03-.78.07-1.17.09-.47.75-.16,2.25-.14,3.47-.82.06-1.58,1.4-2.22,2.19-2.03.63-4.37.38-5.4-.83-.16.12-.15.43-.48.4-1.14-1.49-1.21-4.3-2.49-5.62-4.09,3.72-8.81,6.86-16.51,7.17-.48-.96-1.6-1.12-2.44-1.63.04-1.68-1.41-1.48-1.97-2.39-2.89,2.28-6.56,3.84-10.43,5.21-3.11.63-4.93-.33-7.4-.49-.47-.91-1.4-1.24-2.11-1.83-.4-1.33-.66-2.81-1.38-3.72-.02-1.5-.03-3.01.79-3.7-.16-5.18,2.93-7.28,4.59-10.75,1.26-.46,1.62-1.78,3.42-1.74.15-.18.31-.38.47-.58,2.24-.24,3.26-.32,5.33-.43ZM172.66,159.09c-2.71,1.09-3.33,4.17-3.94,7.24.5.21.66.86.76,1.58.8.53,3.19.23,4.49-.55.18-.1.5-.88.77-1.15,1.79-1.79,3.61-3.74,1.97-6.71-.92-.86-2.79-.54-4.07-.95,0,.19.02.36.03.54ZM189.78,159.7c-.13,1.25-1.01,1.79-1.88,2.34-.98,3.44-4.13,7.64-1.36,11.58,1.94.39,3-.32,5.17-.43,1.94-3.48,3.77-7.07,2.94-13.16-.51-.72-1.52-.82-2.4-1.08-.82.49-1.16.24-2.47.74Z"/>
      <path class="cls-4" d="M172.63,158.54c1.28.41,3.15.09,4.07.95,1.65,2.97-.18,4.92-1.97,6.71-.27.27-.59,1.05-.77,1.15-1.3.79-3.7,1.09-4.49.55-.1-.72-.26-1.37-.76-1.58.61-3.07,1.23-6.15,3.94-7.24,0-.18-.02-.36-.03-.54ZM170.56,166.36c2.09-.99,4.59-1.59,4.42-4.73-3,.12-4.17,1.99-4.42,4.73Z"/>
      <path class="cls-4" d="M192.25,158.96c.88.26,1.89.36,2.4,1.08.83,6.09-1,9.68-2.94,13.16-2.17.1-3.23.82-5.17.43-2.77-3.94.38-8.14,1.36-11.58.87-.56,1.74-1.1,1.88-2.34,1.31-.5,1.65-.25,2.47-.74ZM190.4,161.65c-1.54,2.55-3.56,5.89-2.46,9.85.88-.2.61,1.03,1.55.78,2.5-2.2,3.19-6.12,3.25-10.64-.85-.33-1.26-.17-2.34,0Z"/>
      <path class="cls-4" d="M122.64,177.89c2.17-.17,2.2-2.39,3.67-3.2,1.4-3.54,2.32-7.52,3.02-11.72-.04-1.65-1.15-3.97-.31-5.44-.64-2.49-1.29-5.46-4.13-4.76-1.64.4-2.85,2.92-3.06,4.98,1,1.3.53,3.35.1,4.73-.61.23-.56-.35-.87-.49-3.66,2.08-7.48-.26-8.56-3.31-.19.04-.12.35-.13.56-.14.04-.16-.06-.18-.16.03-1.58.5-2.74.24-4.58.72-2.45,3.09-3.35,3.5-6.1.69-.09.92-.61,1.1-1.19,1.95-.48,3.94-1.52,6.09-1.94.6-.12,2.14,0,2.34-.2.65.51,1.47.62,2.21.55,1.27.47,2.57.83,3.43,1.54.2.17.94.05,1.01.11.71.46,3.2,3.08,3.75,4.07,1.22,2.17,1.42,5.67,2.3,8.18-.14,1.18.6,3.2-.11,3.84-.17.59.55.09.37.69-.41,2.43-.31,4.45-.43,7.32-.12,3.02-1.83,4.79-2.43,7.3-2.61,4.11-7.99,6.91-14.22,6.25-6.63-.7-12.12-4.32-12.9-11.88-1-3.84.61-8.09,2.61-10.23.73-.34,1.31.13,1.69.22,1.41.4,2.73.56,3.76,1.35,3.14,2.37,2.44,8.82,4.72,12.36.53.31.91.81,1.4,1.16ZM115.58,159.71c.9,1.34,2.46,1.85,4.77,1.44,0-.29-.06-.63.3-.58-1.31-5.88-.42-10.08,4.58-10.75,1.76.91,3.35,2.04,4.71,3.44,1.02,2.41,1.03,6.09,2.31,8.19-.73.68-.12,2.64-.82,3.35.91,6.13-2.88,10.75-5.71,14.48-.22.02-.17-.3-.35-.33-.39.88-.73,1.83-2.08,1.8-1.85-.99-3.72-1.96-4.59-4.17-.11-2.25-.76-3.83-1.47-5.34-.06-3.74-1.75-5.45-3.73-6.8-.68.26-.73.1-1.5.12-2.2,1.07-2.51,3.91-2.62,6.95-.2.71.48.31.38.87-.13,2.44,1.06,3.21,1.14,5.37.77,1.63,2.2,2.43,3.23,3.74,1.49.14,2.66,1.4,4.44,1.65,2.6.35,7.34.11,9.12-1.65,1.65-.09,2.48-.97,3.77-1.41,1.13-2.19,3.23-3.46,3.49-6.47,1.11-1.33,1.7-3.66,1.86-5.61.28-3.36.06-7.56-.62-10.88-1.08-5.32-4.24-9.72-8.62-10.23-1.52-.17-3.08.72-4.53-.17-.36.4-.61.9-1.11,1.18-.03-.28-.01-.63-.36-.52-.66.74-1.39,1.43-2.59,1.67-.64,1.5-1.95,2.38-2.98,3.52-.33.03-.66.05-1,.08-.15,1.35-1.64,1.42-1.15,3.38.67.24.01-.78.46-.77.6.92-.41,1.16-.57,1.86.6.11.52,2.06.78,1.95-.15-1.03.02-1.24.47-.59.25.7-.53.41-.28,1.11.35.15.5.55.73.85.11-.61-.5-1.09.12-.74Z"/>
      <path class="cls-1" d="M115.46,160.45c-.23-.3-.37-.7-.73-.85-.25-.7.53-.41.28-1.11-.45-.65-.62-.44-.47.59-.26.11-.18-1.84-.78-1.95.15-.7,1.16-.94.57-1.86-.45-.02.22,1-.46.77-.49-1.96,1-2.03,1.15-3.38.34-.03.66-.05,1-.08,1.04-1.14,2.35-2.02,2.98-3.52,1.2-.24,1.93-.93,2.59-1.67.35-.12.33.23.36.52.49-.28.75-.78,1.11-1.18,1.45.9,3.01,0,4.53.17,4.37.51,7.53,4.91,8.62,10.23.68,3.32.9,7.52.62,10.88-.17,1.94-.75,4.28-1.86,5.61-.26,3.01-2.36,4.28-3.49,6.47-1.29.44-2.12,1.32-3.77,1.41-1.78,1.76-6.52,2-9.12,1.65-1.78-.24-2.96-1.51-4.44-1.65-1.02-1.31-2.46-2.11-3.23-3.74-.09-2.16-1.27-2.94-1.14-5.37.1-.56-.59-.16-.38-.87.12-3.04.43-5.88,2.62-6.95.77-.02.82.13,1.5-.12,1.98,1.35,3.67,3.06,3.73,6.8.71,1.51,1.36,3.1,1.47,5.34.87,2.22,2.74,3.18,4.59,4.17,1.35.03,1.69-.91,2.08-1.8.18.03.13.35.35.33,2.83-3.73,6.62-8.34,5.71-14.48.7-.71.09-2.67.82-3.35-1.28-2.1-1.29-5.78-2.31-8.19-1.37-1.41-2.95-2.53-4.71-3.44-5.01.67-5.89,4.87-4.58,10.75-.36-.05-.3.29-.3.58-2.31.41-3.87-.1-4.77-1.44-.62-.35,0,.13-.12.74Z"/>
      <path class="cls-2" d="M230.79,165.29c-.25-.69.53-.41.27-1.11.47.67.6,2.78-.15,3.28.33-.39.51-1.92-.12-2.18Z"/>
      <path class="cls-4" d="M150.09,165.65c-1.75,1.23-1.48,4.38-1.1,7.2,1.22,1.19,2.32,2.54,4.19,2.93,1.03-.68,2.89-.57,4.13-1.06,1.19-1.33,2.72-2.35,4.16-3.43.27-1.01-.21-2.1.15-3.29.11-.36.67-.62.78-.97.16-.52-.09-1.12.07-1.65.16-.48.73-.93.92-1.53.19-.6.01-1.37.23-1.84.36-.77,1.58-1.82,2.51-2.93.87-1.04,1.11-1.8,2.22-2.18.41-.14.77-.78.79-.79,2.28-.93,4.69-1.06,7.34-.6.41.72,1.19.98,1.92,1.3.13,1.01.7,1.46,1.28,1.89,1.38,4.75.56,9.26-1.85,11.81-2.21.47-3.64,1.7-5.73,2.29-.06,1.23,1.17.87,1.28,1.89,4.54.72,7.13-3.51,9.87-6.08-1.28-3.85,1.49-7.99,2.72-11.15,2.23-1.43,3.25-4.01,6.8-4.19,1.32,1.49,4.75,3.47,5.18-.23,2.19-.09,5.58-1,6.58.74.16-.13.15-.43.48-.4.04,5.96-1.95,12.3-1.1,19.02,5.63-.7,4.06-7.7,4.62-13.12.26-2.54,1.19-4.55,1.47-6.49,2.96-.78,3.66-.82,8.31-1.22.42.71,1.14,1.05.97,2.48,2.1-.47,3.75-1.37,5.04-2.6,1.4-.35,3.47.43,3.86.05,1.89,1.13,2.84,3.45,3.99,5.5.01,2.06-.15,3.45.11,4.91-.55,2.18.13,5.5-.22,7.84,3.02,2.9,3.19-2.7,6.72-2.37.71,1.06,1.56,1.94,2.66,2.52-.08.49-.27.88-.43,1.3-2.88,1.51-3.63,5.02-7.03,6.04-.39-.03-.16.54-.47.58-4.19.72-8.62.87-10.37-2.79-.4.11-.38-.31-.85-.12-.95-2.88-2.13-5.89-1.73-9.87-1.77,1.29-1.71,4.33-3.36,5.73-.42,2.72-.89,4.96-.55,8.06-.64-.1-.48.57-.97.63-.51-.01-1.13.12-1.2-.45-1.8,1.03-5.13.62-6.41,2.16-.65-.23-.83-1.05-1.1-1.74-.89.17-2.1,1.63-2.82.42-2.85,1.82-7.29.89-8.63-1.5-1.28.96-2.52,1.96-3.68,3.03-2.16.32-3.43.63-4.68.2-2.23-.77-2.6-3.73-4.62-4.72-2.75,2.21-5.43,3.35-8.11,4.66-2.25-.39-4.54.89-5.86-.07-1.48.57-3.64-1.24-5.13-1.94,0-.74-.44-.88-.43-1.61-2.72,2.22-6.72,3.8-9.76,5.16-.94-.06-2.97.47-4.5.36-2.09-.14-4.03-.95-5.13-1.95-.64-.21-.29.53-.81.43-1.62-1.8-2.53-4.47-3.42-7.19.66-1.76.28-3.72.7-5.52.04-.17.44-.1.49-.21.6-1.47.65-3.85,1.21-5.2.12-.3.75-.65.93-1.16.27-.73.18-1.33.73-2.07.18-.23.73-.32.97-.62.59-.72.87-1.61,1.24-1.92.17-.15.61-.08.82-.25,1.04-.84,3.69-2.26,5.43-1.71.12-.41.59-.46,1.15-.46,4.57-.09,7.74,4.63,5.74,9.75-1.7,1.3-4.58,3.81-7.6,1.88-.09-.86-.57-1.22-1.09-1.55ZM151.04,158.83c-.15.2-.31.4-.47.58-1.8-.04-2.16,1.28-3.42,1.74-1.65,3.47-4.74,5.57-4.59,10.75-.83.69-.82,2.19-.79,3.7.72.91.99,2.39,1.38,3.72.71.6,1.64.93,2.11,1.83,2.47.16,4.29,1.12,7.4.49,3.87-1.37,7.53-2.93,10.43-5.21.57.9,2.02.71,1.97,2.39.84.51,1.96.67,2.44,1.63,7.7-.31,12.42-3.45,16.51-7.17,1.28,1.32,1.35,4.13,2.49,5.62.33.03.32-.28.48-.4,1.03,1.21,3.37,1.47,5.4.83.64-.79,1.4-2.12,2.22-2.19-.02-1.22-.33-2.72.14-3.47.39-.02.78-.07,1.17-.09.46,1.05,1.4,1.49,1.2,3.36.46.72,1.49.72,1.61,1.87,2.41,1.03,5.44-.11,6.4-2.34.16.31.46.46.55.87.65-.73,1.74-1.54,2.61-1.12.04.66.08,1.32.11,1.99,1.98.84,4.02-.91,6.32-.88.61-7.66,3-13.63,7.55-17.55,1.19,1.11.8,2.5.57,4.14-.4,2.94.28,5.51,1.13,8.11.96.67,1.61,1.74,2.8,2.13.05.14.15.2.34.15-.16.78.31.77.41,1.25.43-.11.43-.63,1.14-.46,1.06.58,1.42,1.04,3.23.84,1.23-.54,2.28-1.23,3.08-1.89,2.08-1.7,3.92-2.3,3.41-4.83-1.1,1.58-3.44,3.48-5.95,4.31-5.18-2.19-2.41-13.14-2.4-18.75-1.95-4.03-6.39-.75-9.51.59-.43,1.14-.99,2.16-1.67,3.05-.22.02-.45.04-.67.05-.22-1.41-.38-2.89-.42-4.52-2.51-.74-5.06,1.24-6.68.18-.33,5.64-1.29,10.68-1.59,16.34-1.38,1.95-3.1,3.58-6.14,3.96-.09.42.38,1.39-.26,1.3-.57-.01-.52-.79-.58-1.42-2.38-.66-1.68-4.75-.89-6.84-.17-4.56,1.25-7.63.98-12.28-2.44-.2-2.26-.06-4.49.55-.47,1.04-.56,2.45-1.32,3.2-.86-1.51-2.09-2.56-3.54-3.35-1.49-.28-3.27.2-4.11,1.43-.31.46-1,.52-1.29.83-.31.33-.4,1.1-.75,1.52-.29.35-.88.47-.97.62-.16.26.02.79-.11,1.1-.14.34-.69.56-.78.97-.22.99-.59,1.59-.71,2.24-.29,1.61-.03,3.21-.06,4.92-1.93,2.29-4.05,4.39-6.52,6.17-3.45,1.41-7.72.83-7.75-3.74,2.59-1.32,5.91-1.95,7.82-3.91,1.57-3.32.74-9.74-2.12-10.94-1.12.48-2.31-.06-3.13.8-3.45-.67-5.48,2.91-7.44,4.79-.08,1.52-.85,2.39-1.48,3.39,0,1.26,0,2.53-.66,3.15-.04.97.21,1.55.3,2.34-2.63,3.91-6.82,6.34-13.01,6.88-4.34-2.75-4.19-12.69-.75-16.14.54.16.38-.02,1-.08.57,1.22.9,2.75,1.56,3.88,3.17,1.98,6.34-1.62,5.02-6.06-.36-.4-.82-.65-.92-1.38-2.07.1-3.1.18-5.33.43Z"/>
    </g>
    <g>
      <path class="cls-4" d="M286.96,149.18c.51,1.86-.22,2.74-.58,3.9-.95.36-1.93.67-2.18,1.59-1.62.5-2.9,1.75-4.42,1.45-1.11-.21-1.65-1.21-2.51-2.16-.09-1.03-.43-2.25-.25-3.07,1.43-.82,1.51-2.71,3.57-3.03-.01-.82,1.08-.77,1.4-.24,1.32-.48,4.1.09,4.98,1.56ZM278.46,152.19c-.08.45-.09.95.05,1.55,1.92,1.58,4.24-.37,6.06-1.04-.01-.77.19-1.35,1.09-1.4-.06-.45-.08-.98-.32-1.16-.52,0-.71.25-1.07.36-.04-.29-.08-.56-.12-.85-2.45-.61-4.26,1.39-5.69,2.54Z"/>
      <path class="cls-1" d="M284.16,149.66c.04.29.08.56.12.85.36-.11.55-.37,1.07-.36.24.18.26.71.32,1.16-.9.05-1.1.63-1.09,1.4-1.81.67-4.14,2.62-6.06,1.04-.14-.6-.13-1.1-.05-1.55,1.43-1.15,3.24-3.15,5.69-2.54Z"/>
      <path class="cls-4" d="M380.92,152.57c.06.18.31.07.35.28-.52,1.04-.58,2.73-1.88,3.79-.22.16-.67.11-.92.31-.36.33-1.53,1.78-2.26,2.12-.51.26-1.29.11-1.84.49-.67.47-1.57.81-2.35.23-.75-5.38,2.39-7.65,5.33-10.08.6.74,1.25-.83,1.91.02,0-.2-.07-.29-.19-.31.92-.47,3.08,1.72,1.85,3.14ZM374.18,154.59c-.05,1.5-1.55,1.87-1.26,3.67,3.05-.99,4.97-2.88,6.85-4.81-.07-.4-.11-.78-.16-1.18-.23-.2-.83.13-.72-.57-2.63-.04-2.76,2.03-4.71,2.88Z"/>
      <path class="cls-4" d="M327.66,172.93c-.47.28-.41-.19-.66-.23-.05.56-.53.78-.8,1.17-.51-.4-1.84.07-2.73-.21.26.07-.85-.38-.85-.38-2.1-1.72-.43-6.38-.37-8.73.16-.04.31-.06.47-.08.64-2.31,1.59-4.36,3.18-5.9,5.16.99,3.75,11.21,1.76,14.37ZM324.63,165.68c-1.29,1.44-1.75,3.53-1.39,6.28.33-.09.51.05.54.43,3.04-.03,2.89-2.6,4.05-4.15.29-1.73.54-4.12-.19-6.18-1.5-1.03-3.6,1.14-3.01,3.62Z"/>
      <path class="cls-4" d="M351.25,155.42c3.13,2.28,1.64,8.51-.32,10.76.39,3.17-4.13,6.09-5.53,2.68-.06-.61-.3-1.36.11-1.58.12-.58-.52-.04-.4-.62.14-2.7,1.11-4.74,1.41-7.32.7-.7,1.23-1.53,1.39-2.65,1.01-.77,1.75-1.25,3.33-1.27ZM349.2,158.01c-1.35,2.96-2.77,5.83-2.65,9.95.36,0,.3.64.58.77,1.14.05,1.38-1.5,2.44-1.98.43-3.08,2.67-4.7,1.68-8.92-.42-.05-.93.02-1.16-.32.23.59-.58.34-.89.5Z"/>
      <path class="cls-1" d="M241.33,151.67c-1.46-.53-.39-3.14-.6-4.55.32,0,.48-.11.42-.42.17.08.22.36.51.27.24-.33.53-.6.31-1.27.71-.23.94.24,1.19.65.3-.26-.22-1.17.67-.97-.08-.61-.17-1.24-.25-1.86.14.07.27.14.49.09,1.69-2.59,6.54-2.32,9.63-1.66-.01.36.17.43.25.65.46-.08.93-.17,1.4-.25.73.98,1.93,1.21,2.82,2.11.78.79,1.14,1.89,1.67,3,1.02,2.18,2.69,4.92,2.04,8.11-.11.56-.58,1.21-.71,1.84-.09.43.11.9,0,1.21-.03.13-.41.16-.44.25-.28.95-.13,1.78-.47,2.49-.29.67-1.03,1.04-1.35,1.8-.1.26.09.6-.04.86-.27.55-.97.96-1.22,1.6-.16.44.04.98-.13,1.4-.11.26-.6.38-.71.64-.42.92-.3,2.02-.91,2.74.15.66.03,1.7.56,1.81.22,3.23,2.73,3.12,3.85,5.03,1.37-.12,2.07.01,3.78-.31.2.44.4.88.91.88-.04-.49-.11-.91-.59-.76,5.22-5.29,6.4-16.45,3.38-25.97.64-2.23-1.94-4.5-1.63-6.28,1.41-.41,2.11-.25,3.6-.44.48.72,1.33.88,1.93,1.4.15,2.27,1.14,2.97.66,4.89.21.17.48.22.42.79-.43,1.7.28,3.36.19,4.97-.05.9-.54,1.68-.62,2.53-.11,1.23.25,2.52.2,3.77-.04.68-.43,1.34-.54,1.99-.27,1.61-.43,3.26-1.14,4.51-.11.21.04.89-.02,1.04-.14.33-.64.63-.82,1.01-.25.51-.18,1.16-.42,1.62-.19.37-.77.62-.97,1.04-.55,1.1-1.05,2.5-2.11,3.3-.25.04-.52.08-.78.13-.63,1.2-1.64,2.11-2.62,3.03,0-.11-.02-.22-.04-.33-.61,1.01-1.92,2.67-3.26,1.78-.18.05-.09.32-.09.52-1.29-.31-2.11-1.33-3.54-1.46-2.1-3-5.89-6.32-5.13-11.03-.5-1.82.38-2.51.09-4.16,1.09-.69.32-2.87,1.26-3.68-.12-1.56.82-4.15.9-5.16.03-.39-.65-.52.22-.73-.38-.55-.04-.91-.22-1.68.24-.11.28.1.49.08.24-4.52-.64-9.89-4.82-9.88-.99.39-4.77.8-5.92,3.26.61.38.02.3-.32.05-.69,1.06-1.76,1.82-1.41,3.7Z"/>
      <path class="cls-4" d="M385.56,165.93c-.02-.23-.06-.45-.09-.67.32-.14.34.18.38.45.57-.43-.78-1.51.08-1.75-.05-.2-.3-.1-.48-.09.09,1.28-.6,1.94-.53,3.19-1.16.37-1.43,2.66-3.26,2.99-2.24,3.4-6.74,4.14-10.86,4.45-1.73-.55-3.13-1.59-4.63-2.48-2.3-2.5-2.85-6.34-2.7-10.77.35.04.18-.36.43-.42-.25-3.71,1.79-5.6,3.05-8.12.48-.16.8-.47,1.35-.58.21-.18.15-.58.2-.9,2.06-.42,1.96-2.56,4.06-2.94.28-.24.33-.65.52-.95.8.62,1.64-.85,3-.18.74-.56,1.98-.72,3.05-1.03,1.2.53,2.99.18,4.22.66.98,1.17,3.19,2.66,2.91,5.2,0,.06-.41.95-.64,1.14.12.15.38.11.38.46-.75.06-.41.97-.42,1.62-1.09.18-.52,2.93-2.35,2.65.43,1.12-.8.14-.46,1.28-1.7.13-1.65,2.38-3.4,1.97-.88,2.33-3.66,2.92-6.75,3.07.28,1.15,1.57.79,1.73,2.13,1.06-.45,4.54-.09,5.15-1.93.7-.02,1.05-.31,1.47-.94.89-1.37,3.04-2.43,3.05-4.49.47-.17.59.21,1.11-.02.87,1.34-.2,1.35.72,2.99.33-.2-.07-.96-.03-1.38M365.97,169.29c.43,1.05,1.4,1.31,1.76,2.46.52-.23.63.14,1.11-.02,1.11,1.65,3.5.22,5.19.84-.25-.43.44-.56.31-.06.44-.43.55-.46,1.08-.19,3.92-2.81,9.55-5.04,9.23-10.74-2.47,2.48-5,7.09-9.83,6.18-2.05.6-2.42-1.28-3.74-1.77-.4-.81-.39-2.25-1-2.76.59.07.03-.79.54-.78.73.19,2.12-.56,2.42.28,1.07-.71,2.16-.53,2.49-.44.37-.4,1.02-.6,1.63-.8-.08-.38-.04-.64.22-.72,1.14-.52,1.49-1.63,2.93-1.89,1.13-1.63,3-2.64,4.04-4.32.05-.76-.11-1.7.53-1.99-.1-.73-.19-1.47-.29-2.2-1.69-2.5-4.91-2.68-8.65-1.62-.2.04-.1.31-.26.39-1.93.53-3.36,1.45-4.6,2.52-3.24,1.43-4.07,4.79-5.67,7.53.22.79-.19,1.07-.45,1.47-.45,1.85,0,3.68.01,6.04-.35.17-.16-1.46-.41-.79.06.5.12,1.01.2,1.52,1.31.19.52,2.82,1.2,1.86ZM385.88,163.62c.13-.24.54-1.55-.2-1.52-.03.65-.1,1.11.2,1.52Z"/>
      <path class="cls-1" d="M364.77,167.43c-.08-.52-.14-1.02-.2-1.52.25-.67.06.95.41.79-.02-2.36-.46-4.19-.01-6.04.26-.4.68-.68.45-1.47,1.6-2.74,2.43-6.1,5.67-7.53,1.24-1.07,2.67-1.99,4.6-2.52.16-.07.06-.35.26-.39,3.74-1.06,6.97-.88,8.65,1.62.1.73.19,1.46.29,2.2-.64.3-.48,1.23-.53,1.99-1.04,1.68-2.91,2.69-4.04,4.32-1.44.26-1.79,1.37-2.93,1.89-.26.08-.31.34-.22.72-.61.2-1.26.4-1.63.8-.33-.09-1.42-.28-2.49.44-.3-.84-1.69-.09-2.42-.28-.5,0,.05.85-.54.78.61.52.6,1.95,1,2.76,1.32.49,1.69,2.37,3.74,1.77,4.83.91,7.36-3.7,9.83-6.18.32,5.7-5.31,7.93-9.23,10.74-.53-.27-.64-.24-1.08.19.12-.5-.57-.38-.31.06-1.7-.62-4.08.81-5.19-.84-.48.16-.59-.21-1.11.02-.36-1.15-1.33-1.4-1.76-2.46-.68.96.11-1.68-1.2-1.86ZM379.07,149.42c.13.02.2.11.19.31-.67-.85-1.31.72-1.91-.02-2.94,2.43-6.09,4.7-5.33,10.08.78.58,1.68.24,2.35-.23.55-.38,1.33-.23,1.84-.49.74-.34,1.9-1.79,2.26-2.12.24-.2.7-.15.92-.31,1.3-1.06,1.36-2.74,1.88-3.79-.04-.22-.3-.1-.35-.28,1.23-1.42-.93-3.61-1.85-3.14Z"/>
      <path class="cls-4" d="M246.05,139.29c.44-.25.32.33.4.62.13-.2.13-.34.42-.41-.46.13,1.11-.09.61-.1,1.06.05,2.44-.08,3.34-.07,5.81.04,10.62,4.54,12.55,10.62.7,6.1-.2,10.92-3.05,14.18-.63,3.17-2.89,7.3-.32,10.76,2.75.38,3.78-1.19,5.57-2.33,3.22-6.21,3.69-20.31-1.6-26.33,1.23-4.25,8.74-5.27,9.18.85.59.76,1.09,3.23,1.01,5.17-.21,5.02.2,9.42-.38,13.88-.75,1.2-.88,2.91-1.32,4.37-.57.45-.88,1.11-.84,2.04-1.03.94-1.38,2.43-1.88,3.78-.21.04-.42.07-.63.11-.68,1.51-1.68,2.78-3.17,3.65-1.46,1.9-3.08,3.68-5.75,4.62-1.09-.83-2.26-1.53-3.74-1.78-2.77-2.25-5.35-4.78-6.63-9.22-.06-.18-.33-.06-.36-.28-.08-2.9-.34-5.49.08-7.79.09-.54.55-.8.77-1.34.35-.88.2-1.96.41-2.84.08-.34.64-1.51.66-2.19.02-.49-.22-.95-.18-1.34.1-.83.89-1.27.44-2.67.25-.4.1-1.12.62-1.31-.3-.52.01-2.46-.29-3.41-.15-.46-.63-1.31-1.18-1.7-.12-.08-.53.04-.65-.06-.23-.2-.19-.78-.44-.96-.59-.42-1.32-.03-1.84-.73-5.13.33-.65,5.34-1.19,7.82-1.34.37-2.95.55-4.15,1.05-2.38-1.09-4.03-3.23-4.98-6.4.97-1.43.78-3.8,2.22-4.87-.04-.28-.08-.56-.12-.84.32-.14.33.18.38.45.44-.41.57-1.06,1.09-1.39,1.22.07,2.98-3.33,4.55-2.85.19-.2.25-.51.38-.76ZM242.75,147.97c.34.25.93.33.32-.05,1.16-2.46,4.94-2.87,5.92-3.26,4.18-.01,5.06,5.36,4.82,9.88-.2.02-.25-.19-.49-.08.17.77-.16,1.13.22,1.68-.87.21-.19.34-.22.73-.08,1.01-1.02,3.6-.9,5.16-.94.8-.17,2.99-1.26,3.68.29,1.64-.59,2.34-.09,4.16-.76,4.71,3.03,8.03,5.13,11.03,1.43.12,2.24,1.15,3.54,1.46,0-.2-.09-.47.09-.52,1.34.89,2.65-.77,3.26-1.78.02.11.03.22.04.33.98-.92,1.99-1.83,2.62-3.03.26-.05.52-.09.78-.13,1.06-.8,1.56-2.2,2.11-3.3.2-.42.79-.67.97-1.04.25-.46.18-1.11.42-1.62.18-.37.68-.67.82-1.01.06-.14-.09-.83.02-1.04.71-1.25.88-2.9,1.14-4.51.11-.64.5-1.3.54-1.99.06-1.25-.31-2.54-.2-3.77.09-.85.57-1.63.62-2.53.09-1.61-.62-3.27-.19-4.97.06-.57-.22-.62-.42-.79.49-1.92-.5-2.62-.66-4.89-.61-.52-1.46-.68-1.93-1.4-1.49.19-2.19.02-3.6.44-.31,1.78,2.27,4.05,1.63,6.28,3.02,9.52,1.84,20.68-3.38,25.97.48-.16.55.27.59.76-.51,0-.71-.44-.91-.88-1.7.32-2.4.18-3.78.31-1.12-1.91-3.63-1.8-3.85-5.03-.53-.1-.41-1.14-.56-1.81.61-.72.49-1.82.91-2.74.11-.26.6-.38.71-.64.17-.42-.04-.97.13-1.4.24-.65.95-1.05,1.22-1.6.13-.26-.06-.6.04-.86.32-.75,1.06-1.12,1.35-1.8.33-.71.18-1.54.47-2.49.03-.09.41-.12.44-.25.11-.31-.09-.78,0-1.21.13-.63.6-1.28.71-1.84.66-3.2-1.01-5.94-2.04-8.11-.53-1.11-.89-2.2-1.67-3-.9-.9-2.1-1.12-2.82-2.11-.47.08-.94.17-1.4.25-.08-.23-.26-.29-.25-.65-3.09-.67-7.94-.94-9.63,1.66-.22.04-.35-.02-.49-.09.08.62.16,1.24.25,1.86-.89-.2-.37.71-.67.97-.26-.41-.48-.89-1.19-.65.22.68-.07.94-.31,1.27-.3.09-.34-.19-.51-.27.06.31-.1.43-.42.42.21,1.42-.85,4.02.6,4.55-.35-1.88.73-2.64,1.41-3.7Z"/>
      <path class="cls-1" d="M295.59,139.93c1.51.2,3.29,0,4.79.22.29,1.48-.74,1.92-.15,3.65-.44,1.94-.2,3.67-.47,5.95-.2,1.63-1.01,3.31-.42,5.26-.77,2.55-.9,5.62-1.43,8.36.87,1.49.97,4.1,2.25,4.97,1.81-.2,2.03-1.06,3.13-1.57-.12-.16-.38-.12-.38-.46.92.02.64-.9,1.29-1.09-.11-1.19.14-2.11.75-2.72.13-3.16.98-5.75,1.21-8.83.02-2.59.28-5,.79-7.22-.38-2.87.66-4.6.46-7.33,1.71-.69,3.36-.51,4.48-.94.34,3.59-.79,6.8-1.02,10.19-.07,1.04.21,2.18.11,3.26-.06.69-.47,1.31-.52,1.99-.24,3,.49,7.23.21,9.98.19.4-.11,1.5.49,1.3-.5,1.92,2.07,4.68,4.05,2.92.46-.21.26.55.82.21.28-.33.89-.41.82-1.01,1.57-.05,1.8-1.17,2.08-2.26,1.46-1.05,1.55-3.18,2.21-4.87,1.11-.41,2-1.7,3.2-2.28,2.33-1.09,4.31-.54,5.86,1.08.56-2.29,3.14-4.18,5.86-3.77.38,4.73-2.77,9.31-.04,13.99.31.36,1.1,0,1.2.65.37-.57,1.77-.26,2.02-.34.2-.09.07-.45.06-.7.32-.06.63-.11.94-.17.35-.18,0-.9.69-.8.11-.97.18-1.98.77-2.56-.77-3.39,1.2-5.37,2.14-7.78.06-.16-.18-.54-.09-.67.39-.67,1.23-1.05,1.71-1.51.49-1.55,3.37-3.16,5.11-2.26.29-.12.04-.68.55-.62.76.92,2.26.73,2.27,2.72.37-.13.38.25.8.03.43-1.56,1.03-3,1.81-4.28,2.01,1.41,6.53-2.08,6.64,2.14-.51.74-.96,1.55-.55,3.03-.89,1.04-.84,2.8-1.18,4.18-.04.15-.41.37-.43.42-.13.73.14,1.54-.02,2.25-.17.79-1.17,1.6-.71,3.06-1.04,1.72-.45,3.85-.96,5.86-.24.91-.88,1.81-1.07,2.77-.13.68.08,1.33-.07,1.91-.09.42-.54.73-.64,1.15-.14.61.09,1.33-.07,1.91-.13.5-.86,1.56-.59,2.69-2.07,2.42-1.14,7.23-2.63,10.12.22.73-.07,1.06.07,1.72-.58.04-.13.9-.84.83.06,4.53-4.73,5.19-8.32,6.78-1.72-.3-3.14-1.04-5.07-1.03-2.03-2-3.09-6.89-2.5-10.45,1.09-2.35,2.83-4.45,6.42-4.38,1.05.74,1.64,2.16,1.83,4.18-.6,1.38-1.65,2.4-2.02,3.97.59.07.63.95,1.25,1,.97-1.43,2.5-2.43,3.64-3.74.24-1.67.98-2.94,1.66-4.26.06-3.32,1.07-5.88,1.34-9.04.4-.68.43-1.66.62-2.51-.2-.47-.61-.59-.78-1.08-2.75.51-7.06.83-7.1-3.09-.16-.66-.97-.34-.96-1.23-.31.06-.62.11-.93.17-.37.86-1.08,1.46-1.09,2.6-.74.31-1.21.85-1.37,1.61-2.36.58-5.05,2.66-6.8.3.2-1.43-.19-3.22-1.78-2.63-.2,2.85-4.56,5.14-7.16,5.9-.17.05-.34.39-.27.38-1.05.09-1.94-1.17-2.96-.69-1-1.15-1.63-2.86-2.47-4.24-.3-1.04.29-1.39.17-2.27-.24-.46-.6-.75-1.06-.86-.74,1.05-1.05,2.48-2.64,2.87-.56,1.35-2.65,1.49-3.81,2.38-3.69,1.53-5.79-.5-6.43-4.07-.26-.16-.44-.42-.84-.36-.67.86-1.61,1.66-2.51,2.66-1.26,1.42-2.08,2.78-4.31,3.51-.15.06-.47-.83-.47.08-1.47-.51-3.29-.55-4.36-1.67.66-1.09-.71-1.65-1.24-2.2-2.5,2.16-3.72,5.37-8.28,5.91-2.65-.49-3.27-3.94-4.12-7.06-.53-4.29-.25-7.93,1.21-11.27,1.48-.14,2.75-.69,3.88-.66.1,3.42-.64,5.82.33,9.61.36.54.7,1.13.89,1.91.23.54,1,.27,1.09,1.03,1.69-.25,1.67-1.22,3.33-1.26,5.59-7.46,2.91-21.51,5.88-31.06.28-.12.96.07.74-.47ZM325.9,158.56c-1.59,1.54-2.55,3.6-3.18,5.9-.16.02-.31.04-.47.08-.06,2.36-1.73,7.02.37,8.73,0,0,1.11.45.85.38.89.28,2.22-.19,2.73.21.27-.38.75-.6.8-1.17.25.03.2.51.66.23,1.99-3.16,3.4-13.38-1.76-14.37ZM347.91,156.69c-.16,1.11-.69,1.94-1.39,2.65-.3,2.58-1.27,4.62-1.41,7.32-.12.58.52.04.4.62-.41.22-.17.97-.11,1.58,1.4,3.41,5.92.49,5.53-2.68,1.95-2.25,3.45-8.48.32-10.76-1.59.02-2.32.5-3.33,1.27Z"/>
      <path class="cls-4" d="M292.61,139.06c1.46-.69,2.98.31,3.72-.64,1.85,0,3.74.49,5.42.11.43,3.46-.32,7.29-.64,10.65.08,3.61-.22,6.33-.5,9.4.15.98.31,1.96-.15,2.45.34,2.03.08,3.59.08,5.34,2.81-1.42,3.19-4.79,2.98-8.62.58-1.16.76-2.61.52-4.41.15-.03.31-.05.47-.08.11-5.81,1.17-10.84,1.82-16.21,1.97-.02,2.96-.74,4.29-.04,1.05-1.03,3.27-.93,2.89,1.4.06.24.47-.02.51.26.06.71-.5-.02-.55.62.35,1.62.11,3.71-.26,5.22.4,3.42-.75,6.82-.82,10.51-.03,1.49.31,3.02.29,4.61,0,1.21-.5,2.96-.43,3.87.09,1.46.76,2.93,1.53,3.19,1.81.6,3.02-2.02,4.11-3.82.08-4.35,2.91-6.52,6.73-7.89,1.33.67,4.05-.72,4.73.91,1.1-.38,1.8-1.07,1.75-2.37.86.04,1.13-.4,1.67-.63,1.03.44,2.61.08,3.98,0,.62.89,1.53,1.09,1.49,2.86-.07,3.66-2.07,8.02-1.58,12.01.82-.4,1.89-.6,2.56-1.13-.36-4.25,1.59-6.68,2.13-10.21,1.4-1.7,2.71-3.47,4.26-5.05,2.63-1.02,6.13-1.67,7.51.27.59-1.04,1.29-1.99,1.81-3.07,2.07.99,5.62-.18,7.86.55.03.7.44.83.78,1.08.83,2.56.35,4.77-.37,6.79-.1.26-.6.5-.69.81-.4,1.34-.11,2.83-.39,4.2-.08.44-.53.59-.67.98-.37,1.11-.19,2.35-.83,3.26.37,1.56-.48,2.13-.15,3.65-.41.92-.81,1.87-.68,3.22-.59,1.14-.65,2.7-.71,4.26-.83,3.72-2.26,6.95-2.67,11-1.38,1.2-.48,4.23-1.81,5.49-.04.39.34.19.39.45-.57,1.91-1.03,3.9-2.32,5.24-.26.11-.31-.08-.36-.28-.29.01-.21.67-.51.94-.08.08-.21-.34-.35-.28-.07.03-1.1,1.23-1.39,1.45-.16.12-.45.03-.63.12-.26.12-.35,1.02-.46.08-.76,1.45-3.23,1.67-4.82,2.03-.14-.13-.22-.35-.24-.65-3.59.62-5.79-2.5-7.81-4.88.27-2.9-.96-7-.15-9.48.75-.65,1.17-1.58,1.4-2.65,1.42-1.25,3.68-2.51,6.08-2.08,1.22,1.44,2.91,2.2,3.34,4.79,2.56-2.88,2.6-7.79,3.13-12.29-.29.61-2.94-.29-3.16.2-1.53-.36-2.93-.94-3.67-2.48-2.29,1.94-6.54,4.53-9.77,3.05-.19-.91-.83-1.2-1.07-2.06-.21.05-.41.07-.62.11-1.3,2.18-3.92,3.3-6.38,4.55-1.25-.1-2.6.28-4.3.05-1.3-1.93-3.12-3.08-3.81-5.91-.66.17-.65.89-1.64.79,0,.56-.64.6-.64,1.16-2.5.87-6.24,2.85-8.7,1.49-.69-1.35-1.71-2.2-2.25-3.75-2.62,2.3-4.66,6.09-9.42,5.75-1.34-.85-2.65-1.75-3.6-3.18-2.45,1.96-3.99,4.65-8.56,4.92-2.73-2.02-5.52-5-5.88-9.52-.36-4.51.9-9.23,1.11-13.15,1.18,0,1.82-.18,2.6-.78,2.33,1.01,3.56-.87,5.24,1.16-.59,3.31-1.14,7.27.11,11.55,4.77-.22,4.24-5.82,5.43-9.39-.54-4.71,1.34-7.48.76-12.22,1.01-2.67.79-6.32.94-9.67ZM294.86,140.4c-2.97,9.55-.29,23.6-5.88,31.06-1.65.05-1.63,1.02-3.33,1.26-.09-.75-.86-.49-1.09-1.03-.19-.78-.53-1.37-.89-1.91-.97-3.8-.23-6.19-.33-9.61-1.14-.03-2.4.52-3.88.66-1.46,3.34-1.74,6.98-1.21,11.27.85,3.12,1.48,6.57,4.12,7.06,4.55-.54,5.78-3.75,8.28-5.91.54.55,1.9,1.1,1.24,2.2,1.06,1.12,2.88,1.15,4.36,1.67,0-.91.32-.02.47-.08,2.23-.73,3.05-2.08,4.31-3.51.9-1,1.83-1.8,2.51-2.66.4-.06.59.2.84.36.64,3.57,2.74,5.61,6.43,4.07,1.16-.89,3.25-1.03,3.81-2.38,1.6-.39,1.9-1.82,2.64-2.87.47.11.83.41,1.06.86.12.89-.47,1.23-.17,2.27.84,1.38,1.47,3.09,2.47,4.24,1.01-.48,1.91.78,2.96.69-.07,0,.1-.33.27-.38,2.61-.76,6.97-3.05,7.16-5.9,1.6-.59,1.98,1.19,1.78,2.63,1.74,2.36,4.44.28,6.8-.3.16-.76.63-1.31,1.37-1.61.01-1.15.72-1.75,1.09-2.6.31-.05.62-.11.93-.17,0,.89.81.57.96,1.23.03,3.93,4.35,3.6,7.1,3.09.17.49.58.61.78,1.08-.19.85-.22,1.84-.62,2.51-.27,3.16-1.28,5.72-1.34,9.04-.68,1.32-1.41,2.59-1.66,4.26-1.13,1.31-2.66,2.3-3.64,3.74-.62-.05-.65-.92-1.25-1,.37-1.57,1.42-2.59,2.02-3.97-.18-2.02-.77-3.44-1.83-4.18-3.58-.07-5.33,2.03-6.42,4.38-.59,3.56.47,8.45,2.5,10.45,1.94-.02,3.36.73,5.07,1.03,3.6-1.6,8.38-2.26,8.32-6.78.71.06.26-.8.84-.83-.14-.66.15-.99-.07-1.72,1.49-2.89.55-7.7,2.63-10.12-.27-1.13.46-2.19.59-2.69.16-.57-.07-1.3.07-1.91.09-.42.54-.73.64-1.15.15-.58-.06-1.24.07-1.91.19-.96.83-1.87,1.07-2.77.51-2-.08-4.13.96-5.86-.46-1.46.53-2.27.71-3.06.16-.7-.12-1.52.02-2.25.02-.05.39-.27.43-.42.34-1.37.28-3.14,1.18-4.18-.41-1.49.04-2.29.55-3.03-.11-4.22-4.63-.73-6.64-2.14-.78,1.29-1.38,2.72-1.81,4.28-.43.22-.44-.16-.8-.03-.01-1.99-1.51-1.81-2.27-2.72-.51-.06-.26.5-.55.62-1.73-.9-4.61.72-5.11,2.26-.47.46-1.32.84-1.71,1.51-.09.13.15.51.09.67-.95,2.41-2.91,4.39-2.14,7.78-.58.59-.66,1.6-.77,2.56-.69-.1-.35.62-.69.8-.3.05-.62.11-.94.17.01.25.15.61-.06.7-.26.08-1.65-.24-2.02.34-.1-.65-.89-.29-1.2-.65-2.73-4.69.42-9.27.04-13.99-2.72-.41-5.3,1.48-5.86,3.77-1.55-1.61-3.53-2.17-5.86-1.08-1.2.58-2.1,1.88-3.2,2.28-.65,1.69-.75,3.82-2.21,4.87-.28,1.08-.51,2.21-2.08,2.26.07.6-.54.68-.82,1.01-.56.34-.37-.42-.82-.21-1.98,1.75-4.55-1.01-4.05-2.92-.6.2-.31-.9-.49-1.3.28-2.75-.45-6.99-.21-9.98.06-.68.47-1.31.52-1.99.1-1.08-.18-2.22-.11-3.26.23-3.39,1.36-6.6,1.02-10.19-1.12.44-2.76.25-4.48.94.2,2.73-.84,4.46-.46,7.33-.5,2.21-.76,4.62-.79,7.22-.23,3.08-1.08,5.67-1.21,8.83-.61.61-.86,1.53-.75,2.72-.65.19-.37,1.11-1.29,1.09,0,.34.25.3.38.46-1.1.51-1.31,1.37-3.13,1.57-1.28-.87-1.38-3.48-2.25-4.97.53-2.74.66-5.81,1.43-8.36-.59-1.95.22-3.63.42-5.26.27-2.29.04-4.02.47-5.95-.59-1.73.44-2.16.15-3.65-1.5-.22-3.28-.02-4.79-.22.23.54-.45.35-.74.47Z"/>
    </g>
    <g>
      <path class="cls-1" d="M308.26,182.78c.61-1.05,1.16.66,1.86.09.01,5.18-3.25,8.87-4.91,13.29.18.41.62.67.04,1,.47.88,1.23,1.44,1.94,2.43.92-.66,1.3.4,2.21.08.15.79.63,1.3.57,1.99-.2,2.23-3.07,2.7-5.49,2.08-.44.82-1.15,2.23-1.23,3.24-.03.25.33.39.35.32-.11.52-.45,1.77-.76,2.56-.02.05-.46.1-.51.18-.62,1.24-.87,3.02-2.75,2.97-3.26-3.19,2.98-10.68-1.6-11.33-.67.86-1.96-.06-2.71-.22-.19-.66.45-1.41.28-1.52,1.17-.63,3.72-.02,4.91.47,1.71-2.12,2.52-4.12,2.75-7.67.38.08.23-.32.5-.35-.24-4.65,1.89-7.11,3.51-10.04.49.23.85-.26,1.03.46Z"/>
      <path class="cls-4" d="M211.43,202.13c-.83-.21-1.27-.84-1.9-1.27-.03-.94-.07-1.9-.1-2.84.62-.83,1.39-1.52,1.76-2.59.95.05,1.65-1.29,2.64-1.45,2.17-.36,4.02,1.78,3.71,4.37-.67,1.05-1.92,1.58-2.6,2.63-1.19.04-2.53.78-3.51,1.15ZM215.09,195.77c-1.9,1.28-5.15.9-4.39,4.71,2,.39,3.29-1.16,5-1.55.73-1.05-.31-1.91.06-3.02-.65.29-.36-.42-.69-.47-.04.05.06.3.01.33Z"/>
      <path class="cls-1" d="M280.9,195.67c.15.12.39.17.67.14-.37.68.27,1.46.11,2.85-.04.39.49.16.52.48,1.67-.79,3.14-1.75,4.8-2.55,1.31.37,2.68-.18,3.75,1.01.05.59-.38.73-.46,1.19.24.58,1.06.8.57,1.65-3.52-.6-7.13-.33-7.82,3.02-3.2,2.42-1.33,7.62-5.74,8.96-.78-4.45,3.68-8.49,2.06-12.66-.73-.02-1.38-.14-2.04-.25-.17-1.09.7-1.2.6-2.2,1.2-.11,1.48-1.84,2.82-1.29.17-.01.12-.21.16-.34Z"/>
      <path class="cls-1" d="M269.65,197.16c.22-.02.45-.02.67-.03.08.26.53.12.36.65.72-.26.95.02,1.85-.07,1.68,2.92,1.08,6.49-.54,8.41-.51.63-1.18,1.48-1.45,1.74-.09.09-.43-.06-.5.02-.1.12-.03.58-.15.68-1.2,1.08-3.09,1.47-3.79,2.5-1.53.05-2.68.45-3.85.84-.18-.69-1.25-.4-1.72-.77-.4-.85.07-2.63-.62-3.16-.07-.28.12-.32.33-.35-1.3-1.85.92-3.09,1-4.74,1.93-1.16,3.25-4.55,5.58-4.25.31-1.36,2.47-.43,2.82-1.46ZM263.66,204.11c-.29,0-.53.06-.67.2-1.44,3.47,2.68,5.27,4.14,2.51,1.09-.48,2.5-2.01,2.21-4.29-.57-.15-.54-.93-.73-1.48-1.55.5-4.66.88-4.95,3.06Z"/>
      <path class="cls-4" d="M236.41,202.24c.38,1.59-.54,1.98-.73,3.05-1.66.81-6.21,3.24-6.1-.75.85-1.43,1.28-3.24,3.94-3.01.39-.68,2.25-.21,2.89.72ZM232.58,203.58c-.99-.36-1.31,1.28-1.78,1.92,2.35.57,2.93-1.02,3.26-2.99-.97-.08-1.13.58-1.48,1.07Z"/>
      <path class="cls-2" d="M267.65,202.77c.61.12.42,0,1.02.11-.38.09-.14.75-.65.7.22-.64-.48-.3-.37-.82Z"/>
      <path class="cls-4" d="M308.42,205.4c-.25-.06.06-.21-.02-.51-.21.82-2.04.69-2.35.1-.84.1-1.02.8-1.48,1.24.3,1.52-.41,3.22-1.37,4.07,1.5-.38-1.16,2.34-.4,2.71-.24.37-.42-.1-.83.2-.02.3.21.34.19.66-.53-.17-.4.28-.67.36-.44-.39-.81.03-1.5.24-.35-.45-.96-.59-1.55-.77-.41-1.1-1.64-2.94-.8-3.32-.46-1.32-.02-3.25.67-4.56-.55-1.1.3-1.58.06-2.85-.5.2-1.61.78-2.02.08-.12.25-.17.96-.34.02-.19.03-.13.31-.15.51-.48-.08-.88-.21-1.35-.28.17-.53-.29-.4-.37-.66-.07-.28.12-.32.33-.35-1.06-1.33-.74-4.77,2.71-4.14.18-.05.1-.34.32-.35.68.49.92-.39,1.03.46.04-.66.93-.55,1.67-.57.21-1.13,1.41-2.02.55-3.21.78-.68.66-2.2,1.59-2.75-.1-3.18,1-4.32,1.42-7.1.16,0,.34-.02.51-.02.05-.3-.15-.32-.35-.32.7-1.13,1.59-2.1,2.42-3.12,2.63-.77,4.58.19,5.12,1.63.06.17-.33.15-.32.18.89,4.09-3.03,9.96-4.58,13.26.15.88.66,1.38,1.08,1.97,1.08-.78,2.26,1.1,3.26,1.54-.07.77.1,1.28.4,1.66-.37,1.87-1.48,3.06-2.89,3.98ZM307.23,182.32c-1.62,2.93-3.75,5.4-3.51,10.04-.27.03-.12.43-.5.35-.23,3.54-1.05,5.54-2.75,7.67-1.18-.49-3.74-1.1-4.91-.47.16.11-.47.86-.28,1.52.75.16,2.04,1.08,2.71.22,4.58.65-1.67,8.14,1.6,11.33,1.88.06,2.13-1.73,2.75-2.97.05-.08.48-.14.51-.18.31-.78.65-2.04.76-2.56-.02.07-.38-.07-.35-.32.08-1.01.79-2.42,1.23-3.24,2.42.62,5.29.15,5.49-2.08.06-.69-.42-1.19-.57-1.99-.91.33-1.29-.74-2.21-.08-.71-.98-1.47-1.55-1.94-2.43.58-.33.15-.59-.04-1,1.67-4.43,4.92-8.11,4.91-13.29-.69.57-1.24-1.14-1.86-.09-.18-.71-.54-.23-1.03-.46Z"/>
      <path class="cls-1" d="M212.37,190.85c2.94-.03,7.49.77,9.07,3.32.55,1.96-.52,2.55-.51,4.71-1.14.94-1.87,2.26-3.26,2.98.4,1.88-.49,3.97.53,5.35.29.39.83.53,1.22.95.8.85,1.36,2.11,2.13,2.93.55.6,1.31,1.58,1.95,2.61.59.93,1.58,2.23,2.48,3.07.05,1.18-.35,2.07-1.07,2.89-1.19.19-1.41-.69-2.56-.55-.73-.61-.92-1.81-1.93-2.11,0-.52-.23-.79-.38-1.15-.82-.81-1.54-1.7-1.8-3.1-.99-1.33-1.51-3.13-2.04-4.95-.82-.85-1.68-1.67-2.29-2.75-.79-.03-.98-.17-1.69.07-.52.22-.06,1.35-.97,1.21-.26,4.12-.46,7.87-3.17,10.03-.01-.33-.03-.66-.04-1-.26.42-.72.63-.98,1.04-.59-.05-.45-.62-.37-.99-.67-.19-.39.51-.82.53-.59-.06-.8-.53-1.05-.96.78-.31,1.07-1.07,1.64-1.58-.12-5.03.51-11.73-.43-16.07-1.24.31-2.19.9-3.67.99-.82-2.62,1.14-4.85,3.72-4.35.14-.1.39-1.02.49-.19,1.52-1.35,3.78-2.02,5.8-2.93ZM214.94,200.98c.68-1.05,1.93-1.58,2.6-2.63.32-2.59-1.54-4.72-3.71-4.37-1,.16-1.69,1.5-2.64,1.45-.37,1.07-1.14,1.75-1.76,2.59.03.94.07,1.9.1,2.84.63.43,1.07,1.06,1.9,1.27.98-.37,2.32-1.11,3.51-1.15Z"/>
      <path class="cls-4" d="M255.17,202.79c.27.47.94.5.89,1.3.92.18,1.06,1.19,1.74,1.61.21,5.59-2.3,9.15-7.72,10.21-3.15,1.55-6.57-.56-7.22-3.38-2.42-.75-3.35,1.61-4.86.88-.72,1.49-3.14,1.17-3.97,2.18,0-.12-.01-.23-.01-.34-4.39,1.23-7.9-1.42-9.14-5.48-.29-6.54,3.15-10.7,8.65-12.44,2.76-.47,4.21.47,5.95,1.09.31.81.19,2.12.77,2.65-.25.7-.24.87.06,1.67-.27.08-.13.54-.66.36.27,1.28-.96,2.42-1.91,3.09.5.22.89.56.37,1-.36.09-.33-.22-.35-.49-.33,1.09-1.81,1.14-2.46,1.94.59.65,1.96-.79,2.36-.1,1.14-.95,2.92-1.32,3.44-2.82,2.33-.13,3.79-1.37,5.72-.24.34,1.02.58,2.61.66,4,.53-.03,1.08-.44,1.51-.06.46-.93,1.74-1.09,1.6-2.58-1.16-1.35-2.91-1.38-4.96-1.97-.95-1.76-3.5-2.73-2.74-5.75-.05-.18-.34-.1-.35-.32.84-3.32,4.24-4.63,7.4-5.34,0,.11,0,.22.01.33,3.01-1.45,5.53.82,7.68,2.19,1.08,3.33-.21,5.66-2.46,6.81ZM253.93,201.17c2.04-.13,2.46-1.74,3.09-3.14-.55-.17-.27-1.22-.57-1.66-.39.02-.49.31-1.01.21-1.49-3.01-7.1-1.68-9.62-.09-1.61,1.01-2.74,2.41-2.04,4.45.98.52,1.27,1.77,1.96,2.6,2.08,1.19,6.43.81,6.75,4.4-.81.43-.82,2.33-1.96,1.93-.26.46-.44,1-.96,1.22-.03-.21-.07-.39-.35-.33.25.83.1.18-.5.36-1.83.52-2.99-2.17-2.71-4.91-5.1-.72-5.95,4.99-11.5,3.84-.39-.56-.85-1.06-1.08-1.8,2.93-1.76,6.42-3.77,5.42-8.6-1.78-1.29-5.78-1.46-8.27.01-.19.9-1.03,1.21-1.8,1.58-.41.91-.95,1.7-1.93,2.43-.28,1.31-.86,2.34-1.22,3.57.68,4.09,2.17,7.4,6.51,7.1,1.65-1.45,4.02-.86,6.01-1.76,1.65-.75,2.99-2.13,4.8-2.39.19.96.75,1.51,1.26,2.12-.12,3.48,4.66,2.17,6.99,2.05,1.83-.68,2.97-2.01,4.45-3.03.22-1.03.55-1.98,1.25-2.57-.48-.6-.25-1.22.1-1.85-.45-.95-1.06-1.76-1.62-2.61-2.85-.72-6.64-.4-8.02-2.68-1.72-2.93,3.33-7.89,6.42-4.46-.23,1.21.36,2.22.14,4.01ZM248.69,201.06c.97,1.1,2.67,1.42,4.78,1.31-.44-1.38-1.16-3.2-.69-5-2.44-1.01-4.28.91-4.09,3.69ZM251.27,206.81c.3.57-.2.9.22,1.33"/>
      <path class="cls-4" d="M283.09,195.91c-.03.4-.24.64-.12,1.18,1.78-1.09,3.89-2.15,6.02-1.77.67.12,1.08.84,1.55.94.09.03.21-.3.16-.34,1.67.98,1.67,2.86,2.53,4.58-.74.18-1.03.78-1.64,1.08-.92.12-1.78-.37-2.18.42-.26-.26-1.88-.64-2.01.09-3.01-1.28-3.16,2.66-4.24,4.21.23.15.07,1.34-.25,2.35-.72,2.24-1.63,4.38-4.05,4.69-.39.19-.24.85-.81.87-.73-.16-2.31-.43-3.23-.53-.24-.79-.95-1.07-.76-2.32.47,0,.46-.44.47-.85,1.02-.26.75-1.35.94-2.06.12-.48.78-.77.97-1.21.22-.52.07-1.33.27-1.85.57-1.49,2.03-2.66,2.03-4.28-.85-.37-1.8-.62-2.74-.89-.02-.68-.49-.86-.56-1.48.92-1.52,2.25-2.69,3.4-4,.58.47,1.49-.65,2.85-.46.75.56.45.9,1.04.8.28-.05-.75,1.04.37.82ZM280.74,196.01c-1.34-.54-1.62,1.19-2.82,1.29.09,1-.78,1.12-.6,2.2.65.11,1.3.23,2.04.25,1.62,4.17-2.83,8.22-2.06,12.66,4.41-1.34,2.55-6.55,5.74-8.96.7-3.35,4.3-3.61,7.82-3.02.49-.85-.33-1.07-.57-1.65.09-.47.51-.6.46-1.19-1.07-1.19-2.43-.64-3.75-1.01-1.67.8-3.14,1.76-4.8,2.55-.03-.31-.56-.08-.52-.48.16-1.39-.48-2.17-.11-2.85-.28.02-.53-.02-.67-.14-.04.13,0,.33-.16.34Z"/>
      <path class="cls-2" d="M251.49,208.14c-.42-.43.08-.76-.22-1.33"/>
      <path class="cls-4" d="M219.22,202.81c1.08,2.67,2.38,5.09,3.49,7.73.8.24,1.65,2.1,2.66,3.24,1.41,1.6,3,3.11,1.9,5.79-.9.1-.85,1.05-1.64,1.24,0-.11,0-.22,0-.33-.17.6-.88.7-1.49.9-2.62-.99-4.48-3.4-5.6-5.46.11,0,.22-.02.33-.02-1.88-1.58-2.37-4.64-3.79-6.71-.03-1.24-.65-1.85-1.92-1.76,0-.16-.01-.33-.02-.49-.97.57-.38,2.56-1.23,3.23,0,3.61.27,5.64-1.43,6.93-1.04.78-3.32.55-4.68,1.2-1.17-.85-3.02-1.46-2.97-2.88.04-1.41,1.94-1.73,2.42-3.12-.4-.65-.36-1.79.06-2.86-.19-2.34-.15-6.96-.03-9.72-.19.08-.29-.47-.35-.48-.71-.21-2.41.5-2.68.45-.9-.16-.49-1.01-1.39-.95-.66-3.07.88-3.98,1.99-5.45.45.03.84.02.66-.53.82.04,3.01-.15,3.16-1.14,2.77-1.14,6.02-2.56,9.38-1.9,3.28.64,6.82,2.51,6.67,7.09-.75,2.39-1.44,4.81-3.49,6.02ZM206.58,193.78c-.1-.83-.36.09-.49.19-2.58-.5-4.55,1.73-3.72,4.35,1.48-.09,2.43-.67,3.67-.99.94,4.34.31,11.03.43,16.07-.56.51-.86,1.27-1.64,1.58.25.43.46.89,1.05.96.44-.02.15-.72.82-.53-.08.37-.22.93.37.99.26-.41.72-.63.98-1.04.01.34.02.67.04,1,2.72-2.16,2.92-5.9,3.17-10.03.91.14.44-.99.97-1.21.71-.23.9-.1,1.69-.07.61,1.08,1.47,1.89,2.29,2.75.53,1.81,1.05,3.62,2.04,4.95.26,1.4.98,2.29,1.8,3.1.15.37.38.64.38,1.15,1.01.31,1.2,1.5,1.93,2.11,1.15-.14,1.37.73,2.56.55.72-.83,1.12-1.71,1.07-2.89-.9-.84-1.89-2.14-2.48-3.07-.64-1.03-1.4-2-1.95-2.61-.77-.82-1.33-2.08-2.13-2.93-.39-.41-.93-.56-1.22-.95-1.02-1.38-.14-3.47-.53-5.35,1.38-.72,2.11-2.05,3.26-2.98-.02-2.16,1.06-2.75.51-4.71-1.58-2.54-6.12-3.35-9.07-3.32-2.02.9-4.28,1.58-5.8,2.93Z"/>
      <path class="cls-4" d="M269.26,196c3.71.24,6.01,2.01,6.45,5.76-.47-.19-.44.56.01.34-.36.26-.41.81-.45,1.36-1.31.83-1.29,2.32-2.07,3.44-.92,1.32-2.97,2.17-3.75,3.67-.51-.09-.48.31-1,.21-1.32,1.63-4.43,1.8-6.85,1.96-.08-.31-.78.02-.53-.65-.16.02-.13.21-.16.34-.62.03-.39-.85-1.2-.61.12-.48-.26-.42-.2-.84-3.38-3.38.63-8.9,2.11-11.31.36.05.45-.14.67-.2.2-.03.13-.31.16-.5,1.98-.77,2.54-2.84,5.64-2.59.22-.96,1.18.44,1.17-.38ZM266.82,198.62c-2.33-.29-3.65,3.1-5.58,4.25-.08,1.65-2.3,2.89-1,4.74-.21.03-.4.06-.33.35.7.53.22,2.31.62,3.16.47.37,1.54.08,1.72.77,1.17-.38,2.32-.78,3.85-.84.7-1.03,2.59-1.43,3.79-2.5.11-.1.05-.56.15-.68.08-.08.42.07.5-.02.27-.26.94-1.11,1.45-1.74,1.62-1.91,2.22-5.48.54-8.41-.91.09-1.13-.18-1.85.07.17-.53-.28-.39-.36-.65-.22.02-.45.02-.67.03-.35,1.03-2.51.1-2.82,1.46Z"/>
      <path class="cls-4" d="M268.6,201.05c.19.56.16,1.33.73,1.48.29,2.27-1.11,3.8-2.21,4.29-1.45,2.76-5.57.96-4.14-2.51.14-.14.37-.2.67-.2.29-2.18,3.39-2.57,4.95-3.06ZM264.07,206.27c1.69,1.1,2.15-1.24,3.31-1.65-.02-.51-.03-1-.06-1.51-1.65.54-2.71,1.6-3.26,3.16Z"/>
      <path class="cls-1" d="M253.79,197.15c-3.09-3.43-8.14,1.54-6.42,4.46,1.38,2.28,5.18,1.96,8.02,2.68.56.84,1.17,1.65,1.62,2.61-.35.63-.59,1.25-.1,1.85-.7.59-1.03,1.54-1.25,2.57-1.48,1.02-2.61,2.35-4.45,3.03-2.33.12-7.11,1.43-6.99-2.05-.51-.61-1.07-1.16-1.26-2.12-1.81.25-3.15,1.64-4.8,2.39-1.99.9-4.36.31-6.01,1.76-4.34.3-5.83-3.01-6.51-7.1.36-1.23.94-2.27,1.22-3.57.98-.73,1.52-1.52,1.93-2.43.77-.37,1.61-.68,1.8-1.58,2.48-1.47,6.48-1.3,8.27-.01,1,4.83-2.49,6.85-5.42,8.6.23.74.68,1.24,1.08,1.8,5.55,1.15,6.41-4.55,11.5-3.84-.28,2.74.88,5.44,2.71,4.91.6-.17.76.47.5-.36.28-.07.32.12.35.33.52-.22.7-.76.96-1.22,1.13.41,1.15-1.5,1.96-1.93-.32-3.59-4.67-3.21-6.75-4.4-.69-.82-.98-2.08-1.96-2.6-.71-2.03.42-3.43,2.04-4.45,2.52-1.58,8.13-2.92,9.62.09.52.1.61-.19,1.01-.21.3.43.02,1.49.57,1.66-.63,1.4-1.05,3.02-3.09,3.14.21-1.8-.37-2.81-.14-4.01ZM233.52,201.53c-2.66-.23-3.09,1.59-3.94,3.01-.11,4,4.44,1.56,6.1.75.19-1.07,1.11-1.46.73-3.05-.64-.93-2.5-1.39-2.89-.72Z"/>
    </g>
  </g>
</svg>