<?xml version="1.0" encoding="UTF-8"?>
<svg id="Layer_1" xmlns="http://www.w3.org/2000/svg" viewBox="0 0 400 400">
  <defs>
    <style>
      .cls-1 {
        fill: #131a42;
      }

      .cls-2 {
        fill: #231f20;
        font-family: AmericanTypewriter-CondensedBold, 'American Typewriter';
        font-size: 42.62px;
        font-weight: 700;
        letter-spacing: -.02em;
      }

      .cls-3, .cls-4 {
        fill-rule: evenodd;
      }

      .cls-5, .cls-6 {
        fill: #fff;
      }

      .cls-4 {
        fill: #f9ed32;
      }

      .cls-6 {
        stroke: #131a42;
        stroke-miterlimit: 1;
        stroke-width: 1.44px;
      }
    </style>
  </defs>
  <g>
    <path class="cls-6" d="M339.31,251.29c-2.35-.12-4.65-.15-6.93-.37-2.59-.26-5.16-.83-7.76-1.02-3.27-.24-6.56-.21-9.84-.35-2.74-.12-5.48-.43-8.23-.46-4.01-.04-8.01.1-12.02.17-.22,0-.49.11-.65.02-3.33-1.94-6.86-.08-10.27-.56-.55-.08-1.09-.2-1.64-.23-1.34-.07-2.68-.14-4.02-.13-3.68.03-7.36.1-11.04.15-5.17.07-10.35.13-15.52.18-3.16.03-6.32-.02-9.48.07-4.73.13-9.46.3-14.18.54-2.22.11-4.42.49-6.64.66-5.95.46-11.91.93-17.87,1.27-2.51.14-5.04-.08-7.55-.05-.97.01-1.94.28-3.05.46.11-.51.17-.8.3-1.41-.72.56-1.21.94-1.7,1.32-1.01.24-2.19.4-3.49-.31-1.92-1.06-4.09-.59-6.34.54.31-.56.47-.85.61-1.1-2.22-.24-4.45-.57-6.69-.7-1.87-.11-3.75.04-5.63,0-2.45-.06-4.89-.26-7.34-.29-1.85-.03-3.71.11-5.57.17-.27,0-.57.06-.81-.02-.68-.25-1.34-.57-2.02-.83-.07-.03-.22.24-.35.27-.54.16-1.08.33-1.63.39-.56.07-1.13.01-1.65.01-.72-.24-1.44-.67-2.18-.69-3.34-.1-6.68-.1-10.02-.11-2,0-4,.02-6,.07-1.26.03-1.57-.57-1.52-1.75.13-2.86.77,5.06.84,2.2.07-2.66-.61-1.54-.52-3.34.18-3.59.51-7.18.78-10.77.02-.22.11-.46.06-.67-1.12-4.45-.52-8.95-.51-13.44,0-3.54-.45-7.09-.46-10.63-.01-4.98.26-9.97.28-14.95.02-3.37-.28-6.74-.27-10.11,0-4.43.19-8.87.27-13.3.03-1.55-.09-3.11.02-4.65.06-.91.44-1.8.56-2.26-.13-1.81-.33-3.26-.3-4.71.04-2.08.33-4.16.33-6.24,0-.84-.62-1.65-.76-2.51-.1-.64.11-1.33.23-2.41.76-.04,1.76-.1,2.77-.15,3.33-.16,6.66-.35,9.99-.45.89-.03,1.78.34,2.67.33,1.34-.01,2.69-.21,4.03-.29.63-.04,1.27.01,1.91.01,2.84.02,5.68.07,8.52.03,2.73-.04,5.45-.11,8.17-.3,1.2-.08,2.38-.51,3.57-.72.98-.18,1.97-.4,2.96-.37,1.49.04,2.97.28,4.63.45.11-.13.46-.51.8-.9.12.07.23.15.35.22-.09.26-.19.51-.3.83.36.14.74.28,1.13.44.16-.42.3-.76.4-1.02.99.24,1.9.47,2.89.71-.15-.42-.25-.69-.41-1.12,2.18,1.81,4.25.81,6.36.4.85-.17,1.81.12,2.69.31,1.06.22,1.83-.02,2.4-.97.1-.17.55-.29.74-.21,1.05.46,2.29-.47,3.34.48.14.13,1.06-.6,1.89-1.1-.27.67-.41,1.04-.56,1.4.08.06.15.12.23.18.45-.38.89-.75,1.6-1.35.15.1.62.4,1.12.72,1.32-1.22,2.8-1.25,4.66-.76,1.68.44,3.56.11,5.35.15.67.02,1.33.12,1.97-.01,1.18-.1,2.36-.23,3.55-.28,2.74-.12,5.48-.25,8.22-.28,4.83-.05,9.66-.06,14.5,0,3.82.05,7.64.26,11.47.35,6.32.15,12.63.21,18.95.39,5.61.16,11.22.41,16.83.66,3.58.16,7.15.5,10.74.56,3.66.06,7.33-.16,10.99-.2,1.26-.01,2.52.15,3.78.24,3.71.26,7.42.77,11.12.73,3.46-.04,6.74.72,10.09,1.27,2.69.45,5.49.24,8.24.4,1.86.11,2.32.62,2.33,2.52.03,5,.13,10.01-.04,15.01-.07,2.17-.92,4.31-1.07,6.49-.17,2.37.14,4.78.08,7.16-.07,2.82-.32,5.64-.47,8.46-.15,2.95-.22,5.91-.42,8.85-.08,1.24-.4,2.47-.62,3.71-.03.16-.14.36-.08.47,1.16,2.07-.56,3.99-.3,5.94.32,2.44-.54,4.85.1,7.3.31,1.21.08,2.58-.04,3.87-.22,2.38-.6,4.74-.82,7.11-.25,2.77-.46,5.54-.6,8.32-.2,4.05-.41,8.11-.47,12.16-.05,3.44.23-4.15-.04-.99-.2,2.35-3.67,5.73-3.67,4.71Z"/>
    <path class="cls-1" d="M184.61,197.42c1.05.86,1.98,1.64,2.93,2.38.29.22.75.27.96.54,1.13,1.46,2.51,2.69,2.7,4.81.15,1.65,1.13,3.22,1.4,4.87.26,1.59.08,3.26.08,4.89,0,1.25-.09,2.52,0,3.76.27,3.88-.3,4.46-4.17,4-.74-.09-1.47-.29-2.37-.47-.14-1.49-.28-2.99-.43-4.51-.09.23-.19.5-.4,1.05-.14-.54-.32-.84-.25-1.05.68-1.93.53-3.81.05-5.77-.14-.59.53-1.38.84-2.11-.33.17-.74.38-1.18.62-.25-1.18-.49-2.35-.73-3.51.12-.06.25-.12.37-.18.34.6.69,1.2,1.11,1.94.25-1.24-.15-2.28-.89-3.02-2.42-2.45-5.45-3.72-8.87-3.69-3.15.03-6.3.35-9.44.64-.43.04-1,.6-1.18,1.05-.64,1.64-1.38,3.31-1.65,5.03-.32,2.03-.13,4.13-.28,6.19-.15,2.02-.45,4.03-.69,6.03-1.71.28-3.43.62-5.17.83-.85.1-1.48-.42-1.05-1.3,1.6-3.27.68-6.69.68-10.05,0-2.34-.12-4.68-.19-7.02-.1-3.37-.26-6.73-.29-10.1-.02-1.49.25-2.98.3-4.47.12-3.58.46-7.18.22-10.74-.28-4.07-.1-8.04.67-12.02.17-.86.37-1.39,1.36-1.46,1.71-.11,3.41-.37,5.12-.49,2.47-.16,4.94-.2,7.41-.39.74-.06,1.44-.53,2.18-.62.64-.07,1.3.15,2.04.25,1.09-.18,2.34-.39,3.59-.6.04.09.09.19.13.28-.2.17-.4.35-.95.84.89-.15,1.4-.24,1.64-.28.56.3.97.52,1.38.74.08-.13.15-.26.23-.39-.28-.13-.57-.26-.85-.4.07-.18.13-.36.2-.55,2.24.81,4.49,1.6,6.72,2.43.19.07.4.4.39.6-.02,1.73.36,2.17,1.81,2.21.3.88.59,1.68.84,2.49.43,1.42,1.11,2.84,1.2,4.29.15,2.46-.08,4.94-.15,7.41-.08,2.53-1.33,4.5-3.03,6.25-.71.73-1.29,1.59-2.07,2.23-1.29,1.05-2.61,2.11-4.07,2.88-1.49.78-1.18,1.93-.62,2.79.57.88,1.72,1.17,2.42.86ZM174.05,193.43c.73-.72,1.23-1.62,2.29-2.09,1.1-.49,2.1-1.25,3.03-2.02.61-.5.97-1.29,1.53-1.86,2.57-2.64,3.89-5.95,3.73-9.6-.07-1.46-.16-2.93-.33-4.38-.2-1.83-2.16-4.14-3.79-4.42-1.33-.22-2.68-.33-4.03-.43-1.55-.11-3.11-.3-4.64-.19-2.42.17-4.99-.31-7.11,1.46-.14.12-.6-.15-1.04-.28-.19.67-.47,1.31-.55,1.98-.16,1.33-.22,2.68-.29,4.02-.09,1.68-.22,3.36-.19,5.03.06,3.6.21,7.2.35,10.8.04,1.12-.24,2.42,1.38,2.78.14.03.34.26.33.38-.1,1,.38.82,1.09.69,2.6-.5,5.21-.91,7.82-1.35-.07-.76-.1-1.1-.13-1.44.08-.02.17-.04.25-.06.11.34.22.69.31.99Z"/>
    <path class="cls-1" d="M286.42,183.25c-.17.37-.34.75-.51,1.12l-.32-.05c.06-.78.13-1.56.2-2.46.81.5,1.22.48,1.32-.48.21-2.04.3-4.13.84-6.09.54-1.94,1.54-3.77,2.44-5.59.26-.52.87-.89,1.38-1.24.24-.16.62-.1.94-.14-.05.39-.1.78-.15,1.17.09.05.18.11.27.16.25-.56.49-1.12.81-1.86.57-.24,1.42-.61,2.46-1.06.28.24.81.68,1.16.98.56-.54,1.07-1.05,1.58-1.55.13.1.27.21.4.31-.03.39-.06.79-.1,1.33.5-.31.9-.55,1.12-.69.91.34,1.67.63,2.37.89.27-.58.46-1,.65-1.41.25.25.51.5.8.78.84-.37,1.76-.48,2.83-.08.62.23,1.44-.08,2.16-.14,0-.14,0-.29,0-.43,1.48.67,3.01,1.26,4.41,2.07.59.34,1.04,1.08,1.36,1.73,1.34,2.7,2.82,5.41,2.86,8.5.05,3.89-.11,7.78-.25,11.67-.27,7.21-1.66,14.26-3.12,21.3-.43,2.06-.76,4.14-1.27,6.17-.61,2.47-2.69,3.86-4.39,5.49-.26.25-.88.25-1.31.2-6.11-.62-12.23-1.17-18.32-1.97-2.86-.38-3.52-1.59-3.63-4.58-.09-2.48-.41-4.95-.56-7.43-.07-1.11.13-2.23.03-3.34-.13-1.36-.44-2.7-.68-4.05-.03-.14-.17-.31-.13-.41,1.19-2.77.05-5.67.49-8.47.26-1.65.54-3.29.82-4.93.01-.09.15-.18.13-.24-.42-1.69.33-3.08,1.08-4.49.09-.16.09-.37.12-.56-.09-.05-.19-.09-.28-.14ZM309.98,209.44c-.12-.12-.23-.24-.35-.36.3-.66.74-1.3.87-2,.4-2.07.78-4.16.97-6.26.31-3.42.51-6.84.66-10.27.08-1.92,0-3.85-.05-5.78-.04-1.34-.24-2.68-.27-4.03-.04-1.77.08-3.55,0-5.32-.07-1.5-.96-2.23-2.44-2.27-1.63-.04-3.36.23-4.86-.23-2.91-.9-5.72-1.19-8.64-.22-1.75.58-2.78,1.93-3.58,3.39-2,3.67-.69,7.79-1.34,11.66-.4,2.39-.52,4.83-.83,7.23-.27,2.07-.74,4.11-.91,6.19-.18,2.16-.11,4.35-.16,6.52-.04,1.59-.35,3.21-.08,4.74.17.93.28,1.96,1.36,2.89,1.87,1.61,3.91,1.94,6.1,2.36,1.7.33,3.41.92,5.04.06,1.16-.62,2.05-2,3.24-2.28,1.96-.47,2.07-2.34,3.2-3.38.33-.3.36-1,.4-1.53.03-.44-.14-.89-.18-1.09h1.85Z"/>
    <path class="cls-1" d="M197.49,173.3c-.15.56-.3,1.12-.44,1.67-.74-1.84-.71-1.81.89-3.72.31-.37.3-1.02.23-1.6-.26.49-.53.98-.82,1.52-.29-1.42-.64-2.62-.73-3.84-.04-.54.41-1.13.57-1.52,1.47,0,2.82.02,4.18,0,1.81-.03,1.24,1.46,1.33,2.3.22,1.98.17,3.99.23,5.98.01.41-.01.81-.02,1.22-.07,3.18-.16,6.37-.21,9.55-.05,3.78-.06,7.57-.11,11.35,0,.64-.17,1.27-.45,1.89-.09-1.26-.18-2.52-.26-3.78-.18,0-.36,0-.54,0,.06.88.12,1.76.17,2.64.02.33-.04.66.02.98.09.47-.59,1.31.61,1.34.09,0,.21.7.23,1.08.2,2.88.35,5.77.59,8.64.15,1.81,3.01,4.36,4.87,4.56,1.29.14,2.56.44,3.85.59.64.07,1.29-.08,1.94-.05,1.87.06,3.29-1.03,4.81-1.85,2.56-1.37,3.4-3.85,4.08-6.43,1.12-4.28,1.14-8.66,1.28-13.04.12-3.99.44-7.97.65-11.95.02-.33-.06-.67-.34-1.01-.12.31-.25.62-.37.94-.07,0-.15,0-.22,0v-3.36c.12,0,.25,0,.37,0v1.54c.15,0,.3,0,.44,0v-11.85h4.62c0,2.06.01,4,0,5.94-.01,1.16-.07,2.32-.12,3.49-.23,5.64-.46,11.29-.71,16.93-.1,2.41-.16,4.83-.39,7.24-.33,3.44-.68,6.89-1.27,10.29-.31,1.78-.87,3.65-1.85,5.14-1.06,1.61-2.66,2.91-4.14,4.2-2.05,1.79-4.71,1.93-7.21,1.96-2.87.03-5.74-.45-8.61-.64-.99-.06-1.99.14-2.99.14-1.85,0-2.41-.84-2.96-2.59-.89-2.81-.55-5.77-1.4-8.58-.4-1.33-.02-2.9-.05-4.35-.04-1.83-.2-3.65-.18-5.48.02-1.7.22-3.39.29-5.08.03-.65-.14-1.31-.15-1.96-.03-3.86-.02-7.71-.07-11.57-.02-1.43-.24-2.87-.18-4.3.05-1.01.43-1.99.64-2.99.1-.48.14-.97.2-1.46-.1-.02-.2-.05-.29-.07Z"/>
    <path class="cls-1" d="M234.9,221.88c.14-6.03.34-12.17.4-18.31.02-1.76-.15-3.55-.24-5.3-.22-4.16.23-8.37.55-12.56.14-1.84.8-3.65.89-5.5.1-2.11-.25-4.24-.27-6.37-.01-1.43.23-2.87.32-4.31.05-.76,0-1.52,0-2.48,4.75-1.39,9.74-.83,14.73.05,2.9.51,5.52,1.7,7.12,4.28,1.85,2.98,3.05,6.4,2.18,9.82-.56,2.19-1.63,4.51-3.43,6.22-.18.17-.41.36-.48.58-.73,2.44-2.85,3.35-4.79,4.49-.25.15-.58.52-.54.74.04.27.44.71.65.69,3.1-.33,4.57,1.93,6.01,3.97.96,1.35,1.72,2.99,2.04,4.6.4,2.04.15,4.2.39,6.29.26,2.18-.53,4.06-1.24,6-1.2,3.27-3.01,5.96-6.58,7.02-2.3.68-4.6,1.41-6.93,2-.85.21-1.8.15-2.69.05-1.86-.21-3.81.26-5.56-.8-.72-.44-1.53-.72-2.53-1.18ZM256.9,209.25c-.32-.45-.77-.79-.79-1.15-.13-2.42-1.01-4.6-2.08-6.72-1.26-2.52-3.43-3.95-6-4.78-1.52-.49-3.15-.62-4.72-.97-1.14-.26-1.76.17-1.81,1.3-.23,4.67-.4,9.33-.63,14-.07,1.42-.25,2.84-.36,4.26-.09,1.22-.21,2.44-.22,3.66-.02,1.47,1.19,2.45,2.66,2.26,2.33-.29,4.75-.86,6.7-1.84,2.21-1.11,4.58-2.75,5.35-5.66.41-1.55,1.28-2.97,1.9-4.37ZM255.62,179.73c-.1-.04-.21-.08-.31-.13-.08-.81-.09-1.63-.25-2.42-.36-1.77-.73-3.59-2.28-4.77-3.17-2.4-6.51-3.82-10.67-2.58-1.59.47-1.56,1.08-1.4,2.36.35,2.91.68,5.83.74,8.75.06,3.09-.21,6.18-.34,9.27-.03.59-.22,1.21-.09,1.77.13.57.55,1.51.84,1.52.74,0,1.65-.24,2.18-.73,1.04-.94,2.02-1.68,3.53-1.4.42.08.99-.04,1.35-.27,1.58-1.02,2.77-2.39,3.59-3.72.4-.66,1.18-1.13,1.44-1.81.4-1.07.43-2.27.73-3.39.22-.84.62-1.63.94-2.45Z"/>
    <path class="cls-1" d="M270.23,168.98c-.13-.14-.38-.41-.78-.84.73-.08,1.25-.14,1.79-.2-.01-.26-.02-.52-.04-.79.09-.05.18-.09.27-.14.28.34.56.69.81,1,.83-.25,1.71-.51,2.62-.78.37,4.28.81,8.32,1.04,12.37.23,3.92.37,7.86.31,11.79-.08,5.51-.42,11.02-.58,16.53-.05,1.77.2,3.54.15,5.31-.04,1.52-.34,3.03-.46,4.55-.12,1.47-.18,2.94-.24,4.41-.11,2.38-.33,2.57-2.6,2.16-.95-.17-1.89-.33-3.05-.54-.15-3.83-.32-7.63-.43-11.43-.1-3.73-.17-7.45-.17-11.18,0-3.21.07-6.42.15-9.63.06-2.52.24-5.04.25-7.57.01-2.64-.18-5.29-.15-7.94.02-1.78.24-3.56.44-5.33.07-.56.4-1.08.66-1.77Z"/>
    <path class="cls-5" d="M323,227.04c-.47-.69-.87-1.26-1.27-1.84.25-.95.52-1.98.82-3.13.29.12.55.24,1.04.45-2.26,1.32.42,3.07-.6,4.51Z"/>
    <path class="cls-1" d="M145.03,235.27l-.32,3.65s54.33.86,57.48.64c3.16-.21,29.69-1.29,37.27-1.07,7.58.21,32.22.43,42.32.43s30.95.86,34.11.86h10.74l4.74-.64.32-5.36s-6.95.21-9.16.21-41.69-1.29-47.69-1.5c-6-.21-48.33,1.07-52.12.86-3.79-.21-22.11.21-26.53.21h-51.8l.63,1.72Z"/>
  </g>
  <g>
    <g>
      <polygon class="cls-4" points="72.26 153.2 19.9 229.85 22.51 233.15 122.39 229.69 86.51 163.78 75.84 151.3 72.26 153.2"/>
      <path class="cls-3" d="M104.32,190.56c3.5.51,2.58,5.9,6.25,6.23.1,3.85,2.07,5.65,4.51,6.91-.28,4.06,2.01,5.28,4.46,6.32.28,1-.4,1.13-1.12,1.24.83.82,2.79,1.35,1.33,2.9.46-.34.95-.66,1.75-.68.27,1.19-.03,1.86-1.1,1.84,1.19,1.5,4.61,4.74,2.67,5.81.6,1.01,1.92,1.22,3.61,1.01.33,4.85,3,7.12,2.99,12.34-.57-.34-2.25-1.28-1.74.67-1.07-1.11-4.13-.02-4.26-2.16-1.32,2.34-4.07-1.55-7.06,1.54-1.8.3-1.34-1.87-1.94-2.88-1.7.6.84,1.46.15,2.97-.46-.39-2-2.42-1.78.09-8.28-.58-20.59-.63-27.92.18-.03-.58-.06-1.18-.09-1.77-2.68,1.58-5.81,1.89-8.31.41-1.61,2.32-12.64,2.38-16.02.8-6.51,3.75-21.02.23-24.17,4.16-5.11-2.87-13.92.37-20.31-1.96-.6-1.86.4-2.28,1.04-3.03-2.39-.09-.99-.46-1.38-4.09,2.77-.9,3.9-3.26,3.83-6.73,2.75.43,1.2-3.05,4.03-2.58-.52-1.8-.47-1.12-.15-2.96,4.03.45,1.59-4.98,5.1-5.01-.41-.58-1.39-.54-1.28-1.72,2.39.65,1.12-2,3.51-1.36-.06-.99-.1-1.98-.15-2.97.51-.49,1.31-.7,2.34-.7,3.47-8.95,9.98-15.13,13.68-23.86,2.05-.03,2.7-1.34,2.2-3.68,1.74.07,1.75-1.43,3.51-1.36,1.44-7.95,9.01-10.36,10.39-18.36,6.51-1.46,4.95-10.23,11.29-11.85-.41-.58-1.39-.55-1.28-1.72,1.95-.12,2.9-1.15,5.32-.85,2.66,1.88-.7,3.06,3.11,2.81-2.46,2.68.76,10.53,3.43,9.34.88.15.16,4.49,3.17,4.01-.33,1.83.73,2.14.78,3.53,7.63,6.37,9.09,19.56,16.74,25.91.26,1-.41,1.15-1.13,1.25ZM69.67,163.14c-1.88.83-.54-1.9-2.44-1.07-.9.31-.41,1.9-2.29,1.31-.73,3.12-1.47,6.22-4.4,7.35-.7,3.28,1.67,3.15,2.61,4.62-4.12,3.02-4.14,12.7-11.42,9.48.67,1.77,2.84,1.86,3.17,4.01-1.57.8-2.72,1.12-3.5,1.36,2.53,2.06-.67,1.55-1.64,3.05-2.53,3.94-3.91,10.12-8.35,11.12-.16,2.87-1.2,4.96-3.89,5.53,1.5,3.08-.87.43-1.7,1.88,3.82.72-2.44,2.6.21,4.15-4.22.89-3.18,6.55-6.11,8.63-.38-1.03.55-3.52-.77-3.54,0,.93.19,2.05-1.1,1.84-.64,1.95,1.94.35,1.31,2.3-2.46.61-2.01,3.85-3.29,5.53,6.18-1.37,16.23-1.48,23.13-1.15.11-.46-.04-1.17.53-1.22,23.01,2.1,41.35-1.48,69.45-2.24-1.29-6.23-6.8-9.23-8.96-12.64-.71-5.27-5.69-5.8-5.91-11.6-2.66.4-2.29-2.11-1.97-3.47-2.36.06-4.51-3.77-2.6-4.62-1.85,1-1.99-.35-3.62-1.01-4.29-12.95-14.51-22.09-19.43-32.33.03.6-1.01.8-1.18.05.72-.09,1.39-.24,1.13-1.24-1.65.57-1.58-.76-3-.44-2.87,4-4.15,9.46-8.94,11.73,1.25,2.03-.43,2.88-1.57,4.24-.72-2.35-.14-4.62.87-6.59.98-.03.4,1.63,1.27,1.72.13-2.55,2.17-7.39,3.91-4.94-.06-.82.22-1.32.5-1.81Z"/>
    </g>
    <text class="cls-2" transform="translate(52.78 219.45)"><tspan x="0" y="0">64</tspan></text>
  </g>
</svg>