<?xml version="1.0" encoding="UTF-8"?>
<svg id="Layer_1" xmlns="http://www.w3.org/2000/svg" viewBox="0 0 400 400">
  <defs>
    <style>
      .cls-1, .cls-2, .cls-3, .cls-4, .cls-5, .cls-6, .cls-7, .cls-8 {
        fill-rule: evenodd;
      }

      .cls-1, .cls-9 {
        fill: #fff;
      }

      .cls-2 {
        fill: #328dbc;
      }

      .cls-9 {
        font-family: AmericanTypewriter-CondensedBold, 'American Typewriter';
        font-size: 42.62px;
        font-weight: 700;
        letter-spacing: -.02em;
      }

      .cls-3 {
        fill: #6ac7f1;
      }

      .cls-4 {
        fill: #662d91;
      }

      .cls-6 {
        fill: #cfcfcf;
      }

      .cls-7 {
        fill: #3e4041;
      }

      .cls-8 {
        fill: #378cc0;
      }
    </style>
  </defs>
  <g>
    <path class="cls-5" d="M119.91,149.69c3.33-.12,6.48-.23,9.63-.35,1.16-.04,2.32-.12,3.48-.16,9.34-.3,18.68-.61,28.02-.89,5.7-.18,11.41-.25,17.11-.46,18.21-.7,36.43-.05,54.64-.18,4.49-.03,8.98-.04,13.45.21,1.88.11,3.76.36,5.65.31,2.42-.06,4.84-.2,7.27-.23,1.53-.01,3.06.21,4.58.17,2.42-.06,4.85-.25,7.27-.39.31-.02.63-.11.94-.11,7.7-.2,15.39-.9,23.1-.66,6.33.19,12.66.5,18.99.57,9.5.11,19,.06,28.51.08,1,0,1.97-.07,2.8.73.34.32.96.34,1.43.5.32,4.97.63,9.87,0,14.75-.67,5.15-.73,10.29-.42,15.47.2,3.15,0,6.33-.01,9.5,0,.32-.01.64-.1.94-.72,2.53-.57,5.12-.6,7.7-.2,16.53-.4,33.05-.6,49.58-.11,8.92-.21,17.84-.31,26.75-.02,1.53.02,3.06-.06,4.59-.05.82-.35,1.63-.42,2.45-.1,1.2-.13,2.42-.14,3.63-.02,1.68,0,1.68-1.01,2.78-.54-.05-1.05-.15-1.55-.14-1.43,0-2.85.01-4.28.11-3.5.23-6.96-.1-10.43-.36-.64-.04-1.26-.07-1.9-.07-3.33-.03-6.65-.09-9.98-.05-2.99.03-5.99.31-8.98.24-2.94-.08-5.88-.46-8.83-.72-3.04-.26-6.08-.71-9.13-.76-18.12-.29-36.22-.49-54.34-.73-15.52-.2-31.04-.41-46.57-.63-12.04-.17-24.08-.46-36.12-.53-5.59-.03-11.18.33-16.77.51-.68.02-1.37.04-2.05.04-3.16,0-6.32,0-9.48.03-.72,0-1.43.17-2.26.27-.11-1.15-.28-2.23-.32-3.32-.21-5.49-.51-10.97-.57-16.46-.04-4.01.28-8.02.34-12.03.03-2.11-.13-4.22-.25-6.33-.16-2.89-.39-5.78-.53-8.68-.05-.82-.19-1.68.4-2.44.15-.19.06-.61.01-.92-.26-1.65.13-3.35-.53-4.99-.23-.55.18-1.33.18-2-.01-3.96-.06-7.92-.11-11.88-.1-6.6-.15-13.19-.34-19.79-.11-4.17-.53-8.32-.64-12.49-.13-4.96-.13-9.92-.07-14.88.04-3.48.26-6.97.46-10.44.07-1.22-.19-2.54.82-3.58.18-.18.17-.63.09-.92-.33-1.19.27-2.2.53-3.38ZM122.64,152.81c-.09.54-.18,1.18-.21,1.17-.98-.07-.66.69-.66,1.1,0,1.69.12,3.37.13,5.06.13,8.82.26,17.63.35,26.45.08,7.97.09,15.95.15,23.92,0,.6.08,1.2.14,1.91.71-.24,1.22-.38,1.7-.57,6.49-2.5,13.24-3.9,20.11-4.72,3.45-.41,6.94-.57,10.42-.6,4.42-.04,8.86.28,13.28.25,7.42-.06,14.74.92,22.06,1.74,7.24.81,14.36,2.34,21.26,4.7,5.18,1.77,10.45,3.32,15.47,5.54,3.87,1.71,7.83,3.15,12.04,3.75,1.34.2,2.74.57,4.05.39,2.92-.4,5.81-1.02,8.68-1.7,7.73-1.85,15.43-3.86,23.18-5.65,6.36-1.47,12.77-2.73,19.17-4.01,4.6-.92,9.24-1.62,13.95-1.53,1.37.03,2.74.15,4.1.29,2.62.28,5.22.61,7.83.93,2.34.29,3.83,2.06,5.63,3.29.19.13.33.43.39.67.44,1.65.5,4.12-1.87,5.13-.39.17-.77.37-1.13.58-.96.56-1.75,1.23-2.34,2.26-.52.92-1.46,1.62-2.27,2.35-.64.58-1.38,1.05-2.08,1.57,1.69.48,3.23.12,4.76-.12,3.33-.52,6.65-1.12,9.99-1.63,2.02-.31,4.07-.5,6.11-.8,1.76-.26,3.51-.6,5.39-.91.03-.52.09-1.03.1-1.55.07-2.58.13-5.17.21-7.76.09-2.94.25-5.87.28-8.81.02-2.42-.18-4.85-.15-7.27.03-2.8.21-5.59.32-8.39.03-.84-.02-1.68.03-2.51.14-2.26.33-4.52.47-6.78.03-.31.06-.82-.1-.9-1.1-.59-.7-1.58-.64-2.4.31-4.68.77-9.36,1.03-14.05.19-3.47.2-6.95.2-10.42,0-.85-.31-1.7-.49-2.55-3.17-.14-6.11-.39-9.06-.37-10.76.1-21.53-.22-32.29.52-5.62.38-11.29-.06-16.93-.12-1.21-.02-2.43-.05-3.65,0-4.05.15-8.11.36-12.17.51-2.01.08-4.01.08-6.02.12-4.8.1-9.6.23-14.4.31-1.69.03-3.38-.06-5.07-.14-5.9-.26-11.8-.64-17.7-.79-4.53-.11-9.08.09-13.62.12-21.21.15-42.43.3-63.66.41-5.17.02-10.33-.13-15.47.61-3.65.52-7.32.91-11.03,1.36ZM158.12,251.48c.6-.22.95-.3,1.27-.47,1.1-.58,2.16-1.28,3.3-1.78,1.83-.79,3.77-1.35,5.58-2.18,4.17-1.89,8.49-3.18,13.04-3.65,2.09-.22,4.21-.62,6.3-.12,2.97.7,5.94,1.44,8.88,2.24,1.55.42,2.91,1.18,4.06,2.36.54.55,1.28.91,1.93,1.34.7.47,1.32.3,2.05-.08,1.2-.62,2.46-1.23,3.77-1.54,2.45-.59,4.95-1,7.44-1.42.83-.14,1.74.07,2.51-.2,3.49-1.22,7.15-1.32,10.74-1.7,3.09-.33,6.22-.26,9.33-.39,1.47-.06,2.95-.18,4.41-.32.32-.03.66-.25.92-.46,1.39-1.12,2.88-1.91,4.76-1.74.46.04.97.06,1.41-.08,1.66-.52,2.85.55,4.18,1.16.04.01,0,.19-.01.4-.79.23-1.57.25-2.41.02-1.51-.4-2.63-.22-3.72.48,1.22.44,2.65-.28,3.99.89-.91.28-1.57.64-2.25.67-3,.15-6.01.23-9.02.29-2.31.05-4.63-.01-6.94.06-4.23.13-8.41.62-12.46,1.94-.59.19-1.24.23-1.86.29-1.47.12-2.94.17-4.4.33-3.15.34-6.03,1.52-8.74,3.08-1.22.7-2.33,1.62-3.51,2.4-2.22,1.46-4.53,2.64-7.2,3.12-2.85.5-5.67,1.23-8.28,2.55-.49.25-.98.5-1.52.79,1.04,1.31,1.83,2.55,3.28,3.18,3.88,1.68,7.92,2.54,12.13,2.52,2.48,0,4.96-.22,7.43-.38,1.1-.07,2.23-.14,3.3-.37,2.46-.54,4.89-1.27,7.37-1.76,8.15-1.61,15.24-5.73,22.52-9.4.28-.14.54-.33.8-.51,3.69-2.52,7.66-4.17,12.23-4.16,1.48,0,2.84-.41,3.19-2.2.11-.54.44-.97,1.2-.77.08.46.17.94.27,1.55,2.94-1.73,5.7-3.4,8.04-5.61,2.96-2.79,5.81-5.68,8.69-8.55.51-.5.95-1.07,1.87-1.05-.14.26-.19.41-.29.52-2.44,2.56-4.92,5.08-7.34,7.66-2.58,2.75-5.56,5.01-8.7,7.07-.39.26-.71.62-1.05.94-1.31,1.25-2.81,2.02-4.68,1.94-.89-.04-1.79,0-2.69,0-1.78,0-3.42.51-4.96,1.41-2.5,1.47-5.02,2.89-7.54,4.34-.49.28-.96.58-1.68,1.02,2.67-.03,4.94-.39,7.05-1.5.7-.37,1.45-.61,2.18-.93,2.74-1.21,5.66-2.03,8.16-3.8.09-.07.28,0,.47,0,.09.67-.4.88-.77,1.08-1.39.75-2.78,1.5-4.22,2.16-1.72.79-3.51,1.45-5.22,2.26-1.97.93-3.94,1.74-6.17,1.81-.75.02-1.57.08-2.06.81,1.62,0,3.21.15,4.76-.04,1.66-.21,3.28-.73,4.9-1.16.45-.12.85-.4,1.27-.61.79-.41,1.56-.86,2.37-1.24,3.12-1.45,6.08-3.17,8.7-5.42,1.92-1.64,3.82-3.33,5.7-5.02,2.24-2.01,4.45-4.04,6.65-6.08,2.82-2.6,5.61-5.22,8.48-7.9.17.89-.39,1.34-.85,1.8-2.29,2.26-4.68,4.43-6.89,6.77-1.97,2.08-4.02,4.03-6.25,5.83-1.57,1.25-3.18,2.49-4.57,3.92-2.35,2.43-5.2,4.11-8.06,5.81-.75.45-1.47,1.01-2.48.86-.26-.04-.59.29-.89.46,3-.07,5.71-1.26,8.59-1.58,0-1.04-.01-1.06.83-1.52,2.39-1.28,4.56-2.86,6.5-4.74,2.8-2.72,5.6-5.44,8.41-8.16,2.96-2.87,5.96-5.69,8.24-9.17.12-.18.31-.32.48-.47-.18.89-.49,1.66-.98,2.32-.91,1.23-1.83,2.46-2.88,3.56-2.26,2.37-4.64,4.62-6.9,6.99-3.57,3.74-6.99,7.62-11.52,10.33.43-.04.82-.16,1.16-.34,2.51-1.32,5.03-2.63,7.52-3.98.64-.35,1.26-.76,1.81-1.22,6.22-5.19,10.86-11.79,15.96-17.97.27-.32.46-.71.7-1.05.15-.21.33-.41.5-.61-.07,1.64-1.16,2.68-2.02,3.83-.86,1.14-1.73,2.26-2.59,3.41-.89,1.18-1.73,2.4-2.64,3.56-.91,1.17-1.84,2.32-2.82,3.42-.95,1.06-1.97,2.06-2.97,3.08-1,1.03-2.14,1.92-3.26,3.28,1.13-.17,1.93-.21,2.67-.42.59-.16,1.19-.44,1.67-.81,1.41-1.11,2.77-2.27,4.1-3.47,1.65-1.48,3.39-2.89,4.84-4.54,3.36-3.79,6.46-7.8,9.07-12.17.06-.11.25-.14.65-.35-.41,1.98-1.61,3.25-2.52,4.67-.96,1.5-2.01,2.97-3.07,4.42-1.04,1.4-2.08,2.81-3.23,4.11-1.19,1.34-2.48,2.58-3.78,3.82-1.21,1.16-2.71,2-3.79,3.32,1.3-.19,2.53-.46,3.73-.82.58-.17,1.22-.41,1.62-.82,4.14-4.29,8.39-8.5,12.3-12.99,3.18-3.66,6.68-6.89,10.57-9.73.2-.15.47-.21.7-.31.06.09.12.18.18.26-.73.67-1.46,1.34-2.19,2.01-1.9,1.76-3.92,3.39-5.65,5.29-3.84,4.22-7.52,8.57-11.26,12.87-.18.2-.3.44-.63.93.52-.2.71-.24.89-.34,1.3-.79,2.61-1.58,3.9-2.4.7-.45,1.5-.84,2.05-1.45,2.03-2.21,4.03-4.47,5.96-6.78,3.39-4.08,7.19-7.72,11.55-10.75.45-.32.98-.52,1.47-.78.07.1.15.2.22.3-3.09,2.43-6.12,4.92-8.78,7.82-2.51,2.74-7.06,8.27-7.48,9.32.36-.14.65-.21.92-.36,1.71-.97,3.3-2.09,4.58-3.61.89-1.05,1.79-2.08,2.68-3.13,2.45-2.89,5.28-5.35,8.48-7.31,1.72-1.06,2.8-2.48,3.6-4.2.34-.72.79-1.24,1.48-1.56.62-.29,1.27-.51,1.88-.81.32-.15.78-.37.85-.64.28-1.22,1.04-2.53-.59-3.82-4.01.18-8.3.13-12.53.62-4.59.53-9.14,1.49-13.69,2.4-4.65.93-9.28,2-13.72,3.72-3.29,1.28-5.9,3.45-8.15,6.1-1.34,1.58-2.39,3.35-3.13,5.29-.64,1.69-2.05,2.19-3.71,2.35.16-.47.4-.89.76-1.07,1.12-.57,1.62-1.55,2.13-2.63,2.49-5.43,6.54-9.25,12.14-11.36,4.5-1.7,9.22-2.62,13.9-3.65,6.76-1.48,13.57-2.56,20.51-2.62,1.21-.01,2.33-.1,3.32-.94-1.99-.77-4.04-.95-6.14-.96-1.53,0-3.05-.24-4.57-.23-2.63.01-5.28-.04-7.89.25-3.5.39-6.98,1.06-10.46,1.66-3.48.6-6.96,1.19-10.41,1.93-2.78.6-5.49,1.52-8.26,2.14-4.06.91-8.17,1.61-12.23,2.53-3.33.76-6.61,1.82-9.96,2.52-5.87,1.24-11.79,2.31-17.68,3.47-3.93.77-7.84,1.68-11.89,1.39-.92-.06-1.91.28-2.65-.61-.13-.15-.51-.11-.77-.1-1.05.03-2.1.1-3.16.14-1.53.05-3.09.31-4.58.11-3.97-.55-7.9-1.32-11.65-2.8-1.66-.65-3.39-1.21-4.65-2.61-.14-.16-.45-.17-.78-.28-.19,1.41-.72,2.64-.09,3.95.39.79.18,1.52-.42,1.7-.52.16-1.1-.29-1.35-1.05-.14-.43-.24-.88-.36-1.31-1.67-.2-3.18-.04-4.65.41-3.64,1.12-7.11,2.59-10.5,4.34-9.08,4.7-16.47,11.35-22.82,19.26-.36.44-.8.81-.98.98-.89-.08-1.54-.32-2.03-.14-1.91.71-3.63,1.84-4.8,3.51-2.38,3.43-4.47,7.05-5.61,11.12-.68,2.43-1.29,4.89-1.89,7.35-.47,1.89-.58,3.81-.28,5.72,1.7.16,1.78.15,1.96-.78.91-4.77,3.17-8.94,5.83-12.89.96-1.42,2.2-2.74,3.55-3.79,1.84-1.44,4.01-2.23,6.33-1.04,2.85,1.47,5.91,2.53,8.54,4.45.06.04.2,0,.39,0,.05-.17.14-.35.14-.54-.01-1.85.06-3.71-.12-5.54-.15-1.45-.54-2.9-.99-4.3-.36-1.12-.88-1.29-2.05-.96-.91.26-1.74.21-2.84-.42ZM144.6,267.03c.57.16.9.28,1.25.34,4.33.86,8.66,1.75,13.02,2.53,2.75.49,5.5.98,8.28,1.18,5.68.42,11.36.77,17.05.91,4.64.12,9.27.37,13.91.61,6.38.34,12.76.48,19.14.69.68.02,1.37-.01,2.06-.07,1.99-.16,3.98-.46,5.98-.49,5.8-.09,11.61-.05,17.42-.11,2-.02,4.03-.02,6-.31,3.61-.53,7.21-.84,10.85-.84.69,0,1.38,0,2.06-.05.52-.05,1.01-.19,1.74-.33-1.62-.73-2.94-1.4-4.31-1.94-.66-.26-1.44-.47-2.14-.4-1.51.14-3.03.38-4.5.75-1.46.37-2.88.49-4.37.19-.77-.15-1.01-.6-.9-1.22.09-.49.35-1,.68-1.38.8-.94,1.8-1.69,3.02-1.91,1.19-.21,1.92-.82,2.61-1.79,1.38-1.94,3.38-2.52,5.43-1.83.8.26,1.13.72.99,1.53-.05.26-.13.51-.18.77-.17,1.28.49,1.85,1.65,1.34,1.15-.51,2.31-1.04,3.37-1.71,1.82-1.15,3.73-1.92,5.87-2.19,2.04-.25,4.07-.59,6.11-.82,4.04-.45,8.09-.7,12.15-.2.69.09,1.41.01,2.32.01-2.88-3.47-5.6-6.74-8.32-10.01-.74.24-1.35.41-1.94.63-2.26.86-4.6,1.26-6.99,1.02-1.85-.19-3.36.41-4.91,1.32-1.63.95-3.35,1.84-5.14,2.38-5.13,1.57-10.28,3.1-15.59,4.06-4.6.83-9.17,1.33-13.84.88-1.74-.16-3.47-.15-5.11.62-.57.27-1.18.45-1.77.68-7.96,3.1-16.19,5.05-24.7,5.82-2.1.19-4.2.19-6.26-.54-2.63-.94-5.3-1.74-7.94-2.67-1.52-.53-2.81-1.45-3.88-2.64-1.1-1.21-1.06-2.58.23-3.58.78-.6,1.71-1.07,2.64-1.36,1.6-.51,3.34-.64,4.88-1.28,2.48-1.03,4.85-2.32,7.24-3.56.46-.24.81-.73,1.31-1.2-1.14-1.1-1.99-2.24-3.13-2.95-2.91-1.81-6.24-2.74-9.6-2.87-3.61-.14-7.26.33-10.88.67-3.56.34-6.82,1.73-10.02,3.26-1.21.58-2.43,1.15-3.45,1.64.64,1.23,1.51,2.27,1.74,3.43.52,2.63.7,5.34.31,8.03-.16,1.07-.45,2.12-.69,3.25-1.01.44-2.02.71-3.08-.26-2.15-1.97-4.64-3.45-7.27-4.73-.92-.44-1.74-.53-2.72-.38-4.11.64-5.7,3.89-7.67,7.05ZM282.72,272.49c-1.88-.09-3.55-.2-5.2-.25-2.17-.06-4.34,0-6.49-.14-1.77-.12-3.47-.29-5.29,0-3.89.62-7.83,1.05-11.77,1.24-4.69.22-9.38.4-14.06.78-2.05.16-4.11.2-6.15.44-3.78.46-7.57.59-11.37.33-3.31-.23-6.63-.33-9.96-.45-1.9-.07-3.82.1-5.69-.14-4.15-.51-8.3-.62-12.47-.51-6.98.18-13.93-.24-20.88-.75-4.68-.35-9.34-.93-13.99-1.5-3.24-.4-6.47-.89-9.69-1.45-2.01-.34-3.98-.88-6.17-1.38-.53,1.23-1.07,2.5-1.68,3.93,1.77.16,3.3.28,4.81.44,4.87.51,9.75,1.04,14.62,1.56,2.2.23,4.42.37,6.6.72,6.1.99,12.27,1.26,18.4,1.8,2.73.24,5.48.3,8.21.53,3.52.3,7.02.79,10.54.99,4.11.23,8.23.29,12.34.35,10.51.14,21.01.25,31.51.33,3.64.03,7.29.03,10.93-.14,4.21-.19,8.38-.9,12.62-.8,4.27.09,8.54-.06,12.8-.46,4.73-.43,9.46-.77,14.19-1.08,2.95-.19,5.9-.25,8.85-.38.32-.01.64-.06.95-.11,5.1-.8,10.2-1.63,15.3-2.4,3.08-.46,6.18-.76,9.23-1.31,1.89-.34,3.73-1.01,5.59-1.54.44-.13.87-.29,1.22-.41v-9.28c-9.4,2.19-18.56,4.78-28.27,5.87.77,1.46,1.42,2.65,2.03,3.86.25.51.49,1.06.58,1.61.11.78-.25,1.03-1.04.95-.73-.08-1.54-.36-2.16-.13-.87.32-1.39.05-2.01-.41-1.4-1.03-2.8-2.07-4.26-3.03-.45-.3-1.1-.56-1.59-.47-2.48.47-4.94,1.06-7.39,1.61-.77.18-1.53.4-2.3.55-1.54.31-3.08.6-4.74.92.18,2.15-1.24,2.79-2.86,3.25-.09.03-.19.1-.29.12-1.36.22-2.76.41-4.03-.26-.6-.32-1.31-.9-1.45-1.5-.22-.91.75-1.26,1.43-1.65.09-.05.17-.11.48-.3ZM137.43,265.42c.59-1.62,1.38-3.31,1.8-5.08.5-2.1,1.43-3.9,2.59-5.71,2.14-3.36,5.02-5.66,8.8-6.83.78-.24,1.26-.65,1.65-1.33,1.04-1.79,2.35-3.35,3.84-4.8,2.36-2.28,4.92-4.29,7.55-6.24,3.23-2.4,6.56-4.6,10.12-6.46.44-.23.85-.54,1.6-1.01-.72-.03-1.06-.08-1.41-.06-3.16.13-6.32.26-9.48.4-1.69.08-3.39.06-5.06.27-4.45.55-8.89,1.16-13.32,1.84-6.77,1.04-13.53,2.22-19.96,4.71-1.16.45-2.32.92-3.48,1.38,0,.72-.01,1.25,0,1.77.11,4.32.42,8.65.26,12.97-.11,3.15.26,6.2.68,9.28.05.34.17.68.2.77,4.62,1.4,9.05,2.75,13.6,4.13ZM341.02,272.55c-1.32.27-2.5.5-3.68.75-1.7.37-3.37.87-5.08,1.13-6.31.96-12.62,1.85-18.94,2.76-1.83.26-3.64.61-5.48.72-4.58.28-9.17.44-13.75.66-2.17.11-4.33.22-6.48.37-2.68.18-5.36.43-8.04.6-2.26.14-4.54.15-6.8.34-2.67.21-5.33.7-8.01.81-4.8.22-9.6.37-14.41.32-5.64-.05-11.28-.35-16.91-.51-4.49-.13-8.97-.25-13.45-.32-4.8-.07-9.61-.05-14.41-.08-.37,0-.74-.01-1.11-.05-2.88-.29-5.76-.65-8.65-.87-5.99-.45-12-.74-18-1.26-5.51-.47-11-1.16-16.5-1.77-2.31-.25-4.61-.56-6.91-.81-1.78-.19-3.57-.29-5.35-.48-2.51-.26-5.01-.56-7.64-.85-.28,1.13-.47,2.1-.78,3.04-.17.52-.47,1.27-.86,1.37-.94.25-1.97.27-2.95.21-.34-.02-.78-.51-.95-.89-.47-1.07-.65-2.22-.48-3.4.09-.66.08-1.33.13-2.25-3.79.31-7.24-1.1-10.91-1.2-.32,2.06.14,3.85.49,5.61q-1.23,1.02-1.39,2.31c1.79.95,3.36,1.42,5.1,1.48,2.95.12,5.9.26,8.85.3,3.43.05,6.86.06,10.29-.03,2.9-.08,5.79-.46,8.68-.49,10.45-.11,20.91-.12,31.36-.18.49,0,.96-.01,1.08.77-.54.03-1.05.07-1.55.07-8.71.03-17.42.03-26.14.1-2.96.03-5.92.2-8.89.3,2.69.16,5.39.19,8.07.16,7.86-.09,15.73-.29,23.59-.31,10.3-.03,20.59-.06,30.87.55,3.27.19,6.55,0,9.81.13,2.6.1,5.26-.41,7.81.56.18.07.42.01.62.02,6.6.12,13.2.24,19.79.35,1.53.03,3.05.07,4.58.07,3.96,0,7.92-.1,11.88-.01,4.15.09,8.32.37,12.48.55,2.21.1,4.43.18,6.65.24,9.38.25,18.78.48,28.17.72.47.01.95-.06,1.41-.13.98-.15,1.94-.41,2.92-.49,1.42-.12,2.85-.15,4.28-.15,4.32-.02,8.63,0,12.96-.02.45,0,.93-.13,1.34-.34.51-.25.95-.64,1.29-.87.43-3.21.85-6.3-.02-9.59ZM341.74,244.92c-.87.07-1.6.1-2.32.19-.89.11-1.77.35-2.66.41-6.11.35-12.21.78-18.33.95-3.73.11-7.48-.17-11.22-.29-1.95-.06-3.9-.17-5.85-.24-.51-.02-1.01,0-1.87,0,1.48,1.23,2.6,2.39,4.1,3.08.35.16.78.44.92.76.61,1.44,1.1,2.93,1.71,4.38.22.52.52,1.17.96,1.38,1.04.49,1.2,1.37,1.39,2.31.31,1.44.55,2.91.98,4.31.46,1.51,1.31,2.84,2.18,3.99,1.17-.26,2.18-.57,3.21-.68,3.78-.41,7.48-1.18,11.15-2.16,3.46-.92,6.97-1.62,10.42-2.54,1.5-.4,2.91-1.1,4.3-1.63.3-4.81.59-9.39.9-14.22ZM135.18,211.69s.02.07.04.11c2.89-.19,5.78-.51,8.66-.54,7.81-.09,15.61-.11,23.41.54,6.48.55,12.85,1.6,19.22,2.81,5.5,1.05,10.87,2.57,16.15,4.4,4.08,1.41,8.1,3.01,12.18,4.41,2.38.82,4.84,1.45,7.27,2.12.39.11.84.04,1.25.04,3.81,0,7.58-.4,11.33-1.04,1.13-.19,2.24-.35,3.37-.53-4.15-.7-7.97-2.21-11.79-3.74-1.08-.43-2.18-.77-3.27-1.18-2.37-.88-4.7-1.88-7.1-2.64-5.24-1.66-10.67-2.47-16.07-3.46-4.56-.83-9.13-1.65-13.71-2.37-2.29-.36-4.61-.47-6.92-.7-3.57-.36-7.13-.84-10.7-1.04-3.79-.21-7.6-.23-11.4-.21-6.83.02-13.59.72-20.2,2.47-.59.15-1.16.37-1.73.55ZM304.45,238.38c2.85.15,5.43.29,8.01.43,1.94.1,3.88.25,5.83.27,1.16.01,2.32-.3,3.47-.25,5.76.25,11.48-.42,17.22-.71,1.04-.05,2.07-.25,3.05-.38.6-3.17.71-10.69.15-12.14-.43.04-.9.03-1.35.12-3.25.64-6.5,1.34-9.76,1.95-5.39,1.01-10.78,2.05-16.31,1.79-.92-.04-1.62.34-2.32.83-3.12,2.17-5.38,5.15-7.98,8.09ZM122.66,234.28c.91-.27,1.63-.41,2.3-.68,4.24-1.69,8.64-2.78,13.09-3.58,6.32-1.14,12.69-2,19.05-2.88,2.34-.33,4.72-.38,7.09-.58,3.42-.28,6.83-.53,10.27-.19,2.05.2,4.09.21,5.99-.86.92-.51,1.99-.75,3-1.12-.8-.42-1.56-.61-2.32-.68-2.63-.25-5.26-.43-7.88-.7-6.76-.69-13.49-1.56-20.32-1.31-5.24.2-10.42.78-15.5,1.97-4.2.98-8.3,2.38-12.44,3.62-.6.18-1.18.47-1.71.8-.27.17-.58.54-.59.82-.06,1.73-.03,3.45-.03,5.36ZM191.75,220.58c1-1.65,1.28-1.68,2.84-.4.44.36.93.72,1.46.91,3.56,1.27,7.14,2.53,10.88,3.25,1.18.23,2.35.56,3.55.73,1.45.21,2.93.28,4.39.41.02-.12.05-.25.08-.38-1.7-.67-3.39-1.41-5.12-1.99-3.1-1.05-6.25-1.92-9.33-3.02-8.14-2.91-16.57-4.47-25.11-5.55-2.56-.32-5.13-.55-7.7-.86-4.13-.5-8.26-.99-12.44-1.08-8.79-.17-17.47.88-26.12,2.32-2.16.36-4.29.96-6.45,1.46v2.98c.59-.15,1.04-.25,1.5-.37,1.57-.44,3.12-1.04,4.72-1.31,4.84-.81,9.71-1.43,14.62-1.38,6.44.06,12.87.18,19.31.41,2.68.1,5.35.5,8.01.82,3.35.41,6.69.85,10.02,1.35,3.59.53,7.16,1.13,10.89,1.72ZM305.2,267.02c-.23-.36-.36-.58-.5-.79-1.42-2.11-3.78-2.54-5.96-3.2-2.11-.64-4.28-1.01-6.48-1.15-2.09-.14-4.18-.3-6.54-.47.47.48.79.74,1.03,1.06.59.8,1.22,1.59,1.68,2.46.48.94.22,1.36-.82,1.51-1.16.16-2.32.22-3.41-.37-1.55-.84-3.21-1.29-4.93-1.61-1.24-.23-2.46-.56-3.7-.82-4.13-.87-8.05-.41-11.73,1.77-.85.5-1.83.85-2.78,1.07-1.95.45-3.04-.57-2.83-2.52.05-.4.1-.8.15-1.19-2.32-.49-3-.18-3.8,1.81-.31.78-.76,1.23-1.57,1.34-.52.07-1.04.16-1.56.25-1.35.25-2.46.83-3.09,2.42.67.07,1.24.23,1.76.15.77-.13,1.5-.46,2.27-.66,1.01-.28,2.02-.6,3.06-.75,1.62-.23,3.15.31,4.56,1.04,2.81,1.47,5.9,2.13,8.96,2.3,4.78.27,9.6,0,14.39-.03.49,0,.96.17,1.37.25.24,1.4.31,2.58-.62,3.62,1.78.01,3.52-.98,4.04-2.31.32-.84.89-1.23,1.74-1.38,2.44-.41,4.87-.84,7.3-1.29,1.4-.26,2.86-.49,3.82-1.65.4-.47.65-1.22.63-1.83-.02-.7-.77-.94-1.41-1.05-1.06-.18-2.12-.33-3.18-.47-.83-.11-1.68-.18-2.51-.3-.72-.11-1.47-.18-2.14-.42-.57-.2-.92-.2-1.41.23-.87.77-1.11.7-2.05-.15.51-.27,1.09-.51,1.6-.85.62-.44,1.21-.49,1.92-.23.62.23,1.29.4,1.95.42,2.11.04,4.16.43,6.22.76.82.13,1.47.56,1.9,1.29.56.96.5,1.28-.36,2.12-.18.18-.23.48-.52,1.09,1.39-.57,2.43-1,3.56-1.47ZM284.17,249.98c.48.53.83.92,1.19,1.29,2.23,2.25,4.44,4.51,6.69,6.74.82.82,1.69,1.59,2.57,2.34.31.27.71.58,1.08.6,2.05.07,3.92,1.09,5.99,1.07.31,0,.67.28.93.52,1.12,1.05,2.21,2.11,3.3,3.18.86.85.88,1.11.3,2.16-.19.35-.34.72-.52,1.14,2.59,1.32,5.01,2.76,8.04,3.33-1.66-3.05-3.12-5.97-4.79-8.75-1.1-1.81-1.79-3.67-2.01-5.76-.05-.47-.39-.93-.66-1.35-.6-.91-1.28-1.77-1.85-2.7-.52-.85-.9-1.79-1.43-2.64-.24-.37-.63-.73-1.03-.92-2.85-1.28-5.2-3.17-7.05-5.69-.04-.07-.18-.07-.36-.13-.3.27-.64.57-1.01.9.67.62,1.3,1.11,1.81,1.71,1.49,1.77,2.87,3.63,4.77,5.01.37.27.62.72.86,1.13.54.91.98,1.87,1.56,2.75.39.61.85,1.22,1.42,1.64.85.63,1.42,1.39,1.79,2.35.63,1.67,1.27,3.35,1.87,5.03.09.23-.01.53-.03.8-.1.04-.21.07-.32.11-.22-.37-.48-.73-.64-1.13-.57-1.42-1.05-2.87-1.67-4.27-.29-.66-.66-1.45-1.22-1.77-1.4-.78-2.06-2.07-2.87-3.3-.66-1.01-1.3-2.08-2.16-2.9-2.06-1.94-4.25-3.74-6.38-5.62-.41-.37-.78-.46-1.28-.22-2.22,1.08-4.45,2.14-6.89,3.31ZM122.6,226.25c1.95-.71,3.59-1.27,5.2-1.9,5.88-2.29,11.94-3.84,18.24-4.16,5.47-.28,10.95-.64,16.44-.01,1.72.2,3.46.29,5.19.47,3.24.34,6.49.77,9.73,1.04,2.64.21,5.25.54,7.76,1.36,2.15.7,4.1-.14,6.1-.65.02,0,.02-.09.05-.2-.23-.6-.87-.51-1.31-.6-2.07-.39-4.15-.74-6.23-1.03-4.43-.62-8.87-1.24-13.31-1.77-2.88-.34-5.78-.69-8.66-.73-7.12-.11-14.24-.08-21.37-.05-3.75.01-7.47.44-11.12,1.29-1.9.44-3.77.97-5.65,1.46-.6.16-1.07.39-1.05,1.15.02,1.36,0,2.73,0,4.34ZM296.4,243.39c.02.11.04.22.05.34,1.21.25,2.42.43,3.67.46,3.48.11,6.96.2,10.43.35,4.11.17,8.21.17,12.33.11,5.86-.1,11.69-.52,17.53-.83.46-.02.91-.14,1.46-.23.1-1.44.18-2.78.29-4.25-1.46.14-2.7.25-3.94.39-2.47.26-4.92.68-7.39.78-5.17.21-10.33.3-15.5.36-3.58.04-7.2.21-10.75-.17-1.99-.21-3.63.24-5.3.95-1.03.43-1.92,1.16-2.87,1.76ZM136.9,266.76c-4.44-1.26-8.62-2.44-12.93-3.66.13,1.92.25,3.79.38,5.78,3.68,1.26,7.64.7,11.45,1.91.38-1.39.73-2.69,1.1-4.03ZM276.19,261.72c-.03.05-.07.1-.1.15,1.13.38,2.28.72,3.4,1.15,1.57.61,3.11,1.31,4.67,1.93.81.32,1.63.71,2.78.26-.89-1.28-1.74-2.5-2.7-3.87-2.6.12-5.32.25-8.06.38ZM123.39,271.13c-.12,1.96-.33,3.68.52,5.34-.16-1.7-.32-3.39-.52-5.34ZM236.98,259.31c-.19-.33-.34-.59-.55-.94-.5.28-.91.52-1.32.75.03.06.06.13.08.19h1.79Z"/>
    <path class="cls-1" d="M122.64,152.81c3.72-.45,7.39-.84,11.03-1.36,5.14-.75,10.3-.59,15.47-.61,21.23-.1,42.44-.26,63.66-.41,4.54-.03,9.09-.23,13.62-.12,5.91.14,11.8.52,17.7.79,1.68.08,3.38.16,5.07.14,4.8-.08,9.6-.21,14.4-.31,2.01-.04,4.01-.04,6.02-.12,4.06-.15,8.12-.35,12.17-.51,1.22-.05,2.44-.01,3.65,0,5.65.06,11.32.5,16.93.12,10.76-.74,21.53-.42,32.29-.52,2.95-.03,5.9.23,9.06.37.18.84.49,1.7.49,2.55,0,3.47,0,6.96-.2,10.42-.26,4.69-.72,9.36-1.03,14.05-.06.82-.46,1.81.64,2.4.15.08.13.59.1.9-.15,2.26-.33,4.52-.47,6.78-.06.84,0,1.68-.03,2.51-.1,2.8-.28,5.59-.32,8.39-.03,2.42.18,4.85.15,7.27-.03,2.94-.19,5.87-.28,8.81-.08,2.58-.13,5.17-.21,7.76-.01.51-.06,1.02-.1,1.55-1.89.32-3.64.66-5.39.91-2.04.3-4.08.49-6.11.8-3.34.51-6.66,1.11-9.99,1.63-1.53.24-3.06.59-4.76.12.69-.52,1.43-.99,2.08-1.57.81-.73,1.75-1.43,2.27-2.35.59-1.03,1.38-1.7,2.34-2.26.36-.21.74-.41,1.13-.58,2.37-1.01,2.31-3.48,1.87-5.13-.06-.25-.2-.54-.39-.67-1.8-1.23-3.29-3-5.63-3.29-2.61-.33-5.22-.65-7.83-.93-1.37-.15-2.73-.27-4.1-.29-4.71-.1-9.35.6-13.95,1.53-6.4,1.28-12.81,2.54-19.17,4.01-7.75,1.78-15.45,3.8-23.18,5.65-2.87.68-5.76,1.3-8.68,1.7-1.31.18-2.71-.2-4.05-.39-4.22-.61-8.18-2.05-12.04-3.75-5.03-2.22-10.29-3.77-15.47-5.54-6.91-2.37-14.02-3.89-21.26-4.7-7.33-.82-14.65-1.79-22.06-1.74-4.43.03-8.86-.29-13.28-.25-3.48.03-6.97.19-10.42.6-6.87.82-13.62,2.22-20.11,4.72-.49.18-.99.33-1.7.57-.06-.7-.14-1.31-.14-1.91-.06-7.97-.07-15.95-.15-23.92-.09-8.82-.21-17.63-.35-26.45-.02-1.69-.13-3.37-.13-5.06,0-.41-.32-1.17.66-1.1.03,0,.12-.63.21-1.17ZM285.83,165.96c-.04-2.61-.58-5.09-1.47-7.56-.93-2.58-2.68-3.94-5.24-4.47-2.09-.43-3.61.22-4.73,2.02-.7,1.11-1.42,2.2-2.05,3.35-.43.78-.84,1.6-1.04,2.46-1.33,5.52-1.69,11.05.2,16.54.66,1.95,1.19,3.99,2.62,5.53.79.86,1.87,1.61,2.95,1.99.63.22,1.59-.28,2.33-.61,2.26-1,3.94-2.49,4.61-5.03,1.24-4.67,1.82-9.41,1.8-14.23ZM338.77,166.85c0-1.42,0-2.85,0-4.27,0-2.33-.73-4.46-1.83-6.47-.4-.72-.98-1.38-1.59-1.95-1.44-1.33-4.23-1.71-5.41-.66-1.09.97-2.18,2.04-2.94,3.27-1.44,2.33-2.53,4.84-3.19,7.54-.86,3.52-.87,7.09-.89,10.68-.02,2.73.8,5.25,2.19,7.49,1.74,2.83,3.24,3.53,6.68,2.51,3.32-.98,4.97-3.63,5.91-6.7,1.13-3.72,1.13-7.59,1.09-11.44ZM231.84,169.14c-.04.06,0-.06.08-.1.27-.15.55-.3.85-.4,2.46-.85,3.57-2.67,3.63-5.18.08-2.92-.64-5.46-3.13-7.37-1.65-1.27-3.29-2-5.38-1.61-1.4.26-1.79.52-1.9,1.84-.19,2.31-.45,4.62-.44,6.94,0,4.37.18,8.74.27,13.12.03,1.53.07,3.06.05,4.59-.02,1.29.42,2.34,1.41,3.09.7-.17,1.33-.33,2.18-.54,0-.46,0-.97,0-1.47,0-1.1-.21-2.25.02-3.31.3-1.38.2-2.71.05-4.07-.15-1.36-.25-2.74-.37-4.11.1-.02.21-.05.31-.08.29.55.63,1.07.86,1.64.86,2.15,1.68,4.32,2.53,6.48.65,1.66,1.3,3.33,2.03,4.97.14.3.66.63.97.59.55-.06.92-.51.89-1.12-.02-.36-.1-.73-.22-1.07-1.54-4.24-3.09-8.48-4.68-12.82ZM220.98,164.65c.12,0,.24.01.37.02-.24,3.31-.43,6.62-.74,9.93-.14,1.57-.41,3.14-.8,4.67-.21.83-.67,1.68-1.25,2.32-.73.83-1.5.66-2.03-.32-.24-.46-.41-.98-.52-1.49-.95-4.81-1.8-9.65-1.8-14.58,0-3.01.1-6.01.18-9.02.01-.58-.05-1.02-.63-1.3-1.1-.54-1.74-.39-2.1.77-.37,1.2-.62,2.46-.72,3.71-.18,2.37-.21,4.74-.31,7.11-.04,1-.19,1.99-.2,2.98,0,1.1.1,2.21.17,3.31.11,1.63.15,3.27.37,4.89.25,1.85.82,3.6,2.09,5.05,1.19,1.37,4.16,1.98,5.51,1.03,1.79-1.25,3.1-2.96,3.49-5.1.49-2.74.81-5.53,1.04-8.31.21-2.47.23-4.95.29-7.43.05-2.11.03-4.22.03-6.33,0-.67-.09-1.31-.95-1.38-.7-.06-1.03.35-1.09,1.41-.15,2.68-.28,5.37-.43,8.05ZM141.8,182.62c.88.12,1.52.1,2.06.3,2.68.99,5.3.28,6.99-2.11.66-.95,1.25-1.95,1.81-2.97,1.31-2.4,2.17-4.94,2.01-7.71-.17-2.89-.42-5.78-.67-8.67-.05-.56-.26-1.14-.5-1.66-.65-1.42-1.37-2.81-2.11-4.31-.83.51-1.4-.14-2.06-.51-1.86-1.05-3.82-1.47-5.9-.76-.34.12-.6.47-.89.72-.81.71-.36,1.68-.46,2.52-.23,1.83-.4,3.67-.46,5.51-.1,3.01-.11,6.02-.11,9.03,0,2.95.06,5.91.12,8.87.01.61.13,1.23.19,1.75ZM182.42,155.75c-.09.95-.24,1.82-.23,2.69.06,5.7.15,11.4.22,17.1.02,1.74,0,3.48,0,5.22,0,.42,0,.85.08,1.26.13.61.51,1.12,1.18,1.06.69-.06.7-.7.7-1.23.01-2.69,0-5.39,0-8.08,0-1.27-.03-2.53-.06-3.8-.08-2.48-.17-4.96-.23-7.43-.01-.38.06-.76.13-1.35.24.36.35.48.41.62,1.55,3.69,3.12,7.38,4.63,11.09,1.12,2.73,2.29,5.46,3.12,8.28.38,1.26.96,1.98,1.98,2.51.74-.3.57-.86.53-1.38-.07-1.04-.2-2.09-.23-3.13-.06-2.01-.1-4.01-.07-6.02.07-5.49.2-10.97.28-16.45,0-.34-.12-.67-.2-1.07-.38.04-.63.06-.88.09-1.35.19-1.59.53-1.38,1.88.06.36.12.73.12,1.1,0,5.28,0,10.55,0,15.83,0,.31-.06.61-.08.92-.27-.21-.36-.4-.43-.59-2.25-5.8-4.49-11.6-6.74-17.4q-.65-1.68-2.85-1.72ZM310.39,154.31c-.15.03-.3.06-.44.09-.14.44-.37.87-.41,1.33-.15,1.46-.29,2.93-.32,4.4-.08,3.32.08,6.66-.14,9.97-.28,4.17-.5,8.32-.25,12.49.03.48-.16,1.21.61,1.23.73.01.67-.67.72-1.19.01-.1,0-.21,0-.32.15-4.54.31-9.07.44-13.61.04-1.31,0-2.63,0-3.93.11-.01.22-.03.33-.04,1.1,2.5,2.23,4.99,3.27,7.51,1.15,2.78,2.18,5.59,3.33,8.37.43,1.03,1.01,1.99,2.1,3.03.13-.81.26-1.3.28-1.79.15-3.42.25-6.85.4-10.28.17-3.95.41-7.9.55-11.85.06-1.74-.06-3.48-.15-5.21-.01-.3-.28-.58-.46-.93-.86.57-.92,1.3-.93,2.04-.02,1.05,0,2.11-.06,3.17-.26,5.26-.55,10.53-.82,15.79-.01.28-.07.54-.14,1-.24-.32-.37-.43-.42-.56-2.18-6.27-4.34-12.55-6.53-18.82-.23-.66-.64-1.25-.98-1.87ZM133.09,154.58c-.36.49-.63.78-.8,1.11-1.01,1.98-1.8,4.03-2.1,6.26-.21,1.57-.54,3.12-.83,4.67-.88,4.71-1.77,9.42-2.65,14.13-.27,1.48-.19,1.62,1.08,2.35,1.28-.57,1.33-1.78,1.5-2.91.28-1.7.52-3.4.79-5.15,2.08.21,4,.4,6.04.6.8,2.36,1.59,4.73,2.38,7.07,1.66-.37,1.77-.5,1.51-1.74-.18-.88-.41-1.74-.66-2.6-.93-3.18-2-6.33-2.78-9.55-1.07-4.35-1.91-8.74-2.87-13.11-.07-.32-.31-.6-.61-1.13ZM168.98,155.14c-1.57-.77-2.23-.51-2.56.93-.3,1.34-.53,2.69-.77,4.04-.72,3.84-1.43,7.67-2.15,11.5-.05.25-.18.49-.38,1.01-.17-.56-.25-.81-.32-1.05-1.56-5.36-3.1-10.73-4.68-16.09-.15-.53-.49-1-.78-1.57-.77.29-1.39.54-2.06.8.15.8.26,1.52.43,2.23,1.16,4.76,2.29,9.53,3.48,14.28.71,2.86,1.47,5.71,2.28,8.55.22.77.7,1.47,1.25,2.57.47-.83.83-1.27.96-1.77.33-1.27.58-2.57.81-3.86,1.18-6.47,1.88-13.05,4.07-19.31.25-.72.29-1.52.42-2.23ZM299.02,154.79c-.52-.28-.77-.51-1.04-.54-1.98-.24-3.97-.5-5.96-.63-2.05-.13-3,.98-2.82,3.08.02.31-.02.63-.04.95-.16,2.47-.37,4.95-.49,7.42-.29,5.64.21,11.29-.39,16.93-.16,1.6-.06,1.61,1.5,2.27.28.12.55.26.95.44.17-.39.41-.7.43-1.02.09-1.79.2-3.58.18-5.37-.02-2.74-.14-5.49-.21-8.23,0-.25.09-.49.15-.84h5.32c.1-.48.14-.86.26-1.21.27-.73-.06-1.12-.71-1.28-.46-.12-.94-.12-1.4-.17-1.19-.15-2.37-.3-3.77-.48.28-3.33.54-6.51.81-9.84,1.4,0,2.64.18,3.8-.05,1.1-.22,2.11-.86,3.42-1.42ZM239.82,155.79c-.19,4.47-.48,8.95-.54,13.43-.06,4.06.12,8.13.2,12.19,0,.26,0,.53.06.79.1.63,1.63,1.92,2.26,1.87,1.25-.1,2.52-.19,3.75-.4.87-.16,1.71-.48,2.54-.81.21-.09.43-.52.39-.74-.05-.23-.38-.44-.64-.58-.16-.09-.41-.04-.62-.05-1.56-.11-3.12-.21-4.67-.32-.66-3.85-.89-7.62-.58-11.49.39-.03.7-.07,1-.08.89-.02,1.79-.02,2.69-.05.95-.04,1.39-.36,1.49-1.08.12-.89-.62-1.1-1.18-1.21-.91-.18-1.86-.17-2.8-.2-.39-.02-.78.06-1.21.1v-10.01c1.38-.08,2.64-.25,3.9-.21.95.03,1.62-.27,2.15-.99.17-.23.41-.59.34-.76-.1-.22-.49-.43-.75-.43-1.22,0-2.43.11-3.64.09-1.39-.01-2.73.07-4.13.94ZM302.28,154.5c-.12.91-.29,1.84-.35,2.78-.34,5.47-.68,10.94-.95,16.41-.14,2.9-.18,5.79-.2,8.69-.01,1.49.3,1.73,1.78,1.74.27,0,.53,0,.79-.02.7-.01,1.06-.42,1.13-1.08.05-.52.05-1.05.05-1.58,0-3.12-.1-6.23,0-9.33.12-3.74.39-7.47.61-11.2.09-1.53.22-3.04.37-4.56.12-1.23-.1-2.22-1.64-2.42-.42.15-.95.34-1.59.57ZM170.8,182.13c.96.39,1.65.67,2.43.99.23-.76.89-.61,1.59-.46,1.76.38,3.49.37,5.18-.37-.74-1.88-1.17-2.09-2.75-1.71-1.16.29-2.36.47-3.52-.13-.07-3.97-.54-7.83-.42-11.9.85,0,1.53.01,2.2,0,.52-.02,1.06-.05,1.57-.14.55-.1,1.05-.39,1.01-1.02-.04-.68-.62-.76-1.17-.79-.84-.03-1.68-.02-2.53-.07-.7-.05-1.16-.33-1.18-1.16-.05-2.06-.19-4.11-.24-6.16-.02-.86.09-1.73.14-2.5,1.68.05,3.15.11,4.62.14.6.01,1.24-.08,1.31-.83.06-.7-.49-1.06-1.11-1.11-1.67-.15-3.36-.26-5.04-.34-.7-.03-1.21.27-1.31,1.07-.1.78-.34,1.55-.37,2.33-.17,4.16-.34,8.32-.41,12.48-.06,3.89-.02,7.79-.02,11.68ZM203.4,157.52c1.83-.33,3.38-.58,4.9-.89.3-.06.54-.39.81-.59-.29-.26-.54-.59-.88-.76-.26-.14-.61-.08-.93-.12-3.16-.44-6.31-.06-9.45.33-.38.05-.74.25-1.08.37.15,1.09.85.96,1.47,1,.92.04,1.85.11,2.91.17v1.77c0,7.18,0,14.35-.01,21.53,0,.42,0,.85,0,1.27-.03,1,.62,1.53,1.41,1.9.67.32,1.09.05,1.2-.72.05-.31.02-.63.03-.95.02-2.69.06-5.37.05-8.06-.01-2.85-.05-5.7-.13-8.54-.06-2.58-.2-5.15-.3-7.71ZM264.02,156.59c1.14-.12,2.08-.2,3.01-.33.41-.06.83-.16,1.2-.34.2-.1.47-.42.43-.56-.08-.26-.32-.52-.57-.66-.26-.13-.61-.12-.92-.16-2.83-.42-5.66-.41-8.5,0-1.13.17-1.13.12-1.43,1.54,1.44.12,2.88.23,4.45.36-.06,1.32,0,2.43-.18,3.51-.5,3.31-.55,6.61-.22,9.93.14,1.41.33,2.82.32,4.23-.04,2.85-.21,5.69-.31,8.54-.02.42-.13.93.07,1.23.29.45.78.98,1.24,1.04.67.09.69-.63.72-1.16.09-1.21.22-2.42.24-3.63.08-6.02.1-12.03.19-18.04.02-1.79.16-3.57.26-5.52ZM171.9,194.32c.55,1.27.94,2.18,1.32,3.1.22.52.56,1.05,1.13.86.41-.14.83-.63,1-1.06.29-.78.38-1.64.6-2.45.47-1.78.98-3.56,1.47-5.33.17-.6.22-1.17-.43-1.51-.54-.29-1.16-.01-1.55.7-.22.42-.38.87-.53,1.32-.28.84-.53,1.7-.8,2.54-.12-.01-.24-.03-.36-.04-.04-.72-.1-1.43-.11-2.15,0-.58-.11-1.06-.72-1.25-.58-.17-1.06.06-1.36.54-.28.45-.52.92-.73,1.4-.42,1-.79,2.02-1.3,3.33-.32-.76-.49-1.24-.71-1.69-.59-1.29-1.16-2.6-1.81-3.86-.41-.78-1.21-1.15-1.65-.83-.61.44-.33,1.06-.14,1.58,1.08,2.91,2.19,5.81,3.33,8.7.13.32.58.73.87.72.29,0,.67-.45.82-.78.55-1.18,1.03-2.39,1.65-3.84ZM274.81,196.25c.8.89,1.34,1.54,1.92,2.14.58.61,1.16,1.24,1.82,1.74.32.25.91.42,1.25.3.55-.2.68-.81.44-1.35-.25-.57-.55-1.13-.93-1.63-.47-.63-1.03-1.18-1.47-1.67.64-.71,1.39-1.28,1.77-2.03.68-1.32-.2-3.95-1.44-4.86-1.06-.78-2.96-.58-4.28.43-.95.73-1.37,1.72-1.4,2.88-.03,1.42-.04,2.85-.03,4.27,0,.73.01,1.48.09,2.21.06.65.23,1.29,1.04,1.36.62.06,1-.44,1.09-1.46.06-.67.08-1.35.14-2.34ZM201.47,193.77c-.02-3.11-1.61-5.36-4.31-6.1-1.44-.39-3.06.26-3.6,1.56-.3.72-.54,1.54-.5,2.29.07,1.89.26,3.79.51,5.67.23,1.74,1.57,2.61,3.31,2.27,2.63-.52,4.6-2.97,4.59-5.7ZM248.8,194.07c-.04,2.58.86,4.18,2.8,5,2.89,1.22,6.12-.21,6.66-3,.46-2.35-.22-4.37-2.11-5.92-.4-.33-.82-.65-1.2-1.01-1.31-1.26-2.48-1.34-3.91-.23-1.68,1.31-2.22,3.13-2.24,5.16ZM262.98,187.95c-.2.59-.43,1-.44,1.41-.08,1.68-.15,3.38-.1,5.06.04,1.58.63,2.97,1.76,4.12,2,2.04,4.38,1.52,5.24-1.19.72-2.25.78-4.57.58-6.89-.03-.44-.24-.93-.52-1.28-.18-.22-.66-.34-.96-.29-.22.04-.45.42-.52.7-.09.29-.02.63-.02.94,0,1,.07,2.02-.03,3.01-.14,1.33-.12,2.73-1.02,3.99-1.23-.53-1.79-1.5-2-2.68-.17-.98-.18-2-.34-2.98-.21-1.33-.29-2.71-1.62-3.92ZM285.93,192.08c.11-1.11.52-1.77,1.42-2.1.68-.25,1.16,0,1.48.75.51-2-.12-2.78-1.95-2.63-1.59.13-2.9,1.5-3.26,3.38-.25,1.36.1,1.99,1.2,2.81.87.65,1.63,1.45,2.39,2.23.43.44.64,1.02.3,1.59-.36.6-.95.53-1.53.44-.21-.44-.35-.85-.61-1.16-.17-.21-.55-.39-.8-.34-.23.05-.49.38-.57.64-.53,1.75.66,3.06,2.45,2.74.21-.04.41-.1.62-.14,2.88-.43,3.24-3.2,2.21-4.92-.82-1.37-1.75-2.63-3.36-3.3ZM241.91,189.47c-.13,1.81-.31,3.27-.33,4.73,0,1.52.1,3.05.27,4.57.04.38.49.71.76,1.06.31-.24.76-.42.92-.74.27-.54.5-1.17.49-1.76-.04-2.45-.18-4.9-.29-7.43.65.13,1.35.3,2.07.39.67.08,1.32-.09,1.54-.81.23-.77-.32-1.17-.94-1.42-2.42-.96-4.91-1.11-7.43-.51-.58.14-1.14.47-1.01,1.19.12.64.69.72,1.24.73.89.01,1.77,0,2.71,0ZM227.74,193.76c1.47-.18,2.65.47,3.91-.02-.74-1.96-2.58-.79-3.75-1.53v-1.8c1.64-.12,3.21-.21,4.77-.36.31-.03.61-.26.92-.4-.2-.34-.32-.9-.59-.98-.73-.23-1.53-.38-2.29-.33-1.09.08-2.16.42-3.25.55-.99.12-1.17.21-1.22,1.15-.13,2.21-.27,4.42-.37,6.63-.09,2.01.38,2.5,2.42,2.62.47.03.95.07,1.42,0,.51-.08,1.04-.21,1.47-.48.24-.15.4-.62.37-.93-.01-.21-.4-.49-.66-.55-.4-.1-.84-.04-1.25-.05-.62-.03-1.24-.06-2.06-.1.06-1.22.11-2.29.16-3.42ZM219.34,190.12c.18-.09.28-.17.37-.17.52.05,1.05.12,1.57.19.58.08,1.15.22,1.72.23.84,0,1.44-.47,1.53-1.09.1-.64-.35-1.27-1.22-1.4-1.35-.2-2.71-.31-4.07-.34-.49-.01-1.06.21-1.46.51-.26.19-.48.89-.35,1.04.8.94.46,2.02.46,3.03,0,1.53-.12,3.05-.17,4.58-.01.54.07,1.18.74,1.21.76.03.86-.64.87-1.24.01-.58-.02-1.16,0-1.74.01-.39.08-.79.13-1.3.46.18.8.38,1.15.42.72.08,1.46.14,2.17.07.27-.03.7-.46.69-.69,0-.26-.4-.69-.67-.72-.71-.09-1.46,0-2.18.02-.4.01-.78.07-1.28.11v-2.72ZM186.3,196.67c-.06-.71-.14-1.28-.16-1.85-.05-1.42-.05-2.84-.12-4.25-.03-.57-.12-1.16-.33-1.68-.22-.55-.79-.56-1.08-.05-.15.26-.25.59-.27.89-.13,2.67-.25,5.35-.35,8.02-.03.71.33,1.33,1,1.43,1.13.17,2.29.19,3.43.16.61-.02,1.09-.45,1.12-1.13.03-.8-.55-1.07-1.21-1.2-.61-.13-1.24-.21-2.04-.34ZM206.15,196.39c-.06-.6-.12-1.06-.15-1.52-.11-1.79-.19-3.58-.3-5.36-.02-.37-.01-.76-.15-1.08-.1-.24-.42-.54-.65-.54-.22,0-.51.29-.66.53-.14.2-.17.5-.18.75-.03,2.79-.08,5.58-.06,8.37,0,.98.49,1.42,1.48,1.49.84.05,1.68.04,2.52-.03.89-.07,1.44-.58,1.46-1.18.03-.61-.48-1.06-1.4-1.2-.61-.09-1.23-.15-1.91-.23ZM181.54,193.41h-.25c0-1.36,0-2.73,0-4.1,0-.32.03-.67-.1-.93-.19-.33-.5-.78-.79-.81-.25-.03-.57.45-.83.74-.09.1-.1.3-.1.46-.06,3.1-.13,6.2-.14,9.3,0,.84.51,1.31,1.12,1.26.73-.06.94-.6,1.03-1.19.06-.36.07-.73.07-1.1,0-1.21,0-2.42,0-3.63ZM213.35,188.55c-.27.88-.59,1.51-.63,2.14-.1,2.06-.11,4.11-.14,6.17,0,.26.06.52.14.77.15.5.5.93,1.02.78.39-.11.76-.5.98-.87.17-.28.11-.72.09-1.08-.09-1.79-.18-3.59-.32-5.37-.06-.81-.09-1.68-1.14-2.54Z"/>
    <path class="cls-6" d="M158.12,251.48c1.11.63,1.94.67,2.84.42,1.17-.33,1.68-.16,2.05.96.45,1.4.84,2.85.99,4.3.19,1.83.11,3.69.12,5.54,0,.19-.09.37-.14.54-.19,0-.32.04-.39,0-2.63-1.91-5.69-2.97-8.54-4.45-2.32-1.19-4.49-.4-6.33,1.04-1.35,1.06-2.59,2.37-3.55,3.79-2.66,3.95-4.92,8.12-5.83,12.89-.18.93-.27.94-1.96.78-.3-1.91-.18-3.83.28-5.72.6-2.46,1.21-4.91,1.89-7.35,1.14-4.07,3.23-7.69,5.61-11.12,1.16-1.67,2.89-2.79,4.8-3.51.49-.18,1.15.06,2.03.14.18-.17.62-.54.98-.98,6.35-7.9,13.73-14.55,22.82-19.26,3.39-1.76,6.86-3.23,10.5-4.34,1.48-.45,2.98-.61,4.65-.41.12.43.21.89.36,1.31.25.77.84,1.21,1.35,1.05.6-.18.8-.92.42-1.7-.64-1.31-.1-2.55.09-3.95.34.12.64.12.78.28,1.26,1.4,2.99,1.95,4.65,2.61,3.75,1.48,7.68,2.25,11.65,2.8,1.49.21,3.05-.06,4.58-.11,1.06-.04,2.11-.11,3.16-.14.26-.01.64-.05.77.1.74.89,1.73.55,2.65.61,4.05.28,7.96-.62,11.89-1.39,5.9-1.16,11.81-2.23,17.68-3.47,3.35-.7,6.62-1.76,9.96-2.52,4.06-.92,8.17-1.62,12.23-2.53,2.77-.62,5.48-1.54,8.26-2.14,3.45-.75,6.93-1.33,10.41-1.93,3.48-.6,6.96-1.27,10.46-1.66,2.61-.29,5.26-.24,7.89-.25,1.52,0,3.04.23,4.57.23,2.1,0,4.15.18,6.14.96-.99.84-2.11.93-3.32.94-6.94.06-13.75,1.14-20.51,2.62-4.68,1.03-9.4,1.95-13.9,3.65-5.61,2.11-9.65,5.93-12.14,11.36-.5,1.09-1.01,2.06-2.13,2.63-.36.18-.6.6-.76,1.07,1.66-.16,3.08-.66,3.71-2.35.73-1.95,1.78-3.71,3.13-5.29,2.25-2.64,4.86-4.82,8.15-6.1,4.44-1.72,9.07-2.79,13.72-3.72,4.55-.91,9.1-1.87,13.69-2.4,4.23-.49,8.53-.44,12.53-.62,1.63,1.29.87,2.6.59,3.82-.06.27-.53.48-.85.64-.61.3-1.26.52-1.88.81-.69.32-1.14.84-1.48,1.56-.8,1.72-1.88,3.14-3.6,4.2-3.2,1.97-6.03,4.43-8.48,7.31-.89,1.05-1.79,2.08-2.68,3.13-1.28,1.51-2.87,2.64-4.58,3.61-.26.15-.56.22-.92.36.43-1.05,4.97-6.59,7.48-9.32,2.66-2.9,5.69-5.38,8.78-7.82-.07-.1-.14-.2-.22-.3-.49.26-1.01.47-1.47.78-4.36,3.04-8.16,6.68-11.55,10.75-1.93,2.31-3.93,4.57-5.96,6.78-.55.61-1.35,1-2.05,1.45-1.29.82-2.6,1.61-3.9,2.4-.18.1-.37.15-.89.34.33-.49.45-.73.63-.93,3.74-4.3,7.42-8.65,11.26-12.87,1.73-1.9,3.76-3.54,5.65-5.29.73-.67,1.46-1.34,2.19-2.01-.06-.09-.12-.18-.18-.26-.23.1-.49.17-.7.31-3.89,2.84-7.39,6.08-10.57,9.73-3.91,4.5-8.16,8.7-12.3,12.99-.4.41-1.05.65-1.62.82-1.2.36-2.43.62-3.73.82,1.09-1.32,2.59-2.16,3.79-3.32,1.29-1.24,2.59-2.49,3.78-3.82,1.15-1.3,2.2-2.71,3.23-4.11,1.07-1.44,2.11-2.91,3.07-4.42.91-1.41,2.11-2.69,2.52-4.67-.4.21-.58.25-.65.35-2.61,4.36-5.71,8.37-9.07,12.17-1.46,1.65-3.19,3.06-4.84,4.54-1.33,1.19-2.7,2.35-4.1,3.47-.48.38-1.08.65-1.67.81-.74.21-1.53.25-2.67.42,1.12-1.35,2.26-2.25,3.26-3.28,1-1.02,2.03-2.02,2.97-3.08.98-1.1,1.91-2.25,2.82-3.42.91-1.16,1.75-2.38,2.64-3.56.85-1.14,1.73-2.27,2.59-3.41.86-1.16,1.95-2.19,2.02-3.83-.16.2-.35.4-.5.61-.25.34-.43.73-.7,1.05-5.1,6.18-9.74,12.78-15.96,17.97-.55.46-1.17.88-1.81,1.22-2.49,1.35-5.01,2.66-7.52,3.98-.35.18-.74.3-1.16.34,4.53-2.71,7.95-6.6,11.52-10.33,2.26-2.37,4.64-4.62,6.9-6.99,1.05-1.1,1.98-2.33,2.88-3.56.49-.66.8-1.44.98-2.32-.16.15-.36.29-.48.47-2.27,3.48-5.28,6.3-8.24,9.17-2.81,2.72-5.61,5.44-8.41,8.16-1.94,1.89-4.11,3.47-6.5,4.74-.85.45-.83.48-.83,1.52-2.87.32-5.59,1.5-8.59,1.58.3-.16.63-.5.89-.46,1.01.15,1.73-.41,2.48-.86,2.86-1.7,5.71-3.39,8.06-5.81,1.39-1.43,3-2.66,4.57-3.92,2.23-1.79,4.28-3.74,6.25-5.83,2.21-2.34,4.6-4.51,6.89-6.77.46-.46,1.02-.9.85-1.8-2.87,2.68-5.66,5.3-8.48,7.9-2.2,2.04-4.41,4.07-6.65,6.08-1.88,1.69-3.77,3.38-5.7,5.02-2.62,2.24-5.58,3.96-8.7,5.42-.81.38-1.58.83-2.37,1.24-.42.22-.83.5-1.27.61-1.62.43-3.24.95-4.9,1.16-1.55.2-3.15.04-4.76.04.49-.73,1.31-.79,2.06-.81,2.23-.06,4.2-.88,6.17-1.81,1.72-.81,3.51-1.47,5.22-2.26,1.44-.66,2.83-1.41,4.22-2.16.37-.2.87-.41.77-1.08-.19,0-.38-.06-.47,0-2.49,1.76-5.41,2.59-8.16,3.8-.73.32-1.48.57-2.18.93-2.11,1.1-4.37,1.46-7.05,1.5.73-.44,1.2-.75,1.68-1.02,2.52-1.45,5.04-2.87,7.54-4.34,1.54-.9,3.18-1.41,4.96-1.41.9,0,1.8-.03,2.69,0,1.87.09,3.37-.68,4.68-1.94.34-.32.66-.69,1.05-.94,3.14-2.06,6.12-4.32,8.7-7.07,2.42-2.57,4.9-5.1,7.34-7.66.1-.1.15-.26.29-.52-.92-.01-1.37.55-1.87,1.05-2.88,2.86-5.74,5.76-8.69,8.55-2.35,2.21-5.1,3.88-8.04,5.61-.1-.61-.19-1.1-.27-1.55-.76-.2-1.09.23-1.2.77-.35,1.8-1.71,2.21-3.19,2.2-4.57-.01-8.54,1.64-12.23,4.16-.26.18-.52.37-.8.51-7.28,3.67-14.37,7.79-22.52,9.4-2.47.49-4.91,1.22-7.37,1.76-1.07.23-2.2.3-3.3.37-2.47.16-4.95.37-7.43.38-4.2.02-8.25-.84-12.13-2.52-1.45-.63-2.24-1.87-3.28-3.18.55-.28,1.03-.54,1.52-.79,2.61-1.31,5.43-2.04,8.28-2.55,2.67-.47,4.98-1.66,7.2-3.12,1.19-.78,2.29-1.69,3.51-2.4,2.72-1.56,5.59-2.74,8.74-3.08,1.47-.16,2.93-.2,4.4-.33.62-.06,1.27-.09,1.86-.29,4.05-1.32,8.23-1.81,12.46-1.94,2.32-.07,4.63-.01,6.94-.06,3.01-.06,6.02-.14,9.02-.29.68-.03,1.34-.39,2.25-.67-1.34-1.16-2.77-.45-3.99-.89,1.09-.71,2.21-.88,3.72-.48.84.22,1.62.2,2.41-.02,0-.21.05-.38.01-.4-1.32-.61-2.52-1.68-4.18-1.16-.44.14-.95.12-1.41.08-1.87-.16-3.36.62-4.76,1.74-.26.21-.6.43-.92.46-1.47.15-2.94.26-4.41.32-3.11.14-6.24.06-9.33.39-3.6.38-7.25.48-10.74,1.7-.77.27-1.68.05-2.51.2-2.48.43-4.98.83-7.44,1.42-1.31.32-2.57.92-3.77,1.54-.73.38-1.35.55-2.05.08-.65-.43-1.39-.79-1.93-1.34-1.14-1.18-2.51-1.95-4.06-2.36-2.94-.8-5.91-1.54-8.88-2.24-2.09-.49-4.21-.1-6.3.12-4.55.48-8.87,1.76-13.04,3.65-1.81.83-3.75,1.39-5.58,2.18-1.14.49-2.2,1.2-3.3,1.78-.32.17-.67.25-1.27.47ZM153.78,250.23c-.58-.76-1.03-.45-1.39-.18-2.28,1.71-4.56,3.4-6.3,5.72-3.35,4.5-5.24,9.71-7.21,14.88-.19.51-.52,1.27.19,1.53.78.29.85-.57,1.05-1.07,1.02-2.48,1.93-5.02,3.06-7.45,1.08-2.34,2.29-4.63,3.62-6.83,1.3-2.13,3.04-3.89,5.22-5.19.62-.37,1.13-.91,1.74-1.41ZM204.67,262.25c-.07.1-.14.2-.21.3.46.28.93.79,1.39.79,2.31,0,4.63-.01,6.93-.28,2.14-.24,4.19-.95,6.37-1.12,2.45-.19,4.93-.6,7.15-1.82,4.15-2.29,8.29-4.62,12.42-6.95.5-.28.92-.71,1.38-1.07-.34-.19-.55-.18-.72-.09-2.53,1.3-5.07,2.59-7.58,3.93-2.05,1.09-4,2.36-6.11,3.32-1.47.67-3.09,1.05-4.67,1.38-2,.42-4.09.48-6.05,1.01-3.41.92-6.81,1.15-10.28.59ZM156.74,245.55c.66.81,1.11.67,1.56.28.35-.31.64-.7,1.01-.97,1.1-.82,2.26-1.56,3.34-2.4,4.61-3.64,10.06-4.86,15.7-5.61.49-.06,1.05-.01,1.32-.64-.62-.68-1.37-.56-2.08-.43-1.55.3-3.09.66-4.64.97-4.69.93-8.96,2.73-12.57,5.96-.55.49-1.23.82-1.81,1.27-.61.48-1.17,1.01-1.82,1.58ZM276.01,230.75c-.11-.11-.21-.21-.33-.32-.43.4-.89.77-1.31,1.19-.97.98-1.87,2-2.87,2.95-1.1,1.05-2.39,1.94-3.39,3.09-1.91,2.18-4.19,3.83-6.64,5.3-.24.14-.4.41-.58.61.49.65.97.36,1.33.13,1.55-1,3.19-1.9,4.55-3.12,2.24-2,4.32-4.17,6.4-6.35,1.02-1.07,1.89-2.31,2.82-3.47ZM197.29,227.34c.12.15.22.31.34.47.12.08.25.26.37.25,1.32-.12,2.53.36,3.79.61,1.9.38,3.85.53,5.78.74.26.03.54-.13.82-.2.07-.13.15-.26.22-.4-.23-.1-.46-.25-.7-.3-.81-.17-1.63-.33-2.46-.47-1.63-.28-3.31-.07-4.88-.92-.65-.35-1.6-.17-2.42-.16-.28,0-.57.25-.85.38ZM151.53,257.33c1.4-.71,1.53-2.15,2.36-3.04.91-.96,1.67-2.05,2.57-3,.83-.86,1.78-1.61,2.84-2.55-3.05.59-7.79,5.79-7.78,8.58ZM221.01,258.47c.07.13.15.26.23.39.35-.15.71-.28,1.06-.43.29-.12.64-.44.83-.36.85.37,1.29-.19,1.76-.67.51-.52,1.08-.77,1.82-.79.71-.02,1.48-.1,1.7-1.14-1.5.24-3.06-.06-4.16,1.24-.08.1-.39-.01-.58.04-1.06.32-2.23.48-2.65,1.73ZM188.42,228.38c-2.39.61-5.73,3.91-5.62,5.39,1.93-1.85,3.78-3.62,5.62-5.39ZM263.18,235.2c-.43-1.17-.41-2.08.34-2.45.76-.38,1.68-.42,2.6-.62-.3-.68-.87-.86-1.52-.83-1.38.08-2.57,1.28-2.67,2.65-.07.94.04,1.05,1.24,1.25ZM190.28,260.39c.75,1.42,2.93,2.15,4.66,1.68-1.19-1.7-3.1-.85-4.66-1.68ZM165.91,237.53c1.64-1,2.97-1.8,4.3-2.62.21-.13.37-.32.67-.59-2.63.66-4.24,1.63-4.96,3.21ZM265.07,232.64c-.46.35-.99.57-1.09.9-.16.55.38.64.82.64.49,0,1.04-.07,1.01-.7-.02-.25-.41-.48-.74-.84ZM285.81,217.16q1.13.24,1.49-.91-1.12-.25-1.49.91ZM291.37,215.51c1.51.66,1.6.61,1.57-.82-.51.26-.93.48-1.57.82ZM297.72,214.43c.6.06.89.1,1.19.12.27.02.54.03.89.05-.57-1.07-.77-1.09-2.08-.17ZM281.28,218.69q.84.26,1-.56c-.22.04-.43.03-.58.12-.16.09-.26.27-.42.45Z"/>
    <path class="cls-2" d="M144.6,267.03c1.97-3.17,3.56-6.42,7.67-7.05.98-.15,1.81-.07,2.72.38,2.63,1.27,5.12,2.75,7.27,4.73,1.06.97,2.07.7,3.08.26.24-1.13.52-2.18.69-3.25.39-2.69.21-5.39-.31-8.03-.23-1.16-1.09-2.2-1.74-3.43,1.02-.48,2.24-1.05,3.45-1.64,3.2-1.53,6.46-2.92,10.02-3.26,3.62-.35,7.27-.81,10.88-.67,3.35.13,6.68,1.06,9.6,2.87,1.13.7,1.99,1.85,3.13,2.95-.5.47-.85.96-1.31,1.2-2.39,1.23-4.76,2.53-7.24,3.56-1.53.64-3.27.77-4.88,1.28-.93.3-1.86.76-2.64,1.36-1.29,1-1.34,2.37-.23,3.58,1.08,1.19,2.37,2.12,3.88,2.64,2.63.92,5.31,1.73,7.94,2.67,2.06.73,4.16.73,6.26.54,8.51-.77,16.74-2.72,24.7-5.82.59-.23,1.2-.41,1.77-.68,1.64-.77,3.37-.78,5.11-.62,4.66.44,9.24-.06,13.84-.88,5.31-.95,10.45-2.49,15.59-4.06,1.79-.55,3.51-1.44,5.14-2.38,1.56-.91,3.06-1.51,4.91-1.32,2.39.24,4.73-.16,6.99-1.02.58-.22,1.19-.39,1.94-.63,2.72,3.27,5.44,6.54,8.32,10.01-.91,0-1.62.08-2.32-.01-4.06-.5-8.11-.26-12.15.2-2.04.23-4.07.57-6.11.82-2.14.27-4.05,1.04-5.87,2.19-1.07.67-2.22,1.2-3.37,1.71-1.16.51-1.82-.06-1.65-1.34.04-.26.13-.51.18-.77.13-.81-.19-1.27-.99-1.53-2.05-.68-4.05-.11-5.43,1.83-.69.97-1.43,1.58-2.61,1.79-1.22.22-2.22.97-3.02,1.91-.33.38-.59.89-.68,1.38-.12.62.13,1.07.9,1.22,1.49.3,2.9.18,4.37-.19,1.47-.37,2.99-.61,4.5-.75.7-.07,1.48.14,2.14.4,1.37.54,2.69,1.2,4.31,1.94-.72.14-1.22.29-1.74.33-.68.06-1.37.06-2.06.05-3.64,0-7.24.3-10.85.84-1.97.29-4,.29-6,.31-5.81.06-11.62.02-17.42.11-2,.03-3.99.33-5.98.49-.69.06-1.38.09-2.06.07-6.38-.21-12.76-.35-19.14-.69-4.64-.25-9.27-.49-13.91-.61-5.69-.14-11.37-.5-17.05-.91-2.78-.2-5.53-.69-8.28-1.18-4.35-.78-8.68-1.68-13.02-2.53-.35-.07-.68-.19-1.25-.34Z"/>
    <path class="cls-1" d="M282.72,272.49c-.31.2-.4.25-.48.3-.68.39-1.65.73-1.43,1.65.14.59.85,1.17,1.45,1.5,1.27.67,2.66.48,4.03.26.1-.02.19-.09.29-.12,1.62-.46,3.04-1.1,2.86-3.25,1.66-.32,3.2-.61,4.74-.92.77-.16,1.53-.38,2.3-.55,2.46-.55,4.92-1.14,7.39-1.61.49-.09,1.14.17,1.59.47,1.46.96,2.85,1.99,4.26,3.03.62.46,1.14.73,2.01.41.61-.23,1.43.05,2.16.13.79.08,1.14-.17,1.04-.95-.09-.56-.34-1.1-.58-1.61-.61-1.22-1.26-2.41-2.03-3.86,9.71-1.09,18.88-3.68,28.27-5.87v9.28c-.35.12-.77.29-1.22.41-1.86.53-3.7,1.2-5.59,1.54-3.06.55-6.16.85-9.23,1.31-5.1.78-10.2,1.6-15.3,2.4-.31.05-.63.09-.95.11-2.95.12-5.9.18-8.85.38-4.74.31-9.47.65-14.19,1.08-4.26.39-8.53.55-12.8.46-4.24-.09-8.41.61-12.62.8-3.64.17-7.28.17-10.93.14-10.5-.08-21-.19-31.51-.33-4.11-.06-8.23-.11-12.34-.35-3.52-.2-7.02-.7-10.54-.99-2.73-.23-5.48-.29-8.21-.53-6.14-.54-12.3-.81-18.4-1.8-2.18-.35-4.4-.49-6.6-.72-4.87-.52-9.75-1.04-14.62-1.56-1.51-.16-3.04-.28-4.81-.44.61-1.42,1.15-2.7,1.68-3.93,2.18.49,4.16,1.03,6.17,1.38,3.22.55,6.45,1.05,9.69,1.45,4.65.57,9.31,1.14,13.99,1.5,6.95.52,13.9.93,20.88.75,4.17-.11,8.32,0,12.47.51,1.88.24,3.8.06,5.69.14,3.33.12,6.65.22,9.96.45,3.8.26,7.59.12,11.37-.33,2.04-.24,4.11-.28,6.15-.44,4.68-.38,9.37-.56,14.06-.78,3.94-.19,7.88-.62,11.77-1.24,1.82-.29,3.51-.12,5.29,0,2.15.15,4.32.08,6.49.14,1.66.05,3.32.15,5.2.25Z"/>
    <path class="cls-2" d="M137.43,265.42c-4.55-1.38-8.98-2.72-13.6-4.13-.03-.09-.15-.43-.2-.77-.42-3.08-.79-6.13-.68-9.28.16-4.32-.15-8.65-.26-12.97-.01-.52,0-1.05,0-1.77,1.16-.46,2.32-.93,3.48-1.38,6.43-2.49,13.19-3.67,19.96-4.71,4.43-.68,8.86-1.28,13.32-1.84,1.67-.21,3.37-.19,5.06-.27,3.16-.14,6.32-.27,9.48-.4.35-.01.69.03,1.41.06-.74.48-1.16.78-1.6,1.01-3.56,1.86-6.89,4.07-10.12,6.46-2.63,1.95-5.19,3.96-7.55,6.24-1.5,1.45-2.8,3.01-3.84,4.8-.39.67-.87,1.09-1.65,1.33-3.77,1.17-6.66,3.47-8.8,6.83-1.16,1.81-2.08,3.61-2.59,5.71-.42,1.77-1.21,3.46-1.8,5.08Z"/>
    <path class="cls-7" d="M341.02,272.55c.86,3.29.44,6.39.02,9.59-.34.23-.79.62-1.29.87-.41.2-.89.33-1.34.34-4.32.03-8.64,0-12.96.02-1.42,0-2.85.03-4.28.15-.98.08-1.95.34-2.92.49-.46.07-.94.14-1.41.13-9.39-.23-18.79-.47-28.17-.72-2.22-.06-4.43-.14-6.65-.24-4.16-.18-8.32-.45-12.48-.55-3.96-.09-7.92,0-11.88.01-1.53,0-3.06-.04-4.58-.07-6.6-.11-13.19-.23-19.79-.35-.21,0-.44.05-.62-.02-2.55-.98-5.21-.46-7.81-.56-3.27-.13-6.55.06-9.81-.13-10.29-.61-20.58-.58-30.87-.55-7.86.02-15.73.22-23.59.31-2.69.04-5.38,0-8.07-.16,2.97-.1,5.93-.28,8.89-.3,8.71-.06,17.43-.06,26.14-.1.5,0,1.01-.05,1.55-.07-.12-.78-.59-.77-1.08-.77-10.45.06-20.91.07-31.36.18-2.89.03-5.79.41-8.68.49-3.43.09-6.86.08-10.29.03-2.95-.04-5.9-.18-8.85-.3-1.74-.06-3.31-.53-5.1-1.48q.16-1.3,1.39-2.31c-.35-1.75-.81-3.54-.49-5.61,3.67.1,7.12,1.51,10.91,1.2-.05.92-.04,1.59-.13,2.25-.17,1.19,0,2.33.48,3.4.17.38.6.87.95.89.98.06,2.01.05,2.95-.21.39-.1.69-.85.86-1.37.31-.93.5-1.91.78-3.04,2.64.3,5.13.6,7.64.85,1.78.18,3.57.29,5.35.48,2.3.24,4.6.55,6.91.81,5.5.61,10.99,1.29,16.5,1.77,5.99.52,12,.81,18,1.26,2.89.22,5.77.58,8.65.87.37.04.74.05,1.11.05,4.8.03,9.6.02,14.41.08,4.49.06,8.97.19,13.45.32,5.63.16,11.27.46,16.91.51,4.8.04,9.61-.11,14.41-.32,2.68-.12,5.34-.6,8.01-.81,2.26-.19,4.54-.19,6.8-.34,2.68-.17,5.36-.41,8.04-.6,2.15-.15,4.31-.26,6.48-.37,4.58-.22,9.17-.38,13.75-.66,1.84-.11,3.66-.46,5.48-.72,6.32-.91,12.63-1.8,18.94-2.76,1.71-.26,3.38-.76,5.08-1.13,1.18-.26,2.36-.48,3.68-.75Z"/>
    <path class="cls-2" d="M341.74,244.92c-.31,4.82-.6,9.4-.9,14.22-1.39.53-2.81,1.23-4.3,1.63-3.45.92-6.97,1.62-10.42,2.54-3.67.97-7.36,1.74-11.15,2.16-1.04.11-2.05.42-3.21.68-.88-1.14-1.73-2.48-2.18-3.99-.43-1.41-.67-2.87-.98-4.31-.19-.93-.35-1.81-1.39-2.31-.45-.21-.74-.86-.96-1.38-.6-1.45-1.09-2.94-1.71-4.38-.14-.33-.57-.6-.92-.76-1.51-.69-2.62-1.85-4.1-3.08.85,0,1.36-.02,1.87,0,1.95.07,3.9.18,5.85.24,3.74.12,7.48.4,11.22.29,6.12-.18,12.22-.6,18.33-.95.89-.05,1.77-.29,2.66-.41.72-.09,1.44-.12,2.32-.19Z"/>
    <path class="cls-7" d="M135.18,211.69c.58-.19,1.14-.4,1.73-.55,6.62-1.75,13.38-2.45,20.2-2.47,3.8-.01,7.6,0,11.4.21,3.57.2,7.14.68,10.7,1.04,2.31.23,4.63.34,6.92.7,4.58.72,9.14,1.53,13.71,2.37,5.39.99,10.82,1.8,16.07,3.46,2.41.77,4.74,1.76,7.1,2.64,1.09.41,2.19.75,3.27,1.18,3.82,1.53,7.64,3.04,11.79,3.74-1.13.18-2.25.34-3.37.53-3.75.64-7.52,1.04-11.33,1.04-.42,0-.87.06-1.25-.04-2.43-.68-4.89-1.3-7.27-2.12-4.08-1.41-8.1-3-12.18-4.41-5.28-1.83-10.65-3.35-16.15-4.4-6.37-1.21-12.74-2.27-19.22-2.81-7.81-.66-15.6-.64-23.41-.54-2.89.03-5.77.35-8.66.54-.02-.04-.03-.07-.04-.11Z"/>
    <path class="cls-7" d="M304.45,238.38c2.6-2.94,4.87-5.92,7.98-8.09.7-.49,1.41-.87,2.32-.83,5.53.26,10.92-.79,16.31-1.79,3.26-.61,6.51-1.31,9.76-1.95.45-.09.93-.08,1.35-.12.56,1.45.45,8.97-.15,12.14-.98.12-2.01.33-3.05.38-5.74.29-11.46.96-17.22.71-1.15-.05-2.31.26-3.47.25-1.94-.02-3.88-.17-5.83-.27-2.58-.14-5.17-.27-8.01-.43Z"/>
    <path class="cls-1" d="M122.66,234.28c0-1.91-.03-3.63.03-5.36.01-.29.32-.66.59-.82.53-.33,1.11-.62,1.71-.8,4.14-1.25,8.24-2.64,12.44-3.62,5.08-1.19,10.26-1.77,15.5-1.97,6.83-.25,13.57.62,20.32,1.31,2.62.27,5.25.44,7.88.7.76.07,1.52.26,2.32.68-1.01.36-2.08.61-3,1.12-1.91,1.07-3.95,1.06-5.99.86-3.44-.34-6.84-.09-10.27.19-2.36.2-4.74.25-7.09.58-6.36.88-12.74,1.74-19.05,2.88-4.45.8-8.86,1.9-13.09,3.58-.67.27-1.39.41-2.3.68Z"/>
    <path class="cls-1" d="M191.75,220.58c-3.73-.59-7.3-1.2-10.89-1.72-3.33-.49-6.67-.93-10.02-1.35-2.66-.32-5.34-.72-8.01-.82-6.43-.23-12.87-.35-19.31-.41-4.91-.05-9.78.58-14.62,1.38-1.6.27-3.15.87-4.72,1.31-.45.12-.91.23-1.5.37v-2.98c2.17-.5,4.29-1.1,6.45-1.46,8.65-1.43,17.33-2.48,26.12-2.32,4.18.08,8.31.58,12.44,1.08,2.57.31,5.14.53,7.7.86,8.54,1.08,16.97,2.64,25.11,5.55,3.08,1.1,6.23,1.96,9.33,3.02,1.73.58,3.42,1.32,5.12,1.99-.03.12-.06.25-.08.38-1.47-.13-2.94-.2-4.39-.41-1.2-.16-2.37-.5-3.55-.73-3.74-.72-7.31-1.98-10.88-3.25-.53-.18-1.02-.55-1.46-.91-1.56-1.28-1.84-1.25-2.84.4Z"/>
    <path class="cls-6" d="M305.2,267.02c-1.13.47-2.17.89-3.56,1.47.29-.61.34-.92.52-1.09.85-.85.92-1.16.36-2.12-.43-.74-1.08-1.16-1.9-1.29-2.06-.33-4.11-.72-6.22-.76-.65-.01-1.32-.19-1.95-.42-.71-.26-1.3-.21-1.92.23-.51.35-1.09.59-1.6.85.94.85,1.17.93,2.05.15.49-.43.84-.43,1.41-.23.68.24,1.43.31,2.14.42.83.12,1.68.19,2.51.3,1.06.14,2.12.3,3.18.47.65.11,1.39.34,1.41,1.05.02.61-.24,1.36-.63,1.83-.97,1.16-2.43,1.39-3.82,1.65-2.43.45-4.86.88-7.3,1.29-.86.15-1.42.54-1.74,1.38-.52,1.34-2.26,2.33-4.04,2.31.94-1.04.86-2.22.62-3.62-.41-.08-.89-.25-1.37-.25-4.8.02-9.61.3-14.39.03-3.06-.17-6.15-.83-8.96-2.3-1.41-.73-2.93-1.27-4.56-1.04-1.04.15-2.05.47-3.06.75-.77.21-1.5.53-2.27.66-.52.08-1.09-.08-1.76-.15.63-1.59,1.74-2.17,3.09-2.42.52-.09,1.04-.18,1.56-.25.81-.11,1.26-.55,1.57-1.34.8-2,1.48-2.3,3.8-1.81-.05.39-.1.79-.15,1.19-.21,1.95.88,2.97,2.83,2.52.96-.22,1.94-.57,2.78-1.07,3.68-2.19,7.61-2.64,11.73-1.77,1.23.26,2.46.58,3.7.82,1.72.32,3.38.78,4.93,1.61,1.08.58,2.25.53,3.41.37,1.05-.14,1.31-.57.82-1.51-.46-.87-1.09-1.66-1.68-2.46-.24-.32-.56-.58-1.03-1.06,2.37.17,4.45.33,6.54.47,2.2.14,4.37.51,6.48,1.15,2.18.66,4.54,1.08,5.96,3.2.14.21.27.43.5.79ZM295.76,267.51c-9.84-.22-19.6-.75-29.67-.35.73.71,1.39.57,1.98.58,7.65.11,15.31.21,22.95.31.51,0,1.02,0,1.77,0-.93.98-1.89.9-2.81.9-5.54,0-11.09-.02-16.63-.03-.56,0-1.13.05-1.69.07,1.06.39,2.09.59,3.14.61,5.17.08,10.35.11,15.52.13.58,0,1.21,0,1.71-.24.65-.31,1.13-.93,1.77-1.27.61-.33,1.3-.47,1.96-.7ZM266.05,264.86c1.16.86,2.18.63,3.15.67,1,.04,2,.02,3,.01,1.05,0,2.11.02,3.15-.05.93-.06,1.94.31,2.95-.42-.35-.18-.58-.39-.8-.39-3.72.04-7.43.1-11.44.17Z"/>
    <path class="cls-6" d="M284.17,249.98c2.44-1.17,4.67-2.23,6.89-3.31.5-.24.87-.15,1.28.22,2.12,1.88,4.32,3.67,6.38,5.62.86.81,1.5,1.89,2.16,2.9.81,1.23,1.47,2.52,2.87,3.3.56.32.93,1.12,1.22,1.77.61,1.4,1.1,2.85,1.67,4.27.16.4.42.75.64,1.13.11-.04.21-.07.32-.11.01-.27.11-.56.03-.8-.6-1.69-1.25-3.36-1.87-5.03-.37-.96-.94-1.73-1.79-2.35-.57-.42-1.04-1.04-1.42-1.64-.58-.88-1.02-1.85-1.56-2.75-.24-.41-.49-.86-.86-1.13-1.9-1.38-3.27-3.25-4.77-5.01-.51-.6-1.14-1.09-1.81-1.71.37-.34.71-.64,1.01-.9.18.06.32.06.36.13,1.85,2.52,4.2,4.41,7.05,5.69.4.18.79.54,1.03.92.52.85.9,1.79,1.43,2.64.57.93,1.25,1.79,1.85,2.7.27.42.61.88.66,1.35.22,2.09.91,3.95,2.01,5.76,1.67,2.78,3.13,5.69,4.79,8.75-3.03-.58-5.45-2.02-8.04-3.33.19-.41.33-.79.52-1.14.58-1.05.57-1.32-.3-2.16-1.08-1.07-2.17-2.14-3.3-3.18-.26-.24-.62-.52-.93-.52-2.07.02-3.94-1-5.99-1.07-.37-.01-.76-.33-1.08-.6-.88-.76-1.75-1.52-2.57-2.34-2.25-2.23-4.46-4.49-6.69-6.74-.37-.37-.71-.77-1.19-1.29ZM302.83,260.46c-.44-.31-.88-.62-1.32-.94q.42,1.07,1.32.94Z"/>
    <path class="cls-3" d="M122.6,226.25c0-1.61.02-2.97,0-4.34-.02-.75.45-.99,1.05-1.15,1.89-.49,3.76-1.02,5.65-1.46,3.66-.85,7.37-1.28,11.12-1.29,7.13-.03,14.25-.06,21.37.05,2.89.05,5.78.39,8.66.73,4.44.53,8.88,1.15,13.31,1.77,2.08.29,4.16.64,6.23,1.03.45.09,1.09,0,1.31.6-.03.1-.03.19-.05.2-2,.51-3.95,1.34-6.1.65-2.52-.81-5.12-1.14-7.76-1.36-3.24-.26-6.49-.7-9.73-1.04-1.73-.18-3.47-.27-5.19-.47-5.48-.62-10.96-.27-16.44.01-6.31.32-12.36,1.88-18.24,4.16-1.61.63-3.24,1.19-5.2,1.9Z"/>
    <path class="cls-1" d="M296.4,243.39c.95-.59,1.85-1.33,2.87-1.76,1.67-.71,3.31-1.16,5.3-.95,3.55.38,7.16.21,10.75.17,5.17-.06,10.33-.15,15.5-.36,2.47-.1,4.92-.51,7.39-.78,1.24-.13,2.48-.24,3.94-.39-.1,1.47-.19,2.81-.29,4.25-.55.09-1,.2-1.46.23-5.84.31-11.67.72-17.53.83-4.12.07-8.22.07-12.33-.11-3.47-.15-6.95-.25-10.43-.35-1.25-.04-2.46-.22-3.67-.46,0-.11-.03-.22-.05-.34Z"/>
    <path class="cls-1" d="M136.9,266.76c-.37,1.34-.72,2.64-1.1,4.03-3.81-1.21-7.77-.65-11.45-1.91-.13-1.99-.25-3.86-.38-5.78,4.32,1.22,8.5,2.4,12.93,3.66Z"/>
    <path class="cls-6" d="M276.19,261.72c2.73-.13,5.46-.25,8.06-.38.96,1.38,1.8,2.59,2.7,3.87-1.15.46-1.97.06-2.78-.26-1.57-.62-3.11-1.32-4.67-1.93-1.12-.43-2.27-.77-3.4-1.15.03-.05.06-.1.1-.15Z"/>
    <path class="cls-1" d="M236.98,259.31h-1.79c-.02-.06-.05-.13-.08-.19.41-.23.82-.47,1.32-.75.2.35.35.61.55.94Z"/>
    <path class="cls-8" d="M285.83,165.96c.01,4.81-.56,9.56-1.8,14.23-.67,2.54-2.35,4.03-4.61,5.03-.74.33-1.7.83-2.33.61-1.09-.38-2.16-1.13-2.95-1.99-1.43-1.54-1.96-3.59-2.62-5.53-1.89-5.49-1.53-11.01-.2-16.54.2-.86.61-1.68,1.04-2.46.63-1.15,1.36-2.24,2.05-3.35,1.12-1.8,2.64-2.45,4.73-2.02,2.56.52,4.31,1.88,5.24,4.47.89,2.47,1.42,4.95,1.47,7.56ZM282.18,169.65c-.06,0-.1,0-.16-.01,0-1.79.09-3.6-.03-5.38-.12-1.88-.43-3.76-.71-5.64-.14-.88-.61-1.55-1.54-1.84-.5-.15-.96-.44-1.46-.6-1.75-.59-2.57-.12-2.92,1.73-.25,1.29-.3,2.62-.53,3.91-.98,5.38-1.21,10.78-.66,16.22.19,1.87.89,3.45,1.93,4.94.34.48.73.66,1.32.7,1.07.06,1.89-.37,2.35-1.28.58-1.12,1.27-2.27,1.45-3.47.46-3.07.64-6.18.95-9.28Z"/>
    <path class="cls-8" d="M338.77,166.85c.04,3.85.05,7.72-1.09,11.44-.94,3.07-2.59,5.72-5.91,6.7-3.44,1.03-4.93.33-6.68-2.51-1.38-2.24-2.2-4.76-2.19-7.49.02-3.59.02-7.16.89-10.68.66-2.69,1.75-5.21,3.19-7.54.76-1.23,1.85-2.29,2.94-3.27,1.18-1.05,3.98-.66,5.41.66.61.56,1.19,1.23,1.59,1.95,1.1,2.01,1.83,4.14,1.83,6.47,0,1.42,0,2.85,0,4.27ZM335.78,165.94c0-1.11.02-2.21,0-3.33-.02-1.1-.11-2.21-.14-3.32-.03-1.47-.71-2.37-2.07-3.03-2.6-1.26-4.61-.55-5.52,2.18-.13.4-.24.81-.35,1.22-1.11,4.33-1.27,8.75-1.38,13.18-.01.63.05,1.27.12,1.9.27,2.14.56,4.28.84,6.42.14,1.05.91,1.8,1.97,1.92,1.76.19,2.92-.47,3.65-2.09.19-.43.32-.89.5-1.33,1.8-4.4,3.01-8.89,2.37-13.71Z"/>
    <path class="cls-8" d="M231.84,169.14c1.59,4.34,3.15,8.58,4.68,12.82.12.34.21.71.22,1.07.03.61-.34,1.06-.89,1.12-.31.03-.83-.3-.97-.59-.73-1.63-1.38-3.3-2.03-4.97-.85-2.16-1.67-4.33-2.53-6.48-.23-.57-.57-1.09-.86-1.64-.11.03-.21.06-.31.08.12,1.37.21,2.74.37,4.11.15,1.36.25,2.69-.05,4.07-.23,1.06-.03,2.21-.02,3.31,0,.51,0,1.01,0,1.47-.85.21-1.48.36-2.18.54-.99-.75-1.43-1.8-1.41-3.09.02-1.53-.02-3.06-.05-4.59-.09-4.37-.27-8.75-.27-13.12,0-2.31.25-4.63.44-6.94.11-1.32.5-1.58,1.9-1.84,2.09-.4,3.74.34,5.38,1.61,2.48,1.91,3.21,4.45,3.13,7.37-.06,2.51-1.18,4.33-3.63,5.18-.3.1-.58.25-.85.4-.09.04-.12.17-.08.1ZM228.98,167.7c.92-.16,1.64-.26,2.35-.4,1.03-.21,1.38-.69,1.35-1.74-.01-.47-.04-.96.04-1.41.51-2.67-.59-4.83-2.12-6.86-.49-.65-1.17-.96-2.1-.97.16,3.83.32,7.59.48,11.38Z"/>
    <path class="cls-8" d="M220.98,164.65c.14-2.68.27-5.37.43-8.05.06-1.05.39-1.46,1.09-1.41.86.07.94.71.95,1.38,0,2.11.02,4.22-.03,6.33-.06,2.48-.08,4.96-.29,7.43-.23,2.78-.55,5.56-1.04,8.31-.39,2.15-1.7,3.85-3.49,5.1-1.35.95-4.32.34-5.51-1.03-1.26-1.45-1.84-3.2-2.09-5.05-.21-1.62-.26-3.26-.37-4.89-.07-1.1-.18-2.21-.17-3.31,0-1,.15-1.98.2-2.98.1-2.37.12-4.75.31-7.11.1-1.25.35-2.51.72-3.71.36-1.16,1-1.31,2.1-.77.58.29.64.73.63,1.3-.08,3-.18,6.01-.18,9.02,0,4.93.84,9.76,1.8,14.58.1.51.27,1.03.52,1.49.52.98,1.3,1.15,2.03.32.58-.65,1.04-1.5,1.25-2.32.39-1.53.66-3.1.8-4.67.31-3.31.5-6.62.74-9.93-.12,0-.25-.01-.37-.02Z"/>
    <path class="cls-8" d="M141.8,182.62c-.06-.52-.18-1.13-.19-1.75-.06-2.96-.12-5.91-.12-8.87,0-3.01,0-6.02.11-9.03.06-1.84.23-3.68.46-5.51.1-.84-.34-1.81.46-2.52.29-.25.55-.6.89-.72,2.08-.71,4.04-.29,5.9.76.66.38,1.23,1.02,2.06.51.74,1.5,1.46,2.9,2.11,4.31.24.52.45,1.09.5,1.66.26,2.89.51,5.77.67,8.67.16,2.77-.7,5.31-2.01,7.71-.55,1.02-1.15,2.02-1.81,2.97-1.68,2.39-4.31,3.1-6.99,2.11-.54-.2-1.18-.18-2.06-.3ZM144.33,156.99c-.04.19-.12.38-.12.58-.09,2.58-.25,5.16-.27,7.74-.03,4.64.02,9.28.05,13.93,0,.61.14,1.22.21,1.78,1.2.33,2.13,0,3.03-.49,1.34-.73,2.36-1.8,2.93-3.21.49-1.22.96-2.47,1.22-3.75.66-3.29.57-6.59-.07-9.89-.34-1.68-.76-3.27-1.7-4.71-.43-.66-.89-1.13-1.69-1.27-1.17-.2-2.34-.47-3.57-.72Z"/>
    <path class="cls-8" d="M182.42,155.75q2.2.03,2.85,1.72c2.25,5.8,4.49,11.6,6.74,17.4.07.19.16.38.43.59.02-.3.07-.61.08-.92,0-5.28,0-10.55,0-15.83,0-.37-.06-.73-.12-1.1-.22-1.35.03-1.69,1.38-1.88.25-.04.5-.05.88-.09.07.39.2.73.2,1.07-.08,5.48-.21,10.96-.28,16.45-.03,2,.02,4.01.07,6.02.03,1.05.16,2.09.23,3.13.04.52.21,1.08-.53,1.38-1.02-.53-1.6-1.24-1.98-2.51-.83-2.82-2-5.55-3.12-8.28-1.51-3.71-3.08-7.4-4.63-11.09-.06-.14-.17-.25-.41-.62-.06.59-.14.97-.13,1.35.06,2.48.15,4.95.23,7.43.04,1.27.06,2.53.06,3.8.01,2.69.02,5.38,0,8.08,0,.53,0,1.17-.7,1.23-.67.06-1.05-.45-1.18-1.06-.09-.41-.08-.84-.08-1.26,0-1.74.02-3.48,0-5.22-.07-5.7-.17-11.4-.22-17.1,0-.87.15-1.74.23-2.69Z"/>
    <path class="cls-8" d="M310.39,154.31c.33.63.74,1.22.98,1.87,2.19,6.27,4.35,12.55,6.53,18.82.04.14.18.24.42.56.06-.46.12-.72.14-1,.28-5.26.57-10.53.82-15.79.06-1.05.04-2.11.06-3.17.01-.74.06-1.47.93-2.04.18.35.45.64.46.93.09,1.74.21,3.48.15,5.21-.14,3.95-.38,7.9-.55,11.85-.15,3.43-.26,6.85-.4,10.28-.02.49-.15.98-.28,1.79-1.1-1.04-1.68-2-2.1-3.03-1.14-2.78-2.18-5.59-3.33-8.37-1.04-2.52-2.17-5.01-3.27-7.51-.11.01-.22.03-.33.04,0,1.31.03,2.63,0,3.93-.13,4.54-.29,9.07-.44,13.61,0,.11,0,.21,0,.32-.05.52,0,1.2-.72,1.19-.77-.02-.58-.74-.61-1.23-.25-4.17-.03-8.33.25-12.49.22-3.31.06-6.65.14-9.97.03-1.47.18-2.93.32-4.4.04-.45.27-.89.41-1.33.15-.03.29-.06.44-.09Z"/>
    <path class="cls-8" d="M133.09,154.58c.3.53.54.81.61,1.13.96,4.37,1.81,8.77,2.87,13.11.79,3.22,1.85,6.37,2.78,9.55.25.86.48,1.73.66,2.6.26,1.25.15,1.38-1.51,1.74-.79-2.34-1.58-4.7-2.38-7.07-2.04-.2-3.96-.4-6.04-.6-.27,1.75-.51,3.45-.79,5.15-.18,1.13-.22,2.34-1.5,2.91-1.27-.72-1.35-.87-1.08-2.35.88-4.71,1.77-9.42,2.65-14.13.29-1.56.62-3.1.83-4.67.3-2.23,1.09-4.27,2.1-6.26.17-.34.44-.62.8-1.11ZM132.83,161.66c-1.02,3.56-1.76,7.11-2.3,10.7,2.11.36,2.93.29,4.61-.33-.77-3.46-1.54-6.92-2.31-10.37Z"/>
    <path class="cls-8" d="M168.98,155.14c-.13.71-.17,1.51-.42,2.23-2.19,6.27-2.88,12.84-4.07,19.31-.24,1.29-.48,2.59-.81,3.86-.13.5-.49.93-.96,1.77-.55-1.1-1.04-1.8-1.25-2.57-.81-2.83-1.56-5.68-2.28-8.55-1.19-4.75-2.33-9.52-3.48-14.28-.17-.71-.28-1.43-.43-2.23.67-.26,1.29-.5,2.06-.8.29.57.63,1.04.78,1.57,1.58,5.36,3.12,10.72,4.68,16.09.07.24.15.49.32,1.05.2-.52.33-.76.38-1.01.73-3.83,1.44-7.66,2.15-11.5.25-1.35.47-2.7.77-4.04.33-1.44.98-1.69,2.56-.93Z"/>
    <path class="cls-8" d="M299.02,154.79c-1.3.56-2.32,1.2-3.42,1.42-1.16.23-2.4.05-3.8.05-.28,3.33-.54,6.51-.81,9.84,1.4.18,2.58.33,3.77.48.47.06.95.06,1.4.17.65.16.98.56.71,1.28-.12.34-.16.72-.26,1.21h-5.32c-.06.35-.15.6-.15.84.06,2.75.19,5.49.21,8.23.01,1.79-.09,3.58-.18,5.37-.02.32-.26.63-.43,1.02-.4-.18-.67-.32-.95-.44-1.56-.66-1.67-.67-1.5-2.27.59-5.64.1-11.29.39-16.93.12-2.47.33-4.94.49-7.42.03-.31.06-.63.04-.95-.18-2.1.77-3.21,2.82-3.08,1.99.13,3.97.4,5.96.63.27.03.52.26,1.04.54Z"/>
    <path class="cls-8" d="M239.82,155.79c1.4-.87,2.74-.96,4.13-.94,1.21.01,2.42-.1,3.64-.09.26,0,.64.21.75.43.07.17-.17.53-.34.76-.53.72-1.21,1.02-2.15.99-1.26-.04-2.52.12-3.9.21v10.01c.43-.04.82-.12,1.21-.1.94.03,1.89.02,2.8.2.56.11,1.31.33,1.18,1.21-.1.72-.54,1.04-1.49,1.08-.9.04-1.8.03-2.69.05-.3,0-.61.05-1,.08-.31,3.87-.08,7.63.58,11.49,1.55.11,3.11.21,4.67.32.21.01.46-.04.62.05.25.14.59.35.64.58.04.22-.18.65-.39.74-.83.33-1.67.66-2.54.81-1.23.22-2.5.3-3.75.4-.64.05-2.16-1.24-2.26-1.87-.05-.26-.05-.53-.06-.79-.08-4.06-.26-8.13-.2-12.19.06-4.48.35-8.96.54-13.43Z"/>
    <path class="cls-8" d="M302.28,154.5c.64-.23,1.17-.42,1.59-.57,1.54.2,1.76,1.19,1.64,2.42-.14,1.52-.27,3.04-.37,4.56-.22,3.73-.49,7.46-.61,11.2-.1,3.11,0,6.22,0,9.33,0,.52,0,1.05-.05,1.58-.07.66-.43,1.06-1.13,1.08-.26,0-.52.02-.79.02-1.48,0-1.8-.25-1.78-1.74.02-2.9.06-5.8.2-8.69.27-5.47.61-10.94.95-16.41.06-.94.23-1.87.35-2.78Z"/>
    <path class="cls-8" d="M170.8,182.13c0-3.89-.05-7.79.02-11.68.07-4.16.24-8.33.41-12.48.03-.78.27-1.55.37-2.33.1-.8.61-1.1,1.31-1.07,1.68.08,3.36.18,5.04.34.61.05,1.16.4,1.11,1.11-.06.75-.7.84-1.31.83-1.47-.04-2.94-.09-4.62-.14-.05.78-.16,1.64-.14,2.5.05,2.06.19,4.11.24,6.16.02.84.48,1.12,1.18,1.16.85.05,1.69.05,2.53.07.55.02,1.13.11,1.17.79.04.63-.46.92-1.01,1.02-.52.1-1.05.12-1.57.14-.67.02-1.35,0-2.2,0-.12,4.07.34,7.93.42,11.9,1.16.59,2.35.41,3.52.13,1.58-.39,2.01-.18,2.75,1.71-1.69.74-3.42.75-5.18.37-.7-.15-1.36-.3-1.59.46-.78-.32-1.47-.6-2.43-.99Z"/>
    <path class="cls-8" d="M203.4,157.52c.1,2.55.24,5.13.3,7.71.08,2.85.12,5.7.13,8.54,0,2.68-.03,5.37-.05,8.06,0,.31.02.63-.03.95-.11.77-.53,1.04-1.2.72-.79-.37-1.44-.9-1.41-1.9,0-.42-.01-.85,0-1.27,0-7.18,0-14.35.01-21.53v-1.77c-1.07-.07-1.99-.13-2.91-.17-.62-.03-1.32.09-1.47-1,.34-.12.7-.32,1.08-.37,3.14-.39,6.29-.77,9.45-.33.32.04.67-.02.93.12.34.17.59.5.88.76-.27.2-.51.53-.81.59-1.52.31-3.06.56-4.9.89Z"/>
    <path class="cls-8" d="M264.02,156.59c-.09,1.95-.24,3.73-.26,5.52-.09,6.01-.11,12.02-.19,18.04-.01,1.21-.15,2.41-.24,3.63-.03.53-.05,1.25-.72,1.16-.46-.06-.95-.59-1.24-1.04-.2-.3-.09-.82-.07-1.23.11-2.85.28-5.69.31-8.54.01-1.41-.18-2.82-.32-4.23-.33-3.32-.28-6.63.22-9.93.17-1.08.12-2.19.18-3.51-1.57-.13-3-.24-4.45-.36.3-1.42.3-1.38,1.43-1.54,2.84-.42,5.67-.43,8.5,0,.32.05.66.03.92.16.25.13.49.4.57.66.04.14-.23.46-.43.56-.37.17-.79.28-1.2.34-.93.13-1.87.21-3.01.33Z"/>
    <path class="cls-7" d="M171.9,194.32c-.61,1.44-1.1,2.66-1.65,3.84-.16.33-.54.77-.82.78-.28,0-.73-.4-.87-.72-1.14-2.89-2.25-5.79-3.33-8.7-.19-.52-.48-1.14.14-1.58.44-.32,1.24.05,1.65.83.64,1.26,1.22,2.57,1.81,3.86.22.46.39.93.71,1.69.51-1.31.88-2.33,1.3-3.33.2-.48.45-.95.73-1.4.3-.48.78-.72,1.36-.54.61.19.72.67.72,1.25,0,.72.06,1.43.11,2.15.12.01.24.03.36.04.27-.85.52-1.7.8-2.54.15-.45.31-.9.53-1.32.39-.72,1.01-.99,1.55-.7.65.35.6.91.43,1.51-.5,1.77-1,3.55-1.47,5.33-.22.81-.31,1.67-.6,2.45-.17.43-.58.93-1,1.06-.58.19-.92-.34-1.13-.86-.38-.92-.77-1.83-1.32-3.1Z"/>
    <path class="cls-7" d="M274.81,196.25c-.06.99-.08,1.66-.14,2.34-.09,1.02-.46,1.52-1.09,1.46-.82-.07-.98-.71-1.04-1.36-.07-.73-.09-1.47-.09-2.21,0-1.42,0-2.85.03-4.27.03-1.16.46-2.15,1.4-2.88,1.31-1.02,3.21-1.21,4.28-.43,1.24.91,2.12,3.54,1.44,4.86-.38.75-1.13,1.31-1.77,2.03.44.49,1,1.05,1.47,1.67.38.5.68,1.06.93,1.63.24.54.11,1.15-.44,1.35-.34.12-.93-.05-1.25-.3-.66-.51-1.24-1.14-1.82-1.74-.58-.6-1.13-1.25-1.92-2.14ZM274.84,192.78c.47.29.86.57,1.29.77.95.46,1.72-.07,1.61-1.11-.05-.46-.22-.92-.4-1.35-.25-.57-.73-.71-1.32-.58-.97.21-1.25.72-1.18,2.28Z"/>
    <path class="cls-7" d="M201.47,193.77c0,2.73-1.97,5.18-4.59,5.7-1.74.34-3.08-.52-3.31-2.27-.25-1.88-.44-3.78-.51-5.67-.03-.76.21-1.58.5-2.29.53-1.3,2.16-1.95,3.6-1.56,2.71.74,4.3,3,4.31,6.1ZM195.73,189.93c-.5,1.37-.63,4.72-.27,6.25.28,1.18.82,1.47,1.89.89.45-.24.88-.61,1.15-1.02,1.29-1.96.15-5.28-2.05-6.07-.22-.08-.5-.04-.72-.05Z"/>
    <path class="cls-7" d="M248.8,194.07c.02-2.03.56-3.85,2.24-5.16,1.43-1.11,2.6-1.03,3.91.23.37.36.8.68,1.2,1.01,1.89,1.55,2.56,3.57,2.11,5.92-.54,2.79-3.76,4.22-6.66,3-1.94-.81-2.84-2.42-2.8-5ZM252.9,190.33c-1.66,1.19-1.64,2.84-1.59,4.48.06,1.74,1.07,2.62,2.89,2.58,1.46-.04,2.25-.99,2.2-2.68-.06-2.28-1.54-3.44-3.49-4.37Z"/>
    <path class="cls-7" d="M262.98,187.95c1.33,1.21,1.42,2.59,1.62,3.92.15.99.17,2,.34,2.98.21,1.18.77,2.15,2,2.68.9-1.26.88-2.66,1.02-3.99.11-.99.03-2,.03-3.01,0-.32-.07-.65.02-.94.08-.27.31-.66.52-.7.3-.06.79.06.96.29.28.34.49.84.52,1.28.2,2.32.13,4.64-.58,6.89-.86,2.71-3.24,3.23-5.24,1.19-1.13-1.15-1.71-2.55-1.76-4.12-.05-1.69.03-3.38.1-5.06.02-.41.24-.81.44-1.41Z"/>
    <path class="cls-7" d="M285.93,192.08c1.61.67,2.54,1.93,3.36,3.3,1.03,1.72.67,4.49-2.21,4.92-.21.03-.41.1-.62.14-1.79.32-2.98-.99-2.45-2.74.08-.26.34-.59.57-.64.24-.05.62.14.8.34.26.31.4.73.61,1.16.58.09,1.17.16,1.53-.44.34-.58.13-1.16-.3-1.59-.76-.78-1.52-1.59-2.39-2.23-1.1-.82-1.46-1.45-1.2-2.81.35-1.89,1.67-3.26,3.26-3.38,1.83-.14,2.46.63,1.95,2.63-.32-.76-.8-1-1.48-.75-.89.33-1.31.99-1.42,2.1Z"/>
    <path class="cls-7" d="M241.91,189.47c-.94,0-1.82,0-2.71,0-.55,0-1.12-.08-1.24-.73-.14-.73.42-1.06,1.01-1.19,2.52-.6,5.01-.45,7.43.51.62.25,1.16.65.94,1.42-.22.72-.87.89-1.54.81-.71-.08-1.42-.26-2.07-.39.1,2.52.25,4.98.29,7.43.01.59-.22,1.22-.49,1.76-.16.32-.61.49-.92.74-.27-.35-.72-.68-.76-1.06-.16-1.51-.27-3.04-.27-4.57.01-1.46.19-2.92.33-4.73Z"/>
    <path class="cls-7" d="M227.74,193.76c-.05,1.13-.09,2.2-.16,3.42.82.04,1.44.07,2.06.1.42.02.85-.05,1.25.05.26.07.64.34.66.55.03.31-.13.78-.37.93-.43.26-.96.4-1.47.48-.46.07-.95.03-1.42,0-2.05-.12-2.51-.61-2.42-2.62.1-2.21.24-4.42.37-6.63.05-.95.23-1.04,1.22-1.15,1.09-.13,2.16-.47,3.25-.55.76-.05,1.56.11,2.29.33.28.09.4.64.59.98-.31.14-.61.38-.92.4-1.56.15-3.13.24-4.77.36v1.8c1.17.74,3.01-.43,3.75,1.53-1.27.49-2.44-.17-3.91.02Z"/>
    <path class="cls-7" d="M219.34,190.12v2.72c.5-.05.89-.1,1.28-.11.72-.03,1.47-.11,2.18-.02.27.03.67.46.67.72,0,.23-.42.66-.69.69-.72.07-1.45,0-2.17-.07-.35-.04-.68-.24-1.15-.42-.05.51-.12.9-.13,1.3-.02.58.01,1.16,0,1.74,0,.61-.11,1.27-.87,1.24-.67-.03-.75-.67-.74-1.21.04-1.53.17-3.05.17-4.58,0-1.02.34-2.09-.46-3.03-.12-.15.09-.86.35-1.04.4-.3.97-.52,1.46-.51,1.36.04,2.72.15,4.07.34.86.13,1.32.77,1.22,1.4-.09.62-.69,1.1-1.53,1.09-.58,0-1.15-.15-1.72-.23-.52-.07-1.04-.14-1.57-.19-.09,0-.18.08-.37.17Z"/>
    <path class="cls-7" d="M186.3,196.67c.8.13,1.43.21,2.04.34.65.14,1.24.41,1.21,1.2-.03.68-.51,1.11-1.12,1.13-1.14.04-2.3.01-3.43-.16-.67-.1-1.03-.72-1-1.43.1-2.67.21-5.35.35-8.02.02-.3.12-.63.27-.89.29-.51.86-.5,1.08.05.21.52.3,1.11.33,1.68.07,1.41.07,2.83.12,4.25.02.57.09,1.14.16,1.85Z"/>
    <path class="cls-7" d="M206.15,196.39c.68.08,1.29.13,1.91.23.92.14,1.43.59,1.4,1.2-.02.6-.58,1.1-1.46,1.18-.84.07-1.68.08-2.52.03-.99-.07-1.47-.51-1.48-1.49-.02-2.79.03-5.58.06-8.37,0-.26.04-.55.18-.75.15-.23.44-.53.66-.53.23,0,.55.3.65.54.14.32.14.72.15,1.08.11,1.78.19,3.57.3,5.36.03.46.09.92.15,1.52Z"/>
    <path class="cls-7" d="M181.54,193.41c0,1.21,0,2.42,0,3.63,0,.37,0,.74-.07,1.1-.09.6-.31,1.14-1.03,1.19-.61.04-1.12-.42-1.12-1.26,0-3.1.08-6.2.14-9.3,0-.15.01-.35.1-.46.26-.29.58-.76.83-.74.3.03.61.48.79.81.13.25.1.61.1.93.01,1.36,0,2.73,0,4.1h.25Z"/>
    <path class="cls-7" d="M213.35,188.55c1.04.86,1.07,1.72,1.14,2.54.14,1.79.23,3.58.32,5.37.01.36.07.8-.09,1.08-.21.37-.59.76-.98.87-.52.15-.87-.28-1.02-.78-.07-.25-.14-.51-.14-.77.03-2.06.03-4.11.14-6.17.03-.63.36-1.26.63-2.14Z"/>
    <path class="cls-5" d="M153.78,250.23c-.61.5-1.13,1.05-1.74,1.41-2.18,1.3-3.93,3.06-5.22,5.19-1.33,2.2-2.54,4.49-3.62,6.83-1.13,2.43-2.03,4.97-3.06,7.45-.21.5-.28,1.35-1.05,1.07-.71-.26-.38-1.02-.19-1.53,1.97-5.17,3.85-10.38,7.21-14.88,1.73-2.32,4.02-4.02,6.3-5.72.36-.27.82-.58,1.39.18Z"/>
    <path class="cls-5" d="M204.67,262.25c3.47.56,6.88.33,10.28-.59,1.96-.53,4.06-.59,6.05-1.01,1.59-.33,3.21-.71,4.67-1.38,2.11-.96,4.07-2.23,6.11-3.32,2.51-1.33,5.04-2.63,7.58-3.93.17-.09.38-.1.72.09-.46.36-.88.78-1.38,1.07-4.12,2.33-8.26,4.66-12.42,6.95-2.22,1.22-4.7,1.63-7.15,1.82-2.18.17-4.23.87-6.37,1.12-2.29.26-4.62.27-6.93.28-.46,0-.93-.52-1.39-.79.07-.1.15-.2.21-.3Z"/>
    <path class="cls-5" d="M156.74,245.55c.65-.57,1.22-1.1,1.82-1.58.58-.45,1.26-.78,1.81-1.27,3.61-3.22,7.88-5.03,12.57-5.96,1.55-.3,3.09-.67,4.64-.97.71-.14,1.46-.25,2.08.43-.27.63-.83.58-1.32.64-5.63.75-11.09,1.97-15.7,5.61-1.08.85-2.24,1.59-3.34,2.4-.37.28-.66.66-1.01.97-.44.4-.9.54-1.56-.28Z"/>
    <path class="cls-5" d="M276.01,230.75c-.94,1.16-1.8,2.4-2.82,3.47-2.08,2.17-4.16,4.35-6.4,6.35-1.36,1.22-3,2.12-4.55,3.12-.36.23-.85.52-1.33-.13.18-.2.34-.47.58-.61,2.45-1.47,4.73-3.12,6.64-5.3,1-1.14,2.29-2.03,3.39-3.09.99-.95,1.9-1.97,2.87-2.95.41-.42.87-.8,1.31-1.19.11.11.22.21.33.32Z"/>
    <path class="cls-5" d="M197.29,227.34c.28-.14.56-.38.85-.38.82-.01,1.77-.2,2.42.16,1.57.85,3.25.64,4.88.92.82.14,1.65.29,2.46.47.25.05.48.2.7.3-.07.13-.15.26-.22.4-.28.07-.56.23-.82.2-1.93-.22-3.88-.37-5.78-.74-1.26-.25-2.47-.72-3.79-.61-.12,0-.24-.17-.37-.25-.11-.16-.22-.31-.34-.47Z"/>
    <path class="cls-5" d="M151.53,257.33c0-2.79,4.73-7.99,7.78-8.58-1.06.94-2.02,1.68-2.84,2.55-.91.95-1.67,2.04-2.57,3-.83.89-.96,2.33-2.36,3.04Z"/>
    <path class="cls-5" d="M221.01,258.47c.41-1.25,1.59-1.41,2.65-1.73.19-.05.5.06.58-.04,1.1-1.3,2.66-1,4.16-1.24-.22,1.04-.99,1.12-1.7,1.14-.73.02-1.31.27-1.82.79-.47.49-.91,1.04-1.76.67-.19-.08-.54.24-.83.36-.34.15-.7.28-1.06.43-.08-.13-.16-.26-.23-.39Z"/>
    <path class="cls-5" d="M188.42,228.38c-1.85,1.77-3.7,3.55-5.62,5.39-.11-1.48,3.23-4.78,5.62-5.39Z"/>
    <path class="cls-5" d="M263.18,235.2c-1.2-.19-1.31-.31-1.24-1.25.1-1.38,1.28-2.57,2.67-2.65.65-.04,1.22.14,1.52.83-.92.2-1.84.24-2.6.62-.76.38-.78,1.28-.34,2.45Z"/>
    <path class="cls-5" d="M190.28,260.39c1.56.83,3.47-.02,4.66,1.68-1.73.47-3.91-.26-4.66-1.68Z"/>
    <path class="cls-5" d="M165.91,237.53c.73-1.58,2.33-2.55,4.96-3.21-.29.26-.46.46-.67.59-1.32.82-2.66,1.62-4.3,2.62Z"/>
    <path class="cls-5" d="M265.07,232.64c.33.35.73.59.74.84.03.63-.52.7-1.01.7-.44,0-.98-.09-.82-.64.1-.33.63-.55,1.09-.9Z"/>
    <path class="cls-5" d="M285.81,217.16q.37-1.16,1.49-.91-.36,1.15-1.49.91Z"/>
    <path class="cls-5" d="M291.37,215.51c.64-.33,1.06-.55,1.57-.82.03,1.42-.06,1.48-1.57.82Z"/>
    <path class="cls-5" d="M297.72,214.43c1.31-.92,1.51-.9,2.08.17-.35-.01-.62-.02-.89-.05-.3-.03-.59-.06-1.19-.12Z"/>
    <path class="cls-5" d="M281.28,218.69c.16-.18.26-.36.42-.45.15-.09.37-.08.58-.12q-.16.82-1,.56Z"/>
    <path class="cls-5" d="M295.76,267.51c-.66.22-1.35.37-1.96.7-.64.34-1.13.96-1.77,1.27-.49.24-1.13.25-1.71.24-5.17-.02-10.34-.05-15.52-.13-1.04-.01-2.08-.22-3.14-.61.56-.02,1.13-.07,1.69-.07,5.55.01,11.09.03,16.63.03.92,0,1.87.08,2.81-.9-.75,0-1.26,0-1.77,0-7.65-.1-15.3-.2-22.95-.31-.59,0-1.25.14-1.98-.58,10.07-.4,19.83.13,29.67.35Z"/>
    <path class="cls-5" d="M266.05,264.86c4.01-.06,7.72-.13,11.44-.17.22,0,.45.21.8.39-1.01.73-2.02.36-2.95.42-1.04.07-2.1.04-3.15.05-1,0-1.99.03-3-.01-.97-.04-1.99.19-3.15-.67Z"/>
    <path class="cls-5" d="M302.83,260.46q-.91.13-1.32-.94c.44.31.89.62,1.32.94Z"/>
    <path class="cls-1" d="M282.18,169.65c-.3,3.09-.49,6.2-.95,9.28-.18,1.21-.87,2.35-1.45,3.47-.46.91-1.28,1.33-2.35,1.28-.58-.03-.98-.22-1.32-.7-1.05-1.49-1.74-3.07-1.93-4.94-.55-5.45-.32-10.85.66-16.22.23-1.3.28-2.62.53-3.91.34-1.85,1.17-2.31,2.92-1.73.5.17.96.45,1.46.6.93.29,1.4.96,1.54,1.84.28,1.87.59,3.75.71,5.64.12,1.79.03,3.59.03,5.38.06,0,.1.01.16.01Z"/>
    <path class="cls-1" d="M335.78,165.94c.64,4.82-.57,9.32-2.37,13.71-.18.44-.31.9-.5,1.33-.73,1.62-1.89,2.28-3.65,2.09-1.07-.11-1.83-.87-1.97-1.92-.28-2.14-.57-4.28-.84-6.42-.07-.63-.13-1.27-.12-1.9.1-4.43.27-8.86,1.38-13.18.1-.41.22-.82.35-1.22.92-2.73,2.92-3.44,5.52-2.18,1.36.66,2.03,1.56,2.07,3.03.03,1.11.12,2.21.14,3.32.03,1.11,0,2.22,0,3.33Z"/>
    <path class="cls-1" d="M228.98,167.7c-.16-3.8-.32-7.55-.48-11.38.93,0,1.61.32,2.1.97,1.53,2.03,2.63,4.19,2.12,6.86-.08.46-.06.94-.04,1.41.03,1.06-.32,1.53-1.35,1.74-.71.14-1.43.25-2.35.4Z"/>
    <path class="cls-1" d="M144.33,156.99c1.23.25,2.4.52,3.57.72.8.14,1.27.61,1.69,1.27.95,1.45,1.36,3.03,1.7,4.71.64,3.3.73,6.6.07,9.89-.26,1.28-.73,2.53-1.22,3.75-.57,1.41-1.59,2.48-2.93,3.21-.89.48-1.83.82-3.03.49-.07-.56-.21-1.17-.21-1.78-.03-4.64-.08-9.28-.05-13.93.02-2.58.18-5.16.27-7.74,0-.2.08-.39.12-.58Z"/>
    <path class="cls-1" d="M132.83,161.66c.76,3.45,1.54,6.91,2.31,10.37-1.68.61-2.5.68-4.61.33.54-3.59,1.28-7.14,2.3-10.7Z"/>
    <path class="cls-1" d="M274.84,192.78c-.07-1.56.21-2.07,1.18-2.28.58-.12,1.07.01,1.32.58.19.43.36.89.4,1.35.12,1.04-.66,1.57-1.61,1.11-.43-.2-.82-.48-1.29-.77Z"/>
    <path class="cls-1" d="M195.73,189.93c.22.01.5-.03.72.05,2.2.79,3.34,4.11,2.05,6.07-.27.42-.7.79-1.15,1.02-1.07.58-1.61.29-1.89-.89-.36-1.53-.23-4.88.27-6.25Z"/>
    <path class="cls-1" d="M252.9,190.33c1.95.93,3.43,2.09,3.49,4.37.05,1.7-.74,2.64-2.2,2.68-1.82.04-2.83-.84-2.89-2.58-.05-1.64-.07-3.29,1.59-4.48Z"/>
  </g>
  <g>
    <g>
      <polygon class="cls-4" points="67.88 172.3 15.52 248.95 18.13 252.25 118.01 248.78 82.13 182.87 71.45 170.4 67.88 172.3"/>
      <path class="cls-5" d="M99.94,209.66c3.5.51,2.58,5.9,6.25,6.23.1,3.85,2.07,5.65,4.51,6.91-.28,4.06,2.01,5.28,4.46,6.32.28,1-.4,1.13-1.12,1.24.83.82,2.79,1.35,1.33,2.9.46-.33.95-.66,1.75-.68.27,1.19-.03,1.86-1.1,1.84,1.19,1.5,4.61,4.74,2.67,5.81.6,1.01,1.92,1.22,3.61,1.01.33,4.85,3,7.12,2.99,12.34-.57-.34-2.25-1.28-1.74.67-1.07-1.11-4.13-.02-4.26-2.16-1.31,2.34-4.07-1.55-7.06,1.54-1.8.3-1.34-1.87-1.94-2.88-1.7.6.84,1.46.15,2.97-.46-.39-2-2.41-1.78.09-8.28-.58-20.59-.63-27.92.18-.03-.58-.06-1.18-.09-1.77-2.68,1.58-5.81,1.89-8.31.41-1.61,2.32-12.64,2.38-16.02.8-6.51,3.75-21.02.23-24.17,4.16-5.11-2.87-13.92.37-20.31-1.96-.6-1.86.4-2.28,1.04-3.03-2.39-.09-.99-.46-1.38-4.09,2.77-.9,3.9-3.26,3.83-6.73,2.75.43,1.2-3.05,4.03-2.58-.52-1.8-.47-1.12-.15-2.96,4.03.45,1.59-4.98,5.1-5.01-.41-.58-1.39-.54-1.28-1.72,2.39.65,1.12-2,3.51-1.36-.06-.99-.1-1.98-.15-2.97.51-.49,1.31-.7,2.34-.7,3.47-8.95,9.98-15.13,13.68-23.86,2.05-.03,2.7-1.34,2.2-3.68,1.74.07,1.75-1.43,3.51-1.36,1.44-7.95,9.01-10.36,10.39-18.36,6.51-1.46,4.95-10.23,11.29-11.85-.41-.58-1.39-.55-1.28-1.72,1.95-.12,2.9-1.15,5.32-.85,2.66,1.88-.7,3.06,3.11,2.81-2.46,2.68.76,10.53,3.43,9.34.89.15.16,4.49,3.17,4.01-.33,1.83.73,2.14.78,3.53,7.63,6.37,9.09,19.56,16.74,25.91.26,1-.41,1.15-1.13,1.25ZM65.29,182.24c-1.88.83-.54-1.9-2.44-1.07-.9.3-.41,1.9-2.29,1.31-.73,3.12-1.47,6.22-4.4,7.35-.7,3.28,1.67,3.15,2.61,4.62-4.12,3.02-4.14,12.7-11.42,9.48.67,1.77,2.84,1.86,3.17,4.01-1.57.8-2.72,1.12-3.5,1.36,2.53,2.06-.67,1.55-1.64,3.05-2.53,3.94-3.91,10.12-8.35,11.12-.16,2.87-1.2,4.96-3.89,5.53,1.5,3.08-.87.43-1.7,1.88,3.82.72-2.44,2.6.21,4.15-4.22.89-3.18,6.55-6.11,8.63-.38-1.03.55-3.52-.76-3.54,0,.93.19,2.05-1.1,1.84-.64,1.95,1.94.35,1.31,2.3-2.46.61-2.01,3.85-3.29,5.53,6.18-1.37,16.23-1.48,23.13-1.15.11-.46-.04-1.17.53-1.22,23.01,2.1,41.35-1.48,69.45-2.24-1.29-6.23-6.8-9.23-8.96-12.64-.71-5.27-5.69-5.8-5.91-11.6-2.66.4-2.29-2.11-1.97-3.47-2.36.06-4.51-3.77-2.6-4.62-1.85,1-1.99-.35-3.62-1.01-4.29-12.95-14.52-22.09-19.43-32.33.03.6-1.01.79-1.18.05.72-.09,1.39-.24,1.13-1.24-1.65.57-1.58-.76-3-.44-2.87,4-4.15,9.46-8.94,11.73,1.25,2.03-.43,2.88-1.57,4.24-.72-2.35-.14-4.62.87-6.59.98-.03.4,1.63,1.27,1.72.13-2.55,2.17-7.39,3.91-4.94-.06-.82.21-1.32.5-1.81Z"/>
    </g>
    <text class="cls-9" transform="translate(48.4 238.55)"><tspan x="0" y="0">70</tspan></text>
  </g>
</svg>