<?xml version="1.0" encoding="UTF-8"?>
<svg id="Layer_1" xmlns="http://www.w3.org/2000/svg" viewBox="0 0 400 400">
  <defs>
    <style>
      .cls-1 {
        fill: #e11f27;
      }

      .cls-1, .cls-2, .cls-3, .cls-4, .cls-5, .cls-6 {
        fill-rule: evenodd;
      }

      .cls-2, .cls-7 {
        fill: #fff;
      }

      .cls-7 {
        font-family: AmericanTypewriter-CondensedBold, 'American Typewriter';
        font-size: 42.62px;
        font-weight: 700;
        letter-spacing: -.02em;
      }

      .cls-3 {
        fill: #184163;
      }

      .cls-4 {
        fill: #662d91;
      }

      .cls-6 {
        fill: #488fcd;
      }
    </style>
  </defs>
  <g>
    <path class="cls-2" d="M147.61,208.64c0-.74-.37.7-.36-.05-.43-2.86-.03-4.83.17-8.21.09-.62-.32-.85-.59-1.2.92-2.71-.19-5.28.73-8.13.27-.84.21,1.07,1.01.88.87-.68.39-2.58.06-3.35-.01-.83.36.2.43-.32-.21-2.43-.51-5.79.18-8.21.14-.56.72-.94.95-1.55.25-.62.24-1.33.46-1.99.51-1.56,1.47-3.1,1.92-4.61,1.06-3.53,1.48-7.2,2.75-10.67.88-2.37,2.3-4.62,3.36-6.84,1.06-2.21,2.02-4.54,3.66-6.23.28-.73.19-.74.4-1.63,1.97-1.49,2.23-4,3.6-5.88,1.28-1.74,3.36-3.59,5.04-5.5.52-.57.95-1.44,1.39-1.87.3-.29.88-.26,1.2-.58,1.3-1.39,2.36-2.78,3.74-4.17,1.61-1.61,3.05-3.18,5.08-4.36.29-.33-.03-.76.36-1.27,1.08.05,1.59-.65,2.38-.99.22-.42.54-.74.56-1.42,3.58-2.01,6.78-4.5,10.09-6.86,1.25.19,1.53-.87,2.57-.96,6.02-4.2,13.48-6.98,21.07-9.13,3.8-1.08,7.71-2.23,11.8-2.9,4.1-.65,8.3-1.33,12.54-1.48,4.21-.15,9.02-.31,12.91.06,3.4.31,6.7,1.44,10.36,2.32,4.29,1.07,9.54,1.56,13.64,2.79,5.34,1.61,10.48,3.36,15.29,5.99,6.84,3.75,12.5,7.65,17.66,11.93,1.45,1.19,3.27,2.08,4.43,3.21.7.7.95,1.75,1.55,2.46,1.42,1.71,3.33,2.86,5.01,4.42.9.82,1.78,2.35,2.71,3.54,1.79,2.35,3.73,4.44,5.39,7.1,1.82,2.88,3.22,5.92,4.99,8.89,1.04,1.81,2.37,3.48,3.36,5.51-.24.84.52.91.12,1.89-.2.48.88,0,.68.47,2.92,10.41,5.14,21.28,7.08,32.01.08.44.4.7.62,1.02-.52,1.05.36,2.68-.26,3.32.68,3.48.43,7.56-.05,11.41-.66,5.36-1.5,9.69-2.87,14.39-.32,1.09-.39,2.34-.82,3.26-.46,1.01-1.24,1.77-1.69,2.77-2.04,4.68-3.6,9.91-5.56,14.78-2.33,5.86-5.07,11.82-8.93,16.38-.02,1.25-1.8,2.35-1.16,3.02-.9.78-1.22,1.24-1.62,2.4-3.97,3.77-8.28,7.62-12.84,11.92-3.65,3.45-7.82,6.25-11.84,8.69-.93.57-1.6,1.53-2.53,2.1-2.38,1.44-5.7,3.42-8.47,4.47-3.25,1.24-6.83,1.73-10.82,2.66-2.32.52-4.46,1.7-6.67,2.27-2.38.62-4.73.77-7.09,1.29-1.86.41-3.24.88-5.18.98-8.09.38-16.63,1.29-25.27-.04-5.88-.92-12.99-1.85-18.6-3.46-5.21-1.48-9.82-3.87-14.48-5.13-3.67-1.88-7.03-3.98-10.81-5.77-2.26-2.79-4.98-4.21-7.86-6.85-1.18-1.09-2.3-2.13-3.31-3.26-2.62-2.96-5.77-5-7.51-8.13-3.73-3.25-6.83-6.98-9.32-11.18-3.74-2.81-4.22-8.1-7.69-11.14-1.04-1.9-2.07-3.8-3.15-5.66.08-2.71-1.19-4.38-1.1-7.08-2.92-5.68-3.72-12.98-5.4-19.62.69-1.05.15-2.03.59-2.92ZM148.54,194.92c.75-.4.02-1.96-.21-2.66-.49.97.28,1.55.21,2.66Z"/>
    <g>
      <path class="cls-6" d="M252.98,155.26c.57-.48,1.07-.83,1.49-1.26,1.28-1.32,2.54-2.64,3.78-3.99,1.99-2.14,4.62-3.45,7.41-4.52,4.18-1.59,8.63-2.24,13.13-2.67.86-.08,1.75.15,2.62.11,1.54-.06,3.07-.29,4.6-.32,2.45-.03,4.54-.75,6.6-1.88,1.95-1.06,4.16-1.75,6.21-2.66,1.6-.71,3.24-1.39,4.7-2.3,1.63-1,3.07-2.25,4.59-3.39.26-.2.54-.38.78-.56.78.33.8.89.89,1.46.43,2.58.32,5.09-.52,7.59-.76,2.24-.94,4.62-1.98,6.81-1.13,2.35-2.81,4.28-4.83,5.98-1.86,1.56-3.8,3.07-5.77,4.52-3.29,2.41-6.81,4.49-10.88,5.76-1.39.44-2.69,1.12-3.98,1.77-2.25,1.16-4.45,2.39-6.69,3.56-1.67.88-3.42,1.64-5.07,2.57-2.1,1.18-4.13,2.47-6.12,3.8-2.11,1.4-3.16,3.08-3.74,5.29-.88,3.36-1.17,6.78-1.22,10.23,0,.23-.01.46-.02.83-.43-.02-.81.01-1.18-.05-2.74-.46-5.48-.97-8.22-1.41-.81-.14-1.65-.1-2.47-.2-1.44-.18-5.13-.57-5.25-.64-1.27-.68-1.25-.26-.85-1.33.92-2.46,1.32-6.38.09-8.69-.66-1.25-1.41-2.36-2.55-3.31-1.85-1.55-4.09-2.38-6.3-3.31-2.81-1.17-5.74-1.78-8.77-2.23-4.78-.73-9.5-1.79-14.25-2.7-.61-.12-1.22-.25-1.83-.28-2.89-.14-5.61-.97-8.19-2.01-1.99-.78-3.86-1.85-5.63-2.98-2.77-1.76-5.42-3.67-8.11-5.53-1.8-1.25-3.27-2.73-4.34-4.56-.75-1.29-1.62-2.53-2.49-3.76-1.01-1.41-1.25-2.98-1.27-4.57-.01-1.19.55-1.48,1.77-1.03,2.69,1,5.34,2.08,8.07,2.97,2.25.72,4.58,1.18,6.84,1.83,2.32.67,4.62,1.44,6.93,2.12,1.13.33,2.28.6,3.44.83,2.83.56,5.65,1.22,8.55,1.24.92,0,1.84-.08,2.72-.27,4.08-.86,8.13-1.89,12.23-2.64,2.63-.47,5.32-.84,8.12-.45,1.16.16,2.41-.04,3.66.12,3.7.47,7.03,1.89,10.39,3.23.79.32,1.4,1.08,2.04,1.68.31.29.52.68.89,1.19Z"/>
      <path class="cls-1" d="M246.7,229.43c.27.19.4.3.52.35,1.34.53,1.47.71,1.48,2.05,0,1.35-.43,1.76-1.87,1.64-.76-.07-1.5-.23-2.26-.35-1.71-.27-3.42-.55-5.12-.85-.52-.1-1.02-.27-1.55-.43.66-1.44,1.19-1.77,2.46-1.68,1.77.11,2.12-.12,2.3-1.76.46-4.2.88-8.4,1.3-12.61,0-.07-.07-.16-.2-.43-.34.65-.62,1.2-.92,1.74-1.09,2.01-2.21,4.01-3.29,6.02-1.49,2.76-2.96,5.53-4.42,8.3-.64,1.21-.64,1.21-1.97,1.08-2.15-.22-3-1.06-3.41-3.17-.66-3.47-1.37-6.94-2.13-10.4-.26-1.21-.75-2.39-1.08-3.58-.4-1.43-.73-2.9-1.13-4.34-.12-.47-.33-.91-.65-1.36-.53,1.5-.97,3-.98,4.57,0,3.55-.6,7.02-1.22,10.49-.08.44-.15.89-.15,1.33.04,1.21.15,1.32,1.36,1.57,2.43.5,2.74.94,2.35,3.67-.53-.12-1.07-.16-1.54-.37-2.56-1.11-5.18-1.44-7.92-.99-1.22.2-1.81-.49-1.28-1.58.3-.63.85-1.3,1.47-1.61,1.44-.72,1.96-1.83,2.07-3.34.19-2.63.46-5.25.77-7.87.12-1.08.37-2.15.55-3.22.46-2.78.92-5.57,1.33-8.36.22-1.47-.31-2.07-1.8-2.36-.15-.03-.3-.05-.44-.09-1.62-.39-2.23-1.92-1.22-3.19.17-.2.52-.34.78-.36.71-.03,1.42.02,2.14.04.4,0,.85.12,1.2-.01.71-.27,1.28.02,1.89.26.51.19,1.06.31,1.59.32.86.01,1.41.3,1.48,1.09.55,4.87,2.03,9.54,3.32,14.25.4,1.44.64,2.92,1,4.37.48,1.99,1.01,3.97,1.53,5.95.03.12.17.22.31.39.87-1.57,1.69-3.08,2.53-4.58.84-1.53,1.76-3.01,2.51-4.58,1.51-3.19,2.93-6.42,4.37-9.64.54-1.22,1.09-2.45,1.54-3.71.28-.77.77-1,1.51-.89,2.42.38,4.85.73,7.24,1.19,1.57.3,1.94,1.01,1.53,2.49-.24.84-.73,1.26-1.65,1.19-.88-.06-1.68.07-2.53.35-1.07.36-1.56.98-1.65,2.04-.22,2.83-.44,5.65-.72,8.46-.34,3.36-.75,6.71-1.12,10.08-.09.83-.14,1.66-.21,2.41Z"/>
      <path class="cls-3" d="M295.84,137.4c-1.19.62-2.23,1.14-3.24,1.71-.64.36-1.11.19-1.66-.18-2.12-1.43-4.21-2.89-6.4-4.23-2.19-1.36-4.59-2.4-7.12-3.15-4.43-1.3-8.88-2.57-13.44-3.48-6.3-1.25-12.63-2.02-19.03-2.08-5.38-.05-10.61.8-15.56,2.6-1.65.6-3.37,1.04-5.04,1.59-1.19.39-2.4.77-3.52,1.27-2.78,1.22-5.53,2.49-8.24,3.8-4.27,2.07-7.86,4.91-11.17,8.02-.58.55-1,1.24-1.49,1.86-.27.33-1.32,1.47-1.61,1.77-1.44,1.41-1.45,1.4-3.48.71-2.39-.82-1.65-1.87-.34-3.8.49-.73.74-1.58,1.2-2.32.92-1.49,2.39-2.56,3.76-3.67,2.05-1.66,4.18-3.25,6.35-4.8,1.25-.89,4.36-2.4,4.4-2.51.54-1.3,8.97-4.73,11.92-5.93,3.16-1.28,6.49-2.09,9.98-2.47,2.23-.24,4.46-.56,6.7-.79,4.25-.41,8.52-.22,12.78.12,2.35.19,4.74.24,7.07.6,4.12.61,8.29,1.15,12.31,2.19,5.65,1.45,10.96,3.74,15.86,6.73,2.07,1.26,4.14,2.5,6.2,3.76,1.12.69,2.06,1.54,2.81,2.65Z"/>
      <path class="cls-1" d="M181.14,194.4c-1.32.09-1.93-.56-2.64-1.24-.8-.76-.68-1.52-.44-2.33.15-.5.57-.67,1.17-.64,1.84.11,3.67.16,5.52.28.86.05,1.74.14,2.59.34,1.23.28,1.61.86,1.46,1.96-.21,1.45-.21,1.46-1.79,1.69-.44.06-.89.06-1.5.1-.08.36-.23.79-.27,1.23-.28,2.93-.53,5.87-.81,8.8-.33,3.48-.58,6.97-1.04,10.44-.45,3.41-1.29,6.76-2.29,10.05-.51,1.69-1.33,3.35-2.36,4.83-1.69,2.42-4.46,3.32-7.61,3.01-1.26-.12-2.51-.87-3.69-1.45-2.87-1.43-3.42-2.56-2.4-5.25.44-1.19,1.2-2.27,1.87-3.51.38.29.66.47.91.69.22.19.42.42.64.63,2.43,2.19,3.73,2.72,7.43,1.12.62-.27,1.05-.67,1.18-1.31.37-1.84.79-3.68,1.13-5.53.8-4.43,1.58-8.86,2.33-13.29.3-1.71.64-3.4.38-5.21-.2-1.27.14-2.57.21-3.85.03-.45-.01-.9-.02-1.56Z"/>
      <path class="cls-1" d="M319.67,219.49c-.36-.52-.72-.91-.89-1.36-1.25-3.1-4-4.69-7.45-4.1-.81.14-1.63.59-2.23,1.11-1.25,1.1-1.59,2.6-1.4,4.18.05.47.44,1.01.86,1.33,1.47,1.16,3,2.26,4.55,3.33,1.89,1.31,3.96,2.38,5.6,4,.29.28.8.38,1.36.63.23.74.46,1.72.85,2.66.65,1.64.49,3.32.64,4.98.05.54-.22,1.12-.45,1.64-.8,1.96-1.9,3.74-3.67,5.11-.73.56-1.53.89-2.51.88-2.47-.01-4.94.06-7.42-.06-2.95-.14-6.75-2.16-7.59-5.96-.16-.75-.18-1.43.4-2.01.95-.97,1.89-1.96,2.91-2.87.88-.78,1.85-1.48,3.44-1.16,0,.55.12,1.13-.01,1.65-.23.92-.58,1.81-.92,2.7-.41,1.07-.15,1.95.94,2.43,2.01.89,4.07.8,5.99,0,1.16-.48,1.67-1.65,2.11-2.69.67-1.61.61-3.22-.41-4.83-1.2-1.89-2.68-3.35-4.77-4.5-2.95-1.62-5.37-3.79-6.61-6.95-.85-2.17-.39-3.95.95-5.62.7-.86,1.51-1.65,2.24-2.49.85-.96,1.98-1.57,3.28-1.62,1.94-.07,3.91,0,5.84.23,1.89.23,3.76.69,5.61,1.15,1.9.46,2.36,1.11,1.77,2.83-.54,1.56-1.38,3.03-2.12,4.52-.14.28-.47.46-.9.85Z"/>
      <path class="cls-1" d="M272.78,208.67c-.38-.11-.53-.17-.67-.2-1.45-.35-2.04-1.86-1.17-3.04.37-.5.95-.67,1.52-.36,2.69,1.46,5.8,1.34,8.65,2.18,1.77.51,3.56.41,5.35.45,1.06.02,1.71.44,2.05,1.5.43,1.37,1.03,2.69,1.47,4.07.18.59.13,1.26.19,1.94-1.1.17-1.75-.29-2.15-.94-.76-1.24-1.83-1.86-3.25-2.09-1.51-.25-3-.72-4.53-.95-1.52-.24-1.89.15-2.05,1.7-.21,2-.43,3.99-.63,5.99-.13,1.33-.01,1.48,1.34,1.63.47.05.94.05,1.39.13.98.17,1.79-.04,2.51-.8.37-.41.9-.7,1.4-.95.83-.42,1.4-.22,1.63.71.17.63.19,1.34.07,1.97-.29,1.57-.67,3.13-1.08,4.68-.09.34-.44.91-.64.89-.44-.04-.96-.28-1.28-.6-.29-.31-.38-.83-.53-1.27-.28-.84-.86-1.29-1.72-1.28-1.08,0-2.17.07-3.24.1-.56,0-.86.31-.95.83-.36,2.45-.72,4.89-1.08,7.35-.11.76.29,1.17.99,1.32,1.92.41,3.82.93,5.75,1.11,1.01.09,2.09-.44,3.13-.7.75-.2,1.48-.5,2.23-.59,1.07-.13,1.65.44,1.39,1.45-.34,1.29-.88,2.52-1.35,3.77-.23.58-.74.66-1.29.61-2.3-.22-4.61-.44-6.92-.66-.91-.09-1.85-.2-2.76-.31-2.2-.28-4.39-.54-6.57-.85-.44-.06-.86-.33-1.28-.51-.57-.24-1.19-.43-1.12-1.26.08-.78.4-1.38,1.09-1.76.18-.1.38-.18.58-.21.78-.13.92-.67.99-1.35.17-1.74.38-3.48.58-5.22.31-2.86.6-5.73.93-8.6.31-2.56.66-5.11.95-7.67.08-.7.07-1.42.1-2.19Z"/>
      <path class="cls-1" d="M263.35,235.92c-.32.03-.67.13-1.01.1-1.79-.17-3.58-.38-5.36-.59-.36-.04-.71-.17-1.04-.31-.63-.27-.95-.76-.88-1.48.08-.69.2-1.41,1.03-1.52,1.35-.17,1.52-.99,1.59-2.17.18-2.41.57-4.81.86-7.21.25-2.15.5-4.3.75-6.45.36-3.12.73-6.23,1.09-9.43-.67-.27-1.3-.48-1.9-.75-.5-.22-1.14-.4-1.04-1.14.09-.72.25-1.48,1.03-1.79.41-.16.91-.28,1.35-.22,1.68.22,3.35.52,5.03.78.5.08,1.18.09,1.2.74.01.46-.24,1.19-.56,1.34-1.8.76-1.52,2.36-1.71,3.79-.16,1.22-.39,2.44-.59,3.65-.13.86-.27,1.73-.38,2.6-.27,2.3-.54,4.61-.8,6.91-.3,2.77-.64,5.53-.91,8.3-.12,1.4-.06,1.42,1.3,1.92,1.04.39,1.32,1.19.96,2.93Z"/>
      <path class="cls-3" d="M261.77,276.25c-.06-.13-.24-.31-.24-.48.02-1.19.03-2.37.14-3.55.09-.99.52-1.77,1.68-1.88.71-.06,1.42-.24,2.13-.28,3.8-.19,7.62-.27,11.31-1.38,2.76-.84,5.49-1.79,8.06-3.09,1.1-.55,2.14-.65,3.26-.1.49.24,1.08.3,1.61.5.34.14.64.4.96.61-.17.29-.22.47-.34.54-2.64,1.5-5.17,3.22-7.94,4.44-5.82,2.56-11.89,4.33-18.37,4.22-.73,0-1.46.27-2.26.43Z"/>
      <path class="cls-3" d="M219.5,263.08c-1.66,1.75-2.6,3.53-4.09,4.72-1.11-.5-2.06-1-3.04-1.38-3.51-1.34-6.6-3.32-9.39-5.82-1.68-1.51-3.26-3.18-5.11-4.45-1.27-.88-1.44-2.13-1.98-3.29-.04-.1.09-.28.19-.57.39.13.75.24,1.1.39,1.38.56,2.74,1.17,4.14,1.71.65.25,1.32.5,2.1.25.31-.1.91.18,1.18.48,2.54,2.77,5.89,4.29,9.17,5.88.92.45,1.91.74,2.88,1.1.81.3,1.63.56,2.84.98Z"/>
      <path class="cls-5" d="M198.13,242.5c.31-.4.55-.75.83-1.09.16-.2.28-.53.75-.34.31.12.34.37.07.77-.3.44-.61.87-.95,1.29-.19.22-.25.4-.12.68.08.17.04.38.06.56-.06.02-.12.05-.18.08-.34-.2-.68-.4-.94-.55-.56.03-1.07.12-1.56.07-.85-.09-1.48-.53-1.79-1.17-.28-.57-.13-1.12.41-1.47.8-.5,1.07-1.1.84-1.97-.2-.75.51-1.17,1.14-1.54.13-.08.43-.04.64.02.64.2,1.11.78,1,1.28-.08.34-.3.66-.47.97-.03.07-.13.13-.19.2-.8.84-.73,1.24.46,2.21ZM196.13,241.53c-.48.2-.85.41-.97.81-.16.51.24.85.89.78.32-.04.64-.1,1.03-.15-.21-.53-.38-1.01-.95-1.43ZM197.43,238.56c-.85.34-1.01.6-.75,1.17.39-.33.8-.61.75-1.17Z"/>
      <path class="cls-5" d="M205.81,235.32c.32-.48.66-.95.98-1.44.18-.28.31-.59.52-.84.14-.17.41-.43.52-.38.2.08.38.33.49.55.3.7.58,1.41.93,2.26.28-.39.52-.7.73-1.04.27-.46.52-.95.78-1.41.14-.25.34-.46.65-.33.37.15.31.46.19.76-.49,1.29-1.18,2.48-2.04,3.55-.46.57-.93.47-1.2-.24-.25-.7-.43-1.43-.67-2.26-.61.6-.98,1.29-1.29,2.01-.12.3-.27.51-.64.52-.38.01-.71-.08-.9-.44-.09-.19-.18-.38-.24-.58-.18-.84-.33-1.69-.48-2.55-.06-.29-.09-.59-.12-.89-.03-.29.03-.58.35-.62.33-.05.47.21.54.49.11.53.21,1.05.34,1.58.09.4.2.81.31,1.21.08.03.15.06.24.09Z"/>
      <path class="cls-5" d="M282.49,254.28c.28,1.09,1.24,1.71,1.53,2.77-.57.14-.85-.17-1.1-.45-.53-.56-1.02-1.16-1.55-1.74-.13-.13-.36-.3-.49-.26-.14.03-.29.28-.33.46-.08.41-.12.82-.16,1.24-.03.28-.09.59-.44.54-.18-.03-.42-.24-.49-.43-.64-1.71-.15-3.39.22-5.06.13-.57.4-.63,1.01-.53.39.07.77.09,1.16.09.97,0,1.71.6,1.91,1.55.13.64-.25,1.23-1.07,1.66-.08.04-.14.1-.21.15ZM280.83,251.88c-.05.37-.12.71-.15,1.04-.03.28.14.43.42.48.61.13,1.39-.31,1.65-.99-.49-.6-1.15-.58-1.92-.53Z"/>
      <path class="cls-5" d="M228.62,247.01c.18-.8.31-1.38.44-1.95.07-.32.1-.68.24-.98.1-.18.38-.35.6-.37.33-.04.55.2.61.52.03.17.04.34.02.51-.12,1.24-.46,2.42-.98,3.56-.27.62-.8.59-1.28-.03-.61-.78-1.22-1.55-1.84-2.32-.09-.11-.22-.19-.43-.39-.15.39-.32.69-.43,1.01-.17.51-.3,1.02-.47,1.53-.09.25-.21.5-.57.36-.29-.11-.52-.3-.42-.65.02-.08.03-.16.06-.24.31-1.26.61-2.51.6-3.82,0-.4.31-.55.65-.32.21.14.38.35.55.55.85.95,1.68,1.92,2.65,3.03Z"/>
      <path class="cls-5" d="M281.94,242.94c1.38.99,2.22,2.31,2.83,3.82.06-.01.12-.02.19-.03.28-.74.56-1.48.83-2.22.06-.14.06-.29.12-.43.07-.25.11-.57.49-.52.38.06.55.37.5.73-.1.58-.24,1.16-.39,1.74-.17.61-.35,1.2-.53,1.8-.1.33-.06.78-.55.82-.46.04-.87-.12-1.12-.57-.43-.78-.86-1.57-1.3-2.34-.08-.15-.19-.28-.4-.6-.15.65-.26,1.13-.41,1.59-.17.51-.37,1-.61,1.47-.06.14-.37.27-.5.22-.18-.08-.43-.35-.4-.48.3-1.57.64-3.12.98-4.68.02-.07.11-.13.27-.31Z"/>
      <path class="cls-5" d="M237.79,239.27c.12-.56.26-1.12.38-1.69.07-.32.06-.66.19-.96.08-.17.34-.39.5-.37.16,0,.41.28.42.46.03.43-.03.89-.11,1.33-.16.94-.37,1.86-.56,2.8-.08.39-.18.78-.68.81-.48.04-.85-.28-1.02-.82-.23-.74-.45-1.48-.7-2.22-.07-.21-.21-.39-.43-.79-.18.49-.31.77-.4,1.07-.15.55-.29,1.1-.42,1.65-.09.31-.24.58-.61.52-.38-.06-.53-.35-.5-.72.02-.27.07-.53.15-.79.25-.92.52-1.84.8-2.75.2-.67.59-.76,1.22-.42.85.46,1.07,1.31,1.35,2.11.09.26.16.54.24.81.06,0,.12-.01.19-.02Z"/>
      <path class="cls-5" d="M268.72,251.95c-.25.74-.45,1.35-.64,1.97-.1.29-.18.6-.6.52-.36-.06-.55-.38-.43-.82.28-1.09.59-2.19.93-3.27.06-.19.29-.46.44-.45.18,0,.4.23.51.42.61,1.05,1.19,2.12,1.79,3.19.03.05.08.08.18.16.37-.37.43-.86.55-1.33.17-.63.32-1.27.52-1.89.06-.18.3-.43.46-.44.34-.01.54.29.54.6-.01.38-.1.77-.2,1.14-.23.87-.49,1.72-.72,2.58-.12.45-.19.88-.8.89-.12,0-.24.23-.35.35-.54-.05-.7-.41-.86-.82-.32-.84-.66-1.66-1-2.49-.03-.07-.12-.12-.3-.3Z"/>
      <path class="cls-5" d="M218.22,235.42c-.6.33-.37,1.03-.53,1.59-.09.34-.06.72-.14,1.06-.03.18-.2.33-.3.48-.17-.14-.43-.24-.49-.42-.12-.32-.15-.68-.17-1.03-.06-.83-.13-.95-.98-1.09-.14-.02-.29-.03-.44-.05-1-.06-.99-.06-1.26.93-.08.29-.21.56-.32.85-.44.11-.65-.14-.64-.5,0-.71.04-1.42.13-2.12.07-.55.24-1.1.38-1.64.03-.14,0-.31.09-.43.07-.13.24-.3.36-.3.12,0,.33.19.34.32.06.43.06.88.08,1.32.61.02,1.2.01,1.77.05.55.03.93-.18,1.11-.71.11-.3.18-.72.6-.63.42.09.28.52.29.83.02.46.07.92.12,1.5Z"/>
      <path class="cls-5" d="M209.87,240.12c1.39.4,2.21,1.32,2.69,2.53.38.96-.24,2.18-1.2,2.48-.85.26-1.74.43-2.61.57-.64.11-1.02-.15-1.01-.81.02-.91.2-1.82.29-2.74.03-.34.1-.7.07-1.05-.05-.62.18-.98.79-1.03.35-.03.71.03.99.04ZM209.31,241.27c-.35,1.07-.54,2.7-.38,3.38.44-.09.93-.11,1.36-.27,1.14-.42,1.54-1.47.93-2.43-.43-.68-1.11-.82-1.91-.67Z"/>
      <path class="cls-1" d="M297.52,217.96c-.07.35-.16.7-.23,1.06-.11.5-.37.95-.89.89-.4-.05-.92-.29-1.12-.61-.35-.55-.6-1.22-.7-1.87-.43-2.54-.82-5.09-1.17-7.64-.14-1.04.12-2.05.7-2.96.91-1.43,2.97-1.41,3.82.09.63,1.14.99,2.37.76,3.71-.43,2.44-.83,4.88-1.23,7.32.02,0,.04.01.06.02Z"/>
      <path class="cls-5" d="M223.5,243.62c-.71-.1-1.32-.18-1.93-.26-.62-.08-.67-.04-.87.54.39.43,1.4.22,1.35,1.23-.33,0-.64,0-.96,0q-.77,0-.8.9c.38.09.78.17,1.17.26.32.06.67.06.96.19.2.09.33.35.48.54-.18.12-.35.32-.54.34-.68.05-1.37.07-2.05.02-.91-.07-1.41-.66-1.28-1.51.15-1.03.34-2.05.56-3.07.12-.6.37-.68,1.01-.56.52.11,1.06.12,1.59.17.82.07,1.13.32,1.32,1.22Z"/>
      <path class="cls-5" d="M242.41,239.23c.85-.32,1.5-.12,2.13.11.32.11.46.43.33.74-.27.65-.6,1.29-.93,1.92-.04.09-.17.17-.28.21-1.87.61-3.53-.4-3.52-2.33.02-2.33,2.11-3.19,3.8-2.83.14.03.3.09.39.2.1.1.17.27.15.39-.03.11-.2.25-.31.27-.29.05-.58.03-.89.04-1.11.04-2.17,1.27-2.05,2.38.08.8.67,1.24,1.43,1.1.39-.08.65-.29.71-.7.05-.35.09-.71-.33-.92-.21-.11-.36-.33-.62-.57Z"/>
      <path class="cls-5" d="M222.69,237.64c-.59-.03-1.1-.09-1.61-.06-.26.02-.54.18-.78.33-.18.11-.3.29-.45.44-.34.35-.67.36-1.03-.15.21-.33.4-.73.66-1.07.67-.87,1.35-1.76,2.07-2.59.59-.67,1.22-.59,1.67.2.16.3.27.66.33,1.01.18,1.15.32,2.3.46,3.46.03.15.05.31,0,.45-.04.12-.15.32-.25.33-.15.02-.37-.04-.46-.15-.14-.18-.24-.41-.3-.64-.11-.49-.2-.98-.32-1.56ZM221.35,236.62c.5.04.81.06,1.24.09-.09-.46-.15-.78-.21-1.11-.07-.01-.14-.04-.2-.05-.23.3-.47.6-.82,1.07Z"/>
      <path class="cls-5" d="M286.57,251.64c1.2.6,2.66.29,3.84,1.14-.15.41-.48.49-.9.43-.47-.09-.94-.18-1.41-.25-.3-.06-.62-.07-.7.34-.08.42.14.61.51.7.36.08.71.13,1.05.25.28.11.53.29.78.44-.01.07-.03.13-.04.2-.18.06-.35.16-.53.17-.24,0-.46-.08-.71-.12-1.15-.2-1.46.06-1.46,1.24,0,.14.05.29.07.43.82.38,1.94-.18,2.55.86-.12.09-.21.23-.28.23-.98-.09-1.96-.18-2.93-.31-.27-.03-.52-.19-.49-.53.15-1.63.29-3.27.44-4.91.01-.05.06-.09.21-.29Z"/>
      <path class="cls-5" d="M265.76,251.93c-.38-.05-.75-.08-1.11-.14-.35-.06-.7-.15-1.11-.24-.08.32-.13.59-.2.9.8.47,1.86.48,2.51,1.45-.27.04-.45.12-.64.1-.68-.07-1.36-.18-2.04-.27-.82-.11-1.1-.44-.97-1.26.17-1.12.35-2.24.55-3.37.1-.51.2-.59.74-.48.87.18,1.74.39,2.61.6.3.06.49.25.42.57-.07.32-.34.41-.63.36-.4-.07-.81-.21-1.22-.27-.32-.05-.75-.28-.9.25-.13.54.34.52.66.65.41.17.8.37,1.2.58.13.08.23.19.35.28-.07.09-.13.18-.21.28Z"/>
      <path class="cls-5" d="M279.35,245.49c-.17.93-1.44,2.01-2.47,2-1.4,0-2.49-1.62-2.05-3.03.05-.17.14-.33.19-.5.58-1.35,1.16-1.67,2.59-1.41,1.35.24,1.99,1.13,1.8,2.5-.02.11-.03.23-.07.44ZM275.75,244.87c0,.4-.03.68.02.93.12.78.55.99,1.27.69,1.05-.42,1.36-.99,1.21-2.18-.09-.75-.93-1.16-1.51-.67-.41.35-.7.85-.99,1.22Z"/>
      <path class="cls-5" d="M247.35,251.51c-1.39-.43-2.17-1.54-3.13-2.63-.21.91-.39,1.7-.56,2.52-.51-.07-.7-.32-.65-.71.15-1.22.29-2.45.47-3.67.13-.8.38-.95,1.21-.78.47.09.93.21,1.4.35.55.17.88.57,1.12,1.05.2.41-.05.85-.6,1.05-.34.13-.71.2-1.13.31.35,1.06,1.52,1.47,1.87,2.5ZM246.47,247.52c-.5-.17-.84-.33-1.19-.4-.77-.17-.98.06-.88.91q1.42-.08,2.07-.51Z"/>
      <path class="cls-5" d="M252.39,248.09c-.91-.11-1.75-.2-2.57-.29-.26.85-.25.85.38,1.18.46.24,1.03.36,1.11,1.12-.58-.05-1.12-.09-1.75-.14-.04.33-.07.62-.12,1.01.54.09,1,.15,1.46.24.67.12.8.25.9.92-.48-.02-.93-.03-1.4-.04-.38-.02-.77-.05-1.15-.03-.57.02-.98-.27-1.02-.82-.04-.39-.01-.79.04-1.18.09-.81.23-1.61.34-2.42.11-.76.35-.92,1.1-.79.56.11,1.13.18,1.69.25.66.08.85.25.98.98Z"/>
      <path class="cls-5" d="M262.85,243.18c-.8-.11-1.36.12-1.69.8-.16.32-.3.67-.53.93-.11.13-.43.2-.6.15-.27-.09-.41-.35-.25-.66.58-1.14,1.13-2.27,1.73-3.4.24-.44.54-.96,1.11-.93.62.03.88.63,1.03,1.12.2.64.28,1.33.34,2,.08.82.08,1.65.11,2.51-.64.06-.88-.26-1-.68-.08-.28-.08-.59-.12-.89-.03-.31-.09-.63-.13-.95ZM262.48,241.46c-.02.34-.04.52-.06.69.09,0,.21.04.24,0,.21-.21.13-.38-.18-.69Z"/>
      <path class="cls-5" d="M295.18,252.75c-.25.04-.51.06-.76.14-.51.16-1.03.29-1.5.52-.49.25-.52.71-.13,1.11.14.15.33.26.51.36.7.33,1.05.96,1.35,1.61.28.57.16.94-.34,1.32-.82.63-2.26.71-3.13.15-.24-.15-.27-.43-.04-.58.15-.09.34-.14.5-.16.26-.03.55.02.8-.06.32-.1.74-.2.91-.44.22-.34-.24-.54-.45-.77-.42-.47-.87-.9-1.25-1.4-.43-.55-.39-1.02.01-1.55.53-.73,1.95-1.27,2.81-1.03.33.09.7.23.71.78Z"/>
      <path class="cls-5" d="M241.01,247.25c.05-.34.07-.74.16-1.12.03-.16.22-.42.32-.4.19.01.49.15.54.3.12.28.17.61.11.9-.14.68-.33,1.36-.57,2.02-.33.88-1.13,1.25-2.02,1.45-.52.12-1.34-.51-1.56-1.1-.3-.85-.37-1.7-.11-2.57.11-.35.23-.69.33-1.05.07-.22.19-.46.47-.37.2.06.4.26.48.44.07.16-.03.38-.05.57-.09.53-.2,1.05-.26,1.58-.08.68.05.98.41,1.1.4.14,1.2-.22,1.39-.67.14-.34.22-.69.34-1.09Z"/>
      <path class="cls-5" d="M215.69,246.64c-.21-.14-.48-.22-.57-.38-.41-.66-.79-1.33-1.13-2.02-.27-.54-.43-1.11-.65-1.67-.07-.19-.17-.37-.21-.56-.09-.36.19-.84.5-.86.41-.04.59.25.68.55.16.52.28,1.05.43,1.56.12.46.26.91.46,1.55.33-.36.55-.56.73-.8.52-.67,1.04-1.34,1.56-2.02.21-.28.41-.57.86-.36.29.12.4.55.08.95-.52.65-.98,1.32-1.44,1.99-.37.55-.7,1.15-1.05,1.72-.05.09-.13.17-.24.34Z"/>
      <path class="cls-5" d="M253.47,239.16c-.71.37-1.55.11-2.26.74.39.18.7.32,1,.47.81.43,1.2,1.41.89,2.18-.19.49-.52.78-1.06.81-.56.03-1.13.09-1.68.12-.18,0-.37-.05-.51-.14-.31-.18-.29-.56.06-.69.3-.11.64-.12.95-.19.21-.05.43-.06.6-.17.19-.11.45-.29.46-.47.02-.17-.18-.43-.36-.55-.33-.24-.73-.4-1.07-.63-.22-.14-.43-.32-.59-.53-.42-.55-.35-.8.31-1.06.53-.2,1.06-.41,1.59-.59.71-.24,1.27-.03,1.67.68Z"/>
      <path class="cls-5" d="M279.06,251.57c-.24.09-.42.21-.6.21-.33-.01-.65-.1-.98-.15-.86-.12-1.07.04-1.2.89-.12.8-.21,1.6-.34,2.4-.06.37-.1.82-.62.85-.35.03-.44-.25-.39-1.02.05-.69.09-1.37.1-2.06.02-.67-.18-1.24-.78-1.61-.1-.05-.23-.13-.28-.22-.07-.15-.13-.34-.08-.49.03-.09.25-.18.37-.17.45.03.89.1,1.34.15.74.1,1.49.17,2.22.31.34.06.67.22.98.39.12.08.16.29.27.52Z"/>
      <path class="cls-5" d="M260.66,248.55c-.29.02-.58.04-.85.04-1.58.03-2.45.88-2.5,2.43-.02.55.2.92.7,1.12.67.28,1.37.39,2.11.25.4-.09.77-.07.9.44-1.67,1.03-3.55.62-4.42-.95-.65-1.16-.23-2.93.9-3.65.59-.38,1.24-.58,1.95-.55.53.02.95.23,1.28.63-.03.09-.05.16-.07.25Z"/>
      <path class="cls-5" d="M268.51,241.58c-.12,1.13-.24,2.25-.36,3.37,0,.06,0,.11,0,.17-.03.33.1.77-.4.86-.29.05-.74-.48-.78-.88-.02-.17.03-.35.06-.52.11-.8.23-1.59.34-2.39.12-.84-.21-1.33-1.08-1.11-.37.09-.67.06-.76-.37-.07-.37.29-.75.72-.72.48.04.95.14,1.41.23.64.13,1.28.28,1.91.43.26.06.55.11.76.26.15.11.19.37.28.57-.17.08-.35.24-.52.23-.39-.02-.77-.12-1.15-.18-.11-.01-.23.02-.43.05Z"/>
      <path class="cls-5" d="M232.12,243.96c.37,0,.66-.03.94,0,.84.05,1.67.14,2.51.18.46.03.8.22,1.03.59.2.29.03.58-.34.57-.37,0-.76-.03-1.26-.06-.07.81-.15,1.56-.21,2.3-.04.51-.06,1.01-.14,1.51-.03.17-.22.43-.31.42-.21-.03-.5-.16-.57-.32-.12-.31-.18-.66-.18-.99,0-.37.07-.73.11-1.1.04-.36.07-.73.09-1.1.03-.75.02-.79-.74-1.01-.46-.14-.84-.32-.92-.99Z"/>
      <path class="cls-5" d="M256.97,244.43c-.85-.28-.85-.28-.76-.88.14-.92.3-1.83.46-2.74.04-.26.04-.52.07-.74-.47-.4-1.26-.02-1.52-.88.25-.05.47-.15.67-.13,1.09.12,2.19.28,3.28.42.15.02.31.07.42.15.12.11.25.29.22.43,0,.1-.25.23-.39.23-.27.02-.54-.07-.8-.08-.6,0-.74.09-.88.67-.13.58-.2,1.17-.33,1.77-.12.57-.28,1.13-.45,1.77Z"/>
      <path class="cls-5" d="M229.34,239.66c-1.24.3-2.41.29-3.56-.07-.53-.18-.69-.44-.58-1.04.17-1.05.4-2.1.62-3.14.07-.37.29-.64.67-.76.49.26.46.68.37,1.09-.14.62-.33,1.21-.47,1.82-.27,1.17-.08,1.4,1.1,1.38.36-.01.71-.05,1.07-.08.49-.04.71.2.78.81Z"/>
      <path class="cls-5" d="M272.39,247.07c-.57-.09-.84-.35-.84-.85,0-.2-.03-.42,0-.62.15-1.08.32-2.17.49-3.26.05-.34.01-.76.52-.79.4-.01.72.34.76.84.02.21,0,.42-.04.62-.23,1.2-.46,2.4-.71,3.6-.03.13-.11.27-.18.46Z"/>
      <path class="cls-5" d="M230.92,238.08c.12-.5.2-1,.34-1.48.11-.36.28-.72.48-1.05.06-.1.33-.16.46-.12.14.04.27.23.32.37.05.12,0,.3-.03.44-.33,1.3-.67,2.6-1.01,3.89-.08.29-.18.62-.6.5-.4-.12-.43-.44-.33-.8.13-.58.26-1.17.38-1.74h0Z"/>
      <path class="cls-6" d="M235.24,257.31c6.55.83,13.09,1.66,19.63,2.49.97.12,1.95.2,2.91.34.96.14,1.26.42,1.22,1.42-.06,1.44-.22,2.87-.41,4.3-.24,1.88-.55,3.75-.84,5.64-.03.2-.07.4-.09.61-.16,1.57-.96,2.32-2.58,2.72-3.03.74-6.06.49-9.08.4-2.71-.08-5.45-.27-8.13-.66-2.49-.35-4.97-.93-7.38-1.61-2.37-.67-4.7-1.53-7.01-2.41-.99-.38-1.94-.96-2.81-1.59-.78-.57-.8-1.15-.39-2.04,1.02-2.14,2.02-4.29,3.06-6.42.66-1.34,1.42-2.63,2.1-3.96.25-.47.57-.7,1.1-.66.67.05,1.34.06,2,.15,2.24.32,4.48.68,6.72,1.03-.01.09-.02.17-.03.25Z"/>
      <path class="cls-1" d="M212.65,227.32c-.09-.93-.75-1.36-1.65-1.57-.6-.14-1.08-.5-1.13-1.28-.08-1.23-.25-2.46-.38-3.68-.44-3.89-.72-7.81-1.33-11.68-.54-3.35-1.26-6.67-1.4-10.08-.03-.66-.09-1.34-.22-1.99-.18-.89-.45-1.76-.72-2.78-.64.23-1.07.37-1.48.54-.91.35-1.8.89-2.74,1.01-1.12.15-1.63.69-1.89,1.68-.1.39-.25.78-.39,1.17-.97,2.72-2,5.39-3.48,7.89-1.42,2.39-2.73,4.85-4.02,7.31-1.29,2.47-2.51,4.96-3.74,7.46-.33.69-.72,1.14-1.57,1.27-1.01.15-1.33.87-1.32,2.44,0,.83.2,1.11,1.4,1.25,2.4.28,4.8.47,7.22.71,1.38.13,1.86-.13,2.42-1.35.47-1.01.27-1.4-.83-1.59-.95-.16-1.89-.32-3.08-.53.32-.72.52-1.29.82-1.79,1.03-1.71,2.05-3.44,3.21-5.06.51-.73,1.01-1.76,2.31-1.42,1.6.43,3.21.75,4.8,1.19.39.11.91.48.99.81.52,2.21.92,4.43,1.37,6.66.15.75-.11,1.19-.89,1.32-.55.09-1.12.19-1.67.36-.25.09-.55.3-.67.55-.34.76.09,1.91.88,2.14,1.03.32,2.09.6,3.14.63,1.33.03,2.67-.19,4.01-.3,1.11-.09,2.11-.66,2.05-1.28ZM204.6,213.09c-2.04-.17-4.08-.31-6.11-.57-1.34-.17-1.59-.6-1.17-1.91.37-1.23.9-2.41,1.37-3.61.37-.96.68-1.95,1.16-2.86.41-.82.93-1.6,1.53-2.29.65-.75,1.24-.56,1.53.44.47,1.63.93,3.27,1.32,4.93.44,1.85.81,3.7,1.24,5.73-.37.06-.63.15-.87.14Z"/>
      <path class="cls-2" d="M196.13,241.53c.56.42.73.9.95,1.43-.38.05-.7.11-1.03.15-.65.07-1.04-.27-.89-.78.12-.4.49-.61.97-.81Z"/>
      <path class="cls-2" d="M197.43,238.56c.06.55-.36.84-.75,1.17-.26-.57-.1-.83.75-1.17Z"/>
      <path class="cls-2" d="M280.83,251.88c.76-.05,1.42-.07,1.92.53-.26.67-1.04,1.12-1.65.99-.27-.05-.44-.19-.42-.48.03-.34.1-.68.15-1.04Z"/>
      <path class="cls-2" d="M209.31,241.27c.79-.15,1.48,0,1.91.67.61.96.21,2.01-.93,2.43-.43.16-.92.18-1.36.27-.16-.67.03-2.3.38-3.38Z"/>
      <path class="cls-2" d="M221.35,236.62c.35-.47.59-.77.82-1.07.06.01.13.04.2.05.06.32.12.64.21,1.11-.43-.03-.73-.05-1.24-.09Z"/>
      <path class="cls-5" d="M205.07,243.22c-.59-.03-1.1-.09-1.6-.06-.26.02-.54.19-.79.34-.17.1-.3.29-.44.44-.33.36-.66.36-1.02-.15.2-.34.39-.72.65-1.07.67-.87,1.35-1.75,2.08-2.59.59-.67,1.21-.58,1.65.2.17.3.27.66.33,1.01.18,1.15.32,2.31.48,3.46,0,.15.03.31,0,.44-.05.13-.15.31-.25.33-.15.02-.37-.04-.46-.15-.15-.18-.24-.42-.3-.64-.12-.49-.21-.98-.32-1.57ZM203.72,242.2c.52.04.82.06,1.24.09-.09-.47-.15-.79-.22-1.11-.06-.02-.14-.03-.2-.06-.24.3-.46.61-.82,1.07Z"/>
      <path class="cls-2" d="M203.72,242.2c.36-.47.59-.77.82-1.07.06.02.14.04.2.06.07.32.13.64.22,1.11-.42-.03-.72-.05-1.24-.09Z"/>
      <path class="cls-2" d="M275.75,244.87c.29-.37.58-.88.99-1.22.58-.49,1.42-.08,1.51.67.15,1.18-.16,1.76-1.21,2.18-.73.3-1.15.08-1.27-.69-.05-.26-.02-.53-.02-.93Z"/>
      <path class="cls-2" d="M246.47,247.52q-.65.43-2.07.51c-.1-.85.1-1.08.88-.91.35.07.69.23,1.19.4Z"/>
      <path class="cls-2" d="M262.48,241.46c.32.32.39.49.18.69-.03.04-.15,0-.24,0,.02-.18.03-.35.06-.69Z"/>
      <path class="cls-3" d="M298.84,260.91c-3.8-.54-7.58-1.05-11.35-1.6-3.94-.57-7.86-1.19-11.8-1.76-6.79-.98-13.59-1.92-20.37-2.89-4.9-.69-9.81-1.4-14.7-2.09-4.1-.58-8.19-1.1-12.27-1.7-4.68-.69-9.37-1.49-14.06-2.16-7.04-.99-14.09-1.92-21.16-2.85-1.06-.14-2.15-.14-3.23-.19-.63-.03-.97.35-1.03.92-.04.34.04.72.15,1.05.4,1.27,1.12.61,1.53,1.88.27.84,1.16,1.59,2.02,1.69,2.56.28,5.12.54,7.67.84,1.44.17,2.86.4,4.28.63,2.29.35,4.58.75,6.88,1.08,3.68.53,7.36,1,11.03,1.51.43.06.85.24,1.41.41-.02.04-.03.07-.03.11l2,.27c.19-.15.43-.23.73-.2.67.05,1.34.06,2,.15,2.24.32,4.48.68,6.72,1.03-.01.09-.02.17-.03.25,6.55.83,13.09,1.66,19.63,2.49.97.12,1.95.2,2.91.34.53.08.86.2,1.04.46l2.2.35c0-.06.02-.12.02-.18.69.04,1.26.02,1.81.1,3.93.56,7.87,1.1,11.8,1.69,5.45.84,10.89,1.75,16.35,2.57,1.17.18,2.37.12,3,1.62.59-.61,1.09-1.04,1.5-1.54.63-.75,1.09-1.66,1.8-2.3,1.19-1.06,1.46-.42,1.54-1.99Z"/>
      <path class="cls-3" d="M327.72,202.19c.02-.19-.47-.45-.77-.64-1.25-.82-2.66-1.25-4.18-1.37-.52-.04-1.03-.07-1.55-.13-1.28-.17-1.4-.27-1.47-1.37-.04-1.01-.03-2.02.02-3.02.16-3.92.55-7.84-.02-11.77-.18-1.23-.22-2.47-.44-3.69-.38-2.13-.64-4.29-1.34-6.35-1.33-4.01-2.64-8.04-4.65-11.87-1.31-2.51-3.87-6.97-5.13-9.5-.66-1.32-1.17-1.44-2.39-.54-.41.3-.68.76-.94,1.19-.35.6-.6,1.24-.94,1.84-.42.76-.31,1.18.39,1.78.44.37,2.32,2.64,2.58,3.11.72,1.32,1.42,2.67,1.99,4.06.97,2.43,1.93,4.88,2.73,7.35.93,2.93,1.57,5.9,1.82,8.93.15,1.78.39,3.55.53,5.33.17,1.95.14,3.93.45,5.87.37,2.3.03,4.56.01,6.84,0,.26-.11.52-.19.88-.86.01-1.68.13-2.48.03-4.08-.52-8.16-1.09-12.22-1.66-1.64-.23-3.26-.54-4.89-.78-3.87-.58-7.75-1.12-11.63-1.71-4.07-.63-8.14-1.29-12.2-1.94-2.29-.37-4.57-.75-6.85-1.16l-5.21-.74c-.27,0-.54,0-.79-.05-.71-.12-1.43-.25-2.14-.38l-19.37-2.77-.16-.11c-.06,0-.1-.01-.17-.02-2.86-.4-5.72-.83-8.57-1.24-4.69-.68-9.38-1.35-14.07-2.02-4.12-.59-8.27-1.13-12.38-1.74-3.52-.52-7.03-1.13-10.54-1.69-1.37-.22-2.76-.38-4.13-.64-1.05-.2-1.2-.36-1.02-1.2.8-3.56,1.61-7.13,2.51-10.67.28-1.1,1.91-4.29,2.33-5.35.28-.71.39-1.45-.37-2.02-.62-.49-1.28-.96-2-1.35-1.13-.62-1.71-.52-2.48.4-.21.24-.33.56-.46.85-.29.72-1.59,3.62-1.89,4.34-1.19,2.85-1.87,5.84-2.49,8.83-.34,1.64-.57,3.31-.85,5.05-.46,0-.86.04-1.25-.01-1.43-.19-2.86-.37-4.27-.64-.82-.15-1.3-.01-1.55.69-.31.86-.7,1.69-1,2.56-.4,1.16.37,2.15,1.66,2.35,2.43.39,4.84.93,7.28,1.31,4.93.78,9.88,1.5,14.82,2.24,3.32.49,6.63.99,9.96,1.42,5.93.77,11.88,1.46,17.81,2.25,5.67.76,11.33,1.61,16.99,2.4,7.25,1.02,14.5,2.03,21.75,3.05,5.87.83,11.73,1.71,17.61,2.54,5.72.8,11.45,1.54,17.16,2.37,3.83.55,7.64,1.2,11.46,1.79,2.24.35,4.49.68,6.73.99,3.47.47,6.93.92,10.39,1.38.15.02.34.06.45,0,.51-.25,1.31-.44,1.45-.83.35-.96.45-2,.52-3.03Z"/>
    </g>
  </g>
  <g>
    <g>
      <polygon class="cls-4" points="79.78 138.99 27.42 215.64 30.03 218.94 129.91 215.47 94.03 149.56 83.36 137.09 79.78 138.99"/>
      <path class="cls-5" d="M111.84,176.35c3.5.51,2.58,5.9,6.25,6.23.1,3.85,2.07,5.65,4.51,6.91-.28,4.06,2.01,5.28,4.46,6.32.28,1-.4,1.13-1.12,1.24.83.82,2.79,1.35,1.33,2.9.46-.34.95-.66,1.75-.68.27,1.19-.03,1.86-1.1,1.84,1.19,1.5,4.61,4.74,2.67,5.81.6,1.01,1.92,1.22,3.61,1.01.33,4.85,3,7.12,2.99,12.34-.57-.34-2.25-1.28-1.74.67-1.07-1.12-4.13-.02-4.26-2.17-1.31,2.35-4.07-1.55-7.06,1.54-1.8.3-1.34-1.87-1.94-2.88-1.7.6.84,1.46.15,2.97-.46-.39-2-2.41-1.78.09-8.28-.58-20.59-.63-27.92.18-.03-.58-.06-1.18-.09-1.77-2.68,1.58-5.81,1.88-8.31.4-1.61,2.32-12.64,2.39-16.02.8-6.51,3.76-21.02.23-24.17,4.17-5.11-2.87-13.92.37-20.31-1.97-.6-1.86.4-2.28,1.04-3.03-2.39-.09-.99-.46-1.38-4.09,2.77-.9,3.9-3.26,3.83-6.73,2.75.43,1.2-3.05,4.03-2.58-.52-1.8-.47-1.12-.15-2.96,4.03.45,1.59-4.98,5.1-5.01-.41-.58-1.39-.54-1.28-1.72,2.39.65,1.12-2,3.51-1.36-.06-1-.1-1.98-.15-2.97.51-.48,1.31-.7,2.34-.7,3.47-8.95,9.98-15.13,13.68-23.86,2.05-.03,2.7-1.34,2.2-3.68,1.74.07,1.75-1.43,3.51-1.36,1.44-7.95,9.01-10.36,10.39-18.36,6.51-1.46,4.95-10.24,11.29-11.85-.41-.58-1.39-.54-1.28-1.72,1.95-.12,2.9-1.15,5.32-.85,2.66,1.88-.7,3.06,3.11,2.81-2.46,2.68.76,10.53,3.43,9.34.89.15.16,4.49,3.17,4-.33,1.84.73,2.14.78,3.53,7.63,6.37,9.09,19.56,16.74,25.91.26,1-.41,1.15-1.13,1.25ZM77.19,148.93c-1.88.82-.54-1.9-2.44-1.07-.9.3-.41,1.9-2.29,1.31-.73,3.12-1.47,6.22-4.4,7.36-.7,3.28,1.67,3.15,2.61,4.62-4.12,3.02-4.14,12.7-11.42,9.48.67,1.77,2.84,1.86,3.17,4.01-1.57.8-2.72,1.12-3.5,1.36,2.53,2.05-.67,1.55-1.64,3.05-2.53,3.94-3.91,10.12-8.35,11.11-.16,2.88-1.2,4.96-3.89,5.53,1.5,3.08-.87.43-1.7,1.88,3.82.72-2.44,2.6.21,4.15-4.22.88-3.18,6.55-6.11,8.63-.38-1.03.55-3.52-.76-3.54,0,.94.19,2.05-1.1,1.85-.64,1.95,1.94.35,1.31,2.3-2.46.61-2.01,3.85-3.29,5.53,6.18-1.37,16.23-1.48,23.13-1.15.11-.46-.04-1.17.53-1.22,23.01,2.1,41.35-1.48,69.45-2.24-1.29-6.23-6.8-9.22-8.96-12.63-.71-5.28-5.69-5.8-5.91-11.6-2.66.4-2.29-2.11-1.97-3.46-2.36.06-4.51-3.77-2.6-4.62-1.85,1-1.99-.35-3.62-1.01-4.29-12.95-14.52-22.09-19.43-32.33.03.6-1.01.8-1.18.05.72-.09,1.39-.24,1.13-1.24-1.65.57-1.58-.76-3-.45-2.87,4-4.15,9.46-8.94,11.74,1.25,2.03-.43,2.88-1.57,4.24-.72-2.35-.14-4.62.87-6.58.98-.03.4,1.62,1.27,1.72.13-2.55,2.17-7.39,3.91-4.94-.06-.82.21-1.32.5-1.81Z"/>
    </g>
    <text class="cls-7" transform="translate(60.3 205.23)"><tspan x="0" y="0">73</tspan></text>
  </g>
</svg>