<?xml version="1.0" encoding="UTF-8"?>
<svg id="Layer_1" xmlns="http://www.w3.org/2000/svg" viewBox="0 0 400 400">
  <defs>
    <style>
      .cls-1 {
        fill: #da242e;
      }

      .cls-1, .cls-2, .cls-3, .cls-4, .cls-5 {
        fill-rule: evenodd;
      }

      .cls-2, .cls-6 {
        fill: #fff;
      }

      .cls-3 {
        fill: #da252d;
      }

      .cls-6 {
        font-family: AmericanTypewriter-CondensedBold, 'American Typewriter';
        font-size: 42.62px;
        font-weight: 700;
      }

      .cls-4 {
        fill: #662d91;
      }

      .cls-7 {
        letter-spacing: -.06em;
      }

      .cls-8 {
        letter-spacing: -.02em;
      }
    </style>
  </defs>
  <g>
    <g>
      <polygon class="cls-4" points="78.87 148.6 26.51 225.25 29.12 228.55 129 225.09 93.12 159.17 82.44 146.7 78.87 148.6"/>
      <path class="cls-5" d="M110.93,185.96c3.5.51,2.58,5.9,6.25,6.23.1,3.85,2.07,5.65,4.51,6.91-.28,4.06,2.01,5.28,4.46,6.32.28,1-.4,1.13-1.12,1.24.83.82,2.79,1.35,1.33,2.9.46-.34.95-.66,1.75-.68.27,1.19-.03,1.86-1.1,1.84,1.19,1.5,4.61,4.74,2.67,5.81.6,1.01,1.92,1.22,3.61,1.01.33,4.85,3,7.12,2.99,12.34-.57-.34-2.25-1.28-1.74.67-1.07-1.12-4.13-.02-4.26-2.17-1.31,2.35-4.07-1.55-7.06,1.54-1.8.3-1.34-1.87-1.94-2.88-1.7.6.84,1.46.15,2.97-.46-.39-2-2.41-1.78.09-8.28-.58-20.59-.63-27.92.18-.03-.58-.06-1.18-.09-1.77-2.68,1.58-5.81,1.88-8.31.4-1.61,2.32-12.64,2.39-16.02.8-6.51,3.76-21.02.23-24.17,4.17-5.11-2.87-13.92.37-20.31-1.97-.6-1.86.4-2.28,1.04-3.02-2.39-.09-.99-.46-1.38-4.09,2.77-.9,3.9-3.26,3.83-6.73,2.75.43,1.2-3.05,4.03-2.58-.52-1.8-.47-1.12-.15-2.96,4.03.45,1.59-4.98,5.1-5.01-.41-.58-1.39-.54-1.28-1.72,2.39.65,1.12-2,3.51-1.36-.06-1-.1-1.98-.15-2.97.51-.48,1.31-.7,2.34-.7,3.47-8.95,9.98-15.12,13.68-23.86,2.05-.03,2.7-1.34,2.2-3.68,1.74.07,1.75-1.43,3.51-1.36,1.43-7.95,9.01-10.36,10.39-18.36,6.51-1.46,4.95-10.24,11.29-11.85-.41-.58-1.39-.54-1.28-1.72,1.95-.12,2.9-1.15,5.32-.85,2.66,1.88-.7,3.06,3.11,2.81-2.46,2.68.76,10.53,3.43,9.34.89.15.16,4.49,3.17,4-.33,1.84.73,2.14.78,3.53,7.63,6.37,9.09,19.56,16.74,25.91.26,1-.41,1.15-1.13,1.25ZM76.28,158.54c-1.88.82-.54-1.9-2.44-1.07-.9.3-.41,1.9-2.29,1.31-.73,3.12-1.47,6.22-4.4,7.36-.7,3.28,1.67,3.15,2.61,4.62-4.12,3.02-4.14,12.7-11.42,9.48.67,1.77,2.84,1.86,3.17,4.01-1.57.8-2.72,1.12-3.5,1.36,2.53,2.05-.67,1.55-1.64,3.05-2.53,3.94-3.91,10.12-8.35,11.11-.16,2.88-1.2,4.96-3.89,5.53,1.5,3.08-.87.43-1.7,1.88,3.82.72-2.44,2.6.21,4.15-4.22.88-3.18,6.55-6.11,8.63-.38-1.03.55-3.52-.76-3.54,0,.94.19,2.05-1.1,1.85-.64,1.95,1.94.35,1.31,2.3-2.46.61-2.01,3.85-3.29,5.53,6.18-1.37,16.23-1.48,23.13-1.15.11-.46-.04-1.17.53-1.22,23.01,2.1,41.35-1.48,69.45-2.24-1.29-6.23-6.8-9.22-8.96-12.63-.71-5.28-5.69-5.8-5.91-11.6-2.66.4-2.29-2.11-1.97-3.46-2.36.06-4.51-3.77-2.6-4.62-1.85,1-1.99-.35-3.62-1.01-4.29-12.95-14.52-22.09-19.43-32.33.03.6-1.01.8-1.18.05.72-.09,1.39-.24,1.13-1.24-1.65.57-1.58-.76-3-.45-2.87,4-4.15,9.46-8.94,11.74,1.25,2.03-.43,2.88-1.57,4.24-.72-2.35-.14-4.62.87-6.58.98-.03.4,1.62,1.27,1.72.13-2.55,2.17-7.39,3.91-4.94-.06-.82.21-1.32.5-1.81Z"/>
    </g>
    <text class="cls-6" transform="translate(60.75 214.85)"><tspan class="cls-7" x="0" y="0">7</tspan><tspan class="cls-8" x="18.88" y="0">4</tspan></text>
  </g>
  <g>
    <path class="cls-5" d="M179.17,172.24c.28-1.96.43-3.56.74-5.13.47-2.39,1.54-3.32,3.94-3.16,1.8.12,3.57.55,5.36.9,1.5.29,2.97.71,4.47.99,2.94.55,5.89,1.07,8.83,1.56,1.59.26,3.18.53,4.78.64,2.64.18,5.26,0,7.55-1.46,1.56.94,3.03,1.83,4.8,2.89-.55-2.56-1.03-4.76-1.62-7.47-1.57-1.19-3.56-2.76-5.64-4.24-2.51-1.78-3.47-4.21-3.26-7.21.05-.63.17-1.41-.13-1.88-.41-.64-1.11-1.1-2.07-.64-2.62,1.29-5.29,2.47-7.9,3.79-.54.27-.98.86-1.3,1.4-2.27,3.76-5.79,5.92-9.74,7.44-1.75.68-3.66.64-5.11-.84-1.03-1.05-.77-3.18.49-5.11,1.72-2.65,4.39-3.88,7.33-4.33,1.9-.29,3.88-.76,5.86-.02.51.18,1.29-.09,1.86-.35,2.52-1.17,5.01-2.4,7.5-3.61.65-.32,1.21-.59,1.46-1.45,1.06-3.63,3.87-4.53,7.05-2.3,1.87-.93,3.76-1.89,5.66-2.81,4.53-2.2,9.04-4.46,13.64-6.51,1.36-.61,2-1.95,3.21-2.5,1.14-.51,2.58-.33,3.76-.77,2.39-.9,4.68-2.05,7.06-3.01.99-.41,1.67-.99,2.22-1.94,2.08-3.6,5.13-5.94,9.28-6.69.22-.04.44-.08.65-.1,2.1-.24,3.06.16,3.73,1.54.84,1.75.66,3.58-.75,4.84-2.33,2.09-5.01,3.54-8.23,3.71-1.1.05-2.19.13-3.28.24-3.6.39-6.6,2.27-9.68,3.91-1.07.56-1.81,3.35-1.14,4.8,1.14,2.49,1.02,5.13,1.28,7.72.32,3.25-.98,6-2.68,8.62-.2.3-.39.62-.64.88-2.04,2.02-2.31,4.31-1.56,7.03.62,2.28.77,4.69,1.17,7.27.64-.3.98-.39,1.23-.6,1.31-1.1,2.8-1.22,4.35-.77,7.06,2.01,14.3,2.88,21.57,3.63,2.38.25,4.73.91,7.08,1.41,3.93.84,7.81,1.98,11.77,2.5,6.19.8,12.4.4,18.61-.26,3.48-.37,6.99-.49,10.48-.73.07,0,.15,0,.22,0,.99.13,2.23,0,2.63,1.15.37,1.05-.61,1.71-1.24,2.39-1.89,2.02-4.4,3.09-6.78,4.37-1.6.86-3.21,1.7-4.74,2.97.51,0,1.03.07,1.53,0,7.27-1.11,14.6-.51,21.9-.59,1.46-.02,2.92,0,4.37-.12,4.59-.37,9.17-.75,13.75-1.22,4.06-.42,8.12-.98,12.18-1.44.85-.1,1.74-.1,2.6,0,.34.04.92.49.91.74-.01.42-.31.95-.67,1.19-.46.32-1.07.48-1.63.58-2.45.44-4.88.91-7.34,1.22-6.38.81-12.76,1.66-19.16,2.27-8.21.78-16.46,1.23-24.66,2.04-8.9.88-17.81.8-26.73.82-10.18.02-20.29-.82-30.4-1.84-2.25-.22-4.46-.76-6.68-1.23-4-.84-8.03-1.14-12.12-1.41-6.69-.44-13.36-1.42-20.02-2.3-6.02-.8-12.08-1-18.15-1.14-7.31-.18-14.61-.62-21.91-.7-5.76-.06-11.52.2-17.28.41-4.09.16-8.17.4-12.25.76-2.61.23-5.25.55-7.78,1.18-3.27.82-6.56,1.44-9.92,1.71-1.37.1-2.72.46-4.09.62-.35.05-.73-.21-1.11-.34.15-.38.19-.92.46-1.11.72-.49,1.51-.9,2.32-1.19,8.25-2.94,16.44-5.99,25.11-7.65,9.43-1.81,18.9-2.99,28.48-3.36,1.36-.06,2.71-.38,4.12-.58ZM306.13,178.14c-1.37,0-2.26-.11-3.11.02-4.12.61-8.21,1.46-12.35,1.87-2.67.27-5.34,1.6-8.1.35-.23-.11-.57.05-.86.07-2.47.2-4.95.46-7.43.56-2.11.08-4.23.01-6.35-.05-2.78-.08-5.55-.21-8.32-.32-.58-.02-1.17.03-1.74-.05-1.65-.24-3.29-.61-4.95-.78-6.39-.65-12.8-1.29-19.2-1.83-4.44-.38-8.89-.59-13.26-1.65-2.04-.5-4.15-.71-6.21-1.12-3.01-.59-6-1.25-9.01-1.86-3.64-.73-7.13-2.17-10.9-2.29-.55-.02-1.09-.34-1.62-.56-1.91-.83-3.81-1.68-5.68-2.51-1.66,3.15-.79,5.1,2.34,5.61,3.24.53,6.51.94,9.75,1.46,10.02,1.62,20.04,3.28,30.06,4.89,2.53.4,5.07.85,7.61.92,1.73.06,3.47-.29,5.2.18,4.28,1.17,8.69.95,13.06,1.29,2.77.22,5.56.28,8.29.74,5.71.97,11.42,1.64,17.23,1.48,3.58-.09,7.18-.18,10.74.09,2.39.18,4.47-.46,6.55-1.35,1.01-.43,2.03-.86,2.96-1.42,1.73-1.02,3.57-1.9,5.31-3.73ZM195.56,168.44c-.05.21-.1.43-.15.65,1.36.46,2.7,1.03,4.09,1.38,4.17,1.07,8.35,2.13,12.56,3.04,2.78.6,5.6,1.03,8.43,1.38,5.01.63,10.02,1.16,15.03,1.68,3.7.38,7.41.66,11.12.99,4.22.38,8.43.82,12.66,1.14,3.34.26,6.69.48,10.05.53,2.25.04,4.51-.29,6.77-.34,1.45-.03,2.77-.4,4.38-1.19-1.86-.36-3.36-.68-4.87-.94-5.83-1-11.67-1.93-17.49-2.98-1.65-.3-3.17-.46-4.49.82-.17.16-.52.15-.91.24-.12-.73-.21-1.34-.3-1.9-2.17-1.04-3.79,1.27-6.13.89.6-.76,1.04-1.34,1.54-1.98-1.56-1.01-2.98-1.32-4.81-.87-5.76,1.43-11.59,2.46-17.57,1.43-1.22-.21-2.45-.44-3.68-.54-2.47-.2-4.74-.85-6.37-2.65-3.42.15-6.71.51-9.98.38-3.3-.13-6.57-.75-9.86-1.16ZM231.23,153.49c.39-.31.84-.54,1.08-.9.93-1.4,1.82-2.82,2.67-4.28,2.11-3.61,2.75-7.5,2.09-11.61-.23-1.47-.84-1.78-2.29-1.24-.34.13-.68.27-1.01.43-5.97,2.9-11.95,5.8-17.91,8.74-1.77.87-2.42,2.94-1.62,4.78,1.21,2.79,3.69,4.45,5.71,6.6,1.16-.39,2.21-.73,3.53-1.17-1.07-1.3-1.92-2.29-2.73-3.31-2.17-2.78-1.8-5.73,1.01-7.8.7-.52,1.43-1.02,2.2-1.43,2.4-1.28,3.97-.99,5.84,1,.4.43.82.84,1.15,1.32,1.41,1.99,2.03,4.03.48,6.27-.49.7-.93,1.51-.18,2.6ZM183.44,173.43v-4.85c-.67.35-1.14.78-1.22,1.26-.14,1-.18,2.03-.06,3.03.09.76.71.78,1.28.55ZM343.25,184.34v.1h1.63v-.1h-1.63Z"/>
    <path class="cls-5" d="M302,274.28c-2.47-.19-4.56-.31-6.63-.54-.34-.03-.73-.48-.92-.83-.68-1.28-1.37-2.58-1.9-3.93-1.06-2.71-2.02-5.46-3.19-8.62-.54,1.4-.52,2.44-.55,3.47-.08,2.19-.11,4.39-.22,6.57-.09,1.78-.46,2.17-2.18,2.42-1.15.17-2.32.25-3.48.36-.97.09-1.56-.33-1.68-1.3-.06-.5-.07-1.02-.07-1.53.01-5.85,0-11.69.05-17.54.02-1.75.31-3.49.42-5.24.27-4.37.51-8.74.76-13.2,2-.73,4.01-.7,6.11-.53,2.39,4.44,3.15,9.39,5.04,14.1.03-1.17.03-2.33.09-3.5.06-1.24.18-2.47.29-3.71.17-1.82.3-3.64.54-5.45.18-1.32.78-1.81,2.08-1.71,2.16.17,4.31.45,6.73.7-.95,13.14-1.68,26.3-1.27,40.01ZM294.33,253.61c-.22,0-.44,0-.66,0-2.38-5.93-3.82-12.17-5.63-18.42-1.59.15-3.02.28-4.7.43-.38,11.99-1.47,23.8-.84,35.92,1.01,0,1.94.08,2.85-.02,1.77-.19,1.92-.37,1.97-2.19.09-3.58.12-7.16.21-10.74.03-1.09.1-2.19.25-3.27.05-.33.42-.62.78-1.11.36.56.65.88.8,1.25,1.14,2.92,2.33,5.82,3.38,8.77.8,2.26,1.35,4.61,2.15,6.87.21.59.84,1.28,1.41,1.44,1.22.36,2.54.44,3.68.12.45-12.5.88-24.8,1.33-37.17h-5.56c-.14.98-.32,1.76-.36,2.55-.22,4.45-.39,8.89-.62,13.34-.04.75-.29,1.48-.45,2.23Z"/>
    <path class="cls-5" d="M251.4,270.61c-1.61-4.33-3.22-8.68-4.85-13.02-.16.02-.32.04-.48.06-.11.69-.3,1.37-.32,2.06-.07,2.26-.08,4.53-.12,6.79-.03,1.83-.17,1.97-2.02,2.02-1.75.04-3.51.1-5.26-.8-.6-12.48-.57-25.01.4-37.59,1.27,0,2.55.04,3.82-.01,1.3-.06,2.6-.22,4.2-.36v7.38c.14.03.29.05.43.08.97-1.69,2.02-3.33,2.87-5.07.53-1.08,1.26-1.56,2.4-1.49,2.17.13,4.33.28,6.72.43-.25.64-.39,1.1-.58,1.53-1.42,3.13-2.86,6.25-4.27,9.37-.72,1.59-1.52,3.15-2.05,4.8-.28.83-.29,1.92,0,2.73,1.39,3.76,2.84,7.51,4.43,11.18,1.18,2.75,2.63,5.38,3.94,8.07.78,1.6.46,2.24-1.25,2.2-2.62-.06-5.24-.23-8.01-.36ZM259.78,269.58c-.75-1.52-1.4-2.81-2.02-4.12-2.49-5.2-5.09-10.36-6.65-15.96-.37-1.31-.56-2.61,0-3.85,1.63-3.66,3.34-7.29,5.04-10.93.35-.78.75-1.53,1.23-2.5-1.82-.22-3.38-.41-4.71-.58-1.31,1.67-2.44,3.09-3.54,4.54-1.07,1.4-1.32,3.3-2.74,4.99-1.29-3.33-.53-6.47-1.27-9.69-1.64-.1-3.27-.2-5.12-.31-1.38,12.01-.9,23.82-.73,35.56,1.76.8,3.42,1.03,5.41.52-.45-4.34-.02-8.56.77-12.77,1.4.09,1.63,1.13,1.97,1.95,1.66,3.97,3.25,7.97,4.88,11.96.16.4.34.78.52,1.18h6.98Z"/>
    <path class="cls-5" d="M268.89,195.46c.27,4.59.52,8.85.76,13.11.12,0,.26,0,.39,0,1.16-3.94,2.33-7.88,3.54-11.98,1.74-.16,3.56-.34,5.68-.53-1.99,10.05-3.61,19.82-3.74,30.1-2.72.46-5.53.11-8.42.27-1.32-2.66-.28-5.46-.98-8.6-.82,2.96-1.51,5.44-2.21,7.97-1.94,0-3.89.04-5.83-.02-.88-.03-1.22-.79-1.35-1.52-.66-3.82-1.27-7.63-1.87-11.46-.23-1.44-.19-2.94-.58-4.34-.83-3.02-.6-6.09-.65-9.15-.01-.59.05-1.17.05-1.76-.02-2.05.04-2.11,1.98-2.25,1.16-.09,2.33-.2,3.49-.31,1.63-.16,1.88.04,1.95,1.73.16,3.51.3,7.01.47,10.51.03.61.17,1.2.54,1.77.84-4.34,1.68-8.69,2.57-13.3,1.3-.08,2.64-.16,4.22-.26ZM274.35,225.29c.09-.4.17-.61.18-.82.28-7.68,1.11-15.31,2.66-22.84.28-1.32.38-2.68.58-4.1h-3.34c-.23.72-.45,1.34-.63,1.97-1.14,4-2.27,8.01-3.43,12-.12.42-.42.79-.87,1.63-1.21-5.78-1.2-11.16-1.57-16.59-.91.05-1.62.08-2.41.12-.17.83-.33,1.54-.46,2.25-.73,4.03-1.44,8.05-2.15,12.08-.12.7-.15,1.43-1.22,1.97-.27-.86-.63-1.57-.69-2.29-.33-4.09-.6-8.16-.88-12.25-.06-.76-.09-1.53-.15-2.47-1.84.24-3.39.43-5,.64,0,1.25-.08,2.28.01,3.29.57,5.97,1.13,11.93,1.78,17.89.25,2.41,1.29,4.59,2.28,6.74h4.21c.47-1.74.82-3.47,1.42-5.1.6-1.62.37-3.56,1.88-5.29,1.36,3.82.42,7.56,1.24,11.15h6.57Z"/>
    <path class="cls-5" d="M320.18,247.14c-.13-1.72-.22-3.14-.36-4.55-.08-.73.39-1.9-.77-1.95-1.19-.06-1.13,1.19-1.22,1.99-.67,6.69-1.28,13.38-.92,20.12.05.95.15,1.9.32,2.83.15.84.58,1.5,1.83,1.46,1.14-2.43,1.09-5.11,1.29-7.65-.22-.22-.3-.38-.42-.41-2.38-.67-2.36-.67-1.93-3.03.12-.64.12-1.31.18-1.96.13-1.6.14-1.57,1.82-1.77,1.67-.19,3.32-.45,4.98-.68.36-.05.72-.11,1.09-.11,1.97-.02,2.57.42,2.58,2.39,0,2.99-.21,5.98-.28,8.97-.04,1.98-.36,3.81-1.23,5.68-2.67,5.75-7.32,6.14-11.58,4.35-.61-.26-1.18-.63-1.8-.79-2.66-.71-3.57-2.7-3.59-5.13-.04-5.55-.01-11.11.09-16.66.07-3.5.36-6.99,1.22-10.42,1.25-4.98,5.32-6.55,9.78-5.26,4.09,1.18,5.7,4.26,6.92,7.81.35,1.02-.28,1.78-1.03,2.21-2.02,1.15-4.13,2.12-6.97,2.57ZM327.21,242.89c-.57-1.26-1.07-2.39-1.6-3.5-1.44-2.94-6.05-4.96-9.15-3.93-.73.24-1.43.71-2.05,1.19-1.64,1.28-2.02,3.22-2.29,5.08-.42,2.96-.73,5.95-.8,8.93-.15,5.41-.16,10.82-.11,16.22.02,2.05.85,3.68,3.12,4.19.7.15,1.32.64,2.02.85,2.28.74,4.61,1.12,6.75-.32,2.31-1.56,3.56-3.94,3.86-6.6.37-3.33.33-6.71.43-10.06.03-.7-.12-1.4-.22-2.33-2.73.37-5.22.71-7.69,1.05-.22,1.41-.4,2.54-.59,3.78.95.24,1.78.45,2.85.72-.2,1.74-.37,3.46-.61,5.17-.17,1.16-.37,2.32-.73,3.42-.56,1.73-2.14,2.1-3.33.72-.58-.67-1.05-1.68-1.07-2.55-.15-4.88-.67-9.76,0-14.65.15-1.08.21-2.18.31-3.27.18-1.82.31-3.64.55-5.45.15-1.19.86-1.94,2.09-2.25,1.15-.28,1.99.34,2.37,1.14.37.77.28,1.82.23,2.73-.04.83-.48,1.65.1,2.81,1.74-1.23,3.91-1.32,5.56-3.09Z"/>
    <path class="cls-5" d="M160.67,264.66c-.67.1-1.44.26-2.22.31-1.09.07-2.19.05-3.29.06-2.95.03-2.88,0-4.13-2.67-1.11-2.38-2.39-4.66-3.83-7.45-.2.92-.36,1.36-.37,1.81-.1,2.26-.16,4.53-.25,6.78-.07,1.6-.42,2.1-1.98,2.38-2.06.38-4.16.86-6.24-.1,0-6.15-.03-12.21,0-18.27.03-5.92.13-11.85.2-17.77,0-.07,0-.15,0-.22-.12-2.68-.12-2.69,2.49-2.86,1.81-.12,3.63-.19,5.57-.29,1.27,2.63-.08,5.45.6,8.39.41-.56.74-.98,1.03-1.42,1.21-1.82,2.46-3.62,3.6-5.49.82-1.34,1.96-1.89,3.45-1.83,1.86.08,3.73.22,6.01.35-.49.98-.75,1.62-1.11,2.19-2.56,4.09-5.1,8.19-7.75,12.22-.84,1.29-.95,2.42-.37,3.85,1.56,3.86,2.89,7.81,4.51,11.64,1.18,2.8,2.66,5.47,4.1,8.37ZM158.52,263.4c-1.43-3.58-2.74-6.74-3.95-9.94-1.01-2.66-1.77-5.41-3.41-7.8-1-1.46-1.3-3.03-.15-4.66.84-1.19,1.5-2.5,2.29-3.73,1.83-2.82,3.68-5.62,5.51-8.44.25-.38.37-.84.61-1.44-1.25-.1-2.28-.12-3.28-.28-1.67-.27-2.73.39-3.6,1.81-1.64,2.68-3.42,5.27-5.15,7.89-.37.55-.58,1.37-1.59,1.27-.83-3.43.72-6.83,0-10.22h-5.82c-.18,1.13-.44,2.12-.46,3.12-.14,10.45-.24,20.91-.33,31.36,0,.92.18,1.85.29,2.9,2.13.2,4.01-.11,6.03-.7,0-2.21-.06-4.25.02-6.3.07-1.96-.4-4.05,1.06-6.08.55.86,1.01,1.5,1.39,2.18,1.5,2.68,3,5.35,4.42,8.08.46.88.97,1.41,2.01,1.31,1.36-.12,2.72-.22,4.1-.34Z"/>
    <path class="cls-5" d="M201.55,264.04c-1.99.34-3.7.77-5.43.92-2.2.18-2.78-.4-2.72-2.57.09-3.14.29-6.28.44-9.42.11-2.2-.15-4.32-.85-6.45-1.32-4.02-2.33-8.14-3.6-12.18-.81-2.57-1.84-5.07-2.76-7.61-.12-.32-.15-.69-.28-1.32.86-.09,1.67-.38,2.35-.2,1.8.46,3.57.75,5.41.4.26-.05.56.1,1.03.2.75,3.15,1.51,6.32,2.36,9.92,1.31-3.59,2.48-6.81,3.73-10.23.39-.03.95-.13,1.51-.08,1.6.12,3.2.28,4.8.43,1.88.18,2.11.61,1.5,2.35-2.16,6.29-4.28,12.59-6.43,18.87-.58,1.68-.76,3.39-.77,5.17-.03,3.87-.18,7.74-.29,11.81ZM196.97,240.67c-.26-4.84-1.76-9.32-2.94-13.7-2.29-.23-4.2-.42-6.16-.61.02.42-.02.64.05.85,2,6.48,3.91,13,6.09,19.42.96,2.84,1.15,5.7,1.25,8.62.06,2.19,0,4.39.03,6.58,0,.55.12,1.09.19,1.73,1.74-.22,3.29-.41,5.07-.63,0-2.17.02-4.13,0-6.09-.04-3.64-.37-7.28,1.1-10.8,1.13-2.69,1.99-5.48,2.97-8.23,1.19-3.37,2.39-6.74,3.57-10.12.06-.18-.05-.41-.09-.68-1.9-.17-3.76-.34-5.65-.52-.94,2.38-1.83,4.68-2.75,6.97-.94,2.34-.8,5.04-2.72,7.22Z"/>
    <path class="cls-5" d="M230.93,266.81h-7.26c-.15-.62-.43-1.49-.55-2.38-.13-1.01-.09-2.04-.15-3.06-.13-1.99-.15-1.99-2.54-2.04-1.15,2-.21,4.28-.8,6.66-.69.02-1.46.12-2.2.03-1.21-.15-2.41-.48-3.62-.64-1.92-.25-2.23-.52-2.18-2.49.16-5.43,1.05-10.74,2.55-15.97,1.4-4.84,2.45-9.76,2.75-14.82.1-1.73.46-3.45.71-5.27.52-.04.95-.14,1.36-.09,2.11.27,4.2.55,6.3.87,2.41.36,3.1,1.04,3.32,3.51.31,3.42.55,6.85.76,10.27.36,5.76.64,11.52,1.01,17.29.12,1.89.46,3.77.62,5.66.07.84-.06,1.68-.1,2.47ZM224.25,265.17c2.02.18,3.69.32,5.4.47.53-1.53.35-3.09-.04-4.53-1.21-4.42-1.3-8.93-1.41-13.45-.14-5.47-.32-10.93-.54-16.4-.07-1.88-.34-2.12-2.13-2.46-1.51-.27-3.02-.51-4.54-.67-.76-.08-1.54.05-2.25.09-.76,4.91-1.4,9.6-2.25,14.26-1.06,5.81-2.34,11.58-3.45,17.39-.25,1.32-.65,2.72.23,4.06,1.78.21,3.56.43,5.41.64.13-2.25.25-4.26.38-6.59,1.81.26,3.41.5,5.19.77v6.42Z"/>
    <path class="cls-5" d="M185.38,263.9c-2.45-.75-4.33-.84-6.29-.05-1.23.5-1.73,0-2.02-1.44-.28-1.42-.52-2.84-.81-4.4-1.3.19-2.42.36-3.73.55-.09,1.76-.17,3.48-.26,5.47-2.57.36-5.06.7-7.79,1.08-.11-4.54,1.17-8.85,1.46-13.25.29-4.44.84-8.87,1.58-13.26.73-4.38,1.83-8.7,2.79-13.16,2.76,0,5.51-.02,8.26,0,1.15.01,1.81.68,1.75,1.8-.49,9.63,2.21,18.82,3.86,28.14.47,2.64.76,5.31,1.2,8.51ZM184.14,261.95c-.37-2.28-.7-4.59-1.15-6.88-1.73-8.73-3.73-17.42-3.85-26.39-.03-1.74-.66-2.3-2.47-2.32-1.74,0-3.48.12-5.22.2-.23.58-.51,1.03-.6,1.52-1.1,5.65-2.35,11.28-3.22,16.98-.79,5.11-1.17,10.29-1.69,15.44-.1.97-.01,1.96-.01,3.18,1.82-.21,3.39-.4,5.09-.6.07-1.25.11-2.33.22-3.41.1-1.04.29-2.08.45-3.21.71.14,1.13.26,1.56.3.5.06,1.01.07,1.53.06,2.53-.06,2.63.01,2.94,2.61.14,1.14.19,2.31.81,3.05,1.92-.18,3.62-.34,5.6-.53Z"/>
    <path class="cls-5" d="M305.84,204.25c0,.86,0,1.72,0,2.58,0,1.59.71,2.8,2.07,3.62.69.42,1.38.82,2.07,1.23,2.22,1.34,3.42,3.25,3.55,5.91.1,2.17-.25,4.19-1.09,6.19-1.99,4.71-9.49,6.02-12.92,2.22-.83-.92-1.32-1.91-1.19-3.17.14-1.3-.18-2.9.49-3.82.63-.87,2.24-1.06,3.45-1.49.66-.23,1.36-.35,2.27-.58v5.56c1.07.36,1.43-.32,1.55-.92.28-1.35.53-2.74.47-4.1-.02-.66-.64-1.46-1.21-1.9-1.09-.84-2.33-1.5-3.53-2.18-2.83-1.62-3.91-3.75-3.35-6.92.46-2.6,1-5.16,3.16-7.03,1.88-1.62,3.88-2.14,6.27-1.28,3.55,1.28,5.33,3.82,5.01,7.5-.05.56-.43,1.4-.86,1.55-1.42.5-2.92.84-4.42,1.05-.88.12-1.24-.64-1.26-1.45-.03-.86,0-1.71,0-2.57-.17,0-.34,0-.52,0ZM299.65,219.32c-.12.99-.25,1.85-.31,2.72-.15,2.54.99,4.09,3.39,4.92,1.71.59,3.35.16,4.95-.29,2.02-.57,3.52-1.77,3.97-3.95.25-1.21.56-2.42.7-3.65.32-2.81-.76-4.95-3.21-6.43-.81-.49-1.51-1.14-2.3-1.66-2.46-1.65-2.75-5.13-1.77-7.29.21-.46.71-.79,1.07-1.19.36.41.91.77,1.04,1.24.3,1.03.39,2.11.59,3.35,1.44-.27,2.71-.51,3.89-.73.67-4.27-1.72-7.38-5.71-7.59-.73-.03-1.58.29-2.21.69-3.09,1.93-3.75,4.98-3.87,8.35-.08,2.15.78,3.65,2.56,4.72,1.12.68,2.29,1.29,3.36,2.06.62.45,1.35,1.06,1.55,1.74.65,2.18.3,4.35-.71,6.38-.39.78-1.16,1.13-2.04.94-1-.22-1.11-1-1.08-1.87.03-1.16,0-2.31,0-3.63-1.27.38-2.44.75-3.85,1.18Z"/>
    <path class="cls-5" d="M235.77,199.16v4.84c1.19.1,2.26.22,3.33.27,1.07.04,1.63.58,1.7,1.61.06.72.07,1.46,0,2.18-.19,1.65-.66,1.98-2.27,1.85-.85-.06-1.71,0-2.88,0v6.27c1.56.14,2.99.27,4.41.4,1.66.16,1.85.4,1.59,2.09-.2,1.28-.43,2.55-.66,3.96-1.41-.11-2.63-.32-3.85-.27-1.53.06-3.04.35-4.56.49-1.82.16-2.37-.26-2.55-2.09-.77-7.58-.76-15.16-.33-22.76.07-1.32.07-2.63.19-3.94.12-1.36.57-1.92,1.67-1.86,3.27.18,6.53.45,9.99.71v5.45c-1.86.27-3.78.54-5.77.82ZM234.81,217.14c-.63-2.9-.74-5.6.03-8.32,1.61-.11,3.11-.22,4.54-.33.13-.43.22-.63.26-.84.37-2.08.14-2.32-1.93-2.24-1,.03-1.99,0-3.33,0,.14-2.5.27-4.77.39-7.04,2.09-.27,3.95-.52,5.88-.78v-3.67c-3.24.23-6.28-.7-9.33-.43-1.36,5.84-1.28,24.71.09,27.93,2.77-.2,5.58-.4,8.46-.61.17-1.01.34-1.99.52-3.06-1.94-.21-3.68-.4-5.59-.61Z"/>
    <path class="cls-5" d="M213.39,190.58c2.38-.45,4.3-.49,6.47.31.04,1.46.17,2.96.11,4.47-.25,5.68-.56,11.37-.82,17.05-.03.63.09,1.27.16,2.02,1.9,0,3.65-.03,5.38,0,1.77.04,2.07.44,1.67,2.13-.34,1.41-.72,2.8-1.12,4.35-3.91-.34-7.85-.7-11.86-1.05v-29.27ZM218.39,215.39c-.09-1.04-.25-1.9-.22-2.75.25-5.61.54-11.22.82-16.84.07-1.44.34-2.88-.35-4.43-1.16-.06-2.27-.12-3.52-.18-.12,9.35-.23,18.45-.35,27.76,3.22.28,6.44.57,9.69.85.4-1.52.73-2.83,1.15-4.41h-7.21Z"/>
    <path class="cls-5" d="M172.2,218.95c-1.83.3-3.53.61-5.23.85-.71.11-1.03-.4-1.15-1.04-.23-1.21-.46-2.42-.71-3.75-.69-.14-1.39-.28-2.31-.48-.11,1.54-.21,2.95-.32,4.4-2.32.5-4.49.97-6.98,1.51,0-1.1-.13-1.95.03-2.74.58-2.93,1.35-5.83,1.89-8.77,1.08-5.96,2.06-11.93,3.1-17.89.07-.41.22-.81.38-1.4,1.99-.09,3.94-.19,5.9-.27.93-.04,1.53.42,1.8,1.28.17.55.31,1.13.36,1.7.46,5.15.8,10.31,1.38,15.45.33,2.97,1.01,5.9,1.52,8.83.12.71.23,1.42.37,2.3ZM161.85,214.11c1.12-.14,1.9-.25,2.7-.34,1.04-.11,1.65.27,1.78,1.4.13,1.06.4,2.11.63,3.33,1.38-.19,2.57-.36,3.6-.52-1.1-9.19-2.17-18.13-3.26-27.18h-5.87c-.74,4.82-1.53,9.47-2.16,14.15-.63,4.66-2.33,9.11-2.72,14.08,1.82-.45,3.34-.82,4.74-1.16.21-1.4.37-2.54.55-3.77Z"/>
    <path class="cls-5" d="M282.71,227.87c.61-9.87-.25-19.76.72-29.74h11.61c-.14,2.13-.27,4.11-.41,6.3-1.74-.08-3.23-.14-5-.22.14,1.86.28,3.55.42,5.36,1.25-.15,2.23-.28,3.34-.42.6,2.35-.12,4.46-.34,6.77h-3.41c-.74,1.88-.32,3.78-.32,5.88,1.24-.15,2.23-.32,3.21-.35,1.28-.04,1.59.25,1.6,1.5,0,1.16-.1,2.33-.11,3.5,0,.99-.47,1.5-1.45,1.53-2.91.06-5.83.11-8.75.15-.27,0-.54-.12-1.11-.24ZM292.93,222.38c-.99.17-1.76.35-2.55.42-1.44.13-2.05-.37-2.1-1.78-.04-1.31-.06-2.63.05-3.94.18-2.11.45-2.27,2.61-2.04.34.04.69,0,1.26,0,.18-1.59.34-3.06.51-4.59h-3.41c-.66-2.27-.75-5.51-.19-7.24,1.44-.07,2.91-.14,4.59-.22-.06-1.39-.12-2.51-.18-3.79-1.73,0-3.18-.02-4.63,0-1.43.03-2.87.12-4.33.19-1.08,4.68-.49,9.22-.56,13.72-.07,4.5-.02,9-.02,13.54,3.05.65,5.92.17,8.95-.06v-4.24Z"/>
    <path class="cls-5" d="M139.75,220.81c-.62-2.75-.82-24.61-.32-30.26,1.06-.67,2.29-.62,3.52-.49,1.81.2,3.64.35,5.43.7,3.96.79,4.99,2.75,4.83,5.4-.13,2.18-.03,4.38-.05,6.57,0,.44,0,.88-.04,1.31-.33,3.3-2.11,4.99-5.42,5.13-.5.02-1,0-1.73,0-.71,3.48.49,6.88.06,10.33-2.05.99-4.17,1.13-6.28,1.29ZM144.51,219.05c0-1.08-.03-2.08,0-3.07.09-2.26.19-4.51.3-6.76.05-.97.56-1.45,1.55-1.41.44.01.88,0,1.31,0,2.75-.03,4.37-1.53,4.46-4.27.08-2.41.07-4.82.06-7.23,0-2.77-1.19-4.13-3.97-4.56-1.37-.21-2.76-.31-4.13-.5-1.27-.17-2.45.02-3.53.58-.41,2.01-.16,26.43.27,27.77,1.06-.15,2.14-.32,3.65-.55Z"/>
    <path class="cls-5" d="M330.45,197.93c-.14,2.09.58,4.2-.67,6.22h-2.88c-.57,1.72-.66,3.59-.64,5.46.07,4.74.18,9.49.27,14.23.01.73,0,1.45,0,2.37-.95.3-1.81.7-2.72.83-3.17.45-4-.27-3.89-3.44.19-5.75.46-11.51.69-17.26.03-.71,0-1.43,0-2.2-1.45.12-2.71.22-4.27.35-.03-1.97-.09-3.7-.08-5.42,0-.71.32-1.28,1.17-1.29,3.94-.06,7.88-.12,11.82-.15.34,0,.68.18,1.19.32ZM320.94,225.71c1.73.49,3.12.57,4.54-.31.38-7.42-1.04-14.87.4-22.39h3.03c.71-2.24.71-2.26-.03-4.17h-11.26c-.11,1.54-.21,2.96-.32,4.46,1.61-.19,2.94-.35,4.42-.52-.26,7.84-.52,15.39-.76,22.93Z"/>
    <path class="cls-5" d="M175.72,219.24c-.09-3.03-.18-5.94-.26-8.86-.12-4.97-.3-9.93-.29-14.91,0-2.16.46-4.32.73-6.72,3.77.27,7.38-.29,10.72,1.32,1.84.89,2.86,2.51,2.97,4.56.11,2.04.06,4.09.08,6.14.02,2.93.06,5.85.04,8.77,0,1.83-.07,3.65-.13,5.48-.04,1.18-.64,2.09-1.59,2.74-1.81,1.25-3.77,1.82-6,1.39-.74-.15-1.59-.02-2.34.17-1.23.29-2.43.49-3.92-.07ZM177.06,218.38c.52.05.98.21,1.36.11,1.56-.44,3.08-.44,4.72-.27,3.4.33,5.42-1.77,5.44-5.19.02-4.16,0-8.33-.01-12.49,0-1.68.06-3.36-.03-5.04-.15-2.89-1.44-4.34-4.22-5.1-2.44-.67-4.87-.36-7.3-.32-.62,3.71-.6,23.31.04,28.3Z"/>
    <path class="cls-5" d="M194.99,219.55c0-1.75.01-3.27,0-4.77-.02-2.84-.1-5.68-.08-8.52.01-2.91.12-5.82.16-8.73.03-2.11-.03-4.22.03-6.32.04-1.62.18-1.74,1.76-1.8,1.6-.06,3.21-.08,4.81-.02,3.56.13,5.51,1.6,6.55,4.99.38,1.25.67,2.55.78,3.85.47,5.76.14,11.52-.5,17.26-.1.98-.55,1.73-1.38,2.07-1.33.55-2.71,1.11-4.12,1.32-2.51.36-5.06.45-8.01.69ZM196.45,190.65c-.66,4.17-.64,25.81.02,27.68,2.94-.03,5.91-.25,8.82-.99.35-.09.67-.28,1-.45.77-.4,1.11-.98,1.21-1.9.61-5.39.85-10.79.52-16.2-.09-1.44-.39-2.9-.8-4.28-.81-2.75-2.57-4.07-5.47-4.12-1.74-.03-3.48.16-5.31.25Z"/>
    <path class="cls-5" d="M266.82,242.89c1.93,1.04,3.62.61,5.41.14,1.97-.52,2.38.15,2.27,2.12-.32,5.32-.55,10.65-.71,15.98-.1,3.42-.02,6.85-.02,10.39-2.89,1.25-5.65-.47-8.61.22-.46-3.5.72-6.53.68-9.63-.05-3.21.06-6.43.22-9.64.16-3.11.48-6.21.74-9.57ZM267.91,245.02c-.55,8.4-1.1,16.87-1.67,25.52h6.12c.29-8.94.58-17.71.86-26.58-1.71.34-3.32.66-5.32,1.05Z"/>
    <path class="cls-5" d="M276.87,241.58c-.54,0-.92.1-1.2-.02-.6-.25-1.21-.54-1.72-.94-2.06-1.61-4.01-1.87-5.97.19-.32.34-.97.39-1.87.73.17-1.2.15-2,.41-2.7.38-1.02.09-1.68-.77-2.2-.56-.34-1.12-.68-1.66-1.05-.82-.57-1.71-1.1-1.89-2.37,1.04-.61,2.12-.29,3.16-.25,1.78.06,2.02-.19,1.94-1.99-.05-.98-.46-2.01.55-3,.42.44.89.79,1.16,1.25.79,1.36,2.02,1.84,3.48,1.87,1.43.03,2.86,0,4.46,0-.05.28-.02.71-.2,1.02-.41.69-.85,1.38-1.41,1.95-.93.94-.88,1.93-.41,3.01.44,1,.95,1.96,1.39,2.96.2.44.33.9.56,1.53ZM267.55,239.44c1.36-.69,2.22-1.4,3.17-1.52.87-.12,1.83.4,2.64.61-.14-1.15-.54-2.28-.31-3.26.21-.95,1.09-1.75,1.8-2.8-2.11-.03-4.06.5-5.85-1.17.35,3.1-1.9,2.87-4.08,3.21,2.15,1.16,4.25,1.93,2.63,4.92Z"/>
    <path class="cls-2" d="M306.13,178.14c-1.74,1.83-3.58,2.71-5.31,3.73-.93.56-1.95.99-2.96,1.42-2.08.9-4.16,1.53-6.55,1.35-3.56-.26-7.16-.18-10.74-.09-5.81.16-11.52-.51-17.23-1.48-2.73-.46-5.52-.52-8.29-.74-4.37-.35-8.78-.12-13.06-1.29-1.73-.47-3.47-.13-5.2-.18-2.54-.07-5.08-.52-7.61-.92-10.02-1.61-20.04-3.27-30.06-4.89-3.24-.52-6.51-.93-9.75-1.46-3.13-.51-4-2.45-2.34-5.61,1.88.83,3.78,1.68,5.68,2.51.53.23,1.07.55,1.62.56,3.77.12,7.26,1.56,10.9,2.29,3.01.6,6,1.27,9.01,1.86,2.06.41,4.17.62,6.21,1.12,4.36,1.07,8.81,1.28,13.26,1.65,6.4.54,12.81,1.19,19.2,1.83,1.66.17,3.29.54,4.95.78.57.08,1.16.03,1.74.05,2.77.11,5.54.24,8.32.32,2.12.06,4.24.13,6.35.05,2.48-.1,4.95-.37,7.43-.56.29-.02.63-.18.86-.07,2.76,1.25,5.43-.08,8.1-.35,4.14-.41,8.23-1.26,12.35-1.87.85-.12,1.74-.02,3.11-.02Z"/>
    <path class="cls-3" d="M195.56,168.44c3.29.41,6.56,1.03,9.86,1.16,3.27.13,6.56-.22,9.98-.38,1.64,1.8,3.9,2.45,6.37,2.65,1.23.1,2.46.33,3.68.54,5.98,1.04,11.81,0,17.57-1.43,1.83-.46,3.25-.14,4.81.87-.5.64-.94,1.22-1.54,1.98,2.34.38,3.96-1.93,6.13-.89.09.56.19,1.17.3,1.9.4-.1.74-.08.91-.24,1.32-1.29,2.84-1.13,4.49-.82,5.82,1.05,11.66,1.98,17.49,2.98,1.5.25,3,.58,4.87.94-1.62.79-2.93,1.16-4.38,1.19-2.26.06-4.52.39-6.77.34-3.36-.06-6.71-.27-10.05-.53-4.22-.32-8.44-.76-12.66-1.14-3.71-.33-7.42-.61-11.12-.99-5.01-.52-10.02-1.05-15.03-1.68-2.83-.35-5.65-.78-8.43-1.38-4.21-.91-8.39-1.97-12.56-3.04-1.39-.35-2.73-.92-4.09-1.38.05-.22.09-.43.15-.65Z"/>
    <path class="cls-2" d="M183.44,173.43c-.57.23-1.19.21-1.28-.55-.11-1-.08-2.04.06-3.03.07-.49.54-.91,1.22-1.26v4.85Z"/>
    <path class="cls-5" d="M294.33,253.61c.16-.75.41-1.48.45-2.23.23-4.45.4-8.89.62-13.34.04-.79.22-1.57.36-2.55h5.56c-.45,12.37-.89,24.66-1.33,37.17-1.14.33-2.45.25-3.68-.12-.58-.17-1.21-.86-1.41-1.44-.8-2.26-1.35-4.61-2.15-6.87-1.05-2.96-2.23-5.86-3.38-8.77-.15-.37-.44-.69-.8-1.25-.36.49-.73.78-.78,1.11-.15,1.08-.23,2.18-.25,3.27-.09,3.58-.11,7.16-.21,10.74-.05,1.82-.19,1.99-1.97,2.19-.92.1-1.84.02-2.85.02-.63-12.11.46-23.93.84-35.92,1.68-.15,3.11-.28,4.7-.43,1.81,6.24,3.25,12.49,5.63,18.42.22,0,.44,0,.66,0Z"/>
    <path class="cls-5" d="M259.78,269.58h-6.98c-.18-.4-.37-.79-.52-1.18-1.62-3.99-3.22-7.99-4.88-11.96-.34-.82-.58-1.87-1.97-1.95-.8,4.21-1.22,8.43-.77,12.77-1.98.51-3.64.29-5.41-.52-.17-11.74-.65-23.55.73-35.56,1.85.11,3.48.21,5.12.31.74,3.22-.02,6.36,1.27,9.69,1.42-1.69,1.68-3.59,2.74-4.99,1.1-1.44,2.23-2.87,3.54-4.54,1.34.16,2.89.35,4.71.58-.48.96-.88,1.72-1.23,2.5-1.69,3.64-3.4,7.27-5.04,10.93-.55,1.24-.36,2.54,0,3.85,1.56,5.59,4.16,10.75,6.65,15.96.62,1.3,1.28,2.6,2.02,4.12Z"/>
    <path class="cls-1" d="M274.35,225.29h-6.57c-.82-3.59.12-7.33-1.24-11.15-1.51,1.73-1.28,3.67-1.88,5.29-.6,1.63-.95,3.35-1.42,5.1h-4.21c-.99-2.15-2.03-4.33-2.28-6.74-.65-5.96-1.21-11.92-1.78-17.89-.09-1.01-.01-2.03-.01-3.29,1.61-.2,3.16-.4,5-.64.06.94.09,1.7.15,2.47.29,4.08.55,8.16.88,12.25.06.72.42,1.43.69,2.29,1.07-.54,1.1-1.27,1.22-1.97.7-4.03,1.42-8.06,2.15-12.08.12-.71.29-1.42.46-2.25.79-.04,1.5-.07,2.41-.12.37,5.43.37,10.8,1.57,16.59.45-.84.75-1.21.87-1.63,1.16-3.99,2.29-8,3.43-12,.18-.63.4-1.25.63-1.97h3.34c-.2,1.43-.31,2.78-.58,4.1-1.56,7.54-2.38,15.16-2.66,22.84,0,.21-.09.41-.18.82Z"/>
    <path class="cls-5" d="M327.21,242.89c-1.65,1.77-3.82,1.86-5.56,3.09-.58-1.16-.15-1.98-.1-2.81.05-.91.14-1.96-.23-2.73-.38-.79-1.22-1.42-2.37-1.14-1.23.31-1.94,1.06-2.09,2.25-.25,1.81-.37,3.63-.55,5.45-.1,1.09-.17,2.19-.31,3.27-.66,4.89-.14,9.77,0,14.65.03.87.5,1.88,1.07,2.55,1.19,1.38,2.77,1.01,3.33-.72.36-1.1.55-2.26.73-3.42.25-1.71.41-3.43.61-5.17-1.07-.27-1.89-.48-2.85-.72.19-1.24.37-2.37.59-3.78,2.47-.34,4.95-.68,7.69-1.05.1.94.25,1.64.22,2.33-.1,3.36-.06,6.73-.43,10.06-.3,2.66-1.56,5.04-3.86,6.6-2.14,1.44-4.46,1.06-6.75.32-.69-.22-1.31-.7-2.02-.85-2.27-.51-3.1-2.14-3.12-4.19-.05-5.41-.04-10.82.11-16.22.08-2.99.38-5.98.8-8.93.27-1.86.65-3.8,2.29-5.08.62-.48,1.31-.95,2.05-1.19,3.1-1.03,7.72.98,9.15,3.93.53,1.11,1.03,2.24,1.6,3.5Z"/>
    <path class="cls-5" d="M158.52,263.4c-1.38.12-2.74.21-4.1.34-1.04.1-1.55-.43-2.01-1.31-1.42-2.72-2.92-5.4-4.42-8.08-.38-.68-.83-1.32-1.39-2.18-1.46,2.04-.98,4.12-1.06,6.08-.08,2.04-.02,4.08-.02,6.3-2.02.59-3.9.9-6.03.7-.11-1.05-.3-1.97-.29-2.9.08-10.45.19-20.91.33-31.36.01-1.01.28-2,.46-3.12h5.82c.71,3.39-.84,6.78,0,10.22,1.01.1,1.22-.71,1.59-1.27,1.73-2.62,3.51-5.22,5.15-7.89.87-1.42,1.93-2.08,3.6-1.81,1,.16,2.03.18,3.28.28-.25.6-.37,1.06-.61,1.44-1.83,2.83-3.69,5.62-5.51,8.44-.79,1.22-1.45,2.54-2.29,3.73-1.14,1.63-.85,3.2.15,4.66,1.64,2.39,2.4,5.14,3.41,7.8,1.22,3.2,2.53,6.35,3.95,9.94Z"/>
    <path class="cls-5" d="M196.97,240.67c1.93-2.18,1.78-4.89,2.72-7.22.92-2.29,1.81-4.6,2.75-6.97,1.89.18,3.75.35,5.65.52.04.27.15.5.09.68-1.17,3.38-2.37,6.75-3.57,10.12-.98,2.75-1.83,5.55-2.97,8.23-1.47,3.52-1.14,7.16-1.1,10.8.03,1.96,0,3.92,0,6.09-1.77.22-3.33.42-5.07.63-.08-.64-.19-1.19-.19-1.73-.03-2.19.04-4.39-.03-6.58-.09-2.91-.28-5.77-1.25-8.62-2.19-6.42-4.09-12.94-6.09-19.42-.06-.2-.03-.43-.05-.85,1.95.19,3.86.38,6.16.61,1.18,4.38,2.68,8.86,2.94,13.7Z"/>
    <path class="cls-5" d="M224.25,265.17v-6.42c-1.78-.27-3.38-.51-5.19-.77-.13,2.33-.25,4.34-.38,6.59-1.86-.22-3.63-.43-5.41-.64-.89-1.33-.49-2.73-.23-4.06,1.12-5.8,2.39-11.58,3.45-17.39.85-4.66,1.49-9.35,2.25-14.26.71-.03,1.49-.17,2.25-.09,1.52.16,3.03.4,4.54.67,1.79.34,2.05.58,2.13,2.46.22,5.47.4,10.93.54,16.4.11,4.52.2,9.04,1.41,13.45.4,1.44.57,3,.04,4.53-1.71-.15-3.38-.29-5.4-.47ZM224.29,253.38c-.49-5.42-.96-10.73-1.43-16.07-1.23.04-1.31.79-1.41,1.52-.52,3.61-.99,7.23-1.6,10.82-.68,4.07-.22,4.55,4.44,3.73Z"/>
    <path class="cls-5" d="M184.14,261.95c-1.98.18-3.68.35-5.6.53-.62-.74-.67-1.91-.81-3.05-.32-2.6-.41-2.67-2.94-2.61-.51,0-1.02,0-1.53-.06-.43-.04-.85-.16-1.56-.3-.16,1.13-.35,2.17-.45,3.21-.11,1.07-.15,2.15-.22,3.41-1.71.2-3.27.38-5.09.6,0-1.22-.09-2.2.01-3.18.52-5.16.9-10.33,1.69-15.44.87-5.69,2.12-11.33,3.22-16.98.09-.49.37-.94.6-1.52,1.74-.07,3.48-.21,5.22-.2,1.81.02,2.44.57,2.47,2.32.12,8.96,2.12,17.66,3.85,26.39.45,2.29.77,4.6,1.15,6.88ZM177.95,251.17c-.42-1.72-.9-3.18-1.12-4.67-.41-2.96-.67-5.94-1.03-8.91-.1-.81-.33-1.61-.51-2.41-.68.4-1.04.77-1.13,1.2-.73,3.79-1.59,7.57-2.05,11.4-.46,3.82.73,4.7,4.51,3.9.41-.09.8-.31,1.32-.5Z"/>
    <path class="cls-1" d="M299.65,219.32c1.41-.43,2.58-.8,3.85-1.18,0,1.31.02,2.47,0,3.63-.03.87.08,1.65,1.08,1.87.88.19,1.65-.15,2.04-.94,1.01-2.02,1.36-4.19.71-6.38-.2-.68-.92-1.29-1.55-1.74-1.07-.77-2.24-1.38-3.36-2.06-1.78-1.07-2.63-2.57-2.56-4.72.12-3.36.78-6.42,3.87-8.35.64-.4,1.48-.72,2.21-.69,4,.21,6.38,3.32,5.71,7.59-1.18.23-2.44.46-3.89.73-.21-1.25-.29-2.32-.59-3.35-.13-.47-.68-.83-1.04-1.24-.37.4-.87.72-1.07,1.19-.97,2.16-.69,5.64,1.77,7.29.79.52,1.49,1.18,2.3,1.66,2.45,1.48,3.52,3.62,3.21,6.43-.14,1.22-.45,2.44-.7,3.65-.45,2.19-1.95,3.39-3.97,3.95-1.6.45-3.24.88-4.95.29-2.4-.83-3.54-2.38-3.39-4.92.05-.86.19-1.72.31-2.72Z"/>
    <path class="cls-1" d="M234.81,217.14c1.92.21,3.65.4,5.59.61-.18,1.07-.35,2.05-.52,3.06-2.88.21-5.69.41-8.46.61-1.38-3.21-1.45-22.09-.09-27.93,3.05-.27,6.09.65,9.33.43v3.67c-1.93.26-3.79.51-5.88.78-.12,2.27-.25,4.54-.39,7.04,1.34,0,2.33.03,3.33,0,2.07-.08,2.29.17,1.93,2.24-.04.21-.12.41-.26.84-1.43.1-2.93.21-4.54.33-.77,2.72-.66,5.41-.03,8.32Z"/>
    <path class="cls-1" d="M218.39,215.39h7.21c-.41,1.59-.75,2.89-1.15,4.41-3.24-.28-6.47-.57-9.69-.85.12-9.32.23-18.41.35-27.76,1.25.06,2.37.12,3.52.18.7,1.55.42,3,.35,4.43-.28,5.61-.58,11.22-.82,16.84-.03.85.13,1.71.22,2.75Z"/>
    <path class="cls-1" d="M161.85,214.11c-.18,1.23-.34,2.36-.55,3.77-1.4.35-2.92.71-4.74,1.16.39-4.97,2.09-9.42,2.72-14.08.63-4.67,1.42-9.33,2.16-14.15h5.87c1.09,9.05,2.16,17.99,3.26,27.18-1.04.15-2.22.32-3.6.52-.24-1.22-.5-2.27-.63-3.33-.14-1.13-.74-1.51-1.78-1.4-.79.09-1.58.19-2.7.34ZM165.95,209.73c-.21-2.89-.34-5.63-.61-8.36-.21-2.16-.37-2.2-2.88-2.05-.07.18-.21.38-.21.57,0,2.83-.02,5.67.04,8.5.04,1.46.43,1.77,1.89,1.69.55-.03,1.09-.21,1.78-.36Z"/>
    <path class="cls-1" d="M292.93,222.38v4.24c-3.04.23-5.9.71-8.95.06,0-4.54-.05-9.04.02-13.54.07-4.5-.52-9.04.56-13.72,1.46-.07,2.9-.16,4.33-.19,1.45-.03,2.9,0,4.63,0,.06,1.28.11,2.39.18,3.79-1.68.08-3.15.15-4.59.22-.55,1.73-.46,4.96.19,7.24h3.41c-.17,1.53-.34,3.01-.51,4.59-.57,0-.92.03-1.26,0-2.17-.23-2.43-.07-2.61,2.04-.11,1.31-.09,2.62-.05,3.94.05,1.4.66,1.91,2.1,1.78.79-.07,1.56-.25,2.55-.42Z"/>
    <path class="cls-1" d="M144.51,219.05c-1.52.23-2.6.39-3.65.55-.44-1.34-.68-25.76-.27-27.77,1.08-.55,2.26-.75,3.53-.58,1.37.19,2.76.29,4.13.5,2.77.43,3.96,1.79,3.97,4.56,0,2.41.01,4.83-.06,7.23-.09,2.74-1.71,4.24-4.46,4.27-.44,0-.88,0-1.31,0-.99-.04-1.5.44-1.55,1.41-.11,2.25-.22,4.5-.3,6.76-.03.99,0,1.99,0,3.07ZM144.35,195.69c0,2.76-.04,5.22.03,7.69.01.42.37,1.01.73,1.2,1.36.72,3.23-.42,3.24-1.98,0-1.53-.09-3.06-.18-4.6-.05-.76-.21-1.52-.33-2.31h-3.49Z"/>
    <path class="cls-1" d="M320.94,225.71c.25-7.54.5-15.09.76-22.93-1.48.17-2.81.33-4.42.52.11-1.5.21-2.92.32-4.46h11.26c.74,1.9.74,1.93.03,4.17h-3.03c-1.43,7.52-.01,14.96-.4,22.39-1.42.88-2.81.79-4.54.31Z"/>
    <path class="cls-1" d="M177.06,218.38c-.64-4.99-.67-24.59-.04-28.3,2.43-.04,4.86-.35,7.3.32,2.78.77,4.07,2.21,4.22,5.1.09,1.68.03,3.36.03,5.04,0,4.16.03,8.32.01,12.49-.02,3.42-2.04,5.52-5.44,5.19-1.64-.16-3.15-.16-4.72.27-.39.11-.85-.06-1.36-.11ZM181.3,194.38c-.36,5.84-.7,11.43-1.03,17.03-.03.51-.03,1.02,0,1.53.08,1.54.42,1.77,1.9,1.35.34-.1.69-.22,1.04-.35,1.68-.64,1.71-.69,1.59-2.56-.17-2.84-.37-5.67-.49-8.52-.1-2.32-.12-4.66-.14-7,0-1.08-.42-1.66-1.55-1.6-.43.02-.86.07-1.31.11Z"/>
    <path class="cls-1" d="M196.45,190.65c1.83-.09,3.57-.28,5.31-.25,2.9.05,4.66,1.37,5.47,4.12.41,1.39.7,2.84.8,4.28.33,5.41.09,10.81-.52,16.2-.1.92-.44,1.5-1.21,1.9-.33.17-.65.36-1,.45-2.91.74-5.87.96-8.82.99-.67-1.87-.68-23.51-.02-27.68ZM199.99,215.52c1.11-.58,1.73-.94,2.39-1.22.94-.4,1.26-1.08,1.26-2.07-.02-5.47-.02-10.95,0-16.43,0-1.67-.89-1.61-2.44-1.72-.96-.07-1.18.47-1.19,1.89-.04,5.54-.14,11.08-.19,16.62,0,.84.09,1.68.16,2.93Z"/>
    <path class="cls-5" d="M267.91,245.02c2-.4,3.61-.71,5.32-1.05-.29,8.87-.58,17.63-.86,26.58h-6.12c.57-8.65,1.12-17.12,1.67-25.52Z"/>
    <path class="cls-1" d="M267.55,239.44c1.62-2.99-.49-3.76-2.63-4.92,2.17-.35,4.43-.12,4.08-3.21,1.8,1.67,3.75,1.13,5.85,1.17-.71,1.05-1.58,1.85-1.8,2.8-.23.98.17,2.11.31,3.26-.81-.22-1.77-.73-2.64-.61-.95.12-1.81.83-3.17,1.52Z"/>
    <path class="cls-5" d="M224.29,253.38c-4.66.82-5.12.34-4.44-3.73.61-3.6,1.07-7.21,1.6-10.82.1-.73.18-1.48,1.41-1.52.48,5.34.95,10.65,1.43,16.07ZM223.28,252.58c-.36-3.57-.68-6.82-1.01-10.07-.11,0-.21-.01-.32-.03-.4,3.32-.81,6.65-1.23,10.1h2.56Z"/>
    <path class="cls-5" d="M177.95,251.17c-.52.2-.91.41-1.32.5-3.78.8-4.96-.08-4.51-3.9.46-3.82,1.31-7.61,2.05-11.4.09-.43.45-.81,1.13-1.2.18.8.41,1.6.51,2.41.36,2.97.61,5.95,1.03,8.91.22,1.5.7,2.95,1.12,4.67ZM176.36,250.39c-.53-3.52-1.03-6.84-1.53-10.15-.69,3.35-1.38,6.66-1.11,10.15h2.65Z"/>
    <path class="cls-5" d="M165.95,209.73c-.69.14-1.23.33-1.78.36-1.46.08-1.85-.24-1.89-1.69-.06-2.84-.04-5.67-.04-8.5,0-.19.15-.39.21-.57,2.51-.15,2.67-.1,2.88,2.05.27,2.73.41,5.47.61,8.36ZM164.87,209.06c-.56-3.06.23-5.9-1.19-8.47-.09,2.72-.52,5.41.1,8.1.03.12.46.17,1.08.37Z"/>
    <path class="cls-5" d="M144.35,195.69h3.49c.12.8.28,1.55.33,2.31.1,1.53.19,3.06.18,4.6,0,1.56-1.87,2.7-3.24,1.98-.37-.2-.72-.79-.73-1.2-.07-2.47-.03-4.93-.03-7.69ZM145.65,203.53c1.16.14,1.79-.05,1.77-1.04-.05-1.6-.12-3.19-.24-4.78-.06-.86-.45-1.36-1.53-.89v6.71Z"/>
    <path class="cls-5" d="M181.3,194.38c.45-.04.88-.09,1.31-.11,1.13-.06,1.55.52,1.55,1.6.02,2.33.04,4.67.14,7,.12,2.84.32,5.68.49,8.52.11,1.87.09,1.92-1.59,2.56-.34.13-.69.25-1.04.35-1.48.42-1.82.18-1.9-1.35-.03-.51-.02-1.03,0-1.53.33-5.59.67-11.18,1.03-17.03ZM183.68,212.58c-.22-5.62-.43-11.08-.67-16.53-.01-.24-.38-.46-.89-1.04-.21,6.3-.4,12.14-.59,18.25.88-.27,1.53-.48,2.15-.68Z"/>
    <path class="cls-5" d="M199.99,215.52c-.07-1.25-.17-2.09-.16-2.93.06-5.54.15-11.08.19-16.62.01-1.42.23-1.96,1.19-1.89,1.55.11,2.44.05,2.44,1.72-.02,5.48-.02,10.96,0,16.43,0,.99-.32,1.67-1.26,2.07-.66.28-1.28.65-2.39,1.22ZM202.64,195.26c-.64.03-1.1.06-1.62.09v18.36c1.77-.72,1.8-.72,1.78-2.63-.04-4.51-.11-9.03-.16-13.54,0-.71,0-1.43,0-2.28Z"/>
  </g>
</svg>