<?xml version="1.0" encoding="UTF-8"?>
<svg id="Layer_1" xmlns="http://www.w3.org/2000/svg" viewBox="0 0 400 400">
  <defs>
    <style>
      .cls-1 {
        fill: #231f20;
      }

      .cls-2 {
        font-family: AmericanTypewriter-CondensedBold, 'American Typewriter';
        font-size: 42.62px;
        font-weight: 700;
      }

      .cls-2, .cls-3 {
        fill: #fff;
      }

      .cls-4 {
        fill: #662d91;
      }

      .cls-4, .cls-5 {
        fill-rule: evenodd;
      }

      .cls-6 {
        letter-spacing: -.02em;
      }

      .cls-7 {
        letter-spacing: -.04em;
      }
    </style>
  </defs>
  <g>
    <g>
      <polygon class="cls-4" points="102.44 143.28 50.08 219.93 52.69 223.23 152.56 219.77 116.69 153.85 106.01 141.38 102.44 143.28"/>
      <path class="cls-5" d="M134.5,180.64c3.5.51,2.58,5.9,6.25,6.23.1,3.85,2.07,5.65,4.51,6.91-.28,4.06,2.01,5.28,4.46,6.32.28,1-.4,1.13-1.12,1.24.83.82,2.79,1.35,1.33,2.9.46-.34.95-.66,1.75-.68.27,1.19-.03,1.86-1.1,1.84,1.19,1.5,4.61,4.73,2.67,5.81.6,1.01,1.92,1.22,3.61,1.01.33,4.85,3,7.12,2.99,12.34-.57-.34-2.25-1.28-1.74.67-1.07-1.12-4.13-.02-4.26-2.17-1.31,2.35-4.07-1.55-7.06,1.54-1.8.3-1.34-1.87-1.94-2.88-1.7.6.84,1.46.15,2.97-.46-.39-2-2.41-1.78.09-8.28-.58-20.59-.63-27.92.18-.03-.58-.06-1.18-.09-1.77-2.68,1.58-5.81,1.88-8.31.4-1.61,2.32-12.64,2.39-16.02.8-6.51,3.76-21.02.23-24.17,4.17-5.11-2.87-13.92.37-20.31-1.97-.6-1.86.4-2.28,1.04-3.02-2.39-.09-.99-.46-1.38-4.09,2.77-.9,3.9-3.26,3.83-6.73,2.75.43,1.2-3.05,4.03-2.58-.52-1.8-.47-1.12-.15-2.96,4.03.45,1.59-4.98,5.1-5.01-.41-.58-1.39-.54-1.28-1.72,2.39.65,1.12-2,3.51-1.36-.06-1-.1-1.98-.15-2.97.51-.48,1.31-.7,2.34-.7,3.47-8.95,9.98-15.12,13.68-23.86,2.05-.03,2.7-1.34,2.2-3.68,1.74.07,1.75-1.43,3.51-1.36,1.43-7.95,9.01-10.36,10.39-18.36,6.51-1.46,4.95-10.24,11.29-11.85-.41-.58-1.39-.54-1.28-1.72,1.95-.12,2.9-1.15,5.32-.85,2.66,1.88-.7,3.06,3.11,2.81-2.46,2.68.76,10.53,3.43,9.34.89.15.16,4.49,3.17,4-.33,1.84.73,2.14.78,3.53,7.63,6.37,9.09,19.56,16.74,25.91.26,1-.41,1.15-1.13,1.25ZM99.85,153.23c-1.88.82-.54-1.9-2.44-1.07-.9.3-.41,1.9-2.29,1.31-.73,3.12-1.47,6.22-4.4,7.36-.7,3.28,1.67,3.15,2.61,4.62-4.12,3.02-4.14,12.7-11.42,9.48.67,1.77,2.84,1.86,3.17,4.01-1.57.8-2.72,1.12-3.5,1.36,2.53,2.05-.67,1.55-1.64,3.05-2.53,3.94-3.91,10.12-8.35,11.11-.16,2.88-1.2,4.96-3.89,5.53,1.5,3.08-.87.43-1.7,1.88,3.82.72-2.44,2.6.21,4.15-4.22.89-3.18,6.55-6.11,8.63-.38-1.03.55-3.52-.76-3.54,0,.94.19,2.05-1.1,1.85-.64,1.95,1.94.35,1.31,2.3-2.46.61-2.01,3.85-3.29,5.53,6.18-1.37,16.23-1.48,23.13-1.15.11-.46-.04-1.17.53-1.22,23.01,2.1,41.35-1.48,69.45-2.24-1.29-6.23-6.8-9.22-8.96-12.63-.71-5.28-5.69-5.8-5.91-11.6-2.66.4-2.29-2.11-1.97-3.46-2.36.06-4.51-3.77-2.6-4.62-1.85,1-1.99-.35-3.62-1.01-4.29-12.95-14.52-22.09-19.43-32.33.03.6-1.01.8-1.18.05.72-.09,1.39-.24,1.13-1.24-1.65.57-1.58-.76-3-.45-2.87,4-4.15,9.46-8.94,11.74,1.25,2.03-.43,2.88-1.57,4.24-.72-2.35-.14-4.62.87-6.58.98-.03.4,1.62,1.27,1.72.13-2.55,2.17-7.39,3.91-4.94-.06-.82.21-1.32.5-1.81Z"/>
    </g>
    <text class="cls-2" transform="translate(83.6 209.53)"><tspan class="cls-7" x="0" y="0">7</tspan><tspan class="cls-6" x="19.61" y="0">6</tspan></text>
  </g>
  <g>
    <ellipse class="cls-1" cx="246.56" cy="191.25" rx="92.11" ry="94.81"/>
    <path class="cls-3" d="M310.73,180.58c-.4-.58-.1-.92.3-1.25.42-.34.77-.72.59-1.46-.31.24-.59.43-.85.64-1.63,1.4-3.51,2.25-5.68,2.28-.81,0-1.64-.26-2.44-.46-.22-.06-.38-.36-.56-.56.02-.08.03-.16.05-.24,1.34-.19,2.67-.38,4.14-.59-.59-.84-.28-1.3.31-1.7.53-.36,1.03-.74,1.67-1.21-1.32-.56-2.45-.79-3.67-.28-.44.19-.93.28-1.46.43.14-.95.37-1.22,1.36-1.54.66-.22,1.34-.38,2.19-.62-.49-.39-.85-.57-1.04-.87-.19-.29-.39-.75-.28-1.01.1-.25.63-.54.91-.49,1.19.2,2.16-.23,3.14-.78.52-.29.7-.48.77-1.21-.18,0-.37-.03-.54,0-1.14.25-2.25.07-3.33-.27-.89-.27-1.23-1.09-1.62-1.81-.04-.08.26-.44.46-.52.82-.31,1.67-.55,2.51-.84.39-.13.56-.37.4-.83-.07-.22.1-.52.16-.78.07-.28.13-.57.2-.89-1.21.36-2.25.66-3.28.96-.06-.11-.12-.21-.18-.32.91-.74,1.83-1.48,2.73-2.22-.5.05-.98.09-1.47.14-.03-.07-.05-.14-.08-.21.23-.32.46-.65.68-.97-.03-.04-.05-.07-.08-.11-.29.21-.59.41-.88.63-1.32.99-2.62,2.01-3.95,2.98-.25.18-.64.19-.96.28,0-.35-.1-.72,0-1.03.15-.47.43-.9.66-1.34.46-.89.35-1.2-.62-1.54-.68-.23-1.38-.4-2.05-.65-.25-.09-.65-.38-.63-.49.07-.28.3-.61.55-.73,1.15-.58,2.34-1.09,3.51-1.63.37-.17.72-.36,1.07-.67h-1.79c-.05-1.44,1.06-2.37,2.8-2.44,1-.04,1.65-.5,1.95-1.4.06-.17.05-.36.1-.69-.64.2-1.17.37-1.82.58.07-.8.13-1.55.2-2.46-.44.52-.8.92-1.15,1.34-.27.32-.54.39-.94.19-.26-.13-.59-.13-.89-.15-.33-.03-.7.06-1-.04-.29-.09-.66-.33-.72-.57-.06-.23.17-.64.4-.81.53-.4,1.15-.68,1.69-1.07.61-.44.59-.67.05-1.17-.76-.71-.78-.93-.16-1.74.39-.51.79-1.02,1.14-1.56.13-.2.11-.49-.01-.78-.35.3-.66.66-1.05.87-.4.21-.89.26-1.35.39-.31-2.04.64-3.22,3.47-4.43-1.29-.79-1.31-.8-1.26-1.26-.48.37-.88.71-1.32,1.01-.17.11-.4.13-.61.19-.04-.22-.18-.46-.12-.65.27-.78.58-1.55.9-2.31.28-.67.6-1.32.9-1.98-.07-.07-.13-.14-.2-.21-.88.46-1.77.92-2.85,1.48.1-.53.07-.95.24-1.26.97-1.7,1.21-3.55,1.12-5.45-.07-1.59-.24-3.17-.36-4.76-.02-.24-.07-.49,0-.71.07-.26.19-.63.37-.69.24-.08.7,0,.84.17.48.63.98,1.3,1.26,2.03.43,1.1.63,2.29,1.03,3.4.7,1.89,1.54,3.7,3.52,4.67.5.25.5.64.03.93-.52.32-1.08.57-1.73.91.47.23.91.44,1.35.64.35.16.73.26,1.04.47.3.2.52.5.78.75-.29.21-.56.53-.88.61-.48.12-.72.33-.68.82.04.58.48.38.81.41.44.04.88.12,1.43.2-.3.45-.52.78-.77,1.15.59.62,1.32.99,2.23,1.04,1.26.07,1.59.3,1.78,1.23-1.23.4-2.47.81-3.83,1.25.78.65,1.5,1.26,2.22,1.86.43.36,1.08.72.82,1.36-.27.66-.98.41-1.54.38-.6-.03-1.19-.08-1.79-.12-.05.07-.09.15-.14.22.99.78,1.98,1.56,3.11,2.44-.85.09-1.51.16-2.2.23.09.65.36.98.96,1.14,1.38.37,2.77.53,4.2.42.3-.02.64,0,.91.13.88.38.95.96.21,1.53-.79.61-1.62,1.18-2.48,1.81,1.09.68,2.09,1.35,3.14,1.94,1.1.62,1.47,1.64,1.72,2.75.04.16-.1.51-.21.53-.25.05-.64.04-.77-.11-.49-.55-.99-.68-1.61-.22.31,1.05,1.42,1.82,1.33,3.26-.46-.12-.89-.17-1.27-.35-.72-.33-1.38-.77-2.11-1.08-.4-.17-.88-.18-1.36-.1.58.38,1.17.77,1.75,1.15-.01.09-.02.18-.03.26-.46.09-.91.19-1.38.28.74,1.4,2.56,1.59,3.59,2.94-.56.3-1.05.56-1.55.83.26.98.33.99,1.4.79.72-.14,1.5-.28,1.99.61-.98.89-2.32.4-3.44.79.52.62,1.31.79,2.11.43.42-.19.78-.32,1.17.07.11.1.4.06.6.02.58-.11,1.16-.25,1.81-.39-.01.26-.02.49-.04.78,1.36.21,2.41.84,2.8,2.44-.48-.04-.91-.1-1.33-.11-.8-.02-1.61-.06-2.4,0-.58.05-1.15.25-1.82.41,1.06.77,2.07,1.44,3,2.2.95.78,1.48,1.85,1.79,3.07-1.05.19-1.43-1.05-2.39-1.12.1.48.19.9.29,1.38-1.71.14-2.45-1.44-3.7-1.88.08.44.31.95.2,1.35-.11.37-.6.62-1.06,1.05,0,.5,0,1.23,0,1.96.03,2.42.16,4.84.09,7.26-.26,9.03-2.1,17.75-5.81,26-10.25,22.79-27.64,37.25-52.09,43.26-6.99,1.72-14.13,2.12-21.3,1.72-11.8-.66-22.74-4.19-32.99-9.93-.27-.15-.54-.31-.82-.44-3.7-1.77-6.21-4.66-8.06-8.24-2.84-5.51-4.61-11.35-5.84-17.38-1.19-5.84-1.78-11.75-1.9-17.7-.02-1.09.61-1.61,1.5-1.27.51.2.62.6.65,1.08.14,2.59.21,5.18.45,7.76.81,8.75,2.65,17.27,6.4,25.29,1.27,2.71,2.81,5.27,5.36,7.03,1.18.82,2.41,1.56,3.89,1.75,1.22.16,2.38-.13,3.52-.54,3.32-1.19,5.93-3.35,8.23-5.94,5.4-6.09,8.83-13.14,10.31-21.09.57-3.07,1.07-6.18,1.23-9.29.38-7.45-.71-14.72-3.01-21.83-3.38-10.45-9.14-19.48-16.53-27.53-2.02-2.2-4.24-4.21-6.38-6.29-1.76-1.72-3.51-3.43-4.88-5.51-1.77-2.68-1.74-5.36-.48-8.19,1.57-3.52,3.97-6.44,6.7-9.11,5.63-5.51,12.28-9.3,19.88-11.43,1.47-.41,2.97-.55,4.48-.24,1.31.27,2.05,1.21,1.83,2.3-.11.53-.43.94-.94.92-.36-.01-.83-.29-1.02-.59-.31-.49-.64-.59-1.18-.56-5.13.28-9.53,2.55-13.8,5.08-4.45,2.63-8.32,5.99-11.38,10.15-1.16,1.57-2.11,3.35-2.88,5.15-.96,2.24-.52,4.44,1.13,6.24,1.91,2.1,3.88,4.15,5.96,6.1,9.24,8.67,16.42,18.7,20.75,30.62,2.85,7.85,4.34,15.93,3.91,24.32-.39,7.65-1.73,15.06-5.26,21.94-1.05,2.05-2.35,3.97-3.54,5.96-.13.21-.25.43-.43.72.16-.06.23-.07.28-.1,6.82-4.25,14.31-6.98,22.02-9.09,7.12-1.95,14.36-3.48,21.54-5.2,6.3-1.51,12.64-2.92,18.89-4.6,5.32-1.44,10.47-3.4,15.29-6.12,4.38-2.47,8.15-5.6,10.91-9.84,1.53-2.35,2.43-4.94,2.63-7.68.33-4.55.45-9.12.6-13.68.03-.89-.17-1.8-.33-2.68-.15-.81-.48-.88-1.2-.52-.36.18-.85.11-1.28.15-.09.01-.18.05-.29.08ZM209.32,251.01c3.94,3.01,19.14,6.99,27.4,7.44,9.58.53,18.94-.66,28.05-3.68,9.12-3.03,17.23-7.77,24.5-14,7.22-6.18,16.52-19.38,17.26-22.27-.19.28-.34.5-.49.71-3.94,5.82-8.81,10.72-14.66,14.66-7.82,5.27-16.51,8.5-25.66,10.59-6.99,1.6-14.07,2.64-21.23,3.17-5.26.39-10.53.71-15.79,1.13-4.8.38-9.6.81-14.39,1.31-1.63.17-3.24.6-5,.94ZM216.82,246.18l.09.12c.09-.02.18-.03.27-.05,6.82-1.59,13.64-3.19,20.46-4.78,7.8-1.82,15.64-3.49,23.39-5.48,9.83-2.51,19.37-5.86,28.32-10.69,5.22-2.81,9.97-6.25,14.21-10.37.27-.26.5-.55.75-.82-1.57.85-3.04,1.8-4.57,2.64-5.32,2.91-11.01,4.94-16.87,6.4-9.23,2.31-18.51,4.45-27.79,6.59-6.04,1.39-12.07,2.78-17.92,4.88-6.05,2.17-11.87,4.76-16.97,8.72-1.16.9-2.26,1.89-3.39,2.84ZM219.21,247.46c0,.05.02.11.03.16.99-.06,1.99-.12,2.98-.19,3.63-.26,7.27-.55,10.9-.8,3.13-.22,6.28-.3,9.4-.63,4.93-.52,9.85-1.17,14.77-1.8,6.1-.78,12.02-2.27,17.82-4.3,7.27-2.55,13.99-6.08,19.91-11.02,4.87-4.07,8.65-9.01,11.85-14.42.04-.06.02-.15.03-.22-.05-.04-.11-.08-.16-.11-.76.79-1.51,1.59-2.27,2.38-3.09,3.16-6.59,5.83-10.35,8.14-9.33,5.72-19.46,9.56-30,12.41-12.84,3.47-25.88,6.08-38.85,9.01-2.02.46-4.04.94-6.05,1.41ZM312.11,175.89c-1.14-1.34-1.45-1.51-1.89-1.06.3.15.6.3.96.48-.36.27-.62.48-.89.68l.05.11c.56-.07,1.13-.14,1.77-.21ZM311.82,155.24c-.36-.2-.54-.3-.79-.45-.14.37-.25.65-.36.93.06.06.12.11.17.17.28-.19.57-.38.98-.66ZM304.63,147.15c.37.07.68.13,1.04.19-.07-.28-.16-.6-.29-1.09-.32.38-.52.63-.75.9ZM310.14,167.06c-.01-.06-.02-.13-.03-.19-.3,0-.62-.05-.9.03-.1.03-.11.36-.22.73.51-.25.83-.41,1.15-.56Z"/>
    <path class="cls-3" d="M239.27,164.32c-1.32.12-2.2.79-2.49,2.06-.44,1.89-.82,3.8-1.17,5.71-.37,1.99-.68,3.98-1.62,5.81-.29.57-.63,1.13-1.05,1.61-1,1.14-2.28,1.32-3.63.57-1.39-.77-2.35-1.95-3.03-3.34-2.14-4.36-4.25-8.72-6.38-13.08-.36-.73-.73-1.45-1.53-1.82-.45-.21-.77-.53-.53-1.06.25-.55.77-.71,1.26-.48.43.2.82.57,1.12.96,1.66,2.15,2.68,4.65,3.85,7.07,1.21,2.48,2.37,4.98,3.56,7.46.54,1.12,1.3,2.06,2.37,2.72.85.53,1.38.42,1.95-.41,1.01-1.49,1.47-3.19,1.78-4.93.37-2.01.65-4.03,1.03-6.03.11-.58.34-1.14.59-1.68.96-2.11,2.58-3.07,4.94-2.95,1.14.06,1.57.81,1.11,1.87-.45,1.04-1,2.08-1.2,3.17-.43,2.3,0,4.5,1.42,6.43,1.13,1.55,3.09,1.82,4.62.64,2.5-1.94,3.7-4.64,4.34-7.59.79-3.61.74-7.27.35-10.94-.65-6.13-2.32-12.01-4.53-17.75-.81-2.1-1.93-4.03-3.39-5.76-1.44-1.69-3.2-1.97-5.06-.75-.48.32-.94.4-1.31-.14-.34-.51-.1-.88.33-1.22,2.02-1.62,4.8-1.5,6.74.39,1.81,1.75,3.06,3.89,4.01,6.2,2.29,5.57,3.88,11.32,4.73,17.28.6,4.19.72,8.38-.11,12.57-.67,3.36-1.95,6.4-4.62,8.72-2.7,2.35-6.05,1.84-7.83-1.26-1.84-3.21-2.16-6.54-.59-10.03Z"/>
    <path class="cls-3" d="M277.49,145.25c.62.53.61,1.18.44,1.88-2.07,8.29-3.86,16.64-5.37,25.05-1.01,5.61-1.92,11.23-2.81,16.86-.38,2.37-.58,4.76-.88,7.14-.62,4.96-1.18,9.93-.97,14.93.1,2.38.51,4.76.87,7.12.1.66.45,1.31.81,1.88.53.86,1.36,1.07,2.24.58.54-.3,1.06-.67,1.47-1.12,1.98-2.17,3.91-4.38,5.86-6.58.11-.12.21-.26.32-.38.35-.35.75-.42,1.16-.12.42.32.43.73.13,1.13-.46.61-.92,1.22-1.43,1.79-1.77,1.94-3.5,3.91-5.36,5.76-.65.64-1.58,1.12-2.46,1.37-1.27.36-2.34-.26-3.14-1.27-1.06-1.35-1.6-2.94-1.77-4.6-.2-2.01-.18-4.04-.37-6.04-.37-3.83.34-7.59.63-11.38.27-3.55.67-7.09,1.17-10.62.55-3.87,1.26-7.72,1.96-11.57.94-5.2,1.88-10.41,2.94-15.59.99-4.81,2.15-9.58,3.21-14.37.18-.82.33-1.6,1.35-1.86Z"/>
    <path class="cls-3" d="M296.94,194.71c.1.64.04,1.15-.51,1.65-3.07,2.77-6.08,5.61-9.17,8.36-.66.59-1.49,1.05-2.32,1.35-1.38.5-2.67-.26-2.91-1.7-.32-1.94-.53-3.9-.76-5.86-.31-2.76.33-5.47.52-8.2.15-2.16.36-4.31.62-6.46.36-2.99.66-6.01,1.23-8.96,1.39-7.15,2.88-14.29,4.42-21.41.38-1.76,1.05-3.45,1.62-5.16.09-.28.28-.63.51-.73.3-.13.78-.18,1.04-.02.22.13.39.63.32.9-.17.71-.47,1.39-.75,2.07-1.32,3.26-1.86,6.72-2.6,10.12-1.05,4.87-2.08,9.75-2.93,14.66-.67,3.86-1.18,7.75-1.54,11.65-.38,4-.56,8.02-.7,12.03-.05,1.46.21,2.94.42,4.39.18,1.21,1.1,1.53,2.01.7,3.22-2.92,6.43-5.86,9.61-8.83.54-.51,1.06-.78,1.88-.55Z"/>
    <path class="cls-3" d="M263.75,159.61c-.78.01-1.28-.16-1.65-.68-.22-.31-.44-.63-.73-.87-.94-.77-2.04-.49-2.4.65-.63,1.97-1.33,3.93-1.71,5.95-.91,4.8-1.65,9.64-2.45,14.46-.03.16,0,.32,0,.57.45-.19.84-.36,1.23-.52.47-.19.95-.3,1.25.26.27.49.06.95-.58,1.25-.52.25-1.08.41-1.57.7-.26.16-.56.5-.58.78-.33,4.26-.86,8.53-.21,12.81.13.88.4,1.77.75,2.59.72,1.69,2.2,2.16,3.75,1.14.91-.6,1.72-1.37,2.49-2.15.51-.52,1.01-.77,1.75-.6.29.55.23,1.03-.26,1.5-.71.67-1.35,1.42-2.08,2.06-.92.81-2.04,1.26-3.27,1.33-1.39.08-2.54-.47-3.35-1.59-1.05-1.45-1.63-3.12-1.61-4.87.04-4.04.18-8.08.38-12.12.29-5.71,1.25-11.33,2.48-16.9.5-2.27,1.13-4.51,1.75-6.75.44-1.59,1.76-2.64,3.18-2.68,1.3-.04,2.93,1.08,3.44,2.44.13.36.02.8.02,1.23Z"/>
    <path class="cls-3" d="M242.81,265.35c2.36.14,4.75-.1,7.12-.57.2-.04.41-.16.6-.12.28.06.55.22.82.33-.19.23-.35.61-.58.65-1.23.26-2.46.49-3.71.62-1.42.14-2.86.16-4.38.24,0,.6-.01,1.24-.02,1.93,1.77-.03,3.5-.08,5.24-.09.34,0,.87-.19.91.42.04.65-.47.63-.92.64-1.72.02-3.43.05-5.19.07-.05.47-.1.93-.15,1.42,3.52-.67,6.96.24,10.42.57.23.02.42.38.64.58-.26.15-.53.45-.77.43-2.26-.21-4.51-.49-6.76-.7-.79-.07-1.59-.06-2.38.03-.7.08-1.24.43-1.39,1.25-.04.2-.34.35-.52.52-.14-.22-.4-.43-.41-.65-.02-.52.08-1.05.11-1.57.06-1.26.11-2.52.16-3.78.02-.53.21-1.11-.52-1.37-.09-.03-.05-.44-.07-.67.73-.04.36-1.43,1.3-1.12.21.07.28.56.47.97Z"/>
    <path class="cls-3" d="M212.83,266.94c.4-1.89.78-3.67,1.18-5.56-.6-.14-1.17-.24-1.72-.43-.16-.05-.36-.38-.33-.53.03-.16.34-.39.5-.36,2.97.5,5.99.79,8.75,2.18,1.15.58,2.1,1.35,2.12,2.69.02,1.37-.66,2.41-1.87,3.08-1.37.77-2.92.82-4.49.67-1-.1-1.98-.37-2.98-.44-1.48-.1-2.76-.83-4.15-1.2-.25-.07-.41-.46-.61-.71.3-.07.62-.27.89-.2.84.19,1.65.48,2.7.8ZM213.95,267.2c2.15.56,4.29.84,6.39-.02.84-.35,1.29-.94,1.27-1.82-.02-.96-.4-1.95-1.33-2.27-1.64-.56-3.38-.84-5.18-1.27-.37,1.74-.75,3.51-1.14,5.38Z"/>
    <path class="cls-3" d="M186.02,244.29c-.9,1.2-1.79,2.35-2.63,3.53-.27.38-.59.59-.93.26-.13-.12-.06-.65.1-.86.84-1.19,1.71-2.35,2.62-3.48.27-.34.31-.59.1-.97-.18-.32-.49-.79.03-1,.24-.1.64.2,1.11.37.16-.19.45-.55.8-.99-.4-.26-.83-.46-1.14-.77-.19-.19-.2-.56-.3-.85.27,0,.58-.1.81,0,.44.19.84.5,1.25.58.36-.07.71-.15,1.07-.22.04.32.09.64.16,1.16.41.32,1.04.78,1.64,1.26,1.46,1.18,2.64,2.62,3.48,4.31.41.82.93,1.74.17,2.56-.72.78-1.65.37-2.45.03-2.21-.94-4.08-2.37-5.48-4.38-.12-.17-.25-.32-.42-.53ZM186.79,243.35c.75,1.66,2.54,3.39,4.68,4.47.57.29,1.3.87,1.82.25.56-.66.04-1.45-.44-1.98-1.11-1.24-2.27-2.45-3.51-3.56-1.12-1-1.18-.93-2.1.22-.16.2-.32.4-.46.6Z"/>
    <path class="cls-3" d="M201.86,261.27c.89-1.7,1.76-3.37,2.65-5.07-.31-.07-.81-.13-1.24-.32-.24-.1-.39-.43-.58-.65.26-.12.58-.41.78-.35,1.67.53,3.41.97,4.96,1.75,2.15,1.08,2.91,2.88,2.29,4.65-.7,2.04-2.3,2.92-4.79,2.52-.96-.15-1.89-.52-2.84-.74-.37-.09-.77-.06-1.16-.08-.11,0-.27.04-.31-.01-.4-.47-.78-.95-1.12-1.46-.03-.04.3-.39.5-.44.21-.05.48.09.87.18ZM202.79,261.98c1.36.32,2.53.68,3.72.85,1.41.21,2.47-.37,2.9-1.41.58-1.4.34-2.63-.83-3.53-.63-.48-1.38-.83-2.11-1.16-.19-.08-.65.06-.76.23-.96,1.58-1.87,3.19-2.92,5.02Z"/>
    <path class="cls-3" d="M193.37,254.61c-.3-.07-.56-.06-.72-.18-.15-.12-.25-.38-.24-.58,0-.11.24-.25.4-.31.13-.05.32-.07.45-.02.96.42,1.58-.09,2.22-.72.66-.65,1.39-1.23,2.08-1.85.29-.25.56-.36.82.05.01.02.03.06.05.06,1.43.23.88,1.43,1.04,2.25.09.43.03.89.04,1.33,0,.03-.01.07,0,.08,1.04.93-.2,1.72-.15,2.61.05.98-.16,1.98-.35,2.96-.04.23-.43.38-.67.56-.11-.25-.34-.52-.32-.76.1-1.23.25-2.45.42-3.67.08-.54-.18-.75-.63-.86-.55-.13-1.1-.28-1.64-.46-.89-.3-1.69-.3-2.33.53-.24.3-.53.58-.86.78-.17.11-.45.03-.69.03,0-.26-.11-.6.01-.77.28-.39.67-.7,1.06-1.09ZM195.86,253.98c1.01.28,1.76.48,2.62.72-.02-.75-.04-1.4-.06-2.25-.89.53-1.63.97-2.56,1.52Z"/>
    <path class="cls-3" d="M226.17,269.5c.49.06.96.1,1.43.17,1.75.26,3.49.58,5.24.78,2.06.24,4.05-.01,5.81-1.54.15-.13.46.01.7.03-.07.27-.06.65-.21.79-1.29,1.17-2.78,1.78-4.39,1.73-1.54-.05-3.08-.33-4.62-.46-1.68-.14-3.36-.22-5.03-.36-.25-.02-.5-.21-.74-.32.13-.24.22-.56.4-.71.65-.54.9-1.3,1.07-2.14.18-.9.32-1.81.59-2.67.14-.47.48-.88.79-1.27.08-.1.44-.08.51.03.11.16.16.58.08.66-.96.9-1.02,2.2-1.26,3.42-.12.59-.23,1.18-.36,1.85Z"/>
    <path class="cls-3" d="M214.8,157.32c.77.02,1.77.71,1.88,1.27.05.26-.05.64-.23.81-.18.16-.62.23-.82.12-.47-.26-.91-.61-1.28-1-.15-.16-.19-.55-.1-.75.11-.23.43-.36.54-.44Z"/>
    <path class="cls-3" d="M312.11,175.89c-.64.08-1.2.15-1.77.21l-.05-.11c.27-.2.53-.41.89-.68-.36-.18-.66-.33-.96-.48.44-.44.75-.28,1.89,1.06Z"/>
    <path class="cls-3" d="M311.82,155.24c-.41.28-.69.47-.98.66-.06-.06-.12-.11-.17-.17.11-.28.22-.57.36-.93.25.14.44.25.79.45Z"/>
    <path class="cls-3" d="M304.63,147.15c.23-.27.43-.51.75-.9.13.49.21.81.29,1.09-.36-.07-.67-.12-1.04-.19Z"/>
    <path class="cls-3" d="M310.14,167.06c-.32.16-.64.31-1.15.56.1-.37.12-.7.22-.73.28-.08.6-.03.9-.03.01.06.02.13.03.19Z"/>
    <path class="cls-3" d="M259.09,263.74c.45,1.65.89,3.3,1.34,4.96.21.76,1.39.44,1.19-.33-.45-1.65-.89-3.3-1.34-4.96-.21-.76-1.39-.44-1.19.33h0Z"/>
    <path class="cls-3" d="M257.96,268.1c1.48-.47,2.89-1.17,4.15-2.09.27-.19.4-.53.22-.84-.16-.27-.57-.42-.84-.22-1.2.87-2.48,1.53-3.86,1.96-.32.1-.52.43-.43.76.09.31.44.53.76.43h0Z"/>
    <path class="cls-3" d="M275.17,256.45c-2.3.97-4.6,1.93-6.9,2.9-.72.3-1.59.62-1.83,1.46-.21.74.23,1.48.82,1.89.77.55,1.72.43,2.57.12,1.09-.39,2.1-.9,3.23-1.17.57-.14,1.14-.24,1.73-.31.24-.03.49-.05.73-.06.21-.01.61-.09.79.03.46.3-.15,1.18-.36,1.47-.31.42-.71.77-1.14,1.06-.94.64-2.02,1.03-3.1,1.36-1.31.41-2.65.7-4,.87-.38.05-.41.59,0,.61,2.08.12,4.23-.12,6.19-.84.69-.25,1.4-.63,1.76-1.31.29-.55.3-1.3-.06-1.82-.44-.64-1.2-.6-1.88-.5-1.16.17-2.33.31-3.5.41-.88.07-2.28.39-2.41-.84-.1-.97.7-1.6,1.46-2.02,2.14-1.19,4.39-2.21,6.58-3.3.35-.18.04-.71-.31-.53-1.95.98-3.91,1.95-5.86,2.93-1.27.64-2.82,1.57-2.43,3.25.15.66.64,1.11,1.31,1.2.98.13,2.09-.09,3.06-.2.49-.05.98-.11,1.47-.18s1.08-.25,1.57-.14c.44.1.62.52.59.94-.03.51-.35.9-.76,1.17-.87.57-2.06.79-3.07.97-1.22.22-2.47.28-3.71.2v.61c2.18-.28,4.41-.79,6.4-1.74.78-.37,1.53-.86,2.11-1.52.44-.51,1.12-1.48.85-2.2-.32-.83-1.61-.58-2.27-.51-1.12.12-2.23.37-3.3.75s-2.19,1.18-3.31.96c-.45-.09-.88-.42-1.07-.83-.26-.56.06-1.03.55-1.32.56-.32,1.19-.53,1.79-.78l1.93-.81,3.96-1.66c.36-.15.2-.75-.16-.59h0Z"/>
    <path class="cls-3" d="M271.33,262.64c1.38-.82,3.04-1.06,4.59-.66l.08-.6c-.86.06-1.71.11-2.57.17-.39.03-.4.64,0,.61.86-.06,1.71-.11,2.57-.17.33-.02.43-.51.08-.6-1.71-.44-3.55-.18-5.07.72-.34.2-.03.73.31.53h0Z"/>
    <path class="cls-3" d="M278.8,256.41c.61.63,1.26,1.22,1.96,1.75.58.44,1.3,1.11,2.08,1,.84-.11,1.76-.69,2.5-1.08.81-.42,1.61-.88,2.37-1.37,1.14-.74,2.83-1.64,2.77-3.22s-1.52-2.55-2.9-3.03l-.08.6c1.6.09,2.12,1.97,1.77,3.27-.38,1.38-1.46,2.52-2.69,3.2-2.51,1.38-5.55.62-7.36-1.53-.26-.31-.67.13-.43.43,1.02,1.31,2.39,2.28,3.97,2.81.38.13.54-.47.16-.59-1.48-.5-2.74-1.43-3.69-2.65l-.43.43c2.19,2.61,6.04,3.22,8.82,1.17,1.32-.97,2.41-2.51,2.41-4.2,0-1.43-1-2.87-2.51-2.95-.36-.02-.39.49-.08.6,1.21.43,2.91,1.47,2.37,3.03-.21.6-.79,1.01-1.29,1.36-.58.41-1.18.81-1.79,1.17s-1.17.68-1.77.99-1.37.8-2.06.93-1.54-.68-2.06-1.1c-.56-.45-1.09-.94-1.59-1.46-.27-.29-.71.15-.43.43h0Z"/>
    <path class="cls-3" d="M291.29,248.1c1.7,1.67,3.4,3.34,5.1,5l.43-.43c-1.87-1.46-3.73-2.92-5.6-4.38-.31-.24-.75.19-.43.43,1.87,1.46,3.73,2.92,5.6,4.38.3.24.73-.15.43-.43-1.7-1.67-3.4-3.34-5.1-5-.28-.28-.72.16-.43.43h0Z"/>
    <path class="cls-3" d="M291.23,249.06c.71-1.46,1.64-2.78,2.81-3.9.59-.56,1.23-1.07,1.91-1.52.32-.21.66-.4,1-.58.44-.23,1.25-.7,1.36.04s-.59,1.4-1.04,1.86c-.51.51-1.07.97-1.62,1.44-1.07.9-2.11,1.84-2.7,3.13-.12.25.14.62.42.42,3.12-2.25,6.38-4.56,10.25-5.23l-.16-.59c-3.55.65-6.84,2.21-9.62,4.5l.43.43c1.49-1.52,2.98-3.04,4.47-4.56.28-.28-.16-.72-.43-.43-1.49,1.52-2.98,3.04-4.47,4.56-.28.29.13.68.43.43,2.7-2.22,5.91-3.72,9.35-4.34.39-.07.22-.66-.16-.59-3.92.67-7.24,3.01-10.4,5.29l.42.42c.79-1.7,2.36-2.72,3.7-3.94.57-.52,1.22-1.11,1.54-1.83.23-.53.36-1.32-.12-1.76-.63-.58-1.53,0-2.13.32-.82.44-1.58.98-2.29,1.58-1.47,1.25-2.65,2.81-3.49,4.54-.17.35.36.67.53.31h0Z"/>
    <path class="cls-3" d="M301.97,238.85c1.5,1.75,3.23,3.28,5.16,4.55.29.19.64-.26.37-.48l-2.95-2.48-1.47-1.24c-.22-.18-.55-.37-.55-.67,0-.32.39-.64.59-.88,1.65-1.94,3.29-3.88,4.94-5.81.25-.3-.15-.72-.43-.43-2.24,2.28-4.33,4.68-6.28,7.2-.1.12-.14.31,0,.43.65.57,1.29,1.14,1.95,1.7.41.35.93.7,1.48.4.29-.16.51-.45.73-.68.3-.32.61-.64.91-.97.61-.64,1.21-1.29,1.82-1.93l-.43-.43c-.64.69-1.28,1.38-1.92,2.07-.44.47-1,1.01-1.03,1.7-.02.52.28.91.71,1.16.4.23,1.16.33,1.24.87.06.39.65.22.59-.16-.15-.98-1.29-.81-1.8-1.44s.62-1.57,1.02-2c.54-.58,1.09-1.17,1.63-1.75.27-.29-.16-.72-.43-.43-.91.97-1.82,1.93-2.72,2.9-.22.23-.49.61-.85.6-.27,0-.68-.49-.89-.67l-1.54-1.35v.43c1.95-2.52,4.05-4.93,6.28-7.2l-.43-.43c-.97,1.14-1.94,2.28-2.91,3.42-.46.54-.92,1.08-1.38,1.62-.42.5-.94.99-1.29,1.55-.66,1.05.9,1.89,1.56,2.44l3.47,2.92.37-.48c-1.88-1.24-3.57-2.74-5.03-4.46-.26-.3-.69.14-.43.43h0Z"/>
    <path class="cls-3" d="M294.7,248.93c1.29-.99,2.43-2.14,3.4-3.45.41-.55.86-1.17.6-1.89-.2-.57-.76-.99-1.35-1.08-.8-.12-1.56.28-2.22.69s-1.33.92-1.93,1.46-1.13,1.13-1.62,1.77c-.41.54-.8,1.1-.49,1.79.17.37.48.68.74.99.36.43.72.86,1.08,1.29.72.86,1.43,1.72,2.15,2.58.25.3.69-.13.43-.43-.61-.73-1.22-1.46-1.83-2.2s-1.29-1.44-1.85-2.22c-.32-.44-.21-.77.08-1.18.25-.35.52-.67.8-.99.54-.61,1.14-1.17,1.79-1.66s1.38-1.05,2.17-1.24c.46-.11.94-.04,1.27.32.36.39.24.82-.02,1.22-.92,1.42-2.18,2.68-3.51,3.71-.31.24,0,.77.31.53h0Z"/>
    <path class="cls-3" d="M288.15,250.08c.93.98,2.08,2.25,2.01,3.7s-1.5,2.29-2.68,2.85c-2.24,1.06-5.25,1.71-7.32-.07-.3-.26-.72.15-.43.43,1.23,1.21,2.87,1.89,4.6,1.85.4,0,.4-.62,0-.61-1.57.04-3.05-.57-4.17-1.67l-.43.43c2.38,2.05,5.77,1.32,8.34.03,1.29-.65,2.59-1.6,2.7-3.16.12-1.66-1.12-3.1-2.18-4.22-.27-.29-.71.15-.43.43h0Z"/>
    <path class="cls-3" d="M302.75,238.11c1.51,1.83,3.08,3.63,4.69,5.37l.37-.48c-2.03-1.33-4.06-2.67-6.08-4l.06.48c.58-.5,1.49-.16,1.78.48.16.36.69.05.53-.31-.47-1.04-1.89-1.34-2.75-.61-.16.14-.09.38.06.48,2.03,1.33,4.06,2.67,6.08,4,.3.2.6-.23.37-.48-1.61-1.75-3.18-3.54-4.69-5.37-.25-.31-.68.13-.43.43h0Z"/>
  </g>
</svg>