<?xml version="1.0" encoding="UTF-8"?>
<svg id="Layer_1" xmlns="http://www.w3.org/2000/svg" viewBox="0 0 400 400">
  <defs>
    <style>
      .cls-1 {
        fill: #474747;
      }

      .cls-1, .cls-2, .cls-3, .cls-4, .cls-5, .cls-6, .cls-7, .cls-8, .cls-9, .cls-10 {
        fill-rule: evenodd;
      }

      .cls-2, .cls-11 {
        fill: #fff;
      }

      .cls-12 {
        font-family: 'Jay_Serif', Jay_Serif;
        font-size: 12.59px;
        stroke: #262626;
        stroke-width: .65px;
      }

      .cls-12, .cls-9 {
        stroke-miterlimit: 10;
      }

      .cls-12, .cls-10 {
        fill: #262626;
      }

      .cls-3 {
        fill: #b7dee0;
      }

      .cls-4 {
        fill: #3b3b3b;
      }

      .cls-5 {
        fill: #b2d685;
      }

      .cls-6 {
        fill: #53979a;
      }

      .cls-7 {
        fill: #662d91;
      }

      .cls-11 {
        font-family: AmericanTypewriter-CondensedBold, 'American Typewriter';
        font-size: 44px;
        font-weight: 700;
      }

      .cls-9 {
        fill: #e4e5e6;
        stroke: #e4e5e6;
        stroke-width: 7.57px;
      }
    </style>
  </defs>
  <g>
    <path class="cls-4" d="M135.68,125.11s9.8.47,21.47-.47c11.66-.93,26.59-4,33.59-2.69,7,1.29,80.27-1.04,84.94-.57,4.67.47,35.93,3.26,38.73,3.26s21.94.47,32.2.94l10.27.47,6.07.93s-19.13,24.27-19.13,26.13-3.27,4.67-4.2,7.47c-.93,2.8-4.67,7.47-4.67,7.47l-58.33,92.86s-18.67,21.94-18.67,23.8-7.47,17.27-9.33,20.07c-1.87,2.79-16.8-13.54-17.27-14.94-.47-1.4-14.93-27.53-14.93-27.53,0,0-8.86-11.21-14.47-20.07-5.6-8.86-49-77.92-50.39-80.73-1.4-2.8-15.87-36.4-15.87-36.4Z"/>
    <path class="cls-9" d="M236.14,94.51c7.27-1.8,14.54-2.17,21.78-1.16,3.18.44,6.31,1.31,9.33,2.33,6.17,2.08,12.32,4.3,18.37,6.66,3.2,1.25,6.6,2.46,9.21,4.48,5.35,4.14,10.5,8.58,15.25,13.32,7.52,7.55,11.89,16.88,15.51,26.55,1.08,2.84,2.58,5.57,3.47,8.47,3.95,12.93,6.15,26.01,3.61,39.62-.79,4.22-1.72,8.36-3.14,12.44-1.37,3.95-2.6,7.96-3.53,12.02-1.17,5.04-3.8,9.41-7,13.46-4.05,5.13-8.4,10.09-13.63,14.24-4.4,3.48-8.71,7.14-13.48,10.08-3.68,2.26-7.93,3.76-12.08,5.2-12.92,4.46-26.26,6.55-39.91,5.48-11.61-.91-22.73-3.67-33.28-8.17-5.18-2.21-10.39-4.38-15.28-7.06-11.78-6.47-21.09-15.21-28.14-26.32-5.95-9.38-8.62-19.32-8.59-30.15,0-2.79-.13-5.6-.4-8.39-.97-9.86,1.01-19.42,3.81-28.92,1.92-6.51,4.5-12.77,8.38-18.54,6.31-9.34,12.8-18.66,22-25.73,6.24-4.82,13.12-8.93,20.01-12.91,2.69-1.56,6.19-1.83,9.29-2.75,6.09-1.81,12.03-4.2,18.45-4.23Z"/>
    <path class="cls-10" d="M307.16,127.01c2.2-2.28,4.68-4.03,7.26-5.5,2.22-1.26,4.75-2.04,7.21-2.82,1.08-.34,2.26.18,3.26.74,1.38.77,2.55,1.82,2.93,3.41.46,1.96.83,3.96,1.11,5.97.17,1.22-.22,2.44-.83,3.51-1.77,3.03-4.21,5.34-7.61,6.45-1.25.42-2.41.95-3.38,2.06.19.4.34.85.6,1.22.92,1.33,1.89,2.62,2.8,3.95.27.4.43.87.63,1.31,1.79,4,3.24,8.13,4.33,12.37.61,2.35,1.27,4.69,1.8,7.06.81,3.64,1.13,7.36,1.42,11.08.09,1.22.2,2.44.21,3.65.01,1.29.01,2.6-.15,3.88-.49,3.7-.72,4.09-3.63,6.48-.54.44-1.25.77-1.93.95-3.53.95-7.11,1.64-10.78,1.78-.89.03-1.77.19-2.66.23-1.69.09-3.39.09-5.08.23-2.74.21-5.47.5-8.21.79-3.7.38-7.4.86-11.15.91-3.16.04-6.32.19-9.48.07-1.44-.05-2.9.29-4.36.33-3.97.09-7.95.09-11.92.16-1.06.02-2.11.08-3.16.18-5.01.49-10.03.61-15.06.47-2.51-.06-5.04.15-7.54.04-4.13-.18-8.26.11-12.39-.26-1.92-.17-3.87.06-5.81.07-.89,0-1.78-.04-2.67-.1-2.26-.16-4.53-.32-6.78-.5-3.39-.27-6.78-.58-10.18-.88-.32-.03-.63-.12-.95-.19-4.03-.96-8.03-1.98-12.07-2.89-3.4-.76-6.82-1.4-10.24-2.05-1.75-.33-3.37-1.18-5.2-1.21-.64,0-1.17-.49-1.53-1.09-.67-1.1-1.4-2.18-2.71-2.66-.2-.07-.4-.28-.5-.49-.42-.78-.94-1.55-1.17-2.38-.61-2.17-1.21-4.34-.38-6.65.52-1.45.8-2.98.12-4.52-.14-.33-.11-.79-.03-1.16.3-1.26.68-2.51.98-3.77.2-.86.29-1.74.43-2.62.06-.39.06-.83.22-1.19.78-1.82.83-3.78,1.27-5.66.11-.47.14-1.07.44-1.34.76-.72.96-1.63,1.31-2.55,1-2.65,2.07-5.29,3.24-7.86.7-1.53,1.52-3.02,2.59-4.36.3-.37.53-.81.72-1.25.57-1.28,1.28-2.44,2.45-3.26.46-.34.8-.75.94-1.36.15-.62.51-1.19.71-1.8.35-1.06.96-1.86,2.02-2.29.78-.32,1.2-.95,1.64-1.69.59-1.03,1.45-1.92,2.24-2.83.92-1.06.94-1.04,1.15-2.6.47-.17,1.07-.26,1.5-.57.64-.46,1.18-1.08,1.77-1.63.06-.06.14-.11.16-.18.99-3.2,3.85-4.62,6.21-6.51,1.19-.95,2.37-1.95,3.78-2.62.5-.24.93-.66,1.31-1.08.67-.73,1.45-1.27,2.33-1.72.5-.25,1.01-.55,1.42-.92,2.54-2.38,5.64-3.79,8.75-5.19,1.62-.72,3.32-1.27,4.95-1.94,2.48-1.01,4.98-1.87,7.58-2.5.94-.22,1.87-.52,2.75-.9,1.76-.77,3.64-.76,5.48-1.01.96-.13,1.92-.27,2.87-.4,1.28-.16,2.56-.31,3.84-.43.31-.03.67.18.96.09,3.48-1,6.9-.02,10.36.19,3.5.22,6.95.63,10.39,1.18,1.83.29,3.62.9,5.4,1.45,2.02.63,3.97,1.43,5.99,2.03,2.04.61,3.93,1.51,5.77,2.54,2.26,1.26,4.63,2.32,6.77,3.8,3.07,2.13,6.27,4.06,9.24,6.32,2.18,1.65,4.47,3.2,6.4,5.21,1.11,1.16,2.5,2.08,3.77,3.06.9.7,1.8,1.39,2.75,2.02.75.5,1.09,1.14,1.01,2.13ZM323.85,176.52c.1-.1-.16-.55-.17-.61-.62-2.42-.77-4.53-1.42-6.95-.12-.43-.29-.86-.42-1.22-.34-.02-.51-.07-.66-.03-2.32.72-4.63,1.47-6.95,2.19-1.24.39-2.47.84-3.73,1.08-4.53.88-9.08,1.68-13.66,2.23-1.44.17-2.9.27-4.35.29-3,.05-5.99,0-8.98.03-.54,0-1.07.21-1.48.29-.13.24-.2.3-.21.38,0,.23-.02.48,0,.72.2,2.07-.82,3.64-2.24,4.89-1.74,1.53-3.86,2.37-6.21,2.49-1.05.05-2.11-.08-3.15.03-1.44.15-2.69-.21-3.96-.87-1.41-.72-2.92-1.26-4.43-1.9-.13.13-.35.28-.46.49-.49,1.01-.36,1.55.49,2.05.35.2.73.36,1.11.5,1.07.39,2.13.79,3.2,1.15,3.58,1.19,6.08,3.56,7.61,6.98.55,1.25,1.06,2.52,1.58,3.73,2.44-.08,4.77-.18,7.12-.27.08,0,.16,0,.24-.03,2.21-.64,4.5-.48,6.77-.64.97-.06,1.95-.12,2.91-.21,4.11-.46,8.21-.99,12.33-1.39,5.35-.53,10.55-1.72,15.73-3.1.86-.22,1.7-.53,2.54-.82.57-.19,1.04-.55,1.13-1.16.28-1.83.81-3.63.41-5.53-.33-1.58-.47-3.21-.69-4.8h0ZM171.14,156.57c-.5.18-1.09-.64-1.75.33.75-.14,1.26-.24,1.77-.33-.22.37-.88.51-.55,1.27,1.68-.84,3.3-1.68,4.72-2.92.73-.63,1.56-1.15,2.39-1.65.89-.54,1.83-1.01,2.75-1.52.49-.27.96-.62,1.47-.84,2.32-.96,4.37-2.45,6.63-3.54.56-.27,1.02-.79,1.49-1.24,2.03-1.96,4-3.99,5.73-6.24.34-.44.74-.89,1.2-1.2,3.01-2.06,6.05-4.08,9.07-6.11,1.83-1.24,4.13-.73,5.56.71,1.53,1.55,2.96,3.18,4.46,4.75.44.46.96.88,1.5,1.2.96.58,1.38.52,2.15-.25.92-.91,1.68-1.92,2.32-3.08,1.1-1.96,2.69-3.13,5.16-2.81,1.71.22,3.34.54,4.86,1.42,1.17.67,2.35,1.43,3.71,1.53.45-.85.94-1.58,1.24-2.38.96-2.51,2.87-3.81,5.34-4.52,2.5-.7,4.85-.74,7.29.53,2.23,1.16,4.1,2.55,5.42,4.7.5.82,1.13,1.56,1.69,2.32.55-.03,1.22-.27,1.44-.05.85.85,1.94.72,2.93.97,1.02.25,2.03.45,2.91,1.13.86.68,1.91.77,3.01.72,2.92-.12,5.52-1.24,8.03-2.56,1.38-.72,2.73-1.1,4.19-.62,1.61.54,3.28,1.02,4.71,1.9,1.49.93,2.96,1.14,4.62,1.05,1.93-.1,3.89-.08,5.69.7.3.52.57.98.86,1.48.34-.15.64-.18.76-.35,1.04-1.53,2.29-2.9,3.05-4.6.8-1.77,1.75-3.45,3.33-4.71.68-.54,1.2-1.28,1.77-1.91-.12-.87-.72-1.31-1.3-1.75-.4-.28-.87-.48-1.22-.79-1.56-1.41-3.05-2.9-4.65-4.26-1.47-1.27-3.05-2.42-4.58-3.6-.76-.6-1.65-1.07-2.29-1.77-.96-1.05-2.15-1.7-3.34-2.39-1.4-.82-2.78-1.65-4.17-2.48-.42-.25-.79-.58-1.22-.79-4.1-1.96-8.19-3.94-12.3-5.83-1.02-.47-2.13-.76-3.22-1.03-1.58-.39-3.19-.61-4.75-1.02-3.05-.83-6-1.95-9.09-2.67-2.26-.52-4.51-.85-6.73-.31-3.42.83-6.91.92-10.35,1.4-4.33.6-8.65,1.15-12.79,2.69-4.58,1.71-8.98,3.77-13.17,6.27-4.94,2.96-9.62,6.32-14.27,9.72-1.5,1.1-3.01,2.23-4.35,3.52-2.89,2.73-5.47,5.76-7.95,8.87-1.51,1.89-2.88,3.92-4.23,5.94-.53.8-.76,1.79-1.27,2.6-.52.83-1.74,1.09-1.83,2.36-.02.34-.81.64-1.29,1,.4.34.67.58.99.85-.3.6-.62,1.17-.86,1.76-.22.57-.36,1.16-.51,1.7-.36-.04-.59-.07-.95-.12.08.4.22.76.21,1.12-.01.37-.33.8-.23,1.1.16.48.45.89-.05,1.29-.35.27-.77.46-1.21.73.36.85.38,1.73.05,2.61ZM273.64,194.4c-.15-.56-.18-.98-.37-1.29-.56-.89-1.22-1.72-1.79-2.61-1.19-1.88-2.89-3.03-5.01-3.59-.86-.23-1.73-.46-2.59-.68-1.91-.46-3.39-1.6-4.52-3.13-.66-.88-1.42-1.82-1.25-3.07.12-.89.27-1.77.52-2.63.33-1.12,1.53-1.55,2.54-.94,1.25.74,2.44,1.6,3.72,2.26,1.14.61,2.33,1.2,3.57,1.47,1.16.25,2.43.14,3.64.05,3.13-.24,5.78-1.42,7.68-4.05.53-.74.69-1.47.33-2.28-.22-.51-.46-1.05-.82-1.47-1.22-1.4-2.1-3.08-3.66-4.2-.64-.46-1.1-1.19-1.57-1.85-.33-.47-.5-1.03.06-1.66.22,0,.54-.03.84,0,.89.08,1.59-.24,2.14-.91.14-.18.19-.42.28-.63-.43-.53-.83-1.02-1.16-1.41.34-.51.68-.87.82-1.29.43-1.3,1.28-2.24,2.33-3.03.98-.73,2.02-1.39,2.93-2.17,1.2-1.03,2.46-1.46,4.03-.96.57.18,1.25.36,1.82-.15-.15-.9-.31-1.74-.44-2.48,1.02-.57,1.89-.99,2.69-1.53,1.55-1.03,3.25-1.92,4.53-3.22,1.46-1.5,3-1.96,4.97-1.81,1.71.13,3.35-.46,5-.84,1.17-.28,2.33-.64,3.45-1.09,3.84-1.52,7.5-3.42,11-5.59,2.05-1.27,4.02-2.7,5.48-4.71.51-.71,1.17-1.35,1.88-1.86.95-.7,1.28-1.64,1.25-2.72-.03-.97-.13-1.95-.28-2.91-.62-3.83-4.6-5.41-7.56-4.52-3.29,1-6.23,2.7-8.98,4.75-2.11,1.57-3.7,3.62-5.46,5.52-2.42,2.6-4.77,5.26-6.79,8.22-1.55,2.26-3.83,3.95-6.08,5.53-1.74,1.21-3.41,2.46-4.87,3.99-.28.29-.62.52-.88.73-.72-.05-1.36-.05-1.97-.15-.6-.09-1.19-.29-1.93-.49.08.89.15,1.59.2,2.22-1.2,1.1-2.32,2.14-3.45,3.17-.54.49-1.08.98-1.65,1.44-.69.57-1.38,1.04-2.4.95-.49-.05-1.16.24-1.5.61-.54.58-1.24.73-1.89,1.01-.12.06-.31,0-.49-.02-.58-.34-.64-1.37-1.83-1.27-.52.44-1.26.96-1.86,1.59-.69.74-1.54,1.16-2.45,1.53-1.19.49-2.24.24-3.16-.58-.48-.43-.89-.94-1.27-1.46-.42-.6-.97-.83-1.65-.85-.49,0-.98,0-1.46-.03-1.2-.07-2.18-.6-2.98-1.47-.55-.59-.68-1.03-.25-1.76.49-.82,1.11-1.58,1.69-2.35.23-.31.51-.58.8-.9-.76-.85-1.73-.62-2.54-.88-.68-.22-1.32-.61-1.92-1-.54-.37-.32-1.04-.46-1.57-.33-1.27-.38-2.54-.28-3.85.17-2.18.4-4.37-.49-6.49-.12-.29-.12-.64-.13-.96-.03-1.16-.57-1.99-1.57-2.56-.64-.36-1.22-.8-1.87-1.14-1.3-.65-2.63-.76-3.97-.06-1.44.76-2.96,1.25-4.46,1.31-1.78,1.79-1.8,3.94-1.79,6.04,0,1.76.39,3.54.4,5.31,0,1.12,1.16,1.74.99,2.91-.03.21.55.49.79.8.14.16.25.51.16.64-.15.24-.43.52-.69.54-1.12.14-2.25.18-3.38.29-1.55.16-1.91,1.04-.95,2.3.29.39.7.68,1,1.06.4.51.81,1.02,1.1,1.59.53,1.01.44,1.68-.39,2.4-.85.74-1.78,1.41-2.71,2.05-1.92,1.3-3.47,2.98-4.44,5.06-1.03,2.2-1.74,4.52-1.74,7.03,0,2.05-.92,3.75-2.75,4.86-.42.25-.81.54-1.22.81-1.54,1.03-2.32,2.42-2.17,4.31.04.55.09,1.16-.08,1.68-.44,1.37.03,2.31,1.07,3.2.98.84.78,1.7-.43,2.14-2.27.82-3.87,2.48-5.54,4.11.58.53,1.06.25,1.47.06,1.55-.69,3.12-1.37,4.62-2.17,1.14-.61,2.15-1.47,3.29-2.08,1.13-.61,2.33-1.07,3.51-1.59.52-.22,1.04-.44,1.66-.71.37.4.73.8,1.05,1.15q-1.04,1.71-.74,2.94c-.52.62-1.02,1.24-1.54,1.85-.5.59-1.04,1.18-1.55,1.77.21.7.76.78,1.36.76,1.38-.03,2.76-.15,4.13-.09,3.97.18,7.94.4,11.92.25,4.7-.16,9.4.31,14.11-.03,3.63-.26,7.29-.12,10.94-.18.7-.02,1.41-.17,2.27-.27ZM167.71,167.16c.58-.02.98.04,1.34-.04,2.29-.52,4.58-1.04,6.85-1.61,3.3-.84,6.6-1.59,10.03-1.68,2.74-.07,5.44-.58,8.2-.58,2.33,0,4.67-.35,7-.5.64-.04,1.29.06,1.94.13,4.03.43,8.04.9,12.07,1.27,3.24.3,6.41.86,9.44,2.23.26-.23.55-.39.71-.64.98-1.57,1.95-3.15,2.9-4.75.69-1.16,1.71-1.92,2.89-2.5.95-.46,1.9-.93,2.8-1.47.95-.56.98-1.01.31-1.96-.79-1.13-1.6-2.25-2.27-3.44-.66-1.18-.22-2.24,1.04-2.74.82-.32,1.68-.52,2.66-.82-.04-3.03-1.05-5.94-.5-8.62-1.45-2.77-4.24-2.93-6.37-4.17-.13-.08-.31-.07-.47-.08-2.02-.14-3.67.4-4.66,2.35-.88,1.75-1.95,3.36-3.81,4.27-1.65.02-2.94-.68-4.04-1.88-1.2-1.31-2.45-2.6-3.74-3.83-.7-.66-1.5-1.25-2.33-1.71-.98-.55-1.99-.47-2.98.21-1.6,1.1-3.28,2.1-4.88,3.21-1.46,1-2.99,1.97-4.27,3.18-1.35,1.26-2.58,2.71-3.62,4.24-1.38,2.03-3.24,3.37-5.38,4.42-1.61.8-3.17,1.61-4.44,2.92-.38.4-.89.72-1.39.96-3.84,1.86-7.08,4.54-10.23,7.34-1.26,1.13-2.42,2.39-3.55,3.65-.59.65-1.13,1.39-1.3,2.67ZM276.77,167.37c.65.79,1.47,1.45,2.11,2.27.87,1.12,1.98,1.31,3.23,1.3,2.02,0,4.05,0,6.07-.05,2.51-.07,5.03-.13,7.54-.29,1.93-.12,3.88-.26,5.79-.6,3.34-.61,6.68-1.31,9.98-2.11,2.44-.58,4.83-1.37,7.23-2.11.52-.15.98-.49,1.49-.74-.12-.34-.15-.61-.28-.78-1.06-1.23-1.43-2.75-1.59-4.27-.14-1.32-.62-1.98-1.88-2.44-2.06-.75-4.02-1.71-6.02-2.63-.35-.17-.7-.44-.94-.75-.8-1.07-1.86-1.78-2.93-2.54-.85-.6-1.61-1.35-2.42-2.02-.54-.44-.72-1.03-.8-1.7-.06-.42-.2-.86.29-1.01.24-.08.61.12.88.26.2.12.38.33.49.53.92,1.73,2.48,2.73,4.09,3.7.9.55,1.78,1.13,2.57,1.81,1.96,1.65,4.2,2.32,6.89,2.21-.28-1.19-.48-2.29-.78-3.36-.64-2.25-1.21-4.54-2.08-6.71-.37-.92-.63-1.74-.54-2.7.01-.1-.2-.22-.4-.44-.4.07-.95,0-1.31.24-1.68,1.06-3.61,1.43-5.41,2.15-1.65.66-3.31,1.1-5.16,1.06-2.27-.05-4.49.42-6.2,2.22-.66.7-1.54,1.18-2.32,1.76-1.28.97-2.55,1.95-3.87,2.95.14.47.3.84.34,1.23.05.39.03.8-.01,1.2-.14,1.04-.53,1.48-1.56,1.47-1.22-.02-2.42-.17-3.69-.27-2.76,1.31-4.77,3.69-7.22,5.4.94,2.85.92,2.9-1.57,5.73ZM293.98,141.67c-.5-.19-1-.53-1.53-.56-1.85-.14-3.72-.17-5.58-.25-.56-.03-1.25.09-1.65-.18-1.23-.85-2.7-1.1-3.97-1.79-1.81-.98-3.5-.78-5.35,0-2.97,1.26-5.99,2.42-9.38,2.07-1.15-.12-2.2-.15-3.24-.73-1.92-1.09-3.99-1.12-6.11-.79-.12.3-.25.52-.27.74-.18,2.11-.34,4.21-.51,6.31-.01.16,0,.33,0,.49.07,1.13.42,1.55,1.54,1.86.54.15,1.11.26,1.6.5,1.24.61,1.38,1.47.41,2.48-.77.82-1.51,1.64-1.85,2.93,2.46.68,4.56,1.77,5.89,3.79,1.46-.12,2.47-.73,3.34-1.64.4-.41.79-.84,1.25-1.16,1.13-.8,2.23-.64,3.22.4.21.22.4.48.67.79.64-.26,1.28-.41,1.8-.75,1.16-.74,2.29-1.54,3.36-2.4.82-.65,1.55-1.43,2.27-2.19.59-.62.83-1.36.72-2.23-.08-.64-.17-1.29-.11-1.93.15-1.52,1.59-2.17,2.87-1.35.33.22.56.59.89.83.51.37,1.06.7,1.52.99,1.47-.79,7-4.68,8.02-5.65.1-.09.09-.3.16-.58ZM217.01,186.1c-.12.14-.19.32-.32.39-1.34.73-2.92.94-4.12,2-.23.2-.79.14-1.16.05-.63-.15-1.25-.38-1.83-.66-2.64-1.29-5.44-2.13-8.24-2.94-2.9-.85-5.8-1.37-8.86-1.24-3.64.15-7.3,0-10.94.02-2.19,0-4.39,0-6.57.12-1.2.06-2.39.38-3.58.64-.38.08-.72.37-1.1.49-.34.11-.73.1-1.45.18,1.44.91,2.54,1.68,3.99,1.78.47.03.93.22,1.39.35.77.22,1.53.5,2.32.7,1.47.36,3.05.17,4.45.98.39.22.95.15,1.43.19,1.37.13,2.76.16,4.11.4,3.25.58,6.39,1.71,9.69,2.08,1.44.17,2.86.57,4.31.7,2.98.27,5.98.44,8.97.64,1.24.08,2.42-.18,3.48-.87,2.31-1.51,4.62-3,6.92-4.52.31-.22.55-.55.84-.86-.32-.84-.7-1.57-.86-2.35-.15-.86-.16-1.74-.58-2.57-.18-.37-.08-.97.07-1.4.4-1.15.92-2.22,1.83-3.1,2.19-2.11,2.9-4.79,2.8-7.74-.02-.74-.38-1.22-1.09-1.42-1.16-.34-2.32-.74-3.51-1-3.82-.79-7.67-1.35-11.56-1.59-.28-.02-.65-.11-.77.32.12.11.22.25.35.3,2.81,1.01,5.65,1.99,8.46,3.03,2.87,1.08,2.85,1.12,3.66,3.96.06.23.11.47.14.6-.36,1.1-.67,2.1-1.01,3.09-.3.84-.82,1.13-1.7.89-1.33-.35-2.7-.62-3.97-1.15-2.14-.9-4.39-1.13-6.65-1.33-.26-.03-.54.17-.92.29.27.32.4.55.59.66,2.11,1.19,4.23,2.38,6.56,3.15.92.31,1.83.67,2.69,1.13.81.42,1.46,1.06,1.53,2.05.09,1.2.14,2.4.2,3.58ZM212.88,183.46c.26-1.52.09-1.92-.99-2.45-1.61-.77-3.26-1.46-4.85-2.25-1.1-.55-2.21-.99-3.42-1.19-2.55-.41-5.11-.82-7.66-1.28-2.32-.41-4.65-.58-7.01-.37-1.45.13-2.91.12-4.37.25-1.77.17-3.55.32-5.29.64-3.59.65-7.02,1.88-10.41,3.24-.3.12-.65.24-.83.46-.23.29-.4.7-.4,1.04,0,.17.46.45.72.48.64.06,1.29.02,1.93-.03,4.03-.28,8.07-.73,12.11-.18.31.04.64.03.97.03,2.99-.07,5.99.26,8.97-.19.31-.05.64.02.97.03,2.92.24,5.77.85,8.56,1.72,2.62.82,5.25,1.67,7.8,2.69,1.57.63,2.06.14,2.66-1.1.27-.58.44-1.21.55-1.52ZM209.81,169.83s0,.04,0,.06c-2.18-.18-4.36-.32-6.53-.52-4.78-.44-9.54-.41-14.31.15-2.33.27-4.68.55-7.01.64-4.76.15-9.27,1.36-13.74,2.84-.37.12-.72.38-1.02.64-.15.12-.25.49-.17.64.13.26.38.49.64.62.18.09.49.02.7-.06,1.87-.79,3.86-1.09,5.82-1.57,3.96-.98,8-1.17,12-1.75,1.28-.18,2.6-.51,3.85-.38,2.3.26,4.52-.2,6.79-.23.56,0,1.13-.03,1.7.03,1.84.19,3.69.4,5.54.63,2.17.27,4.33.63,6.4,1.37.99.35,2.02.58,3.01.96,1.18.44,2.03.06,2.77-.86.7-.85.65-1.5-.28-1.96-.64-.32-1.35-.58-2.05-.7-1.35-.23-2.72-.37-4.1-.54ZM226.44,192.46c-1.13.18-1.98.5-2.93,1.26,1.06.38,1.87.48,2.84.2.03-.45.05-.88.08-1.47ZM205.75,165.67c-.02-.06-.02-.15-.06-.17-.03-.03-.12.01-.18.02.02.07.03.15.06.18.04.03.12-.03.18-.03ZM173.21,147.3l.13-.15-.17-.05.03.2Z"/>
    <path class="cls-2" d="M334,209.61c-1.45,1.24-1.53,3.16-2.45,4.75.29.42.51.85.83,1.19,2.29,2.41,4.6,4.79,6.89,7.2,1.01,1.06,2.08,2.07,2.93,3.24.89,1.23,1.6,2.62,2.29,3.97.14.27-.1.76-.25,1.11-.09.2-.34.34-.55.47-2.8,1.79-5.63,3.47-8.92,4.29-2.6.65-5.16,1.46-7.69,2.32-3.76,1.29-7.62,2.21-11.55,2.87-1.59.27-3.15.74-4.73,1.08-1.34.29-2.69.63-4.05.75-1.78.17-3.34.73-4.5,2.11-1.81,2.16-4.22,3.53-6.43,5.15-3.6,2.66-7.48,4.83-11.48,6.82-2.1,1.05-4.04,2.45-6.21,3.3-2.78,1.1-5.5,2.4-8.45,3.09-2.52.58-5,1.37-7.51,2.02-1.33.34-2.69.56-4.03.83-1.51.31-3.01.64-4.53.93-1.11.21-2.23.41-3.35.53-3.47.38-6.94.46-10.42.02-.32-.04-.65-.1-.97-.05-1.74.3-3.34-.2-4.96-.73-.61-.19-1.25-.34-1.89-.47-4.44-.9-8.9-1.71-13.1-3.51-.59-.25-1.24-.37-1.84-.61-1.25-.49-2.62-.59-3.75-1.56-.75-.64-1.94-.77-2.92-1.15-.67-.26-1.39-.48-2-.86-2.29-1.41-4.74-2.43-7.24-3.39-.68-.26-1.4-.5-1.95-.95-1.75-1.43-3.84-2.38-5.57-3.84-.42-.36-.97-.55-1.45-.84-.26-.17-.55-.34-.73-.57-.66-.81-1.38-1.49-2.31-2.07-.91-.57-1.5-1.65-2.25-2.49-.87-.97-1.72-1.95-3.12-2.2-.37-.06-.77-.31-1.04-.58-.61-.62-1.35-.72-2.16-.89-1.49-.33-2.87-1.06-4.43-1.16-.88-.06-1.86.05-2.61-.31-1.05-.5-2.21-.23-3.21-.77-1-.52-2.05-.97-3.03-1.51-2.49-1.38-5.04-2.61-7.73-3.53-2.56-.87-4.75-2.45-6.97-3.92-.68-.45-1.04-1.4-1.71-2.36-.16-.04-.64-.09-1.07-.27-.43-.18-.8-.52-1.31-.86.25-.62.46-1.19.7-1.76.06-.14.29-.28.27-.38-.28-1.59.91-2.53,1.62-3.65.91-1.44,2.05-2.74,2.87-4.22,1.3-2.35,2.92-4.48,4.4-6.7.4-.6.61-1.32.88-2,.28-.73.24-1.43-.18-2.1-.18-.27-.31-.58-.47-.86-1.22-2.28-2.48-4.53-3.66-6.84-.36-.7-.52-1.53-.7-2.31-.12-.54-.12-1.11-.18-1.8-1.44-.39-2.27-1.44-2.8-2.74-.91-2.25-1.85-4.49-2.65-6.78-.19-.52.12-1.23.18-1.74.87-.42,1.44-.03,1.98.29,1.53.9,3.05,1.85,4.57,2.78.34.21.77.41.95.73.67,1.23,1.89,1.72,2.99,2.4.76.47,1.49.98,2.24,1.46.4.25.83.52,1.28.64,1.79.49,3.49,1.25,5.35,1.53,2,.32,3.95.79,5.82,1.65,1.23.58,2.65.74,3.95,1.16,1.55.49,3.08,1.02,4.59,1.62,2.66,1.04,5.41,1.72,8.22,2.14,2.65.38,5.34.55,7.96,1.04,4.49.83,9.04.85,13.56,1.23.24.03.48.03.73.04,4.95.1,9.9.37,14.85.27,3.97-.08,7.91.51,11.89.08,1.93-.21,3.89-.06,5.84,0,3.66.11,7.31.04,10.94-.3,3.33-.32,6.63-.21,9.96-.08,2.75.11,5.51.03,8.26,0,6.17-.06,12.3-.62,18.41-1.51,4.73-.69,9.5-1.04,14.26-1.6,2.1-.24,4.18-.59,6.26-.96,4.95-.89,9.89-1.86,14.84-2.7,2.97-.51,5.87-1.24,8.69-2.28,1.07-.39,2.11-.8,3.25-1.25.67.16.91.8.95,1.44.05,1.05,0,2.09-.48,3.09-2,3.99-3.97,7.98-5.93,11.99-.4.8-.69,1.64-1.04,2.47l.07-.07ZM221.96,243.12c.06,0,.13,0,.2-.02.05,0,.09-.03.14-.04-.13.03-.27.05-.4.07.53-.17,1.06-.41,1.6-.47,1.45-.15,2.92-.2,4.37-.33,2.77-.25,5.49.3,8.23.52.24.02.55.04.7.19.8.83,1.55,1.19,2.35.02.03-.04.18-.07.21-.03.71.84,1.07-.1,1.56-.31.51-.21.86-.06,1.13.52.1.21.14.44.25.8,1.66.27,3.35.07,5.03,0,.11,0,.32-.26.3-.33-.06-.2-.19-.41-.37-.53-.43-.29-1.11.36-1.49-.34,1.22-.64,2.75-.95,4.18-.73,1.95.32,3.86.43,5.74-.32.22-.08.5-.13.72-.07.82.2,1.56.04,2.33-.26.32-.12.81-.13,1,.43-.3.75-.84,1.12-1.69.99-.7-.12-1.41-.25-2.03-.36-.47.43-.56.91-.13,1.1,1.11.52,2.31.89,3.53.55,1.21-.33,2.4-.28,3.61-.27,2.01.03,4.03-.02,6.34-.61-.76-.27-1.2-.42-1.63-.6-1.49-.64-2.92-.82-4.43.06-.51.29-1.25.25-1.89.23-.25,0-.68-.35-.69-.54,0-.36.2-.75.42-1.07.11-.15.43-.21.67-.22.56-.02,1.13.03,1.7.04,1.3.03,2.53-.13,3.82-.44,2.19-.53,4.49-.72,6.74-.81,2.16-.08,4.34.15,6.45-.57.67-.24,1.43-.24,2.16-.31,1.61-.18,3.22-.36,4.83-.51,1.45-.12,2.91-.21,4.37-.31,1.53-.12,3.1.13,4.59,0,1.58-.13,3.2-.34,4.77-.58,1.3-.19,2.58-.11,3.86-.22,1.36-.11,2.68-.63,4.04-.84,1.19-.19,2.42-.17,3.63-.28,1.13-.09,2.26-.22,3.38-.36,1.61-.21,3.22-.45,4.82-.65.4-.05.83,0,1.21-.12,2.71-.92,5.57-1.17,8.36-1.53,3.65-.47,6.8-2.02,9.99-3.61.63-.31,1.14-.85,1.83-1.38-.64-.61-1.16-1.1-1.66-1.6-.57-.58-1.13-1.16-1.66-1.77-1.03-1.14-2.01-2.33-3.08-3.43-.96-.98-2.09-1.79-3.02-2.79-1.09-1.19-2.05-2.51-3.04-3.79-.34-.44-.61-.92-.86-1.31.45-1.01.95-1.86,1.2-2.78.36-1.26.87-2.44,1.54-3.55.29-.49.54-1.01.73-1.54,1.19-3.2,2.7-6.24,4.34-9.23.34-.63.7-1.26.34-2.11-1.04.21-2.05.4-3.06.61-1.97.42-4,.67-5.9,1.31-3.86,1.31-7.86,2-11.81,2.88-5.25,1.15-10.63,1.31-15.95,1.85-3.63.36-7.3.37-10.9,1.01-5.85,1.03-11.79,1.11-17.69,1.62-.39.03-.89.06-1.16-.14-.93-.73-2-.6-3.04-.63-.97-.03-1.93,0-2.9.03-2.27.04-4.56-.06-6.8.18-2.11.24-4.2.29-6.31.3-5.51,0-11.03.11-16.54.02-3.15-.05-6.27.57-9.44.22-2.33-.25-4.69-.27-7.04-.38-1.61-.06-3.23-.11-4.84-.16-.04,0-.09.11-.13.18.52.72,1.59-.07,2.12.8-.21.12-.4.33-.58.33-3.08-.12-6.14-.26-9.21-.41-.16,0-.31-.09-.46-.15-1.16-.5-2.37-.39-3.59-.4-1.86-.03-3.75,0-5.56-.35-2.78-.54-5.62-.86-8.3-1.9-.38-.14-.78-.25-1.18-.3-2.35-.32-4.56-1.11-6.73-2.02-3.29-1.37-6.72-2.41-9.93-3.98-.44-.21-.93-.28-1.4-.42-3.82-1.09-7.7-1.95-11.19-3.97-.37-.21-.88-.18-1.49-.29.39,2.75,1.59,4.94,2.76,7.14,1.19,2.22,2.41,4.41,3.63,6.63-.43,1.96-1.7,3.66-1.92,5.7,0,.07-.08.14-.12.21-1.66,2.69-3.31,5.38-4.98,8.05-.91,1.45-1.88,2.84-2.79,4.29-.35.55-.65,1.12-.91,1.71-.3.73-.12,1.25.62,1.61,1.89.92,3.81,1.79,5.49,3.09.31.24.73.35,1.1.51.67.29,1.38.52,2,.89,4.1,2.46,8.9,2.96,13.26,4.67.3.12.65.06.97.12,2.14.42,4.33.63,6.39,1.41,3.21,1.23,6.53,1.96,9.93,2.32,2.07.23,3.97.83,5.44,2.4.09.1.3.09.45.14,1.78-.88,1.78-.8,3.9-.81,1.22,0,2.39-.16,3.48.64.32.23.94.12,1.41.07,2.35-.23,4.69-.16,7,.34.4.09.81.09,1.21.1.8.02,1.61.03,2.41.04.89,0,2-.21,2.5.59.68,1.08,1.55-.39,2.14.37.09.12.26.18.43.27ZM190.02,242.99c.98,1.77,2.25,2.63,3.55,3.45,1.37.87,2.79,1.68,4.05,2.69,1.66,1.34,3.48,2.37,5.41,3.24,1.25.56,2.45,1.25,3.69,1.85,1.74.85,3.49,1.71,5.26,2.5.96.43,1.98.73,2.96,1.12,2.94,1.15,5.88,2.32,8.83,3.45.67.26,1.39.46,2.09.61,1.9.42,3.83.74,5.72,1.19,3.42.82,6.91.99,10.38,1.01,4.62.02,9.22-.61,13.72-1.72,3.07-.76,6.15-1.49,9.2-2.26,1.65-.42,3.35-.74,4.92-1.39,2.76-1.13,5.44-2.46,8.15-3.72,3.59-1.67,7.19-3.31,10.74-5.05,2.69-1.32,5.34-2.73,7.97-4.17.64-.35,1.42-.73,1.65-1.76-1.26-.08-2.36.06-3.48.21-2.49.35-4.98.81-7.48.91-1.86.08-3.7.25-5.55.42-3.77.34-7.56.63-11.35.88-3.47.24-6.96.32-10.43.3-3.47-.02-6.94.15-10.41,0-4.11-.18-8.24-.08-12.36-.11-.49,0-.98,0-1.46-.09-2.5-.44-5.01-.15-7.51-.11-2.35.04-4.68-.04-7.01-.22-2.9-.24-5.78-.58-8.71-.68-1.93-.06-3.88-.22-5.8-.04-1.42.13-2.77.03-4.07-.43-1.48-.53-3.01-.56-4.53-.73-2.32-.27-4.67-.36-6.86-1.31-.26-.12-.61-.02-1.27-.03ZM339.04,193.2l-.03.12.14-.03-.11-.09Z"/>
    <path class="cls-2" d="M150.27,211.29c-2.56-.27-5.42-2.98-5.81-5.49-.21-1.42.99-3.52,2.5-4.05,1.29-.45,2.64-.74,3.99-.98.52-.09,1.16.02,1.62.27.92.48,1.81,1.05,2.62,1.71.72.58.89,1.36.9,2.35,0,1.55-.46,2.79-1.3,4.03-1.01,1.5-2.67,2.37-4.51,2.17ZM152.74,203.23c-.89-.02-1.82.24-2.67.69-1.03.53-1.77,1.36-2.01,2.58-.28,1.45.44,2.38,1.91,2.38,1.26,0,2.12-.73,2.8-1.67.37-.51.72-1.1.82-1.71.12-.79,0-1.61-.85-2.27Z"/>
    <path class="cls-2" d="M333.92,209.67c.21-.12.49-.18.6-.36,1.11-1.63,2.77-2.14,4.6-2.25.88-.04,1.77-.03,2.66.03,2.97.2,4.9,2.57,4.82,5.85,0,.44-.27.97-.58,1.27-.7.66-1.49,1.22-2.27,1.77-.25.18-.7.12-.89.33-1.18,1.24-2.46.89-3.77.33-.67-.29-1.35-.55-1.99-.88-2.12-1.09-3.36-2.69-3.09-5.21.03-.32,0-.64,0-.96l-.08.07ZM340.63,208.74c-1.29.15-2.12.63-2.9,1.23-.63.49-.92,1.1-.97,1.87-.13,2.42,2.58,4.42,4.83,3.48,1.28-.53,2.35-1.4,2.89-2.81-.28-.39-.47-.76-.76-1.03-1.01-.93-2.05-1.82-3.1-2.75Z"/>
    <path class="cls-3" d="M171.16,156.57c.31-.88.29-1.76-.07-2.61.44-.27.85-.46,1.21-.73.5-.4.21-.81.05-1.29-.1-.3.22-.72.23-1.1.01-.36-.13-.72-.21-1.12.36.04.59.08.95.12.15-.53.29-1.13.51-1.7.23-.59.55-1.16.86-1.76-.32-.27-.6-.51-.99-.85.49-.35,1.27-.65,1.29-1,.1-1.28,1.32-1.53,1.83-2.36.51-.81.74-1.81,1.27-2.6,1.35-2.02,2.72-4.05,4.23-5.94,2.47-3.11,5.06-6.14,7.95-8.87,1.34-1.29,2.85-2.42,4.35-3.52,4.65-3.39,9.33-6.75,14.27-9.72,4.19-2.5,8.59-4.57,13.17-6.27,4.14-1.55,8.46-2.09,12.79-2.69,3.45-.49,6.94-.58,10.35-1.4,2.22-.54,4.47-.21,6.73.31,3.09.72,6.05,1.84,9.09,2.67,1.56.42,3.18.64,4.75,1.02,1.09.27,2.2.56,3.22,1.03,4.12,1.9,8.2,3.87,12.3,5.83.43.21.8.54,1.22.79,1.39.84,2.77,1.67,4.17,2.48,1.19.7,2.38,1.34,3.34,2.39.64.7,1.53,1.18,2.29,1.77,1.54,1.19,3.11,2.33,4.58,3.6,1.6,1.36,3.09,2.85,4.65,4.26.35.32.83.51,1.22.79.58.43,1.18.88,1.3,1.75-.57.63-1.1,1.37-1.77,1.91-1.58,1.25-2.53,2.94-3.33,4.71-.77,1.71-2.02,3.08-3.05,4.6-.11.16-.42.2-.76.35-.29-.49-.57-.96-.86-1.48-1.8-.78-3.76-.79-5.69-.7-1.67.09-3.13-.12-4.62-1.05-1.42-.88-3.1-1.36-4.71-1.9-1.46-.49-2.82-.1-4.19.62-2.51,1.32-5.11,2.44-8.03,2.56-1.1.04-2.15-.04-3.01-.72-.88-.68-1.89-.88-2.91-1.13-.99-.25-2.08-.12-2.93-.97-.21-.22-.89.02-1.44.05-.55-.75-1.19-1.5-1.69-2.32-1.31-2.15-3.19-3.54-5.42-4.7-2.44-1.27-4.79-1.23-7.29-.53-2.47.7-4.38,2.01-5.34,4.52-.3.79-.79,1.53-1.24,2.38-1.36-.1-2.54-.85-3.71-1.53-1.52-.88-3.14-1.2-4.86-1.42-2.47-.32-4.06.85-5.16,2.81-.64,1.16-1.41,2.17-2.32,3.08-.77.77-1.19.83-2.15.25-.54-.33-1.06-.74-1.5-1.2-1.5-1.56-2.93-3.2-4.46-4.75-1.44-1.45-3.73-1.95-5.56-.71-3.03,2.03-6.06,4.06-9.07,6.11-.46.32-.86.76-1.2,1.2-1.73,2.25-3.7,4.28-5.73,6.24-.46.45-.93.96-1.49,1.24-2.26,1.09-4.31,2.57-6.63,3.54-.52.22-.98.56-1.47.84-.92.51-1.86.98-2.75,1.52-.83.5-1.66,1.02-2.39,1.65-1.42,1.24-3.04,2.08-4.72,2.92-.34-.76.33-.9.55-1.27h0Z"/>
    <path class="cls-1" d="M273.64,194.4c-.86.11-1.56.26-2.27.27-3.65.07-7.31-.08-10.94.18-4.71.34-9.41-.12-14.11.03-3.98.14-7.94-.08-11.92-.25-1.37-.06-2.75.05-4.13.09-.6.02-1.15-.06-1.36-.76.51-.59,1.04-1.17,1.55-1.77.52-.61,1.03-1.23,1.54-1.85q-.3-1.23.74-2.94c-.32-.35-.68-.75-1.05-1.15-.62.27-1.15.49-1.66.71-1.17.52-2.38.98-3.51,1.59-1.14.62-2.14,1.47-3.29,2.08-1.5.8-3.07,1.48-4.62,2.17-.42.18-.89.47-1.47-.06,1.67-1.63,3.27-3.3,5.54-4.11,1.21-.44,1.41-1.3.43-2.14-1.04-.89-1.51-1.83-1.07-3.2.17-.52.12-1.13.08-1.68-.15-1.89.63-3.29,2.17-4.31.4-.27.8-.56,1.22-.81,1.83-1.11,2.75-2.81,2.75-4.86,0-2.52.71-4.83,1.74-7.03.97-2.08,2.52-3.76,4.44-5.06.93-.64,1.86-1.31,2.71-2.05.83-.72.92-1.4.39-2.4-.3-.57-.7-1.08-1.1-1.59-.3-.38-.7-.67-1-1.06-.96-1.25-.59-2.14.95-2.3,1.13-.12,2.26-.15,3.38-.29.25-.03.54-.3.69-.54.09-.14-.02-.49-.16-.64-.23-.3-.82-.58-.79-.8.17-1.16-.98-1.79-.99-2.91-.01-1.77-.39-3.55-.4-5.31,0-2.1.01-4.25,1.79-6.04,1.5-.05,3.02-.55,4.46-1.31,1.34-.7,2.67-.58,3.97.06.65.34,1.24.78,1.87,1.14,1,.57,1.54,1.4,1.57,2.56.01.33.01.67.13.96.89,2.11.65,4.31.49,6.49-.1,1.3-.05,2.57.28,3.85.14.54-.08,1.2.46,1.57.59.39,1.24.78,1.92,1,.81.26,1.79.02,2.54.88-.29.33-.56.59-.8.9-.58.77-1.19,1.53-1.69,2.35-.43.73-.3,1.16.25,1.76.8.87,1.78,1.4,2.98,1.47.48.03.97.02,1.46.03.68.03,1.24.26,1.65.85.37.52.79,1.04,1.27,1.46.92.82,1.96,1.08,3.16.58.91-.37,1.76-.79,2.45-1.53.6-.64,1.33-1.15,1.86-1.59,1.19-.1,1.25.93,1.83,1.27.18,0,.37.08.49.02.65-.28,1.35-.43,1.89-1.01.34-.37,1.01-.66,1.5-.61,1.02.09,1.71-.39,2.4-.95.57-.46,1.11-.95,1.65-1.44,1.13-1.04,2.26-2.08,3.45-3.17-.06-.63-.12-1.33-.2-2.22.74.19,1.32.39,1.93.49.61.1,1.25.1,1.97.15.26-.21.6-.44.88-.73,1.46-1.53,3.13-2.78,4.87-3.99,2.25-1.57,4.53-3.26,6.08-5.53,2.03-2.95,4.37-5.61,6.79-8.22,1.76-1.9,3.36-3.94,5.46-5.52,2.75-2.05,5.69-3.76,8.98-4.75,2.96-.89,6.94.7,7.56,4.52.15.96.25,1.94.28,2.91.03,1.09-.31,2.02-1.25,2.72-.7.52-1.37,1.16-1.88,1.86-1.46,2.01-3.43,3.44-5.48,4.71-3.5,2.17-7.16,4.07-11,5.59-1.12.44-2.29.8-3.45,1.09-1.65.38-3.29.97-5,.84-1.97-.15-3.51.31-4.97,1.81-1.28,1.3-2.98,2.19-4.53,3.22-.8.54-1.67.96-2.69,1.53.13.74.28,1.58.44,2.48-.57.51-1.25.33-1.82.15-1.56-.49-2.83-.06-4.03.96-.92.79-1.96,1.44-2.93,2.17-1.05.79-1.91,1.73-2.33,3.03-.14.43-.49.79-.82,1.29.33.4.73.88,1.16,1.41-.09.21-.14.45-.28.63-.55.67-1.26.99-2.14.91-.3-.02-.62,0-.84,0-.56.63-.4,1.19-.06,1.66.47.66.93,1.39,1.57,1.85,1.56,1.12,2.44,2.8,3.66,4.2.36.42.6.96.82,1.47.36.81.2,1.54-.33,2.28-1.9,2.63-4.55,3.81-7.68,4.05-1.21.09-2.47.2-3.64-.05-1.24-.27-2.43-.86-3.57-1.47-1.28-.67-2.48-1.52-3.72-2.26-1-.61-2.21-.18-2.54.94-.25.85-.39,1.74-.52,2.63-.18,1.25.59,2.19,1.25,3.07,1.13,1.53,2.61,2.67,4.52,3.13.86.22,1.73.45,2.59.68,2.12.56,3.82,1.71,5.01,3.59.56.89,1.23,1.72,1.79,2.61.19.31.22.73.37,1.29Z"/>
    <path class="cls-5" d="M167.71,167.16c.16-1.28.71-2.02,1.3-2.67,1.13-1.26,2.28-2.53,3.55-3.65,3.15-2.8,6.39-5.49,10.23-7.34.51-.25,1.01-.56,1.39-.96,1.27-1.31,2.83-2.12,4.44-2.92,2.13-1.05,4-2.38,5.38-4.42,1.04-1.53,2.27-2.98,3.62-4.24,1.28-1.21,2.81-2.18,4.27-3.18,1.6-1.1,3.27-2.1,4.88-3.21.98-.67,1.99-.75,2.98-.21.84.46,1.63,1.05,2.33,1.71,1.29,1.23,2.54,2.52,3.74,3.83,1.1,1.2,2.39,1.9,4.04,1.88,1.86-.9,2.93-2.52,3.81-4.27.98-1.95,2.64-2.49,4.66-2.35.16,0,.34,0,.47.08,2.13,1.24,4.92,1.41,6.37,4.17-.55,2.69.46,5.59.5,8.62-.98.3-1.84.5-2.66.82-1.26.5-1.7,1.56-1.04,2.74.67,1.19,1.48,2.31,2.27,3.44.66.95.64,1.41-.31,1.96-.9.54-1.86,1.01-2.8,1.47-1.19.58-2.2,1.34-2.89,2.5-.95,1.59-1.92,3.18-2.9,4.75-.16.25-.46.42-.71.64-3.04-1.37-6.2-1.92-9.44-2.23-4.03-.37-8.05-.84-12.07-1.27-.65-.07-1.3-.17-1.94-.13-2.34.15-4.67.5-7,.5-2.76,0-5.47.5-8.2.58-3.42.09-6.73.85-10.03,1.68-2.27.57-4.56,1.1-6.85,1.61-.36.09-.77.03-1.34.04Z"/>
    <path class="cls-3" d="M276.77,167.37c2.49-2.83,2.5-2.88,1.57-5.73,2.44-1.71,4.46-4.1,7.22-5.4,1.27.1,2.47.26,3.69.27,1.03,0,1.42-.43,1.56-1.47.05-.4.06-.81.01-1.2-.05-.4-.21-.76-.34-1.23,1.32-1,2.59-1.98,3.87-2.95.77-.58,1.65-1.06,2.32-1.76,1.71-1.8,3.93-2.27,6.2-2.22,1.85.03,3.51-.4,5.16-1.06,1.8-.72,3.74-1.09,5.41-2.15.37-.24.92-.18,1.31-.24.2.22.41.34.4.44-.09.96.17,1.78.54,2.7.87,2.17,1.44,4.46,2.08,6.71.3,1.07.51,2.17.78,3.36-2.69.11-4.93-.56-6.89-2.21-.8-.68-1.68-1.26-2.57-1.81-1.61-.97-3.17-1.97-4.09-3.7-.11-.2-.3-.41-.49-.53-.27-.14-.63-.33-.88-.26-.49.14-.35.58-.29,1.01.08.67.26,1.25.8,1.7.81.67,1.58,1.41,2.42,2.02,1.06.76,2.13,1.47,2.93,2.54.24.31.58.58.94.75,1.99.91,3.96,1.88,6.02,2.63,1.26.46,1.74,1.12,1.88,2.44.16,1.51.53,3.03,1.59,4.27.14.17.16.43.28.78-.51.26-.97.59-1.49.74-2.4.73-4.79,1.52-7.23,2.11-3.3.8-6.64,1.5-9.98,2.11-1.91.34-3.86.49-5.79.6-2.51.16-5.03.22-7.54.29-2.02.05-4.05.04-6.07.05-1.25,0-2.35-.18-3.23-1.3-.64-.82-1.46-1.49-2.11-2.27Z"/>
    <path class="cls-2" d="M323.85,176.52c.22,1.59.36,3.22.69,4.8.4,1.9-.14,3.7-.41,5.53-.09.62-.56.97-1.13,1.16-.84.29-1.68.6-2.54.82-5.18,1.37-10.39,2.57-15.73,3.1-4.12.4-8.22.93-12.33,1.39-.96.1-1.94.15-2.91.21-2.26.16-4.55,0-6.77.64-.08.03-.16.03-.24.03-2.34.09-4.68.18-7.12.27-.52-1.21-1.02-2.48-1.58-3.73-1.53-3.42-4.02-5.8-7.61-6.98-1.07-.36-2.14-.76-3.2-1.15-.38-.15-.76-.3-1.11-.5-.85-.5-.98-1.04-.49-2.05.1-.2.32-.35.46-.49,1.51.64,3.02,1.18,4.43,1.9,1.27.65,2.51,1.02,3.96.87,1.04-.12,2.1.02,3.15-.03,2.35-.12,4.46-.96,6.21-2.49,1.43-1.25,2.44-2.82,2.24-4.89-.03-.24-.02-.49,0-.72,0-.08.08-.14.21-.38.41-.08.95-.28,1.48-.29,2.99-.03,5.99.02,8.98-.03,1.45-.03,2.91-.12,4.35-.29,4.58-.55,9.13-1.34,13.66-2.23,1.26-.24,2.49-.69,3.73-1.08,2.32-.73,4.63-1.47,6.95-2.19.15-.05.32,0,.66.03.13.36.3.79.42,1.22.65,2.42.92,4.91,1.53,7.33.01.07.16.12.05.23-.29,0-.58,0-.87.02,0,.06.02.13.03.2.28-.07.57-.15.85-.21ZM283.3,176.24c1.1,1.68.24,2.67-.85,3.52-1.21.94-2.37,1.95-3.91,2.41-.67.2-1.28.66-1.89,1.07-.41.27-.28.98.17,1.21.15.06.29.14.45.18,3.05.8,6,1.96,9.18,2.26,2.25.2,4.48.68,6.72.93,3.17.36,6.29.19,9.38-.77,2.87-.89,5.71-1.84,8.43-3.12,1.54-.73,3.05-1.54,4.65-2.09,2.65-.92,4.5-2.79,6.29-4.69.17-1.68-.31-3.31.49-4.83.08-.15-.4-.86-.62-.86-1.11,0-2.17-.43-3.34-.06-1.92.62-3.9,1.07-5.88,1.41-3.03.52-6.08.92-9.13,1.32-1.92.25-3.85.43-5.78.6-1.53.15-3.06.25-4.59.37-1.94.14-3.87.32-5.81.39-1.22.05-2.38.29-3.95.76Z"/>
    <path class="cls-5" d="M293.98,141.67c-.07.28-.06.49-.16.58-1.02.97-6.54,4.87-8.02,5.65-.46-.29-1.01-.62-1.52-.99-.33-.24-.56-.61-.89-.83-1.27-.82-2.72-.17-2.87,1.35-.06.64.03,1.28.11,1.93.11.87-.13,1.62-.72,2.23-.73.76-1.45,1.54-2.27,2.19-1.07.86-2.21,1.65-3.36,2.4-.52.33-1.17.49-1.8.75-.26-.31-.46-.56-.67-.79-.99-1.05-2.1-1.2-3.22-.4-.46.33-.85.75-1.25,1.16-.87.91-1.88,1.52-3.34,1.64-1.33-2.02-3.43-3.11-5.89-3.79.34-1.29,1.07-2.11,1.85-2.93.97-1.01.83-1.87-.41-2.48-.49-.24-1.07-.35-1.6-.5-1.13-.32-1.47-.74-1.54-1.86,0-.16-.01-.33,0-.49.16-2.1.33-4.2.51-6.31.02-.22.15-.44.27-.74,2.11-.33,4.19-.3,6.11.79,1.04.58,2.09.62,3.24.73,3.39.34,6.4-.81,9.38-2.07,1.85-.79,3.54-.99,5.35,0,1.27.68,2.74.94,3.97,1.79.4.27,1.09.16,1.65.18,1.86.08,3.73.11,5.58.25.53.03,1.02.37,1.53.56Z"/>
    <path class="cls-2" d="M217.01,186.1c-.06-1.18-.11-2.38-.2-3.58-.07-.99-.71-1.63-1.53-2.05-.86-.45-1.77-.82-2.69-1.13-2.32-.78-4.44-1.97-6.56-3.15-.19-.11-.31-.34-.59-.66.38-.12.66-.32.92-.29,2.26.2,4.5.43,6.65,1.33,1.26.53,2.63.8,3.97,1.15.87.24,1.4-.05,1.7-.89.35-.99.66-1.99,1.01-3.09-.03-.13-.07-.37-.14-.6-.81-2.84-.79-2.88-3.66-3.96-2.81-1.04-5.64-2.02-8.46-3.03-.13-.05-.24-.19-.35-.3.12-.43.49-.33.77-.32,3.89.24,7.74.8,11.56,1.59,1.18.25,2.34.65,3.51,1,.71.2,1.07.68,1.09,1.42.1,2.95-.61,5.63-2.8,7.74-.92.88-1.43,1.95-1.83,3.1-.15.43-.25,1.03-.07,1.4.43.84.43,1.71.58,2.57.15.78.54,1.51.86,2.35-.29.31-.52.64-.84.86-2.3,1.52-4.61,3.02-6.92,4.52-1.06.69-2.24.95-3.48.87-3-.19-5.99-.37-8.97-.64-1.45-.13-2.86-.53-4.31-.7-3.3-.38-6.44-1.5-9.69-2.08-1.35-.24-2.74-.27-4.11-.4-.49-.04-1.04.02-1.43-.19-1.4-.81-2.98-.62-4.45-.98-.78-.2-1.54-.48-2.32-.7-.46-.13-.92-.32-1.39-.35-1.44-.1-2.55-.87-3.99-1.78.72-.08,1.1-.07,1.45-.18.38-.11.72-.4,1.1-.49,1.19-.25,2.38-.57,3.58-.64,2.18-.12,4.38-.12,6.57-.12,3.65,0,7.3.13,10.94-.02,3.05-.13,5.96.38,8.86,1.24,2.8.82,5.6,1.65,8.24,2.94.58.27,1.2.5,1.83.66.37.09.93.15,1.16-.05,1.2-1.06,2.78-1.27,4.12-2,.13-.07.2-.24.32-.39Z"/>
    <path class="cls-2" d="M212.88,183.46c-.11.31-.27.95-.55,1.52-.6,1.25-1.08,1.73-2.66,1.1-2.55-1.02-5.18-1.87-7.8-2.69-2.79-.87-5.64-1.48-8.56-1.72-.32-.01-.65-.08-.97-.03-2.99.45-5.99.12-8.97.19-.32,0-.65.01-.97-.03-4.05-.55-8.08-.1-12.11.18-.64.05-1.29.09-1.93.03-.26-.03-.72-.31-.72-.48,0-.35.17-.75.4-1.04.18-.22.53-.34.83-.46,3.39-1.35,6.82-2.58,10.41-3.24,1.74-.32,3.53-.47,5.29-.64,1.45-.13,2.92-.12,4.37-.25,2.35-.21,4.68-.03,7.01.37,2.55.46,5.11.87,7.66,1.28,1.22.19,2.33.64,3.42,1.19,1.59.8,3.24,1.48,4.85,2.25,1.09.52,1.25.93.99,2.45Z"/>
    <path class="cls-2" d="M209.81,169.83c1.37.18,2.75.31,4.1.54.7.12,1.41.39,2.05.7.94.47.98,1.11.28,1.96-.74.91-1.59,1.3-2.77.86-.98-.38-2.02-.61-3.01-.96-2.08-.74-4.23-1.1-6.4-1.37-1.85-.23-3.7-.44-5.54-.63-.57-.06-1.14-.04-1.7-.03-2.26.03-4.49.49-6.79.23-1.25-.13-2.57.19-3.85.38-4,.58-8.04.77-12,1.75-1.96.49-3.95.79-5.82,1.57-.21.08-.52.15-.7.06-.25-.12-.51-.36-.64-.62-.07-.15.03-.51.17-.64.3-.26.65-.51,1.02-.64,4.47-1.48,8.98-2.69,13.74-2.84,2.34-.09,4.68-.36,7.01-.64,4.77-.56,9.53-.59,14.31-.15,2.17.2,4.35.34,6.53.52,0-.03,0-.04,0-.06Z"/>
    <path class="cls-2" d="M226.44,192.46c-.03.58-.06,1.01-.08,1.47-.97.27-1.78.18-2.84-.2.95-.76,1.8-1.08,2.93-1.26Z"/>
    <path class="cls-2" d="M171.17,156.57c-.51.09-1.02.18-1.77.33.66-.97,1.25-.15,1.76-.33h.02Z"/>
    <path class="cls-2" d="M205.75,165.67c-.06,0-.15.06-.18.03-.04-.03-.04-.12-.06-.18.07,0,.15-.05.18-.02.04.02.04.11.06.17Z"/>
    <polygon class="cls-2" points="173.21 147.3 173.17 147.09 173.34 147.15 173.21 147.3"/>
    <path class="cls-4" d="M221.93,243.12c-.14-.09-.31-.15-.4-.27-.58-.75-1.46.71-2.14-.37-.5-.8-1.61-.58-2.5-.59-.8,0-1.6-.02-2.41-.04-.4-.02-.81,0-1.21-.1-2.31-.51-4.64-.58-7-.34-.47.05-1.08.16-1.41-.07-1.1-.79-2.26-.64-3.48-.64-2.12,0-2.12-.07-3.9.81-.15-.05-.36-.04-.45-.14-1.47-1.57-3.37-2.17-5.44-2.4-3.4-.37-6.72-1.1-9.93-2.32-2.07-.79-4.25-.99-6.39-1.41-.32-.06-.67,0-.97-.12-4.37-1.71-9.16-2.22-13.26-4.67-.62-.37-1.33-.6-2-.89-.37-.16-.79-.27-1.1-.51-1.68-1.3-3.6-2.17-5.49-3.09-.74-.36-.92-.88-.62-1.61.25-.59.55-1.17.91-1.71.91-1.44,1.89-2.84,2.79-4.29,1.68-2.67,3.33-5.36,4.98-8.05.05-.07.12-.14.12-.21.22-2.04,1.49-3.74,1.92-5.7-1.22-2.23-2.44-4.42-3.63-6.63-1.18-2.2-2.38-4.4-2.76-7.14.61.11,1.12.08,1.49.29,3.49,2.02,7.37,2.88,11.19,3.97.46.13.96.21,1.4.42,3.21,1.57,6.63,2.61,9.93,3.98,2.17.91,4.38,1.71,6.73,2.02.4.06.8.16,1.18.3,2.67,1.04,5.52,1.35,8.3,1.9,1.81.35,3.7.32,5.56.35,1.22.02,2.43-.1,3.59.4.15.06.3.14.46.15,3.06.15,6.13.29,9.21.41.18,0,.37-.2.58-.33-.53-.88-1.6-.08-2.12-.8.04-.06.09-.18.13-.18,1.61.05,3.23.09,4.84.16,2.35.11,4.71.12,7.04.38,3.17.35,6.29-.27,9.44-.22,5.51.09,11.03-.02,16.54-.02,2.11,0,4.2-.06,6.31-.3,2.24-.24,4.53-.14,6.8-.18.97-.03,1.93-.06,2.9-.03,1.04.03,2.11-.1,3.04.63.27.2.77.18,1.16.14,5.9-.51,11.84-.59,17.69-1.62,3.6-.64,7.27-.65,10.9-1.01,5.32-.54,10.7-.7,15.95-1.85,3.95-.88,7.95-1.57,11.81-2.88,1.9-.64,3.93-.89,5.9-1.31,1.01-.21,2.03-.4,3.06-.61.36.85,0,1.48-.34,2.11-1.65,2.99-3.15,6.03-4.34,9.23-.19.53-.45,1.05-.73,1.54-.67,1.12-1.19,2.29-1.54,3.55-.26.92-.76,1.77-1.2,2.78.25.39.52.88.86,1.31.99,1.28,1.95,2.6,3.04,3.79.92,1.01,2.06,1.81,3.02,2.79,1.07,1.1,2.05,2.29,3.08,3.43.54.6,1.1,1.19,1.66,1.77.5.5,1.02.98,1.66,1.6-.68.53-1.19,1.07-1.83,1.38-3.18,1.59-6.33,3.14-9.99,3.61-2.79.36-5.65.61-8.36,1.53-.37.12-.8.07-1.21.12-1.6.21-3.21.44-4.82.65-1.12.14-2.25.27-3.38.36-1.21.11-2.44.09-3.63.28-1.36.21-2.68.73-4.04.84-1.28.11-2.56.03-3.86.22-1.58.25-3.19.45-4.77.58-1.49.13-3.05-.12-4.59,0-1.46.1-2.92.18-4.37.31-1.62.15-3.23.33-4.83.51-.73.07-1.49.07-2.16.31-2.12.72-4.29.49-6.45.57-2.26.09-4.55.28-6.74.81-1.28.31-2.52.48-3.82.44-.56-.02-1.13-.06-1.7-.04-.24,0-.56.07-.67.22-.21.32-.42.71-.42,1.07,0,.19.44.54.69.54.64.02,1.38.06,1.89-.23,1.51-.88,2.94-.7,4.43-.06.43.18.87.33,1.63.6-2.31.59-4.33.64-6.34.61-1.22-.01-2.4-.06-3.61.27-1.22.34-2.42-.03-3.53-.55-.43-.2-.34-.67.13-1.1.62.11,1.32.24,2.03.36.85.13,1.39-.24,1.69-.99-.19-.57-.68-.55-1-.43-.77.3-1.52.46-2.33.26-.22-.06-.5,0-.72.07-1.87.74-3.79.64-5.74.32-1.42-.22-2.95.09-4.18.73.38.7,1.06.05,1.49.34.17.12.3.33.37.53.03.06-.19.32-.3.33-1.68.08-3.36.27-5.03,0-.11-.35-.15-.59-.25-.8-.28-.58-.63-.73-1.13-.52-.49.21-.85,1.15-1.56.31-.03-.03-.18,0-.21.03-.8,1.17-1.55.81-2.35-.02-.15-.15-.46-.18-.7-.19-2.74-.21-5.46-.77-8.23-.52-1.45.13-2.92.18-4.37.33-.54.06-1.07.3-1.6.47h.03ZM319.02,227.32c-1.02-.24-2.06-.44-3.06-.74-.44-.13-.94-.39-1.21-.74-1.09-1.47-1.78-3.08-1.37-4.98.58-2.7,1.97-4.57,4.86-5,1.29-.2,2.18-.9,2.66-2.25-.35-.18-.61-.34-.9-.45-1.11-.46-2.26-.16-3.36,0-3.34.53-5.06,2.54-5.21,5.94-.03.56-.11,1.13-.15,1.69-.12,1.23.12,2.42.55,3.56.17.45.49.88.54,1.34.09,1.08.69,1.76,1.49,2.37.86.65,1.8,1.15,2.88,1.17.95.02,1.99.12,2.57-.93,1.59.29,2.7-.87,4.01-1.37.59-.22.61-.91.27-1.77-.63-1.56-.31-2.35,1.15-2.98.51-.21,1.04-.46,1.47-.8.17-.12.17-.56.12-.82-.02-.11-.43-.24-.61-.19-1.3.43-2.55.91-3.97.89-.96-.02-1.53.94-1.18,1.91.55,1.51.13,2.66-1.05,3.63-.19.15-.34.34-.51.51ZM222.74,217.7c-1.05,1.16-1.34,2.14-.95,3.49.34,1.13.35,2.44.16,3.6-.57,3.44-.31,6.96-1.12,10.37-.1.43,0,.97.15,1.41.06.17.68.38.75.31.85-.91,2.16-1.41,2.23-2.99.06-1.2.46-2.38.65-3.57.24-1.44,1.02-2.32,2.47-2.56.15-.03.31.03.53.06.99,1.22,2.03,2.45,3.01,3.73,1.03,1.33,1.82,2.86,3.14,3.89q1.84-.46,3.48.83c.4-.34.82-.7,1.22-1.04.32.12.55.18.75.28.22.12.39.31.6.42.7.36,1.29.14,1.53-.61.22-.69.46-1.4.52-2.12.11-1.18.75-1.69,1.84-1.88,1.45-.25,1.84-.15,2.64,1.1.61.95,1.13,1.97,1.71,2.93.29.48.59.96.94,1.4.22.28.86.22,1.07-.12.2-.33.48-.75.41-1.08-.4-2.14-.7-4.28-1.78-6.26-1.05-1.91-1.85-3.96-2.68-5.98-.22-.55-.15-1.22-.24-1.97-.23-.19-.61-.49-.95-.82-.33-.32-.63-.68-.89-.97-2.67.78-3.73,1.95-3.84,4.43-.05,1.01-.25,1.92-.61,2.82-.7,1.72-1.41,3.45-2.18,5.14-.29.64-.54,1.39-1.54,1.65-1.53-1.16-3.01-2.52-4.48-3.9-.59-.56-1.13-1.16-1.65-1.79-.74-.89-.7-1.56.16-2.29,1.35-1.16,2.68-2.36,4.1-3.42.82-.62,1.28-1.46,1.78-2.27.22-.35.1-.79-.42-1.07-.96.26-1.86.7-2.67,1.42-1.33,1.19-2.74,2.27-4.13,3.39-.75.6-1.56,1.1-2.55,1.25-.55-.95-.28-1.85-.31-2.71-.05-1.51-.21-2.92-1.86-3.62-.34-.14-.58-.53-.98-.91ZM277.26,232.75c-.06-.49-.2-1.06-.17-1.61.04-.72.16-1.44.37-2.12.23-.75.92-.88,1.53-.34.3.27.54.6.83.88,1.16,1.13,2.32,2.25,3.49,3.36.23.22.52.39.81.54.43.23.92.06,1.25-.4.27-.37.3-.77-.01-1.1-.33-.35-.76-.6-1.1-.95-1.25-1.26-2.53-2.49-3.7-3.82-.72-.82-.7-1.39-.03-2.17.95-1.1,1.98-2.13,3.02-3.15.81-.79,1.72-1.48,2.53-2.26.25-.25.31-.67.46-1.01-.82-.55-1.5-.46-2.17-.05-.56.33-1.08.88-1.67.95-1.04.12-1.52.76-2.09,1.47-.81.98-1.77,1.8-3.21,2.11-.07-.69-.18-1.25-.17-1.8.02-.73.15-1.45.2-2.17.05-.69-.57-1.47-1.23-1.58-.53.31-1.09.63-1.65.95-.05.35-.21.71-.11.98.64,1.65.39,3.37.38,5.04-.02,2.34.06,4.75-.82,6.96-.51,1.31-.27,2.54-.24,3.81.01.43.24.99.85.81.9-1.15,1.74-2.21,2.63-3.35ZM201.05,228.26c1.26.09,2.31.14,3.34.25.64.07,1.03.48,1.14,1.1.07.4,0,.81.05,1.21.18,1.03.36,2.06.64,3.07.14.49.57.79,1.26.52.61-1.71.71-3.58.46-5.39-.31-2.3-.83-4.58-1.47-6.83-.42-1.46-1.08-2.87-1.12-4.46-.02-.74-.55-1.52-1.61-1.56-.17.28-.38.53-.49.82-.33.82-.5,1.74-.95,2.48-.45.73-1.17,1.29-1.75,1.96-.21.24-.39.53-.52.82-.54,1.17-1.16,2.32-1.57,3.54-.46,1.34-1.13,2.5-2.12,3.48-.23.22-.48.44-.68.69-.49.63-.47,1.23.03,2.01.37.58.87.63,1.48.52.68-.11,1.19-.4,1.57-.99.72-1.08,1.5-2.11,2.31-3.24ZM306.07,226.28c-.3-.22-.62-.44-.94-.65-1.09-.7-2.11-1.55-3.28-2.06-2-.86-3.68-2.01-4.72-3.92-.48-.11-.87-.22-1.26-.27-1.07-.13-1.43.24-1.48,1.35-.05,1.37-.15,2.75-.23,4.11-.11,1.95-.25,3.88-.33,5.83-.02.56.08,1.14.9,1.26,1.21-.95,2.01-2.06,2.1-3.77.06-1.25.3-2.57,1.04-3.68.32.02.56-.02.78.05,1.34.41,2.52,1.05,3.5,2.1,1.04,1.13,2.2,2.17,3.72,2.57.64.17,1.13.24,1.52.91.39.66,1.35.42,1.45-.33.19-1.44.42-2.91.34-4.35-.13-2.26-.51-4.5-.8-6.74-.04-.32-.1-.65-.23-.94-.19-.45-.43-.89-1.01-.92-.49-.02-.97.43-1.07,1.14-.06.46-.1,1,.06,1.42.8,2.11,0,4.3.34,6.44.02.09-.19.22-.38.43ZM192.92,232.86c-.34-1.28-.72-2.03-1.93-2.21-1.19-.18-2.36-.52-3.53-.87-3.61-1.09-3.49-1.03-1.96-4.7.32-.77.95-1.1,1.74-1.06.89.05,1.77.18,2.66.24.37.03.74-.08,1.1-.12-.01-1.73-.13-1.98-1.23-2.39-.68-.25-1.4-.41-2.07-.69-.57-.23-.9-.71-.8-1.35.2-1.37.56-2.68,1.62-3.83,2.09.58,4.32.41,6.28,1.6.71.44,1.56.25,2.06-.73-.87-.96-1.95-1.44-3.15-1.71-2.12-.46-4.24-.95-6.44-1.45-1.03.87-1.76,1.92-2.14,3.35-.64,2.42-1.5,4.78-2.26,7.18-.34,1.08-.67,2.17-.94,3.27-.33,1.37.15,2.35,1.39,3.02.14.08.29.16.44.2,2.47.78,4.92,1.57,7.4,2.31.43.12.95-.02,1.75-.05ZM170.91,211.32c-.18.5-.26.73-.33.95-1.06,3.57-.57,5,2.4,7.33.69.55,1.38,1.14,1.94,1.82.76.91.68,1.69-.06,2.63-1.06,1.34-2.41,1.92-4.08,1.41-1.46-.45-2.88-1.03-4.31-1.56-.43-.16-.52-.52-.61-.95-.21-1.02-.71-1.41-1.6-1.28-.62.09-1.24.29-1.59.97.38,1.03,1.14,1.73,1.99,2.36.46.34,1,.58,1.36,1,1.28,1.5,3,1.84,4.82,1.88,1.87.04,3.68-.04,5.29-1.29,1.02-.8,1.39-1.64,1.26-2.91-.21-1.99-1.3-3.41-2.69-4.71-.71-.66-1.42-1.32-2.05-2.05-.24-.27-.38-.73-.38-1.11.02-1.9,1.51-3.64,3.34-3.91.29-.04.65.08.9.23.5.29.85.73.93,1.35.07.54,0,1.19.69,1.43.88.29,1.02-.58,1.45-1,.16-.15.22-.39.33-.6-.36-.58-.66-1.17-1.04-1.68-1.36-1.83-2.96-2.38-5.1-1.66-.98.32-1.89.88-2.86,1.34ZM269.75,235c1.26-.12,1.44-.24,1.39-.91-.03-.48-.13-.96-.22-1.44-.25-1.35-.68-2.69-.72-4.05-.04-1.47-1.3-2.44-1.34-3.85-.01-.32-.14-.64-.28-.93-.65-1.48-1.26-2.98-1.99-4.43-.43-.86-1.23-.87-1.67-.04-.57,1.07-1.13,2.17-1.53,3.3-1.22,3.52-2.42,7.05-3.51,10.6-.25.81-.11,1.75-.09,2.63,0,.16.3.4.48.43.18.03.5-.12.58-.28.57-1.25,1.21-2.48,1.62-3.79.53-1.7,1.59-2.57,3.34-2.64.57-.02,1.13-.06,1.7-.06.98.02,1.28.28,1.39,1.28.15,1.36.13,2.75.83,4.18ZM224.53,208.84c-.15,1.24-.31,2.27-.42,3.32-.05.48-.1.97-.02,1.44.15.83.92,1.5,1.49,1.35.69-.18.68-.82.78-1.37.16-.88.33-1.75.53-2.63.15-.69.38-1.37.59-2.12.99-.16,1.86-.38,2.73-.42.85-.03,1.65-.53,2.69-.35-.25.54-.4.9-.58,1.25-1.19,2.27-1.06,2.98.88,4.58.19.15.39.29.58.43,1.02.76,2.15.8,3.23.27,2.02-1,2.84-3,2.41-5.09-.24-1.17-.98-2.04-2.3-2.17-.48-.05-.99-.19-1.44-.09-1.1.25-2.06.1-3-.52-.31-.22-.77-.28-1.16-.29-2.35-.02-4.7-.01-7.05-.01-.89,0-1.78.01-2.67.01-.47,0-.98-.16-1.28.38-.22.4.18.96.92,1.19.46.15.95.21,1.42.33.46.12.91.28,1.68.52ZM255.81,235.7c-.41-2.42.29-4.62,1.12-6.72,1.33-3.34,1.84-6.87,2.73-10.32.12-.44.24-.96-.39-1.39-.29.12-.65.27-.98.44-1.49.8-2.54,1.82-2.56,3.72,0,1.45-.28,2.9-.52,4.34-.09.51-.42.99-.64,1.47-1.81-.68-2.5-1.19-3.31-2.49-.47-.76-.83-1.59-1.32-2.33-.35-.53-.78-1.04-1.28-1.43-.8-.62-1.74-.66-1.96-.18-.34.73.12,1.31.56,1.73,2.15,1.97,3.48,4.69,5.93,6.38.74.51,1.01,1.25.86,2.13-.14.8-.31,1.59-.46,2.38-.12.64-.3,1.26-.34,1.9-.04.82.7,1.3,1.5,1.01.3-.11.55-.33,1.07-.66ZM274.75,215.54c.37,0,1.19.02,2,0,.32,0,.65-.04.96-.11,1.33-.3,1.96-1.11,1.76-2.44-.17-1.11-.47-2.22-.72-3.32-.26-1.16-1.01-1.85-2.16-2.02-.88-.13-1.74-.24-2.56-.67-.55-.29-1.14-.11-1.59.27-1.2,1.05-1.99,2.39-2.14,3.97-.22,2.29,1.45,3.99,4.45,4.31ZM257.83,207.01c-.14.67-.28,1.04-.29,1.44-.01.8.12,1.62.03,2.43-.12,1.22.06,2.23,1.18,2.95.38.26.6.75.9,1.13.2.24.41.52.78.21q-.8-3.42.67-4.78c1.21.43,2.15,1.34,3.11,2.19,1.04.92,2.11,1.76,3.4,2.19,1.15-1.03,1.27-1.2,1.16-2.49-.14-1.62-.45-3.2-.99-4.74-.74-.36-1.43-.68-2.32-1.11-.2,1.37.29,2.44.41,3.53.05.48.23.95-.39,1.44-2.69-.87-4.62-3.29-7.65-4.4ZM249.51,207.5c-.21-.32-.3-.66-.45-.69-.54-.11-1.13-.26-1.65-.16-1.71.34-3.58-.11-5.24.86,0,.37-.02.69.02,1,.2,1.77.38,3.54.63,5.29.1.71.32,1.41.57,2.09.09.25.42.41.7.68.67-.81,1.04-1.57.91-2.53-.05-.33-.1-.64-.1-.97-.02-1.32.4-1.77,1.69-1.81.65-.02,1.3.06,1.94.02.55-.04.89-.36.8-1.1-.4-.1-.85-.25-1.31-.3-.56-.06-1.13.03-1.69-.04-.46-.06-.99-.14-1.08-.76-.06-.41.35-.79.96-.88.64-.09,1.3-.07,1.94-.18.44-.08.86-.32,1.36-.52ZM290.83,219.47c-.25-.22-.42-.4-.63-.51-.28-.15-.59-.27-.9-.36-.77-.22-1.42.24-1.24.95.83,3.39.4,6.77.07,10.16-.05.48-.11.98-.03,1.44.07.47.24.96,1.01.94.75-.89,1.26-1.9,1.18-3.23-.09-1.29,0-2.59.09-3.89.12-1.85.3-3.7.46-5.51ZM253.01,207.75c-.65,2.38-.03,4.6.18,6.82.03.27.31.54.52.77.19.23.74.09.8-.2.06-.31.14-.64.12-.95-.15-1.61-.1-3.21.21-4.81.05-.23.06-.48.05-.72-.03-.86-.47-1.11-1.88-.92ZM220.86,204.65c-.15,0-.3,0-.44,0,.05.06.09.13.15.16.07.03.16.02.23,0,.03,0,.03-.1.06-.16ZM251.8,221.07s-.06-.1-.09-.15c-.05.09-.1.17-.15.25.06.02.13.07.16.06.05-.03.06-.1.09-.16Z"/>
    <path class="cls-3" d="M190.02,242.99c.65,0,1.01-.09,1.27.03,2.19.95,4.54,1.04,6.86,1.31,1.52.17,3.05.2,4.53.73,1.3.46,2.65.57,4.07.43,1.92-.18,3.87-.02,5.8.04,2.93.1,5.81.44,8.71.68,2.33.18,4.66.27,7.01.22,2.5-.04,5.01-.33,7.51.11.47.09.97.09,1.46.09,4.12.03,8.25-.08,12.36.11,3.47.15,6.94-.02,10.41,0,3.47.02,6.96-.06,10.43-.3,3.79-.25,7.58-.53,11.35-.88,1.85-.17,3.69-.34,5.55-.42,2.5-.1,4.99-.56,7.48-.91,1.12-.16,2.22-.29,3.48-.21-.23,1.04-1.01,1.41-1.65,1.76-2.63,1.44-5.27,2.85-7.97,4.17-3.55,1.74-7.15,3.38-10.74,5.05-2.7,1.26-5.38,2.59-8.15,3.72-1.56.64-3.26.97-4.92,1.39-3.05.77-6.13,1.5-9.2,2.26-4.51,1.11-9.1,1.74-13.72,1.72-3.46-.02-6.96-.18-10.38-1.01-1.89-.45-3.82-.78-5.72-1.19-.7-.15-1.42-.35-2.09-.61-2.95-1.13-5.89-2.3-8.83-3.45-.98-.39-2-.69-2.96-1.12-1.77-.8-3.52-1.65-5.26-2.5-1.24-.6-2.43-1.29-3.69-1.85-1.93-.88-3.74-1.91-5.41-3.24-1.26-1.01-2.68-1.81-4.05-2.69-1.3-.82-2.57-1.67-3.55-3.45Z"/>
    <path class="cls-2" d="M221.9,243.13c.13-.02.27-.05.4-.07-.05.02-.09.03-.14.04-.07,0-.14,0-.22.02,0,0-.04.01-.04.01Z"/>
    <polygon class="cls-2" points="339.04 193.2 339.15 193.29 339.01 193.32 339.04 193.2"/>
    <path class="cls-2" d="M309.88,239.19c.13.03.26.05.4.07-.14-.03-.28-.05-.43-.09,0,0,.03.02.03.02Z"/>
    <path class="cls-4" d="M152.74,203.23c.85.66.98,1.49.85,2.27-.1.6-.45,1.2-.82,1.71-.68.94-1.54,1.66-2.8,1.67-1.47,0-2.19-.93-1.91-2.38.24-1.22.98-2.05,2.01-2.58.85-.45,1.78-.7,2.67-.69Z"/>
    <path class="cls-4" d="M340.63,208.74c1.05.92,2.1,1.82,3.1,2.75.29.27.48.64.76,1.03-.55,1.41-1.61,2.28-2.89,2.81-2.26.95-4.97-1.05-4.83-3.48.04-.78.34-1.39.97-1.87.78-.61,1.61-1.08,2.9-1.23Z"/>
    <path class="cls-8" d="M323.85,176.52c-.28.06-.57.14-.85.21,0-.06-.02-.13-.03-.2.29,0,.58,0,.87-.02h.01Z"/>
    <path class="cls-2" d="M222.74,217.7c.4.38.64.77.98.91,1.65.7,1.81,2.11,1.86,3.62.03.86-.24,1.76.31,2.71,1-.14,1.8-.64,2.55-1.25,1.39-1.13,2.8-2.2,4.13-3.39.81-.73,1.71-1.16,2.67-1.42.52.28.64.72.42,1.07-.5.81-.96,1.65-1.78,2.27-1.43,1.06-2.76,2.26-4.1,3.42-.86.73-.9,1.4-.16,2.29.52.63,1.06,1.23,1.65,1.79,1.47,1.38,2.95,2.74,4.48,3.9,1-.26,1.25-1.01,1.54-1.65.77-1.69,1.48-3.42,2.18-5.14.36-.89.57-1.81.61-2.82.11-2.48,1.17-3.65,3.84-4.43.27.29.56.65.89.97.34.33.72.63.95.82.09.75.02,1.41.24,1.97.83,2.02,1.63,4.06,2.68,5.98,1.08,1.98,1.38,4.12,1.78,6.26.06.33-.21.75-.41,1.08-.21.34-.85.41-1.07.12-.34-.43-.64-.92-.94-1.4-.58-.97-1.1-1.98-1.71-2.93-.79-1.25-1.19-1.35-2.64-1.1-1.09.19-1.74.7-1.84,1.88-.06.72-.29,1.43-.52,2.12-.24.75-.83.96-1.53.61-.21-.11-.38-.3-.6-.42-.2-.11-.43-.17-.75-.28-.4.34-.82.7-1.22,1.04q-1.65-1.29-3.48-.83c-1.32-1.03-2.11-2.56-3.14-3.89-.98-1.28-2.02-2.51-3.01-3.73-.22-.03-.38-.09-.53-.06-1.45.24-2.23,1.12-2.47,2.56-.19,1.19-.59,2.37-.65,3.57-.07,1.57-1.38,2.08-2.23,2.99-.07.07-.69-.14-.75-.31-.15-.45-.25-.98-.15-1.41.81-3.41.55-6.94,1.12-10.37.19-1.17.18-2.47-.16-3.6-.39-1.35-.1-2.33.95-3.49ZM242.77,224.92c-.17.86-.28,1.32-.35,1.79-.03.23,0,.49.05.72.09.49.53.85,1.04.79.2-.02.53-.21.55-.35.11-1.04,0-2.02-1.29-2.95Z"/>
    <path class="cls-2" d="M277.26,232.75c-.89,1.14-1.73,2.2-2.63,3.35-.61.18-.83-.39-.85-.81-.03-1.26-.27-2.5.24-3.81.88-2.21.8-4.61.82-6.96,0-1.67.26-3.39-.38-5.04-.1-.27.06-.62.11-.98.56-.33,1.12-.64,1.65-.95.66.12,1.28.89,1.23,1.58-.05.72-.18,1.43-.2,2.17-.01.55.09,1.1.17,1.8,1.44-.31,2.39-1.13,3.21-2.11.57-.7,1.05-1.35,2.09-1.47.58-.07,1.11-.62,1.67-.95.67-.41,1.34-.5,2.17.05-.15.34-.21.76-.46,1.01-.81.78-1.72,1.47-2.53,2.26-1.04,1.01-2.07,2.05-3.02,3.15-.67.78-.69,1.35.03,2.17,1.18,1.33,2.45,2.56,3.7,3.82.34.34.77.6,1.1.95.31.34.28.73.01,1.1-.33.46-.82.64-1.25.4-.29-.15-.58-.32-.81-.54-1.18-1.11-2.34-2.23-3.49-3.36-.29-.28-.53-.61-.83-.88-.61-.53-1.3-.41-1.53.34-.21.68-.33,1.4-.37,2.12-.03.55.11,1.11.17,1.61Z"/>
    <path class="cls-2" d="M201.05,228.26c-.81,1.13-1.59,2.16-2.31,3.24-.39.59-.89.88-1.57.99-.61.11-1.11.06-1.48-.52-.5-.78-.52-1.38-.03-2.01.2-.25.45-.47.68-.69,1-.98,1.67-2.14,2.12-3.48.41-1.22,1.03-2.38,1.57-3.54.13-.29.31-.58.52-.82.58-.66,1.31-1.22,1.75-1.96.45-.75.63-1.66.95-2.48.12-.29.32-.55.49-.82,1.07.04,1.59.82,1.61,1.56.04,1.59.7,3,1.12,4.46.64,2.25,1.16,4.53,1.47,6.83.25,1.81.15,3.68-.46,5.39-.7.27-1.12-.03-1.26-.52-.28-1.01-.46-2.04-.64-3.07-.06-.4.02-.81-.05-1.21-.11-.62-.51-1.03-1.14-1.1-1.04-.11-2.08-.16-3.34-.25ZM204.14,221.93c-1.12,1.57-1.34,2.13-1.3,3.15.02.41.39.69.84.63.92-.12,1.38-.62,1.19-1.44-.17-.75-.46-1.48-.73-2.34Z"/>
    <path class="cls-2" d="M306.07,226.28c.19-.21.4-.34.38-.43-.33-2.14.47-4.33-.34-6.44-.16-.43-.12-.96-.06-1.42.09-.71.58-1.16,1.07-1.14.58.03.82.47,1.01.92.13.28.19.62.23.94.29,2.24.67,4.48.8,6.74.09,1.44-.15,2.91-.34,4.35-.1.74-1.06.99-1.45.33-.39-.67-.87-.74-1.52-.91-1.52-.4-2.67-1.45-3.72-2.57-.98-1.05-2.16-1.69-3.5-2.1-.22-.07-.46-.03-.78-.05-.74,1.11-.98,2.44-1.04,3.68-.09,1.71-.89,2.82-2.1,3.77-.82-.12-.92-.7-.9-1.26.08-1.95.22-3.88.33-5.83.08-1.36.18-2.73.23-4.11.05-1.11.41-1.48,1.48-1.35.4.04.79.16,1.26.27,1.04,1.92,2.72,3.06,4.72,3.92,1.17.51,2.19,1.35,3.28,2.06.32.21.64.43.94.65Z"/>
    <path class="cls-2" d="M192.92,232.86c-.8.03-1.32.17-1.75.05-2.48-.73-4.94-1.53-7.4-2.31-.15-.04-.3-.12-.44-.2-1.24-.67-1.72-1.65-1.39-3.02.26-1.1.6-2.19.94-3.27.76-2.39,1.62-4.75,2.26-7.18.38-1.42,1.11-2.47,2.14-3.35,2.2.49,4.31.99,6.44,1.45,1.21.27,2.29.74,3.15,1.71-.5.98-1.35,1.16-2.06.73-1.96-1.19-4.19-1.02-6.28-1.6-1.05,1.15-1.41,2.46-1.62,3.83-.1.64.24,1.12.8,1.35.67.28,1.39.44,2.07.69,1.1.42,1.22.66,1.23,2.39-.36.05-.73.15-1.1.12-.89-.05-1.77-.18-2.66-.24-.79-.04-1.43.29-1.74,1.06-1.53,3.68-1.65,3.62,1.96,4.7,1.16.35,2.34.69,3.53.87,1.2.18,1.59.93,1.93,2.21Z"/>
    <path class="cls-2" d="M170.91,211.32c.97-.46,1.88-1.01,2.86-1.34,2.14-.72,3.74-.17,5.1,1.66.39.51.69,1.1,1.04,1.68-.11.21-.17.45-.33.6-.43.41-.57,1.29-1.45,1-.7-.24-.62-.89-.69-1.43-.08-.62-.43-1.05-.93-1.35-.25-.15-.61-.27-.9-.23-1.83.27-3.33,2.01-3.34,3.91,0,.38.14.84.38,1.11.64.73,1.35,1.39,2.05,2.05,1.39,1.29,2.47,2.72,2.69,4.71.13,1.27-.24,2.11-1.26,2.91-1.61,1.25-3.42,1.34-5.29,1.29-1.82-.04-3.53-.38-4.82-1.88-.36-.42-.91-.67-1.36-1-.85-.63-1.61-1.33-1.99-2.36.35-.68.97-.88,1.59-.97.89-.13,1.39.26,1.6,1.28.09.43.17.79.61.95,1.43.54,2.86,1.11,4.31,1.56,1.66.51,3.02-.08,4.08-1.41.74-.95.82-1.72.06-2.63-.56-.68-1.25-1.27-1.94-1.82-2.97-2.33-3.46-3.76-2.4-7.33.07-.23.15-.45.33-.95Z"/>
    <path class="cls-2" d="M269.75,235c-.7-1.43-.68-2.82-.83-4.18-.11-1-.42-1.26-1.39-1.28-.57,0-1.13.03-1.7.06-1.75.08-2.81.95-3.34,2.64-.41,1.31-1.05,2.54-1.62,3.79-.08.16-.4.31-.58.28-.18-.03-.48-.27-.48-.43-.02-.88-.16-1.81.09-2.63,1.1-3.55,2.29-7.09,3.51-10.6.4-1.14.96-2.23,1.53-3.3.43-.82,1.23-.82,1.67.04.73,1.45,1.34,2.94,1.99,4.43.13.29.26.61.28.93.04,1.42,1.3,2.38,1.34,3.85.04,1.36.47,2.7.72,4.05.09.48.19.96.22,1.44.05.67-.13.79-1.39.91ZM265.03,227.31c.27.15.4.28.54.28.4,0,.8,0,1.19-.08,1.11-.2,1.4-.62,1.12-1.64-.17-.61-.4-1.21-.66-1.8-.16-.36-.41-.69-1.03-.6-.8,1.13-1.16,2.46-1.16,3.84Z"/>
    <path class="cls-2" d="M224.53,208.84c-.77-.24-1.22-.4-1.68-.52-.47-.12-.96-.18-1.42-.33-.74-.23-1.13-.79-.92-1.19.31-.54.81-.38,1.28-.38.89,0,1.78-.01,2.67-.01,2.35,0,4.7,0,7.05.01.39,0,.85.07,1.16.29.94.63,1.9.78,3,.52.45-.11.96.03,1.44.09,1.32.13,2.06,1,2.3,2.17.43,2.09-.39,4.1-2.41,5.09-1.07.53-2.2.49-3.23-.27-.2-.14-.39-.28-.58-.43-1.94-1.6-2.07-2.3-.88-4.58.18-.35.33-.71.58-1.25-1.04-.18-1.85.32-2.69.35-.88.04-1.74.26-2.73.42-.21.75-.44,1.43-.59,2.12-.2.87-.37,1.75-.53,2.63-.1.55-.09,1.19-.78,1.37-.57.15-1.34-.52-1.49-1.35-.08-.47-.03-.96.02-1.44.11-1.05.26-2.08.42-3.32ZM237.36,210.66c.02-.12.09-.29.04-.43-.12-.36-.21-.79-.45-1.04-.36-.37-.89-.39-1.34-.11-.54.34-1.07.71-1.55,1.13-.9.79-.9,2.12-.05,3,.48.49,1.19.53,1.74.12.89-.66,1.31-1.59,1.6-2.66Z"/>
    <path class="cls-2" d="M255.81,235.7c-.51.33-.76.55-1.07.66-.8.28-1.54-.19-1.5-1.01.03-.63.21-1.26.34-1.9.15-.8.33-1.58.46-2.38.15-.88-.12-1.62-.86-2.13-2.44-1.69-3.78-4.41-5.93-6.38-.44-.42-.9-1.01-.56-1.73.22-.48,1.16-.43,1.96.18.5.38.93.89,1.28,1.43.49.74.85,1.56,1.32,2.33.81,1.3,1.5,1.8,3.31,2.49.21-.48.55-.96.64-1.47.25-1.44.52-2.89.52-4.34.02-1.9,1.07-2.93,2.56-3.72.33-.18.69-.32.98-.44.63.43.51.95.39,1.39-.89,3.45-1.4,6.97-2.73,10.32-.83,2.09-1.53,4.3-1.12,6.72Z"/>
    <path class="cls-2" d="M319.33,228.31c-.58,1.05-1.63.95-2.57.93-1.08-.03-2.02-.52-2.88-1.17-.8-.61-1.4-1.29-1.49-2.37-.04-.46-.37-.89-.54-1.34-.44-1.14-.67-2.33-.55-3.56.05-.56.13-1.13.15-1.69.15-3.4,1.86-5.41,5.21-5.94,1.1-.17,2.24-.47,3.36,0,.28.12.55.27.9.45-.49,1.35-1.37,2.05-2.66,2.25-2.89.43-4.29,2.3-4.86,5-.41,1.89.28,3.51,1.37,4.98.27.36.76.61,1.21.74,1,.3,2.04.5,3.06.74l-.03-.06c-.08.45-.21.91.4,1.12l-.07-.06Z"/>
    <path class="cls-2" d="M274.75,215.54c-3-.32-4.68-2.02-4.45-4.31.15-1.58.95-2.92,2.14-3.97.45-.39,1.04-.57,1.59-.27.82.43,1.68.54,2.56.67,1.15.17,1.9.86,2.16,2.02.25,1.1.55,2.21.72,3.32.21,1.32-.43,2.13-1.76,2.44-.31.06-.64.11-.96.11-.81.02-1.62,0-2,0ZM274.44,209.23c-.97.14-1.48.77-1.83,1.51-.68,1.42.33,2.87,1.89,2.78.95-.06,1.69-.55,2.33-1.17.61-.6.39-1.92-.43-1.96-.98-.04-1.22-1.02-1.96-1.16Z"/>
    <path class="cls-2" d="M257.83,207.01c3.03,1.1,4.96,3.53,7.65,4.4.61-.49.43-.97.39-1.44-.12-1.1-.61-2.16-.41-3.53.89.43,1.58.76,2.32,1.11.54,1.54.85,3.12.99,4.74.11,1.29,0,1.46-1.16,2.49-1.29-.43-2.36-1.27-3.4-2.19-.96-.85-1.9-1.76-3.11-2.19q-1.46,1.36-.67,4.78c-.37.31-.58.03-.78-.21-.3-.38-.52-.87-.9-1.13-1.12-.73-1.31-1.73-1.18-2.95.09-.8-.05-1.62-.03-2.43,0-.39.15-.77.29-1.44Z"/>
    <path class="cls-2" d="M249.51,207.5c-.5.2-.92.44-1.36.52-.64.12-1.29.1-1.94.18-.61.08-1.03.47-.96.88.09.62.62.7,1.08.76.56.07,1.13-.01,1.69.04.46.05.9.2,1.31.3.09.74-.26,1.06-.8,1.1-.64.04-1.29-.03-1.94-.02-1.29.04-1.71.49-1.69,1.81,0,.32.06.64.1.97.13.95-.25,1.71-.91,2.53-.29-.27-.61-.43-.7-.68-.24-.68-.46-1.38-.57-2.09-.25-1.76-.43-3.53-.63-5.29-.04-.31-.01-.63-.02-1,1.66-.97,3.52-.52,5.24-.86.52-.1,1.11.05,1.65.16.15.03.24.37.45.69Z"/>
    <path class="cls-2" d="M290.83,219.47c-.15,1.81-.33,3.66-.46,5.51-.08,1.3-.17,2.6-.09,3.89.08,1.33-.43,2.33-1.18,3.23-.78.03-.94-.47-1.01-.94-.07-.47-.01-.97.03-1.44.33-3.39.76-6.78-.07-10.16-.18-.72.48-1.18,1.24-.95.31.09.62.21.9.36.21.11.38.29.63.51Z"/>
    <path class="cls-2" d="M319.02,227.32c.17-.18.32-.36.51-.51,1.18-.97,1.6-2.11,1.05-3.63-.35-.97.22-1.92,1.18-1.91,1.42.02,2.67-.47,3.97-.89.18-.05.59.08.61.19.06.26.05.7-.12.82-.43.34-.95.58-1.47.8-1.47.63-1.78,1.42-1.15,2.98.35.87.32,1.56-.27,1.77-1.31.5-2.42,1.66-4.01,1.37l.07.06c-.13-.37-.27-.74-.4-1.12l.03.06Z"/>
    <path class="cls-2" d="M253.01,207.75c1.41-.19,1.85.06,1.88.92,0,.24,0,.49-.05.72-.31,1.6-.36,3.2-.21,4.81.03.31-.06.64-.12.95-.06.29-.61.43-.8.2-.2-.23-.49-.5-.52-.77-.22-2.23-.83-4.45-.18-6.82Z"/>
    <path class="cls-8" d="M220.86,204.65c-.02.06-.03.15-.06.16-.07.03-.16.03-.23,0-.06-.03-.1-.1-.15-.16.15,0,.29,0,.44,0Z"/>
    <path class="cls-8" d="M251.8,221.07c-.03.06-.04.13-.09.16-.03.02-.1-.03-.16-.06.05-.09.1-.17.15-.25.03.05.06.1.09.15Z"/>
    <path class="cls-1" d="M242.77,224.92c1.29.92,1.4,1.91,1.29,2.95-.01.14-.35.33-.55.35-.52.07-.96-.3-1.04-.79-.04-.23-.08-.49-.05-.72.06-.47.18-.93.35-1.79Z"/>
    <path class="cls-1" d="M204.14,221.93c.27.86.56,1.59.73,2.34.18.82-.28,1.31-1.19,1.44-.45.06-.82-.22-.84-.63-.04-1.01.18-1.57,1.3-3.15Z"/>
    <path class="cls-1" d="M265.03,227.31c0-1.38.37-2.7,1.16-3.84.61-.09.86.24,1.03.6.26.58.49,1.19.66,1.8.28,1.02-.01,1.44-1.12,1.64-.39.07-.79.08-1.19.08-.14,0-.28-.13-.54-.28Z"/>
    <path class="cls-1" d="M237.36,210.66c-.28,1.07-.71,2-1.6,2.66-.56.42-1.27.37-1.74-.12-.85-.89-.85-2.21.05-3,.47-.42,1.01-.79,1.55-1.13.45-.27.98-.26,1.34.11.25.26.34.68.45,1.04.05.14-.03.32-.04.43Z"/>
    <path class="cls-2" d="M318.99,227.25c.13.37.27.74.4,1.12-.61-.21-.49-.67-.4-1.12Z"/>
    <path class="cls-1" d="M274.44,209.23c.74.14.98,1.12,1.96,1.16.81.03,1.04,1.35.43,1.96-.64.63-1.38,1.11-2.33,1.17-1.56.09-2.57-1.36-1.89-2.78.35-.74.86-1.37,1.83-1.51Z"/>
    <path class="cls-2" d="M224.45,168.48s-22.28-9.77-57.28,1.43c0,0-2.8,13.07.47,16.33,3.27,3.27,23.8,6.54,27.99,6.78,4.2.22,10.73,1.16,12.6.93,1.87-.24,5.13-2.1,6.07-2.33.93-.24,6.07-3.5,6.07-3.5,0,0,.93.46.24-2.33-.7-2.8-1.43-3.62-.26-5.49,1.16-1.86-.44-.82,2.13-4.55,0,0,3.88-5.87,1.98-7.27Z"/>
    <path class="cls-6" d="M166.18,172.59s35.69-10.15,58.8-2.1c0,0-1.34,4.03-2.51,5.25,0,0-23.57-10.86-55.94-.7l-.35-2.45Z"/>
    <path class="cls-6" d="M280.62,177.67s29.22,3.15,42.17-6.65l1.06,5.5s-15.93,8.49-27.13,7.97c-11.2-.52-19.07-2.97-19.07-2.97,0,0,3.51-2.45,2.98-3.85Z"/>
    <path class="cls-6" d="M165.83,177.84s11.55-6.47,29.05-3.85c17.5,2.63,26.07,7.35,26.07,7.35l-.18,3.85s-17.85-5.07-29.22-5.07-25.37,2.1-25.37,2.1l-.35-4.37Z"/>
    <polygon class="cls-6" points="272.22 188.86 292.4 193.32 278.88 194.64 274.85 194.81 272.22 188.86"/>
    <text class="cls-12" transform="translate(197.75 250.02) rotate(23.39)"><tspan x="0" y="0"> </tspan></text>
    <text class="cls-12" transform="translate(203.68 252.56) rotate(21.13)"><tspan x="0" y="0"> </tspan></text>
    <text class="cls-12" transform="translate(209.71 254.87) rotate(18.81)"><tspan x="0" y="0"> </tspan></text>
    <text class="cls-12" transform="translate(215.88 256.96) rotate(15.83)"><tspan x="0" y="0">C</tspan></text>
    <text class="cls-12" transform="translate(223.5 259.07) rotate(11.87)"><tspan x="0" y="0">O</tspan></text>
    <text class="cls-12" transform="translate(230.78 260.66) rotate(4.94)"><tspan x="0" y="0">M</tspan></text>
    <text class="cls-12" transform="translate(241.98 261.25) rotate(-4.43)"><tspan x="0" y="0">P</tspan></text>
    <text class="cls-12" transform="translate(248.59 260.73) rotate(-6.69)"><tspan x="0" y="0">A</tspan></text>
    <text class="cls-12" transform="translate(257.15 259.71) rotate(-8.96)"><tspan x="0" y="0">N</tspan></text>
    <text class="cls-12" transform="translate(265.86 258.3) rotate(-11.2)"><tspan x="0" y="0">Y</tspan></text>
    <path class="cls-4" d="M151.83,225.79s36.92,14,43.22,14.88c6.3.88,14.18,1.22,23.28,1.92,9.1.7,26.25,2.27,37.28,1.75,11.02-.52,29.75-1.4,36.39-2.97,6.65-1.58,40.6-6.65,42.87-7.53,2.28-.88,7.53-4.2,7.53-4.2l.18-1.4s-10.15,2.45-10.85,2.45-19.95,3.51-21.35,3.68c-1.4.18-8.92.35-15.58.52-6.65.18-18.9,3.68-21.35,3.86-2.45.17-12.25.88-14.35,1.04-2.1.18-3.67.35-12.43,0-8.74-.34-20.12-.87-23.44-.7-3.33.18-8.93-.69-11.2-.69s-8.75-.88-12.6-1.4c-3.85-.52-16.1-2.97-20.3-3.85-4.2-.88-27.3-7.35-27.3-7.35Z"/>
    <path class="cls-2" d="M285.08,210.5s33.3-4.52,34.36-4.65c1.06-.12,1.52,1.3.81,1.44-.7.15-34.52,4.29-34.52,4.29l-.65-1.08Z"/>
    <path class="cls-2" d="M215.59,210.32s-33.3-4.52-34.36-4.65c-1.06-.12-1.52,1.3-.81,1.44.71.15,34.51,4.29,34.51,4.29l.66-1.08Z"/>
    <path class="cls-5" d="M318.02,157.43l-1.81-.41s-4.2-1.98-5.6-2.92c-1.4-.94-3.85-2.22-4.32-3.04-.46-.81-3.15-3.15-3.73-3.49-.58-.35-1.46-1.35-1.46-1.35l-2.1-.35s-2.45,1.41-3.03,1.99c-.58.58-3.85,3.49-4.43,3.96-.58.47-1.05.78-1.05.78,0,0-.24.86-.12,1.32.12.47,0,.7,0,1.04s-.23.7-.81.94c-.58.24-.7-.12-1.17.12-.47.24-.47,0-1.4,0h-.93s-.7-.7-1.52.24c-.82.94-.58.35-1.63,1.28-1.05.94-2.45,2.22-2.8,2.68-.35.47-.7.7-1.28,1.17l-.59.47s.7,1.28.59,1.87c-.12.58.12,0-.24.93-.35.94-.46.82-.93,1.52l-.47.7-.41.49.99,1.95s.82,1.17,1.64,1.52c.81.35,1.51.47,2.33.58.82.12,4.55.46,7.82.35,3.27-.12,13.41-1.64,14.81-2.11,1.4-.46,9.57-1.86,11.55-2.57,1.98-.69,4.9-1.98,4.9-1.98,0,0,.12-.47-.24-1.4-.35-.94-.46-2.45-1.05-3.39-.58-.93-.93-1.05-1.05-1.86-.12-.82-.46-1.05-.46-1.05Z"/>
    <path class="cls-10" d="M305.76,148.1s-1.52-1.81-2.16-2.11c-.64-.28-1.05-.7-1.22-.64-.18.05-2.51-.06-2.86.12-.34.17-.12.29.41.7.52.41,2.45,1.64,3.09,2.22.64.58,2.8,2.27,3.67,2.97.88.7,1.52,1.17,2.1,1.57.58.41,1.05.94,2.51,1.53,1.46.58,3.97,2.57,4.72,2.68.76.12,2.22.29,2.39.29s.29.11.29-.17c0-.72.59.43.15-1.72l-.09-.44s-3.09-.58-3.85-.94c-.76-.35-1.93-1.05-2.74-1.52-.82-.46-2.33-1.1-2.85-1.4-.53-.29-1.99-1.23-2.28-1.51-.29-.29-1.28-1.63-1.28-1.63Z"/>
  </g>
  <g>
    <g>
      <polygon class="cls-7" points="83.32 113.35 30.96 189.99 33.57 193.29 133.45 189.83 97.57 123.92 86.9 111.45 83.32 113.35"/>
      <path class="cls-8" d="M115.39,150.7c3.5.51,2.58,5.9,6.25,6.23.1,3.85,2.07,5.65,4.51,6.91-.28,4.06,2.01,5.28,4.46,6.32.28,1-.4,1.13-1.12,1.24.83.82,2.79,1.35,1.33,2.9.46-.34.95-.66,1.75-.68.27,1.19-.03,1.86-1.1,1.84,1.19,1.5,4.61,4.74,2.67,5.81.6,1.01,1.92,1.22,3.61,1.01.33,4.85,3,7.12,2.99,12.34-.57-.34-2.25-1.28-1.74.67-1.07-1.12-4.13-.02-4.26-2.17-1.31,2.35-4.07-1.55-7.06,1.54-1.8.3-1.34-1.87-1.94-2.88-1.7.6.84,1.46.15,2.97-.46-.39-2-2.41-1.78.09-8.28-.58-20.59-.63-27.92.18-.03-.58-.06-1.18-.09-1.77-2.68,1.58-5.81,1.88-8.31.4-1.61,2.32-12.64,2.39-16.02.8-6.51,3.76-21.02.23-24.17,4.17-5.11-2.87-13.92.37-20.31-1.97-.6-1.86.4-2.28,1.04-3.02-2.39-.09-.99-.46-1.38-4.09,2.77-.9,3.9-3.26,3.83-6.73,2.75.43,1.2-3.05,4.03-2.58-.52-1.8-.47-1.12-.15-2.96,4.03.45,1.59-4.98,5.1-5.01-.41-.58-1.39-.54-1.28-1.72,2.39.65,1.12-2,3.51-1.36-.06-1-.1-1.98-.15-2.97.51-.48,1.31-.7,2.34-.7,3.47-8.95,9.98-15.12,13.68-23.86,2.05-.03,2.7-1.34,2.2-3.68,1.74.07,1.75-1.43,3.51-1.36,1.43-7.95,9.01-10.36,10.39-18.36,6.51-1.46,4.95-10.24,11.29-11.85-.41-.58-1.39-.54-1.28-1.72,1.95-.12,2.9-1.15,5.32-.85,2.66,1.88-.7,3.06,3.11,2.81-2.46,2.68.76,10.53,3.43,9.34.89.15.16,4.49,3.17,4-.33,1.84.73,2.14.78,3.53,7.63,6.37,9.09,19.56,16.74,25.91.26,1-.41,1.15-1.13,1.25ZM80.73,123.29c-1.88.82-.54-1.9-2.44-1.07-.9.3-.41,1.9-2.29,1.31-.73,3.12-1.47,6.22-4.4,7.36-.7,3.28,1.67,3.15,2.61,4.62-4.12,3.02-4.14,12.7-11.42,9.48.67,1.77,2.84,1.86,3.17,4.01-1.57.8-2.72,1.12-3.5,1.36,2.53,2.05-.67,1.55-1.64,3.05-2.53,3.94-3.91,10.12-8.35,11.11-.16,2.88-1.2,4.96-3.89,5.53,1.5,3.08-.87.43-1.7,1.88,3.82.72-2.44,2.6.21,4.15-4.22.88-3.18,6.55-6.11,8.63-.38-1.03.55-3.52-.76-3.54,0,.94.19,2.05-1.1,1.85-.64,1.95,1.94.35,1.31,2.3-2.46.61-2.01,3.85-3.29,5.53,6.18-1.37,16.23-1.48,23.13-1.15.11-.46-.04-1.17.53-1.22,23.01,2.1,41.35-1.48,69.45-2.24-1.29-6.23-6.8-9.22-8.96-12.63-.71-5.28-5.69-5.8-5.91-11.6-2.66.4-2.29-2.11-1.97-3.46-2.36.06-4.51-3.77-2.6-4.62-1.85,1-1.99-.35-3.62-1.01-4.29-12.95-14.52-22.09-19.43-32.33.03.6-1.01.8-1.18.05.72-.09,1.39-.24,1.13-1.24-1.65.57-1.58-.76-3-.45-2.87,4-4.15,9.46-8.94,11.74,1.25,2.03-.43,2.88-1.57,4.24-.72-2.35-.14-4.62.87-6.58.98-.03.4,1.62,1.27,1.72.13-2.55,2.17-7.39,3.91-4.94-.06-.82.21-1.32.5-1.81Z"/>
    </g>
    <text class="cls-11" transform="translate(61.4 179.59)"><tspan x="0" y="0">82</tspan></text>
  </g>
</svg>