<svg width="180" height="185" viewBox="0 0 180 185" fill="none" xmlns="http://www.w3.org/2000/svg">
<rect y="0.608643" width="180" height="184" rx="14" fill="#87B9C4"/>
<path fill-rule="evenodd" clip-rule="evenodd" d="M22.0778 81.5346L6.77002 103.935L7.53088 104.904L36.7334 103.889L26.2444 84.6233L23.1194 80.9821L22.0778 81.5346Z" fill="#ED2D2C"/>
<path fill-rule="evenodd" clip-rule="evenodd" d="M20.8457 84.4422C20.2932 84.6868 20.6917 83.8897 20.1301 84.1252C19.8675 84.2158 20.0124 84.6777 19.4599 84.5147C19.2425 85.4295 19.0341 86.3353 18.1736 86.6614C17.9653 87.6215 18.6628 87.5853 18.9345 88.0201C17.7298 88.8987 17.7207 91.7338 15.5922 90.7918C15.7914 91.3081 16.4255 91.3352 16.5161 91.9602C16.0541 92.1957 15.719 92.2863 15.4925 92.3588C16.2353 92.9656 15.2932 92.8117 15.0125 93.2555C14.2697 94.4058 13.8712 96.2174 12.5759 96.5073C12.5306 97.3496 12.2226 97.9565 11.4346 98.1286C11.8784 99.0254 11.181 98.2464 10.9364 98.6812C12.0505 98.8895 10.2208 99.442 10.9998 99.8949C9.76796 100.158 10.0669 101.806 9.20637 102.413C9.09767 102.114 9.36941 101.38 8.98898 101.38C8.98898 101.652 9.04333 101.978 8.6629 101.915C8.48174 102.485 9.23354 102.014 9.04333 102.594C8.32776 102.775 8.45457 103.717 8.0832 104.206C9.89477 103.808 12.8295 103.772 14.8494 103.871C14.8766 103.735 14.8404 103.527 15.0034 103.509C21.7243 104.125 27.0866 103.074 35.302 102.857C34.9307 101.036 33.3184 100.158 32.6843 99.1612C32.476 97.6214 31.0177 97.4674 30.9543 95.7736C30.1753 95.8913 30.284 95.1576 30.3836 94.7591C29.6952 94.7772 29.0702 93.654 29.6228 93.4004C29.0793 93.6993 29.0431 93.3008 28.563 93.1106C27.313 89.3244 24.3149 86.6523 22.8837 83.6632C22.8837 83.8353 22.5848 83.8987 22.5395 83.6723C22.7479 83.6451 22.9471 83.5998 22.8747 83.31C22.3855 83.4821 22.4127 83.0926 21.9961 83.1832C21.1537 84.3516 20.7823 85.9458 19.3874 86.6161C19.7497 87.2139 19.2606 87.4585 18.9345 87.857C18.7262 87.1686 18.8892 86.5074 19.1881 85.9277C19.4689 85.9186 19.3059 86.3987 19.5595 86.4259C19.5957 85.6831 20.1935 84.2611 20.7008 84.9766C20.6827 84.7411 20.7642 84.5871 20.8457 84.4422ZM30.9814 92.4493C32.005 92.6033 31.7423 94.1703 32.8111 94.27C32.8383 95.3932 33.418 95.9185 34.1245 96.2899C34.043 97.4765 34.7133 97.8297 35.4289 98.1377C35.5104 98.4275 35.3111 98.4728 35.1028 98.5C35.3473 98.7355 35.918 98.8985 35.4923 99.3514C35.6281 99.2518 35.764 99.1522 35.9995 99.1522C36.081 99.4964 35.9995 99.6956 35.6825 99.6866C36.0267 100.13 37.023 101.072 36.4614 101.389C36.6426 101.679 37.023 101.743 37.5122 101.688C37.6118 103.11 38.3908 103.772 38.3908 105.293C38.2277 105.194 37.7386 104.922 37.8835 105.493C37.5665 105.167 36.6698 105.493 36.6335 104.859C36.2531 105.538 35.447 104.406 34.5684 105.311C34.043 105.402 34.1789 104.759 33.9977 104.469C33.4995 104.641 34.2423 104.895 34.043 105.339C33.9071 105.221 33.4542 104.632 33.5176 105.366C31.0992 105.203 27.5032 105.185 25.3565 105.42C25.3565 105.248 25.3384 105.076 25.3293 104.904C24.5504 105.366 23.6355 105.456 22.9018 105.022C22.4308 105.701 19.2062 105.719 18.2189 105.257C16.3168 106.353 12.0777 105.321 11.1538 106.471C9.65926 105.638 7.08683 106.58 5.21186 105.9C5.03976 105.357 5.32961 105.23 5.51982 105.013C4.82237 104.985 5.22997 104.886 5.11222 103.817C5.91837 103.554 6.25351 102.866 6.23539 101.851C7.04154 101.978 6.58865 100.955 7.41291 101.1C7.25893 100.574 7.26799 100.774 7.36762 100.23C8.54515 100.366 7.82958 98.7717 8.85311 98.7717C8.73536 98.5996 8.44551 98.6087 8.48174 98.2645C9.1792 98.4547 8.80782 97.6757 9.50528 97.8659C9.48716 97.5761 9.4781 97.2862 9.45999 96.9964C9.60491 96.8515 9.84948 96.7881 10.1393 96.7881C11.1538 94.1703 13.056 92.3678 14.1429 89.8135C14.7407 89.8045 14.9309 89.424 14.786 88.7356C15.2932 88.7628 15.2932 88.319 15.8095 88.3371C16.2353 86.0183 18.4454 85.3118 18.8439 82.9748C20.7461 82.5491 20.2932 79.9857 22.141 79.5147C22.0232 79.3426 21.7334 79.3517 21.7696 79.0166C22.3403 78.9803 22.621 78.6724 23.3276 78.7629C24.1065 79.3155 23.1283 79.6597 24.2333 79.5781C23.5178 80.3662 24.4598 82.6578 25.2388 82.3136C25.4924 82.3589 25.2841 83.627 26.1627 83.4821C26.0721 84.0165 26.3801 84.1071 26.3982 84.5147C28.6264 86.3715 29.0521 90.2302 31.2894 92.087C31.3619 92.3859 31.1717 92.4222 30.9543 92.4493H30.9814Z" fill="#231F20"/>
<path d="M17.6433 96.0391L18.5997 94.9861H17.2182C16.9412 94.9861 16.8028 95.0666 16.8028 95.2276C16.8028 95.2856 16.8156 95.3725 16.8414 95.4884C16.8672 95.5979 16.88 95.6817 16.88 95.7396C16.88 96.2871 16.6256 96.5608 16.1168 96.5608C15.9043 96.5608 15.7304 96.4964 15.5951 96.3676C15.4599 96.2323 15.3923 96.0584 15.3923 95.8459C15.3923 95.7428 15.4084 95.585 15.4406 95.3725C15.4792 95.16 15.4985 95.0022 15.4985 94.8991C15.4985 94.809 15.4857 94.6801 15.4599 94.5127C15.4341 94.3388 15.4212 94.21 15.4212 94.1262C15.4212 93.8171 15.6016 93.6625 15.9623 93.6625C16.0009 93.6625 16.0202 93.6625 16.0202 93.6625C16.4067 93.6754 16.8124 93.6818 17.2375 93.6818L20.0488 93.6625C20.2549 93.6625 20.3966 93.7076 20.4739 93.7978C20.5512 93.8815 20.5899 94.0393 20.5899 94.2712C20.5899 94.6061 20.4707 94.8991 20.2324 95.1503L19.1117 96.3193C19.6012 96.3708 19.9812 96.5511 20.2517 96.8603C20.5287 97.163 20.6671 97.5623 20.6671 98.0583C20.6671 98.741 20.4031 99.2884 19.8749 99.7006C19.3468 100.113 18.6448 100.319 17.7689 100.319C17.0089 100.319 16.3906 100.145 15.914 99.7972C15.4373 99.4494 15.199 98.9986 15.199 98.4447C15.199 98.1355 15.2957 97.8747 15.4889 97.6622C15.6821 97.4496 15.9204 97.3433 16.2038 97.3433C16.4485 97.3433 16.6578 97.4271 16.8317 97.5945C17.0121 97.7555 17.1023 97.9552 17.1023 98.1935C17.1023 98.3932 17.0217 98.5864 16.8607 98.7732C17.0217 98.8955 17.1538 98.976 17.2568 99.0147C17.3663 99.0469 17.5241 99.063 17.7302 99.063C18.0973 99.063 18.3968 98.9728 18.6287 98.7925C18.8605 98.6121 18.9765 98.3803 18.9765 98.0969C18.9765 97.5494 18.5707 97.2628 17.7592 97.2371C17.4629 97.2242 17.3148 97.0696 17.3148 96.7733C17.3148 96.5222 17.4243 96.2774 17.6433 96.0391ZM26.0413 94.3388L25.993 97.1308H26.7272C27.1136 97.1308 27.3069 97.3208 27.3069 97.7008C27.3069 98.0937 27.0911 98.2901 26.6596 98.2901H25.993V98.435C25.993 98.6154 26.0091 98.7377 26.0413 98.8021C26.0864 98.8988 26.1862 98.9471 26.3408 98.9471C26.3536 98.9471 26.402 98.9406 26.4857 98.9277C26.6467 98.902 26.724 98.8891 26.7175 98.8891H26.7755C26.9236 98.8891 27.0428 98.9471 27.133 99.063C27.2296 99.1725 27.2779 99.3174 27.2779 99.4977C27.2779 99.7038 27.2167 99.8713 27.0943 100C26.9784 100.129 26.8303 100.193 26.6499 100.193C26.5275 100.193 26.3408 100.174 26.0896 100.135C25.9221 100.11 25.6548 100.097 25.2877 100.097C24.8304 100.097 24.5181 100.106 24.3506 100.126C23.9577 100.171 23.7162 100.193 23.626 100.193C23.4135 100.193 23.2396 100.132 23.1043 100.01C22.9691 99.881 22.9015 99.7167 22.9015 99.5171C22.9015 99.1049 23.1398 98.8988 23.6164 98.8988C23.6228 98.8988 23.771 98.9149 24.0608 98.9471C24.1252 98.9535 24.1864 98.9567 24.2443 98.9567C24.4698 98.9567 24.5825 98.7925 24.5825 98.464V98.3191H21.8484C21.4169 98.3191 21.2011 98.1388 21.2011 97.7781C21.2011 97.4754 21.3332 97.1566 21.5972 96.8217L23.8096 93.991C24.0543 93.6818 24.444 93.5273 24.9786 93.5273C25.3779 93.5273 25.6548 93.5885 25.8094 93.7108C25.9704 93.8268 26.0477 94.0361 26.0413 94.3388ZM22.9015 97.1598H24.5535L24.5825 95.0151L22.9015 97.1598Z" fill="white"/>
<path d="M99.0463 130.28C96.1569 130.28 93.2674 130.325 90.387 130.271C85.3871 130.171 80.4777 129.365 75.6589 128.015C72.6336 127.173 69.6174 126.294 66.6373 125.298C60.9037 123.378 55.7407 120.389 51.094 116.548C48.6122 114.501 46.6285 111.974 44.817 109.32C42.0634 105.307 39.9257 101.041 38.9203 96.2133C38.2047 92.7895 38.0779 89.4562 39.4094 86.1772C40.2971 83.9943 41.0398 81.7208 42.2174 79.7009C43.5851 77.3549 45.4419 75.3078 47.5524 73.5597C53.5306 68.6141 60.2515 64.8279 67.1627 61.395C71.7822 59.0943 76.7368 57.7718 81.8092 56.8117C90.7493 55.136 99.7347 54.7193 108.765 55.0001C112.86 55.1269 116.945 55.2628 121.03 55.5436C123.475 55.7157 125.912 56.1233 128.348 56.5128C131.292 56.9838 134.299 57.2918 137.153 58.107C142.995 59.7645 148.656 61.9203 154.082 64.7464C160.576 68.1249 165.486 73.2698 170.187 78.623C173.547 82.4454 175.187 87.0921 174.861 92.2822C174.67 95.3166 174.48 98.351 173.692 101.322C173.149 103.378 172.297 105.244 170.975 106.938C164.743 114.918 156.555 120.026 147.198 123.595C140.939 125.986 134.372 127.082 127.905 128.613C125.776 129.111 123.539 129.157 121.347 129.338C117.379 129.673 113.403 130.053 109.427 130.226C105.967 130.37 102.506 130.253 99.0373 130.253C99.0373 130.262 99.0373 130.28 99.0373 130.289L99.0463 130.28ZM105.369 129.111C105.369 129.039 105.369 128.967 105.378 128.903C106.428 128.903 107.479 128.957 108.53 128.894C112.715 128.622 116.899 128.342 121.084 127.988C123.33 127.798 125.586 127.599 127.787 127.164C131.537 126.43 135.251 125.497 138.982 124.673C141.192 124.184 143.33 123.541 145.395 122.581C148.058 121.34 150.739 120.135 153.448 119.021C157.406 117.382 160.721 114.882 163.629 111.775C166.582 108.623 169.145 105.162 171.536 101.594C172.297 100.461 172.759 99.0122 172.977 97.6535C173.538 94.1572 173.121 90.6428 172.868 87.1374C172.841 86.7207 172.768 86.2859 172.596 85.9146C171.717 84.0668 170.893 82.1918 169.426 80.6972C167.768 79.0215 166.156 77.3005 164.471 75.6611C160.975 72.2553 157.587 68.7228 153.267 66.3134C151.573 65.3714 149.807 64.538 148.185 63.4873C144.997 61.4131 141.365 60.462 137.805 59.5019C133.729 58.3968 129.499 57.7356 125.296 57.2283C120.93 56.703 116.519 56.4947 112.117 56.3407C108.394 56.2048 104.662 56.3407 100.939 56.3497C98.2039 56.3497 95.4866 56.4765 92.8145 57.1287C91.5917 57.4276 90.3417 57.5907 89.1189 57.8805C85.7132 58.7138 82.1987 59.0852 78.9017 60.3624C78.0864 60.6794 77.1807 60.779 76.3111 60.9602C75.7586 61.0779 75.1698 61.0598 74.6535 61.2591C72.0177 62.2917 69.409 63.4058 66.7822 64.4384C60.5957 66.884 54.8349 70.0814 49.5723 74.1575C48.9926 74.6013 48.4401 75.1085 47.9963 75.6792C46.7553 77.2824 45.1974 78.6955 44.6901 80.7788C44.6267 81.0233 44.4365 81.2317 44.2916 81.4581C42.0181 84.9182 41.0942 88.8403 40.5145 92.8529C40.3514 93.9761 40.3695 95.1717 40.5869 96.2858C41.1848 99.4379 42.0815 102.518 44.1467 105.09C45.8496 107.219 47.4618 109.447 49.3731 111.376C51.4654 113.496 53.8295 115.362 56.1212 117.282C59.6356 120.217 63.5758 122.327 68.0594 123.378C68.9199 123.577 69.7804 123.849 70.6137 124.166C75.7676 126.131 81.0121 127.753 86.5465 128.206C89.1008 128.414 91.6642 128.604 94.2275 128.668C95.2148 128.695 96.1659 128.758 97.1532 128.885C98.3126 129.039 99.5264 128.749 100.713 128.659C100.912 128.64 101.121 128.668 101.329 128.695C102.679 128.831 104.019 128.976 105.369 129.121V129.111Z" fill="#ECE726"/>
<path d="M105.369 129.111C104.019 128.966 102.678 128.831 101.329 128.686C101.12 128.668 100.921 128.64 100.713 128.649C99.5263 128.74 98.3125 129.03 97.1531 128.876C96.1749 128.749 95.2147 128.677 94.2274 128.659C91.6641 128.595 89.1007 128.405 86.5464 128.197C81.012 127.744 75.7675 126.122 70.6136 124.157C69.7803 123.84 68.9288 123.577 68.0593 123.369C63.5757 122.318 59.6355 120.208 56.121 117.273C53.8294 115.353 51.4653 113.487 49.3729 111.367C47.4617 109.438 45.8494 107.21 44.1466 105.081C42.0814 102.508 41.1846 99.4379 40.5868 96.2767C40.3785 95.1626 40.3604 93.9669 40.5144 92.8438C41.085 88.8311 42.018 84.9181 44.2915 81.449C44.4364 81.2316 44.6266 81.0142 44.69 80.7696C45.2063 78.6863 46.7552 77.2824 47.9961 75.6701C48.44 75.0994 49.0016 74.5922 49.5722 74.1484C54.8348 70.0723 60.5956 66.8658 66.7821 64.4293C69.418 63.3876 72.0176 62.2826 74.6534 61.25C75.1697 61.0507 75.7585 61.0598 76.311 60.9511C77.1805 60.7699 78.0773 60.6703 78.9015 60.3532C82.2077 59.0761 85.713 58.7047 89.1188 57.8714C90.3416 57.5725 91.5916 57.4094 92.8144 57.1196C95.4865 56.4674 98.2038 56.3497 100.939 56.3406C104.662 56.3406 108.394 56.1957 112.117 56.3316C116.519 56.4946 120.93 56.6939 125.296 57.2192C129.499 57.7265 133.729 58.3877 137.805 59.4928C141.364 60.4529 144.997 61.413 148.185 63.4782C149.806 64.5289 151.573 65.3622 153.267 66.3043C157.587 68.7136 160.975 72.2553 164.471 75.652C166.156 77.2914 167.777 79.0124 169.426 80.6881C170.893 82.1736 171.726 84.0576 172.596 85.9054C172.768 86.2768 172.841 86.7116 172.868 87.1283C173.121 90.6336 173.538 94.1481 172.976 97.6444C172.759 99.0122 172.297 100.452 171.536 101.585C169.136 105.153 166.572 108.613 163.629 111.766C160.721 114.872 157.406 117.372 153.448 119.012C150.739 120.135 148.058 121.34 145.395 122.572C143.339 123.532 141.192 124.175 138.982 124.664C135.25 125.488 131.537 126.421 127.787 127.155C125.586 127.59 123.321 127.789 121.084 127.979C116.908 128.332 112.724 128.604 108.53 128.885C107.488 128.957 106.428 128.894 105.378 128.894C105.378 128.966 105.369 129.039 105.369 129.102V129.111ZM121.954 101.576C121.917 101.72 121.818 101.947 121.872 101.992C122.452 102.499 123.919 102.273 124.635 101.376C123.602 101.458 122.76 101.53 121.917 101.603C123.339 100.027 124.761 98.4596 126.455 96.5937C126.12 97.8527 125.912 98.7585 125.64 99.6462C124.879 102.146 124.381 104.773 122.832 106.956C122.234 107.798 121.51 108.595 120.694 109.211C119.617 110.036 118.666 109.755 117.941 108.586C117.723 108.233 117.579 107.835 117.434 107.436C116.99 106.258 116.582 105.072 116.129 103.894C115.957 103.441 115.676 102.925 115.124 103.152C114.87 103.26 114.671 103.813 114.662 104.166C114.599 106.612 115.359 108.84 116.745 110.815C118.086 112.717 120.441 112.871 122.216 111.304C123.385 110.271 124.2 108.985 124.807 107.59C125.975 104.891 127.107 102.173 127.651 99.2658C128.04 97.1825 129.046 95.4887 130.368 93.8582C131.654 92.2822 132.778 90.5521 133.801 88.7949C134.336 87.871 134.562 86.7388 134.788 85.6699C134.979 84.7642 134.689 84.4743 133.819 84.1663C132.705 83.7769 131.763 84.1301 130.875 84.7732C129.472 85.7877 128.04 86.775 126.682 87.8348C123.81 90.0721 121.193 92.572 119.254 95.6879C118.185 97.4089 117.361 99.2024 117.497 101.295C117.624 103.124 118.756 103.695 120.26 102.681C120.821 102.3 121.392 101.929 121.954 101.557V101.576ZM157.841 100.661C157.94 100.833 158.013 101.123 158.149 101.159C159.272 101.467 160.395 101.566 161.772 101.132C160.368 100.009 159.082 100.452 157.814 100.688C159.091 99.4469 160.44 98.2785 161.627 96.956C162.487 95.9868 163.303 94.909 163.819 93.7314C164.399 92.418 164.652 90.9597 164.969 89.5467C165.15 88.7496 164.897 88.0069 164.38 87.3456C162.94 85.4797 160.721 85.1718 158.665 86.5486C156.328 88.1246 154.743 90.3529 153.466 92.7713C152.098 95.3618 149.888 97.1462 147.841 99.0574C146.147 100.634 144 101.168 141.718 100.126C140.821 99.7187 140.015 99.139 140.115 98.0249C140.314 95.7242 140.658 93.4235 141.899 91.4036C143.285 89.1572 144.979 87.1464 147.071 85.525C147.768 84.9906 148.556 84.5377 149.372 84.2026C150.359 83.795 151.337 84.4743 151.292 85.5431C151.201 87.6536 150.35 89.3927 148.738 90.7152C148.62 90.6427 148.502 90.5793 148.384 90.5068C148.946 89.6192 149.507 88.7315 150.105 87.7714C149.625 86.8746 149.227 86.7297 148.312 87.3185C146.917 88.2152 146.337 89.6011 146.238 91.1862C146.174 92.092 146.681 92.5267 147.623 92.4543C148.076 92.418 148.584 92.2912 148.937 92.0286C149.897 91.313 150.948 90.6155 151.672 89.6916C153.14 87.8167 153.964 85.679 153.185 83.2334C152.841 82.1646 152.125 81.603 151.074 81.766C149.897 81.9472 148.674 82.1283 147.741 82.9979C145.377 85.217 142.832 87.2279 140.957 89.9634C139.544 92.0286 138.448 94.2024 137.714 96.5665C137.216 98.1788 137.524 99.7006 138.828 100.887C141.02 102.88 144.607 103.215 147.116 101.63C148.312 100.869 149.426 99.9904 150.585 99.1752C150.911 98.9488 151.265 98.7495 151.699 98.4868C151.754 98.831 151.817 99.0303 151.817 99.2205C151.908 101.512 154.118 102.518 156.038 101.585C156.645 101.286 157.252 100.978 157.859 100.67L157.841 100.661ZM115.975 92.2369C116.075 92.2912 116.184 92.3365 116.283 92.3909C116.184 92.889 116.093 93.3872 115.993 93.8764C115.595 95.7694 115.169 97.6625 114.807 99.5647C114.617 100.588 114.925 100.996 115.821 101.15C116.537 101.268 116.935 100.932 117.108 99.9361C117.243 99.1661 117.207 98.36 117.361 97.5901C117.859 95.1807 118.439 92.7804 118.937 90.371C119.164 89.2931 119.653 88.188 118.847 86.8928C116.501 88.6409 114.227 90.2804 112.524 92.6264C113.158 90.7605 113.801 88.8945 114.481 86.8928C113.838 86.6844 113.321 86.5033 112.742 86.3221C112.515 86.7569 112.316 87.0558 112.189 87.3909C111.301 89.6373 110.387 91.8655 109.553 94.13C109.155 95.2079 108.937 96.3401 108.575 97.427C108.122 98.7857 108.34 100.389 107.117 101.566C106.356 101.458 105.568 101.34 104.626 101.195C105.142 100.543 105.532 100.063 105.912 99.5647C106.446 98.8491 106.99 98.1426 107.488 97.4089C107.787 96.9651 107.823 96.5303 107.099 96.3129C106.003 97.1734 105.541 98.7404 103.874 99.3654C104.571 95.4343 106.872 92.3999 108.267 88.9308C107.859 88.6953 107.515 88.496 107.144 88.2877C105.36 90.1717 104.454 92.5086 103.113 94.5557C101.754 96.6209 100.369 98.677 98.4665 100.38C98.3487 99.7549 98.3397 99.1843 98.4846 98.668C99.5897 94.8546 100.178 90.8601 102.398 87.4362C102.561 87.1826 102.488 86.5757 102.289 86.3221C101.963 85.9145 101.428 85.9688 101.03 86.3402C100.686 86.6663 100.405 87.0467 100.097 87.4C98.077 89.8003 96.0662 92.2097 94.0463 94.61C93.9557 94.5557 93.8651 94.5013 93.7745 94.447C93.8832 94.1209 93.9738 93.7858 94.0916 93.4688C94.5716 92.1916 95.097 90.9326 95.5318 89.6373C96.7002 86.141 98.1857 82.7895 100.024 79.6012C100.332 79.0577 100.649 78.4871 100.785 77.8892C100.994 76.9563 100.26 76.3313 99.3632 76.6755C98.9556 76.8295 98.5571 77.1737 98.2944 77.536C97.7238 78.3512 97.1803 79.1936 96.7455 80.0903C94.626 84.3837 93.0137 88.8674 91.5644 93.4235C90.713 96.1136 89.8072 98.7857 88.9376 101.422C87.2348 101.277 85.9395 101.521 85.2511 102.146H88.5663C88.5934 102.282 88.6297 102.391 88.6297 102.49C88.6025 103.106 88.7112 103.713 89.3634 103.903C90.0699 104.112 90.396 103.487 90.6858 103.016C91.2655 102.083 91.7275 101.068 92.3162 100.144C93.5028 98.2966 94.7437 96.485 95.9846 94.6734C96.193 94.3745 96.5281 94.1572 96.7999 93.9035C96.7817 94.5738 96.5644 95.0992 96.4194 95.6426C95.9846 97.264 95.4684 98.8672 95.2057 100.516C95.0426 101.521 95.1694 102.617 95.4049 103.614C95.6767 104.809 96.7183 105.135 97.7056 104.42C98.2582 104.021 98.7745 103.55 99.2092 103.034C99.7074 102.445 100.296 102.291 101.012 102.327C102.579 102.409 104.146 102.472 105.713 102.536C107.552 102.608 109.381 102.717 111.22 102.744C112.479 102.762 113.747 102.708 114.861 101.874C112.941 101.34 110.966 101.711 108.72 101.494C111.492 98.4687 113.213 94.9633 115.93 92.2369H115.975ZM57.6337 85.4073C56.8276 84.9091 56.3022 85.2805 56.0486 85.8964C55.6047 86.9471 55.2696 88.0612 54.9345 89.1572C54.862 89.3927 54.9345 89.6826 54.9888 89.9362C55.2153 90.8963 55.8765 91.1952 56.7641 90.7242C56.9906 90.6065 57.217 90.4525 57.4073 90.2713C59.871 87.871 61.3021 84.9453 61.6554 81.5396C61.8365 79.7733 60.505 78.6863 58.7478 79.0124C58.1953 79.1211 57.6065 79.3023 57.1536 79.6284C56.0033 80.4436 54.8711 81.3041 53.8203 82.2461C51.9997 83.8584 50.5595 85.7877 49.2824 87.8529C47.1628 91.2768 45.3875 94.7731 45.1973 98.9397C45.0433 102.237 47.498 104.456 50.7044 103.668C52.8964 103.133 54.862 102.137 56.5196 100.661C58.8293 98.6046 61.0395 96.4216 63.2586 94.2658C63.6572 93.8764 64.0014 93.351 64.1735 92.8256C64.264 92.5358 64.0195 92.0376 63.7749 91.7749C63.4217 91.3945 62.996 91.5938 62.6789 91.938C62.5068 92.1282 62.3438 92.3456 62.217 92.572C61.4561 93.9941 60.342 95.0992 59.083 96.0593C57.371 97.3546 55.641 98.6498 53.8566 99.8545C53.1319 100.344 52.2805 100.697 51.4381 100.923C49.9708 101.322 48.594 100.353 48.132 98.7495C47.6972 97.2549 48.132 95.8419 48.4853 94.4108C49.3186 91.0775 51.1302 88.2424 53.1772 85.5703C54.5087 83.8312 56.0305 82.1917 58.0141 81.1229C59.2188 80.4707 59.7895 80.8149 59.7804 82.1827C59.7804 82.6446 59.717 83.1428 59.5359 83.5595C58.8022 85.2352 58.0232 86.8928 57.2352 88.5503C57.0993 88.8402 56.8094 89.0576 56.583 89.3112C56.4834 89.2569 56.3837 89.2116 56.2841 89.1572C56.737 87.9163 57.1899 86.6754 57.6518 85.4163L57.6337 85.4073ZM81.0301 88.6862C81.0754 86.3402 80.5863 85.6699 79.1099 84.3566C78.0773 83.4327 77.1534 83.4779 76.1208 84.0667C75.2603 84.5558 74.3636 85.0631 73.6661 85.7424C70.6498 88.6862 68.4669 92.1554 67.3256 96.2495C66.8455 97.9886 67.1807 99.5828 68.168 101.041C69.1281 102.463 70.4687 102.789 71.9723 101.974C72.5248 101.675 73.0773 101.34 73.5302 100.914C75.7585 98.8219 77.8146 96.5665 79.2186 93.8401C80.1243 92.0829 80.9033 90.226 81.012 88.6772L81.0301 88.6862ZM105.559 71.0868C105.631 70.6883 105.631 70.4165 105.731 70.1901C106.474 68.46 107.234 66.739 107.986 65.018C108.213 64.4927 108.503 63.9854 108.684 63.451C108.738 63.2789 108.566 62.9076 108.403 62.826C108.231 62.7445 107.923 62.8713 107.706 62.971C107.579 63.0253 107.515 63.2155 107.416 63.3333C105.55 65.6611 103.684 67.989 101.8 70.2988C101.51 70.6611 101.13 70.9509 100.785 71.268C100.64 70.9328 100.659 70.7788 100.713 70.643C101.619 68.5234 102.533 66.4129 103.43 64.2844C103.657 63.7409 104.082 63.1793 103.539 62.5362C102.733 62.6268 102.533 63.2518 102.289 63.8133C101.329 66.0235 100.369 68.2336 99.4266 70.4528C99.2817 70.7879 99.173 71.1502 99.1549 71.5125C99.0915 72.6176 99.9701 73.1882 100.912 72.6266C101.483 72.2824 101.981 71.7843 102.461 71.3042C103.113 70.643 103.72 69.9274 104.571 68.9854C104.399 69.9274 104.291 70.5252 104.182 71.1321C104.082 71.6846 104.082 72.2915 104.653 72.4908C105.088 72.6448 105.677 72.5632 106.138 72.4092C106.555 72.2734 106.89 71.9111 107.28 71.6212C107.515 72.1919 107.062 73.0433 107.887 73.1429C108.539 73.2245 109.2 72.9799 109.626 72.3187C110.169 71.4853 110.849 70.7426 111.383 69.9093C111.818 69.2299 112.298 68.9491 113.113 69.3296C113.186 69.6557 113.267 70.0089 113.358 70.3622C113.512 71.0234 113.611 71.7118 113.856 72.3368C113.955 72.5904 114.381 72.7172 114.653 72.8984C114.789 72.5995 115.015 72.3006 115.024 71.9926C115.042 71.6393 114.834 71.2861 114.789 70.9238C114.689 70.2263 114.635 69.5107 114.553 68.768C115.187 68.6231 115.667 68.5778 116.075 68.3785C116.301 68.2789 116.483 67.9347 116.528 67.672C116.546 67.5633 116.193 67.2916 115.975 67.2463C115.486 67.1466 114.988 67.1466 114.263 67.0923C114.454 65.8785 114.58 64.8459 114.798 63.8496C114.897 63.3876 114.988 63.0253 114.463 62.8079C113.964 62.6087 113.53 62.6721 113.267 63.1974C112.959 63.8043 112.687 64.4293 112.352 65.018C111.673 66.2137 110.957 67.3821 110.251 68.5597C110.142 67.8803 110.305 67.3369 110.45 66.7934C110.559 66.3858 110.731 65.8876 110.178 65.7427C109.97 65.6883 109.544 66.0235 109.381 66.2771C108.729 67.2916 108.077 68.306 107.542 69.3839C107.144 70.181 106.61 70.7426 105.55 71.0777L105.559 71.0868ZM81.5283 102.762C83.4214 102.952 84.6805 102.056 85.7221 100.688C86.1659 100.108 86.7728 99.6462 87.1985 99.0574C88.0228 97.9162 88.8018 96.7386 89.5445 95.5339C89.8706 95.0086 90.0789 94.3927 89.5445 93.5774C89.1279 93.9126 88.6931 94.1572 88.3942 94.5195C87.2438 95.8781 86.1206 97.264 84.9975 98.6498C84.4812 99.2839 84.0102 99.9723 83.041 100.19C82.6605 99.0574 82.733 98.0158 83.1044 97.0375C83.8471 95.0811 84.6352 93.1336 85.4957 91.2224C86.1569 89.7369 86.3743 89.6916 87.905 90.0177C89.5989 90.38 90.9304 89.6373 91.7093 87.8167C90.3597 86.8837 88.8652 87.9435 87.5246 87.5721C87.2348 86.8022 88.4847 85.9507 87.3163 85.1446C87.0264 85.4978 86.7366 85.7333 86.5917 86.0413C86.0029 87.3094 85.233 88.0703 83.6388 88.0974C82.1714 88.1246 81.5193 89.7369 82.1714 91.0775C83.0047 91.2043 83.1678 89.8637 84.1913 90.1264C84.0645 90.4978 83.9649 90.7876 83.8562 91.0775C83.0138 93.1698 82.1261 95.2441 81.3472 97.3546C80.6859 99.148 80.1696 100.978 81.5464 102.753L81.5283 102.762ZM62.1898 105.036C62.6699 104.066 63.1228 103.369 63.3673 102.608C64.7803 98.1426 66.7187 93.9035 68.7024 89.6735C69.9886 86.9199 71.1027 84.0939 72.2803 81.295C72.4252 80.9599 72.6154 80.5794 72.5792 80.2443C72.5339 79.8186 72.3799 79.2298 72.081 79.0577C71.8002 78.8947 71.0846 79.0305 70.8582 79.2932C70.2513 79.9907 69.7259 80.7878 69.3274 81.6211C68.8292 82.6537 68.5303 83.7859 68.0955 84.8457C65.7586 90.5702 63.4036 96.2857 61.0666 102.01C60.8311 102.581 60.65 103.179 60.4145 103.849C60.967 104.211 61.4289 104.519 62.1989 105.027L62.1898 105.036ZM78.34 73.1429C79.6805 73.2245 79.9704 72.4545 80.2783 71.748C80.7312 70.7064 81.1569 69.6557 81.5917 68.614C81.8453 70.2263 81.1751 71.902 82.6696 73.3966C83.195 72.7353 83.666 72.2462 84.0011 71.6846C84.6533 70.6067 85.2239 69.4836 85.8489 68.3966C86.0029 68.1249 86.2293 67.8894 86.4286 67.6358C86.6913 68.8223 86.6279 69.9274 86.7094 71.0234C86.7728 71.8477 86.9811 72.681 87.2166 73.4781C87.2891 73.7136 87.6695 73.8494 87.9141 74.0306L88.2674 73.8585C88.1858 72.681 88.0862 71.4944 88.0137 70.3169C87.9503 69.1122 87.9141 67.9075 87.8688 66.7028C87.8235 65.5615 88.1496 64.3749 87.588 62.98C85.6134 64.7191 85.1967 67.1557 83.5935 68.9673C83.2221 66.9655 84.2728 65.2173 83.9468 63.3333C83.512 63.5507 83.204 63.7952 83.0138 64.1213C81.3472 66.9927 79.6081 69.8278 78.34 73.152V73.1429ZM92.4702 73.0161C94.952 72.998 98.1314 70.6611 98.9466 68.2517C99.2636 67.3006 99.49 66.3495 99.0009 65.3622C98.8741 65.1086 98.8922 64.7644 98.9194 64.4655C98.9919 63.4329 98.6205 63.0344 97.5879 63.2246C95.876 63.5326 94.2908 64.1757 92.8416 65.163C91.3923 66.1503 90.4865 67.518 89.934 69.1394C89.2547 71.1411 90.5137 73.0342 92.4702 73.0161ZM117.778 72.3549C118.937 72.2462 119.553 71.8839 119.934 71.1049C120.83 69.2662 121.754 67.4546 122.651 65.6159C123.185 64.5108 123.167 64.5017 124.544 64.5651C124.426 65.0271 123.946 65.5525 124.716 65.8876C125.441 66.2046 126.265 66.0959 126.51 65.5162C126.809 64.8278 127.207 63.9945 127.044 63.3514C126.863 62.6449 125.894 62.8623 125.223 62.826C125.115 62.826 125.015 62.8079 124.906 62.826C124.001 62.9619 123.213 62.7989 122.578 61.4764C122.334 63.2155 121.329 63.0706 120.377 63.1612C119.562 63.2336 118.702 63.3695 117.959 63.6956C116.99 64.1213 116.935 64.6467 117.542 65.9329C117.896 65.5253 118.213 65.1449 118.493 64.8188H120.794C120.205 67.4637 118.041 69.4292 117.76 72.3549H117.778ZM129.408 66.3133C129.816 65.6611 130.124 64.9365 130.631 64.4112C131.048 63.9764 131.745 63.9673 132.162 64.5199C132.542 65.0271 132.325 65.4528 131.781 65.8061C131.247 66.1593 131.075 66.6666 131.573 67.2191C133.131 66.6122 133.819 65.3894 133.321 64.221C132.841 63.0797 131.211 62.6358 129.933 63.3876C129.472 63.6594 129.01 64.1213 128.792 64.6104C128.439 65.3985 128.276 66.2771 127.977 67.3369C127.705 67.5633 127.189 67.9347 126.763 68.3785C125.722 69.4564 125.876 70.7426 127.135 71.5669C128.321 72.3368 129.544 72.1466 130.722 71.5669C132.144 70.8785 132.424 69.7462 131.455 68.5053C130.912 67.8079 130.251 67.21 129.399 66.3133H129.408ZM115.504 124.41C115.758 124.075 116.084 123.831 116.129 123.541C116.437 121.793 116.8 120.081 117.642 118.496C117.923 117.961 117.968 117.264 117.434 116.929C116.8 116.539 116.021 116.177 115.314 116.195C114.363 116.222 113.104 117.943 113.086 118.948C113.059 120.198 113.937 120.624 114.943 120.914C115.033 120.941 115.106 121.023 115.169 121.077C115.622 122.119 114.354 123.278 115.504 124.41ZM167.632 99.0031C166.998 99.1208 166.391 99.3564 165.821 99.3111C164.063 99.1661 163.121 100.425 162.035 101.403C161.781 101.63 161.6 102.291 161.745 102.508C161.962 102.835 162.506 103.124 162.895 103.106C164.77 103.016 167.315 101.883 167.632 99.0031ZM87.6514 118.432C87.4884 117.227 86.9721 116.738 86.0572 116.693C85.2511 116.648 84.2004 117.3 83.8924 118.016C83.5663 118.776 83.7565 119.438 84.3544 119.999C84.8525 120.461 85.3417 120.941 85.7855 121.458C86.0301 121.747 86.1659 122.137 86.492 122.735C85.387 122.871 84.5355 122.979 83.521 123.106C83.675 122.789 83.7294 122.671 83.7928 122.554C83.8562 122.436 83.9196 122.318 84.0011 122.173C82.7964 122.037 82.3163 122.236 82.2258 122.88C82.1442 123.505 82.6243 123.948 83.6116 124.003C84.3363 124.048 85.0881 124.048 85.7946 123.894C87.425 123.55 87.8235 122.463 86.8362 121.14C86.4014 120.561 85.8399 120.072 85.3326 119.546C85.0156 119.211 84.5989 118.894 84.8978 118.333C85.1696 117.807 85.9214 117.535 86.5373 117.771C86.8634 117.898 87.1442 118.124 87.6514 118.423V118.432ZM118.792 120.362C118.91 121.014 118.946 121.43 119.055 121.829C119.435 123.151 120.287 123.432 121.401 122.599C122.316 121.91 122.914 121.014 123.113 119.881C123.294 118.876 122.588 118.269 122.035 117.572C121.147 116.458 120.242 116.458 119.662 117.744C119.254 118.631 119.037 119.61 118.792 120.352V120.362ZM104.78 124.157C104.481 123.405 103.802 123.731 103.285 123.64C102.207 123.459 101.981 123.233 101.954 122.137C102.416 122.137 102.878 122.155 103.331 122.137C104.245 122.083 104.907 121.611 105.296 120.787C105.622 120.099 105.405 119.546 104.725 119.247C103.783 118.831 102.678 119.139 101.8 120.189C101.012 121.122 100.278 122.173 100.849 123.459C101.419 124.736 103.475 125.053 104.78 124.157ZM94.0916 124.338C94.626 122.925 94.5445 121.086 93.9738 120.153C93.2764 119.021 92.0173 118.903 91.1115 119.881C90.3235 120.742 90.1333 123.052 90.7583 124.293C90.7854 124.347 90.9394 124.347 91.2474 124.419C91.9358 123.206 91.4738 121.557 92.4521 120.371C93.4485 120.796 93.2401 121.657 93.2854 122.4C93.3216 123.097 93.1314 123.876 94.1006 124.347L94.0916 124.338ZM126.682 117.825C126.528 118.333 126.383 118.813 126.238 119.293C125.885 120.443 125.522 121.584 125.178 122.735C125.042 123.197 124.934 123.749 125.531 123.93C126.174 124.121 126.247 123.568 126.374 123.088C126.754 121.729 127.18 120.389 127.578 119.039C127.741 118.487 127.914 117.943 128.022 117.372C128.122 116.838 127.932 116.376 127.325 116.394C126.211 116.421 125.078 116.467 123.847 117.3C124.915 117.49 125.722 117.635 126.682 117.816V117.825ZM127.415 85.208C126.872 84.0395 126.156 84.275 125.586 84.275C121.655 84.2931 117.733 84.3384 113.801 84.3837C113.385 84.3837 112.977 84.4743 112.95 85.208C117.742 85.4073 122.452 85.2352 127.424 85.208H127.415ZM78.8563 117.291C76.9088 117.273 76.4197 118.061 75.9034 119.338C75.7041 119.836 75.9306 120.244 76.4559 120.443C77.4613 120.823 79.1189 120.352 79.6262 119.392C79.8617 118.948 79.9523 118.26 79.7711 117.825C79.6262 117.481 78.974 117.354 78.8472 117.291H78.8563ZM155.739 83.7769C156.745 84.5558 162.877 85.1174 165.54 84.8638C165.984 84.8185 166.464 84.8638 166.763 84.0486C163.004 83.9399 159.39 83.5142 155.739 83.7769ZM100.233 120.235C99.5263 118.976 98.6114 118.559 97.7238 119.139C96.4828 119.945 95.731 121.122 95.5861 122.617C95.5136 123.423 96.048 124.211 96.7727 124.474C97.5245 124.746 98.1766 124.61 98.6839 123.985C98.6295 123.813 98.6205 123.65 98.5571 123.631C98.3306 123.541 98.0951 123.45 97.8506 123.423C96.8089 123.296 96.5825 122.997 96.8633 122.037C97.3614 120.343 98.2944 119.818 99.952 120.289C99.9882 120.298 100.043 120.271 100.242 120.235H100.233ZM137.941 101.086C137.778 100.941 137.633 100.697 137.497 100.697C134.417 100.76 131.337 100.851 128.267 100.969C128.049 100.969 127.841 101.186 127.28 101.494C127.968 101.702 128.321 101.865 128.674 101.893C131.301 102.083 137.144 101.585 137.95 101.086H137.941ZM111.175 85.9507C109.798 84.5468 108.457 84.4924 106.827 85.371C106.22 85.6971 105.957 86.1138 106.048 86.7297C106.129 87.2822 106.854 87.6898 107.579 87.4453C108.738 87.0649 109.852 86.5123 111.175 85.9598V85.9507ZM111.628 125.633C112.407 125.081 112.642 124.573 112.307 123.903C111.474 122.227 111.193 120.443 111.22 118.586C111.22 118.097 111.428 117.517 110.658 117.128C110.269 117.4 109.834 117.708 109.273 118.097C109.68 118.233 109.916 118.305 110.097 118.369C110.242 119.583 110.251 120.814 110.568 121.956C110.894 123.124 110.758 124.447 111.618 125.642L111.628 125.633ZM80.0338 102.4C79.4994 101.612 79.0555 101.322 78.3309 101.376C76.8726 101.485 75.4143 101.512 73.956 101.594C73.648 101.612 73.34 101.739 72.9324 101.847C73.5665 102.753 74.4451 102.826 75.1425 102.826C76.7095 102.826 78.2766 102.572 80.0338 102.4ZM105.504 84.746C105.278 84.0667 104.689 84.2026 104.209 84.2207C102.343 84.3022 100.414 83.8946 98.548 84.9544C100.052 85.6609 104.363 85.4888 105.504 84.746ZM132.895 119.836C133.837 119.809 134.589 119.256 134.616 118.577C134.644 117.907 133.837 117.227 132.995 117.209C132.153 117.191 131.365 117.961 131.401 118.794C131.419 119.419 132.062 119.854 132.895 119.836ZM143.883 84.746C142.614 84.0395 138.031 84.1663 136.392 84.8547C136.899 85.4163 137.533 85.4254 138.104 85.3801C139.961 85.2442 141.881 85.5341 143.874 84.737L143.883 84.746ZM89.6623 118.785C89.5355 118.767 89.4086 118.749 89.2818 118.74C88.1496 120.751 87.8869 122.49 88.5844 123.659C88.7474 123.541 89.0192 123.45 89.0463 123.314C89.2728 121.811 89.463 120.298 89.6713 118.785H89.6623ZM55.2696 102.69C56.4924 103.405 58.304 103.233 59.6717 102.273C58.621 101.72 56.2297 101.947 55.2696 102.69ZM48.5487 86.304C47.8512 85.4435 46.9454 85.6518 46.1212 85.7786C45.2697 85.9145 44.3277 85.0902 43.3585 86.1228C45.1792 86.7478 46.8549 86.467 48.5487 86.304ZM62.5612 85.7152C63.8112 85.9689 64.9615 86.4308 66.3111 85.9326C65.6952 84.5649 64.4905 85.362 63.6753 85.0359C63.2586 84.8638 62.7152 84.7642 62.5702 85.7152H62.5612ZM67.4343 101.902C66.4017 101.585 65.3782 101.34 64.2369 101.893C65.3872 103.025 66.4198 102.237 67.4343 101.902ZM92.6061 84.9544C91.7093 84.3566 90.8036 84.4381 89.7166 84.8185C90.7492 86.0594 91.6822 85.2714 92.6061 84.9544ZM89.2275 115.86C89.1097 116.285 88.9195 116.702 88.9195 117.11C88.9195 117.291 89.3 117.617 89.5173 117.626C89.7347 117.635 90.1061 117.363 90.1514 117.155C90.2873 116.566 90.1514 116.041 89.2275 115.86ZM84.7167 84.7823C83.9015 84.429 83.1044 84.2931 82.1895 84.7189C83.1044 85.6699 83.9196 85.3439 84.7167 84.7823ZM151.455 101.331C150.585 100.724 149.689 100.833 148.421 101.159C149.625 101.82 150.54 101.648 151.455 101.331ZM94.7165 101.648C93.9557 101.114 93.1948 101.123 92.1622 101.557C93.1586 102.246 93.9376 102.019 94.7165 101.648Z" fill="#F6B625"/>
<path d="M115.975 92.237C113.258 94.9725 111.537 98.4778 108.765 101.494C111.012 101.712 112.986 101.34 114.907 101.875C113.801 102.708 112.524 102.762 111.265 102.744C109.427 102.717 107.597 102.608 105.758 102.536C104.191 102.472 102.624 102.409 101.057 102.327C100.341 102.291 99.7437 102.445 99.2545 103.034C98.8198 103.55 98.3035 104.021 97.7509 104.42C96.7636 105.135 95.722 104.809 95.4502 103.614C95.2238 102.608 95.097 101.512 95.251 100.516C95.5136 98.8673 96.0299 97.2641 96.4647 95.6427C96.6096 95.0993 96.827 94.5649 96.8451 93.9036C96.5734 94.1573 96.2383 94.3656 96.0299 94.6735C94.789 96.4851 93.5481 98.3057 92.3615 100.144C91.7637 101.068 91.3108 102.083 90.7311 103.016C90.4412 103.487 90.1152 104.103 89.4087 103.904C88.7474 103.713 88.6478 103.106 88.675 102.49C88.675 102.391 88.6387 102.291 88.6116 102.146H85.2964C85.9757 101.521 87.271 101.286 88.9829 101.422C89.8525 98.7768 90.7583 96.1137 91.6097 93.4236C93.059 88.8675 94.6713 84.3838 96.7908 80.0904C97.2346 79.2027 97.7691 78.3513 98.3397 77.5361C98.5933 77.1738 98.9919 76.8296 99.4085 76.6756C100.296 76.3314 101.039 76.9564 100.831 77.8894C100.695 78.4872 100.378 79.0578 100.07 79.6013C98.231 82.7987 96.7455 86.1411 95.577 89.6374C95.1423 90.9327 94.6169 92.1917 94.1369 93.4689C94.0191 93.7859 93.9195 94.121 93.8198 94.4471C93.9104 94.5015 94.001 94.5558 94.0916 94.6101C96.1115 92.2098 98.1223 89.8004 100.142 87.4001C100.441 87.0378 100.731 86.6574 101.075 86.3403C101.465 85.969 101.999 85.9146 102.334 86.3222C102.533 86.5758 102.606 87.1737 102.443 87.4363C100.215 90.8693 99.635 94.8638 98.5299 98.6681C98.3759 99.1844 98.394 99.755 98.5118 100.38C100.405 98.6771 101.8 96.621 103.158 94.5558C104.508 92.5087 105.414 90.1718 107.189 88.2878C107.561 88.4961 107.896 88.6954 108.312 88.9309C106.917 92.4 104.617 95.4344 103.919 99.3655C105.586 98.7315 106.048 97.1645 107.144 96.313C107.869 96.5304 107.841 96.9652 107.533 97.409C107.035 98.1427 106.492 98.8583 105.957 99.5648C105.586 100.063 105.187 100.543 104.671 101.195C105.613 101.331 106.401 101.449 107.162 101.567C108.385 100.389 108.167 98.7858 108.62 97.4271C108.983 96.3402 109.2 95.1989 109.599 94.1301C110.432 91.8656 111.347 89.6283 112.234 87.391C112.361 87.065 112.561 86.757 112.787 86.3222C113.358 86.5124 113.883 86.6845 114.526 86.8929C113.847 88.8946 113.204 90.7606 112.57 92.6265C114.272 90.2805 116.546 88.641 118.892 86.8929C119.698 88.1791 119.209 89.2932 118.983 90.3711C118.484 92.7805 117.905 95.1808 117.406 97.5902C117.243 98.3601 117.28 99.1572 117.153 99.9362C116.981 100.942 116.582 101.277 115.867 101.15C114.961 100.996 114.653 100.597 114.852 99.5648C115.214 97.6626 115.64 95.7695 116.039 93.8765C116.138 93.3783 116.229 92.8892 116.329 92.391C116.229 92.3366 116.12 92.2913 116.021 92.237H115.975ZM102.796 98.2423C101.601 98.9307 101.283 100.208 100.523 101.494C101.256 101.367 101.745 101.277 102.171 101.204C102.389 100.154 102.588 99.1844 102.778 98.2061L103.095 96.9471C102.995 96.938 102.896 96.929 102.796 96.9199V98.2333V98.2423Z" fill="black"/>
<path d="M157.841 100.661C157.234 100.969 156.636 101.277 156.029 101.576C154.118 102.509 151.899 101.503 151.808 99.2116C151.808 99.0123 151.745 98.8221 151.691 98.4779C151.256 98.7496 150.912 98.9398 150.577 99.1663C149.417 99.9815 148.303 100.86 147.107 101.621C144.607 103.215 141.011 102.88 138.819 100.878C137.524 99.6916 137.207 98.1699 137.705 96.5576C138.43 94.1935 139.526 92.0196 140.948 89.9544C142.823 87.219 145.368 85.2081 147.732 82.9889C148.665 82.1194 149.888 81.9382 151.066 81.7571C152.125 81.594 152.832 82.1556 153.176 83.2245C153.964 85.6701 153.131 87.8077 151.663 89.6827C150.939 90.6066 149.888 91.295 148.928 92.0196C148.575 92.2823 148.068 92.4091 147.615 92.4453C146.673 92.5178 146.165 92.0921 146.229 91.1772C146.337 89.6012 146.908 88.2153 148.303 87.3095C149.218 86.7208 149.616 86.8657 150.096 87.7624C149.49 88.7226 148.928 89.6102 148.375 90.4979C148.493 90.5704 148.611 90.6338 148.729 90.7062C150.341 89.3838 151.192 87.6356 151.283 85.5342C151.328 84.4744 150.341 83.786 149.363 84.1936C148.548 84.5288 147.76 84.9817 147.062 85.5161C144.961 87.1374 143.276 89.1483 141.89 91.3946C140.64 93.4145 140.305 95.7062 140.106 98.0159C140.006 99.13 140.812 99.7007 141.709 100.117C143.991 101.159 146.138 100.625 147.832 99.0485C149.879 97.1464 152.089 95.3529 153.457 92.7624C154.734 90.353 156.319 88.1157 158.656 86.5396C160.712 85.1628 162.931 85.4708 164.372 87.3367C164.888 88.007 165.142 88.7407 164.96 89.5378C164.643 90.9508 164.39 92.4091 163.81 93.7225C163.294 94.891 162.479 95.9779 161.618 96.9471C160.441 98.2695 159.082 99.438 157.805 100.679L157.832 100.652L157.841 100.661ZM155.93 98.3692C156.075 98.3873 156.229 98.4416 156.383 98.4235C158.665 98.034 161.917 94.737 162.306 92.4272C162.343 92.1827 162.316 91.92 162.261 91.6845C162.116 91.0323 161.899 90.3892 161.781 89.737C161.582 88.7135 161.111 88.4418 160.287 89.1121C157.968 90.9961 156.138 93.2424 155.368 96.2225C155.16 97.0467 155.268 97.7714 155.93 98.3782V98.3692Z" fill="black"/>
<path d="M121.953 101.576C121.392 101.947 120.821 102.318 120.26 102.699C118.756 103.713 117.624 103.143 117.497 101.313C117.352 99.2205 118.176 97.418 119.254 95.7061C121.202 92.5811 123.819 90.0902 126.682 87.8529C128.049 86.7841 129.471 85.8058 130.875 84.7914C131.763 84.1483 132.705 83.795 133.819 84.1845C134.689 84.4925 134.979 84.7823 134.788 85.6881C134.562 86.7569 134.336 87.8891 133.801 88.8131C132.787 90.5793 131.654 92.3003 130.368 93.8764C129.046 95.4977 128.04 97.2006 127.651 99.2839C127.107 102.191 125.975 104.909 124.807 107.608C124.2 109.012 123.385 110.298 122.216 111.322C120.441 112.88 118.086 112.735 116.745 110.833C115.359 108.858 114.598 106.63 114.662 104.184C114.671 103.831 114.87 103.269 115.124 103.17C115.676 102.943 115.957 103.46 116.129 103.912C116.582 105.09 116.99 106.277 117.434 107.454C117.579 107.844 117.723 108.251 117.941 108.604C118.675 109.773 119.626 110.045 120.694 109.229C121.51 108.604 122.234 107.816 122.832 106.974C124.381 104.782 124.879 102.164 125.64 99.6644C125.912 98.7767 126.12 97.8709 126.455 96.6119C124.761 98.4778 123.339 100.045 121.917 101.621L121.953 101.594V101.576ZM119.961 100.027C120.812 99.8817 121.522 99.5617 122.089 99.0665C124.798 96.7024 126.981 93.8945 128.919 90.8873C129.426 90.1083 130.033 89.4743 130.984 88.958C130.785 90.7243 129.58 91.8293 129.064 93.2605C130.087 91.9924 131.02 90.679 131.863 89.3022C132.424 88.3873 132.479 87.3638 131.98 86.1319C126.229 89.3022 121.79 93.3601 119.961 100.018V100.027Z" fill="black"/>
<path d="M57.6338 85.4074C57.1718 86.6664 56.7189 87.9074 56.266 89.1483C56.3657 89.2026 56.4653 89.2479 56.5649 89.3023C56.7823 89.0487 57.0722 88.8313 57.2171 88.5414C58.0051 86.8929 58.7841 85.2353 59.5178 83.5505C59.699 83.1339 59.7624 82.6357 59.7624 82.1738C59.7624 80.806 59.2008 80.4618 57.9961 81.114C56.0124 82.1828 54.4907 83.8223 53.1592 85.5614C51.1121 88.2244 49.3006 91.0686 48.4672 94.4019C48.114 95.8239 47.6792 97.246 48.114 98.7406C48.585 100.353 49.9618 101.313 51.4201 100.914C52.2625 100.688 53.1139 100.335 53.8385 99.8456C55.6229 98.6409 57.3439 97.3547 59.0649 96.0504C60.324 95.0993 61.4381 93.9852 62.1989 92.5631C62.3167 92.3367 62.4797 92.1193 62.6609 91.9291C62.9779 91.5849 63.4036 91.3856 63.7569 91.766C64.0014 92.0287 64.246 92.5269 64.1554 92.8167C63.9833 93.3421 63.6482 93.8674 63.2406 94.2569C61.0214 96.4218 58.8204 98.5956 56.5015 100.652C54.844 102.128 52.8693 103.125 50.6864 103.659C47.4799 104.447 45.0252 102.228 45.1792 98.9308C45.3785 94.7642 47.1538 91.2678 49.2643 87.844C50.5415 85.7788 51.9907 83.8495 53.8023 82.2372C54.8621 81.3042 55.9852 80.4346 57.1356 79.6194C57.5885 79.3024 58.1772 79.1122 58.7298 79.0035C60.487 78.6684 61.8185 79.7644 61.6373 81.5306C61.2841 84.9273 59.8529 87.8621 57.3892 90.2624C57.2081 90.4436 56.9816 90.5976 56.7461 90.7153C55.8675 91.1863 55.1972 90.8874 54.9708 89.9273C54.9074 89.6737 54.844 89.3838 54.9164 89.1483C55.2516 88.0523 55.5867 86.9472 56.0305 85.8875C56.2932 85.2806 56.8095 84.9002 57.6157 85.3983L57.6338 85.4074Z" fill="black"/>
<path d="M81.0303 88.6862C80.9216 90.2442 80.1427 92.092 79.2369 93.8492C77.8329 96.5756 75.7768 98.8401 73.5486 100.923C73.0957 101.349 72.5431 101.684 71.9906 101.983C70.487 102.789 69.1464 102.463 68.1863 101.05C67.199 99.5919 66.8548 97.9977 67.3439 96.2586C68.4762 92.1645 70.6682 88.6953 73.6844 85.7515C74.3819 85.0722 75.2786 84.5649 76.1391 84.0758C77.1717 83.487 78.0956 83.4508 79.1282 84.3656C80.6046 85.679 81.0937 86.3493 81.0485 88.6953L81.0303 88.6862ZM77.0992 90.1717C77.3528 89.8004 77.5793 89.5649 77.6789 89.2841C77.7967 88.9761 77.9416 88.5323 77.8057 88.3149C77.6608 88.0975 77.1717 87.9526 76.8818 88.0069C76.1391 88.1609 75.333 88.3149 74.6989 88.7044C72.0993 90.3257 71.2026 93.0068 70.5323 95.7876C70.4779 96.0322 70.5323 96.313 70.5685 96.5666C70.7316 97.6082 71.2479 98.0521 72.3076 97.8075C73.15 97.6082 74.0377 97.3093 74.708 96.793C76.592 95.3347 77.6065 93.3148 78.0956 91.0413C77.7605 90.7424 77.4887 90.5069 77.0992 90.1627V90.1717Z" fill="black"/>
<path d="M105.559 71.0868C106.618 70.7517 107.144 70.1901 107.551 69.393C108.095 68.3242 108.738 67.3007 109.39 66.2862C109.553 66.0326 109.979 65.6974 110.187 65.7518C110.74 65.8967 110.568 66.3949 110.459 66.8025C110.314 67.3459 110.151 67.8894 110.26 68.5688C110.957 67.3912 111.673 66.2137 112.361 65.0271C112.696 64.4384 112.968 63.8134 113.276 63.2065C113.539 62.6812 113.973 62.6178 114.472 62.817C114.988 63.0254 114.897 63.3967 114.807 63.8587C114.589 64.8641 114.463 65.8876 114.272 67.1014C114.988 67.1557 115.495 67.1557 115.984 67.2554C116.202 67.3007 116.555 67.5724 116.537 67.6811C116.492 67.9438 116.31 68.2789 116.084 68.3876C115.676 68.5778 115.196 68.6231 114.562 68.7771C114.644 69.5198 114.698 70.2354 114.798 70.9329C114.852 71.2952 115.051 71.6484 115.033 72.0017C115.015 72.3097 114.789 72.6086 114.662 72.9075C114.39 72.7263 113.964 72.5995 113.865 72.3459C113.62 71.7209 113.521 71.0325 113.367 70.3713C113.285 70.018 113.204 69.6648 113.122 69.3387C112.307 68.9582 111.827 69.239 111.392 69.9184C110.858 70.7517 110.178 71.4944 109.635 72.3278C109.2 72.989 108.539 73.2245 107.896 73.152C107.071 73.0524 107.524 72.201 107.289 71.6303C106.89 71.9111 106.555 72.2825 106.147 72.4183C105.686 72.5633 105.106 72.6448 104.662 72.4999C104.091 72.3006 104.091 71.6937 104.191 71.1412C104.3 70.5343 104.408 69.9365 104.58 68.9945C103.729 69.9365 103.131 70.6521 102.47 71.3133C101.99 71.7934 101.501 72.2915 100.921 72.6357C99.9791 73.2064 99.1005 72.6267 99.1639 71.5216C99.182 71.1684 99.2998 70.797 99.4356 70.4619C100.378 68.2427 101.338 66.0326 102.298 63.8224C102.542 63.2609 102.751 62.6359 103.548 62.5453C104.091 63.1975 103.666 63.75 103.439 64.2935C102.542 66.413 101.628 68.5325 100.722 70.6521C100.667 70.7879 100.649 70.9419 100.794 71.2771C101.129 70.951 101.51 70.6702 101.809 70.3079C103.693 67.9981 105.559 65.6702 107.425 63.3424C107.524 63.2246 107.588 63.0344 107.714 62.9801C107.932 62.8804 108.24 62.7536 108.412 62.8351C108.575 62.9167 108.747 63.288 108.693 63.4601C108.521 64.0036 108.231 64.5018 107.995 65.0271C107.234 66.7481 106.483 68.4691 105.74 70.1992C105.64 70.4256 105.64 70.6883 105.568 71.0959L105.559 71.0868Z" fill="black"/>
<path d="M81.5284 102.762C80.1606 100.987 80.6679 99.1571 81.3291 97.3637C82.1171 95.2532 83.0048 93.1789 83.8381 91.0866C83.9559 90.8058 84.0464 90.5069 84.1733 90.1355C83.1497 89.8638 82.9957 91.2043 82.1534 91.0866C81.4921 89.746 82.1534 88.1337 83.6207 88.1065C85.224 88.0794 85.9848 87.3185 86.5736 86.0504C86.7185 85.7424 87.0084 85.4979 87.2982 85.1537C88.4667 85.9598 87.2167 86.8113 87.5065 87.5812C88.8471 87.9435 90.3416 86.8837 91.6913 87.8258C90.9032 89.6464 89.5808 90.3801 87.887 90.0268C86.3562 89.7007 86.1388 89.746 85.4776 91.2315C84.6171 93.1427 83.8291 95.0811 83.0863 97.0466C82.7149 98.0249 82.6425 99.0665 83.0229 100.199C84.0012 99.9814 84.4631 99.293 84.9794 98.6589C86.1026 97.2731 87.2167 95.8872 88.3761 94.5286C88.6841 94.1662 89.1188 93.9126 89.5264 93.5865C90.0699 94.4018 89.8525 95.0177 89.5264 95.543C88.7837 96.7477 88.0047 97.9253 87.1805 99.0665C86.7547 99.6553 86.1479 100.117 85.704 100.697C84.6624 102.074 83.4033 102.961 81.5102 102.771L81.5284 102.762Z" fill="black"/>
<path d="M62.1897 105.036C61.4198 104.529 60.9578 104.221 60.4053 103.858C60.6408 103.179 60.8219 102.59 61.0574 102.019C63.3944 96.2949 65.7494 90.5794 68.0863 84.8549C68.5211 83.786 68.8291 82.6629 69.3182 81.6303C69.7167 80.7969 70.2512 79.9999 70.849 79.3024C71.0754 79.0397 71.791 78.9039 72.0718 79.0669C72.3798 79.2481 72.5247 79.8278 72.57 80.2535C72.6062 80.5886 72.4069 80.96 72.2711 81.3042C71.0935 84.1031 69.9794 86.9382 68.6932 89.6827C66.7186 93.9127 64.7712 98.1518 63.3581 102.617C63.1136 103.387 62.6516 104.085 62.1806 105.045L62.1897 105.036Z" fill="black"/>
<path d="M78.3398 73.143C79.6079 69.8279 81.3471 66.9837 83.0137 64.1124C83.2039 63.7953 83.5119 63.5417 83.9467 63.3243C84.2727 65.2084 83.222 66.9565 83.5934 68.9583C85.1966 67.1467 85.6133 64.7102 87.5879 62.9711C88.1495 64.366 87.8234 65.5526 87.8687 66.6938C87.914 67.8985 87.9502 69.1032 88.0136 70.3079C88.077 71.4945 88.1767 72.672 88.2672 73.8495L87.914 74.0216C87.6694 73.8405 87.289 73.6956 87.2165 73.4691C86.981 72.672 86.7727 71.8478 86.7093 71.0144C86.6278 69.9184 86.6912 68.8134 86.4285 67.6268C86.2292 67.8804 86.0028 68.1069 85.8488 68.3877C85.2238 69.4837 84.6532 70.6068 84.001 71.6757C83.6568 72.2373 83.1858 72.7264 82.6695 73.3876C81.184 71.8931 81.8452 70.2174 81.5916 68.6051C81.1568 69.6467 80.7311 70.6974 80.2782 71.7391C79.9703 72.4546 79.6804 73.2155 78.3398 73.134V73.143Z" fill="black"/>
<path d="M92.4701 73.0162C90.5136 73.0343 89.2546 71.1412 89.9339 69.1394C90.4774 67.5181 91.3922 66.1594 92.8415 65.163C94.2907 64.1757 95.8759 63.5236 97.5878 63.2247C98.6204 63.0435 98.9918 63.442 98.9193 64.4656C98.9012 64.7645 98.8831 65.1087 99.0008 65.3623C99.4809 66.3496 99.2635 67.3007 98.9465 68.2518C98.1403 70.6612 94.961 72.989 92.4701 73.0162ZM93.1585 72.0017C95.5226 71.105 97.4882 69.8731 98.1494 67.2554C98.5027 65.8696 97.7237 65.0362 96.3469 65.4438C93.9828 66.1503 92.0716 67.4094 91.6459 70.1811C91.9176 70.3894 92.2527 70.5706 92.4792 70.8423C92.7328 71.1503 92.8958 71.5488 93.1585 72.0108V72.0017Z" fill="black"/>
<path d="M117.778 72.3549C118.05 69.4202 120.223 67.4637 120.812 64.8188H118.512C118.231 65.1539 117.914 65.5253 117.56 65.9329C116.954 64.6557 116.999 64.1213 117.977 63.6956C118.72 63.3695 119.571 63.2337 120.396 63.1612C121.347 63.0706 122.352 63.2155 122.597 61.4764C123.24 62.7989 124.028 62.9619 124.924 62.8261C125.024 62.8079 125.133 62.8261 125.241 62.8261C125.912 62.8623 126.881 62.6449 127.062 63.3514C127.225 63.9945 126.827 64.8278 126.528 65.5162C126.274 66.0959 125.459 66.2046 124.734 65.8876C123.964 65.5525 124.444 65.0271 124.562 64.5652C123.185 64.5018 123.203 64.5108 122.669 65.6159C121.772 67.4546 120.848 69.2662 119.952 71.1049C119.571 71.893 118.955 72.2462 117.796 72.3549H117.778Z" fill="black"/>
<path d="M129.408 66.3133C130.26 67.2101 130.921 67.8079 131.464 68.5053C132.433 69.7463 132.153 70.8785 130.731 71.5669C129.544 72.1375 128.321 72.3368 127.144 71.5669C125.885 70.7426 125.731 69.4564 126.772 68.3785C127.207 67.9256 127.723 67.5633 127.986 67.3369C128.294 66.2771 128.448 65.3985 128.801 64.6105C129.019 64.1213 129.472 63.6594 129.943 63.3877C131.22 62.6358 132.85 63.0797 133.33 64.221C133.819 65.3894 133.131 66.6122 131.582 67.2191C131.084 66.6757 131.247 66.1594 131.79 65.8061C132.334 65.4528 132.551 65.0181 132.171 64.5199C131.754 63.9674 131.057 63.9764 130.64 64.4112C130.133 64.9365 129.816 65.6612 129.417 66.3133H129.408ZM127.116 69.6195C128.566 71.1683 129.662 71.0868 130.767 69.5017C130.269 68.9854 129.752 68.4419 129.136 67.7988C128.33 68.5235 127.76 69.0397 127.116 69.6195Z" fill="black"/>
<path d="M115.505 124.41C114.354 123.278 115.622 122.11 115.169 121.077C115.106 121.032 115.024 120.941 114.943 120.914C113.928 120.624 113.059 120.199 113.086 118.949C113.104 117.943 114.363 116.222 115.314 116.195C116.021 116.177 116.809 116.539 117.434 116.929C117.977 117.264 117.932 117.961 117.642 118.496C116.8 120.081 116.437 121.802 116.13 123.541C116.075 123.831 115.749 124.075 115.505 124.41ZM115.794 116.838C115.224 117.409 114.762 117.753 114.454 118.197C113.774 119.184 114.091 119.646 115.541 119.746C115.812 118.93 116.41 118.151 115.794 116.838Z" fill="black"/>
<path d="M167.632 99.0032C167.315 101.884 164.77 103.016 162.895 103.106C162.506 103.124 161.953 102.835 161.745 102.509C161.6 102.291 161.781 101.63 162.035 101.404C163.122 100.416 164.064 99.1572 165.821 99.3111C166.392 99.3564 166.998 99.1209 167.632 99.0032Z" fill="black"/>
<path d="M87.6513 118.432C87.1441 118.124 86.8633 117.898 86.5372 117.78C85.9122 117.545 85.1695 117.816 84.8977 118.342C84.6079 118.894 85.0155 119.211 85.3325 119.555C85.8307 120.09 86.4013 120.57 86.8361 121.15C87.8234 122.472 87.4249 123.559 85.7945 123.903C85.0879 124.057 84.3361 124.048 83.6115 124.012C82.6151 123.958 82.1351 123.514 82.2257 122.889C82.3162 122.246 82.7963 122.046 84.001 122.182C83.9285 122.327 83.8561 122.436 83.7927 122.563C83.7293 122.68 83.6749 122.807 83.5209 123.115C84.5354 122.988 85.3868 122.889 86.4919 122.744C86.1658 122.146 86.039 121.756 85.7854 121.467C85.3506 120.95 84.8524 120.479 84.3542 120.008C83.7564 119.438 83.5662 118.786 83.8923 118.025C84.1912 117.3 85.251 116.657 86.0571 116.702C86.972 116.747 87.4883 117.237 87.6513 118.441V118.432Z" fill="black"/>
<path d="M118.792 120.362C119.037 119.619 119.263 118.641 119.662 117.753C120.242 116.467 121.157 116.458 122.035 117.581C122.588 118.278 123.294 118.885 123.113 119.891C122.914 121.023 122.316 121.92 121.401 122.608C120.296 123.441 119.436 123.16 119.055 121.838C118.937 121.439 118.901 121.023 118.792 120.371V120.362ZM120.233 121.956C121.492 121.213 122.144 120.226 121.881 119.383C121.664 118.677 121.175 118.287 120.387 118.459C119.87 119.655 119.571 120.778 120.233 121.956Z" fill="black"/>
<path d="M104.78 124.157C103.476 125.054 101.419 124.737 100.849 123.459C100.278 122.173 101.003 121.122 101.8 120.19C102.678 119.148 103.784 118.831 104.726 119.247C105.405 119.546 105.622 120.099 105.296 120.787C104.907 121.612 104.245 122.083 103.331 122.137C102.878 122.164 102.416 122.137 101.954 122.137C101.981 123.233 102.207 123.459 103.285 123.641C103.811 123.731 104.481 123.414 104.78 124.157ZM102.506 121.358C103.322 121.177 103.956 121.159 104.218 120.289C103.367 120.144 102.923 120.488 102.506 121.358Z" fill="black"/>
<path d="M94.0915 124.338C93.1223 123.867 93.3216 123.097 93.2763 122.391C93.231 121.648 93.4393 120.787 92.4429 120.362C91.4647 121.548 91.9266 123.197 91.2382 124.41C90.9393 124.338 90.7854 124.347 90.7491 124.284C90.1241 123.043 90.3144 120.733 91.1024 119.872C92.0082 118.894 93.2672 119.012 93.9647 120.144C94.5353 121.077 94.6168 122.916 94.0824 124.329L94.0915 124.338Z" fill="black"/>
<path d="M126.682 117.825C125.722 117.653 124.916 117.508 123.847 117.309C125.079 116.476 126.211 116.431 127.325 116.403C127.932 116.385 128.122 116.856 128.022 117.382C127.914 117.943 127.742 118.496 127.579 119.048C127.18 120.398 126.754 121.738 126.374 123.097C126.238 123.568 126.175 124.121 125.531 123.939C124.934 123.767 125.042 123.206 125.178 122.744C125.513 121.593 125.885 120.443 126.238 119.302C126.383 118.822 126.528 118.342 126.682 117.834V117.825Z" fill="black"/>
<path d="M127.415 85.208C122.452 85.2352 117.733 85.4073 112.941 85.208C112.968 84.4653 113.376 84.3837 113.792 84.3837C117.723 84.3385 121.646 84.2932 125.577 84.2751C126.156 84.2751 126.863 84.0395 127.406 85.208H127.415Z" fill="black"/>
<path d="M78.8563 117.291C78.9831 117.354 79.6443 117.481 79.7802 117.825C79.9614 118.26 79.8708 118.949 79.6353 119.392C79.128 120.353 77.4704 120.833 76.465 120.443C75.9397 120.244 75.7132 119.836 75.9125 119.338C76.4197 118.061 76.9179 117.273 78.8654 117.291H78.8563Z" fill="black"/>
<path d="M155.739 83.7769C159.39 83.5052 163.004 83.9399 166.763 84.0486C166.464 84.8638 165.984 84.8186 165.54 84.8638C162.877 85.1265 156.745 84.5559 155.739 83.7769Z" fill="black"/>
<path d="M100.233 120.235C100.033 120.271 99.979 120.298 99.9428 120.289C98.2942 119.809 97.3613 120.343 96.8541 122.037C96.5733 122.997 96.7997 123.296 97.8414 123.423C98.0859 123.45 98.3214 123.532 98.5479 123.631C98.6113 123.659 98.6203 123.813 98.6747 123.985C98.1765 124.61 97.5153 124.746 96.7635 124.474C96.0388 124.211 95.5044 123.414 95.5769 122.617C95.7218 121.122 96.4736 119.945 97.7145 119.139C98.6022 118.559 99.5171 118.985 100.224 120.235H100.233Z" fill="black"/>
<path d="M137.941 101.087C137.134 101.585 131.292 102.083 128.665 101.893C128.312 101.865 127.959 101.693 127.271 101.494C127.841 101.186 128.049 100.978 128.258 100.969C131.337 100.86 134.417 100.769 137.488 100.697C137.624 100.697 137.778 100.942 137.932 101.087H137.941Z" fill="black"/>
<path d="M111.174 85.9509C109.852 86.5125 108.738 87.0559 107.578 87.4364C106.845 87.6809 106.12 87.2733 106.048 86.7208C105.957 86.1049 106.22 85.6882 106.827 85.3621C108.457 84.4926 109.798 84.5469 111.174 85.9418V85.9509Z" fill="black"/>
<path d="M111.628 125.633C110.767 124.438 110.903 123.115 110.577 121.947C110.26 120.805 110.251 119.574 110.106 118.36C109.925 118.296 109.689 118.224 109.282 118.088C109.834 117.699 110.278 117.391 110.668 117.119C111.438 117.508 111.229 118.097 111.229 118.577C111.202 120.434 111.483 122.218 112.316 123.894C112.651 124.574 112.416 125.081 111.637 125.624L111.628 125.633Z" fill="black"/>
<path d="M80.034 102.4C78.2768 102.572 76.7097 102.817 75.1427 102.826C74.4453 102.826 73.5667 102.753 72.9326 101.847C73.3493 101.739 73.6482 101.612 73.9562 101.594C75.4145 101.512 76.8818 101.485 78.3311 101.376C79.0467 101.322 79.4905 101.612 80.034 102.4Z" fill="black"/>
<path d="M105.504 84.7461C104.363 85.4889 100.061 85.661 98.5479 84.9545C100.405 83.8947 102.343 84.3023 104.209 84.2208C104.689 84.2026 105.278 84.0668 105.504 84.7461Z" fill="black"/>
<path d="M132.896 119.836C132.053 119.854 131.419 119.42 131.401 118.795C131.374 117.97 132.153 117.191 132.995 117.209C133.838 117.228 134.644 117.907 134.617 118.577C134.589 119.256 133.829 119.809 132.896 119.836Z" fill="black"/>
<path d="M143.883 84.7461C141.89 85.5432 139.97 85.2533 138.113 85.3892C137.542 85.4345 136.899 85.4164 136.401 84.8639C138.04 84.1755 142.624 84.0487 143.892 84.7552L143.883 84.7461Z" fill="black"/>
<path d="M89.6623 118.786C89.463 120.298 89.2728 121.811 89.0373 123.314C89.0192 123.45 88.7384 123.541 88.5754 123.659C87.8779 122.481 88.1406 120.751 89.2728 118.74C89.3996 118.758 89.5264 118.776 89.6532 118.786H89.6623Z" fill="black"/>
<path d="M55.2695 102.69C56.2206 101.947 58.6119 101.711 59.6716 102.273C58.3039 103.233 56.5014 103.405 55.2695 102.69Z" fill="black"/>
<path d="M48.5485 86.3041C46.8638 86.4672 45.179 86.748 43.3584 86.123C44.3185 85.0904 45.2605 85.9146 46.121 85.7788C46.9453 85.652 47.8511 85.4436 48.5485 86.3041Z" fill="black"/>
<path d="M62.5613 85.7153C62.7062 84.7642 63.2497 84.8639 63.6664 85.036C64.4906 85.3711 65.6863 84.565 66.3022 85.9327C64.9526 86.4218 63.8022 85.9689 62.5522 85.7153H62.5613Z" fill="black"/>
<path d="M157.813 100.688C159.082 100.452 160.368 100.009 161.772 101.132C160.395 101.558 159.272 101.458 158.149 101.159C158.013 101.123 157.94 100.833 157.841 100.661L157.813 100.697V100.688Z" fill="black"/>
<path d="M67.4342 101.902C66.4198 102.237 65.3872 103.016 64.2368 101.893C65.3781 101.34 66.4016 101.594 67.4342 101.902Z" fill="black"/>
<path d="M92.6062 84.9545C91.6823 85.2715 90.7494 86.0595 89.7168 84.8186C90.7947 84.4382 91.7095 84.3567 92.6062 84.9545Z" fill="black"/>
<path d="M121.917 101.612C122.76 101.539 123.593 101.476 124.635 101.385C123.919 102.282 122.452 102.509 121.872 102.001C121.818 101.956 121.926 101.73 121.953 101.585L121.917 101.612Z" fill="black"/>
<path d="M89.2274 115.86C90.1513 116.032 90.2872 116.566 90.1513 117.155C90.106 117.363 89.7256 117.635 89.5173 117.626C89.2999 117.617 88.9194 117.3 88.9194 117.11C88.9194 116.693 89.1097 116.277 89.2274 115.86Z" fill="black"/>
<path d="M84.7166 84.7824C83.9195 85.344 83.1043 85.67 82.1895 84.719C83.1043 84.2932 83.9014 84.4291 84.7166 84.7824Z" fill="black"/>
<path d="M151.455 101.331C150.531 101.648 149.625 101.82 148.42 101.159C149.689 100.833 150.585 100.715 151.455 101.331Z" fill="black"/>
<path d="M94.7164 101.648C93.9374 102.019 93.1585 102.246 92.1621 101.557C93.1947 101.123 93.9556 101.114 94.7164 101.648Z" fill="black"/>
<path d="M102.787 98.2151C102.588 99.1843 102.389 100.153 102.18 101.204C101.764 101.277 101.265 101.367 100.532 101.494C101.293 100.208 101.61 98.9307 102.805 98.2423L102.787 98.2151Z" fill="#F6B625"/>
<path d="M102.796 98.2423V96.929C102.896 96.938 102.996 96.9471 103.095 96.9561C102.987 97.3728 102.878 97.7894 102.778 98.2152L102.796 98.2514V98.2423Z" fill="#F6B625"/>
<path d="M155.93 98.3692C155.268 97.7623 155.16 97.0376 155.368 96.2134C156.129 93.2333 157.968 90.987 160.286 89.103C161.111 88.4327 161.582 88.7044 161.781 89.728C161.908 90.3892 162.116 91.0232 162.261 91.6754C162.315 91.92 162.343 92.1826 162.306 92.4181C161.926 94.7279 158.665 98.025 156.382 98.4144C156.238 98.4416 156.075 98.3782 155.93 98.3601V98.3692Z" fill="#F6B625"/>
<path d="M119.961 100.027C121.791 93.3692 126.229 89.3022 131.981 86.141C132.47 87.3729 132.415 88.3873 131.863 89.3112C131.03 90.688 130.088 91.9924 129.064 93.2695C129.58 91.8384 130.785 90.7333 130.984 88.967C130.033 89.4833 129.417 90.1174 128.919 90.8964C126.981 93.9036 124.798 96.7115 122.09 99.0756C121.522 99.5708 120.812 99.8908 119.961 100.036V100.027Z" fill="#F6B625"/>
<path d="M77.0992 90.1718C77.4887 90.516 77.7604 90.7515 78.0956 91.0504C77.6065 93.324 76.601 95.3439 74.7079 96.8022C74.0377 97.3185 73.1409 97.6264 72.3076 97.8166C71.2478 98.0612 70.7315 97.6174 70.5685 96.5757C70.5323 96.3221 70.4779 96.0413 70.5323 95.7967C71.2026 93.016 72.0993 90.3349 74.6989 88.7135C75.3329 88.315 76.13 88.17 76.8818 88.0161C77.1717 87.9526 77.6699 88.0976 77.8057 88.324C77.9416 88.5324 77.7967 88.9852 77.6789 89.2932C77.5793 89.574 77.3528 89.8095 77.0992 90.1809V90.1718Z" fill="#F6B625"/>
<path d="M93.1587 72.0017C92.896 71.5307 92.7329 71.1412 92.4793 70.8332C92.2619 70.5615 91.9268 70.3894 91.646 70.172C92.0717 67.4003 93.9829 66.1413 96.347 65.4347C97.7148 65.0271 98.4937 65.8605 98.1495 67.2463C97.4883 69.864 95.5228 71.0959 93.1587 71.9926V72.0017Z" fill="#F6B625"/>
<path d="M127.117 69.6195C127.76 69.0398 128.33 68.5235 129.137 67.7988C129.753 68.4419 130.278 68.9854 130.767 69.5017C129.662 71.0868 128.566 71.1683 127.117 69.6195Z" fill="#F6B625"/>
<path d="M115.794 116.838C116.41 118.152 115.812 118.93 115.54 119.746C114.091 119.646 113.774 119.184 114.454 118.197C114.761 117.744 115.223 117.409 115.794 116.838Z" fill="#F6B625"/>
<path d="M120.233 121.956C119.571 120.778 119.861 119.655 120.387 118.459C121.184 118.287 121.664 118.677 121.881 119.383C122.144 120.226 121.483 121.213 120.233 121.956Z" fill="#F6B625"/>
<path d="M102.506 121.358C102.923 120.488 103.367 120.144 104.218 120.289C103.956 121.159 103.322 121.168 102.506 121.358Z" fill="#F6B625"/>
</svg>
