<?xml version="1.0" encoding="UTF-8"?>
<svg id="Layer_1" xmlns="http://www.w3.org/2000/svg" viewBox="0 0 400 400">
  <defs>
    <style>
      .cls-1 {
        fill: #010101;
      }

      .cls-2 {
        fill: #f58328;
      }

      .cls-3, .cls-4 {
        fill-rule: evenodd;
      }

      .cls-5 {
        font-family: AmericanTypewriter-CondensedBold, 'American Typewriter';
        font-size: 44px;
        font-weight: 700;
      }

      .cls-5, .cls-6 {
        fill: #fff;
      }

      .cls-4 {
        fill: #1bb24b;
      }

      .cls-7 {
        letter-spacing: -.03em;
      }
    </style>
  </defs>
  <g>
    <g>
      <polygon class="cls-4" points="61.32 157.98 8.96 234.63 11.57 237.93 111.46 234.46 75.58 168.55 64.9 156.08 61.32 157.98"/>
      <path class="cls-3" d="M93.39,195.34c3.51.51,2.58,5.9,6.25,6.23.1,3.85,2.07,5.65,4.51,6.9-.28,4.06,2.02,5.29,4.46,6.32.28,1-.4,1.13-1.12,1.25.83.81,2.79,1.35,1.33,2.9.46-.34.95-.66,1.75-.68.27,1.19-.03,1.86-1.1,1.84,1.18,1.5,4.6,4.74,2.67,5.81.6,1.01,1.93,1.21,3.61,1.01.33,4.86,3,7.12,2.99,12.34-.57-.33-2.24-1.28-1.74.68-1.07-1.12-4.14-.02-4.28-2.17-1.31,2.35-4.07-1.55-7.05,1.54-1.8.3-1.33-1.87-1.94-2.88-1.7.59.85,1.45.15,2.96-.46-.38-2-2.41-1.77.09-8.28-.58-20.59-.62-27.92.19-.03-.59-.07-1.18-.09-1.77-2.68,1.57-5.81,1.88-8.31.4-1.61,2.32-12.63,2.38-16.01.8-6.52,3.76-21.02.22-24.17,4.16-5.11-2.87-13.92.38-20.31-1.96-.61-1.87.39-2.28,1.04-3.03-2.39-.09-1-.46-1.38-4.09,2.76-.89,3.9-3.25,3.84-6.72,2.74.42,1.19-3.06,4.02-2.59-.51-1.8-.47-1.11-.15-2.96,4.03.46,1.59-4.98,5.09-5-.41-.58-1.39-.55-1.27-1.73,2.38.66,1.11-2,3.5-1.36-.05-.99-.1-1.98-.15-2.96.51-.48,1.31-.7,2.34-.7,3.48-8.95,9.99-15.13,13.69-23.86,2.05-.03,2.69-1.33,2.19-3.67,1.74.07,1.75-1.44,3.51-1.37,1.44-7.95,9.01-10.35,10.39-18.35,6.51-1.46,4.95-10.24,11.3-11.85-.41-.58-1.39-.55-1.28-1.72,1.96-.12,2.9-1.16,5.32-.86,2.66,1.88-.7,3.07,3.1,2.82-2.45,2.68.76,10.53,3.43,9.33.89.15.16,4.49,3.17,4.01-.32,1.83.73,2.13.78,3.52,7.64,6.37,9.1,19.57,16.74,25.92.26,1-.41,1.15-1.13,1.25ZM58.73,167.93c-1.87.83-.53-1.9-2.43-1.07-.9.3-.4,1.9-2.29,1.31-.73,3.12-1.47,6.22-4.4,7.36-.71,3.27,1.67,3.15,2.61,4.62-4.12,3.02-4.14,12.69-11.43,9.47.67,1.77,2.84,1.86,3.17,4.01-1.56.81-2.72,1.12-3.5,1.36,2.53,2.06-.66,1.55-1.64,3.06-2.53,3.93-3.9,10.12-8.35,11.11-.16,2.87-1.21,4.96-3.9,5.53,1.5,3.08-.87.43-1.71,1.87,3.82.72-2.44,2.61.22,4.16-4.22.89-3.19,6.54-6.12,8.62-.38-1.02.55-3.52-.76-3.53,0,.93.19,2.05-1.1,1.84-.63,1.95,1.94.36,1.31,2.31-2.46.6-2.01,3.85-3.29,5.52,6.18-1.37,16.23-1.47,23.13-1.15.1-.46-.04-1.17.53-1.21,23.01,2.1,41.35-1.48,69.44-2.24-1.29-6.24-6.79-9.22-8.95-12.64-.72-5.27-5.7-5.8-5.92-11.59-2.66.4-2.28-2.11-1.96-3.46-2.36.06-4.5-3.78-2.6-4.63-1.85,1.01-1.99-.34-3.62-1.01-4.28-12.94-14.51-22.09-19.43-32.32.02.6-1.01.79-1.19.05.72-.09,1.39-.24,1.13-1.25-1.65.58-1.58-.76-3-.44-2.87,4-4.15,9.45-8.94,11.73,1.25,2.04-.44,2.89-1.57,4.25-.71-2.35-.14-4.62.87-6.59.98-.03.4,1.63,1.27,1.73.13-2.55,2.17-7.4,3.91-4.95-.06-.82.21-1.31.49-1.8Z"/>
    </g>
    <text class="cls-5" transform="translate(37.02 224.39)"><tspan class="cls-7" x="0" y="0">1</tspan><tspan x="20.55" y="0">3</tspan></text>
  </g>
  <g>
    <path class="cls-1" d="M376.7,245.52c-4.94,0-4.94-.53-9.88-.53s-4.94.27-9.88.27-4.94.09-9.88.09-4.94-.2-9.87-.2-4.94.18-9.88.18-4.94-.3-9.88-.3-4.94.1-9.88.1-4.94.08-9.88.08-4.94-.19-9.88-.19-4.94.21-9.88.21-4.94.27-9.88.27-4.94-.05-9.88-.05-4.94,0-9.88,0-4.94.04-9.88.04-4.94.17-9.88.17-4.94-.72-9.88-.72-4.94.61-9.88.61-4.94-.32-9.88-.32-4.94.38-9.88.38-4.94-.21-9.88-.21-4.94.11-9.88.11-4.94.16-9.89.16-4.94,0-9.88,0-4.95-.37-9.89-.37-4.95-.32-9.89-.32c-4.57,0-7.94-3.38-7.94-7.96,0-5.16-.13-5.16-.13-10.32s-.05-5.16-.05-10.32-.19-5.16-.19-10.32.31-5.16.31-10.32.08-5.16.08-10.32-.73-5.16-.73-10.33.42-5.16.42-10.32-.32-5.16-.32-10.33.03-5.16.03-10.33c0-4.57,3.93-8.39,8.51-8.39,4.94,0,4.94.48,9.88.48s4.94-.46,9.88-.46,4.94.36,9.88.36,4.94-.16,9.87-.16,4.94-.44,9.88-.44,4.94.34,9.88.34,4.94.1,9.88.1,4.94-.2,9.88-.2,4.94.03,9.88.03,4.94-.28,9.88-.28,4.94.03,9.88.03,4.94.27,9.88.27,4.94-.34,9.88-.34,4.94.32,9.88.32,4.94-.06,9.88-.06,4.94-.27,9.88-.27,4.94.17,9.88.17,4.94.36,9.88.36,4.94-.09,9.88-.09,4.94-.32,9.88-.32,4.94-.1,9.88-.1,4.94.49,9.89.49,4.94-.3,9.88-.3,4.95-.18,9.89-.18,4.95.08,9.89.08c4.57,0,7.96,3.98,7.96,8.55,0,5.16.05,5.16.05,10.32,0,5.16.2,5.16.2,10.32s.44,5.16.44,10.32c0,5.16-.51,5.16-.51,10.32s-.01,5.16-.01,10.32-.18,5.16-.18,10.33.67,5.16.67,10.32-.33,5.16-.33,10.33-.35,5.16-.35,10.33c0,4.57-3.38,8.52-7.95,8.52Z"/>
    <path class="cls-6" d="M285.26,188.87c-3.13.04-3.29.16-4.36-3.26-1.09-3.48-2.28-6.93-3.29-10.44-.76-2.65-1.27-5.38-1.93-8.06-.39-1.61-.85-3.2-1.3-4.79-.06-.2-.24-.36-.37-.54-.22.24-.49.44-.65.72-.16.28-.26.61-.32.94-.69,3.95-2.09,7.67-3.65,11.34-1.44,3.37-2.5,6.86-3.1,10.48-.07.43-.25.85-.38,1.27-.3.97-1.05,1.46-1.97,1.55-1.1.11-2.22.14-3.32.05-1.68-.13-2.92-.94-3.38-2.67-.66-2.45-1.37-4.9-1.98-7.36-1.73-6.97-3.43-13.95-5.14-20.93-.81-3.33-1.63-6.65-2.43-9.98-.24-.99.08-1.38,1.13-1.53.76-.11,1.53-.23,2.28-.36,1.72-.31,2.5.04,3.09,1.67.57,1.56,1.16,3.14,1.45,4.76.82,4.5,2.34,8.75,4.12,12.93.56,1.31.86,2.73,1.31,4.1.21.63.47,1.23.72,1.84.04.09.16.15.24.23.06-.08.15-.15.18-.24.28-.95.62-1.9.81-2.87.51-2.62,1.36-5.13,2.2-7.65.91-2.72,1.65-5.51,2.51-8.25.62-2.01,1.25-4.01,1.98-5.98.56-1.51,1.4-1.84,3.14-1.63,4.66.57,4.86,1.62,5.73,5.15,1.16,4.72,2.44,9.41,3.74,14.1.68,2.44,1.51,4.84,2.28,7.26.03.08.17.2.22.18.18-.07.36-.17.52-.29.08-.06.13-.19.14-.29.45-4.24,2.05-8.15,3.52-12.08,1.09-2.91,1.95-5.87,2.59-8.9.77-3.61,1.33-4.35,5.19-3.14.63.2,1.31.24,1.92.48.38.15.7.51.58,1.05-.96,4.43-1.94,8.85-2.83,13.29-.57,2.82-.97,5.67-1.49,8.49-.2,1.08-.41,2.18-.81,3.2-1.47,3.72-2.41,7.58-3.2,11.49-.13.65-.3,1.29-.5,1.92-.6,1.96-1.33,2.6-3.22,2.75-.66.05-1.33,0-2,0Z"/>
    <path class="cls-6" d="M136.39,180.81c.33-6.54.57-11.97.89-17.38.16-2.65-.15-5.26-.02-7.92.12-2.42-.09-4.08.07-7.25.02-.31-.08-.65-.09-.98-.01-.62.58-1.32,1.19-1.42.22-.03.46-.11.66-.04,3.8-.12,4.16.03,6.24,0,2.99-.05,5.99-.11,8.98.02,1.98.09,3.97.38,5.9.84,3.7.87,6.13,3.42,7.94,6.6.31.55.42,1.27.45,1.92.07,1.44.04,2.88.04,4.32,0,1.19-.51,2.14-1.41,2.89-.77.64-1.54,1.26-2.31,1.9-.52.44-.45.97.22,1.25,3.26,1.36,4.9,3.8,5.54,7.28.5,2.7.57,5.27-.28,7.85-1.18,3.59-3.61,5.76-7.39,6.29-.87.12-1.77.13-2.66.13-2,.02-3.99,0-5.99.01-2.1.01-4.19.14-6.28.33-3.53.31-7.09.18-10.64.23-.64,0-1.05-.39-1.06-1-.01-2.33,0-4.66,0-5.87ZM145.74,175.42c0,1.54,0,3.09,0,4.64,0,.7.46,1.21,1.18,1.38.21.05.43.12.65.13,3.77.13,7.46-.31,11.16-1.12,2.71-.59,4.11-3.76,3.61-6.23-.15-.74-.48-1.44-1.16-1.95-1.53-1.13-3.15-2.11-5.05-2.38-1.52-.22-3.09-.27-4.63-.23-1.75.04-3.52-.34-5.24.25-.94,1.77-.26,3.68-.52,5.52ZM145.65,156.83h.01c0,1.11-.02,2.22,0,3.32.03,1.1.32,1.41,1.35,1.47,1.22.07,2.5-.1,3.64.23,1.9.54,3.72.25,5.57-.02,1.77-.25,2.85-1.29,2.98-3.01.1-1.43.02-2.87-.03-4.31-.02-.72-.46-1.23-1.12-1.51-.51-.22-1.02-.43-1.54-.61-3.02-1-6.13-.73-9.22-.57-1.22.06-1.71.69-1.65,2.01.04,1,0,1.99,0,2.99Z"/>
    <path class="cls-6" d="M249.02,167.14c0,.82.01,1.71,0,2.59-.08,5.61-2.38,10.29-6.22,14.22-2.03,2.08-4.63,3.42-7.39,4.31-2.31.74-4.68,1.31-7.05,1.84-.84.19-1.8.2-2.64.01-2.69-.6-5.43-1.06-7.68-2.89-.94-.76-2.07-1.28-3.04-2-3.49-2.62-4.99-6.4-5.89-10.47-.52-2.37-.86-4.78-1.2-7.19-.35-2.46.33-4.83.83-7.21.16-.75.49-1.47.68-2.22,1.13-4.41,3.91-7.59,7.5-10.2,2.5-1.82,5.3-2.7,8.32-2.93,3.32-.25,6.65-.2,9.88.68,3.34.91,6.52,2.17,8.73,5.06.54.7,1.04,1.43,1.49,2.18.46.76.81,1.58,1.25,2.34,2.1,3.67,3.06,7.57,2.43,11.86ZM230.31,151.69c-2.59,0-4.57.38-6.61,1.61-3.22,1.94-5.54,4.64-6.64,8.35-.68,2.29-.52,4.59-.64,6.9-.1,2.06.4,3.95,1.33,5.73.71,1.37,1.51,2.7,2.36,3.99.74,1.12,1.74,2.01,2.97,2.59,3.48,1.66,4.86,1.67,8.53.15.41-.17.81-.36,1.21-.54,3.51-1.56,5.41-4.33,6.31-7.99.66-2.71.73-5.47,1.03-8.2.32-2.91-.37-5.68-2.06-8.19-.91-1.35-2.29-2.04-3.48-3.02-1.35-1.11-2.84-1.67-4.32-1.39Z"/>
    <path class="cls-6" d="M301.06,173.77c0-2.77-.22-5.56.05-8.3.58-5.96.17-11.95.58-17.91.06-.89.38-1.23,1.15-1.31,1.31-.14,2.63-.32,3.94-.42,1.31-.1,2.39.32,3.02,1.58,2.52,5.06,5.73,9.72,8.59,14.58.39.67.72,1.41,1.25,1.95,2.1,2.15,3.8,4.61,5.59,7,.13.17.31.34.5.41.13.05.47-.06.48-.12.1-.76.17-1.52.21-2.28.14-3.09.3-6.18.39-9.27.09-2.99.03-5.98.16-8.97.07-1.53.36-3.07.66-4.58.26-1.31,1.04-1.78,2.44-1.62.99.11,1.97.28,2.95.39.77.09,1.17.49,1.28,1.26.14.98.46,1.95.49,2.92.07,2.77.26,5.57-.05,8.3-.29,2.54-.31,5.08-.36,7.61-.07,3.54,0,7.09-.01,10.63-.02,3.66-.05,7.31-.12,10.97-.02,1.12-.54,1.71-1.58,1.77-1.55.09-3.1.13-4.64.05-1.49-.08-2.79-.77-3.73-1.95-3.18-3.98-6.19-8.08-8.58-12.6-.36-.68-.65-1.41-1.05-2.07-1.83-3.02-3.84-5.94-4.99-9.32-.06-.19-.28-.32-.42-.48-.09.17-.22.33-.26.51-.05.21-.05.44-.05.66,0,.55-.03,1.11,0,1.66.17,4-.45,7.93-1.04,11.87-.26,1.74-.27,3.53-.29,5.3-.02,1.34-.21,2.64-.55,3.93-.2.75-.69,1.09-1.33,1.33-.21.08-.41.17-.63.21-2.49.46-3.82-.49-4.06-3.05-.14-1.54-.07-3.1-.08-4.65,0-1.99,0-3.99,0-5.98.03,0,.06,0,.09,0Z"/>
    <path class="cls-6" d="M181.24,179.98c0,2.44.01,4.87,0,7.31,0,.6-.46,1.1-1.02,1.1-1.66,0-3.32.01-4.97-.08-.85-.05-1.36-.69-1.34-1.6.05-1.76.18-3.53.27-5.29.05-.88.13-1.76.14-2.65.02-8.31.03-16.62,0-24.93,0-1.1-.18-2.19-.27-3.29-.04-.44-.08-.88-.1-1.32-.12-3.39.15-3.61,3.48-4.33,1.54-.33,3.05-.43,4.6-.43,2.66,0,5.32-.06,7.98.02,2.65.08,5.3.34,7.79,1.34,3.05,1.22,4.92,3.67,6.44,6.43.2.37.24.85.28,1.29.24,2.8,0,5.53-1.43,8.04-.77,1.35-1.52,2.7-2.25,4.06-.35.66-.21,1.01.46,1.28,3.32,1.37,4.06,2.58,3.62,6.04-.21,1.64-.38,3.3-.73,4.92-.54,2.55.03,4.78,1.47,6.9,1.26,1.86,1.03,2.18-1.14,2.94-1.57.55-3.04.44-4.53-.1-1.64-.6-2.87-1.62-3.27-3.43-.44-2.05-.98-4.07-.92-6.21.06-2.1-.08-4.21-.21-6.3-.05-.85-.71-1.41-1.54-1.48-2.97-.22-5.95-.42-8.93-.58-.77-.04-1.55.05-2.32.1-.63.04-1.03.43-1.18,1-.2.74-.42,1.5-.44,2.26-.06,2.32-.02,4.65-.02,6.98h.08ZM181.69,157.71h.02c0,1.77-.02,3.54,0,5.31.01.91.29,1.26,1.14,1.27,2.21.02,4.44.16,6.62-.13,1.94-.26,3.88-.77,5.57-1.96,2.58-1.83,3.23-4.6,2.52-7.31-.23-.88-.84-1.53-1.73-1.9-1.04-.43-2.1-.62-3.22-.65-2.42-.06-4.84-.24-7.26-.45-3.9-.34-3.67-.92-3.66,3.16,0,.89,0,1.77,0,2.66Z"/>
    <path class="cls-6" d="M344.37,173.14c.55,0,1.11-.03,1.66,0,1.09.07,1.59.38,1.79,1.58.38,2.25,1.39,4.18,2.67,6.01.38.54.81,1.05,1.24,1.56,1.02,1.21,2.31,1.64,3.86,1.38,2.85-.47,5.18-1.85,7.07-4.02.71-.81.95-1.78.7-2.8-.31-1.28-.69-2.52-1.67-3.55-1.56-1.63-3.2-3.03-5.44-3.62-1.6-.42-3.19-.9-4.76-1.42-1.67-.56-3.38-1.08-4.97-1.82-3.64-1.7-5.52-4.56-5.55-8.66-.02-2.37.43-4.61,1.24-6.8.68-1.85,1.9-3.21,3.67-4.1,2.19-1.11,4.52-1.81,6.9-2.33,1.52-.33,3.08-.02,4.6.35,1.72.42,3.48.68,5.15,1.24,3.86,1.29,6.43,3.78,7.03,8,.14.98.45,1.94.59,2.92.21,1.52-.27,2.07-1.75,2.1-.44,0-.89,0-1.33-.03-.78-.05-1.49.03-2.26.28-1.56.51-2.32-.04-2.58-1.56-.17-.98-.34-1.96-.56-2.92-.41-1.79-1.56-2.87-3.31-3.36-.43-.12-.83-.32-1.26-.42-1.42-.34-2.94-.58-4.25,0-1.57.69-2.39,2.28-3.14,3.76-.27.54-.31,1.33-.15,1.93.47,1.77,1.36,3.38,3.21,3.98,2.93.96,5.65,2.53,8.76,3.01,1.08.16,2.07.83,3.15,1.01,3.98.65,6.63,5.65,6.91,9.53.44,5.9-4.36,11.99-9.11,13.82-2.61,1-5.29,1.53-8.03,1.85-.95.11-1.98-.14-2.94-.37-4.9-1.15-8.73-3.69-10.76-8.49-.9-2.12-.87-4.32-.35-6.51.19-.81.82-1.35,1.65-1.44.76-.09,1.55-.02,2.32-.02,0-.02,0-.03,0-.05Z"/>
    <path class="cls-2" d="M168.27,219.61c-.33,0-.67,0-1,0-4.04.13-6.99-1.75-9.17-5.01-1.25-1.86-2.19-3.81-2.33-6.13-.09-1.53-.57-3.02-.51-4.6.12-3.32,1.19-6.3,3.14-8.93,1.97-2.66,4.7-3.9,8.01-4.02,3.06-.12,5.92.71,8.75,1.66,1.52.51,2.58,1.67,3.39,3.04.92,1.54,1.4,3.25,1.82,4.96,1.05,4.26.35,8.38-1.36,12.29-1.27,2.9-3.31,5.24-6.48,6.31-.31.11-.62.3-.94.31-1.1.04-2.21.02-3.32.02,0,.03,0,.07,0,.1ZM168.45,214.89c.53,0,1.31.07,2.08-.02.53-.06,1.15-.22,1.52-.56.89-.81,1.89-1.63,2.45-2.66,2.02-3.68,2.52-7.47.42-11.38-1.23-2.3-2.91-3.73-5.58-4.18-1.78-.3-3.26.11-4.76.86-1.36.68-2.22,1.81-2.75,3.2-1.07,2.78-1.01,5.64-.4,8.49.23,1.07.6,2.15,1.13,3.1,1.22,2.15,2.9,3.67,5.89,3.15Z"/>
    <path class="cls-2" d="M254.96,205.09c0-3.44,0-6.88,0-10.32,0-.55,0-1.11.04-1.66.05-.59.7-1.25,1.31-1.34.44-.06.88-.07,1.33-.08,2.77-.07,2.84.76,2.77,2.93-.06,1.88-.05,3.77-.03,5.66,0,.89.33,1.22,1.16,1.25.78.03,1.55,0,2.33.02,1.89.03,3.77.07,5.66.12,1.36.03,1.35,0,1.58-1.5.36-2.3.55-4.61.61-6.94.02-.91.54-1.43,1.43-1.54.55-.07,1.11-.09,1.66-.09.72,0,1.29.48,1.32,1.21.07,1.99.11,3.99.13,5.99.02,2.88.04,5.76.61,8.61.13.65.1,1.33.16,1.99.17,1.76.07,3.52.57,5.27.4,1.42,0,2.46-1.76,3-4.29,1.32-4.06.73-4.77-3.15-.22-1.19-.08-2.44-.18-3.65-.08-.99-.26-1.97-.45-2.95-.12-.6-.64-.96-1.24-.82-1.65.39-3.27.35-4.93.01-1.07-.21-2.21-.1-3.32-.11-.66,0-1.08.36-1.09.96,0,1.55-.12,3.08.22,4.63.26,1.17.24,2.42.26,3.64.02,1.33-.46,1.89-1.68,2-.77.07-1.55.08-2.33.07-.78-.01-1.25-.45-1.25-1.23-.02-3.99,0-7.99,0-11.98h-.1Z"/>
    <path class="cls-2" d="M290.89,219c-.89,0-1.77.02-2.66,0-2.63-.05-4.57-1.29-6.19-3.33-2.04-2.55-2.74-5.51-3.02-8.61-.16-1.76-.05-3.54,0-5.31.05-1.93.64-3.71,1.82-5.25.87-1.14,1.78-2.26,2.73-3.33,1.53-1.72,3.51-2.18,5.72-1.94,1.32.15,2.63.32,3.95.38,5.65.25,9.98,4.53,10.38,10.12.28,3.94-.47,7.7-1.51,11.44-.57,2.05-2,3.39-3.88,4.3-2.95,1.43-3.39,1.53-7.36,1.52ZM282.84,206.33c-.12,1.32.78,3.57,2.19,5.59,1.57,2.25,3.78,3.36,6.57,3.02,2.38-.29,3.99-1.73,5.24-3.67,1.49-2.32,1.63-4.99,2.01-7.6.05-.32-.04-.66-.11-.98-.58-2.71-1.83-4.85-4.38-6.28-1.81-1.01-3.62-1.34-5.34-.46-3.67,1.87-5.97,4.82-6.17,10.38Z"/>
    <path class="cls-2" d="M352.14,205.25c.05-1.37.2-3.47.17-5.57-.03-1.98-.23-3.97-.42-5.95-.1-1.09.17-1.72,1.28-1.84,1.42-.16,2.9-.3,4.28-.05,1.66.3,3.29.37,4.95.38,1.99.02,3.99-.07,5.91.63.8.29,1.94-.36,2.41.57.31.61-.61,1.39-.24,2.21.08.18.06.43.03.64-.08.71-.59,1.22-1.33,1.22-2.21,0-4.42.18-6.61-.31-.74-.17-1.54-.17-2.31-.14-3.34.15-3.75.62-3.54,3.98.05.87.36,1.25,1.19,1.25,3.21,0,6.42-.01,9.63-.03.85,0,1.15.26,1.25,1.15.06.55.12,1.1.14,1.65.05,1.07-.39,1.63-1.5,1.78-.77.11-1.54.12-2.32.19-2.42.21-4.84.41-7.27.63-.63.06-1.01.43-1.02,1.06-.02,1.11-.02,2.22.03,3.32.06,1.32.28,1.57,1.56,1.6,2.21.06,4.43.04,6.64.06.89,0,1.79-.11,2.65.05,3.33.61,3.35.53,3.2,3.71-.05,1.09-.24,1.34-1.31,1.57-.86.19-1.74.36-2.61.35-2.43-.01-4.85.16-7.28-.33-1.28-.26-2.65-.08-3.98-.11-.66-.02-1.33-.02-1.99-.11-.79-.1-1.39-.73-1.48-1.56-.09-.77-.12-1.55-.12-2.32-.01-2.99,0-5.98,0-9.7Z"/>
    <path class="cls-2" d="M341.25,191.46c.26.02.95-.03,1.58.13.85.21,1.8.39,2.46.91,2.18,1.71,3.56,3.92,3.53,6.81-.01,1.04-.69,1.59-1.75,1.46-1.03-.13-1.93-.41-2.32-1.55-.17-.51-.53-.97-.82-1.44-.48-.81-1.19-1.3-2.13-1.43-.55-.08-1.13-.08-1.64-.26-1.68-.6-3.03.09-4.32,1.01-.56.4-.86.98-.94,1.69-.11.98.31,1.87,1.2,2.12,1.06.3,2.15.52,3.24.73,2.07.4,4.1.9,5.99,1.88,1.99,1.03,3.41,2.41,3.64,4.77.11,1.2.42,2.39.51,3.6.17,2.2-.71,3.92-2.71,4.9-1.88.93-3.75,2-5.75,2.56-5.89,1.65-9.6-1.48-11.21-6.1-.31-.9-.2-1.97-.15-2.95.03-.69.87-1.38,1.63-1.44.71-.06,1.33.17,1.67.83.36.69.65,1.4,1,2.1,1.52,3.07,5.25,4.19,8.21,2.49,1.47-.84,2.08-2.66,1.57-4.27-.48-1.51-1.37-2.45-2.93-2.83-2.48-.61-4.81-1.61-7.12-2.71-1.64-.79-2.46-1.94-2.92-3.72-.76-2.9.21-4.95,2.43-6.66,2.79-2.16,4.07-2.61,8.04-2.61Z"/>
    <path class="cls-2" d="M145.26,190.98c.22,0,.44,0,.67,0,3.05,0,5.34,1.3,6.75,4.01.45.88.82,1.82,1.08,2.77.4,1.5-.29,2.41-1.78,2.5-.44.03-.89.01-1.33-.02-.59-.04-1.06-.3-1.31-.86-.23-.5-.49-1-.65-1.53-.41-1.37-1.4-2.22-2.52-2.97-1.37-.93-3.47-.68-4.92.56-1.31,1.13-1.7,2.97-.84,4.52.24.44.73.81,1.2,1.03.59.28,1.27.37,1.91.54,1.71.44,3.41.91,5.13,1.31,1.57.37,2.77,1.3,3.96,2.33,1.35,1.17,2.02,2.53,1.86,4.38-.15,1.75.16,3.55-.82,5.18-.58.96-1.18,1.86-2.24,2.37-1.2.58-2.36,1.21-3.54,1.84-2.88,1.54-5.67.86-8.2-.66-2.73-1.64-4.55-4.18-5.59-7.21-.1-.29.19-.92.48-1.09.75-.45,1.58-.78,2.41-1.09,1.7-.63,1.71-.62,2.27,1.36.76,2.71,2.78,4.17,5.23,5.16.38.16.89.13,1.31.06,1.57-.28,3.84-2.52,4.08-4.03.14-.89.03-1.76-.54-2.53-.88-1.2-2.01-2.07-3.44-2.48-1.17-.33-2.37-.52-3.54-.85-1.17-.33-2.36-.64-3.45-1.16-3-1.43-3.98-3.85-3.24-7.11.93-4.12,3.98-5.71,7.3-6.22.76-.12,1.55-.02,2.32-.02,0-.02,0-.05,0-.07Z"/>
    <path class="cls-2" d="M327.59,201.38c.19,3.19-.2,6.94-.69,10.67-.35,2.66-1.65,4.69-3.99,6.19-3.8,2.44-10.12,1.51-13.18-.93-.81-.64-1.44-1.4-1.77-2.36-.84-2.41-1.61-4.84-1.63-7.42-.04-4.55-.03-9.1,0-13.65,0-1.26.18-1.45,1.47-1.78.64-.16,1.29-.3,1.95-.39.71-.09,1.34.44,1.34,1.13,0,2.11,0,4.22-.04,6.32-.07,3.77.16,7.53.57,11.27.08.75.3,1.53.61,2.22.76,1.67,2.26,2.37,4.07,2,.43-.09.85-.28,1.29-.31,2.68-.13,4.06-1.87,4.51-4.17.87-4.35,1.38-8.75.52-13.2-.23-1.18-.2-2.42-.19-3.64,0-1.05.76-1.67,1.73-1.51.65.1,1.3.26,1.95.42,1.07.28,1.47.74,1.49,1.88.03,2.22,0,4.44,0,7.24Z"/>
    <path class="cls-2" d="M224.4,191.78c-.09,0,.36-.04.79.05.89.2,1.69.59,2.07,1.49.39.91.75,1.83,1.07,2.77.79,2.29,1.54,4.6,2.32,6.89.6,1.77,1.19,3.55,1.83,5.31.75,2.07,1.59,4.11,2.29,6.2.37,1.11,1.04,2.43-.08,3.38-.97.82-2.09-.03-3.12-.34-.92-.28-1.46-.95-1.73-1.86-.31-1.05-.55-2.14-.95-3.16-.39-1-1.21-1.57-2.33-1.55-.77.01-1.54.07-2.31.15-.98.09-1.96.24-2.94.33-1.16.1-1.31.18-1.63,1.24-.44,1.48-.84,2.97-1.24,4.46-.2.76-.7,1.08-1.44,1.1-.99.03-1.98.05-2.98.04-.45,0-.85-.51-.73-.9.26-.84.57-1.67.83-2.52.84-2.74,1.6-5.5,2.5-8.22,1.46-4.39,2.98-8.77,4.52-13.13.59-1.66.88-1.8,3.24-1.74ZM222.45,204.71c-.15,1.16.12,1.51.95,1.65.75.12,1.5.24,2.25.36.42.07.88-.41.72-.79-.62-1.5-1.27-3-1.92-4.5-.12-.28-.29-.54-.43-.81-.28.31-.7.58-.8.94-.34,1.14-.57,2.32-.77,3.15Z"/>
    <path class="cls-2" d="M194.33,191.7c.55,0,1.11-.02,1.66,0,3.21.11,5.42,1.71,6.69,4.6.44,1,.73,2.08.95,3.15.17.82-.61,1.45-1.46,1.36-1.31-.15-2.29-.74-2.89-1.94-.72-1.47-1.87-2.48-3.46-2.87-.84-.21-1.77-.36-2.61-.22-3.52.62-6.4,3.69-6.82,7.25-.27,2.33-.14,4.62.65,6.88.57,1.63,1.46,2.95,2.74,4.07,2.7,2.35,6.12,1.62,7.61-1.68.41-.9.7-1.86,1.04-2.79.55-1.49.73-1.6,2.44-1.44.33.03.66.07.99.1,2.66.24,2.9.58,2.15,3-.3.96-.65,1.87-1.35,2.63-.6.65-1.14,1.35-1.69,2.05-2.08,2.64-4.84,3.74-8.15,3.7-1.01-.01-1.97-.06-2.89-.57-1.16-.64-2.37-1.21-3.56-1.79-2.44-1.18-3.52-3.31-3.91-5.81-.29-1.85-.36-3.75-.47-5.61-.13-2.17.17-4.45.76-6.54.77-2.74,2.65-4.83,5.09-6.34.55-.34,1.21-.56,1.85-.67,1.52-.27,3.06-.43,4.6-.64,0,.04,0,.08.01.12Z"/>
    <path class="cls-2" d="M237.63,198.79c0-1.66-.01-3.31,0-4.97.01-1.19.27-1.55,1.49-1.78.85-.17,1.74-.21,2.62-.21.7,0,1.21.58,1.22,1.32.01.99.14,2.03-.09,2.97-.66,2.73-.53,5.49-.57,8.24-.03,2.21-.02,4.42,0,6.63.01,1.09.3,1.35,1.35,1.41,2.64.16,5.28.33,7.92.5.33.02.66.06.98.15.58.17.98.59,1.03,1.17.07.88.05,1.77.02,2.65-.03.71-.54,1.23-1.28,1.27-1.99.08-3.98.22-5.96.15-2.11-.07-4.18-.12-6.26.33-.61.13-1.31,0-1.93-.13-.57-.12-.98-.54-.99-1.17-.04-1.55,0-3.1-.08-4.64-.19-3.66.5-7.26.6-10.9.03-.99,0-1.99,0-2.98h-.06Z"/>
    <path class="cls-2" d="M211.04,205.02c0,3.32,0,6.64,0,9.96,0,.66.02,1.34-.07,1.99-.08.58-.53.95-1.08,1.15-.2.07-.43.1-.65.11-2.37.06-2.76.22-2.72-2.38.05-3.21-.16-6.43.05-9.63.3-4.41.42-8.83.47-13.25.01-.84.22-.94,1.27-.8.44.06.88.08,1.32.14,1.12.15,1.39.4,1.4,1.42.03,1.99.01,3.99.01,5.98,0,1.77,0,3.54,0,5.31Z"/>
    <path class="cls-6" d="M262.67,226.76c2.03.01,3.19.94,3.57,2.69.19.85.32,1.72.41,2.59.06.62-.12,1.3.05,1.87.18.61.71,1.11.98,1.7.11.23.01.68-.16.88-.18.21-.58.32-.87.31-.31,0-.65-.16-.91-.34-.57-.4-1.1-.56-1.83-.39-1.44.33-2.86,0-4.21-.54-1.33-.53-2.1-1.63-1.93-2.77.2-1.36,1.08-2.15,2.36-2.45,1.18-.28,2.38-.46,3.56-.71.19-.04.35-.22.52-.33-.18-.27-.31-.68-.55-.77-.5-.17-1.09-.29-1.6-.19-.63.11-1.23.45-1.83.71-.3.13-.57.36-.87.45-.16.05-.52-.08-.56-.19-.08-.27-.13-.65,0-.86.49-.8,1.36-1.12,2.19-1.39.62-.2,1.3-.21,1.68-.26ZM261.75,234.38c.89,0,1.22.02,1.55,0,.72-.04,1.19-.52,1.21-1.28.03-1.87-.4-2.25-2.12-1.67-.52.17-1.09.17-1.62.32-.3.09-.58.3-.85.49-.52.38-.44,1.48.15,1.69.71.25,1.46.4,1.66.45Z"/>
    <path class="cls-6" d="M246.56,224.7c.11-.27.16-.5.29-.66.13-.16.34-.25.53-.34.04-.02.19.11.23.2.41,1,.8,2,1.2,3,.98.06,1.99,0,2.94.21,1.41.3,2.7.93,3.8,1.89.87.76,1.1,2,.46,3-.65,1.01-1.38,1.99-2.18,2.89-.67.77-1.65,1.07-2.64,1.23-.64.1-1.31.11-1.95.21-1.2.19-1.66-.05-1.57-1.23.21-2.78-.52-5.47-.71-8.2-.05-.76-.27-1.5-.4-2.2ZM249.66,231.93c.02.26.03,1.03.17,1.78.04.23.47.57.7.56.63-.03,1.34-.1,1.86-.4.54-.32.94-.91,1.35-1.43,1.57-1.99,1.1-2.3-.99-3.31-.2-.09-.41-.18-.62-.21-1.97-.28-2.55-.16-2.47,1.84,0,.22,0,.44,0,1.17Z"/>
    <path class="cls-6" d="M175.83,226.92c.33.02.66.03.99.07.76.1,1.47.75,1.56,1.5.16,1.3-.01,2.64.57,3.87.04.08-.02.22-.08.31-.58.94-.36,1.64.58,2.21.19.12.24.57.23.87,0,.29-.79.56-1.13.41-.3-.13-.64-.23-.86-.45-.6-.59-1.17-.94-2.02-.4-.35.22-.84.24-1.27.3-1.84.26-3.1-1.11-3.71-2.68-.07-.19-.06-.44-.02-.65.28-1.54,1.71-2.72,3.29-2.66.65.03,1.3.18,1.95.3.61.11,1.12-.11.97-.43-.17-.37-.44-.73-.77-.96-.23-.16-.65-.17-.95-.11-1.18.25-2.35.55-3.53.83-.54.13-1.13-.11-1-.4.16-.37.39-.85.71-.98,1.43-.59,2.89-1.1,4.48-.98ZM174.79,231.4c-.57,0-.79-.02-1.01,0-.57.05-1.07.22-1.25.83-.17.59.11,1.04.53,1.43.43.4.97.65,1.48.38.65-.34,1.23-.84,1.79-1.33.31-.27.09-.95-.31-1.05-.52-.13-1.05-.23-1.23-.27Z"/>
    <path class="cls-6" d="M148.16,226.33c1.53-.27,2.23.86,2.87,2.08.92,1.73.26,2.99-1.73,3.16-1.32.11-2.65.03-3.97.11-.24.01-.62.32-.65.54-.04.27.14.67.36.85.32.27.74.49,1.15.55,1.23.18,2.4-.04,3.51-.66.66-.37,1.35-.79,2.18-.57.1.03.22.09.27.17.04.06.01.19-.01.28-.03.1-.07.22-.14.29-1.27,1.32-2.87,2.05-4.65,2.29-2.04.28-3.39-.55-4.22-2.41-.22-.5-.42-1.03-.51-1.56-.31-1.68.17-3.05,1.7-3.97,1.15-.69,2.3-1.32,3.85-1.15ZM146.82,230.19c.59-.05,1.35-.06,2.09-.2.25-.05.58-.39.62-.64.04-.25-.21-.57-.39-.81-.12-.16-.34-.3-.54-.34-1.48-.3-2.79.02-3.87,1.13-.06.06-.1.22-.06.29.09.16.22.39.37.42.53.09,1.07.1,1.78.15Z"/>
    <path class="cls-6" d="M200.32,232.62c.01-1.66.76-2.6,2.46-3.03.86-.21,1.73-.36,2.58-.57.75-.18.98-.45.67-.77-.29-.3-.64-.63-1.02-.71-.77-.16-1.53-.02-2.15.56-.31.29-.67.53-1.02.76-.06.04-.24,0-.3-.06-.13-.16-.24-.35-.32-.54-.04-.09-.02-.23.03-.32.77-1.47,2.61-2.44,4.11-2.17,1.29.23,2.19,1.13,2.4,2.41.04.22.1.44.07.66-.23,1.94.29,3.71,1.12,5.43.13.27.07.64.07.96,0,.35-.76.89-.96.67-1.04-1.12-2.11-.67-3.29-.27-.59.2-1.32.09-1.96,0-1.57-.24-2.5-1.4-2.49-3.01ZM205.78,232.2c.04-1.06-.35-1.5-1.28-1.3-.73.15-1.45.39-2.12.7-.67.31-.76,1.41-.24,1.96.66.69,1.72.89,2.68.49.83-.35.99-1.06.96-1.84Z"/>
    <path class="cls-6" d="M367.26,235.68c-1.13-.05-1.69-.03-2.23-.11-1.37-.19-2.17-1.08-2.27-2.43-.02-.22,0-.44-.01-.67-.11-1.51.21-2.84,1.43-3.88,1.42-1.21,3.01-1.85,4.89-1.61.92.12,1.69.57,2.24,1.3.64.84.55,2.36-.77,2.69-.85.21-1.72.41-2.59.5-.88.09-1.77,0-2.66.03-.69.02-1.07.39-1.08.97,0,.75.39,1.41.99,1.55.98.24,1.96.23,2.94-.07.74-.22,1.5-.38,2.26-.47.28-.03.59.23.89.35-.15.28-.23.7-.46.81-1.3.64-2.65,1.14-3.57,1.03ZM366.33,229.38c.09.06.18.17.28.18.87.03,1.74.07,2.62.06.2,0,.4-.16.61-.24-.19-.21-.35-.48-.58-.62-.99-.6-1.9-.29-2.74.35-.08.06-.12.18-.18.27Z"/>
    <path class="cls-6" d="M336.93,226.85c.43.03.76.04,1.09.09.72.09,1.25.52,1.48,1.17.29.82.6,1.69.64,2.55.06,1.34.18,2.62.82,3.83.09.18.09.44.05.65-.04.2-.13.44-.28.57-.13.11-.45.17-.55.08-1.02-.85-2.04-.99-3.34-.52-.99.36-2.16.32-3.25.32-1.06,0-1.79-.61-1.98-1.43-.3-1.3,0-2.39.91-2.95.84-.53,1.73-.97,2.76-1,.77-.02,1.55,0,2.31-.09.23-.03.52-.37.6-.63.14-.47-.14-.91-.57-1.04-.86-.27-1.72-.12-2.58.19-.49.18-1.04.18-1.57.24-.08,0-.21-.11-.25-.2-.04-.08,0-.21.04-.3.36-.76,1.07-1.1,1.82-1.29.63-.16,1.31-.16,1.87-.22ZM334.49,234.28c.92-.24,1.99-.49,3.03-.81.24-.08.54-.42.56-.66.01-.27-.2-.67-.43-.81-1.32-.79-3.37-.41-4.53.78-.23.24-.05,1.05.26,1.16.3.1.62.19,1.11.34Z"/>
    <path class="cls-6" d="M297.45,235.53c-.33-.02-.66-.02-.99-.07-.65-.08-1.3-.62-1.37-1.25-.07-.65-.03-1.32.02-1.97.01-.17.24-.37.42-.45.39-.19.62.12.75.41.13.29.12.65.22.96.2.58.66.95,1.26.84.86-.16,1.7-.42,2.52-.74.61-.23.66-1.26.1-1.66-.35-.25-.75-.51-1.15-.57-.87-.11-1.77-.02-2.64-.16-.51-.08-1.04-.37-1.44-.71-.52-.45-.72-1.07-.49-1.79.32-1,.86-1.74,1.86-2.18,2.55-1.11,5.01-.39,6.24,1.93.07.13-.03.44-.15.57-.12.14-.43.28-.55.21-.38-.21-.71-.5-1.06-.77-1.29-1.02-2.67-.78-4.07-.29-.1.03-.21.13-.24.22-.1.29-.23.59-.22.89,0,.15.26.41.43.43.87.1,1.76.12,2.63.19,1.53.13,2.66,1.24,2.82,2.75.09.83-.16,1.51-.87,2.02-1.21.87-2.54,1.31-4.04,1.21Z"/>
    <path class="cls-6" d="M309.31,226.96c1.45-.11,2.73.37,3.69,1.59.68.86.88,1.87.28,2.75-.86,1.25-1.82,2.48-2.93,3.51-1.34,1.24-3.15,1.06-4.42-.24-1.3-1.34-1.98-2.89-1.34-4.78.71-2.1,2.55-3.05,4.72-2.84ZM308.55,228.34c-.39.15-.7.25-.99.39-1.12.57-1.5,1.52-1.43,2.73.07,1.24.76,2.03,1.81,2.53.24.11.72.06.9-.11.88-.82,1.76-1.66,2.5-2.59.83-1.04.4-2.04-.95-2.46-.62-.19-1.26-.34-1.84-.5Z"/>
    <path class="cls-6" d="M211.57,231.01c.08-1.14.13-2.13.22-3.12.04-.46.27-.91.77-.89.21,0,.38.44.6.66.11.11.39.25.43.21.32-.3.56-.68.89-.97.49-.43,1-.86,1.56-1.19.56-.33,1.41-.14,1.81.37.75.95,1.47,1.93,2.19,2.91.13.17.25.39.27.6.24,1.86.34,3.72-.04,5.57-.03.14-.37.36-.47.32-.26-.11-.66-.33-.68-.54-.1-.99-.03-1.99-.13-2.97-.08-.75-.19-1.54-.5-2.22-.4-.9-.98-1.98-1.94-2.1-1.16-.14-1.49,1.16-1.94,1.99-.46.86-.7,1.85-1.04,2.77-.19.51-.36,1.03-.61,1.52-.07.14-.37.24-.55.22-.18-.02-.46-.2-.48-.35-.16-.97-.27-1.95-.38-2.79Z"/>
    <path class="cls-6" d="M356.51,234.91c-1.11,0-2.22.02-3.33,0-.79-.02-1.15-.77-.62-1.42.98-1.2,2.04-2.33,3.08-3.48.3-.33.63-.63.9-.98.1-.13.06-.37.04-.56,0-.06-.19-.12-.29-.13-1.11-.05-2.22-.06-3.32-.16-.25-.02-.51-.32-.71-.54-.15-.16.23-.7.51-.7,1.99-.01,3.99-.04,5.98,0,.66.01,1.1,1,.69,1.53-.47.61-1.01,1.17-1.55,1.72-.78.79-1.59,1.54-2.37,2.33-.14.14-.24.41-.22.61.01.11.29.27.46.28,1,.07,1.99.09,2.99.14.44.02.9-.02,1.32.1.26.07.59.37.62.6.03.19-.31.59-.54.63-.65.11-1.32.1-1.99.12-.55.01-1.11,0-1.66,0,0-.03,0-.07,0-.1Z"/>
    <path class="cls-6" d="M190.28,232.44s.06.67.07,1.33c.02,1.02-.38,1.29-1.42.78-.55-.27-1.02-.38-1.55-.12-1.35.66-2.66.46-3.75-.43-1.14-.93-1.91-2.17-1.82-3.75.05-.98.11-1.97.22-2.95.01-.13.31-.31.48-.32.16,0,.45.17.47.3.12.64.14,1.3.25,1.95.13.76.22,1.53.48,2.25.41,1.12,1.2,1.59,2.3,1.52,1.04-.06,1.86-.69,2.15-1.78.17-.63.17-1.31.27-1.97.07-.43.14-.86.28-1.27.06-.15.33-.3.52-.31.19-.01.5.08.58.22.21.38.38.8.45,1.22.07.43,0,.88,0,1.33,0,.44,0,.89,0,1.99Z"/>
    <path class="cls-6" d="M223.13,229.81c-.02.35,0,.02.02-.31.05-.53.32-1.22.09-1.55-.23-.33-.98-.27-1.49-.43-.16-.05-.35-.27-.36-.42,0-.19.13-.51.27-.55,1.37-.39,2.23-1.26,2.68-2.6.04-.11.38-.2.55-.16.18.05.41.24.45.42.07.3.06.65,0,.96-.11.53.07.86.57,1,.32.09.66.09.97.18.71.19,1.31.78,1.08.93-.43.28-.94.55-1.44.6-1.36.14-1.4.09-1.55,1.03-.25,1.5-.79,2.99-.09,4.53.34.74.7.99,1.53.71.52-.17,1.01-.42,1.54-.57.17-.05.45.08.58.22.09.1.07.39-.02.54-.46.82-1.27,1.19-2.08,1.53-1.42.6-2.67.03-3.11-1.44-.09-.31-.18-.64-.18-.97-.02-.99,0-1.98,0-3.65Z"/>
    <path class="cls-6" d="M156.07,234.96c-.16-.09-.63-.32-1.06-.61-.08-.06-.04-.51.02-.53.4-.14.83-.26,1.25-.27.69-.02,1.32-.14,1.86-.58.15-.12.29-.37.28-.54-.02-.18-.2-.45-.36-.49-.64-.15-1.29-.24-1.94-.32-.84-.11-1.47-.54-1.84-1.26-.18-.36-.29-.87-.18-1.24.61-2.1,2.25-2.93,4.35-2.35.98.27,1.9.59,2.38,1.59.04.08.05.22,0,.29-.05.09-.17.2-.26.19-.43-.03-.89,0-1.26-.17-.84-.37-1.69-.64-2.56-.34-.35.12-.67.52-.87.87-.18.3.29.88.7.93.55.07,1.13,0,1.64.18.61.2,1.23.5,1.71.91.76.66.65,2.03-.13,2.66-.98.79-2.1,1.21-3.74,1.08Z"/>
    <path class="cls-6" d="M167.77,233.32c.14.05.46.09.66.26.25.22.03.93-.32,1.15-.18.12-.39.2-.57.32-1.18.75-2.44.05-2.8-1.28-.11-.42-.11-.87-.12-1.31-.02-.88-.02-1.76,0-2.65.02-.91-.39-1.43-1.29-1.61-.19-.04-.41-.21-.5-.39-.07-.15-.04-.48.07-.55.26-.18.58-.34.88-.34.98,0,1.36-.51,1.42-1.42.02-.31.17-.63.35-.89.1-.15.36-.2.56-.25.05-.01.15.13.22.21.07.08.19.18.18.26-.2,1.53.47,2.26,2,2.27.15,0,.34.26.43.45.21.45-.22.55-.48.68-.19.1-.43.07-.65.12-1.27.32-1.39.41-1.41,1.39-.02.99-.02,1.99.04,2.97.05.73.53.86,1.33.6Z"/>
    <path class="cls-6" d="M318.66,235.63s-.34,0-.67-.04c-.72-.09-1.3-.48-1.48-1.15-.29-1.05-.58-2.15-.56-3.23.04-2.98,3.54-4.99,6.26-3.69.55.26.86.71.76,1.31-.04.25-.38.67-.52.65-.41-.07-.77-.38-1.18-.49-2.08-.59-3.77.75-3.66,2.91.02.43.12.87.23,1.29.17.65.83,1.07,1.53.95.75-.13,1.48-.39,2.23-.48.2-.03.5.3.65.53.07.1-.08.42-.21.56-.84.9-1.95.89-3.38.87Z"/>
    <path class="cls-6" d="M269.22,230.39c0-.44-.04-.88.01-1.32.04-.32.1-.76.31-.91,1.21-.84,2.05-2.36,3.88-2.09.85.12,1.78-.16,2.54.43.14.11.27.37.25.54-.02.17-.22.45-.36.46-.76.07-1.52.06-2.29.1-1.09.06-1.61.43-1.82,1.54-.29,1.51-.45,3.03-.68,4.55-.05.32-.12.64-.26.92-.08.15-.33.29-.5.28-.17,0-.47-.17-.49-.3-.27-1.39-.5-2.79-.73-4.18.05,0,.1-.01.14-.02Z"/>
    <path class="cls-6" d="M344.82,232.8c0,.59.03,1.7-.02,2.79-.01.3-.18.67-.41.86-.17.14-.64.16-.81.02-.23-.18-.4-.56-.43-.86-.29-3.74-.4-7.48.52-11.17.06-.25.39-.55.64-.6.16-.03.55.35.57.58.06.65.08,1.34-.05,1.97-.4,1.97-.33,3.93-.01,6.41Z"/>
    <path class="cls-6" d="M136.88,226.74c1.18.1,2.15.16,3.12.28.15.02.36.27.39.44.03.17-.06.45-.2.56-.24.2-.55.36-.85.45-1.08.34-1.61,1-1.53,2.19.08,1.09.03,2.2-.01,3.29-.01.31-.15.63-.31.9-.1.17-.35.32-.54.33-.18.02-.4-.12-.55-.25-.16-.14-.34-.34-.35-.53-.19-2.41-.38-4.82.41-7.17.08-.25.36-.44.41-.5Z"/>
    <path class="cls-6" d="M192.9,231.55c.06-.77.15-1.33.12-1.88-.08-1.63.79-2.66,2.04-3.53.91-.63,1.87-.7,2.84-.38.38.12.71.5.96.84.2.28-.66.95-1.22.76-1.07-.36-1.72.11-2.21.92-.64,1.05-1.1,2.16-1.02,3.45.04.65-.05,1.32-.15,1.97-.02.16-.29.29-.46.41-.19.13-.73-.2-.75-.46-.06-.77-.11-1.54-.15-2.1Z"/>
    <path class="cls-6" d="M349.11,232.02c-.05,1.05-.07,2.04-.15,3.02-.01.17-.31.48-.4.46-.28-.07-.76-.28-.76-.44-.06-2.08-.07-4.16-.03-6.24,0-.17.46-.38.74-.46.09-.03.39.26.41.43.09,1.09.14,2.19.19,3.23Z"/>
    <path class="cls-6" d="M283.07,233.76c.04-.12.13-.54.31-.93.25-.52,1.13-.82,1.71-.63.55.18,1.1.97,1.04,1.51-.11,1-.9,1.78-1.91,1.88-.59.06-1.11-.33-1.15-.87-.02-.22,0-.43,0-.96Z"/>
    <path class="cls-6" d="M327.63,231.82c0-.43-.02-.87,0-1.3.07-1.37.53-2.41.91-2.14.76.55.45,1.36.46,2.09,0,.98,0,1.96-.09,2.93-.04.4-.33.77-.53,1.15-.04.07-.2.14-.28.12-.16-.05-.44-.16-.44-.25-.03-.86-.02-1.72-.02-2.59,0,0,0,0-.01,0Z"/>
    <path class="cls-6" d="M237.17,234c-.23.3-.38.65-.63.77-.49.23-1.03.37-1.57.47-.48.09-.83-.17-1.03-.61-.21-.47,0-.85.33-1.16.73-.66,1.56-.75,2.4-.28.23.13.32.51.49.8Z"/>
    <path class="cls-6" d="M349.54,225.75c-.16.1-.39.37-.63.38-.51.01-1-.53-1-1,0-.36.52-.77.89-.71.5.08.84.61.74,1.33Z"/>
    <path class="cls-6" d="M328.53,225.1c-.29.36-.47.74-.78.94-.29.19-.73-.33-.73-.84,0-.5.37-.95.75-.81.25.09.42.38.76.71Z"/>
  </g>
</svg>