<?xml version="1.0" encoding="UTF-8"?>
<svg id="Layer_1" xmlns="http://www.w3.org/2000/svg" viewBox="0 0 400 400">
  <defs>
    <style>
      .cls-1 {
        stroke: #ed1c24;
        stroke-width: 3.13px;
      }

      .cls-1, .cls-2, .cls-3, .cls-4 {
        fill-rule: evenodd;
      }

      .cls-5 {
        fill: #231f20;
      }

      .cls-2 {
        fill: #ec2028;
      }

      .cls-6 {
        fill: #fff;
        font-family: AmericanTypewriter-CondensedBold, 'American Typewriter';
        font-size: 44px;
        font-weight: 700;
      }

      .cls-4 {
        fill: #1bb24b;
      }

      .cls-7 {
        letter-spacing: -.05em;
      }
    </style>
  </defs>
  <g>
    <g>
      <path class="cls-2" d="M238.77,242.13c-2.15,0-4.43-.56-6.24-1.54-2.37-1.3-4.21-4.05-5.99-6.71-2.07-3.09-4.21-6.29-7.29-7.3-1.43-.46-3.34-.69-5.83-.69s-5.17.22-7.55.42c-1.07.09-2.08.17-3.01.23-3.79.25-7.44.37-10.85.37-7.27,0-13.7-.54-19.67-1.67-.78-.15-1.62-.25-2.52-.37-3.42-.43-6.95-.88-8.1-3.53.29-.1.62-.14,1.02-.14.52,0,1.1.08,1.7.16.69.09,1.41.19,2.17.19.11,0,.22,0,.34,0,5.25-.19,11.76-1.32,19.91-3.44,5.99-1.57,12.63-3.7,16.46-7.61l1.44-1.48-2.06-.09c-1.19-.05-2.4-.08-3.62-.08-10.65,0-22.12,2.07-31.46,5.67-.53.2-1.1.41-1.68.62-2.96,1.08-6.31,2.3-7.88,4.1-.96,1.11-1.3,2.47-1.6,3.68-.39,1.58-.7,2.63-1.73,3.28-6.33-2.25-7.71-9.57-9.16-17.3l-.08-.45v-4.8c1.87-7.78,4.64-13.55,8.71-18.16,6.02-6.82,15.67-12.01,25.2-16.6,9.56-4.61,20.52-6.56,32.12-8.63l1.29-.23c9.73-1.75,19.46-3.88,28.87-5.95,14.16-3.11,27.56-6.05,41.05-7.81-1.24,6.94,0,13.71,3.33,17.89,2.18,2.72,6.64,5.62,10.63,5.62.13,0,.26,0,.39,0,3.07-.15,5.4-2.14,7.66-4.07,2.46-2.1,4.79-4.09,8.07-4.09h.24c1.49.05,2.84.53,3.37,1.21.24.31.31.66.22,1.1-.1.46-.98.63-2.22.82-1.54.23-3.45.52-3.83,2.34-.22,1.04-.07,1.92.45,2.61.7.94,1.99,1.47,4.05,1.65.58.05,1.18.08,1.77.08,7.48,0,12.92-4.04,14.41-5.28,5.82-4.85,7.95-13.34,10.01-21.55,2.44-9.74,4.76-18.99,12.73-22.21-.75,1.71-.75,3.4-.59,5.02.31,3.19,2.54,6.98,4.92,10.99,5.01,8.46,7.87,14.28,2.33,17.84-.14.09-.46.19-.74.27-.68.21-1.53.46-1.92,1.21-.15.29-.29.77-.09,1.41l.27.86.87-.24c2.46-.69,5.13-1.09,7.33-1.09,1.5,0,2.73.18,3.65.54,3.83,1.48,4.93,6.49,6.01,11.33.41,1.85.8,3.6,1.33,5.18,2.2,6.49,6.55,10.58,10.79,13.67-2.39.86-4.81,1.27-7.35,1.27-6.09,0-11.82-2.44-17.37-4.8-1.27-.54-2.53-1.07-3.77-1.57-2.88-1.16-10.29-3.85-16.84-3.85-8.32,0-10.84,4.33-11.48,7.95-.65,3.68.72,6.6,2.05,9.43.53,1.12,1.03,2.2,1.4,3.29-5.36,1.8-9.92,4.23-14.33,6.59-3.59,1.92-7.31,3.9-11.42,5.51-4.07,1.6-8.25,3.02-12.29,4.39-1.87.63-3.72,1.26-5.55,1.91-.3.11-.61.21-.92.31-1.66.55-3.54,1.17-4.94,2.53l-1.66,1.61,2.31-.03c1.91-.02,3.47-.52,4.85-.95,1.23-.39,2.29-.73,3.45-.73.34,0,.66.03,1,.09,1.85.33,3.22,1.99,4.67,3.75,1.79,2.17,3.82,4.63,7.14,4.73-1.75,1.51-4.19,2.35-7.01,2.35-1.81,0-3.66-.36-5.35-1.04-2.12-.85-3.62-2.15-5.2-3.53-2.48-2.16-5.04-4.39-9.85-4.42h-.17c-3.67,0-7.42.66-11.4,1.36-4.3.76-8.74,1.54-13.41,1.54-4.04,0-8.06-.08-11.95-.15-3.8-.07-7.74-.14-11.59-.14-1.27,0-2.54,0-3.81.03l-.06,1.85c4.74.37,7.14,3.11,9.68,6.01,2.04,2.33,4.14,4.73,7.48,5.71-1.45,1.15-3.41,1.76-5.67,1.76Z"/>
      <path class="cls-5" d="M352.54,124.14c-.18,1.16-.14,2.29-.04,3.33.33,3.4,2.62,7.27,5.04,11.37,4.73,8,7.47,13.48,2.65,16.58-.08.04-.35.12-.53.18-.76.23-1.9.58-2.47,1.66-.23.44-.45,1.17-.15,2.12l.54,1.71,1.73-.49c2.35-.66,4.99-1.06,7.08-1.06,1.37,0,2.51.16,3.32.48,3.36,1.3,4.42,6.06,5.44,10.67.4,1.79.81,3.65,1.36,5.28,2.03,5.98,5.8,9.98,9.67,13.03-1.75.47-3.52.7-5.36.7-5.9,0-11.55-2.4-17.01-4.73-1.24-.53-2.53-1.08-3.79-1.58-2.93-1.18-10.48-3.91-17.18-3.91-8.96,0-11.69,4.74-12.4,8.72-.7,3.97.8,7.16,2.13,9.98.37.8.74,1.56,1.04,2.32-5.04,1.79-9.37,4.1-13.57,6.34-3.57,1.9-7.26,3.87-11.32,5.47-4.05,1.59-8.22,3.01-12.25,4.37-1.87.63-3.73,1.27-5.57,1.91-.3.1-.6.2-.91.31-1.75.58-3.74,1.24-5.29,2.75l-1.96,1.91c-.92-.21-1.93-.33-3.04-.34h-.17c-3.75,0-7.54.67-11.56,1.37-4.26.75-8.66,1.52-13.25,1.52-4.03,0-8.05-.08-11.93-.15-3.81-.07-7.75-.14-11.61-.14-1.28,0-2.55,0-3.82.03l-.12,3.69c4.36.34,6.54,2.82,9.05,5.7,1.67,1.91,3.5,4,6.09,5.28-1.22.52-2.52.67-3.59.67-2,0-4.12-.52-5.79-1.43-2.17-1.19-3.95-3.85-5.67-6.42-2.15-3.22-4.38-6.55-7.78-7.67-1.52-.5-3.52-.74-6.11-.74-2.51,0-5.23.22-7.64.42-1.06.09-2.07.17-2.99.23-3.76.25-7.39.37-10.78.37-7.21,0-13.59-.54-19.51-1.65-.81-.15-1.67-.26-2.57-.38-2.83-.36-5.1-.74-6.42-1.77.26.03.53.06.8.1.69.09,1.47.2,2.29.2.12,0,.25,0,.37,0,5.32-.2,11.9-1.33,20.12-3.47,6.11-1.6,12.9-3.78,16.88-7.86l2.88-2.95-4.12-.19c-1.2-.05-2.43-.08-3.66-.08-10.76,0-22.35,2.09-31.79,5.73-.52.2-1.09.41-1.67.62-3.06,1.12-6.53,2.38-8.26,4.36-1.11,1.27-1.47,2.76-1.8,4.06-.29,1.18-.5,1.95-.99,2.45-5.43-2.29-6.73-9.16-8.09-16.42l-.07-.36v-4.6c1.84-7.57,4.53-13.19,8.48-17.66,5.91-6.7,15.46-11.83,24.91-16.37,9.45-4.55,20.35-6.5,31.89-8.55l1.28-.23c9.75-1.75,19.49-3.89,28.91-5.96,13.71-3.01,26.71-5.87,39.73-7.63-.96,6.82.37,13.19,3.72,17.39,2.37,2.96,7.03,5.96,11.35,5.96.14,0,.29,0,.43,0,3.38-.16,5.84-2.26,8.21-4.29,2.33-1.99,4.53-3.87,7.47-3.87.07,0,.14,0,.21,0,1.34.04,2.38.47,2.68.85.03.03.05.07.06.13-.34.13-1.03.23-1.47.3-1.53.23-4.09.62-4.6,3.07-.34,1.63.14,2.73.61,3.36,1.14,1.54,3.24,1.89,4.71,2.02.61.05,1.24.08,1.86.08,7.79,0,13.45-4.21,15.01-5.5,6.05-5.05,8.22-13.68,10.32-22.03,2.18-8.68,4.25-16.95,10.36-20.66M294.29,223.15c.28,0,.56.02.84.07,1.52.27,2.78,1.8,4.12,3.42,1.4,1.7,3.06,3.71,5.45,4.61-1.32.63-2.89.97-4.61.97s-3.43-.34-5.01-.97c-1.97-.79-3.41-2.04-4.94-3.37-1.21-1.05-2.49-2.17-4.09-3.05,2.03-.03,3.64-.54,5.06-1,1.15-.37,2.15-.68,3.17-.68M356.17,120.72c-18.47,4.18-12.6,33.94-25.5,44.69-2.8,2.33-7.88,5.07-13.82,5.07-.56,0-1.12-.02-1.69-.07-2.93-.26-4.07-1.25-3.67-3.15.49-2.35,5.56-.89,6.05-3.15.5-2.37-2.29-3.35-4.47-3.42-.09,0-.18,0-.26,0-6.87,0-9.95,7.88-15.77,8.16-.11,0-.23,0-.34,0-3.82,0-7.98-2.86-9.91-5.27-3.26-4.1-4.54-11-2.9-18.4-23.22,2.89-46.89,9.56-71.24,13.93-11.93,2.13-23.61,4.1-33.64,8.94-9.41,4.53-19.26,9.75-25.5,16.82-4.64,5.26-7.24,11.56-8.94,18.67v4.99c1.53,8.11,2.93,16.36,10.26,18.67,3.01-1.48,2-5.13,3.94-7.36,1.71-1.96,6.13-3.29,9.2-4.47,8.41-3.24,19.78-5.61,31.13-5.61,1.19,0,2.39.03,3.57.08-3.57,3.65-9.82,5.74-16.03,7.36-6.14,1.6-13.37,3.18-19.72,3.41-.1,0-.2,0-.3,0-1.35,0-2.67-.35-3.87-.35-.77,0-1.49.14-2.15.61,1.18,4.76,7.55,4.5,11.57,5.26,6.17,1.16,12.78,1.68,19.85,1.68,3.52,0,7.16-.13,10.91-.38,2.99-.19,6.97-.65,10.5-.65,2.11,0,4.06.16,5.54.65,5.32,1.74,7.73,10.99,13.13,13.95,1.87,1.01,4.28,1.66,6.68,1.66,2.86,0,5.7-.92,7.52-3.25-8.47-1.07-9.17-11.33-18.93-12.09,1.27-.02,2.53-.03,3.8-.03,7.76,0,15.52.29,23.54.29,9.09,0,17.29-2.9,24.81-2.9.05,0,.11,0,.16,0,7.38.05,8.98,5.59,14.72,7.89,1.8.72,3.77,1.1,5.7,1.1,3.73,0,7.31-1.42,9.29-4.51-.75.22-1.43.31-2.06.31-5.59,0-7.11-7.64-11.87-8.47-.4-.07-.78-.1-1.16-.1-2.74,0-4.91,1.64-8.31,1.68,1.49-1.45,3.65-1.98,5.52-2.63,5.86-2.05,11.93-3.97,17.88-6.31,9.47-3.73,16.47-9.15,26.55-12.36-1.11-4.28-4.6-7.99-3.68-13.15.96-5.41,5.33-7.19,10.57-7.19,5.51,0,11.99,1.97,16.5,3.78,6.75,2.7,13.8,6.44,21.49,6.44,2.99,0,6.07-.56,9.28-1.97-5.06-3.49-9.61-7.64-11.84-14.2-1.97-5.84-2.06-14.83-7.88-17.08-1.1-.43-2.5-.6-3.99-.6-2.55,0-5.39.51-7.58,1.13-.43-1.36,1.54-1.31,2.37-1.84,10.34-6.66-6.02-21.21-6.83-29.7-.25-2.53.03-4.56,1.84-6.57h0Z"/>
    </g>
    <path class="cls-1" d="M170,178.04c-.28.14-.57.26-.85.39-.28-.11-.46-.51-.64-.94-1.53.61-2.45-.46-4.26.1-.34-.66-1.1-1.37-.52-2.03-.76-1.56-1.29-3.35-.62-3.61-.17-.58-.58-.46-.72-1.11-.2-.36-.11-.61.27-.75-1.4-4.05-1.41-7.57-2.6-11.53,2.79-3.15,5.92-1.05,8.42.46.39.22,1.05.14,1.41.38,1.38.92,1.65,2.71,3.05,3.53,1.28,2.91,2.42,5.79.82,7.63.27,2.85-.47,5.66-3.66,6.81-.22.15.18.53-.1.66ZM167.82,175.96c.34-.15.67-.31,1.01-.46-.12-.89.9-1.32,1.25-2.21.02-.07-.35-.56-.22-.94.09-.24.55-.21.6-.48.18-.99.12-4.47,0-4.93-.66-2.45-2.7-3.15-3.92-4.98-1.05-.09-1.66-1.34-2.8-1.19,2.39,5.35,2.1,10.46,4.07,15.18Z"/>
    <path class="cls-1" d="M256.14,159.92c-.28.12-.57.26-.85.38-.28-.1-.46-.51-.63-.94-1.53.61-2.45-.46-4.27.1-.33-.67-1.1-1.37-.52-2.02-.76-1.57-1.28-3.36-.62-3.62-.17-.58-.59-.46-.73-1.12-.2-.35-.11-.6.28-.74-1.4-4.04-1.4-7.56-2.61-11.53,2.79-3.15,5.91-1.05,8.42.46.38.23,1.04.14,1.41.38,1.38.92,1.65,2.71,3.05,3.53,1.27,2.91,2.43,5.79.82,7.64.28,2.84-.48,5.66-3.66,6.8-.23.15.18.54-.1.68ZM253.96,157.83c.34-.15.67-.31,1.01-.47-.13-.89.89-1.31,1.25-2.21.03-.07-.36-.56-.22-.92.09-.25.55-.22.6-.49.18-1,.12-4.47,0-4.93-.65-2.46-2.69-3.15-3.91-4.98-1.06-.09-1.67-1.34-2.81-1.18,2.39,5.35,2.11,10.44,4.08,15.18Z"/>
    <path class="cls-1" d="M189.09,171.96c-.79.08-1.16.43-1.77.63.07-.22.37-.28.23-.63-1.16-.26-2.22.35-2.94.51-3.01-1.25-5.71-2.99-7.47-6.27-.08-.21-.37-.08-.58-.04-.55-1.63-1.05-3.34-1.44-5.23.45-.03-.31-.8.41-.67-.45-8.62,11.83-6.39,13.63-.02,2.29,2.78,2.47,7.76,1.09,10.11.37-.6-1.55,1.05-1.15,1.62ZM180.67,156.9c-.57,1.51-1,3.1-1.58,4.61.06,1.33.42,2.36.87,3.64,1.03,2.91,5.26,3.64,7.15.97-.49-1.19.66-1.36.17-2.54.27-.24.97-.22.77-.76-1.26-1.31-2.09-3.33-3.12-5.01-.96-.28-2.08-.32-2.61-1.29-.55.13-1.09.26-1.64.39Z"/>
    <path class="cls-1" d="M203.5,152.72c-.38,1.22-.16,2.79-1.71,3.3-.69-.16-.86-1.13-1.49-1.38-5.03.8-3.86,5.38-3.93,9.2,1.01,1.99,3.74,3.54,6.01,1.83,1.19.27,1.63.49,2.45-.21.35.2.39.89.53,1.41-1.43,1.99-3.34,3.41-6.83,3.56-.98-.43-1.48-1.62-2.56-1.88-.83-1.85-1.76-3.53-2.62-5.32.25-.43.29-1.7-.44-1.81,1.01-3.07.69-6.14,3.34-8.49,1.97-1.74,5.6-1.31,7.25-.21Z"/>
    <path class="cls-1" d="M216.98,147.58c1.47-.09,2.05.63,3.14.88-.91,3.43-2.77,5.83-4.83,8.02,2.79,2.76,5.93,5.18,9.61,7.13.15.68-.85.12-.78.71-.01.61,1.11.17.89.97-1.42.77-2.33,1.99-3.97,1.32-1.02-.4-1.32-1.92-2.33-2.34-.45-.09-.42.33-.95.15.01-.18.02-.37.03-.56-.18,0-.16.22-.2.36-.22-.03-.15-.34-.17-.56-.64.28-1.18-.1-1.27-.8-.57.5-1.08.12-1.87-.09.19-1.07-.73-1.13-1.05-1.73-.42,2.12,1.25,3.88,1.62,5.87-1.43.71-2.59,1.63-4.72,1.11-.19-.43-.17-1.05-.7-1.16.04-.21.35-.13.57-.16.18-.37-.46-.85-.55-.39-.91-5.63-2.68-10.46-3.82-15.86.53-.33,1.01-.71,1.18-1.44,1.42.05,2.48-.13,3.73.34-.01.19-.02.37-.03.56.08.4-.28.33-.58.34.52,1.56,1.2,2.96,1.29,4.92,1.43-.72,2.35-1.99,2.78-3.81.88.41,1.5-.42,1.18-1.26,1.32-.05,1.28-1.59,1.79-2.53ZM215.02,154.04c-.05.14-.17.21-.38.17"/>
    <path class="cls-1" d="M241.73,143.14c.22-.19.38-.12.46.33-.2.3-.46-.3-.67-.13-.12.3.55.68.28.98.45.08.14-.52-.19-.76.18-.23.4.12.6.21-.09.19-.14.38.18.6-.14.2-.29,0-.43.26.18.12.36.32.52.11-.06.2,0,.4-.11.58-.08-.08-.16-.16-.24-.25.19.07.13.64.1.52.1.44.92,1.24.31,1.43.12.04.24-.07.37.11-.05.64-.05,1.26.41,1.94-.14.14-.28.28-.42.41.69.24.69,1.6.58,2.25.12.02.25.11.38.25.33,1.79.57,3.58,1.36,5.41-.18.11-.12.23-.2.34.86.95.88,2.43,1.22,3.2-.17,0-.35-.11-.5.18-.33-.45-.21-.85-.6-1.31.09.35-.12.68.06,1.04-.99.38-2.38.72-3.03-.49.41-.72-.4-1.56-.21-2.29-.34-.2.19.24-.14.28-.2-.48-.47-1.29-.09-1.48-.34-.45-.47-.88-.45-1.29-.81-.35-.16-2.13-1.04-2.73.15-.97-.2-1.99-1.07-3.03.45-.43-.41-.97-.02-1.4-.3-.27-.56-.54-.19-.75-.12-.04-.24.07-.37-.1.1-.09.18-.19.28-.28-.5-.18-.61-.65-.28-.97-1.03-.47.3-1.1-.77-1.91.4-.02.15-1.22-.56-1.81.25-.22-.08-.5-.33-.77.33-.34.43,0,.67.29.15-.13.33-.41.77-.75-.29-.26-.56-.36-.86-.74.22.12.34-.27.65-.31.38-.06,3.43.88,3.68,1.57.02.03-.15.1-.13.13.13.41.18.67,0,1.11ZM242.73,147.48c-.24.21-.17.44-.04.66.12-.21.22-.42.04-.66ZM239.87,149.95c-.28-.32-.02-.59-.06-.88-.12.37-.3-.23-.43-.04.27.26.29,1.15.49.93Z"/>
    <path class="cls-1" d="M234.29,145.97c-.45.48-1.7-.52-2.01.2-.43-.02-.16-.42-.44-.52-.51.26-1.12.33-1.82.25-.47.8-.88,1.68-1.83,1.61-.15,1.56-1.17,1.51-1.55,2.66-.02.15.13.23.08.4,1.81.37,3.41.37,5.1.52.03.62-.41.35-.57.61.46.19.66-.08.75-.56,1.89-.03,3.17.91,4.58.95-.49.6-.34.13-.26.89.3,0,.32-.52.82-.15-.03.3-.25.25-.34.48,1.42-.26.92,1.52,1.74,2.06-.67.97.04,1.27-.68,2.33-.51.59.21-.69-.21-.64-.27-.03-.84,1.35-.18,1.31-.29.35-.8-.58-1.04.27.97.12-.25.88-1.03.87-.35.41.72.71-.16.53-.07.49.43.67,0,1.37-.49-.03-.63-.27-.38-.7-.41-.2-.14.85-.7.38-.19.4.85.15.38.7-.55-.35-.66.09-.74.56-.46-.29-.53.12-.95-.08-.46,1.63-4.52-.34-5.41.57-.1-.21-.09-.46.02-.77.49-.28.49.24,1.08.32-.3-.2-.4-1.11.39-.67.18-.6.35-1.19.52-1.79.69.44.65-.46,1.1-.46-.4-.26,1.59-2.33,2.55-2.76,0-.21-.33-.22-.25-.46-.25,0-.21.98-.98.7.18-.96.85-.52.14-1.13.16-.7.16-.02.58-.02-.15-.5-.36-.4-.85-.45-.38-.77.48-1.33-.01-1.95-.49.52-.73.28-1.39.77-.4-.03-.27-.35-.21-.64-1.58-.61-2.14.67-3.71.09.19-.41-.22-.49.07-.95-.65-.09-.83.66-1.38.76-.34-.12.39-.54.31-1.07.08-.34-.58-.28-.61-.57-.58-.04.06.43-.22.71-1.02-.03-.66-.84-1.68-.87.41-.73.09-1.06.06-1.55.68.5.26-1.01.93-.51,1.38-4.43,4.51-5.68,7.78-6.69.53-.07.21,1,.53.16.1.16.36.92.54.15-.02.47.87.43.46,1.1.3,0,.32-.52.82-.15-.59.87.18.76.26,1.82ZM224.18,151.98c.14-.44.28-1.64,0-1.36-.06.61-.31.89-.67.97.36.06.34.32.67.39Z"/>
    <path class="cls-1" d="M273.41,133.43c.38-.42.7.35,1.04.42-.42.74-.56,1.38-.14,1.78-.85,1.15-.85,1.81-1.96,3.21-.4-.12-.49-.36-.3-.73-.54-.03,0,.64-.43,1.04-1.9-.57-2.91,1.05-4.74.64-.58,1.56.38,2.51-.08,4.02,2.34.25,3.66-2,6-1.74-.52.54.34.53-.02,1.01-.92.47-1.47,1.77-1.16,2.75-1.25.19-2,1.62-3.42,1.4-1.02,1.7.46,2.38,0,3.85,1.96.15,3.23-1.41,4.99-1.75.12-.28.24-.57.37-.86.34.69,2.17-.31,2.86-1.02,1.88.15,3.11.45,4.81.6-.59,1.48-1.69,1.7-2.9,1.62-.45.47.5.37.06.83-.28-.34-.94-.07-.49.2-3.56,1.56-7.44,3.97-10.7,4.22-1.18-1.23-2.11-2.56-2.04-4.31-1.31-1.6-1.33-3.73-2.11-5.55.08-.39.3-.4.46-.62-.25-.52-1.66-1.25-.48-2.22-.55-.21-.82.32-1.43,0,.82-.22-.09-1.06.93-1.24-.31-1.53.69-3.53,2.39-3.25,1.96-1.25,3.6-3.27,6.05-3.33.66-.4,1.32-.75,1.94-1.21.36.2,1.18.77.52.22Z"/>
    <path class="cls-3" d="M170,178.04c-.28.14-.57.26-.85.39-.28-.11-.46-.51-.64-.94-1.53.61-2.45-.46-4.26.1-.34-.66-1.1-1.37-.52-2.03-.76-1.56-1.29-3.35-.62-3.61-.17-.58-.58-.46-.72-1.11-.2-.36-.11-.61.27-.75-1.4-4.05-1.41-7.57-2.6-11.53,2.79-3.15,5.92-1.05,8.42.46.39.22,1.05.14,1.41.38,1.38.92,1.65,2.71,3.05,3.53,1.28,2.91,2.42,5.79.82,7.63.27,2.85-.47,5.66-3.66,6.81-.22.15.18.53-.1.66ZM167.82,175.96c.34-.15.67-.31,1.01-.46-.12-.89.9-1.32,1.25-2.21.02-.07-.35-.56-.22-.94.09-.24.55-.21.6-.48.18-.99.12-4.47,0-4.93-.66-2.45-2.7-3.15-3.92-4.98-1.05-.09-1.66-1.34-2.8-1.19,2.39,5.35,2.1,10.46,4.07,15.18Z"/>
    <path class="cls-3" d="M271.85,181.39c-.25.13-.52.26-.79.39-.28-.1-.45-.46-.61-.87-1.42.61-2.31-.37-4,.2-.33-.62-1.05-1.25-.53-1.88-.74-1.45-1.28-3.12-.67-3.38-.17-.53-.57-.41-.7-1.02-.19-.34-.11-.58.24-.7-1.41-3.76-1.5-7.07-2.73-10.76,2.55-3.03,5.53-1.13,7.92.22.36.21.98.1,1.32.33,1.32.82,1.62,2.5,2.95,3.24,1.26,2.71,2.41,5.36.95,7.14.32,2.66-.31,5.33-3.27,6.47-.21.15.18.5-.09.63ZM269.75,179.49c.31-.15.63-.31.95-.46-.15-.84.8-1.26,1.11-2.11.02-.06-.35-.52-.23-.86.09-.23.52-.21.55-.47.15-.94.01-4.19-.12-4.62-.67-2.29-2.6-2.89-3.79-4.57-.98-.06-1.59-1.23-2.66-1.05,2.36,4.97,2.22,9.75,4.18,14.15Z"/>
    <path class="cls-3" d="M256.14,159.92c-.28.12-.57.26-.85.38-.28-.1-.46-.51-.63-.94-1.53.61-2.45-.46-4.27.1-.33-.67-1.1-1.37-.52-2.02-.76-1.57-1.28-3.36-.62-3.62-.17-.58-.59-.46-.73-1.12-.2-.35-.11-.6.28-.74-1.4-4.04-1.4-7.56-2.61-11.53,2.79-3.15,5.91-1.05,8.42.46.38.23,1.04.14,1.41.38,1.38.92,1.65,2.71,3.05,3.53,1.27,2.91,2.43,5.79.82,7.64.28,2.84-.48,5.66-3.66,6.8-.23.15.18.54-.1.68ZM253.96,157.83c.34-.15.67-.31,1.01-.47-.13-.89.89-1.31,1.25-2.21.03-.07-.36-.56-.22-.92.09-.25.55-.22.6-.49.18-1,.12-4.47,0-4.93-.65-2.46-2.69-3.15-3.91-4.98-1.06-.09-1.67-1.34-2.81-1.18,2.39,5.35,2.11,10.44,4.08,15.18Z"/>
    <path class="cls-3" d="M189.09,171.96c-.79.08-1.16.43-1.77.63.07-.22.37-.28.23-.63-1.16-.26-2.22.35-2.94.51-3.01-1.25-5.71-2.99-7.47-6.27-.08-.21-.37-.08-.58-.04-.55-1.63-1.05-3.34-1.44-5.23.45-.03-.31-.8.41-.67-.45-8.62,11.83-6.39,13.63-.02,2.29,2.78,2.47,7.76,1.09,10.11.37-.6-1.55,1.05-1.15,1.62ZM180.67,156.9c-.57,1.51-1,3.1-1.58,4.61.06,1.33.42,2.36.87,3.64,1.03,2.91,5.26,3.64,7.15.97-.49-1.19.66-1.36.17-2.54.27-.24.97-.22.77-.76-1.26-1.31-2.09-3.33-3.12-5.01-.96-.28-2.08-.32-2.61-1.29-.55.13-1.09.26-1.64.39Z"/>
    <path class="cls-3" d="M295.71,198.15c-.59-.14-.93.03-1.41.03.09-.14.33-.12.31-.4-.78-.46-1.68-.26-2.23-.32-1.87-1.62-3.4-3.54-3.91-6.37,0-.18-.25-.15-.41-.18-.03-1.32,0-2.71.15-4.18.34.08-.03-.67.45-.4,1.64-6.48,9.93-1.94,9.76,3.18,1.01,2.59,0,6.3-1.52,7.72.39-.36-1.35.41-1.19.93ZM293.11,185.05c-.75.98-1.43,2.05-2.18,3.03-.26.99-.23,1.84-.2,2.88.07,2.39,2.94,3.92,4.9,2.39-.09-.98.77-.84.69-1.83.25-.11.75.06.72-.38-.6-1.26-.73-2.95-1.1-4.43-.62-.44-1.41-.72-1.58-1.57-.41-.03-.83-.06-1.25-.09Z"/>
    <path class="cls-3" d="M229.33,188.6c-.75.09-1.09.41-1.65.62.06-.21.34-.28.2-.6-1.1-.21-2.08.4-2.75.56-2.85-1.09-5.42-2.67-7.15-5.71-.09-.19-.35-.06-.55-.03-.55-1.51-1.07-3.11-1.48-4.86.42-.04-.3-.75.37-.64-.62-8.09,10.94-6.27,12.78-.34,2.22,2.55,2.51,7.22,1.26,9.46.32-.58-1.42,1.01-1.04,1.55ZM221.08,174.66c-.5,1.43-.87,2.93-1.37,4.37.08,1.24.44,2.2.9,3.39,1.03,2.7,5.02,3.28,6.72.73-.49-1.09.59-1.28.09-2.38.25-.23.92-.23.71-.73-1.22-1.2-2.05-3.07-3.06-4.63-.91-.23-1.95-.24-2.48-1.15-.51.14-1.02.28-1.53.41Z"/>
    <path class="cls-3" d="M203.5,152.72c-.38,1.22-.16,2.79-1.71,3.3-.69-.16-.86-1.13-1.49-1.38-5.03.8-3.86,5.38-3.93,9.2,1.01,1.99,3.74,3.54,6.01,1.83,1.19.27,1.63.49,2.45-.21.35.2.39.89.53,1.41-1.43,1.99-3.34,3.41-6.83,3.56-.98-.43-1.48-1.62-2.56-1.88-.83-1.85-1.76-3.53-2.62-5.32.25-.43.29-1.7-.44-1.81,1.01-3.07.69-6.14,3.34-8.49,1.97-1.74,5.6-1.31,7.25-.21Z"/>
    <path class="cls-3" d="M216.98,147.58c1.47-.09,2.05.63,3.14.88-.91,3.43-2.77,5.83-4.83,8.02,2.79,2.76,5.93,5.18,9.61,7.13.15.68-.85.12-.78.71-.01.61,1.11.17.89.97-1.42.77-2.33,1.99-3.97,1.32-1.02-.4-1.32-1.92-2.33-2.34-.45-.09-.42.33-.95.15.01-.18.02-.37.03-.56-.18,0-.16.22-.2.36-.22-.03-.15-.34-.17-.56-.64.28-1.18-.1-1.27-.8-.57.5-1.08.12-1.87-.09.19-1.07-.73-1.13-1.05-1.73-.42,2.12,1.25,3.88,1.62,5.87-1.43.71-2.59,1.63-4.72,1.11-.19-.43-.17-1.05-.7-1.16.04-.21.35-.13.57-.16.18-.37-.46-.85-.55-.39-.91-5.63-2.68-10.46-3.82-15.86.53-.33,1.01-.71,1.18-1.44,1.42.05,2.48-.13,3.73.34-.01.19-.02.37-.03.56.08.4-.28.33-.58.34.52,1.56,1.2,2.96,1.29,4.92,1.43-.72,2.35-1.99,2.78-3.81.88.41,1.5-.42,1.18-1.26,1.32-.05,1.28-1.59,1.79-2.53ZM215.02,154.04c-.05.14-.17.21-.38.17"/>
    <path class="cls-3" d="M240.92,168.77c1.38-.13,1.93.55,2.96.75-.77,3.25-2.46,5.54-4.33,7.65,2.67,2.52,5.68,4.72,9.17,6.45.16.64-.79.14-.71.7,0,.57,1.04.14.86.89-1.31.76-2.13,1.92-3.7,1.34-.98-.36-1.29-1.78-2.24-2.14-.43-.08-.39.31-.88.15,0-.17,0-.34,0-.52-.17,0-.14.22-.18.35-.2-.03-.14-.33-.16-.53-.6.29-1.11-.06-1.22-.72-.52.49-1.01.15-1.76-.02.16-1.02-.7-1.05-1.02-1.61-.34,1.99,1.27,3.6,1.66,5.47-1.32.71-2.38,1.61-4.4,1.15-.19-.39-.19-.97-.69-1.06.03-.21.33-.15.53-.17.16-.36-.44-.79-.52-.36-.98-5.26-2.76-9.74-3.95-14.78.5-.32.94-.7,1.07-1.38,1.34,0,2.33-.18,3.5.23,0,.17,0,.34,0,.52.07.37-.26.33-.53.34.52,1.45,1.19,2.75,1.32,4.57,1.32-.7,2.16-1.93,2.51-3.64.84.37,1.4-.42,1.07-1.19,1.24-.09,1.16-1.54,1.62-2.43ZM239.24,174.87c-.04.15-.15.21-.36.17"/>
    <path class="cls-3" d="M241.73,143.14c.22-.19.38-.12.46.33-.2.3-.46-.3-.67-.13-.12.3.55.68.28.98.45.08.14-.52-.19-.76.18-.23.4.12.6.21-.09.19-.14.38.18.6-.14.2-.29,0-.43.26.18.12.36.32.52.11-.06.2,0,.4-.11.58-.08-.08-.16-.16-.24-.25.19.07.13.64.1.52.1.44.92,1.24.31,1.43.12.04.24-.07.37.11-.05.64-.05,1.26.41,1.94-.14.14-.28.28-.42.41.69.24.69,1.6.58,2.25.12.02.25.11.38.25.33,1.79.57,3.58,1.36,5.41-.18.11-.12.23-.2.34.86.95.88,2.43,1.22,3.2-.17,0-.35-.11-.5.18-.33-.45-.21-.85-.6-1.31.09.35-.12.68.06,1.04-.99.38-2.38.72-3.03-.49.41-.72-.4-1.56-.21-2.29-.34-.2.19.24-.14.28-.2-.48-.47-1.29-.09-1.48-.34-.45-.47-.88-.45-1.29-.81-.35-.16-2.13-1.04-2.73.15-.97-.2-1.99-1.07-3.03.45-.43-.41-.97-.02-1.4-.3-.27-.56-.54-.19-.75-.12-.04-.24.07-.37-.1.1-.09.18-.19.28-.28-.5-.18-.61-.65-.28-.97-1.03-.47.3-1.1-.77-1.91.4-.02.15-1.22-.56-1.81.25-.22-.08-.5-.33-.77.33-.34.43,0,.67.29.15-.13.33-.41.77-.75-.29-.26-.56-.36-.86-.74.22.12.34-.27.65-.31.38-.06,3.43.88,3.68,1.57.02.03-.15.1-.13.13.13.41.18.67,0,1.11ZM242.73,147.48c-.24.21-.17.44-.04.66.12-.21.22-.42.04-.66ZM239.87,149.95c-.28-.32-.02-.59-.06-.88-.12.37-.3-.23-.43-.04.27.26.29,1.15.49.93Z"/>
    <path class="cls-3" d="M228.05,200.71c.2-.15.34-.08.38.31-.18.25-.38-.27-.56-.14-.12.26.44.6.2.85.4.09.15-.45-.14-.65.17-.19.34.12.51.2-.08.15-.13.32.14.52-.12.16-.25-.02-.38.21.15.11.3.29.45.12-.06.16,0,.33-.12.5-.06-.08-.13-.15-.2-.22.16.07.09.55.07.46.07.38.75,1.1.21,1.24.1.04.21-.05.32.11-.06.53-.09,1.09.29,1.69-.12.11-.25.22-.37.33.58.24.53,1.41.42,1.97.1.02.21.1.32.23.21,1.56.36,3.1.98,4.72-.16.09-.12.2-.19.29.71.85.67,2.12.94,2.79-.15-.02-.3-.1-.43.14-.28-.4-.15-.74-.47-1.14.06.31-.13.58.02.89-.88.29-2.08.54-2.6-.52.38-.61-.3-1.36-.1-1.99-.29-.18.16.22-.12.24-.15-.41-.37-1.13-.03-1.28-.27-.39-.37-.76-.34-1.13-.69-.33-.06-1.84-.81-2.39.17-.84-.09-1.72-.81-2.67.4-.34-.31-.84.04-1.2-.25-.24-.46-.48-.14-.65-.11-.03-.21.05-.32-.1.08-.07.16-.15.24-.21-.42-.18-.5-.59-.2-.86-.87-.45.3-.94-.61-1.67.35,0,.18-1.05-.41-1.58.22-.19-.05-.44-.27-.68.31-.28.38,0,.58.27.13-.09.3-.34.68-.62-.24-.22-.47-.32-.71-.66.19.11.31-.22.56-.24.34-.04,2.94.88,3.12,1.49.01.03-.12.09-.12.11.1.36.14.58-.05.95ZM228.76,204.5c-.21.16-.17.36-.06.57.11-.18.2-.36.06-.57ZM226.21,206.52c-.23-.29,0-.51,0-.77-.12.32-.26-.21-.39-.04.23.23.22,1.01.4.82Z"/>
    <path class="cls-3" d="M234.29,145.97c-.45.48-1.7-.52-2.01.2-.43-.02-.16-.42-.44-.52-.51.26-1.12.33-1.82.25-.47.8-.88,1.68-1.83,1.61-.15,1.56-1.17,1.51-1.55,2.66-.02.15.13.23.08.4,1.81.37,3.41.37,5.1.52.03.62-.41.35-.57.61.46.19.66-.08.75-.56,1.89-.03,3.17.91,4.58.95-.49.6-.34.13-.26.89.3,0,.32-.52.82-.15-.03.3-.25.25-.34.48,1.42-.26.92,1.52,1.74,2.06-.67.97.04,1.27-.68,2.33-.51.59.21-.69-.21-.64-.27-.03-.84,1.35-.18,1.31-.29.35-.8-.58-1.04.27.97.12-.25.88-1.03.87-.35.41.72.71-.16.53-.07.49.43.67,0,1.37-.49-.03-.63-.27-.38-.7-.41-.2-.14.85-.7.38-.19.4.85.15.38.7-.55-.35-.66.09-.74.56-.46-.29-.53.12-.95-.08-.46,1.63-4.52-.34-5.41.57-.1-.21-.09-.46.02-.77.49-.28.49.24,1.08.32-.3-.2-.4-1.11.39-.67.18-.6.35-1.19.52-1.79.69.44.65-.46,1.1-.46-.4-.26,1.59-2.33,2.55-2.76,0-.21-.33-.22-.25-.46-.25,0-.21.98-.98.7.18-.96.85-.52.14-1.13.16-.7.16-.02.58-.02-.15-.5-.36-.4-.85-.45-.38-.77.48-1.33-.01-1.95-.49.52-.73.28-1.39.77-.4-.03-.27-.35-.21-.64-1.58-.61-2.14.67-3.71.09.19-.41-.22-.49.07-.95-.65-.09-.83.66-1.38.76-.34-.12.39-.54.31-1.07.08-.34-.58-.28-.61-.57-.58-.04.06.43-.22.71-1.02-.03-.66-.84-1.68-.87.41-.73.09-1.06.06-1.55.68.5.26-1.01.93-.51,1.38-4.43,4.51-5.68,7.78-6.69.53-.07.21,1,.53.16.1.16.36.92.54.15-.02.47.87.43.46,1.1.3,0,.32-.52.82-.15-.59.87.18.76.26,1.82ZM224.18,151.98c.14-.44.28-1.64,0-1.36-.06.61-.31.89-.67.97.36.06.34.32.67.39Z"/>
    <path class="cls-3" d="M240.98,197.81c-.4.4-1.44-.52-1.73.09-.37-.03-.12-.36-.35-.46-.46.2-.99.25-1.59.15-.43.68-.81,1.44-1.63,1.33-.18,1.33-1.06,1.25-1.44,2.23,0,.13.11.21.06.36,1.55.38,2.93.44,4.38.62.01.54-.36.29-.51.51.39.18.57-.04.66-.46,1.64.03,2.7.9,3.92.98-.43.5-.3.09-.25.76.27,0,.29-.44.71-.1-.04.27-.23.21-.3.4,1.23-.16.74,1.34,1.42,1.84-.61.82,0,1.1-.67,1.99-.46.5.22-.59-.15-.56-.24-.03-.78,1.13-.21,1.12-.26.3-.67-.52-.92.21.84.15-.24.75-.91.71-.32.34.6.64-.15.46-.08.42.34.59-.06,1.17-.43-.04-.52-.25-.3-.6-.35-.19-.15.72-.62.29-.18.34.73.15.31.62-.46-.33-.57.04-.66.46-.39-.28-.47.09-.81-.1-.46,1.39-3.89-.46-4.69.28-.08-.17-.06-.4.05-.65.43-.22.4.21.92.31-.26-.19-.31-.97.35-.57.18-.51.35-1.01.52-1.52.58.41.58-.37.97-.36-.34-.23,1.46-1.95,2.3-2.29.02-.17-.27-.21-.21-.4-.21,0-.21.82-.87.56.19-.82.75-.42.16-.97.17-.59.14,0,.5,0-.1-.42-.28-.35-.7-.41-.31-.67.46-1.13.05-1.68-.43.44-.63.21-1.22.61-.35-.04-.22-.32-.15-.56-1.35-.58-1.87.5-3.21-.06.18-.35-.17-.43.1-.81-.56-.1-.74.54-1.23.59-.28-.11.36-.44.31-.91.07-.29-.48-.27-.5-.51-.49-.05.03.37-.2.61-.89-.07-.55-.76-1.43-.82.37-.62.12-.91.1-1.33.57.46.26-.86.82-.4,1.35-3.76,4.1-4.73,6.94-5.48.47-.05.15.87.46.15.08.15.27.8.46.15-.03.41.73.41.36.98.25,0,.28-.44.7-.1-.55.72.12.66.15,1.58ZM232.05,202.62c.14-.37.3-1.41.05-1.17-.09.52-.31.76-.62.82.3.06.28.28.57.35Z"/>
    <path class="cls-3" d="M193.92,182.38c-.4.46-1.6-.45-1.87.23-.4,0-.15-.39-.42-.47-.49.25-1.05.34-1.71.27-.42.77-.78,1.61-1.68,1.56-.11,1.46-1.07,1.44-1.39,2.53,0,.15.13.22.08.39,1.71.31,3.22.27,4.8.36.06.58-.37.34-.52.59.44.16.62-.09.69-.55,1.78-.09,2.99.78,4.32.77-.44.58-.32.13-.23.85.29,0,.29-.49.76-.15-.01.28-.23.25-.3.46,1.32-.27.89,1.41,1.68,1.89-.62.93.06,1.19-.58,2.2-.46.58.18-.64-.2-.59-.25-.02-.76,1.29-.14,1.23-.28.34-.78-.52-.99.28.91.1-.22.83-.95.84-.32.4.7.64-.12.51-.06.46.41.62.02,1.27-.46,0-.58-.22-.38-.64-.38-.18-.11.8-.64.38-.17.39.8.1.38.63-.52-.31-.61.09-.69.56-.44-.28-.5.11-.89-.06-.4,1.54-4.25-.21-5.07.66-.09-.19-.08-.43,0-.72.45-.28.46.21,1.01.27-.29-.18-.4-1.03.35-.64.15-.57.3-1.13.45-1.69.66.4.6-.44,1.02-.46-.38-.23,1.45-2.23,2.33-2.65.01-.2-.3-.21-.25-.42-.22,0-.18.9-.9.66.15-.9.79-.51.1-1.07.15-.65.15-.02.55-.03-.15-.46-.34-.37-.8-.4-.38-.71.42-1.25-.06-1.82-.45.5-.68.28-1.29.75-.38-.02-.26-.33-.21-.6-1.5-.53-1.99.69-3.49.17.18-.39-.21-.45.06-.89-.61-.07-.77.65-1.28.76-.32-.11.35-.52.27-1.01.06-.33-.54-.26-.58-.52-.54-.03.06.4-.18.67-.96,0-.64-.77-1.61-.78.37-.7.06-1,.02-1.45.65.46.22-.95.86-.5,1.19-4.19,4.1-5.44,7.14-6.45.5-.09.22.94.51.14.1.15.35.85.52.13-.02.44.81.39.45,1.03.28,0,.28-.5.77-.16-.55.83.18.7.27,1.7ZM184.58,188.26c.13-.42.22-1.55-.02-1.27-.05.58-.28.84-.61.92.33.05.32.29.63.35Z"/>
    <path class="cls-3" d="M272.83,190.64c-.32.38-1.28-.39-1.5.17-.31-.02-.12-.33-.33-.4-.38.2-.84.26-1.36.21-.35.61-.66,1.31-1.38,1.25-.09,1.2-.87,1.18-1.14,2.06,0,.12.09.17.06.32,1.36.28,2.56.27,3.84.36.03.49-.31.28-.43.48.34.15.49-.06.55-.44,1.43-.04,2.38.69,3.45.7-.36.46-.25.1-.18.7.22,0,.23-.41.61-.12-.03.23-.2.2-.25.38,1.06-.21.7,1.17,1.32,1.58-.5.76.03.99-.49,1.81-.38.46.16-.54-.15-.5-.2-.03-.63,1.05-.13,1.01-.22.28-.61-.44-.79.21.73.09-.18.68-.77.68-.27.33.55.56-.12.41-.04.38.33.52,0,1.07-.38-.03-.46-.21-.3-.54-.31-.15-.09.66-.52.3-.14.31.64.1.3.53-.41-.28-.49.07-.56.44-.35-.22-.4.09-.71-.06-.33,1.26-3.39-.23-4.06.47-.07-.15-.06-.35.02-.59.37-.21.37.18.81.23-.23-.15-.32-.84.29-.52.12-.46.25-.93.38-1.39.52.34.48-.36.82-.36-.31-.2,1.19-1.81,1.9-2.15.01-.15-.24-.17-.19-.36-.18,0-.15.76-.73.54.13-.75.63-.4.09-.88.12-.53.12-.02.45-.02-.12-.38-.27-.31-.64-.34-.3-.59.35-1.03-.03-1.51-.36.41-.55.22-1.04.6-.3-.02-.2-.27-.16-.5-1.19-.46-1.6.54-2.79.09.15-.32-.17-.38.06-.74-.49-.06-.63.52-1.04.6-.26-.09.29-.42.23-.83.04-.27-.43-.22-.47-.44-.43-.03.06.34-.15.56-.77-.03-.5-.64-1.28-.67.3-.56.06-.82.04-1.19.51.39.18-.77.69-.4,1.01-3.45,3.36-4.43,5.8-5.22.4-.06.16.77.4.12.08.13.27.7.41.11-.03.36.65.33.34.86.23,0,.23-.4.61-.12-.44.67.14.58.2,1.4ZM265.28,195.36c.09-.34.2-1.28-.01-1.05-.04.47-.23.68-.49.75.26.04.25.25.5.3Z"/>
    <path class="cls-3" d="M273.41,133.43c.38-.42.7.35,1.04.42-.42.74-.56,1.38-.14,1.78-.85,1.15-.85,1.81-1.96,3.21-.4-.12-.49-.36-.3-.73-.54-.03,0,.64-.43,1.04-1.9-.57-2.91,1.05-4.74.64-.58,1.56.38,2.51-.08,4.02,2.34.25,3.66-2,6-1.74-.52.54.34.53-.02,1.01-.92.47-1.47,1.77-1.16,2.75-1.25.19-2,1.62-3.42,1.4-1.02,1.7.46,2.38,0,3.85,1.96.15,3.23-1.41,4.99-1.75.12-.28.24-.57.37-.86.34.69,2.17-.31,2.86-1.02,1.88.15,3.11.45,4.81.6-.59,1.48-1.69,1.7-2.9,1.62-.45.47.5.37.06.83-.28-.34-.94-.07-.49.2-3.56,1.56-7.44,3.97-10.7,4.22-1.18-1.23-2.11-2.56-2.04-4.31-1.31-1.6-1.33-3.73-2.11-5.55.08-.39.3-.4.46-.62-.25-.52-1.66-1.25-.48-2.22-.55-.21-.82.32-1.43,0,.82-.22-.09-1.06.93-1.24-.31-1.53.69-3.53,2.39-3.25,1.96-1.25,3.6-3.27,6.05-3.33.66-.4,1.32-.75,1.94-1.21.36.2,1.18.77.52.22Z"/>
    <path class="cls-3" d="M256.5,163.91c.34-.4.67.32.97.39-.37.7-.49,1.29-.08,1.66-.78,1.1-.75,1.72-1.77,3.06-.37-.1-.47-.34-.3-.67-.5-.03.03.59-.38.98-1.79-.49-2.69,1.05-4.43.71-.51,1.49.43,2.35.03,3.77,2.2.18,3.38-1.97,5.59-1.77-.48.53.33.49,0,.95-.85.46-1.33,1.68-1.03,2.6-1.17.2-1.83,1.57-3.17,1.4-.92,1.61.5,2.21.09,3.6,1.84.1,2.99-1.39,4.64-1.76.11-.27.21-.54.32-.82.34.64,2.03-.33,2.66-1.02,1.77.09,2.92.34,4.53.45-.52,1.4-1.54,1.63-2.69,1.59-.41.45.48.33.07.78-.26-.32-.88-.05-.45.2-3.31,1.54-6.89,3.89-9.92,4.2-1.14-1.12-2.05-2.35-2.02-3.99-1.28-1.47-1.34-3.47-2.12-5.16.06-.37.28-.39.42-.58-.24-.49-1.59-1.15-.5-2.09-.53-.16-.77.34-1.34.05.76-.22-.12-.98.84-1.19-.33-1.41.56-3.32,2.16-3.11,1.8-1.21,3.3-3.14,5.6-3.26.59-.4,1.21-.74,1.77-1.19.35.18,1.13.7.5.2Z"/>
    <path class="cls-3" d="M320.73,175.73c.29-.33.55.27.78.33-.31.58-.4,1.06-.09,1.37-.64.9-.63,1.41-1.46,2.51-.29-.09-.37-.28-.23-.57-.4-.03.02.49-.32.8-1.43-.42-2.17.83-3.55.53-.43,1.21.3,1.93-.03,3.11,1.76.18,2.74-1.57,4.49-1.38-.39.42.26.4,0,.77-.68.37-1.08,1.38-.85,2.14-.94.15-1.49,1.27-2.56,1.11-.76,1.31.37,1.83.02,2.98,1.48.1,2.41-1.12,3.74-1.39.09-.21.17-.45.27-.67.26.53,1.62-.25,2.14-.82,1.42.11,2.33.34,3.62.45-.44,1.14-1.25,1.32-2.18,1.26-.33.38.38.29.04.65-.19-.27-.7-.06-.36.15-2.67,1.23-5.56,3.11-8,3.33-.89-.95-1.59-1.98-1.56-3.32-1-1.23-1.02-2.89-1.62-4.29.05-.3.23-.31.34-.48-.19-.41-1.25-.96-.37-1.72-.41-.15-.61.26-1.07.02.61-.17-.08-.81.68-.95-.25-1.18.5-2.74,1.78-2.54,1.47-.98,2.69-2.55,4.53-2.61.49-.31.98-.59,1.45-.95.26.15.88.59.38.17Z"/>
    <path class="cls-3" d="M216.95,191.86c-1.04-.03-1.24.54-2.24,1.11-.62-1-1.65-2.23-1.39-3.31-.96-1.03-1.55-4.53-2.57-6.3.42-.87-1.05-2.05-.58-3.15-.36.42-.87.77-.61,1.56-.18.09-.24-.06-.38-.03.03.17.07.34.21.33-.35.07-.1.09-.23.57-.1.39-.73,1.2-1.01,1.93-.08.2.11.37.04.62-.19.69-.75.75-.45,1.65-2.33.1-4.38-.28-5.81-1.75.34,1.44.89,4,1.66,5.27.2,1.87,1.88,4.47,1.23,6.02-.91.79-1.95.49-2.85.76-.72-1.31-.72-3.12-1.78-4.35-.21-.35.23-.33.22-.57-.33-.03-.38.33-.37-.41-.31.71-.33-2.14-1.11-2.24.25-.95-.18-2.17-.52-3.42-.37-1.29-.76-3.22-1.47-4.06,0-.46-.64-1.3-.15-1.48-.56-.5-.79-1.64-.84-2.18.41-.13.61.09.67.58.59-.22-.1-.55.13-.93.88-.2,1.24-.32,2.16-.45,1.86,2.15,3.87,3.62,6.22,5.2.94-2.57,1.82-5.16,2.91-7.64.33-.22.28.21.36.41.6-.22.4-.91.51-1.41.56,0,.76.66,1.59.21.23.12.27.58.37.91.38,0,.4-.23.68-.3.32.94.81,1.6,1.43,2.02-.19.1-.25-.03-.31-.17,0,1.3.99,5.4,2.24,7.41.13,2.05,2.45,5.23,2.02,7.59Z"/>
    <path class="cls-3" d="M214.35,203.48c-.06.38.52.18.54-.19.31.09-.33.52.18.54-.4-.1-.5.69-.83.81.23-.03.52.12.61-.32.45.25.5.63.2,1.14.6.09,1.11-.09,1.44-.81.83.34,1.1-.91,1.98-.4.26.15.26-.4.42-.54.28-.24.34.46.67.16.12.09,0,.28-.06.42.89-.17,1.5,1.06.99,1.98-.31-.14-.55-.06-.72.25.38.4.29-.52.67-.13-.16.33-.31.64-.47.97-.52-.58-.11.15-.6.31-.12-.09.03-.28-.12-.35-.52.02-.64.48-.77.98-.12-.07-.25-.13-.36-.18-.15.18-.02.28.12.36-.43.07-.39-.08-.53.49-.52-.32-.79.08-1.02.56-.4-.28-.54.21-.9.02-.46.35.32,1.04-.41.85-.05.17.18.23.24.12.15.11-.04.35-.11.54-.26-.08-.37-.2-.25-.41-.4-.08,0,.38-.29.61.39.24.45-.46.9-.02-.18.07-.36.14-.54.19,1.28,1.01.78,3.5,1.46,5.05-.25.06-.37,0-.48-.23.03.15,0,.34-.11.54.66-.22.64.8.68,1.38-.2-.09-.4-.2-.61-.29.06.21.24.39-.05.72-.29-.07-.15-.28-.06-.48-.34,0-.4.82-.84.5.08-.16.16-.33.24-.49-.5.83-1.13.19-1.5.93-.62-.13-.31-.79-.85-.41-.37-.3-.31-.76-.86-1.01.32-1.03-.13-2.29.44-3.08-.12.02-.27.03-.43-.06.63-1.43-.46-2.26.13-3.68-.39-.51-.42-1.14-.87-1.62.06-.23.21-.18.37-.13-.82-.85-.33-2.19-.89-3.12.06-.12.2-.03.31,0,.04-.16-.3-.34-.37-.17-.27-.17.3-.27.36-.44-.24.05-.04-.83-.43-.65.28-1.03-.28-2.41-.53-3.56-.47.15-1.06-.12-1.04-.65.52-.45,1.33-.05,1.61-1.17-.12-.05-.15.09-.23.18.13-.98,1.65-.48,2.22-1.19.69.42.79-.82,1.5-.32,1.07-.71,2.11-1.49,3.36-1.68.12-.25.24-.49.36-.74.25.15.43.09.54-.19.11.1-.04.28.12.36.33.07.35-.76.66-.73.22.19.87.23.79.53.34.12-.05-.29.23-.49.04.14.58.67.67.17.16.28.89.36.5.84.64-.46.54.73,1.22.58-.25.39-.3.71.18.84-2.66,2.7-6.01,3.43-8.73,6ZM214.76,215.69c-.06.12-.12.25-.18.37.49.06.81-.41,1.14-.81-.6-.64-.45.85-.96.44ZM215.76,217.36c-.16-.08-.09-.23-.31-.3-.32.35-.03.49.31.6.02-.2.45-.56.17-.66-.06.12-.11.24-.17.36Z"/>
    <path class="cls-3" d="M249.67,191.25c-.36,2.83-.12,2.86.69,6.29,1.89-.09,3.72-.03,5.57-.03-.68-1.69-1.1-4.04-1.63-6.11,1.17-1.22,3.99-2.41,5.51-1.08.34.78-.36.51-.02,1.29-.36.34-.76-.03-1.17.45-.24,1.29.54,4.32,1,5.8-.89.34.55,3.09-.11,3.67.44.44.61,1.57.8,2.63.98-.09,1.73.41,2.63.56.48,1.15-.35.95-.04,1.94-1.39-.27-4.44-.15-5.23,1.02-.35-.15-.7-.29-.88-.9.55-1.99-.52-5.14-.75-7.35-1.87-.82-3.34.98-4.91.53-.2.14,0,.67-.46.52.62,1.69,1.5,5.61,1.49,8.28-1.69.9-2.69.09-3.76.74-.33-.8-1.3-.05-1.77-.51-.43-.71-.18-1.14-.23-1.88.55.42,1.22.58,1.83.06-.29-1.2.33-3.22-.73-3.71-.96-4.04-.92-6.54-1.42-9.36-.54-.52-1.43-.15-1.67-1.39,2.12-.39,3.32-1.64,5.29-1.46Z"/>
    <path class="cls-3" d="M283.81,187.7c-.43-.26-.36.4-.5.53-.27-.63-.53.05-.81-.28.46,3.88,1.71,8.03,1.84,11.78-.66.07-1.32.35-1.97.9.14.08.28-.02.41.23-.86-.35-1.29-.07-2.21-.88,1.26-1.03.45-2.8.83-4.15-.16-.31-.32-.15-.48-.53.07-.06.16-.12.24-.18-.14-.08-.28.02-.42-.23.3-.08.11-.33.33-.41-.55-.23-.17-.58-.56-1.01.6-.09-.15-.65.33-.77-.39-.36-.3-.64-.57-1.01.11-.13.22,0,.33-.06-.73-.95-.33-2.24-.89-3.43-1.2.27-2.36.26-3.36,1.38-.7-.23-1.41-.1-2.11-.22-.28-1.38.94-2.27,1.06-3.27.33.34.66-.27.99.16,2.39-1.16,5.06-.83,7.19-1.35.6-.52,1.2-.53,1.8-.96.49.69.7,1.34,1.31,1.54,0,.65-.29,1.2-.17,1.9-1.17-.09-2.09.59-2.7.72-.4-.13.43,0,.09-.41ZM282.22,198.98c.12.16.14.28.17.41.15-.25.69.03.57-.42-.25.43-.49-.24-.73,0ZM274.74,189.01c.29-.16.3-.43.09-.77-.37.14-.3.43-.09.77Z"/>
    <path d="M313.68,191.38c-2.18-1.43-5.16-2.34-6.67-4.19.33-1.17,2.02-1.58,1.64-2.71.33.38.54-.09.57-.46-.09.23-.66.06-.58-.15.8-.03-.27-.78,0-1.79-1.87-.63-3.54-2.32-5.33-1.92-.42.97-1.72.47-2.5.86-.07.61-.24,1.05-.67,1.02.16.3.63.77.18,1.08.22.15.55.21.61.46.36,1.19.4,2.26.71,3.75.25,1.2.36,2.44.61,3.57.2.9.38,1.8.46,2.35.11.68-.13,2.11.65,1.5-.25.67.46.26.36.98.49-.19.59-.17.95.23.4-.5.83-.95,1.74-.61.66-2.23-1.5-3.68-1.51-5.88,2.02.49,2.89,2.54,4.41,3.33,1.32.68,2.26.4,3.92.52.13-.89.46-1.35.46-1.97ZM305.84,185.42c-.03.26-.3.67.14.63-.27.31-.53.13-.85-.06l-.45-.52c-.07-.02-.09-.07-.1-.12l-.24-.29c-.55,0-.23.53-.37.95-.34-.73-1.02-2.3-1.01-3.67.63-.27,1.61.19,2.17.69l1.68.71c.02.34-.5,1.04.05,1.06-.53-.09-.5.73-1.01.64Z"/>
  </g>
  <g>
    <polygon class="cls-4" points="72.14 122.6 19.77 199.25 22.39 202.55 122.27 199.09 86.39 133.17 75.71 120.71 72.14 122.6"/>
    <path class="cls-3" d="M104.2,159.96c3.51.51,2.58,5.9,6.25,6.23.1,3.85,2.07,5.65,4.51,6.91-.28,4.06,2.02,5.28,4.46,6.33.28.99-.4,1.13-1.12,1.24.83.82,2.79,1.35,1.33,2.9.46-.34.95-.66,1.75-.68.27,1.19-.03,1.86-1.1,1.84,1.18,1.5,4.6,4.74,2.67,5.81.6,1.01,1.92,1.22,3.61,1.01.33,4.85,3,7.12,2.99,12.33-.57-.34-2.24-1.27-1.74.68-1.07-1.12-4.14-.02-4.28-2.17-1.31,2.35-4.07-1.55-7.05,1.54-1.8.31-1.33-1.87-1.94-2.88-1.7.59.85,1.46.15,2.97-.46-.39-2-2.42-1.77.08-8.28-.57-20.59-.62-27.92.19-.03-.58-.07-1.18-.09-1.77-2.68,1.57-5.81,1.88-8.31.4-1.61,2.32-12.63,2.39-16.01.81-6.52,3.75-21.02.21-24.17,4.16-5.11-2.87-13.92.37-20.31-1.97-.61-1.86.39-2.28,1.04-3.03-2.39-.09-1-.46-1.38-4.1,2.76-.89,3.9-3.25,3.84-6.72,2.74.43,1.19-3.06,4.02-2.59-.51-1.79-.47-1.11-.15-2.96,4.03.46,1.59-4.98,5.09-5-.41-.58-1.39-.54-1.27-1.73,2.38.66,1.11-2,3.5-1.36-.05-.98-.1-1.98-.15-2.96.51-.48,1.31-.7,2.34-.7,3.48-8.95,9.99-15.13,13.69-23.87,2.05-.03,2.69-1.33,2.19-3.67,1.74.07,1.75-1.44,3.51-1.36,1.44-7.95,9.01-10.36,10.39-18.36,6.51-1.46,4.95-10.23,11.3-11.85-.41-.58-1.39-.55-1.28-1.72,1.96-.12,2.9-1.16,5.32-.86,2.66,1.89-.7,3.07,3.1,2.82-2.45,2.68.76,10.53,3.43,9.33.89.15.16,4.49,3.17,4.01-.32,1.84.73,2.14.78,3.53,7.64,6.37,9.1,19.56,16.74,25.92.26,1-.41,1.14-1.13,1.25ZM69.54,132.55c-1.87.83-.53-1.9-2.43-1.07-.9.3-.4,1.9-2.29,1.31-.73,3.12-1.47,6.22-4.4,7.36-.71,3.28,1.67,3.15,2.61,4.62-4.12,3.02-4.14,12.7-11.43,9.48.67,1.77,2.84,1.85,3.17,4-1.56.82-2.72,1.12-3.5,1.36,2.53,2.06-.66,1.55-1.64,3.06-2.53,3.93-3.9,10.12-8.35,11.11-.16,2.88-1.21,4.96-3.9,5.54,1.5,3.07-.87.42-1.71,1.87,3.82.72-2.44,2.6.22,4.15-4.22.89-3.19,6.54-6.12,8.63-.38-1.03.55-3.53-.76-3.54,0,.93.19,2.05-1.1,1.84-.63,1.95,1.94.36,1.31,2.31-2.46.61-2.01,3.85-3.29,5.52,6.18-1.36,16.23-1.47,23.13-1.15.1-.46-.04-1.17.53-1.21,23.01,2.1,41.35-1.48,69.44-2.24-1.29-6.24-6.79-9.22-8.95-12.64-.72-5.27-5.7-5.8-5.92-11.59-2.66.4-2.28-2.11-1.96-3.46-2.36.06-4.5-3.77-2.6-4.63-1.85,1.01-1.99-.34-3.62-1.01-4.28-12.94-14.51-22.09-19.43-32.32.02.6-1.01.79-1.19.05.72-.09,1.39-.24,1.13-1.24-1.65.57-1.58-.76-3-.45-2.87,4-4.15,9.46-8.94,11.74,1.25,2.03-.44,2.88-1.57,4.24-.71-2.35-.14-4.62.87-6.58.98-.04.4,1.62,1.27,1.72.13-2.55,2.17-7.4,3.91-4.95-.06-.82.21-1.31.49-1.8Z"/>
  </g>
  <text class="cls-6" transform="translate(50.42 188.29)"><tspan class="cls-7" x="0" y="0">1</tspan><tspan x="19.98" y="0">4</tspan></text>
</svg>