<?xml version="1.0" encoding="UTF-8"?>
<svg id="Layer_1" xmlns="http://www.w3.org/2000/svg" viewBox="0 0 400 400">
  <defs>
    <style>
      .cls-1 {
        stroke: #000;
        stroke-miterlimit: 10;
        stroke-width: 1.03px;
      }

      .cls-2, .cls-3 {
        fill-rule: evenodd;
      }

      .cls-4 {
        font-family: AmericanTypewriter-CondensedBold, 'American Typewriter';
        font-size: 44px;
        font-weight: 700;
      }

      .cls-4, .cls-5 {
        fill: #fff;
      }

      .cls-6 {
        fill: #caeaef;
      }

      .cls-3 {
        fill: #1bb24b;
      }

      .cls-7 {
        letter-spacing: -.04em;
      }

      .cls-8 {
        fill: #3d9b46;
      }

      .cls-9 {
        fill: #afd363;
      }

      .cls-10 {
        fill: #f26921;
      }
    </style>
  </defs>
  <g>
    <polygon class="cls-3" points="73.55 173.75 21.19 250.4 23.8 253.7 123.69 250.23 87.81 184.32 77.13 171.85 73.55 173.75"/>
    <path class="cls-2" d="M105.61,211.11c3.51.51,2.58,5.9,6.25,6.23.1,3.85,2.07,5.65,4.51,6.9-.28,4.06,2.02,5.29,4.46,6.32.28,1-.4,1.13-1.12,1.25.83.81,2.79,1.35,1.33,2.9.46-.34.95-.66,1.75-.68.27,1.19-.03,1.86-1.1,1.84,1.18,1.5,4.6,4.74,2.67,5.81.6,1.01,1.93,1.21,3.61,1.01.33,4.86,3,7.12,2.99,12.34-.57-.33-2.24-1.28-1.74.68-1.07-1.12-4.14-.02-4.28-2.17-1.31,2.35-4.07-1.55-7.05,1.54-1.8.3-1.33-1.87-1.94-2.88-1.7.59.85,1.45.15,2.96-.46-.38-2-2.41-1.77.09-8.28-.58-20.59-.62-27.92.19-.03-.59-.07-1.18-.09-1.77-2.68,1.57-5.81,1.88-8.31.4-1.61,2.32-12.63,2.38-16.01.8-6.52,3.76-21.02.22-24.17,4.16-5.11-2.87-13.92.38-20.31-1.96-.61-1.87.39-2.28,1.04-3.03-2.39-.09-1-.46-1.38-4.09,2.76-.89,3.9-3.25,3.84-6.72,2.74.42,1.19-3.06,4.02-2.59-.51-1.8-.47-1.11-.15-2.96,4.03.46,1.59-4.98,5.09-5-.41-.58-1.39-.55-1.27-1.73,2.38.66,1.11-2,3.5-1.36-.05-.99-.1-1.98-.15-2.96.51-.48,1.31-.7,2.34-.7,3.48-8.95,9.99-15.13,13.69-23.86,2.05-.03,2.69-1.33,2.19-3.67,1.74.07,1.75-1.44,3.51-1.37,1.44-7.95,9.01-10.35,10.39-18.35,6.51-1.46,4.95-10.24,11.3-11.85-.41-.58-1.39-.55-1.28-1.72,1.96-.12,2.9-1.16,5.32-.86,2.66,1.88-.7,3.07,3.1,2.82-2.45,2.68.76,10.53,3.43,9.33.89.15.16,4.49,3.17,4.01-.32,1.83.73,2.13.78,3.52,7.64,6.37,9.1,19.57,16.74,25.92.26,1-.41,1.15-1.13,1.25ZM70.96,183.7c-1.87.83-.53-1.9-2.43-1.07-.9.3-.4,1.9-2.29,1.31-.73,3.12-1.47,6.22-4.4,7.36-.71,3.27,1.67,3.15,2.61,4.62-4.12,3.02-4.14,12.69-11.43,9.47.67,1.77,2.84,1.86,3.17,4.01-1.56.81-2.72,1.12-3.5,1.36,2.53,2.06-.66,1.55-1.64,3.06-2.53,3.93-3.9,10.12-8.35,11.11-.16,2.87-1.21,4.96-3.9,5.53,1.5,3.08-.87.43-1.71,1.87,3.82.72-2.44,2.61.22,4.16-4.22.89-3.19,6.54-6.12,8.62-.38-1.02.55-3.52-.76-3.53,0,.93.19,2.05-1.1,1.84-.63,1.95,1.94.36,1.31,2.31-2.46.6-2.01,3.85-3.29,5.52,6.18-1.37,16.23-1.47,23.13-1.15.1-.46-.04-1.17.53-1.21,23.01,2.1,41.35-1.48,69.44-2.24-1.29-6.24-6.79-9.22-8.95-12.64-.72-5.27-5.7-5.8-5.92-11.59-2.66.4-2.28-2.11-1.96-3.46-2.36.06-4.5-3.78-2.6-4.63-1.85,1.01-1.99-.34-3.62-1.01-4.28-12.94-14.51-22.09-19.43-32.32.02.6-1.01.79-1.19.05.72-.09,1.39-.24,1.13-1.25-1.65.58-1.58-.76-3-.44-2.87,4-4.15,9.45-8.94,11.73,1.25,2.04-.44,2.89-1.57,4.25-.71-2.35-.14-4.62.87-6.59.98-.03.4,1.63,1.27,1.73.13-2.55,2.17-7.4,3.91-4.95-.06-.82.21-1.31.49-1.8Z"/>
  </g>
  <text class="cls-4" transform="translate(52.81 244.57)"><tspan class="cls-7" x="0" y="0">1</tspan><tspan x="20.24" y="0">6</tspan></text>
  <g>
    <polygon class="cls-6" points="376.23 258.13 369.54 258.01 362.84 258.03 356.14 258.35 349.44 258.22 342.73 258.18 336.03 258.08 329.33 257.88 322.63 257.96 315.94 258.25 309.24 258.37 302.54 258.27 295.84 258.44 289.14 258.31 282.44 258.37 275.74 258.16 269.03 257.81 262.33 257.9 255.63 258.18 248.93 257.87 242.23 258.47 235.53 258.21 228.82 258.34 222.12 258.44 215.41 257.85 208.71 258.44 202.01 257.8 195.3 258 188.6 258 181.9 258.42 175.19 258.2 168.49 257.9 161.78 258.03 155.08 258 148.37 257.83 141.66 258.21 135.16 257.92 135.06 251.46 135.15 244.79 135.13 238.11 134.73 231.44 134.63 224.76 134.93 218.09 135.26 211.41 135.27 204.74 135.26 198.06 135.06 191.38 134.84 184.71 135.04 178.03 134.96 171.36 135.04 164.68 135.3 157.99 135.02 151.38 141.65 150.95 148.35 151.16 155.05 151.62 161.75 151.32 168.45 151.15 175.15 151.21 181.86 151.21 188.55 150.99 195.25 151.32 201.95 151.4 208.65 151.57 215.35 151.51 222.05 151.14 228.75 151.1 235.45 151.01 242.15 151.36 248.85 151.61 255.55 151.35 262.26 151.44 268.96 151.57 275.66 151.58 282.36 151.04 289.07 151.32 295.77 151.06 302.48 151.47 309.18 151.31 315.89 151.02 322.59 151.15 329.29 151.31 335.99 151.55 342.7 151.14 349.4 151.09 356.11 151.25 362.81 151.26 369.53 151.61 376.16 151.39 376.57 157.98 376.29 164.66 376.59 171.33 376.13 178.01 376.28 184.68 376.46 191.36 376.13 198.04 375.92 204.71 376.43 211.39 376.23 218.06 376.49 224.74 376.24 231.42 375.91 238.09 376.41 244.77 376.39 251.45 376.23 258.13"/>
    <path d="M183.03,248.56c-.9,1.16-1.81,1.96-3.13,1.23-.67.65-1.16,1.44-1.84,1.69-.7.25-1.6-.02-2.41-.09-1.26-.12-2.36-.64-3.42-1.32-.9-.57-1.89-1-2.83-1.5-1.09-.58-2.15-1.19-3.25-1.77-.94-.49-1.89-.98-2.86-1.42-1.19-.54-2.39-1.08-3.62-1.56-3.67-1.44-6.41-4.2-8.63-7.18-3.18-4.26-6.36-8.62-8.32-13.66-.24-.61-.5-1.23-.64-1.86-.3-1.4-.75-2.69-1.89-3.65-.12-.1-.21-.25-.29-.4-1.53-2.67-2.21-3.81-.2-6.51-.18-1.7-.51-3.42-.51-5.13,0-2.95-.04-5.94.36-8.86,1.04-7.61,3.71-14.67,8.15-20.97,3.73-5.29,8.62-9.25,14.43-12.07.74-.36,1.53-.62,2.32-.83,4.37-1.16,8.76-2.3,13.3-2.54,4.57-.25,9.02.27,13.11,2.61,2.11,1.2,3.83,2.86,5.43,4.62,1.2,1.31,2.54,2.31,4.15,3.01,3.58,1.55,6.58,6.42,6.42,10.31-.05,1.22-.55,2.23-1.25,3.16-1.54,2.03-3.11,4.04-4.67,6.06-.5.65-1,1.3-1.46,1.99-.22.33-.34.72-.52,1.11,2.83.54,2.94.87,1.21,3.17-.2.26-.37.54-.56.82.25.61.65,1.19.67,1.78.02.62-.24,1.29-.53,1.87-.51,1.03-1.16,1.99-1.71,3-.67,1.22-1.33,2.46-1.95,3.71-.4.81-.69,1.6-.33,2.59.18.51-.04,1.33-.35,1.83-.93,1.51-1.66,2.99-1.16,4.85.14.5-.14,1.11-.25,1.77,1.54.85,1.99,2.32,2.2,3.91.06.41.16.81.23,1.21.21,1.16.78,1.93,2.04,2.14,1.89.3,3.19,1.28,3.3,3.47,1.39,0,2.69,0,3.99,0,1,0,1.97.09,2.81.73,1.4,1.06,1.35,2.45-.15,3.37-.47.29-.96.53-1.65.9,1.19.63,2.16,1.15,3.24,1.73.41-.27.87-.6,1.36-.9,1.03-.63,2.07-.69,2.89.29.78.93,1.65.89,2.66.57.78-.25,1.59-.45,2.39-.6,1.43-.28,2.8-.1,4.01.75,1.35.94,1.31,2.5-.22,3.09-1.59.61-3.32.9-5.01,1.18-2.67.44-5.37.74-8.05,1.15-.45.07-1.01.32-1.25.68-1.6,2.35-3.85,2.91-6.49,2.53-.16-.02-.33.01-.49.04-.08.01-.15.07-.47.23.84.26,1.53.43,2.17.69.53.21,1.07.46,1.51.8.66.51.57,1.46-.17,1.85-.42.23-.92.32-1.4.42-.8.18-1.66.2-2.41.49-4.13,1.58-8.4,1.13-12.66,1.07-1.89-.03-3.48-.85-5.37-1.66ZM165.17,225.39c-.42-.42-.85-.84-1.27-1.26-.09.12-.17.23-.26.35.52.29,1.04.59,1.56.88,1.14,1.39,2.67,1.93,4.4,2.03,1.03,1.36,2.39,2.29,3.9,3.05-.87-.91-1.83-1.71-2.81-2.49-.31-.25-.68-.42-1.02-.63-.55-.66-1.11-1.31-1.7-2.02-1.04,1.17-1.9.16-2.79.1ZM183.47,198.2c-2.61,2.57-4.15,5.73-5.2,9.16,1.24-2.02,2.38-4.1,3.52-6.18.55-1,1.11-2,1.66-2.99.74-.46,1.23-1.12,1.55-1.92-.77.44-1.35,1.03-1.54,1.94ZM155.27,198.71v-3.09l-.45.03c.16,1.01.32,2.02.49,3.03-.33,4.12.78,7.99,2.18,11.78,1.61,4.34,4.45,8.58,6.41,9.82-.34-.54-.63-1.04-.95-1.52-3.14-4.69-5.47-9.73-6.63-15.27-.34-1.6-.7-3.19-1.05-4.78ZM185.46,223.86c.03,1.94.31,3.8,1.72,5.31-.59-1.76-1.17-3.53-1.76-5.29.02-.25.04-.49.04-.74.01-4.5,1.26-8.55,4.3-11.97.37-.42.55-1,.82-1.5-.81.21-1.31.69-1.9.91-.55.2-1.2.13-1.89.18-1.86,3.95-2.16,8.14-1.66,12.44.03.23.21.44.32.66ZM169.14,214c.06.82.4,1.47,1.16,1.88-.2-.73-.49-1.42-1.16-1.87-.17-.55-.31-1.11-.52-1.64-2.84-7.21-4.28-14.68-4.05-22.44.02-.74,0-1.47,0-2.31-.14.15-.21.2-.22.26-1.47,8.85.33,17.18,4.02,25.21.16.35.51.62.77.93ZM163.19,216.99c-.83-2.17-1.23-4.42-1.47-6.72-.05-.49-.06-1-.22-1.45-.08-.23-.44-.44-.72-.51-.16-.04-.46.17-.59.34-.55.81-.63,1.75-.24,2.59.93,1.99,1.62,4.13,3.27,5.72.11.31.16.65.33.92,2.81,4.41,6.05,8.44,10.46,11.35,2.26,1.49,4.62,2.83,6.98,4.17.54.31,1.17.76,2.01.53-1.17-1.39-2.27-2.61-3.26-3.91-1.84-2.42-3.59-4.9-5.41-7.34-1.32-1.78-3.88-3.15-6.27-3.24-.9-.03-1.35-.51-1.72-1.16-.44-.76-.8-1.57-1.12-2.23-.77.36-1.4.66-2.04.95ZM210.14,239.71c-7.34.43-13.92-1.69-19.93-5.94-.52.49-1.13.59-1.89.16-2.17-1.23-4.1-2.76-5.79-4.58-2.22-2.38-3.46-5.16-3.2-8.51.09-1.15.09-2.31.06-3.46-.06-3.01.89-5.66,2.7-8.04.45-.59.92-1.16,1.35-1.77.23-.32.37-.7.55-1.05-3.43,2.32-5.04,5.62-5.33,9.57-.14,1.97-.04,3.95-.08,5.92,0,.33-.21.65-.46,1.4-1.2-2.46-1.55-4.63-1.5-6.83.06-2.15.39-4.3.6-6.5-.22.13-.36.21-.49.3-1.42,1-2.3.72-2.58-.86-.07-.4-.08-.83-.02-1.23.56-3.42,1.32-6.79,3.04-9.86.67-1.2,1.34-2.39,2.14-3.81-1.78.74-1.75,2.98-3.49,3.47-.82-1.38-.2-2.51.36-3.58,1.79-3.38,4.08-6.39,7.09-8.78,3.16-2.5,6.19-5.19,9.77-7.12.31-.17.46-.63.99-1.4-2.35.8-3.9,1.86-5.4,2.96-1.59,1.17-3.12,2.41-4.68,3.62-1.44,1.12-2.36,2.84-4.34,3.86.07-1.73.6-3,1.19-4.23.57-1.19,1.18-2.36,1.87-3.48.74-1.19,1.54-2.34,2.41-3.44.83-1.05,1.77-2.01,2.66-3.01-.73-.04-1.22.19-1.6.54-2.82,2.51-4.84,5.58-6.33,9.03-.36.83-.72,1.66-1.19,2.43-.18.28-.7.55-1.01.5-.31-.05-.75-.48-.79-.79-.14-1.13-.31-2.3-.16-3.41.28-2.03.81-4.03,1.19-6.05.08-.4-.03-.83-.08-1.72-.46.68-.7.91-.8,1.18-1.15,3.14-1.53,6.39-1.42,9.71.01.41.06.83.19,1.22.28.85.73,1.48,1.8,1.2.19-.05.44.1.86.21-.31.66-.53,1.25-.86,1.78-1.49,2.4-2.52,4.99-3.11,7.75-.43,2.01-.77,4.04-1.2,6.05-.09.41-.41.76-.68,1.22-2.08-2.14-2.36-4.69-2.5-7.23-.32-6.12.21-12.17,1.86-18.1.22-.8.47-1.61.35-2.8-.32.53-.48.72-.56.93-2.52,6.95-3.09,14.13-2.38,21.42.22,2.28.66,4.58,2.25,6.43.71.83.69,1.82.54,2.81-.45,2.92.05,5.72,1.08,8.46.23.62.44,1.25.72,1.84.4.83.02,1.35-.6,1.75,2.35,3.11,4.73,6.14,6.98,9.27,3,4.16,6.75,7.16,11.9,8.14.32.06.63.2.93.33.96.41.99.53.5,1.88,2.31,1.23,5.08.09,7.47,1.42-.83.97-1.95.81-2.97.9-2.5.22-4.87.79-6.89,2.38-.25.2-.38.55-.81,1.21.77-.27,1.1-.32,1.35-.49,2.04-1.37,4.37-1.88,6.73-2.26,2.68-.44,5.34-.95,7.84-2.09.65-.3,1.42-.36,2.14-.52.55-.12,1.1-.24,1.65-.35,3.72-.49,7.43-.96,11.14-1.47.44-.06.86-.34,1.44-.58-.85-1.01-1.73-1.12-2.73-.82-3.28.97-6.56,1.94-9.83,2.91ZM168.19,233.81c-1.61-.62-2.97-1.14-4.34-1.67-1.31-.5-2.64-.93-3.91-1.51-1.31-.6-2.96-.31-4.17-1.58.41-.27.72-.56,1.08-.7,2.26-.88,4.54-.73,6.74.16,2.51,1.02,5.01,2.09,7.46,3.24,1.43.67,2.87,1.27,4.44,1.58-3.08-1.87-5.5-4.75-9.06-5.82-5.56-3.19-9.96-7.51-12.87-13.26-.42-.83-.99-1.71-.54-2.92,1.39.67,1.68,2.05,2.45,3.03.81,1.03,1.53,2.14,2.38,3.15.85,1,1.77,1.95,2.72,2.86.91.87,1.83,1.77,3.11,2.19-.35-.76-.82-1.4-1.31-2.01-3.27-4.1-5.71-8.61-7.1-13.71-.92-3.37-1.11-6.81-1.33-10.25-.08-1.29.2-2.62.47-3.91.14-.65.31-1.48,1.44-1.59.75,1.87.03,3.87.47,5.76.42,1.84.49,3.75.85,5.6.37,1.91.79,3.82,1.58,5.72.35-.21.55-.32.74-.45,1.64-1.09,2.75-.68,3.19,1.21.09.4.08.82.14,1.22.21,1.46.43,2.93.66,4.39.02.13.21.23.32.35.53-.17,1.05-.34,1.74-.57.69,1.35,1.34,2.62,2.1,4.09,1.08-1.28,1.81-.28,2.75.34-1.38-2.68-2.67-5.04-3.81-7.46-1.16-2.46-1.89-5.07-2.58-7.71-.72-2.74-1.01-5.52-1.06-8.3-.05-2.7.1-5.44.52-8.1.41-2.63,1.25-5.2,1.96-8.08-2.3.84-4.36.84-6.51.54-2.19-.31-4.26.91-5.51,2.89.58.58,1.2,1.2,1.81,1.84,1.66,1.75,1.72,3.69.16,5.5-.32.37-.75.66-1.05,1.04-.75.97-1.58,1.91-2.13,2.99-.63,1.25-1.32,2.23-2.81,2.48-.81.13-1.15.74-1.38,1.54-.32,1.15-.85,2.24-1.4,3.63.14.28.44.89.91,1.83.33-.5.48-.8.7-1.04.28-.3.58-.6.92-.8.72-.42,1.6-.03,1.69.8.08.81.12,1.68-.1,2.44-.58,2.05-1.26,4.08-2,6.09-.22.59-.68,1.14-1.15,1.57-1.09,1.01-2.15.72-2.65-.68-.24-.66-.41-1.34-.61-2.02-.3,1.52-.43,2.99-.26,4.43.15,1.33.73,2.55,2.17,3.05,1.03.35,1.59,1.14,1.96,2.09.33.84.61,1.7.9,2.56.74,2.18,1.42,4.38,2.22,6.54.72,1.94,1.73,3.7,3.1,5.3,1.17,1.36,2.09,2.94,3.2,4.37.8,1.03,1.61,2.11,2.63,2.91,1.67,1.32,3.46,2.52,5.29,3.61,2.75,1.64,5.58,3.14,8.37,4.71,1.12.63,2.31.79,3.64.56.26-.65.52-1.3.83-2.1,1.04.26,1.97.5,2.85.72q1.46-1.62,3.35-.82c1.91.82,3.87,1.22,5.97,1.27,3.4.08,6.73-.07,9.96-1.22.38-.14.81-.16,1.2-.27.33-.1.64-.27,1.38-.59-1.37-.28-2.26-.43-3.13-.65-.81-.21-1.07-.65-.84-1.47.11-.41.36-.78.59-1.24-2.83.23-5.37.78-7.61,2.32-.13.09-.29.17-.44.22-.64.19-1.3.37-1.8-.28-.41-.54-.33-1.44.37-1.99.9-.7,1.91-1.26,2.91-1.83.53-.3,1.12-.5,2.07-.91-5.45-1.64-10.46-3.16-15.69-3.79-2.61-.32-5.22-.57-7.82-.96-1.14-.17-2.23-.36-3.41-.12-.82.17-1.79.37-2.47-.47.26-1.2,1.37-1.3,2.4-1.92ZM148.54,182.61c.24-1.03,1.1-1.15,1.88-1.4.86-.27,1.84-.37,2.53-.86,2.41-1.73,5.03-2.18,7.95-1.96,4.34.32,7.44-2.45,8.01-6.88-1.39-.99-2.59-1.37-4.09-1.09-2.9.55-5.89.73-8.59,2.12-.29.15-.78-.11-1.71-.27.98-.65,1.46-1.14,2.04-1.33,1.72-.55,3.46-1.08,5.22-1.41,1.09-.2,1.98-.54,2.85-1.26,3.4-2.8,7.55-2.09,9.95,1.6.22.35.43.71.68,1.03,1.01,1.33,2.31,2.03,4.03,1.99,1.43-.03,2.74-.31,4.01-1.02,2.28-1.27,4.4-1.09,6.2.97.08.09.29.06.44.08,1.04-.91-.77-1.74-.1-2.72.78-.03,1.2.44,1.58.98.72,1.01,0,2.03-.11,3.07.44.12.75.23,1.06.29,1.76.37,2.58,1.58,3.01,3.22.58,2.21.31,4.26-1.03,6.11-.96,1.33-2.01,2.61-3.09,3.84-1.44,1.65-2.4,3.51-2.93,5.63-.32,1.29,0,2.23,1,3.05,1.02.84,2.09.89,3.21.29.64-.34,1.25-.73,1.99-1.16-1.24-2.85-.18-5.18,1.28-7.49.96-1.52,1.87-3.13,2.44-4.83.78-2.33,1.21-4.78,1.78-7.18.07-.32.06-.65.08-.98.06-1.57-.42-2.84-1.73-3.87-1.35-1.06-2.51-2.36-3.81-3.48-1.49-1.28-2.97-2.61-4.6-3.69-3-1.97-6.49-2.46-9.95-2.37-6.68.17-13.18,1.16-19.25,4.39-4.7,2.5-8.6,5.85-11.63,10.1-6.28,8.82-9.08,18.73-8.53,29.55.07,1.39.32,2.78.45,4.17.08.82.09,1.64-.54,2.32-.86.95-.6,2.01-.11,2.99.33.65.77,1.28,1.28,1.79.74.73,1.08,1.6,1.42,2.54.7,1.93,1.43,3.85,2.28,5.72,1.53,3.31,3.85,6.12,5.89,9.11,1.21,1.78,2.7,3.29,4.11,4.89.62.7,1.28,1.33,2.59,1.82-1.61-2.26-2.81-4.26-4.31-5.98-2-2.29-3.31-4.89-4.25-7.73-.72-2.19-1.44-4.37-2.17-6.56-.37-1.11-.81-2.14-2.1-2.53-.92-.28-1.44-1.06-1.84-1.9-1.22-2.59-1.17-5.25-.46-7.96.04-.16.12-.31.2-.45.48-.84,1.48-.89,1.99-.04.29.48.43,1.06.63,1.6.21.59.41,1.19.62,1.78,1.08-.14,1.33-.87,1.5-1.57.5-2.06,1.88-3.93,1.47-6.4-.65.48-1.07.88-1.56,1.15-.79.43-1.54.25-1.77-.63-.25-.97-.93-1.51-1.49-2.21-.24-.3-.41-.65-.62-1,2.31-1.09,2.34-1.08,2.93-3.49.27-1.09.92-1.81,1.96-1.97,1.25-.2,1.73-1.02,2.3-1.98.75-1.26,1.72-2.39,2.61-3.55.3-.39.71-.69.99-1.09.72-1.05.68-1.94-.19-2.9-.98-1.09-2.02-2.12-2.8-2.92-1.22-.59-2.13.66-3.1-.12ZM170.98,214.85c.18-.04.35-.08.53-.12-.48-2.6-.74-5.2-.45-7.84.05-.51-.23-1.14-.55-1.58-1.15-1.58-1.58-3.41-1.99-5.27-.67-3.01-.6-6.07-.44-9.1.32-6.3,1.29-12.43,4.74-17.93,1.15-1.84.55-3.45-1.41-4.42-1.24-.62-2.57-.52-3.88-.42-.38.03-.74.33-1.21.56,1.28.51,2.38.85,3.39,1.38.91.48,1.05,1.04.78,2.08-.45,1.68-1.04,3.28-2.33,4.56-.5.5-.91,1.2-1.09,1.88-.49,1.91-1.06,3.84-1.21,5.79-.74,9.29-.08,18.43,3.54,27.16.46,1.12,1.06,2.19,1.59,3.28ZM183.24,219.47c.12.02.24.04.36.06.43-2.21.68-4.48,1.33-6.63.67-2.22,1.54-4.44,3.73-6.34v2.8c1.71-1.2,3.1-2.38,4.67-3.22,2.66-1.42,3.96-3.8,5.19-6.38-.62-.34-1.14-.64-1.85-1.03.65-1.07,1.21-2,2.07-3.41-2.05.98-3.58,1.72-5.12,2.45-.79.37-1.29.96-1.61,1.77-.79,1.96-2.18,3.46-3.76,4.81-1.18,1.01-2.3,2.09-3.41,3.09.83,1.87.81,1.86-.11,3.48-.85,1.48-1.65,2.99-2.43,4.43,1.37,1.34,1.37,1.33,1.14,2.65-.09.49-.14.99-.21,1.48ZM171.97,201.92c1.26-4.63,2.21-9.12,4.72-13.12-1.81-1.25-2.29-2.89-2.25-4.82.06-2.39.28-4.75.95-7.06.3-1.02.54-2.05.84-3.18-.51-.3-.95-.56-1.47-.87-.22.45-.39.73-.5,1.03-2.26,6.59-3.15,13.42-3.4,20.33-.06,1.79.24,3.61.46,5.4.1.78.42,1.52.64,2.28ZM196.25,194.73c.34-.49.57-.73.69-1.02.91-2.25,2.35-4.13,3.88-5.98,1.26-1.52,2.45-3.1,3.54-4.75.48-.72.86-1.65.88-2.49.05-3.04-1.42-5.42-3.73-7.8-.05.66-.08.96-.09,1.25-.16,5.19-1.33,10.09-4.13,14.53-.53.83-1.07,1.67-1.46,2.57-.5,1.15-.75,2.35.42,3.69ZM175.57,209.97c1.21-1.17,1.39-2.52,1.87-3.72,1.91-4.8,4.66-9.04,8.43-12.56,1.35-1.26,1.75-2.78,2.4-4.53-7.66,3.28-14.35,14.21-12.7,20.81ZM193.91,230.06c.04-1.2-1.07-2.05-.32-3.41.49.87.86,1.53,1.23,2.18.37-.19.58-.31.81-.4.05-.02.13.07.2.11.33,2.81.39,2.93,2.36,4.62.12-.87.39-1.68.31-2.46-.14-1.29-.37-2.72-1.6-3.4-.99-.54-1.64-1.31-2.35-2.1-.36-.39-.86-.65-1.18-.88-.63,1.21-1.14,2.3-1.75,3.34-1.27,2.17-1.04,4.82.7,6.3,2.25,1.93,4.99,2.77,8.09,3.52-.84-1.08-1.59-1.53-2.61-1.83-1.48-.43-2.87-1.17-4.28-1.84-.29-.14-.48-.49-.71-.75.08-.12.15-.23.23-.35,1.36.59,2.73,1.19,4.45,1.94-.9-1.62-1.74-2.61-3.14-3.12-.78-.28-1.63-.65-2.2-1.79.72.12,1.16.19,1.75.29ZM169.06,234.99c1.12.18,2.17.35,3.22.51,1.22.19,2.43.53,3.65.55,4.48.06,8.79,1.08,13.08,2.25.37.1.75.19,1.13.28-2.26-1.2-4.61-2.11-6.91-3.16-2.36-1.07-4.67-2.27-7.42-3.61,1.09,1.6,3.11,1.69,3.43,3.44-1.4.47-1.77.47-3.11-.15-2.31-1.06-4.61-2.17-6.93-3.21-1.87-.84-3.77-1.64-5.67-2.41-1.56-.63-3.18-.85-5.05-.38,3.83,1.44,7.44,2.79,11.04,4.17.56.22,1.34.26,1.41,1.27-.62.15-1.22.29-1.86.45ZM178.4,211.89c1.28-3.4,3.64-5.83,6.68-7.66.35-.21.67-.49.96-.77,1.47-1.43,2.83-2.93,3.64-4.9-.95-.8-1.82-1.52-2.66-2.23-3.15,2.25-7.77,10.44-8.63,15.56ZM194.16,179.37c-1.43.44-2.52,1.15-3.55,1.92-2.03,1.53-4,3.14-6.06,4.64-2.29,1.67-4.05,3.82-5.69,6.08-.25.35-.42.76-.63,1.14.77-.23,1.21-.7,1.64-1.17,2.02-2.19,4.27-4.07,6.92-5.46,1.74-.92,3.42-1.95,5.2-2.81,1.84-.88,2.36-2.3,2.17-4.35ZM181.8,184.2c3.21-3.14,7.04-5.3,10.82-7.78-1.67-.48-3.1-.89-4.86-1.4-2.66,2.34-4.5,5.63-5.96,9.18ZM191.86,225.66c0-2.28.03-4.31,0-6.35-.02-1.5-1.12-2.24-2.48-1.58-.69.34-1.33.96-1.78,1.6-.49.71-.72,1.59-1.13,2.57,3.01.03,2.24,2.37,2.69,3.98.86-.07,1.65-.14,2.71-.22ZM186.14,172.61c-.68,0-.99-.1-1.14.02-1.35,1.02-2.85,1.55-4.55,1.55-.87,0-1.34.59-1.49,1.38-.5,2.65-.97,5.3-1.41,7.96-.06.33.1.7.16,1.05,2.01-4.47,4.51-8.44,8.42-11.95ZM187.17,217.78c.98-.47,1.78-1.07,2.66-1.2.88-.14,1.84.19,3.08.36-.96-1.36-.59-2.43-.03-3.49.31-.58.61-1.16.89-1.76.17-.36.43-.75.43-1.12-.02-1.01-.16-2.02-.26-3.15-.96.49-1.44,1.35-1.97,2.15-.5.75-.88,1.61-1.49,2.25-1.56,1.67-2.43,3.68-3.3,5.95ZM202.32,230.99c.48,1.12.9,2.09,1.31,3.07.69,1.64,1.74,2.98,3.27,3.9.41.25.93.58,1.34.51,1.74-.3,3.61-.15,5.38-1.31-.39-.46-.69-.82-.97-1.15-.33.17-.51.22-.62.33-1.21,1.23-2.44,1.56-3.86.26-.32-.29-.92-.27-1.39-.41-.85-.24-1.5-.71-1.62-1.65-.12-.96.48-1.52,1.2-1.98.5-.32,1.02-.62,1.62-.99q-1.83-1.27-5.66-.57ZM182.38,227.09c0-1.06.05-1.72,0-2.36-.14-1.62,1.04-3.35-.4-4.88-.11-.12.02-.47.07-.71.11-.56.23-1.11.33-1.58-.48-.58-.87-1.07-1.37-1.67.92-1.86,1.8-3.66,2.86-5.8-.67.22-1.05.23-1.21.41-1.08,1.27-1.87,2.72-2.02,4.41-.18,2.05-.35,4.1-.35,6.15,0,2.04.19,4.1,2.09,6.03ZM205.09,238.23c-.79-1.13-1.37-1.82-1.78-2.59-.46-.86-.77-1.8-1.16-2.69-.46-1.05-1.28-1.61-2.4-1.82-.4,1.69-.59,3.45-.2,3.89,1.35,1.51,2.77,2.97,5.54,3.21ZM180.01,193.48c2.15-1.58,3.87-2.83,5.58-4.09,1.72-1.27,3.78-2.06,5.63-3.92-4.45,1.68-8.44,4.52-11.21,8.01ZM186.61,231.2c-1.8-2.57-1.94-5.66-2.84-8.94-.75,4.85.07,7.39,2.84,8.94ZM189.4,230.47c.48-1.26.88-2.33,1.33-3.53-.82.16-1.48.29-2.35.46-.27-1.34-.51-2.54-.74-3.73-.78,2.55.14,4.62,1.76,6.8ZM193.27,219.97c-.84,2.54-.68,2.93,1.4,3.34-.03-1.31.08-2.6-1.4-3.34ZM206.69,241.53c-1.35.46-2.7.91-4.34,1.47,1.9.2,3.48.41,4.34-1.47ZM199.33,229.54q.76-1.22-.44-2.11c.17.81.28,1.34.44,2.11ZM189.18,201.45c.89-.27,1.31-.87,1.22-1.79-.41.6-.81,1.19-1.22,1.79Z"/>
    <path d="M354.06,173.35c.92-.53,1.13-1.43,1.14-2.32.02-1.89-.06-3.77-.15-5.66-.03-.65-.25-1.3-.29-1.95-.2-2.83,1.12-5.07,3.56-6.11,2.12-.9,4.78-.12,6.53,1.8,1.29,1.41,1.97,2.94,1.63,4.92-.27,1.62-.32,3.28-.65,4.88-.69,3.36-.07,6.54.94,9.7.78,2.42,1.55,4.84,2.37,7.25,1.19,3.49,1.38,7.12,1.1,10.73-.26,3.28-1.83,5.93-4.76,7.54-.78.42-1.55.86-2.37,1.19-.58.24-1.24.46-1.85.42-3.93-.3-8.36-2.45-8.65-7.51-.14-2.42.08-4.76.4-7.12.33-2.36.71-4.72,1.04-7.08.38-2.73-.64-4.82-2.84-6.31-.46-.31-.99-.56-1.52-.68-1.11-.25-1.96.44-1.87,1.6.08,1.06.36,2.1.61,3.14.92,3.83,1.97,7.64,2.75,11.5.62,3.05.1,6.08-1.09,8.93-1.28,3.08-3.49,4.34-6.68,3.97-4.62-.53-8.61-5.07-8.79-9.93-.17-4.73.29-9.4,1.56-13.93,1-3.57.94-7.16.81-10.78-.03-.81-.21-1.64-.47-2.4-.59-1.76-.66-3.55-.53-5.37.2-2.94,2.8-5.61,5.65-5.74,1.1-.05,2.26.02,3.3.34,2.31.71,3.63,2.45,3.64,4.93,0,1.79.61,3.11,1.74,4.41.88,1.03,1.43,2.36,2.11,3.57.43.76.67,1.69,1.63,2.06Z"/>
    <path d="M243.09,232.62c-1.25.9-1.23,1.85-1.25,2.73-.04,2.3.07,4.61-.06,6.91-.09,1.62-.3,3.29-.77,4.83-.85,2.79-2.65,3.94-5.42,3.81-.71-.03-1.43-.1-2.14-.16-1.41-.11-2.63-.7-3.58-1.76-1.78-1.98-2.92-4.28-3-7.07-.09-3.39.18-6.72,1.05-10.02.77-2.9.57-5.88.14-8.81-.27-1.87-.76-3.7-1.06-5.57-.34-2.12.04-3.98,1.55-5.68,2.26-2.54,6.67-.92,7.49,1.76.47,1.54.48,3.06.33,4.63-.16,1.72-.21,3.44-.28,5.17-.03.81,0,1.63,0,2.84,1.29-.8,1.85-1.7,2.19-2.77.22-.7.27-1.49.59-2.13.57-1.16,1.14-2.39,1.99-3.31,1.56-1.69,3.49-1.48,4.98.28.98,1.16,1.38,2.58,1.74,4.01.25,1.01.46,2.04.81,3.65.47-.9.75-1.25.83-1.65.44-2.1.7-4.18.26-6.35-.26-1.27-.23-2.63-.14-3.93.19-2.78,1.64-4.22,4.03-4.18,2.64.04,4.47,1.66,4.69,4.24.19,2.16-.16,4.26-.75,6.33-.25.87-.49,1.74-.73,2.61-.51,1.86-.58,3.72-.07,5.6.28,1.03.49,2.08.76,3.11,1.2,4.73,1.22,9.44-.41,14.08-.27.77-.63,1.51-1.02,2.23-1.99,3.6-6.29,4.29-9.29,1.5-2.17-2.02-2.82-4.7-2.94-7.56-.08-1.81,0-3.62-.08-5.43-.05-1.21-.27-2.42-.45-3.92Z"/>
    <path d="M258.85,197.6c-.31,1.26-.47,2.15-.76,2.99-.38,1.08-.79,2.15-1.33,3.15-.56,1.04-1.47,1.81-2.64,1.91-2.23.19-4.46.19-6.6-.64-2.58-1-3.72-2.76-3.88-5.61-.22-4.01.52-7.86,1.59-11.67.29-1.03.55-2.06.85-3.09.78-2.76.75-5.52,0-8.28-.45-1.66-.89-3.33-1.34-4.99-.79-2.91-.16-5.52,1.55-7.91,2.36-3.29,5.69-4.61,9.48-4.95,2.96-.26,5.86.14,8.73.89,2.53.67,4.81,3.52,5.18,6.19.52,3.71-1.38,6.08-3.94,8.13-.56.45-1.22.76-2.07,1.28.47.31.82.53,1.15.77,2.48,1.74,4.43,4.01,5.79,6.76.87,1.75,1.69,3.58,2.16,5.47,1.09,4.38,1.15,8.83-.37,13.12-1.11,3.15-3.53,4.77-6.8,4.92-2.89.13-5.11-1.4-5.96-4.27-.36-1.22-.49-2.51-.79-4.17ZM259.71,195.06c.56-2.65,1.18-5.1,1.56-7.58.23-1.52.29-3.12.08-4.64-.15-1.08-.77-2.14-1.37-3.09-.23-.37-1-.6-1.49-.55-.68.06-.76.75-.75,1.35,0,.33,0,.66.05.98.62,4.45,1.26,8.9,1.91,13.53Z"/>
    <path d="M231.11,165.53c-1.16.21-1.77.96-2.33,1.71-2.02,2.72-3.38,5.77-3.94,9.12-.45,2.68.27,5.23,1.52,7.6.82,1.55,2.78,2.05,4.33,1.26,1.05-.53,1.69-1.44,2.13-2.48.57-1.31,0-2.61-1.35-3.07-.52-.18-1.08-.24-1.63-.29-.55-.05-1.11-.02-1.66-.03-1-.02-1.93-.21-2.33-1.28-.39-1.03-.27-2.08.41-2.94.81-1.02,1.82-1.76,3.21-1.8,2.66-.09,5.21.38,7.62,1.49,2.84,1.31,3.96,3.9,4.22,6.76.35,3.89.24,7.82-.62,11.65-.85,3.83-2.76,7.07-5.8,9.62-2.07,1.74-4.45,2.43-7.06,2.18-2.47-.24-4.8-1.01-6.9-2.39-1.28-.84-2.33-1.91-2.99-3.32-1.8-3.86-3.14-7.84-2.99-12.17.1-2.94.04-5.94.61-8.8,1.15-5.81,2.97-11.4,7.18-15.86,1.56-1.65,3.41-2.84,5.42-3.81,1.11-.53,2.27-.68,3.47-.48.39.06.78.21,1.17.22,3.08.09,4.92,1.89,6.19,4.48,1.08,2.2,1.65,4.5,1.02,6.93-.22.82-.61,1.66-1.14,2.32-1.2,1.51-3.06,1.81-4.69.82-1.56-.95-2.67-2.24-2.58-4.25.03-.64.07-1.28,0-1.91-.05-.43-.31-.83-.49-1.29Z"/>
    <path d="M288.13,204.78c-2.45.42-5.02-.43-7.56-1.26-3.41-1.12-4.98-3.83-5.26-7.42-.26-3.4-.04-6.81,1.36-9.92,1.36-2.99.9-5.94.4-8.94-.1-.62-.47-1.21-.79-1.77-.76-1.31-1.11-2.71-1.02-4.24.06-.99.05-1.98.16-2.96.47-4.13,2.6-7,6.2-8.61,2.69-1.21,5.57-1.72,8.47-1.98,2.14-.2,4.16.67,6.22,1.15,1.47.34,2.38,1.19,3.08,2.42,1.34,2.37.18,6.56-2.16,7.79-1.83.96-3.52.31-5.09-.77-.85-.59-1.57-1.37-2.41-1.97-1.04-.75-1.67-.54-2.3.62-.08.14-.14.3-.19.45-.35.92-.8,1.9-.11,2.8.72.92,1.68.55,2.62.32,1.14-.28,2.3-.58,3.46-.6,2.81-.05,4.35,1.92,3.84,4.8-.11.64-.31,1.29-.6,1.86-.73,1.43-2.09,2-3.58,1.52-.75-.24-1.44-.66-2.19-.9-2.2-.71-3.71.14-4.26,2.49-.2.86-.27,1.82-.11,2.68.27,1.44.72,2.86,1.2,4.25.39,1.14.97,1.35,2.01.74.74-.44,1.44-1,2.08-1.6.82-.76,1.5-1.7,2.36-2.41.78-.65,1.66-1.29,2.6-1.58,2.26-.7,3.74.14,4.78,2.38,1.34,2.89,1.14,5.93.82,8.97-.18,1.72-.74,3.34-1.48,4.91-2.14,4.53-5.69,6.59-10.38,6.76-.63.02-1.26,0-2.18,0Z"/>
    <path class="cls-1" d="M353.22,221.48c1.07.41,1.94.87,2.87,1.08,1.3.3,2.59-.43,2.95-1.65.83-2.79.23-5.78-2.39-7.43-3.7-2.32-6.65-2.46-10,.26-.64.52-1.33.99-1.87,1.6-1.46,1.65-1.98,3.54-1.24,5.71.43,1.27,1.03,2.42,2.02,3.34,1.44,1.35,2.93,2.65,4.31,4.05.97.98,1.97,2,2.68,3.18.81,1.34.8,2.85-.24,4.16-1.03,1.29-2.65,1.18-3.43-.29-.34-.63-.41-1.4-.58-2.12-.43-1.74-1.71-2.85-3.47-2.98-1.65-.13-2.54.49-3.41,2.25-.88,1.78-.95,3.71-.66,5.56.55,3.45,2.11,6.31,5.32,8.15,1.97,1.13,4.02,1.18,6.18,1.22,4.08.09,6.78-1.94,8.93-5.15,1.55-2.31,2.02-4.91,1.84-7.54-.23-3.36-1.65-6.2-5.03-7.57-1.14-.46-2.31-.88-3.5-1.16-2.12-.51-3.7-1.79-4.99-3.42-1.68-2.11-1.4-5.2.52-6.96.89-.82,1.69-.86,2.66-.15,1.06.78,1.25,1.9,1.13,3.08-.08.8-.34,1.59-.6,2.76Z"/>
    <path class="cls-1" d="M305.45,220.07c.06,0,.12,0,.18.01-.17,2.29-.21,4.6-.54,6.87-.29,1.97-1.08,3.82-2.51,5.27-1.77,1.8-3.94,1.44-5-.83-.8-1.72-1.43-3.52-1.4-5.46.03-1.73.09-3.45.19-5.18.13-2.14.3-4.29-.42-6.36-.65-1.88-1.99-2.61-4.07-2.33-1.82.25-2.67,1.14-2.69,3.21-.01,1.46.23,2.94.49,4.38.19,1.05.51,2.08.89,3.08,1.58,4.19,1.91,8.47,1.09,12.87-.74,3.94.76,7.28,3.07,10.32.92,1.21,2.16,2.05,3.7,2.28,1.3.19,2.62.43,3.91.35,3.17-.2,5.38-2,6.58-4.84.59-1.41.91-3.02.95-4.55.07-2.71-.11-5.43-.31-8.13-.29-3.87-.69-7.69,1.24-11.35.85-1.61.92-3.5.67-5.33-.23-1.74-1.29-2.68-2.96-2.71-1.52-.03-2.49.79-2.86,2.5-.14.64-.18,1.31-.19,1.96-.03,1.32,0,2.64,0,3.95Z"/>
    <path class="cls-1" d="M326.61,211.6c-1.04,0-1.78,0-2.52,0-4.13.05-7.94,4.26-7.63,7.89.14,1.63.18,3.29.52,4.88.74,3.52.9,6.98-.14,10.48-.78,2.66-.67,5.37.14,8.03.63,2.08,1.79,3.71,3.88,4.5,1.46.55,2.92,1.21,4.44,1.46,2.34.39,4.74.72,6.91-.82,1.44-1.02,2.58-2.27,3.38-3.85,1.48-2.9,1.77-5.96,1.25-9.13-.15-.88-.33-1.8-.69-2.6-.63-1.4-1.93-1.79-3.27-1.03-.71.4-1.34.94-1.98,1.46-.89.73-1.7,1.57-2.63,2.24-1.57,1.12-3.02.81-3.96-.83-1.03-1.79-1.21-3.75-.75-5.73.32-1.36,1.06-1.93,2.5-1.89,1.14.04,2.27.32,3.41.47,2.26.3,3.96-1.42,3.69-3.7-.09-.73-.45-1.2-1.15-1.44-1.27-.44-2.54-.63-3.87-.29-.71.18-1.46.3-2.18.29-1,0-1.54-.5-1.69-1.45-.09-.56-.1-1.16-.03-1.72.16-1.33.92-2,2.29-2.14,1.3-.13,2.4.31,3.44,1.08.5.37,1.14.76,1.73.78,1.48.04,3.32-1.42,3.77-2.79.35-1.08,0-2.18-.99-2.47-2.66-.77-5.2-2.18-7.82-1.69Z"/>
    <path d="M273.75,231.07c-1.15.67-1.36,1.71-1.43,2.75-.06.89.11,1.8.15,2.7.09,1.89.24,3.77.24,5.66,0,2.18-.95,4.03-2.41,5.45-1.97,1.92-4.3,2.48-6.91,1.41-2.47-1.02-3.61-2.99-3.87-5.65-.2-2.02.26-3.94,1.05-5.75.82-1.86,1.68-3.71,2.62-5.51,1.36-2.64,2.17-5.41,2.38-8.43.15-2.2.64-4.38,1.02-6.57.1-.56.29-1.11.52-1.63,1.1-2.56,2.79-4.42,5.58-4.57,3.01-.15,5.45,1.05,7.03,3.9,1.18,2.11,1.61,4.42,1.72,6.84.13,2.79.31,5.58.47,8.37.07,1.17.41,2.22.91,3.28,1.47,3.12,2.55,6.36,2.37,9.93-.03.57-.03,1.16-.16,1.71-.49,2.18-1.66,3.61-3.83,4.11-4.22.97-8.32-2.36-8.21-6.92.06-2.37.53-4.72.77-7.09.13-1.26.51-2.54-.02-3.99Z"/>
    <path class="cls-8" d="M168.19,233.81c-1.03.62-2.13.72-2.4,1.92.68.83,1.65.63,2.47.47,1.17-.24,2.26-.05,3.41.12,2.6.39,5.21.65,7.82.96,5.23.63,10.24,2.16,15.69,3.79-.95.41-1.54.6-2.07.91-.99.57-2.01,1.13-2.91,1.83-.7.55-.79,1.45-.37,1.99.5.65,1.16.47,1.8.28.16-.05.31-.12.44-.22,2.24-1.54,4.79-2.09,7.61-2.32-.22.46-.47.83-.59,1.24-.23.82.02,1.26.84,1.47.87.22,1.76.37,3.13.65-.75.32-1.05.49-1.38.59-.39.12-.82.14-1.2.27-3.23,1.15-6.57,1.3-9.96,1.22-2.11-.05-4.06-.46-5.97-1.27q-1.89-.81-3.35.82c-.88-.22-1.81-.46-2.85-.72-.32.8-.58,1.45-.83,2.1-1.33.22-2.52.07-3.64-.56-2.79-1.57-5.62-3.07-8.37-4.71-1.83-1.09-3.62-2.29-5.29-3.61-1.01-.8-1.82-1.88-2.63-2.91-1.11-1.43-2.02-3.01-3.2-4.37-1.37-1.59-2.38-3.36-3.1-5.3-.8-2.16-1.48-4.36-2.22-6.54-.29-.86-.57-1.72-.9-2.56-.37-.95-.92-1.74-1.96-2.09-1.44-.49-2.02-1.72-2.17-3.05-.16-1.44-.04-2.91.26-4.43.2.67.38,1.36.61,2.02.5,1.4,1.56,1.69,2.65.68.47-.44.94-.98,1.15-1.57.74-2,1.42-4.03,2-6.09.22-.77.18-1.64.1-2.44-.08-.83-.96-1.21-1.69-.8-.35.2-.65.5-.92.8-.22.24-.37.54-.7,1.04-.47-.94-.76-1.55-.91-1.83.55-1.39,1.07-2.48,1.4-3.63.23-.8.57-1.41,1.38-1.54,1.49-.25,2.18-1.23,2.81-2.48.54-1.08,1.38-2.02,2.13-2.99.3-.39.73-.67,1.05-1.04,1.56-1.82,1.5-3.76-.16-5.5-.61-.64-1.23-1.25-1.81-1.84,1.25-1.98,3.31-3.2,5.51-2.89,2.15.3,4.21.3,6.51-.54-.72,2.88-1.56,5.45-1.96,8.08-.41,2.67-.57,5.4-.52,8.1.05,2.78.34,5.57,1.06,8.3.69,2.63,1.42,5.25,2.58,7.71,1.14,2.42,2.43,4.78,3.81,7.46-.94-.63-1.68-1.62-2.75-.34-.76-1.47-1.41-2.75-2.1-4.09-.69.23-1.21.39-1.74.57-.11-.12-.3-.22-.32-.35-.24-1.46-.45-2.92-.66-4.39-.06-.41-.05-.83-.14-1.22-.44-1.89-1.54-2.3-3.19-1.21-.19.13-.39.24-.74.45-.79-1.89-1.2-3.81-1.58-5.72-.36-1.85-.43-3.77-.85-5.6-.43-1.89.28-3.89-.47-5.76-1.13.11-1.3.95-1.44,1.59-.27,1.28-.55,2.62-.47,3.91.22,3.44.4,6.88,1.33,10.25,1.4,5.09,3.83,9.61,7.1,13.71.49.62.96,1.25,1.31,2.01-1.28-.42-2.2-1.32-3.11-2.19-.95-.91-1.87-1.86-2.72-2.86-.85-1-1.57-2.11-2.38-3.15-.77-.98-1.07-2.37-2.45-3.03-.45,1.21.12,2.09.54,2.92,2.91,5.75,7.31,10.07,12.87,13.26,3.57,1.07,5.98,3.95,9.06,5.82-1.57-.31-3-.91-4.44-1.58-2.46-1.15-4.95-2.22-7.46-3.24-2.21-.9-4.48-1.04-6.74-.16-.36.14-.66.42-1.08.7,1.22,1.26,2.86.98,4.17,1.58,1.27.58,2.61,1.01,3.91,1.51,1.37.52,2.74,1.05,4.34,1.67ZM167.47,241.87c-.23.1-.4.14-.5.24-.1.11-.2.3-.17.43.34,2.03,2.42,3.18,4.3,2.35,1.16-.51,2.04-1.36,2.56-2.54.22-.51.47-1,.71-1.53.53,0,.93-.01,1.34,0,2.54.1,5.08.24,7.63.3.72.02,1.47-.1,2.17-.28.25-.07.4-.52.76-1.04-.95-.06-1.59-.12-2.22-.15-3.59-.17-7.24.42-10.75-.86-.3-.11-.73.17-1.27.31.58,1.77.65,3.37-1.18,4.31-1.73.89-2.5-.54-3.37-1.54ZM190.68,241.47c-.47-.62-1.15-.41-1.75-.33-.89.12-1.77.35-2.66.49-3.35.53-6.51,1.7-9.61,3.02-.46.2-1.18.3-.97,1.12.15.08.33.25.43.22,4.57-1.6,9.22-2.9,13.98-3.79.21-.04.39-.28.56-.44.04-.04.02-.16.02-.28ZM187.41,246.95c-1.57-2.21-2.65-2.67-4.43-2.24-1.71.41-2.48,1.03-2.69,2.36.68-.24,1.27-.42,1.85-.66,1.19-.48,2.32-.76,3.48.14.32.25.86.21,1.79.4Z"/>
    <path class="cls-9" d="M148.54,182.61c.98.79,1.88-.46,3.1.12.78.81,1.82,1.84,2.8,2.92.87.96.91,1.85.19,2.9-.27.4-.69.7-.99,1.09-.89,1.17-1.86,2.3-2.61,3.55-.57.96-1.05,1.78-2.3,1.98-1.04.16-1.69.88-1.96,1.97-.59,2.41-.61,2.41-2.93,3.49.21.34.37.7.62,1,.56.69,1.24,1.24,1.49,2.21.23.88.98,1.07,1.77.63.49-.27.91-.67,1.56-1.15.41,2.46-.97,4.34-1.47,6.4-.17.7-.42,1.43-1.5,1.57-.2-.59-.4-1.19-.62-1.78-.2-.54-.34-1.11-.63-1.6-.51-.84-1.5-.8-1.99.04-.08.14-.16.29-.2.45-.71,2.7-.75,5.37.46,7.96.39.84.92,1.62,1.84,1.9,1.3.39,1.73,1.42,2.1,2.53.73,2.19,1.45,4.37,2.17,6.56.94,2.84,2.25,5.43,4.25,7.73,1.5,1.72,2.7,3.71,4.31,5.98-1.31-.49-1.98-1.12-2.59-1.82-1.41-1.59-2.9-3.11-4.11-4.89-2.03-2.99-4.36-5.8-5.89-9.11-.86-1.86-1.59-3.79-2.28-5.72-.34-.94-.68-1.82-1.42-2.54-.52-.51-.96-1.14-1.28-1.79-.5-.98-.76-2.04.11-2.99.63-.69.62-1.5.54-2.32-.13-1.39-.38-2.78-.45-4.17-.55-10.82,2.25-20.74,8.53-29.55,3.03-4.25,6.93-7.6,11.63-10.1,6.06-3.23,12.57-4.22,19.25-4.39,3.46-.09,6.95.4,9.95,2.37,1.64,1.08,3.11,2.41,4.6,3.69,1.31,1.12,2.46,2.42,3.81,3.48,1.31,1.03,1.78,2.3,1.73,3.87-.01.33,0,.67-.08.98-.57,2.4-1,4.85-1.78,7.18-.56,1.69-1.48,3.31-2.44,4.83-1.46,2.32-2.52,4.64-1.28,7.49-.73.43-1.35.82-1.99,1.16-1.12.6-2.19.54-3.21-.29-1-.82-1.32-1.76-1-3.05.53-2.13,1.49-3.99,2.93-5.63,1.08-1.24,2.13-2.51,3.09-3.84,1.34-1.84,1.61-3.9,1.03-6.11-.43-1.64-1.26-2.85-3.01-3.22-.31-.07-.62-.17-1.06-.29.1-1.04.82-2.06.11-3.07-.38-.54-.8-1.01-1.58-.98-.67.98,1.14,1.81.1,2.72-.15-.03-.36,0-.44-.08-1.8-2.05-3.92-2.24-6.2-.97-1.27.71-2.58.99-4.01,1.02-1.71.04-3.02-.67-4.03-1.99-.25-.33-.45-.69-.68-1.03-2.4-3.7-6.55-4.4-9.95-1.6-.87.72-1.76,1.05-2.85,1.26-1.77.33-3.51.86-5.22,1.41-.58.18-1.06.67-2.04,1.33.92.16,1.42.41,1.71.27,2.7-1.4,5.69-1.57,8.59-2.12,1.5-.29,2.7.1,4.09,1.09-.58,4.43-3.67,7.2-8.01,6.88-2.92-.22-5.53.23-7.95,1.96-.69.5-1.68.6-2.53.86-.77.24-1.63.36-1.88,1.4ZM149.88,180.14c1.29-2.47,3.48-2.92,5.86-3.01.66-.02,1.33.07,1.97-.03.79-.12,1.73-.19,2.28-.66.52-.44.63-1.37.92-2.07,1.3.08,2.61.19,3.91.23,1.22.04,2.24-.49,3.04-1.37.18-.2.1-.65.15-1.07-.46.08-.75.05-.92.17-1.44,1.06-2.98,1.08-4.69.74-1.26-.25-2.6-.14-3.91-.14-.16,0-.32.32-.49.5.33.66.65,1.27,1,1.96-1.23.7-2.4.38-3.51.42-1.5.05-2.95.26-4.26,1.01-1.23.71-1.89,1.71-1.34,3.31ZM193.33,170.59c-.18-.76-.14-1.27-.36-1.43-.64-.47-1.34-.96-2.1-1.15-1.1-.28-2.27-.42-3.41-.41-1.5,0-2.72-.42-3.66-1.62-.2-.25-.47-.46-.72-.67-1.95-1.64-5.12-1.98-7.37-.75-.24.13-.37.46-.69.89.63.05,1.05.2,1.39.09,2.82-.92,5.15-.24,7.07,2,.98,1.15,2.31,1.48,3.75,1.54.98.03,1.99-.05,2.94.17.92.21,1.77.73,3.18,1.34ZM150.64,185.4c-.58-.15-1.02-.41-1.41-.34-1.98.35-3.67,1.3-5.02,2.78-.19.21-.13.66-.25,1.41,1.37-.85,2.44-1.41,3.38-2.13.95-.72,2.44-.3,3.3-1.71ZM149.55,191.16c-2.08.27-3.84.5-5.82.76,1.06,1.34,2.21,1.48,3.45,1.16.97-.25,2.14-.34,2.37-1.92Z"/>
    <path class="cls-5" d="M210.12,239.68c-.55.12-1.1.23-1.65.35-.72.16-1.48.22-2.14.52-2.5,1.15-5.15,1.65-7.84,2.09-2.36.39-4.69.89-6.73,2.26-.25.17-.59.22-1.35.49.43-.66.56-1.01.81-1.21,2.01-1.59,4.39-2.16,6.89-2.38,1.02-.09,2.14.07,2.97-.9-2.38-1.33-5.15-.19-7.47-1.42.48-1.36.46-1.48-.5-1.88-.3-.13-.61-.27-.93-.33-5.15-.98-8.9-3.98-11.9-8.14-2.25-3.13-4.64-6.16-6.98-9.27.62-.4,1-.92.6-1.75-.28-.59-.49-1.22-.72-1.84-1.03-2.73-1.52-5.53-1.08-8.46.15-.99.17-1.98-.54-2.81-1.58-1.85-2.03-4.16-2.25-6.43-.71-7.29-.14-14.47,2.38-21.42.08-.22.24-.4.56-.93.12,1.19-.13,2-.35,2.8-1.65,5.93-2.18,11.98-1.86,18.1.13,2.54.41,5.09,2.5,7.23.27-.46.59-.82.68-1.22.43-2.01.77-4.04,1.2-6.05.58-2.76,1.62-5.35,3.11-7.75.33-.53.54-1.12.86-1.78-.42-.11-.67-.26-.86-.21-1.07.28-1.52-.35-1.8-1.2-.13-.39-.18-.81-.19-1.22-.11-3.32.27-6.57,1.42-9.71.1-.28.34-.51.8-1.18.05.89.16,1.32.08,1.72-.38,2.02-.91,4.02-1.19,6.05-.15,1.11.02,2.28.16,3.41.04.31.48.74.79.79.31.05.83-.22,1.01-.5.47-.76.83-1.6,1.19-2.43,1.49-3.45,3.51-6.52,6.33-9.03.39-.34.87-.57,1.6-.54-.89,1-1.84,1.96-2.66,3.01-.86,1.1-1.67,2.25-2.41,3.44-.69,1.12-1.31,2.29-1.87,3.48-.59,1.23-1.12,2.5-1.19,4.23,1.98-1.02,2.91-2.74,4.34-3.86,1.56-1.21,3.09-2.46,4.68-3.62,1.51-1.1,3.06-2.16,5.4-2.96-.53.77-.68,1.23-.99,1.4-3.58,1.94-6.61,4.62-9.77,7.12-3.01,2.38-5.3,5.4-7.09,8.78-.56,1.06-1.18,2.19-.36,3.58,1.74-.5,1.71-2.73,3.49-3.47-.8,1.42-1.46,2.62-2.14,3.81-1.72,3.07-2.48,6.43-3.04,9.86-.06.4-.05.83.02,1.23.29,1.58,1.16,1.86,2.58.86.13-.09.27-.17.49-.3-.21,2.2-.54,4.35-.6,6.5-.06,2.2.29,4.37,1.5,6.83.26-.75.46-1.07.46-1.4.05-1.97-.06-3.96.08-5.92.29-3.94,1.9-7.25,5.33-9.57-.18.35-.33.73-.55,1.05-.43.61-.9,1.18-1.35,1.77-1.8,2.37-2.76,5.03-2.7,8.04.02,1.15.02,2.31-.06,3.46-.26,3.35.98,6.12,3.2,8.51,1.69,1.81,3.62,3.35,5.79,4.58.76.43,1.37.33,1.89-.16,6.01,4.25,12.58,6.37,19.93,5.94l-.02-.03Z"/>
    <path class="cls-8" d="M170.98,214.85c-.53-1.09-1.12-2.16-1.59-3.28-3.62-8.73-4.28-17.87-3.54-27.16.16-1.95.72-3.88,1.21-5.79.18-.68.59-1.39,1.09-1.88,1.29-1.28,1.88-2.88,2.33-4.56.27-1.04.14-1.6-.78-2.08-1.01-.53-2.11-.87-3.39-1.38.47-.22.83-.52,1.21-.56,1.31-.11,2.64-.2,3.88.42,1.96.97,2.56,2.58,1.41,4.42-3.45,5.5-4.42,11.63-4.74,17.93-.15,3.04-.22,6.09.44,9.1.41,1.86.84,3.68,1.99,5.27.32.44.61,1.07.55,1.58-.28,2.64-.03,5.24.45,7.84-.18.04-.35.08-.53.12Z"/>
    <path class="cls-9" d="M163.19,216.99c.63-.3,1.26-.59,2.04-.95.33.66.69,1.46,1.12,2.23.37.65.82,1.13,1.72,1.16,2.39.09,4.95,1.46,6.27,3.24,1.81,2.44,3.57,4.92,5.41,7.34.99,1.3,2.09,2.52,3.26,3.91-.84.23-1.47-.22-2.01-.53-2.36-1.34-4.72-2.67-6.98-4.17-4.41-2.91-7.65-6.95-10.46-11.35-.17-.27-.22-.61-.33-.92l-.03.03Z"/>
    <path class="cls-8" d="M183.24,219.47c.07-.49.12-.99.21-1.48.23-1.32.23-1.31-1.14-2.65.79-1.43,1.59-2.94,2.43-4.43.92-1.61.94-1.6.11-3.48,1.11-1.01,2.23-2.08,3.41-3.09,1.58-1.36,2.97-2.85,3.76-4.81.32-.81.83-1.4,1.61-1.77,1.54-.73,3.07-1.47,5.12-2.45-.86,1.41-1.42,2.34-2.07,3.41.71.4,1.24.69,1.85,1.03-1.24,2.58-2.54,4.96-5.19,6.38-1.57.84-2.96,2.02-4.67,3.22v-2.8c-2.19,1.91-3.07,4.12-3.73,6.34-.65,2.15-.9,4.42-1.33,6.63-.12-.02-.24-.04-.36-.06ZM195.28,199.06c-.93,1.55-1.49,2.74-2.29,3.73-.77.96-1.8,1.71-2.73,2.56,1.27.31,1.41.41,1.94-.22,1.1-1.31,2.11-2.7,3.04-4.13.23-.35.03-.97.03-1.94Z"/>
    <path class="cls-8" d="M171.97,201.92c-.22-.76-.54-1.51-.64-2.28-.22-1.79-.53-3.61-.46-5.4.25-6.92,1.13-13.75,3.4-20.33.1-.3.28-.58.5-1.03.51.3.96.57,1.47.87-.3,1.13-.54,2.16-.84,3.18-.67,2.31-.89,4.67-.95,7.06-.05,1.93.43,3.57,2.25,4.82-2.5,4.01-3.46,8.49-4.72,13.12Z"/>
    <path class="cls-9" d="M196.25,194.73c-1.17-1.34-.92-2.54-.42-3.69.39-.9.94-1.74,1.46-2.57,2.8-4.44,3.97-9.34,4.13-14.53,0-.29.04-.59.09-1.25,2.31,2.39,3.79,4.76,3.73,7.8-.02.84-.4,1.77-.88,2.49-1.09,1.64-2.28,3.23-3.54,4.75-1.53,1.85-2.97,3.73-3.88,5.98-.12.29-.35.52-.69,1.02Z"/>
    <path class="cls-8" d="M175.57,209.97c-1.66-6.6,5.03-17.53,12.7-20.81-.65,1.75-1.05,3.28-2.4,4.53-3.77,3.51-6.52,7.76-8.43,12.56-.47,1.19-.66,2.54-1.87,3.72Z"/>
    <path class="cls-8" d="M193.91,230.06c-.59-.1-1.03-.17-1.75-.29.57,1.13,1.42,1.5,2.2,1.79,1.41.51,2.24,1.5,3.14,3.12-1.72-.75-3.09-1.35-4.45-1.94-.08.12-.15.23-.23.35.24.26.42.61.71.75,1.41.66,2.8,1.4,4.28,1.84,1.01.3,1.77.75,2.61,1.83-3.11-.76-5.84-1.6-8.09-3.52-1.73-1.48-1.96-4.13-.7-6.3.61-1.04,1.12-2.13,1.75-3.34.32.23.83.49,1.18.88.71.79,1.36,1.55,2.35,2.1,1.23.68,1.46,2.11,1.6,3.4.08.78-.19,1.59-.31,2.46-1.97-1.69-2.03-1.81-2.36-4.62-.07-.04-.16-.13-.2-.11-.22.09-.43.21-.81.4-.37-.65-.75-1.32-1.23-2.18-.76,1.36.36,2.21.32,3.41Z"/>
    <path class="cls-5" d="M169.06,234.99c.64-.15,1.25-.3,1.86-.45-.07-1.02-.85-1.06-1.41-1.27-3.6-1.38-7.22-2.73-11.04-4.17,1.88-.47,3.49-.24,5.05.38,1.91.77,3.8,1.57,5.67,2.41,2.32,1.04,4.61,2.15,6.93,3.21,1.34.61,1.71.62,3.11.15-.32-1.74-2.34-1.84-3.43-3.44,2.75,1.35,5.05,2.54,7.42,3.61,2.3,1.04,4.65,1.95,6.91,3.16-.38-.09-.76-.18-1.13-.28-4.29-1.17-8.59-2.19-13.08-2.25-1.22-.02-2.43-.36-3.65-.55-1.05-.17-2.1-.33-3.22-.51Z"/>
    <path class="cls-8" d="M178.4,211.89c.86-5.11,5.48-13.3,8.63-15.56.84.7,1.7,1.43,2.66,2.23-.81,1.97-2.18,3.47-3.64,4.9-.29.29-.61.56-.96.77-3.05,1.83-5.4,4.26-6.68,7.66Z"/>
    <path class="cls-8" d="M194.16,179.37c.19,2.06-.33,3.47-2.17,4.35-1.77.85-3.46,1.89-5.2,2.81-2.65,1.4-4.9,3.27-6.92,5.46-.43.47-.88.93-1.64,1.17.21-.38.37-.79.63-1.14,1.64-2.26,3.4-4.41,5.69-6.08,2.05-1.5,4.03-3.11,6.06-4.64,1.03-.78,2.12-1.48,3.55-1.92Z"/>
    <path class="cls-8" d="M181.8,184.2c1.46-3.55,3.3-6.84,5.96-9.18,1.77.51,3.2.92,4.86,1.4-3.79,2.48-7.62,4.64-10.82,7.78Z"/>
    <path class="cls-9" d="M191.86,225.66c-1.06.09-1.85.15-2.71.22-.44-1.61.32-3.95-2.69-3.98.41-.98.64-1.86,1.13-2.57.44-.64,1.08-1.26,1.78-1.6,1.36-.66,2.46.08,2.48,1.58.03,2.03,0,4.07,0,6.35Z"/>
    <path class="cls-8" d="M186.14,172.61c-3.91,3.5-6.41,7.47-8.42,11.95-.06-.35-.21-.72-.16-1.05.44-2.66.91-5.31,1.41-7.96.15-.79.62-1.38,1.49-1.38,1.7,0,3.2-.53,4.55-1.55.15-.11.45-.02,1.14-.02Z"/>
    <path class="cls-8" d="M187.17,217.78c.87-2.27,1.74-4.28,3.3-5.95.61-.65.99-1.51,1.49-2.25.54-.8,1.02-1.67,1.97-2.15.1,1.13.24,2.14.26,3.15,0,.37-.25.76-.43,1.12-.28.59-.58,1.18-.89,1.76-.56,1.06-.94,2.12.03,3.49-1.24-.17-2.19-.49-3.08-.36-.87.14-1.68.74-2.66,1.2Z"/>
    <path class="cls-9" d="M202.32,230.99q3.83-.7,5.66.57c-.6.36-1.12.66-1.62.99-.72.46-1.32,1.03-1.2,1.98.12.94.78,1.4,1.62,1.65.47.14,1.07.12,1.39.41,1.42,1.31,2.65.97,3.86-.26.11-.11.29-.16.62-.33.28.33.59.7.97,1.15-1.78,1.16-3.64,1.01-5.38,1.31-.41.07-.93-.26-1.34-.51-1.53-.92-2.58-2.26-3.27-3.9-.41-.98-.83-1.95-1.31-3.07Z"/>
    <path class="cls-9" d="M182.38,227.09c-1.89-1.94-2.09-3.99-2.09-6.03,0-2.05.17-4.11.35-6.15.15-1.69.93-3.14,2.02-4.41.16-.19.53-.19,1.21-.41-1.06,2.15-1.95,3.95-2.86,5.8.49.6.89,1.08,1.37,1.67-.1.47-.23,1.03-.33,1.58-.05.24-.17.6-.07.71,1.44,1.53.26,3.26.4,4.88.06.65,0,1.3,0,2.36Z"/>
    <path class="cls-5" d="M169.14,214c-.26-.31-.61-.58-.77-.93-3.69-8.02-5.49-16.36-4.02-25.21,0-.06.09-.1.22-.26,0,.84.02,1.58,0,2.31-.23,7.77,1.21,15.23,4.05,22.44.21.53.35,1.09.52,1.64h0Z"/>
    <path class="cls-8" d="M185.46,223.86c-.11-.22-.29-.43-.32-.66-.5-4.3-.2-8.49,1.66-12.44.69-.05,1.34.02,1.89-.18.59-.22,1.09-.7,1.9-.91-.27.51-.45,1.09-.82,1.5-3.04,3.42-4.29,7.47-4.3,11.97,0,.25-.03.49-.04.74l.03-.02Z"/>
    <path class="cls-5" d="M155.27,198.71c.35,1.59.71,3.18,1.05,4.78,1.17,5.55,3.49,10.58,6.63,15.27.32.48.61.97.95,1.52-1.96-1.24-4.8-5.47-6.41-9.82-1.4-3.79-2.51-7.66-2.18-11.78l-.03.02Z"/>
    <path class="cls-8" d="M205.09,238.23c-2.77-.25-4.19-1.7-5.54-3.21-.39-.44-.2-2.2.2-3.89,1.11.21,1.93.77,2.4,1.82.39.89.7,1.83,1.16,2.69.42.78,1,1.46,1.78,2.59Z"/>
    <path class="cls-5" d="M210.14,239.71c3.28-.97,6.56-1.94,9.83-2.91,1-.3,1.88-.19,2.73.82-.58.24-1,.52-1.44.58-3.71.51-7.43.99-11.14,1.47l.02.03Z"/>
    <path class="cls-9" d="M163.22,216.96c-1.64-1.59-2.34-3.73-3.27-5.72-.39-.84-.31-1.78.24-2.59.12-.18.42-.38.59-.34.27.07.63.27.72.51.16.45.17.96.22,1.45.24,2.29.64,4.55,1.47,6.72l.03-.03Z"/>
    <path class="cls-5" d="M180.01,193.48c2.77-3.49,6.77-6.33,11.21-8.01-1.86,1.85-3.92,2.64-5.63,3.92-1.71,1.26-3.43,2.51-5.58,4.09Z"/>
    <path class="cls-5" d="M186.61,231.2c-2.78-1.55-3.6-4.09-2.84-8.94.91,3.27,1.04,6.37,2.84,8.94Z"/>
    <path class="cls-9" d="M189.4,230.47c-1.62-2.18-2.54-4.25-1.76-6.8.24,1.2.48,2.39.74,3.73.87-.17,1.53-.3,2.35-.46-.45,1.2-.86,2.27-1.33,3.53Z"/>
    <path class="cls-5" d="M183.46,198.18c-.55,1-1.11,1.99-1.66,2.99-1.14,2.08-2.28,4.15-3.52,6.18,1.05-3.44,2.59-6.59,5.2-9.16h-.01Z"/>
    <path class="cls-8" d="M193.27,219.97c1.49.73,1.38,2.03,1.4,3.34-2.09-.41-2.24-.79-1.4-3.34Z"/>
    <path class="cls-5" d="M169.6,227.38c-1.73-.09-3.26-.63-4.4-2.03l-.03.03c.89.07,1.75,1.07,2.79-.1.6.71,1.15,1.36,1.7,2.02l-.06.07Z"/>
    <path class="cls-8" d="M206.69,241.53c-.86,1.88-2.44,1.67-4.34,1.47,1.64-.56,2.99-1.01,4.34-1.47Z"/>
    <path class="cls-5" d="M185.43,223.89c.59,1.76,1.17,3.53,1.76,5.29-1.41-1.52-1.7-3.37-1.72-5.31l-.03.02Z"/>
    <path class="cls-5" d="M169.67,227.31c.34.21.71.39,1.02.63.98.77,1.95,1.57,2.81,2.49-1.51-.75-2.87-1.69-3.9-3.05l.06-.07Z"/>
    <path class="cls-8" d="M199.33,229.54c-.16-.76-.27-1.3-.44-2.11q1.2.88.44,2.11Z"/>
    <path class="cls-5" d="M189.18,201.45c.41-.6.81-1.19,1.22-1.79.09.91-.32,1.52-1.22,1.79Z"/>
    <path class="cls-5" d="M183.47,198.2c.19-.9.77-1.49,1.54-1.94-.32.8-.81,1.46-1.55,1.92h.01Z"/>
    <path class="cls-5" d="M155.3,198.68c-.16-1.01-.32-2.02-.49-3.03l.45-.03v3.09l.03-.02Z"/>
    <path class="cls-5" d="M169.13,214c.67.46.96,1.14,1.16,1.87-.76-.41-1.1-1.06-1.16-1.88h0Z"/>
    <path class="cls-5" d="M165.2,225.36c-.52-.29-1.04-.59-1.56-.88.09-.12.17-.23.26-.35.42.42.85.84,1.27,1.26l.03-.03Z"/>
    <path class="cls-5" d="M259.71,195.06c-.66-4.63-1.29-9.08-1.91-13.53-.05-.32-.05-.65-.05-.98,0-.6.07-1.29.75-1.35.49-.04,1.26.19,1.49.55.6.95,1.22,2.01,1.37,3.09.21,1.52.15,3.12-.08,4.64-.38,2.49-1,4.94-1.56,7.58Z"/>
    <path d="M167.47,241.87c.87,1.01,1.64,2.43,3.37,1.54,1.83-.94,1.76-2.54,1.18-4.31.54-.14.98-.42,1.27-.31,3.51,1.29,7.16.69,10.75.86.63.03,1.27.08,2.22.15-.36.52-.51.97-.76,1.04-.7.19-1.45.3-2.17.28-2.54-.06-5.08-.2-7.63-.3-.4-.02-.81,0-1.34,0-.24.52-.49,1.02-.71,1.53-.52,1.18-1.4,2.03-2.56,2.54-1.87.83-3.95-.32-4.3-2.35-.02-.13.07-.32.17-.43.1-.11.28-.14.5-.24Z"/>
    <path d="M190.68,241.47c0,.13.02.24-.02.28-.17.17-.35.4-.56.44-4.76.9-9.41,2.19-13.98,3.79-.1.04-.27-.14-.43-.22-.21-.82.51-.93.97-1.12,3.1-1.32,6.26-2.48,9.61-3.02.89-.14,1.77-.37,2.66-.49.61-.08,1.29-.3,1.75.33Z"/>
    <path d="M187.41,246.95c-.93-.19-1.47-.15-1.79-.4-1.16-.9-2.3-.62-3.48-.14-.57.23-1.17.42-1.85.66.22-1.33.99-1.95,2.69-2.36,1.79-.43,2.86.03,4.43,2.24Z"/>
    <path d="M149.88,180.14c-.55-1.6.11-2.61,1.34-3.31,1.31-.75,2.76-.97,4.26-1.01,1.11-.03,2.28.28,3.51-.42-.35-.69-.66-1.31-1-1.96.17-.18.33-.5.49-.5,1.31,0,2.65-.11,3.91.14,1.7.34,3.24.32,4.69-.74.17-.13.47-.09.92-.17-.05.43.03.87-.15,1.07-.8.88-1.82,1.42-3.04,1.37-1.3-.04-2.61-.15-3.91-.23-.29.7-.4,1.63-.92,2.07-.56.47-1.49.53-2.28.66-.64.1-1.31,0-1.97.03-2.38.09-4.57.54-5.86,3.01Z"/>
    <path d="M193.33,170.59c-1.4-.61-2.25-1.13-3.18-1.34-.94-.21-1.96-.13-2.94-.17-1.44-.05-2.76-.39-3.75-1.54-1.91-2.24-4.25-2.92-7.07-2-.34.11-.76-.04-1.39-.09.33-.43.45-.76.69-.89,2.25-1.23,5.42-.89,7.37.75.25.21.52.41.72.67.94,1.2,2.16,1.62,3.66,1.62,1.14,0,2.3.13,3.41.41.75.19,1.46.68,2.1,1.15.22.16.19.67.36,1.43Z"/>
    <path d="M150.64,185.4c-.86,1.41-2.35.99-3.3,1.71-.94.72-2.01,1.28-3.38,2.13.12-.74.05-1.19.25-1.41,1.35-1.48,3.04-2.43,5.02-2.78.39-.07.83.19,1.41.34Z"/>
    <path d="M149.55,191.16c-.23,1.58-1.4,1.68-2.37,1.92-1.24.32-2.39.17-3.45-1.16,1.99-.26,3.75-.49,5.82-.76Z"/>
    <path d="M195.28,199.06c0,.97.19,1.59-.03,1.94-.94,1.43-1.94,2.82-3.04,4.13-.53.63-.66.53-1.94.22.93-.85,1.95-1.6,2.73-2.56.8-.99,1.36-2.18,2.29-3.73Z"/>
    <g>
      <path class="cls-10" d="M334.47,192.63c-.09-3.03.56-6.5,1.46-9.93.84-3.21,1.39-6.44,1-9.76-.16-1.38-.34-2.77-.7-4.11-.43-1.61-.72-3.21-.53-4.87.25-2.21,1.6-3.62,3.53-4.38,1.87-.73,3.69-.44,5.31.91.9.75,1.41,1.62,1.38,2.75-.05,2.1.75,3.77,2.16,5.32.92,1.01,1.47,2.36,2.2,3.55.43.7.79,1.46,1.34,2.06.94,1.04,2.13.95,2.93-.19.37-.53.62-1.16.8-1.79.58-2.01.6-4.05.23-6.11-.2-1.13-.32-2.28-.39-3.42-.13-1.99.93-3.32,2.64-4.06,1.64-.71,3.27-.37,4.62.76,1.36,1.14,2.38,2.52,2.06,4.48-.16.97-.2,1.97-.41,2.92-.97,4.38-.77,8.66.91,12.84.49,1.22.85,2.49,1.31,3.72,1.42,3.73,2.07,7.61,2.14,11.59.08,4.59-2.81,8.31-7.21,9.46-.24.06-.49.14-.73.11-3.86-.54-7.54-1.98-7.62-6.78-.03-1.72.07-3.45.27-5.16.26-2.2.7-4.38,1.01-6.58.14-.97.18-1.97.18-2.95.01-3.4-1.95-6.11-5.2-7.24-2.05-.71-3.88.52-3.87,2.73,0,1.05.21,2.13.47,3.16.75,2.95,1.58,5.88,2.38,8.81.66,2.41.88,4.86.58,7.34-.11.89-.26,1.8-.53,2.66-1.55,4.84-4.88,5.81-9.27,3.21-2.86-1.68-4.62-4.42-4.45-8.02.04-.82,0-1.65,0-3.02ZM344.64,196.05c-.99,1.54-1.8,2.74-2.55,3.98-.35.58-.41,1.23.02,1.84.46.63,1.41.92,2.19.69,1.17-.35,2.05-1.5,2.11-2.98.03-.79-.05-1.64-.33-2.36-.17-.43-.81-.68-1.44-1.16ZM361.11,165.65c1.22-.76,1.23-1.63.98-2.54-.27-.95-.6-1.9-1.58-2.37-.78-.37-1.58-.37-2.35.04-.63.33-.89,1.16-.41,1.66,1.05,1.1,2.2,2.1,3.36,3.2ZM362.51,194.08c-.19,1.56-.44,2.91-.47,4.26-.02.95.81,1.39,1.72,1.08.82-.27,1.42-.77,1.6-1.67.31-1.54-.7-3.01-2.85-3.67Z"/>
      <path class="cls-5" d="M344.64,196.05c.62.48,1.27.73,1.44,1.16.28.73.36,1.57.33,2.36-.06,1.49-.93,2.64-2.11,2.98-.78.23-1.73-.06-2.19-.69-.44-.6-.38-1.25-.02-1.84.75-1.24,1.56-2.45,2.55-3.98Z"/>
      <path class="cls-5" d="M361.11,165.65c-1.17-1.1-2.31-2.11-3.36-3.2-.48-.5-.22-1.33.41-1.66.77-.41,1.58-.41,2.35-.04.98.47,1.31,1.41,1.58,2.37.26.92.24,1.78-.98,2.54Z"/>
      <path class="cls-5" d="M362.51,194.08c2.15.66,3.15,2.13,2.85,3.67-.18.89-.77,1.4-1.6,1.67-.92.3-1.75-.14-1.72-1.08.03-1.35.29-2.7.47-4.26Z"/>
    </g>
    <g>
      <path class="cls-10" d="M239,240.27c0,1.32.12,2.65-.03,3.94-.13,1.12-.44,2.27-.89,3.3-.56,1.29-1.65,2.02-3.13,2.03-.33,0-.66,0-.99,0-4.01-.03-6.31-1.74-7.22-5.66-.37-1.58-.45-3.27-.36-4.89.11-1.96.35-3.95.86-5.84,1-3.67.97-7.31.25-10.99-.33-1.69-.77-3.37-.98-5.08-.12-.95,0-1.98.27-2.9.41-1.39,2.05-2.59,3.13-2.33,2.05.48,3.38,1.15,3.52,2.91.12,1.55,0,3.11-.04,4.67-.06,1.64-.18,3.28-.24,4.92-.02.49.01.99.12,1.47.36,1.63,1.88,2.24,3.17,1.2.54-.43.93-1.13,1.19-1.79.42-1.07.56-2.25,1.02-3.29.49-1.11,1.07-2.24,1.88-3.12.93-1.02,2.06-.85,3.01.18.99,1.07,1.34,2.43,1.7,3.79.21.79.3,1.62.55,2.4.17.54.43,1.08.78,1.51.69.83,1.72.74,2.24-.19.27-.5.44-1.06.59-1.61.64-2.42.75-4.85.33-7.33-.2-1.2-.24-2.47-.1-3.67.22-1.89,1.06-2.67,2.57-2.77,1.86-.12,3.31.79,3.73,2.52.19.78.22,1.65.11,2.44-.2,1.46-.38,2.96-.88,4.34-1.35,3.72-1.29,7.36-.08,11.11,1.09,3.4,1.33,6.93.67,10.48-.39,2.11-1.06,4.13-2.19,5.98-.98,1.61-2.34,2.15-4.19,1.82-3.46-.61-5.47-3.3-5.3-6.85.15-3.2-.12-6.39-.65-9.56-.01-.08-.03-.16-.06-.24-.26-.78-.44-1.64-1.42-1.83-.8-.16-1.94.53-2.23,1.6-.36,1.33-.53,2.73-.66,4.12-.1,1.06-.02,2.14-.02,3.21,0,0,0,0-.01,0ZM235.48,239.83c-.92,1.46-1.75,2.75-2.56,4.07-.36.59-.55,1.21.01,1.8.5.53,1.31.65,2.03.19,1.12-.72,2.03-1.66,2.43-2.98.47-1.56.02-2.29-1.91-3.07ZM254.37,241.06c-.18-.3-.47-.97-.92-1.51-.5-.6-1.24-.53-1.63.14-.62,1.05-1.19,2.13-1.72,3.23-.35.73-.02,1.32.73,1.46,1.59.3,3.56-1.32,3.53-3.32ZM241.58,219.92c-.08.02-.16.03-.24.06-.64.26-1.03,1.12-.95,2.08.08.95.65,1.76,1.33,1.84.23.03.5-.02.71-.12.67-.31,1.05-1.08.93-1.82-.15-.97-.87-1.91-1.54-2.02-.08-.01-.16,0-.24-.01Z"/>
      <path class="cls-5" d="M235.48,239.83c1.93.78,2.38,1.51,1.91,3.07-.4,1.32-1.3,2.26-2.43,2.98-.72.46-1.53.34-2.03-.19-.56-.59-.38-1.21-.01-1.8.81-1.31,1.65-2.61,2.56-4.07Z"/>
      <path class="cls-5" d="M254.37,241.06c.03,2-1.94,3.62-3.53,3.32-.75-.14-1.08-.73-.73-1.46.53-1.1,1.1-2.18,1.72-3.23.39-.66,1.12-.74,1.63-.14.45.53.74,1.2.92,1.51Z"/>
      <path class="cls-5" d="M241.58,219.92c.08,0,.16,0,.24.01.67.11,1.39,1.06,1.54,2.02.11.74-.26,1.51-.93,1.82-.21.1-.48.15-.71.12-.69-.08-1.26-.89-1.33-1.84-.08-.96.31-1.82.95-2.08.07-.03.16-.04.24-.06Z"/>
    </g>
    <path d="M256.98,174.63c-1.15-.03-1.86-.53-2.09-1.71-.44-2.22.29-4.23,1.4-6.1.48-.8,2.55-1.35,3.37-1,.34.15.7.51.81.85.23.69.45,1.44.41,2.15-.09,1.67-.66,3.22-1.61,4.61-.63.91-1.28,1.21-2.29,1.19ZM259.49,168.43c-.14-.23-.32-.85-.72-1.08-.67-.38-1.28.05-1.6.68-.67,1.32-1.13,2.72-.91,4.23.05.34.34.82.63.92.29.09.84-.11,1.05-.37.96-1.16,1.43-2.54,1.56-4.37Z"/>
    <g>
      <path class="cls-10" d="M243.9,196.28c-.19-2.67.6-5.54,1.36-8.4.15-.56.3-1.12.49-1.66,1.46-4.11,1.58-8.2.05-12.33-.43-1.15-.68-2.37-.99-3.57-.66-2.49-.09-4.7,1.48-6.72,2.37-3.06,5.69-3.95,9.31-4.38,3.15-.37,6.04.66,8.93,1.51,2.03.6,2.99,2.5,3.42,4.52.31,1.49.1,2.92-.9,4.2-1.07,1.39-2.24,2.62-3.85,3.39-.74.36-1.47.75-2.14,1.22-.64.45-.53,1.21.15,1.6.14.08.29.18.44.21,3.89.83,5.72,3.91,7.46,7,.88,1.57,1.4,3.33,2.08,5.01.09.23.22.46.24.7.31,3.61.65,7.25-.36,10.79-.96,3.33-3.2,4.81-6.65,4.64-2.12-.1-3.36-.99-4.05-2.99-.8-2.33-.58-4.73-.23-7.09.39-2.68.99-5.34,1.51-8,.45-2.37.01-4.6-1.09-6.69-.84-1.6-2.11-2.23-3.63-1.96-1.05.19-1.56.71-1.68,1.81-.06.57-.08,1.16-.02,1.73.33,2.78.6,5.57,1.08,8.32.61,3.45.71,6.86-.22,10.27-.11.4-.23.79-.37,1.18-1.03,2.88-2.15,3.59-5.22,3.27-.98-.1-1.97-.23-2.93-.46-2.49-.61-3.58-1.99-3.67-4.55-.03-.74,0-1.48,0-2.57ZM255.73,174.09c1.01.03,1.67-.28,2.29-1.19.95-1.38,1.52-2.94,1.61-4.61.04-.71-.18-1.46-.41-2.15-.12-.34-.48-.7-.81-.85-.81-.36-2.89.2-3.37,1-1.11,1.86-1.84,3.87-1.4,6.1.23,1.17.94,1.68,2.09,1.71ZM254.48,198.6c-.07-.28-.08-.74-.31-1.03-.28-.35-.75-.76-1.14-.77-.35,0-.89.44-1.03.8-.34.87-.75,1.57-1.54,2.14-.89.64-1.02,1.45-.6,2.12.46.74,1.44.94,2.41.47,1.48-.73,2.06-2.03,2.22-3.73ZM248.2,169.03c1.17-.66.68-1.95,1.13-2.85.46-.92,1-1.8,1.49-2.69-1.16-1.15-1.83-1.32-2.7-.65-.99.76-1.35,1.83-1.37,3.03-.03,1.25,0,2.48,1.44,3.15ZM268.93,197.59c-.16-.62-.24-1.28-.52-1.84-.14-.28-.65-.47-1.01-.49-.23-.01-.68.34-.7.56-.13,1.6-.88,2.93-1.67,4.27-.34.58.25,1.4.95,1.35.53-.04,1.13-.23,1.55-.55,1.08-.8,1.39-1.97,1.4-3.3Z"/>
      <path class="cls-5" d="M254.48,198.6c-.16,1.7-.73,2.99-2.22,3.73-.96.48-1.94.28-2.41-.47-.41-.66-.28-1.48.6-2.12.79-.57,1.2-1.27,1.54-2.14.14-.37.68-.81,1.03-.8.39,0,.86.41,1.14.77.23.29.24.76.31,1.03Z"/>
      <path class="cls-5" d="M248.2,169.03c-1.44-.67-1.47-1.9-1.44-3.15.02-1.21.38-2.27,1.37-3.03.87-.67,1.54-.5,2.7.65-.5.89-1.04,1.76-1.49,2.69-.44.9.04,2.19-1.13,2.85Z"/>
      <path class="cls-5" d="M268.93,197.59c0,1.33-.32,2.5-1.4,3.3-.43.31-1.02.51-1.55.55-.71.05-1.3-.77-.95-1.35.79-1.34,1.55-2.66,1.67-4.27.02-.22.47-.57.7-.56.35.02.87.22,1.01.49.28.56.36,1.22.52,1.84Z"/>
    </g>
    <g>
      <path class="cls-10" d="M214.47,185.42c-.08-6.9,1.58-13.36,4.93-19.37,1.59-2.85,3.82-5.12,6.71-6.73,1.27-.7,2.56-1.03,4-.96,4.6.21,7.11,2.41,7.78,6.99.14.97.14,1.98.03,2.95-.2,1.8-1.33,2.94-2.76,2.94-1.55,0-3.14-1.44-3.32-3.09-.06-.56.04-1.15.07-1.72.02-.41.11-.83.04-1.22-.31-1.84-1.88-2.62-3.48-1.67-.69.41-1.34.99-1.82,1.63-2.61,3.4-4.32,7.21-4.7,11.49-.26,2.87.63,5.55,2.11,7.99,1.02,1.68,3.58,2.39,5.5,1.68,2.01-.75,3.19-2.31,3.76-4.29.55-1.89-.96-4.09-2.95-4.39-1.05-.16-2.14-.08-3.2-.17-1.28-.11-1.82-1.23-1.07-2.26.6-.83,1.42-1.38,2.5-1.36,2.49.04,4.91.48,7.17,1.56,1.31.63,2.13,1.76,2.7,3.09.83,1.94,1.04,3.97.92,6.04-.13,2.05-.24,4.11-.47,6.15-.51,4.52-2.41,8.34-5.9,11.31-1.43,1.21-3.04,1.85-4.96,1.88-2.71.05-5.21-.56-7.53-1.95-1.38-.82-2.44-1.93-3.12-3.4-1.94-4.16-3.12-8.48-2.95-13.11ZM221.65,198c.23-.13.69-.3.98-.62.13-.14.04-.72-.14-.88-1.23-1.09-2.32-2.27-3.17-3.69-.38-.64-1.55-.41-1.84.33-.2.49-.31,1.19-.11,1.64.76,1.75,2.05,2.95,4.28,3.22ZM235.18,165.8c-.8,1.46-1.12,2.37-1.05,3.3.02.29.19.74.39.8.34.1.83.06,1.11-.13.71-.48,1.07-1.23,1.03-2.1-.04-.87-.37-1.58-1.47-1.87Z"/>
      <path class="cls-5" d="M221.57,198c-2.23-.27-3.52-1.47-4.28-3.22-.2-.45-.09-1.15.11-1.64.29-.74,1.46-.96,1.84-.33.85,1.43,1.94,2.61,3.17,3.69.18.16.27.74.14.88-.29.32-.75.48-.98.62Z"/>
      <path class="cls-5" d="M235.1,165.8c1.1.29,1.43,1,1.47,1.87.04.87-.32,1.62-1.03,2.1-.28.19-.77.23-1.11.13-.19-.06-.36-.51-.39-.8-.07-.93.25-1.84,1.05-3.3Z"/>
    </g>
    <g>
      <path class="cls-10" d="M287.47,203.22c-2.52.46-5.11-.44-7.7-1.23-2.49-.76-3.97-2.46-4.46-5.08-.68-3.6-.29-7.11,1.1-10.41,1.18-2.81,1.2-5.61.78-8.47-.16-1.11-.57-2.25-1.14-3.22-.92-1.58-1.25-3.19-.98-4.97.09-.57.17-1.14.21-1.71.22-3.59,2.17-6.05,5.32-7.38,2.09-.88,4.41-1.25,6.65-1.76,2.39-.54,4.73-.28,7,.68.37.16.78.24,1.18.34,2.07.49,3.05,1.87,2.76,3.9-.05.33-.11.65-.2.97-.8,2.93-3.16,3.86-5.69,2.19-.82-.54-1.53-1.25-2.32-1.83-2.17-1.58-3.88-1.11-4.87,1.34-.24.6-.44,1.25-.51,1.9-.25,2.17,1.05,3.49,3.23,3.24.97-.11,1.91-.48,2.88-.69,1.05-.22,2.11-.38,3.14.13,1.53.77,1.91,2.11,1.12,4-.61,1.45-1.5,1.77-3.21,1.13-.77-.29-1.53-.62-2.31-.85-1.69-.51-3.12.02-4.18,1.36-1.23,1.55-1.73,3.39-1.31,5.34.35,1.6.85,3.18,1.42,4.72.66,1.8,1.75,2.28,3.48,1.55.89-.38,1.71-.98,2.46-1.6.88-.73,1.64-1.62,2.48-2.41.48-.45.96-.93,1.52-1.25,1.93-1.12,3.74-.52,4.61,1.54.32.75.55,1.56.68,2.36.67,4.23-.06,8.2-2.46,11.78-1.87,2.81-4.71,3.98-7.92,4.4-.81.11-1.64.02-2.74.02ZM277.58,194.47c0,2.6,1.8,4.69,3.84,4.87.91.08,1.75-.4,1.96-1.15.22-.79-.29-1.21-.86-1.59-.14-.09-.27-.18-.42-.26-1.06-.6-1.81-1.4-1.78-2.72,0-.24,0-.54-.14-.71-.24-.31-.58-.75-.87-.75-.41.01-.98.29-1.17.62-.35.62-.47,1.37-.57,1.69ZM296.79,163.9c.13-1.63-1.06-3.12-2.36-3.18-1-.05-1.56.68-1.2,1.59.32.83.63,1.68,1.03,2.48.16.33.52.79.8.79.42,0,.95-.24,1.24-.55.31-.33.39-.88.49-1.13Z"/>
      <path class="cls-5" d="M277.58,194.47c.1-.32.22-1.07.57-1.69.19-.34.76-.61,1.17-.62.29,0,.63.44.87.75.13.17.14.47.14.71-.03,1.32.72,2.12,1.78,2.72.14.08.28.17.42.26.57.38,1.08.79.86,1.59-.21.75-1.05,1.23-1.96,1.15-2.04-.18-3.83-2.26-3.84-4.87Z"/>
      <path class="cls-5" d="M296.79,163.9c-.1.25-.18.79-.49,1.13-.29.32-.82.56-1.24.55-.28,0-.64-.46-.8-.79-.39-.8-.7-1.64-1.03-2.48-.35-.91.21-1.64,1.2-1.59,1.29.07,2.49,1.55,2.36,3.18Z"/>
    </g>
    <path d="M318.58,204.78c-2.45.42-5.02-.43-7.56-1.26-3.41-1.12-4.98-3.83-5.26-7.42-.26-3.4-.04-6.81,1.36-9.92,1.36-2.99.9-5.94.4-8.94-.1-.62-.47-1.21-.79-1.77-.76-1.31-1.11-2.71-1.02-4.24.06-.99.05-1.98.16-2.96.47-4.13,2.6-7,6.2-8.61,2.69-1.21,5.57-1.72,8.47-1.98,2.14-.2,4.16.67,6.22,1.15,1.47.34,2.38,1.19,3.08,2.42,1.34,2.37.18,6.56-2.16,7.79-1.83.96-3.52.31-5.09-.77-.85-.59-1.57-1.37-2.41-1.97-1.04-.75-1.67-.54-2.3.62-.08.14-.14.3-.19.45-.35.92-.8,1.9-.11,2.8.72.92,1.68.55,2.62.32,1.14-.28,2.3-.58,3.46-.6,2.81-.05,4.35,1.92,3.84,4.8-.11.64-.31,1.29-.6,1.86-.73,1.43-2.09,2-3.58,1.52-.75-.24-1.44-.66-2.19-.9-2.2-.71-3.71.14-4.26,2.49-.2.86-.27,1.82-.11,2.68.27,1.44.72,2.86,1.2,4.25.39,1.14.97,1.35,2.01.74.74-.44,1.44-1,2.08-1.6.82-.76,1.5-1.7,2.36-2.41.78-.65,1.66-1.29,2.6-1.58,2.26-.7,3.74.14,4.78,2.38,1.34,2.89,1.14,5.93.82,8.97-.18,1.72-.74,3.34-1.48,4.91-2.14,4.53-5.69,6.59-10.38,6.76-.63.02-1.26,0-2.18,0Z"/>
    <g>
      <path class="cls-10" d="M317.92,203.22c-2.52.46-5.11-.44-7.7-1.23-2.49-.76-3.97-2.46-4.46-5.08-.68-3.6-.29-7.11,1.1-10.41,1.18-2.81,1.2-5.61.78-8.47-.16-1.11-.57-2.25-1.14-3.22-.92-1.58-1.25-3.19-.98-4.97.09-.57.17-1.14.21-1.71.22-3.59,2.17-6.05,5.32-7.38,2.09-.88,4.41-1.25,6.65-1.76,2.39-.54,4.73-.28,7,.68.37.16.78.24,1.18.34,2.07.49,3.05,1.87,2.76,3.9-.05.33-.11.65-.2.97-.8,2.93-3.16,3.86-5.69,2.19-.82-.54-1.53-1.25-2.32-1.83-2.17-1.58-3.88-1.11-4.87,1.34-.24.6-.44,1.25-.51,1.9-.25,2.17,1.05,3.49,3.23,3.24.97-.11,1.91-.48,2.88-.69,1.05-.22,2.11-.38,3.14.13,1.53.77,1.91,2.11,1.12,4-.61,1.45-1.5,1.77-3.21,1.13-.77-.29-1.53-.62-2.31-.85-1.69-.51-3.12.02-4.18,1.36-1.23,1.55-1.73,3.39-1.31,5.34.35,1.6.85,3.18,1.42,4.72.66,1.8,1.75,2.28,3.48,1.55.89-.38,1.71-.98,2.46-1.6.88-.73,1.64-1.62,2.48-2.41.48-.45.96-.93,1.52-1.25,1.93-1.12,3.74-.52,4.61,1.54.32.75.55,1.56.68,2.36.67,4.23-.06,8.2-2.46,11.78-1.87,2.81-4.71,3.98-7.92,4.4-.81.11-1.64.02-2.74.02ZM308.03,194.47c0,2.6,1.8,4.69,3.84,4.87.91.08,1.75-.4,1.96-1.15.22-.79-.29-1.21-.86-1.59-.14-.09-.27-.18-.42-.26-1.06-.6-1.81-1.4-1.78-2.72,0-.24,0-.54-.14-.71-.24-.31-.58-.75-.87-.75-.41.01-.98.29-1.17.62-.35.62-.47,1.37-.57,1.69ZM327.24,163.9c.13-1.63-1.06-3.12-2.36-3.18-1-.05-1.56.68-1.2,1.59.32.83.63,1.68,1.03,2.48.16.33.52.79.8.79.42,0,.95-.24,1.24-.55.31-.33.39-.88.49-1.13Z"/>
      <path class="cls-5" d="M308.03,194.47c.1-.32.22-1.07.57-1.69.19-.34.76-.61,1.17-.62.29,0,.63.44.87.75.13.17.14.47.14.71-.03,1.32.72,2.12,1.78,2.72.14.08.28.17.42.26.57.38,1.08.79.86,1.59-.21.75-1.05,1.23-1.96,1.15-2.04-.18-3.83-2.26-3.84-4.87Z"/>
      <path class="cls-5" d="M327.24,163.9c-.1.25-.18.79-.49,1.13-.29.32-.82.56-1.24.55-.28,0-.64-.46-.8-.79-.39-.8-.7-1.64-1.03-2.48-.35-.91.21-1.64,1.2-1.59,1.29.07,2.49,1.55,2.36,3.18Z"/>
    </g>
    <g>
      <path class="cls-10" d="M352.21,221.88c.26-1.17.52-1.96.6-2.76.12-1.18-.06-2.3-1.13-3.08-.97-.71-1.76-.67-2.66.15-1.91,1.75-2.19,4.85-.52,6.96,1.3,1.63,2.87,2.91,4.99,3.42,1.19.28,2.36.7,3.5,1.16,3.38,1.37,4.8,4.21,5.03,7.57.18,2.62-.29,5.22-1.84,7.54-2.15,3.21-4.86,5.24-8.93,5.15-2.16-.05-4.2-.09-6.18-1.22-3.2-1.84-4.77-4.7-5.32-8.15-.29-1.85-.22-3.78.66-5.56.87-1.76,1.76-2.38,3.41-2.25,1.76.14,3.04,1.24,3.47,2.98.18.71.24,1.49.58,2.12.79,1.47,2.41,1.59,3.43.29,1.04-1.31,1.05-2.82.24-4.16-.71-1.17-1.71-2.19-2.68-3.18-1.39-1.4-2.87-2.7-4.31-4.05-.99-.92-1.59-2.07-2.02-3.34-.74-2.17-.22-4.06,1.24-5.71.54-.61,1.23-1.08,1.87-1.6,3.35-2.72,6.3-2.58,10-.26,2.62,1.64,3.22,4.64,2.39,7.43-.36,1.22-1.65,1.95-2.95,1.65-.93-.21-1.81-.67-2.87-1.08ZM355.99,237.52c-.2.18-.78.47-.94.91-.42,1.2-.99,2.19-2.12,2.9-.65.41-.51,1.14-.11,1.76.4.63,1.03.79,1.71.75,1.5-.1,3.82-2.43,3.95-3.95.12-1.42-.8-2.44-2.5-2.37Z"/>
      <path class="cls-5" d="M355.99,237.52c1.7-.08,2.62.95,2.5,2.37-.13,1.52-2.45,3.86-3.95,3.95-.68.04-1.31-.12-1.71-.75-.4-.62-.54-1.34.11-1.76,1.12-.71,1.69-1.7,2.12-2.9.16-.44.74-.73.94-.91Z"/>
    </g>
    <g>
      <path class="cls-10" d="M304.42,221.1c0-1.32-.02-2.64,0-3.95.01-.66.06-1.32.19-1.96.36-1.71,1.33-2.54,2.86-2.5,1.66.03,2.72.98,2.96,2.71.25,1.83.18,3.72-.67,5.33-1.93,3.66-1.53,7.48-1.24,11.35.2,2.7.38,5.42.31,8.13-.04,1.53-.36,3.15-.95,4.55-1.2,2.84-3.4,4.64-6.58,4.84-1.29.08-2.62-.16-3.91-.35-1.54-.22-2.78-1.07-3.7-2.28-2.31-3.05-3.8-6.39-3.07-10.32.82-4.4.49-8.68-1.09-12.87-.38-1-.7-2.03-.89-3.08-.26-1.45-.5-2.92-.49-4.38.02-2.07.87-2.95,2.69-3.21,2.08-.29,3.42.44,4.07,2.33.71,2.07.55,4.22.42,6.36-.1,1.72-.17,3.45-.19,5.18-.03,1.94.6,3.74,1.4,5.46,1.06,2.28,3.23,2.63,5,.83,1.43-1.45,2.22-3.31,2.51-5.27.33-2.27.38-4.58.54-6.87-.06,0-.12,0-.18-.01ZM294.56,240.51c-.45.71-.77,1.02-.86,1.38-.42,1.8,1.59,4.56,3.41,4.74.84.08,1.41-.38,1.81-1.05.35-.57.2-1.16-.26-1.57-1.27-1.13-2.58-2.21-4.11-3.5ZM309.01,215.13c-.57-.21-1.02-.53-1.43-.48-.53.06-1.1.33-1.54.66-.92.7-1.31,1.92-.91,2.82.15.34.54.8.8.79.4-.01.92-.3,1.16-.63.64-.9,1.16-1.89,1.92-3.16Z"/>
      <path class="cls-5" d="M294.56,240.51c1.53,1.29,2.84,2.37,4.11,3.5.46.41.61,1,.26,1.57-.4.67-.97,1.13-1.81,1.05-1.82-.18-3.83-2.94-3.41-4.74.08-.37.41-.68.86-1.38Z"/>
      <path class="cls-5" d="M309.01,215.13c-.75,1.27-1.27,2.25-1.92,3.16-.24.33-.76.62-1.16.63-.27,0-.66-.45-.8-.79-.39-.91,0-2.13.91-2.82.44-.33,1-.6,1.54-.66.41-.05.85.27,1.43.48Z"/>
    </g>
    <g>
      <path class="cls-10" d="M325.37,212.63c2.62-.49,5.16.93,7.82,1.69.99.28,1.34,1.39.99,2.47-.44,1.37-2.29,2.83-3.77,2.79-.59-.02-1.22-.41-1.73-.78-1.04-.76-2.14-1.21-3.44-1.08-1.37.14-2.13.81-2.29,2.14-.07.56-.06,1.16.03,1.72.15.95.7,1.44,1.69,1.45.73,0,1.48-.11,2.18-.29,1.34-.34,2.6-.15,3.87.29.7.24,1.06.71,1.15,1.44.27,2.29-1.43,4.01-3.69,3.7-1.14-.15-2.27-.43-3.41-.47-1.43-.05-2.18.52-2.5,1.89-.46,1.98-.28,3.94.75,5.73.94,1.64,2.39,1.95,3.96.83.93-.66,1.74-1.51,2.63-2.24.63-.52,1.27-1.06,1.98-1.46,1.34-.76,2.64-.37,3.27,1.03.37.81.55,1.72.69,2.6.53,3.16.23,6.23-1.25,9.13-.8,1.57-1.93,2.82-3.38,3.85-2.17,1.54-4.57,1.21-6.91.82-1.52-.26-2.98-.91-4.44-1.46-2.09-.79-3.25-2.43-3.88-4.5-.8-2.67-.92-5.37-.14-8.03,1.03-3.5.88-6.96.14-10.48-.34-1.59-.38-3.25-.52-4.88-.31-3.63,3.5-7.84,7.63-7.89.74,0,1.48,0,2.52,0ZM318.8,237.92c-.81.08-1.16.61-1.38,1.25-.51,1.42-.21,2.73.61,3.94.72,1.08,2.02,1.44,3.23.96,1.15-.45,1.51-1.78.51-2.5-1.19-.86-1.9-1.95-2.41-3.25-.07-.18-.38-.28-.55-.4ZM329.73,214.5c-.83.02-1.56.47-1.73,1.11-.23.87.26,1.36.96,1.75.49.28.91.68,1.39.98.91.56,1.79.12,1.97-.95.24-1.46-1.08-2.93-2.6-2.89Z"/>
      <path class="cls-5" d="M318.8,237.92c.17.12.48.21.55.4.51,1.31,1.23,2.39,2.41,3.25,1,.72.65,2.05-.51,2.5-1.21.48-2.51.11-3.23-.96-.81-1.21-1.11-2.52-.61-3.94.23-.64.58-1.17,1.38-1.25Z"/>
      <path class="cls-5" d="M329.94,214.5c1.52-.04,2.84,1.43,2.6,2.89-.18,1.07-1.06,1.51-1.97.95-.48-.3-.9-.7-1.39-.98-.7-.4-1.19-.88-.96-1.75.17-.63.9-1.09,1.73-1.11Z"/>
    </g>
    <path d="M276.62,221.52c-.4,1.06-.65,2.22-1.23,3.16-.91,1.47-2.3,1.32-3.01-.22-.62-1.33-.68-2.7-.08-4.07.35-.8.91-1.35,1.8-1.52,1.24-.24,2.12.35,2.31,1.59.05.32,0,.66,0,.98.07.02.14.05.21.07ZM273.94,224.36c1.05-1.27,1.2-2.46,1.05-3.73-.02-.16-.37-.42-.52-.39-.28.05-.68.21-.78.44-.52,1.13-.54,2.26.25,3.68Z"/>
    <g>
      <path class="cls-10" d="M283.67,242.51c0,.05,0,.38,0,.71-.13,3.87-3.8,5.9-7.12,3.84-2.14-1.33-3.52-3.19-3.1-5.95.4-2.6.75-5.21,1.09-7.82.09-.73.12-1.48.06-2.2-.06-.65-.24-1.33-1.02-1.53-.78-.2-1.47,0-2.02.58-.88.94-1.33,2.11-1.34,3.36-.01,1.39.18,2.79.24,4.18.07,1.47.17,2.95.1,4.42-.07,1.52-.67,2.89-1.73,4-2.3,2.42-5.01,2.67-7.74.74-1-.71-1.49-1.75-1.64-2.93-.26-2.07-.15-4.11.8-6.02.99-1.99,1.98-3.98,2.99-5.95,1.29-2.52,2.11-5.13,2.3-7.99.14-2.2.67-4.38,1.05-6.57.07-.4.24-.79.38-1.17.88-2.31,2.34-4.11,4.94-4.21,2.7-.1,4.96.96,6.33,3.49.88,1.62,1.38,3.31,1.44,5.17.09,2.88.29,5.75.46,8.62.09,1.58.56,3.04,1.29,4.47,1.35,2.66,2.35,5.44,2.25,8.77ZM275.01,221.32c-.07-.02-.14-.05-.21-.07,0-.33.04-.66,0-.98-.18-1.24-1.06-1.83-2.31-1.59-.89.17-1.45.72-1.8,1.52-.6,1.37-.54,2.73.08,4.07.71,1.54,2.1,1.69,3.01.22.59-.95.83-2.1,1.23-3.16ZM261.35,242.05c.03.18.04.51.13.82.22.81.83,1.3,1.56,1.31.7.01,1.17-.48,1.24-1.52.08-1.22.1-2.41.69-3.55.28-.54-.24-1.22-.85-1.16-.52.05-1.16.24-1.48.6-.83.93-1.26,2.08-1.29,3.5ZM276.62,240.59q-1.47.62-1.65,1.16c-.59,1.77.48,3.72,2.35,4.22.66.18,1.34.16,1.75-.5.41-.66.21-1.38-.35-1.75-1.08-.73-1.52-1.86-2.1-3.12ZM272.03,214.47c-1.52-.83-2.15-.84-2.86-.11-.81.83-1.24,2.6-.72,3.37.17.25.72.41,1.03.34.34-.08.66-.45.87-.77.56-.87,1.06-1.77,1.68-2.83Z"/>
      <path class="cls-5" d="M261.35,242.05c.03-1.42.46-2.57,1.29-3.5.32-.36.96-.55,1.48-.6.61-.06,1.13.62.85,1.16-.59,1.14-.61,2.33-.69,3.55-.07,1.04-.54,1.53-1.24,1.52-.73-.01-1.34-.51-1.56-1.31-.09-.31-.1-.64-.13-.82Z"/>
      <path class="cls-5" d="M276.62,240.59c.58,1.26,1.02,2.39,2.1,3.12.56.38.76,1.09.35,1.75-.41.66-1.09.67-1.75.5-1.87-.5-2.94-2.44-2.35-4.22q.18-.53,1.65-1.16Z"/>
      <path class="cls-5" d="M272.03,214.47c-.62,1.06-1.12,1.96-1.68,2.83-.21.32-.53.68-.87.77-.31.08-.86-.09-1.03-.34-.53-.78-.09-2.54.72-3.37.71-.73,1.33-.71,2.86.11Z"/>
    </g>
    <path class="cls-5" d="M259.49,168.43c-.13,1.84-.59,3.21-1.56,4.37-.21.26-.76.46-1.05.37-.29-.09-.58-.57-.63-.92-.22-1.51.24-2.91.91-4.23.32-.63.93-1.06,1.6-.68.4.23.58.86.72,1.08Z"/>
    <path class="cls-5" d="M273.94,224.36c-.79-1.42-.77-2.56-.25-3.68.1-.23.5-.39.78-.44.16-.03.5.23.52.39.15,1.27,0,2.46-1.05,3.73Z"/>
  </g>
</svg>