<?xml version="1.0" encoding="UTF-8"?>
<svg id="Layer_1" xmlns="http://www.w3.org/2000/svg" viewBox="0 0 400 400">
  <defs>
    <style>
      .cls-1, .cls-2, .cls-3 {
        fill: #fff;
      }

      .cls-1, .cls-4, .cls-5, .cls-6, .cls-7 {
        fill-rule: evenodd;
      }

      .cls-2 {
        font-family: 'Jay_San-Serif', Jay_San-Serif;
        font-size: 30.09px;
      }

      .cls-3 {
        font-family: AmericanTypewriter-CondensedBold, 'American Typewriter';
        font-size: 44px;
        font-weight: 700;
      }

      .cls-5 {
        stroke: #fff;
        stroke-miterlimit: 10;
        stroke-width: 1.26px;
      }

      .cls-6 {
        fill: #231f20;
      }

      .cls-7 {
        fill: #1bb24b;
      }

      .cls-8 {
        letter-spacing: -.03em;
      }
    </style>
  </defs>
  <g>
    <polygon class="cls-7" points="66.93 148.01 14.57 224.65 17.18 227.95 117.06 224.48 81.19 158.58 70.51 146.11 66.93 148.01"/>
    <path class="cls-4" d="M98.99,185.36c3.51.51,2.58,5.9,6.26,6.23.09,3.85,2.07,5.65,4.5,6.91-.28,4.06,2.01,5.27,4.46,6.32.28.99-.4,1.13-1.12,1.24.83.82,2.79,1.35,1.32,2.9.47-.33.95-.66,1.75-.68.28,1.18-.03,1.86-1.1,1.84,1.18,1.5,4.6,4.74,2.67,5.81.61,1.01,1.92,1.22,3.61,1.01.33,4.86,3,7.12,2.99,12.34-.57-.33-2.24-1.27-1.74.68-1.07-1.12-4.14-.02-4.27-2.17-1.31,2.35-4.07-1.55-7.06,1.54-1.8.31-1.33-1.87-1.94-2.88-1.7.59.85,1.46.15,2.97-.46-.39-1.99-2.41-1.77.08-8.28-.58-20.59-.62-27.92.19-.03-.59-.07-1.18-.09-1.77-2.68,1.57-5.81,1.88-8.31.4-1.6,2.32-12.63,2.39-16.01.8-6.52,3.76-21.02.23-24.17,4.17-5.11-2.87-13.92.37-20.31-1.97-.61-1.87.4-2.28,1.04-3.02-2.39-.09-.99-.46-1.38-4.1,2.76-.89,3.9-3.25,3.84-6.72,2.75.42,1.19-3.05,4.03-2.59-.52-1.79-.48-1.11-.15-2.96,4.03.46,1.59-4.98,5.1-5-.41-.58-1.39-.54-1.28-1.73,2.39.66,1.11-2,3.5-1.36-.05-.99-.09-1.98-.15-2.96.51-.48,1.31-.7,2.34-.7,3.48-8.95,9.99-15.13,13.69-23.86,2.05-.03,2.69-1.33,2.2-3.67,1.74.07,1.75-1.44,3.5-1.37,1.44-7.94,9.01-10.35,10.39-18.35,6.51-1.46,4.95-10.24,11.29-11.85-.41-.58-1.39-.55-1.28-1.72,1.96-.12,2.9-1.16,5.32-.86,2.66,1.89-.7,3.07,3.1,2.82-2.45,2.68.76,10.53,3.44,9.33.88.16.15,4.49,3.16,4.01-.32,1.84.73,2.14.78,3.53,7.63,6.37,9.09,19.56,16.74,25.91.26,1-.41,1.15-1.13,1.25ZM64.34,157.95c-1.88.82-.54-1.9-2.43-1.07-.9.3-.41,1.9-2.3,1.31-.73,3.12-1.47,6.22-4.39,7.36-.71,3.28,1.67,3.15,2.61,4.62-4.12,3.02-4.14,12.7-11.43,9.48.67,1.76,2.84,1.86,3.17,4-1.56.81-2.72,1.13-3.5,1.36,2.53,2.06-.66,1.55-1.64,3.06-2.53,3.93-3.91,10.12-8.35,11.11-.16,2.88-1.21,4.96-3.89,5.53,1.49,3.08-.87.43-1.71,1.87,3.82.72-2.44,2.61.21,4.16-4.22.89-3.19,6.55-6.11,8.63-.38-1.03.55-3.53-.76-3.54,0,.93.18,2.05-1.11,1.84-.63,1.96,1.94.36,1.31,2.31-2.46.61-2.01,3.85-3.29,5.52,6.19-1.36,16.23-1.47,23.13-1.15.1-.46-.04-1.17.53-1.21,23.01,2.1,41.35-1.48,69.44-2.24-1.29-6.23-6.79-9.22-8.95-12.64-.72-5.27-5.7-5.79-5.91-11.59-2.66.4-2.29-2.11-1.97-3.46-2.36.06-4.5-3.78-2.6-4.63-1.86,1.01-1.99-.34-3.63-1.01-4.28-12.94-14.51-22.09-19.43-32.32.03.6-1.01.79-1.18.05.72-.09,1.39-.24,1.13-1.24-1.65.57-1.58-.77-3-.45-2.87,4-4.15,9.46-8.93,11.74,1.25,2.03-.44,2.88-1.57,4.24-.72-2.35-.14-4.62.87-6.58.97-.04.4,1.62,1.27,1.72.13-2.55,2.16-7.4,3.91-4.95-.06-.82.21-1.31.5-1.8Z"/>
  </g>
  <text class="cls-3" transform="translate(46.43 218.48)"><tspan class="cls-8" x="0" y="0">1</tspan><tspan x="20.64" y="0">9</tspan></text>
  <g>
    <g>
      <g>
        <path class="cls-4" d="M154.05,133.54s-2.83,64.6-2.52,65.88c.31,1.28,3.36,81.12,3.36,83.36s-4.56,31.13,1.68,31.13c20.99,0,82.92,3.84,106.22,3.84s104.96-4.69,104.96-4.69c0,0-3.99-10.34-2.42-37.2,1.58-26.86-1.26-92.42-.94-96.9.31-4.48,2.83-42.53,3.15-44.13.32-1.6-.63-39.66-.63-39.66l-124.07-1.28h-57.62c-8.5,0-30.86-.32-30.86-.32l-.31,39.97Z"/>
        <path class="cls-4" d="M236.75,197.31c-7.4,2.2-14.42,6.15-22.83,3.99.32-4.36,2.64-7.91,4.88-11.47,2.38-3.78,6.13-5.4,11.04-6.26-4-1.86-7.58-3.1-10.02-6.18-2.5-3.14-4.19-6.63-5.43-10.41-1.24-3.79-1.01-7.47.18-11.18,1.64-.15,2.01,1.07,2.61,1.92,1.46,2.06,2.81,4.21,4.33,6.21,2.53,3.31,6.04,5.45,9.82,6.85,3.67,1.36,7.16.95,10.1-2.38,5.41-6.12,12.75-8.26,20.58-8.96,1.56-.14,3.26.23,4.76.75,7.73,2.67,15.02,6.08,20.1,12.88,1.26,1.68,2.83,1.39,4.36.94,3.64-1.08,6.93-2.89,9.57-5.62,2.53-2.62,4.87-5.41,7.31-8.12.71-.79,1.46-1.56,2.32-2.48,1.71,1.64,1.92,3.41,1.91,5.22-.03,4.76-1.73,8.82-4.86,12.42-3.2,3.69-6.57,7.12-11.62,9.23,1.95,1.03,3.5,1.85,5.05,2.67,2.32,1.23,3.96,3.11,5.09,5.44,1.36,2.81,2.7,5.64,4.04,8.46.3.64.58,1.29.83,1.95.47,1.25-.07,2.04-1.3,2.15-1.71.15-3.46.34-5.14.1-4.3-.59-8.66-1.13-12.63-3.01-1.75-.83-3.24-2.22-4.96-3.45-.16.54-.35,1.17-.57,1.94.62.14,1.14.17,1.58.37,2.05.94,2.41,2.9.62,4.2-.94.69-1.26,1.43-1.48,2.44-.37,1.68-.8,3.34-1.31,4.98-.71,2.27-1.77,4.32-4.08,5.31-.94,4.95-1.76,9.86-5.12,14.13,1.27,1.79,1.33,3.75-.19,5.72.71.99,1.34,2.05,2.14,2.94,2.72,3.04,2.62,6.64,2.16,10.32-.19,1.55-1,2.63-2.61,2.96-.4.08-.79.26-1.18.26-3,.04-5.45,1.03-7.66,3.22-1.85,1.83-4.54,2.26-7.12,1.86-3.39-.51-6.75-1.28-10.12-1.93-2.28-.44-3.59-2.09-4.58-3.81-1.34,0-2.44.06-3.54-.01-2.49-.18-3.16-.75-3.67-3.21-1.1-5.35.43-9.99,3.97-14.02.53-.6,1.16-1.11,1.93-1.84-2.09-.8-2.73-2.14-1.99-4.08.12-.31.05-.81-.13-1.1-2.32-3.64-2.38-7.87-3.14-11.9-.19-1.02-.35-1.82-1.15-2.61-2.21-2.18-3.63-4.76-3.89-7.99-.14-1.74-.37-3.5-1.94-4.9-1.14-1.02-.42-2.66,1.13-3.35q1.35-.61,1.85-1.59ZM247.14,195.11c.85-4.07,1.08-8.11,4.66-10.7,3.24-2.35,6.67-4.43,10.76-4.33,3.52.09,6.63,1.83,9.25,4.11,3.8,3.3,4.51,7.9,4.45,12.61,3.48.59,6.44-.49,9.45-1.31,1.71-.46,2.5-1.38,2.43-3.24-.11-3.03-.03-6.06,0-9.09.06-5.84-2.65-10.25-7.09-13.72-4.17-3.26-8.87-5.59-13.86-7.32-2.72-.95-5.43-1.18-8.33-.66-3.93.71-7.63,2.04-11.06,3.93-4.47,2.47-7.86,6.13-9.19,11.16-1.13,4.28-1.83,8.67-2.58,13.03-.36,2.06.31,2.91,2.37,3.59,1.92.63,3.84,1.26,5.79,1.75.93.23,1.93.14,2.95.19ZM242.54,216.67c.29,2.76.4,5.08.81,7.33.41,2.2.61,4.64,3.32,5.44-.64,1.09-1.13,1.93-1.58,2.7,2.23,2.7,3.59-1.72,6.03-.23-1.89,1.82-3.54,3.53-5.32,5.11-2.57,2.27-3.85,5.22-4.35,8.45-.35,2.24-.5,4.64,1.03,6.61,3.6.73,7.13-1.24,10.62-.21.04.28.07.56.11.84-1.33.32-2.66.65-4.74,1.16,1.71.98,2.74,1.89,3.92,2.18,3.33.81,6.71,1.58,10.11,1.95,2.62.29,5.17-.4,6.86-2.87-1.07-.67-1.99-1.24-2.91-1.82,1.06-.38,1.85-.17,2.64-.18,2.51-.05,5.02-.14,7.53-.29,1.76-.1,2.3-1.18,2.42-2.85.24-3.25-.15-6.24-2.57-8.69-1.63-1.65-3.22-3.32-4.78-5.03-.33-.35-.44-.9-.65-1.37.15-.15.3-.31.45-.47,1.3.71,2.59,1.43,3.86,2.13.93-1.18.63-2.05-.13-2.88-.48-.52-.97-1.03-1.38-1.6-.13-.18-.02-.54-.02-1.02.71.08,1.33.16,2.01.24,2.09-4.1,3.58-8.28,3.83-13.36-5.7,1.9-9.21-1.57-13.21-4.29-.78,2.83-.98,5.48-.36,8.16.21.9,1.19,5.52,1.08,6.28-.07.48-.13,1.07-.43,1.4-1.54,1.68-3.15,3.29-4.62,4.82-1.73-.83-3.38-1.35-4.69-2.33-1.26-.95-2.16-2.37-3.12-3.47.14-1.23.23-2.38.4-3.52.14-.89.16-1.88.6-2.6,1.49-2.45.77-4.97.65-7.93-4.02,3.59-8.41,3.31-13.4,2.22ZM309.02,203.7c-.24-.87-.28-1.27-.45-1.62-1.38-2.91-2.75-5.83-4.2-8.71-1.92-3.84-5.39-5.68-9.3-6.66-1.55-.39-3.31,0-4.86.03-.83,3.67.69,7.33-1.97,10.11,1.29,2.39,3.07,3.72,5.57,4.53,4.85,1.56,9.72,2.49,15.2,2.33ZM234.74,201.07c2.4,1.56,2.29,4.23,2.77,6.65,1.39,6.96,7.67,10.28,14.27,7.56,2.16-.9,3.66-2.41,4.87-4.36,1.06-1.72,2.16-3.44,3.5-4.93,1.7-1.91,3.02-1.66,4.21.56.52.97.93,2.02,1.44,3,2.83,5.49,8.29,8.13,14.35,7.15,1.71-.28,2.84-1.04,3.38-2.59.79-2.28,1.56-4.59,2.11-6.94.29-1.27.57-2.3,1.91-2.81.38-.14.6-.67,1.23-1.41-2.44-.21-4.43-.44-6.42-.54-7.88-.39-15.76-.7-23.63-1.13-6.86-.38-13.71-.9-20.57-1.31-1.16-.07-2.45-.4-3.4,1.1ZM216.29,200.44c7.62.39,13.83-2.74,20.54-5.56-3.8-2.89-1.55-6.51-1.96-9.85-5.54-.16-10.94.08-14.42,5.15-2.07,3.02-4.72,6-4.17,10.27ZM215.48,158.16c-1.84,12.61,6.28,22.42,19.86,24.61.81-3.23,1.62-6.48,2.4-9.65-11.03.58-16.9-6.36-22.27-14.96ZM249.84,191.35c8.17.59,16.16,1.17,24.19,1.76-.24-5.9-5.66-11.09-11.44-11.34-5.13-.22-11.89,4.71-12.75,9.58ZM290.26,184.28c1.74-.45,3.31-.79,4.84-1.27.95-.3,1.88-.74,2.75-1.25,4.66-2.71,8.11-6.66,10.88-11.17,1.76-2.86,2.21-6.09,1.55-9.8-3.31,3.51-6.18,6.88-9.41,9.86-3.37,3.1-7.45,5.04-11.99,5.61.46,2.67.89,5.14,1.39,8.02ZM284.68,198.38c-15.78.75-31.15-.23-46.58-3.01.15,1.05.28,2.01.44,3.16,15.3.77,30.43,2.23,45.7,2.27.18-1,.3-1.69.43-2.42ZM274.6,195.22c-3.7-.34-6.81-.66-9.92-.91-4.43-.36-8.86-.71-13.3-.97-1.96-.11-2.01.06-1.5,2.39,7.51.41,15.06.83,22.62,1.25.4.02.95.14,1.17-.06.36-.33.51-.89.93-1.7Z"/>
        <path class="cls-1" d="M172.77,194.01c2.69,4.83,1.95,10.08,4.82,14.34-.93.5-1.59.84-2.31,1.23.71,1.38,1.38,2.69,2.09,4.06-.43.82-.89,1.7-1.38,2.63.43.64.87,1.3,1.49,2.22-.88.22-1.56.4-2.67.69.93,1.6,1.8,3.11,2.78,4.79-.75.11-1.58.23-2.87.42.83,1.16,1.45,2,2.22,3.06-1.49,1.17-1.51,2.71-.53,4.4-.9.35-1.62.65-2.56,1.03,0,1.5-.1,3.01.02,4.5.18,2.06-.69,3.42-2.58,4.54-1.34-2.92.01-5.85-.55-8.9-1.44-.09-3.05-.2-3.96-2,.92-.52,1.84-1.05,3-1.71-.57-.7-1.1-1.36-1.83-2.25.64-.73,1.34-1.52,2.16-2.44-.68-.77-1.38-1.56-2.03-2.31.38-1.78.56-3.7,3.1-4-.1-.2-.19-.39-.29-.59-1.12.17-2.24.34-3.36.51-.11-.14-.22-.28-.33-.43.96-1.07,1.91-2.15,2.96-3.33-1.18-.54-2.04-.92-2.99-1.35.72-1.6,2.33-.86,3.26-1.93.1-.45.26-1.17.42-1.93-.69-.33-1.48-.7-2.52-1.19,1.15-.82,2.07-1.46,3.21-2.27-.95-.76-1.63-1.32-2.31-1.87,1.11-3.09,2.22-6.19,3.55-9.9Z"/>
        <path class="cls-1" d="M341.29,194.01c2.69,4.83,1.95,10.08,4.82,14.34-.93.5-1.59.84-2.31,1.23.71,1.38,1.38,2.69,2.09,4.06-.43.82-.89,1.7-1.38,2.63.43.64.87,1.3,1.49,2.22-.88.22-1.55.4-2.67.69.93,1.6,1.8,3.11,2.78,4.79-.75.11-1.58.23-2.87.42.83,1.16,1.45,2,2.22,3.06-1.49,1.17-1.51,2.71-.53,4.4-.9.35-1.62.65-2.56,1.03,0,1.5-.1,3.01.03,4.5.18,2.06-.69,3.42-2.58,4.54-1.34-2.92.01-5.85-.55-8.9-1.44-.09-3.05-.2-3.96-2,.92-.52,1.84-1.05,3-1.71-.56-.7-1.1-1.36-1.82-2.25.64-.73,1.34-1.52,2.16-2.44-.68-.77-1.37-1.56-2.03-2.31.38-1.78.56-3.7,3.1-4-.1-.2-.2-.39-.29-.59-1.12.17-2.24.34-3.36.51-.11-.14-.22-.28-.33-.43.95-1.07,1.91-2.15,2.96-3.33-1.18-.54-2.04-.92-2.99-1.35.72-1.6,2.33-.86,3.26-1.93.1-.45.25-1.17.42-1.93-.69-.33-1.48-.7-2.52-1.19,1.15-.82,2.07-1.46,3.21-2.27-.94-.76-1.62-1.32-2.31-1.87,1.11-3.09,2.22-6.19,3.55-9.9Z"/>
        <path class="cls-1" d="M301.14,289.06c5.07,4.13,4.62,8.29-1.2,11.46-.62.35-1.12.98-1.57,1.57-.91,1.18-1.67,1.33-2.71.33-.36-.34-.66-.76-.89-1.21-1.83-3.59-3.9-7.08-5.38-10.81-1.94-4.9-1.18-4.84,2.82-6.92,5.06-2.64,8.8.24,8.92,5.59ZM294.38,292.59c.71,1.67,1.12,2.91,1.75,4.01.3.54.97,1.09,1.55,1.21,1.47.31,3.73-1.66,3.84-3.18.11-1.5-1.36-2.97-3.18-2.9-1.16.04-2.3.48-3.96.86ZM298.14,287.93c-1.34-3.25-2.24-3.45-5.74-1.37.35.97.71,1.97,1.14,3.19,1.7-.67,3.15-1.24,4.6-1.82Z"/>
        <path class="cls-1" d="M334.94,273.12c1.33.27,2.56.36,3.67.8.62.25,1,1.07,1.5,1.63-.57.48-1.12,1.01-1.73,1.43-.21.14-.62.12-.89.03-2.55-.84-4.07.4-5.51,2.35-.87,1.18-2.15,2.16-3.43,2.94-2.7,1.63-5.73.74-7.23-2.04-1.68-3.11-1.71-6.48-.73-9.72,1.12-3.72,6.18-5.01,10-2.86,2.21,1.24,3.73,3.02,4.34,5.45ZM331.65,272.84c-.67-.81-.91-1.36-1.3-1.51-1.59-.61-3.19-1.27-4.84-1.53-.6-.1-1.8.74-1.99,1.37-.74,2.44-.76,4.98.37,7.35.76,1.59,1.98,1.91,3.46.88,1.03-.71,1.89-1.69,2.92-2.63-1.26-1.24-3.51-.83-3.81-3.21,1.56-.21,3.08-.42,5.2-.71Z"/>
        <path class="cls-1" d="M310.05,275.89c2.96.02,5.77,2.34,5.99,4.81.11,1.3.45,2.15,1.45,3.06,2.26,2.07,2.55,4.87,1.04,7.13-1.85,2.77-5.18,4-7.91,2.81-.69-.31-1.38-.87-1.8-1.5-1.85-2.77-3.61-5.61-5.39-8.43-.98-1.54-.72-2.6.49-4.2,1.8-2.35,4.08-3.11,6.14-3.68ZM311.92,291.16c1.94.06,3.18-.69,3.89-1.95.37-.66.31-1.75.07-2.53-.31-1-1.3-1.21-2.27-.94-1.41.4-2.89.71-3.96,2.06.79,1.17,1.52,2.24,2.27,3.36ZM307.74,284.71c1.71-.9,3.16-1.58,4.49-2.42,1.08-.68,1-1.61.14-2.51-1.08-1.13-2.35-1.18-4.12-.39-1.4.63-1.61,1.66-1.31,2.94.16.67.43,1.31.8,2.38Z"/>
        <path class="cls-1" d="M193.26,275.35c-3.24.18-5.33-2.6-5.76-5.19-.12-.7.55-1.69,1.11-2.32,1.2-1.36,2.65-2.51,3.86-3.86,1.14-1.26,2.24-2.6,3.13-4.04.79-1.3,1.83-1.79,3.01-1.08,1.61.96,3.31,2.04,4.43,3.48,1.8,2.31,1.2,4.93-1.3,6.5-1.19.75-1.85,1.58-2.29,2.92-.7,2.12-3.5,3.57-6.2,3.58ZM193.24,267.63c-.69.96-1.52,2.01-2.12,3.17-.08.15,1,1.22,1.66,1.35,1.52.32,2.84-.17,3.57-1.38-1.08-1.1-1.97-1.99-3.11-3.14ZM198.31,262.06c-.9,1.26-1.69,2.35-2.47,3.45,2.18,1.58,3.85,1.65,4.71.3.65-1.01.15-1.93-2.25-3.75Z"/>
        <path class="cls-1" d="M247.78,114.83c1.16,1.38,2.32,2.76,3.48,4.14.26.3.69.58.75.92.11.63.25,1.52-.08,1.88-.28.31-1.4.3-1.81-.02-.94-.72-1.71-1.69-2.48-2.62-1.12-1.35-2.33-2.5-4.37-2.48,0,1.24.14,2.45-.06,3.59-.12.65-.79,1.2-1.22,1.8-.53-.4-1.17-.71-1.55-1.23-.34-.46-.44-1.11-.57-1.7-.74-3.24-1.51-6.47-2.15-9.72-.41-2.04.22-3.12,2.28-3.54,1.74-.34,3.67-.67,5.34-.27,4.52,1.1,5.63,5.62,2.44,9.23ZM242.1,113.16c1.35-.37,2.45-.55,3.46-.96,1.5-.62,1.63-1.57.52-2.79-1.32-1.46-3.08-1.54-5.37-.21.42,1.2.85,2.42,1.39,3.97Z"/>
        <path class="cls-1" d="M310.99,127.29c.19.58.25,1.26.59,1.74.95,1.31,2.01,2.54,3.03,3.78.38.47.94.86,1.15,1.39.23.59.4,1.48.11,1.9-.26.37-1.26.49-1.81.32-.73-.22-1.58-.69-1.96-1.31-1.22-1.97-3-3.21-4.88-4.44-1.5-.99-1.64-1.8-.6-3.32,2.28-3.32,4.68-6.56,6.97-9.75,3.32.12,5.38,1.94,7.36,3.79.37.35.5,1.43.24,1.85-.26.41-1.29.7-1.78.52-1.49-.58-2.88-1.41-4.55-2.27-.55.76-1.11,1.54-1.79,2.46,1.18.9,2.21,1.67,3.22,2.47.77.62,1.38,1.49.56,2.28-.39.37-1.54.31-2.15.03-1.06-.48-1.97-1.28-2.94-1.94-.26.17-.52.34-.78.51Z"/>
        <path class="cls-1" d="M330.84,142.31c.68-1.5.52-2.82-.34-4.08-.4-.59-.83-1.16-1.14-1.78-1.42-2.89.49-5.96,3.71-5.9,3.07.06,5.36,1.63,7.01,4.13.72,1.09.79,2.27-.3,3.35-1.63-.52-3.14-1.11-4.02-2.8-.61-1.18-1.72-1.22-3.08-.59.22.65.37,1.31.64,1.89.38.82.95,1.56,1.28,2.39,1.14,2.89.41,5.15-2.03,6.5-2.47,1.37-5.63.62-7.2-1.81-.54-.83-.85-1.82-1.17-2.77-.33-.96-.16-1.88.85-2.29,1.07-.44,1.71.22,2.07,1.18.47,1.27,1.06,2.43,2.58,2.68.37.06.77-.05,1.15-.08Z"/>
        <path class="cls-1" d="M291.18,117.17c-1.16,2.26-1.86,3.83-2.76,5.28-.3.48-1.21.95-1.7.83-.95-.22-.94-1.1-.66-1.98,1.18-3.75,2.28-7.52,3.51-11.25.19-.59.95-1.48,1.29-1.42.65.13,1.43.74,1.69,1.34.46,1.1.55,2.34.83,3.52.29,1.23.63,2.45,1.11,4.32.75-1.34,1.21-2.07,1.58-2.84.57-1.19,1.08-2.4,1.61-3.6.4-.9,1-1.66,2.07-1.25,1.07.41,1.08,1.33.69,2.28-.26.66-.51,1.32-.78,1.98-1.14,2.8-2.26,5.61-3.47,8.38-.25.56-.97,1.38-1.35,1.32-.64-.1-1.45-.7-1.71-1.3-.72-1.62-1.19-3.36-1.96-5.63Z"/>
        <path class="cls-1" d="M275.44,113.95c-.38,2.13-.62,3.71-.94,5.26-.19.89-.48,2-1.66,1.65-.5-.15-1.09-1.23-1.03-1.84.34-3.91.82-7.8,1.31-11.7.06-.45.46-.86.88-1.58,3.67,1.84,3.34,6.03,5.52,9.1.27-1.35.46-2.31.64-3.28.13-.69.16-1.41.34-2.08.25-.9.69-1.93,1.8-1.54.52.19.76,1.21,1.11,1.86.04.08,0,.2,0,.3-.43,3.2-.85,6.39-1.3,9.58-.14,1.04-.51,2.2-1.73,2.05-.7-.09-1.49-.91-1.89-1.61-1.03-1.82-1.87-3.75-3.04-6.16Z"/>
        <path class="cls-1" d="M254.64,113.34c.31-1.53.43-2.76.81-3.89,1.03-3.09,3.28-4.27,5.77-3.22,1.28.55,2.76.71,3.93,1.42,2.81,1.71,3.5,4.39,2.03,7.31-1.14,2.27-3.02,3.8-5.35,4.67-2.49.93-4.66.09-5.86-2.3-.66-1.32-.95-2.83-1.33-4ZM258.61,110.09c-.16.04-.32.07-.49.11-.13.87-.34,1.73-.38,2.6-.07,1.54.1,3.21,1.62,3.94,1.62.77,2.79-.55,3.95-1.5.07-.06.14-.14.21-.21,2.27-2.46,1.73-4.3-1.59-5.39-1.14.64-.73,2.88-2.86,2.71-.16-.76-.31-1.51-.46-2.27Z"/>
        <path class="cls-1" d="M282.25,297.13c.04,3.09-1.07,5.02-3.48,6.27-3.86,2.02-3.95,2.09-5.18-2.06-.79-2.66-1.27-5.41-1.77-8.15-.31-1.66.84-2.92,2.77-3.3,3.07-.59,6.58,1.89,7.39,5.28.19.77.22,1.58.27,1.96ZM277.26,300.6c1.89-1.48,2.35-3,1.65-5-.61-1.72-1.75-2.44-4.04-2.42.8,2.49,1.58,4.92,2.39,7.43Z"/>
        <path class="cls-1" d="M267.17,299.96c.89,1.29,1.69,2.32,2.33,3.45.5.88.94,1.99-.28,2.62-1.01.53-1.65-.26-2.24-1.02-.83-1.07-1.73-2.08-3.12-2.83,0,.85.1,1.72-.04,2.55-.08.5-.54.95-.83,1.43-.53-.36-1.24-.61-1.55-1.11-.35-.56-.46-1.34-.49-2.04-.09-2.12-.11-4.23-.13-6.35-.02-2.25,1.38-3.49,3.23-4.3,2.02-.89,3.92-.32,5.07,1.39,1.21,1.79,1,3.46-.67,5.13-.35.35-.77.65-1.29,1.08ZM263.52,297.12c.23.24.45.49.68.73.77-.33,1.64-.55,2.28-1.05.31-.24.42-1.2.18-1.53-.24-.33-1.25-.56-1.49-.34-.67.6-1.12,1.45-1.65,2.2Z"/>
        <path class="cls-1" d="M204.9,284.14c-1.2-1.15-2.22-2.11-3.21-3.07-1.44.26-2.84.51-4.25.76-.13-.24-.25-.47-.38-.71.72-.75,1.31-1.73,2.19-2.2,3.1-1.66,6.24-3.27,9.48-4.65,2.02-.86,3.4.36,2.65,2.37-1.38,3.67-3.02,7.24-4.69,10.79-.25.54-1.35,1.12-1.88.98-1.07-.27-1.1-1.27-.68-2.23.16-.37.32-.74.47-1.11.11-.28.18-.56.3-.92ZM204.39,279.54c.85.68,1.31,1.06,2,1.61.35-1.05.59-1.8.98-2.99-1.14.52-1.8.83-2.98,1.38Z"/>
        <path class="cls-1" d="M253.72,301.05c-2.17-.58-3.62-.35-4.66,1.29-.31.49-.82.9-1.32,1.2-.29.17-.93.22-1.12.03-.31-.3-.57-.89-.49-1.28.1-.56.53-1.06.81-1.59,1.24-2.29,2.48-4.57,3.71-6.87.24-.44.37-.95.65-1.37,1.06-1.55,2.62-1.47,3.6.18.15.26.31.54.36.83.62,3.47,1.21,6.94,1.8,10.41.05.29.13.71-.02.89-.46.55-.97,1.24-1.58,1.42-.31.09-1.19-.74-1.32-1.27-.3-1.24-.3-2.56-.42-3.86Z"/>
        <path class="cls-1" d="M197.61,142.94c-1.04-1.23-2.12-2.39-3.07-3.65-1.64-2.18-3.23-4.4-4.79-6.63-.48-.69-.78-1.68.19-2.07.53-.21,1.61.13,2.03.59,1.28,1.43,2.35,3.03,3.49,4.58.71.96,1.4,1.94,2.13,2.95,2.99-1.15,4.76-4.3,8.1-4.45.8,2.78.78,2.75-1,3.92-2.27,1.48-4.49,3.03-7.07,4.77Z"/>
        <path class="cls-1" d="M236.31,288.7c.47.94.9,1.91,1.41,2.83,1.24,2.24,2.36,2.4,4.23.62.73-.69,1.37-1.51,2.19-2.06.37-.24,1.18-.11,1.62.15.3.18.51.97.36,1.32-.39.9-.9,1.8-1.54,2.55-2.15,2.54-4.38,5.01-6.58,7.51-.27.3-.46.76-.79.89-.6.23-1.27.26-1.91.37-.08-.72-.49-1.63-.19-2.12.89-1.45,2.05-2.73,3.23-4.23-1.79-1.56-3.51-3.17-3.6-5.67-.02-.69.37-1.39.58-2.1.34-.02.67-.04,1.01-.06Z"/>
        <path class="cls-1" d="M226.59,289.25c1.15-.48,2.01-1.01,2.93-1.17.66-.11,1.4.29,2.11.46-.24.69-.27,1.64-.75,2.04-.91.75-2.09,1.17-3.14,1.76-.33.19-.6.5-.99.84.67,1.29,1.35,2.51,1.94,3.77.4.87.55,1.87-.5,2.37-1.07.5-1.65-.32-2.1-1.16-.56-1.05-1.09-2.12-1.59-3.07-.27-.07-.39-.15-.46-.12-1.03.41-2.01,1.86-3.15.52-1.01-1.19.18-2.23.74-3.24.98-1.76,1.94-3.53,3.02-5.22.62-.97,1.48-1.78,2.24-2.67.19.1.39.2.59.3-.27,1.41-.54,2.83-.88,4.59Z"/>
        <path class="cls-1" d="M216.3,127.72c1.78-.83,3.22-1.53,4.69-2.16.93-.4,1.84-.33,2.32.68.52,1.09-.25,1.68-1.08,2.13-1.83.99-3.65,2-5.52,2.92-1.16.57-2.23.14-2.9-.87-.89-1.33-1.67-2.74-2.39-4.18-.9-1.79-1.73-3.62-2.52-5.46-.27-.62-.49-1.34-.45-2,.06-1.09,1.14-1.59,1.94-.86.8.73,1.49,1.64,2.03,2.58,1.34,2.34,2.56,4.75,3.89,7.24Z"/>
        <path class="cls-1" d="M220.63,286.61c-4.16-1.5-5.74-.88-6.58,2.59.62.38,1.35.7,1.92,1.22.31.28.61.98.46,1.28-.22.46-.79.93-1.28,1.03-2.11.4-4.04-1.14-4.27-3.28-.4-3.83,4.06-7.71,7.8-6.75,1.74.44,2.15,1.22,1.94,3.93Z"/>
        <path class="cls-1" d="M299.47,125.63c.32-.97.47-1.67.76-2.3,1.54-3.29,3.12-6.56,4.68-9.85.04-.09.09-.18.14-.27.49-.83,1.09-1.59,2.16-1.05,1.01.51,1.01,1.43.56,2.35-.45.9-.98,1.77-1.42,2.67-1.41,2.9-2.8,5.81-4.17,8.75-.37.79-.81,1.58-1.75,1.15-.49-.23-.71-1.04-.97-1.45Z"/>
        <path class="cls-1" d="M210.6,134.84c-1.37-1.35-2.29-2.1-3-3.01-1.8-2.29-3.51-4.66-5.23-7.01-.24-.32-.55-.71-.54-1.06.01-.63.08-1.4.45-1.82.23-.26,1.38-.2,1.6.1,2.43,3.31,4.81,6.66,7.08,10.09.28.43-.15,1.34-.36,2.71Z"/>
        <path class="cls-1" d="M306.3,228.95c0-2.3.02-4.32,0-6.33-.01-1,.21-1.77,1.28-2.12,1.57-.52,3.01-.32,4.25.76.84.72.65,1.55.16,2.45-.24.44-.32,1.1-.21,1.59.73,3.18-.74,4.8-3.96,4.23-.48-.08-.93-.35-1.52-.59ZM310.74,226.95c-.79-1.22-1.58-1.74-2.44-1.23-.42.25-.41,1.23-.6,1.88.18.15.37.3.55.45.77-.34,1.54-.68,2.48-1.1ZM307.7,223.19c1.26.71,2.1.38,3.03-.79-1.41-.75-2.43-1.12-3.03.79Z"/>
        <path class="cls-1" d="M220.29,113.98c-.46-.05-.66-.12-.84-.08-1.21.25-2.27.03-2.72-1.21-.16-.45,0-1.41.32-1.58.99-.53,2.21-1.25,3.18-1.06,2.7.49,3.87,4.03,2.18,6.19-.36.46-1.14.59-1.72.88-.23-.58-.52-1.15-.65-1.76-.07-.35.13-.76.25-1.37Z"/>
        <path class="cls-1" d="M328.69,124.5c-2.47-2.18-2.23-3.37,1.03-5.16,2.65,2.08,3.12,4.96,1.15,7.2-.68.77-1.5,1.6-2.56.85-1.04-.73-.32-1.58.19-2.34.11-.16.14-.37.2-.55Z"/>
        <path class="cls-1" d="M225.72,221.65c-.06,2.29-1.73,4.11-3.64,3.97-1.67-.13-2.87-1.73-2.76-3.69.12-2.08,1.57-3.88,3.1-3.84,1.83.04,3.35,1.68,3.3,3.56ZM222.15,223.93c.74-.96,1.51-1.51,1.54-2.1.02-.58-.62-1.6-1.12-1.71-1.17-.25-1.42.91-1.46,1.75-.02.53.52,1.08,1.04,2.06Z"/>
        <path class="cls-1" d="M217.48,216.95c.7,2.51.57,5.64-.45,8.32-.79-1-1.42-1.8-2.19-2.76-.32.89-.6,1.67-.88,2.45-1.49-2.21-1.12-4.37-.77-6.54.23-.06.45-.12.68-.19.7,1,1.39,2,2.3,3.29.71-1.59-.13-3.42,1.31-4.57Z"/>
        <path class="cls-1" d="M196.5,221.04c.08-1.24.21-2.82,1.75-3.3.9-.28,2.21-.04,3.04.46,1.38.84,1.32,2.29.8,3.74-.52,1.43-1.38,2.47-2.93,2.63-1.47.16-2.59-1.34-2.65-3.53ZM198.34,222.32c.55.09.85.19,1.14.18,1.42-.05,1.58-1.17,1.46-2.14-.06-.52-.83-1.38-1.23-1.35-.99.07-1.5.89-1.49,1.93,0,.39.06.78.12,1.38Z"/>
        <path class="cls-1" d="M320.31,223.25c-1.42.19-2.34.15-3.12.46-.68.27-1.56.84-1.7,1.44-.14.58.41,1.48.89,2.03.5.56,1.29.87,2,1.32-1.53,1.2-3.07.98-4.3-.5-1.09-1.29-.79-3.46.68-4.91,1.77-1.75,3.35-1.84,5.57.16Z"/>
        <path class="cls-1" d="M191.08,224.09v-5.17c-1.36-.43-2.47-.78-3.56-1.13-.03-.19-.07-.39-.11-.58.64-.26,1.3-.77,1.93-.74,2.39.13,4.87-.08,7.12.87,0,.24-.01.49-.02.73-1.21.2-2.42.39-3.64.59-.81,1.62.85,3.73-1.72,5.43Z"/>
        <path class="cls-1" d="M203.39,217.55h5.09c-.16,2.55-2.28,1.25-3.48,2.27.82.48,1.53.9,2.83,1.66-2.55.18-3.01,1.8-3.31,3.66-1.73-1.23-.82-2.5-.94-3.56-.14-1.18-.13-2.38-.2-4.02Z"/>
        <path class="cls-1" d="M210.57,217.94c.82,2.2.96,4.37-.33,6.46-1.01-2.22-.8-4.36.33-6.46Z"/>
        <path class="cls-5" d="M247.14,195.11c-1.02-.06-2.02.04-2.95-.19-1.95-.49-3.88-1.11-5.79-1.75-2.06-.68-2.73-1.52-2.37-3.59.76-4.36,1.46-8.76,2.58-13.03,1.32-5.03,4.72-8.69,9.19-11.16,3.44-1.89,7.13-3.23,11.06-3.93,2.9-.52,5.61-.29,8.33.66,4.99,1.73,9.68,4.06,13.86,7.32,4.44,3.47,7.15,7.89,7.09,13.72-.03,3.03-.11,6.06,0,9.09.07,1.86-.72,2.77-2.43,3.24-3.01.82-5.97,1.9-9.45,1.31.06-4.71-.65-9.31-4.45-12.61-2.62-2.28-5.73-4.01-9.25-4.11-4.09-.11-7.52,1.98-10.76,4.33-3.58,2.59-3.81,6.63-4.66,10.7ZM268.86,175.4c-1.06-.3-2.04-.58-3.43-.98.91-.9,1.51-1.49,2.39-2.34-2.61-.36-4.77-.87-6.86.03.19.79.73,1.75.45,2.17-.4.61-1.39.83-1.9,1.1.46,1.17.88,2.26,1.46,3.75.62-1,1.1-1.76,1.65-2.64.71.07,1.48.14,2.19.21.18.82.32,1.45.55,2.45,1.26-1.35,2.25-2.41,3.51-3.74Z"/>
        <path class="cls-1" d="M242.54,216.67c4.99,1.1,9.38,1.37,13.4-2.22.11,2.96.84,5.48-.65,7.93-.44.72-.46,1.71-.6,2.6-.17,1.14-.27,2.29-.4,3.52.96,1.11,1.86,2.53,3.12,3.47,1.31.98,2.96,1.5,4.69,2.33,1.47-1.52,3.08-3.14,4.62-4.82.3-.33.36-.91.43-1.4.11-.76-.87-5.38-1.08-6.28-.62-2.68-.42-5.32.36-8.16,4,2.72,7.51,6.19,13.21,4.29-.24,5.08-1.74,9.26-3.83,13.36-.68-.08-1.3-.16-2.01-.24,0,.48-.11.84.02,1.02.41.56.9,1.08,1.38,1.6.76.83,1.05,1.7.13,2.88-1.27-.7-2.57-1.41-3.86-2.13-.15.16-.3.32-.45.47.21.46.32,1.01.65,1.37,1.56,1.71,3.15,3.39,4.78,5.03,2.42,2.45,2.81,5.44,2.57,8.69-.12,1.67-.66,2.76-2.42,2.85-2.51.14-5.02.24-7.53.29-.79,0-1.59-.2-2.64.18.92.58,1.84,1.16,2.91,1.82-1.69,2.47-4.23,3.16-6.86,2.87-3.4-.37-6.77-1.14-10.11-1.95-1.18-.29-2.21-1.2-3.92-2.18,2.08-.51,3.41-.83,4.74-1.16-.04-.28-.07-.56-.11-.84-3.48-1.03-7.02.94-10.62.21-1.53-1.98-1.38-4.37-1.03-6.61.51-3.24,1.78-6.19,4.35-8.45,1.79-1.57,3.44-3.29,5.32-5.11-2.45-1.49-3.81,2.94-6.03.23.45-.77.94-1.61,1.58-2.7-2.71-.8-2.91-3.24-3.32-5.44-.41-2.26-.52-4.57-.81-7.33ZM271.77,240.91c-.27-1.03-.3-2.73-.85-2.92-.94-.32-2.34.06-3.32.59-2.08,1.13-4.17,6.12-3.64,8.26.27,1.1,1.08,1.32,2.12,1.07,3.57-.87,5.41-3.18,5.69-6.99ZM252.73,247.2c2.17-4.57.31-9.69-4.5-9.94-2.42,5.03-.58,9.24,4.5,9.94Z"/>
        <path class="cls-1" d="M309.02,203.7c-5.48.16-10.36-.76-15.2-2.33-2.49-.81-4.28-2.14-5.57-4.53,2.66-2.78,1.14-6.43,1.97-10.11,1.55-.03,3.3-.42,4.86-.03,3.91.98,7.38,2.83,9.3,6.66,1.45,2.88,2.81,5.8,4.2,8.71.17.35.21.76.45,1.62Z"/>
        <path class="cls-1" d="M234.74,201.07c.95-1.5,2.24-1.17,3.4-1.1,6.86.41,13.71.93,20.57,1.31,7.87.43,15.75.74,23.63,1.13,2,.1,3.98.34,6.42.54-.62.74-.85,1.27-1.23,1.41-1.33.51-1.61,1.54-1.91,2.81-.55,2.35-1.32,4.65-2.11,6.94-.53,1.55-1.66,2.32-3.38,2.59-6.05.98-11.51-1.66-14.35-7.15-.51-.98-.91-2.03-1.44-3-1.19-2.22-2.51-2.47-4.21-.56-1.33,1.5-2.44,3.22-3.5,4.93-1.21,1.95-2.71,3.46-4.87,4.36-6.6,2.73-12.88-.6-14.27-7.56-.48-2.42-.37-5.09-2.77-6.65ZM239.18,201.78c-.76,4.87,1.15,9.34,4.88,11.41,2.96,1.65,7.42.87,10.39-1.82,2.75-2.49,3.67-6.02,2.4-9.25-3.42-.59-15.68-.82-17.67-.34ZM267.08,203.07c-.94,1.93-.61,3.5.06,5,1.89,4.31,7.01,7.14,11.64,6.36.93-.16,2.06-.6,2.62-1.29,2.13-2.66,2.94-5.81,3.13-9.3-5.94-1.38-11.67-.69-17.44-.78Z"/>
        <path class="cls-1" d="M216.29,200.44c-.55-4.27,2.1-7.25,4.17-10.27,3.48-5.06,8.88-5.31,14.42-5.15.41,3.34-1.85,6.96,1.96,9.85-6.71,2.82-12.92,5.95-20.54,5.56Z"/>
        <path class="cls-1" d="M215.48,158.16c5.36,8.6,11.24,15.54,22.27,14.96-.79,3.16-1.6,6.42-2.4,9.65-13.58-2.19-21.7-12-19.86-24.61Z"/>
        <path class="cls-1" d="M249.84,191.35c.86-4.87,7.62-9.8,12.75-9.58,5.78.25,11.19,5.44,11.44,11.34-8.03-.59-16.02-1.17-24.19-1.76Z"/>
        <path class="cls-1" d="M290.26,184.28c-.5-2.88-.93-5.35-1.39-8.02,4.53-.57,8.62-2.52,11.99-5.61,3.23-2.98,6.1-6.35,9.41-9.86.66,3.71.21,6.94-1.55,9.8-2.77,4.5-6.22,8.46-10.88,11.17-.87.51-1.79.95-2.75,1.25-1.53.48-3.1.83-4.84,1.27Z"/>
        <path class="cls-1" d="M284.68,198.38c-.13.73-.25,1.42-.43,2.42-15.27-.04-30.4-1.5-45.7-2.27-.16-1.15-.3-2.11-.44-3.16,15.43,2.78,30.79,3.76,46.58,3.01Z"/>
        <path class="cls-1" d="M274.6,195.22c-.41.81-.57,1.37-.93,1.7-.22.2-.77.08-1.17.06-7.55-.41-15.11-.83-22.62-1.25-.51-2.33-.46-2.5,1.5-2.39,4.44.26,8.87.61,13.3.97,3.11.25,6.22.57,9.92.91Z"/>
        <path class="cls-4" d="M294.38,292.59c1.65-.38,2.79-.82,3.96-.86,1.82-.07,3.29,1.4,3.18,2.9-.11,1.52-2.37,3.49-3.84,3.18-.59-.12-1.25-.67-1.55-1.21-.63-1.1-1.03-2.34-1.75-4.01Z"/>
        <path class="cls-4" d="M298.14,287.93c-1.45.58-2.9,1.16-4.6,1.82-.43-1.22-.79-2.21-1.14-3.19,3.51-2.09,4.41-1.89,5.74,1.37Z"/>
        <path class="cls-4" d="M331.65,272.84c-2.11.29-3.63.5-5.2.71.3,2.38,2.55,1.96,3.81,3.21-1.03.94-1.88,1.92-2.92,2.63-1.48,1.03-2.69.71-3.46-.88-1.13-2.37-1.11-4.9-.37-7.35.19-.63,1.39-1.46,1.99-1.37,1.66.27,3.26.93,4.84,1.53.39.15.62.7,1.3,1.51Z"/>
        <path class="cls-4" d="M311.92,291.16c-.75-1.11-1.48-2.19-2.27-3.36,1.06-1.35,2.54-1.66,3.96-2.06.97-.27,1.96-.06,2.27.94.24.78.3,1.86-.07,2.53-.71,1.27-1.95,2.01-3.89,1.95Z"/>
        <path class="cls-4" d="M307.74,284.71c-.37-1.07-.64-1.71-.8-2.38-.31-1.29-.09-2.31,1.31-2.94,1.77-.8,3.04-.74,4.12.39.86.9.94,1.83-.14,2.51-1.33.84-2.78,1.51-4.49,2.42Z"/>
        <path class="cls-4" d="M193.24,267.63c1.14,1.15,2.03,2.05,3.11,3.14-.73,1.21-2.06,1.71-3.57,1.38-.65-.14-1.73-1.2-1.66-1.35.6-1.17,1.43-2.21,2.12-3.17Z"/>
        <path class="cls-4" d="M198.31,262.06c2.39,1.82,2.9,2.74,2.25,3.75-.87,1.35-2.53,1.28-4.71-.3.78-1.1,1.57-2.19,2.47-3.45Z"/>
        <path class="cls-4" d="M242.1,113.16c-.54-1.55-.97-2.76-1.39-3.97,2.28-1.33,4.05-1.24,5.37.21,1.1,1.23.97,2.17-.52,2.79-1,.41-2.1.59-3.46.96Z"/>
        <path class="cls-4" d="M258.61,110.09c.15.76.31,1.51.46,2.27,2.14.17,1.72-2.07,2.86-2.71,3.32,1.09,3.86,2.93,1.59,5.39-.07.07-.14.15-.21.21-1.16.94-2.34,2.27-3.95,1.5-1.52-.73-1.68-2.4-1.62-3.94.04-.87.25-1.73.38-2.6.16-.03.32-.07.49-.11Z"/>
        <path class="cls-4" d="M277.26,300.6c-.81-2.5-1.59-4.94-2.39-7.43,2.29-.02,3.43.7,4.04,2.42.7,2,.24,3.52-1.65,5Z"/>
        <path class="cls-4" d="M263.52,297.12c.53-.75.98-1.6,1.65-2.2.24-.21,1.26.01,1.49.34.23.33.12,1.29-.18,1.53-.64.5-1.51.72-2.28,1.05-.23-.24-.46-.48-.68-.73Z"/>
        <path class="cls-4" d="M204.39,279.54c1.18-.55,1.85-.85,2.98-1.38-.39,1.19-.64,1.93-.98,2.99-.69-.55-1.15-.93-2-1.61Z"/>
        <path class="cls-4" d="M310.74,226.95c-.95.41-1.72.76-2.48,1.1-.18-.15-.37-.3-.55-.45.18-.65.17-1.63.6-1.88.85-.51,1.65,0,2.44,1.23Z"/>
        <path class="cls-4" d="M307.7,223.19c.59-1.92,1.62-1.54,3.03-.79-.92,1.17-1.76,1.51-3.03.79Z"/>
        <path class="cls-4" d="M222.15,223.93c-.53-.98-1.07-1.53-1.04-2.06.04-.83.29-2,1.46-1.75.5.11,1.14,1.13,1.12,1.71-.03.59-.79,1.14-1.54,2.1Z"/>
        <path class="cls-4" d="M198.34,222.32c-.05-.6-.11-.99-.12-1.38-.02-1.03.5-1.86,1.49-1.93.4-.02,1.16.83,1.23,1.35.12.97-.03,2.08-1.46,2.14-.29.01-.59-.08-1.14-.18Z"/>
        <path class="cls-4" d="M268.86,175.4c-1.25,1.34-2.24,2.4-3.51,3.74-.22-1-.36-1.63-.55-2.45-.71-.07-1.48-.14-2.19-.21-.55.88-1.03,1.64-1.65,2.64-.58-1.49-1-2.57-1.46-3.75.51-.27,1.5-.49,1.9-1.1.28-.42-.26-1.38-.45-2.17,2.09-.9,4.25-.39,6.86-.03-.88.86-1.48,1.45-2.39,2.34,1.39.4,2.37.68,3.43.98Z"/>
        <path class="cls-4" d="M271.77,240.91c-.28,3.81-2.12,6.13-5.69,6.99-1.04.25-1.85.02-2.12-1.07-.53-2.14,1.56-7.13,3.64-8.26.97-.53,2.38-.91,3.32-.59.55.19.59,1.9.85,2.92ZM266.4,245.46c2.16-1.29,3.18-2.93,2.84-5.58-2.43,1.21-3.34,2.91-2.84,5.58Z"/>
        <path class="cls-4" d="M252.73,247.2c-5.08-.7-6.92-4.91-4.5-9.94,4.8.26,6.67,5.37,4.5,9.94ZM249.61,239.6c-.94,3.3-.67,4.06,1.93,5.52,1.02-3.15.72-3.99-1.93-5.52Z"/>
        <path class="cls-4" d="M239.18,201.78c1.99-.48,14.24-.25,17.67.34,1.27,3.23.35,6.76-2.4,9.25-2.96,2.69-7.43,3.47-10.39,1.82-3.73-2.07-5.64-6.54-4.88-11.41Z"/>
        <path class="cls-4" d="M267.08,203.07c5.76.09,11.5-.61,17.44.78-.19,3.49-1,6.64-3.13,9.3-.55.69-1.68,1.13-2.62,1.29-4.63.78-9.75-2.05-11.64-6.36-.66-1.51-1-3.07-.06-5Z"/>
        <path class="cls-1" d="M266.4,245.46c-.5-2.67.4-4.37,2.84-5.58.34,2.65-.68,4.29-2.84,5.58Z"/>
        <path class="cls-1" d="M249.61,239.6c2.65,1.53,2.94,2.38,1.93,5.52-2.59-1.46-2.86-2.23-1.93-5.52Z"/>
        <path class="cls-4" d="M252.38,295.08l-1.05,2.85,1.79.74.32-4.11s-1.05,0-1.05.52Z"/>
      </g>
      <path class="cls-6" d="M343.45,264.81l-25-9.03-48.61,22.22-52.78-11.11-18.75-17.36-20.14,23.61,13.19,21.53s35.41,18.05,61.11,17.36,88.19,1.39,89.58-.69,1.39-46.53,1.39-46.53Z"/>
    </g>
    <text class="cls-2" transform="translate(186.49 273.07) rotate(32.82)"><tspan x="0" y="0">B</tspan></text>
    <text class="cls-2" transform="translate(196.73 279.62) rotate(28.83)"><tspan x="0" y="0">E</tspan></text>
    <text class="cls-2" transform="translate(206.37 284.95) rotate(24.24)"><tspan x="0" y="0">A</tspan></text>
    <text class="cls-2" transform="translate(219.48 290.78) rotate(18.83)"><tspan x="0" y="0">C</tspan></text>
    <text class="cls-2" transform="translate(232.35 295.13) rotate(12.92)"><tspan x="0" y="0">H</tspan></text>
    <text class="cls-2" transform="translate(246.63 298.27) rotate(7.06)"><tspan x="0" y="0">S</tspan></text>
    <text class="cls-2" transform="translate(257.87 299.53) rotate(3.47)"><tspan x="0" y="0">I</tspan></text>
    <text class="cls-2" transform="translate(262.29 299.92) rotate(-.59)"><tspan x="0" y="0">D</tspan></text>
    <text class="cls-2" transform="translate(275.7 299.66) rotate(-6.35)"><tspan x="0" y="0">E</tspan></text>
    <text class="cls-2" transform="translate(286.93 298.4) rotate(-12.13)"><tspan x="0" y="0"> </tspan></text>
    <text class="cls-2" transform="translate(300.5 295.38) rotate(-17.91)"><tspan x="0" y="0">B</tspan></text>
    <text class="cls-2" transform="translate(312.28 291.51) rotate(-22.99)"><tspan x="0" y="0">B</tspan></text>
    <text class="cls-2" transform="translate(323.74 286.67) rotate(-28.32)"><tspan x="0" y="0">Q</tspan></text>
  </g>
</svg>