<?xml version="1.0" encoding="UTF-8"?>
<svg id="Layer_1" xmlns="http://www.w3.org/2000/svg" viewBox="0 0 400 400">
  <defs>
    <style>
      .cls-1, .cls-2 {
        fill-rule: evenodd;
      }

      .cls-3 {
        font-family: AmericanTypewriter-CondensedBold, 'American Typewriter';
        font-size: 44px;
        font-weight: 700;
      }

      .cls-3, .cls-4 {
        fill: #fff;
      }

      .cls-2 {
        fill: #1bb24b;
      }
    </style>
  </defs>
  <g>
    <g>
      <polygon class="cls-2" points="60.82 151.29 8.45 227.93 11.07 231.23 110.95 227.77 75.07 161.86 64.39 149.39 60.82 151.29"/>
      <path class="cls-1" d="M92.88,188.64c3.51.51,2.58,5.9,6.25,6.23.1,3.85,2.07,5.65,4.51,6.91-.28,4.06,2.02,5.28,4.46,6.32.28.99-.4,1.13-1.12,1.24.83.82,2.79,1.35,1.33,2.9.46-.34.95-.66,1.75-.68.27,1.19-.03,1.86-1.1,1.84,1.18,1.5,4.6,4.74,2.67,5.81.6,1.01,1.92,1.22,3.61,1.01.33,4.85,3,7.12,2.99,12.33-.57-.34-2.24-1.27-1.74.68-1.07-1.12-4.14-.02-4.28-2.17-1.31,2.35-4.07-1.55-7.05,1.54-1.8.31-1.33-1.87-1.94-2.88-1.7.59.85,1.46.15,2.97-.46-.39-2-2.42-1.77.08-8.28-.57-20.59-.62-27.92.19-.03-.58-.07-1.18-.09-1.77-2.68,1.57-5.81,1.88-8.31.4-1.61,2.32-12.63,2.39-16.01.81-6.52,3.75-21.02.21-24.17,4.16-5.11-2.87-13.92.37-20.31-1.97-.61-1.86.39-2.28,1.04-3.03-2.39-.09-1-.46-1.38-4.1,2.76-.89,3.9-3.25,3.84-6.72,2.74.43,1.19-3.06,4.02-2.59-.51-1.79-.47-1.11-.15-2.96,4.03.46,1.59-4.98,5.09-5-.41-.58-1.39-.54-1.27-1.73,2.38.66,1.11-2,3.5-1.36-.05-.98-.1-1.98-.15-2.96.51-.48,1.31-.7,2.34-.7,3.48-8.95,9.99-15.13,13.69-23.87,2.05-.03,2.69-1.33,2.19-3.67,1.74.07,1.75-1.44,3.51-1.36,1.44-7.95,9.01-10.36,10.39-18.36,6.51-1.46,4.95-10.23,11.3-11.85-.41-.58-1.39-.55-1.28-1.72,1.96-.12,2.9-1.16,5.32-.86,2.66,1.89-.7,3.07,3.1,2.82-2.45,2.68.76,10.53,3.43,9.33.89.15.16,4.49,3.17,4.01-.32,1.84.73,2.14.78,3.53,7.64,6.37,9.1,19.56,16.74,25.92.26,1-.41,1.14-1.13,1.25ZM58.22,161.23c-1.87.82-.53-1.9-2.43-1.07-.9.3-.4,1.9-2.29,1.31-.73,3.12-1.47,6.22-4.4,7.36-.71,3.28,1.67,3.15,2.61,4.62-4.12,3.02-4.14,12.7-11.43,9.48.67,1.77,2.84,1.85,3.17,4-1.56.82-2.72,1.12-3.5,1.36,2.53,2.06-.66,1.55-1.64,3.06-2.53,3.93-3.9,10.12-8.35,11.11-.16,2.88-1.21,4.96-3.9,5.54,1.5,3.07-.87.42-1.71,1.87,3.82.72-2.44,2.6.22,4.15-4.22.89-3.19,6.54-6.12,8.63-.38-1.03.55-3.53-.76-3.54,0,.93.19,2.05-1.1,1.84-.63,1.95,1.94.36,1.31,2.31-2.46.61-2.01,3.85-3.29,5.52,6.18-1.36,16.23-1.47,23.13-1.15.1-.46-.04-1.17.53-1.21,23.01,2.1,41.35-1.48,69.44-2.24-1.29-6.24-6.79-9.22-8.95-12.64-.72-5.27-5.7-5.8-5.92-11.59-2.66.4-2.28-2.11-1.96-3.46-2.36.06-4.5-3.77-2.6-4.63-1.85,1.01-1.99-.34-3.62-1.01-4.28-12.94-14.51-22.09-19.43-32.32.02.6-1.01.79-1.19.05.72-.09,1.39-.24,1.13-1.24-1.65.57-1.58-.76-3-.45-2.87,4-4.15,9.46-8.94,11.74,1.25,2.03-.44,2.88-1.57,4.24-.71-2.35-.14-4.62.87-6.58.98-.04.4,1.62,1.27,1.72.13-2.55,2.17-7.4,3.91-4.95-.06-.82.21-1.31.49-1.8Z"/>
    </g>
    <text class="cls-3" transform="translate(40.45 217.98)"><tspan x="0" y="0">20</tspan></text>
  </g>
  <g>
    <path class="cls-4" d="M126.1,145.42s142.85-.86,157.14-.14,68.15,4.18,75.94,7.09,16.85-1.68,17.27,6.56c.42,8.24.69,50.14.61,52.63s-3.68,29.1-3.68,29.1c0,0-169.05,5.49-177.71,5.73-8.66.23-65.62-3.07-65.62-3.07l-3.94-97.89Z"/>
    <g>
      <path d="M173.13,212.65c-8.1-8.1-16.2-16.2-24.79-24.79-2.03,14.21-.25,27.75-.47,41.34-4.55.8-8.87.8-13.5.3-.12-1.61-.39-3.26-.35-4.9.16-7.8.47-15.59.59-23.38.07-4.82-.14-9.65-.14-14.47-.01-5.85.07-11.7.09-17.54.01-4.55,0-9.1,0-13.64,0-.61.03-1.23.06-2.52,1.15,1.12,1.89,1.76,2.53,2.48,2.89,3.26,5.7,6.61,8.64,9.82,8.46,9.27,17.67,17.75,27.22,25.88.13.11.33.15.72.31,13.16-12.62,26.39-25.3,39.69-38.06-.05,25.62.24,51.13-.28,76.68-5.17,1.65-9.94,0-14.76-.06-.49-13.94,1.07-27.51.42-41.09-.21-.1-.43-.21-.64-.31-4.22,3.84-8.51,7.6-12.63,11.54-4.14,3.96-8.1,8.11-12.38,12.41Z"/>
      <path d="M255.74,154.54c4.11,10.13,7.97,19.86,12,29.52,3.67,8.81,7.23,17.68,11.41,26.25,3.23,6.64,7.34,12.86,11.06,19.26.13.23.24.47.54,1.08-1.49.19-2.81.44-4.14.5-3.43.14-6.86.22-10.28.28-2.8.05-3.42-.51-4.31-3.24-.54-1.67-1.29-3.27-2.06-5.18-10.21-.25-20.44-.5-30.97-.75-.66,3.08-1.28,5.92-1.92,8.88-5.59-.14-11.01-.27-16.66-.4,1.89-4.21,3.73-8.22,5.5-12.26,2.38-5.43,4.6-10.93,7.08-16.32,5.73-12.44,10.37-25.39,17.54-37.16,1.77-2.91,2.98-6.16,4.46-9.25.15-.31.37-.58.76-1.2ZM262.49,208.08c-2.56-5.78-5.09-11.48-7.59-17.12-2.55,5.33-5.19,10.82-8.03,16.74,5.52.13,10.57.26,15.62.38Z"/>
      <path d="M311.34,176.4c-1.09-1.6-2.14-3-3.02-4.49-1.23-2.07-2.34-4.21-3.49-6.33-.83-1.53-.77-1.92.79-2.93,5.09-3.3,10.64-5.19,16.76-5.2,6.03,0,11.64,1.83,17.29,3.74,5.2,1.75,9.19,5.02,12.98,8.71,3.4,3.3,5.35,7.54,7.38,11.71.57,1.17,1.01,2.39,1.52,3.59,1.14,2.69,1.49,5.46,1.38,8.41-.28,7.76-.79,10.6-7.15,23.07,1.1,1.23,2.32,2.47,3.41,3.83,2.07,2.6,4.06,5.28,6.1,7.91,1.17,1.51,2.37,2.99,3.61,4.54-2.95-.21-5.87-.22-8.71-.69-2.99-.49-5.93-.51-8.85.1-1.47.31-2.28-.16-3.05-1.23-1.19-1.66-2.44-3.28-3.59-4.96-2.73-3.97-5.41-7.96-8.09-11.91,2.26-2.86,4.47-5.46,6.46-8.22,4.43-6.11,4.51-12.6,1.1-19.13-1.95-3.72-4.56-7.12-7.92-9.61-6.68-4.94-14.02-5.93-21.75-2.45-.51.23-1,.49-1.5.74-.41.2-.83.39-1.66.79Z"/>
      <path d="M298.61,198.68c-1.18-.91-3.21-.69-3.35-3.07-1.19.43-2.17.66-3.03,1.12-.86.46-1.59,1.16-2.65,1.65,1.78-2.19,1.44-4.48.73-6.74-.88-.17-1.73-.26-2.53-.52-.21-.07-.35-.63-.37-.97-.04-1.2,1.49-2.72,2.71-2.76,1.04-.03,1.41.76,1.42,3.43.87-1.53,1.58-2.77,2.28-4.02,0,0-.08.06-.08.06.62.52,1.24,1.04,2.17,1.81-.1-1.98.56-3.04,2.46-2.89-.21-2.36,2.66-4.24.17-6.78-.04,0-.39-.11-.72-.08-1.09.09-1.8-.33-2.03-1.42-.24-1.13.5-2.69,1.42-3.08.97-.4,1.73-.02,2,.87.25.82.38,1.8.17,2.61-.25.96.12,1.3.83,1.78.2-.35.37-.55.45-.79.51-1.46.99-2.94,1.38-4.09-1.23-.76-2.22-1.52-3.33-2-.87-.37-1.88-.4-3.02-.61.77-.46,1.46-.59,1.59-1.78.19-1.67,1.71-2.75,3.34-3.49,1.75.68,1.59,1.98,1,3.51.76.02,1.35.03,2.03.05-.28.45-.46.76-.7,1.15.24.13.44.32.67.35,2.36.31,3.12.83,2.87,2.11-.39,1.93-1.95,1.23-3.15,1.3-.09,0-.18.02-.6.08-.39,1.09-.84,2.32-1.28,3.55.14.11.28.21.42.32,1.14-.86,2.28-1.72,3.42-2.59,1.01-.78,2.28-.81,3.03-.06.7.71.62,2-.17,2.73-.84.78-1.78.67-2.88-.33-.24-.22-.49-.45-.77-.59-.09-.05-.31.16-.67.35.38.37.79.65,1.04,1.04.74,1.15.7,2.21-.36,3.23-.63.6-1.08,1.4-1.62,2.11-.67-1.15-1.34-2.31-2.05-3.53-2.04,2.69-2.04,2.83.14,6.3.7-1.01,1.34-1.93,1.98-2.84.06.7-.07,1.49.22,2.08,1.28,2.62.81,3.85-1.98,4.88-.34.12-.64.35-.95.52-.04-.58-.08-1.15-.13-1.97-1.1.4-2.24.5-1.8,1.75.37,1.03,1.28.65,2,.14-.31,1.38-.72,2.74-.9,4.14-.1.81.16,1.67.26,2.51,0,0-.15.12-.15.12-.35-.23-.69-.47-1.04-.7l.08.05ZM291.47,191.26c-.15.13-.3.27-.46.4.19,1.01.39,2.03.71,3.72.79-1.12,1.67-1.9,1.52-2.28-.28-.73-1.15-1.24-1.78-1.84Z"/>
      <path d="M328.34,221.91c.23,1.25.56,2.5.66,3.76.17,2.18,0,2.31-2.12,2.69-.36.06-.72.12-1.15.2-.08.66-.16,1.28-.29,2.29-.2-.85-.31-1.34-.43-1.87-2.17,2.16-2.69,2.26-5.19,1.04-2.38,1.62-3.18,1.46-4.67-.76-.36-.54-1.05-.88-1.62-1.27-.53-.36-1.1-.66-1.79-1.06-.05.03-.34.12-.49.32-.33.42-.59.9-.9,1.38-.76-.4-1.74-.69-2.37-1.32-.37-.37-.41-1.4-.19-1.96.56-1.41,1.26-1.53,4.62-1.1-.94-.99-2.96-.47-2.71-2.21.13-.93.6-1.81,1.05-3.1-.12-.38-.67-1.29-.63-2.17.04-.71.68-1.51,1.26-2.05.87-.82,1.86-.71,2.69.21,1.13,1.25.93,2.35-.86,4.56.26.23.53.45.89.76,1.2-1.49,2.35-2.92,3.53-4.38,1.53,1.18,4.42,1.17,3.2,4.2-.51,1.25-1.93,1.38-4.27.51-.66.46-1.39.96-1.98,1.36.97.5,2.2.74,2.69,1.47.86,1.29-.88,1.96-1.55,3.23,1.81.04,2.75-.64,3.53-1.9,1-1.61,2.17-3.1,3.26-4.65.18.12.37.24.55.36-.49.8-.98,1.59-1.61,2.62.7-.04,1.42.13,1.65-.13,1.34-1.55,2.87-1.34,4.52-.74.19.07.49-.17.74-.27v-.03ZM324.12,228.39c.29.2.57.41.86.61.05-.4.18-.81.14-1.19-.04-.4-.26-.78-.39-1.17-.34.21-.87.35-.98.65-.1.29.23.73.38,1.1Z"/>
      <path d="M306.57,212.22c1.14.19,2.64.02,2.79,1.59.08.77-.41,1.79-.98,2.38-1.15,1.18-2.14.08-2.96-.62-1.43.94-2.73,1.8-4.03,2.65l.06.05c0-.89.06-1.86-1.28-.97.42-1.08.83-2.16,1.24-3.24.3-.42.75-.8.87-1.26.14-.55,0-1.18-.03-1.77-.18-.03-.36-.06-.54-.09-.57.65-1.14,1.29-1.71,1.93.59.49,1.02.84,1.44,1.19-1.31-.04-2.05.72-2.29,1.88-.25,1.19-.29,2.43-.46,3.94.61-1.04,1.08-1.85,1.56-2.67,0,.72,0,1.45-.01,2.18l.07-.09c-.37.59-.74,1.17-1.12,1.78-2.53-.53-.56-3.39-2.4-4.22-.3.17-.72.4-1.43.8.65-2.34,1.21-4.35,1.77-6.37l-.44-.17c-.66,1.45-1.32,2.89-2.28,4.99-.07-1.67-.12-2.68-.17-3.83-1.28.14-2.54.35-2.77-1.41-.21-1.61.06-2.08,1.92-3.01.52-.26.93-.76,1.38-1.14-.4-1.54-1.61-.87-2.53-.93-1.88-.13-2.73-1.01-2.31-2.58.28-1.06.6-2.23,2-2.35.99-.09,2.16,1,2.48,2.28.11.44-.07.97.1,1.37.29.68.76,1.28,1.58,1.68-.09-.57-.19-1.15-.26-1.58.58-.08,1.14-.15,1.87-.24.46,1.08-.65,3.07,1.84,3.65-.06-1.11-.01-2.27-.23-3.38-.26-1.36-.84-2.65-1.1-4.01-.11-.61.25-1.3.39-1.96,0,0-.08-.05-.08-.05.5,3.71,2.03,7.03,3.6,10.38,1.57-.87,1.28-1.65.73-2.71-1.19-2.27-2.2-4.64-3.28-6.97,0,0,.15-.12.15-.12.8,1.41,1.51,2.89,2.44,4.22.89,1.27.74,3.28,3.26,3.44,1.47.1,1.91,2.97,1.21,5.41-1.04.03-2.09.05-3.53.09.79.98,1.31,1.64,1.82,2.27.6-.87,1.13-1.64,1.66-2.42ZM300.22,207.54c-.36,1.33-.6,2.25-.98,3.66,1.28-1.13,2.17-1.83.98-3.66ZM295.06,211.08c.11.06.21.13.32.19.17-.18.42-.34.48-.56.06-.23-.07-.5-.11-.76-.12,0-.24,0-.36,0-.11.38-.21.75-.32,1.13Z"/>
      <path d="M328.35,221.94q1.05-.98.46-3.02c.48.37.81.63,1.37,1.06.32-2.63,2.98-2.13,4.33-3.43,1.79.29,1.93,1.96,2.62,3.14.92,1.58,1.98,3.04,3.14,4.44.34.41.46.99.65,1.42-1.45,4.22-5.43,4.42-8.68,5.66-1.02.39-2.02-.29-2.55-1.25-.53-.93-.16-1.71.56-2.47.52-.55,1-1.32,1.09-2.05.32-2.45-.4-3.21-3-3.52,0,0,0,.03,0,.03ZM337.36,221.3c-.23.01-.45.02-.68.03-.05,1.97-.1,3.93-.15,6.05.75.07,1.36.13,1.97.19.02-.14.05-.27.07-.41-.58-.37-1.16-.74-1.85-1.17.22-1.59.43-3.14.64-4.7ZM335.28,223.35c.12.08.24.16.36.25.02-.87.04-1.73.06-2.6-.03,0-.06,0-.1-.01-.11.79-.22,1.57-.33,2.36Z"/>
      <path d="M293.82,186.81c-.46.03-.92.12-1.37.07-1.47-.17-2.05-.79-2.02-2.05.03-1.29.97-2.38,2.13-2.48,1.21-.1,2.83.81,2.69,1.81-.14.96-.97,1.82-1.5,2.72,0,0,.08-.06.08-.06Z"/>
      <path d="M301.4,218.22c-.21,1.01-.43,2.03-.64,3.04-.16-.03-.32-.06-.48-.08.02-.62.03-1.25.05-1.87,0,0-.07.09-.07.09.4-.37.8-.74,1.21-1.12,0,0-.06-.05-.06-.05Z"/>
      <path class="cls-4" d="M299.56,199.33c1.08,2.33,2.09,4.7,3.28,6.97.55,1.06.84,1.84-.73,2.71-1.57-3.35-3.1-6.66-3.6-10.38.35.23.69.47,1.04.7Z"/>
      <path class="cls-4" d="M303,185.16c-.64.92-1.28,1.83-1.98,2.84-2.17-3.47-2.18-3.61-.14-6.3.7,1.22,1.37,2.38,2.05,3.53,0,0,.08-.08.08-.08Z"/>
      <path class="cls-4" d="M291.47,191.26c.63.6,1.5,1.11,1.78,1.84.15.38-.74,1.16-1.52,2.28-.32-1.69-.52-2.71-.71-3.72.15-.13.3-.27.46-.4Z"/>
      <path class="cls-4" d="M300.36,192.56c-.72.51-1.63.89-2-.14-.45-1.25.69-1.35,1.8-1.75.06.82.1,1.39.13,1.97,0,0,.07-.08.07-.08Z"/>
      <path class="cls-4" d="M324.12,228.39c-.14-.37-.48-.81-.38-1.1.11-.3.64-.44.98-.65.14.39.35.77.39,1.17.04.39-.08.79-.14,1.19-.29-.2-.57-.41-.86-.61Z"/>
      <path class="cls-4" d="M301.42,214.07c-.42,1.08-.83,2.16-1.25,3.23,0,0,.08-.08.08-.08-.47.81-.95,1.62-1.56,2.66.17-1.52.21-2.75.46-3.94.24-1.16.98-1.92,2.29-1.88h-.03Z"/>
      <path class="cls-4" d="M306.57,212.22c-.53.77-1.06,1.55-1.66,2.42-.5-.63-1.03-1.29-1.82-2.27,1.44-.04,2.48-.07,3.53-.09,0,0-.05-.06-.05-.06Z"/>
      <path class="cls-4" d="M301.45,214.06c-.42-.35-.85-.7-1.44-1.19.57-.64,1.14-1.29,1.71-1.93.18.03.36.06.54.09.02.59.17,1.22.03,1.77-.12.47-.57.84-.87,1.26,0,0,.03,0,.03,0Z"/>
      <path class="cls-4" d="M300.22,207.54c1.2,1.83.3,2.53-.98,3.66.38-1.42.62-2.33.98-3.66Z"/>
      <path class="cls-4" d="M301.46,218.27c-.4.37-.8.74-1.21,1.12,0-.73.01-1.45.01-2.18,0,0-.08.08-.09.09,1.34-.89,1.28.08,1.28.97Z"/>
      <path class="cls-4" d="M295.06,211.08c.11-.38.21-.75.32-1.13.12,0,.24,0,.36,0,.04.26.17.53.11.76-.06.21-.31.37-.48.56-.11-.06-.21-.13-.32-.19Z"/>
      <path class="cls-4" d="M337.36,221.3c-.21,1.56-.42,3.11-.64,4.7.69.44,1.27.8,1.85,1.17-.02.14-.05.27-.07.41-.61-.06-1.21-.11-1.97-.19.05-2.12.1-4.09.15-6.05.23-.01.45-.02.68-.03Z"/>
      <path class="cls-4" d="M335.28,223.35c.11-.79.22-1.57.33-2.36.03,0,.06,0,.1.01-.02.87-.04,1.73-.06,2.6-.12-.08-.24-.16-.36-.25Z"/>
    </g>
  </g>
</svg>