<?xml version="1.0" encoding="UTF-8"?>
<svg id="Layer_1" xmlns="http://www.w3.org/2000/svg" viewBox="0 0 400 400">
  <defs>
    <style>
      .cls-1 {
        fill: #9b1d1f;
      }

      .cls-2, .cls-3 {
        fill-rule: evenodd;
      }

      .cls-4 {
        font-family: AmericanTypewriter-CondensedBold, 'American Typewriter';
        font-size: 44px;
        font-weight: 700;
      }

      .cls-4, .cls-5 {
        fill: #fff;
      }

      .cls-3 {
        fill: #1bb24b;
      }
    </style>
  </defs>
  <g>
    <path d="M262.84,102.89c2.86-.35,2.94-.33,3.03,1.87.07,1.66.01,3.32.01,5.31h11.76c-1.41,7.06-1.72,13.59,3.68,19.04,1.11-.13,2.28-.27,4.06-.48-1.4,2.03-2.95,3.21-2.81,5.27.12,1.83-.15,3.71,1.11,5.62,2.95-1.75,5.85-3.47,8.86-5.26.8.73,1.51,1.36,2.19,1.98-.17.3-.22.54-.36.62-3.83,2.19-3.66,2.15-2.81,6.51,2.11,10.85,4,21.74,6.06,32.6,1.09,5.73.76,11.48.58,17.46-5.01,1.34-10.23.64-15.34,1.16-5.04.51-10.13.58-15.43.86v5.31c11.52,0,22.96,1.71,34.63.94.73-3.69.71-7.37.66-11.06-.19-14.29-.39-28.59-.59-42.88,0-.39,0-.78,0-1.17-.2.17-.39.34-.59.5-.57-.88-1.36-1.69-1.67-2.66-.32-.98-.21-2.12-.22-3.19-.03-4.79-.05-9.58-.04-14.37,0-2.35.05-4.7.12-7.04.18-6.46.38-12.91.56-19.37.01-.47-.11-.95-.22-1.75.78-.32,1.6-.65,2.88-1.18.2,2.59.39,4.71.5,6.83.08,1.53.43,2.87,1.77,3.81,1.83,1.29,3.62,2.64,5.44,3.96,4.52,3.26,9.03,6.52,13.57,9.74,1.51,1.07,3.11,2.01,4.66,3.03,1.33.88,2.84,1.58,3.66,3.64-1.34-.21-2.25-.35-3.26-.51-1.71,2.59-3.43,5.18-5.15,7.77.11.15.22.3.33.45.69-.35,1.42-.65,2.08-1.05,3.09-1.89,6.14-3.82,9.24-5.69,1.15-.7,2.34-1.08,3.17.73-.92.61-1.79,1.2-2.68,1.8,1.93,2.97,3.82,5.89,5.74,8.79,7.11,10.76,11.45,22.62,14.33,35.12,1.15,4.98,2.01,9.97,2.22,15.07.1,2.57-.17,2.96-2.7,3.04-14.77.48-29.54.91-44.31,1.38-1.75.06-3.5.2-5.52.32-.15,1.96-.28,3.77-.43,5.71.67.13,1.21.33,1.76.33,6.07,0,12.17.34,18.2-.14,7.87-.63,15.83-.54,23.59-2.58,2.96-.78,6.13-.74,9.23-1.08.08,3.57-.26,4.24-3.01,5.34-2.01.81-3.38,1.8-3.81,4.27-.6,3.45-6.43,6.83-11.09,4.11-.84-.49-1.63-1.05-2.43-1.56-5.72,5.4-11.96,5.94-17.09.98-2.49,1.64-5.2,2.93-8.3,2.97-3.1.04-5.76-.97-7.84-3.82-2.55,2.5-5.66,3.28-9.08,3.26-3.38-.02-6.74.09-9.07-3.26-2.36,2.33-5.22,3.11-8.32,3.17-3.19.06-5.95-.94-8.13-3.59-2.9,2.1-6.09,3.35-9.65,3.75-4.37.5-7.59-1.11-9.86-4.8-.2-.32-.42-.62-.73-1.08-3.36,2.1-6.87,3.45-10.8,3.35-6.34-.18-11.84-2.37-16.22-7.01-1.67-1.76-2.99-3.84-4.62-5.64-.59-.65-1.56-1.1-2.44-1.31-2.65-.65-5.38-1.02-8.02-1.72-1.81-.48-3.9-.65-4.56-3.11-.14-.53-1.41-.93-2.21-1.09-3.53-.7-7.09-1.29-10.89-1.97v-2.79c5.57,1.22,10.89,2.39,16.34,3.58,1.02-1.1,2.06-2.21,3.21-3.45-2.8-1.59-5.7.41-8.98-.78,1.67-1.23,2.98-2.2,4.3-3.17-.17-.22-.35-.44-.52-.66-2.84.33-5.23,3.22-8.76,1.55.53-.77.92-1.5,1.46-2.1,6.64-7.46,13.35-14.85,19.94-22.36,4.57-5.21,8.96-10.58,13.59-16.06.86,4.35.09,8.93.88,13.05,2.46-2.23,4.94-4.49,7.86-7.14v13.33c.23.1.47.19.7.29,3.68-3.79,7.35-7.59,11.29-11.65v10.69c3.11-4.19,4.93-8.76,8.58-12.33.1,1.21.29,2.42.27,3.63-.06,6.66-.22,13.31-.24,19.97,0,4.01.2,8.02.3,12.03.03,1.15,0,2.29,0,3.3-7.24,2.67-25.48,6.79-28.6,6.35,1.22-2.46,2.4-4.82,3.76-7.58-9.39,1.22-18.21,2.92-27.2,2.71-.09,0-.18.31-.38.67,1.03.3,2.01.61,3.01.87,3.69.94,7.47,1.61,11.05,2.85,6.72,2.32,13.72,3.06,20.65,4.18,5.11.83,10.25,1.46,15.39,2.1,1.72.21,3.47.19,5.15.27.63-2.85-.19-48.83-.92-52.92h-23.18c-.11-.48-.25-.77-.18-.83,1.76-1.63,1.59-3.77,1.71-5.91.24-4.32.8-8.58,3.27-12.34.36-.54.36-1.45.26-2.14-.84-5.6.86-10.56,3.37-15.08,5.04-.38,9.71-.73,14.59-1.1.21-2.49.42-4.88.64-7.41ZM337.11,169.07c2.03.24,4.22-.92,5.93-3,2.53-3.09,4.22-6.56,2.45-10.52-1.68-3.74-4.71-5.9-9.01-5.86-.88,0-1.76-.08-2.64-.04-7.83.38-12.21,7.58-8.86,14.61.35.74.97,1.51,1.67,1.92,2.98,1.78,6.21,2.83,10.47,2.89ZM315.06,169.75c.36-.76.66-1.46,1.03-2.12,2.39-4.26,4.8-8.51,7.19-12.77.79-1.42,1.61-2.84,1.64-4.52-3.14-.88-13.15-.77-16.55.18-.06,3.13-1.76,6.16-1.13,9.71,2.36-.76,2.13-2.96,3.11-4.21,3.06-.59,6.02-.69,9.53-.16-.67,1.19-1.11,1.99-1.56,2.79-1.89,3.3-3.88,6.56-5.63,9.93-.75,1.44-1.22,3.12-1.43,4.74-.29,2.25,1.44,3.81,4.07,3.99,1.9.13,3.56-1.44,3.81-3.63.25-2.16-.6-3.13-3.14-3.58-.26-.05-.51-.18-.94-.34ZM229.04,157.03c-1.81,1.61-3.67,3.17-5.43,4.83-5.94,5.64-11.83,11.33-17.77,16.97-.91.86-.84,1.63-.12,2.64.47-.39.93-.74,1.34-1.12,6.56-6.12,13.12-12.23,19.67-18.36,1-.93,1.96-1.9,2.92-2.88.91-.93.33-1.51-.61-2.09ZM237.11,162.27c-8.71,7.01-16.95,14.29-24.82,22.01,9.15-6.02,17.54-13.01,26.17-19.9-.54-.85-.94-1.47-1.35-2.11ZM262.39,125.73c-3.83-.78-11.38.25-13.95.94-.94.25-1.91.55-1.87,1.84,2.05.75,12.78.86,15.81.16v-2.95ZM265.68,129.12h11.7c-3.52-2.38-7.45-3.02-11.7-3.18v3.18ZM246.78,144.92c.02.2.04.39.06.59,4.86-.2,9.72-.39,14.58-.64.42-.02.82-.45,1.22-.69-.06-.19-.11-.38-.17-.57-5.27-.05-10.53-.12-15.69,1.31ZM266.54,151.61c2.14-1.52,3.78-2.69,5.42-3.85-.07-.14-.13-.28-.2-.42h-4.92c-.09,1.31-.18,2.49-.31,4.27ZM267.26,143.83c-.01.3-.02.6-.04.9,2.7.2,5.4.41,8.1.61.02-.23.03-.45.05-.68-2.69-.47-5.35-1.16-8.11-.84Z"/>
    <path d="M210.72,252.86c.78-2.3,1.39-4.09,2.01-5.89-.15-.09-.31-.19-.46-.28-.94.76-1.85,1.54-2.81,2.27-8.95,6.73-21.87,1.79-24.1-9.22-.31-1.53-.54-3.08-.69-4.63-.85-8.66,7.77-14.56,13.9-14.99,1.5-.11,3.07.42,4.57.81,2.64.68,5.24.55,7.8-.3,1.96-.65,2.64-1.77,2.44-3.77-.09-.88-.29-1.74-.36-2.61-.14-1.87-.86-3.4-2.48-4.43-.8-.51-1.42-1.06-.98-2,3.18-.8,6.26-1.61,9.35-2.32.73-.17,1.58-.11,2.3.1.98.28,1.38,1.05,1.03,2.08-.09.28-.2.57-.39.79-2.19,2.5-2.07,5.57-2.11,8.6-.03,2.1,0,4.21,0,6.53,1.11-.85,2.13-1.57,3.07-2.38,3.16-2.73,6.83-2.12,9.48-.25,6.82,4.83,8.6,11.15,5.32,19.65-1.23,3.19-2.58,6.33-3.87,9.49-1.13,2.75-.21,4.94,1.85,6.83.6.55,1.14,1.16,1.92,1.96-3.89,0-6.62-1.57-7.39-4.49-1.47-5.6-2.2-11.34-1.65-17.13.17-1.81,1.05-3.55,1.59-5.32,1.11-3.64.31-5.56-2.86-6.87-2.38-.98-5.5.28-6.96,2.83-1.55,2.7-2.38,5.63-2.07,8.71.29,2.91.71,5.84,1.49,8.65.63,2.29,1.87,4.42,2.92,6.8-.24.06-.66.21-1.09.24-2.62.19-5.25.37-7.87.53-.85.05-1.71,0-2.87,0ZM205.68,234.72c-.33-1.2-.66-2.16-.86-3.14-.46-2.22-1.05-4.38-2.63-6.11-1.82-2-3.26-2.07-5.26-.25-3.66,3.31-4.97,7.38-3.82,12.19.53,2.21,1.34,4.15,3.28,5.68,2.92,2.3,6.01,2.49,9.41,1.77,2.93-.62,4.93-2.3,5.99-5.05,2.02-5.24,1.63-10.67,1.45-16.21-.58.11-.9.08-1.11.22-2.7,1.74-4.46,4.06-4.44,7.44,0,1.27.12,2.61-2,3.47Z"/>
    <path d="M362.52,251.28c-3.91.17-7.49,1.32-11.41.53.86-1.88,1.6-3.5,2.34-5.12-.11-.1-.22-.2-.33-.29-.49.36-1,.7-1.47,1.08-7.22,5.77-16.03,4.57-22.89-.91-1.02-.81-1.67-2.15-2.3-3.35-1.89-3.59-2.14-7.44-1.65-11.41.42-3.43,2.4-5.77,5.22-7.38,7.32-4.2,14.25-2.06,18.72,4.85,1.13,1.74.74,3.08-1.01,4.15-4.57,2.81-9.14,5.62-13.7,8.44-.49.3-.91.69-1.33,1.01.66,2.7,2.49,4.4,5.25,4.75,6.46.81,11.71-.93,15.24-6.88,1.06-1.79,1.61-3.43,1.45-5.41-.11-1.46-.1-2.93-.23-4.39-.35-3.73-1.6-6.73-6.1-6.93-.09-1.21-.12-2.14,1.33-2.13,2.23,0,4.45.01,6.68.07,1.13.03,2.25.16,3.56.26-.19,1.17-.32,1.99-.51,3.16,6.2-4.64,12.19-3.74,18.52-.27-1.63,2.12-3.31,3.99-4.61,6.08-1.24,2-2.1,4.24-3.13,6.37-.24-.08-.47-.16-.71-.25.26-.96.56-1.92.75-2.89.33-1.71.86-3.44.83-5.16-.06-3.13-2.59-4.82-5.5-3.7-2.52.97-4.68,2.54-5.21,5.48-.34,1.92-.68,3.85-.76,5.79-.09,2.24.12,4.49.18,6.74.07,2.79-.36,5.74,2.78,7.74ZM330.48,240.83c2.24-1.47,4.64-2.8,6.73-4.5,1.15-.94,2.04-2.4,2.62-3.8.95-2.31-.39-4.97-2.87-6.34-2.38-1.32-4.46-.93-6.25,1.23-3.43,4.14-3.61,9.16-.24,13.4Z"/>
    <path d="M150.34,269.53c1.3-2.7,2.58-4.77,3.3-7.01.74-2.29.88-4.78,1.4-7.15.5-2.32-.8-4.83.54-7.09,1.66.11,1.46,1.21,1.58,2.15.36,2.7.75,5.4,1.14,8.1.28,1.91,1.14,3.58,2.55,4.85,1.88,1.7,3.76,3.47,5.91,4.78,5.75,3.5,13.85.69,16.44-5.5,1.78-4.25,1.41-6.65-2.13-9.62-2.99-2.5-6.36-4.55-9.48-6.9-2.72-2.06-5.49-4.09-7.96-6.44-3.39-3.21-4.1-7.38-3.53-11.9.76-5.99,9.88-10.84,14.47-8.37.68.37,1.44.6,2.18.87,3.05,1.1,4.71.6,6.4-2.17.66-1.08,1.49-1.4,2.38-.83.4.26.53,1.4.35,2.02-.78,2.72-1.78,5.38-2.6,8.09-.71,2.34-1.28,4.72-1.93,7.07-.11.42-.3.82-.86,1.15-.1-1.99-.2-3.98-.3-5.97-.19-3.86-2.51-6.85-6.22-8.01-4.68-1.46-10.08,2.28-10.35,7.16-.12,2.14,1.15,3.54,2.71,4.57,3.02,1.98,6.15,3.79,9.25,5.65,2.59,1.56,5.32,2.92,7.78,4.67,6.56,4.66,7.94,14.05,3.51,20.38-2.24,3.2-4.76,5.76-8.51,7.3-4.94,2.04-9.32,1.23-13.63-1.43-1.91-1.18-3.74-2.51-5.72-3.56-2.25-1.19-3.11-.96-4.91.89-1.58,1.62-1.56,1.64-3.78,2.24Z"/>
    <path d="M251.32,220.48c-1.75,1.47-2.85,3.32-3.43,5.44-1.47,5.33-1.91,10.61,1.2,15.57.82,1.31,1.73,2.64,2.86,3.68,2.27,2.08,4.97,1.77,6.9-.61,1.22-1.51,1.88-3.25,1.59-5.18-.66-4.43-1.99-8.6-5.35-11.78-1.24-1.17-2.73-2.06-4.4-3.29,2.36-.99,4.6-2.06,6.94-2.88,1.35-.47,2.37.49,3.34,1.37,3.82,3.46,5.24,7.99,5.39,12.89.08,2.59-.54,5.22-1.04,7.8-.94,4.85-7.55,8.5-11.39,7.99-2.29-.3-4.59-.98-6.73-1.86-6.23-2.55-8.73-7.7-7.52-14.77.65-3.78,2.01-7.13,4.92-9.74,1.53-1.37,2.95-2.86,4.49-4.21.5-.44,1.24-.6,1.86-.89.12.15.25.31.37.46Z"/>
    <path d="M291.49,222.76c3.88-1.13,7.9-1.31,12.07-1.6.07,1.31.12,2.36.18,3.5.28-.07.61-.06.79-.22,3.71-3.29,7.82-4.04,12.5-2.26,2.44.93,4.2,2.39,5.28,4.73,1.87,4.08,2.34,8.25.8,12.53-.73,2.02-1.56,4-2.34,6.01-.9,2.29-1.47,4.64-1.4,7.14.07,2.74-.07,5.5,2.3,7.75-.47-.11-.99-.13-1.39-.35-3.75-2.05-5.34-5.38-5.06-9.49.2-2.9.76-5.81,1.44-8.64,1.1-4.58,1.21-9.08-.34-13.56-.28-.82-.7-1.63-1.23-2.32-1.66-2.19-3.11-2.45-5.59-1.17-3.44,1.77-5.34,4.62-5.37,8.44-.03,3.8.11,7.64.63,11.4.29,2.11,1.52,4.08,2.44,6.44-3.31.55-6.85.09-10.5.06.63-2.86,1.24-5.57,1.81-8.28,1.22-5.78,1.1-11.45-1.36-16.94-1.37-3.07-1.87-3.54-4.8-2.47-.24.09-.55-.05-.83-.09-.01-.2-.03-.4-.04-.6Z"/>
    <path d="M279.7,220.72c-.15.54-.14,1.07-.39,1.28-6.66,5.47-7.86,14.48-2.78,21.4.68.93,1.55,1.78,2.51,2.42,2.21,1.47,4.72,2.25,7.2.98,2.66-1.37,3.77-3.95,3.7-6.86-.15-5.87-2.9-10.43-7.49-13.95-.76-.58-1.6-1.06-2.41-1.6,2.27-3.02,5.97-3.55,8.38-1.04,1.95,2.02,3.8,4.22,5.28,6.6.94,1.5,1.38,3.45,1.58,5.25.23,2.12-.03,4.29-.11,6.44-.23,6.82-10.12,14.09-18.53,8.57-2.55-1.67-4.8-3.55-6.31-6.36-4.45-8.26.11-20,9.37-23.12Z"/>
    <path d="M333.17,278.84c.12-2.3.22-4.27.33-6.29-2.67.22-3.24,1.95-2.21,6.06-1.32.16-2.6.32-3.88.48,2.84-2.91.66-6.19,1.33-9.15-.57-.43-1.09-.82-1.96-1.48,1.42-.77,2.61-1.41,4.06-2.2.17,1.47.29,2.5.4,3.51,4.61.44,4.57.44,4.59,5.01,0,1.17.38,2.33.65,3.9-1.01.04-2.21.1-3.31.15Z"/>
    <path d="M250.41,270.04c-.42-.94-.64-1.44-.85-1.94.08-.18.1-.4.23-.52.81-.81,1.61-2.02,2.9-1.46,1.48.64.25,1.89.26,2.85,0,2.15-.16,4.31-.06,6.45.03.78.6,1.54.99,2.46-1.6.49-3.13,1.25-4.84-.09-.51-.4-1.52-.12-2.29-.24-2.11-.36-3.22-2.21-2.29-4.13,1.07-2.22,2.66-3.87,5.96-3.39ZM250.19,271.22c-2.11.42-3.34,1.88-3.04,3.4.35,1.8,1.79,1.53,3.33,1.61-.1-1.73-.19-3.24-.29-5.01Z"/>
    <path d="M320.75,275.91c-.07.98-.13,1.69-.2,2.67-.94.05-1.85.11-2.81.16.53-3.67,1.38-7.11-.32-10.82.79-.41,1.66-.87,3.03-1.59v7.64c1.69-.82,2.41-1.63,1.29-3.24h3.87c.61,2.01-1.32,2.01-2.23,3.28.9,1.25,1.88,2.63,2.85,3.99-2.36,1.55-3.28,1.24-5.49-2.1Z"/>
    <path d="M315.55,278.54c-1.79.25-3.12.53-4.46.59-.74.04-1.65-.09-2.22-.5-.63-.45-1.24-1.26-1.37-2-.19-1.05.58-1.73,1.58-2.18.92-.41,2.36-.19,2.77-1.95-1.49-.08-3.07,2.27-3.99-.29,1.35-1.72,3.33-2.6,4.97-1.92.83.34,1.91,1.09,2.07,1.82.44,2.04.45,4.18.65,6.43ZM311.85,274.54c-1.18.63-1.53,1.32-.95,2.53q1.02-1.01.95-2.53Z"/>
    <path d="M223.68,273.66c.07-2.43,2.4-4.32,5.32-4.3,2.4.01,3.76,1.73,3.64,4.6-.09,2.41-1.89,4.65-3.67,4.58-2.8-.11-5.37-2.47-5.29-4.88ZM229.12,276.34c1.35-2.4,1.24-3.31-.65-5.19-1.5.85-1.6,2.25-1.39,3.71.16,1.11.9,1.62,2.03,1.48Z"/>
    <path d="M348.19,271.67c1.19-.41,2.38-.83,3.73-1.3,0,2.09-.03,3.73.01,5.37.03,1.17.27,2.21,2.2,1.58-.16-1.74-.33-3.53-.53-5.68.65-.38,1.53-.9,2.69-1.59.26.82.59,1.4.6,1.99.02.96-.19,1.93-.26,2.9-.13,1.6-.38,3.26,2.08,4.2-.98.35-1.52.74-1.79.61-1.54-.77-3.11-.44-4.7-.41-1.95.03-2.46-.62-2.52-2.71-.05-1.59.56-3.38-1.6-4.29.03-.22.06-.44.08-.66Z"/>
    <path class="cls-1" d="M266.61,274.66q-4.16-.19-3.7-2.53h3.6v-4.18h2.71c.11,1.33.2,2.47.31,3.78,1.2.1,2.33.19,3.42.28q.32,2.37-3.37,2.75c-.06,1.09-.11,2.21-.19,3.66-.91-.06-1.69-.12-2.54-.17-.1-1.4-.17-2.51-.24-3.59Z"/>
    <path d="M210.1,272.32c-.59-.26-1.18-.52-1.8-.8,1.5-2.38,2.18-2.67,4.2-2.36,1.6.24,2.41,1.02,2.55,2.64.13,1.54.4,3.08.6,4.61.16,1.2-.58,1.58-1.57,1.54-1.34-.05-2.67-.22-4.01-.33-.99-.08-2.22-.08-2.34-1.25-.09-.95.36-2.02.81-2.92.26-.52,1.01-.79,1.54-1.18.93.23,1.84.33,2.53-.41-.01-1.22-.66-1.58-1.47-1.13-.49.27-.7,1.03-1.04,1.58ZM211.17,272.94c-.42,1.28-.64,1.93-.88,2.66q2-.05.88-2.66Z"/>
    <path d="M301.38,276.05c1.34.22,2.68.43,4.01.65-.68,2-2.15,2.66-4.45,1.96-2.11-.64-3.15-2.77-2.52-5.17.61-2.31,2.96-3.8,5.1-3.25,1.99.51,2.55,1.87,1.82,4.81-1.24.07-2.56.15-3.88.23-.03.25-.06.51-.09.76ZM300.39,273.6c1.25-.19,1.98-.3,2.7-.41-.88-1.08-1.65-1.18-2.7.41Z"/>
    <path d="M370.63,275.38c.63,3.15,3.02.7,4.27,1.58-.07,1.82-.99,2.72-2.74,2.69-2.09-.04-4.41-2.36-4.4-4.39.01-2.1,2.21-4.55,4.17-4.66,1.91-.1,3.27,1.49,3.49,4.46-1.49.1-2.98.2-4.78.32ZM370.58,273.4c.09.24.17.47.26.71.63-.17,1.26-.34,1.89-.51-.13-.32-.25-.64-.38-.96-.59.25-1.18.51-1.77.76Z"/>
    <path d="M293.65,268.54c1.28.36.76,2.51,2.5,2.12.07.44.36,1.04.18,1.3-1.64,2.31-1.67,2.29-1.5,4.36.84.23,1.72.47,2.61.71-.76,2.78-1.28,3-4.96,2.13-1.01-1.78-.13-3.76-.38-5.85-.6-.37-1.3-.81-2.33-1.46,1.44-1.22,2.69-2.28,3.88-3.3Z"/>
    <path d="M238.71,277.6c-2.61.05-4.4-1.08-4.47-2.82-.09-2.12,2.49-5.42,4.21-5.38,1.67.04,3.6,2.13,3.67,3.99.1,2.56-1.2,4.17-3.41,4.21ZM238.99,271.3c-.34,0-.67,0-1.01,0-.32.86-.8,1.7-.9,2.58-.05.45.58.97.9,1.46.49-.38,1.35-.72,1.39-1.14.09-.95-.23-1.93-.38-2.9Z"/>
    <path d="M338.76,274.84c0-2.53,1.51-4.14,3.87-4.14,2.43,0,4.23,1.49,4.22,3.51,0,2.59-1.91,4.74-4.19,4.75-2.33,0-3.9-1.66-3.9-4.11ZM342.58,272.13c-1.68,2.2-1.84,3.04-.89,4.18.79.94,1.7.88,2.35-.15.97-1.52.6-2.61-1.46-4.03Z"/>
    <path d="M223.76,268.53c-2.07-1.43-2.19-1.39-2.93,1.1.47.28.95.57,1.44.87-2.37,2.17-1.88,4.32.29,6.56-1.86.72-3.46.98-5.45.3,1.53-2.05,1.59-4.07.82-6.3-.52-1.51,1.7-4.88,3.31-5.32.53-.14,1.47.07,1.75.46.46.63.53,1.55.77,2.34Z"/>
    <path d="M288.36,273.35c-.92-.61-1.63-1.11-2.38-1.53-.05-.03-.66.75-.63.79.57.59,1.2,1.12,1.82,1.66.07.06.17.1.24.16.74.67,2.23.84,1.93,2.24-.31,1.46-1.62,1.84-2.92,1.99-.95.12-1.93.1-3.25.16-.17-1.03-.32-1.95-.51-3.08,1.49.43,2.52.76,3.57.99.12.03.37-.54.68-1.02-1.07-.43-1.98-.71-2.81-1.15-1.34-.72-1.49-1.66-.57-2.88,1.05-1.38,2.95-1.99,4.42-1.41,1.38.55,1.51,1.6.38,3.07Z"/>
    <path d="M200.12,273.45c1.07,3.1,3.36,2.02,5.29,2.34-.16.54-.14,1.12-.41,1.32-1.35,1.04-3.63,1-5.19-.11-1.22-.87-2.19-1.91-1.85-3.64.4-2.04,1.57-3.58,3.5-3.79,1.06-.12,2.33.2,3.24.75.49.29.63,1.52.53,2.28-.04.34-1.01.73-1.6.81-1.03.13-2.1.04-3.52.04ZM204.32,272.17c-.96-.82-1.36-1.46-1.81-1.5-.88-.07-1.58.39-1.61,1.5h3.43Z"/>
    <path d="M363.64,271.99c-.62.56-.95.85-1.53,1.38,1.27.95,2.39,1.79,3.47,2.59-.76,2.7-2.53,3.82-4.92,3.22-1.19-.3-1.74-1.15-1.29-2.13.44-.97,1.14-1.23,2.12-.63.49.3,1.08.42,1.63.62.09-.22.19-.43.28-.65-.72-.38-1.54-.64-2.12-1.16-.59-.53-1.35-1.34-1.32-2,.03-.68.82-1.46,1.48-1.92.6-.42,1.48-.67,2.21-.61.67.05,1.54.45,1.9.99.59.87.45,1.84-.91,2.44-.21-.35-.4-.63-.55-.93-.13-.25-.2-.53-.44-1.2Z"/>
    <path d="M195.44,272.37c-.47-.5-.59-.65-.74-.77-.4-.33-.79-.7-1.25-.92-.1-.05-.73.57-.68.77.12.49.5.93.78,1.38.04.07.18.06.27.11.88.53,2.34.78,1.99,2.1-.24.89-1.13,1.82-1.98,2.29-1.15.63-2.49.45-3.47-.59-.27-.29-.29-.83-.58-1.76,1.69.81,3.03,2.61,4.66.19-.79-.47-1.55-.95-2.33-1.4-1.02-.59-1.8-1.52-1.27-2.6.35-.72,1.41-1.47,2.19-1.52.91-.06,1.89.6,2.78,1.06.09.05-.17.81-.37,1.66Z"/>
    <path class="cls-5" d="M275.37,144.66c-.02.23-.03.45-.05.68-2.7-.2-5.4-.41-8.1-.61.01-.3.02-.6.04-.9"/>
    <path d="M339.61,158.36c-.31,1.8-.43,3.38-.88,4.86-.51,1.68-1.7,2.88-3.51,3.16-1.44.22-3.32-1.16-4-2.93-1.05-2.74-1.07-5.57-.1-8.31.34-.96,1.09-1.89,1.89-2.54,2.13-1.73,5.03-.91,5.88,1.69.45,1.36.52,2.85.72,4.07Z"/>
  </g>
  <g>
    <polygon class="cls-3" points="76.53 139.85 24.17 216.5 26.79 219.8 126.67 216.33 90.79 150.42 80.11 137.95 76.53 139.85"/>
    <path class="cls-2" d="M108.6,177.21c3.51.51,2.58,5.9,6.25,6.23.1,3.85,2.07,5.65,4.51,6.9-.28,4.06,2.02,5.29,4.46,6.32.28,1-.4,1.13-1.12,1.25.83.81,2.79,1.35,1.33,2.9.46-.34.95-.66,1.75-.68.27,1.19-.03,1.86-1.1,1.84,1.18,1.5,4.6,4.74,2.67,5.81.6,1.01,1.92,1.21,3.61,1.01.33,4.86,3,7.12,2.99,12.34-.57-.33-2.24-1.28-1.74.68-1.07-1.12-4.14-.02-4.28-2.17-1.31,2.35-4.07-1.55-7.05,1.54-1.8.3-1.33-1.87-1.94-2.88-1.7.59.85,1.45.15,2.96-.46-.38-2-2.41-1.77.09-8.28-.58-20.59-.62-27.92.19-.03-.59-.07-1.18-.09-1.77-2.68,1.57-5.81,1.88-8.31.4-1.61,2.32-12.63,2.38-16.01.8-6.52,3.76-21.02.22-24.17,4.16-5.11-2.87-13.92.38-20.31-1.96-.61-1.87.39-2.28,1.04-3.03-2.39-.09-1-.46-1.38-4.09,2.76-.89,3.9-3.25,3.84-6.72,2.74.42,1.19-3.06,4.02-2.59-.51-1.8-.47-1.11-.15-2.96,4.03.46,1.59-4.98,5.09-5-.41-.58-1.39-.55-1.27-1.73,2.38.66,1.11-2,3.5-1.36-.05-.99-.1-1.98-.15-2.96.51-.48,1.31-.7,2.34-.7,3.48-8.95,9.99-15.13,13.69-23.86,2.05-.03,2.69-1.33,2.19-3.67,1.74.07,1.75-1.44,3.51-1.37,1.44-7.95,9.01-10.35,10.39-18.35,6.51-1.46,4.95-10.24,11.3-11.85-.41-.58-1.39-.55-1.28-1.72,1.96-.12,2.9-1.16,5.32-.86,2.66,1.88-.7,3.07,3.1,2.82-2.45,2.68.76,10.53,3.43,9.33.89.15.16,4.49,3.17,4.01-.32,1.83.73,2.13.78,3.52,7.64,6.37,9.1,19.57,16.74,25.92.26,1-.41,1.15-1.13,1.25ZM73.94,149.8c-1.87.82-.53-1.9-2.43-1.07-.9.3-.4,1.9-2.29,1.31-.73,3.12-1.47,6.22-4.4,7.36-.71,3.27,1.67,3.15,2.61,4.62-4.12,3.02-4.14,12.69-11.43,9.47.67,1.77,2.84,1.86,3.17,4.01-1.56.81-2.72,1.12-3.5,1.36,2.53,2.06-.66,1.55-1.64,3.06-2.53,3.93-3.9,10.12-8.35,11.11-.16,2.87-1.21,4.96-3.9,5.53,1.5,3.08-.87.43-1.71,1.87,3.82.72-2.44,2.61.22,4.16-4.22.89-3.19,6.54-6.12,8.62-.38-1.02.55-3.52-.76-3.53,0,.93.19,2.05-1.1,1.84-.63,1.95,1.94.36,1.31,2.31-2.46.6-2.01,3.85-3.29,5.52,6.18-1.37,16.23-1.47,23.13-1.15.1-.46-.04-1.17.53-1.21,23.01,2.1,41.35-1.48,69.44-2.24-1.29-6.24-6.79-9.22-8.95-12.64-.72-5.27-5.7-5.8-5.92-11.59-2.66.4-2.28-2.11-1.96-3.46-2.36.06-4.5-3.78-2.6-4.63-1.85,1.01-1.99-.34-3.62-1.01-4.28-12.94-14.51-22.09-19.43-32.32.02.6-1.01.79-1.19.05.72-.09,1.39-.24,1.13-1.25-1.65.58-1.58-.76-3-.44-2.87,4-4.15,9.45-8.94,11.73,1.25,2.04-.44,2.89-1.57,4.25-.71-2.35-.14-4.62.87-6.59.98-.03.4,1.63,1.27,1.73.13-2.55,2.17-7.4,3.91-4.95-.06-.82.21-1.31.49-1.8Z"/>
  </g>
  <text class="cls-4" transform="translate(54.93 210.06)"><tspan x="0" y="0">26</tspan></text>
</svg>