<?xml version="1.0" encoding="UTF-8"?>
<svg id="Layer_1" xmlns="http://www.w3.org/2000/svg" viewBox="0 0 400 400">
  <defs>
    <style>
      .cls-1, .cls-2, .cls-3, .cls-4, .cls-5, .cls-6, .cls-7 {
        fill-rule: evenodd;
      }

      .cls-1, .cls-8 {
        fill: #fff;
      }

      .cls-2 {
        fill: #f15a29;
      }

      .cls-8 {
        font-family: AmericanTypewriter-CondensedBold, 'American Typewriter';
        font-size: 44px;
        font-weight: 700;
      }

      .cls-4 {
        fill: #561200;
      }

      .cls-5 {
        fill: #006055;
      }

      .cls-6 {
        fill: #fbb040;
      }

      .cls-7 {
        fill: #1bb24b;
      }
    </style>
  </defs>
  <g>
    <g>
      <path class="cls-5" d="M273.39,154.92l-2.11,3.47,4.42,5.82s7.36.27,9.72.19c2.35-.07,7.55-3.1,9.13-1.96,1.59,1.13,3.19,4.19,4.98,4.64,1.79.44,11.27,3.05,17.52,7.58,6.25,4.55,5.26,8.9,5.26,8.9,0,0,6.03-3.81,6.46-8.29.43-4.48.66-8.18.66-8.18,0,0-10.74.09-12.28-1.37-1.55-1.47-2.46-8.84-2.47-10.12,0-1.3-1.03-2.95-1.35-2.9-.32.05-10.41,6.5-10.41,6.5,0,0-4.29-6.28-6.39-7.86-2.09-1.58-6.14-.69-6.14-.69l-2.4-5.94s-11.84,10.16-14.62,10.21Z"/>
      <path class="cls-6" d="M246.93,141.4c.77-.72,1.69.15,1.9-.31,2.69,1.61,4.35,5.44,5.01,9.34-1.72-.1-2.73-1.21-4.42-1.36-.49-3.02-1.37-5.5-2.49-7.67Z"/>
      <path class="cls-6" d="M264.13,151.84c-.08-.44-.16-.88-.22-1.31-.48-.48-1.61-.03-1.92-.73-2.46.56-3.26-1.86-4.69-2.95-.02-.71-.54-1.76-.05-2.09.09-.79-.55-.57-.51-1.27,1.72-.67,2.74.07,4.1.35.36,2.45,2.85,1.89,2.78,4.93.53.62,1,1.36,1.18,2.5-.57-.06-.13.59-.65.56Z"/>
      <path class="cls-3" d="M290.3,142.78c.1-.01.19-.03.29-.05.01.1.03.19.05.29-.1.01-.2.03-.29.05-.02-.11-.04-.2-.05-.3Z"/>
      <path class="cls-6" d="M239.91,152.17c3.79-.4,5.09,3.65,6.06,6.61-1.29.3-2.7.24-3.69-.57-.24-.2-.22-.68-.44-.83-.17-.12-.57.15-.76-.02-.21-.19-.76-1.7-.9-.9-.41,0,.01-1.21-.73-.77-.24-.82-.06-1.33-.19-2.07.31-.14.25.25.48.22.13-.11.1-.36.38-.36-.07-.43-.14-.87-.22-1.31Z"/>
      <path class="cls-1" d="M284.63,144.64c.38-.3.53.58.07.43-.03-.14-.05-.28-.07-.43Z"/>
      <path class="cls-1" d="M286.94,144.99c.51-.3.34.36.77.17-.09.24-.44.29-.68.4-.03-.19-.07-.38-.09-.58Z"/>
      <path class="cls-1" d="M239.68,158.8c.39-.3.53.58.07.43-.02-.14-.05-.29-.07-.43Z"/>
      <path class="cls-1" d="M280.74,151.87c.15-.03.3-.06.44-.07.02.14.05.29.07.44-.14.02-.29.06-.43.07-.03-.14-.05-.28-.08-.44Z"/>
      <path class="cls-6" d="M241.09,171.59c-2.16-.97-4.37-1.9-5.03-4.98-.5-.11-.03.49-.53.39-.08-1.06.52-1.59,1.65-1.78-.04.77.71.42,1.14.56.58,2.42,1.72,4.06,2.77,5.81Z"/>
      <path class="cls-3" d="M315.67,151.98c.47-.05.57.39.6.95-.46.06-.48-.5-.6-.95Z"/>
      <path class="cls-1" d="M261.37,161.29c.5-.23.3.54.44.82-.5.24-.3-.54-.44-.82Z"/>
      <path class="cls-1" d="M316.48,155.89c.1-.02.19-.03.29-.05.02.1.03.19.05.29-.09.02-.19.03-.3.04-.01-.09-.03-.19-.05-.28Z"/>
      <path class="cls-1" d="M291.99,160.76c.1,0,.2-.03.3-.05.03.19.07.39.1.58-.1.03-.2.04-.29.05-.04-.2-.07-.39-.1-.59Z"/>
      <path class="cls-1" d="M294.17,162.19c.51-.22.3.54.44.83-.5.22-.3-.54-.44-.83Z"/>
      <path class="cls-1" d="M241.48,171.22c.03.69.39.79.22,1.32-.6.14-.84-1.25-.22-1.32Z"/>
      <path class="cls-2" d="M278.9,165.82c1.96-.26,3.1-.49,3.87-.2.32,0,.24-.25.22-.49.41-.04.48.41.82.46-.27,3.01-.57,6-1.05,8.86-.82-.11-.67-1.57-1.48-1.7-.56-3.03-1.85-4.08-2.38-6.94Z"/>
      <path class="cls-6" d="M292.77,163.63c.01.93.68.96.63,1.99-1.01.91-.57,2.85-1.28,3.97.1.7.35,1.52-.32,1.7.07.39.14.78.2,1.16-.15-.22-.61-.71-.44.07-1.45-1.71-2.3-6.26-.28-6.98.08-.37-.07-.47-.03-1.05.68-.15.74-.75,1.51-.85Z"/>
      <path class="cls-1" d="M244.22,173.32c.1-.03.2-.03.29-.05.04.2.06.39.1.58-.09.03-.19.04-.29.05-.04-.2-.06-.39-.1-.58Z"/>
      <path class="cls-1" d="M317.02,161.79c.09-.02.2-.04.29-.05.01.1.03.19.05.29-.1,0-.2.04-.3.06-.01-.11-.03-.2-.04-.3Z"/>
      <path class="cls-1" d="M320.62,165.37c.01-.54-.04,1.12,0,0h0Z"/>
      <path class="cls-1" d="M321.5,166.12c.28-.1.46-.05.49.23-.15.03-.29.04-.44.08-.02-.11-.04-.2-.05-.3Z"/>
      <path class="cls-1" d="M324.07,166.29c-.02-.1-.04-.2-.05-.29.14-.03.3-.06.44-.08.02.15.05.29.07.44-.23.08-.27-.1-.46-.07Z"/>
      <path class="cls-1" d="M291.5,172.98c.02-.54-.03,1.12,0,0h0Z"/>
      <path class="cls-1" d="M219.94,185.64c.42-.05.38.56.47.98-.42.05-.37-.56-.47-.98Z"/>
      <path class="cls-1" d="M219.51,186.62c.5-.23.37.58.27.7-.13-.05-.27-.11-.47-.07-.26-.44.45-.19.2-.63Z"/>
      <path class="cls-1" d="M293.54,174.44c.36-.15.53-.02.51.37-.16-.14-.55.04-.51-.37Z"/>
      <path class="cls-1" d="M313.5,171.08c.23.2.61.2.59.79-.52.18-.52-.35-.59-.79Z"/>
      <path class="cls-1" d="M330.66,168.93c.29-.12.4.03.6.05-.21.14-.14.49-.5.54-.04-.2-.07-.39-.1-.59Z"/>
      <path class="cls-1" d="M328.77,170.14c.42-.3.61.88.12.72-.04-.23-.07-.48-.12-.72Z"/>
      <path class="cls-1" d="M214.46,190.46c.1-.02.19-.04.29-.05.02.1.03.19.05.29-.1.02-.19.03-.29.04,0-.09-.03-.19-.05-.28Z"/>
      <path class="cls-1" d="M330.06,171.57c.08-.02.18-.03.28-.06.01.1.04.2.05.3-.1.01-.2.03-.29.04-.02-.09-.03-.19-.04-.29Z"/>
      <path class="cls-1" d="M240.71,188c.1-.02.19-.04.28-.06.04.19.07.38.11.58-.1.03-.2.04-.3.05-.03-.2-.07-.38-.1-.57Z"/>
      <path class="cls-1" d="M238.79,189.05c.31-.11.31.17.36.39-.15.03-.29.05-.44.08.07-.13.11-.27.08-.47Z"/>
      <path class="cls-1" d="M239.21,189.73c.07-.03.6.83.69,1.38-.75-.32-.76-.59-.69-1.38Z"/>
      <path class="cls-1" d="M319.26,176.85c.19-.04.39-.07.59-.1.31.65-.4.57-.1,1.22-.27-.24-.39-.65-.49-1.11Z"/>
      <path class="cls-1" d="M241.69,190.22c.09-.02.19-.04.28-.05.02.09.04.19.06.3-.1,0-.2.03-.3.05-.02-.1-.03-.19-.05-.29Z"/>
      <path class="cls-1" d="M294.4,181.33c.57,0,.71,1.8.3.84-.09-.22-.25-.37-.08-.44-.09-.1-.2-.21-.22-.4Z"/>
      <path class="cls-1" d="M217.76,195.75c.38-.29.53.58.07.44-.02-.15-.05-.3-.07-.44Z"/>
      <path class="cls-1" d="M185.3,201.37c.39-.28.54.58.08.43-.03-.14-.05-.28-.08-.43Z"/>
      <path class="cls-3" d="M192.49,200.46c-.1.02-.2.04-.29.05-.03-.1-.03-.2-.05-.29.1-.02.19-.03.29-.04.02.1.04.2.05.28Z"/>
      <path class="cls-3" d="M193.12,200.65c.16.23.44.34.55.66-.54.28-.49-.28-.55-.66Z"/>
      <path class="cls-1" d="M216.57,196.7c.1-.02.19-.04.28-.05.02.09.04.19.06.29-.1,0-.2.03-.3.04,0-.1-.03-.2-.04-.28Z"/>
      <path class="cls-1" d="M328.56,178.71c.14-.02.29-.05.44-.07-.13.16.05.54-.36.52-.03-.15-.05-.31-.08-.45Z"/>
      <path class="cls-3" d="M321.09,180.57c0-.17.24-.16.41-.21.02.2.06.39.09.58-.47.31-.17-.48-.5-.36Z"/>
      <path class="cls-1" d="M240.43,194.32c.01-.53-.04,1.13,0,0h0Z"/>
      <path class="cls-1" d="M241.57,195.77c.37.08.66.28.85.62-.49.07-.76-.12-.85-.62Z"/>
      <path class="cls-3" d="M321.95,182.98c-.1,0-.2.02-.3.04-.04-.19-.07-.39-.1-.58.1-.02.19-.03.3-.06.02.2.05.4.1.59Z"/>
      <path class="cls-1" d="M325.92,182.61c.39-.29.53.58.07.43-.03-.15-.05-.29-.07-.43Z"/>
      <path class="cls-1" d="M242.35,197.75c.09-.02.2-.04.29-.05.01.1.03.2.05.29-.1.02-.2.03-.29.06-.02-.1-.04-.2-.05-.29Z"/>
      <path class="cls-1" d="M296.39,188.64c.1-.02.19-.04.29-.05.02.1.04.2.05.28-.1.02-.19.03-.29.07-.01-.1-.03-.2-.05-.3Z"/>
      <path class="cls-1" d="M198.47,205.74c.1-.02.2-.04.29-.05.02.1.04.2.05.3-.09.02-.2.03-.3.05,0-.1-.03-.19-.05-.3Z"/>
      <path class="cls-1" d="M213.67,205.28c.1-.02.2-.04.28-.05.03.1.05.2.05.3-.1,0-.19.03-.29.05-.02-.1-.04-.2-.05-.3Z"/>
      <path class="cls-1" d="M209.76,207.88c.09-.02.2-.04.29-.05.01.1.03.2.05.3-.1,0-.2.03-.29.05-.02-.1-.03-.2-.05-.3Z"/>
      <path class="cls-1" d="M212.5,208.17c.1,0,.2-.03.3-.05.02.1.03.2.05.3-.1.01-.2.03-.29.05-.01-.1-.03-.2-.06-.29Z"/>
      <path class="cls-1" d="M296.35,194.63c.43-.26.66,1.13.17,1.02-.05-.34-.12-.67-.17-1.02Z"/>
      <path class="cls-3" d="M244.34,205.95c-.02-.15-.05-.29-.07-.44.39-.29.54.58.07.44Z"/>
      <path class="cls-1" d="M247.55,205.41c.09-.02.19-.03.29-.05.03.2.07.39.1.59-.1,0-.19.02-.29.04-.04-.19-.07-.39-.1-.58Z"/>
      <path class="cls-1" d="M192.03,216.42c.13.05.26.11.46.07-.02.33-.17.56-.49.69-.1-.34-.07-.57.03-.76Z"/>
      <path class="cls-1" d="M193.27,216.65c.38-.1.51.12.54.51-.5.2-.72-.27-.54-.51Z"/>
      <path class="cls-1" d="M212.73,213.96c-.12.73-.84.21,0,0h0Z"/>
      <path class="cls-1" d="M191.79,217.65c.1-.01.2-.04.29-.05.02.1.04.2.05.29-.1.02-.2.04-.29.06-.02-.1-.03-.19-.05-.29Z"/>
      <path class="cls-1" d="M194.02,217.58c.1-.02.2-.03.3-.05.01.1.03.2.05.3-.1,0-.2.03-.3.04-.01-.1-.03-.19-.05-.29Z"/>
      <path class="cls-1" d="M193.78,217.92c.01-.54-.03,1.12,0,0h0Z"/>
      <path class="cls-1" d="M193.44,218.57c.63-.28.44.59,1.1.27.19.82.32.82.24,1.45-.62-.31-1.17-.75-1.34-1.72Z"/>
      <path class="cls-1" d="M211.31,217.05c.39-.29.53.59.08.44-.03-.14-.05-.29-.08-.44Z"/>
      <path class="cls-1" d="M211.92,217.11c.1-.02.19-.03.29-.05.02.1.03.2.04.3-.09.02-.19.03-.28.05-.01-.1-.03-.2-.05-.3Z"/>
      <path class="cls-1" d="M194.93,220.27c.39-.3.53.57.07.44-.02-.15-.05-.29-.07-.44Z"/>
      <path class="cls-1" d="M207.89,219.88c.11-.02.2-.04.29-.05.02.1.03.19.05.29-.09.02-.2.04-.29.05,0-.1-.03-.19-.05-.28Z"/>
      <path class="cls-1" d="M197.06,224.86c-.28.54-.78-.29,0,0h0Z"/>
      <path class="cls-1" d="M293,208.53c.1-.03.19-.04.29-.05.04.2.06.39.1.59-.1,0-.19.04-.29.05-.03-.2-.07-.39-.1-.59Z"/>
      <path class="cls-1" d="M198.05,225.43c.09-.02.19-.03.28-.05.02.1.04.19.05.29-.1.01-.19.03-.29.06-.02-.1-.03-.2-.05-.3Z"/>
      <path class="cls-1" d="M199.65,225.17c.1-.03.19-.04.29-.06.02.1.03.19.05.29-.09.01-.2.04-.29.05,0-.1-.03-.19-.04-.28Z"/>
      <path class="cls-1" d="M211.91,224.14c.1,0,.19-.04.3-.05.01.1.03.2.04.29-.09.03-.18.04-.29.05-.02-.1-.03-.19-.05-.29Z"/>
      <path class="cls-3" d="M198.61,228.78c.1-.02.2-.03.3-.05.01.09.03.19.05.29-.1.02-.2.04-.29.05-.02-.1-.03-.19-.06-.3Z"/>
      <path class="cls-1" d="M210.85,227.61c.09-.02.19-.02.29-.04.02.1.04.2.05.29-.1.02-.2.03-.29.04-.02-.1-.03-.2-.05-.29Z"/>
      <path class="cls-1" d="M211.6,228.54c.09-.02.19-.03.3-.06.01.1.02.2.05.3-.11.02-.2.04-.3.04-.02-.09-.03-.19-.05-.28Z"/>
      <path class="cls-1" d="M210.65,229.16c.39-.29.53.58.08.42-.03-.14-.05-.29-.08-.42Z"/>
      <path class="cls-1" d="M231.31,226.41c-.05.56-.9.56-1.52.72.2-.38,1.18-.88,1.52-.72Z"/>
      <path class="cls-1" d="M229.59,226.85c.26.74-1.47.07-1.21.81-.68-.54.9-.55,1.21-.81Z"/>
      <path class="cls-1" d="M227.72,227.32c.39-.3.54.57.08.44-.02-.15-.05-.3-.08-.44Z"/>
      <path class="cls-6" d="M252.06,223.36c.39.98,1.41,1.75,2.21,1.57.43.91,1.46.94,2.07,1.59-.74,2.26-2.69,3.66-3.51,5.84-.89.38-1.35,1.09-1.11,2.29-1.61,1.33-2.5,3.18-4.02,4.57.04.19.07.38.1.58-1.05-.01-.71.97-1.79.9-3.24,3.68-10.2,3.66-14.09,1.77-.16-.46-.07-.74.15-.92-1.34-3.76-4.23-5.35-5.58-9.09.32,0,.24-.25.22-.49.22.12,3.67-.63,3.66-1.37.15.22.71-.15.66.34.32-.68,1.63-.57,2.28-.68.07-1.37,3.29-.72,2.79-2.11.3-.12.31.14.37.38,2.15-1.11,3.71-1.82,6.09-2.08.25-.07.29-.31.19-.63,3.61-.45,5.86-1.86,9.32-2.47Z"/>
      <path class="cls-1" d="M201.85,235.58c.1-.03.2-.04.29-.06.02.1.03.2.05.3-.1,0-.2.03-.29.05-.02-.1-.04-.2-.05-.28Z"/>
      <path class="cls-1" d="M224.33,232.99c.1-.02.2-.04.3-.06.01.1.03.19.04.29-.1.03-.19.04-.29.06-.02-.1-.03-.19-.05-.29Z"/>
      <path class="cls-1" d="M208.63,236.69c.01-.21.34-.19.56-.24-.02.2-.35.18-.56.24Z"/>
      <path class="cls-1" d="M207.03,236.94c.09,0,.19-.02.29-.04.01.11.03.2.05.3-.1.01-.2.02-.29.05-.02-.11-.04-.2-.05-.31Z"/>
      <path class="cls-1" d="M294.46,222.5c.09,0,.19-.02.28-.04.01.1.04.19.05.29-.09.01-.2.02-.29.05-.02-.11-.04-.2-.04-.3Z"/>
      <path class="cls-3" d="M308.96,221.42c.22.11.35.34.66.33-.1.41-.78.14-.66-.33Z"/>
      <path class="cls-1" d="M306.87,222.36c.14-.03.29-.05.44-.07.02.14.04.29.07.44-.32.07-.48-.05-.51-.37Z"/>
      <path class="cls-1" d="M286.15,227.36c.09-.02.19-.03.28-.05.03.2.07.39.1.59-.1.01-.2.03-.28.04-.04-.2-.08-.38-.1-.58Z"/>
      <path class="cls-1" d="M290.05,228.35c.39-.3.54.58.07.44-.02-.15-.05-.3-.07-.44Z"/>
      <path class="cls-3" d="M299.01,227.27c.35.56-.53.9-.8.6-.08-.44.45-.46.8-.6Z"/>
      <path class="cls-3" d="M317.66,226.84c.04-.61-.57-.29-.47-.99.33.2.18-.03.58-.09-.03.4.14.52.51.37-.3.18-.23.61-.62.71Z"/>
      <path class="cls-4" d="M225.7,242.03c.68,1.28,1.91,1.76,2.73,2.84,2.15.69,3.11,3.07,5.75,3.08.28.58,1.31.09,1.49.79,3.53-.02,5.71-.44,7.96-.75-.2,1.79-1.4,2.86-3.82,3.05-.17.05-.08.28-.07.45-.56,0-.59.36-1.14.35-1.24,1.31-2.94,2.93-4.66,3.47-.58-.14-.81-.79-1.6-.62.05-.44-.28-.35-.27-.7-1.31-.08-2.78-1.34-3.9-.1-.37-.1-.7-.24-1.11-.26-.01-.51-.12-.91-.7-.64-.32-.86-.5-1.92-1.15-2.34.02-.55.32-.9.02-1.67-.07-.17-.31-.1-.3.06-.59-2.42-1.81-5.77.76-7.03Z"/>
      <path class="cls-1" d="M311.06,227.65c.28-.1.46-.04.48.22-.14.03-.29.05-.44.08,0-.11-.03-.21-.04-.3Z"/>
      <path class="cls-3" d="M323.37,228.72c.15-.02.3-.05.43-.08.03.21.06.42.22.42-.04.33-.76.13-.65-.34Z"/>
      <path class="cls-3" d="M324.48,229.13c.09-.02.2-.04.29-.05.02.1.03.2.04.3-.09.01-.19.02-.29.04-.02-.1-.03-.2-.05-.29Z"/>
      <path class="cls-3" d="M325.46,229.56c.12-.33,1.05-.29,1.06.12-.61.32-.52-.36-1.06-.12Z"/>
      <path class="cls-1" d="M324.99,230.39c.58-.15.13.3.25.56-.21,0-.18-.34-.25-.56Z"/>
      <path class="cls-1" d="M325.43,231.22c.73.36,1.5.66,1.78,1.64-.88-.14-1.49-.67-1.78-1.64Z"/>
      <path class="cls-1" d="M264.03,243.67c0-.54-.05,1.12,0,0h0Z"/>
      <path class="cls-3" d="M328.43,234.75c-.09.02-.2.04-.29.05-.02-.1-.03-.2-.05-.29.24-.1.29.06.34.24Z"/>
      <path class="cls-1" d="M247.21,248.74c.74-.06.02.46.12.73-.45-.05,0-.48-.12-.73Z"/>
      <path class="cls-1" d="M326.21,235.87c.39-.28.54.58.08.44-.03-.15-.05-.29-.08-.44Z"/>
      <path class="cls-1" d="M329.35,235.79c.02-.54-.03,1.12,0,0h0Z"/>
      <path class="cls-1" d="M328.93,236.01c.39-.29.54.58.07.44-.02-.14-.05-.29-.07-.44Z"/>
      <path class="cls-3" d="M329.8,237.52c.43-.14.37.42.56.66-.54.28-.5-.28-.56-.66Z"/>
      <path class="cls-1" d="M240.38,254.39c.02-.44-.09,1.33,0,0h0Z"/>
      <path class="cls-1" d="M239.06,255.51c.29-.04.59-.1.88-.14.03.2.07.39.1.58-.35-.26-.56.03-.36.51-.2-.32-.61-.34-.61-.95Z"/>
      <path class="cls-1" d="M312.71,246.39c.58.05-.01,1.31-.51,1.43.29,1.34-1.13,2.78-.62,3.41-.81.49-.63.52-1.22.8.69-1.95,1.16-4.05,2.34-5.64Z"/>
      <path class="cls-1" d="M283.99,260.81c-.09.19-.12.43-.01.76-.45.15-.67-.02-.69-.49.15-.15.36-.24.7-.28Z"/>
      <path class="cls-1" d="M282.64,261.64c.14-.02.29-.04.44-.07-.14.16.04.54-.37.51-.02-.15-.05-.29-.07-.44Z"/>
      <path class="cls-1" d="M282.12,262.18c.23-.08.28.1.47.07.1.28-.63.33-.47-.07Z"/>
      <path class="cls-1" d="M281.86,262.37c.17,0,.17.25.22.4-.14.03-.28.06-.43.08-.13-.31.24-.25.22-.49Z"/>
      <path class="cls-1" d="M281.2,262.93c.42-.21.32.29.39.53-.69-.09-.3.57-.8.59-.36-.72.51-.58.41-1.12Z"/>
      <path class="cls-3" d="M348.78,251.53c.15-.02.29-.04.44-.06.3.52-.36.34-.17.78-.31.08-.16-.5-.27-.71Z"/>
      <path class="cls-1" d="M278.23,264.78c.46-.24.29.41.41.68-.53.04-.45-.32-.41-.68Z"/>
      <path class="cls-1" d="M277.28,265.4c.14-.03.29-.05.44-.08.1.37.05.64-.35.66-.03-.19-.07-.38-.09-.58Z"/>
      <path class="cls-1" d="M244.48,273.46c-.09.02-.19.04-.29.06-.02-.1-.04-.2-.05-.3.1-.01.2-.04.29-.05.02.1.04.2.05.29Z"/>
      <path class="cls-1" d="M219.08,284.49c.3-.57.49.7,0,0h0Z"/>
      <path class="cls-1" d="M237.85,281.17c.39-.29.53.59.07.44-.03-.15-.05-.29-.07-.44Z"/>
      <path class="cls-3" d="M193.7,201.45c0,.92,1.07,1.67,1.61,2.43.36,0-.19-.65.36-.52.04.81.52.96,1.07,1.03.24-.21-.01-.77.12-1.06.51.14,2.48-.68,2.92-1.4-.33-.67-.98-.91-1.19-1.74-.31,0-.45.1-.39.36-.33,0-.24-.75-.14-.88-.35.19-1.55-.78-1.41-1.26-.06-.17-.28-.08-.46-.07-.16-2.14-1.63-4.71-1.45-6.8.2-.04.39-.06.59-.1-.59-.64.25-1.32.38-2.16,1.21-.2,1.97-.73,2.45-1.47.1,0,.2-.04.28-.05.54.33,1.29.36,1.53,1.09.57,0,.4,0,1.05-.02.27-.61-.33-1.6.09-2.12.06-.07.4,0,.44-.07,1.15-2.35,1.44-6.22,5.65-6.49,0,.3.11.44.37.39.91-2.68-.78-6.28-1.42-9.35.54-.43.76-1.09,1.91-1.08.15.49,1.12.68,1.05-.02.46.69,1.53.49,1.99,1.17.16-.05.07-.29.07-.46.39.22.92.27,1.4.37.48-.65.85-1.37.8-2.39,1.72-1.48,3.16-.71,5.66-1.1.89,1.12,2.83-.41,3.52.45.13-.58.96-.39,1.08.12.37-.5.88-.2,1.71-.44.55,1.06,1.79-.89,2.56.02.4-.88,1.17.05,2.03-.34.83-.64.25-1.5.31-2.6.51-.29.8-.72.83-1.34,1.19-.44,1.91-1.2,2.33-2.18-1.34-1.89-1.02-4.52-.98-6.73.33-.1.52-.32,1-.32-.32-2.96,2.94-3.37,3.36-5.81,1.08-.25,2.15-.51,2.99-.94-.33-.97.32-1.23.09-2.12-1.11-3.15,2.09-5.41,4.53-6.9,1.12-.35,2.65-.42,3.25-1.15.05-.13.81.51,1.22.1.3-.31-.4-.52.12-.17.55.36,1.58-.15,2.84-.02.95.09,1.81.99,1.99.26.26-.03.12.39.25.56.32.44,1.05.37,1.63.77.24.17.31.64.41.69,1.77.59,4.1-1,6.17-.75.67.08,1.56.44,1.97,1.02-.22.1-.04.48-.53.39.32,1.47,3.21.79,2.68,2.54.67.36.33,1.06.87,1.66.35-.05.39-.32.85-.29.4.43.44,1.53-.16,1.68.15.38.54.42.61.94.35,0-.2-.65.36-.52.71,1.18,1.42,2.33,2.21,3.38-.47,3.19.82,7.81,3.11,9.52.22-.44-.14-1.3,0-1.8.22.16.66.03,1.04-.03.56,1.51,1,3.16,1.78,4.35.17-.36.3-.39.58-.1.17-.05.08-.29.07-.46,1.46-.25,2.91-.47,3.28.8.57-.18.43-.16,1.02-.17.91,1.68,3.47.6,4.73.54,2-1.35,4.97-3.14,7.38-2.45.09.42-.38.42-.31.8.05.18.29.08.46.08.18-.08.06-.39.05-.62.88-.56,1.64.24,2.57.17,0,.61.29.8.37,1.29.14-.11.1-.36.39-.36.01.47.43.35.68.48.17.98.33,1.95.49,2.92,1.18,1.52,3.73,1.13,5.07,2.44.64-.58,1.32.96,2.59.31,1.87.36,3.34,2.26,5.11,2.74.36.1,1.01-.34.97.43.58-.21.79.1,1.34-.06.05.59.48.64.76.91-.39.54-.09,1.17.63,1.1-.07.89.59.74.56,1.56.68-.27.82-.1,1.26-.52.43.32-.1,1.33.45,1.72.31-.16-.08-.82-.06-1.18,1.2.24,1.43,1.84,2.73,1.94,1.13,1.89,2.44,3.52,3.36,5.73,1.7-1.23,4.07-2.98,4.41-4.95.17-.98-.55-2.83-.03-3.73.1-.5-.49-.03-.39-.54.08-1.52,1.16-2.34.79-4.17-.04.56-.39.88-.7.26-.22.87-1.6.72-2.23.98-.23-.95-2,.27-2.22-.67-.35.62-.66.36-1.08.62-.27.01-.38-.2-.39-.53-.28.29-.79.1-.85.29-.27-.54-.91-.52-1.59-.49,0-.46-.49-.25-.43-.82-.85.24-1.2-.24-1.48-.8-.35.2-.52.62-.88.15-.41.49-.6.46-1.24.66-.21-.61-1.08-.27-1.69-.3-.71-1.74-.45-3.36-.23-4.91.26-1.86.43-3.76.7-5.66.14-.01.28-.05.43-.07-.17-.84.02-1.43-.25-2.35-.18.05-.17.65-.28.04-.42.35-.8.72-1.17,1.1-.03-.2-.08-.39-.1-.58-.86-.14-.42.65-.93.75-.02-.15-.05-.28-.07-.44-.25.34-.08.31-.44.07-.42.44.55.44.35,1.14-.56.24-.2-.8-.71-.64-.4.19-.3.73-.92.76.05.29.1.59.15.87-.25.07-.76-.02-.53.39-1.54-.29-3.03,2.8-5.03,2.2-.43.46-.93.86-1.43,1.29-.51.02-.32-.41-.58.09-.88-.32-1.43-1.1-2.57-1.06-.68-1.67-.51-3.66-1.25-5.62-1.1-1.28-2.15-2.63-3.21-3.97-1.14.46-2.3.22-2.96,1.11-.14-.11-.22-.3-.25-.56-.1.18-.52.13-.36.5-.36-.49-.47-.22-.97-.43-.32.03.02.52-.02.76-.45-.32-.07.25-.56.24-.05-.25-.08-.49-.13-.74-.11.43-.28.83-.38,1.26-.53.1-1.07.18-1.6.28-.16-.37-.52-.46-.84-.6-.45-2.03-.33-3.65-.13-5.22-.74.34-.26.24-.9,0-.47.24.41-.03.22.4-.68-.1-1.03,1.15-1.27.51-.54.9-1.36,1.58-1.64,2.68-.5-.44-.64,1.25-.89,1.8-.17-.07-.22-.32-.49-.23-.28.2-.22.62-.12,1.08-.33.1-.56.07-.76-.04.13.7-.74.69-.51,1.44-.21-.11-.56-.05-.78-.17.05.92-.9.81-1.62,1.02-.23.07-.08,1.18-.29.05-.54,0-.36.51-.81.58-.47-1.47-2.15-.14-2.72-1.03-.22.19-.06.65-.14.93-.48-.03-.39.32-.85.29-.86-1.29-2.02-3.02-1.91-5.07,1.03.42,1.35,1.83,2.34,2.31,4.09-3.04,6.45-7.29,10.71-10.2.42-.05.21.79.71.64.5-.55-.58-.38-.47-.97,1.68.93,2.95-2.82,5.18-1.33-.07.67.16.74.07,1.34,1.81,1.08-.56,2.8.37,4.87.1-1.01.93-.45,1.97-.78-.17.83.69.24.62.94.37-.07.2-.54.14-.92,1.02-.66,1.72.39,2.63.45,0,1,.91.75,1.02,1.63.43.04.34-.28.7-.27.28.32.19,1.16,1.02.71.07.4.14.78.2,1.17.47.04.1-.53.68-.4.24.9.83,1.34,1,2.37.21-.19-.02-.69.31-.79-.12-.15-.36-.1-.36-.4.92.33.38,1.72.9,2.7.43-.05-.33-.93.32-.8.32.83.43,1.8.68,2.28.52-.15,1.23-.15,1.24-.67.17,0,.17.25.22.42.55-.81,2.27-2,3.15-1.72,2.39-1.67,4.71-3.36,7.67-4.29.18.43-.47.26-.17.77.82-.86.18.54.54,1.41.18.42.54.31.88.74.09.13.1.99.37.4.53,1.68.59,3.88,1.27,5.78-.26.05-.34-.13-.61-.05.25.49-.1,1.82.71,1.52-.24.3.32,1.17-.24,1.24.63-.04.57.88.71,1.53-.2-.26-.38-.55-.94-.31.32.47.4.54.51,1.28,1.16.59,2.22.5,3.92.09.11.27-.05.92.41.68.49-.32-.37-.16-.24-.55.24-.04.49-.08.72-.12-.04.65.65.3.74.78-.44.2-.58-.04-.78-.18-.05.52-.54.74-.37,1.42.39-.12.25-.6.63-.71.21.02.18.35.25.56.58-.27.62.21,1.08.11-.21-.48-.71-.56-.81-1.2.25-.2.56.35.59-.1.2,0,.17.35.24.56.76-.43.8-.67,1.28-.37.32-.07-.04-.62,0-.89-.32-.01-.24.25-.22.49-.32.04-.17-.61-.3-.84.92-.38.99.42,1.7.31-.19.99,1.11.81.39,1.43.57.06.14-.59.66-.56-.06.58.43.35.44.82.66-.7,1.58-.49,2.55-.87-.19.71-.06,1.6.59,1.7-.02.97.76,1.73.71,3.33-.22.31-.36.08-.72.12.05.69.43.95.44,1.72-.56.58-.97,1.27-.79,2.38-.82-.15.04.89-.78.73.81.79-.55.79-.12,1.97-.16-.06-.21-.31-.49-.22-.18.26-.13.68-.12,1.07.35,0-.2-.65.36-.51.18.65.03,1.05-.55,1.14.3,1.02-.17,1.51-.89,1.8-.15.49-.27,1.01-1.02,1.06-.26,1.14-.58,2.24-1.11,3.18.95.3,0,1.1.58,1.71.47.15-.51.24-.34-.24-.31.07.04.63,0,.9-.23.1-.29-.07-.34-.24-.32.06.05.62,0,.89-.54.29-.38-.44-.91-.14,0,.49-.71.45-.42,1.12-.57.14-.69-.53-.53.39-.18,0-.17-.25-.22-.41-.56-.05.04.72-.65.56.06.39.12.77.19,1.17-.64-.03-.7.37-.78.73-.39.2-.41-.14-.75-.03-.59,1.64-2.42,1.09-2.91,2.3-.48.31-.17-.48-.51-.36-.32.02.02.53-.02.75-.17-.12-.35-.24-.52-.36-.32.02.03.53-.02.74-.59.56-1.89.64-2.16,1.41-.3.12-.4-.03-.6-.04-2.81,2.74-6.65,3.73-9.7,6.43-2.07-.05-3.97,2.11-5.95,2.95-.13-.1-.21-.3-.24-.55-3.36.43-1.63,4.47-2.97,6.33.5.12.41.75-.17.78.31,1.2-.28,1.78-.96,2.26.59,2.46-1.92,3.96-.28,6.33-.34.25.06.11-.34.66.82.35.65,2.1,1.22,2.79,1.52-.57,3.29-2.24,4.59-2.11,1.09-1.82,4.07-1.07,5.72-2.47.09.29.81.7.58-.1.38.2.64.56,1.27.39.39.67-.07,1.62.76,1.81.25.44-.46.19-.19.64.84.56,1.49,1.38,2.4,1.85.17.45.03.68.04,1.04.19-.58.29.04.75.02.45,1.42,1.2,1.91.9,3.59.41-.54.45-.55,1.02-.16.34-.28-.12-.89-.2-1.17-.46-.04-.22.45-.68.4.1-.39.29-.74.24-1.23.39-.1,1.12.02.8-.58.52.14.4.5,1.07.11.08.96,1.15,1.63,1.29.54.2.32.61.34.61.94.24-.29,1.17-.46,1.22.1.08-.28.31-.46.31-.8.24.26.5.49,1.09.27.17,1.18.38,1.3.66,2.13.39-.02.32-.36.34-.65.55.19-.16.55,0,.9.2.22.69,0,.8.31.48-.08.84-.9.93.15.49-.16.11-.74-.03-1.05.55-.28.38.43.93.15-.67.62,0,1.57.37,2.18.2-.07-.02-.44.22-.49.54-.2.3.66.46.98.03-.19.4-.96.56-.25.41-.25-.24-.48-.15-.87.52.02.52-.33,1-.33.38.36.69.83,1.34.83.07,1.38.94,1.45.9,2.69.35,0-.2-.65.35-.52.46,1.78,1.98,2.03,1.96,4.46-.3.12-.41-.03-.61-.04.17.66.53,1.18-.04,1.5,1.23-.26.12,1.72.17,2.82-1.2.42-1.89.78-2.26,1.72-.38.03.16-.28-.1-.58-.38.11-.47.44-.29.95-.59.31-.59-.26-.95-.29-.16.04-.08.29-.08.46-.25-.61-1.42.95-1.74.29-.67.47-1.1,1.23-1.85,1.51-.2.07-1.39-.68-1,.33-.73.11-1.45.24-2.19.36.01-.31-.16-.36-.24-.56-.26.1-.62.15-.51.53-.51-.22-.61-.2-1.01.17-.08-.22.1-.27.07-.45-.94.15.05.44,0,.89-1.47.37-3.35.45-3.45,1.79-.87-.11-.75,2.8-1.47,3.69-.06.08-.4,0-.44.08-.26.57.03.8-.35,1.4-.81.37-1.31.45-1.49,1.01-.82-.19-1.67.61-2.11-.1-.2.05-.17.65-.29.05-.41-.03-.23.35-.37.51-.6-.05-.89,0-1.45.24-.65-.76-2.18-.2-2.62.44-.07-.38-.51-.24-.56-.65-.16.35-.82.26-1.07-.12-.16.05-.07.29-.07.47-2.24.31-3.86,1.3-5.31.44-.68-.24-.8.89-1.03.16-.01.39-1.6.84-1.75.3-.17.06-.08.29-.07.46-.93.03-1.92.42-2.66,1.06-.1.09,0,.4-.07.46-.13.09-.62.06-.85.29-.1.08-.13.42-.21.49-.48.3-1.05.2-1.53.71-.81.84-2.01,2.08-2.55,1.78-.32.66-1.19.95-1.35,1.72-1.08-.12-.83.69-1.5.86-.05-.24-.03-.58-.24-.56.13,1.64-1.22,2.73-3.01,2.6.1.21.48.05.4.53-.93.15-1.64,1.54-2.39,1.01-1.17.74-2.39,1.89-3.9,1.7-.17.06-.08.3-.07.46-.49,0-.66.21-.99.32-.03-.2-.07-.38-.1-.59-.38.13-.46.45-.29.97-.44.06-.87.13-1.32.21-.07-.22.1-.28.08-.46-.51-.07-.44.28-.34.65-.3-.14-.71.26-1.19.06-.19.08-.07.38-.05.6-1.1-.21-1.79.76-2.75,1.52-.03-.37-.22-.22-.15.01-.99-.23-2.15.69-3.25,1.15-.3.11-.31-.16-.36-.39-.19.09-.06.39-.05.61-.79-.04-1.42.58-1.54-.19-.05.27-.39.33-.5.54.23-.68-1.18.05-1.19-.84-2.35.38-2.88.38-4.69.64-.13-.77-.88-.68-1.36-.98-.41-1.48-.29-2.59-.81-3.9.11-.1.22-.19.42-.22-.2-3.38.3-6.27.69-9.24.09-.51-.5-.04-.4-.54-.67,1.03-2.44,1.26-2.2,2.92-.36.39-.78.74-.99,1.22-1.87.27-2.51,1.35-3.64,2.41-.26,2.76-1.58,4.78-2.05,7.39-.36,0-.27.31-.7.27.17.6-.12.85-.08,1.35-1.28.89-1.86,2.26-2.37,3.7-1.41.27-1.06,1.79-2.5,2.06.05.25.08.48.12.73-.66-.09-.52.39-.64.7-1.22.13-1.93.1-2.07.96-.61.15-.24-.62-.3-.85-.15.02-.29.04-.44.08-.31.16.08.82.05,1.18-.67-.9-.2.67-.93-.14-.32.07.05.63,0,.9-.78-.04-.82.44-1.24.66.05-.55-.66-.05-.81-.33-.18.09-.47,1.01-.7.28-.62,1.17-2.8.25-3.03,1.57-1.13.03-3.32.2-3.81.49-2.34.06-4.14-.36-6.89-.03-.34-.88-1.81-.1-2-1.18-.7.24-1.86.28-2.19-.52-.14.07-.05.31-.24.34-.38-.01-.55-.3-.95-.29-1.72-2.48.54-4.72.94-6.9-.12-1.41.76-2.11,1.11-3.18-.13-1.32.17-2.94-.91-3.58-.28-1.7-.53-2.85-1.16-4.3-.65-.29-.98-1.03-1.95-.88-.35-.69-.54-.93-1.03-1.62-.95-1.38-3.74-2.18-3.26-3.34-1.42-1.72-.11-3.85-.05-5.68,1.81-.85,2.54-1.27,4.34-1.77-.34-2.31-.93-4.06.14-5.42-.44-1.42.23-2.06.04-3.3.76-.1.08-1.22.82-1.33-.05-.29-.09-.59-.14-.88.13-.11.1-.36.39-.36-.21-.58.1-.78-.07-1.33.51-.63.75-1.44.8-2.39,1.04-.78,1.37-2.23,2.33-3.08.57-.51,1.68-.49,1.7-1.49-.74-.11-1.46-.01-1.78.15-1.6.84-3.16.46-5.2,1.17.57.5-1.67.86-2.03.34-.39.02-.32.37-.34.67-.73-.11-1.71.62-2.21,1.12-.91-.53-1.39.64-1.94.03-.32.62-1.61.74-2.18.36.05-.45.48,0,.72-.12-.09-.21-.47-.05-.39-.54-.54,0-.35.52-.8.59-.03-.2-.07-.4-.1-.59-1.3.02-1.38-1.65-2.55-1.81.27-2.27-1.5-3.15-2.26-4.56-.09-.24.07-.3.24-.34-.44-.27-1.27-1.77-.93-1.95-2.3-3.15-2.06-8.08-5.25-9.75-.13.12-.09.38-.39.38-.21-.42-.84-1.21-1.18-.85-.09-.56-.78-1.57-1.68-1.97.14-.33-.13-1.28-.66-1.23-.37-2.18-1.81-4.04-1.64-7.06-.72-.79-1.14-6.41-.89-8.84,1.29-.76.43-2.64.36-4.11.96-.37,1.68-.33,2.48-.41,0,.36.32.28.27.7.15-.03.29-.05.43-.07.43-.17-.19-.28-.09-.58.13-.13.32.46.9,0,.22.26.68,1.13,1.82,1.03.59.68.89,1.75,1.94,1.77.3.8.13.49.76.93.19.49-.56.29-.31.8.22.5.44.02.9,0,.01.59.29,1.75.78,1.07ZM324.53,166.36c-.02-.15-.05-.29-.07-.44-.14.02-.29.05-.44.08,0,.1.03.19.05.29.19-.02.23.15.46.07ZM330.71,173.71c-.05-.24-.41,0-.48-.21-.05-.12-.05-.3-.2-.28-.02,1.11.17.79,0,1.8.42-.29.31-.98.67-1.32ZM244.44,273.17c-.1.01-.19.04-.29.05.02.09.03.2.05.3.1-.02.2-.04.29-.06-.01-.1-.03-.2-.05-.29ZM249.42,149.07c1.69.15,2.7,1.26,4.42,1.36-.65-3.9-2.31-7.73-5.01-9.34-.21.46-1.13-.41-1.9.31,1.12,2.17,2,4.65,2.49,7.67ZM264.78,151.28c-.18-1.14-.65-1.88-1.18-2.5.07-3.04-2.42-2.48-2.78-4.93-1.36-.28-2.38-1.02-4.1-.35-.04.7.6.47.51,1.27-.49.33.03,1.38.05,2.09,1.44,1.08,2.24,3.5,4.69,2.95.32.7,1.45.25,1.92.73.07.44.14.88.22,1.31.51.03.07-.62.65-.56ZM240.13,153.48c-.29,0-.25.25-.38.36-.23.03-.18-.36-.48-.22.13.74-.05,1.25.19,2.07.75-.44.32.76.73.77.14-.8.69.71.9.9.19.17.58-.1.76.02.22.15.2.64.44.83.99.81,2.4.87,3.69.57-.97-2.96-2.26-7.01-6.06-6.61.08.44.15.88.22,1.31ZM284.7,145.06c.46.15.31-.72-.07-.43.02.14.04.29.07.43ZM268.82,173.51c1.17.31.45,3.09,1.54,2.89-.1-.42-.85-.84-.51-1.28,1.12,1.72,1.53,3.85,2.87,5.52.09.53.18,1.06.27,1.6.51-.02.32.41.58-.1.66,1.35,1.43,2.55,1.54,4.68-.49.16-.37.77-.89.9-.39.02-.57-.3-.71-.63-.46-.03-.08.53-.68.41-.85-1.34-.43-3.57-1.05-4.48-.21-.3-.37.09-.8-.3-1.05-.98-2.35-1.34-1.93-3.42-.42-.42-.65-1.14-1.15-1.45,0-.97-.52-1.18-.63-2-.41.04-.49-.39-.83-.45-.93-2.11-2.58-3.22-3.58-5.24-.21-1.5-1.33-1.74-1.46-3.35-.95-1.18-1.67-2.7-2.6-3.9-.21-1.74-1.25-2.33-1.45-4.1-.47-.24-.63-.92-.73-1.67-1.1-.5-1.13-2.51-2.65-2.4.27-2.93-3.2-1.93-4.69-2.96-1.03.67-1.9-.59-2.84.03.71.7,1.07,1.97,1.24,2.95.55.14,0-.51.37-.51,2.06,4.23,5.04,7.19,6.07,12.9.99,1.3.78,4.31,2.19,5.03.9,3.3,2.81,5.16,3.45,8.85.92,1.71.85,4.04,2.36,5.14-.2-.57,0-.85.61-.84,1.04.57.23,1.67-.22,2.27.93,1.43,1.06,3.85.69,4.98-.93.68-2.03.32-2.63-.46.47-1.69-.32-3.54-1.1-4.75-.76-.27-.98-1.27-1.63-1.68-.47-2.59-1.49-4.4-2.3-6.49-1.38-.46-1.28-3.02-2.32-3.97.09-1.52-1.61-3.6-2-5.65-.83-.16-.82-1.49-1.15-2.35-1-1-1.01-3.37-1.71-4.79-.67.22-.73-.43-.9-.9-2.06-.19-4.13-.33-5.86-.97-.22-.7-.7-1.04-1.38-1.11,1.1,2.72,1.61,6.26,3.31,8.12.65,3.72,2.43,5.84,3.71,8.66.11,2.31,1.52,2.93,1.69,5.56.65,2.15,2.28,2.91,2.58,5.56-2.45,1.31-3.2-2.31-4.89-3.22.08-4.02-2.2-6.49-3.83-9.39-.93.25-1.48-.02-2.18.37-.15-.33,0-1.09-.34-1.14-.33.23-.27.63.12.73-1.47,2.3-3.38-.96-4.64-1.76,1,3.82,1.99,7.65,3.22,11.14-.02-.24-.1-.51.23-.49.39,1.42.6,3.12,1.29,4.11.36.15.48-.45.58-.09,2.01,4.13,3.73,8.68,5.4,13.32-.17.05-.35.1-.25.33,1.11,2.39,2.88,6.69,3.85,10.44.18,0,.41-.1.47.07.57,3.73,2.5,6.72,3.83,9.39.44-.19.47.18.9,0,1.09,1.52,3.77,1.58,4.66,2.82,1.37-.11,2.09.65,3.16.96.03.2.07.38.1.58,1.23-.46,1.1.98,1.85,1.18.95,2.45,2.85,3.57,3.48,6.45,2.21,1.91,4.14-1.28,6.41-1.98,1.23-1.55,3.95-2.06,5.4-3.45.62-1.96,2.97-1.28,4.93-1.88.45.15.78.46,1.17.7-.27-.86.88-.4,1.25-.52.46-1.65,3.34-1.32,4.59-2.12-1.23-2.53-.51-6.31.03-9.58-.48-.3-1.4-1.89-.37-2.2.21-2.48.99-4.58,1.71-6.72-.09-.54.14-.5-.27-.7.27-.12.71.33.56-.25-1.05-.41-.51-4.52.11-3.77-.01-.5-.19-.8-.33-1.13.97-1.55-.8-3.98.25-5.59-.39-3.05-.68-5.55-1.57-8.43-.11-.37.54-.2.34-.65-.8-.31.11-.82-.27-1.6-.56-.14,0,.51-.36.51-.03-2.94-1.27-6.06-.82-9.3-3.5-.31-2.62-5.1-3.13-7.86-1.31,1.41-1.88,3.36-2.72,5.1.46.04-.43,1.2.05,2.09-.5-.1-.04.49-.54.4.42,2.17-.25,3.58.06,5.66-1.05.13-.61,1.94-1.33,1.88.42.24.69.69.71,1.52-.48.09-.49.51-1.12.49-.31-.7-1.38-.35-1.92-.73-1.01-2.19-2.3-3.97-3.65-5.67-.86-3.51-3.05-5.09-3.98-8.47-.45.03-.42-.6-.85-.61-.75-2.9-2.82-3.97-3.68-6.72-1.37-.71-2.14-2.27-3.02-3.68-.47-1.8-.3-4.49-1.49-5.29-2.05.18-3.61-.34-5.47-.42,1.83,5.06,3.92,9.73,5.78,14.74.3,0,.26-.24.39-.37.89,2.65,2.64,4.12,3.41,6.92ZM280.83,152.31c.14-.01.29-.05.43-.07-.02-.14-.05-.29-.07-.44-.15.01-.29.05-.44.07.04.15.05.29.08.44ZM238.31,165.78c-.43-.14-1.18.21-1.14-.56-1.13.19-1.73.72-1.65,1.78.5.1.03-.5.53-.39.66,3.08,2.87,4.02,5.03,4.98-1.05-1.76-2.19-3.39-2.77-5.81ZM210.51,202.51c.9,0-.07-1.33.82-1.33-.28-2.98.91-5.11,1.37-7.87.61.08.22-.54.83-.44.04-.48-.22-.53-.41-.68.5-.07.62-.41.43-.97.36,0,.27-.32.71-.28-.12-.57-.07-1.48.56-1.14-.12-.98.89-1.15.67-2.21.58.07.36-.43.83-.43-.14-.45.18-.56-.03-1.06.65-.17.7-.77,1.51-.84-.06-.34.18-.47,0-.89.83-.06.5-.93,1.5-.86.19-.79,2.01-3.11,2.69-2.7.94-1.88,2.89-3.31,4.84-4.12-.03-.2-.12-.3-.23-.4.7-.23,1.12-1.02,1.88-.46.12-.74.85-1.02,1.91-1.09.05-.21-.3-.72.02-.74.62.39.63-.42,1.28-.38.2-1.1-.42-2-1.14-2.35.21-.34.06-1.3-.61-.94-.03.28.32.83,0,.89-2.29-1.54-5.74.22-8.3,1.4-.02.28.34.84-.17.78-1.1-.7-1.4-3.23-3.35-2.13-.04.52.31.52.32.99-.9.36-1.01-.38-1.7-.31-.17.4-.21.88-.9.91.01,1.6.02,2.54-1.02,2.86-.84.25-1.47-.61-1.94.03-.02-.58-.54-.44-.73-.78-.04.71-.6.25-.92.76.22.79.69,2.32.59,3.49,1.59.91.84,3.34-1.59,2.96-.82-.85-2.12.19-2.23.98-.28.02-.19-.46-.52-.36-1.06.39-.68,1.82-1.55,2.35.29,1.54-.35,2.4-1.28,3.07.06.63.5,1.47.17,1.91-.07-.44-.14-.88-.22-1.3-.56.74.47,2.63-.18,3.31.64-.31.39.64.85.62-.54.12,0,1.02-.73,1.02.01.28.22.29.25.56-.55-.39,0,.45-.55.39-.25-.29-.74-.28-1.23-.24.14-.87-.65-.42-.76-.92-.29,0-.25.24-.39.36-1.23-.56-2.09-.88-3.16-1.86.41.76-.51,1.18.25,1.45-.71,1.78,1.26,3.67,1.92,5.22.42,0-.44-.49.06-.61.92,1.65,2.41,2.6,2.36,5.14-.45.1-.3.65-.95.62.26,1.35-1.18.84-1.36,1.72-.18-.72-.3.1-.41.23-.18-.18-.52-.1-.65-.35.12.65-.36-.28-.88.15.08.36.03.62-.16.78-.43.19-.27-.47-.78-.17.09.28-.15.33-.22.49.26-.05.36.09.37.39-.64.79-1.27.07-1.94.02.04,0-.01.3-.1.32-1.16.19-2.9-1.08-3.55-2.4-1.87-.85-2.25-3.79-4.69-3.85-.45,1.93.41,4.44-.18,6.02.3,0,.25-.24.39-.36-.5,1.53.42,3.45-.09,4.81.16,2.26.41,4.32,2.27,4.56-.18.05-.04.93.07.43.35-1.23,2.34-.2,2.57-.73,1.32.71,3.71,1.82,3.5,3.89,1.48,1.02,3.02,1.55,5.13,1.99-.01,0-.03-.34.1-.32.47.09,1.29.45,1.6.63.36.2.97.44,1.14.56.54.38.49.85.83,1.37.37.56,1.4.66.83,1.35.73-.49-.05-1.27.26-1.99.9.17.3-1.22.98-.46-.17-.46-.08-.74.14-.92-.39-.12-.53.53-.72.12.74-.65.57-1.21,1.01-1.97-.26,0-.34.28-.43.08-.27-.89.79-.72.19-1.54.69-.16.27-.74.99-.31-.75-.75.22-1.33-.3-2.65.23.03.41.15.64.2-.04-.5-.75-.04-.59-.8,1.06-.1.34-1.47,1.2-1.7-1.05-3.83,1.22-6.77,1-10.95ZM209.81,208.18c.09-.02.19-.04.29-.05-.02-.1-.04-.2-.05-.3-.09.01-.2.03-.29.05.02.1.03.2.05.3ZM316.52,156.17c.1-.01.2-.02.3-.04-.02-.1-.03-.2-.05-.29-.1.02-.19.03-.29.05.02.1.03.19.05.28ZM292.09,161.35c.09-.02.19-.02.29-.05-.03-.19-.06-.39-.1-.58-.1.01-.2.04-.3.05.03.2.06.39.1.59ZM294.61,163.02c-.14-.28.07-1.04-.44-.83.14.29-.06,1.05.44.83ZM281.28,172.76c.81.12.66,1.58,1.48,1.7.48-2.86.78-5.85,1.05-8.86-.34-.05-.41-.5-.82-.46.02.24.1.49-.22.49-.76-.29-1.91-.06-3.87.2.53,2.86,1.82,3.91,2.38,6.94ZM291.27,164.48c-.05.58.11.68.03,1.05-2.03.72-1.17,5.27.28,6.98-.18-.78.28-.29.44-.07-.06-.38-.12-.77-.2-1.16.67-.17.42-.99.32-1.7.71-1.12.27-3.06,1.28-3.97.05-1.03-.62-1.06-.63-1.99-.77.1-.83.7-1.51.85ZM317.07,162.09c.1-.02.2-.05.3-.06-.02-.1-.04-.2-.05-.29-.09.01-.2.03-.29.05.02.1.03.19.04.3ZM316,162.86c-.03-.23.35-.19.22-.49-.32-.09-.47.57-.22.49ZM213.32,212.97c.44-.35.69.42.39.54-.05-.17-.1-.34-.35-.24.35.66-.32.62-.26,1.08.71.16.09-.6.65-.55.04.24.08.49.12.72-.25.09-.86-.33-.7.28.21.19.66.02.56.65-.22.06-.55.03-.56.25.61-.31.48.41.59.8-.27.06-.47.18-.53.39.41.21-.08.66.32.99-.25-.14-.4-.1-.59.1-.13.55.51,0,.51.36-.55,1.07.09,2.1-.82,3.13,1.32.72-.33,2.3.28,3.41-.43.33-.87,1.6-.29,1.83-.89.59-.66,1.68-.3,2.6,4.83-.75,8.18-2.55,12.9-3.37,5.11-2.44,9.95-2.98,16.47-4.43.2-.03.1-.27.25-.34,2.82-.84,4.97-1.18,6.97-2.22-.11-.33-.08-.56.02-.75-.18,0-.41.1-.46-.07-.22-1.51-1.52-2.7-.89-4.34-.03-.2-.27-.09-.34-.24.54-.05.07-.81.26-1.09-.22,0-.52.14-.6-.05-.07-2.32-2.09-4.66-2.47-7.53.92-.09-.34-.29.34-.65-2.25-1.65-2.85-5.13-4.72-7.6.02-.23.44-.21.19-.63-.51.02-.32-.41-.58.1.21-1.75-1.28-3.08-1.35-4.42-.01.12-.09.19-.26.19-1.08-2.66-1.5-4.71-2.51-7.81-.17,0-.42.1-.47-.06-.39-2.03-.57-4.36-1.41-5.75-1.6,1.08-3.46,1.98-4.51,3.45-.05-.19-.1-.34-.34-.25-1.4,1.96-4.41,2.76-5.12,5.21-.25.04-.48.07-.72.12-.2.93-.75,1.61-1.77,1.96.13.89-.7,1.33-1.23,2.45-.51,1.07-.56,3.55-1.3,2.91.05.28.09.58.14.88-.41,2.03-1.97,4.14-2.56,6.13-.25.8-.64,1.8-.44,1.87-1.03,1.52-1.13,3.66-1.49,5.34-.17,0-.39-.2-.44.08.32.37.59,1.79-.14,1.82-.14-.24.32-.68-.13-.73.01.18-.2.2-.4.22,1.19.98.7,2.27.1,3.28ZM293.96,176.91c.09,1.06.1,2.72.61,3.65.05-.79-.72-2.14-.13-2.53.11,1.37.84,3.1,1.07,3.72,1.45,3.64,1.05,9,2.01,11.94-.55.29-.02.55-.7.27,1.42,1.51-.42,3.27-.02,5.24-.04-.17-.09-.34-.34-.23.17.75,0,.88.25,1.44.47.09,1.09-.28,1.9-.32.71-1.63,3.22-1.97,4.38-3.29.59.54,1.78-1.36,2.58-.72.49-.67,1.72-1.39,2.78-1.21.49-1.08,1.93-1.46,3.28-1.91,2.75-2.03,6.55-3.29,8.78-5.68-.87-2.61-1.74-5.23-3.26-6.94-.18-1.54-1.1-2.07-1.58-3.18.01.19.01.36-.25.35-.23-.59-.56-1.02-.61-1.85-2.47-1.45-4.49-3.54-7.95-3.6-.06-.57-.84-.13-.88-.75-2.61.3-3.76-1.43-5.73-2.02-.94.24-2.44-.3-3.89.05.02.34-.13.58.03,1.04-1.36.37-.71,3.22-1.91,2.87-.05,1.23.37,2.06.15,2.67-.05-.18-.1-.34-.34-.24-.18.75.4,1.31.17,1.92-.11-.27.05-.92-.41-.69ZM320.62,165.37c-.04,1.12.01-.54,0,0h0ZM321.55,166.42c.15-.04.29-.05.44-.08-.03-.27-.21-.32-.49-.23,0,.1.03.2.05.3ZM291.5,172.98c-.03,1.12.02-.54,0,0h0ZM294.05,174.8c.02-.39-.15-.52-.51-.37-.04.41.35.23.51.37ZM314.09,171.86c.02-.58-.36-.58-.59-.79.07.43.07.97.59.79ZM330.76,169.51c.37-.04.29-.39.5-.54-.2-.02-.31-.17-.6-.05.04.2.06.39.1.59ZM328.88,170.87c.49.15.3-1.02-.12-.72.04.25.07.49.12.72ZM330.93,170.53c-.05-.26.09-.36.39-.36-.05-.17-.05-.41-.22-.41.21.39-.76.55-.17.78ZM214.51,190.75c.1,0,.2-.02.29-.04-.02-.1-.03-.2-.05-.29-.1.01-.19.03-.29.05.02.1.04.19.05.28ZM330.69,171.77c.31.07.46-.57.22-.49.02.23-.36.18-.22.49ZM330.11,171.86c.09,0,.2-.03.29-.04-.02-.1-.04-.2-.05-.3-.1.03-.2.04-.28.06.01.1.03.19.04.29ZM240.81,188.56c.09,0,.19-.02.3-.05-.04-.2-.07-.39-.11-.58-.1.02-.19.04-.28.06.03.19.06.37.1.57ZM239.89,191.11,319.26,176.85c.1.46.22.87.49,1.11M241.73,190.51c.09-.01.2-.04.3-.05-.02-.11-.04-.2-.06-.3-.09,0-.2.03-.28.05.01.1.02.2.05.29ZM294.62,181.74c-.17.07-.01.22.08.44.41.96.28-.84-.3-.84.03.2.13.3.22.4ZM217.82,196.19c.46.14.32-.73-.07-.44.02.15.05.29.07.44ZM185.37,201.8c.46.15.32-.71-.08-.43.02.15.05.29.08.43ZM216.61,196.98c.1-.01.21-.03.3-.04-.03-.1-.04-.2-.06-.29-.09.01-.18.03-.28.05,0,.09.03.19.04.28ZM241.01,193.33c-.31.07-.15-.5-.27-.7-.52-.07-.14.49-.17.76.24-.09.41.15.44-.06ZM328.64,179.16c.4.02.22-.36.36-.52-.14.03-.29.05-.44.07.03.14.05.3.08.45ZM240.43,194.32c-.04,1.13.01-.53,0,0h0ZM241.33,195.21c-.11-.19.86-.06.12-.16M326,183.04c.46.15.32-.71-.07-.43.02.14.04.28.07.43ZM242.52,196.96c-.24,0-.33.24.03.15.09.84.35.03-.03-.15ZM242.4,198.04c.09-.03.19-.04.29-.06-.02-.1-.03-.19-.05-.29-.1.01-.2.03-.29.05.01.1.03.2.05.29ZM296.43,188.93c.1-.04.2-.05.29-.07,0-.09-.03-.19-.05-.28-.1.01-.19.03-.29.05.02.1.03.2.05.3ZM198.51,206.03c.1-.02.2-.03.3-.05-.01-.1-.03-.2-.05-.3-.09.01-.2.03-.29.05.02.11.04.2.05.3ZM213.72,205.57c.1-.02.19-.04.29-.05,0-.1-.03-.2-.05-.3-.09.02-.19.03-.28.05.01.1.03.2.05.3ZM212.56,208.46c.09-.01.19-.03.29-.05-.02-.1-.03-.2-.05-.3-.09.02-.19.04-.3.05.02.1.05.19.06.29ZM296.52,195.65c.49.1.26-1.28-.17-1.02.06.35.12.68.17,1.02ZM247.64,205.98c.1-.02.18-.03.29-.04-.03-.2-.06-.39-.1-.59-.09.02-.19.03-.29.05.03.19.06.39.1.58ZM193.27,216.65,212.73,213.96c-.84.21-.12.73,0,0h0ZM191.84,217.94c.09-.02.19-.04.29-.06,0-.09-.03-.19-.05-.29-.09,0-.19.04-.29.05.02.1.03.2.05.29ZM194.07,217.86c.1,0,.2-.03.3-.04-.02-.1-.04-.2-.05-.3-.1.02-.2.03-.3.05.02.1.04.19.05.29ZM193.78,217.92c-.03,1.12.01-.54,0,0h0ZM211.39,217.49c.45.15.31-.72-.08-.44.03.14.05.3.08.44ZM211.97,217.4c.1-.02.2-.03.28-.05-.01-.1-.02-.2-.04-.3-.1.02-.19.03-.29.05.02.09.03.19.05.3ZM194.99,220.71,207.94,220.16c.1,0,.2-.02.29-.05-.02-.1-.03-.19-.05-.29-.09,0-.19.03-.29.05.02.1.04.19.05.28ZM197.06,224.86c-.78-.29-.28.54,0,0h0ZM293.1,209.11c.1-.01.19-.05.29-.05-.03-.2-.06-.39-.1-.59-.1.02-.19.02-.29.05.03.2.07.38.1.59ZM199.4,225.5c-.54,0-.35.52-.8.59-.41-.37-1.15-.3-1.47-.79.22.77.33,1.68.92,1.93-.35.98.96,1.91,1.64,3.47.02.24-.36.17-.22.48.75.65,1.21,2.41,2.31,3.06.33-.7.61-1.44,1.17-1.99.17.67.57-.35.82-.44-.23.03-.5.11-.49-.22,1.2-1.09-.79-2.89-.05-3.88-1.03.07-.61-1.05-.71-1.53-.75-.54-3.87.3-3.12-.67ZM196.83,226.24c.04.19-.23.18-.24.34.7,0,.3-1.11-.17-1.01-.12.57.45.2.41.67ZM198.1,225.73c.09-.03.19-.05.29-.06-.02-.1-.04-.19-.05-.29-.1.02-.19.03-.28.05.02.1.03.2.05.3ZM199.69,225.46c.1-.01.2-.04.29-.05-.02-.1-.03-.19-.05-.29-.1.02-.2.03-.29.06.02.1.03.19.04.28ZM211.96,224.43c.1,0,.19-.02.29-.05-.01-.1-.03-.2-.04-.29-.1.01-.2.04-.3.05.02.1.03.2.05.29ZM210.89,227.91c.1,0,.2-.02.29-.04-.02-.1-.03-.2-.05-.29-.1.02-.2.02-.29.04.01.1.03.2.05.29ZM211.65,228.82c.1,0,.18-.02.3-.04-.03-.1-.04-.2-.05-.3-.1.03-.2.04-.3.06.02.1.04.2.05.28ZM210.73,229.58c.46.15.31-.71-.08-.42.03.14.05.28.08.42ZM227.79,227.76c.46.14.32-.73-.08-.44.03.14.05.28.08.44ZM242.75,225.84c.1.32.06.55-.19.63-2.39.26-3.94.97-6.09,2.08-.05-.24-.06-.5-.37-.38.49,1.39-2.72.74-2.79,2.11-.65.11-1.95,0-2.28.68.05-.49-.51-.12-.66-.34,0,.75-3.45,1.49-3.66,1.37.02.24.1.49-.22.49,1.35,3.74,4.24,5.33,5.58,9.09-.22.18-.31.46-.15.92,3.89,1.88,10.85,1.91,14.09-1.77,1.09.06.75-.92,1.79-.9-.03-.2-.06-.39-.1-.58,1.53-1.39,2.41-3.24,4.02-4.57-.24-1.19.21-1.91,1.11-2.29.82-2.18,2.77-3.58,3.51-5.84-.6-.65-1.64-.68-2.07-1.59-.8.18-1.82-.6-2.21-1.57-3.46.62-5.7,2.02-9.32,2.47ZM201.9,235.86c.09-.01.19-.04.29-.05-.02-.1-.03-.2-.05-.3-.09.02-.19.03-.29.06.02.09.04.19.05.28ZM224.38,233.28c.1-.02.19-.03.29-.06-.01-.1-.03-.19-.04-.29-.1.02-.2.04-.3.06.02.1.03.19.05.29ZM209.19,236.44c-.22.06-.54.03-.56.24.21-.06.54-.05.56-.24ZM207.08,237.24c.09-.02.19-.03.29-.05-.02-.11-.04-.2-.05-.3-.09.02-.19.04-.29.04,0,.11.03.2.05.31ZM294.51,222.8c.09-.03.2-.04.29-.05,0-.1-.04-.19-.05-.29-.09.01-.2.03-.28.04,0,.1.02.2.04.3ZM246.97,250.88c-.36.06-.5-.19-.73.13.88,1.11-.6,1.39-.5,2.33-.2.03-.39.07-.59.1.19.4-.14.42-.02.76-1.54,1-2.97,2.07-3.9,3.51-1.97,1.43-4.47,1.02-6.67,2.16-1.02-.12-3.09-.47-3.73.03-1.59-1.37-4.65-.68-5.84-2.61-.42.18-.55-.06-.89,0-.12-.79-.81-.79-1.24-1.14-1.57-1.47-.93-3.76-1.28-5.78-.32-1.93-1.66-3.05-2.68-4.34-.12-.68-.23-1.37-.34-2.04.14-.02.29-.05.44-.08.34-2.53,2.22-3.97,3.51-5.83-.17-.73-.53-1.18-1.12-1.31-.1,0-.2.03-.29.04-.43.42-.48,1.11-1.28,1.27-.63,1.73-1.94,2.99-3.17,4.28-.51,1.86-.84,3.86-1.96,5.28.42,2.64,2.2,3.38,2.53,6.16-1.09.67-1.33,2.9-2.71,2.55.15,1.15-.94,1.4-1.8,1.81-.03.36.36,1.02.05,1.19-.08-.26.02-.76-.39-.54.14,1.72,1,4,2.29,4.7-.31.33.16,1.07.37,1.28-.06-.26.09-.35.38-.35.46.86.94,1.69,1.59,2.28,2.88,0,5.77-.75,9.56-.11.83-1.13,1.88.14,2.48.49.2-.34.84-.34.92-.76.38.8.61-.42,1.32-.22.51,1,0,1.62-.2,2.43-2.63.58-4.29,2.25-6.14,2.68-.43.1-.78-.14-1.21-.09-.54.07-.46.54-.97.46-1.14-.15-2.01-.32-3.03-.24-.2,1.62.52,3.57.27,5.2-.17,1.09-1.18,3.51-1.21,4.39-.01.64.3,1.16.3,1.75.87.42,1.47.69,2.07.7.13-.3-.12-.85.11-1.07,1.9.1,2.34,2.56,4.86,1.27.22-.05.05-.38.39-.35,1.02,0,3.62-.98,5.48-1.23.8-1.32,1.8-2.48,3.35-3.26.09-.41.36-.68.58-.99,1.78-1.47,3.22-3.19,4.22-5.21.04-.86.07-1.75.66-2.21-.44-1.26.47-1.56.31-2.6-1.35,1-2.03,2.48-3.29,3.55.26,1.73-.79,2.5-2.18,3.07-.1-.64-.3.46-.63-.2-1.24.78-2.78,1.47-4.51,1.66-.16,1.11-1.6-.15-2.63.44-.15-.63-.61-.82-.94-1.19.63-1.27,2.49-1.64,4.29-2.08,1.22-.74,2.88-.96,4.34-1.77,1.07-2.11,2.21-4.15,4.65-5.28.31-1.44,1.67-2.15,3.8-2.29.18-.31.45-.54.95-.62-.2-.8.54-.88.84-1.18.39-.4.3-1.18.63-1.61.42-.54,1.18-.59,1.78-1.05.48-.38,1.03-1.3,1.52-1.6,1.69-1.05,3.69-1.55,5.67-1.86,1.02-1.08,1.22-3.54.21-4.99.85-.78-1.2-2.24-.05-2.98-.16-1.09-.49-2.32-.39-3.23,2.77-1.49,2.63-5.05,4.81-6.96.07-.71.33-1.31.58-1.89-.21-.53.06-.73-.06-1.18.57.06.36-.42.83-.44.31-1.39-.28-2.74-1.05-3.58-.3.07-.59.11-.88.15-.02.84-.55,1.33-.53,2.19-.43-.05-.35.27-.7.27-.16,1.55-1.64,2.16-2.11,3.51-1.94,1.57-2.38,4.19-4.78,5.44-.55,1.62-1.98,2.61-2.59,4.17-.04-.16-.1-.33-.34-.23.25,1.9-.24,3.34-1.5,4.45-.3-.56.24-.52.15-.93-.89.03-.09.97-.08,1.35ZM307.37,222.74c-.03-.16-.05-.31-.07-.44-.15.02-.29.04-.44.07.03.33.19.44.51.37ZM275.33,236.07c-.55.15.04,1.1-.78.73.07,1.4-1.49,1.63-1.83,2.41-.94-.08-.48,0-1.47.25-.3-.73.09-.97.05-1.51-.69.02-.36.78-.39,1.27-.68.33-.98.93-1.75,1.2-.8-.73-1.92-.11-2.57.73.08.49.16.96.25,1.45-1.16.97-1.3,2.67-2.03,3.93-.09,2.47-.69,4.55-2.3,5.94-.05-.11-.05-.3-.19-.28.07.44.25.96-.3.96-.06-.25-.14-1.33-.29-.84.05.9.74,1.69.25,2.36-.25.02-.15-.39-.37-.39.31.85-.44.97-.15,1.81.63-.11,1.27-.21,1.89-.31.43-1.2.87-2.38.67-4.01.99-1.48,1.89-3.01,2.67-4.65.37,0,.27-.32.71-.26-.11-1.05,1.4-.98,1.64-1.78,1.47-.33,1.55-1.64,3.14-1.87-.06-.25.05-.4.22-.49.24-.03.49-.07.72-.11.92-1.29,2.92-2.44,4.46-2.86-.09-.32-.05-.56.2-.62,1.09-.15,1.51.65,1.65,1.81-.55.74-1.58.84-2.53,1.03.07.85-.84,1.01-1.07,1.68-.44-.65-.62.39-.91-.14-.21.59-1.02,1.41-1.54.7.18.93-.13,1.53-.38,2.16-1.1.88-1.32,2.39-2.95,2.89-.05.86-.41,1.5-1.36,1.72.17,1.67-2.06,1.62-1.5,3.54,3.02-.49,6.25-1.95,8.39-3.49.87.74,1.25,1.86.13,2.52-.19-.7-.02.18-.44.07-.34.11-.03-.68-.51-.36-.3.1.07.65-.34.65.05-.49-.3-.41-.54-.51.05.58.49.84.05,1.18-.38.17,0-.7-.38-.53.32.87-1.79,2.19-2.17,2.3-.03,0-.05-.35-.19-.27-.11.07-.03.5-.2.64-.27.24-1.13.54-1.31.23-.97,1.53-1.65,1.77-4.1,2.35-.42.84-2.37,1.63-3.76,1.68-.48,0-.88-.36-1.27-.39-1.22-.1-1.78.36-2.25.84-.5,2.5-1.72,4.5-2.44,6.85.84.79-.2,1.13.39,2.33.53.03.52-.31.99-.32.06.39.13.78.2,1.18.53.07,1.1.2,1.68.16,2.14-.14,4.57-.97,6.18-1.49.02,0,.06.32.19.26.75-.31,1.47-.95,1.89-1.21.35-.22.87-.43,1.23-.66.49-.32,1.28-.29,1.85-.62.37-.21.62-.74.9-.89.54-.32,1.11-.22,1.55-.56.26-.22.3-.63.61-.86,1.78-1.33,4.28-2.64,5.43-4.21.66.42,1.36-1.09,2.49-1.16.85-1.25,2.24-2.1,3.89-2.76.66-.9,2.11-1.22,3.29-1.76.12-.51.63-.75,1.36-.83.85-.96,3.1-.84,4.47-1.04,2.74-.42,5.41-1.25,8.15-1.37-.05.54.66.03.81.3.22-.13.16-.48.33-.65.06.05,0,.41.07.44,2.21.93,4.33-1.39,5.41-2.56-.17-.55.14-.76-.07-1.34.2-.02.31-.12.41-.22-.34-3.91,5.3-4.81,9-4.36.64.08.6-.34.97-.47,3.05.33,5.89-1.18,4.58-5.72-.78-.88-1.29-2.14-1.66-3.61-.49-.04-.75-.4-.78-1.07-1.03-.29-1.99-.68-2.53-1.67-1.52.72-3.35-.83-4.83.67-.28.09-.33-.15-.49-.22-.47.85-1.35,1.43-2.71,1.67.19,1.29-1.34,1.35-1.21,2.6-1.47.93-1.77,2.67-3.98,3.07-1.42,1.49-5.43,3.45-7.01,2.82-.4.86-1.47-.11-1.7.59-.43-.47-1.59-.22-1.75.3-.24-.58-1.36.75-1.95.02-1.33.87-3.73,1.01-5.14,1.48-.42-.56-1.26-.53-1.32-1.58.47-.62,1.53-.78,2.18-1.27.41-.31.38-.84.72-1.02.97-.49,2.83-.53,3.2-.54.16-.57.66-.3,1.02-.18,0-.17,0-.35.24-.34,1.99.38,4-.73,5.3-1.49.94.07,2.14-.38,2.55-.88.12,0,.18.1.19.27.63-.28.83-1.33,1.5-.85.32-.63.2-1.57.71-2.06,1.93-.46,2.78-1.68,4.22-2.5.28-.79.45-1.66.28-2.76-.68-.48-1.43-.86-1.68-1.96-1.88-.06-1.75-2.95-3.17-3.65.2.73-.73.67-1.36.83-.73,1.39-2.85,1.82-3.27,2.79-.11-.33-.66-.03-.68-.48-.51.67-.44-.08-1.19.05.06.34.12.68.17,1.02-.61.08-.33.13-.09.31-.65.43-1.89.46-2.04,1.24-1.99.51-4.68-.74-6.51.49-.15-.31-.66-.15-.94-.29-.4.64-1.65.83-2.59.59.07.62-1,.41-1.04.93-.47-.65-1.17,1.02-1.9.33-.26.23-.42.55-.77.73-.47-.38-.15.14-.78-.17-.23.36-.64,1.33-1.06.78-.09.43-.4,1.16-.9.9-.05,1.4-2.03,1.46-2.74,2.41-.35-.07-1.64-.3-.88.14-.25.05-.39-.05-.49-.21ZM286.24,227.93c.09,0,.19-.03.28-.04-.03-.2-.06-.39-.1-.59-.1.02-.2.03-.28.05.02.2.06.38.1.58ZM290.12,228.78c.46.14.32-.73-.07-.44.03.14.05.29.07.44ZM224.94,249.06c-.02-.15.22-.23.3-.06.29.76,0,1.11-.02,1.67.64.42.82,1.48,1.15,2.34.58-.27.69.12.7.64.41.02.74.15,1.11.26,1.12-1.24,2.6.02,3.9.1,0,.35.32.26.27.7.8-.17,1.02.48,1.6.62,1.72-.54,3.42-2.16,4.66-3.47.56.01.58-.36,1.14-.35,0-.18-.1-.41.07-.45,2.43-.2,3.62-1.27,3.82-3.05-2.25.31-4.44.73-7.96.75-.18-.71-1.21-.21-1.49-.79-2.64,0-3.6-2.39-5.75-3.08-.82-1.08-2.05-1.56-2.73-2.84-2.57,1.26-1.35,4.61-.76,7.03ZM311.1,227.95c.15-.03.3-.05.44-.08-.02-.26-.2-.31-.48-.22,0,.09.03.19.04.3ZM325.24,230.95c-.11-.27.34-.71-.25-.56.06.22.04.55.25.56ZM327.21,232.86c-.28-.98-1.06-1.28-1.78-1.64.29.97.9,1.49,1.78,1.64ZM264.03,243.67c-.05,1.12,0-.54,0,0h0ZM328.47,235.05c.16-.52-.12-.55-.19-1.17-.52.12-.42,1.29.19,1.17ZM247.33,249.47c-.1-.27.62-.79-.12-.73.13.25-.32.68.12.73ZM326.3,236.31c.45.14.31-.72-.08-.44.03.15.05.29.08.44ZM329.35,235.79c-.03,1.12.02-.54,0,0h0ZM329.01,236.45c.47.14.32-.72-.07-.44.02.15.06.3.07.44ZM240.38,254.39c-.09,1.33.02-.44,0,0h0ZM282.59,262.25c-.19.02-.24-.15-.47-.07-.17.4.57.35.47.07ZM282.07,262.78c-.05-.15-.05-.41-.22-.4M281.2,262.93c.1.54-.76.4-.41,1.12M278.64,265.46c-.12-.27.05-.92-.41-.68-.04.36-.12.72.41.68ZM277.37,265.98c.4-.02.45-.29.35-.66-.15.03-.3.05-.44.08.02.2.06.39.09.58ZM215.85,279.5c.03.15.05.29.07.44.31-.12.63-.91.26-1.08-.21.14.16.7-.34.65ZM219.08,284.49c.49.7.3-.57,0,0h0ZM237.92,281.62c.46.14.32-.73-.07-.44.02.15.05.3.07.44Z"/>
      <path class="cls-1" d="M330.04,175.02c.17-1.01-.02-.69,0-1.8.14-.02.14.15.2.28.07.2.44-.03.48.21-.37.34-.25,1.03-.67,1.32Z"/>
      <path class="cls-6" d="M265.41,166.59c-.13.13-.09.37-.39.37-1.86-5.01-3.95-9.69-5.78-14.74,1.86.09,3.41.6,5.47.42,1.19.79,1.02,3.49,1.49,5.29.87,1.42,1.65,2.97,3.02,3.68.86,2.75,2.93,3.82,3.68,6.72.42,0,.4.64.85.61.94,3.38,3.13,4.96,3.98,8.47,1.34,1.69,2.63,3.48,3.65,5.67.54.38,1.61.03,1.92.73.63.02.64-.4,1.12-.49-.01-.84-.28-1.28-.71-1.52.72.06.28-1.75,1.33-1.88-.31-2.08.36-3.49-.06-5.66.5.09.04-.5.54-.4-.48-.89.41-2.05-.05-2.09.85-1.74,1.42-3.69,2.72-5.1.51,2.76-.37,7.55,3.13,7.86-.45,3.24.79,6.36.82,9.3.36,0-.2-.65.36-.51.38.78-.53,1.29.27,1.6.2.44-.44.28-.34.65.89,2.88,1.18,5.38,1.57,8.43-1.05,1.61.72,4.04-.25,5.59.15.33.32.63.33,1.13-.62-.75-1.16,3.36-.11,3.77.15.58-.28.13-.56.25.41.2.18.15.27.7-.72,2.13-1.5,4.23-1.71,6.72-1.03.31-.11,1.9.37,2.2-.55,3.28-1.26,7.06-.03,9.58-1.25.81-4.12.48-4.59,2.12-.38.11-1.52-.34-1.25.52-.39-.24-.72-.55-1.17-.7-1.96.6-4.3-.07-4.93,1.88-1.45,1.39-4.17,1.9-5.4,3.45-2.27.7-4.2,3.88-6.41,1.98-.64-2.88-2.53-4-3.48-6.45-.75-.21-.62-1.65-1.85-1.18-.03-.2-.07-.39-.1-.58-1.07-.3-1.79-1.07-3.16-.96-.89-1.23-3.57-1.29-4.66-2.82-.43.19-.47-.18-.9,0-1.32-2.67-3.26-5.66-3.83-9.39-.05-.18-.29-.08-.47-.07-.97-3.75-2.74-8.05-3.85-10.44-.1-.24.07-.29.25-.33-1.66-4.64-3.38-9.19-5.4-13.32-.1-.37-.22.24-.58.09-.69-.99-.89-2.69-1.29-4.11-.33-.03-.24.25-.23.49-1.23-3.49-2.22-7.32-3.22-11.14,1.26.8,3.17,4.06,4.64,1.76-.39-.1-.45-.5-.12-.73.35.05.2.81.34,1.14.7-.39,1.26-.11,2.18-.37,1.64,2.89,3.91,5.36,3.83,9.39,1.69.92,2.44,4.53,4.89,3.22-.3-2.65-1.94-3.41-2.58-5.56-.17-2.63-1.58-3.24-1.69-5.56-1.28-2.81-3.06-4.94-3.71-8.66-1.7-1.87-2.21-5.4-3.31-8.12.68.07,1.16.41,1.38,1.11,1.73.64,3.81.78,5.86.97.17.47.22,1.12.9.9.69,1.42.71,3.79,1.71,4.79.33.86.32,2.19,1.15,2.35.39,2.04,2.09,4.13,2,5.65,1.04.95.94,3.51,2.32,3.97.81,2.09,1.83,3.9,2.3,6.49.64.41.87,1.41,1.63,1.68.77,1.21,1.57,3.06,1.1,4.75.6.78,1.7,1.14,2.63.46.37-1.13.24-3.55-.69-4.98.45-.6,1.26-1.7.22-2.27-.61,0-.81.27-.61.84-1.51-1.1-1.43-3.43-2.36-5.14-.64-3.69-2.55-5.55-3.45-8.85-1.41-.72-1.2-3.73-2.19-5.03-1.03-5.71-4.01-8.67-6.07-12.9-.36,0,.19.65-.37.51-.17-.98-.54-2.25-1.24-2.95.93-.62,1.8.64,2.84-.03,1.49,1.03,4.96.03,4.69,2.96,1.53-.11,1.55,1.9,2.65,2.4.1.75.26,1.43.73,1.67.19,1.77,1.23,2.36,1.45,4.1.93,1.2,1.65,2.72,2.6,3.9.13,1.62,1.25,1.85,1.46,3.35,1,2.02,2.65,3.13,3.58,5.24.34.06.42.49.83.45.11.81.63,1.03.63,2,.5.31.72,1.03,1.15,1.45-.42,2.07.87,2.44,1.93,3.42.43.39.59,0,.8.3.61.91.2,3.14,1.05,4.48.6.11.22-.44.68-.41.14.33.32.64.71.63.53-.14.4-.74.89-.9-.11-2.13-.89-3.33-1.54-4.68-.27.5-.07.07-.58.1-.09-.54-.18-1.07-.27-1.6-1.34-1.67-1.75-3.8-2.87-5.52-.34.44.41.85.51,1.28-1.08.2-.37-2.58-1.54-2.89-.77-2.8-2.52-4.27-3.41-6.92Z"/>
      <path class="cls-5" d="M190.42,216.68c-.11.49-.25-.38-.07-.43-1.86-.24-2.11-2.31-2.27-4.56.51-1.36-.41-3.28.09-4.81-.13.12-.09.36-.39.36.59-1.58-.27-4.09.18-6.02,2.45.06,2.83,3,4.69,3.85.65,1.32,2.39,2.59,3.55,2.4.09-.01.14-.31.1-.32.67.05,1.31.77,1.94-.02,0-.3-.11-.44-.37-.39.07-.16.31-.21.22-.49.51-.3.34.36.78.17.19-.16.25-.42.16-.78.52-.43,1,.49.88-.15.13.24.47.17.65.35.1-.12.23-.94.41-.23.18-.88,1.62-.37,1.36-1.72.65.03.5-.51.95-.62.05-2.53-1.44-3.49-2.36-5.14-.5.12.37.6-.06.61-.66-1.56-2.63-3.44-1.92-5.22-.76-.26.15-.69-.25-1.45,1.08.98,1.93,1.3,3.16,1.86.14-.12.1-.36.39-.36.11.49.9.05.76.92.49-.04.98-.05,1.23.24.56.06,0-.78.55-.39-.03-.27-.24-.28-.25-.56.73,0,.18-.89.73-1.02-.45.03-.2-.93-.85-.62.65-.68-.39-2.57.18-3.31.08.42.15.86.22,1.3.34-.44-.1-1.29-.17-1.91.93-.67,1.57-1.53,1.28-3.07.86-.54.48-1.96,1.55-2.35.33-.1.23.39.52.36.12-.79,1.41-1.83,2.23-.98,2.43.37,3.18-2.06,1.59-2.96.1-1.17-.37-2.7-.59-3.49.33-.51.88-.05.92-.76.19.34.72.2.73.78.47-.64,1.1.23,1.94-.03,1.03-.32,1.03-1.26,1.02-2.86.69-.02.73-.51.9-.91.68-.07.79.67,1.7.31,0-.47-.35-.47-.32-.99,1.95-1.1,2.26,1.43,3.35,2.13.51.06.16-.5.17-.78,2.56-1.18,6.01-2.95,8.3-1.4.32-.06-.04-.62,0-.89.68-.35.82.61.61.94.71.35,1.34,1.25,1.14,2.35-.65-.04-.66.76-1.28.38-.32.01.02.53-.02.74-1.06.07-1.8.35-1.91,1.09-.76-.56-1.18.24-1.88.46.1.1.2.2.23.4-1.95.8-3.9,2.23-4.84,4.12-.69-.41-2.5,1.91-2.69,2.7-1-.06-.67.8-1.5.86.18.42-.06.55,0,.89-.81.07-.86.68-1.51.84.21.49-.1.6.03,1.06-.47,0-.25.5-.83.43.22,1.05-.79,1.23-.67,2.21-.62-.34-.68.58-.56,1.14-.43-.04-.34.28-.71.28.19.56.07.9-.43.97.19.15.46.2.41.68-.61-.09-.22.53-.83.44-.46,2.76-1.65,4.89-1.37,7.87-.89,0,.08,1.34-.82,1.33.22,4.18-2.05,7.12-1,10.95-.86.23-.15,1.61-1.2,1.7-.16.76.55.3.59.8-.23-.04-.4-.16-.64-.2.52,1.32-.45,1.89.3,2.65-.72-.44-.3.14-.99.31.6.83-.46.65-.19,1.54.1.2.17-.09.43-.08-.44.76-.27,1.32-1.01,1.97.19.41.33-.24.72-.12-.22.19-.31.46-.14.92-.68-.76-.08.64-.98.46-.31.72.47,1.5-.26,1.99.57-.69-.45-.79-.83-1.35-.34-.51-.29-.99-.83-1.37-.17-.12-.79-.35-1.14-.56-.31-.17-1.13-.54-1.6-.63-.13-.02-.11.32-.1.32-2.11-.44-3.65-.97-5.13-1.99.2-2.07-2.18-3.18-3.5-3.89"/>
      <path class="cls-1" d="M316.22,162.37c.13.3-.24.26-.22.49-.25.08-.1-.58.22-.49Z"/>
      <path class="cls-2" d="M213.12,209.82c.21-.03.42-.05.42-.23.44.05-.02.48.12.73.73-.04.46-1.46.14-1.83.05-.27.26-.05.43-.06.36-1.68.45-3.83,1.5-5.35-.2-.07.19-1.06.44-1.87.58-1.97,2.16-4.1,2.56-6.12-.05-.29-.1-.58-.15-.88.76.64.8-1.85,1.31-2.91.53-1.12,1.37-1.54,1.23-2.45,1.03-.34,1.57-1.03,1.77-1.95.24-.04.49-.09.72-.12.71-2.46,3.72-3.25,5.11-5.21.25-.1.3.05.35.23,1.06-1.47,2.92-2.36,4.51-3.45.83,1.41,1.03,3.72,1.42,5.75.06.17.29.08.46.08,1.02,3.08,1.43,5.14,2.52,7.81.17,0,.25-.08.27-.19.06,1.34,1.55,2.66,1.34,4.41.27-.5.07-.07.58-.1.25.44-.17.39-.19.63,1.87,2.48,2.47,5.94,4.72,7.61-.69.35.58.56-.33.64.37,2.86,2.4,5.21,2.47,7.54.07.19.38.05.61.03-.2.29.27,1.06-.27,1.09.06.16.3.05.34.24-.65,1.65.67,2.84.88,4.36.06.17.28.07.46.06-.09.2-.12.43-.02.75-1.99,1.03-4.15,1.38-6.96,2.23-.16.05-.05.3-.25.33-6.53,1.44-11.37,2-16.48,4.43-4.72.82-8.08,2.63-12.91,3.38-.35-.92-.59-2.01.31-2.6-.57-.25-.12-1.52.29-1.84-.6-1.11,1.04-2.69-.27-3.41.9-1.04.27-2.06.82-3.13,0-.36-.65.2-.51-.36.18-.22.34-.24.58-.1-.39-.34.09-.79-.32-1.01.06-.2.27-.32.53-.38-.1-.38.03-1.11-.57-.8.01-.2.34-.19.55-.25.1-.62-.35-.47-.56-.66-.15-.59.46-.18.71-.27-.04-.24-.08-.48-.12-.72-.54-.06.05.71-.65.56-.07-.47.6-.42.26-1.09.24-.1.29.07.35.23.31-.1.05-.88-.39-.53.6-1,1.1-2.3-.11-3.27ZM244.18,205.62c.02.15.05.3.07.44.46.15.32-.72-.07-.44ZM228.78,220.06c-.11.04-.28.05-.26.2.19-.04.39-.07.59-.1-.01-.19-.1-.41.07-.46.1-.06.28-.06.27-.2-.57-.07-.43.38-.66.56ZM246.41,218.88c-.1-.16-.21-.3-.36-.39,0,.2.36.76.36.39Z"/>
      <path class="cls-1" d="M331.1,169.75c.17,0,.16.24.22.41-.3,0-.44.1-.39.36-.59-.23.38-.39.17-.78Z"/>
      <path class="cls-1" d="M330.91,171.28c.24-.08.09.56-.22.49-.15-.31.23-.26.22-.49Z"/>
      <path class="cls-3" d="M195.89,203.78c-.08-.26.09-.33.12-.17.58.12.43.36-.12.17Z"/>
      <path class="cls-3" d="M229.53,219.38c.02.15-.16.14-.27.19-.17.06-.08.3-.07.46-.19.04-.39.07-.58.1-.02-.14.16-.13.26-.2.24-.16.09-.62.66-.55Z"/>
      <path class="cls-2" d="M202.52,226.18c.1.48-.32,1.6.71,1.53-.74.99,1.26,2.79.05,3.88-.02.33.26.24.49.22-.24.09-.65,1.11-.82.44-.55.54-.84,1.29-1.17,1.99-1.1-.65-1.57-2.41-2.31-3.06-.13-.31.24-.24.22-.48-.68-1.56-1.99-2.5-1.64-3.47-.6-.24-.71-1.16-.92-1.93.33.49,1.06.42,1.47.79.45-.07.26-.59.8-.59-.75.98,2.36.13,3.12.67ZM198.67,229.08c.09,0,.19-.03.29-.05-.02-.1-.04-.2-.05-.29-.1.01-.2.02-.3.05.02.11.03.2.06.3Z"/>
      <path class="cls-1" d="M196.42,225.56c.47-.1.87,1.02.17,1.01"/>
      <path class="cls-3" d="M246.12,218.38c.16.08.27.22.37.38,0,.37-.35-.2-.37-.38Z"/>
      <path class="cls-2" d="M247.04,249.52c.09.41-.45.37-.15.93,1.26-1.11,1.74-2.55,1.5-4.45.24-.1.29.07.34.23.62-1.57,2.04-2.55,2.59-4.17,2.4-1.24,2.84-3.87,4.78-5.44.47-1.35,1.94-1.96,2.11-3.51.35,0,.27-.32.7-.27-.02-.87.51-1.35.53-2.19.29-.05.58-.09.88-.15.77.84,1.36,2.19,1.05,3.58-.47.02-.26.5-.83.44.12.45-.15.65.06,1.18-.25.58-.52,1.18-.58,1.89-2.18,1.91-2.04,5.47-4.81,6.96-.1.91.23,2.14.39,3.23-1.15.74.91,2.19.05,2.98,1.01,1.45.81,3.91-.21,4.99-1.99.31-3.99.8-5.67,1.86-.49.3-1.04,1.22-1.52,1.6-.59.46-1.36.5-1.78,1.05-.32.43-.23,1.2-.63,1.61-.31.31-1.05.38-.84,1.18-.5.08-.77.31-.95.62-2.14.14-3.49.84-3.8,2.29-2.44,1.13-3.58,3.17-4.65,5.28-1.46.82-3.12,1.03-4.34,1.77-1.8.44-3.67.81-4.29,2.08.33.37.79.57.94,1.19,1.02-.59,2.47.67,2.63-.44,1.72-.19,3.27-.89,4.51-1.66.33.65.53-.44.63.2,1.39-.56,2.44-1.34,2.18-3.07,1.26-1.07,1.95-2.55,3.29-3.55.15,1.04-.75,1.34-.31,2.6-.6.46-.62,1.35-.66,2.21-1,2.02-2.44,3.74-4.22,5.21-.22.31-.5.58-.58.99-1.55.78-2.55,1.95-3.35,3.26-1.86.24-4.46,1.23-5.48,1.23-.34-.03-.16.31-.39.35-2.52,1.29-2.96-1.17-4.86-1.27-.23.21.02.77-.11,1.07-.6,0-1.2-.28-2.07-.7,0-.59-.31-1.11-.3-1.75.04-.88,1.04-3.3,1.21-4.39.24-1.63-.48-3.58-.27-5.2,1.02-.08,1.9.09,3.03.24.51.07.43-.39.97-.46.43-.05.78.19,1.21.09,1.85-.43,3.51-2.1,6.14-2.68.2-.81.71-1.43.2-2.43-.71-.2-.94,1.02-1.32.22-.07.42-.72.42-.92.76-.6-.34-1.65-1.62-2.48-.49-3.79-.64-6.68.12-9.56.11-.65-.59-1.13-1.42-1.59-2.28-.29,0-.44.1-.38.35-.21-.21-.68-.95-.37-1.28-1.29-.7-2.15-2.98-2.29-4.7.41-.23.31.27.39.54.3-.17-.08-.83-.05-1.19.85-.41,1.95-.66,1.8-1.81,1.38.35,1.62-1.87,2.71-2.55-.33-2.78-2.11-3.52-2.53-6.16,1.12-1.42,1.45-3.42,1.96-5.28,1.23-1.3,2.55-2.55,3.17-4.28.8-.15.85-.84,1.28-1.27.1-.01.2-.03.29-.04.59.12.96.58,1.12,1.31-1.29,1.86-3.16,3.29-3.51,5.83-.14.03-.3.06-.44.08.12.67.23,1.36.34,2.04,1.02,1.29,2.35,2.41,2.68,4.34.34,2.01-.29,4.31,1.28,5.78.43.35,1.13.34,1.24,1.14.34-.06.47.18.89,0,1.19,1.93,4.25,1.23,5.84,2.61.64-.5,2.71-.15,3.73-.03,2.2-1.14,4.7-.74,6.67-2.16.93-1.44,2.37-2.51,3.9-3.51-.12-.34.21-.36.02-.76.2-.02.39-.06.59-.1-.1-.93,1.38-1.22.5-2.33.23-.32.37-.07.73-.13-.02-.38-.81-1.32.08-1.35Z"/>
      <path class="cls-1" d="M328.28,233.88c.07.62.35.65.19,1.17-.61.12-.71-1.05-.19-1.17ZM328.09,234.51c.02.1.03.2.05.29.1-.01.2-.03.29-.05-.05-.18-.1-.34-.34-.24Z"/>
      <path class="cls-1" d="M216.18,278.85c.37.18.05.96-.26,1.08-.02-.15-.05-.29-.07-.44.49.05.12-.5.34-.65Z"/>
      <path class="cls-2" d="M294.17,177.62c.22-.6-.35-1.14-.18-1.91.25-.1.3.06.35.25.21-.62-.2-1.43-.15-2.67,1.21.36.56-2.51,1.91-2.87-.16-.45-.01-.69-.03-1.04,1.45-.33,2.94.19,3.88-.05,1.96.6,3.12,2.33,5.73,2.02.04.63.82.19.88.76,3.46.06,5.48,2.15,7.95,3.59.06.83.38,1.27.61,1.84.26.02.26-.15.25-.34.48,1.11,1.4,1.64,1.57,3.19,1.52,1.7,2.4,4.32,3.27,6.94-2.22,2.38-6.03,3.66-8.77,5.67-1.36.44-2.8.83-3.29,1.9-1.06-.17-2.3.57-2.78,1.22-.8-.65-1.98,1.26-2.58.73-1.17,1.31-3.68,1.66-4.38,3.29-.81.04-1.44.4-1.9.33-.26-.59-.07-.71-.24-1.46.23-.1.3.07.34.24-.4-1.99,1.44-3.74,0-5.25.68.28.16.03.71-.26-.97-2.94-.57-8.3-2.01-11.94-.24-.62-.97-2.36-1.08-3.71-.59.38.17,1.75.12,2.52-.51-.93-.51-2.6-.61-3.64.47-.23.31.4.42.67Z"/>
      <path class="cls-2" d="M275.81,236.28c-.76-.44.52-.21.88-.14.7-.95,2.68-1.01,2.74-2.41.5.26.81-.47.9-.9.42.55.83-.42,1.06-.78.63.32.32-.2.78.17.35-.18.51-.5.77-.73.72.69,1.42-.98,1.9-.33.05-.52,1.11-.31,1.04-.93.94.25,2.2.06,2.59-.59.29.13.79-.02.94.29,1.83-1.24,4.52.02,6.51-.49.15-.78,1.39-.81,2.04-1.24-.24-.19-.52-.23.09-.31-.05-.34-.11-.68-.17-1.02.75-.13.68.62,1.19-.05.02.45.57.15.68.48.42-.98,2.54-1.4,3.27-2.79.63-.16,1.55-.1,1.36-.83,1.42.71,1.28,3.59,3.17,3.65.25,1.09.99,1.48,1.68,1.96.16,1.1,0,1.97-.28,2.76-1.44.82-2.28,2.05-4.22,2.5-.51.49-.39,1.44-.71,2.06-.67-.48-.87.57-1.5.85,0-.17-.07-.26-.19-.27-.4.5-1.61.95-2.55.88-1.3.76-3.31,1.87-5.3,1.49-.25-.01-.25.16-.24.34-.35-.12-.86-.39-1.02.18-.38,0-2.24.04-3.2.54-.34.19-.31.71-.72,1.02-.65.49-1.71.65-2.18,1.27.06,1.06.9,1.02,1.32,1.58,1.41-.47,3.81-.61,5.14-1.48.59.73,1.7-.6,1.95-.02.16-.52,1.32-.77,1.75-.3.22-.7,1.29.28,1.7-.59,1.59.63,5.6-1.33,7.01-2.82,2.21-.4,2.51-2.14,3.98-3.07-.13-1.25,1.4-1.31,1.21-2.6,1.36-.24,2.24-.81,2.71-1.67.16.07.21.31.49.22,1.48-1.49,3.31.05,4.83-.67.54.99,1.5,1.38,2.53,1.67.03.67.29,1.03.78,1.07.37,1.47.88,2.73,1.66,3.61,1.31,4.54-1.52,6.05-4.58,5.72-.37.12-.33.54-.97.47-3.7-.45-9.35.45-9,4.36-.1.1-.21.2-.41.22.21.58-.1.78.07,1.34-1.08,1.16-3.2,3.48-5.41,2.56-.07-.02-.01-.38-.07-.44-.17.18-.11.53-.33.65-.15-.27-.86.24-.81-.3-2.74.12-5.41.95-8.15,1.37-1.38.2-3.63.08-4.47,1.04-.72.08-1.23.33-1.36.83-1.18.53-2.63.85-3.29,1.76-1.65.66-3.04,1.51-3.89,2.76-1.13.06-1.84,1.57-2.49,1.16-1.15,1.57-3.65,2.88-5.43,4.21-.31.24-.35.64-.61.86-.44.34-1.01.24-1.55.56-.28.15-.53.68-.9.89-.57.33-1.36.3-1.85.62-.37.23-.88.44-1.23.66-.42.26-1.14.9-1.89,1.21-.14.06-.17-.27-.19-.26-1.61.53-4.04,1.35-6.18,1.49-.58.04-1.15-.09-1.68-.16-.07-.4-.14-.79-.2-1.18-.47.01-.47.35-.99.32-.59-1.19.44-1.53-.39-2.33.72-2.35,1.94-4.35,2.44-6.85.48-.47,1.03-.93,2.25-.84.39.03.79.4,1.27.39,1.39-.05,3.34-.84,3.76-1.68,2.45-.58,3.13-.81,4.1-2.35.17.32,1.04,0,1.31-.23.17-.13.08-.56.2-.64.14-.09.16.28.19.27.38-.11,2.48-1.43,2.17-2.3.37-.17,0,.69.38.53.44-.35,0-.6-.05-1.18.24.1.59.02.54.51.41,0,.04-.56.34-.65.48-.32.17.48.51.36.42.1.25-.77.44-.07,1.12-.67.74-1.78-.13-2.52-2.14,1.55-5.37,3-8.39,3.49-.56-1.92,1.67-1.88,1.5-3.54.94-.22,1.3-.86,1.36-1.72,1.63-.5,1.84-2.01,2.95-2.89.25-.63.56-1.23.38-2.16.52.71,1.33-.11,1.54-.7.3.54.47-.5.91.14.23-.67,1.13-.83,1.07-1.68.95-.19,1.97-.3,2.53-1.03-.15-1.16-.57-1.95-1.65-1.81-.25.06-.28.3-.2.62-1.55.42-3.54,1.57-4.46,2.86-.24.04-.48.08-.72.11-.17.09-.27.24-.22.49-1.59.24-1.67,1.54-3.14,1.87-.24.79-1.74.73-1.64,1.78-.44-.06-.34.27-.71.26-.77,1.64-1.68,3.16-2.67,4.65.2,1.63-.24,2.81-.67,4.01-.63.1-1.26.2-1.89.31-.29-.85.45-.96.15-1.81.21,0,.12.41.37.39.49-.67-.2-1.45-.25-2.36.15-.49.23.6.29.84.54,0,.37-.51.3-.96.14-.02.14.16.19.28,1.61-1.39,2.21-3.47,2.3-5.94.74-1.26.87-2.95,2.03-3.93-.09-.49-.17-.97-.25-1.45.65-.84,1.77-1.46,2.57-.73.76-.28,1.07-.88,1.75-1.2.03-.49-.3-1.24.39-1.27.04.54-.36.78-.05,1.51.99-.25.53-.33,1.47-.25.34-.78,1.9-1.01,1.83-2.41.82.37.23-.59.78-.73.1.16.24.27.49.21ZM298.21,227.87c.28.3,1.15-.04.8-.6-.35.14-.88.15-.8.6Z"/>
    </g>
    <g>
      <path class="cls-3" d="M306.95,109.09c-.24.68-1.05.62-1.2,1.42-.33-.05-.44.19-.86.04-2.21,4.39-3.08,10.74-3.57,16.5.24,1.38.15,3.02.92,4,1.05.37,1.85.16,2.47.89-.68,1.09-1.83,1.59-2.75,2.38.06,1.77-1.46,1.5-2.29,2.14-.28-.13-1.01.11-.81-.39-.45.19-.81.5-1.49.39-.42-.44-.9-.83-1.27-1.32-1.14.39-2.19.89-3.94.5-.9-.92-2.11-2.26-1.99-3.55.82-.65,2.47-.23,3.03-1.2-.15-2.53,1.26-5.75.79-8.38.7-.82.2-1.84.61-2.5-.39-3.43,1.09-8.31-2.22-9.49-.47-.11-.33.56-.78.48-.91-3.13,1.85-5.59,4.11-6.22,2.28.37,4.5,1.83,5.72.16,1.52.32,2.99-.04,4.08.66.1,1.52,1.64,2.46,1.42,3.49ZM299.13,108.37c-.4-.07-.75-.68-1.2-.74-.65-.04-1.3.85-2.08.6.19,6.77.66,14.94-1.18,23.56-.59-.1-.41.78-.96.75,0,.26.51.76.01,1-.27-.18-.23-.58-.16-1.02-.58.16-.97.59-1.29,1.12-.04.58.56.67.88.97,1.09-.51,2.4-.74,3.35-1.44.9.42.88,1.53,1.44,2.2,1.48-.95,3.79-.82,4.15-3.21-2.85-1.5-1.97-5.84-1.44-9.95.02-.22-.35-.16-.22-.47.56-4.62.77-8.46,1.64-12.71.46-.29,1.03-.44,1.15-1.14-1.55-.66-2.73.72-4.08.47Z"/>
      <path class="cls-3" d="M283.6,106.22c.47,1.34.7,3.4.37,4.94,1.59,1.06,1.21,4.9,0,6.62-1.55.5-1.84-.91-2.86-1.24.03-1.51-1.6-1.73-2.39-2.6-.79.4-1.95.34-3.06.31.07,2.44-.22,3.66.57,5.55,1.91.06,2.07-2.16,3.27-3.03.78.39,1.25.99,1.18,2.01.96.99,1.22,2.51.58,4.4,1.19,1.49.29,3.04-.74,4.65-1.8-.22-1.15-2.35-2.34-3.04-.94,2.16.74,4.3.58,6.69.29.57.71,1.05.76,1.81.77.42,1.45.11,2.4.31.33.39.58.83.37,1.63-.33-.04-.66-.09-.99-.13-1.47.64-2.82,2.27-4.94,1.52-1.91.79-3.81,2.32-6.48,1.18.49-1.78,1.99-2.26,2.16-4.47-1.22-2.6-1.02-6.26-2.47-8.67-.05-1.31-.79-2.11-.7-3.53-.78-1.61-.82-3.78-1.45-5.5-1.57-.09-2.65,1.53-3.89.07-.07-2.13.25-3.79,1.45-4.56,1.75-1.12,2.57-1.55,5.17-1.05,1-.85,2.86-.57,3.54-1.84.95.02,1.85-.03,2.25-.72.55.06,1.23.28,1.2-.42,2.5.25,3.8-1.87,6.44-.89ZM281.52,108.97c-1.13.5-2.53.69-4.1.62-.42.89-2.13.1-2.44,1.13-2.03-.1-2.72,1.53-4.54,1.7.04-1-1.14-.15-1.55-.2-.23-.16-.16-.55-.66-.51-1.13.51-2.35.9-2.87,2.21,1.09.18,2.08-.09,3.25.42.21,3.11,1.7,5.23,1.79,8.43.32,1.09,1.08,2.43,1.36,3.92.29,1.46.23,3.09.73,4.41.45,1.13,1.67,2.72.5,3.93.21,1.22-.87,1.62-.72,2.2,1.42-.31,2.35-1.25,3.55-1.84.68.1.9.58,1.47.77.8-.56,2.12-.44,2.5-1.55-.4.06-.58-.61-1.36-.6-1.22-2.2-1.99-4.76-1.84-8-.46-.59-.61-2.51.24-2.98.6.22.81-.06,1.18-.14,1.06.32,1.47,1.16,2.06,1.84-.7-1.2.51-3.87-.84-4.56-.31.33-.54.74-.86,1.03-1.58.02-2.2,1.69-3.75,1.24-.54-1.82-1.45-3.38-.95-6.01-.81-.63-.24-2.53.15-3.42.86.17,1.24-.28,1.79-.49,1.59-.08,2.89-.96,4.61.02.32.69,1.3.85,1.82,1.38.12-.55-.15-.8.04-1.42-.48-.01-.57-.33-.79-.54.02-1,.33-1.65,1.08-1.72.2-.93-.11-1.45-.31-2.06-.29.11-.61.2-.54.79Z"/>
      <path class="cls-6" d="M333.37,112.51c2.36.17,3.03,1.62,5.42,1.42-.26,1.04-.94,1.53-2.05,1.45-1.14,1.86-1.53,5.83-2.43,8.74-.23.79-.49,1.57-.74,2.35-1.27,4.22-2.57,8.38-3.26,13.08-.87-.08-1.18-.31-1.71-.22-.31-.02-.14.59-.25.83-.28-.04-.56-.07-.85-.11-.54-.84-1.38-.94-1.96-1.54-.5.4-1.04.75-2.07.44.06-.92,1.1-.55,1.43-1.1-.23-1.73-1.42-3.41-1.9-5.28-.79-3.02-.97-6.52-1.63-9.69-.27-1.33-1.15-2.39-.31-4.22-.27-.34-.52-.7-1.04-.84-1.26,1.32-1.98,3.53-2.59,5.55-.67,2.23-1.3,4.61-1.77,6.96-1.64,2.23.83,3.95,2.07,5.15-.7.75-1.57.71-2.65.39-.18-.5.16-.62.16-1.27.14-.44-.69-.15-.49-.64-1.01.41-2.16.31-2.95.63,1.53-2.45,1.57-5.74,2.75-8.99,1.08-3,3.74-6.19,2.24-9.62-.08-1.73,1.01-2.86,1.07-4.9.44.19.26-.44.62-.35.46.45,1.03.82,1.41,1.33,1.33-.74,2.89-.17,4.51-.42-2.61,1.44-.33,4.62.15,6.63.25,1.01.14,2.1.46,3.08.41,1.25,1.34,3.24.91,5.29,1.06,1.73,1.35,4.05,2.58,5.65.98-1.07.96-2.52,1.38-3.98,1.38-4.96,4.24-10.51,3.47-15.79Z"/>
      <path class="cls-6" d="M282.06,108.18c.2.6.51,1.13.31,2.06-.75.07-1.06.73-1.08,1.72.21.2.31.52.79.54-.19.62.08.87-.04,1.42-.52-.53-1.5-.69-1.82-1.38-1.71-.98-3.02-.1-4.61-.02-.55.21-.92.67-1.79.49-.39.89-.97,2.8-.15,3.42-.5,2.63.41,4.19.95,6.01,1.55.45,2.18-1.22,3.75-1.24.32-.3.55-.71.86-1.03,1.35.69.14,3.36.84,4.56-.59-.68-1-1.52-2.06-1.84-.37.08-.58.36-1.18.14-.84.47-.69,2.38-.24,2.98-.14,3.24.62,5.8,1.84,8,.78,0,.96.66,1.36.6-.38,1.1-1.7.99-2.5,1.55-.57-.19-.79-.67-1.47-.77-1.2.59-2.13,1.53-3.55,1.84-.15-.59.93-.98.72-2.2,1.17-1.21-.05-2.8-.5-3.93-.5-1.31-.44-2.95-.73-4.41-.28-1.49-1.04-2.83-1.36-3.92-.09-3.2-1.58-5.32-1.79-8.43-1.16-.51-2.16-.24-3.25-.42.51-1.32,1.73-1.7,2.87-2.21.49-.04.43.35.66.51.41.04,1.6-.81,1.55.2,1.81-.17,2.51-1.8,4.54-1.7.32-1.02,2.02-.24,2.44-1.13,1.57.07,2.97-.11,4.1-.62-.08-.59.24-.69.54-.79Z"/>
      <path class="cls-3" d="M264.11,122.53c-.64,2.1-3.59,2.63-2.44,5.58-.26,1.65-.12,2.53-.43,4.39-.16.13-.33.24-.48.37-.13.45-.05.71.17.89-1.13,1.5-1.91,3.47-2.96,5.07-.14-.02-.08-.19-.11-.3-.18.55-.29.64-.69.92-.58.41-1.81.65-2.55.82-.16.04-.16.23-.2.41-2.83-.14-5.93-.33-7.03-2.35-.45.01-.47-.31-.97-.27-.55-1.53-2.09-2.3-3.16-3.42-1.6-.26-3.29.54-4.31.01.71-2.49,2.55-4.66,1.04-6.91.22-1.72.03-4.03.95-5.2-.14-1.37,1.34-2.34,2.02-3.33.56-.84,1.05-2.07,2.28-2.15.13-.94,1.25-.57,1.47-1.39.88-.13,1.88-.1,2.39-.7.13-.07.27-.14.29.04,1.35-.07,3.36.23,4.66.61,1.38,1.39,2.77,2.79,3.9,4.38.48-.66.69,1.05,1.1,1.43.45.42,1.83.89,2.62.91.86.02,1.4-.6,2.42.17ZM243.56,123.61c-1.52.5-.84,3.2-.71,4.36-.09.26-.56.04-.49.51-.05,1.68-.46,3.64-1.49,4.83,1.72.21,4.35-.1,4.5,1.87,1.19.45,1.64,1.45,2.13,2.44,2.21,1.24,3.84,1.82,5.76,2.17,3.3-.06,4.58-2.75,5.99-5.25.73-2.5.91-4.37.4-6.41-1.17-1.51.51-2.9,1.13-4.32-.98-.41-2.55-1.36-3.29-1.14-.29-.45-.73-.79-.67-1.52-1.32-1.31-2.43-2.79-4.74-3.34.02-.15.04-.29.05-.43-4.62-.27-9.52.8-8.56,6.23Z"/>
      <path class="cls-6" d="M252.12,117.38c-.02.14-.04.28-.05.43,2.32.55,3.43,2.03,4.74,3.34-.06.73.38,1.08.67,1.52.75-.22,2.31.74,3.29,1.14-.62,1.42-2.3,2.81-1.13,4.32.51,2.04.33,3.91-.4,6.41-1.42,2.5-2.69,5.2-5.99,5.25-1.91-.35-3.54-.93-5.76-2.17-.49-.99-.94-1.99-2.13-2.44-.15-1.98-2.78-1.67-4.5-1.87,1.03-1.19,1.44-3.15,1.49-4.83-.07-.48.4-.25.49-.51-.12-1.15-.81-3.86.71-4.36-.96-5.43,3.94-6.5,8.56-6.23ZM257.06,129.24c-.04-1.08-.81-1.59-2.08-1.7.08-.27-.16-.3-.22-.47.06-1.62.58-2.96.38-4.11-.09-.54-1.22-2.46-1.38-2.62-2.14-2.34-5.35-.64-7.69.58.03.71-.57.59-.84.9-.42,1.3-1.04,2.8-.83,4.2.32,2.23,1.68,2.84,3.57,3.48-.31,1.4.28,2.06.27,3.49,1.15,2,4,3.93,6.39,2.85.61-.65,1.29-1.2,2.08-1.6.03-.85.41-1.23.41-2.1.28.07.34.33.51.49.27-1.47.42-2.87-.57-3.37Z"/>
      <path class="cls-3" d="M257.63,132.61c-.17-.15-.23-.42-.51-.49,0,.87-.39,1.25-.41,2.1-.78.4-1.47.95-2.08,1.6-2.38,1.09-5.23-.85-6.39-2.85.01-1.43-.58-2.09-.27-3.49-1.89-.64-3.24-1.25-3.57-3.48-.21-1.41.41-2.9.83-4.2.27-.31.87-.19.84-.9,2.34-1.21,5.54-2.91,7.69-.58.16.16,1.3,2.08,1.38,2.62.2,1.15-.32,2.49-.38,4.11.06.16.3.2.22.47,1.27.11,2.04.62,2.08,1.7.99.5.83,1.9.57,3.37ZM253.66,125.49c.43-1.93-.52-2.74-1.02-4.31-.66-.16-1.08-.39-1.45.1-.76.12-.56-.5-1.23-.45-2.38.8-4.58,3.21-3.86,6.54,1.25.22,2.14,1.27,3.46,1.03.64.68.24,1.22.04,1.87-.91,2.91,2.08,5.99,4.88,4.51,1.13-1.07,2-4.78.78-6.07-.51.31-1.75-.88-1.96-.4-.89-.8.16-1.86.37-2.82Z"/>
      <path class="cls-3" d="M366.17,138.82c-1.94.99-4.39-.75-5.7,2.14-1.37.97-1.89,1.67-3.45,2.75-.2-.03-.4-.05-.6-.08-.41.2-.55.45-.51.74-1.87.23-3.82,1.05-5.71,1.42-.07-.11.07-.2.15-.28-.53.24-.66.22-1.15.14-.69-.12-1.73-.83-2.37-1.25-.13-.09-.26.04-.42.14-1.87-2.12-3.9-4.47-3.22-6.67-.32-.33-.1-.55-.49-.88.71-1.46.19-3.1.26-4.65-.93-1.33-2.69-1.98-3.02-3.08,2.28-1.23,5.12-1.43,5.67-4.08,1.37-1.03,2.91-2.79,4.39-2.94.87-1.05,2.61-.66,3.78-.88,1.01-.19,2.22-.69,3.14.14.76-.56,1.28.51,2.02.09.7.54,1.37,1.29,2.17,1.23.15.04.29.1.17.23.99.92,2.17,2.57,2.82,3.77-.04,1.96-.07,3.93-.43,5.84.81-.12-.26,1.23-.25,1.79,0,.62.63,1.93,1.17,2.51.59.64,1.41.59,1.57,1.86ZM351.07,124.85c-1.42-.74-2.89,1.64-3.63,2.53-.25.11-.42-.37-.71,0-1.24,1.13-2.94,2.22-4.5,2.31,1.05,1.37,3.11,3.04,1.8,4.53.5,1.17.11,2.2-.27,3.23.65,2.44,1.37,4.01,2.45,5.64,2.35,2.32,5.17,1.36,7.96.64,2.28-1.23,3.75-2.41,4.88-4.2.26-1.88,2.42-1.65,3.87-2.18-.39-.99-.79-2.79-1.48-3.17.14-.52.07-1.08.63-1.54.03-1.86.32-3.68-.9-5.73.11-.09.23-.17.34-.26-3.02-3.52-7.22-6.26-10.43-1.8Z"/>
      <path class="cls-6" d="M361.5,126.65c-.11.09-.23.17-.34.26,1.22,2.04.93,3.87.9,5.73-.55.46-.49,1.02-.63,1.54.69.38,1.09,2.18,1.48,3.17-1.45.53-3.61.3-3.87,2.18-1.12,1.79-2.59,2.96-4.88,4.2-2.79.73-5.61,1.68-7.96-.64-1.08-1.63-1.79-3.2-2.45-5.64.37-1.03.77-2.06.27-3.23,1.31-1.48-.75-3.16-1.8-4.53,1.57-.09,3.27-1.18,4.5-2.31.29-.37.46.12.71,0,.74-.89,2.2-3.27,3.63-2.53,3.21-4.47,7.41-1.72,10.43,1.8ZM356.45,138.44c.75-.77.58-1.67-.22-2.68.25-.14.1-.33.17-.48,1.21-1.08,2.53-1.65,3.23-2.59.32-.45.89-2.6.91-2.84.18-3.16-3.28-4.26-5.79-5.09-.48.51-.82,0-1.22.03-1.21.6-2.72,1.2-3.59,2.34-1.37,1.77-.85,3.17,0,4.98-1.22.75-1.28,1.63-2.31,2.62-.63,2.22-.04,5.61,2.41,6.55.88,0,1.76.1,2.6.39.62-.58,1.16-.57,1.79-1.17.14.25,0,.47,0,.71,1.24-.84,2.35-1.7,2.03-2.77Z"/>
      <path class="cls-3" d="M354.42,141.21c0-.24.14-.46,0-.71-.63.59-1.17.59-1.79,1.17-.84-.28-1.71-.39-2.6-.39-2.45-.93-3.05-4.33-2.41-6.55,1.02-.98,1.09-1.87,2.31-2.62-.85-1.81-1.37-3.21,0-4.98.87-1.14,2.38-1.73,3.59-2.34.41-.03.74.48,1.22-.03,2.5.83,5.96,1.93,5.79,5.09-.02.24-.59,2.38-.91,2.84-.69.94-2.02,1.51-3.23,2.59-.06.15.08.34-.17.48.8,1,.97,1.91.22,2.68.33,1.07-.79,1.93-2.03,2.77ZM356.77,133.4c1.68-1.03,1.58-2.29,2.36-3.73-.33-.59-.47-1.05-1.08-.97-.61-.45-.02-.74-.54-1.19-2.23-1.16-5.48-1.05-7.38,1.79.71,1.06.59,2.41,1.67,3.19-.05.93-.7,1.03-1.31,1.33-2.72,1.38-2.84,5.65.17,6.65,1.57.05,4.83-1.91,4.91-3.68-.59-.15-.6-1.86-1.08-1.68-.05-1.19,1.44-1.18,2.28-1.71Z"/>
      <path class="cls-1" d="M219.85,141.39c-.31-.11.03-.72-.02-1.01.19.22.31.78.02,1.01Z"/>
      <path class="cls-3" d="M235.89,149.63c-.37.29-.74.59-1.36.54.02-.74.84-.44,1.36-.54Z"/>
      <path class="cls-1" d="M204.83,147.49c.09.28.31.43.33.76-.34-.1-.34.22-.73.05-.11-.58.51-.22.39-.81Z"/>
      <path class="cls-1" d="M221.76,153.26c.16.39.77.44,1.22.59-.12,1.54-1.99.71-2.14-.14-.12-.69,1.04.24.92-.45Z"/>
      <path class="cls-3" d="M308.36,132.56c.31-.03.25.24.23.46,2.11.11,2.9-1.52,3.58-3.28.57-6.64,4.74-13.5,2.23-19.54-.32-.04-.66-.08-.99-.13-.09-.87.07-.85.22-1.7,1.04-.28,2.12-.54,3.14-.87,1.84-.02,2.48,1.49,3.84,2.5,1.09-.34,2.81.12,3.29-1.01.42.49.66,1.11,1.73,1.08-.1.29.05.39.07.58,1.26-.09,2.68.37,2.82,1.52-.68,1.57-1.9.46-3.15,1.03-.29,3.41,2.11,7.73,2.26,11.49.6.65.11,2.12.95,2.57.63-1.23,1.05-3.3,1.74-4.52.4-.7.2-2.15.54-3.09.09-.25.46-.44.51-.65.54-1.93.81-4.06.31-5.7-.62-.27-.92-.8-1.27-1.3.06-1.67,2.43-2.01,2.63-1.53.17,0,.15-.25.2-.41.31-.02.25.23.23.47,1.7-.84,2.99.95,4.25,1.55,1.49-.44,4.77-.38,3.74,2.21-.73.65-1.58,1.13-2.01,2.19-.42-.16-.45.19-.86.02-.21.73-.71,1.05-1.19,1.42-.72,4.42-2.43,7.53-2.88,12.28-1.36.38-1.09,2.88-1.45,4.56-.87.91-1.28,2.42-1.42,4.27,0,.21.42.1.39.34-.25,1.04-1.04,1.39-2.31,1.13-.73.37-1.32.93-2.65.52-.15-1.59-2.95-1.04-3.34-.85-.31-.44-1.29-.56-1.7-.22-.6-.12-1.29-1.84-1.15-3.31.27.08.45.03.46-.24.16.47.62.71.38,1.49.58-.03.89-.38,1.24-.7-.21-1.78-.9-3.2-1.55-4.66-.31-3.37-1.02-6.43-1.79-9.43-1.05,2.94-2.28,5.63-2.9,9.11.63,1.46,2.17,2.23,3.15,3.44-1.21,1.86-5.56,2.38-6.91.1-2.57.94-4.94-.48-4.62-3.19ZM329.9,128.3c-.42,1.47-.4,2.92-1.38,3.98-1.23-1.6-1.51-3.92-2.58-5.65.43-2.04-.49-4.03-.91-5.29-.32-.98-.21-2.06-.46-3.08-.48-2.01-2.76-5.19-.15-6.63-1.62.25-3.18-.31-4.51.42-.38-.52-.94-.88-1.41-1.33-.37-.09-.18.54-.62.35-.06,2.04-1.15,3.17-1.07,4.9,1.49,3.43-1.17,6.62-2.24,9.62-1.18,3.25-1.21,6.54-2.75,8.99.79-.32,1.95-.22,2.95-.63-.2.49.62.2.49.64,0,.65-.34.77-.16,1.27,1.08.33,1.94.37,2.65-.39-1.25-1.2-3.71-2.92-2.07-5.15.47-2.35,1.09-4.73,1.77-6.96.61-2.02,1.33-4.23,2.59-5.55.52.14.77.5,1.04.84-.84,1.83.04,2.89.31,4.22.66,3.17.84,6.67,1.63,9.69.49,1.87,1.68,3.55,1.9,5.28-.34.54-1.37.18-1.43,1.1,1.03.31,1.57-.04,2.07-.44.58.6,1.42.7,1.96,1.54.28.04.57.07.85.11.11-.23-.06-.85.25-.83.52-.09.84.14,1.71.22.7-4.7,1.99-8.86,3.26-13.08.24-.78.5-1.56.74-2.35.89-2.92,1.29-6.88,2.43-8.74,1.11.08,1.8-.41,2.05-1.45-2.39.2-3.06-1.25-5.42-1.42.76,5.29-2.09,10.83-3.47,15.79Z"/>
      <path class="cls-3" d="M225.76,135.68c.09.49.09-.38.44-.09.01.53.23.9-.02,1.29.15-.07.18-.3.45-.23-.04,1.63.57,1.28.82,2.55,0,.29.4-.15.54.21-.05.48-.33.56.04.86.24-.05.13-.31-.11-.3,1.13.88,1.31,3.58,3.02,4.42-.14.44.21.47-.09.7.28.04.57.08.85.11.34,2.55,3.17-.96,3.48-2.42.11-.53-.15-.57-.17-.88.74-.34.59-1.7.3-2.28.29.11.29-.16.33-.39,1.39,0,1.47,1,1.62,1.95.23.03.47.06.71.09.09.9,1.06,1.14,1.65,1.66-.21.62.32.68.6.93-.27,1.62.31,2.57,2.11,2.58-.09.27-.03.45.23.46-.37,1.3-1.98,1.03-2.4,1.84-1.19.09-2.25.57-3.31,0-.3,0-.11.62-.37.67-1.15-.79-2.52,0-3.5.41.28.29,1.17.12,1.4.33-.43.37-1.13.41-1.67.64-.02-.3.24-.24.47-.23-2.11.18-5.47,1.12-7.55-.55-.14-.11-.07-.48-.21-.6-.36-.31-.9-.28-1.22-.58-.69-.68-1.08-2.16-1.46-3.22-.09-.22-.32-.34-.67-.38.21-1.04-.87-1.1-.89-1.98-1.49.12-3.1-.36-4.15-1.25-.07-.55.36-.42.52-.65-.17-.25-.46-.42-.32-.9.36-.36.48-1.04,1.27-.85.47-1.48.94-2.67.07-3.86-.03-.26.15-.26.32-.24,0-.17-.25-.16-.41-.21.41-1.67-.41-2.4-.06-4.03-.81-1.14.53-1.53.53-2.94.73.11.32-1.26,1.14-1,1.02-2.21,3.15-2.96,4.86-4.27.26,0,.28.21.56.21.81-.3,1.62-.79,2.39-.7.58-2.21,2.61-4.12,4.86-3.11-.2,1.93-.54,3.44-.66,5.1.98,1.19,1.17,2.99,2.35,4.03-.05,1.36-.45,2.26-.85,3.19-.18-.37-1.04-1.44-1.32-.89-.19-.5-.67-.76-1.48-.76-1.66-2.71-5.56-.51-6.25,1.63.43,1.02.67,1.65.8,2.7,0,.16.25.15.41.19-.32.63.37.74.02,1.01ZM225.41,137.22c-.04.1-.14.15-.29.1.21-1.37-1.21-2.1-.73-3.25-.57-.54-1.06-1.64-1.14-2.3-.34-2.96,2.76-3.39,4.29-4.34,2.31-.32,3.29.87,4.97,1.65-.31-1.59-1.24-2.7-2.09-3.86-.35-1.23.49-3.34,0-4.46-.24.69-.41.59-1.08.58.03.54-.65,1.01-.32,1.39.04-.16.02-.4.19-.4-.18,1.14-.62,2.44-1.81,1.78-1.03.49-1.99,1.06-3.31,1.15-.43.7-1.13,1.05-1.9,1.33-1.18,1.62-2.7,3.25-2.64,5.97.47,1.32.82,3.44.88,5.44.38.1.27.56.63.65-.18,1.24.59,2.15.33,3.05.68-.3.52,1.13,1.76.81.13,2.03,1.68,3.49,1.78,5.12.82.18.89.89,1.77.8.22.3-.22.39.04.73.57,0,.44-.02.99.13.02.24-.25.34-.06.42.85-.16,1.95.51,2.99.25.72-.2,1.05-1.03,1.69-.79,1.72-1.87,4.5-1.31,6.92-1.27.12-.38.63-.29.67-.78-.51.05-.52-.29-.97-.27-.13-1.72-.02-3.49-2.03-4.28-.46,2.89-2.47,4.59-4.76,4.55.09.01.14.14-.02.15-.34-.42-1.19-.44-1.94-.54-1.12-2.06-2.06-4.27-3.37-6.18.17,0,.34,0,.32-.24-1.03-.59-1.66-2.6-1.76-3.1Z"/>
      <path class="cls-6" d="M227.17,140.32c.03.25-.14.24-.32.24,1.31,1.91,2.26,4.12,3.37,6.18.75.1,1.6.12,1.94.54.17,0,.11-.14.02-.15,2.29.04,4.3-1.66,4.76-4.55,2.01.79,1.9,2.56,2.03,4.28.45-.01.47.32.97.27-.05.49-.55.4-.67.78-2.42-.05-5.2-.6-6.92,1.27-.64-.23-.97.6-1.69.79-1.04.26-2.13-.41-2.99-.25-.2-.08.08-.18.06-.42-.55-.15-.42-.14-.99-.13-.27-.34.18-.43-.04-.73-.88.09-.96-.62-1.77-.8-.1-1.63-1.65-3.09-1.78-5.12-1.24.32-1.08-1.1-1.76-.81.26-.91-.51-1.81-.33-3.05-.37-.1-.25-.56-.63-.65-.06-2.01-.41-4.12-.88-5.44-.06-2.72,1.47-4.35,2.64-5.97.76-.28,1.47-.64,1.9-1.33,1.33-.09,2.29-.66,3.31-1.15,1.19.66,1.62-.64,1.81-1.78-.17,0-.16.24-.19.4-.33-.38.35-.84.32-1.39.67.01.84.11,1.08-.58.49,1.12-.35,3.24,0,4.46.85,1.17,1.78,2.27,2.09,3.86-1.68-.78-2.66-1.97-4.97-1.65-1.53.96-4.63,1.38-4.29,4.34.08.66.57,1.76,1.14,2.3-.47,1.15.95,1.89.73,3.25.16.05.25,0,.29-.1.1.49.73,2.51,1.76,3.1Z"/>
      <path class="cls-3" d="M217.27,158c.98.07-.29.1-.41.96-.37-.05-.86-.26-.76.33-.59-.59-.93.6-1.45.1-.49.64-1.37,1.42-2.41.84.86-1.15.76-2.83,1.44-4.42-1.03-1.49-2.48-2.66-3.13-4.71-.92.44-.75,3.04-.81,4.06-.28-.1-.44-.03-.46.23-1.85-.3-2.43-1.6-4.03-2.1-.32,1.88.1,4.23.28,5.64.03.22.18-.04.42.05-.11.59.1.93.1,1.44.84.25,1.93.3,2.33.87-.86.52-.73,1.29-1.28,2.14-.14-.01-.28-.04-.42-.05-.46,1.17-2.1.81-2.8,1.64-.51.05-.52-.28-.97-.26-1.1,1.48-5.61,3.89-5.29-.25.82-.42,1.43-1.11,2.09-1.74-.63-.83.26-2.83-.4-3.64.05-3.58-.85-5.99-.52-9.27-.23-.12-.17-.45-.35-.62,0-.34.43-.11.48-.37-.33-.38-.69-.74-.85-1.25.27-.51-.02.41.25.31.44-.47-.36-.85.43-1.1-.35-.26-.44-.52-.05-.72,0-.18-.24-.15-.41-.2.27-1.22-.65-1.53-.2-2.9-.4-1.75-3.42-1.52-4.91-2.07.56-2.7,3.33-4.33,5.1-3.94.64-.33.88-1.18,1.37-1.69,2.3-.16,4.13-.35,5.07-2.51,1.42-.37,2.35-.66,3.98.38-.04.28-.07.56-.11.84-1.5.29-1.36,2.82-1.77,3.65,1.28,2.02,3.75,3.14,4.45,5.6,2.1,1.66,3.57,3.79,5.46,5.59-.14.14-.23.36-.23.69.62.75,1.81,1.07,2.18,2.01,2.09.52,4.17.8,5.79,1.91-.04.2-.08.39.09.44-.26.39-.74.48-1.22.56.02.36-.12.85.31.9-1.52.27-2.66,1.35-4.09.49-1.1.28-1.2,1.85-2.29,2.14ZM212.67,146.92c-1.25-.82-2.25-1.83-2.75-3.24-1.14-.76-1.95-1.79-2.64-2.92-.04.1-.13.14-.29.1.11-.68-.76-.6-.54-1.37.37-.23.02-.28-.14-.02-.59-.87-.46-1.62-1.15-2.3.15-1.32.53-1.96.86-3.33-1,.22-1.22,1.49-1.99,2.04-.24-.33-.51.03-.75.19-.22-.05-.06-.38-.39-.34-.6.59-1.69.55-2.67.66-.35.81-.89,1.37-1.28,2.12-.42-.15-.54.09-.88.04.23-.43-.16-.38-.2-.6-1.29-.03-1.93.8-2.52,1.68.67.58,1.72,1.05,3.16,1.13-.02.14-.04.28-.05.43.48.28.14-.47.48-.37-.25.96.64,1.03.79,1.68-.48,1.28-.07,4.04.3,5.5-.37.07-.38.61-.43,1.1.66,1.81.48,4.3,1.06,6.17-.05,1.02-.24,2.14.22,2.75-.22,1.03.03,1.68-.21,2.71.62.82.03,1.85.2,2.9-.56.7-1.37,1.06-2.08,1.6.81,1.05,1.79-.25,2.62-.24.47-1.92,2.57-.87,3.65-1.54.74-.46,1.54-.76,1.53-1.81-.39-.13-1.23.09-.93-.55-.59.32-.2-.07-.99-.13-.97-3.15-.38-6.99-1.23-9.37.33-.01.26-.54.51-.65.93.1,1.4.54,1.57,1.21,1.25-.23,1.77,1.6,3.14,1.27.14-1.24-.22-2.04.51-2.8-1.04-.57.27-1.97.47-2.53,1.55.09,1.11,1.69,2.65,1.78.48,1.37,2,1.94,2.45,3.33,1.17.5,2.28,1.72,2.07,2.86-.1-.8-.37.55-.85-.11-.32.47-.48,1.14-.54,1.93,1.45.35,1.6-.99,2.36-1.55-.24-.09-.39.16-.43-.06.02-.32.52,0,.73-.05.51-.95,1.59-1.12,2.26-1.86-.32-.25-.37-.74-.58-1.08-1.92-.46-2.47-2-4.27-2.56-.39-1.7-2.4-2.15-2.81-3.82Z"/>
      <path class="cls-6" d="M215.48,150.74c1.8.56,2.35,2.1,4.27,2.56.21.35.26.83.58,1.08-.67.74-1.75.91-2.26,1.86-.21.05-.71-.26-.73.05.04.22.19-.03.43.06-.76.55-.91,1.9-2.36,1.55.06-.79.23-1.47.54-1.93.47.66.74-.69.85.11.2-1.13-.9-2.36-2.07-2.86-.45-1.39-1.97-1.96-2.45-3.33-1.53-.09-1.09-1.69-2.65-1.78-.2.56-1.5,1.97-.47,2.53-.73.76-.37,1.56-.51,2.8-1.36.34-1.89-1.5-3.14-1.27-.17-.67-.64-1.12-1.57-1.21-.25.11-.19.64-.51.65.85,2.38.26,6.21,1.23,9.37.79.06.4.44.99.13-.3.64.54.42.93.55.01,1.05-.79,1.35-1.53,1.81-1.08.67-3.18-.39-3.65,1.54-.83,0-1.81,1.29-2.62.24.7-.54,1.52-.9,2.08-1.6-.17-1.05.42-2.08-.2-2.9.25-1.03-.01-1.69.21-2.71-.46-.61-.27-1.74-.22-2.75-.58-1.87-.41-4.36-1.06-6.17.04-.49.06-1.03.43-1.1-.36-1.46-.78-4.22-.3-5.5-.15-.65-1.04-.72-.79-1.68-.33-.1,0,.65-.48.37.02-.15.04-.28.05-.43-1.44-.08-2.48-.55-3.16-1.13.59-.88,1.23-1.71,2.52-1.68.04.22.43.17.2.6.34.05.46-.2.88-.04.39-.75.93-1.31,1.28-2.12.98-.11,2.07-.08,2.67-.66.33-.04.17.29.39.34.24-.16.5-.52.75-.19.77-.54.98-1.82,1.99-2.04-.33,1.37-.71,2.01-.86,3.33.68.68.55,1.43,1.15,2.3.16-.26.51-.21.14.02-.22.77.65.69.54,1.37.16.04.25,0,.29-.1.69,1.13,1.5,2.16,2.64,2.92.5,1.41,1.5,2.41,2.75,3.24.41,1.67,2.43,2.11,2.81,3.82ZM202.33,144.58c.81,1.79-.27,5.13,2.4,4.77.07-.27-.12-.33-.06-.58,1.42-.25,1.79-1.86,3.52-1.7-.59-2.14-2.51-3.24-3.19-5.3-1.05-.38-1.32-1.37-2.68-1.5-.24,1.2.48,2.55.02,4.32Z"/>
      <path class="cls-3" d="M187.34,144.94c.85-.45,1.28,1.41,2.38,1.61.42,1.48.1,2.98,0,4.45-.47-.05-.75.15-1.29-.02-.98-1.37-4.68-3-5.41-.41,0,.24.2.35.53.36,1.92,5.3,3.61,10.78,5.85,15.85,2.43,1.1,2.92-1.25,5.14-.92,0,.72.42,1.12.82,1.53-.75,2.45-2.36,4.65-4.49,4.74.07.16.31.19.23.47-1.75-.46-2.41.5-3.68.67.45,1.11-1.16.88-1.25,1.84-2.14.82-5.9.27-5.56-2.57,1.8.05,2.13-1.44,2.28-3.16-1.23-2.79-2.19-5.78-3.82-8.25-.41-1.56-.83-3.1-1.91-4.13-.05-1.28-.54-2.21-1.2-3.03-1.15,1.13-2.35,1.77-2.38,4.01-.61.25-1.03.75-1.09,1.73-.62-.21-.53.51-1.06.44.03.24.42.18.21.6-.52-.29-.14-.24-.71-.09-1.64-2.44.51-7.03-3.82-7.11-.29-1.72-1.22-4.56.1-6.31,1.4.93,3.26,1.47,4.57,2.46.43.1.35-.42.52-.65.88-.11,1.44-.66,1.89-1.34,2.25-1.21,4.3-2.66,6.54-3.89,1.04.09,1.34.01,2.56.18.12,0,.16-.11.3-.1.09-1.59.6-2.64,1.31-3.43,2.26-.19,1.51,2.54,2.97,2.54-.48.47.01.83-.54,1.95ZM181.74,144.95c-1.06.76-2.63.88-3.42,2-2.36.95-4.11,2.7-6.26,3.93-1.56-.33-2.64-1.02-3.82-1.64-.24.17-.22.71-.29,1.11.71.06.39.89.39,1.48.96.2.98,1.12,1.35,1.76.95.2,1.65.59,1.35,1.75.39.09.57.33.47.79.38.17.39-.15.73-.05.8-1.81,1.57-3.68,3.28-4.31.88-1.82,3.49.27,2.92,1.97.15.04.4.02.4.18,1.53,5.65,3.58,10.89,5.52,16.24.05-.16.09-.33.32-.24-.17,1.03.05.97-.12,2-.64-.18-.84.23-.83.9-.6-.28-1.06.6-1.56.94.38-.04.5.12.38.48,3.26.93,3.98-1.43,5.77-2.42.04-.28.07-.56.11-.85,1.03-.04,2-.16,2.92-.34.01-.71.95-1.08,1.26-.85-.13.57-.84.36-.98.89.78-.15,2.11-1.62,1.54-1.95.25-.25.65-1.15.35-1.54-1.02.83-5.31,2.38-5.26-.39-1.53-1.15-1.34-3.63-2.83-4.81.24.03.47.06.71.09.04-.57-.67-.55-.78-.67.16-.12.32-.25.48-.37-.8.12-.08-.61-.35-.62.07.24-.7.14-.57-.07,1.13-.12-.03-1.3.1-1.86-.27-.08-.31.15-.45.23.05-.44.11-.85.16-1.28-.75.03-.46-.75-.41-1.34-.6-.85-1.16-1.73-1.18-3.03-.43-.04-1.1-1.07-1.07-1.72,0-.04.34.05.3-.11,0-.01-.34-.24-.39-.34-.48-1.15-.3-2.73,1.29-2.13.03-.44.1-.86.41-.95,2.68-.1,3.39.84,5.23,1.82-.17-1.77-.52-3.43-2.53-3.77-.5-1.03.03-2.83-.84-3.55-.02.48-.4,1.85.14,1.16-.21.24-.14.82-.41.95,0-.25.24-.69-.21-.6-.03.68-.76.44-.61,1.36-.75-.3-.67.36-.78.47-.15-.02-.29-.04-.43-.05,1-.85-.42-.34-1.5-.61Z"/>
      <path class="cls-6" d="M183.24,145.56c.14.01.28.03.43.05.1-.11.03-.77.78-.47-.16-.92.58-.68.61-1.36.45-.09.21.34.21.6.27-.14.2-.72.41-.95-.54.69-.16-.68-.14-1.16.86.73.34,2.53.84,3.55,2.01.34,2.36,2,2.53,3.77-1.84-.98-2.55-1.92-5.23-1.82-.31.1-.38.51-.41.95-1.58-.6-1.76.98-1.29,2.13.05.1.38.32.39.34.04.16-.3.07-.3.11-.03.65.65,1.68,1.07,1.72.02,1.29.58,2.17,1.18,3.03-.05.59-.34,1.37.41,1.34-.05.43-.11.84-.16,1.28.15-.08.18-.3.45-.23-.13.56,1.03,1.74-.1,1.86-.13.21.64.31.57.07.27,0-.45.74.35.62-.16.12-.32.25-.48.37.11.12.82.1.78.67-.24-.03-.47-.06-.71-.09,1.49,1.18,1.3,3.66,2.83,4.81-.05,2.77,4.25,1.23,5.26.39.3.39-.1,1.29-.35,1.54.57.34-.76,1.81-1.54,1.95.14-.53.85-.32.98-.89-.31-.23-1.25.14-1.26.85-.92.18-1.89.3-2.92.34-.04.29-.07.57-.11.85-1.79.98-2.51,3.35-5.77,2.42.12-.36,0-.52-.38-.48.5-.34.96-1.23,1.56-.94,0-.67.19-1.08.83-.9.17-1.03-.05-.97.12-2-.23-.09-.28.08-.32.24-1.94-5.35-3.99-10.59-5.52-16.24,0-.16-.25-.14-.4-.18.57-1.7-2.04-3.78-2.92-1.97-1.71.64-2.48,2.5-3.28,4.31-.33-.09-.34.22-.73.05.1-.45-.08-.7-.47-.79.3-1.16-.4-1.56-1.35-1.75-.37-.64-.4-1.56-1.35-1.76,0-.59.32-1.43-.39-1.48.07-.4.05-.93.29-1.11,1.18.62,2.26,1.31,3.82,1.64,2.14-1.23,3.89-2.97,6.26-3.93.79-1.12,2.36-1.23,3.42-2,1.07.27,2.49-.24,1.5.61Z"/>
      <path class="cls-6" d="M303.21,107.9c-.12.7-.69.85-1.15,1.14-.87,4.25-1.08,8.1-1.64,12.71-.12.31.24.25.22.47-.53,4.11-1.4,8.45,1.44,9.95-.37,2.39-2.67,2.26-4.15,3.21-.56-.67-.54-1.78-1.44-2.2-.95.7-2.26.93-3.35,1.44-.32-.3-.92-.39-.88-.97.32-.54.71-.96,1.29-1.12-.07.44-.11.84.16,1.02.5-.24,0-.74-.01-1,.54.03.37-.85.96-.75,1.84-8.61,1.36-16.79,1.18-23.56.79.25,1.43-.64,2.08-.6.45.05.8.66,1.2.74,1.36.25,2.53-1.13,4.08-.47Z"/>
      <path class="cls-3" d="M202.31,140.26c1.37.14,1.63,1.13,2.68,1.5.68,2.06,2.6,3.17,3.19,5.3-1.73-.17-2.1,1.45-3.52,1.7-.05.25.14.31.06.58-2.67.36-1.59-2.98-2.4-4.77.46-1.77-.26-3.12-.02-4.32ZM203.88,142.62c0,1.77.12,2.43.46,4.23.79.03,1.2-.44,1.93-.47.18-.98-.44-1.36-.92-1.84-.33-.76-1.1-1.86-1.75-1.96.1.01.19.03.28.04Z"/>
    </g>
  </g>
  <g>
    <polygon class="cls-7" points="84.33 150.87 31.96 227.52 34.58 230.82 134.46 227.34 98.58 161.44 87.9 148.97 84.33 150.87"/>
    <path class="cls-3" d="M116.39,188.23c3.51.51,2.58,5.9,6.25,6.23.1,3.85,2.07,5.65,4.51,6.9-.28,4.06,2.02,5.29,4.46,6.32.28,1-.4,1.13-1.12,1.25.83.81,2.79,1.35,1.33,2.9.46-.34.95-.66,1.75-.68.27,1.19-.03,1.86-1.1,1.84,1.18,1.5,4.6,4.74,2.67,5.81.6,1.01,1.93,1.21,3.61,1.01.33,4.86,3,7.12,2.99,12.34-.57-.34-2.24-1.28-1.74.68-1.07-1.12-4.14-.02-4.28-2.17-1.31,2.35-4.07-1.55-7.05,1.54-1.8.3-1.33-1.87-1.94-2.88-1.7.59.85,1.45.15,2.96-.46-.38-2-2.41-1.77.09-8.28-.58-20.59-.62-27.92.19-.03-.59-.07-1.18-.09-1.77-2.68,1.57-5.81,1.88-8.31.4-1.61,2.32-12.63,2.38-16.01.8-6.52,3.76-21.02.22-24.17,4.16-5.11-2.87-13.92.38-20.31-1.96-.61-1.86.39-2.28,1.04-3.03-2.39-.09-1-.46-1.38-4.09,2.76-.89,3.9-3.25,3.84-6.72,2.74.42,1.19-3.06,4.02-2.59-.51-1.8-.47-1.11-.15-2.96,4.03.46,1.59-4.98,5.09-5-.41-.58-1.39-.55-1.27-1.73,2.38.66,1.11-2,3.5-1.36-.05-.99-.1-1.98-.15-2.96.51-.48,1.31-.7,2.34-.7,3.48-8.95,9.99-15.13,13.69-23.86,2.05-.03,2.69-1.33,2.19-3.67,1.74.07,1.75-1.44,3.51-1.37,1.44-7.95,9.01-10.35,10.39-18.35,6.51-1.46,4.95-10.23,11.3-11.85-.41-.58-1.39-.55-1.28-1.72,1.96-.12,2.9-1.16,5.32-.86,2.66,1.88-.7,3.07,3.1,2.82-2.45,2.68.76,10.53,3.43,9.33.89.15.16,4.49,3.17,4.01-.32,1.83.73,2.13.78,3.52,7.64,6.37,9.1,19.57,16.74,25.92.26,1-.41,1.15-1.13,1.25ZM81.73,160.81c-1.87.82-.53-1.9-2.43-1.07-.9.3-.4,1.9-2.29,1.31-.73,3.12-1.47,6.22-4.4,7.36-.71,3.27,1.67,3.15,2.61,4.62-4.12,3.02-4.14,12.69-11.43,9.47.67,1.77,2.84,1.86,3.17,4.01-1.56.81-2.72,1.12-3.5,1.36,2.53,2.06-.66,1.55-1.64,3.06-2.53,3.93-3.9,10.12-8.35,11.11-.16,2.87-1.21,4.96-3.9,5.53,1.5,3.08-.87.43-1.71,1.87,3.82.72-2.44,2.61.22,4.16-4.22.89-3.19,6.54-6.12,8.62-.38-1.02.55-3.52-.76-3.53,0,.93.19,2.05-1.1,1.84-.63,1.95,1.94.36,1.31,2.31-2.46.6-2.01,3.85-3.29,5.52,6.18-1.37,16.23-1.47,23.13-1.15.1-.46-.04-1.17.53-1.21,23.01,2.1,41.35-1.48,69.44-2.24-1.29-6.24-6.79-9.22-8.95-12.64-.72-5.27-5.7-5.8-5.92-11.59-2.66.4-2.28-2.11-1.96-3.46-2.36.06-4.5-3.78-2.6-4.63-1.85,1.01-1.99-.34-3.62-1.01-4.28-12.94-14.51-22.09-19.43-32.32.02.6-1.01.79-1.19.05.72-.09,1.39-.24,1.13-1.25-1.65.58-1.58-.76-3-.44-2.87,4-4.15,9.45-8.94,11.73,1.25,2.04-.44,2.89-1.57,4.25-.71-2.35-.14-4.62.87-6.59.98-.03.4,1.63,1.27,1.73.13-2.55,2.17-7.4,3.91-4.95-.06-.82.21-1.31.49-1.8Z"/>
  </g>
  <text class="cls-8" transform="translate(62.73 220.78)"><tspan x="0" y="0">30</tspan></text>
</svg>