<?xml version="1.0" encoding="UTF-8"?>
<svg id="Layer_1" xmlns="http://www.w3.org/2000/svg" viewBox="0 0 400 400">
  <defs>
    <style>
      .cls-1 {
        fill: #f15d24;
      }

      .cls-2, .cls-3 {
        fill-rule: evenodd;
      }

      .cls-4 {
        font-family: AmericanTypewriter-CondensedBold, 'American Typewriter';
        font-size: 44px;
        font-weight: 700;
      }

      .cls-4, .cls-5 {
        fill: #fff;
      }

      .cls-6 {
        fill: #0e5455;
      }

      .cls-3 {
        fill: #1bb24b;
      }
    </style>
  </defs>
  <g>
    <polygon class="cls-3" points="87.95 148.56 35.58 225.21 38.2 228.51 138.08 225.04 102.2 159.13 91.53 146.66 87.95 148.56"/>
    <path class="cls-2" d="M120.01,185.92c3.51.51,2.58,5.9,6.25,6.23.1,3.85,2.07,5.65,4.51,6.9-.28,4.06,2.02,5.28,4.46,6.32.28,1-.4,1.13-1.12,1.25.83.81,2.79,1.35,1.33,2.9.46-.34.95-.66,1.75-.68.28,1.19-.03,1.86-1.1,1.84,1.18,1.5,4.6,4.74,2.67,5.81.6,1.01,1.93,1.21,3.61,1.01.33,4.86,3,7.12,2.99,12.34-.57-.34-2.24-1.28-1.74.68-1.07-1.12-4.14-.02-4.28-2.17-1.31,2.35-4.07-1.55-7.05,1.54-1.8.3-1.33-1.87-1.94-2.88-1.7.59.85,1.45.15,2.97-.46-.38-2-2.41-1.77.09-8.28-.58-20.59-.62-27.92.19-.03-.59-.07-1.18-.09-1.77-2.68,1.57-5.81,1.88-8.31.4-1.61,2.32-12.63,2.38-16.01.8-6.52,3.76-21.02.22-24.17,4.16-5.11-2.87-13.92.38-20.31-1.96-.61-1.87.39-2.28,1.04-3.03-2.39-.09-1-.46-1.38-4.09,2.76-.89,3.9-3.25,3.84-6.72,2.74.42,1.19-3.06,4.02-2.59-.51-1.8-.47-1.11-.15-2.96,4.03.46,1.59-4.98,5.09-5-.41-.58-1.39-.55-1.27-1.73,2.38.66,1.11-2,3.5-1.36-.05-.99-.1-1.98-.15-2.97.51-.48,1.31-.7,2.34-.7,3.48-8.95,9.99-15.13,13.69-23.86,2.05-.03,2.69-1.33,2.19-3.67,1.74.07,1.75-1.44,3.51-1.37,1.44-7.95,9.01-10.35,10.39-18.35,6.51-1.46,4.95-10.24,11.3-11.85-.41-.58-1.39-.55-1.28-1.72,1.95-.12,2.9-1.16,5.32-.86,2.66,1.88-.7,3.07,3.1,2.82-2.45,2.68.76,10.53,3.43,9.33.88.15.16,4.49,3.17,4.01-.32,1.83.73,2.13.78,3.52,7.64,6.37,9.1,19.57,16.74,25.92.26,1-.41,1.15-1.13,1.25ZM85.35,158.5c-1.87.83-.53-1.9-2.43-1.07-.9.3-.4,1.9-2.29,1.31-.73,3.12-1.47,6.22-4.4,7.36-.71,3.27,1.67,3.15,2.61,4.62-4.12,3.02-4.14,12.69-11.43,9.47.67,1.77,2.84,1.86,3.17,4.01-1.56.81-2.72,1.12-3.5,1.36,2.53,2.06-.66,1.55-1.64,3.06-2.53,3.93-3.9,10.12-8.35,11.11-.16,2.87-1.21,4.96-3.9,5.53,1.5,3.08-.87.43-1.71,1.87,3.82.72-2.44,2.61.22,4.16-4.22.88-3.19,6.54-6.12,8.62-.38-1.02.55-3.52-.76-3.53,0,.93.19,2.05-1.1,1.84-.63,1.95,1.94.36,1.31,2.31-2.46.6-2.01,3.85-3.29,5.52,6.18-1.37,16.23-1.47,23.13-1.15.1-.46-.04-1.17.53-1.21,23.01,2.1,41.35-1.48,69.44-2.24-1.29-6.24-6.79-9.22-8.95-12.64-.72-5.27-5.7-5.8-5.92-11.59-2.66.4-2.28-2.11-1.96-3.46-2.36.06-4.5-3.78-2.6-4.63-1.85,1.01-1.99-.34-3.62-1.01-4.28-12.94-14.51-22.09-19.43-32.32.02.6-1.01.79-1.19.05.72-.09,1.39-.24,1.13-1.25-1.65.58-1.58-.76-3-.44-2.87,4-4.15,9.45-8.94,11.73,1.25,2.04-.44,2.89-1.57,4.25-.71-2.35-.14-4.62.87-6.59.98-.03.4,1.63,1.27,1.73.13-2.55,2.17-7.4,3.91-4.95-.06-.82.21-1.31.49-1.8Z"/>
  </g>
  <text class="cls-4" transform="translate(65.24 216.13)"><tspan x="0" y="0">33</tspan></text>
  <g>
    <path class="cls-6" d="M320.43,207.17c.61.12,1.36.32,2.12.39,2.45.23,4.16,1.58,5.51,3.52.1.14.19.3.3.42,2.34,2.63,3.32,5.32,1.21,8.7-1.03,1.65-1.36,3.74-2.04,5.62-.47,1.3-1.28,2.06-2.79,2.35-4.68.9-9.31,2.08-13.98,3.01-.94.19-2.03-.1-3-.36-4.68-1.25-3.07-1.67-7.05,1.08-.43.3-.84.61-1.26.93-.8.61-1.65.7-2.34-.07-2.24-2.49-5.04-2.86-8.23-2.69-2.3.12-4.64-.44-6.96-.75-.38-.05-.81-.33-1.05-.63-2.74-3.39-5.86-6.4-9.22-9.16-1.12-.92-1.52-2.12-1.84-3.57-.6-2.78-1.64-5.47-2.6-8.16-.17-.48-.78-.87-1.28-1.14-3.01-1.64-5.01-4.06-5.5-7.48-.37-2.64-1.76-4.62-3.43-6.56-1.93-2.23-3.68-4.62-5.53-6.92-1.36-1.69-2.74-3.35-4.33-5.28-3.79,1.32-7.54,2.59-11.25,3.94-2.95,1.07-3.8,3.54-4,6.37-.06.87-.1,1.75,0,2.61.38,3.4.06,6.75-.68,10.18.59.48,1.27.89,1.77,1.46.9,1.03,1.87,2.06,2.47,3.26.79,1.6,1.64,2.74,3.62,2.87,1.37.09,2.72.56,4.05.94,1.54.44,2.59,1.41,2.79,3.08.14,1.12.34,2.24.3,3.36-.09,2.85-1.73,4.7-4.51,5.56-1.9.59-3.71,1.46-5.59,2.1-.77.26-1.76.55-2.45.29-3.25-1.2-6.32-1.09-9.66-.06-2.24.69-4.82.38-7.25.39-4,.02-8-.03-12-.12-3.84-.09-7.31-1.66-10.58-3.37-2.88-1.5-3.89-4.54-4.14-7.72-.09-1.12-.25-2.32.03-3.38,1.13-4.26-1.28-7.52-2.98-10.96-2-4.05-4.13-8.03-6.21-12.04-.76-1.46-.27-2.86.15-4.29.77-2.66,1.9-5.31,2.13-8.03.33-3.78-.01-7.62-.1-11.43-.06-2.34-.3-4.69-.27-7.03.05-3.06.64-6.03,1.95-8.84.43-.93.73-1.98.83-3,.63-6.66,1.19-13.32,1.75-19.98.04-.5-.05-1.04-.21-1.52-.78-2.33-.03-4.15,1.66-5.81,4.58-4.51,9.1-9.09,13.63-13.65.43-.43.84-.9,1.14-1.42.87-1.48,2.16-2.2,3.84-2.31,1.81-.12,3.32-.87,4.65-2.09,2.94-2.7,5.94-5.33,8.85-8.06,2.4-2.25,4.71-4.61,7.06-6.91.19-.18.35-.44.57-.52,3.87-1.5,6.9-4.7,11.18-5.4,1.16-.19,2.31-.79,3.34-1.39,1.12-.65,2.11-.61,3.18-.02,1.67.93,3.42,1.73,5,2.79,2.98,2,6.28,2.63,9.69,2.15,2.33-.33,4.39-.08,6.61.6,6.88,2.13,13.81,4.09,20.45,6.94,1.75.75,3.45,1.65,5.22,2.35,1.85.73,3.72,1.57,5.66,1.88,2.55.42,3.98,1.89,5,4.03.26.55.48,1.12.73,1.67.67,1.44,1.8,2.13,3.35,2.58,2.48.73,4.85,1.8,7.27,2.72.94.36,1.31,1.1,1.28,2.05-.03,1.13.07,2.29-.18,3.37-.39,1.68.02,3,1.03,4.33,1.15,1.52,2.02,3.25,3.21,4.74,2.39,2.99,3.01,6.51,3.66,10.13,1.22,6.84,2.68,13.64,4.18,20.42.25,1.15.27,1.98-.48,2.85-2.05,2.39-3.08,5.23-3.36,8.32-.15,1.64-.97,2.72-2.31,3.54-1.26.77-2.43,1.68-3.73,2.39-1.32.72-1.82,1.73-1.67,3.19.09.94.02,1.89.02,3.04-1.31.45-2.49.86-3.91,1.35.53,1.38.97,2.67,1.51,3.92.77,1.82,1.64,3.61,2.41,5.44.54,1.28.86,2.67,1.51,3.88,1.67,3.09,2.03,6.42,2.07,9.83.04,2.94,0,5.88,0,9.18ZM308.42,166.71c-1.37-.28-2.31-.43-3.23-.66-2.44-.59-4.98-.92-7.09-2.44-.63-.45-1.28-.93-1.73-1.55-.81-1.11-.57-2.31.11-3.42.42-.68.93-1.34,1.94-.51v2.43c5.8,2.14,11.71,2.1,17.59,1.73,3.97-.25,5.96-3,5.72-7.07-4.3.37-8.9-2.83-8.81-6.01,1.86,0,3.81.35,5.55-.1,1.76-.45,3.33-1.68,5.18-2.68-2.21-3.4-4.16-6.58-6.33-9.59-.69-.96-.85-1.79-.76-2.86.14-1.61.18-3.23.26-4.72-2.84-1.12-4.15.33-5.15,2.53-1.84-.59-3.55-1.14-5.23-1.67-1.4,1.23-2.64,2.46-4.03,3.48-1.77,1.31-3.84.82-4.94-.98-.54-.89-.84-1.9-.04-2.62.46-.41,1.39-.36,2.12-.39.41-.01.82.27,1.23.39,1.18.33,2.04.04,2.36-1.23-1.57-2.02-3.54-2.53-5.65-1.3-1.34.78-2.55,1.79-3.83,2.7-.53.38-1.07.75-1.63,1.13-1.13-1.95-1.31-4.07-.18-5.24,2.74-2.84,5.86-4.87,10.15-3.98,2.36.49,4.45,1.46,6.38,2.82.99.7,1.71.7,2.24-.47-1.2-2.63-2.32-5.26-3.59-7.82-1.23-2.48-2.63-4.88-3.92-7.33-.47-.9-1.18-1.26-2.13-1.06-3.69.79-7.16-1.16-10.81-.85-.15.01-.31-.16-.47-.2-3.61-.97-7.23-1.94-11.15-2.99.85,1.36,1.52,2.43,2.16,3.45-2.93,2.31-5.7,4.5-8.48,6.69-.46-.29-.85-.48-1.19-.75-2.13-1.67-2.12-1.8-1.03-4.26.27-.62.26-1.36.41-2.26-3.27,1.21-3.32,1.21-3.26,3.9.04,1.53.28,3.06.45,4.71-1.44.65-2.94,1.29-4.41,1.99-2.21,1.06-2.5,1-3.73-1.04-1.69-2.78-2.54-5.84-3.31-8.98-.43-1.75-.15-2.9,1.21-4.11,1.51-1.35,2.89-2.9,3.76-5.07-1.94,0-3.66.19-5.32-.03-5.42-.73-10.25-3.17-15.07-5.57-.94-.47-1.73-.92-2.9-.5-3.59,1.28-7.23,2.44-10.87,3.58-1.81.57-3.66.98-5.71,1.52-1.24,2.38-2.46,5.08-4,7.58-3.32,5.4-6.79,10.71-10.25,16.02-4.22,6.48-8.32,13.05-12.82,19.33-3.21,4.48-5.76,9.07-6.18,14.65-.03.43-.18.86-.19,1.29-.04,1.63-.32,3.31,0,4.87.76,3.83,1.72,7.62,2.73,11.4.54,2,.62,3.89-.14,5.85-.53,1.37-1,2.8-1.28,4.24-.98,5.07-1.58,10.11.81,15.04.56,1.15,1.13,1.81,2.46,1.84,4.75.11,9.5.24,14.28-.98-.8-3.7-1.64-7.33-2.37-10.99-.55-2.75-.68-5.44.73-8.1,2.31-4.37,4.37-8.88,6.65-13.27.68-1.31.68-2.43.07-3.7-1.42-2.94-3.41-5.47-5.83-7.6-1.43-1.26-1.65-2.55-1.06-4.16.33-.9.72-1.77,1.14-2.63,2.21-4.5,5.32-8.36,8.72-11.97,1.44-1.52,3.02-3.04,5.08-3.95.84,1.04.44,1.93.04,2.78-1.25,2.68-2.56,5.32-3.79,8-1.17,2.52-2.38,5.03-3.35,7.63-.32.86-.29,2.15.15,2.92.68,1.21,1.85,2.14,3.04,3.44,1.64-3.58,3.32-6.65,4.48-9.9,1.61-4.53,3.72-8.75,6.67-12.77,4.91,1.09,9.99,1.52,15.11,1.53.52,0,1.04.1,1.55.19,3.11.5,5.96.2,8.48-2.05,1.54-1.38,3.37-2.45,5.09-3.63,2.58-1.75,6.7-1.35,9.04.72-.44,1.76-.86,3.42-1.26,5.09-1.11,4.66-.63,9.32-.1,14,.18,1.57.68,2.83,1.71,3.94,5.49,5.94,12.08,10.23,19.87,12.32,5.92,1.59,11.99,2.61,17.93,3.88,1.28-1.17,2.42-2.21,3.94-3.6ZM233.38,138.21c.05.76.07,1.18.11,1.59.28,3.01.56,6.03.85,9.04.07.69.14,1.38.25,2.06.94,6.08,1.92,12.16,2.8,18.26.15,1.07.6,1.66,1.47,2.24,1.57,1.06,3.1,2.22,4.49,3.5.99.91,1.8,1.29,3.21.89,2.82-.8,5.66-1.79,8.67-1.4,4.55.6,9.1,1.2,13.64,1.92,5.12.81,10.23,1.75,15.46,2.65.6-.84,1.19-1.65,2-2.78-2.77-1.03-5.19-2.21-7.76-2.85-6.23-1.54-12.36-3.34-18.39-5.57-4.38-1.62-7.64-4.18-9.7-8.44-2.11-4.36-4.51-8.58-6.75-12.88-1.08-2.08-2.05-4.22-3.19-6.26-.33-.6-1.03-1.26-1.65-1.38-1.75-.33-3.56-.4-5.51-.59ZM323.33,213.07c0-1.49-.82-1.64-1.75-1.71-1.38-.11-2.77-.23-4.14-.4-1.12-.13-1.59-.65-1.49-1.93.34-4.4.54-8.8.77-13.21.02-.32-.11-.69-.28-.97-1.35-2.2-2.73-4.38-4.39-7.03-.28,1.76-.56,3.01-.67,4.28-.16,1.84-.94,3.17-2.5,4.25-5.27,3.68-10.33,7.68-15.73,11.14-2.72,1.75-4.62,3.7-5.52,6.8-.87,2.97-1.99,5.86-3.02,8.83,3.12,1.88,5.98,3.45,9.39,1.43.22-.13.49-.19.74-.23,2.11-.37,3.36-1.5,3.8-3.69.5-2.47,1.75-4.45,4.34-5.34.97-.34,1.9-.88,2.73-1.5,2.33-1.72,4.85-1.88,7.64-1.5,3.33.45,6.71.53,10.08.77ZM301.86,173.94c-2.12-.7-4.19-1.59-6.36-2.06-5.29-1.13-10.37-2.82-15.27-5.08-4.02-1.85-7.98-3.83-11.97-5.73-3.21-1.52-5.24-4-5.83-7.5-.6-3.58-1.04-7.2-1.51-10.8-.21-1.6-.31-3.21-.49-5.05-4.9.23-9.54.44-14.22.66-.47,1.71.04,3.05.73,4.38.56,1.07,1.19,2.13,1.55,3.28,1.95,6.11,5.07,11.6,8.9,16.7.6.79,1.44,1.59,2.34,1.94,5.1,1.95,10.21,3.88,15.39,5.58,5.35,1.76,10.86,3.04,16.14,4.95,3.81,1.38,7.08.22,10.59-1.27ZM233.84,87c.16.14.21.23.26.23.43.02.87.08,1.3.04,3.46-.36,6.5.69,9.33,2.61,2.01,1.37,4.07,2.66,6.1,4,1.66,1.1,3.43,1.44,5.43,1.3,4.5-.31,9.02-.36,13.53-.65,4.58-.29,8.5,1.24,12.17,3.82,2.77,1.94,5.62,3.78,8.51,5.55.93.57,2.07.9,3.16,1.1,2.21.42,4.45.88,6.69.95,3.22.1,5.02,1.92,6.48,4.47,1.59,2.79,3.21,5.57,4.92,8.28,1.51,2.39,3.16,4.69,4.92,7.28,1.04-1.14,1.83-2.01,2.78-3.05-2.17-2.8-4.17-5.53-6.35-8.1-1.05-1.24-1.58-2.3-1-3.96.5-1.43.96-3,.09-4.77-1.57-.35-3.31-1.19-4.92-1-3.82.47-6.56-.99-8.84-3.82-.43-.54-1.01-.96-1.47-1.48-2.48-2.74-5.65-4.06-9.25-4.13-3.87-.08-7.21-1.14-10.31-3.59-2.61-2.06-5.93-3.29-9.25-2.97-3.39.32-6.56-.02-9.73-.98-4.07-1.23-8.25-2.27-11.66-4.98-1.91-1.52-3.83-1.52-5.8-.41-2.38,1.34-4.69,2.81-7.07,4.25ZM217.99,206.06c2.69-.7,4.98-1.3,7.23-1.89-.28-1.88-.77-3.51-.72-5.13.07-2.18-.59-3.91-2.14-5.35-1-.92-1.24-2-.97-3.31.63-3.06,1.06-6.17,1.86-9.18.57-2.14.18-3.78-1.08-5.55-1.61-2.24-2.9-4.71-4.34-7.07-.24-.39-.57-.72-.92-1.16-1.6,4.63-3.16,9.04-4.63,13.49-.29.87-.34,1.88-.25,2.8.44,4.75.92,9.5,1.46,14.24.12,1.01.36,2.09.87,2.94,1.07,1.77,2.37,3.4,3.63,5.17ZM212.03,204.74c-2.51.33-5.07.89-7.65.94-4.11.07-6.67,2.02-8.1,5.73-.25.65-.62,1.25-.85,1.9-1.19,3.37.83,6.47,4.39,6.6,1.64.06,3.29-.11,4.93-.3,2.69-.31,5.4-.47,8,.35,2.66.84,4.87-.11,7.16-1.18-1.13-3.18-2.17-6.2-3.28-9.19-.2-.54-.6-1.04-1.01-1.46-1.1-1.1-2.26-2.15-3.58-3.39ZM210.75,108.01c-4.08-.04-7,.96-8.91,4.09-.44.73-1.13,1.31-1.72,1.95-2.72,2.92-5.44,5.83-8.15,8.76-.71.76-1.33,1.51-1.24,2.73.18,2.42.19,4.85.28,7.27.03.81-.13,1.7.8,2.45,6.28-9.04,12.48-17.95,18.93-27.23ZM228.36,208.44c-2.48.31-4.93.61-7.39.92.41,2.8.77,5.28,1.14,7.82,3.08-1.83,5.94-3.54,8.86-5.28-.92-1.23-1.74-2.32-2.6-3.47ZM263.07,106.11c.47-.37.69-.51.85-.69,1.8-2,4.08-3.07,6.68-3.7,2.69-.65,5.16-.47,7.38,1.42-2.72-4.49-4.7-5.4-8.86-4.27-2.86.78-5.86,4.24-6.04,7.23ZM311.82,226.61c1.74-2.73.8-5.5.57-8.17-.03-.36-1.3-.99-1.82-.85-.9.24-1.67.99-2.46,1.5,1.32,2.67,2.49,5.03,3.72,7.52ZM236.5,223.01c.24-.04.49-.08.73-.11.8-2.66.93-5.37.59-8.14-1.91-.44-3.21.16-4.31.99,1.06,2.56,2.02,4.91,2.99,7.26ZM239.47,213.79c.75,2.32,1.43,4.41,2.11,6.54,2.05-1,2.87-2.3,2.56-3.82-.43-2.08-1.53-2.8-4.67-2.72ZM228.27,218.32c1.41,2.74,2.81,4.17,5.12,5.11-.17-1.57-.2-3-.5-4.37-.42-1.95-1.32-2.35-3.18-1.6-.46.19-.87.51-1.44.86ZM305.93,226.51c.16-.07.31-.14.47-.21,0-1.11,0-2.23,0-3.34-.02-1.42-.53-2.57-1.97-3.04-1.38-.46-2.62-.19-3.95.99,2.46,1.45,4.49,3.02,5.44,5.6ZM317.73,223.8c1.28-2.28,1.33-4.56.94-6.93h-3.61c.91,2.36,1.76,4.58,2.67,6.93ZM323.67,217.71v5.27c1.87-.66,2.61-1.47,2.54-2.8-.07-1.38-.88-2.12-2.54-2.47ZM298.76,230.19c.77-2.27,1.3-3.95,0-5.73-1,.5-1.88.93-2.87,1.43.93,1.39,1.74,2.6,2.88,4.3ZM226.34,218.79c-.6,1.68-1,2.8-1.53,4.3,1.44-.2,2.44-.34,3.8-.53-.84-1.39-1.43-2.36-2.27-3.77Z"/>
    <path class="cls-6" d="M178.48,318.55c-.71-13.03.56-25.91-.29-38.91.51-.2,1.07-.6,1.62-.6,3.72.03,7.47-.16,11.13.32,3.86.5,6.64,3.86,6.91,7.68.17,2.41.02,4.85.08,7.27.04,1.75-.56,3.03-2.82,3.69,2.74,1.28,2.87,3.39,2.82,5.62-.05,2.43.01,4.86-.02,7.29-.06,4.59-1.06,5.89-5.55,7.32-4.33,1.38-8.92,1.06-13.43.6-.22-.02-.42-.26-.44-.28ZM184.82,301.23v12.59c1.25-.09,2.27-.13,3.28-.24,1.59-.18,2.6-1.09,2.69-2.68.14-2.59.17-5.19.09-7.78-.02-.47-.74-1.21-1.25-1.32-1.51-.32-3.08-.39-4.81-.58ZM184.44,295.67c1.54-.11,2.84-.04,4.05-.34,1.49-.38,2.62-1.25,2.57-3.09-.04-1.72.08-3.45.14-5.18.05-1.35-.7-2.15-1.9-2.41-1.66-.36-3.35-.52-4.86-.11v11.14Z"/>
    <path class="cls-6" d="M260.39,276.22c.19-13.21-.45-26.01,1-38.91,5.61-.38,10.96-.37,16.23.95,2.31.58,3.79,2.02,3.82,4.62.03,2.77.3,5.56.18,8.32-.16,3.62-.75,7.17-4.66,9.09,1.98,5.45,3.9,10.7,5.89,16.2-1.8.6-3.71.57-5.52.2-.71-.14-1.48-1.16-1.77-1.95-.82-2.19-1.36-4.48-2.08-6.7-.75-2.3-1.59-4.57-2.41-6.89h-3.73c-.24,3.06-.5,6.06-.71,9.07-.08,1.12,0,2.26-.02,3.39-.04,2.38-.19,2.56-2.46,2.63-1.11.04-2.23,0-3.76,0ZM267.72,255.27c.54.04,1.04.09,1.54.1,3.82.05,5.02-.92,5.29-4.75.16-2.32-.02-4.67-.13-7-.06-1.17-.65-1.95-1.97-1.93-1.52.02-3.05,0-4.73,0v13.59Z"/>
    <path class="cls-6" d="M324.27,279.48h5.81c.43,2.85.24,5.6.14,8.34-.11,3.03-.37,6.06-.43,9.1-.08,4.17.01,8.34-.04,12.51-.02,1.56-.13,3.13-.35,4.67-.59,4.13-4.85,7.38-9,6.9-1.2-.14-2.41-.34-3.58-.66-3.01-.83-5.01-2.58-5.38-5.91-.69-6.21-1.39-12.41-1.27-18.69.09-4.43-.09-8.86-.1-13.28,0-1.1.18-2.2.3-3.46h7.19c.36,3.22.31,6.4-.03,9.58-.77,7.26-1.44,14.52-.81,21.82.08.92.29,1.83.46,2.84,2.07.17,3.63-.66,4.93-1.74.6-.5.83-1.68.87-2.57.14-2.77.12-5.56.13-8.34.02-4.43-.11-8.85.79-13.24.31-1.51.08-3.12.13-4.68.03-1.02.14-2.03.22-3.19Z"/>
    <path class="cls-6" d="M192.82,236.77c.89-.1,1.65-.24,2.41-.25,2.87-.03,5.74-.05,8.61,0,3.38.05,6.24,1.99,6.84,5.3.56,3.04.49,6.21.51,9.32,0,.75-.69,1.55-1.17,2.25-.43.62-1,1.14-1.47,1.66.1.21.11.33.17.36,2.89,1.46,3.54,4.08,3.52,6.98-.02,2.6-.12,5.21-.26,7.81-.03.57-.23,1.29-.61,1.66-2.01,1.89-3.82,4.23-6.78,4.59-3.43.41-6.91.53-10.36.74-1.06.07-1.57-.5-1.65-1.56-.14-1.82-.5-3.63-.48-5.44.13-10.78.35-21.55.54-32.33,0-.26.08-.51.19-1.09ZM198.21,271.55c2.13-.16,4.01-.29,5.89-.43.91-.07,1.42-.56,1.49-1.48.23-2.76.54-5.51.67-8.27.08-1.71-.71-2.61-2.39-2.86-1.7-.25-3.42-.37-5.13.28-.17,4.17-.34,8.23-.53,12.77ZM198.51,253.42c1.97-.13,3.52-.13,5.04-.36,1.03-.16,2.05-.63,2.06-1.96.02-2.6.02-5.2.02-7.8,0-.93-.52-1.52-1.38-1.59-1.94-.16-3.92-.9-5.74.19v11.52Z"/>
    <path class="cls-6" d="M246.68,303.38h-4.56c-.13,2.07-.32,4.04-.34,6.01-.03,2.69.11,5.39.11,8.08,0,2.04-.23,2.28-2.19,2.4-1.12.06-2.24.01-3.66.01-.08-.91-.23-1.74-.21-2.56.2-11.91.41-23.82.63-35.72.04-2.08.49-2.76,2.3-2.72,3.82.07,7.63.26,11.44.54,2.51.19,4.22,1.49,4.56,4.16.53,4.22,1.15,8.42,1.52,12.65.23,2.65-.97,4.71-3.44,5.92-.23.11-.43.29-.63.44-.06.05-.09.14-.3.47,1.96,4.95,3.98,10.07,6.03,15.24-1.63,1.33-3.38,1.38-5.09,1.25-.47-.03-1.09-.79-1.29-1.34-1.08-3.12-2.04-6.27-3.06-9.41-.58-1.8-1.2-3.59-1.82-5.43ZM242.07,297.57c1.58,0,2.71.11,3.82-.02,2.13-.25,3.02-1.19,3.26-3.34.11-.94.1-1.9.1-2.86.01-5.98-.05-6.04-5.92-6.61-.13-.01-.28.15-.48.26-.25,4.08-.51,8.19-.78,12.58Z"/>
    <path class="cls-6" d="M268.47,295.74c2.09.27,4.2.54,6.55.84.26-5.81.51-11.5.76-17.27,1.66-.63,3.29-.33,4.8.24.57.21.98,1.07,1.28,1.72.2.44.08,1.03.08,1.55,0,5.3-.06,10.6.02,15.89.09,6.17.27,12.33.46,18.49.08,2.79-.4,3.35-3.25,3.4-.95.02-1.9,0-3.14,0-.06-1.06-.17-1.97-.16-2.87.06-4.6.16-9.21.21-13.81,0-.75-.16-1.51-.26-2.48-2.75.18-5.3.34-8.14.52-.11,2.1-.25,4.14-.32,6.19-.1,3.04-.14,6.08-.21,9.12-.05,2.06-.3,2.4-2.33,2.66-1.01.13-2.05.02-3.25.02-.11-.76-.27-1.42-.28-2.08-.08-8.6-.19-17.2-.18-25.8,0-3.98.24-7.96.37-11.95,1.9-.4,3.63-.76,5.75-1.2.4,5.66-.25,11.24,1.26,16.81Z"/>
    <path class="cls-6" d="M292.9,279.47c1.86-1.06,3.87-.64,5.83-.53,1.05.06,1.35.94,1.5,1.86.62,3.77,1.37,7.52,1.86,11.31.92,7.24,2.24,14.41,4.02,21.49.52,2.08,1.01,4.16,1.55,6.36-2.33.93-4.45.5-6.84.42-.37-2.86-.73-5.66-1.11-8.6-2.19-.19-4.23-.37-6.66-.58-.72,2.06-1.48,4.14-2.19,6.25-.25.74-.39,1.51-.6,2.27-.32,1.14-1.09,1.51-2.2,1.18-1.24-.36-2.46-.75-3.95-1.2.16-1.11.24-2.12.47-3.1,1.94-8.29,3.9-16.57,5.86-24.85.74-3.13,1.51-6.24,2.21-9.38.2-.91.19-1.87.28-2.9ZM297.19,289.96c-1.17,5.05-4.15,9.61-4.33,15.25h5.4c-.36-5.14-.71-10.2-1.06-15.25Z"/>
    <path class="cls-6" d="M354.49,293.88c-1.91.06-3.27.13-4.64.14-1.31,0-1.79-.71-1.76-2.01.04-1.56.06-3.15-.19-4.68-.35-2.21-1.48-3.25-3.11-3.23-2.01.02-3.39,1.39-3.67,3.67-.56,4.59.12,5.82,4.45,7.53,2.1.83,4.23,1.53,5.96,3.1,1.35,1.22,2.37,2.56,2.28,4.47-.16,3.47-.26,6.94-.55,10.39-.18,2.06-1.4,3.46-3.38,4.23-3.92,1.52-7.8,1.46-11.68-.08-2.01-.8-2.92-2.5-3.17-4.44-.35-2.74-.42-5.52-.61-8.31,2.34-1.12,4.4-.29,6.77-.05-.28,3.14-.18,6.16,1.59,9.13.56.03,1.32.14,2.07.09,2.36-.16,2.93-.72,3.35-3.13.04-.26.11-.51.14-.77.43-3.27.26-6.21-3.27-7.92-2.02-.98-3.87-2.31-5.8-3.49-.82-.5-1.64-.97-2.44-1.49-1.35-.88-1.95-2.06-1.8-3.74.23-2.51.13-5.04.42-7.54.43-3.73,3.56-6.69,7.31-6.98,1.81-.14,3.66-.11,5.46.1,2.86.34,4.9,2.42,5.26,5.25.38,3.09.64,6.19,1,9.76Z"/>
    <path class="cls-6" d="M257.18,275.72c-.78.13-1.36.3-1.94.32-3.42.12-4-.34-4.68-3.67-.21-1.02-.43-2.04-.53-3.08-.13-1.26-.73-1.86-2.02-1.83-1.56.03-3.13.03-4.69-.02-1.03-.03-1.64.43-1.93,1.38-.64,2.15-1.34,4.28-1.87,6.46-.23.95-.61,1.41-1.56,1.27-1.27-.18-2.54-.41-4.03-.66,0-.77-.14-1.46.02-2.08,2.37-8.97,4.81-17.92,7.17-26.89.66-2.51,1.18-5.06,1.62-7.61.32-1.83.36-2.01,2.25-2.09.61-.03,1.22-.03,1.82,0,3.11.08,3.46.18,4.04,3.18.86,4.51,1.43,9.07,2.16,13.61.29,1.8.65,3.58,1.02,5.36,1.04,5.01,2.1,10.01,3.14,15.02.07.32,0,.67,0,1.34ZM243.26,261.44h5.45c-1.31-4.31-.67-8.8-2.65-12.93-.95,4.38-1.86,8.57-2.81,12.93Z"/>
    <path class="cls-6" d="M215.25,278.94c2.58,0,4.9-.06,7.21.01,2.77.09,5.54.29,8.3.43.99.05,1.41.63,1.36,1.53-.06,1.11-.22,2.22-.36,3.51-3.7.17-7.23.33-11.07.5-.42,3.56.24,6.95.3,10.47,2.06-.13,3.94-.26,5.82-.36.61-.03,1.22-.04,1.82.05,1.42.21,1.75.63,1.61,2.09-.14,1.37-.34,2.73-.53,4.19-2.95.71-6.01-.14-8.57,1.03v10c2.69,0,5.08-.05,7.46.01,2.54.07,2.88.45,2.78,2.92-.04.94-.15,1.87-.25,3.03-5.51.21-10.85.31-16.52-.6-.56-12.74-.03-25.53.63-38.82Z"/>
    <path class="cls-6" d="M215.81,236.95c5.42.82,10.71-1.42,16.55-.71-.58,1.91-1.07,3.51-1.66,5.43-1.93,0-3.82,0-5.7,0-.87,0-1.75-.03-2.6.09-.9.13-1.64.55-1.63,1.67.02,3.2,0,6.39,0,9.27,2.38,0,4.54-.04,6.7.01,1.78.05,2.14.41,2.12,2.19-.01,1.29-.19,2.58-.31,4.08-3.05.17-5.95.33-8.99.49v10.52h10.84c-.18,1.91-.34,3.53-.5,5.25-5.2.32-10.34.64-15.88.98.36-13.05.71-25.93,1.07-39.28Z"/>
    <path class="cls-6" d="M203.1,319.07c-.59-13.22-.06-26.1.35-39.24,1.91-.19,3.59-.35,5.57-.54.12,1.5.32,2.77.29,4.03-.17,9.37-.39,18.75-.58,28.12-.04,1.91-.07,3.82-.03,5.73.02,1.29-.46,1.96-1.82,1.92-1.19-.04-2.38,0-3.79,0Z"/>
    <path class="cls-1" d="M322.3,267.55c2.47.98,2.65,3.2,4.01,4.62,1.68-1.17,1.72-3.77,4.03-4.7,1.42,2.43.58,5.03,1.21,7.64-2.53-.36-1.34-2.58-2.46-3.57-.82,1.09-1.61,2.14-2.63,3.48-1.04-1.25-1.84-2.21-2.69-3.22-.38,1.08-.76,2.13-1.25,3.51-.52-.58-.93-.83-.91-1.05.17-2.12.42-4.23.68-6.71Z"/>
    <path class="cls-1" d="M334.31,275.21c-.69-2.65-.28-5.13-.22-7.89,1.04-.12,2.04-.37,3.03-.32,1.93.1,2.75,1.17,2.59,3.07-.05.56-.08,1.17.08,1.69.58,1.91.09,3.04-1.84,3.4-1.14.22-2.36.04-3.64.04ZM338.18,268.63c-.91.27-1.52.4-2.08.66-.07.03.05.95.26,1.03.92.37,1.62.14,1.82-1.69ZM336.15,272.6c.74,1.36,1.46,1.42,2.36,0h-2.36Z"/>
    <path class="cls-1" d="M284.82,256.39c1.96-1.26,3.53-1.24,4.89,0,1.12,1.02.65,2.19-.13,3.23,1.62,1.83,1.86,2.68,1.05,3.76-.91,1.22-3.59,1.89-4.98,1.11-.41-.23-.77-.92-.79-1.41-.08-2.23-.04-4.46-.04-6.7ZM286.67,263.13c1.29.07,2.19.04,2.71-1.4-.91-.31-1.71-.58-2.71-.92v2.31ZM288.71,257.99c-.04-.2-.08-.4-.12-.59-.57-.04-1.23-.26-1.68-.05-.27.12-.21.94-.41,2.01,1.07-.66,1.64-1.01,2.21-1.37Z"/>
    <path class="cls-1" d="M301.23,248.8c-.01,3-1.62,4.81-4.29,4.82-2.57.01-4.28-1.54-4.29-3.89,0-2.77,1.68-4.86,3.95-4.87,3.2-.02,4.64,1.21,4.63,3.94ZM299.27,247.11c-1.51-.22-2.95-1.59-4.26.25-.87,1.22-.98,3.03-.21,3.84.63.67,2.39.91,3.41.46,1.3-.57,1.58-1.64,1.07-4.55Z"/>
    <path class="cls-1" d="M334.04,248.07c-.07,2.75-2.6,5.18-5.26,5.04-2.02-.11-3.58-2-3.58-4.36,0-2.9,1.77-4.32,5.26-4.23,2.16.06,3.62,1.51,3.58,3.55ZM329.77,246.06c-1.8-.05-2.85.88-2.9,2.57-.05,1.59.79,2.74,2.06,2.81,1.64.09,3.37-1.49,3.5-3.21.1-1.27-.95-2.12-2.65-2.17Z"/>
    <path class="cls-1" d="M315.27,245.5c3.38.07,3.62,3.9,6.15,4.79,1.03-1.83-.47-4.08,1.17-5.71,1.13,1.42,1.2,6.48.08,8.75-2.36-1.01-3.91-2.94-5.84-5.45-.04,1.68,0,2.75-.12,3.8-.05.4-.49.76-.75,1.14-.3-.34-.84-.69-.85-1.03-.02-2.06.09-4.11.16-6.29Z"/>
    <path class="cls-1" d="M332.59,264.32q-1.04-.87-1.43-3.18c-1.18.12-2.36.24-3.66.38-.06.93-.06,1.78-.19,2.61-.04.23-.47.54-.73.54-.26,0-.64-.27-.75-.52-.41-.92-.05-7.53.41-8.58q.85.87,1.09,3.86h4c.25-1.23.48-2.35.77-3.79,1.25,1.97,1.37,5.14.49,8.68Z"/>
    <path class="cls-1" d="M298.63,275.17c-2.55-.02-4.46-1.6-4.5-3.72-.03-2.26,2.46-4.55,4.86-4.47,2.3.08,3.96,1.91,3.9,4.31-.06,2.37-1.75,3.9-4.26,3.88ZM298.5,273.59c1.64.05,2.73-.88,2.78-2.36.05-1.59-.92-2.55-2.57-2.56-1.42,0-2.96,1.43-2.94,2.72.02,1.18,1.23,2.15,2.73,2.2Z"/>
    <path class="cls-1" d="M295.62,262.11c-.31.77-.58,1.44-1.02,2.54-.49-.82-.87-1.2-.93-1.63-.21-1.64-.3-3.28-.46-4.93-.11-1.16.19-2.03,1.41-2.45,1.4-.47,2.83-.18,3.51.9.64,1.02.87,2.13,0,3.13-.31.37-.84.55-1.39.89,1.32,1.04,2.2,1.75,3.35,2.65-2.16.98-3.06-.66-4.47-1.11ZM295.28,259.63c.84-.59,1.97-.58,1.6-1.78-.11-.35-.99-.8-1.34-.67-1.13.4-.71,1.29-.26,2.46Z"/>
    <path class="cls-1" d="M350.48,266.81c1.18,2.79,2.35,5.57,3.71,8.8-.75-.15-1.53-.11-1.63-.35-.81-1.93-2.4-1.67-4.1-1.56-.46.57-.99,1.22-1.7,2.1-.31-.62-.77-1.15-.66-1.4,1.19-2.56,2.47-5.08,3.73-7.61.22,0,.43.01.65.02Z"/>
    <path class="cls-1" d="M183.27,253.2c.15.97.3,1.94.47,3.08h1.78c.85-1.4-.48-3.2,1.25-4.58.91,1.94.35,3.82.59,5.91-2.64.42-5.19.31-7.72.08-.35-.03-.91-.47-.94-.76-.17-1.65-.58-3.36.37-5.11,1.38.83.81,2.05.91,3.04.09.91.02,1.83,1.57,1.43.24-.98.49-2.05.75-3.12.32,0,.65.02.97.03Z"/>
    <path class="cls-1" d="M178.82,260.3c2.99-.8,5.62.48,8.51.31-.59,1.99-2.34.94-3.41,1.75v3.1c1.08.2,2.18.41,3.85.72-.79.54-1.08.91-1.39.94-3.56.32-6.49,0-8.19-1.14,1.48-.15,2.52-.25,3.79-.38v-3.69c-.77-.91-2.5.31-3.16-1.6Z"/>
    <path class="cls-1" d="M313.33,267.2c.75.87.29,1.84.26,2.71-.11,3.69.47,4.2,4.26,3.49,1.11-1.94-.53-4.48,1.45-6.58.25.66.54,1.08.55,1.51.05,1.39.06,2.78-.02,4.17-.12,1.96-.81,2.63-2.72,2.72-.78.04-1.58.09-2.34-.07-.64-.14-1.34-.43-1.82-.87-1.49-1.39-1.28-5.29.38-7.08Z"/>
    <path class="cls-1" d="M291.12,273.92c-.08,1.59-1.15,1.66-2.16,1.66-2.04-.01-4.02-1.37-4.46-2.98-.49-1.78.42-4.36,1.79-5.08,1.4-.74,3.5-.34,4.93.98-.56.91-1.38.37-2.07.33-2.16-.12-2.89.36-3.14,2.14-.22,1.56.67,2.64,2.55,2.93.8.12,1.63.02,2.56.02Z"/>
    <path class="cls-1" d="M322.08,262.56c-.48-.46-.91-.93-1.4-1.33-.53-.43-1.21-.71-1.66-1.21-1.05-1.18-.83-2.79.4-3.62,1.3-.87,2.47-.5,3.57,1.32-.61-.06-1.08-.19-1.54-.13-.46.06-.89.29-1.34.45.17.44.24,1,.55,1.29.49.46,1.21.67,1.73,1.11.87.74,1.74,1.65,1.37,2.87-.39,1.28-1.64,1.41-2.79,1.43-.92.01-1.95.2-2.49-1.1.89-1.13,2.34.09,3.6-1.08Z"/>
    <path class="cls-1" d="M291.58,245.65c-1.24.39-2.11.66-3.05.96-.56,2.28.78,4.84-.95,7.46-1.27-2.64-.34-5.02-1.01-7.37-.65-.3-1.43-.65-2.34-1.07,1.88-1.35,5.29-1.41,7.35.02Z"/>
    <path class="cls-1" d="M308.78,245.66c-1.11.13-2.22.26-3.47.41v2.31c1,.63,2.3-.31,3.08,1.3-.95.24-1.81.45-2.8.7-.18,1-.37,2.1-.63,3.6-.62-.54-1.05-.73-1.06-.95-.13-2.33-.24-4.66-.28-6.99-.02-1.27.65-1.93,1.97-1.77,1.06.13,2.12.29,3.18.43,0,.32,0,.64.01.95Z"/>
    <path class="cls-1" d="M180.23,273.58c-.18,1.05-.32,1.87-.47,2.78-1.24-.07-1.2-.89-1.29-1.63-.35-2.94-.12-4.4,1.07-5.61.3.86.56,1.6.9,2.58,1.26.11,2.62.23,3.98.35.52.04,1.07-.04,1.54.13.32.11.73.59.7.86-.03.28-.54.73-.84.73-1.29.02-2.58-.11-3.87-.17-.51-.02-1.02,0-1.72,0Z"/>
    <path class="cls-1" d="M307.4,264v-5.92c-1.04-.31-1.98-.58-3.46-1.02,2.95-1.93,5.5-.4,8.1-.56-.15,2.25-2.08.96-2.89,1.72-.79,1.84.69,4.24-1.75,5.77Z"/>
    <path class="cls-1" d="M306.57,273.37c.75.18,1.53.36,2.38.56-.83,1.12-2.19,1.55-3.26,1.16-.95-.35-.91-1.13-.88-1.92.07-1.55.1-3.1.23-4.64.04-.51.33-1.01.68-2.02,1.12,2.55.42,4.73.86,6.86Z"/>
    <path class="cls-1" d="M343.34,275.88c-.52-.61-.89-.84-.92-1.11-.19-1.98-.36-3.96-.43-5.95-.02-.67.19-1.55,1.12-1.37.35.07.81.9.78,1.35-.15,2.19.45,4.45-.55,7.07Z"/>
    <path class="cls-1" d="M314.71,256c.94,2.11.96,7.24.04,8.69-1.27-1.66-1.29-7.05-.04-8.69Z"/>
    <path class="cls-1" d="M310.96,253.16c-.6-2.68-.39-5.34-.46-8.18,1.36.28,1.39,1.11,1.49,1.84.37,2.71.07,5.23-1.03,6.34Z"/>
    <path class="cls-1" d="M302.72,263.53c-1.2-1.43-1.45-5.12-.66-7.56,1.19,1.29,1.52,4.54.66,7.56Z"/>
    <path class="cls-5" d="M308.42,166.71c-1.52,1.39-2.67,2.44-3.94,3.6-5.94-1.26-12.01-2.29-17.93-3.88-7.8-2.1-14.38-6.39-19.87-12.32-1.03-1.11-1.53-2.37-1.71-3.94-.53-4.68-1.01-9.34.1-14,.4-1.67.82-3.33,1.26-5.09-2.35-2.08-6.46-2.48-9.04-.72-1.73,1.17-3.55,2.24-5.09,3.63-2.51,2.25-5.37,2.55-8.48,2.05-.51-.08-1.03-.19-1.55-.19-5.12-.01-10.2-.45-15.11-1.53-2.95,4.01-5.06,8.23-6.67,12.77-1.16,3.25-2.83,6.32-4.48,9.9-1.19-1.3-2.36-2.23-3.04-3.44-.44-.77-.47-2.06-.15-2.92.97-2.6,2.18-5.11,3.35-7.63,1.24-2.68,2.55-5.33,3.79-8,.4-.85.8-1.74-.04-2.78-2.06.91-3.64,2.43-5.08,3.95-3.4,3.61-6.52,7.47-8.72,11.97-.42.86-.81,1.73-1.14,2.63-.59,1.61-.37,2.9,1.06,4.16,2.42,2.13,4.41,4.66,5.83,7.6.61,1.26.61,2.39-.07,3.7-2.28,4.39-4.34,8.9-6.65,13.27-1.41,2.66-1.28,5.35-.73,8.1.73,3.65,1.57,7.29,2.37,10.99-4.78,1.22-9.52,1.09-14.28.98-1.34-.03-1.91-.69-2.46-1.84-2.39-4.92-1.79-9.97-.81-15.04.28-1.44.75-2.87,1.28-4.24.76-1.96.68-3.85.14-5.85-1.01-3.77-1.98-7.57-2.73-11.4-.31-1.56-.03-3.24,0-4.87.01-.43.16-.86.19-1.29.42-5.58,2.97-10.17,6.18-14.65,4.5-6.28,8.6-12.85,12.82-19.33,3.46-5.31,6.92-10.63,10.25-16.02,1.54-2.5,2.75-5.2,4-7.58,2.05-.54,3.91-.95,5.71-1.52,3.64-1.14,7.28-2.3,10.87-3.58,1.17-.42,1.96.04,2.9.5,4.82,2.39,9.65,4.84,15.07,5.57,1.67.22,3.39.03,5.32.03-.88,2.17-2.26,3.72-3.76,5.07-1.35,1.21-1.63,2.35-1.21,4.11.76,3.14,1.62,6.2,3.31,8.98,1.23,2.04,1.52,2.1,3.73,1.04,1.47-.7,2.97-1.35,4.41-1.99-.16-1.64-.41-3.17-.45-4.71-.06-2.69,0-2.69,3.26-3.9-.15.89-.13,1.64-.41,2.26-1.09,2.46-1.1,2.59,1.03,4.26.34.27.73.46,1.19.75,2.78-2.19,5.55-4.38,8.48-6.69-.64-1.02-1.31-2.09-2.16-3.45,3.92,1.05,7.53,2.02,11.15,2.99.17.04.32.21.47.2,3.65-.31,7.12,1.64,10.81.85.95-.2,1.66.17,2.13,1.06,1.29,2.45,2.69,4.85,3.92,7.33,1.27,2.56,2.39,5.2,3.59,7.82-.53,1.17-1.25,1.17-2.24.47-1.93-1.36-4.03-2.33-6.38-2.82-4.29-.88-7.4,1.14-10.15,3.98-1.13,1.17-.94,3.29.18,5.24.55-.38,1.1-.75,1.63-1.13,1.27-.9,2.48-1.92,3.83-2.7,2.12-1.23,4.08-.73,5.65,1.3-.33,1.27-1.19,1.56-2.36,1.23-.42-.12-.83-.4-1.23-.39-.72.02-1.66-.03-2.12.39-.8.72-.5,1.74.04,2.62,1.1,1.8,3.16,2.29,4.94.98,1.39-1.02,2.62-2.26,4.03-3.48,1.68.54,3.39,1.09,5.23,1.67.99-2.2,2.31-3.65,5.15-2.53-.08,1.48-.12,3.11-.26,4.72-.09,1.07.07,1.9.76,2.86,2.17,3.02,4.12,6.2,6.33,9.59-1.85,1-3.42,2.23-5.18,2.68-1.74.44-3.69.1-5.55.1-.09,3.18,4.51,6.38,8.81,6.01.24,4.07-1.75,6.82-5.72,7.07-5.88.37-11.8.41-17.59-1.73v-2.43c-1.01-.83-1.52-.18-1.94.51-.68,1.1-.93,2.3-.11,3.42.45.61,1.1,1.1,1.73,1.55,2.11,1.52,4.65,1.85,7.09,2.44.92.22,1.86.38,3.23.66Z"/>
    <path class="cls-1" d="M233.38,138.21c1.96.19,3.76.25,5.51.59.63.12,1.32.78,1.65,1.38,1.14,2.04,2.1,4.19,3.19,6.26,2.24,4.3,4.64,8.52,6.75,12.88,2.06,4.26,5.32,6.82,9.7,8.44,6.03,2.23,12.16,4.03,18.39,5.57,2.56.63,4.99,1.81,7.76,2.85-.81,1.12-1.4,1.94-2,2.78-5.23-.9-10.34-1.84-15.46-2.65-4.53-.72-9.08-1.32-13.64-1.92-3.01-.4-5.85.6-8.67,1.4-1.41.4-2.22.02-3.21-.89-1.39-1.28-2.92-2.44-4.49-3.5-.87-.58-1.31-1.17-1.47-2.24-.88-6.09-1.86-12.17-2.8-18.26-.11-.68-.18-1.37-.25-2.06-.29-3.01-.57-6.03-.85-9.04-.04-.41-.06-.82-.11-1.59Z"/>
    <path class="cls-5" d="M323.33,213.07c-3.38-.24-6.76-.32-10.08-.77-2.79-.38-5.31-.22-7.64,1.5-.83.61-1.76,1.16-2.73,1.5-2.59.89-3.83,2.87-4.34,5.34-.44,2.19-1.7,3.32-3.8,3.69-.25.04-.53.1-.74.23-3.41,2.02-6.27.45-9.39-1.43,1.03-2.97,2.16-5.86,3.02-8.83.9-3.1,2.8-5.05,5.52-6.8,5.4-3.46,10.46-7.46,15.73-11.14,1.56-1.09,2.34-2.41,2.5-4.25.11-1.26.39-2.51.67-4.28,1.66,2.65,3.04,4.83,4.39,7.03.17.28.29.65.28.97-.23,4.4-.42,8.81-.77,13.21-.1,1.28.38,1.79,1.49,1.93,1.38.17,2.76.29,4.14.4.93.07,1.76.22,1.75,1.71Z"/>
    <path class="cls-5" d="M301.86,173.94c-3.51,1.49-6.78,2.65-10.59,1.27-5.29-1.91-10.8-3.19-16.14-4.95-5.18-1.71-10.3-3.64-15.39-5.58-.9-.34-1.75-1.14-2.34-1.94-3.83-5.1-6.95-10.58-8.9-16.7-.36-1.14-.99-2.2-1.55-3.28-.69-1.33-1.2-2.67-.73-4.38,4.68-.22,9.32-.43,14.22-.66.17,1.84.28,3.45.49,5.05.47,3.61.91,7.22,1.51,10.8.59,3.49,2.62,5.97,5.83,7.5,4,1.9,7.96,3.88,11.97,5.73,4.9,2.26,9.98,3.94,15.27,5.08,2.17.46,4.24,1.36,6.36,2.06Z"/>
    <path class="cls-1" d="M233.84,87c2.37-1.44,4.68-2.91,7.07-4.25,1.97-1.11,3.89-1.11,5.8.41,3.41,2.72,7.59,3.76,11.66,4.98,3.17.96,6.34,1.3,9.73.98,3.32-.32,6.64.91,9.25,2.97,3.11,2.45,6.44,3.51,10.31,3.59,3.6.07,6.77,1.39,9.25,4.13.47.51,1.04.94,1.47,1.48,2.28,2.83,5.02,4.29,8.84,3.82,1.61-.2,3.35.65,4.92,1,.87,1.77.41,3.34-.09,4.77-.58,1.66-.05,2.72,1,3.96,2.18,2.57,4.17,5.3,6.35,8.1-.94,1.04-1.74,1.91-2.78,3.05-1.76-2.6-3.41-4.89-4.92-7.28-1.71-2.72-3.33-5.49-4.92-8.28-1.45-2.55-3.25-4.37-6.48-4.47-2.24-.07-4.48-.53-6.69-.95-1.09-.2-2.22-.53-3.16-1.1-2.89-1.77-5.74-3.6-8.51-5.55-3.67-2.58-7.59-4.11-12.17-3.82-4.5.29-9.03.35-13.53.65-2,.14-3.78-.2-5.43-1.3-2.03-1.35-4.09-2.63-6.1-4-2.82-1.93-5.87-2.97-9.33-2.61-.43.04-.86-.01-1.3-.04-.06,0-.11-.09-.26-.23Z"/>
    <path class="cls-1" d="M217.99,206.06c-1.26-1.77-2.56-3.4-3.63-5.17-.51-.85-.76-1.93-.87-2.94-.54-4.74-1.03-9.49-1.46-14.24-.08-.92-.04-1.93.25-2.8,1.46-4.44,3.03-8.85,4.63-13.49.35.44.68.77.92,1.16,1.45,2.36,2.74,4.83,4.34,7.07,1.26,1.77,1.65,3.41,1.08,5.55-.81,3.01-1.23,6.12-1.86,9.18-.27,1.3-.03,2.38.97,3.31,1.55,1.44,2.21,3.17,2.14,5.35-.05,1.62.43,3.25.72,5.13-2.25.59-4.54,1.19-7.23,1.89Z"/>
    <path class="cls-5" d="M212.03,204.74c1.32,1.24,2.48,2.29,3.58,3.39.41.41.81.92,1.01,1.46,1.11,2.99,2.15,6.01,3.28,9.19-2.29,1.07-4.49,2.02-7.16,1.18-2.6-.82-5.31-.66-8-.35-1.63.19-3.29.36-4.93.3-3.57-.13-5.58-3.23-4.39-6.6.23-.65.6-1.25.85-1.9,1.44-3.71,3.99-5.65,8.1-5.73,2.57-.05,5.14-.61,7.65-.94Z"/>
    <path class="cls-1" d="M210.75,108.01c-6.45,9.28-12.65,18.2-18.93,27.23-.93-.75-.77-1.64-.8-2.45-.09-2.42-.1-4.85-.28-7.27-.09-1.21.53-1.96,1.24-2.73,2.71-2.93,5.44-5.84,8.15-8.76.59-.63,1.28-1.22,1.72-1.95,1.91-3.13,4.83-4.12,8.91-4.09Z"/>
    <path class="cls-5" d="M228.36,208.44c.86,1.15,1.68,2.24,2.6,3.47-2.92,1.74-5.78,3.45-8.86,5.28-.37-2.54-.73-5.03-1.14-7.82,2.47-.31,4.91-.61,7.39-.92Z"/>
    <path class="cls-5" d="M263.07,106.11c.18-2.99,3.19-6.45,6.04-7.23,4.16-1.14,6.15-.22,8.86,4.27-2.22-1.89-4.69-2.07-7.38-1.42-2.6.62-4.87,1.7-6.68,3.7-.17.18-.39.32-.85.69Z"/>
    <path class="cls-5" d="M311.82,226.61c-1.23-2.49-2.39-4.85-3.72-7.52.79-.51,1.56-1.26,2.46-1.5.53-.14,1.79.49,1.82.85.22,2.67,1.17,5.44-.57,8.17Z"/>
    <path class="cls-5" d="M236.5,223.01c-.97-2.35-1.94-4.7-2.99-7.26,1.1-.83,2.4-1.43,4.31-.99.34,2.77.21,5.48-.59,8.14-.24.04-.49.08-.73.11Z"/>
    <path class="cls-5" d="M239.47,213.79c3.14-.08,4.24.64,4.67,2.72.31,1.52-.5,2.82-2.56,3.82-.69-2.12-1.36-4.22-2.11-6.54Z"/>
    <path class="cls-5" d="M228.27,218.32c.58-.35.98-.67,1.44-.86,1.86-.75,2.75-.35,3.18,1.6.3,1.37.33,2.8.5,4.37-2.31-.94-3.71-2.37-5.12-5.11Z"/>
    <path class="cls-5" d="M305.93,226.51c-.96-2.58-2.99-4.15-5.44-5.6,1.32-1.18,2.56-1.45,3.95-.99,1.43.48,1.95,1.62,1.97,3.04.01,1.11,0,2.23,0,3.34-.16.07-.31.14-.47.21Z"/>
    <path class="cls-5" d="M317.73,223.8c-.9-2.35-1.76-4.56-2.67-6.93h3.61c.38,2.37.34,4.65-.94,6.93Z"/>
    <path class="cls-5" d="M323.67,217.71c1.66.35,2.47,1.1,2.54,2.47.07,1.33-.67,2.14-2.54,2.8v-5.27Z"/>
    <path class="cls-5" d="M298.76,230.19c-1.14-1.71-1.95-2.91-2.88-4.3.99-.49,1.87-.93,2.87-1.43,1.31,1.78.78,3.46,0,5.73Z"/>
    <path class="cls-5" d="M226.34,218.79c.85,1.41,1.43,2.38,2.27,3.77-1.36.19-2.37.33-3.8.53.53-1.5.93-2.62,1.53-4.3Z"/>
    <path class="cls-1" d="M281.84,221.93l-4.84-4.27s-3.7-7.11-2.56-8.82,17.93-17.64,17.93-17.64l7.4-3.98v-2.28l8.82-4.84,1.99,1.14-3.42,11.95-19.92,15.37-5.41,13.38Z"/>
  </g>
</svg>