<?xml version="1.0" encoding="UTF-8"?>
<svg id="Layer_1" xmlns="http://www.w3.org/2000/svg" xmlns:xlink="http://www.w3.org/1999/xlink" viewBox="0 0 400 400">
  <defs>
    <style>
      .cls-1 {
        fill: url(#linear-gradient-8);
      }

      .cls-2 {
        fill: url(#linear-gradient-7);
      }

      .cls-3 {
        fill: url(#linear-gradient-9);
      }

      .cls-4 {
        fill: url(#linear-gradient-3);
      }

      .cls-5 {
        font-size: 39.6px;
      }

      .cls-5, .cls-6 {
        font-family: AmericanTypewriter-CondensedBold, 'American Typewriter';
        font-weight: 700;
      }

      .cls-5, .cls-7 {
        fill: #1bb24b;
      }

      .cls-8 {
        stroke: url(#linear-gradient-2);
      }

      .cls-8, .cls-9, .cls-10, .cls-11, .cls-12 {
        fill: none;
        stroke-miterlimit: 10;
      }

      .cls-8, .cls-9, .cls-10, .cls-12 {
        stroke-width: 3.7px;
      }

      .cls-9 {
        stroke: url(#linear-gradient-4);
      }

      .cls-10 {
        stroke: url(#linear-gradient-5);
      }

      .cls-13, .cls-7 {
        fill-rule: evenodd;
      }

      .cls-6 {
        font-size: 44px;
      }

      .cls-6, .cls-14 {
        fill: #fff;
      }

      .cls-11 {
        stroke: url(#linear-gradient-6);
        stroke-width: 1.85px;
      }

      .cls-12 {
        stroke: url(#linear-gradient);
      }
    </style>
    <linearGradient id="linear-gradient" x1="217.47" y1="199.54" x2="244.71" y2="199.54" gradientUnits="userSpaceOnUse">
      <stop offset="0" stop-color="#8ad0ea" stop-opacity=".6"/>
      <stop offset="0" stop-color="#8ad0ea" stop-opacity=".61"/>
      <stop offset=".14" stop-color="#8ad0ea" stop-opacity=".85"/>
      <stop offset=".21" stop-color="#8ad0ea" stop-opacity=".95"/>
      <stop offset=".58" stop-color="#8ad0ea" stop-opacity=".56"/>
      <stop offset="1" stop-color="#8ad0ea" stop-opacity=".1"/>
    </linearGradient>
    <linearGradient id="linear-gradient-2" x1="238.24" y1="203.17" x2="255.58" y2="203.17" xlink:href="#linear-gradient"/>
    <linearGradient id="linear-gradient-3" x1="266.8" y1="216.46" x2="256.55" y2="198.71" xlink:href="#linear-gradient"/>
    <linearGradient id="linear-gradient-4" x1="268.66" y1="206.13" x2="275.74" y2="206.13" xlink:href="#linear-gradient"/>
    <linearGradient id="linear-gradient-5" x1="198.2" y1="199.87" x2="238.34" y2="199.87" xlink:href="#linear-gradient"/>
    <linearGradient id="linear-gradient-6" x1="228.45" y1="182.93" x2="297.23" y2="182.93" gradientUnits="userSpaceOnUse">
      <stop offset="0" stop-color="#8ad0ea" stop-opacity=".6"/>
      <stop offset=".01" stop-color="#8ad0ea" stop-opacity=".61"/>
      <stop offset=".29" stop-color="#8ad0ea" stop-opacity=".86"/>
      <stop offset=".42" stop-color="#8ad0ea" stop-opacity=".96"/>
      <stop offset=".43" stop-color="#8ad0ea" stop-opacity=".96"/>
      <stop offset=".61" stop-color="#8ad0ea" stop-opacity=".99"/>
      <stop offset="1" stop-color="#8ad0ea"/>
    </linearGradient>
    <linearGradient id="linear-gradient-7" x1="281.02" y1="202.51" x2="342.83" y2="202.51" gradientUnits="userSpaceOnUse">
      <stop offset="0" stop-color="#8ad0ea" stop-opacity=".93"/>
      <stop offset=".18" stop-color="#8ad0ea" stop-opacity=".97"/>
      <stop offset=".41" stop-color="#8ad0ea" stop-opacity=".99"/>
      <stop offset=".46" stop-color="#8ad0ea" stop-opacity=".87"/>
      <stop offset=".52" stop-color="#8ad0ea" stop-opacity=".77"/>
      <stop offset=".58" stop-color="#8ad0ea" stop-opacity=".7"/>
      <stop offset=".66" stop-color="#8ad0ea" stop-opacity=".64"/>
      <stop offset=".76" stop-color="#8ad0ea" stop-opacity=".61"/>
      <stop offset=".98" stop-color="#8ad0ea" stop-opacity=".6"/>
    </linearGradient>
    <linearGradient id="linear-gradient-8" x1="162.34" y1="204.68" x2="216.74" y2="204.68" gradientUnits="userSpaceOnUse">
      <stop offset="0" stop-color="#8ad0ea" stop-opacity=".6"/>
      <stop offset=".01" stop-color="#8ad0ea" stop-opacity=".61"/>
      <stop offset=".29" stop-color="#8ad0ea" stop-opacity=".86"/>
      <stop offset=".42" stop-color="#8ad0ea" stop-opacity=".96"/>
      <stop offset=".43" stop-color="#8ad0ea" stop-opacity=".96"/>
      <stop offset=".59" stop-color="#8ad0ea" stop-opacity=".99"/>
      <stop offset=".93" stop-color="#8ad0ea"/>
      <stop offset=".99" stop-color="#788457" stop-opacity="0"/>
    </linearGradient>
    <linearGradient id="linear-gradient-9" x1="176.65" y1="168.65" x2="333" y2="168.65" gradientUnits="userSpaceOnUse">
      <stop offset="0" stop-color="#fff" stop-opacity="0"/>
      <stop offset=".01" stop-color="#edf3df" stop-opacity=".17"/>
      <stop offset=".03" stop-color="#dce7c0" stop-opacity=".35"/>
      <stop offset=".05" stop-color="#cedda6" stop-opacity=".49"/>
      <stop offset=".07" stop-color="#c2d590" stop-opacity=".61"/>
      <stop offset=".09" stop-color="#b9ce80" stop-opacity=".7"/>
      <stop offset=".11" stop-color="#b2ca74" stop-opacity=".77"/>
      <stop offset=".15" stop-color="#afc76d" stop-opacity=".8"/>
      <stop offset=".22" stop-color="#aec76c" stop-opacity=".82"/>
      <stop offset=".37" stop-color="#abc468" stop-opacity=".84"/>
      <stop offset=".79" stop-color="#a8c265" stop-opacity=".87"/>
      <stop offset=".84" stop-color="#97ad60" stop-opacity=".58"/>
      <stop offset=".89" stop-color="#8a9b5c" stop-opacity=".33"/>
      <stop offset=".93" stop-color="#808e59" stop-opacity=".15"/>
      <stop offset=".97" stop-color="#7a8657" stop-opacity=".04"/>
      <stop offset=".99" stop-color="#788457" stop-opacity="0"/>
    </linearGradient>
  </defs>
  <g>
    <ellipse class="cls-14" cx="253.03" cy="195.77" rx="116.84" ry="124.16"/>
    <path class="cls-12" d="M243.98,182.3s-12.59,5.33-24.8,35.48"/>
    <path class="cls-8" d="M254.4,187.63s-14.84,12.29-14.29,32.46"/>
    <path class="cls-4" d="M257.79,221.19c-7.8-17.85,7.32-27.41,7.48-27.51l1.95,3.15c-.51.32-12.52,8.02-6.03,22.88l-3.39,1.48Z"/>
    <path class="cls-9" d="M274.32,199.35s-5.48,6.59-3.29,14.24"/>
    <path class="cls-10" d="M237.81,182.42s-11.75,3.51-18.35,14.65c-7.34,12.4-13.69,15.91-20.2,20.49"/>
    <path class="cls-11" d="M230.72,182s17.08-20.16,37.97-11.26c0,0,5.81,8.36,7.27,6.9,1.45-1.45-2.72-5.45-1.63-6.18,1.09-.73,10.13-3.4,14.17,0,3.45,2.91,9.99,7.63,7.08,17.44-2.91,9.81-19.62,12.17-34.33,1.45,0,0-13.08-9.63-18.53-9.45s-11.99,1.09-11.99,1.09Z"/>
    <path class="cls-2" d="M292.22,215.08c-3.89-.74-7.44-2.01-9.96-5.24-1.23-1.58-1.45-3.45-1.07-5.38.17-.87.61-1.7.72-2.57.24-1.77,1.2-2.33,2.93-2.7,4.44-.95,8.14-3.14,11.34-6.58,2.13-2.28,3.71-4.79,5.09-7.16,2.39,3.02,4.77,6.01,7.14,9.01,1.67,2.12,3.74,2.25,6.13,1.4,2.33-.83,4.13-2.3,5.74-4.1,1.3-1.46,2.64-2.89,4.24-4.64,3.66,7.97,9.6,11.13,18.31,9.36-1.04,7.6-1.83,14.9-5.66,21.61-2.86-1.74-4.6-3.86-5.46-7.37-1.17,1.3-2.17,2.08-2.74,3.11-1.29,2.34-3.49,3.48-5.7,4.57-.83.41-1.97.59-2.87.4-3.72-.79-7.05-2.17-7.91-6.51-.06-.32-.49-.56-.85-.95-.44.35-.88.58-1.16.95-1.36,1.79-2.61,3.68-4.03,5.42-1.65,2.01-3.87,2.19-6.24,1.53-2.34-.66-4.19-1.81-4.6-4.45-.03-.2-.05-.41-.14-.58-.29-.57-.49-1.45-.95-1.63-.98-.39-1.29.55-1.61,1.29-.15.35-.38.67-.69,1.21ZM293.59,198.15c.46,2.47.79,4.56,1.26,6.61.38,1.67,1.72,2.09,3.14,1.12,1.48-1.02,1.88-2.77.93-4.41-1.1-1.89-2.85-2.85-5.32-3.32ZM298.11,194.67c1.14,1.73,2.11,3.3,3.18,4.79.59.81,1.57,1.11,2.32.4.56-.54,1.09-1.5,1.01-2.21-.08-.76-.77-1.59-1.41-2.12-1.36-1.12-3-1.28-5.1-.86ZM286.23,208.02c2.95-.83,4.3-1.94,4.11-3.21-.26-1.74-1.63-2.27-3.53-2.7-.19,1.94-.37,3.72-.58,5.91Z"/>
    <path class="cls-1" d="M162.6,198.29s8.11-1.45,11.26-6.9l2.42-4.12s6.54,10.66,12.11,9.32c5.57-1.33,13.68-7.51,13.68-9.57,0,0,7.27,10.9,14.65,9.57,0,0-10.41,16.47-18.89,20.47l-2.42-2.18s-7.02,8.84-12.23,7.27c-5.21-1.57-6.9-7.87-6.9-7.87l-6.06,6.54s-9.57-17.56-7.63-22.53Z"/>
    <path class="cls-3" d="M325.91,164.2l7.08,30.7-2.91-1.82-5.09-6.78s-7.51,7.99-9.57,8.24c-2.06.24-6.18.97-10.41-5.69-4.24-6.66-3.15-4.48-3.15-4.48l-4.36,4.97s.48-12.96-4.72-17.32c-5.21-4.36-14.65-4.97-20.47-1.45,0,0-14.77-6.54-32.46,2.3,0,0-16.11,11.38-21.8,23.13,0,0-10.54,1.82-15.5-10.17,0,0-14.9,20.35-23.74,4.48l-2.18-4.12,2.96-17.31s2.24,3.68,3.82,2.35,6.18-8.42,6.18-8.42c0,0,2.79,4.06,4,3.75,1.21-.3,5.81-5.15,6.12-6.42l1.3-1.21s-.03,2.37,1.89,1.78c1.92-.59,2.83-.96,2.83-.96,0,0,1.45,2.54,2.45,2,1-.54,2.82-3.63,2.82-3.63,0,0,4.27,1.82,5.09-.73s4.45-8.99,4.45-8.99c0,0,2.27,3,3.09,2.36s2.82-2.27,2.82-2.27c0,0,2,2,2.63,1s5.99-5.27,5.99-5.27c0,0,2.45,5.18,4.18,4.18s7.72-7.18,7.72-7.18l.91-.27s.73,6.27,1.63,5.63,2.36-1.73,2.36-1.73c0,0,2.63,5,3.18,4.63s2.82-2.54,2.82-2.54c0,0,4.72,10.26,5.9,7.99s4.18-6.27,4.18-6.27c0,0,3.09,2.36,4.09-.27,1-2.63.91-1.27.91-1.27,0,0,2.63,5,5.45,3.18l2.36,3.72,2.91-1.73,4.54,1.54s5.36,7.72,7.27,8.17,6.63.64,9.17-2.63l1-.82s.25,2.39,1.44,1.79c1.19-.61,2.65-1.15,2.65-1.15,0,0,1.63,1.63,2.72.82s6.99-3.63,7.9-3.54c.91.09,5.43,6.84,5.54,7.72Z"/>
    <path d="M324.93,184.39c.89,1.49,1.7,2.83,2.5,4.19,2.6,4.39,6.39,6.76,11.54,6.45,1.72-.1,3.4-.83,5.33-1.33.15.36.55.87.53,1.36-.26,6.68-1.5,13.21-3.63,19.53-.62,1.83-1.78,3.53-2.97,5.09-1.19,1.57-1.77,1.42-3.01-.02-1.29-1.49-2.63-2.92-4.1-4.54-2.62,3.13-5.57,5.87-9.77,6.01-4.1.13-7.37-2.02-10.24-5.19-.74.81-1.41,1.49-2.01,2.22-3.95,4.72-9.85,4.96-14.23.56-.35-.35-.65-.74-1.04-1.19-.87.6-1.66,1.17-2.47,1.72-2.94,1.98-5.96,3.29-9.72,2.88-3.54-.39-6.29-1.57-7.92-4.86-.21-.42-.53-.77-.92-1.31-2.97,2.62-5.4,5.75-9.67,6.11-4.09.35-7.37-1.06-10.18-4.19-2.55,3.11-5.38,5.2-9.46,4.91-4.07-.29-6.41-3.11-9.04-6.11-2.31,3.62-5.36,6.04-9.65,6.25-4.6.23-7.02-3.11-9.73-6.51-.67,1.03-1.23,1.89-1.8,2.76-3.79,5.84-11.59,5.93-15.55.16-.72-1.04-1.34-2.15-2-3.23-1.72,1.86-3.12,3.7-4.83,5.17-2.61,2.23-5.66,3.24-9.11,2.02-2.07-.73-3.59-2.07-4.54-4.04-.34-.7-.67-1.41-1.18-2.49-1.23,1.4-2.31,2.62-3.39,3.83-2.25,2.54-3.46,2.43-5.06-.64-2.35-4.5-4.16-9.22-5.16-14.21-.46-2.33-.83-4.68-1.16-7.04-.08-.55.16-1.15.27-1.85.82-.14,1.59-.42,2.34-.39,4.25.18,6.79-2.28,8.8-5.57.72-1.18,1.25-2.48,1.98-3.66.45-.72,1.12-1.31,2.01-2.33.86,1.34,1.62,2.32,2.17,3.41,1.34,2.65,3.21,4.73,5.86,6.13,2.28,1.2,4.55,1.31,6.83.1,3.82-2.04,7.23-4.53,9.15-8.61.26-.56.82-.97,1.35-1.57,2.64,3.69,4.09,7.96,8.43,9.94,2.35,1.07,4.6.86,6.53.79,4.18-5.09,7.96-10.07,12.14-14.69,8.67-9.59,19.58-14.25,32.54-13.92,3.65.09,7.01,1.18,10.11,3.41,4.21-2.94,9.1-2.98,13.94-2.57,1.75.15,3.61,1.16,5.06,2.25,4.2,3.18,6.63,7.54,7.57,12.73.18.97.37,1.94.64,3.39.97-1.46,1.72-2.59,2.8-4.21.62,1.11,1.12,1.78,1.41,2.53,1.43,3.71,4.05,6.54,6.72,9.36,1.11,1.17,2.36,1.62,3.72.88,1.72-.93,3.46-1.93,4.9-3.23,2.2-1.99,4.14-4.26,6.39-6.61ZM292.22,215.08c.32-.54.54-.86.69-1.21.32-.74.62-1.68,1.61-1.29.46.18.66,1.06.95,1.63.09.17.11.38.14.58.41,2.64,2.26,3.8,4.6,4.45,2.37.66,4.58.49,6.24-1.53,1.43-1.74,2.67-3.63,4.03-5.42.27-.36.72-.59,1.16-.95.36.39.79.63.85.95.86,4.35,4.19,5.72,7.91,6.51.9.19,2.04.01,2.87-.4,2.21-1.09,4.4-2.23,5.7-4.57.57-1.03,1.58-1.82,2.74-3.11.86,3.51,2.6,5.63,5.46,7.37,3.83-6.71,4.63-14.01,5.66-21.61-8.7,1.77-14.65-1.39-18.31-9.36-1.6,1.75-2.94,3.18-4.24,4.64-1.61,1.8-3.41,3.27-5.74,4.1-2.39.85-4.46.72-6.13-1.4-2.37-3-4.75-5.99-7.14-9.01-1.38,2.37-2.96,4.88-5.09,7.16-3.21,3.44-6.9,5.63-11.34,6.58-1.72.37-2.69.93-2.93,2.7-.12.87-.55,1.7-.72,2.57-.39,1.93-.16,3.8,1.07,5.38,2.52,3.23,6.07,4.5,9.96,5.24ZM277.71,180.99c-1.72-2.37-3.31-4.49-4.83-6.67-2.03-2.92-4.78-4.61-8.24-5.4-3.16-.73-6.27-.5-9.44-.12-7.81.93-14.69,3.96-20.73,8.9-1.84,1.5-3.38,3.37-5.06,5.07,1.26.09,2.17-.25,3.06-.63,5.49-2.31,10.9-1.62,16.13.71,2.61,1.16,5.19,2.57,7.46,4.28,4.95,3.73,10.35,6.6,16.01,9.03,7.1,3.05,13.83,2.15,19.94-2.32,2.62-1.91,4.83-4.47,4.7-8.17-.16-4.63-1.6-8.82-4.71-12.23-1.43-1.57-3.24-3.23-5.18-3.79-4.55-1.31-9.14-.63-13.79,1.26,1.72,2.38,3.3,4.53,4.84,6.7.66.93,1.65,1.88-.17,3.37ZM176.41,188.82c-2.66,5.65-6.13,9.88-12.89,9.96,1.07,7.46,2.9,14.42,6.65,20.88,2.92-2.54,3.36-3.14,4.88-6.48.32-.72.56-1.55,1.88-1.18.55,1.54,1.08,3.22,1.73,4.85,1.94,4.89,6.42,6.2,10.47,2.84,1.71-1.42,2.94-3.43,4.36-5.2.51-.64.92-1.37,1.52-2.3,1.23,1.52,2.18,2.71,3.25,4.04,1.3-1.04,2.46-1.82,3.43-2.78,3.24-3.21,6.46-6.44,9.58-9.77,1.59-1.7,3.33-3.39,3.67-6.02-6.16-.19-10.02-3.75-12.88-8.96-.57.61-.94.94-1.21,1.33-2.14,3-5.19,4.85-8.33,6.57-2.09,1.14-4.38,1.49-6.63.77-3.18-1.02-5.88-2.83-7.74-5.71-.53-.82-1.02-1.66-1.74-2.85ZM252.11,186.76c-2.82-1.23-5.22-2.35-7.69-3.32-1.66-.65-3.24-.32-4.78.71-2.58,1.72-4.96,3.63-6.73,6.2-1.46,2.12-2.99,4.2-4.29,6.42-2.49,4.27-4.91,8.59-7.22,12.97-1.14,2.15-1.96,4.47-3.07,7.03.29.33.84,1.01,1.45,1.65,2.24,2.4,4.89,2.8,7.84,1.51,2.79-1.22,4.51-3.44,5.67-6.16.71-1.67,1.24-1.77,2.35-.4.27.33.52.68.93,1.21,1.76-11.45,6.65-20.26,15.53-27.8ZM253.18,187.75c-1.71,1.51-3.58,2.85-5.05,4.52-4.61,5.25-7.14,11.62-9.19,18.18-.44,1.39-.59,2.95-.51,4.41.08,1.31.33,2.86,1.1,3.83,1.76,2.22,5.03,2.63,7.61,1.31,2.21-1.13,3.91-2.84,4.66-5.17.47-1.46,1.46-1.88,2.82-2.15-.6-7.74,2.87-13.47,8.6-18.13-3.39-2.29-6.56-4.44-10.03-6.79ZM238.44,182.78c-1,0-1.62-.14-2.16.02-5.72,1.7-10.81,4.38-14.29,9.48-1.95,2.86-3.86,5.77-6.04,8.45-5.01,6.14-10.69,11.64-16.68,16.83,3.33,5.15,9.11,5.17,12.27-.05.61-1.01,1.02-2.13,1.56-3.19.33-.65.74-1.27,1.25-2.15,1.07,1.04,1.86,1.81,3.01,2.93.82-2.07,1.35-3.86,2.19-5.49,4.94-9.68,9.66-19.54,18.89-26.83ZM265.28,195.29c-3.56,2.04-5.77,5.14-7.27,8.61-1.99,4.61-2.22,9.43-.29,14.18.25.61.94,1.33,1.54,1.47,2.8.64,5.47.48,7.89-1.42,1.56-1.22,2.32-2.38,1.74-4.51-1.23-4.55-.39-8.85,2.29-12.76.43-.63.81-1.31,1.36-2.2-2.57-1.19-4.96-2.3-7.27-3.37ZM289.97,217.33c-2.17-1.01-4-1.74-5.71-2.69-4.84-2.67-6.57-7.12-4.9-12.34.23-.72.45-1.45.73-2.33-1.29-.08-2.37-.09-3.44-.23-3.06-.42-3.13-.44-4.59,2.26-.61,1.13-1.18,2.3-1.57,3.52-.99,3.05-.67,6.21.55,8.06.67-.65,1.33-1.84,2.08-1.9,1.27-.11,1,1.4,1.37,2.26,1.48,3.49,3.57,5.89,7.91,6,2.85.07,4.93-.99,7.58-2.61Z"/>
    <path d="M214.47,257.86c2.36-1.41,4.15-3.36,5.3-5.96,1.16-2.63,2.35-5.24,3.53-7.87.12-.27.24-.54.38-.81,1.34-2.53,2.39-2.61,4.06-.5,1.81-.41,3.52-1.03,5.26-1.13,3.29-.19,5.3,2.71,4.08,5.77-.69,1.74-1.66,3.38-2.49,5.07-.7,1.42-1.36,2.86-.7,4.72,1.9-.52,3.12-1.3,3.51-3.41.87-4.75,2.82-8.8,7.56-11.06,5.45-2.6,8.35-.57,9.8,5.34.5,2.06.09,4.15-1,6.04-.79,1.37-1.51,2.8-2.42,4.1-.73,1.05-1.58,2.05-2.54,2.89-3.54,3.12-6.95,2.78-9.72-.67-2.01.7-3.88,1.62-5.85,1.97-3.8.68-5.96-1.46-5.42-5.32.21-1.54.95-3,1.48-4.49.52-1.47,1.07-2.92,1.63-4.44-2.74-.39-4.59.43-5.53,2.55-1.48,3.35-2.85,6.76-4.21,10.17-1.17,2.92-1.71,3.13-4.53,1.86-.56-.25-1.36-.3-1.94-.11-2.99,1-5.5.8-6.95-2.67-.89.45-1.54.88-2.25,1.13-2.88,1.02-5.72,2.25-8.69,2.9-3.81.84-6.92-2.28-6.23-6.15.39-2.22,1.29-4.36,2.04-6.51.48-1.39,1.08-2.73,1.65-4.14-.86-.63-1.66-1.05-2.22-1.68-.77-.86-1.01-1.93-.43-3.03.48-.91,1.21-1.11,2.24-.96,2.11.3,3.51-.61,4.44-2.62.96-2.06,2.17-4.01,3.41-5.92,2.03-3.13,4.87-4.25,8.45-3.48,2.25.48,3.96,2.21,4.14,4.48.2,2.58-.7,4.88-2.27,6.9-.87,1.13-2.11,1.08-3.24.55-1.24-.58-1.2-1.68-.75-2.81.37-.92.84-1.81,1.06-2.77.11-.47-.08-1.26-.43-1.51-.38-.27-1.1-.16-1.64-.04-.35.07-.7.39-.94.7-1.22,1.55-2.35,3.16-2.67,5.31,1.8.53,3.46,1.18,4.19,3.23-.56,1.85-2.04,2.81-3.91,2.96-2.91.22-4.32,1.81-5.05,4.49-.62,2.28-1.52,4.49-2.32,6.78,6.03.05,11.41-3.65,13.39-8.97.58-1.57,1.26-3.15,2.17-4.55.53-.82,1.52-1.65,2.45-1.86,3.53-.82,4.5.2,3.43,3.66-.99,3.22-2.29,6.33-3.43,9.5-.22.62-.36,1.26-.54,1.9.22.16.45.32.67.48ZM249.85,247.05c-4.25-.71-4.82.39-5.78,3.08-.61,1.69-.59,3.65-.61,5.49,0,.71.68,1.43,1.05,2.15,3.82-2.04,5.8-6.15,5.34-10.72Z"/>
    <path d="M310.28,260.48c-2.32.67-4.58,1.36-6.86,1.97-2.87.78-4.02-2.17-6.37-3.01-.47.38-1,.79-1.5,1.23-2.25,1.96-4.87,2.04-7.56,1.35-1.87-.48-3.01-1.94-2.33-3.84,1.88-5.31,4.07-10.52,6.28-15.7.27-.63,1.4-1.06,2.21-1.27,1.63-.41,2.55.34,2.44,2.01-.07,1.07-.38,2.15-.77,3.15-.83,2.12-1.8,4.19-2.69,6.29-.38.89-.67,1.82-1.14,3.1,2.39-.52,3.67-1.46,4.59-3.49,1.92-4.22,4.62-7.93,9.15-9.73,1.64-.65,3.41-1.06,5.16-1.27,1.93-.23,3.29,1.06,2.78,2.84-.67,2.34-1.78,4.59-2.98,6.72-.62,1.11-2.29.67-2.81-.61-.18-.44-.12-.97-.17-1.46-.03-.38-.05-.76-.1-1.48-3.25,1.28-5.76,3.12-7.08,6.13-1.1,2.49.25,4.11,3.05,3.69,5.1-.77,9.07-3.28,11.38-8.07,2.29-4.73,4.51-9.5,6.93-14.16.9-1.73,2.16-3.31,3.47-4.77.48-.53,1.76-.91,2.32-.64.56.28,1.09,1.55.93,2.22-.57,2.39-1.38,4.74-2.22,7.06-.56,1.57-1.31,3.06-2.23,5.19,2.11-1.16,3.66-2.08,5.28-2.89,2.18-1.1,2.88-.98,3.86.43,1,1.44.85,2.82-.59,4.25-.55.54-1.27.94-1.96,1.29-.88.44-1.87.69-2.73,1.16-1.5.83-3.35,1.33-2.95,3.81.5,3.1,1.47,4.56,4.02,5.2,2.92.73,5.81.91,9.08-.46-.95-1.05-1.71-1.9-2.48-2.75-2.18-2.39-2.55-4.77-1.04-7.63,1.91-3.63,5-5.58,9.06-5.84,2.61-.17,3.66.98,3.49,3.59-.14,2.13-.73,4.13-2.34,5.63-.45.42-1.18.54-1.78.8-.29-.68-.84-1.38-.8-2.04.08-1.14.54-2.26.9-3.64-1.48.04-2.53.71-3.43,1.55-1.49,1.39-1.43,2.92.04,4.36.71.69,1.54,1.28,2.16,2.04,1.94,2.39,1.59,5.12-.81,7-4.34,3.41-11.79,3.99-16.62,1.32-1.55-.86-2.17-2.25-2.36-3.9-.16-1.35-.26-2.7-.38-3.93-1.79-.65-2.26.41-2.75,1.39-.8,1.6-1.54,3.22-2.34,4.82-1.71,3.45-4.1,3.78-6.4,1Z"/>
    <path d="M258.98,138.95c.74-.85,1.45-1.81,2.29-2.61,1.42-1.35,2.62-1.14,3.55.61.41.78.59,1.67.87,2.52.76,2.35,1.08,2.5,3.39,1.6.27-.11.56-.17,1.25-.39.88,1.64,1.64,3.43,2.74,4.98,1.12,1.57,2.06,3.46,4.56,4.18.88-.88,1.9-1.91,2.94-2.93,2.17-2.13,3.76-2.07,5.73.28.5.6.98,1.28,1.24,2.01,1.4,3.9,3.89,7.13,6.35,10.36,2.55,3.35,6.69,3.26,9.29-.13,1.15-1.49,2.23-3.04,3.44-4.48.63-.75,1.41-1.42,2.24-1.93,2.25-1.37,4.54-.55,5.57,1.89.3.71.57,1.43.89,2.23,1.43-.51,2.71-1.02,4.02-1.42,2.06-.62,2.95-.29,3.83,1.6.91,1.94,1.63,3.98,2.65,6.51-.91-.43-1.68-.54-1.9-.95-.73-1.39-1.27-2.88-1.88-4.33-.65-1.56-1.19-1.94-2.73-1.3-1.72.72-3.43,1.59-4.94,2.67-1.3.93-2.38,1.73-4,.76-.36-.21-1.08-.03-1.53.19-1.51.74-2.67.34-3.72-1.05-.57.6-1.11,1.15-1.63,1.73-2.6,2.89-8.9,2.38-10.79-.81-1.31-2.21-2.99-4.2-4.25-5.94-1.79-.49-3.24-.88-4.99-1.36-.49.41-1.3,1.08-2.07,1.72-2.06-.59-1.81-2.56-2.73-3.98-2.37.45-4.1-.75-5.48-2.61-.77.8-1.37,1.92-2.21,2.15-.87.24-1.98-.38-3.3-.7-.58,1.1-1.22,2.41-1.94,3.69-1.4,2.51-3.03,2.72-4.74.39-1.28-1.74-2.23-3.73-3.45-5.83-1.12.83-2.15,2.54-3.69,1.35-1.05-.81-1.73-2.09-2.59-3.18-.75.4-1.48.78-2.3,1.21-1.41-1.7-1.03-3.69-1.51-5.71-1.36,1.04-2.06,2.44-2.84,3.72-.93,1.51-2.19,2.53-3.8,3.18-1.97.8-2.83.6-4.08-1.12-.58-.79-1.06-1.65-1.8-2.8-1.62,1.57-3.18,2.97-4.61,4.48-1.27,1.35-1.75,1.46-4.13.36-2.61,2.69-2.85,2.66-5.33-.75-.76,1.86-1.48,3.59-2.18,5.32-.33.83-.56,1.71-.97,2.49-1.46,2.76-3.33,3.43-6.65,2.46-2.56,3.73-2.62,3.74-5.81,1.43q-2.49,1.89-5.01.03c-.97,2.36-2.45,4.27-4.63,5.63-2.26,1.4-3.04,1.29-4.66-.93-.34-.46-.67-.93-1.31-1.8-.83,1.44-1.44,2.61-2.15,3.72-.85,1.32-1.59,2.79-2.71,3.84-1.94,1.81-3.87,1.23-4.88-1.22-.15-.36-.24-.76-.28-1.15-.03-.36.04-.74.1-1.55,1.07,1.38,1.89,2.43,2.7,3.47,1.86-.64,2.63-1.99,3.36-3.42.72-1.41,1.4-2.87,2.34-4.13,1.12-1.48,2.22-1.37,3.35.13.59.78,1.08,1.63,1.68,2.55,2.64-1.12,4.43-2.81,5.43-5.34,1.28-3.26,2.9-6.32,5.46-8.77.7-.67,1.48-1.26,2.25-1.91,1.99.81,2.64,2.53,3.53,4.04.7,1.19,1.33,2.46,2.21,3.5,1,1.17,2.04,1.22,3.05.04.87-1.02,1.54-2.29,2.01-3.56,1.44-3.94,3.17-7.71,5.99-10.88.99-1.12,2.06-2.14,3.73-2.18,1.87-.04,2.46.3,3.09,2.09.32.91.58,1.83,1.03,3.27.94-.81,1.59-1.31,2.17-1.86,1.52-1.44,2.33-1.41,3.58.26.41.55.74,1.17,1.08,1.78.74,1.35,1.78,1.53,2.95.66.85-.63,1.77-1.31,2.34-2.18,2.35-3.55,4.58-7.18,6.86-10.79.21-.33.41-.68.65-.99,2.11-2.64,3.74-2.46,5.27.56.87,1.73,1.03,3.87,3.15,5.29ZM270.35,149.63c1.84-2.86.29-4.71-.64-6.67-3.66.64-4.68.02-5.82-3.38-.24-.72-.47-1.44-.79-2.44-.75.66-1.28,1.06-1.73,1.54-2.52,2.71-3.64,2.61-5.48-.58-.44-.77-.71-1.63-1.08-2.44-.41-.88-.84-1.75-1.48-3.07-2.43,2.5-3.58,5.31-4.93,7.98-.11.22.05.58.1.87.18,1.07.34,2.15.56,3.21.05.25.3.46.48.72.65-.62,1.24-1.19,1.93-1.84,1.1,1.84,2.09,3.49,3.23,5.39,1.21-1.33,2.15-2.36,3.24-3.55,1.84,3.21,2.65,6.59,5.38,8.92,2.19-2.25,2.43-5.46,4.78-7.38.75.9,1.4,1.69,2.26,2.72ZM206.64,151.61c-4.66,3.94-5.57,6.2-3.73,9.1.79-.87,1.55-1.7,2.44-2.68.91,1.04,1.69,1.92,2.5,2.85,1.9-2.36,2.15-2.76,1.65-3.82-.83-1.76-1.8-3.45-2.87-5.44ZM223.74,150.27c.4-.59.76-1.16,1.17-1.68.38-.49.83-.94,1.33-1.5.78.85,1.36,1.49,2.01,2.19,1.16-.8,1.75-1.57.97-2.97-.46-.84-.54-1.88-.85-2.81-.4-1.2-1.29-1.58-2.29-.86-1.02.73-1.96,1.64-2.75,2.62-1.84,2.28-1.79,2.36.41,5.03ZM307.1,160.35c1.27-1.23,2.13-2.06,3.19-3.08.35.79.44,1.43.76,1.6.49.26,1.3.46,1.72.23,1.02-.58,1-2.02.22-3.74-.53-1.17-1.49-1.71-2.62-1.29-2,.76-3.33,2.38-4.23,4.25-.17.34.5,1.09.97,2.03ZM279.78,150.1c.49,1.13.92,2.1,1.36,3.13.93-.81,1.72-1.5,2.26-1.96,1.59-.01,1.94,2.12,3.67,1.3-.8-2.2-1.24-4.47-3.68-5.86-1.12,1.05-2.26,2.11-3.62,3.39Z"/>
    <path d="M285.18,230.58c-3.72-.13-6.36,1.42-8.61,3.55-3.98,3.77-7.46,7.95-9.79,12.98-1.32,2.85-2.88,5.63-3.01,9.21,5.63,0,11.14-.01,16.65,0,2.56,0,3.49.57,3.65,2.1.16,1.54-.97,2.91-3,3.51-.94.27-1.93.52-2.91.53-6.34.08-12.68.09-19.03.11-.58,0-1.17-.13-2.19-.24-.04-1.34-.32-2.71-.08-3.97,2.01-10.5,7.08-19.47,14.13-27.37,3.29-3.69,7.61-5.83,12.4-6.52,6-.86,9.21,2.27,7.34,8.79-.59,2.07-1.74,3.99-2.73,5.93-.3.58-.85,1.26-1.41,1.42-.87.25-2.03.41-2.73.02-.51-.29-.76-1.6-.61-2.36.38-1.93,1.06-3.81,1.59-5.71.15-.54.19-1.12.34-1.98Z"/>
    <path d="M172.56,232.83c-2.05-.13-3.74-.13-5.4-.36-2.28-.33-3.18-1.22-3.21-2.84-.03-1.51.7-2.36,2.87-2.82,1.63-.35,3.33-.55,5-.58,5.25-.1,10.51-.15,15.76-.05,1.42.03,2.94.43,4.2,1.08,1.32.69,1.28,1.97.07,2.91-1.69,1.32-3.69,1.85-5.82,1.96-2.17.11-4.34.29-6.8.45-1.83,4.19-3.67,8.33-5.44,12.5-2.25,5.28-4.45,10.58-6.68,15.87-.08.18-.17.36-.26.53-.8,1.41-1.64,2.84-3.56,2.65-1.49-.15-2.83-2-2.6-4.16.21-1.92.82-3.87,1.64-5.63,3.05-6.56,6.26-13.04,9.4-19.55.25-.52.46-1.07.83-1.94Z"/>
    <path d="M172.34,256.34c.08-5.07,1.91-8.91,5.12-12.11,2.22-2.21,4.89-2.99,7.88-1.9,2.96,1.08,4.24,3.52,4.38,6.48.27,5.75-2.25,10.33-6.49,13.99-3.94,3.4-9.82.68-10.68-4.27-.15-.87-.16-1.77-.2-2.18ZM182.43,247.25c-4.23,4.79-5.22,8.84-2.78,11.12,2.75-2.44,3.82-5.64,4.13-9.14.05-.55-.78-1.17-1.36-1.98Z"/>
    <path d="M296.32,240.01c-2.14.02-3.27-.91-3.21-2.62.06-1.73,1.55-3.37,3.13-3.44,1.7-.08,3.56,1.63,3.6,3.31.04,1.71-1.28,2.74-3.52,2.75Z"/>
    <path d="M221.06,238.25c-.04,1.98-1.2,3.05-3.23,2.98-1.89-.06-3.11-1.4-3-3.28.1-1.86,1.64-3.15,3.65-3.06,1.53.06,2.62,1.48,2.58,3.36Z"/>
    <path d="M293.59,198.15c2.47.47,4.22,1.42,5.32,3.32.96,1.64.55,3.39-.93,4.41-1.41.98-2.76.55-3.14-1.12-.47-2.06-.8-4.15-1.26-6.61ZM296.65,205.22c1.5-2.79,1.45-2.95-.93-4.4.3,1.41.55,2.59.93,4.4Z"/>
    <path d="M298.11,194.67c2.1-.42,3.74-.26,5.1.86.64.53,1.33,1.36,1.41,2.12.08.71-.45,1.68-1.01,2.21-.75.71-1.73.42-2.32-.4-1.07-1.49-2.04-3.06-3.18-4.79ZM301.93,196.28c-.23.17-.45.34-.68.52.47.58.94,1.15,1.41,1.73.19-.15.38-.3.57-.44-.43-.6-.87-1.2-1.3-1.8Z"/>
    <path d="M286.23,208.02c.21-2.19.39-3.97.58-5.91,1.9.43,3.28.96,3.53,2.7.19,1.27-1.16,2.38-4.11,3.21ZM287.77,206q1.02-1.08.07-1.91c-.1.28-.26.53-.26.78,0,.35.11.69.19,1.14Z"/>
    <path class="cls-14" d="M296.65,205.22c-.38-1.81-.64-2.99-.93-4.4,2.38,1.45,2.43,1.61.93,4.4Z"/>
    <path class="cls-14" d="M301.93,196.28c.43.6.87,1.2,1.3,1.8-.19.15-.38.3-.57.44-.47-.58-.94-1.15-1.41-1.73.23-.17.45-.34.68-.52Z"/>
    <path class="cls-14" d="M287.77,206c-.08-.44-.19-.79-.19-1.14,0-.25.16-.5.26-.78q.95.83-.07,1.91Z"/>
    <g>
      <path d="M252.82,282.16c-.42-.16-.83-.36-1.26-.47-.84-.22-1.49-.59-1.41-1.58.07-.95.56-1.6,1.48-1.93,2.69-.96,6,1.29,6.1,4.18.02.54-.09,1.09-.15,1.62q1.81,1.92,1.82,4.28c2.54,1.47,2.86,2.35,1.86,5.16-.16.44-.31.9-.53,1.31-1.31,2.46-1.57,5.21-2.19,7.87-.82,3.51-1.73,7-2.61,10.5-.1.38-.21.76-.4,1.1-.83,1.51-1.97,1.84-3.24.69-.84-.76-1.65-1.76-2.02-2.81-1.9-5.42-3.37-10.95-4.27-16.63-.1-.61-.32-1.2-.45-1.81-.37-1.78-.85-3.56.95-4.96.29-.22.35-.82.41-1.26.31-2.48,1.48-3.76,3.93-4.27.67-.14,1.34-.32,2.01-.49-.01-.17-.02-.34-.03-.51ZM246.44,290.55c0,.65-.02,1.19,0,1.72.05.91.52,1.46,1.46,1.48,3.88.12,7.3-.79,9.46-4.37.36-.59.75-1.28.76-1.93.01-.6-.33-1.35-.76-1.77-.59-.58-1.26-.26-1.82.34-.53.57-1.14,1.06-1.74,1.56-2.09,1.76-4.61,2.52-7.37,2.97ZM248.54,288.63c3.58-.81,5.87-3.06,7.8-5.78.19-.26.15-.76.06-1.12-.52-2.2-2.81-2.99-5.1-1.59.75.31,1.45.46,1.97.86.45.34.97.97.95,1.45-.02.47-.6,1.09-1.09,1.32-.76.36-1.66.42-2.48.66-2.04.6-2.6,1.62-2.11,4.2ZM259.97,290.05c-.84.29-1.65.37-2.18.8-1.46,1.18-2.8,2.51-4.3,3.89.94.12,1.84.29,2.74.35,2.9.19,4.32-1.5,3.74-5.04ZM251.54,312.6c.87.74,1.52,1.3,2.19,1.88,1.76-2.4,1.71-3.07-.2-3.95-.55.57-1.12,1.17-1.98,2.08ZM251.91,303.31q1.93,1.45,3.45-.56c-.54-.37-1.08-.73-1.64-1.11-.64.59-1.15,1.06-1.81,1.67ZM249.14,301.24c.06.23.12.47.17.7.6.14,1.25.48,1.78.35.61-.14,1.12-.71,1.86-1.21-.97-.65-1.47-.98-2.09-1.4-.61.56-1.16,1.06-1.72,1.56ZM247.82,297c-.15.09-.31.19-.46.28.31.97.62,1.94,1.08,3.37.73-.76,1.1-1.14,1.61-1.68-.86-.77-1.55-1.37-2.23-1.98ZM249.68,305.66q1.61,1.23,2.75-.11-1.49-1.19-2.75.11ZM254.85,307.03q-1.24-.76-2.26.71,1.15.82,2.26-.71ZM254.88,298.97q-1.54-1.26-2.67.09c.86.63,1.65,1.66,2.67-.09ZM257.19,296.7h-2.8q1.53,1.42,2.8,0ZM248.95,296.25c.86.84,1.36,1.32,1.99,1.93.48-.55.84-.95,1.45-1.64-1.23-.11-2.05-.18-3.44-.3ZM251.48,308.67c-1.01.79-.88,1.43-.09,2.21.39-.43.76-.84,1.2-1.32-.44-.35-.73-.59-1.11-.89ZM254.87,305.4c.56.14,1.01.4,1.2.27.65-.44,1.01-1.06.52-2.15-.59.65-1.06,1.17-1.71,1.88ZM255.09,300.83c.6.78,1.17,1.09,1.74.28.14-.2.05-.77-.14-.95-.85-.81-1.13.06-1.6.67Z"/>
      <path d="M261.27,93.81c.27.39.58.83,1.01,1.45-.22.13-.41.35-.6.35-1.45,0-2.86.13-4.29.47-1.54.37-2.46-.78-3.27-1.85-.83-1.09-.32-2.19.46-2.97.94-.93.71-1.94.69-3.03-.03-1.8.98-2.89,2.52-2.54.92.21,1.99.75,2.5,1.48.6.86-.27,1.73-.92,2.41-.21.22-.53.34-.84.53.53.73.88,1.23,1.29,1.8.55-.29,1.06-.56,1.59-.85.9,1.07-.19,1.84-.14,2.76ZM258.23,93.85c-.76-.93-1.26-1.55-1.77-2.17-.16.04-.32.08-.48.12-.07.75-.15,1.51-.24,2.48.91-.16,1.49-.26,2.49-.44ZM257.68,88.89c1.02-.56,1.52-1,.51-1.72-.19-.14-.51-.09-.82-.14-.05.38-.14.6-.1.8.05.28.2.54.41,1.06Z"/>
      <path d="M318.62,121.77q4.07-2.1,4.86-1.67c-1.43,1.59-5.82,4.09-7.77,4.26.27-.89.49-1.67.75-2.44.26-.78.57-1.55.96-2.6-2.21.39-3.85,1.73-6.25,1.46,1.68-2.83,3.17-5.36,4.72-7.86.15-.24.65-.25,1.2-.45,0,2.22-1.58,3.55-2.16,5.42,2.02-.05,3.5-2.23,5.94-1.35-.71,1.66-1.39,3.25-2.24,5.24Z"/>
      <path d="M273.35,98.09c-.36-1.62-.72-3.24-1.16-5.24-1.02,1.67-1.85,3.01-2.86,4.65-.36-2.24,1.64-6.97,3.56-8.57.56,2.23,1.09,4.29,1.68,6.65,1.66-1.73,2.84-3.79,4.9-5.08.51,1.92-.18,7.43-1.1,9.17-1.42-1.48-.38-3.29-.92-5.12-1.2,1.31-2.29,2.52-3.38,3.72-.24-.06-.48-.12-.71-.18Z"/>
      <path d="M192.8,116.21c-2.63.05-4.2-1.53-4.22-4.22-.02-2.65,1.91-4.82,4.34-4.89,2.75-.09,4.82,1.58,4.88,3.93.08,3.26-1.72,5.12-5,5.18ZM190.61,111.97c0,1.66.91,2.73,2.29,2.69,1.56-.04,3.4-1.7,3.41-3.07,0-1.44-1.51-2.73-3.23-2.76-1.42-.02-2.47,1.31-2.46,3.14Z"/>
      <path d="M287.56,93.41c1.15,2.1,1.53,9.18.69,11.13-1.44-.4-1.08-1.69-1.33-2.77-1.06-.4-2.15-.81-3.26-1.24-.6.36-1.19.71-1.93,1.14-.39-.53-.74-.99-1.16-1.57,2.37-2.27,4.66-4.46,6.99-6.7ZM286.95,100.45v-3.19c-.92.86-1.57,1.46-2.27,2.11.32.28.47.49.66.57.43.17.88.28,1.6.5Z"/>
      <path d="M163.93,173.89c-.09,3.05-1.78,4.69-4.73,4.59-2.78-.09-4.51-2.05-4.42-5,.08-2.68,2.17-4.44,5.1-4.31,2.62.11,4.13,1.87,4.05,4.72ZM162.37,173.41c.02-1.48-.99-2.52-2.46-2.51-2.01.01-3.67,1.39-3.67,3.05,0,1.97.92,3.03,2.68,3.11,1.81.08,3.41-1.62,3.44-3.65Z"/>
      <path d="M290.53,105.17c1.33-2.2,2.58-4.36,3.92-6.45.61-.95,1.63-1.1,2.69-.61,2.5,1.17,3.76,4.79,2.54,7.28-.56,1.14-1.41,1.82-2.73,1.94-2.39.22-4.44-.48-6.41-2.15ZM292.65,104.45c.91,1.16,1.94,1.4,3.08,1.36,1.18-.05,2.13-.56,2.72-1.57.62-1.06.04-1.99-.59-2.79-.6-.75-1.36-1.37-2.21-2.22-1.11,1.93-2.03,3.54-3,5.23Z"/>
      <path d="M238.54,95.37v-8.68c2.08-.33,4.16-.7,6.03.99,1.22,1.1,2.17,3.52,1.71,4.81-.41,1.15-2.39,3.08-4.2,2.9-1.07-.1-2.15-.02-3.53-.02ZM240.33,93.89c3.16-.19,4.68-1.43,4.24-3.37-.15-.67-.71-1.38-1.29-1.8-.88-.64-1.83-1.54-3.27-.67.1,1.86.21,3.78.32,5.84Z"/>
      <path d="M341.33,168.81c-.08,0-.65.06-1.17-.08-.58-.16-1.35-.36-1.63-.8-1.08-1.74-1.32-3.64-.53-5.59.67-1.67,1.89-2.43,3.86-2.45,2.42-.02,4.59,2.3,4.6,4.92,0,2.44-1.53,3.92-4.2,4.01-.16,0-.31,0-.94,0ZM339.41,164.41c.01,2.15.61,2.85,2.43,2.87,1.97.02,3.2-.95,3.25-2.57.04-1.27-2.02-3.12-3.51-3.17-1.52-.04-2.18.83-2.17,2.86Z"/>
      <path d="M213.99,99.22q2.47,2,2.08,3.23c-.74-.49-1.42-.96-2.12-1.4-.75-.48-1.53-.81-2.48-.14.21,1.01.43,2.03.74,3.54-.8-.5-1.31-.63-1.48-.95-.97-1.79-1.86-3.62-2.76-5.45-.5-1.02-.15-1.79.77-2.4,1.36-.89,2.74-1.48,4.41-.86,1.69.63,2.1,1.37,1.52,3.04-.15.44-.41.84-.69,1.39ZM213.56,96.99c-1.86-1.04-3.62-.79-3.78.49.22.42.51.95.9,1.7,1.02-.78,1.9-1.45,2.88-2.19Z"/>
      <path d="M326.72,140.29c1.48-1.85,6.86-4.4,8.75-4.2q-.3,1.08-2.77,2.9c.61,1.13,1.22,2.28,1.79,3.34,1.23.35,2.21-1.31,3.6,0-.62.5-1.09.97-1.65,1.32-1.26.8-2.55,1.56-3.83,2.32-.83.5-1.6.59-2.31-.54.81-.62,1.59-1.22,2.53-1.93-.55-1.24-1.1-2.5-1.66-3.78-1.54.07-2.73,1.72-4.45.57Z"/>
      <path d="M170.18,150.24c-.21.6-.24,1.26-.51,1.37-1.13.47-1.19,1.57-1.66,2.44-.36.68-.46,1.25.16,1.91.25.27.13.89.21,1.65-3.33-.98-4.99-3.45-7-5.44-.43-.42-.59-1.12-1-1.95,3.42-.19,6.42-.93,9.79.02ZM167,152.09h-2.82c.68.79,1.2,1.39,1.89,2.18.38-.88.61-1.42.94-2.18Z"/>
      <path d="M202.71,98.73c.18-.09.27-.17.32-.15,3.27,1.11,4.92,6.19,2.93,8.99-1.4,1.97-3.16,2.22-5,.68-1.75-1.46-2.58-3.52-3.45-5.53-.05-.12.19-.37.49-.9.72,1.03,1.37,1.85,1.89,2.75.62,1.07,1.41,1.85,2.57,2.31.82.33,1.65.34,2.15-.34.35-.49.57-1.34.4-1.89-.34-1.11-.98-2.12-1.5-3.18-.43-.88-1.14-1.7-.79-2.74Z"/>
      <path d="M350.19,182.81c-.21,1.93-.4,3.69-.61,5.64-2.18-.87-.41-2.83-1.54-3.94h-2.02c-.2,1.42-.39,2.74-.58,4.06-.19.02-.39.03-.58.05-.28-1.29-.57-2.57-.87-3.94h-1.88c-.14,1.46-.29,2.9-.44,4.5-1.7-.54-1.08-1.84-1.2-2.76-.13-.98-.03-1.99-.03-3.25,3.38.26,6.34-1.4,9.75-.37Z"/>
      <path d="M308.9,107.57c-.82-.37-1.66-.71-2.45-1.13-1.03-.55-1.43,0-1.76,1,.43.35.93.7,1.37,1.12.43.41.79.88,1.31,1.47-1.72.82-2.64-.52-3.93-.9-.43.46-.89.96-1.39,1.51,1.09,1.19,2.83,1.53,3.56,3.12-1.46.13-3.18-.77-5.36-2.73,1.42-2.19,2.82-4.43,4.32-6.59.23-.33,1.17-.62,1.38-.45,1.16.96,2.68,1.59,3.29,3.09-.11.16-.23.32-.34.48Z"/>
      <path d="M281.24,291.33c-.05,2.16-.85,3.39-2.06,3.79-1.17.39-2.64-.15-3.32-1.57-.59-1.24-.97-2.63-1.16-3.99-.18-1.27.66-2.23,1.67-2.91,1.65-1.11,3.01-.79,3.8,1.04.58,1.34.84,2.82,1.08,3.64ZM276.71,287.96c-.72,1.77-.53,3.48.47,5.07.58.92,1.84.93,2.33.12.99-1.64-.62-4.75-2.8-5.19Z"/>
      <path d="M186.08,122.6c.49-1.1,2.18-1.5,1.69-3.27-.57.13-1.14.25-1.7.4-.75.2-1.49.48-2.25.63-.99.19-1.82-.11-2.46-.97-.65-.87-.27-1.66.11-2.41.71-1.4,1.65-2.57,3.54-2.86.23,2.07-2.36,2.26-2.17,4.17.45,0,.94.05,1.41,0,1.16-.14,2.3-.43,3.46-.49,1.47-.07,2.09.68,2.12,2.18.02,1.27-.78,2-1.67,2.65-.62.45-1.33.86-2.07-.03Z"/>
      <path d="M159.29,157.74c.51,1.01.39,1.72-.09,2.57-.99,1.73-.59,3.78.67,4.38,1.52.72,4.08-.33,4.75-2.02.19-.49.14-1.08.2-1.62.06-.5.13-1.01.22-1.74.47.26.9.37.93.54.13.83.32,1.72.16,2.52-.43,2.16-2.66,3.94-4.91,4.12-1.74.14-3.37-.82-3.98-2.35-.78-1.94.07-4.77,2.04-6.4Z"/>
      <path d="M228.64,88.8q4.73-.94,5.71.17c-1.1.27-2.05.51-3,.74-.96.24-1.02.83-.63,1.57.85.85,2.44-.4,3.18,1.38-1.04.24-1.96.45-3.04.69.19.84.36,1.59.58,2.55h4.22c-.31,1.18-1.05,1.13-1.72,1.22q-3.56.47-4.37-3c-.34-1.44-.73-2.87-1.05-4.31-.06-.28.07-.6.12-1.02Z"/>
      <path d="M226.67,96.46c-1.18,2.44-3.05,3.49-4.88,3.12-2.03-.41-3.34-1.99-3.45-4.16-.14-2.77,1.95-5.21,4.52-5.15.5.01.98.48,1.47.74-.39.3-.76.66-1.19.86-.34.16-.78.09-1.15.2-1.96.59-2.82,3.4-1.54,5.02.63.8,3.05.9,4.36.21.48-.25.98-.45,1.85-.84Z"/>
      <path d="M214.57,288.7c.81.62,1.53,1.17,2.63,2.01-.79.26-1.24.56-1.64.51-.61-.07-1.21-.33-1.77-.6-1.5-.72-1.7-1.3-.97-2.76.74-1.47,1.53-2.91,2.28-4.37.36-.7.83-1.12,1.68-.92,1.37.33,2.58.93,3.78,1.96-1.03.91-1.78.36-2.52.07-1.2-.48-1.75-.05-1.86,1.16.81.54,1.57,1.04,2.4,1.58-.71,1.18-1.45.58-2.05.27-1.09-.56-1.6-.1-1.96,1.08Z"/>
      <path d="M180.54,132.85c-1.07-.56-2.19-1.03-3.19-1.69-1.11-.73-2.17-1.06-3.51-.66-.99.3-2.1.5-3.24-.32,1.38-1.49,3.38-.73,4.74-1.69.53-1.58-1.56-3.19-.04-4.8,1.51.38,1.39,1.7,1.56,2.67.29,1.68.47,3.15,2.63,3.57.67.13,1.09,1.49,1.62,2.29-.19.21-.39.42-.58.63Z"/>
      <path d="M338.99,176.73c4.66-3.88,7.37-5.56,9.21-5.7-.27,1.35-1.5,1.74-2.31,2.47-.8.72-1.74,1.29-2.84,2.09,1.19.85,2.33,1.21,3.53,1.45.61.12,1.24.23,1.82.45.21.08.42.51.39.73-.04.23-.37.43-.61.58-.11.07-.31.05-.46.02-2.79-.66-5.59-1.34-8.73-2.09Z"/>
      <path d="M274.37,295.34c-1.56,1.81-3.08,2.24-5.49,1.56.95-2.1,1.89-4.18,2.79-6.17-1.48-1.17-2.25-.03-3.11.41-.83-.34-1.02-.81-.42-1.45.96-1.03,2.9-1.28,4.13-.56.75.44,1.2,1.08.94,1.95-.41,1.41-.9,2.79-1.39,4.26h2.55Z"/>
      <path d="M323.78,135.99c-.4-.5-.69-.85-1.09-1.35,2.19-1.61,4.3-3.17,6.28-4.63.4-1.04-1.06-1.87.18-2.88,1.18.63,1.27,2.02,1.86,3.01.58.99,1.96,1.61,1.67,3.49-.9-.61-1.56-1.06-2.34-1.59-2.08,1.25-4.21,2.53-6.56,3.94Z"/>
      <path d="M343.67,151.94c-2.06,2.23-5.05,1.95-7.12,3.67.28,1.01.56,2.05.86,3.12-.24.14-.45.37-.62.34-1.19-.21-2.45-2.1-2.49-3.78-.03-1.19.65-1.78,1.8-2.1,1.28-.35,2.51-.9,3.74-1.41,1.14-.47,2.25-.52,3.82.16Z"/>
      <path d="M163.68,142.85c2.65-.09,4.69,1.38,7.04,2.34.64-1.06,1.3-2.14,2.08-3.43.71,1.03.99,1.83.51,2.62-.68,1.12-1.47,2.17-2.3,3.18-.16.2-.79.18-1.11.05-2.48-.99-4.39-2.76-6.21-4.76Z"/>
      <path d="M162.41,186.95c-2.96-.46-6.05-.19-8.96-1.23-.01-.17-.03-.34-.04-.5.36-.18.72-.5,1.1-.53,1.57-.09,3.14-.06,4.71-.14,1.76-.09,1.95-.29,2.18-2.07q.14-1.06.9-1.95c.91,1.42.97,3.5.12,6.42Z"/>
      <path d="M227.6,287.51c-1.1,1.42-2.81-1.24-3.82.93.41.56.87,1.27,1.42,1.89.8.9.63,1.87.36,2.87-.06.22-.17.45-.33.61-.91.88-1.91.37-2.87.12-1.02-.27-1.76-.81-1.8-2.1,1.38-.21,2.34,1.65,3.82.11-.4-.6-.77-1.32-1.3-1.9-.82-.91-1.09-1.9-.61-3.02.4-.93,1.28-1.03,2.18-1.02,1.25.01,2.54-.08,2.95,1.5Z"/>
      <path d="M174.59,138.58c.87-1.28,1.52-2.25,2.19-3.19.06-.08.29-.05.8-.11-.03.68-.03,1.31-.12,1.93-.03.2-.26.38-.4.57-2.86,3.79-2.84,3.25-5.8.95-.99-.77-2.05-1.45-3.08-2.17q-.52-.37-.26-1.74c2.21,1.25,4.36,2.46,6.67,3.77Z"/>
      <path d="M235.26,289.49c-.48.16-.74.29-1.01.33-.3.04-.61.01-.9.01-.15.26-.32.44-.38.65-.37,1.27-.72,2.55-1.07,3.83-.08.3-.03.7-.22.89-.33.34-.78.55-1.18.82-.13-.4-.43-.83-.37-1.2.15-.92.47-1.81.7-2.71.21-.82.38-1.65.59-2.56-.81-.44-1.52-.82-2.77-1.49.97-.32,1.58-.76,1.96-.61,1.5.57,3.36.39,4.64,2.05Z"/>
      <path d="M289.96,291.97c.18-2.43.35-4.86.53-7.23-1.26-.59-2.22,1.1-3.4.22.97-1.35,2.99-2.39,5.69-2.82-1.42,3.25-.86,6.75-1.93,9.95-.29-.04-.59-.08-.88-.12Z"/>
      <path d="M281.65,287.7c.79-1.2,1.38-2.1,2.02-3.07,1.08,1.22,2.29,4.68,2.71,7.56.06.38-.15.8-.24,1.2-.17.03-.34.06-.51.09-.36-.96-.75-1.9-1.08-2.87-.33-.96-.61-1.93-.92-2.91h-1.98Z"/>
      <path d="M326.9,124.06c-1.51,2.75-4.19,4.08-6.89,6.27.09-.99-.03-1.56.19-1.79,1.88-1.96,4.08-3.49,6.69-4.48Z"/>
      <path d="M233.14,296.02c.82-.59,1.2-1.08,1.57-1.08.41,0,.82.46,1.23.72-.29.39-.54,1.07-.88,1.11-.45.07-.97-.35-1.92-.76Z"/>
      <path class="cls-14" d="M246.44,290.55c2.76-.46,5.28-1.21,7.37-2.97.6-.5,1.21-.99,1.74-1.56.56-.6,1.22-.92,1.82-.34.44.43.77,1.18.76,1.77-.01.65-.41,1.33-.76,1.93-2.16,3.58-5.58,4.49-9.46,4.37-.94-.03-1.42-.57-1.46-1.48-.03-.53,0-1.07,0-1.72Z"/>
      <path class="cls-14" d="M248.54,288.63c-.5-2.58.06-3.59,2.11-4.2.82-.24,1.72-.3,2.48-.66.49-.23,1.07-.85,1.09-1.32.02-.48-.5-1.11-.95-1.45-.52-.39-1.22-.55-1.97-.86,2.29-1.4,4.59-.61,5.1,1.59.08.36.12.86-.06,1.12-1.93,2.72-4.22,4.98-7.8,5.78Z"/>
      <path class="cls-14" d="M259.97,290.05c.58,3.53-.84,5.23-3.74,5.04-.9-.06-1.8-.23-2.74-.35,1.5-1.38,2.84-2.71,4.3-3.89.53-.43,1.34-.5,2.18-.8Z"/>
      <path class="cls-14" d="M251.54,312.6c.86-.9,1.44-1.51,1.98-2.08,1.92.89,1.96,1.55.2,3.95-.67-.57-1.32-1.13-2.19-1.88Z"/>
      <path class="cls-14" d="M251.91,303.31c.66-.6,1.16-1.07,1.81-1.67.57.38,1.1.74,1.64,1.11q-1.52,2-3.45.56Z"/>
      <path class="cls-14" d="M249.14,301.24c.55-.5,1.11-1.01,1.72-1.56.63.42,1.12.75,2.09,1.4-.74.51-1.25,1.07-1.86,1.21-.54.13-1.18-.22-1.78-.35-.06-.23-.12-.47-.17-.7Z"/>
      <path class="cls-14" d="M247.82,297c.68.61,1.37,1.21,2.23,1.98-.51.53-.88.92-1.61,1.68-.46-1.43-.77-2.4-1.08-3.37.15-.09.31-.19.46-.28Z"/>
      <path class="cls-14" d="M249.68,305.66q1.27-1.3,2.75-.11-1.14,1.33-2.75.11Z"/>
      <path class="cls-14" d="M254.85,307.03q-1.11,1.53-2.26.71,1.02-1.48,2.26-.71Z"/>
      <path class="cls-14" d="M254.88,298.97c-1.02,1.74-1.81.71-2.67.09q1.13-1.35,2.67-.09Z"/>
      <path class="cls-14" d="M257.19,296.7q-1.27,1.42-2.8,0h2.8Z"/>
      <path class="cls-14" d="M248.95,296.25c1.39.12,2.2.19,3.44.3-.61.69-.96,1.09-1.45,1.64-.63-.61-1.13-1.1-1.99-1.93Z"/>
      <path class="cls-14" d="M251.48,308.67c.38.3.67.54,1.11.89-.44.48-.81.89-1.2,1.32-.79-.77-.91-1.42.09-2.21Z"/>
      <path class="cls-14" d="M254.87,305.4c.65-.71,1.12-1.23,1.71-1.88.49,1.09.14,1.72-.52,2.15-.19.13-.64-.13-1.2-.27Z"/>
      <path class="cls-14" d="M255.09,300.83c.47-.61.75-1.48,1.6-.67.19.18.28.75.14.95-.57.81-1.14.51-1.74-.28Z"/>
      <path class="cls-14" d="M258.23,93.85c-1,.17-1.57.28-2.49.44.1-.98.17-1.73.24-2.48.16-.04.32-.08.48-.12.51.62,1.01,1.24,1.77,2.17Z"/>
      <path class="cls-14" d="M257.68,88.89c-.21-.52-.36-.78-.41-1.06-.04-.2.05-.43.1-.8.3.05.62,0,.82.14,1.01.72.52,1.17-.51,1.72Z"/>
      <path class="cls-14" d="M190.61,111.97c0-1.83,1.05-3.16,2.46-3.14,1.72.03,3.24,1.32,3.23,2.76,0,1.36-1.85,3.02-3.41,3.07-1.38.04-2.29-1.02-2.29-2.69Z"/>
      <path class="cls-14" d="M286.95,100.45c-.72-.22-1.18-.33-1.6-.5-.2-.08-.34-.29-.66-.57.7-.65,1.34-1.25,2.27-2.11v3.19Z"/>
      <path class="cls-14" d="M162.37,173.41c-.03,2.04-1.63,3.73-3.44,3.65-1.77-.08-2.69-1.14-2.68-3.11,0-1.66,1.66-3.04,3.67-3.05,1.47,0,2.48,1.03,2.46,2.51Z"/>
      <path class="cls-14" d="M292.65,104.45c.97-1.69,1.89-3.3,3-5.23.86.85,1.62,1.47,2.21,2.22.64.8,1.22,1.72.59,2.79-.59,1.01-1.55,1.52-2.72,1.57-1.14.05-2.17-.2-3.08-1.36Z"/>
      <path class="cls-14" d="M240.33,93.89c-.11-2.06-.22-3.98-.32-5.84,1.44-.87,2.39.02,3.27.67.57.42,1.14,1.13,1.29,1.8.44,1.94-1.08,3.18-4.24,3.37Z"/>
      <path class="cls-14" d="M339.41,164.41c-.01-2.03.65-2.91,2.17-2.86,1.5.04,3.56,1.9,3.51,3.17-.05,1.62-1.28,2.59-3.25,2.57-1.83-.02-2.42-.72-2.43-2.87Z"/>
      <path class="cls-14" d="M213.56,96.99c-.98.75-1.86,1.42-2.88,2.19-.4-.75-.68-1.28-.9-1.7.16-1.28,1.92-1.53,3.78-.49Z"/>
      <path class="cls-14" d="M167,152.09c-.33.76-.56,1.3-.94,2.18-.68-.79-1.21-1.39-1.89-2.18h2.82Z"/>
      <path class="cls-14" d="M276.71,287.96c2.17.44,3.78,3.55,2.8,5.19-.49.81-1.75.8-2.33-.12-1-1.59-1.19-3.3-.47-5.07Z"/>
    </g>
  </g>
  <g>
    <polygon class="cls-7" points="66.65 166.99 14.29 243.63 16.9 246.93 116.78 243.46 80.9 177.56 70.23 165.09 66.65 166.99"/>
    <path class="cls-13" d="M98.71,204.34c3.51.51,2.58,5.9,6.25,6.23.1,3.85,2.07,5.65,4.51,6.9-.28,4.06,2.02,5.28,4.46,6.32.28,1-.4,1.13-1.12,1.25.83.81,2.79,1.35,1.33,2.9.46-.34.95-.66,1.75-.68.28,1.19-.03,1.86-1.1,1.84,1.18,1.5,4.6,4.74,2.67,5.81.6,1.01,1.92,1.21,3.61,1.01.33,4.86,3,7.12,2.99,12.34-.57-.34-2.24-1.28-1.74.68-1.07-1.12-4.14-.02-4.28-2.17-1.31,2.35-4.07-1.55-7.05,1.54-1.8.3-1.33-1.87-1.94-2.88-1.7.59.85,1.45.15,2.97-.46-.38-2-2.41-1.77.09-8.28-.58-20.59-.62-27.92.19-.03-.59-.07-1.18-.09-1.77-2.68,1.57-5.81,1.88-8.31.4-1.61,2.32-12.63,2.38-16.01.8-6.52,3.76-21.02.22-24.17,4.16-5.11-2.87-13.92.38-20.31-1.96-.61-1.87.39-2.28,1.04-3.03-2.39-.09-1-.46-1.38-4.09,2.76-.89,3.9-3.25,3.84-6.72,2.74.42,1.19-3.06,4.02-2.59-.51-1.8-.47-1.11-.15-2.96,4.03.46,1.59-4.98,5.09-5-.41-.58-1.39-.55-1.27-1.73,2.38.66,1.11-2,3.5-1.36-.05-.99-.1-1.98-.15-2.97.51-.48,1.31-.7,2.34-.7,3.48-8.95,9.99-15.13,13.69-23.86,2.05-.03,2.69-1.33,2.19-3.67,1.74.07,1.75-1.44,3.51-1.37,1.44-7.95,9.01-10.35,10.39-18.35,6.51-1.46,4.95-10.24,11.3-11.85-.41-.58-1.39-.55-1.28-1.72,1.95-.12,2.9-1.16,5.32-.86,2.66,1.88-.7,3.07,3.1,2.82-2.45,2.68.76,10.53,3.43,9.33.88.15.16,4.49,3.17,4.01-.32,1.83.73,2.13.78,3.52,7.64,6.37,9.1,19.57,16.74,25.92.26,1-.41,1.15-1.13,1.25ZM64.05,176.93c-1.87.83-.53-1.9-2.43-1.07-.9.3-.4,1.9-2.29,1.31-.73,3.12-1.47,6.22-4.4,7.36-.71,3.27,1.67,3.15,2.61,4.62-4.12,3.02-4.14,12.69-11.43,9.47.67,1.77,2.84,1.86,3.17,4.01-1.56.81-2.72,1.12-3.5,1.36,2.53,2.06-.66,1.55-1.64,3.06-2.53,3.93-3.9,10.12-8.35,11.11-.16,2.87-1.21,4.96-3.9,5.53,1.5,3.08-.87.43-1.71,1.87,3.82.72-2.44,2.61.22,4.16-4.22.88-3.19,6.54-6.12,8.62-.38-1.02.55-3.52-.76-3.53,0,.93.19,2.05-1.1,1.84-.63,1.95,1.94.36,1.31,2.31-2.46.6-2.01,3.85-3.29,5.52,6.18-1.37,16.23-1.47,23.13-1.15.1-.46-.04-1.17.53-1.21,23.01,2.1,41.35-1.48,69.44-2.24-1.29-6.24-6.79-9.22-8.95-12.64-.72-5.27-5.7-5.8-5.92-11.59-2.66.4-2.28-2.11-1.96-3.46-2.36.06-4.5-3.78-2.6-4.63-1.85,1.01-1.99-.34-3.62-1.01-4.28-12.94-14.51-22.09-19.43-32.32.02.6-1.01.79-1.19.05.72-.09,1.39-.24,1.13-1.25-1.65.58-1.58-.76-3-.44-2.87,4-4.15,9.45-8.94,11.73,1.25,2.04-.44,2.89-1.57,4.25-.71-2.35-.14-4.62.87-6.59.98-.03.4,1.63,1.27,1.73.13-2.55,2.17-7.4,3.91-4.95-.06-.82.21-1.31.49-1.8Z"/>
  </g>
  <text class="cls-5" transform="translate(46.95 224.98)"><tspan x="0" y="0">2C</tspan></text>
  <text class="cls-6" transform="translate(43.94 234.28)"><tspan x="0" y="0">37</tspan></text>
</svg>