<?xml version="1.0" encoding="UTF-8"?>
<svg id="Layer_1" xmlns="http://www.w3.org/2000/svg" viewBox="0 0 400 400">
  <defs>
    <style>
      .cls-1 {
        fill: #027fae;
      }

      .cls-1, .cls-2, .cls-3, .cls-4, .cls-5 {
        fill-rule: evenodd;
      }

      .cls-2, .cls-6 {
        fill: #fff;
      }

      .cls-3 {
        fill: #ed1c24;
      }

      .cls-6 {
        font-family: AmericanTypewriter-CondensedBold, 'American Typewriter';
        font-size: 44px;
        font-weight: 700;
      }

      .cls-5 {
        fill: #231f20;
      }
    </style>
  </defs>
  <g>
    <path class="cls-4" d="M231.84,219.99c-.08-.12-.15-.23-.23-.34.27-.36.39.29.68-.19.18.25-.34.35-.45.54Z"/>
    <path class="cls-2" d="M230.74,221.04c.07-.06.14-.1.21-.17.06.09.1.16.16.24-.08.06-.14.12-.22.17-.05-.07-.1-.15-.15-.24Z"/>
    <path class="cls-2" d="M229.26,223.5c.07-.06.14-.12.22-.18.04.09.1.16.15.25-.07.05-.15.1-.22.16-.05-.08-.1-.16-.15-.24Z"/>
    <path class="cls-2" d="M235.52,220.47c.2-.43.64.28.23.35-.08-.11-.15-.24-.23-.35Z"/>
    <path class="cls-2" d="M237.19,221.09c.08-.05.14-.11.22-.16.06.08.1.15.16.23-.08.06-.15.11-.22.18-.05-.09-.1-.17-.16-.25Z"/>
    <path class="cls-4" d="M237.31,222.26c.05.09.1.16.15.24-.07.05-.14.12-.21.17-.05-.08-.1-.16-.16-.23.07-.07.15-.11.22-.18Z"/>
    <path class="cls-2" d="M226.68,232.03c.07-.06.14-.12.22-.18.05.08.1.16.15.24-.07.06-.14.12-.21.17-.05-.08-.1-.16-.16-.24Z"/>
    <path class="cls-2" d="M234.01,228.13c.06-.05.13-.1.2-.16.06.07.1.16.16.23-.08.06-.14.11-.22.18-.04-.08-.1-.15-.14-.25Z"/>
    <path class="cls-2" d="M238.23,225.47c.29-.5.42.17.68-.18-.12.25-.1.52-.3.78-.13-.19-.25-.4-.38-.59Z"/>
    <path class="cls-2" d="M226.35,236.27c.07-.07.14-.12.22-.19.04.09.09.16.14.25-.07.06-.14.12-.22.17-.05-.08-.1-.17-.14-.23Z"/>
    <path class="cls-2" d="M231.44,232.17c.07-.06.15-.11.21-.18.05.09.11.16.16.25-.07.05-.14.11-.21.16-.05-.07-.1-.15-.15-.23Z"/>
    <path class="cls-2" d="M238.03,228.15c.18-.2.35-.23.46-.02-.1.09-.21.18-.32.27-.04-.08-.1-.16-.15-.25Z"/>
    <path class="cls-2" d="M234.82,232.17c.07-.06.15-.12.21-.17.05.07.1.16.15.24-.06.06-.13.11-.21.16-.04-.08-.1-.15-.15-.23Z"/>
    <path class="cls-2" d="M235.99,237.51c.2-.41.66.29.23.36-.07-.11-.15-.23-.23-.36Z"/>
    <path class="cls-2" d="M216.91,271.67c-.05.37.03.95-.38.66-.01-.24.11-.46.38-.66Z"/>
    <path class="cls-2" d="M198.39,287.42c.06-.06.15-.12.21-.18.05.08.1.15.16.24-.07.06-.14.12-.22.18-.04-.08-.1-.17-.15-.24Z"/>
    <path class="cls-2" d="M226.62,224.89c-.08-.46.18,1.02,0,0h0Z"/>
    <path class="cls-3" d="M237.09,222.44c.06.07.11.15.16.23.07-.06.14-.12.21-.17-.05-.08-.1-.15-.15-.24-.07.07-.14.11-.22.18Z"/>
    <path class="cls-2" d="M237.82,222.57c.13-.07.22.17.36.06-.11.22.08.49-.2.69-.3-.3.28-.43-.16-.76Z"/>
    <path class="cls-2" d="M236.39,220.83c-.04.25-.15.28-.28.05.22-.24.37.04.6-.3-.15.25.53.66.07.85-.12-.18-.26-.39-.38-.59Z"/>
    <path class="cls-2" d="M236.24,221.86c-.76-.14.76.14,0,0h0Z"/>
    <path class="cls-2" d="M237.5,226.58c.23.23-.09.34.02.53-.17.2-.3-.46-.02-.53Z"/>
    <path class="cls-2" d="M237.72,226.42c.07-.06.14-.12.21-.17.09.18.2.36.33.27.18.27-.84.33-.55-.09Z"/>
    <path class="cls-4" d="M198.54,287.65c.08-.05.15-.12.22-.18-.06-.08-.11-.15-.16-.24-.07.06-.15.11-.21.18.06.07.11.15.15.24Z"/>
    <path class="cls-5" d="M370.57,103.24c.44,2.47.78,5.1.89,7.63-.2,2.56,0,5.13.43,7.64-.15,1.7-.26,3.39-.38,5.04-.44,2.99-1.04,6.17-1.28,9.2-.15.68-.62,3.51-1.16,4.2,0,.09.01.12.02.16-.03.02-.07.03-.1.05-.42,1.51-1.41,3.16-3.02,2.76-1.57-1.3-3.3-2.69-3.63-4.98.02-.49.08-1.01.13-1.52.98-3.37.75-6.93,1.74-10.34.31-.81,1.09-1.19,1.81-1.29.12-.31.34-.51.58-.79.5-3.72.98-7.26.59-11.03-.24-.69-.27-1.08-.93-.73-2.46,3.57-3.9,7.98-5.18,12.17-.06.04-.1.05-.13.06.09.27-.24.91-.41,1.11-.9,2.36-1.58,4.92-2.38,7.31-.54,1.92-1.11,4-1.79,5.89-.23,1.13-.52,3.07-.99,3.99-.34,1.42-.63,2.8-.94,4.17-.07.34-.15.68-.2.98-.54,2.37-1.8,5.28-1.66,7.7,1.16-.52,2.39-1.38,3.48-2.12,2.13-.95,4.18-2.27,6.22-3.34,3.53-1.57,7.34-3.75,11.22-3.76.29.14.61.25.93.39.84.78,2.18,1.77,2.58,2.88-.09,1.27-1.77,3.36-2.86,3.97-1.28.31-2.97.58-4.24.12-.52.1-1.01.18-1.51.22-4.36,1.99-8.64,4.2-12.75,6.79-1.31.98-2.25,2.11-3.39,3.27-.23.46-.46.92-.69,1.37-.88.65-1.45,1.4-2.12,2.27-.25,1.53-.53,3.74-.57,5.31-1.06,9.01-1,61.79-.71,70.86.15,2.06.32,4.1.49,6.16.06.15.11.3.18.4,1.13-.49.89-2.97,1.45-4.06.02-.36.08-.74.15-1.13.43-1.12,1.34-6.79,2.77-6.9.31.31.08,1.11.18,1.61-.33,2.2-.7,4.48-.9,6.69-.13,2.1-.23,4.13-.34,6.17.04.69.14,1.37.2,1.99-.17,1.23-.12,2.36-.03,3.61-.09,2.95.27,6.43-.65,9.28-.19.26-.34.51-.5.75-1.13,1.16-1.34,3.91-3.24,2.55-2.15-3.38-2.49-9.12-3.09-13.11-.83-7.91-1.37-59.35-1.75-67.28.03-1.13.06-2.29.12-3.46-.33-3.8.52-7.89.42-11.7,0-.04.52-3.42,0-3.67-1.54.11-1.64-1.3-2.02-2.56-1.33-2.54-.78-3.64,1.26-5.38.93-1.17,1.98-2.22,3.03-3.26.11-.14.22-.27.32-.45,1.4-6.51,2.98-13.1,4.64-19.56,1.35-4.44,2.62-9,3.83-13.48.13-.33.29-.65.43-.99.41-2.22,1.45-4.49,2.26-6.57.04-.25.09-.53.15-.83,1.19-2.97,2.33-6.03,3.39-9.04,1.14-2.4,1.61-6.95,4.21-8.12,1.8-.04,3.46,2.05,4.65,3.39.25.46.52.92.8,1.36h0ZM344.19,151.29c-.2,1.11-.36,2.2-.55,3.25-.6,1.86-1.22,3.69-1.8,5.5-.69.98-2.17,1.68-3.29,1.56-.23-.21-.48-.46-.69-.71-1.3.58-2.08,2.75-2.7,3.95.01.03.02.08.04.12-.62,1.38-1.28,2.86-1.74,4.36-.62,1.06-1.03,2.23-1.21,3.41-.33.64-.62,1.25-.92,1.87-.76,3.98-.98,7.83-.46,11.85.17,2.27-.11,3.25,1.24,4.73.3.13.54.29.67.63-.25,3.21.14,6.63-1.03,9.67-.42.49-.99,1.98-1.9,1.56-1.34-1.32-2.86-2.59-3.94-4.2-.94-2.63-.41-5.82-.7-8.62-.05-1.57-.11-3.27.02-4.83-.22-3.4-.3-6.86-.64-10.25.27-1.49-.02-3.4.1-4.96-.1-.84-.17-1.69-.23-2.54-.2-.77-.39-1.52-.57-2.28.13-1.65.08-3.45-.03-5.07.13-2-.12-4.59,1.89-5.49.51.08,1.05.15,1.58.18,2.38,1.23,3.21,2.2,2.96,5.54-.41.62-.46,2.06-.89,2.48.15,1.31.38,2.75.4,4.03.02.07.09.14.14.16.59-1.01.98-2.24,1.37-3.4.84-1.83,1.69-3.67,2.57-5.56,1.68-2.96,3.28-6.15,5.5-8.69,1.36-.6,3.36-.22,4.42.87.13.34.27.64.41.92h0ZM323.39,153.47c-.02.72-.03,2.04-.39,2.7-.95,4.8-1.59,9.78-1.89,14.7-.17,8.52-.3,17.18.42,25.67.01.7.02,1.41.15,2.1.33.44.65.83.99,1.2.26,1.5.53,2.96.81,4.39.27,1.78-.53,2.21-1.94,1.92-2.08.26-2.08-1.07-2.45-3.12-.04-1.35-.07-2.76-.09-4.17-.1-1.5-.2-3-.26-4.52-.87-5.2-.46-10.74-1.1-15.99-.03.02-.06.04-.08,0-.32,1.12-.51,2.35-.65,3.52-.82,3.74-1.16,7.74-2.26,11.37-.31,1.9-.41,3.85-.6,5.75-.14.6-.29,1.2-.4,1.74-.77,1.75-1.18,3.58-1.45,5.51-.29.62-.61,1.2-.88,1.77-.79.34-1.44.63-2.26.77-.31.01-.62.02-.92-.03-1.44-.61-2.98-1.12-4.23-2.1-.43-.21-.8-.49-1.1-.89-.56-1.56-.7-3.31-.58-4.96-.35-3.43-.48-6.91-.6-10.37,0-.21,0-.43.04-.67-.17-5.58-.48-11.46.06-17.07-.11-1.06-.04-2.11.05-3.17-.09-3.06-.07-6.21.28-9.25-.02-.96-.03-1.97-.2-2.92,0-1.42.39-3.89-.08-5.19-1.34.91-2.51,2.63-3.62,3.83-1.17,1.63-2.3,3.23-3.44,4.81.22.6.64.9,1.06,1.33,1.74,3.12,2.85,7.41,2.59,11.03-.65,2.55-.81,5.63-2.15,7.91-.18.7-.37,1.37-.55,2.01-1.26,3.13-2.35,6.41-3.78,9.39-1.98,3.97-4.25,8.19-6.68,12.19-.05.11-.1.18-.12.23-.85,1.48-1.61,3.28-2.49,4.69.04.46-1.28,2.21-1.46,2.69-2.2,3.5-4.19,7.26-6.3,10.81-1.11,1.55-1.84,3.52-2.81,5.1-.03.41-.68,1.23-.9,1.5-1.55,3.67-3.92,6.89-5.54,10.48-.54.92-1.07,1.76-1.6,2.62-.7,1.82-2.26,3.35-2.78,5.23-.77,1.4-1.5,2.79-2.25,4.15-.17.5-.5,1.24-.93,1.51-2.55,3.17-4.61,11.31-9.48,11.31-.77-.37-1.5-.8-2.21-1.33-2.01-3.31-.01-8.59.81-11.96.1-.49.2-.97.34-1.48,1.23-4.78,2.27-9.64,3.96-14.24.27-.92.53-1.86.78-2.83,1.4-2.84,2.27-6.18,3.93-8.87.15-.47.29-.94.48-1.42,2.52-5.73,4.82-11.83,7.59-17.41-.02-.03-.04-.12-.07-.2-.24-.11-.49-.04-.76,0-3.6,1.68-7.19,3.37-10.8,5.02-1.37,1.01-2.98,1.63-4.48,2.44-.73.5-1.48.95-2.19,1.41-3.44,1.7-6.99,3.96-10.24,6.06-.03.14-.05.29-.08.43.89,3.28,1.76,6.61,2.9,9.82.74,1.43,1.92,2.96,1.66,4.66.28,1.77-1.29,1.16-2.26.88-.28-.67-.52-1.36-.76-2.05-1.88-2.92-2.69-6.41-4.27-9.52-.22-.62-.43-1.23-.65-1.84-.62-.61-4.69,2.97-5.43,3.47-4.12,2.32-7.84,5.57-11.86,8.07-1.29.94-2.55,1.84-3.81,2.75-.32,1.78-.63,3.56-.97,5.31-.07,1.77-.16,3.52-.25,5.29-.14,1.71-.34,3.48-2.05,3.93-2.17,0-4.83-.91-6.43-2.6-.41-.82-.84-2.23-1.4-2.83-1.05.96-2.1,1.91-3.15,2.83-.14,2.05.71,4.64,1.21,6.63.33.61.7,1.43,1.25,1.85.9.07,1.95,1.92,2.48,2.65.98.84,1.73,1.26,2.08,2.7.46,2.73,1.31,5.04,2.38,7.58.44,1.44,1.17,3.73-.54,4.49-1.61-.07-3.28-.31-4.66-1.29-.31-.31-.61-.61-.88-.94-3.01-5.8-6.03-11.58-9.02-17.42-.31-.08-4.23,3.91-5.01,4.97.03.21.1.39.16.55,2.53,5.79,4.91,11.68,7.18,17.58.08,1.82-1.27,1.67-2.34.77-3.22-4.67-6.14-9.67-8.96-14.7-1.13.72-1.76,2.29-2.86,2.99-1.55,1.98-3.22,3.97-4.67,6.02-2.52,3.03-4.97,6.16-7.39,9.27-2.92,4.39-5.44,9.1-7.72,13.93-.82,1.39-1.69,3.05-2.26,4.55-.21,1.19.59,2.88.95,4-.06.82-.32,1.68-.75,2.37-1.05.46-3.11.37-3.97-.49-.2,0-.4,0-.56-.02-.66-.5-1.11-2.34-1.44-2.5-1.58-4.97-3.14-9.94-4.72-14.91-1.28-5.28-2.57-10.58-3.87-15.9-1.09-6.15-2.35-12.28-2.87-18.52-.07-.2-.13-.39-.17-.59-.63-7.42-1.36-14.84-1.33-22.3-.34-3.17.39-6.6.22-9.75.27-3.14.21-6.3.57-9.42-.22-.61-.05-2.81.18-3.4.13-2.32.25-4.63.4-7-.09-1.68.47-3.57.42-5.28.76-4.19.98-8.58,2.23-12.64.52-1.08.87-1.81,1.82-2.45,2.36-1.05,3.04,1.44,3.58,3.5-.08.43-.14.5.03.96,3.92,1.88,1.01,6.49.45,9.62-.32,1.56-.59,3.1-.9,4.61-.2,1.55-.39,3.1-.58,4.6-.53,2.89-.94,6.04-.97,8.97-.54,6.13-.83,12.46-.7,18.64-.32,1.74-.1,3.91.04,5.65-.03,4.93.45,9.93.65,14.85.73,6.62,1.53,13.22,2.57,19.8.16,1.58.32,3.14.5,4.65.54,2.29.87,4.66,1.65,6.88.69,2.48,1.56,4.93,2.4,7.38.11.32.22.61.33.92.09.06.18.06.26.07,1.08-2.09,2.72-3.96,3.78-5.97.2-.18.41-.41.61-.63-.13-.34,2.63-4.09,3.01-4.66,2-2.31,3.77-4.96,5.88-7.18,1.02-1.47,2.51-2.75,3.38-4.29.72-.89,1.61-1.69,2.41-2.49,1.15-1.44,2.5-2.65,3.83-3.91.91-1.11,2.12-3.16,3.35-3.92.31-.81-1.5-3.54-1.91-4.29-1.52-3.14-3-6.28-4.48-9.47-.7-1.96-1.36-3.92-2.01-5.89-.84-2.01-2.11-3.8-2.85-5.86-.57-2.05-.05-3.13,1.41-4.53.8-.4,1.61-.8,2.42-1.21-.13-.33.26-.5.46-.58.7.61,1.68.58,2.41,1.21.17.24.32.44.47.64.79,2.35,1.59,4.7,2.41,6.99.54,2.2,1.09,4.39,1.66,6.57.66,1.96,1.32,3.93,2,5.84.64,1.35,1.96,6.17,2.61,6.11.33-.33.67-.7,1.01-1.07,1.26-1.04,2.5-2.13,3.76-3.22-.42-1.1-.86-2.23-1.31-3.36-2.78-5.58-5.5-11.36-8.69-16.63-.66-1.65-1.35-3.34-1.99-5.05-.96-1.69-2.1-3.44-3.24-4.97-.52-1.47-1.11-2.91-.32-4.37.78-.79,1.47-1.33,2.46-1.76.62-.02,1.26.2,1.84.06.28.2.53.39.84.56.43,0,.86-.02,1.33-.05.74.19,1.56.71,2.03,1.39,2.88,9.08,6.34,18.03,9.87,26.83.19.32.37.59.58.85-.84-6.66-2.53-13.57-2.88-20.34-.4-2.78-.54-5.64-.79-8.45-.09-5.05-.15-10.42-.55-15.47.09-3.62-.01-7.38.19-11.02,0-.54,0-1.11.03-1.7.34-2.59.2-5.1.79-7.67.16-1,.34-2.05.52-3.11.77-1.98,2.75-1.53,4.08-.66,1.72,2.03,1.28,4.57,1.1,7.18.1,2.05.41,3.27-1.24,4.45-.72,1.16-.47,2.77-.96,4.06-.28,3.67-.53,7.4-.61,11.12.01,1.37.03,2.73.06,4.05.35,5.42.84,10.91,1.07,16.36.4,3.36.79,6.69,1.19,10,.61,3.75.8,7.61,1.53,11.31.07.06.12.12.17.15.66-.34,2.46-1.67,2.7-2.31-.74-3.09-1.39-6.24-1.92-9.38-.43-5.43-.82-11.19-.42-16.64.17-5.43.82-10.81,1.56-16.2.95-4.15,1.58-8.49,2.81-12.58.66-1.26,1.02-1.7,2.26-2.11.96.15,1.94.24,2.93.33,1.1.63,2.06,1.57,3,2.43.51,1.42.79,3.24.89,4.74-.12,2.67.07,5.75-.55,8.36-.12.99-.25,1.97-.34,2.94-.31,1.92-.62,3.82-.91,5.68-.33,1.74-.67,3.48-1.01,5.18-.26,1.17-.51,2.35-.73,3.51-.57,2.29-1.2,5.77-2.89,7.35-.52.19-1.05.39-1.54.56-.22,3.14.66,6.97,1.16,10.06.16.55.32,1.09.5,1.59.34.17,3.14-2.63,3.57-3,.45-3.08,1.29-6.15,2.11-9.09.98-4.46,2.71-8.74,3.57-13.23.35-1.23,1.05-2.07,1.73-3.04.51-.79,1.01-1.6,1.56-2.41.99-.44,1.35-.43,1.76.72.14,2.15-1.73,4.27-1.89,6.38-.34.15-1.76,5.6-1.97,5.82-.03.46-.27.92-.41,1.3.11.75-.5,2.39-.7,3.15-.29,2.29-1.45,4.81-1.31,7.09,1.04-.55,1.96-1.28,2.88-2.04,4.87-2.65,9.59-5.99,14.25-9.12.77-.52,1.54-1.04,2.32-1.61.16-.88-.32-1.99-.53-2.82-1.36-3.78-2.27-7.81-2.94-11.81-.18-.4-.34-.82-.51-1.28-1.01.46-2.09,2.67-2.6,3.69-.88.39-1.87.16-2.66-.37-1.83-2.46-3.83-4.31-.65-6.25.98-1.02,1.97-2.04,2.97-3.1.37-.53.75-1.04,1.14-1.58-.89-4.2-2.2-8.54-2.59-12.84-.97-4.52-1.67-9.27-2.53-13.81-.18-1.25-.35-2.31-.02-3.48.88-1.4,3.54-.65,4.42.39.35.11.7.21,1.06.32.45.51.9.98,1.38,1.42.6,1.72.86,3.78,1.19,5.59.05,1.13-.04,1.78-.53,2.72-.27,3.49,1.6,6.81,1.51,10.26.13.79.25,3.8.74,4.28.1-.04.21-.08.29-.17,1.93-2.15,3.99-4.25,5.66-6.68.84-1,2.53-2.94,3.9-2.63,1.17-.52,2.32-1.7,3.09-.35-.04,1.57-2.27,3.87-3.18,5-1.77,1.58-3.08,3.94-4.76,5.66-1.2,2.07-2.54,4.53-4.14,6.26-.13,1.97.67,4.44,1.05,6.4.32,1.93.54,4.19,1.19,6.02.55-.24,1.08-5.42,1.12-5.76.21-1.2.39-2.44.79-3.57-.3-.84-1.1-1.2-1.4-2.04.1-.4.21-.84.33-1.3,1.44-3.21,2.35-6.08,5.69-6.61,1.25-1.04,2.52-2.14,3.79-3.24,2.26-1,3.99-1.14,6.24-.3,1.48,1.16,1.95,2.02,2.05,3.97-.85,4.71-2.61,9.13-4.46,13.4-.7,1.25-1.42,2.49-2.14,3.7-.8,1.19-1.6,2.39-2.36,3.58-.06.06-1.03,1.12-.76,1.4,3.07-1.8,6.43-3.48,9.65-4.92,3.65-2.05,7.73-3.3,11.43-5.38.85-.38,1.99-.54,2.56-1.37.6-1.19,1.2-2.38,1.8-3.62,2.82-4.94,5.72-9.94,8.71-14.77,1.16-1.98,2.69-3.77,3.73-5.79,1.14-1.79,2.29-3.57,3.47-5.39,1.37-1.84,2.72-3.7,4.08-5.58.63-.81,1.24-1.62,1.89-2.47-.11-.3-.27-.5-.5-.71-2.86-1.04-6.61-.03-9.56.27-1.21.27-2.4.5-3.59.7-4.2,1.34-8.22,3.21-12.38,4.75-1.34.59-2.68,1.16-4.03,1.71-3.56,1.77-7.23,3.45-10.91,4.81-1.55,0-3.13-.1-4.6-.69-.02-.04-.03-.08-.06-.16-.78.35-2.72-1.99-3.16-2.62-.32-.92-.59-1.68-.76-2.72.3-2.39,1.71-4.09,3.03-5.96.02-.05.06-.15.11-.26,2.01-2.23,3.42-5.17,5.62-7.21.6-.75,1.16-1.3,1.59-2.2,1.76-1.85,3.52-3.69,5.3-5.59,1.58-1.28,2.79-2.54,4.12-4.14,1.2-1.19,2.43-2.41,3.66-3.62,1.44-.95,2.99-1.95,4.21-3.21,1.62-.89,3.02-2.18,4.67-3,2.08-1.5,4.32-2.78,6.61-3.79,1.1-.25,2.21-.45,3.32-.23.29.13.85.6,1.19.45.03.08.04.11.05.14,1.38.99,1.99,2.36,2.74,3.92.38,3.06-.52,5.86-.73,8.83-.35,1.79-.66,3.93-1.32,5.64-.86,1.26-2.2,1.51-2.75,2.95-.45.64-.89,1.28-1.35,1.89-2.25,1-3.91-.21-4.77-2.61.06-2.38.65-4.72,1.14-7.03.11-1.02.23-2.04.34-3.06.45-.74,1.14-1.13,1.92-1.26,1.81.43,2.36-1.18,1.99-3.01-1.23-1.23-4.84,1.88-5.91,2.53-8.41,5.75-16.14,12.76-22.68,20.95-1.05,1.4-2.72,3.07-3.35,4.72-.83.9-1.52,2.41-1.91,3.65-.03.15-.02.27-.01.4.13.17.26.28.38.41,4.51-.68,9.09-3.39,13.22-5.36,2.7-1.11,5.39-2.23,8.1-3.39,5.95-2.2,12.21-3.75,18.5-3.57,1.01.3,2.02.55,3.02.82,1.03.43,2.05.82,3.05,1.2,2.81-3.21,5.59-6.6,8.33-9.93.34-.4.09-1.59.43-1.99.94-.34,1.7-.77,2.37-1.68.48-.31.96-.64,1.43-.99.95.02,1.51.12,2.05,1.07.26,1.62.73,4.09,1.01,5.65.02,1.04.06,2.05.1,3.05-.44.99-.84,1.96-1.26,2.91-.65,5.29-.84,10.77-1.06,16.14-.4,5.31-.04,10.86-.04,16.22.04.69-.02,8.52.75,8.89.21-1.3.44-2.63.68-3.97,1.37-6.16,2.61-12.47,3.42-18.79.68-2.56,1.31-5.25,2.18-7.76.47-2.96,1.47-5.89,2.25-8.74.12-.72.25-1.49.37-2.25.81-2.27,1.36-7.43,4.39-7.14.46.29,1.12.35,1.5.76.14.28.39.77.67.9.21.48.46.95.69,1.37h0ZM292.08,166.77c.2,1.24.34,2.63.36,3.91,3.42,14.25-21.52,47.41-32.55,68.08-2.36,5.17-5.5,10.04-8.16,15.03-.28.43-.72,1.42-1.16,1.62-.04-.12-.09-.22-.13-.34.88-3.54,1.76-7.2,2.37-10.79.08-.13.13-.29.2-.44.7-3.38,1.68-6.73,2.61-10.02.37-1.09.74-2.24,1.13-3.39,1.09-3.63,2.52-7.17,4.01-10.63,1.17-3.4,2.73-6.7,4.08-10.01.96-2.02,1.93-4.53,3.12-6.43,3.12-1.65,6.6-3.03,9.85-4.34.68-.12.84-.1,1.18-.7-.05-.15-.1-.3-.16-.46-.53-.26-3.21.68-3.39.76-1.82.76-3.64,1.54-5.44,2.28-.19.04-.33.07-.5.06-.36-1,1.56-3.71,2-4.83,3.02-5.65,6.03-11.55,9.68-16.76.37-.6.75-1.22,1.13-1.83,2.04-2.27,3.8-5.22,5.65-7.73.9-1.47,2.03-2.72,3.01-4.1.11-.04.25-.11.39-.17.29.14.57.95.71,1.24h0ZM247.89,192.28c-.57,4.07-2.53,8.13-4.41,11.62-.85,1.05-2.31,4.44-3.66,4.64-.05-.16-.12-.34-.16-.55.17-1.66.3-3.37.45-5.07-.06-1.43.67-2.15,1.24-3.42.04-.36.06-.74.11-1.16-.08-.54-.16-1.11-.22-1.71.91-.9,1.81-1.79,2.77-2.69.95-.55,2.55-2.16,3.57-2.08.11.18.2.32.31.44h0ZM239.73,214.96c-.93.63-2.08,1.05-3.1,1.51-.53.32-1.06.6-1.6.89-.52-1.46-.74-3-1.06-4.53,1.07.67,2.14,1.34,3.21,1.98.82.11,1.45.06,2.26-.07.09.22.29.23.29.23h0ZM206.03,195.27c.18,6.07-.74,12.16-2.73,17.83-.15.82-.46,2.37-1.03,2.88-.4-1.15.08-2.99.08-4.23.13-1.31.26-2.6.43-3.92.39-2.6.77-5.21,1.13-7.86.26-1.13.62-3.24,1.33-4.14,0-.03-.02-.07-.04-.15.23-.23.44-.51.7-.79.05.15.09.26.14.37h0ZM206.35,240.79c-.19.79-.37,2.1-.77,2.73-.53-.25-.86-1.07-1-1.71.37-.53,1.14-1.01,1.67-1.33.04.12.07.23.11.31h0ZM170.73,213.24c.13,1.15.28,2.26.43,3.35.12,1.54.95,5.24-.85,6.05-1.46.12-1.89-.04-3.06-.9-.97-1.64-1.09-1.63-2.82-1.93-.48-1.33-1.18-2.75-.95-4.23.26-1.39.66-2.59,1.56-3.52.74-.25,1.49-.48,2.21-.77.74.17,1.45.3,2.2.4.55.42.92.92,1.27,1.56h0ZM158.71,301.57c-.13.06-.23.11-.34.15-.01-.04-.03-.08-.05-.15.13.03.24.03.39,0h0Z"/>
  </g>
  <g>
    <polygon class="cls-1" points="71.07 161.39 18.71 238.03 21.32 241.33 121.2 237.87 85.32 171.96 74.65 159.49 71.07 161.39"/>
    <path class="cls-4" d="M103.13,198.74c3.5.51,2.58,5.9,6.25,6.23.1,3.85,2.07,5.65,4.51,6.91-.28,4.06,2.01,5.28,4.46,6.33.28,1-.4,1.13-1.12,1.24.83.82,2.79,1.35,1.33,2.9.47-.34.95-.66,1.75-.68.27,1.19-.03,1.86-1.09,1.84,1.18,1.5,4.6,4.74,2.67,5.81.61,1.01,1.92,1.22,3.61,1.01.33,4.85,3,7.12,2.99,12.34-.57-.34-2.25-1.28-1.74.67-1.07-1.11-4.14-.02-4.27-2.16-1.31,2.34-4.07-1.55-7.05,1.54-1.8.3-1.34-1.87-1.94-2.88-1.7.6.85,1.46.15,2.97-.46-.39-2-2.41-1.78.09-8.28-.58-20.59-.63-27.92.18-.03-.58-.07-1.18-.09-1.77-2.68,1.58-5.81,1.89-8.31.41-1.6,2.32-12.64,2.38-16.01.8-6.52,3.75-21.02.23-24.17,4.16-5.11-2.87-13.92.37-20.31-1.96-.61-1.86.4-2.28,1.04-3.03-2.39-.09-.99-.46-1.38-4.09,2.77-.9,3.9-3.26,3.84-6.73,2.75.43,1.2-3.05,4.03-2.58-.51-1.8-.48-1.12-.15-2.96,4.03.45,1.59-4.98,5.1-5.01-.41-.58-1.39-.54-1.27-1.72,2.39.65,1.11-2,3.5-1.36-.05-.99-.1-1.98-.15-2.97.51-.49,1.31-.7,2.34-.7,3.47-8.95,9.98-15.13,13.69-23.86,2.05-.03,2.69-1.34,2.2-3.68,1.74.07,1.75-1.43,3.5-1.36,1.44-7.95,9.01-10.36,10.39-18.36,6.51-1.46,4.95-10.23,11.29-11.85-.41-.58-1.39-.55-1.28-1.72,1.95-.12,2.9-1.15,5.32-.85,2.66,1.88-.7,3.06,3.1,2.81-2.46,2.68.76,10.53,3.43,9.34.88.15.16,4.49,3.17,4.01-.32,1.83.73,2.14.78,3.53,7.63,6.37,9.09,19.56,16.74,25.91.26,1-.41,1.15-1.13,1.25ZM68.48,171.33c-1.88.82-.54-1.9-2.43-1.07-.91.3-.41,1.9-2.3,1.31-.73,3.12-1.47,6.22-4.4,7.35-.7,3.28,1.67,3.15,2.61,4.62-4.12,3.02-4.14,12.7-11.43,9.48.67,1.77,2.85,1.86,3.17,4.01-1.57.8-2.72,1.12-3.5,1.36,2.53,2.06-.67,1.55-1.64,3.05-2.53,3.94-3.91,10.12-8.36,11.12-.16,2.87-1.2,4.96-3.89,5.53,1.49,3.08-.87.43-1.7,1.88,3.82.72-2.44,2.6.21,4.15-4.22.88-3.19,6.55-6.11,8.63-.38-1.03.55-3.52-.76-3.54,0,.93.19,2.05-1.1,1.84-.63,1.95,1.94.35,1.31,2.3-2.46.61-2.01,3.85-3.29,5.53,6.18-1.37,16.23-1.48,23.13-1.15.11-.46-.04-1.17.53-1.22,23.01,2.1,41.35-1.48,69.44-2.24-1.29-6.23-6.79-9.23-8.96-12.64-.71-5.27-5.7-5.8-5.91-11.6-2.66.4-2.29-2.11-1.97-3.47-2.36.06-4.51-3.77-2.6-4.62-1.85,1-1.99-.35-3.62-1.01-4.29-12.95-14.51-22.09-19.43-32.33.03.6-1.01.79-1.18.05.72-.09,1.39-.24,1.13-1.24-1.66.57-1.58-.76-3-.44-2.87,4-4.15,9.46-8.94,11.73,1.25,2.03-.43,2.88-1.57,4.24-.72-2.35-.14-4.62.87-6.59.97-.03.4,1.63,1.27,1.72.13-2.55,2.17-7.39,3.91-4.94-.06-.82.21-1.32.5-1.81Z"/>
  </g>
  <text class="cls-6" transform="translate(48.41 229.69)"><tspan x="0" y="0">43</tspan></text>
</svg>