<?xml version="1.0" encoding="UTF-8"?>
<svg id="Layer_1" xmlns="http://www.w3.org/2000/svg" viewBox="0 0 400 400">
  <defs>
    <style>
      .cls-1 {
        fill: #027fae;
      }

      .cls-1, .cls-2, .cls-3 {
        fill-rule: evenodd;
      }

      .cls-2, .cls-4 {
        fill: #fff;
      }

      .cls-4 {
        font-family: AmericanTypewriter-CondensedBold, 'American Typewriter';
        font-size: 44px;
        font-weight: 700;
      }
    </style>
  </defs>
  <g>
    <path class="cls-3" d="M133.48,202.14c1.54-7.64,2.93-15.32,4.69-22.92,2.07-8.9,7-16.65,11.38-24.62,4.17-7.6,9.61-14.34,15.03-21.15,4.15-5.22,7.95-10.67,13.06-15.06,3.67-3.16,7.71-5.92,11.6-8.85,17.48-8.85,24.41-9.51,37.97-12.86,6.23-1.54,16.41-3.91,22.9-3.47,10.3.7,16.34,1.14,26.3,3.49,7.46,1.76,14.84,4.12,21.91,6.98,9.04,3.65,17.75,8.24,25.29,14.25,9.12,7.27,17.84,15.07,24.75,24.42,3.61,4.89,7.52,9.69,10.34,14.98,6.79,12.79,12.37,25.98,12.02,40.74-.18,7.49.35,15.01.19,22.5-.07,3.79-.71,7.61-1.54,11.32-.91,4.03-2.14,8.02-3.57,11.9-1.06,2.85-2.44,5.65-4.08,8.22-2.06,3.25-4.92,6.04-5.55,10.02-.07.43-.4.82-.67,1.2-3.21,4.53-6.5,9.03-9.65,13.61-3.96,5.77-9.74,9.6-15.54,13.42-3.02,1.99-6.08,3.94-9.06,5.99-7.24,4.94-15.27,8.09-23.74,10.66-5.99,1.81-11.98,3.25-18.16,4.13-12.84,1.83-25.68,2.82-38.75,2.42-12.33-.39-23.59-4.34-34.89-8.19-5.35-1.83-10.12-5.3-15.18-7.98-2.66-1.4-5.29-2.91-8.09-4.02-5.09-2.02-9.45-4.79-13.69-8.29-8.74-7.18-14.1-16.62-20.66-25.3-4.12-5.44-6.72-11.53-9.39-17.58-1.47-3.33-2.03-7.06-2.61-10.67-1.54-9.68-3.85-19.33-2.59-29.32ZM366.95,217.51c1.65-7.39.14-14.82-.58-22.29-.37-3.8.2-7.89-1.1-11.37-3.32-8.94-6.82-17.92-11.39-26.33-6.71-12.39-17.03-22.25-27.42-31.91-6.4-5.94-13.83-10.52-21.74-14.41-11.52-5.66-23.35-10.39-36.36-11.84-3.67-.4-7.33-.96-10.94-1.69-13.97-2.84-27.27,1.19-40.97,5.6-16.23,5.23-30.24,10.15-41.71,22.02-4.76,4.92-8.96,10.36-13.18,15.73-8.62,10.96-15.13,23.04-19.37,36.12-4.99,15.42-5.84,31.28-3.47,47.27.75,5.13,1.56,10.41,3.5,15.2,2.54,6.26,6.12,12.15,9.45,18.09,3.97,7.09,9.22,13.35,14.79,19.33,4.39,4.71,9.33,8.87,15.54,11.51,4.98,2.13,9.85,4.56,14.59,7.16,4.9,2.69,9.99,4.83,15.24,6.82,16.92,6.43,34.4,7.28,52.15,6.06,3.98-.26,7.89-1.29,11.86-1.79,13.45-1.66,26.67-4.28,38.41-10.98,7.39-4.22,14.48-8.99,21.26-14.08,3.3-2.47,5.78-6.06,8.23-9.41,4.65-6.35,9.14-12.83,13.47-19.39,2.11-3.2,4.08-6.58,5.48-10.11,3.23-8.06,4.68-16.5,4.28-25.31Z"/>
    <path class="cls-2" d="M366.95,217.51c.4,8.82-1.05,17.25-4.28,25.31-1.4,3.53-3.37,6.91-5.48,10.11-4.32,6.56-8.81,13.04-13.47,19.39-2.45,3.35-4.93,6.94-8.23,9.41-6.77,5.09-13.87,9.86-21.26,14.08-11.74,6.71-24.95,9.32-38.41,10.98-3.97.5-7.88,1.53-11.86,1.79-17.75,1.22-35.23.37-52.15-6.06-5.25-1.99-10.34-4.12-15.24-6.82-4.74-2.6-9.61-5.03-14.59-7.16-6.21-2.63-11.15-6.8-15.54-11.51-5.56-5.98-10.82-12.24-14.79-19.33-3.33-5.94-6.91-11.83-9.45-18.09-1.94-4.79-2.75-10.07-3.5-15.2-2.37-16-1.52-31.86,3.47-47.27,4.24-13.08,10.75-25.16,19.37-36.12,4.22-5.37,8.42-10.8,13.18-15.73,11.47-11.87,25.48-16.79,41.71-22.02,13.7-4.41,26.99-8.44,40.97-5.6,3.62.73,7.27,1.29,10.94,1.69,13.01,1.45,24.84,6.18,36.36,11.84,7.91,3.89,15.34,8.47,21.74,14.41,10.39,9.66,20.71,19.53,27.42,31.91,4.57,8.41,8.07,17.38,11.39,26.33,1.3,3.48.73,7.57,1.1,11.37.72,7.46,2.23,14.9.58,22.29Z"/>
    <path class="cls-3" d="M253.26,277.13c-7.97-.95-15.92-2.19-23.91-2.75-8.54-.61-15.35-4.83-22.47-8.68-8.12-4.4-13.23-11.2-17.56-18.79-1.01-1.77-2-3.56-3.16-5.24-4.87-7.12-7.63-14.88-8.16-23.37-.19-2.92-.67-5.84-.52-8.74.14-2.76.77-5.53,1.46-8.23,1.06-4.14,2.26-8.24,3.55-12.31,1.67-5.25,3.16-10.71,6.48-15.17,3.49-4.72,5.58-10.38,10.14-14.36,3.43-2.98,6.99-5.84,10.5-8.74.26-.22.58-.37.84-.59,6.31-5.04,13.97-7.41,21.49-10.11,5.44-1.95,11.1-2.32,16.81-2.54,11.28-.45,21.66,2.22,31.15,8.24,2.61,1.66,5.51,2.9,8.36,4.19,2.9,1.31,5.41,3.06,7.6,5.32,3.33,3.45,6.74,6.86,10.09,10.29,6.46,6.61,11.54,14.13,15.69,22.25,1.24,2.42,2.21,4.95,2.23,7.72,0,.89.17,1.79.36,2.67,1.61,7.41.09,14.46-2.4,21.43-.75,2.12-1.26,4.31-2.01,6.43-1.93,5.41-4,10.77-5.91,16.18-1.34,3.8-3.79,6.95-6.32,9.99-4.54,5.42-9.83,10.15-15.46,14.52-.54.42-1.03.98-1.65,1.24-6.7,2.79-13.09,6.31-20.2,8.18-5.61,1.47-11.29,1.28-17.02.97ZM254.87,196.56c.37.55.44.81.62.92,5.15,3.11,6.01,7.73,4.87,12.97-.57,2.63-1.9,5.03-4.77,5.71-2.69.63-5.52.73-8.29.93-2.09.14-4.19.06-6.28.07-4.42.01-8.85.22-13.25-.03-6.18-.32-12.33-.17-18.48.33-7.54.62-15.07,1.34-22.66.56-.58-.06-1.17-.07-1.74-.04-1.91.14-2.42.56-2.68,2.43-.35,2.6.06,5.12.87,7.64,1.82,5.64,5.01,10.62,7.95,15.72,1.3,2.27,2.44,4.65,3.99,6.74,4.83,6.52,11.23,11.36,18.2,15.58,5.89,3.56,12.52,4.8,19.21,5.76,6.69.96,13.43,1.01,20.2,1.12,6.6.11,13.01-.51,19.4-1.86,4.93-1.03,9.64-2.75,13.74-5.56,10.45-7.16,19.48-15.55,24.45-27.33,1.04-2.48,2.45-4.84,3.42-7.35,1.3-3.36,2.44-6.78,3.45-10.23.52-1.73-.14-2.47-1.82-2.41-4.87.19-9.76.24-14.6.67-6.74.61-12.16-1.3-16-6.86-.51-.75-.99-1.53-1.59-2.22-1.35-1.55-2.6-3.24-4.17-4.53-5.62-4.57-12.09-7.61-19.19-9.39-1.62-.41-3.17-.24-4.85.65ZM254.35,178.32c2.62.52,4.17-.65,5.4-2.74,3.63-6.25,7.35-12.45,11.05-18.66,1.22-2.03,2.56-4.01,3.66-6.1,1.14-2.18.98-2.96-1.26-4.11-2.66-1.37-5.46-2.54-8.31-3.5-6.04-2.03-12.28-2.48-18.6-1.58-3.2.46-6.44.77-9.61,1.4-2.5.49-2.96,1.4-2.61,3.89.1.67.25,1.32.38,1.99.92,4.75,1.74,9.51,2.8,14.22.93,4.18,2.12,8.29,3.23,12.42.38,1.37.95,2.65,2.83,2.32,3.72-.65,7.41-.46,11.05.46ZM307.03,172.3c-.99.66-1.56,1.04-2.12,1.41-4.11,2.71-8.18,5.48-12.35,8.13-3.58,2.27-7.42,4.22-10.88,6.64-4.25,2.99-4.27,1.84-2.59,6.96.25.75.41,1.52.64,2.29,1.08,3.61,1.5,3.94,5.25,4.19.7.05,1.4.09,2.1.09,6.61-.06,13.24-.13,19.87-.17,3.72-.02,7.44.06,11.15.04,1.99-.01,2.81-.64,2.42-2.38-.84-3.82-1.53-7.77-3.1-11.33-1.71-3.9-4.29-7.46-6.63-11.09-1.03-1.6-2.37-3.01-3.77-4.77ZM274.24,197.04c.06-.94.19-1.38.1-1.79-.67-2.97-2.2-5.34-4.99-6.99-5.82-3.45-11.71-6.6-18.92-5.52-.34.05-.7.01-1.04-.02-7.2-.65-12.53,2.28-16.67,7.79-2.23,2.98-3.89,6.08-3.8,9.86.07,2.69.32,5.39.11,8.06-.31,4.02,0,4.95,5.1,5,.58.01,1.16-.11,1.74-.12,3.94-.12,7.89-.17,11.82-.38,1.85-.1,3.7-.4,5.48-.82,2.56-.62,3.75-2.34,4.05-4.87.27-2.3-.72-3.81-2.51-5.17-1.91-1.45-3.78-3-5.43-4.72-1.53-1.61-1.27-3.49.47-4.22,3.44-1.44,6.99-2.58,10.79-1.15,3.68,1.39,7.36,2.79,11.04,4.17.73.27,1.49.51,2.66.89ZM262.39,180.01c.56.37,1.04.7,1.53.98,3.16,1.9,6.35,3.73,9.47,5.69,1.35.85,2.41.4,3.52-.3,8.06-5.08,16.14-10.13,24.16-15.25,1-.64,1.73-1.65,2.61-2.51-.69-.95-1.14-1.6-1.6-2.23-1.93-2.61-4.56-4.49-7.2-6.33-3.88-2.69-7.75-5.38-11.74-7.91-2.28-1.44-3.13-1.06-4.34,1.28-1.25,2.4-2.38,4.86-3.76,7.18-3.25,5.54-6.1,11.33-10.3,16.31-.71.85-1.34,1.77-2.33,3.1ZM236.43,178.56c-.44-1.88-.95-4.05-1.46-6.22-1.76-7.55-3.52-15.09-5.28-22.63-.13-.55-.24-1.1-.41-1.64-.38-1.31-1.28-1.81-2.65-1.43-.56.15-1.09.38-1.64.59-8.08,3-14.62,8.14-20.63,13.97-2.02,1.95-2.1,2.64-.14,4.87,2.03,2.29,4.23,4.49,6.6,6.45,4.78,3.95,9.7,7.73,14.59,11.55,2.02,1.59,2.56,1.54,4.45-.06,1.98-1.68,3.99-3.33,6.55-5.44ZM199.01,168.67c-.4.15-.69.18-.81.33-4.03,4.93-7.84,9.98-9.98,16.01-.23.63-.34,1.3-.49,1.96-.29,1.37.13,2.45,1.5,3.05,1.16.5,2.32,1.04,3.53,1.44,1.99.63,4.02,1.16,6.02,1.73,6.34,1.83,12.69,3.67,19.04,5.48.67.19,1.37.33,2.05.4,1.96.18,2.47-.12,3.09-1.91.63-1.8,1.27-3.61,1.66-5.47.17-.74-.07-1.85-.59-2.38-1.59-1.63-3.35-3.11-5.12-4.56-4.42-3.64-8.86-7.26-13.34-10.85-2.2-1.77-3.99-4.05-6.57-5.21ZM182.94,212.62c.83.05,1.39.17,1.93.11,6.95-.85,13.94-.53,20.9-.23,4.92.21,9.76-.27,14.62-.5,1.8-.09,2.19-.66,2.12-2.36-.23-4.72-1.02-5.77-5.64-7.33-.87-.29-1.77-.52-2.68-.74-5.42-1.28-10.86-2.54-16.28-3.84-2.83-.67-5.63-1.45-8.46-2.11-2.86-.65-3.82-.12-4.44,2.69-.84,3.83-1.53,7.7-2.2,11.56-.15.83.07,1.71.12,2.75ZM320.1,207.64c-4.98-1.7-27.63-1.2-32.57-1.37-.52-.02-1.04.29-1.55.44.8,4.23,3.7,7.08,8.1,7.78,2.05.33,4.16.31,6.25.34,2.78.05,5.56-.03,8.34,0,1.62.02,3.24.22,4.87.22,4.66,0,5.1-.36,6.04-4.65.2-.86.33-1.74.52-2.76Z"/>
    <path class="cls-3" d="M165.54,187.87c.3.03,1.18,0,1.98.2,1.49.39,1.88,2.04.61,2.89-.94.61-2.14.93-3.27,1.15-1.43.28-2.37.88-2.5,2.41-.02.21-.1.41-.15.61-1.22,4.23-1.37,4.9,2.73,7.15.89.49,1.62,1.35,2.25,2.17.23.3.19,1.11-.07,1.41-.24.3-.99.45-1.4.32-.79-.26-1.56-.68-2.24-1.17-3.28-2.34-6.57-4.7-9.78-7.13-.9-.69-1.73-1.6-2.35-2.55-.99-1.56-.56-2.78,1.08-3.67.18-.1.38-.2.58-.26,4-1.12,7.99-2.25,12.52-3.52ZM158.15,197.19c1.2-1.03,1.36-1.9.66-3.16-.91.24-1.74.46-3.12.82,1.06,1.01,1.74,1.65,2.46,2.34Z"/>
    <path class="cls-3" d="M148.17,214.39c-.38-2.98.64-5.4,3-7.29,2.39-1.91,4.93-1.74,6.58.79.95,1.46,1.5,3.26,1.89,4.98.75,3.26.66,3.27,4.07,3.7,1.17.15,2.34.28,3.47.56.95.23,1.93.68,1.79,1.88-.15,1.19-1.15,1.45-2.17,1.43-2.67-.05-5.33-.09-7.99-.26-1.91-.13-3.82-.44-5.72-.75-2.82-.45-4.54-2.26-4.91-5.05ZM157.32,215.76c-.21-1.66-.23-2.92-.55-4.11-.41-1.54-1.79-2.45-3.04-2.26-1.45.22-3.04,2.24-2.93,3.73.13,1.63,1.2,2.74,2.84,2.8,1.04.04,2.1-.08,3.68-.15Z"/>
    <path class="cls-3" d="M156.53,174.83c.47-2.04.9-4.09,1.45-6.11.24-.88.99-1.63,1.91-1.26.78.32,1.67,1.07,1.9,1.83.26.8.02,1.92-.38,2.73-1.23,2.51-1.65,3.44,2.19,5.41,3.31,1.71,5.32,1.08,7.15-2.17.36-.65.57-1.4,1.03-1.96.28-.34.95-.62,1.36-.52.4.11.96.71.95,1.07-.05,1.14-.19,2.32-.56,3.39-1.91,5.57-5.2,7.33-10.92,5.78-1.06-.29-2.13-1.01-2.89-1.82-1.63-1.74-2.56-3.88-3.18-6.36Z"/>
    <path class="cls-3" d="M182.32,146.51c-.08.24-.16.77-.4,1.21-.35.66-.84,1.23-1.2,1.89-1.02,1.93-.87,2.69.79,4.13.72.62,1.61,1.13,2.15,1.87.33.47.34,1.38.13,1.95-.1.26-1.16.38-1.69.22-.68-.21-1.3-.7-1.87-1.16-3.15-2.53-6.28-5.08-9.42-7.62-.41-.33-.89-.59-1.28-.96-1.2-1.12-1.22-1.74-.18-2.96,1.87-2.18,3.73-4.36,5.6-6.53.35-.4.68-.82,1.08-1.18.78-.7,1.71-1,2.59-.25.94.8.57,1.74-.02,2.56-.81,1.13-1.71,2.18-2.54,3.28-.45.59-.9,1.19-1.28,1.84-.47.85-.89,1.79.03,2.6,1.05.92,1.68-.03,2.43-.61.92-.72,1.87-1.44,2.92-1.9.99-.44,1.96.29,2.14,1.61Z"/>
    <path class="cls-3" d="M196.86,131.13c-.07-3.09.09-5.89,1.91-8.39,1.19-1.64,2.76-2.38,4.68-2.23.72.05,1.87.59,1.98,1.1.18.78-.2,1.85-.68,2.55-.36.52-1.28.7-1.97.95-1.3.48-2.1,1.38-2.55,2.67-.96,2.76.06,4.64,2.96,5.06,1.22.18,2.53-.11,3.77-.28.94-.13,1.87-.61,2.79-.59.61.02,1.41.54,1.73,1.06.22.37-.04,1.36-.43,1.68-2.37,2.04-4.92,3.8-8.28,3.7-2.27-.06-3.9-1.12-4.72-3.2-.53-1.38-.85-2.84-1.21-4.09Z"/>
    <path class="cls-3" d="M292.49,284.44c1.21.77,2.23,1.36,3.18,2.06,2.06,1.51,2.47,3.24,1.2,5.44-1.07,1.88-2.55,3.3-4.89,3.45-1.82.13-3.28-.65-4.12-2.19-1.43-2.6-2.84-5.22-3.9-7.97-1.2-3.08.64-6.61,3.74-7.69,1.24-.44,2.52-.82,3.82-.98,2.69-.32,3.87,1.34,2.83,3.9-.54,1.29-1.18,2.53-1.85,3.98ZM289.04,287.96c.1,2.26.81,4.03,2.76,4.26,1.79.22,2.41-1.56,2.83-3.08.05-.19-.07-.43-.14-.78-1.57-1.31-3.35-.92-5.44-.4ZM288.48,284.96c1.11-2.21,2.76-3.66,2.89-6.21-2.06.27-3.67.72-4.42,2.62-.53,1.32.03,2.29,1.53,3.59Z"/>
    <path class="cls-3" d="M343.23,191.69c-1.45.47-2.89.91-4.3,1.42-.76.28-1.51.58-2.05-.27-.6-.95-.11-1.67.64-2.25.35-.27.79-.42,1.12-.7,2.21-1.76,1.7-4.99-.97-6.02-1.02-.4-2.11-.61-3.11-1.05-.97-.44-1.55-1.29-1.37-2.4.22-1.26,1.21-1.41,2.27-1.35,3.06.18,6.13.32,9.18.58.59.05,1.2.48,1.71.84.7.49,1.31,1.14,2.01,1.65,2.03,1.49,2.16,2.26.47,4.23-.56.67-1.27,1.2-1.91,1.81-1.27,1.19-2.52,2.38-3.71,3.5ZM344.66,185.36c-1.06-.61-2-.49-2.68.62-.15.24.01.97.24,1.1,1.13.66,1.77-.24,2.39-.97.1-.12.03-.4.04-.75Z"/>
    <path class="cls-3" d="M351.07,198.95c-1.39,4.5-6.11,4.64-8.77,7.36.46,1.41,1.7,1.28,2.69,1.46,1.29.23,2.62.24,3.9.52,1.78.38,2.39.84,4.28,2.76-.73.17-1.32.46-1.85.39-3.68-.51-7.36-1.05-11.03-1.67-1.19-.2-2.39-.62-2.73-2.03-.38-1.53.54-2.47,1.66-3.27,1.47-1.05,2.95-2.1,4.96-3.52-1.96-.23-3.24-.24-4.46-.57-.77-.2-1.58-.72-2.07-1.34-.59-.77-.03-2.08.85-2.02,3.8.23,7.6.6,11.38.98.35.03.66.52,1.19.95Z"/>
    <path class="cls-3" d="M263.08,119.03c-1.76,2.81-.72,5.71-2.78,8.01-.54-.63-1.07-1.09-1.39-1.66-.2-.34-.21-.89-.1-1.29,1.04-3.86.7-7.85,1.07-11.77.07-.76.26-1.53.58-2.2.6-1.19,1.62-1.95,2.97-1.46,1.42.52,2.87,1.15,4.03,2.08,1.95,1.58,2.11,3.38.88,5.58-.21.38-.46.75-.75,1.1-1.33,1.56-1.15,3.12-.23,4.86.84,1.54,1.42,3.21,2.03,4.85.16.44.05.99.07,2.01-2.12-1.3-2.55-3.17-3.42-4.72-.89-1.61-1.77-3.23-2.96-5.38ZM262.94,116.36c1.27-.06,2.1-.76,2.66-1.71.3-.5.55-1.41.31-1.75-.39-.54-1.22-.96-1.87-1-.46-.03-1.19.58-1.42,1.07-.49,1.1-.61,2.29.32,3.39Z"/>
    <path class="cls-3" d="M347.23,223.99c.21,2.97,3.49,4.49,2.53,7.76-.67-.3-1.34-.4-1.71-.79-.89-.95-1.68-2.02-2.47-3.07-1.97-2.57-4.25-4.72-7.53-5.51-.21-.05-.41-.15-.61-.25-.96-.52-2.14-.96-1.9-2.35.23-1.27,1.41-1.07,2.37-1.26,1.56-.32,3.02-.32,4.33.77,1.33,1.11,2.83.95,4.35.48,1.57-.49,3.14-.98,4.72-1.44.63-.17,1.31-.37,1.92-.29,1.17.15,2.03.84,2.15,2.11.11,1.19-.64,1.82-1.7,2.08-1.05.26-2.16.34-3.22.62-1.11.3-2.17.76-3.23,1.13Z"/>
    <path class="cls-3" d="M327.08,149.75c-1.81,1.94-3.35,3.58-4.89,5.25-.36.4-.61.95-1.06,1.24-.39.26-1.08.47-1.42.3-.38-.2-.71-.88-.68-1.33.06-.61.36-1.29.75-1.77,2.09-2.54,4.23-5.03,6.39-7.51.24-.28.76-.33,1.17-.49,2.72,2.23,2.47,5.24,2.18,8.48,1.44.18,2.6.31,3.75.46,1.86.21,2.62,1.1,2.04,2.85-.4,1.22-1.09,2.42-1.93,3.38-1.07,1.23-2.42,2.23-3.66,3.3-.75.64-1.59.89-2.35.12-.86-.88-.24-1.57.44-2.22,1.34-1.26,2.67-2.53,4.36-4.15-1.01-.49-1.57-.9-2.21-1.05-3.22-.74-3.54-1.22-2.76-4.5.1-.43.15-.85.21-1.28.01-.1-.05-.21-.33-1.07Z"/>
    <path class="cls-3" d="M244.5,112.08c0,2.15-.14,4,.05,5.82.2,1.95.98,2.51,2.77,2.51,1.5,0,2.19-.54,2.54-2.45.31-1.71.36-3.48.53-5.23q.13-1.37,1.46-2.89c.4.49,1.01.9,1.1,1.42.84,4.1.47,8.08-1.62,11.78-1.16,2.07-2.4,2.53-4.67,1.83-3.41-1.03-5.45-3.09-5.05-6.64.17-1.5-.25-3.06-.23-4.59.02-2.27.67-2.55,3.12-1.56Z"/>
    <path class="cls-3" d="M229.91,123.14c-.29-1.79-1.67-2.05-2.7-2.42-3.29-1.14-3.53-4.79-.77-7.06,1.97-1.62,4.21-2.34,6.7-2.18.63.03,1.51.59,1.73,1.12.44,1.04-.45,1.55-1.33,1.86-1.29.46-2.59.88-4.18,1.4.61,1.01.96,1.64,1.37,2.25.73,1.09,1.51,2.15,2.24,3.23.94,1.38,1.24,2.81.11,4.24-.99,1.25-4.06,2.36-5.36,1.82-.53-.22-1.24-.85-1.25-1.29,0-.63.44-1.43.95-1.83.72-.55,1.68-.79,2.5-1.15Z"/>
    <path class="cls-3" d="M195.94,282.59c.26-3.99,1.86-6.54,4.8-8.31,1.26-.76,2.43-.72,3.7,0,2.42,1.39,3.53,3.53,3.51,6.24-.02,2.97-1.44,5.29-3.94,6.77-1.89,1.11-4.12,2.08-6.2.72-2.07-1.36-1.84-3.79-1.88-5.42ZM198.34,282.81c.1,2.44.82,3.41,2.49,3.1,1.86-.35,4.23-2.85,4.49-4.73.23-1.76-.19-2.74-1.43-3.3-1.7-.76-3-.53-3.97,1.05-.72,1.17-1.07,2.57-1.59,3.87Z"/>
    <path class="cls-3" d="M264.68,292.4c0,1.87-.69,3.79-2.02,5.47-1.68,2.11-3.54,2.74-5.72,1.95-2.96-1.07-4.5-3.06-4.37-5.8.1-2.23.81-4.25,2.22-6.04,1.45-1.81,3.29-2.43,5.52-1.97,3.45.71,4.59,2.32,4.37,6.4ZM261.88,293.59c.29-3.13-.27-3.92-2.71-4.43-1.73-.37-2.61.27-3.39,2.56-.25.71-.43,1.47-.46,2.22-.05,1.54,1.08,3.04,2.48,3.44,1.26.37,2.64-.33,3.41-1.86.39-.76.56-1.62.67-1.93Z"/>
    <path class="cls-3" d="M238.4,290.89c-2,2.38-1.14,5.49-3.37,7.76-.48-.82-1.15-1.44-1.08-1.97.45-3.12,1.01-6.24,1.68-9.32.15-.63.89-1.13,1.41-1.76,2.18,1.14,2.65,3.32,3.84,4.95,1.15,1.57,2.29,3.14,3.35,4.59,1.55-.31,1.39-1.32,1.56-2.14.32-1.6.5-3.24.98-4.8.16-.54,1.04-.85,1.59-1.27.3.52.92,1.1.84,1.57-.36,2.47-.6,5.03-1.45,7.35-1.11,3.08-2.92,3.3-5.06.83-1.06-1.23-1.85-2.69-2.81-4.03-.37-.52-.82-.98-1.48-1.76Z"/>
    <path class="cls-3" d="M308.89,145.96c-.47-1.82-.1-3.72,1.24-5.35.98-1.19,2-2.35,3.15-3.36,1.38-1.23,3.13-1.58,4.93-1.29,3.31.54,5.09,3.55,3.77,6.63-1.38,3.23-3.6,5.75-7.05,6.97-3.36,1.17-5.32.09-6.04-3.6ZM319.98,140.09c-1.35-.77-2.75-1.95-4.4-.82-2.05,1.39-4.31,2.76-4.7,5.53-.27,1.88.89,2.82,2.81,2.48,3.01-.53,5.71-3.55,6.3-7.19Z"/>
    <path class="cls-3" d="M279.66,124.57c-1.18,1.62-.3,3.82-2.1,4.86-1.38-.21-1.62-1.2-1.43-2.21.68-3.71.55-7.39.07-11.12-.26-2,.64-2.7,2.55-1.92,2.72,1.11,5.35,2.47,7.95,3.85.96.51,1.72,1.4,1.08,2.87-3.21.18-5.03-3.33-8.24-3.33-.92,1.51-.27,2.57.82,3.45.77.61,1.66,1.06,2.49,1.6.63.42,1.39.76,1.83,1.34.31.42.36,1.23.19,1.75-.09.26-.99.5-1.41.37-1.24-.37-2.43-.95-3.79-1.5Z"/>
    <path class="cls-3" d="M311.07,133.64c-1.45-1.14-2.24-1.86-3.13-2.45-2.12-1.42-4.23-.62-6.25.3-1.74.8-2.53,2.34-2.56,4.27-.03,1.92.63,3.41,2.49,4.24.98.43,1.9.97,3.53,1.81-1.25.5-1.86,1-2.42.94-2.82-.29-4.4-1.99-5.35-4.63-2.06-5.71,2.7-10.29,6.68-10.72,3.39-.36,6.35,1.9,7.01,6.25Z"/>
    <path class="cls-3" d="M314.74,280.3c-1.66,3.7-6.2,6.51-9.54,6.14-2.58-.29-5.1-2.69-5.5-5.41-.6-4,.9-7.32,3.67-10.12.43-.43,1.13-.83,1.71-.82.67,0,1.62.27,1.96.76.58.82-.22,1.38-.92,1.76-2.86,1.53-3.64,4.3-3.99,7.16-.39,3.26,2.37,5.16,5.36,3.8,1.08-.49,2.05-1.25,3.03-1.94,1.55-1.09,1.53-1.11,4.22-1.33Z"/>
    <path class="cls-3" d="M210.5,292.67c.05-.72,0-1.48.21-2.14.32-1.04.8-2.05,1.27-3.03.67-1.38,1.53-2.7,2.04-4.12.47-1.31.61-2.74.9-4.1.39-.15.72-.42.99-.37,2.48.44,4.95.91,7.41,1.43,1.15.25,2.06.77,1.6,2.48-2.12-.18-4.22-.35-6.32-.53-.07.19-.14.39-.21.59,1.55,1.19,3.11,2.38,4.94,3.77-1.77.89-2.78-.03-3.84-.35-3.13-.98-3.77-.72-5.08,2.25-.44,1-.79,2.07-1.37,2.98-.42.65-1.17,1.09-1.77,1.62-.25-.16-.51-.32-.76-.48Z"/>
    <path class="cls-3" d="M198.09,273.18c-1.04-.49-1.8-.85-2.56-1.21-2.04-.98-2.72-.94-4.34.7-1.39,1.39-2.63,2.92-3.96,4.36-.74.79-1.49,1.61-2.35,2.24-.32.24-1.15.18-1.45-.09-.3-.27-.47-1.03-.31-1.43.31-.79.81-1.54,1.38-2.19,1.38-1.55,2.85-3.02,4.25-4.54.56-.61,1.07-1.3,1.71-2.08-1.01-.95-1.93-1.7-2.66-2.6-.24-.3-.15-1.05.04-1.47.12-.25.85-.45,1.14-.32,3.7,1.7,7.08,3.83,9.24,7.45.08.15-.04.42-.13,1.19Z"/>
    <path class="cls-3" d="M338.77,164.83c1.92-.29,3.28.5,4.31,1.99.38.56.69,1.22.91,1.87.91,2.72.46,5.1-1.12,6.11-1.59,1.02-4.2.79-6.03-1.19-2.07-2.26-4.13-2.83-6.91-1.71-.61.25-2-.27-2.36-.85-.62-1.03.32-1.82,1.25-2.2,3.3-1.37,6.62-2.68,9.95-4ZM342.43,170.39c-1.3-1.45-2.33-2.37-4.49-.71,1.34,1.37,2.34,2.41,4.49.71Z"/>
    <path class="cls-3" d="M182.92,131.98c1.3-.92,2.09-.42,2.81.28,3.4,3.35,6.49,6.96,9.17,10.91.23.34.43.74.53,1.13.19.8-.56,1.59-1.32,1.27-.84-.37-1.65-.95-2.29-1.6-2.25-2.25-4.4-4.58-6.62-6.85-1.38-1.42-2.17-3.07-2.27-5.14Z"/>
    <path class="cls-3" d="M163,157.72c1.24-.83,2.53-.67,3.63,0,2.83,1.69,5.58,3.51,8.33,5.32.61.4,1.26.89,1.62,1.49.27.46.34,1.32.07,1.71-.26.37-1.08.4-1.65.45-.27.03-.57-.25-.85-.4-3.03-1.77-6.07-3.52-9.08-5.33-1.19-.7-2.4-1.47-2.06-3.24Z"/>
    <path class="cls-3" d="M226.91,297.52c-.87-1.95-.89-7.36-.04-11.03.26-1.11.3-2.46,2.11-2.99.24.62.71,1.26.67,1.86-.25,3.17-.61,6.32-.97,9.48-.12,1.07-.15,2.24-1.77,2.68Z"/>
    <path class="cls-2" d="M254.87,196.56c1.68-.88,3.23-1.06,4.85-.65,7.1,1.79,13.57,4.83,19.19,9.39,1.57,1.29,2.83,2.98,4.17,4.53.6.68,1.08,1.47,1.59,2.22,3.84,5.56,9.26,7.48,16,6.86,4.85-.43,9.73-.49,14.6-.67,1.68-.05,2.33.68,1.82,2.41-1.01,3.45-2.15,6.87-3.45,10.23-.97,2.51-2.38,4.87-3.42,7.35-4.98,11.77-14,20.17-24.45,27.33-4.11,2.82-8.81,4.53-13.74,5.56-6.39,1.35-12.8,1.97-19.4,1.86-6.77-.11-13.51-.16-20.2-1.12-6.68-.96-13.32-2.2-19.21-5.76-6.96-4.22-13.37-9.07-18.2-15.58-1.54-2.09-2.69-4.47-3.99-6.74-2.94-5.1-6.13-10.08-7.95-15.72-.81-2.52-1.22-5.04-.87-7.64.26-1.87.77-2.29,2.68-2.43.58-.03,1.17-.02,1.74.04,7.58.78,15.12.06,22.66-.56,6.15-.5,12.3-.65,18.48-.33,4.4.24,8.83.04,13.25.03,2.09-.01,4.19.07,6.28-.07,2.78-.19,5.61-.3,8.29-.93,2.87-.68,4.2-3.09,4.77-5.71,1.14-5.24.28-9.86-4.87-12.97-.18-.11-.25-.37-.62-.92Z"/>
    <path class="cls-3" d="M272.24,298.7c-.19-.92-.55-2.38-.73-3.88-.05-.39.43-.85.67-1.28.42.28,1.15.48,1.22.82.36,2.02.62,4.06.77,6.11.05.73-.24,1.64-1.29,1.52-.97-.12-1.14-.86-.98-1.72.06-.32.14-.64.35-1.57Z"/>
    <path class="cls-2" d="M254.35,178.32c-3.64-.92-7.33-1.1-11.05-.46-1.88.33-2.46-.95-2.83-2.32-1.11-4.13-2.3-8.24-3.23-12.42-1.05-4.71-1.87-9.47-2.8-14.22-.13-.66-.28-1.32-.38-1.99-.35-2.49.11-3.4,2.61-3.89,3.17-.63,6.41-.94,9.61-1.4,6.32-.9,12.56-.45,18.6,1.58,2.85.96,5.65,2.13,8.31,3.5,2.25,1.15,2.41,1.93,1.26,4.11-1.1,2.09-2.44,4.06-3.66,6.1-3.7,6.21-7.42,12.41-11.05,18.66-1.23,2.08-2.78,3.26-5.4,2.74Z"/>
    <path class="cls-2" d="M307.03,172.3c1.4,1.75,2.74,3.17,3.77,4.77,2.33,3.63,4.92,7.19,6.63,11.09,1.57,3.56,2.26,7.51,3.1,11.33.39,1.74-.43,2.36-2.42,2.38-3.72.02-7.44-.06-11.15-.04-6.63.04-13.25.12-19.87.17-.7,0-1.41-.04-2.1-.09-3.76-.25-4.17-.58-5.25-4.19-.23-.77-.4-1.53-.64-2.29-1.68-5.12-1.66-3.97,2.59-6.96,3.46-2.42,7.3-4.37,10.88-6.64,4.16-2.65,8.23-5.42,12.35-8.13.56-.38,1.13-.76,2.12-1.41Z"/>
    <path class="cls-2" d="M274.24,197.04c-1.17-.39-1.92-.62-2.66-.89-3.68-1.38-7.37-2.78-11.04-4.17-3.8-1.43-7.35-.3-10.79,1.15-1.75.73-2,2.61-.47,4.22,1.65,1.72,3.52,3.27,5.43,4.72,1.79,1.36,2.78,2.87,2.51,5.17-.3,2.53-1.5,4.25-4.05,4.87-1.78.43-3.63.72-5.48.82-3.93.21-7.88.25-11.82.38-.58.01-1.16.13-1.74.12-5.1-.06-5.41-.98-5.1-5,.21-2.66-.04-5.36-.11-8.06-.09-3.78,1.57-6.88,3.8-9.86,4.14-5.5,9.47-8.44,16.67-7.79.35.03.71.07,1.04.02,7.21-1.08,13.1,2.07,18.92,5.52,2.79,1.65,4.33,4.01,4.99,6.99.09.4-.04.85-.1,1.79Z"/>
    <path class="cls-2" d="M262.39,180.01c.99-1.32,1.62-2.25,2.33-3.1,4.2-4.98,7.04-10.76,10.3-16.31,1.38-2.32,2.52-4.77,3.76-7.18,1.21-2.34,2.06-2.72,4.34-1.28,3.99,2.52,7.87,5.22,11.74,7.91,2.64,1.83,5.27,3.72,7.2,6.33.46.63.91,1.27,1.6,2.23-.88.86-1.6,1.88-2.61,2.51-8.02,5.12-16.09,10.17-24.16,15.25-1.11.7-2.16,1.16-3.52.3-3.12-1.96-6.31-3.79-9.47-5.69-.49-.29-.96-.62-1.53-.98Z"/>
    <path class="cls-2" d="M236.43,178.56c-2.56,2.12-4.57,3.76-6.55,5.44-1.9,1.6-2.44,1.65-4.45.06-4.89-3.82-9.82-7.6-14.59-11.55-2.37-1.96-4.57-4.16-6.6-6.45-1.97-2.23-1.89-2.91.14-4.87,6.01-5.83,12.55-10.97,20.63-13.97.54-.21,1.08-.43,1.64-.59,1.37-.38,2.27.12,2.65,1.43.17.54.29,1.09.41,1.64,1.76,7.55,3.52,15.08,5.28,22.63.5,2.17,1.02,4.34,1.46,6.22Z"/>
    <path class="cls-2" d="M199.01,168.67c2.58,1.16,4.37,3.44,6.57,5.21,4.47,3.58,8.91,7.21,13.34,10.85,1.77,1.45,3.54,2.93,5.12,4.56.52.53.76,1.65.59,2.38-.38,1.86-1.03,3.67-1.66,5.47-.62,1.8-1.13,2.09-3.09,1.91-.69-.06-1.39-.2-2.05-.4-6.35-1.81-12.7-3.65-19.04-5.48-2-.58-4.03-1.1-6.02-1.73-1.21-.39-2.37-.93-3.53-1.44-1.37-.6-1.79-1.68-1.5-3.05.15-.65.26-1.32.49-1.96,2.14-6.03,5.95-11.08,9.98-16.01.12-.15.41-.18.81-.33Z"/>
    <path class="cls-2" d="M182.94,212.62c-.05-1.03-.27-1.92-.12-2.75.67-3.86,1.35-7.73,2.2-11.56.62-2.81,1.58-3.35,4.44-2.69,2.84.66,5.64,1.43,8.46,2.11,5.42,1.3,10.86,2.56,16.28,3.84.9.21,1.8.45,2.68.74,4.61,1.56,5.41,2.61,5.64,7.33.07,1.7-.32,2.28-2.12,2.36-4.87.23-9.7.7-14.62.5-6.96-.3-13.94-.62-20.9.23-.54.06-1.1-.06-1.93-.11Z"/>
    <path class="cls-2" d="M320.1,207.64c-.19,1.03-.33,1.9-.52,2.76-.93,4.3-1.38,4.65-6.04,4.65-1.62,0-3.25-.2-4.87-.22-2.78-.03-5.56.05-8.34,0-2.09-.03-4.2-.01-6.25-.34-4.4-.7-7.3-3.55-8.1-7.78.51-.15,1.03-.46,1.55-.44,4.95.16,27.6-.33,32.57,1.37Z"/>
    <path class="cls-2" d="M158.15,197.19c-.72-.69-1.4-1.33-2.46-2.34,1.37-.36,2.21-.58,3.12-.82.7,1.25.54,2.13-.66,3.16Z"/>
    <path class="cls-2" d="M157.32,215.76c-1.59.07-2.64.19-3.68.15-1.64-.06-2.71-1.17-2.84-2.8-.12-1.48,1.48-3.51,2.93-3.73,1.26-.19,2.63.72,3.04,2.26.32,1.19.34,2.45.55,4.11Z"/>
    <path class="cls-2" d="M344.66,185.36c-.01.36.06.63-.04.75-.63.73-1.26,1.63-2.39.97-.23-.13-.4-.86-.24-1.1.67-1.1,1.62-1.23,2.68-.62Z"/>
    <path class="cls-2" d="M262.94,116.36c-.93-1.1-.81-2.29-.32-3.39.23-.49.95-1.1,1.42-1.07.66.03,1.48.46,1.87,1,.24.34-.01,1.25-.31,1.75-.55.95-1.38,1.65-2.66,1.71Z"/>
    <path class="cls-2" d="M319.98,140.09c-.58,3.64-3.28,6.66-6.3,7.19-1.92.34-3.07-.6-2.81-2.48.39-2.78,2.65-4.14,4.7-5.53,1.65-1.13,3.05.05,4.4.82Z"/>
    <path class="cls-2" d="M342.43,170.39c-2.15,1.69-3.16.66-4.49-.71,2.16-1.65,3.19-.73,4.49.71Z"/>
  </g>
  <g>
    <g>
      <polygon class="cls-1" points="65.33 143.84 12.97 220.49 15.58 223.79 115.46 220.33 79.58 154.42 68.91 141.94 65.33 143.84"/>
      <path class="cls-3" d="M97.4,181.2c3.5.51,2.58,5.9,6.25,6.23.1,3.85,2.07,5.65,4.51,6.91-.28,4.06,2.01,5.28,4.46,6.32.28,1-.4,1.13-1.12,1.24.83.82,2.79,1.35,1.33,2.9.47-.34.95-.66,1.75-.68.27,1.19-.03,1.86-1.09,1.84,1.18,1.5,4.6,4.74,2.67,5.81.61,1.01,1.92,1.22,3.61,1.01.33,4.85,3,7.12,2.99,12.34-.57-.34-2.25-1.28-1.74.67-1.07-1.11-4.14-.02-4.27-2.16-1.31,2.34-4.07-1.55-7.05,1.54-1.8.3-1.34-1.87-1.94-2.88-1.7.6.85,1.46.15,2.97-.46-.39-2-2.42-1.78.09-8.28-.58-20.59-.63-27.92.18-.03-.58-.07-1.18-.09-1.77-2.68,1.58-5.81,1.89-8.31.41-1.6,2.32-12.64,2.38-16.01.8-6.52,3.75-21.02.23-24.17,4.16-5.11-2.87-13.92.37-20.31-1.96-.61-1.86.4-2.28,1.04-3.03-2.39-.09-.99-.46-1.38-4.09,2.77-.9,3.9-3.26,3.84-6.73,2.75.43,1.2-3.05,4.03-2.58-.51-1.8-.48-1.12-.15-2.97,4.03.45,1.59-4.98,5.1-5.01-.41-.58-1.39-.54-1.27-1.72,2.39.65,1.11-2,3.5-1.36-.05-.99-.1-1.98-.15-2.97.51-.49,1.31-.7,2.34-.7,3.47-8.95,9.98-15.13,13.69-23.86,2.05-.03,2.69-1.34,2.2-3.68,1.74.07,1.75-1.43,3.5-1.36,1.44-7.95,9.01-10.36,10.39-18.36,6.51-1.46,4.95-10.23,11.29-11.85-.41-.58-1.39-.55-1.28-1.72,1.95-.12,2.9-1.15,5.32-.85,2.66,1.88-.7,3.06,3.1,2.81-2.46,2.68.76,10.53,3.43,9.34.88.15.16,4.49,3.17,4.01-.32,1.83.73,2.14.78,3.53,7.63,6.37,9.09,19.56,16.74,25.91.26,1-.41,1.15-1.13,1.25ZM62.74,153.79c-1.88.82-.54-1.9-2.43-1.07-.91.31-.41,1.9-2.3,1.31-.73,3.12-1.47,6.22-4.4,7.35-.7,3.28,1.67,3.15,2.61,4.62-4.12,3.02-4.14,12.7-11.43,9.48.67,1.77,2.85,1.86,3.17,4.01-1.57.8-2.72,1.12-3.5,1.36,2.53,2.06-.67,1.55-1.64,3.05-2.53,3.94-3.91,10.12-8.36,11.12-.16,2.87-1.2,4.96-3.89,5.53,1.49,3.08-.87.43-1.7,1.88,3.82.72-2.44,2.6.21,4.15-4.22.89-3.19,6.55-6.11,8.63-.38-1.03.55-3.52-.76-3.54,0,.93.19,2.05-1.1,1.84-.63,1.95,1.94.35,1.31,2.3-2.46.61-2.01,3.85-3.29,5.53,6.18-1.37,16.23-1.48,23.13-1.15.11-.46-.04-1.17.53-1.22,23.01,2.1,41.35-1.48,69.44-2.24-1.29-6.23-6.79-9.23-8.96-12.64-.71-5.27-5.7-5.8-5.91-11.6-2.66.4-2.29-2.11-1.97-3.47-2.36.06-4.51-3.77-2.6-4.62-1.85,1-1.99-.35-3.62-1.01-4.29-12.95-14.51-22.09-19.43-32.33.03.6-1.01.8-1.18.05.72-.09,1.39-.24,1.13-1.24-1.66.57-1.58-.76-3-.44-2.87,4-4.15,9.46-8.94,11.73,1.25,2.03-.43,2.88-1.57,4.24-.72-2.35-.14-4.62.87-6.59.97-.03.4,1.63,1.27,1.72.13-2.55,2.17-7.39,3.91-4.94-.06-.82.21-1.32.5-1.81Z"/>
    </g>
    <text class="cls-4" transform="translate(43.41 210.09)"><tspan x="0" y="0">45</tspan></text>
  </g>
</svg>