<?xml version="1.0" encoding="UTF-8"?>
<svg id="Layer_1" xmlns="http://www.w3.org/2000/svg" viewBox="0 0 400 400">
  <defs>
    <style>
      .cls-1 {
        fill: #fff;
      }

      .cls-1, .cls-2, .cls-3 {
        fill-rule: evenodd;
      }

      .cls-4 {
        fill: #231f20;
        font-family: AmericanTypewriter-CondensedBold, 'American Typewriter';
        font-size: 42.62px;
        font-weight: 700;
        letter-spacing: -.02em;
      }

      .cls-3 {
        fill: #f9ed32;
      }
    </style>
  </defs>
  <g>
    <g>
      <polygon class="cls-3" points="93.26 144.64 40.9 221.29 43.51 224.59 143.39 221.13 107.51 155.22 96.83 142.74 93.26 144.64"/>
      <path class="cls-2" d="M125.32,182c3.5.51,2.58,5.9,6.25,6.23.1,3.85,2.07,5.65,4.51,6.91-.28,4.06,2.01,5.28,4.46,6.33.28,1-.4,1.13-1.12,1.24.83.82,2.79,1.35,1.33,2.9.46-.34.95-.66,1.75-.68.27,1.19-.03,1.86-1.1,1.84,1.19,1.5,4.61,4.73,2.67,5.81.6,1.01,1.92,1.22,3.61,1.01.33,4.85,3,7.12,2.99,12.34-.57-.34-2.25-1.28-1.74.67-1.07-1.11-4.13-.02-4.26-2.16-1.31,2.34-4.07-1.55-7.06,1.54-1.8.3-1.34-1.87-1.94-2.88-1.7.6.84,1.46.15,2.97-.46-.39-2-2.41-1.78.09-8.28-.58-20.59-.63-27.92.18-.03-.58-.06-1.18-.09-1.77-2.68,1.58-5.81,1.89-8.31.41-1.61,2.32-12.64,2.38-16.02.8-6.51,3.75-21.02.23-24.17,4.16-5.11-2.87-13.92.37-20.31-1.96-.6-1.86.4-2.28,1.04-3.03-2.39-.09-.99-.46-1.38-4.09,2.77-.9,3.9-3.26,3.83-6.73,2.75.43,1.2-3.05,4.03-2.58-.52-1.8-.47-1.12-.15-2.96,4.03.45,1.59-4.98,5.1-5.01-.41-.58-1.39-.54-1.28-1.72,2.39.65,1.12-2,3.51-1.36-.06-.99-.1-1.98-.15-2.97.51-.49,1.31-.7,2.34-.7,3.47-8.95,9.98-15.13,13.68-23.86,2.05-.03,2.7-1.34,2.2-3.68,1.74.07,1.75-1.43,3.51-1.36,1.44-7.95,9.01-10.36,10.39-18.36,6.51-1.46,4.95-10.23,11.29-11.85-.41-.58-1.39-.55-1.28-1.72,1.95-.12,2.9-1.15,5.32-.85,2.66,1.88-.7,3.06,3.11,2.81-2.46,2.68.76,10.53,3.43,9.34.89.15.16,4.49,3.17,4.01-.33,1.83.73,2.14.78,3.53,7.63,6.37,9.09,19.56,16.74,25.91.26,1-.41,1.15-1.13,1.25ZM90.67,154.59c-1.88.83-.54-1.9-2.44-1.07-.9.31-.41,1.9-2.29,1.31-.73,3.12-1.47,6.22-4.4,7.35-.7,3.28,1.67,3.15,2.61,4.62-4.12,3.02-4.14,12.7-11.42,9.48.67,1.77,2.84,1.86,3.17,4.01-1.57.8-2.72,1.12-3.5,1.36,2.53,2.06-.67,1.55-1.64,3.05-2.53,3.94-3.91,10.12-8.35,11.12-.16,2.87-1.2,4.96-3.89,5.53,1.5,3.08-.87.43-1.7,1.88,3.82.72-2.44,2.6.21,4.15-4.22.89-3.18,6.55-6.11,8.63-.38-1.03.55-3.52-.76-3.54,0,.93.19,2.05-1.1,1.84-.64,1.95,1.94.35,1.31,2.3-2.46.61-2.01,3.85-3.29,5.53,6.18-1.37,16.23-1.48,23.13-1.15.11-.46-.04-1.17.53-1.22,23.01,2.1,41.35-1.48,69.45-2.24-1.29-6.23-6.8-9.23-8.96-12.64-.71-5.27-5.69-5.8-5.91-11.6-2.66.4-2.29-2.11-1.97-3.47-2.36.06-4.51-3.77-2.6-4.62-1.85,1-1.99-.35-3.62-1.01-4.29-12.95-14.51-22.09-19.43-32.33.03.6-1.01.8-1.18.05.72-.09,1.39-.24,1.13-1.24-1.65.57-1.58-.76-2.99-.44-2.87,4-4.15,9.46-8.94,11.73,1.25,2.03-.43,2.88-1.57,4.24-.72-2.35-.14-4.62.87-6.59.98-.03.4,1.63,1.27,1.72.13-2.55,2.17-7.39,3.91-4.94-.06-.82.21-1.32.5-1.81Z"/>
    </g>
    <text class="cls-4" transform="translate(73.78 210.89)"><tspan x="0" y="0">67</tspan></text>
  </g>
  <g>
    <path class="cls-1" d="M142.61,131.7c0,3.11-2.31,11.67-1.54,21.01.77,9.34.39,22.96.77,35.8.39,12.84-.77,56.42,0,57.59.77,1.17.77,3.89,3.47,6.62,2.7,2.72,9.25,4.28,14.65,4.67,5.4.39,37.4.78,43.57,1.17,6.17.39,56.3,1.94,65.56,1.94s43.57-3.11,43.57-3.11c0,0,2.7-28.41,2.7-31.91s-1.54-32.68-1.54-41.64v-38.52c0-3.5-1.16-20.23-.77-21.4.38-1.16,0-6.61,0-6.61,0,0-.77-4.67-2.7-5.45-1.93-.78-32.78-1.17-32.78-1.17,0,0-32.77-.78-39.72-.78s-37.79.78-44.73.78-43.96,2.72-43.96,2.72h-6.56v18.29Z"/>
    <path class="cls-2" d="M207.32,233.93c-1.92-.62-3.44-1.78-5.55-1.75-.48,2.66-.92,5.3-.16,7.91.73,2.53,1.73,4.98,2.7,7.69-3.98-.39-7.65-.51-11.35.67,1.56-2.61,3.57-4.74,4.34-7.61.74-2.77,1.18-5.56.93-8.47-1.8,0-2.66,1.65-4.3,2.11-.11-.65-.2-1.22-.32-1.93-2.61-.73-5.23-.85-7.93.4.24,1.1.47,2.1.69,3.08q1.65.34,3.82-1.79c.21,1.11.34,2.12.59,3.09.24.93.59,1.83.92,2.86-2.02.22-3.76-1.67-5.92-.25,1.66,2.29,3.2,4.41,4.83,6.67-.33.15-.68.41-1.05.45-2.83.33-5.61.82-8.2,2.09-.09.04-.23-.03-.49-.08.06-.57.11-1.16.18-1.9-4.88.19-9.34,1.89-13.98,3.86-.17-1.09-.3-1.97-.46-3.06-1.43.09-2.8.19-4.32.29.1-.69.18-1.21.27-1.78-.21.06-.37.1-.52.15-1.09.41-2.16.9-3.28,1.23-1.68.5-3-.1-3.99-1.56-1.5-2.2-2.28-4.69-2.79-7.25-.66-3.34-.06-6.55,1.27-9.64,1.27-2.96,3.7-4.34,6.71-4.49,3-.15,5.6.84,7.08,3.78.25.49.55.95,1.02,1.37-.09-.81-.18-1.63-.29-2.6,3.92,1.2,7.73.68,11.62.17v-1.65c2.59.31,5.05,1.39,7.64.6,2.4-.73,4.83-1.35,7.37-2.06.49.51-.2,1.15-.14,1.77,1.81,1.29,7.9,1.39,11.44.12-1.47-.79-2.6-2.1-4.24-2.12-1.54-.02-3.1.33-4.94.55.2-.9.3-1.49.46-2.06.34-1.2.76-2.37,1.05-3.58.43-1.76.23-2.72-.83-4.55-.96-.04-1.99-.1-3.05-.15-1.15,2.21-1.31,4.46-1.01,6.78.05.43.27.89.18,1.27-.07.29-.7.73-.8.66-3.2-2.15-5.82,0-8.65,1.03-.55.2-.42-.81-.26-1.33.66-2.2,1.3-4.41,1.99-6.6,1.27-4.02.94-8.14.6-12.23-.16-1.97-.66-3.92-1.2-5.83-.38-1.35-1.12-2.59-1.64-3.91-.16-.41-.12-.91-.17-1.37.45.01.98-.13,1.34.06,3.07,1.62,6.13,1.64,9.23.1.33-.17.79-.06,1.19-.08-.01.46.11.96-.05,1.36-1.47,3.7-1.41,7.54-1.12,11.4.03.35.23.68.37,1.06,1.27-.14,2.47-.28,3.8-.42.74-3.46,1.41-6.84-.69-10.08-.21-.32-.21-.78-.31-1.17.38-.07.76-.22,1.14-.2,2.39.12,4.79.55,7.13-.66.28.56.49.97.7,1.4,3.98-1.81,7.3-.51,10.26,2.39.72-.74.28-1.47.24-2.17-.07-.97.25-1.24,1.2-1.04.9.2,1.8.39,2.69.64,1.72.5,3.29.19,4.78-.73.3-.19.66-.27,1.23-.5-.04.67-.04,1.13-.11,1.58-.87,5.38-1.33,10.75.18,16.1.26.92.59,1.83,1.03,3.15,1.82-3.44,2.96-6.6,3.35-10.03.39-3.4-.44-6.63-1.68-10.06,1.34,0,2.36.03,3.37-.01.98-.04,1.96-.12,2.94-.27,1-.15,1.99-.4,3.1-.63v1.57c.2-.04.37-.04.5-.11,1.35-.73,2.64-1.63,4.06-2.19,2.77-1.08,6.1-1.28,9.07,2,.19-.46.35-.87.52-1.29.21-.03.42-.13.56-.07,3.19,1.48,6.4,1.05,9.56-.04,1.68-.58,3.27-1.42,4.92-2.09.4-.16.88-.12,1.32-.18-.02.45.13,1.03-.09,1.35-1.37,2.04-1.5,4.32-1.32,6.64.06.85.38,1.69.5,2.54.04.32-.05.82-.26.96-.21.13-.8.03-.95-.17-.87-1.22-2.2-1.28-3.46-1.52-.85-.16-1.7-.32-2.55-.44-1.58-.21-1.86.01-1.99,1.58-.04.49-.04.99-.04,1.49,0,1.49,0,2.97,0,4.6,1.44-.04,2.62-.38,3.59-1.13.94-.72,1.75-1.61,2.65-2.46.29.35.49.49.49.63.02,2.84.01,5.67.01,8.75-.51-.07-1.15-.1-1.75-.26-3.07-.85-3.43-.59-3.44,2.64,0,.99,0,1.97,0,3.19,1.9-.1,3.41-.65,4.7-1.73,1.12-.95,2.11-2.07,3.19-3.09.24-.23.6-.32.91-.48.15.36.34.72.44,1.09.04.15-.08.35-.13.53-.71,2.29-.9,4.62-.62,7.01.16,1.34-.17,1.59-1.4,1.27-4.24-1.12-8.3-.32-12.3,1.15-.64.23-1.23.58-1.88.78-.96.3-1.44-.08-1.35-1.09.1-1.1.32-2.2.5-3.4-1.39.79-2.57,1.68-3.89,2.15-1.31.47-2.77.7-4.16.72-1.44.02-2.88-.36-4.38-.57.02.34.06.89.09,1.48-.3.06-.53.19-.64.12-2.22-1.46-4.48-.81-6.74-.16-.74.21-1.49.72-2.35-.2.38-.72.78-1.46,1.25-2.32-1.42.25-2.73.39-4,.7-4.66,1.18-7.19-.42-9.23-3.83-.09-.15-.23-.29-.35-.43-2.97,3.45-5.46,4.23-11.19,3.49v2.48h1.67c-1.03,2.68-2.11,5.21-1.18,8.08ZM166.44,244.55l.04.04v-6.76c-.76-.13-1.63-.28-2.79-.47.67.47,1.09.77,1.86,1.3-1.61.09-2.66-.14-3.54-.96-.05-.05.15-.37.27-.66-.48-.06-.92-.11-1.45-.17.04.47.06.78.1,1.08.05.36.11.72.18,1.11.31.04.55.06.78.11,1.48.27,2.29,1.06,2.28,2.23,0,1.11-.95,2.02-2.35,2.21-.35.05-.73,0-1.09-.07-1.6-.31-2.61-1.37-3.24-2.79-1.29-2.9-1.2-5.81.26-8.63,1.21-2.33,2.99-2.41,4.62-.33.31.4.8.85,1.24.9,1.25.12,2.52.04,3.95.04-.82-3.05-1.89-5.57-5-6.63-3.14-1.07-7.02.33-8.39,3.3-2.62,5.68-1.83,11.12,1.31,16.35.74,1.24,1.88,1.69,3.17,1.22,1.37-.5,2.65-1.25,3.96-1.91.45-.23.87-.51,1.31-.76.11.09.23.18.34.27-.15.81-.31,1.62-.5,2.63,1.15-.08,2.17-.14,3.4-.22-.26-.91-.48-1.67-.7-2.43ZM249.59,222.12c1.41-.83,2.44-2.06,2.55-3.67.12-1.84-.15-3.71-.28-5.56-.13-1.87-1.35-2.66-3-3.03-1.32-.29-2.64-.6-3.95-.95-1.64-.44-3.23-2.31-3.37-4.05-.16-2.1.41-3.97,2.2-5.23,1.02-.72,2.07-.51,2.7.56.36.62.52,1.37.66,2.09.1.52.02,1.08.02,1.53,2.04-.12,3.91-.23,5.8-.33.36-2.59-.31-4.88-1.88-6.97-1.57-2.08-3.59-2.71-6.04-2.25-2.49.48-4.63,1.68-6.52,3.33-.38.34-.73.89-.81,1.39-.35,2.2-.7,4.42-.85,6.64-.13,1.95.89,2.96,2.8,3.12,1.16.1,2.35.06,3.5.24,4.81.74,6.83,4.63,4.71,9.02-.03.06-.05.12-.08.17-.94,1.86-2.65,2.22-4.25.9-.88-.73-1.26-1.66-1.22-2.79.05-1.03.1-2.06.16-3.13h-5.03c.26,2.19.39,4.24.76,6.24.37,1.97,1.63,3.47,3.54,3.95,2.75.69,5.49.45,7.92-1.28l-.05.05ZM217.59,196.45c.22,1.72.13,3.23.64,4.5,1.02,2.53,1.57,5.12,1.42,7.81-.13,2.47-.49,4.94-.88,7.39-.5,3.14,2.15,6.9,5.31,6.98,2.88.06,5.78-.21,8.28-2,.29-.21.71-.24,1.3-.42-.36,1.35-.65,2.43-.96,3.6,1.82-.2,3.44-.39,5.13-.57-2.76-9.2-3.19-18.41-.69-27.72-2.08.17-4.01.33-6.2.51,2.4,6.98.81,13.38-2.7,19.46.14.28.27.5.35.73.1.27.16.55.25.88-1.19.42-1.72-.34-2.08-1.05-.61-1.21-1.17-2.46-1.57-3.76-1.42-4.68-1.39-9.43-.57-14.21.1-.58.13-1.17.24-2.15-2.51,1.32-4.73.41-7.28.04ZM205.03,224.29c.14-.13.27-.26.41-.39-.25-.78-.47-1.58-.75-2.36-.27-.76-.68-1.47-.91-2.23-1.74-5.62-1.89-11.37-1.31-17.18.17-1.69.63-3.29,1.65-4.69.15-.21.13-.54.22-.96h-5.05c0,.18-.05.38,0,.53,1.25,3.04.85,6.09.12,9.16-.38,1.58-.53,1.67-2.11,1.74-1.32.06-2.64.2-4.2.33-.17-.36-.56-.87-.67-1.44-.8-3.82-.22-7.62.48-11.4h-7.38c1.41,4.25,2.21,8.64,2.38,13.2.18,4.69-1.34,8.97-2.59,13.27,2.16-.44,4.13-.83,6.04-1.22.36-2.09.74-4.27,1.14-6.59-.22-.33-.54-.81-1.11-1.68,1.66.34,2.9.76,4.15.81,1.34.06,2.7-.23,4.45-.41-.61.82-.98,1.32-1.39,1.88,1.65,2.78.37,5.57-.31,8.64,2.59-.92,4.76-.57,6.74.98ZM265.95,200.67c.17-2.18.32-4.19.49-6.42-4.01,1.5-8.04,2.82-12.41,1.63-.06.55-.17.92-.14,1.27.22,2.16.42,4.32.73,6.47.07.49.55.93.82,1.4.19.34.33.7.58,1.24-.81.06-1.37.1-1.98.15,0,3.18.05,6.28-.01,9.38-.06,3.07-.24,6.14-.37,9.12,2.18-.57,4.35-1.32,6.57-1.67,2.22-.35,4.5-.3,6.9-.44.07-1.23.15-2.54.24-4.16-.72.55-1.14.9-1.58,1.2-1.49,1.06-3.14,1.72-4.96,1.85-1.19.08-1.78-.27-1.8-1.36-.04-2.04.08-4.09.26-6.12.09-.98.78-1.51,1.81-1.49.96.02,1.92,0,2.98,0,.06-1.38.13-2.77.19-4.08-1.71.6-3.29,1.26-4.91,1.7-1.25.34-1.91-.2-1.93-1.52-.04-2.11-.06-4.23.11-6.33.19-2.37,1.13-3.01,3.45-2.63,1.58.26,3.16.52,4.97.82ZM203.5,207.21c.1,4.14.59,8.19,1.83,12.14.45,1.44,1.3,2.37,2.78,2.67,1.92.4,3.81.27,5.62-.47,1.55-.63,2.81-1.63,3.18-3.37.97-4.56,1.79-9.13.89-13.84-.67-3.45-2.99-5.58-5.57-7.56-4.5-1.49-7.35.41-8.08,4.14-.4,2.06-.44,4.19-.65,6.29ZM179.59,228.77h-10.83v4.73c1.02-.53,1.87-.97,2.71-1.4,1.93,3.07,2.17,8.16.58,11.19-.59,1.14-1.32,1.5-2.58,1.25-.63-.12-1.25-.29-2.15-.5.31,1.04.57,1.79.74,2.56.08.38.15.98-.05,1.16-.81.69-.3,1.28-.19,1.72,4.32-1.19,8.51-2.35,12.79-3.53-.07-.67-.17-1.52-.28-2.45-.37.11-.65.19-.93.28-.35.11-.69.27-1.05.34-1.23.24-1.72.07-2.18-1.12-.43-1.14-.83-2.37-.85-3.57-.03-2.1.23-4.21.42-6.31.03-.32.3-.63.47-.96,1.18.29,2.27.56,3.39.84v-4.2ZM189.59,236.7c-.83.19-1.53.42-2.25.51-1.26.14-1.66-.17-1.98-1.4-.16-.6-.26-1.21-.42-1.81-.33-1.24-.26-1.49.92-2,1.73-.76,3.55-.96,5.43-.76.64.07,1.29.1,1.86.14-.08-1.88-.15-3.54-.23-5.32-3.82.63-7.4,2.57-11.23,1.16-.13.23-.21.31-.24.42-.03.12.03.29-.03.36-1.02,1.21-.51,2.32.02,3.59,1.95,4.67,2.28,9.49,1.05,14.42-.12.49-.17.99-.27,1.59,2.39-.54,4.5-1.02,6.7-1.52-1.12-1.63-2.12-3.12-3.14-4.59-.48-.69-.92-1.39-.39-2.22.55-.84,1.39-.93,2.3-.76.77.15,1.54.28,2.55.46-.26-.91-.46-1.6-.65-2.27ZM159.82,241.07c-.09-.05-.19-.1-.28-.15.19-.79.46-1.58.55-2.38.1-.84.02-1.71.02-2.69,2.59.46,5.1.9,7.78,1.38-.45,1.88-.91,3.75-.48,5.63,3.3,1.47,3.63,1.31,4.47-2.07.63-2.55.49-5.01-.78-7.56-1.44.96-2.77,1.85-4.36,2.91.15-1.02.25-1.66.39-2.57-1.92.1-3.67.19-5.48.28,0-.14-.05-.31-.03-.48.12-1.08-.19-1.69-1.02-2.06-.91-.4-1.48.18-1.84.8-.48.85-.91,1.79-1.1,2.75-.48,2.42-.11,4.72,1.43,6.7.87,1.12,2.26,1.5,3.28.92.38-.22.89-.74.85-1.05-.06-.46-.49-1.05-.91-1.23-.42-.18-1.06-.01-1.55.15-.36.12-.64.48-.95.73ZM202.84,246.48c-.33-.89-.59-1.58-.84-2.28-.42-1.16-.89-2.32-1.23-3.51-.81-2.82-.35-5.68-.11-8.52.08-.94.54-1.23,1.57-1,1.19.26,2.37.65,3.61,1,.28-1.59.55-3.14.84-4.83-4.01,1.13-7.97,1.07-11.97.45.07,1.64.14,3.16.21,4.82,1.56-.63,2.87-1.86,4.55-1.45-.08.84-.2,1.54-.21,2.24-.08,4.55-.77,8.93-3.64,12.67-.15.2-.22.47-.34.74,2.54-.11,4.92-.21,7.55-.32ZM181.36,234.14c-1.78-.33-3.24-.61-4.84-.9-.22,3.49-1.12,6.86.9,10.26,1.24-.46,2.41-.89,3.72-1.37.12,1,.22,1.86.32,2.72.13,0,.25-.02.37-.03.73-3.63.57-7.23-.47-10.67ZM244.86,200.44c-1.81.97-2.25,2.51-2.01,4.17.24,1.62,1.21,2.71,2.98,3.08,2.2.46,4.34,1.16,6.62,1.79v-4.27c-1.16-.6-2.39-.35-3.61-.29-1.25.06-2.28,1.14-3.73.88.33-1.83,1.47-3.61-.26-5.37ZM236.94,211.68c1.66,0,3.06-.02,4.46,0,2.09.03,2.47.47,2.35,2.54-.05.87-.18,1.77.02,2.59.14.56.72,1.09,1.23,1.44.23.16.9,0,1.14-.23,1.85-1.8,1.55-4.98-.58-6.53-1.24-.9-2.66-1.25-4.15-1.35-1.4-.08-2.8-.18-4.34-.29-.03.43-.07.97-.13,1.82Z"/>
    <path class="cls-2" d="M174.92,160.57c.59,1.64,1.2,2.94,1.54,4.31,1.19,4.78,1.69,9.66,2.14,14.56.58,6.42.12,12.8-.31,19.2-.17,2.65,0,5.34.15,8.01.31,5.47.6,10.94-.37,16.38-.16.92-.39,1.83-.7,2.7-.11.31-.59.48-.89.72-.1-.37-.38-.79-.28-1.1.79-2.66.92-5.39.9-8.13,0-.35-.06-.69-.11-1.27-1.54,1.32-1.19,3.41-2.55,4.74-.26-.36-.6-.6-.64-.89-.24-1.97-.06-3.86,1.31-5.45.04-.05.07-.11.11-.14,2.87-2.24,1.99-5.23,1.72-8.44-1.44,1.52-1.22,3.57-2.58,5.16-.27-.67-.53-1.02-.55-1.38-.12-1.98.25-3.92,1.34-5.53,1.81-2.7,1.93-5.69,1.95-8.92-2,.76-1.34,3.11-2.65,4.18-1-.48-.81-1.33-.59-1.95.4-1.09.85-2.26,1.59-3.12,2.19-2.55,2.32-5.52,2.08-8.61,0-.09-.15-.16-.24-.27-.87.29-.64,1.81-2.11,1.75.08-.58.08-1.1.22-1.59.41-1.43.79-2.89,1.35-4.26.65-1.59.35-3.13.21-4.88-.52.35-.89.59-1.43.94-.11-.42-.3-.72-.24-.95.27-1.08.62-2.14.9-3.21.41-1.55.04-3.03-.37-4.59-.6.5-1.11.92-1.62,1.35-.12-.09-.25-.17-.37-.25.37-1.4.81-2.78,1.08-4.2.28-1.48-.45-2.77-1-4.29-2.83,1.18-5.59,2.32-8.21,3.41-1.19-.67-.39-1.38-.2-2.07-.62-.11-1.08-.19-1.96-.35.8-.45,1.28-.92,1.78-.96,1.04-.09,2.09.04,3.14.1.36.02.77.21,1.07.09,1.71-.68,3.39-1.43,5.48-2.33-1.37-.45-2.34-.77-3.47-1.15,1.78-1.48,3.69-1.33,5.7.29,1.65-.66,3.33-1.33,5.28-2.11-.99-.35-1.71-.61-2.43-.88.09-1.05.81-1.2,1.44-1.31,1.25-.22,2.43.03,3.56.67.38.22.94.41,1.32.29,2.29-.69,4.56-1.48,7.08-2.31-1.25-.91-2.42-.97-3.64-.91,1.58-1.82,3.77-1.93,6.23-.25,1.77-.93,3.61-1.9,5.85-3.07-1-.12-1.55-.19-2.12-.26.61-1.6,2.56-2.66,4.17-2.06.98.36,1.63.16,2.36-.36,1.08-.76,2.27-1.37,2.98-2.66-.44.17-.87.38-1.32.48-.25.05-.69-.01-.78-.17-.11-.19-.03-.64.13-.81,1.11-1.15,2.42-1.68,4.07-1.11,1.36-1.32,2.53-2.73,2.7-4.72.13-1.66-.54-2.82-2.11-2.98-1.63-.17-3.31,0-4.95.17-.54.06-1.04.58-1.69.97-.26-.32-.53-.67-.89-1.13-.67.58-1.36,1.16-2.06,1.76-.19-.18-.45-.31-.44-.41.21-1.66.71-3.3,2.35-3.92,1.19-.45,1.79-1.18,2.29-2.21.35-.72.76-1.41,1.19-2.2-.45-.11-.82-.19-1.31-.31.77-2.08,2.08-3.5,4.13-3.6,2.46-.13,4.59-1.25,7.11-1.74-.71-.11-1.23-.2-1.89-.3.15-.39.18-.81.35-.88,1.43-.57,2.89-1.22,4.45-.47.92.44,1.82.39,2.66-.09,1.61-.9,3.19-1.85,4.78-2.8.37-.22.67-.56,1.04-.76.19-.1.57-.13.68-.01.17.18.3.53.26.79-.24,1.78-.25,1.78,1.11,2.62,1.63,1.01,3.37,1,5.19.71,1.45-.24,2.92-.44,4.39-.5.64-.03,1.31.27,1.93.52.2.08.41.53.35.75-.06.22-.42.5-.66.51-.74.03-1.48-.05-2.21-.09-.92-.05-1.84-.1-2.75.67.22.2.36.44.53.47,2.67.44,5.18,1.58,7.95,1.64,1.31.03,2.63.59,3.91,1,.28.09.42.58.77,1.11-.96.1-1.6.15-1.97.19.72.88,1.52,1.88,2.36,2.84.85.98,1.65,2.04,2.65,2.85.69.55,1.67.74,2.53,1.06.4.16.87.19,1.22.42.26.17.47.56.51.87.02.15-.39.41-.65.52-.31.12-.67.13-1.38.25,1.33,1.67,2.43,3.14,3.64,4.53.27.31.88.32,1.33.45,1.47.45,2.96.83,4.4,1.36.36.13.8.72.78,1.08-.04.65-.69.51-1.18.49-.58-.02-1.16,0-2.01,0,.3.5.4.78.59.99,1.43,1.55,2.86,3.09,4.3,4.62.87.93,2.01,1.11,3.2,1.24.72.08,1.45.23,2.14.45.19.06.41.52.36.74-.05.21-.43.47-.67.47-.66,0-1.33-.12-2.05-.19.41,1.09,2.5,3.69,3.26,3.96.36.13.82.02,1.24-.03.91-.1,1.82-.31,2.74-.32.51,0,1.08.24,1.53.52.25.15.48.64.42.91-.06.23-.53.47-.84.5-.65.08-1.31.02-2.27.02.27.57.34,1.04.61,1.23,2.12,1.53,4.24,3.05,7.09,2.57.66-.11,1.36-.09,2.03,0,.34.04.65.37,1.39.82-1.15.35-1.85.55-2.78.83.43.39.66.66.94.84.79.48,1.63.88,2.41,1.38,1.65,1.04,3.25,1.62,5.15.46.66-.4,1.66-.29,2.5-.26.31,0,.62.43,1.26.91-1.27.33-2.14.56-3.02.79,0,.14,0,.27,0,.41.75.14,1.49.33,2.25.4,2.03.18,4.06.31,6.09.46.37.03.76-.02,1.09.1.24.09.54.4.55.61,0,.22-.27.58-.5.65-.58.2-1.19.26-1.81.39-.07.4-.13.74-.19,1.1-.23.04-.43.15-.56.09-.45-.18-.86-.45-1.31-.64-.95-.41-1.9-1.05-2.88-1.14-4.17-.39-7.86-2.03-11.38-4.16-.48-.29-.96-.55-1.54-.87-.85.95-1.45,1.9-1.28,3.28.17,1.38.06,2.75-1.27,3.79-.33-.17-.69-.36-1.09-.58-.34.51-.67,1.04-1.04,1.53-.58.77-.63,1.52-.22,2.42.77,1.68.64,3.4-.06,5.07-.13.31-.41.55-.69.91-1.28-1.1-.04-2.48-.7-3.67-.81,1.01-1.04,2.21-1.36,3.35-.33,1.18-.54,2.31.11,3.58.9,1.76.55,3.9-.5,5.21-.95-.28-.34-1.2-.84-1.95-.28,1.85-.59,3.51-.74,5.19-.04.49.29,1.06.54,1.54.75,1.5.88,3.1.72,4.73-.05.54-.38,1.06-.82,1.55-.98-1.52-.21-3.24-.76-5.16-.25.63-.42.92-.48,1.23-.24,1.22-.45,2.45-.66,3.67-.15.87-.15,1.66.32,2.51.75,1.35.72,2.86.41,4.36-.16.79-.63,1-1.35.83-.06.12-.13.22-.16.34-.46,1.95-.23,3.65,1.46,4.99.67.53,1.18,1.27,1.7,1.96.87,1.15.89,1.91.14,3.34-1.69-.59-1.12-3.25-3.22-3.54-.04.41-.15.82-.1,1.21.4,3.08.72,6.2,2.32,8.97.22.38.44.78.52,1.19.06.31-.12.67-.19,1-.36-.14-.79-.2-1.07-.44-.26-.22-.35-.64-.54-.97-1.68-2.87-2.03-6.1-2.53-9.29-.37-2.36-.29-4.7-.17-7.07.33-6.05,1.33-11.99,2.48-17.91.49-2.5.94-5.02,1.23-7.55.39-3.51,1.66-6.75,2.83-10.02.37-1.04.92-2.05,1.56-2.95,1.64-2.28,2.84-4.78,4.09-7.48-.74-.42-1.43-.8-2.11-1.19-2.07-1.2-4.21-2.31-6.18-3.68-1.08-.75-1.88-1.93-2.79-2.94-4.67-5.13-9.4-10.21-13.98-15.43-2.53-2.88-4.75-6.04-7.19-9.01-2.99-3.63-6.88-5.78-11.44-6.73-2.56-.53-4.97-1.41-7.29-2.63-1.33-.7-2.6-1.43-3.13-2.77-2.61,1.14-5.11,2.29-7.66,3.3-1.14.45-2.37.69-3.58.91-2.62.48-4.91,1.49-6.73,3.56-1.39,1.59-2.87,3.1-3.69,5.09-.13.32-.21.67-.34,1.09,1.53-.13,2.93-.33,4.34-.35,3.56-.04,5.44,2.55,4.38,5.99-.7,2.28-2.25,4.02-3.95,5.55-1.51,1.35-3.2,2.53-4.89,3.67-7.38,4.94-15.59,7.95-24,10.51-2.52.77-4.96,1.8-7.61,2.78Z"/>
    <path class="cls-2" d="M250.89,176.18c.12,2.41-.77,4.58-.68,7-1.96-.21-3.41-1.55-5.47-1.03.18,1.83.37,3.7.55,5.49.31.1.44.19.53.16,3.25-1.14,6.6-2.1,9.31-4.41.56-.47,1.02-1.08,1.57-1.55.19-.16.57-.2.83-.13.16.04.31.38.33.6.02.36-.04.74-.13,1.1-.64,2.78-1.3,5.55-1.97,8.33-.07.29-.25.55-.38.83-5.48-1-10.88-1.69-16.27,1.17-.15-.81-.25-1.37-.36-1.97-.98-.8-2.14-1.09-3.42-1.07-.92.01-1.85.01-2.77,0-2.02-.04-3.9.42-5.65,1.47-.49.29-1.18.55-1.7.44-1.83-.39-3.66-.49-5.51-.28-.17.02-.35-.11-.72-.23-.29-2.34-.38-4.91-2.99-6.52.06.64.09,1.15.14,1.66.06.74.21,1.48.18,2.23-.04,1.33-.47,1.59-1.77,1.14-1.89-.65-3.8-1.06-5.97-.56.26.77.58,1.48.74,2.23.24,1.09-.29,1.67-1.29,1.31-3.17-1.13-6.44-.8-9.7-.9-.72-.02-1.44-.11-2.45-.18.24-.77.35-1.36.59-1.89,1.77-3.89,2.66-8.01,3.12-12.23.26-2.41.04-3.83-.82-5.9-3.23-.94-6.25-.62-8.88,1.93-.11-.09-.21-.18-.32-.27.06-.42.08-.85.17-1.26.27-1.27.7-2.52.82-3.8.22-2.32-.14-3.46-1.54-6.04.42-.1.79-.28,1.14-.25.67.06,1.35.19,2,.37,4.21,1.2,8.5,1.41,12.82.98,1.76-.17,3.48-.71,5.22-1.1.62-.14,1.23-.3,2.1-.52-.15,1.08-.26,1.84-.38,2.62,2.33.1,4.67-.15,6.82.39,2.07.53,3.93,1.89,5.9,2.89.01-.1.08-.29.05-.45-.46-2.18-.46-2.08,1.83-1.99,2.96.11,5.92.08,8.88.03.71-.02,1.43-.35,2.12-.58.91-.31,1.79-.35,2.71.15v1.86c5.16.23,9.95-1.01,14.58-3.02.11-.05.21-.12.33-.17.54-.21,1.17-.83,1.63-.14.21.31-.05,1.02-.24,1.5-.26.69-.64,1.34-.99,2-1.1,2.08-.99,4.19-.18,6.31.31.8,1,1.68.27,2.41-.84.83-1.55-.23-2.27-.58-2.9-1.42-5.96-1.75-9.34-1.49.13,1.44.25,2.69.38,4.05,2.44-.08,4.42-.92,6.48-2.14ZM208.69,186.45c.53-.14,1.05-.28,1.71-.45-.17-2.05,1.34-3.89.49-6.02-.05-.12.41-.45.89-.96.25,1.3.72,2.33.52,3.21-.14.62-.22,1.15-.07,1.73.36,1.38.71,2.78,1.83,3.78-.41.35-.7.6-1.15.98.77.11,1.3.19,1.94.28.03-2.32-.25-4.47-1.63-6.76.78.2,1.23.2,1.51.41,2.7,2.1,5.37,4.25,5.48,8.04,1.83.11,3.46.2,5.07.3.28-1.26.29-1.27-.15-1.76-.33-.36-.68-.73-1.06-1.04-2.68-2.21-4.52-5.07-6.26-8.02-.19-.33-.21-.76-.33-1.25.53-.07.89-.18,1.24-.17,1.66.04,3.15-.51,4.58-1.29,2.12-1.16,2.85-3.32,1.81-5.52-.68-1.43-1.74-2.52-3.01-3.47-2.83-2.12-6-2.43-9.33-1.97-1.13.16-2.24.42-3.28.62.81,6.66.73,13.02-.74,19.34-.19.64-.38,1.28-.65,2.15,1.09-.1,1.99-.17,2.67-.23-.64-.6-1.36-1.27-2.08-1.94ZM240.64,191.54c4.54-1.58,9.07-1,13.57-.64.47-1.92.91-3.74,1.4-5.79-.47.26-.7.36-.9.49-2.6,1.75-5.6,2.57-8.51,3.56-1.29.44-1.82.04-2.14-1.27-.13-.54-.23-1.1-.24-1.66-.03-1.66-.01-3.32-.01-5,1.62-1.21,3.29-.13,5.02.05.14-.89.26-1.64.4-2.52-.49.09-.73.12-.96.17-1.15.2-2.3.51-3.45.57-1.28.07-1.65-.35-1.8-1.59-.12-.99-.24-1.97-.32-2.96-.09-1.13.21-1.71,1.33-1.85,1.39-.18,2.83-.23,4.22-.08,1.75.18,3.48.61,5.25.93-.07-1.32-.3-2.63-.16-3.89.14-1.25.65-2.46,1.06-3.92-4.68,1.7-9.31,3.11-14.38,2.33-.68,2.7-.34,5.37-.17,7.98.22,3.47.89,6.88.28,10.39-.26,1.48-.41,3.1.52,4.72ZM191.79,171.5c2.61-.92,4.47-1.11,6.87-.56.46.1,1.09.49,1.2.88.67,2.26,1.14,4.56.89,6.96-.39,3.79-1.2,7.48-2.6,11.02-.19.47-.32.97-.53,1.63h10.19c-.89-.77-1.46-1.26-1.92-1.66-.14-.63-.13-1.28-.41-1.75-2.37-4.01-3.04-8.51-3.64-13-.37-2.78-.15-2.76,2.66-3.26.42-.08.86,0,1.29,0,.9,0,1.8,0,2.95,0-.15-1.92-.29-3.73-.43-5.51q2.26-.69,1.95-1.67c-1.59.25-3.15.57-4.73.73-1.59.16-3.2.25-4.8.2-1.65-.06-3.31-.28-4.96-.52-1.52-.22-3.03-.54-4.35-.78.13,2.53.24,4.86.36,7.27ZM238.46,189.75v-3.9c-.22.09-.43.17-.64.27-1.61.77-3.19,1.62-4.85,2.27-.83.32-1.8.36-2.71.36-.64,0-1.32-.25-1.37-1.16.49-.14.92-.27,1.4-.41-.22-.52-.43-.91-.55-1.32-.73-2.53.49-4.17,3.11-4.2.74,0,1.48.1,2.21.14.17,0,.34-.09.58-.16,0-.44.02-.86-.01-1.28,0-.09-.15-.18-.08-.11-1.47.11-2.82.36-4.15.26-1.96-.13-2.86-1.21-2.85-3.18,0-.8.09-1.62.28-2.39.79-3.26,2.73-4.5,6.03-3.87.95.18,1.89.45,3.13.74.09-1.64.17-3.13.26-4.73-2.27.42-4.25.95-6.26,1.11-1.97.15-3.97-.09-5.93-.16-.18,1.42-.09,2.61.46,3.79.69,1.49.38,3.03-.12,4.55-.24.74-.45,1.54-.46,2.31-.05,3.17-.02,6.33-.02,9.5.12-.03.24-.06.36-.08.37.76.74,1.52,1.15,2.36,3.4-1.37,7.13-1.13,11.04-.71ZM232.11,187.4c2.04-1.12,3.92-2.16,5.8-3.2.78-.43,1.12-1.08,1.02-2-.29-2.65-.52-5.31-.83-7.95-.04-.37-.34-.88-.65-1.02-1.82-.83-3.76-1.52-5.67-.56-1.81.91-1.76,2.82-1.85,4.57,0,.12,0,.25.01.37.03.89.53,1.36,1.37,1.47,1.58.22,3.07.01,4.38-.98.38-.28.76-.55,1.19-.88.23.33.49.53.48.72-.12,1.83-.29,3.67-.45,5.59-.46-.03-.81,0-1.16-.07-.97-.17-1.92-.5-2.89-.53-1.79-.05-2.46,1.04-1.75,2.68.21.5.54.96,1.01,1.78ZM208.66,172.56c-1.99.8-3.9-.13-5.58.81-.25,3.71,1.88,11.46,4.03,14.31,1.47-4.99,1.56-9.88,1.55-15.12ZM224.68,187.04v-8.63c-1.8.6-3.46,1.15-5.3,1.76,1.26,2.47,3.01,4.59,5.3,6.87Z"/>
    <path class="cls-2" d="M240.39,229.51c-.11-.78-.21-1.55-.35-2.56,2.6.81,4.91.11,7.29-1.17.09,1.96.1,3.59,1.51,5.16.39-1.45.72-2.65,1.07-3.94.82.34,1.7.92,2.64,1.06.94.13,1.93-.18,3-.3v1.36c3.7-.85,7.19-.93,10.03,1.91.2-.13.31-.17.39-.26,2.15-2.18,4.07-2.07,5.74.52.72,1.12,1.27,2.44,1.55,3.74.48,2.18.67,4.42.99,6.63.03.23.12.44.33.66.68-2.25,1.03-4.6.75-6.85-.27-2.21-1.25-4.34-1.95-6.57,2.33.34,4.58.67,7.02,1.03-.96,2.91-2.09,5.68-1.65,8.79,1.92-1.14,2.1-1.59,3.4-8.02,1.81-.26,3.61.25,5.51.34.17.53.33,1.03.56,1.73.75-.27,1.5-.48,2.19-.81.65-.31,1.23-.76,2.21-1.4-.19.73-.18,1.12-.37,1.31-1.34,1.37-1.45,3.11-1.48,4.86-.01.74.14,1.48,1.1,1.94,1.68-1.7,1.83-3.77,1.4-5.96,1.4-.42,2.7-.77,3.97-1.18,1.23-.4,2.19-1.51,3.94-1.77-.31.84-.43,1.35-.67,1.81-2.03,3.91-2.94,7.97-2.21,12.43.29,1.8.05,3.72-.18,5.56-.26,2.1-1.83,3.66-3.94,3.82-1.9.14-3.63.58-5.22,1.62-.13.08-.35.03-.8.06.37-1.42.89-2.73.99-4.08.1-1.29-.24-2.61-.41-4.04.65-.1,1.07.52,1.58.86,2.9,1.98,3.82,1.56,4.04-1.97.07-1.08-.09-2.18-.16-3.63-2.25,1.7-4.49,1.77-6.87,1.46-.5,2.18.41,4.1.68,6.14-1.33.44-2.58.9-3.85,1.26-1.27.35-2.09,1.64-3.68,1.86-.02-1.51.83-2.51,1.12-3.67.29-1.14.66-2.27.89-3.42.24-1.21.34-2.44.32-3.73-2.78,2.17-4.6,4.87-4.73,8.74-.98-.45-1.72-.79-2.78-1.28.36.97.61,1.66,1,2.7-1.23-.55-2.11-1.09-3.06-1.34-.94-.24-1.95-.17-3.16-.25-.25-2.88.47-6.02-1.93-8.64-.75,2.57-.67,5.13-.84,7.85-1.05-.31-1.79-.69-2.53-.69-.75,0-1.51.35-2.44.59-.16-3.93.79-7.66,1.18-11.59-1.01.3-1.87.56-2.97.89-.13,1.89-.42,3.86-.33,5.81.08,1.87.55,3.72.9,5.91-2.47-.94-4.05-3.67-6.95-2.31.04.36.1.76.18,1.42-.96-.25-1.78-.61-2.61-.63-.9-.02-1.83.19-2.71.45-.87.26-1.69.71-2.87,1.23.2-.63.25-1.01.43-1.31,1.55-2.42,2.85-4.94,3.2-7.86.22-1.76-.19-3.4-.63-5.19-.71.8-1.32,1.47-2,2.22-.59-.48-1.05-.86-1.51-1.23-.81,1.46-.73,2.83.64,9.6-3.06.43-5.83,1.6-8.28,3.68-.6-.84.31-1.54.08-2.4-4.2,1.65-7.81.62-10.95-2.55-1.18.64-2.42,1.45-3.76,2.01-1.61.67-3.3.92-5.06.46-1.44-.38-2.42-1.21-2.76-2.69-.19-.85-.46-1.71-.44-2.56.1-3.85.18-7.71.49-11.55.19-2.3,1.09-4.34,3.47-5.32,1.98-.81,3.89-.67,5.66.45,1.19.75,2.23,1.75,3.51,2.77,1.49-1.8,3.73-2.19,6.01-2.46,2.45-.28,4.2,1.08,6.09,2.52ZM264.75,234.44c.65-1.64.46-2.61-.84-3.57-2.59-1.93-5.39-1.67-8.27-.84.4,1.36.91,2.58,1.09,3.85.55,3.76.12,7.44-1.31,10.98-.31.77-.75,1.49-.83,2.6,2.05-.92,3.39.56,4.89,1.04,0-2.18.08-4.27-.02-6.35-.11-2.26.44-3.85,2.85-4.62,1.28-.42,2.47-1.44,2.5-3.13l-.05.06ZM250.32,244.8c-.22.51-.44,1.01-.66,1.52-.44.77-.88,1.53-1.42,2.47,1.74-.27,3.15-.49,4.64-.72-1.8-6.65-.46-12.9,1.58-19.07-1.34-.1-2.6-.2-3.97-.31-.18.51-.37,1.17-.64,1.79-.28.65-.65,1.27-1.11,2.15-1.36-1.72-2.01-3.4-2.3-5.17-1.82.3-3.54.58-5.21.85.73,6.86-.3,13.51-1.78,20.18,1.93-.8,3.73-1.54,5.57-2.3-.26-1.94-.51-3.89-.79-5.99-.57.26-1.07.49-1.61.74v-1.62c.53-.03.99-.06,1.41-.09.46-1.34.35-2.76,1.31-3.97.61.81,1.13,1.5,1.82,2.42.76-1.29,1.34-2.28,1.98-3.35.97.67.94,1.66,1.15,2.52.62,2.64.59,5.29.02,7.94ZM227.76,245.18c2.3,2.58,5.13,3.46,8.25,2.92,1.66-.28,3.17-1.15,3.34-3.36.27-3.53.77-7.03,1.14-10.55.18-1.65-.42-3.04-1.52-4.24-2.63-2.86-7.23-2.8-10.21.15.14,1.05,1.53,1.72.9,3.12-.6-.17-1.16-.34-1.93-.56-.22,2.52-.43,4.92-.63,7.33-.13,1.47.03,2.85,1.56,3.66-.31.54-.55.95-.89,1.53ZM278.23,240.63c-.99-3.62-.02-6.71.93-9.88-1.46-.19-2.85-.37-4.31-.56.05.36.02.56.1.71,2.1,4.12,1.59,8.37.27,12.51-.56,1.75-.68,3.33-.22,5.07.75.23,1.5.47,2.29.72.67-3.4,2.52-5.97,5.06-8.08.31-.26.9-.35,1.3-.25.19.05.36.76.29,1.12-.45,2.5-.97,4.99-1.48,7.49-.09.45-.24.89-.41,1.49,1.73-.7,3.26-1.32,4.79-1.93-.36-2.8-.99-5.56-.6-8.45.38-2.81.42-5.67.62-8.65-1.23-.13-2.49-.27-3.87-.42-.48,3.63-1.44,6.93-4.76,9.11ZM274.23,250.09c-.3-2.71-.56-5.23-.87-7.74-.33-2.59-.57-5.19-1.14-7.72-.28-1.27-1.12-2.46-1.88-3.56-.55-.8-1.5-1.13-2.48-.75-.93.36-1.62,1.13-1.64,2.09-.04,1.61-.4,3.06-1.32,4.38-.13.18-.15.46-.18.71-.21,1.73-.39,3.45-.6,5.18-.22,1.88-.46,3.76-.69,5.68h2.87c-.12-2.81.36-5.44,1.56-8.12,2.07,1.57,2.73,3.88,3.48,6.1.33-.07.58-.12,1.02-.21-.21.8-.23,1.76-.55,1.88-1.03.37-.7,1.05-.81,1.72,1.14.13,2.12.24,3.24.36ZM294.78,241.01c.53,1.63.53,3.17.45,4.7-.05.92-.18,1.87-.47,2.74-.4,1.23-1.03,1.53-2.29,1.26-.68-.15-1.34-.41-2.05-.63-.24,1.47-.45,2.79-.66,4.09,1.41-.25,2.67-.48,3.94-.68,2.31-.37,3.46-1.44,3.63-3.76.14-1.85.2-3.75-.06-5.58-.38-2.73-.07-5.33.76-7.9.35-1.1.72-2.19,1.12-3.4-1.65.57-3.13,1.08-4.64,1.6,0,3.02-.67,5.65-3.61,7.08-.14-.63-.24-1.12-.34-1.6-.21-.95-.53-1.89-.61-2.85-.07-.9.11-1.81.2-2.91-.87.23-1.57.41-2.52.66-.17,2.88-.35,5.76-.52,8.63,1.44.62,2.75.75,3.99.32,1.24-.42,2.38-1.13,3.69-1.78ZM218,238.93c.1-.02.19-.03.28-.05.07-.86.14-1.72.23-2.57.1-.93.13-1.87.36-2.77.26-1.01.57-2.06,1.11-2.92,1.08-1.69,2.58-1.65,3.7-.01.3.43.54.91.74,1.24,1.28-.25,2.38-.46,3.58-.69-1.05-1.77-2.46-3.06-4.16-3.97-1.27-.68-2.66-.84-4.11-.3-1.84.68-2.79,2.07-3.04,3.89-.34,2.52-.6,5.06-.67,7.61-.06,2.16.07,4.35.35,6.49.24,1.81,1.04,2.46,2.86,2.61,3.23.28,5.87-.86,7.93-3.53-.87-.69-1.63-1.31-2.42-1.94-2.32,2.31-4.41,1.41-6.41-.51-.17,1.05.27,1.53.95,1.86,1.15.56,1.52,1.56,1.69,2.85-.63.17-1.19.33-1.7.47-.36-.65-.54-1.22-.91-1.6-.89-.89-1.39-1.82-.95-3.13.14-.4-.05-.93-.1-1.39-.1-.97-.21-1.93-.32-2.9.13-.03.27-.06.41-.1.19.45.38.9.57,1.34ZM226.83,231.96c-1.36.83-2.34,1.42-3.51,2.13.04-.7.1-1.13.07-1.55-.08-1.03-.82-2.17-1.47-2.15-.95.03-1.28.84-1.66,1.55-.03.06-.06.11-.08.17-.88,2.69-1.01,5.48-.84,8.28.07,1.14.92,1.81,2.1,2.03,1.18.22,1.68-.03,2.38-1.17.13-.21.29-.38.49-.63.54.31,1.04.58,1.66.93.28-3.16.55-6.14.85-9.59ZM254.79,231.34c-1.82,3.51-2.47,11.9-1.14,14.86,2.62-4.61,3.17-11.88,1.14-14.86Z"/>
    <path class="cls-2" d="M221.53,136.91c.38.02.8.04,1.34.07.74-1.98,2.13-1.05,3.73-.4-.15-1.02-.26-1.72-.37-2.49-.83-.07-1.58-.13-2.47-.2.57-1.22,2.95-.32,2.3-2.56-1.66.27-2.78,1.84-4.59,2.21.27-1.59,1.91-1.66,2.49-3-1.04.49-1.93.9-3.2,1.49.29-.68.36-.95.52-1.16.49-.63,1.53-.83,1.47-1.9,1.13-.16,2.17-1.27,3.4-.31.08.06.22.03.55.07.08-.43.24-.88.25-1.33.01-.99-.12-1.99-.06-2.98.04-.62.33-1.22.51-1.83.15,0,.29.01.44.02.12.44.35.88.32,1.31-.07,1.45-.06,2.89-.33,4.36-.26,1.41-.41,2.97-.37,4.49.08,2.47.05,4.94-.02,7.41-.05,1.86-.26,3.71-.38,5.56-.16,2.55-.31,5.09-.46,7.63-.03.5-.18,1.02-.06,1.49.6,2.37-.32,4.68-.24,7.03.02.45-.39.92-.73,1.64-.39-.59-.65-.85-.76-1.16-.41-1.1-.57-1.16-1.56-.4-.14.11-.31.18-.57.34-.19-.22-.38-.45-.64-.78-1.34.37-1.9,2.51-4.05,1.92.63-.47,1.07-.8,1.68-1.27-1.44-.56-3.2.17-4.38-1.64.96.07,1.69.13,2.58.19-.11-.67-.21-1.23-.36-2.11.67.12,1.19.13,1.65.3,1.64.61,3.12.8,4.59-.59.64-.61,1.11-1.08,1.05-1.97-.05-.77-.09-1.55-.15-2.76-1.09,1.05-1.84,1.78-2.81,2.71-.04-.7-.06-1.03-.1-1.76-.45,1.16-.76,1.97-1.08,2.79-.12,0-.24,0-.36,0-.11-.78-.22-1.57-.36-2.59-.39.37-.73.6-.95.91-.64.9-1.34,1.56-2.58,1.56-.38,0-.75.65-1.24,1.11-.39.02-.96.05-1.55.08-.21-.34-.42-.69-.63-1.02-.78.25-1.46.52-2.15.68-.68.17-1.39.23-2.04.33-.51-1.09,1.87-.86.32-2.14,1.06,0,1.77-.01,2.49,0,.72.02,1.23-.17,1.73-.8.48-.6,1.2-1.1,1.27-1.41.51.09,1.03.19,1.53.28.13-.32.24-.59.35-.88.24.03.43,0,.59.07.97.43,1.87.41,2.8-.2.39-.26.95-.23,1.39-.44.58-.28,1.13-.63,1.66-.99.7-.48,1.38-1,2.22-1.62v-2.88c-2.2.04-2.97,1.87-4.14,3.1-.47,0-.75-.64-1.42-.06-.51.45-1.56.13-2.21.77-.09.09-.59-.26-.86-.39-.82.74-1.59,1.43-2.6,2.35v-1.63c-1.22.31-2.08-.28-2.72-1.52,1-.46,2.42,0,2.69-1.49.59.14,1.11.26,1.84.43-.24-.56-.42-.95-.66-1.51,2.2-.03,4.23.19,6.32-.14.06-.38.12-.77.17-1.11,1.29-.18,2.48-.34,3.89-.54-.07-1.36-.14-2.68-.22-4.27-1.25.94-2.28,1.7-3.26,2.42-1.03-.49-.87-1.09-.41-1.72.93-1.29,2.17-1.99,3.91-1.89.15-.48.29-.93.47-1.5-.5-.25-.97-.48-1.54-.77-1.01,1.05-1.97,2.1-2.98,3.09-.92.91-1.89,1.75-2.84,2.63-.11-.1-.23-.19-.35-.29.32-.61.65-1.22.99-1.86-.23-.17-.45-.35-.68-.52.04-.13.05-.28.12-.32.85-.51.84-.51,1.73-2.2.12-.22.48-.38.75-.43.83-.16-.03-.7.42-1.14Z"/>
    <path class="cls-2" d="M247.6,152.91c-.99.66-2.12-.2-3.03.14-.21.96-.4,1.86-.65,2.99-1.46-1.3-2.76-2.45-4.14-3.68-.15.33-.34.73-.66,1.41-1.29-1.4-2.46-2.67-3.6-3.91-.73.48-1.26.83-2.21,1.45.07-1.07.12-1.69.17-2.43-.26-.16-.62-.37-1.16-.71.15.77.25,1.33.38,2.01h-1.15c0,1.2.79,1.88,1.49,2.68.38-.26.7-.48,1.13-.78.25.53.45.95.68,1.43.27-.03.51-.03.74-.07,1.63-.35,1.95-.19,2.51,1.31q.42,1.13,1.79,2.08c.08-.21.15-.53.31-.79.15-.26.4-.46.72-.81.82,1.17,1.86,1.97,3.08,2.58,1.04.52,1.94.61,2.93-.07.87-.59,1.82-.5,3.22-.04-.92.4-1.48.64-2.28.99,1.26.44,2.31.81,3.37,1.18-.49,1.05-.91,1.95-1.41,3.04-2.39-1.58-4.46-3.73-7.67-3.07-.27-.51-.56-1.09-.95-1.83-.81,1.01-1.59,1.43-2.3.11-1.19.37-1.47-.74-2.03-1.32-1.88.57-2.61-1.47-4.21-1.6q-.94,1.13-.67,2.89c.64,0,1.31-.07,1.95.02.65.08,1.28.32,2.12.55-.48.45-.76.72-1.15,1.09,1.12.61,2.19.15,3.33-.04-.07.56-.11.91-.16,1.36,2.73-.76,4.67,1.16,7.35,1.85-.81.61-1.28.96-1.83,1.37-.33-.29-.63-.58-.96-.83-.19-.15-.52-.38-.63-.31-1.4.87-2.58-.26-3.85-.38-.33-.03-.81.03-1.01.25-.77.83-1.4.54-2.11-.2-.32.42-.62.81-1.04,1.37-.49-.66-.87-1.18-1.2-1.62-.58.8-1.15,1.6-1.67,2.32-1.06-.2-.07-2.06-1.64-1.35.21-2.01.4-3.74.57-5.47.04-.37.1-.75.07-1.11-.52-4.85.29-9.68.23-14.52,0-.55.1-1.1.41-1.73.13.34.33.67.37,1.02.11.92.08,1.86.21,2.78.25,1.93,1.04,2.53,2.93,2.45.92-.04,1.84-.01,2.76,0,.08,0,.16.16.39.41-.52.2-.97.38-1.42.55.01.05,0,.16.04.17.87.44,1.74.87,2.59,1.28,2.41-1.58,3.52-1.6,5.1-.05.53-.22,1.08-.47,1.65-.69.53-.2,1.08-.35,1.8-.59-.14,1.31-1.11,1.46-1.58,2.04-.28.35-.55.77-.6,1.19-.02.15.61.42.97.57.54.22,1.11.38,1.66.56-.02.17-.04.33-.06.5Z"/>
    <path class="cls-2" d="M234.89,126.93c-.84.64,0,1.52-.31,2.08-.45.83-.57,1.55-.28,2.62.71-.7,1.31-1.28,1.9-1.87.11.07.21.14.32.21-.05.26-.02.57-.16.77-1.25,1.82-.24,3.37.57,4.91.54,1.02.58.99.57,2.18-.78-.95-1.48-1.74-2.11-2.58-.4-.54-.6-1.04-1.55-.93-.56.06-1.11-1.16-2.27-.08.11-1.11.16-1.69.21-2.26-1.45.65-1.47.85-1.12,2.18.24.92.24,1.93.23,2.9,0,1.44.17,1.64,1.55,1.4.6-.1,1.21-.19,1.71-.03,1.16.57,2.32,1.15,3.6,1.78-.19.43-.39.87-.58,1.3.87,1.66,2.36.18,3.61.74-.35.44-.66.83-1,1.27.35.33.7.67,1.01.97.06.81-1.65,2.12-3,2.37-1.06-1.03,1-2.69-.74-3.69-.37.49-.72.95-1.26,1.65-.3-.74-.5-1.26-.72-1.8-.3.2-.59.4-1,.68-.53-.77-1.45-1.19-1.5-2.35-.01-.39-.55-.77-.9-1.11-.96-.95-1.93-1.81-1.88-3.42.03-.98-.29-1.98-.78-2.96-.63-1.25-.05-2.7.46-3.92.23-.55.6-1.11.9-1.68.84-1.66,2.41-2.11,4.51-1.31ZM238.4,145.6c.14.07.27.14.41.22.13-.3.27-.6.39-.91,0,0-.27-.14-.28-.13-.18.26-.35.55-.51.82Z"/>
    <path class="cls-2" d="M227.71,148.56c-.48-2.37-.12-4.69.44-6.99.83,2.39-.2,4.66-.44,6.99Z"/>
    <path class="cls-2" d="M229.11,147.45c.72,1.53.27,3.07.03,4.8-1.14-.69-.54-1.62-.6-2.35-.06-.81.06-1.64.11-2.46.15,0,.3,0,.46.02Z"/>
    <path class="cls-2" d="M227.91,156.49c.2,1.86.32,3.72,0,5.58-.13,0-.26,0-.39,0v-5.55c.13-.02.26-.03.39-.04Z"/>
    <path class="cls-2" d="M229.56,126.58c-.43-1.54-.61-3.09-.09-4.81.52,1.2.63,3.28.09,4.81Z"/>
    <path class="cls-2" d="M228.28,138.62v-2.31c.96.79.52,1.57.56,2.28-.19.01-.38.02-.56.03Z"/>
    <path class="cls-2" d="M228.16,150.49c.04.62.08,1.24.14,2.06q-.71-.79-.14-2.06Z"/>
    <path class="cls-2" d="M217.59,196.45c2.55.38,4.76,1.28,7.28-.04-.11.97-.14,1.57-.24,2.15-.82,4.78-.85,9.54.57,14.21.39,1.29.95,2.55,1.57,3.76.36.72.89,1.47,2.08,1.05-.09-.33-.15-.61-.25-.88-.08-.23-.21-.44-.35-.73,3.51-6.07,5.1-12.47,2.7-19.46,2.18-.18,4.12-.34,6.2-.51-2.5,9.31-2.07,18.52.69,27.72-1.68.19-3.31.37-5.13.57.31-1.18.6-2.25.96-3.6-.59.18-1.01.21-1.3.42-2.5,1.8-5.4,2.07-8.28,2-3.15-.07-5.81-3.83-5.31-6.98.4-2.45.75-4.92.88-7.39.15-2.68-.4-5.28-1.42-7.81-.51-1.27-.42-2.77-.64-4.5ZM234.45,215.2c.06-.52.11-.93.15-1.27-.35-.32-.69-.58-.97-.89-.5-.57-1.24-.32-1.32.09-.25,1.35-1.48,1.7-2.48,2.85.43.13.84.26,1.31.41-.74.48-1.12.73-1.52.99,2.08,2.38,2.44,2.48,4.66,1.32-.26-.58-.52-1.17-.79-1.78.13-.1.44-.34.87-.66-.49-.19-.82-.32-1.33-.51.55-.21.94-.36,1.42-.55ZM227.29,219.06c-1.12-.21-1.86-.34-2.65-.49.21-.23.34-.37.66-.73h-2.48c-.02-.1-.04-.21-.06-.31.8-.25,1.59-.5,2.47-.77-1.43-1.59-1.85-1.68-3.84-.9.17.29.34.56.49.81-.32.2-.62.38-.72.43.13.66.08,1.25.34,1.58.28.35.86.47,1.06.57.08.55.12.89.18,1.23.05.35.11.7.18,1.15,1.13.04,2.32.33,3.22-.69.13-.16-.13-.66-.21-1.02.32-.2.66-.41,1.37-.85ZM218.69,198.9c.38.74.72,1.41,1.04,2.04,1.47.01,1.31-1.21,1.78-1.99-1.03-.72-1.91-.51-2.82-.05ZM223.15,215.09c-.03-.67-.05-1.1-.08-1.68-.76.34-1.37.6-1.98.87.02.17.04.33.06.5.63.1,1.27.2,2,.31ZM234.25,222.48h1.64c.07-.75.11-1.34-.84-1.51-.22.42-.45.85-.8,1.51ZM233.89,211.02q-1.6-.07-1.82.89c.58-.28,1.09-.53,1.82-.89ZM222.96,210.36c-.64-.73-1.15-.63-1.88.22.84-.1,1.36-.16,1.88-.22ZM221.98,205.48c-.07-.11-.14-.23-.2-.35-.41.04-.99-.21-.99.8.28-.02.51.03.7-.05.19-.08.33-.27.49-.41ZM220.83,207.98c0,.14.01.28.02.41.46.23.9.38,1.26-.41h-1.28ZM222.75,211.95c-.94-.07-1.44-.19-1.64.81.56-.28.91-.45,1.64-.81Z"/>
    <path class="cls-2" d="M205.03,224.29c-1.98-1.55-4.15-1.9-6.74-.98.69-3.07,1.96-5.86.31-8.64.41-.56.78-1.06,1.39-1.88-1.75.18-3.11.47-4.45.41-1.25-.05-2.49-.47-4.15-.81.57.86.89,1.34,1.11,1.68-.4,2.31-.78,4.49-1.14,6.59-1.92.39-3.88.78-6.04,1.22,1.25-4.3,2.77-8.58,2.59-13.27-.17-4.56-.97-8.95-2.38-13.2h7.38c-.7,3.77-1.28,7.57-.48,11.4.12.57.5,1.09.67,1.44,1.56-.13,2.88-.27,4.2-.33,1.58-.07,1.74-.16,2.11-1.74.72-3.06,1.12-6.12-.12-9.16-.06-.15,0-.35,0-.53h5.05c-.1.42-.07.76-.22.96-1.02,1.4-1.48,3-1.65,4.69-.58,5.81-.43,11.56,1.31,17.18.24.76.64,1.48.91,2.23.28.77.5,1.57.75,2.36-.14.13-.27.26-.41.39ZM187.23,219.81c2.77-1.28,3.65-2.7,3.48-5.61-.05-.89.13-2.1-1.44-2.46.49,2.97-.95,5.36-2.04,8.07ZM200.47,217.55c.37.84.65,1.49.83,1.92-.33.87-.59,1.55-.85,2.23.1.08.19.16.29.24.72-.39,1.44-.79,2.07-1.15.22-1.63-.73-2.55-1.57-3.51-.06-.07-.41.13-.77.25ZM193.44,210.87c0,.75.32,1.18.97,1.08.79-.12,1.8.29,2.42-.88-1.21-.46-2.27-.51-3.39-.21ZM201.8,215.21c-.52-.92-1.05-1.11-1.87-.7.03.52.06,1.01.1,1.68.67-.37,1.14-.63,1.77-.97ZM199.33,209.94q1.55.53,1.31-.76c-.47.27-.89.52-1.31.76ZM190.08,207.87c-.03-.11-.07-.22-.1-.33-.26.11-.53.22-.79.33.04.1.11.29.12.28.26-.08.52-.18.77-.28Z"/>
    <path class="cls-2" d="M249.64,222.07c-2.43,1.73-5.17,1.97-7.92,1.28-1.91-.48-3.17-1.98-3.54-3.95-.38-2-.5-4.05-.76-6.24h5.03c-.06,1.07-.11,2.1-.16,3.13-.05,1.13.34,2.06,1.22,2.79,1.6,1.32,3.31.96,4.25-.9.03-.06.05-.12.08-.17,2.12-4.39.1-8.28-4.71-9.02-1.15-.18-2.34-.14-3.5-.24-1.91-.16-2.93-1.17-2.8-3.12.15-2.22.5-4.44.85-6.64.08-.5.42-1.05.81-1.39,1.89-1.66,4.03-2.86,6.52-3.33,2.44-.46,4.47.17,6.04,2.25,1.57,2.09,2.23,4.38,1.88,6.97-1.89.11-3.76.21-5.8.33,0-.45.08-1.01-.02-1.53-.14-.72-.29-1.48-.66-2.09-.63-1.07-1.68-1.28-2.7-.56-1.79,1.27-2.36,3.13-2.2,5.23.14,1.73,1.73,3.6,3.37,4.05,1.31.35,2.63.66,3.95.95,1.65.36,2.87,1.16,3,3.03.13,1.85.4,3.72.28,5.56-.11,1.61-1.13,2.84-2.55,3.67-.06-1.1-.34-1.43-1.18-1.19-.66.2-1.26.59-1.89.9.02.08.04.16.07.24h3.05ZM239.01,217.67c.26.63.38,1.17.69,1.57.64.84,1.43,1.58,2.07,2.42.89,1.15,2.13,1.36,3.47.46-.38-.48-.69-1.28-1.15-1.39-1.06-.25-1.52-1.01-2.12-1.75-.68-.84-1.42-1.66-2.97-1.31ZM251.19,198.91c-.87.65-1.48,1.03-1.98,1.51-.55.52-.99,1.14-1.8,2.08,1.55-.09,2.63-.11,3.69-.25.24-.03.63-.51.61-.75-.08-.81-.31-1.61-.52-2.58ZM248.58,219.69c2.14.22,3.19-.63,2.91-2.37-.08-.52-.23-1.1-.79-1.05-.46.04-1.1.38-1.29.76-.41.83-.57,1.77-.84,2.66ZM238.25,204.63v2.07c.95.53,1.9.54,2.86.25.12-.04.18-.25.33-.48-.52-.07-.92-.13-1.07-.15-.16-.76-.29-1.39-.45-2.1-.7.17-1.16.28-1.68.4ZM250.02,213.63q1.08-.34,1.2-1.2c-.32.24-.55.38-.75.57-.15.14-.25.34-.45.63ZM249.03,198.26c.74-.62.75-1,0-1.56v1.56ZM240.73,215.88c-.06-.16-.13-.33-.19-.49-.41.2-.82.39-1.22.58.05.13.1.25.15.38.42-.16.84-.31,1.26-.47ZM239.23,201.54c-.01-.13-.03-.27-.04-.39-.22-.06-.45-.2-.65-.16-.23.04-.43.23-.65.35.04.11.07.21.11.32.41-.04.82-.08,1.24-.11Z"/>
    <path class="cls-2" d="M265.95,200.67c-1.81-.3-3.39-.56-4.97-.82-2.33-.38-3.27.25-3.45,2.63-.17,2.1-.15,4.22-.11,6.33.02,1.32.68,1.86,1.93,1.52,1.63-.44,3.21-1.1,4.91-1.7-.06,1.31-.12,2.71-.19,4.08-1.06,0-2.02.01-2.98,0-1.03-.02-1.72.51-1.81,1.49-.18,2.03-.3,4.08-.26,6.12.02,1.08.61,1.44,1.8,1.36,1.82-.13,3.47-.79,4.96-1.85.44-.31.86-.65,1.58-1.2-.1,1.62-.17,2.93-.24,4.16-2.4.14-4.68.09-6.9.44-2.22.35-4.38,1.1-6.57,1.67.13-2.98.31-6.04.37-9.12.07-3.1.01-6.2.01-9.38.61-.05,1.17-.09,1.98-.15-.25-.54-.4-.91-.58-1.24-.27-.48-.75-.91-.82-1.4-.31-2.14-.52-4.31-.73-6.47-.03-.35.07-.72.14-1.27,4.37,1.19,8.4-.13,12.41-1.63-.17,2.23-.32,4.24-.49,6.42ZM261.98,211.3c-.61.24-1.42-.02-2,.79,1.02.28,1.46-.32,1.94-.83.3-.18.6-.36.91-.54-.02-.13-.04-.25-.06-.37h-1.08c.09.32.19.63.28.95ZM254.61,222.36c1.03.46,1.56.2,1.96-.32.75-.99.66-2.45-.23-3.62-.58,1.31-1.12,2.56-1.72,3.94ZM263.78,196.89q-1.85,1.28-2.4,2.57c1.17.37,2.27.46,3.42-.43-.31-.66-.64-1.34-1.02-2.14ZM255.36,217.26c.14.1.28.19.43.28.41-.64.82-1.27,1.32-2.05-1.47.06-1.16,1.26-1.75,1.77ZM255.4,212.4c.13.18.27.36.4.55.32-.26.64-.52.97-.78-.09-.14-.19-.27-.28-.41-.36.21-.73.42-1.08.64ZM265.47,221.83c-.02-.17-.05-.34-.07-.51-.38.09-.75.18-1.13.27.03.13.05.26.07.39.38-.05.75-.1,1.13-.15ZM256.75,211.29c-.29-.18-.46-.35-.66-.39-.14-.02-.3.14-.46.21.19.18.37.39.59.52.06.03.25-.16.53-.34Z"/>
    <path class="cls-2" d="M203.5,207.21c.2-2.1.24-4.23.65-6.29.73-3.74,3.58-5.63,8.08-4.14,2.58,1.98,4.9,4.11,5.57,7.56.91,4.71.08,9.27-.89,13.84-.37,1.74-1.63,2.74-3.18,3.37-1.81.74-3.71.86-5.62.47-1.47-.3-2.32-1.23-2.78-2.67-1.24-3.95-1.73-7.99-1.83-12.14ZM207.78,210.15c-.34,2.04.48,4.38,1.44,6.69.78,1.9,2.06,2.45,3.79,1.41.75-.45,1.42-1.2,1.87-1.97.45-.78.67-1.73.84-2.64.65-3.57.98-7.14-.11-10.7-.38-1.25-1.07-2.23-2.11-2.97-1.82-1.28-3.64-.71-4.41,1.39-.98,2.66-1.28,5.43-1.3,8.79ZM206.28,215.82c-.45.25-1,.68-.44,1.08.78.55.34,1.83,1.42,2.07,1.13,1.98,2.02,2.42,4.11,2.11.48-.07.98,0,1.46-.05,1.41-.17,2.11-.95,2.15-2.45-.24.16-.47.25-.63.42-1.32,1.3-2.19,1.42-3.72.63-1.76-.91-2.74-2.7-4.34-3.8ZM206.44,205.97c-.74-.18-1.2.02-1.2,1.05.53-.46.87-.75,1.2-1.05ZM204.88,208.2c.12.1.24.2.36.3.2-.28.39-.57.59-.86-.09-.07-.18-.14-.27-.2-.23.25-.45.51-.68.76Z"/>
    <path class="cls-2" d="M166.44,244.55c.22.76.44,1.52.7,2.43-1.24.08-2.25.14-3.4.22.19-1.02.35-1.83.5-2.63-.11-.09-.23-.18-.34-.27-.43.26-.86.54-1.31.76-1.31.66-2.59,1.41-3.96,1.91-1.29.48-2.42.03-3.17-1.22-3.14-5.23-3.93-10.67-1.31-16.35,1.37-2.97,5.24-4.37,8.39-3.3,3.11,1.06,4.18,3.58,5,6.63-1.43,0-2.7.08-3.95-.04-.44-.04-.93-.5-1.24-.9-1.63-2.08-3.41-2-4.62.33-1.46,2.81-1.55,5.72-.26,8.63.63,1.42,1.64,2.48,3.24,2.79.36.07.74.12,1.09.07,1.4-.19,2.35-1.11,2.35-2.21,0-1.17-.8-1.96-2.28-2.23-.23-.04-.47-.07-.78-.11-.07-.39-.13-.75-.18-1.11-.04-.31-.06-.61-.1-1.08.53.06.97.11,1.45.17-.13.29-.32.61-.27.66.88.82,1.94,1.05,3.54.96-.77-.54-1.19-.83-1.86-1.3,1.16.19,2.03.34,2.79.47v6.76c-.48-.17-.95-.33-1.71-.6.28.62.42.94.61,1.36.41-.31.73-.56,1.05-.8ZM159.84,245.86c-.18-.31-.29-.61-.5-.81-.2-.2-.53-.25-.76-.42-.42-.31-.92-.6-1.17-1.03-.34-.57-.75-.66-1.2-.39-.67.41-.37,1.12-.01,1.42.98.81,1.87,2.07,3.64,1.23ZM156.29,240.51c-.21-.64-.35-1.07-.5-1.55-.93.2-1.52.64-2.06,1.55h2.57ZM164.94,229.18c-.63.2-1.38.08-1.81.85,1.9.5,1.91.5,1.81-.85ZM166.09,231.32q-1.88-.68-2.62,0h2.62ZM156.72,241.87c-.06-.16-.12-.32-.18-.48-.58-.13-1.04-.01-1.3,1.02.64-.24,1.06-.39,1.48-.54ZM155.54,232.89c-.05-.09-.09-.18-.14-.27-.31.15-.62.29-.93.44.06.11.12.22.18.34.29-.17.59-.34.89-.5Z"/>
    <path class="cls-2" d="M179.59,228.77v4.2c-1.12-.28-2.21-.54-3.39-.84-.17.34-.44.64-.47.96-.18,2.1-.44,4.21-.42,6.31.02,1.2.42,2.43.85,3.57.45,1.19.95,1.35,2.18,1.12.36-.07.7-.23,1.05-.34.28-.09.56-.17.93-.28.1.94.2,1.78.28,2.45-4.28,1.18-8.47,2.34-12.79,3.53-.11-.44-.62-1.03.19-1.72.2-.17.14-.78.05-1.16-.17-.77-.43-1.51-.74-2.56.9.21,1.52.38,2.15.5,1.26.25,1.99-.11,2.58-1.25,1.58-3.03,1.34-8.12-.58-11.19-.83.43-1.68.87-2.71,1.4v-4.73h10.83ZM169.69,246.66c1.48-.13,2.86-.35,4.23-.34,1.37.01,2.7.03,3.86-.83-.43-.19-.84-.27-1.23-.21-1.57.22-3.1.47-4.71,0-.87-.26-1.83,0-2.15,1.39ZM175.16,242.29c-.98-.06-1.46.51-1.58,1.25-.05.33.42.74.66,1.11.31-.23.79-.4.88-.69.14-.49.04-1.06.04-1.68ZM171.04,229.88c-.64.19-1.38.13-1.26,1.02.03.19.54.5.77.45.74-.14.98-.63.48-1.47ZM179.09,231.38c-.84-.75-1.26-.66-1.59-.06-.04.07.03.21.08.48.42-.12.83-.23,1.51-.42Z"/>
    <path class="cls-2" d="M189.59,236.7c.2.67.39,1.35.65,2.27-1.01-.18-1.78-.31-2.55-.46-.91-.17-1.75-.09-2.3.76-.53.82-.09,1.53.39,2.22,1.02,1.47,2.02,2.96,3.14,4.59-2.2.5-4.31.98-6.7,1.52.1-.6.15-1.11.27-1.59,1.22-4.93.9-9.75-1.05-14.42-.53-1.26-1.04-2.38-.02-3.59.06-.08,0-.25.03-.36.03-.1.11-.19.24-.42,3.83,1.41,7.41-.53,11.23-1.16.08,1.78.15,3.43.23,5.32-.57-.04-1.22-.07-1.86-.14-1.87-.2-3.69,0-5.43.76-1.18.51-1.26.76-.92,2,.16.6.26,1.21.42,1.81.33,1.23.72,1.54,1.98,1.4.72-.08,1.42-.32,2.25-.51ZM189.57,230.11q1.73.12,1.79-1.73c-1.74-.62-1.07,1.3-1.79,1.73ZM186.1,243.15c-.84.28-1.4.31-1.67.61-.59.64-.11,1.26.52,1.93.31-.69.62-1.38,1.15-2.54Z"/>
    <path class="cls-1" d="M159.82,241.07c.32-.25.59-.61.95-.73.49-.16,1.13-.33,1.55-.15.42.18.85.77.91,1.23.04.32-.47.84-.85,1.05-1.03.58-2.42.19-3.28-.92-1.54-1.99-1.92-4.29-1.43-6.7.19-.96.61-1.9,1.1-2.75.36-.63.93-1.2,1.84-.8.83.37,1.14.98,1.02,2.06-.02.17.02.34.03.48,1.8-.09,3.56-.19,5.48-.28-.14.92-.24,1.55-.39,2.57,1.59-1.06,2.93-1.95,4.36-2.91,1.28,2.55,1.41,5.01.78,7.56-.84,3.38-1.17,3.54-4.47,2.07-.43-1.88.03-3.75.48-5.63-2.68-.48-5.19-.92-7.78-1.38,0,.99.08,1.85-.02,2.69-.09.81-.36,1.59-.55,2.38.09.05.18.1.28.15Z"/>
    <path class="cls-2" d="M202.84,246.48c-2.63.11-5.01.21-7.55.32.12-.27.19-.54.34-.74,2.87-3.74,3.56-8.11,3.64-12.67.01-.7.13-1.4.21-2.24-1.68-.41-2.99.83-4.55,1.45-.07-1.66-.14-3.18-.21-4.82,4,.62,7.96.68,11.97-.45-.29,1.69-.56,3.24-.84,4.83-1.24-.35-2.42-.73-3.61-1-1.03-.23-1.49.06-1.57,1-.24,2.84-.7,5.7.11,8.52.34,1.19.81,2.34,1.23,3.51.25.7.51,1.39.84,2.28ZM197.8,244.72q1.3,1.1,2.65.7c-.1-.63-.21-1.22-.27-1.83-.06-.71,0-1.44-.14-2.12-.05-.28-.47-.49-.73-.74-.11,1.63-.66,2.88-1.52,3.99ZM196.43,229.05c-.21,1.06.11,1.62.92,1.62.94,0,.88-.73.83-1.53-.6-.03-1.11-.06-1.74-.09ZM205.06,230.7c0-.17-.01-.33-.02-.5-.38-.28-.79-.45-1.2.01-.08.09,0,.47.03.47.4.03.8.02,1.2.02Z"/>
    <path class="cls-1" d="M181.36,234.14c1.04,3.44,1.2,7.04.47,10.67-.12.01-.24.03-.37.03-.1-.86-.2-1.72-.32-2.72-1.31.48-2.48.91-3.72,1.37-2.02-3.39-1.12-6.77-.9-10.26,1.6.29,3.06.57,4.84.9Z"/>
    <path class="cls-1" d="M244.86,200.44c1.73,1.75.59,3.54.26,5.37,1.45.26,2.48-.82,3.73-.88,1.22-.06,2.44-.31,3.61.29v4.27c-2.29-.63-4.43-1.33-6.62-1.79-1.78-.37-2.74-1.46-2.98-3.08-.24-1.66.2-3.2,2.01-4.17Z"/>
    <path class="cls-1" d="M236.94,211.68c.06-.86.1-1.39.13-1.82,1.54.1,2.94.2,4.34.29,1.5.09,2.92.45,4.15,1.35,2.13,1.55,2.43,4.73.58,6.53-.25.24-.91.39-1.14.23-.51-.36-1.09-.88-1.23-1.44-.2-.82-.07-1.72-.02-2.59.12-2.07-.26-2.51-2.35-2.54-1.4-.03-2.81,0-4.46,0Z"/>
    <path class="cls-2" d="M208.73,186.47c1.49-6.31,1.57-12.67.76-19.33,1.04-.2,2.15-.47,3.28-.62,3.33-.46,6.5-.14,9.33,1.97,1.27.95,2.33,2.04,3.01,3.47,1.04,2.2.32,4.36-1.81,5.52-1.43.78-2.92,1.32-4.58,1.29-.35,0-.71.09-1.24.17.12.48.14.92.33,1.25,1.74,2.95,3.58,5.81,6.26,8.02.38.31.73.67,1.06,1.04.45.5.44.5.15,1.76-1.6-.1-3.23-.19-5.07-.3-.11-3.79-2.78-5.94-5.48-8.04-.28-.22-.74-.21-1.51-.41,1.37,2.29,1.65,4.44,1.63,6.76-.64-.09-1.18-.17-1.94-.28.45-.38.74-.63,1.15-.98-1.11-1.01-1.46-2.4-1.83-3.78-.15-.58-.08-1.11.07-1.73.2-.88-.27-1.91-.52-3.21-.48.51-.94.84-.89.96.86,2.12-.66,3.97-.49,6.02-.66.17-1.19.31-1.71.45l.04.02ZM214.14,176.76c.73.03,1.23.18,1.64.06,1.29-.38,2.59-.78,3.82-1.32,1.16-.51,1.49-1.55,1.12-2.8-.47-1.57-2.72-3.07-4.34-2.86-.84.11-1.66.32-2.69.52.26.43.44.78.67,1.09,1.25,1.65,1.28,2.58.14,4.29-.13.19-.17.44-.37,1.02ZM224.63,190.03c-.52-.41-.8-.76-1.15-.87-1.2-.37-1.85-1.27-2.49-2.27-.9-1.42-1.86-2.8-2.81-4.19-.38-.56-.82-.88-1.49-.26.22.42.32.93.63,1.15,1.73,1.25,2.52,3.13,3.52,4.91.71,1.25,1.74,2.29,3.79,1.54ZM218.71,177.36c.05.17.11.33.16.49.99-.26,1.97-.57,2.98-.76,1.3-.24,1.84-1.14,2.09-2.28.05-.23-.24-.53-.36-.79-.4,1.99-1.9,2.39-3.38,2.82-.5.15-.99.35-1.49.52Z"/>
    <path class="cls-2" d="M240.64,191.54c-.94-1.62-.78-3.24-.52-4.72.61-3.51-.05-6.93-.28-10.39-.17-2.6-.51-5.28.17-7.98,5.06.78,9.7-.63,14.38-2.33-.41,1.45-.92,2.66-1.06,3.92-.14,1.26.09,2.57.16,3.89-1.77-.33-3.5-.75-5.25-.93-1.39-.14-2.83-.09-4.22.08-1.12.14-1.42.72-1.33,1.85.08.99.2,1.97.32,2.96.14,1.23.52,1.66,1.8,1.59,1.16-.06,2.3-.37,3.45-.57.24-.04.47-.08.96-.17-.14.88-.26,1.64-.4,2.52-1.73-.17-3.4-1.25-5.02-.05,0,1.68-.02,3.34.01,5,.01.56.11,1.12.24,1.66.32,1.31.86,1.71,2.14,1.27,2.91-.99,5.91-1.8,8.51-3.56.2-.14.43-.24.9-.49-.5,2.05-.94,3.88-1.4,5.79-4.5-.35-9.03-.94-13.57.64ZM241.86,189.96c1.15-1.4,1.33-3.86.29-5.81-.08.96-1.42,1.52-.67,2.76.5.82.47,1.71.14,2.61-.03.1.14.28.23.44ZM253.15,188.16c-1.02.15-2.13-.04-3,.87,1.61.75,2.07.64,3-.87ZM252.08,172.15c-.94-.55-1.56-.59-2.22,0q.92.43,2.22,0Z"/>
    <path class="cls-2" d="M191.79,171.5c-.12-2.41-.24-4.74-.36-7.27,1.32.24,2.83.56,4.35.78,1.65.23,3.3.46,4.96.52,1.6.06,3.2-.04,4.8-.2,1.58-.16,3.15-.48,4.73-.73q.31.97-1.95,1.67c.14,1.78.28,3.59.43,5.51-1.14,0-2.04,0-2.95,0-.43,0-.88-.08-1.29,0-2.81.5-3.04.48-2.66,3.26.6,4.49,1.27,8.99,3.64,13,.28.47.27,1.11.41,1.75.46.4,1.03.89,1.92,1.66h-10.19c.21-.66.35-1.16.53-1.63,1.4-3.55,2.21-7.23,2.6-11.02.25-2.4-.23-4.7-.89-6.96-.11-.39-.74-.77-1.2-.88-2.4-.55-4.26-.36-6.87.56ZM200.31,189.49c1.6-.46,2.94-.85,2.97-2.46.01-.79-.37-1.64-.77-2.37-.18-.34-.8-.44-1.44-.76.1,1.05-.59,1.82.07,2.69.15.19-.01.67-.11.99-.18.56-.41,1.1-.72,1.91ZM192.72,169.57q1.56.27,3.01-.46c-.12-.72-.24-1.41-.39-2.31h-2.12c-.17.99-.32,1.81-.49,2.77Z"/>
    <path class="cls-2" d="M238.46,189.75c-3.91-.42-7.64-.66-11.04.71-.41-.84-.78-1.6-1.15-2.36-.12.03-.24.06-.36.08,0-3.17-.03-6.34.02-9.5.01-.77.22-1.57.46-2.31.5-1.51.81-3.05.12-4.55-.55-1.19-.64-2.37-.46-3.79,1.97.07,3.97.31,5.93.16,2.01-.15,3.99-.69,6.26-1.11-.09,1.6-.17,3.09-.26,4.73-1.23-.29-2.17-.56-3.13-.74-3.3-.63-5.24.61-6.03,3.87-.19.77-.28,1.59-.28,2.39,0,1.96.89,3.05,2.85,3.18,1.33.09,2.67-.16,4.15-.26-.07-.07.08.01.08.11.03.42.01.85.01,1.28-.25.07-.42.16-.58.16-.74-.03-1.48-.14-2.21-.14-2.62.03-3.83,1.67-3.11,4.2.12.42.33.8.55,1.32-.47.14-.9.27-1.4.41.05.91.74,1.15,1.37,1.16.91,0,1.88-.03,2.71-.36,1.66-.65,3.24-1.5,4.85-2.27.21-.1.42-.18.64-.27v3.9ZM227.77,186.96c.69-.56.93-1.16.7-2.06-.14-.53.03-1.15.12-1.73.13-.8.31-1.6.48-2.46-.94-.08-1.63-.03-1.55.81.16,1.78-.58,3.58.25,5.43ZM236.52,170.48c.07-.44.14-.88.23-1.44-1,.3-1.03.77-.23,1.44Z"/>
    <path class="cls-1" d="M232.11,187.4c-.47-.82-.8-1.27-1.01-1.78-.71-1.65-.04-2.74,1.75-2.68.97.03,1.93.36,2.89.53.35.06.7.04,1.16.07.16-1.92.33-3.75.45-5.59.01-.18-.25-.39-.48-.72-.44.32-.82.6-1.19.88-1.31.99-2.8,1.2-4.38.98-.84-.12-1.34-.58-1.37-1.47,0-.13-.01-.25-.01-.37.09-1.75.04-3.67,1.85-4.57,1.91-.96,3.85-.26,5.67.56.31.14.61.65.65,1.02.31,2.64.55,5.3.83,7.95.1.92-.24,1.57-1.02,2-1.88,1.04-3.76,2.07-5.8,3.2Z"/>
    <path class="cls-1" d="M208.66,172.56c.01,5.23-.08,10.13-1.55,15.12-2.14-2.85-4.28-10.6-4.03-14.31,1.68-.94,3.59-.01,5.58-.81Z"/>
    <path class="cls-1" d="M224.68,187.04c-2.29-2.28-4.04-4.4-5.3-6.87,1.84-.61,3.5-1.16,5.3-1.76v8.63Z"/>
    <path class="cls-2" d="M208.69,186.45c.72.67,1.44,1.34,2.08,1.94-.68.06-1.58.14-2.67.23.26-.87.45-1.51.64-2.15,0,0-.05-.02-.05-.02Z"/>
    <path class="cls-2" d="M227.76,245.18c.34-.57.57-.99.89-1.53-1.53-.82-1.68-2.19-1.56-3.66.2-2.41.42-4.81.63-7.33.77.22,1.33.39,1.93.56.63-1.4-.76-2.07-.9-3.12,2.99-2.95,7.58-3.02,10.21-.15,1.1,1.2,1.7,2.59,1.52,4.24-.38,3.52-.87,7.03-1.14,10.55-.17,2.21-1.68,3.07-3.34,3.36-3.12.53-5.95-.35-8.25-2.92ZM237.79,237.79c.05-1.58-.6-3.18-1.46-4.71-.44-.78-1.1-1.4-2.07-1.29-.99.11-1.47.89-1.64,1.77-.34,1.64-.66,3.28-.81,4.94-.13,1.51.24,2.97,1.29,4.14.82.91,1.42.98,2.38.19,1.52-1.23,2.37-2.82,2.31-5.05ZM235.85,245.04c1.29-.62,2.64-1.12,3.02-2.78-1.18-.38-1.64.44-2.18,1.06-1.07,1.23-2.32,1.5-3.85.77-.76-.36-1.52-.36-2.4.04.27,1.87,2.22,1.78,3.2,2.73.76.73,2.24-.12,3.48-.48-.49-.52-.87-.91-1.27-1.34ZM229.76,243.24c1.57-1.4,1.58-1.48.73-3.74-.53.07-1.08.15-1.78.24.38,1.26.7,2.29,1.06,3.49ZM228.77,236.24c.83.3,1.36.37,1.65-.53-.73-.37-1.13-.08-1.65.53Z"/>
    <path class="cls-2" d="M250.32,244.8c.57-2.65.6-5.3-.02-7.94-.2-.87-.18-1.85-1.15-2.52-.63,1.07-1.22,2.06-1.98,3.35-.69-.91-1.21-1.61-1.82-2.42-.96,1.2-.85,2.63-1.31,3.97-.42.03-.88.06-1.41.09v1.62c.54-.25,1.04-.48,1.61-.74.28,2.1.53,4.05.79,5.99-1.83.76-3.64,1.5-5.57,2.3,1.48-6.67,2.51-13.32,1.78-20.18,1.67-.27,3.39-.55,5.21-.85.29,1.77.94,3.45,2.3,5.17.46-.88.82-1.5,1.11-2.15.27-.62.45-1.27.64-1.79,1.37.11,2.63.21,3.97.31-2.04,6.17-3.39,12.42-1.58,19.07-1.49.23-2.9.45-4.64.72.54-.94.98-1.7,1.42-2.47.26,1.47,1.08.57,1.9.53-.2-1.09-.39-2.05-.62-3.3-.3.6-.46.92-.62,1.25ZM241.76,246.59c1.44-.26,1.79-.53,1.82-1.57.03-.86-.05-1.73-.21-2.57-.04-.21-.58-.32-1.18-.63,0,.97.21,1.81-.06,2.45-.3.74-.76,1.36-.37,2.32ZM244.08,236.41h-1.89c.27.54.45.88.7,1.37.37-.43.63-.72,1.2-1.37ZM243.24,232.58c.47.69.85.79,1.26.3.07-.08-.03-.32-.05-.49-.36.06-.72.11-1.21.19Z"/>
    <path class="cls-2" d="M278.23,240.63c3.33-2.18,4.28-5.48,4.76-9.11,1.38.15,2.64.29,3.87.42-.2,2.98-.24,5.83-.62,8.65-.39,2.89.24,5.65.6,8.45-1.53.62-3.05,1.23-4.79,1.93.17-.6.32-1.04.41-1.49.51-2.49,1.02-4.98,1.48-7.49.07-.36-.1-1.08-.29-1.12-.39-.1-.98,0-1.3.25-2.53,2.11-4.39,4.68-5.06,8.08-.79-.25-1.54-.48-2.29-.72-.46-1.74-.34-3.31.22-5.07,1.32-4.14,1.83-8.38-.27-12.51-.08-.15-.05-.35-.1-.71,1.46.19,2.85.37,4.31.56-.95,3.17-1.92,6.26-.93,9.88ZM276.47,246.49c1.68-.9,2.24-2.36,2.77-3.91-1.94-.49-2.73.14-2.66,1.89.03.57-.06,1.15-.11,2.02ZM284.17,248.09c1.39-.98,1.41-1.16.32-2.42-.98.7-.28,1.55-.32,2.42ZM283.52,240.13c-.48-.89-1.01-1.05-1.51-.67-.28.21-.35.72-.66,1.42.96-.33,1.49-.52,2.17-.75Z"/>
    <path class="cls-2" d="M274.23,250.09c-1.12-.13-2.09-.24-3.24-.36.12-.67-.22-1.35.81-1.72.32-.11.34-1.08.55-1.88-.44.09-.68.14-1.02.21-.75-2.22-1.41-4.53-3.48-6.1-1.19,2.68-1.67,5.31-1.56,8.12h-2.87c.24-1.92.47-3.8.69-5.68.21-1.72.39-3.45.6-5.18.03-.25.05-.53.18-.71.91-1.32,1.28-2.77,1.32-4.38.02-.96.71-1.73,1.64-2.09.98-.39,1.93-.05,2.48.75.76,1.1,1.59,2.29,1.88,3.56.57,2.53.81,5.14,1.14,7.72.32,2.52.57,5.04.87,7.74ZM266.74,238.35c1.05-.23,1.58-.35,2.11-.45,1.8-.34,2.09-.61,1.93-2.38-.08-.9-.36-1.82-.73-2.65-.3-.67-.86-1.23-1.52-.88-.6,2.12-1.14,4.03-1.79,6.36ZM266.35,241.64c.21-.73.36-1.26.58-1.98-1.05.23-1.53.69-1.77,1.59.4.13.72.24,1.19.39ZM271.57,241.8c-.17.04-.33.07-.5.11.14.69.28,1.38.41,2.07.17-.04.35-.07.52-.11-.15-.69-.29-1.38-.44-2.07ZM265.82,243.35q-1.07,1.04-.52,1.75c.18-.62.35-1.19.52-1.75ZM269.64,239.24q.73.38,1.37.08-.63-.38-1.37-.08Z"/>
    <path class="cls-2" d="M294.78,241.01c-1.31.64-2.45,1.36-3.69,1.78-1.24.42-2.55.3-3.99-.32.17-2.87.35-5.75.52-8.63.95-.25,1.65-.43,2.52-.66-.09,1.09-.27,2.01-.2,2.91.08.96.4,1.9.61,2.85.11.48.21.96.34,1.6,2.94-1.43,3.6-4.06,3.61-7.08,1.51-.52,2.99-1.03,4.64-1.6-.4,1.21-.77,2.31-1.12,3.4-.83,2.57-1.14,5.17-.76,7.9.26,1.83.2,3.73.06,5.58-.17,2.32-1.32,3.39-3.63,3.76-1.27.2-2.53.43-3.94.68.21-1.3.42-2.62.66-4.09.71.22,1.36.48,2.05.63,1.26.27,1.89-.02,2.29-1.26.29-.87.42-1.82.47-2.74.08-1.53.08-3.07-.45-4.7ZM291.68,251.67c1.51.69,2.06-.68,3.02-.88.53-.11,1.12-.62,1.39-1.11.3-.55.29-1.28.37-1.94.07-.66.56-1.43-.46-1.96-.08.56-.17,1.03-.21,1.51-.13,1.83-.75,3.17-2.87,3.3-.39.03-.73.62-1.23,1.07ZM288.46,238.12c-.16.34-.29.59-.41.85-.13.26-.26.53-.36.73q1.22,2.34,2.57,1.41c-2.53.1-.56-2.22-1.8-2.99ZM295.96,237.37c.66-.46.7-.97.22-1.41-.15-.14-.58.03-1.09.07.37.58.62.95.87,1.34Z"/>
    <path class="cls-2" d="M218,238.93c-.19-.45-.38-.89-.57-1.34-.14.03-.28.06-.41.1.11.97.21,1.93.32,2.9.05.46.24.99.1,1.39-.44,1.32.05,2.24.95,3.13.37.37.55.94.91,1.6.51-.14,1.07-.29,1.7-.47-.17-1.29-.55-2.29-1.69-2.85-.68-.34-1.13-.81-.95-1.86,2,1.92,4.09,2.81,6.41.51.79.63,1.55,1.24,2.42,1.94-2.06,2.66-4.7,3.8-7.93,3.53-1.82-.16-2.61-.8-2.86-2.61-.28-2.15-.41-4.33-.35-6.49.07-2.54.32-5.09.67-7.61.25-1.82,1.2-3.2,3.04-3.89,1.45-.54,2.84-.39,4.11.3,1.69.91,3.1,2.19,4.16,3.97-1.21.23-2.31.44-3.58.69-.2-.33-.44-.81-.74-1.24-1.12-1.64-2.62-1.68-3.7.01-.55.86-.85,1.92-1.11,2.92-.23.9-.26,1.84-.36,2.77-.09.85-.15,1.71-.23,2.57-.1.02-.19.03-.28.05ZM224.01,245.06c.08.12.16.25.24.37.32-.22.64-.44.97-.66-.08-.13-.16-.25-.24-.37-.32.22-.64.44-.96.66Z"/>
    <path class="cls-2" d="M264.8,234.38c-.03,1.69-1.21,2.71-2.5,3.13-2.41.77-2.96,2.36-2.85,4.62.1,2.09.02,4.18.02,6.35-1.5-.49-2.84-1.96-4.89-1.04.08-1.11.53-1.83.83-2.6,1.43-3.54,1.86-7.21,1.31-10.98-.18-1.26-.69-2.48-1.09-3.85,2.89-.82,5.69-1.09,8.27.84,1.29.96,1.49,1.93.84,3.57-.02-.2-.05-.41-.08-.66-1.86,1.02-1.87,1.03-2.48,2.9.58-.38,1.07-.86,1.57-1.33.34-.32.69-.64,1.03-.96ZM259.63,236.71c1.59-.3,2.43-1.31,2.85-2.64.39-1.24-.56-1.98-1.41-2.57-1.07-.74-2.26-1.24-3.76-.16.59.86,1.26,1.59,1.64,2.46.38.87.45,1.88.68,2.92ZM259.22,241.83c-.49-.2-.93-.54-1.33-.49-.76.09-.29.78-.36,1.2-.11.7-.13,1.42-.86,1.84-.16.09-.17.41-.27.66,1.05.03,2.11-1.15,2.82-3.21Z"/>
    <path class="cls-1" d="M226.83,231.96c-.31,3.45-.57,6.43-.85,9.59-.62-.35-1.12-.62-1.66-.93-.19.24-.36.42-.49.63-.7,1.14-1.2,1.39-2.38,1.17-1.18-.22-2.02-.9-2.1-2.03-.18-2.8-.05-5.58.84-8.28.02-.06.05-.11.08-.17.37-.71.7-1.52,1.66-1.55.64-.02,1.39,1.12,1.47,2.15.03.42-.03.85-.07,1.55,1.16-.71,2.14-1.3,3.51-2.13Z"/>
    <path class="cls-1" d="M254.79,231.34c2.04,2.98,1.48,10.25-1.14,14.86-1.33-2.96-.69-11.35,1.14-14.86Z"/>
    <path class="cls-2" d="M250.32,244.8c.16-.33.32-.65.62-1.25.23,1.25.42,2.21.62,3.3-.82.04-1.64.95-1.9-.53.22-.51.44-1.01.66-1.52Z"/>
    <path class="cls-1" d="M238.4,145.6c.17-.28.33-.56.51-.82.01-.02.29.12.28.13-.12.31-.25.61-.39.91-.14-.07-.27-.14-.41-.22Z"/>
    <path class="cls-2" d="M234.45,215.2c-.49.19-.87.34-1.42.55.51.2.83.32,1.33.51-.42.32-.74.56-.87.66.27.6.53,1.19.79,1.78-2.22,1.16-2.58,1.06-4.66-1.32.39-.26.78-.51,1.52-.99-.47-.15-.89-.28-1.31-.41,1-1.15,2.24-1.51,2.48-2.85.08-.41.81-.65,1.32-.09.28.32.62.58.97.89-.04.34-.09.75-.15,1.27Z"/>
    <path class="cls-2" d="M227.29,219.06c-.71.44-1.05.65-1.37.85.08.36.34.86.21,1.02-.9,1.02-2.09.73-3.22.69-.07-.45-.13-.8-.18-1.15-.06-.34-.1-.68-.18-1.23-.2-.1-.77-.21-1.06-.57-.27-.33-.22-.92-.34-1.58.1-.06.39-.24.72-.43-.15-.24-.31-.52-.49-.81,1.99-.78,2.41-.69,3.84.9-.87.27-1.67.52-2.47.77.02.1.04.21.06.31h2.48c-.32.36-.45.5-.66.73.79.15,1.53.28,2.65.49Z"/>
    <path class="cls-2" d="M218.69,198.9c.91-.46,1.79-.68,2.82.05-.47.78-.31,2-1.78,1.99-.32-.63-.66-1.3-1.04-2.04Z"/>
    <path class="cls-2" d="M223.15,215.09c-.73-.11-1.36-.21-2-.31-.02-.17-.04-.33-.06-.5.6-.26,1.21-.53,1.98-.87.03.58.05,1.01.08,1.68Z"/>
    <path class="cls-2" d="M234.25,222.48c.35-.65.58-1.09.8-1.51.95.17.91.76.84,1.51h-1.64Z"/>
    <path class="cls-2" d="M233.89,211.02c-.74.36-1.25.61-1.82.89q.23-.95,1.82-.89Z"/>
    <path class="cls-2" d="M222.96,210.36c-.52.06-1.04.12-1.88.22.72-.85,1.24-.95,1.88-.22Z"/>
    <path class="cls-2" d="M221.98,205.48c-.16.14-.3.33-.49.41-.19.07-.42.03-.7.05,0-1.02.57-.76.99-.8.07.11.14.23.2.35Z"/>
    <path class="cls-2" d="M220.83,207.98h1.28c-.37.79-.81.64-1.26.41,0-.14-.01-.28-.02-.41Z"/>
    <path class="cls-2" d="M222.75,211.95c-.73.36-1.08.53-1.64.81.19-1,.7-.88,1.64-.81Z"/>
    <path class="cls-2" d="M187.23,219.81c1.08-2.71,2.53-5.1,2.04-8.07,1.58.36,1.39,1.57,1.44,2.46.17,2.91-.7,4.33-3.48,5.61Z"/>
    <path class="cls-2" d="M200.47,217.55c.36-.13.71-.32.77-.25.84.96,1.79,1.88,1.57,3.51-.64.35-1.36.75-2.07,1.15-.1-.08-.19-.16-.29-.24.26-.69.52-1.37.85-2.23-.19-.43-.46-1.08-.83-1.92Z"/>
    <path class="cls-2" d="M193.44,210.87c1.12-.31,2.18-.25,3.39.21-.61,1.17-1.63.76-2.42.88-.65.1-.97-.33-.97-1.08Z"/>
    <path class="cls-2" d="M201.8,215.21c-.63.35-1.1.6-1.77.97-.04-.67-.07-1.16-.1-1.68.83-.41,1.35-.21,1.87.7Z"/>
    <path class="cls-2" d="M199.33,209.94c.42-.25.84-.49,1.31-.76q.24,1.29-1.31.76Z"/>
    <path class="cls-2" d="M190.08,207.87c-.26.1-.51.2-.77.28-.01,0-.08-.18-.12-.28.26-.11.53-.22.79-.33.03.11.07.22.1.33Z"/>
    <path class="cls-2" d="M239.01,217.67c1.54-.35,2.29.48,2.97,1.31.59.73,1.06,1.49,2.12,1.75.47.11.78.91,1.15,1.39-1.34.9-2.59.69-3.47-.46-.65-.84-1.43-1.58-2.07-2.42-.31-.4-.42-.94-.69-1.57Z"/>
    <path class="cls-2" d="M251.19,198.91c.21.97.44,1.77.52,2.58.02.24-.36.72-.61.75-1.06.14-2.14.16-3.69.25.8-.94,1.25-1.56,1.8-2.08.5-.48,1.11-.86,1.98-1.51Z"/>
    <path class="cls-2" d="M248.58,219.69c.26-.88.43-1.83.84-2.66.19-.39.83-.72,1.29-.76.55-.05.7.53.79,1.05.28,1.74-.77,2.59-2.91,2.37Z"/>
    <path class="cls-2" d="M238.25,204.63c.52-.12.98-.23,1.68-.4.15.71.28,1.34.45,2.1.15.02.55.07,1.07.15-.15.23-.21.44-.33.48-.97.28-1.91.27-2.86-.25v-2.07Z"/>
    <path class="cls-2" d="M249.64,222.07h-3.05c-.02-.08-.04-.16-.07-.24.63-.31,1.23-.7,1.89-.9.84-.25,1.12.09,1.18,1.19l.05-.05Z"/>
    <path class="cls-2" d="M250.02,213.63c.2-.29.3-.49.45-.63.2-.19.43-.33.75-.57q-.12.86-1.2,1.2Z"/>
    <path class="cls-2" d="M249.03,198.26v-1.56c.75.56.74.94,0,1.56Z"/>
    <path class="cls-2" d="M240.73,215.88c-.42.15-.84.31-1.26.47-.05-.12-.1-.25-.15-.38.41-.19.82-.39,1.22-.58.06.16.13.33.19.49Z"/>
    <path class="cls-2" d="M239.23,201.54c-.41.04-.82.07-1.24.11-.04-.11-.07-.21-.11-.32.21-.12.42-.31.65-.35.2-.04.43.1.65.16.01.13.03.26.04.39Z"/>
    <path class="cls-2" d="M254.61,222.36c.6-1.38,1.15-2.63,1.72-3.94.89,1.18.98,2.64.23,3.62-.39.52-.92.78-1.96.32Z"/>
    <path class="cls-2" d="M263.78,196.89c.38.8.71,1.48,1.02,2.14-1.15.89-2.25.8-3.42.43q.55-1.29,2.4-2.57Z"/>
    <path class="cls-2" d="M255.36,217.26c.59-.51.28-1.71,1.75-1.77-.5.78-.91,1.42-1.32,2.05-.14-.1-.29-.19-.43-.28Z"/>
    <path class="cls-2" d="M261.93,211.26c-.49.5-.93,1.1-1.95.82.58-.81,1.39-.55,2-.79l-.05-.03Z"/>
    <path class="cls-2" d="M255.4,212.4c.36-.21.72-.42,1.08-.64.09.13.19.27.28.41-.32.26-.64.52-.97.78-.13-.18-.27-.36-.4-.55Z"/>
    <path class="cls-2" d="M261.98,211.3c-.09-.32-.18-.63-.28-.95h1.08c.02.13.04.25.06.37-.3.18-.6.36-.9.54,0,0,.05.04.05.04Z"/>
    <path class="cls-2" d="M265.47,221.83c-.38.05-.75.1-1.13.15-.02-.13-.05-.26-.07-.39.38-.09.75-.18,1.13-.27.02.17.05.34.07.51Z"/>
    <path class="cls-2" d="M256.75,211.29c-.28.19-.48.38-.53.34-.22-.13-.39-.34-.59-.52.16-.08.32-.24.46-.21.2.04.36.21.66.39Z"/>
    <path class="cls-2" d="M207.78,210.15c.02-3.36.32-6.13,1.3-8.79.77-2.09,2.59-2.66,4.41-1.39,1.04.73,1.73,1.72,2.11,2.97,1.09,3.56.77,7.13.11,10.7-.17.91-.38,1.86-.84,2.64-.45.77-1.12,1.52-1.87,1.97-1.73,1.03-3,.48-3.79-1.41-.96-2.31-1.78-4.65-1.44-6.69ZM208.95,208.94c.01,2.49.42,4.84,1.43,7.1.67,1.51,1.69,1.82,2.71.54.63-.78,1.14-1.83,1.25-2.82.31-2.51.49-5.06.48-7.59,0-1.52-.35-3.09-1.38-4.35-.52-.63-1.15-1.23-2.04-1.03-.87.19-1.29.9-1.43,1.75-.35,2.13-.69,4.27-1.02,6.41Z"/>
    <path class="cls-2" d="M206.28,215.82c1.6,1.11,2.58,2.89,4.34,3.8,1.54.79,2.41.67,3.72-.63.16-.16.39-.26.63-.42-.04,1.5-.74,2.28-2.15,2.45-.48.06-.98-.02-1.46.05-2.09.32-2.98-.13-4.11-2.11-1.08-.24-.64-1.53-1.42-2.07-.56-.4,0-.83.44-1.08Z"/>
    <path class="cls-2" d="M206.44,205.97c-.33.29-.67.59-1.2,1.05,0-1.02.46-1.22,1.2-1.05Z"/>
    <path class="cls-2" d="M204.88,208.2c.23-.25.45-.51.68-.76.09.07.18.14.27.2-.2.28-.39.57-.59.86-.12-.1-.24-.2-.36-.3Z"/>
    <path class="cls-2" d="M159.84,245.86c-1.77.84-2.66-.42-3.64-1.23-.36-.29-.66-1.01.01-1.42.45-.28.87-.18,1.2.39.25.43.75.71,1.17,1.03.23.17.56.23.76.42.21.2.32.49.5.81Z"/>
    <path class="cls-2" d="M156.29,240.51h-2.57c.54-.91,1.13-1.36,2.06-1.55.16.48.3.91.5,1.55Z"/>
    <path class="cls-2" d="M164.94,229.18c.1,1.35.09,1.36-1.81.85.43-.78,1.18-.66,1.81-.85Z"/>
    <path class="cls-2" d="M166.09,231.32h-2.62q.74-.68,2.62,0Z"/>
    <path class="cls-2" d="M166.44,244.55c-.32.25-.64.49-1.05.8-.19-.43-.33-.74-.61-1.36.76.27,1.23.43,1.71.6,0,0-.04-.03-.04-.03Z"/>
    <path class="cls-2" d="M156.72,241.87c-.42.15-.84.31-1.48.54.26-1.03.72-1.14,1.3-1.02.06.16.12.32.18.48Z"/>
    <path class="cls-2" d="M155.54,232.89c-.29.17-.59.34-.89.5-.06-.11-.12-.22-.18-.34.31-.15.62-.29.93-.44.05.09.1.18.14.27Z"/>
    <path class="cls-2" d="M169.69,246.66c.33-1.38,1.28-1.64,2.15-1.39,1.6.47,3.14.23,4.71,0,.39-.06.81.03,1.23.21-1.17.86-2.49.84-3.86.83-1.37-.01-2.75.21-4.23.34Z"/>
    <path class="cls-2" d="M175.16,242.29c0,.62.1,1.19-.04,1.68-.09.29-.57.46-.88.69-.24-.37-.71-.78-.66-1.11.12-.74.6-1.31,1.58-1.25Z"/>
    <path class="cls-2" d="M171.04,229.88c.49.84.26,1.33-.48,1.47-.24.04-.75-.26-.77-.45-.13-.89.62-.83,1.26-1.02Z"/>
    <path class="cls-2" d="M179.09,231.38c-.68.18-1.08.3-1.51.42-.05-.26-.13-.4-.08-.48.33-.6.75-.69,1.59.06Z"/>
    <path class="cls-2" d="M189.57,230.11c.73-.43.06-2.35,1.79-1.73q-.06,1.86-1.79,1.73Z"/>
    <path class="cls-2" d="M186.1,243.15c-.53,1.16-.84,1.85-1.15,2.54-.63-.67-1.11-1.29-.52-1.93.27-.3.83-.32,1.67-.61Z"/>
    <path class="cls-2" d="M197.8,244.72c.87-1.11,1.41-2.36,1.52-3.99.25.25.67.46.73.74.13.69.07,1.42.14,2.12.06.6.17,1.2.27,1.83q-1.36.39-2.65-.7Z"/>
    <path class="cls-2" d="M196.43,229.05c.63.03,1.14.06,1.74.09.05.79.11,1.52-.83,1.53-.81,0-1.12-.56-.92-1.62Z"/>
    <path class="cls-2" d="M205.06,230.7c-.4,0-.8.01-1.2-.02-.03,0-.1-.38-.03-.47.41-.46.82-.29,1.2-.01,0,.17.01.33.02.5Z"/>
    <path class="cls-2" d="M214.14,176.76c.21-.58.25-.83.37-1.02,1.14-1.71,1.11-2.64-.14-4.29-.23-.31-.41-.66-.67-1.09,1.03-.2,1.85-.4,2.69-.52,1.62-.21,3.87,1.29,4.34,2.86.37,1.25.04,2.28-1.12,2.8-1.23.54-2.53.94-3.82,1.32-.42.12-.92-.02-1.64-.06ZM216.02,171.38c.27,1.24.54,2.49.84,3.86.69-.29,1.47-.51,2.11-.94.31-.2.57-.84.49-1.2-.28-1.33-2.04-2.15-3.44-1.72Z"/>
    <path class="cls-2" d="M224.63,190.03c-2.05.75-3.08-.29-3.79-1.54-1-1.78-1.79-3.66-3.52-4.91-.3-.22-.41-.73-.63-1.15.67-.61,1.11-.3,1.49.26.94,1.39,1.91,2.77,2.81,4.19.63.99,1.29,1.9,2.49,2.27.35.11.63.47,1.15.87Z"/>
    <path class="cls-2" d="M218.71,177.36c.49-.17.98-.37,1.49-.52,1.48-.43,2.98-.83,3.38-2.82.13.26.41.56.36.79-.25,1.14-.8,2.04-2.09,2.28-1,.19-1.98.5-2.98.76-.05-.16-.1-.33-.16-.49Z"/>
    <path class="cls-2" d="M241.86,189.96c-.09-.16-.26-.34-.23-.44.33-.89.36-1.79-.14-2.61-.75-1.24.58-1.8.67-2.76,1.03,1.94.86,4.41-.29,5.81Z"/>
    <path class="cls-2" d="M253.15,188.16c-.92,1.51-1.38,1.62-3,.87.87-.91,1.97-.72,3-.87Z"/>
    <path class="cls-2" d="M252.08,172.15q-1.3.43-2.22,0c.66-.59,1.28-.55,2.22,0Z"/>
    <path class="cls-2" d="M200.31,189.49c.31-.81.55-1.35.72-1.91.1-.32.26-.8.11-.99-.66-.87.03-1.64-.07-2.69.64.32,1.26.42,1.44.76.39.72.78,1.58.77,2.37-.03,1.61-1.37,2-2.97,2.46Z"/>
    <path class="cls-2" d="M192.72,169.57c.17-.96.32-1.78.49-2.77h2.12c.15.9.27,1.59.39,2.31q-1.45.73-3.01.46Z"/>
    <path class="cls-2" d="M227.77,186.96c-.83-1.85-.09-3.65-.25-5.43-.08-.84.61-.9,1.55-.81-.17.86-.36,1.65-.48,2.46-.09.57-.25,1.2-.12,1.73.23.9-.01,1.5-.7,2.06Z"/>
    <path class="cls-2" d="M236.52,170.48c-.8-.66-.77-1.13.23-1.44-.09.55-.16,1-.23,1.44Z"/>
    <path class="cls-2" d="M237.79,237.79c.06,2.23-.79,3.81-2.31,5.05-.96.78-1.57.72-2.38-.19-1.05-1.18-1.43-2.63-1.29-4.14.15-1.66.48-3.31.81-4.94.18-.88.65-1.66,1.64-1.77.97-.1,1.62.51,2.07,1.29.86,1.52,1.51,3.12,1.46,4.71ZM234.29,242.46c1.64-.88,2.46-2.25,2.58-4.03.12-1.79-.45-3.43-1.38-4.92-.22-.36-.87-.8-1.15-.7-.41.14-.86.68-.96,1.14-.33,1.44-.63,2.91-.73,4.39-.1,1.57.2,3.08,1.63,4.13Z"/>
    <path class="cls-2" d="M235.85,245.04c.41.43.78.83,1.27,1.34-1.24.36-2.72,1.22-3.48.48-.99-.95-2.93-.87-3.2-2.73.88-.4,1.64-.41,2.4-.04,1.53.73,2.78.47,3.85-.77.53-.62,1-1.45,2.18-1.06-.38,1.66-1.73,2.16-3.02,2.78Z"/>
    <path class="cls-2" d="M229.76,243.24c-.36-1.2-.68-2.23-1.06-3.49.7-.09,1.25-.17,1.78-.24.85,2.25.84,2.33-.73,3.74Z"/>
    <path class="cls-2" d="M228.77,236.24c.52-.61.92-.91,1.65-.53-.3.91-.82.83-1.65.53Z"/>
    <path class="cls-2" d="M241.76,246.59c-.39-.96.07-1.58.37-2.32.26-.64.06-1.48.06-2.45.6.31,1.14.42,1.18.63.16.84.24,1.71.21,2.57-.03,1.05-.38,1.31-1.82,1.57Z"/>
    <path class="cls-2" d="M244.08,236.41c-.57.65-.82.94-1.2,1.37-.25-.49-.42-.83-.7-1.37h1.89Z"/>
    <path class="cls-2" d="M243.24,232.58c.49-.07.85-.13,1.21-.19.02.17.13.41.05.49-.41.49-.79.39-1.26-.3Z"/>
    <path class="cls-2" d="M276.47,246.49c.05-.87.13-1.45.11-2.02-.08-1.75.72-2.38,2.66-1.89-.52,1.55-1.08,3.01-2.77,3.91Z"/>
    <path class="cls-2" d="M284.17,248.09c.04-.87-.66-1.72.32-2.42,1.09,1.27,1.07,1.44-.32,2.42Z"/>
    <path class="cls-2" d="M283.52,240.13c-.68.24-1.22.42-2.17.75.31-.7.38-1.21.66-1.42.5-.38,1.03-.21,1.51.67Z"/>
    <path class="cls-2" d="M266.74,238.35c.66-2.33,1.19-4.24,1.79-6.36.66-.35,1.22.21,1.52.88.37.83.65,1.75.73,2.65.16,1.77-.13,2.04-1.93,2.38-.53.1-1.06.23-2.11.45ZM269.11,233.35c-.43,1.39-1.06,2.36-.88,3.58,1.97-.13,2.18-.83.88-3.58Z"/>
    <path class="cls-2" d="M266.35,241.64c-.47-.15-.79-.26-1.19-.39.24-.9.72-1.36,1.77-1.59-.21.72-.37,1.25-.58,1.98Z"/>
    <path class="cls-2" d="M271.57,241.8c.14.69.29,1.38.44,2.07-.17.04-.35.07-.52.11-.14-.69-.28-1.39-.41-2.07.17-.04.33-.07.5-.11Z"/>
    <path class="cls-2" d="M265.82,243.35c-.17.57-.33,1.13-.52,1.75q-.55-.71.52-1.75Z"/>
    <path class="cls-2" d="M269.64,239.24q.74-.3,1.37.08-.64.29-1.37-.08Z"/>
    <path class="cls-2" d="M291.68,251.67c.5-.45.85-1.04,1.23-1.07,2.11-.14,2.73-1.48,2.87-3.3.04-.48.13-.96.21-1.51,1.02.53.54,1.3.46,1.96-.07.66-.07,1.39-.37,1.94-.27.49-.86,1-1.39,1.11-.96.2-1.51,1.58-3.02.88Z"/>
    <path class="cls-2" d="M288.46,238.12c1.25.77-.73,3.09,1.8,2.99q-1.35.93-2.57-1.41c.1-.21.23-.47.36-.73.13-.25.25-.51.41-.85Z"/>
    <path class="cls-2" d="M295.96,237.37c-.25-.38-.5-.76-.87-1.34.51-.04.93-.21,1.09-.07.49.44.44.94-.22,1.41Z"/>
    <path class="cls-2" d="M224.01,245.06c.32-.22.64-.44.96-.66.08.13.16.25.24.37-.32.22-.64.44-.97.66-.08-.12-.16-.25-.24-.37Z"/>
    <path class="cls-2" d="M259.63,236.71c-.23-1.04-.3-2.05-.68-2.92-.38-.87-1.05-1.6-1.64-2.46,1.5-1.07,2.69-.58,3.76.16.85.59,1.8,1.33,1.41,2.57-.42,1.33-1.27,2.34-2.85,2.64ZM260.41,235.28c.87-.62,1.4-1.21,1.04-2.01-.38-.81-1.03-1.43-2.13-1.43.38,1.2.71,2.24,1.09,3.44Z"/>
    <path class="cls-2" d="M259.22,241.83c-.7,2.06-1.77,3.24-2.82,3.21.1-.24.11-.57.27-.66.73-.42.75-1.14.86-1.84.07-.42-.4-1.11.36-1.2.4-.05.84.3,1.33.49Z"/>
    <path class="cls-2" d="M264.8,234.38c-.34.32-.69.64-1.03.96-.5.47-1,.94-1.57,1.33.6-1.87.62-1.88,2.48-2.9.03.26.05.46.08.66,0,0,.05-.06.05-.06Z"/>
    <path class="cls-1" d="M208.95,208.94c.34-2.14.67-4.27,1.02-6.41.14-.85.56-1.57,1.43-1.75.89-.2,1.52.4,2.04,1.03,1.02,1.26,1.37,2.83,1.38,4.35.01,2.53-.17,5.08-.48,7.59-.12.99-.62,2.04-1.25,2.82-1.02,1.28-2.04.97-2.71-.54-1.01-2.26-1.42-4.6-1.43-7.1Z"/>
    <path class="cls-1" d="M216.02,171.38c1.4-.43,3.16.39,3.44,1.72.08.36-.18,1-.49,1.2-.65.42-1.43.65-2.11.94-.3-1.37-.57-2.61-.84-3.86Z"/>
    <path class="cls-1" d="M234.29,242.46c-1.43-1.05-1.74-2.56-1.63-4.13.1-1.48.39-2.95.73-4.39.1-.45.55-1,.96-1.14.28-.1.92.34,1.15.7.93,1.49,1.5,3.13,1.38,4.92-.13,1.79-.94,3.16-2.58,4.03Z"/>
    <path class="cls-1" d="M269.11,233.35c1.3,2.74,1.09,3.44-.88,3.58-.18-1.21.45-2.18.88-3.58Z"/>
    <path class="cls-1" d="M260.41,235.28c-.38-1.2-.71-2.24-1.09-3.44,1.1,0,1.75.62,2.13,1.43.37.8-.17,1.39-1.04,2.01Z"/>
  </g>
</svg>