<?xml version="1.0" encoding="UTF-8"?>
<svg id="Layer_1" xmlns="http://www.w3.org/2000/svg" viewBox="0 0 400 400">
  <defs>
    <style>
      .cls-1, .cls-2, .cls-3, .cls-4, .cls-5 {
        fill-rule: evenodd;
      }

      .cls-1, .cls-6 {
        fill: #fff;
      }

      .cls-2 {
        fill: #816f65;
      }

      .cls-3 {
        fill: #ed1c24;
      }

      .cls-7, .cls-5 {
        fill: #2b3990;
      }

      .cls-6 {
        font-family: AmericanTypewriter-CondensedBold, 'American Typewriter';
        font-size: 52.96px;
        font-weight: 700;
        letter-spacing: -.1em;
      }
    </style>
  </defs>
  <g>
    <path class="cls-1" d="M287.97,144.02c.12,0,.24-.01.35-.02,0,.12.02.23.02.34-.11,0-.23.01-.34.02,0-.12-.01-.23-.02-.34Z"/>
    <path class="cls-1" d="M288.1,146.43c-.62.14.51.84-.31.71-.3-1.68.48-.38.24-1.9,1.08-.2.77,1.61.64,2.2-.15-.37-.59-.43-.57-1Z"/>
    <path class="cls-1" d="M256.8,150.69c.34-.07.54,0,.54.32-.17.01-.35.02-.52.03,0-.12,0-.23-.02-.34Z"/>
    <path class="cls-1" d="M257.49,150.66c.17-.01.35-.02.52-.03-.28.3-.14.98-.63,1.07-.16-.52.27-.52.12-1.04Z"/>
    <path class="cls-4" d="M195.35,161.22c-.07.22-.21.38-.49.38"/>
    <path class="cls-1" d="M189.86,161.86c.12,0,.24-.02.35-.02,0,.11.01.23.01.34-.11,0-.23.01-.34.02-.01-.12-.01-.23-.03-.34Z"/>
    <path class="cls-1" d="M238.09,161.52c.48-.29.54.73.02.51-.01-.17-.01-.34-.02-.51Z"/>
    <path class="cls-1" d="M193.11,164.45c.11-.01.23-.02.35-.02,0,.11.01.23.02.34-.12.01-.24.02-.34.02,0-.11-.01-.22-.02-.33Z"/>
    <path class="cls-1" d="M302.9,158.9c.09-.61-.19,1.3,0,0h0Z"/>
    <path class="cls-1" d="M257.79,165.97c0-.12-.01-.23-.02-.35.11,0,.24-.01.35-.02,0,.12,0,.24.01.35-.11,0-.23.01-.34.02Z"/>
    <path class="cls-1" d="M205.42,169.12c.12,0,.23-.01.34-.02,0,.12.02.24.02.35-.11,0-.23.01-.34.02,0-.12-.01-.23-.02-.35Z"/>
    <path class="cls-4" d="M257.3,166.34c.12,0,.23-.01.34-.01.01.11.02.23.02.34-.11,0-.23.02-.34.02-.01-.11-.02-.23-.02-.35Z"/>
    <path class="cls-4" d="M235.34,168.04c.48-.28.54.74.03.52,0-.18-.02-.35-.03-.52Z"/>
    <path class="cls-1" d="M338.7,163c.36-.07.58,0,.57.3-.18.01-.36.02-.55.03,0-.11-.01-.22-.02-.34Z"/>
    <path class="cls-1" d="M339.62,163.11c.1-.59-.21,1.25,0,0h0Z"/>
    <path class="cls-1" d="M329.2,164.17c.18,0,.37-.02.55-.03.13.36-.34.25-.33.51-.22-.01-.18-.29-.22-.49Z"/>
    <path class="cls-1" d="M365.48,165.7c.13,0,.25-.01.37-.02,0,.11,0,.22.02.33-.12,0-.24.01-.36.02,0-.1-.02-.21-.03-.32Z"/>
    <path class="cls-5" d="M300.11,132.51c-.04.37.61.09.86.19,0-.82,1.22-.39,2.43-.62.79-.15,1.45-.78,1.75-.82.33-.04,2.02.55,2.75.08-.01.17-.01.34-.02.51,1.39-.31,2.56.6,4.29.46.13.16.17.4.15.7.29.07.33-.13.35-.33.31.54,2.63-.21,2.59.67-.23,0,.65.82.43.81.04.24,3.43.06.75.35-.02.74-.38-.58-.4.16-.57.17-.43,2.8-.93,3.04.93.59-.81-1.08-.26-2.75-.16-.46-5.91,1.16-5.68.32-.7.15-2.24.92-2.95.65-.35.05-.18.64-.54.68-.44-.89-2.22.16-2.22-.41-.21.02-.16.31-.2.51-2.99.18-5.71,2.08-8.51,3.03-.29,1.13-1.95,1.5-1.62,2.71-.35-.08-.46.11-.69.16-.07.41.78-.08.5.53-.48-.15-.45.23-.87.15.09.63-.61,1.34.31,1.38,0-.17-.21-.14-.34-.18,1.07-.77-.5,1.8.99,1.4-.48.86.28.94-.05,1.72.39.24.82.45.66,1.22.4.01.8.02,1.2.04,0,.23-.01.45-.02.69.32-.56.91.45.52.01-.95,1.04,1.78,1.41,1.48,2.96,1.06-.12,1.42,1.33,2.21.92.12.38.55.48.48,1.05-.38.08-.24-.34-.5-.36,1.18,1.61,2.75,2.87,3.48,4.91.42-.53.1-.07.69.01.2-.71-.99-.55-.31-1.21.94.55.73,2.2,1.64,2.8.03.7-.13,1.58.47,1.73-.61,3.07,1.3,6.93-1.27,8.57.11.53-.31.5-.2,1.03.02.31.58.12.68.36-.1.82.13,2.62-1.27,2.55-.59,2.09-1.85,3.46-2.72,5.26-1.04-.22-.9.82-1.74.81,0-.24.01-.46.02-.69-.65.62-1.02,1.52-2.11,1.66-.01.29-.02.57-.03.86-.37.02-.54-.16-.5-.53-1.13,1.27-2.77,2.94-5.09,3.48-1.58,1.59-4.65,1.58-5.95,3.45-1.02-.18-1.25,1.04-2.77.79,0,.17-.01.34-.01.51-.21-.03-.14-.32-.16-.52-.2.03-.16.31-.18.51-.58.16-1.92-.48-1.74.47-.24-.55-.68-.29-.69.32-.95-.13-2.55,0-3.96-.1-.17.12-.27.31-.36.51-2.35.45-4.12.56-6.23,1.38-2.58-.24-5.76,1-6.85-1.04.8.06.24-.2.53-.67-.18.1-.19.39-.53.33-.27-.72.08-.96-.13-1.72,1.49-.52-.14-1.92.26-3.09.1-.29.83-.28.71-.84.65-.21,1.08.27,1.58-.82,2.31.05,3.32-1.08,5.69-.54-.11-.18-.39-.19-.33-.52.55-.14.65.16.85.36.72-.97,2.66-.48,3.62-.41.55-.85,7.05-.57,9.13-.44.36-.09.6-.32.71-.67.34,0,.69.02,1.03.03,1.4-.7,3.31-.87,4.19-2.12,1.6-.03,2.25-1.04,3.98-.93,1.38-1.96,4.34-2.26,4.29-5.74.87.21.19-1.22,1.06-1-.32-2.9,1.47-4.53.36-6.87.17-.48-.31-1.62.39-1.55-.83-1.84-.52-4.76-2.25-5.73-1.31-5.47-8.71-5.17-10.75-9.93.21-1.4,1.42-5.27.19-7.05.44-.58,1.38-1.36.75-2.05.24,0,.46.02.69.02.97-1.33,1.78-2.83,3.87-2.99.21-.19.76-1.63.37-.86-.44-.89.79-.3,1.22-.48.71-.3.37-.84,1.4-.82,0-.29.02-.57.03-.86,1.8.33,2.39-.95,4.15-1.09.31-.04.4-.29.37-.68.68.14,1.57-.4.85.2ZM303.16,159.95c-.3,1.28.14-.61,0,0h0ZM299.36,179.29c.19-.01.14-.22-.16-.18-.33.58-.12.81.16.18Z"/>
    <path class="cls-4" d="M311.61,135c.31-.07.05.66-.32.53-.11-.38.32-.26.32-.53Z"/>
    <path class="cls-5" d="M225.2,146.01c.23-.01.46-.02.69-.04,0,.17.02.34.03.51.72-.61.45-.08,1.38.1.28,1.7.61,2.32,1.72,3.18.32.54-.87.79.04.87-.14.3-.51.4-1.01.39-.01.38.17.54.54.49-.43.53-1.64-.49-1.53.6-.2-.02-.16-.31-.19-.51-.12.39-.55.49-.46,1.06-.77-.44-.22-.15-.68.21-.91.71-2.56.05-3.78.03.12-.49-.26-.44-.21-.85.8-.05.74-.86,1.5-.94-.02-.34-.04-.68-.06-1.03-.57-.18-.11.57-.67.38-.08-2.12.16-3.29,2.55-3.75.24-.07.12-.44.14-.7Z"/>
    <path class="cls-5" d="M315.91,152.65c.08-.28.96.06.77.62.54.15,1.76.25,2.01-.28,2.33-.48,3.21.49,4.64.91.26,1.7.09,3.84-1.27,3.71.27.75-.58.59-.3,1.34,1.09-1.88,1.38,3.36,1.52,4.54,1.33-.99,3.31-1.44,3.88-3.02,1.78-.3,2.11-1.82,2.97-2.97.09-.12.61-.06.72-.21.6-.77.77-2.35,1.73-1.91-.21-.18-.54-.27-.41-.8.75.05,1.07-.48,2-.44.5.02,1.21.75,1.89.89,1.76.39,3.65-.02,4.47,1.09.48.65.26,1.61.48,2.28,1.09.3,1.04,1.74,1.78,2.38.16-.16,0-.49.14-.99.51-.1-.1.9.41.8.23-.33.39-.73.49-1.18.65-.02,1.72-.71,1.74-1.75,1.61-.55,2.79-1.56,4.85-1.92,1.88-.32,4.07-.76,4.68,1.41,1.08-.02,1.12-.88,1.19-1.72.58.05.39-.53,1.09-.39.2-1.16.69-1.34.79-2.36.33-.03.39.18.74.13.41-.1.03-.82.13-1.17,1.14.13.35-1.29,1.4-1.23-.19-.84.19-1.21.08-1.99,1.2-.35,1.5-1.42,1.7-2.57,1.66.36,1.26-2.22,2.62-2.62-.55-1,.59-1.64.98-2.37.74.6,1.3,1.36,2.12,1.88-.48.88-.35,2.24-1.52,2.56.06,1.14-1.04,2.06-1.54,2.24-.08.83-.44,1.43-1,1.87.13.16.43.15.4.48-1.21.65-1.27,1.59-1.67,3.07-1.02-.84-.26.99-1.43.9.34,1.09-1.06,2.07-1.49,3.06-.27-.64.59-.37.31-1.01-.71.1-.63,1.46.08,1.48-.32.51-.91.32-.56-.3-.96,1.68-2.54,3.39-2.47,5.42-.87-.15-.34.93-.9.21-.26.42-.22,1.09-.28,1.66.31,0,1.02.27.97,1.11,2.04-.09,3.47-.31,4.89-1.43.42-.07.23.46.58.46.4.06.34-.26.34-.51,1.14.35,1.79-.94,3.06-.99.54-1.47,3-1.37,3.53-2.83.31-.08.35.11.38.31.34-.73.84-1.32,1.95-1.43.52-1.89,2.8-2.36,3.44-4.15.65.05,1.14-.03.88-.71,1.32-.33,2.25-.16,3.15.33-.1.35.28,1.07-.12,1.16.1.23.23-.07.55-.03-.09,1.21.91,2.01.72,3.11.45-.46.15.25.73.12-.4.43.34,1.56.15,2.81.73.02.65-.7,1.11-.06.46-.7,1.78-.47,2.35-.62.33-.5,1.4-1.75,1.6-.92.78-1.62,3.55-3.11,5.76-2.12-.12,3.32-3.42,4.07-5.96,5.44.23.7.23.29-.53.37-.2.54.6.09.4.64-.38.07-1.07.52-.93-.28-.53.17.13.52.05.82-.37.08-1.18.62-1.46.24-.26.09.08.21.03.5-1.66.15-3.49,1.4-4.54,1.07-.25.22-.32.58-.32,1-.2.37-.55-.3-.75-.29-.3.02-.02.45-.15.5-.35.13-3.76.45-4.2.39-1.1-.14-1.85-1.27-2.82-1.17-.23-.66.24-.75.49-1.02-.24-.23-.64-.28-1.11-.27-.07-.8.71-.89.64-1.68.48.56,1.06-.54,1.66.24,1.44-1.4,4.19-.81,4.81-2.9.8.15,1-.6,1.45-.25-.19-1.26-1.3-2.15-1.84-3.53-1.36,1.53-3.33,2.56-4.17,4.52-1.15-.16-1.92,1.55-2.53.79-.4.99-.72,2.05-2.47,1.95-1.12,1.45-3.17.87-4.5,1.73-.26.17-.08.49-.33.68-.06.05-.25-.32-.39-.31-.32.05-.13,1.58-.35.35-.24.17-.21.57-.52.68-.26-.02-.09-.49-.39-.47-.25.12-.32.37-.33.67-2.62.05-4.19.03-6.58.69-.08-.33.01-.52.34-.52-.19-.43-.57.27-1.1.06-.03-.96-.7-1.27-1.2-1.76-.62.29-1.33.51-1.4,1.24-.35,0-.15-.54-.58-.47-.23.06-.12.42-.15.67-.31.06-.92-.12-.71.37-.23-.18-.36-.45-.93-.28-.24.12-.32.37-.34.68-.49-.39-.88.09-1.08.39-.54.2-.34-.35-.4-.64-.69-.13-.33.58-.7.7-.64-.41-1.47-.61-1.38-1.74-.33,0-.37.22-.72.21-.13-.77.3-1.08-.09-1.64.46.48.11.05.73-.05-.46-.35-.3-1.32-.99-1.44-.8.93-.79,2.53-2.42,2.78-.55-.25-.67-.94-1.7-.74-1.72-2.95-1.2-4.54-1.34-7.86-1.04-.25-3.93-.76-4.76.42.3.54.19-.56.72-.37.16.51-.62.24-.32.85-.34-.02-.91.22-.76-.29-.47,2.76-3.2,4.97-4.17,7.83-.58.06-.34-.71-.95-.61-.79.1-.84.79-1.8.76.06-.87-.39-1.23-.3-2.13-.75.98-1.39.12-2.15,1.1-2.7.1-3.31-1.89-4.06-3.75-1.41,1.18-2.99,2.22-4.22,3.53-.01-.11-.01-.21-.02-.33.05.77-1.27.46-1.42,1.07-.54-.85-2.67-.13-2.55.3-.79-.43-1.91-.52-2.98-.67-.11-.58-.49-.89-1.15-.93.03-1.34-.94-3.24.34-3.82-.48-1.73.61-2.39.56-3.34.71-.27,1.31-.62,1.39-1.4.93.31.89-.89,1.22-1.22.34-.35,1.13-.4,1.61-.75.95-.69,1.55-1.63,3.2-2,.26-.03.68-.67.33-.68ZM382.72,161.63c.18,0,.37-.02.55-.03,0-.29-.2-.38-.57-.3.01.11.01.22.02.33ZM390.91,160.2c-.12,0-.24.02-.37.03.01.11.01.22.02.33.13-.01.25-.01.37-.02,0-.11-.01-.22-.02-.33ZM374.03,163.91c.12,0,.24-.01.37-.02,0-.11,0-.22-.02-.33-.12,0-.25.01-.37.02,0,.11.01.22.02.33ZM318.17,157.16c-.03.29.23.81-.33.68-1.07-1.41-2.36.44-3.83.53-.6,1.12-3.34,1.94-2.21,3.43-.06-.87.25-.01.55-.03.65-.03,1.79-1.2,2.71-.81.16-.34.32-.69.49-1.02,1.55.09,4.21-1.12,3.14-3.15.04.3-.16.4-.53.37ZM346.26,163.59c-.99-.55.62.39.44,1.13.67.02,1.61-.23,2.02.06.83-.71,1.93-1.18,3.23-1.5-.14-.67.43-1.24.7-.7.18-1.17,1.76-1.86.91-3.35-2.8-.97-4.29.98-6.31,2.16.25,1.2-.97,1.22-.99,2.2ZM329.93,163.97c.06-.27.56-.18.33-.68-.46-.14-.56.77-.33.68ZM338.72,163.33c.18-.01.37-.02.55-.03.01-.3-.21-.38-.57-.3,0,.11.01.23.02.34ZM339.62,163.11c-.21,1.25.1-.59,0,0h0ZM329.42,164.66c0-.26.46-.16.33-.51-.18.01-.37.02-.55.03.04.19,0,.47.22.49ZM377.45,162.58c.55.21.5-.77-.03-.49,0,.16.02.33.03.49ZM380.74,162.4c.56.21.5-.77-.02-.5,0,.16.01.33.02.5ZM328.73,165.69c-.25-.52.59-.16.34-.68-.42-.1-.72.65-.34.68ZM373.56,165.59c-.12-.28-.13-.68-.41-.8.1.3-.2,1.01.41.8ZM376.1,164.96c.13-.01.25-.01.37-.02,0-.1-.02-.22-.02-.32-.12,0-.24.01-.36.02,0,.11,0,.22.01.33ZM365.5,166.02c.12,0,.24-.01.36-.02,0-.11,0-.22-.02-.33-.12,0-.24.01-.37.02,0,.11.02.22.03.32ZM374.13,165.9c.11,0,.25-.02.37-.02.26-.42-.65-.45-.56-.14.1.01.21.02.19.16Z"/>
    <path class="cls-1" d="M256.11,150.55c-.16.24-.44.37-.48.72-.28.46-.09-.93.48-.72Z"/>
    <path class="cls-1" d="M253.56,151.21c.16.12.28.3.37.5-.05.43-.39-.26-.37-.5Z"/>
    <path class="cls-1" d="M243.64,152.6c.12.38-.31.26-.32.53-.3.07-.04-.66.32-.53Z"/>
    <path class="cls-1" d="M203.36,165.97c.3-.07.36.14.18.16-.24.65-.47.44-.18-.16Z"/>
    <path class="cls-1" d="M300.49,178.32c.31-.06.37.14.18.16-.23.65-.46.44-.18-.16Z"/>
    <path class="cls-5" d="M258.26,152.16c-2.09.86-3.99,1.28-5.87-.2.5-.92.97-1.35.73-2.62,1.01-1.18,2.09-1.17,3.72-1.24.26.27.63.39.57,1.01,1.98.06,1.46,1.98.85,3.05ZM253.56,151.21"/>
    <path class="cls-5" d="M165.89,161.61c-3.55,6.94-7.29,15.74-11.7,22.11-1.73,2.51-3.57,5.75-5.61,7.91-1.67,1.76-4.36,2.61-6.71-.02,5.74-10.49,12.28-20.02,17.88-30.69-10.43-.51-21.76-5.32-31.53-8.94-1.98-1.73-6.52-3.16-5.26-6.21.79-1.92,3.57-1.3,6.08-1.02,1.45,1.37,1.62,4.33,3.59,5.53,1.53.93,4.58,1.73,7.17,2.52,7.33,2.22,13.3,3.78,21.88,4.19,3.49-4.58,6.47-9.78,8.75-15.85,1.76-1.34,3.96-.61,3.46,2.34-.11.66-1.08,1.95-1.61,3.23-1.18,2.91-2.94,7.92-3.87,10.06.59.52,3.04-.45,3.92.45,4.8-1,9.44-2,13.9-4.29,5.02-2.58,11.38-6.76,6.52-13.67-5.95-3.2-15.76-5.5-23.63-4.14-4.24.74-7.07,2.91-11.39,1.88-2.06-3.35,1.64-3.7,4.47-4.37,1.96-.47,4.02-1.58,5.42-1.83,6.9-1.22,15.33,1.52,21.29,2.91,6.69,2.85,12.17,7.88,9.26,16.92-7.53,7.47-19.23,11.25-32.29,10.98Z"/>
    <path class="cls-2" d="M319.4,211.81c-.48-3.3-.57-5.71-1.02-8.99-1.98-.71-3.89.37-4.9-1.64.76-1.37,2.6-.68,3.88-.82,2.27-.23,4.53-1.5,6.95-1.22.49.72,1.48.97,1.22,2.45-1.18.45-3.32-.04-4.29.61-.26,4.2,1.34,7.15.2,10.43-.18-.16-.46-.22-.82-.2.26-1.02-.22-.1-1.22-.61Z"/>
    <path class="cls-2" d="M349.64,199.14c.37.51.7,1.07.61,2.04-2.39.38-3.92,0-5.72.61,0,1.01.24,1.8.41,2.65,1.74.04,3.97-.43,3.68,1.64-1.38.44-2.29.12-3.47.62-.28,1.94.07,3.54,0,5.92-1.01-.07-1.73-.44-2.25-1.02.29-4.87-1.7-8.41-.82-12.26,3.09.06,4.9-.06,7.56-.2Z"/>
    <path class="cls-2" d="M368.03,201.02c1.35,3.12,2.66,7.4,2.25,11.24-4.05-.92-5.61-4.33-8.37-6.54-.35,1.78.21,4.41,0,6.74-2.74,1-2.13-2.61-2.46-4.7-.32-2.01-1.71-4.46-.41-5.52,4.82.57,5.97,4.8,8.99,7.16-.21-2.41-1.1-5.81-1.84-8.38.43-.4,1.36-.16,1.84,0Z"/>
    <path class="cls-2" d="M383.77,208.75c-.72.12-.7.61-1.03,1.84-.95.25-3.03.65-3.48,2.05-.97-.39-3,.28-3.06-1.02-.21.13-.21.47-.61.41-3.95-2.58-3.02-11.79,2.86-10.83,2.42.4,3.86,2.66,5.52,4.29.05,1.45-.13,2.44-.2,3.27ZM377.42,203.23c-2.28,1.69-2.9,6.36-.2,7.97,5.41-.16,6.25-7.83.2-7.97Z"/>
    <path class="cls-2" d="M218.46,196.74c1.53,2.47-.24,6.27,1.23,8.99-1.36,2.17.01,5.73-.62,7.77-1.09-.1-1.16-.02-2.04-.41-.23-2.22-.52-4.39-.82-6.54-1.86-.7-3.26,1.09-5.1.41-.68,1.8.24,4.57,0,5.93-.71.16-.79-.3-1.43-.2-1.31-3.92-1.86-9.64-1.43-13.49.51-.17,1.1-.26,1.84-.21.96,1.1.68,2.43.61,4.29,1.2.7,3.27.55,5.11.61.1-1.87-.36-3.18-.21-5.11.51-.72,1.16-1.3,1.23-2.45.42-.36,1.14.22,1.64.41Z"/>
    <path class="cls-2" d="M296.3,200.01c-.18,1.31-1.85,1.15-3.06,1.43-1.31,3.43.02,8.26-.21,12.05-.9-.05-1.15-.75-2.04-.82-.33-3.56-.77-7.04-.61-10.62-1.81-.72-4.54.73-5.11-1.23.58-1.77,3.48-1.04,5.52-1.22,2.14-.2,5-1.71,5.52.41Z"/>
    <path class="cls-2" d="M334.72,212.63c-.3-.18-.65-.31-.61-.81-5.94,2.01-8.15-5.94-4.7-9.61,2.43-1.54,5.78-.55,8.38.41,1.42,2.64,1.79,6.79-.21,8.99-1.39-.1-2.19.4-2.86,1.02ZM335.74,203.64c-5.96-2.07-8.46,8.75-.62,7.15,2.21-1.16,2.09-5.22.62-7.15Z"/>
    <path class="cls-2" d="M354.55,201.76c-.07,2.77.75,7.69.82,10.83-1,.18-1.36-.28-2.05-.41-.3-3.37-1.7-7.61-.62-11.03h1.22c.12.29.32.5.62.61Z"/>
    <path class="cls-2" d="M234.19,205.88c.93,2.54,4.42,2.53,5.11,5.32-2.17,1.1-3.58-1.8-5.11-2.66-1.32-.12-1.86-1-3.07-1.22,0,1.53-.28,3.92-.21,6.13-1.11.22-1.35-.41-2.25-.41-.33-3.61-.14-7.07-.61-10.01-.09-.53-.47-1.06-.41-1.64.5-5.11,9.23-3.46,9.39.41.07,1.58-1.12,3.09-2.85,4.08ZM230.51,204.66c2.11-.33,3.7-1.2,3.88-3.47-2.2-2.81-5.79-.01-3.88,3.47Z"/>
    <path class="cls-2" d="M281.39,199.16c1.87,2.15.99,5.55-.4,7.56,1,2.21,5.27,2.2,5.1,4.9-2.86-.63-4.54-3.47-7.97-2.86.04,1.85.41,3.42,0,4.7-.7.09-1.15-.08-1.63-.21-.11-3.18-1.6-9.29-.62-12.46.66-2.12,2.92-2.43,5.52-1.63ZM278.12,205.29c1.52-.6,2.23-1.99,2.25-4.09-2.77-1.43-2.46,1.64-2.25,4.09Z"/>
    <path class="cls-2" d="M168.39,204.91c2.41,1.46,3.23,7.74-1.22,7.56-.08.35.16.39.41.41-1.48,1.18-4.73.22-6.54.61-2.29-3.54-.14-8.21-.82-13.49,3.18-4.99,12.71-1.32,8.17,4.91ZM163.08,201.23c.02,1.52.12,1.78.21,3.06,1.6.1,2.67-.32,3.47-1.02.46-2.53-2.56-2.85-3.68-2.04ZM163.29,207.16v4.29c2.44-.44,5.18-1.59,4.5-4.49-1.42-.62-3.13-.26-4.5.21Z"/>
    <path class="cls-2" d="M259.53,200.68c-2.02-.21-5.9.38-5.31,2.86.31,1.3,3.63,1.55,4.91,3.47,1.27,1.94,1.21,3.46.2,5.72-3.07.7-5.6,1.52-7.76-.62.22-1.54,1.76-.32,2.66-.4,1.77-.17,3.82-1.6,3.07-3.68-1.64-1.14-3.79-.39-5.52-2.25-.72-2.79.29-5,1.63-6.34,1.62-.83,6.18-1.74,6.13,1.22Z"/>
    <path class="cls-2" d="M248.7,202.06c-1.64.16-3.21.42-4.9.61-.47.55-.07,1.97-.21,2.86,1.58.44,3.94-.92,4.29,1.23-1.25.53-2.62.92-4.29,1.02v3.47c1.84.73,5.24-1.48,5.11,1.63-2.74,0-4.51,1.19-7.15.21-1.14-3.11-.81-8.73-.61-11.44.74-.8,7.63-2.29,7.77.41Z"/>
    <path class="cls-2" d="M181.06,201.03c-1.07,1.25-3.19-.52-4.7.82.17,1.08-.08,1.99,0,3.48,1.07.84,3.54.27,3.88,1.84-1.44.97-2.49.1-3.88-.21-.88,1.38-.08,2.99-.21,4.49,1.47.66,4.48-.39,3.68,2.04-1.93-.91-4.73.3-5.92-1.22-.71-5.03-.71-8.51,0-12.87,2.76-.22,6.05-.49,7.15,1.64Z"/>
    <path class="cls-2" d="M203.13,201.78c0,2.25-1.98,1.35-3.07,1.84-3.09,2.22-1.71,10.37,3.68,7.56.4.28.95.41,1.03,1.02-1.9,1.51-5.02,1.67-6.95.62-.45-1.46-2.24-2.72-2.45-4.7-.47-4.29,4.01-9.47,7.77-6.34Z"/>
    <path class="cls-2" d="M188.62,199.79c2.33,4,3.92,8.75,5.31,13.69-3.9.29-2.83-4.39-4.5-6.34-1.03-.15-1.5.28-2.25.41-.66,1.72-.86,3.91-1.63,5.52-.64-.04-1.5.14-1.85-.21-.1-4.14,1.19-9.13,2.05-12.66,1.14-.1,1.8-.78,2.86-.41ZM188.83,205.92c-.08-.81-.01-1.76-1.02-1.64-.04.93-.17,1.94,1.02,1.64Z"/>
    <path class="cls-2" d="M267.09,201.35c3.66-.52,6.29,2.75,6.34,6.13.03,2.93-3.65,5.58-5.52,5.93-6.74,1.25-7.2-11.15-.82-12.06ZM269.74,204c-3.1-1.61-5.3,1.72-5.31,5.11.99-.15,1.32,1.33,2.04,2.04,2.4.15,3.41-1.09,4.5-2.25.25-2.3-.72-3.37-1.23-4.91Z"/>
    <path class="cls-2" d="M305.91,205.72c-.12.66.14.95.2,1.43-.84.66-1.99,1.01-2.65,1.84-4.95-.36-.23-6.39,2.45-3.27Z"/>
    <path class="cls-5" d="M239.19,162.84s10.29-13.67,8.44-22.5c0,0-1.17-.39-1.94,0-.77.39-12.03,17.17-12.7,24.25-.68,7.09,6.2-1.75,6.2-1.75Z"/>
    <path class="cls-5" d="M218.44,167.11s2.43,3.98,5.53,4.08c3.1.09,7-1.01,7-1.01l-12.15-4.13-.38,1.07Z"/>
    <path class="cls-7" d="M257.34,164.95s-2.11,8.8,7.93,7.06c10.04-1.75,19.72-3.42,18.99-6.7-.73-3.27-20.88,5.82-22.33,3.78-1.46-2.04-4.58-4.15-4.58-4.15Z"/>
    <path class="cls-5" d="M287.79,150.59s-1.18.1-2.77-4.21c-1.59-4.32,5.88-18.51,30.74-14.26,0,0,3.21,1.14,2.5,3.9-.71,2.76-3.52,3.8-5.7,3.23,0,0-1.69-1.99,2.5-4.47,0,0-18.37-1.49-22.16,6.87-3.79,8.36,10.87,12.46,11.99,19.07,1.12,6.61,4.57,28.98-41.26,32.38l12.04-6.91s18.77-1.02,24.28-8.94c5.5-7.92-.87-19.55-6.27-22.4-1.31-.69-5.88-4.27-5.88-4.27Z"/>
    <path class="cls-7" d="M284.33,162.82c-3.45-.58-2.99,3.69-6.84,3.29-.24-.54-1.72.91-1.96.37-1.85.91-2.85.29-2.11.65-2.02-.55-1.74,1.2-3.2.29-.23.05-2.06.78-2.11.07-.47.12-.56.51-1.16.51-.08-.6-2.69-.79-2.48-.29,0-.43-.81-1.19-1.02-1.38-.63-.23.23-1.12-.18-1.17.03-.66-.47-1.31.14-.7.07-2.09,6.24-5.49,8.09-3.19.36-.39.62-.86,1.33-.93.39-1.31.18-2.8-.22-4.12-.37-.14-1.03.05-.9-.64-.86.89-3.27.55-4.43.76.2,1.59-2.46-.09-2.01,1.14-.62-1.24-1.14.56-1.89.1,0,.26.09.63-.13.7-1.88.87-3.3,2.15-5.36,2.87.09.62-.39.74-.81.91-.04.34.25.33.37.5-1.8,1.42-3.53,2.66-5.85,3.25-.22-.25-.46-.46-.73-.66-1.71-3.85,2.83-4.82,1.11-8.15-1.2.4-.99-.24-1.92-.42.08.77.46.37.24,1.19-1.18.47-2.09,1.91-3.27,2.03.06-.02.11-.05.11-.14-.58-.14-.55.27-.48.72-2.58,1.17-4.83,2.16-7.45,2.47.18-.26.18-.44-.04-.68.96-.07.8-1.14,1.83-1.14-.11-.68.49-1.31,1.3-1.62.12-.49.24-1.27.58-1.92.05-.08.46.05.51-.02.55-.78.14-2.51,1.11-1.78,1.05-5,5.18-9.98,3.12-15.67-.4.02-.8.05-1.2.07-.08.91-.86,1.19-.73,2.28-1.2.05-.71,2.37-1.79,1.99-.22.4.47.63.04.7-.98-.32-1.28.48-1.67,1.12.21.01.49-.06.52.14-.43.2-1.35.61-.63.89-1.1-.13-1.42,1.54-.63,1.24,0,.17.01.34.03.51-.35.12-1.14-.15-1.2.24.43-.05.44.37.72.48-.52.16-.52-.26-1.04-.11-.46.55-.03.93-.08,1.89-.91.07-.14.04-.14.53-.41.02-.8.04-1.21.06.05,1.37-1.43,2.87-.47,3.98-.54-.09-.49.32-1.03.23.26.52-.01.49.07,1.2-.97-.04-.55,1.15-.77,1.76-1.05.68-1.62,1.82-2.44,2.72-.54.58-1.28.9-1.45,1.8-.23.01-.46.02-.69.04.5.94-.51.5-.62,1.24,0-.31-.2-.39-.53-.31-.49,2.93-6.21,3.18-6.71.18.25-1.21,1.19-2.47.82-4.01,1.24-.2.67-2.01,1.77-2.34-.04-1.35-.09-2.7-1.03-3.05-1.25,1.56-3.04,2.61-4.61,3.87-.28,0-.16-.44-.54-.32-.1.54.6.18.39.83-1.16.31-1.36,1.35-1.27,1.97-.36-.09-.1-.87-.73-.65-.57,2.2-2.11,3.55-3.88,4.69-.01-.64-4.15.52-4.25,1.09-2.81,1.53-3.5-2.35-2.47-4.34,1.23-.32,1.78-1.24,2.47-2.03,3.36-1.31,8.11.43,7.69-4.37-.62.14-.7-.32-.73-.83-1.83.12-2.41-1.15-4.33-.45-1.34.85-3.97,1.12-5.21,2.52-2.82,1.11-4.67,3.11-6.98,4.68-.11.76-1.07,1.12-.58,1.93-.72.5-1.73.73-1.62,1.98-.86.12-2.82,1.12-3.1-.18-.57-.18-.11.56-.67.38-.43-.92-1.46-1.18-1.68-2.32.32-.06.38.17.69.14-.15-.77.08-.78.3-.88-.22-.25-.46-.46-.73-.65.24-.02.38.06.52.14-.22-.7-.2-1.55.06-2.24.59-.3.13.58.55.49-.15-.78-.02-1.32.24-1.74-.6-.54-1.02-1.29-1.33-2.17-1.29-.02-2.07.41-3.42.36-.54.64-1.44,1.52-2.53,1.17-.18.88-.5.83-1.32.93.15.79-.62.76-.98,1.09-.04-.2.01-.49-.2-.5-1.34,1.24-2.31,2.83-4.29,3.5-.41,1.63-1.87,4.26-.9,5.56-.27.04-.6.01-.49.38.72.23.58,1.41.8,2.2.65,0,.88.48,1.57.43,1.07-.68,2.41-1.91,3.72-1.4-.21-.58.42-1.24.82-.73.09.41-.79-.05-.49.54,1.39-.28,1.46-2.06,2.65-2.04.49-1.36,1.87-1.92,2.59-3.07.15,2.23.33,4.29,1.71,6.11.65.15.23-.66.83-.56-.14.65.46.46.4,1.01.58-.35.42-.35,1.03-.06.06-.71.89-.72,1.14-1.26.46-.15-.07.81.38.67.01-.2.26-.2.5-.2.06-.33-.29-1.03.3-.88.26.03.14.37.03.52.61-.05,1.39.05,1.35-.59-.26-.02-.64.09-.69-.14,0-.21-.06-.49.13-.53.19.28.5.42,1.05.29.01-.21-.05-.49.14-.53.27.69-.27.62-.46.89,1.93-.38,2.25-2.24,3.44-3.29-.03.33.22.37.22.68-.34.29-.41.83-.63,1.24,1.43.87.9,2.51,2.41,2.97,1.28.4,2.6-1.12,4.14.3,4.35-.06,6.46-2.54,10.13-3.99.08-.31.05-.72.29-.87.01.28.03.56.05.85.7.08.08-1.02.82-.9-.19,1.11.98.73.95,1.67.4-.02.52.27,1.04.12-.32,1.88,3.36,2.8,3.59,2.74.52.12.49,0,.82-.74.61.06,1.03.31,1.42.62.01-.26-.1-.63.13-.7,1.21.7,2.49-.82,3.07-.68-.32.53-.3,1.36-1.13,1.44-.14.47.16,1.35-.62,1.24,0,.12.02.22.02.33l3.59-.65c.6-1.54,1.22-3.08,1.81-4.63.4-.02.8-.04,1.21-.07.18,1.51.22,2.81.24,4.11l2.49-.45c-.09-.19-.16-.37-.15-.52,0,.27.05.59-.32.53.08-.59-.3-1.59.07-1.9.27,0,.15.43.53.32.72-1.88,2.75-1.76,3.98-2.98.21.03.2.26.2.51.49-.45,1.2-.56,1.15-1.09,1.08.62,3.07-1.99,4.37-2.13-.31,1.64.78,2.43.73,4.1.75-.1.94.41,1.25.79.16-.18.32-.37.49-.55-.15.59.55.24.88.29-.21.22-.1.73.38.67.11-.8,1.41-1.82,2.01-1.14.84-1.46,2.44-1.83,3.47-2.77.27,1.16.18,2.11.37,3.6.77-.07.92,1.68,1.42.78.58.28,1.66,2.47,2.13,1.09-.48-.28-.29.77-.51.2-.29-.64.76-.07.48-.72-.76-.19-1.01.17-1.56-.26.62.24.07-.59.48-.54.05.2.2.09.34-.02.4.1.41.64.89.64.18-.17.02-.64.49-.54.1.27.5.36.86-.05.52,1.55,2.19,1.14,3.18,1.38.46-.56,2.45.14,3.05-1.03-.12.49.26.44.21.86.44-.43,1.43-.37,1.67-.96,3.81.71,5.68-1.72,9.89-2.08.11-.61,1-.51,1.69-.61.21-.74.29-1.58,1.47-1.45.68-.82.72-1.99.18-3.11ZM188.08,163.85c-.23,1.92-1.9,2.54-3.62,3.12-.2.04-.13.32-.15.53-.65-.12-.77-.86-.78-1.68,1.27-1.62,3.09-2.32,4.46-3.51,1.2.71.75-.93,1.85-.79-.56,1.11-.35,1.95-1.77,2.33ZM189.89,162.21c-.01-.12-.01-.23-.03-.34.12,0,.24-.02.35-.02,0,.11.01.23.01.34-.11,0-.23.01-.34.02ZM193.13,164.78c0-.11-.01-.22-.02-.33.11-.01.23-.02.35-.02,0,.11.01.23.02.34-.12.01-.24.02-.34.02ZM203.54,166.12c-.24.65-.47.44-.18-.16.3-.07.36.14.18.16ZM205.44,169.47c0-.12-.01-.23-.02-.35.12,0,.23-.01.34-.02,0,.12.02.24.02.35-.11,0-.23.01-.34.02ZM238.45,161.69c.05.2-.04.45-.32.34-.15.15-.29.32-.45.44-3.75,3.28,2.92-11.37,7.6-13.88,0,0-.64,1.75-1.63,4.03.05.19-.03.25-.13.3-.47,1.07-1.01,2.24-1.61,3.4.02-.01.03,0,.06,0-.03,0-.04.02-.06.02-1.04,2.02-2.23,4.01-3.44,5.36ZM257.79,165.97c0-.12-.01-.23-.02-.35.11,0,.24-.01.35-.02,0,.12,0,.24.01.35-.11,0-.23.01-.34.02Z"/>
    <path class="cls-5" d="M231.83,168.17s-4.47,10.28-4.27,10.87c.2.58-.97,5.04.97,5.82,1.94.78,8.45-5,10.05-13.37,1.59-8.36-.47.02-.47.02l-.07-5.08-2.67,2.13s-.44,9.12-2.96,10.29c-2.53,1.16.97-7.37,2.23-10.94,1.56-4.41-2.81.27-2.81.27Z"/>
  </g>
  <g>
    <polygon class="cls-3" points="72.16 129 19.63 205.89 22.26 209.2 122.45 205.72 86.46 139.6 75.75 127.09 72.16 129"/>
    <path class="cls-4" d="M104.32,166.47c3.51.51,2.59,5.91,6.27,6.25.09,3.86,2.08,5.66,4.52,6.93-.28,4.07,2.02,5.29,4.48,6.34.28,1-.41,1.14-1.13,1.24.83.82,2.8,1.36,1.33,2.92.47-.34.95-.67,1.75-.69.28,1.19-.03,1.86-1.1,1.84,1.19,1.51,4.62,4.75,2.68,5.83.61,1.01,1.93,1.23,3.62,1.02.33,4.87,3.01,7.14,3,12.38-.56-.34-2.25-1.28-1.75.68-1.07-1.12-4.15-.02-4.28-2.17-1.32,2.35-4.08-1.55-7.07,1.55-1.81.3-1.34-1.88-1.95-2.89-1.7.6.85,1.46.15,2.98-.47-.39-2.01-2.42-1.78.08-8.31-.58-20.65-.62-28.01.18-.03-.59-.06-1.18-.09-1.77-2.69,1.58-5.83,1.89-8.33.41-1.61,2.33-12.68,2.39-16.06.8-6.54,3.76-21.09.23-24.25,4.18-5.13-2.88-13.96.37-20.37-1.97-.6-1.87.4-2.28,1.04-3.04-2.4-.09-1-.46-1.39-4.11,2.77-.9,3.91-3.26,3.84-6.74,2.76.43,1.21-3.06,4.04-2.59-.52-1.8-.47-1.11-.15-2.97,4.04.46,1.59-4.99,5.11-5.02-.41-.59-1.4-.55-1.28-1.73,2.4.66,1.12-2.01,3.51-1.36-.05-.99-.1-1.98-.15-2.97.51-.48,1.32-.71,2.35-.71,3.49-8.97,10.02-15.18,13.73-23.94,2.06-.03,2.71-1.34,2.21-3.69,1.74.07,1.75-1.44,3.51-1.36,1.44-7.97,9.04-10.39,10.42-18.41,6.53-1.47,4.97-10.26,11.33-11.89-.42-.59-1.39-.55-1.28-1.73,1.96-.12,2.91-1.16,5.33-.86,2.67,1.89-.69,3.07,3.12,2.82-2.47,2.69.76,10.56,3.44,9.37.89.16.16,4.51,3.18,4.02-.32,1.84.73,2.14.79,3.54,7.66,6.39,9.12,19.62,16.78,25.99.27,1-.41,1.15-1.13,1.26ZM69.56,138.97c-1.88.82-.54-1.9-2.44-1.08-.91.31-.41,1.9-2.3,1.31-.74,3.13-1.47,6.24-4.41,7.37-.71,3.29,1.68,3.16,2.62,4.64-4.14,3.03-4.16,12.74-11.46,9.5.67,1.77,2.85,1.86,3.18,4.03-1.57.81-2.73,1.12-3.5,1.36,2.53,2.07-.67,1.55-1.65,3.06-2.54,3.94-3.92,10.16-8.38,11.15-.16,2.89-1.21,4.97-3.91,5.55,1.5,3.08-.87.42-1.71,1.88,3.83.72-2.44,2.61.21,4.17-4.23.89-3.2,6.56-6.13,8.65-.38-1.03.55-3.53-.77-3.55,0,.93.19,2.06-1.11,1.84-.63,1.96,1.95.36,1.31,2.31-2.47.61-2.02,3.86-3.31,5.54,6.2-1.37,16.28-1.48,23.2-1.15.11-.46-.04-1.17.53-1.22,23.08,2.1,41.48-1.49,69.66-2.25-1.29-6.25-6.82-9.25-8.99-12.68-.72-5.29-5.72-5.82-5.94-11.63-2.67.4-2.29-2.12-1.97-3.48-2.37.06-4.52-3.79-2.61-4.64-1.86,1.01-2-.35-3.63-1.01-4.3-12.99-14.56-22.16-19.5-32.43.03.6-1.01.8-1.18.05.72-.09,1.39-.24,1.13-1.24-1.66.57-1.59-.76-3.01-.44-2.88,4.02-4.16,9.49-8.97,11.77,1.26,2.04-.43,2.89-1.57,4.25-.72-2.36-.14-4.64.87-6.61.98-.04.41,1.63,1.28,1.73.13-2.56,2.17-7.42,3.92-4.97-.06-.82.22-1.32.5-1.81Z"/>
  </g>
  <text class="cls-6" transform="translate(59.42 198.84)"><tspan x="0" y="0">6</tspan></text>
</svg>