<?xml version="1.0" encoding="UTF-8"?>
<svg id="Layer_1" xmlns="http://www.w3.org/2000/svg" viewBox="0 0 400 400">
  <defs>
    <style>
      .cls-1, .cls-2 {
        fill: #fff;
      }

      .cls-1, .cls-3, .cls-4, .cls-5, .cls-6, .cls-7 {
        fill-rule: evenodd;
      }

      .cls-2 {
        font-family: AmericanTypewriter-CondensedBold, 'American Typewriter';
        font-size: 42.62px;
        font-weight: 700;
        letter-spacing: -.02em;
      }

      .cls-3 {
        fill: #063767;
      }

      .cls-4 {
        fill: #662d91;
      }

      .cls-6 {
        fill: #2a91d0;
      }

      .cls-7 {
        fill: #00a5e1;
      }
    </style>
  </defs>
  <g>
    <path class="cls-5" d="M300.27,218.78c.35.12.62.65.51,1.01-.37-.13-.43-.57-.51-1.01Z"/>
    <path class="cls-5" d="M142.54,220.51c.29.61,1.15,1.93.52,2.39-.06-1.01-.84-1.46-.52-2.39Z"/>
    <path class="cls-5" d="M268.07,125.13c.3.04.39.29.34.68.75-.15,1.85-.03,2.05.85.53.19.38,0,1.02,0,1.52,1.57,3.52,1.64,5.11,3.06.15-.08.3-.15.33-.34.44.02.27.64.51.85,1.48-.23,2.61.63,3.42,1.88.73.07.21-.46.51-.52,1.9,1.34,3.6,2.87,6.3,3.4.85,1.65,3.75,1.25,4.26,3.24.3.32.5-.2.86.16-.09.75.52.36.16,1.03,1.12.26,2.24,2.1,3.58,2.22.29.33-.02.21,0,.68,1.5.15,3.11.98,3.24,2.89,2.02.76,2.9,1.82,4.42,4.09.79-.71,2.01.74,2.05,1.88,2.23.89,2.24,4.01,4.6,4.77-.11.17-.4.17-.34.51.17.48.45-.25.68.17,0,.17-.21.14-.35.17.72.7,1.57,1.27,1.36,2.89.21.06.59-.49.18-.51,1.59.5,2.07,4.33,4.43,4.09,3.28,6.59,6.65,13.02,8.17,20.95-.6-.18-.35-1.22-.67-1.69-.3,1.59.47,3.51,1.19,5.1.52,1.18,1.01,2.66,2.04,3.24-.4,2.61,1.47,4.36,1.02,6.81,1.53,2.77,1.3,6.82,1.19,9.88.15.7.64,1.07.68,1.88.18.64-.43.49-.34,1.02.54.51.22,1.19,1.19,1.88.27-.48.36-1.12.68-1.54.09,1.33.18,2.71,0,3.91,1.13.92.43,3.01-.17,4.09.77,1.16-.01,3.48.51,4.09-1.15.92-1.48,4.4-1.02,5.79-1.46.7-.61,3.71-2.05,4.43-.12.52.18.62.17,1.02-2.53,6.79-5.26,14.8-8.86,21.46-1.68,4.39-4.29,7.86-5.96,12.27-2.09.74-5.56,7.1-7.49,8.18-.15.05-.45.75-.17.68-.04.4-.46.4-.68.17.12.52.12.33,0,.85-.19-.03-.14-.31-.17-.52-.38.07,0,.91-.34,1.02-.32-.01-.11-.56-.52-.51-.46.16.24.53,0,1.02-.37-.37-.36.04-.34.52-.25.19-.43.19-.68,0-4.72,5.6-10.5,10.16-16.17,14.82-2.57.96-4.41,2.63-6.82,3.75-1.13-.05-1.63.53-2.05,1.19-.58-.01-.8.33-1.19.52-.68-.12-.69-.12-1.36,0-.44.04.23.29,0,.68-.69-.06-1.25,0-1.37.51-.2-.02-.14-.31-.17-.51-.84.33-2.2.19-2.39,1.53-.54-.56-1.62-.18-1.53.86-.82.06-1.92-.11-2.04.85-.85-.21-2.23.21-2.56.51-.3.33-2.47.4-1.53.85-.25.56-.41-.36-.85-.17-.26.08.06.22,0,.51-.55.15-.23-.56-.68-.51-.37.03-.36.43-.34.85-.19-.05-.11-.34-.34-.35-.4.46-.6.48-.85.35.04.02-1.27.71-1.53.85-.37.18-1.46.51-1.7.52-.09,0-.38-.33-.34-.34-.49.13-1.42.93-2.38,1.03-5.05.51-11.77,2.54-17.55,2.21-.54.08-.45-.46-.85-.51-.55.39-1.38.34-2.04,0-.26.31-.62.51-1.02.68-.3-.04-.39-.3-.34-.68-.6.43-1.19.68-1.36,0-.76.31-1.87.29-2.72.51v-.51c-.46-.12-.33.35-.52.51-1.64-.89-3.83-.33-5.11,0-.29-.33-.73-.51-.85-1.02.24.57-1.05.63-.68.17-.81.72-2.11.17-2.9-.34-.37-.03-.55.14-.51.5-5.53-.1-7.74-1.3-12.61-2.38-.47.15.31.59-.16.86-7.6-2.92-13.25-5.84-19.76-9.54-.41-.07-.37.31-.85.17-1.48-2.95-5.39-3.48-6.99-6.3-4.46-2.37-6.92-6.08-10.9-8.52-1.12-2.4-3.99-3.05-4.94-5.62-4.73-3.04-7.13-8.43-11.07-12.26v-.85c-2.25-1.49-1.92-5.93-4.94-7.16-.21-.47-.2-1.03.17-1.36-.18-.28-.73-.18-1.02-.34.15-.3.69-.21.51-.85-3.76-4.43-4.26-11.48-5.79-18.06-.33-1.41-1.34-3.13-.68-4.77-.05-.6-.46.01-.51-.34-.2-3.07-.33-5.81-1.19-8.51.28-4.53.2-8.01,1.02-12.95.57-3.42,1.57-6.28,2.05-10.22.62-5.13,1.41-10.36,3.07-14.82.37.09.24-.32.52-.34,1.79-6.67,5.25-11.67,7.49-17.88,1.65-1.92,2.8-4.36,4.26-6.47.35-.1.34-.52.68-.18.67-2.55,3.25-3.21,3.92-5.79,2.23-2.31,4.58-4.49,6.48-7.15.32-.07.43-.37.85-.34,9.8-10.73,23.38-17.99,38.32-22.65.16-.18.63-.05.51-.51,2.6-.13,4.81-1.24,7.33-2.05,2.33-.74,4.98-1.37,8-1.53.5-.03,1.42-.05,1.53.34,2.57-.98,7.45-1.47,9.71-.69,5.68.17,11,1.1,16.35,1.19.31.04.39.3.34.68.61.27.11-.58.52-.51,4.58.91,10.51,1.29,14.82,3.58.3.02.36-.21.68-.18-.58.58.96.66.85.35ZM143.73,238.23c2.33,5.84,3.96,12.38,7.32,17.2.26,2.46,1.62,3.83,1.87,6.29,1.23,1.56,2.4,3.17,3.58,4.77,3.51,2.34,4.61,7.09,8.34,9.2,2.79,3.52,6.08,6.53,9.88,9.03,1.96,2.63,5.08,4.09,7.83,6.47,1.06.92,2.2,1.71,3.41,2.55,2.96,2.06,5.62,3.02,8,5.28,3.67,1.17,6.99,2.67,10.56,3.92,4.39.58,8.89,2.19,13.8,2.9,5.31.77,11.89.74,17.37.85,8.02.15,15.68-1.73,23-3.07,1.76-.32,2.96-.93,4.6-1.53,2.1-.76,4.22-1.19,6.3-2.04,1.95-.81,3.76-2.14,5.79-2.9,3.53-1.33,6.72-2.22,9.53-3.75,2.38-1.29,5.16-3.49,7.15-5.11.78-.63,1.26-1.58,2.05-2.21,3.35-2.72,6.81-5.79,9.71-9.37,3.63-4.47,7.08-8.51,10.22-12.43.23-1.1.46-1.56,1.19-2.38-.66-.54.82-1.76.68-2.9,2.96-4.62,4.73-10.39,6.13-16.01,1.17-4.68,1.95-9.62,3.24-14.13.28-.96.89-1.75,1.19-2.73.27-.89.18-2.03.34-3.06.68-4.46.91-8.5.85-13.46-.04-3.55-.32-7.3-1.36-10.39.48-.67-.52-2.05-.17-3.07-.25-.27-.57-.46-.68-.85-3.1-9.54-6.45-19.16-10.39-28.27.12-.46-.8.12-.68-.34.26-.94-.46-.91-.34-1.71-1.14-1.73-2.57-3.08-3.75-4.6-1.96-2.49-3.61-5.1-5.62-7.49-1.85-2.22-3.88-3.88-5.79-5.79-.99-.97-1.99-2.26-2.91-2.9-1.72-1.2-3.58-2.02-5.1-3.41-.62-.57-.98-1.49-1.71-2.04-1.2-.89-2.97-1.46-4.43-2.38-5.21-3.27-10.86-6.12-17.55-8.7-4.69-1.8-9.6-2.77-14.64-3.57-3.89-.61-8.73-.42-12.78-.85-3.42-.37-6.58-.98-9.71-.85-3.58.15-7.94.89-11.75,1.54-3.85.65-7.59,1.79-11.25,2.9-3.64,1.09-7.05,2.63-10.39,4.09-6.64,2.89-13.1,6.33-18.05,10.91-.93.21-1.06,1.21-2.22,1.19-2.72,2.56-5.34,5.23-8.34,7.5.06.62-.18.94-.34,1.36-.67.41-1.04,1.1-2.04,1.19-.29.51.05.87-.17,1.19-1.71,1.32-2.82,2.93-4.09,4.6-1.1,1.43-1.88,2.84-2.9,4.25-.24.34-.78.39-1.02.68-.34.44-.62,1.29-1.02,1.88-1.31,1.93-2.96,3.87-3.91,5.62-1.02,1.87-.95,4.19-2.57,5.79-.09.85,0,.83-.16,1.53-1.28,1.76-1.87,3.99-2.56,6.13-.7,2.16-1.71,4.37-2.22,6.64-.74,3.3-.65,6.7-1.19,10.05-.22,1.43-.92,2.96-1.19,4.43-.13.62-.03,1.28-.18,1.87-.14.58-.61,1-.68,1.53-.32,2.28.36,5.31.86,7.5,0,.48-.46-.41-.34.34.38.67,1.05,2.34.34,3.07-.71.27-.89-1.49-1.02-.69-.49,2.72.83,4.92.34,7.5.29.28.69.44.69,1.02.23,3.09.11,4.95.85,7.49.09.67.25-.67.34,0-.28.85.32,1.69-.17,2.72ZM318.82,169.59c.06-.68,0-1.25-.51-1.37.35.62.09,1.07.51,1.37ZM319,170.78c.57-.32.56.77.85.17-.38-.12-.05-.97-.68-.85.01.29-.03.52-.17.68ZM323.6,181c-.97-3.27-1.91-6.17-3.59-9.02.92,3.12,2.46,6.21,3.59,9.02Z"/>
    <path class="cls-3" d="M143.9,235.51c-.09-.67-.25.67-.34,0-.74-2.54-.62-4.41-.85-7.49,0-.58-.4-.74-.69-1.02.5-2.58-.83-4.78-.34-7.5.14-.8.31.95,1.02.69.7-.73.03-2.4-.34-3.07-.12-.75.34.13.34-.34-.5-2.19-1.18-5.22-.86-7.5.08-.53.54-.95.68-1.53.15-.59.05-1.25.18-1.87.27-1.47.96-3,1.19-4.43.54-3.34.45-6.74,1.19-10.05.52-2.27,1.53-4.48,2.22-6.64.68-2.14,1.27-4.37,2.56-6.13.17-.7.07-.68.16-1.53,1.62-1.6,1.55-3.93,2.57-5.79.95-1.75,2.6-3.69,3.91-5.62.4-.59.67-1.44,1.02-1.88.24-.3.78-.34,1.02-.68,1.02-1.42,1.8-2.82,2.9-4.25,1.26-1.66,2.38-3.28,4.09-4.6.22-.33-.12-.69.17-1.19,1-.09,1.37-.79,2.04-1.19.16-.42.4-.73.34-1.36,3.01-2.27,5.62-4.94,8.34-7.5,1.16.02,1.29-.98,2.22-1.19,4.95-4.58,11.41-8.02,18.05-10.91,3.34-1.45,6.75-2.99,10.39-4.09,3.66-1.1,7.4-2.24,11.25-2.9,3.81-.65,8.17-1.39,11.75-1.54,3.12-.12,6.28.48,9.71.85,4.05.43,8.89.24,12.78.85,5.04.8,9.95,1.77,14.64,3.57,6.69,2.57,12.34,5.43,17.55,8.7,1.47.92,3.23,1.49,4.43,2.38.73.55,1.08,1.47,1.71,2.04,1.51,1.4,3.37,2.21,5.1,3.41.92.64,1.92,1.92,2.91,2.9,1.91,1.92,3.94,3.57,5.79,5.79,2.01,2.4,3.66,5,5.62,7.49,1.19,1.51,2.61,2.87,3.75,4.6-.12.8.6.77.34,1.71-.12.46.8-.12.68.34,3.94,9.12,7.3,18.73,10.39,28.27.12.4.43.59.68.85-.35,1.02.65,2.39.17,3.07,1.04,3.08,1.32,6.84,1.36,10.39.06,4.96-.17,9-.85,13.46-.15,1.03-.06,2.17-.34,3.06-.3.98-.92,1.77-1.19,2.73-1.28,4.51-2.07,9.45-3.24,14.13-1.41,5.63-3.17,11.4-6.13,16.01.14,1.14-1.34,2.36-.68,2.9-.73.82-.97,1.28-1.19,2.38-3.15,3.92-6.6,7.96-10.22,12.43-2.9,3.58-6.35,6.65-9.71,9.37-.78.63-1.26,1.58-2.05,2.21-1.99,1.62-4.77,3.82-7.15,5.11-2.81,1.53-6.01,2.42-9.53,3.75-2.04.76-3.85,2.09-5.79,2.9-2.08.85-4.21,1.27-6.3,2.04-1.64.6-2.84,1.22-4.6,1.53-7.32,1.34-14.98,3.22-23,3.07-5.47-.11-12.06-.08-17.37-.85-4.92-.71-9.41-2.32-13.8-2.9-3.57-1.25-6.89-2.75-10.56-3.92-2.39-2.26-5.05-3.21-8-5.28-1.21-.85-2.35-1.64-3.41-2.55-2.75-2.38-5.87-3.85-7.83-6.47-3.8-2.5-7.09-5.52-9.88-9.03-3.74-2.11-4.83-6.86-8.34-9.2-1.18-1.6-2.35-3.21-3.58-4.77-.25-2.47-1.61-3.83-1.87-6.29-3.36-4.82-4.99-11.36-7.32-17.2.49-1.04-.11-1.88.17-2.72ZM143.05,222.9c.64-.46-.22-1.78-.52-2.39-.33.93.46,1.38.52,2.39Z"/>
    <path class="cls-5" d="M261.76,142.6c.24.04.3.24.27.55.61-.12,1.49-.03,1.65.69.43.15.31.02.82,0,1.23,1.28,2.84,1.31,4.12,2.47.12-.06.24-.12.27-.28.35.02.22.52.42.7,1.19-.19,2.09.5,2.74,1.5.59.07.18-.37.41-.41,1.53,1.08,2.9,2.32,5.07,2.75.69,1.32,3.02,1.01,3.43,2.6.25.26.4-.16.69.14-.07.6.42.29.13.82.91.21,1.8,1.69,2.88,1.78.23.27,0,.17,0,.55,1.21.13,2.5.79,2.6,2.32,1.63.61,2.34,1.46,3.57,3.3.64-.57,1.61.59,1.65,1.5,1.79.72,1.79,3.23,3.7,3.84-.09.14-.32.15-.28.41.14.38.37-.2.55.14,0,.14-.17.11-.27.14.57.56,1.25,1.03,1.09,2.33.16.04.47-.4.14-.41,1.28.4,1.66,3.47,3.56,3.29,2.65,5.3,5.36,10.48,6.59,16.86-.5-.15-.3-.98-.56-1.36-.23,1.27.38,2.83.96,4.11.43.95.82,2.15,1.65,2.6-.32,2.11,1.19,3.52.82,5.49,1.24,2.23,1.04,5.5.96,7.95.12.57.52.86.55,1.52.14.5-.35.39-.28.82.44.4.18.95.96,1.5.21-.37.29-.88.54-1.23.08,1.07.15,2.18,0,3.15.92.73.34,2.42-.13,3.3.62.94-.01,2.79.41,3.29-.93.75-1.19,3.54-.82,4.66-1.17.58-.5,2.99-1.65,3.57-.09.43.14.51.14.83-2.03,5.47-4.23,11.91-7.13,17.28-1.36,3.54-3.45,6.33-4.8,9.88-1.7.58-4.49,5.72-6.04,6.57-.12.04-.36.61-.14.55-.03.32-.36.32-.54.13.09.43.09.27,0,.69-.16-.02-.12-.25-.14-.41-.3.06,0,.72-.27.82-.25-.02-.1-.45-.41-.41-.37.12.19.43,0,.82-.3-.3-.3.04-.27.41-.21.16-.35.16-.55,0-3.8,4.51-8.45,8.19-13.02,11.93-2.07.77-3.55,2.11-5.49,3.03-.9-.05-1.31.41-1.65.95-.47-.02-.64.27-.95.41-.55-.1-.56-.1-1.1,0-.36.03.18.24,0,.55-.55-.05-1.01,0-1.1.42-.16-.03-.12-.25-.13-.42-.67.27-1.77.16-1.92,1.24-.43-.45-1.31-.15-1.23.68-.67.06-1.55-.08-1.65.69-.67-.17-1.8.17-2.05.41-.24.27-1.99.31-1.23.68-.21.45-.34-.29-.69-.13-.21.06.06.17,0,.41-.44.12-.18-.46-.55-.41-.31.02-.3.34-.28.69-.15-.04-.09-.27-.27-.27-.34.37-.49.37-.69.27.03.02-1.02.58-1.23.68-.3.14-1.17.4-1.37.41-.08,0-.31-.27-.27-.28-.4.11-1.15.75-1.93.82-4.06.41-9.47,2.05-14.12,1.79-.43.06-.37-.37-.69-.42-.44.31-1.1.27-1.64,0-.21.25-.51.42-.83.55-.24-.03-.3-.24-.27-.55-.49.34-.95.55-1.09,0-.62.25-1.51.23-2.2.42v-.42c-.37-.09-.26.29-.41.42-1.32-.73-3.08-.27-4.11,0-.24-.27-.59-.42-.68-.82.19.46-.85.51-.55.13-.64.59-1.69.14-2.33-.26-.29-.03-.44.1-.41.4-4.46-.09-6.23-1.04-10.15-1.92-.37.12.25.47-.14.68-6.11-2.35-10.66-4.71-15.9-7.68-.34-.05-.3.25-.69.13-1.19-2.38-4.34-2.8-5.62-5.07-3.58-1.92-5.58-4.89-8.78-6.85-.89-1.94-3.21-2.46-3.97-4.52-3.82-2.45-5.75-6.78-8.91-9.87v-.69c-1.81-1.19-1.55-4.77-3.98-5.76-.17-.39-.16-.83.14-1.1-.14-.24-.58-.15-.82-.28.12-.25.55-.17.41-.68-3.03-3.57-3.43-9.24-4.66-14.54-.27-1.15-1.08-2.53-.55-3.84-.04-.48-.37.01-.41-.27-.16-2.48-.27-4.69-.95-6.87.23-3.64.16-6.44.82-10.42.46-2.76,1.26-5.05,1.65-8.23.5-4.13,1.13-8.34,2.47-11.93.31.08.19-.26.42-.27,1.44-5.37,4.22-9.39,6.04-14.4,1.32-1.56,2.24-3.51,3.42-5.22.28-.08.28-.41.55-.14.55-2.06,2.62-2.59,3.15-4.66,1.8-1.86,3.69-3.63,5.21-5.75.27-.06.35-.3.68-.28,7.89-8.64,18.83-14.48,30.86-18.24.12-.15.5-.04.41-.41,2.1-.1,3.87-1,5.9-1.64,1.87-.61,4.01-1.11,6.45-1.24.4-.03,1.14-.04,1.23.28,2.07-.79,5.99-1.19,7.81-.55,4.58.13,8.86.88,13.17.96.24.03.32.24.27.55.5.2.09-.47.41-.42,3.68.73,8.47,1.04,11.94,2.88.24.01.29-.17.55-.14-.47.47.77.53.69.28ZM161.65,233.66c1.88,4.71,3.19,9.97,5.9,13.85.2,1.99,1.3,3.09,1.51,5.08.98,1.25,1.93,2.55,2.87,3.84,2.83,1.88,3.71,5.71,6.73,7.4,2.25,2.83,4.89,5.26,7.95,7.27,1.59,2.12,4.09,3.31,6.31,5.21.85.74,1.77,1.38,2.75,2.07,2.37,1.66,4.52,2.42,6.44,4.25,2.95.93,5.62,2.14,8.5,3.15,3.54.46,7.16,1.76,11.11,2.32,4.28.62,9.59.61,13.99.69,6.45.12,12.62-1.4,18.52-2.47,1.42-.27,2.38-.76,3.7-1.24,1.68-.62,3.4-.95,5.07-1.65,1.57-.64,3.03-1.71,4.66-2.33,2.84-1.07,5.41-1.79,7.68-3.02,1.91-1.04,4.15-2.82,5.75-4.11.63-.51,1.02-1.27,1.65-1.79,2.7-2.19,5.48-4.65,7.82-7.54,2.92-3.6,5.7-6.85,8.23-10.01.18-.89.37-1.26.96-1.92-.53-.43.66-1.41.55-2.33,2.38-3.72,3.8-8.37,4.93-12.89.95-3.77,1.57-7.75,2.61-11.39.22-.77.72-1.4.96-2.19.22-.71.15-1.63.28-2.47.54-3.58.73-6.84.68-10.84-.03-2.86-.26-5.88-1.1-8.36.4-.54-.42-1.65-.13-2.47-.19-.21-.46-.37-.55-.68-2.49-7.68-5.19-15.43-8.37-22.76.1-.37-.64.09-.55-.28.21-.76-.37-.73-.27-1.37-.92-1.4-2.06-2.48-3.02-3.7-1.58-2.01-2.91-4.1-4.52-6.03-1.48-1.78-3.12-3.12-4.66-4.66-.8-.78-1.6-1.82-2.34-2.33-1.39-.97-2.89-1.62-4.11-2.74-.5-.46-.79-1.2-1.37-1.65-.96-.72-2.39-1.18-3.57-1.92-4.19-2.63-8.74-4.93-14.12-7-3.79-1.45-7.73-2.23-11.8-2.87-3.12-.5-7.03-.33-10.28-.69-2.76-.29-5.3-.78-7.82-.67-2.88.11-6.39.7-9.47,1.23-3.09.54-6.1,1.45-9.04,2.33-2.94.89-5.68,2.13-8.37,3.3-5.35,2.32-10.54,5.1-14.54,8.77-.75.17-.85.98-1.78.96-2.2,2.05-4.3,4.2-6.72,6.03.05.5-.15.76-.28,1.1-.54.32-.85.89-1.65.95-.23.42.05.7-.14.97-1.38,1.07-2.26,2.36-3.29,3.7-.88,1.16-1.51,2.28-2.33,3.44-.2.27-.62.3-.82.54-.28.36-.51,1.04-.83,1.51-1.04,1.56-2.38,3.12-3.15,4.52-.83,1.51-.77,3.37-2.06,4.67-.07.68,0,.67-.14,1.23-1.03,1.42-1.5,3.21-2.05,4.94-.56,1.74-1.38,3.52-1.78,5.34-.6,2.67-.53,5.4-.96,8.1-.18,1.15-.73,2.38-.96,3.56-.09.5-.01,1.03-.13,1.5-.12.47-.49.8-.55,1.24-.26,1.83.29,4.27.68,6.03,0,.39-.37-.33-.27.28.3.53.85,1.88.27,2.47-.56.21-.7-1.19-.82-.55-.39,2.18.67,3.95.28,6.03.23.23.55.36.55.82.19,2.49.09,3.98.69,6.03.06.54.2-.55.27,0-.24.69.26,1.36-.13,2.2ZM302.63,178.39c.04-.55,0-1.01-.41-1.1.28.5.07.86.41,1.1ZM302.77,179.36c.46-.26.44.61.68.14-.31-.1-.04-.79-.55-.69.01.24-.03.43-.13.55ZM306.46,187.58c-.77-2.63-1.54-4.97-2.87-7.27.73,2.52,1.97,5.01,2.87,7.27Z"/>
    <path class="cls-6" d="M161.78,231.47c-.07-.55-.21.54-.27,0-.6-2.05-.5-3.55-.69-6.03,0-.46-.32-.59-.55-.82.4-2.08-.67-3.85-.28-6.03.12-.65.26.76.82.55.58-.58.03-1.93-.27-2.47-.1-.61.27.11.27-.28-.4-1.76-.95-4.2-.68-6.03.06-.43.43-.76.55-1.24.12-.47.04-1,.13-1.5.24-1.19.78-2.42.96-3.56.43-2.7.36-5.43.96-8.1.4-1.82,1.22-3.61,1.78-5.34.55-1.73,1.02-3.52,2.05-4.94.14-.56.06-.55.14-1.23,1.29-1.29,1.23-3.16,2.06-4.67.76-1.4,2.11-2.96,3.15-4.52.32-.47.55-1.15.83-1.51.2-.24.63-.27.82-.54.82-1.16,1.45-2.28,2.33-3.44,1.03-1.34,1.92-2.63,3.29-3.7.18-.27-.09-.55.14-.97.8-.07,1.1-.63,1.65-.95.13-.34.33-.6.28-1.1,2.42-1.83,4.52-3.98,6.72-6.03.93.01,1.03-.79,1.78-.96,3.99-3.68,9.19-6.45,14.54-8.77,2.69-1.17,5.43-2.41,8.37-3.3,2.94-.88,5.95-1.79,9.04-2.33,3.07-.52,6.59-1.12,9.47-1.23,2.53-.11,5.07.38,7.82.67,3.25.36,7.16.19,10.28.69,4.06.65,8.01,1.43,11.8,2.87,5.38,2.07,9.93,4.38,14.12,7,1.18.73,2.61,1.19,3.57,1.92.58.44.87,1.19,1.37,1.65,1.22,1.12,2.72,1.77,4.11,2.74.74.52,1.54,1.55,2.34,2.33,1.54,1.54,3.18,2.88,4.66,4.66,1.62,1.93,2.94,4.03,4.52,6.03.95,1.22,2.09,2.31,3.02,3.7-.1.64.48.61.27,1.37-.1.37.64-.09.55.28,3.18,7.33,5.87,15.08,8.37,22.76.09.32.36.47.55.68-.28.82.53,1.93.13,2.47.85,2.48,1.07,5.5,1.1,8.36.04,4-.14,7.25-.68,10.84-.13.83-.06,1.75-.28,2.47-.24.79-.74,1.42-.96,2.19-1.04,3.64-1.66,7.62-2.61,11.39-1.13,4.52-2.55,9.17-4.93,12.89.11.92-1.08,1.9-.55,2.33-.58.66-.77,1.03-.96,1.92-2.53,3.16-5.31,6.41-8.23,10.01-2.34,2.89-5.12,5.35-7.82,7.54-.63.52-1.02,1.28-1.65,1.79-1.6,1.29-3.84,3.08-5.75,4.11-2.27,1.23-4.84,1.95-7.68,3.02-1.64.61-3.09,1.69-4.66,2.33-1.67.7-3.39,1.03-5.07,1.65-1.32.48-2.28.97-3.7,1.24-5.9,1.07-12.07,2.59-18.52,2.47-4.41-.09-9.71-.07-13.99-.69-3.95-.57-7.57-1.87-11.11-2.32-2.87-1.02-5.55-2.23-8.5-3.15-1.92-1.83-4.07-2.59-6.44-4.25-.98-.68-1.9-1.32-2.75-2.07-2.22-1.9-4.72-3.09-6.31-5.21-3.06-2.01-5.7-4.43-7.95-7.27-3.02-1.69-3.9-5.52-6.73-7.4-.95-1.29-1.89-2.58-2.87-3.84-.21-1.99-1.31-3.09-1.51-5.08-2.71-3.88-4.02-9.14-5.9-13.85.4-.84-.1-1.5.13-2.2ZM161.1,221.32c.52-.37-.18-1.44-.41-1.92-.26.76.37,1.11.41,1.92Z"/>
    <g>
      <path class="cls-1" d="M203.6,204.29c.53.32,1.12.56,1.49,1.04-.73-.12-1.28-.42-1.49-1.04Z"/>
      <path class="cls-1" d="M202.61,204.69c.35.06.26.62.08.8-.25-.21-.1-.45-.08-.8Z"/>
      <path class="cls-1" d="M203.19,205.32c.17.08.25.24.25.49-.41.07-.34-.26-.25-.49Z"/>
      <path class="cls-1" d="M261.09,222.9c.18.18.43.27.41.64-.21-.13-.47-.23-.41-.64Z"/>
      <path class="cls-1" d="M230.4,245.19c.65.7,1.74.98,2.31,1.76,1.04.26,2.13.82,2.98,1.36.91.58,1.6,1.4,2.48,2.47,1.05,1.26,2.78,1.97,4.06,3.2.23.22.35.57.58.79.99.94,2.04,1.62,2.9,2.64.85,1.01,1.83,1.83,2.65,2.8-1.64.59-4.41-.08-6.29.48-1.39-1.53-1.88-3.93-2.66-6.07-.97-1.08-2.56-1.57-4.04-2.16.08-2.4-2.76-1.97-2.82-4.23-.84-.89-1.72-1.74-2.14-3.04Z"/>
      <path class="cls-1" d="M251.91,256.94c-.43-.09-.76-.27-1.08-.48.23-.29.85.26,1.08.48Z"/>
      <path class="cls-5" d="M293.35,182.71c.08.22.21-.12.33.08-.19.03-.19.39,0,.16.31,2.22,1.43,4.3,2.4,6.15.02.68.14.78.49,1.12-.03.12-.26.06-.16.32.06.27.2.4.33.4,1.17,3.03,1.43,6.93,2.65,9.9-.02.31,0,.59.08.8.63,1.37,1.82,3.41,2.48,5.28.63,1.76,1.55,3.06,1.65,5.03.06,1.1.36,2.18.5,3.2.19,1.37-.04,3.48-2.24,2.55-.4-.8-1.26-1.44-2.06-1.59-.62.28-.62,1.1-.83,1.59.16,1.98-.24,4.35-.33,6.47-.45.27-.22.79-.34,1.2-.18.69-.71,1.32-.82,1.99-.02.14.07.17.08.09-.38,1.17-.48,3.32-1.65,4-1.31,3.94-3.74,6.83-5.29,10.55-.65.77-1.35,1.52-1.73,2.55-.94.74-1.37,1.98-2.49,2.55-.04.22-.12.42-.16.64-.76.71-1.04,2.29-1.91,2.63-.45,1.31-1.51,2.69-2.81,3.43-1.43,2.25-3.39,3.98-5.47,5.6-1.04.21-1.65,1.1-2.4,1.52-.42.24-.94.12-1.08.64-1.81.44-3.11,2.05-4.95,2.72-.28.43-.76.65-1.16.95-.1-.03-.17-.09-.16-.23-.43.82-1.47.64-1.91,1.35-.7.02-1.12.3-1.32.8-.39-.2-.46.28-.99.15.55.3-.55-.07-.42.56-.17-.19-.39.13-.58-.09-.18.07-.24.25-.33.4-1.09-.02-1.49.91-2.4.8-.12.09-.12.3-.25.4-1.03-.43-1.72.84-2.81.4-.32.45-1.16.84-1.98.55-1.57.92-3.76.03-5.29,0-.88-.02-1.72.36-2.4.08-2.99.7-5.55,2.3-7.94,2.72-.22.02-.36-.03-.33-.24-.11.08-.1.27-.25.32-.34-.2-.65.18-1.08.24-.67.1-1.47-.12-2.15-.08-.43.03-.72.36-.99.08-.21.3-.51.3-.83.32v-.32c-1.13.58-2.1.15-3.23.15-1.15-.61-3.43-1.04-4.63-2.39-.58.06-1.38-.51-1.82-1.04-.17.3-.15-.04-.5,0-.09-.5-.53-.21-.57-.79-.65-.02-.66-.64-1.25-.72-.29-.62-1.06-.78-1.23-1.52-.61-.05-.37-.69-.92-.56-1.65-2.03-2.7-4.31-3.3-6.72.07-.06.18-.09.33-.08.21-1.79,1.8-1.35,3.48-.95,1,.7,2.02,1.93,3.14,2.79.32.23.74.42,1.01.64.26.23.3.55.82.64.54.11,1.03-.3,1.57,0,.15,0,.06-.27.16-.31,1.18.09,2.31-.67,3.73-.8.14,0,.15.06.17.16,1.17-.81,2.74-.67,3.88-1.35.17-.04.15.12.16.24.46-.4.95-.64,1.82-.96-.07-.33-.29-.52-.33-.88-.15-.08-.13-.29-.41-.24-.02-.25-.18-.36-.25-.56-1.36-1.51-2.48-3.26-3.72-4.88.01-.61-.44-.66-.33-1.19-.4-.25-.53-.76-.67-1.29-.94-.97-1.86-2.32-2.31-3.51-.19-.21-.36-.45-.66-.56-.24-1.06-1.28-1.47-2.24-2.07-.28-.19-.43-.5-.65-.64-.5-.33-1.05-.8-1.66-1.6-.25-.34-.61-.54-.58-.89.02-.33,1.57-1.81,1.98-1.43-.02-.29.34.08.16-.32.87.16,1.74.03,2.73.4.13-.03-.07-.14.09-.15.97.54,1.41-.21,2.14.56,1.51-.15,2.95.82,4.31,1.51,1.31.68,2.74,1.21,3.72,1.84.37.6,1.19.77,1.65,1.28.27-.03.35.15.67.08,2.17,1.53,3.62,3.74,5.78,5.27,1.34,1.36,3.24,2.26,4.88,3.43.81.58,1.4,1.28,2.65,1.44.51.43,1.14.75,1.82,1.12,1.19.64,1.89,1.17,3.39.55.27-.11.57-.3.91-.48,1.07-.55,2.43-.95,3.06-1.92.37.09.48-.3.75-.56.92-.9,2.32-2.1,3.39-2.87,1.02-1.53,2.42-2.67,3.72-3.92.42-1.12,1.67-1.43,2.07-2.56.48-.13.69-.91,1.08-.88-.06-.59.51-1.25,1.07-1.52,1.13-1.67,1.95-3.6,2.98-5.35-.08-.65.4-.73.33-1.36.17-.16.28-.38.42-.56,1.13-2.65,2.29-5.5,2.56-8.88.02-.18-.02-.43,0-.64.59-3.97-.97-7.39-2.07-10.62-.1-.06-.21-.05-.33-.24-.02-1.41-.74-2.17-1.07-3.27-1.65-2.92-3.31-5.63-5.21-8.15-.7.61-1.07,1.74-1.41,2.8-.3.96-.92,1.76-1.07,2.96-.08.58.04,1.25-.09,1.84-.1.5-.42.94-.49,1.44-.13.99.1,2,.16,3.12.09,1.53-.44,3.21.58,4.16.07,2.59,1.05,4.35.75,7.27-.36.02-.32.43-.66.48.06.07.09.18.08.32-.65.49-1.09,1.19-1.49,1.92-.16.13-.1,0-.33,0-.03.3-.08.42-.25.72-.24,0-.55.07-.49.31-.18-.14-.61.29-.91.17-.99.89-1.57,1.26-3.39,1.19-.34-.08-.39-.43-.82-.4-1.21-2.13-1.83-4.49-2.9-6.63-.19-.11-.25-.34-.5-.41-.51-1.2-1.07-2.42-1.57-3.67-.6-1.5-1.31-3.02-2.23-4.24-.31-1.59-1.28-2.54-1.82-3.91-.08-4.87,1.37-9.92.91-14.62.32-.34.09-1.43.17-1.76.1-.2.24-.36.33-.56-.09-.29-.39-.43-.16-.8-.49-.13-1.86-.33-2.65-.23-.38.04-.92.41-.91.08-.52.33-1.07.23-2.15.4-1.8.85-3.94.72-5.46,1.68-1.82.27-2.74,1.41-4.63,1.6-.8.45-1.92.55-2.57,1.2-.24.06-.21-.12-.41-.08-1.61.65-3.3,1.23-4.63,2.15-1.36.58-2.73,1.15-3.97,1.84-1.56.37-1.99,1.36-3.39,1.59-1.51.04-3.66.34-4.96,1.04-2.32.3-6.43,1.56-9.1,2.07-1.3.25-2.43.12-3.81-.24-.56-.4-.85-.27-1.56-.48-.34-.39-.89-1.75-1.33-2.87-.49-1.24-.85-1.46-.16-2.8.16-.32.48-.57.66-.89.47-.76.65-1.2,1.33-1.83.78-.73,1.3-2.01,1.9-2.63.18-.2.51-.29.66-.48.37-.47.4-1.13.66-1.52.12-.18.4-.18.5-.31.29-.43.34-1.13.66-1.6.77-.07.94-2.15,1.74-1.92.93-1.31,2.43-2.07,3.97-2.79.35-.45,1.14-.86,1.56-.96,1.37-2.08,3.44-4.06,5.29-5.92.98-1.69,2.25-3.1,2.99-5.02.44-.38.89-.73,1.07-1.36.15-.09.4-.1.58-.16.09-.24.17-.47.33-.64,1.64-.71,2.72-1.95,4.64-2.4.11-.13.22-.26.33-.4.28.06.31-.12.58-.08.87-.61,1.9-1.09,2.89-1.76,1.13-.75,1.95-1.09,3.31-1.68,1.05-.44,2.36-1.4,3.3-1.83,1.3-.6,2.78-.6,4.06-1.44,2.08-.93,4.39-1.63,6.45-2.56,1.99-.49,4.2-1.37,6.21-1.36.49,0,1.1.15,1.32.64.88.02,1.64.52,2.56.64,1.14.15,2.41-.27,3.39-.08.89-.56,2.19-.21,3.31-.32,2.5-.25,4.3.23,6.12.96,1.63.65,3.79,1.03,5.45,1.84.74.86,1.66,1.54,2.73,2.07.64.83,1.14,1.65,2.15,2.24,1.04,1.59,2.55,2.9,3.55,4.55,1.81,2.99,3.68,5.99,5.63,8.86-.02.31,0,.6.08.8ZM252.82,269.16c2.78-.02,4.39-1.39,6.7-2.15,1.63-1.04,3.62-1.47,5.38-2.32,1.13-.53,1.99-1.44,3.15-1.83,1.25-.95,2.46-1.93,4.13-2.47,1.67-1.35,3.42-2.7,5.06-3.99.56-.45,1.28-.86,1.72-1.36.21-.22.25-.58.42-.8.39-.49.89-.86,1.24-1.36.97-1.32,1.63-2.71,2.81-3.76.84-1.56,1.82-2.98,3.06-4.15,1.38-2.85,3.67-4.82,4.96-7.76.16,0,.18.09.34.08-.03-.45.33-.82.58-1.2.25-.39.34-.83.58-1.19.08-.12.28-.12.34-.24.24-.53.58-1.59.58-1.6.4-.87.66-1.71,1-2.72-.13,0-.3.01-.25-.16.33-.08.64-.67.58-1.04.1,0,.12.1.25.08.12-.28-.28-.05-.25-.24.7-.51.41-1.49.99-1.92-.09-.29-.27-.49-.25-.88-.01-.28.28-.27.33-.49-.25,0-.21-.28-.25-.48.26-1.03.21-2.17.34-3.35.52-.84,1.02-2.11,1.07-3.91.03-.16.16-.21.25-.33-.24-.79.35-1.87.91-2.47.71-.78,1.13-.51,2.07.08.88.55,1.41,1.02,2.15,1.44.28-1.04-.13-1.81-.25-2.56-.28-1.71-.5-3.32-1.08-4.88-.5-1.36-1.01-2.38-1.4-3.6-.25-.08-.35-.3-.5-.48-1.17-2.47-2.21-5.05-2.72-8.15-.76-1.5-.97-3.51-1.57-4.96,0-.19.14-.23.08-.48-1.14-2.35-1.56-5.4-3.55-6.95-.07-.09-.11-.21-.09-.4-.27-.03-.33-.26-.5-.4-.37-1.36-.72-2.38-1.16-3.76-.67-.76-1.27-1.6-1.65-2.63-.79-.64-1.1-1.69-1.74-2.4-.12-.13-.37-.12-.5-.24-.36-.32-.64-.91-.99-1.36-.4-.49-.93-.86-1.16-1.28-.28-.48-.24-.53-.58-.87-.38-.4-.71-.68-.99-1.05-1.18-.69-2.45-1.29-3.22-2.39-.93-.53-1.63-1.3-2.32-2.08-.65-.24-1.13-.6-1.49-1.11-1.77-.76-3.38-2.02-5.47-2.08-1.78-.06-3.63-.12-5.21.23-2.07.47-4.07-.11-6.2-.23-.67-.55-1.84-.45-2.81-.56-.77-.09-1.26-.16-2.15.08-1.64.44-3.06,1.52-4.72,2.23-.46.2-.96.27-1.4.48-.43.21-.8.51-1.24.72-1.84.91-3.51,1.25-5.21,2.15-.79.42-1.71.61-2.48,1.04-.26.15-.48.42-.75.56-1.99,1.04-4.55,1.45-6.29,2.56-.71.45-1.14,1.15-1.73,1.67-.95.82-2,1.4-2.65,2.32-.27.15.21.34,0,.4-.15-.08-.42.25-.75.24-.29.54-1.02.64-1.24,1.44.02-.3-.07-.03-.24-.07-.64.89-1.6,1.49-1.9,2.71-1.7,2.05-3.53,3.51-5.13,5.59-.95.4-1.24,1.41-2.15,1.84-1.46,1.47-3.17,2.7-4.71,3.99-1.6,1.34-2.59,3.07-3.8,4.63.05.32-.08.46-.08.72-.22-.01-.26-.15-.42,0-.94,1.92-2.45,3.99-2.07,6.47.7.49,1.53.82,2.07,1.44,3.7.85,7-.09,10.34-.56,1.32-.19,2.39-.31,3.39-.8,1.4-.68,2.93-1.54,4.55-2,.15-.05,0-.38.16-.39,3.55-.67,6.96-2.38,9.93-3.61.05-.31-.22-.32-.17-.64,1.74-1.33,4.65-1.59,6.78-2.16,3.14-2,9.05-2.13,13.31-1.04.22.21.59.46.75.48.31.56.68,1.04,1.16,1.44.1.72.55,1.37.74,2.08.03.12-.12.25-.09.4.03.09.24.17.25.25,0,.09-.17.22-.17.31.01.35.17.89.25,1.2.2.74.08,1.34.16,2.16.09.88.56,1.78.58,2.64.03,1.27-1.01,2.34-.58,3.76,1.54,1.18,2.36,3.05,3.32,4.8.76-1.71,1.49-3.46,1.9-5.52.49-.76,1.43-1.41,1.57-2.47.19-1.4-.78-2.91-.66-4.4.16-1.91.85-2.75,1.9-3.91.11.02.15.12.34.08.08-.23.09-.54.41-.56,1.88-.21,2.9,1.88,4.06,2.64.42.85,1.12,1.47,1.65,2.23.09.31.02.29.08.64,1.47,1.93,2.2,4.26,3.57,6.23.21.3.56.49.74.8.55.94.66,2.09,1.41,2.96.49,1.55,1.07,3.24,1.32,5.04.06.43-.01.85.08,1.28.15.68.58,1.31.67,1.99.19,1.49.6,2.54.49,3.91-.04.55-.26,1.03-.33,1.61-.19,1.53.02,3.16-.58,4.7.14.08.18.25.16.48-1.3,1.87-1.44,4.61-2.73,6.63-.19.3-.76.53-.66,1.04-.11-.01-.12-.1-.25-.09-.1.26.05.35-.09.65-1.31,2.05-2.96,4.41-4.55,6.47-.38-.18-.43.56-.91.56-.44.8-1.19,1.29-1.49,2.23-.36-.12-.56.51-.92.64-.26.47-.61.79-.99,1.11-.62.55-1.2,1.18-1.83,1.76-1.28,1.2-2.53,2.11-3.8,3.28-.89.82-1.99,1.76-2.89,2.39-.43.3-.79.31-1.33.56-.21.1-.19.27-.41.33-.45.09-.8-.1-1.24-.08-1.42.05-2.82,1.01-4.55.79-.12-.26-.31-.44-.25-.88-.89-.39-1.56-.99-1.99-1.83-1.4-.91-2.68-1.94-4.22-2.72-.12-.41-.55-.53-.83-.8-1.44-1.38-2.62-3-4.05-4.39-.59-.11-.87-.78-1.4-1.12-.59-.37-1.32-.65-1.99-1.04-.66-.39-1.28-.85-1.98-1.11-2.49-2.79-6.62-4.94-11.65-4.31.65,1.34,1.87,2.21,2.81,3.11,2.84,2.75,4.22,6.62,6.37,9.91.92.54,1.14,1.59,1.74,2.4.2.25.58.42.83.72.42.5.72,1.14,1.16,1.52.38.33,1.02.45,1.08,1.04-.89.98-2.73,1.04-3.64,2-.36-.02-.37.14-.83.16-.45.64-1.36.57-1.82.88-2.29-.26-4.52,1.43-6.54.96-1.35.42-1.9-.24-2.73-.88-.76-.6-1.21-1.07-1.81-1.6-.89-.79-1.53-1.85-3.06-1.92-.16.16-.36.29-.49.48,0,1.06.21,1.7.58,2.48.64,1.39,1.57,2.84,2.57,3.75.09.09.3.06.41.17.42.38.72,1.08,1.07,1.35.49.38,1.32.61,1.99.96,1.34.68,2.51,1.37,3.89,2,.7.31,1.3.87,1.91,1.04,1.65.45,3.17.23,4.8.16.68-.03,1.41.07,2.06,0,.52-.06.98-.32,1.49-.4,1.12-.17,2.25-.25,3.3-.64,1.83-.66,4.15-1.53,5.71-2.32.55.32,1.04-.1,1.9,0,.3-.17.93-.75,1.16-.48-.18-.02-.41.27-.58.48,1.64-.1,2.99,1.41,4.38.48ZM261.26,229.06c.47.41,1.25,1.24,2.47,1.19.6-.49,1.15-1.03,1.83-1.43.3-.67.81-1.13.91-2.01,2.21-1.71.92-6.02.09-8.15-.66-1.68-.71-3.36-.5-5.27.3-.26.43-1.05.25-1.52.13-.21.33-.37.41-.63-.47-.56.25-.93-.16-1.6.72-1.12.4-2.32,1.24-3.36-.18-.03-.03-.39-.08-.56.15-.4.57-1.16.33-1.43h.24c-.09-.31-.09-.48-.07-.72,0-.27.25-.63.25-.88,0-.83-.91-1.64-.67-2.56-.51-.27-.56-1.01-.91-1.43-.28.03-.21.43-.33.63-.64.78-1.22,1.31-1.32,2.24-.14,1.25.67,2.6.74,3.99.06.94-.35,1.76-.16,2.63-.76,1.19-1.18,2.69-2.15,3.67-.33,1.41.15,2.75-.74,3.68-.6.06-1.21.11-1.65.32-1.32-.81-1.19-2.82-2.06-4.07-.16-.23-.49-.43-.67-.64-.66-.79-1.28-1.32-1.81-2.16-.2-.51-.27-1.1-.34-1.52.51-1.32,1.08-3.45.25-4.72.37-.64-.05-1.22-.16-1.83-.25-1.32,0-3.11-1.08-3.76-.46.92-.26,2.05-.33,2.88-.11,1.4-.67,2.87-.66,4.31.01,1.5-.82,3.15-.82,4.87,0,1.82,1.16,3.67,1.73,5.36.05.13-.11.18-.08.31.05.22.34.41.41.64.09.28-.02.62.09.88.09.26.32.46.41.72.25.69.28,1.44.67,2.08,0-.08.03-.2.08-.08-.15.93.81,1.23.49,2.16.26.14.33-.3.42-.08.79,2.91,2.6,5.25,3.47,7.84Z"/>
      <path class="cls-3" d="M248.43,268.68c.17-.21.4-.5.58-.48-.23-.27-.85.31-1.16.48-.86-.1-1.36.32-1.9,0-1.56.79-3.88,1.66-5.71,2.32-1.06.39-2.19.47-3.3.64-.51.08-.96.34-1.49.4-.65.07-1.38-.03-2.06,0-1.62.07-3.15.29-4.8-.16-.61-.16-1.22-.72-1.91-1.04-1.38-.63-2.55-1.31-3.89-2-.66-.35-1.49-.58-1.99-.96-.35-.27-.65-.97-1.07-1.35-.11-.1-.32-.08-.41-.17-1-.91-1.92-2.36-2.57-3.75-.37-.78-.58-1.42-.58-2.48.13-.19.33-.32.49-.48,1.53.06,2.17,1.13,3.06,1.92.61.54,1.06,1.01,1.81,1.6.83.64,1.38,1.3,2.73.88,2.03.47,4.25-1.22,6.54-.96.46-.31,1.38-.24,1.82-.88.46-.03.46-.18.83-.16.91-.96,2.75-1.01,3.64-2-.06-.58-.7-.71-1.08-1.04-.43-.38-.74-1.02-1.16-1.52-.25-.3-.63-.46-.83-.72-.6-.8-.82-1.86-1.74-2.4-2.15-3.29-3.52-7.15-6.37-9.91-.93-.9-2.16-1.77-2.81-3.11,5.03-.63,9.16,1.52,11.65,4.31.7.26,1.32.73,1.98,1.11.67.39,1.4.67,1.99,1.04.54.34.82,1.01,1.4,1.12,1.44,1.39,2.62,3.01,4.05,4.39.28.27.71.39.83.8,1.54.78,2.82,1.81,4.22,2.72.43.84,1.1,1.44,1.99,1.83-.07.44.13.63.25.88,1.74.21,3.13-.74,4.55-.79.44-.02.79.17,1.24.08.22-.05.2-.22.41-.33.54-.25.9-.26,1.33-.56.89-.64,2-1.57,2.89-2.39,1.27-1.17,2.53-2.08,3.8-3.28.63-.58,1.2-1.21,1.83-1.76.37-.32.73-.64.99-1.11.36-.13.56-.77.92-.64.29-.94,1.05-1.44,1.49-2.23.48,0,.53-.73.91-.56,1.58-2.06,3.23-4.42,4.55-6.47.14-.3-.02-.39.09-.65.13-.02.14.07.25.09-.11-.51.46-.74.66-1.04,1.29-2.02,1.43-4.76,2.73-6.63.03-.23-.02-.4-.16-.48.6-1.54.39-3.18.58-4.7.07-.58.28-1.05.33-1.61.11-1.38-.3-2.43-.49-3.91-.09-.69-.52-1.31-.67-1.99-.09-.43-.02-.85-.08-1.28-.25-1.79-.83-3.48-1.32-5.04-.75-.86-.86-2.02-1.41-2.96-.18-.31-.54-.5-.74-.8-1.37-1.98-2.1-4.31-3.57-6.23-.06-.34.02-.32-.08-.64-.53-.77-1.22-1.38-1.65-2.23-1.16-.76-2.18-2.86-4.06-2.64-.32.02-.33.33-.41.56-.18.03-.22-.06-.34-.08-1.05,1.16-1.74,2-1.9,3.91-.12,1.49.85,3,.66,4.4-.14,1.06-1.08,1.71-1.57,2.47-.41,2.05-1.14,3.81-1.9,5.52-.95-1.75-1.77-3.62-3.32-4.8-.42-1.41.61-2.49.58-3.76-.03-.86-.49-1.76-.58-2.64-.08-.82.04-1.41-.16-2.16-.08-.31-.24-.85-.25-1.2,0-.09.18-.22.17-.31-.02-.08-.22-.15-.25-.25-.04-.15.12-.28.09-.4-.2-.7-.64-1.36-.74-2.08-.47-.4-.85-.89-1.16-1.44-.16-.02-.53-.27-.75-.48-4.26-1.09-10.17-.97-13.31,1.04-2.13.58-5.04.83-6.78,2.16-.06.32.22.32.17.64-2.97,1.23-6.38,2.94-9.93,3.61-.17,0-.01.34-.16.39-1.62.46-3.15,1.31-4.55,2-1,.49-2.08.61-3.39.8-3.35.47-6.64,1.41-10.34.56-.54-.62-1.37-.96-2.07-1.44-.39-2.47,1.13-4.55,2.07-6.47.16-.15.21-.01.42,0,0-.26.13-.4.08-.72,1.22-1.56,2.2-3.3,3.8-4.63,1.55-1.29,3.25-2.52,4.71-3.99.92-.43,1.21-1.44,2.15-1.84,1.59-2.09,3.42-3.55,5.13-5.59.3-1.22,1.26-1.83,1.9-2.71.18.05.27-.23.24.07.22-.79.95-.89,1.24-1.44.33,0,.6-.32.75-.24.21-.06-.27-.24,0-.4.65-.92,1.7-1.5,2.65-2.32.59-.52,1.02-1.23,1.73-1.67,1.74-1.11,4.31-1.52,6.29-2.56.27-.14.49-.41.75-.56.77-.43,1.69-.62,2.48-1.04,1.7-.91,3.36-1.24,5.21-2.15.44-.21.81-.51,1.24-.72.44-.21.95-.27,1.4-.48,1.65-.72,3.08-1.8,4.72-2.23.89-.25,1.38-.17,2.15-.08.97.11,2.14.01,2.81.56,2.14.13,4.14.7,6.2.23,1.58-.35,3.43-.29,5.21-.23,2.08.06,3.69,1.31,5.47,2.08.35.52.84.88,1.49,1.11.68.78,1.38,1.55,2.32,2.08.77,1.1,2.04,1.7,3.22,2.39.28.37.61.66.99,1.05.34.34.31.4.58.87.23.41.76.79,1.16,1.28.35.46.63,1.04.99,1.36.12.11.37.1.5.24.64.7.95,1.76,1.74,2.4.38,1.04.98,1.87,1.65,2.63.44,1.37.79,2.39,1.16,3.76.17.14.23.37.5.4-.03.18.01.3.09.4,1.98,1.55,2.41,4.6,3.55,6.95.06.24-.08.29-.08.48.61,1.45.81,3.45,1.57,4.96.52,3.09,1.56,5.68,2.72,8.15.15.18.24.4.5.48.39,1.22.91,2.24,1.4,3.6.58,1.56.8,3.17,1.08,4.88.12.75.52,1.52.25,2.56-.73-.42-1.27-.89-2.15-1.44-.94-.59-1.35-.86-2.07-.08-.56.6-1.14,1.68-.91,2.47-.09.11-.23.16-.25.33-.05,1.8-.55,3.07-1.07,3.91-.12,1.18-.08,2.32-.34,3.35.04.2,0,.49.25.48-.04.22-.34.2-.33.49-.03.39.16.59.25.88-.58.43-.29,1.41-.99,1.92-.03.19.37-.04.25.24-.13.02-.15-.07-.25-.08.06.36-.25.95-.58,1.04-.05.18.12.15.25.16-.34,1.01-.6,1.84-1,2.72,0,.01-.34,1.07-.58,1.6-.06.12-.26.12-.34.24-.23.37-.33.81-.58,1.19-.24.38-.61.75-.58,1.2-.15,0-.18-.09-.34-.08-1.3,2.93-3.59,4.9-4.96,7.76-1.24,1.16-2.23,2.59-3.06,4.15-1.18,1.05-1.84,2.44-2.81,3.76-.35.49-.85.87-1.24,1.36-.17.22-.21.58-.42.8-.44.5-1.16.91-1.72,1.36-1.64,1.29-3.39,2.64-5.06,3.99-1.68.54-2.89,1.52-4.13,2.47-1.16.39-2.02,1.3-3.15,1.83-1.75.85-3.74,1.28-5.38,2.32-2.31.76-3.91,2.14-6.7,2.15-1.39.93-2.75-.58-4.38-.48ZM248.77,259.41c-.09-.41-.42-.55-.74-.73.02-.18-.02-.3-.08-.39-.75-.58-1.38-1.32-2.07-2.08-.67-.74-1.49-1.23-2.24-1.92-.8-.73-1.44-1.7-2.32-2.32-.78-.53-1.63-.83-2.23-1.51-.52-.58-.7-1.33-1.24-1.83-.26-.24-.72-.38-1.08-.64-.33-.24-.6-.63-.91-.8-.41-.22-1.01-.34-1.49-.56-.64-.3-1.17-.72-1.83-.79-1.04-1.02-2.05-2.08-3.88-2.32-.36.56-.06.79-.34,1.35,1.74.5,1.7,2.73,3.23,3.44-.16,1.65,1.38,2.34,2.47,3.04-.02,2.58,3.12,2.09,4.39,3.43.58,2.39,1.46,4.43,2.57,6.47,2.59.25,5.13-.4,7.19-.16.47-.47,1.6-.32,1.82-1.04-.23-.38-.83-.42-1.23-.64Z"/>
      <path class="cls-1" d="M257.78,221.22c-.08-.21-.15.22-.42.08.31-.92-.65-1.22-.49-2.16-.05-.12-.09,0-.08.08-.38-.64-.42-1.39-.67-2.08-.09-.26-.32-.46-.41-.72-.1-.26,0-.59-.09-.88-.07-.23-.36-.42-.41-.64-.03-.14.13-.18.08-.31-.58-1.69-1.73-3.54-1.73-5.36,0-1.72.84-3.37.82-4.87,0-1.44.55-2.91.66-4.31.06-.83-.13-1.96.33-2.88,1.09.64.83,2.44,1.08,3.76.11.61.53,1.2.16,1.83.83,1.27.26,3.39-.25,4.72.07.42.14,1.01.34,1.52.54.83,1.16,1.37,1.81,2.16.18.21.51.41.67.64.88,1.25.74,3.27,2.06,4.07.45-.21,1.05-.26,1.65-.32.9-.93.42-2.26.74-3.68.97-.98,1.39-2.48,2.15-3.67-.18-.88.22-1.7.16-2.63-.08-1.39-.88-2.75-.74-3.99.1-.93.68-1.46,1.32-2.24.11-.21.04-.6.33-.63.35.43.4,1.16.91,1.43-.24.92.67,1.73.67,2.56,0,.25-.24.61-.25.88-.01.25-.02.41.07.72h-.24c.24.28-.18,1.03-.33,1.43.05.17-.1.52.08.56-.83,1.04-.52,2.24-1.24,3.36.41.67-.31,1.04.16,1.6-.08.26-.28.42-.41.63.18.47.05,1.26-.25,1.52-.21,1.91-.16,3.59.5,5.27.83,2.13,2.12,6.44-.09,8.15-.09.87-.61,1.34-.91,2.01-.67.4-1.22.95-1.83,1.43-1.22.05-2-.78-2.47-1.19-.87-2.58-2.69-4.92-3.47-7.84ZM256.79,213.87c.1.51.39,1.04.16,1.76.51.89.93,1.87,1.07,3.11,1.17,1.79,1.34,3.35,2.73,5.11,1.04,1.34.82,2.85,2.23,3.2.31-.59.98-1.32,1.07-2.08.09-.73-.53-1.22-.41-1.91-1-1.22-2.47-1.98-2.98-3.68-1.21-1.43-2.4-3.24-2.56-5.43-.4-.36-.87-.49-1.32-.08Z"/>
      <path class="cls-5" d="M258.11,213.95c.16,2.19,1.35,4,2.56,5.43.51,1.7,1.99,2.46,2.98,3.68-.12.69.5,1.19.41,1.91-.09.77-.76,1.49-1.07,2.08-1.42-.35-1.19-1.86-2.23-3.2-1.39-1.76-1.56-3.32-2.73-5.11-.14-1.24-.56-2.23-1.07-3.11.22-.72-.06-1.25-.16-1.76.45-.41.92-.28,1.32.08ZM261.5,223.54c.03-.37-.23-.46-.41-.64-.06.41.2.5.41.64Z"/>
      <path class="cls-5" d="M250,260.05c-.22.72-1.34.56-1.82,1.04-2.06-.23-4.6.41-7.19.16-1.11-2.04-1.99-4.08-2.57-6.47-1.27-1.34-4.4-.85-4.39-3.43-1.1-.7-2.64-1.39-2.47-3.04-1.53-.71-1.5-2.94-3.23-3.44.28-.56-.02-.8.34-1.35,1.83.24,2.84,1.29,3.88,2.32.65.08,1.19.49,1.83.79.47.22,1.07.34,1.49.56.31.17.58.56.91.8.36.26.82.4,1.08.64.54.5.73,1.26,1.24,1.83.6.69,1.46.98,2.23,1.51.87.62,1.51,1.6,2.32,2.32.75.68,1.56,1.17,2.24,1.92.68.76,1.32,1.51,2.07,2.08.06.09.1.2.08.39.32.17.66.32.74.73.4.22,1.01.26,1.23.64ZM232.55,248.23c.06,2.26,2.9,1.83,2.82,4.23,1.49.59,3.07,1.08,4.04,2.16.77,2.14,1.27,4.53,2.66,6.07,1.88-.56,4.65.11,6.29-.48-.82-.97-1.8-1.79-2.65-2.8-.86-1.01-1.91-1.7-2.9-2.64-.23-.22-.34-.57-.58-.79-1.28-1.23-3.01-1.94-4.06-3.2-.88-1.07-1.58-1.9-2.48-2.47-.85-.54-1.94-1.1-2.98-1.36-.58-.78-1.66-1.06-2.31-1.76.42,1.3,1.31,2.15,2.14,3.04Z"/>
    </g>
    <g>
      <path class="cls-5" d="M255.06,223.34c-.98.31-2.01-.31-2.93-.46-.38-.07-.79.04-1.08-.21-1.05.12-1.73-.37-2.37-.93-.24-.21-.58-.54-.67-.67-.12-.18-.09-.45-.21-.61-.32-.52-1.14-.56-1.28-1.18-1.15-.58-2-1.47-2.47-2.72-.04-.15.07-.13.06-.26-.59-.78-1.28-1.47-1.7-2.41.4-.07,1.25.39,1.7.66.59.38,1.12.83,1.79,1.13.4.17.82.31,1.13.56.24.67.88.95,1.24,1.5.7.02,1.14.3,1.64.51.11.7.85.76,1.03,1.39.32.07.35.44.67.52,0,.15.16.15.11.36.46.68,1.65.64,2.36,1.07.06.24.21.37.37.52.01.66.48.8.61,1.24ZM245.03,217.37c.09.12.36.06.47.15-.03.15-.18.16-.16.36.31.16.42.43.67.67.25.22.6.3.88.51.26.21.4.57.67.77.18.14.44.15.62.31.3.28.28.66.5.98.19.24,1,.96,1.24,1.08.7.34,1.59.18,2.37.36.6.13,1.18.51,1.96.51.04-.54-.21-1.01-.57-1.39-.47,0-.82-.41-1.49-.36-.52-.28-.76-.78-1.14-1.19-.18-.2-.42-.32-.56-.52-.23-.3-.42-.42-.67-.67-.46-.46-.7-.98-1.64-.87-.59-.5-1.14-1.02-1.54-1.7-1.1-.52-2.19-1.04-3.15-1.7.56.91,1.4,1.48,1.54,2.67Z"/>
      <path class="cls-5" d="M257.88,199.16c.12-.12.63-.11.73.21,1.59.12,3.68.3,5.65.15.99-.07,1.95-.38,2.93-.31.69.05,1.34.25,2.01.1-.06.23.12.23.26.26.18-.02-.12-.19.06-.21.16-.08.5.15.77.21.09.01.39-.14.51.1.14.26-.14.37-.3.57-.43.49-.5.66.09,1.03.53.33,1.22.76,1.95,1.08.88.38,1.49.65,2.32.98,1.98.33,3.15,1.92,4.37,3.19.77.73.86,1.75,1.5,2.42.7.73,2.01,1.14,2.57,2.05.25.4.51.87.77,1.29.68,1.08,1.06,2.16,1.44,3.54.03.05.09.08.15.1-.07.71.3,1.32.36,2.01.05.61,0,1.25.05,1.85.06.75-.15,1.09-.32,1.74-.04.21.02.41-.04.57-.04.11-.17.16-.21.26-.14.4-.03.79-.36.92-.04.15.06.13.05.26-.26.19-.85.53-1.03.1-.16-.04-.1.14-.25.09-.35-.68-.61-1.45-1.13-1.95,0-.13-.09-.15,0-.26-.25-.12-.45-.65-.61-1.02-.44-.58-.7-1.07-1.13-1.59-.35-.1-.67-.52-.93-.88-.68-.06-1-.67-1.59-.92-.15-.62.03-1.04-.15-1.54-1.35-.73-2.8-.13-3.86-.36-.38.35-.63.25-1.03.21-.1-.12-.28-.49-.06-.61-.21-.24-.28-.68-.04-.83-.1-.33-.68.09-.93-.09-.37.12-.97.25-1.28.25-.4.19-.98.31-1.4.21-1.63.5-2.97.13-4.58.56-.04-.03-.07-.09-.1-.15-.52.19-1.22.21-1.7.41-.05-.04-.08-.09-.1-.15-.14,0-.42.33-.46.1-.38.29-.9.14-1.19.11-.05.04-.1.1-.15.15-.42-.2-.88.11-1.23.15-.73.08-1.48,0-2.01.25-.63-.26-1.32.12-1.95-.15-.04.1-.31-.04-.26.15-.23-.13-.56-.21-.78-.1-.09-.24-.43-.26-.82-.15-.64-.21-1.27-.53-1.7-.36-.15-.2-.33-.06-.46-.26-.43.2-.58-.12-.92-.05-.12,0-.03-.18-.06-.25-.12,0-.03.21-.06.3-.08-.13-.08-.27-.46-.2-.22.09-.02.31-.25.41.21.66.26,1.49.71,2.06.16.94.91,1.29,1.39,1.9.43.12.81.47,1.03.63,1.78.39,2.84,2.02,3.65,3.49.31.56,1.2.97,1.13,1.69-.64.54-1.83-.06-2.62.36-.79-.36-1.56.06-2.37.05-.38,0-.72-.23-1.07-.3-.17-.04-.33.05-.51,0-.18-.06-.3-.24-.47-.31-.2-.08-.44-.07-.67-.15-.54-.18-1.04-.48-1.65-.67-.34.05-.71-.18-1.08-.26v-.21c-.67-.35-1.2-.86-1.69-1.39-.18.06-.4-.07-.47-.26-.18.03-.3-.31-.56-.36.03-.28-.44-.48-.46-.87-.2.08-.09-.03-.26-.05,0-.05.06-.04.1-.06-.67-.74-.84-1.99-1.8-2.46.06-.15.06-.27,0-.42-.05.03-.05.12-.15.11-.06-.06-.06-.19-.06-.32-.16-.06-.03.17-.2.11.09-.13-.13-.26-.16-.41-.03.18-.57-.13-.61-.52-.01-.13-.09.07-.21,0-.06-.46-.38-.46-.15-.97-.16-.04-.16.08-.21.15-.26-.37-.57-.67-.77-1.07-.61-.52-1.03-1.17-1.64-1.65-.09-.07-.27-.08-.36-.15-.23-.19-.37-.5-.62-.67-.59-.41-1.47-.66-1.96-1.19-.65-.17-1.01-.34-1.44-.71-1.05-.48-2.22-.83-2.98-1.59-.61-.26-1.05-.47-1.39-.92-.68-.13-.88-.74-1.6-.83,0-.21-.25-.18-.25-.41-.56-.11-.78-.55-1.28-.71-.03-.07-.08-.13-.11-.21-.56-.28-.79-.89-1.38-1.13-.04-.4-.59-.31-.57-.77-.12.17-.51-.11-.57-.31-.29.02-.74-.22-.87-.52-.26,0-.72-.2-.82-.52-.84-.32-1.1-.78-2.06-.98.1-.1,0-.13,0-.26-.1-.01-.16,0-.15.09-.09,0-.12-.08-.1-.2-.27,0-.67-.06-.87-.36-.8.15-1.25-.65-1.8-.72-.15-.43-.63-.5-.93-.77-.04-.14.08-.13.06-.25-.09-.17-.19,0-.31-.11.05-.28-.43-.42-.15-.61-.56-.63-.76-1.66-.98-2.53-.12-.46-.07-.91,0-1.33.09-.01.09.05.16.05-.02-.66.69-.8.77-1.23.13.09.11-.12.25.05.27-.58,1.12-1.19,1.8-.87.02-.12.2-.06.26-.15.81.28,1.57-.02,2,.15.06-.02.03-.1.11-.1,1.99.26,3.56.72,5.4,1.03.26.04.52.1.67.26.84-.04,1.63.37,2.31.67,2.17-.03,3.85,1.03,5.76,1.18.9.21,1.77.61,2.73.88.33.09.73.04,1.07.15.62.2.85.58,1.7.62.61.02,1.18.05,1.79.1.63.06,1.19-.06,1.81.11.11.03.06-.11.15-.11.17.11.3.05.47-.05.39.22,1.04.18,1.34,0,.06.01.05.1.06.16.17,0,.27-.07.36-.16.26.3.73-.01.98.16.07-.03-.02-.07,0-.16.19-.04.1.2.25.21.21-.16.36.05.57.05.39,0,.57-.14.88-.05.65.21,1.63.2,2.37.31.26.04.48.19.71.21.32.02.67.12.98.06.03.03.06.08.05.15.09,0,.03-.18.11-.21.29.16.26.11.46.26.08-.02-.04-.09.06-.1.21.12.24.06.46.05.2,0,.34.26.51.31.03,0,.43-.07.57-.05.58.09,1.02.31,1.81.41.04.04.05.12.05.21.17-.08.33-.04.46,0,.12.12-.07.09-.05.26.07-.06.22-.04.21-.2.03.14.49.12.3.3ZM252.74,219.94c-.22.06-.49-.25-.62-.46-.26.16-.32-.38-.31-.52,0,.25-.15.03-.25.15-.04-.33-.39-.38-.32-.57-.86-.3-.76-1.56-1.34-1.9,0-.6-.18-1.64-.3-2.37.24-.11.32-.39.46-.61.21-.06.26.06.32.15-.03-.15.1-.17.24-.15,0,.09,0,.15-.05.21.3-.07.43-.01.56-.26.19.02.1.17.16.21.07-.02.13-.03.26-.1.55.3.82.23,1.49.3.15.16.45.27.66.1-.07.3.5,0,.52.31.48-.19.64.24,1.18.15.15.3.83-.15,1.19.25.16-.03.07-.14.05-.25.28.21.26.06.67.04,0,.22.03.12.1.06.04.17.04.11-.05.2.25.09.19-.15.36-.15.06.13.47.13.52-.05.05.06.14.11.2.15,0-.08-.01-.19.05-.21.21.14.52.14.77.11.02-.09-.06-.11-.05-.21.15.05.15.24.31.27.14-.06.17-.21.3-.27.06.06.04.12,0,.21,1.18-.43,2.45-.29,3.55-.56,0,.06-.01.14.05.15.22-.3.71-.21.87-.1.03-.23.72-.07.98-.31.14-.02.04.2.21.15.16.04.1-.13.2-.15.52.19,1.07-.17,1.39.1.51-.12.64-.17,1.24-.1.18-.12.33-.18.57,0,.86-.25,1.4-.3,2.31-.41-.03-.26.34-.15.46-.06.06-.33.8-.27,1.03-.41,0,.07-.09.05-.11.09.29-.24.47.04.61-.14-.07-.12-.12.06-.15-.06.06-.22.34-.08.46-.15-.03-.17.52-.17.87-.31.27-.12.49-.38.67-.41.35-.07.73.05.97.21-.02.17-.06.34-.25.35.03.16.15.23.09.46-.27,0-.27.18-.46,0-.34.63-1.17.44-1.18,1.39.46.28,1.19-.08,1.74.05.06.02.18.16.26.16.03,0,.18-.15.21-.16.8-.17,1.62.14,2.52.21.2.25.41.37.51.67.12.34.02.82.1,1.18.21.87,1.68,1.06,1.91,1.91.14,0,.21.09.36.1.79.77,1.31,1.97,1.8,3.08.06.14.78,1.25.87,1.23.4-.07.22-1.56.26-1.9.02-.18.15-.3.21-.51.24-.9.28-1.94.1-2.88-.53-2.8-1.75-5.19-3.29-6.85-.31-.06-.49-.23-.61-.46-.69-.21-.89-.9-1.5-1.18-.1-.32-.33-.49-.3-.94-.27-.12-.3-.49-.57-.61-.53-.82-1.13-1.58-1.9-2.15-.68-1.07-2.03-1.13-2.98-1.75-.03.25-.09-.13-.21-.1-.42.02-1-.23-1.23-.57-.4.07-.67-.21-.83-.31-.14-.09-.39-.1-.56-.21-.1-.06-.13-.21-.21-.25-.21-.12-.48-.12-.67-.21-.08-.03-.08-.16-.15-.21-.21-.12-.46.02-.62-.05-.36-.16-.54-.72-.56-1.08.13-.04.28-.08.25-.3-.28-.28-.52-.14-.77-.15-.74-.04-1.67-.27-2.37-.15-.2.03-.22,0-.37,0-.44,0-.95.22-1.39.25-.34.03-.64-.05-.97-.04-.73.01-1.44.13-2.07.1-.28-.01-.56-.16-.82-.15-.19,0-.35.09-.52.09-.7.04-1.73-.31-2.51-.31-.16-.04-.24-.17-.41-.21-.9-.1-1.98-.75-2.99-.76-1.36-.52-3.32-.73-4.63-.98-.15-.03-.09.14-.25.11-.72-.34-1.56.12-2.31-.26-.3.12-.7.13-.82-.05-.15.16-.27.06-.37-.06,0,.06.01.15-.05.16-1.07-.16-2.04-.27-3.04.1-1.07-.07-1.83-.22-3.03-.3-1.83-.7-3.39-1.1-5.5-1.44-1.25-.58-2.52-.52-3.85-.98-1.2-.47-3.11-.89-4.53-1.13-.08-.04-.08-.16-.21-.15-.83-.06-1.62-.36-2.47-.37-.52-.31-1.1-.23-1.7-.36-.29-.07-.54-.28-.82-.31-.87-.08-1.76.39-2.72.25-.05.09-.12.16-.21.21-.06.05-.12-.17-.2-.15-.02,0-.56.46-.82.77-.39.46-.66,1.51-.16,1.9.04.17-.03.24-.04.36.27.65.62,1.49.92,1.96.68.56,1.61.89,2.42,1.34,0-.07.12-.05.21-.05,0,.07-.02.19.05.2.13-.12.73.15.82.42,1.1.3,2.11,1.14,3.04,1.8,1.71.52,2.38,2.08,3.8,2.88.53.63,1.4.9,2.01,1.44,0-.05.04-.06.1-.05.2.35.67.41.87.77,1.14.47,2.17,1.5,3.55,1.9-.07.17.16.04.1.21,3.68,1.35,6.34,3.74,8.34,6.78.18-.06.55.78.87,1.13.39.43.8.78,1.13,1.24.31.42.37.96.61,1.28.06.07.25.09.21.36.39.08.49.46.71.71.49.23.76.55,1.28.94,0-.01.06-.09.11-.06.14.1.23.31.47.47.43.27,1.12.36,1.23.87.02-.09.02-.21.1-.25.1.1-.02.1-.04.21.29,0,.49.08.61.25.46-.12,1.26.4,1.7.67.69.03,1.14.29,1.64.51.28-.01.52.03.62.21.61-.24,1.05-.05,1.59-.36.49.21,1.12,0,1.6-.15-.86-2.09-2.47-2.8-4.17-4.06ZM273.98,213.46c.27.03.6-.29.83-.46-.24.19-.76.1-.83.46Z"/>
      <path class="cls-7" d="M256.92,224.01c-.48.16-1.12.37-1.6.15-.55.31-.98.12-1.59.36-.09-.18-.34-.22-.62-.21-.5-.22-.95-.48-1.64-.51-.44-.27-1.24-.79-1.7-.67-.12-.17-.32-.26-.61-.25.03-.11.15-.11.04-.21-.08.04-.08.17-.1.25-.11-.51-.8-.59-1.23-.87-.24-.15-.33-.37-.47-.47-.04-.03-.11.05-.11.06-.52-.39-.8-.7-1.28-.94-.22-.25-.32-.63-.71-.71.03-.27-.15-.29-.21-.36-.25-.32-.3-.86-.61-1.28-.34-.46-.75-.81-1.13-1.24-.32-.35-.69-1.19-.87-1.13-1.99-3.05-4.65-5.43-8.34-6.78.06-.16-.17-.04-.1-.21-1.38-.4-2.41-1.43-3.55-1.9-.2-.36-.67-.42-.87-.77-.06,0-.09,0-.1.05-.61-.54-1.48-.82-2.01-1.44-1.41-.8-2.09-2.36-3.8-2.88-.93-.66-1.94-1.49-3.04-1.8-.09-.27-.69-.54-.82-.42-.07,0-.04-.12-.05-.2-.08,0-.2-.02-.21.05-.81-.45-1.74-.77-2.42-1.34-.3-.47-.65-1.3-.92-1.96.02-.12.08-.19.04-.36-.49-.4-.22-1.45.16-1.9.26-.31.8-.76.82-.77.09-.02.15.2.2.15.09-.05.16-.11.21-.21.96.14,1.85-.34,2.72-.25.28.03.53.24.82.31.59.13,1.17.04,1.7.36.85,0,1.64.31,2.47.37.13-.01.12.11.21.15,1.42.24,3.33.67,4.53,1.13,1.34.45,2.6.4,3.85.98,2.11.34,3.67.74,5.5,1.44,1.2.08,1.96.23,3.03.3,1-.37,1.97-.26,3.04-.1.06-.01.05-.1.05-.16.1.12.22.22.37.06.12.18.52.17.82.05.75.38,1.59-.08,2.31.26.16.03.1-.14.25-.11,1.32.25,3.27.46,4.63.98,1.01.01,2.08.66,2.99.76.17.04.25.17.41.21.79,0,1.81.35,2.51.31.17,0,.33-.09.52-.09.26,0,.54.14.82.15.63.03,1.34-.09,2.07-.1.33,0,.64.07.97.04.44-.03.95-.25,1.39-.25.14,0,.16.03.37,0,.7-.11,1.62.12,2.37.15.25.01.49-.13.77.15.03.23-.12.26-.25.3.02.37.2.92.56,1.08.16.07.41-.07.62.05.08.05.08.17.15.21.19.09.46.09.67.21.08.04.11.2.21.25.17.11.42.11.56.21.15.1.43.38.83.31.23.34.81.59,1.23.57.12-.03.18.35.21.1.95.62,2.3.68,2.98,1.75.77.58,1.38,1.34,1.9,2.15.27.12.3.49.57.61-.02.44.2.62.3.94.6.28.81.98,1.5,1.18.13.23.31.4.61.46,1.54,1.66,2.76,4.05,3.29,6.85.18.94.14,1.98-.1,2.88-.06.21-.18.33-.21.51-.04.35.14,1.83-.26,1.9-.09.03-.81-1.09-.87-1.23-.49-1.11-1.01-2.32-1.8-3.08-.15,0-.21-.1-.36-.1-.22-.85-1.69-1.04-1.91-1.91-.08-.36.02-.84-.1-1.18-.1-.3-.31-.42-.51-.67-.9-.07-1.72-.38-2.52-.21-.03,0-.18.16-.21.16-.07,0-.2-.14-.26-.16-.55-.13-1.28.23-1.74-.05,0-.95.83-.76,1.18-1.39.19.18.19,0,.46,0,.05-.24-.06-.3-.09-.46.19,0,.23-.18.25-.35-.25-.15-.62-.28-.97-.21-.18.03-.4.3-.67.41-.35.14-.9.14-.87.31-.12.07-.4-.07-.46.15.02.12.07-.06.15.06-.14.18-.33-.1-.61.14.02-.05.11-.03.11-.09-.23.14-.98.08-1.03.41-.12-.1-.49-.2-.46.06-.91.12-1.44.16-2.31.41-.24-.18-.39-.12-.57,0-.6-.07-.73-.02-1.24.1-.32-.27-.87.09-1.39-.1-.1.02-.04.2-.2.15-.17.04-.07-.17-.21-.15-.26.24-.95.08-.98.31-.16-.12-.66-.21-.87.1-.06-.01-.04-.09-.05-.15-1.1.27-2.38.14-3.55.56.04-.09.06-.15,0-.21-.14.06-.17.21-.3.27-.16-.03-.16-.22-.31-.27,0,.1.06.12.05.21-.25.03-.56.03-.77-.11-.06.02-.04.13-.05.21-.06-.05-.15-.09-.2-.15-.05.18-.46.18-.52.05-.17,0-.11.24-.36.15.09-.09.09-.03.05-.2-.07.06-.1.16-.1-.06-.4.02-.39.17-.67-.04.02.12.11.22-.05.25-.35-.41-1.04.05-1.19-.25-.54.09-.7-.35-1.18-.15-.02-.32-.59-.01-.52-.31-.21.16-.51.06-.66-.1-.67-.08-.94,0-1.49-.3-.13.07-.19.08-.26.1-.06-.03.03-.19-.16-.21-.13.25-.26.19-.56.26.04-.05.06-.12.05-.21-.14-.02-.28,0-.24.15-.06-.09-.11-.21-.32-.15-.14.22-.22.5-.46.61.13.73.3,1.77.3,2.37.57.34.48,1.6,1.34,1.9-.07.18.28.24.32.57.1-.12.25.1.25-.15-.02.14.04.67.31.52.12.21.4.52.62.46,1.7,1.27,3.31,1.97,4.17,4.06ZM254.44,222.1c-.15-.14-.3-.27-.37-.52-.7-.44-1.9-.39-2.36-1.07.06-.22-.12-.21-.11-.36-.32-.07-.35-.44-.67-.52-.18-.63-.92-.7-1.03-1.39-.5-.21-.95-.49-1.64-.51-.36-.55-1-.82-1.24-1.5-.31-.25-.73-.39-1.13-.56-.67-.3-1.2-.76-1.79-1.13-.44-.27-1.29-.73-1.7-.66.41.95,1.1,1.63,1.7,2.41.02.13-.1.11-.06.26.47,1.25,1.32,2.14,2.47,2.72.14.62.96.67,1.28,1.18.11.16.08.42.21.61.08.13.43.46.67.67.64.55,1.31,1.05,2.37.93.3.25.7.14,1.08.21.92.15,1.95.77,2.93.46-.13-.43-.6-.58-.61-1.24Z"/>
      <path class="cls-1" d="M243.48,214.7c.95.66,2.05,1.18,3.15,1.7.4.68.95,1.2,1.54,1.7.94-.11,1.18.41,1.64.87.25.24.43.37.67.67.15.19.39.32.56.52.38.4.61.91,1.14,1.19.67-.05,1.01.36,1.49.36.36.37.61.85.57,1.39-.78,0-1.36-.38-1.96-.51-.77-.18-1.67-.02-2.37-.36-.24-.12-1.05-.84-1.24-1.08-.23-.32-.21-.7-.5-.98-.18-.16-.44-.17-.62-.31-.27-.2-.41-.57-.67-.77-.28-.21-.63-.28-.88-.51-.25-.24-.37-.51-.67-.67-.02-.2.13-.21.16-.36-.11-.1-.38-.03-.47-.15-.14-1.19-.98-1.76-1.54-2.67Z"/>
    </g>
    <path class="cls-1" d="M261.45,222.54c.18.18.43.28.41.63-.21-.13-.47-.23-.41-.63Z"/>
    <path class="cls-1" d="M258.14,220.86c-.08-.22-.15.21-.41.08.3-.92-.65-1.23-.5-2.16-.05-.12-.09,0-.08.08-.38-.64-.42-1.39-.67-2.08-.09-.27-.32-.46-.41-.72-.09-.26,0-.6-.08-.88-.07-.23-.36-.42-.42-.64-.03-.14.13-.17.09-.31-.58-1.69-1.74-3.54-1.74-5.35,0-1.72.84-3.37.83-4.88-.02-1.44.54-2.91.65-4.31.07-.83-.12-1.95.33-2.88,1.09.66.83,2.44,1.08,3.76.11.61.53,1.19.17,1.84.83,1.27.25,3.39-.25,4.7.07.43.14,1.01.33,1.52.55.84,1.17,1.38,1.82,2.15.18.21.51.43.67.65.88,1.25.75,3.26,2.07,4.07.45-.21,1.06-.26,1.65-.32.9-.93.42-2.27.74-3.68.98-.98,1.4-2.48,2.15-3.67-.17-.88.22-1.7.17-2.64-.08-1.39-.88-2.74-.75-4,.1-.93.69-1.45,1.33-2.23.11-.21.04-.61.34-.65.35.43.39,1.17.91,1.44-.25.92.65,1.73.65,2.56,0,.25-.23.61-.25.88,0,.24-.02.41.09.71h-.25c.25.29-.18,1.04-.33,1.44.05.17-.1.52.09.56-.84,1.03-.52,2.23-1.25,3.35.41.68-.3,1.05.16,1.61-.08.26-.28.42-.41.63.19.47.05,1.26-.25,1.52-.21,1.91-.16,3.58.5,5.27.82,2.13,2.12,6.44-.08,8.15-.1.86-.61,1.33-.92,1.99-.67.42-1.22.95-1.82,1.44-1.22.05-1.99-.78-2.47-1.19-.86-2.58-2.69-4.92-3.47-7.83ZM257.15,213.51c.09.51.4,1.03.17,1.76.51.88.93,1.87,1.07,3.11,1.16,1.8,1.34,3.35,2.72,5.11,1.05,1.34.82,2.85,2.24,3.2.3-.58.98-1.32,1.07-2.08.09-.73-.53-1.22-.42-1.91-.99-1.22-2.47-1.98-2.97-3.67-1.22-1.43-2.4-3.25-2.57-5.44-.4-.36-.88-.48-1.32-.08Z"/>
    <path class="cls-5" d="M258.47,213.59c.16,2.18,1.35,4,2.57,5.44.5,1.69,1.98,2.45,2.97,3.67-.12.7.5,1.19.42,1.91-.09.76-.77,1.5-1.07,2.08-1.42-.34-1.19-1.86-2.24-3.2-1.39-1.76-1.57-3.32-2.72-5.11-.15-1.24-.57-2.23-1.07-3.11.23-.73-.07-1.25-.17-1.76.44-.4.92-.28,1.32.08ZM261.86,223.17c.02-.35-.23-.46-.41-.63-.06.4.2.5.41.63Z"/>
    <path class="cls-3" d="M257.53,198.45s.73,3.97.82,5.42c.09,1.44-.55,3.61-.55,3.61l1.54,2.71s1.91,2.29,2.36,3c.44.7,1.16-.38,1.16-.38,0,0,2.53-2.98,2.62-5.42.09-2.44.64-1.45,0-3.89-.63-2.43-.27-4.16-.27-4.16l1.81-2.88-11.21-2.72s1.53,2.73,1.71,4.7Z"/>
    <path class="cls-5" d="M265.17,205.2c-.14,1.06-1.08,1.72-1.57,2.48-.41,2.05-1.13,3.8-1.9,5.51-.95-1.74-1.77-3.61-3.31-4.79-.43-1.41.61-2.48.58-3.75-.03-.86-.49-1.76-.58-2.65-.09-.82.03-1.41-.16-2.15-.09-.31-.24-.85-.25-1.2,0-.09.18-.21.17-.32-.02-.07-.22-.15-.25-.24-.04-.15.12-.28.09-.4-.2-.7-.64-1.35-.74-2.08-.48-.39-.85-.88-1.16-1.43-.16-.03-.52-.27-.74-.48-.02,0-.04,0-.05-.01-.72.22-1.38.58-1.95,1.03.03,0,.07.02.09.02-.23.36.08.52.17.8-.1.2-.24.35-.33.56-.08.33.15,1.41-.16,1.76.45,4.7-1,9.75-.91,14.62.53,1.37,1.51,2.32,1.82,3.92.91,1.2,1.63,2.72,2.23,4.23.5,1.25,1.06,2.47,1.57,3.68.24.06.31.29.5.4,1.07,2.15,1.7,4.5,2.9,6.64.43-.03.49.32.82.4,1.82.06,2.4-.3,3.39-1.2.3.13.72-.3.91-.16-.06-.24.26-.31.5-.31.17-.3.21-.42.24-.72.22,0,.17.13.33,0,.4-.73.83-1.44,1.5-1.92,0-.14-.02-.24-.09-.33.35-.03.3-.45.66-.48.31-2.92-.68-4.68-.74-7.27-1.02-.94-.5-2.63-.58-4.15-.06-1.13-.3-2.14-.17-3.12.06-.49.4-.93.49-1.43.13-.59,0-1.25.08-1.84.16-1.19.77-1.99,1.08-2.95.28-.89.59-1.83,1.1-2.47-.97-2.74-2.62-4.78-4.5-6.28-.95,1.06-1.57,1.91-1.73,3.72-.13,1.49.85,2.99.66,4.39ZM265.58,201.2c.1-.93.69-1.45,1.33-2.23.11-.21.04-.61.34-.65.35.43.39,1.17.91,1.44-.25.92.65,1.73.65,2.56,0,.25-.23.61-.25.88,0,.24-.02.41.09.71h-.25c.25.29-.18,1.04-.33,1.44.05.17-.1.52.09.56-.84,1.03-.52,2.23-1.25,3.35.41.68-.3,1.05.16,1.61-.08.26-.28.42-.41.63.19.47.05,1.26-.25,1.52-.21,1.91-.16,3.58.5,5.27.82,2.13,2.12,6.44-.08,8.15-.1.86-.61,1.33-.92,1.99-.67.42-1.22.95-1.82,1.44-1.22.05-1.99-.78-2.47-1.19-.86-2.58-2.69-4.92-3.47-7.83-.08-.22-.15.21-.41.08.3-.92-.65-1.23-.5-2.16-.05-.12-.09,0-.08.08-.38-.64-.42-1.39-.67-2.08-.09-.27-.32-.46-.41-.72-.09-.26,0-.6-.08-.88-.07-.23-.36-.42-.42-.64-.03-.14.13-.17.09-.31-.58-1.69-1.74-3.54-1.74-5.35,0-1.72.84-3.37.83-4.88-.02-1.44.54-2.91.65-4.31.07-.83-.12-1.95.33-2.88,1.09.66.83,2.44,1.08,3.76.11.61.53,1.19.17,1.84.83,1.27.25,3.39-.25,4.7.07.43.14,1.01.33,1.52.55.84,1.17,1.38,1.82,2.15.18.21.51.43.67.65.88,1.25.75,3.26,2.07,4.07.45-.21,1.06-.26,1.65-.32.9-.93.42-2.27.74-3.68.98-.98,1.4-2.48,2.15-3.67-.17-.88.22-1.7.17-2.64-.08-1.39-.88-2.74-.75-4Z"/>
    <path class="cls-1" d="M196.1,192.67c.08.75.06,1.23,0,1.94-1.21.54-2.44.35-3.82.29-.22.71-.19,1.42-.07,2.37,1.2.52,2.44.25,3.74.44,0,.51.12,1.23,0,1.8-.76.4-1.91-.15-2.52.29-.21-.09-.55-.06-.86-.06-.13.54.16,1.27.14,1.94,1.22-.13,2.54-.22,3.82-.08.18.51.31,1.31.15,1.94-1.17.66-2.93.24-4.11.66-.2.13-.24.43-.65.36-.29-.2-.39-.15-.79-.22-.54-2.96-.61-6.31-.79-9.36-.15-.15-.22-.39-.43-.5.24-.46.43-.7.43-1.51,1.5-.41,4.33-.49,5.76-.28Z"/>
    <path class="cls-1" d="M187.46,193.6c.15,3.55,1.03,7.13,1.3,10.08-.3.25-.46.64-.73.93-.47.07-.46-.35-.72-.5-.3.07-.36.41-.72.43-1.42-.63-.67-3.04-1.01-4.68-.18-.02-.31.03-.29.21-.37-.38-1.99.13-3.02-.07-.36,1.72.41,4.3-1.15,4.89-.7-.22-.78.29-1.22.22-.31-.32.03-.51.14-.8-.35-.74-.23-1.49-.28-2.44-.07-1.04-.3-2.22-.36-3.31-.04-.71.12-1.5.14-2.23.03-.99-.67-1.71.14-2.37.87.02,1.38-.27,2.02.08-.15.98.38,1.34.29,2.23-.28.02-.02-.51-.21-.58-1.19,2.78,2.22,2.02,3.53,1.65-.18-1.18-.04-1.88-.43-2.88.03-.39.68-.18.5-.79.59-.19,1.52-.26,2.09-.07Z"/>
    <path class="cls-1" d="M178.53,193.39c.39.96-.38,1.76-.65,2.52-.98-.27-3.32-.03-5.04.07.21,2.78.22,6.23.72,8.42-.68.1-1.92.21-2.3-.36-.3-.46-.12-4.1-.14-4.9-.03-1.02-.15-2.24-.07-3.16-.91-.18-1.88.18-2.81.21-.11,0-.03.21-.14.21-.39-.26-.74.04-1.23.07-.3-.22,0-.6-.29-.86,0-.16.26-.04.36-.07-.11-.6.03-1.18.22-1.65,1.18,0,2.06-.62,3.17-.22,1.25-.35,2.7.02,3.6,0,1.54-.19,3.22-.43,4.61-.29Z"/>
    <path class="cls-1" d="M219.64,214.71h.18c-.15.12.06.26-.06.36-.09-.07-.12-.2-.12-.36Z"/>
    <path class="cls-1" d="M234.89,225.13c.05.06-1.09.33-.99,0-.12.1-.28.15-.35.29-.44-.34-.89.25-1.05-.23-.03.4-1.12.45-1.41.12-.19.06,0,.13-.12.24-.67,0-.64,0-1.05-.3-.03.19-.26.1-.12.24-.58.32-1.13-.01-1.63,0-.52-1.14-.17-2.49-.54-4.03.32-1.92-.16-4.67-.22-6.76-.03-.73.18-1.39-.59-1.59-.03-.42.06-.72.35-.81-.14-.47-.08-.97-.06-1.47.1,0,.15-.04.17-.12.34.03.46.07.7-.06,2.66.7,5.64-.28,8.84.35.34.38-.24,1.06.12,1.46.43-.2.8.2.64.59-1.65.17-3.29.49-4.92.58-.56.03-1.26.08-1.8,0-.26-.04-.52-.2-.76,0-.15,1.11-.05,1.54-.06,2.8.67.41,1.72.09,2.8-.06.85-.12,2.19-.14,2.98-.17.25-.01.73-.16.88-.12.45.13.54.75.3,1.17.25.07.41.25.52.47-.08.49-.63.25-.83.53-1.02-.15-2.2.65-3.22.35-1.14.41-2.41.18-3.21.93.09,1.01,0,2.14.29,2.98,2.76-.08,5.16.32,7.72-.35.89.2.28,1.56.35,2.45-.21.04-.3.21-.58.18-.08.07-.04.27-.12.35-.12-.02.08-.16-.12-.17-.16-.04.05.27-.12.23-.25.09-.17-.18-.41-.12.07.16-.04.05-.34.12-.02.03-.15.23,0,.23-.17.08-.49-.17-.59-.35-.13.03-.15.26-.29.12.05-.11.18-.04.06-.18-.27.28-.5-.12-.76.24-.19-.09-.58-.19-.47-.11ZM236.52,224.55c.22-.08.32.08.41-.12-.19-.02-.36,0-.41.12Z"/>
    <path class="cls-1" d="M249.42,242.54c.04.06-1,.31-.91,0-.11.1-.25.15-.34.27-.4-.32-.82.22-.96-.22-.02.37-1.02.41-1.29.11-.18.06,0,.13-.11.22-.62,0-.59,0-.97-.27-.02.18-.23.1-.1.22-.54.29-1.04-.01-1.5,0-.49-1.05-.15-2.29-.5-3.71.3-1.77-.14-4.29-.21-6.23-.03-.68.16-1.28-.54-1.46-.03-.38.06-.67.33-.76-.13-.43-.07-.89-.06-1.34.09,0,.14-.05.16-.12.3.03.42.07.64-.05,2.46.65,5.19-.27,8.13.32.32.36-.21.98.11,1.34.4-.18.74.18.59.54-1.51.16-3.03.44-4.52.54-.52.03-1.18.06-1.67,0-.24-.04-.47-.18-.7,0-.13,1.02-.04,1.41-.05,2.58.62.37,1.59.09,2.58-.06.79-.12,2.02-.13,2.75-.15.22-.02.67-.15.81-.12.41.12.49.69.27,1.07.24.06.38.23.49.43-.07.45-.58.23-.75.49-.95-.14-2.03.6-2.97.31-1.05.39-2.22.16-2.95.87.08.92,0,1.97.27,2.74,2.54-.07,4.75.29,7.11-.32.81.18.26,1.43.33,2.26-.2.03-.28.19-.54.16-.08.07-.03.25-.11.32-.12-.02.08-.14-.11-.16-.15-.04.04.25-.11.21-.25.08-.17-.15-.38-.1.06.14-.05.03-.32.1-.01.04-.13.21,0,.22-.15.07-.45-.16-.55-.32-.12.02-.14.24-.26.1.04-.1.16-.03.05-.16-.25.26-.46-.11-.7.21-.18-.09-.53-.17-.43-.11ZM250.93,242c.2-.08.29.07.38-.11-.17,0-.32,0-.38.11Z"/>
    <path class="cls-1" d="M199.97,244.11c.05.05-1,.3-.92,0-.09.09-.24.14-.32.27-.4-.3-.82.22-.97-.21-.02.37-1.02.42-1.3.11-.18.05,0,.12-.1.21-.62,0-.6,0-.97-.27-.03.18-.24.1-.11.22-.55.29-1.04-.01-1.51,0-.48-1.04-.15-2.29-.49-3.71.3-1.78-.15-4.29-.21-6.23-.02-.66.17-1.28-.54-1.45-.03-.38.06-.66.33-.75-.13-.43-.07-.89-.06-1.35.1,0,.15-.04.16-.11.3.03.43.06.64-.05,2.45.64,5.19-.27,8.14.32.31.35-.21.98.1,1.35.4-.19.74.18.59.54-1.52.16-3.03.44-4.52.54-.52.03-1.17.07-1.67,0-.24-.03-.47-.18-.7,0-.13,1.03-.05,1.41-.06,2.58.62.37,1.59.09,2.59-.05.79-.11,2.01-.13,2.75-.16.22,0,.67-.15.8-.11.42.12.49.68.28,1.07.24.06.38.24.48.43-.06.46-.58.23-.76.49-.94-.14-2.03.61-2.96.33-1.05.38-2.23.15-2.96.85.09.93.02,1.98.27,2.74,2.54-.07,4.75.29,7.11-.32.82.18.27,1.43.33,2.26-.2.04-.27.19-.54.16-.07.06-.03.25-.11.32-.11-.01.08-.15-.11-.16-.15-.04.04.25-.11.21-.24.08-.16-.15-.38-.1.06.15-.04.04-.32.1-.01.04-.13.21,0,.21-.15.08-.45-.15-.54-.32-.12.02-.14.24-.27.1.03-.1.16-.03.06-.16-.25.26-.47-.11-.7.21-.18-.08-.54-.17-.44-.1ZM201.47,243.57c.21-.07.3.07.38-.11-.17,0-.32,0-.38.11Z"/>
    <path class="cls-1" d="M204.34,224.02c-.09.81-.91,1.32-.88,2.45-.56.2-.87.65-1.58.7-.15.02.07.1,0,.24-.77.43-.97-.64-1.41-1.04.39-2.23,1.97-3.71,2.05-5.85.12.13.18-.07.35-.06-.05-.43.24-.67.18-1.05.17-.05.21-.08.3.06.3-.43.39-1.07.41-1.53.09-.02.1.06.18.06.04-.18-.06-.21-.06-.35.19-.07.04.18.24.11.37-.61.49-1.48.76-2.22.76-.98.91-2.56,1.76-3.45.56.03.46.7.93.82.95,1.4,1.73,2.91,2.46,4.49.3.65.69,1.26,1.05,1.87.96,2.29,1.97,4.5,3.45,6.25-.77.22-1.35.43-2.11.76-.36-.1-.61-.33-.94-.47-.37-.89-1.16-1.38-1.4-2.39-.08.01-.16.01-.18-.06-1.89.16-3.12.49-5.03.64-.24.13-.33.42-.59.53.19-.25-.02-.29.06-.53ZM205.34,221.33c.4.04.49-.26.7-.4.56.12,1.01-.08,1.58-.12.29-.02.79.24.99-.18-.09,0-.21.03-.23-.06-.42-1.07-1.09-1.91-1.46-3.03-.11.01-.13-.07-.24-.06-.31,1.25-1.03,2.59-1.34,3.85Z"/>
    <path class="cls-1" d="M198.08,211.69c-.08.56.37.96.47,1.34.08.28-.02.74,0,1.16.03,1.3.36,3.11.41,4.38,0,.28-.09.6-.06.82.01.06.18.13.18.12.02.56-.3,1.04-.3,1.58,0,.21.2.35.24.58,0,.07-.11.28-.12.35-.05.61.06,1.69.3,2.05.05.83-.36,1.2-.53,1.8-.77.13-1.38-.07-1.88-.34-.54-1.83-.32-4.06-.7-5.96-1.77.19-4.13.38-6.14.64.11,1.04.12,2.02.36,3.04,0,.18.21.17.29.29.06.57.1.93.05,1.52-.63.52-1.13.93-2.16.94-.8-1.03-.49-3.06-.59-4.49-.06-1.01-.28-1.99-.28-2.98,0-.19.12-.39.12-.58-.02-.31-.17-.63-.18-.93-.03-1.39-.02-2.96-.47-4.5.1-.2.39-.24.53-.41.49.25,1-.21,1.46-.12.56.35.43,1.07.46,1.87.06,1.23.28,2.54.42,3.74,2.22-.36,4.52.2,6.08-.18-.07-.89.02-1.82,0-2.69,0-.24-.17-.52-.18-.76-.01-.21.14-.4.12-.58-.06-.46-.36-.92-.12-1.46.67-.47,1.44-.74,2.22-.24Z"/>
    <path class="cls-1" d="M217.69,211.4c.49,3.51.42,8.23,1.16,11.5,1.46-.2,2.42-.51,3.97-.46.45.01,1.03.09,1.65,0,.22-.03.44-.23.64-.18.65.15.48,1.09.64,1.82.05.19.26.33.23.57-.06.43-.51.48-.93.65-.21,0-.22-.17-.3-.3-.46-.13-.9.17-1.34.24-.15.03-.4-.08-.59-.06-1.18.12-2.05.46-3.09.58-.77.09-1.52,0-2.29.18-.36.08-.61.44-.99.11.12-.89,0-1.94-.06-3.15-.03-.61,0-1.28-.07-1.87-.12-1.37-.42-2.73-.52-4.08-.14-1.95-.11-3.81-.35-5.43.07-.03.12-.08.11-.18.8-.22,1.36-.13,2.11.06ZM216.33,212.39c.12-.09-.08-.22.07-.34h-.18c0,.15.03.27.11.34Z"/>
    <path class="cls-1" d="M186.88,212.57c-.06,1.01-1.14,1.68-1.17,2.8-.43.67-.75,1.44-.88,2.39-.73,1.57-1.72,2.89-2.28,4.62-.55.72-.92,2.22-1.52,2.92-.58.67-.88.2-1.7.06-1.74-1.58-2.69-3.93-4.57-5.37v-.29c-.32-.23-.61-.48-.88-.76-.95,1.26-1.86,3.13-2.74,4.56-.22.35-.45.82-.65,1.05-.13.15-.45.27-.65.46-.39.38-.59.85-.93,1-.83.36-1.35-.13-1.81-.7-.18-2.01-1.24-3.65-1.93-5.37-.48-1.19-.94-2.36-1.52-3.51.03-.47-.24-.66-.18-1.17-.19-.3-.22-.75-.47-.99.07-.82-.69-1.26-.47-1.87.46-.28.92.37,1.17-.06.4.32.92.22,1.34,0,.27.17.93.22,1.12.12.05.13.18.18.18.35.01.31-.42.18-.59.29.56,1.12.8,2.54,1.4,3.62.03.19-.1.21-.06.41.56,1.16.71,2.71,1.47,3.69.25-.07.29-.34.35-.59.28-.17.39-.51.64-.7.45-1.38,1.63-2.03,2.16-3.32,1.22-1.09,1.5-3.11,2.87-4.03.09,0,.35.08.53.17,1.35,2.72,2.47,5.67,4.04,8.18.73-.71,1.19-1.73,1.93-2.45.99-2.14,2.31-3.95,3.45-5.96.75,0,1.65.34,2.34.47Z"/>
    <path class="cls-1" d="M190.97,231.4c-.23.79-.68,1.35-1.1,1.96-.57-.15-.77-.67-1.51-.66-.15-.02-.22-.15-.35-.21-.89-.03-1.08-.21-1.91,0-.83.43-1.32,1.11-2.01,1.56-.17.44-.52.69-.55,1.25h-.15c-.07.38-.13.75-.35.96,0,.74-.27,1.2-.05,2.07.17.66.27,1.37.7,1.61,0,.07-.15.02-.15.1.12.32.22.64.51.85.05.04.19,0,.25.06.06.05.05.2.11.25.03.03.15-.03.2,0,.06.06.06.19.15.25.3.2,1.03.47,1.25.5.26.05,1.29.09,1.71.06.33-.03.72-.12.91-.25.73-.5.97-1.75,1.86-.95.21.18.32.37.41.5.18-.03.22-.15.4-.06-.29.56.49.8.3,1.41-.43.18-.8.41-1.06.75-.55.07-1.07.33-1.61.61h.14s0,.05-.05.05c-1.15.05-2.26.39-3.51.15-.95-.19-1.71-.7-2.57-1.06-.1-.18-.17-.4-.49-.35-.27-.37-.54-.55-.76-.76-.12-1.08-.94-1.85-1.01-3.06-.08-1.35-.06-2.68.51-3.97.72-1.65,2.26-3.7,4.07-4.32.89-.31,1.62-.36,2.77-.25.55.05,1.14.24,1.66.35.26.38.86.4,1.3.61ZM187.25,232c-.07-.31-.4-.09-.61-.2.03.35.48-.02.61.2ZM189.42,232.49c-.02.18.23.22.3.16,0-.13-.07-.2-.2-.2-.01.04-.04.06-.1.04ZM183.53,242.86c.12.02.09.18.25.15.06-.2-.19-.36-.25-.15Z"/>
    <path class="cls-1" d="M214.16,229.71c.2.29.19.79.55.93.29,2.76-.05,5.55.7,7.75-.23,1.55.22,3.04.38,4.83-1.44.85-2.45-1.26-3.15-2.01-.13,0-.17.1-.27,0,.01-.06.1-.04.1-.1-1.35-1.2-2.64-3.16-4.01-4.34-.19.17-.02.21.06.37-.29,2.18.8,4.6.6,7-.63.02-1.01-.48-1.52.05-.56-.03-1.22-.25-1.53-.48.05-.96-.18-2.16,0-3.37-.02-.15-.05-.12-.16-.27-.25-1.26-.05-2.67-.33-3.58.08-.08.16-.17.22-.27-.16-.15-.35-.59-.12-.82-.36-.06,0-.52-.32-.59.09-.1.04-.49.22-.33-.38-1.35-.36-2.57-.27-4.06.73-.14.86.46,1.19.92.58.8,1.39,1.32,2.12,2.02.86.8,1.66,1.66,2.39,2.6.21.27.44.64.86.76.11.09-.07.21.06.33.17-.05.06-.15.05-.27.09-.03.09.04.11.11.08-2.26-.5-4.26-.38-6.9.79-.25,1.57-.25,2.44-.27Z"/>
    <path class="cls-1" d="M224.29,232.61s-.05.05-.1.05c.05,2.11-.18,3.99.05,6.17.03.15.17-.07.24.07-.02.1-.14.09-.21.14.25,1.31-.31,2.57.27,3.45-.05.1-.13.12-.21.29.16.05-.08.42-.24.63-.11-.19-.51-.12-.63,0,.04.18.24.2.37.27-.1.34-.35.06-.5.36-.03-.11-.17-.12-.23-.26-.16-.06-.08.15-.11.24-.42-.36-1.13-.22-1.55-.69.2-3.57-.06-7.12.1-10.95-.47.05-.67-.18-.87.1,0-.1-.34-.22-.34-.02-.2-.19-.38-.06-.63.06-.03-.04-.06-.09-.08-.16-.1,0-.18.13-.35.18,0,0-.43-.06-.63-.09-.78-.12-1.31.51-1.68-.11.05-.74.13-1.49.13-2.17.93-.06,1.33-.46,2.35-.46.15,0,.19-.1.26-.18.5,0,.99.22,1.44-.06.11.03.15.12.24.16.12-.04.27-.07.34-.18.09,0,.05.14.18.12,1.94-.14,4.15-.03,6.06.32.04.82.24,1.67,0,2.48-.93.46-2.2.34-3.39.3.06,0,.04.3-.02.15-.1-.23-.1-.1-.27-.22ZM222.29,234.48c.02-.12-.02-.21-.09-.25-.08.06-.06.25.09.25Z"/>
    <path class="cls-1" d="M237.24,237.1c.4.77,1.1,1.27,1.38,2.17.8.88,1.13,2.23,2.13,2.94-.03.23.05.56-.04.72-.28.07-.68.03-.87.19.06-.07.06-.12-.05-.15-.43.15-.7.18-1.22.29-.07.05-.2.03-.15.2-.87-.94-1.66-2.57-2.6-3.72-.1-.12-.19-.31-.3-.48-.11-.15-.28-.3-.36-.43-.2-.33-.32-.92-.71-1.06-.32-.11-.7.12-.97,0-.14,0-.07.31-.25.14.19,1.8.15,3.82-.05,5.31-.54.08-1.08.04-1.43.38-.19,0-.02-.04-.04-.14-.48.02-.63.02-.92-.15-.09-1.21.1-2.3-.25-3.09-.08-1.39.18-2.09-.06-3.47.29-1.41-.14-3.07-.15-4.58,0-.14.09-.29.09-.44,0-.67-.24-1.65.05-2.4,1.51.64,3.59,0,5.54.33.78.14,1.22.67,1.93,1.11.31.85,1.13,1.89,1.12,2.94,0,.29-.24.59-.1.83-.71.79-.88,1.99-1.73,2.55ZM236.38,233.63c-.06-.67-.14-1.02-.46-1.45-.75-.28-1.82-.64-2.69-.39-.04.21.1.23.1.39-.31,1.12.24,2.44-.1,3.27,1.53.34,2.87-.52,3.15-1.82ZM238.22,234.35c.22-.08.37-.67.15-.86-.01.27-.11.51-.15.86ZM232.52,235.65c.27.07.07-.55.05-.49.04.22-.08.27-.05.49ZM237.55,235.59c.15.03.27-.21.15-.28-.03.12-.19.1-.15.28Z"/>
  </g>
  <g>
    <g>
      <polygon class="cls-4" points="81.39 156.11 29.03 232.76 31.64 236.06 131.52 232.59 95.64 166.68 84.96 154.21 81.39 156.11"/>
      <path class="cls-5" d="M113.45,193.47c3.5.51,2.58,5.9,6.25,6.23.1,3.85,2.07,5.65,4.51,6.91-.28,4.06,2.01,5.28,4.46,6.32.28,1-.4,1.13-1.12,1.24.83.82,2.79,1.35,1.33,2.9.46-.34.95-.66,1.75-.68.27,1.19-.03,1.86-1.1,1.84,1.19,1.5,4.61,4.74,2.67,5.81.6,1.01,1.92,1.22,3.61,1.01.33,4.85,3,7.12,2.99,12.34-.57-.34-2.25-1.28-1.74.67-1.07-1.12-4.13-.02-4.26-2.17-1.31,2.35-4.07-1.55-7.06,1.54-1.8.3-1.34-1.87-1.94-2.88-1.7.6.84,1.46.15,2.97-.46-.39-2-2.41-1.78.09-8.28-.58-20.59-.63-27.92.18-.03-.58-.06-1.18-.09-1.77-2.68,1.58-5.81,1.88-8.31.4-1.61,2.32-12.64,2.39-16.02.8-6.51,3.76-21.02.23-24.17,4.17-5.11-2.87-13.92.37-20.31-1.97-.6-1.86.4-2.28,1.04-3.02-2.39-.09-.99-.46-1.38-4.09,2.77-.9,3.9-3.26,3.83-6.73,2.75.43,1.2-3.05,4.03-2.58-.52-1.8-.47-1.12-.15-2.97,4.03.45,1.59-4.98,5.1-5.01-.41-.58-1.39-.54-1.28-1.72,2.39.65,1.12-2,3.51-1.36-.06-1-.1-1.98-.15-2.97.51-.48,1.31-.7,2.34-.7,3.47-8.95,9.98-15.12,13.68-23.86,2.05-.03,2.7-1.34,2.2-3.68,1.74.07,1.75-1.43,3.51-1.36,1.43-7.95,9.01-10.36,10.39-18.36,6.51-1.46,4.95-10.23,11.29-11.85-.41-.58-1.39-.54-1.28-1.72,1.95-.12,2.9-1.15,5.32-.85,2.66,1.88-.7,3.06,3.11,2.81-2.46,2.68.76,10.53,3.43,9.34.89.15.16,4.49,3.17,4-.33,1.84.73,2.14.78,3.53,7.63,6.37,9.09,19.56,16.74,25.91.26,1-.41,1.15-1.13,1.25ZM78.8,166.05c-1.88.82-.54-1.9-2.44-1.07-.9.3-.41,1.9-2.29,1.31-.73,3.12-1.47,6.22-4.4,7.36-.7,3.28,1.67,3.15,2.61,4.62-4.12,3.02-4.14,12.7-11.42,9.48.67,1.77,2.84,1.86,3.17,4.01-1.57.8-2.72,1.12-3.5,1.36,2.53,2.05-.67,1.55-1.64,3.05-2.53,3.94-3.91,10.12-8.35,11.11-.16,2.88-1.2,4.96-3.89,5.53,1.5,3.08-.87.43-1.7,1.88,3.82.72-2.44,2.6.21,4.15-4.22.89-3.18,6.55-6.11,8.63-.38-1.03.55-3.52-.76-3.54,0,.94.19,2.05-1.1,1.85-.64,1.95,1.94.35,1.31,2.3-2.46.61-2.01,3.85-3.29,5.53,6.18-1.37,16.23-1.48,23.13-1.15.11-.46-.04-1.17.53-1.22,23.01,2.1,41.35-1.48,69.45-2.24-1.29-6.23-6.8-9.22-8.96-12.63-.71-5.28-5.69-5.8-5.91-11.6-2.66.4-2.29-2.11-1.97-3.46-2.36.06-4.51-3.77-2.6-4.62-1.85,1-1.99-.35-3.62-1.01-4.29-12.95-14.52-22.09-19.43-32.33.03.6-1.01.8-1.18.05.72-.09,1.39-.24,1.13-1.24-1.65.57-1.58-.76-3-.45-2.87,4-4.15,9.46-8.94,11.74,1.25,2.03-.43,2.88-1.57,4.24-.72-2.35-.14-4.62.87-6.58.98-.03.4,1.62,1.27,1.72.13-2.55,2.17-7.39,3.91-4.94-.06-.82.21-1.32.5-1.81Z"/>
    </g>
    <text class="cls-2" transform="translate(61.91 222.35)"><tspan x="0" y="0">77</tspan></text>
  </g>
</svg>