<?xml version="1.0" encoding="UTF-8"?>
<svg id="Layer_1" xmlns="http://www.w3.org/2000/svg" viewBox="0 0 400 400">
  <defs>
    <style>
      .cls-1 {
        fill: #f79533;
      }

      .cls-2 {
        font-family: AmericanTypewriter-CondensedBold, 'American Typewriter';
        font-size: 42.62px;
        font-weight: 700;
        letter-spacing: -.02em;
      }

      .cls-2, .cls-3 {
        fill: #fff;
      }

      .cls-4 {
        fill: #2b2333;
      }

      .cls-5 {
        fill: #662d91;
      }

      .cls-5, .cls-6 {
        fill-rule: evenodd;
      }

      .cls-3 {
        stroke: #2b2333;
        stroke-miterlimit: 10;
        stroke-width: .99px;
      }

      .cls-7 {
        fill: #fdb83f;
      }
    </style>
  </defs>
  <g>
    <g>
      <polygon class="cls-5" points="54.29 166.27 1.93 242.92 4.54 246.22 104.42 242.75 68.54 176.84 57.87 164.37 54.29 166.27"/>
      <path class="cls-6" d="M86.36,203.63c3.5.51,2.58,5.9,6.25,6.23.1,3.85,2.07,5.65,4.51,6.91-.28,4.06,2.01,5.28,4.46,6.32.28,1-.4,1.13-1.12,1.24.83.82,2.79,1.35,1.33,2.9.46-.34.95-.66,1.75-.68.27,1.19-.03,1.86-1.1,1.84,1.19,1.5,4.61,4.74,2.67,5.81.6,1.01,1.92,1.22,3.61,1.01.33,4.85,3,7.12,2.99,12.34-.57-.34-2.25-1.28-1.74.67-1.07-1.11-4.13-.02-4.26-2.16-1.31,2.34-4.07-1.55-7.06,1.54-1.8.3-1.34-1.87-1.94-2.88-1.7.6.84,1.46.15,2.97-.46-.39-2-2.42-1.78.09-8.28-.58-20.59-.63-27.92.18-.03-.58-.06-1.18-.09-1.77-2.68,1.58-5.81,1.89-8.31.41-1.61,2.32-12.64,2.38-16.02.8-6.51,3.75-21.02.23-24.17,4.16-5.11-2.87-13.92.37-20.31-1.96-.6-1.86.4-2.28,1.04-3.03-2.39-.09-.99-.46-1.38-4.09,2.77-.9,3.9-3.26,3.83-6.73,2.75.43,1.2-3.05,4.03-2.58-.52-1.8-.47-1.12-.15-2.97,4.03.45,1.59-4.98,5.1-5.01-.41-.58-1.39-.54-1.28-1.72,2.39.65,1.12-2,3.51-1.36-.06-.99-.1-1.98-.15-2.97.51-.49,1.31-.7,2.34-.7,3.47-8.95,9.98-15.13,13.68-23.86,2.05-.03,2.7-1.34,2.2-3.68,1.74.07,1.75-1.43,3.51-1.36,1.44-7.95,9.01-10.36,10.39-18.36,6.51-1.46,4.95-10.23,11.29-11.85-.41-.58-1.39-.55-1.28-1.72,1.95-.12,2.9-1.15,5.32-.85,2.66,1.88-.7,3.06,3.11,2.81-2.46,2.68.76,10.53,3.43,9.34.89.15.16,4.49,3.17,4.01-.33,1.83.73,2.14.78,3.53,7.63,6.37,9.09,19.56,16.74,25.91.26,1-.41,1.15-1.13,1.25ZM51.7,176.21c-1.88.82-.54-1.9-2.44-1.07-.9.31-.41,1.9-2.29,1.31-.73,3.12-1.47,6.22-4.4,7.35-.7,3.28,1.67,3.15,2.61,4.62-4.12,3.02-4.14,12.7-11.42,9.48.67,1.77,2.84,1.86,3.17,4.01-1.57.8-2.72,1.12-3.5,1.36,2.53,2.06-.67,1.55-1.64,3.05-2.53,3.94-3.91,10.12-8.35,11.12-.16,2.87-1.2,4.96-3.89,5.53,1.5,3.08-.87.43-1.7,1.88,3.82.72-2.44,2.6.21,4.15-4.22.89-3.18,6.55-6.11,8.63-.38-1.03.55-3.52-.76-3.54,0,.93.19,2.05-1.1,1.84-.64,1.95,1.94.35,1.31,2.3-2.46.61-2.01,3.85-3.29,5.53,6.18-1.37,16.23-1.48,23.13-1.15.11-.46-.04-1.17.53-1.22,23.01,2.1,41.35-1.48,69.45-2.24-1.29-6.23-6.8-9.23-8.96-12.64-.71-5.27-5.69-5.8-5.91-11.6-2.66.4-2.29-2.11-1.97-3.47-2.36.06-4.51-3.77-2.6-4.62-1.85,1-1.99-.35-3.62-1.01-4.29-12.95-14.52-22.09-19.43-32.33.03.6-1.01.8-1.18.05.72-.09,1.39-.24,1.13-1.24-1.65.57-1.58-.76-3-.44-2.87,4-4.15,9.46-8.94,11.73,1.25,2.03-.43,2.88-1.57,4.24-.72-2.35-.14-4.62.87-6.59.98-.03.4,1.63,1.27,1.72.13-2.55,2.17-7.39,3.91-4.94-.06-.82.21-1.32.5-1.81Z"/>
    </g>
    <text class="cls-2" transform="translate(34.81 232.51)"><tspan x="0" y="0">78</tspan></text>
  </g>
  <g>
    <polygon class="cls-4" points="335.39 217 328.81 216.66 322.37 216.81 315.93 216.92 309.49 216.97 303.05 217.11 296.62 216.85 290.17 216.92 283.73 217.2 277.3 217.21 270.86 217.15 264.41 216.82 257.98 216.75 251.54 217.35 245.09 216.92 238.65 216.81 232.21 216.94 225.77 216.85 219.33 217.46 212.88 217.03 206.44 217.14 200 217.03 193.56 217.51 187.11 217.51 180.66 216.94 174.22 217.53 167.78 217.2 161.34 217.02 154.89 217.47 148.45 217.17 142 217.35 135.56 217.35 129.11 217.71 122.67 217.36 116.22 217.68 109.77 217.46 103.41 217.38 103.11 211.03 103.39 204.58 103 198.13 103.09 191.68 103.05 185.23 103.31 178.79 103.14 172.34 102.93 165.88 103.09 159.36 109.6 159.35 116.04 159.09 122.48 159.41 128.93 159.34 135.36 159.43 141.8 159.52 148.24 158.96 154.68 159.05 161.12 159.28 167.56 159.06 174 159.54 180.44 159.25 186.88 159.13 193.32 158.96 199.76 159.15 206.2 159.23 212.65 159.3 219.09 159.25 225.53 158.79 231.97 158.99 238.42 158.96 244.86 159.06 251.31 159.03 257.75 158.82 264.19 158.74 270.64 159.18 277.08 158.9 283.52 159.19 289.97 159.27 296.41 158.71 302.86 158.86 309.3 159.2 315.75 158.54 322.2 158.87 328.65 158.79 335.15 158.76 335.44 165.26 334.91 171.71 335 178.16 335.13 184.6 335.48 191.05 335.34 197.5 335.09 203.95 334.89 210.41 335.39 217"/>
    <path class="cls-1" d="M276.61,169.93c3.3.19,6.6.51,9.9.54,5.51.05,11.02-.07,16.54-.15,3.39-.05,6.77-.19,10.16-.23,3.15-.04,6.3-.05,9.45.02,2.44.06,4.87.27,7.3.43.23.01.47.08.69.16.64.25.83,1.09.3,1.55-.41.35-.9.62-1.4.86-3.2,1.51-6.52,2.82-9.59,4.57-2.35,1.33-4.63,1.48-7.21,1.3-3.12-.22-6.29-.42-9.42.24-.61.13-1.26.09-1.89.1-7.24.12-14.49.33-21.73-.03-3.77-.18-7.53-.61-11.29-.95-.55-.05-1.08-.22-1.62-.32-1.05-.19-1.68-.85-1.93-1.85-.81-3.24.22-5.78,3.94-5.94,2.59-.11,5.2-.03,7.8-.04,0-.08,0-.17,0-.25Z"/>
    <path class="cls-1" d="M163.1,179.79c-5.98-.3-11.95-.6-17.93-.88-1.34-.06-2.68-.09-4.02-.04-3.23.13-6.45.29-9.67.47-1.65.09-3.29.28-4.94.36-2.57.11-4.96-.44-7.27-1.66-2.08-1.1-4.32-1.88-6.46-2.87-1.06-.5-2.11-1.08-3.04-1.78-.44-.33-.79-1.03-.81-1.58-.03-.76.77-.95,1.37-1.04,2.26-.34,4.51-.71,6.81-.57,2.91.18,5.82.35,8.73.37,6.78.05,13.56-.08,20.34.05,5.82.11,11.64.48,17.46.7,1.89.07,3.79-.02,5.67.09,1.16.07,2.35.23,3.45.6,1.77.6,2.38,1.76,2.23,3.67-.15,1.9-1.15,3.17-2.98,3.45-2.02.31-4.06.45-6.1.62-.94.07-1.89.02-2.84.02,0,.01,0,.03,0,.04Z"/>
    <path class="cls-7" d="M130.19,181.93c.74-.15,1.26-.32,1.78-.35,1.73-.07,3.46-.09,5.2-.14,5.98-.16,11.96-.43,17.94-.45,5.19-.02,10.38.26,15.58.38,2.04.05,3.39,1.04,4.25,2.84.62,1.28.39,2.28-.86,2.98-1.61.91-3.41,1.17-5.22,1.35-.47.05-.94.03-1.42.02-3.37-.08-6.75-.19-10.12-.23-3.93-.05-7.86-.04-11.79-.04-.55,0-1.14-.07-1.64.1-1.75.56-3.25-.01-4.71-.88-2.17-1.28-4.38-2.48-6.8-3.25-1.22-.39-1.36-.67-2.17-2.34Z"/>
    <path class="cls-7" d="M309.79,181.61c.27.86-.15,1.23-.66,1.49-2.72,1.43-5.4,2.95-8.2,4.22-1.25.57-2.76.91-4.11.83-4.02-.25-8.03.04-12.04.1-5.53.09-11.02-.24-16.51-.82-2.08-.22-2.98-.96-3.45-2.68-.39-1.46.19-2.73,1.67-3.18.96-.29,2.01-.43,3.02-.43,8.44-.03,16.87-.05,25.31,0,4.41.03,8.82.19,13.23.3.6.02,1.2.12,1.73.17Z"/>
    <path class="cls-3" d="M232.53,203.19c-.49.78-.8,1.06-.84,1.37-.17,1.17-.24,2.35-.38,3.52-.14,1.22-.34,1.43-1.56,1.69-.77.16-1.54.33-2.32.4-.84.07-1.34-.35-1.49-1.17-.07-.38-.09-.78-.07-1.18.12-3.07.26-6.13.37-9.2.06-1.73.04-3.46.11-5.19.05-1.34.33-1.88,1.53-1.99,2.56-.23,5.07-.82,7.72-.47,4.96.65,6.23,6.45,4.31,9.47-.17.27-.34.53-.55.77-.61.69-.57,1.39-.17,2.17.75,1.47,1.47,2.96,2.18,4.45.16.34.24.73.39,1.18-.35.24-.64.57-.98.64-1.16.23-2.33.35-3.5.53-1.36.21-2.3-.32-2.81-1.59-.38-.94-.75-1.9-1.09-2.86-.24-.65-.43-1.31-.84-2.56ZM231.02,199.23c1.11-.24,2.04-.34,2.88-.66.43-.16.85-.69.99-1.14.21-.65-.19-1.22-.79-1.53-.83-.42-1.71-.65-2.69-.53-.61,1.15-.61,2.27-.4,3.85Z"/>
    <path class="cls-3" d="M230.08,188.35c0-1.15.01-2.09-.01-3.02-.07-2.83-.2-5.67-.23-8.5-.02-2.04.1-4.07.15-6.16,1.35-.59,2.68-.54,4.16-.74,1.89,2.76,3.43,5.76,5.42,9.02.03-2.21.03-3.99.07-5.77.02-.78.05-1.58.19-2.35.12-.7.63-1.03,1.36-1.07,1.59-.09,2.68.7,2.66,2.27-.04,3.54.7,7.06.28,10.62-.14,1.15.14,2.35.18,3.53.07,1.72-.31,2.11-1.99,2.18-2.08.09-3.66-.54-4.55-2.61-.65-1.49-1.54-2.88-2.53-4.27-.36,1.4-.29,2.78-.26,4.14.05,2.98-.7,3.54-3.52,2.96-.38-.08-.76-.13-1.38-.24Z"/>
    <path class="cls-3" d="M260.19,179.53c-.16,1.19-.28,2.61-.54,3.99-.24,1.26-.84,2.37-1.78,3.28-1.92,1.85-4.05,2.49-6.71,1.66-2.72-.85-4.81-2.3-5.16-5.21-.31-2.56-.4-5.22-.08-7.77.39-3.12,3.9-6.05,7.39-5.64,3.96.47,5.78,1.97,6.54,5.93.22,1.15.22,2.35.35,3.76ZM254.49,179.04c-.12-1.21-.16-2.16-.31-3.09-.1-.66-.47-1.17-1.2-1.27-.7-.1-1.47.28-1.66,1.04-.57,2.34-.58,4.69.32,6.95.16.41.81.92,1.19.88.4-.04.94-.63,1.05-1.07.32-1.2.45-2.46.61-3.45Z"/>
    <path class="cls-3" d="M205.18,191.21c1.47-.03,2.8-.07,4.12-.09.92,0,1.44.51,1.69,1.36.26.91.54,1.81.8,2.72,1.36,4.76,2.72,9.53,4.11,14.42-1.5.95-3.09.9-4.68.42-.37-.11-.67-.64-.86-1.04-.26-.55-.38-1.17-.53-1.67-2.66-.88-2.97-.9-5.68-.42-.22.7-.46,1.51-.74,2.31-.48,1.4-.97,1.72-2.45,1.65-.81-.04-.89-.07-2.28-.98,1.71-6.23,5.01-11.97,6.5-18.69ZM207.87,200.06c-.15-.02-.3-.04-.45-.06-.23.63-.48,1.25-.66,1.9-.04.13.23.49.35.49.26-.01.72-.17.73-.3.08-.66.03-1.34.03-2.02Z"/>
    <path class="cls-3" d="M193.19,179.21c0-1.02-.09-2.05,0-3.07.23-2.26,1.23-4.04,3.45-4.94.29-.12.59-.23.86-.39,2.55-1.54,4.86-.61,7.08.73,1.13.68,1.73,1.84,1.96,3.12.53,2.97.5,5.95-.03,8.93-.93,5.16-5.99,5.77-9.15,4.64-2.53-.9-3.99-2.74-4.13-5.48-.06-1.18-.02-2.36-.02-3.54-.01,0-.02,0-.03,0ZM197.67,179.19l-.2.03c.22,1.15.29,2.35.69,3.42.49,1.32,2.22,1.41,3.04.26.18-.25.33-.54.43-.83.67-1.97.84-4,.54-6.05-.23-1.54-1.7-2.14-3-1.28-.9.6-1.41,1.48-1.49,2.55-.05.62,0,1.26,0,1.88Z"/>
    <path class="cls-3" d="M214.26,176.05c.39.15.77.38,1.17.42,1.02.1,2.05.03,3.06.17,1.02.14,1.33.55,1.42,1.57.05.55.05,1.11,0,1.65-.08,1.09-.26,1.31-1.38,1.59-.68.17-1.39.3-2.09.36-.69.06-1.39.02-2.29.02-.01.83-.03,1.59-.03,2.35,0,.79.12,1.59,0,2.36-.08.47-.46,1.17-.83,1.27-1.41.35-2.8,1.14-4.57.47-.08-.69-.27-1.45-.24-2.2.09-2.83.24-5.66.4-8.49.1-1.88.24-3.77.37-5.65.1-1.51.37-1.94,1.75-1.99,2.83-.08,5.67-.1,8.5,0,1.44.05,1.81.55,1.99,1.86.29,2.01-.24,2.7-2.33,2.9-1.62.16-3.24.3-4.79.8-.03.18-.07.36-.1.53Z"/>
    <path class="cls-3" d="M184.05,175.15c-1.55-.5-3.06.66-4.31-.49-.44-1.97-.44-2.04.12-4.02.39-.03.84-.1,1.29-.11,2.91-.06,5.83-.11,8.74-.15.63,0,1.29-.07,1.88.1,1.63.48,1.05,1.91,1.08,2.99.04,1.4-.26,1.77-1.26,1.86-.85.08-1.71.02-2.54.02-.16.38-.35.61-.32.79.56,3.39-.3,6.76-.08,10.14.05.82-.08,1.58-1.01,1.92-1.09.4-2.17.48-3.16-.19-.28-.19-.46-.65-.51-1.01-.08-.62-.05-1.26-.03-1.88.1-2.99.22-5.98.31-8.97,0-.3-.11-.6-.2-1Z"/>
    <path class="cls-3" d="M218.39,191.88c1.33-.58,2.68-.33,4-.31.74.01,1.14.5,1.19,1.21.06.94.07,1.88.07,2.83,0,4.01,0,8.01,0,12.02,0,.39.02.79-.02,1.18-.08.8-.53,1.34-1.32,1.44-1.32.17-2.64.15-3.99-.02-.15-.59-.35-1.04-.35-1.48,0-5.26,0-10.53.04-15.79,0-.36.25-.72.38-1.07Z"/>
    <path class="cls-3" d="M222.63,170.25c.63-.13,1.15-.31,1.68-.34,2.73-.15,3.14.27,3.2,2.98.05,2.05.16,4.09.23,6.14.02.55.02,1.1.02,1.66,0,1.81-.01,3.61,0,5.42,0,1.23-.22,1.61-1.34,1.86-.84.19-1.7.35-2.56.43-1.03.09-1.46-.31-1.6-1.3-.04-.31-.04-.63-.03-.94.13-4.1.27-8.2.39-12.29.03-1.17,0-2.34,0-3.61Z"/>
  </g>
</svg>