<?xml version="1.0" encoding="UTF-8"?>
<svg id="Layer_1" xmlns="http://www.w3.org/2000/svg" viewBox="0 0 400 400">
  <defs>
    <style>
      .cls-1 {
        fill: #fff;
        font-family: AmericanTypewriter-CondensedBold, 'American Typewriter';
        font-size: 52.96px;
        font-weight: 700;
        letter-spacing: -.1em;
      }

      .cls-2, .cls-3 {
        fill-rule: evenodd;
      }

      .cls-3 {
        fill: #ee2e2d;
      }
    </style>
  </defs>
  <g>
    <polygon class="cls-3" points="74.55 140.53 20.96 216.68 23.53 220.04 123.77 217.95 88.7 151.33 78.17 138.68 74.55 140.53"/>
    <path class="cls-2" d="M106.18,178.46c3.51.55,2.51,5.94,6.19,6.32.03,3.87,2,5.69,4.42,7-.34,4.06,1.95,5.32,4.39,6.4.26,1-.41,1.13-1.14,1.22.82.84,2.78,1.41,1.29,2.94.47-.33.96-.65,1.76-.66.26,1.19-.05,1.87-1.12,1.84,1.16,1.52,4.54,4.81,2.59,5.86.59,1.01,1.92,1.25,3.61,1.07.26,4.86,2.91,7.18,2.83,12.42-.57-.36-2.23-1.31-1.76.65-1.06-1.14-4.15-.08-4.25-2.22-1.34,2.33-4.06-1.62-7.09,1.44-1.81.28-1.31-1.9-1.91-2.93-1.72.58.84,1.48.11,2.99-.45-.39-1.97-2.45-1.78.06-8.29-.69-20.64-.91-28.01-.2-.02-.59-.04-1.19-.06-1.78-2.71,1.55-5.84,1.8-8.34.3-1.65,2.3-12.71,2.21-16.07.58-6.59,3.66-21.09-.07-24.3,3.83-5.09-2.95-13.96.18-20.34-2.25-.58-1.87.43-2.28,1.09-3.02-2.41-.12-1-.47-1.34-4.12,2.78-.87,3.96-3.22,3.94-6.7,2.75.47,1.24-3.05,4.08-2.53-.49-1.81-.46-1.13-.11-2.98,4.03.5,1.66-4.97,5.18-4.95-.41-.59-1.39-.56-1.25-1.75,2.39.69,1.15-1.99,3.53-1.31-.03-.99-.07-1.98-.1-2.98.51-.47,1.32-.69,2.35-.67,3.61-8.93,10.23-15.03,14.07-23.74,2.06,0,2.72-1.31,2.25-3.66,1.75.09,1.78-1.4,3.53-1.31,1.57-7.96,9.19-10.26,10.68-18.27,6.55-1.37,5.11-10.19,11.5-11.72-.41-.59-1.39-.57-1.27-1.75,1.97-.09,2.93-1.12,5.35-.78,2.64,1.92-.74,3.06,3.07,2.86-2.49,2.66.61,10.57,3.31,9.41.89.17.1,4.5,3.13,4.06-.35,1.84.7,2.16.73,3.56,7.56,6.5,8.84,19.75,16.42,26.24.24,1-.42,1.14-1.16,1.24ZM71.81,150.48c-1.9.79-.51-1.93-2.42-1.12-.91.29-.44,1.9-2.33,1.28-.78,3.12-1.55,6.23-4.51,7.32-.76,3.28,1.63,3.19,2.56,4.67-4.19,2.98-4.34,12.69-11.6,9.35.65,1.78,2.84,1.9,3.13,4.07-1.59.79-2.75,1.08-3.53,1.31,2.51,2.1-.69,1.54-1.7,3.04-2.59,3.91-4.05,10.09-8.52,11.02-.21,2.89-1.28,4.96-3.99,5.51,1.46,3.1-.88.41-1.73,1.85,3.81.78-2.48,2.58.16,4.18-4.25.82-3.29,6.52-6.26,8.56-.36-1.03.59-3.52-.72-3.55-.02.93.16,2.05-1.13,1.83-.65,1.94,1.94.38,1.28,2.33-2.47.58-2.07,3.83-3.38,5.5,6.22-1.29,16.31-1.26,23.22-.83.11-.47-.03-1.18.54-1.22,23.05,2.43,41.5-.91,69.69-1.28-1.21-6.27-6.69-9.34-8.81-12.8-.64-5.3-5.63-5.9-5.77-11.71-2.68.36-2.27-2.15-1.92-3.51-2.38.03-4.47-3.85-2.54-4.68-1.87.98-2-.38-3.62-1.07-4.11-13.05-14.25-22.36-19.03-32.69,0,.6-1.03.79-1.2.03.73-.09,1.41-.22,1.16-1.22-1.66.55-1.57-.79-3-.5-2.93,3.97-4.28,9.44-9.13,11.65,1.22,2.05-.48,2.88-1.63,4.23-.69-2.37-.08-4.65.97-6.59.97-.02.38,1.65,1.25,1.74.16-2.54,2.28-7.38,4-4.9-.05-.82.22-1.33.52-1.8Z"/>
  </g>
  <g>
    <path class="cls-2" d="M280.11,173.53c1.01-.07,1.76-.12,2.6-.18.27-1.02.56-1.87.71-2.76,1.3-8.01,3.39-15.85,5.64-23.62,1.46-5.05,3.51-9.92,6.36-14.41,1.29-2.04,2.86-3.64,5.29-4.27,1.52-.4,3.01-.4,4.48.16.95.36,1.85.84,2.81,1.16,1.67.55,2.6,1.8,3.42,3.25,1.12,1.98.85,3.89-.11,5.8-.36.71-1.05,1.02-1.78.72-1.12-.45-2.2-.99-3.41-1.54-1.5,1.23-2.26,2.86-2.95,4.53-1.15,2.73-1.84,5.6-2.27,8.5-.8,5.32-2.21,10.51-3.37,15.75-.44,1.98-.75,3.96-.52,5.95,2.59.9,8.84,1.83,11.87,1.75.14-1.05.22-2.15.43-3.22.2-.98.4-2,.83-2.89.78-1.62,2.14-2.31,3.98-2.15,3.08.27,5.62,2.14,6.58,5.05.57,1.74.93,3.53.74,5.38-.72,6.95-1.44,13.9-2.2,20.85-.12,1.11-.53,2.18-.6,3.28-.17,2.64-1.84,4.44-3.38,6.3-.96,1.16-2.13,1.11-3.11.03-2.26-2.5-2.41-2.95-2.55-6.55-.17-4.35-.37-8.7-.6-13.05-.06-1.09-.03-2.24-.93-3.25-.34,0-.77-.1-1.12.02-3.36,1.12-6.71,2.27-10.06,3.41-1.41.48-2,1.45-2.23,2.92-.47,3.01-.75,6.02-.82,9.07-.17,7.4.05,14.79.39,22.18.05,1.11,0,2.23-.04,3.34-.13,3.17-1.96,5.23-4.56,6.7-1.6.9-3.28.35-4.09-1.3-.39-.8-.63-1.7-.81-2.59-1.13-5.7-1.1-11.48-1.22-17.25-.04-2.02-.18-4.04-.23-6.07-.03-1.41.02-2.83.04-4.25.04-3.04.11-6.08.12-9.11,0-.7-.16-1.41-.31-2.1-.59-2.72-.86-2.95-3.86-3.34-1.02.46-1.26,1.51-1.72,2.38-1.1,2.06-2.15,4.14-3.27,6.18-.84,1.53-1.99,2.78-3.38,3.85-3.2,2.47-6.91,2.45-10.01-.15-1.17-.98-2.04-2.16-2.81-3.52-2.01-3.55-2.97-7.28-2.69-11.35.16-2.32.08-4.67.32-6.98.47-4.39,1.7-8.58,4.56-12.05,3.09-3.76,7.15-5.1,11.94-4.3,4.17.7,6.34,3.3,6.98,7.33.32,2,.58,4,.92,6.43ZM283.92,182.05c.55.65.46,1.72.66,2.69.16.78.19,1.6.23,2.41.14,2.93.23,5.86.39,8.79.26,4.75.63,9.5.83,14.25.23,5.36.3,10.73.48,16.09.03.91.11,1.83.34,2.7.4,1.5,1.56,1.87,2.78.96.99-.74,1.74-1.67,2.22-2.83.73-1.73.83-3.52.7-5.37-.63-9.29-1.47-18.58-.43-27.89.25-2.21.65-4.4,1.05-6.59.27-1.5,1.22-2.22,2.78-2.22,3.55.02,6.55-1.97,9.86-2.82.47-.12.89-.48,1.3-.77.5-.34.94-.78,1.45-1.09,1.01-.63,1.87-.23,1.93.91.2,3.95.35,7.89.52,11.84.08,2.02.05,4.06.28,6.07.18,1.59.61,3.17,1.07,4.71.14.49.74.83,1.12,1.23,1.75-1.41,2.21-1.91,2.7-3.37,1-2.98,1.74-6.03,2.06-9.16.51-5.03.88-10.08,1.44-15.11.21-1.86.05-3.64-.36-5.42-.64-2.81-1.88-3.88-4.79-4.27-1.75-.23-2.74.29-3.23,1.98-.36,1.26-.47,2.59-.72,3.88-.15.76-.35,1.52-.54,2.34-1.39,0-2.61.12-3.79-.02-2.93-.34-5.84-.65-8.73.2-.19.06-.4.07-.6.08-1.74.13-2.5-.47-2.54-2.17-.06-2.33.18-4.62.67-6.93,1.34-6.33,2.47-12.72,3.78-19.06.67-3.28,1.8-6.44,3.52-9.33.56-.94,1.25-1.86,2.06-2.58,1.04-.93,2.14-.87,3.34-.09.57.37,1.12.76,1.65,1.13.28-.25.53-.36.56-.51.47-2.18-.23-4.16-2.01-5.29-.93-.59-1.98-1.02-3-1.46-1.84-.8-3.54-.41-5.16.68-1.39.94-2.37,2.21-3.19,3.61-3.15,5.36-5.5,11.04-6.9,17.12-.36,1.58-.74,3.16-1.14,4.73-1.4,5.39-3.02,10.72-3.7,16.27-.04.3-.11.6-.19.89-.56,2.14-1.64,3.12-3.81,3.28-2.29.16-3.09-.32-2.91-2.64.06-.81.06-1.62.06-2.43.02-2.4-.68-4.58-1.88-6.64-1.28-2.19-3.28-3.31-5.72-3.5-3.99-.32-8.39,2.5-10,6.19-.76,1.75-.89,3.7-1.8,5.42-.28.52-.3,1.17-.44,1.76-.76,2.98-.59,6.04-.79,9.06-.27,3.97.76,7.64,2.86,10.98.58.92,1.43,1.69,2.25,2.43.79.72,1.8.93,2.85.66,3.02-.77,5.79-2.02,7.42-4.85,1.85-3.22,4.16-6.27,3.92-10.33-.07-1.22.86-1.77,2.05-1.55,1.66.31,3.33.6,5.19.94Z"/>
    <path class="cls-2" d="M239.11,149.8c-2.16.33-3.8,1.14-5.42,1.88-2.48,1.13-4.84,2.52-7.3,3.71-2.28,1.1-4.6,2.11-6.93,3.1-2.36,1.01-4.37.05-6.21-1.31-1.16-.86-1.39-1.95-.65-3.23.7-1.21,1.46-2.5,2.5-3.39,2.85-2.42,5.86-4.63,9.12-6.53,5.25-3.05,10.66-5.84,15.61-9.39.82-.59,1.64-1.19,2.42-1.83,2.61-2.09,5.1-4.33,7.83-6.24,2.56-1.79,5.36-3.24,8.06-4.84,1.48-.87,2.98-1.71,4.44-2.61,1.12-.69,2.24-1.4,3.28-2.2,2.81-2.16,6.08-3.16,9.45-3.94,2.35-.54,4.64-.28,6.84.65.64.27,1.24.69,1.79,1.13.87.71,1.14,1.66.83,2.73-.19.68-.44,1.35-.75,1.98-1.13,2.26-2.32,4.5-3.44,6.77-1.1,2.22-2.55,4.03-4.67,5.45-3.63,2.42-7.28,4.74-11.32,6.47-3.26,1.39-6.44,2.96-9.65,4.45-.46.22-.89.47-1.34.72-1.16.65-1.75,1.56-1.65,2.97.13,1.72.19,3.44.13,5.17-.18,5.78-.85,11.5-2.26,17.13-1.51,6-2.56,12.09-3.25,18.24-.7,6.24-1.49,12.47-2.39,18.68-.29,1.98-.98,3.92-1.63,5.83-.68,2-2.32,3.04-4.25,3.56-1.93.53-3.62-.35-4.39-2.24-1.24-3.05-1.79-6.17-1.14-9.5.47-2.38.84-4.82.83-7.23,0-4.9.91-9.67,1.5-14.49.38-3.11.69-6.24.94-9.36.36-4.45,1.11-8.83,1.98-13.21.45-2.28.74-4.59,1.06-6.9.08-.58.01-1.19.01-2.18ZM249.87,143.24c2.28-1.44,4.41-2.79,6.54-4.14,1.68-1.07,3.15-2.59,5.39-2.48.27.01.57-.2.84-.33,4.83-2.13,9.41-4.72,13.83-7.6,1.3-.85,2.29-2.01,2.99-3.38,1.24-2.43,2.42-4.9,3.59-7.36.55-1.14.33-1.93-.79-2.55-1.52-.84-3.15-1.52-4.93-1.08-2.35.59-4.72,1.17-6.98,2.03-1.78.69-3.43,1.73-4.83,3.1-.79.77-1.64,1.5-2.54,2.12-1.59,1.08-3.24,2.08-4.87,3.09-2.68,1.64-5.35,3.26-7.88,5.14-2.76,2.04-5.83,3.65-8.42,5.94-.15.13-.36.2-.53.3-4.88,2.89-9.73,5.83-14.64,8.65-2.48,1.43-4.73,3.09-6.7,5.17-1.1,1.16-2.18,2.38-3.82,2.88-.53.16-.98.71-1.37,1.16-.6.68-.44,1.58.27,2.13,1.66,1.27,3.42,1.13,5.17.32,2.48-1.14,4.93-2.36,7.39-3.55,5.01-2.42,10.01-4.86,15.03-7.26.49-.24.99-.12,1.17.91-2.25.99-2.54,3.25-2.92,5.47-.47,2.69-1.01,5.37-1.45,8.07-.49,3-.98,6-1.32,9.01-.63,5.63-1.15,11.27-1.73,16.91-.19,1.81-.46,3.62-.64,5.43-.39,3.92-.79,7.85-1.11,11.78-.14,1.71-.14,3.44-.12,5.15.02,1.34.5,2.58,1.22,3.71,1.05,1.66,2.38,1.86,3.74.51,1.32-1.31,2.3-2.85,2.61-4.71.5-3.1,1.01-6.2,1.39-9.31.72-5.73,1.16-11.49,2.06-17.18,1.06-6.69,2.38-13.35,3.78-19.98,1.02-4.81,1.37-9.61.94-14.48-.1-1.11-.21-2.21-.33-3.59Z"/>
    <path class="cls-2" d="M200.18,187.17c-.9.44-1.6.8-2.32,1.11-1.47.65-1.98.48-3.02-.96-.23-.32-.44-.65-.77-1.13-.58.22-1.17.33-1.65.63-2.77,1.78-5.85,2.18-9.01,1.81-2.79-.33-4.51-2.1-5.35-4.73-.12-.38-.23-.81-.17-1.19.49-3.1.96-6.18,3.15-8.7,1.59-1.82,3.43-2.74,5.86-2.49.88.09,1.77.02,2.63.02.5-1.05.22-1.95-.46-2.57-.56-.5-1.38-.91-2.12-1-1.82-.22-3.62.13-5.38.67-.86.27-1.7.59-2.55.88-1.07-.67-1.26-1.64-1.33-2.65-.08-1.14.2-1.68,1.39-2,2.24-.6,4.49-1.28,6.78-1.55,3.08-.37,6.26,1.66,7.58,4.53.51,1.1.96,2.23,1.36,3.37.72,2.1,1.44,4.21,2.05,6.35.47,1.64.88,3.32,1.1,5.01.19,1.47.43,2.77,1.83,3.59.2.11.22.54.38,1ZM190.75,176.69c-4.61-2.28-6.85-.82-8.41,3.42-.98,2.68.72,4.92,3.55,4.89,1.79-.02,3.33-.77,4.82-1.65.67-.39.97-1.04.85-1.81-.24-1.59-.52-3.18-.8-4.85Z"/>
    <path class="cls-2" d="M209.07,178.96c1.14-3.36,2.14-6.22,3.08-9.1.91-2.78,1.3-5.73,2.76-8.36.32-.06.62-.21.89-.15,3.35.71,3.79,1.33,2.72,4.56-1.24,3.75-2.76,7.41-4,11.16-2.09,6.34-4.06,12.73-6.09,19.11-.8,2.51-1.62,5.01-2.41,7.52-.44,1.39-1.36,2.2-2.76,2.54-1.33.32-2.17-.42-1.96-1.83.09-.59.23-1.2.5-1.74,1.91-3.83,3.18-7.88,4.27-12,.39-1.47.86-2.91,1.28-4.37.27-.91.23-1.8-.19-2.66-1.81-3.74-3.56-7.5-5.45-11.19-.88-1.71-2.11-3.23-3.02-4.92-.66-1.23-1.18-2.58-1.56-3.93-.43-1.55.05-2.14,1.71-2.55.1-.02.2-.06.3-.08,1-.2,1.57-.04,2.01.9.97,2.11,1.81,4.28,2.74,6.42,1.32,3.07,2.66,6.12,4.03,9.17.19.42.59.76,1.16,1.48Z"/>
    <path class="cls-2" d="M344.37,169.61c-.89.11-1.47.01-1.77.26-.84.7-1.65,1.49-2.3,2.36-1.17,1.57-1.77,3.43-2.13,5.32-.77,4.07-1.38,8.17-2.1,12.26-.24,1.39-.55,2.77-.93,4.13-.4,1.45-1.46,2.4-2.75,3.08-1.23.64-2.38.45-3.29-.59-.94-1.08-1.61-2.29-1.88-3.75-.48-2.61-.47-5.23-.44-7.86.02-1.82.05-3.64.11-5.46.18-5.08,1-10.05,2.58-14.88.28-.86.65-1.72,1.1-2.5,1.07-1.85,2.67-2.13,4.28-.72.67.58,1.17,1.35,1.86,2.15.33-.23.7-.38.94-.65,2.13-2.38,4.81-2.75,7.75-2.13,2,.42,3.46,1.56,4.48,3.32,1.2,2.06,1.74,4.28,1.91,6.64.31,4.27-.14,8.48-.58,12.71-.46,4.34-1.43,8.58-2.58,12.78-.27.97-.63,1.92-.99,2.87-.42,1.09-1.03,2.02-2.37,2-1.38-.02-1.88-1.09-2.24-2.15-.38-1.15-.7-2.33-.87-3.52-.32-2.2-.6-4.41-.75-6.62-.19-2.74.22-5.44.78-8.12.72-3.46,1.38-6.93,2.17-10.93ZM333.19,162.9c-1.56,1.05-1.65,1.02-2.06,2.41-.67,2.22-1.36,4.46-1.8,6.73-1.1,5.79-.84,11.69-1.05,17.54-.06,1.8.3,3.63,1.13,5.3.74,1.5,2.25,1.66,3.03.23.67-1.22,1.22-2.57,1.51-3.93.57-2.67.87-5.39,1.39-8.06.52-2.68,1.15-5.33,1.77-7.99.44-1.9,1.35-3.61,2.54-5.13.61-.77,1.39-1.5,2.26-1.95,1.97-1.02,3.72.07,3.78,2.27.02.8-.05,1.63-.2,2.41-.55,2.98-1.04,5.98-1.77,8.92-1.06,4.32-.92,8.63-.12,12.93.18.96.76,1.86,1.25,2.73.21.37.68.59,1.14.97.3-.55.57-.87.67-1.24.76-3.04,1.66-6.05,2.2-9.13,1-5.68,1.7-11.4,1.45-17.19-.09-2.03-.45-4.01-1.37-5.86-.63-1.25-1.59-2.03-2.95-2.42-3.56-1.02-6.63-.09-9.08,3.62-.25.38-.49.77-.71,1.11-1.24-.33-1.17-1.25-1.34-2-.23-1.02-.54-1.95-1.68-2.29Z"/>
    <path class="cls-2" d="M136.87,188.24c.3-1.08.56-2,.87-3.1.94.36,1.69.64,2.42.94,2.46,1.01,4.9,1.19,7.31-.15,1.06-.58,2.21-1.02,3.22-1.69,2.67-1.78,3-5.32.66-7.55-1.53-1.47-3.24-2.75-5.25-3.56-1.5-.61-3-1.23-4.45-1.94-1.08-.53-2.08-1.23-3.12-1.85-2.09-1.24-2.93-3.18-3.26-5.51-.22-1.53.1-2.86,1.07-3.95,4.28-4.83,8.83-5.99,15.24-2.93,1.29.62,1.82,1.71,1.52,2.66-.29.92-1.88,1.42-3.17.75-1.94-1.01-3.97-1.47-6.13-1.42-2.74.06-4.04,1.36-4.29,4.05-.17,1.88.5,3.18,2.23,3.84,1.89.72,3.83,1.28,5.72,1.98,1.32.49,2.66,1,3.89,1.68,2.22,1.24,3.8,3.03,4.06,5.69.18,1.8.37,3.62.33,5.43-.11,4.32-3.32,7.02-6.62,7.63-2.88.54-5.81.81-8.72,1.11-.54.06-1.19-.2-1.67-.49-.59-.36-1.07-.91-1.87-1.61Z"/>
    <path class="cls-2" d="M175.11,188.46c-1.71.75-3.48,1.09-5.32.99-2.13-.11-3.71-1.1-4.31-3.21-.5-1.75-.9-3.53-1.14-5.33-.42-3.1-.69-6.23-1.04-9.35-.04-.39-.2-.77-.28-1.04-1.08-1.1-2.49-.2-3.64-.91-.11-.17-.36-.4-.42-.67-.69-2.98-1.76-3.76,2.59-4.21.18-.02.35-.18.72-.38.59-1.43.2-3.05.03-4.61-.11-1.05-.21-2,.43-2.9.5-.69.69-.78,2.68-1.37,1.24,1.1,1.15,2.69,1.37,4.14.17,1.1.1,2.23.21,3.33.09.86.55,1.27,1.4,1.31.71.03,1.42-.07,2.12-.03,1.55.1,2.4,1.05,2.28,2.6-.05.59-.31,1.16-.45,1.66-1.22,1.14-2.83.6-4.22,1.34-.08.27-.32.65-.3,1.01.28,3.84.65,7.67,1.54,11.43.07.3.12.6.22.88.32.97.8,1.31,1.8,1.25.91-.05,1.81-.21,2.72-.2.98.01,1.51.61,1.49,1.54,0,.5-.06,1.01-.15,1.51-.07.39-.22.76-.35,1.21Z"/>
    <path class="cls-2" d="M359.92,180.99c.29-4.34.59-8.67.88-13,.11-1.64.76-2.93,2.35-3.59,1.31-.55,2.44-1.37,3.56-2.25,1.1-.86,2.42-1.46,3.66-2.14.35-.19.76-.37,1.14-.38,2.72-.03,5.44-.14,8,1.18,3.55,1.82,5.68,4.77,6.97,8.4.44,1.23.6,2.56.89,3.84.31,1.41.25,2.81-.11,4.21-.93,3.64-2.2,7.14-3.82,10.54-1.69,3.55-4.27,6.4-7.26,8.83-1.46,1.18-3.34,1.86-5.07,2.67-.97.45-2.03.21-2.95-.21-3.72-1.71-6.71-4.07-7.56-8.41-.5-2.6-.63-5.22-.58-7.85.01-.61,0-1.22,0-1.82-.03,0-.07,0-.1,0ZM361.36,182.75c.06,0,.13,0,.19,0,0,1.52-.05,3.04,0,4.55.16,4.3,2.26,7.43,5.79,9.76,1.69,1.12,3.43,1.21,5.2.53,1.02-.39,2.06-.95,2.84-1.7,2.33-2.24,4.68-4.49,5.96-7.59.5-1.21,1.16-2.36,1.8-3.52,1.18-2.15,2-4.45,2.45-6.84.82-4.32.22-8.39-2.37-12.13-3.6-5.2-11.69-5.96-16.07-1.85-.89.84-1.78,1.62-3.05,1.87-.9.19-1.29.9-1.41,1.78-.1.7-.26,1.4-.32,2.1-.35,4.34-.68,8.67-1.02,13.01Z"/>
    <path class="cls-2" d="M321.19,154.21c-.06,3.25-2.73,6.6-6.97,5.88-1.38-.24-2.47-1.01-3.12-2.2-1.83-3.35-1.56-7.16.91-10.17.53-.65,1.25-.98,2.12-.99,1.25,0,2.39.26,3.44.96,2.39,1.59,3.39,3.91,3.62,6.53ZM319.63,153.96c-.09-.54-.15-1.47-.43-2.32-.39-1.2-1.11-2.16-2.52-2.31-.5-.06-.99-.18-1.48-.3-.91-.23-1.56.18-2.11.84-1.67,1.98-2,5.14-.7,7.4.23.41.67.79,1.09.97,3.12,1.36,6.11-.56,6.15-4.28Z"/>
    <path class="cls-2" d="M283.92,182.05c-1.86-.34-3.52-.63-5.19-.94-1.19-.22-2.12.34-2.05,1.55.23,4.06-2.07,7.11-3.92,10.33-1.63,2.83-4.39,4.08-7.42,4.85-1.05.27-2.06.06-2.85-.66-.81-.75-1.67-1.51-2.25-2.43-2.1-3.34-3.13-7-2.86-10.98.2-3.02.04-6.08.79-9.06.15-.59.17-1.24.44-1.76.91-1.71,1.04-3.66,1.8-5.42,1.61-3.69,6-6.51,10-6.19,2.44.2,4.44,1.31,5.72,3.5,1.2,2.05,1.9,4.24,1.88,6.64,0,.81,0,1.62-.06,2.43-.18,2.32.62,2.81,2.91,2.64,2.17-.16,3.24-1.14,3.81-3.28.08-.29.15-.59.19-.89.68-5.55,2.3-10.89,3.7-16.27.41-1.57.78-3.15,1.14-4.73,1.4-6.07,3.75-11.76,6.9-17.12.82-1.4,1.8-2.68,3.19-3.61,1.63-1.09,3.32-1.48,5.16-.68,1.02.44,2.06.87,3,1.46,1.78,1.13,2.48,3.1,2.01,5.29-.03.16-.28.27-.56.51-.52-.36-1.08-.76-1.65-1.13-1.21-.78-2.3-.84-3.34.09-.81.73-1.5,1.64-2.06,2.58-1.72,2.9-2.85,6.05-3.52,9.33-1.31,6.34-2.44,12.72-3.78,19.06-.49,2.31-.73,4.6-.67,6.93.04,1.7.81,2.3,2.54,2.17.2-.02.41-.02.6-.08,2.89-.86,5.8-.54,8.73-.2,1.18.14,2.4.02,3.79.02.19-.83.39-1.58.54-2.34.25-1.29.36-2.62.72-3.88.49-1.69,1.48-2.22,3.23-1.98,2.91.39,4.15,1.46,4.79,4.27.41,1.78.57,3.56.36,5.42-.56,5.03-.93,10.07-1.44,15.11-.31,3.13-1.06,6.18-2.06,9.16-.49,1.46-.94,1.96-2.7,3.37-.38-.4-.97-.75-1.12-1.23-.46-1.54-.89-3.12-1.07-4.71-.23-2.01-.2-4.04-.28-6.07-.17-3.95-.32-7.89-.52-11.84-.06-1.14-.92-1.54-1.93-.91-.51.32-.95.75-1.45,1.09-.41.29-.83.65-1.3.77-3.31.85-6.31,2.84-9.86,2.82-1.57,0-2.51.72-2.78,2.22-.4,2.19-.8,4.38-1.05,6.59-1.05,9.31-.21,18.6.43,27.89.13,1.84.03,3.64-.7,5.37-.49,1.16-1.23,2.09-2.22,2.83-1.22.91-2.38.54-2.78-.96-.23-.87-.31-1.8-.34-2.7-.17-5.36-.25-10.73-.48-16.09-.2-4.75-.57-9.5-.83-14.25-.16-2.93-.25-5.86-.39-8.79-.04-.81-.07-1.62-.23-2.41-.2-.97-.11-2.04-.66-2.69ZM272.83,173.76c0-.81.02-1.62,0-2.43-.07-1.88-1.02-3.3-2.58-4.23-2.49-1.49-4.63-1.08-6.15,1.59-.54.95-.83,2.07-1.09,3.15-1.19,4.89-.98,9.86-.7,14.82.05.89.32,1.8.62,2.65.37,1.05.8,2.26,2.09,2.37,1.24.11,2.01-.91,2.56-1.87.7-1.23,1.36-2.5,1.84-3.83,1.46-3.97,3.57-7.78,3.41-12.21Z"/>
    <path class="cls-2" d="M249.87,143.24c.13,1.38.24,2.48.33,3.59.42,4.87.07,9.68-.94,14.48-1.4,6.63-2.72,13.29-3.78,19.98-.9,5.69-1.34,11.45-2.06,17.18-.39,3.11-.89,6.21-1.39,9.31-.3,1.87-1.29,3.4-2.61,4.71-1.36,1.35-2.68,1.15-3.74-.51-.72-1.13-1.2-2.37-1.22-3.71-.02-1.72-.02-3.44.12-5.15.32-3.93.72-7.86,1.11-11.78.18-1.81.46-3.61.64-5.43.58-5.64,1.1-11.28,1.73-16.91.34-3.02.83-6.02,1.32-9.01.44-2.7.98-5.38,1.45-8.07.39-2.22.68-4.47,2.92-5.47-.17-1.03-.68-1.14-1.17-.91-5.02,2.4-10.02,4.84-15.03,7.26-2.46,1.19-4.91,2.41-7.39,3.55-1.75.8-3.52.95-5.17-.32-.71-.54-.87-1.45-.27-2.13.4-.45.84-.99,1.37-1.16,1.65-.51,2.72-1.72,3.82-2.88,1.97-2.08,4.22-3.74,6.7-5.17,4.91-2.83,9.76-5.76,14.64-8.65.17-.1.38-.17.53-.3,2.59-2.3,5.66-3.9,8.42-5.94,2.53-1.87,5.2-3.5,7.88-5.14,1.64-1.01,3.28-2.01,4.87-3.09.91-.62,1.76-1.34,2.54-2.12,1.4-1.37,3.05-2.42,4.83-3.1,2.26-.86,4.63-1.45,6.98-2.03,1.78-.44,3.41.23,4.93,1.08,1.12.62,1.34,1.41.79,2.55-1.18,2.46-2.35,4.93-3.59,7.36-.7,1.37-1.69,2.53-2.99,3.38-4.42,2.88-8.99,5.47-13.83,7.6-.28.12-.57.34-.84.33-2.24-.12-3.71,1.41-5.39,2.48-2.14,1.35-4.27,2.7-6.54,4.14Z"/>
    <path class="cls-2" d="M333.19,162.9c1.14.34,1.45,1.27,1.68,2.29.17.75.1,1.67,1.34,2,.22-.34.46-.73.71-1.11,2.45-3.7,5.52-4.63,9.08-3.62,1.35.39,2.32,1.17,2.95,2.42.92,1.84,1.28,3.82,1.37,5.86.25,5.79-.45,11.51-1.45,17.19-.54,3.08-1.43,6.09-2.2,9.13-.09.37-.37.69-.67,1.24-.46-.38-.93-.6-1.14-.97-.49-.87-1.07-1.78-1.25-2.73-.8-4.31-.94-8.61.12-12.93.73-2.94,1.21-5.94,1.77-8.92.15-.79.22-1.61.2-2.41-.06-2.2-1.8-3.3-3.78-2.27-.86.45-1.65,1.18-2.26,1.95-1.19,1.52-2.1,3.23-2.54,5.13-.62,2.66-1.25,5.31-1.77,7.99-.52,2.68-.81,5.4-1.39,8.06-.29,1.36-.84,2.71-1.51,3.93-.78,1.43-2.29,1.27-3.03-.23-.83-1.67-1.2-3.5-1.13-5.3.21-5.85-.05-11.75,1.05-17.54.43-2.28,1.12-4.51,1.8-6.73.42-1.39.5-1.36,2.06-2.41Z"/>
    <path class="cls-2" d="M361.36,182.75c.34-4.34.67-8.68,1.02-13.01.06-.7.22-1.4.32-2.1.12-.87.51-1.59,1.41-1.78,1.27-.26,2.16-1.04,3.05-1.87,4.38-4.11,12.47-3.35,16.07,1.85,2.59,3.73,3.18,7.81,2.37,12.13-.45,2.39-1.28,4.69-2.45,6.84-.63,1.15-1.29,2.3-1.8,3.52-1.28,3.1-3.62,5.35-5.96,7.59-.78.75-1.82,1.31-2.84,1.7-1.77.68-3.52.59-5.2-.53-3.53-2.33-5.64-5.47-5.79-9.76-.06-1.52,0-3.04,0-4.55-.06,0-.13,0-.19,0ZM380.38,173.6c0-2.44-.59-4.26-2.02-5.43-2.42-1.97-4.63-2.13-6.39.59-.11.17-.22.34-.32.51-2.85,4.54-4.32,9.54-4.71,14.84-.12,1.58.14,3.23.49,4.8.65,2.95,2.74,3.7,5.16,1.97,1.4-1,2.51-2.24,3.43-3.75,2.36-3.89,3-8.32,4.25-12.56.11-.38.09-.8.11-.97Z"/>
    <path class="cls-2" d="M319.63,153.96c-.04,3.72-3.03,5.65-6.15,4.28-.43-.19-.86-.57-1.09-.97-1.3-2.26-.97-5.42.7-7.4.55-.66,1.2-1.07,2.11-.84.49.12.98.25,1.48.3,1.41.15,2.13,1.11,2.52,2.31.28.85.34,1.78.43,2.32Z"/>
    <path class="cls-2" d="M272.83,173.76c.17,4.43-1.95,8.23-3.41,12.21-.49,1.33-1.14,2.6-1.84,3.83-.56.97-1.32,1.98-2.56,1.87-1.28-.11-1.72-1.32-2.09-2.37-.3-.85-.57-1.76-.62-2.65-.28-4.96-.49-9.93.7-14.82.26-1.08.55-2.2,1.09-3.15,1.52-2.66,3.66-3.08,6.15-1.59,1.56.93,2.51,2.35,2.58,4.23.03.81,0,1.62,0,2.43ZM263.63,181.57c.2,2.56.33,4.47.52,6.38.08.77-.06,1.68.81,2.16.55.3,1.34-.35,1.96-1.55.05-.09.09-.18.13-.27,1.2-3.11,2.5-6.19,3.58-9.34.86-2.51.89-5.17.76-7.81-.09-1.73-.57-2.22-2.32-2.69-.2-.05-.39-.12-.59-.16-1.19-.21-2,.06-2.49,1.2-.63,1.47-1.24,3.01-1.51,4.58-.45,2.68-.63,5.41-.86,7.5Z"/>
    <path class="cls-2" d="M380.38,173.6c-.02.17,0,.58-.11.97-1.25,4.24-1.89,8.67-4.25,12.56-.92,1.51-2.03,2.75-3.43,3.75-2.42,1.73-4.51.98-5.16-1.97-.35-1.56-.6-3.22-.49-4.8.39-5.3,1.86-10.3,4.71-14.84.11-.17.21-.34.32-.51,1.76-2.72,3.97-2.56,6.39-.59,1.43,1.16,2.02,2.99,2.02,5.43ZM368.55,186.17c.13.82.19,1.73.43,2.59.28,1,1.27,1.33,2.18.81.34-.2.69-.43.97-.71,2.1-2.09,3.88-4.37,4.61-7.33.34-1.37.64-2.76,1.1-4.09.81-2.33.14-4.59-.16-6.87-.11-.84-.69-1.42-1.55-1.68-1.63-.5-2.37-.28-3.28,1.25-.67,1.12-1.23,2.31-1.73,3.52-1.61,3.97-1.85,8.23-2.57,12.5Z"/>
  </g>
  <text class="cls-1" transform="translate(60.68 206.38)"><tspan x="0" y="0">7</tspan></text>
</svg>