<?xml version="1.0" encoding="UTF-8"?>
<svg id="Layer_1" xmlns="http://www.w3.org/2000/svg" viewBox="0 0 400 400">
  <defs>
    <style>
      .cls-1, .cls-2 {
        fill: #fff;
      }

      .cls-1, .cls-3, .cls-4 {
        fill-rule: evenodd;
      }

      .cls-2 {
        font-family: AmericanTypewriter-CondensedBold, 'American Typewriter';
        font-size: 52.96px;
        font-weight: 700;
        letter-spacing: -.1em;
      }

      .cls-4 {
        fill: #ee2e2d;
      }
    </style>
  </defs>
  <g>
    <polygon class="cls-4" points="77.31 150.9 23.71 227.05 26.28 230.4 126.52 228.32 91.45 161.7 80.93 149.04 77.31 150.9"/>
    <path class="cls-3" d="M108.94,188.83c3.51.55,2.51,5.94,6.19,6.32.03,3.87,2,5.69,4.42,7-.34,4.06,1.95,5.32,4.39,6.4.26,1-.41,1.13-1.14,1.22.82.84,2.78,1.41,1.29,2.94.47-.33.96-.65,1.76-.66.26,1.19-.05,1.87-1.12,1.84,1.16,1.52,4.54,4.81,2.59,5.86.59,1.01,1.92,1.25,3.61,1.07.26,4.86,2.91,7.18,2.83,12.42-.57-.36-2.23-1.31-1.76.65-1.06-1.14-4.15-.08-4.25-2.22-1.34,2.33-4.06-1.62-7.09,1.44-1.81.28-1.31-1.9-1.91-2.93-1.72.58.84,1.48.11,2.99-.45-.39-1.97-2.45-1.78.06-8.29-.69-20.64-.91-28.01-.2-.02-.59-.04-1.19-.06-1.78-2.71,1.55-5.84,1.8-8.34.3-1.65,2.3-12.71,2.21-16.07.58-6.59,3.66-21.09-.07-24.3,3.83-5.09-2.95-13.96.18-20.34-2.25-.58-1.87.43-2.28,1.09-3.02-2.41-.12-1-.47-1.34-4.12,2.78-.87,3.96-3.22,3.94-6.7,2.75.47,1.24-3.05,4.08-2.53-.49-1.81-.46-1.13-.11-2.98,4.03.5,1.66-4.97,5.18-4.95-.41-.59-1.39-.56-1.25-1.75,2.39.69,1.15-1.99,3.53-1.31-.03-.99-.07-1.98-.1-2.98.51-.47,1.32-.69,2.35-.67,3.61-8.93,10.23-15.03,14.07-23.74,2.06,0,2.72-1.31,2.25-3.66,1.75.09,1.78-1.4,3.53-1.31,1.57-7.96,9.19-10.26,10.68-18.27,6.55-1.37,5.11-10.19,11.5-11.72-.41-.59-1.39-.57-1.27-1.75,1.97-.09,2.93-1.12,5.35-.78,2.64,1.92-.74,3.06,3.07,2.86-2.49,2.66.61,10.57,3.31,9.41.89.17.1,4.5,3.13,4.06-.35,1.84.7,2.16.73,3.56,7.56,6.5,8.84,19.75,16.42,26.24.24,1-.42,1.14-1.16,1.24ZM74.57,160.85c-1.9.79-.51-1.93-2.42-1.12-.91.29-.44,1.9-2.33,1.28-.78,3.12-1.55,6.23-4.51,7.32-.76,3.28,1.63,3.19,2.56,4.67-4.19,2.98-4.34,12.69-11.6,9.35.65,1.78,2.84,1.9,3.13,4.07-1.59.79-2.75,1.08-3.53,1.31,2.51,2.1-.69,1.54-1.7,3.04-2.59,3.91-4.05,10.09-8.52,11.02-.21,2.89-1.28,4.96-3.99,5.51,1.46,3.1-.88.41-1.73,1.85,3.81.78-2.48,2.58.16,4.18-4.25.82-3.29,6.52-6.26,8.56-.36-1.03.59-3.52-.72-3.55-.02.93.16,2.05-1.13,1.83-.65,1.94,1.94.38,1.28,2.33-2.47.58-2.07,3.83-3.38,5.5,6.22-1.29,16.31-1.26,23.22-.83.11-.47-.03-1.18.54-1.22,23.05,2.43,41.5-.91,69.69-1.28-1.21-6.27-6.69-9.34-8.81-12.8-.64-5.3-5.63-5.9-5.77-11.71-2.68.36-2.27-2.15-1.92-3.51-2.38.03-4.47-3.85-2.54-4.68-1.87.98-2-.38-3.62-1.07-4.11-13.05-14.25-22.36-19.03-32.69,0,.6-1.03.79-1.2.03.73-.09,1.41-.22,1.16-1.22-1.66.55-1.57-.79-3-.5-2.93,3.97-4.28,9.44-9.13,11.65,1.22,2.05-.48,2.88-1.63,4.23-.69-2.37-.08-4.65.97-6.59.97-.02.38,1.65,1.25,1.74.16-2.54,2.28-7.38,4-4.9-.05-.82.22-1.33.52-1.8Z"/>
  </g>
  <text class="cls-2" transform="translate(63.44 216.76)"><tspan x="0" y="0">8</tspan></text>
  <g>
    <path class="cls-1" d="M267.87,77.34s-6.61-3.3-11.01.55c-4.41,3.85-23.68,10.46-15.97,73.24,0,0,2.75,12.12-15.42,12.12s-63.33-4.41-74.34-1.65c-11.01,2.75-16.52,17.62-13.77,28.09,2.75,10.46.55,19.83,6.06,26.43,5.51,6.61,20.38,10.46,33.04,11.56,12.67,1.1,19.27.55,20.38,7.71,1.1,7.16,2.56,13.94,1.65,19.83-2.29,14.77,11.49,2.29,18.53,11.99,7.27,10.01,2.94,16.09,7.9,23.25,4.96,7.16,2.2,11.56,19.27,12.12,17.07.55,23.68,1.65,30.29.55,6.61-1.1,19.83-2.2,20.93-11.01s-2.2-19.83,3.3-23.68c5.51-3.85,18.72-1.65,20.93-7.71,2.2-6.06-2.2-25.33,2.2-26.98,4.41-1.65,16.52-2.75,28.64-3.85,12.12-1.1,22.03,4.41,26.43-2.75,4.41-7.16,8.81-13.77,8.26-25.33-.55-11.56.55-23.68-2.75-29.74-3.3-6.06-6.61-9.91-21.48-9.91s-33.04-1.1-45.71-1.65c-12.67-.55-31.39,6.61-35.24.55-3.85-6.06,4.41-33.04,2.75-52.87-1.65-19.83-12.12-32.49-14.87-30.84Z"/>
    <g>
      <path d="M299.52,198.3c.11-5.64.86-10.45,3.01-14.91,1.34-2.77,2.93-5.34,6.16-6.56,3.31-1.24,5.7-.42,7.99,2.11,6.14,6.78,8.14,14.73,7.19,23.65-.42,3.99-2.35,7-5.47,9.41-3.27,2.53-6.94,2.72-10.68,1.74-2.25-.59-3.75-2.55-4.86-4.47-2.08-3.58-3.8-7.35-3.34-10.98ZM315.87,192.85c0-1.5.11-3-.03-4.49-.11-1.19-.35-2.44-.85-3.51-1.32-2.81-4.19-2.95-5.94-.36-3.2,4.74-4.25,9.98-3.12,15.53.42,2.05,1.46,4.05,2.54,5.88,1.27,2.17,3.24,2.05,4.67-.09.36-.54.62-1.15.91-1.74,1.77-3.55,1.99-7.36,1.82-11.23Z"/>
      <path d="M299.22,213.37c-1.23.24-2.04.37-2.84.55-4.47,1.03-7.15-.8-8.03-5.32-.45-2.29-1.1-4.53-1.73-6.78-.16-.58-.55-1.1-1.37-1.59-.22,4.41-.44,8.82-.65,13.12-2.92.78-5.51.58-7.36-.56,1.9-1.44,1.77-3.48,1.7-5.53-.27-8.61-.44-17.22-.79-25.83-.07-1.71-.74-3.4-1.17-5.26,6.32-1.7,12.12-.45,17.37,3.42,2.36,1.74,3.28,4.18,2.82,7.18-.65,4.19-2.33,7.68-6.2,9.76,1.83,4.39,3.54,8.71,5.44,12.94.59,1.3,1.7,2.37,2.83,3.9ZM284.59,192.42c3.05.44,5.07-1.32,5.32-4.51.23-2.99-2.19-5.8-5.32-5.95v10.46Z"/>
      <path d="M211.14,197.09c3.76,4.3,3.99,9.92,6.65,14.58-6.04,1.47-8.42.18-10.4-5.31-.63-1.75-.78-3.66-1.25-5.47-.29-1.1-.77-2.14-1.55-3.13-.95,4.91-1.4,9.74-.18,15.02-2.55-.03-4.9.71-7.73.08,1.81-2.8,1.31-5.53,1.3-8.2-.04-7.31-.05-14.62-.21-21.92-.04-1.81-.58-3.61-.94-5.7,4.94-.74,9.97-1.22,14.82.66,4.33,1.68,6.31,6.28,5.09,10.93-.81,3.11-2.67,5.96-5.59,8.47ZM203.47,192.2c5.45-.48,6.49-1.59,6.17-6.18-.21-3.07-1.87-4.41-5.38-4.23-.26,3.38-.51,6.78-.79,10.41Z"/>
      <path d="M171.52,176.49c2.71-.68,5.41-.53,8.01-.27.2.45.37.66.33.78-2.49,6.81-1.7,13.83-1.35,20.82.06,1.12.08,2.26.3,3.35.29,1.46.72,2.9,1.19,4.31.36,1.08,1.14,1.66,2.37,1.52,1.14-.13,1.96-.66,2.23-1.81.32-1.36.71-2.73.82-4.12.49-5.97.98-11.94,1.27-17.91.08-1.62-.44-3.3-.83-4.92-.4-1.68-.24-2.18,1.37-2.2,2.2-.02,4.45-.19,6.72.6-.14.47-.14.91-.35,1.13-1.28,1.29-1.13,2.85-1.03,4.47.35,5.6.82,11.2.85,16.8.01,2.55-.56,5.24-1.46,7.64-2.01,5.39-8.89,7.88-14.03,5.34-1.76-.87-2.88-2.32-3.71-4.06-1.94-4.05-2.69-8.37-2.71-12.8-.02-4.39.24-8.79.3-13.18.02-1.66-.16-3.32-.28-5.5Z"/>
      <path d="M266.89,207.2v-9.39c-1.42.26-2.64.48-4.2.77-.46-2.2-.92-4.42-1.47-7.07,3.73.06,7.11.05,10.67.78.47,6.55.94,13.03,1.42,19.69-1.73.16-3.46.31-5.2.48-1.67.16-3.35.56-5.02.48-3.96-.18-6.76-2.7-9.12-5.47-1.88-2.21-2.85-4.99-3.05-8.01-.39-5.81.66-11.39,2.63-16.8,1.35-3.69,3.89-6.06,7.96-6.66,3.38-.5,6.7-.94,9.56,1.51v7.83c-.8-.73-1.2-1.01-1.5-1.37-2.47-3.08-6.11-3.04-8.51.15-2.38,3.18-3.32,6.82-3.66,10.74-.32,3.64.6,6.73,2.73,9.73,1.72,2.42,3.67,3.29,6.73,2.61Z"/>
      <path d="M323.38,177.35c2.07-.4,3.98-.76,5.89-1.12,1.76-.33,2.1-.11,2.45,1.68,1.17,5.96,2.33,11.93,3.51,17.89.16.82.36,1.63,1.01,2.53.66-3.54,1.23-7.1,2-10.62.79-3.63,1.77-7.23,2.76-11.23,1.75.21,3.49.35,5.2.65,1.12.2,1.52.96,1.07,2.1-2.83,7.15-3.05,14.8-4.26,22.26-.54,3.32-1.02,6.65-1.48,9.99-.21,1.55-.93,2.27-2.57,2.29-1.76.02-3.52.33-5.29.48-1.37.12-2.02-.54-2.18-1.93-.41-3.53-1.01-7.04-1.36-10.57-.73-7.31-2.66-14.32-5.17-21.2-.37-1.03-.97-1.97-1.58-3.19Z"/>
      <path d="M357.89,196.79c.26,4.08.49,7.69.73,11.51,2.93.36,5.58.21,8.23-.41,2.23-.53,2.43-.39,2.43,1.91,0,1.54.34,3.16-.62,4.68-.45-.03-.83.02-1.15-.09-3.57-1.16-7.15-1.11-10.81-.44-1.88.35-3.84.3-6.13.45.18-1.18.27-1.88.39-2.57.3-1.73.88-3.45.89-5.17.03-7.76-.06-15.53-.2-23.29-.03-1.57-.41-3.14-.63-4.71-.1-.7-.22-1.41-.35-2.21.69-.13,1.16-.35,1.57-.27,4.28.8,8.58.36,12.87.26.75-.02,1.53-.08,2.23.11.56.15,1.31.55,1.48,1.02.54,1.46.84,3.01,1.31,4.83-3.89.77-7.62-.62-11.23.22v8.73c3.02-.21,5.73-.41,8.38-.59-.35,2.81-.66,5.25-1.01,8.05-1.34-.82-2.45-1.86-3.75-2.19-1.28-.33-2.74.06-4.65.17Z"/>
      <path d="M166.25,176.82c.53,3.08.24,7.38-.71,9.17-1.21-3.04-3.57-3.98-6.5-3.93-1.27.02-2.54.14-3.04,1.5-.54,1.46-.65,3.06.66,4.16,1.57,1.31,3.28,2.46,5.01,3.56,3.45,2.2,6.1,4.97,6.74,9.19.42,2.76-.09,5.44-1.38,7.89-1.9,3.61-5.52,4.2-9.06,4.75-2.8.43-5.35-.54-7.81-1.77-1.3-.65-2.03-1.62-1.91-3.12.16-2.08-.19-4.25.87-6.5.56.52,1.05.8,1.31,1.23,1.3,2.18,3.39,3.21,5.69,3.76,1.4.33,3.05.73,4.13-.79,1.16-1.63,1.49-3.44.56-5.29-1.08-2.15-2.87-3.67-4.83-4.99-.46-.31-1-.53-1.45-.86-5.5-4.08-6.29-6.73-5.48-13.04.53-4.16,4.44-6.56,9.03-5.96.92.12,1.81.5,2.74.6,1.74.2,3.49.29,5.44.43Z"/>
      <path d="M228.96,213.75c-3.36.88-6.31.76-8.42-.38,1.82-2.42,1.23-5.24,1.26-7.98.08-7.29.22-14.59.22-21.88,0-2.01-.42-4.02-.69-6.38,1.69-.11,3.67-.3,5.65-.37,3.08-.11,6.17-.13,9.25-.19,1.41-.03,2.29.58,2.62,1.99.33,1.4.74,2.79,1.22,4.6-4.08-1.29-7.83-.87-11.74-.78v7.45c2.78,1.95,5.41.83,8.39.06-.01,2.98.14,5.58-.8,8.41-1.54-.82-2.71-1.74-4.03-2.08-1.3-.33-2.75-.07-4.06-.07-1.21,3.67-.56,13.55,1.13,17.6Z"/>
      <path d="M273.84,285.01c-1.45,1.01-2.25,3.05-4.11,2.24-.8-.35-1.12-1.8-1.62-2.7-2.13,2.78-2.43,2.84-4.23.64-.63.4-1.21.92-1.89,1.16-.67.23-1.51.4-2.16.2-2.71-.81-2.7-.86-5.37-.53-.5,1.79-.95,3.69-1.58,5.53-.36,1.03-.91,2.05-1.58,2.9-.65.83-1.59,1.33-3.03.45.64-1.63,1.37-3.29,1.94-5,.59-1.77,1.02-3.59,1.56-5.5-.76-.56-1.44-.77-2.14.04-.12.14-.2.32-.32.46-2.37,2.83-2.85,2.86-5.48.26-1.55.86-3,2.5-5.03,1.31-1.88-1.1-1.4-3.02-1.27-4.75-1.17-.1-2.22-.18-3.48-.28.56-2.01,2.12-2.57,3.38-3.01,1.87-.65,3.31-1.6,4.15-3.3,2.51-.12,1.13,1.54,1.25,2.47,2.42.42,4.74,1.06,7.04.33.35,1.79.59,3.02.83,4.22,1.72-.06,2.09-1.2,2.64-2.15,1.12-1.94,2.2-3.91,3.4-5.8.45-.71,1.2-1.24,1.81-1.85.2.12.39.24.59.36-.13.54-.16,1.14-.42,1.61-1,1.8-2.1,3.54-3.12,5.33-.73,1.29-.7,1.31.12,2.97,2.66.1,3.45-2.58,5.39-3.8,1.45,1.8-.45,3.65.4,5.46,2.07-.34,1.82-2.83,3.51-3.79.49.28,1.08.63,1.68.98,3.91-1.49,4.45-1.2,4.96,2.94.55-.49,1.01-.83,1.39-1.24.38-.41.66-.91,1.02-1.34,2.58-3,4.84-2.94,7.34.37.61-.17,1.34-.29,1.99-.59.64-.3,1.19-.79,2.13-1.43,0,.88.13,1.43-.04,1.85-.16.39-.59.75-.99.95-2.42,1.22-4.99,2.06-7.08,4-1.18,1.09-2.32.3-3.58-1.96ZM240.81,285.01c1.4-1.73,2.8-3.45,4.24-5.24-3.46-1.34-4.81.72-4.24,5.24ZM248.12,280.49c-1.26.97-2.14,1.8-1.85,3.52,1.63-.71,2.19-1.7,1.85-3.52ZM277.16,284.33c.21.12.42.24.63.37.86-.63,1.76-1.24.6-3.01-.51,1.1-.87,1.87-1.23,2.64Z"/>
      <path d="M259.45,148.53c-1.54,1.15-2.94,2.2-4.34,3.25-1.83-2.08-5.29-14.58-4.9-17.21,1.71-1.03,3.49-1.76,4.78-3,1.22-1.18,1.92-2.89,2.98-4.58,1.1,1.7.51,3.39.64,4.96.14,1.68.13,3.36.26,5.04.13,1.67.34,3.33.72,5,.91-2.23.62-4.62.97-6.92.35-2.32-.36-4.75.56-7.45,2.18,3.03,3.37,6.64,7.82,6.91-.09.96-.07,1.87-.26,2.72-1.08,4.63-2.22,9.25-3.35,13.87-.04.16-.21.29-.51.71-1.68-1.04-3.4-2.09-5.36-3.3Z"/>
      <path d="M269.79,109.05c-1.65,1.15-2.93.19-4.04-.73-2.13-1.75-3.72-3.95-4.67-6.56-.65-1.8-1.16-3.66-1.94-6.14-.71,1.71-1.13,2.91-1.69,4.04-1.17,2.34-2.31,4.69-3.66,6.93-.98,1.62-2.58,2.31-4.5,2.1-1.2-5.77,4.67-16.79,10.99-20.65,3.6,2.19,5.64,5.53,6.7,9.55.58,2.17,1,4.38,1.53,6.56.37,1.54.8,3.06,1.28,4.9Z"/>
      <path d="M257.77,114.25c1.73,8.97-1.16,15.42-7.58,18.39-.16-.21-.46-.41-.47-.63-.21-2.96-.38-5.92-.55-8.57,1.79-1.47,3.49-2.6,4.86-4.05,1.32-1.4,2.3-3.12,3.73-5.13Z"/>
      <path d="M261.93,114.91c2.06,3.12,3.29,6.99,7.51,8.21-.5,3.23-.99,6.33-1.48,9.44-1.88.63-2.73-.57-3.49-1.73-2.04-3.1-3.4-6.45-3.35-10.23.02-1.85.14-3.7.22-5.55.2-.05.39-.09.59-.14Z"/>
      <path d="M249.17,119.71v-8.39c1.68-.96,3.41-1.68,4.79-2.82,1.34-1.1,2.33-2.64,3.52-4.04,2.6,6.91-1.89,13.04-8.31,15.25Z"/>
      <path d="M261.04,103.85c1.26,2.02,2.01,3.96,3.38,5.22,1.36,1.25,3.35,1.81,4.95,2.61v7.79c-4.91-1.84-9.75-8.61-8.32-15.63Z"/>
      <path d="M227.66,246.79c2.34.42,2.12,3.1,3.74,4.21,1.49-1.21.98-3.75,3.08-4.86,1.57,2.43,1.01,4.91,1.15,7.31-.3.06-.6.12-.9.19-.28-.94-.56-1.88-.97-3.22-.67,1.46-1.19,2.58-1.91,4.14-1.02-1.31-1.79-2.29-2.75-3.52-.29,1.22-.55,2.28-.84,3.49-1.47-1.54-1.64-4.4-.62-7.73Z"/>
      <path d="M215.74,232.04c1.28,0,2.49-.13,3.67.03,1.69.23,2.25,1.29,1.92,2.98-.13.66-.08,1.4.07,2.06.33,1.41-.19,2.36-1.36,3.07-1.21.74-3.23.87-4,.2-.26-.23-.55-.61-.56-.92-.06-2.39-.64-4.82.26-7.41ZM217.21,239.21c1.31.03,2.69.06,2.55-1.4-.13-1.28-1.46-.95-2.55-.82v2.22ZM219.98,233.81c-1.27-.31-2.26-.9-2.78,1.02,1.11.33,1.97.43,2.78-1.02Z"/>
      <path d="M255.06,252.48c-.31-.58-.63-1.17-.97-1.8,3.57-.89,4.29-.03,3.64,4.33-.57-.33-1.05-.61-1.63-.94-2.53,1.04-4,.94-5.18-.42-1.24-1.44-1.35-3.85-.25-5.48,1-1.48,2.23-1.99,3.83-1.59,1.6.4,2.09,1.05,2.18,3.1-1.53-.68-2.78-3.06-4.65-.86-.88,1.04-.93,2.61-.15,3.63.75.99,1.35,1.01,3.19.03Z"/>
      <path d="M232.37,236.64c-1.37.13-2.08.22-2.79.25-.73.03-1.46,0-2.39,0-.08.73-.16,1.42-.29,2.48,1.63-.15,3-.28,4.61-.43-1.41,1.81-4.22,2.57-5.51,1.63-.32-.23-.61-.76-.61-1.15.01-1.95.09-3.91.22-5.86.1-1.47,1.19-1.72,2.4-1.72,1.65,0,3.29,0,4.97,0-.44,1.65-.58,1.75-2.44,1.71-1.08-.02-2.17-.1-3.25-.15l-.33.56c.32.41.57,1.05.97,1.17.88.25,1.85.17,2.76.36.42.09.76.5,1.67,1.14Z"/>
      <path d="M267.52,251.36c.34,1.36.61,2.47.89,3.58-1.87-.86-2.33-3.38-5.02-2.7-.21.73-.47,1.64-.84,2.94-.42-.56-.75-.8-.77-1.06-.11-1.77-.16-3.54-.22-5.32-.05-1.38.61-2.11,2.01-2.07.84.02,1.71-.01,2.5.21,2.6.72,3.06,2.26,1.44,4.42ZM263.25,250.77c1.51-.42,2.59-.72,3.93-1.09-1.31-1.5-2.5-1.74-3.93-1.23v2.32Z"/>
      <path d="M270.27,236.2c-.16-.34-.36-.66-.48-1.01-.42-1.28-.24-2.63.9-3.24.87-.46,2.16-.41,3.18-.19,1.13.23,1.35.98,1.43,3.05-1.29-.4-1.64-2.57-3.35-1.82-.41.18-.64.78-1.17,1.46,1.05.48,1.89.81,2.67,1.23.73.39,1.49.8,2.06,1.38.34.34.62,1.3.44,1.48-.83.81-1.74,1.68-2.79,2.05-1.11.4-2.47.38-3.24-.9-.65-1.07-1.1-2.2-.09-3.33.11-.12.33-.15.5-.22.14.43.22.9.43,1.29.32.6.6,1.48,1.11,1.66.94.33,1.94.06,2.55-1.39-1.46-.53-2.81-1.01-4.16-1.5Z"/>
      <path d="M286.72,239.9c-.86-2.13-.51-4.29-.58-6.37-.01-.38.77-1.05,1.25-1.12.9-.12,1.85.07,2.76.21,2.24.33,3.04,1.04,3.22,2.79.19,1.77-.92,3.5-2.78,3.99-1.22.32-2.52.33-3.87.49ZM287.89,237.97c1.74.5,2.93.09,3.62-1.15.29-.52.27-1.62-.09-2.02-.93-1.03-2.23-.99-3.7-.58.06,1.26.11,2.43.17,3.75Z"/>
      <path d="M295.83,246.69c1.54,1.71,2.84,3.17,4.21,4.7,1.24-1.34-.08-3.19,1.69-4.55.63,2.77.5,5.05-.74,7.79-1.61-1.64-2.93-2.98-4.49-4.55-.18,1.72-.33,3.1-.51,4.79-1.59-1.65-1.64-5.19-.16-8.18Z"/>
      <path d="M272.87,250.55c.16-2.57,1.47-4.07,3.42-3.89,2.57.23,4.34,1.89,4.22,3.95-.14,2.25-2.32,4.64-4.18,4.6-1.92-.04-3.61-2.31-3.46-4.65ZM274.37,250.91c.02,1.36.92,2.58,1.94,2.65,1.17.08,2.62-1.66,2.61-3.12,0-1.07-1.44-2.38-2.62-2.39-1.17,0-1.95,1.15-1.93,2.86Z"/>
      <path d="M306.91,247.81c2.24-.61,3.95-.79,5.57.27,1.79,1.18,2.11,2.8.94,4.54-1.08,1.61-2.86,2.03-4.55,2.46-.37.09-1.37-.79-1.45-1.33-.31-1.9-.35-3.84-.5-5.94ZM308.88,249.09v4.2c2.73-.69,3.85-1.64,3.54-2.88-.26-1.06-1.41-1.51-3.54-1.32Z"/>
      <path d="M297.25,232.36h6.42c-1.53,2.03-3.69.7-5.07,1.78-.34,1.41.65,1.18,1.48,1.22.77.03,1.54.16,2.74.29-1.27,1.7-2.79.76-3.84,1.34q-.21,1.7,3.59,2.41c-1.01,1.71-2.6,1.28-3.95,1.22-1.45-.07-1.32-1.37-1.36-2.36-.06-1.84-.02-3.69-.02-5.89Z"/>
      <path d="M242.76,239.9c-.47-.63-.94-1.26-1.4-1.89-2.59-.63-4.11.71-5.1,3.06-.84-1.87.64-5.79,3.26-8.91,2.02,2.19,3.51,4.51,3.97,7.38-.24.12-.48.23-.73.35ZM238.56,236.77q1.67-.75.93-1.93c-.26.54-.48.99-.93,1.93Z"/>
      <path d="M219.39,247c1.26,1.85,2.51,3.64,3.69,5.47.28.44.38,1.03.45,1.57.03.18-.27.41-.59.86-.66-.9-1.22-1.67-1.78-2.43-2.05-.74-3.01.57-3.73,2.21-1.39-1.64-.57-4.78,1.95-7.67Z"/>
      <path d="M253.49,234.9c-.71-.57-1.21-1.05-1.79-1.41-.95-.59-1.92-.67-2.81.2-.87.85-1.29,2.55-.66,3.32.76.93,1.74,1.36,2.98.82.69-.3,1.42-.49,2.63-.9-1.72,2.63-3.26,3.19-5.18,2.33-1.94-.88-2.62-2.44-2.03-4.62.56-2.04,2.18-3.25,4.1-3.03,1.88.21,2.57.96,2.76,3.3Z"/>
      <path d="M241.64,252.38c-.27.99-.51,1.84-.9,3.24-.44-.93-.8-1.36-.82-1.8-.1-1.67-.16-3.35-.11-5.03.05-1.69.72-2.26,2.44-2.37,1.85-.12,3.64.98,3.97,2.43.29,1.25-.44,2.48-1.92,3-.78.27-1.63.33-2.66.53ZM244.69,249.36c-.64-1.51-1.8-1.52-3.38-1.13.04.79.08,1.54.12,2.25,1.5.32,2.63.36,3.26-1.12Z"/>
      <path d="M285.59,252.84c.61.2.96.38,1.32.42,2.07.28,2.42-.02,2.67-2.09.12-1.01-.22-2.22,1.21-3.06.66,2.02.63,3.84-.26,5.48-.94,1.74-2.72,1.33-4.27,1.11-1.65-.24-2.26-.91-2.31-2.62-.05-1.59-.33-3.27.57-4.7.24,0,.48.01.72.02.12,1.76.23,3.53.36,5.45Z"/>
      <path d="M258.81,239.49c-.52-2.33-.42-4.67.1-7l.61-.1c.21.87.43,1.74.72,2.94,1.13-.16,2.27-.32,3.42-.48.3-.94.56-1.76.82-2.58,1.29,2.58.93,5.08.39,7.85-1.75-.84-.66-2.38-1.6-3.56-.82.08-1.88.18-3.05.29-.22.95-.42,1.81-.62,2.67-.27,0-.54-.01-.81-.02Z"/>
      <path d="M211.71,250.09c-2.15-2.35-2.95-2.68-4.03-1.84-.86.67-1.16,2.39-.57,3.32.69,1.09,2.02,1.05,4.5-.12.24,1.7-.23,2.24-2.11,2.39-2.6.22-4.13-.94-4.29-3.23-.16-2.24,1.42-4.25,3.42-4.35,1.95-.1,3.11,1.24,3.08,3.83Z"/>
      <path d="M280.92,239.75c-1.22-1.69-1.38-5-.35-7.39,1,1.61,1.19,5.63.35,7.39Z"/>
      <path d="M262.53,278.67c-.58-.78-1.3-1.39-1.19-1.65.23-.56.84-1.17,1.41-1.31.38-.1.95.57,1.44.89-.47.59-.95,1.18-1.66,2.07Z"/>
    </g>
  </g>
</svg>