<?xml version="1.0" encoding="UTF-8"?>
<svg id="Layer_1" xmlns="http://www.w3.org/2000/svg" viewBox="0 0 400 400">
  <defs>
    <style>
      .cls-1, .cls-2, .cls-3, .cls-4, .cls-5 {
        fill-rule: evenodd;
      }

      .cls-1, .cls-6 {
        fill: #fff;
      }

      .cls-2 {
        fill: #034b59;
      }

      .cls-6 {
        font-family: AmericanTypewriter-CondensedBold, 'American Typewriter';
        font-size: 52.96px;
        font-weight: 700;
        letter-spacing: -.1em;
      }

      .cls-4 {
        fill: #c8930e;
      }

      .cls-5 {
        fill: #ee2e2d;
      }
    </style>
  </defs>
  <g>
    <polygon class="cls-5" points="67.99 125.99 14.4 202.13 16.96 205.49 117.2 203.41 82.14 136.79 71.61 124.13 67.99 125.99"/>
    <path class="cls-3" d="M99.62,163.92c3.51.55,2.51,5.94,6.19,6.32.03,3.87,2,5.69,4.42,7-.34,4.06,1.95,5.32,4.39,6.41.26,1-.41,1.13-1.14,1.22.82.84,2.78,1.41,1.29,2.94.47-.33.96-.66,1.76-.66.26,1.19-.05,1.87-1.12,1.84,1.16,1.52,4.54,4.81,2.59,5.86.59,1.01,1.92,1.25,3.61,1.07.26,4.86,2.91,7.18,2.83,12.42-.57-.36-2.23-1.31-1.76.65-1.06-1.14-4.15-.08-4.25-2.22-1.34,2.33-4.06-1.62-7.09,1.44-1.81.28-1.31-1.9-1.91-2.93-1.72.58.84,1.48.11,2.99-.45-.39-1.97-2.45-1.78.06-8.29-.69-20.64-.91-28.01-.2-.02-.59-.04-1.19-.06-1.78-2.71,1.55-5.84,1.8-8.34.3-1.65,2.3-12.71,2.21-16.07.58-6.59,3.66-21.09-.07-24.3,3.83-5.09-2.95-13.96.18-20.34-2.25-.58-1.87.43-2.28,1.09-3.02-2.41-.12-1-.47-1.34-4.12,2.78-.87,3.96-3.22,3.94-6.7,2.75.47,1.24-3.05,4.08-2.53-.49-1.81-.46-1.13-.11-2.98,4.03.5,1.66-4.97,5.18-4.95-.41-.59-1.39-.56-1.25-1.75,2.39.69,1.15-1.99,3.53-1.31-.03-.99-.07-1.98-.1-2.98.51-.47,1.32-.69,2.35-.67,3.61-8.93,10.23-15.03,14.07-23.74,2.06,0,2.72-1.31,2.25-3.66,1.75.09,1.78-1.41,3.53-1.31,1.57-7.96,9.19-10.26,10.68-18.27,6.55-1.37,5.11-10.19,11.5-11.72-.41-.59-1.39-.57-1.27-1.75,1.97-.09,2.93-1.12,5.35-.78,2.64,1.92-.74,3.06,3.07,2.86-2.49,2.66.61,10.57,3.31,9.41.89.17.1,4.5,3.13,4.06-.35,1.84.7,2.16.73,3.56,7.56,6.5,8.84,19.75,16.42,26.24.24,1-.42,1.14-1.16,1.24ZM65.25,135.94c-1.9.79-.51-1.93-2.42-1.12-.91.29-.44,1.9-2.33,1.28-.78,3.12-1.55,6.23-4.51,7.32-.76,3.28,1.63,3.19,2.56,4.67-4.19,2.98-4.34,12.69-11.6,9.35.65,1.78,2.84,1.9,3.13,4.07-1.59.79-2.75,1.08-3.53,1.31,2.51,2.1-.69,1.54-1.7,3.04-2.59,3.91-4.05,10.09-8.52,11.02-.21,2.89-1.28,4.96-3.99,5.51,1.46,3.1-.88.41-1.73,1.85,3.81.78-2.48,2.58.16,4.18-4.25.82-3.29,6.52-6.26,8.56-.36-1.03.59-3.52-.72-3.55-.02.93.16,2.05-1.13,1.83-.65,1.94,1.94.38,1.28,2.33-2.47.58-2.07,3.83-3.38,5.5,6.22-1.29,16.31-1.26,23.22-.83.11-.47-.03-1.18.54-1.22,23.05,2.43,41.5-.91,69.69-1.28-1.21-6.27-6.69-9.34-8.81-12.8-.64-5.3-5.63-5.9-5.77-11.71-2.68.36-2.27-2.15-1.92-3.51-2.38.03-4.47-3.85-2.54-4.68-1.87.98-2-.38-3.62-1.07-4.11-13.05-14.25-22.36-19.03-32.69,0,.6-1.03.79-1.2.03.73-.09,1.41-.22,1.16-1.22-1.66.55-1.57-.79-3-.5-2.93,3.97-4.28,9.44-9.13,11.65,1.22,2.05-.48,2.88-1.63,4.23-.69-2.37-.08-4.65.97-6.59.97-.02.38,1.65,1.25,1.74.16-2.54,2.28-7.38,4-4.9-.05-.82.22-1.33.52-1.8Z"/>
  </g>
  <text class="cls-6" transform="translate(54.12 192.92)"><tspan x="0" y="0">9</tspan></text>
  <g>
    <path class="cls-1" d="M226.56,96.31s-31.68,2.27-54.6,26.08c-22.92,23.8-27.65,37.28-27.65,37.8s-3.32,13.13-3.32,13.13c0,0-.53,6.65-1.93,6.82-1.4.18-8.05.18-9.1,2.1-1.05,1.92-1.05,5.77-1.22,6.65-.17.87-1.58,9.28.17,10.33,1.75,1.05,9.28,2.63,9.28,2.63l.53,9.98s7.35,29.23,12.07,39.03c4.73,9.8,11.38,24.68,14.53,26.95,3.15,2.28,21.88,16.8,24.5,18.38,2.62,1.58,26.08,13.83,43.75,15.4,17.67,1.58,42.18,1.93,48.3-1.05,6.13-2.97,48.3-16.8,59.33-37.8,11.03-21,11.2-24.33,11.2-24.33l1.23-6.13s18.55-3.5,19.43-6.65c.87-3.15,1.92-35,1.92-37.98s-.87-5.6-.87-7.18-.88-11.03-4.73-12.25c-3.85-1.22-11.03-3.15-11.03-3.15l-2.1-.35s-11.55-29.05-18.38-38.33c-6.82-9.27-26.77-22.92-28.35-24.5-1.57-1.58-35.87-16.28-42.7-16.63-6.83-.35-7.88-1.57-7.88-1.57,0,0-2.8-9.45-3.15-10.68-.35-1.23-2.98-5.43-3.85-6.3-.87-.87-7.88-6.12-7.88-6.12l-1.4-.18s-6.82,12.6-8.05,15.58c-1.22,2.98-2.97,4.9-4.02,6.3-1.05,1.4-4.02,4.03-4.02,4.03Z"/>
    <path class="cls-4" d="M365.27,203.62c.97,7.1.45,14.03-1.12,20.87-.48,2.1-1.39,4.12-2.21,6.13-.82,2.01-2.45,3.09-4.51,3.69-8.4,2.44-16.72,2.37-24.95-.76-.39-.15-.78-.32-1.18-.45-3.88-1.27-6.16-3.68-6.45-8-.42-6.28-1.42-12.52-1.65-18.79-.14-3.81.66-7.67,1.15-11.49.26-2.01,1.42-3.57,3.04-4.76,3.29-2.4,6.9-4.08,10.9-5,4.46-1.04,8.95-1.52,13.49-.98,2.57.3,5.14.79,7.65,1.45,1.65.43,2.92,1.59,3.77,3.14,1.21,2.19,1.65,4.55,1.74,7.02.1,2.69.22,5.37.33,7.94ZM338.85,211.82c.11,0,.22,0,.33-.01.12,2.85.12,5.71.39,8.54.48,5.14,1.11,5.61,6.29,5.33,2.56-.14,3.03-.54,3.47-3.03.19-1.07.34-2.16.37-3.25.09-4.36.12-8.72.16-13.07.02-3.1.16-6.21-.01-9.3-.18-3.19-1.27-4.22-4.47-4.5-1.05-.09-2.18.13-3.21.43-2.13.62-3.15,2.04-3.18,4.27-.06,4.86-.08,9.72-.12,14.59Z"/>
    <path class="cls-4" d="M305.83,210.24c-.2-4.59-.39-9.19-.59-13.66-.38-.29-.55-.48-.77-.59-2.6-1.29-3.24-2.53-2.61-5.41.11-.49.56-1.01,1-1.28.48-.29,1.11-.37,1.69-.42,5-.49,10.01-.99,15.02-1.41,2.81-.24,3.54.64,2.62,3.34-.35,1.03-1.29,1.88-2.05,2.73-.38.42-.95.66-1.46.98.69,12.27.33,24.49-.21,36.94-.61.1-1.33.3-2.05.32-1.09.02-2.18-.14-3.26-.13-2.91.04-4.92-1.21-6.78-3.54-4.46-5.58-8.49-11.46-12.54-17.32-.42-.6-.95-1.11-1.64-1.9-.2.68-.42,1.05-.39,1.41.27,3.68.53,7.36.88,11.03.06.7.37,1.47.79,2.05,1.82,2.5,1.89,2.64,1.18,6.15-1,.1-2.15.4-3.25.28-4.92-.53-9.84-.74-14.96-.18-.6-2.37-.13-4.5,1.45-6.08,1.5-1.51,1.66-3.05,1.42-4.97-.54-4.41-.96-8.84-1.33-13.27-.2-2.34-.2-4.69-.32-7.04-.05-.94-.35-1.65-1.29-2.24-1.64-1.02-2.12-3.86-1.01-5.37.28-.39.99-.64,1.51-.66,3.1-.11,6.2-.15,9.31-.18,2.07-.02,3.62.75,4.75,2.67.92,1.57,2.2,2.97,3.51,4.25,2.78,2.71,5.23,5.66,7.26,8.98,1.03,1.68,2.3,3.21,3.46,4.8.22-.1.44-.2.66-.3Z"/>
    <path class="cls-2" d="M178.16,256.12c1.69-1.49,3.7-1.27,5.58-1.46,2.91-.3,5.84-.4,8.75-.75,5.5-.67,10.99-1.01,16.54-.74,6.69.33,13.39.25,20.06.73,6.65.49,13.37.42,19.9,2.27,3.19.9,6.61.95,9.89,1.57,2.87.54,5.86-.2,8.66.89,2.18.85,4.35,1.76,6.54,2.58.85.32,1.81.76,2.65.64,2.76-.42,5.36.3,7.93,1.01,3.48.97,6.96.89,10.49.66,1.33-.09,2.67-.1,4-.09,2.18.02,4.35.24,6.44-.7.66-.29,1.49-.26,2.23-.27,2-.02,3.92.16,5.74-1.23.86-.66,2.42-.53,3.66-.53,1.06,0,1.45.79,1,1.74-.24.52-.55,1.23-1,1.41-2.42.91-3.97,3.3-6.69,3.76-1.47.25-2.87.92-4.3,1.38-.64.21-1.28.47-1.94.54-4.73.51-9.42,1.32-14.22,1.36-4.08.04-8.17.7-12.26.95-2.66.16-5.34.07-8.01.09-1.01,0-2.02.06-3.02,0-.81-.05-1.62-.22-2.43-.36-.49-.08-.99-.37-1.44-.29-1.64.3-3.08-.26-4.63-.71-1.98-.58-4.11-.77-6.19-.88-4.79-.25-9.42-1.39-14.11-2.22-3.37-.6-6.76-1-10.15-1.49-.25-.03-.53-.02-.74-.13-2.82-1.44-5.88-1.04-8.87-1.28-3.65-.3-7.27-.97-10.92-1.39-2.91-.34-5.84-.57-8.76-.8-2.92-.23-5.85-.44-8.77-.6-1.08-.06-2.19-.07-3.24.14-4.35.87-7.6-1.23-8.36-5.85Z"/>
    <path class="cls-4" d="M212.42,205.41c.5,4.83,1.04,9.66,1.5,14.5.41,4.31-.77,6.16-4.63,8.25-4.73,2.55-9.82,2.66-14.94,2.4-2.75-.14-5.53-.49-8.19-1.18-4.17-1.07-5.97-3.26-6.21-6.85-.39-5.93-2.34-11.69-2.07-17.7.14-3.01.35-6.03.76-9.01.27-2.01,1.52-3.45,3.49-4.26,7.62-3.14,15.36-2.98,23.13-.73,1.41.41,2.72,1.29,3.97,2.1,2.14,1.36,3.17,3.37,3.23,5.92.05,2.18.18,4.35.27,6.53-.1,0-.2.02-.31.02ZM190.2,209.7c.53,3.13,1.25,7.66,2.11,12.17.11.6.83,1.3,1.44,1.55,3.7,1.58,6.87-.36,7.23-4.33.05-.58.1-1.18.05-1.76-.36-3.99-.68-8-1.14-11.99-.25-2.24-.62-4.48-1.12-6.68-.48-2.12-1.77-2.96-4.11-2.75-2.57.23-3.95,1.25-4,3.29-.07,3.01-.25,6.01-.45,10.49Z"/>
    <path class="cls-4" d="M164.61,224.94c2.12.36,3.26,1.44,3.4,3.51.11,1.51-.15,2.15-1.53,2.79-.38.17-.78.34-1.19.41-4.63.81-9.25,1.61-13.89,2.39-.31.05-.65-.09-1.21-.17-.45-2.49-.97-4.89,1.44-6.87.49-.4.86-1.27.83-1.91-.08-2.34-.38-4.68-.54-7.02-.13-1.83-.36-3.69-.2-5.5.27-2.96.21-5.85-.54-8.74-.61-2.35-.99-4.77-1.54-7.13-.2-.85-.62-1.66-.9-2.4-2.12.07-2.23,1.91-3.3,2.93-2.1-.31-4.25-.54-6.36-.99-.71-.15-1.58-.77-1.88-1.41-1.37-2.94-.94-6.27,1.03-9.14,1.1.08,2.26.16,3.42.27,5.68.5,11.36,1.01,17.03,1.53,4.35.4,8.7.75,13.03,1.25,4.85.57,4.84.63,5.33,5.5.01.17.05.33.06.5.36,3.67-.6,4.71-4.25,3.91-1.73-.38-3.28-1.56-4.92-2.37-.73-.36-1.46-.94-2.22-.99-1.33-.08-2.25.84-2.28,2.47-.08,3.94-.08,7.89.1,11.82.19,4.18.63,8.36.95,12.54.07.9.08,1.82.12,2.83Z"/>
    <path class="cls-4" d="M331.81,260.03c-1.41,2.13-2.44,4.2-3.94,5.85-4.91,5.4-9.83,10.85-15.77,15.13-10.4,7.48-21.54,13.6-33.87,17.39-7.25,2.23-14.71,3.5-22.19,4.43-5.23.65-10.55.08-15.81-.62-6.68-.89-13.21-2.36-19.67-4.23-5.11-1.48-9.84-3.84-14.49-6.38-9.57-5.22-18.27-11.65-26.13-19.16-4.91-4.7-8.94-10.19-12.72-15.91.68-1.04,1.48-1.21,2.46-.93,1.33.38,2.4,1.06,3.27,2.2,3.35,4.43,7.02,8.54,11.35,12.08,2.59,2.12,4.86,4.62,7.39,6.83,4.7,4.1,9.96,7.37,15.4,10.41,8,4.48,16.61,7.35,25.47,9.21,8.94,1.87,18.07,3.03,27.26,2.02,3.82-.42,7.58-1.39,11.35-2.18,2.38-.5,4.72-1.18,7.1-1.67,5.85-1.19,11.07-3.86,16.17-6.81,3.92-2.27,7.73-4.72,11.58-7.11.64-.4,1.3-.79,1.82-1.32,4.67-4.71,9.33-9.42,13.93-14.19,1.27-1.32,2.41-2.8,3.44-4.32,1.81-2.65,2.31-2.85,5.1-1.48.38.18.73.38,1.48.77Z"/>
    <path class="cls-4" d="M218.09,196.2c-.83-.28-1.48-.45-2.08-.72-1.09-.5-1.74-1.84-1.62-3.14.14-1.33,1.02-1.91,2.22-1.97,4.1-.2,8.21-.56,12.3-.43,6.12.19,12.22.72,18.32,1.14.82.05,1.62.24,2.67.4.08,2,.17,3.83.23,5.66.04,1.12-.63,1.74-1.64,1.87-1.83.22-3.67.42-5.51.42-.77,0-1.73-.35-2.27-.88-1.37-1.36-2.99-1.43-4.67-1.18-1.64.25-3.25.68-5.03,1.07-.06,2.02-.23,3.85-.15,5.66.07,1.69.62,2.17,2.37,2.28,1.75.12,3.52.11,5.28.12,1.34.01,2.69-.12,4.02-.02,2.17.17,3.06,1.3,2.97,3.56-.06,1.52-.93,2.23-2.94,2.4-1.84.15-3.68.28-5.51.45-1.74.16-3.49.36-5.41.56.03.65.05,1.27.08,1.9.11,1.84.41,3.69.28,5.51-.12,1.7.05,2.91,1.89,3.5.99.32,1.73,1.05,1.59,2.28-.12,1.1-.5,1.92-1.82,1.96-1.25.04-2.51.13-3.76.26-2.83.3-5.65.63-8.48.96-.33.04-.66.12-.99.16-1.26.13-2.57.37-3.36-1-.7-1.21-.41-3.77.78-4.63,1.74-1.25,1.83-2.86,1.58-4.68-.32-2.41-.79-4.82-.91-7.24-.22-4.52-.23-9.05-.34-13.57-.02-.83-.06-1.65-.11-2.66Z"/>
    <path class="cls-2" d="M283.15,282.27c1.34.57,2.68,1.15,4.01,1.71-.73,2.05-1.79,2.92-3.77,2.81-2.16-.12-4.32-.49-6.47-.78-6.67-.88-12.9-3.62-19.52-4.68-2.97-.48-5.98-.66-8.98-.99-2.23-.24-4.47-.52-6.71-.72-5.03-.45-10.01.13-14.98.77-.33.04-.65.17-.99.19-5.07.33-10.16.65-15.3.97-.25-1.07.57-1.57,1.38-1.97,1.42-.71,2.86-1.44,4.35-1.97,2.83-1.01,5.67-2.01,8.57-2.79,2.82-.75,5.69-1.43,8.59-1.77,5.58-.66,11.19-1.31,16.81-.76,1.46.14,2.87.76,4.32,1.07.86.18,1.95.57,2.58.22,2.87-1.58,5.85-.95,8.59-.22,5.71,1.51,11.44,2.49,17.33,2.8,2.31.13,4.59.89,6.87,1.39,1.72.38,3.43.77,5.12,1.26,1.2.35,1.46,1.12.63,2.04-.46.51-1.21,1.03-1.86,1.07-2.16.12-4.34.05-6.5,0-1.32-.03-2.65-.16-3.97-.24-.04.2-.07.39-.11.59Z"/>
    <path class="cls-4" d="M253.64,228.89c-.18-.92-.24-1.51-.42-2.06-.35-1.14-.05-2.1,1.03-2.52,3.35-1.3,3.34-4.02,3.01-6.87-.49-4.16-1.09-8.31-1.53-12.48-.16-1.57-.01-3.18.03-4.76.04-1.55.06-2.91-1.8-3.67-1.39-.57-2.05-3.65-1.29-4.9.2-.32.6-.59.97-.72.46-.16.98-.21,1.48-.23,5.28-.18,10.56-.35,15.85-.51.32,0,.64.11,1.21.22.05,1.09.09,2.16.14,3.23.05,1.21-.37,2.18-1.52,2.64-1.51.6-1.74,1.81-1.92,3.22-.69,5.29,0,10.55.28,15.82.08,1.59.22,3.18.31,4.77.09,1.59.54,2.96,2.05,3.77,1.03.56,1.63,1.37,1.61,2.62-.03,1.78-.48,2.4-2.28,2.66-.82.12-1.67.13-2.5.12-4.11-.06-8.22-.13-12.33-.21-.74-.02-1.47-.09-2.38-.14Z"/>
    <path class="cls-4" d="M336.07,173.76c-.25-.48-.6-.93-.74-1.44-3.35-11.8-10.21-21.39-18.79-29.89-2.68-2.66-5.42-5.26-8.19-7.82-4.71-4.35-10.07-7.81-15.65-10.91-3.73-2.07-7.59-3.92-11.47-5.71-1.35-.62-2.2-1.35-2.51-2.82-.21-1.03-.7-1.99-1.15-3.19.57-.03.91-.14,1.16-.04,13.18,5.76,26.06,12.04,36.7,22.01,8.15,7.63,14.89,16.34,19.66,26.51,1.38,2.95,3.02,5.8,4.59,8.66,1.16,2.1.98,2.6-1.29,3.44-.75.27-1.42.73-2.33,1.21Z"/>
    <path class="cls-4" d="M205.2,115.62c-1.04,2.12-1.91,4-2.88,5.81-.26.47-.85.78-1.33,1.11-9.04,6.13-17.66,12.8-25.23,20.71-4.79,5-8.54,10.78-11.39,17.1-2.2,4.89-4.19,9.87-6.27,14.81-.84,2.01-2.78,2.48-4.29.89-.38-.41-.43-1.44-.22-2.05,1.06-3.09,2.16-6.17,3.43-9.18,7.82-18.64,21.1-32.66,37.5-43.97,2.73-1.88,5.88-3.18,8.86-4.72.48-.24,1.05-.3,1.81-.5Z"/>
    <path class="cls-2" d="M220.29,286.56c1.03-.22,2.04-.57,3.07-.64,6.86-.45,13.73-.98,20.61-.41.75.06,1.48.27,2.23.33.74.06,1.6.27,2.21,0,1.75-.78,3.45-.38,5.19-.15,1.99.27,3.99.54,5.99.64,4.78.24,9.33,1.68,14.47,2.33-.64.7-.87,1.16-1.23,1.33-2.6,1.22-5.33,1.98-8.21,2.22-6.04.5-12.06.2-18.07-.56-5.72-.72-11.47-1.27-17.19-2.07-2.81-.39-5.56-1.19-8.33-1.83-.28-.06-.51-.36-.76-.55,0-.21.01-.43.02-.64Z"/>
    <path class="cls-2" d="M194.9,273.25c2.9-1.05,5.26-1.9,7.62-2.76-.02-.16-.05-.32-.07-.49-2.56.11-5.18-.04-7.68.41-2.09.38-3.37-.43-4.59-1.79-.49-.54-.93-1.13-1.54-1.87.71-.24,1.3-.68,1.76-.57,2.69.66,5.37-.76,8.17.37,1.83.74,4.13.3,6.22.42,6.35.36,12.69.71,19.04,1.12.74.05,1.46.47,2.18.72-.02.19-.04.37-.05.56-.43.14-.83.36-1.26.41-2,.24-4,.49-6.01.65-3.3.27-6.32,1.42-9.29,2.78-1.29.59-2.63,1.07-3.95,1.57-1.24.46-2.45.98-3.72,1.3-1.25.31-2.54.8-3.69-.52-.68-.79-1.71-1.29-3.14-2.32Z"/>
    <path class="cls-4" d="M255.54,107.5c.73-.11,1.39-.4,1.97-.29,4.53.85,9.07,1.68,13.55,2.72,2.15.49,2.59,1.68,1.97,3.81-.34,1.17-.91,1.74-2.18,1.36-.64-.19-1.32-.26-1.96-.44-3.32-.9-6.62-1.89-9.95-2.7-2.19-.54-3.33-1.76-3.4-4.47Z"/>
    <path class="cls-4" d="M233.73,107.49c-.88,1.95-1.49,3.29-2.1,4.64-.41.92-1.23.94-2.09,1.05-2.72.35-5.45.72-8.15,1.2-2.42.43-2.44.49-3.73-1.67-.29-.48-.62-.94-1.16-1.77,5.65-1.39,10.96-3.1,17.23-3.44Z"/>
    <path class="cls-2" d="M263.61,234.93c2.09,1.82,2.41,4.2,3.77,6.01,1.3-1.99,2.31-4.05,3.93-5.85.93,1.74,2.23,9.31,1.94,10.77-2.9-.19-1.69-3-2.89-4.46-.95,1.26-1.87,2.48-3.05,4.06-.93-1.49-1.67-2.72-2.73-4.43-.27,1.34-.43,2.2-.62,3.06-.34,1.56-.53,1.65-2.78,1.23.52-3.41,1.52-6.69,2.43-10.39Z"/>
    <path class="cls-2" d="M287.04,273.25c6.69-.59,13.25-1.17,19.98-1.76.43.46.23,1.03-.33,1.54-.99.9-1.9,1.92-3.02,2.61-.87.54-2.02.99-3.01.92-3.9-.3-7.85-.48-11.59-1.81-.74-.26-1.64-.33-2.03-1.49Z"/>
    <path class="cls-2" d="M320.48,238.18c1.75,2.11,3.5,4.23,5.59,6.74.26-2.28.44-3.97.63-5.64,1.39-.4,2.27-.17,2.2,1.25-.09,2.26-.24,4.53-.54,6.76-.07.55-.83,1-1.33,1.57-1.88-2.13-3.52-3.99-5.49-6.24-.22,1.77-.38,3.05-.54,4.33-.09.7-.27,1.4-1.14,1.37-.85-.03-1.13-.71-1.05-1.43.28-2.8.62-5.6.93-8.4.25-.11.5-.22.75-.32Z"/>
    <path class="cls-2" d="M158.24,245.09c-.68,1.53.28,3.1-1.34,4.18-.34-.3-1-.6-1.07-.99-.53-2.86-.93-5.75-.83-8.9,1.72-.07,3.28-.2,4.83-.19,1.32.01,2.13.93,2.67,2.01.58,1.18-.38,1.83-1.07,2.55-.22.23-.42.49-.66.78.7.92,1.43,1.73,1.96,2.66.22.38.19,1.22-.09,1.5-.56.57-1.24.3-1.7-.33-.34-.48-.6-1.02-.97-1.47-.5-.59-1.08-1.12-1.73-1.8ZM160.6,242.45c-1.02-1.8-2.09-1.86-3.43-1.41.08.66.16,1.21.24,1.87,1.05-.15,1.92-.28,3.18-.46Z"/>
    <path class="cls-2" d="M297.03,242.51c-.68,1.52.28,3.1-1.34,4.18-.34-.3-1-.59-1.07-.99-.53-2.86-.93-5.75-.82-8.9,1.72-.08,3.27-.2,4.83-.19,1.32.01,2.14.93,2.67,2.01.57,1.18-.38,1.84-1.07,2.55-.22.23-.42.49-.66.78.7.92,1.44,1.73,1.96,2.66.21.38.18,1.22-.1,1.5-.56.57-1.24.3-1.7-.33-.34-.48-.6-1.02-.98-1.46-.5-.6-1.07-1.13-1.73-1.8ZM299.4,239.86c-1.02-1.8-2.09-1.85-3.43-1.41.09.66.16,1.21.25,1.87,1.05-.15,1.92-.27,3.18-.46Z"/>
    <path class="cls-2" d="M202.59,240.13c.14,2.73-1.82,5.16-4.27,5.29-3.33.17-5.2-1.22-5.3-3.94-.12-3.26,1.83-5.66,4.68-5.75,2.56-.08,4.78,1.9,4.9,4.4ZM200.47,241.01c-.04-1.53-1.38-2.82-2.93-2.8-1.49.02-2.51,1.06-2.5,2.51.02,1.64,1.43,2.99,3.06,2.94,1.45-.05,2.4-1.12,2.36-2.65Z"/>
    <path class="cls-2" d="M215.08,240.73c.19,1.38,1.61,2.45.93,4.1-2.66.05-1.95-3.87-4.58-3.88-.61,1.45.34,3.33-1.25,4.39-1.02-.14-1.23-.83-1.25-1.64-.05-2.09-.13-4.19-.14-6.28,0-2.12.36-2.52,2.54-2.34,1.22.1,2.46.44,3.63.87,1.61.6,1.9,1.36,1.24,2.88-.29.68-.76,1.28-1.12,1.89ZM211.2,239.02c1.2-.04,2.27.27,2.79-.9.1-.22-.22-.89-.47-.97-.72-.23-1.51-.27-2.42-.4.04.88.06,1.42.1,2.27Z"/>
    <path class="cls-2" d="M278.06,256.67c4.02.42,8.03,1.18,12.04,1.16,3.97-.02,7.93-.83,11.9-1.28.04.17.14.42.09.46-1.96,1.5-4.16,2.37-6.64,2.56-1.15.09-2.29.34-3.43.52-.99.17-1.97.51-2.96.49-2.72-.05-8.04-1.11-11-3.91Z"/>
    <path class="cls-2" d="M170.46,239.81c.34,2.88,2.65,1.22,3.8,2.04q-.19,1.61-2.82,1.72c.02.68.05,1.36.08,2,1.24.13,2.33.24,3.61.38-1.16,1.71-2.34,2.18-3.96,1.8-1.34-.32-1.61-.86-1.83-2.84-.16-1.58-.56-3.12-.8-4.69-.32-2.1.02-2.48,2.19-2.56.76-.03,1.51-.05,2.26-.07.69-.02,1.44,0,1.43.94,0,.97-.66,1.23-1.54,1.2-.74-.03-1.48.05-2.43.09Z"/>
    <path class="cls-2" d="M182.66,239.1c.33.51.63,1.02,1.01,1.47.13.15.48.08.72.16,2.07.65,3.05,2.02,2.57,3.61-.45,1.51-2.61,2.6-4.34,2.15-.71-.18-1.27-.5-.92-1.4q2.54-.39,3.46-1.69c-.81-.42-1.6-.81-2.37-1.23-1.77-.95-2.41-2.49-1.66-3.9.78-1.47,3.46-2.16,4.89-1.16.36.25.4.95.6,1.44-.43.14-.86.39-1.29.4-.65,0-1.3-.18-1.95-.25-.13-.01-.28.15-.71.41Z"/>
    <path class="cls-2" d="M226.4,237.27c.09,1.89.16,3.64.23,5.4.07,1.44-.62,1.99-2.17,1.69-.1-2.3-.2-4.62-.3-7.06-1.01-.33-2.56-.12-2.24-2.05,1.82-.56,3.74-.43,5.62-.33.71.04.73.19,1.16,1.7-.76.21-1.5.42-2.31.65Z"/>
    <path class="cls-2" d="M309.3,247.6c-.15-.54-.33-.86-.3-1.16.21-2.58.47-5.15.71-7.72.02-.17,0-.39.09-.49.38-.37.8-.96,1.2-.96.34,0,.96.7.98,1.1.07,2.9.01,5.8,0,8.86-1.06.14-1.83.25-2.67.36Z"/>
    <path class="cls-4" d="M241.2,240.12c.2-1.76,1.32-1.88,2.4-2.12.17-.66.35-1.33.51-1.92.81-.21.97-.02,1.95,2.1.74.11,1.52.22,2.51.35-.27.52-.36,1.05-.63,1.17-1.3.58-2.26,1.41-2.48,2.83-1.52-.05-.98-1.49-1.77-2.08-.68-.09-1.48-.19-2.5-.32Z"/>
    <path class="cls-3" d="M342.8,159.2c.22.2.93.55,1.02,1.01.19,1.07-.73,1.37-1.58,1.5-.78.12-1.55.02-1.78-.92-.18-.71.76-1.46,2.34-1.6Z"/>
    <path class="cls-3" d="M336.34,153.97c-.62-1.05-1.23-1.62-1.14-2.04.14-.6.67-1.34,1.22-1.57.75-.31,1.34.39,1.22,1.1-.12.68-.65,1.3-1.3,2.5Z"/>
    <path class="cls-3" d="M284.32,106.73c.71.91,1.28,1.33,1.39,1.84.19.9-.51,1.44-1.31,1.47-.43.01-1.3-.6-1.25-.76.17-.71.6-1.37,1.18-2.55Z"/>
    <path class="cls-3" d="M328.38,138.42c-.47.96-.93,2.12-2.29,1.49-.77-.35-.77-1.19-.24-1.9.68-.9,1.24-.81,2.54.41Z"/>
    <path class="cls-2" d="M224.35,128.65c-1.15-.23-2.3-.47-3.67-.74.28-.79.46-1.28.76-2.14,1.19.74,2.22,1.38,3.24,2.02-.11.28-.22.57-.32.86Z"/>
    <path class="cls-3" d="M315.34,125.42c.78,1.13,1.4,1.71,1.59,2.39.22.75-.49,1.36-1.16,1.15-.56-.18-1.14-.87-1.32-1.45-.13-.41.4-1.02.88-2.1Z"/>
    <path class="cls-3" d="M170.11,136.25c.19-.94-.39-2.24,1.16-2.46.83-.12,1.32.6,1.32,1.44,0,.98-.85,1.34-2.49,1.03Z"/>
    <path class="cls-3" d="M205.17,111.86c-1.01.61-1.58,1.2-2.18,1.22-.38.01-1.07-.77-1.14-1.26-.12-.9.67-1.36,1.47-1.23.52.08.97.64,1.85,1.28Z"/>
    <path class="cls-3" d="M287.43,110.4c.59-.14,1.22-.47,1.76-.35.51.11.92.7,1.37,1.08-.5.34-1.01.97-1.49.95-.6-.02-1.18-.58-1.78-.9.05-.26.1-.51.14-.77Z"/>
    <path class="cls-3" d="M184.48,280.28c-1.02.53-1.52.95-2.09,1.05-.73.12-1.48-.28-1.22-1.1.14-.44.93-.86,1.47-.94.4-.06.88.45,1.84.99Z"/>
    <path class="cls-3" d="M261.8,104.4c.42-.79.53-1.23.81-1.48.36-.33.88-.73,1.3-.7.31.02.81.74.77,1.08-.06.45-.5,1.03-.93,1.21-.42.19-1.03-.04-1.95-.11Z"/>
    <path class="cls-3" d="M186.09,123.74c-1.23-.79-1.28-1.66-.71-2.47.25-.35,1.07-.63,1.4-.47.35.17.7.99.57,1.36-.21.6-.82,1.06-1.26,1.58Z"/>
    <path class="cls-3" d="M318.31,132.72c.27-1.04.3-1.63.57-2.09.22-.37.71-.7,1.14-.78.25-.05.82.4.86.68.06.52.03,1.3-.29,1.55-.48.38-1.25.38-2.28.63Z"/>
    <path class="cls-3" d="M308.83,120.71c-.35.68-.69,1.36-1.09,2.13-1.02-.54-1.95-.99-1.41-1.94.28-.5,1.31-.58,2.01-.84.17.22.33.44.49.65Z"/>
    <path class="cls-3" d="M312.07,123.06c.37.84.65,1.47,1.13,2.56-1.29-.1-2.17-.16-3.12-.23.07-1.37.77-1.81,2-2.33Z"/>
    <path class="cls-3" d="M246.8,305.08c.6.67,1.16,1.09,1.41,1.66.08.19-.57.99-.96,1.05-.84.12-1.42-.48-1.42-1.32,0-.35.48-.71.97-1.38Z"/>
    <path class="cls-3" d="M177.96,273.77c-.77.6-1.2,1.18-1.58,1.15-.52-.04-1.01-.54-1.51-.85.39-.45.71-1.19,1.18-1.28.44-.09,1.01.49,1.91.98Z"/>
    <path class="cls-3" d="M338.17,260.48c-.05,1.3-.68,1.56-1.35,1.41-.44-.09-.8-.58-1.2-.89.42-.44.78-1.12,1.27-1.22.41-.08.96.51,1.28.7Z"/>
    <path class="cls-3" d="M344.91,169.21c1.04-.03,2.11-.63,2.3.75.05.4-.7,1.26-1.14,1.3-1.29.14-1.33-.82-1.16-2.05Z"/>
    <path class="cls-3" d="M345.23,165.61c-.53.26-1.04.67-1.6.74-.79.11-1.35-.45-1.15-1.21.1-.4.79-.89,1.21-.89.52,0,1.04.48,1.55.75,0,.2,0,.41-.01.61Z"/>
    <path class="cls-3" d="M341.35,155.72c-.99.54-1.52,1.02-2.04,1.03-.39,0-.79-.61-1.19-.95.48-.39.91-.96,1.46-1.1.34-.09.85.46,1.78,1.03Z"/>
    <path class="cls-3" d="M302.47,119.33c.1-.8-.5-1.9.98-1.97.38-.02,1.15.68,1.14,1.03-.06,1.27-.93,1.36-2.12.94Z"/>
    <path class="cls-3" d="M229.11,103.21c-.31.66-.58,1.22-.92,1.93-.54-.25-1.09-.35-1.34-.68-.22-.3-.29-1.01-.09-1.28.57-.76,1.34-.82,2.35.03Z"/>
    <path class="cls-3" d="M324.95,134.76c-.66.69-1.11,1.17-1.56,1.64-.38-.36-.96-.67-1.07-1.1-.22-.79.16-1.55,1.07-1.57.42,0,.85.54,1.56,1.03Z"/>
    <path class="cls-3" d="M169.47,138.92c-.73.61-1.19,1.12-1.75,1.39-.16.08-.88-.46-.93-.79-.13-.82.3-1.48,1.2-1.48.38,0,.75.42,1.49.87Z"/>
    <path class="cls-3" d="M174.66,132.9c-.33-.49-.66-.74-.66-1.01,0-.58.15-1.17.24-1.75.44.1.98.08,1.3.33.6.47.6,1.13.08,1.71-.21.23-.49.38-.96.71Z"/>
    <path class="cls-3" d="M183.49,125.01c-.53.39-1.01.96-1.6,1.1-.33.08-.84-.52-1.27-.82.43-.41.8-.98,1.3-1.18.38-.14.94.2,1.42.32.05.19.1.38.14.57Z"/>
    <path class="cls-3" d="M268.15,105.83c-.05-1.28-.08-1.9-.12-2.69.55.06,1.05-.04,1.27.17.36.35.87,1.11.73,1.32-.29.45-.95.65-1.88,1.2Z"/>
    <path class="cls-3" d="M192.16,285.64c-.66.45-1.13,1.01-1.49.94-.4-.07-.96-.72-.95-1.1.01-.38.65-1.05,1.01-1.04.4,0,.79.63,1.43,1.2Z"/>
    <path class="cls-3" d="M172.34,270.85c-.37-.87-.83-1.77.29-2.36.72-.38,1.37.05,1.47.84.16,1.22-.61,1.58-1.77,1.52Z"/>
    <path class="cls-2" d="M219.44,129.89c1.79-.59,2.83-.37,3.98.78-1.55.74-2.61.63-3.98-.78Z"/>
    <path class="cls-3" d="M192.91,116.51c.82-.54,1.47-.96,2.07-1.35.97.63,1.09,1.33.44,1.94-.74.68-1.58.77-2.51-.59Z"/>
    <path class="cls-3" d="M198.87,115.02c-.87-.66-1.58-1.25-.81-2.09.28-.31,1.39-.36,1.67-.08.98,1.02-.07,1.5-.86,2.17Z"/>
    <path class="cls-3" d="M220.55,105.25c.54-.46.98-1,1.54-1.25.32-.15.85.16,1.29.27-.14.43-.15,1.04-.45,1.26-.72.55-1.57.89-2.39-.29Z"/>
    <path class="cls-3" d="M332.04,143.13c-.69.49-1.15,1.04-1.68,1.11-.32.04-1.02-.63-1.05-1.01-.05-.88.62-1.36,1.48-1.21.36.06.65.56,1.25,1.11Z"/>
    <path class="cls-3" d="M278.78,108.64c-.51-.67-1.07-1.07-1.07-1.47,0-.39.57-.78.89-1.17.43.39,1.03.71,1.22,1.19.1.25-.54.79-1.04,1.45Z"/>
    <path class="cls-3" d="M300.27,115.32c-.75.72-1.06,1.23-1.5,1.4-.73.29-1.39-.13-1.43-.86-.02-.4.51-1.1.89-1.18.49-.1,1.07.3,2.04.64Z"/>
    <path class="cls-3" d="M150.45,174.46c-.79-1.09-.68-1.88.4-2.3.29-.11,1.09.28,1.16.57.33,1.31-.73,1.37-1.56,1.73Z"/>
    <path class="cls-3" d="M152.03,169.7c-.13-.18-.29-.29-.32-.44-.18-.79-.08-1.56.8-1.79.26-.06.93.47.97.79.12.99-.43,1.52-1.45,1.44Z"/>
    <path class="cls-2" d="M221.94,134.74c-.17-.44-.33-.87-.68-1.8,1.35.3,2.29.52,3.48.79-.92,1.39-2.07.54-2.88.95l.07.06Z"/>
    <path class="cls-3" d="M190.17,120.63c-.48-.73-1-1.22-.91-1.43.24-.54.73-.99,1.22-1.36.08-.06.97.64.91.78-.23.61-.67,1.14-1.22,2.01Z"/>
    <path class="cls-3" d="M163.6,259.99c-.21-1.21.24-1.89,1.41-1.82.33.02.96.68.91.91-.32,1.3-1.23,1.35-2.31.91Z"/>
    <path class="cls-3" d="M293.45,114.47c-.4-.47-.79-.93-1.3-1.54.55-.38.91-.76,1.33-.87.29-.07.96.24.97.4.01.65-.15,1.3-.26,1.95-.24.02-.49.04-.74.06Z"/>
    <path class="cls-3" d="M199.02,289.46q-.1,1.93-1.95,1.63c-.05-1.24.47-1.84,1.95-1.63Z"/>
    <path class="cls-3" d="M207.86,295.98c-.78.4-1.29.86-1.69.79-.38-.07-.66-.7-.99-1.09.39-.3.81-.87,1.18-.84.43.03.82.58,1.51,1.14Z"/>
    <path class="cls-3" d="M178.25,129.46c-.48-.51-.94-.78-.94-1.04,0-.89.62-1.33,1.44-1.32.29,0,.85.63.82.67-.35.54-.78,1.03-1.32,1.69Z"/>
    <path class="cls-3" d="M212.51,297.65c-.76.97-1.51,1.22-2.25.55-.23-.22-.24-1.12-.02-1.29.96-.77,1.6-.15,2.28.75Z"/>
    <path class="cls-3" d="M215.57,301.55c-.55-.88-.93-1.47-1.3-2.07.47-.18,1.07-.63,1.38-.48.94.44.86,1.23-.08,2.55Z"/>
    <path class="cls-3" d="M326.93,273.48c-.04-.32-.18-.65-.07-.76.42-.44.89-.85,1.4-1.18.05-.03.65.49.71.81.16.98-.75.87-1.31,1.08-.2.07-.44.03-.71.04Z"/>
    <path class="cls-3" d="M181.04,276.86c-.6.57-1.1,1.21-1.21,1.15-.53-.3-.99-.75-1.34-1.25-.06-.09.6-.97.79-.92.55.15,1.03.57,1.76,1.02Z"/>
    <path class="cls-3" d="M331.31,267.25c.45.83.93,1.37.82,1.6-.22.44-.76.76-1.23,1.01-.09.05-.74-.59-.68-.76.18-.54.58-1.02,1.09-1.85Z"/>
    <path class="cls-3" d="M216.26,106.54c.44-.91.85-1.75,1.97-1.26.26.11.5,1,.33,1.26-.66,1.01-1.45.65-2.29,0Z"/>
    <path class="cls-3" d="M159.14,155.81c-.65.51-1.21,1.17-1.42,1.07-.48-.22-.78-.81-1.16-1.26.38-.32.77-.89,1.15-.88.4.01.79.57,1.43,1.08Z"/>
    <path class="cls-3" d="M161.27,150.98c-.65.56-1.05.9-1.46,1.24-.28-.33-.83-.7-.8-.99.05-.48.49-.92.76-1.37.41.31.83.62,1.49,1.12Z"/>
    <path class="cls-3" d="M162.51,145.02c.59.95,1,1.6,1.64,2.62-.7.08-1.26.33-1.57.15-.87-.51-.87-1.04-.07-2.77Z"/>
    <path class="cls-3" d="M275.45,105.63c-.6.52-.91.99-1.27,1.05-.83.14-1.22-.46-1.13-1.19.05-.37.63-1.03.73-.99.53.23.99.63,1.68,1.13Z"/>
    <path class="cls-3" d="M187.64,282.77c-.47.86-.88,1.63-1.76.82-.25-.24-.34-1.1-.13-1.31.68-.68,1.34-.38,1.89.49Z"/>
    <path class="cls-3" d="M195.79,288.8c-.91.43-1.37.8-1.84.81-.3,0-.6-.53-.9-.82.31-.32.64-.91.94-.91.46,0,.91.44,1.79.92Z"/>
    <path class="cls-3" d="M256.95,305.33c.39.71.8,1.15.82,1.59,0,.23-.72.71-1.07.66-.32-.04-.79-.63-.79-.97,0-.34.52-.68,1.03-1.28Z"/>
    <path class="cls-3" d="M334.89,147.06c-.67.52-1.07,1.04-1.31.98-.44-.12-.93-.52-1.09-.93-.1-.23.49-1.05.59-1.02.54.17,1.01.51,1.82.97Z"/>
    <path class="cls-3" d="M164.29,143.89c-.28-1.06-.11-1.77,1-1.85.27-.02.83.46.81.7-.05,1.1-.81,1.27-1.82,1.16Z"/>
    <path class="cls-3" d="M243.61,307.27c-.79-.04-1.46-.07-2.08-.1-.19-1.11.29-1.47,1.04-1.48.74-.01,1.25.33,1.04,1.58Z"/>
    <path class="cls-3" d="M231.85,304.35c.87-.82,1.54-.68,2.06.17.1.16-.1.71-.3.82-1.05.56-1.4-.16-1.77-.98Z"/>
    <path class="cls-3" d="M294.66,297.52c-.5.44-.84.98-1.14.96-.44-.04-.84-.48-1.26-.74.37-.36.68-.88,1.12-1.02.26-.08.71.43,1.28.81Z"/>
    <path class="cls-3" d="M296.28,296.29c.18-1.21.76-1.63,1.72-1.25.26.1.55.78.45.98-.58,1.06-1.35.38-2.17.26Z"/>
    <path class="cls-3" d="M168.23,263.64c-1.04.17-1.9.23-2.05-.88-.03-.26.53-.86.84-.87,1.03-.05,1.44.56,1.21,1.76Z"/>
    <path class="cls-3" d="M154.41,162.84c.43.59.95,1.04.87,1.25-.17.44-.65.75-1.02,1.12-.3-.31-.89-.66-.84-.91.07-.44.53-.82.99-1.46Z"/>
    <path class="cls-3" d="M154.51,160.04c-.01-.27-.05-.38-.01-.43.46-.68.83-1.58,1.9-1.04.2.1.37.64.27.85-.42.93-1.16,1.11-2.16.62Z"/>
    <path class="cls-3" d="M200.57,293c.94-.7,1.65-.54,2.14.27.11.19-.18.89-.41.96-1.04.33-1.37-.41-1.73-1.24Z"/>
    <path class="cls-3" d="M225.14,302.35c-.55.44-.89.91-1.23.92-.35,0-.7-.44-1.05-.69.29-.32.54-.85.88-.9.34-.06.76.35,1.4.68Z"/>
    <path class="cls-3" d="M284.32,300.17c.47.43,1.01.71,1.04,1.03.03.31-.57,1-.71.96-.48-.14-.86-.55-1.28-.86.27-.33.56-.66.95-1.13Z"/>
    <path class="cls-3" d="M324.51,274.93c.35.68.68,1.1.74,1.55.02.21-.64.74-.72.69-.43-.26-.79-.67-1.17-1.02.3-.32.6-.63,1.15-1.22Z"/>
    <path class="cls-3" d="M281.63,302.77c-.59.41-.93.83-1.3.85-.38.02-.79-.35-1.18-.55.35-.36.65-.9,1.07-1.03.29-.09.76.37,1.41.73Z"/>
    <path class="cls-3" d="M307.4,291.05c-.56.45-.92.92-1.11.86-.46-.14-.85-.54-1.26-.84.24-.27.52-.79.71-.76.49.07.93.4,1.66.74Z"/>
    <path class="cls-3" d="M335.03,264.81c-.56.35-.92.72-1.31.77-.23.03-.52-.47-.78-.74.38-.32.73-.71,1.16-.92.11-.05.5.47.93.89Z"/>
    <path class="cls-3" d="M266.85,305.27c.23,1.09-.08,1.69-1.07,1.53-.35-.06-.95-.66-.89-.87.33-1.23,1.25-.57,1.96-.66Z"/>
    <path class="cls-3" d="M170.1,267.97c-.51-.59-.98-1.07-.94-1.11.38-.45.84-.86,1.31-1.21.04-.03.65.48.6.58-.21.53-.54,1-.98,1.74Z"/>
    <path class="cls-3" d="M230.44,303.46c-.76.38-1.15.71-1.56.73-.31.02-.63-.35-.95-.54.31-.3.59-.81.94-.86.36-.06.79.32,1.57.67Z"/>
    <path class="cls-3" d="M238.61,306.14c-.83.56-1.58.73-2.11-.25-.09-.16.15-.71.35-.79.96-.4,1.55-.04,1.76,1.03Z"/>
    <path class="cls-3" d="M275.15,303.31c.61.09,1.23.18,1.84.27-.05.3-.02.74-.2.87-.77.57-1.31.19-1.75-.43.04-.24.07-.47.11-.71Z"/>
    <path class="cls-3" d="M287.9,300.41c-.22-1.33.23-1.79,1.14-1.59.29.06.46.68.68,1.05-.59.18-1.19.35-1.82.54Z"/>
    <path class="cls-3" d="M271.82,305.39c-.54.18-1.07.37-1.62.49-.03,0-.35-.62-.26-.81.43-.89,1.08-.66,1.88.32Z"/>
    <path class="cls-3" d="M251.75,305.52c.39.39.92.72.87.88-.1.35-.49.63-.76.94-.27-.24-.72-.46-.76-.73-.03-.28.34-.61.66-1.09Z"/>
    <path class="cls-3" d="M218.56,301.17c1.02-.83,1.67-.79,2.21-.08.09.11-.02.54-.16.64-.77.51-1.31.09-2.05-.55Z"/>
    <path class="cls-3" d="M312.63,285.15c.56-.27.91-.59,1.18-.54.31.06.54.46.81.71-.28.22-.57.62-.85.62s-.59-.39-1.14-.79Z"/>
    <path class="cls-3" d="M318.89,282.09c-.27,1.08-.7,1.54-1.59,1.19-.15-.06-.32-.43-.27-.59.28-.9.9-1.01,1.86-.6Z"/>
    <path class="cls-3" d="M303.71,293.38c-.64.36-1.01.66-1.42.76-.18.04-.45-.36-.68-.55.3-.32.54-.76.92-.9.2-.08.6.34,1.18.7Z"/>
    <path class="cls-3" d="M322.5,279.4c-.55.33-.9.6-1.3.72-.1.03-.35-.42-.53-.65.33-.26.64-.58,1.01-.73.11-.05.42.33.81.67Z"/>
    <path class="cls-3" d="M309.55,289.05c.02-.53.04-1.07.07-1.89,1.22.75,1.22,1.29-.07,1.89Z"/>
    <path class="cls-3" d="M261.47,307.69c-.85-.83-.92-1.44-.21-2.27.92.6.92,1.23.21,2.27Z"/>
    <path class="cls-2" d="M224.52,120.94c.74.62,1.14.94,1.52,1.26-.18.2-.37.4-.56.6-.73.04-1.21-.19-.96-1.87Z"/>
    <path class="cls-1" d="M338.85,211.82c.04-4.87.06-9.73.12-14.59.03-2.23,1.05-3.65,3.18-4.27,1.03-.3,2.16-.52,3.21-.43,3.2.28,4.3,1.3,4.47,4.5.17,3.09.04,6.2.01,9.3-.03,4.36-.07,8.72-.16,13.07-.02,1.09-.18,2.18-.37,3.25-.44,2.5-.91,2.89-3.47,3.03-5.18.28-5.81-.18-6.29-5.33-.27-2.83-.27-5.69-.39-8.54-.11,0-.22,0-.33.01Z"/>
    <path class="cls-2" d="M301.34,157.71c1.02-1.95,1.95-3.73,2.89-5.49.27-.51.75-.95.92-1.49.18-.58.3-1.31.09-1.82-.11-.26-1.07-.32-1.58-.21-1.28.29-2.53.73-4.02,1.19.45-1.78,1.69-2.45,2.81-3.29,1.06-.79,1.96-1.78,2.95-2.72,1.48.84-.46,3.6,1.94,4.21.64,1.49.58,3.45,2.91,3.86-.27,1.65-.76,3.15-.66,4.61.09,1.24.86,2.44,1.16,3.23-.37.65-.69,1.41-1.17,2.06-.76,1.05-.71,2.04.05,3,.77.98,1.62,1.91,2.43,2.86-.06.13-.11.35-.19.36-2.65.46-2.96,1.34-1.47,3.59.47.71.88,1.79.68,2.53-.44,1.55.22,2.19,1.45,2.69.38.16.76.32,1.16.49-2.01,1.28-2.47,1.27-4.11-.06-2.02-1.64-5.87-1.83-7.89-.14-1.59,1.34-3.22,1.54-5.14,1.14-3.26-.68-6.48-.71-9.68.48-.99.37-2.13.45-3.21.48-3.94.1-7.9.33-11.83.1-3.55-.21-6.99.42-10.48.63-5.6.34-11.22.25-16.84-.14-6.09-.42-12.2-1.13-18.33-.21-1.05.16-2.19.06-3.24-.16-2.59-.55-5.15-.51-7.74-.03-1.14.21-2.33.06-3.49.14-1.2.08-2.29,0-3.39,1.1-.73.72-2.53.52-3.83.49-3.76-.11-7.52-.23-11.26-.56-2.72-.24-5.41-.81-8.12-1.22-.9-.14-1.81-.27-3.19-.46,1.63-1.24,3.13-2.18,4.38-3.37,1.28-1.22,2.47-2.58,3.73-4.47-2.38-.2-4.24-.36-6.1-.51q-.13-1.69,1.36-4.71c-.25-.24-.52-.54-.82-.78-.23-.18-.53-.28-.83-.43,1.86-2.37,3.62-4.59,5.36-6.82.07-.09-.04-.31-.11-.75-1.1-.14-2.29-.28-3.65-.45,1.32-2.82,2.58-5.49,3.82-8.14-1.52-1.12-2.71.3-4.37.12,1.69-2.24,3.25-4.31,4.93-6.54,2.61,2.46,3.86,5.73,5.98,8.49-.85,1.01-1.63,1.94-2.51,2.98.42,1.3.71,2.72,2.21,3.56.87.49.65,1.17,0,1.84-1.49,1.51-1.52,2.36-.37,4.09.69,1.04,1.36,2.11,1.92,3.22.97,1.96,1.8,2.45,3.98,1.92,1.59-.38,3.15-.92,4.76-1.4-.82,1.7-1.62,3.34-2.52,5.21-.48.02-1.38-.17-2.03.16-.54.27-.76,1.15-1.14,1.78-.56-.19-1.18-.43-1.81-.61-.12-.04-.3.1-.63.22-.15,1.47.22,2.91.96,4.21.78,1.35,2.72,1.76,3.97.83,1.53-1.14,2.99-2.39,4.43-3.65.81-.71,1.33-1.95,2.67-.81.37-.76.67-1.18.77-1.66.32-1.5,1.43-1.93,2.72-2.15q2.07-.36,2.17-2.5c0-.25.04-.5.05-.75.09-1.55-.18-2.88-1.92-3.23-.41-1.94-.77-3.78-1.21-5.59-.26-1.08-1.5-1.63-2.07-.85-1.87,2.52-4.72,2.8-7.75,3.69.4-.5.6-.78.82-1.03,2.36-2.6,4.74-5.18,7.09-7.79.76-.85,1.16-1.75-.37-2.61,1.2-.97,2.19-1.78,3.43-2.79-.93-.93-1.73-1.72-2.6-2.58.57-.89,1.19-1.87,1.84-2.91-1.38-1.29-2.74-1.88-4.52-.92-.69.37-1.54.42-2.27.61-.54-1.23.35-1.51.85-2.01,1.82-1.85,3.67-3.68,5.44-5.59.55-.6.96-1.38,1.27-2.15.15-.37.07-1.07-.18-1.29-.27-.23-.94-.21-1.33-.05-1.59.69-3.14,1.47-4.87,2.3.58-2.78,1.96-4.67,4-6.22,1.04-.8,1.85-1.94,2.66-3.01.32-.42.59-1.15.43-1.56-.13-.34-.93-.51-1.45-.57-2.43-.3-4.63.33-6.54,1.98-.8-1.23-.11-1.93.43-2.64.76-.99,1.69-1.85,1.74-3.26.01-.44.38-.99.76-1.26,2.57-1.86,2.81-4.63,3.02-7.43.03-.41.06-.82.14-1.81,1.09,1.66,2.23,2.64,1.73,4.45-.27,1,.21,1.81.85,2.72,1.11,1.57,2.35,3.19,2.51,5.25.08,1,.63,1.48,1.55,1.7.6.14,1.19.37,1.94.61-1.2.76-2.23,1.3-3.1,2.02-.48.39-.97,1.08-.98,1.64-.04,1.86.11,3.72.27,5.58.08.9.21,1.84.56,2.65.35.82,1.02,1.5,1.52,2.22-1.13,1.36-1.3,3.83-.29,4.98.32.37,1.14.72,1.52.57,1.75-.73,2.84.21,3.98,1.26.41.39.93.66,1.76,1.24-.82.04-1.26.05-1.68.07-2.01.08-2.69.91-1.89,2.69.6,1.34,1.53,2.55,2.4,3.75.18.25.77.3,1.17.29,1.94-.05,3.84-.24,5.51-1.44,1.29-.92,2.63-1.83,4.07-2.49,2.13-.98,3.36-2.7,4.45-4.62.7-1.22,1.2-2.48.4-3.79-.8-1.31-2.13-1.47-3.54-1.38-1.99.12-3.98.18-6.56.29,1.01-1.53,1.66-2.64,2.45-3.67.76-1,1.65-1.9,2.5-2.83,1.5-1.65,1.41-1.65.38-3.66-.76-1.49-1.85-1.14-2.99-.9-.48.1-.93.28-1.6.09.68-.57,1.35-1.16,2.06-1.69,2.11-1.6,3.97-3.43,4.87-5.97.87-2.47,3.31-3.48,4.73-5.44.32-.45,1.28-.43,1.92-.87-1.7-.94-3.48-.92-5.18-.42-1.66.49-3.23,1.3-5.34,2.18.59-.85.84-1.33,1.19-1.71,1.34-1.46,2.17-3.1,2.59-5.07.32-1.52,1.2-2.92,1.76-4.41.22-.59.52-1.63.28-1.81-.49-.38-1.32-.41-2.01-.42-.46,0-.92.27-1.47.45.04-1.44.66-2.22,1.85-2.75,1.22-.55,2.37-1.27,3.49-2.01.54-.36,1.07-.84,1.42-1.39.49-.78.11-1.54-.81-1.66-.73-.09-1.48-.02-2.51-.03.02-.81-.21-1.66.11-2.16,2.13-3.32,3.98-6.76,4.82-11.2,1.38,2.76,2.8,4.88,3.52,7.23.69,2.26.66,4.75.98,7.42-.85.72-1.63,1.82-.68,3.25.93,1.39,2.16,2.13,3.92,1.22.9.99,1.74,1.9,2.79,3.04-1.15.22-2.07.4-3.07.59-.82,2.75.54,5.14,1.09,7.62.6,2.67,3.05,4.11,4.51,6.23-2.59.98-5.1,1.89-7.58,2.87-1.33.52-1.79,1.79-.91,2.83,1.36,1.63,2.62,3.68,5.39,2.61.39-.15,1.09.2,1.52.49.83.55,1.57,1.23,2.51,2-1.4,1.03-2.62.73-3.82.58-.96-.12-2.11-.64-2.43.87-.34,1.61.73,3.26,2.18,3.34,1.92.1,3.85.07,5.76.17.8.05,1.58.31,2.38.47.01.18.03.36.04.54-1.2.31-2.39.63-3.72.97-.31,2.15-.34,4.12,1.86,5.49.6.37.98,1.09,1.52,1.73-.68.45-1.2.79-1.78,1.17.78,2.97,3.74,1.74,5.49,3.01-1.57,1.82-3.36-.84-4.82.35.11,2.23,2.41,5.62,4.29,5.86,1.08.14,2.28-.25,3.33-.66.98-.37,1.85-1.06,2.83-1.66.56.76.99,1.34,1.47,2,1.59-.52,1.53-1.94,1.79-3.07.75-3.43.39-5.87-1.09-7.96-1.98,0-2.08,2.15-3.65,3.3.26-1.8.2-3.16,1.08-4.59.94-1.53,1.41-3.39,1.93-5.15.44-1.49-.11-2.29-1.63-2.42-.88-.08-1.79.15-2.72.24,2.32-4.25,5.81-7.86,6.79-13.16.87,2.56,1.63,4.82,2.44,7.24-1.55,2.09-1.62,5.22.18,7.3.46.52,1.46.75,2.23.79.95.05,1.87-.13,2.36,1.1-.48.42-1.23.8-1.45,1.38-.24.64.04,1.46.05,2.2.07,2.35,1.03,4.34,3.04,6.15-1.18.21-1.83.26-2.45.44-1.63.46-2.28,1.53-1.5,3.05.66,1.3,1.75,2.38,2.77,3.7-.31.21-.81.55-1.46,1,.94,1.34,1.74,2.69,2.77,3.83.42.46,1.34.55,2.05.63.78.08,1.59-.04,2.85-.09-.57.71-.81,1.08-1.11,1.39-1.4,1.48-1.36,1.93.32,3.09.21.14.41.27.76.5-.88,1.28-2.07,2.52-1.02,4.25.11.18-.27.61-.25.91.05.69-.03,1.6.37,2.03,2.13,2.36,4.34,4.67,6.63,6.86.73.7,1.84,1.02,2.8,1.52,1.55-1.91,3.4-3.14,4.09-5.38.21-.69,1.24-1.09,1.69-1.77.33-.48.33-1.19.49-1.79-.6-.07-1.25-.32-1.79-.17-1.18.33-2.31.86-3.66.99,1.18-1.58,2.36-3.17,3.73-5-.84-.08-1.44-.13-2.39-.22,1.1-1.83,2.14-3.56,3.29-5.46-.73-.31-1.31-.56-2.27-.97ZM231.96,162.04c.23-.03.47-.06.71-.09.8-3.35,3.41-5.25,5.65-7.45.54-.53,1.06-1.07,1.52-1.66.3-.39.57-.84.71-1.31.43-1.42-.31-2.36-1.78-2.09-1.37.25-2.86.56-4,1.3-1.83,1.19-3.67,1.87-5.85,1.83-.59-.01-1.64.35-1.68.65-.08.63.16,1.57.63,1.95,1.52,1.24,2.12,2.94,2.78,4.65.3.79.86,1.49,1.31,2.22ZM247.77,163.59c.19,0,.39,0,.59,0,.1-.52.33-1.05.28-1.55-.16-1.66-.47-3.29-.65-4.95-.19-1.71.11-3.6-.54-5.1-.65-1.5-.32-2.72-.12-4.08.17-1.15.35-2.29.56-3.63-.57.1-.98.17-1.33.23-.3-.46-.59-.9-.94-1.45-1.33,1.25-.94,2.81-.49,3.66,1.27,2.4.38,4.97,1.1,7.43.78,2.67.7,5.58,1.03,8.38.05.37.34.71.52,1.06ZM262.3,166.78c-.9.49-1.58,1.08-2.33,1.21-1.58.28-1.71,1.25-1.65,2.37,4.05,2.18,6.89-.41,10.21-2.05-2.05-1.46-4.3-.81-6.23-1.54ZM228.29,175.93c.21-.05.42-.09.63-.14-.04-.87.12-1.8-.15-2.58-.49-1.41-.37-2.66-.02-4.1.46-1.89.24-3.84-1.32-5.39.49-1.58,2.73-2.88.94-5.01-1.95,1.45-1.01,3.92-2.28,5.48-.07.08.23.41.28.65.13.65.22,1.3.31,1.96.29,2.55.54,5.11.89,7.65.07.51.48.98.73,1.48ZM244.71,176.43c-.85-3.98-1.05-7.72-.77-11.45.16-2.05-1.2-3.84-.66-5.88.03-.1-.35-.3-.72-.6-.64.95-1.05,1.87-.96,3.02.12,1.55.72,3,.96,4.46.41,2.38,1.09,4.83.55,7.35-.22,1.02.05,2.14.1,3.36.62-.11,1.01-.17,1.5-.26ZM238.04,121.47c3.1.79,7.36-1.17,8-3.52-.96.54-1.81,1.03-2.72,1.55-.21-.36-.38-.67-.75-1.32-1.48,1.08-2.9,2.11-4.53,3.29ZM257.95,138.27c-.17,0-.35,0-.52,0-.06,2.27-.12,4.54-.19,7.05,2.16-2.31,2.21-3.04.71-7.04ZM235.89,134.37c1.19-.86,2.57.43,3.3-.88.77-1.39-1.19-1.51-1.18-2.61q-2.03,1.06-2.12,3.49ZM252.3,166.15c.07-2.13.16-4.26.17-6.39,0-.22-.5-.45-.83-.73-.81,2.58-.7,4.87.66,7.12ZM258.91,146.87c-1.32.88-1.4,1.92-1.14,3.14.21.98-1.37,1.84-.21,3.35,1.01-2.23,2.36-3.98,1.35-6.49ZM278.22,170.41c1.39-2.88,1.47-3.99.58-5.36-1.92,1.61-.75,3.55-.58,5.36ZM273.13,156.19c.71.25,1.25.44,2.18.77-.75-1.64.17-3.23-1.33-4.78-.32,1.5-.55,2.58-.86,4.01ZM246.65,135.16c-.77,2.44-.56,4.37.54,6.24-.3-1.96.95-3.99-.54-6.24ZM253.83,138.09c-.94-2.18,1.39-2.11,1.74-3.48-1.18-.35-2.33-.84-2.94.41-.42.85-.75,2.06,1.2,3.08ZM268.35,175.58c-1.83-1.4-2.02-1.41-4.11-.28.67.56,1.28,1.07,1.96,1.64.7-.44,1.3-.83,2.15-1.36ZM191.93,158.74c-.32,1.73-.81,3.47.65,4.94-.38-1.64,1.09-3.46-.65-4.94ZM251.1,174.82c.87-3.08.86-4.07,0-5.47-.1,1.82-.99,3.35,0,5.47ZM226.06,168.95c-.22.03-.43.07-.65.11-.05,1.56-.16,3.14,1.47,4.91-.33-2.04-.58-3.53-.82-5.01ZM220.67,147.08c-.04-1.49.45-2.58-.81-3.41-.86,1.22-.72,2.17.81,3.41ZM208.94,179.04c1.26-1.71,1.18-2.32-.36-3.12-.46,1.11-.53,2.12.36,3.12ZM278.03,172.76q-1.32,1.8.12,2.93c1.45-1.02-.24-1.94-.12-2.93ZM244.88,85.04c.6,1.68,1.02,2.86,1.44,4.04.47-2.13.22-2.83-1.44-4.04ZM214.29,139.7c.19-1.41.33-2.47.5-3.76-1.83,1.14-1.88,1.53-.5,3.76ZM302.52,174.35c.18.16.36.31.54.46.55-1.24,2.83-1.14,2.33-3.75-1.15,1.31-2.01,2.3-2.88,3.29ZM190.29,152.83c.12,1-.12,2.26,1.38,2.74.51-1.45-.72-1.96-1.38-2.74ZM254.5,138.5q1.24-.22,1.9-2.06c-.83.76-1.87.86-1.9,2.06ZM251.95,175.64c-.61.56-1.28,1.15-.24,2.01.1-.85.17-1.43.24-2.01Z"/>
    <path class="cls-1" d="M190.2,209.7c.2-4.47.38-7.48.45-10.49.05-2.04,1.43-3.06,4-3.29,2.34-.22,3.64.62,4.11,2.75.49,2.2.87,4.44,1.12,6.68.45,3.99.78,7.99,1.14,11.99.05.58,0,1.18-.05,1.76-.36,3.97-3.53,5.91-7.23,4.33-.61-.26-1.32-.95-1.44-1.55-.86-4.51-1.58-9.04-2.11-12.17Z"/>
    <path class="cls-1" d="M160.6,242.45c-1.26.18-2.13.31-3.18.46-.09-.66-.16-1.21-.24-1.87,1.33-.45,2.4-.39,3.43,1.41Z"/>
    <path class="cls-1" d="M200.47,241.01c.04,1.53-.91,2.6-2.36,2.65-1.63.05-3.04-1.3-3.06-2.94-.02-1.45,1.01-2.49,2.5-2.51,1.54-.02,2.88,1.26,2.93,2.8Z"/>
    <path class="cls-1" d="M211.2,239.02c-.04-.84-.05-1.39-.1-2.27.92.14,1.7.17,2.42.4.25.08.57.75.47.97-.53,1.17-1.6.86-2.79.9Z"/>
    <path class="cls-2" d="M285.26,236.29c-.41-.95-1.41-.86-1.92.12-1.24,2.37-2.42,4.76-3.56,7.18-.24.52-.21,1.18-.29,1.72,1.26.48,1.71-.24,2.08-.86.55-.93,1.32-1.18,2.32-1.07.74.08,1.49.09,2.18.13.65,1.02,1.25,1.96,1.85,2.9.21-.07.42-.13.63-.2.11-.29.39-.64.31-.85-1.16-3.04-2.31-6.08-3.59-9.07ZM283.23,241.4c.41-.83.72-1.46,1.23-2.49.42,1.07.64,1.64.93,2.39-.73.03-1.25.05-2.16.09Z"/>
    <path class="cls-2" d="M339.76,240.89c-.41-.95-1.42-.86-1.92.12-1.23,2.37-2.41,4.77-3.55,7.18-.24.52-.21,1.18-.29,1.72,1.26.47,1.71-.24,2.08-.86.55-.93,1.32-1.18,2.32-1.07.74.08,1.49.09,2.18.12.65,1.03,1.25,1.96,1.85,2.9.21-.07.42-.13.63-.2.11-.29.39-.64.31-.85-1.16-3.04-2.31-6.08-3.59-9.07ZM337.72,246c.41-.84.72-1.46,1.23-2.49.41,1.06.64,1.64.93,2.4-.72.03-1.25.05-2.16.09Z"/>
    <path class="cls-3" d="M244.88,85.04c1.66,1.21,1.9,1.91,1.44,4.04-.42-1.18-.84-2.36-1.44-4.04Z"/>
    <path class="cls-1" d="M239.23,150.93c-.63,2.02-2.28,2.95-3.53,4.22-1.21,1.25-2.48,2.45-3.69,3.65-.85-1.4-1.85-3.05-2.94-4.84.29-.06.73-.23,1.16-.23,1.65.01,3.1-.5,4.44-1.45,1.3-.93,2.72-1.49,4.55-1.36Z"/>
  </g>
</svg>