<?xml version="1.0" encoding="UTF-8"?>
<svg id="Layer_1" data-name="Layer 1" xmlns="http://www.w3.org/2000/svg" viewBox="0 0 180 200">
  <defs>
    <style>
      .cls-1, .cls-2, .cls-3, .cls-4, .cls-5, .cls-6, .cls-7, .cls-8, .cls-9 {
        fill-rule: evenodd;
      }

      .cls-1, .cls-10 {
        fill: #fff;
      }

      .cls-2 {
        fill: #ac6d2f;
      }

      .cls-3 {
        stroke-width: .4px;
      }

      .cls-3, .cls-11 {
        stroke: #231f20;
        stroke-miterlimit: 10;
      }

      .cls-3, .cls-11, .cls-5 {
        fill: #231f20;
      }

      .cls-4 {
        fill: #86b983;
      }

      .cls-10 {
        font-family: AmericanTypewriter-Bold, 'American Typewriter';
        font-size: 23.08px;
        font-weight: 700;
        letter-spacing: .02em;
      }

      .cls-11 {
        stroke-width: .5px;
      }

      .cls-6 {
        fill: #f4f4f4;
      }

      .cls-8 {
        fill: #f9a729;
      }

      .cls-9 {
        fill: #00a14b;
      }
    </style>
  </defs>
  <g>
    <g>
      <path class="cls-6" d="M49.27,123.75c-3.71-5.71-2.3-15.07-2.61-22.01-.04-.97-.47-1.99-.5-2.97-.1-3.44.05-8.95.12-12.53.07-3.43-.25-7.01.98-9.98.64-.44,1.37-.77,1.61-1.65,1.56-.25,3.07-.98,4.95-1.25,1.53-.22,3.05.19,4.59.05.8-.08,1.49-.62,2.29-.72.77-.1,1.66.25,2.47.21,1.52-.08,3.05-.75,4.6-.88,5.61-.46,11.56-.4,17.63-.38,5.75.02,11.88.97,17.63.87,3.58-.05,7.17.04,10.76-.07,4.77-.16,9.63-.16,14.27-.23,2.92-.04,5.96,0,8.64.27,2.36.23,5.39.76,8.45.83,1.89.03,3.92-.47,6-.5,1.94-.03,4.01.28,5.99.24,4.09-.08,8.6-.35,11.81.49.73.19,1.45.96,2.45,1.5,1.05.56,2.24.84,2.64,1.32,1.17,1.44.66,4.73.81,7.59.53,11.01,3.15,26.86-.03,37.71-2.23,3.47-6.32,2.63-11.49,2.84-4.25.18-8.28.27-12.86.43-2.03.07-4.1.39-6.18.5-11.29.55-23.56-.09-33.14.04-9.53.12-20.34-.27-29.07-.84-1.24-.09-2.48.36-3.71.33-2.26-.04-4.48-.61-6.69-.43-1.69.13-3.29.75-4.94.69-1.15-.05-2.44-.67-3.69-.77-2.92-.24-6.17.53-9.17.09-1.64-.25-3.05-.89-4.58-.79h0Z"/>
      <g>
        <path class="cls-2" d="M71.7,95.06c.06,0,.06.08.07.13-.07.04-.05-.09-.07-.13h0Z"/>
        <path class="cls-4" d="M98.61,79.5c.59.04.41.9.23,1.21-.03-.37-.38-.83-.23-1.21h0Z"/>
        <path class="cls-4" d="M98.7,80.89l.13-.03c0,.22.16.53-.2.68-.06-.16.08-.43.08-.65h0Z"/>
        <path class="cls-4" d="M98.46,81.99c.19-.04.17.17.21.3-.17.02-.16-.16-.21-.3h0Z"/>
        <path class="cls-4" d="M98.46,82.37s.08.02.13,0c.05.1-.03.14-.04.22-.12.03-.14-.17-.09-.23h0Z"/>
        <path class="cls-4" d="M94.02,85.11c.11,0,.06.18.1.26-.15-.03-.08-.14-.1-.26h0Z"/>
        <path class="cls-4" d="M115.28,80.56c.18.06-.07.18.03.31-.16-.05-.03-.23-.03-.31h0Z"/>
        <path class="cls-4" d="M84.52,88.88c-.04.1-.01.23-.16.28-.07-.15,0-.23.16-.28h0Z"/>
        <path class="cls-4" d="M97.57,86.36c-.2-.08-.04-.49,0,0h0Z"/>
        <path class="cls-4" d="M123.33,80.32c.14-.06.15.03.24.05-.21.23-.4.45-.77.6-.13-.07-.13-.21-.07-.33.12.01.33-.07.41,0,.12-.08.15-.21.2-.32h0Z"/>
        <path class="cls-4" d="M93.56,87.25c.01.08.03.17-.09.2-.03-.1-.05-.18.09-.2h0Z"/>
        <path class="cls-4" d="M99.02,86.38c.29-.06.12.14.16.28-.07-.1-.2-.17-.16-.28h0Z"/>
        <path class="cls-4" d="M122.49,81c.16.1-.01.26-.25.27.07-.1.1-.21.25-.27h0Z"/>
        <path class="cls-4" d="M98.97,86.95c.18,0,.12.23.07.3-.16.01-.14-.24-.07-.3h0Z"/>
        <path class="cls-4" d="M98.93,87.38c.15-.03.12.16.19.24-.1-.04-.15-.13-.19-.24h0Z"/>
        <path class="cls-4" d="M99.06,87.74c.13,0,.1.19.19.24.15-.02-.01-.17.14-.17.08.2.05.36-.07.47-.04,0-.08-.02-.13,0l-.12-.53h0Z"/>
        <path class="cls-4" d="M99.03,88.4c.25.06.5.23.72.19l.03.13c-.27-.13-.08.24-.24.33-.1,0-.29-.01-.29.1-.09-.2-.09-.56-.22-.75h0Z"/>
        <path class="cls-4" d="M95.96,89.4c.11.22-.1.29-.22.4l-.06-.27c.09-.05.15-.11.28-.13h0Z"/>
        <path class="cls-4" d="M99.67,89.03c.07-.02.09.01.13,0,.02.17,0,.19.15.22.02.08-.04.11-.05.19-.16-.03-.18-.23-.23-.4h0Z"/>
        <path class="cls-4" d="M125.46,85.6c.53.26,1.44.29,1.6.86-.32.04-.58-.2-.9-.36-.23-.12-.67-.15-.7-.5h0Z"/>
        <path class="cls-4" d="M67.76,99.02c.12.04.09.26.03.31-.2-.06-.04-.21-.03-.31h0Z"/>
        <path class="cls-4" d="M87.38,97.36c.24-.08.37.06.32.21l-.26.06c-.02-.1-.14-.16-.06-.26h0Z"/>
        <path class="cls-4" d="M85.6,98.62c-.02.12-.07.22-.26.27-.1-.17.07-.33.26-.27h0Z"/>
        <path class="cls-4" d="M97.67,99.93c-.14-.06-.17-.24-.34-.27.23-.24.37.08.34.27h0Z"/>
        <path class="cls-4" d="M93.63,98.72c-.08-.03-.08-.17-.21-.13-.1.09.22.16.21.13h0ZM85.34,98.89c.18-.04.23-.15.26-.27-.19-.06-.36.1-.26.27h0ZM89.79,97.99c-.02-.1-.15-.07-.28-.04.01-.17-.19-.08-.26-.15.05-.03.09-.06.11-.1-.1-.01-.26.06-.25-.09-.19,0-.18.12-.28.17.12.31.63.13.95.2h0ZM87.44,97.63l.26-.06c.05-.15-.09-.29-.32-.21-.08.1.04.16.06.27h0ZM127.25,86.52c.32.27.74.62.76,1.12.12-.01.15.07.28.04.15-.23-.21-.58-.13-.74-.36-.04-.52-.55-.92-.42h0ZM67.79,99.33c.06-.06.1-.27-.02-.31-.02.1-.18.26.02.31h0ZM126.16,86.11c.31.15.58.39.9.36-.16-.57-1.07-.6-1.6-.86.03.35.47.39.7.5h0ZM130.71,82.89c.18-.01.26-.21.09-.2-.03.07-.13.1-.09.2h0ZM131.52,82.66c.01-.12-.07-.14-.16-.14,0,.11.09.13.16.14h0ZM133.24,82.26s.05-.32-.11-.25c0,.08-.05.27.11.25h0ZM132.09,82.39c0-.09.02-.17-.09-.19-.07.07,0,.18.09.19h0ZM99.9,89.43c0-.07.07-.11.05-.19-.15-.03-.12-.05-.14-.22-.05.01-.07-.03-.13,0,.05.18.07.37.23.41h0ZM95.68,89.53l.06.26c.12-.11.32-.18.22-.4-.13.03-.2.09-.28.13h0ZM128.32,81.93c.07.03.22,0,.21-.09-.05.01-.05-.05-.09-.05.02.08-.12.07-.12.13h0ZM99.25,89.16c0-.12.2-.1.29-.1.16-.1-.03-.46.25-.34l-.03-.13c-.23.05-.47-.13-.72-.19.13.2.13.55.22.75h0ZM129.11,81.61c.24.02.31-.24.12-.24.03.11-.06.17-.12.24h0ZM99.19,88.27c.05-.01.1,0,.13,0,.13-.11.15-.27.08-.47-.16,0,0,.15-.15.17-.09-.04-.05-.24-.18-.24l.12.53h0ZM99.12,87.61c-.07-.07-.04-.26-.19-.24.04.11.1.2.19.24h0ZM99.04,87.25c.05-.07.11-.31-.07-.3-.07.06-.09.31.07.3h0ZM122.24,81.27c.24,0,.42-.16.25-.27-.15.06-.18.17-.25.27h0ZM99.18,86.66c-.04-.14.13-.34-.16-.28-.04.12.09.18.16.28h0ZM93.47,87.45c.13-.03.11-.11.09-.19-.14.01-.12.1-.09.19h0ZM123.14,80.64c-.08-.08-.29,0-.41-.01-.06.12-.06.26.08.33.37-.14.56-.37.77-.6-.09-.01-.1-.1-.24-.05-.05.11-.08.24-.2.32h0ZM97.57,86.36c-.04-.49-.19-.08,0,0h0ZM84.36,89.16c.15-.05.12-.19.16-.28-.16.05-.23.13-.16.28h0ZM115.31,80.87c-.1-.13.15-.24-.03-.31,0,.08-.13.26.03.31h0ZM94.12,85.37c-.04-.08.01-.26-.1-.26.02.11-.04.23.1.26h0ZM98.55,82.6c0-.08.09-.12.04-.22-.06.02-.1,0-.13,0-.05.06-.03.26.09.23h0ZM98.66,82.29c-.04-.13-.02-.34-.21-.3.05.13.04.32.21.3h0ZM98.62,81.53c.36-.15.2-.45.2-.68l-.13.03c0,.22-.13.49-.08.65h0ZM98.84,80.71c.18-.31.36-1.17-.23-1.21-.15.37.2.84.23,1.21h0ZM131.14,85.34c-.24.04-.14.31.06.26.03-.1,0-.19-.06-.26h0ZM132.48,86.99c.06-.05.01-.15.04-.22.42,0,.26.93.75.71.14.35.06.6.07.89-.2,0-.36.13-.57.1-.54-.59-1.25-.96-1.98-1.33-.29.18-.44-.02-.79.11-.07-.09-.19-.11-.2-.27-.32.12-.67.02-.68-.37-.24.17-.3-.48-.75-.32-.09.28.03.53.22.76-.02.47.29,1.01.17,1.54-.44.44-1.07.05-1.36-.21-.03-.07-.1.07-.18,0-.05-.07-.12-.1-.14-.21-.12-.02-.25-.04-.38-.05-.37-.31-.94-.41-1.44-.58-.37-.29-.79-.49-1.31-.58-.26-.11-.58-.37-.91-.41-.09-.01-.08.07-.17.04-.32-.11-.6-.45-.97-.27-.09-.01-.16-.03-.16-.13-.58.04-.89.08-1.24-.1-.1.02-.12.09-.25.09.09.25.34.3.59.35.61.44,1.33.76,1.91,1.25.53.21.9.63,1.35.94.12.33.37.49.57.71.03.04.12,0,.19,0,.18.24.18.5.18.8-.14.09-.21.17-.42.16-.47-.51-1.29-.59-1.78-1.06-.22-.07-.42-.17-.68-.19-.02-.08-.1-.08-.1-.2-.42-.16-1.13.03-1.25-.51-.85-.31-1.86-.42-2.58-.8-.13.05-.17-.03-.31.03-.34-.55-1.09-.42-1.57-.72l-.38.09c-.22-.13-.63-.25-.91-.17-.09.03-.09-.03-.11-.08-.12.38.41.5.69.65.72.37,1.45.66,1.8,1.51-.14.21-.38.48-.65.5-.34.03-.49-.37-.71-.54-.1.03-.11.09-.25.1-.92-.34-1.68-.59-2.71-.77-.06-.03-.08-.11-.09-.19-.17.13-.35.05-.39-.12-.23.2-.58.03-.74-.11-.25.18-.77-.18-.95.22-.32-.06-.39.22-.66.08-.22.22-.69.42-.86.58-.28-.06-.68,0-.87.17-.23-.08-.53.08-.77-.03-.11.16-.74.31-1.08.43-.13.05-.13-.07-.24-.06-.1.06-.08.17-.12.25-.29,0-.29.25-.5.36-.14.02-.13-.13-.33-.03-.13.03-.13.12-.13.21.23-.02.51.04.72.18-.03.21-.23.04-.33.15.04.18.26.14.44.15,0,.13,0,.14.1.22.9.32,2.2-.1,2.77.62l.47-.11c1.22.57,2.92.55,4.22,1.03.15.13.19.4.35.51.04.11-.14.11-.13.21.05.02.04.12.16.07-.13.15-.29.29-.55.37-1-.46-2.44-.41-3.52-.77-.23.12-.31-.01-.53.05-.21-.17-.48-.27-.94-.13-.04-.06-.14-.04-.06-.12-.78.04-1.47.12-2-.2l-.3.07c-.72-.35-1.81-.23-2.71-.36-.09.09-.18,0-.29.1,0-.06-.06-.05-.06-.09-.1.03-.15.09-.3.1-.28-.09-.7,0-.9-.18-.06.01-.1.16-.17.07-.67-.17-1.56-.19-2.4.17-.14.04-.16-.04-.17-.14-.11.08-.13.21-.2.29-.72.02-1.28.31-1.75.65-.15-.15-.5.21-.59,0-.25.13-.53.43-.82.37-.04.07-.06.15-.13.2-.31,0-.82.35-1.07.28-.29.3-.89.46-1.26.65-.09.03-.14,0-.15-.07-.58.34-.95.54-1.66.84-.19.14-.07.21-.15.32.78.35,1.77.48,2.81.4.69.28,1.71.16,2.2.68-.12.15-.07.26.01.46-.24.13-.37.33-.37.57-.39.28-.56-.06-.89-.14-.08-.02-.27.02-.42,0-.18-.03-.55-.17-.76-.18-.13,0-.28.09-.39.09-.3,0-.48-.17-.76-.17-.13,0-.1.08-.21.08-.35-.09-.76-.12-1.06-.28-.58.07-1.04-.02-1.44-.16-.12.11-.33.16-.44.28.18.35.7.31.88.67-.07.1-.14.19-.2.29.07.06.12.17.22.19.14,0,.02-.13.2-.11-.07-.13-.26-.35-.03-.52.37-.01.83.24,1.25.31.14.27.17.29.42.46.16-.07.07-.21.12-.27.34.12.07.52.5.59.13-.12.34-.19.38-.34.3,0,.28.24.36.41.16.04.16-.19.26-.27.51.06,1.06.07,1.25.52.44-.04.75.08,1.08.17,0,.13.1.13.11.26.1-.01-.06-.15.11-.13.08.23.19.58-.04.82.07.04.25-.05.31,0,.11.4.71.81.44,1.34-.2.15-.42-.01-.7.09-.12-.05-.25-.07-.31-.17-1.32.25-2.55.19-3.82.53-.57-.32-1.75.39-2.26,0l-.26.06c-.09-.19-.35-.17-.48-.31-.35.13-.45-.04-.72,0-.41-.34-1.14-.31-1.59-.61-.74.04-1.49,0-2.13-.21-.61.19-.89.08-1.47.3.03.07,0,.09,0,.14.27.24.63.32,1.01.47.39.14.62.51,1.33.29.42.42,1.4-.06,1.85.34.18-.07.27-.01.43-.07.64.48,1.9.21,2.28,1.01.14,0,.31,0,.44,0-.03.27.5.18.7.3.14.31.56.29.72.57.12-.06.13.03.26-.03,0,.08.16.28.23.4.02.09.17.02.23.05.21.34.47.63.92.67.07.13.19.23.37.23.49.6,1.63.39,2.09,1.02-.03.18.21.47.06.65-.42-.04-.64-.31-.97-.48-.28.06-.42-.03-.57-.11-.14,0-.1.02-.26.06-.3-.18-.7-.12-.92-.31-.55.08-.94-.32-1.58-.16-.05-.09-.2-.04-.22-.16-.22.03-.39-.01-.56-.04-.94.22-1.2-.37-1.97-.35-.06-.12-.17-.21-.21-.34-1.05-.47-2.4-.56-3.49-.98-1.12.19-1.6-.4-2.76-.17-.45-.17-1.02-.2-1.7-.09-.49-.2-1.12-.05-1.63-.19-.23-.06-.36-.23-.65-.27-.43.13-1-.14-1.51.11-.09,0-.02-.06-.02-.1-.45.18-1,0-1.35.27.35.36.93.45,1.38.67.35.17.65.44,1.14.43.46.09.68.48,1.37.28.61.23,1.45.19,1.98.52.28.37-.04.79.08,1.17.07.18.29.32.4.5.08.16.09.37.16.53.15.3.78.63.34,1.08-.78-.39-1.16-1.27-2.28-1.26-.07-.07-.19-.07-.23-.19-1.26-.28-2.05-1.13-3.2-1.54-.02-.1-.13-.08-.14-.18-.24-.08-.46-.18-.77-.18-.26-.22-.55-.41-.96-.44-.11-.29-.53-.21-.76-.35-.35.16-.92.26-1.11.09-.32.06-.66.13-.79.29,0-.13-.16-.07-.18-.17-.48.38.38.49.39.92.72.12,1.1.68,1.5,1.2.87.49,1.42,1.36,2.39,1.73.03.07.08.12.13.18.13.1.29.15.49.17.3.58,1.06.59,1.35,1.16.52.22,1.63.99.96,1.6-.35-.15-.76-.2-1.22-.21-.64-.29-1.16-.75-2.04-.75-.4-.34-.97-.46-1.53-.59-.7-.73-1.32-1.55-2.16-2.09-.54-.05-.77-.45-1.33-.46-.57-.53-1.53-.57-2.39-.75-.22.07-.36.04-.49,0-.24.07-.13.3-.37.36-.13-.08-.22-.2-.34-.31-.3-.04-.62-.06-.82-.23-.54-.08-1.07.18-1.51.31-.13.1-.14.25-.28.35-.67.15-1.15.55-1.71.43-.87.49-1.67,1.03-2.19,1.69-.36.12-.79.35-1,.55-.11.1-.14.23-.24.34-.18.18-.48.31-.66.46-.34.29-.61.61-1.03.8-.2.27-.48.5-.79.71.03.15.03.29,0,.42-.7.21-.97.86-1.58,1.2-.1.35-.14.73-.15,1.12-.14.11-.32.19-.47.29-.15.55-.81.81-1.49.62l-.07-.3c-.22,0-.3.17-.42.13-.38-.97-1.59-.92-2.15-1.68-.09.03-.15.09-.29.11.06-.34-.27-.54-.15-.88.2-.16.34-.34.72-.41,1.46-1.48,3.28-2.8,4.46-4.39.39-.19.59-.47.68-.79-.17-.19-.45-.57-.18-.8.22,0,.43.05.58.14,0,.15-.05.26-.1.38.35.03.6-.24.66-.51.13-.05.23-.11.32-.18.16-.17.28-.37.42-.55.39-.27.8-.52,1.02-.87.77-.35.97-.96,1.74-1.31.12-.38.61-.56.84-.9.07-.11.1-.27.18-.39.21-.31.51-.64.32-1.16-.08-.24-.35-.46-.14-.81.46-.14.01-1.27-.23-1.55-.14-.19-.56-.36-.81-.59-.07-.07-.08-.18-.15-.25-.1-.1-.29-.16-.35-.37-.43-.1-.97-.55-.73-1.06,1.01.13,1.92.39,2.4,1.2.18.12.5.09.72.18.37.37.56.96,1.19,1.02-.04.09-.09.1.03.14-.17-1.07,0-1.98.2-2.88.03-.87-.26-1.71-.56-2.6.37-.63,1.43-.2,1.94-.24.15.07.22.26.49.17.11.27.43.35.67.55.22.18.26.4.42.64.06.1.23.17.29.29.06.1.02.26.09.39.19.39.53.7.31,1.12.38.3.04.88.32,1.22.03.05.2.09.26.15.38.36.58-.14.96-.39.64-.08.99-.46,1.39-.81.15-.13.37-.32.43-.49.13-.32-.05-.62-.08-.96-.14-1.3.93-2.25,1.96-3.04.05-.1.12-.18.11-.3.15-.05.18-.16.31-.22.16-.29.36-.57.58-.83.09-.46.13-.86-.01-1.22-.09-.24-.31-.33-.49-.52-.56-.61-1.35-1.39-1.72-2.12-.11-.24-.08-.55-.13-.78-.08-.39-.54-.81-.18-1.18.58.16.88.66,1.32.99.06-.02-.08-.15-.06-.26.3-.03.58.44.32.59.11.17.27.3.55.25.1.11.09.38.23.58.06.08.19.09.27.19.1.11.14.33.26.5.16.23.38.43.45.6.21.49.21,1.02.49,1.74.08.2.37.43.46.6.24.43.32.83.52,1.28.18.44.55.76.76,1.12.13.23.33.84.55.82.17-.01.4-.61.53-.83.17-.26.43-.47.22-.82.2-.19.18-.48.29-.7.39-.37.82-.72.95-1.2.11-.1.25-.18.34-.29.03-.49.64-.71.77-1.16.68-.65.92-1.5,1.53-2.17.14-.03.1-.13.29-.14.13-.48.63-.77,1.05-1.12.12-.24.4-.51.68-.58.44-.33.85-.66,1.26-1,.45-.13.72-.32.86-.58.2-.02.56-.2.85-.27.25.12.23.34.28.63-.06,0-.05-.05-.07-.09-.11.09-.05.26-.09.37-.1.05-.14.12-.17.19.05.76-.5,1.24-.66,1.9-.37.38-.71.77-.78,1.3-.85.69-.74,1.82-1.59,2.51-.04.09-.07.19-.07.29-.83.77-1.06,1.81-1.84,2.6-.03.47-.57.69-.54,1.18.74-.02,1.38.07,2.03.16.5-.24.95-.37,1.34-.66.43-.32,1.18-.72,1.44-1.17.1-.05.22-.08.29-.14.62-.76,1.06-1.62,1.47-2.48.6-.64.99-1.38,1.52-2.06l.17-.04c.08-.39.48-.63.54-1.03.54-.39.41-.97.72-1.43.07-.11.25-.21.33-.32.36-.51.61-1.08.85-1.63.42-.27.15-.87.55-1.14.79.02.87.85.54,1.38.24.81.52,1.9.49,2.7-.12.06-.14-.03-.22-.02.04.17.06.38.15.49-.1.1-.03.27-.15.35.26.84-.33,1.69-.05,2.53.36-.08.43-.31.66-.47-.2-.8.5-1.42.68-2.15.87-.9.67-2.28,1.07-3.4-.01-.53.17-1.1.24-1.67.16-1.25-.05-2.54.58-3.6-.06-.37-.03-.71.19-.96.27-.11.33.03.5.02.27-.04.22-.23.43-.31.67.03.61.63.71,1.14-.13.04-.15-.03-.22.05.33.55.87,1.28.47,1.82.2.15-.02.34.08.55-.22.27-.31.6-.21,1.03-.07.02-.08-.01-.13,0-.06.38-.11.77-.35,1.06.44.36-.31.87,0,1.33-.29.04-.16.35-.07.47.32-.22.51-.5.62-.81.33,0,.22-.18.37-.36.09-.11.29-.18.35-.26.16-.19.31-.48.62-.64.39-.93,1.36-1.59,1.68-2.56.27-.27.89.2.95.41.06.2-.18.63-.38.86-.56.6-1.13,1.54-1.16,2.09-.07.03-.05.11-.19.11l.05.2c-.53.9-1.23,1.73-1.54,2.73-.29.24-.35.57-.43.91.12.04.42-.21.56-.16.13-.11.18-.27.47-.31,1.33-.9,2.35-1.93,3.49-2.91.94-.54,1.44-1.29,2.39-1.81.05-.07.1-.13.13-.21.33-.03.5-.37.73-.56.8-.06.42.79.31,1.16-.08.09-.09,0-.18,0,.17.32-.29.55-.29.88.16.21.03.39.22.58,1.52.03,2.31-1.31,3.1-2.08.12-.39.49-.66.82-.96.02-.12.06-.21.11-.31.12-.05.2-.13.28-.21.79-1.16,1.74-2.24,2.77-3.3.76.05.7-1.03,1.45-1.35.17.1.27.3.38.48-.14.25-.02.63-.25.83.08.61-.6,1.26-.42,1.92-.17.28,0,.71-.13,1.01.91-.05.75-1,1.55-1.1.3-.47.87-.64,1-1.21.12-.06.14.02.22.02-.09-.37.19-.57.31-.84l.47-.11c.99.74-.26,1.58-.56,2.27-.27.08-.24.32-.38.51-.09.12-.28.19-.38.3-.05.06-.02.14-.08.23-.13.17-.38.38-.35.67,1.29-.54,2.3-1.46,3.24-2.25.14-.24.36-.45.68-.61.21-.29.49-.55.82-.79.47-.78,1.32-1.41,1.84-2.17.1-.01.16-.05.21-.08.1-.08.17-.16.16-.28.62-.13.49-.76,1.13-.79.22-.61,1.21-.48,1.06.29-.29.43-.36.96-.88,1.29-.33.57-.84,1.06-1.36,1.54-.17.07-.18-.05-.28-.04l.05.23c-.59.43-.77,1.03-1.18,1.53l.11.47c.32-.21.57-.34,1-.55.3-.14.37-.35.65-.54.27-.18.6-.29.92-.53.44-.35.68-.81,1.51-.7.07.08.02.25.2.28.23-.1-.14-.22-.06-.27.31.07.78-.03.96.2.28-.15.41-.03.77-.18.32.32.37.84-.08,1.03-.15.06-.3,0-.45.04-.24.05-.73.23-1,.37-.08.04-.15.15-.23.19-.09.04-.21.03-.3.07-.52.26-.97.65-1.23.95-.05-.03-.16,0-.27.03-.31.32-.51.69-.64,1.09-.08-.03-.15-.09-.25-.08-.31.33-.87.55-.75,1.09.67.06,1.19,0,2.03-.05.16-.05.13-.18.31-.22.06.04.14.04.17.11.08-.03.07-.11.1-.16.7,0,1.12-.62,1.87-.74.17-.09.6-.48.88-.52.19-.03.21.12.39.15.08,0,.3-.07.4-.06.19.03.21.13.35.17.26-.17.52-.11.87-.16.16.21.26.51.33.83-.24-.03-.23.23-.43.31-.4-.05-.86.16-.94.43.02.02.06.02.07.05.12.1.16-.16.29-.07.13.09-.02.26.16.28.13-.04.04-.2.12-.27.23-.06.28.12.44.14.15-.12.11-.14.15-.32.35-.01.91-.28,1.28-.15.07-.07,0-.19.18-.21.23-.08.22.12.39.12.11-.01-.08-.17.09-.16.14.12.25.26.47.27.06-.11-.16-.17-.02-.3.32.03.49.04.84.08.21.25.19.58.06.83-.6.21-1.27.52-1.89.86-.07-.04-.12-.11-.14-.22-.08.05.03.19-.08.23-.31-.03-.36.11-.53-.13-.05.06-.06.14-.04.23-.14.05-.14-.07-.24-.05-.25.3-.78.06-.75.49-.13.06-.09-.09-.19-.06-.19.07-.14.25-.28.34-.14.04-.12-.11-.25-.08-.09.07-.22.11-.22.22.04.15.22.14.35.16-.12.41.39.4.37.83.09-.08.2-.05.37-.16l.04.17c.25.1.59.26.54.58.31.31.59.66.74,1.05h0Z"/>
        <path class="cls-4" d="M88.84,97.8c.09-.06.08-.16.28-.17,0,.14.16.07.25.09-.03.03-.07.07-.11.1.07.07.27-.02.26.15.13-.03.26-.06.28.04-.32-.06-.84.12-.95-.2h0Z"/>
        <path class="cls-4" d="M93.42,98.6c.13-.04.13.09.21.13,0,.03-.31-.04-.21-.13h0Z"/>
      </g>
      <g>
        <path class="cls-5" d="M84.68,95.86h.05c0,.06.03.17-.05.16-.05-.06.05-.09,0-.16h0Z"/>
        <path class="cls-5" d="M91.97,95.59c-.03.06,0,.16-.04.21-.09-.04-.05-.1-.09-.2.06,0,.06-.03.13-.02h0Z"/>
        <path class="cls-5" d="M72.02,97.72c-.13.24-.61.3-.74.61-.02-.05-.02-.21.06-.3.03-.03.12-.04.18-.08.23-.15.22-.25.5-.24h0Z"/>
        <path class="cls-5" d="M82.2,97.74c.08.02,0,.06,0,.11-.04,0-.04-.05-.04-.09.02,0,.03,0,.04-.02h0Z"/>
        <path class="cls-5" d="M75.18,102.85c.06,0,.05.11.02.13-.05,0,0-.09-.02-.13h0Z"/>
        <path class="cls-5" d="M78.34,102.12c-.1-.02-.14-.17-.07-.24.15,0,.19.19.07.24h0Z"/>
        <path class="cls-5" d="M70.88,104.42c0,.06,0,.12,0,.18-.08,0-.06-.16,0-.18h0Z"/>
        <path class="cls-5" d="M80.15,103.36c0,.11.05.33-.17.33.05-.12.08-.26.17-.33h0Z"/>
        <path class="cls-5" d="M86.77,103.59s.04.03.07.03c-.01.04-.03.07-.09.06,0-.04,0-.07.02-.09h0Z"/>
        <path class="cls-5" d="M100.23,102.42c.05,0,.04.1.02.13-.04-.01-.05-.1-.02-.13h0Z"/>
        <path class="cls-5" d="M79.94,103.71c.05-.03.05.1.02.09-.07.02-.03-.08-.02-.09h0Z"/>
        <path class="cls-5" d="M79.83,104.17c0,.09-.07.13-.11.19-.03-.05.01-.2.11-.19h0Z"/>
        <path class="cls-5" d="M77.43,104.99c.02.07-.04.05-.03.11-.04-.02-.03-.13.03-.11h0Z"/>
        <path class="cls-5" d="M77.6,105.07s.04.07.02.09c-.03-.02-.05-.07-.02-.09h0Z"/>
        <path class="cls-5" d="M98.58,105.07c.07-.01.04.14-.02.11-.04-.04,0-.08.02-.11h0Z"/>
        <path class="cls-5" d="M102.8,107s-.06-.03-.09-.04c0-.06.12-.04.09.04h0Z"/>
        <path class="cls-5" d="M103.34,110.3c.05.03.16,0,.15.11-.07-.02-.08.03-.15.02-.02-.06-.02-.06,0-.13h0Z"/>
        <path class="cls-5" d="M108.54,106.32c.09.03,0,.2-.02.26-.04-.09-.01-.17.02-.26h0Z"/>
        <path class="cls-5" d="M127.17,98.65c.11-.08.35-.06.44-.07-.05.03-.17.1-.24.04-.05.01.02.04,0,.07-.07-.05-.11-.02-.21-.04h0Z"/>
        <path class="cls-5" d="M129.03,102.98c.02.11.06.18.04.29-.02-.08-.15-.24-.04-.29h0Z"/>
        <path class="cls-5" d="M129.04,103.31c.06-.02.04.05.08.05-.02.05-.1,0-.08-.05h0Z"/>
        <path class="cls-5" d="M129.17,104.22c.06-.02.07.06.04.09-.04-.01-.08-.05-.04-.09h0Z"/>
        <path class="cls-5" d="M129.16,104s-.01-.09-.03-.13c.03.02.06.09.03.13h0Z"/>
        <path class="cls-5" d="M129.4,102.35s.05-.02.07-.02c0,.03,0,.06,0,.09-.02,0-.02-.03-.02-.05-.03,0-.03-.02-.06-.02h0Z"/>
        <path class="cls-5" d="M131.55,101.93s.02-.07.07-.08c.02.06-.03.07-.07.08h0Z"/>
        <path class="cls-1" d="M136.99,108c0-.08.11-.04.16-.07-.03.05-.09.12-.16.07h0Z"/>
        <path class="cls-1" d="M137.22,107.93s.03-.07.07-.07c0,.03.04.05.03.09-.05.01-.06-.02-.1-.02h0Z"/>
        <path class="cls-5" d="M141.68,104.59c-.01-.06.03-.07.07-.08,0,.04,0,.07-.02.09-.02,0-.03-.02-.05-.02h0Z"/>
        <path class="cls-5" d="M141.78,104.29c.08.03-.02.11-.01.18-.05-.06-.03-.14.01-.18h0Z"/>
        <path class="cls-5" d="M152.64,101.42c-.02-.07.07-.03.11-.04.02.07-.07.03-.11.04h0Z"/>
        <path class="cls-5" d="M164.44,103.1s.02-.03.02-.05c.05,0,.08.02.12.03-.03.02-.11.05-.14.02h0Z"/>
        <path class="cls-5" d="M66.71,91.46c.06.03,0,.13-.02.15-.04-.01.02-.1.02-.15h0Z"/>
        <path class="cls-5" d="M92.7,106.52s0,.03,0,.05c0,.04.05,0,.03-.03.02.13.17.04.18.18.02,0,.04-.02.04-.06.06,0,.05.08.13.07-.11.02-.16.09-.28.09,0,.13-.06.14,0,.23-.05,0-.07,0-.07-.05-.03.07-.09.01-.12.09-.22-.04-.25,0-.46,0-.02.01-.04.04-.03.09-.21-.04-.32.11-.48-.05-.26.01-.5.07-.78,0-.05,0-.05.05-.11.05-.02-.07-.07-.01-.09-.09-.2,0-.36-.06-.47.07-.03-.03-.11-.02-.11-.09-.12.08-.32-.03-.42-.09.06-.47.39-.68.46-1.15.01-.06-.03-.05-.04-.09-.04-.34.11-.59.14-.88.04-.33-.07-.64.07-.92-.15-.75.07-1.38-.05-2.06.06-.15.08-.34.11-.53-.01-.05.03-.03.05-.05.08-.3-.08-.43-.26-.53-.2-.29-.33-.65-.67-.79,0-.03-.01-.03-.02-.05.02-.3.28-.36.48-.53.17-.15.33-.3.49-.4,0-.05.05-.06.04-.12.14-.04.14-.23.28-.26-.01-.07.04-.07.03-.12.11-.02.14-.12.25-.14.06-.27.36-.29.58-.4.17.07.32.17.46.28,0,.04.03.07-.04.07.09.31.13.68,0,.88,0,.05.05.05.05.11.01.06-.02.07-.04.1.1.42.07,1,.1,1.39,0,.06-.05.05-.05.09.16.33.03.88.09,1.29,0,.07.05.13.05.19,0,.07-.08.19.03.21-.1.3-.06.56-.09.83-.03,0-.02-.05-.02-.07.04.16-.04.36,0,.53,0,.02.05.05.05.07,0,.09-.05.23.09.28-.03.05-.06-.04-.09-.04-.02.03-.02.07-.03.09.11.17.04.39.19.56,0,.06-.05.07-.09.09.13,0,.06.24.14.35,0,.03.07-.03.09.02-.1.1.07.32-.05.41,0,.09.08.1.09.17-.01.08-.08.21.02.25.02-.06.08-.07.07-.16.04.05.02.19-.05.19,0,.1.1.11.05.21.1.02.02-.14.07-.18.05-.01.03.05.09.04-.02.08,0,.11,0,.19-.05-.05-.04-.06-.07.02-.03,0-.01-.06-.05-.05.03.1-.11.11-.11.23.02.04.12,0,.12.05.03-.07-.06-.03-.03-.1.02,0,.05,0,.05-.02h0Z"/>
        <path class="cls-5" d="M94.39,103.49s.02.01.05,0c.05-.05-.02-.12.06-.2-.09-.16-.04-.43,0-.58-.09-.03-.03-.2-.09-.26.02-.21.05-.49.04-.77-.02-.3-.17-.58-.04-.8-.1-.32-.4-.44-.53-.73,0-.04-.05-.04-.09-.04-.04-.13-.1-.24-.03-.38.04-.02.06-.05.13-.04.02-.09.07-.15.07-.25.42-.29.73-.7,1.17-.98,0-.05.03-.07.04-.13.19-.08.22-.33.38-.44.27,0,.37-.17.6-.2.11.13.26.21.4.31,0,.03-.01.03-.04.04.05.03.08.07.17.05.06.17.27.25.27.42.05-.06.05-.05.15-.04.66-.32,1.73-.4,2.48-.21.13.12.33.18.4.37.02.02.05.02.09.02.15.26.36.45.51.71.11.12.25.21.31.38,0,.02-.02.04-.05.04.05.03.06.1.09.15-.01.08-.01.17-.06.22.12.26.05.61.07.86.01.14-.02.26-.04.4-.02.11.02.2.02.33,0,.22-.1.49-.02.75-.05.61-.14,1.15-.04,1.79,0,.04-.04.04-.05.07.12.18-.09.39.03.6-.05.14-.11.34-.11.47,0,.05.05.08.05.13,0,.03-.03.02-.04.07,0,.04.04.06.04.07-.02.26.01.55.04.82.07.02.03-.07.09-.05-.03.09-.09.15-.08.28.08.06.17.1.17.24,0,.07-.08.05-.09.09.01.11.09.17.09.29-.13.09-.28.22-.42.07-.06-.02-.02.06-.07.06-.16.01-.43.05-.69.02-.08,0-.15-.06-.23-.07-.15-.02-.33.02-.47-.02-.1-.02-.21-.06-.31.02-.22-.07-.44.02-.62,0-.02,0,.04-.14-.07-.11.02-.08.04-.17.04-.27-.09-.07-.22-.18-.22-.27.07-.03.04.02.09.04.07-.03.11-.08.2-.09.03-.08,0-.11-.02-.18.07,0,.07.09.11.13.27-.25.4-.63.46-1.09,0-.06-.04-.09-.07-.13.09-.68-.02-1.46.13-2.08-.04-.39.02-.93-.13-1.29.06-.31-.13-.43-.16-.69-.04-.05-.04.04-.11.02-.07-.13-.2-.19-.25-.35-.31-.22-.87-.07-.88.34-.03,0-.03-.02-.06-.02-.02.11-.09.3-.15.44.05.12.06.35-.06.4.03.17.04.26.02.36.01.05.11,0,.13.04.02.1-.07.1-.09.16,0,.26-.02.45.02.68.02.06-.06.02-.06.07-.01.05.05.04.04.09-.12.23-.14.64-.06.89-.09.2-.05.52.13.62-.03.05-.07.09-.07.16.03.09.07,0,.11.04-.09.06-.02.17-.02.29,0,.19-.17.36.05.47-.02.12-.11.3.02.35.01.08-.04.1-.05.16.02.07.06.12.16.11,0,.1.08.12.11.2-.04.27-.19.43-.38.54-.47-.15-.97-.26-1.42-.37-.17-.11-.4-.12-.6-.07v-.09c-.03.1-.2.06-.18.22-.02-.02-.06-.02-.11-.02-.15.21-.42.26-.6.02-.03-.03-.16-.15-.16-.2,0-.15.21-.18.27-.31.17-.89,0-1.59.22-2.48,0-.05-.08-.03-.07-.09.07-.15-.04-.38-.03-.57h0Z"/>
        <path class="cls-5" d="M99.52,106.42s.05.04.09.04c.03-.08-.08-.1-.09-.04h0ZM100.24,102.55s.03-.13-.02-.13c-.03.03-.02.11.02.13h0Z"/>
        <path class="cls-5" d="M80.15,102.94s0,.1.02.15c-.02.02-.06.03-.07.05-.04-.05.05-.13.06-.2h0Z"/>
        <path class="cls-5" d="M129.45,102.37s0,.05.02.05c0-.03,0-.06,0-.09-.03,0-.07,0-.07.02.02,0,.03.02.06.01h0ZM128.68,94.36c-.02-.05-.12-.02-.13.04.06,0,.11,0,.13-.04h0ZM129.13,103.87s-.01.12.03.13c.03-.03,0-.1-.03-.13h0ZM129.21,104.3s.02-.11-.04-.09c-.04.04,0,.08.04.09h0ZM129.11,103.36s-.02-.07-.08-.05c-.02.06.06.1.08.05h0ZM129.07,103.27c.02-.11-.02-.18-.04-.29-.12.06.02.21.04.29h0ZM127.82,98.61s-.1-.04-.11.02c.03.03.1.01.11-.02h0ZM127.38,98.69s-.06-.06,0-.07c.06.06.19,0,.24-.04-.09,0-.33-.01-.44.06.09.03.14,0,.21.04h0ZM123.06,97.02s0,.07,0,.11c.1,0,.01-.08,0-.11h0ZM124.14,93.28s.05-.07.11-.08c.08.07.16.15.32.13,0-.07-.09-.04-.12-.08.21-.04.51-.1.67.07.15,0,.35-.11.42,0,.11-.12.31-.04.46-.03,0-.03-.02-.03-.04-.03.13-.03.35-.1.44-.01,0,.03-.06.01-.07.04.17.05.38.04.44.21.1.04.19.1.2.24-.08.13-.27.07-.38.14-.16.09-.17.31-.19.49-.01.12-.05.23-.13.32-.01.06.06.02.06.07-.03.14.01.32-.09.35.03.05.1.06.08.16,0,.06-.06.06-.07.11-.01.06.03.07.03.13-.01.05-.02.11-.07.13.08.1.04.22.04.36.01.41.13.91.16,1.31.02.02.01.07.06.05-.02.05-.07-.02-.13,0,0,.08.03.12.1.1,0,.08.09.29-.03.35.01.05.08.04.12.06.03.22.01.35.12.47-.07.08-.04.17-.06.26.08.12.24.03.34.12.04-.02.06-.07.14-.06.01-.05-.03-.05-.03-.09.37-.04.86-.07,1.28-.21.04-.06.05-.15.15-.16-.02-.11.08-.32-.02-.4.11-.27.07-.42.06-.74.06-.01.06-.08.09-.11.04-.33-.1-.62.07-.88-.06-.29.06-.65-.17-.87,0-.03.02-.04.01-.07-.21-.4-.35-.86-.55-1.27.04-.18-.19-.37-.06-.55.45-.12.9-.04,1.32-.09.01.04-.02.04-.05.04.35.03.81.12,1.11-.03,0,.03,0,.06,0,.09.23-.14.46.13.72.03.24.08.57.08.8.11.12-.18.36.05.47-.09.29.17.78.04.88.4-.02.08-.13.17-.09.24-.09.02-.11.15-.19.12-.08.17-.55.39-.29.64-.08.25.07.5-.07.61.01.02.04.03.08.03,0,.06-.07.07-.03.13-.03-.05-.06-.03-.11-.01.03.02.07.02.1.05.01.26-.06.34-.06.52.14.21-.05.52.07.71-.1.17-.05.38-.09.58-.04-.01-.02-.05-.06-.02.01.08.06.12.1.16-.08.03-.03.08,0,.15-.04.02-.07.06-.09.1.21.19-.1.46.08.65-.1.05,0,.18.04.25-.05.16-.07.18-.07.34.03.05.05-.06.07,0-.11.22.08.45-.06.69.02.02.02.08.08.07-.02.08-.05.18.03.22-.08.06-.07.22,0,.29-.03.02-.03.07-.05.09,0,.04.06,0,.06.05,0,.04-.01.06-.05.06.04.05.05.2,0,.24.02.12.09.26,0,.35.04.04,0,.16.07.18-.11.17.05.45-.01.66-.01.06.11.07.06.11.02.06-.06.03-.07.06.02.1,0,.15.08.18-.08.12,0,.39.07.51-.02.04-.07.05-.09.1.02.06.13.18.02.22.12.09.05.29.15.4-.08,0-.01.15-.12.17.1.18-.02.39.09.51.01.06-.09,0-.09.08.09-.06.03.1.12.1-.07.1.03.25-.11.34.01.02.04.03.08.03-.07.04-.05.19.03.22-.02.05-.05.06-.11.04,0,.07.04.08.08.1-.07.11-.04.19-.05.35,0,.03.06,0,.08.03-.12.27.1.48,0,.69.02.05.05.09.1.1,0,.05-.07.03-.06.08.09.18.29.24.33.49.15.12.18.37.38.43,0,.1,0,.2-.1.21,0,.04.04.04.03.09-.12.02-.24.08-.35.06-.06.01-.08.06-.1.1-.29.03-.61-.02-.87.02-.08.01-.21-.04-.32-.03-.17,0-.22.02-.35-.01-.3-.07-.64-.04-.96-.01-.39.04-.76-.01-1.12.07-.06,0-.1-.03-.15-.04-.18-.02-.6.04-.71-.1-.09-.12-.03-.24,0-.42.04,0,.03-.07.09-.06,0-.08.04-.12.04-.19.28-.2.27-.64.4-.96,0-.54-.07-1.06-.24-1.65.09-.14-.14-.26-.03-.46-.15-.32-.12-.64-.12-1,0-.06-.05-.05-.06-.09,0-.28,0-.66-.11-1.02.03-.08.06-.23-.04-.25,0-.02.03-.02.06-.02-.03-.24.03-.55-.09-.78.11-.16.03-.46.01-.61-.35-.02-.78-.11-1.13-.11-.24-.08-.72-.13-.9.06-.03.46-.05.91-.04,1.38.02.9-.18,1.72-.07,2.63,0,.05-.06.05-.07.1.02.63.17,1.16.18,1.8.02.05.05.08.11.06,0,.03-.02.04,0,.08,0,.04.08,0,.09.03.06.19.32.24.29.46.09.06.25.15.24.26.02,0,.03,0,.03-.02.05.15.2.17.26.31-.08.16-.21.27-.28.44-.45.09-1.07.02-1.48.21-.07,0-.08-.06-.15-.06-.26.08-.59,0-.89-.01-.17,0-.35.06-.5-.04-.27-.01-.55,0-.85.04-.46.05-.8-.17-1.2-.29-.01-.04-.04-.06-.06-.09.07-.12.05-.24.09-.35.04-.1.12-.16.17-.25.04-.08.04-.18.09-.26.04-.08.12-.13.17-.2.05-.07.06-.16.1-.22,0-.02.06-.03.07-.04.12-.18.1-.41.06-.68,0-.05.02-.09.05-.11-.02-.02-.03-.05-.06-.07.09-.33-.05-.86.01-1.17.01-.06-.03-.05-.04-.09-.02-.05.03-.04.03-.08-.01-.05-.03-.08-.06-.11.08-.31.11-.72-.04-1.08.09-.14,0-.39.02-.55,0-.04-.08,0-.1-.03,0-.06.04-.07.09-.08-.03-.29.05-.57-.07-.78.11-.13.01-.31.02-.51.01-.22.05-.44-.04-.64,0-.15.12-.35-.01-.48.07-.08,0-.15-.02-.24,0-.02.03-.06.03-.09,0-.02-.04-.05-.04-.05,0-.04.05-.08.05-.11,0-.02-.04-.04-.04-.07,0-.26.03-.52,0-.79,0-.09-.05-.18-.06-.27,0-.34-.07-.83-.04-1.2,0-.04-.06-.02-.06-.05.06-.14-.05-.39.02-.57-.09-.07-.06-.19-.02-.29-.07-.21.05-.4-.13-.56.04-.2.08-.43-.06-.58-.01-.04,0-.05.01-.08-.2-.19-.36-.43-.59-.58-.04-.15-.04-.17-.07-.29.07,0,.02-.1.11-.08-.02-.11.02-.17.06-.22.14.01.3-.07.36-.17.1-.02.14.06.22,0,0-.03-.01-.03-.04-.03.08-.02.28-.02.37.01.07-.09.3-.08.35.01.17-.06.33-.12.48-.03.13-.08.31-.04.43.01.02,0,.02,0,.02-.02-.02.07.13.05.17.1h0Z"/>
        <path class="cls-5" d="M131.62,101.86s-.07.03-.07.08c.04,0,.09-.02.07-.08h0Z"/>
        <path class="cls-5" d="M57.2,96.46s0-.07,0-.11c.02.03.11.1,0,.11h0Z"/>
        <path class="cls-5" d="M61.31,97.99c.11-.08.35-.06.44-.07-.05.03-.17.1-.24.04-.05.02.02.04,0,.08-.07-.05-.11-.02-.2-.04h0Z"/>
        <path class="cls-5" d="M61.84,97.98c0-.06.07-.03.11-.03-.02.04-.08.06-.11.03h0Z"/>
        <path class="cls-5" d="M63.16,102.32c.02.11.06.18.04.29-.02-.08-.16-.24-.04-.29h0Z"/>
        <path class="cls-5" d="M63.53,101.69s.04-.02.07-.02c0,.03,0,.06,0,.09-.02,0-.02-.03-.02-.05-.03,0-.03-.02-.06-.02h0Z"/>
        <path class="cls-5" d="M63.38,102.59s0,.06.03.06c0-.03,0-.07,0-.1-.03,0-.07,0-.08.02.03,0,.03.02.06.02h0ZM62.56,93.81c-.02-.06-.13-.02-.13.05.06,0,.12,0,.13-.05h0ZM63.03,104.24s-.01.13.03.14c.03-.04,0-.11-.03-.14h0ZM63.12,104.71s.02-.12-.04-.1c-.04.04,0,.09.04.1h0ZM63.02,103.67s-.02-.08-.08-.05c-.02.06.06.11.08.05h0ZM62.98,103.58c.02-.12-.02-.2-.04-.32-.12.06.02.23.04.32h0ZM61.66,98.47s-.11-.04-.12.03c.03.03.1,0,.12-.03h0ZM61.2,98.56s-.06-.06,0-.08c.07.07.2,0,.25-.04-.1,0-.35-.01-.46.07.1.02.14-.01.22.05h0ZM56.66,96.73s0,.08,0,.12c.11,0,.02-.08,0-.12h0ZM57.79,92.63s.05-.08.11-.09c.09.08.17.16.34.14,0-.08-.09-.05-.12-.09.22-.04.54-.11.7.07.16,0,.36-.12.45,0,.11-.13.33-.04.48-.03,0-.04-.02-.04-.04-.04.13-.03.37-.11.46-.01,0,.04-.06.02-.07.05.17.05.4.04.46.23.11.04.2.11.21.27-.09.14-.28.08-.4.15-.17.1-.18.34-.2.53-.01.13-.06.26-.14.35-.01.06.07.02.06.07-.04.15.01.35-.09.39.03.05.11.06.09.17,0,.07-.06.07-.07.13,0,.07.03.07.03.14-.01.06-.02.12-.07.14.09.11.04.24.04.4.01.44.14.99.17,1.43.02.02.01.07.06.06-.02.06-.08-.02-.14.01,0,.09.03.13.1.11,0,.09.09.32-.03.39.01.05.08.05.12.07.03.24.02.38.13.51-.08.08-.05.18-.06.29.09.13.26.03.36.13.04-.03.07-.08.15-.07.01-.05-.03-.05-.03-.1.39-.05.91-.08,1.34-.23.04-.06.05-.17.16-.17-.03-.12.08-.35-.03-.44.12-.29.07-.46.07-.81.06-.01.06-.08.09-.13.04-.37-.1-.67.07-.97-.06-.31.06-.71-.18-.95,0-.04.02-.04.01-.08-.22-.44-.37-.94-.57-1.39.04-.2-.2-.41-.06-.6.47-.13.95-.04,1.39-.09.01.04-.02.04-.05.05.37.04.85.13,1.16-.04,0,.03,0,.07,0,.1.25-.15.49.14.76.03.25.09.6.08.84.12.12-.2.38.05.5-.1.3.2.82.05.92.44-.02.09-.14.19-.1.27-.1.03-.11.17-.21.14-.08.18-.57.43-.3.7-.09.27.07.55-.08.67.02.03.04.03.08.04-.01.06-.07.07-.03.14-.03-.05-.07-.03-.12-.01.03.03.08.02.1.05.01.28-.06.37-.06.57.15.23-.05.57.07.78-.1.19-.05.41-.09.63-.04-.01-.02-.06-.06-.02.01.08.06.13.11.17-.09.03-.03.09,0,.16-.05.02-.07.07-.09.11.22.21-.11.5.08.72-.11.05,0,.2.04.28-.05.17-.07.2-.07.37.04.06.05-.06.07,0-.12.24.09.49-.07.75.03.03.02.09.08.07-.02.09-.05.2.03.24-.08.07-.08.25,0,.32-.03.02-.03.07-.05.1,0,.04.06.01.06.06,0,.04-.01.06-.05.06.04.06.05.22,0,.26.03.12.1.28,0,.38.05.04,0,.18.07.2-.12.19.05.49-.01.72-.01.06.11.08.07.12.02.06-.06.03-.07.06.03.11,0,.16.09.19-.08.13,0,.43.07.56-.02.04-.08.05-.09.11.02.07.13.19.01.24.13.1.05.32.16.43-.09,0-.02.16-.12.19.1.2-.02.43.09.56.01.07-.09,0-.09.08.09-.07.04.12.12.11-.07.11.03.27-.11.37.02.03.04.03.08.04-.08.05-.06.21.03.24-.02.05-.06.06-.11.05,0,.07.05.09.08.11-.07.12-.04.21-.05.38,0,.04.07,0,.08.04-.12.29.11.53,0,.76.02.06.05.09.1.12,0,.05-.07.03-.07.08.1.2.31.27.34.54.15.14.19.4.4.47,0,.11,0,.22-.1.23,0,.05.04.04.03.1-.13.02-.25.08-.37.06-.06.01-.08.07-.11.11-.31.03-.64-.03-.91.02-.09.02-.22-.04-.33-.04-.18,0-.24.02-.37-.01-.32-.08-.67-.05-1.01-.01-.41.04-.8-.01-1.18.08-.06,0-.11-.03-.16-.05-.19-.03-.64.05-.75-.11-.09-.13-.03-.26,0-.46.04,0,.03-.07.09-.07,0-.09.04-.13.05-.2.29-.22.28-.7.42-1.05,0-.59-.08-1.16-.25-1.81.09-.15-.15-.28-.03-.5-.15-.35-.12-.7-.13-1.1,0-.06-.06-.05-.07-.1,0-.31,0-.72-.11-1.12.03-.08.07-.26-.04-.28,0-.02.03-.02.06-.02-.03-.26.03-.6-.1-.86.12-.17.04-.5.02-.66-.36-.02-.82-.12-1.19-.12-.25-.09-.76-.14-.95.06-.03.5-.05,1-.04,1.51.03.98-.18,1.89-.07,2.88,0,.06-.06.06-.07.1.02.69.18,1.27.19,1.98.02.05.05.08.12.07,0,.04-.02.04-.01.08,0,.04.08,0,.1.04.06.2.33.26.3.5.1.06.26.16.25.28.02,0,.04,0,.04-.02.04.17.21.19.27.34-.08.18-.23.29-.3.48-.47.1-1.12.02-1.56.23-.07,0-.09-.07-.16-.07-.28.09-.61-.01-.93-.01-.18,0-.37.07-.53-.05-.28,0-.57,0-.89.04-.48.06-.84-.19-1.26-.32-.02-.04-.04-.06-.07-.1.07-.13.05-.26.09-.39.04-.1.13-.18.18-.27.05-.08.05-.2.1-.29.05-.08.13-.14.18-.21.05-.08.06-.17.1-.25.01-.02.06-.02.07-.04.13-.2.11-.45.07-.75,0-.05.02-.09.05-.12-.02-.03-.04-.06-.06-.07.09-.36-.05-.94.01-1.29.01-.06-.04-.06-.05-.1-.02-.05.04-.04.04-.08-.01-.05-.03-.09-.07-.12.08-.34.12-.79-.04-1.18.09-.15,0-.43.02-.6-.01-.04-.08,0-.1-.03,0-.06.05-.07.09-.09-.03-.32.05-.63-.07-.86.11-.15.01-.35.02-.56,0-.24.05-.48-.04-.7-.01-.17.12-.39-.01-.52.07-.08,0-.17-.02-.26,0-.02.03-.07.03-.1,0-.03-.04-.06-.04-.06,0-.04.05-.08.05-.12,0-.03-.05-.05-.04-.08,0-.28.03-.57,0-.87-.01-.09-.06-.2-.06-.3,0-.38-.08-.91-.04-1.32,0-.05-.06-.02-.06-.05.06-.15-.06-.43.02-.63-.1-.07-.07-.2-.02-.32-.07-.23.05-.44-.14-.61.04-.22.08-.47-.06-.64-.01-.04,0-.05.01-.08-.21-.21-.38-.47-.62-.64-.05-.17-.05-.18-.08-.31.07,0,.02-.11.11-.09-.03-.12.02-.18.06-.25.15.02.31-.07.38-.18.11-.03.15.07.24,0,0-.03-.02-.04-.04-.04.08-.03.3-.02.39.01.08-.1.31-.09.37.02.18-.07.34-.13.5-.03.14-.09.33-.05.45,0,.02,0,.02,0,.02-.02-.02.07.13.05.18.11h0Z"/>
        <path class="cls-5" d="M65.75,101.2s-.07.03-.07.08c.04-.01.08-.02.07-.08h0Z"/>
        <path class="cls-5" d="M87.87,105.96c-.01.05.03.05.02.09.07-.02.09,0,.15-.04,0-.04,0-.09-.04-.09,0,.09-.07.03-.13.04h0ZM86.59,104.11c-.06.22.04.5.14.66-.02.16,0,.3.03.45.02.05.03-.05.09-.02.08.17.26.28.39.41.1.09.11.2.34.14.04,0,.08-.04.13-.05.1-.03.22,0,.3-.02.13-.02.24-.12.38-.03,0,.26.17.38,0,.57-.05.05-.11.11-.16.18-.2.25-.5.37-.61.63-.17.09-.36.16-.52.25h-.09c-.19.12-.52.06-.66.27-.12-.11-.29.09-.49.03-.02,0-.01.03-.02.05-.04-.01-.02-.12-.15-.09-.05.01.03.05-.02.07-.09-.07-.25.04-.36-.06-.45,0-.72-.24-1.11-.34-.13-.19-.44-.22-.47-.52-.08-.08-.17-.22-.12-.36-.37-.44-.12-1.14-.34-1.7,0-.05.04-.06.05-.09-.11-.11-.07-.43,0-.59,0-.11-.04-.18.04-.23-.08-.17-.03-.4.06-.54.02-.51-.22-.95-.05-1.33-.05-.1-.05-.28.04-.38-.06-.07-.08-.25.05-.25-.02-.07-.09-.11-.02-.18-.01-.05-.01.06-.07.02,0-.1.01-.09,0-.18.06-.02.01.06.07.04.07-.15-.13-.34.06-.47-.07-.11.03-.29-.04-.38-.52.1-.94-.08-1.2-.38.04-.1,0-.22.02-.34.02-.16.11-.26.15-.37.1-.08.19-.17.23-.31.03.02.01.1.04.13.06-.24.26-.34.34-.57.05,0,.09,0,.11-.02.02-.02.02-.06.02-.11.28-.13.46-.29.72-.41,0-.14.12-.16.12-.3.02,0,.03,0,.03.02-.03-.11.19-.11.18-.25h.1c-.01-.21.23-.37.18-.61.07-.03,0,.08.05.07.15-.16.19-.44.38-.57-.02-.11.06-.21.14-.27.12-.28.22-.56.38-.8.03.03.08.02.11.05.2-.23.55,0,.57.31.05,0,.05-.03.11-.02.05.18.32.29.16.52h0s0-.08.05-.06c.02.25.09.61.09.88,0,.03.02,0,.06,0,.08.49.01,1.19.21,1.68.01.02.04.03.07.03-.04.07.06.12-.02.2,0,.04.09,0,.07.07.05-.04-.02-.11,0-.18.04.03.09.05.12.09-.02.05-.04.11-.07.14.05.15.18.12.32.18-.06-.11-.25-.1-.23-.28.15.04.3.09.45.14.14.05.3.13.39.23.16,0,.27-.01.38.09-.05.07.03.35.05.23.06.12-.05.47-.16.41-.04,0,0,.06-.02.09,0,.06.06-.04.06.02,0,.13-.04.22-.15.25-.13-.1-.31-.1-.45,0-.35,0-.69.04-1.11.05-.13.08-.02.39-.11.5.2.72.14,1.6.14,2.29"/>
        <path class="cls-5" d="M92.25,96.17h.05s.02-.09-.04-.07c0,.02-.03.03-.02.07h0ZM92.48,95.82s0-.02.02-.02c0-.02.01-.02.02-.04-.08.03,0-.11-.05-.11-.03.04,0,.12.02.16h0ZM91.39,94.48c-.27.11-.56.2-.64.51.05,0,.08.04.09.09-.03.01-.01.07-.07.05-.04-.02,0-.12-.05-.12-.07.23.04.43.01.61.13.08.17.24.25.37.12.05.15.2.25.28,0-.03.01-.05.03-.05.17.1.41.14.57,0,0-.13.05-.13.04-.25h.07c.04-.09.03-.24.09-.35.03,0,.03.02.05.04.08-.23-.09-.34-.07-.62-.21-.18-.23-.56-.62-.56h0ZM91.49,94.07s.01-.06.06-.05c.09.04.23.03.3.09.01,0,.02.06.03.07.03.02.04-.03.07,0,.21.17.43.6.53.92,0,.03-.01.1,0,.12.03.11.11.33.05.48,0,.02.03.02.05.02,0,.06-.03.08-.02.14-.04,0-.07,0-.09.02.09.04,0,.08,0,.16-.02.01-.04.02-.07.02-.16.22-.29.38-.49.56-.06,0-.07-.02-.09-.05-.02.04-.04.09-.07.12-.06-.04-.13.06-.18-.02-.03,0-.01.06-.05.05-.22.01-.37-.04-.47-.14-.53-.09-.56-.67-.77-1.08-.11-.41.11-.69.25-1,.01.02.07,0,.07.03.03-.02.04-.06.04-.1.23-.09.4-.25.65-.32.04-.05.18-.13.21-.04h0Z"/>
        <path class="cls-5" d="M91.85,95.61c.04.09,0,.16.09.2.03-.06,0-.16.04-.21-.06-.01-.07.03-.12.02h0ZM92.01,95.04c-.02.28.15.39.07.62-.02-.01-.02-.04-.05-.03-.06.11-.05.26-.09.35h-.07c0,.12-.04.11-.04.24-.16.13-.39.1-.57,0-.02,0-.04.02-.04.05-.09-.08-.12-.23-.25-.28-.08-.13-.12-.29-.25-.37.02-.18-.09-.39-.01-.61.06,0,.02.1.05.12.06.02.04-.05.07-.05,0-.05-.04-.08-.09-.09.07-.32.37-.4.64-.51.39,0,.4.39.62.56h0Z"/>
        <path class="cls-5" d="M79.55,105.37s.04-.12-.02-.09c-.02.01-.05.11.02.09h0ZM79.68,104.71s.05-.04.08-.05c-.01-.04.02-.13-.02-.15,0,.07-.1.15-.06.2h0ZM81.69,100.67s.04-.06.09-.05c.1.45-.29.56-.45.81-.43.07-.73-.14-1.1-.19-.06-.07-.12-.14-.15-.24-.18-.18-.27-.48-.44-.72-.08-.12-.17-.22-.22-.33-.09-.18-.11-.38-.31-.46-.08.03-.14.01-.24.02-.25.01-.38.34-.31.55.04.13.19.25.29.39.05.06.07.15.11.2.09.1.19.2.29.33.11.13.22.18.26.37.04,0,.04-.03.09-.02.16.23.43.35.61.56,0,.04-.04.04-.02.09.34.13.53.5.77.79.03.09-.05.12.02.2.06.02.03-.06.06-.07,0,.18-.03.4.2.42.16.19.17.52.2.76,0,.06.06.07.09.09-.02.04-.04.07-.06.11.01.05.09.04.13.06-.01.1.07.2.11.3,0,.06-.03.11-.06.17.14.19.19.66.07.88.01.11.08.25-.06.28.07.13-.22.79-.42.83-.08.37-.54.34-.72.6-.32,0-.44.29-.72.28-.09.06-.27.19-.37.13-.39.23-1.07.13-1.46,0-.17.11-.4,0-.61-.02-.09,0-.07.1-.17.09-.05.01-.07,0-.06-.05-.06.02-.06.1-.11.13-.08-.11.08-.13.06-.24-.46-.42-1.06-.8-.88-1.72.18-.53.35-1.08.55-1.58.19-.09.33-.23.45-.41.64,0,.75.55,1.06.89-.04-.04-.05-.04-.09,0,.06.3.04.69.27.81.2-.03.37.03.52-.05.09-.05.06-.13.13-.26.05-.1.15-.15.19-.26.02-.07,0-.2.02-.31.02-.12.07-.23.07-.29,0-.22-.15-.54-.29-.74-.17-.24-.3-.46-.42-.66-.08-.12-.21-.21-.26-.37-.04-.02-.07-.04-.11-.05-.4-.59-.95-1.02-1.38-1.59-.08-.02-.11-.07-.2-.07-.08-.28-.27-.45-.33-.76-.28-.21-.27-.78-.2-1.14.1-.19.15-.43.26-.61.17-.14.38-.23.52-.41.73-.23,1.36-.62,2.23-.57.09-.05.27-.11.33-.02.04,0,.04-.05.05-.07.26.13.94.12,1.27.37.12-.02.14.04.22.05.01.06.01.04,0,.09.17,0,.32.3.44.46-.03,0-.04-.02-.08-.02,0,.1.04.15.09.18-.02.04-.03.09-.06.13.1.2.2.38.24.61-.08.11-.05.39.06.54.06-.01-.07-.23.04-.28.14.09-.03.28.11.37-.09,0,.05.31-.11.33-.06-.06.02-.15-.06-.2,0,.12-.11.27-.04.38.1,0,.05-.06.08-.13.07.07.03.14.04.26-.05-.01-.06-.07-.09-.09-.07,0-.01.12-.06.15h0Z"/>
        <path class="cls-5" d="M76.94,105.53s.03-.09-.02-.09c-.03.03-.01.07.02.09h0ZM76.72,105.47c0-.06.06-.04.04-.11-.06-.02-.08.09-.04.11h0Z"/>
        <path class="cls-5" d="M114.73,105.5s.03-.12-.02-.09c-.01.01-.05.11.02.09h0ZM114.86,104.83s.05-.04.07-.05c-.01-.04.02-.13-.02-.15,0,.07-.1.15-.06.2h0ZM116.87,100.8c.05,0,.04-.06.09-.05.1.45-.29.56-.44.81-.43.07-.73-.14-1.11-.18-.06-.07-.12-.14-.15-.24-.18-.18-.27-.48-.44-.72-.08-.12-.17-.22-.22-.33-.09-.18-.11-.38-.32-.46-.08.02-.14.01-.24.02-.25,0-.38.33-.32.55.04.13.18.25.29.39.05.06.06.15.11.2.09.11.19.21.29.33.11.12.22.18.26.37.05.01.04-.03.09-.02.16.22.42.35.61.55,0,.04-.03.04-.02.09.34.13.53.51.77.79.03.09-.05.13.02.2.06.02.03-.06.06-.07,0,.18-.04.4.2.42.16.19.17.51.2.76,0,.06.05.07.09.09-.02.04-.04.07-.06.11,0,.05.09.03.13.06-.01.1.06.2.11.3,0,.06-.04.11-.05.16.14.2.18.66.07.88.02.11.08.26-.05.28.07.13-.22.79-.43.83-.08.37-.54.35-.72.61-.32,0-.44.29-.72.27-.09.07-.27.19-.37.13-.39.23-1.07.13-1.45,0-.17.11-.4,0-.61-.02-.08,0-.07.1-.17.09-.05.01-.07,0-.06-.06-.06.02-.06.1-.11.13-.08-.11.08-.13.06-.24-.46-.42-1.06-.81-.88-1.71.18-.53.35-1.08.56-1.58.19-.09.33-.23.44-.41.64,0,.75.56,1.07.88-.04-.03-.05-.03-.09,0,.06.31.04.69.28.81.2-.03.37.03.51-.05.1-.05.06-.13.13-.26.05-.1.15-.15.18-.26.02-.07,0-.2.02-.31.02-.12.07-.23.07-.3,0-.22-.15-.54-.3-.74-.17-.24-.29-.47-.42-.66-.08-.12-.21-.21-.26-.37-.04-.02-.07-.04-.11-.05-.4-.59-.95-1.03-1.38-1.59-.08-.02-.11-.07-.2-.08-.08-.28-.27-.45-.33-.75-.28-.22-.27-.78-.2-1.14.1-.19.15-.43.26-.61.17-.14.38-.23.52-.41.73-.23,1.36-.62,2.23-.56.09-.05.27-.12.33-.02.04,0,.04-.05.06-.07.25.13.94.12,1.27.37.12-.02.15.04.22.06.01.06.01.03,0,.09.17,0,.32.3.44.46-.03,0-.04-.02-.07-.02-.01.1.04.15.09.18-.02.04-.03.09-.06.13.1.2.2.38.24.61-.08.11-.05.39.05.53.07,0-.06-.22.04-.28.14.09-.03.28.11.37-.09,0,.05.31-.11.33-.06-.06.02-.15-.06-.2,0,.12-.11.27-.04.39.1-.01.05-.06.08-.13.07.07.03.14.03.26-.05-.02-.05-.07-.09-.09-.07,0-.01.12-.05.15h0Z"/>
        <path class="cls-3" d="M141.92,103.03c-.01-.2.15-.41.03-.65.05-.05,0-.09.01-.19-.02-.03-.08-.03-.07-.08.02,0,.04,0,.07,0,.02-.19.02-.26-.1-.36.03,0,.03-.02.07-.02,0-.06-.07-.07-.07-.13.09-.4-.1-.66-.12-1-.12-.13-.07-.5-.25-.61-.04-.16-.11-.29-.23-.37-.08-.09-.13-.22-.27-.25-.03-.12-.18-.25-.32-.32-.08-.21-.34-.24-.44-.43-.05,0-.03.03-.07,0-.17-.41-.64-.52-1.06-.68-.44-.02-.77.14-1.08.29,0-.02-.04-.02-.07-.02-.09.06-.21.13-.33.1-.52.3-.9.73-1.27,1.17-.01.02-.02.04-.02.08-.19.08-.2.32-.38.41-.11.35-.36.45-.28.84-.04,0-.06.04-.09.05-.08.25-.19.48-.27.73-.13.52-.43.97-.4,1.58-.06.06-.05.19-.03.31-.19.19.04.51-.04.76.17.33.08.82.35,1.09,0,.05,0,.09,0,.14.18.16.26.46.47.64,0,.03-.02.04-.02.07.31.22.55.51.8.79.03,0,.04-.03.05,0,.13.11.24.22.34.35.16.11.4.13.53.28.14,0,.18.08.3.1.14-.06.26.04.4.06.53.06.99-.02,1.5-.11.07-.15.27-.16.41-.23.09-.13.26-.18.4-.26,0-.12.15-.17.13-.26.13.02.12-.08.21-.11,0-.05-.05-.04-.04-.1.25-.08.46-.33.39-.6.08.01.09-.04.14-.05.07-.22.18-.31.17-.61.06.01,0-.09.09-.07-.08-.36.21-.62.19-1,.11-.13.06-.34.2-.43.01-.06-.02-.07-.04-.1.03-.03.08-.03.08-.08-.03-.08-.05-.17-.07-.25.14-.16.09-.34.08-.49ZM139.22,107.39c0-.07.11-.04.16-.07-.03.04-.09.11-.16.07ZM139.45,107.32s.02-.07.07-.07c0,.03.04.04.04.08-.06.01-.06-.02-.11-.01ZM139.77,101.98c-.04.09-.06.29-.01.37-.11.22.05.53-.04.75.02.25.06.72-.09.95.01.23.02.61-.06.93-.03.14-.15.24-.1.37,0,.06-.07.04-.07.09,0,.02.02.03.05.03-.09.21-.19.35-.27.6-.11-.02-.15.1-.24.12-.26.06-.57-.12-.77-.11-.18-.1-.39-.17-.43-.42-.04.03-.13.02-.18.05-.04-.03.02-.1.07-.1-.04-.25-.08-.51-.2-.74.08-.32-.09-.58.05-.93-.06-.09-.08-.2-.06-.32,0-.02-.02-.03-.05-.03.1-.13.04-.25.01-.38-.02-.06.06-.15-.02-.17.09-.12.1-.26.08-.44.02-.03.05-.04.09-.05-.09-.21.04-.44.02-.69.07-.08.02-.19.12-.22-.04-.13.04-.29.06-.41-.02-.36.2-.58.18-.9.05,0,.02-.08.09-.07.01-.33.16-.6.21-.89.16-.08.37,0,.49-.04.23.11.4.36.62.43.11.16.22.33.32.5.04.19-.02.39.06.56-.07.12.05.23-.03.36.08.14.06.3.11.44-.04.13-.07.24-.03.36ZM141.37,104.11s-.03-.02-.05-.02c-.01-.06.03-.06.07-.07,0,.04,0,.07-.02.09ZM141.41,103.99c-.05-.06-.03-.13.01-.17.08.03-.02.1-.01.17Z"/>
        <path class="cls-5" d="M145.65,98.87s0,.03-.03.05c.03.02.06.03.08.06,0,.03-.01.03-.03.03.11.06.12.34.08.48,0,.04.03.06.03.11-.09.35.07.88.09,1.34.02.47.01.92.04,1.47,0,.21.04.4.03.57,0,.04.03.03.05.05-.07.09-.05.19-.09.31.11,0,.01,0-.02.03,0,.07.09.04.08.12-.03.03-.03,0-.08,0-.03.48-.08,1.05.18,1.54.09.02.17.05.25.07.02,0,0-.05.03-.05.04.08.14.03.3.03.03,0-.02-.02.01-.05.21-.05.36-.13.55-.22.06-.08.12-.17.25-.17.02-.09.09-.13.16-.17.09-.22.03-.39.11-.67-.1-.25-.05-.52-.06-.79-.04-.25-.09-.51-.04-.79-.12-.31-.08-.6-.13-.91-.02-.01-.02-.05-.06-.05-.03-.05.02-.11.01-.14,0,0-.08-.1-.08-.09,0,0,.03-.03.03-.03-.07-.11-.19-.1-.32-.18-.04-.03-.05-.08-.09-.11-.03-.02-.08,0-.11-.03-.05-.04-.11-.16-.11-.29.03,0,.04,0,.06.01.01-.16.11-.25.22-.31,0-.04-.03-.03,0-.06.26-.23.55-.43.78-.69.06,0,.08.04.14.03.06-.05.1-.12.22-.1.03-.03,0-.04,0-.09.08-.01.1-.09.18-.13.06-.03.13-.01.19-.05.27-.14.38-.45.82-.4.01.05.05.07.06.12.04.03.08.05.11.09-.03.34.16.43.37.52-.01.07-.04.11-.07.16.08.24-.05.49.04.71-.05.07,0,.15-.07.22.02.5-.03,1.04-.08,1.55,0,.05.04.05.03.11.01.06-.03.06-.03.11.12.31.01.62.06.94.01.02.01.06.06.05-.05.13-.11.34,0,.43-.05.16-.07.37-.02.51-.06.3-.05.75-.04,1.1,0,.2.09.41,0,.56-.02.12.03.17.06.23,0,.09-.01.12.03.17-.01.04-.02.09-.06.11.09.1.15.15.17.31-.02,0-.04,0-.06,0,.08.09.16.18.18.34,0,.04.06.03.08.05,0,.19.25.24.23.4-.01.14-.22.18-.37.22,0,.03.02.04.06.03-.16,0-.19.24-.37.19-.03-.01-.03-.01-.03-.05-.06,0-.08.07-.09-.01-.01.05-.09.03-.07.11-.16-.02-.26.08-.39.02-.04.02.03.05-.01.08-.09,0-.12.04-.18.06-.12-.06-.26.05-.38-.04-.11.03-.27,0-.34-.06-.17.04-.18-.16-.32-.1-.1-.11-.2-.22-.23-.43.04-.14.04-.38.08-.47.06,0,.06-.06.1-.08-.02-.03-.04-.05-.03-.11.03,0,.03.02.06.01-.07-.06.03-.13,0-.19-.22.01-.42.29-.63.27,0,.03.02.03.01.06-.25.1-.48.24-.78.29-.02.02-.03.04-.06.06-.18.02-.42,0-.58.09-.14-.03-.32.07-.44-.02-.17.06-.34.07-.49,0-.25,0-.56,0-.68-.19-.11-.02-.23-.1-.24-.18-.18-.04-.26-.17-.34-.32.02.02.08.03.06-.03-.04-.05-.05.05-.1,0,0-.19-.14-.32-.06-.52-.06-.04-.04-.1-.08-.14.05-.31-.16-.61-.04-.93,0-.05-.04-.07-.05-.12.03-.07,0-.12.04-.17-.03,0-.03-.05-.05-.06.02-.15.01-.27-.02-.45.11-.29-.05-.56.03-.82-.08-.2-.07-.47,0-.7-.07-.12,0-.34,0-.49,0-.08-.04-.15-.05-.23-.01-.16.04-.33.04-.48-.02-.39-.13-.73-.46-.78-.14-.09-.37-.17-.21-.41h.06c.07-.16.22-.24.37-.33.03-.17.24-.16.34-.25.03,0,.03.03.07.02.29-.3.64-.45.92-.77.23-.06.4-.17.6-.26.22-.03.39.05.52.16h0Z"/>
        <path class="cls-5" d="M151.68,104.91s-.01-.1-.02-.16c.27-.23.4.2.54.34.08.08.22.12.3.2.05.05.1.15.16.23.06.07.14.13.17.19.02.05.01.11.03.16.1.2.31.39.54.34.03-.08.18-.18.32-.15-.01-.08.13-.1.16-.19-.06-.12-.07-.28-.12-.41-.36-.2-.56-.56-.85-.83-.06-.23-.19-.39-.32-.55-.25-.57-.65-.98-.85-1.6-.21-.34-.42-.69-.49-1.1-.04-.28-.09-.56-.14-.84,0-.01,0-.01.02-.01.01-.13.09-.2.11-.32.04-.03.09-.05.13-.08.03-.12.09-.22.19-.27.04-.25.27-.32.37-.53.14-.02.18-.14.31-.16.07-.06.1-.16.23-.16.07-.12.15-.23.32-.24.05,0,.05-.05.08-.06.23.03.33-.17.57-.15.05,0,.1.05.15.06.2.04.38-.06.58-.06.11,0,.28.05.42.07.19.02.41.08.56.19.12-.05.21.04.33.04.05-.01.03.03.02.05.18-.07.42.25.46.43.06.3-.07.7.03.95-.02.22-.07.44-.07.67,0,.17.08.35.07.51,0,.17-.07.45-.24.46-.28.03-.55-.16-.7-.29-.16-.14-.18-.27-.32-.44-.06-.07-.13-.13-.18-.19-.06-.07-.08-.15-.13-.22-.11-.16-.46-.36-.67-.34-.07.01-.25.1-.3.18-.11.16-.02.54-.02.73-.01.28-.04.48.25.58.06.3.35.37.45.63.05.03.09.07.15.09.34.4.67.81,1.1,1.12.04.24.23.31.31.55.04.13.18.23.25.39.04.09.05.18.08.25.05.13.13.24.15.36.01.08,0,.18,0,.3,0,.16-.09.37-.11.56-.02.25-.12.4-.24.61-.07.13-.13.2-.2.32-.07.11-.07.21-.21.27,0,.03,0,.06,0,.09-.21.2-.42.48-.8.46-.1.09-.23.04-.39.07-.13.03-.26.09-.41.1-.12,0-.26-.02-.41-.03-.29,0-.59.07-.81.03-.14-.02-.27-.14-.42-.1-.23-.07-.49-.13-.67-.26-.08-.16-.14-.4-.06-.59-.07-.7.07-1.41.07-2.14.06-.04.11-.1.18-.13h0Z"/>
        <path class="cls-5" d="M112.38,106.85s.03-.09-.02-.09c-.03.03-.01.08.02.09h0ZM112.16,106.8c0-.06.06-.04.04-.11-.06-.02-.08.09-.04.11h0Z"/>
      </g>
      <g>
        <path class="cls-11" d="M67.22,112.83c.56.02.75.06.94.2.29.22.31.42.02.39-.83-.09-1.17-.05-1.61.18-.69.35-1.1.73-1.45,1.34-.29.51-.32.62-.35,1.33-.04.71-.02.81.21,1.24.32.63.72.93,1.35,1.05.47.09.76.08,1.85-.06.3-.03.41-.02.5.1.16.2.04.27-.63.38-.64.11-1.29.07-2.01-.13-.34-.09-.49-.1-.63-.03-.15.08-.22.05-.46-.18-.44-.43-.89-1.73-.9-2.62,0-.63.27-1.62.57-2.1.38-.62.82-.89,1.67-1.06.12-.02.53-.02.93-.02Z"/>
        <path class="cls-11" d="M74.27,114.35c.09.16.2.65.26,1.08.09.69.08.89-.05,1.59-.08.45-.22.99-.31,1.23-.16.43-.46.82-.63.82-.05,0-.2.05-.33.12s-.48.14-.78.18c-.44.05-.63.02-.88-.1-.47-.21-1.15-.65-1.15-.74,0-.04-.08-.19-.17-.33-.22-.33-.46-.6-.55-1.07-.21-1.28-.13-1.99.31-2.87.28-.58.6-.84,1.36-1.11,1-.37,2.4.21,2.9,1.2ZM72.05,113.57c-.07.03-.35.17-.62.3-.84.41-1.13,1.05-1.14,2.49,0,1.23.06,1.42.56,1.97.72.79,1.67.95,2.25.39.71-.69,1.02-2.79.56-3.9-.27-.66-.47-.96-.75-1.11-.32-.16-.72-.23-.87-.15Z"/>
        <path class="cls-11" d="M76.26,113.55l.26.14-.06.52c-.11.88-.11,1.92.01,2.75.2,1.4.39,1.74,1.04,1.83.36.05.45.14.21.23-.21.09-.06.21.24.18.29-.03.28-.05.47-.08.14-.02.63-.65.68-.9.03-.12.13-.49.22-.81.25-.87.41-1.98.42-2.86,0-.73.02-.81.2-.93.1-.07.29-.14.4-.15q.22-.03.21.7c-.01,1.1-.19,3.62-.26,3.81-.16.4-1.05,1.24-1.32,1.24-.04,0-.18.04-.32.09-.7.28-1.77.11-2.23-.36-.39-.39-.62-.75-.62-.93,0-.09-.05-.32-.12-.51-.16-.46-.25-1.48-.26-2.81,0-1.1,0-1.11.22-1.22.28-.14.3-.14.62.03Z"/>
        <path class="cls-11" d="M85.41,112.69c.17.12.17.19.13,2.44-.03,1.99,0,2.66.16,4,.03.27-.4.28-.64.02-.23-.24-.71-1.02-.97-1.59-.1-.22-.25-.46-.33-.52-.09-.06-.14-.15-.14-.19s-.15-.29-.32-.56c-.18-.27-.44-.69-.6-.93-.42-.68-.49-.6-.55.59-.04.57-.06,1.48-.07,2.03-.01,1.11-.09,1.44-.35,1.44-.33,0-.34-.14-.34-2.97.01-1.5,0-2.83-.01-2.94-.03-.12.03-.24.11-.29.22-.14.8.46,1.66,1.74,1.15,1.7,1.39,2.02,1.51,2.02.13,0,.28-2.57.2-3.65-.02-.35-.02-.68.02-.7.09-.09.32-.07.51.06Z"/>
        <path class="cls-11" d="M89.86,113.1c1.72,0,1.92.01,2.09.15.11.09.18.2.15.24-.03.04-.46.07-.98.06-1.45-.03-1.29-.29-1.26,2.23.02,1.19.03,2.54.04,2.99,0,.57-.02.87-.1.96-.15.19-.24.17-.48-.07-.2-.2-.2-.21-.16-1.69.05-1.8.02-3.82-.04-4.06,0-.05-.02-.15,0-.24.03-.19-.4-.21-.54-.02-.06.08-.36.16-.8.21-.6.08-.75.07-.97-.04-.14-.08-.26-.19-.26-.26v-.2s.32-.1.7-.15c.39-.05,1.57-.1,2.61-.11Z"/>
        <path class="cls-11" d="M95.86,112.71c.88.26,1.33.71,1.38,1.38.04.75-.37,1.29-1.6,2.1l-.21.14.49,1c.26.55.6,1.18.74,1.38.14.21.26.43.26.49s.06.19.13.27c.18.23.16.46-.04.52-.18.06-.51-.09-.51-.21,0-.07-.21-.45-1.03-1.81-.29-.48-.25-.75-.57-1.16-.2-.27-.26-.29-.68-.29-.27,0-.48.04-.52.1-.03.06-.09.71-.11,1.44l-.05,1.33h-.6s0-3.16,0-3.16q0-3.15.19-3.33c.13-.12.37-.2.73-.24.92-.1,1.53-.09,2,.05ZM95.22,113.07c-.66-.05-1.05.02-1.27.26-.19.21-.21.29-.22,1.39l-.02,1.17.28.03c.64.06,1.82-.5,1.95-.94.03-.11.11-.25.16-.32.05-.07.09-.29.1-.5,0-.3-.05-.43-.3-.71-.25-.29-.36-.35-.69-.38Z"/>
        <path class="cls-11" d="M98.52,112.68c.16,0,.67.4.67.53,0,.05.13.25.28.45.37.48.44.67.86,1.13.27.3.31.33.44.21.09-.06.25-.29.36-.51.52-.98.72-1.27.99-1.45.33-.22.79-.23.83,0,.03.13-.32.73-1.21,2.11l-.4.62-.05,1.4c-.03.77-.07,1.65-.08,1.96l-.04.56-.4.03q-.63.04-.57-1.64c.04-1.29.03-1.49-.1-1.59-.08-.06-.14-.19-.14-.27,0-.09-.09-.27-.2-.4-.22-.28-.37-.67-.58-.93-.08-.09-.24-.35-.36-.57-.12-.21-.33-.56-.48-.76-.3-.41-.33-.63-.11-.75.08-.05.21-.09.29-.09Z"/>
        <path class="cls-11" d="M114.32,113.24c.19.81.33,5.12.19,5.41-.05.09-.11.41-.14.73-.06.53-.08.57-.29.59-.38.04-.45-.2-.45-1.74,0-.76-.04-1.42-.08-1.48-.04-.07-.53-.1-1.76-.08h-1.71s.04,1.45.04,1.45c.04,1.51,0,1.69-.33,1.69-.35,0-.38-.31-.35-3.56.04-3.41.07-3.6.55-3.12.16.16.17.26.14,1.49-.01.8,0,1.36.06,1.4.05.03.82.05,1.71.03l1.63-.05v-1.44c-.03-.87,0-1.51.05-1.61.17-.32.63-.13.73.29Z"/>
        <path class="cls-11" d="M120.1,114.43c.09.16.2.65.26,1.08.09.69.08.89-.05,1.59-.08.45-.22.99-.31,1.23-.16.43-.46.82-.63.82-.05,0-.2.05-.33.12s-.48.14-.78.18c-.44.05-.63.02-.88-.1-.47-.21-1.15-.65-1.15-.74,0-.04-.08-.19-.17-.33-.22-.33-.46-.6-.55-1.07-.21-1.28-.13-1.99.31-2.87.28-.58.6-.84,1.36-1.11,1-.37,2.4.21,2.9,1.2ZM117.87,113.64c-.07.03-.35.17-.62.3-.84.41-1.13,1.05-1.14,2.49,0,1.23.06,1.42.56,1.97.72.79,1.67.95,2.25.39.71-.69,1.02-2.79.56-3.9-.27-.66-.47-.96-.75-1.11-.32-.16-.72-.23-.87-.15Z"/>
        <path class="cls-11" d="M122.09,113.63l.26.14-.06.52c-.11.88-.11,1.92.01,2.75.2,1.4.39,1.74,1.04,1.83.36.05.45.14.21.23-.21.09-.06.21.24.18.29-.03.28-.05.47-.08.15-.02.63-.65.68-.9.03-.12.13-.49.22-.81.25-.87.41-1.98.42-2.86,0-.73.02-.81.2-.93.1-.07.29-.14.4-.15q.22-.03.21.7c-.01,1.1-.19,3.62-.26,3.81-.15.4-1.05,1.24-1.32,1.24-.04,0-.18.04-.32.09-.7.28-1.77.11-2.23-.36-.39-.39-.62-.75-.62-.93,0-.09-.05-.32-.12-.51-.16-.46-.25-1.48-.26-2.81,0-1.1,0-1.11.22-1.22.27-.14.3-.14.62.03Z"/>
        <path class="cls-11" d="M129.86,112.78c.33.07,1.29.55,1.28.65,0,.06-.26.08-.81.03-.73-.05-.84-.04-1.27.14-.54.24-.75.57-.76,1.19,0,.46.22.7.94,1.01.61.28,1.37.77,1.37.9,0,.05.09.19.21.3.23.22.43.98.36,1.42-.14.82-.72,1.47-1.38,1.53-.21.03-.57.07-.78.09-.29.05-.44.03-.6-.08-.12-.08-.26-.12-.3-.09-.11.07-.65-.28-.81-.52-.08-.12-.12-.27-.09-.34.08-.21.36-.13.79.22.39.32.45.34.94.34.4,0,.59-.04.81-.2.76-.51.77-1.54,0-2.49-.14-.18-.26-.38-.26-.44,0-.19-.22-.31-.69-.36-.4-.04-.51-.1-.87-.46-.4-.4-.41-.42-.41-.91,0-.4.05-.6.26-.95.31-.55.54-.7,1.28-.89.31-.09.66-.13.78-.11Z"/>
        <path class="cls-11" d="M135.18,112.86c.12.05.21.15.21.22,0,.1-.19.14-1.03.15-1.38.03-1.4.05-1.38,1.24v.87s.56.07.56.07c.31.03.61.12.68.19.11.1.09.14-.11.21-.13.04-.39.08-.57.08s-.4.07-.51.15c-.16.15-.17.26-.19,1.4l-.02,1.24.29.06c.16.03.77.1,1.36.16,1.09.1,1.46.21,1.31.35-.05.05-.33.04-.72,0-.35-.05-1.1-.09-1.66-.07-.96.01-1.03,0-1.14-.17-.14-.21-.24-2.38-.23-4.78v-1.37s.51-.06.51-.06c.27-.03.52-.09.55-.11.09-.08,1.85.06,2.07.17Z"/>
        <path class="cls-11" d="M147.22,113.3c.19.81.33,5.12.19,5.41-.05.09-.11.41-.14.73-.06.53-.08.57-.29.59-.38.04-.45-.2-.45-1.74,0-.76-.04-1.42-.08-1.48-.04-.07-.53-.1-1.76-.08h-1.71s.04,1.45.04,1.45c.04,1.51,0,1.69-.33,1.69-.35,0-.38-.31-.35-3.56.04-3.41.07-3.6.55-3.12.16.16.17.26.14,1.49-.01.8,0,1.36.06,1.4.05.03.82.05,1.71.03l1.63-.05-.02-1.44c-.02-.87.01-1.51.06-1.61.17-.32.63-.13.73.29Z"/>
        <path class="cls-11" d="M153,114.48c.09.16.2.65.26,1.08.09.69.08.89-.05,1.59-.08.45-.22.99-.31,1.23-.16.43-.46.82-.63.82-.05,0-.2.05-.33.12s-.48.14-.78.18c-.44.05-.63.02-.88-.1-.47-.21-1.15-.65-1.15-.74,0-.04-.08-.19-.17-.33-.22-.33-.46-.6-.55-1.07-.21-1.28-.13-1.99.31-2.87.28-.58.6-.84,1.36-1.11,1-.37,2.4.21,2.9,1.2ZM150.77,113.7c-.07.03-.35.17-.62.3-.84.41-1.13,1.05-1.14,2.49,0,1.23.06,1.42.56,1.97.72.79,1.67.95,2.25.39.71-.69,1.02-2.79.56-3.9-.27-.66-.47-.96-.75-1.11-.32-.16-.72-.23-.87-.15Z"/>
        <path class="cls-11" d="M157.46,113.22c1.72,0,1.92.01,2.09.15.11.09.18.2.15.24-.03.04-.46.07-.98.06-1.45-.03-1.29-.29-1.26,2.23.02,1.19.03,2.54.04,2.99,0,.57-.02.87-.1.96-.15.19-.24.17-.48-.07-.2-.2-.2-.21-.16-1.69.05-1.8.02-3.82-.04-4.06,0-.05-.02-.15,0-.24.03-.19-.4-.21-.54-.02-.06.08-.36.16-.8.21-.6.08-.75.07-.97-.04-.14-.08-.26-.19-.26-.26v-.2s.32-.1.7-.15c.39-.05,1.57-.1,2.61-.11Z"/>
        <path class="cls-11" d="M163.68,112.91c.12.05.21.15.21.22,0,.1-.19.14-1.03.15-1.38.03-1.4.05-1.38,1.24v.87s.56.07.56.07c.31.03.61.12.68.19.11.1.09.14-.11.21-.13.04-.39.08-.57.08s-.4.07-.51.15c-.16.15-.17.26-.19,1.4l-.02,1.24.29.06c.16.03.77.1,1.36.16,1.09.1,1.46.21,1.31.35-.05.05-.33.04-.72,0-.35-.05-1.1-.09-1.65-.07-.96.01-1.03,0-1.14-.17-.14-.21-.24-2.38-.23-4.78v-1.37s.51-.06.51-.06c.27-.03.52-.09.55-.11.09-.08,1.85.06,2.07.17Z"/>
        <path class="cls-11" d="M165.8,112.79c.24.13.28.53.3,3.15.02,1.33.05,2.46.08,2.51.03.05.46.09,1.1.09,1.09,0,1.3.05,1.22.28-.03.09,0,.15.14.18.15.04.17.08.09.18s-.33.13-1.2.12c-.84,0-1.16.03-1.36.13-.3.15-.57.09-.8-.17-.22-.26-.26-1-.13-2.39.08-.82.11-1.77.08-2.6-.02-.72-.02-1.36.01-1.43.05-.15.25-.16.47-.04ZM166.54,118.79c-.15,0-.22.04-.22.14,0,.16.35.14.41-.03.02-.06-.05-.1-.19-.1Z"/>
      </g>
      <g>
        <path class="cls-8" d="M153.98,92.16c-.72.49-1.37.57-2.11.13.14-.2.26-.37.38-.54.23-.31.48-.6.69-.91.43-.63.41-.72-.22-1.18.01-.04,0-.12.03-.13.65-.2.74-.66.71-1.15-.06-.93-.09-1.86-.23-2.78-.05-.36-.28-.74-.55-1.04-1.11-1.19-1.05-2.49-.51-3.81.49-1.19.95-2.41,1.79-3.48.19-.24.32-.56.75-.54.47.02.82.23.99.6.17.36.33.72.44,1.09.33,1.1.64,2.2.94,3.3.22.78.08,1.54-.33,2.25-.92,1.6-1.28,3.26-.92,5.02.1.46.3.91.53,1.34.22.41.55.78.8,1.18.2.31.36.64.55.98-.8.31-1.44,0-2.13-.18-.07.2-.13.36-.18.53-.06.2-.08.42-.2.58-.11.15-.31.33-.5.36-.28.04-.39-.18-.44-.4-.09-.38-.17-.75-.29-1.23ZM157.02,92.26c-.29-.42-.58-.78-.8-1.18-.36-.65-.87-1.3-.98-1.99-.26-1.73-.08-3.44.89-5.03.51-.84.68-1.71.25-2.62-.1-.21-.11-.44-.18-.66-.26-.9-.51-1.8-.8-2.7-.1-.31-.23-.66-.75-.8-.17.3-.35.57-.48.86-.18.37-.3.76-.47,1.13-.35.73-.77,1.45-1.06,2.2-.33.85-.27,1.7.44,2.45.48.51.75,1.11.82,1.75.1.95.11,1.9.11,2.85,0,.37.1.78-.32,1.08-.07.05-.07.22-.04.32.16.52-.1.93-.42,1.33-.25.31-.47.63-.7.94.4.24.65.09.87-.08.21-.17.38-.38.59-.55.11-.09.28-.14.45-.23.29.66-.07,1.32.37,1.89.12-.33.16-.66.2-.98.05-.33-.13-.73.44-.94.4.44.53,1.17,1.59.97Z"/>
        <path class="cls-8" d="M151.58,89.05c.06-.35.17-.63.13-.9-.09-.73-.48-1.39-.91-2.01-.05-.08-.13-.17-.22-.19-.19-.05-.42-.11-.59-.06-.11.04-.19.26-.2.4-.02.19.04.39.06.62-.58.11-.85-.18-1.09-.47-.65-.75-.25-1.77.81-2.01.92-.21,1.76-.08,2.43.53.99.92,1.42,2.01,1.27,3.25-.03.22-.11.45-.24.64-.41.63-.85,1.24-1.3,1.86-.58.8-.9,1.64-.71,2.59.13.64.47,1.14,1.24,1.39.26.08.49.23.71.34-.08.38-.38.43-.63.42-1.13-.06-2.25-.22-3.09-.96-.16-.14-.33-.32-.37-.51-.28-1.14-.14-2.21.84-3.11.5-.47,1.03-.92,1.6-1.44-.51-.17-1.03-.37-1.58-.51-1.55-.39-2.93-1.02-3.95-2.11-.79-.84-1.19-1.78-.67-2.85.58-1.18,1.47-2.06,3.11-2.14.78-.04,1.82.52,2.15,1.11.16.3,0,.49-.38.47-.37-.02-.74-.07-1.11-.04-1.31.11-2.05,1.03-1.6,2.08.26.6.71,1.17,1.18,1.68.46.5,1.05.9,1.58,1.36.4.35.92.42,1.54.57ZM149.45,88.51c-.19-.21-.26-.33-.37-.42-.79-.62-1.42-1.34-1.96-2.13-.84-1.23-.2-2.58,1.43-2.93.35-.07.71-.12,1.09-.19-.66-.81-1.73-.98-2.74-.37-1.44.87-2.45,2.68-.78,4.3.75.73,1.68,1.25,2.75,1.61.14.05.29.06.59.12ZM152.23,95.04c-.12-.07-.24-.16-.37-.21-.68-.27-1.03-.74-1.22-1.35-.33-1.04.09-1.96.61-2.86.08-.15.18-.29.28-.44-1.45.73-2.38,1.7-2.37,3.19,0,.68.36,1.13,1.02,1.41.62.27,1.29.42,2.06.26ZM149.24,86.21c.4-.71.72-.88,1.33-.68.21.07.46.2.57.36.52.79,1.08,1.57,1.01,2.53-.02.2-.12.43.12.66.11-.13.19-.22.25-.31.54-.72.01-2.97-.86-3.55-.53-.35-1.1-.45-1.73-.33-.43.08-.65.38-.85.67-.15.22-.13.43.17.65Z"/>
        <path class="cls-7" d="M146.92,94.59c-1.24.24-2.49.14-3.72.09-.52-.02-1.16,0-1.79-.42.32-.08.48-.16.64-.16,1.29.03,2.57.07,3.86.1.38,0,.72.09,1,.4Z"/>
        <path class="cls-7" d="M167.38,94.63c-1.24.24-2.49.14-3.72.09-.52-.02-1.16,0-1.78-.42.32-.08.48-.16.64-.16,1.29.03,2.57.07,3.86.1.38,0,.72.09,1,.4Z"/>
        <path class="cls-8" d="M157.02,92.26c-1.06.2-1.19-.53-1.59-.97-.57.21-.39.61-.44.94-.04.33-.09.66-.2.98-.45-.57-.08-1.23-.37-1.89-.18.09-.34.14-.45.23-.21.17-.38.39-.59.55-.22.17-.47.32-.87.08.23-.31.46-.64.7-.94.32-.4.59-.81.42-1.33-.03-.1-.03-.27.04-.32.43-.3.32-.71.32-1.08,0-.95-.02-1.9-.11-2.85-.06-.63-.34-1.24-.82-1.75-.7-.75-.76-1.6-.44-2.45.29-.75.71-1.46,1.06-2.2.18-.37.3-.76.47-1.13.14-.29.31-.56.48-.86.53.14.65.48.75.8.29.89.54,1.8.8,2.7.06.22.08.45.18.66.43.91.26,1.79-.25,2.62-.98,1.59-1.16,3.3-.89,5.03.11.69.61,1.34.98,1.99.22.4.51.76.8,1.18Z"/>
        <path class="cls-8" d="M149.45,88.51c-.3-.06-.45-.07-.59-.12-1.06-.36-1.99-.88-2.75-1.61-1.67-1.62-.66-3.44.78-4.3,1.01-.61,2.08-.43,2.74.37-.37.06-.73.11-1.09.19-1.63.35-2.27,1.7-1.43,2.93.54.79,1.17,1.51,1.96,2.13.11.09.18.2.37.42Z"/>
        <path class="cls-8" d="M152.23,95.04c-.77.16-1.44,0-2.06-.26-.66-.28-1.01-.73-1.02-1.41-.01-1.49.91-2.46,2.37-3.19-.09.15-.19.29-.28.44-.51.91-.94,1.82-.61,2.86.19.6.54,1.07,1.22,1.35.13.05.25.14.37.21Z"/>
        <path class="cls-8" d="M149.24,86.21c-.3-.22-.32-.42-.17-.65.21-.3.42-.59.85-.67.63-.12,1.2-.02,1.73.33.87.58,1.4,2.83.86,3.55-.07.09-.15.18-.25.31-.24-.23-.14-.46-.12-.66.07-.96-.48-1.74-1.01-2.53-.11-.16-.35-.29-.57-.36-.61-.2-.93-.03-1.33.68Z"/>
        <path class="cls-8" d="M159.09,88.5c.52-.45,1.12-.86,1.58-1.35.47-.51.92-1.07,1.18-1.67.46-1.05-.28-1.97-1.59-2.09-.36-.03-.74.02-1.11.03-.39.02-.54-.17-.38-.47.32-.59,1.37-1.15,2.15-1.11,1.64.09,2.53.97,3.1,2.15.52,1.07.12,2.01-.68,2.84-1.03,1.08-2.4,1.7-3.96,2.09-.55.14-1.07.34-1.58.5.57.52,1.09.97,1.6,1.44.97.9,1.11,1.98.83,3.11-.05.19-.22.37-.38.51-.84.74-1.96.89-3.09.95-.25.01-.55-.03-.63-.42.22-.11.45-.26.71-.34.77-.25,1.12-.75,1.24-1.39.19-.94-.13-1.79-.71-2.59-.44-.61-.88-1.23-1.29-1.86-.13-.19-.21-.42-.23-.64-.15-1.24.28-2.33,1.28-3.24.67-.61,1.52-.74,2.43-.53,1.05.24,1.45,1.27.8,2.01-.25.28-.52.58-1.1.46.03-.23.08-.43.06-.62-.01-.14-.09-.36-.2-.4-.17-.05-.4,0-.59.06-.09.02-.17.11-.22.19-.44.63-.82,1.28-.92,2.01-.04.27.08.56.13.9.62-.15,1.14-.22,1.54-.56ZM160.26,88.41c1.06-.35,1.99-.87,2.75-1.6,1.67-1.62.67-3.44-.76-4.31-1.01-.61-2.07-.44-2.74.36.37.06.73.11,1.09.19,1.63.35,2.27,1.7,1.42,2.93-.54.79-1.18,1.5-1.97,2.12-.11.09-.18.2-.38.41.3-.06.46-.07.59-.12ZM158.94,94.8c.66-.28,1.01-.73,1.02-1.41.02-1.49-.91-2.47-2.35-3.2.09.15.19.29.28.44.51.91.93,1.82.6,2.86-.19.6-.55,1.07-1.23,1.34-.13.05-.25.14-.38.21.77.16,1.44.01,2.06-.26ZM160.06,85.58c-.2-.3-.42-.6-.85-.68-.63-.12-1.2-.02-1.73.32-.87.57-1.41,2.82-.87,3.54.07.09.15.18.25.32.24-.23.14-.46.12-.66-.07-.96.49-1.74,1.02-2.53.11-.16.35-.28.57-.35.61-.2.93-.03,1.32.68.3-.22.32-.42.17-.65Z"/>
        <path class="cls-8" d="M159.67,88.53c.3-.06.46-.07.59-.12,1.06-.35,1.99-.87,2.75-1.6,1.67-1.62.67-3.44-.76-4.31-1.01-.61-2.07-.44-2.74.36.37.06.73.11,1.09.19,1.63.35,2.27,1.7,1.42,2.93-.54.79-1.18,1.5-1.97,2.12-.11.09-.18.2-.38.41Z"/>
        <path class="cls-8" d="M156.88,95.05c.77.16,1.44.01,2.06-.26.66-.28,1.01-.73,1.02-1.41.02-1.49-.91-2.47-2.35-3.2.09.15.19.29.28.44.51.91.93,1.82.6,2.86-.19.6-.55,1.07-1.23,1.34-.13.05-.25.14-.38.21Z"/>
        <path class="cls-8" d="M159.9,86.23c.3-.22.32-.42.17-.65-.2-.3-.42-.6-.85-.68-.63-.12-1.2-.02-1.73.32-.87.57-1.41,2.82-.87,3.54.07.09.15.18.25.32.24-.23.14-.46.12-.66-.07-.96.49-1.74,1.02-2.53.11-.16.35-.28.57-.35.61-.2.93-.03,1.32.68Z"/>
      </g>
    </g>
    <path class="cls-5" d="M162.19,103.84c.09,0,.17.04.27.04.14,0,.32-.06.5-.06.08,0,.15.03.23.03.46-.02.95-.1,1.35-.09.26.01.5.1.73.07.07-.01.22-.08.23-.14,0-.08-.08-.07-.15-.14-.08-.08-.13-.21-.18-.23.13-.31-.05-.54-.13-.75-.09-.26-.13-.54-.2-.82-.23-.13-.26-.39-.37-.62-.09-.18-.27-.33-.24-.5-.09-.08-.2-.14-.27-.24-.03-.05,0-.06,0-.13-.1-.12-.23-.21-.37-.29.02-.05.02-.05,0-.1-.22-.12-.37-.31-.52-.5-.14-.04-.19-.15-.29-.22-.09,0-.13-.05-.21-.06,0-.15-.22-.1-.21-.26-.29.05-.39-.19-.69-.19-.09.02-.03.07-.17.05,0-.05.07-.02.08-.05-.16-.06-.44-.09-.59,0-.21,0-.4.03-.59.06-.41.3-.9.55-1.19.93-.13.17-.36.27-.49.42-.08.1-.12.23-.17.35-.2.11-.31.31-.34.56-.23.21-.26.6-.52.79-.09.14-.06.29-.11.45-.04.13-.14.25-.17.38-.04.23-.02.4-.03.61,0,.1.04.11.04.18,0,.04-.04.07-.04.12,0,.24.1.59.03.79.09.12,0,.21.1.31,0,.03-.04.04-.03.08.21.56.13,1.22.46,1.7.13.35.42.57.6.87.54.41,1.17.74,1.79,1.07.2-.01.34.12.54.14.39.04.79-.06,1.12-.18.18-.15.44-.26.62-.42.05-.04.07-.12.13-.16.06-.05.14-.05.19-.1.07-.08.07-.22.13-.31.05-.08.17-.11.15-.22.2-.1.25-.31.43-.42,0-.05.03-.08.02-.15.14-.08.27-.26.28-.4.13-.08.21-.21.3-.32,0-.08.03-.09.09-.15-.03-.2.18-.3.2-.46.02-.13-.05-.27,0-.44-.23-.34-.69-.02-.8.21-.38.16-.56.49-.98.62,0,.07-.07.08-.09.13-.36.04-.59.26-.95.26-.32,0-.58-.24-.9-.26-.15-.15-.38-.31-.52-.53-.02-.03,0-.06-.02-.1-.04-.08-.14-.12-.19-.19-.06-.07-.08-.18-.14-.24-.04-.06-.12-.08-.16-.13-.1-.14-.16-.34-.14-.46.47-.06.97-.06,1.47-.1.35-.03.72-.12,1.09-.1ZM159.92,102.12c-.04-.81.87-1.54,1.67-1.48.8.06,1.21,1.59,1.21,1.59,0,0-2.83.7-2.88-.11Z"/>
    <path class="cls-5" d="M75.59,106.79s-.05-.02-.06-.04c.04-.24-.12-.28-.14-.46-.06-.04-.18-.01-.22-.08.04-.14.1-.27.08-.46-.12-.21-.3-.36-.44-.56-.13-.18-.15-.44-.32-.61.08-.21-.05-.39-.02-.62-.05,0-.08-.01-.1-.04.06-.04.02-.15.02-.16.02,0,.03.02.04.02.14-.29-.1-.64.06-.91-.04-.05,0-.18-.04-.22,0,.02-.03.03-.04,0,.02-.05.1-.03.1-.1-.05-.19-.02-.2-.1-.37.03-.04.11-.03.1-.1-.01-.11-.11-.02-.14-.12.02-.04-.03-.2.06-.22-.07-.17.05-.29.06-.4,0,0-.04-.04-.04-.06-.02-.17.09-.43.06-.59,0-.03-.05-.07-.06-.1-.03-.1-.02-.21-.02-.32-.02,0-.06,0-.06-.02,0-.36-.07-.63-.12-1.07-.03.09-.05-.02-.12,0-.05-.2-.08-.34-.04-.54-.08-.02-.14-.06-.18-.11.04-.08,0-.14-.02-.2-.14,0-.32-.09-.34-.28-.07.01-.08-.04-.16-.02-.02-.1-.08-.2-.16-.12-.01-.07.04-.08,0-.12-.09.06-.11-.02-.18-.04-.03.05.08.06.02.08-.09.02,0-.13-.08-.12-.13-.03-.4-.08-.5-.2-.12.05-.13-.07-.28-.04-.03-.11-.15-.08-.24-.1-.1-.02-.44-.15-.6-.12-.06,0-.12-.02-.2-.02-.14,0-.34.12-.42.16-.17.08-.39.11-.5.18-.12.08-.34.3-.42.38-.33.14-.48.42-.8.61-.12.31-.43.44-.52.79-.05.06-.14.06-.2.14-.05.07-.03.16-.06.24-.03.1-.17.23-.08.3-.04,0-.06.02-.06.06.01.27.02.48-.04.75.01.03.08,0,.08.04-.03.25.18.25.18.48.25.17.54.37.89.38.41-.06.66-.16.95-.32.03-.08.1-.23.18-.14-.01-.22.18-.23.18-.44.05,0,.06.04.08-.02-.09-.11.18-.12.1-.26.07-.04.11-.1.2-.12.01-.28.19-.3.22-.53.13.03.05-.13.16-.12,0-.08.04-.1.04-.18.21-.14.51-.33.73-.46.41-.23.46.04.56.42.03.11.1.21.12.3.06.32.03.65,0,.93-.05,0-.05.06-.08.08.03,0,.02.05.02.08-.16.09-.26.24-.36.4-.03,0-.03-.02-.06,0-.15.25-.4.41-.6.61v-.04c-.09.03-.13.12-.26.12-.08.09-.17.17-.3.22-.09.15-.18.3-.36.35-.03.05-.06.11-.06.14-.12-.02-.12.12-.2.04-.03.07-.07.12-.2.1-.03.21-.26.22-.36.36-.29.1-.4.37-.63.52-.02.03,0,.1-.04.12-.18-.05-.15.18-.26.14-.01.25-.24.27-.28.5,0-.03-.01-.05-.04-.06-.04.1.07.05.06.12-.02.02-.05.03-.1.02-.03.1-.07.19-.14.26-.03.15-.02.34-.14.4-.03.07.08.15-.04.14.07.12.09.42,0,.5.03.03.04.09.04.16.15.04.16.28.22.34.05-.07.05.07.08.08.07-.04.13.1.18.16.07.03.01-.07.06-.06-.02.08-.02.1.02.16.06.05.14-.04.24-.02.03,0,.11.11.22.14.16.04.44.09.28.22.14.05.22.07.38.02-.01.07.04.08.04.14.1.04.15.02.24.06.05-.03-.04-.06.04-.06.07-.02.03.07.06.08.27-.01.34.19.68.1.04.03-.04.08.04.1.03-.07.03.05.08.02.07,0-.05-.07.02-.08.03.03.06.06.1.08.02-.14.14.05.16-.08.05,0,.06.06.12.06.05-.15.24-.08.4-.08.08-.08.17-.06.3-.08,0-.04.01-.07.04-.08.14.03.16-.05.26-.06.07.03.09.09.14.14.2-.05.25.14.4.08-.01.13.12.08.22.1.08.02.16.09.2.1.22.04.43-.08.63.02,0-.02,0-.06.02-.06.37,0,.64-.1,1.05-.16.02-.22.24-.42.16-.61.05,0,.1-.01.12-.04ZM71.28,99.4c-.02-.05-.02-.21.06-.3.03-.03.12-.04.18-.08.24-.15.22-.25.5-.24-.13.24-.61.3-.74.61ZM72.32,105.89c-.28-.26-.88.35-1.34.28-.47-.07-.72-1.14-.72-1.14s.79-.86.92-1.12c.13-.27,1.07-.13,1.07-.13l.08-.21s.28,2.58,0,2.32ZM74.35,103.13c.05,0,.05.09.02.12-.04,0,0-.08-.02-.12Z"/>
    <path class="cls-5" d="M109.73,98.78c-.05-.11-.19-.13-.35-.13-.41-.12-.76-.39-1.22-.2,0,.04,0,.09-.03.1h-.1c-.11.22-.23.44-.45.4-.12-.02-.19-.17-.25-.22-.21-.2-.64-.52-.9-.63-.13-.06-.32-.07-.42-.05-.21-.18-.36-.14-.63-.05-.48.53-.9,1.11-1.53,1.5,0,.1-.06.12-.08.2h-.1c-.1.33-.38.48-.5.8,0-.03,0-.07-.03-.08-.21.55-.48,1.06-.78,1.52.06,0,.01.1.03.15-.25.19-.18.55-.4.75-.18.46-.35,1.11-.23,1.65.13.45.14.98.5,1.25-.02.09.04.1.03.17.36.27.52.85,1.07.85.18.31.59.24.75.5.03-.02,0-.09.08-.07.06.05.24.17.32.05.33.21.95.14,1.27.03.12.12.08.41.2.52-.03.07-.03.15-.03.25.05.03.09.08.12.12-.19.44.27,1.09.02,1.47.09.15.15.29.05.47.02.05.06.07.07.13-.06.21.03.49-.15.57-.15.08-.21-.11-.42-.1-.21-.25-.49-.43-.58-.8-.04-.01-.06.04-.07,0,.05-.14-.13-.45-.2-.4-.06-.06.05-.05.02-.15-.05-.04-.07-.11-.12-.15-.03-.33-.21-.72-.37-1-.13,0-.22-.03-.32.02-.51.28-1,.74-1.43,1.04-.04.47-.79.23-.98.55.21.17.11.46.05.72.05.04.07.11.13.15-.11-.05-.09.16-.05.17-.01-.06.01-.09.08-.08-.18.35.21.69.12.95.07.07.13.14.12.23.03.02.09.02.1.07.06.4.42.5.65.73.05,0,.05-.04.08-.05.03.2.26.18.4.15v.1c.14.02.2-.03.27-.08,0,.06.05.06.03.13.57.04,1.02.02,1.55.2.01-.04-.04-.06,0-.08.5-.11,1.18,0,1.7-.27.28.1.42.05.72,0,.09-.2.33-.18.42-.32.03-.05.01-.14.08-.22.01-.01.04.03.05.03.06-.05.17-.31.27-.3.13-.5.3-.8.28-1.3.04,0,.05.04.08.05,0-.11.08-.44-.05-.55.02-.04.1,0,.1-.05-.09-.41.15-.85-.02-1.25.09-.09.02-.23-.03-.33-.06,0-.11.05-.12-.03,0-.1.07-.15.1-.23-.16-.27.13-.87-.05-1.1,0,0,.07.04.08.02.09-.22-.12-.81,0-1.02-.19-.06-.03-.48-.12-.7.26-.47,0-1.31.18-1.82-.02-.04-.08-.04-.08-.1.03,0,.04.04.08.05.09-.5.18-1.02.27-1.55.01-.09-.09-.06-.07-.15.13-.01.02-.14.03-.25.04,0,.04.04.08.05.03-.16-.03-.41.15-.42.02-.08-.04-.08-.03-.15.16,0,.09-.18.12-.25,0,.04,0,.09.05.07-.09-.12.14-.27.08-.27-.03,0-.03.02-.05.02.02-.08.06-.27.13-.15-.1-.19.12-.25.17-.35.04-.07.03-.2.08-.3.07-.13.23-.22.28-.3.1-.19-.12-.27.03-.4.04.02,0,.12.07.1.11-.06.14-.21.18-.35-.11-.19-.39-.32-.63-.3ZM105.66,104.83c-.33.86-.87.33-1.26,0-.4-.33.27-2.26.6-3.19.33-.93,1.13-.73,1.13-.73,0,0-.14,3.06-.47,3.93ZM102.64,112.5h.13c0,.1-.16.14-.13,0ZM108.59,107.17c.01-.06.04-.11.02-.2.06,0,.05.2-.02.2Z"/>
  </g>
  <polygon class="cls-9" points="27.04 84.19 4.39 117.35 5.52 118.78 48.74 117.28 33.21 88.77 28.59 83.37 27.04 84.19 27.04 84.19"/>
  <path class="cls-5" d="M25.23,88.49c-.81.36-.23-.82-1.05-.46-.39.13-.18.82-.99.57-.32,1.35-.64,2.69-1.9,3.18-.31,1.42.72,1.36,1.13,2-1.79,1.31-1.79,5.49-4.95,4.1.29.76,1.23.8,1.37,1.73-.68.35-1.18.48-1.51.59,1.09.89-.29.67-.71,1.32-1.09,1.7-1.69,4.38-3.61,4.81-.07,1.24-.52,2.15-1.69,2.4.65,1.33-.37.18-.73.81,1.65.31-1.05,1.13.09,1.79-1.83.38-1.38,2.83-2.65,3.73-.16-.44.24-1.52-.33-1.53,0,.4.08.89-.48.8-.27.85.84.15.57,1-1.06.26-.87,1.66-1.42,2.39,2.68-.59,7.02-.64,10.01-.5.04-.2-.02-.51.23-.53,9.95.91,17.89-.64,30.04-.97-.55-2.7-2.94-3.99-3.87-5.47-.31-2.28-2.47-2.51-2.56-5.02-1.15.17-.99-.92-.85-1.5-1.02.02-1.95-1.64-1.12-2.01-.8.43-.86-.15-1.57-.44-1.86-5.6-6.28-9.56-8.41-13.99.01.26-.44.34-.51.02.31-.04.6-.1.49-.54-.72.25-.68-.33-1.3-.19-1.24,1.73-1.8,4.09-3.87,5.07.54.88-.19,1.25-.67,1.84-.31-1.02-.06-2,.37-2.85.42-.02.18.7.55.74.06-1.1.94-3.2,1.69-2.14-.03-.35.09-.57.21-.78h0ZM40.22,100.35c1.52.22,1.12,2.55,2.71,2.7.04,1.66.9,2.44,1.95,2.99-.12,1.75.87,2.28,1.93,2.74.12.43-.17.49-.49.54.36.35,1.21.59.58,1.26.2-.15.41-.29.75-.3.12.51-.01.81-.47.8.51.65,1.99,2.05,1.15,2.52.26.43.83.53,1.56.44.14,2.1,1.3,3.08,1.29,5.34-.24-.15-.97-.55-.75.29-.46-.48-1.79-.01-1.85-.94-.57,1.01-1.76-.67-3.05.67-.78.13-.58-.81-.84-1.25-.73.26.37.63.07,1.28-.2-.17-.87-1.04-.77.04-3.58-.25-8.91-.27-12.08.08-.01-.25-.03-.51-.04-.77-1.16.68-2.51.82-3.59.18-.69,1-5.47,1.03-6.93.35-2.82,1.62-9.09.09-10.45,1.8-2.21-1.24-6.02.16-8.79-.85-.26-.81.17-.99.45-1.31-1.03-.04-.43-.19-.6-1.77,1.19-.39,1.69-1.41,1.66-2.91,1.19.19.52-1.32,1.74-1.12-.22-.78-.21-.48-.07-1.28,1.74.19.69-2.15,2.2-2.16-.18-.25-.6-.24-.55-.75,1.03.28.48-.87,1.51-.59-.02-.43-.04-.86-.06-1.28.22-.21.57-.3,1.01-.3,1.51-3.87,4.32-6.55,5.92-10.33.89-.01,1.16-.58.95-1.59.75.03.75-.62,1.51-.59.62-3.44,3.9-4.48,4.49-7.94,2.82-.63,2.14-4.43,4.88-5.12-.18-.25-.6-.24-.55-.75.85-.05,1.26-.5,2.3-.37,1.15.81-.3,1.32,1.34,1.22-1.06,1.16.33,4.55,1.49,4.04.38.07.07,1.94,1.37,1.74-.14.79.32.92.34,1.52,3.3,2.75,3.93,8.46,7.24,11.21.11.43-.17.5-.49.54h0Z"/>
  <text class="cls-10" transform="translate(20.4 112.5) scale(.79 1)"><tspan x="0" y="0">1</tspan></text>
</svg>