<?xml version="1.0" encoding="UTF-8"?>
<svg id="Layer_1" data-name="Layer 1" xmlns="http://www.w3.org/2000/svg" viewBox="0 0 180 200">
  <defs>
    <style>
      .cls-1 {
        fill: #cddada;
      }

      .cls-2 {
        fill: #231f20;
      }

      .cls-2, .cls-3 {
        fill-rule: evenodd;
      }

      .cls-4 {
        fill: #fff;
        font-family: AmericanTypewriter-Bold, 'American Typewriter';
        font-size: 20.52px;
        font-weight: 700;
      }

      .cls-3 {
        fill: #ed2d2c;
      }

      .cls-5 {
        letter-spacing: 0em;
      }

      .cls-6 {
        letter-spacing: -.05em;
      }

      .cls-7 {
        fill: #054a52;
      }
    </style>
  </defs>
  <g>
    <g>
      <polygon class="cls-3" points="29.47 85.35 5.68 120.18 6.86 121.68 52.27 120.11 35.95 90.15 31.1 84.48 29.47 85.35 29.47 85.35"/>
      <path class="cls-2" d="M28.3,89.86c-.86.38-.24-.86-1.11-.49-.41.14-.18.86-1.04.6-.34,1.42-.67,2.82-2,3.34-.32,1.49.76,1.43,1.19,2.11-1.88,1.37-1.89,5.77-5.2,4.31.3.8,1.29.84,1.44,1.82-.71.37-1.24.51-1.59.62,1.15.94-.31.7-.75,1.39-1.15,1.79-1.77,4.6-3.79,5.05-.07,1.3-.55,2.25-1.77,2.52.68,1.4-.39.19-.77.85,1.73.33-1.11,1.18.1,1.89-1.92.4-1.45,2.98-2.78,3.92-.17-.47.25-1.6-.34-1.61,0,.42.09.93-.5.84-.29.89.88.16.59,1.05-1.12.28-.91,1.75-1.5,2.51,2.81-.62,7.38-.67,10.52-.52.04-.21-.02-.53.24-.55,10.46.96,18.79-.67,31.56-1.02-.58-2.84-3.09-4.2-4.07-5.75-.32-2.39-2.59-2.64-2.69-5.27-1.21.18-1.04-.96-.89-1.57-1.07.02-2.05-1.72-1.18-2.11-.85.45-.91-.16-1.64-.46-1.95-5.89-6.6-10.04-8.84-14.69.01.27-.46.36-.54.02.33-.04.63-.11.52-.56-.75.26-.72-.34-1.36-.2-1.3,1.82-1.88,4.3-4.06,5.33.57.93-.2,1.31-.71,1.93-.33-1.07-.06-2.1.39-2.99.44-.02.18.74.58.78.06-1.16.98-3.36,1.78-2.25-.03-.37.09-.6.22-.82h0ZM44.05,102.32c1.59.23,1.18,2.68,2.84,2.84.04,1.75.94,2.56,2.04,3.14-.12,1.84.92,2.4,2.03,2.88.12.45-.18.52-.51.56.38.37,1.27.62.61,1.32.21-.16.43-.3.79-.31.13.54-.01.85-.5.84.54.69,2.09,2.15,1.21,2.64.28.46.87.55,1.64.46.15,2.21,1.37,3.24,1.36,5.61-.26-.16-1.02-.58-.79.31-.49-.51-1.88-.01-1.94-.98-.6,1.06-1.85-.7-3.21.7-.82.14-.61-.85-.88-1.31-.77.27.38.66.07,1.35-.21-.18-.91-1.09-.81.04-3.76-.26-9.36-.28-12.69.08-.01-.27-.03-.53-.04-.8-1.22.72-2.64.86-3.77.19-.73,1.05-5.75,1.09-7.28.36-2.96,1.7-9.55.1-10.98,1.89-2.33-1.3-6.33.17-9.23-.89-.27-.85.18-1.04.48-1.38-1.09-.04-.46-.2-.63-1.86,1.25-.41,1.77-1.48,1.74-3.06,1.25.2.54-1.39,1.83-1.17-.23-.82-.22-.5-.07-1.35,1.83.2.73-2.26,2.32-2.27-.19-.27-.63-.25-.58-.78,1.09.3.5-.91,1.59-.62-.02-.45-.04-.9-.06-1.35.23-.22.6-.32,1.06-.32,1.58-4.07,4.54-6.88,6.22-10.85.93-.02,1.22-.61,1-1.67.79.04.79-.65,1.59-.62.65-3.61,4.09-4.71,4.72-8.34,2.96-.66,2.25-4.65,5.13-5.38-.19-.27-.63-.25-.58-.78.89-.06,1.32-.53,2.42-.39,1.21.86-.32,1.39,1.41,1.28-1.11,1.22.35,4.79,1.57,4.25.4.07.07,2.04,1.43,1.82-.14.83.33.97.36,1.6,3.46,2.89,4.13,8.89,7.61,11.78.12.45-.18.52-.52.56h0Z"/>
    </g>
    <text class="cls-4" transform="translate(18.2 115.46) scale(.79 1)"><tspan class="cls-6" x="0" y="0">1</tspan><tspan class="cls-5" x="12.34" y="0">0</tspan></text>
  </g>
  <g>
    <path class="cls-1" d="M110.99,49.57c17.7-.85,33.51,8.15,45.04,20.85,1.79,1.98,3.66,4.9,4.54,7.42,1.82,5.21,4.96,16.8,5.05,22.11.33,18.08-8.01,33.77-21.81,44.97-13.35,10.84-34.2,11.3-50.26,7.41-16.26-3.94-33.24-25.35-34.35-41.9-1.14-16.86,1.62-30.04,12.59-43,10.14-11.98,23.65-17.11,39.2-17.86Z"/>
    <path class="cls-7" d="M160.29,102.59c0,26.58-21.55,48.12-48.13,48.12s-48.13-21.54-48.13-48.12,21.55-48.12,48.13-48.12,48.13,21.54,48.13,48.12ZM158.56,102.61c0-25.63-20.78-46.41-46.42-46.41s-46.42,20.78-46.42,46.41,20.78,46.41,46.42,46.41,46.42-20.78,46.42-46.41Z"/>
    <path class="cls-7" d="M123.04,76.28c.2.29-.05,2.03.22,2.63.15.32,2.04,3.42,2.2,3.56,1.06.93,5.54,2.22,7.18,3.03,1.1.55,3.95,1.9,3.61,3.31-.62.98-1.53-.13-2.34-.12-.6,0-.99.46-1.48.48-1.82.08-5.49-1.4-7.75-1.47-.63-.02-1.22.12-1.81.31-.99,1.16,1.51,3.99,2.08,5.18,1.51,3.15,1.54,8.51.31,11.78-1.57,4.16-5.71,6.91-9.74,8.45-.75.29-1.66.81-2.41.45.08,1.01-.51,2.08-.2,3.07.14.43.72.54.72,1.29,0,.65-.67,1.1-.78,1.99-.22,1.79.58,4.17.28,6.09,1.65.54,4.16.62,5.63,1.47.57.33,1.2.79.58,1.43l-1.35.1-.38.9c-.49.38-1.42-.16-1.49-.11-.18.14.04.76-.88.72-.31-.01-4.75-2.36-4.9-2.6-.67-1.12.16-2.36.26-3.51.18-2.05.07-4.4-.9-6.23l.91-1.23c-.75-.75-.19-3.12-.91-3.34-.44-.14-1.11.02-1.65-.09-1-.21-1.6-1.11-2.67-.94-.26.95.05,1.96-.01,2.83-.04.57-.47,1.26-.45,1.79.02.78.91,1.57.72,2.72-.11.65-.7.76-.87,1.14-.25.54.28,7.14.59,7.58,2.63.2,5.19.68,7.5,2.02.18.75-2.03,1.24-2.42,1.45-.13.07-.17.52-.48.63-.75.27-1.59-.19-2.33-.21l-.12,1.26c-.2.28-.4.25-.71.2-.85-.14-3.92-3.04-4.11-3.88-.46-2.03,0-6.56-.04-8.93-.01-.6-.32-1.2-.28-1.74.05-.79.59-.86.72-1.29.16-.54-.24-6.3-.49-6.51-2.26-.46-4.34-2.24-6.43-3.16-1.54-.67-3.95-1.59-5.56-2.17-6.03-2.17-11.77-.09-17.76,1.02l-.85-.6c2.73-2.61,6.22-2.74,9.71-3.37l-3.48-1.13c-.48-.32-.75-.78-.26-1.24,1.2-1.15,6.53.61,7.97-1.24-1.93-1.98-.43-1.34.96-1.79,5.43-1.77,10.24-7.31,14.65-8.02,2.23-.36,2.58-.5,4.63-1.1,1.9-.55,3.91-.7,5.68.32.03-1.87-.03-3.75-.01-5.62,0-.46.28-.95.26-1.21,0-.14-.4-.12-.48-.34-.69-1.98-1.05-2.58.14-4.48.21-.33.63-.42.8-.71.92-1.52.42-2.94,2.89-2.84,2.17.08,4.7.66,6.55,1.69.27.15.96.23,1.03.34ZM116.59,77c.31-.38-.78-2.14-1.49-1.99-.18.18.67,1.28.85,1.52.21.28,0,.62.64.47ZM114.85,75.76c-.71-.14-.4.2-.56.55-.21.45-.47.92-.43,1.45.63-.36,1-1.3.99-1.99ZM121.58,76.26c-3.22.25-6.73,1.72-9.47,3.37-.32.19-.63-.05-.49.62l9.97-3.98ZM121.58,78.25l.51-.62-.39-.62-.12,1.24ZM120.58,78.5c.69-.19.26-.72.24-1.24h-.24s0,1.24,0,1.24ZM100.15,109.89c.83,1.36,4.97,2.01,6.44,2.41.55.15.96.67,1.46.78,4.49,1.01,9.55-.69,13.04-3.56.86-.7,3.21-3.19,3.22-4.25,0-.16-.46-.16-.59-.37-1.05-1.73-.11-1.64-.14-2.59-.02-.52-.58-.85-.51-1.39.3-.32,1.14.93,1.2,1.19.18.74-.36,1.05-.36,1.43,0,.08.38,1.38.65,1.37.06-.72.77-1.96.76-2.6,0-.15-.51-.12-.65-.62-.16-.58-.11-1.18-.1-1.77l.5.75c.39.07.28-.36.25-.62-.12-1.11-.74-2.06-1-3.12l.74.25c.24-1.48-1.57-1.9-1.99-3.11.68-.46,1.19.51,1.62.87.19.04.16-.24.12-.37-.17-.53-1.51-2.89-1.88-3.35-.29-.36-1.33-1.04-1.33-1.13,0-.15.4-.46.39-.75-.01-.24-.6-.66-.41-1.13l.99-.12-1.24-2.48c-.03-1.06,2.58-2.05,2.95-3.29-.4-1.37-1.25-2.51-2.12-3.59-2.27.29-4.4.76-6.48,1.72-1.04.48-3.07,1.37-3.07,2.66v7.6c-1.41-.69-2.45-1.31-4.11-1.26-2.03.06-3.13,1.17-4.54,1.45-.74.15-1.49-.05-2.18.06-5.05.77-8.57,6.66-13.83,7.48l2.99.37c.58.32-.68,1.19-1,1.13.76,1.51,1.44-.62,1.93-.75.6-.16,1.63.11,2.31,0l-1.24.99,2.86-.25.25.49-.36.86c1.08,1.44,1.69.7,3.11.63,1.11-.05,2.16.22,3.36-.23l-.6.77c-1.14.11-7.96.97-8.36.47v-.74c.74.12,1.64.62,2.23-.12-.63-1.16-.71-1.32-2.11-1.38-.28-.01-.94-.16-.88.26l1.99.38c0,.11-1.79,1.03-1.9,1.05-.19.03-2.54-.18-2.9-.24-.94-.17-1.12-.86-1.49-1.01-.28-.12-1.57-.41-1.83-.4-.5.03-1.45.97-1.73.97h-3.86c-.04.37.65.45.89.48,1.07.11,2.16-.02,3.22.28l.13-.75h2.24s-2.74,1.74-2.74,1.74c1.74.1,3.16-.84,4.98-.49l-.5.25c-.15.78.75.26.5,1.24l-.75.5c1.22-.53,5.58-.13,6.25-.86.14-.16.21-.42.23-.63l.63.25-.13,1c2.09-.28,4.14-.11,6.1-1l.26.5c-2.62,1.8-6.1,1.23-9.1,1l1,.5c-1.07,1.44-2.47-.84-3.99-.25l10.22,4.48c-.15-.24-.3-.43-.25-.75l3.49.5-.63.76-2.61-.51ZM114.6,80.49l-.12-1-.37.62.49.38ZM113.6,81.24l-.12-1.24-.63.25.25.99h.49ZM125.07,82.98l-2.99,2.37c.27.7.94.96.75,1.86,2.58-.41,5.14.54,7.72.75l-1.93-.93-4.55-.93c-.27-.2-.31-.34,0-.5,1.09-.59,6.98,1.73,8.48,2.12l-.25.74c1.34-.6,1.9-.6,3.24,0,.05-.04-.28-.65-.43-.76-.67-.51-3.27-1.73-4.14-2.04-.35-.12-.75.1-.86.02-.51-.37-.23-1.14-1.8-.46v-.75s-.89.19-.89.19l-.52-.71-1.08.27.25-.74c-.98-.31-.66.79-1.5.74l.5-1.24ZM88.18,103.42l-2.74.99c1.07-.02,2.43.31,2.74-.99ZM82.45,104.91l-4.79.06-3.18,1.43,7.97-1.49ZM104.62,113.14l-1.24-.26c-.24.25.72,4.42.38,5.49-.69,2.2-.37,1.46-.36,3.6,0,2.34-.64,5.32-.26,7.71.15.95,3.4,4.19,3.97,3.63.63-.62-1.52-1.34-1.24-1.99l3.61,1c.34-.45-1.3-.43-1.37-.5.23-1.69,2.49.41,3.49-.62-.69-.36-1.74-.83-2.49-1-1.24-.3-2.98-.16-3.82-.42-1.51-.45-.9-6.64-1.44-8.05-.08-.81.9-1.01,1.02-1.75.19-1.13-.61-1.59-.68-2.26s.56-1.71.45-2.72c-.05-.48-.5-.37-.53-.49-.19-.79.76-.46.5-1.36ZM112.3,116.17c-.08-.14-.6-.15-.66-.43s.6-1.37-.16-1.61c-.5-.15-.8.15-.88.63-.25,1.48,1.85,2.91-.24,3.73,1.47,2.59,1.11,6.16.29,8.94.14.7,1.81,1.05,2.37,1.36.71.39,1.66,1.28,2.32,1.17l-1.24-1,.37-.61,2.62,1.24.23-.89,1.26-.35-6.2-1.52c.23-2.31-.48-5.75.16-7.88.07-.24.52-.55.52-.69,0-.16-.56-.44-.66-.8-.12-.41.07-.99-.1-1.27Z"/>
    <path class="cls-7" d="M133.05,72.02c.93-.43,1.18-1.59,1.86-2.25,1.7-1.65,2.91-.36,1.89,1.64-.16.31-2.51,3.49-2.75,3.73-.43.42-1.05.72-1.63.86-2.04-.88-1.43-3.66-1.86-5.47-.7.49-1.25,2.27-1.99,2.61-1.1.51-1.68-.03-1.44-1.18.13-.63,2.91-5.02,3.44-5.54,2.51-2.44,2.31,4.29,2.49,5.6Z"/>
    <path class="cls-7" d="M146,91.95c-.61-5.49,4.28-2.35,2.24,1.12-6.76,2.86-7.26-9.7-.43-8.29,2.24.46,3.98,4.45,3.37,6.49-.18.6-.83.89-1.34.45-1.07-.93.33-3.91-2.34-4.64-2.87-.79-3.9,3.95-1.5,4.86Z"/>
    <path class="cls-7" d="M144.69,78.68c-1.16,1.19-2.28-1.36-2.8-1.94-.79-.89-2.6-1.73-3.62-.87-.76.64.11,4.93,1.75,4.61.04-1.21-1.69-2.39.12-2.98,4.31,1.66,1.54,7.27-2.25,3.74-2.47-2.3-2.98-6.97.94-7.82,2.36-.51,7.54,3.52,5.86,5.26Z"/>
    <path class="cls-7" d="M144.19,113.67c.41-.06,6.8,2.18,6.76,3.38-.76,3.19-3.85,6.16-7.28,4.52-2.63-1.25-1.17-7.66.53-7.91ZM144.66,116.14c-1.12.33-.59,5.83,2.44,3.94.48-.3,1.63-2.18,1.29-2.72-.29-.46-3.27-1.36-3.72-1.23Z"/>
    <path class="cls-7" d="M151.9,95.28c3.26,3.03.5,10.26-4.49,7.35-2.57-1.5-2.22-6.36.1-7.8,1.22-.76,3.33-.54,4.39.45ZM148.92,96.49c-1.71.38-1.96,3.5-.75,4.13,3.96,2.04,4.83-5.04.75-4.13Z"/>
    <path class="cls-7" d="M118.53,61.61c3.3-.52,7.22,3.14,3.09,5.55.9,1.06,1.08,3.92-.86,3.33-1.31-.4-.96-3.81-2.33-3.92-.81-.06-.54,1.73-1.18,2.24-2.63,2.05-.53-5.48-.1-6.32.28-.54.79-.78,1.38-.87ZM121.52,64.35c-.26-.23-2.74-.92-2.91-.8l-.27,1.49c.64.27,4.63.56,3.18-.69Z"/>
    <path class="cls-7" d="M141.19,123.77c-.14.18-2.94,1.84-2.42,2.31,2.11-.12,3.93-3.63,6.22-2.61,2.58,1.15-1.05,6.19-3.12,6.34-2.61-1.29,2.07-2.57,1.87-4.48-1.77.52-3.93,3.44-5.82,2.46-2.87-1.5,1.44-7.43,3.35-6.09.47.33.24,1.65-.09,2.06Z"/>
    <path class="cls-7" d="M147.93,104.72c6.63-1.37,6.61,9.38.5,8.11-4.22-.87-4.18-7.34-.5-8.11ZM147.05,110.34c.55.3,1.25.7,1.88.74,2.88.19,2.11-4.99-.19-4.58-2.12.38-1.83,2.12-1.69,3.84Z"/>
    <path class="cls-7" d="M105.01,65.29c.22.04,1.19.66,1.34.9,2.3,3.46-5.76,6.33-6.21,3.45-.38-2.41,4.75-.26,4.99-2.6-1.32-.69-5.43.48-5.93-1.17-.59-1.94,1.36-3.43,3.1-3.55,1.28-.09,3.54.34,2.42,2-.97.38-1.78-.19-2.9.03-.77.16-1.2.94-.55.94,1.02,0,2.87-.17,3.74,0Z"/>
    <path class="cls-7" d="M77.87,79.8c1.4.46,6.99.27,7.71,1.43.16.27.17.55.09.84l-.22.29c-1.8.67-2.79-.08-3.56,2.19-.32.94,2.46,3.83-.29,3.42-1.16-.17-6.59-6.89-3.73-8.18ZM81.95,81.74l-2.49-.25,1,2.24,1.49-1.99Z"/>
    <path class="cls-7" d="M73.98,91.95c1.99-.57,2.63-4.44,5.05-3.94,1.99.41,1.76,7.26-1.14,6.39-2.07-.63,1.11-3.51.82-4.68-.64-.12-.53.02-.82.31-1.02,1.02-1.93,4.49-3.86,4.01-3.08-.76-.78-7.09,1.05-6.55l.36.57c-.56,1.26-1.5,2.45-1.46,3.91Z"/>
    <path class="cls-7" d="M108.37,61.3c2.48-.62,6.96-.13,5.79,3.42-.72,2.19-3.23,1.38-3.69,2.04-.21.89.14,3.36-1.43,2.97-.18-.04-.68-.51-.68-.58v-7.85ZM110.36,64.79c1.24.08,2.89.18,2.38-1.51l-2.14-.62-.25,2.13Z"/>
    <path class="cls-7" d="M87.11,77.42c.75-.66,1.59-2.32,3.06-1.8,1.06.5-.24,2.39-.75,2.99-1.36,1.57-2.83,1.89-4.46.48-.51-.44-3.06-3.3-3.2-3.78-.34-1.13.36-1.54,1.36-1.12,1.26.52,2.69,4.36,3.99,3.23Z"/>
    <path class="cls-7" d="M92.11,66.33c.54-.09,1.01-.08,1.07.58l-1.43,1.99c.41.97,2.74,3.93,2.69,4.73-.05.73-.84.84-1.39.38-.5-.42-2.5-3.98-2.74-3.98-1.27,2.11-3.84.23-2.5-1.26.23-.26,4-2.39,4.3-2.44Z"/>
    <path class="cls-7" d="M79.78,123.17c-.29.24-.4,1.24-1.07,1.55-1.64.75-2.81-1.95-2.73-3.22.06-.9,2.46-2.66,3.32-2.57,1.1.11,2.18,2.95,1.43,3.83-.26.3-.75.25-.95.41ZM79.46,122.1l.71-.37-.84-1.62c-.81.56.27,1.27.13,1.99ZM78.71,123.35c0-.85-.36-2.6-1.49-1.99-.3.37.77,2.14,1.49,1.99Z"/>
    <path class="cls-7" d="M105.91,138.58c5.92-1.27,6.18,5.87-.05,4.59-.55-.38-.15-3.78.05-4.59ZM107.16,142c2.56.69,3.06-1.89.34-2.44-.54.05-.4,1.98-.34,2.44Z"/>
    <path class="cls-7" d="M113.53,138.6c4.55-1.35,4.51,6.38-.36,4.74-2.34-.79-1.35-4.23.36-4.74ZM114.53,139.83c-1.12.17-2.2,1.95-.69,2.34,2.28.59,2.77-2.67.69-2.34Z"/>
    <path class="cls-7" d="M126.73,64.07c1.84-.48.55,3.05.27,3.78-.21.54-1.51,3.15-1.81,3.42-.63.57-1.64.38-1.64-.62,0-.93,2.42-6.39,3.18-6.59Z"/>
    <path class="cls-7" d="M128.31,135.06l-.75,2.99c.51.05,2.58.57,2.24,1.37-.37.87-2.28-.09-2.87-.36l-.74,1.98c-.46-.01-2.26-3.78-2.1-4.33.12-.41.9-.55,1.2-.37.23.14.26,1.39.77,1.46.37-1.06.9-2.8,2.24-2.74Z"/>
    <path class="cls-7" d="M101.39,138.3l-2.49-.75c-.29,1.39,2.04.83,1.74,2.24l-2.49-.5c-.29,1.43,2.51.9,2.24,2.49-1.59-.38-3.86-.15-3.43-2.31.06-.33,1.28-3.21,1.43-3.32.52-.38,2.65.94,3.14,1.38l-.14.75Z"/>
    <path class="cls-7" d="M94.64,136.29c.32-.85.46-1.47,1.52-1.23.2,1.73-1.3,2.9-2.12,4.24l-.62-.61.49-1.36-1.61-.98c-.6.54-.93,1.14-1.87.96-.45-.45,2.12-5.56,2.72-3.58.3,1.01-1.5,1.91,1.49,2.57Z"/>
    <path class="cls-7" d="M122.58,138.8l-2,.12c-.89.87-.51,2.12.69,2.33.86.15,1.42-.64,2.31-.46-.18,2.2-3.8,2.08-4.7.34-1.46-2.8,3.25-4.44,3.68-3.18l.03.84Z"/>
    <path class="cls-7" d="M82.94,123.85v2.49c.16.15,2.03-.42,1.75.87-.15.49-1.64.38-2.2.54-.41.12-3.07,2.02-2.51.24.11-.35,1.29-.8,1.58-1.41.26-.54.31-3.42,1.37-2.72Z"/>
    <path class="cls-7" d="M90.92,132.82c-.5.17-1.36-.33-1.74-.14-.59.3-1.28,2.4-2.49,2.13-.35-1.23,1.83-2.5,1.38-3.48-.07-.15-1.31-1.29-.25-1.5.25-.05,2.59,1.83,2.85,2.13.27.31.33.42.26.86Z"/>
    <path class="cls-7" d="M131.55,136.06c-.99.41-1.98-2.05-1.12-2.24.61-.13,1.28,1.73,1.12,2.24Z"/>
    <path class="cls-7" d="M78.71,116.37c.46.99-2.07,1.88-2.24,1.12-.13-.61,1.73-1.28,2.24-1.12Z"/>
    <path class="cls-7" d="M77.96,114.38c.1,1.26-1.26,1.6-2.24,1.49-.22-.78,1.99-1.73,2.24-1.49Z"/>
    <path class="cls-7" d="M132.17,132.82c.54-.11,1.76,1.82.99,1.99-1.03.22-1.73-1.84-.99-1.99Z"/>
    <path class="cls-7" d="M110.86,99.18c.28-.36.83-.52,1.19-1.18.19-.35.64-2.68.55-2.8-.04-.06-.99-.22-1.39-.73-.65-.83,0-1.68-1.85-1.52-.09-.44.31-.97.27-1.33-.01-.12-1.26-.64-.77-1.16.22-.23,1.14.67,1.26.86.24.39.17.94.29,1.08.1.12.58.06.82.29.1.09,1.52,3.3,1.35,1.15-.07-.81-.58-1.59-.49-2.51.04-.35.17-.72.5-.38.12.87.59,1.83.69,2.68.09.74-.03,3.95-.32,4.53-.08.17-2.32,2.67-2.49,2.75-.93.46.23-1.56.38-1.74h0Z"/>
    <path class="cls-7" d="M118.76,80.78c1.66-.19,3.09,2.05,1.08,2.6-2.16.59-2.23-2.33-1.08-2.6ZM119.58,81.49c-.11-.11-1.31-.24-.99.62.36.96,1.4-.21.99-.62Z"/>
    <path class="cls-7" d="M108.12,102.17c-.26.48-1.21,1.33-1.69,1.45-.59.15-1-.18-1.4-.13-.51.07-1.16.69-1.9.42.19-.35,1.41-1.14,1.68-1.2.43-.09.91.25,1.42.2.7-.06,1.11-.87,1.89-.75Z"/>
    <path class="cls-7" d="M99.9,107.15v.74c-1.2-.26-2.87-.09-3.92-.68-.38-.21-.5-.6-.31-.81.15-.16,3.49,1,4.24.75Z"/>
    <path class="cls-7" d="M121.08,99.93c.07.55,1.58,2.32.62,2.74l-1.07-2.16-.05-.45.5-.13Z"/>
    <path class="cls-7" d="M104.13,105.66c.67.73-2.29,2.09-2.24,1.12,0-.12,2.12-1.25,2.24-1.12Z"/>
    <path class="cls-7" d="M119.09,87.97c-.08.73.29,1.69-.37,2.24-.48,0-.76-2.43.37-2.24Z"/>
    <path class="cls-7" d="M118.09,102.92l.22,2.08-.72.41c.2-.6-.51-2.64.5-2.49Z"/>
    <path class="cls-7" d="M100.89,99.68c-.51.69-1.66,1.19-2.49,1.24-.54-.47,2.12-1.48,2.49-1.24Z"/>
    <path class="cls-7" d="M108.87,93.45c.35,0,2.14,2.31,1.12,2.24-.62-.56-1.13-1.38-1.12-2.24Z"/>
    <path class="cls-7" d="M121.33,93.7c-.04.49,1.15,1.96.37,2.24-.55.2-.63-1.59-.86-1.88l.49-.36Z"/>
    <path class="cls-7" d="M123.07,97.43l.5,2.24c-.71.13-.41-.18-.56-.55-.14-.33-.92-1.93.06-1.69Z"/>
    <path class="cls-7" d="M120.58,105.16c-.31.4-.45,0-.5-.37-.09-.74.07-1.61,0-2.37.91.49.36,1.9.49,2.74Z"/>
    <path class="cls-7" d="M113.35,102.92c.22.23-1.39,2.46-1.74,1.37l1.74-1.37Z"/>
    <path class="cls-7" d="M118.83,98.93l.27,1.82-.76.42c.59-.67-.52-2.4.49-2.24Z"/>
    <path class="cls-7" d="M111.61,97.18c-.62.18-.69-.56-.74-.99h.75s.24-1,.24-1c.27.87.13,1.22-.25,1.99Z"/>
    <path class="cls-7" d="M103.63,107.9v.75s-1.74,0-1.74,0v-.75c.65.23,1.1.23,1.74,0Z"/>
    <path class="cls-7" d="M115.35,88.21c-1.13-.04-.69-1.06-.49-1.74l.49,1.74Z"/>
    <path class="cls-7" d="M103.14,100.18c.38.38-1.22,1.52-1.74,1.24-.1-.66,1.29-1.05,1.74-1.24Z"/>
    <rect class="cls-7" x="120.69" y="96.39" width=".74" height="1.8" transform="translate(-10.97 15.5) rotate(-7.01)"/>
    <path class="cls-7" d="M122.82,104.91h-.75s0-1.74,0-1.74c.66.28.79,1.11.74,1.74Z"/>
    <path class="cls-7" d="M92.67,103.42c-.37.83-1.54.41-2.24.49-.18-.98,1.67-.31,2.24-.49Z"/>
    <path class="cls-7" d="M114.6,99.43c0,.65-.07,1.67-.74,1.99.07-.49-.13-2.13.74-1.99Z"/>
    <path class="cls-7" d="M115.85,97.19l-.37,1.74c-.54-.26-.42-1.9.37-1.74Z"/>
    <path class="cls-7" d="M100.89,96.69c.35.01.75-.07,1.09.03,1.15.34-1,1.5-1.09-.03Z"/>
    <path class="cls-7" d="M114.1,83.48l.25,1.74c-.54.59-1.4-1.98-.25-1.74Z"/>
    <path class="cls-7" d="M122.57,105.91c.16.49.41,1.63-.49,1.49.11-.51-.39-1.7.49-1.49Z"/>
    <path class="cls-7" d="M109.12,110.39c.18.71-1.28,1.18-1.49.99-.47-.4,1.27-1.06,1.49-.99Z"/>
    <path class="cls-7" d="M116.85,109.89l.49-1.74c.12.68.31,1.4-.49,1.74Z"/>
    <path class="cls-7" d="M113.85,109.65c-.3.52-.12,1.56-1,1.49-.12-.13.35-1.74,1-1.49Z"/>
    <path class="cls-7" d="M111.11,90.46l.5,1.49c-.8.28-1.33-2.2-.5-1.49Z"/>
    <path class="cls-7" d="M98.15,98.93c-.3.48-.92,1.47-1.49.62l1.49-.62Z"/>
    <path class="cls-7" d="M91.17,98.68c-.57-.48,1.39-.87,1.49-1,.18.71-1.28,1.18-1.49,1Z"/>
    <path class="cls-7" d="M115.84,107.15c-1,.25-.26-1.6.25-1.74l-.25,1.74Z"/>
    <rect class="cls-7" x="108.64" y="95.68" width=".5" height="1.72" transform="translate(-21.06 31.04) rotate(-14.81)"/>
    <path class="cls-7" d="M107.12,103.91c.24.51-1.06,1.18-1.24.99-.24-.51,1.06-1.18,1.24-.99Z"/>
    <path class="cls-7" d="M112.11,106.65c.04.56-.18,1.27-.74,1.49.1-.42-.02-1.68.74-1.49Z"/>
    <rect class="cls-7" x="118.2" y="106.7" width="1.4" height=".62" transform="translate(-16.72 191.84) rotate(-74.01)"/>
    <rect class="cls-7" x="117.22" y="94.07" width="1.25" height=".5" transform="translate(23.39 212.05) rotate(-89.93)"/>
    <path class="cls-7" d="M110.11,111.14c.03.22.03.32-.11.51-.79.99-1.9-.07.11-.51Z"/>
    <polygon class="cls-7" points="106.87 110.14 106.87 110.89 105.88 110.89 105.88 110.39 106.87 110.14"/>
    <rect class="cls-7" x="115.22" y="102.79" width="1.25" height=".5" transform="translate(12.68 218.77) rotate(-89.93)"/>
    <path class="cls-7" d="M98.65,97.69c-.22.56-.94.77-1.5.74.22-.56.94-.77,1.5-.74Z"/>
    <polygon class="cls-7" points="120.33 108.89 119.84 108.89 119.85 108.54 120.58 107.65 120.33 108.89"/>
    <path class="cls-7" d="M109.12,108.4c-.11-.6.56-.78.99-1,.24.29-.61,1.18-.99,1Z"/>
    <path class="cls-7" d="M109.61,99.43h-.5c-.04-.47-.05-.95.37-1.24l.12,1.24Z"/>
    <path class="cls-7" d="M107.87,97.68l-.12,1.24c-.42-.3-.41-.77-.37-1.24h.5Z"/>
    <path class="cls-7" d="M94.41,96.19c-.35.53-.44,1.2-1.25.99-.1-.07.95-1.26,1.25-.99Z"/>
    <path class="cls-7" d="M107.13,93.2c0-.12-.04-.26,0-.37.62-1.59,1.61-.46,0,.37Z"/>
    <polygon class="cls-7" points="115.6 94.69 115.1 94.69 115.1 93.45 115.35 93.45 115.6 94.69"/>
    <path class="cls-7" d="M106.38,101.42c-.09-.56.22-1.04.74-1.25.03.44-.28,1.06-.74,1.25Z"/>
    <path class="cls-7" d="M107.87,100.67c.16-.25.61-1.54.74-1.24.07.62.02,1.31-.74,1.24Z"/>
    <path class="cls-7" d="M116.34,83.23l-.12.99c-.38-.27-.43-.53-.37-.99h.5Z"/>
    <path class="cls-7" d="M119.58,92.2h-.5c-.06-.46,0-.73.37-.99l.12.99Z"/>
    <path class="cls-7" d="M107.87,107.4l-.28.71-.72.03c.07-.33.74-.94,1-.74Z"/>
    <polygon class="cls-7" points="99.9 101.17 99.89 101.42 98.9 101.67 98.9 101.17 99.9 101.17"/>
    <path class="cls-7" d="M96.41,97.44c-.13.5-.53.56-1,.49.13-.5.53-.56,1-.49Z"/>
    <path class="cls-7" d="M93.67,98.18v-.49s.74-.25.74-.25c.08.45-.27.83-.74.75Z"/>
  </g>
</svg>