<?xml version="1.0" encoding="UTF-8"?>
<svg id="Layer_1" data-name="Layer 1" xmlns="http://www.w3.org/2000/svg" viewBox="0 0 180 200">
  <defs>
    <style>
      .cls-1 {
        fill: #231f20;
      }

      .cls-1, .cls-2 {
        fill-rule: evenodd;
      }

      .cls-3 {
        fill: #fff;
        font-family: AmericanTypewriter-Bold, 'American Typewriter';
        font-size: 20.52px;
        font-weight: 700;
      }

      .cls-4 {
        fill: #d4272e;
      }

      .cls-2 {
        fill: #ed2d2c;
      }

      .cls-5 {
        fill: #3f3934;
      }

      .cls-6 {
        fill: #dad3c3;
      }

      .cls-7 {
        letter-spacing: -.07em;
      }
    </style>
  </defs>
  <g>
    <path class="cls-6" d="M46.85,61.89s-.59,21.54.11,26.17c.7,4.63,2.48,27.86,2.64,33.67.15,5.81.53,9,1.42,9.56s16.93,2.17,23.03,2.01c6.1-.16,55,1.16,59.94,1.03,4.94-.13,34.53-2.95,35.4-2.98s2.9-.37,2.84-2.4-.4-26.17-.53-30.82-1.09-19.17-.88-22.37c.21-3.2.23-13.09.23-13.09,0,0-5-2.19-8.2-2.11-3.2.08-28.21.17-39.26.17-11.05,0-49.75-.72-54.69-.29-4.93.42-19.76.82-19.76.82l-2.31.64Z"/>
    <path class="cls-4" d="M80.09,107.62c1.87-1.27,3.18-2.93,3.88-4.98,1.01-2.97,3.2-4.48,6.07-5.13,1.95-.44,3.76,0,5.24,1.44,1.4,1.35,1.67,2.91.83,4.69-1.04,2.2-2.84,3.63-4.96,4.64-1.33.63-2.8.94-4.16,1.5-1.42.58-2.85,1.17-4.15,1.96-1.24.76-1.47,1.86-.85,2.69.63.85,2.01,1.02,3.04.35.49-.32.95-.7,1.42-1.07,1.27-1.02,2.71-1.39,4.32-1.2.78.09,1.57.13,1.94.98.39.9.29,1.78-.36,2.49-.83.91-1.75,1.76-2.67,2.58-.44.39-.95.73-1.48.98-2.75,1.31-4.86,3.31-6.54,5.84-.47.71-1.22,1.29-1.95,1.77-1.3.86-2.38.57-3.37-.65-1.58-1.94-3.6-3.07-6.15-2.92-1.35.08-2.69.37-4.03.58-.99.15-1.98.4-2.97.45-2.82.14-3.91-2.67-2.86-4.89.37-.78,1.07-1.08,1.88-1.13,1.48-.09,2.96-.1,4.43-.23,2.53-.23,5.04-.48,7.61-.12,1.04.15,2.23-.23,3.24-.63,1.23-.48,1.34-1.12.74-2.24-.85-1.58-1.72-2.02-3.5-1.56-1.54.4-3.06.91-4.57,1.44-3.2,1.12-6.37,1.19-9.54-.08-3.7-1.49-4.33-5.5-1.26-8.06,1.41-1.17,4-1.1,5.8.21.81.59,1.65,1.19,2.32,1.92,1.3,1.42,3.04,1.78,4.77,2.14,1.46.3,2.84-.35,3.21-1.31.47-1.21-.2-2.9-1.57-3.59-.77-.38-1.68-.71-2.51-.68-2.66.1-4.98-.89-7.26-2.02-.73-.36-1.4-.91-1.97-1.49-1.39-1.44-1.56-2.71-.7-4.16.9-1.51,2.55-2.27,4.26-1.69,1.78.61,3.53,1.36,5.2,2.24,1.28.67,2.56.87,3.94.77,1.81-.14,2.66-1.51,1.83-3.12-.96-1.87-2.51-3.14-4.64-3.49-2.04-.34-4.11-.54-6.15-.89-1.78-.31-3.38-.94-4.43-2.62-1.05-1.67-.39-4.85.48-5.92.69-.86,1.67-1.08,2.73-.95,2.15.26,4.14.91,5.9,2.24,1.79,1.35,3.61,2.67,5.45,3.96.5.35,1.09.55,1.89.95.37-2.03-.19-3.59-1.08-4.94-.76-1.16-1.86-2.12-2.91-3.06-1.14-1.02-2.48-1.84-3.59-2.9-1.81-1.7-2.59-3.8-1.81-6.28.77-2.45,3.13-3.59,5.51-2.63,1.64.66,2.96,1.81,3.78,3.37.99,1.88,1.82,3.85,2.61,5.83.25.62.12,1.4.15,2.11.02.47-.05.97.09,1.4.08.28.43.57.72.65.19.06.59-.19.71-.4.37-.67.69-1.37.96-2.09.58-1.55.94-3.2,1.7-4.66,1.52-2.94,3.85-4.93,7.33-5.14,2.09-.13,4.73,2.32,4.71,4.43,0,.7-.3,1.58-.78,2.05-1.77,1.73-3.65,3.35-5.55,4.94-1.68,1.4-3.49,2.64-5.15,4.06-.59.51-1,1.31-1.31,2.06-.38.93-.11,1.32.83,1.83.75.41,1.37.31,1.85-.4,1.09-1.6,2.44-2.89,4.22-3.7.32-.15.64-.33.97-.43,1.49-.47,3.33.03,4.04,1.08.88,1.3.73,3.41-.39,4.63-.43.47-.95.92-1.52,1.21-2.16,1.1-4.29,2.31-6.55,3.16-3.38,1.27-6.16,3.2-8.29,6.13-1.71,2.36-1.6,3.58.94,5.69Z"/>
    <path class="cls-5" d="M133.55,106.45c-1.09-2.22-1.04-3.91.13-4.96,1.01-.91,2.09-.76,4.19.57.54-.17,1.09-.34,1.71-.54.32,1.23-.71,1.37-1.26,1.79.18,2.68-.55,3.43-3.57,3.9.38.11.76.2,1.13.33,1.11.37,2.26.66,3.31,1.15.86.4,1.13,1.55.55,2.27-1.48,1.83-4,2.94-6.41,1.31-1.24-.84-1.37-1.5-.77-2.86.17-.39.17-.85.27-1.27.08-.33.15-.67.29-.98.11-.26.3-.49.44-.71ZM138,110.3c-1-1.11-2.41-.81-3.6-1.14-.06-.02-.46.59-.38.77.35.85,1,1.47,1.93,1.61.87.13,1.63-.12,2.05-1.24ZM137.07,104.14c0-.74-1.17-1.73-1.98-1.69-.5.03-1.12.77-1.14,1.37-.02.75.83,1.55,1.62,1.53.74-.02,1.5-.64,1.49-1.21Z"/>
    <path class="cls-5" d="M111.65,108.97c-.34.58-1.03.3-1.59.05-.63-.29-1.13-.31-1.82-.11-1.3.36-2.74.65-3.76-.64-1.17-1.5-1.19-3.2-.41-4.86.68-1.46,1.89-2.23,3.55-2.17.41.02.81.08,1.47.15,0-.66.02-1.27.02-1.88,0-.41-.14-.85-.04-1.23.09-.35.38-.81.67-.89.28-.08.9.16,1,.41.24.63.38,1.33.38,2.01-.02,2.06-.2,4.13-.17,6.19.01.88.4,1.75.71,2.97ZM109.15,103.12c-1.6-.76-2.71-.58-3.21.52-.51,1.13-.01,2.07.67,2.91.64.79,1.46,1.15,2.54.53v-3.97Z"/>
    <path class="cls-5" d="M153.71,88.93v-11.84c1.69-.55,1.92-.39,1.97,1.48.02.86.07,1.72.11,2.49.99.09,1.86-.02,2.56.27,1.5.64,2.48,1.82,2.47,3.55,0,1.73-.72,3.02-2.43,3.74-1.48.62-2.93.69-4.68.33ZM155.87,82.7c.12,1.7-.62,3.4.08,5.12,2.11-.45,2.97-1.39,2.82-3.01-.12-1.27-1.06-2-2.9-2.11Z"/>
    <path class="cls-5" d="M113.06,81.15c.33-.04.5-.04.66-.09,2.01-.55,3.33.04,3.66,2.05.26,1.6.04,3.28-.05,4.92-.02.26-.51.65-.83.7-.63.1-.74-.44-.75-.94,0-.53.1-1.08,0-1.59-.17-.91-.37-1.85-.74-2.69-.27-.61-.77-1.23-1.83-.83,0,1.3-.02,2.63,0,3.97.03,2.02-.13,2.17-2.32,1.87-.06-.19-.18-.41-.18-.63.05-3.07.1-6.14.18-9.21.01-.57.01-1.19.78-1.41.74-.21,1.17-.05,1.26.72.11.99.11,2,.17,3.17Z"/>
    <path class="cls-5" d="M132.08,81.63c1.56-.56,2.8-.37,3.79.83,1.3,1.57,1.24,3.82-.17,5.34-1.07,1.15-3.52,1.3-4.92.23-.32-.24-.56-.76-.59-1.17-.18-2.84-.3-5.68-.43-8.52-.03-.58.11-1.08.78-1.19.64-.1,1.2.37,1.29,1.14.12,1.05.17,2.1.26,3.32ZM131.85,87.59c1.55.32,1.94.17,2.54-.83.91-1.53.95-2.75.11-3.79-.38-.47-.75-.96-1.47-.7-.72.26-1.21.68-1.19,1.55.03,1.23,0,2.47,0,3.78Z"/>
    <path class="cls-5" d="M125.62,80.53c1.43.64,1.56,1.48,1.53,2.52-.06,1.92.02,3.85.05,5.79q-.95.12-1.95-.95c-.42.3-.81.66-1.27.91-1.23.66-2.76.14-3.22-1.17-.65-1.83-.49-3.74-.2-5.6.12-.79.5-.85,1.9-.61.17,2.04-.5,4.21.58,6.18,1.55-.37,1.9-.72,1.96-2.05.05-1.18-.04-2.37.04-3.54.04-.5.37-.97.59-1.48Z"/>
    <path class="cls-5" d="M141.95,101.18c.34.5.52.79.76,1.14.46-.26.91-.52,1.37-.76,1.47-.77,3.06-.31,3.42,1.25.36,1.59.35,3.27.43,4.92.03.58-.3.99-.99.99-.75,0-1.04-.37-1.09-1.09-.05-.83-.14-1.65-.27-2.47-.08-.52-.16-1.09-.43-1.52-.2-.32-.74-.67-1.07-.62-.33.05-.78.56-.82.92-.14,1.05-.11,2.12-.14,3.19-.01.46,0,.93,0,1.36-1.5.41-1.77.29-1.91-.89-.06-.52-.08-1.07,0-1.59.17-1.2.15-2.36-.7-3.45.48-.45.9-.84,1.46-1.37Z"/>
    <path class="cls-5" d="M145.65,88.26c-1.37,1.44-1.66,1.43-2.96,0-.51.15-1.06.34-1.63.46-1.26.26-1.83.06-2.3-.76-.54-.96-.43-2.19.45-2.9.57-.46,1.33-.7,2.02-1.01.31-.14.66-.21,1.04-.32-.05-.87-.55-1.18-1.25-1.2-.35-.01-.7.11-1.04.17-.51.09-1.16.32-1.29-.41-.04-.23.53-.7.9-.84,3.15-1.22,4.52-.32,4.71,3.1.08,1.35.03,2.72,1.35,3.71ZM142.45,84.79c-1.43.22-2.13.96-2.59,2.02,1.09.83,1.73.97,2.39.42.82-.67.31-1.49.2-2.44Z"/>
    <path class="cls-5" d="M119.47,108.25c-.55.41-1.04.98-1.65,1.21-1.49.57-3.32.46-3.96-1.68-.61-2.03-.34-4.01.72-5.79,1.2-2.02,3.61-1.85,4.61.27.36.77.85,1.59.24,2.69-.58.05-1.27.14-1.96.17-.64.03-1.28,0-2.01,0,.04,1.19.24,2.29,1.19,2.69.76.32,1.75.06,2.64.06.06.12.12.24.17.36ZM118.51,104.21c-.74-1.62-1.49-2.35-2.14-2.26-.64.1-.95.82-.96,2.26h3.1Z"/>
    <path class="cls-5" d="M151.98,83.07c-2.26-.61-3.05-.04-3.15,2.17-.03.77,0,1.54-.05,2.3-.08,1.18-.15,1.22-1.62,1.17-.77-2.25.68-4.86-1.09-6.94,1.07-1.29,1.36-1.3,2.89-.03.25-.2.51-.43.78-.63.65-.49,1.36-.78,2.11-.24.49.35.5.88.12,2.2Z"/>
    <path class="cls-5" d="M155.04,102.52c-.88.05-1.34.13-1.79.09-.69-.06-1.33-.1-1.55.75-.23.89.4,1.11,1.06,1.31.33.11.65.28.98.4,1.08.39,1,1.33,1.08,2.2.08.85-.59,1.07-1.15,1.38-1.54.85-2.25.72-3.09-.57.73-.44,2.02-.05,2.17-1.55-.44-.25-.91-.58-1.43-.82-.97-.45-1.18-1.23-1.06-2.2.18-1.44,2.3-2.83,3.61-2.27.39.17.64.67,1.19,1.28Z"/>
    <path class="cls-5" d="M120.92,107.38c2.62.39,2.7.36,3.51-1.26-.46-.22-.93-.43-1.38-.67-1.33-.71-1.95-2.2-1.37-3.23.71-1.25,2.61-1.64,3.88-.81.48.31.63.66.21,1.35-.51-.25-.99-.6-1.52-.7-.37-.07-.98.09-1.17.36-.34.48-.42,1.16.22,1.56.39.24.89.31,1.32.49,1.46.59,1.83,1.86.92,3.14-1.09,1.54-2.87,1.85-4.13.71-.19-.17-.25-.47-.49-.93Z"/>
    <path class="cls-5" d="M106.19,81.93c.59-.46,1.05-.93,1.61-1.23.53-.29,1.17-.37,1.5.36.34.75-.02,1.73-.74,1.87-.74.15-1.72-.06-2.01.8-.28.8-.22,1.73-.24,2.61-.02.47.14.94.14,1.41,0,1.03-.05,1.06-1.67,1.15,0-1.1.04-2.19-.01-3.28-.05-1.15.31-2.37-.64-3.38-.14-.15.06-.84.3-1.04.23-.19.76-.17,1.08-.04.29.12.47.5.69.76Z"/>
    <path class="cls-5" d="M130.56,108.65h-2.22v-6.98h2.22v6.98Z"/>
    <path class="cls-5" d="M129.44,100.17c-.55-.48-.98-.7-1.15-1.05-.22-.44.47-1.12,1.08-1.01.31.05.83.46.81.65-.05.41-.39.79-.74,1.4Z"/>
    <path class="cls-6" d="M138,110.3c-.42,1.12-1.18,1.37-2.05,1.24-.93-.14-1.58-.76-1.93-1.61-.08-.18.32-.79.38-.77,1.19.33,2.6.03,3.6,1.14Z"/>
    <path class="cls-6" d="M137.07,104.14c0,.58-.75,1.2-1.49,1.21-.79.02-1.64-.78-1.62-1.53.01-.6.63-1.35,1.14-1.37.81-.04,1.97.95,1.98,1.69Z"/>
    <path class="cls-6" d="M109.15,103.12v3.97c-1.08.62-1.89.25-2.54-.53-.69-.84-1.18-1.78-.67-2.91.49-1.1,1.61-1.28,3.21-.52Z"/>
    <path class="cls-6" d="M155.87,82.7c1.84.11,2.78.83,2.9,2.11.15,1.62-.71,2.56-2.82,3.01-.7-1.71.04-3.41-.08-5.12Z"/>
    <path class="cls-6" d="M131.85,87.59c0-1.31.02-2.55,0-3.78-.02-.87.47-1.29,1.19-1.55.72-.26,1.09.24,1.47.7.83,1.03.79,2.26-.11,3.79-.59,1-.99,1.15-2.54.83Z"/>
    <path class="cls-6" d="M142.45,84.79c.11.96.61,1.77-.2,2.44-.66.54-1.3.41-2.39-.42.46-1.06,1.16-1.8,2.59-2.02Z"/>
    <path class="cls-6" d="M118.51,104.21h-3.1c0-1.44.32-2.16.96-2.26.65-.1,1.4.63,2.14,2.26Z"/>
  </g>
  <polygon class="cls-2" points="28.41 79.47 4.85 113.95 6.02 115.44 50.97 113.88 34.82 84.22 30.02 78.61 28.41 79.47 28.41 79.47"/>
  <path class="cls-1" d="M26.52,83.94c-.85.37-.24-.86-1.1-.48-.41.14-.18.86-1.03.59-.33,1.4-.66,2.8-1.98,3.3-.32,1.48.75,1.42,1.18,2.09-1.86,1.36-1.87,5.71-5.14,4.27.3.79,1.28.83,1.43,1.8-.71.36-1.23.5-1.57.61,1.14.93-.3.7-.74,1.38-1.14,1.77-1.76,4.55-3.76,5-.07,1.29-.54,2.23-1.76,2.49.68,1.38-.39.19-.76.84,1.72.32-1.09,1.17.1,1.87-1.9.39-1.44,2.95-2.75,3.88-.17-.46.25-1.59-.34-1.59,0,.42.08.93-.5.83-.28.88.87.16.59,1.04-1.11.27-.9,1.73-1.48,2.49,2.78-.62,7.3-.66,10.41-.52.05-.21-.02-.53.24-.55,10.35.95,18.6-.66,31.25-1-.58-2.81-3.05-4.16-4.03-5.69-.32-2.38-2.56-2.61-2.66-5.22-1.2.18-1.03-.95-.88-1.56-1.06.02-2.03-1.7-1.17-2.09-.84.45-.9-.16-1.63-.45-1.93-5.83-6.54-9.94-8.75-14.55.01.27-.45.36-.53.02.32-.04.63-.11.51-.56-.75.26-.71-.34-1.35-.2-1.29,1.8-1.87,4.25-4.02,5.28.56.92-.2,1.3-.7,1.91-.32-1.06-.06-2.08.39-2.96.44-.02.18.73.57.77.06-1.15.97-3.33,1.76-2.23-.03-.37.09-.6.22-.82h0ZM42.11,96.28c1.58.23,1.16,2.65,2.82,2.81.04,1.73.93,2.54,2.03,3.11-.12,1.82.91,2.38,2.01,2.84.12.45-.18.51-.51.56.38.37,1.26.61.6,1.31.21-.16.43-.3.78-.31.12.54-.01.84-.49.83.53.68,2.07,2.13,1.2,2.62.27.45.86.55,1.62.45.15,2.19,1.35,3.21,1.35,5.55-.26-.15-1.01-.57-.78.3-.48-.5-1.86-.01-1.92-.97-.59,1.05-1.83-.7-3.17.69-.81.14-.6-.84-.87-1.3-.76.27.38.66.07,1.34-.21-.18-.9-1.08-.8.04-3.73-.26-9.26-.28-12.56.08-.01-.27-.03-.53-.04-.8-1.21.71-2.61.85-3.74.19-.72,1.04-5.69,1.07-7.2.36-2.93,1.69-9.46.1-10.88,1.87-2.3-1.29-6.26.17-9.14-.88-.27-.84.18-1.03.47-1.37-1.08-.04-.45-.2-.62-1.84,1.24-.4,1.75-1.46,1.72-3.03,1.24.19.54-1.38,1.81-1.16-.23-.81-.21-.5-.07-1.34,1.81.2.72-2.24,2.29-2.25-.18-.26-.62-.25-.57-.78,1.08.29.5-.9,1.57-.61-.02-.45-.04-.89-.07-1.34.23-.22.59-.32,1.05-.32,1.57-4.03,4.5-6.81,6.16-10.74.92-.02,1.21-.6.99-1.66.78.03.78-.64,1.57-.61.65-3.57,4.05-4.66,4.67-8.26,2.93-.66,2.23-4.6,5.08-5.33-.18-.27-.62-.25-.58-.78.88-.05,1.31-.52,2.39-.38,1.2.84-.31,1.38,1.4,1.26-1.1,1.21.34,4.74,1.55,4.21.39.07.07,2.02,1.42,1.8-.14.82.33.96.36,1.59,3.43,2.86,4.09,8.8,7.53,11.66.12.45-.18.51-.51.56h0Z"/>
  <text class="cls-3" transform="translate(18.57 110.23) scale(.79 1)"><tspan class="cls-7" x="0" y="0">1</tspan><tspan x="11.99" y="0">1</tspan></text>
</svg>