<?xml version="1.0" encoding="UTF-8"?>
<svg id="Layer_1" data-name="Layer 1" xmlns="http://www.w3.org/2000/svg" viewBox="0 0 180 200">
  <defs>
    <style>
      .cls-1 {
        fill: #fff;
        font-family: AmericanTypewriter-Bold, 'American Typewriter';
        font-size: 20px;
        font-weight: 700;
      }

      .cls-2 {
        fill: #f0eaae;
      }

      .cls-2, .cls-3, .cls-4, .cls-5 {
        fill-rule: evenodd;
      }

      .cls-3 {
        fill: #231f20;
      }

      .cls-4 {
        fill: #ed2d2c;
      }

      .cls-5 {
        fill: #007136;
      }

      .cls-6 {
        letter-spacing: -.04em;
      }
    </style>
  </defs>
  <g>
    <path class="cls-3" d="M153.91,76.57c-.18.06-.62-.13-.56.15-.12-.16-.08-.47-.24-.59.4-.19.76.07.79.45h0Z"/>
    <path class="cls-3" d="M109.1,98.83h.24c.04.24-.03.38-.16.45-.18-.01-.04-.32-.08-.45h0Z"/>
    <path class="cls-3" d="M89.67,109.43h.48c-.03.18.14.16.08.38-.15.15-.45.04-.64,0-.07-.21.11-.2.08-.38h0Z"/>
    <path class="cls-5" d="M91.77,135.28c1.03-.08,2.26.24,2.95-.08-.67-.32-2.2.02-2.95-.22v.3h0ZM90.74,135.13c.27-.04.74.1.88-.08-.4.01-.61-.13-.88.08h0ZM55.31,122.73s.01-.09.08-.08c1.11.65,2.17,1.35,3.03,2.24,1.1.07,1.31.97,2.39,1.05.21.45,1.14.22,1.36.67.66,0,.92.38,1.59.37.98.9,2.34,1.43,3.58,2.09.44-.04.71.08.87.3.55-.02.83.21,1.04.52,1.41.15,2.49.92,3.66,1.19-.03,0,.04-.16.16-.15.51.07,1.22.42,1.43.9,1.59.57,4.2.77,6.21,1.2.13-.01.06-.19.24-.15,1,.53,2.31.31,3.42.75.04.01.01.2.08.22.67.23,1.45.19,2.15.45.91-.01,2.7-.09,3.66.3.08-.08.16-.15.24-.22-.04.34.58.05.56.37.38-.33,1.26-.27,1.51,0,.36-.37.79.16.96-.15.11.02.09.16.16.22.2-.06.47-.06.56-.22.13.19.69.46.8.22-.1.24.26.06.16.3-.15.03-.48-.1-.4.15.27.07.61.07.8.22,0-.32.75.06.64-.38-.48.21-.43.07-.96-.08.08-.07.16-.15.24-.22.4.02.45.23.8,0-.18.46.65-.02.48.45-.34-.18-.14.03-.48-.15-.11.4.47.16.71.22.38-.56,1.68.02,2.31.15.18-.32.27,0,.56,0,.06-.26.58-.32.64,0,.26.09.06-.25.32-.15.92.54,2.13-.27,3.26.15-.17.38.4.06.32.37,1.44-.33,2.85.47,4.62,0,.52.02,1.79.37,2.86,0,1.15.38,3.2-.07,4.46.37.2-.2.67-.2.88,0,.09-.23.46.17.71-.15.8.17,2.26.07,3.43.15.1,0,.09-.17.16-.15.32.06.5.25.72,0,.25-.09.06.24.32.15.43-.49,1.52.04,2.07-.37.4.41,1.2,0,1.75.45.28-.51.82.08,1.19.15-.04-.01.09-.18.24-.15,1.03.17,2.88-.25,3.66-.07,1.12-.45,2.77-.06,4.06-.53.17-.06.1-.2.24-.22.47-.08.99.04,1.51,0,.69-.07,1.44-.37,1.99-.38.1,0,.08.16.16.15.19-.03.68-.38.96-.23-.05-.47.64-.24,1.04-.3,2.11-.46,4.17-.96,5.97-1.71h.64c-.11-.35.37-.15.4-.37.34.25,1.18-.28,1.51-.53.12,0,.06.19.24.15-.06-.37.32-.04.39-.38,1.05.07,1.66-.67,2.71-.82.06-.39.83-.12.96-.45,1.31-.31,1.72-1.47,3.1-1.71.35.05.45-.13.8-.07-.01-.21.2-.22.4-.22.04-.39.43-.45.8-.53.43-.62,1.09-1.02,1.91-1.27.08-.4.32-.65.79-.67.29-.37.34-.97,1.03-.97.26-.35.41-.81,1.04-.82.42-.4.59-1.03,1.28-1.2.72-1.06,1.66-1.93,2.62-2.76-.08-.66.51-.67.4-1.34,1.06-.83,1.49-2.24,2.55-3.06.69-2.76,2.48-5.35,2.15-8.37.39-.03,0-.32,0-.45.53-1.52.02-3.89.16-5.15-.69-2.24-1.64-4.23-2.31-6.5-1.1-2.11-1.95-4.44-3.58-6.05-.16-.97-1-1.31-1.2-2.24-.85-.64-1.4-1.58-2.31-2.17-.97-1.43-2.61-2.24-3.74-3.51-.31.05-.32-.2-.64-.15.07-.21-.11-.19-.08-.38-.43-.18-.38.15-.72.22-.14-.14-.06-.49-.08-.75-.48-.52-1.39-.64-1.59-1.42-.57-.07-.67-.56-1.28-.59-.72-.9-2.3-.98-2.94-1.94-.87-.28-1.66-.64-2.15-1.27-.45,0-.66-.23-1.03-.3-.07.36.1.5.32.59-.11,0-.07.13-.16.15-.19-.34-.93-.17-.96-.67-.37.28-.56-.43-.79-.3-1.67-1.35-4.05-2.03-6.69-2.46.01.19-.04.31-.16.37.09-.4-.25-.41-.24-.74-1.22-.12-2.28-.4-3.18-.82-3.3-.67-6.8-1.46-10.19-1.79-.36.52-1.14-.51-1.43-.23-.62-.41-1.51-.12-2.47-.22-.55-.21-1.89-.29-2.71-.3-1.21-.02-2.3.07-3.66,0-.78-.27-2.59-.26-3.42,0-.43-.31-1.33-.23-1.91,0-.14-.38-.52-.02-.64,0-.2.03-.26-.16-.4-.15-1.39.1-3.31.19-4.62.45-.41-.06-2.27.03-3.18.07-.53.38-1.78-.07-2.07.37-.74-.19-2.58.34-3.18.15-.96.27-1.87.39-2.47.6-.45.16-1.2-.03-1.83.15-.27.08-.41.32-.64.38-.68.16-1.46.12-2.15.3-.41.1-.72.36-1.11.45-.68.16-1.28.17-1.76.3-1.03.28-2.07.59-2.86.9-.29.11-.83,0-1.19.15-.28.12-1.3.6-1.51.6-.03,0,.01-.17-.08-.15-.11.03-.72.38-.96.38-.06,0-.04-.18-.16.08-1.31.22-2.22.84-3.58.82,0,.13-.06.19-.16.23-2.68.62-4.71,1.85-7.24,2.61-.62.39-1.25.76-2.07.97,0,.63-.99.95-1.36,1.49,0-.56.34-.78.64-1.05-.48-.15-.74.55-1.44.45-.35.57-1.16.71-1.67,1.12-.28-.02-.29.1-.48.22-.13.08-.31.03-.4.08-.39.23-.8.66-1.19.9-.11.06-.26,0-.4.07-.55.28-.9,1-1.51.97.06.21-.07.23-.16.3-.97.75-1.89,1.5-2.87,2.24-1.07,1.34-2.47,2.37-3.42,3.81-.25-.05-.15.21-.4.15-.22.8-1,1.05-1.19,1.87-.59.09-.49.84-.96,1.04-.29,1.32-1.15,2.12-1.43,3.44-.35-.1-.1.36-.4.3-.46,2.01-1.39,3.58-1.83,5.6.05.41-.1.65-.24.9.29.11.16.68,0,.82,0,.12.2.06.16.22-.57,1.69.03,3.09-.16,4.33.24.02.39.83.24.75.37.23.19.54,0,.82.34.19.1-.14.4-.15.17.6-.36.78-.16,1.2.25.09.19-.12.32-.15.35.6.31.68.48,1.34.54-.04.52.78.47,1.05.8.54.77,1.87,1.51,2.46.37.83.71,1.67,1.11,2.46,0,.12-.2.06-.16.22.14.25.52.16.24.45.2-.01.33.04.4.15.14,1.01.95,1.7,1.19,2.39,0-.07.14-.09.16,0-.01.59.63.59.56,1.05.32.12,1.09.78,1.11,1.2h0ZM46.47,100.77c.07-.11.12.02.32-.08.17-1.13.27-2.34,1.04-2.91-.05-.08-.19-.08-.16-.22.53-.26.23-1.29.71-1.57v-.6c.26-.13.29-.47.32-.82.59-.14.4-1.02.96-1.2.32-.91.55-1.97,1.11-2.69.02-.04.2.03.24,0,.51-.53.66-1.57,1.51-1.87-.06-.51.43-.49.4-.97.3.06.25-.22.48-.22-.04-.51.2-.76.72-.75-.06-.56.34-.68.4-1.12.26-.04.4.02.48.15.04-.19-.03-.27-.24-.22.08-.25.55-.14.48-.52h.4c.18-.31.13-.83.72-.75-.13-.22.45-.59.8-.75.09-.04.1-.33.16-.37.05-.04.09.14.08.15.29-.14.12-.26.32-.45.07-.07.24-.02.32-.08.13-.1.11-.09.32-.22.18-.1.22-.37.4-.52.15-.12.42-.11.56-.22.12-.09.13-.3.24-.38.14-.09.41-.06.56-.15.38-.23.57-.7,1.04-.67.09-.14.19-.26.24-.45.83-.08,1.24-.92,1.83-.97v-.3c1.44-.39,2.46-1.18,3.42-2.02,1.54-.22,2.42-1.07,3.58-1.65.71.12,1.09-.47,1.59-.3.16-.27.75-.14.79-.53.08.08.29.02.24.22.18-.36.91-.58,1.28-.67.06-.02.09.15.08.15.6-.19,1.11-.68,1.43-.45.09-.01.07-.14.08-.22,1.61-.25,2.7-1.06,4.38-1.05.08-.06.12-.13.16-.22.37.03.49.12.64-.15.14-.03.15.06.16.15.46-.2,1.16-.36,1.44-.22.48-.44,1.43-.14,1.91-.67.08,0,.06.09.08.15.09-.01.07-.13.08-.22,1.43-.34,2.96-.4,3.9-.9.17-.04.11.14.24.15.5-.34,1.81-.69,2.31-.53.12-.16.36-.21.48-.38.26-.06.3.07.4.15,1.21-.54,2.92-.81,4.14-1.12.78.29,2.14-.39,3.34-.3.11-.02.03-.22.16-.22.35.27.88-.16,1.27-.22.06-.01.26.16.32.15.52-.04,1.2-.36,1.83-.45.55-.08,1.22.04,1.67-.07.03,0,.53-.42.72,0,.15.03.36-.37.4,0,.55-.36,1.65-.08,1.91-.37.34.37,1.39-.35,1.83.15,1.34-.4,3.15-.2,4.14-.37-.05.08.5.28.72,0,.26-.09.06.24.32.15,2.83-.31,6.98-.65,9.39.22.31-.26,1.17.73,1.67.3.7.38,2.22.66,2.95.53,1.21.56,2.75.25,4.3.67.46-.22,1.21-.05,1.51.22,2.08-.21,4.55,1.06,6.61,1.12.19.43,1.4.67,1.75.45,1.13.53,2.13.94,3.66,1.2.22.29.61.42,1.12.45.04.06.08.12.08.22,1.55.51,2.48,1.6,4.06,2.09.24.62.97.78,1.67.96.14.74,1.37.46,1.51,1.2.77-.05.84.56,1.59.53.35.71,1.13,1.03,2.07,1.2.41.46.9.85,1.59,1.04.37.41.47,1.06,1.04,1.27-.03.18.14.17.08.38,2.55,1.59,4.36,3.87,6.37,5.97.08.95.83,1.27,1.19,1.94-.06.63.39.78.8.97.78,1.51,1.33,3.23,2.39,4.48.18,1.95,1.41,3.02,1.68,5.08.48.83.41,2.21,1.03,2.91.04.31-.11.8.16.9.22,2.63.21,5.7-.64,7.47-.18,2.14-1.35,3.36-1.91,5.15-.54.99-1.14,1.92-1.67,2.91-1.01.75-1.23,2.23-2.23,2.99.06.22-.08.27-.08.45-.3.07-.38.34-.72.37.03.18-.14.17-.08.37-.82.24-.92,1.14-1.75,1.34-.65.84-1.64,1.36-2.55,1.94-.26.48-.75.75-.96,1.27-1.95.68-2.48,2.71-4.38,3.44-.12.21-.43.25-.56.45-.53-.23-.74.18-1.27.3-.12.06-.17.19-.16.38-.71.02-1.12.16-1.59.52-.92.06-1.2.72-2.15.74-1.26,1.03-2.88,1-4.54,1.72v-.15c-.94.44-2.41.35-3.03.9-.62.11-1.3-.2-1.67.22-.36.03-.94-.13-.88.3-.76.08-1.38.44-1.75-.22-.05.12-.24.12-.32.22-1.42-.11-2.62.09-3.58.45-3.08.56-7.08,1.04-10.43,1.49-.27-.26-.63-.11-.95,0-.08.03-.06-.15-.08-.15-.11.02-.21.2-.32.22-.52.13-1.12-.07-1.59,0-.22.03-.32.04-.64.15-.13-.31-1.01-.2-1.27,0-.45-.29-1.7-.29-2.15-.22-.8-.36-3.11-.4-3.58-.3-.13-.13-.95-.32-1.04,0-.1-.08-.67-.34-.71,0-1.25-.28-3.67.1-5.73-.37-.6.05-2.5.14-3.19-.22-.24.64-.95-.18-1.67,0-.22.06-.65-.01-1.11-.07-.15-.02-.82-.08-.95-.15-.15-.08-.14.15-.16.15-.11-.01-.27-.2-.4-.22-.87-.18-2.02-.18-2.87-.08-.97-.26-2.38-.5-3.1-.37-.1-.01-.07-.14-.08-.22-.14-.03-.15.06-.16.15-.13-.2-1.01-.42-1.11-.15-.06-.12-.25-.11-.24-.3-.2.36-.73.22-1.11,0-.24.21-.29.17-.72.22.11-.48-.79,0-.64-.52-1.21-.05-2.93-.22-3.98-.67-.25-.09-.19.12-.32.15-.57-.65-1.65-.19-2.15-.67-.89.31-1.91-.56-2.87-.3-.03-.38-.47.02-.4-.37-.45.17-1.44-.38-2.23-.52-.47-.08-.86-.12-1.28-.22-.08-.02-.07.15-.08.15-1.11-.2-2.05-.6-3.27-.74-.38-.36-1.46-.08-1.59-.67-.17-.04-.11.14-.24.15-1.25-.62-3.17-.62-4.3-1.35.15.12-.58,0-.88-.15-.03-.02.04-.21,0-.22-.1-.05-.25.07-.24.07-.1-.03-.02-.2-.08-.22-.43-.18-1.01-.15-1.51-.37-.54-.24-.93-.73-1.27-.9-.06-.02-.1.14-.08.15-.12-.07-.18-.3-.32-.37-.14-.08-.37,0-.48-.07-.14-.1-.17-.34-.32-.45-.42-.31-1.13-.5-1.59-.82-.11-.08-.13-.31-.24-.37-.16-.09-.4-.01-.56-.08-.33-.12-.58-.49-.95-.67-.55-.27-1.19-.35-1.59-.59-.26-.16-.28-.56-.72-.45-.53-1.05-1.88-1.31-2.39-2.39-.08.05-.08.17-.24.15-.57-1.15-1.69-1.8-2.15-3.06-.79-.87-1-2.3-1.83-3.14-.09-1.03-.88-1.41-1.35-2.09-.19-.03.04.34-.24.22-.16-.38-.06-.85-.32-1.19-.15-.21-.18-.24-.32-.67-.2-.66-.76-1.33-.95-1.94-.17-.51,0-1.15-.48-1.57-.03-.77-.04-1.55-.32-2.09-.03-.15.02-.24.16-.22-.25-.12-.25-1,0-1.12-.65-1.56.22-3.88,0-5.53h0Z"/>
    <path class="cls-2" d="M106.58,99.27c.13-.07.2-.2.16-.45h-.24c.04.13-.1.44.08.45h0ZM104.43,99.05c.43-.08.37.35.72.15.01-.24-.13-.32-.32-.37-.01.33-.58-.27-.47,0,.09.01.08.12.08.22h0ZM118.68,92.55c0-.37-.21-.55-.48-.67.15.24.33.44.48.67h0ZM54.2,121.53c.07-.45-.57-.46-.56-1.05-.02-.09-.16-.08-.16,0-.24-.68-1.05-1.38-1.19-2.39-.07-.11-.2-.16-.4-.15.29-.29-.1-.2-.24-.45-.04-.17.15-.1.16-.22-.4-.79-.75-1.64-1.11-2.46-.74-.6-.71-1.93-1.51-2.47.05-.27.07-1.09-.47-1.05-.17-.67-.13-.74-.48-1.34-.13.03-.07.23-.32.15-.2-.41.33-.59.16-1.2-.3,0-.06.34-.4.15.19-.28.37-.59,0-.82.15.09,0-.72-.24-.75.19-1.24-.41-2.64.16-4.33.04-.16-.15-.11-.16-.22.16-.14.29-.7,0-.82.14-.25.28-.48.24-.9.45-2.02,1.37-3.59,1.83-5.6.3.06.05-.4.4-.3.29-1.32,1.14-2.12,1.43-3.44.47-.2.36-.95.96-1.04.19-.82.98-1.07,1.19-1.87.25.06.15-.2.4-.15.96-1.44,2.36-2.47,3.42-3.81.97-.74,1.9-1.49,2.87-2.24.09-.07.22-.09.16-.3.61.03.96-.68,1.51-.97.14-.07.29-.01.4-.08.39-.24.8-.67,1.2-.9.08-.05.27,0,.4-.08.19-.12.2-.25.48-.22.51-.42,1.32-.56,1.67-1.12.69.1.96-.59,1.43-.45-.3.27-.65.49-.64,1.05.37-.55,1.35-.86,1.36-1.5.81-.21,1.45-.58,2.07-.97,2.54-.76,4.56-1.99,7.25-2.61.1-.03.16-.1.16-.23,1.36.02,2.28-.59,3.58-.82.12-.26.1-.08.16-.08.24,0,.85-.35.96-.38.09-.02.05.15.08.15.21,0,1.23-.47,1.51-.6.36-.15.9-.03,1.19-.15.8-.31,1.84-.62,2.86-.9.47-.13,1.07-.15,1.76-.3.39-.09.7-.35,1.11-.45.69-.17,1.48-.14,2.15-.3.23-.06.37-.3.64-.38.63-.18,1.38,0,1.83-.15.59-.21,1.51-.33,2.47-.6.6.19,2.44-.34,3.18-.15.29-.44,1.54,0,2.07-.37.92-.04,2.77-.13,3.18-.08,1.31-.26,3.23-.35,4.62-.45.13-.01.2.18.4.15.12-.02.49-.38.64,0,.58-.23,1.49-.31,1.91,0,.83-.25,2.64-.27,3.42,0,1.37.08,2.45-.02,3.66,0,.81.02,2.16.09,2.71.3.95.1,1.84-.19,2.47.22.29-.28,1.07.74,1.43.23,3.39.33,6.89,1.13,10.19,1.79.9.43,1.97.69,3.18.82-.01.34.33.34.24.74.12-.06.17-.18.16-.37,2.64.44,5.02,1.12,6.69,2.46.24-.13.43.58.79.3.03.5.76.34.96.67.09-.02.05-.15.16-.15-.22-.09-.39-.24-.32-.59.37.07.58.3,1.03.3.5.63,1.29.99,2.15,1.27.65.96,2.23,1.05,2.95,1.94.6.03.71.53,1.28.59.2.78,1.1.91,1.59,1.42.03.26-.06.6.08.75.34-.07.29-.4.72-.22-.04.18.14.16.08.37.32-.05.32.2.64.15,1.14,1.28,2.78,2.08,3.74,3.51.91.59,1.46,1.52,2.31,2.17.2.93,1.04,1.27,1.2,2.24,1.63,1.61,2.48,3.94,3.58,6.05.67,2.26,1.62,4.26,2.31,6.5-.14,1.26.38,3.63-.16,5.15,0,.12.39.42,0,.45.33,3.01-1.46,5.61-2.15,8.37-1.06.83-1.49,2.24-2.55,3.06.11.67-.49.68-.4,1.34-.97.83-1.9,1.7-2.62,2.76-.68.16-.86.8-1.28,1.2-.62.02-.77.47-1.04.82-.69,0-.74.6-1.03.97-.48.02-.71.28-.79.67-.83.25-1.49.65-1.91,1.27-.37.08-.76.13-.8.53-.2,0-.41.01-.4.22-.35-.06-.45.12-.8.07-1.39.24-1.8,1.4-3.1,1.72-.13.32-.89.06-.96.45-1.04.15-1.66.9-2.71.82-.07.34-.45,0-.39.38-.18.04-.12-.15-.24-.15-.33.25-1.17.78-1.51.53-.02.22-.51.02-.4.37h-.64c-1.8.75-3.86,1.25-5.97,1.71-.39.06-1.09-.17-1.04.3-.28-.15-.77.2-.96.23-.07.01-.06-.15-.16-.15-.55.01-1.3.31-1.99.38-.52.04-1.04-.08-1.51,0-.14.02-.07.16-.24.22-1.29.47-2.94.08-4.06.53-.78-.18-2.63.24-3.66.07-.15-.02-.28.14-.24.15-.38-.07-.92-.66-1.19-.15-.55-.44-1.35-.04-1.75-.45-.55.42-1.63-.11-2.07.37-.26.09-.06-.24-.32-.15-.22.25-.4.06-.72,0-.07-.02-.06.16-.16.15-1.17-.09-2.63.02-3.43-.15-.25.32-.62-.08-.71.15-.21-.2-.67-.2-.88,0-1.26-.44-3.31,0-4.46-.37-1.08.37-2.34.02-2.86,0-1.77.47-3.18-.33-4.62,0,.08-.31-.49.01-.32-.37-1.13-.42-2.34.38-3.26-.15-.26-.1-.06.24-.32.15-.06-.31-.58-.26-.64,0-.29,0-.38-.31-.56,0-.63-.13-1.93-.72-2.31-.15-.25-.07-.82.17-.72-.23.34.18.14-.03.48.15.18-.47-.65.01-.48-.45-.35.23-.4.02-.8,0-.08.07-.16.15-.24.22.53.15.48.29.96.08.12.44-.64.06-.64.38-.19-.15-.53-.16-.8-.22-.08-.25.25-.12.4-.15.1-.24-.26-.06-.16-.3-.1.24-.66-.03-.8-.22-.09.16-.35.17-.56.22-.07-.06-.05-.21-.16-.22-.17.31-.6-.22-.96.15-.26-.27-1.14-.33-1.51,0,.03-.32-.6-.03-.56-.37-.08.07-.16.15-.24.22-.96-.39-2.76-.31-3.66-.3-.7-.26-1.48-.22-2.15-.45-.07-.02-.04-.21-.08-.23-1.11-.44-2.43-.21-3.42-.74-.18-.04-.11.14-.24.15-2.01-.43-4.62-.63-6.21-1.2-.21-.47-.92-.82-1.43-.9-.12-.02-.19.15-.16.15-1.17-.27-2.25-1.05-3.66-1.19-.21-.31-.48-.55-1.03-.52-.16-.22-.43-.34-.87-.3-1.24-.66-2.61-1.2-3.58-2.09-.68,0-.93-.37-1.59-.37-.22-.45-1.14-.22-1.36-.67-1.08-.08-1.29-.98-2.39-1.05-.86-.89-1.91-1.59-3.03-2.24-.06-.01-.08.03-.08.08-.02-.41-.79-1.08-1.11-1.2h0Z"/>
    <path class="cls-3" d="M120.8,91.88c.27.12.48.3.48.67-.14-.24-.33-.44-.48-.67h0Z"/>
    <path class="cls-5" d="M108.49,108.91h.57c.29.35.36.97.36,1.46-.28,0-.26.27-.36.44-.53.2-1.22.24-1.29-.44,0-.06-.09-.04-.15-.05.2-.19-.1-.4,0-.78.24-.26.72-.29.87-.63h0Z"/>
    <path class="cls-5" d="M128.94,115.49c-.05-.23,0-.54-.21-.63,0,.33.03.42.21.63h0ZM123.98,114.87s.05-.06.1-.05c-.11-.13-.02-.46-.26-.49-.12.18.06.41.15.54h0ZM128.73,113.22c.49,1.08,1.17,2.43.98,4.07-.2,1.73-.32,3.7.57,4.89-.02.18.04.43-.05.53-.96.02-.79-1.04-1.39-1.35-.76.1-.79.9-1.08,1.45-.05-.01-.03-.1-.1-.1-.51.42-1.76.28-2.38.15-.17-.06-.04.16-.2.1-.14-.11-.41-.1-.52-.24-1.67.05-1.48-1.65-1.91-2.76,0-.54-.11-1.07.1-1.5.07-.19-.14-.09-.1-.24.26-.49.11-1.38.15-2.08,0-.06-.1-.04-.15-.05.23-.29-.03-1.06.26-1.31-.12-.16-.24-.32-.41-.44.17-.34.47-.56.62-.92.05.25.31,0,.36.24.17-.09.33-.17.62-.15.04.24.5.48.26.68.08.08.16.17.26.24.22,1.08.03,2.44-.26,3.78.02.81-.06,2.31.15,3.24.65.2,1.32.38,2.01.54.69-.14.86-.77,1.35-1.11,0-.28-.03-.58.15-.67-.12-1.37.31-3.33-.11-4.85-.06-.16.17-.03.11-.19-.25-.56.24-1.13.1-1.89.12-.11.43-.13.62-.04h0Z"/>
    <path class="cls-5" d="M123.83,114.33c.24.03.14.35.26.49-.06-.01-.09.01-.1.05-.09-.12-.28-.36-.15-.54h0Z"/>
    <path class="cls-5" d="M128.73,114.87c.2.09.16.4.21.63-.18-.2-.21-.29-.21-.63h0Z"/>
    <path class="cls-5" d="M89.97,120.29c-.13.01-.17-.07-.16-.19h.16v.19h0Z"/>
    <path class="cls-5" d="M105.71,115.45c-.32.06.05.18-.21.29-.3.03-.27-.17-.46,0-.82-.27-1.99-.59-2.89-.39.03.26-.1.67.1.78.03.11-.1.07-.1.15.31.99,0,2.99.21,4.5.09.65.22,1.21.46,1.69.62.12,1.35.66,2.06.25.81.07,1.28-.23,1.96-.39.08.03.08.16.21.14-.21.12.09.2.05.34-.28.48-.78.22-1.08.63-.16-.18-.35.16-.62,0,.03.04.12.05.1.15-.93.12-1.17.02-1.96.04-.43-.36-.87-.47-1.39-.68-.25-.35-.35-.84-.52-1.26-.02-2.23-.5-4.33-.36-6.29-.53-.29-1.2.25-1.5-.05-.38.2-1.28.12-1.55-.09-.11-.51.32-.5.52-.73.24.37.77-.23.93-.05.06-.01.04-.09.05-.15.1.04.21.06.26.15.06-.01.05-.09.05-.15.21.41,1.09-.12,1.14.15.15-.3.18-1.16.16-1.31.42-1.56-.25-3.56.62-4.7h.41c.32.41.23,1.02,0,1.5.35.14-.12.4,0,.63,0,0,.1.07.1.05-.1,1.15-.34,2.77-.21,3.68.31-.04.83.1.98-.09.73.24,1.44-.19,2.32.15-.03.1-.08.31.1.34.04.16-.17.07-.16.19.1.24.24.25.21.53h0Z"/>
    <path class="cls-5" d="M90.9,116.95c.14.37.01,1.02-.05,1.59.04-.03.08-.05.16-.04-.14.27.03.65-.1,1.11.33.35.43,1.02.88,1.26.24.13.99.47,1.08.49.05,0,.05-.1.05-.1.92.19,2.03.04,2.89-.24.23-.62.41-1.16.31-1.99-.33-.81.04-1.96-.26-2.95-.06-.15.08-.12.1-.19-.32-.27-.03-.71-.15-1.02.62-.55.85.33.98.82.07,1,0,1.83.1,2.96-.19-.16,0,.38-.05.68.12.02-.03-.22.15-.15.01.24.09.86-.1,1.06.23.21.13.72.46.83-.07,1.12.65,1.49.67,2.52-.91.08-.92-1.1-1.24-1.75-.66.29-1.74.2-2.27.63-.25-.2-.41.1-.52-.1-.24.36-.7-.09-.98.1-1.12-.05-1.66-1.03-2.63-.92.26-.15-.15-.09,0-.29-.08.02-.04.15-.2.1.06-.24.03-.32.05-.63-.11.02-.02.24-.05.34-.13-.06-.21-.16-.2-.34.21.3,0-.16-.11-.24.2-.08.16-.33.21-.44,0-.16-.3-.03-.26-.25-.09-.01-.1.04-.1.1-.11-.07-.19-.17-.16-.38.11-.03.07.09.16.1-.02-.17-.08-.28-.05-.48h.16c0-.83-.27-2.19-.1-3.78h.26c-.02-.26.13-.36.1-.63.43-.24.6.08.83.29.19.77-.07,1.32.1,1.69-.22.11,0,.16,0,.34-.09.02-.1-.03-.1-.09h0Z"/>
    <path class="cls-5" d="M76.23,117.67c.21.26.26.66.26,1.12-.26-.21-.06-.76-.26-1.12h0Z"/>
    <path class="cls-5" d="M89.19,119.41v-.15c.11-.02.1.07.1.15.05-.03.05-.11.15-.09v.14c-.15.04-.13-.07-.26-.05h0Z"/>
    <path class="cls-5" d="M134.15,121.6c.18-.16.32.12.41.19,0,.01-.38-.06-.41-.19h0Z"/>
    <path class="cls-5" d="M117.01,115.16c-.1.15-.3.2-.57.19.01-.03.13-.18,0-.19-1.06.64-2.2,1.2-2.32,2.71.08.17.33.18.26.48-.16-.03-.1-.03-.26,0-.14.93-.07,1.33,0,2.28.27.18.66.26.77.58.14.07.46-.04.41.19,1.25.12,1.92.36,2.89.19-.06-1.37-.16-2.53-.2-4.07-.01-.42-.07-2.19.05-1.75v-.29c-.35,0-.32-.38-.57-.48-.12.15-.34.27-.47.15h0ZM118.97,112.16c.41.48-.15,1.25.15,1.93.37.38,1.01.51,1.04,1.21-.35-.06-.77-.1-.93.15.22,1.06.07,2.7.26,4.21.09.69-.04,1.5.05,2.08.02.11.05.22,0,.48.31,1.09-.05,2.69.31,3.54.03.55-.08,1.23.16,1.6-.17.53.11,1.29,0,2.18-.74.11-2-.18-1.55-1.02-.49-1.52-.19-4.51-.26-5.96.02-.16-.26-.02-.2-.2-.04.14-.38.14-.41,0-.21.17-.93.2-1.08,0-.01.11-.52.19-.52,0-.06,0-.04.09-.05.15-.17.04-.08-.16-.16-.19-.94-.17-1.43-.76-2.17-1.12-.12-.26-.15-.6-.52-.63-.08-.86-.1-1.32,0-2.27.36-.39-.08-1.05.26-1.36.14-1.06,1-1.46,1.45-2.23.11.02.14-.04.2-.05.2-.35.69-.42.99-.68.42.1.58-.17.83,0,.13-.02.14-.15.36-.1.09.11.36.05.36.24.15-.11.27-.11.41,0,.27-.54.25-1.11.26-1.84.17-.13.47-.29.77-.14h0Z"/>
    <path class="cls-5" d="M134.56,121.79c-.09-.07-.23-.36-.41-.19.03.13.4.2.41.19h0ZM134.41,114.72c-.21.18-.17.59-.52.63.04.36-.11.54-.21.78.09.01.26-.05.21.1.17-.16.29-.16.46,0-.02-.2.32-.05.46-.1.07.24.56.08.62.34.69-.21,1.5.18,2.17-.05.61-.2.43-1.29.31-1.79-.4-.38-.98-.38-1.49-.58-.11.24-.44.12-.57,0-.54.17-.91.5-1.45.68h0ZM136.37,112.92c.97.55,2.58.74,2.43,2.18.01.1.1.13.15.19-.06.96-.4,1.66-.98,2.13-.99-.2-2.13.15-2.53,0-.04.14-.43.14-.47,0-.07.2-1.15,0-1.24.48-.12-.02-.03-.23-.21-.19-.2.29.05.41-.16.68-.06.15.08.12.1.19.16,1.29.66,2.26,1.76,2.67-.04.17.21.06.15.24.33.03.55,0,.78.19.16.06.04-.16.2-.1,1.09.31,1.79-.83,2.9-.68-.02.19.12.25.1.44-.11.07-.3.09-.46.19-.18.12-.55.29-.78.49-.13.11-.67.53-.83.34-.11,0-.02.18-.05.24-.53.16-1.11.23-1.65.24.02-.19-.37-.19-.41-.05-.29-.29-.99-.2-1.18-.58-.32.22-.36-.45-.83-.39-.06-.43-.32-.67-.46-1.02-.12-.84.07-1.97-.15-2.71.12-.99.19-1.94.46-2.76.05-.15.12-.46.21-.63.06-.13.32-.24.41-.39.07-.11.03-.26.05-.29.04-.04.18-.01.21-.04.07-.09.35-.38.46-.44.05-.03.04.1.05.1.08-.02.9-.46.93-.58.16.25.89-.04,1.03-.15h0Z"/>
    <path class="cls-5" d="M76.49,118.79c0-.46-.05-.85-.26-1.11.2.35,0,.9.26,1.11h0ZM70.76,115.78c0-.06.01-.13-.05-.14,0,.06-.02.12-.1.1-.01.27.22.38,0,.58.12.07-.16.91.1,1.12-.1.53.02,1.01-.1,1.45.34.14-.07.85.26,1.12-.19.13-.12.5-.16.77.22-.11.22.39.05.34.32.32.08,1.06.1,1.55.31-.04.11.37.05.44.28.1.67.1.88-.1.49.04.77-.11,1.03-.29.69-.09,1.25-.6,1.71-.82.74-.37.66-.81.83-1.69.11-.57.47-1.29.31-2.14,0-.06-.09-.04-.1-.1-.03-1.92-1.73-2.52-3.72-2.32-.14-.02-.18-.12-.31-.15-.09.2-.5.16-.78.29h0ZM70.61,112.92s.04-.07.05-.04c.18.42-.21,1.13.1,1.84.8-.05,1.39.06,2.06-.24.02-.21.24-.23.42-.29.74-.72,1.56-1.38,1.91-2.47-.32-.87-1.32-1.12-2.17-1.5-.5.1-1.72-.18-2.48,0,.1.72.07,1.87.1,2.71h0ZM75.87,112.1c-.35,1.06-1.2,1.65-1.76,2.52-.12,0-.15.08-.31.04.04.14-.07.13-.05.25,1.52.65,2.88,1.46,3.3,3.15-.04.13.11.1.15.15-.14.97-.42,1.56-.52,2.52-.35.22-.58.55-.72.97-.24.13-.41.33-.47.63-.24.05-.3.26-.36.48-.7.46-1.3,1.01-2.12,1.36-.08-.03-.27.06-.26-.05-.11.01-.14.1-.21.14-.61,0-1.34-.27-1.81-.09-.4-.34-1.32-.18-1.55-.68.02-.38.55-.32.82-.34.06-1.21-.08-2.67-.31-3.77.02-.78,0-2.61,0-3.39.09-.25.26-.71,0-.87.33-1.06.14-2.74,0-3.97-.01-.09.1-.09.1-.1-.03-.52-.35-1.1-.25-1.65.15-.05.26-.15.31-.29.23.31.98-.06,1.13.24.05-.08.14-.12.31-.1.38.16.97.13,1.49.15.5.27,1.56.02,1.66.68.42.09.44.56.88.63.04.51.78.77.41,1.35-.16.12.15-.05.1.05h0Z"/>
    <path class="cls-5" d="M83.31,115.74c.04-.19-.27-.03-.31-.15.05.39-.42-.01-.41.34-.04-.12-.24-.1-.41-.1-.07.28-.25.29-.52.29.02.24-.25.22-.36.34,0,.25.11.54-.16.63-.03-.1-.1-.17-.21-.19-.88,1.07-.93,2.64-1.34,4.17.3.28.51.64.72.83.4.34,1.24.5,1.8.58.07,0,.05-.09.11-.1.32.19.96.11,1.34.1,1.04-.87,2.4-1.43,2.74-2.95.3-.33.46-.8.41-1.46-.14-.66-.47-1.14-.82-1.6-.7-.13-1.01-.94-1.96-.83-.03-.06-.06-.11-.1-.15,0,.24-.46.06-.52.25h0ZM87.28,118.45c.16.12.14.68-.15.92.01.06.22.09,0,.09,0,.06.09.04.15.05-.05.39-.24.64-.46.87,0,.06.1.05.1,0,.14.02,0,.15-.1.1-.02.39-.21.61-.52.73-.17.46-.52.99-1.03.97v.29c-.09-.01-.26.05-.21-.1-.15.04.07.12,0,.24-.25.01-.44.16-.67.05.04.04.12.05.11.14-.23.09-.4-.08-.47.15-.11.02-.1-.07-.1-.15-.7.73-2.29.29-3.3.15.02-.11-.1-.1-.05-.24-.83-.08-.85-.91-1.45-1.21-.45-1.08-.17-2.25,0-3.44.33-.22.39-.69.52-1.11.44-.44.85-.92,1.19-1.46.39,0,.46-.3.93-.24.62-.25,1.3-.71,2.32-.53.43.08.66.34.98.53.32.19.61.18.77.48-.05-.13.39.12.47.19.33.32.5.94.93,1.11-.1.58.21.77.21,1.26-.11-.01-.16.04-.15.15h0Z"/>
    <path class="cls-5" d="M109.79,118.31c.02.07.06-.02.16,0,.03,1.66.19,2.92.57,4.26,0,.06.09.04.16.04-.01.15-.17.17-.16.34-.36-.04-.48.13-.57.34-.09.02-.1-.04-.1-.09-.05.16-.13.3-.26.39-1.17-.13-.59-2.07-.78-2.67.25-1.34-.04-2.77-.15-4.41,0-.06-.09-.04-.16-.05.04-.58-.31-.9-.21-1.4-.23-.08-.19-.4-.21-.68.2-.04.31-.26.52-.15-.14-.24-.19-.66-.1-.97.24.03.32-.08.57-.04.61,1.31.76,3.06.88,4.84h-.16c-.03.09.15.2,0,.25h0Z"/>
    <path class="cls-5" d="M133.84,84.32c-.19.02-.21-.05-.34,0-.1-.2-.41-.19-.51-.38-.53-.13-.88-.44-1.49-.49-.13-.04-.1.06-.17.09-1.22-.08-1.73.49-2.7.63-.19.18-.38.35-.71.41-.15.29-.48.4-.79.53-.08.4-.76.59-1,.93-.08.11-.14.33-.29.48-.07.07-.27.11-.34.2-.13.17-.18.41-.24.64-.2.21-.41.44-.54.8-.04.11-.21.17-.25.25-.05.1,0,.25-.04.36-.04.1-.19.11-.25.2-.05.08,0,.2-.04.32-.14.45-.49.86-.61,1.32-.06.21,0,.47-.07.68-.05.14-.18.22-.21.36-.07.3.05.69-.28.88-.16.57-.27,1.19-.52,1.67-.12.74-.2,1.52-.38,2.19.08.41-.07,1.35-.13,1.99-.1,1.04.15,2.72.25,4.04.5.64.94,1.35,1.97,1.48.26.4.98.33,1.57.49.14.03.06-.13.17-.12.22-.06.21.1.34.12.15,0-.09-.13.04-.12.14-.04.06.13.13.16.06-.01.03-.1.04-.16.23.19.52.11.81.03,0-.06,0-.11,0-.16.09-.02.08.06.09.12.25-.21.7.01.97-.29.08.05.22.03.26.12.11-.02.12-.13.16-.2.28.1.83-.17,1.01-.41.03.08.27-.03.34-.17.08.02.25-.06.21.08.04-.07.15-.07.12-.2.19,0,.4.03.33-.2.27.1.7-.19.84-.45.15.13.14-.06.38-.05-.38.68-1.22.95-1.66,1.58-.3.04-.42.24-.8.21-.74.48-1.96.52-2.78.92-.66-.05-1.46.27-2.2.08-.13-.03-.05.14-.21.08-.86-.07-1.31-.39-2.21-.48-.18-.24-.39-.43-.69-.55-.02-.09-.07-.15-.05-.28-.4-.36-.49-1.03-.7-1.58-.04-.71,0-1.51-.16-2.09-.13-1.41.02-2.84.18-4.21.1-.88.07-1.8.25-2.62.06-.28.29-.58.37-.88.12-.47.08-.98.36-1.32.3-1.66,1.25-2.74,1.83-4.15.26-.06.29-.34.37-.56.49-.33.66-.94,1.21-1.21.12-.4.59-.48.75-.85.18.03.13-.15.3-.12-.06-.16.14-.08.08-.24.66-.26,1.14-.68,1.67-1.06.1-.02.06.08.13.08.03-.09.18-.07.17-.2.14-.05.04.12.17.08.29-.17.66-.15,1.01-.3.3-.12.62-.52.8-.37.61-.37,1.79-.09,2.33.12.18.32.66.35.94.58.08.33.33.48.52.71-.08.12-.1.3-.07.52h0Z"/>
    <path class="cls-5" d="M71.46,95.52c-.03-.26.13-.25-.04-.39.01.11-.03.48.04.39h0ZM86.43,90.16c.07-.29-.06-.4-.18-.59.04.22,0,.51.18.59h0ZM84.89,87.29c.11.01.11-.08.12-.16,0-.07-.12-.02-.12-.08-.03-.42-.3-.6-.36-.99-.13.03-.16-.04-.26-.04.16.46.47.78.62,1.26h0ZM83.38,85.6c-.15-.07-.33-.12-.51-.15,0-.02,0-.05-.04-.04.06.2.37.36.55.19h0ZM82.39,84.75c.05,0,.11,0,.17,0,0-.04,0-.08,0-.12h-.13c0,.06-.02.09-.04.12h0ZM78.45,81.91c.08.24-.08.44-.11.68.15-.15.36-.46.24-.72,0,.05-.07.04-.13.04h0ZM84.7,94.99c.05-.13-.14-.02-.09-.16.09-.32.16-.65.19-1.03.37-.54.1-1.39,0-2.06.05-.12.17-.43-.01-.52.19-.41.13-1.06-.15-1.34.01-.08-.04-.2.08-.16,0-.04-.08-.03-.13-.04-.26-1.01-.55-2.17-1.53-2.35-.2-.28-.48-.48-.85-.59-.26-.31-.71-.44-1.07-.66-.45.06-.86-.09-1.1.14-.35-.04-.47.26-.71.41-.24.15-.54.18-.8.29-.69.29-1.23.85-1.84,1.22-.09.46-.57.19-.88.09-.35-.43-.16-.96-.03-1.51.13.03.08-.11.21-.08,0-.08,0-.16,0-.24.32-.05.35-.36.67-.41.53-.51,1.29-.8,1.84-1.3.81-.17,1.55-.45,2.66-.48,0,.04,0,.08,0,.12.12-.05.12-.21.29-.2.11.01.12.12.17.2.29-.19.8.02,1.31.06.12.47.86.24.9.7.14.05.04-.13.17-.08.07.31.56.2.56.58.12.07.18.2.39.19.01.17.09.27.26.27.62.91.91,2.13,1.58,2.99.06.35.15.66.32.91.06.15-.12.08-.08.2.01.05.09.04.09,0,.1.63.42,1.04.49,1.7.36.82.02,2.04.14,2.82-.12.36-.11.83-.19,1.23-.28.26-.15.65-.19,1-.06.46-.41.91-.36,1.4-.03.02-.07.04-.12.04,0,.09,0,.18,0,.28-.36.65-.38,1.6-.68,2.31-.38.35-.58.85-.82,1.32-.12-.03-.11.06-.21.04-.13.56-.72.7-.91,1.21-.25.1-.34.35-.63.41,0,.07,0,.13,0,.2-.33.13-.46.53-.84.49-.05,0-.03.07-.04.12-.4.09-.63.33-.96.49-.07.02-.08-.02-.08-.08-.05.14-.22.17-.21.36-.29-.07-.55.09-.67.29-.22,0-.48.25-.8.13-.05.01-.04.08-.04.12-.11-.1-.31.05-.55.04.03-.03.04-.09.04-.16-.05,0-.03.07-.04.12-.52,0-.8.05-1.35.26-.09-.13-.5.06-.55-.07-.15.21-.66.04-1.01.14v-.12c-.05,0-.04.07-.04.12-.08.02-.18-.12-.21,0-.55-.26-1.38-.33-1.96-.64-.08-.04-.11-.28-.3-.15-.15-.27-.53-.32-.69-.59-.04,0-.03.05-.04.08-.04-.12-.18-.06-.26-.11-.2-.14-.47-.43-.65-.63-.11-.12-.32-.15-.47-.27-.05-.04-.03-.18-.09-.24-.08-.08-.25-.04-.34-.15-.04-.06-.03-.13-.09-.2-.22-.26-.35-.3-.43-.55-.04-.12-.18-.17-.13-.36-.06-.09-.1-.06-.21-.03.02-.06.13-.03.08-.16-.37-1.01-.84-1.96-1.03-3.24-.24-.18-.05-.68-.27-.79.05-.05.12-.07.08-.2-.03-.06-.11-.08-.21-.08.31-.78-.41-1.87-.1-2.65.05-.13-.06-.1-.08-.16.17-.35.02-1,.06-1.47.04,0,.08,0,.13,0,.01-.87.42-1.59.38-2.39h.13c-.08-.02-.16-.2.04-.16-.08-.54.33-.64.28-1.16.24-.03.09-.41.37-.4-.01-.04-.09-.02-.09-.07.15-.09-.01-.45.25-.45.2-.64.24-1.41.77-1.76,0-.06,0-.13,0-.19.2.1.1-.1.17-.17.02-.01.12.02.12,0,.04-.06.25-.57.25-.56.02-.06-.08-.1-.09-.08.16-.41.56-.6.7-1.08.1.01.09-.07.21-.04,0-.07,0-.13,0-.2.37-.19.4-.7.83-.84.21-.62.87-.83,1.12-1.41.06,0,.11,0,.17,0,.06-.29.25-.45.58-.49.13-.09.15-.28.42-.25.12-.23.47-.2.62-.48.33-.07.64-.15.84-.34.36.08.68-.27,1.06-.02.54-.28,1.09.91.53,1.23-.06.15.12.07.09.19-.15,0-.12.18-.16.28-.42.18-.53.54-.88.65-.05.02-.03-.08-.04-.08-.29.01-.63.29-.88.49-.29-.11-.36.18-.5.28-.16.11-.47.12-.46.4-.33.12-.55.33-.67.65-.15-.02-.2.05-.3.08,0,.1,0,.21,0,.32-.04,0-.08,0-.13,0-.14.44-.46.72-.52,1.24-.07.01-.07-.03-.13-.03.03.12-.02.18-.04.28-.22.09-.34.28-.37.56-.35.41-.49,1.02-.77,1.48,0,.15.02.34-.12.36-.05.55-.17,1.09-.44,1.47,0,.58-.17,1.01-.35,1.44.08.68-.16,1.97-.04,2.62-.29.75.21,1.62.09,2.34.23.23.18.74.4.99.27,1.22.97,2.02,1.37,3.11.32.37.43.93.95,1.1.49.68,1.26,1.09,2.02,1.51.49.04.8-.11.93-.01.09.02.06-.08.12-.08,1.07.02,1.49-.55,2.36-.72.58-.39,1.1-.84,1.71-1.22.44-.63,1.11-1.05,1.28-1.93.58-.37.59-1.26.9-1.88-.04-.22.06-.31.03-.52.07.01.07-.04.13-.04.16-.62.09-1.49.08-2.14.01-.04-.01-.04-.04-.04.19,0-.11-.62.16-.64h0Z"/>
    <path class="cls-5" d="M95.33,81.92c-.33-.04-.52-.47-.89-.23,0-.05-.01-.09-.08-.08-.11.2-.54.05-.55-.1-.06.12-.2.17-.25,0-.05.09-.29,0-.3.12,0-.06,0-.14-.09-.12-.16.1-.33.39-.55.21.05.3-.18.32-.2.64.27.11.42.35.89.26.52.21.73.72,1.07,1.1-.03.01-.08,0-.08.04.11,0,.2.02.26.08,0,.07-.12.02-.12.08.16.1.16.11.17.36.2.01.31.27.22.43.24-.02.06.12.05.2.22.13.27.44.31.83.06,0,.09-.02.12-.04.25.97.24,2.26-.19,3.18.04.37-.09.57-.07.92-.24-.06-.01.3-.21.28-.01.08.06.08.09.12-.54.65-.14,1.86-.59,2.47.03,0,.08,0,.09.03-.1.19-.21.53-.12.68-.2.39-.24,1-.27,1.43-.05,0-.08,0-.13,0-.13.76-.41,1.49-.59,2.35-.06.31-.01.63-.07.96-.02.16-.16.33-.2.52-.26,1.26-.32,2.69-.9,3.75,0,.06.07.04.09.08-.21.06,0,.49-.24.52.2.01.05.3,0,.36-.15.48-.04.99-.36,1.28.16.13-.05.2.09.28-.54.66-.56,1.78-1.27,2.28-.1.04-.23.05-.25.16-.13-.14-.25.07-.34.09-.01-.04,0-.11-.05-.12-.36.12-.6-.22-.98-.22-.04.49.18.61.39.83.23.24.19.36.47.35.32.69,2.18.76,1.98-.31.16-.19.28-.42.24-.8.55-1.06.67-2.27.91-3.59.36-.38.13-1.09.48-1.44.02-.49-.05-.83.15-1.11-.05-.22.05-.29.12-.4-.02-.62.48-1.44.31-1.83-.08-.17.18-.39.2-.48.11-.42.07-.87.14-1.23.01.03,0,.08.05.08-.07-.62.47-1.07.31-1.51.15-.43.21-.93.4-1.31.06-.13-.14-.03-.08-.16.31-.17.26-.81.23-1.07.04,0,.09,0,.13,0-.02-.46.21-.69.15-1.19.29-.25,0-.77.24-.92-.15-.05.09-.39.12-.56.05-.32.03-.65.11-.96.1-.41.16-.6.15-.95.18,0,.1-.02.04-.08.16.05.08-.11.21-.08-.05.13.14.03.09.16.18-.18.35.1.47.23-.18,0-.04.3-.08.44.34,1.39,1.08,2.64,1.35,4.22,0,.06.07.04.09.08.05.51.07.84.32,1.19-.01.19.03.32.14.39-.01.45.24.65.23,1.11.37,1,.76,2.14.9,3.24.17.04.1.31.26.35.16,1.49,1.05,2.61,1.22,4.23.17.35.17.85.36,1.18-.08.52.35.97.07,1.31.12.02.16.09.04.16.25.15.76.13,1.1.06.23-.71.77-1.14.81-2.04.47-.6.57-1.53,1.02-2.16.16-.92.58-1.61.67-2.59.35-.32.34-.97.7-1.28.22-.95.9-1.71.88-2.75.05,0,.06.05.13.04.06-.18-.02-.49.2-.52-.16-.31.35-.47.12-.72.01-.01.12.01.13,0,.24-.5.15-1.14.39-1.63.01.03,0,.08.04.08-.06-.72.4-.96.35-1.67.44-.52.44-1.45.55-2.27.22-.3-.03-.8.36-1.04.05.19,0-.01.08,0,.55.09.34,1.12.24,1.55.07-.01.1.04,0,.04.2.11.02.46,0,.6,0,.04.09.11.09.15-.01.79-.26,1.71-.09,1.99-.16.07-.02.43-.2.48.25.9,0,1.86.26,2.5-.18-.01.13.14-.08.2.29.49.1.89.23,1.27,0,.04-.07.04-.13.04.05.37,0,.68.06,1.15.07.02.11-.06.13,0-.21.08-.06.11-.04.24.03.2-.04.07,0,.24.05.18-.08.29-.08.44.02.23.2.79.18.55-.06.77.24,1.59.3,2.41,0-.04.01-.09.08-.08-.06.32-.02.49.14.75.02.09-.19-.02-.13.12.05,0,.12-.01.13.03.02.77.14,1.37.37,1.86-.04-.02-.16-.09-.13.04.41.35.26,1.26.54,1.62,0,.06-.11.03-.08.12.15.11.22.3.26.51.36,0,.59-.11.84-.21.16.08,1.14-.25,1.22-.46,0,.01-.13-.22,0-.24-.39-1.17-.75-2.47-.75-3.8,0,.03,0,.08-.04.08.03-.67.07-1.13-.12-1.7.04-.24.05-.88-.07-1.55-.02-.08-.12-.11-.13-.2-.04-.34,0-.68-.1-.87-.08-.15-.05-.45-.01-.59.02-.07-.07-.53-.1-.91-.03-.29-.02-.42-.14-.51.06-.01.16.01.17-.04-.04-.04-.16-.01-.13-.12.08-.54-.15-1.39-.07-1.75.03-.13-.17-.04-.13-.19.08-.47-.32-1.02-.02-1.43,0-.06-.07-.03-.09-.08.08-.03.12-.28-.05-.4.03-.07.1-.11.12-.2-.22-.09.14-.37-.1-.59.2-.73-.03-1.86-.04-2.22.19-.22.02-.77.06-1.12,0-.05-.07-.03-.09-.08-.01-1.51-.28-2.93.27-4.09-.02-.47-.44-.57-.44-1.06-.39-.11-.85.06-1.06-.06-.25.24-.19,1.15-.57,1,.02.16.12.39-.08.24-.05.16.1.12.09.24-.12.12-.2.28-.2.52-.31-.03-.11.31-.2.4-.11.12-.11-.07,0,.08-.09.18-.24.18-.12.36-.07,0-.13,0-.17-.03.05.12-.07.1-.08.16.07,0,.15,0,.13.08,0,.2-.26-.08-.25.13-.03.18.14-.03.13.07-.05.01-.04.07-.04.12-.24-.08-.3.38-.12.52-.18-.02-.15.16-.29.16.12.39-.48.62-.24,1.12-.06,0-.11,0-.17,0,.11.38-.15.67-.32.92-.05.13.14.03.09.16-.18.04-.31.23-.16.36-.4.11-.35.78-.4,1.08,0-.05-.01-.09-.09-.08.04.41-.21.6-.02.76-.23-.08-.03.24-.25.16.01.19.02.46-.07.67-.06,0-.08-.06-.17-.04-.06.15.12.08.09.2-.19.21-.28.51-.32.76,0,0,.1,0,.08.04-.07.24-.32.53-.23.84-.25-.02-.07.18-.04.24-.4.23-.09.74-.4,1,.07,0,.15,0,.13.08-.07.04-.12.1-.21.12-.06.61-.22.9-.32,1.32.14.08.13-.16.17-.04,0,.14-.1.2-.17.08.09.29-.17.55.01.67-.04,0-.08,0-.13,0,.12.27-.13.28.01.48-.29,0-.26.24-.16.4-.08.01-.08-.05-.13-.08.15.25-.12.32.01.48-.12.01-.1.15-.21.16.14-.04.07.12.09.2-.26.14-.37.79-.28,1-.13-.03-.05.13-.21.08-.16.95-.65,1.88-.92,2.71,0,.05.08.03.09.08-.15.04-.11.24-.12.4-.14.13-.4.16-.59.25.02-.15-.2-.04-.21-.16-.24-.64-.13-1.62-.59-2.05-.04-1.23-.68-1.9-.9-2.96-.27-.11-.08-.65-.35-.75-.09-.57-.25-.9-.41-1.3-.14-.35-.23-.71-.36-1.06-.06-.17-.17-.56-.27-.79-.18-.41-.53-.93-.53-1.18,0-.02.1,0,.08-.04-.04-.15-.19-.46-.22-.51-.06-.1-.02-.28-.05-.36-.01-.02-.11-.04-.13-.08-.05-.09-.13-.41-.13-.39-.12-.44-.24-.83-.36-1.3-.27-.99-.6-1.98-1.03-2.88.08-.4-.14-.85-.4-1.06.14-.17-.21-.48-.14-.84-.05,0-.12.01-.13-.04h.08c-.29-1.33-1.3-1.97-1.54-3.35-.06-.1-.13.07-.17-.04.05,0,.1-.01.08-.08h0ZM109.04,96.11c-.16-.98-.38-2.26-.23-3.18-.16-.34.1-.5.02-1.03-.57,1.67-.84,3.57-1.68,5.42.17.16-.06.22-.16.44-.09.19-.02.51-.25.48-.26,1.01-.88,1.68-1.01,2.8-.18.61-.42,1.05-.52,1.83-.16-.03-.03.21-.21.16-.19.97-.81,1.73-.97,2.6-.03.02-.06.04-.12.04-.06.67-.54.97-.69,1.56-.25.05-.47-.08-.72-.11-.07,0-.15.09-.21.08-.16-.03-.39-.21-.51-.11-.12-.13-.34-.07-.51-.23,0-.32-.13-.52-.27-.71-.04-.44.02-.72-.15-1.03-.1-1.34-.6-2.27-.83-3.48-.19-.23-.27-.57-.52-.75.07-.04.11-.11.08-.24.02-.09-.08-.06-.09-.12,0-.64-.38-.92-.37-1.58-.25-.53-.27-1.27-.66-1.66.01-.08.19-.22-.05-.2-.12-1.22-.71-2.36-1-3.68h.08c-.24-.31-.13-.95-.45-1.19-.01-.78-.42-1.18-.54-1.86-.29.15-.04.8-.32.96.12.39-.13.87-.19,1.19-.11.56-.06,1.32-.39,1.6-.05.13.13.02.09.16-.28.87-.26,2-.75,2.67.01.04.09.02.09.08-.35.75-.32,1.7-.59,2.43-.17.45-.13.96-.27,1.43-.03.1-.19.33-.24.52-.05.13.14.03.09.16-.2-.05.02.4-.17.24.2.69-.3.99-.22,1.59-.09.02-.08-.06-.09-.12-.03.27-.14.47-.11.8-.16-.18,0,.11-.04.28-.06.05-.11.05-.17,0,0,.12,0,.24.13.24-.07.07-.13.15-.2.2.05,0,.07-.01.08-.04.08.68-.36,1.42-.51,2.11-.12.05-.07-.09-.08-.15-.07.21.05.49-.07.71-.19-.09-.05.08-.21.08.16.11-.05.11.09.24-.06.11-.1.06-.21.16.04.11.1-.05.21,0-.12.26-.17.6-.36.8-.13.03-.12-.07-.25-.03.02.08.19,0,.13.16-.16-.16-.47.12-.59.25-.06-.06-.4-.07-.38.17-.03-.2-.46,0-.47-.23-.22.03-.31-.05-.51-.03-.34-.48-1.12-.53-1.33-1.13-.31.08-.32-.29-.52-.43.09-.11,0-.6.28-.75.49.01.84.15,1.27.21.18-.02.13-.25.34-.24.36-.77.72-1.64.97-2.56.11-.38.3-.79.36-1.19.06-.44-.02-.87.27-1.24-.03-.73.42-1.31.51-1.99.04-.28-.03-.56.03-.83.08-.4.37-.77.23-1.23.04,0,.09,0,.13,0,.09-1.33.64-2.53.82-3.9.22-.56.2-1.33.47-1.84-.13-.1.08-.43.11-.68.09-.63.07-1.42.39-1.84.02-.09-.08-.05-.09-.12-.02-.08.06-.07.13-.08.03-1.06.77-2.51.19-3.54-.01-.04-.09-.04-.08,0-.19-.22-.1-.83-.44-.99-.02-.07.03-.08.08-.08-.26-.48-.36-1.11-.79-1.42-.14-.04-.03.13-.17.08.01-.19-.31-.08-.55-.11-.11-.22-.41-.26-.6-.39,0-.31-.32-.37-.34-.63-.03-.32.3-.51.32-.88.13-.04.16.03.22.08.76-.35,1.8-.36,2.66-.16.34.45.93.58,1.2,1.13.14.29.15.64.32.99.08.03.12.1.21.12.02.07-.03.07-.08.08.28.21.3.67.65.82.56,1.83,1.28,3.5,1.79,5.37-.01.09.12.04.13.11.01.07-.03.08-.09.09.12.16.22.45.26.67.01.04-.09.03-.08.08.11.38.37.83.53,1.26.18.48.29,1.05.49,1.62.08.22.29.41.27.79.14.06.15.26.26.35.04.43.2.84.36,1.22.04.1.17.17.22.27.14.35.12.74.23,1.11.06.21.26.42.35.63,0,.09,0,.19,0,.28.38.87.7,1.8,1.02,2.72-.12.22.2.58.22.91.42-.29.34-1.03.65-1.4.03-.63.45-1.23.65-1.83.14-.75.38-1.48.55-2.24.12-.54.25-1.09.39-1.63.09-.32.29-.63.36-.96.08-.34-.07-.74.24-.92-.06-.46.25-.58.19-1.04.26-.55.57-1.22.73-1.91.1-.43.17-.86.32-1.28.12-.34.41-.63.4-1,.67-1.44,1.14-3.07,1.87-4.47.04-.46.19-.82.49-1.04.56.03,1.29-.07,1.82.29-.03.15.06.19.05.31.29.17.34.59.56.83.05.3,0,.68-.07.87-.43,1.32.05,2.62-.1,3.57.32,1.92-.08,4.48.37,6.19-.09.38.05,1.17.16,1.62.02.09-.08.06-.08.12.24,1.16.18,2.09.44,3.33-.12.21.02.61.14.83-.08.08-.15.34.01.39-.05.95.26,2.25.19,3.49.01.08.09.1.13.16.09,1.02.51,1.7.56,2.77-.08.02-.26-.05-.21.08-.39-.09-1.05.17-1.44.35-.15.06-.02-.13-.12-.12-.3.25-.76.13-1.01.37-.13-.01-.17-.1-.26-.16-.11-.01-.03.16-.17.12-.35-.36-.55-.86-.54-1.58-.19-.05-.09-.3-.14-.56-.03-.17-.19-.31-.22-.43,0-.04.09-.04.09-.08-.02-.38-.31-.83-.4-1.3-.07-.35.06-.7-.15-1.03.13-.76-.5-1.89-.26-2.93-.16-.35-.29-.88-.15-1.27-.26-.56-.04-1.29-.21-2.07-.04,0-.04.02-.05.04-.05.02-.02-.2.08-.16h0Z"/>
    <path class="cls-5" d="M95.25,82c.04.11.11-.06.17.04.24,1.38,1.25,2.02,1.54,3.35h-.08s.08.03.13.04c-.07.36.28.67.14.84.26.21.48.66.4,1.06.43.9.76,1.89,1.02,2.88.13.47.24.86.36,1.3,0-.01.08.31.13.39.02.03.12.06.13.08.03.07-.01.26.05.35.03.05.19.37.22.52.01.04-.08.02-.08.04,0,.25.35.77.53,1.18.1.23.21.63.27.79.13.36.22.72.36,1.07.16.4.32.74.41,1.3.27.1.08.65.35.75.22,1.06.86,1.72.9,2.96.45.43.34,1.41.59,2.05.01.11.24.01.21.16.19-.08.45-.11.59-.24,0-.16-.03-.36.12-.4-.01-.04-.08-.02-.09-.08.28-.83.76-1.76.92-2.72.16.06.08-.11.21-.08-.09-.21.02-.86.28-1-.02-.08.05-.24-.09-.2.11-.02.09-.15.21-.16-.13-.16.14-.22-.01-.48.04.03.04.09.13.08-.1-.16-.13-.4.16-.4-.14-.2.11-.2-.01-.48h.13c-.18-.12.07-.39-.01-.68.06.12.17.06.17-.08-.04-.12-.03.12-.17.04.1-.41.26-.71.32-1.32.09-.02.14-.08.21-.12.02-.08-.06-.08-.13-.08.31-.26,0-.77.4-1-.03-.07-.21-.26.04-.24-.08-.31.16-.59.23-.84.01-.04-.08-.03-.08-.04.05-.25.14-.55.32-.76.03-.12-.14-.04-.09-.2.09-.02.12.03.17.04.09-.21.09-.49.07-.68.23.08.02-.24.25-.16-.19-.16.07-.35.03-.76.07-.01.08.03.09.08.05-.3,0-.97.4-1.08-.15-.13-.02-.31.17-.36.05-.13-.14-.03-.09-.16.17-.24.43-.54.32-.92.06,0,.11,0,.17,0-.24-.5.35-.73.23-1.12.15,0,.12-.18.29-.16-.18-.14-.12-.59.12-.52,0-.05-.01-.11.04-.12.01-.1-.16.11-.13-.08,0-.2.25.07.25-.12.02-.08-.06-.07-.13-.08.02-.06.13-.03.08-.16.04.03.1.04.17.03-.12-.18.03-.18.12-.36-.12-.14-.12.05,0-.08.1-.1-.1-.44.2-.4,0-.23.08-.39.2-.52,0-.11-.14-.07-.09-.24.2.15.11-.08.08-.24.39.14.32-.76.57-1,.21.12.67-.04,1.06.06,0,.5.42.59.44,1.06-.55,1.16-.28,2.58-.27,4.09.01.04.09.03.09.08-.05.35.12.9-.06,1.12.01.36.24,1.49.04,2.22.24.22-.12.5.1.59-.02.09-.09.13-.12.2.17.12.13.36.05.4.01.04.09.02.09.08-.29.4.1.95.02,1.43-.04.15.16.06.13.2-.07.36.15,1.2.07,1.75-.03.11.09.08.13.12-.01.05-.11.03-.17.04.12.09.11.22.14.51.04.38.12.84.1.91-.04.14-.07.45.01.59.1.19.06.53.1.87.01.08.12.12.13.2.12.66.1,1.31.07,1.55.19.58.15,1.03.12,1.7.04,0,.03-.05.04-.08,0,1.33.36,2.63.75,3.8-.13.02,0,.25,0,.24-.07.21-1.05.54-1.22.45-.25.1-.48.22-.84.21-.04-.21-.11-.4-.26-.51-.02-.09.08-.06.08-.12-.28-.36-.13-1.27-.54-1.62-.03-.13.08-.07.12-.04-.23-.49-.35-1.09-.37-1.86,0-.04-.08-.03-.13-.03-.07-.14.14-.03.13-.13-.16-.26-.2-.43-.14-.75-.07-.01-.08.03-.08.08-.06-.82-.35-1.64-.3-2.41.02.24-.16-.32-.18-.55,0-.15.13-.26.08-.44-.04-.16.03-.04,0-.24-.02-.13-.17-.16.04-.24-.02-.06-.05.02-.13,0-.06-.47-.01-.77-.06-1.15.06,0,.12,0,.13-.04-.13-.38.06-.78-.23-1.27.21-.06-.1-.21.08-.2-.25-.64-.01-1.61-.26-2.5.18-.05.04-.4.2-.48-.17-.28.08-1.2.09-1.99,0-.04-.09-.1-.09-.16.01-.13.2-.48,0-.59.1,0,.07-.05,0-.04.1-.43.31-1.45-.24-1.55-.08-.01-.03.19-.08,0-.4.24-.14.74-.36,1.04-.11.83-.11,1.75-.55,2.27.05.71-.41.96-.35,1.67-.04,0-.03-.05-.04-.08-.24.49-.15,1.13-.39,1.63,0,.02-.11,0-.13,0,.23.25-.27.4-.12.72-.22.03-.14.34-.2.52-.07,0-.08-.04-.13-.04.02,1.04-.66,1.8-.88,2.75-.35.31-.35.96-.7,1.28-.1.97-.51,1.67-.67,2.59-.44.63-.55,1.56-1.02,2.16-.04.89-.58,1.33-.81,2.04-.34.07-.85.09-1.1-.06.11-.06.08-.13-.04-.16.28-.34-.15-.8-.07-1.31-.18-.33-.19-.84-.36-1.18-.16-1.62-1.05-2.74-1.22-4.23-.16-.04-.09-.31-.26-.35-.15-1.1-.53-2.24-.9-3.24,0-.46-.24-.66-.23-1.11-.11-.07-.15-.21-.14-.39-.25-.35-.27-.68-.32-1.19-.01-.04-.08-.02-.08-.08-.27-1.58-1-2.84-1.35-4.22.04-.13-.1-.43.08-.44-.11-.13-.28-.4-.47-.23.05-.13-.14-.03-.09-.16-.13-.03-.05.13-.21.08.06.06.14.08-.04.08,0,.36-.05.54-.15.95-.08.3-.06.64-.11.96-.03.16-.27.5-.12.56-.24.14.05.67-.24.92.06.5-.16.74-.15,1.19-.04,0-.09,0-.13,0,.04.26.08.91-.23,1.08-.05.13.14.03.08.16-.19.39-.25.89-.4,1.31.16.44-.38.9-.31,1.51-.04,0-.03-.05-.05-.08-.07.36-.04.82-.14,1.23-.02.09-.28.31-.21.48.18.39-.32,1.21-.3,1.83-.07.11-.18.18-.12.4-.2.27-.13.62-.15,1.11-.36.36-.12,1.06-.48,1.44-.24,1.32-.36,2.53-.91,3.59.04.38-.08.6-.24.8.2,1.07-1.66,1-1.98.31-.28.02-.25-.11-.47-.35-.21-.22-.44-.34-.39-.83.38,0,.62.34.98.22.05,0,.03.07.05.12.09-.02.2-.23.34-.09.02-.11.15-.12.25-.16.71-.5.73-1.62,1.27-2.28-.13-.07.08-.14-.09-.28.32-.29.21-.8.36-1.28.04-.06.19-.34,0-.36.24-.03.03-.47.24-.52-.01-.04-.09-.02-.09-.08.59-1.06.64-2.49.9-3.75.04-.18.18-.35.2-.52.06-.33,0-.65.07-.96.18-.86.47-1.59.59-2.35.05,0,.08,0,.13,0,.03-.44.06-1.04.27-1.43-.09-.15.01-.49.12-.68,0-.03-.06-.03-.09-.03.45-.61.05-1.83.59-2.47-.03-.04-.1-.04-.09-.12.19.02-.03-.34.21-.28-.02-.35.11-.55.07-.92.43-.91.45-2.21.19-3.18-.03.02-.07.04-.12.04-.04-.39-.1-.7-.31-.83.01-.08.2-.22-.05-.2.09-.16-.02-.41-.22-.43-.02-.24,0-.26-.17-.36,0-.06.12-.01.12-.08-.05-.06-.14-.07-.25-.08,0-.04.05-.03.08-.04-.34-.38-.56-.88-1.07-1.1-.48.09-.62-.15-.89-.26.02-.31.25-.34.2-.64.21.18.39-.1.55-.21.09-.02.08.06.09.12,0-.13.25-.04.3-.13.05.17.19.12.25,0,.02.15.44.31.55.1.07-.01.08.03.08.08.37-.24.56.19.89.23.02.06-.03.07-.08.08h0Z"/>
    <path class="cls-5" d="M133.04,96.8c-.15,0-.3-.02-.34.09.01-.35-.09.05-.26-.2-.03.09.2.12.05.2-.07-.15-.39-.08-.47,0-.03-.12.15-.06.08-.2-.11.18-.27,0-.3,0,0,0,0,.11-.04.12-.13.05-.47.09-.46,0-.09.48.14.99.28,1.39.22.07.32.25.68.19.04-.04.08-.08.13-.12,1.09-.04,1.96-.18,3.08-.32.1.14.24.25.3.43-.08.07-.02.26-.21.24-.12,1.41.13,2.36-.1,3.73.17.33-.23,1.19-.02,1.35-.13.21-.13.73.02.87-.08.1,0,.8.02,1.08-.29,1.06-.25,2.28-.15,3.45.11-.01.14-.08.13.08.27-.23.22-.67.41-1,.07-.12.18-.16.21-.28.12-.48-.02-1.09.06-1.67.03-.27.17-.5.2-.76.05-.41-.06-.86.1-1.23.05-.13-.06-.1-.08-.16.25-1.2-.13-2.68.14-3.73-.1-.32.15-1.14-.11-1.47.13-.08-.08-.14.08-.28-.21-.21.16-.82-.11-1.11.13-.12.06-.41.07-.64-.52.05-.77-.17-1.31-.1-.4-.3-.79.17-1.4-.01,0,.04.01.11-.04.12-.02-.19-.28-.03-.34,0-.1-.08-.24-.12-.34-.19-.07.11.19.07.04.12h0ZM133.91,83.8c-.19-.22-.45-.37-.52-.71-.29-.23-.76-.26-.94-.58-.54-.21-1.72-.49-2.33-.12-.18-.15-.5.24-.8.37-.35.15-.72.13-1.01.3-.14.05-.04-.13-.17-.08.01.13-.13.11-.17.2-.07,0-.03-.1-.13-.08-.53.37-1.02.8-1.67,1.06.06.16-.14.08-.08.24-.17-.02-.12.16-.3.12-.16.36-.63.44-.75.84-.55.27-.72.88-1.2,1.21-.08.23-.11.5-.37.56-.58,1.41-1.53,2.49-1.83,4.15-.27.34-.23.85-.36,1.32-.08.3-.31.6-.37.88-.18.82-.15,1.74-.25,2.62-.16,1.37-.31,2.8-.18,4.21.17.58.12,1.39.17,2.09.21.55.3,1.22.7,1.58-.02.13.03.18.05.28.3.12.51.31.69.55.89.09,1.35.41,2.21.48.16.06.08-.11.21-.08.73.2,1.54-.13,2.2-.08.82-.4,2.04-.44,2.78-.92.38.03.5-.17.8-.21.45-.62,1.28-.9,1.66-1.58-.24-.01-.23.18-.38.05-.14.26-.57.55-.84.45.07.23-.15.21-.34.2.03.13-.08.13-.12.2.04-.14-.13-.06-.21-.08-.06.14-.31.24-.33.17-.18.25-.73.52-1.01.41-.04.08-.05.19-.16.2-.03-.09-.18-.07-.26-.12-.26.31-.72.08-.97.29,0-.06,0-.14-.09-.12,0,.06,0,.1,0,.16-.29.07-.57.15-.81-.03,0,.06.02.14-.03.16-.07-.03,0-.2-.13-.16-.13,0,.11.11-.04.12-.13-.02-.12-.18-.34-.12-.11,0-.03.16-.17.12-.59-.16-1.32-.09-1.57-.49-1.03-.13-1.48-.83-1.97-1.48-.1-1.33-.34-3-.24-4.04.06-.64.22-1.57.13-1.99.19-.67.26-1.45.38-2.19.25-.49.36-1.11.52-1.67.33-.19.21-.58.28-.88.03-.13.16-.22.21-.36.07-.21.01-.46.07-.68.12-.46.47-.87.61-1.32.04-.12,0-.24.04-.32.06-.1.21-.1.25-.2.04-.1-.01-.26.04-.36.03-.08.21-.14.25-.25.12-.36.34-.59.54-.8.06-.23.11-.47.24-.64.07-.09.26-.13.34-.2.15-.15.21-.37.29-.48.24-.33.91-.52,1-.93.32-.13.65-.24.79-.53.33-.06.52-.23.71-.41.97-.15,1.47-.72,2.7-.63.06-.02.03-.13.17-.09.61.05.96.36,1.49.49.1.2.42.19.52.38.13-.06.15.02.34,0-.02-.21,0-.39.07-.52h0ZM134.81,98.59c-.19-.16-.19.2-.38.17,0-.05,0-.1,0-.16-.1-.01.02.18-.13.12,0-.04,0-.08,0-.12-.33.03-.83.16-1.1.06-.04.25-.48-.04-.59.21-.05-.07-.14-.1-.26-.11.03.04.1.04.09.12-.09-.02-.08.06-.08.12-.03-.24-.37.04-.43-.19-.05,0-.03.07-.04.12-.14,0-.21-.06-.38-.03-.03-.2-.18-.28-.43-.27-.09-.08.04-.37-.17-.31-.17-.7-.38-1.52-.42-2.02.18-.45.51.02,1.05-.14-.03.04-.09.04-.08.12.11.02.15-.02.13-.12.07.05.27-.02.25.12.38-.03.71-.14,1.18-.02.7-.17,1.46-.18,2.33-.04.07-.01.21.04.17-.08.21.17.67.1,1.1.06.07.13.28.13.43.19.02.11-.05.29.13.24-.05.07.02.25-.12.24.16.07-.08.27.01.52-.06,0-.12,0-.13.04.02.13.24.1-.04.12.32.32-.17.83.15,1.15-.01.05-.09.04-.09,0,.04.48.1.97-.01,1.55.01.05.08.03.13.04-.27.22.08.66-.24.92.21.16.2.87.02.95.32.54-.02,1.4.12,1.82-.18.13.04.63-.2.72.21.1.14.44.01.55.05.05.12.07.08.2.03.1-.08.08-.12.12-.13.82-.08,1.72-.21,2.42-.04,0-.08,0-.13,0-.03.12.15.04.09.19-.07.01-.07-.03-.13-.03-.02.12.12.17-.08.16-.06.14.29.09.17.16-.1.12-.04.03-.13-.03-.07.2-.29.52-.07.63-.15-.02-.13.12-.25.12-.05.17.07.17.09.28-.22-.05-.25.08-.25.24-.16-.14-.16.04-.42,0-.21-.25-.61-.32-.81-.58-.07-1.05-.02-1.91.03-2.98.05-1.01-.09-1.99.03-2.97.12-1.04.26-2.06.15-3.1-.19.1-.18.38-.37.48.03.04.1.04.09.12-.25.08-.34.31-.41.56-.12-.03-.11.06-.21.04.02.2-.18.2-.16.4-.42.15-.49.62-.96.73,0,.04.08.03.13.03-.38.33-.57.84-1.17.97-.02.24-.36.19-.33.48-.04-.01-.03-.08-.09-.08-.09,0-.01.17-.04.24-.1-.26-.34.02-.29.24-.13.03-.16-.03-.21-.08-.21.32-.63.47-.92.61-.13.03-.06-.13-.21-.08-.36.25-.64.38-1.13.49-.07.01-.08.11-.13.12.02,0-.52-.07-.5.13-.44-.15-.79.26-1.43.22.02-.08-.03-.11-.05-.16-.11.01.06.07,0,.16-.16.04-.13-.08-.21-.11-.01.1-.16.09-.16.2-.43-.09-1.39.21-1.78-.09-.23-.02-.44.11-.55-.07-.1-.02-.06.08-.13.08-.07-.12-.34-.05-.34-.23-.14-.02-.21.01-.26.08-.94-.2-1.52-.76-2.18-1.24,0-.34-.35-.34-.31-.71-.54-.65-.44-1.68-.52-2.77-.01-.04-.08-.03-.09-.08-.17-2.07.02-4.67.39-6.56-.03-.86.08-1.35.43-1.87.13-1.76.97-2.87,1.49-4.27.18.05.05-.19.21-.16.12-.7.64-1.04.86-1.64.4-.27.45-.86.95-1.05-.03-.12.07-.12.04-.24.4-.13.64-.4.79-.77.44-.08.49-.52.92-.6.4-.43,1.06-.6,1.46-1.02.07-.01.08.03.08.08.03-.12.25-.07.25-.21.21.02.33-.04.51-.05.54-.33,1.18-.44,1.63-.77.21.04.98-.17,1.32.06.14.04.02-.13.16-.09.25.14.83.43.89-.01.59.15.97.48,1.16,1.01.28,0,.39.48.52.75.04-.03.04-.09.13-.08.07.16,0,.19.05.35.07.01.08-.03.08-.08.29.45.03.91-.06,1.43-.35.06-.36-.22-.72-.15.02-.08-.03-.1-.04-.16-.63.11-.78-.61-1.62-.49,0-.04,0-.08,0-.12-.05.06-.2.06-.25,0-.06.01-.01.12-.08.12-.18-.08-.58,0-.76.13.03-.14-.28.07-.46.13-.27.09-.62.12-.88.21-.31.1-.48.31-.84.37-.13.26-.5.3-.67.53-.07.02-.08-.03-.09-.08-.32.26-.51.65-.96.81-.14.33-.4.55-.66.76-.07.22-.23.36-.42.48-.03.21-.09.39-.29.44,0,.09,0,.18,0,.28h-.13c-.34.97-.92,1.86-1.22,2.88-.1.34-.19.79-.28,1.08-.19.64-.5,1.44-.64,2.07-.08.35-.09.75-.19,1.08,0,0-.08,0-.08,0-.09.59,0,1.36-.22,1.87-.02,1.4-.08,2.7.03,4.13.04.08.06.16.13.2.04.43-.07.85.15,1.11.02.03.45.54.48.55.13.1.33.08.51.15.02.01.03.11.05.12.07.04.19,0,.3.03.36.14,1.12.52,1.7.37.52.07,1.29-.05,1.68-.3.44.02.59-.22,1.02-.22.31-.3.98-.28,1.26-.62.14.02.2-.03.29-.04.34-.41,1.07-.46,1.38-.9.73-.26,1.19-.77,1.8-1.14.03-.19.09-.36.29-.4.04-.21.18-.33.37-.4.06-.52.49-.7.7-1.08-.01-.08-.28-.19,0-.2h0Z"/>
    <path class="cls-5" d="M133,96.68c.1.08.24.11.34.19.06-.03.32-.19.34,0,.05,0,.03-.08.04-.12.6.18,1-.28,1.4.01.55-.07.8.15,1.31.1,0,.23.05.52-.07.64.27.29-.1.9.11,1.11-.16.14.05.2-.08.28.27.32.01,1.14.11,1.47-.27,1.05.11,2.53-.14,3.73.02.06.13.03.08.16-.17.37-.06.82-.11,1.23-.03.26-.16.49-.19.76-.08.57.07,1.19-.06,1.67-.03.12-.14.16-.21.28-.18.32-.13.77-.41,1,0-.16-.02-.09-.13-.08-.1-1.17-.14-2.4.15-3.45-.03-.27-.1-.97-.02-1.08-.15-.14-.15-.66-.02-.87-.22-.16.19-1.02.02-1.35.23-1.37-.02-2.32.1-3.73.18.02.12-.17.21-.24-.06-.18-.2-.29-.3-.43-1.12.15-1.99.29-3.08.32-.05.04-.09.08-.13.12-.36.06-.46-.12-.68-.19-.14-.4-.37-.91-.28-1.39,0,.08.34.04.47,0,.04-.01.03-.12.04-.12.03,0,.19.17.3,0,.07.15-.11.08-.08.2.08-.08.4-.15.47,0,.15-.08-.08-.11-.05-.2.16.25.27-.16.26.19.03-.1.19-.09.34-.09.14-.04-.12,0-.04-.11h0Z"/>
    <path class="cls-5" d="M146.51,114.34c-.15.24-.31.46-.36.78-.01.07-.1-.03-.1.06.32.08.51-.28.71-.44,0-.16.06-.25.04-.42-.1,0-.17.03-.28.02h0ZM146.51,114.07c.12.1.37.03.55.11.05.16-.1.28-.02.35-.11.34-.29.6-.63.72-.04.02-.05.07-.1.09-.07,0-.14,0-.14.06-.25.03-.23-.04-.28-.23-.02-.07.03-.24.1-.42.03-.08.09-.15.12-.19.01-.02.01-.1.02-.12.02-.03.09-.04.13-.07.08-.1.16-.23.26-.31h0Z"/>
    <path class="cls-5" d="M146.79,114.33c.02.17-.04.26-.04.41-.2.16-.39.52-.71.44,0-.09.09.01.1-.06.05-.32.22-.54.36-.78.11.01.18-.02.28-.02h0Z"/>
    <path class="cls-5" d="M145.15,115.56c.13.39.41.63.75.82.24.03.58.03.77.08.27.07.43-.12.63-.11-.27.39-1.13.42-1.61.25-.02-.12-.2-.02-.2-.19-.08,0-.06-.02-.12,0,0-.09-.13-.12-.06-.21-.14-.11-.28-.4-.16-.63h0Z"/>
    <path class="cls-5" d="M146.37,116.22s0,.12-.06.1c-.02-.06.08-.02.06-.1h0Z"/>
    <path class="cls-5" d="M142.29,116.91c.01.08-.11.02-.17.04-.01-.08.11-.02.17-.04h0Z"/>
    <path class="cls-5" d="M148.88,83.89c-.05.32-.21.36-.26.69-.17.09-.3.25-.4.46-.07.15-.19.56-.13.57-.36.52-.57,1.11-.9,1.59,0-.05-.1-.02-.03,0,.01,0,.05,0,.03.03-.39.58-.54,1.35-.83,2.09,0,.37-.15.6-.2.87-.04.24-.01.47-.07.68-.05.21-.22.4-.27.6-.05.23,0,.6-.07.9,0,.05-.09.08-.1.12-.12.31,0,.39,0,.68-.17.24.04.76-.17.91.07.07.08.2.07.34-.11.53-.14,1.15-.13,1.75.03,1.42-.08,2.98.24,4.15-.02.04-.1.02-.07.12.1.56.18,1,.2,1.66.18.34.25.79.23,1.31.35,1.12.58,2.68.63,3.9-.01.08.13.02.1.13.04.83.03,1.79.03,2.74.42-.98.59-2.26.73-3.37.1-.85-.09-1.6.23-2.31,0-.63.09-1.16.2-1.68-.08-.51.08-1.31.13-1.9.04-.13-.05-.13-.07-.22.19-.28.04-.57.1-.93.02-.16.14-.3.17-.47.05-.34,0-.76.07-1.09.08-.37-.05-1.11.1-1.53.02-.05.05-.02.06-.1.12-.9.07-1.81.17-2.68.18.01.3.07.43.12.3.66.39,1.67.4,2.5.39.76.13,1.92.33,2.74-.25,1.67-.02,3.51-.2,5.3-.08.82,0,1.66-.2,2.43.13.11.01.24,0,.34-.14.84.07,1.76-.17,2.65-.23.85-.27,1.8-.5,2.52.3-.38.51-.84.83-1.21.03-.39.25-.6.43-.84,0-.27.22-.46.33-.72.11-.26.15-.58.26-.84.04-.1.13-.16.17-.25.03-.09.02-.2.06-.31.18-.49.48-.98.6-1.47.03-.13,0-.3.03-.44.08-.36.38-.64.3-1.1-.01-.08.13-.02.1-.12.07-.84.11-1.68.33-2.43.02-.94.02-1.86.13-2.78-.08-1.22-.28-2.33-.53-3.4.07-.37-.16-.96-.13-1.5-.12-.44-.29-.83-.33-1.34-.24-.62-.32-1.38-.63-1.93.06-.43-.16-.59-.13-1-.21-.2-.16-.52-.23-.78-.03-.12-.14-.25-.16-.37-.07-.32-.07-.71-.17-1.03-.02-.06-.09-.09-.1-.16-.04-.32.14-.75-.07-.96.09-.8.14-1.64,0-2.5.21-.71.25-1.75.33-2.68.11-.23.2-.8.1-1.03-.21.21-.26.57-.53.72.07.07-.02.3-.13.31.09.1-.06.33-.2.4-.02.1.11.04.06.16-.06,0-.06-.04-.1-.06-.01.22-.22.56-.1.9-.03-.07-.12-.07-.24-.06.04.16-.07.18-.2.19h0ZM147.98,113.46c.07-.43.19-.8.34-1.22.31-.91.46-2.14.63-3.15.11-.66,0-1.39.06-2.09.16-1.55.3-3.19.37-4.77.05-.12-.1-.06-.07-.16,0-.09.11-.06.07-.19-.24-.62.1-1.59-.07-2.21.12-.57.11-1.32,0-1.97.13-.18.04-.39,0-.53-.12-.43-.09-1.12-.2-1.47,0-.18.02-.39-.07-.5-.21.49-.12,1.06-.2,1.68-.01.12-.09.25-.1.37-.03.42.15.87-.07,1.19-.25,2.65-.51,5.49-.8,7.92.06.53-.13,1.13-.2,1.59,0,.04.07.08.07.12,0,.21-.13.42-.17.63-.04.22-.02.44-.07.66-.03.14-.13.29-.16.44-.02.07.02.15,0,.22-.01.03-.1.04-.1.06-.05.11-.01.25-.06.37-.06.13-.21.26-.27.41-.12.27-.16.5-.34.72-.18-.06-.11.12-.26.09-.1-.1-.09-.31-.2-.4.17-1.04.34-2.14.14-3.15.16-.36,0-.85-.1-1.16-.05-.11.09-.06.06-.15-.16-.71-.15-2.14-.53-2.87-.05-1.28-.46-2.47-.46-3.9-.36-1.28-.12-3.54-.17-4.89.15-.21.01-.7.17-.91-.19-.22-.03-.44,0-.68.05-.4-.05-.83.04-1.25.06-.31.31-.65.2-1.02.1-.08.09-.27.2-.35.06-.79.34-1.38.43-2.05-.02-.08-.09-.11-.1-.19.21-.9.66-1.56.89-2.43.18-.04.11-.31.3-.35-.03-.13.05-.16.03-.28.11,0,.08-.13.2-.12.16-.55.51-.91.7-1.43.28-.13.22-.58.5-.72-.09-.28.3-.63.33-1,.55-.56.88-1.33,1.43-1.9-.13-.11.03-.1.13-.28.06-.09.05-.26.1-.34.04-.06.16-.12.2-.19.08-.16.16-.28.23-.44.14.04.15-.05.23-.06,0,.12.08.15.13.22-.14.3-.14.58-.23.81,0,.01-.1-.01-.1,0-.03.06,0,.19-.04.28-.05.13-.18.24-.2.31-.05.26.03.71,0,1.12-.16,0-.03.08-.03.16,0,.06-.06.16-.07.25,0,.04.07.07.07.06-.04.28-.2.51-.1.72-.13.49-.25.97-.2,1.5-.13.32-.2.91-.03,1.18-.12.61,0,.97,0,1.34-.23.29.05.91-.07,1.16.11,1.02.4,1.7.57,2.65.23.26.15.63.23.94.12.49.4.95.5,1.46.08.43.13.84.27,1.25.17.5.27,1.27.4,1.93.06.86.24,1.73.43,2.55.02.07-.06.04-.07.1.1.83.21,1.93,0,2.71-.08.32.08.71,0,1.06-.02.07-.09.1-.1.16-.13.66-.06,1.36-.17,1.97-.02.11-.13.22-.17.34-.1.38-.03.89-.26,1.12-.05.39-.1.82-.23,1.15-.04.09-.14.14-.16.22-.03.1,0,.21-.03.31-.02.05-.12.09-.13.16-.06.24-.08.37-.2.62-.14.3-.39.59-.43,1.06-.13.08-.21.21-.2.44-.13.13-.26.26-.26.5-.12.02-.14.14-.27.16-.04.73-.6.96-.73,1.59-.45.07-.47.65-.76.78-.11.04-.24-.07-.33.06-.11-.02-.19-.07-.3-.09h0Z"/>
    <path class="cls-5" d="M149.08,83.7c.11-.01.2,0,.23.06-.12-.34.09-.68.1-.9.04.02.04.07.1.06.05-.12-.09-.06-.06-.16.14-.07.29-.3.2-.4.11-.01.2-.24.13-.31.28-.15.32-.51.53-.72.11.22.02.8-.1,1.03-.08.93-.13,1.96-.33,2.68.14.86.09,1.69,0,2.49.2.21.02.65.07.97,0,.07.08.1.1.16.1.33.09.71.17,1.03.03.12.13.26.16.37.08.27.02.58.23.78-.03.4.19.57.13,1,.31.55.39,1.32.63,1.93.04.51.22.91.33,1.34-.03.54.2,1.12.13,1.5.25,1.06.45,2.17.53,3.4-.12.91-.11,1.83-.13,2.77-.23.75-.27,1.59-.33,2.43.03.1-.11.04-.1.13.08.45-.21.73-.3,1.09-.04.14,0,.3-.04.44-.12.49-.42.97-.6,1.47-.04.11-.03.22-.06.31-.03.09-.12.15-.17.25-.12.27-.15.58-.27.84-.11.26-.32.44-.33.72-.18.25-.4.45-.43.84-.32.37-.53.84-.83,1.22.22-.72.26-1.67.5-2.52.24-.89.03-1.81.17-2.65.01-.1.13-.23,0-.34.19-.77.11-1.61.2-2.43.18-1.79-.05-3.63.2-5.3-.21-.83.06-1.98-.33-2.75-.01-.82-.1-1.83-.4-2.49-.13-.05-.25-.11-.43-.13-.1.87-.05,1.78-.17,2.69,0,.07-.05.04-.06.09-.15.43-.02,1.16-.1,1.53-.08.33-.01.74-.07,1.09-.02.16-.14.31-.16.47-.06.36.09.66-.1.93.01.08.11.09.07.22-.06.59-.21,1.39-.14,1.9-.1.53-.2,1.06-.2,1.68-.32.71-.13,1.46-.24,2.31-.14,1.11-.31,2.39-.73,3.37,0-.95.01-1.92-.03-2.74.03-.1-.11-.05-.1-.13-.05-1.22-.29-2.78-.63-3.9.02-.52-.05-.96-.23-1.31-.02-.66-.1-1.1-.2-1.66-.04-.1.05-.08.07-.12-.32-1.16-.2-2.73-.24-4.15-.01-.59.03-1.21.13-1.75.01-.15,0-.27-.07-.34.21-.15,0-.66.17-.91,0-.29-.12-.37,0-.68.01-.04.09-.08.1-.12.07-.3.01-.67.07-.9.04-.2.22-.38.27-.59.05-.22.02-.45.07-.69.05-.27.21-.5.2-.87.29-.73.44-1.51.83-2.09.01-.02-.02-.03-.04-.03-.07-.03.04-.05.04,0,.33-.48.53-1.07.9-1.59-.06,0,.06-.41.13-.56.1-.21.23-.38.4-.47.05-.33.22-.37.27-.69.13,0,.24-.02.2-.19h0Z"/>
    <path class="cls-5" d="M146.31,116.32c.07.02.11-.08.06-.1.02.07-.08.03-.06.1h0ZM145.31,116.19c-.07.09.06.12.06.21.06-.02.05,0,.12,0,0,.17.18.07.2.19.48.17,1.33.14,1.61-.25-.19,0-.36.18-.63.11-.19-.05-.53-.04-.77-.08-.34-.18-.63-.43-.75-.82-.11.23.02.52.17.63h0ZM145.43,114.49s-.06,0-.06-.03c-.06.04-.07.13-.12.19,0,.03.1.09,0,.1,0,.03.1.12,0,.13,0,.02.04.01.06.02-.04.19.11.23.04.4.02.02,0,.07.06.06-.03.25.14.29.16.53.01.02.04.02.04.06.02-.01.02-.04.07-.04-.03.11.09.09.1.17.09-.09.12.02.19.07.06,0-.05-.05.02-.06.5.13,1.05.19,1.44-.08v-.11c.09,0,.14-.03.24-.02.05.09.05.22.1.3-.03.1-.12.16-.14.27-.12-.01-.12.1-.2.16-.07.04-.22.04-.24.15-.04-.11-.15.05-.2.07-.1.04-.29.06-.39.08-.02,0-.01.04-.02.04-.33.07-.58-.03-.89-.15-.05-.02-.12,0-.16-.02-.08-.03-.32-.26-.37-.34-.06-.12-.25-.25-.26-.44-.16-.22,0-.59-.04-.93.11-.31.03-.56.35-.68.06.1.2.02.24.11h0Z"/>
    <path class="cls-5" d="M144.54,118.53c-.14.05-.25.12-.4.15-.01.03.02.1-.02.1-.04-.09-.04.04-.1.05-.03-.07-.16.08-.18.13.13.04.26.08.45.06.57-.21.98.11.97.7,0,.03.03.02.04.04-.01.3.02.54.02.82.07.06.06.32,0,.38.02.02.05.11,0,.13.05.05.05.14,0,.19.03.44-.07,1.09-.4,1.35-.03.06.06.01.04.08-.15.13-.14.43-.36.49v.1c-.17.02-.2.18-.24.32,0-.03.02-.1-.04-.08-.03.01,0,.09-.04.1-.23.06-.33.25-.48.38.27,0,.46-.19.65-.32,0,.01,0,.04.02.04,0-.1.05-.03.12-.06-.01-.11.12-.1.15-.19,0,.04.07.01.1.02.04-.12.19-.12.23-.25.23-.03.2-.31.39-.38.04-.3.32-.39.35-.7.03,0,.03-.03.06-.02,0-.1,0-.2.08-.25.01-.23.04-.43.12-.59-.07-.12-.06-.32-.06-.49,0-.03-.04-.02-.04-.04.01-.15-.02-.25-.02-.38-.15-.21-.18-.53-.32-.75-.01-.22-.11-.28-.2-.41-.1-.16-.16-.26-.29-.34-.27-.2.29-.34.47-.38.31-.07,1-.12,1.16.17.08.21.21.36.2.65.13.04.01.3.14.34,0-.13-.06-.24.04-.29-.17-.34-.08-.82-.12-1.29-.05-.07-.21-.04-.22-.13.01.05-.04.04-.06.06-.14-.08-.34-.08-.55-.06-.34.13-.76.3-1.1.49-.04,0-.08-.07-.2-.05,0-.06-.03-.08-.02-.16.12-.11.13-.33.26-.44-.01-.12.02-.2.06-.27-.06-.67-.66-.77-1.26-.91-.02.1-.12.03-.18.02-.15.1-.35-.06-.39.06-.14-.06-.13.09-.29.06-.04.04-.02.13-.06.17h-.22c-.04.09-.21.22-.12.32.2-.16.5-.23.79-.3.04.1.13-.06.18.04.02-.06.14-.03.22-.04.53.18,1.21.51.87,1.22,0,.03.05.01.04.06-.1.06-.19.14-.2.28h0ZM142.33,116.97s.02-.01.02,0c.07-.03.13-.08.14-.17.24-.03.25-.29.53-.28.02-.07.13-.04.16-.1.04-.01.03.04.06.04.43-.15.99.01,1.34.13v.06c.07.02.09-.01.16.02.08.15.32.13.36.3h.12c.2.25.29.82.06,1.1.31-.08.72-.36,1.16-.34.17.01.31.13.5.11.02.03.03.05.04.08.4.01.17.49.31.72,0,.17-.02.64.06.86-.08.08-.02.24.06.28,0,.36.4.38.36.71-.25-.07-.46-.17-.57-.36-.45-.08-.51-.54-.57-.99-.12-.13-.15-.43-.36-.4v-.06c-.32,0-.62.01-.86.11.02.13.05.25.18.27.16.59.54.97.57,1.68.07.31.2.72,0,1.06,0,.02.03.01.04.02-.04.06-.07.13-.06.25.02.05-.05.03-.06.05.01.1-.04.13-.02.23-.09.08-.16.18-.19.32-.25.34-.46.72-.81.97-.07,0-.14.02-.14.1-.12-.02-.1.09-.22.08-.12.21-.37.12-.51.36-.09.01-.18-.01-.2.1-.11-.06-.11.06-.28.04-.03.02-.04.07-.04.11-.13,0-.2.06-.24.13-.05,0-.05-.04-.08-.05-.02.03-.04.07-.06.11-.04,0-.03-.04-.06-.04-.06.12-.23.13-.34.19-.02-.06.03-.04.04-.08-.08.02-.11.09-.18.12-.03-.15-.38.07-.37-.06-.1.04-.18-.01-.22-.08-.01-.08.08-.06.06-.15.27-.02.58-.08.67-.32.13.06.08-.14.16,0,.03-.05-.06-.12.08-.13-.04.01-.04.07-.04.13.07-.07.17-.12.18-.25.05.12.09-.04.2-.02,0-.03,0-.07,0-.1.21,0,.26-.15.43-.19.36-.36.76-.72.91-1.33.25-.3.23-.87.22-1.45,0-.27-.03-.62-.08-.76,0-.09.07-.1,0-.17.04,0,.04-.03.04-.06-.08-.17-.09-.4-.16-.57-.06-.05-.23,0-.26-.08-.01.03-.06.03-.08.06-.49-.04-.92.03-1.4,0-.02-.02,0-.07-.06-.06v-.13c.5-.25.74-.48,1.24-.7.14-.21.33-.5.16-.78-.28-.2-.56-.4-1.11-.34-.03,0-.02.03-.02.06-.08,0-.11.04-.2.02-.09.11-.3.1-.36.23-.17.02-.29.08-.43.13-.09-.02-.08-.12-.18-.13-.06-.31.26-.37.2-.61h0Z"/>
    <path class="cls-5" d="M142.07,116.95s-.12.04-.18.06c.01-.06.11-.05.18-.06h0Z"/>
    <path class="cls-5" d="M144.75,118.24s-.04-.03-.04-.06c.33-.71-.35-1.04-.87-1.22-.08,0-.2-.02-.22.04-.06-.1-.14.06-.18-.04-.29.07-.59.15-.79.3-.09-.1.08-.23.12-.32h.22s.02-.13.06-.17c.16.03.15-.11.29-.06.04-.11.24.04.39-.06.06.01.16.09.18-.02.59.14,1.19.25,1.25.91-.04.07-.07.15-.06.27-.13.11-.14.33-.26.44-.02.07.02.09.02.16.12-.02.16.06.2.05.33-.19.76-.36,1.1-.49.2-.03.41-.03.55.06.02-.02.08,0,.06-.06.01.1.17.07.22.13.04.47-.04.95.12,1.29-.1.05-.04.16-.04.29-.13-.04-.01-.3-.14-.34,0-.28-.13-.44-.2-.65-.16-.29-.85-.25-1.16-.17-.17.04-.74.19-.47.38.12.09.18.18.28.34.09.14.19.19.2.41.14.22.17.54.32.75,0,.13.04.23.02.38,0,.02.04.01.04.04,0,.18,0,.37.06.49-.08.16-.11.36-.12.59-.07.04-.08.14-.08.25-.03,0-.03.02-.06.02-.03.31-.3.4-.35.7-.19.07-.16.35-.39.38-.03.12-.19.12-.23.25-.03,0-.1.02-.1-.02-.03.09-.16.07-.14.19-.07.03-.13-.04-.12.06-.02,0-.02-.02-.02-.04-.19.13-.38.32-.65.32.15-.13.25-.32.49-.38.04,0,0-.09.04-.1.06-.02.04.04.04.08.04-.15.07-.3.24-.32v-.1c.22-.07.21-.36.36-.49.02-.07-.06-.02-.04-.08.33-.27.44-.92.4-1.35.05-.05.05-.14,0-.19.05-.02.02-.11,0-.13.05-.06.07-.32,0-.38,0-.28-.03-.52-.02-.82,0-.02-.04-.01-.04-.04,0-.59-.4-.91-.97-.7-.19.02-.32-.02-.44-.06.02-.06.15-.2.18-.13.06-.01.06-.14.1-.05.05,0,0-.07.02-.1.15-.03.27-.1.4-.15.01-.15.1-.22.2-.28h0Z"/>
    <path class="cls-5" d="M125,133.4c-.05-.26.12-.3.07-.55-.12.05-.13.55-.07.55h0ZM132.98,130.99v-.28c-.12-.04-.12.31,0,.28h0ZM132.39,130.23c-.02-.09,0-.23-.15-.2,0,.12,0,.23.15.2h0ZM131.18,128.44c-.05.13.12.07.07.2.03-.14.45.16.44.04.27.15.4.43.77.48.24.29.39.59.66.93.04.06.22.24.26.38.03.14-.07.48.07.55.06.42-.1.65-.07,1.04h-.11c-.07.83-.37,1.45-.99,1.76-.15.55-.82.54-1.4.59-.49.04-1.07,0-1.47-.17-.15-.12-.23-.1-.52-.11,0-.1-.09-.1-.18-.1-.13-.27-.45-.33-.55-.69-.13-.43-.05-.94,0-1.45.1-.1.22-.17.22-.35h.11c.01-.29.35-.27.37-.55.04-.05.19,0,.15-.14.38-.02.83-.47,1.25-.55.29-.06.84.33.77.69-.02.13-.22.18-.4.31-.09.06-.14.18-.18.2-.11.07-.22.05-.29.1-.18.12-.33.36-.48.58-.1.16-.3.31-.29.62.06.03.06.12.18.11.07.47.51.39.92.52.08.01.05-.07.11-.07.1.01.1.11.26.07.18-.07.34-.17.52-.24.05-.03.08-.08.08-.17.09.01.08-.06.18-.03.13-.77.71-1.85.15-2.69-.45-.19-.73-.54-1.18-.73-.32.08-.8.01-1.18.03-.09.16-.4.11-.44.31-.31,0-.52.09-.59.31-.13,0-.21.06-.33.07-.68.66-1.14,1.52-1.14,2.83-.03.11.09.07.11.14-.15.54.2,1.19.3,1.72.19.23.45.4.55.73.47.19.76.53,1.32.62-.03.1.06.1.04.21.45-.01.48.09.96.14.08.16.02.36-.11.41-.15.05-.12-.07-.22-.07-.12.05-.15.18-.18.31-.38.05-.52.3-.92.24-.08.1-.21.15-.29.24-.2-.04-.3-.18-.59-.14-.03-.11-.22-.07-.22-.21-.35,0-.56-.14-.7-.35-.63-.4-1.35-.72-1.65-1.44-.13-.09-.12-.3-.33-.31,0-.27-.29-.27-.26-.58-.46-.64-.26-2.01.04-2.66.28-.31.36-.81.48-1.28.34-.26.38-.79.81-.96.04-.38.54-.32.66-.62.19,0,.25-.15.44-.14.1-.22.44-.21.52-.45.44-.04.65-.31.99-.45,1.06-.13,1.73.11,2.54.21h0Z"/>
    <path class="cls-5" d="M134.84,130.02c.15-.03.13.11.15.2-.15.02-.15-.09-.15-.2h0Z"/>
    <path class="cls-5" d="M135.57,130.71v.28c-.11.04-.11-.31,0-.28h0Z"/>
    <path class="cls-5" d="M118.07,131.37c.11-.02.13.04.22.03-.02.05-.12.03-.08.14-.03-.03-.08-.04-.14-.03v-.14h0Z"/>
    <path class="cls-5" d="M118.44,133.33c.14.03.15.18.22.27-.14-.02-.17-.16-.22-.27h0Z"/>
    <path class="cls-5" d="M125.07,132.85c.05.26-.12.3-.07.55-.06,0-.05-.5.07-.55h0Z"/>
    <path class="cls-5" d="M121.91,136.61c.18-.02.26.05.37,0,.01-.15-.28-.01-.22-.2h-.15v.2h0ZM117.79,135.26c-.05-.2-.23-.45-.52-.31.11.16.33.22.52.31h0ZM116.06,133.61c-.07-.09-.08-.24-.22-.27.04.12.08.25.22.27h0ZM115.48,131.51c.06,0,.12,0,.15.03-.04-.1.06-.08.08-.14-.09,0-.11-.06-.22-.03v.14h0ZM115.22,130.4c.36.19.6.49,1.1.55.65.72,1.47,1.27,2.54,1.59.04.24.4.17.51.35.32.02.63.03.77.21.43.08.85.17,1.18.34.85.09,1.28.58,1.95.83.4.53,1.07.8,1.1,1.66.14.23.16.73,0,.93.03.19-.06.27-.03.45-.22.14-.24.46-.55.52,0,.12-.09.17-.07.31-.16.06-.32.09-.41.2-.53-.4-1.07-.81-1.51-1.31-.33-.05-.78.02-.99-.14-.29.06-.8-.19-1.1-.34-.11.1-.42.02-.48-.14h-.26c-.26-.18-.75-.14-.92-.41-.71-.02-.92-.51-1.43-.73,0-.1-.11-.1-.07-.24-.76-.26-.93-1.06-1.39-1.59-.24-.86-.43-1.97-.15-2.93.09-.02.22,0,.22-.1h0Z"/>
    <path class="cls-5" d="M101.13,73.52c.05.26-.12.3-.08.55.12-.06.13-.55.08-.55h0ZM93.15,75.94v.27c.11.04.11-.31,0-.27h0ZM93.74,76.7c.02.09,0,.23.15.21,0-.12,0-.23-.15-.21h0ZM94.95,78.49c.05-.13-.12-.07-.07-.2-.02.14-.45-.16-.44-.04-.27-.15-.4-.43-.77-.48-.24-.29-.39-.59-.66-.93-.04-.06-.22-.23-.26-.38-.03-.14.07-.48-.08-.55-.06-.42.1-.65.08-1.03h.11c.07-.84.37-1.44.99-1.76.15-.55.82-.54,1.4-.59.49-.04,1.07,0,1.46.17.15.12.23.1.52.11,0,.1.09.1.18.1.13.27.45.34.55.69.12.43.05.94,0,1.45-.09.1-.22.17-.22.35h-.11c-.01.29-.35.27-.37.55-.05.05-.19,0-.15.14-.38.02-.83.47-1.25.55-.3.06-.84-.33-.77-.69.03-.13.22-.18.4-.31.09-.06.14-.18.19-.2.1-.07.22-.06.3-.11.17-.12.33-.36.48-.58.1-.16.3-.31.29-.62-.06-.03-.06-.12-.18-.1-.07-.47-.51-.39-.92-.52-.08-.02-.05.07-.11.07-.1-.01-.1-.11-.26-.07-.18.07-.34.17-.52.25-.06.03-.08.08-.08.17-.09-.01-.08.06-.18.03-.12.77-.7,1.85-.15,2.69.45.19.73.54,1.18.73.32-.08.79-.01,1.17-.03.09-.16.4-.11.44-.31.31,0,.52-.09.59-.31.13,0,.21-.06.33-.07.68-.66,1.14-1.52,1.14-2.82.03-.11-.09-.07-.11-.14.15-.54-.19-1.19-.29-1.73-.2-.23-.46-.4-.56-.72-.47-.19-.76-.53-1.32-.62.03-.11-.06-.1-.04-.21-.46.01-.48-.09-.96-.14-.08-.16-.02-.36.11-.41.15-.05.12.07.22.07.12-.05.15-.18.18-.31.38-.04.52-.3.92-.24.08-.1.21-.14.29-.25.2.04.3.18.59.14.03.11.22.07.22.21.35,0,.56.14.7.35.63.4,1.35.72,1.65,1.44.13.09.12.3.33.31,0,.27.29.27.26.58.46.64.26,2.01-.04,2.66-.29.31-.36.81-.48,1.28-.34.26-.38.79-.81.96-.04.38-.54.32-.66.62-.19,0-.24.14-.44.14-.1.22-.43.21-.51.45-.44.05-.65.31-.99.45-1.06.13-1.74-.11-2.54-.21h0Z"/>
    <path class="cls-5" d="M96.49,76.91c-.15.02-.13-.11-.15-.21.15-.03.15.09.15.21h0Z"/>
    <path class="cls-5" d="M95.75,76.21v-.27c.11-.04.11.31,0,.27h0Z"/>
    <path class="cls-5" d="M113.25,75.56c-.11.02-.13-.04-.22-.04.01-.05.11-.03.07-.14.03.03.08.04.15.04v.14h0Z"/>
    <path class="cls-5" d="M94.9,74.73c.06-.04.1-.11.11-.21.08,0,.02.12.03.17-.03.03-.08.04-.15.04h0Z"/>
    <path class="cls-5" d="M112.88,73.59c-.14-.03-.15-.18-.22-.27.14.02.18.15.22.27h0Z"/>
    <path class="cls-5" d="M108.85,71.97c-.29.15-.47-.11-.51-.31.18.09.4.15.51.31h0Z"/>
    <path class="cls-5" d="M94.95,70.7c-.12.04-.06-.11-.07-.17.13.01.1.09.07.17h0Z"/>
    <path class="cls-5" d="M104.22,70.52h-.15c.06-.19-.23-.05-.22-.21.11-.04.19.02.37,0v.21h0Z"/>
    <path class="cls-5" d="M103.66,74.08c-.05-.25.12-.3.07-.55.06,0,.05.5-.07.55h0Z"/>
    <path class="cls-5" d="M104.22,70.32c-.18.02-.26-.04-.37,0-.01.16.28.02.22.21h.15v-.21h0ZM108.34,71.66c.05.2.22.45.51.31-.11-.16-.34-.22-.51-.31h0ZM110.07,73.32c.07.09.08.25.22.27-.04-.12-.08-.25-.22-.27h0ZM110.65,75.42c-.06,0-.12-.01-.15-.03.04.11-.06.08-.07.14.09,0,.11.06.22.03v-.14h0ZM110.91,76.52c-.36-.19-.6-.49-1.1-.55-.65-.72-1.47-1.26-2.54-1.59-.04-.24-.4-.17-.51-.34-.32-.02-.63-.04-.77-.21-.43-.08-.85-.17-1.18-.34-.85-.09-1.28-.58-1.95-.83-.39-.53-1.07-.8-1.1-1.66-.14-.23-.16-.73,0-.93-.03-.19.06-.27.03-.45.22-.14.24-.46.55-.52,0-.12.09-.17.07-.31.15-.06.32-.09.4-.2.53.4,1.07.81,1.51,1.31.33.05.78-.01.99.14.29-.06.8.2,1.11.35.11-.1.42-.01.48.14h.26c.26.18.75.14.92.41.71.03.92.52,1.44.73,0,.1.12.1.07.24.76.26.93,1.06,1.4,1.59.24.86.43,1.97.15,2.93-.09.02-.22,0-.22.1h0Z"/>
  </g>
  <polygon class="cls-4" points="29.64 82.51 6.08 117 7.25 118.48 52.2 116.93 36.05 87.27 31.25 81.65 29.64 82.51 29.64 82.51"/>
  <path class="cls-3" d="M27.75,86.98c-.85.37-.24-.86-1.1-.48-.41.14-.18.86-1.03.59-.33,1.4-.66,2.79-1.98,3.3-.32,1.48.75,1.42,1.18,2.08-1.86,1.36-1.87,5.71-5.14,4.27.3.79,1.28.83,1.43,1.8-.71.36-1.23.5-1.57.61,1.14.93-.3.7-.74,1.37-1.14,1.77-1.76,4.55-3.76,5-.07,1.29-.54,2.23-1.76,2.49.68,1.39-.39.19-.76.84,1.72.32-1.09,1.17.1,1.87-1.9.4-1.44,2.95-2.75,3.88-.17-.46.25-1.59-.34-1.59,0,.42.08.93-.5.83-.28.88.87.16.59,1.04-1.11.27-.9,1.73-1.48,2.48,2.78-.61,7.3-.66,10.41-.52.05-.21-.02-.52.24-.55,10.35.95,18.6-.66,31.25-1-.58-2.81-3.05-4.16-4.03-5.69-.32-2.37-2.56-2.61-2.66-5.22-1.2.18-1.03-.95-.88-1.56-1.06.02-2.03-1.7-1.17-2.09-.84.45-.9-.16-1.63-.45-1.93-5.83-6.54-9.94-8.75-14.55.01.27-.45.36-.53.02.32-.04.63-.11.51-.56-.75.26-.71-.34-1.35-.2-1.29,1.8-1.87,4.25-4.02,5.28.56.92-.2,1.3-.7,1.91-.32-1.06-.06-2.08.39-2.96.44-.02.18.73.57.77.06-1.15.97-3.33,1.76-2.23-.03-.37.09-.6.22-.82h0ZM43.34,99.32c1.58.23,1.16,2.65,2.82,2.8.04,1.73.93,2.54,2.03,3.11-.12,1.82.91,2.37,2.01,2.84.12.45-.18.51-.51.56.38.37,1.26.61.6,1.31.21-.16.43-.3.78-.31.12.54-.01.84-.49.83.53.68,2.07,2.13,1.2,2.61.27.45.86.55,1.62.46.15,2.19,1.35,3.21,1.35,5.55-.26-.16-1.01-.58-.78.3-.48-.5-1.86-.01-1.92-.97-.59,1.05-1.83-.7-3.17.69-.81.13-.6-.84-.87-1.3-.76.27.38.65.07,1.33-.21-.17-.9-1.08-.8.04-3.73-.26-9.26-.28-12.56.08-.01-.27-.03-.53-.04-.8-1.21.71-2.61.85-3.74.19-.72,1.04-5.69,1.07-7.2.36-2.93,1.68-9.46.1-10.88,1.87-2.3-1.29-6.26.17-9.14-.88-.27-.84.18-1.02.47-1.36-1.08-.04-.45-.2-.62-1.84,1.24-.41,1.75-1.46,1.72-3.03,1.24.2.54-1.37,1.81-1.16-.23-.8-.21-.5-.07-1.33,1.81.2.72-2.24,2.29-2.25-.18-.26-.62-.25-.57-.78,1.08.29.5-.9,1.57-.61-.02-.45-.04-.89-.07-1.34.23-.22.59-.32,1.05-.32,1.57-4.03,4.5-6.81,6.16-10.74.92-.02,1.21-.6.99-1.66.78.03.78-.64,1.57-.61.65-3.57,4.05-4.66,4.67-8.26,2.93-.65,2.23-4.6,5.08-5.33-.18-.26-.62-.25-.58-.77.88-.05,1.31-.52,2.39-.39,1.2.85-.31,1.38,1.4,1.27-1.1,1.21.34,4.74,1.55,4.2.39.07.07,2.02,1.42,1.8-.14.82.33.96.36,1.59,3.43,2.86,4.09,8.8,7.53,11.66.12.45-.18.52-.51.56h0Z"/>
  <text class="cls-1" transform="translate(19.05 112.77) scale(.79 1)"><tspan class="cls-6" x="0" y="0">1</tspan><tspan x="12.32" y="0">3</tspan></text>
</svg>