<?xml version="1.0" encoding="UTF-8"?>
<svg id="Layer_1" data-name="Layer 1" xmlns="http://www.w3.org/2000/svg" viewBox="0 0 180 200">
  <defs>
    <style>
      .cls-1 {
        fill: #231f20;
      }

      .cls-1, .cls-2 {
        fill-rule: evenodd;
      }

      .cls-3 {
        font-family: AmericanTypewriter-Bold, 'American Typewriter';
        font-size: 20.52px;
        font-weight: 700;
      }

      .cls-3, .cls-4 {
        fill: #fff;
      }

      .cls-2 {
        fill: #ed2d2c;
      }

      .cls-5 {
        letter-spacing: -.06em;
      }
    </style>
  </defs>
  <g>
    <path class="cls-4" d="M46.64,63.4s.31,28.51.62,30.99c.31,2.48.31,15.18.31,21.69s.93,16.11.93,19.52,0,5.58.31,7.44c.31,1.86-2.17,3.41.62,3.41s27.58-.93,30.06-.93,48.96,1.24,55.46.93c6.51-.31,32.84-1.24,33.77-.93s4.65,0,4.65,0c0,0-.93-30.68-.93-35.32s-.62-38.11-.62-43.38-.93-8.37-.93-8.37c0,0-78.7,2.48-83.04,2.48h-22.62c-7.75,0-18.59,2.48-18.59,2.48Z"/>
    <g>
      <path d="M119.96,123.99c-.42-.02-.84-.05-1.35-.08.66-.47,1.22-.87,1.79-1.27-.03-.12-.06-.25-.1-.37-2.02.19-4.05.42-6.07.57-2.08.15-4.17.33-6.25.27-1.13-.03-2.55-.07-2.77-1.75l-.05.03c.7.38,1.4.8,2.13,1.12.12.05.42-.3.64-.46.7.05,1.44.62,2.03.06-.61-.89-1.16-1.69-1.7-2.48l-.04.03c1.79,1.77,3.98,2.39,6.44,2.3,2.35-.09,4.68-.23,6.9-1.81-3.29-.51-6.74.27-8.9-2.85,4.25-.14,7.38-1.43,8.9-3.73-3.02,1.27-5.96,2.5-8.9,3.73q-1.89-.7-3.56-.46c.16-.23.32-.46.48-.68.9-.21,1.82-.36,2.69-.65.87-.29,1.69-.74,2.53-1.12.02.31-.51.87.37.79.28-.02.56.07.85.1.88-.35,1.75-.7,2.63-1.05,1.05-.59,2.1-1.17,3.15-1.76-.04-.14-.08-.27-.12-.41-.29-.07-.59-.15-.88-.22.13-.65,1.04-1.3-.1-2.09-.64.56-1.25,1.14-1.9,1.66-.76.61-1.56,1.16-2.34,1.74.07-.27.14-.53.24-.93-1.53.19-2.67,1.08-3.93,1.7.55-1.27,1.83-1.54,2.92-2,1.82-.76,3.42-1.8,4.78-3.41-.38-1.01-.78-2.06-1.2-3.17-.55.13-1.02.24-1.49.35l.04.05c-.49-.69-1.1-.42-1.73-.25-.88.24-1.78.43-2.67.64l.04.04c1.09-.44,2.17-.9,3.28-1.29.64-.23,1.32-.34,2.25-.57-.45-.48-.67-.72-.9-.96h.01c-.18-.39-.35-.77-.56-1.22-5.54.33-10.94.84-15.77,3.99-2.4,1.56-3.94,3.78-5.63,5.92-1.93,2.43-4.04,4.45-7.19,5.23-2.84.71-4.65,2.74-6.07,5.22-.42.73-1.15,1.27-1.75,1.9-.14-.08-.29-.15-.43-.23.17-.78.35-1.57.52-2.35-.09-.03-.19-.07-.28-.1-.37.76-.74,1.53-1.11,2.29-.09-.02-.19-.04-.28-.07.02-.24.04-.48.06-.72.4-.93.81-1.86,1.21-2.78-1.14.7-1.6,1.63-1.16,2.83-.25.27-.51.54-1.07,1.13.11-1.11.19-1.86.26-2.61.05-.14.1-.27.16-.41,2.35-3.1,4.69-6.2,7.05-9.29,1.92-2.51,4.68-3.58,7.63-4.17,2.51-.5,4.83-1.38,7.1-2.55,4.3-2.22,8.91-3.36,13.75-3.51.77-.02,1.53-.13,2.21-.2.39-1.19-.35-1.58-.94-1.89-2.09-1.13-4.23-2.18-6.36-3.25-2.38-1.2-4.75-2.42-7.15-3.57-.49-.24-1.11-.38-1.65-.33-1.07.11-2.15.29-3.18.6-2.5.76-4.99,1.45-7.66,1.2-1.41-.13-2.62.43-3.87,1.13-2.75,1.52-4.78,3.73-6.52,6.25-1.39,2.02-2.63,4.15-3.94,6.22-.35.56-.73,1.11-1.1,1.66-.12-.08-.24-.17-.37-.25,1.21-2.16,2.43-4.33,3.63-6.46-.97.46-2.87,2.75-3.34,4-1.2,3.11-3.05,5.85-5.1,8.52.12-.32.2-.67.36-.96.65-1.13,1.4-2.21,1.97-3.37.25-.51.17-1.18.25-1.78.1-.35.21-.7.31-1.05.47-.21,1.27-.32,1.37-.65.83-2.66,2.74-4.5,4.55-6.44.24-.25.35-.62.74-1.34-.67.36-.91.49-1.15.62-.04-.75-.49-1.18-1.07-.67-.6.53-1.22,1.23-1.23,2.27.88-.63,1.62-1.16,2.37-1.69-1.49,1.55-2.78,3.38-4.5,4.6-3.04,2.16-4.46,5.35-6.13,8.42-.15.29-.05.71-.09,1.53,1.02-1.48,1.77-2.57,2.52-3.66.2.03.41.05.61.08.02.2.11.53.05.56-2.03,1.08-2.15,4.13-4.77,4.58-.07.01-.14-.02-.38-.05-.11-.32-.24-.7-.4-1.19-.34.17-.68.34-1.16.58.07-.39.04-.71.19-.9.75-.99,1.42-1.98,1.1-3.34-.24-1.05.76-1.25,1.31-1.74-.06.78-.12,1.55-.19,2.33.09.04.19.08.28.12,1.29-1.93,2.58-3.85,3.87-5.78,0,0-.08.07-.08.07.52-.61,1.03-1.21,1.55-1.82.28-.42.57-.83.85-1.25,1.86-.61,2.52-2.19,3.06-3.89-.93,1.01-1.86,2.03-2.8,3.04l-1.54,1.17c-.97.54-1.93,1.07-3.25,1.8.83-1.18,1.46-2.07,2.09-2.96-.08-.09-.17-.18-.25-.26-1.5,1.36-2.99,2.73-4.49,4.09l.04.04c.95-1.41,1.82-2.88,2.88-4.21,1.04-1.31,2.27-2.47,3.41-3.69-.58-.22-1.07-.24-1.31,0-3.09,3.02-6.53,5.74-8.8,9.51-.4.66-.67,1.4-1,2.11-1.15,1.73-2.29,3.45-3.44,5.18-1.42,1.81-2.38,3.82-2.64,6.13-.14.21-.29.42-.43.62-.4.55-.79,1.1-1.19,1.65-.09-.04-.18-.08-.27-.11.08-.38.09-.79.24-1.13,1.46-3.38,2.91-6.77,4.43-10.12.42-.91.97-1.8,1.62-2.56,2.85-3.36,5.75-6.67,8.64-10,.52-.6,1.04-1.19,1.64-1.88-2.03-.99-3.89-2.06-5.87-2.82-1.96-.76-2.77-2.19-3.04-4.09-.36-2.52-.19-4.86,1.76-6.84,1.11-1.12,1.86-2.58,2.95-3.73.6-.64,1.51-1.16,2.36-1.35,3.82-.83,7.65-1.6,11.51-2.2,1.84-.29,3.75-.26,5.61-.14,2.09.13,4.17.49,6.24.83,1.33.21,2.53.32,3.56-.88.33-.38,1.2-.5,1.78-.43,1.21.14,2.39.49,3.77.79.2-.26.47-.67.78-1.03,1.24-1.46,1.99-1.68,3.79-.88.97.43,1.76.68,2.37-.58-.43-.58-.89-1.19-1.23-1.65-2.24,0-4.31.08-6.38-.04-.73-.04-1.77-.36-2.09-.89-.8-1.35-1.95-1.35-3.19-1.25-1.51.11-2.85-.31-4.15-1.01-2.09-1.13-3.73-3.17-2.82-6.29.12.8.16,1.2.23,1.6.1.56.15,1.15.36,1.67.18.42.56.76,1.01,1.32-.08-1.56-.14-2.82-.2-4.09,1.26,1.78,1.61,4.07,4.05,4.93-.92-1.5-1.84-3.01-2.76-4.51.1-.05.19-.11.29-.16.75,1,1.5,2.01,2.35,3.14q.13-3.48,1.86-3.91c-.46.63-.93,1.28-1.4,1.94.12.12.24.23.36.35.57-.44,1.14-.89,1.97-1.53-.26.64-.4,1-.55,1.36-1.28,1.32-1.51,2.69-.37,3.7,1.28,1.14,2.96,1.7,4.33,2.82.9.73,2.65.41,4.02.56-1.51-.92-3.12-1.4-4.51-2.24-1.6-.98-2.95-2.32-3.07-4.42.56.81,1.13,1.62,1.69,2.43.12-.04.24-.08.37-.11v-3.72c.12,0,.24,0,.35-.01.09.94.18,1.88.29,2.99.48-.31.82-.53,1.21-.77-.67-1.12-1.27-2.18-.22-3.58,1.76,1.81,3.4,3.62,5.82,4.51-.98-1.24-1.91-2.43-2.85-3.61.9-.66,1.93.16,3.04-.64.37.04.46,1.79,1.65.67.47,1.62.73,3.44,3.05,3.1-.49-.87-.98-1.74-1.47-2.6.14-.1.27-.21.41-.31.44,1.11.89,2.19,2.56,2.31-.71-.9-1.27-1.62-1.84-2.34q2.06,1.39,3.07.96c-.69-.45-1.3-.86-1.91-1.26,1.41.5,2.7.71,3.95-.89v1.17c-.41.39-.83.77-1.33,1.24.47.15.7.22.93.29l-.19,1.07c-1.68.77-2.03,2.32-2.45,3.96h.93l-.04-.03q-.93,2.64-.61,4.67c.47.15,1,.31,1.56.49.12-.28.23-.46.28-.65.06-.28-.02-.64.13-.85,1.61-2.37,1.5-5.21,2.23-7.82.13-.48.29-.99.57-1.39.3-.45.51-1.28,1.43-.58.18.14.92-.46,1.52-.58-.49.56-.98,1.12-1.47,1.68.06.09.12.19.18.28.68-.4,1.36-.8,2.05-1.2-1.33,1.94-3.83,3.01-4.38,5.54.13.11.25.22.38.33.41-.49.81-.99,1.22-1.47,1.06-1.25,1.97-2.67,3.65-3.19,0,0-.04-.04-.04-.04-.56.62-1.1,1.27-1.69,1.86-1.27,1.28-1.54,1.66-1.77,3.14,1.45-1.74,2.91-3.48,4.36-5.22.07-.05.15-.09.23-.13,1.35-.59,2.69-1.18,4.04-1.78.03.06.06.13.09.19-1.22.78-2.45,1.56-3.67,2.34.06.11.12.23.19.34,1.2-.52,2.4-1.04,3.61-1.56.08.13.17.26.25.4-5.07,1.76-8.1,5.77-11.36,9.53.13.15.26.29.39.44,1.13-1.12,2.37-2.15,3.36-3.38,1.87-2.31,4.29-3.86,6.81-5.29,1.76-1,3.54-1.97,5.33-2.92,1.68-.89,2.26-.79,3.68.46.51.45,1.06.84,1.83,1.44-1.98.22-3.34-2.05-5.3-.47.52.23.97.48,1.44.64.54.19,1.1.37,1.67.46,1.48.24,2.17,1.41,2.8,2.52.24.42-.1,1.18-.17,1.73-.32.05-.5.14-.58.08-1.77-1.3-3.34-.19-4.96.39-.57.21-1.42.58-1.76.33-.91-.66-1.64-.16-2.28.03-.8-.52-1.49-.97-2.25-1.45-1.1,1.33-1.01,2.68-.33,3.76,1.12,1.78,1.09,3.5.49,5.39-.41,1.3-.12,1.77,1.32,2.1,2.25.51,4.18,1.57,5.9,3.07-.77-.36-1.56-.7-2.32-1.09-1.25-.64-2.41-1.56-4.01-1.21.42,3.49,1.71,6.46,3.67,9.24,1.37,1.93,2.45,4.08,3.45,6.23,2.51,5.37,4.89,10.79,7.35,16.18.19.41.55.74,1.07,1.42.19-1.6.42-2.81.46-4.03.04-1.14-.13-2.28-.21-3.43.41.15.5.32.55.5.7,2.37.3,4.74-.1,7.09-.14.81-.18,1.4.78,1.77.27-.71.52-1.39.8-2.14.3.62.55,1.12.79,1.63-.76-.46-.86.13-.89.62-.02.25.19.52.29.78.11-.08.22-.15.34-.23-.05.43-.09.86-.14,1.28,2.52-3.61,1.28-7.49,1.09-11.31.81,2.12,1.37,4.32,1.25,6.52-.13,2.22-.84,4.4-1.29,6.59.18.05.35.09.53.14.33-1.05.63-2.11.99-3.15.18-.51.47-.98.7-1.47-.11.67-.22,1.35-.33,2.02.15,0,.3,0,.45.01-.06-.68-.13-1.36-.19-2.04.49-.13.98-.25,1.58-.4-.21-1.64-.32-3.3-.67-4.92-.34-1.6-.45-3.13.26-4.68-.06,2.42.43,4.72,1.05,7.17,1.19-1.07,1.17-2.24.94-3.38-.47-2.41-.99-4.82-1.61-7.2-.19-.73-.73-1.39-1.16-2.04-1.04-1.56-2.14-3.07-3.16-4.64-.54-.83-.95-1.74-1.42-2.61.7.54,1.41,1.09,2.38,1.84,2.18-1.74,4.57-3.64,6.83-5.44q-.62,3.01-1.91,4.58c.35-.9.69-1.81,1.04-2.71-.17-.09-.34-.18-.51-.27-.88,1.81-2.28,3.3-2.8,5.33-.22.52-.43,1.03-.65,1.55.23.58.32,1.31.72,1.73,1.07,1.11,1.45,2.45,1.72,3.9.49,2.63,1.06,5.24,1.59,7.85l.05-.05c-.33,1.08-.85,2.14-.95,3.25-.18,2.09-.11,4.2-.18,6.3-.02.52-.15,1.04-.23,1.57-.15-.02-.3-.04-.46-.06.09-2.1.18-4.2.28-6.31-1.48,1.97-.47,4.24-1.21,6.36-.12-1.19-.23-2.38-.35-3.57-.16,0-.31,0-.47,0-.35,1.39-.04,2.86-.32,4.33-.12-.61-.25-1.21-.44-2.18-.46.79-.76,1.3-1.06,1.8-.15-.04-.33-.04-.38-.12-1.13-1.76-2.13-3.61-3.37-5.28-3.31-4.47-5.33-9.6-7.61-14.6-1.44-3.15-2.79-6.35-4.21-9.51-.23-.52-.54-1.03-.91-1.48-2.1-2.57-3.51-5.44-4.16-8.72-.59-3-2.72-4.78-5.23-6.26-1.6-.95-3.17-.92-5.03-.38,1.21,1.7,3.37,1.45,4.75,2.91-.44.04-.84.2-1.12.08-1.19-.5-2.57-.85-3.48-1.69-1.8-1.66-4.12-2.04-6.22-2.93-1.39-.59-2.73.47-2.91,2-.05.42,0,.84-.14,1.34-.68-1.43-1.59-2.52-3.18-2.76-1.18-.17-1.82.65-2.5,1.47.98,1.23,1.91,2.39,2.94,3.69.09-.41.15-.71.22-1.01.1-.04.2-.08.3-.11.23.72.46,1.43.72,2.23-1.29-.09-1.9-.72-2.48-1.62-1.52-2.37-3.99-3.22-6.6-3.72-.95-.18-1.44.47-1.94,1.4.61.5,1.25,1.02,1.87,1.53.65-.45,1.19-.83,1.74-1.21.08.08.16.16.23.24-.36.56-.72,1.13-1.07,1.67,1.11,1.17,2.18,2.24,3.16,3.39.28.33.27.89.39,1.35-.52.1-1.12.43-1.55.27-2.43-.88-5.07-1.28-7.19-2.96-.26-.21-.64-.27-1.41-.58.34.98.43,1.68.79,2.22,1.01,1.53,2.29,2.84,4.11,3.39,3.11.93,5.72,2.69,8.24,4.67.89.7,2,1.12,3.03,1.63,3.41,1.71,6.87,3.35,10.24,5.13,1.65.87,2.69,2.35,3.36,4.12,2.55,6.76,5.64,13.33,6.8,20.58-2.04.17-4.13.34-6.46.54.21.17.14.14.13.09-.01-.07.03-.14.03-.21,0-.14-.01-.28-.02-.41,1.06-.5,2.12-.99,3.18-1.49l-.33.89c.66-.1,1.23-.33,1.45-.75.29-.54-.19-.69-.68-.63l.25-.82-.29-.21c-1.18,1.02-2.36,2.03-3.54,3.05ZM90.07,110.05c-.89-.04-1.43.4-1.92,1.25.47.03.72.04.98.05-.71.9-1.43,1.79-2.26,2.84,2.22-1.02,4.18-1.91,6.14-2.81-.28.87-.87,1.4-1.71,1.79-1.02.48-1.95,1.13-2.92,1.7.06.12.13.25.19.37,1.09-.47,2.18-.95,3.27-1.42-.73.52-1.44,1.07-2.2,1.55-.72.46-1.49.86-2.23,1.29,2.84-.42,3.82-.98,4.94-2.55-.19-.08-.38-.16-.56-.24.71-.54,1.46-1.03,2.11-1.65.63-.6.2-.8-.44-.8.14-1.68,2.06-1.7,3.03-3.3-1.74.59-3.06,1.06-4.39,1.49-.51.17-1.04.26-1.56.38-.16.01-.32.03-.48.04ZM120.51,116.46c-.11.28-.22.57-.44,1.13,1-.42,1.76-.74,2.52-1.07-.04-.08-.07-.17-.11-.25-.67.08-1.35.17-2.02.25.6-.34,1.25-.62,1.79-1.04.2-.15.15-.63.29-1.38-1.25.9-2.13,1.54-3.25,2.35.67,0,.95,0,1.23,0ZM116.8,118.26c2.17.22,4.35.74,6.49-.19-.47-.93-.49-.98-1.06-.75-1.16.47-2.29.73-3.54.25-.74-.28-1.41.02-1.81.76q-1.37-.48-2.52-.06c1.13.84,2.28,1.13,3.68.85-.48-.33-.86-.59-1.24-.85ZM98.53,68.6c.95.49,1.87,1.09,2.87,1.44,1.21.42,2.48.66,3.74.89.23.04.54-.35.78-.51-1.44-.3-2.78-.5-4.06-.88-.81-.25-1.53-.78-2.29-1.2-.46-.26-.79-.18-.98.33-.23.14-.45.27-.79.48,1.57,2.01,3.62,2.57,5.92,2.56-.81-.45-1.71-.71-2.53-1.12-.99-.5-2.22-.74-2.65-1.99ZM62.28,90.35c-.48,2.5.5,4.02,2.89,4.97,3.33,1.33,6.77,2.16,10.28,2.57,2.95.34,5.84.27,8.38-1.91,2.15-1.85,4.85-2.36,7.74-2.2,1.39.08,2.85-.4,4.23-.77,1.11-.3,1.49-1.28.84-2.19-.78-1.09-1.44-2.29-2.92-2.77-1.97-.63-3.12-2.31-4.15-3.97-.3-.49-.33-1.5-.02-1.96.53-.78,1.29-.12,1.9.22.32.17.59.42.9.6,2.12,1.21,4.45,1.74,7.2,2.53-1.64-2.65-3.66-4.18-5.62-5.74-.69-.55-1.65-.89-2.53-1.06-7.54-1.44-14.96-.64-22.32,1.3-2.37.62-4.19,1.9-5.68,3.74-.73.9-1.49,1.8-2.03,2.8-.85,1.58-.89,3.25,0,5.08.26-1.47.49-2.75.72-4.02.09.02.19.04.28.05.47,1.7.93,3.4,1.4,5.09-.1.04-.19.09-.29.13-.4-.83-.8-1.67-1.2-2.5ZM118.84,76.18c.84.68,1.38.99,2.16.52,1-.6,1.63-1.38,1.63-2.57,0-1.05,0-2.1,0-3.41-.37.46-.81.75-.82,1.06-.05,1.99-1.14,3.3-2.98,4.4ZM104.68,69.12c-2.11-1.49-4.16-2.94-6.29-4.44.69,2.37,3.52,4.32,6.29,4.44ZM109.44,69.12c-.9.07-1.69.14-2.64.22.51,1.76,1.66,2.04,3.09,2.29-.16-.91-.29-1.64-.45-2.51ZM128.38,69.21c.76,1.39,1.84,1.2,2.9.91.86-.23,1.12-.81.79-1.66q-1.3.8-2.48.8c.07-.42.14-.83.23-1.33-.33.09-.51.09-.58.17-.28.32-.52.67-.86,1.11ZM120.46,71.48c-.6,1.09-1.19,2.18-1.79,3.27,1.85-.39,1.97-1.75,1.79-3.27ZM135.92,70.21c-.27-2.22-.74-2.69-2.39-2.83.67.79,1.44,1.7,2.39,2.83ZM122.43,78.02c.18.09.37.18.55.27.74-.85,1.6-1.65,1.06-3.25-.6,1.1-1.11,2.03-1.61,2.97ZM118.21,73.35c-.65.69-1.29,1.38-2.21,2.36,1.74-.14,2.21-1,2.21-2.36ZM74.27,99.34c-.13-.13-.26-.26-.39-.4-.72.83-1.45,1.67-2.17,2.5.11.1.22.19.34.29.74-.8,1.48-1.6,2.22-2.4ZM134.35,69.44c-.18-.86-.51-1.27-1.4-1.03-.05.53-.1.99-.16,1.65.66-.26,1.1-.44,1.56-.62ZM108.16,72.57c.5.35,1,.7,1.76,1.22.18-2.01-.89-1.45-1.76-1.22ZM126.36,68.75c.43.31.79.57,1.23.89q.04-1.49-1.23-.89Z"/>
      <path class="cls-4" d="M147.21,116.49c-.24.49-.53.96-.7,1.47-.36,1.04-.66,2.1-.99,3.15-.18-.05-.35-.09-.53-.14.46-2.2,1.17-4.38,1.29-6.59.13-2.19-.43-4.4-1.25-6.52.19,3.82,1.43,7.7-1.09,11.31.05-.43.09-.86.14-1.28.09-.39.18-.78.26-1.17-.25-.5-.49-1.01-.79-1.63-.28.75-.54,1.43-.8,2.14-.96-.36-.92-.96-.78-1.77.4-2.35.81-4.72.1-7.09-.05-.18-.14-.35-.55-.5.08,1.14.24,2.29.21,3.43-.04,1.22-.26,2.42-.46,4.03-.51-.67-.88-1.01-1.07-1.42-2.46-5.39-4.84-10.81-7.35-16.18-1-2.15-2.09-4.31-3.45-6.23-1.97-2.78-3.25-5.74-3.67-9.24,1.59-.35,2.76.57,4.01,1.21.76.39,1.54.73,2.32,1.09.31.16.62.32.93.49.07.2.07.48.21.6,3.27,2.73,6.55,5.44,9.83,8.15,0,0-.06-.01-.06-.02.47.87.88,1.78,1.42,2.61,1.02,1.57,2.12,3.08,3.16,4.64.44.65.97,1.31,1.16,2.04.62,2.38,1.13,4.79,1.61,7.2.22,1.14.25,2.31-.94,3.38-.63-2.45-1.11-4.75-1.05-7.17-.71,1.55-.6,3.08-.26,4.68.34,1.61.45,3.28.67,4.92-.59.15-1.09.28-1.58.4,0,0,.07,0,.07,0Z"/>
      <path d="M139.85,139.81c.68.3,1.29.56,1.89.83-.03.19-.05.38-.08.57-2.4.23-4.8.46-7.28.7-.03-1.78,1.3-1.06,1.88-1.57.42-2.26.37-5.93-.18-7.78-1.65,3.45-3.21,6.73-4.98,10.44-2.23-3.08-3.65-6.1-5.2-9.33-.92,1.93-.71,3.68-.56,5.43.11,1.24,1.31,1.34,2.37,2.04-.68.34-1,.6-1.35.65-1.29.16-2.59.24-3.88.34-.51.04-.51.03-1.28-1.03,1.69-.43,2.06-1.71,2.11-3.22.1-2.8.22-5.6.33-8.33-1.05-.39-1.8-.67-2.54-.94.02-.17.05-.35.07-.52,2.03-.6,4.17-.18,6.18-.59,1.79,3.09,2.1,6.64,4.48,9.78,1.19-3.43,2.26-6.51,3.35-9.67,2.19-.41,4.27-.49,6.5,0-2.29,2.38-2.31,2.38-2.29,5.82,0,1.59.08,3.18.16,4.77.03.57.19,1.13.28,1.64Z"/>
      <path d="M157.35,81.35c.27-3.74.54-7.49.8-11.24.04-.64,0-1.28,0-2.08-1.24.19-1.91.84-2.55,1.64-1.92,2.4-2.77,2.61-5.79,1.59q-1.61-.54-2.91-2.04c.71.25,1.14.39,1.64.57v-2.1c-.98.56-1.76,1-2.62,1.49.42-1.95,2.14-2.89,4.99-3.14,2.28-.21,4.19.75,6.1,1.8.5-1.65.36-2.14-.75-2.63-2.74-1.21-5.48-1.93-8.18.11-.11.09-.25.15-.38.21-.92.41-2,.64-2.7,1.29-.62.56-.81,1.59-1.3,2.36-.08-1.12.32-2.1,1-2.93.49-.6,1.05-1.18,1.67-1.62.63-.44,1.37-.94,2.09-.99,1.71-.12,3.44.01,5.17.05.14,0,.32.16.41.11,1.48-.91,2.53.2,3.78.89.22-.4.42-.74.66-1.15h7.22c-.37,1.51.28,2.93-.7,4.09.29.18.63.4.97.62-.13.17-.26.34-.39.51-2.1-.41-3.71-1.91-5.89-3.07,1.09,2.67,2.87,3.81,5.45,4.02-.27.43-.41.65-.55.88,1.99,1.19,1.81,2.28-.92,6.08.54-.37,1.08-.74,1.84-1.26v6.16c-1.31-.15-2.43-.23-3.53-.41-.85-.14-1.69-.37-2.51-.65-.97-.33-1.63.04-2.18.78,0,0,.05.05.05.05ZM153.02,67.85c-.7.52-1.25,1.02-1.89,1.35-.21.11-.66-.25-1.1-.43.38-.31.58-.48.91-.75-.61-.08-1.12-.15-1.64-.22-.31.97-.31,1.76.59,2.15.88.39,1.84.52,2.66-.15.64-.52,1.12-1.15.46-1.96ZM163.23,71.36c-1.5-1.15-2.71-2.08-4.14-3.17.03.59-.09,1.03.08,1.21.99,1.04,2.16,1.8,4.06,1.96ZM160.21,79.38c0,.16,0,.32,0,.47.92.08,1.83.17,2.92.27-.9-1.92-1.97-.92-2.93-.74ZM165.2,72.98c-.22-.15-.44-.31-.66-.46-.94.82-1.09,2.14-1.8,3.11.13.09.25.18.38.26.69-.97,1.38-1.94,2.08-2.91ZM164.89,65.51c.08-.21.17-.41.25-.62-.88.02-1.2-1.36-2.77-.44,1.02.43,1.77.74,2.52,1.06ZM160.89,64.33c-.12.17-.24.34-.36.5.63.3,1.25.6,1.88.9.05-.11.11-.23.16-.34-.56-.36-1.12-.71-1.68-1.07ZM162.04,75.5c-.09-.12-.17-.25-.26-.37l-1.53,1.08c.08.11.16.23.24.34.51-.35,1.03-.7,1.54-1.06Z"/>
      <path d="M52.06,141.8c.1-.41.09-.72.21-.8,1.64-.96,1.65-2.5,1.57-4.12-.09-1.73-.05-3.47-.1-5.2-.04-1.35-.05-2.72-1.46-3.38.15-1.02.83-1.13,1.48-1.15,2.76-.09,5.49.12,8.13,1.01.2.07.41.16.59.26,1.01.57,2.15,1.1,2.18,2.46.03,1.31-1.07,1.77-2.03,2.28-.12.06-.2.19-.44.41.78.61,1.59,1.16,2.29,1.82.84.8,1.72,1.68,1.31,3-.41,1.33-1.37,2.2-2.75,2.51-.77.17-1.57.24-2.36.3-2.8.21-5.6.39-8.62.6ZM57.3,135.36c-.82,3.31-.12,4.38,2.69,4.32.99-.02,1.75-.31,2.03-1.26.27-.92-.14-1.74-.87-2.3-1.15-.88-2.45-1.16-3.84-.76ZM57.23,133.52c1.16-.31,1.95-.42,2.65-.74,1.54-.7,1.61-2.24.16-3.16-.89-.56-1.86-.64-3.11-.21.09,1.25.18,2.49.3,4.1Z"/>
      <path d="M96.47,127.81c2.27-.52,4.34-.48,6.56-.11-2.48,1.5-1.81,3.86-2.03,5.9-.24,2.23-.13,4.46.43,6.65.71.28,1.35.54,2.16.86-1.1,1.31-2.42.59-3.52.79-1.11.2-2.28.04-3.31.04-.57-1.76,1.05-1.27,1.41-1.95,0-1.57,0-3.15,0-4.91h-6.13c-.59,1.88-.12,3.56-.01,5.16.55.63,1.8-.2,1.92,1.35h-6.53s-.05-.26,0-.29c1.53-.84,1.79-2.21,1.75-3.8-.06-2.67-.02-5.34-.02-7.92-.78-.49-1.43-.9-2.16-1.36,1.55-.78,3.97-.91,6.72-.43,0,.14.04.39.02.39-1.86.52-2.17,1.78-1.75,3.46.16.62.18,1.28.27,2.01h5.92c-.37-2.13.65-4.32-1.71-5.83Z"/>
      <path d="M68.72,134.89c-.03-3.95,1.74-6.17,5.52-7.26,3.32-.96,7.76,1.07,9.3,3.65,2.07,3.45,1.15,7.39-2.43,9.26-3.46,1.81-6.87,1.41-10.05-.76-1.69-1.15-2.35-2.88-2.34-4.88ZM80.82,134.65c-.38-1.36-.53-2.84-1.2-4.04-.79-1.41-3.07-1.88-4.69-1.29-1.75.63-2.79,1.99-2.74,3.78.04,1.55.42,3.15.96,4.61.78,2.1,3.02,2.77,5.02,1.75,1.95-1,2.46-2.71,2.65-4.8Z"/>
      <path d="M105.86,127.54h12.14v3.77c-.58-.26-1.27-.39-1.3-.6-.22-1.82-1.59-1.85-2.89-1.95-.91-.07-1.84-.01-2.89-.01-.14,1.68-.25,3.09-.37,4.49,2.1.59,2.13.58,4.33-2.18.2,1.91.42,3.5.5,5.09.02.28-.49.6-.85,1-.98-1.17-1.54-3.05-3.82-1.63.13.95.21,2.08.46,3.16.35,1.49.77,1.87,2.22,1.84,1.77-.04,3.49-.27,4.21-2.33.12-.34.64-.55,1.24-1.02.42,1.67.35,2.89-.26,4.07-.15.08-.27.21-.4.21-3.53.13-7.07.25-10.6.36-.57.02-1.2.11-1.38-.89,1.24-.34,1.2-1.4,1.28-2.48.15-1.94.49-3.87.61-5.82.07-1.14-.11-2.29-.27-3.42-.39-.87-1.94-.01-1.97-1.66Z"/>
      <path d="M168.71,140.95c-2.45.92-4.79.65-7.03.83-.83-1.7.97-1.35,1.34-2.14-.18-.63-.38-1.31-.64-2.21-.93,0-1.86-.03-2.78,0-1.99.09-2.13.24-2.56,2.39.41.61,1.76-.14,1.69,1.37-1.84.21-3.71.41-5.57.62-.08-.15-.16-.3-.24-.45.28-.3.52-.8.85-.87.99-.2,1.48-.87,1.83-1.68.66-1.52,1.31-3.05,1.9-4.6.84-2.22,1.63-4.46,2.4-6.59,1.37-.51,2.01-.03,2.39,1.17.59,1.86,1.29,3.68,1.96,5.51.93,2.51,1.24,5.43,4.46,6.64ZM161.92,135.71c-.69-1.49-1.23-2.66-1.77-3.83-.16.01-.32.03-.48.04-.45,1.26-.9,2.51-1.43,3.97,1.34-.07,2.32-.11,3.68-.18Z"/>
      <path d="M146.11,129.44c-.72-.25-1.23-.43-1.77-.62.02-.32-.03-.65.07-.7.42-.23.88-.52,1.34-.53,1.72-.06,3.45-.02,5.15-.02.42.74.13,1.28-.48,1.41-1.19.24-1.45,1.05-1.51,2.04-.06.93-.11,1.86-.08,2.79.04,1.3.18,2.59.22,3.88.04,1.33.04,2.65,1.75,3.03.16.04.24.45.48.95-2.32.15-4.42.28-6.47.41-.49-.8-.43-1.36.32-1.71.64-.3,1.01-.7,1.01-1.48-.03-3.09-.01-6.19-.01-9.45Z"/>
      <path d="M161.22,111.32c1.35-.55,1.99-1.57,1.83-3-.23-2.06.83-3.78,1.44-5.6.1-.28.66-.41,1.13-.67.28,1.93.01,3.63-.74,5.22-.65,1.37-1.29,2.78-2.19,3.98-2.54,3.39-4.39,7.13-5.97,11.03-.17.43-.42.84-.92,1.18-.22-3.17-.43-6.34-.65-9.51.09,0,.19-.01.28-.02.2,2.29.41,4.57.63,7.08.84-.64.98-1.22.79-2.08-.27-1.24-.34-2.53-.14-3.83.1,1.02.2,2.04.3,3.16,1.63-1.24,1.94-2.47,1.74-4.19-.21-1.85-.22-3.76-.09-5.62.21-3,.59-6,1.25-8.96-.18,2.51-.37,5.01-.57,7.74.87-.77.9-.76,1.35-4.18.19-1.47.26-2.97.4-4.71.77,1.08,1.35,1.88,2.12,2.96-.67-.31-1.08-.49-1.77-.81-.3,3.71-1.14,7.28-.17,10.92-.41-.69-.83-1.37-1.26-2.1-.8,1.49-.75,3.03-.39,4.58.15.04.31.08.46.12.37-.89.75-1.79,1.12-2.68ZM163.52,107.24c1.36-1.43,1.43-1.68,1.28-4.06-.53,1.67-.91,2.86-1.28,4.06Z"/>
      <path d="M56.94,115.5c1.15-1.73,2.29-3.45,3.44-5.18.22-.15.44-.3.66-.45.18.28.34.54.5.78.86-.84,1.61-1.57,2.36-2.3l-.04-.04c-.17.67-.23,1.39-.54,1.98-.43.82-1.04,1.55-1.65,2.42.6,1.29.85,2.55-.25,3.87-.42.5-.23,1.52-.27,2.31-.02.43.13.87.06,1.29-.1.64-.31,1.25-.48,1.88-1.43-.62-1.21,2.02-2.82,1.25.07-.73.14-1.53.22-2.34,0,0-.05.03-.05.03,0-.16,0-.31,0-.47.24-.24.49-.48.74-.72.62-.55,1.25-1.11,1.87-1.66-.09-.1-.17-.2-.26-.31-.35.27-.69.54-1.04.81-.02-.2-.03-.4-.08-.93-2.39,1.7-3.89,3.86-5.54,6.06.03-.51.06-1.02.09-1.53.14-.21.29-.42.43-.62,1.7-1.69,2.36-3.83,2.64-6.13ZM58.76,116.22c1.56-.52,1.6-.61,1.05-2.01-.36.69-.67,1.28-1.05,2.01Z"/>
      <path d="M115.59,107.01c-.68.49-1.32,1.05-2.04,1.46-1.42.81-2.54,1.85-3.2,3.38-.68,1.58-1.82,2.72-3.38,3.49-4.05,2-7.59,4.68-10.55,8.11-.17.2-.45.33-.7.43-.09.04-.25-.09-.59-.22,1.1-1.29,2.16-2.51,3.19-3.75.86-1.04,1.71-2.09,2.5-3.17.14-.19-.11-.66.02-.89.21-.37.57-.66.87-.98,0,0-.03-.04-.03-.04.12.25.23.5.35.75,3.52-1.69,8.02-4.8,8.58-6-.75.3-1.4.55-2.06.81,1.99-1.9,4.63-2.42,7.08-3.35l-.04-.04Z"/>
      <path d="M143.03,93.8c-3.28-2.71-6.56-5.42-9.83-8.15-.14-.12-.14-.39-.21-.6,1.23,1.05,2.56,1.3,4.18.96,1.02-.22,2.17.15,3.73.3,1.69-1.23,3.95-.25,6.66-.09-2.75,1.89-4.89,3.93-8.2,3.59,1.4,1.47,2.94,1.15,4.71.37q-.98,1.07-2.63,1.43c.54.74,1.06,1.47,1.58,2.2ZM142.55,86.99c.01.17.02.35.04.52.96-.17,1.92-.34,2.87-.52-1.06-.66-2.04-.73-2.91,0ZM140.93,88.37c.04.19.08.38.12.56.94.28,1.72.03,2.67-1.13-1.21.25-2,.41-2.79.57Z"/>
      <path d="M82.99,103.11c-1.59,1.59-2.26,3.68-2.94,5.71-1.48,4.38-2.85,8.8-4.15,13.25-.28.97-1.15,1-1.75,1.55.81-3.07,1.61-6.14,2.44-9.2.17-.62.57-1.22-.14-1.76,0,0,.04.04.04.04.38-.9.75-1.81,1.14-2.71.63-1.49,1.65-2.82,1.49-4.6-.04-.44.53-.93.81-1.39.8-.71,1.59-1.43,2.39-2.14l1.71-1.21c-.37.85-.75,1.71-1.12,2.56,0,0,.07-.08.07-.08ZM78.31,111.93c-.96,1.46-1.43,3.08-1.36,4.87.44-1.64.87-3.28,1.3-4.92.69-1.06.98-2.24,1.09-3.47-.78,1.05-1.27,2.19-1.04,3.53Z"/>
      <path d="M90.85,121.83v-1.37c-1.34,1.16-2.53,2.19-3.79,3.28-.5-.87-1.19-.48-1.79-.13-.9-1.5.92-1.52,1.08-2.38-.2.26-.38.52-.57.78.15.09.3.18.45.28.2-.45.41-.89.61-1.34.46-.28.96-.5,1.36-.84.46-.4.83-.92,1.23-1.38.49.34.83.57,1.15.79,2.04-1.75,3.65-4.04,6.4-4.66.13.12.26.24.39.36-.6.91-1.19,1.82-1.97,3.01.65-.17.98-.25,1.56-.4-.36.63-.61,1.08-.93,1.64.43-.04.73-.06,1.05-.09-.03.13-.02.3-.09.36-.62.49-1.18.87-2.13.56-.5-.16-1.24.4-1.86.64l.04.04c.49-.96.98-1.92,1.47-2.88-.07-.05-.15-.11-.22-.16-1.16,1.29-2.31,2.59-3.47,3.88l.04.03Z"/>
      <path d="M109.57,116.15c-.16.23-.32.46-.48.68-.49.88-1.35,1.64-.89,2.82,0,0,.04-.03.04-.03-.64-.11-1.09-1.4-2.05-.1.38.55.81,1.16,1.23,1.78-.69-.52-1.38-1.05-2.27-1.72v1.82l.05-.03c-.24-.32-.49-.64-.85-1.12-2.35.98-3.24,4.03-6.19,4.33-.51-.91.11-1.45.99-1.88.56-.46,1.13-.92,1.69-1.39,1.83-.96,3.18-2.73,5.37-3.12.4-.07.69-.68,1.09-.98.72-.54,1.49-1.03,2.23-1.54.01.16.02.31.03.47Z"/>
      <path d="M79.03,121.37c-.05.14-.1.27-.16.41-.29.48-.59.96-1,1.63-.5-.97-.17-1.77.1-2.48,1.05-2.83,2.15-5.63,3.28-8.43.17-.42.59-.73.89-1.1,0,0-.04-.04-.04-.04.07.26.13.51.2.78.69-.55,1.35-1.08,2.02-1.61l-.04-.04c.08.44.16.88.24,1.32-2.54,2.28-3.98,5.29-5.4,8.3-.17.36-.07.84-.1,1.26Z"/>
      <path d="M65.36,124.78c-1.23-3.84,1.39-5.8,3.03-8.48-.1,1.91-2.12,2.79-1.68,4.98.84-1.25,1.49-2.23,2.15-3.21.11.04.22.08.34.12-.42,1.87-.84,3.73-1.32,5.84-.23-.62-.41-1.1-.66-1.77-.61.82-1.15,1.57-1.86,2.52Z"/>
      <path class="cls-4" d="M94.68,66.14c.12,2.1,1.47,3.44,3.07,4.42,1.39.85,3,1.32,4.51,2.24-1.37-.15-3.13.17-4.02-.56-1.38-1.12-3.05-1.68-4.33-2.82-1.13-1.01-.9-2.38.37-3.7l.4.42Z"/>
      <path d="M73.34,117.96c1.05-1.76,2.11-3.52,3.16-5.28,0,0-.04-.04-.04-.04-1.15,3.65-2.29,7.29-3.44,10.94-.15-.01-.29-.03-.44-.04-.1-.23-.29-.47-.28-.7.03-1.19.03-2.4.22-3.57.08-.49.59-.92.9-1.38.03.54.06,1.07.08,1.61.09.01.19.02.28.04.17-.57.33-1.15.52-1.81-.43.1-.7.17-.96.23Z"/>
      <path d="M118.1,103.35c-2.57.4-5.14.75-7.69,1.23-.72.14-1.88.15-1.53,1.51-1.25.94-2.5,1.88-4.04,3.05-.09-.75-.31-1.26-.15-1.44.66-.75,1.33-1.6,2.18-2.07,3.49-1.93,7.18-3.02,11.24-2.28,0,0,0,0,0,0Z"/>
      <path d="M141.44,82.43c-.44-.16-.85-.31-1.49-.55,1.29-.55,2.28-1.14,3.36-1.37.59-.13,1.31.35,2.17.62-.06-.66-.13-1.44-.2-2.22.11-.02.21-.04.32-.05.19.9.37,1.79.59,2.87-1.19.11-2.14.18-3.08.29-.98.12-.91,2.02-2.45,1.35.27-.32.52-.62.78-.93Z"/>
      <path d="M154.31,87.45c1.01-2.03,2.03-4.06,3.04-6.1,0,0-.05-.05-.05-.05.01,1.51.07,3.03.01,4.54-.01.4-.35.79-.54,1.19,0,0-.12.1-.12.1-.31.19-.61.38-1.2.74.22-.93.36-1.51.53-2.23-.64.66-1.18,1.21-1.72,1.76,0,0,.05.04.05.04Z"/>
      <path d="M87.81,99.62c-1.49,1.6-2.98,3.2-4.62,4.96-.09-.66-.15-1.07-.2-1.48,0,0-.07.08-.08.08,1.12-1.18,2.26-2.35,3.37-3.55.63-.68,1.22-1.39,2.06-1.85-.2.64-.41,1.27-.61,1.91,0,0,.07-.08.07-.08Z"/>
      <path d="M154.6,122.85c-.86-3.09-.91-6.19,0-9.3v9.3Z"/>
      <path class="cls-4" d="M109.57,116.15c-.01-.16-.02-.31-.03-.47,0,0-.05.08-.05.08.79-.46,1.58-.91,2.37-1.37.31-.16.61-.32.92-.48,1.25-.62,2.39-1.51,3.93-1.7-.1.4-.17.66-.24.93l.08-.07c-.61.46-1.21.92-1.82,1.38,0,0,.08-.08.08-.08-.84.38-1.66.82-2.53,1.12-.87.29-1.79.44-2.69.65Z"/>
      <path d="M151.37,112.14c.11.41.3.81.31,1.22.03,3.1.01,6.19-.15,9.29-1.21-3.49-.32-7.03-.12-10.55,0,0-.04.04-.04.04Z"/>
      <path d="M87.74,99.7c1.06-1.05,2.12-2.09,3.19-3.14v.98c.82-.36,1.47-.64,2.11-.92l-.04-.04c-.45.43-.86.91-1.35,1.29-1.28,1.02-2.58,2-4.09,3.16.11-.64.18-1.02.25-1.4,0,0-.07.08-.07.08Z"/>
      <path d="M139.18,82.55c-.89-.12-1.84-.26-2.8-.37-1.42-.16-1.59-.45-1.11-2.45.14.7.22,1.12.31,1.55,2.21-.81,2.58-.67,3.6,1.26Z"/>
      <path class="cls-4" d="M70.01,106.57c-1.29,1.93-2.58,3.85-3.87,5.78-.09-.04-.19-.08-.28-.12.06-.78.12-1.55.19-2.33,0,0,0-.01,0-.01,1.33-1.11,2.65-2.21,3.98-3.32Z"/>
      <path d="M87.18,108.28q3.41-3.3,4.55-3.58c-1.24,1.27-2.74,2.86-4.3,4.38-.66.64-1.46,1.13-2.19,1.69.12-.36.24-.72.36-1.08.53-.47,1.05-.94,1.58-1.41Z"/>
      <path d="M113.25,67.02c.06-.36.13-.72.19-1.07.28-.38.57-.75.85-1.13.27-.06.53-.12.87-.19,0,.24.07.48-.01.63-.97,1.79-1.97,3.58-2.97,5.35-.09.15-.32.22-.49.33,0,0,.04.03.04.03.51-1.32,1.02-2.64,1.53-3.96Z"/>
      <path d="M153.07,123.41v-9.79c.09,0,.19,0,.28,0v9.84c-.09-.02-.19-.04-.28-.05Z"/>
      <path d="M70.01,106.57c-1.33,1.11-2.65,2.21-3.98,3.32-.09-1.72,1.14-2.5,2.34-3.31.58-.39,1.13-.8,1.7-1.21-.05.42-.1.85-.14,1.27l.08-.07Z"/>
      <path d="M64.71,119.62c-.3,1.48-.6,2.97-.94,4.67-1.16-1.68-.96-2.42.99-4.63l-.05-.04Z"/>
      <path class="cls-4" d="M147.98,97.11c.52-2.03,1.92-3.52,2.8-5.33.17.09.34.18.51.27-.35.9-.69,1.81-1.04,2.71-.24.24-.47.48-.71.72-.52.54-1.04,1.08-1.56,1.62Z"/>
      <path d="M82.32,101.84c-.8.71-1.59,1.43-2.39,2.14.68-1.95,2.04-3.39,3.53-4.74,0,0-.05-.04-.05-.04-.37.88-.73,1.76-1.1,2.65Z"/>
      <path d="M159.63,83.8c.73,1.39,1.07,2.67.18,3.95q-.7-2.23-.18-3.95Z"/>
      <path d="M92.99,120.92c-.6,1.46-1.52,2.57-3.32,3.07,0-1.12.38-1.75,1.18-2.16l-.04-.03c.08.25.16.5.25.77.7-.57,1.34-1.09,1.97-1.61l-.04-.04Z"/>
      <path d="M83.46,99.24c-.17-.91.51-1.29,1.11-1.66.6-.37,1.28-.62,2.16-.74-.72,1.06-1.43,2.11-2.15,3.17.17-.62.35-1.25.64-2.31-.85.71-1.33,1.1-1.81,1.5l.05.04Z"/>
      <path class="cls-4" d="M83.42,99.19c.48-.4.95-.79,1.81-1.5-.3,1.06-.47,1.69-.64,2.31-.19.21-.37.41-.55.62l-1.71,1.21c.37-.88.73-1.76,1.1-2.65Z"/>
      <path d="M87.18,108.28c-.53.47-1.05.94-1.58,1.41-.44.27-.87.53-1.31.8l.04.04c.07-.3.15-.61.22-.91.2-.3.41-.6.61-.9.74-.55,1.48-1.1,2.22-1.65l-.04-.04c-.05.42-.11.83-.16,1.25Z"/>
      <path d="M85.16,108.72c-.2.3-.41.6-.61.9-.81.58-1.63,1.16-2.44,1.74,0,0,.04.04.04.04.52-1.68,2.04-2.45,3.35-3.48-.11.27-.23.53-.34.8Z"/>
      <path d="M100.84,121.31c-.56.46-1.13.92-1.69,1.39.76-1.03,1.52-2.06,2.29-3.09.12.09.25.18.37.27-.32.48-.65.95-.97,1.43Z"/>
      <path d="M96.33,103.5c.82-.9,1.53-1.69,2.33-2.57q.1,1.8-2.33,2.57Z"/>
      <path d="M105.64,110.53c1.44-.87,2.89-1.74,4.33-2.61,0,0-.03-.04-.03-.04-1.45.87-2.9,1.74-4.35,2.61,0,0,.04.04.04.04Z"/>
      <path d="M58.09,121.01s.05-.03.05-.03c-.82,1-1.63,2.01-2.51,3.09.24-1.31.83-2.4,1.78-3.29.08-.08.45.15.68.23Z"/>
      <path d="M70.11,111.4c-.2-.03-.41-.05-.61-.08.45-.72.91-1.45,1.36-2.17.18.29.36.57.54.86-.43.46-.86.93-1.29,1.39Z"/>
      <path d="M71.04,103.9l1.54-1.17c-.09.28-.17.56-.26.85-.28.42-.57.83-.85,1.25-.49.21-.99.42-1.48.63.35-.52.7-1.04,1.05-1.55Z"/>
      <path d="M87.38,107.07c.19-1.64,1.57-2.11,2.45-3.08-.83,1.01-1.66,2.03-2.49,3.04,0,0,.04.04.04.04Z"/>
      <path d="M147.98,97.11c.52-.54,1.04-1.08,1.56-1.62-.31,1.36-.93,2.5-2.21,3.18.22-.52.43-1.04.65-1.55Z"/>
      <path d="M156.65,87.13s.12-.1.12-.1c.34,1.37-.58,2.19-1.49,3.01.46-.97.91-1.94,1.37-2.91Z"/>
      <path d="M101.71,114.88c.16-.45.22-.98.49-1.34.29-.38.79-.6,1.2-.9,0,0,.12.11.12.11-.03.26-.05.52-.08.78-.59.43-1.17.87-1.76,1.3,0,0,.03.04.03.04Z"/>
      <path d="M144.92,76.95c-.42.54-.75.96-1.35,1.73-.09-.93-.14-1.44-.19-1.94.51.07.88.12,1.54.22Z"/>
      <path d="M91.23,96.25c1.12-1.1,1.13-1.1,2.62-.18-.34.2-.6.35-.86.5,0,0,.04.04.04.04-.42-1.02-1.16-.44-1.81-.36Z"/>
      <path d="M109.98,107.92c.93-1.06,2.13-1.56,3.49-1.74,0,0-.04-.04-.04-.04-1.16.58-2.32,1.16-3.48,1.74l.03.04Z"/>
      <path class="cls-4" d="M91.23,96.25c.64-.08,1.38-.66,1.81.36-.64.28-1.29.56-2.11.92v-.98c.11-.09.21-.19.31-.3Z"/>
      <path d="M103.39,112.64c.15-1.34,1.17-1.75,2.25-2.11,0,0-.04-.04-.04-.04-.53.73-1.07,1.46-1.6,2.18-.16.03-.32.05-.48.08l-.12-.11Z"/>
      <path class="cls-4" d="M114.29,64.81c-.28.38-.57.75-.85,1.13-.23-.07-.45-.14-.93-.29.5-.47.92-.85,1.33-1.24.15.13.3.26.45.39Z"/>
      <path d="M105.02,80.64c.4.49.79.98,1.42,1.76-1.27-.27-1.43-.94-1.42-1.76Z"/>
      <path d="M121.52,65.79c-.08.04-.15.08-.23.13-.3.07-.61.15-.91.22,0,0,.04.04.04.04.53-.59,1.06-1.17,1.59-1.76l.31.23c-.27.38-.53.76-.8,1.13Z"/>
      <path class="cls-4" d="M84.29,110.49c.44-.27.87-.53,1.31-.8-.12.36-.24.72-.36,1.08-.24.35-.48.69-.72,1.04-.08-.44-.16-.88-.24-1.32Z"/>
      <path class="cls-4" d="M59.4,118.66c.35-.27.69-.54,1.04-.81.09.1.17.2.26.31-.62.55-1.25,1.11-1.87,1.66.17-.36.34-.71.51-1.07l.06-.09Z"/>
      <path d="M111.85,114.39c-.79.46-1.58.91-2.37,1.37.79-.46,1.58-.91,2.37-1.37Z"/>
      <path d="M117.07,97.54c-.25-.34-.5-.68-.75-1.02.1-.07.2-.15.3-.22.24.34.48.69.72,1.03-.09.07-.19.14-.28.21Z"/>
      <path class="cls-4" d="M86.83,120.94c-.2.45-.41.89-.61,1.34-.15-.09-.3-.18-.45-.28.19-.26.37-.51.57-.78.17-.1.33-.19.49-.28Z"/>
      <path class="cls-4" d="M70,105.46c.49-.21.99-.42,1.48-.63-.52.61-1.03,1.21-1.55,1.82.05-.42.1-.85.14-1.27,0,0-.07.08-.07.08Z"/>
      <path d="M64.75,119.66c.3-.64.6-1.28.91-1.92.13.08.26.17.4.25-.45.54-.9,1.08-1.35,1.62,0,0,.05.04.05.04Z"/>
      <path class="cls-4" d="M71.4,110.01c-.18-.29-.36-.57-.54-.86l-.07.1c.46-.3.91-.59,1.37-.89l-.04-.04c-.1.35-.21.7-.31,1.05-.14.22-.27.44-.41.66Z"/>
      <path d="M59.33,118.75c-.17.36-.34.71-.51,1.07-.25.24-.49.48-.74.72-.29-1.09.47-1.45,1.25-1.79Z"/>
      <path d="M117.79,105.69c-.73.44-1.47.88-2.2,1.32,0,0,.04.04.04.04.73-.44,1.46-.87,2.19-1.31,0,0-.04-.05-.04-.05Z"/>
      <path d="M154.26,87.41c-.24.54-.49,1.09-.73,1.63-.14-.09-.29-.18-.43-.27.4-.44.81-.88,1.21-1.32,0,0-.05-.04-.05-.04Z"/>
      <path d="M159.99,89.69c.18-.47.36-.95.53-1.42.1.03.19.07.29.1-.17.48-.33.96-.5,1.43-.11-.04-.21-.07-.32-.11Z"/>
      <path d="M65.16,106.57l-1.3,1.74s.04.04.04.04c.43-.58.87-1.16,1.3-1.74,0,0-.04-.04-.04-.04Z"/>
      <path class="cls-4" d="M62.28,90.35c.4.83.8,1.66,1.2,2.5.1-.04.19-.09.29-.13-.47-1.7-.93-3.4-1.4-5.09-.09-.02-.19-.04-.28-.05-.23,1.28-.45,2.55-.72,4.02-.9-1.83-.85-3.5,0-5.08.54-1.01,1.31-1.91,2.03-2.8,1.49-1.85,3.32-3.12,5.68-3.74,7.36-1.93,14.78-2.74,22.32-1.3.88.17,1.84.51,2.53,1.06,1.96,1.56,3.98,3.09,5.62,5.74-2.75-.79-5.08-1.32-7.2-2.53-.31-.18-.59-.43-.9-.6-.61-.34-1.36-1-1.9-.22-.31.46-.29,1.46.02,1.96,1.03,1.66,2.18,3.34,4.15,3.97,1.48.48,2.14,1.68,2.92,2.77.65.91.27,1.89-.84,2.19-1.38.38-2.84.85-4.23.77-2.89-.16-5.59.35-7.74,2.2-2.54,2.19-5.44,2.26-8.38,1.91-3.52-.41-6.95-1.24-10.28-2.57-2.39-.95-3.37-2.48-2.89-4.97ZM63.98,88.88c-.35,1.23-.25,2.35.96,3.53-.39-1.44-.68-2.49-.96-3.53Z"/>
      <path class="cls-4" d="M108.2,119.66c-.46-1.18.4-1.94.89-2.82q1.67-.24,3.56.46h0c2.15,3.13,5.6,2.35,8.9,2.86-2.22,1.58-4.55,1.72-6.9,1.81-2.46.09-4.65-.53-6.44-2.3Z"/>
      <path class="cls-4" d="M65.2,106.61c-.43.58-.87,1.16-1.3,1.74-.75.73-1.5,1.46-2.36,2.3-.15-.24-.32-.49-.5-.78-.22.15-.44.3-.66.45.33-.7.6-1.45,1-2.11,2.28-3.77,5.71-6.49,8.8-9.51.24-.23.72-.22,1.31,0-1.14,1.22-2.37,2.38-3.41,3.69-1.06,1.33-1.93,2.8-2.88,4.21Z"/>
      <path class="cls-4" d="M70.87,109.15c-.45.72-.91,1.45-1.36,2.17-.75,1.09-1.5,2.17-2.52,3.66.04-.82-.07-1.24.09-1.53,1.66-3.07,3.09-6.26,6.13-8.42,1.72-1.23,3.02-3.05,4.5-4.6,0,0-.06.09-.06.09.24-.13.48-.26,1.15-.62-.39.72-.51,1.08-.74,1.34-1.81,1.94-3.72,3.78-4.55,6.44-.1.33-.9.44-1.37.65,0,0,.04.04.04.04-.08-.22-.16-.44-.35-.96-.43.79-.72,1.32-1.01,1.85l.07-.1Z"/>
      <path class="cls-4" d="M117.82,105.74c-.73.44-1.46.87-2.19,1.31-2.44.93-5.09,1.46-7.07,3.35-.79.46-1.59.92-2.38,1.38-.73.29-1.46.59-2.19.88.53-.73,1.07-1.46,1.6-2.18,1.45-.87,2.9-1.74,4.35-2.61,1.16-.58,2.32-1.16,3.48-1.74.89-.21,1.79-.4,2.67-.64.63-.17,1.24-.44,1.73.25Z"/>
      <path class="cls-4" d="M90.54,110c.52-.12,1.06-.21,1.57-.38,1.33-.43,2.65-.9,4.39-1.49-.97,1.59-2.9,1.62-3.03,3.3-.15-.02-.3-.03-.45-.05-1.96.9-3.92,1.79-6.14,2.81.83-1.05,1.55-1.94,2.26-2.84l-.08.07c.64-.32,1.56-.34,1.49-1.41Z"/>
      <path class="cls-4" d="M118.84,76.18c1.84-1.11,2.93-2.41,2.98-4.4,0-.31.45-.6.82-1.06,0,1.31,0,2.36,0,3.41,0,1.2-.64,1.97-1.63,2.57-.78.47-1.33.16-2.16-.52Z"/>
      <path class="cls-4" d="M116.01,115.28c-.28-.04-.57-.13-.85-.1-.89.07-.36-.48-.37-.79,0,0-.08.08-.08.08.61-.46,1.21-.92,1.82-1.38,0,0-.08.07-.08.07.78-.58,1.58-1.14,2.34-1.74.65-.52,1.26-1.1,1.9-1.66,1.14.79.24,1.44.1,2.09,0,0,.08-.06.08-.06-.61.46-1.22.92-1.83,1.37l.09-.08c-.81.37-1.65.69-2.4,1.15-.33.2-.49.7-.72,1.06Z"/>
      <path class="cls-4" d="M112.65,117.29c2.94-1.23,5.88-2.46,8.9-3.73-1.52,2.3-4.65,3.59-8.9,3.73,0,0,0,0,0,0Z"/>
      <path class="cls-4" d="M104.68,69.12c-2.78-.13-5.6-2.08-6.29-4.44,2.13,1.51,4.18,2.96,6.29,4.44Z"/>
      <path class="cls-4" d="M107.42,121.3c-.43-.61-.85-1.23-1.23-1.78.96-1.3,1.42,0,2.05.1.55.79,1.09,1.59,1.7,2.48-.59.56-1.32,0-2.03-.06-.17-.25-.33-.5-.5-.75Z"/>
      <path class="cls-4" d="M98.58,68.66c.2-.5.53-.58.99-.32.75.42,1.48.95,2.29,1.2,1.28.39,2.62.58,4.06.88-.23.16-.54.55-.78.51-1.26-.23-2.54-.47-3.74-.89-1-.35-1.92-.95-2.87-1.44l.05.06Z"/>
      <path class="cls-4" d="M116.87,118.33c.4-.74,1.07-1.04,1.81-.76,1.25.48,2.38.21,3.54-.25.57-.23.59-.17,1.06.75-2.15.93-4.33.41-6.49.19l.07.07Z"/>
      <path class="cls-4" d="M93.01,111.38c.15.02.3.03.45.05.64,0,1.07.2.44.8-.64.61-1.4,1.1-2.11,1.65,0,0,.06-.06.06-.06-1.09.47-2.18.95-3.28,1.42-.06-.12-.13-.25-.19-.37.97-.58,1.9-1.23,2.92-1.7.84-.39,1.43-.91,1.71-1.79Z"/>
      <path class="cls-4" d="M109.44,69.12c.16.87.29,1.6.45,2.51-1.42-.25-2.58-.53-3.09-2.29.94-.08,1.74-.14,2.64-.22Z"/>
      <path class="cls-4" d="M98.53,68.6c.44,1.26,1.66,1.49,2.65,1.99.82.41,1.72.67,2.53,1.12-2.3.01-4.35-.55-5.92-2.56.34-.21.57-.34.79-.48,0,0-.05-.07-.05-.07Z"/>
      <path class="cls-4" d="M56.94,115.5c-.28,2.3-.94,4.44-2.64,6.13.27-2.31,1.22-4.32,2.64-6.13Z"/>
      <path class="cls-4" d="M128.38,69.21c.34-.44.58-.79.86-1.11.08-.09.26-.08.58-.17-.09.5-.16.91-.23,1.33q1.18,0,2.48-.8c.32.85.06,1.43-.79,1.66-1.06.29-2.14.48-2.9-.91Z"/>
      <path class="cls-4" d="M120.38,66.15c.3-.07.61-.15.91-.22-1.45,1.74-2.91,3.48-4.36,5.22.23-1.49.49-1.86,1.77-3.14.59-.59,1.13-1.24,1.69-1.86Z"/>
      <path class="cls-4" d="M107.42,121.3c.17.25.33.5.5.75-.22.16-.51.52-.64.46-.73-.32-1.42-.73-2.13-1.12v-1.82c.89.67,1.58,1.2,2.27,1.72Z"/>
      <path class="cls-4" d="M91.8,113.88c.19.08.38.16.56.24-1.12,1.57-2.1,2.12-4.94,2.55.75-.43,1.51-.83,2.23-1.29.75-.48,1.47-1.03,2.2-1.56,0,0-.05.06-.05.06Z"/>
      <path class="cls-4" d="M120.46,71.48c.18,1.52.06,2.88-1.79,3.27.6-1.09,1.19-2.18,1.79-3.27Z"/>
      <path class="cls-4" d="M113.25,67.02c-.51,1.32-1.02,2.64-1.53,3.96-.26,0-.52,0-.93,0,.42-1.64.77-3.19,2.45-3.96Z"/>
      <path class="cls-4" d="M123.11,122.46c-1.06.5-2.12,1-3.18,1.49,0,0,.04.04.04.04,1.18-1.02,2.36-2.03,3.54-3.05l.29.21c-.08.27-.17.55-.25.82-.14.16-.29.33-.44.49Z"/>
      <path class="cls-4" d="M116.8,118.26c.38.26.76.52,1.24.85-1.4.28-2.55,0-3.68-.85q1.15-.42,2.52.06s-.08-.07-.08-.07Z"/>
      <path class="cls-4" d="M72.33,103.57c.09-.28.17-.56.26-.85.93-1.01,1.86-2.03,2.8-3.04-.54,1.69-1.2,3.28-3.06,3.89Z"/>
      <path class="cls-4" d="M135.92,70.21c-.95-1.13-1.72-2.04-2.39-2.83,1.64.14,2.12.61,2.39,2.83Z"/>
      <path class="cls-4" d="M122.43,78.02c.51-.94,1.02-1.88,1.61-2.97.54,1.6-.32,2.4-1.06,3.25-.18-.09-.37-.18-.55-.27Z"/>
      <path class="cls-4" d="M120.51,116.45h-1.23c1.12-.81,2-1.45,3.25-2.35-.14.75-.09,1.23-.29,1.38-.54.42-1.18.7-1.79,1.04,0,0,.06-.07.06-.07Z"/>
      <path class="cls-4" d="M118.21,73.35c0,1.36-.47,2.23-2.21,2.36.92-.98,1.57-1.67,2.21-2.36Z"/>
      <path class="cls-4" d="M77.64,100.51s.06-.09.06-.09c-.74.53-1.49,1.06-2.37,1.69,0-1.04.62-1.74,1.23-2.27.59-.51,1.03-.08,1.07.67Z"/>
      <path d="M116.01,115.28c.24-.36.39-.86.72-1.06.76-.46,1.6-.78,2.4-1.15-.17.39-.33.78-.5,1.16-.88.35-1.75.7-2.63,1.05Z"/>
      <path class="cls-4" d="M118.64,114.23c.17-.39.33-.78.5-1.16,0,0-.09.08-.09.08.61-.46,1.22-.92,1.83-1.37,0,0-.08.06-.08.06l.88.22c.04.14.08.27.12.41-1.05.59-2.1,1.17-3.15,1.76Z"/>
      <path class="cls-4" d="M74.27,99.34c-.74.8-1.48,1.6-2.22,2.4-.11-.1-.22-.19-.34-.29.72-.83,1.45-1.67,2.17-2.5.13.13.26.26.39.4Z"/>
      <path class="cls-4" d="M134.35,69.44c-.46.18-.9.36-1.56.62.06-.66.11-1.12.16-1.65.88-.24,1.22.17,1.4,1.03Z"/>
      <path class="cls-4" d="M108.16,72.57c.86-.22,1.93-.79,1.76,1.22-.75-.52-1.25-.87-1.76-1.22Z"/>
      <path class="cls-4" d="M144.36,116.72c-.09.39-.18.78-.26,1.17-.11.08-.22.15-.34.23-.11-.26-.31-.53-.29-.78.04-.5.13-1.09.89-.62Z"/>
      <path class="cls-4" d="M120.45,116.52c.67-.08,1.35-.17,2.02-.25.04.08.07.17.11.25-.76.32-1.53.65-2.52,1.07.22-.57.33-.85.45-1.14,0,0-.06.07-.06.07Z"/>
      <path class="cls-4" d="M79.68,123.26c-.44-1.2.02-2.13,1.16-2.83-.41.93-.81,1.85-1.21,2.78,0,0,.05.05.05.05Z"/>
      <path class="cls-4" d="M123.11,122.46c.15-.16.29-.33.44-.49.49-.07.97.09.68.63-.22.42-.8.65-1.45.75l.33-.89Z"/>
      <path class="cls-4" d="M126.36,68.75q1.27-.6,1.23.89c-.43-.31-.8-.57-1.23-.89Z"/>
      <path class="cls-4" d="M89.13,111.35c-.26-.01-.52-.03-.98-.05.49-.85,1.03-1.29,1.92-1.25-.34.46-.68.91-1.02,1.37l.08-.07Z"/>
      <path d="M89.05,111.42c.34-.46.68-.91,1.02-1.37.16-.01.32-.03.48-.04.07,1.07-.85,1.09-1.49,1.41Z"/>
      <path class="cls-4" d="M147.21,116.49s-.07,0-.07,0c.06.68.13,1.36.19,2.04-.15,0-.3,0-.45-.01.11-.67.22-1.35.33-2.02Z"/>
      <path class="cls-4" d="M153.02,67.85c.66.81.18,1.44-.46,1.96-.82.67-1.78.54-2.66.15-.9-.4-.9-1.18-.59-2.15.52.07,1.03.14,1.64.22-.32.27-.53.43-.91.75.44.19.88.54,1.1.43.64-.32,1.19-.83,1.89-1.35Z"/>
      <path class="cls-4" d="M163.23,71.36c-1.9-.17-3.07-.92-4.06-1.96-.17-.18-.05-.62-.08-1.21,1.43,1.09,2.64,2.02,4.14,3.17Z"/>
      <path class="cls-4" d="M160.21,79.38c.96-.18,2.03-1.18,2.93.74-1.09-.1-2.01-.18-2.92-.27,0-.16,0-.32,0-.47Z"/>
      <path class="cls-4" d="M165.2,72.98c-.69.97-1.38,1.94-2.08,2.91-.13-.09-.25-.18-.38-.26.71-.97.85-2.29,1.8-3.11.22.15.44.31.66.46Z"/>
      <path class="cls-4" d="M164.89,65.51c-.75-.31-1.49-.63-2.52-1.06,1.56-.91,1.88.47,2.77.44-.08.21-.17.41-.25.62Z"/>
      <path class="cls-4" d="M160.89,64.33c.56.36,1.12.71,1.68,1.07-.05.11-.11.23-.16.34-.63-.3-1.25-.6-1.88-.9.12-.17.24-.34.36-.5Z"/>
      <path class="cls-4" d="M162.04,75.5c-.51.35-1.03.7-1.54,1.06-.08-.11-.16-.23-.24-.34l1.53-1.08c.09.12.17.25.26.37Z"/>
      <path class="cls-4" d="M57.3,135.36c1.4-.4,2.69-.12,3.84.76.73.56,1.14,1.38.87,2.3-.28.96-1.04,1.24-2.03,1.26-2.8.06-3.51-1.01-2.69-4.32Z"/>
      <path class="cls-4" d="M57.23,133.52c-.12-1.61-.21-2.85-.3-4.1,1.25-.43,2.22-.35,3.11.21,1.45.92,1.39,2.46-.16,3.16-.7.32-1.49.42-2.65.74Z"/>
      <path class="cls-4" d="M80.82,134.65c-.19,2.09-.69,3.8-2.65,4.8-2,1.02-4.23.36-5.02-1.75-.54-1.46-.92-3.06-.96-4.61-.05-1.79.99-3.14,2.74-3.78,1.62-.59,3.9-.12,4.69,1.29.67,1.2.82,2.68,1.2,4.04Z"/>
      <path class="cls-4" d="M161.92,135.71c-1.36.07-2.34.12-3.68.18.52-1.45.97-2.71,1.43-3.97.16-.01.32-.03.48-.04.54,1.17,1.08,2.33,1.77,3.83Z"/>
      <path class="cls-4" d="M161.22,111.32c-.37.89-.75,1.79-1.12,2.68-.15-.04-.31-.08-.46-.12-.36-1.55-.42-3.09.39-4.58.44.72.85,1.41,1.26,2.1,0,0-.07-.08-.07-.08Z"/>
      <path class="cls-4" d="M163.52,107.24c.38-1.19.76-2.39,1.28-4.06.14,2.38.07,2.63-1.28,4.06Z"/>
      <path class="cls-4" d="M58.76,116.22c.39-.74.69-1.32,1.05-2.01.55,1.4.5,1.49-1.05,2.01Z"/>
      <path class="cls-4" d="M106.18,111.79c.8-.46,1.59-.92,2.38-1.38.65-.26,1.3-.52,2.05-.81-.56,1.2-5.07,4.3-8.58,6-.12-.25-.24-.5-.35-.75.59-.43,1.17-.87,1.76-1.3.92-.58,1.83-1.17,2.75-1.75Z"/>
      <path class="cls-4" d="M142.55,86.99c.87-.72,1.85-.65,2.91,0-.96.17-1.92.34-2.87.52-.01-.17-.02-.35-.04-.52Z"/>
      <path class="cls-4" d="M140.93,88.37c.79-.16,1.57-.32,2.79-.57-.96,1.16-1.73,1.42-2.67,1.13-.04-.19-.08-.38-.12-.56Z"/>
      <path class="cls-4" d="M78.26,111.88c-.44,1.64-.87,3.28-1.31,4.92-.07-1.79.4-3.41,1.36-4.87l-.05-.05Z"/>
      <path class="cls-4" d="M78.31,111.93c-.24-1.34.26-2.47,1.04-3.53-.11,1.23-.41,2.41-1.09,3.47,0,0,.05.05.05.05Z"/>
      <path class="cls-4" d="M93.03,120.96c-.64.52-1.28,1.04-1.97,1.61-.09-.27-.17-.52-.25-.77,1.16-1.29,2.31-2.59,3.47-3.88.07.05.15.11.22.16-.49.96-.98,1.92-1.47,2.88Z"/>
      <path class="cls-4" d="M82.11,111.36c.81-.58,1.63-1.16,2.44-1.74-.07.3-.15.61-.22.91-.66.53-1.33,1.06-2.02,1.61-.07-.27-.14-.52-.2-.78Z"/>
      <path class="cls-4" d="M73.34,117.96c.26-.06.53-.13.96-.23-.19.66-.36,1.23-.52,1.81-.09-.01-.19-.02-.28-.04-.03-.54-.06-1.07-.08-1.61,0,0-.08.07-.08.07Z"/>
      <path d="M116.53,113.08c-.61.46-1.21.92-1.82,1.38.61-.46,1.21-.92,1.82-1.38Z"/>
      <path d="M106.18,111.79c-.92.58-1.83,1.17-2.75,1.75.03-.26.05-.52.08-.78.16-.03.32-.05.48-.08.73-.29,1.46-.59,2.19-.88Z"/>
      <path d="M70.79,109.25c.29-.53.58-1.06,1.01-1.85.19.51.27.74.35.96-.46.3-.91.59-1.37.89Z"/>
      <path d="M63.98,88.88c.28,1.04.57,2.09.96,3.53-1.21-1.18-1.31-2.3-.96-3.53Z"/>
      <path d="M120.88,111.78c-.61.46-1.22.92-1.83,1.37.61-.46,1.22-.92,1.83-1.37Z"/>
    </g>
  </g>
  <path class="cls-1" d="M59.63,107.69c.12-.2.15.11.28.07-.06.1-.21.14-.29.04.04-.05.08-.09,0-.11h0Z"/>
  <path class="cls-1" d="M49.89,109.96c.07.02.04.14.04.22-.05,0-.11,0-.16,0-.06-.18.09-.13.12-.21h0Z"/>
  <path class="cls-1" d="M63.05,100.53c.24.05.32.23.35.45-.3-.13-.15-.28-.35-.45h0Z"/>
  <polygon class="cls-2" points="29.31 86.84 5.75 121.32 6.92 122.81 51.87 121.25 35.73 91.59 30.92 85.98 29.31 86.84 29.31 86.84"/>
  <path class="cls-1" d="M27.42,91.31c-.85.37-.24-.86-1.09-.49-.41.14-.18.86-1.04.59-.33,1.4-.66,2.8-1.98,3.3-.31,1.48.75,1.42,1.18,2.09-1.86,1.36-1.87,5.71-5.14,4.26.3.8,1.28.84,1.43,1.8-.7.36-1.23.5-1.57.61,1.14.93-.3.7-.74,1.38-1.14,1.77-1.76,4.55-3.76,5-.07,1.29-.54,2.23-1.75,2.49.67,1.38-.39.19-.76.84,1.72.32-1.1,1.17.1,1.87-1.9.39-1.44,2.94-2.75,3.88-.17-.46.25-1.59-.34-1.59,0,.41.08.92-.5.82-.28.88.87.16.59,1.04-1.11.27-.91,1.73-1.48,2.49,2.78-.62,7.3-.67,10.41-.52.05-.21-.02-.53.24-.55,10.35.95,18.61-.67,31.25-1.01-.58-2.81-3.05-4.16-4.03-5.69-.32-2.37-2.56-2.61-2.66-5.22-1.2.18-1.03-.95-.89-1.56-1.06.03-2.03-1.7-1.17-2.09-.83.45-.9-.16-1.63-.45-1.93-5.83-6.53-9.94-8.74-14.55.01.27-.45.36-.53.02.32-.04.63-.11.51-.56-.75.26-.71-.34-1.35-.2-1.29,1.8-1.87,4.25-4.02,5.28.56.91-.2,1.3-.7,1.91-.32-1.06-.07-2.08.39-2.96.44-.02.18.73.57.77.06-1.15.97-3.33,1.76-2.23-.03-.37.09-.6.22-.81h0ZM43.02,103.64c1.58.23,1.16,2.65,2.82,2.8.04,1.73.93,2.54,2.03,3.11-.13,1.82.91,2.38,2.01,2.84.13.45-.18.51-.5.56.38.37,1.26.61.6,1.31.21-.16.43-.3.79-.31.12.54-.01.84-.49.83.53.68,2.07,2.13,1.2,2.62.27.45.86.55,1.62.45.15,2.19,1.35,3.21,1.35,5.55-.26-.15-1.01-.57-.78.3-.48-.5-1.86,0-1.92-.97-.59,1.05-1.83-.7-3.17.69-.81.14-.6-.84-.87-1.3-.76.27.38.65.07,1.34-.21-.18-.9-1.08-.8.04-3.73-.26-9.26-.28-12.56.08-.02-.27-.03-.53-.04-.8-1.21.71-2.61.85-3.74.19-.72,1.04-5.69,1.07-7.2.36-2.94,1.69-9.46.1-10.87,1.87-2.3-1.29-6.26.17-9.14-.88-.27-.84.18-1.03.46-1.37-1.07-.04-.44-.2-.62-1.84,1.25-.4,1.76-1.46,1.73-3.03,1.24.19.54-1.38,1.81-1.16-.23-.81-.21-.5-.07-1.34,1.81.2.72-2.24,2.29-2.25-.18-.26-.63-.24-.57-.77,1.08.3.5-.9,1.57-.61-.02-.45-.05-.89-.07-1.34.23-.21.59-.32,1.05-.32,1.56-4.03,4.49-6.81,6.16-10.74.92-.02,1.21-.6.99-1.66.78.04.79-.64,1.58-.61.65-3.57,4.05-4.66,4.67-8.25,2.93-.66,2.23-4.61,5.08-5.33-.18-.27-.63-.25-.58-.77.88-.06,1.31-.52,2.39-.39,1.2.85-.31,1.38,1.4,1.27-1.1,1.2.34,4.73,1.55,4.2.39.07.07,2.02,1.42,1.8-.14.82.33.96.35,1.59,3.43,2.86,4.09,8.8,7.53,11.66.12.45-.19.52-.51.57h0Z"/>
  <text class="cls-3" transform="translate(18.64 117.17) scale(.79 1)"><tspan class="cls-5" x="0" y="0">1</tspan><tspan x="12.17" y="0">4</tspan></text>
</svg>