<?xml version="1.0" encoding="UTF-8"?>
<svg id="Layer_1" data-name="Layer 1" xmlns="http://www.w3.org/2000/svg" viewBox="0 0 180 200">
  <defs>
    <style>
      .cls-1 {
        font-family: AmericanTypewriter-Bold, 'American Typewriter';
        font-size: 20px;
        font-weight: 700;
      }

      .cls-1, .cls-2, .cls-3 {
        fill: #fff;
      }

      .cls-2, .cls-4, .cls-3, .cls-5, .cls-6 {
        fill-rule: evenodd;
      }

      .cls-4 {
        fill: #231f20;
      }

      .cls-3 {
        stroke: #000;
        stroke-miterlimit: 10;
        stroke-width: .57px;
      }

      .cls-5 {
        fill: #ed2d2c;
      }

      .cls-7 {
        letter-spacing: -.04em;
      }
    </style>
  </defs>
  <g>
    <path class="cls-3" d="M48.46,81.22s68.65-.43,69.37-.43,12.7-.57,16.7-.43c4,.14,23.83.57,25.26.71,1.43.14,10.7.57,10.7.57,0,0-.29,5.28-.29,6.42s.3,14.07.43,16.7c.14,2.85.43,7.56.43,9.71s-.29,9.56-.29,9.56l-30.26-1.14s-18.27,0-21.55.14c-3.28.14-27.4,0-29.4.14-2,.14-29.26-.29-30.12-.29s-11.13-.14-11.13-.14l-.71-25.83s.57-5.28.57-7.14.29-8.56.29-8.56Z"/>
    <g>
      <path class="cls-6" d="M156.13,112.62c.1-.49.1-.88,0-1.28-.36-1.53-.73-3.06-1.05-4.6-.18-.88-.6-1.49-1.44-1.83-.73-.3-1.47-.44-2.27-.31-.56.09-1.12.08-1.65.33-.25.11-.57.07-.94.09.08.13.14.24.21.33.51.64,1.03,1.28,1.52,1.93.09.12.15.37.09.48-.13.22-.36.12-.54.01-.24-.14-.5-.26-.69-.44-.62-.59-1.39-.86-2.15-1.18-.82-.34-1.66-.65-2.48-.99-.26-.11-.63-.16-.63-.54,0-.41.4-.37.65-.47,1.12-.44,2.29-.39,3.45-.26.41.04.74.02,1.15-.11.68-.22,1.44-.25,2.16-.22.95.03,1.89.19,2.92.31-.04-.73-.05-1.46-.13-2.17-.13-1.18-.28-2.35-.46-3.53-.25-1.58-.13-3.14.14-4.7.2-1.15.29-2.31.26-3.48-.03-.98.29-1.88.69-2.76.54-1.18,1.81-.92,2.33-.21.55.74.74,1.51.25,2.35-.05.08-.09.16-.16.22-.04.05-.11.07-.24.15-.33-.35-.56-.78-.79-1.21-.08-.15-.22-.39-.3-.38-.18.03-.39.15-.49.3-.35.52-.34,1.12-.32,1.72.69-.06.72-.03.82.72-.72.5-1,1.27-.86,2.16.13.81.22,1.63.25,2.45.08,2.16.12,4.33.18,6.5.01.34.06.68.13,1.02.23,1.07.47,2.13.74,3.33.14-.22.22-.34.28-.46.82-1.79,1.58-3.59,2.46-5.35.47-.93,1.04-1.83,1.7-2.63,1.01-1.24,1.96-1.38,3.26-.18.41.38.72.88,1.03,1.35.51.78.19,2.33-.67,2.94-.16-.95-.31-1.86-.46-2.77-.02-.16-.06-.32-.14-.46-.57-.98-.96-1.02-1.69-.31-.89.87-1.62,1.88-2.05,3.04-.8,2.16-1.66,4.3-2.12,6.57-.1.49-.21.98-.26,1.48-.09.95-.14,1.9-.21,2.93.49-.28.77-.66,1.05-1.07.67-1.01,1.4-1.97,2.02-3.01.7-1.18,1.32-2.4,1.92-3.63.31-.63.49-1.32.75-1.98.1-.27.25-.52.4-.81.49.72.62,1.83.34,2.49-.53,1.25-1.21,2.39-2.03,3.48-.54.72-.94,1.55-1.4,2.34-.32.55-.58,1.15-.96,1.65-.31.4-.42.79-.39,1.26.05.86-.21,1.67-.44,2.48-.24.87-.46.94-1.57.89-.09.27-.18.57-.27.86-.18.56-.36,1.13-.56,1.68-.08.22-.24.47-.5.32-.14-.09-.22-.37-.24-.57-.02-.17.09-.35.14-.52.15-.5.3-1,.43-1.51.13-.47.07-.92.01-1.41-.09-.75-.48-1.26-.97-1.74-.42-.41-.84-.83-1.27-1.24-.02-.01-.04-.03-.05-.05-.37-.74-.85-1.39-1.38-2.02-.15-.18-.02-.59-.02-.88.31-.16.44.04.59.22.26.32.51.64.77.96.35.42.69.83,1.21,1.08.33.17.58.5.96.83Z"/>
      <path class="cls-6" d="M120.39,105.65c-.5-.62-.94-1.29-1.51-1.84-1.25-1.2-2.59-2.31-3.83-3.51-.79-.76-1.56-1.56-2.19-2.44-.73-1.02-1.63-1.84-2.56-2.64-.27-.24-.55-.48-.83-.72-.36-.3-.43-.65-.29-1.1.41-1.25,1.2-2.16,2.42-2.62.76-.28,1.58-.43,2.37-.62.51-.13,1.02-.25,1.53-.34.56-.1,1.12-.22,1.69-.24,1.26-.04,2.52,0,3.75.29.66.15,1.29.43,1.92.69.21.09.37.32.55.49.42.41.84.83,1.26,1.24.21.21.48.38.62.62.13.22.22.53.17.77-.18.87-.65,1.56-1.53,1.87-.82.3-1.68.43-2.56.39-.3-.01-.63-.12-.89-.28-.39-.24-.39-.67-.05-.98.18-.16.4-.29.59-.43-.83-1.83-2.96-1.97-4.5-1.25.11.23.17.5.33.7.93,1.12,1.85,2.25,3.06,3.12.44.32.87.67,1.25,1.06,1.07,1.12,2.33,1.97,3.67,2.73,1.2.68,1.2.68.77,1.97-.09.28-.13.57-.17.87-.15,1.31-1.16,2.42-2.45,2.65-1.32.24-2.64.54-3.97.71-1.75.23-3.51.27-5.24-.13-.93-.21-1.87-.43-2.79-.7-1.28-.38-1.96-1.35-2.34-2.57-.3-.96,0-1.81.58-2.56.5-.65,1.17-1.08,1.94-1.36,1.32-.48,3.5.37,3.84,2.34.06.34-.14.74-.29,1.09-.1.25-.37.32-.65.26-.26-.06-.38-.25-.4-.5-.03-.32-.03-.64-.05-.96-.03-.43-.14-.56-.56-.63-.13-.02-.29-.04-.41,0-.65.28-1.32.52-1.91.88-.5.3-.62,1.05-.32,1.6.44.8,1.03,1.44,1.9,1.8,1.09.44,2.18.75,3.39.65.91-.08,1.82.03,2.73,0,.63-.02,1.25-.13,1.88-.19.02-.06.05-.12.07-.19ZM121.14,105.69c.62-.11,1.2-.23,1.78-.31.91-.13,1.39-.8,1.69-1.53.28-.7.32-1.49.48-2.29-.13-.09-.31-.19-.48-.3-.94-.61-1.9-1.18-2.79-1.85-.76-.58-1.39-1.33-2.16-1.89-1.24-.89-2.21-2.04-3.2-3.17-.18-.2-.34-.44-.46-.68-.37-.72-.12-1.28.64-1.54.71-.24,1.43-.23,2.17-.21.77.02,1.41.33,1.98.82.21.18.42.34.62.52.51.42.53.93.06,1.39-.17.17-.36.33-.58.54.18.06.31.14.43.14.85,0,1.7-.11,2.47-.46.31-.14.58-.45.76-.74.39-.63.32-.81-.24-1.27-.4-.33-.86-.64-1.15-1.06-.52-.73-1.23-1.11-2.04-1.26-1.98-.37-3.96-.68-5.95,0-.26.09-.54.09-.8.15-.82.19-1.66.32-2.45.59-.92.31-1.61.95-1.99,1.86-.29.7-.3.69.3,1.19.16.13.32.26.47.39.99.82,1.91,1.67,2.66,2.74.58.83,1.31,1.58,2.05,2.29.92.89,1.91,1.7,2.86,2.54,1.1.97,2.11,2.02,2.88,3.39ZM112.75,100.3c-.43-.25-.68-.32-1.02-.27-1.12.14-2.29,1.23-2.51,2.34-.1.51.08,1.1.5,1.52-.04-.13-.06-.21-.08-.3-.26-1.07.13-1.97,1.12-2.45.65-.32,1.34-.56,2-.84Z"/>
      <path class="cls-6" d="M79.79,99.68c-.03-.79-.41-1.3-.95-1.73-1.1-.85-2.19-1.71-3.29-2.57-.88-.68-1.37-2.55-.17-3.88,1.2-1.31,2.62-2.28,4.36-2.7,1.56-.38,3.14-.6,4.75-.33.7.11,1.38.25,2.08.38.09.02.19.09.26.06.66-.23,1.11.23,1.52.56.41.33.7.83,1.02,1.27.07.1.07.26.08.4.06,1.18-.66,2.99-2.22,3.42-.55.15-1.11.28-1.67.34-.31.04-.64-.02-.94-.13-.75-.27-.92-.72-.59-1.44.08-.19.18-.37.26-.56.29-.73.04-1.26-.69-1.56-.71-.29-1.43-.47-2.2-.38-.47.06-1,.09-1.24.59-.26.56.13.99.49,1.33.63.59,1.29,1.16,2.01,1.64.89.59,1.86,1.07,2.77,1.63.74.45,1.46.93,2.19,1.4.72.47,1.46.93,2.16,1.44.68.49,1.38.98,1.98,1.57.64.62.57.93.12,1.69-1.05,1.78-2.72,2.78-4.52,3.62-1.13.54-2.31.9-3.54.97-1.41.08-2.83-.02-4.19-.5-.47-.17-.95-.32-1.41-.52-1.3-.58-2.21-1.52-2.55-2.93-.07-.31-.1-.63-.08-.95.04-.76.34-1.34,1.1-1.66.98-.41,1.99-.63,3.11-.47ZM78.91,97.09c.17.15.34.31.51.45.77.61,1.08,1.45,1.13,2.39.03.55-.19.73-.71.54-1-.36-1.93-.13-2.85.27-.59.25-.8.64-.76,1.3.08,1.4.82,2.38,2.04,2.93,2.17.98,4.43,1.35,6.8.84,1.2-.26,2.26-.83,3.33-1.39,1.35-.71,2.39-1.73,3.12-3.1-.22-.44-.57-.76-.97-1.04-1.41-.97-2.81-1.94-4.23-2.9-.38-.26-.78-.48-1.18-.69-1.67-.9-3.34-1.79-4.71-3.13-.35-.34-.68-.75-.91-1.18-.39-.73-.11-1.47.63-1.84.26-.13.55-.2.84-.27,1.25-.27,2.4.13,3.51.62.59.26.79.82.59,1.47-.16.54-.35,1.07-.52,1.59.46.31.51.36.89.29.54-.09,1.07-.21,1.59-.37,1.17-.35,1.64-1.71,1.67-2.52,0-.21-.08-.45-.2-.63-.52-.83-1.33-1.23-2.26-1.37-.85-.14-1.72-.28-2.58-.31-1.84-.05-3.65.16-5.33.99-.98.48-1.81,1.16-2.52,1.97-.73.84-.67,2.24.09,2.85.71.57,1.42,1.13,2.15,1.68.12.09.28.14.42.21.14.12.27.23.4.35Z"/>
      <path class="cls-6" d="M138.54,93.59c-.55,2.31-.87,4.59-.56,6.94.16,1.2.17,2.41.62,3.56.08.2.06.45.06.68-.01.52.22.88.67,1.09.56.26,1.13.49,1.69.73.31.13.69.19.7.63,0,.29-.3.52-.81.61-.79.15-1.55.14-2.34-.18-.64-.26-1.37-.33-2.07-.37-.95-.06-1.92-.04-2.87-.02-.36.01-.72.1-1.07.18-.62.14-1.23.32-1.85.46-.44.1-.92.06-1.2-.31-.31-.41,0-.84.21-1.2.12-.21.33-.38.53-.51.33-.2.67-.39,1.04-.53.44-.17.59-.45.52-.9-.13-.74-.26-1.48-.37-2.22-.36-2.35-.69-4.7-.38-7.08.1-.79.17-1.58.26-2.43-.46-.16-1-.22-1.53-.28-.34-.04-.68-.07-1.02-.13-.25-.05-.56-.14-.53-.43.02-.24.17-.56.36-.68.46-.28.96-.55,1.48-.68,1.38-.34,2.78-.5,4.2-.2,1.01.21,2.03.23,3.06.13.88-.09,1.77-.17,2.66-.2.45-.02.91.06,1.35.15.63.14,1.37,1.23,1.23,1.77-.14.59-.56.86-1.13.94-.68.09-1.36.19-2.03.29-.29.04-.57.11-.87.17ZM128.96,91.73c.91.12,1.71.23,2.51.33.56.07.66.2.57.76-.13.83-.26,1.66-.36,2.49-.28,2.34.04,4.64.45,6.94.14.81.39,1.59.36,2.43-.02.56-.16.97-.73,1.18-.36.13-.7.34-1.05.48-.42.17-.64.47-.67,1,.22,0,.4.03.56,0,.53-.12,1.07-.23,1.59-.4.59-.2,1.17-.33,1.8-.28.79.06,1.6-.03,2.39.04.85.08,1.72.2,2.54.45.59.18,1.13.17,1.85.09-.22-.13-.31-.18-.41-.23-.45-.22-.9-.43-1.35-.66-.62-.32-.97-.81-.98-1.52,0-.23-.02-.46-.1-.67-.71-1.94-.75-3.99-.76-6.01,0-1.51.41-3.02.61-4.53.06-.47.3-.68.75-.74.52-.07,1.04-.17,1.55-.25.45-.07.91-.11,1.35-.2.49-.11.58-.42.27-.79-.16-.19-.34-.36-.49-.52-.2.08-.34.13-.52.2-.09-.17-.16-.32-.25-.49-.26.03-.48.04-.7.08-1.83.31-3.68.38-5.51.05-1.26-.23-2.5-.13-3.74.08-.54.09-1,.36-1.55.7Z"/>
      <path class="cls-6" d="M96.87,105.4c-.04-.39-.03-.75-.11-1.09-.47-2.07-.64-4.19-.82-6.3-.07-.78.08-1.59.14-2.38.03-.41.09-.82.1-1.23.02-1.15-.4-1.66-1.31-1.99-.64-.23-1.28-.47-1.93-.68-.42-.14-.63-.43-.7-.84-.07-.41.09-.6.49-.74.52-.18,1.02-.15,1.54-.02.77.2,1.54.44,2.33.53.69.08,1.41.02,2.11-.05.95-.09,1.89-.31,2.85-.37,1.16-.07,2.32-.06,3.48-.03.37.01.76.16,1.1.33.69.34.8,1.09.24,1.63-.24.23-.56.39-.85.56-.35.21-.72.4-1.08.6-.48.27-.7.7-.76,1.23-.15,1.38-.35,2.76-.43,4.15-.08,1.43-.21,2.87.07,4.3.03.18.07.37.04.54-.17.86.35,1.25,1.02,1.53.36.15.73.25,1.09.39.55.22.65.71.23,1.14-.29.29-.65.41-1.06.41-1.25-.01-2.52.05-3.76-.07-1.8-.17-3.6-.14-5.4-.1-.18,0-.37.03-.55,0-.42-.04-.57-.33-.28-.65.19-.21.47-.36.73-.45.45-.15.92-.23,1.46-.36ZM106.05,91.29c-.31-.12-.59-.3-.89-.33-.75-.08-1.51-.17-2.25-.11-1.27.09-2.54.3-3.8.44-1.13.12-2.26.26-3.39-.11-.6-.2-1.23-.33-1.86-.46-.29-.06-.61-.18-.91.21.27.12.49.22.72.3.6.22,1.21.42,1.8.66,1.08.44,1.42,1.34,1.43,2.42,0,.41-.02.83-.09,1.23-.35,2.13,0,4.23.25,6.33.1.83.32,1.66.44,2.49.09.65.24,1.35-.61,1.76,1.03.05,1.97.09,2.9.13,1.53.06,3.05.13,4.58.18.31.01.63.02.83-.29-.63-.32-1.24-.62-1.85-.92-.39-.19-.58-.5-.62-.92-.06-.77-.16-1.54-.19-2.32-.11-2.56.21-5.1.47-7.64.06-.61.34-1.14.88-1.48.45-.28.9-.53,1.36-.8.29-.17.63-.29.79-.81Z"/>
      <path class="cls-6" d="M53.96,92.45c.15-.38.25-.71.41-1.01.18-.34.34-.75.63-.96,1.23-.89,2.48-1.76,4.13-1.74,1.02.01,2.05-.16,3.07-.15,2.98.03,5.57,1.08,7.73,3.14.59.56,1.1,1.22,1.62,1.84.48.57.94,1.16,1.41,1.75.61.76.81,1.67.99,2.59.17.86.16,1.72-.03,2.58-.02.09-.03.18-.07.27-.48,1.06-.98,2.07-1.87,2.89-1.53,1.43-3.36,2.04-5.35,2.36-1.24.2-2.48.38-3.72.56-1.41.2-2.7-.25-3.97-.78-.79-.33-1.41-.92-2.12-1.37-1.66-1.06-2.73-2.6-3.57-4.31-.39-.79-.68-1.63-.99-2.46-.24-.64-.24-1.3-.09-1.96.17-.78.33-1.56.52-2.33.15-.62.5-1.03,1.27-.92ZM61.84,89.15c-1.96.15-3.68.09-5.26.94-.73.39-1.34.84-1.67,1.62-.13.31-.23.64-.36.96-.11.26-.28.53-.59.47-.52-.1-.65.23-.73.6-.19.87-.36,1.74-.5,2.61-.04.26.02.54.06.81.09.66.4,1.25.66,1.85.87,1.94,1.95,3.68,3.76,4.92,1.02.7,2.02,1.42,3.23,1.73.66.17,1.35.36,2.01.3,1.65-.17,3.3-.43,4.93-.75,1.44-.28,2.77-.8,3.91-1.82,1.1-.99,1.85-2.13,2.06-3.58.19-1.37-.04-2.7-.79-3.87-.49-.76-1.12-1.43-1.67-2.15-2.35-3.06-5.43-4.64-9.04-4.64Z"/>
      <path class="cls-6" d="M128.41,117.32c.17,0,.34.01.51,0,.14-.01.28-.1.4-.08.16.03.38.11.44.23.06.12-.01.37-.12.47-.33.29-.74.45-1.2.38-.09-.02-.19-.03-.26-.07-.89-.48-1.82-.43-2.78-.33-1.14.12-2.27-.05-3.34-.5-1.3-.55-1.79-1.8-1.21-3.1.66-1.48,1.67-2.55,3.32-2.86.81-.15,1.63-.17,2.44.08.22.07.46.12.63.26.72.59,1.47,1.16,2.11,1.83.62.65.48,1.95-.2,2.78-.23.28-.53.5-.79.75.03.05.05.11.08.16ZM121.47,115.4c.24-.06.41-.11.58-.15,1.05-.28,2.07-.3,3.02.33.42.28.86.52,1.28.78.63.41.94.4,1.53-.07.14-.11.27-.24.39-.38.57-.69.53-1.51-.13-2.12-.35-.32-.78-.58-1.07-.95-.37-.47-.86-.56-1.38-.61-.32-.03-.64-.03-.96,0-1.58.1-2.97,1.22-3.26,3.17ZM121.95,116.32c1.07.79,2.27.88,3.69.69-1.21-.89-2.35-1.26-3.69-.69Z"/>
      <path class="cls-6" d="M96.98,113.56c1.37,1.27.68,3.08-.89,3.51-.95.26-1.99.19-2.98.21-.39.01-.64-.31-.52-.64.33-.92.11-1.81-.06-2.69-.16-.84-.24-1.66-.14-2.51.04-.4.21-.64.58-.74.2-.05.4-.12.6-.11.77.04,1.55.08,2.32.18.5.06.97.26,1.28.71.47.7.44,1.17-.18,2.09ZM93.53,114.42c.04.64.08,1.22.13,1.88.7-.04,1.34-.05,1.96-.12.23-.02.47-.16.67-.31.31-.23.49-.54.4-.94-.09-.43-.43-.62-.79-.64-.76-.06-1.54-.14-2.37.13ZM93.34,113.35c.52-.11.92-.22,1.32-.27.41-.05.82-.02,1.23-.05.45-.03.74-.26.74-.56,0-.29-.27-.58-.66-.68-.07-.02-.13-.04-.2-.05-.81-.05-1.62-.1-2.43-.16v1.77Z"/>
      <path class="cls-6" d="M102.61,117.54c-1.77-.12-3.21-.86-4.06-2.45-.59-1.11-.45-2.08.35-2.96,1.12-1.24,3.26-1.63,4.77-.85.34.18.69.36,1.03.52,1.23.61,1.95,2.01,1.71,3.35-.12.69-.48,1.26-1.08,1.59-.83.46-1.7.89-2.72.81ZM102.52,116.76c.81,0,1.58-.25,2.24-.71.39-.27.62-.66.7-1.13.19-1.04-.38-1.8-1.12-2.23-.47-.28-.96-.55-1.51-.74-.82-.28-1.59-.24-2.31.06-1.46.62-1.99,1.68-1.12,3.1.7,1.13,1.8,1.61,3.11,1.64Z"/>
      <path class="cls-6" d="M137.42,112.01c.17-.04.34-.1.51-.1.96-.04,1.91-.08,2.87-.09.39,0,.77.03,1.16.07.24.02.47.11.47.4,0,.32-.26.41-.52.43-.18.02-.36-.01-.55-.02-.89-.03-1.78-.06-2.67-.08-.06,0-.12.04-.18.06v1.89c.44-.03.82-.08,1.2-.09.48-.02.96-.04,1.43-.03.23,0,.47.11.48.39.02.29-.21.4-.44.43-.38.05-.77.07-1.16.08-.48.01-.96,0-1.51,0-.04.6-.08,1.18-.12,1.76.08.04.14.1.19.1.84-.08,1.68-.17,2.51-.26.07,0,.14-.03.2-.03.27-.01.53.03.57.35.04.29-.2.38-.43.44-.17.05-.36.09-.53.11-.77.08-1.54.15-2.31.22-.16.02-.32,0-.48-.04-.47-.1-.62-.27-.6-.76.05-1.32.1-2.65.19-3.97.03-.44.12-.85-.37-1.14.03-.04.06-.09.08-.13Z"/>
      <path class="cls-6" d="M112.6,113.38c-.04.61-.07,1.23-.12,1.84-.03.31-.08.63-.17.94-.26.87-.93,1.33-1.84,1.34-1.47,0-2.71-.97-2.91-2.54-.13-1.04-.12-2.09-.16-3.14,0-.07-.01-.15.02-.2.08-.13.18-.23.27-.35.11.12.28.22.33.36.06.16.03.36.04.54.05.82.08,1.64.16,2.46.14,1.28.88,1.93,1.92,2.04.82.09,1.21-.19,1.32-1.01.09-.63.12-1.27.15-1.91.03-.68.03-1.37.06-2.05,0-.2-.01-.43.08-.6.08-.16.29-.34.44-.33.15,0,.33.21.41.37.08.15.06.35.06.53,0,.57,0,1.14,0,1.71h-.05Z"/>
      <path class="cls-6" d="M130.89,111.68c.28.47.29,1,.29,1.55,0,.82-.01,1.64.09,2.45.11.81.56,1.17,1.38,1.28.63.09,1.22-.04,1.81-.27.32-.12.43-.39.47-.7.1-.74.19-1.49.27-2.24.06-.54.1-1.09.16-1.64.04-.37.23-.59.47-.56.34.05.45.3.44.59-.03.55-.07,1.09-.13,1.64-.07.7-.12,1.41-.23,2.11-.18,1.16-.53,1.56-1.68,1.75-.62.1-1.28.11-1.9.02-.97-.15-1.59-.77-1.76-1.76-.08-.45-.13-.91-.13-1.36-.01-.71.01-1.42.05-2.12.01-.25.11-.5.17-.74.08,0,.15,0,.23.01Z"/>
      <path class="cls-6" d="M115.78,112.37c.1.88.21,1.76.28,2.63.06.75.07,1.5.09,2.25,0,.13-.02.28-.09.39-.12.22-.44.21-.55-.02-.05-.1-.06-.22-.07-.33-.09-1.04-.19-2.09-.25-3.13-.03-.57,0-1.14,0-1.78-.38-.06-.73-.11-1.08-.17-.18-.03-.38-.04-.52-.14-.11-.07-.19-.26-.18-.39,0-.1.14-.22.24-.28.09-.06.22-.06.33-.06.87,0,1.73,0,2.59.03.22,0,.45.06.66.13.21.07.38.25.29.46-.07.15-.29.29-.45.31-.31.04-.63-.01-.95-.01-.08,0-.17.05-.34.1Z"/>
      <path class="cls-6" d="M119.27,117.77c-.31-.07-.33-.34-.37-.58-.04-.34-.08-.68-.1-1.02-.06-1.32-.11-2.63-.15-3.95-.01-.28-.08-.61.27-.79.28.04.34.26.37.49.22,1.69.37,3.39.32,5.1-.01.42-.03.43-.35.75Z"/>
      <path class="cls-6" d="M121.14,105.69c-.77-1.38-1.78-2.42-2.88-3.39-.96-.84-1.95-1.65-2.86-2.54-.74-.71-1.47-1.46-2.05-2.29-.75-1.07-1.67-1.92-2.66-2.74-.16-.13-.32-.26-.47-.39-.6-.5-.6-.5-.3-1.19.39-.92,1.07-1.55,1.99-1.86.79-.27,1.63-.41,2.45-.59.27-.06.55-.06.8-.15,1.99-.68,3.98-.37,5.95,0,.81.16,1.52.53,2.04,1.26.3.42.75.72,1.15,1.06.56.47.63.64.24,1.27-.18.29-.46.6-.76.74-.78.34-1.62.46-2.47.46-.13,0-.25-.08-.43-.14.22-.21.4-.37.58-.54.47-.46.45-.97-.06-1.39-.21-.17-.42-.34-.62-.52-.57-.49-1.21-.8-1.98-.82-.73-.02-1.46-.03-2.17.21-.77.26-1.01.82-.64,1.54.12.24.28.48.46.68.99,1.13,1.96,2.27,3.2,3.17.77.56,1.4,1.31,2.16,1.89.89.67,1.86,1.23,2.79,1.85.17.11.34.22.48.3-.16.8-.19,1.6-.48,2.29-.29.72-.78,1.39-1.69,1.53-.58.08-1.16.21-1.78.31ZM113.49,97.18c.15.08.29.19.45.24.52.15.92.46,1.29.86.52.57,1.07,1.12,1.64,1.65.57.53,1.25.91,2.02,1.11.26.07.54.06.66-.2.08-.18.05-.44,0-.64-.06-.18-.21-.36-.36-.49-.49-.43-1-.86-1.52-1.27-.23-.18-.5-.46-.74-.45-.5.02-.7-.32-1.01-.57-.35-.29-.72-.56-1.11-.79-.74-.44-.83-.4-1.23.31-.03.06-.04.12-.09.25ZM122.21,101.47c-.2.08-.45.11-.57.25-.25.27-.52.3-.85.24-.13-.02-.27-.03-.41-.02-.31,0-.47.17-.46.46,0,.46.52,1.19.94,1.35.26.1.51.06.67-.18.22-.33.43-.68.62-1.04.16-.3.27-.63.06-1.06ZM118.37,97.37c-.3.03-.42.28-.27.53.43.7,1.08,1.16,1.81,1.5.1.05.34-.02.4-.11.07-.09.02-.29-.03-.43-.03-.09-.16-.16-.24-.23-.46-.37-.91-.74-1.38-1.1-.1-.08-.23-.13-.3-.16ZM122.78,103.5c-.01.2-.05.34-.03.47.04.33.6.59.86.42.26-.17.62-.99.49-1.27-.07-.16-.26-.34-.42-.36-.59-.08-.89.22-.91.74ZM117.27,97.24c.35.02.55-.13.57-.43.02-.41-.36-.83-.8-.86-.34-.03-.58.22-.61.66-.04.4.24.6.85.63Z"/>
      <path class="cls-6" d="M112.75,100.3c-.67.28-1.35.52-2,.84-.98.48-1.37,1.38-1.12,2.45.02.09.05.17.08.3-.42-.42-.6-1.01-.5-1.52.22-1.11,1.39-2.19,2.51-2.34.33-.04.58.03,1.02.27Z"/>
      <path class="cls-6" d="M78.51,96.74c-.14-.07-.3-.11-.42-.21-.72-.56-1.44-1.12-2.15-1.68-.76-.61-.82-2.01-.09-2.85.71-.81,1.54-1.49,2.52-1.97,1.68-.83,3.49-1.04,5.33-.99.86.02,1.72.17,2.58.31.93.15,1.74.54,2.26,1.37.11.18.21.43.2.63-.03.82-.5,2.17-1.67,2.52-.52.15-1.06.27-1.59.37-.38.07-.43.02-.89-.29.17-.52.36-1.05.52-1.59.2-.65,0-1.21-.59-1.47-1.11-.49-2.26-.89-3.51-.62-.29.06-.58.14-.84.27-.74.37-1.02,1.11-.63,1.84.23.43.55.84.91,1.18,1.37,1.34,3.04,2.23,4.71,3.13.4.21.8.44,1.18.69,1.42.96,2.82,1.93,4.23,2.9.39.27.74.59.97,1.04-.73,1.37-1.77,2.4-3.12,3.1-1.07.56-2.13,1.14-3.33,1.39-2.36.51-4.63.14-6.8-.84-1.22-.55-1.96-1.53-2.04-2.93-.04-.66.18-1.05.76-1.3.92-.39,1.85-.62,2.85-.27.53.19.74.01.71-.54-.05-.95-.36-1.78-1.13-2.39-.18-.14-.34-.3-.51-.45.45.05.8.24,1.12.57.28.29.64.51.97.76.22.17.45.32.64.51.74.74,1.47,1.49,2.2,2.24.11.12.21.26.31.38-.28-.04-.51-.14-.72-.26-.4-.22-.78-.48-1.19-.68-.81-.41-1.27-.12-1.26.76,0,.35.05.72-.31,1.06-.22-.36-.38-.68-.6-.96-.18-.23-.39-.51-.64-.58-.64-.17-1.31-.18-1.91.21-.51.32-.77.8-.75,1.38.03.94.46,1.66,1.34,2.06.27.12.56.2.84.29,1.65.49,3.34.45,5.03.36.58-.03,1.16-.22,1.71-.44.33-.14.68-.42.86-.73.14-.24.03-.63.03-.95.29-.02.62,0,.92-.08.17-.04.36-.22.43-.38.1-.22-.1-.36-.28-.48-.45-.31-.92-.6-1.33-.96-.8-.7-1.57-1.44-2.34-2.18-.4-.38-.86-.64-1.36-.88-.49-.22-.88-.68-1.32-1.04-.02-.01-.04-.03-.06-.03-.78-.25-1.41-.73-2.03-1.25-.29-.24-.66-.39-1.01-.54-.14-.06-.33,0-.5.02.03.19,0,.41.09.56.21.32.48.61.73.9ZM85.3,97.96c-.18-.21-.28-.37-.42-.47-.47-.39-.96-.77-1.45-1.14-.83-.64-1.65-1.28-2.49-1.89-.51-.37-1.07-.68-1.61-1.03-.31-.2-.59-.44-.9-.61-.13-.07-.38-.08-.49,0-.08.06-.05.31-.03.47.02.17.09.33.15.49.04.12.08.27.17.35.68.55,1.29,1.21,2.16,1.5.28.09.53.27.78.42,1.06.67,2.11,1.34,3.18,2.01.15.09.33.2.49.2.13,0,.27-.15.46-.28ZM87.17,91.5c-.27-.87-1.41-1.78-2.22-1.82-.31-.02-.46.19-.36.48.1.29.32.44.61.49.65.12.96.52,1.06,1.16.09.6.87.94,1.4.64.25-.14.48-.59.38-.81-.16-.36-.43-.24-.7-.13-.04.02-.09,0-.17,0ZM88.72,102.39c-.28.51-.29.63-.12.8.22.23.5.19.84-.12.42-.38.57-.77.36-.99-.3-.3-.63-.58-.96-.85-.08-.06-.24-.1-.31-.06-.09.06-.2.22-.19.32.04.33.02.7.38.89ZM87.52,100.46c-.04-.12-.05-.21-.1-.28-.33-.43-.79-.68-1.29-.84-.29-.09-.47.16-.38.46.13.43.97.94,1.42.86.12-.02.22-.12.35-.2Z"/>
      <path class="cls-6" d="M78.51,96.74c-.25-.3-.52-.58-.73-.9-.09-.14-.06-.37-.09-.56.17,0,.36-.07.5-.02.35.14.72.3,1.01.54.62.52,1.25,1,2.03,1.25.02,0,.04.02.06.03.43.36.82.81,1.32,1.04.51.23.96.49,1.36.88.77.74,1.54,1.48,2.34,2.18.41.36.88.64,1.33.96.18.12.38.26.28.48-.07.16-.26.34-.43.38-.3.08-.63.06-.92.08,0,.32.11.71-.03.95-.18.31-.52.59-.86.73-.54.22-1.13.41-1.71.44-1.69.09-3.38.12-5.03-.36-.28-.09-.57-.17-.84-.29-.89-.39-1.31-1.11-1.34-2.06-.02-.58.24-1.06.75-1.38.61-.38,1.27-.38,1.91-.21.25.07.46.35.64.58.22.28.38.6.6.96.36-.34.32-.71.31-1.06,0-.88.45-1.17,1.26-.76.41.21.79.46,1.19.68.21.12.44.22.72.26-.1-.13-.19-.27-.31-.38-.73-.75-1.46-1.5-2.2-2.24-.19-.19-.43-.34-.64-.51-.33-.25-.69-.46-.97-.76-.32-.33-.67-.52-1.12-.57-.13-.12-.27-.23-.4-.35ZM85.97,103.68c-1.06-.91-2.27-1.44-3.47-2.05-.06.16-.11.24-.12.33-.12.63-.56,1.03-1.02,1.41-.39.32-.86.28-1.31.16-.24-.06-.39-.24-.22-.52.06-.09.11-.18.16-.26-.13-.24-.26-.43-.34-.64-.22-.54-.63-.66-1.16-.61-.72.08-1.11.57-.96,1.28.12.59.48,1.01,1.05,1.15.84.22,1.68.46,2.54.53,1.16.1,2.33.15,3.48-.08.49-.1.95-.28,1.38-.71Z"/>
      <path class="cls-6" d="M128.96,91.73c.54-.34,1-.61,1.55-.7,1.24-.22,2.48-.31,3.74-.08,1.83.33,3.68.26,5.51-.05.22-.04.45-.06.7-.08.08.17.16.32.25.49.17-.07.32-.12.52-.2.15.16.34.33.49.52.31.38.22.68-.27.79-.44.1-.9.13-1.35.2-.52.08-1.03.19-1.55.25-.45.06-.69.27-.75.74-.21,1.51-.62,3.02-.61,4.53,0,2.01.05,4.06.76,6.01.08.21.1.45.1.67,0,.72.36,1.21.98,1.52.45.23.9.44,1.35.66.09.05.18.1.41.23-.72.07-1.27.09-1.85-.09-.82-.25-1.68-.37-2.54-.45-.79-.08-1.6.02-2.39-.04-.64-.05-1.21.09-1.8.28-.52.17-1.05.28-1.59.4-.17.04-.35,0-.56,0,.03-.53.25-.83.67-1,.36-.15.69-.35,1.05-.48.57-.21.71-.62.73-1.18.03-.84-.22-1.62-.36-2.43-.4-2.3-.72-4.6-.45-6.94.1-.83.23-1.66.36-2.49.09-.55,0-.68-.57-.76-.8-.11-1.6-.21-2.51-.33ZM135.67,102.41c-.13-.03-.23-.03-.31-.07-.84-.37-1.11.06-1.25.8-.03.18-.03.36-.03.54,0,.32.02.64,0,.96-.04.82.29,1.19,1.09,1.21.32,0,.64.02.95.06.85.09,1.45-.52,1.33-1.36-.09-.61-.22-1.21-.27-1.82-.13-1.79-.24-3.58-.33-5.37-.04-.91,0-1.82-.21-2.71-.09-.39-.14-.81-.31-1.17-.24-.5-.51-.96.03-1.42-.32-.43-.72-.5-1.13-.36-.36.12-.36.49-.4.81-.03.25.01.51-.03.75-.18.93-.23,1.93-1.34,2.34-.13.05-.29.29-.26.39.03.13.23.28.38.32.3.08.62.09.98.14-.15.83-.09,1.67-.97,2.15-.46.24-.64.73-.58,1.23.07.65.19,1.31.33,1.95.07.34.39.37.61.09.08-.11.14-.23.21-.35.27-.54.73-.86,1.25-1.08.53.49.63,1.16.26,1.97Z"/>
      <path class="cls-6" d="M106.05,91.29c-.16.52-.5.64-.79.81-.46.26-.91.52-1.36.8-.55.33-.82.87-.88,1.48-.27,2.54-.58,5.08-.47,7.64.03.78.13,1.54.19,2.32.03.42.23.73.62.92.61.29,1.21.6,1.85.92-.2.32-.53.31-.83.29-1.53-.06-3.05-.12-4.58-.18-.93-.04-1.87-.09-2.9-.13.85-.41.71-1.11.61-1.76-.12-.84-.34-1.66-.44-2.49-.25-2.11-.61-4.2-.25-6.33.07-.4.09-.82.09-1.23-.01-1.08-.36-1.98-1.43-2.42-.59-.25-1.2-.44-1.8-.66-.22-.08-.44-.19-.72-.3.3-.39.62-.27.91-.21.62.13,1.25.26,1.86.46,1.13.37,2.26.23,3.39.11,1.27-.14,2.53-.35,3.8-.44.75-.05,1.51.03,2.25.11.29.03.57.21.89.33ZM100.15,105.67c.7-.08,1.25-.43,1.66-1.01.05-.07.08-.17.08-.26-.02-.35-.02-.71-.08-1.06-.21-1.27-.19-2.54-.08-3.82.08-.93.02-1.86.04-2.8,0-.36.02-.72.09-1.07.12-.55.02-.72-.53-.72-.11,0-.23,0-.34.01-.7.1-.86.46-.45,1.07-.16.24-.38.47-.46.74-.07.26,0,.56,0,.84,0,.04-.03.09-.03.13.03.22.06.44.1.66.03.17.12.34.13.52.1,1.73.19,3.45.28,5.2q-.8.75-.41,1.55ZM99.18,97.67c-.02-.25.08-.58-.26-.64-.29-.04-.6.05-.74.36-.11.25-.24.51-.24.77,0,1.05.01,2.1.06,3.14.03.77.13,1.54.2,2.31.01.13,0,.27.04.41.05.24.19.43.47.39.3-.03.44-.24.43-.52,0-.2-.05-.41-.09-.61-.24-1.13-.21-2.27-.15-3.4.04-.75.18-1.49.28-2.22ZM100.53,93.78c-.05-.13-.09-.33-.19-.51-.12-.24-.28-.51-.6-.49-.36.03-.37.35-.41.62-.01.07-.01.14-.03.21-.13.6-.32,1.15-1.04,1.28-.13.02-.24.12-.36.19-.36.24-.48.48-.37.71.12.25.42.28.84.05.52-.28,1.02-.58,1.53-.9.4-.24.57-.63.62-1.16Z"/>
      <path class="cls-6" d="M61.84,89.15c3.61,0,6.69,1.58,9.04,4.64.55.72,1.18,1.39,1.67,2.15.75,1.17.98,2.5.79,3.87-.21,1.45-.95,2.59-2.06,3.58-1.14,1.02-2.47,1.54-3.91,1.82-1.63.31-3.28.58-4.93.75-.66.06-1.35-.13-2.01-.3-1.21-.31-2.21-1.03-3.23-1.73-1.81-1.24-2.89-2.98-3.76-4.92-.27-.61-.57-1.19-.66-1.85-.04-.27-.1-.55-.06-.81.14-.88.32-1.75.5-2.61.08-.37.21-.7.73-.6.32.06.49-.21.59-.47.13-.32.23-.64.36-.96.33-.77.93-1.22,1.67-1.62,1.58-.85,3.3-.79,5.26-.94ZM61.05,89.49c-.76.1-1.47.18-2.16.29-.81.13-1.01.41-.86,1.22.31,1.69.53,3.38.49,5.1,0,.29.06.59.11.88.27,1.55.53,3.1.82,4.64.13.71.3,1.43.51,2.13.27.9.65,1.14,1.57,1.05.43-.04.86-.12,1.27-.25,1.26-.41,2.5-.87,3.75-1.28,1.93-.63,3.19-1.91,3.92-3.81.39-1.02.37-1.96-.07-2.91-.21-.46-.49-.87-.75-1.3-.77-1.24-1.46-2.53-2.45-3.61-.09-.1-.15-.23-.21-.36-.16-.38-.46-.63-.85-.74-.61-.17-1.23-.34-1.85-.46-1.1-.22-2.2-.4-3.25-.59ZM55.16,97.93c-.09-.71-.18-1.36-.27-2.01-.04-.26-.21-.39-.46-.42-.23-.03-.42,0-.5.24-.24.78-.31,1.57-.06,2.35.08.25.65.55.9.51.23-.03.4-.35.4-.67ZM57.92,97.39c-.06-.22-.09-.55-.22-.83-.14-.32-.47-.31-.62,0-.11.25-.25.51-.26.77-.01.47.04.94.13,1.41.02.12.29.3.4.28.16-.04.36-.22.4-.38.1-.37.11-.77.16-1.25ZM57.91,99.51c-.24.16-.51.27-.65.47-.11.15-.14.46-.05.61.17.3.24.72.63.81.28.07.88-.67.78-.94-.11-.27-.26-.52-.42-.77-.05-.08-.18-.12-.29-.19Z"/>
      <path class="cls-2" d="M121.47,115.4c.29-1.95,1.68-3.07,3.26-3.17.32-.02.64-.03.96,0,.52.05,1.01.15,1.38.61.29.37.72.62,1.07.95.66.61.7,1.43.13,2.12-.12.14-.25.27-.39.38-.59.47-.89.47-1.53.07-.42-.27-.87-.5-1.28-.78-.95-.64-1.97-.62-3.02-.33-.17.04-.34.09-.58.15Z"/>
      <path class="cls-2" d="M121.95,116.32c1.33-.56,2.48-.19,3.69.69-1.42.19-2.62.09-3.69-.69Z"/>
      <path class="cls-2" d="M93.53,114.42c.83-.27,1.6-.19,2.37-.13.36.03.7.22.79.64.09.41-.09.72-.4.94-.2.14-.43.28-.67.31-.63.07-1.26.08-1.96.12-.05-.66-.09-1.24-.13-1.88Z"/>
      <path class="cls-2" d="M93.34,113.35v-1.77c.81.05,1.62.1,2.43.16.07,0,.13.03.2.05.39.11.66.39.66.68,0,.3-.3.53-.74.56-.41.03-.82,0-1.23.05-.4.05-.8.16-1.32.27Z"/>
      <path class="cls-2" d="M102.52,116.76c-1.31-.03-2.41-.51-3.11-1.64-.87-1.42-.34-2.48,1.12-3.1.72-.31,1.49-.34,2.31-.06.55.19,1.03.46,1.51.74.74.43,1.3,1.19,1.12,2.23-.08.47-.31.85-.7,1.13-.66.46-1.43.7-2.24.71Z"/>
      <path class="cls-2" d="M113.49,97.18c.05-.13.06-.2.09-.25.4-.71.5-.75,1.23-.31.39.23.76.5,1.11.79.3.25.51.59,1.01.57.24-.01.51.27.74.45.52.41,1.02.83,1.52,1.27.15.13.3.31.36.49.06.2.09.46,0,.64-.12.26-.4.27-.66.2-.76-.2-1.44-.57-2.02-1.11-.57-.53-1.12-1.08-1.64-1.65-.37-.39-.76-.7-1.29-.86-.16-.05-.3-.16-.45-.24Z"/>
      <path class="cls-2" d="M122.21,101.47c.21.44.1.76-.06,1.06-.19.36-.4.71-.62,1.04-.16.24-.4.28-.67.18-.42-.16-.93-.89-.94-1.35,0-.29.15-.45.46-.46.14,0,.27,0,.41.02.33.06.6.03.85-.24.13-.14.37-.17.57-.25Z"/>
      <path class="cls-2" d="M118.37,97.37c.07.04.2.08.3.16.46.36.92.73,1.38,1.1.09.07.21.14.24.23.05.13.09.33.03.43-.07.09-.3.16-.4.11-.73-.35-1.38-.8-1.81-1.5-.15-.25-.03-.51.27-.53Z"/>
      <path class="cls-2" d="M122.78,103.5c.02-.53.32-.82.91-.74.16.02.35.21.42.36.12.28-.23,1.11-.49,1.27-.26.17-.82-.09-.86-.42-.02-.13.02-.27.03-.47Z"/>
      <path class="cls-2" d="M117.27,97.24c-.61-.03-.89-.23-.85-.63.04-.44.27-.69.61-.66.44.04.82.45.8.86-.02.3-.21.45-.57.43Z"/>
      <path class="cls-2" d="M85.3,97.96c-.19.13-.33.28-.46.28-.16,0-.34-.11-.49-.2-1.06-.66-2.12-1.34-3.18-2.01-.25-.16-.5-.33-.78-.42-.87-.29-1.48-.95-2.16-1.5-.09-.08-.13-.23-.17-.35-.06-.16-.12-.33-.15-.49-.02-.16-.05-.41.03-.47.11-.08.36-.07.49,0,.32.17.6.42.9.61.53.35,1.09.66,1.61,1.03.85.61,1.67,1.26,2.49,1.89.49.37.97.75,1.45,1.14.14.11.23.26.42.47Z"/>
      <path class="cls-2" d="M87.17,91.5c.08,0,.13.01.17,0,.26-.11.53-.22.7.13.1.22-.13.67-.38.81-.53.3-1.31-.04-1.4-.64-.1-.64-.41-1.04-1.06-1.16-.28-.05-.51-.2-.61-.49-.1-.29.05-.5.36-.48.81.04,1.95.96,2.22,1.82Z"/>
      <path class="cls-2" d="M88.72,102.39c-.36-.19-.34-.56-.38-.89-.01-.1.09-.26.19-.32.06-.04.23,0,.31.06.33.27.65.55.96.85.22.21.06.6-.36.99-.33.31-.61.34-.84.12-.17-.18-.16-.29.12-.8Z"/>
      <path class="cls-2" d="M87.52,100.46c-.13.08-.23.18-.35.2-.46.08-1.29-.43-1.42-.86-.09-.29.09-.54.38-.46.5.16.96.41,1.29.84.05.07.06.16.1.28Z"/>
      <path class="cls-2" d="M85.97,103.68c-.43.43-.89.61-1.38.71-1.15.23-2.32.17-3.48.08-.86-.07-1.7-.31-2.54-.53-.57-.15-.93-.57-1.05-1.15-.15-.71.24-1.2.96-1.28.53-.06.94.06,1.16.61.08.21.21.4.34.64-.05.08-.11.17-.16.26-.17.28-.02.46.22.52.45.12.91.16,1.31-.16.46-.38.9-.78,1.02-1.41.02-.09.06-.17.12-.33,1.2.61,2.4,1.14,3.47,2.05Z"/>
      <path class="cls-6" d="M135.67,102.41c.37-.81.27-1.48-.26-1.97-.53.22-.98.54-1.25,1.08-.06.12-.12.25-.21.35-.22.28-.54.24-.61-.09-.14-.64-.26-1.29-.33-1.95-.06-.51.12-.99.58-1.23.89-.48.83-1.32.97-2.15-.36-.05-.68-.06-.98-.14-.15-.04-.35-.19-.38-.32-.03-.11.14-.34.26-.39,1.11-.41,1.16-1.42,1.34-2.34.05-.24,0-.51.03-.75.04-.31.04-.69.4-.81.41-.14.81-.06,1.13.36-.54.46-.27.92-.03,1.42.17.36.22.78.31,1.17.22.89.17,1.8.21,2.71.09,1.79.2,3.58.33,5.37.04.61.18,1.22.27,1.82.12.84-.48,1.46-1.33,1.36-.32-.03-.64-.05-.95-.06-.81-.02-1.13-.39-1.09-1.21.02-.32,0-.64,0-.96,0-.18,0-.37.03-.54.14-.74.41-1.17,1.25-.8.08.03.18.04.31.07ZM134.77,102.84c-.04.28-.1.57-.11.85-.02.34,0,.68,0,1.02,0,.42.08.51.51.54.34.03.68.06,1.02.09.48.05.73-.18.67-.68-.1-.87-.23-1.74-.35-2.6q-.49.97-1.74.78ZM134.69,95.5c.15.26.31.47.4.71.09.24.12.51.17.76,1.07-.17,1.19-.34.97-1.36-.08-.4-.12-.8-.17-1.21-.06-.47-.27-.86-.63-1.26-.17.96-.34,1.82-.74,2.35ZM134.57,98.74c-1.02.51-1.18.92-.72,1.96.4-.29.8-.58,1.11-.8-.14-.43-.26-.8-.39-1.16ZM135.6,97.69q-.29,1,.56,1.29v-1.33c-.22.02-.38.03-.56.04ZM136.36,100.51c.07-.38.1-.6-.32-.49.1.15.17.27.32.49Z"/>
      <path class="cls-2" d="M100.15,105.67q-.39-.8.41-1.55c-.09-1.75-.18-3.48-.28-5.2-.01-.18-.09-.34-.13-.52-.04-.22-.07-.44-.1-.66,0-.04.03-.09.03-.13,0-.28-.08-.59,0-.84.08-.27.31-.5.46-.74-.41-.6-.25-.97.45-1.07.11-.01.23-.01.34-.01.55,0,.65.17.53.72-.07.35-.09.71-.09,1.07-.02.93.05,1.87-.04,2.8-.11,1.28-.13,2.55.08,3.82.06.35.06.7.08,1.06,0,.08-.03.19-.08.26-.41.58-.96.93-1.66,1.01Z"/>
      <path class="cls-2" d="M99.18,97.67c-.1.73-.24,1.48-.28,2.22-.06,1.13-.1,2.27.15,3.4.04.2.08.4.09.61,0,.28-.13.49-.43.52-.28.03-.41-.15-.47-.39-.03-.13-.03-.27-.04-.41-.07-.77-.17-1.54-.2-2.31-.05-1.04-.07-2.09-.06-3.14,0-.26.13-.52.24-.77.14-.31.46-.41.74-.36.33.05.24.38.26.64Z"/>
      <path class="cls-2" d="M100.53,93.78c-.05.52-.23.91-.62,1.16-.5.31-1.01.61-1.53.9-.42.23-.72.2-.84-.05-.11-.23,0-.47.37-.71.11-.08.23-.17.36-.19.72-.13.91-.68,1.04-1.28.02-.07.02-.14.03-.21.05-.27.06-.59.41-.62.32-.03.47.24.6.49.09.18.14.38.19.51Z"/>
      <path class="cls-6" d="M61.05,89.49c1.05.19,2.15.37,3.25.59.62.12,1.24.29,1.85.46.39.11.68.35.85.74.05.13.11.26.21.36,1,1.08,1.69,2.38,2.45,3.61.27.42.55.84.75,1.3.44.95.46,1.89.07,2.91-.73,1.9-1.99,3.18-3.92,3.81-1.26.41-2.5.87-3.75,1.28-.41.13-.84.21-1.27.25-.92.09-1.3-.15-1.57-1.05-.21-.7-.38-1.41-.51-2.13-.29-1.54-.56-3.09-.82-4.64-.05-.29-.12-.59-.11-.88.04-1.72-.17-3.41-.49-5.1-.15-.81.06-1.09.86-1.22.7-.11,1.4-.19,2.16-.29ZM58.56,90.5c.06.35.11.64.16.92.1.58.18,1.17.29,1.75.28,1.5.06,3.05.41,4.55.41,1.77.68,3.58,1.06,5.36.23,1.11.44,1.27,1.5.95,1.78-.54,3.53-1.2,5.29-1.82.15-.05.27-.16.41-.24,1.16-.67,1.72-1.77,2.19-2.96.22-.56.26-1.11.08-1.67-.13-.39-.29-.77-.49-1.12-.48-.82-.99-1.63-1.51-2.44-.25-.38-.54-.73-.81-1.1-.18-.24-.43-.44-.54-.71-.28-.68-.83-.92-1.48-1.05-.94-.18-1.89-.31-2.81-.56-1.24-.34-2.43-.12-3.76.13Z"/>
      <path class="cls-2" d="M55.16,97.93c0,.32-.17.64-.4.67-.25.03-.82-.26-.9-.51-.25-.79-.18-1.58.06-2.35.08-.24.27-.27.5-.24.26.04.42.16.46.42.09.66.18,1.31.27,2.01Z"/>
      <path class="cls-2" d="M57.92,97.39c-.06.48-.07.88-.16,1.25-.04.16-.24.34-.4.38-.11.03-.37-.15-.4-.28-.09-.46-.14-.94-.13-1.41,0-.26.14-.52.26-.77.15-.31.48-.33.62,0,.12.28.16.61.22.83Z"/>
      <path class="cls-2" d="M57.91,99.51c.11.07.23.11.29.19.16.24.32.49.42.77.1.27-.5,1.01-.78.94-.39-.09-.47-.52-.63-.81-.09-.15-.06-.47.05-.61.15-.2.42-.31.65-.47Z"/>
      <path class="cls-2" d="M134.77,102.84q1.25.19,1.74-.78c.12.86.25,1.72.35,2.6.06.5-.19.73-.67.68-.34-.03-.68-.06-1.02-.09-.43-.03-.51-.12-.51-.54,0-.34-.02-.68,0-1.02.01-.28.07-.57.11-.85Z"/>
      <path class="cls-2" d="M134.69,95.5c.39-.53.57-1.39.74-2.35.36.4.57.79.63,1.26.06.41.09.81.17,1.21.21,1.01.1,1.18-.97,1.36-.05-.25-.08-.52-.17-.76-.09-.24-.24-.44-.4-.71Z"/>
      <path class="cls-2" d="M134.57,98.74c.12.36.24.73.39,1.16-.31.22-.71.51-1.11.8-.46-1.04-.29-1.45.72-1.96Z"/>
      <path class="cls-2" d="M135.6,97.69c.18-.02.34-.03.56-.04v1.33q-.85-.29-.56-1.29Z"/>
      <path class="cls-2" d="M136.36,100.51c-.15-.23-.23-.34-.32-.49.42-.1.39.11.32.49Z"/>
      <path class="cls-2" d="M58.56,90.5c1.33-.25,2.52-.47,3.76-.13.92.25,1.87.38,2.81.56.65.13,1.2.37,1.48,1.05.11.26.36.47.54.71.27.36.57.71.81,1.1.52.8,1.03,1.61,1.51,2.44.2.35.36.74.49,1.12.18.56.14,1.1-.08,1.67-.47,1.19-1.03,2.29-2.19,2.96-.14.08-.27.19-.41.24-1.76.62-3.51,1.28-5.29,1.82-1.06.32-1.27.15-1.5-.95-.38-1.78-.65-3.58-1.06-5.36-.35-1.51-.13-3.05-.41-4.55-.11-.58-.2-1.17-.29-1.75-.05-.28-.1-.57-.16-.92Z"/>
    </g>
  </g>
  <g>
    <g>
      <polygon class="cls-5" points="28.66 85.62 4.86 120.46 6.04 121.96 51.45 120.38 35.14 90.43 30.29 84.76 28.66 85.62 28.66 85.62"/>
      <path class="cls-4" d="M27.48,90.14c-.86.37-.24-.86-1.11-.49-.41.14-.18.86-1.04.6-.34,1.42-.67,2.82-2,3.34-.32,1.49.76,1.43,1.19,2.11-1.88,1.37-1.89,5.77-5.2,4.31.3.8,1.29.84,1.44,1.82-.71.37-1.24.51-1.59.62,1.15.94-.31.7-.75,1.39-1.15,1.79-1.77,4.6-3.79,5.05-.07,1.3-.55,2.25-1.77,2.52.68,1.4-.39.19-.77.85,1.73.33-1.11,1.18.1,1.89-1.92.4-1.45,2.98-2.78,3.92-.17-.46.25-1.6-.34-1.61,0,.42.09.93-.5.84-.29.89.88.16.59,1.05-1.12.28-.91,1.75-1.5,2.51,2.81-.62,7.38-.67,10.52-.52.04-.21-.02-.53.24-.55,10.46.96,18.79-.67,31.56-1.02-.58-2.84-3.09-4.2-4.07-5.75-.32-2.39-2.59-2.64-2.69-5.27-1.21.18-1.04-.96-.89-1.57-1.07.02-2.05-1.72-1.18-2.11-.85.45-.91-.16-1.64-.46-1.95-5.89-6.6-10.04-8.84-14.69.01.27-.46.36-.54.02.33-.04.63-.11.52-.56-.75.26-.72-.34-1.36-.2-1.3,1.82-1.88,4.3-4.06,5.33.57.93-.2,1.31-.71,1.93-.33-1.07-.06-2.1.39-2.99.44-.02.18.74.58.78.06-1.16.98-3.36,1.78-2.25-.03-.37.09-.6.22-.82h0ZM43.23,102.6c1.59.23,1.18,2.68,2.84,2.84.04,1.75.94,2.56,2.05,3.14-.12,1.84.92,2.4,2.03,2.87.12.45-.18.52-.51.56.38.37,1.27.62.61,1.32.21-.16.43-.3.79-.31.13.54-.01.85-.5.84.54.69,2.09,2.15,1.21,2.64.28.46.87.55,1.64.46.15,2.21,1.37,3.24,1.36,5.61-.26-.16-1.02-.58-.79.31-.49-.51-1.88-.01-1.94-.98-.6,1.06-1.85-.7-3.21.7-.82.14-.61-.85-.88-1.31-.77.27.38.66.07,1.35-.21-.18-.91-1.09-.81.04-3.76-.26-9.36-.28-12.69.08-.01-.27-.03-.53-.04-.8-1.22.72-2.64.86-3.77.19-.73,1.05-5.75,1.09-7.28.36-2.96,1.7-9.55.1-10.98,1.89-2.33-1.3-6.33.17-9.23-.89-.27-.85.18-1.03.48-1.38-1.09-.04-.46-.2-.63-1.86,1.25-.41,1.77-1.48,1.74-3.06,1.25.2.54-1.39,1.83-1.17-.23-.82-.22-.5-.07-1.35,1.83.2.73-2.26,2.32-2.27-.19-.27-.63-.25-.58-.79,1.09.3.5-.91,1.59-.62-.02-.45-.04-.9-.06-1.35.23-.22.6-.32,1.06-.32,1.58-4.07,4.54-6.88,6.22-10.85.93-.02,1.22-.61,1-1.67.79.04.79-.65,1.59-.62.65-3.61,4.09-4.71,4.72-8.34,2.96-.66,2.25-4.65,5.13-5.38-.19-.27-.63-.25-.58-.78.89-.06,1.32-.53,2.42-.39,1.21.86-.32,1.39,1.41,1.28-1.11,1.22.35,4.78,1.57,4.25.4.07.07,2.04,1.43,1.82-.14.83.33.97.36,1.6,3.46,2.89,4.13,8.89,7.61,11.78.12.45-.18.52-.52.56h0Z"/>
    </g>
    <text class="cls-1" transform="translate(17.84 117.11) scale(.79 1)"><tspan class="cls-7" x="0" y="0">1</tspan><tspan x="12.26" y="0">5</tspan></text>
  </g>
</svg>