<?xml version="1.0" encoding="UTF-8"?>
<svg id="Layer_1" data-name="Layer 1" xmlns="http://www.w3.org/2000/svg" viewBox="0 0 180 200">
  <defs>
    <style>
      .cls-1 {
        fill: #6ebd44;
      }

      .cls-1, .cls-2, .cls-3, .cls-4, .cls-5, .cls-6, .cls-7 {
        fill-rule: evenodd;
      }

      .cls-2, .cls-8 {
        fill: #fff;
      }

      .cls-3 {
        fill: #916f2a;
      }

      .cls-4 {
        fill: #231f20;
      }

      .cls-8 {
        font-family: AmericanTypewriter-Bold, 'American Typewriter';
        font-size: 20.52px;
        font-weight: 700;
      }

      .cls-5 {
        fill: #00adbc;
      }

      .cls-6 {
        fill: #ed2d2c;
      }

      .cls-9 {
        letter-spacing: -.06em;
      }

      .cls-7 {
        fill: #e4ecb4;
      }
    </style>
  </defs>
  <g>
    <path class="cls-1" d="M123.4,50.38c.78,1.73,2.35,3.93.71,5.75-1.9-1.01-1.93-4.2-.71-5.75h0Z"/>
    <path class="cls-4" d="M109.57,60.17c1.51.38,2.77-1.09,2.96-2.42.13-.9-.17-1.86-.58-2.47-1.09,1.38-2.34,2.64-2.38,4.89h0ZM112.53,54.15c.34.19.08.56.13.86.08.54.49,1.04.58,1.62.12.74-.03,1.5-.32,2.15-.59,1.3-1.46,2.25-3.67,1.99-.6-.37-.43-1.46-.13-2.26.58-1.52,2.07-3.15,2.89-4.24.26.03.26-.14.52-.11h0Z"/>
    <path class="cls-4" d="M101.27,58.77c.83.46,1.88-.06,2.77-.27.06-1.24-1.17-2.01-2.38-1.93-.54-.38-1.78-.47-2.64-.86.22,1.01,1.51,2.65,2.25,3.06h0ZM105.13,58.18c.03.26-.11.37-.06.65-.35-.02-.4.2-.52.37-1.23.26-2.49.77-3.67.05-1.42-.86-2.17-3.04-3.22-4.03.04-.28.41-.27.58-.43.72.28,1.94.51,2.9.64.88.12.95.18,1.61.59.49.31.98.45,1.29.8.4.46.26,1.21,1.09,1.34h0Z"/>
    <path class="cls-1" d="M111.95,55.28c.41.61.71,1.57.58,2.47-.19,1.33-1.45,2.8-2.96,2.42.04-2.26,1.29-3.51,2.38-4.89h0Z"/>
    <path class="cls-1" d="M99.02,55.71c.86.39,2.1.48,2.64.86,1.21-.08,2.44.7,2.38,1.93-.89.21-1.93.74-2.77.27-.75-.41-2.04-2.05-2.25-3.06h0Z"/>
    <path class="cls-1" d="M131.39,56.3c.03,1.48.07,4.07-1.22,4.84-.28-.42-.67-1.06-.84-1.66-.26-.95.16-1.68.64-2.31.49-.27,1.01-.51,1.42-.86h0Z"/>
    <path class="cls-4" d="M120.25,59.1c.24.61.66,2.11,1.03,2.47.49.48,1.08.81,1.87,1.03.4-2.46-1.36-4.02-3.22-4.95.03.39.15,1.02.32,1.45h0ZM123.4,63.18c-1.17,0-1.61-.63-2.44-.92-.63-.53-.69-1.31-.96-2.04-.37-.98-1.33-2.13-1.16-3.5.12,0,.22-.04.26-.11,1.31.23,2.07.92,2.96,1.5.02.16.1.28.19.38.9.67,1.83,1.89,1.8,3.23,0,.08-.03.6-.19.48.02.18.1.31.06.54-.29.05-.31.32-.52.43h0Z"/>
    <path class="cls-1" d="M119.93,57.64c1.86.93,3.62,2.48,3.22,4.95-.78-.21-1.38-.54-1.87-1.03-.37-.36-.79-1.86-1.03-2.47-.17-.43-.29-1.06-.32-1.45h0Z"/>
    <path class="cls-1" d="M116.72,59.95c.75,1.69.62,4.43-1.1,5.11.04-.36-.31-.65-.38-.91-.49-1.6.81-3.22,1.48-4.19h0Z"/>
    <path class="cls-2" d="M127.01,60.65c.18.12.32.27.39.48-.16-.03-.14-.21-.39-.16v-.33h0Z"/>
    <path class="cls-4" d="M92.2,67.27c.58-.72.37-2.14-.06-3.01-.33-.66-.93-1.56-1.16-1.72-.02-.01-.12-.2-.26,0,.39,1.89-1.53,4.27.32,5.38.31-.15.92-.35,1.16-.64h0ZM90.14,60.98c0-.05.08-.04.13-.05.76.73,2.03,2.21,2.77,3.5.41.72.54,1.8.13,2.58-.4.75-.83,1.22-1.67,1.61-.64.05-1.47-.3-1.74-.75-.64-1.05.07-2.65.26-4.25.11-.96,0-1.69,0-2.47,0-.09.05-.14.13-.16h0Z"/>
    <path class="cls-1" d="M140.91,61.73c.35,1.91-.53,3.43-1.8,4.68-.28.27-.95.59-1.48.65.04-2.22,1.71-3.88,3.09-5.33h.19Z"/>
    <path class="cls-1" d="M91.04,67.91c-1.85-1.1.07-3.49-.32-5.37.14-.21.23-.01.26,0,.23.16.82,1.06,1.16,1.72.43.86.64,2.29.06,3.01-.24.3-.85.49-1.16.64h0Z"/>
    <path class="cls-4" d="M102.69,63.93c-1.23.16-2.59.38-3.61.86.92,1.43,4.53.88,5.08-.43-.57-.2-1.05-.16-1.48-.43h0ZM104.68,64.58c-.77.74-1.75,1.52-3.15,1.61-.76.05-1.41-.3-2.25-.38-.14-.5-1.24-.72-1.16-1.24.04-.28,1.38-.76,2.06-.91,1.55-.35,2.98-.35,4.06.11.18.24.51.36.45.81h0Z"/>
    <path class="cls-1" d="M104.17,64.36c-.56,1.31-4.17,1.87-5.08.43,1.02-.48,2.38-.7,3.61-.86.43.27.91.23,1.48.43h0Z"/>
    <path class="cls-4" d="M132.61,66.46c-.52.73-1.66,2.19-1.61,3.71.48-.02.82-.3,1.09-.64.82-1.02,1.71-2.32,1.29-3.77-.4.2-.53.48-.77.7h0ZM130.87,71.03c-.98-.37-.67-1.47-.39-2.26.2-.54.67-1.25,1.09-1.94.63-1.03.92-2.01,2.25-2.2.33.19.46.55.64.86.03.86-.19,1.25-.32,1.99-.34.22-.44.64-.51,1.08-.83.89-1.32,2.25-2.77,2.47h0Z"/>
    <path class="cls-2" d="M125.14,65.12c.24-.03.12.38.06.43-.21-.09-.02-.2-.06-.43h0Z"/>
    <path class="cls-4" d="M102.3,71.19c.43-.25.98-.68.97-1.13-.42.26-.88.77-.97,1.13h0ZM101.66,70.87c.37-.09.39-.46.58-.7.5-.16.77-.5,1.03-.86.99-.27,1.3-1.38,1.09-2.47-1.86.33-2.53,2.11-2.7,4.03h0ZM105.07,66.03c.13.11.09.36.26.43-.13.72-.08,1.86-.58,2.31.21.55-.4.96-.71,1.4-.05.07.03.2,0,.27-.07.14-.28.15-.45.33-.05.05-.02.21-.06.27-.51.53-.92.72-1.55.97-.63-.05-.73.07-1.29,0-.07-.07-.06-.2-.19-.22.87-2.44,1.07-5.85,4.57-5.75h0Z"/>
    <path class="cls-2" d="M125.21,66.03c.03.17-.2.12-.13.32-.14-.05-.09-.39.13-.32h0Z"/>
    <path class="cls-1" d="M104.36,66.84c.21,1.09-.11,2.2-1.09,2.47-.25.36-.53.7-1.03.86-.18.24-.21.61-.58.7.17-1.92.84-3.71,2.7-4.03h0Z"/>
    <path class="cls-2" d="M118.26,68.02c0,.45.73.29.71.75-.5-.23-.97-.48-1.22-.92.25-.17.21.36.52.16h0Z"/>
    <path class="cls-4" d="M106.94,71.68c1.9-.08,2.87-.94,3.22-2.31-1.54-.05-2.96.92-3.22,2.31h0ZM105.46,71.84c1.31-1.11,1.7-3.27,4.31-3.12.21,0,.28-.12.51-.11.21.18.53.28.45.75-.05.3-.29,1.05-.39,1.18-.13.18-.74.38-.64.75-.43.06-.7.23-.9.59-.66.15-2.76.77-3.35-.05h0Z"/>
    <path class="cls-1" d="M110.15,69.37c-.35,1.38-1.31,2.24-3.22,2.31.25-1.39,1.67-2.36,3.22-2.31h0Z"/>
    <path class="cls-4" d="M143.16,71.3c1.29.93,4.32.62,4.7-.86-1.63.3-3.49-.25-4.7.86h0ZM149.21,69.69c0,.58-.3,1.08-.84,1.56-1.35,1.21-2.76,1.52-4.95,1.02-.17-.22-.62-.2-.71-.48-.13.03-.04.25-.19.27-.18-.06-.34-.14-.45-.27.08-.88.81-1.22,1.48-1.61,1.01-.13,1.92-.22,3.09-.27.91-.04,1.73-.33,2.57-.21h0Z"/>
    <path class="cls-4" d="M90.59,73.34c.67.62,1.46,1.17,2.51,1.24.8-1.77-.91-3.14-2.96-3.01-.21-.11-.37-.27-.64-.32.01.88.48,1.53,1.1,2.1h0ZM93.62,75.34c-.62-.13-1.06-.08-1.74-.16-.83-.35-1.32-.94-1.93-1.67-.55-.65-1.31-1.44-1.55-2.26-.15-.53-.28-1.25.07-1.56.65-.01.73.62,1.22.91.4.24.78.17,1.29.27.84.17,1.51.56,2.12.86.69.85,1.67,2.79.52,3.6h0Z"/>
    <path class="cls-2" d="M103.27,70.06c.02.45-.53.88-.97,1.13.09-.36.55-.87.97-1.13h0Z"/>
    <path class="cls-1" d="M147.86,70.44c-.38,1.48-3.41,1.79-4.7.86,1.2-1.11,3.07-.56,4.7-.86h0Z"/>
    <path class="cls-4" d="M111.95,71.84c-.53.26-.79.85-1.22,1.24-.48.43-1.01.65-1.35,1.07,1.24.54,2.63.06,3.41-.64.59-.53,1.15-1.29,1.29-1.93-.84-.09-1.6.01-2.12.27h0ZM114.85,70.98c.18.59-.29.92-.32,1.29-.37.45-.77,1.22-1.35,1.67-.15.01-.25,0-.32-.05-.26.77-1.64.57-2.06,1.08-1.06-.07-1.92-.3-2.51-.75.33-.44.87-.61,1.35-.97,1.3-.97,2.09-2.69,4.57-2.26h.64Z"/>
    <path class="cls-1" d="M89.5,71.25c.27.06.43.21.64.33,2.05-.13,3.76,1.24,2.96,3.01-1.05-.07-1.84-.61-2.51-1.24-.62-.57-1.08-1.21-1.1-2.1h0Z"/>
    <path class="cls-1" d="M114.08,71.57c-.14.65-.7,1.41-1.29,1.93-.78.7-2.17,1.18-3.41.64.34-.42.87-.64,1.35-1.07.43-.39.7-.98,1.22-1.24.52-.26,1.28-.36,2.12-.27h0Z"/>
    <path class="cls-3" d="M96.45,72.22c2.29.78,2.29,3.46,3.99,4.73,1.56.21,3.47.66,4.18,1.78.54.84.41,2.57.45,3.76.01.38.08.86.13,1.29.24,2.25.36,4.42.84,6.18.08.33.35.62.45.97.22.82.31,1.71.58,2.52.91,2.77,3.2,5.7,1.29,8.77-.47-3.32-2.14-5.63-3.93-7.85,0-.12-.16-.12-.32-.11,0-.14.02-.31-.07-.38-1.26-1.67-3.05-2.9-4.25-4.62-.99-.44-1.61-1.2-2.32-1.88-.86-.13-1.35-.56-1.8-1.02-.2.15.11.4-.06.54-1.95-.06-2.94-.91-4.24-1.51-.96-.84-2.26-1.55-3.41-2.31-.77-.5-1.53-.72-2.45-1.07-.24-.1-.44-.29-.71-.38-.77-.25-1.75-.04-2.25-.65.22-.19.48-.17.71-.43,1.71-.49,3.71.12,5.28.59,1.25.38,2.29.62,3.34,1.13.63.3,1.37.7,2,1.08.29.17.66.27.9.43.37.24.58.64.96.91.2.14.5.19.71.32.15.1.23.27.39.38.36.24.85.33,1.22.54.34.19.58.5.9.7.96.6,2.17,1.14,3.15,1.72.32.32.63.65,1.22.75.23-.09.13-.38.38-.32.08-.63-.29-1.11-.32-1.72-.11-2.02,1.01-4.33,0-6.24-1.08-2.05-3.6-2.64-5.66-3.98-.44-.82-.32-1.62-.64-2.58-.06-.19-.25-.31-.32-.48-.18-.4-.12-1.02-.32-1.56h0Z"/>
    <path class="cls-4" d="M85.89,77.86c1.97-1.07.58-3.46-.52-4.52-.61,1.46-1.17,3.76.52,4.52h0ZM85.51,78.56c-.2-.68-1.01-1.04-1.29-1.67-.65-1.5.24-3.06.77-4.46.02-.06.13-.04.13-.11.07,0,.11.01.13.05.73.89,2.29,2.45,2.51,3.93.17,1.17-1.09,2.19-2.25,2.26h0Z"/>
    <path class="cls-1" d="M85.38,73.34c1.09,1.06,2.49,3.45.52,4.52-1.69-.76-1.13-3.06-.52-4.52h0Z"/>
    <path class="cls-2" d="M124.18,74.1c.05.03.11.05.19.05.05.19-.26.07-.19.27-.14-.02-.05-.29,0-.32h0Z"/>
    <path class="cls-4" d="M139.88,74.8c-1.62-.02-3.15.69-4.31.75-.07.2-.42.16-.45.38,1.36.49,2.88.31,4.37.11,1.43-.2,2.39-.37,2.9-1.13-.75-.05-1.74-.1-2.51-.11h0ZM134.09,76.14c.08-.25.39-.32.39-.64,1.83-1.07,4.99-1.05,7.33-1.18.49-.03.99-.1,1.29.11.18.67-.63,1.61-1.48,1.93-1.11.43-2.97.14-4.05.54-.86-.13-2.11.05-2.77-.59-.34.04-.57-.02-.71-.16h0Z"/>
    <path class="cls-1" d="M142.38,74.9c-.5.75-1.46.93-2.9,1.13-1.5.2-3.01.39-4.37-.11.03-.22.38-.18.45-.38,1.17-.06,2.69-.78,4.31-.75.77.02,1.76.06,2.51.11h0Z"/>
    <path class="cls-4" d="M76.56,76.95c.29.47.43.87.71,1.13.67.64,1.61.42,2.7.38.35-.02.68.11.97-.11-1.2-1.53-2.97-2.67-5.21-2.9,0-.03,0-.06-.06-.05,0,.6.49.91.9,1.56h0ZM81.13,77.65c.23.18.65.21.71.54-.72,1.31-2.83,1.27-4.5.65-1.08-.91-1.54-2.33-2.51-3.34-.21-.07-.37-.19-.39-.43.08-.19.35-.16.39-.16,2.84-.34,4.82,1.05,6.24,2.26.04.23.03.35.06.48h0Z"/>
    <path class="cls-1" d="M75.66,75.39c.05,0,.06.02.06.05,2.24.23,4.01,1.37,5.21,2.9-.28.22-.61.09-.96.11-1.09.05-2.03.26-2.7-.38-.28-.26-.42-.66-.71-1.13-.41-.65-.89-.96-.9-1.56h0Z"/>
    <path class="cls-1" d="M154.74,85.01c.02-.14.02-.27-.19-.22.99-2.65,3.12-4.35,5.66-5.7.08-.01.12.01.13.05.12,1.03-.53,2.07-.77,2.79-.87,1.61-2.28,3.04-4.83,3.07h0Z"/>
    <path class="cls-4" d="M134.09,81.95c-.06.12-.2.11-.32.27-.42.56-.77,1.5-1.09,2.2-.22.48-.58.9-.2,1.45,1.17-.29,1.7-1.13,2.32-1.88-.01-.44.03-.83.32-1.02-.12-.6-.47-1.23-.71-1.56-.21.15-.21.34-.32.54h0ZM132.22,86.79c-.41-.1-.55-.43-.77-.7.06-.78.4-1.73.77-2.53.37-.79.82-1.36,1.29-2.1.42-.66.59-1.45,1.61-1.34.33.66.66,1.31.71,2.1.12,2.28-1.63,3.91-3.6,4.57h0Z"/>
    <path class="cls-1" d="M78.62,81.79c-.99,1.43-3.86,2.2-6.05,1.93.44-.59,1.16-.96,1.54-1.61,1.08-.38,2.11-.97,3.41-.86.26.31.72.26,1.1.54h0Z"/>
    <path class="cls-1" d="M134.41,81.41c.24.33.59.96.71,1.56-.29.19-.33.58-.32,1.02-.62.75-1.15,1.59-2.32,1.88-.39-.55-.03-.97.19-1.45.32-.7.67-1.64,1.09-2.2.12-.16.26-.15.32-.27.11-.2.11-.39.32-.54h0Z"/>
    <path class="cls-4" d="M82.03,87.11c.65-.54,1.48-.89,1.74-1.29.38-.6.21-1.67-.39-1.94-1,.09-2.46.55-3.09,1.29-.18,1.06.21,2.06.58,2.96.66-.13.68-.62,1.16-1.02h0ZM80.94,90.17c-.59,0-.77-.49-.77-.8,0-.24.25-.45.26-.7.04-1.15-1.27-2.36-.84-3.87.3-.23.55-.69,1.03-.97.63-.36,2.53-.88,3.22-.38.4.3.7.99.77,1.4.17.98-.68,1.76-1.16,2.47-.37.5-1.07.66-1.54,1.02-.59.45-.76,1.13-.97,1.83h0Z"/>
    <path class="cls-1" d="M80.88,88.13c-.36-.9-.76-1.9-.58-2.96.63-.74,2.09-1.2,3.09-1.29.6.27.76,1.34.39,1.94-.26.41-1.09.75-1.74,1.29-.48.4-.49.89-1.16,1.02h0Z"/>
    <path class="cls-4" d="M88.4,86.41s0-.06-.06-.05c-.74.31-.75.75-1.03,1.34-.29.61-.65,1.28-.58,2.04.07.78.11,1.6.45,2.2,1.26-.95,2.89-3.96,1.22-5.54h0ZM87.18,92.92c-.27-.06-.42-.22-.64-.33-.37-.82-.54-1.83-.64-3.06-.06-.74.13-.99.32-1.5.09-.25.03-.58.13-.81.27-.65,1.58-1.88,2.57-1.34.15.08.67.77.83,1.07.51.93.39,2.1.07,2.9-.24-.07-.12.15-.32.11-.13,1.3-1.28,2.41-2.32,2.96h0Z"/>
    <path class="cls-4" d="M148.69,86.95c-.4.47-1.21.81-1.8,1.35-.55.5-1.14,1.39-.9,1.77.86-.04,1.08-.32,1.8-.43.66-.56,1.32-1.69,1.03-2.69h-.13ZM149.91,85.87c.52.88-.22,2.32-.64,3.06-.27.48-.48.95-.97,1.18-.65.32-1.49.33-2.12.65-.55-.11-.76-.3-1.35-.16-.7-1.1.86-1.9,1.22-2.79.29-.24.69-.38,1.09-.65.36-.24.65-.65,1.03-.86.4-.22.82-.35,1.16-.54.12-.07.4.1.58.11h0Z"/>
    <path class="cls-1" d="M87.18,91.95c-.34-.6-.38-1.43-.45-2.2-.07-.76.29-1.44.58-2.04.29-.59.29-1.03,1.03-1.34.05,0,.06.02.06.05,1.67,1.58.04,4.59-1.22,5.54h0Z"/>
    <path class="cls-1" d="M148.82,86.95c.29,1-.37,2.13-1.03,2.69-.72.11-.94.39-1.8.43-.24-.38.35-1.27.9-1.77.59-.53,1.4-.87,1.8-1.35h.13Z"/>
    <path class="cls-1" d="M163.75,90.66c-.12.61-1.59.11-1.99.48-.94.02-2.78-.09-3.67-.27-.02-.27-.4-.24-.58-.38-.07-.37-.45-.48-.52-.86.55-.28.94-.73,2-.7.53.01.57.29,1.09.43.14.04.54-.01.58.27,1.13.33,1.86.94,3.09,1.02h0Z"/>
    <path class="cls-2" d="M73.09,90.02c.02-.08.16-.05.25-.06,0,.28.43.33.2.65-.27-.09-.3-.39-.45-.59h0Z"/>
    <path class="cls-2" d="M73.67,91.47h.19c.09.16.04.43.13.59-.22-.1-.21-.39-.32-.59h0Z"/>
    <path class="cls-2" d="M74.05,92.49c.32.02,0,.76.06.16.03-.08-.25-.13-.06-.16h0Z"/>
    <path class="cls-1" d="M156.99,94.74c-1.51.35-4.51,1.1-4.96-.54.18-.13.63-.33.84-.59.09.08.33.05.51.05,1.3-.33,2.54.68,3.6,1.08h0Z"/>
    <path class="cls-2" d="M156.16,95.61c-.06.11-.19.16-.39.16-.04-.19.19-.16.39-.16h0Z"/>
    <path class="cls-2" d="M113.05,97.27c.17.32.32,1.2.06,1.5-.12-.8-.11-.87-.06-1.5h0Z"/>
    <path class="cls-2" d="M128.75,102.86c-.2.39-.94.33-1.48.43.26-.34,1.05-.24,1.48-.43h0Z"/>
    <path class="cls-2" d="M127.07,103.4c-.07-.06-.29-.02-.39.05-.24-.08.44-.3.39-.05h0Z"/>
    <path class="cls-2" d="M126.3,103.46c-.65.23-.99.42-1.8.54.2-.29.84-.14,1.09-.48.24.11.41-.05.71-.05h0Z"/>
    <path class="cls-2" d="M122.63,104.48c.08,0,.05.1.07.16-.23.02-.27.2-.52.22-.06-.3.43-.14.45-.38h0Z"/>
    <path class="cls-2" d="M117.62,107.01c.06.03.1.15.13.05.08.1-.22.35-.52.32.08-.17.18-.32.39-.37h0Z"/>
    <path class="cls-4" d="M117.42,109.43c.1-.02.11.05.19.05-.08.17-.12.37-.45.32-.12-.29.34-.11.26-.37h0Z"/>
    <path class="cls-2" d="M115.43,110.98c.2.01.09.35-.13.32-.02-.16.14-.16.13-.32h0Z"/>
    <path class="cls-2" d="M115.3,111.36c.19.14-.19.27-.06.54-.24-.05-.04-.43.06-.54h0Z"/>
    <path class="cls-2" d="M152.81,113.46c.06.34-.15.63-.26.97-.26-.24.15-.69.26-.97h0Z"/>
    <path class="cls-2" d="M152.42,114.48c.26.23-.23.57-.06.81-.14-.02-.13-.14-.19-.22.1-.18.18-.39.26-.59h0Z"/>
    <path class="cls-2" d="M143.8,123.62c.23.04.59-.02.84.11-.14.08-.12.11-.06.27-.25.15-.57,0-.64.21-.24-.09-.4-.2-.51-.27.29.03.42-.08.39-.32h0Z"/>
    <path class="cls-2" d="M139.68,125.34c0,.18-.18.21-.39.22.09-.1.15-.24.39-.22h0Z"/>
    <path class="cls-2" d="M119.42,129.7c.07.22-.3.29-.26.05.06-.04.14-.06.26-.05h0Z"/>
    <path class="cls-2" d="M119.55,129.86c.08,0,.05.1.06.16-.17-.15-.16.14-.38.11-.09-.25.29-.12.32-.27h0Z"/>
    <path class="cls-2" d="M119.09,129.91c-.08.24-.27.38-.45.54-.29-.25.13-.43.45-.54h0Z"/>
    <path class="cls-5" d="M128.36,136.2c.19.02.3.11.32.27-.19-.02-.29-.12-.32-.27h0Z"/>
    <path class="cls-5" d="M126.69,136.47c.04.13.33.05.26.27-.18-.01-.27-.1-.26-.27h0Z"/>
    <path class="cls-5" d="M127.91,148.14c0,.07,0,.15.06.16-.41.11-.97-.12-1.16-.38.5-.04.54.31,1.1.22h0Z"/>
    <path class="cls-5" d="M128.42,148.25c.47.33,1.07.22,1.54.54-.38.13-1.45-.07-1.54-.54h0Z"/>
    <path class="cls-5" d="M96.64,149.27c-.14.28-.35.33-.64.33.17-.15.4-.24.64-.33h0Z"/>
    <path class="cls-5" d="M104.81,151.58c.11.18-.08.58-.13.81-.1-.18.06-.59.13-.81h0Z"/>
    <path class="cls-5" d="M112.08,152.61c.24.08.32.3.32.59-.32-.02-.24-.37-.32-.59h0Z"/>
    <path class="cls-4" d="M113.11,98.78c.25-.31.1-1.19-.06-1.5-.05.63-.06.7.06,1.5h0ZM124.18,74.42c-.07-.2.24-.09.2-.27-.09,0-.14-.02-.2-.05-.05.03-.14.3,0,.32h0ZM117.74,67.86c.25.44.72.69,1.22.91.02-.47-.72-.3-.71-.75-.3.2-.26-.33-.52-.16h0ZM125.08,66.35c-.07-.2.16-.15.13-.32-.21-.07-.26.27-.13.32h0ZM125.21,65.55c.06-.05.18-.47-.06-.43.05.23-.15.33.06.43h0ZM127.84,61.73c-.17-.05-.32-.6-.45-.32.13.06.26.1.2.32.15-.08.24.14.26,0h0ZM127.01,60.98c.25-.05.23.13.38.16-.07-.21-.2-.37-.38-.48v.32h0ZM123.98,77.59c.11-.33.55-.47.77-.43-.04,0-.07.05,0,.05.66-.46,1.67-.82,2.19-1.24.2-.04.12.15.32.11.11-.17.22-.35.45-.43.08.04.17.07.32.05,1.41-.61,3.04-.71,4.51-1.07.66-.16,1.25-.49,1.87-.65.31-.08.62-.03.9-.11.78-.21,1.28-.51,1.99-.91.6-.34,1.3-.7,1.8-1.18.06-.06.01-.21.06-.27.23-.28.71-.43.96-.7.76-.8,1.4-1.85,2.19-2.58-.05-.25.09-.35.19-.48-2.02.7-3.42,1.91-4.89,3.06-.08.07-.24.07-.32,0-1.04,1.06-3.03.93-4.37,1.61-.69.04-1.17-.02-1.67.27-.25-.18-.2,0-.45.05-.13-.02-.13-.15-.26-.16-.01.22-.33.19-.45.32-2,.3-3.95,1.53-5.41,2.64-.26.03-.19.03-.45,0-.27.31-.2.91-.58,1.13-.17-.17-.32-.16-.64-.11-.26-.46.14-.89-.32-1.18.32-.24.34-.72.39-1.18,1.44-2,2.46-4.36,3.54-6.67.05-1,.58-2.19.71-3.23.25-2.06-.57-3.48-1.73-4.52-.08.6.12,1.18.06,1.61,0-.08.16-.06.13.05.07.29-.22-.02-.19.27-.1.28.15.26.19.43-.37.55.12,1.38-.51,1.88.1.1.16.22.32.27-.19.02.06.41-.13.43-.23-.05.17-.28-.06-.32-.42.29.23.63.06,1.18-.28.26-.13.68-.26.92-.1,0-.05-.14-.19-.11-.04.15.11.45-.2.38-.06.27.16.77.13,1.02-.03.19-.49.55-.52.91-.03.39-.21.45-.39.81-.06.13,0,.29-.06.43-.3.74-.71,1.09-.77,1.34.09-.1-.13.15,0,.33-.58.37-.3,1.07-.84,1.45-.04.17.07.2.07.32-.43.47-.31,2.02-1.35,1.77.14-2.08-.46-4.1-1.61-5.16-.8-.75-1.77-1.55-2.76-2.04-.73-.36-1.59-.55-2.32-.97-.64-.37-1.12-1.04-1.61-1.56-1.06-.7-1.94-1.56-2.96-2.31-.2.04-.19-.09-.39-.05-1.14-.88-2.16-1.85-3.92-2.21-.61-.04-1.07-.12-1.48-.22-.34.37-1.48.09-1.48.75,1.61.39,2.82,1.12,4.25,1.67.37.59,1.25.75,1.41,1.5.63.42.8,1.24,1.16,1.83.58.96,1.71,1.35,2.64,2.04,1.26.26,2.62.43,3.35,1.13.15-.02.24-.09.45-.05,1.14.94,1.87,2.32,1.93,4.03.13-.1,0-.42.26-.43.16.47.05,1.04-.19,1.34.17,2.23-.29,4.85-1.42,6.29-.52,1.75-1.39,3.68-1.74,5.75-.41.77-.55,1.79-.77,2.58-.08.3.07.36.06.59-.04,1.55-.63,3.18-.38,4.63.08.49.26,1.02-.07,1.45.61.48-.06,2.02.65,2.42.55-.44.71-1.49.45-2.15.08.01.13.08.13-.05-.01-.1-.11.03-.13-.05.55-1.78.64-4.18,1.29-5.86-.22-.09-.19-.67.06-.69-.17.03-.13-.12-.19-.16.26-.74.81-1.66.64-2.42h.26c-.2-.53,0-1.37.32-1.61.16-1.7,1.46-2.44,2.06-3.76.2,0,.25-.11.39-.16.47-.78,1.53-1.33,1.99-1.94.11-.16.29-.01.39-.1.21-.41.92-.88,1.41-1.24.01.06-.01.15.06.16.1-.17.08-.56.71-.54h0ZM121.54,80.07c.03.08.2.05.13.21-1,.18-1.39,1.57-2.25,1.88-.09.54-.44.86-.84,1.13-.41,1.43-1.05,2.53-1.09,3.93-.3.57-.23,1.46-.64,1.93-.14.63-.04,1.19-.19,1.78-.04.14-.22.24-.26.38-.07.25.02.56-.06.81-.14.41-.09.98-.19,1.56-.06.34-.2.6-.19.92.02.97-.16,2.27-.77,3.12.14.65-.58.96-1.09,1.23-.15.45-.36.85-.84,1.02.13.19,0,.26-.07.43h-.32c-.29-.33.06-.64.19-1.02-.08-.05-.28-.26-.39-.11.07-.74.08-1.71-.26-2.42-.01-1.17-.28-2.32-.39-3.44-.01-.2.16-.34.2-.54.12-.63.01-1.39.19-2.15.09-.38.24-.53.26-.97.04-1.01.38-2.01.58-2.96.51-.85.45-1.91.77-2.85.19-.53.63-.84.64-1.5-.02-.18.25-.12.26-.27.32-1.31,1-2.32,1.61-3.38-.09-.44.07-1.12.32-1.45-.14-.27-.11-.83.06-1.13-.11-.12-.06-.38-.19-.49.17-1.53.27-3.82-.84-4.62-.02-.86-.81-1.01-1.67-1.29-.64-.21-1.19-.6-1.74-.75-.52-.14-.99-.18-1.42-.38-.67-.31-1.03-.83-1.67-1.13-.03-.08-.09-.13-.13-.21-1.27-.75-1.4-2.35-2.44-3.28-.92-.82-2.05-1.02-3.22-1.51-.44-.05-.9-.07-1.16-.27-.36.14-1.01-.18-1.29.05-.2-.14-.58-.13-.71-.32.16-.27.06-.42.06-.81,1.1-.29,2.17-1.17,3.86-1.07,1.47.08,3.24.63,4.06,1.23.63-.03.74.39,1.22.49,1.41,1.37,3.12,2.48,4.25,4.08.19-.02.39.24.71.27.5.86,2.04.84,2.83,1.45.12-.02.16-.12.32-.11.17.2.59.19.58.54.14.03.12-.08.13-.16,1.76.83,2.48,2.51,3.15,4.25.52-.25.64-.74.96-1.29.13-.21.36-.4.45-.59.13-.27.15-.68.32-1.02.27-.56.55-.98.71-1.67.18-.77.16-1.68.32-2.58.16-.87.6-2.6.58-3.71-.02-1.08-.53-2.09-1.03-2.9.93-.25,1.67.34,1.8,1.02.21.22.51.23.77.21-.26.28.04.4.07.7.37-.13-.24-.36,0-.54.32.14.34.54.84.54.06.45.43.65.64.96.05.63.07.8.26,1.4.01.2-.05.02-.19.05.11.23.18.66-.13.81.07.14.1.32.26.38-.23,1.41-.55,2.88-.9,4.3-.09-.06-.08-.25-.26-.11.15.23-.1.39,0,.81-.11-.05-.1-.2-.26-.21.02.19.12.35,0,.59-.05.1-.21.16-.25.27-.15.37.07,1.03-.45,1.02.06.15.06.22,0,.38-.2-.03-.2.1-.32,0,.12.31.11.67-.19.37-.11.18,0,.22.13.32-.56.5-.39,1.61-1.16,1.94.01.06.12.05.19.05-.27.2-.11.54-.32.7,1.73-.46,3.03-1.74,5.09-2.21.24-.05.52.04.77,0,.53-.07.98-.24,1.48-.32.37-.06.65.05.96,0,.68-.11,1.41-.5,2.25-.64.57-.1.83-.38,1.29-.65.35-.2.82-.31,1.16-.54.71-.48,1.36-1.13,2.12-1.61.34-.21.73-.31,1.03-.54.3-.22.58-.53.97-.76.2-.07.21,0,.45,0,.6-.44,1.81-.61,2.19.11-.08.32-.53.31-.64.59-.14.03-.09-.1-.19-.11-.15.73-.82,1.49-1.48,2.1-.36.59-1.07,1.33-1.87,1.72-.01.09.11.14,0,.16,0,.09-.47.19-.26.43-.41.28-.92.91-1.74,1.02-.44.45-.82.55-1.35.97-.19.05-.11-.12-.13-.22-.54.69-1.71.56-2.45,1.02-.16,0-.2-.08-.32-.11-.91.15-1.24.74-2.19.54-.17,0,.09.09,0,.21-.22-.08-.56.15-.51-.06-.06.11-.18.17-.26.27-.06-.04-.1-.09-.13-.16-.13.26-.41.09-.51.32-.09-.01-.05-.13-.06-.21-.37.44-.77.19-1.16.54-.06-.06-.13-.11-.19-.16-.26.04.03.22-.13.32-.09-.02-.05-.13-.06-.21-.32-.02-.24.3-.52.32v-.16c-.27.06-.58.49-.77.27-.09.01-.05.14-.06.21-.7.14-1.23.69-1.87.7-.14-.01-.03.19-.07.27-.2-.03-.2.1-.32,0-.09.03.03.14-.07.27-.46-.04-.24.25-.51,0-.16.03-.04.27.13.22-.27.26-.66.21-1.03.43-.63.37-.99,1.23-1.93,1.35h0Z"/>
    <path class="cls-3" d="M123.28,78.13c-.08,0-.05-.1-.06-.16-.5.36-1.2.83-1.41,1.24-.1.09-.28-.05-.39.11-.46.6-1.53,1.16-1.99,1.94-.14.05-.19.16-.39.16-.6,1.32-1.9,2.07-2.06,3.76-.32.24-.53,1.08-.32,1.61h-.26c.17.76-.38,1.68-.64,2.42.07.05.02.2.19.16-.25.03-.28.61-.07.7-.64,1.68-.74,4.09-1.29,5.86.02.08.11-.05.13.05,0,.14-.05.06-.13.05.26.66.1,1.71-.45,2.15-.7-.4-.03-1.95-.65-2.42.32-.43.15-.96.07-1.45-.25-1.45.35-3.07.38-4.63,0-.23-.15-.29-.06-.59.22-.8.36-1.81.77-2.58.35-2.07,1.22-4,1.74-5.75,1.13-1.44,1.59-4.06,1.42-6.29.24-.3.35-.88.19-1.34-.25,0-.13.33-.26.43-.06-1.71-.79-3.09-1.93-4.03-.21-.03-.3.04-.45.05-.73-.7-2.09-.87-3.35-1.13-.93-.69-2.06-1.08-2.64-2.04-.36-.59-.53-1.42-1.16-1.83-.16-.76-1.04-.91-1.41-1.51-1.43-.55-2.64-1.27-4.25-1.66,0-.66,1.14-.38,1.48-.75.41.09.87.17,1.48.21,1.76.36,2.78,1.33,3.92,2.2.2-.04.19.09.39.05,1.01.75,1.89,1.61,2.96,2.31.49.52.97,1.19,1.61,1.56.73.42,1.59.6,2.32.97.99.49,1.96,1.3,2.76,2.04,1.14,1.07,1.75,3.08,1.61,5.16,1.04.24.92-1.31,1.35-1.78,0-.12-.11-.16-.07-.32.54-.38.26-1.08.84-1.45-.13-.17.09-.42,0-.33.06-.25.47-.6.77-1.34.06-.14,0-.3.06-.43.17-.35.36-.41.39-.81.02-.36.49-.72.52-.91.03-.25-.19-.75-.13-1.02.31.08.16-.22.2-.38.14-.03.09.1.19.11.13-.23-.02-.65.26-.92.17-.56-.49-.9-.06-1.18.23.04-.16.27.06.32.19-.02-.06-.41.13-.43-.16-.05-.23-.17-.32-.27.63-.5.15-1.34.51-1.88-.04-.16-.29-.15-.19-.43-.03-.28.26.02.19-.27.04-.11-.12-.13-.13-.05.06-.44-.14-1.01-.06-1.61,1.16,1.04,1.99,2.45,1.73,4.52-.13,1.04-.65,2.23-.71,3.23-1.08,2.3-2.1,4.67-3.54,6.67-.05.46-.07.95-.39,1.19.47.29.06.73.32,1.18.33-.05.47-.06.64.11.38-.22.31-.82.58-1.13.26.03.19.03.45,0,1.46-1.11,3.41-2.33,5.41-2.63.12-.14.44-.1.45-.33.13.02.13.15.26.16.25-.05.2-.23.45-.05.5-.29.98-.23,1.67-.27,1.34-.68,3.33-.55,4.37-1.61.09.07.24.07.32,0,1.47-1.15,2.87-2.37,4.89-3.06-.1.13-.24.23-.19.48-.79.73-1.43,1.78-2.19,2.58-.25.27-.73.42-.96.7-.05.06,0,.21-.06.27-.51.48-1.21.85-1.8,1.18-.72.4-1.21.7-1.99.91-.28.08-.59.03-.9.11-.62.15-1.2.48-1.87.64-1.46.36-3.1.46-4.51,1.08-.15.02-.24,0-.32-.05-.23.08-.34.25-.45.43-.2.04-.12-.15-.32-.11-.52.42-1.53.77-2.19,1.24-.07,0-.04-.05,0-.05-.22-.04-.66.1-.77.43-.63-.02-.61.37-.71.54h0Z"/>
    <path class="cls-2" d="M127.59,61.73c.07-.22-.07-.26-.19-.32.13-.28.28.28.45.32-.01.14-.11-.07-.26,0h0Z"/>
    <path class="cls-4" d="M150.49,62.75c-.08.05-.45.18-.58.22-.67.18-.87.33-1.35.54-.08.03-.16-.06-.19-.05-.24.07-.41.35-.51.43-.21.17-.6.05-.71.32-.22-.03-.36.02-.51.05.14.27-.34.38-.51.59-.41.5-.59,1.16-.51,1.72.11-.07.17-.18.39-.16-.06.2-.14.14-.06.38,1.4-.17,2.44-.76,3.22-1.45.92-.82,1.99-1.77,2.25-2.91-.01-.06-.07-.08-.13-.1-.25.18-.5.29-.77.43h0ZM149.01,66.41c-.08-.01-.06-.1-.07-.16-.14.02,0,.29-.13.32-.22.23-.73.22-1.09.37-.42.18-.62.48-1.03.54-.53.07-.92-.18-1.48-.16-.04-.11-.12-.18-.26-.22-.71-4.1,4.57-4.05,7.02-5.86.08.02.1.09.19.11.2.53.23,1.07-.13,1.62-.04.06-.22.08-.26.16-.05.09.04.23,0,.32-.05.12-.28.37-.39.54-.56.89-1.49,1.74-2.38,2.42h0Z"/>
    <path class="cls-1" d="M133.38,65.76c.42,1.44-.47,2.75-1.29,3.76-.28.35-.61.62-1.09.65-.05-1.52,1.08-2.99,1.61-3.71.24-.22.37-.5.77-.7h0Z"/>
    <path class="cls-1" d="M151.27,62.32c.06.02.11.05.13.11-.26,1.13-1.33,2.08-2.25,2.9-.78.69-1.82,1.29-3.22,1.45-.07-.24,0-.18.06-.38-.22-.02-.28.09-.39.16-.08-.55.1-1.22.51-1.72.18-.21.66-.32.52-.59.16-.03.29-.08.51-.05.11-.27.5-.16.71-.32.1-.08.27-.36.51-.43.04,0,.12.09.19.05.49-.2.68-.35,1.35-.54.13-.04.5-.17.58-.22.27-.14.52-.25.77-.43h0Z"/>
    <path class="cls-1" d="M151.59,77.38c-.26,2.61-3.24,3.7-6.24,3.5-.14-.27.24-.25.39-.38.17-.16.22-.41.39-.54.13-.1.31-.07.45-.16.7-.42,1.28-1.11,2.06-1.46.39.13.61-.11.97-.16.01-.06-.01-.1-.07-.11.51-.17,1.2-.64,2.06-.7h0Z"/>
    <path class="cls-4" d="M116.59,101.41c.19-.11.07-.48.32-.54.16.39-.34.5-.19.7.49-.13.82-.39,1.28-.54.33-.53,1-.78,1.09-1.51,1.95-2.19,3.89-4.38,6.37-6.13.68-.18.94-.72,1.67-.86.57-.71,1.71-1.26,2.64-1.83.43-.09.67-.33,1.03-.48.98-.2,1.69-.56,2.7-.65,2.38-.19,4.31,1.1,6.37,1.61.37.21.87.31,1.29.48-.02.12.01.21.07.27.9.45,1.91.22,2.57.91.42-.29.78.33,1.16.43.2.03.15-.16.38-.11.18-.02.06.2.2.22.37-.26.99.11,1.48.21-.07.14-.28.41.13.38.22-.08-.15-.32.13-.32,1.6-.06,2.06-1.32,3.28-1.51.1-.44.89-.57.9-.91-.56.17-1.58.25-2.19.54-1.41-.21-2.83.59-4.25,0-.2-.04-.19.09-.39.05-1.22-.27-2.05-.86-3.15-1.24-.86-1.07-2.42-1.56-3.09-2.79.15-.27.42-.44.32-.91.8-.53,1.85-1.3,2.83-1.62.45-.14,1.21-.25,1.87-.42.79-.22,1.45-.17,2.06-.43.52.2,1.58-.19,2.38.05.47-.05,1.16-.38,1.61-.21.11-.03,0-.25.13-.27.87.12,1.64-.45,1.93-.92-1.54.28-3.27.06-4.95.21-.58.05-1.06.19-1.67.16-1.8-.08-3.22-.2-4.38.59-.06.11-.13.21-.19.32-1.65.99-3.5,1.81-5.14,2.8-.97.34-1.8.9-2.89,1.24-.82.25-1.77.28-2.64.48-.73.16-1.37.63-2.06.54.02.12-.02.2-.13.21-2.04.6-3.29,2.59-4.96,3.5-.27.56-.69,1-1.22,1.34-.26.44-.54.87-.97,1.18-.04.25-.24.6-.45.54-.71,1.56-1.97,2.66-2.83,4.09.08.12.22.28,0,.38-.14-.08.08-.13-.06-.16,0,.34-.69.52-.39.91h0ZM136.59,85.39c.03-.06.23.15.19-.16.49.13.63-.08.96-.32-.06-.11-.26.1-.45.05-.03-.23.4-.37.45-.21.16,0,.13-.18.13-.32.11.01.32-.05.26.11.13-.01.02-.24.13-.27.37-.01.53.1.84,0,.14,0,.14-.14.13-.27.93-.47,1.72-1.07,2.96-1.29.09-.06.29-.05.26-.21.2.2.77.07.97-.06.92.35,1.88.15,2.7.32,1.47-.37,3.54-.19,5.41-.32.38-.22.94-.29,1.22-.59.15-.02.24,0,.32.05.2-.14.29-.36.58-.43,1.26.57.14,1.05-.71,1.83-.26.24-.42.62-.71.81-.23.15-.48.14-.71.21-.18.06-.49.28-.64.22-.06.04-.1.1-.13.16-.5-.06-.8.2-1.22.32-2.18.61-4.61-.02-6.75.97-.7.32-1.39.67-2.19.91-.26.31-.89.33-.97.8.56.73,1.39,1.35,2.25,1.99.13.1.16.28.32.38.22.14.78.2,1.16.38.76.36,1.96.85,3.22.81.48-.02,1.09-.15,1.67-.22,1.14-.14,2.68-.27,3.47-.8.18-.12.31-.27.58-.38.64.12,1.29-.64,1.93-.21.06.21.21.43.07.65-.74.21-.88.91-1.54,1.18-.55.92-2.05,1.03-2.25,2.1-.19-.03-.04-.1-.26-.16-.3.08-.48.28-.45.48-.73.1-1.43.3-2.06.81-.4-.13-.57-.14-1.09-.11-.06-.07-.06-.2-.13-.27-.2-.04-.19.09-.39.05-.3-.25-.54-.28-1.09-.27-.51-.48-1.3-.01-1.61-.7-.23.12-.6-.31-.9-.16-.11-.05-.15-.14-.07-.21-.34.19-.33-.07-.77-.05,0-.15-.11-.11,0-.22-.26-.07-.36-.27-.77-.21-.5-.49-1.33-.48-2.19-.81-.82-.31-1.64-.68-2.38-.97-.51-.2-1.23-.2-1.8-.11-.03-.09.05-.1.13-.11-.16-.1-.72.22-.84.05-1.09.35-1.78.97-2.9,1.4-2.1,1.15-3.5,2.45-5.6,3.71-.85.9-2.15,1.43-2.9,2.42-.2.08-.53.06-.58.27-.08-.02-.1-.09-.19-.11-.02.2-.07.37-.19.48-.13.1-.16,0-.33,0-.18.13.04.35-.38.32.07.36-.42.55-.51.59-.25.58-1.55.92-1.29,1.94-.5.07-.98.14-1.16.48-.11.02-.12-.04-.13-.11-.17,0-.13.18-.13.33-.22.09-.44.01-.64-.05-.18.13-.37.34-.58.16-.17.2-.29.44-.39.7-.25.11-.28-.23-.39-.05-.13-.01-.06-.2-.19-.21.05-1.34.81-2.45,1.42-3.49h.19c-.08-.28.25-.59.52-.75.54-1.19,1.61-1.95,2.06-3.23.76-.26.73-1.18,1.48-1.45.63-1.25,2.01-1.87,2.89-2.91.06-.04.15-.06.26-.05.57-1.06,2.23-1.68,3.09-2.15.07.02.04.11.13.11,1.37-.55,2.55-.69,3.73-1.08.15-.02.25,0,.32.05,1.49-.71,3.36-1.1,4.44-2.15h.26c.2.03.05-.25.19-.27.22-.04.1.11.07.16.21.02.34-.15.19-.27h0Z"/>
    <path class="cls-3" d="M116.97,100.5c.14.03-.08.08.07.16.22-.1.08-.25,0-.38.86-1.43,2.12-2.53,2.83-4.08.21.06.41-.29.45-.54.42-.31.7-.74.97-1.18.53-.34.95-.79,1.22-1.34,1.67-.9,2.92-2.9,4.96-3.5.11,0,.15-.09.13-.21.69.09,1.33-.37,2.06-.54.87-.2,1.82-.23,2.64-.48,1.09-.34,1.93-.9,2.89-1.24,1.65-.99,3.5-1.81,5.15-2.8.06-.11.13-.21.19-.32,1.16-.79,2.57-.68,4.38-.59.61.03,1.09-.11,1.67-.16,1.68-.15,3.42.07,4.95-.21-.29.47-1.06,1.04-1.93.92-.13.01-.02.24-.13.27-.45-.17-1.14.17-1.61.21-.8-.25-1.86.15-2.38-.05-.61.27-1.27.21-2.06.43-.65.18-1.42.28-1.87.42-.98.32-2.03,1.09-2.83,1.62.1.48-.17.64-.32.91.66,1.24,2.23,1.72,3.09,2.8,1.1.37,1.93.97,3.15,1.24.2.04.19-.09.39-.05,1.41.59,2.84-.21,4.24,0,.61-.29,1.63-.37,2.19-.54,0,.34-.8.47-.9.91-1.23.19-1.69,1.45-3.28,1.51-.27,0,.09.24-.13.33-.4.03-.2-.24-.13-.38-.48-.11-1.11-.48-1.48-.21-.13-.02-.02-.24-.2-.22-.24-.05-.18.14-.38.11-.38-.1-.74-.72-1.16-.43-.67-.7-1.67-.47-2.57-.91-.05-.06-.08-.14-.06-.27-.41-.17-.92-.27-1.29-.48-2.06-.51-3.99-1.8-6.37-1.61-1.01.08-1.72.45-2.7.65-.36.15-.6.39-1.03.48-.93.57-2.07,1.12-2.64,1.83-.74.14-.99.68-1.67.86-2.48,1.75-4.42,3.94-6.37,6.13-.09.73-.76.97-1.09,1.51-.46.15-.79.41-1.28.54-.15-.2.35-.31.19-.7-.26.06-.14.42-.32.54-.3-.39.38-.57.39-.91h0Z"/>
    <path class="cls-4" d="M76.76,102.92c-.08.56-.03,1.07,0,1.61.17,3.21.2,6.19-.26,9.36.27.65-.11,1.6-.19,2.31.36.54.54.89,1.16,1.19,0,.17.03.33.13.43.36.1.58.58,1.16.75.01.27.3.24.26.43.4.1,1.01.48,1.35.81,1.1.19,2.04.98,3.28,1.23,0,.16.28.1.26.27.53.05,1.3.29,1.61.7,1.16.04,1.97.82,3.15,1.02.13.12.23.27.38.38.16-.21.44.01.71-.11.54.51,1.94.28,2.25.97.15-.02.24-.09.45-.05.99.57,2.65.58,3.8,1.02.17,0,.07-.23.32-.16,1.17.59,2.53.91,3.67,1.56.43.24.78.7,1.35.7,2.27,1.52,4.94,2.57,6.62,4.46.47-.02.42.4.84.43-.2-3.02.23-5.15-.07-7.96.34-.35.24-.74.71-.97-.11-.25-.01-.67-.26-.8-.13.3.1.97-.38.91.06-.27-.2-.26-.2-.48.16-1.78-.24-4.71-.06-6.67.03-.3-.21-.72-.26-1.08-.04-.29.1-.56-.13-.75.22-1.01.08-2.23.06-3.55-.21-.2-.27-.52-.32-.86-.78-.75-1.82-1.27-2.64-1.99-.08-.06-.07-.19-.06-.32-.26-.13-.64-.33-.84-.22.02-.12-.01-.2-.07-.27-1.19-.92-3.15-1.2-4.57-1.93-3.11-.63-5.57-1.79-8.36-2.69-2.47-1.57-5.35-2.81-8.24-4.03-.69-.72-1.74-1.01-2.64-1.51-.64-.36-1.12-.93-1.74-1.34-.64-.42-1.24-.85-1.93-1.18-.5-.55-1.1-1.02-1.8-1.4-.02-.04-.06-.06-.13-.05.4,3.24,1.01,6.53,1.61,9.84h0ZM74.12,92.65c-.06.6.26-.15-.06-.16-.19.03.1.08.06.16h0ZM73.99,92.06c-.08-.16-.04-.43-.13-.59h-.19c.11.2.1.49.32.59h0ZM73.54,90.6c.24-.32-.19-.36-.19-.64-.09,0-.24-.02-.26.05.15.2.17.5.45.59h0ZM110.02,134.37c-.28-.05-.42-.05-.77,0-.93-.62-1.69-1.38-2.64-1.99-.23-.05-.05.24-.26.21-.21-.02-.34-.11-.45-.21-.08-.17.1-.13.13-.21-.12-.37-.59-.14-.64-.59-1.2-.44-2.08-1.13-3.15-1.67-1.45-.62-3.04-1.12-4.31-1.88-.53.02-.76-.34-1.22-.48-.47-.15-1.01-.07-1.48-.22-.53-.17-.99-.7-1.67-.59-.39-.23-.85-.4-1.48-.43-1.15-.6-2.61-.93-3.93-1.4-.11-.25-.64-.43-.96-.32-.53-.48-1.3-.43-1.87-.86-.25.15-.32-.15-.45.05-1.12-.44-2.2-.86-2.96-1.62-.47.12-.53-.31-1.03-.27-.03-.13.12-.12.07-.27-.08.06-.12.15-.32.1.05-.25-.67-.3-.9-.8-.06.03-.1.15-.13.05-.86-.41-1.47-1.03-2.06-1.67-.02-.2.01-.35.07-.48-.16-.12-.21.14-.26.27-1.13-1.16-1.84-2.48-2.77-3.71.17-.38-.02-.79.32-1.07,0-.1-.21-.04-.19-.17.64-2.48.51-5.55.06-7.64-.08-.17.21-.04.12-.21-.17-2.25-.49-3.69-.12-5.91,0-1.18-.38-2.61-.52-3.82-.06-.51-.02-1.07-.19-1.5-.22-.54-.23-1.33-.45-1.83-.05-.12-.22-.2-.26-.32-.06-.2.04-.44,0-.64-.08-.44-.42-.83-.39-1.29-.13-.05-.18-.17-.26-.27.21-.63-.44-.8-.45-1.4.53-.52,1.01-.04,1.61,0,.08.07.04.16-.06.21.78.47.86,1.54,1.74,1.93,1.57,2.27,4.3,3.58,6.43,5.38.92.32,1.68.78,2.25,1.4,2.28.57,4.21,1.85,6.69,2.42,2.73.62,5.57,1.27,8.11,1.83,1.44.59,2.88,1.19,4.44,1.67.03.2.27.24.51.27,0,.11.18.07.13.21,2.09.59,3.18,2,4.7,3.07.34.48.41,1.2.9,1.56.15.72.77,1.18.9,2.04.1.63.39,1.05.39,1.61-.19-.09-.1.16-.32.11.06.69.25,1.44.32,2.15.03.33-.07.68-.07.97,0,.5.11.84.07,1.29,0,.03-.12.73-.07,1.29.24,2.6.29,6.35-.25,8.82.27.91-.24,1.61.06,2.26-.11.21-.06.21-.19.38.11.05.16.15.13.32-.07-.01-.05-.11-.13-.11-.03.27-.27.61.06.76-.41.77.27,1.02.07,1.93-.19-.01-.2.12-.39.11-.04.17-.14.56-.06.65.32-.21-.14.39-.19.54h0Z"/>
    <path class="cls-4" d="M119.22,130.13c.23.03.21-.25.39-.11,0-.06.01-.15-.07-.16-.03.15-.41.02-.32.27h0ZM119.16,129.75c-.04.23.33.16.26-.05-.11,0-.2.01-.26.05h0ZM139.3,125.55c.21,0,.39-.04.39-.21-.24-.03-.29.11-.39.21h0ZM152.17,115.07c.06.07.06.2.19.22-.17-.24.32-.58.06-.8-.07.2-.15.41-.26.59h0ZM152.55,114.42c.11-.33.32-.62.26-.97-.11.28-.52.72-.26.97h0ZM115.24,111.9c-.13-.27.25-.39.06-.54-.1.11-.3.49-.06.54h0ZM115.3,111.31c.21.02.33-.31.13-.32.02.16-.15.17-.13.32h0ZM114.53,110.93h.19c-.08-.14.12-.32,0-.32-.03.14-.36.18-.19.32h0ZM115.81,109.91c-.08.22-.17.43-.26.65.24-.08.51-.67.39-.7-.02.04-.05.06-.13.05h0ZM117.23,107.38c.29.03.59-.22.51-.32-.03.09-.07-.02-.13-.05-.21.06-.31.2-.39.38h0ZM122.18,104.86c.25-.01.28-.19.51-.22,0-.06.01-.15-.07-.16-.02.23-.51.08-.45.38h0ZM125.59,103.51c-.26.34-.89.2-1.09.48.81-.12,1.15-.31,1.8-.54-.29,0-.46.16-.71.05h0ZM126.69,103.46c.09-.08.32-.12.38-.06.05-.24-.63-.03-.38.06h0ZM127.27,103.3c.54-.1,1.28-.04,1.48-.43-.44.19-1.22.09-1.48.43h0ZM131.83,103.13c.2-.14-.3-.12-.39-.11-2.48.47-4.91,1.21-7.4,1.67-1.81.97-4.2,1.21-5.28,2.85-.52.12-.66.56-1.16.7-.03.17-.12.29-.13.48-.43.08-.8.65-.58,1.07,0-.04.21-.16.2-.05-.13.25-.32.46-.58.59-.59.66-.39,2.19-.97,2.69.22.32-.08.61-.13.92-.5,3.18-.89,6.9-1.16,10.54.15.69.18,1.74-.13,2.31.14.28.13.94-.13,1.18.02.17.07.3.13.43-.06.06-.24.02-.19.16.11.02.17-.08.19,0-.13.28,0,.49-.32.65.11.02.17-.08.19,0,.07.2-.13.17-.19.27.21.74.2.3.32-.11.23.06.5-.34.77-.22-.3.54-.76.94-.9,1.61.35,0,.43-.25.71-.32-.03.14-.04.29-.13.38v-.16c-.6.28-.87,1.28-.45,1.67,1.15-1.3,2.35-2.35,3.73-3.23.1.27-.33.44-.45.7.44.03.82-.61,1.22-.43-.06-.16.53-.23.58-.48.81-.09,1.49-.64,2.06-.49,0-.06-.01-.15.06-.16.46.15,1.07-.49,1.48-.21.66-.47,2.01-.31,2.7-.86,1.66-.1,2.62-.45,4.12-.54.15-.02.04-.26.26-.22.13-.02.13.08.19.11.2-.4.76-.1.97-.11.04,0,.24-.22.32-.11.32-.02,1.32-.5,1.8-.05.04-.09-.19-.22,0-.27.09.25.44-.19.64.11.65-.2.95-.28,1.61-.22.71-.11,1.75-.69,2.7-.53.02-.1-.07-.12-.06-.21.31-.09.55-.15.9-.06.39-.39,1.08-.54,1.8-.64.04.12-.18.17.06.16.22-.45.35-.27.71-.32.4-.05.27-.17.52-.27.36-.14.36.08.38-.21.69.01,1.37-.43,2.12-.54.04.17-.11.16-.06.32.34,0,.39-.32.32-.38.35.08.4.1.51.32.08-.16.11-.31.13-.37.11,0,.04.15.13.16.06-.09.2-.12.39-.11.53-.48,1.18-.62,1.8-1.08.05-.44.36-.66.71-.86.06-.86,1.23-1.29,1.29-2.15,0-.12-.08-.26-.06-.38.14-.87,1.1-1.66,1.41-2.58.2-.58.39-1.13.58-1.72.35-1.13.9-2.23,1.29-3.33.17-.49.39-.74.52-1.13.09-.3,0-.62.06-.91.21-.92.64-1.82.96-2.69.56-2.37.84-4.71,1.16-7.2-.72.22-1.4.32-2.12.48-1.85.41-3.52,1.5-5.21,1.51-1.08.52-2.36,0-3.28.59-1.94.16-3.43.71-5.54.43-.13.18-.58.09-.77.22-1.07-.22-2.91.11-4.05.21-.02.09.1.14,0,.16-.44-.05-.9.33-1.29.05-.08.11-.1.27-.32.27-.1-.06-.06-.23-.32-.16-.11.07-.05.28-.26.27.09-.12-.06-.14-.07-.22-.16-.03-.42.09-.64.16h0ZM154.22,111.95c.01.12-.23.03-.32.05-.33,1.68-.58,3.42-1.29,4.79-.05.24.13-.04.13.11,0,.16-.17.18-.2.32-.15,1.21-.5,2.7-1.41,3.44,0,.1.08.12.06.22-.16-.1-.28.2-.39.32-.72.49-1.45.97-1.99,1.61-.66.29-1.01.83-1.61,1.18-.39-.02-.7.25-.9.22-.09,0-.02.16-.13.16-.34.18-.76.3-1.03.54-3.71,1.02-7.98,1.96-11.97,2.42-1.72.68-3.69.5-5.53.86-1.98.39-3.94.99-5.73,1.4-.09.05-.13.14-.19.22-.2.06-.17.03-.32-.05-.31.34-1.15.72-1.61.59.1.18,0,.16-.13.27-1.19.63-3.24,1.21-4.44,2.15.02.22-.06.35-.13.49-.2-.02-.38.25-.71.11-.13.28-.22.6-.38.86-.34.04-.31-.25-.52-.32-.08.28.13.32.13.54-.31-.06-.17.25-.38.27-.24.04-.28-.09-.52-.05-.33-.3-.29-.96.19-1.13.29-4.59-.18-8.81.39-12.75-.16-.67-.18-1.67.06-2.1-.12-1.88-.19-3.7.32-5.65-.1-.35-.29-.95.06-1.29.29-2.57,1.73-4.13,3.35-5.7.15,0,.31,0,.38-.05,1.6-.99,3.36-2.24,5.53-2.42.68-.24,1.17-.66,2.12-.7,1.23-.04,2.93-.61,4.25-.86,1.12-.11,2.37-.24,3.73-.33.85-.05,1.8-.06,2.64-.16.16-.02.29-.13.45-.16,1.42-.24,2.99-.08,4.44-.38,1.85-.39,4.28-.71,6.11-1.29.51.18.84-.28,1.22-.05,1.91-.57,4.67-.84,6.95-1.56,1.12,0,1.75-.91,2.64-.75.14.12-.06.22,0,.43-.54.04-.41.49-.52,1.18-.07.5-.47.72-.32,1.24-.2.03-.18.24-.32.32-.02,1.4-.27,2.86-.71,4.14-.01.13.08.09.06,0-.27,2.2-1.03,4.67-1.67,6.99,0,.14-.04.32.13.32h0Z"/>
    <path class="cls-7" d="M117.17,109.8c.33.05.37-.15.45-.32-.08,0-.09-.07-.2-.05.09.27-.37.08-.26.37h0ZM132.48,102.97c0,.08.16.09.07.21.21.01.15-.19.26-.27.26-.07.23.1.32.16.22,0,.24-.16.32-.27.38.28.85-.1,1.29-.06.09-.02-.03-.07,0-.16,1.15-.11,2.98-.44,4.05-.21.19-.13.64-.04.77-.22,2.11.29,3.59-.27,5.54-.43.92-.59,2.2-.07,3.28-.59,1.69,0,3.36-1.1,5.21-1.51.72-.16,1.4-.26,2.12-.48-.32,2.5-.6,4.84-1.16,7.21-.33.87-.75,1.77-.96,2.69-.07.29.03.62-.06.91-.13.39-.35.65-.52,1.13-.38,1.11-.93,2.21-1.29,3.33-.19.59-.38,1.14-.58,1.72-.31.91-1.27,1.71-1.41,2.58-.02.12.07.26.06.38-.06.86-1.22,1.29-1.29,2.15-.35.2-.66.42-.71.86-.62.46-1.27.59-1.8,1.08-.19,0-.33.01-.38.11-.09-.01-.02-.16-.13-.16-.02.06-.05.22-.13.37-.12-.22-.16-.25-.51-.32.07.06.02.38-.32.38-.05-.16.11-.16.06-.32-.75.12-1.43.55-2.12.54-.03.3-.02.07-.39.21-.25.1-.12.22-.52.27-.36.04-.49-.13-.71.32-.24.01-.02-.04-.06-.16-.73.11-1.41.26-1.8.65-.35-.09-.59-.03-.9.06,0,.09.08.11.06.21-.95-.15-1.99.43-2.7.53-.66-.06-.96.02-1.61.22-.2-.3-.55.14-.64-.11-.19.05.04.17,0,.27-.48-.45-1.47.03-1.8.05-.08-.11-.28.11-.32.11-.2,0-.76-.29-.96.11-.07-.03-.07-.12-.19-.11-.22-.04-.11.2-.26.21-1.5.09-2.46.44-4.12.54-.68.55-2.04.39-2.7.86-.41-.28-1.02.36-1.48.21-.08,0-.05.1-.06.16-.56-.15-1.25.39-2.06.48-.04.25-.64.33-.58.49-.41-.18-.78.46-1.22.43.12-.25.56-.43.45-.7-1.38.88-2.58,1.93-3.73,3.23-.42-.38-.15-1.39.45-1.67v.16c.09-.08.1-.24.13-.38-.27.08-.36.31-.71.32.14-.67.6-1.08.9-1.61-.27-.13-.54.28-.77.21-.12.41-.11.84-.32.11.06-.09.26-.07.19-.27-.03-.08-.08.02-.19,0,.32-.16.19-.36.32-.65-.03-.08-.09.02-.19,0-.04-.14.13-.1.19-.16-.07-.12-.11-.26-.13-.43.26-.25.27-.91.13-1.18.31-.58.28-1.62.13-2.31.27-3.64.66-7.36,1.16-10.54.05-.3.35-.59.13-.91.58-.5.38-2.03.97-2.69.26-.14.45-.34.58-.59.02-.11-.19.01-.19.05-.23-.42.15-1,.58-1.08,0-.19.1-.31.13-.48.5-.14.63-.58,1.16-.7,1.07-1.64,3.46-1.88,5.27-2.85,2.49-.46,4.92-1.2,7.4-1.67.09-.02.58-.03.39.11.22-.07.49-.19.64-.16h0Z"/>
    <path class="cls-7" d="M75.15,93.08c.08,0,.11.01.13.05.7.38,1.3.85,1.8,1.39.69.34,1.29.76,1.93,1.18.62.41,1.1.99,1.74,1.35.89.5,1.95.78,2.64,1.5,2.89,1.23,5.76,2.46,8.24,4.04,2.79.89,5.25,2.06,8.36,2.69,1.41.74,3.38,1.01,4.57,1.93.05.06.08.14.07.27.19-.11.57.08.83.22,0,.13,0,.26.07.32.81.72,1.86,1.24,2.64,1.99.05.34.11.66.32.86.02,1.32.15,2.54-.06,3.55.24.2.09.46.13.75.05.36.28.77.26,1.07-.18,1.96.22,4.89.06,6.67,0,.22.26.22.19.48.48.05.25-.61.39-.91.24.14.15.56.26.8-.47.23-.37.62-.71.97.3,2.81-.13,4.94.07,7.96-.41-.03-.37-.45-.84-.43-1.68-1.9-4.35-2.95-6.62-4.47-.57,0-.93-.46-1.35-.7-1.13-.65-2.49-.97-3.67-1.56-.25-.07-.16.16-.32.16-1.15-.44-2.81-.45-3.8-1.02-.21-.03-.3.04-.45.05-.31-.69-1.72-.46-2.25-.97-.27.12-.54-.1-.71.11-.16-.1-.26-.25-.39-.38-1.18-.2-1.99-.98-3.15-1.02-.3-.41-1.08-.65-1.61-.7.02-.18-.25-.12-.26-.27-1.24-.25-2.18-1.04-3.28-1.23-.34-.32-.95-.71-1.35-.81.04-.19-.24-.16-.26-.43-.58-.17-.8-.65-1.16-.75-.1-.1-.12-.26-.13-.43-.62-.29-.8-.65-1.16-1.18.08-.7.46-1.66.19-2.31.45-3.17.43-6.15.26-9.36-.03-.54-.08-1.05,0-1.61-.6-3.31-1.21-6.6-1.61-9.84h0Z"/>
    <path class="cls-2" d="M115.94,109.86c.12.03-.15.62-.39.7.09-.21.18-.42.26-.64.07,0,.11-.01.13-.05h0Z"/>
    <path class="cls-2" d="M114.72,110.61c.12,0-.08.18,0,.32h-.19c-.16-.14.16-.18.19-.32h0Z"/>
    <path class="cls-5" d="M126.94,136.74c.07-.22-.22-.14-.26-.27-.02.17.08.26.26.27h0ZM128.68,136.47c-.03-.16-.14-.25-.32-.27.03.15.14.25.32.27h0ZM130.04,138.46c.05.23-.17,1.18.13,1.24-.02.35-.34.63-.19.81.01.15-.1.19-.19.11-.08.75-1.14,1.12-1.54,1.77-.22.02-.12-.23-.32-.22-.12.06-.05.28-.13.38-1.36.77-3.41,1.43-4.89.48-.7-.76-1.4-1.52-1.42-2.85.16-.07.24-.2.51-.16,0,.05.08.04.13.05.31.99.77,1.66,2,1.77.71.07,1.43-.22,2.19-.16,1.44-.68,1.94-1.85,1.74-3.44-.2-.44-.65-.67-.77-1.18-.14-.23-1-.23-1.22-.38-.25-.16.29-.03-.06-.05-.23-.02-.49-.24-.71-.27-.15-.02-.35.06-.51.05-.96-.04-2.2,0-2.9.27-1.48-.08-2.94-.37-4.44-.91-.22-.51-.86-.92-.77-1.5.24-.04.52-.07.84-.05.16.21.26.47.7.43.24.45,1.59.72,2.32.7,1.44-.04,2.98-.53,4.31-.7.01.06.12.05.19.05.12.1,0,.13,0,.27.11.1.45.02.51.16.15-.15-.22-.21-.13-.48.17,0,.37-.02.45.05-.08.24-.08.51.26.54.19-.12-.15-.4.13-.48.3.37.9.17,1.29.48.07.2-.22.1-.26.22.21.33.71.03,1.09.16.14.41.54.5.58.75.09,0,.18,0,.19-.05.35.67.74,1.26.9,1.99-.19-.08-.1-.38-.39-.38.21.09.11.67.39.54h0Z"/>
    <path class="cls-5" d="M129.97,148.78c-.48-.32-1.07-.21-1.54-.54.09.47,1.16.67,1.54.54h0ZM126.81,147.92c.19.26.75.49,1.16.38-.07,0-.07-.08-.06-.16-.56.09-.6-.26-1.1-.22h0ZM125.08,146.47c.03.16.09-.08.13-.11.82.55,2.17.83,3.35,1.24.67.23,1.49.64,1.93.65.19,0,.36-.16.64-.21,1-.21,2-.1,2.83-.54.53-.28,1.04-.7,1.35-1.13-.08-.15-.07-.37-.07-.59.96-.8-.6-1.39-1.29-1.67-.31.06-.58.39-.38.7.26,0,.26-.21.58-.16,0,.05.08.04.13.05.37.85-1.22,1.1-1.48.43-.24-.04-.27.09-.51.05-.75-1.92,2.6-2.47,3.6-1.34.28.41.46,1.11.71,1.24.04.32-.21.39-.19.7.32.86-.63,1.51-1.16,2.15-.24-.09-.1.03-.32.06-.7.73-1.94,1.11-3.28,1.02-.09.05-.13.14-.2.21-.15-.24-.23.04-.38.11-.64-.12-.73.04-1.48.05-.06-.05-.13-.11-.19-.16-.16-.13-.14.12-.39.06-1.48-.51-3.04-.84-4.38-1.72-.11-.11,0-.07,0-.22-.11-.02-.12.04-.13.11-.77-.52-1.65-.95-2.12-1.72-.06,0-.05.07-.06.11-1.17-.56-2.21-1.46-3.09-2.42-.65-.46-.98-1.19-1.74-1.56.08-.16-.22-.27-.07-.32-1.11-.95-2.14-2.44-3.15-3.66.08-.79-.72-2.24.07-2.42.99-.23.6,1.06,1.42,1.13.07.2-.22.11-.26.21.14.67.85,1.19.71,1.77.73.42,1.2,1.5,1.87,2.15-.04.05-.15.06-.13.16.87.05.87,1.69,2.19,1.72,0,.09-.08.11-.07.22,1.42,1.28,3.17,2.14,4.63,3.28.06-.04.15-.06.26-.05.05.13.34.24.13.43h0Z"/>
    <path class="cls-5" d="M106.87,160.45c-.02-.1.08-.11.12-.16-.16.02-.14-.1-.32-.05-.01.14.1.17.19.21h0ZM107.06,160.45c.45.05.84-.03,1.16-.21-.38-.07-.82.09-1.16.21h0ZM108.67,160.02c.2.02.29-.05.26-.22-.2-.03-.18.14-.26.22h0ZM104.23,159.32c.03-.13-.23-.3-.32-.16.12.11.08.28.32.16h0ZM112.4,153.2c0-.29-.08-.5-.32-.59.08.22,0,.57.32.59h0ZM104.68,152.39c.05-.23.23-.63.13-.81-.06.21-.23.63-.13.81h0ZM96,149.59c.29,0,.51-.04.64-.32-.25.08-.48.17-.64.32h0ZM99.6,143.09c.18.09.43.19.51.48,0,.63-.5,1.01-.64,1.67-.56.49-1.25.5-1.87.8-1.41.17-2.9-.26-3.99-.8-.4-.78-.88-1.55-.71-2.42.49-2.51,2.88-4.12,5.53-5.05,1.56-.22,2.93-.9,4.44-1.13.61-.1,1.25-.02,1.93-.32.95.22,2.22-.72,3.02-.8.23.02.3.18.51.21-.11.27.18.29-.13.43.18.25.66-.06.91-.21.23-.03.37.29.58.11-.38.47,1.2,1.13,1.35,2.1.07.43-.12.84-.13,1.29,0,.64.34,1.29.32,1.94-.01.62-.24,1.65-.45,2.26-.26.78-.51,1.84-1.16,2.1.17.4-.2.47-.32.75-.13-.01-.17-.11-.26-.16-.07.23-.03.07.07.16-.04.24-.24.23-.39.27-.57,1.32-1.81,2.07-2.25,3.49-.35.09-.51.43-.45.7-.87,1.09-1.01,2.22-1.67,3.39-.02.11.01.16.13.16-.09.15-.29-.04-.38-.05.26,1.57.08,3.51,1.16,4.52.85.43,1.63,1.07,2.7.75,1.01-.29,2.29-1.54,2.89-2.31.68-1.19,1.07-3.22.45-4.52-.2-.13-.56-.14-.58-.43-.8-.12-1.64.39-1.8,1.13.03.23.22.07.32.16-.24.15-.49.59-.19.97h.96c.04.13.1.24.07.43-.83.35-1.33.4-2.25.21-1.36-1.8.36-3.88,2.25-4.3,1.85.09,3.08,1.2,3.28,2.69.12.9-.4,1.84-.52,2.8-.64.6-.89,1.22-1.29,1.99-.29.16-.48.09-.51.48-.16-.02-.31.24-.45.05-.31.28-.39.75-.96.81-.17.01.09.09,0,.21-.54-.24-1.09.36-1.48.59-.29-.22-.78.1-1.09.16-.11-.01-.15-.09-.13-.22-.11.22-.84.14-1.03-.11-1.13.19-2.38-.46-2.38-1.45-.85-.4-.77-1.58-1.29-2.26.09-2.15.36-4.06,1.8-5.54.28-1.05,1.32-1.48,1.67-2.47,1.02-.83,1.41-2.19,2.32-3.12,1.13-1.92,1.95-4.95,1.42-7.31.06-.71-.26-1.48-.77-1.88-.08.54-.13,1.11-.32,1.56.71.83-.81,1.68-.51,2.69.01.19-.22,0-.32.16-.32.97-.59,1.98-1.48,2.47-.03.1-.14.14-.13.27-1.1.81-1.72,1.86-2.71,2.69-.45.38-1.01.61-1.54.91-.4.23-.68.62-1.09.86-.88.51-1.91.83-2.58,1.56-.67.12-1.17.67-1.87.59-.36.3-1.3.4-1.74.32-1.24.26-2.24.62-3.47.22-.06,0-.05.06-.06.1-1.28-.21-2.67-.26-3.61-.7-.11-.02-.12.04-.13.11-1.14-.66-2.81-1.2-3.03-2.58-.54-.28-.5-.98-.38-1.67.25-1.56,3.99-2.17,4.63-.8.25.53.28,1.45-.13,2.04-.42-.06-1.08.08-1.29-.27.32-.53,1.12-.92.52-1.67-.05.19-.03.52,0,.75-.47.18-.81-.08-.84-.32-.89.15-1.93.94-1.54,1.83.17.39.6.55.77.97.12,0,.14-.07.26-.06-.02.74,1.91.97,2.77,1.29,1-.15,1.92.21,2.89.27,1.57-.52,3.39-.82,4.7-1.56.93-.1,1.89-.54,2.77-.96.83-.85,2.21-1.24,2.83-2.26h.2c.37-.34.7-.66,1.03-1.08.24-.31.74-.54.9-.81.29-.46.31-1,.9-1.24.04-.22.27-.49.39-.48,0-.44.28-.66.58-.86.12-.44.12-.97.45-1.24.03-.36-.05-.67.26-.7-.07-.75.17-1.14.38-1.77-.5.18-1.55.55-2.19.48-.13.04-.17.14-.19.27-.24-.21-.79-.14-.96.11-.1-.02-.06-.17-.26-.11-1.2.23-1.82.32-2.96.7-.58-.11-.86.16-1.29.43-.15.02-.25,0-.32-.05-2.08.87-4.3,2.2-4.44,5,.14.07.37.18.13.27-.03.17.29.04.32.16.04.17-.02.27-.13.32.8.52,1.49.59,2.7.65.6-.35,1.01-.54,1.22-1.24-.48-.24-1.05-.35-1.48-.37-.17.1-.17.36-.32.48-.65-.11-.67-.68-.58-.97.17-.55,1.5-1.13,2.12-1.08.68.06.75.52,1.03.91-.04-.3.11-.3.06,0h0Z"/>
    <path class="cls-4" d="M124.11,56.14c1.64-1.82.07-4.03-.71-5.75-1.22,1.56-1.19,4.75.71,5.75h0ZM123.92,48.83c.18.54.39.97.26,1.4.7.72.69,2.04,1.35,2.79.11,1.4.14,3.42-1.42,3.98-.9-.3-1.43-1.1-1.87-1.78-.16-.25-.47-.49-.58-.75-.86-2.03.99-4.01,1.55-5.59.15-.12.49-.14.71-.05h0Z"/>
    <path class="cls-1" d="M131.32,48.83c.67,2.47-.66,4.54-2.77,5.43-.19-.17-.24-.65-.2-1.08.19-1.94,1.53-3.37,2.96-4.35h0Z"/>
    <path class="cls-4" d="M128.36,53.18c-.04.43,0,.91.19,1.08,2.11-.89,3.43-2.96,2.77-5.43-1.43.98-2.77,2.41-2.96,4.35h0ZM131.58,47.59c.09,0,.33.23.33,0,.22.17.14.5.38.54.04.82.07,1.68.06,2.26-.33,1.23-.23,2.38-1.03,3.33-.62.45-1.33.82-2.12,1.13-1.81.14-1.47-1.03-1.41-2.31.01-.29-.1-.53-.07-.75.13-.83.75-1.33,1.16-1.51.62-1.12,1.97-1.65,2.7-2.69h0Z"/>
    <path class="cls-4" d="M129.97,57.16c-.49.63-.9,1.37-.64,2.31.17.61.56,1.24.84,1.66,1.3-.76,1.25-3.36,1.22-4.84-.4.35-.93.59-1.42.86h0ZM130.03,62.05c-.13-.11-.23-.24-.39-.32-.09-1.37-1.63-2.32-1.03-3.76.4-.97,1.24-1.54,2.19-2.26.8-.59,1.09-1.47,2.25-1.34.22.34-.14.59-.13.81-.06,0-.05-.07-.07-.11.01.26-.35.57-.39.7-.21.65.09,1.25-.39,1.94.1.56.08,1-.26,1.56.07,1.18-.39,2.53-1.8,2.8h0Z"/>
    <path class="cls-4" d="M115.24,64.15c.08.27.42.56.39.91,1.72-.68,1.84-3.42,1.09-5.11-.67.97-1.97,2.6-1.48,4.19h0ZM114.91,65.71c-1.26-1.3-.3-3.69.45-5.05.43-.8,1.11-1.41,1.55-1.99.13.02.17-.04.26-.05h.13c.21.74.46,1.31.32,2.05.3.51.39,1.24.38,1.94,0,1.3-.69,2.55-1.8,3.06-.29.13-.78.05-1.28.06h0Z"/>
    <path class="cls-4" d="M140.71,61.73c-1.38,1.44-3.05,3.11-3.09,5.33.53-.06,1.2-.37,1.48-.65,1.27-1.25,2.15-2.76,1.8-4.68h-.19ZM141.23,60.49c.04-.16.1.08.19.05.13.82.35,1.75.26,2.58-.2,1.75-1.26,3.6-2.71,4.25-.47.21-.5.26-1.03.32-.78.09-1.08-.42-1.03-1.24.03-.54.38-1.2.71-1.83.83-1.57,2.21-3.25,3.47-4.14h.13Z"/>
    <path class="cls-4" d="M149.53,78.08c.05.01.08.05.06.11-.35.05-.57.29-.96.16-.78.34-1.36,1.03-2.06,1.45-.14.09-.32.06-.45.16-.17.13-.21.38-.39.54-.14.13-.53.11-.39.38,3,.2,5.98-.89,6.24-3.5-.86.06-1.55.53-2.06.7h0ZM152.62,76.57c.07.58-.35,1.19-.64,1.83-.24.52-.24,1.11-.58,1.51-.2.23-.55.27-.64.54-1.12.24-2.31.89-3.6,1.02-.37.04-.69-.07-1.03-.05-.56.02-1.17.33-1.74.05-.32-.37.56-1.34.96-1.72.24-.22.67-.4,1.03-.65.62-.42,1.27-.97,1.93-1.24.38-.15.82-.21,1.22-.38,1.09-.45,1.86-.89,3.09-.91h0Z"/>
    <path class="cls-4" d="M159.57,81.95c.24-.72.89-1.76.77-2.79-.01-.04-.05-.06-.13-.06-2.54,1.35-4.68,3.05-5.66,5.7.21-.06.21.08.19.22,2.55-.02,3.96-1.46,4.83-3.07h0ZM161.3,77.54c-.06,1.51-.34,2.86-.84,4.3-.12.04-.04.16-.19.05-.21,1.29-1.3,1.86-1.87,2.85-.24-.03-.33.17-.51.32-.73.15-1.28.46-1.8.64-.91-.04-2.16.14-2.9-.38,0-.25.27-.27.39-.43.05-.13.05-.18.06-.43.57-.21.37-1.06.9-1.29.86-1.55,2.14-2.76,3.67-3.76.08-.11.15-.23.26-.32.93-.44,1.8-.93,2.44-1.61.08.06.23.06.39.06h0Z"/>
    <path class="cls-4" d="M96.77,73.77c.08.17.26.29.32.48.32.96.21,1.76.64,2.58,2.07,1.34,4.58,1.93,5.66,3.98,1.01,1.91-.11,4.22,0,6.24.04.61.4,1.09.32,1.72-.25-.05-.16.23-.38.32-.59-.1-.9-.43-1.22-.75-.99-.58-2.2-1.12-3.15-1.72-.32-.2-.56-.51-.9-.7-.37-.21-.87-.3-1.22-.54-.16-.1-.23-.27-.38-.38-.2-.13-.51-.18-.71-.32-.38-.27-.59-.67-.96-.91-.24-.16-.62-.26-.9-.43-.63-.38-1.36-.77-2-1.08-1.05-.5-2.09-.75-3.34-1.13-1.56-.48-3.57-1.09-5.28-.59-.23.26-.49.24-.71.43.51.6,1.49.39,2.25.64.26.09.47.28.71.38.92.35,1.68.57,2.45,1.07,1.15.76,2.46,1.48,3.41,2.31,1.3.6,2.3,1.45,4.24,1.51.17-.13-.13-.39.07-.54.45.46.94.89,1.8,1.02.71.68,1.32,1.44,2.32,1.88,1.2,1.72,2.99,2.95,4.25,4.62.09.07.06.24.07.38.16,0,.31,0,.32.11,1.79,2.22,3.45,4.53,3.92,7.85,1.92-3.07-.38-6-1.29-8.77-.27-.82-.36-1.7-.58-2.52-.09-.35-.36-.64-.45-.97-.47-1.76-.6-3.93-.84-6.18-.05-.43-.11-.91-.13-1.29-.04-1.19.09-2.92-.45-3.76-.72-1.12-2.62-1.56-4.18-1.78-1.7-1.27-1.7-3.95-3.99-4.73.21.54.14,1.16.32,1.56h0ZM101.53,76.57c.25.03.07-.3.39-.22-.02.3.34,0,.32.32.5.02.73.25,1.22.27.46.44,1.02.79,1.54,1.18.18.38.37.77.58,1.13-.14.93.55,1.94.32,2.74.49,1.66.18,3.51.39,5.16.35,2.85,1.37,5.47,2.32,7.8,0,.14.03.3-.06.37,1.01,2.02,2,5.41.39,7.58,0,.42-.03.8-.45.86.08.34-.14.42-.19.65-.32.04-.76.01-1.03,0-.45-1.29.05-3.04-.38-4.36-.08-.23-.28-.37-.39-.59-.2-.41-.27-.85-.45-1.23-.51-1.07-1.36-2.01-2.06-3.01-.29-.41-.46-.79-.77-1.13-1.42-1.55-3.13-2.85-4.5-4.3-.18-.07-.34-.15-.51-.22-1.11-1.04-2.43-2.2-4.44-2.31-1.21-.62-2.45-1.31-3.6-2.04-.88-.56-1.66-1.31-2.57-1.78-.5-.25-1.15-.46-1.74-.7-.82-.34-1.52-.74-2.51-.75-.37-.21-.92-.28-1.35-.43-.14-.19-.15-.49-.45-.54.36-.38.8-.69,1.28-.96.73.02,1.63-.32,2.51-.22.54.06,1.44.31,1.93.59,1.51.04,2.76.31,3.61.91,1.04.16,1.91.7,2.64,1.13.65.37,1.4.6,1.99,1.02.44.31.8.69,1.29,1.02,1.08.72,2.37,1.46,3.47,2.31.86.19,1.34.71,2.06,1.02.28-.27.1-.99-.06-1.23.04-2.93.36-6.81-2.38-7.85-1.88-.09-2.73-1.05-3.47-2.1.15-2.1-.83-3.48-1.54-5-.03-.19-.27-.11-.39-.22-.36-.33-.41-1-.83-1.29-.26-.17-.65-.05-.77-.38.54-.5,1.23-.06,1.99.06.42.36.9.46,1.35.75.45.29.62.69,1.09,1.02.65.45,1.01,1,1.54,1.78.58.83,1.21,1.53,1.48,2.63.26.3.76.4,1.22.54h0Z"/>
    <path class="cls-4" d="M77.53,81.25c-1.3-.1-2.33.48-3.41.86-.38.65-1.1,1.02-1.55,1.61,2.2.27,5.06-.5,6.05-1.93-.38-.28-.84-.23-1.1-.54h0ZM79.65,81.95c-.03.35-.5.34-.51.7-.19-.01-.22.2-.38.05.03.3-.32.17-.32.54-.73.41-1.82.52-2.51.97-.21-.17-.65.24-.71,0-.47.31-1.11.24-1.93.27-.99.03-1.69.33-2.12-.27,1.06-1.57,2.26-3.13,4.51-3.55,1.41-.35,2.74.32,3.67.86.06.18.03.44.32.43h0Z"/>
    <path class="cls-4" d="M160.66,89.64c-.04-.28-.44-.23-.58-.27-.52-.14-.56-.41-1.1-.43-1.05-.04-1.44.42-1.99.7.06.38.44.49.52.86.18.14.56.11.58.38.89.18,2.72.29,3.67.27.41-.38,1.87.13,1.99-.48-1.23-.08-1.96-.69-3.09-1.02h0ZM164.97,90.34c.06.22.12.55,0,.75-.32.18-1.09-.01-1.16.37-.77-.12-1.69.17-2.44,0-.38.28-2.1.1-2.77,0-.8-.12-1.69-.7-2.06-1.29-.56-.88-.3-1.1.58-1.56.95-.5,3.35-.31,3.67.54,1.29.48,2.42,1.27,4.18,1.18h0Z"/>
    <path class="cls-4" d="M155.77,95.77c.19,0,.33-.05.39-.16-.2,0-.43-.03-.39.16h0ZM153.39,93.67c-.18,0-.42.03-.51-.05-.21.27-.66.47-.84.59.44,1.64,3.45.89,4.96.54-1.06-.4-2.3-1.4-3.6-1.08h0ZM158.73,94.8c.04.23-.05.36-.07.54-.93-.03-1.33.62-2.19.8-.62-.14-.74.16-1.29.05-.08,0-.05.1-.06.16-1.32-.36-2.67-.62-3.47-1.51-.27.12-.47-.05-.71-.11-.06-.76.78-.79,1.03-1.29.84-.53,2.54-.61,3.34.05h.39c.81.59,1.93.93,3.02,1.29h0Z"/>
    <path class="cls-5" d="M112.98,136.74c.15.12.39-.26.64-.06-.01.28-.4.24-.52.43.09.27.3.43.39.7-.28.78.32,1.27.32,2.21.27.23.99-.35,1.03.27-.17.14-.19-.07-.39-.05.19.42.1.88.45,1.23-.06.83.62,1.45,1.03,1.99.46.63.85,1.38,1.22,1.83.91,1.11,2.45,1.81,3.02,3.17,1.45,1.4,2.3,3.28,1.8,6.02-.69.88-1.55,1.61-2.83,1.99-1.12.07-2.18.19-2.83-.38-1.04-.9-.66-3.4.77-3.55.03.07.08.11.19.11.04.58-.4.85-.06,1.45.12.21.69.68,1.03.86.1.05.2-.04.32,0,.32.11.31.36.77.22.46-.15,1.01-1.27,1.09-1.83.09-.64-.19-1.47-.45-1.99-.44-.88-1.05-1.66-1.29-2.47-.54-.34-.68-.89-1.03-1.34-.23-.3-.58-.63-.9-1.02-.2-.24-.49-.39-.65-.59-.19-.24-.24-.55-.39-.81-.25-.42-.73-.72-.84-1.18-1.74-1.81-2.14-4.97-3.41-6.99.48-.51.5-.84.26-1.56.45-.31.92,0,1.03.27.1.23-.15.32-.13.49.03.28.41.31.32.59h0Z"/>
    <path class="cls-4" d="M150.08,131.45c0-.15.12-.26.07-.43-.07.03-.13.02-.18,0,.07.13-.03.4.12.42h0ZM153.81,138.21c.38-.43.54-1.32.87-1.92.04-.07.2-.13.23-.2.43-.96.61-2.12,2.47-1.87.25.12.49.57.46.75-.48.12-.78-.14-1.17-.21-.99.46-1.05,1.55-.72,2.27.04.06.21-.16.29-.22,1.37.39,2.12,2.09,3.3,2.89.24-.31.21-.74.49-1.04,1.16.4-.31,1.27.29,1.97-.12.17-.41.21-.57.44-1.89-.16-3.08-1.78-4.58-2.78-.4.43,0,1.32-.67,1.51.31.84.25,1.86,1.07,2.43-.12.23-.33.42-.56.61-.42-.4-.91-.1-1.42-.35-.73-3.8-2.72-7.16-4.23-10.66-.33.03-1,.27-1.26-.12.61-.48,1.33-1.12,2.11-1.4,1.09.79,2.15,2.96,2.49,4.39.2.8.54,1.55.64,2.18.05.31.04.92.46,1.33h0Z"/>
    <path class="cls-2" d="M149.96,131.03c.06.01.11.02.18,0h-.18Z"/>
    <path class="cls-2" d="M162.66,131.91c-.21.05-.44.15-.53-.04.1-.14.49-.26.53.04h0Z"/>
    <path class="cls-2" d="M142.38,140.87c.5.12,1.08.58,1.28,1.04-.24-.06-.41-.27-.59-.48-.1.03-.09.1-.2.13-.23-.31-.33-.31-.49-.69h0Z"/>
    <path class="cls-2" d="M161.37,135.19c.56.25,1.28.17,1.74.64-.65-.07-1.23-.27-1.74-.64h0Z"/>
    <path class="cls-4" d="M136.8,147.37c.55-1.26-.03-3.21-1.39-4.04-1.05.02-1.79-.61-2.82-.65-.04-.06-.07,0-.11.04-.03.02-.06.03-.03.07.47,1.78,1.29,3.92,1.93,5.69.93-.34,1.71-.54,2.43-1.11h0ZM130.28,138.57c.42,1.12,1.26,2.31,1.85,3.65.82-.13,1.3-.38,1.83-.6.34-1.12.1-2.77-.73-3.82-.92.1-2.1.41-2.95.78h0ZM135.43,137.17c.06.34.54.78.45,1.16-.19,0-.02-.19-.13-.3-.2.26.28.66.39.89-.36-.2-.05.72.04.96.22.59-.12,1.54-.05,1.91.03.14.38.36.22.5.11.12.14-.13.33-.12.35.66,1.1.51,1.34,1.19-.13.02-.11-.27-.27-.19.09.4.65.71.61,1.1.05.07.17-.04.21.04-.2.4.27,1.02.34,1.49-.23-.11-.27.44-.28.68-.18-.16-.26.12-.11.33-.79,1.54-2.34,2.57-4.33,3-.29.06-.71.04-.89.44-.24.03-.5.11-.66-.05.14-.81.23-1.39-.12-2.43-.21-.63-.38-1.37-.82-2.01-.11-1.22-.91-2.31-1.3-3.55-.11-.36-.49-1.03-.64-1.61-.09-.36-.64-.95-.76-1.45-.65.24-1.2.63-1.47-.04.23-.14.22-.15.39-.26-.15-.37-.25-.54-.29-.81.29-.16.41.03.7-.14.1-.04-.04-.18.02-.24.15-.05.29-.1.44-.16.02.05.04.1.06.15,1.97-.44,3.06-1.31,4.63-1.73.03.12.09.19.17.23.62-.25,1.17-.19,1.32.27-.15.06-.15-.04-.22.08.33,0,.18.46.5.57.12-.05-.07-.22-.08-.32.11.12.42.33.38.44-.06.03-.1.03-.13,0h0Z"/>
    <path class="cls-4" d="M165.44,136.95c-.08-.09-.06-.37-.24-.25-.06.12.13.21.24.25h0ZM163.74,133.65c-.73.16-.63-.64-1.05-.95-.65-.47-1.55.35-1.9.86.24.73,1.09,1.11,1.85,1.17.52.66,1.6.36,2.44.79.11.55.85.54,1.21.89.04.17-.13.25-.07.43.49.57.36,1.16-.03,1.51-.17.11-.24,0-.41.09-.48.7-1.55,1.22-2.69,1.66-.52-.25-2.09-.68-1.44-1.55.37-.02.5.47.76.7,1.06.36,2.15-.45,2.65-1.18-.22-1.17-1.07-1.02-1.82-1.41-.75-.38-1.73-.66-2.44-1.08-.55-.76-.54-1.48-.76-2.31.55-.93,1.21-1.83,2.69-2.4.76.15.68,1.41.9,2.21.07.25.28.36.13.58h0Z"/>
    <path class="cls-4" d="M141.45,144.55c.34.36.97.57,1.33,1.01.83.12,1.12-.57,1.24-1.08-.24-.26-.07-.51-.12-.7-.36-1.47-1.46-1.88-2.26-2.98-.07.02-.1-.03-.19,0-.09,1.07-.92,2.77,0,3.74h0ZM145.43,144.66c-.08.25.16.4.15.64-.19.3-.75.18-.7.42-.12-.03-.16-.24-.33-.17-.08.17-.04.27-.02.41-.09-.03-.13,0-.09.09-.48.14-.69.1-1.06.33-.05-.03-.09-.06-.12-.13-1.11.21-1.77-.05-2.45-.96-.31-.41-.71-.8-.82-1.15-.43-1.31.36-2.55.47-3.56.2-.17.3-.38.37-.59.29-.06.28-.08.47-.23.35.19.85.06,1.09.47.05.06.16-.01.24-.03.98.61,2.54,1.31,3.08,2.68.24.61.43,1.4-.12,1.88-.02-.28-.02-.03-.18-.11h0Z"/>
    <path class="cls-2" d="M148.47,138.52c.5.12,1.08.58,1.27,1.03-.24-.06-.42-.27-.59-.48-.1.03-.09.1-.19.13-.23-.3-.33-.3-.49-.68h0Z"/>
    <path class="cls-4" d="M147.54,142.19c.35.37.98.57,1.33,1.01.83.12,1.12-.57,1.24-1.08-.24-.26-.07-.51-.12-.7-.36-1.47-1.46-1.88-2.26-2.98-.07.02-.1-.04-.19,0-.09,1.06-.93,2.77,0,3.74h0ZM151.52,142.31c-.08.26.16.39.15.64-.19.3-.75.17-.7.42-.12-.03-.16-.24-.33-.17-.08.17-.04.27-.01.41-.09-.03-.13,0-.09.09-.47.14-.68.1-1.06.33-.05-.03-.09-.06-.12-.13-1.11.21-1.77-.05-2.45-.96-.31-.41-.71-.8-.82-1.14-.43-1.31.36-2.55.47-3.56.2-.17.3-.38.37-.59.29-.06.28-.08.47-.23.35.19.85.06,1.09.47.04.06.15,0,.24-.03.98.61,2.54,1.31,3.08,2.68.24.62.44,1.4-.12,1.88-.02-.28-.02-.03-.18-.11h0Z"/>
    <path class="cls-4" d="M75.38,129.41c-.25-.33-.95-.35-1.04-.85.35-.39,1.01.08,1.43.01.39-.68.76-1.99,1.34-2.57.31.45,1.04.32,1.17.84.15.59-.6,1.28-.79,2.13.38.37,1.38.53,1.25,1.09-.09.19-.94.09-1.41-.23-.12-.03-.16.1-.28.07-.85,1.42-1.08,2.68-1.35,4.16.75.17,1.3-.04,2.06.17.11.12-.04.35.14.44-.12.13-.29.16-.35.4-.48-.07-.65-.29-.92.1-.02-.29.06,0-.13.02-.1.01-.77-.18-1.3-.2-.53-.02-1.17.03-1.41-.69.46-1.6.83-3.16,1.58-4.88h0Z"/>
    <path class="cls-4" d="M94.1,139.85c.23,0,.94-.33,1.19-.63.53-.64.82-2.04.58-2.54-.22-.45-.73-.27-1.29-.54-.49.37-1.33.25-1.73.73-.36.44-.32,1.07-.71,1.76.33.54,1.13,1.23,1.96,1.21h0ZM90.05,145.9c-.13.11-.23.26-.35.4-1.03-.12-2.11-.55-2.79-1.32,1.29-.59,1.75-2.2,2.3-3.56.64-1.58,1.28-3.07,1.94-4.7-.17-.38.31-1.02.34-1.48-.44.03-.48-.3-.83-.44.92-.99,2.4-.93,3.35-1.63.34.14.45.12.62.32-.12.62-.87.82-.92,1.69.8-.4,1.49-.23,2.59.11.43.49.24,1.03.32,1.7.03.24.19.45.16.68,0,.06-.13.16-.15.23-.05.16.02.39-.01.51-.1.33-.43.53-.34.85-.24.56-.61.84-.86,1.37-.17.04-.29.15-.38.33-.82.57-1.93.23-2.83-.13-.41.17-.5-.11-.89.04-.27.36-.7,1.72-1.01,2.68-.22.7-.77,1.07-.59,1.8.11.19.31.34.34.57h0Z"/>
    <path class="cls-2" d="M125.22,144.38c.17.03.05.2.06.3-.06-.02-.11-.03-.17-.05.14-.06,0-.1.1-.25h0Z"/>
    <path class="cls-2" d="M117.12,144.57c.1.02.08.08.15.11-.04.15-.19.11-.23.26-.12-.06.07-.25.08-.37h0Z"/>
    <path class="cls-2" d="M124.58,146.45c.05.12-.03.29-.05.44-.12-.09-.07-.38.05-.44h0Z"/>
    <path class="cls-2" d="M65.75,128.74c.17.79-.49.81-1.11,1.06-.43.17-.8.47-1.13.31.05-.64.47-1.34.96-1.62.51.07.91.1,1.28.25h0Z"/>
    <path class="cls-2" d="M89.01,139.81c.2,0-.02.18.18.17-.1.15-.17.02-.3-.04.04-.03.09-.06.11-.13h0Z"/>
    <path class="cls-2" d="M121.62,152.91c.13.1.17.23.16.39-.17.05-.28-.19-.16-.39h0Z"/>
    <path class="cls-4" d="M65.35,118.16c.11.07-.23.8.12.95-.06.12-.17.14-.27.2.17.68-.55,1.34-.83,1.77-.28-.17-.67-.34-1.18-.5-.15.03-.17.31-.4.21-.16-.78.32-1.83-.28-2.42-1,.03-1.64.67-2.01,1.73-.06.72.82,1.04.81,1.75.08.17.2-.09.28.09-.04.08-.07.17-.1.25.24-.18.25.28.41.08.22.57,1.12.86.77,1.68.08.04.21-.28.12-.3.25.03.59.61.27.88-.12-.13-.2-.27-.19-.46-.33.25.14.52-.02.84.13.02.12-.24.19-.33.13.12-.05.39.19.46-.21.37-.17,1.78-.78,1.79.07.45-.2.73-.44.94-.57.49-1.11,1.18-1.85,1.32-.59.12-1.11,0-1.62-.02-.06,0-.08.08-.15.06-1.44-.45-1.9-.69-2.94-1.42-.02-1.03.36-2.44,1.15-3.2.48.02.87.46,1.38.46-.2.2-.03.94-.5,1.26.27.34-.38.79-.27,1.16.15.52.76.29,1.2.45.24-.03.47-.09.76-.03.15-.01.26-.09.34-.23,1.35.05,1.54-1.85,1.42-2.77-.29-.45-.56-.9-.69-1.42-.45-.41-.87-.83-1.1-1.33-1.21-.79-.62-2.5.11-3.88.67-.58,1.41-1,2.22-1.32.52.17.77.12,1.03-.06.17.05.24.15.35.23.1-.02.23.03.25-.15.27.28.71,0,.59.25.56.33,1.03.61,1.5.78-.02.17-.22,0-.21.21,0,.04.32.03.35.06h0Z"/>
    <path class="cls-4" d="M91.47,127.3c.11.07-.23.8.12.95-.06.13-.17.14-.27.2.17.68-.55,1.34-.83,1.77-.28-.17-.67-.34-1.18-.5-.16.03-.18.31-.4.21-.16-.78.31-1.83-.29-2.43-1,.03-1.64.67-2.01,1.73-.06.72.83,1.04.81,1.74.08.17.2-.08.28.09-.03.08-.07.17-.1.25.24-.19.25.28.41.08.23.57,1.12.86.77,1.67.09.04.21-.28.12-.3.26.03.59.61.27.88-.12-.13-.2-.27-.19-.46-.33.25.14.52-.03.85.13.02.12-.24.2-.33.13.12-.06.38.19.46-.21.37-.17,1.79-.78,1.79.07.45-.19.73-.43.94-.57.49-1.11,1.18-1.85,1.33-.59.12-1.11-.01-1.62-.02-.06,0-.08.08-.15.06-1.44-.45-1.9-.69-2.94-1.42-.03-1.04.36-2.45,1.15-3.2.48.02.87.46,1.39.46-.2.2-.03.94-.5,1.25.27.34-.38.8-.28,1.16.15.52.77.29,1.2.45.24-.03.47-.09.77-.03.15-.01.26-.09.34-.23,1.35.05,1.54-1.86,1.42-2.77-.29-.45-.56-.9-.69-1.42-.44-.41-.87-.83-1.1-1.33-1.21-.79-.63-2.5.11-3.88.67-.58,1.41-1,2.22-1.32.52.17.77.11,1.03-.06.17.05.24.15.35.23.1-.02.23.03.25-.15.27.27.71,0,.59.25.56.32,1.03.61,1.5.78-.02.17-.21,0-.21.21,0,.04.32.03.35.06h0Z"/>
    <path class="cls-4" d="M108.11,135.14c.47-.39.95-.78,1.59-.84.79.5-.37,2.24-1.03,2.11-.59-.12-.33-.88-.56-1.26h0Z"/>
    <path class="cls-4" d="M115.75,144.68c.3-.54-.46.39-.4.55.15-.26.31-.37.4-.55h0ZM113.46,142.27c.04-.15.19-.11.23-.27-.07-.03-.05-.09-.15-.1,0,.11-.2.31-.08.37h0ZM114.85,148.35c-.56.33-1.09-.02-1.57,0-.17-.19-.15-.46-.3-.67.23-1.27,1.65-3.11,2.16-4.46.18-.49.07-.77.1-1.05-.19-.13-.54.19-.82.18-.15.37-.37.4-.61.43-.54.51-1.24.8-1.56,1.7-.27.77-.74,1.55-.94,2.19-.08,0-.13.01-.25.14-.03.43-.15.56-.42.89-.05-.28-.14.12-.3.13-.26-.24-.81-.25-1.14-.43-.1-.58.15-1.23.37-1.87.55-1.6,1.72-3.17,2.02-4.73-.52.12-1.15-.11-.95-.6.12-.28.46-.18.91-.38.2-.09.31-.27.44-.31.11-.04.12.08.22.07.16-.01.43-.15.64-.19.48-.08.97-.09,1.37-.29.17.2.59.08.95.14-.03.12.15.16.07.3-.67.44-1.29.95-1.54,1.82.95-.19,2.27-1.1,3.33-.66.56.23,1.05,1.75.46,2.31.03.44-.28,1.05-.6,1.33-.18,1.17-1.26,2.06-1.88,2.97-.07.08-.26-.09-.32,0-.03.07-.05.13-.08.2.51.54,2.09-.66,1.94.64-.59.13-1.27.1-1.74.45-.17-.11,0-.1.05-.27h0Z"/>
    <path class="cls-4" d="M74.75,120.51c.26.63.04,1.47-.15,2.11-1.05,3.36-2.16,6.3-3.63,9.71.12.13.63.12.81.32-.08.46-.14,1.13-.58,1.29-.12-.03.05-.19.04-.27-.14.02-.19.23-.34.23-.6-.09-1.45-.49-2.07-.62-.17-.28-.23-.6-.18-.97.24-.19.62-.12.9-.21.52-1.41.8-2.73,1.47-3.83.02-.08-.16-.08-.13-.16.94-2.37,1.87-4.36,2.69-6.73-.47.06-.7.3-1.22.39-.37-.28-.47-.69-.79-1,.63-.53,1.65-.31,2.35-.7.41.26.35.21.82.44h0Z"/>
    <path class="cls-4" d="M101.69,135.96c-.43.41-.82.77-.82,1.43.89-.33,1.81-.58,2.9-.52.04.3.39.48.59.71-.04.12-.15.12-.17.28.4.12-.03.61-.25.94-.31-.25-.61-.57-.99-.67-.24.01-.35.27-.67.12-.73.49-1.63.65-2.31,1.23.39.53-.59,1.51-.41,2.13-.18.26-.56.7-.33.97-.21.24-.29.47-.38.79-.26-.17-.28.1-.4.21-.59-.29-1.58-.53-1.93-.98.74-.89,1.25-2.46,2.04-3.54.06-.74.48-1.68.91-2.43-.37-.31-1.23.05-1.3-.66,1.21.18,2.38-.65,3.52-.03h0Z"/>
    <path class="cls-4" d="M118.6,152.94c-.15-.11-.12-.04-.33-.11-.83.51-1.62,1.09-2.17,2.13.17,0,.36.05.57.13,1.12,1.52,5.18,1.27,4.73-1.17-.6-.51-1.49-.95-2.22-1.19.05-.09.08-.39-.01-.29-.11.32-.37.36-.57.49h0ZM121.78,153.31c.01-.16-.03-.3-.16-.39-.12.2,0,.45.16.39h0ZM124.53,146.88c.02-.15.1-.32.05-.44-.11.06-.16.35-.05.44h0ZM120.64,147.53c.26-.02.46.21.45.43.72.2.94.75,1.62.48.64-.25.9-1.19.95-1.73.08-.9.56-1.87-.38-2.17-.37,0-.59.29-1.05.11-.88.25-1.47,1.08-1.96,2.09.2.23.3.51.37.8h0ZM125.12,144.63c.05.02.11.04.17.05-.02-.1.11-.27-.07-.3-.1.15.04.19-.1.25h0ZM125.43,144.17c-.03.09-.11.08-.14.18.13,0,.2-.08.27-.19.5.23.93.05,1.21.57-.41.42-1.12.26-1.56.62-.29.68-.1,1.56-.59,2.25-.22.32-.67.4-.58.83-.25.17-.38.04-.4.38-.89.1-1.37,1.09-2.4,1.14-.51.68-1.35.29-1.82.65-.15-.17-.33-.33-.49-.5-.08.3-.21.98.06,1.27.12-.16.33-.13.51-.17,1.04.35,3.07.84,2.94,2.05.54.44.24,1.36.15,2.15-.23-.07-.26-.03-.47.08-.11.16.2.14.07.31-.38.33-.71.78-1.29.71-.03.09-.07.17-.1.25-.59-.03-1.1.13-1.61.27-.44-.22-.98-.33-1.43-.19-.52-.23-.63-.3-1.07-.29-.58-.47-1.44-.6-1.81-1.11-.53-.71-.03-1.47.36-2.32.04-.08.01-.24.07-.32.47-.64,1.38-.54,2.02-.98,0-.62-.12-1.09.2-1.75.25-.52.88-.91,1.05-1.36.12-.33-.08-.84-.04-1.15.15-1.07.88-2.21,1.45-2.99.65-.91,1.72-1.2,2.51-1.73.24.03.46,0,.62-.14.92.21,1.11.73,1.55,1.14.28,0,.56.24.79.38h0Z"/>
    <path class="cls-4" d="M109.1,137.7c-.39,1.22-.68,2.58-1.19,3.93-.45,1.16-1.48,2.39-1.33,3.48.06.4.44.74-.05,1.24-.89-.68-2.83-.22-3.19-1.28.09-.21.29-.22.54-.11.15-.6,1.03-.7,1.34-1.32.09-.17.05-.39.11-.59.12-.41.39-.82.56-1.24.43-1.1.57-2.34,1.29-3.22-.08-.15-.17.04-.28.08-.2-.17-.39-.34-.47-.55.62-.56,1.61-.39,2.35-.7.1.1.29.16.33.28h0Z"/>
    <path class="cls-4" d="M64.47,128.5c-.49.28-.91.98-.96,1.62.33.16.7-.14,1.13-.31.62-.25,1.28-.26,1.11-1.06-.37-.15-.77-.18-1.28-.25h0ZM67.88,132.34c-.37.21-.97-.04-1.33.19-.75-.55-.86-1.36-1.4-2-.24.2-.4.08-.61.42-.49-.03-.8.29-1.33.19-.44-.44-1.06-.67-1.23-1.15-.58-1.57,1.9-2.77,3.2-2.52.31.06.46.19.7.29.37-.22.61-1.06.9-1.63.24-.48.42-.94.08-1.28-.52-.1-1.88.97-2.39.97-.84,0-.96-1.07-.01-.91.58-.64,1.55-.85,2.44-1.24.5-.22.62-.52,1.2-.17,0,.34.18.43.41.7.24.28.26,1.25.19,1.71-.06.44-.29,1.04-.49,1.54-.54,1.32-1.18,2.78-1.16,3.83.23.27.72.63.83,1.07h0Z"/>
  </g>
  <polygon class="cls-6" points="30.96 82.78 7.4 117.27 8.57 118.75 53.52 117.19 37.38 87.54 32.57 81.93 30.96 82.78 30.96 82.78"/>
  <path class="cls-4" d="M29.07,87.25c-.85.37-.24-.86-1.09-.49-.41.14-.18.86-1.03.59-.33,1.4-.66,2.8-1.98,3.31-.31,1.48.75,1.41,1.18,2.08-1.86,1.36-1.87,5.72-5.14,4.27.3.79,1.28.83,1.43,1.8-.7.36-1.23.5-1.57.61,1.14.93-.3.7-.74,1.38-1.14,1.77-1.76,4.55-3.76,5-.07,1.29-.54,2.23-1.75,2.49.67,1.38-.39.19-.76.84,1.72.32-1.1,1.17.1,1.87-1.9.4-1.44,2.95-2.75,3.88-.17-.46.25-1.59-.34-1.59,0,.42.08.93-.5.83-.28.88.87.16.59,1.04-1.11.27-.91,1.73-1.48,2.48,2.78-.61,7.3-.66,10.41-.52.05-.21-.02-.53.24-.55,10.35.95,18.61-.66,31.25-1.01-.58-2.81-3.05-4.15-4.03-5.69-.32-2.37-2.56-2.61-2.66-5.21-1.2.18-1.03-.95-.89-1.56-1.06.03-2.03-1.7-1.17-2.09-.83.45-.9-.16-1.63-.45-1.93-5.83-6.53-9.94-8.74-14.55.01.27-.45.36-.53.02.32-.04.63-.11.51-.56-.75.26-.71-.34-1.35-.2-1.29,1.8-1.87,4.25-4.02,5.29.56.91-.2,1.29-.7,1.91-.32-1.06-.07-2.08.39-2.96.44-.02.18.73.57.77.06-1.15.97-3.33,1.76-2.23-.03-.37.09-.59.22-.81h0ZM44.67,99.59c1.58.23,1.16,2.65,2.82,2.8.04,1.73.93,2.54,2.03,3.11-.13,1.82.91,2.37,2.01,2.84.13.45-.18.51-.5.56.38.37,1.26.61.6,1.31.21-.16.43-.3.79-.31.12.54-.01.84-.49.82.53.68,2.07,2.14,1.2,2.62.27.45.86.54,1.62.45.15,2.19,1.35,3.21,1.35,5.55-.26-.15-1.01-.58-.78.3-.48-.5-1.86,0-1.92-.97-.59,1.05-1.83-.7-3.17.69-.81.13-.6-.84-.87-1.3-.76.27.38.65.07,1.34-.21-.17-.9-1.09-.8.04-3.73-.26-9.26-.28-12.56.08-.02-.26-.03-.53-.04-.8-1.2.71-2.61.85-3.74.18-.72,1.04-5.69,1.07-7.21.36-2.94,1.69-9.46.1-10.87,1.87-2.3-1.29-6.26.17-9.14-.88-.27-.84.18-1.03.46-1.36-1.07-.04-.44-.21-.62-1.84,1.25-.4,1.76-1.46,1.73-3.03,1.24.2.54-1.37,1.81-1.16-.23-.8-.21-.5-.07-1.33,1.81.2.72-2.24,2.29-2.25-.18-.26-.63-.24-.57-.77,1.08.29.5-.91,1.57-.61-.02-.45-.05-.89-.07-1.34.23-.22.59-.32,1.05-.32,1.56-4.03,4.49-6.81,6.16-10.74.92-.02,1.21-.6.99-1.65.78.03.79-.64,1.58-.62.65-3.57,4.05-4.65,4.67-8.25,2.93-.66,2.23-4.61,5.08-5.34-.18-.26-.63-.25-.58-.77.88-.05,1.31-.52,2.39-.39,1.2.85-.31,1.38,1.4,1.27-1.1,1.21.34,4.74,1.55,4.2.39.07.07,2.02,1.42,1.81-.14.83.33.96.35,1.59,3.43,2.86,4.09,8.8,7.53,11.66.12.45-.19.52-.51.57h0Z"/>
  <text class="cls-8" transform="translate(20.3 112.91) scale(.79 1)"><tspan class="cls-9" x="0" y="0">1</tspan><tspan x="12.17" y="0">6</tspan></text>
</svg>