<?xml version="1.0" encoding="UTF-8"?>
<svg id="Layer_1" data-name="Layer 1" xmlns="http://www.w3.org/2000/svg" viewBox="0 0 180 200">
  <defs>
    <style>
      .cls-1 {
        fill: #123e35;
      }

      .cls-2 {
        fill: #231f20;
      }

      .cls-2, .cls-3 {
        fill-rule: evenodd;
      }

      .cls-4 {
        font-family: AmericanTypewriter-Bold, 'American Typewriter';
        font-size: 20.52px;
        font-weight: 700;
      }

      .cls-4, .cls-5 {
        fill: #fff;
      }

      .cls-3 {
        fill: #ed2d2c;
      }

      .cls-6 {
        letter-spacing: -.04em;
      }
    </style>
  </defs>
  <path class="cls-2" d="M63.67,103.75c.12-.2.15.11.28.07-.06.1-.21.14-.29.04.04-.05.08-.09,0-.11h0Z"/>
  <path class="cls-2" d="M53.93,106.02c.07.02.04.14.04.22-.05,0-.11,0-.16,0-.06-.18.09-.13.12-.21h0Z"/>
  <path class="cls-2" d="M67.08,96.59c.24.05.32.23.35.45-.3-.13-.15-.28-.35-.45h0Z"/>
  <polygon class="cls-3" points="30.42 78.19 6.86 112.67 8.03 114.16 52.98 112.6 36.83 82.94 32.03 77.33 30.42 78.19 30.42 78.19"/>
  <path class="cls-2" d="M28.53,82.66c-.85.37-.24-.86-1.09-.49-.41.14-.18.86-1.04.59-.33,1.4-.66,2.8-1.98,3.3-.31,1.48.75,1.42,1.18,2.09-1.86,1.36-1.87,5.71-5.14,4.26.3.8,1.28.84,1.43,1.8-.7.36-1.23.5-1.57.61,1.14.93-.3.7-.74,1.38-1.14,1.77-1.76,4.55-3.76,5-.07,1.29-.54,2.23-1.75,2.49.67,1.38-.39.19-.76.84,1.72.32-1.1,1.17.1,1.87-1.9.39-1.44,2.94-2.75,3.88-.17-.46.25-1.59-.34-1.59,0,.41.08.92-.5.82-.28.88.87.16.59,1.04-1.11.27-.91,1.73-1.48,2.49,2.78-.62,7.3-.67,10.41-.52.05-.21-.02-.53.24-.55,10.35.95,18.61-.67,31.25-1.01-.58-2.81-3.05-4.16-4.03-5.69-.32-2.37-2.56-2.61-2.66-5.22-1.2.18-1.03-.95-.89-1.56-1.06.03-2.03-1.7-1.17-2.09-.83.45-.9-.16-1.63-.45-1.93-5.83-6.53-9.94-8.74-14.55.01.27-.45.36-.53.02.32-.04.63-.11.51-.56-.75.26-.71-.34-1.35-.2-1.29,1.8-1.87,4.25-4.02,5.28.56.91-.2,1.3-.7,1.91-.32-1.06-.07-2.08.39-2.96.44-.02.18.73.57.77.06-1.15.97-3.33,1.76-2.23-.03-.37.09-.6.22-.81h0ZM44.12,94.99c1.58.23,1.16,2.65,2.82,2.8.04,1.73.93,2.54,2.03,3.11-.13,1.82.91,2.38,2.01,2.84.13.45-.18.51-.5.56.38.37,1.26.61.6,1.31.21-.16.43-.3.79-.31.12.54-.01.84-.49.83.53.68,2.07,2.13,1.2,2.62.27.45.86.55,1.62.45.15,2.19,1.35,3.21,1.35,5.55-.26-.15-1.01-.57-.78.3-.48-.5-1.86,0-1.92-.97-.59,1.05-1.83-.7-3.17.69-.81.14-.6-.84-.87-1.3-.76.27.38.65.07,1.34-.21-.18-.9-1.08-.8.04-3.73-.26-9.26-.28-12.56.08-.02-.27-.03-.53-.04-.8-1.21.71-2.61.85-3.74.19-.72,1.04-5.69,1.07-7.2.36-2.94,1.69-9.46.1-10.87,1.87-2.3-1.29-6.26.17-9.14-.88-.27-.84.18-1.03.47-1.37-1.07-.04-.44-.2-.62-1.84,1.25-.4,1.76-1.47,1.73-3.03,1.24.19.54-1.38,1.81-1.16-.23-.81-.21-.5-.07-1.34,1.81.2.72-2.24,2.29-2.25-.18-.26-.63-.24-.57-.77,1.08.3.5-.9,1.57-.61-.02-.45-.05-.89-.07-1.34.23-.21.59-.32,1.05-.32,1.56-4.03,4.49-6.81,6.16-10.74.92-.02,1.21-.6.99-1.66.78.03.79-.64,1.58-.61.65-3.57,4.05-4.66,4.67-8.25,2.93-.66,2.23-4.61,5.08-5.33-.18-.27-.63-.25-.58-.77.88-.06,1.31-.52,2.39-.39,1.2.85-.31,1.38,1.4,1.27-1.1,1.2.34,4.73,1.55,4.2.39.07.07,2.02,1.42,1.8-.14.82.33.96.35,1.59,3.43,2.86,4.09,8.8,7.53,11.66.12.45-.19.52-.51.57h0Z"/>
  <text class="cls-4" transform="translate(19.61 110.52) scale(.79 1)"><tspan class="cls-6" x="0" y="0">1</tspan><tspan x="12.62" y="0">8</tspan></text>
  <g>
    <path class="cls-1" d="M169.8,99.78c.05,2.97.08,5.91-.83,8.81-.44,1.4-.44,2.92-.75,4.36-1.58,7.23-5.01,13.63-8.94,19.79-1.68,2.63-3.77,4.85-6.44,6.57-4.5,2.9-8.84,6.07-13.83,8.11-2.91,1.19-5.91,2.19-8.92,3.13-2.58.81-5.25,1.33-7.83,2.14-4.36,1.37-8.79,1.18-13.23.79-6.04-.53-11.61-2.89-17.35-4.55-.12-.04-.24-.1-.35-.16-5.43-3.16-11.44-5.4-15.78-10.28-3.56-4.01-7.04-8.06-9.49-12.88-3.29-6.46-5.78-13.21-7.27-20.31-.2-.94-.31-1.91-.37-2.87-.53-7.97-.44-15.88,2.55-23.45,2.56-6.47,6.33-12.23,10.73-17.6,2.05-2.5,4.04-5.05,6.64-7,1.7-1.27,3.47-2.46,5.29-3.53,2.49-1.47,5.02-2.91,7.63-4.16,1.91-.91,3.96-1.54,5.97-2.22.5-.17,1.1-.07,1.64-.11.37-.03.79,0,1.1-.16,2.47-1.3,5.16-1.69,7.87-1.68,4.32,0,8.68-.15,12.93.44,3.86.53,7.61,1.9,11.37,3.02,5.59,1.67,10.93,3.96,15.61,7.5,2.88,2.17,5.67,4.49,8.29,6.96,3.49,3.29,5.73,7.47,7.42,11.89,1.75,4.57,3.27,9.22,4.79,13.87,1.19,3.65,1.53,7.43,1.51,11.26,0,.77,0,1.55,0,2.32ZM146.65,88.52c-.64.51-1.34.97-1.91,1.55-1.12,1.13-2.18,2.32-3.37,3.6-.52-1.48-.59-2.77-.4-4.12.17-1.27.26-2.57.25-3.85-.02-1.63-.7-2.2-2.29-2.16-1.49.04-1.85.52-2.03,2.44-.54,5.93-.33,11.85.07,17.77.11,1.58.5,1.94,2,1.92,1.88-.02,2.51-.54,2.54-2.08,0-.64-.04-1.29-.05-1.93-.06-2.74,1.38-4.72,4.38-5.79.51.8,1.02,1.67,1.59,2.51,1.37,2.02,2.68,4.1,4.18,6.03,1.13,1.46,2.3,1.42,3.62.15.27-.26.46-.6.75-1.01-.38-.63-.7-1.25-1.1-1.82-1.42-2.08-2.85-4.14-4.29-6.2-.33-.48-.67-.95-1.05-1.39-1.37-1.57-1.34-1.82.12-3.3,1.5-1.51,2.98-3.04,4.4-4.62,1-1.11.96-1.77.04-2.66-.81-.78-1.39-.7-2.48.29-.95.87-1.95,1.69-2.89,2.56-.74.69-1.43,1.44-2.14,2.16l.07-.07ZM77.34,92.53s0,.01,0,.02c-.58,0-1.16,0-1.74,0-.19,0-.39,0-.58,0-1.45-.05-1.64-.24-1.69-1.71-.01-.39,0-.77.04-1.16.13-1.24.48-1.59,1.82-1.67,3.02-.18,6.01-.62,9.02-.98.7-.08,1.16-.45,1.33-1.19.19-.79-.01-1.53-.65-1.87-.76-.41-1.67-.7-2.52-.74-4.13-.16-8.24-.03-12.31.81-1.12.23-1.58.58-1.65,1.77-.16,2.76-.33,5.53-.33,8.3,0,2.64.19,5.28.32,7.92.04.9.12,1.8.24,2.69.19,1.32.69,1.74,1.88,1.67,1.23-.08,1.58-.48,1.64-1.85.09-1.8.14-3.61.32-5.4.15-1.44.49-1.77,1.93-1.97,1.15-.16,2.32-.11,3.47-.2,1.41-.12,2.91-.16,3.87-1.4.39-.5.77-1.35.6-1.86-.16-.51-.98-1.04-1.57-1.13-1.13-.18-2.31-.05-3.47-.05ZM100.49,83.04c-4.61.21-7.66,2.36-10.14,5.39-.87,1.06-1.55,2.41-1.88,3.73-.85,3.44.07,6.49,2.17,9.4,2.52,3.48,5.92,4.9,9.96,4.79,2.91-.08,5.37-1.58,7.61-3.42,2.19-1.79,3.29-4.08,3.33-6.88.04-3.2-1.01-6.05-2.75-8.69-2.1-3.18-5.27-4.08-8.3-4.32ZM116.36,105.89c.96.11,1.65.25,2.34.25,3.94.02,7.87,0,11.81,0,.32,0,.65-.02.96-.1.8-.21,1.26-1.18,1.19-2.37-.05-.91-.45-1.47-1.41-1.49-1.03-.01-2.07,0-3.1,0-1.81,0-3.61.02-5.42-.03-1.58-.04-1.69-.18-1.95-1.76-.03-.19-.05-.38-.06-.58-.12-3.93-.25-7.86-.35-11.78-.04-1.33,0-2.67,0-3.92-3.1-.92-4.26-.33-4.25,2.17.03,6.44.15,12.89.25,19.59ZM113.98,115.51c.25-.88.42-1.45.58-2.03-.39-.07-.77-.14-1.19-.22,0-.38.08-.78-.03-1.12-.08-.24-.41-.53-.65-.56-.26-.03-.6.18-.8.39-.15.16-.18.47-.19.72-.04.86-.37,1.96.03,2.5.35.45,1.56.25,2.24.32ZM137.49,115.51c1.62.38,2.57-.32,3.38-1.32.48-.59.46-1.17-.09-1.72-.95-.95-2.02-1.28-3.29-.78v3.81ZM143.37,111.72v3.76c1.02.16,1.92.34,3.01-.38-.95-.16-1.64-.28-2.33-.39-.01-.11-.02-.23-.03-.34.57-.26,1.13-.52,1.94-.89-.8-.22-1.33-.36-1.87-.51,0-.1,0-.2,0-.3.73-.22,1.45-.44,2.18-.65-.01-.1-.02-.2-.04-.3h-2.87ZM125.74,111.91c.02,1.22-.25,2.32.31,3.5.79-1.65,1.07-1.71,2.09-.6.13.14.23.33.38.42.13.08.32.06.6.1-.26-.5-.47-.88-.69-1.3.29-.57,1.17-1.04.49-1.8-.87-.97-1.94-.7-3.19-.32ZM133.12,111.44c-1.1,1.35-1.67,2.65-1.85,4.28,1.08-1.7,2.32-1.39,3.7-.57-.57-1.14-1.13-2.27-1.85-3.71ZM92.16,115.65c.86-.04,1.73-1.11,1.68-2.05-.05-.82-1.15-1.85-1.97-1.83-.92.02-1.77.97-1.74,1.97.02,1.02,1.02,1.96,2.03,1.91ZM79.48,114.8c.56.44.77.71,1.04.79.97.29,2.09-.1,2.12-.75.03-.89-.46-1.41-1.38-1.53-.21-.03-.39-.28-.58-.44.05-.07.09-.15.14-.22.56.12,1.12.24,1.97.42-1.73-1.51-2.52-1.36-3,.29.48.79,1.89.13,2.17,1.61-.72-.05-1.35-.09-2.48-.16ZM99.36,112.42c-.82-.75-1.61-.81-2.32-.02-.57.64-.57,1.66-.05,2.29.64.78,1.45.87,2.53.26-1.71-.2-2.31-.56-2.22-1.43.14-1.37,1.22-.95,2.06-1.09ZM103.34,112.89c-.24-.28-.48-.55-.88-1.01-.06,1.27-.21,2.24.04,3.48.35-.66.55-1.02.8-1.5.62.53,1.14.97,1.66,1.41.07-.07.13-.14.2-.21-.34-.58-.68-1.16-1.02-1.72.32-.47.61-.9.9-1.32l-.24-.19c-.49.35-.98.71-1.47,1.07ZM121.84,115.55c.67-1.18-.29-2.89,1.38-3.61h-2.55c.35.53.79.96.92,1.48.16.62-.35,1.34.25,2.13ZM86.06,115.18c.12.01.23.03.35.04.13-.82.26-1.65.39-2.44.43-.15.78-.28,1.13-.4-.03-.13-.06-.27-.09-.4-1.02.05-2.03.09-3.05.14,0,.1-.01.2-.02.3.43.16.86.31,1.29.47v2.29Z"/>
    <path class="cls-5" d="M146.58,88.59c.71-.72,1.4-1.47,2.14-2.16.94-.88,1.94-1.7,2.89-2.56,1.09-.99,1.67-1.07,2.48-.29.92.89.96,1.55-.04,2.66-1.42,1.58-2.9,3.11-4.4,4.62-1.46,1.47-1.49,1.73-.12,3.3.38.44.72.91,1.05,1.39,1.44,2.06,2.87,4.13,4.29,6.2.39.58.72,1.19,1.1,1.82-.3.4-.49.75-.75,1.01-1.32,1.27-2.49,1.31-3.62-.15-1.5-1.93-2.81-4-4.18-6.03-.57-.84-1.08-1.71-1.59-2.51-3,1.07-4.44,3.05-4.38,5.79.02.64.06,1.29.05,1.93-.02,1.54-.66,2.05-2.54,2.08-1.51.02-1.9-.34-2-1.92-.39-5.92-.61-11.85-.07-17.77.18-1.93.54-2.4,2.03-2.44,1.59-.05,2.27.53,2.29,2.16.02,1.28-.08,2.58-.25,3.85-.18,1.35-.11,2.64.4,4.12,1.19-1.28,2.24-2.48,3.37-3.6.58-.58,1.27-1.03,1.91-1.55-1.67,2.12-3.48,4.1-5.57,6.02-.82-2.1-.72-3.94-.51-5.81.12-1.02.21-2.05.17-3.08-.04-1.15-.61-1.66-1.67-1.7-1.01-.03-1.45.34-1.65,1.48-.08.44-.06.9-.1,1.35-.4,5.28-.26,10.55.03,15.83.15,2.73.56,3.06,3.15,2.23.11-.03.18-.16.39-.35,0-.47.08-1.05-.01-1.61-.46-2.77.48-4.91,2.77-6.49.05-.04.09-.1.14-.14,1.34-1.16,2.17-1.07,3.17.35.26.37.46.77.71,1.15,1.34,2.04,2.62,4.13,4.06,6.09,1.26,1.7,2.35,1.51,3.57-.6-2.15-3.01-4.32-6.11-6.57-9.15-.82-1.11-.94-1.88-.09-2.91.33-.39.75-.71,1.1-1.08,1.58-1.68,3.14-3.38,4.81-5.17-.57-.61-.98-1.05-1.52-1.62-.7.64-1.22,1.18-1.81,1.65-1.54,1.23-3.1,2.42-4.65,3.63Z"/>
    <path class="cls-5" d="M77.34,92.53c1.16,0,2.34-.13,3.47.05.6.09,1.41.62,1.57,1.13.16.51-.21,1.36-.6,1.86-.96,1.23-2.46,1.28-3.87,1.4-1.16.1-2.33.05-3.47.2-1.43.19-1.78.52-1.93,1.97-.19,1.79-.23,3.6-.32,5.4-.07,1.37-.41,1.78-1.64,1.85-1.19.08-1.7-.34-1.88-1.67-.13-.89-.2-1.79-.24-2.69-.13-2.64-.32-5.28-.32-7.92,0-2.77.17-5.53.33-8.3.07-1.19.53-1.54,1.65-1.77,4.07-.85,8.18-.97,12.31-.81.85.03,1.76.33,2.52.74.63.34.84,1.07.65,1.87-.18.74-.63,1.11-1.33,1.19-3,.35-6,.79-9.02.98-1.34.08-1.69.43-1.82,1.67-.04.38-.06.77-.04,1.16.04,1.47.23,1.66,1.69,1.71.19,0,.39,0,.58,0,.58,0,1.16,0,1.74,0,0,0,0-.01,0-.02ZM71.46,105.45c.03-.49.05-.87.08-1.26.12-1.8.17-3.61.37-5.4.16-1.49.46-1.82,1.84-2.03,1.46-.22,2.94-.3,4.41-.4,1.25-.09,2.45-.29,3.32-1.3.74-.87.56-1.62-.53-1.85-.93-.19-1.91-.21-2.86-.21-1.03,0-2.06.17-3.08.17-1.76,0-2.27-.54-2.32-2.32-.01-.38.02-.77.08-1.15.32-2.03.53-2.13,2.59-2.27,2.69-.19,5.38-.49,8.06-.82.65-.08,1.49-.15,1.57-1.12.07-.78-.56-1.43-1.61-1.6-.44-.07-.9-.07-1.35-.07-2.13.02-4.26-.06-6.38.12-2.15.18-4.29.61-6.28.91-.16.38-.24.5-.26.62-.94,6.31-.09,12.61.09,18.91.04,1.37.41,1.49,2.27,1.07Z"/>
    <path class="cls-5" d="M100.49,83.04c3.03.24,6.2,1.14,8.3,4.32,1.74,2.65,2.79,5.5,2.75,8.69-.04,2.8-1.14,5.08-3.33,6.88-2.24,1.84-4.71,3.34-7.61,3.42-4.05.11-7.45-1.31-9.96-4.79-2.1-2.91-3.02-5.96-2.17-9.4.33-1.32,1.01-2.67,1.88-3.73,2.48-3.02,5.53-5.17,10.14-5.39ZM88.86,94.56c-.24,4.12,1.95,7.27,5.05,9.4,3.62,2.48,7.76,2.58,11.67.12.87-.55,1.7-1.17,2.49-1.83,1.94-1.63,2.87-3.75,2.89-6.28.02-3-.95-5.69-2.61-8.15-2.2-3.29-5.41-4.46-9.19-4.06-3.76.4-6.48,2.64-8.73,5.51-1.2,1.53-1.76,3.28-1.57,5.29Z"/>
    <path class="cls-5" d="M116.36,105.89c-.09-6.71-.22-13.15-.25-19.59-.01-2.49,1.15-3.09,4.25-2.17,0,1.25-.03,2.58,0,3.92.1,3.93.23,7.86.35,11.78,0,.19.03.39.06.58.25,1.58.37,1.72,1.95,1.76,1.8.05,3.61.02,5.42.03,1.03,0,2.07-.02,3.1,0,.96.01,1.36.58,1.41,1.49.07,1.19-.39,2.16-1.19,2.37-.31.08-.64.09-.96.1-3.94,0-7.87.02-11.81,0-.69,0-1.38-.14-2.34-.25ZM119.84,84.52c-.42-.1-.66-.19-.9-.22-1.79-.17-2.17.17-2.22,1.97-.02.96-.04,1.93-.01,2.9.16,5.43-.38,10.9.6,16.36.31.05.55.12.8.12,4.12,0,8.24,0,12.36,0,.26,0,.53.02.77-.06.84-.28.88-1.05.91-1.74.03-.67-.36-1.09-1.06-1.1-.83-.02-1.67.02-2.5,0-2.25-.04-4.5-.05-6.74-.16-1.01-.05-1.55-.55-1.57-1.74-.06-3.47-.3-6.94-.41-10.41-.06-1.92-.01-3.85-.01-5.93Z"/>
    <path class="cls-5" d="M113.98,115.51c-.68-.07-1.9.14-2.24-.32-.41-.53-.07-1.64-.03-2.5.01-.25.04-.56.19-.72.2-.21.54-.42.8-.39.24.02.57.31.65.56.11.33.03.73.03,1.12.42.08.79.15,1.19.22-.16.58-.33,1.14-.58,2.03Z"/>
    <path class="cls-5" d="M137.49,115.51v-3.81c1.26-.5,2.34-.17,3.29.78.55.55.57,1.12.09,1.72-.81,1-1.75,1.7-3.38,1.32ZM138.09,111.88c.11,1.37.17,2.15.27,3.41.96-.78,1.57-1.29,2.5-2.04-1.04-.52-1.71-.85-2.76-1.37Z"/>
    <path class="cls-5" d="M143.37,111.72h2.87c.01.1.02.2.04.3-.73.22-1.45.44-2.18.65,0,.1,0,.2,0,.3.53.15,1.07.29,1.87.51-.81.37-1.37.63-1.94.89.01.11.02.23.03.34.69.12,1.37.23,2.33.39-1.09.72-1.99.54-3.01.38v-3.76Z"/>
    <path class="cls-5" d="M125.74,111.91c1.24-.37,2.31-.65,3.19.32.68.75-.2,1.23-.49,1.8.22.42.43.8.69,1.3-.28-.04-.47-.02-.6-.1-.16-.1-.25-.28-.38-.42-1.02-1.11-1.3-1.05-2.09.6-.56-1.18-.28-2.28-.31-3.5ZM128.4,112.83v-.44c-.61-.05-1.23-.1-1.92-.16.36,1.4.5,1.43,1.92.6Z"/>
    <path class="cls-5" d="M133.12,111.44c.72,1.44,1.28,2.58,1.85,3.71-1.39-.82-2.63-1.13-3.7.57.18-1.63.75-2.93,1.85-4.28Z"/>
    <path class="cls-5" d="M92.16,115.65c-1.01.05-2-.89-2.03-1.91-.02-1,.82-1.95,1.74-1.97.81-.02,1.92,1.01,1.97,1.83.06.94-.82,2.01-1.68,2.05ZM91.65,112.42c-.97,1.17-1.05,1.84-.31,2.31.53.34,1.07.41,1.52-.2.58-.8.36-1.21-1.2-2.12Z"/>
    <path class="cls-5" d="M79.48,114.8c1.13.07,1.76.12,2.48.16-.28-1.48-1.69-.83-2.17-1.61.48-1.65,1.27-1.8,3-.29-.85-.18-1.41-.3-1.97-.42-.05.07-.09.15-.14.22.19.15.37.41.58.44.92.13,1.41.64,1.38,1.53-.03.65-1.15,1.04-2.12.75-.27-.08-.48-.35-1.04-.79Z"/>
    <path class="cls-5" d="M99.36,112.42c-.84.14-1.92-.28-2.06,1.09-.09.87.51,1.24,2.22,1.43-1.08.61-1.88.53-2.53-.26-.51-.63-.52-1.65.05-2.29.71-.79,1.49-.72,2.32.02Z"/>
    <path class="cls-5" d="M103.34,112.89c.49-.36.98-.71,1.47-1.07l.24.19c-.29.42-.58.85-.9,1.32.33.57.67,1.15,1.02,1.72-.07.07-.13.14-.2.21-.52-.44-1.04-.88-1.66-1.41-.26.48-.45.84-.8,1.5-.26-1.23-.1-2.21-.04-3.48.4.46.63.73.88,1.01Z"/>
    <path class="cls-5" d="M121.84,115.55c-.6-.8-.09-1.52-.25-2.13-.13-.52-.58-.95-.92-1.48h2.55c-1.68.73-.71,2.44-1.38,3.61Z"/>
    <path class="cls-5" d="M86.06,115.18v-2.29c-.43-.15-.86-.31-1.29-.47,0-.1.01-.2.02-.3,1.02-.05,2.03-.09,3.05-.14.03.13.06.27.09.4-.35.12-.71.25-1.13.4-.13.79-.26,1.61-.39,2.44-.12-.01-.23-.03-.35-.04Z"/>
    <path class="cls-5" d="M146.58,88.59c1.55-1.21,3.11-2.4,4.65-3.63.59-.47,1.12-1.01,1.81-1.65.54.57.95,1.01,1.52,1.62-1.67,1.8-3.24,3.49-4.81,5.17-.35.38-.78.69-1.1,1.08-.85,1.03-.72,1.8.09,2.91,2.25,3.05,4.42,6.15,6.57,9.15-1.22,2.11-2.32,2.3-3.57.6-1.45-1.96-2.72-4.05-4.06-6.09-.25-.38-.45-.78-.71-1.15-1-1.42-1.83-1.5-3.17-.35-.05.04-.08.1-.14.14-2.29,1.58-3.23,3.72-2.77,6.49.09.56.01,1.14.01,1.61-.2.19-.28.32-.39.35-2.59.83-3,.49-3.15-2.23-.29-5.28-.43-10.55-.03-15.83.03-.45.02-.91.1-1.35.2-1.13.65-1.51,1.65-1.48,1.06.03,1.63.55,1.67,1.7.03,1.02-.06,2.06-.17,3.08-.21,1.87-.31,3.71.51,5.81,2.09-1.92,3.9-3.9,5.57-6.02,0,0-.07.07-.07.07Z"/>
    <path class="cls-5" d="M71.46,105.45c-1.85.42-2.23.3-2.27-1.07-.18-6.3-1.03-12.6-.09-18.91.02-.12.1-.24.26-.62,1.99-.3,4.12-.73,6.28-.91,2.12-.18,4.25-.1,6.38-.12.45,0,.91,0,1.35.07,1.05.17,1.68.82,1.61,1.6-.09.97-.92,1.04-1.57,1.12-2.68.33-5.37.63-8.06.82-2.05.14-2.27.24-2.59,2.27-.06.38-.09.77-.08,1.15.05,1.78.56,2.32,2.32,2.32,1.03,0,2.06-.17,3.08-.17.96,0,1.93.02,2.86.21,1.09.23,1.27.98.53,1.85-.87,1.01-2.06,1.22-3.32,1.3-1.47.1-2.96.17-4.41.4-1.38.21-1.68.55-1.84,2.03-.19,1.79-.25,3.6-.37,5.4-.02.38-.05.77-.08,1.26Z"/>
    <path class="cls-5" d="M88.86,94.56c-.18-2.01.37-3.76,1.57-5.29,2.25-2.87,4.97-5.11,8.73-5.51,3.78-.4,6.99.78,9.19,4.06,1.65,2.46,2.63,5.15,2.61,8.15-.02,2.53-.95,4.64-2.89,6.28-.79.66-1.62,1.28-2.49,1.83-3.91,2.46-8.05,2.36-11.67-.12-3.11-2.13-5.29-5.28-5.05-9.4ZM107.79,95.19c0-.47.06-.92-.01-1.36-.29-1.84-.57-3.64-2.17-4.99-3.05-2.57-7.41-2.41-10.24-.61-3.23,2.05-4.62,7.2-2.54,10,.9,1.21,2.08,2.34,3.36,3.13,1.79,1.1,3.75,2.12,5.98.95,1.73-.9,3.31-1.96,4.5-3.56.8-1.08,1.34-2.19,1.12-3.55Z"/>
    <path class="cls-5" d="M119.84,84.52c0,2.09-.05,4.01.01,5.93.11,3.47.35,6.94.41,10.41.02,1.19.57,1.69,1.57,1.74,2.24.11,4.49.12,6.74.16.83.01,1.67-.02,2.5,0,.7.01,1.1.43,1.06,1.1-.04.69-.07,1.46-.91,1.74-.24.08-.51.06-.77.06-4.12,0-8.24,0-12.36,0-.25,0-.49-.07-.8-.12-.98-5.46-.43-10.92-.6-16.36-.03-.96-.01-1.93.01-2.9.05-1.8.43-2.14,2.22-1.97.25.02.49.11.9.22Z"/>
    <path class="cls-1" d="M138.09,111.88c1.06.52,1.72.85,2.76,1.37-.93.76-1.54,1.26-2.5,2.04-.1-1.26-.16-2.04-.27-3.41Z"/>
    <path class="cls-1" d="M128.4,112.83c-1.42.83-1.56.81-1.92-.6.69.06,1.31.11,1.92.16v.44Z"/>
    <path class="cls-1" d="M91.65,112.42c1.57.91,1.79,1.32,1.2,2.12-.44.61-.99.54-1.52.2-.74-.48-.66-1.14.31-2.31Z"/>
    <path class="cls-5" d="M107.79,95.19c.22,1.36-.31,2.48-1.12,3.55-1.19,1.59-2.77,2.65-4.5,3.56-2.23,1.17-4.19.15-5.98-.95-1.28-.79-2.46-1.92-3.36-3.13-2.09-2.8-.69-7.95,2.54-10,2.83-1.8,7.19-1.96,10.24.61,1.6,1.35,1.87,3.15,2.17,4.99.07.44.01.9.01,1.36ZM107.15,95.12c.04-3.01-.54-5.5-3.44-6.74-.64-.27-1.33-.43-2-.63-3-.87-5.48.12-7.5,2.29-1.99,2.14-2.34,6.09-.75,8.04.77.94,1.63,1.89,2.65,2.51,1.67,1.03,3.47,2.31,5.55,1.21,1.45-.77,2.82-1.78,4.04-2.89,1.12-1.01,1.8-2.37,1.45-3.79Z"/>
    <path class="cls-1" d="M107.15,95.12c.36,1.43-.32,2.78-1.45,3.79-1.22,1.11-2.59,2.12-4.04,2.89-2.08,1.11-3.88-.17-5.55-1.21-1.02-.63-1.88-1.58-2.65-2.51-1.59-1.95-1.24-5.9.75-8.04,2.02-2.17,4.51-3.16,7.5-2.29.67.19,1.36.35,2,.63,2.9,1.24,3.48,3.73,3.44,6.74ZM99.28,93.31c-.14-.14-.29-.28-.43-.42-.67.64-1.24,1.46-2.02,1.86-.83.42-1.87.45-3.21.73.81.32,1.28.51,1.79.71-.22.49-.42.96-.68,1.54,1.54.04,1.78-2.51,3.58-1.49-.49.69-.94,1.32-1.39,1.94,1.73-.09,2.13-2.34,4.06-2.09-.17.58-.27.96-.46,1.61,1.14-.68,1.93-1.33,2.84-1.66.91-.33,2.01.06,3.03-.5-.68-1.23-1.72-.07-2.43-.52-.06-.88,1.33-1.2.88-2.57-.67.73-1.16,1.29-1.68,1.83-.56.58-1.09,1.3-2.19.67.75-.86,1.47-1.69,2.2-2.52-.09-.1-.17-.2-.26-.3-.3.15-.65.23-.89.45-.66.61-1.29,1.26-1.89,1.93-.57.65-1.2.85-2.1.48.44-.6.83-1.15,1.23-1.69Z"/>
    <path class="cls-5" d="M99.28,93.31c-.4.54-.79,1.08-1.23,1.69.9.37,1.53.16,2.1-.48.6-.67,1.23-1.32,1.89-1.93.23-.22.59-.31.89-.45.09.1.17.2.26.3-.73.83-1.45,1.66-2.2,2.52,1.09.63,1.62-.09,2.19-.67.52-.54,1.01-1.1,1.68-1.83.46,1.37-.94,1.69-.88,2.57.71.44,1.75-.71,2.43.52-1.02.56-2.12.17-3.03.5-.91.33-1.71.98-2.84,1.66.19-.65.29-1.02.46-1.61-1.93-.25-2.33,2.01-4.06,2.09.45-.62.89-1.25,1.39-1.94-1.81-1.03-2.04,1.53-3.58,1.49.25-.57.46-1.04.68-1.54-.5-.2-.98-.39-1.79-.71,1.34-.28,2.37-.31,3.21-.73.79-.4,1.36-1.22,2.02-1.86.14.14.29.28.43.42Z"/>
  </g>
</svg>