<?xml version="1.0" encoding="UTF-8"?>
<svg id="Layer_1" data-name="Layer 1" xmlns="http://www.w3.org/2000/svg" viewBox="0 0 180 200">
  <defs>
    <style>
      .cls-1 {
        fill: #c3692b;
      }

      .cls-2 {
        font-family: 'Jay_San-Serif', Jay_San-Serif;
        font-size: 6.65px;
        letter-spacing: .2em;
      }

      .cls-3 {
        fill: #10391f;
      }

      .cls-4 {
        fill: #231f20;
      }

      .cls-4, .cls-5 {
        fill-rule: evenodd;
      }

      .cls-6 {
        fill: #dfe0df;
      }

      .cls-7 {
        font-family: AmericanTypewriter-Bold, 'American Typewriter';
        font-size: 24px;
        font-weight: 700;
        letter-spacing: .02em;
      }

      .cls-7, .cls-8 {
        fill: #fff;
      }

      .cls-9 {
        fill: #b8c3b9;
      }

      .cls-8 {
        stroke: #fff;
        stroke-miterlimit: 2;
        stroke-width: .98px;
      }

      .cls-5 {
        fill: #00a14b;
      }
    </style>
  </defs>
  <polygon class="cls-5" points="30.55 84.91 6.99 119.4 8.17 120.89 53.12 119.33 36.97 89.67 32.17 84.05 30.55 84.91 30.55 84.91"/>
  <path class="cls-4" d="M28.66,89.38c-.85.37-.24-.86-1.09-.48-.41.14-.19.85-1.03.59-.33,1.4-.66,2.8-1.98,3.31-.32,1.48.75,1.42,1.18,2.08-1.86,1.36-1.87,5.71-5.14,4.27.3.79,1.28.83,1.43,1.8-.71.36-1.23.5-1.57.61,1.14.93-.3.7-.74,1.37-1.14,1.77-1.76,4.56-3.76,5-.07,1.29-.54,2.23-1.76,2.49.68,1.38-.39.19-.76.84,1.72.33-1.1,1.17.1,1.87-1.9.4-1.44,2.95-2.75,3.88-.17-.46.25-1.58-.34-1.59,0,.42.08.92-.5.83-.28.88.87.16.59,1.04-1.11.27-.9,1.73-1.48,2.49,2.78-.62,7.3-.66,10.41-.52.04-.21-.02-.53.24-.55,10.35.95,18.6-.66,31.25-1-.58-2.81-3.05-4.15-4.03-5.69-.32-2.37-2.56-2.61-2.66-5.22-1.2.18-1.03-.95-.89-1.56-1.06.02-2.03-1.7-1.17-2.09-.84.45-.9-.16-1.63-.45-1.93-5.83-6.54-9.94-8.75-14.55.01.27-.45.36-.53.02.33-.04.63-.11.51-.56-.75.26-.71-.34-1.35-.2-1.29,1.8-1.87,4.25-4.02,5.28.56.92-.2,1.3-.7,1.91-.33-1.06-.07-2.08.39-2.96.44-.02.18.73.57.77.06-1.15.97-3.33,1.76-2.23-.03-.37.09-.6.22-.82h0ZM44.26,101.72c1.58.23,1.16,2.65,2.81,2.81.04,1.73.93,2.54,2.03,3.11-.12,1.83.91,2.37,2.01,2.84.12.45-.18.51-.51.56.38.37,1.26.61.6,1.31.21-.15.43-.3.78-.31.12.54-.01.84-.49.83.53.68,2.07,2.13,1.2,2.62.27.45.87.55,1.62.45.15,2.19,1.35,3.21,1.35,5.55-.25-.15-1.01-.58-.78.3-.48-.5-1.86-.01-1.92-.97-.59,1.05-1.83-.7-3.17.69-.81.13-.6-.84-.87-1.3-.76.27.38.65.07,1.33-.21-.17-.9-1.08-.8.04-3.73-.26-9.26-.28-12.56.08-.01-.26-.03-.53-.04-.8-1.21.71-2.61.85-3.74.19-.72,1.04-5.69,1.08-7.21.36-2.93,1.69-9.46.1-10.87,1.87-2.3-1.29-6.26.17-9.14-.88-.27-.84.18-1.03.47-1.37-1.08-.04-.45-.2-.62-1.84,1.24-.4,1.75-1.46,1.72-3.03,1.24.19.54-1.37,1.81-1.16-.23-.81-.22-.5-.07-1.33,1.81.2.72-2.24,2.29-2.25-.18-.26-.62-.25-.57-.78,1.08.29.5-.9,1.57-.61-.02-.45-.04-.89-.07-1.33.23-.22.59-.32,1.05-.32,1.57-4.03,4.49-6.81,6.16-10.74.92-.02,1.21-.6.99-1.66.78.03.78-.64,1.57-.61.65-3.58,4.06-4.66,4.67-8.26,2.93-.65,2.23-4.6,5.08-5.33-.18-.26-.62-.25-.58-.78.88-.06,1.31-.52,2.39-.39,1.2.85-.31,1.38,1.4,1.27-1.1,1.21.34,4.74,1.55,4.2.39.07.07,2.02,1.42,1.81-.14.82.33.96.36,1.59,3.43,2.87,4.09,8.8,7.53,11.66.12.45-.18.52-.51.56h0Z"/>
  <text class="cls-7" transform="translate(23.64 114.79) scale(.79 1)"><tspan x="0" y="0">2</tspan></text>
  <g>
    <path class="cls-8" d="M53.67,60.93c-.19,1.38-.09,15.37-.09,21.35s0,27.12.19,29.87c.19,2.76.78,14.25.97,17.92.19,3.68-.19,12.87.97,12.41s11.3.46,13.83.92,41.29,0,43.82-.46c2.53-.46,38.56,1.38,39.92,1.38s10.13-1.84,10.13-1.84c0,0,.39-18.38.39-22.98s.19-45.5.19-49.63-.3-8.29-.3-8.29c0,0-12.54-.46-14.3,0s-43.24-.9-44.6-.9-39.53-.46-41.68-.46-9.46.71-9.46.71Z"/>
    <g>
      <circle class="cls-6" cx="107.24" cy="85.88" r="21.95"/>
      <path class="cls-3" d="M131.53,98.44c-.29-.17-.55-.33-.82-.48-1.2-.65-2.37-.61-3.49.18-.91.64-1.78,1.33-2.72,1.89-1.42.85-2.94,1.3-4.54.54-.54-.26-1.01-.68-1.5-1.06-.69-.54-1.32-1.18-2.05-1.66-.9-.59-1.89-.65-2.92-.25-1.07.42-2.18.73-3.24,1.18-1.49.64-2.96.62-4.35-.12-1.99-1.06-3.77-.76-5.63.38-1.62.99-3.34,1.9-5.36,1.63-2.68-.36-5.37-.7-7.36-2.88-.38-.42-.88-.73-1.35-1.06-.89-.61-1.87-.76-2.91-.43-.76.24-1.51.49-2.27.72-.27.08-.55.09-1.07.18,1.06-1.55,2.4-2.16,3.91-2.36,1.38-.18,2.73.12,3.97.8.89.49,1.82.92,2.67,1.48,1.38.92,2.86.94,4.32.44,1.37-.47,2.72-1.07,4-1.75,2.35-1.24,4.67-1.13,7.02-.1.04.02.08.04.12.06q2.91,1.5,5.85-.12c2.07-1.13,4.21-1.3,6.36-.28.58.28,1.11.73,1.58,1.18,1.32,1.26,2.67,1.27,4.22.37,2.11-1.21,4.39-1.25,6.68-.59,1.04.3,1.28.74,1.17,1.76,0,.07-.11.13-.28.31ZM85.93,95.56s-.03.1-.04.14c.85.69,1.73,1.35,2.53,2.09.9.83,1.92,1.41,3.12,1.67.86.19,1.72.44,2.59.58,1.15.19,2.27.19,3.36-.39.89-.48,1.86-.83,2.76-1.31,1.92-1.01,3.83-1.27,5.83-.21,1.32.7,2.69.7,4.09.1,1.05-.46,2.13-.87,3.24-1.18.65-.18,1.39-.25,2.06-.16,1.33.18,2.28,1.1,3.22,1.98.38.36.75.76,1.19,1.03,1.37.84,2.74.56,4.03-.19.99-.58,1.94-1.24,2.85-1.94.95-.74,2-.88,3.13-.74.24.03.48.1.72.15-.5-.34-1.03-.52-1.58-.55-1.88-.13-3.69.07-5.36,1.11-1.31.82-2.62.64-3.81-.34-.27-.22-.58-.42-.82-.67-1.79-1.86-4.82-1.64-6.56-.76-.51.26-1.02.53-1.51.83-1.47.9-2.93.81-4.4,0-.23-.13-.46-.26-.7-.38-2.28-1.13-4.53-1.22-6.87-.02-1.48.77-3.06,1.39-4.65,1.9-1.34.43-2.69.26-3.94-.55-.96-.62-1.99-1.15-3.02-1.67-.45-.23-.96-.34-1.44-.51Z"/>
      <path class="cls-9" d="M91.98,95.79c1.83.41,3.12-.38,4.39-1.33,1.76-1.31,3.64-2.35,5.95-2.31,1.08.02,2.1.19,3.06.71.31.17.64.29.97.43,1.06.44,2.07.38,3.01-.32.64-.47,1.27-.96,1.94-1.4,1.07-.72,2.21-.92,3.53-.69,1.39.24,2.59.77,3.73,1.57,1.43,1,3.09.93,4.73.76.79-.08,1.57-.28,2.35-.39,2.18-.3,4.33-.15,6.41.58.85.3,1.58.77,1.76,1.89-.3,0-.57.07-.78-.01-2.93-1.08-5.91-.89-8.9-.35-.87.16-1.75.28-2.63.32-1.53.07-2.95-.31-4.31-1.09-.94-.55-2.02-.85-3.04-1.27-.96-.41-1.82-.14-2.63.39-.63.41-1.23.87-1.83,1.31-1.2.89-2.52,1-3.91.57-.59-.18-1.19-.38-1.73-.67-1.84-.98-3.68-.81-5.49,0-.92.42-1.73,1.07-2.63,1.54-.69.36-1.43.69-2.19.85-.71.15-1.41-.07-1.77-1.11ZM132.56,94.44c-.08-.11-.14-.24-.24-.3-.23-.13-.47-.25-.73-.32-1.85-.53-3.72-.76-5.64-.49-1.01.14-2,.39-3.01.47-1.88.15-3.71.04-5.26-1.25-1.22-1.02-2.69-1.28-4.23-1.19-.44.02-.87.22-1.3.33.22.31.41.39.61.39,1.59.05,3.08.55,4.37,1.4,2.09,1.38,4.28,1.4,6.63,1.03,1.74-.28,3.51-.44,5.27-.48,1.17-.03,2.34.26,3.54.41ZM110.55,92.94c-.36.2-.74.37-1.08.61-1.05.74-2.15.69-3.28.27-.37-.14-.74-.3-1.09-.48-1.58-.8-3.22-.83-4.89-.36-.24.07-.45.24-.67.37.47.11.86.07,1.25.02,1.17-.16,2.28,0,3.34.55.39.2.81.35,1.21.53,2.13.95,3.82.23,5.21-1.51Z"/>
      <path d="M70.09,121.14c-.66.44-1.44.05-2.18-.07-.38-.06-.42-.64-.07-.82.3-.15.65-.2,1.03-.3.16-1.39.2-2.74-.16-4.09-.25-.94-.94-1.44-1.83-1.33-.98.13-1.9,1.04-1.87,1.89.05,1.23.13,2.47.21,3.82.1.05.31.12.46.26.14.13.31.37.27.51-.04.16-.31.36-.47.36-.73,0-1.48-.05-2.11-.54,1.46-1.81.69-3.72.49-5.58-.02-.17-.25-.38-.43-.46-1.02-.47-2.71.56-2.77,1.69-.03.66,0,1.33,0,1.99.01.87-.1,1.78.81,2.35-.94.62-2.14.53-2.92-.25.43-.16.81-.3,1.21-.45v-4.88c-.42-.19-.79-.36-1.2-.55,1.29-.97,1.43-.98,2.14-.29.8-.23,1.54-.5,2.29-.64.84-.16,1.36.44,1.84,1.02.41-.32.73-.63,1.1-.85,1.48-.87,3.29-.16,3.68,1.5.22.94.26,1.92.34,2.89.07.9.09,1.81.14,2.83Z"/>
      <path d="M79.6,120.51c-.77,1.25-1.21,1.25-2.19.28-.96.12-1.81.31-2.66.32-.99.01-1.65-.59-1.98-1.49-.31-.85,0-1.64.85-2.31,1.03-.8,2.2-1.04,3.5-.69.14-.75-.1-1.26-.5-1.68-.61-.64-1.55-.53-1.94.23-.23.45-.48.85-.98.51-.46-.31-.25-.78.02-1.17.95-1.34,3.05-1.31,3.93.13.31.51.48,1.14.57,1.74.11.69.09,1.41.07,2.12-.03.94.04,1.79,1.3,2.02ZM74.96,120.13c.39,0,.52,0,.65,0,.63-.03,1.16-.35,1.29-.93.11-.47.1-1.24-.18-1.46-.36-.28-1.06-.22-1.58-.13-.4.07-.8.37-1.11.66-.59.55-.44,1.41.28,1.73.27.12.59.12.65.13Z"/>
      <path d="M110.79,117.45h-5.36c-.16,1.55.2,2.24,1.36,2.85,1.16.6,1.8.51,2.87-.41.1-.09.18-.24.29-.26.23-.04.47-.01.71-.02,0,.2.06.44-.02.61-.49,1-2.04,1.74-3.18,1.41-1.51-.44-2.79-1.23-3.07-2.95-.27-1.69.17-3.17,1.59-4.24,1.39-1.05,3.36-.67,4.27.82.36.58.87,1.15.54,2.19ZM109.76,116.55c-.58-1.35-1.21-1.81-2.21-1.75-.89.05-1.54.67-1.81,1.75h4.02Z"/>
      <path d="M96.93,121.03q-1.21.21-1.95-.22c0-.09-.02-.23.02-.25.73-.34.93-.93.95-1.69.03-1.23.13-2.46.21-3.71-.52-.17-.94-.31-1.36-.45.74-.4,1.34-1.12,2.24-.57.12.08.4-.08.59-.14.29-.09.58-.22.88-.29,1.12-.3,1.71-.05,2,1.07.28,1.06.38,2.17.49,3.27.07.74.01,1.5.01,2.33.26.17.57.36.92.58-1.17.72-1.41.73-2.25.23.64-2.24.45-4.41-.22-6.55-1.78.03-2.37.58-2.48,2.17-.03.49-.1.97-.1,1.46,0,.9.03,1.8.05,2.78Z"/>
      <path d="M142.85,117.21c.03-1.21.44-2.43,1.78-3.12.35-.18.74-.3,1.13-.34,1.39-.13,3.62,1.59,3.94,3.01.37,1.63-.7,3.6-2.29,4.2-2.16.82-4.58-1.07-4.56-3.76ZM143.78,117.34c.03.31.03.62.1.92.36,1.5,2.34,2.38,3.59,1.61,1.53-.95,1.71-2.97.34-4.14-.3-.26-.66-.44-.98-.67-.8-.54-1.25-.54-2.02-.03-.84.56-1.04,1.38-1.04,2.31Z"/>
      <path d="M126.22,118.76c.34,1.43.97,1.91,2.05,1.64.66-.17.88-.51.7-1.17-.18-.65-.61-1.07-1.23-1.29-.33-.12-.68-.17-1.02-.28-1.14-.36-1.57-.9-1.5-1.87.07-1.04.77-1.86,1.79-2,1.02-.14,1.91.24,2.75.77.34.21.46.61.13.89-.15.13-.67.09-.77-.05-.41-.59-1.02-.69-1.63-.76-.72-.08-1.24.31-1.39.95-.14.6.1.89.95,1.15.25.08.54.08.77.19.47.23.97.45,1.35.79.84.75,1.11,2.04.67,2.75-.5.8-1.8,1.22-2.85.82-.48-.18-.95-.48-1.34-.83-.65-.59-.45-1.17.58-1.7Z"/>
      <path class="cls-1" d="M125.04,83.46c-.07,2.7-2.44,4.99-5.1,4.92-2.52-.06-4.47-2.1-4.36-4.57.11-2.73,2.44-4.95,5.13-4.9,2.54.04,4.4,2,4.34,4.55ZM116.18,83.95c.01,2.21,1.66,3.84,3.87,3.8,2.38-.04,4.39-2.03,4.41-4.39.02-2.14-1.73-3.92-3.84-3.91-2.41,0-4.46,2.08-4.44,4.5Z"/>
      <path d="M115.69,120.83c-1.06.67-1.35.67-2.38,0,.93-.6.76-1.55.78-2.43.02-.97,0-1.93,0-2.92-.43-.17-.81-.31-1.19-.46-.01-.09-.03-.18-.04-.26.56-.24,1.13-.47,1.74-.73.22.25.42.47.53.6.87-.38,1.64-.81,2.47-1.05.9-.26,1.87.7,1.69,1.63-.05.24-.34.56-.56.61-.21.04-.54-.19-.71-.39-.16-.18-.17-.48-.28-.82-1.03.14-1.75.76-2.43,1.44-.09.09-.18.22-.18.34-.03,1.19-.09,2.38-.04,3.57.01.28.36.55.61.89Z"/>
      <path d="M86.08,114.74c-1.65.16-2.37.7-2.49,2.13-.12,1.38,0,2.78,0,4.26-.82.45-.84.45-1.75-.15.99-.44.87-1.32.89-2.12.03-1.23,0-2.47,0-3.65-.52-.22-.9-.39-1.39-.59.56-.78,1.35-.59,2.07-.9.03.41.05.7.08,1.03.13-.02.25-.03.36-.07.77-.3,1.51-.74,2.31-.89.99-.18,1.73.57,1.66,1.56-.02.26-.23.68-.41.71-.28.05-.7-.08-.9-.29-.23-.23-.28-.62-.44-1.02Z"/>
      <path d="M153.89,114.61c-.35,2.89-.21,4.7.42,5.88-.9.78-1.31.81-2.33.08.32-.24.6-.46.92-.69v-5.29c-.42-.26-.83-.51-1.52-.93.69-.19,1.05-.28,1.44-.39.03-.09.09-.21.11-.33.08-.39.11-.79.24-1.16.23-.63.71-1.01,1.4-1.05.66-.04,1.07.39,1.39.87.1.15-.02.46-.04.7-.24-.02-.49-.01-.73-.08-.08-.02-.1-.24-.17-.34-.35-.43-.8-.44-1,.05-.17.43-.18.92-.24,1.28.44.52,1.33.24,1.3,1.21-.37.06-.74.12-1.2.19Z"/>
      <path d="M157.41,113.82c.56-.65.98-1.14,1.47-1.7.34.6.54,1.33,1.55,1.54-.51.35-.81.56-1.15.79-.06,1.49-.15,3.03-.19,4.57-.04,1.2.09,1.3,1.38,1.22.13,0,.26,0,.38.05.07.02.12.12.23.23-.16.65-.65.83-1.26.79-.83-.06-1.47-.51-1.59-1.16-.07-.38-.06-.79-.05-1.18.02-1.1.06-2.2.08-3.3.01-.77.33-1.65-.85-1.84Z"/>
      <path d="M139.56,121.27c-.53.24-1.13.3-1.6.01.12-.96.28-1.78.32-2.62.08-1.9.09-3.8.15-5.7.02-.72.1-1.43-1.16-1.71.69-.37,1.08-.57,1.44-.77.69.47.59,1.07.58,1.63-.04,2.39-.13,4.77-.14,7.16,0,.6.24,1.2.41,2Z"/>
      <path d="M115.89,133.75c-4.46.16-8.91.32-13.39.49.02-.18.02-.22.03-.26.01-.04.03-.1.05-.11,3.29-.22,6.58-.47,9.87-.65.96-.05,1.93.06,2.9.11.2.01.39.13.59.19l-.05.22Z"/>
      <path d="M91.59,113.93c0,1.34-.06,2.46.02,3.58.07,1.03-.48,2.22.72,3.06-.69.76-1.39.58-2.14.28,1.11-1.78.39-3.69.73-5.52-.38-.17-.68-.31-1.01-.46.07-.16.09-.34.17-.37.4-.18.81-.31,1.52-.58Z"/>
      <path d="M111.67,130.13c-.36-.33-.73-.64-1.05-.99-.32-.35-.6-.75-1.03-1.31-.11.88-.21,1.63-.3,2.37-.54-.79-.59-1.58-.38-3.7,1.38.2,1.35,1.87,2.54,2.42.19-.96.35-1.82.56-2.87.49.9.24,3.2-.33,4.08Z"/>
      <path d="M117.29,128.77c-.34-.12-.69-.24-1.13-.39.41-.62.95-.55,1.31-.34.26.15.46.63.47.97.02.57-.33.99-.89,1.18-.75.26-2.11-.17-2.51-.8-.41-.65-.34-1.95.26-2.47.44-.38,1.03-.7,1.6-.82.58-.12,1.11.16,1.17.88-.6-.07-1.17-.26-1.69-.15-.35.08-.72.52-.9.89-.39.81.02,1.57.9,1.85.83.27,1.13.1,1.41-.81Z"/>
      <path d="M140.87,126.44c.73.78,1.39,1.47,2.2,2.34.13-.89.23-1.56.34-2.33.68.49.37,1.1.4,1.6.03.55-.03,1.11-.06,1.81-1.14-.39-1.58-1.32-2.47-1.97-.05.46-.07.82-.14,1.17-.07.35-.19.69-.36,1.26-.51-1.29-.44-3.09.08-3.88Z"/>
      <path d="M146.29,126.26c2.17.33,3,1.1,2.73,2.44-.25,1.26-1.31,1.76-3.03,1.34-.06-1.22-.12-2.46.3-3.78ZM146.76,126.95c-.06.93-.11,1.77-.17,2.6,1.11.13,1.65-.17,1.81-.9.18-.85-.21-1.32-1.64-1.7Z"/>
      <path d="M102.82,128.91c.42.51.76.93,1.09,1.34-.08.08-.16.16-.23.24-.54-.39-1.08-.77-1.7-1.22-.21.44-.38.8-.54,1.15-.09-.01-.18-.03-.28-.04-.13-1.22-.14-2.45.06-3.79.74-.02,1.51-.55,2.07.28.5.75.19,1.43-.47,2.04ZM101.76,128.84c.52-.4.83-.56,1.02-.82.12-.17.12-.5.05-.72-.05-.14-.36-.3-.51-.26-.21.06-.48.26-.54.45-.09.31-.02.67-.02,1.35Z"/>
      <path d="M136.68,126.18c.85,1.04,1.57,3.25,1.48,4.2-1.18-1.19-1.64-1.05-3.39-.15.55-1.48,1.28-2.64,1.91-4.05ZM136.05,128.94c.53-.06.84-.09,1.26-.13-.17-.47-.29-.8-.47-1.31-.27.5-.45.83-.79,1.44Z"/>
      <path d="M96.34,126.56c1.72-.17,2.2.01,2.34.85.15.87-.4,1.48-1.74,1.94-.11.32-.22.62-.32.9-.52-.05-.66-2.5-.29-3.69ZM96.91,128.56c.91-.18,1.36-.59,1.16-1.08-.09-.21-.44-.44-.67-.44-.57,0-.68.35-.49,1.52Z"/>
      <path d="M75.77,126.17c.9,1.4,1.64,2.48,1.95,4.08-1.07-.85-2.04-1.21-3.25-.51.39-1.08.79-2.16,1.3-3.57ZM75.32,128.89c.59.04.98.07,1.6.11-.4-.65-.64-1.04-.97-1.57-.22.51-.37.87-.63,1.46Z"/>
      <path d="M91.56,129.01c.38.19.76.38,1.16.57.32-.58.22-.92-.12-1.21-.13-.11-.31-.18-.44-.3-.47-.43-.56-1.09-.21-1.53.34-.43.67-.38,1.48.3h-.99c-.33.59.03.79.39.99.53.29.68.8.7,1.34.02.59-.43.96-1.04.94-.71-.02-.98-.34-.94-1.12Z"/>
      <path d="M126.26,129.77c.5-.07.91-.12,1.35-.18.2-.55.03-.93-.43-1.24-.22-.15-.45-.29-.61-.49-.37-.47-.37-1.16,0-1.45.51-.38.96-.24,1.51.36-.48.06-.81.1-1.39.17.34.39.54.63.75.86.23.25.54.46.7.75.25.47.41,1.01-.07,1.46-.41.38-1.05.31-1.81-.25Z"/>
      <path d="M123.65,125.88c.44,1.53.31,3.78-.2,4.46-.45-1.22-.38-3.61.2-4.46Z"/>
      <path d="M130.99,130.13c-.29-1.68-.21-3.08.36-4v3.38c.7.16,1.22.28,1.93.44-.9.71-1.57.17-2.29.18Z"/>
      <path d="M84.93,130.09v-3.2c-.45-.1-.77-.18-1.09-.25,0-.53,1.1-.59,2.27-.17-.72.56-.7.56-.73,1.54-.02.7.14,1.44-.18,2.09h-.28Z"/>
      <path d="M70.02,129.2c.32.2.48.37.64.37.23,0,.55-.05.67-.2.12-.15.11-.5.02-.69-.16-.3-.47-.52-.67-.81-.29-.44-.33-.94.06-1.33.46-.46.93-.36,1.49.29-.34-.03-.5-.05-.66-.05-.6,0-.84.32-.53.79.24.37.59.66.81,1.03.3.53.05,1.13-.52,1.44-.53.29-.81.14-1.3-.84Z"/>
      <path d="M80.59,129.6c.56.17,1.03.31,1.78.53-.93.4-1.52-.07-2.23.08v-3.73c.67.5.41,1.06.44,1.53.04.52,0,1.05,0,1.59Z"/>
      <path d="M122.36,113.28c-.33-.54-.58-.93-.8-1.34-.19-.36-.14-.71.26-.87.43-.18.82-.03.94.43.15.58.19,1.19-.4,1.79Z"/>
      <path d="M106.37,126.12c.39,1.47.33,2.7,0,4.15-.37-.78-.35-2.91,0-4.15Z"/>
      <path d="M91.22,112.96c-.58-.43-.86-.86-.41-1.36.15-.16.78-.19.87-.05.36.52.05.95-.46,1.42Z"/>
      <path class="cls-3" d="M85.93,95.56c.48.17.99.28,1.44.51,1.02.52,2.05,1.05,3.02,1.67,1.25.81,2.6.98,3.94.55,1.59-.51,3.17-1.13,4.65-1.9,2.33-1.21,4.58-1.11,6.87.02.24.12.47.25.7.38,1.47.81,2.93.9,4.4,0,.49-.3,1-.57,1.51-.83,1.74-.87,4.77-1.1,6.56.76.24.25.55.45.82.67,1.2.97,2.5,1.16,3.81.34,1.67-1.05,3.48-1.24,5.36-1.11.55.04,1.09.21,1.58.55-.24-.05-.48-.12-.72-.15-1.13-.14-2.18,0-3.13.74-.91.7-1.86,1.37-2.85,1.94-1.28.75-2.66,1.03-4.03.19-.44-.27-.81-.67-1.19-1.03-.94-.88-1.89-1.8-3.22-1.98-.67-.09-1.41-.03-2.06.16-1.1.31-2.18.73-3.24,1.18-1.4.6-2.77.6-4.09-.1-2-1.06-3.91-.8-5.83.21-.9.47-1.86.82-2.76,1.31-1.08.59-2.21.58-3.36.39-.87-.14-1.72-.39-2.59-.58-1.2-.27-2.21-.84-3.12-1.67-.8-.74-1.69-1.39-2.53-2.09.01-.05.03-.1.04-.14Z"/>
      <path class="cls-9" d="M132.56,94.44c-1.2-.15-2.37-.43-3.54-.41-1.76.04-3.53.21-5.27.48-2.34.37-4.54.35-6.63-1.03-1.29-.85-2.78-1.36-4.37-1.4-.2,0-.39-.08-.61-.39.43-.12.87-.31,1.3-.33,1.54-.08,3.01.18,4.23,1.19,1.56,1.29,3.39,1.41,5.26,1.25,1.01-.08,2.01-.33,3.01-.47,1.91-.27,3.79-.04,5.64.49.25.07.5.19.73.32.1.05.15.19.24.3Z"/>
      <path class="cls-9" d="M110.55,92.94c-1.4,1.74-3.09,2.46-5.21,1.51-.4-.18-.82-.32-1.21-.53-1.06-.55-2.17-.72-3.34-.55-.39.05-.78.09-1.25-.02.22-.13.43-.3.67-.37,1.67-.47,3.31-.44,4.89.36.35.18.72.34,1.09.48,1.13.42,2.23.47,3.28-.27.33-.24.72-.41,1.08-.61Z"/>
      <path class="cls-1" d="M116.18,83.95c-.01-2.41,2.04-4.49,4.44-4.5,2.11,0,3.86,1.77,3.84,3.91-.02,2.36-2.03,4.35-4.41,4.39-2.21.03-3.86-1.59-3.87-3.8Z"/>
      <text class="cls-2" transform="translate(80.77 140.85)"><tspan x="0" y="0">vacation rentals</tspan></text>
    </g>
  </g>
</svg>