<?xml version="1.0" encoding="UTF-8"?>
<svg id="Layer_1" data-name="Layer 1" xmlns="http://www.w3.org/2000/svg" xmlns:xlink="http://www.w3.org/1999/xlink" viewBox="0 0 180 200">
  <defs>
    <style>
      .cls-1 {
        fill: #296fb7;
      }

      .cls-2 {
        fill: url(#linear-gradient-4);
      }

      .cls-3 {
        fill: url(#linear-gradient-3);
      }

      .cls-4 {
        fill: url(#linear-gradient-2);
      }

      .cls-5 {
        fill: url(#linear-gradient);
      }

      .cls-6 {
        fill: #231f20;
      }

      .cls-6, .cls-7 {
        fill-rule: evenodd;
      }

      .cls-8 {
        font-family: AmericanTypewriter-Bold, 'American Typewriter';
        font-size: 20.52px;
        font-weight: 700;
      }

      .cls-8, .cls-9 {
        fill: #fff;
      }

      .cls-7 {
        fill: #ed2d2c;
      }
    </style>
    <linearGradient id="linear-gradient" x1="101.94" y1="82.94" x2="136.06" y2="82.94" gradientUnits="userSpaceOnUse">
      <stop offset="0" stop-color="#fff"/>
      <stop offset=".25" stop-color="#e2d3dd"/>
      <stop offset=".47" stop-color="#e7ddbb"/>
      <stop offset=".75" stop-color="#d1e0e6"/>
    </linearGradient>
    <linearGradient id="linear-gradient-2" x1="140.45" y1="84" x2="173.38" y2="84" xlink:href="#linear-gradient"/>
    <linearGradient id="linear-gradient-3" x1="140.07" y1="72.7" x2="174.08" y2="72.7" xlink:href="#linear-gradient"/>
    <linearGradient id="linear-gradient-4" x1="102.52" y1="72.78" x2="137.57" y2="72.78" xlink:href="#linear-gradient"/>
  </defs>
  <g>
    <polygon class="cls-9" points="176.2 135.45 168.37 135.39 160.47 135.54 152.58 135.58 144.68 135.48 136.79 135.25 128.89 135.74 120.99 135.78 113.1 135.73 105.2 135.78 97.31 135.66 89.41 135.73 81.51 135.41 73.61 135.81 65.72 135.25 57.81 135.75 50.03 135.38 49.94 127.72 49.85 119.94 50.09 112.16 50.16 104.37 49.91 96.59 49.71 88.8 50.06 81.01 49.91 73.22 49.93 65.43 49.95 57.68 57.8 57.7 65.7 57.85 73.6 57.36 81.49 57.62 89.39 57.64 97.28 57.92 105.18 57.35 113.08 57.95 120.97 57.43 128.87 57.79 136.76 57.52 144.66 57.84 152.56 57.93 160.45 57.52 168.36 57.75 176.12 57.79 175.95 65.43 176.3 73.21 175.98 80.99 176.12 88.78 176.52 96.56 176.54 104.35 176.03 112.14 176.19 119.92 176.27 127.71 176.2 135.45"/>
    <path d="M135.16,72.89c.11-.76.18-1.28.27-1.94-.56.28-.94.51-1.35.68-.85.35-1.45.17-1.74-.68-.39-1.16-.61-2.38-.93-3.63.77.05.74.52.83.89.19.78.35,1.58.57,2.35.17.6.63.77,1.16.5.71-.36,1.39-.78,2.2-1.24-.97-1.02-1.86-1.95-2.72-2.86.56-1.33,2.15-2.97,3.37-3.29-.92.98-1.84,1.96-2.88,3.08.63.65,1.19,1.23,1.75,1.81.08-.07.16-.14.25-.2-.1-.15-.21-.3-.31-.45-.55-.8-.48-1.42.32-1.92.43-.27.71-.56.95-1.03.52-1,1.56-1.1,2.52-.41.46.33.95.64,1.47.87.92.41,1.01,1.27,1.22,2.19.4-.24.73-.43,1.16-.68-.85-1.12-1.64-2.16-2.54-3.35,1.01.21,2.71,2.24,3.18,3.64-1.05.68-2.14,1.38-3.25,2.09.25,1.16,1.38,1.32,2.06,1.94.74.01,1.04-.47,1.27-1.03.47-1.1.94-2.2,1.43-3.34q.32.72-.08,1.68c-.24.58-.48,1.15-.78,1.86,1.13-.17,2.12-.41,3.12-.44,2.11-.07,4.22,0,6.32-.03.89-.01,1.79-.11,2.67-.24,2-.28,3.99-.57,5.98-.91,1.24-.21,2.49-.38,3.68-.77,2.44-.79,4.78-.29,7.16.26,1.14.26,1.17,1.22.5,1.79-.91.78-1.93,1.43-2.94,2.08-.37.24-.86.29-1.24.52-.53.32-1.2.61-1.49,1.1-.73,1.25-1.89,1.71-3.12,2.16-.34.13-.78.38-.87.67-.18.6-.61.81-1.08.85-1.42.11-2.85.17-4.28.2-1.38.03-2.76.03-4.14.01-1.12-.01-2.25.06-3.34-.13-2.17-.37-4.3-.86-6.54-.55-1.11.16-2.22-.12-3.21-.99-.19.52-.34.92-.53,1.43.75.04,1.38.02,1.98.12,1.32.23,2.66.44,3.94.81,1.91.56,3.85.81,5.83.96,2.95.22,5.9.52,8.85.71,2.42.16,4.84.16,7.26.33,1.15.08,2.32.29,3.44.59,1.37.36,1.62,1,1.09,2.32-.1.25-.2.53-.38.71-1.37,1.35-2.7,2.74-4.7,3.16-.61.13-1.21.35-1.8.55-1.36.45-2.67,1.04-4.17.93-.38-.03-.78.17-1.18.26-2.13.5-4.24,1.15-6.4,1.46-2.54.36-5.1.13-7.64-.31-2.07-.36-3.79-1.34-5.3-2.73-1.82-1.68-2.17-3.72-1.46-6.01.21-.67.61-1.32-.11-2.17-.2.57-.38,1-.49,1.45-.43,1.84-.64,3.67-.54,5.58.25,5.02.45,10.03.2,15.07-.17,3.31.08,6.63.11,9.95.03,2.68,0,5.37,0,8.12-1.14-.03-.45-1.04-.89-1.38-.31.13-.62.26-.96.4-.04.47-.08.94-.12,1.48-.71-.11-.66-.61-.66-1.02.01-1.66-.07-3.34.12-4.98.36-3.09.36-6.17.33-9.27-.02-2.5,0-5.01-.02-7.52,0-.67-.06-1.35-.2-2.01-.45-2.14-.3-4.28-.14-6.43.07-1.01-.05-2.04-.04-3.06.02-1.65-.54-3.28-.06-4.94.16-.55.09-1.07-.53-1.4-.61.32-.89.84-.88,1.51.02,1-.25,2.04.68,2.88.43.39.19.99-.09,1.5-.27.5-.45,1.06-.72,1.56-.23.42-.45.95-.82,1.16-.93.52-1.91,1.11-2.93,1.25-3.11.43-6.26.52-9.4.16-.31-.04-.63-.05-.94-.04-2.67.09-5.27-.41-7.88-.86-2.03-.35-4.08-.58-6.03-1.35-.69-.27-1.3-.56-1.73-1.18-.66-.95-1.54-1.48-2.75-1.35-.26.03-.54-.03-.79-.11-.79-.25-1.01-.86-.39-1.41.9-.79,1.87-1.59,2.94-2.08,3.24-1.47,6.59-2.61,10.2-2.77.71-.03,1.42-.21,2.17-.5-.47-.11-.93-.25-1.4-.32-2.28-.35-4.41-1.19-6.52-2.09-1.14-.49-2.06-1.27-2.84-2.2-.35-.41-.71-.61-1.24-.68-1.58-.21-1.75-.67-.77-1.95.05-.07.07-.16.1-.25-1.02-.51-2.34-.29-3.28-1.39.33-.15.57-.3.83-.38,3.35-1.06,6.72-.85,10.11-.22,1.23.23,2.49.41,3.73.41,2.9-.01,5.71.46,8.5,1.22,1.12.31,2.27.52,3.39.85,1.59.47,3.16,1,4.73,1.5.8.26,1.6.53,2.55.85ZM138.19,95.29l-.04-.04c0,.36-.02.71-.02,1.07,0,1.17,0,2.33-.01,3.5-.01,1.12-.05,2.23-.07,3.35-.05,3.09-.07,6.17-.14,9.26-.03,1.29-.16,2.58-.25,4.04.61-.12,1.06-.21,1.59-.31,0-.54.02-.99,0-1.43-.07-1.84-.19-3.67-.23-5.51-.04-2.15-.03-4.31,0-6.46.05-4.17.4-8.33.02-12.5-.2-2.13-.21-4.28-.3-6.46-1.08.28-1.22.41-.98,1.4.31,1.26.21,2.49.07,3.74-.11,1.02-.23,2.06-.16,3.08.07,1.1.35,2.19.54,3.28ZM101.94,83.7c.56.12.9.28,1.23.24,1.37-.14,2.27.54,3.11,1.51.38.44.97.74,1.52.99,1.9.87,3.98,1.01,6.01,1.37,2.56.45,5.12.91,7.73.85.4,0,.8.03,1.21.07,3,.25,6.01.26,8.98-.2,1.63-.25,3.29-.76,3.59-2.85.04-.28.31-.54.49-.79.33-.45.35-.84-.03-1.33-.77-.97-.91-3.22-.16-4.14.67-.82.47-1.52.11-2.45-1.12.85-2.4.72-3.62.92-3.39.54-6.77.59-10.18.23-.89-.09-1.79-.15-2.68-.08-1.52.11-3.02.4-4.54.49-3.46.21-6.65,1.36-9.77,2.75-1.09.49-2.12,1.14-3,2.41ZM140.45,78.08c1.22,1.22,1,2.42.57,3.8-.59,1.86-.13,3.63,1.38,5.01,1.45,1.33,3.07,2.27,5.05,2.61,2.45.42,4.91.67,7.36.33,2.2-.31,4.35-.96,6.53-1.45.44-.1.89-.28,1.31-.23,1.07.11,2.03-.24,3.01-.57.85-.29,1.68-.68,2.55-.84,1.93-.36,3.26-1.63,4.51-2.95,1.14-1.21.81-2.15-.81-2.44-1.67-.3-3.37-.56-5.06-.57-5.12-.04-10.2-.56-15.28-1.01-1.72-.15-3.41-.68-5.1-1.08-1.91-.45-3.82-.79-6-.6ZM140.07,73.97c.65.45,1.35.74,1.76,1.26.94,1.18,2.15,1.4,3.49,1.24,1.73-.21,3.4.02,5.06.42,1.4.34,2.83.62,4.26.34,1.63-.32,3.21-.06,4.81.05,1.11.08,2.23-.02,3.34-.12.35-.03.92-.3.97-.55.16-.81.77-.87,1.34-1.13.84-.39,1.85-.72,2.38-1.39.79-1.02,1.73-1.61,2.85-2.13,1.04-.49,2.02-1.14,2.97-1.79.33-.22.52-.66.78-1.02-.23-.18-.32-.3-.43-.33-2.34-.67-4.69-1.14-7.13-.39-1.15.35-2.35.55-3.54.75-1.46.24-2.96.26-4.39.61-2.21.53-4.41.63-6.67.6-2.05-.03-4.14.04-6.15.39-2.13.37-4.05,1.38-5.69,3.18ZM102.52,68.53c.91.98,2.27.52,3,1.55-.43.46-.81.85-1.39,1.46.7.11,1.1.12,1.45.25.4.15.86.32,1.12.64.97,1.17,2.17,1.96,3.56,2.54,2.16.89,4.39,1.57,6.7,1.92,2.08.32,4.14.71,6.27.58,2.19-.14,4.4-.21,6.58-.08,2.59.15,4.94-.67,7.33-1.41.15-.05.27-.21.42-.34-.23-1.07-.95-1.63-1.87-1.95-2.49-.87-4.98-1.76-7.49-2.56-1.32-.42-2.7-.66-4.04-1.02-2.65-.71-5.33-1.19-8.09-1.17-1.03,0-2.09.02-3.07-.24-2.42-.64-4.88-.68-7.34-.6-1.05.03-2.1.28-3.15.43ZM139.77,68.94c.39-.34.67-.56.93-.8.4-.36.85-.71.65-1.36-.18-.57-.56-.87-1.16-.98-.27-.05-.65-.21-.72-.41-.23-.65-.73-.77-1.26-.75-.76.03-.82.67-.83,1.22-.44.2-.83.32-1.17.53-.45.28-.55.64-.2,1.12.47.65.88,1.35,1.33,2.05-1.04,1-1.72,2.06-1.49,3.5.46.31,1,.52,1.33.92.41.49.88,1.13.88,1.7,0,.44-.67.89-1.24,1.55-.47,1.15,1.12,1.96,1.09,3.3h1.37v-2.96c1.39-.21,1.6-1.12,1.56-2.1-.47-.53-.88-.99-1.33-1.48.29-.34.51-.62.75-.87.99-1.01,1.04-1.45.32-2.7-.27-.46-.51-.93-.82-1.48ZM138.92,81.01c-1.59.21-1.71.49-1.1,2.33.98-.2,1.06-.37,1.1-2.33Z"/>
    <path d="M97.71,107.03c.28-.47.56-.98.89-1.45.31-.43.64-.88,1.04-1.22,1.05-.91,2.39-.5,2.7.84.09.38,0,.98-.26,1.2-.25.22-.82.15-1.22.07-.28-.06-.51-.34-.83-.57-.2.23-.41.45-.58.69-.19.25-.34.52-.52.8.55.66,1.08,1.3,1.62,1.94,1.41,1.67.87,5.08-1.19,6.28-1.07.63-2.14,1.12-3.41,1.02-.58-.04-1.16,0-1.91,0-.21.37-.49.86-.86,1.5,1.05-.07,1.92-.15,2.79-.18.72-.03,1.44-.02,2.15,0,1.19.04,2,.61,2.25,1.57.24.88-.29,1.8-1.37,2.37-.16.08-.33.15-.49.21-2,.8-2.98.44-3.94-1.47-.16-.32-.3-.65-.49-1.05-.38-.02-.77-.06-1.17-.07-1.48-.05-1.7-.4-1.04-1.68.33-.63.65-1.27.97-1.88-2.4-2.29-2.75-4.02-1.5-6.38,1.21-2.31,2.98-3.15,6.38-2.54ZM95.79,115.38s0-.03,0-.05c.31,0,.64.05.94,0,1.32-.28,2.5-.84,3.04-2.16.52-1.29.29-2.51-.65-3.61-1.01-1.18-2.31-1.47-3.74-1.4-1.81.1-3.23,1.64-3.38,3.57-.13,1.61,1.12,3.17,2.86,3.54.3.07.62.08.93.11ZM95.61,119.26c0,.26-.03.4,0,.52.05.17.13.33.21.48.53.96.88,1.09,1.95.71.25-.09.54-.16.71-.33.23-.22.54-.57.5-.81-.04-.23-.48-.52-.77-.54-.87-.07-1.74-.03-2.61-.03Z"/>
    <path d="M56.69,118.13c.37-1.86.62-11.72.34-13.79-.2-.07-.47-.1-.67-.24-.23-.16-.41-.41-.61-.62.25-.21.5-.58.76-.59,1.2-.02,2.45-.11,3.6.16,1.69.4,3.38.93,4.94,1.69,2.2,1.07,3.44,3.01,3.68,5.43.36,3.58-1.45,6.18-4.13,8.24-1.09.84-2.48,1.01-3.83,1.07-1.47.07-2.95.04-4.43.06-.18,0-.39.04-.53-.04-.21-.12-.49-.32-.51-.51-.02-.18.21-.48.4-.58.3-.16.67-.2.99-.28ZM58.25,117.98c1.67.37,3.49.29,4.84-.25.49-.2.99-.46,1.38-.81,1.21-1.09,2.18-2.39,2.73-3.94.96-2.7-.32-6.07-2.77-7.12-1.43-.61-2.94-1.07-4.44-1.53-.47-.15-1.01-.09-1.41-.13-.11,4.68-.21,9.19-.32,13.78Z"/>
    <path d="M87.17,117.81c-.27.25-.55.42-.71.67-1.36,2.16-6.24,1.18-7.34-1.32-.88-1.99.5-5.6,2.5-6.12,1.34-.35,2.61-.56,3.95-.13.24.08.49.13.86.24-.16-1.38-.32-2.61-1.57-3.32-.95-.54-1.81-.38-3.18.57.02.25.08.55.06.84-.04.65-.45,1.1-.96,1.11-.53.01-1.05-.55-1.04-1.19,0-.26.07-.55.21-.76,1.1-1.72,3.68-2.92,5.73-1.6.84.54,1.35,1.28,1.64,2.21.57,1.81.87,3.67.75,5.56-.1,1.55.15,2.94,1.42,4,.31.26.45.67.07.91-.23.15-.73.14-.95-.02-.39-.27-.67-.71-.99-1.08-.14-.16-.28-.33-.46-.56ZM86.78,116.52c0-.62.04-1.25,0-1.87-.11-1.38-.98-2.79-2.7-2.71-.57.02-1.13.19-1.7.25-1.43.15-2.3,2.21-2.19,3.72.08,1.11.97,1.96,2.42,2.3,1.19.28,2.3.32,3.13-.84.22-.31.61-.5,1.04-.85Z"/>
    <path d="M148.68,115.04c.83-2.17,1.66-4.34,2.54-6.65-.04-.04-.22-.15-.34-.31-.38-.5-.3-.85.3-.96.92-.16,1.87-.25,2.8-.31.43-.03.88.17.81.66-.03.22-.49.52-.76.53-.78.04-1.09.52-1.32,1.14-.8,2.14-1.59,4.28-2.4,6.41-.53,1.38-1.04,2.77-1.63,4.13-.55,1.26-1.4,2.3-2.69,2.9-.97.45-1.72.26-2.25-.53-.41-.6-.31-1.34.22-1.67.55-.34.95-.12,1.35.75.03.07.11.11.22.22,1.42-.78,2.1-2.11,2.46-3.62.07-.31-.03-.73-.19-1.03-1.37-2.59-2.33-5.34-3.35-8.07-.05-.12-.13-.23-.21-.38-.39-.04-.8-.03-1.17-.15-.21-.07-.47-.35-.48-.54,0-.19.27-.55.44-.56,1.11-.07,2.23-.1,3.35-.06.2,0,.52.41.53.65,0,.18-.36.41-.6.56-.13.08-.33.06-.67.11.94,2.36,1.84,4.62,2.74,6.89.1-.04.2-.08.3-.11Z"/>
    <path d="M117.72,117.81c.27-3.08.42-6.1.18-9.03-.67-.76-1.96-.16-2.29-1.29,1.15-.79,2.87-.45,3.69.76.45-.27.89-.56,1.36-.8,2.52-1.31,5.09-.11,5.67,2.67.16.79.21,1.6.27,2.4.12,1.65.21,3.31.31,4.94.06.08.1.17.17.22.35.23,1.01.25.81.85-.08.26-.6.46-.94.53-.65.13-1.33.16-1.99.19-.48.02-.94-.15-.94-.72,0-.51.44-.61.87-.64.17-.01.34-.05.61-.09,0-1.04.03-2.06,0-3.07-.05-1.16-.15-2.32-.26-3.48-.05-.49-.14-.99-.31-1.44-.49-1.25-1.63-1.81-2.94-1.49-1.76.43-2.66,1.63-2.69,3.48-.03,1.61-.13,3.22-.18,4.83-.02.53-.06,1.01.56,1.37.47.27.35.93-.2,1.01-1.09.17-2.2.16-3.31.16-.14,0-.43-.43-.39-.6.06-.25.32-.55.55-.63.41-.13.87-.1,1.39-.14Z"/>
    <path d="M113.75,112.42c.15,1.71-.52,3.33-1.37,4.86-.76,1.38-2.09,1.95-3.59,1.99-1.83.04-3.4-.71-4.69-2-.34-.34-.69-.76-.83-1.21-1.1-3.72-.44-7.51,3.76-9.3.79-.33,1.85-.18,2.76-.05,1.85.27,4.16,2.41,3.96,4.91-.02.22,0,.45,0,.79ZM104.13,113.17c.04,1.11-.02,2.26.85,3.15,1.01,1.03,2.24,1.66,3.69,1.67,1.13,0,2.1-.43,2.67-1.49.86-1.61,1.29-3.31,1.17-5.16-.17-2.47-3.46-4.6-5.82-3.01-1.75,1.18-2.68,2.71-2.56,4.84Z"/>
    <path d="M131.23,117.57c-.08-3.12-.16-6.24-.24-9.44-.38-.12-.71-.2-1.03-.32-.31-.12-.61-.28-.94-.43.44-1.08,1.3-.5,2.02-.71.05-.35.15-.73.16-1.12.03-1.1.64-1.84,1.46-2.44.84-.61,2.09-.54,2.87.12.48.41.6,1.19.24,1.56-.34.35-1.02.32-1.45-.09-.22-.21-.38-.49-.57-.74-1.42.59-1.32,1.78-1.32,3.03.35.1.7.15,1,.31.28.15.68.4.7.63.05.54-.45.56-.86.57-.26,0-.53,0-.96,0,.08,3.08.15,6.11.22,8.97.35.47.87.85.83,1.17-.07.61-.75.49-1.22.54-.44.05-.89.05-1.34.06-.46.01-.98.04-1.1-.52-.13-.58.35-.73.81-.85.21-.06.4-.17.73-.31Z"/>
    <path d="M72.88,108.14c-.09,3.31-.18,6.47-.27,9.58.14.1.21.17.29.19.45.08.96.14.89.76-.05.51-.52.55-.92.59-.62.06-1.25.19-1.86.14-.33-.02-.82-.28-.93-.55-.2-.47.25-.68.66-.81.17-.05.33-.13.57-.22.11-3.16.22-6.33.33-9.49-.54-.17-.94-.25-1.28-.43-.15-.08-.29-.37-.27-.54.02-.17.25-.41.41-.44.53-.09,1.07-.1,1.6-.12,1.34-.06,2.69-.17,4.03-.14,1.38.03,2.38,1.28,2.1,2.55-.06.3-.36.7-.61.76-.24.05-.78-.25-.82-.46-.31-1.49-1.43-1.36-2.51-1.36-.44,0-.88,0-1.41,0Z"/>
    <path d="M100.9,129.91c.33-.13.66-.26,1.16-.46-1.23-.99-2.3-.76-3.49-.74v1.55c-.6,0-1.26.22-1.95-.49,1.27-.07,1.31-.95,1.48-1.78.26-1.32.58-2.62.87-3.93-.22-.25-.44-.49-.7-.78,1.84-.34,2.19-.19,2.69,1.34.43,1.31.78,2.66,1.19,3.98.15.5.39.97.67,1.63-.58.03-1.12.06-1.66.09-.08-.14-.17-.28-.25-.42ZM101.25,128.15c-.35-1.58-.52-2.99-1.54-4.5-.38,1.61-.68,2.91-1.03,4.38.96.05,1.7.08,2.57.13Z"/>
    <path d="M127.78,125.08c.97-.09,1.93-.22,2.9-.24.31,0,.69.22.94.45,1.29,1.17,1.16,3.2-.29,4.14-.58.38-1.29.57-2.01.88v.79h-1.39c.72-.64.67-1.4.64-2.17-.03-.72-.06-1.44.02-2.15.07-.71.02-1.27-1.05-1.31.08-.13.17-.26.25-.38ZM129.27,129.44c1.15-.1,1.39-.19,1.98-.67.83-.69.9-1.68.2-2.75-.46-.71-.98-.76-2.18-.2v3.62Z"/>
    <path d="M122.67,124.97c.96.06,1.93.09,2.88.22.31.04.66.31.86.58,1.12,1.52.47,3.55-1.32,4.15-.37.12-.78.15-1.29.25.1.41.19.77.28,1.17h-1.88c.85-.69.83-.69.89-1.84.05-.94.17-1.87.26-2.81.07-.65,0-1.22-.87-1.41.06-.1.13-.2.19-.31ZM123.94,129.4c2.05-.06,2.87-1.25,2.15-2.95-.25-.59-.67-.76-1.26-.75-.65.01-.84.48-.87.97-.06.87-.02,1.75-.02,2.73Z"/>
    <path d="M118.8,124.89c-1.11,1.35-.72,2.74-.62,4.05.06.73.98.97,1.56.49.1-.08.22-.19.25-.31.41-1.36.8-2.72.09-4.24h1.55c-.63,1.77-.8,3.51-.21,5.49-.48-.15-.88-.37-1.29-.38-.47,0-.95.27-1.41.24-.72-.05-1.16-.62-1.22-1.53-.05-.76.02-1.52-.04-2.28-.04-.43-.23-.86-.41-1.45.49-.02,1.05-.05,1.75-.09Z"/>
    <path d="M113.14,127.72c.03.53.07,1.07.11,1.67,0,0,.04.08.12.11.76.29,1.6.39,2.09-.3.48-.66-.06-1.38-.43-1.98-.22-.36-.64-.6-.98-.89-.3-.26-.65-.49-.9-.8-.37-.45-.43-.99-.15-1.51.28-.52.75-.77,1.34-.69.59.08,1.27.05,1.54.84-.45.41-.85.26-1.22-.02-.39-.29-.75-.31-1.06.07-.37.46-.11.85.23,1.18.22.22.49.4.76.55,1,.56,1.32,1.54,1.62,2.53.05.17.07.36.03.53-.15.7-.63,1.09-1.3,1.19-.85.14-1.73.22-2.35-.58-.38-.48-.27-1.2.22-1.91.11,0,.22,0,.32,0Z"/>
    <path d="M138.46,127.1c0,.6-.06,1.17.01,1.73.13,1.02.79,1.31,1.72.8.32-.17.63-.37,1.14-.68-.45,1.16-1.19,1.62-2.08,1.51-.9-.11-1.19-.37-1.33-1.38-.09-.66-.14-1.33-.11-2,.04-.95.69-1.52,1.47-1.92.6-.3,1.16-.07,1.58.37.32.34.53.79.78,1.19-1.01,1.03-2.11.22-3.18.37ZM138.89,126.48c.7.07,1.21.12,1.81.19-.6-1.2-.92-1.24-1.81-.19Z"/>
    <path d="M144.19,126.1c-.34-.14-.68-.29-1.06-.45-.44.89.16,1.19.76,1.53.99.57,1.26,1.16,1.05,2.08-.15.65-.66,1.05-1.36,1.07-.85.03-1.38-.31-1.54-.99-.03-.12-.02-.28.03-.39.05-.1.17-.17.35-.34.09.21.18.35.2.49.09.5.46.71.87.63.3-.06.67-.29.81-.55.21-.41.14-.89-.29-1.2-.29-.21-.63-.34-.92-.56-.24-.18-.5-.4-.63-.66-.27-.56-.05-1.53.34-1.73.45-.23,1.03.1,1.39,1.08Z"/>
    <path d="M105,130.33c-.67-.06-1.13-.1-1.64-.15.97-1.82.38-3.44.04-5.11,1.9-.49,3.13-.08,3.12,1.16-.64-.18-1.29-.37-1.93-.55-.33,1.1-.14,3.57.4,4.65Z"/>
    <path d="M107.95,129.94c.54-.23.83-.35,1.14-.48.05.16.12.26.1.3-.14.23-.26.48-.46.64-.47.39-.97.27-1.16-.3-.12-.37-.13-.79-.13-1.18,0-.85.07-1.7.05-2.55,0-.36-.18-.72-.31-1.2.19-.34.45-.82.76-1.37.27.53.52,1.04.72,1.43-1.07,1.46-.38,3.06-.7,4.71Z"/>
    <path d="M132.69,123.5c1.34-.4,1.59-.26,1.58.82-.01,1.38-.1,2.76-.13,4.14,0,.47.07.95.11,1.58-.31.07-.69.15-1.01.22.11-1.04.24-1.93.3-2.82.05-.71.02-1.43.07-2.14.06-.75.17-1.5-.93-1.81Z"/>
    <path d="M136.27,125.81c-.34-.24-.65-.45-1.04-.73,1.35-.13,1.67.12,1.57,1.18-.07.8-.22,1.59-.3,2.39-.04.41,0,.83,0,1.41-.34-.02-.78-.05-1.52-.1,1.33-1.31.95-2.8,1.3-4.15Z"/>
    <path d="M135.63,123.9c.17-.18.34-.37.61-.66.12.3.28.6.24.63-.19.16-.45.24-.68.35-.06-.11-.11-.21-.17-.32Z"/>
    <path class="cls-5" d="M101.94,83.7c.88-1.27,1.91-1.93,3-2.41,3.11-1.39,6.3-2.55,9.77-2.75,1.52-.09,3.02-.38,4.54-.49.89-.06,1.79-.01,2.68.08,3.4.36,6.79.31,10.18-.23,1.22-.2,2.5-.07,3.62-.92.37.93.56,1.63-.11,2.45-.75.92-.61,3.17.16,4.14.38.48.36.87.03,1.33-.18.25-.45.51-.49.79-.3,2.09-1.95,2.6-3.59,2.85-2.97.46-5.98.45-8.98.2-.4-.03-.8-.08-1.21-.07-2.62.06-5.18-.4-7.73-.85-2.02-.36-4.1-.5-6.01-1.37-.55-.25-1.14-.55-1.52-.99-.84-.97-1.74-1.65-3.11-1.51-.32.03-.67-.13-1.23-.24ZM113.05,82.22c.51-.18,1.03-.37,1.54-.55-.6-.04-1.23-.18-1.54.55-.94-.09-.82-.8-.85-1.43.89-.16,1.77-.32,2.66-.48,2.3-.25,4.59-.49,6.89-.74,0-.09-.02-.18-.03-.28-2.21.24-4.42.47-6.63.72-.08,0-.14.2-.21.3-1.05-.24-2.07-.21-3.11.3.2.08.32.13.44.18-.05.5-.1.99-.15,1.51.39-.03.69-.06,1-.08ZM127.14,83.17c-.54.45-1.07.9-1.61,1.35-.34.19-.67.37-1.01.56.07.08.13.17.2.25.26-.28.52-.56.79-.84.54-.45,1.07-.9,1.61-1.35.39-.25.78-.5,1.17-.75.44-.19.88-.39,1.33-.57.39-.16.87-.17,1.33-.81-1.22.38-2.29.31-3.06,1.13-.25.34-.5.69-.74,1.03ZM127.39,84.5c-.91.18-1.46.85-2.07,1.42l.16.21c.63-.55,1.26-1.11,1.88-1.66.55.06.94-.12,1.25-.92-.55.43-.89.69-1.23.95ZM125.87,79.47c1.8-.25,3.6-.5,5.4-.75-1.61-.02-3.19.18-4.77.41-.21.03-.4.24-.61.36-1.44-.27-2.77.28-4.14.5.01.09.03.18.04.26,1.36-.26,2.72-.52,4.08-.78ZM121.74,84.78c-.63-.25-.84-.7-.37-1.08.56-.45,1.29-.71,1.95-1.04.06-.03.18.04.23.01.52-.32.99-.76,1.55-.95,1.54-.53,3.11-.95,4.76-1.45-3.45.04-11.85,3.92-12.77,5.84,1.21-.74,2.45-1.5,3.9-2.39-.05.8-.09,1.29-.14,2.04.4-.46.64-.74.88-1.02.5-.19.99-.37,1.49-.56-.63-.09-1.14.06-1.46.59ZM115.34,83.66c6.09-1.9,12.11-3.88,18.45-4.63-2.67-.4-15.06,2.69-18.45,4.63ZM119.73,80.63c-.02-.08-.03-.15-.05-.23-1.06.22-2.13.44-3.19.66.01.07.03.13.04.2,1.07-.21,2.13-.42,3.2-.63ZM112.67,84.31l.1.19c.39-.11.77-.22,1.16-.32-.03-.08-.05-.16-.08-.24-.4.13-.79.25-1.19.38ZM130.39,84.53c-.43.03-.6-.01-.68.05-.09.08-.1.25-.24.65.39-.3.54-.41.92-.7ZM125.6,83.07c-.03-.07-.06-.15-.09-.22-.3.12-.6.24-.91.37.03.07.05.13.08.2.3-.12.61-.23.91-.35ZM128.97,85.62s-.07-.08-.1-.12l-.59.43s.08.1.12.15c.19-.15.38-.3.57-.45Z"/>
    <path class="cls-4" d="M140.45,78.08c2.18-.2,4.09.15,6,.6,1.69.4,3.38.93,5.1,1.08,5.08.45,10.17.97,15.28,1.01,1.69.01,3.39.27,5.06.57,1.62.29,1.96,1.24.81,2.44-1.25,1.31-2.57,2.59-4.51,2.95-.87.16-1.7.55-2.55.84-.97.34-1.93.69-3.01.57-.43-.04-.88.14-1.31.23-2.17.49-4.33,1.14-6.53,1.45-2.44.34-4.91.1-7.36-.33-1.98-.34-3.6-1.29-5.05-2.61-1.51-1.38-1.97-3.14-1.38-5.01.44-1.38.66-2.58-.57-3.8ZM147.32,86.13l.85.78c.06-.09.11-.18.17-.28-.35-.16-.7-.32-1.05-.47-.26-.27-.52-.54-.77-.81-.06.08-.12.15-.18.23.33.18.65.37.98.55ZM149.39,81.13c-.42-.03-.83-.05-1.25-.08,0,.08,0,.16.01.24.42-.06.85-.13,1.27-.19.51.42,2.2.9,3.35.94.31.43,1.08.55.89,1.31-.56-.1-1.13-.14-1.67-.3-.75-.21-1.47-.51-2.2-.77-.03.08-.06.16-.09.24,2.93,1.17,5.98,2.08,8.44,4.19-1.03-1.25-2.31-2.11-3.77-2.71-.46-.19-.45-.2-.7-.67.05-.2.11-.4.2-.73,1.43.59,2.81,1.11,4.14,1.72,1.33.61,2.62,1.31,3.93,1.98-2.65-2.02-5.68-3.2-8.78-4.24-.12-.04-.27,0-.4,0-1.11-.32-2.23-.63-3.36-.94ZM145.99,83.16c-.34-.2-.67-.4-1.01-.6-.04.1-.08.19-.12.29.38.1.77.19,1.15.29.07.1.13.23.23.29,1.9,1.17,3.81,2.34,5.72,3.51.37.22.73.45,1.3.81-.17-.33-.19-.47-.27-.53-1.54-1.07-3.05-2.19-4.64-3.17-.7-.43-1.56-.59-2.35-.87ZM162.73,82.17c-1.72.18-3.15.33-4.58.48l.02.21c2.29-.11,4.57-.23,6.86-.34,0-.03,0-.06,0-.08-.37-.05-.75-.09-1.12-.14v-.15h3.33c-.62-.24-1.27-.38-1.92-.39-2.64-.05-5.29-.05-7.93-.08-.8,0-1.6-.07-2.4-.11,2.46.67,4.97.46,7.74.6ZM167.79,83.89c-2.07-.93-4.21-.96-6.37-.28,2.13-.23,4.25-.37,6.37.28ZM167.69,84.98c-1.16-.56-3.27-.65-4.58-.28,1.45.09,2.91.18,4.58.28ZM170.91,82.41l-.04-.32c-.79.2-1.66-.38-2.59.32h2.62ZM146.63,80.92s0-.08,0-.12c-.24.01-.48.02-.71.03,0,.03,0,.06,0,.09h.71Z"/>
    <path class="cls-3" d="M140.07,73.97c1.65-1.8,3.57-2.81,5.69-3.18,2.01-.35,4.1-.42,6.15-.39,2.25.03,4.46-.07,6.67-.6,1.43-.35,2.93-.37,4.39-.61,1.19-.19,2.39-.39,3.54-.75,2.44-.75,4.78-.28,7.13.39.11.03.21.15.43.33-.26.36-.45.8-.78,1.02-.96.65-1.93,1.3-2.97,1.79-1.11.52-2.06,1.12-2.85,2.13-.52.68-1.54,1-2.38,1.39-.56.26-1.18.32-1.34,1.13-.05.24-.62.51-.97.55-1.11.1-2.23.2-3.34.12-1.61-.11-3.19-.37-4.81-.05-1.43.28-2.85,0-4.26-.34-1.66-.4-3.34-.64-5.06-.42-1.34.16-2.55-.06-3.49-1.24-.41-.52-1.11-.81-1.76-1.26ZM164.49,70.35c.6-.09,1.2-.17,1.81-.26-.6.08-1.31-.48-1.8.26-.46-.03-.93-.06-1.39-.1,0,.07,0,.15,0,.22.46-.04.92-.08,1.38-.12ZM161.29,71.35c-4.08.82-8.01,1.6-11.94,2.39l.06.31c6.21-1.33,12.44-2.58,18.76-3.34-2.18.2-4.37.4-6.55.61-.06-.12-.11-.23-.17-.35.2-.12.4-.24.63-.38-.98-.44-.6.47-.78.77ZM160.22,73.32c0-.07-.01-.14-.02-.21l-4.4.36c0,.08.01.15.02.23,1.46-.13,2.93-.26,4.39-.38ZM145.97,72.71c.28.17.46.27.63.38.05.04.08.12.11.18.04-.89.93-.69,1.34-1.18-.66.19-1.33.39-2.08.61ZM159.66,74.62s0,.1,0,.15c.45-.02.91-.04,1.36-.06,0-.03,0-.06,0-.09h-1.37ZM162.94,74.34s.04.06.06.08h1.08s0-.06,0-.08h-1.14ZM165.87,72.01s0-.05,0-.07h-1.16s0,.09,0,.13l1.16-.06Z"/>
    <path class="cls-2" d="M102.52,68.53c1.05-.15,2.1-.4,3.15-.43,2.46-.08,4.92-.04,7.34.6.98.26,2.05.25,3.07.24,2.76-.02,5.44.47,8.09,1.17,1.34.36,2.72.6,4.04,1.02,2.51.8,5,1.69,7.49,2.56.92.32,1.64.89,1.87,1.95-.15.13-.27.29-.42.34-2.39.74-4.74,1.56-7.33,1.41-2.19-.13-4.39-.05-6.58.08-2.13.13-4.2-.27-6.27-.58-2.31-.35-4.54-1.03-6.7-1.92-1.39-.57-2.59-1.36-3.56-2.54-.26-.31-.72-.49-1.12-.64-.35-.13-.76-.14-1.45-.25.58-.61.96-1.01,1.39-1.46-.72-1.03-2.08-.58-3-1.55ZM122.26,73.66c.88-.04,1.77-.14,2.65-.1,1.82.09,3.63.25,5.44.39-.36-.25-.73-.39-1.12-.42-1.42-.13-2.84-.21-4.26-.34-.65-.06-1.29-.19-1.94-.29.28-.74.81-.96,1.59-.85,1.42.22,2.86.38,4.29.56-.46-.3-.95-.42-1.44-.53-1.07-.25-2.24-.18-3.19-.88-3.39-.6-6.79-.62-10.2-.29.12.11.24.17.36.17,2.72.08,5.44.15,8.16.21.57.01,1.14-.08,1.71-.12-.55.14-1.09.35-1.64.39-1.73.13-3.47.18-5.2.29-.25.02-.48.25-.73.37-.45-.04-.9-.08-1.36-.11,0,.1,0,.19,0,.29l1.34-.19c.33.06.66.11,1,.17-.14.41-.28.83-.42,1.26-.38.16-.78.33-1.17.49,1.4-.13,2.74-.4,4.1-.55.68-.08,1.38.07,2.07.12-.27.36-.54.71-.84,1.11.33-.02.71-.05.93-.06-.05-.45-.09-.77-.12-1.09ZM128.04,74.54c0-.07.02-.14.02-.21h-4.22c.15.17.31.21.48.21,1.24,0,2.48,0,3.72,0ZM112.34,70.14s0-.03,0-.05h-.61s0,.03,0,.05h.6Z"/>
    <path class="cls-1" d="M139.77,68.94c.3.55.55,1.02.82,1.48.72,1.25.67,1.68-.32,2.7-.24.25-.46.53-.75.87.44.5.85.96,1.33,1.48.03.98-.17,1.89-1.56,2.1v2.96h-1.37c.04-1.33-1.55-2.15-1.09-3.3.56-.66,1.24-1.11,1.24-1.55,0-.58-.47-1.21-.88-1.7-.33-.39-.87-.61-1.33-.92-.23-1.44.45-2.51,1.49-3.5-.45-.7-.86-1.4-1.33-2.05-.35-.49-.25-.85.2-1.12.34-.21.73-.33,1.17-.53.01-.55.07-1.19.83-1.22.53-.02,1.03.11,1.26.75.07.2.46.37.72.41.6.1.98.41,1.16.98.2.65-.25.99-.65,1.36-.26.24-.54.46-.93.8ZM136.73,67.11c.86.05,1.69.35,2.17.06.76-.45,1.19-.1,1.78.24-.07-.33-.16-.73-.34-.78-.56-.15-1.16-.16-1.77-.23-.09-.4.23-.97-.54-1.24-.04.45-.07.87-.11,1.27-.41.23-.78.45-1.2.68ZM139.7,76.59c-.26-.62-.47-1.12-.8-1.9-.07,1.2-.19,2.15-1.29,2.6.08.08.16.17.24.25.63-.32,1.26-.65,1.85-.95ZM139.26,70.69c-.02.43-.06.86-.06,1.29,0,1.2-.07,1.3-1.5,1.47.54.31.88.49,1.26.71.69-1.21.69-2.33.3-3.47ZM138.47,70.39q.87-.87.82-2.02c-.28.45-.48.77-.68,1.09-.19-.07-.38-.13-.81-.29.3.54.47.86.67,1.22ZM138.46,72.78l-1.01-1.96c-.19.92.17,1.57,1.01,1.96Z"/>
    <path class="cls-1" d="M138.19,95.29c-.19-1.09-.47-2.18-.54-3.28-.06-1.02.05-2.06.16-3.08.14-1.25.23-2.49-.07-3.74-.24-.99-.1-1.12.98-1.4.09,2.17.1,4.33.3,6.46.39,4.17.03,8.33-.02,12.5-.02,2.15-.03,4.31,0,6.46.03,1.84.15,3.67.23,5.51.02.44,0,.89,0,1.43-.53.1-.98.19-1.59.31.09-1.46.22-2.75.25-4.04.07-3.09.1-6.17.14-9.26.02-1.12.06-2.23.07-3.35.01-1.17,0-2.33.01-3.5,0-.36.01-.71.02-1.07.16.05.31.11.63.22-.14-1.68-.27-3.24-.4-4.8-.09,0-.13-.02-.17-.02-.04,0-.12.03-.12.04.03,1.54.07,3.07.11,4.61ZM138.68,87.55c-.06,0-.12.01-.17.02v1.76c.06,0,.12,0,.17,0v-1.77Z"/>
    <path class="cls-1" d="M138.92,81.01c-.04,1.96-.12,2.13-1.1,2.33-.61-1.84-.49-2.11,1.1-2.33Z"/>
    <path class="cls-9" d="M95.79,115.38c-.31-.04-.63-.05-.93-.11-1.74-.37-2.99-1.92-2.86-3.54.15-1.92,1.57-3.47,3.38-3.57,1.43-.08,2.73.21,3.74,1.4.94,1.11,1.17,2.32.65,3.61-.53,1.32-1.72,1.88-3.04,2.16-.3.06-.62,0-.94,0,0,.02,0,.03,0,.05Z"/>
    <path class="cls-9" d="M95.61,119.26c.87,0,1.75-.05,2.61.03.28.02.72.31.77.54.05.23-.27.58-.5.81-.18.17-.47.24-.71.33-1.07.38-1.41.25-1.95-.71-.09-.15-.17-.32-.21-.48-.03-.12,0-.26,0-.52Z"/>
    <path class="cls-9" d="M58.25,117.98c.11-4.58.21-9.09.32-13.78.41.03.94-.02,1.41.13,1.49.46,3,.92,4.44,1.53,2.45,1.05,3.73,4.42,2.77,7.12-.55,1.55-1.52,2.84-2.73,3.94-.39.35-.89.61-1.38.81-1.35.55-3.17.63-4.84.25Z"/>
    <path class="cls-9" d="M86.78,116.52c-.44.35-.82.54-1.04.85-.83,1.15-1.93,1.12-3.13.84-1.46-.34-2.34-1.19-2.42-2.3-.11-1.51.76-3.56,2.19-3.72.57-.06,1.13-.23,1.7-.25,1.71-.07,2.59,1.33,2.7,2.71.05.62,0,1.25,0,1.87Z"/>
    <path class="cls-9" d="M104.13,113.17c-.12-2.13.81-3.66,2.56-4.84,2.36-1.59,5.66.54,5.82,3.01.12,1.85-.31,3.55-1.17,5.16-.57,1.06-1.54,1.5-2.67,1.49-1.45,0-2.68-.64-3.69-1.67-.87-.89-.81-2.04-.85-3.15Z"/>
    <path class="cls-9" d="M101.25,128.15c-.87-.04-1.61-.08-2.57-.13.34-1.47.65-2.77,1.03-4.38,1.02,1.51,1.2,2.93,1.54,4.5Z"/>
    <path class="cls-9" d="M129.27,129.44v-3.62c1.2-.57,1.71-.51,2.18.2.71,1.07.63,2.05-.2,2.75-.58.49-.83.58-1.98.67Z"/>
    <path class="cls-9" d="M123.94,129.4c0-.98-.04-1.86.02-2.73.03-.49.22-.96.87-.97.59,0,1.01.16,1.26.75.72,1.7-.1,2.89-2.15,2.95Z"/>
    <path class="cls-9" d="M138.89,126.48c.9-1.05,1.21-1.02,1.81.19-.61-.06-1.12-.11-1.81-.19Z"/>
    <path d="M115.34,83.66c3.38-1.94,15.78-5.03,18.45-4.63-6.33.75-12.36,2.73-18.45,4.63Z"/>
    <path d="M121.72,84.75c-.24.28-.48.56-.88,1.02.05-.76.08-1.24.14-2.04-1.45.89-2.69,1.65-3.9,2.39.93-1.92,9.32-5.81,12.77-5.84-1.65.49-3.22.92-4.76,1.45-.56.19-1.03.63-1.55.95-.05.03-.17-.04-.23-.01-.66.33-1.39.58-1.95,1.04-.47.38-.26.83.37,1.08l-.02-.03Z"/>
    <path d="M114.89,80.33c.07-.11.12-.3.2-.31,2.21-.25,4.42-.48,6.63-.72,0,.09.02.18.03.28-2.3.25-4.59.49-6.89.74l.02.02Z"/>
    <path d="M125.89,79.49c.2-.13.39-.34.6-.37,1.58-.23,3.16-.43,4.77-.41-1.8.25-3.6.5-5.4.75l.02.02Z"/>
    <path d="M127.88,82.14c.77-.82,1.84-.75,3.06-1.13-.45.65-.93.65-1.33.81-.44.18-.88.38-1.33.57-.14-.08-.27-.17-.41-.25Z"/>
    <path d="M125.87,79.47c-1.36.26-2.72.52-4.08.78-.01-.09-.03-.18-.04-.26,1.37-.22,2.7-.78,4.15-.5,0,0-.02-.02-.02-.02Z"/>
    <path d="M119.73,80.63c-1.07.21-2.13.42-3.2.63-.01-.07-.03-.13-.04-.2,1.06-.22,2.13-.44,3.19-.66.02.08.03.15.05.23Z"/>
    <path d="M114.87,80.32c-.89.16-1.77.32-2.66.48h0c-.12-.05-.24-.1-.44-.17,1.05-.51,2.06-.54,3.12-.29,0,0-.02-.01-.02-.01Z"/>
    <path d="M127.37,84.48c-.63.55-1.26,1.11-1.88,1.66l-.16-.21c.61-.58,1.16-1.25,2.07-1.42l-.02-.03Z"/>
    <path d="M125.53,84.52c.54-.45,1.07-.9,1.61-1.35,0,0-.03-.03-.03-.03-.54.45-1.07.9-1.61,1.35,0,0,.03.03.03.03Z"/>
    <path d="M113.05,82.22c.31-.73.94-.59,1.54-.55-.51.18-1.03.37-1.54.55,0,0,0,0,0,0Z"/>
    <path d="M112.67,84.31c.4-.13.79-.25,1.19-.38.03.08.05.16.08.24-.39.11-.77.22-1.16.32l-.1-.19Z"/>
    <path d="M112.2,80.8c.02.63-.09,1.34.85,1.43,0,0,0,0,0,0-.3.02-.6.05-1,.08.05-.51.1-1.01.15-1.51,0,0,0,0,0,0Z"/>
    <path d="M121.74,84.78c.32-.53.84-.68,1.46-.59-.5.19-.99.37-1.49.56,0,0,.02.03.02.03Z"/>
    <path d="M127.39,84.5c.34-.26.68-.52,1.23-.95-.31.8-.71.99-1.25.92,0,0,.02.03.02.03Z"/>
    <path d="M127.88,82.14c.14.08.27.17.41.25-.39.25-.78.5-1.17.75,0,0,.03.03.03.03.25-.34.5-.69.74-1.03Z"/>
    <path d="M130.39,84.53c-.38.29-.53.4-.92.7.14-.4.15-.57.24-.65.07-.07.24-.03.68-.05Z"/>
    <path d="M125.51,84.49c-.26.28-.52.56-.79.84-.07-.08-.13-.17-.2-.25.34-.19.67-.37,1.01-.56,0,0-.03-.03-.03-.03Z"/>
    <path d="M125.6,83.07c-.3.12-.61.23-.91.35-.03-.07-.05-.13-.08-.2.3-.12.6-.24.91-.37.03.07.06.15.09.22Z"/>
    <path d="M128.97,85.62c-.19.15-.38.3-.57.45-.04-.05-.08-.1-.12-.15l.59-.43s.07.08.1.12Z"/>
    <path d="M162.73,82.17c-2.77-.14-5.28.06-7.74-.6.8.04,1.6.1,2.4.11,2.64.03,5.29.03,7.93.08.65.01,1.3.15,1.92.39h-3.32v.15c.36.05.74.09,1.11.14,0,.03,0,.06,0,.08-2.29.11-4.57.23-6.86.34l-.02-.21c1.43-.15,2.86-.3,4.58-.48Z"/>
    <path d="M153.66,83.35c.25.46.24.48.7.66,1.46.6,2.74,1.47,3.77,2.71-2.46-2.11-5.51-3.03-8.44-4.19.03-.08.06-.16.09-.24.73.26,1.46.55,2.2.77.54.15,1.11.2,1.67.3,0,0,0,0,0,0Z"/>
    <path d="M152.75,82.07c.13,0,.28-.03.4,0,3.1,1.04,6.13,2.23,8.78,4.24-1.31-.66-2.6-1.36-3.93-1.98-1.33-.61-2.7-1.13-4.14-1.72-.09.33-.14.53-.2.73,0,0,0,0,0,0,.18-.77-.58-.89-.89-1.31l-.02.02Z"/>
    <path d="M145.99,83.16c.79.28,1.65.44,2.35.87,1.59.98,3.1,2.1,4.64,3.17.08.06.11.2.27.53-.57-.35-.93-.58-1.3-.81-1.91-1.17-3.82-2.33-5.72-3.51-.1-.06-.15-.19-.23-.29l-.02.03Z"/>
    <path d="M167.79,83.89c-2.12-.65-4.25-.51-6.37-.28,2.16-.68,4.3-.66,6.37.28Z"/>
    <path d="M167.69,84.98c-1.67-.1-3.12-.19-4.58-.28,1.31-.37,3.42-.28,4.58.28Z"/>
    <path d="M170.91,82.41h-2.62c.93-.7,1.8-.13,2.59-.32l.04.32Z"/>
    <path d="M152.77,82.04c-1.14-.04-2.83-.52-3.35-.94l-.02.02c1.11.32,2.23.63,3.34.95,0,0,.02-.03.02-.03Z"/>
    <path d="M149.42,81.1c-.42.06-.85.13-1.27.19,0-.08,0-.16-.01-.24.42.03.83.05,1.26.07,0,0,.03-.02.03-.02Z"/>
    <path d="M146.63,80.92h-.71s0-.06,0-.09c.24-.01.48-.02.71-.03,0,.04,0,.08,0,.12Z"/>
    <path d="M146.01,83.14c-.38-.1-.77-.19-1.15-.29.04-.1.08-.19.12-.29.34.2.67.4,1.01.6,0,0,.02-.03.02-.03Z"/>
    <path d="M147.32,86.14c-.33-.18-.65-.37-.98-.55.06-.08.12-.15.18-.23.26.27.52.54.77.81l.03-.03Z"/>
    <path d="M147.29,86.17c.35.16.7.32,1.05.47-.06.09-.11.18-.17.28-.28-.26-.57-.52-.85-.78,0,0-.03.03-.03.03Z"/>
    <path d="M161.29,71.35c.18-.3-.2-1.21.78-.77-.23.14-.43.26-.63.38.06.12.11.23.17.35,2.18-.2,4.37-.4,6.55-.61-6.32.76-12.55,2.01-18.76,3.34l-.06-.31c3.93-.79,7.87-1.58,11.94-2.39Z"/>
    <path d="M160.22,73.32c-1.46.13-2.93.26-4.39.38,0-.08-.01-.15-.02-.23l4.4-.36c0,.07.01.14.02.21Z"/>
    <path d="M145.97,72.71c.75-.22,1.42-.42,2.08-.61-.41.48-1.3.29-1.34,1.18-.04-.06-.06-.15-.11-.18-.16-.11-.34-.21-.63-.38Z"/>
    <path d="M164.49,70.34c.49-.74,1.2-.18,1.8-.26-.6.09-1.2.17-1.81.26h0Z"/>
    <path d="M159.66,74.62h1.37s0,.06,0,.09c-.45.02-.91.04-1.36.06,0-.05,0-.1,0-.15Z"/>
    <path d="M162.94,74.34h1.14s0,.06,0,.08h-1.08s-.04-.06-.06-.08Z"/>
    <path d="M165.87,72.01l-1.16.06s0-.09,0-.13h1.16s0,.05,0,.07Z"/>
    <path d="M164.49,70.35c-.46.04-.92.08-1.38.12,0-.07,0-.15,0-.22.46.03.93.06,1.39.1,0,0,0,0,0,0Z"/>
    <path d="M124.29,71.18c.94.71,2.11.64,3.18.89.49.12.99.24,1.44.53-1.43-.18-2.86-.34-4.29-.56-.77-.12-1.3.1-1.59.85,0,0,.07.04.07.04-.03-.29-.05-.58-.08-.92-1.38,0-2.66-.03-3.94.02-.47.02-.93.22-1.4.33h.03c-.33-.05-.66-.1-1-.16l.02.02c.24-.13.47-.36.72-.38,1.73-.12,3.47-.17,5.2-.29.55-.04,1.1-.26,1.64-.39l-.02.02Z"/>
    <path d="M122.29,73.69c-.69-.05-1.39-.19-2.07-.12-1.36.15-2.7.42-4.1.55.4-.17.79-.33,1.17-.49.15-.43.28-.85.42-1.26,0,0-.03,0-.03,0v1.11c1.76-.12,3.35-.22,4.94-.34.17-.01.32-.13.49-.2,0,0-.07-.04-.07-.04.65.1,1.29.23,1.94.29,1.42.13,2.84.21,4.26.34.39.04.76.18,1.12.42-1.81-.13-3.62-.3-5.44-.39-.88-.04-1.76.06-2.65.1l.03.03Z"/>
    <path d="M124.31,71.16c-.57.04-1.14.13-1.71.12-2.72-.05-5.44-.13-8.16-.21-.12,0-.25-.07-.36-.17,3.41-.33,6.81-.31,10.21.28,0,0,.03-.03.03-.03Z"/>
    <path d="M128.04,74.54c-1.24,0-2.48,0-3.72,0-.16,0-.32-.04-.48-.21h4.22c0,.07-.02.14-.02.21Z"/>
    <path d="M122.26,73.66c.04.32.07.64.12,1.09-.22.02-.6.04-.93.06.3-.4.57-.76.84-1.12,0,0-.04-.04-.04-.04Z"/>
    <path d="M112.34,70.14h-.6s0-.03,0-.05h.61s0,.03,0,.05Z"/>
    <path d="M116.72,72.21l-1.34.19c0-.1,0-.19,0-.29.45.04.9.08,1.36.12,0,0-.02-.02-.02-.02Z"/>
    <path d="M136.73,67.11c.42-.24.79-.45,1.2-.68.03-.4.07-.81.11-1.27.76.27.45.85.54,1.24.61.07,1.21.08,1.77.23.18.05.27.45.34.78-.59-.34-1.02-.69-1.78-.24-.48.28-1.31-.01-2.17-.06Z"/>
    <path d="M139.7,76.59c-.59.3-1.22.63-1.85.95-.08-.08-.16-.17-.24-.25,1.1-.45,1.22-1.4,1.29-2.6.33.78.54,1.29.8,1.9Z"/>
    <path d="M139.26,70.69c.39,1.15.38,2.26-.3,3.47-.38-.22-.72-.4-1.26-.71,1.43-.17,1.51-.27,1.5-1.47,0-.43.04-.86.06-1.29Z"/>
    <path d="M138.47,70.39c-.19-.36-.37-.68-.67-1.22.43.15.62.22.81.29.2-.32.4-.64.68-1.09q.06,1.16-.82,2.02Z"/>
    <path d="M138.46,72.78c-.84-.4-1.2-1.04-1.01-1.96l1.01,1.96Z"/>
    <path d="M138.19,95.29c-.04-1.54-.08-3.07-.11-4.61,0-.01.08-.04.12-.04.04,0,.09,0,.17.02.13,1.56.26,3.13.4,4.8-.31-.11-.47-.16-.63-.22,0,0,.04.04.04.04Z"/>
    <path d="M138.68,87.55v1.77c-.06,0-.12,0-.17,0v-1.76c.06,0,.12-.01.17-.02Z"/>
    <path class="cls-9" d="M123.11,72.93c-.16.07-.32.19-.49.2-1.59.12-3.18.22-4.94.34v-1.11c.47-.12.93-.32,1.4-.33,1.28-.05,2.57-.02,3.94-.02.03.34.05.63.08.92Z"/>
  </g>
  <polygon class="cls-7" points="28.97 81.48 5.4 115.96 6.58 117.45 51.53 115.89 35.38 86.23 30.57 80.62 28.97 81.48 28.97 81.48"/>
  <path class="cls-6" d="M27.08,85.95c-.85.37-.24-.86-1.09-.49-.41.14-.18.86-1.04.59-.33,1.4-.66,2.8-1.98,3.3-.31,1.48.75,1.42,1.18,2.08-1.86,1.36-1.87,5.71-5.14,4.27.3.79,1.28.84,1.43,1.8-.7.36-1.23.5-1.57.61,1.14.93-.3.7-.74,1.38-1.14,1.77-1.76,4.55-3.76,5-.07,1.29-.54,2.23-1.75,2.49.67,1.39-.39.2-.76.84,1.72.32-1.1,1.17.1,1.87-1.9.39-1.44,2.95-2.75,3.88-.17-.46.25-1.59-.34-1.59,0,.42.08.93-.5.83-.28.88.87.16.59,1.04-1.11.27-.91,1.73-1.48,2.49,2.78-.61,7.3-.66,10.41-.52.05-.21-.02-.53.24-.55,10.35.95,18.61-.66,31.25-1.01-.58-2.81-3.05-4.15-4.03-5.69-.32-2.38-2.56-2.61-2.66-5.22-1.2.18-1.03-.95-.89-1.56-1.06.03-2.03-1.7-1.17-2.09-.83.45-.9-.16-1.63-.45-1.93-5.83-6.53-9.95-8.74-14.55.01.27-.45.36-.53.02.32-.04.63-.11.51-.56-.75.26-.71-.34-1.35-.2-1.29,1.8-1.87,4.25-4.02,5.28.56.92-.2,1.3-.7,1.91-.32-1.06-.07-2.08.39-2.96.44-.02.18.73.57.78.06-1.15.97-3.33,1.76-2.23-.03-.37.09-.59.22-.81h0ZM42.67,98.28c1.58.23,1.16,2.65,2.82,2.8.04,1.73.93,2.54,2.03,3.11-.13,1.82.91,2.38,2.01,2.84.13.45-.18.51-.5.56.38.37,1.26.61.6,1.31.21-.16.43-.3.79-.31.12.54-.01.84-.49.83.53.68,2.07,2.13,1.2,2.61.27.45.86.55,1.62.46.15,2.19,1.35,3.21,1.35,5.55-.26-.16-1.01-.58-.78.3-.48-.5-1.86,0-1.92-.97-.59,1.05-1.83-.7-3.17.69-.81.13-.6-.84-.87-1.3-.76.27.38.65.07,1.34-.21-.17-.9-1.09-.8.04-3.73-.26-9.26-.28-12.56.08-.02-.27-.03-.53-.04-.8-1.2.71-2.61.85-3.74.18-.72,1.04-5.69,1.07-7.21.36-2.94,1.68-9.46.1-10.87,1.87-2.3-1.29-6.26.17-9.14-.88-.27-.84.18-1.03.46-1.37-1.07-.04-.44-.2-.62-1.84,1.25-.41,1.76-1.46,1.73-3.03,1.24.2.54-1.37,1.81-1.16-.23-.8-.21-.5-.07-1.33,1.81.2.72-2.24,2.29-2.25-.18-.26-.63-.25-.57-.78,1.08.29.5-.9,1.57-.61-.02-.45-.05-.89-.07-1.34.23-.22.59-.32,1.05-.32,1.56-4.03,4.49-6.81,6.16-10.74.92-.02,1.21-.6.99-1.66.78.03.79-.64,1.58-.61.65-3.57,4.05-4.66,4.67-8.26,2.93-.66,2.23-4.61,5.08-5.33-.18-.26-.63-.25-.58-.78.88-.05,1.31-.52,2.39-.38,1.2.85-.31,1.38,1.4,1.27-1.1,1.21.34,4.73,1.55,4.2.39.07.07,2.02,1.42,1.81-.14.82.33.96.35,1.59,3.43,2.86,4.09,8.8,7.53,11.66.12.45-.19.52-.51.57h0Z"/>
  <text class="cls-8" transform="translate(17.42 112.47) scale(.79 1)"><tspan x="0" y="0">20</tspan></text>
</svg>