<?xml version="1.0" encoding="UTF-8"?>
<svg id="Layer_1" data-name="Layer 1" xmlns="http://www.w3.org/2000/svg" viewBox="0 0 180 200">
  <defs>
    <style>
      .cls-1 {
        stroke-miterlimit: 2;
      }

      .cls-1, .cls-2 {
        fill: #ffc52f;
        stroke: #ffc52f;
        stroke-width: .41px;
      }

      .cls-3 {
        fill: #1a2454;
      }

      .cls-3, .cls-4, .cls-5, .cls-6, .cls-2 {
        fill-rule: evenodd;
      }

      .cls-4 {
        fill: #231f20;
      }

      .cls-7 {
        fill: #fff;
        font-family: AmericanTypewriter-Bold, 'American Typewriter';
        font-size: 20.52px;
        font-weight: 700;
      }

      .cls-5 {
        fill: #ed2d2c;
      }

      .cls-6 {
        fill: #fbd502;
      }

      .cls-2 {
        stroke-miterlimit: 10;
      }

      .cls-8 {
        letter-spacing: -.05em;
      }
    </style>
  </defs>
  <g>
    <path class="cls-3" d="M50.44,81.63s-.86,1.92-.73,9.1c.14,7.65.26,26,.66,28.77.42,2.77-.07,6.49-.07,6.49l123.29.02s1.38-2.21,1.16-6.19c-.23-3.98-.84-7.79-.69-14.38.15-6.58-.04-6.06-.06-7.96-.01-1.91-.04-6.41.14-7.63.18-1.22.27-8.21.27-8.21l-7.74-.17-116.24.16h0Z"/>
    <path class="cls-2" d="M68.87,101.34c-1.38.92-.23,3.42.16,4.62.36-1.14.85-3.8-.16-4.62h0ZM69.85,100.1c.94,1.63.55,4.27.1,5.98-.14.54-.41,1.14-.42,1.55-.01.53.43,1.38.7,1.97.49,1.06.72,2.01,1.38,2.89.83-1.72,1.68-3.62,1.99-5.94.1-.75.32-1.69.29-2.41-.02-.36-.24-.73-.26-1.1-.02-.69.28-1.56.29-2.29.58-.36,1.33-.29,1.73-.01.07.58-.06.96-.3,1.23-.22,1.83-.83,3.52-.27,5.18.21.27.47.48.5.92-.78.11-.86-.8-1.06-1.47-.76,2.33-1.5,4.68-1.86,7.41.02.21.22-.27.19.06.07.21-.08.2-.24.19.36.52-.5,1.09-.66,1.67-.69,0-.88-.77-1.12-1.22-.77-1.48-1.67-3.09-2.13-4.92-.89.81-1.14,2.26-2.01,3.09-.17.64-.59.95-.97,1.55-.23.37-.53,1.53-.92,1.61-.62.12-.84-1.44-.94-1.84-.25-1.14-.35-2.1-.82-2.83-.72-3.35-2.08-6.05-3.46-8.73-.71-.58-1.18-.75-2.16-.23-.59.32-1.34.82-1.6,1.49-.41,1.09.07,2.12-.04,3.08-.75-.15-.84-1.31-.81-2.02.02-.7.25-1.45.48-1.86.46-.84,1.76-1.63,2.76-1.75,1.6-.19,2.64.99,3.59,1.82.71,1.29,1.16,3.42,1.7,5.05.23.69.49,1.36.69,2.03.2.64.45,1.31.82,1.84-.11.32.11.72.32.92.94-1.01,1.42-2.31,2.07-3.65.26-.53.72-1.07.73-1.73.02-1.08-.73-2.53-.83-4-.13-1.93.43-4.32,2.56-3.54h0Z"/>
    <path class="cls-1" d="M68.87,101.34c-1.38.92-.23,3.42.16,4.62.36-1.14.85-3.8-.16-4.62h0ZM69.85,100.1c.94,1.63.55,4.27.1,5.98-.14.54-.41,1.14-.42,1.55-.01.53.43,1.38.7,1.97.49,1.06.72,2.01,1.38,2.89.83-1.72,1.68-3.62,1.99-5.94.1-.75.32-1.69.29-2.41-.02-.36-.24-.73-.26-1.1-.02-.69.28-1.56.29-2.29.58-.36,1.33-.29,1.73-.01.07.58-.06.96-.3,1.23-.22,1.83-.83,3.52-.27,5.18.21.27.47.48.5.92-.78.11-.86-.8-1.06-1.47-.76,2.33-1.5,4.68-1.86,7.41.02.21.22-.27.19.06.07.21-.08.2-.24.19.36.52-.5,1.09-.66,1.67-.69,0-.88-.77-1.12-1.22-.77-1.48-1.67-3.09-2.13-4.92-.89.81-1.14,2.26-2.01,3.09-.17.64-.59.95-.97,1.55-.23.37-.53,1.53-.92,1.61-.62.12-.84-1.44-.94-1.84-.25-1.14-.35-2.1-.82-2.83-.72-3.35-2.08-6.05-3.46-8.73-.71-.58-1.18-.75-2.16-.23-.59.32-1.34.82-1.6,1.49-.41,1.09.07,2.12-.04,3.08-.75-.15-.84-1.31-.81-2.02.02-.7.25-1.45.48-1.86.46-.84,1.76-1.63,2.76-1.75,1.6-.19,2.64.99,3.59,1.82.71,1.29,1.16,3.42,1.7,5.05.23.69.49,1.36.69,2.03.2.64.45,1.31.82,1.84-.11.32.11.72.32.92.94-1.01,1.42-2.31,2.07-3.65.26-.53.72-1.07.73-1.73.02-1.08-.73-2.53-.83-4-.13-1.93.43-4.32,2.56-3.54h0Z"/>
    <path class="cls-2" d="M102.98,102.09c-.52.18-.88-.19-.99-.61-1.71,1.09-1.57,3.89-2.05,6.06.24.28.82-.13,1.05.3-.08.44-.74.47-1.11.44-.81,3.4-.29,8.27-1.33,11.73-.84.32-1.52.88-2.59.63.51-.66,1.42-.92,1.9-1.61,1.01-3.06.62-7.03.97-10.74-.13-.23-.7-.03-.74-.36.07-.42.6-.28.86-.38.2-.74.43-1.79.53-2.96.05-.52.23-.91.36-1.61.14-.77.65-1.97,1.03-2.16.86-.44,1.9.34,2.1,1.28h0Z"/>
    <path class="cls-1" d="M102.98,102.09c-.52.18-.88-.19-.99-.61-1.71,1.09-1.57,3.89-2.05,6.06.24.28.82-.13,1.05.3-.08.44-.74.47-1.11.44-.81,3.4-.29,8.27-1.33,11.73-.84.32-1.52.88-2.59.63.51-.66,1.42-.92,1.9-1.61,1.01-3.06.62-7.03.97-10.74-.13-.23-.7-.03-.74-.36.07-.42.6-.28.86-.38.2-.74.43-1.79.53-2.96.05-.52.23-.91.36-1.61.14-.77.65-1.97,1.03-2.16.86-.44,1.9.34,2.1,1.28h0Z"/>
    <path class="cls-2" d="M88.68,103.05c-.49,1.19-.47,2.89-.83,4.2.41.12,1.03.03,1.3.3.1.23-.16.39-.18.67-.46.17-.61.05-1.11.13-.25,1.81-.5,4.03-.2,5.86.87-.06,1.32-.99,2.21-.63-.62.79-1.88,1.53-3.07.89-.84-1.89.43-3.68.14-6.11-.7.24-1.38-.33-1.06-.92.33-.1.8-.07,1.17-.13.33-1.5.18-2.95.53-4.26.4-.07.81-.41,1.11-.01h0Z"/>
    <path class="cls-1" d="M88.68,103.05c-.49,1.19-.47,2.89-.83,4.2.41.12,1.03.03,1.3.3.1.23-.16.39-.18.67-.46.17-.61.05-1.11.13-.25,1.81-.5,4.03-.2,5.86.87-.06,1.32-.99,2.21-.63-.62.79-1.88,1.53-3.07.89-.84-1.89.43-3.68.14-6.11-.7.24-1.38-.33-1.06-.92.33-.1.8-.07,1.17-.13.33-1.5.18-2.95.53-4.26.4-.07.81-.41,1.11-.01h0Z"/>
    <path class="cls-2" d="M110.74,104.2c-.49,1.19-.47,2.88-.83,4.2.41.12,1.03.03,1.3.3.11.23-.16.39-.18.67-.47.17-.61.05-1.11.13-.25,1.81-.5,4.03-.2,5.86.86-.05,1.32-.99,2.22-.63-.62.78-1.88,1.53-3.08.88-.83-1.89.43-3.68.14-6.11-.7.24-1.37-.33-1.05-.92.33-.1.79-.07,1.17-.13.33-1.5.18-2.95.52-4.26.4-.07.81-.41,1.11,0h0Z"/>
    <path class="cls-1" d="M110.74,104.2c-.49,1.19-.47,2.88-.83,4.2.41.12,1.03.03,1.3.3.11.23-.16.39-.18.67-.47.17-.61.05-1.11.13-.25,1.81-.5,4.03-.2,5.86.86-.05,1.32-.99,2.22-.63-.62.78-1.88,1.53-3.08.88-.83-1.89.43-3.68.14-6.11-.7.24-1.37-.33-1.05-.92.33-.1.79-.07,1.17-.13.33-1.5.18-2.95.52-4.26.4-.07.81-.41,1.11,0h0Z"/>
    <path class="cls-2" d="M114.57,109.46c.96-.39,2.58-1.15,3.09-.02.55,1.24-.21,4.09.1,5.61.84-.1.95-1.48,1.84-1.13-.47.88-1.14,1.85-2.39,1.44-.1-.22-.39-.36-.5-.74-.39-1.33.54-4.75-.71-4.87-.74-.07-1.05.71-1.6,1-.14,1.65-.26,3.33-.58,4.82-.24-.04-.24.13-.3.25-1.04.12-.63-1.39-.51-2.47.31-2.71.27-6.29.49-8.94-.26-.15-.78.06-1.05-.3.28-.81,1.98-.52,2.16.11.1.35.06.94.07,1.36.06,1.42-.25,2.95-.09,3.89h0Z"/>
    <path class="cls-1" d="M114.57,109.46c.96-.39,2.58-1.15,3.09-.02.55,1.24-.21,4.09.1,5.61.84-.1.95-1.48,1.84-1.13-.47.88-1.14,1.85-2.39,1.44-.1-.22-.39-.36-.5-.74-.39-1.33.54-4.75-.71-4.87-.74-.07-1.05.71-1.6,1-.14,1.65-.26,3.33-.58,4.82-.24-.04-.24.13-.3.25-1.04.12-.63-1.39-.51-2.47.31-2.71.27-6.29.49-8.94-.26-.15-.78.06-1.05-.3.28-.81,1.98-.52,2.16.11.1.35.06.94.07,1.36.06,1.42-.25,2.95-.09,3.89h0Z"/>
    <path class="cls-2" d="M153.86,110.5c.03-.65.01-1.49-.51-1.79,0-.04,0-.07-.06-.06-.26.11-.47.28-.74.38-.26.3-.39.71-.61,1.05-.19,1.58-.72,3.85.46,4.74,1.07-.6,1.35-2.67,1.45-4.32h0ZM153.58,114.94c-.72.65-2.14.47-2.59-.29-.55-.95-.51-3.62-.1-5.06.24-.83,2.07-2.05,3.07-1.14.32.29.46.87.5,1.36.05.59-.16,1.16-.17,1.66,0,.21.13.51.13.68-.06,1.08-.65,2.04-.84,2.78h0Z"/>
    <path class="cls-1" d="M153.86,110.5c.03-.65.01-1.49-.51-1.79,0-.04,0-.07-.06-.06-.26.11-.47.28-.74.38-.26.3-.39.71-.61,1.05-.19,1.58-.72,3.85.46,4.74,1.07-.6,1.35-2.67,1.45-4.32h0ZM153.58,114.94c-.72.65-2.14.47-2.59-.29-.55-.95-.51-3.62-.1-5.06.24-.83,2.07-2.05,3.07-1.14.32.29.46.87.5,1.36.05.59-.16,1.16-.17,1.66,0,.21.13.51.13.68-.06,1.08-.65,2.04-.84,2.78h0Z"/>
    <path class="cls-2" d="M162.11,107.9c.14.13.24.3.19.62.81-.66,2.33-.67,3.21-.08,1.08,1.73.25,4.07.6,6.53.44-.1.97-.85,1.36-.26-.46.43-1.13,1.06-1.91.63-.75-.86-.06-3.66-.29-5.49-.04-.37-.2-1.03-.38-1.17-.25-.2-.92-.19-1.23-.05-.36.16-.27.53-.67.75.13.4-.19.66-.3,1.05-.46,1.56-.44,3.66-.82,5.43-.44-.13-.81-.34-1.05-.67.33-2.08.22-4.21.51-6.18-.36.1-.46.45-.8.56-.32-.07-.55-.22-.68-.49.57-.55,1.4-1.13,2.27-1.19h0Z"/>
    <path class="cls-1" d="M162.11,107.9c.14.13.24.3.19.62.81-.66,2.33-.67,3.21-.08,1.08,1.73.25,4.07.6,6.53.44-.1.97-.85,1.36-.26-.46.43-1.13,1.06-1.91.63-.75-.86-.06-3.66-.29-5.49-.04-.37-.2-1.03-.38-1.17-.25-.2-.92-.19-1.23-.05-.36.16-.27.53-.67.75.13.4-.19.66-.3,1.05-.46,1.56-.44,3.66-.82,5.43-.44-.13-.81-.34-1.05-.67.33-2.08.22-4.21.51-6.18-.36.1-.46.45-.8.56-.32-.07-.55-.22-.68-.49.57-.55,1.4-1.13,2.27-1.19h0Z"/>
    <path class="cls-2" d="M84.86,108.69c-.74-.05-2.29-.12-1.84.75.36.72,1.19,1.58,1.56,2.7.27.81.83,1.45-.05,2.22,0-.06,0-.12,0-.18-.26,1.72-2.52.95-3.15.02.05-.24.37-.21.37-.5.8.29,1.39.1,1.97-.26-.47-1.71-2.16-2.47-1.94-4.67.42-.38,1.13-.82,1.97-.75.4.03,1.09.07,1.11.67h0Z"/>
    <path class="cls-1" d="M84.86,108.69c-.74-.05-2.29-.12-1.84.75.36.72,1.19,1.58,1.56,2.7.27.81.83,1.45-.05,2.22,0-.06,0-.12,0-.18-.26,1.72-2.52.95-3.15.02.05-.24.37-.21.37-.5.8.29,1.39.1,1.97-.26-.47-1.71-2.16-2.47-1.94-4.67.42-.38,1.13-.82,1.97-.75.4.03,1.09.07,1.11.67h0Z"/>
    <path class="cls-2" d="M76.7,111.9c.68-.78,1.74-1.51,1.58-2.91-.92.58-1.43,1.57-1.58,2.91h0ZM76.58,113.07c.47,1.9,2.73-.09,3.44-.83.34-.35.54-.97,1.05-.93.09.07.17.15.25.24-1.02,1.74-3.04,3.8-5.28,2.87-.76-.86-.63-2.58-.46-3.94.83-.98,1.5-2.44,3.32-2.25.44.35.31,1.34.07,2.03-.02.07-.27.17-.24.13-.09.15-.02.4-.12.56-.51.84-1.6,1.44-2.01,2.12h0Z"/>
    <path class="cls-1" d="M76.7,111.9c.68-.78,1.74-1.51,1.58-2.91-.92.58-1.43,1.57-1.58,2.91h0ZM76.58,113.07c.47,1.9,2.73-.09,3.44-.83.34-.35.54-.97,1.05-.93.09.07.17.15.25.24-1.02,1.74-3.04,3.8-5.28,2.87-.76-.86-.63-2.58-.46-3.94.83-.98,1.5-2.44,3.32-2.25.44.35.31,1.34.07,2.03-.02.07-.27.17-.24.13-.09.15-.02.4-.12.56-.51.84-1.6,1.44-2.01,2.12h0Z"/>
    <path class="cls-2" d="M158.43,110.47c.03-.65,0-1.49-.51-1.79,0-.04,0-.07-.06-.06-.26.11-.47.28-.74.38-.26.3-.4.71-.61,1.06-.19,1.57-.72,3.84.47,4.75,1.07-.61,1.36-2.68,1.45-4.33h0ZM158.15,114.91c-.72.65-2.15.47-2.59-.29-.56-.95-.52-3.62-.1-5.06.24-.83,2.07-2.05,3.07-1.13.31.29.46.87.5,1.35.05.6-.15,1.16-.17,1.66,0,.21.14.51.13.68-.06,1.07-.65,2.04-.85,2.78h0Z"/>
    <path class="cls-1" d="M158.43,110.47c.03-.65,0-1.49-.51-1.79,0-.04,0-.07-.06-.06-.26.11-.47.28-.74.38-.26.3-.4.71-.61,1.06-.19,1.57-.72,3.84.47,4.75,1.07-.61,1.36-2.68,1.45-4.33h0ZM158.15,114.91c-.72.65-2.15.47-2.59-.29-.56-.95-.52-3.62-.1-5.06.24-.83,2.07-2.05,3.07-1.13.31.29.46.87.5,1.35.05.6-.15,1.16-.17,1.66,0,.21.14.51.13.68-.06,1.07-.65,2.04-.85,2.78h0Z"/>
    <path class="cls-2" d="M96.81,109.96c.04-.64.02-1.49-.51-1.79,0-.04,0-.07-.06-.06-.26.11-.46.28-.74.38-.26.3-.39.71-.61,1.05-.19,1.58-.72,3.85.47,4.74,1.07-.6,1.36-2.67,1.45-4.32h0ZM96.53,114.4c-.72.65-2.14.47-2.59-.29-.55-.95-.52-3.61-.1-5.06.24-.83,2.07-2.04,3.07-1.13.31.28.46.87.5,1.35.05.59-.15,1.16-.17,1.67,0,.2.14.5.13.68-.06,1.08-.65,2.04-.85,2.78h0Z"/>
    <path class="cls-1" d="M96.81,109.96c.04-.64.02-1.49-.51-1.79,0-.04,0-.07-.06-.06-.26.11-.46.28-.74.38-.26.3-.39.71-.61,1.05-.19,1.58-.72,3.85.47,4.74,1.07-.6,1.36-2.67,1.45-4.32h0ZM96.53,114.4c-.72.65-2.14.47-2.59-.29-.55-.95-.52-3.61-.1-5.06.24-.83,2.07-2.04,3.07-1.13.31.28.46.87.5,1.35.05.59-.15,1.16-.17,1.67,0,.2.14.5.13.68-.06,1.08-.65,2.04-.85,2.78h0Z"/>
    <path class="cls-2" d="M119.87,112.54c.69-.77,1.74-1.51,1.58-2.91-.92.58-1.43,1.57-1.58,2.91h0ZM119.75,113.71c.47,1.9,2.74-.09,3.44-.83.34-.35.53-.97,1.04-.93.09.07.17.15.25.25-1.02,1.73-3.04,3.79-5.29,2.87-.76-.86-.63-2.59-.46-3.94.83-.98,1.49-2.44,3.31-2.24.44.34.32,1.34.08,2.03-.02.07-.27.17-.24.13-.09.15-.02.39-.12.55-.52.83-1.61,1.44-2.02,2.11h0Z"/>
    <path class="cls-1" d="M119.87,112.54c.69-.77,1.74-1.51,1.58-2.91-.92.58-1.43,1.57-1.58,2.91h0ZM119.75,113.71c.47,1.9,2.74-.09,3.44-.83.34-.35.53-.97,1.04-.93.09.07.17.15.25.25-1.02,1.73-3.04,3.79-5.29,2.87-.76-.86-.63-2.59-.46-3.94.83-.98,1.49-2.44,3.31-2.24.44.34.32,1.34.08,2.03-.02.07-.27.17-.24.13-.09.15-.02.39-.12.55-.52.83-1.61,1.44-2.02,2.11h0Z"/>
    <path class="cls-2" d="M149.75,113.9c-.8.38-1.14,1.38-2.33,1.18-1-1.57-1.18-3.89-1.53-5.91-.38-2.19-.86-4.2-1.09-6.16-1.18,2.56-2.08,5.44-3.03,8.28-.36,1.1-.68,2.26-.9,3.59-.65,1-.97.03-1.36-.79-1.49-3.11-2.56-7.26-4.32-9.77-.69,1.96-.86,4.43-1.12,6.73-.22,1.88-.47,3.3-1.39,4.57-.27.37-.56.89-.86,1.11-.45.36-1.11.28-1.54.81-1.55.53-3.2.01-4.14-.9-.46-1.1-.06-2.66-.15-3.88.07-.11.25-.48.49-.62.64.17.36,1.07.38,1.66.04.8.21,1.4.63,1.78.78.11,1.5.42,2.35.42,1.75,0,2.54-.87,2.94-2.55.47-1.99.71-4.27,1-6.67.2-1.64.91-3.2.89-4.63-.91,0-2.06.08-3.27.21-1.05.1-2.18.22-2.58.76-.07.42.13.75,0,1.05-.26.05-.44.02-.74.13-.55-.23-.65-1.3-.44-1.91.37-.29.83-.2,1.41-.25,2.19-.2,5.2-1.29,6.72-.11,1.72,3.19,2.87,6.95,4.45,10.27.15-.46.36-.87.67-1.18-.04-.43.21-.57.18-.99.61-.94.77-2.35,1.39-3.27.05-.84.4-1.49.72-2.23.14-1.05.68-2.22,1.09-3.21.66-.43,1.14.3,1.49.6.7,3.15.73,7.32,1.43,10.47.15.7.28,1.6.75,1.53.76-.1.78-1.74,1.53-1.74.85,0,.32,1.19.26,1.6h0Z"/>
    <path class="cls-1" d="M149.75,113.9c-.8.38-1.14,1.38-2.33,1.18-1-1.57-1.18-3.89-1.53-5.91-.38-2.19-.86-4.2-1.09-6.16-1.18,2.56-2.08,5.44-3.03,8.28-.36,1.1-.68,2.26-.9,3.59-.65,1-.97.03-1.36-.79-1.49-3.11-2.56-7.26-4.32-9.77-.69,1.96-.86,4.43-1.12,6.73-.22,1.88-.47,3.3-1.39,4.57-.27.37-.56.89-.86,1.11-.45.36-1.11.28-1.54.81-1.55.53-3.2.01-4.14-.9-.46-1.1-.06-2.66-.15-3.88.07-.11.25-.48.49-.62.64.17.36,1.07.38,1.66.04.8.21,1.4.63,1.78.78.11,1.5.42,2.35.42,1.75,0,2.54-.87,2.94-2.55.47-1.99.71-4.27,1-6.67.2-1.64.91-3.2.89-4.63-.91,0-2.06.08-3.27.21-1.05.1-2.18.22-2.58.76-.07.42.13.75,0,1.05-.26.05-.44.02-.74.13-.55-.23-.65-1.3-.44-1.91.37-.29.83-.2,1.41-.25,2.19-.2,5.2-1.29,6.72-.11,1.72,3.19,2.87,6.95,4.45,10.27.15-.46.36-.87.67-1.18-.04-.43.21-.57.18-.99.61-.94.77-2.35,1.39-3.27.05-.84.4-1.49.72-2.23.14-1.05.68-2.22,1.09-3.21.66-.43,1.14.3,1.49.6.7,3.15.73,7.32,1.43,10.47.15.7.28,1.6.75,1.53.76-.1.78-1.74,1.53-1.74.85,0,.32,1.19.26,1.6h0Z"/>
    <path class="cls-6" d="M162.94,104.9c-.16-.2.43-.58.58-.82.93-1.41,1.72-3.48,2.4-5.26.38-3.15-.26-5.74-1.9-7.58-.17-.19-.4-.39-.59-.58-.59-.56-1.56-1.26-2.3-1.61-1.61-.76-5.01-.15-6.42.49-.3-.08-.35.02-.74,0-.86.52-1.8,1.04-2.57,1.57-.32.22-.72.8-1.03.74.73-1.9,2.01-3.42,3.58-4.75,1.75-1.48,4.36-2.66,7.66-2.12,2.45.4,4.44,1.17,5.77,2.69.91,1.05,1.53,2.36,2.16,3.67.17,2.26.88,4.51.57,6.64-.57,3.89-4.03,5.54-7.18,6.91h0Z"/>
  </g>
  <polygon class="cls-5" points="28.82 87.03 5.25 121.52 6.43 123.01 51.38 121.44 35.23 91.79 30.42 86.17 28.82 87.03 28.82 87.03"/>
  <path class="cls-4" d="M26.93,91.5c-.85.37-.24-.86-1.09-.48-.41.14-.18.86-1.04.59-.33,1.41-.66,2.8-1.98,3.31-.31,1.48.75,1.41,1.18,2.08-1.86,1.36-1.87,5.71-5.14,4.27.3.79,1.28.83,1.43,1.8-.7.36-1.23.5-1.57.61,1.14.93-.3.7-.74,1.38-1.14,1.77-1.76,4.55-3.76,5-.07,1.29-.54,2.23-1.75,2.49.67,1.39-.39.2-.76.85,1.72.32-1.1,1.17.1,1.87-1.9.4-1.44,2.94-2.75,3.88-.17-.46.25-1.59-.34-1.59,0,.42.08.93-.49.83-.28.88.87.16.59,1.04-1.11.27-.91,1.73-1.48,2.48,2.78-.61,7.3-.66,10.41-.52.05-.2-.02-.53.24-.54,10.35.94,18.61-.66,31.25-1.01-.58-2.8-3.05-4.15-4.03-5.69-.32-2.37-2.56-2.61-2.66-5.21-1.2.18-1.03-.95-.89-1.56-1.06.02-2.03-1.7-1.17-2.09-.83.45-.9-.16-1.63-.46-1.93-5.83-6.53-9.94-8.74-14.54.01.27-.45.36-.53.02.32-.04.63-.11.51-.56-.75.25-.71-.34-1.35-.2-1.29,1.8-1.87,4.25-4.02,5.28.56.91-.2,1.3-.7,1.91-.32-1.06-.07-2.08.39-2.96.44-.02.18.73.57.77.06-1.15.97-3.33,1.76-2.23-.03-.36.09-.59.22-.81h0ZM42.52,103.84c1.58.23,1.16,2.65,2.82,2.8.04,1.73.93,2.54,2.03,3.11-.13,1.82.91,2.37,2.01,2.84.13.45-.18.51-.5.56.38.37,1.26.61.6,1.31.21-.15.43-.3.79-.3.12.54-.01.84-.49.82.53.68,2.07,2.14,1.2,2.62.27.45.86.55,1.62.45.15,2.18,1.35,3.2,1.35,5.55-.26-.16-1.01-.58-.78.3-.48-.5-1.86,0-1.92-.98-.59,1.05-1.83-.7-3.17.7-.81.13-.6-.84-.87-1.3-.76.27.38.65.07,1.33-.21-.17-.9-1.08-.8.04-3.73-.26-9.26-.28-12.56.09-.02-.26-.03-.53-.04-.8-1.2.71-2.61.85-3.74.18-.72,1.04-5.69,1.07-7.21.36-2.94,1.69-9.46.1-10.87,1.87-2.3-1.29-6.26.16-9.14-.89-.27-.84.18-1.02.46-1.36-1.07-.04-.44-.21-.62-1.84,1.25-.41,1.76-1.46,1.73-3.03,1.24.2.54-1.37,1.81-1.16-.23-.81-.21-.5-.07-1.33,1.81.2.72-2.24,2.29-2.25-.18-.27-.63-.25-.57-.78,1.08.29.5-.9,1.57-.61-.02-.45-.05-.89-.07-1.33.23-.22.59-.32,1.05-.32,1.56-4.03,4.49-6.81,6.16-10.74.92-.02,1.21-.6.99-1.65.78.03.79-.64,1.58-.61.65-3.58,4.05-4.66,4.67-8.26,2.93-.66,2.23-4.61,5.08-5.33-.18-.26-.63-.25-.58-.77.88-.05,1.31-.52,2.39-.39,1.2.85-.31,1.38,1.4,1.27-1.1,1.21.34,4.73,1.55,4.2.39.07.07,2.02,1.42,1.81-.14.82.33.96.35,1.59,3.43,2.86,4.09,8.8,7.53,11.66.12.45-.19.52-.51.56h0Z"/>
  <text class="cls-7" transform="translate(18.09 117.39) scale(.79 1)"><tspan class="cls-8" x="0" y="0">2</tspan><tspan x="12.32" y="0">1</tspan></text>
</svg>