<?xml version="1.0" encoding="UTF-8"?>
<svg id="Layer_1" data-name="Layer 1" xmlns="http://www.w3.org/2000/svg" viewBox="0 0 180 200">
  <defs>
    <style>
      .cls-1 {
        fill: #231f20;
      }

      .cls-1, .cls-2 {
        fill-rule: evenodd;
      }

      .cls-3 {
        font-family: AmericanTypewriter-Bold, 'American Typewriter';
        font-size: 20.52px;
        font-weight: 700;
      }

      .cls-3, .cls-4 {
        fill: #fff;
      }

      .cls-2 {
        fill: #ed2d2c;
      }

      .cls-5 {
        fill: #f0592c;
      }
    </style>
  </defs>
  <g>
    <polygon class="cls-2" points="28.19 71.21 4.63 105.7 5.81 107.18 50.76 105.63 34.61 75.96 29.8 70.35 28.19 71.21 28.19 71.21"/>
    <path class="cls-1" d="M27.03,75.68c-.85.37-.24-.86-1.09-.49-.41.14-.18.86-1.03.59-.33,1.4-.66,2.8-1.98,3.3-.31,1.48.75,1.42,1.18,2.08-1.86,1.36-1.87,5.71-5.14,4.27.3.79,1.28.84,1.43,1.8-.7.36-1.23.5-1.57.61,1.14.93-.3.7-.74,1.38-1.14,1.77-1.76,4.55-3.76,5-.07,1.29-.54,2.23-1.75,2.49.67,1.39-.39.2-.76.84,1.72.32-1.1,1.17.1,1.87-1.9.39-1.44,2.95-2.75,3.88-.17-.46.25-1.59-.34-1.59,0,.42.08.93-.5.83-.28.88.87.16.59,1.04-1.11.27-.91,1.73-1.48,2.49,2.78-.61,7.3-.66,10.41-.52.05-.21-.02-.53.24-.55,10.35.95,18.61-.66,31.25-1.01-.58-2.81-3.05-4.15-4.03-5.69-.32-2.38-2.56-2.61-2.66-5.22-1.2.18-1.03-.95-.89-1.56-1.06.03-2.03-1.7-1.17-2.09-.83.45-.9-.16-1.63-.45-1.93-5.83-6.53-9.95-8.74-14.55.01.27-.45.36-.53.02.32-.04.63-.11.51-.56-.75.26-.71-.34-1.35-.2-1.29,1.8-1.87,4.25-4.02,5.28.56.92-.2,1.3-.7,1.91-.32-1.06-.07-2.08.39-2.96.44-.02.18.73.57.78.06-1.15.97-3.33,1.76-2.23-.03-.37.09-.59.22-.81h0ZM42.62,88.02c1.58.23,1.16,2.65,2.82,2.8.04,1.73.93,2.54,2.03,3.11-.13,1.82.91,2.38,2.01,2.84.13.45-.18.51-.5.56.38.37,1.26.61.6,1.31.21-.16.43-.3.79-.31.12.54-.01.84-.49.83.53.68,2.07,2.13,1.2,2.61.27.45.86.55,1.62.46.15,2.19,1.35,3.21,1.35,5.55-.26-.16-1.01-.58-.78.3-.48-.5-1.86,0-1.92-.97-.59,1.05-1.83-.7-3.17.69-.81.13-.6-.84-.87-1.3-.76.27.38.65.07,1.34-.21-.17-.9-1.09-.8.04-3.73-.26-9.26-.28-12.56.08-.02-.27-.03-.53-.04-.8-1.2.71-2.61.85-3.74.18-.72,1.04-5.69,1.07-7.21.36-2.94,1.68-9.46.1-10.87,1.87-2.3-1.29-6.26.17-9.14-.88-.27-.84.18-1.03.46-1.37-1.07-.04-.44-.2-.62-1.84,1.25-.41,1.76-1.46,1.73-3.03,1.24.2.54-1.37,1.81-1.16-.23-.8-.21-.5-.07-1.33,1.81.2.72-2.24,2.29-2.25-.18-.26-.63-.25-.57-.78,1.08.29.5-.9,1.57-.61-.02-.45-.05-.89-.07-1.34.23-.22.59-.32,1.05-.32,1.56-4.03,4.49-6.81,6.16-10.74.92-.02,1.21-.6.99-1.66.78.03.79-.64,1.58-.61.65-3.57,4.05-4.66,4.67-8.26,2.93-.66,2.23-4.61,5.08-5.33-.18-.26-.63-.25-.58-.78.88-.05,1.31-.52,2.39-.38,1.2.85-.31,1.38,1.4,1.27-1.1,1.21.34,4.73,1.55,4.2.39.07.07,2.02,1.42,1.81-.14.82.33.96.35,1.59,3.43,2.86,4.09,8.8,7.53,11.66.12.45-.19.52-.51.57h0Z"/>
    <text class="cls-3" transform="translate(19.22 101.87) scale(.79 1)"><tspan x="0" y="0">24</tspan></text>
  </g>
  <g>
    <path class="cls-5" d="M116,154.62c-28.73,0-54.59-21-60-49.25-3.98-20.84,1.7-38.8,17.23-53.44,4.14-3.9,8.97-6.79,14.1-9.26,9.25-4.45,19.02-6.03,29.14-5.2,11.57.94,22.13,4.9,31.44,11.88,13.74,10.3,22.16,23.96,24.48,41.01,4.08,30.03-15.4,56.89-44.24,62.87-1.39.29-2.8.58-4.21.72-2.64.27-5.3.45-7.95.66ZM120.97,107.82c1.75.06,2.74-.88,3.44-2.2.33-.62.56-1.32.76-2,1.16-3.91,2.31-7.83,3.43-11.75.19-.68.34-1.4.32-2.1-.04-1.1-.88-1.56-1.74-.88-1.97,1.56-4.15,2.92-5.5,5.16-.38.63-.84,1.21-1.26,1.82-.07-.06-.14-.11-.21-.17.24-1.79.48-3.59.74-5.48-.81-.44-1.63-.28-2.26.33-.88.84-1.83,1.7-2.43,2.73-2.2,3.77-3.83,7.79-5.01,11.99-.29,1.03-.38,2.11-.56,3.13,1.34.63,2.14.23,2.71-.7.71-1.16,1.36-2.36,2.05-3.53.31-.54.63-1.07,1.04-1.77.45.82.77,1.41,1.23,2.26,1.43-1.13,2.7-2.14,4.15-3.3.38,2.37-1.34,4.15-.88,6.45ZM126.66,113.37s-.1-.02-.15-.03c0-.26.01-.52,0-.78-.13-2.72-1.75-3.67-4.2-2.48-.32.16-.71.3-1.06.27-1.57-.14-2.77.57-3.79,1.64-.94.98-1.88,1.99-2.69,3.08-2.56,3.48-4.01,7.4-4.19,11.74-.1,2.26.67,3.33,2.71,3.91,1.71.48,3.43.31,4.8-.8,1.25-1,2.43-2.17,3.35-3.48,2.02-2.88,3.41-6.11,4.48-9.46.37-1.16.49-2.4.72-3.6ZM102.49,130.87c2.01-.35,3.79-1.77,4.37-3.2,1.91-4.75,3.86-9.49,5.76-14.24.32-.8.5-1.66.75-2.54-2.06-.23-3.06.23-3.87,1.84-.82,1.62-1.51,3.3-2.27,4.95-.77,1.68-2.26,2.26-4.36,1.52,1.11-2.44,2.22-4.87,3.33-7.33-3.1-.44-3.88-.08-5.39,2.44-.3.5-.52,1.04-.79,1.56-2.1,4.13-3.37,8.56-4.82,12.93-.14.43-.24.88-.31,1.32-.1.64-.2,1.26.59,1.65.76.37,1.27.09,1.68-.47.77-1.04,1.54-2.08,2.21-3.19.71-1.16,1.28-2.4,1.94-3.6.64-1.17,1.62-1.73,3.18-1.66-.54,2.74-2.24,5.08-2,8.02ZM89.95,103.69c.82,0,1.41-.07,1.98.02.47.07.91.32,1.37.49-.19.51-.26,1.14-.61,1.5-.53.54-1.21,1.02-1.91,1.3-1.13.45-2.36.91-3.44-.19-.79-.81-.79-2.18,0-3.63.15-.28.34-.55.51-.83,1.25-1.97,3.05-3.34,4.98-4.56.35-.22.79-.31,1.16-.44.42.58.76,1.04,1.11,1.52.3-.12.55-.19.76-.32,1.76-1.17,2.24-2.84,1.35-4.72-.82-1.74-2.06-2.28-4.2-1.53-1.2.42-2.35,1.08-3.38,1.83-2.61,1.92-4.35,4.6-5.97,7.34-1.34,2.27-2.13,4.72-1.99,7.41.1,1.8.95,2.75,2.73,2.94,1.71.19,3.3-.07,4.84-1,2.26-1.37,4.12-3.13,5.79-5.13.76-.91,1.32-1.92,1.37-3.15.05-1.16-.22-1.51-1.35-1.71-1.97-.35-3.78.59-5.1,2.85ZM132.6,123.48c.54-.07.88-.04,1.17-.15,3.63-1.4,6.04-3.96,6.86-7.77.34-1.56.28-3.22.29-4.83,0-.62-.22-1.28-.51-1.84-.51-.98-1.09-1.17-2.09-.76-2.43,1.01-4.64,2.38-6.09,4.64-2.76,4.33-5,8.92-6.68,13.78-.3.88-.64,1.84-.17,2.77,2.44.28,3.05-.01,3.89-1.98.43-1.01.7-2.09,1.1-3.11.38-.97.68-2.04,1.82-2.76.15.74.26,1.28.41,2.02ZM110.76,90.3c-.57.17-1.46.22-2.08.66-2.43,1.73-4.69,3.62-6.48,6.08-2.17,2.99-3.48,6.34-4.72,9.75-.28.77-.35,1.65-.38,2.48-.02.44.26.9.51,1.66,1.35-1.26,2.3-2.77,3.6-3.19,1.42-.47,2.36-2.13,4.07-1.77.68,1.13-1.08,2.65.65,3.5,1.11-.39,1.45-1.34,1.75-2.24,1.35-4.05,2.69-8.11,3.96-12.19.19-.62.11-1.39-.02-2.05-.16-.82-.5-1.6-.85-2.69ZM136.92,105.13c-.15-1.18-.69-1.54-1.62-1.46-.64.06-1.3.03-1.94-.01-.73-.05-1.09-.46-.82-1.18.51-1.35,1.1-2.62,2.62-3.19.9-.34,1.75-.84,2.57-1.35.52-.33,1.1-.71.98-1.47-.13-.12-.23-.27-.33-.27-.51-.02-1.02.02-1.53,0-1.1-.02-1.54-.57-1.24-1.63.36-1.26,1.23-2.05,2.38-2.67,1.31-.7,2.55-1.53,3.76-2.37.37-.26.57-.76.85-1.15-.3-.28-.42-.47-.58-.53-.3-.09-.63-.14-.95-.14-2.46-.04-4.73.71-6.84,1.88-.52.29-.85,1.06-1.11,1.68-.42,1-.62,2.09-1.06,3.08-1.16,2.6-2.46,5.15-3.57,7.77-.52,1.24-.84,2.59-1.08,3.92-.2,1.15.34,1.82,1.41,1.89,3.13.21,5.75-1.03,8.1-2.8ZM96.54,116.05c-.14-.83.12-1.56,1.23-1.77.21-.04.51-.55.45-.75-.1-.33-.41-.71-.72-.83-.4-.16-.9-.14-1.34-.1-3.89.38-7.27,1.78-9.75,4.94-1.31,1.67-1.22,3.56.23,5.11.44.47.95.88,1.37,1.38,1.04,1.23,1.04,2.26-.02,3.46-.8.9-1.74,1.51-3.06,1.27-.55-.1-1.15.02-1.72.11-.81.14-1.27.65-1.22,1.49.06.85.48,1.47,1.36,1.66.25.05.52.03.78.04,4.16.08,6.9-2.28,9.04-5.46.84-1.25.47-2.76-.3-4.05-.26-.44-.66-.8-1.01-1.18-1.46-1.58-1.32-2.94.57-3.87,1.25-.61,2.64-.93,4.11-1.44ZM105.08,58.49c-.12-.62-.09-1.35-.42-1.86-.35-.54-1.06-1.22-1.57-1.19-1.29.08-2.62.38-3.84.85-2.14.81-3.76,2.33-4.73,4.4-.83,1.75-1.58,3.56-2.13,5.42-.36,1.21-.53,2.58-.36,3.82.34,2.55,2.93,3.69,5.12,2.34.87-.54,1.71-1.2,2.4-1.94,2.48-2.66,3.94-5.91,5.08-9.31.27-.79.3-1.65.44-2.52ZM106.47,76.81c-.1-.39-.22-1.24-.54-2-.53-1.24-1.02-1.37-2.28-.87-.46.18-.97.34-1.47.36-1.04.03-1.84.47-2.6,1.14-2.31,2.03-3.76,4.62-4.81,7.43-.4,1.06-.5,2.28-.52,3.44-.02,1.41.65,2.37,2.1,2.91,2.09.78,3.74-.06,5.15-1.32,3.12-2.82,4.75-6.41,4.97-11.09ZM83.18,90.94c.71-.14,1.28-.41,1.8-.33,2.73.44,4.61-.89,6.15-2.88,1.56-2.01,1.55-2.98.09-5.09.21-.28.45-.58.67-.88.73-.99,1.48-1.97,2.16-3,.68-1.03.64-2.07-.14-3.06-.75-.95-1.79-1.16-2.8-.8-.95.34-1.86.91-2.63,1.56-.78.66-1.42,1.52-2.03,2.35-2.02,2.74-3.66,5.67-4.15,9.11-.16,1.13-.18,2.2.88,3.02ZM142.43,53.04c-.69-.38-1.28-1.01-1.83-.97-3.51.25-6.57,1.38-8.28,4.81-.88,1.77-.8,2.77.5,4.23.3.34.62.66.89,1.03,1.21,1.69.86,2.71-1.09,3.29-1.18.34-2.36.66-3.53,1.04-.67.22-1.07.67-1.02,1.46.05.84.63,1.03,1.3,1.18,2.62.56,4.83-.26,6.77-2.01,2.68-2.41,2.88-4.34.75-7.22-1.09-1.46-.84-2.5.85-3.18.89-.36,1.85-.54,2.55-.74.76-1.04,1.4-1.91,2.14-2.91ZM124.91,81.81c.36-.4.82-.85,1.21-1.35,1.12-1.42,2.27-2.82,3.29-4.31.42-.61.68-1.41.75-2.15.19-1.86-.57-2.65-2.43-2.66-2.13,0-3.72,1-4.79,2.79-1.13,1.88-2.33,3.75-3.25,5.74-.92,1.98-1.57,4.09-2.27,6.17-.15.44-.02.97-.02,1.39,1.17.52,1.66-.05,2.12-.88.69-1.27,1.23-2.68,2.55-3.56.42,1.16.8,2.22,1.07,2.98,1.18.16,1.98.28,2.85.4.33-1.64-.93-2.89-1.08-4.56ZM129.57,86.97c1.39-.52,2.85-.86,4.1-1.57,2.14-1.23,4.06-2.82,5.47-4.89.61-.89,1.08-1.94,1.34-2.98.76-3.07-.93-5.58-4.03-6.19-2.02-.4-2.82,0-3.71,1.88-.5,1.05-1,2.11-1.39,3.21-.83,2.32-1.68,4.63-2.34,7-.31,1.14-.45,2.44.56,3.55ZM113.46,71.21c.49-.71,1.23-1.33,1.33-2.05.12-.84-.31-1.76-.53-2.64-.13-.5-.32-.99-.47-1.48-.46-1.42-.16-2.55.93-3.69,1.83-1.92,3.48-4.01,5.17-6.06.3-.36.43-.85.72-1.45-.7-.07-1.17-.24-1.57-.13-.98.26-1.95.62-2.89,1.01-.89.37-.61,1.12-.48,1.8.01.05-.03.13-.07.18-1.18,1.3-2.15,2.83-3.92,3.76-.49-1.79.73-3.66-.68-5.15-1.31.62-1.55,1.74-1.54,2.83,0,1.28.22,2.57.44,3.84.16.95.04,1.72-.58,2.53-1.34,1.75-2.55,3.59-3.79,5.41-.32.46-.52,1-.79,1.53,1.12.53,1.9.2,2.52-.59.6-.76,1.16-1.56,1.75-2.33.38-.49.78-.96,1.39-1.7.77,1.88,1.16,3.69,3.06,4.4ZM125.01,66.99c-.74.16-1.3.33-1.88.39-1.24.14-1.69-.45-1.24-1.63.16-.41.39-.85.72-1.14.82-.72,1.7-1.37,2.58-2.02.65-.48,1.54-.69,1.77-1.7-.74-.08-1.42-.15-2.13-.22-.28-1.45.3-2.38,1.3-3.12.99-.74,2-1.44,2.98-2.19.67-.51,1.28-1.08,1.3-1.97-.17-.15-.27-.3-.36-.3-2.22.11-4.35.58-6.32,1.64-.37.2-.88.65-.87.97.05,1.87-1.27,3.06-2.06,4.5-1.39,2.52-2.36,5.2-2.91,8.01-.31,1.55.23,2.25,1.81,2.27,2.17.03,4.22-.42,5.86-2.03-.19-.51-.35-.92-.56-1.47ZM137.17,130.98c-2.32.16-4.66.22-6.96.49-4.75.56-9.49,1.23-14.23,1.84-2.69.35-5.4.63-8.09.98-3.21.42-6.41.87-9.61,1.36-2.04.31-4.15.5-6.09,1.16-1.46.5-2.86,1.01-4.41,1.22-.68.09-1.28.69-1.92,1.06,5.05-.16,9.72-1.89,14.66-2.18,3.93-.23,7.84-.86,11.76-1.32,5.59-.66,11.19-1.24,16.77-2.04,2.79-.4,5.57-1.05,8.11-2.57ZM112.87,85.03c.07.97.15,1.94.23,3.02,1.44-.35,1.99-1.25,2.29-2.22.62-1.98,1.24-3.97,1.6-6,.36-2.03,1.55-4,.64-6.17-.08-.2-.01-.47-.01-.71-1.95-.49-3.18.47-4.28,1.77-2.79,3.3-4.88,7.02-6.41,11.05-.31.81-.44,1.69-.66,2.54.13.09.27.19.4.28.9-.69,1.72-1.64,2.74-2,1.19-.42,1.81-2.02,3.46-1.55ZM82.58,73.62c.45-.61.9-1.13,1.26-1.71.4-.66.65-1.43,1.1-2.06.59-.84,1.17-2.05,1.99-2.27,1.52-.41,2.2-1.46,3.16-2.58-.79-.17-1.4-.3-2.23-.48.37-1.16.3-2.6,1.6-2.93,2-.5,2.97-1.99,3.98-3.47.33-.48.35-1.16.51-1.76-3.68-.78-6.12.28-7.71,3.23-.49.91-1.06,1.81-1.41,2.77-1.05,2.86-2.07,5.73-2.98,8.63-.24.77-.68,1.79.75,2.63Z"/>
    <path class="cls-4" d="M120.97,107.82c-.45-2.29,1.27-4.08.88-6.45-1.45,1.15-2.72,2.16-4.15,3.3-.46-.85-.78-1.43-1.23-2.26-.41.7-.73,1.23-1.04,1.77-.68,1.18-1.33,2.38-2.05,3.53-.57.93-1.37,1.33-2.71.7.18-1.02.27-2.1.56-3.13,1.18-4.2,2.81-8.23,5.01-11.99.6-1.03,1.55-1.89,2.43-2.73.64-.61,1.45-.77,2.26-.33-.25,1.89-.5,3.69-.74,5.48.07.06.14.11.21.17.42-.61.88-1.19,1.26-1.82,1.35-2.24,3.53-3.6,5.5-5.16.85-.68,1.69-.22,1.74.88.03.7-.12,1.42-.32,2.1-1.12,3.92-2.27,7.84-3.43,11.75-.2.68-.43,1.37-.76,2-.7,1.32-1.7,2.26-3.44,2.2Z"/>
    <path class="cls-4" d="M126.66,113.37c-.23,1.2-.35,2.44-.72,3.6-1.07,3.35-2.46,6.58-4.48,9.46-.91,1.31-2.1,2.48-3.35,3.48-1.38,1.11-3.1,1.28-4.8.8-2.04-.58-2.81-1.65-2.71-3.91.18-4.33,1.63-8.25,4.19-11.74.8-1.09,1.74-2.1,2.69-3.08,1.02-1.06,2.22-1.77,3.79-1.64.34.03.73-.12,1.06-.27,2.45-1.19,4.07-.24,4.2,2.48.01.26,0,.52,0,.78.05,0,.1.02.15.03ZM121.31,114.29c-1.93,1.74-5.1,6.04-6.13,8.41-.46,1.06-.82,2.18-1.07,3.31-.19.85,0,1.73.89,2.16.97.46,1.57-.19,2.13-.87,1.72-2.09,2.84-4.5,3.51-7.09.47-1.86,1.2-3.71.67-5.92Z"/>
    <path class="cls-4" d="M102.49,130.87c-.24-2.94,1.46-5.28,2-8.02-1.56-.07-2.54.49-3.18,1.66-.66,1.19-1.23,2.43-1.94,3.6-.67,1.1-1.44,2.15-2.21,3.19-.41.56-.92.84-1.68.47-.79-.39-.69-1-.59-1.65.07-.45.17-.89.31-1.32,1.45-4.37,2.72-8.81,4.82-12.93.26-.52.49-1.06.79-1.56,1.51-2.52,2.29-2.87,5.39-2.44-1.12,2.46-2.22,4.89-3.33,7.33,2.1.75,3.59.16,4.36-1.52.75-1.65,1.45-3.33,2.27-4.95.81-1.61,1.81-2.07,3.87-1.84-.25.87-.43,1.73-.75,2.54-1.9,4.75-3.85,9.49-5.76,14.24-.58,1.43-2.36,2.85-4.37,3.2Z"/>
    <path class="cls-4" d="M89.95,103.69c1.32-2.27,3.12-3.2,5.1-2.85,1.13.2,1.4.55,1.35,1.71-.05,1.23-.61,2.24-1.37,3.15-1.67,2-3.53,3.76-5.79,5.13-1.54.93-3.13,1.19-4.84,1-1.78-.19-2.63-1.15-2.73-2.94-.14-2.69.65-5.14,1.99-7.41,1.62-2.74,3.36-5.42,5.97-7.34,1.03-.75,2.18-1.41,3.38-1.83,2.15-.75,3.38-.21,4.2,1.53.88,1.88.41,3.55-1.35,4.72-.21.14-.47.2-.76.32-.35-.48-.69-.94-1.11-1.52-.37.13-.81.22-1.16.44-1.93,1.22-3.73,2.59-4.98,4.56-.17.27-.36.54-.51.83-.79,1.45-.79,2.82,0,3.63,1.08,1.1,2.3.64,3.44.19.7-.28,1.38-.76,1.91-1.3.35-.36.42-.99.61-1.5-.45-.17-.9-.42-1.37-.49-.56-.09-1.15-.02-1.98-.02Z"/>
    <path class="cls-4" d="M132.6,123.48c-.15-.73-.26-1.27-.41-2.02-1.14.73-1.43,1.79-1.82,2.76-.4,1.02-.67,2.1-1.1,3.11-.83,1.97-1.44,2.26-3.89,1.98-.47-.93-.13-1.9.17-2.77,1.67-4.86,3.92-9.45,6.68-13.78,1.44-2.26,3.65-3.63,6.09-4.64,1-.41,1.57-.22,2.09.76.29.56.52,1.22.51,1.84,0,1.61.05,3.27-.29,4.83-.83,3.82-3.23,6.38-6.86,7.77-.28.11-.62.09-1.17.15ZM132.5,120.08c.74-.08.96-.04,1.11-.13,1.91-1.09,3.76-4.88,3.37-7.05-.05-.31-.51-.54-.97-1.01-1.21,2.82-2.29,5.33-3.51,8.18Z"/>
    <path class="cls-4" d="M110.76,90.3c.36,1.09.7,1.87.85,2.69.13.66.22,1.43.02,2.05-1.27,4.08-2.61,8.14-3.96,12.19-.3.91-.64,1.86-1.75,2.24-1.73-.85.03-2.37-.65-3.5-1.71-.36-2.64,1.3-4.07,1.77-1.3.43-2.25,1.93-3.6,3.19-.25-.76-.52-1.21-.51-1.66.03-.83.1-1.71.38-2.48,1.24-3.41,2.56-6.76,4.72-9.75,1.79-2.46,4.05-4.36,6.48-6.08.62-.44,1.51-.49,2.08-.66ZM107.41,96.72c-.13-.07-.26-.15-.39-.22-.49.55-1.09,1.04-1.45,1.67-.82,1.46-1.53,2.98-2.26,4.48-.26.53-.47,1.12.14,1.57.51.38,1.67.07,2.06-.54.17-.26.25-.59.33-.9.33-1.24.65-2.49.97-3.73.2-.77.4-1.55.6-2.33Z"/>
    <path class="cls-4" d="M136.92,105.13c-2.35,1.77-4.96,3.01-8.1,2.8-1.07-.07-1.61-.74-1.41-1.89.23-1.33.55-2.68,1.08-3.92,1.11-2.62,2.41-5.17,3.57-7.77.44-.99.64-2.08,1.06-3.08.26-.62.58-1.39,1.11-1.68,2.11-1.17,4.38-1.92,6.84-1.88.32,0,.65.05.95.14.16.05.28.25.58.53-.27.39-.48.89-.85,1.15-1.22.85-2.46,1.68-3.76,2.37-1.15.61-2.02,1.41-2.38,2.67-.3,1.05.14,1.61,1.24,1.63.51.01,1.02-.02,1.53,0,.1,0,.19.15.33.27.12.77-.46,1.15-.98,1.47-.82.51-1.67,1.01-2.57,1.35-1.52.57-2.11,1.84-2.62,3.19-.27.72.09,1.13.82,1.18.65.04,1.3.07,1.94.01.94-.08,1.48.28,1.62,1.46Z"/>
    <path class="cls-4" d="M96.54,116.05c-1.47.5-2.86.82-4.11,1.44-1.9.94-2.03,2.3-.57,3.87.35.38.74.74,1.01,1.18.78,1.29,1.15,2.8.3,4.05-2.14,3.18-4.88,5.54-9.04,5.46-.26,0-.53.02-.78-.04-.89-.19-1.31-.81-1.36-1.66-.06-.84.41-1.35,1.22-1.49.56-.1,1.17-.21,1.72-.11,1.33.23,2.26-.37,3.06-1.27,1.06-1.19,1.06-2.23.02-3.46-.42-.49-.93-.9-1.37-1.38-1.44-1.55-1.54-3.43-.23-5.11,2.48-3.16,5.86-4.56,9.75-4.94.44-.04.94-.06,1.34.1.31.12.62.5.72.83.06.2-.25.72-.45.75-1.11.21-1.37.94-1.23,1.77Z"/>
    <path class="cls-4" d="M105.08,58.49c-.15.87-.18,1.73-.44,2.52-1.14,3.4-2.6,6.65-5.08,9.31-.7.75-1.53,1.41-2.4,1.94-2.19,1.34-4.77.21-5.12-2.34-.17-1.24,0-2.61.36-3.82.55-1.85,1.3-3.66,2.13-5.42.97-2.06,2.59-3.59,4.73-4.4,1.22-.46,2.54-.77,3.84-.85.51-.03,1.22.65,1.57,1.19.33.5.29,1.23.42,1.86ZM100.32,59.2c-1.28,1.81-2.58,3.5-3.7,5.29-.68,1.08-1.15,2.31-1.6,3.52-.21.58-.24,1.28-.17,1.91.08.75.75,1.11,1.43.81.39-.17.8-.47,1.04-.83,1.65-2.49,3.03-5.12,3.79-8.03.23-.86.38-1.8-.77-2.67Z"/>
    <path class="cls-4" d="M106.47,76.81c-.22,4.67-1.85,8.27-4.97,11.09-1.41,1.27-3.06,2.1-5.15,1.32-1.44-.54-2.12-1.5-2.1-2.91.02-1.15.12-2.37.52-3.44,1.05-2.81,2.51-5.41,4.81-7.43.76-.67,1.56-1.11,2.6-1.14.49-.01,1-.17,1.47-.36,1.25-.5,1.75-.37,2.28.87.32.76.44,1.6.54,2ZM102.72,77.59c-.68.43-1.06.56-1.26.82-1.26,1.64-2.54,3.26-3.68,4.98-.48.72-.68,1.66-.88,2.52-.16.7-.15,1.48.7,1.8.83.3,1.55-.01,2.05-.68,1.97-2.66,2.92-5.66,3.06-9.43Z"/>
    <path class="cls-4" d="M83.18,90.94c-1.06-.82-1.04-1.9-.88-3.02.49-3.44,2.13-6.37,4.15-9.11.61-.83,1.25-1.69,2.03-2.35.77-.65,1.68-1.22,2.63-1.56,1.01-.36,2.05-.16,2.8.8.78,1,.82,2.04.14,3.06-.68,1.03-1.43,2-2.16,3-.22.31-.46.61-.67.88,1.47,2.11,1.47,3.08-.09,5.09-1.54,1.99-3.42,3.32-6.15,2.88-.52-.08-1.09.19-1.8.33ZM85.78,89.16c2.02-.03,3.5-1,3.99-2.35.31-.86-.18-1.56-1.14-1.49-.68.05-1.34.32-2.13.51-.23,1.06-.45,2.09-.72,3.33ZM91.21,77.88c-1.4.02-2.29.89-2.7,2.44-.1.39-.1,1.09.11,1.21.37.21,1.06.28,1.39.07.74-.47,1.42-1.1,1.97-1.79.26-.33.38-1.04.2-1.39-.18-.35-.82-.46-.98-.55Z"/>
    <path class="cls-4" d="M142.43,53.04c-.73,1-1.37,1.87-2.14,2.91-.7.2-1.66.38-2.55.74-1.69.68-1.93,1.71-.85,3.18,2.13,2.88,1.93,4.8-.75,7.22-1.94,1.75-4.15,2.57-6.77,2.01-.67-.14-1.24-.33-1.3-1.18-.05-.78.35-1.24,1.02-1.46,1.17-.38,2.35-.7,3.53-1.04,1.96-.57,2.3-1.6,1.09-3.29-.26-.37-.58-.69-.89-1.03-1.3-1.46-1.39-2.45-.5-4.23,1.71-3.43,4.76-4.56,8.28-4.81.55-.04,1.14.59,1.83.97Z"/>
    <path class="cls-4" d="M124.91,81.81c.15,1.66,1.41,2.92,1.08,4.56-.87-.12-1.67-.23-2.85-.4-.27-.76-.65-1.82-1.07-2.98-1.32.88-1.86,2.29-2.55,3.56-.46.83-.94,1.4-2.12.88,0-.42-.13-.95.02-1.39.7-2.08,1.35-4.19,2.27-6.17.92-1.99,2.12-3.85,3.25-5.74,1.07-1.79,2.66-2.79,4.79-2.79,1.86,0,2.62.8,2.43,2.66-.08.74-.34,1.54-.75,2.15-1.02,1.49-2.17,2.89-3.29,4.31-.39.5-.85.95-1.21,1.35ZM123.5,78.99c1.81-.54,3.47-2.44,3.38-3.86-.02-.37-.34-.83-.66-1.02-.21-.12-.81.06-.99.3-1,1.33-1.65,2.81-1.74,4.58Z"/>
    <path class="cls-4" d="M129.57,86.97c-1.01-1.12-.87-2.42-.56-3.55.65-2.37,1.51-4.68,2.34-7,.39-1.1.89-2.15,1.39-3.21.89-1.89,1.69-2.28,3.71-1.88,3.1.61,4.79,3.12,4.03,6.19-.26,1.04-.74,2.09-1.34,2.98-1.41,2.07-3.33,3.66-5.47,4.89-1.25.72-2.71,1.06-4.1,1.57ZM132.01,84.25c2.75-1.33,4.58-2.95,5.38-5.51.38-1.2.27-2.46-.38-3.58-.22-.39-.66-.65-1.16-1.12-1.32,3.42-3.43,6.21-3.84,10.21Z"/>
    <path class="cls-4" d="M113.46,71.21c-1.9-.71-2.29-2.52-3.06-4.4-.61.74-1.02,1.21-1.39,1.7-.59.77-1.14,1.57-1.75,2.33-.62.79-1.4,1.12-2.52.59.27-.52.47-1.06.79-1.53,1.24-1.82,2.46-3.66,3.79-5.41.62-.81.74-1.58.58-2.53-.22-1.27-.43-2.56-.44-3.84,0-1.09.23-2.2,1.54-2.83,1.41,1.49.19,3.35.68,5.15,1.76-.93,2.73-2.46,3.92-3.76.04-.04.08-.12.07-.18-.13-.68-.41-1.43.48-1.8.94-.39,1.91-.74,2.89-1.01.4-.11.87.06,1.57.13-.29.59-.42,1.09-.72,1.45-1.69,2.05-3.34,4.14-5.17,6.06-1.09,1.14-1.39,2.27-.93,3.69.16.49.35.98.47,1.48.22.88.65,1.8.53,2.64-.1.72-.84,1.34-1.33,2.05Z"/>
    <path class="cls-4" d="M125.01,66.99c.21.56.36.96.56,1.47-1.64,1.61-3.7,2.06-5.86,2.03-1.58-.02-2.12-.71-1.81-2.27.56-2.81,1.52-5.49,2.91-8.01.79-1.44,2.11-2.64,2.06-4.5,0-.32.5-.77.87-.97,1.97-1.06,4.1-1.53,6.32-1.64.09,0,.19.15.36.3-.02.89-.63,1.46-1.3,1.97-.98.75-1.99,1.45-2.98,2.19-1,.74-1.58,1.67-1.3,3.12.71.07,1.38.15,2.13.22-.23,1.01-1.12,1.22-1.77,1.7-.88.65-1.76,1.3-2.58,2.02-.32.28-.56.72-.72,1.14-.46,1.17,0,1.77,1.24,1.63.57-.07,1.13-.23,1.88-.39Z"/>
    <path class="cls-4" d="M137.17,130.98c-2.55,1.52-5.32,2.17-8.11,2.57-5.57.8-11.17,1.38-16.77,2.04-3.92.46-7.83,1.09-11.76,1.32-4.94.29-9.61,2.02-14.66,2.18.64-.37,1.25-.97,1.92-1.06,1.54-.2,2.95-.72,4.41-1.22,1.94-.66,4.04-.85,6.09-1.16,3.2-.49,6.4-.94,9.61-1.36,2.69-.36,5.39-.64,8.09-.98,4.74-.61,9.48-1.29,14.23-1.84,2.31-.27,4.64-.33,6.96-.49Z"/>
    <path class="cls-4" d="M112.87,85.03c-1.65-.47-2.27,1.13-3.46,1.55-1.02.36-1.83,1.31-2.74,2-.13-.09-.27-.19-.4-.28.21-.85.35-1.72.66-2.54,1.53-4.03,3.62-7.74,6.41-11.05,1.1-1.3,2.33-2.26,4.28-1.77,0,.25-.07.51.01.71.91,2.17-.28,4.14-.64,6.17-.36,2.03-.98,4.03-1.6,6-.3.98-.85,1.88-2.29,2.22-.08-1.08-.16-2.05-.23-3.02ZM111.19,83.57c2.44.39,2.79.15,3-1.9.1-.96.21-1.92.26-2.89.02-.39-.14-.79-.21-1.18-.13-.02-.27-.04-.4-.06-.95,1.96-2.1,3.83-2.65,6.03Z"/>
    <path class="cls-4" d="M82.58,73.62c-1.43-.84-.99-1.86-.75-2.63.91-2.9,1.93-5.78,2.98-8.63.36-.97.92-1.86,1.41-2.77,1.59-2.95,4.03-4.02,7.71-3.23-.16.6-.18,1.29-.51,1.76-1.02,1.48-1.98,2.97-3.98,3.47-1.29.32-1.22,1.76-1.6,2.93.83.18,1.45.31,2.23.48-.96,1.12-1.64,2.17-3.16,2.58-.81.22-1.4,1.44-1.99,2.27-.44.63-.69,1.39-1.1,2.06-.35.58-.81,1.1-1.26,1.71Z"/>
    <path class="cls-5" d="M121.31,114.29c.53,2.21-.2,4.06-.67,5.92-.66,2.6-1.78,5-3.51,7.09-.56.68-1.17,1.33-2.13.87-.89-.43-1.09-1.31-.89-2.16.26-1.13.61-2.25,1.07-3.31,1.03-2.37,4.2-6.67,6.13-8.41Z"/>
    <path class="cls-5" d="M132.5,120.08c1.22-2.85,2.3-5.37,3.51-8.18.46.46.91.7.97,1.01.39,2.17-1.46,5.96-3.37,7.05-.15.09-.37.05-1.11.13Z"/>
    <path class="cls-5" d="M107.41,96.72c-.2.78-.4,1.55-.6,2.33-.32,1.24-.64,2.49-.97,3.73-.08.31-.16.64-.33.9-.39.61-1.55.92-2.06.54-.61-.45-.39-1.04-.14-1.57.73-1.51,1.44-3.02,2.26-4.48.35-.63.96-1.11,1.45-1.67.13.07.26.15.39.22Z"/>
    <path class="cls-5" d="M100.32,59.2c1.15.86,1,1.8.77,2.67-.76,2.91-2.14,5.54-3.79,8.03-.23.35-.64.65-1.04.83-.68.3-1.35-.06-1.43-.81-.06-.63-.04-1.32.17-1.91.44-1.21.92-2.43,1.6-3.52,1.13-1.79,2.42-3.48,3.7-5.29Z"/>
    <path class="cls-5" d="M102.72,77.59c-.14,3.77-1.09,6.77-3.06,9.43-.5.67-1.22.99-2.05.68-.86-.31-.86-1.1-.7-1.8.2-.87.4-1.8.88-2.52,1.13-1.72,2.42-3.34,3.68-4.98.2-.26.58-.38,1.26-.82Z"/>
    <path class="cls-5" d="M85.78,89.16c.27-1.23.49-2.26.72-3.33.78-.2,1.45-.46,2.13-.51.96-.08,1.45.63,1.14,1.49-.49,1.36-1.97,2.33-3.99,2.35Z"/>
    <path class="cls-5" d="M91.21,77.88c.16.08.79.19.98.55.18.35.07,1.06-.2,1.39-.55.69-1.23,1.31-1.97,1.79-.33.21-1.02.14-1.39-.07-.21-.12-.21-.82-.11-1.21.41-1.55,1.3-2.42,2.7-2.44Z"/>
    <path class="cls-5" d="M123.5,78.99c.09-1.77.74-3.25,1.74-4.58.18-.23.77-.42.99-.3.32.19.64.65.66,1.02.09,1.42-1.57,3.32-3.38,3.86Z"/>
    <path class="cls-5" d="M132.01,84.25c.41-4,2.52-6.8,3.84-10.21.49.46.93.73,1.16,1.12.64,1.12.75,2.38.38,3.58-.8,2.56-2.62,4.18-5.38,5.51Z"/>
    <path class="cls-5" d="M111.19,83.57c.54-2.2,1.7-4.07,2.65-6.03.13.02.27.04.4.06.08.39.23.79.21,1.18-.04.96-.16,1.93-.26,2.89-.21,2.05-.55,2.29-3,1.9Z"/>
  </g>
</svg>