<?xml version="1.0" encoding="UTF-8"?>
<svg id="Layer_1" data-name="Layer 1" xmlns="http://www.w3.org/2000/svg" viewBox="0 0 180 200">
  <defs>
    <style>
      .cls-1, .cls-2, .cls-3, .cls-4, .cls-5 {
        fill-rule: evenodd;
      }

      .cls-1, .cls-6 {
        fill: #fff;
      }

      .cls-2 {
        fill: #231f20;
      }

      .cls-3 {
        fill: #ed2d2c;
      }

      .cls-4 {
        fill: #ef766e;
      }

      .cls-6 {
        font-family: AmericanTypewriter-Bold, 'American Typewriter';
        font-size: 17.9px;
        font-weight: 700;
      }

      .cls-5 {
        fill: #3d5594;
      }
    </style>
  </defs>
  <g>
    <g>
      <path class="cls-1" d="M152.39,100.91s-.1-.01-.16-.02c0-.15.2-.13.16.02h0Z"/>
      <path class="cls-1" d="M148.85,100.74c.08,0,.15.02.23.02,0,.06-.01.11-.02.16-.07,0-.06-.03-.07-.08-.07.03-.07.15-.21.09-.06-.08.03-.11.07-.19h0Z"/>
      <path class="cls-4" d="M54.92,73.08c3.36-.22,6.73-.37,10.08-.69,5.56-.51,11.12-.54,16.68-.33,5.23.19,10.46.64,15.69.89,3.69.17,7.39.2,11.08.31,4.83.15,9.66.37,14.49.47,6.62.15,13.24.2,19.86.31,7.15.13,14.29-.34,21.44-.56,2.51-.07,5.04.01,7.55-.02.77,0,1.53-.15,2.3-.22,1.19-.11,1.48.19,1.53,1.39.14,3.04.32,6.08.48,9.12.13,2.51.31,5.01.38,7.52.04,1.46-.13,2.92-.13,4.38.01,3.86.07,7.71.1,11.57,0,1.62.03,3.25-.05,4.87-.06,1.16-.55,1.37-1.45.68-.56-.43-1.13-.55-1.8-.53-5.04.12-10.07.21-15.11.35-1.01.03-2.02.18-3.03.31-4.69.59-9.41.59-14.11.47-2.43-.06-4.86-.25-7.29-.01-2.1.2-4.2.45-6.31.6-2.22.16-4.46.28-6.69.35-3.37.11-6.74.25-10.11.22-4.79-.04-9.58-.2-14.37-.33-6.62-.19-13.23-.39-19.85-.61-3.45-.12-6.9-.3-10.35-.45-2.23-.09-4.47-.07-6.7-.27-3.5-.3-6.98.05-10.46.23-.36.02-.74.02-1.09-.04-1.26-.22-1.54-.58-1.64-1.85-.3-3.94-.13-7.87.24-11.8.19-2.06.22-4.14.29-6.21.21-5.88.39-11.77.59-17.65.02-.57.08-1.13.1-1.7.02-.63.33-.81.94-.81,2.23-.02,4.46-.08,6.69-.12,0,.05,0,.12.01.17ZM47.68,111.85c.31.04.55.11.78.09,2.59-.14,5.18-.4,7.78-.42,2.96-.02,5.93.17,8.89.28,4.79.19,9.58.41,14.36.57,7.55.27,15.1.5,22.65.74,2.07.07,4.14.18,6.21.15,4.47-.05,8.94-.1,13.4-.3,3.49-.15,6.96-.52,10.45-.81,2.42-.2,4.84-.59,7.29-.26,1.24.16,2.51.19,3.76.16,4.51-.1,9-.3,13.5-.66,5.62-.44,11.29-.3,16.93-.41.39,0,.77.03,1.17.04.06-.83.16-1.52.15-2.21,0-2.15-.05-4.3-.09-6.45-.03-1.58-.11-3.16-.1-4.74,0-2.56.11-5.12.09-7.67,0-1.37-.23-2.74-.29-4.11-.15-3.37-.27-6.73-.41-10.1-.01-.31-.09-.61-.13-.86-.78.01-1.47.04-2.16.04-2.6-.01-5.2-.11-7.8-.03-8.16.28-16.31.73-24.48.5-7.23-.2-14.46-.24-21.69-.41-4.18-.09-8.36-.28-12.54-.41-2.4-.07-4.8-.04-7.19-.16-4.95-.26-9.89-.68-14.84-.87-6.29-.24-12.59-.31-18.87.37-1.82.2-3.64.39-5.46.41-3.08.05-6.16-.03-9.25-.06-.31,0-.63.01-1.01.02-.04.56-.1,1.04-.12,1.52-.16,5-.29,9.98-.49,14.97-.15,3.77-.39,7.54-.6,11.31-.18,3.2-.35,6.41.1,9.73Z"/>
      <path class="cls-1" d="M47.68,111.85c-.45-3.32-.29-6.53-.1-9.73.21-3.77.45-7.54.6-11.31.2-4.99.33-9.98.49-14.97.02-.48.07-.96.12-1.52.39,0,.7-.02,1.01-.02,3.08.02,6.17.1,9.25.06,1.82-.03,3.65-.21,5.46-.41,6.28-.68,12.58-.62,18.87-.37,4.95.19,9.89.61,14.84.87,2.39.13,4.79.09,7.19.16,4.18.13,8.36.32,12.54.41,7.23.16,14.46.21,21.69.41,8.17.22,16.33-.22,24.48-.5,2.6-.09,5.2.01,7.8.03.69,0,1.38-.03,2.16-.04.04.25.12.56.13.86.14,3.37.25,6.73.41,10.1.06,1.37.29,2.74.29,4.11.02,2.56-.08,5.11-.09,7.67,0,1.58.07,3.16.1,4.74.04,2.15.08,4.3.09,6.45,0,.69-.09,1.37-.15,2.21-.39-.01-.78-.05-1.17-.04-5.65.11-11.31-.03-16.93.41-4.5.35-8.99.56-13.5.66-1.25.03-2.52,0-3.76-.16-2.45-.33-4.86.06-7.29.26-3.48.29-6.96.65-10.45.81-4.46.2-8.93.24-13.4.3-2.07.02-4.14-.08-6.21-.15-7.55-.24-15.1-.47-22.65-.74-4.79-.16-9.58-.38-14.36-.57-2.96-.11-5.93-.31-8.89-.28-2.59.01-5.18.28-7.78.42-.23.02-.47-.05-.78-.09ZM94.05,93.19c-.09-.18-.17-.31-.22-.45-1.09-2.83-2.17-5.67-3.27-8.5-.11-.27-.37-.47-.57-.71-.25.22-.65.4-.73.68-.22.73-.38,1.49-.42,2.26-.16,3-.25,6-.38,9,0,.24-.07.48-.15.71-.15.42-.14.79.28,1.07.41.28.84.31,1.26.05.4-.26.74-.72.5-1.13-.55-.96-.12-1.91-.11-2.85.01-1.31.19-2.63.3-3.93.09-.01.17-.02.26-.03.67,1.86,1.35,3.72,2.01,5.58.2.57.32,1.18.55,1.74.26.64.78.71,1.19.14.26-.35.44-.78.57-1.2.53-1.76,1.28-3.42,2.24-4.98.36-.58.6-1.24.9-1.86.13-.26.28-.51.52-.93-.15,2.98-.27,5.72-.41,8.47-.04.81.19,1.23.76,1.28.6.05,1.07-.43,1.13-1.16.01-.16,0-.32,0-.49,0-3.21,0-6.42.04-9.62,0-.6.19-1.19.28-1.78.09-.66-.28-1.23-.81-1.31-.52-.08-.87.24-1.05.94-.13.51-.25,1.02-.41,1.52-.85,2.67-2.62,4.84-3.95,7.25-.05.09-.17.13-.31.24ZM116.52,90.47c.07-.01.15-.03.22-.05,1.57,1.95,3.15,3.89,4.72,5.84.18.22.34.46.54.66.34.33.71.32,1.09.03.66-.49.7-1.3-.05-1.68-.64-.32-.96-.84-1.32-1.37-1.14-1.71-2.27-3.43-3.5-5.29,1.31-1.02,2.69-2.08,4.02-3.17.24-.2.45-.58.45-.89.01-.54-.21-1.06-.81-1.22-.65-.16-.94.35-1.22.79-.19.3-.25.72-.5.94-1,.89-2.05,1.73-3.09,2.56-.14.11-.36.12-.7.22.09-1.13.09-2.15.29-3.13.12-.6-.03-.98-.47-1.24-.24-.14-.79-.19-.86-.08-.21.34-.35.79-.35,1.2,0,.76.2,1.52.19,2.28-.02,2.84-.09,5.68-.15,8.51,0,.28-.08.56-.13.84-.12.69.09,1.14.6,1.26.48.12.93-.26.97-.99.08-1.62.09-3.24.12-4.86,0-.39-.06-.78-.08-1.17ZM151.27,89.25c-.09,1.75-.15,3.36-.27,4.97-.04.55-.18,1.11-.36,1.63-.26.76.13,1.3.92,1.19.86-.12,1.17-.72,1.09-1.85-.09-1.37-.12-2.75-.16-4.12-.02-.53.02-1.06.01-1.58-.03-1.52-1.04-2.13-2.35-1.38-.45.26-.84.63-1.25.96-.24.2-.48.4-.83.7-.07-.46-.17-.76-.15-1.06.08-1.57-.49-3.12-.12-4.71.12-.54-.48-1.13-1.01-1.16-.5-.02-.8.44-.76,1.16,0,.12.04.24.05.36.07,1.01.27,2.02.17,3.01-.31,2.96-.2,5.91-.01,8.86.03.43,0,.99.58,1.07.55.07.88-.36,1.1-.81.1-.21.13-.47.14-.71.04-.77.13-1.55.05-2.31-.09-1,.2-1.81.88-2.53.6-.64,1.08-1.42,2.28-1.7ZM168.75,89.11c.04.51.1.75.07.99-.18,1.69-.36,3.39-.57,5.08-.08.67-.15,1.32.47,1.76.6.43,1.15.15,1.6-.14.16-2.01.32-3.93.44-5.87.03-.48.03-1.01-.15-1.44-.74-1.72-1.9-2.87-3.65-1.32-.41.37-.91.64-1.48,1.03-.1-.62-.15-1.09-.25-1.55-.09-.42-.44-.64-.82-.55-.26.07-.53.34-.68.59-.11.18-.04.47-.04.71-.03,1.38-.08,2.76-.08,4.13,0,1.26.04,2.51.11,3.77.01.25.21.66.36.68.32.04.79-.02.98-.24.23-.25.31-.71.32-1.08,0-1.17-.07-2.35-.08-3.52,0-.83.33-1.49,1.08-1.91.35-.2.65-.5,1.01-.68.38-.19.8-.28,1.34-.45ZM77.71,93.14c1.36-.28,2.52-.46,3.65-.77.61-.16,1.22-.46,1.73-.83.73-.54.93-1.54.59-2.3-.61-1.33-2.52-2-3.84-1.32-1.57.82-2.45,2.21-3.08,3.78-.53,1.3-.72,2.62-.36,4.04.41,1.61,2.8,2.73,4.35,1.66.92-.63,1.76-1.31,2.2-2.37.11-.26.23-.53.26-.8.05-.48-.11-.92-.62-1.05-.44-.11-.62.24-.81.57-.24.41-.47.96-.85,1.13-.76.35-1.61.51-2.44.69-.43.09-.7-.24-.74-.63-.06-.59-.04-1.19-.05-1.81ZM106.48,94.21c-.31-.57-.52-.91-.68-1.27-.62-1.4-1.26-2.8-1.84-4.23-.19-.46-.43-.85-.9-.86-.29,0-.7.22-.88.47-.3.41-.09.84.18,1.24.44.66.88,1.34,1.26,2.04.7,1.28,1.38,2.56,2.05,3.86.12.24.29.58.21.77-.51,1.18-1.06,2.36-1.67,3.5-.17.33-.57.69-1.02.41-.39-.24-.63-.59-.43-1.13.09-.24.02-.77-.13-.84-.29-.14-.73-.13-1.02,0-.17.08-.26.55-.2.81.13.58.31,1.18.58,1.71.27.54.8.84,1.42.75,1.08-.16,2.04-.58,2.55-1.63.3-.62.62-1.24.87-1.88,1.13-2.91,2.23-5.83,3.35-8.75.23-.6-.05-1.21-.61-1.37-.47-.13-.78.12-1.01.78-.42,1.22-.84,2.45-1.28,3.67-.21.6-.48,1.17-.8,1.95ZM156.07,93.48c1.54-.54,2.99-1.04,4.45-1.55.98-.34,1.36-1.09,1.37-2.07.01-1.02-.29-1.46-1.39-1.88-.49-.19-1.01-.28-1.52-.39-.66-.15-1.22.08-1.66.54-2.04,2.1-2.96,4.63-2.73,7.53.08,1.06,1.03,1.88,2,1.74,1.61-.23,3.17-.71,4.48-1.73.24-.19.44-.5.54-.79.25-.71-.04-1.35-.61-1.5-.57-.15-.93.14-1.21.88-.14.36-.29.81-.58,1-.46.3-1.03.49-1.58.62-.83.2-1.34-.12-1.51-.97-.1-.5-.04-1.03-.04-1.42ZM130.54,89.15c.01.76.03,1.27.03,1.79.01,1.74-.03,3.48.05,5.22.05,1.01.53,1.36,1.5,1.32,1.42-.05,4.08-2.58,4.16-3.99.01-.23-.16-.59-.34-.67-.18-.07-.53.08-.71.25-.32.3-.63.65-.84,1.03-.52.97-1.38,1.3-2.55,1.44.07-2.19.13-4.31.2-6.44,1.21-.45,2.85,0,3.11-1.8-.91-.88-1.89.05-2.85-.18,0-.51-.02-.99-.03-1.47-.01-.69-.26-1.08-.7-1.1-.44-.03-1.05.45-1.09.97-.04.39.08.79.16,1.18.09.48-.05.79-.54.91-.31.08-.63.16-.93.28-.26.1-.53.2-.74.37-.35.28-.51.71-.2,1.06.15.17.57.16.86.14.42-.04.84-.18,1.46-.32ZM54.37,95.44c0-.35-.02-.58-.01-.81.02-3.25.05-6.48.07-9.73,0-.25.03-.49,0-.73-.11-.71-.61-.94-1.24-.58-.39.22-.59.52-.53.99.05.44.09.89.08,1.33-.03,2.76-.06,5.52-.12,8.27-.01.58-.15,1.18-.29,1.75-.21.88.29,1.55,1.11,1.36,1.27-.29,2.53-.46,3.85-.37.48.03,1.03-.21,1.46-.48.45-.27.52-1.03.25-1.42-.27-.4-.67-.41-1.28-.08-.23.13-.49.26-.75.29-.81.09-1.62.12-2.59.2ZM67.59,90.73c-.01-1.53-1.08-2.82-2.59-3.06-1.14-.18-2.07.36-2.85,1.09-1.61,1.54-2.32,3.5-2.4,5.68-.04.95.31,1.81,1.26,2.18,1.85.71,3.37.66,4.84-1.03,1.2-1.39,1.61-3.06,1.74-4.86ZM71.36,94.04c-.28-1.8-.57-3.56-.83-5.31-.07-.45-.07-.96-.68-.97-.57-.01-.71.45-.81.9-.03.16-.03.32-.03.48,0,2.37.5,4.68.98,6.98.06.28.16.55.31.79.22.36.59.5.92.2.47-.43.93-.89,1.3-1.4.35-.48.56-1.08.9-1.58,1.13-1.62,1.74-3.48,2.52-5.26.07-.15.18-.32.15-.46-.06-.25-.15-.6-.33-.7-.17-.09-.5.06-.74.17-.12.06-.19.25-.27.4-1.11,1.87-2.21,3.75-3.39,5.76ZM143.22,90.28c.21-.06.38-.08.52-.14.47-.23.78-.58.72-1.15-.06-.56-.5-.55-.89-.63-.12-.02-.23-.09-.34-.14-1.28-.57-2.43-.3-3.53.51-2.11,1.56-3.17,4.86-1.9,7.79.36.84.92,1.24,1.7,1.04,1.86-.46,3.45-1.4,4.58-2.98.19-.26.26-.7.21-1.03-.04-.26-.31-.57-.55-.67-.16-.06-.51.17-.67.37-.17.2-.2.52-.31.78-.42,1.1-1.86,1.96-3.03,1.81-.87-.11-1.23-.48-1.19-1.36.02-.48.06-.98.19-1.44.31-1.04.56-2.13,1.34-2.96.91-.96,2.38-.92,3.15.18ZM125.81,109.73s.07.1.18.12c1.52.23,2.98.02,4.36-.68,2.15-1.09,2.05-4.92.17-5.85-1.59-.79-3.22-.78-5.11-.16,1.08.43.75,1.21.75,1.9,0,.93-.01,1.86-.07,2.79-.03.56-.16,1.12-.28,1.88ZM105.88,109.53c.94.69,1.31.8,2.2.47.22-.08.37-.35.56-.52-.21-.14-.41-.39-.63-.41-.48-.03-.98.09-1.2-.43.48-.84.93-1.63,1.38-2.41q-.86-.37-1.71-.01c.2.56.61,1.2-.38,1.6-.33-.63-.65-1.23-.98-1.85.26-.34.54-.63.72-.98.34-.67.28-1.35-.14-1.96-.36-.51-.91-.49-1.44-.38-.63.13-1.2.82-1.22,1.5-.01.56.09,1.12.14,1.75-.2.3-.43.69-.72,1.02-1.04,1.19-.16,2.65,1.3,2.82.66.07,1.34-.12,2.11-.21ZM66.77,109.31c.55.25.93.52,1.35.58,2.3.33,4.12-.76,4.99-2.95.47-1.17.19-2.4-.85-3.14-1.59-1.15-3.35-1.26-5.17-.58-.05.02-.07.13-.14.29,1.02.71.51,1.79.51,2.73,0,.98.5,2.1-.68,3.07ZM91.87,105.88c-.14-.51-.24-1.25-.53-1.91-.63-1.45-2.97-2.02-4.18-1.08-1.38,1.07-2,3.52-1.31,5.1.61,1.39,1.97,1.94,3.39,1.38.26-.1.53-.21.79-.32,1.25-.58,1.7-1.66,1.83-3.16ZM144,104.35c.53-1.39.32-1.83-.89-1.93-1.25-.11-2.49.03-3.74.5.6,1.06.78,2.16.51,3.22-.27,1.08.38,2.26-.51,3.25.22.17.37.38.53.39,1.25.07,2.51.19,3.75.11.82-.05.96-1.1.26-1.9-.25.31-.48.61-.64.82-.68.01-1.27.02-1.97.04.03-.81.05-1.51.09-2.34.65.21,1.14.37,1.61.52.55-1,.52-1.23-.24-1.98-.46.12-.54,1.03-1.28.61-.01-.68-.03-1.39-.04-2.08,1.04-.25,1.95-.3,2.55.78ZM98.6,109.37c-.54-.43-1.05-.72-1.41-1.15-.38-.45-.6-1.02-.87-1.51.32-.38.63-.66.84-.99.72-1.15.28-2.55-.93-2.88-1.23-.33-2.44-.02-3.72.21.86.59.78,1.36.66,2.17-.07.47-.05.97-.01,1.45.07.96.17,1.92-.52,2.71q.78.58,1.71.25c.1-.77.2-1.56.29-2.31.59-.22.81.08,1.02.48.28.54.56,1.09.95,1.55.56.67,1.03.66,2.01.02ZM113.45,108.69c-.26-1.47-.07-2.87.19-4.26.04-.2.25-.44.44-.51.52-.2,1.07-.32,1.62-.45.1-.02.22.06.29.07.23.31.44.58.65.87.71-.91.48-1.65-.54-1.74-1.8-.17-4.27.63-4.42,3.71-.14,2.82,1.69,3.95,4.19,3.59.64-.1,1.18-.46,1.26-1.14.09-.74.05-1.49.07-2.24-.8.02-1.48.03-2.22.05q.29.64.97,1.05c-.14,1.43-.63,1.64-2.51,1.01ZM138.2,103.05c-.63-.13-1.02-.21-1.41-.29-1.87-.35-3.15.38-3.78,2.18-.44,1.25-.26,2.49.2,3.68.28.72.86,1.26,1.61,1.37.86.13,1.77.09,2.65-.01.53-.06.99-.46.86-1.12-.13-.68.07-1.23.54-1.69-.9-.84-1.91-.89-2.67-.12.78.46.9,1.15.56,1.96-.55.38-1.18.22-1.73.04-.28-.09-.63-.45-.67-.73-.14-.96-.24-1.93-.21-2.9.04-1.08.77-1.65,1.83-1.71.72-.04,1.34.12,1.98.94.11-.7.18-1.12.25-1.6ZM119.41,109.69c.12-.67.2-1.19.3-1.77.85-.02,1.54-.03,2.22-.05.08,0,.16,0,.24,0,.64.1.81.45.5,1.09-.06.13-.11.27-.15.41,1.56.63,2.05.58,2.66-.21-.29-.33-.64-.61-.83-.98-.63-1.22-1.19-2.48-1.79-3.72-.24-.5-.4-1.08-1.01-1.26-.92.82-2.81,4.36-3.41,6.42.48.02.91.04,1.26.06ZM77.47,104.95c-.47.38-.98.72-1.69.4.02-.57.03-1.15.05-1.69,1.1-.35,1.87.17,2.66.62.36-1.19.14-1.8-.68-1.81-1.05-.02-2.1.09-3.15.18-.2.02-.37.25-.51.35,1.07,2.15.56,4.22.05,6.34.03.03.12.17.21.17,1.16.01,2.34.08,3.49-.03.63-.06.7-.61.27-1.48-.68.76-1.52.66-2.38.48-.01-.66-.03-1.23-.04-1.93.69.09,1.28.17,1.88.24.29-.6.43-1.19-.17-1.84ZM154.87,104.61c.71-.58.71-.98.08-1.52-1.03-.87-2.74-.44-3.39.85-.46.93-.16,1.9.76,2.37.43.22.91.36,1.34.58.7.36.79.81.41,1.5-.35.64-.97.69-1.56.74-.56.05-.48-.55-.67-.87-.05-.09-.19-.13-.29-.19-.7.75-.61,1.5.22,1.93,1.17.59,2.89-.02,3.43-1.22.44-.97.14-2.07-.76-2.67-.33-.22-.7-.4-1.06-.59-.47-.25-.62-.68-.45-1.13.14-.35.42-.78.73-.87.44-.13.84.16.95.69.02.11.12.2.25.4ZM147.06,103.73c.06,1.12.13,2.28.16,3.44.02.74.2,1.54-.58,2.05.89.86,1.72.9,2.47.23-1.19-1.83-.53-3.78-.61-5.62.97-.37,1.63-.12,2.12.58.63-.36.61-.89.42-1.31-.11-.23-.58-.4-.9-.42-1.29-.08-2.59-.1-3.89-.12-.28,0-.58.02-.84.11-.8.3-.89,1.08-.14,1.8.24-.77.68-1.18,1.77-.75ZM125.05,92.12s-.07,0-.11,0c.03,1.26.05,2.52.08,3.77,0,.42.04.91.55.94.4.02.93-.09,1.19-.35.2-.2.25-.85.08-1.08-.43-.6-.41-1.22-.35-1.86.15-1.56-.25-3.14.36-4.68.23-.58-.29-1.25-.78-1.3-.61-.07-1.1.45-1.09,1.18.01,1.13.04,2.26.07,3.4ZM84.27,104.34c.6-.54.63-.86.11-1.3-.74-.63-1.9-.73-2.86-.25-1.5.76-2.14,2.52-1.89,4.49.25,2,3.53,2.76,4.73,2.12.07-.04.17-.08.19-.14.06-.18.17-.4.12-.55-.05-.14-.29-.28-.45-.29-.27-.03-.56.07-.85.07-2.6.05-3.26-1.21-2.6-3.46.02-.08.06-.15.09-.23.72-1.58,2.32-1.8,3.39-.47ZM125.84,83.24c-.32.42-.62.66-.71.97-.11.37-.08.8-.05,1.21.04.46-.2,1.11.41,1.28.66.19.98-.49,1.33-.87.39-.43.28-1-.05-1.47-.24-.35-.54-.65-.94-1.11Z"/>
      <path class="cls-4" d="M125.81,109.73c.12-.76.24-1.32.28-1.88.06-.93.07-1.86.07-2.79,0-.68.33-1.47-.75-1.9,1.89-.62,3.53-.62,5.11.16,1.87.93,1.97,4.76-.17,5.85-1.38.69-2.83.91-4.36.68-.11-.02-.2-.13-.18-.12ZM127.44,103.88c.02,1.23.04,2.47.08,3.71.01.44.06.87.09,1.3,2.1.17,3.02-.57,3.02-2.35.01-2.28-.6-2.82-3.19-2.66Z"/>
      <path class="cls-4" d="M105.88,109.53c-.77.09-1.46.28-2.11.21-1.46-.17-2.34-1.62-1.3-2.82.29-.34.51-.73.72-1.02-.06-.63-.16-1.19-.14-1.75.02-.69.59-1.37,1.22-1.5.53-.11,1.08-.13,1.44.38.42.61.48,1.3.14,1.96-.18.35-.47.64-.72.98.33.62.65,1.22.98,1.85.99-.4.58-1.05.38-1.6q.85-.36,1.71.01c-.45.79-.9,1.58-1.38,2.41.23.52.72.4,1.2.43.22.02.42.26.63.41-.19.18-.34.44-.56.52-.89.33-1.26.22-2.2-.47ZM103.77,106.7c-.7.91-.77,1.38-.34,1.89.41.49.86.5,1.75.02-.45-.61-.9-1.2-1.41-1.9ZM104.66,105.07c.71-1.1.63-1.35-.42-1.54.14.49.25.92.42,1.54Z"/>
      <path class="cls-4" d="M66.77,109.31c1.18-.96.68-2.09.68-3.07,0-.94.51-2.03-.51-2.73.08-.16.09-.27.14-.29,1.82-.68,3.58-.56,5.17.58,1.03.74,1.31,1.96.85,3.14-.87,2.19-2.69,3.28-4.99,2.95-.41-.06-.79-.33-1.35-.58ZM68.49,103.95c.03,1.58.06,3.13.1,4.69,1.84-.15,2.78-.94,3.3-2.72.24-.82.12-1.24-.62-1.6-.83-.41-1.73-.61-2.77-.36Z"/>
      <path class="cls-4" d="M91.87,105.88c-.12,1.5-.58,2.58-1.83,3.16-.26.11-.52.22-.79.32-1.42.57-2.78.01-3.39-1.38-.69-1.58-.07-4.03,1.31-5.1,1.2-.94,3.54-.37,4.18,1.08.29.66.39,1.4.53,1.91ZM86.72,106.96c.06.13.11.57.37.84.76.81,2.26.64,2.86-.34.57-.93.74-1.95.26-3-.49-1.06-1.66-1.27-2.46-.41-.69.73-1.06,1.61-1.02,2.9Z"/>
      <path class="cls-4" d="M144,104.35c-.6-1.08-1.52-1.03-2.55-.78.02.69.03,1.41.04,2.08.73.41.81-.49,1.28-.61.76.75.79.98.24,1.98-.48-.15-.96-.31-1.61-.52-.03.83-.06,1.53-.09,2.34.7-.01,1.29-.02,1.97-.04.16-.21.4-.51.64-.82.7.8.55,1.85-.26,1.9-1.24.08-2.5-.04-3.75-.11-.16,0-.31-.22-.53-.39.89-.99.23-2.17.51-3.25.27-1.06.09-2.16-.51-3.22,1.25-.48,2.49-.61,3.74-.5,1.21.1,1.41.54.89,1.93Z"/>
      <path class="cls-4" d="M98.6,109.37c-.98.64-1.45.65-2.01-.02-.38-.46-.66-1.01-.95-1.55-.21-.39-.43-.7-1.02-.48-.09.75-.19,1.54-.29,2.31q-.92.32-1.71-.25c.7-.79.59-1.75.52-2.71-.04-.48-.06-.98.01-1.45.12-.81.2-1.58-.66-2.17,1.28-.23,2.5-.55,3.72-.21,1.21.33,1.65,1.73.93,2.88-.22.34-.52.61-.84.99.27.49.49,1.07.87,1.51.36.43.87.72,1.41,1.15ZM94.67,103.89c.02.87.04,1.7.06,2.69.46-.28.77-.43,1.05-.64.7-.53,1-1.25.65-1.77-.39-.57-1-.59-1.62-.4-.04.01-.06.05-.14.12Z"/>
      <path class="cls-4" d="M113.45,108.69c1.87.64,2.37.42,2.51-1.01q-.68-.41-.97-1.05c.74-.01,1.43-.03,2.22-.05-.02.74.02,1.5-.07,2.24-.08.68-.62,1.04-1.26,1.14-2.5.37-4.34-.77-4.19-3.59.16-3.08,2.62-3.88,4.42-3.71,1.02.09,1.25.83.54,1.74-.22-.29-.42-.56-.65-.87-.07-.02-.19-.1-.29-.07-.55.13-1.1.25-1.62.45-.19.07-.4.31-.44.51-.27,1.39-.45,2.79-.19,4.26Z"/>
      <path class="cls-4" d="M138.2,103.05c-.07.47-.14.89-.25,1.6-.65-.82-1.26-.98-1.98-.94-1.05.06-1.79.63-1.83,1.71-.04.97.06,1.94.21,2.9.04.28.39.64.67.73.56.18,1.18.33,1.73-.04.33-.82.21-1.5-.56-1.96.76-.77,1.77-.72,2.67.12-.47.46-.67,1.01-.54,1.69.13.66-.33,1.06-.86,1.12-.88.1-1.78.14-2.65.01-.74-.11-1.33-.66-1.61-1.37-.47-1.19-.65-2.43-.2-3.68.64-1.8,1.92-2.53,3.78-2.18.39.07.78.16,1.41.29Z"/>
      <path class="cls-4" d="M119.41,109.69c-.34-.02-.78-.04-1.26-.06.6-2.06,2.49-5.59,3.41-6.42.61.18.77.76,1.01,1.26.6,1.24,1.16,2.5,1.79,3.72.19.37.55.65.83.98-.62.79-1.1.84-2.66.21.05-.14.09-.28.15-.41.31-.63.14-.99-.5-1.09-.08,0-.16,0-.24,0-.69.01-1.38.03-2.22.05-.1.58-.19,1.1-.3,1.77ZM122.06,106.86c-.21-.67-.38-1.21-.55-1.76-.08,0-.16-.01-.24-.02-.27.57-.55,1.13-.88,1.81.63-.01,1.06-.02,1.68-.03Z"/>
      <path class="cls-4" d="M77.47,104.95c.6.65.46,1.24.17,1.84-.6-.08-1.19-.15-1.88-.24.01.69.03,1.27.04,1.93.86.18,1.7.28,2.38-.48.43.87.36,1.42-.27,1.48-1.15.11-2.33.05-3.49.03-.09,0-.19-.14-.21-.17.51-2.13,1.02-4.19-.05-6.34.14-.1.31-.33.51-.35,1.05-.1,2.1-.2,3.15-.18.82.01,1.04.62.68,1.81-.79-.45-1.56-.97-2.66-.62-.02.54-.03,1.12-.05,1.69.71.32,1.22-.02,1.69-.4Z"/>
      <path class="cls-4" d="M154.87,104.61c-.13-.2-.23-.29-.25-.4-.11-.54-.52-.82-.95-.69-.31.09-.59.53-.73.87-.17.44-.02.87.45,1.13.36.19.72.37,1.06.59.9.6,1.2,1.7.76,2.67-.54,1.2-2.26,1.8-3.43,1.22-.83-.42-.93-1.17-.22-1.93.09.06.23.1.29.19.19.32.11.91.67.87.59-.05,1.22-.1,1.56-.74.38-.69.28-1.14-.41-1.5-.43-.22-.9-.36-1.34-.58-.93-.47-1.23-1.44-.76-2.37.65-1.29,2.35-1.72,3.39-.85.64.54.63.94-.08,1.52Z"/>
      <path class="cls-4" d="M147.06,103.73c-1.08-.43-1.53-.02-1.77.75-.75-.72-.67-1.5.14-1.8.26-.1.56-.12.84-.11,1.29.02,2.59.04,3.89.12.32.02.79.19.9.42.18.42.21.95-.42,1.31-.49-.7-1.15-.95-2.12-.58.08,1.84-.58,3.79.61,5.62-.75.67-1.59.63-2.47-.23.78-.51.6-1.31.58-2.05-.04-1.16-.11-2.33-.16-3.44Z"/>
      <path class="cls-4" d="M84.27,104.34c-1.07-1.33-2.68-1.11-3.39.47-.03.07-.07.15-.09.23-.67,2.25,0,3.51,2.6,3.46.28,0,.57-.1.85-.07.16.02.4.15.45.29.06.15-.06.37-.12.55-.02.06-.12.1-.19.14-1.2.64-4.49-.12-4.73-2.12-.25-1.97.39-3.73,1.89-4.49.95-.48,2.12-.38,2.86.25.52.43.49.76-.11,1.3Z"/>
      <g>
        <path class="cls-5" d="M94.05,93.19c.14-.11.27-.15.31-.24,1.33-2.41,3.1-4.58,3.95-7.25.16-.5.28-1.02.41-1.52.18-.7.54-1.02,1.05-.94.53.08.9.66.81,1.31-.08.6-.27,1.19-.28,1.78-.04,3.21-.03,6.42-.04,9.62,0,.16,0,.33,0,.49-.06.73-.53,1.21-1.13,1.16-.57-.05-.8-.47-.76-1.28.14-2.75.27-5.5.41-8.47-.24.42-.39.67-.52.93-.3.62-.54,1.28-.9,1.86-.97,1.56-1.71,3.22-2.24,4.98-.13.42-.31.85-.57,1.2-.41.57-.93.5-1.19-.14-.23-.56-.35-1.17-.55-1.74-.66-1.87-1.34-3.73-2.01-5.58-.09.01-.17.02-.26.03-.11,1.31-.29,2.62-.3,3.93-.01.94-.44,1.89.11,2.85.24.41-.1.86-.5,1.13-.42.27-.85.23-1.26-.05-.41-.28-.42-.65-.28-1.07.08-.23.14-.47.15-.71.13-3,.22-6,.38-9,.04-.76.21-1.53.42-2.26.08-.28.48-.45.73-.68.19.23.46.44.57.71,1.11,2.83,2.18,5.67,3.27,8.5.05.14.14.27.22.45Z"/>
        <path class="cls-5" d="M116.52,90.47c.03.39.08.78.08,1.17-.02,1.62-.03,3.24-.12,4.86-.03.73-.49,1.11-.97.99-.51-.12-.72-.57-.6-1.26.05-.28.12-.55.13-.84.06-2.84.13-5.67.15-8.51,0-.76-.19-1.52-.19-2.28,0-.41.13-.86.35-1.2.07-.11.62-.06.86.08.44.26.59.64.47,1.24-.2.98-.2,2-.29,3.13.34-.1.56-.11.7-.22,1.04-.84,2.09-1.68,3.09-2.56.25-.22.32-.64.5-.94.28-.44.57-.95,1.22-.79.6.16.82.68.81,1.22,0,.3-.21.69-.45.89-1.34,1.1-2.71,2.15-4.02,3.17,1.23,1.86,2.36,3.58,3.5,5.29.36.53.68,1.05,1.32,1.37.75.38.71,1.19.05,1.68-.38.29-.75.3-1.09-.03-.2-.2-.36-.44-.54-.66-1.57-1.95-3.15-3.89-4.72-5.84-.07.02-.15.03-.22.05Z"/>
        <path class="cls-5" d="M151.27,89.25c-1.2.28-1.68,1.05-2.28,1.7-.68.72-.97,1.53-.88,2.53.07.76-.02,1.54-.05,2.31-.01.24-.04.5-.14.71-.22.44-.55.88-1.1.81-.57-.08-.55-.64-.58-1.07-.19-2.95-.3-5.91.01-8.86.1-.99-.1-2.01-.17-3.01,0-.12-.04-.24-.05-.36-.04-.72.26-1.18.76-1.16.53.03,1.13.62,1.01,1.16-.36,1.59.2,3.13.12,4.71-.02.3.08.61.15,1.06.35-.3.59-.5.83-.7.41-.33.8-.7,1.25-.96,1.32-.74,2.32-.14,2.35,1.38.01.53-.03,1.06-.01,1.58.04,1.37.07,2.74.16,4.12.08,1.13-.24,1.72-1.09,1.85-.79.11-1.17-.43-.92-1.19.18-.52.32-1.08.36-1.63.12-1.6.18-3.22.27-4.97Z"/>
        <path class="cls-5" d="M168.75,89.11c-.54.17-.97.26-1.34.45-.36.17-.66.48-1.01.68-.75.43-1.09,1.08-1.08,1.91,0,1.17.09,2.35.08,3.52,0,.37-.09.82-.32,1.08-.19.21-.66.28-.98.24-.15-.02-.35-.43-.36-.68-.07-1.25-.11-2.51-.11-3.77,0-1.38.05-2.75.08-4.13,0-.24-.07-.53.04-.71.15-.25.41-.52.68-.59.38-.09.73.12.82.55.1.46.15.92.25,1.55.57-.39,1.06-.66,1.48-1.03,1.75-1.55,2.91-.4,3.65,1.32.18.42.18.96.15,1.44-.12,1.94-.29,3.86-.44,5.87-.46.28-1,.57-1.6.14-.63-.45-.56-1.1-.47-1.76.21-1.69.39-3.38.57-5.08.03-.23-.03-.48-.07-.99Z"/>
        <path class="cls-5" d="M77.71,93.14c.01.62,0,1.21.05,1.81.04.39.31.72.74.63.83-.17,1.68-.34,2.44-.69.38-.18.61-.72.85-1.13.2-.33.37-.68.81-.57.51.13.67.57.62,1.05-.02.27-.15.54-.26.8-.44,1.06-1.28,1.74-2.2,2.37-1.55,1.07-3.94-.05-4.35-1.66-.36-1.42-.16-2.74.36-4.04.63-1.57,1.51-2.97,3.08-3.78,1.32-.68,3.23-.01,3.84,1.32.34.75.14,1.76-.59,2.3-.51.38-1.12.67-1.73.83-1.13.3-2.29.49-3.65.77ZM82.21,90.73c-.49-1.49-1.33-1.84-2.34-1.15-.69.47-1.15,1.1-1.53,2.14,1.41-.35,2.59-.66,3.87-.99Z"/>
        <path class="cls-5" d="M106.48,94.21c.32-.78.58-1.36.8-1.95.44-1.22.86-2.45,1.28-3.67.23-.66.54-.91,1.01-.78.56.16.84.77.61,1.37-1.11,2.92-2.22,5.84-3.35,8.75-.25.64-.57,1.26-.87,1.88-.52,1.05-1.48,1.47-2.55,1.63-.62.09-1.15-.21-1.42-.75-.27-.53-.46-1.12-.58-1.71-.06-.26.04-.73.2-.81.29-.14.73-.14,1.02,0,.15.07.23.6.13.84-.2.55.04.89.43,1.13.45.28.84-.08,1.02-.41.61-1.14,1.16-2.31,1.67-3.5.08-.19-.09-.53-.21-.77-.67-1.29-1.34-2.58-2.05-3.86-.39-.7-.82-1.37-1.26-2.04-.26-.4-.47-.83-.18-1.24.18-.25.58-.47.88-.47.47.01.71.4.9.86.58,1.43,1.21,2.83,1.84,4.23.16.36.37.7.68,1.27Z"/>
        <path class="cls-5" d="M156.07,93.48c0,.39-.06.92.04,1.42.17.86.68,1.18,1.51.97.55-.14,1.11-.32,1.58-.62.29-.19.43-.64.58-1,.28-.74.64-1.02,1.21-.88.57.14.86.78.61,1.5-.1.3-.3.6-.54.79-1.32,1.02-2.87,1.5-4.48,1.73-.97.14-1.92-.68-2-1.74-.22-2.9.7-5.43,2.73-7.53.44-.46,1.01-.69,1.66-.54.51.11,1.04.21,1.52.39,1.1.42,1.4.86,1.39,1.88,0,.98-.39,1.73-1.37,2.07-1.45.51-2.9,1.01-4.45,1.55ZM158.31,89.02c-.82.43-1.73,1.89-1.74,2.88,1.58-.3,2.68-1.26,3.75-2.46"/>
        <path class="cls-5" d="M130.54,89.15c-.62.14-1.03.27-1.46.32-.29.02-.71.03-.86-.14-.31-.35-.15-.78.2-1.06.21-.17.48-.27.74-.37.31-.11.62-.2.93-.28.49-.12.64-.43.54-.91-.08-.39-.19-.79-.16-1.18.05-.52.65-1,1.09-.97.43.02.68.41.7,1.1,0,.48.02.96.03,1.47.96.23,1.94-.7,2.85.18-.25,1.81-1.9,1.35-3.11,1.8-.06,2.13-.13,4.25-.2,6.44,1.18-.14,2.03-.47,2.55-1.44.21-.39.52-.74.84-1.03.18-.17.53-.32.71-.25.18.08.35.44.34.67-.08,1.41-2.74,3.94-4.16,3.99-.97.03-1.46-.32-1.5-1.32-.08-1.74-.04-3.48-.05-5.22,0-.52-.02-1.04-.03-1.79Z"/>
        <path class="cls-5" d="M54.37,95.44c.98-.07,1.79-.11,2.59-.2.26-.03.52-.16.75-.29.61-.33,1.01-.32,1.28.08.27.4.2,1.15-.25,1.42-.43.27-.98.51-1.46.48-1.32-.09-2.58.08-3.85.37-.82.19-1.32-.48-1.11-1.36.14-.58.28-1.17.29-1.75.07-2.76.09-5.52.12-8.27,0-.44-.03-.89-.08-1.33-.06-.47.15-.77.53-.99.63-.36,1.13-.13,1.24.58.04.23,0,.48,0,.73-.02,3.25-.05,6.48-.07,9.73,0,.23,0,.47.01.81Z"/>
        <path class="cls-5" d="M67.59,90.73c-.13,1.8-.54,3.47-1.74,4.86-1.47,1.7-3,1.74-4.84,1.03-.95-.36-1.3-1.23-1.26-2.18.09-2.18.79-4.15,2.4-5.68.78-.74,1.71-1.27,2.85-1.09,1.51.24,2.57,1.53,2.59,3.06ZM65.96,90.83c-.05-.28-.07-.69-.21-1.06-.32-.81-1.17-1.15-1.88-.82-1.47.71-2.92,3.49-2.68,5.15.18,1.23,1.13,1.82,2.26,1.3.56-.26,1.1-.68,1.51-1.14.83-.93.88-2.13,1-3.44Z"/>
        <path class="cls-5" d="M71.36,94.04c1.18-2.01,2.29-3.89,3.39-5.76.08-.14.15-.34.27-.4.23-.11.56-.26.74-.17.19.1.27.44.33.7.03.14-.08.31-.15.46-.78,1.78-1.39,3.64-2.52,5.26-.35.5-.55,1.1-.9,1.58-.38.51-.83.98-1.3,1.4-.34.3-.7.16-.92-.2-.15-.24-.25-.52-.31-.79-.48-2.3-.97-4.61-.98-6.98,0-.16,0-.33.03-.48.09-.45.24-.92.81-.9.61,0,.61.52.68.97.27,1.75.55,3.51.83,5.31Z"/>
        <path class="cls-5" d="M143.22,90.28c-.77-1.1-2.24-1.15-3.15-.18-.78.83-1.03,1.91-1.34,2.96-.13.46-.17.96-.19,1.44-.04.87.32,1.25,1.19,1.36,1.17.14,2.6-.71,3.03-1.81.1-.26.14-.58.31-.78.16-.19.51-.43.67-.37.24.09.52.41.55.67.05.33-.02.76-.21,1.03-1.13,1.58-2.72,2.52-4.58,2.98-.79.19-1.34-.2-1.7-1.04-1.27-2.93-.21-6.23,1.9-7.79,1.1-.81,2.25-1.08,3.53-.51.11.05.22.11.34.14.4.08.84.07.89.63.05.56-.25.92-.72,1.15-.14.07-.31.09-.52.14Z"/>
        <path class="cls-5" d="M125.05,92.12c-.02-1.13-.05-2.27-.07-3.4-.01-.73.48-1.24,1.09-1.18.49.05,1.01.72.78,1.3-.61,1.54-.21,3.13-.36,4.68-.06.64-.08,1.26.35,1.86.17.24.12.88-.08,1.08-.27.26-.79.38-1.19.35-.51-.02-.54-.52-.55-.94-.03-1.26-.05-2.52-.08-3.77.04,0,.07,0,.11,0Z"/>
        <path class="cls-5" d="M125.84,83.24c.39.46.7.76.94,1.11.32.47.43,1.05.05,1.47-.35.39-.67,1.07-1.33.87-.6-.18-.36-.83-.41-1.28-.04-.4-.07-.83.05-1.21.09-.3.39-.55.71-.97Z"/>
      </g>
      <path class="cls-1" d="M82.21,90.73c-1.29.33-2.47.63-3.87.99.38-1.04.84-1.67,1.53-2.14,1.02-.69,1.85-.34,2.34,1.15Z"/>
      <path class="cls-1" d="M65.96,90.83c-.12,1.3-.17,2.51-1,3.44-.41.47-.95.88-1.51,1.14-1.13.52-2.08-.07-2.26-1.3-.24-1.66,1.2-4.44,2.68-5.15.71-.34,1.56,0,1.88.82.15.37.16.78.21,1.06Z"/>
      <path class="cls-1" d="M127.44,103.88c2.59-.15,3.2.39,3.19,2.66,0,1.78-.92,2.52-3.02,2.35-.03-.42-.08-.86-.09-1.3-.03-1.24-.05-2.48-.08-3.71Z"/>
      <path class="cls-1" d="M103.77,106.7c.52.7.96,1.3,1.41,1.9-.89.48-1.34.47-1.75-.02-.43-.5-.36-.98.34-1.89Z"/>
      <path class="cls-1" d="M104.66,105.07c-.17-.63-.29-1.05-.42-1.54,1.06.2,1.14.45.42,1.54Z"/>
      <path class="cls-1" d="M68.49,103.95c1.05-.25,1.94-.05,2.77.36.74.37.86.79.62,1.6-.52,1.78-1.47,2.57-3.3,2.72-.03-1.56-.06-3.11-.1-4.69Z"/>
      <path class="cls-1" d="M86.72,106.96c-.04-1.28.33-2.16,1.02-2.9.8-.86,1.98-.66,2.46.41.48,1.05.31,2.07-.26,3-.6.98-2.1,1.14-2.86.34-.25-.27-.31-.71-.37-.84Z"/>
      <path class="cls-1" d="M94.67,103.89c.08-.07.1-.11.14-.12.62-.19,1.23-.17,1.62.4.35.51.05,1.24-.65,1.77-.28.21-.6.37-1.05.64-.02-.99-.04-1.81-.06-2.69Z"/>
      <path class="cls-1" d="M122.06,106.86c-.62.01-1.05.02-1.68.03.33-.68.61-1.24.88-1.81.08,0,.16.01.24.02.17.55.34,1.09.55,1.76Z"/>
    </g>
    <path class="cls-1" d="M160.3,88.93s-2.24-.4-2.52.05c-.27.46-1.62,3.31-1.62,3.31,0,0,3.85-1.57,3.97-2.32.12-.76.16-1.04.16-1.04Z"/>
  </g>
  <polygon class="cls-3" points="26.64 77.83 5.99 108.99 7.06 110.3 47.27 108.34 32.44 82.01 28.07 77.04 26.64 77.83 26.64 77.83"/>
  <path class="cls-2" d="M24.99,81.85c-.76.34-.23-.76-.99-.42-.36.13-.16.77-.91.54-.28,1.26-.56,2.51-1.73,2.98-.26,1.32.69,1.26,1.08,1.85-1.64,1.23-1.6,5.14-4.55,3.88.28.71,1.16.73,1.3,1.59-.62.34-1.09.46-1.4.57,1.03.82-.26.63-.65,1.24-.99,1.6-1.51,4.1-3.3,4.52-.05,1.16-.46,2.01-1.54,2.25.62,1.23-.35.18-.68.77,1.54.27-.96,1.06.11,1.67-1.7.38-1.25,2.66-2.42,3.5-.16-.41.21-1.41-.32-1.41,0,.37.08.82-.44.75-.24.79.79.12.54.91-.99.26-.78,1.56-1.29,2.25,2.48-.58,6.53-.68,9.31-.59.04-.19-.02-.47.21-.5,9.28.72,16.64-.83,27.95-1.3-.55-2.51-2.78-3.68-3.68-5.04-.32-2.12-2.33-2.3-2.45-4.63-1.07.17-.94-.84-.81-1.39-.95.04-1.84-1.49-1.07-1.85-.74.43-.8-.13-1.46-.39-1.8-5.19-5.97-8.81-8.01-12.91.01.24-.4.33-.48.03.29-.04.56-.11.45-.5-.67.24-.64-.3-1.21-.16-1.14,1.63-1.62,3.83-3.54,4.77.52.81-.16,1.17-.61,1.72-.31-.95-.09-1.87.31-2.66.39-.02.17.66.52.68.04-1.02.83-2.98,1.54-2.01-.03-.33.07-.53.19-.73h0ZM39.09,92.69c1.42.18,1.08,2.36,2.56,2.48.06,1.54.87,2.25,1.85,2.75-.08,1.64.85,2.11,1.84,2.52.12.4-.16.46-.45.5.34.32,1.13.54.55,1.17.18-.14.38-.28.7-.29.12.47,0,.75-.43.75.48.6,1.88,1.88,1.11,2.33.25.39.78.47,1.46.38.17,1.95,1.25,2.85,1.28,4.95-.23-.14-.91-.5-.69.28-.44-.44-1.67.02-1.73-.85-.52.95-1.65-.6-2.83.66-.72.13-.55-.75-.8-1.15-.68.25.35.58.08,1.2-.19-.16-.82-.96-.72.04-3.34-.18-8.29-.13-11.24.23-.02-.23-.03-.47-.05-.71-1.07.65-2.33.79-3.34.21-.63.95-5.07,1.03-6.44.42-2.6,1.55-8.46.21-9.71,1.81-2.08-1.13-5.6.23-8.19-.68-.25-.75.15-.91.4-1.22-.96-.02-.4-.18-.58-1.64,1.11-.38,1.55-1.33,1.51-2.73,1.11.16.46-1.24,1.6-1.06-.22-.72-.2-.44-.08-1.19,1.62.16.61-2.01,2.03-2.04-.17-.24-.57-.22-.52-.69.96.24.43-.82,1.4-.57-.02-.39-.05-.79-.08-1.2.21-.19.53-.29.94-.3,1.35-3.62,3.94-6.15,5.38-9.69.83-.02,1.07-.55.87-1.49.7.02.69-.59,1.4-.57.53-3.21,3.57-4.23,4.08-7.45,2.61-.62,1.93-4.15,4.48-4.83-.17-.23-.56-.22-.53-.69.79-.06,1.16-.48,2.13-.37,1.08.74-.26,1.24,1.27,1.11-.97,1.09.37,4.24,1.44,3.74.35.06.09,1.81,1.29,1.6-.12.74.31.86.34,1.42,3.1,2.52,3.77,7.83,6.88,10.34.12.4-.15.46-.45.51h0Z"/>
  <text class="cls-6" transform="translate(17.26 104.9) rotate(1.05) scale(.79 1)"><tspan x="0" y="0">25</tspan></text>
</svg>