<?xml version="1.0" encoding="UTF-8"?>
<svg id="Layer_1" data-name="Layer 1" xmlns="http://www.w3.org/2000/svg" viewBox="0 0 180 200">
  <defs>
    <style>
      .cls-1, .cls-2, .cls-3, .cls-4 {
        fill-rule: evenodd;
      }

      .cls-1, .cls-5 {
        fill: #fff;
      }

      .cls-2 {
        fill: #231f20;
      }

      .cls-3 {
        fill: #ed2d2c;
      }

      .cls-6 {
        fill: none;
        stroke: #231f20;
        stroke-miterlimit: 1;
        stroke-width: .8px;
      }

      .cls-5 {
        font-family: AmericanTypewriter-Bold, 'American Typewriter';
        font-size: 17.9px;
        font-weight: 700;
      }

      .cls-4 {
        fill: #d1af38;
      }
    </style>
  </defs>
  <polygon class="cls-3" points="29.19 74.86 5.63 109.35 6.8 110.83 51.75 109.27 35.6 79.61 30.8 74 29.19 74.86 29.19 74.86"/>
  <path class="cls-2" d="M27.3,79.33c-.85.37-.24-.86-1.09-.49-.41.14-.18.86-1.04.59-.33,1.4-.66,2.8-1.98,3.31-.31,1.48.75,1.41,1.18,2.08-1.86,1.36-1.87,5.71-5.14,4.27.3.79,1.28.83,1.43,1.8-.7.36-1.23.5-1.57.61,1.14.93-.3.7-.74,1.38-1.14,1.77-1.76,4.55-3.76,5-.07,1.29-.54,2.23-1.75,2.49.67,1.38-.39.19-.76.85,1.72.32-1.1,1.17.1,1.87-1.9.4-1.44,2.94-2.75,3.88-.17-.46.25-1.59-.34-1.59,0,.41.08.92-.5.82-.28.88.87.16.59,1.04-1.11.27-.91,1.73-1.48,2.48,2.78-.61,7.3-.66,10.41-.52.05-.21-.02-.53.24-.55,10.35.95,18.61-.66,31.25-1.01-.58-2.81-3.05-4.15-4.03-5.69-.32-2.37-2.56-2.61-2.66-5.22-1.2.18-1.03-.95-.89-1.56-1.06.03-2.03-1.7-1.17-2.09-.83.45-.9-.16-1.63-.45-1.93-5.83-6.53-9.94-8.74-14.55.01.27-.45.36-.53.02.32-.04.63-.11.51-.56-.75.26-.71-.34-1.35-.2-1.29,1.8-1.87,4.25-4.02,5.28.56.91-.2,1.29-.7,1.91-.32-1.06-.07-2.08.39-2.96.44-.02.18.73.57.77.06-1.15.97-3.33,1.76-2.23-.03-.37.09-.59.22-.81h0ZM42.89,91.67c1.58.23,1.16,2.65,2.82,2.8.04,1.73.93,2.54,2.03,3.11-.13,1.82.91,2.38,2.01,2.84.13.45-.18.51-.5.56.38.37,1.26.61.6,1.31.21-.16.43-.3.79-.31.12.54-.01.84-.49.82.53.68,2.07,2.14,1.2,2.62.27.45.86.54,1.62.45.15,2.19,1.35,3.21,1.35,5.55-.26-.15-1.01-.57-.78.3-.48-.5-1.86,0-1.92-.97-.59,1.05-1.83-.7-3.17.69-.81.14-.6-.84-.87-1.3-.76.27.38.65.07,1.34-.21-.17-.9-1.08-.8.04-3.73-.26-9.26-.28-12.56.09-.02-.27-.03-.53-.04-.8-1.21.71-2.61.85-3.74.18-.72,1.04-5.69,1.07-7.2.36-2.94,1.69-9.46.1-10.87,1.88-2.3-1.29-6.26.17-9.14-.88-.27-.84.18-1.03.46-1.36-1.07-.04-.44-.21-.62-1.84,1.25-.4,1.76-1.46,1.73-3.03,1.24.19.54-1.38,1.81-1.16-.23-.81-.21-.5-.07-1.34,1.81.21.72-2.24,2.29-2.25-.18-.26-.63-.24-.57-.77,1.08.29.5-.91,1.57-.61-.02-.45-.05-.89-.07-1.34.23-.21.59-.32,1.05-.32,1.56-4.03,4.49-6.8,6.16-10.74.92-.02,1.21-.6.99-1.65.78.03.79-.64,1.58-.62.65-3.57,4.05-4.65,4.67-8.25,2.93-.66,2.23-4.61,5.08-5.33-.18-.27-.63-.25-.58-.77.88-.05,1.31-.52,2.39-.39,1.2.85-.31,1.38,1.4,1.27-1.1,1.2.34,4.73,1.55,4.2.39.07.07,2.02,1.42,1.8-.14.83.33.96.35,1.59,3.43,2.86,4.09,8.8,7.53,11.66.12.45-.19.52-.51.57h0Z"/>
  <text class="cls-5" transform="translate(19.38 105.82) scale(.79 1)"><tspan x="0" y="0">26</tspan></text>
  <g>
    <path class="cls-2" d="M172.34,77.56c.09.05.23.04.18.23h-.18v-.23h0Z"/>
    <path class="cls-4" d="M159.99,80.86c-.62.44-1.27.14-2.05.41-.42-.67-.33-1.58-.41-2.45-.1-1.01-.48-1.9-.47-2.98.32-.2.59-.02.82-.41h.52c.06,0,.05-.07.06-.12.18-.05.11.16.29.12.49,1.67.5,3.79,1.23,5.43h0Z"/>
    <path class="cls-4" d="M152.12,79.62c.13,1.8.3,3.4.46,5.26-1.09.06-2.17-.08-3.33-.29-.48-1.09-.96-2.44-2.81-1.99-.77,3.84-.4,8.11.12,11.99.43.44,1.38.37,1.81.82-.13.74-.21,1.66-.29,2.28-2.16.06-4.48.87-6.96.35.07-.67.19-1.46.41-2.34.5-.27,1.02,0,1.46-.05.39-.37.18-.82.18-1.23,0-1.32-.01-2.84,0-4.33.01-1.48.25-3,.12-4.27-.1-.9-.57-1.64-.58-2.45-1.43-1.01-2,1.03-2.51,1.87-1.06.27-2.3-.01-3.16-.12.22-1.57.31-3.82.12-4.97.34.06.15-.13.23-.23,1.13-.03,2.14.29,3.16.23.35-.02.7-.22,1.05-.23.5-.02,1.06.16,1.58.12.54-.04,1.02-.28,1.52-.23.3.02.56.18.88.17.53-.02,1.09-.3,1.64-.35.39-.04.93.15,1.34-.23,1.32.02,2.35-.05,3.57.23h0Z"/>
    <path class="cls-1" d="M129.43,83.16c.02.25-.17.3-.36.34-.1-.14.04-.45.36-.34h0Z"/>
    <path class="cls-2" d="M169.77,85.11c.35.1.75.14.82.52-.17-.1-.34-.09-.64-.06-.05-.16-.19-.24-.17-.46h0Z"/>
    <path class="cls-2" d="M124.31,88.94c.46.03.91.04,1.23-.08.02-.85-.36-1.33-.72-1.83-.14.67-.37,1.25-.52,1.91h0ZM126.88,89.24c-.6.43-1.41.05-2.11.36-.51-.2-1.31-.03-1.68-.69.07-.79.59-1.65.82-2.32.16-.44.12-1.02.44-1.16.21-.09.68.12.81.25.5.52.84,1.98,1.27,2.84.15.28.44.39.45.71h0Z"/>
    <path class="cls-2" d="M175.68,87.21c.06.29-.18.29-.35.35-.02-.11-.13-.14-.12-.29.19-.09.24-.1.47-.06h0Z"/>
    <path class="cls-1" d="M124.83,87.02c.36.49.73.98.72,1.83-.32.12-.77.11-1.23.08.14-.67.38-1.24.51-1.91h0Z"/>
    <path class="cls-2" d="M122.98,88.55c-.16-.07-.37-.1-.52-.19.08-.27.56-.03.52.19h0Z"/>
    <path class="cls-2" d="M84.39,82.39c-.13.18-.18.55-.19.86-.04.77-.01,1.54.01,2.33.05,1.35.17,2.83.15,4.28-.01,1.24-.15,2.53.1,3.45.35-.11,1.01.21,1.5.08.14-2.88-.04-6.28.05-8.97.05-.14.12-.25.17-.38-.33-.75.09-1.37-.08-2.04-.54.07-1.37-.09-1.72.39h0ZM86.78,93.73c-.86.39-1.71-.26-2.39.21-1.08,0-.94-.79-.92-1.75-.29.35.01-.25.03-.48.02-.34-.24-.66-.01-.73-.2-.25-.15-.65-.04-.93-.06-1.23-.09-3.05.04-4.22-.08-.44-.2-.82-.03-1.26-.07-.2-.13-.74.04-.68-.2-.46-.07-1.38-.04-1.85.77-.48,2.76-.99,3.4-.1-.06.85-.29,1.76-.08,2.37.01.16-.07.2-.16.23.21.7.04,1.74.05,2.67,0,.23.09.45.11.69.07.93-.28,1.9.05,2.72-.16.99-.16,2.22-.02,3.1h0Z"/>
    <path class="cls-6" d="M84.39,82.39c-.13.18-.18.55-.19.86-.04.77-.01,1.54.01,2.33.05,1.35.17,2.83.15,4.28-.01,1.24-.15,2.53.1,3.45.35-.11,1.01.21,1.5.08.14-2.88-.04-6.28.05-8.97.05-.14.12-.25.17-.38-.33-.75.09-1.37-.08-2.04-.54.07-1.37-.09-1.72.39h0ZM86.78,93.73c-.86.39-1.71-.26-2.39.21-1.08,0-.94-.79-.92-1.75-.29.35.01-.25.03-.48.02-.34-.24-.66-.01-.73-.2-.25-.15-.65-.04-.93-.06-1.23-.09-3.05.04-4.22-.08-.44-.2-.82-.03-1.26-.07-.2-.13-.74.04-.68-.2-.46-.07-1.38-.04-1.85.77-.48,2.76-.99,3.4-.1-.06.85-.29,1.76-.08,2.37.01.16-.07.2-.16.23.21.7.04,1.74.05,2.67,0,.23.09.45.11.69.07.93-.28,1.9.05,2.72-.16.99-.16,2.22-.02,3.1h0Z"/>
    <path class="cls-1" d="M92.09,79.2c.14.07.1.32.09.53-.06-.14-.23-.37-.09-.53h0Z"/>
    <path class="cls-2" d="M85.84,109.74c-.16,1.92.03,4.32.23,6.51-.59.19-1.36.06-1.72-.37.2-1.78.15-3.46.07-5.09-.2-.17-.95-.02-.9,0-.02-.01-.12-.22-.07-.23-.47.02-1.07.58-1.42.23.03.38-.8.19-1.12.3-.49,1.77.07,3.63-.37,5.46-.73.17-1.45-.46-1.5-1.65-.04-1.14-.07-2.82-.15-4.41-.1-1.87-.3-3.58-.23-4.94.32-.5.21-1.08.37-1.65.53-.25.82.24,1.2.37-.22,1.84.29,3.1.37,5.17,1.37.24,2.55,0,3.67-.3-.05-2.2-.28-4.33-.22-6.37,1.36-.53,1.24.8,1.35,2.25.07.98.26,2.06.3,2.77.06.88-.16,1.52.15,1.95h0Z"/>
    <path class="cls-2" d="M90.18,110.79c.76.06,1.17-.23,1.72-.38-.39-.98-.58-2.16-1.2-2.92-.15,1.27-.29,2.21-.52,3.29h0ZM94.59,111.46c-.06.26-.2.45-.23.75.81,1.68.68,3.48,1.2,5.16-.39.43-.75.18-1.2,0-.67-1.72-.96-3.83-1.87-5.31-.97-.09-2.08.02-2.92.45-.16.38-.04,1.32-.37,2.02-.09.19-.4.26-.52.45-.32.48-.13.83-.53.9-.34.06-.55-.21-.83-.45.75-3.69,1.66-7.31,1.87-11.15.46-.35,1.5.06,1.79.45,1.31,1.72,2.08,5.43,3.59,6.74h0Z"/>
    <path class="cls-2" d="M91.84,94.41s.05.02.05.06c0,.07.1.06.17.07-.04.09-.1.14-.13.23-.1-.13-.19-.18-.1-.36h0Z"/>
    <path class="cls-1" d="M89.51,96.27c.1.03.01.37-.19.28.04-.12.13-.18.19-.28h0Z"/>
    <path class="cls-4" d="M122.46,88.36c.15.09.36.11.52.19.04-.21-.44-.46-.52-.19h0ZM126.43,88.52c-.43-.86-.77-2.32-1.27-2.84-.13-.14-.6-.35-.81-.25-.32.14-.29.72-.44,1.16-.23.67-.75,1.52-.82,2.32.37.66,1.17.49,1.68.69.71-.3,1.51.07,2.11-.36,0-.33-.31-.43-.45-.71h0ZM129.94,88.32c.3,2.32,1.73,4.06,2.54,6.09.76.22,1.72-.01,2.46.06.13,1.22.14,2.05-.2,3.21-2.37-.08-4.3.44-6.39.66-.58-.37-.2-.84-.25-1.47-.02-.08-.08.02-.18,0-.32-1.26.06-3.17-.9-3.82-1.17.29-2.49.47-3.4.44-.1-.22-.52-.4-.81-.25-.1.31.17.25.28.36-.03.15-.2.26-.3.17-.12,1.41-.32,3.07-.22,4.21-.73.1-1.66,0-2.57.05-1.35.07-2.64.64-4.16.24-.08-1.15-.12-2.43.26-3.33.73-.31,1.42.11,2.22-.12.37-.4-.15-.91-.09-1.23-.33-.11-.14.33-.42.28.67-2.18,1.95-4.28,2.8-6.6.42-1.14,1.31-2.3,1.26-3.59-.17-.04-.48-.09-.64-.25-.58.07-1.4.15-1.87.13.38-1.35.57-3.06.7-4.49,3.19-.74,5.79.13,9.02-.59.44,1.22.13,2.78.36,4.16-.24.17-.82-.16-1.11.09-.08.33.24.51.1.71-.06.21-.4.14-.48.34.13.9.68,1.41.88,2.24.01.08.17.03.17.12-.02,1.03.54,1.5.82,2.24.07.01.1-.01.12-.06h0Z"/>
    <path class="cls-4" d="M168.13,93.17c.14,1.02.11,1.87.82,2.34,1-.42,2.43.06,3.21-.64-.15-1-.38-2.22-.58-3.27-.08-.41-.05-.87-.18-1.11-.34-.64-1.18-.35-1.75-.76-1.54-.01-2.56-.2-3.8-.06-.13.13-.31.2-.29.47-.07-.24-.44-.19-.64-.29-.71-.97-1.75-1.6-2.34-2.69.04-1.34.31-2.71.41-3.97.1-1.27.92-1.85,1.81-2.52.46-.34.72-.8,1.29-.58.19-.09-.21-.22,0-.35,1.59-.13,3.34-.52,4.91-.47.79.03,1.63.37,2.51.12.08.06.16.41.29.23.2.87.87,1.27,1.17,2.05.12.63-.29,1.31.06,1.64.26-.27,0-.46,0-.76,0-.43.48-1.05.06-1.58-.09-.12-.28-.04-.41-.12-.4-.27-.52-.91-.76-1.28,1.04.43,1.6,1.32,2.75,1.64,0,1.28.79,2.14.41,3.45-.51.31-1.84.47-2.22-.06-.14.04,0,.36-.12.41-.35.04-.65.08-.93-.06-.19-.79-.28-1.67-.99-1.93-1.2.01-3.4.13-4.79.41.02,1.53.31,2.92.29,4.44,1.83.92,4.02.59,6.26.59.67.57,1.66.83,2.46,1.28.2,1.71.34,3.52.47,5.56-.29.34-.51.76-1.05.7-.7.59-1.17,1.05-1.75,1.75-.26.03-.4.18-.58.29-.42-.08-.84.17-1.05-.06-1.09.39-2.29.04-3.51.24-.24.03-.48.23-.76.29-.31.07-.71.04-1.05.12-.4.09-.58.26-.94.18-.46-.11-.64-.65-1.05-.93-.1-.07-.17.06-.29,0-.11-.05-.28-.33-.47-.47-.48-.35-1.13-.72-1.64-1.06-.12-.98.04-2.09.29-2.98.71-.07,1.54-.23,1.87-.35.66-.03,1.59.11,2.63.18h0Z"/>
    <path class="cls-2" d="M110.12,96.96c.46-.48,2.07-1.37,2.26-1.93.21-.6-.08-2.17.02-3.34.12-1.38-.18-3.02.07-4.1-.03-1.68-.49-3.76-.87-5.41.15-.22.54-.17.9-.15.17-.22-.06-.44.11-.62.44.06.66-.18,1.03,0,.1-1.11.34-2.13.08-3.12-2.01.12-4.16-.26-6.1-.07-.1,1.11.05,1.62.03,2.64.56.3,1.38.51,1.71,1.16-.69,3.33.33,7.9-.63,11.22-1.72.09-3.4-.37-4.62.24-.77-.01-.75-.58-.96-1.11-.12-.3-.34-.41-.37-.58-.18-.87,0-1.95-.08-2.86-.02-.26-.19-.53-.22-.78-.07-.63-.03-1.35-.08-1.81-.05-.46.02-.38.05-.69.04-.48-.31-.99.02-1.32-.25-.8-.72-2.94.31-3.52.48-.28,1.16-.08,1.46-.25.1-.4-.22-.11-.18-.36.3-.58.32-.96.11-1.59-2.43-.11-3.79.41-6.12.14-.14.09-.21.25-.43.25-.41,0-.76-.07-1.09-.14-.19,1.03-.2,1.65-.03,2.5.63.44,1.93.29,2.26.99-.19,4.25-.56,8.06-.32,11.66-.25.18-.15.77-.22,1.17.09.31.28.38.44.59.62.8,1.21,1.96,2.1,2.37,1.37.62,3.57-.28,5.63-.04.85.11,1.51.24,2.31.3.56-.41.88-.9,1.4-1.44h0ZM95.16,79.74c.02-.08.07-.04.07,0,.12-.33-.05-1.23.2-1.93,1.36-.19,2.75.03,4.26-.05.12-.21.22-.44.58-.38.26,0,.02.06.05.21.14-.06.3-.1.36-.26,1.38.71,2.95-.28,4.38.16.58.99.35,2.77.35,3.92-.11.2-.33.26-.51.39-.46-.15-.83-.18-1.23-.08-.35.34-.02,1-.27,1.03.33.72.03,2.07.06,3.13.02.62.24,1.21.29,1.83.11,1.3.05,2.6.29,3.84,1.06.3,2.72,1.17,3.68.39.24-2.37.28-5.65-.08-7.93.36-.37-.23-1.25.24-1.51-.35.32-.13-.32-.23-.57-2-.34-1.24-3.06-1.26-4.74,1.32-.08,3.25.05,5.08.07.93.01,1.77-.11,2.46.1.98.29,1.36.83,1.31,1.9-.05,1.33-.44,3.13-.77,4.26-.38-.03-.65-.16-.87-.34.12,4.03.11,8.09-.04,12.65-.92.28-1.15,1.35-2.04,1.67-.1.05-.12.22-.16.34-.84.27-1.42,1.42-2.45,1.71-.87-.34-2.45-.34-3.53-.59-1.11.35-2.19.08-3.25.4-1.76.08-2.35-.87-3.26-1.54-.22-.99-1.79-1.51-1.88-2.63-.05-.62.2-1.35.26-1.86.03-.23-.25-.17-.25-.37.07-1.04.23-1.44.08-2.15.05.02.06.08.13.08-.13-1.04.03-2.5,0-3.89-.03-1.11-.12-2.45.14-3.12-.25-.35-.34-.83-.46-1.29-1.78.33-1.61-1.47-1.73-2.83h0Z"/>
    <path class="cls-4" d="M108.71,98.4c-.81-.06-1.46-.19-2.31-.3-2.06-.25-4.26.66-5.63.04-.9-.41-1.49-1.57-2.1-2.37-.16-.21-.35-.27-.44-.59.07-.4-.04-.99.22-1.17-.24-3.6.13-7.41.31-11.66-.33-.7-1.64-.55-2.26-.99-.17-.85-.16-1.47.03-2.5.33.07.67.14,1.09.14.21,0,.29-.16.43-.25,2.33.27,3.69-.25,6.12-.14.21.63.19,1.01-.11,1.59-.04.25.28-.04.18.36-.3.17-.98-.03-1.46.25-1.02.59-.56,2.72-.31,3.52-.33.34.02.84-.02,1.32-.03.31-.1.23-.05.69.06.46.01,1.18.08,1.81.03.25.2.52.22.78.08.91-.1,1.99.08,2.86.03.17.26.28.37.58.2.53.18,1.1.95,1.11,1.21-.61,2.89-.15,4.61-.24.96-3.32-.06-7.89.63-11.22-.32-.65-1.14-.86-1.7-1.16.02-1.02-.12-1.53-.03-2.64,1.94-.2,4.09.19,6.1.07.26.99.03,2.01-.08,3.12-.37-.18-.59.06-1.03,0-.17.18.06.4-.11.62-.36-.02-.75-.07-.9.15.38,1.65.83,3.73.87,5.41-.25,1.08.05,2.71-.07,4.1-.11,1.17.18,2.73-.02,3.34-.19.57-1.8,1.46-2.26,1.93-.52.54-.84,1.02-1.4,1.44h0Z"/>
    <path class="cls-2" d="M62.79,90.48c.12-.09-.03-.22.06-.29.63-.45,1.11-1.06,1.6-1.66.06,0,.13,0,.19.01.18-.39.78-.72,1.17-.96.47-.28.78-1.16,1.44-.65,0,.27-.17.36-.23.57.15,1.62-.07,3.51.06,5.15-.35.18-.75.27-1.13.23,0,.16-.02.29-.12.34-.28.08-.43.02-.69.16.09,1.21.08,2.26.3,3.46,2.12.43,4.73-.08,7.24-.19.03-.94-.13-2.46,0-3.49-.38-.16-.83-.11-1.12.08-.28-.23-.66-.35-.73-.72-.05-.22.08-.49.09-.72.07-1.62-.17-3.33-.16-5.01,0-1.3.15-2.79-.02-4.03.51-.7,1.69-.39,2.38-.84.12-1.17-.12-2.37-.19-3.65-.29-.67-1.41-.36-1.96-.45-.08.03,0,.24-.16.18-.25,0-.21-.24-.37-.31-1.42-.03-3.18-.18-4.46-.1-1.59,2.26-3.42,4.26-4.97,6.57-.21-.13-.17.05-.44.03.03-.04.12-.17-.04-.15-.31-.2-.63-.66-.97-.98-.02-.27-.22-.42-.36-.46-.13-.48-.51-.74-.82-.97-.57-.75-1.25-1.79-1.95-2.58.02-.16-.07-.21-.03-.39-.52-.21-.52-.72-.97-.88-.13-.04-.31.05-.49.02-.62-.1-1.54.23-2.29.07-.68.24-1.69.05-2.35.4-.14-.15-.4-.2-.67-.23-.18.03.02.21-.16.19-.21.06.03-.27-.18-.2-.08,0-.16-.01-.24-.01-.25.94.16,2.09.17,3.11.5.25,1.6-.21,1.87.35.24,1.25.39,2.61.36,4.15-.03,1.28.27,2.73.36,4,.04.52-.08,1.01-.08,1.45,0,.42.21.76.14,1.03-.16.63-1.23.19-1.53.55-.42,1.39-.04,3.03.16,4.18.47.24.72-.4,1.04-.33,0,.15-.09.2-.07.38.76,0,1.77-.07,2.62.14.36-.23,1-.01,1.23-.27.38.37.65-.04,1.15.16.13-.08.2-.22.4-.22.09.04-.05.29.13.25.4.02.7.02,1.21-.03-.24-1.18-.22-2.92-.26-4.04-.32,0-.8.01-1.36.07-.23-.29-.43-.51-.48-.9-.08-.63.07-1.41-.18-2.1.17-.54.08-1.29.1-1.84,0-.09.03-.49.03-.48.24-.71.96-.28,1.35.07.29.25.45.71.77,1.01.14.14.36.18.52.32.89.79,1.7,1.95,2.58,2.62.52-.35.86-1.14,1.52-1.18h0ZM58.86,93.08c-.03.93-.03,2.71.14,3.69.08.03.47.03.57.18.1.2-.07.3-.12.48-.61.1-1.11.22-1.81.24-.34.01-.65-.11-.97-.1-.2,0-.39.14-.59.16-.14.01-.26-.07-.39-.07-.4,0-.8.17-1.17.18-.93.03-1.97-.22-2.91-.16-.08,0-.1-.1-.09-.1-.69.07-1.32.43-1.88-.15-.09-1-.32-1.99-.37-2.88.21-.13.08-.37.22-.52,0-.19-.15.03-.19-.11.06-.45.08-.53.05-.87.05,0,.1,0,.14,0-.02-.38-.01-1.61.67-1.66.14.06.11.2.13.25.82.22,1.04-.88.56-1.33.07-.24-.04-.6.14-.81-.1-.14-.16-.64.03-.63.07-.24-.09,0-.18-.16-.09-.15.03-.32.02-.39-.09-.53-.29-1.04-.3-1.61,0-.11.1-.13.11-.24.02-.22-.12-.51-.1-.78.04-.81.07-1.79-.21-2.44.14-.59-.05-.79-.07-1.31-.28-.3-.7.13-.92-.1-.38.77-1.49,0-1.03-.64-.04-.07-.03-.19-.19-.16-.3-1.57-.24-2.43.3-3.68.96-.19,2.01-.15,3.07-.31.13,0,.06.04.04.1.15.03.13-.13.25-.13,1.19.18,2.46,0,4.03.03.33.44.88.53,1.21.94.54.67.82,1.56,1.59,2.03.51,1.04,1.17,1.95,1.78,2.91.22-.37.55-.61.78-.98-.01-.06-.12-.05-.19-.06.14-.14.17-.12.34-.03.33-.49.88-.91,1.2-1.63.1-.08.07,0,.2.01.06-.09.08-.22.12-.34.59-.41.95-1.33,1.55-1.71.07-.12-.18-.16-.04-.2.55-.79,1.09-1.42,2.15-1.24.38.06.77.03,1.26.02,1.03-.01,2.36.33,3.24.13,0-.12-.08-.15-.03-.29.62.95,2.43.08,2.9,1.13-.05,1.71-.09,3.3.03,4.76-.65.44-1.73.38-2.37.7-.08,3.45.06,6.08.08,9.13.74.11,1.73-.06,1.86.64.11.6-.19,1.77-.18,2.37.02.63.19,1.15.2,1.71-.12.16-.31.24-.5.32-.56-.32-1.28.08-1.85,0-.7.09-1.51.3-2.14.13-.11.01-.04.23-.2.18-.17-.18-.72-.14-.97.04-.11.02-.06-.09-.14-.11-.46.16-.99.05-1.8,0-.45-.03-1.01.03-1.25-.21-.34-.34-.27-1.32-.19-1.86,0-.12-.18-.07-.18-.2.04-.9-.23-1.75-.15-2.53.71-.37,1.33-.24,1.93-.67.06-.28.22-.81-.04-1.12-.05-.91.24-1.92-.06-2.53-.12-.01-.15.08-.29.03-.51.63-1.16,1.1-1.6,1.8-.06.04-.13.06-.25.04.09.46-.78.68-1.04,1.21,0,.1.21.02.24.11-.22,0-.25.08-.26.28,0-.17-.37.17-.26.28-.27,0-.49.51-.33.66-.22.37-.64-.22-.78.1-.18-.12-.21-.36-.56-.32-.02-.14-.11-.21-.13-.35-1.5-1.12-2.54-2.66-3.81-4-.14.09.05.26.03.39-.2.38,0,.84.03,1.31.03.76-.1,1.68.08,2.14.68.01,1.31.01,1.78.24-.1.29-.01.48-.04.82.06,0,.04-.09.06-.14h0Z"/>
    <path class="cls-6" d="M62.79,90.48c.12-.09-.03-.22.06-.29.63-.45,1.11-1.06,1.6-1.66.06,0,.13,0,.19.01.18-.39.78-.72,1.17-.96.47-.28.78-1.16,1.44-.65,0,.27-.17.36-.23.57.15,1.62-.07,3.51.06,5.15-.35.18-.75.27-1.13.23,0,.16-.02.29-.12.34-.28.08-.43.02-.69.16.09,1.21.08,2.26.3,3.46,2.12.43,4.73-.08,7.24-.19.03-.94-.13-2.46,0-3.49-.38-.16-.83-.11-1.12.08-.28-.23-.66-.35-.73-.72-.05-.22.08-.49.09-.72.07-1.62-.17-3.33-.16-5.01,0-1.3.15-2.79-.02-4.03.51-.7,1.69-.39,2.38-.84.12-1.17-.12-2.37-.19-3.65-.29-.67-1.41-.36-1.96-.45-.08.03,0,.24-.16.18-.25,0-.21-.24-.37-.31-1.42-.03-3.18-.18-4.46-.1-1.59,2.26-3.42,4.26-4.97,6.57-.21-.13-.17.05-.44.03.03-.04.12-.17-.04-.15-.31-.2-.63-.66-.97-.98-.02-.27-.22-.42-.36-.46-.13-.48-.51-.74-.82-.97-.57-.75-1.25-1.79-1.95-2.58.02-.16-.07-.21-.03-.39-.52-.21-.52-.72-.97-.88-.13-.04-.31.05-.49.02-.62-.1-1.54.23-2.29.07-.68.24-1.69.05-2.35.4-.14-.15-.4-.2-.67-.23-.18.03.02.21-.16.19-.21.06.03-.27-.18-.2-.08,0-.16-.01-.24-.01-.25.94.16,2.09.17,3.11.5.25,1.6-.21,1.87.35.24,1.25.39,2.61.36,4.15-.03,1.28.27,2.73.36,4,.04.52-.08,1.01-.08,1.45,0,.42.21.76.14,1.03-.16.63-1.23.19-1.53.55-.42,1.39-.04,3.03.16,4.18.47.24.72-.4,1.04-.33,0,.15-.09.2-.07.38.76,0,1.77-.07,2.62.14.36-.23,1-.01,1.23-.27.38.37.65-.04,1.15.16.13-.08.2-.22.4-.22.09.04-.05.29.13.25.4.02.7.02,1.21-.03-.24-1.18-.22-2.92-.26-4.04-.32,0-.8.01-1.36.07-.23-.29-.43-.51-.48-.9-.08-.63.07-1.41-.18-2.1.17-.54.08-1.29.1-1.84,0-.09.03-.49.03-.48.24-.71.96-.28,1.35.07.29.25.45.71.77,1.01.14.14.36.18.52.32.89.79,1.7,1.95,2.58,2.62.52-.35.86-1.14,1.52-1.18h0ZM58.86,93.08c-.03.93-.03,2.71.14,3.69.08.03.47.03.57.18.1.2-.07.3-.12.48-.61.1-1.11.22-1.81.24-.34.01-.65-.11-.97-.1-.2,0-.39.14-.59.16-.14.01-.26-.07-.39-.07-.4,0-.8.17-1.17.18-.93.03-1.97-.22-2.91-.16-.08,0-.1-.1-.09-.1-.69.07-1.32.43-1.88-.15-.09-1-.32-1.99-.37-2.88.21-.13.08-.37.22-.52,0-.19-.15.03-.19-.11.06-.45.08-.53.05-.87.05,0,.1,0,.14,0-.02-.38-.01-1.61.67-1.66.14.06.11.2.13.25.82.22,1.04-.88.56-1.33.07-.24-.04-.6.14-.81-.1-.14-.16-.64.03-.63.07-.24-.09,0-.18-.16-.09-.15.03-.32.02-.39-.09-.53-.29-1.04-.3-1.61,0-.11.1-.13.11-.24.02-.22-.12-.51-.1-.78.04-.81.07-1.79-.21-2.44.14-.59-.05-.79-.07-1.31-.28-.3-.7.13-.92-.1-.38.77-1.49,0-1.03-.64-.04-.07-.03-.19-.19-.16-.3-1.57-.24-2.43.3-3.68.96-.19,2.01-.15,3.07-.31.13,0,.06.04.04.1.15.03.13-.13.25-.13,1.19.18,2.46,0,4.03.03.33.44.88.53,1.21.94.54.67.82,1.56,1.59,2.03.51,1.04,1.17,1.95,1.78,2.91.22-.37.55-.61.78-.98-.01-.06-.12-.05-.19-.06.14-.14.17-.12.34-.03.33-.49.88-.91,1.2-1.63.1-.08.07,0,.2.01.06-.09.08-.22.12-.34.59-.41.95-1.33,1.55-1.71.07-.12-.18-.16-.04-.2.55-.79,1.09-1.42,2.15-1.24.38.06.77.03,1.26.02,1.03-.01,2.36.33,3.24.13,0-.12-.08-.15-.03-.29.62.95,2.43.08,2.9,1.13-.05,1.71-.09,3.3.03,4.76-.65.44-1.73.38-2.37.7-.08,3.45.06,6.08.08,9.13.74.11,1.73-.06,1.86.64.11.6-.19,1.77-.18,2.37.02.63.19,1.15.2,1.71-.12.16-.31.24-.5.32-.56-.32-1.28.08-1.85,0-.7.09-1.51.3-2.14.13-.11.01-.04.23-.2.18-.17-.18-.72-.14-.97.04-.11.02-.06-.09-.14-.11-.46.16-.99.05-1.8,0-.45-.03-1.01.03-1.25-.21-.34-.34-.27-1.32-.19-1.86,0-.12-.18-.07-.18-.2.04-.9-.23-1.75-.15-2.53.71-.37,1.33-.24,1.93-.67.06-.28.22-.81-.04-1.12-.05-.91.24-1.92-.06-2.53-.12-.01-.15.08-.29.03-.51.63-1.16,1.1-1.6,1.8-.06.04-.13.06-.25.04.09.46-.78.68-1.04,1.21,0,.1.21.02.24.11-.22,0-.25.08-.26.28,0-.17-.37.17-.26.28-.27,0-.49.51-.33.66-.22.37-.64-.22-.78.1-.18-.12-.21-.36-.56-.32-.02-.14-.11-.21-.13-.35-1.5-1.12-2.54-2.66-3.81-4-.14.09.05.26.03.39-.2.38,0,.84.03,1.31.03.76-.1,1.68.08,2.14.68.01,1.31.01,1.78.24-.1.29-.01.48-.04.82.06,0,.04-.09.06-.14h0Z"/>
    <path class="cls-2" d="M89.89,97.16c.17.07.24-.21.16-.24-.05.08-.12.14-.16.24h0ZM92.26,83.21c0-.17.05-.38-.07-.44-.12.13.02.33.07.44h0ZM88.27,78.14c-.46.36-1.25-.28-2,.14-.12-.3-.55-.09-.63.01-.07-.01-.04-.12-.04-.2-.84.15-1.91-.34-2.72.04-.45-.3-1.21.4-1.71.35-1.11.97-1.77,2.44-2.72,3.59-.16,2.18-.36,4.57-.28,6.93.03.86.19,1.65.1,2.53-.12,1.21.21,1.62.7,2.32.69.99,1.38,2.08,1.97,2.97.35.21.84.05,1.35.17.42-.17.83-.18,1.28-.22.16-.01.33-.15.49-.17.44-.05.87.09,1.35.12.65.04,1.3-.26,1.94-.04.33-.22.71-.14.94-.39.24.18.45-.12.78,0,.1-.07.08-.29.17-.38.02.07.05.08-.01.15.31-.05.44-.29.7-.4.59-1.13,1.42-2,2.15-2.99.14-2.06-.22-2.95-.03-4.81-.02-.12-.11-.18-.18-.25.1.01.15-.03.15-.14-.21-1.65.26-3.2.07-4.8-.06-.51-.03-1.07.04-1.65-.46-.03-.56-.75-1.07-.88.02-.11,0-.18-.03-.24-.63-.34-1.18-1.19-1.65-1.69-.37-.01-.86.19-1.11-.06h0ZM88.89,97.73c-.37-.33-.97-.04-1.5-.04-.19,0-.38-.08-.58-.08-.34.01-.69.03-.88.19-.29-.17-.85.1-1.15-.21-.23,0-.29.04-.3.18-.13-.3-.92-.24-.98.14-1.2-.29-2.38-.1-3.27-.57-.23-.9-1.03-1.29-1.39-2.07-.49-.31-.66-.92-1.1-1.28,0-.53-.09-.71-.28-1.03.16-.4-.07-1.05-.07-1.46-.03-.13.11-.09.16-.14-.13-1,.05-2.07-.1-2.67.04.03.08.06.1,0-.15-.77-.03-1.71-.15-2.53-.07-.43.09-.87.07-1.31,0-.09-.07-.15-.08-.25-.06-.67.16-1.38.11-1.98-.01-.18-.11-.28-.07-.44.05-.22.25-.26.41-.46.25-.32.42-.93.79-1.07.2-.57.66-1.16,1.06-1.69.55-.73,1.2-1.22,2.36-1.42.46-.08,1.07-.09,1.51-.06.9.07,1.8.08,2.76.11.54.01,1.09.22,1.64.23.68.02,1.5-.35,1.99.11.27.25.37.68.63.95.09.11.28.31.42.42.03.02.15-.03.19.01.4.39.7.9,1.04,1.27.31.16.49.42.79.58.22,1.75-.18,3.53-.19,5.28-.02,2.15,0,4.3.23,6.47-.14.13-.29.26-.41.41-.04.17.16.13.13.3-.25.42-.43.92-.79,1.22.14.36-.21.19-.13.67-.57.01-.46.51-.34.85-.17,0-.22-.11-.18-.3-.61.57-.66,1.32-1.45,1.67-.31-.08-.48-.04-.82-.04-.1.12-.2.22-.22.43-.08,0-.18-.04-.2.03-.03-.07.06-.45.26-.42h0Z"/>
    <path class="cls-6" d="M89.89,97.16c.17.07.24-.21.16-.24-.05.08-.12.14-.16.24h0ZM92.26,83.21c0-.17.05-.38-.07-.44-.12.13.02.33.07.44h0ZM88.27,78.14c-.46.36-1.25-.28-2,.14-.12-.3-.55-.09-.63.01-.07-.01-.04-.12-.04-.2-.84.15-1.91-.34-2.72.04-.45-.3-1.21.4-1.71.35-1.11.97-1.77,2.44-2.72,3.59-.16,2.18-.36,4.57-.28,6.93.03.86.19,1.65.1,2.53-.12,1.21.21,1.62.7,2.32.69.99,1.38,2.08,1.97,2.97.35.21.84.05,1.35.17.42-.17.83-.18,1.28-.22.16-.01.33-.15.49-.17.44-.05.87.09,1.35.12.65.04,1.3-.26,1.94-.04.33-.22.71-.14.94-.39.24.18.45-.12.78,0,.1-.07.08-.29.17-.38.02.07.05.08-.01.15.31-.05.44-.29.7-.4.59-1.13,1.42-2,2.15-2.99.14-2.06-.22-2.95-.03-4.81-.02-.12-.11-.18-.18-.25.1.01.15-.03.15-.14-.21-1.65.26-3.2.07-4.8-.06-.51-.03-1.07.04-1.65-.46-.03-.56-.75-1.07-.88.02-.11,0-.18-.03-.24-.63-.34-1.18-1.19-1.65-1.69-.37-.01-.86.19-1.11-.06h0ZM88.89,97.73c-.37-.33-.97-.04-1.5-.04-.19,0-.38-.08-.58-.08-.34.01-.69.03-.88.19-.29-.17-.85.1-1.15-.21-.23,0-.29.04-.3.18-.13-.3-.92-.24-.98.14-1.2-.29-2.38-.1-3.27-.57-.23-.9-1.03-1.29-1.39-2.07-.49-.31-.66-.92-1.1-1.28,0-.53-.09-.71-.28-1.03.16-.4-.07-1.05-.07-1.46-.03-.13.11-.09.16-.14-.13-1,.05-2.07-.1-2.67.04.03.08.06.1,0-.15-.77-.03-1.71-.15-2.53-.07-.43.09-.87.07-1.31,0-.09-.07-.15-.08-.25-.06-.67.16-1.38.11-1.98-.01-.18-.11-.28-.07-.44.05-.22.25-.26.41-.46.25-.32.42-.93.79-1.07.2-.57.66-1.16,1.06-1.69.55-.73,1.2-1.22,2.36-1.42.46-.08,1.07-.09,1.51-.06.9.07,1.8.08,2.76.11.54.01,1.09.22,1.64.23.68.02,1.5-.35,1.99.11.27.25.37.68.63.95.09.11.28.31.42.42.03.02.15-.03.19.01.4.39.7.9,1.04,1.27.31.16.49.42.79.58.22,1.75-.18,3.53-.19,5.28-.02,2.15,0,4.3.23,6.47-.14.13-.29.26-.41.41-.04.17.16.13.13.3-.25.42-.43.92-.79,1.22.14.36-.21.19-.13.67-.57.01-.46.51-.34.85-.17,0-.22-.11-.18-.3-.61.57-.66,1.32-1.45,1.67-.31-.08-.48-.04-.82-.04-.1.12-.2.22-.22.43-.08,0-.18-.04-.2.03-.03-.07.06-.45.26-.42h0Z"/>
    <path class="cls-2" d="M117.64,113.33c-.21-.01-.18.28-.37.07-.13.96-.95,1.04-1.35,1.57-.48.11-.47-.07-.9-.15-.79-3.2-1.52-6.98-1.28-10.4.41-.05.62.08.9.15.96,2.37.58,5.59,1.2,8.46.85-.4,1.01-2.12,1.79-2.84-.12-.64.48-1.15.37-2.02.46-.34,1.56-.16,1.8.38-.06.53-.07.45-.3.75.37,1.2,1.3,1.85,1.72,2.99.52-2.46.36-5.82.82-8.31-.23-.03-.19-.82-.23-1.27.37-.21.98-.31,1.27.3.52,1.09,0,3.68-.07,5.61-.01.33.14.79.07,1.2-.09.57-.06,1.85-.37,2.25-.05.23.21.14.15.37,0,.19-.14.26-.22.38.46.4-.06.87.07,1.57-.22.08-.43.17-.75.15-.46-.59-1.28-1.39-1.65-2.32-.02-.19-.13.1-.3,0-.07-.7-.55-1-.9-1.42-.24.28-.39.66-.75.82.43.72-.88.82-.75,1.72h0Z"/>
    <path class="cls-2" d="M110.16,108.69c-.2-.07-.34-.21-.45-.37.09-.09.09-.26.08-.45-.65-.68-1.16-1.53-2.09-1.72-.02-.1-.11-.14-.08-.3-.3.05-.43-.07-.67-.07.05.37-.07.58-.08.9.13.03.19-.11.22,0-.03,2.29.25,5.18,0,7.56.1.07.23.12.3.22,1.92-.27,3.77-2.08,3.59-3.97-.08-.87-.71-1.5-1.05-2.32-.03.28.15.35.23.52h0ZM100.81,107.05c.12-1.13-1.46-1.8-2.62-2.1-.32,1.28-.08,3.06.07,4.49.73-.38,2.45-1.49,2.55-2.39h0ZM101.11,110.04c1.45,1.49,3.29,2.59,4.56,4.26.32-.93-.39-1.8-.15-2.77-.62-1.28-.21-3.87-1.2-4.87.01-.77.25-1.55.22-2.32.54-.06.59-.61.97-.83.63.04.9.45,1.27.75,2.96.9,4.76,3.3,5.62,6.06.02,1.15-.06,2.36-.45,3.14-.11.09-.19.09-.3,0,.19.4-.48,1.32-1.05,1.2-.77,1.57-3.19,1.42-4.79.52.03-.26-.03-.42-.08-.6-1.24.66-2.27-1.13-3.22-1.42-.03-.15-.21-.14-.15-.37-1.11-.49-1.8-1.4-2.69-2.1-.18.02-.31.15-.45,0-.05.3-.43.27-.67.37-.03,1.37.15,3.08-.08,4.41-1.15.48-1.14-.97-1.87-1.34-.15-3.5-.56-6.74-.07-10.26.3.03.29-.25.45-.38,2.44.01,4.08,1.38,5.31,2.84.48,1.84-.76,2.36-1.2,3.67h0Z"/>
    <path class="cls-2" d="M148.55,79.39c-.41.38-.96.19-1.34.23-.55.05-1.11.34-1.64.35-.31.01-.57-.15-.88-.18-.5-.04-.97.2-1.52.24-.52.03-1.07-.14-1.58-.12-.35.01-.7.21-1.05.23-1.02.06-2.03-.26-3.16-.23-.09.1.1.29-.24.23.19,1.15.1,3.4-.12,4.97.86.11,2.1.39,3.16.12.52-.84,1.08-2.88,2.51-1.87.01.81.49,1.55.58,2.45.14,1.27-.1,2.79-.12,4.27-.01,1.49,0,3,0,4.33,0,.42.22.86-.18,1.23-.44.05-.96-.22-1.46.05-.22.88-.34,1.67-.41,2.34,2.48.52,4.8-.29,6.96-.35.08-.61.16-1.54.29-2.28-.43-.45-1.38-.38-1.81-.82-.52-3.87-.88-8.14-.12-11.99,1.84-.46,2.32.9,2.81,1.99,1.16.21,2.24.35,3.33.29-.17-1.86-.34-3.46-.47-5.26-1.22-.28-2.25-.22-3.57-.23h0ZM153.58,85.82c-.99-.04-2.22.28-3.74.12-.91-.09-1.26-.59-1.64-1.4-.2-.43-.32-1.54-.94-1.23-.1,3.66-.45,7.25.18,10.93.39.43,1.04.32,1.52.53.28.12.26.38.47.52.25.17.56-.04.7.23.1.68-.15,1.54-.06,2.34.06.55.39.92.35,1.34-.81.19-1.48-.27-2.22-.41-.79-.15-1.51-.03-2.34.05-.58.06-1.28-.13-1.76.18-.51-.21-.84.2-1.28-.06-.67.34-2.12.15-2.69-.53-.1-.95-.48-1.69-.35-2.75.57-.52,1.52-.66,2.39-.87.02-1.65-.02-3.13,0-4.74.03-1.98.44-4.24-.17-5.73-.65.46-.72,1.51-1.52,1.81-.68-.27-1.41-.14-2.11-.17-.29-.01-.66-.18-.94-.18-.57.01-1.1.16-1.34-.41-.25-.6.06-1.97,0-2.98-.08-1.2-.61-1.88-.58-2.92.21-.2.5-.32.58-.64.32-.03.65-.12,1.11-.12.27,0,.68-.06,1.29-.06.92,0,1.91-.29,2.86-.29,1.76,0,3.57.06,5.32.06,1.3,0,2.51.18,3.68.23.59.03.66.03,1.23.18.67.18,1.37.11,1.58.7.1.28-.08.39-.06.76,0,.14.17.37.18.53.11,1.46.17,3.44.29,4.97h0Z"/>
    <path class="cls-2" d="M129.07,83.5c.19-.04.37-.08.36-.34-.32-.1-.45.2-.36.34h0ZM129.82,88.38c-.28-.74-.84-1.21-.82-2.24,0-.09-.16-.04-.17-.12-.2-.83-.75-1.34-.88-2.24.08-.2.42-.12.48-.34.14-.2-.18-.38-.1-.71.3-.25.87.08,1.12-.09-.23-1.38.07-2.94-.36-4.16-3.23.72-5.84-.15-9.02.59-.13,1.43-.32,3.14-.7,4.49.48.02,1.3-.06,1.87-.13.15.16.47.21.64.25.05,1.29-.84,2.45-1.26,3.59-.85,2.32-2.13,4.41-2.8,6.6.28.05.09-.39.42-.28-.07.31.45.83.08,1.23-.8.23-1.49-.2-2.22.12-.38.9-.34,2.17-.26,3.33,1.52.4,2.81-.18,4.16-.24.91-.05,1.84.04,2.58-.05-.1-1.14.1-2.8.22-4.21.09.09.27-.02.3-.17-.11-.1-.39-.05-.28-.36.3-.15.71.03.81.25.91.04,2.23-.14,3.4-.44.95.65.58,2.57.9,3.82.1.03.15-.08.18,0,.06.63-.33,1.1.25,1.47,2.09-.21,4.02-.73,6.39-.66.35-1.16.33-1.99.2-3.21-.73-.07-1.7.16-2.46-.06-.8-2.03-2.24-3.76-2.53-6.09-.01.05-.05.07-.12.06h0ZM130.38,78.16c-.15.21.03.45.1.7.05.18-.14.32-.13.52.01.37.19.84.2,1.35.01.64,0,1.46,0,2.1,0,.8-.15,1.32-.8,1.5-.1.7.37.77.26,1.35.4.72.64,1.51,1,2.25.11.24.37.38.51.77.14.41.28.98.49,1.53.28.78.54,1.16.65,2,.32.45.5,1.05.84,1.49.67-.17,1.42.15,2.17-.12.5.56.57,1.47.63,2.53.05.78.36,1.59.3,2.06-.07.6-.66.95-.91,1.32-1.08.28-1.87-.49-2.85-.6-.58-.06-1.32.03-1.93.07-1.17.07-2.29.37-3.39-.03-.23-.41-.23-1.04-.79-1.13.31-1.07-.21-2.88-.25-3.98-.77-.08-1.45.22-1.99.18-.35.48-.55,1.23-.63,1.86-.14,1.06.07,2.01.1,3.04-.55.24-1.13-.05-1.7-.1-.3-.03-.64.09-.94.03-.22-.04-.38-.19-.58-.19-.71-.02-1.36.31-1.99.18-.57.34-1.27.44-2.06.48-.29.01-.83.1-1.17.03-.8-.16-.92-1.47-.88-2.42.01-.16.16-.25.19-.4.09-.44.02-.92.09-1.29.06-.31.36-.81.15-1.11.39-.51,1.09-.26,1.53-.2.15-.48.29-.97.62-1.27-.03-.06-.13-.06-.11-.18.73-1.31,1.32-2.77,1.97-4.16.57-.9.91-2.55,1.55-3.58-.08-.19-.01-.26.01-.47-.67.26-2.09.48-2.39-.36.22-1.65.75-3.62.78-5.47-.01-.2-.18-.25-.23-.42.65-.44,1.54-.41,2.35-.35.47.03,1.28-.37,1.81-.01.12-.05.24-.12.35-.17,1.37-.04,2.6.36,3.74.15.87.24,1.9-.22,2.75-.05.15.22.4.35.57.54h0Z"/>
    <path class="cls-2" d="M165.51,93c-.33.11-1.16.28-1.87.35-.26.89-.41,2-.29,2.98.51.33,1.16.7,1.64,1.06.19.14.36.41.47.47.13.06.19-.07.29,0,.41.28.59.83,1.05.93.36.08.54-.09.94-.18.34-.07.74-.05,1.05-.12.28-.07.52-.26.76-.29,1.22-.19,2.41.16,3.51-.23.21.23.64-.03,1.05.06.18-.11.33-.26.59-.29.58-.7,1.05-1.17,1.75-1.75.54.06.76-.37,1.05-.7-.12-2.03-.26-3.85-.47-5.56-.79-.46-1.78-.71-2.46-1.28-2.23,0-4.43.33-6.26-.59.02-1.53-.27-2.91-.29-4.44,1.4-.28,3.59-.4,4.79-.41.71.26.8,1.15.99,1.93.29.14.58.1.93.06.13-.05-.02-.37.12-.41.39.53,1.71.37,2.22.06.38-1.31-.41-2.17-.41-3.45-1.15-.31-1.71-1.21-2.75-1.63.24.37.36,1.02.76,1.28.13.08.32,0,.41.12.42.53-.05,1.15-.06,1.58,0,.3.26.49,0,.76-.34-.33.06-1-.06-1.64-.3-.78-.97-1.18-1.17-2.05-.13.18-.21-.17-.29-.23-.89.25-1.72-.09-2.51-.12-1.57-.06-3.31.34-4.91.47-.21.13.19.26,0,.35-.56-.22-.83.24-1.29.59-.89.67-1.71,1.24-1.81,2.51-.1,1.27-.37,2.63-.41,3.97.59,1.09,1.63,1.72,2.34,2.69.21.11.57.05.64.29-.02-.27.16-.35.29-.47,1.24-.14,2.26.05,3.8.06.58.41,1.42.12,1.75.76.13.24.09.7.18,1.11.2,1.05.44,2.28.58,3.27-.78.7-2.21.22-3.21.64-.71-.48-.68-1.32-.82-2.34-1.04-.07-1.97-.21-2.63-.17h0ZM172.75,78.09c.22-.04.15.21.23.29,1.04-.16,2.22.45,2.75,1.4.44.04.55.13.88.35.24-.09.33-.33.76-.23.08.13.15.28.11.52.83,1.35.34,4.02.88,5.5-.08.04-.11.13-.12.24-1.92.33-3.89.14-5.73.47-.15-.15-.21-.37-.35-.53.01-.22.25-.22.24-.46-.07-.19-.66.3-.76-.18.25-.22.72-.04,1.05,0,.13-.06.02-.37.29-.29-.02-.41-.04-.71-.29-1-1.22-.16-2.48.06-3.74.06-.44.66.07,1.91,0,2.92.1.3.7.12.88.35,1.63-.24,2.99.04,4.73-.24,1.14.52,2.05,1.26,3.27,1.7.27.3.36.77.58,1.11.11,1.83.12,4.47.35,6.37-.16.15-.56.27-.76.06-.61.2-.93.68-1.4,1.05-.15.12-.38.1-.53.23-.21.19-.31.53-.53.7-.97.79-2.54.63-3.97.88-.08-.06-.18-.1-.24-.18-1.03.33-2.31.34-3.56.41-.46.03-.94.23-1.35.17-.59-.09-.95-.6-1.58-.47-.53-1.2-2.69-1.5-2.28-3.09-.33-.93-.14-2.54-.47-3.51.33-.23.79-.08.88-.47,1.59-.02,4.13-.43,5.85.23.28.44.09,1.35.35,1.81.79-.05,1.36-.32,1.87-.64-.09-.9-.14-1.84-.58-2.63-1.67-.44-3.36.09-4.68-.06-.1-.01-.11.04-.12.12-.05-.06-.21-.02-.17-.18-.19-.05-.12.15-.24.18-.52-.34-1.11-.6-1.35-1.23-1.24-.97-2.76-2.14-2.16-4.32-.04-.26.12.05.12-.12.25-1.61.22-2.83.35-3.8.92-1.15,2.3-1.67,2.98-2.92.58-.08,1.1-.17,1.87-.12.72.04,1.32-.19,2.05-.29.19-.03.27.03.53,0,.17-.02.47-.02.7,0,.92.05,1.45.17,2.4.12v-.29h0Z"/>
    <path class="cls-2" d="M158.76,75.43c-.18.04-.11-.17-.29-.12-.01.04,0,.12-.06.12h-.52c-.23.38-.5.2-.82.41-.02,1.08.37,1.98.47,2.98.09.87-.01,1.78.41,2.45.78-.27,1.43.03,2.05-.41-.73-1.65-.73-3.76-1.23-5.43h0ZM161.04,81.92c-1.1.03-2.62.82-3.74.12-.39-.64-.75-1.21-.88-1.98-.07-.19.09-.15.12-.23-.57-.85-.54-2.52-.93-3.57.08-.12.19-.2.35-.23-.13-.18-.32-.3-.29-.64.73-.21,1.5-.22,2.16-.7.5-.05,1.3-.1,1.58,0,.29.14.25.33.29.64.15,1.18.66,3.39.99,4.79.16.66.53,1.12.35,1.81h0Z"/>
    <path class="cls-4" d="M86.81,90.63c-.33-.82.02-1.79-.05-2.72-.02-.23-.11-.46-.11-.68,0-.94.16-1.98-.05-2.67.09-.04.17-.08.16-.23-.21-.62.02-1.52.08-2.37-.64-.89-2.63-.38-3.4.1-.02.47-.16,1.39.04,1.85-.16-.07-.1.47-.04.68-.17.45-.05.82.03,1.26-.12,1.16-.09,2.99-.04,4.22-.11.27-.16.68.04.92-.23.07.03.39.01.73-.01.23-.31.83-.03.48-.01.96-.16,1.76.92,1.75.68-.46,1.53.19,2.39-.21-.13-.88-.13-2.12.03-3.1h0ZM89.38,78.2c.48.5,1.02,1.35,1.65,1.69.04.06.05.14.03.24.51.14.61.86,1.07.88-.08.58-.1,1.14-.04,1.65.19,1.6-.28,3.15-.07,4.8,0,.11-.05.15-.15.14.07.07.16.13.18.25-.19,1.86.16,2.75.03,4.81-.73.99-1.56,1.86-2.15,2.99-.26.11-.39.35-.7.4.06-.06.03-.07.01-.15-.09.09-.06.31-.17.38-.33-.12-.54.18-.78,0-.23.24-.61.17-.94.38-.64-.22-1.29.08-1.94.04-.48-.03-.91-.18-1.35-.12-.17.02-.33.15-.5.16-.45.04-.86.05-1.27.22-.51-.12-.99.04-1.35-.17-.59-.89-1.29-1.99-1.97-2.97-.49-.7-.82-1.11-.7-2.32.09-.88-.07-1.67-.1-2.53-.08-2.36.12-4.75.28-6.93.96-1.14,1.61-2.62,2.72-3.59.51.05,1.26-.65,1.71-.35.82-.38,1.89.1,2.72-.04,0,.08-.03.18.04.2.08-.1.51-.31.63-.01.75-.41,1.53.22,2-.13.25.25.74.05,1.11.06h0Z"/>
    <path class="cls-2" d="M141.97,106.07c.15-.06-.18-.26-.22-.37.03-.09.09-.16.22-.15-.21-.29-.56-1.05.08-1.28.23-.07.47.15.75.15,1.46,0,5.05-.99,5.84.15.03.33-.02.58-.15.75-.14-.03-.45.1-.38-.15-.14.38-.47.05-.75.07-.98.07-2.24.52-3.37.3-.24.95.19,1.67.3,2.77.93.28,2.13-.17,2.92-.23.06.09.1.2.08.38.84.05,1.81.13,1.65.97-1.18.32-2.96.05-4.04.22-.27.12-.05-.25-.23-.22-.2.97-.28,2.55.3,3.44,1.26-.11,3.1-.65,4.19,0-.18.25.22.41,0,.67-.18-.22-1.22.5-1.42.07-.14.01-.04.26-.15.3-.15-.04-.31-.15-.15-.3-.22-.07-.13.17-.15.3-.31.04-.56,0-.6-.22-.1.07-.1.25-.22.3-.63-.3-1.71.48-2.24-.07-.53.46-.67-.17-.9-.52-.03-.05-.21-.05-.22-.07-.11-.22-.06-.66-.15-.97-.04-.15-.2-.19-.22-.3-.27-1.3-.49-3.11-.6-4.49-.04-.57-.18-1.19-.3-1.5-.05-.25.15-.11.15,0h0Z"/>
    <path class="cls-2" d="M137.55,106.82c-.02-.19.03-.32.23-.3-.04-1.47-1.33-2.28-2.7-1.95-.17.2.11.38-.07.52-.13-.42-.18.09-.37.22.1.84.48,2.14.22,2.84,1.3.3,1.66-1.25,2.69-1.35h0ZM138.75,104.43c.02.12-.07.13-.07.22.53.09.81.97.9,1.57-.38.51-.63,1.5-1.27,1.5-.17.28-.32.81-.75.6.07.22.07.23,0,.45-.26-.03-.46.16-.6.45,1.34,1.4,3.5,2.38,4.12,4.27.35-.22.55.27.82.37.09.2-.14.44,0,.45-.97.52-1.89-1-2.69-1.27-.16.01-.04-.26-.08-.37-.13-.01-.16.09-.3.07v-.23c-1.21-.59-2.1-2.13-3.67-2.62-.04,1.03.17,2.23.3,3.67-.24.25-.44.56-.37,1.12-.07.08-.28.03-.22.23-.39-.09-.71-.24-1.05-.38-.07-1.49-.4-3-.52-4.12.16-.16.22.1.45.08-.54-.37-.44-.92-.67-1.57.45-1.08-.21-2.08.15-2.7-.34-.62.12-1.75,0-2.54,1.64-.67,3.59-.4,4.64.38-.15.36.55.26.9.37h0Z"/>
    <path class="cls-2" d="M128.5,106.15c-.2,1.29-.57,1.72-.82,3,.79.26,1.55.23,2.39.07-.16-1.26-1.02-1.82-1.2-3.07h-.37ZM132.09,110.71c0,.19.28.12.38.22.14,1.15.56,2.03.67,3.22-.13.09-.39.05-.45.23-.46-.06-.48-.13-.82-.23-.45-1.27-.83-2.61-1.35-3.82-1.53.21-3.48-.43-3.52,1.12-.09-.01-.06-.14-.07-.22-.14.49.18,1.3-.45,1.35.49.42-.14.91-.37,1.27-.33.07-.46-.28-.9-.23-.11-1.08.48-2.08.6-2.99.06-.48-.13-1.16.3-1.34.21-2.05.68-3.82,1.57-5.24.35-.05,1.02-.05,1.5.15.92,1.03,1.53,2.36,2.17,3.67-.13,1.17.77,1.57.98,2.62.05.2-.15.15-.23.23h0Z"/>
    <path class="cls-4" d="M50.5,96.06s.1,0,.14,0c0-.07.03-.18-.04-.19-.02.07-.15.03-.11.19h0ZM61.64,84.88c-.03-.2-.1-.37-.32-.41.18.15.05.29.32.41h0ZM61.27,91.65c-.88-.67-1.69-1.83-2.58-2.62-.15-.14-.37-.19-.51-.32-.32-.3-.49-.76-.77-1.01-.4-.36-1.12-.79-1.35-.07,0,0-.02.39-.03.48-.02.55.07,1.29-.1,1.84.24.69.09,1.47.18,2.1.05.39.26.61.48.9.56-.06,1.04-.07,1.36-.07.04,1.12.02,2.85.26,4.04-.51.05-.82.05-1.21.03-.18.04-.04-.21-.13-.25-.2,0-.28.14-.4.22-.5-.21-.77.21-1.15-.16-.23.26-.88.04-1.23.27-.85-.21-1.85-.14-2.62-.14-.02-.19.07-.23.07-.38-.31-.07-.57.57-1.04.33-.2-1.15-.58-2.8-.16-4.18.31-.35,1.37.08,1.53-.55.07-.27-.14-.61-.14-1.03,0-.44.12-.93.08-1.45-.09-1.27-.4-2.72-.36-4,.04-1.54-.11-2.9-.35-4.15-.28-.56-1.38-.1-1.87-.35,0-1.03-.41-2.17-.17-3.11.08,0,.16,0,.24.01.21-.06-.03.27.18.2.18.02-.02-.16.16-.19.27.03.53.08.67.23.67-.36,1.67-.17,2.35-.41.74.16,1.67-.17,2.29-.07.17.03.35-.07.49-.02.46.16.45.67.97.88-.05.18.05.23.03.39.7.79,1.38,1.82,1.95,2.58.31.23.69.49.82.97.14.04.34.19.36.46.34.31.65.78.97.98.16-.03.07.1.04.15.27.03.23-.16.44-.03,1.55-2.31,3.38-4.31,4.97-6.57,1.28-.08,3.04.07,4.46.1.16.07.13.32.37.31.16.05.08-.15.16-.18.56.09,1.68-.22,1.96.45.07,1.28.31,2.48.19,3.65-.69.45-1.86.14-2.38.84.17,1.25.03,2.73.02,4.03,0,1.67.23,3.39.16,5.01,0,.23-.13.5-.08.72.08.37.46.49.73.72.29-.19.74-.24,1.12-.08-.12,1.03.04,2.55,0,3.49-2.51.1-5.12.61-7.24.19-.22-1.21-.21-2.25-.3-3.46.26-.13.41-.08.69-.16.1-.04.12-.18.12-.33.38.04.78-.05,1.13-.23-.12-1.64.09-3.52-.06-5.15.06-.21.22-.3.23-.57-.66-.51-.97.37-1.44.65-.39.23-.99.57-1.17.96-.06,0-.13,0-.19-.01-.49.6-.97,1.21-1.6,1.66-.09.07.06.19-.06.29-.66.04-1,.83-1.52,1.18h0Z"/>
  </g>
</svg>