<?xml version="1.0" encoding="UTF-8"?>
<svg id="Layer_1" data-name="Layer 1" xmlns="http://www.w3.org/2000/svg" viewBox="0 0 180 200">
  <defs>
    <style>
      .cls-1, .cls-2, .cls-3, .cls-4, .cls-5 {
        fill-rule: evenodd;
      }

      .cls-1, .cls-6 {
        fill: #fff;
      }

      .cls-2 {
        fill: #9fb73c;
      }

      .cls-3 {
        fill: #231f20;
      }

      .cls-6 {
        font-family: AmericanTypewriter-Bold, 'American Typewriter';
        font-size: 20.52px;
        font-weight: 700;
      }

      .cls-4 {
        fill: #ed2d2c;
      }

      .cls-5 {
        fill: #229e4b;
      }
    </style>
  </defs>
  <g>
    <path class="cls-1" d="M54.81,75.05s61.83.38,63.56.38,22.78-.19,26.61-.19,25.46-.38,26.03-.19c.57.19,4.98.57,4.98.57h1.53s.19,17.42.38,18.19c.19.77.19,1.91,0,6.51-.19,4.6-.19,13.02-.19,13.02l-89.02,1.15s-23.16-1.15-24.5-.96-9-.19-9.57,0c-.57.19-3.64-.38-3.64-.38,0,0,1.15-27.76,1.15-28.33v-9.76c0-.57,2.68,0,2.68,0Z"/>
    <path class="cls-5" d="M115.75,104.85c0,.43.02.76,0,1.09-.03.46-.24.72-.56.68-.37-.05-.5-.3-.52-.65-.05-1.48-.08-2.96-.14-4.44-.03-.73.29-1.25.89-1.76.15.22.28.41.4.59.41-.02.82-.11,1.22-.06,1.65.23,2.62,2.22,1.78,3.68-.47.82-1.27,1.07-2.17,1.01-.25-.02-.49-.08-.9-.15ZM115.82,103.31c.33.07.6.14.87.16.31.02.62-.01.76-.36.12-.3,0-.88-.22-1.06-.31-.26-.69-.36-1.07-.25-.14.04-.3.26-.33.42-.05.34-.01.7-.01,1.09Z"/>
    <path class="cls-5" d="M85.24,100.25c.02.36.04.58.05.84.42,0,.8,0,1.17,0,.25,0,.51-.05.76-.02.33.04.59.2.61.57.01.37-.22.57-.56.61-.51.06-1.02.09-1.52.12-.15,0-.3,0-.51,0v1.21c.66.2,1.3.26,1.97.13.25-.05.51-.05.76,0,.3.05.52.25.52.57,0,.36-.22.59-.56.61-.59.03-1.17.04-1.76.01-.46-.02-.91-.11-1.37-.18-.61-.09-.78-.28-.78-.92-.01-.97,0-1.94,0-2.91,0-.33-.02-.66-.06-.99-.06-.55.04-.75.59-.86.42-.09.86-.1,1.29-.14.55-.07,1.11-.11,1.66-.21.36-.07.67-.04.86.3.17.3.06.71-.34.9-.4.19-.86.31-1.3.37-.45.06-.91.01-1.47.01Z"/>
    <path class="cls-5" d="M110.98,104.94c-.07.5-.11.88-.18,1.26-.09.42-.35.66-.65.63-.31-.03-.52-.29-.54-.73-.07-1.58-.13-3.17-.17-4.75,0-.28.02-.57.11-.83.17-.56.45-.6.87-.16.09.09.17.19.26.31,1-.41,1.96-.36,2.66.49.65.78.7,1.75.29,2.68-.5,1.13-1.47,1.31-2.64,1.1ZM112.3,102.78c0-.7-.36-1.13-.96-1.14-.28,0-.52.08-.51.42,0,.36,0,.71.06,1.06.02.13.13.28.25.34.65.39,1.17.07,1.16-.69Z"/>
    <path class="cls-5" d="M122.52,103.91c-.22.09-.4.17-.59.24-1.08.38-2.09-.17-2.36-1.28-.17-.72-.03-1.42.17-2.11.08-.27.29-.48.57-.36.16.07.3.33.33.52.05.4,0,.82.01,1.22.02.56.22.83.58.86.38.03.76-.24.87-.71.08-.34.08-.71.12-1.06.05-.46.24-.7.56-.69.38,0,.54.28.59.59.18,1.11.35,2.22.49,3.33.07.57-.17,1.04-.57,1.44-.68.68-1.52.92-2.44.92-.58,0-1.01-.33-1.33-.8-.19-.27-.24-.58,0-.84.24-.26.55-.24.85-.1.16.08.28.22.44.3.41.22,1.07.09,1.49-.29.37-.33.43-.71.22-1.2Z"/>
    <path class="cls-5" d="M101.75,101.46c-.6.17-.92.52-1.07.99-.14.46-.21.94-.29,1.42-.03.2,0,.41-.05.61-.07.26-.24.46-.54.45-.29,0-.46-.2-.52-.48-.03-.15-.03-.31-.03-.46,0-1.38.02-2.76.04-4.13,0-.27.04-.57.15-.82.06-.15.3-.33.44-.31.14.02.33.25.36.41.06.35.04.71.06,1.07,0,.14.03.29.06.5.29-.16.5-.29.72-.4.89-.44,1.68-.15,2.05.78.13.33.19.69.21,1.04.04.79.04,1.58.04,2.37,0,.15.02.34-.07.45-.15.19-.35.43-.55.44-.2.02-.49-.17-.6-.35-.14-.22-.16-.53-.18-.81-.04-.59-.03-1.17-.07-1.76-.02-.32-.09-.63-.15-1.01Z"/>
    <path class="cls-5" d="M91.64,100.43c.13-.15.21-.29.33-.38.37-.26.76-.13.92.3.06.16.07.35.09.52.11.83.21,1.67.31,2.51.03.25.06.51.06.76,0,.34-.16.6-.51.67-.32.07-.53-.12-.68-.39-.06-.11-.1-.23-.17-.4-.2.14-.37.28-.56.4-.75.49-1.57.33-2.08-.4-.6-.86-.52-2.44.15-3.25.38-.46.86-.63,1.43-.53.22.04.44.11.7.18ZM91.62,101.53c-.26-.13-.47-.28-.71-.36-.28-.09-.58-.07-.73.23-.32.61-.38,1.26-.07,1.89.23.47.57.49.87.07.37-.52.62-1.1.64-1.83Z"/>
    <path class="cls-5" d="M106.95,104.25c-1.16.5-2.07.06-2.37-1.15-.18-.73-.14-1.47.16-2.17.31-.71.81-.99,1.57-.96.2,0,.4-.01.59-.04.52-.08.78.04.91.56.12.49.17,1,.23,1.51.09.73.17,1.47.25,2.2.01.13.07.28.02.37-.1.19-.24.43-.41.49-.17.05-.45-.06-.6-.19-.16-.14-.23-.38-.36-.62ZM106.14,103.26c.45-.49.63-1.33.39-1.79-.05-.1-.19-.21-.28-.2-.13.01-.29.1-.36.21-.29.44-.16,1.29.25,1.79Z"/>
    <path class="cls-5" d="M95.63,100.32c.46.12.97.04.99.57.03.57-.55.48-.96.69.07.53.13,1.09.2,1.63.03.27.23.36.46.44.32.1.55.31.52.66-.03.35-.3.51-.61.61-.74.23-1.42-.06-1.65-.81-.17-.55-.22-1.15-.31-1.73-.04-.27-.03-.56-.04-.74-.3-.26-.54-.47-.77-.68.21-.19.42-.37.75-.66.02-.11.03-.38.1-.65.08-.32.26-.58.63-.56.31.02.49.25.55.55.05.22.09.44.14.67Z"/>
    <path class="cls-2" d="M128.25,95.01c.8-.06,1.61-.16,2.42-.18,2.28-.05,4.55-.1,6.83-.09,1.07,0,2.14.14,3.21.23.66.06,1.32.13,1.98.21.2.02.4.06.6.11.65.19.66.2.67.91.01,1.94.05,3.89.02,5.83-.01,1.05-.13,2.09-.19,3.13-.08,1.28-.16,2.55-.25,3.83-.02.25-.07.49-.11.75-.34.04-.62.07-.9.1-2.8.24-5.58.71-8.4.65-1.66-.03-3.32-.12-4.98-.19-.1,0-.19-.05-.31-.09,0-.63-.04-1.24,0-1.84.15-1.9-.01-3.78-.2-5.66-.17-1.73-.19-3.47-.27-5.2-.04-.79-.08-1.58-.13-2.48ZM130.5,102.7c.05.13.09.22.12.32.03.1.04.2.08.3.87,2.15,2.23,3.77,4.64,4.24,1.98.38,3.63-.34,4.89-1.75,1.06-1.19,1.49-2.74,1.28-4.37-.07-.53-.26-1.03.32-1.45-.24-.03-.47-.07-.61.03-.44.33-.79.27-1.11-.16-.19-.25-.44-.31-.8-.04.24.28.47.53.76.87-.22.33-.42.71-.69,1.03-1.3,1.47-2.97,2.05-4.88,1.89-.92-.08-1.82-.31-2.49-1.03-.26-.28-.55-.51-.28-.97.12-.21.08-.51-.24-.64-.62.4-1.25.8-1.88,1.21.1.48.54.39.9.53ZM135.31,100.05c-.07-.24-.1-.53-.24-.76-.48-.82-1.22-.81-1.72,0-.27.44-.31.91-.23,1.39.08.44.58.88,1,.94.38.06.73-.19.95-.72.11-.25.15-.53.23-.85ZM137.44,99.87c-.05-.23-.11-.58-.23-.91-.17-.48-.41-.64-.85-.62-.42.01-.72.28-.83.76-.13.55-.01,1.06.28,1.54.21.32.5.52.89.5.31-.02.61-.4.69-.83.02-.1.02-.2.04-.43Z"/>
    <path class="cls-5" d="M130.5,102.7c-.36-.14-.8-.04-.9-.53.63-.4,1.25-.81,1.88-1.21.33.14.37.43.24.64-.27.46.02.69.28.97.68.73,1.58.96,2.49,1.03,1.92.16,3.59-.42,4.88-1.89.28-.32.47-.7.69-1.03-.29-.33-.52-.59-.76-.87.35-.28.6-.21.8.04.33.43.67.48,1.11.16.13-.1.36-.06.61-.03-.57.42-.38.92-.32,1.45.21,1.63-.23,3.18-1.28,4.37-1.25,1.41-2.91,2.13-4.89,1.75-2.41-.47-3.77-2.09-4.64-4.24-.04-.09-.05-.2-.08-.3-.03-.1-.07-.19-.12-.32ZM137.02,107.17c.81-.14,1.48-.4,1.97-.95-.41-.92-.8-1.8-1.2-2.7-.41.13-.79.24-1.21.37.15,1.12.29,2.17.44,3.28ZM136.61,107.17c-.2-1.06-.4-2.09-.6-3.16-.48.03-.92.06-1.4.09-.06.96-.11,1.86-.17,2.8.75.18,1.41.45,2.17.27ZM140.74,104.11c-.48-.6-.92-1.15-1.39-1.72-.42.33-.78.62-1.15.92.43.91.83,1.78,1.25,2.67.72-.44.92-1.18,1.29-1.87ZM134.19,104.02c-.56-.13-1.01-.24-1.5-.36-.11.6-.2,1.13-.3,1.67.55.73.97,1.06,1.65,1.26.05-.84.09-1.67.15-2.58ZM139.73,102.08c.37.42.75.86,1.24,1.41.2-.93.25-1.7.04-2.47-.03-.12-.17-.28-.27-.3-.11-.02-.28.11-.35.21-.23.36-.43.74-.66,1.14ZM130.99,102.38s-.13.1-.1.15c.25.69.32,1.47.98,2.05.18-.43.33-.79.44-1.04-.47-.42-.87-.77-1.32-1.17Z"/>
    <path class="cls-5" d="M135.31,100.05c-.08.31-.13.59-.23.85-.22.54-.57.78-.95.72-.43-.06-.93-.5-1-.94-.09-.48-.04-.96.23-1.39.5-.81,1.24-.82,1.72,0,.13.23.17.52.24.76ZM133.98,100.69c.52-.47.5-.91-.09-1.32-.44.63-.44.77.09,1.32Z"/>
    <path class="cls-5" d="M137.44,99.87c-.02.23-.02.33-.04.43-.08.43-.38.81-.69.83-.39.02-.68-.18-.89-.5-.3-.47-.41-.98-.28-1.54.11-.48.41-.75.83-.76.43-.02.68.14.85.62.12.33.17.69.23.91ZM136.31,99.01c-.24.5-.26.93.04,1.48.25-.56.39-.99-.04-1.48Z"/>
    <path class="cls-1" d="M137.02,107.17c-.15-1.11-.29-2.16-.44-3.28.42-.13.79-.24,1.21-.37.4.91.79,1.79,1.2,2.7-.49.55-1.15.81-1.97.95Z"/>
    <path class="cls-1" d="M136.61,107.17c-.76.19-1.42-.09-2.17-.27.06-.94.11-1.84.17-2.8.47-.03.92-.06,1.4-.09.2,1.07.4,2.1.6,3.16Z"/>
    <path class="cls-1" d="M140.74,104.11c-.38.69-.57,1.42-1.29,1.87-.42-.9-.82-1.76-1.25-2.67.37-.29.74-.59,1.15-.92.46.57.9,1.12,1.39,1.72Z"/>
    <path class="cls-1" d="M134.19,104.02c-.05.9-.1,1.73-.15,2.58-.69-.2-1.11-.53-1.65-1.26.1-.54.19-1.07.3-1.67.49.12.94.22,1.5.36Z"/>
    <path class="cls-1" d="M139.73,102.08c.23-.4.43-.78.66-1.14.07-.11.24-.23.35-.21.11.01.24.18.27.3.21.77.16,1.54-.04,2.47-.49-.56-.87-1-1.24-1.41Z"/>
    <path class="cls-1" d="M130.99,102.38c.45.4.84.75,1.32,1.17-.11.25-.26.61-.44,1.04-.66-.58-.73-1.36-.98-2.05-.02-.06.12-.18.1-.15Z"/>
    <path class="cls-1" d="M133.98,100.69c-.52-.56-.53-.69-.09-1.32.58.41.61.85.09,1.32Z"/>
    <path class="cls-1" d="M136.31,99.01c.43.49.29.92.04,1.48-.31-.55-.28-.97-.04-1.48Z"/>
    <path class="cls-5" d="M96.17,81.87c.16.18.17.42.23.64.18.58.47,1.08.78,1.52-.19.24-.5.36-.83.46-.08.23-.38.3-.43.51-.03.11-.02.39,0,.54.03.21.21.46.28.71.12.46.36.8.4,1.37.01.22,0,.36.05.54.04.19,0,.44.16.61-.03.03-.02.11-.02.17.11.17.18.38.33.52.27.08.41.29.71.34-.05.5-.2.9-.38,1.27-.25.19-.59.04-.88.22-.94.1-1.74.31-2.7.26-.18-.29-.42-.53-.52-.91,0-.06-.09-.04-.12-.07.03-.13,0-.15,0-.29.3-.13.47-.4.67-.63,0-.07,0-.13,0-.2.11.14.08-.25.02-.54-.01-.07-.08-.14-.09-.22,0-.05.05-.11.05-.17,0-.13-.08-.28-.07-.37.01-.12.12-.18.07-.29,0-.07-.09-.04-.1-.1.14-.32-.03-.45.02-.85.04-.09-.08-.02-.07-.08.15-.75-.14-1.37-.25-2-.2-.45-.83-.47-1.18-.76.4-.6.69-1.32,1.05-1.97.16.02.28-.01.36-.1.86.19,1.62-.24,2.46-.11h0Z"/>
    <path class="cls-5" d="M86.56,85.25c.15-.3.38-.42.38-.78,0-.11-.05-.34-.12-.42-.1-.12-.35-.09-.5-.17-.34-.18-.77-.09-1.07-.12-.05,0-.05-.08-.1-.07-.32.06-.79.02-1.14.12-.06.02.05.11-.02.14.18.3.17,1.09.3,1.59.72-.19,1.52-.09,2.25-.28h0ZM83.42,83.48c.18-.1.35-.06.55-.05.12-.17.3-.07.54-.07.61-.02,1.19-.08,1.78.08.13.04.3.14.45.2.35.14.69.44.66.93-.01.2-.16.4-.07.71-.1.04-.09.2-.14.29-.08.04-.17.08-.21-.02-.51.3-1.39.12-1.82.31-.35-.09-.56.08-.9.09-.25-.08-.36-.21-.35-.54.01-.36-.12-.81-.21-1.27-.05-.26-.15-.47-.26-.66h0Z"/>
    <path class="cls-1" d="M96.39,85.66c.05.04.01.17.02.24-.05-.05-.08-.2-.02-.24h0Z"/>
    <path class="cls-3" d="M74.9,86.75c.1,0,.09.13.1.24-.13.03-.14-.16-.1-.24h0Z"/>
    <path class="cls-3" d="M75.02,87.16c.12.18.21.48.21.7-.22-.05-.28-.51-.21-.7h0Z"/>
    <path class="cls-1" d="M72.46,88.57c.1.03.13.25.1.34-.1-.04-.14-.24-.1-.34h0Z"/>
    <path class="cls-3" d="M76.91,89.59c.04.08-.08.21-.09.31-.05-.09.06-.23.09-.31h0Z"/>
    <path class="cls-1" d="M75.95,90.95c.04.21-.21.11-.26.05,0-.1.18-.02.26-.05h0Z"/>
    <path class="cls-5" d="M58.9,83.76c-.12,0-.08.15-.17.19-.69,0-.72.7-.58,1.26-.63.12-1.29.22-1.84-.06-.18-.37-.4-.87-.26-1.4.07-.26.39-.4.44-.65.43-.31.53-.95.99-1.23.29,0,.67-.07.89.05.45-.14.98-.08,1.31-.25.09.04.25.04.41,0,.02,0,.07-.07.1-.07.38-.05.92.02,1.26-.14.57.03,1.2-.11,1.69-.04.05,0,.1-.02.12-.07.06.03.1.06.19.05.08,0,.1-.04.15-.07.09.04.2.06.33.05.13.57.58.83.6,1.49.03.06.14.05.19.1.17.36.35.91.19,1.32-.38.1-.77.29-1.16.3-.1-.39-.37-.59-.55-.84-.13-.03-.24-.16-.41-.18-.46-.07-.68.1-.8.41.15,1.23.05,2.74.59,3.66.38.43.8.81,1.42,1.01-.15.68-.42,1.25-.68,1.81-.37.17-.68.64-1.19.53-.97.21-1.82.09-2.68-.13-.35-.41-.58-.94-.79-1.49.39-.13.67-.26.76-.7.13.03.13-.06.22-.07.07-.26.36-.33.51-.58,0-.14,0-.28.05-.37-.23-.92-.2-2.09-.35-3.1-.13-.11-.16-.31-.31-.4-.05-.02-.05.12-.07.05.11-.26-.32-.36-.55-.45h0Z"/>
    <path class="cls-5" d="M72.55,87c-.22.09-.48,0-.64.17,0-.05-.02-.08-.07-.07-.06.11-.23.15-.36.05-.26.14-.43.03-.64.21,0,.28,0,.51.07.75.5,0,.99-.12,1.28.28.12-.4.72-.14,1.04-.31.15.09.54.06.62-.14-.19-.21.02-.69-.14-.93-.37.03-.77-.05-1.16,0h0ZM74.25,85.38c-.15,0-.02.25-.02.34-.26-.12-.6.02-.92,0-.06,0-.13-.06-.19-.05-.15.01-.42.16-.66.17-.23.01-.33.06-.5.1-.04,0-.1-.03-.14-.02-.13.02-.27.11-.38.12-.23,0-.64-.07-.9-.11-.47-.06-.33-.16-.38-.66-.02-.27.02-.59-.02-.86-.03-.22-.17-.31-.17-.54.05-.14.19-.07.31-.07.28,0,.6-.18.9-.17.02-.21-.24-.13-.28-.27-.1-.56-.36-.98-.54-1.47-.52-.11-.96.06-1.49,0-.14.16-.32.03-.54.07-.15.03-.29.07-.45-.03,0,.12-.17.05-.24.1-.03.06-.02.16-.07.19-.07,0-.08-.04-.17-.02-.2.67-.58,1.16-.76,1.85.43.12,1.18.04.99.71,0,.06.08.05.07.12.07,1.51.24,2.87.29,4.35-.4,0-.62.19-.9.41-.03.39.16.59.33.9.1.19.16.39.38.44.17.04.32-.07.5.05.08,0,.12-.06.21-.05.15.1.4.08.69.05.56-.06,1.18-.17,1.64-.21.22-.79.68-1.33.74-2.29-.39-.08-.73.21-1.04-.03-.11-.09-.07-.22-.12-.42-.09-.41-.34-1.15.03-1.37.16.1.37.02.57.1.63-.16,1.38-.21,2.01-.26.14.06.21.02.36,0,.25.04.48.19.68.2.11.21.22.42.36.61-.06-.01-.1,0-.1.07-.04.29.15.62.11.9-.41,0-.78.22-1.13.09-.02.07-.14.05-.19.1-.12.54.21.92.28,1.42.21.11.24.39.4.54.47.04.85-.19,1.26-.22.44-.03.91.07,1.39.18.1.02.11-.18.17-.12,0,.05,0,.11,0,.17.21.03.48.07.64.02.12-.27.1-.55.17-.8.12-.44.46-.7.6-1.09-.16-.03-.24-.01-.38,0-.03-.02.01-.06-.02-.12-.1-.03-.04.1-.09.12-.28,0-.58-.12-.71-.35-.14-.48-.28-.98-.38-1.51-.05-.29-.16-.59-.19-.88-.02-.18.02-.36,0-.54,0-.06-.06-.13-.07-.19-.06-.36.04-.83-.14-1.15-.19.07-.41.01-.5-.15.1-.12.21-.08.31-.19.58-.11.93-.21,1.59-.21-.25-.51-.54-.98-.73-1.54-.48-.17-1.02.13-1.42-.13-.02.06-.1.06-.14.1-.28-.17-.66,0-1.09-.03-.2.49-.51.88-.65,1.44.16.09.37.12.54.2.23.21.32.87.28,1.27-.01.1-.07.16-.02.25-.02-.03.04-.07.02,0-.15.08,0,.25.02.37h0ZM71.46,83.14c.12,0,.02.11.12.14-.01.09.02-.07,0,0,0,.16.19.18.31.27.05.04.07.13.12.17.1.08.46.31.12.42-.19.06-.42-.11-.69-.1-.07,0-.08.06-.14.07-.18.04-.4.02-.5.05-.06.01-.13.06-.19.1.11.34-.06.85.11,1.1.56.19.94.05,1.54-.04.28-.04.6,0,.76-.14-.01.07.03.1.07.12.21,0,.37-.06.57-.07.05,0,.05-.08.09-.1-.04-.5.14-1.08-.14-1.34-.39-.04-.75-.11-.92-.37,0-.09.06-.13.1-.2.04-.43.3-.62.5-.87.11-.35.31-.61.48-.9.2-.04.45-.14.64-.05.39-.03.95.04,1.47.08.46.03.92-.15,1.06.29.05,0,0-.1.02-.14.2-.08.43-.09.59.03-.07.59.17.99.14,1.46.07.03.12.08.07.17.14.15.3.33.28.56-.13-.03-.19.02-.24-.07-.4-.02-.61.25-.97.14-.12.02-.11.07-.21.07-.05.07-.05.2-.1.27.07.68.19,1.25.21,2.03-.01.08.06.06.07.12,0,.38.17.8.11,1.07,0,.07.1.04.1.12-.05-.01-.03.05-.07.05.12.21.28.4.4.61.33.14,1.03-.09,1.18.32-.09.02,0-.14-.09-.12.09.38-.1.65-.19,1-.03,0-.02-.06-.02-.1-.09,0-.02.18-.07.22-.23.21-.24.74-.45.9.03.23,0,.38-.1.54-.21.02-.33-.06-.47-.12-.23.03-.36.1-.57,0,0,.12-.13.04-.14.22-.26.05-.49-.05-.73.04-.38-.13-.71-.05-1.09-.17-.58.21-1.11-.09-1.42-.62-.07-.12-.08-.26-.16-.36-.25-.33-.58-.89-.73-1.22-.13.3-.27.66-.36.92-.16.47-.21.95-.41,1.42-.45.17-.94-.02-1.49.17-.08.02-.14.1-.21.12-.19.07-.39.02-.57.07-.12.03-.27.13-.45.02-.1-.03-.11.05-.16.07-.46.04-.97-.12-1.28-.47-.19-.21-.28-.54-.42-.81-.09-.16-.28-.36-.31-.52-.11-.74.86-.73.95-1.36.03-.19-.03-.5-.05-.76-.02-.28-.09-.56-.11-.85-.08-.91.05-1.58-.18-2.35-.37-.13-.81.24-1.09-.1.06-1.06.61-1.68.7-2.78.14-.06.41.02.52-.07.06-.18.11.14.21,0,.24.01-.06-.13,0,0,.9.04,1.9,0,2.77-.21.12.04.24.11.38.05,0,.05.06.05.09.07-.06.49.25.67.33,1.08l.33.64h0Z"/>
    <path class="cls-5" d="M81.07,84.6c.02.22.19.42.23.69.01.06-.02.11-.02.17.02.25.11.51.14.76.02.21-.02.45,0,.68.01.19.08.36.09.54.03.66-.1,1.3-.46,1.66-.19.02-.36.07-.5.14,0,.11-.03.18-.05.27.33.46.55,1.04.73,1.66.19-.03.41.06.59.12.25.06.67-.1.97.05.34-.04.62.05,1.02-.02.12-.13.19-.19.33-.31-.03-.15.04-.18.07-.24.12-.25.23-.55.26-.78.06-.31.17-.44.27-.68.04,0,.05-.02.09-.02.04-.26.25-.34.33-.56-.35-.06-.66-.14-.95-.15-.37-.24-.19-1.03-.45-1.39.14-.18.4-.11.64-.1.85.05,1.97-.24,2.73-.14.12.02.38.12.43.2.1.18-.03.5.02.73.15.13.13.54.02.66-.15.18-.42.43-.55.54.05.33.28.48.28.85.19.25.43.46.59.74.09,0,.07-.03.14,0,.1.21.35.17.5.29.08-.04.11.02.21,0,.02.09.17.05.14.2.13-.09.19.07.28.03.55-.79.87-1.81,1.17-2.85-.65.02-.99-.44-1.42-.72-.21-.51-.7-.73-.92-1.22-.15-.06-.31-.11-.33-.3.11-.35.49-.55.64-.92.02-.06,0-.14.02-.2.19-.43.57-.79.48-1.49-.44-.52-.88-1.04-1.37-1.5-.64-.08-1.4-.16-2.11-.05-.21.03-.42.13-.62.14-.24.01-.48-.05-.78-.03-.9.08-1.85.15-2.99.16-.08.07.12.15.02.22-.15.09-.11-.14-.26-.12-.29.55-.63,1.18-.79,1.78.02,0,.03.02.02.05.29,0,.49.15.69.22-.06.1.07.02,0,.15.08,0,.1-.05.14.02.03-.06-.06-.09,0-.1.05.08.19.08.24.17h0ZM88.31,86.12c.39.56.86,1.03,1.3,1.54.18.06.28.18.43.27.3-.19.66-.06.81.1.05.25-.09.47-.17.7-.28.86-.49,1.78-.84,2.56-.25.36-.71.39-1.14.26-.42-.12-.67-.58-1.02-.71-.06-.11-.1-.24-.26-.25-.09-.2-.23-.33-.38-.47-.21-.44-.3-.99-.59-1.34.21-.26.55-.4.74-.68.07-.3.05-.62-.09-.83-.1.03-.18,0-.26-.05-.9.13-1.77.12-2.56.16,0,.25.1.57.12.88.37.09.87.09,1.16.37.02.17-.09.2-.07.37-.22.22-.42.51-.55.88-.08.23-.19.46-.26.68-.03.1,0,.2-.05.29-.04.1-.19.15-.14.29-.11.05-.32.21-.38.39-.13.05-.22,0-.31.1-.4-.03-.64-.04-1.02-.03-.07.02-.03-.08-.09-.07-.49.1-1.03-.07-1.66-.13-.26-.36-.56-.7-.61-1.28-.23-.32-.38-.67-.3-1.19.12-.3.55-.07.71-.29.17-.24.06-.97.05-1.27,0-.1.03-.17.03-.24-.03-.29-.17-.55-.16-.79,0-.2.08-.36.07-.61,0-.21-.11-.47-.14-.66,0-.03.03-.1.03-.12-.06-.19-.23-.33-.31-.47-.36-.11-.8-.04-.97-.37.08-.28.24-.38.36-.66.07-.18.12-.38.21-.56.03-.06.08-.1.09-.14.03-.08,0-.19.02-.27.08-.24.33-.41.33-.69.31-.1.85,0,1.26-.02.2,0,.39-.06.57-.05.1,0,.21.05.31.05.3,0,.56-.11.85-.1.2.02.42,0,.62.05.19-.12.43-.03.64-.05.4-.02.78-.18,1.18-.19.66-.01,1.42,0,2.06.35.05.06.06.12.12.17.05.05.16.06.21.1.19.15.37.42.57.59.15.13.24.26.42.46.08.09.2.14.21.22.03.17-.16.4-.26.64-.1.22-.11.54-.19.73-.03.07-.1.09-.12.15-.03.08,0,.15-.02.19-.02.05-.1.08-.12.12-.04.11-.01.23-.05.29-.03.05-.13.09-.17.14-.1.15-.11.34-.22.44h0Z"/>
    <path class="cls-5" d="M121.13,81.86s.01.02,0,.02c-.01.12.32.1.37,0,.03.11.19.05.24,0,.11.07.21.17.29.03.06.01,0,.14.05.16.08,0,.03-.14.13-.13.12.07.3.04.45,0,.07,0,.06.07.1.11.27-.11.57.03.83-.1.1.04.09.2.21.21-.01.32.18.43.23.69,0,.03.05.02.08.03.09.5.36.83.54,1.24-.17.06-.61,0-.89.13-.15-.08-.26-.1-.39,0,.03,1.15.81,1.76,1.48,2.35.87.03,1.51-.25,1.96-.81.04-.21.18-.39.26-.58.07-.16.02-.31.08-.5.02-.06.1-.1.1-.16.02-.09-.03-.24-.02-.37.02-.32.09-.49-.1-.71-.28-.1-.68-.06-.94-.14.19-.23.29-.69.5-.97.04-.06.12-.07.16-.13.08-.13.05-.26.18-.31.18-.08.76.12.91.19.23-.07.43-.03.76-.05.45.62.83,1.3,1.32,1.88-.19.11-.35.12-.52.03-.36.14-.71.18-1.1.12-.2.59-.28,1.44-.53,2.06-.35.43-.66.9-1.13,1.21-.38.09-.68.11-1.02.23.07.64-.08,1.47.39,1.77.5.04,1.22,0,1.72.09-.09.45-.47.64-.52,1.13-.31.59-.4,1.39-.9,1.79-.46,0-.83.15-1.15-.09-.34.06-.76-.07-1.04,0-.41-.17-.78-.15-1.23-.29-.47-.52-.63-1.35-.85-2.12.24-.11.53-.19.89-.16.05-.79.25-1.98-.12-2.53-.44-.14-1-.59-1.22-.96-.06-.09-.18-.32-.21-.42,0-.05.04-.08.03-.11-.03-.06-.11-.1-.13-.16-.04-.1,0-.24-.1-.32.08-.15-.06-.32-.08-.47,0-.06.04-.09.03-.13-.12-.38-.53-.42-.89-.58.18-.7.49-1.27.61-2.03.06-.05.13-.08.18-.13h0Z"/>
    <path class="cls-1" d="M108.68,85.81c.04-.07-.03-.11.07-.12,0,.07.06.14,0,.19-.04,0,.03-.09-.07-.07h0Z"/>
    <path class="cls-5" d="M59.45,84.21c.02.07.02-.07.07-.05.15.09.18.29.31.4.15,1.01.12,2.17.35,3.1-.05.09-.05.23-.05.37-.15.25-.44.31-.51.58-.09,0-.09.1-.22.07-.09.44-.37.56-.76.69.21.55.44,1.08.79,1.49.86.22,1.72.34,2.68.12.5.11.81-.36,1.18-.53.27-.56.54-1.12.68-1.81-.62-.2-1.04-.58-1.42-1.01-.55-.92-.44-2.42-.59-3.66.12-.32.34-.48.8-.41.17.02.28.15.41.18.19.26.45.45.55.84.39,0,.79-.2,1.16-.3.16-.41-.02-.96-.19-1.32-.05-.05-.16-.04-.19-.09-.02-.67-.47-.93-.6-1.5-.14.01-.25,0-.34-.05-.05.03-.07.08-.15.07-.09,0-.13-.03-.19-.05-.02.05-.07.07-.12.07-.49-.07-1.13.07-1.69.04-.34.16-.87.09-1.26.14-.03,0-.07.07-.1.07-.16.03-.32.03-.41,0-.33.17-.86.12-1.31.25-.22-.12-.61-.06-.9-.05-.46.28-.56.92-.99,1.23-.05.24-.37.38-.44.65-.14.53.08,1.03.26,1.4.55.27,1.21.17,1.84.06-.14-.55-.1-1.26.58-1.26.09-.03.05-.18.17-.18.23.08.67.18.55.45h0ZM63.31,80.87c.14-.07.42-.13.56,0,.08-.04.2-.13.29-.09.16.09.17.32.31.42.02.11-.11.06-.1.16.08.43.31.73.55,1.02.21.26.31.6.58.82.02.17.05.23.02.42.02.08-.05.04-.07.03.02.3-.1.59-.07.91-.17.07-.27.05-.37.19-.11,0-.13.03-.22,0-.14.18-.5.16-.8.2-.17.02-.34.16-.48.02.05-.49-.31-.95-.75-.98-.32-.02-.18.62-.2.95-.03.6,0,1.51.16,2.12.03.13.02.22.07.33.14.28.39.41.5.6.22.14.48.23.73.33.25.11.43.44.33.75-.11.35-.44.76-.32,1.11-.16.25-.33.59-.58.67,0,.15,0,.27-.05.37-.24,0-.45.14-.58.05-.08,0-.08.07-.15.09-.13-.05-.33-.03-.41.04-.95-.04-2.03.22-2.93-.13-.06,0-.09,0-.1.05-.09-.1-.17-.11-.36-.12-.45-.58-.75-1.29-1.13-1.93.17-.08.29-.15.51-.21.09-.02.19,0,.27-.02.57-.17.65-.86,1.11-1.16.26-.34,0-.95-.04-1.35-.07-.71.02-1.51-.18-2.14-.38-.12-.78.09-.92.35.03.32-.09.62-.15.88-.15-.01-.23.09-.36.12,0,0-.15.03-.17.02-.07,0-.06-.07-.12-.07-.25,0-.51.09-.8.09-.04,0-.09.03-.12.03-.1-.02-.19-.1-.29-.14-.16-.05-.22-.05-.36-.14-.09-.2-.26-.27-.36-.51-.03-.07-.02-.15-.05-.23-.13-.33-.32-.73-.36-.93-.08-.44.18-.53.41-.84.13-.16.22-.31.34-.49.16-.23.33-.43.32-.88.16-.13.47-.14.63-.28.41.04.8-.09,1.18-.13.23-.02.45.02.68.03.7.01,1.29-.21,1.93-.27.06,0,.14.03.19.02.19-.03.42-.18.53,0,.12-.06.46-.2.46-.05.17-.03.28-.16.41-.16.26.26.54-.24.85.07h0Z"/>
    <path class="cls-1" d="M109.65,84.2s.04,0,.05.02c.04.07,0,.2-.03.27-.11-.06-.09-.21-.02-.29h0Z"/>
    <path class="cls-5" d="M112.75,84.33c-.12,0-.08.16-.16.19-.68,0-.71.74-.57,1.32-.62.12-1.27.23-1.8-.06-.17-.39-.39-.91-.25-1.47.07-.28.39-.43.43-.68.42-.33.52-.99.98-1.29.28,0,.66-.07.87.05.44-.14.96-.08,1.28-.26.09.03.25.04.4,0,.02,0,.07-.07.1-.07.37-.05.9.02,1.23-.14.55.04,1.18-.11,1.66-.04.06,0,.1-.03.12-.07.06.02.1.06.19.05.08,0,.1-.05.14-.07.08.04.19.06.33.05.12.6.56.87.58,1.57.03.06.14.05.19.1.16.38.34.96.18,1.39-.37.1-.76.31-1.14.31-.1-.41-.36-.61-.54-.88-.12-.03-.24-.17-.4-.19-.45-.07-.67.1-.78.43.15,1.3.05,2.88.58,3.84.37.45.79.85,1.39,1.05-.14.72-.41,1.31-.67,1.91-.37.17-.67.67-1.16.56-.95.22-1.79.1-2.63-.13-.35-.43-.57-.99-.78-1.57.38-.14.65-.27.74-.73.13.03.13-.07.21-.07.07-.28.36-.35.5-.61,0-.15,0-.29.05-.39-.23-.97-.19-2.19-.34-3.25-.13-.12-.16-.33-.31-.42-.05-.02-.05.12-.07.05.12-.28-.32-.38-.54-.47h0Z"/>
    <path class="cls-5" d="M113.3,84.8c.03.07.02-.07.07-.05.15.09.18.3.31.42.15,1.06.11,2.28.34,3.25-.05.1-.05.24-.05.39-.15.26-.43.33-.5.61-.09,0-.09.1-.21.07-.09.46-.35.59-.74.73.2.58.43,1.13.78,1.57.84.23,1.68.35,2.63.13.49.12.8-.38,1.16-.56.26-.6.53-1.19.67-1.91-.6-.21-1.02-.61-1.39-1.05-.53-.96-.43-2.54-.58-3.84.11-.33.34-.51.78-.43.16.02.28.17.4.19.18.27.44.47.54.88.38,0,.77-.21,1.14-.31.16-.43-.02-1.01-.18-1.39-.05-.05-.16-.04-.19-.1-.02-.7-.46-.97-.59-1.57-.14,0-.25,0-.33-.05-.04.03-.07.08-.14.07-.09,0-.13-.03-.19-.05-.02.05-.07.07-.12.07-.48-.07-1.11.08-1.66.04-.33.17-.86.1-1.23.14-.03,0-.08.07-.1.07-.15.04-.31.04-.4,0-.32.18-.84.12-1.28.26-.21-.12-.6-.05-.87-.05-.45.3-.55.96-.98,1.29-.04.26-.36.4-.43.68-.14.55.08,1.08.26,1.47.54.29,1.19.18,1.8.06-.14-.57-.1-1.32.57-1.32.08-.03.05-.19.16-.19.23.09.66.19.54.47h0ZM117.08,81.3c.14-.07.41-.14.54,0,.08-.04.2-.14.28-.1.16.09.17.33.31.44.02.12-.11.07-.1.17.09.45.3.77.54,1.07.21.27.3.62.57.86.02.18.05.24.02.44.01.08-.05.04-.07.02.03.32-.1.62-.07.95-.16.07-.27.06-.36.2-.1,0-.13.03-.21,0-.14.19-.49.17-.78.21-.17.03-.33.17-.48.02.05-.52-.3-1-.73-1.03-.31-.02-.17.65-.19,1-.03.63,0,1.59.16,2.22.03.13.02.23.07.34.14.29.39.43.5.64.21.15.47.24.71.34.25.11.42.47.33.78-.11.37-.43.8-.31,1.17-.15.26-.32.62-.57.71,0,.15,0,.28-.05.39-.24,0-.44.15-.57.05-.08,0-.08.08-.15.1-.12-.05-.33-.03-.4.05-.93-.04-1.98.23-2.86-.14-.05,0-.09,0-.1.05-.09-.1-.17-.11-.36-.12-.44-.6-.73-1.35-1.11-2.03.17-.08.29-.16.5-.22.09-.03.19,0,.26-.02.56-.18.64-.9,1.09-1.22.25-.36,0-.99-.04-1.41-.07-.75.02-1.59-.18-2.25-.37-.12-.76.1-.9.36.02.33-.09.65-.14.93-.14-.01-.22.1-.36.12,0,0-.15.03-.16.02-.07-.01-.06-.08-.12-.07-.24.01-.5.09-.78.09-.03,0-.09.03-.12.02-.1-.01-.18-.1-.28-.15-.15-.06-.22-.05-.36-.15-.09-.21-.26-.28-.35-.54-.03-.07-.02-.16-.05-.24-.13-.35-.32-.76-.35-.98-.08-.46.18-.56.41-.88.12-.17.21-.32.33-.51.15-.24.33-.46.31-.93.16-.14.46-.14.62-.29.4.04.78-.1,1.16-.14.23-.03.44.02.66.03.68.01,1.27-.22,1.9-.29.05,0,.13.03.19.03.19-.03.41-.19.52,0,.12-.06.45-.21.45-.05.17-.03.27-.17.4-.17.26.27.53-.26.83.07h0Z"/>
    <path class="cls-5" d="M83.68,84.14c.09.46.22.91.21,1.27,0,.34.11.47.35.54.34-.01.55-.18.9-.09.44-.19,1.31-.02,1.82-.31.05.1.13.06.21.03.06-.09.05-.25.14-.29-.08-.31.06-.51.07-.71.03-.49-.31-.79-.66-.93-.15-.06-.32-.16-.45-.2-.59-.16-1.17-.1-1.78-.08-.24,0-.43-.1-.54.07-.2-.01-.37-.05-.55.05.11.19.21.4.26.66h0ZM80.83,84.43c-.06,0,.03.04,0,.1-.04-.07-.06-.03-.14-.02.07-.13-.06-.04,0-.15-.19-.07-.4-.22-.69-.22,0-.03,0-.04-.02-.05.16-.6.5-1.23.79-1.78.15-.02.11.21.26.12.09-.07-.1-.15-.02-.22,1.13,0,2.09-.08,2.99-.16.3-.03.54.04.78.03.2,0,.41-.11.62-.14.7-.11,1.46-.03,2.11.05.49.46.93.97,1.37,1.5.09.69-.28,1.06-.48,1.49-.02.06,0,.14-.02.2-.15.37-.53.57-.64.93.02.19.18.24.33.29.22.5.71.71.92,1.22.43.28.77.74,1.42.72-.3,1.04-.62,2.06-1.17,2.85-.09.05-.15-.12-.28-.03.03-.14-.12-.1-.14-.2-.11.01-.13-.04-.21,0-.15-.12-.4-.08-.5-.29-.07-.03-.05,0-.14,0-.16-.28-.4-.48-.59-.74,0-.37-.23-.52-.28-.85.13-.11.39-.36.55-.54.11-.12.13-.52-.02-.66-.05-.23.08-.55-.02-.73-.05-.07-.31-.18-.43-.2-.75-.11-1.87.19-2.73.14-.24-.01-.5-.08-.64.1.25.36.08,1.15.45,1.39.29.02.59.1.95.15-.08.21-.29.3-.33.56-.04,0-.05.03-.09.02-.1.24-.21.37-.27.68-.04.23-.14.53-.26.78-.03.07-.1.1-.07.24-.14.12-.21.18-.33.31-.4.07-.68-.02-1.02.02-.31-.15-.73,0-.97-.05-.18-.06-.4-.15-.59-.12-.18-.62-.4-1.2-.73-1.66.02-.09.05-.16.05-.27.14-.08.31-.12.5-.14.35-.36.48-1,.46-1.66,0-.17-.08-.35-.09-.54-.02-.23.02-.47,0-.68-.03-.25-.13-.51-.14-.76,0-.06.04-.11.02-.17-.04-.27-.21-.46-.23-.69-.05-.09-.18-.09-.24-.17h0Z"/>
    <path class="cls-5" d="M120.95,82c-.12.76-.43,1.33-.61,2.03.36.17.76.2.89.58.01.04-.03.07-.03.13.02.16.16.33.08.47.11.07.06.21.1.32.02.06.1.09.13.16,0,.02-.04.06-.03.11.03.1.15.33.21.42.22.37.78.82,1.22.96.37.55.18,1.74.12,2.53-.36-.03-.65.05-.89.16.22.77.38,1.6.85,2.12.45.15.82.12,1.23.29.29-.07.7.07,1.04,0,.31.24.69.08,1.15.09.49-.4.59-1.2.9-1.79.06-.5.43-.68.52-1.13-.5-.09-1.22-.05-1.72-.09-.46-.3-.32-1.12-.39-1.77.34-.12.64-.14,1.02-.23.47-.31.78-.79,1.13-1.21.25-.62.33-1.47.53-2.06.39.05.74.02,1.1-.12.17.1.33.08.52-.03-.49-.57-.87-1.26-1.32-1.88-.33.02-.53-.02-.76.05-.15-.07-.73-.26-.91-.19-.13.06-.1.19-.18.31-.04.06-.11.07-.16.13-.21.28-.31.75-.5.97.26.08.66.03.94.14.2.22.13.39.1.71,0,.13.04.28.02.37,0,.06-.09.1-.1.16-.06.19,0,.34-.08.5-.09.19-.22.37-.26.58-.45.56-1.09.84-1.96.81-.66-.6-1.45-1.21-1.48-2.35.12-.1.24-.08.39,0,.27-.13.72-.07.88-.13-.18-.41-.45-.74-.54-1.24-.03,0-.08,0-.08-.03-.05-.26-.24-.37-.23-.69-.13-.02-.11-.18-.21-.21-.27.14-.57,0-.83.1-.04-.03-.03-.11-.1-.11-.15.04-.32.07-.45,0-.09-.01-.05.13-.13.13-.05-.02,0-.15-.05-.16-.07.14-.18.04-.29-.03-.05.05-.21.11-.24,0-.05.1-.38.12-.36,0,.01,0,.03-.02,0-.03-.05.05-.12.09-.18.13h0ZM123.14,81.5c.09-.02.03.09.11.08.11-.04.16-.14.23-.21.3.04.42.28.57.47.02.08-.05.08-.03.16.33.76.76,1.55,1.01,2.3-.04.03-.05.07-.08.1-.1,0-.2,0-.24-.08-.23.16-.65.17-.91.31.02.75.5,1.04.83,1.48.15-.02.18.09.26.13.36-.12.87-.08,1.07-.42.43-.16.83-.96.92-1.55.04-.23,0-.45-.07-.58-.12,0-.14.1-.29.08,0-.12-.08-.12-.02-.21-.14-.01,0,.12-.08.18-.18-.15-.26.02-.47,0-.19-.02-.42-.28-.37-.48.04-.14.28-.31.39-.5.08-.13.1-.29.16-.39.03-.05.13-.08.16-.13.06-.1.05-.25.11-.34.11-.17.28-.29.29-.45.05-.02.15.03.16-.02.15.09.47.16.81.21.24.03.6-.13.89-.07.07.01.09.11.16.05.13.21.29.38.44.61.09.14.19.33.31.48.02.03.07.02.1.05.16.15.23.46.44.71.22.27.48.37.47.71-.1.02-.13-.03-.18-.05-.03.06-.1.07-.13.13-.19-.26-.47.09-.65,0-.21.18-.33.06-.55.1-.65.13-.29,1.34-.69,1.66.06.21-.09.22-.13.4-.02,0-.05,0-.08,0-.21.29-.43.57-.63.87-.1.02-.12,0-.18.02-.09.03-.1.15-.16.21-.15.01-.23.04-.29-.08-.16.35-.4.3-.73.45.04.42-.03.89.2,1.16.09,0,.1-.08.19-.08.6.19,1.09-.02,1.62.11.14.12.26.53-.03.58.02.1-.03.15-.03.24-.62.69-.57,2.07-1.36,2.58-.08.02-.07-.04-.13-.03-.06.06-.12.12-.18.18-.11-.11-.44.03-.57-.11-.13.1-.34.13-.47,0-.12.12-.22.04-.34-.03-.07.04-.12.09-.16.16-.07-.08-.3-.01-.31-.16-.11.09-.3.03-.39-.05-.46.07-1.23-.15-1.57-.45-.01-.3-.12-.5-.26-.66-.17-.58-.37-1.14-.59-1.66.11-.38.79-.19,1.02-.5,0-.52.08-1.12.03-1.66-.24-.21-.52-.39-.81-.61-.53-.58-1.03-1.45-1.06-2.35-.26.12-.34-.24-.57-.14-.34-.2-.42-.79-.13-1.08-.02-.39.24-.65.29-1,.03-.2.11-.32.13-.5.03-.21-.01-.33.16-.42.31.14.58.07.94.14-.02.17.11-.02.18-.03.07,0,.18.06.23.05.3-.02.83,0,1.04-.07h0Z"/>
    <path class="cls-5" d="M93.71,81.98c-.07.08-.2.11-.36.1-.36.65-.65,1.37-1.05,1.97.35.3.98.31,1.18.76.11.63.41,1.25.25,2,0,.06.11-.01.07.08-.06.4.11.52-.02.85,0,.06.1.03.1.1.05.11-.06.17-.07.29,0,.09.07.24.07.37,0,.06-.06.12-.05.17.01.07.08.15.1.22.05.29.09.68-.03.54,0,.07,0,.13,0,.2-.2.23-.37.5-.66.63,0,.14.02.16,0,.29.03.04.12.01.12.07.1.37.33.61.52.91.96.06,1.76-.16,2.7-.26.29-.18.63-.03.88-.22.18-.37.33-.77.38-1.27-.3-.05-.44-.26-.71-.34-.15-.13-.22-.34-.33-.51,0-.07,0-.14.02-.17-.16-.17-.12-.42-.16-.61-.04-.17-.03-.32-.05-.54-.04-.57-.27-.91-.4-1.37-.07-.25-.25-.5-.28-.71-.02-.15-.03-.43,0-.54.05-.21.35-.28.43-.51.33-.09.64-.21.83-.46-.31-.43-.59-.94-.78-1.52-.07-.21-.07-.46-.23-.64-.85-.13-1.6.3-2.46.11h0ZM96.52,81.58c0,.35.18.58.19.83.07-.04.16.45.23.64.1.24.35.57.49.83.09.15.38.23.26.56-.28,0-.73.11-.91.36-.07.01-.09-.04-.14-.05.06.08-.05.17-.05.27-.01.17.08.43.12.68.02.12-.01.23,0,.32.02.13.1.23.12.42.03.37.08.78.12,1.14.03.28,0,.52.09.76.06.18.07.43.12.52.19.31.68.12.97.3.29.64-.13,1.43-.2,2.08-.02.05-.06.06-.1.14-.16,0-.32.02-.35.17-.26-.08-.62.12-.8.04-.32.07-.8.28-1.09.19-.78.19-1.38.23-2.13.09-.2-.23-.2-.52-.28-.81-.12-.41-.46-.73-.47-1.2.2-.2.88-.32.93-.73.01-.14-.11-.3-.12-.44,0-.08.02-.16.02-.24,0-.1-.06-.19-.07-.29-.07-.58-.03-1.28-.09-1.91-.03-.35-.16-.91-.21-1.27-.05-.09-.19-.1-.24-.19-.24.04-.3-.12-.5-.2-.38-.16-.69-.07-.78-.44,0-.1.09-.09.14-.12.35-.8.83-1.46,1.19-2.24.1-.04.2-.07.28-.14.26.07.44-.15.69-.02.08,0,.11-.07.19-.07.55.17,1.7-.4,2.37.03h0Z"/>
    <path class="cls-5" d="M74.22,85.01c.01-.07-.04-.03-.02,0-.04-.08.01-.14.02-.25.04-.4-.05-1.05-.28-1.27-.18-.07-.39-.11-.54-.2.14-.56.44-.95.65-1.44.43.03.8-.14,1.09.03.04-.04.12-.04.14-.1.4.26,1.51-.05,1.99.12.2.57-.09,1.04.16,1.55-.65,0-1.01.1-1.59.21-.1.12-.21.08-.31.19.09.16.3.22.5.15.18.33.08.78.14,1.15.01.07.07.13.07.19.02.18-.02.36,0,.54.03.3.14.59.19.88.09.53.24,1.04.38,1.51.13.22.43.34.71.35.05-.02,0-.15.1-.12.04.06,0,.1.03.12.14,0,.22-.03.38,0-.14.39-.48.66-.6,1.09-.07.25-.05.53-.17.8-.15.05-.43,0-.64-.02,0-.06,0-.12,0-.17-.06-.06-.07.14-.17.12-.48-.11-.95-.21-1.39-.18-.4.03-.78.26-1.26.22-.16-.15-.19-.43-.4-.54-.06-.49-.4-.88-.28-1.41.05-.05.17-.02.19-.1.36.12.73-.09,1.13-.09.04-.29-.15-.61-.11-.9,0-.07.04-.08.1-.07-.13-.19-.24-.4-.35-.62-.2,0-.44-.16-.69-.2-.15.02-.21.06-.36,0-.64.05-1.38.1-2.01.26-.2-.08-.41,0-.57-.1-.37.22-.12.95-.03,1.37.04.19,0,.33.12.41.32.24.65-.05,1.04.03-.06.96-.52,1.5-.74,2.29-.46.05-1.08.16-1.64.21-.28.03-.54.04-.69-.05-.1-.01-.13.04-.21.05-.18-.12-.32,0-.5-.05-.22-.05-.28-.25-.38-.44-.17-.32-.36-.51-.33-.9.28-.23.5-.41.9-.41-.05-1.48-.22-2.84-.29-4.35,0-.07-.07-.06-.07-.12.19-.68-.56-.6-.99-.71.19-.69.56-1.18.76-1.85.08-.02.09.03.17.02.06-.03.05-.13.07-.19.07-.05.23.02.24-.1.16.1.3.06.45.03.23-.05.4.09.54-.07.53.07.98-.1,1.49,0,.18.49.43.9.54,1.47.05.14.31.06.28.27-.31,0-.62.16-.9.17-.12,0-.25-.07-.31.07,0,.23.13.31.17.54.04.27,0,.58.02.86.04.5-.09.6.38.66.26.03.67.12.9.11.11,0,.25-.11.38-.12.05-.01.1.03.14.02.17-.03.27-.08.5-.1.24-.01.52-.16.66-.17.06,0,.13.05.19.05.32.02.67-.12.92,0,0-.09-.13-.33.02-.34-.02-.12-.17-.28-.02-.36h0Z"/>
    <path class="cls-5" d="M133.79,89.35c-.01-.06.11-.18,0-.18-.02.02-.05.17,0,.18h0ZM133.26,85.19c-.09.07-.07-.32-.04-.49.02.02.02.06.07.05-.08-.3-.1-.65-.02-.99,0-.08-.07-.06-.07-.13.03-.08.02-.19.07-.24-.02-.05-.05-.1-.07-.15.12-.43-.06-.92.07-1.23-.05-.12-.09-.31-.02-.42.05.02,0,.15.02.21.08-.06.13.1.17-.05.11.04.14.15.24.21.4-.07.71-.02,1.03-.02.12,0,.24-.08.36-.08.06,0,.1.08.21.05.12-.02.41-.04.53-.13.07-.02.04.07.12.05.79-.18,1.61-.16,2.48-.31.23.12.65.07.98.14.09,0,.07-.14.17-.13.09.24.47.17.57.4-.01.48-.7.22-.74.68-.22-.02-.47.1-.67-.03-.19.16-.55,0-.76.15-.17-.05-.4.03-.57.05-.04,0-.08-.05-.07-.05-.1.02-.19.1-.29.13-.17.04-.39.06-.57.08-.76.09-1.55,0-2.22.25,0,.53.04,1.36,0,2.01-.02.26-.01.42.09.57.05,0,.01-.09.02-.13.07-.02.06.04.12.03.1-.32.37-.15.72-.16.3,0,.64-.11.88-.13.33-.02.67-.08.95-.1.35.14.83-.01,1.22.19,0,.34.17.68,0,.92-.43-.13-1.05-.02-1.62.02-.29.02-.56.14-.79.16-.18,0-.36-.08-.5-.06-.31.05-.78.09-1.01.23-.02,1.55,0,3.01,0,4.68-.24.26-.65.06-.88.36-.06-.02-.05-.12-.14-.11.07-.31,0-.61-.02-.92-.06-1.02-.09-1.98-.06-2.93.02-.72.02-1.4-.02-2.15.13-.16-.01-.33.07-.5h0Z"/>
    <path class="cls-5" d="M159.94,89.81c.13-.04.28-.03.4-.1.19-.09.52-.47.67-.68.24-.34.35-.67.47-1.15.13-.48.29-1.08.25-1.68-.04-.54-.21-1.18-.4-1.57-.18-.34-.76-.85-1.04-.96-.42-.16-.98-.23-1.35-.25-.05,0-.05-.07-.1-.08-.48.08-.82.05-1.23.14-.11.43,0,.89.02,1.27.01.25-.06.5-.05.75.01.36.12.71.14,1.07.05,1.18.1,2.31.06,3.49.8.08,1.46-.07,2.16-.29h0ZM162.73,85.87c.35.39-.16,1.25.26,1.54-.05.38-.37.47-.38.88-.31,1-.82,1.8-1.55,2.36-.12.18-.25.34-.47.41-.13.25-.49.26-.62.51-.09-.02-.12.09-.19.02-.07.15-.33.35-.47.27-.08.12-.31.2-.47.14-.09.15-.17.13-.26.2-.54-.07-1.15.32-1.54-.11.1-.27-.14-.44-.19-.59-.12-.36-.04-.93-.07-1.37-.05-.84-.14-1.75-.18-2.62-.03-.5-.13-.94-.14-1.42,0-.32-.07-.64-.09-.95-.02-.29.07-.57.05-.83-.01-.11-.07-.22-.07-.32-.03-.43-.02-.89,0-1.27,0-.14.07-.27.12-.42.32-.12.64-.34,1.02-.34.03,0,.12.05.16.05.09,0,.14-.08.21-.1.26-.05.5.01.74-.07.18-.06.21-.13.45-.12.36,0,.6-.05.95.05.16.04.38.13.54.22.08.04.14.14.21.19.09.05.2.05.26.1.05.04.09.16.16.22.16.14.18.13.31.32.05.07.14.12.19.19.09.13.15.33.23.49.33.61.79,1.31.89,2.16.04.12-.08.08-.07.17h0Z"/>
    <path class="cls-5" d="M146.76,85.88c.07.04.06-.15.02-.15-.02.03-.02.08-.02.15h0ZM143.9,83.64c-.18-.02-.34-.18-.45-.2-.31-.05-.5.16-.78.19-.02.15-.09.1-.19.17-.9,1.03-1.26,3.16-.71,4.81,0,.07.12.03.14.1.14.32.39.51.45.91.43.3.77.8,1.42.66.81-.2,1.17-.81,1.5-1.48.08-.16.2-.3.26-.46.24-.58.26-1.4.22-2.13-.03-.61-.31-1.12-.49-1.66-.3-.26-.54-.58-.83-.86-.16-.13-.36-.03-.54-.05h0ZM146.61,87.76c.09.21-.01.38-.05.59-.03.14.03.3-.02.44-.04.1-.19.14-.21.24,0,.03.05.13.05.2,0,.25-.08.46-.26.54-.16.71-.54,1.18-.88,1.7-.07,0-.07-.08-.12-.1-.13.09-.28.27-.5.19-.08,0-.06.09-.1.12-.21-.11-.39.12-.57.12-.09,0-.14-.08-.21-.1-.06,0-.14.07-.21.07-.08,0-.45-.04-.54-.15-.1-.03-.08.08-.17.07-.18-.08-.39-.14-.59-.2-.32-.26-.79-.38-1.11-.64-.09-.19-.28-.27-.43-.42-.23-.58-.54-1.32-.61-2.13,0-.07.03-.15.02-.22-.02-.16-.11-.3-.12-.46,0-.1.02-.23.03-.34,0-1.08.32-1.96.63-2.86.17-.12.14-.43.31-.56.05,0,.09,0,.14,0,.21-.27.4-.55.59-.83.14-.06.31-.11.38-.24.07-.02.07.04.14.02.35-.19.68-.41,1.09-.51.69-.17,1.37.19,1.94.35,0,.04.07.02.05.1.34.07.63.33.95.54.08.23.26.35.36.56-.04.31.17.55.21.85.03.04.1.06.12.12-.14.63,0,1.47-.06,2.1,0,.07-.06.12-.07.2-.04.21.05.5-.17.61h0Z"/>
    <path class="cls-5" d="M154.77,86.07c.07.04.06-.14.02-.14-.03.03-.03.08-.02.14h0ZM153.35,83.91c0,.07.03.12.05.17l-.05-.17h0ZM151.9,83.84c-.17-.02-.33-.18-.45-.2-.31-.04-.5.16-.78.19-.03.15-.09.1-.19.17-.9,1.04-1.25,3.16-.7,4.81,0,.07.13.03.14.1.13.32.38.51.45.9.43.3.77.8,1.42.66.81-.2,1.18-.81,1.5-1.49.08-.16.2-.3.26-.46.24-.58.26-1.4.22-2.12-.04-.61-.32-1.12-.49-1.66-.3-.26-.54-.58-.83-.86-.16-.13-.36-.03-.54-.05h0ZM154.61,87.95c.09.21-.01.38-.05.59-.02.14.03.3-.02.44-.04.1-.19.14-.21.24,0,.03.05.13.05.19,0,.25-.07.47-.26.54-.15.71-.55,1.18-.88,1.71-.07,0-.07-.08-.12-.1-.13.09-.28.27-.5.19-.08,0-.06.09-.1.12-.21-.11-.39.11-.57.12-.09,0-.14-.09-.22-.1-.06,0-.14.07-.21.07-.09,0-.45-.04-.55-.15-.1-.02-.08.08-.16.07-.18-.08-.39-.14-.59-.2-.32-.26-.79-.38-1.11-.64-.09-.19-.28-.28-.43-.42-.23-.58-.54-1.32-.61-2.13,0-.07.03-.15.02-.22-.02-.16-.11-.3-.12-.46,0-.1.03-.22.02-.34.01-1.08.33-1.96.63-2.85.17-.12.14-.44.31-.56h.14c.21-.26.4-.54.59-.83.15-.06.31-.11.38-.24.07-.02.07.04.14.02.35-.19.68-.41,1.09-.51.69-.16,1.37.19,1.94.35,0,.04.07.02.05.1.34.07.63.32.95.54.07.23.26.35.36.56-.04.31.17.55.21.85.03.05.1.06.12.12-.14.63,0,1.48-.05,2.1-.01.07-.06.12-.07.19-.04.21.05.51-.17.61h0Z"/>
    <path class="cls-5" d="M171.65,89.56c.06-.48-.19-.94-.26-1.35-.2,0-.13-.2-.17-.34-.05-.21-.32-.36-.3-.61-.14.06-.14-.23-.21-.32-.01.03-.02.06-.05.07-.08-.25-.28-.19-.4-.32.1-.04.01-.18-.07-.22-.02.03.03.12-.03.12-.08-.14-.21-.23-.31-.34,0,.11-.07-.01-.1.05-.01-.09-.16-.21-.23-.1-.27-.59-1.06-.59-1.58-.84-.03,0-.02.05-.05.05-.09-.18-.18-.11-.4-.2-.17-.27-.4-.46-.66-.64-.24-.73.18-1.26.5-1.63.04.03.11,0,.22,0-.02-.07.02-.09.02-.15.4-.28,1.11-.24,1.64-.21.17.14.39.23.61.32.31.25.48.69.59,1.08.37.08.51.33.92.32.05-.09.1-.02.19-.07-.01-.15-.1-.21-.14-.32,0-.1-.04-.14-.02-.24-.34-.72-.67-1.59-1.46-1.79-.19-.05-.34,0-.54-.1-.28.1-.96-.12-1.21.12-.36-.06-.78.15-1.07.29-.39.19-.8.33-.92.8-.05.03-.09.07-.14.1-.05.24-.22.34-.33.51-.05.22-.05.48-.19.59-.14.57-.03,1.28.45,1.44.14.3.49.39.69.56.27.06.53.12.71.27.34.07.63.37.97.38.29.14.6.27.86.39,0,.07.02.13.04.19.39.06.6.29.95.39.28.31.55.67.54,1.2-.01.43-.3.72-.38,1.07-.31.26-.51.65-.86.87-.46.16-1.27.13-1.94.12-.19-.13-.36-.27-.47-.47.06-.41-.05-.64-.33-.76-.05.07-.16.08-.26.1-.4-.59-.6.27-.85.48-.29.49-.03,1.14.35,1.37.03.2.16.29.36.32.06.19.26.23.4.34.28-.02.5-.11.71,0,.31.04.6-.13.97-.02.18-.12.51-.09.64-.27.71-.03,1.09-.61,1.64-.87.22-.2.37-.48.69-.59.18-.29.53-.81.31-1.17h0Z"/>
    <path class="cls-5" d="M108.83,85.46l-1.33.73s-.35-1.08-.99-1.29c-.64-.21-2.55-.21-2.55-.21l-.39,1.36s.48.45.84.27c.36-.18.82-.73.82-.73,0,0,.46.26.58.68.12.42.12,1-.03,1.26-.16.26-.41.87-.41.87,0,0-1.22-.3-1.4-.24s-.43.73-.18,1.02c.25.29.43.58.76.64.33.05,1.02.24,1.02.24l-.77,2.21s-3.01.07-3.16.09c-.15.03-.92-.37-1.07-1.27-.15-.89.49-.99.49-.99,0,0,.1-.24.26-.45.15-.21.11-3.62.06-4.02-.05-.4-.25-.82-.25-.82l-.99-.19.93-2.52,6.04-.05s.82.4,1.72,3.42h0Z"/>
    <path class="cls-5" d="M108.76,85.88c.06-.06,0-.12,0-.19-.11,0-.04.05-.07.12.1-.02.03.06.07.07h0ZM108.24,85.9c-.1.04-.04.13-.07.19-.07-.1-.27-.12-.33-.05-.06-.04.01-.14.07-.12,0-.05-.02-.08-.07-.07.14-.09.38-.32.5-.27.05-.14.18-.19.33-.22-.29-1.1-.87-2-1.22-2.96-.11,0-.23-.14-.36-.2-.21.02-.34-.02-.45.1-.09-.08-.3,0-.4.05-.19-.09-.6-.04-.81.02-.15-.1-.4.01-.59.02-.35-.19-.78-.04-1.16-.06-.16,0-.5-.2-.73-.05-.35-.11-.82-.05-1.18-.08-.11.25-.48-.04-.64.1-.22.74-.41,1.37-.58,2.15.21.05.54-.03.69.15.06.19.06.44.26.49.08.62.19,1.31.21,2.03-.16.46.06,1.04-.1,1.46.02.05.04.12.07.17-.12.55.07,1.16-.2,1.61-.31-.05-.68-.03-.85.19.02.54.32.87.47,1.34.17.2.41.19.64.27.48-.05,1.06-.03,1.59-.04.38,0,.87-.13,1.16,0,.27-.08.24-.49.45-.63,0-.42.38-.64.38-1.12,0-.09.07-.11.07-.19-.01-.04-.04-.06-.05-.1-.19.01-.41.1-.47-.05-.04.15-.16-.04-.23.08-.22-.16-.37-.09-.64-.2-.39-.41-.32-1.2-.37-1.81.03-.02.05-.06.07-.1.63-.06,1.09.06,1.56.3.07-.11.09-.28.21-.34.02-.27.07-.5.21-.64-.06-.34.26-.64.12-.97-.07-.17-.23-.5-.36-.69-.37.17-.52.74-1.02.85-.14-.09-.25,0-.38-.03-.45-.08-.7-.59-.47-1.05-.11-.17-.07-.5-.02-.71.2-.11.26-.29.43-.37.31-.14.82.06,1.28-.04.12.12.27.09.33.24.08-.02,0-.06.02-.14.11-.07.18.03.31.02-.02.08.04.09.02.17.04-.03.06-.03.1,0,.08-.24.21-.15.4-.1.01.08-.04.07,0,.12.12.01.39,0,.4.24.05.05.04-.01.12,0,.03.03.03.09.03.15.05.02.11.05.19.05,0,.31.23.57.35.83.08-.05.14-.12.28-.1-.06.09,0,.25,0,.36-.04,0-.04-.02-.05-.05-.03.04-.06.09-.07.14-.14.01-.17.02-.28-.02-.29-.47-.39-1.13-.9-1.37-.27.04-.5-.12-.73-.05-.56-.22-1.17.11-1.68,0-.04.21-.11.4-.09.66-.14.15-.11.32-.05.54.82.13.78-.83,1.52-.85.02.09.1.12.19.14.27.57.55,1.13.66,1.86-.1.27-.2.54-.38.73-.04,0-.01-.08-.07-.07-.07.11,0,.38-.19.36-.11.13-.21.26-.19.52-.1-.03-.11.05-.16.07-.16-.12-.31-.15-.43-.34-.17-.05-.34.04-.4-.12-.14.1-.22.02-.45.07-.12.47.09.97.31,1.25.5.13,1.01,0,1.47.25-.08.75-.41,1.32-.65,2-.05.05-.06,0-.12,0,0,.23-.13.23-.14.47-.11.04-.24-.08-.24.04-.04-.02-.04-.09-.09-.1-.14.06-.16.2-.33.1-.03,0-.02.05-.02.08-.15-.05-.39-.13-.5,0-.03-.01-.05-.03-.05-.07-.22.12-.42.01-.66.14-.12-.08-.33.04-.45-.07-.56.2-1.35.25-1.63-.38-.11-.24-.28-.34-.4-.61-.17-.4-.44-1.02-.4-1.2.05-.16.63-.42.81-.51.1-.05.19-.06.28-.09.11-.66-.02-1.31,0-1.93.04-.89.14-1.9-.2-2.83-.3-.11-.48-.07-.78.07-.21-.09-.41-.2-.52-.39.01-.13.14-.15.24-.19.01-.06-.05-.06-.02-.12.21-.31.46-.7.48-1.15.17-.24.27-.65.33-.93,0-.12-.12-.11-.09-.24.07-.17.32-.16.4-.32.5.27,1.17-.08,1.82.18.16-.07.53-.08.64.05.43,0,1-.02,1.4.03.21.03.44-.17.57.03.28-.13.7-.16,1.06-.09.19-.07.48-.16.69-.09.14.04.17.2.28.17.06.26.26.37.28.66.11.07.19.17.21.34.05,0,.09.07.14.12.11.52.53.85.61,1.32.03.03.04.07.09.08.01.2.11.41.07.61.01.04.03,0,.02-.02.03.21.16.52-.03.68.09.03-.01.16.07.15-.21.15-.54-.11-.62.17-.1.01-.05-.13-.14-.12h0Z"/>
  </g>
  <path class="cls-3" d="M74.96,92.12c.12-.2.15.11.28.07-.06.1-.21.14-.29.04.04-.05.08-.09,0-.11h0Z"/>
  <path class="cls-3" d="M65.22,94.38c.07.02.04.14.04.22-.05,0-.11,0-.16,0-.06-.18.09-.13.12-.21h0Z"/>
  <path class="cls-3" d="M78.38,84.96c.24.05.32.23.35.45-.3-.13-.15-.28-.35-.45h0Z"/>
  <polygon class="cls-4" points="29.5 74.4 5.94 108.89 7.11 110.38 52.06 108.81 35.92 79.15 31.11 73.54 29.5 74.4 29.5 74.4"/>
  <path class="cls-3" d="M27.61,78.87c-.85.37-.24-.86-1.09-.49-.41.14-.18.86-1.04.59-.33,1.4-.66,2.8-1.98,3.3-.31,1.48.75,1.42,1.18,2.09-1.86,1.36-1.87,5.71-5.14,4.26.3.8,1.28.84,1.43,1.8-.7.36-1.23.5-1.57.61,1.14.93-.3.7-.74,1.38-1.14,1.77-1.76,4.55-3.76,5-.07,1.29-.54,2.23-1.75,2.49.67,1.38-.39.19-.76.84,1.72.32-1.1,1.17.1,1.87-1.9.39-1.44,2.94-2.75,3.88-.17-.46.25-1.59-.34-1.59,0,.41.08.92-.5.82-.28.88.87.16.59,1.04-1.11.27-.91,1.73-1.48,2.49,2.78-.62,7.3-.67,10.41-.52.05-.21-.02-.53.24-.55,10.35.95,18.61-.67,31.25-1.01-.58-2.81-3.05-4.16-4.03-5.69-.32-2.37-2.56-2.61-2.66-5.22-1.2.18-1.03-.95-.89-1.56-1.06.03-2.03-1.7-1.17-2.09-.83.45-.9-.16-1.63-.45-1.93-5.83-6.53-9.94-8.74-14.55.01.27-.45.36-.53.02.32-.04.63-.11.51-.56-.75.26-.71-.34-1.35-.2-1.29,1.8-1.87,4.25-4.02,5.28.56.91-.2,1.3-.7,1.91-.32-1.06-.07-2.08.39-2.96.44-.02.18.73.57.77.06-1.15.97-3.33,1.76-2.23-.03-.37.09-.6.22-.81h0ZM43.21,91.21c1.58.23,1.16,2.65,2.82,2.8.04,1.73.93,2.54,2.03,3.11-.13,1.82.91,2.38,2.01,2.84.13.45-.18.51-.5.56.38.37,1.26.61.6,1.31.21-.16.43-.3.79-.31.12.54-.01.84-.49.83.53.68,2.07,2.13,1.2,2.62.27.45.86.55,1.62.45.15,2.19,1.35,3.21,1.35,5.55-.26-.15-1.01-.57-.78.3-.48-.5-1.86,0-1.92-.97-.59,1.05-1.83-.7-3.17.69-.81.14-.6-.84-.87-1.3-.76.27.38.65.07,1.34-.21-.18-.9-1.08-.8.04-3.73-.26-9.26-.28-12.56.08-.02-.27-.03-.53-.04-.8-1.21.71-2.61.85-3.74.19-.72,1.04-5.69,1.07-7.2.36-2.94,1.69-9.46.1-10.87,1.87-2.3-1.29-6.26.17-9.14-.88-.27-.84.18-1.03.46-1.37-1.07-.04-.44-.2-.62-1.84,1.25-.4,1.76-1.46,1.73-3.03,1.24.19.54-1.38,1.81-1.16-.23-.81-.21-.5-.07-1.34,1.81.2.72-2.24,2.29-2.25-.18-.26-.63-.24-.57-.77,1.08.3.5-.9,1.57-.61-.02-.45-.05-.89-.07-1.34.23-.21.59-.32,1.05-.32,1.56-4.03,4.49-6.81,6.16-10.74.92-.02,1.21-.6.99-1.66.78.04.79-.64,1.58-.61.65-3.57,4.05-4.66,4.67-8.25,2.93-.66,2.23-4.61,5.08-5.33-.18-.27-.63-.25-.58-.77.88-.06,1.31-.52,2.39-.39,1.2.85-.31,1.38,1.4,1.27-1.1,1.2.34,4.73,1.55,4.2.39.07.07,2.02,1.42,1.8-.14.82.33.96.35,1.59,3.43,2.86,4.09,8.8,7.53,11.66.12.45-.19.52-.51.57h0Z"/>
  <text class="cls-6" transform="translate(18.33 105.69) scale(.79 1)"><tspan x="0" y="0">27</tspan></text>
</svg>