<?xml version="1.0" encoding="UTF-8"?>
<svg id="Layer_1" data-name="Layer 1" xmlns="http://www.w3.org/2000/svg" viewBox="0 0 180 200">
  <defs>
    <style>
      .cls-1 {
        fill: #fff;
      }

      .cls-1, .cls-2, .cls-3, .cls-4 {
        fill-rule: evenodd;
      }

      .cls-2, .cls-5 {
        fill: #231f20;
      }

      .cls-3 {
        fill: #ffda40;
      }

      .cls-5 {
        font-family: AmericanTypewriter-Bold, 'American Typewriter';
        font-size: 20.52px;
        font-weight: 700;
      }

      .cls-4 {
        fill: #ae2134;
      }
    </style>
  </defs>
  <polygon class="cls-3" points="28.31 85.81 4.75 120.3 5.92 121.78 50.87 120.22 34.72 90.56 29.92 84.95 28.31 85.81 28.31 85.81"/>
  <path class="cls-2" d="M26.42,90.28c-.85.37-.24-.86-1.09-.49-.41.14-.19.86-1.04.59-.33,1.4-.66,2.8-1.98,3.31-.31,1.48.75,1.41,1.18,2.08-1.86,1.36-1.87,5.72-5.14,4.27.3.79,1.28.83,1.43,1.8-.71.36-1.23.5-1.57.61,1.14.93-.3.7-.74,1.38-1.14,1.77-1.76,4.55-3.76,5-.07,1.29-.54,2.23-1.75,2.49.67,1.39-.39.2-.76.85,1.72.32-1.1,1.17.1,1.87-1.9.4-1.44,2.94-2.75,3.88-.17-.46.25-1.59-.34-1.59,0,.42.08.93-.49.83-.28.88.87.16.59,1.04-1.11.27-.9,1.73-1.48,2.48,2.78-.61,7.3-.66,10.41-.52.05-.21-.02-.53.24-.55,10.36.94,18.61-.66,31.25-1.01-.58-2.81-3.06-4.15-4.03-5.69-.32-2.37-2.56-2.61-2.66-5.21-1.2.18-1.03-.95-.88-1.56-1.06.02-2.03-1.7-1.17-2.09-.84.45-.9-.16-1.63-.46-1.93-5.83-6.53-9.94-8.74-14.54.01.27-.45.36-.53.02.33-.04.63-.11.51-.56-.75.26-.71-.34-1.35-.2-1.29,1.8-1.87,4.25-4.02,5.28.56.91-.2,1.3-.7,1.91-.33-1.06-.07-2.08.39-2.96.44-.02.18.73.57.77.06-1.15.97-3.33,1.76-2.23-.03-.37.09-.59.22-.81h0ZM42.01,102.62c1.58.23,1.16,2.65,2.81,2.8.04,1.73.93,2.54,2.03,3.11-.13,1.82.91,2.37,2.01,2.84.13.45-.18.51-.5.56.38.37,1.26.61.6,1.31.21-.15.42-.3.79-.3.12.53-.01.84-.49.82.53.68,2.07,2.14,1.2,2.62.27.45.87.55,1.62.45.15,2.19,1.35,3.21,1.35,5.55-.26-.16-1.01-.58-.78.3-.48-.5-1.86,0-1.92-.98-.59,1.06-1.83-.7-3.17.7-.81.13-.6-.84-.87-1.3-.76.27.38.65.06,1.33-.21-.17-.9-1.08-.8.04-3.73-.26-9.26-.28-12.56.08-.02-.26-.03-.53-.04-.8-1.21.71-2.61.85-3.74.18-.72,1.04-5.69,1.07-7.21.36-2.94,1.69-9.46.1-10.87,1.87-2.3-1.29-6.26.17-9.14-.89-.27-.84.18-1.02.46-1.36-1.08-.04-.45-.21-.62-1.84,1.25-.41,1.76-1.46,1.73-3.03,1.24.2.54-1.37,1.81-1.16-.23-.8-.21-.5-.07-1.33,1.81.2.72-2.24,2.29-2.25-.18-.27-.63-.24-.57-.77,1.08.29.5-.91,1.57-.61-.02-.45-.04-.89-.07-1.34.23-.22.59-.32,1.05-.32,1.56-4.03,4.49-6.81,6.16-10.74.92-.02,1.21-.6.99-1.65.78.03.79-.64,1.58-.62.65-3.57,4.05-4.66,4.67-8.26,2.93-.66,2.23-4.61,5.08-5.33-.18-.26-.62-.25-.58-.77.88-.05,1.31-.52,2.39-.39,1.2.85-.31,1.38,1.4,1.27-1.1,1.21.34,4.74,1.55,4.2.39.07.07,2.02,1.42,1.81-.14.83.33.96.35,1.59,3.43,2.86,4.09,8.8,7.53,11.66.12.45-.19.52-.51.57h0Z"/>
  <g>
    <path class="cls-1" d="M136.53,80.7c.1.11.18.25.21.47-.13.1-.19.06-.3.01-.03-.24.05-.33.09-.48h0Z"/>
    <path class="cls-1" d="M136.15,81.13c.07.25.36.18.36.53-.25.02-.37-.17-.36-.53h0Z"/>
    <path class="cls-2" d="M137.5,81.55c.15-.04.16.14.16.34-.1-.04-.13-.18-.16-.34h0Z"/>
    <path class="cls-1" d="M120.79,84.68c.18-.04.16.2.16.4-.08-.12-.19.11-.3-.06.05-.11.16-.15.14-.35h0Z"/>
    <path class="cls-1" d="M171.3,85.49c.24.41.07.84.03,1.29-.17-.3-.07-.9-.03-1.29h0Z"/>
    <path class="cls-1" d="M170.26,85.68c.25.2.14.71-.13.62-.04-.31.11-.39.13-.62h0Z"/>
    <path class="cls-1" d="M86.35,89.69c-.11.3-.42.05-.49.29-.14-.21.34-.46.49-.29h0Z"/>
    <path class="cls-1" d="M138.02,89.03c.02.15,0,.26-.04.34-.05-.04-.09-.08-.1,0-.1-.06,0-.38.14-.35h0Z"/>
    <path class="cls-1" d="M125.71,93.53c.18-.04.22.1.3.19-.07.3-.33.06-.3-.19h0Z"/>
    <path class="cls-1" d="M146.15,92.82s.1,0,.15,0c.02.14-.03.18-.04.28-.09-.01-.12-.11-.11-.27h0Z"/>
    <path class="cls-1" d="M79.33,99.14c0,.09,0,.18,0,.27-.19.07-.2-.32,0-.27h0Z"/>
    <path class="cls-1" d="M166.58,95.66c.08,0,.19-.04.2.06.06.23-.3.2-.2-.06h0Z"/>
    <path class="cls-1" d="M172.11,96.78c-.11.03-.19,0-.25-.06,0-.21.26-.15.25.06h0Z"/>
    <path class="cls-1" d="M69.21,101.64c.08.24.37.17.36.53-.31.15-.41-.05-.6-.25,0-.21.25-.08.24-.28h0Z"/>
    <path class="cls-1" d="M103.88,100.23c.13,0,.1.22.11.41-.12,0-.1-.22-.11-.41h0Z"/>
    <path class="cls-1" d="M70.31,102.07c.19.06.4.11.45.39-.34.3-.75-.11-.93.24-.07-.04-.09-.14-.11-.27.26.09.34-.31.54-.09.11-.02-.07-.18.05-.27h0Z"/>
    <path class="cls-1" d="M135.7,100.17c.23.1.02.41-.14.42-.05-.26.11-.25.14-.42h0Z"/>
    <path class="cls-1" d="M143.34,99.83c.1,0,.2-.01.3-.01.03.23-.14.21-.19.35-.11,0-.11-.17-.1-.34h0Z"/>
    <path class="cls-1" d="M97.57,102.35c.2.13.37.01.51.32-.16.15-.52,0-.51-.32h0Z"/>
    <path class="cls-1" d="M78.63,103.33c0,.24-.14.31-.14.55-.09.01-.11-.08-.2-.06.1-.17.09-.5.34-.49h0Z"/>
    <path class="cls-2" d="M158.48,101.61c.2.18,0,.32.06.75-.09,0-.1.09-.2.08.06-.4.13-.43.13-.83h0Z"/>
    <path class="cls-2" d="M159.03,102c.09.06.17.12.16.33-.19.1-.15-.15-.16-.33h0Z"/>
    <path class="cls-1" d="M132.73,108.62c.13.1.36-.14.4.19-.17.01-.21-.11-.3.08-.09-.01-.11-.11-.1-.27h0Z"/>
    <path class="cls-1" d="M135.56,108.77s.05.03.05.07c.09,0,.11-.09.2-.08,0,.12.06.14.06.27-.1-.12-.09.04-.25.01,0-.12-.06-.14-.06-.27h0Z"/>
    <path class="cls-1" d="M139.58,108.73c.11.12.26.18.4.25-.09.22-.24-.07-.4.02,0-.09,0-.18,0-.27h0Z"/>
    <path class="cls-1" d="M141.37,108.92c.18,0,.14.07.3-.01-.06.23.16.05.1.27-.17-.03-.22-.19-.4-.05,0-.07,0-.14,0-.21h0Z"/>
    <path class="cls-1" d="M143.96,109.07c.13-.02.25-.03.2.2-.1-.02-.21-.01-.2-.2h0Z"/>
    <path class="cls-2" d="M168.87,108.4c-.71.38-1.01,1.27-1.62,1.78-.05.84-.5.91-.77,1.53-.42-.06-.7-.44-.62-1.08.06-.45.66-1,.97-1.54.21-.35.4-.92.58-1.05.42-.31.98-.22,1.25-.18.02.24.19.28.21.54h0Z"/>
    <path class="cls-2" d="M156.62,117.92c-.47.66-1.1,1.33-.82,2.76.63.82,1.5-.26,2.08-.65-.17-.61-.28-1.38-.3-2.2-.33-.32-.58.13-.96.09h0ZM159.44,121.65c-.49.06-.99-.35-1.28-.77-.58.26-1.27,1.03-2.03.94-.56-.06-.88-.51-1.24-1-.12-1.9.42-2.9,1.37-3.59.5-.36,1.21-.48,1.74-.06.03-.68.35-1.13.23-1.81-.24-1.31-1.87-.76-2.44-.09-.01.24.15.23.1.52-.26,0-.75-.2-.84-.44.37-1.8,3.09-2.18,3.75-.42.21,1.8-.02,3.45.14,5.05.22.46.54,1.05.51,1.67h0Z"/>
    <path class="cls-1" d="M160.63,121.27c-.05.2-.22.25-.29.42-.07-.01-.02-.21-.1-.2.02-.21.29-.11.4-.22h0Z"/>
    <path class="cls-2" d="M138,82.44c.14.02.58,1.07.18,1.22.42.18.23.72.33,1.28.12.7.16,1.65.06,2.59-.12,1.06-.6,1.9-.83,2.63-.43.46-.7,1.13-1.11,1.62-.08.02-.09-.05-.1-.13-.53,1.13-1.6,1.72-2.64,1.55-.2.41-.5.18-.74.24-.42.1-.82.75-1.24.33-.17-.02-.14.21-.24.28-.15-.13-.5.03-.65-.11-.44.15-.51.7-.67,1.05-.04.93-.09,1.65-.18,2.67-.14,1.48-.57,2.91-.7,4.19-.08.81-.18,1.42-.55,2-.19-.18-.24.21-.35-.05-.13.02.07.12,0,.27-.05-.02-.09-.06-.1-.13-.22.43-.48.79-.56,1.39-.14.06-.11-.13-.21-.13,0,.12.06.14.06.27-.2.08-.03-.38-.21-.33-.1.16-.11.06-.19.28-.29.15-.16-.4-.4-.25.02-.24.12-.38.19-.55-.13-.04-.16-.05-.35-.12-.15-1.25,0-2.99.3-3.9.1-2.14.58-3.79.65-5.96-.35-.16-.67-.23-1.05-.36-.33-.11-.91-.19-1.1-.36-.08-.07-.06-.28-.16-.34-.07-.04-.13.14-.2.08-.3-.29-.54-1.02-.49-1.61.17-1.77,2.42-.03,3.32-.28.31-2.71.3-5.05.51-7.87.29-.42.62-.78.76-1.4.71-.66,1.2-1.64,2.24-1.53.26.07.17.65.47.66,0,.16.09.2.06.41.56,1.2.14,3.8-.42,5.2-.01.56-.03,1.11-.26,1.38.12,1.24-.31,2.33-.36,3.56.29-.14.74-.09,1.03-.59.1-.03.13.04.2.06.93-.47,2.17-1.06,2.93-1.97.38-.59.66-1.31,1-1.95-.03-.9.23-2-.06-2.66.17-.82-.24-1.24-.25-2.24-.32-.63-.76-1.09-.8-2.15-.24-.14-.3-.55-.42-.87-1.61-2.6-4.4-3.47-6.87-4.81-.91.09-1.96-.8-2.83-.21-.2-.46-.86.09-1.03.45-.19.1-.13-.19-.25-.19-.36.54-.96.7-1.27,1.08-.61.75-.75,1.78-1.43,2.45-.13.99-.17,2.3-.23,3.08.01.08.09.06.15.06.05.22-.07.22-.09.35.08.01.13-.12.15,0-.08.29-.1.39-.03.75.11,0,.02-.24.04-.34.03.29.39.81.07.95.12.13.37.75.17.88.22.26.43.46.42.87.41.38.61,1.35.3,2.03-.14,0-.25.03-.3.15.16-.03.17.17.16.53-.12-.15-.14.09-.19.22-.08-.19-.15-.11-.25,0-.6-.29-1.13.02-1.64-.2-.45-.91-1.11-1.51-1.31-2.8-.47-.86-.47-2.49-.43-3.66.02-.7.04-1.74.3-1.85,0-.08-.09-.06-.15-.06.31-1.27.79-1.93,1.17-3.12.07-.09.12-.09.2-.01.42-1.1,1.27-1.66,1.77-2.67.14.1.21-.09.35.05.15-.04.26-.16.39-.22.93-.03,1.72-.73,2.58-.18.14-.25.23.09.39-.22.49.57,1.65-.01,2.15.65.21-.24.86.28,1.19.08v.21c.19.04.24-.1.4-.09.03.17.12.24.21.33,1.64.41,3.08.99,4.36,1.85.03.24.13.08.06.34.16.08.03-.22.2-.15.09.17-.02.21.06.41.15-.36.34-.02.55.11-.01.08-.1.05-.1.14.71.03.91.82,1.37,1.24-.07.59.18.29.17.81.14-.14.16-.03.24-.21.04.18.25.48.4.25.47.59.79,1.24,1.14,1.86.13-.07-.08-.21-.01-.41.36.31.36,1.13.72,1.26-.16,0-.18.33-.13.62h0Z"/>
    <path class="cls-1" d="M67.96,88.81c-.01.45-.91.67-1.27.67.2-.53.87-.34,1.27-.67h0Z"/>
    <path class="cls-2" d="M138,95.95c.1.25.14-.11.3.12.12-.45.21-.52.48-.77,0-.39.2-.53.18-.96-.16-.18-.33.02-.39.15-.02-.21.12-.35-.06-.41-1.04.29-1.44,1.4-2.03,2.27.04.01.09,0,.1.07-.22-.02-.15.33-.44.22-.04.19.07.17.06.34-.07-.16-.37.09-.25.15.02-.17.19-.01.15.13-.27.29-.54.58-.57,1.18-.08,0-.16,0-.25.01.24.72.42-.95.93-.52.57-.81,1.28-1.22,1.79-1.99h0ZM142.75,103.58c-.24-.43-.44.46-.69.03-.21.87-.83.18-1.12.8-.59-.17-1.2.07-1.41-.69.2-.42.32-.78.37-1.25.39-.15.37-.76.73-.78-.09.34-.02.28.16.33-.05.29-.23.41-.38.57.02.09.09.1.1.2.11-.28.21-.56.53-.57-.12-.08-.22-.2-.31-.33.15-.38.45-.83.83-.72.35-.59,1.05-.72,1.41-1.29-.09-.48-.3-.78-.48-1.14-.52.55-1.26,1.09-1.65,1.84-.09,0-.04-.22-.15-.2-.2.06,0,.32-.09.42-.14,0-.27,0-.24.22-.14.03-.06-.25-.16-.27-.13.1-.09.31-.04.48-.12,0-.15.11-.19.21-.09.03-.09-.05-.1-.13-.1.05-.13.19-.14.34-.21-.34-.36.32-.49.5-.44-.01-1,.89-1.18.67-.14.07.07.18-.04.28-.12-.02-.05-.3-.16-.34.05.4-.52.9-.44.36-.53,1.33-1.81.93-2.91.74-.35.52-1.08-.01-1.6-.34-.83-1.39-.34-3.71.23-5.06.13.18.03-.11.2-.08-.03-.21.08-.24.04-.48,1.09-1.64,1.45-4.13,3.42-4.58.37-.08.57.03.99-.11.28-.1.49-.37.94-.31.6.08.94-.08,1.26.55-.04.21-.12.37-.13.62.26,1.34-.48,2.5-1.02,3.25.04.08.07.18.06.34-.13.06-.1-.13-.2-.13.11.26-.07.11-.04.41-.23.17-.44.35-.58.64-.73.34-1.42,1.29-2.3,1.67-.1.02-.09.19-.19.21,0,.12,0,.23,0,.34-.2-.14-.43-.12-.39.36.1.23.34.25.36.6.3-.1.79.05.84-.38.27,0,.44-.42.69-.23,1.64-.38,2.7-1.5,3.71-2.69.07,0,.13,0,.2,0,.15-.34.55-.35.57-.84-.07-.2-.14-.4-.12-.74.45-.75-.04-1.54.19-2.46.25-.95,1.52-1.13,2.39-1.68.48-.3.93-.71,1.27-1.08.47-.52.82-1.28,1.41-1.29.34.67.6,1.25.75,2.22-.09.19-.23.31-.23.62-.19.12-.31-.02-.44.09-.22.53-.39.82-.88.79-.18.3-.58.66-.62.92-.03.2-.11-.06-.2,0-.51.51-.12.88-.26,1.65.26.19.41.52.76.58-.02.06-.05.12-.05.21.09-.08.28.08.5.18.13.66.31.91.29,1.96-.04.06-.11.08-.2.08.21.16-.06.27,0,.34-.08.25-.08-.19-.25-.06-.03.23.21.08.16.33-.4,1.06-1.47,1.51-1.88,2.33-.28-.19-.3.32-.49.02-.03.18.03.24.15.2-.28.26-.69.4-1.08.73h0Z"/>
    <path class="cls-2" d="M174.07,94.72s.1.07.2.04c.01-.16-.2-.2-.2-.04h0ZM175.76,93.25c-.15.27.14-.08.32-.01.1.38.49.06.81.17-.01.16.06.21.12.25-.02.09-.01.22-.07.26.04.07.11.1.13.2.09-.12.23,0,.32.04-.02.19.07.22.05.41-.25.13-.47.39-.8.2-.05.01-.03.1-.04.15-.5.03-.61.22-.87.3-.08.11-.17.22-.11.37.44.54.78,1.66,1.18,2.44-.03.09-.09.04-.08-.05-.05.02-.03.13-.03.21.07-.03.17-.03.2-.11.02.23.21.21.21.67-.06-.06-.06-.02-.12,0,.22.13-.17.48.13.52.03.39-.18.41-.1.84-.09.03-.08-.07-.08-.15-.06.03-.1.09-.12.16.17.2,0,.43-.02.68.01-.08-.1-.16-.2-.04.11.07.15.19.09.36-.07-.05-.1-.13-.05-.21-.15.12-.12.61-.19.58-.02.16-.09-.04-.16.01-.04.03-.04.12-.12.11,0,.06.07.04.12.04-.67.59-1.62.94-2.41,1.67,0-.03,0-.07,0-.11-.12.11-.4.29-.56.18-.14.09.03.3-.23.27.01-.06.05-.11.12-.11,0-.04-.04-.05-.04-.1-.16.06-.17.31-.31.38-.08-.05-.16-.09-.25-.14-.02-.11.06-.1.12-.11-.17-.04-.41-.19-.65-.28-.05-.62.36-.67.46-1.11.31-.14.69-.64,1.14-.78.03-.23-.07-.29-.05-.51.08-.09.05,0,.16-.01.03-.17-.07-.15-.13-.2.22-.32-.06-.71-.06-1.03-.24.05-.26-.17-.29-.41-.29-.49-.79-.95-.88-1.41,0-.09.03-.14.08-.16-.13-.13-.05-.09-.25-.2-.19-.49-.28-1.19-.16-1.55.04,0,.08,0,.12,0,.47-.76,1.35-1.01,1.85-1.75.19.1.46-.2.52-.02.04-.29.33-.27.39-.53.36.09.47-.3.79-.35h0Z"/>
    <path class="cls-1" d="M162.35,95.37c1.03-.32.25.63,0,0h0Z"/>
    <path class="cls-4" d="M129.14,109.62c-.19,0-.09-.22-.19-.28-.25.02-.6-.02-.68.13,0-.14-.67-.15-.62.12-.13-.02-.13-.07-.06-.14-1.15-.04-1.65.05-3,.04-.02.25-.39.03-.43.21-.24.02-.02-.04-.06-.14-.46.15-.9.03-1.18.24-.24.02-.03-.04-.07-.14-.54,0-.98.09-1.3.25-.78-.13-2.2.07-3.05.23-.12-.13-.76-.11-.69.08-.68-.34-1.75.04-2.49.11-.46-.18-1.01-.09-1.5-.03-1.59.18-3.42.01-5.05.08-.38.02-.85-.02-1.12,0-1.29.12-3.12.07-4.8.17-.29.02-.59-.08-.88-.06-.17.01-.35.12-.49.12-.1,0-.23-.12-.32-.13-1.04-.08-2.2.24-3.18.29-.33.01-.66-.12-1-.1-.38.02-.75.18-1.12.2-.48.01-.98-.11-1.44-.08-.43.02-.83.2-1.24.2-.36,0-1.02-.12-1.62.07-1.72-.18-4.69.12-6.68,0-.11.05-.34.01-.31.16-.16.04-.12-.1-.19-.14-.13.1-.5.02-.56.17-1.15-.05-2.8.19-4.37.1-.97-.06-1.98-.11-2.81.12-.39-.27-1.14.06-1.5-.18-1.9.27-4.09-.16-5.49.24-1.09-.17-2,.25-3.24.1-.2.01-.38.04-.49.12-.86-.26-2.16.01-3.06-.06-.08.01-.06.1,0,.1-.13-.01-.76-.24-.94.04.02-.1-.05-.13-.07-.19-.54.24-1.15-.12-1.68.18-1.03-.23-1.92.34-3.06.04.05-.23-.1-.04-.13-.14.26-.16-.2-.54-.09-1.31.46-.2.95-.17,1.43-.21,3.42-.31,6.82-.37,10.22-.65.89-.08,1.81.01,2.68-.07.97-.09,1.88-.24,2.87-.23,1.03.01,2.01.05,3.06,0,.85-.03,1.76-.03,2.62-.02,2.2.02,4.44-.12,6.61-.1.98,0,2.02-.07,3-.09,2.28-.04,4.52-.26,6.79-.4,2.96-.18,6-.08,8.99-.11.76,0,1.54-.12,2.24-.15,2.65-.09,5.36-.23,8.17-.27,4.39-.06,8.66-.18,13.1-.44.35-.02.72-.04,1.06-.05,3.79-.06,7.67-.3,11.47-.51.54-.03,1.02-.08,1.38.08.91-.18,2.56-.22,3.8-.27.54-.02,1.07.05,1.56.08,1.27.05,2.58-.11,3.81-.12.65,0,1.46.19,2.13.05.32-.07-.16-.1.12,0,.11.04.8.04,1.19.04,1.18.02,2.37-.05,3.93-.03.54,0,1.04.14,1.57.13,1.65-.04,3.22.1,4.49-.05,3.3.32,7.48-.23,10.43.16.42-.08.79-.19,1-.09.07-.01.05-.09.06-.15.12,0,.04.16.19.14.21-.12.15-.12.37-.21-.11-.09-.32-.09-.56-.08.3-.32.74.02,1.07.15.21-.06,0-.11.12-.2.12.05.14.18.26.23.17.03.12-.1.18-.15.16.18.35.2.57.22.09.5.67,1.62-.02,1.99-.26-.07.02-.3-.26-.38-.44.11-.85-.07-1.06.14-.13.03-.12-.07-.13-.14-.59.15-1.1-.21-1.49.12-.2-.04-.27-.14-.19-.29-.75.09-1.23-.05-1.87.18-.91-.4-2.11.09-2.81-.12-.16.02-.21.13-.37.16,0-.04-.08-.03-.13-.04-.23.02.04-.15-.19-.19-.14,0-.2.05-.19.15-.12-.1-.29-.02-.38-.22-.82.26-1.7-.1-2.55.26-.12,0-.05-.16-.19-.14-.15,0-.26.04-.31.11-1.33-.25-3.02.19-4.25,0-.22.03-.33.14-.56.17-.48-.3-1.47.13-1.94-.11-1.37.02-2.03.31-3.43.11-.32.15-.45.08-.81.08-.19,0-.15.18-.37.16-.02-.08.05-.09.06-.15-1.22.05-2.19-.14-3.12.19,0-.3-.49.02-.5.02-.1,0-.16-.13-.25-.14-.15-.02-.07.09-.12.1-.18.03-.58-.12-.69-.12-.32,0-.59.13-.87.09-.61-.09-1.44.17-2.19-.05-.19.11-.37.23-.56.07-1.39.18-3.64.12-5.61.35-.5-.23-1.36.01-2,.09-.36-.22-.8-.15-1.12,0,.15-.15-.85-.34-1-.06-.25-.08-.71-.29-.93,0-.09-.01-.06-.12-.07-.19-.57.14-1.19.1-1.87.04-.21.06.17,0,.07.14-.12,0-.25.01-.38.02-.02-.11.18-.06.19-.15-.68,0-1.46-.17-2.31-.09-.08.01-.14.11-.12.11-.11,0-.28-.12-.44-.13-.38-.01-2.02,0-2.24.25,0-.02.09.06.12.04,0,.09-.25-.07-.25.11h0Z"/>
    <path class="cls-1" d="M155.29,109.66c-.03-.14.03-.18.04-.28.12-.02.06.2.15.2-.04.11-.07-.01-.2.08h0Z"/>
    <path class="cls-2" d="M51.84,101.84c-.13.29-.2.38-.54.3-.07.09-.02.33-.14.35-.11-.36-.33.16-.44.22-1.04.23-2.13,1.8-2.15,3.44-.02,1.39.32,2.28.81,2.76.73.33,1.11-.3,1.72-.62.4-1.18,1.19-1.86,1.57-3.07.01.08.02.16.1.13.26-1.3,1.16-2.91,1.63-4.37.03-.11.19-.57-.01-.55-.67.61-1.84,1.45-2.55,1.41h0ZM51.97,109.74c-.11.01-.1.18-.09.34-.25-.17-.6.43-.79.1-.11.02.07.17,0,.34-.14.07-.13-.09-.25-.05-.15.58-.41.33-.48.7-.06-.03-.11-.08-.11-.2-.06.1-.12.2-.19.28-.12.02-.24.02-.3-.05-.82.88-1.48.28-2.18.09-.09-.46-.28-.54-.47-.73-.13-.95-.46-2-.62-3.24.22,0-.05-1.03.42-1.04-.08-.7.15-1.51.55-1.8.31-1.29,1.13-2.22,1.51-3.2.16.03.15-.14.25-.01.3-1.05,1.27-1.22,1.43-2.45.68-.22,1.01-.89,1.76-1.03.26-.43,1.06-.42,1.22-.94.11.14.14-.04.3-.01.68-.57,1.34-.78,1.95-1.45.1-.03.13.04.2.06.88-1.67,1.28-3.94,2-5.82.19.09.09-.19.24-.15,0-.2-.01-.41-.02-.61.79-1.89,1.46-3.99,2.2-5.76.28-2.33.53-4.64,1.28-6.74.35-.21.74-.44,1.18-.39,1.08.12.85,2.68.74,4.12-.08,1.09-.57,2.35-.91,3.45-.41,1.36-1.03,2.58-1.45,3.68-.1.26-.09.54-.18.76-.13.29-.41.84-.62,1.12,0,.11,0,.23,0,.34-.06.09-.08.03-.15,0-.19,1.6-.99,2.69-1.3,3.94,1.18-.32,2.54-.93,3.64-1.46.14-1.06.26-2.3.21-3.62-.02-.52-.2-1.11-.18-1.56,0-.15.31-1.86.45-2,.22-.23.46-.07.84-.04.16.41.53.5.91.57.02.31.21.39.21.74.13.23.38.29.51.52.06.31-.16,1.12.08,1.43.01.79,0,1.87-.03,2.73,1.43-.18,2.64-.54,4.1-.94.21-.06.49-.15.69-.24,1.13-.47,2.22-1.02,3.39-1.38,2.02-.62,3.95-1.64,6.01-2.17.03.23.14.39.11.61-.02.2-.7.92-.91,1.13-1.16,1.14-3,1.64-4.52,2.18-1.11.4-2.45.95-3.39,1.52-1.15.42-2.5,1.48-3.73,1.8-.6.43-1.46.85-2.11.98-.12,1.96-.29,3.78-.5,6.08-.07.73-.02,1.52-.1,2.26-.11,1.06-.4,2.16-.02,3.2-.13.14-.25.44-.38.49-.07.03-.13-.11-.1-.13-.22.14-.44.52-.89.31-.96-.43-.73-3.75-.62-5.35.15-2.39-.12-3.54-.03-5.52-.84-.31-1.38.75-2.22.72-.57.51-1.56.79-2.15,1.46-.11.04-.07-.13-.15-.13-.13.17-.26.33-.44.43,0-.07,0-.13,0-.2-.2.05-.16.6-.29.29-.04.23-.22.28-.18.62-.05-.02-.04-.13-.1-.13-.35.67-.6,1.48-1.05,2.02.04.21-.04.25-.04.41-.71.93-.79,2.82-1.51,3.54.16.23-.12.44-.14.49-.12.32-.12.77-.47.97-.45,1.45-.97,2.81-1.8,3.76-.11.03-.19,0-.25-.05h0Z"/>
    <path class="cls-2" d="M104.29,102.07c0-.18.02-.4-.11-.4,0,.18-.02.4.11.4h0ZM104.63,95.65c-.07-.01-.09-.11-.15-.13-.18,1-.55,1.76-.62,2.89,1.01-.87,2.13-1.61,2.65-3.12-.68-.37-1.33-.11-1.87.36h0ZM93.65,101.73c.04.2.1-.07.2,0,.15-.07-.07-.17,0-.34.23-.2.45-.28.73-.58.43-.46.51-1.21,1.11-1.21.12.09.19.23.26.4.25-1.4.5-2.19.8-3.92.02-.19-.19-.05-.2-.2-.07-.4.12-.46.13-.75.68-.32,1.27-.89,2.07-.7.49.24.66.96.93,1.52-.13,2.08-.68,3.78-.02,5.66.25.08.45.23.46.66.07-.01.14-.02.15.06.44-.16.73-.52,1.18-.67.27-.47.17-1.69.19-2.26.23-.3.12-.68.18-1.03.24-1.62.9-2.55,1.65-3.55.68-.1.85-1.17,1.86-1.04,0,.18.16.14.16.34.97-.38,2.17.4,1.98,1.95.03.17.1-.12.09-.21.21.26-.19,1.69-.32,1.31-.13.07.08.21,0,.41-.16.1-.04-.22-.2-.13-.03.21.18.08.11.34-.67,1.42-1.64,2.67-2.9,3.6-.03.44.31.35.27.81.6.03,1.08.8,1.71,1.02.63-.55,1.31-.14,2.07-.43.44-.17.79-.59,1.32-.88.47-.25.76-.93,1.22-1.15.33-.95,1.08-.94,1.5-1.77.17.1.45.04.7.04,0,.12.04.18.1.2.21.82-.25,1.68-.74,2.14-.23.22-.41.65-.63.85-.07.06-.1-.09-.15-.06-.31.18-.62.75-.92.99-.32.26-.76.31-.93.72-.1-.23-.35.27-.35-.05-.13.01-.07.27-.19.28-.53-.11-.76.63-1.33.54-.07.02-.01.2-.1.21-.21.08-.23-.13-.35-.19,0,.11,0,.23.01.34-1.67.31-3.72.66-5.27-.24-.11-.15.04-.33-.01-.61-.15-.03-.47-.01-.7-.11-.09.07-.09.24-.14.35-.52.4-1.46.12-2.02.56-1.88.39-2.59-1.38-3.34-2.85-.02-.7-.29-.95-.14-1.63-.26.1-.5.81-.87.99-1.05,1.97-2.75,3.1-4.31,4.42-1.51.23-3.22.45-4.1-1.11-.33.02-.53-.16-.8-.24.01-.28-.14-.31-.21-.47-.34.55-.81.31-.96,1.07-.71-.08-2.15-.06-2.5-.71-.45-.83-.14-2.29-.43-3.53-.09-.22-.26-.33-.41-.46-.33.07-.46.38-.79.44-.05.68-.53,1.48-.59,2.55-.06.09-.08.03-.15.01.06.23,0,.81-.18.69.11.96-.35,1.57-1.1,1.89-.4-.04-.69-.29-1.04-.02-.44-.32-.35-1.41-.88-1.59-.54.56-1.38,1.33-2.06,1.11-.68-.6-.96-1.78-1.4-2.74-.53.85-1.23,1.4-2,1.8-.29.15-.81.34-1.29.2-.12-.04-.21-.24-.35-.33-.64-.4-1.98-1.34-2.24-2.22-.13-.44-.02-.88-.03-1.36-.02-.86-.11-1.8-.06-2.73.76-.13,1.14-.1,1.93-.29.18.38-.09.88.08,1.42.08-.47.29.42.06.27.48.22.46,1.16.93,1.39.02.14-.03.18-.04.27.24.11.55.44.71.72,1.6-.69,2.31-2.53,2.56-4.96.11-.1.23-.18.44-.15.66.77.39,1.6.57,2.97.76.87.16,2.94,1.22,3.29,1.75-.63,1.56-3.75,2.14-5.89-.05-.3-.02-.3-.06-.54.83-.98,1.07,1.17,1.24,1.85.91-1.48,3.81-2.8,4.71-.48-.19.28.08.53.17.81,0,.33-.12-.15-.2.08.04.09.04.26.2.19-.24.67.34,1.37.19,2.1.12.07.35.38.22.74.31.39.75,1.93.6,2.56.2-.08.21-.4.28-.63.38-.02.63-.21.58-.77-.19-.23.39-.53.21-.37-.14-.11-.15-.62-.15-.9.4-.09-.19.6.17.31.44-3.32.87-6.28,1-9.92-.45-.28-1.11.17-1.49-.21-.08.1-.17.18-.19.35-.13,0-.08-.27-.2-.27-.16.21-.37.22-.45.02-.15.06-.02.32-.09.34-.1.04-.1-.09-.1-.2-.14.06-.2.23-.39.22-.24-.06-.32-.33-.56-.39-.57-1.62.85-2.19,1.42-3.13.2.06.34.21.51.32.48-.26,1.26.13,1.69,0,.22-1.16.18-2.63.25-4.03.05-1.15.35-2.45,1.07-2.84.38-.21.94-.07,1.54-.13.09-.01.25-.12.34-.09.31.09.55.6.87.85.05.26-.12.25-.14.42.36.5.32,2.02.07,2.73.19.96-.16,1.55-.04,2.38.28-.22.8.4,1.09-.11.26.39.6-.13.85.3.1,0,.03-.22.14-.21,1.49-.16,2.87-.31,4.07-.25.22.25.08.62.13,1.16-1.07.8-2.42.49-3.34,1.51-.28-.31-.69.45-.9-.03-.45.4-1.03.43-1.58.28-.38.24-.61-.08-.79.3-.25,2.1-.52,4.17-.9,6.11.17,1.22-.14,2.2-.16,3.62-.23-.5-.21,1.67-.05,2.05.16.36,1.2.43,1.74.26.88-.29,1.9-1.42,2.49-1.95.02.12-.04.13-.1.14h0Z"/>
    <path class="cls-2" d="M99.91,89.91c-.24-.1-.51.41-.64.17-.08.07-.03.32-.14.35-.61.02-1.1-.36-1.17-1.04-.09-.9.6-2.05.53-2.96.3-.22.59-.48.77-.85,1.32-.23,1.54,2.15,1.08,3.63-.31.08-.36.48-.43.7h0Z"/>
    <path class="cls-2" d="M172.54,90.84c0,.11-.07.53-.27.52-.03.14.07.13.05.28-.08.02-.11-.03-.16-.04.04.42-.38.35-.35.75-.24.29-.45.02-.7-.06-.02-.64.45-1.62-.09-1.89.03-.75.31-1.34.28-1.95-.01-.31-.18-.73.19-.93,0-.91,1.45-1.04,1.91-.45-.02.6-.1,1.21-.33,1.77.09.31-.05.7-.18.88.08.12-.04.22.05.28-.26.08-.07.65-.35.71,0,.08.05.1.04.18-.05.01-.07,0-.08-.04h0Z"/>
    <path class="cls-2" d="M164.37,107.86c.02.15-.08.14-.04.32.58-.41.96,1.02.86,1.59-.49.32-1.02,1.43-1.3.05-.39-.1-.66-.19-1.02-.09-.26.4,0,.65.07,1.06-.27.09-.28.03-.51-.04-.4.54-.3,1.74-.37,2.7.82.23,1.4-.6,2.09.05,0,.15,0,.29,0,.44-.15-.11-.44.33-.6.21-.03.26.08.32.06.56-.24.17-.22.34-.55.33-.06-.13-.2-.14-.15-.43-.31-.07-.27.31-.6.21-.18.13-.16.53-.31.7.26,1.47.18,2.93.5,4.36.35.08.58-.12.93-.03.16.19.08.34.15.62-.33.43-.7.17-1.06.48.07.26,0,.41-.08.63-.5-.05-.82-.81-1.3-.33-.21-.2-.49-.3-.48-.8.41.06.73-.33,1.01-.41.12-1.49-.31-2.89-.36-4.37-.52-.13-1.05.79-1.35-.08.06-.47.1-.96.06-1.57.28-.32.63-.2,1.06-.29.28-.16.12-.56.12-1.01,0-1.64.45-2.99,1.18-3.86.02-.2-.09-.21-.05-.43.38-.59,1.34-1.1,2.03-.57h0Z"/>
    <path class="cls-2" d="M153.54,113.31c-.03.2-.2.44-.34.29-.08.28-.03.34-.14.54-1.62-.63-3.19.75-3.25,2.74-.06.21-.17-.05-.14.28.03.1.05,0,.05-.07.01.76,0,1.5.04,2.09.05,0,.03-.08.05-.13.05.23-.05.98.22,1.07.03.57.59.89.92,1.25,1.33.12,2.19-1,3.24-.65-.05.15-.08.34-.14.48-.99.47-2.29,1-3.29.79-1.48-.32-1.8-2.59-1.79-4.78,0-.61.09-1.52.51-1.9.57-1.44,1.39-2.53,3-2.4.42.03.76.26,1.06.43h0Z"/>
    <path class="cls-2" d="M168.38,113.51c-1.09-.03-1.73,1.07-1.96,2.4,1.02-.32,2-.43,2.88-.86-.25-.6-.65-.98-.93-1.55h0ZM170.22,115.92c-1.12.42-2.54.51-3.68,1.23.02-.17-.23.04-.15-.2-.24,2.14,1.75,4.63,3.05,2.85.53-.12.93-.41,1.34-.25.12.24-.11.35.06.55-.46.37-1.05.67-1.53.95-.13.07-.41.36-.64.36-.28,0-.52-.32-.85-.18.06-.09.15-.14,0-.2-.11.16-.09.19-.45.15-.02-.28.06-.27,0-.48-.06.03-.1.1-.1.21-.07-.12-.1-.28-.21-.34-.08.07-.25.03-.3.15-.09-.05-.01-.12,0-.21-.03.32-.68-.23-.81-.52-.02-.05-.05-.54-.17-.89-.29-.81-.35-2.02-.26-3.08,0-.1-.08-.25-.06-.34.14-.72.7-1.31.66-1.94.64-.57.78-1.23,1.83-1.23.75,0,1.07.49,1.47,1.11.42.65.79,1.62.79,2.31h0Z"/>
    <path class="cls-2" d="M166.73,96.74c.08,0,.19-.04.2.06.06.24-.3.2-.2-.06h0ZM166.02,99.91c-.08.02-.09-.06-.15-.07,0,.23.09.34.07.61-.15.04-.18-.16-.11-.27-.33.06-.23.66-.42.9-.29.06-.48-.14-.59.17-.05-.04-.05-.15-.15-.13-.12.03-.21.08-.24.22-.56,0-.98.11-1.35-.28-.64-.07-1.08-.01-1.4-.49.52-1.42.74-3.14,2.06-3.37.4-.07.74.05,1.19.08-.04-.05-.04-.19-.11-.2.22-.17.31.55.37.8.15.04.18-.08.29-.08.27.4.57.48,1.01.71.08.61-.35.83-.46,1.38h0ZM168.85,98.15c-.43-.4-.67-1.42-1.18-1.59-.4-.13-.59-.37-.9-.43-.57-.12-1.08.39-1.62.68,0-.32-.06-.77-.22-1.02-.21-.32-1.42-.75-1.75-.67-.38.08-.48.41-.74.44-1.02.16-1.59,1.2-2.19,1.66-.05.24-.1.49-.24.63-.05,0-.06-.05-.1-.06-.04.2.07.17.06.34-.45.71-.38,1.7-1.15,1.96-.03.19.08.54-.04.62-.24.12-.16-.23-.35-.19-.02.17.09.14.06.34-.23.06-.49.08-.69.17-.02-.49-.27-.19-.26-.67-.19.21-.31.53-.58.64-.01-.12.04-.34-.1-.27-.08.24-.17.08-.3.01-.12.09.11.25-.04.34-.03-.09-.19,0-.2-.13.06-.36-.12-.76-.21-.67.06.19.1.42.11.67-.24.03-.07.61-.33.63.13-.36-.11-.53-.31-.6-.42.56-.83.25-1.07.86-.09-.27.26-.52-.01-.61.01.75-.63.66-1.12.8-.32-.16-.6-.61-.95-.5-.3-.29-.26-1.07-.48-1.48.06-.37.07-1.15-.04-1.5-.21.29-.04-.85-.03-1.16.05-1,.04-2.54.33-2.95.14-.06.1.13.2.13.63-.68,1.47.02,2.27-.37.13-.03.05.26.21.19.16-.09.34-.13.49-.23.13-.02.04.27.2.2.69-.43,2.26.2,3.01-.61.19.05.48-.11.84-.24.01-.25-.02-.44-.06-.61-.47-.18-.94-.8-1.35-.28-.13-.04-.13-.29-.3-.27-.52.41-.77-.3-1.34-.08-1.08-.33-2.02-.75-3.39-.67-.06-1.6.8-2.79.68-4.59.21-.32-.07-.85-.18-1.15-.32-.21-.57-.72-1.06-.77-.35-.04-.73.09-1.03.32-.01-.07-.06-.1-.1-.13-.78,1.57-.22,3.95-.91,5.63-.66-.29-.83.41-1.28.4-.54.54-.62,1.66-.94,2.49.13-.02.25-.03.2.2.15.04.06-.24.25-.14-.07.75,1.12.18,1.16.83-.2,1.26-.64,2.56-.41,3.97-.19.14-.05.71.03,1.02-.19.62-.11,1.11-.15,1.99.13,1.04.76,1.88,1.4,2.39.28-.14.56.18.76.38,0-.08-.02-.2.04-.21.22.41.56.43.9.23.13.03.17.2.24.32.04-.01.07-.02.11-.04-.01-.09-.02-.18.05-.17.09,0,.2,0,.3.05,1.72-.58,4.06-1.41,5.09-1.77.02-.04.05-.08.08-.1.02.03.05.04.07.05.08-.03.15-.05.2-.07.21-.13.48-.36.71-.08.11-.15-.03-.2,0-.41.29-.04.5-.27.5.11.16.08.03-.22.19-.14.45.36.94.92,1.52,1.09.21.06.46-.02.7.04.35.09.58.3.9.23,1-.21,2.44,0,3.26-.83.66-.26,1.04-.48,1.37-1.15,0,.09.14.08.15,0-.04-.14.32-.53.28-.69.13.2.16-.3.34-.09.13-.5.44-1.14.31-1.58.09-.03.13.09.15,0-.02-.14.09-.68.02-1.09h0Z"/>
  </g>
  <text class="cls-5" transform="translate(17.14 116.82) scale(.79 1)"><tspan x="0" y="0">30</tspan></text>
</svg>