<?xml version="1.0" encoding="UTF-8"?>
<svg id="Layer_1" data-name="Layer 1" xmlns="http://www.w3.org/2000/svg" viewBox="0 0 180 200">
  <defs>
    <style>
      .cls-1 {
        fill: #fff;
      }

      .cls-1, .cls-2, .cls-3, .cls-4, .cls-5 {
        fill-rule: evenodd;
      }

      .cls-2, .cls-6 {
        fill: #231f20;
      }

      .cls-3 {
        fill: #f4f4f4;
      }

      .cls-4 {
        fill: #9a9c9f;
      }

      .cls-5 {
        fill: #ffda40;
      }

      .cls-6 {
        font-family: AmericanTypewriter-Bold, 'American Typewriter';
        font-size: 20.52px;
        font-weight: 700;
      }
    </style>
  </defs>
  <g>
    <path class="cls-2" d="M131.33,89.76c.1-.46.6.22.91.05-.09.4-.66-.04-.91-.05h0Z"/>
    <path class="cls-2" d="M133.9,93.1c-.05-.14.23-.21.38-.31.1.15.18.39.35.33-.03.42-.49-.18-.74-.01h0Z"/>
    <path class="cls-1" d="M138.24,94.18c1.35.32,2.22,2.37,2.57,3.59-.91-1.05-1.72-2.37-2.57-3.59h0Z"/>
    <path class="cls-1" d="M137.16,92.48c.35-.11.63-.05.85.2-.15.34-.63.06-.85-.2h0Z"/>
    <path class="cls-1" d="M138.3,92.67c.3-.08.7.14.58.46-.3.13-.42-.21-.58-.46h0Z"/>
    <path class="cls-1" d="M150.64,84.72c.52-.64.55-1.38.89-2.06.61.23-.15.83.04,1.23-.57.11-.14.72-.52,1.25-.16-.07-.31-.18-.42-.41h0Z"/>
    <path class="cls-3" d="M172.71,72.13c3.61,7.84,2.19,20.7,2.46,30.25.04,1.33.45,2.73.48,4.07.08,4.73-.41,9.8-.5,14.73-.08,4.71.23,9.63-1,13.7-.63.61-.98,1.57-1.21,2.77-1.53.35-3.4.86-5.24,1.23-1.5.3-2.71.79-4.22.99-.79.11-1.35.54-2.14.69-.76.14-1.7-.08-2.49-.02-1.49.11-3.33.06-4.84.24-5.52.65-11.36.58-17.32.58-5.65,0-11.34,1.2-16.98,1.35-3.51.09-7.03-.04-10.56.14-4.69.24-9.47.26-14.03.36-2.86.07-5.85.02-8.48-.34-2.31-.31-4.9-.24-7.91-.31-1.85-.04-4.24-.13-6.28-.09-1.91.04-3.93-.37-5.88-.31-4.01.12-8.44.51-11.59-.63-.72-.26-1.42-1.33-2.41-2.06-1.02-.76-2.19-1.14-2.58-1.8-1.15-1.97-.64-6.49-.75-10.42-.48-15.13-2.98-36.89.18-51.8,2.21-4.78,6.23-3.64,11.3-3.95,4.18-.25,8.14-.4,12.65-.63,1.99-.1,4.02-.55,6.07-.7,11.08-.8,23.14.03,32.55-.17,9.36-.21,17.13-.59,25.71.17,1.22.11,5.27.39,6.49.41,1,.01,2.02.16,5.97-.28,1.66-.2,3.84-.19,5.46-.11,1.14.06,5.06.09,6.29.23,2.87.31,5.77-.33,8.72.27,1.6.32.6,1.6,2.11,1.45h0Z"/>
    <path class="cls-1" d="M64.98,113.48c.16.22.41.34.41.72-.19-.19-.35-.41-.41-.72h0Z"/>
    <path class="cls-1" d="M71.2,98.49c.09-.05.1.19,0,.15,0-.05,0-.1,0-.15h0Z"/>
    <path class="cls-1" d="M60.18,105.14c-.05.08-.2.01-.26,0,.04-.1.16-.03.26,0h0Z"/>
    <path class="cls-1" d="M53.76,105.57c.04.06.09.19.04.25-.06-.01-.01-.17-.04-.25h0Z"/>
    <path class="cls-2" d="M78.62,81.08c-.05,0-.1,0-.14,0,.11.72.24,1.84.05,2.51.31,1.29-.17,2.85.35,3.86-.03.15-.18.19-.22.32-.15-.08-.34-.12-.51-.18-.09-.41-.25-.75-.39-1.11.12-.22.04-.27,0-.51-.03-.81.3-3.33.06-4.18-.1-.35.09-.95-.16-1.11-.01-.16-.04-.34.08-.38-.11-.03-.09-.19-.14-.27-.11.04-.34.07-.37-.09-.1.2-.54.09-.74.2-.28-.3-.88-.08-1.03-.36-.15.19-.66.08-.98-.06-.02-.2-.11-.38-.02-.56,1.11-.17,2.23.12,2.93-.06.66.12,1.78-.09,2.69-.28.06,0,.04.1.05.09.7-.09,2.06-.29,2.47.19.02.01.14.04.14.04.02.04-.15.33,0,.37-.15-.02-.16.08-.33.05,0-.04,0-.09,0-.14-.09.01-.03.16-.09.19-.32-.04-.72-.07-1.07-.03-.17.01-.45.02-.51.19-.32-.22-.61.03-.93.02-.02-.15-.2-.18-.09,0-.49.18-.79-.04-1.26.21,0,.42.13.69.17,1.07h0Z"/>
    <path class="cls-1" d="M65.66,114.52c.3-.06.2.28.27.45.13.1-.31-.22-.27-.45h0Z"/>
    <path class="cls-4" d="M53.28,108.16c-.08-.03-.14-.22-.24-.12.09-.03.04.09.09.1.07-.03.13.08.15.02h0ZM52.94,104.24s0-.16-.03-.2c.01.06-.03.18.03.2h0ZM56.65,100.68c-.13.01.05.02,0,.1-.1-.04-.14.06-.28.04-.09.13-.2.25-.43.24-.39.4-1.23.27-1.81.57-.24-.02-.51.15-.81.15-.11.86.07,2-.11,2.79.1.25.04.69.07,1.03.01.09.17.05.16.04.58.18,1.22.26,1.86.34.24.04.54,0,.73-.06.29-.09.58.02.95-.07.06.02.03-.05.07-.05.39.01.59-.14.9-.2.18-.17.6,0,.72-.22.32.02.53-.08.62.25-.16.09-.37.34-.2.52-.03,0-.02-.03-.03-.06-.09.07-.25.07-.23.24-.08.03-.06-.04-.1-.04-.11.04-.3.08-.35.25-.14.04-.2-.02-.24.08-.08.04-.06-.04-.11-.05-.06.03-.25.25-.28.06-.07,0-.05.11-.1.13-.08.03-.06-.04-.11-.05-.57.4-1.44.14-2.22.22-.08.03-.06-.06-.11-.07-.53.08-1-.03-1.52-.1-.04,0,0,.09-.04.11-.05,0-.07-.05-.1-.07-.02.28.37.35.47.61.34.01.45.27.8.27.02.03.05.06.06.1.56.04,1.06.3,1.37.74.41.25.52.83.81,1.22.21.52.4,1.05.7,1.47,0,.36.15.58.25.84.01.06-.05.04-.05.08.09.04.09.2.09.33-.03,0-.06,0-.08,0-.08.43.16.81.03,1.23-.03.08.04.06.05.1-.09.21,0,.73-.05,1.05.11.05.1.23.11.38-.04,0-.01-.07-.05-.07.02.26.05.73.33.82,0,.13.11.17.08.33-.05,0-.04.04-.05.09-.55.21-1.05.46-1.42.84,0,.1,0,.21,0,.3.34.38,1,.27,1.55.44.13-.12.33.02.41-.06.1.1.55.06.71-.01.41-.03.71,0,1-.12-.01.09.12-.06.23-.01.02.1.13.12.13.24.17-.02.28.04.26.22-.31.13-.48.24-.89.3-.05,0-.02.09-.08.1-.07-.1-.13.05-.3.09-.18.04-.33-.03-.39.06-.06-.02-.18.05-.16-.05-.45.16-1.03.04-1.33.02-.04,0-.06.06-.05.06-.16-.02-.27-.09-.41-.1-.1,0-.2.03-.33.04-.14,0-.21-.07-.36-.1-.22-.05-.41-.06-.59-.18,0-.02,0-.04,0-.07-.14.02-.21-.04-.36-.02-.21-.17-.5-.27-.63-.53-.03-.27.22-.36.35-.52.04-.04.02-.14.05-.18.06-.09.21-.08.18-.2.18-.03.24-.18.33-.3.31-.11.52-.32.71-.55.06-.04.24.01.2-.13.12.03.15-.07.26-.05-.1-.28,0-.72-.08-.98,0-.02-.04-.02-.07-.02.13-.07.06-.41-.01-.51.04-.09.08-.25,0-.34-.03-.09.02-.1.05-.13-.12-.28-.02-.66-.17-.89.01-.41-.13-.66-.2-1-.34-.55-.6-1.17-.85-1.81-.29-.5-.62-.96-1.08-1.27-.09-.03-.02.1-.1.05-.13-.13-.5-.02-.6-.19-.16-.01-.37.03-.41-.1-1.05-.13-1.7-.9-1.86-1.94-.02-.15.02-.3.04-.39.14-.6-.13-1.28-.03-1.82-.05-.16,0-.1,0-.28-.12-.61-.09-1.94-.18-2.77,0-.03-.05-.07-.05-.06,0-.08.08-.16.1-.26.04-.34-.04-.64.11-.84.07-.1.21-.13.31-.22.1-.08.16-.3.41-.26.19-.14.34-.26.66-.18-.03.07.04.07.08.1,0,.3-.21.38-.3.59.08.17.23.02.34.02.15,0,.26.07.42.04.09-.02.29.03.45-.01.09-.02.33-.06.39,0,.51-.2,1.67.02,2.07-.48.06,0,.13,0,.2,0,0,.02.08.18.05.11.1.33-.27.53-.5.6h0Z"/>
    <path class="cls-1" d="M69.43,99.48c-.04.09-.03-.06.05-.03.04-.01.03-.06.04-.09l-.09.12h0Z"/>
    <path class="cls-2" d="M88.16,77.79c.57,1.32.34,3.01.69,4.37-.1,1.36-.11,2.92-.11,4.41.01.37.23.72-.02,1.03-.2-.03-.3-.17-.51-.18-.71-1.24-.42-2.82-.55-4.3-.33.02-.6-.22-.79-.04-.13.02-.05-.17-.14-.18-.18-.06,0,.21-.18.15-.21-.23-.99.02-1.63-.11-.09.05,0,.27-.13.28.21,1.55.16,2.94.18,4.46-.19.04-.4-.02-.7,0-.28-.92,0-2.37-.16-3.24-.01-.07.01-.18-.13-.18.32-1.04-.01-2.64.03-3.35-.25-.38-.05-1.16-.31-1.29.12-.03.06-.25.13-.33-.07-.1-.14-.21-.19-.32.14-.11.11-.02.04-.19.17-.14.35-.07.6-.05.31,1.01.41,2.11.48,3.29.69.48,2.08.26,2.93-.01-.01-.29.15-.45-.01-.74.06-.55.18-1.66.05-2.46-.08-.47-.46-1.25.44-.99h0Z"/>
    <path class="cls-2" d="M94.44,77.95c-.09.22-.24.15-.22.52-.85.18-1.61-.06-2.46.09-.07.01-.01.13-.09.14-.14-.16-.19.12-.33-.09.07,1,.03,1.88.15,3.02.79.23,1.54-.21,2.19.38-.19.07-.08.16-.27.33-.31-.13-.8.16-1.07-.03-.06.02-.04.12-.04.18-.34-.25-.48.19-.79.06-.05.58-.12,1.93.13,2.6-.02.32.17.67-.12.79.04.22-.04.33-.04.51.76.08,1.9-.08,2.78-.33.42-.13.63.21.75.5-.17.45-.88.15-1.33.44-.15.05-.03-.15-.18-.09-.82.27-2.03.18-2.74.13-.16-.76-.19-1.32-.27-1.76.23-2.65.13-4.86-.05-7.43.09-.01.09-.13.14-.19.24.04.59-.02.73.14.8-.26,1.82-.07,2.75-.2.13.09.25.18.37.27h0Z"/>
    <path class="cls-2" d="M126.69,126.45c.05.23-.09.16-.13.27.28,1.42-.02,3.08-.15,4.41-.09.3.17.15.09.46.03.24-.06.28-.13.37.04.58-.04.65-.04,1.28-.03,1.05.07,2.32-.18,3.34-.07.26-.7,1.39-.91,1.61-.23.23-.64.23-.81.64-.1.01-.1-.06-.11-.16-.05.19-.2.25-.24.44-.61.21-1.57-.02-2.21-.11-.76-.64-1.61-2.13-1.12-3.58-.34-1.09-.13-2.57-.26-3.6-.16-1.15.22-2.47.12-3.41-.12-1.09.27-2.78-.21-3.46-.36-.18-.77-.62-1.29-.37-.07-.3-.38-.3-.43-.62.11-.38.43-.47.6-.8.97-.07,1.42,1.02,2.09,1.54.56,2.79-.21,7.21.27,10.11-.17.25.05,2.53.28,2.78,1.12,1.18,2.97-.14,3.4-1.77.03-2.77.62-5.95.32-8.51-.15-1.3-.17-2.63-.14-4.11.16-.15.26-.36.53-.35.1.18.22.35.37.46-.08.69.18.81-.04,1.2.43.31-.02,2.12.33,1.98h0Z"/>
    <path class="cls-1" d="M91.64,131.82c0,.07,0,.14,0,.22-.11.04-.05-.13-.07-.22.02,0,.04,0,.06,0h0Z"/>
    <path class="cls-4" d="M68.67,121.27s0,.07,0,.11c.09.03.05-.09.1-.1.03,0,.05,0,.05-.03-.08-.03-.07.04-.15.02h0ZM69.13,120.93s.08-.02.05-.1c-.03,0-.05,0-.08,0,0,.03,0,.09.04.1h0ZM65.16,105.08c0,.05.11.01.15.03.04-.14-.15-.12-.15-.03h0ZM67.29,104.14c.01.15,0,.27-.04.38.27,0,.5-.2.36-.39-.08.04-.17-.05-.31,0h0ZM65.49,98.06s0,.08-.02.08c-.07-.04-.08.1-.05.02.14.03.14-.09.2-.13-.06,0-.05.05-.13.03h0ZM66.94,97.44c.08.04.08-.17,0-.13,0,.04,0,.09,0,.13h0ZM64.73,103.09c.17.26.17.65.25.95.83.07,1.5-.04,2.38-.04.11-.13.49-.1.49-.16.24.23.06.67-.12.85-.56.12-.8.36-1.32.41-.36.26-.71.21-1.03.35-.07,0-.1-.12-.19-.05-.03.45.02.89.11,1.38-.06.5-.03.77.02,1.16-.1.03-.11.29.01.31-.18.08-.06.32-.17.43.1.09.03-.01-.01.05-.16.31.04,1.62.04,2.08,0,.12-.03.22-.02.31.03.11.05.05.03.18-.03.22.06.55.07.59,0,.07-.07.12-.06.22.06.25,0,.64,0,1.02.92,0,1.86-.03,2.72-.26.24-.07.36-.01.49.15.02.07-.05.04-.08.02.12.15-.17.4.01.52.01.08-.12.03-.08.15,0,.09.08-.06.09.03-.04.02-.16.12-.18.05-.14.19-.26.4-.45.53-.57-.17-1.41.01-1.74-.02-.07.08-.21.04-.24.16-.09-.03-.17,0-.34-.04-.12.69,0,1.58.17,2.25.04.1-.08.08-.05.18.2,1.06.21,2.03.41,3.18.18.15.6.32.81.27.25.14.72.05.9.27.08.01.03-.1.13-.06.58.2,1.36-.03,1.92.14,0,.08.05.12.06.18-.09.03-.09.15-.21.16-.05.07.01.26-.13.25.1,0,.09.12.06.2-.08-.08-.18.06-.26.13-.14-.01-.2.05-.35.04-.04,0,0,.08-.05.08-.46.06-.77-.07-1.11-.06,0-.02,0-.05,0-.07-.16.06-.61-.07-.77.02-.22-.13-.5.09-.67-.12-.09.06-.35-.08-.44-.17-.08.13-.19.18-.33.13,0-.67-.92-.38-1.08-.9.12-.38.09-1.14-.03-1.6.08-.13-.13-.55.04-.64-.1-.04.08-.09-.07-.07-.03-.19.14-.62-.11-.64-.09-.78-.01-1.55-.15-2.51.18-.42-.02-1.13.05-1.54-.01-.04-.08,0-.08-.05,0-.3.03-.47-.02-.77.1-.23-.07-.49.04-.77,0-.03-.05-.02-.08-.03.09-.47,0-1.15-.11-1.69.15-.31.09-1.11.03-1.54-.11-.58-.03-1.71-.23-2.47-.13-.6.06-1.46-.14-1.9.14-.65-.08-1.18.12-1.73-.15-.56.08-1.15-.08-1.56.07.01.05-.06.07-.08.02-.5.14-.89.24-1.32.07-.04.09-.13.09-.24.29-.46.48-1.02,1.01-1.25.06-.13.24-.15.28-.29.27-.07.42-.27.6-.43.02-.15.07-.29.02-.36.02-.59.04-1.2-.12-1.85-.06-.5-.02-.96-.13-1.4.02,0,.04,0,.05,0-.2-.58-.05-1.63-.22-2.18.03-.21-.03-.63-.2-.84.2-.18-.07-.65.11-.77-.08-.03-.08-.28,0-.3-.14-.29-.21-.66-.3-1,.15-.45.53-.64,1.05-.66.08.02.03-.09.1-.08.22-.03.44.03.6-.09.51-.05.77-.06,1.16.16,0,.04-.02.13.05.1-.09.03-.09.14-.1.24-.24.07-.31.3-.45.47-.42.04-.7.27-1.05.43,0,.21.05.36.11.5-.09,0-.07-.11-.18-.04.07.24-.05.75-.03,1.18.01.38.12.8.07,1.05.31.62.14,1.48.32,2.28-.11.1.11.35-.04.49.1.69.23,1.6.17,2.18.09.37.16.91.2,1.31-.09,0-.09.07-.18.02-.49.17-.82.47-1.17.77,0,.06-.04.08-.02.15-.34.31-.72.68-.89,1.09-.29.66-.24,1.73-.08,2.72.03.08-.04.06-.06.1h0Z"/>
    <path class="cls-4" d="M57.95,103.68s.16.06.2-.01c-.07-.01-.17-.07-.2.01h0ZM60.81,109.03c-.18.04-.27-.09-.36,0,0-.07-.06-.06-.1-.07.18-1.48.57-3.05.3-4.61-.13.05-.24.07-.36,0-.12.1-.58.26-.85.12-.02,0,0,.05-.05.05-.07-.04-.24-.12-.28,0-.03-.08-.19-.03-.16-.18-.03.21-.29-.09-.33.12-.04,0-.02-.06-.03-.1-.24.05-.42-.14-.54-.04-.05-.12-.25-.11-.33-.05-.08-.23-.34-.26-.5-.4-.03-.07,0-.11.03-.18-.11-.15-.26-.26-.42-.35-.01-.09,0-.15.02-.21.43.07.74.19,1.06.11,0,.06.04.07.03.15.63.28,1.58.29,2.37.23.08-.16,0-.49.13-.61.26-.05.34.09.47.18.25.42.42.84.46,1.37.02.29.04.59.12.87-.03.06-.1.14,0,.18-.14.8.04,2.08-.13,2.7.12.12,0,.25,0,.41-.24.07-.48.04-.56.3h0Z"/>
    <path class="cls-2" d="M121.68,116.28c.3-.14.23-.65.43-.9.13-.65.28-.9.26-1.58,0,.06.12.02.04,0-.15-.15-.05-.44.04-.58-.1-.46-.06-.95-.39-1.52-.15-.04-.27-.03-.36.08.01-.11-.09-.1-.17-.12,0,.1.01.2-.08.2-.35-.03-.55.4-.47.91-.04,0-.08,0-.13,0,.07.3-.12.46-.19.57-.1.18-.09.56-.18.81-.02.04-.11.03-.12.05-.05.07-.03.23-.04.24-.02.01-.11-.02-.11,0-.07.14,0,.35-.2.41,0,.08.07.07.09.12-.2.12-.28.34-.4.53-.19-.1-.39.1-.44.25-.31.15-.62.31-.84.55-.08-.08-.07.03-.2,0-.14.25-.52.36-.84.42-.47.07-1.05.22-1.5.02-.06,0-.03.09-.08.09-.53-.23-1.06-.46-1.48-.82-.17.06-.46-.13-.53-.31-.88-.12-1.22-.8-1.81-1.23,0-.2-.13-.25-.13-.43-.45-.25-.55-.87-.84-1.29-.1-.58-.35-.99-.56-1.45-.2-1.32-.82-2.21-1.03-3.52-.05-.07-.08-.16-.17-.19-.04-.89-.63-2.12-.34-3.08-.02-.11-.14-.12-.09-.28.21-1.14.08-2.54.22-3.78.02-.21-.11-.56.15-.69.05-.13-.13-.03-.08-.16.18-.79.18-1.73.44-2.44.31-1.33.81-2.47,1.44-3.47,0-.29.11-.48.32-.58.03-.26.15-.43.35-.54.09-.47.57-.57.63-1.06.29-.26.48-.63.76-.9.58-.34,1.07-.75,1.81-.94.28-.06.46.1.57,0,1.12.07,1.71.82,1.58,1.96-.01.1.18-.03.12.12-.23.22-.07.55-.14.89-.05.27-.24.48-.28.69-.08.46-.06,1.02.28,1.38.07.7.79.78,1.52.7.72-.39,1.12-.95,1.21-1.89.11-1.14.02-2.32-.22-3.41-.18-.09-.15-.42-.17-.68-.16-.14-.2-.39-.21-.68-.31-.39-.57-1.03-1.16-.99-.05-.23-.47-.31-.57-.24-.59-.47-1.31-.21-2.07-.24-.27.4-.85.24-1.05.5-.14.06-.04-.13-.16-.07-1.16.74-2.44,1.37-3.28,2.41.05,0,.09,0,.08.08-.3.05-.37.32-.55.5-.28.09-.34.38-.48.61-.46.35-.6.86-.79,1.52-.28.13-.23.6-.47.78-.11.56-.38.95-.38,1.63-.22.79-.5,1.79-.6,2.73-.07.72.08,1.4-.12,1.96-.02.07.06.08.08.12-.22.33,0,1.07-.26,1.39.18.16-.08.29.09.44-.23.37.04.95-.22,1.27.23.51.06.98.03,1.42,0,.06.09.09.09.16,0,.34-.04.68-.07.93.14,1.62.29,2.9.41,4.37.05.04.09.08.13.12-.04.39.11.58.1.93.26.62.36,1.43.68,1.98.42,1.62,1.34,2.72,2.03,4.06.04,0,.11,0,.12.04.66.98,1.38,1.91,2.56,2.35.02.05.06.07.04.16,1.17.56,3.01.78,4.6.68.72-.04,1.05-.53,1.57-.64.18-.25.44-.42.64-.66,0,.06.02.09.08.08.41-.59,1.05-.96,1.18-1.82.06,0,.09.03.12.05,0-.53.23-.62.23-1.06h0ZM120.3,94.23c-.15-.23-.15.32-.16.36-.31.4-.63.8-.95,1.2-.54.25-1.37.17-1.99.16-.13-.18-.26-.33-.57-.4-.25-.36-.46-.76-.56-1.28,0-.06-.07-.04-.12-.05.1-.1.09-.34-.01-.44.12-.28.09-.77.1-1.07.31-.24.17-.86.22-1.26-.05,0-.04.05-.04.09.03-.43-.1-.74-.18-1.18-.01-.09-.2-.02-.17-.15-.97-.15-1.71.52-2.22.69-.05.01-.03.1-.03.16-.26.09-.47.24-.52.54-.08.01-.13,0-.13-.08-.05.11,0,.35-.24.38.04.13-.06.15-.03.28-.39.18-.53.82-.84.95-.05.3-.09.72-.22,1.1-.21-.11-.05.18-.28.21,0,.04.06.03.08.04-.44.78-.8,1.65-1.13,2.54-.02.09.08.06.09.12-.21.25-.19.92-.43,1.27.15.16-.05.16.1.32.04.13-.13.06-.11.16-.08,1.19-.33,1.97-.07,3.16,0,.28.07.63-.1.74-.04.74.1.88.23,1.49-.16.06-.13-.09-.24-.07-.09.06-.05.31.04.33.06,1.08.16,2.3.43,3.29.38,1.6.97,2.98,1.47,4.46.03.05.08.09.13.13.22,1.16.95,1.79,1.59,2.52.13-.01.18.07.32.03.36.58.89.49,1.32.95.81.27,1.72.31,2.52.16.31-.22.51-.55.85-.75.36-.55.89-.95,1.27-1.49-.06-.25.11-.29.06-.53.05,0,.09,0,.13,0,.04-.53.33-.8.26-1.42.18-.09.26-.25.44-.34.05-.16-.12-.08-.09-.2.13.03.06-.13.08-.21.36-.14.84.26,1.18-.02.06-.03.07.03.08.07.13.03.06-.13.16-.13.59-.03,1.2-.09,1.31.38-.17.96-.04,2.13-.06,3.04-.04,0-.09,0-.12,0,0,.04.07.03.12.04-.18.29-.13.86-.22,1.39-.07.43-.34.83-.29,1.22-.06,0-.11,0-.17,0,.01.17-.06.27-.03.45-.11.04-.07-.08-.08-.16.04.15-.19.3-.03.37-.15.17-.42.24-.4.57-.33.1-.56.29-.68.58-.15,0-.16.01-.32,0-.09.01-.08.1-.08.21-.16-.04-.35.22-.39.42-.19-.08-.27.16-.36.29-.15,0-.21.05-.28.01-.15.62-.95.62-1.44.91-.06-.09-.91.15-1.1-.06-.14.14-.47.08-.44,0-.07.08-.35.17-.37-.03-.07.15-.21.04-.29.05-.04,0-.01.09-.07.09-.18-.02-.29-.13-.61-.16-.27-.02-.67.11-.77-.11-.37,0-.63.02-.78-.14-.27.07-.37-.14-.57-.04-.29-.29-.88-.27-1.07-.67-.39,0-.35-.45-.78-.43-.1-.22-.22-.43-.49-.47-.07-.18-.19-.31-.38-.36-.03-.25-.22-.34-.41-.44-.14-.24-.24-.52-.5-.64-.05-.11-.02-.28-.21-.24-.28-.84-.79-1.43-1.06-2.29-.22-.09-.22-.41-.46-.48-.01-.76-.48-1.04-.52-1.78-.13-.04-.09-.26-.25-.28-.07-1.05-.52-1.91-.5-2.91.03-.13-.11-.08-.13-.16.06-.59-.34-.77-.23-1.3-.06.01-.03.1-.04.16-.22-.54-.45-1.08-.24-1.7,0-.04-.07-.03-.12-.04.17-.79-.3-1.37-.12-2.23.05-.14-.13-.03-.09-.16-.04-.12.14-.03.09-.16-.23-.3,0-.93-.1-1.13.18-.42-.01-.74-.07-1.34.03-.02.06-.05.12-.04-.05-.73.1-1.25.08-1.91,0-.1.09-.09.13-.17-.09-.75.09-1.29.2-1.95.06.01.07-.04.12-.04-.13-.5.19-.8.13-1.39.07-.01.04-.13.17-.08.12-.3.22-.71.39-1.06.05-.13.18-.32.32-.37-.1-.03.03-.38.19-.41,0-.5.3-1.03.66-1.31.47-1.72,1.86-2.54,2.77-3.83.16-.04.31.04.32-.2.22-.04.39-.14.44-.34.4-.17.83-.32,1.09-.62.12.02.15-.04.24-.04.14-.26.61-.21.72-.5.12.07.2-.07.37,0,.27-.18.53-.25.89-.26.76-.43,1.97-.03,2.6,0,0,.08.11.04.08.15,1.05,0,1.29.84,1.85,1.35,0,.09,0,.19,0,.28.02.06.06-.01.12,0,.16.38.23.82.39,1.18.29,1.26.38,2.44.23,3.77-.19.09-.04.26-.08.49-.15-.16,0,.05-.03.21h0Z"/>
    <path class="cls-2" d="M125.63,117.22c-.04-.11.01-.31-.17-.28-.02.15.25.35.17.28h0ZM125.3,116.74c0-.24-.16-.31-.25-.44.04.19.14.33.25.44h0ZM143.92,116.23c-.08.29-.69.63-.96.54-.15.33-.45.08-.77.31-.06-.01-.05-.06-.04-.13-.19-.01-.13.22-.36.18,0-.06.05-.06.04-.12-.11.08-.23.13-.28-.03-.01.06,0,.14-.08.12-.04-.01-.04-.06-.04-.12-.22.07-.54-.03-.69-.15-.2-.03-.28-.01-.37-.07-.57-.35-.67-.8-.96-1.24.02,0,.1,0,.08-.04-.11-.27-.37-.51-.47-.89-.07-.3-.05-.61-.1-1.01-.24-.9-.13-2.22-.26-3.32-.3-1.06.01-2.56-.31-3.61-.19-.77.02-1.89-.25-2.6-.22-1.44-.21-3.05-.46-4.58.22-.38-.02-1.14.06-1.42-.26-.95-.18-1.81-.5-2.87,0-1.55-.54-2.69-.89-4.08-.04-.02-.09-.04-.11-.08-.4-1.45-1.56-2.11-2.5-3-.39.04-.59-.3-.93-.19,0-.06,0-.14-.09-.12-.06.02-.02.12-.16.09-1.26-.49-2.79-.56-4.27-.37-.15.33-.88.23-1.08.63-.04-.13-.37.21-.53.09-.21.25-.47.48-.68.67-.4.33-.94.62-1.24,1.04-.06.09-.23.11-.28.16-.02.03.02.12.01.16-.07.14-.27.25-.36.38-.21.3-.27.62-.31,1.05-.06.89-.2,2.32.3,2.8-.01.18.12.21.13.36.27.12.5.42.5.69.1.04.18-.13.25,0,0,.18-.21-.08-.21.13,0,.05-.05.05-.04.12.07,0,.14-.01.13.08.12-.09.15-.09.28,0,.42-.16,1.08-.07,1.41-.31.01-.19.19-.21.35-.24.18-.4.45-1.06.22-1.59-.05-.13.13-.04.08-.16-.22-.86-.57-1.59-.86-2.38.13-.48.11-1.1.55-1.27.95-.16,1.42-.78,2.62-.69.06,0,.03-.11.12-.09.92-.06,1.68-.09,2.32.28-.04.12.05.1.04.21.12-.03.14.07.28.03,0,.12.1.13.08.25.89.41,1.47,1.15,1.75,2.2.15-.07.06.02.2.03.13.9.76,1.52.65,2.46.06.04.18.03.17.16.05.11-.07.24,0,.24.07-.12.04.21.05.28.32.5.21,1.43.48,1.98.14,1.26.26,2.64.07,3.93-.2.21-.08.73-.1,1.1-.19.02-.31.22-.44.1-.07,0-.02.11-.08.12-.52-.04-1.17.42-1.62.44-.14.19-.34.32-.6.49-.23.16-.57.36-.72.3-.01.24-.3.34-.49.3-.11.23-.35.34-.64.41-.41.38-.99.59-1.24,1.12,0-.04-.06-.04-.12-.04-.33.38-.7.71-.99,1.12-.13-.03-.12.06-.24.04-.31.52-.93.75-1.16,1.36-.05,0-.06-.05-.12-.04-.3.64-.77,1.12-.99,1.84-.39.24-.42.82-.71,1.16,0,.09,0,.18,0,.28-.13-.03-.15.15-.08.21-.05.01-.08.05-.16.04-.02.13.14.05.08.2-.06.02-.1-.06-.12,0,.06.14-.04.47-.2.53-.03.11.06.1.04.19-.05.07-.09.15-.19.17-.27,2.02.65,3.65,1.67,4.8.06.09,0,.08.04.21.49.58.83,1.32,1.54,1.68.19,0,.33.03.41.15.58.02,1.15.12,1.54.13.11.03-.03-.19.08-.17.01.08-.04.21.08.17,0-.05,0-.12.04-.13.01,0-.01.12,0,.12.55.19,1.46-.15,2.08.12.03-.19.38.15.61-.09.17.14.18-.01.44.07.39-.13,1.14-.16,1.53-.55.36-.02.6-.46,1-.54.08-.1-.08-.21.16-.17.22-.65.82-.92.99-1.61.04-.03.11-.05.2-.04.08.07.12.18.25.2.11.3-.03.6-.11.85-.03.13.14.05.08.2-.25,1.05.06,1.57.17,2.55.18.03.19.23.21.4.35.38.77.69,1.47.7.43.25,1.09.09,1.67.06.37-.14.62-.3.88-.46.07-.04.21-.03.28-.08.18-.13.3-.32.47-.46.3-.23.43-.5.68-.74.06-.07.19-.07.24-.13.04-.04.03-.17.08-.24.15-.21.38-.31.35-.57.16.05.08-.12.21-.09,0-.06,0-.13,0-.2.11,0,.09.06.16-.01.34-.82.84-1.35.85-2.44.03-.06.13-.06.12-.16,0-1.08.52-2.19.03-2.97.03.2-.17.14-.2.18-.06.34-.38.7-.46,1.22-.06.36.06.83-.27,1.03.15.25-.29.28-.19.61-.15.07-.25.07-.32.13h0ZM138.76,102.97c.05.14.01-.12.13-.04,0,.15.03.33-.08.37.12.05.23.41.01.46,0,.04.07.03.11.03.04.88.05,2.05.14,2.93.28.63.04,1.49.29,2.14-.03.09.06.28-.08.25.02.06.12.03.09.16-.02.09-.09.14-.12.21.2.1-.06.36.17.52-.14-.26-.14.58.01.65.02.79.05,1.36.21,2.07-.14.1-.17.44,0,.48-.09.43.11.95.19,1.37.02.04-.09.03-.08.09,0,.09.22.59.34.76.48.73,1.66,1.23,2.45.61.13.02.12-.08.2,0,.05,0,.03-.08.04-.12.24-.11.61-.21.76-.5.22-.39.19-1.09.37-1.56.06-.12.21-.23.28-.36.26-.49.46-1.36,1.36-1.16.08,0,.11-.04.12.12.13.02.04-.14.2-.09,0,.21.11.27.25.32,0,.07.02.16-.04.17.57.39.24,1.97.33,2.59-.26.7-.14,1.41-.32,2.11-.04.14-.19.28-.24.41-.05.16-.01.38-.07.53-.04.09-.17.15-.2.25.02-.08.08.2,0,.32-.03.06-.14.06-.15.08-.06.1.04.15,0,.29-.02.1-.1.06-.11.12-.01.06.07.1.08.08-.02.04-.24.37-.36.33.15.36-.33.53-.35.74-.3-.01-.31.26-.6.26.03.04.09.03.08.12-.08.02-.12,0-.12-.08-.1.23-.44.21-.52.46-.11-.19-.05.13-.24.08.13-.22-.04.07-.11.13-.11-.02-.01-.03-.09-.13-.12-.03-.06.09-.07.17-.09-.08-.09-.06-.24-.04-.12.03.04.09,0,.16-.15.06-.08-.11-.21-.08-.05.01-.03.1-.04.16-.52-.07-.81.33-1.29.19-.05,0-.03.07-.04.13-.07.01-.08-.04-.08-.09-.28.28-.91,0-1.09.27-.98.01-2.87-.22-3.09-1.73-.07-.73-.31-1.21-.27-1.87-.22.12-.57.15-.57.38-.18,0-.32.03-.32.21-.44.05-.78.43-1.04.31-.05.19-.38.09-.41.29-.1,0-.04-.18-.2-.12-.02.09.06.08.12.08-.71.1-1.14.06-2.15.09-.04-.04-.03-.11-.09-.13-.5.33-1.4-.06-1.74.12-.07-.15-.2-.05-.29,0-.26-.13-.97.18-1.42-.21-.04.02-.04.09-.12.08-.44-.25-.96-.32-1.32-.79-.04.02-.04.1-.12.09-1.04-.66-1.68-1.73-2.44-2.68.06-.37-.35-.49-.27-1,0-.05-.08-.03-.12-.04-.02-1.19-.34-2.14-.06-3.28.04,0,.08,0,.12,0,0-.38.17-.59.35-.78.23-1.41,1.03-2.26,1.47-3.47.19-.04.23-.22.32-.37.08-.02.1-.09.21-.09.61-1.11,1.59-1.87,2.63-2.57-.06-.15.11-.08.07-.2.3-.09.56-.24.69-.5.75-.18,1.09-.76,1.65-1.12.74-.2,1.17-.68,1.93-.85.47-.28.88-.62,1.32-.93.51-2.82-.25-5.86-.89-8.35-.04.03-.04.1-.12.08-.1-.22-.03-.62-.26-.72-.2-.75-.55-1.37-1.13-1.73-.29-.54-.85-.8-1.44-1.03-.65.2-1.55.08-2.19.21-.31.18-.79.49-1.2.55-.08.34-.27.57-.48.78.13.99.58,1.6.74,2.47-.2.62.04,1.24-.17,1.79-.28-.06-.43.64-.64.5-.09,0-.01.15-.04.2-.14-.07-.15.2-.16,0-.05.27-.37.29-.52.45-.09.03-.06-.07-.12-.08-.46.17-.98.27-1.38-.01-.11-.03-.11.06-.21.04-.13-.12-.24-.27-.44-.19-.33-.33-.86-.43-.87-1.08-.4-.68-.58-2.39-.23-3.28.02-.09-.08-.06-.08-.13.2-.67.24-1.48.78-1.84.12-.47.56-.62.75-1.03.21-.07.32-.24.56-.38.27-.14.55-.31.52-.66.08-.15-.01.22.09.21.24-.25.78-.51.89-.38.31-.18.4-.33.8-.38.07-.02.13-.21.04-.24.23-.39.95-.14,1.17-.39.41.03.91-.14,1.18.06.02-.11.2-.11.24,0,.09-.18.13.07.2-.09.25.16.8.02,1.02.22,1.36.02,2.34.61,3.31,1.15-.04.25.13.04.08.32.12-.07.11-.08.28-.05.07.35.48.32.54.68.04,0,.04-.04.05-.07.45.47,1.05,1.03,1.17,1.72,0,.04.07.03.12.04.3.84.5,1.79,1.02,2.41.15,1.14.44,2.01.3,2.88.12,2.19.71,4.07.56,6.36.22-.27.08.44.18.52-.11-.03-.08.08-.13.12h0Z"/>
    <path class="cls-2" d="M92.75,90.92c-.52.4-.62,1.21-1.03,1.72-.03.24-.11.55-.31.5-.05.13.13.03.08.16-.62,1.23-1.08,2.6-1.22,4.29-.2.36-.09.9-.18,1.38-.06.34-.27.65-.15.82-.35,1.31-.27,2.75-.49,4.19,0,.05-.06.06-.08.12-.16.47.07,1.13-.05,1.62-.3,1.33-.06,3.32-.2,4.63.27,1.22.1,3.02.57,4.17-.02.4.05.7.22.89,0,.12,0,.25,0,.37.14.13.17.37.21.6.4.43.48,1.18.89,1.61.48,1.24,1.53,1.89,2.36,2.76.44.06.54.47,1.1.42.08.17.36.15.61.15,1.39.26,3.62.23,4.7-.62.99-.47,1.62-1.28,2.23-2.11.04-.16.04-.36.2-.4.01-.37.16-.61.34-.82.06-.59.48-.85.42-1.55.26-1.14.25-2.2.55-3.34-.14-.12-.07-.29,0-.45-.1-.21,0-.15-.09-.31.07-.03.06-.13.12-.17-.11-.42.05-.85.06-1.3.01-.79-.18-1.68-.04-2.38.02-.11.2-.36,0-.49.18-1.54.03-2.88.03-4.75-.02-.08-.09-.11-.13-.16.14-.78-.18-1.57-.11-2.31-.25-.15-.12-.44-.14-.69-.04-.47-.33-.96-.31-1.49-.15-.19-.16-.54-.18-.88-.48-1.99-.99-3.69-1.84-5.29,0-.06.07-.04.08-.08-.15,0-.14-.16-.25-.2-.03-.34-.18-.56-.37-.72-.04-.09-.09-.16-.08-.28-.49-.48-.93-1.03-1.61-1.31-.02-.07-.09-.09-.09-.2-.47-.08-.72-.38-1.1-.55-.2.01-.15.26-.4.22.04-.1.09-.18.08-.33-.31-.1-.65-.15-.9-.31,0,.07,0,.14-.08.12.03-.14-.04-.18-.12-.2-.02.07.12.16,0,.21-.14-.03-.43-.01-.66.05-.32.09-.45.12-.48.3-.06,0-.03-.1-.12-.08.02.16-.05.22-.16.25.05-.08-.07-.19-.07-.08.11.03-.05.09-.01.16-.25-.06-.35.37-.63.42-.08.44-.51.55-.59.98-.29.12-.33.49-.55.66,0-.04-.02-.09-.04-.03.01.05.06.08.04.16h0ZM99.93,121.15c-1.3.58-2.86.79-4.54.65-.27-.02-.58-.1-.81-.19-.23-.09-.56-.21-.82-.3-.08.01-.07-.06-.07-.12-.21.03-.24-.12-.41-.12-.66-.66-1.51-1.12-2.02-1.95-.05,0-.11,0-.17,0-.04-.23-.07-.48-.33-.48-.03-.09.07-.06.08-.13-.09-.02-.11-.12-.24-.11-.09-.28-.13-.61-.38-.72-.16-.99-.91-1.38-.91-2.54-.38-.8-.6-2.36-.55-3.6-.03-.08-.06-.16-.12-.2.13-.83-.32-2.1.02-2.97-.2-.14,0-.29.03-.45.11-.59-.14-1.59,0-2.35.02-.08.07-.07.08-.12,0-.1-.09-.22-.09-.32.02-.27.05-.52.07-.81.01-.38.13-.72.18-1.06.03-.27-.1-.58.15-.65-.13-.14-.11-.35-.09-.56.04-.46.16-1.07.3-1.4.1-1.61.39-2.91.53-4.34.07,0,.08-.06.16-.05.01-.62.21-1.15.29-1.83.3-.03.08-.42.32-.44.08-.01-.05-.15,0-.25.05,0,.1,0,.16,0,.05-.94.64-1.37.81-2.2.07,0,.08-.06.16-.04-.11-.35.36-.44.36-.82.39-.2.45-.73.83-.95,0-.09.07-.12.03-.24.4-.4.72-.88,1.11-1.28.33-.16.69-.3.92-.55.76-.15,1.45-.13,2.08.08.11.13.26.22.49.23,0,.04,0,.08,0,.12.28.04.51.13.62.35.05,0,.03-.07.04-.12.44.23.76.59,1.27.75,0,.13.13.11.09.28.26-.14.33.27.53.19.51.7,1.18,1.23,1.39,2.24.33.29.35.91.67,1.21,0,.22.03.33.17.49h-.08c.29.19.24.72.46.96.35,1.41.74,2.53.89,4.12.23.29.06.95.31,1.17.11.61-.03,1.05.22,1.45.16,2.11.16,4.85.13,6.7-.04,0-.08,0-.12,0,.03.04.07.06.12.08-.12.59.1,1.64-.09,1.87.01.16.02.32,0,.4-.13.64.05,1.51-.03,2.2-.1.87-.2,1.76-.32,2.56-.08.54-.16,1.09-.42,1.56.15.58-.63,1.05-.54,1.63-.24,0-.24.27-.24.53-.04-.03-.04-.09-.12-.07-.32.94-1.28,1.43-1.87,2.18-.12.01-.27-.02-.33.05-.05.01-.04.08,0,.08-.15.14-.45-.01-.36.21h0Z"/>
    <path class="cls-2" d="M121.45,117.34s-.06-.04-.12-.04c-.14.85-.77,1.22-1.19,1.81-.06.01-.07-.03-.08-.08-.2.24-.46.41-.64.66-.53.11-.85.59-1.57.64-1.59.1-3.43-.12-4.6-.68.01-.09-.02-.11-.04-.16-1.18-.44-1.91-1.37-2.56-2.35,0-.04-.07-.03-.12-.04-.69-1.34-1.61-2.44-2.03-4.06-.33-.55-.42-1.36-.68-1.98.01-.35-.13-.55-.1-.93-.04-.04-.08-.08-.13-.12-.12-1.48-.27-2.76-.41-4.37.03-.25.06-.59.07-.93,0-.06-.09-.09-.08-.16.03-.44.2-.91-.03-1.42.26-.32,0-.9.22-1.27-.17-.15.09-.28-.09-.45.25-.31.04-1.05.26-1.38-.02-.04-.1-.04-.08-.12.2-.56.04-1.24.12-1.96.1-.94.38-1.94.6-2.73,0-.68.27-1.07.38-1.63.24-.18.19-.64.47-.78.19-.67.33-1.17.79-1.52.13-.23.2-.53.47-.61.18-.18.25-.45.55-.5.02-.07-.03-.08-.08-.08.84-1.04,2.12-1.67,3.28-2.41.13-.05.03.13.16.07.2-.27.78-.1,1.05-.5.76.03,1.49-.24,2.07.24.1-.07.52.02.57.24.58-.04.85.6,1.16.99.01.3.05.55.21.68.02.27,0,.59.17.68.25,1.09.34,2.27.22,3.41-.09.94-.5,1.5-1.21,1.89-.73.08-1.45,0-1.52-.7-.34-.35-.36-.92-.28-1.38.04-.21.23-.43.28-.69.07-.34-.09-.68.14-.89.06-.15-.14-.02-.12-.12.13-1.14-.46-1.89-1.58-1.97-.1.11-.28-.05-.56.01-.74.18-1.23.6-1.81.94-.28.27-.47.64-.76.9-.06.5-.54.6-.63,1.07-.2.1-.32.28-.35.54-.21.09-.31.29-.32.58-.63,1-1.13,2.14-1.44,3.47-.26.71-.26,1.65-.44,2.44-.05.13.13.03.08.16-.26.13-.13.49-.15.69-.14,1.24,0,2.64-.22,3.78-.05.16.07.17.09.28-.29.96.3,2.19.34,3.08.08.03.11.12.17.19.22,1.31.84,2.2,1.03,3.52.21.46.46.87.56,1.45.29.42.39,1.03.84,1.29,0,.19.13.24.13.43.58.44.92,1.11,1.81,1.23.07.19.36.37.53.32.41.36.94.58,1.47.81.05,0,.03-.08.08-.08.45.19,1.03.05,1.5-.02.32-.06.71-.17.84-.42.13.02.12-.07.2,0,.22-.24.53-.4.84-.55.06-.16.25-.35.44-.26.12-.19.2-.42.4-.53-.03-.04-.1-.04-.09-.12.2-.06.13-.27.2-.41,0-.03.1.01.11,0,.02-.01-.01-.17.04-.25.01-.01.11,0,.12-.04.09-.25.08-.64.18-.81.07-.11.26-.28.19-.57.05,0,.08,0,.13,0-.08-.5.11-.94.47-.91.09,0,.09-.1.08-.2.08.02.18.01.16.12.09-.11.21-.12.37-.08.34.58.3,1.07.39,1.52-.09.14-.19.43-.04.57.09.03-.04.06-.04,0,.02.68-.13.93-.26,1.58-.2.25-.13.76-.43.9,0,.45-.23.54-.23,1.06h0Z"/>
    <path class="cls-2" d="M70.99,88.81c-.07.09-.11.22-.28.12-.19.28-.37.78-.29,1.18.65.37,1.74.06,1.88.98-.01-.07.05-.1.08-.04.07.17-.22-.01-.16.16.03.54.15,1.35.19,1.67.27,1.9-.03,4.06.24,6.32.36.94.03,2.64.35,3.69.09,1.86.31,3.78.47,5.84-.15.11.07.12-.08.29.22.76.01,1.81.34,2.39-.05.24-.05.55-.11.77-.05.15.11.07.08.2.16,1.4-.06,2.91.09,4.46.01.19.12.41.13.61.03.5-.35.85-.27,1.3-.23.12-.14.52-.47.54.02.16-.05.25-.12.32-.11.03-.12.18-.32.14-.14.34-.44.55-.51.98-.24,0-.18.08-.31.12.06.13.2.18,0,.24.5.71,1.79.28,2.97.24.95.28,1.86-.04,3,.03,1.38-.33,2.83,0,4.05-.32,1.02.27,2.67-.11,3.66.17.65-.12,1.38.28,1.82-.03-.04-.12-.2-.12-.21-.28-.08-1.98.08-4.46-.12-6.24.14-.72.1-1.91-.13-2.6.05-.07.07-.62-.17-.64-.23.27-.31.87-.23,1.3-.02.06-.12.06-.11.17-.02.65-.38.99-.42,1.63-.34.45-.49,1.07-.75,1.6-.21.08-.24.32-.35.49-.25.15-.5.29-.64.54-.12-.12-.17.19-.25,0-.27.37-.79.51-1.07.87-.13,0-.23.1-.33,0-.05.02,0,.16-.08.16-.33.09-.58.2-.81.3-.13,0-.24,0-.36,0-.11.06-.4.19-.72.18-.25,0-.5-.2-.58-.07-.22-.19-.58-.25-.9-.35-.03-.16-.24-.13-.37-.19-.11-.27-.4-.37-.62-.52-.07-.25-.21-.42-.34-.61,0-.72-.33-1.4-.08-2.02,0-.07-.11-.03-.12-.08.3-.62-.24-1.37-.09-2.24-.33-.75-.16-2.03-.53-2.62.07-.19-.04-.4-.06-.7-.05-.8.06-1.63-.2-2.18.21-1.07-.09-2.4-.23-3.29.14.02.07-.17.11-.24-.27-.38.05-.92-.14-1.3.05-.34.1-.41-.01-.61.15-.25.1-.8.06-1.18-.18-1.61.03-3.47-.37-4.9.21-.36-.04-1.04.14-1.26-.07-.1-.15-.19-.17-.33.26-1.01-.14-1.91.02-2.64-.24-.25-.04-.63-.14-.97.56-.41,1.84.16,2.14-.57-.08-.09-.1-.25-.08-.45-.84-.32-1.94-.36-2.61-.43-.62-.06-1.5.09-2.04-.04-.13-.04-.08,0-.16,0-.1,0-.2-.1-.28-.11-.44-.04-1.08.07-1.38-.1,0-.02,0-.04-.04-.04-.17.18-.35.1-.65.18h0ZM85,114.78c.03-.07.04,0,.04.03.49-.8.71-1.85.91-2.93.06-.21-.09-.22-.08-.37.09-.16.08-.41.11-.61.32-.24.79,0,1.3-.06.2.13.26.41.49.51.06.41.17.75.14,1.26.09.08.16.41.01.49-.09,2.07.11,4.21.03,6.21-.02.74.23,1.52-.08,2.11.07.03.1.1.09.24-.11-.01-.14-.08-.13.09-.99-.06-1.81-.29-2.44-.16-.64-.32-1.75.12-2.39-.21-.09.18-.13-.07-.2.09-.1-.02-.14-.1-.24-.12-.29.24-.56-.13-1.01.14-.15.01-.16-.09-.25-.12-.08.01,0,.18-.12.17-.56-.12-1.7.21-2.08-.09-.42.26-.99.19-1.41.28-.16.03-.1-.15-.28-.08-.2.07-.39.13-.65.13-.15.06-.03-.14-.13-.12-.22.17-.78.25-.82.02-.05.14-.1.12-.2.16-.51-.04-.75-.03-1.5-.01-.1.02-.18,0-.17-.12-.15.21-.69.17-.73.02-.21.24-.51.03-.6.3-.13-.08-.41-.01-.37-.28-.32.13-.68-.36-1.06-.43.14-.87.83-1.22,1.1-1.97.43-.18.78-.61.88-1.16.05-.28-.08-.65.14-.89-.36-1.04-.22-2.66-.28-3.81-.01-.12-.1-.16-.16-.24,0-1.23.19-2.3.06-3.5-.14-1.22-.11-2.53-.36-3.81-.1-.92.01-2.02-.21-2.71.08-.09.14-.42-.01-.49-.06-.16.11-.08.08-.21-.29-.79-.06-2.18-.26-3.24-.44-1.76.04-4.18-.36-5.96-.09-.74.08-1.98-.33-2.52-.4-.08-1.11-.08-1.43-.26-.29-.15-.27-.5-.5-.72.02-.17-.07-.43.07-.49.05-.16-.12-.08-.09-.19.06-.27.2-.43.28-.67.2-.05.36-.12.6-.13,1.77-.66,3.64.27,5.77.01,1.1.32,2.7-.1,2.82,1.25-.14.19-.12.53-.19.78-.68.35-1.23.33-1.94.4-.08,1.85-.02,3.58.17,5.07.16,2.3.14,5.01.22,7.26,0,.17.02.41.13.56.03.73-.04,1.36.2,1.82.02,1.23.14,2.34.19,3.52.13.41.17.9.19,1.43.18.66.17,1.48.32,2.06.12.49.04,1.12.19,1.54.16.43-.07.98.23,1.37.05.06.11-.18.28-.13-.04.62.01,1.61.21,2.23.5.37,1.24.78,1.87.37.07-.02.08.02.08.07.11-.08.2-.17.32-.25.05.15.42-.17.57-.09.38-.19.69-.3,1.05-.59.46-.38,1.22-.8,1.56-1.4-.03-.16.03-.23.03-.37.27.01.35-.36.31-.53h0Z"/>
    <path class="cls-2" d="M128.48,110.75s-.08,0-.12,0c-.17,1.34-.37,2.21-.34,3.46.15.58.4,1.07.72,1.48.23.15.42.34.59.56,1.21.5,3.1.86,4.3.16.07,0,.04.1.13.08,0-.05-.02-.12.03-.12.31.02.33-.25.61-.25,0-.26.22-.32.52-.3.02-.3.36-.29.44-.61,0,.03,0,.08.04.08.29-.38.39-.55.59-.9-.1-.2-.04-.18,0-.4-.07-1.05-.33-3-.07-3.93-.27-1.08-.08-2.4-.3-3.21.02-.07.13-.04.07-.16-.2-.74-.17-1.21-.16-2.03-.14.05-.15-.16-.2-.19-.4-.23-1.16.04-1.37.15-.29.13-.71.28-.93.43-.48.36-.95.78-1.2,1.08-.34.07-.45.39-.8.46-.05.19-.19.3-.4.33-.2.62-.83.8-.95,1.48-.59.47-.75,1.35-1.14,2.01,0-.02-.04-.04-.04,0,.09.22-.11-.05,0,.35h0ZM144.24,116.1c-.09-.32.35-.35.19-.6.32-.21.21-.68.27-1.03.08-.52.4-.88.46-1.22.04-.04.24.03.21-.18.49.78-.03,1.89-.03,2.97,0,.1-.09.1-.12.16,0,1.09-.51,1.62-.85,2.44-.07.07-.05,0-.16.01,0,.07,0,.13,0,.2-.13-.03-.05.15-.21.09.03.26-.2.36-.35.57-.05.07-.04.21-.07.24-.06.06-.18.07-.24.13-.25.24-.38.51-.68.74-.17.13-.3.33-.48.46-.07.05-.21.04-.28.08-.25.16-.51.33-.88.46-.57.03-1.24.2-1.67-.05-.7-.01-1.12-.32-1.47-.7-.03-.18-.04-.38-.21-.4-.11-.99-.43-1.51-.18-2.56.06-.15-.11-.08-.08-.2.07-.25.21-.55.11-.85-.13-.02-.17-.13-.25-.2-.09-.01-.16.01-.2.04-.17.68-.77.96-.99,1.61-.23-.04-.07.06-.16.16-.41.09-.65.53-1,.55-.39.39-1.14.42-1.53.55-.26-.09-.27.07-.44-.07-.23.24-.58-.1-.61.09-.61-.27-1.53.07-2.08-.12,0,0,.01-.12,0-.12-.05,0-.03.07-.04.12-.12.04-.07-.09-.08-.16-.11-.02.03.19-.08.16-.4-.01-.97-.11-1.54-.13-.08-.12-.22-.15-.41-.15-.71-.37-1.05-1.09-1.53-1.68-.05-.13.01-.11-.04-.21-1.02-1.15-1.95-2.78-1.67-4.8.1-.03.14-.1.19-.17.02-.1-.07-.09-.04-.2.15-.06.26-.39.2-.53.01-.07.06.02.12,0,.06-.15-.11-.08-.09-.21.09.02.11-.03.16-.04-.07-.06-.05-.23.08-.21,0-.1,0-.19,0-.28.29-.34.32-.92.71-1.16.21-.72.69-1.2.99-1.84.06-.01.06.04.12.04.22-.61.84-.84,1.16-1.36.12.03.11-.07.24-.04.3-.41.67-.74.99-1.12.06-.01.11-.01.12.03.25-.53.83-.74,1.24-1.12.29-.07.53-.18.64-.41.19.05.48-.05.49-.3.15.07.49-.14.72-.3.27-.17.46-.3.6-.49.45-.02,1.1-.49,1.62-.44.06,0,.02-.12.08-.12.13.12.25-.07.44-.09.03-.37-.11-.9.1-1.1.19-1.29.07-2.67-.07-3.93-.28-.55-.16-1.49-.48-1.98-.01-.08.02-.4-.05-.28-.07,0,.05-.13,0-.24.01-.13-.11-.12-.17-.16.11-.94-.51-1.56-.65-2.46-.13-.01-.06-.11-.2-.03-.28-1.05-.86-1.79-1.75-2.21.01-.1-.09-.12-.08-.23-.14.03-.16-.06-.29-.04.02-.1-.07-.08-.04-.21-.64-.37-1.41-.34-2.32-.28-.09-.02-.06.09-.12.1-1.2-.09-1.67.53-2.62.69-.44.16-.42.78-.55,1.26.29.81.64,1.52.86,2.38.05.13-.13.03-.07.17.23.53-.04,1.18-.21,1.59-.17.03-.34.05-.36.24-.34.24-1,.15-1.42.31-.14-.08-.16-.08-.29,0,.02-.09-.06-.09-.13-.08,0-.06.04-.07.04-.12,0-.21.2.06.2-.12-.06-.13-.14.04-.24,0,0-.27-.23-.56-.5-.68,0-.15-.13-.18-.12-.36-.5-.49-.35-1.91-.3-2.8.03-.44.09-.76.3-1.05.09-.13.3-.24.36-.38.01-.04-.03-.13-.01-.17.05-.05.22-.06.28-.16.3-.42.84-.7,1.24-1.03.21-.18.47-.41.68-.67.15.12.49-.22.53-.09.2-.4.92-.3,1.08-.63,1.47-.18,3-.12,4.26.36.14.04.1-.06.16-.08.09-.02.08.05.09.12.34-.12.54.22.93.19.94.89,2.1,1.55,2.5,3,.03.04.07.06.11.08.35,1.39.88,2.53.89,4.08.32,1.06.25,1.91.5,2.87-.07.28.16,1.04-.05,1.42.25,1.52.23,3.14.46,4.58.26.71.05,1.83.25,2.6.33,1.05.01,2.55.31,3.61.13,1.1.01,2.42.26,3.32.05.4.03.71.1,1.01.1.37.35.62.46.89.01.03-.06.04-.08.04.28.44.39.89.96,1.24.1.06.17.04.37.07.16.12.47.22.69.15,0,.06,0,.11.04.12.09.02.08-.06.08-.12.05.16.18.12.29.04.02.06-.04.07-.04.12.23.05.17-.19.36-.18,0,.06-.01.11.05.13.31-.22.62.02.76-.31.27.09.88-.25.96-.54.08-.06.17-.06.32-.13h0Z"/>
    <path class="cls-2" d="M98.3,116.43c-.03-.32.16-.41.27-.57.03-.13-.06-.12-.04-.24.18-.2.59-.55.35-.78.07,0,.14,0,.21,0-.12-.43.24-.54.15-.82.06,0,.03.1.12.08.2-.11-.13-.28.03-.45-.03.15.14.03.17,0-.16.05-.21-.22-.13-.28,0,.07.04.09.12.08,0-.71.22-1.4.21-1.79,0,.03,0,.08-.04.08.06-.21.2-.21.08-.4.42-.86.12-2.67.3-4.06.05-.48.25-1.3.05-1.43.1-.47.22-.83.06-1.3.13-.38.1-1.07.06-1.5.18-.6-.07-1.71.16-2.32-.18-.01.09-.27-.09-.41.16-.12-.1-.34.07-.4-.05-.2-.11-.42-.01-.65-.17.02-.06-.2,0-.21-.2,0,0-.18,0-.24-.14-.24-.06-1.43-.33-2.27.13-.08-.06-.25-.09-.49-.04-.26.1-.69-.09-.77-.04-1.11-.35-1.69-.78-2.37-.11-.62-.85-.93-1.24-1.4-.08,0-.16,0-.24,0,.03-.21-.28-.05-.25-.28-.25.07-.32-.12-.53-.2,0,.06,0,.13-.04.13-.01-.01,0-.12,0-.12-.24-.07-.9.02-1.31-.1-.14.19-.4.27-.64.38,0,.09,0,.16,0,.24.08.01.08-.06.12-.08-.02.15.09.15.09.29-.71.71-1.67,1.38-1.82,2.5-.21,0-.13.59-.35.7,0,.26-.12.38-.07.69-.33.17-.2.78-.46,1.02-.34,1.57-.53,3.55-.76,5.41.33,1.53-.09,4.03.35,5.67-.23.24.1.68-.06.87.21,1.89.45,3.63.83,5.25.01.08.14.03.12.12.03.49.23.7.35,1.01.33.86.58,1.92,1.34,2.12.11.23.42.42.73.31.01.24.4.09.42.32.17-.03.16,0,.32-.05.44.26.8-.13,1.3-.31.06-.03,0-.15.07-.17.01.06.02.1.08.08.01-.19.19-.26.28-.16-.07-.27.19-.25.15-.45.14,0,.18-.1.33-.08.09-.22-.16-.13.11-.21h0ZM92.71,90.76c.02-.06.04,0,.04.03.22-.17.26-.55.55-.66.08-.43.51-.53.59-.98.29-.04.38-.47.63-.42-.03-.07.13-.13.01-.16,0-.11.13,0,.08.08.11-.03.18-.09.16-.24.09-.02.06.08.12.08.04-.18.16-.21.48-.3.23-.06.52-.07.66-.05.11-.04-.03-.13,0-.21.08.03.15.06.13.2.08.02.08-.06.08-.12.24.16.59.21.9.31.01.15-.04.23-.08.33.26.04.2-.21.41-.22.38.17.63.47,1.1.55,0,.1.07.12.09.2.68.28,1.12.83,1.61,1.31,0,.12.05.19.09.28.2.16.35.38.38.72.12.03.1.2.25.2-.01.04-.08.02-.08.08.85,1.6,1.36,3.3,1.84,5.28.01.35.03.69.18.89-.01.54.27,1.02.31,1.49.02.26-.11.55.14.69-.06.74.26,1.53.11,2.31.05.05.12.08.13.16,0,1.86.15,3.21-.03,4.75.21.13.03.38,0,.49-.13.7.06,1.59.04,2.38,0,.45-.16.88-.05,1.3-.06.04-.05.14-.12.17.09.16-.01.1.09.31-.06.16-.13.32,0,.45-.3,1.14-.28,2.2-.55,3.34.06.7-.35.96-.42,1.55-.18.21-.33.44-.34.82-.16.05-.16.24-.2.4-.61.83-1.25,1.64-2.24,2.11-1.07.84-3.3.88-4.69.62-.26,0-.53.02-.62-.15-.56.05-.66-.36-1.1-.42-.84-.87-1.88-1.52-2.36-2.76-.41-.43-.49-1.17-.89-1.61-.04-.23-.07-.47-.21-.6,0-.12,0-.25,0-.37-.17-.19-.24-.49-.22-.89-.47-1.15-.29-2.96-.57-4.17.14-1.31-.1-3.3.2-4.63.12-.49-.11-1.15.05-1.62.02-.07.07-.07.08-.12.21-1.45.14-2.88.48-4.19-.12-.17.09-.47.15-.82.09-.48-.02-1.03.17-1.38.14-1.69.6-3.06,1.22-4.29.05-.12-.13-.02-.08-.16.2.05.28-.26.31-.49.4-.52.5-1.32,1.02-1.73.02-.08-.03-.11-.04-.16h0Z"/>
    <path class="cls-2" d="M95.69,91.92c-.03.12-.12.2-.19.29-.13.03-.06-.14-.17-.04-.05.16-.19.44-.39.58,0,0-.18.01-.17,0-.07.09-.02.25-.11.29.09-.03-.13-.28-.04.04-.11.06-.2-.01-.32.08-.01.56-.57.67-.55,1.4-.09.04-.14-.11-.16,0,.05.22-.07.63-.22.78-.02-.07.11-.21,0-.24-.17.09-.03.3.04.36-.16.19-.13.43-.23.74,0-.04-.01-.09-.08-.07.02.52-.34,1.05-.26,1.38-.27.49-.19,1.54-.45,2.24.08.34-.06.68-.1,1.01-.19,1.35-.04,2.88-.01,4.39.02.87.13,1.74.13,2.63.21.78.04,1.95.29,2.68,0,.06-.1.03-.07.12.2,1.16.34,2.34.62,3.44.06.19.2.34.26.53.18.53.31,1.06.6,1.49-.02.21.08.3.08.49.25.09.35.33.5.52.59.24,1.29.66,2.08.32.47-.62,1.3-1.12,1.39-1.98.05,0,.05.06.12.05.23-.76.61-1.33.6-2.22.24-.57.39-1.55.33-2.03.2-1,.28-2.23.3-3.29.01-.38,0-.5-.01-.78.13-.49.16-1.74.16-2.52,0-.25-.16-1.1.1-.86.07-.21-.14-.1-.13-.24.14-.17-.1-.3.08-.53-.15-.06-.05-.19-.01-.29,0-.06-.1-.03-.08-.11.32-2.29-.03-4.76-.21-6.98-.04-.03-.14-.01-.13-.12-.03-1.07-.4-1.98-.78-2.5-.35-.49-.77-1.06-1.32-1.33,0,.01-.01.1-.03.09-.1-.04-.39-.28-.57-.2-.09.13-.12.31-.24.41-.08-.15-.25-.18-.32-.16.1.1-.2.22-.33.13h0ZM98.19,116.64c-.15-.01-.2.07-.33.08.04.2-.22.19-.15.45-.1-.1-.27-.03-.28.16-.07.03-.07-.02-.09-.08-.07.01-.02.14-.07.17-.49.18-.85.57-1.29.31-.16.05-.15.01-.32.05-.02-.22-.41-.07-.41-.32-.31.11-.62-.08-.73-.31-.76-.21-1.01-1.27-1.34-2.12-.13-.31-.32-.52-.35-1.01.02-.09-.11-.04-.12-.12-.38-1.61-.62-3.37-.83-5.25.16-.18-.17-.62.06-.86-.44-1.64-.02-4.15-.35-5.67.23-1.86.42-3.84.76-5.41.26-.24.14-.85.46-1.02-.05-.31.07-.44.07-.69.23-.11.14-.71.35-.7.15-1.12,1.12-1.8,1.82-2.5,0-.13-.11-.14-.09-.29-.04.03-.04.09-.12.08,0-.08,0-.15,0-.24.23-.11.5-.18.64-.38.41.12,1.07.03,1.31.1,0,0-.01.11,0,.12.05,0,.03-.07.04-.13.21.08.28.27.53.2-.03.22.27.07.25.28.08,0,.16,0,.24,0,.39.47,1.13.78,1.24,1.4.43.68.75,1.27.78,2.37.19.07.06.5.09.77.03.24.22.41.09.49.27.84.19,2.04.33,2.27,0,.06-.2.23,0,.24-.06.01-.16.23,0,.21-.1.23-.04.45.01.65-.18.06.08.28-.08.4.18.14-.09.4.09.41-.23.61.02,1.73-.16,2.32.05.43.08,1.12-.06,1.5.16.47.04.83-.06,1.3.2.12,0,.95-.04,1.43-.18,1.39.12,3.2-.3,4.06.12.19-.02.19-.08.4.04,0,.04-.04.04-.08,0,.4-.2,1.08-.21,1.79-.08.01-.13-.01-.13-.08-.07.06-.03.33.14.28-.03.04-.2.15-.17,0-.15.16.17.34-.03.45-.09.02-.06-.08-.12-.08.09.28-.26.38-.14.82-.06,0-.14,0-.21,0,.24.22-.17.58-.35.78-.02.12.07.12.04.24-.12.16-.31.25-.27.57-.27.08-.02-.01-.11.21h0Z"/>
    <path class="cls-2" d="M133.65,105.5c-.18.31-.45.54-.84.67-.15.33-.54.46-.67.83-.25.08-.29.37-.57.41-.18.39-.38.75-.71.99-.38,1.13-1.25,1.78-1.53,3.03-.07.01-.13.03-.15.09-.18.64-.05,1.79-.24,2.53.21.21.05.55.18.93.2.28.34.6.55.88.75.34,1.76.56,2.64.24.27,0,.54,0,.77-.06.67-.45,1.3-.83,1.84-1.33,0-.21.13-.3.16-.49-.08-.15-.15-.4-.01-.53.03-.13-.14-.05-.09-.2.08-.25.11-1,.06-1.51-.02-.16-.14-.49-.17-.73-.09-.75-.02-1.59-.25-2.34-.15-.5-.02-1.12-.04-1.71,0-.17-.1-.31-.09-.48.02-.12.11-.2.13-.29,0-.15-.11-.24-.13-.44-.03-.22.08-.5-.1-.73-.27.04-.49.42-.73.26h0ZM128.47,110.39s.04-.02.04,0c.38-.66.54-1.54,1.14-2.01.12-.68.75-.87.95-1.48.21-.03.35-.14.4-.33.35-.07.46-.38.8-.46.24-.3.71-.72,1.2-1.08.22-.15.64-.29.93-.43.21-.1.97-.38,1.37-.15.06.04.06.25.2.2,0,.82-.03,1.28.17,2.02.05.12-.06.1-.07.16.23.81.03,2.14.3,3.2-.26.94,0,2.88.07,3.93-.03.23-.09.21,0,.41-.21.35-.3.52-.6.91-.04,0-.03-.06-.04-.09-.08.32-.42.32-.44.62-.3-.02-.51.03-.52.3-.28,0-.29.27-.61.25-.05,0-.03.07-.04.12-.09.02-.06-.08-.12-.08-1.2.71-3.09.34-4.3-.16-.17-.22-.36-.41-.59-.56-.31-.41-.57-.9-.72-1.48-.03-1.26.17-2.13.34-3.46.04,0,.09,0,.12,0-.12-.42.09-.13,0-.36h0Z"/>
    <path class="cls-2" d="M71.64,88.64s.05.01.04.04c.3.17.94.05,1.38.09.09.02.19.12.28.12.09,0,.04-.04.16,0,.54.13,1.41-.01,2.04.04.67.07,1.77.11,2.61.43-.02.2,0,.37.08.45-.3.72-1.58.15-2.14.57.1.34-.1.72.14.97-.16.72.23,1.63-.02,2.64.02.14.09.22.17.32-.18.22.07.91-.14,1.26.4,1.43.19,3.3.37,4.91.05.38.09.93-.06,1.18.11.2.06.27.01.61.19.38-.13.92.14,1.3-.05.07.03.26-.11.24.13.89.43,2.22.23,3.29.26.55.15,1.39.2,2.18.02.3.13.5.06.7.38.59.2,1.87.53,2.63-.15.87.38,1.61.09,2.23,0,.05.12,0,.12.08-.25.62.08,1.3.08,2.02.13.18.27.36.34.61.23.15.51.25.62.52.13.05.34.03.37.19.32.1.68.16.9.35.08-.12.33.07.58.07.32.01.61-.12.72-.18.12,0,.24,0,.36,0,.23-.1.48-.21.81-.3.07,0,.03-.14.08-.16.1.09.2-.01.33,0,.28-.36.8-.51,1.07-.87.08.18.12-.13.25,0,.14-.25.39-.38.64-.54.11-.17.15-.41.35-.49.26-.53.4-1.15.75-1.6.04-.63.4-.97.42-1.63,0-.1.09-.1.11-.17-.08-.44,0-1.03.23-1.3.23.03.22.57.17.64.24.69.28,1.88.13,2.6.2,1.78.03,4.26.12,6.24,0,.17.16.16.21.28-.44.31-1.17-.08-1.82.03-.99-.28-2.64.1-3.66-.17-1.23.32-2.68-.01-4.05.31-1.14-.06-2.05.26-3-.03-1.18.05-2.47.49-2.97-.23.2-.06.06-.11,0-.24.14-.04.07-.13.31-.12.07-.43.37-.63.51-.98.2.04.21-.11.32-.14.07-.07.13-.16.12-.32.33-.02.24-.43.47-.54-.08-.45.29-.8.27-1.3-.01-.2-.12-.42-.13-.61-.16-1.56.07-3.07-.09-4.46.03-.12-.14-.05-.08-.2.07-.22.06-.53.11-.78-.32-.57-.12-1.63-.34-2.38.15-.16-.07-.18.08-.29-.16-2.05-.38-3.98-.47-5.84-.32-1.04,0-2.75-.35-3.69-.27-2.26.03-4.42-.24-6.32-.04-.32-.16-1.13-.19-1.67-.06-.17.23.01.16-.16-.03-.07-.09-.03-.08.04-.14-.92-1.22-.61-1.88-.97-.08-.41.11-.9.29-1.19.17.1.21-.04.28-.12.3-.07.48,0,.65-.18h0Z"/>
    <path class="cls-2" d="M146.15,87.19c-.07.09-.11.23-.28.13-.19.28-.38.77-.3,1.17.67.38,1.74.07,1.88.99-.01-.07.05-.12.08-.04.07.16-.22,0-.17.16.04.53.16,1.34.2,1.66.27,1.9-.02,4.07.24,6.33.35.93.03,2.63.35,3.68.09,1.86.32,3.8.48,5.84-.15.12.06.12-.08.29.22.76.02,1.82.33,2.38-.05.25-.03.56-.1.78-.07.16.11.07.08.2.15,1.39-.06,2.9.08,4.47.02.19.12.4.13.59.03.5-.34.86-.25,1.3-.24.1-.15.53-.48.55.02.16-.05.24-.12.33-.11.03-.12.17-.32.13-.14.34-.44.55-.51.97-.25.01-.18.08-.32.14.06.12.21.18,0,.24.5.71,1.79.27,2.97.23.95.28,1.87-.03,3,.03,1.38-.33,2.83.01,4.06-.32,1.02.27,2.68-.11,3.66.18.65-.12,1.37.27,1.83-.03-.05-.12-.22-.11-.21-.28-.08-1.97.09-4.46-.12-6.25.14-.72.11-1.91-.13-2.59.05-.07.07-.62-.17-.65-.22.27-.31.87-.23,1.3-.02.06-.12.06-.11.16-.02.66-.37,1-.42,1.63-.34.44-.48,1.07-.74,1.6-.21.07-.24.32-.36.49-.25.15-.5.29-.64.54-.12-.13-.17.18-.24,0-.28.37-.79.52-1.08.87-.13,0-.23.1-.33,0-.05.03,0,.16-.08.16-.33.1-.57.2-.81.31-.12,0-.24,0-.36,0-.11.07-.4.19-.73.18-.24,0-.49-.2-.57-.07-.23-.2-.58-.26-.9-.35-.04-.16-.24-.14-.37-.19-.12-.25-.4-.35-.62-.52-.07-.25-.21-.41-.33-.6-.01-.72-.34-1.4-.08-2.03,0-.07-.11-.02-.13-.08.31-.62-.22-1.36-.08-2.23-.32-.75-.15-2.04-.54-2.63.07-.19-.04-.39-.05-.69-.05-.8.06-1.64-.2-2.19.2-1.08-.09-2.41-.23-3.29.14.01.07-.17.11-.24-.27-.38.04-.92-.14-1.3.05-.34.1-.41-.01-.61.15-.25.11-.8.06-1.18-.18-1.6.03-3.48-.38-4.91.21-.35-.03-1.03.14-1.26-.07-.09-.15-.18-.17-.32.27-1.02-.14-1.91.04-2.65-.24-.24-.05-.62-.14-.97.56-.41,1.84.16,2.14-.56-.08-.1-.11-.26-.09-.45-.84-.32-1.93-.37-2.61-.43-.63-.07-1.5.08-2.04-.04-.13-.03-.08,0-.16,0-.1,0-.19-.11-.29-.12-.44-.04-1.08.07-1.38-.1,0-.02,0-.04-.05-.03-.17.17-.35.1-.64.17h0ZM160.16,113.15c.02-.05.04,0,.04.04.48-.8.72-1.86.92-2.94.05-.21-.09-.22-.09-.37.09-.16.08-.41.11-.61.33-.24.8,0,1.3-.07.2.14.26.42.5.52.06.41.18.75.15,1.26.08.07.15.41,0,.48-.09,2.07.11,4.22.04,6.21-.03.73.23,1.51-.09,2.11.07.03.11.11.09.24-.11,0-.14-.08-.12.08-1-.06-1.82-.28-2.44-.15-.63-.34-1.74.12-2.39-.2-.1.18-.14-.08-.2.08-.11-.02-.14-.11-.25-.12-.28.24-.56-.13-1.01.14-.13.01-.15-.09-.24-.11-.09.01,0,.18-.12.16-.57-.12-1.7.22-2.07-.08-.43.25-1,.18-1.42.27-.16.04-.11-.14-.29-.07-.18.07-.38.14-.64.13-.15.07-.03-.13-.13-.12-.22.16-.78.25-.81.02-.05.15-.11.13-.21.16-.5-.06-.76-.04-1.5-.01-.11,0-.17-.02-.17-.12-.15.19-.69.16-.73,0-.21.24-.51.03-.61.3-.14-.09-.41-.01-.37-.28-.31.13-.68-.37-1.06-.42.15-.87.83-1.23,1.1-1.97.43-.18.77-.61.87-1.16.05-.28-.08-.66.14-.89-.36-1.04-.22-2.66-.27-3.81-.02-.12-.11-.16-.17-.24,0-1.23.19-2.29.06-3.5-.14-1.21-.1-2.53-.35-3.8-.11-.93,0-2.02-.22-2.72.09-.08.14-.42,0-.48-.06-.16.11-.08.07-.21-.29-.78-.05-2.18-.26-3.24-.44-1.75.05-4.18-.35-5.97-.08-.74.08-1.98-.33-2.51-.4-.08-1.11-.07-1.42-.26-.29-.16-.26-.51-.5-.72.01-.16-.07-.43.07-.49.06-.15-.11-.07-.08-.2.05-.25.19-.41.27-.65.2-.05.37-.13.61-.13,1.76-.66,3.64.27,5.77.01,1.11.32,2.7-.1,2.82,1.25-.13.18-.12.52-.19.77-.67.36-1.23.33-1.95.4-.07,1.85-.01,3.58.18,5.07.16,2.3.13,5.01.22,7.26,0,.18.01.41.13.57.03.73-.03,1.36.2,1.82.02,1.23.13,2.34.19,3.53.13.41.17.9.19,1.42.18.66.17,1.48.32,2.06.13.5.04,1.13.2,1.54.15.43-.08.98.23,1.37.04.07.11-.18.28-.12-.05.62,0,1.61.2,2.23.5.37,1.24.78,1.87.37.07-.02.08.02.09.07.1-.07.2-.18.32-.24.05.14.42-.19.56-.09.38-.2.7-.3,1.04-.59.47-.4,1.23-.81,1.56-1.41-.03-.16.03-.23.03-.37.28.01.36-.36.32-.54h0Z"/>
    <path class="cls-2" d="M146.8,87.02s.04.01.05.03c.3.17.93.05,1.38.1.1,0,.18.11.29.12.08,0,.03-.03.16,0,.53.12,1.41-.03,2.04.04.68.06,1.77.1,2.61.43-.02.19,0,.36.09.45-.31.72-1.58.15-2.14.56.09.35-.1.73.14.98-.17.72.23,1.62-.04,2.64.02.15.11.23.17.32-.17.23.06.91-.14,1.26.41,1.43.19,3.3.38,4.91.05.38.1.93-.06,1.18.11.2.06.27,0,.61.19.37-.12.92.14,1.3-.05.07.03.25-.11.24.13.89.43,2.21.23,3.29.26.55.15,1.39.2,2.19.01.3.12.49.05.69.39.58.21,1.88.54,2.63-.14.86.39,1.61.08,2.23.02.06.13.01.13.08-.26.62.07,1.31.08,2.03.12.19.26.36.33.6.22.16.5.26.62.52.13.06.34.03.37.19.31.09.66.16.9.35.08-.13.32.06.57.07.32.01.62-.12.73-.18.12,0,.24,0,.36,0,.24-.1.48-.21.81-.31.08,0,.02-.13.08-.16.1.1.2,0,.33,0,.28-.36.8-.5,1.08-.88.07.19.12-.12.25,0,.13-.25.38-.4.64-.54.11-.17.15-.42.36-.49.25-.53.4-1.15.74-1.6.05-.64.41-.97.42-1.63,0-.11.09-.1.11-.17-.08-.43,0-1.03.23-1.3.24.03.22.57.17.65.24.69.27,1.87.13,2.59.21,1.79.04,4.27.12,6.25,0,.17.16.16.22.28-.45.31-1.18-.08-1.83.04-.98-.29-2.64.09-3.66-.18-1.23.33-2.67,0-4.06.32-1.13-.06-2.05.25-3-.03-1.17.04-2.47.49-2.97-.23.21-.06.06-.12,0-.24.13-.06.07-.12.32-.13.07-.42.37-.62.51-.98.2.04.21-.1.32-.13.07-.07.14-.17.12-.32.33-.01.24-.44.48-.55-.08-.45.28-.81.25-1.3,0-.19-.11-.41-.13-.6-.15-1.56.07-3.07-.08-4.46.03-.13-.15-.04-.08-.2.06-.23.05-.53.1-.78-.31-.57-.11-1.62-.33-2.38.14-.16-.07-.17.08-.29-.16-2.04-.39-3.98-.48-5.84-.31-1.04,0-2.75-.35-3.68-.27-2.26.02-4.43-.24-6.33-.04-.32-.15-1.14-.2-1.66-.06-.17.24,0,.17-.16-.03-.07-.09-.03-.08.04-.14-.92-1.22-.62-1.88-.99-.08-.4.11-.9.3-1.18.17.1.21-.04.28-.13.3-.06.48,0,.64-.17h0Z"/>
    <path class="cls-2" d="M132.57,137.73c.63-.56,1.44-1.01,1.71-1.97.36-1.34-.29-3.84-1.05-4.79-.59-.74-1.6-1.1-2.66-1.18-.27,2.55-.04,6.33.18,8.37.66-.09,1.07-.45,1.83-.43h0ZM133.52,127.62c.58-.97.14-2.93-.78-3.39-.59-.3-1.3-.12-2.2-.29.11,1.86-.2,3.03.06,4.99,1.08-.06,2.35-.34,2.91-1.32h0ZM133.04,129.41c1.44,1.34,2.73,3.47,2.13,6.73-.25,1.35-1.2,2.54-2.57,2.79-.52.1-1.18-.09-1.72,0-.42.08-.77.43-1.08.46-1.1.13-1.6-.58-2.26-.89-.12-.18-.04-.57-.14-.78.43-.18.83.13,1.4.08.16-3.43.05-6.05.18-9.55.05-1.16.35-2.98,0-4.21-.12-.41-.41-.47-.62-.89.56-.73,2.19-.36,2.89-.46,1.49.08,2.21,1.03,3.3,1.73,1.18,1.73.34,4.68-1.5,4.99h0Z"/>
    <g>
      <path class="cls-2" d="M112.29,125.63c.01.75-.22,1.12-.45,1.47-.03.69.07,1.62-.11,1.94.07,1.69.22,3.37-.02,4.69.21.79.17,2.13.23,3.38.06,1-.21,2.1-.28,2.97-.85,0-.89-1.01-.68-1.76-.16-1.83-.13-4.72-.04-6.8-.22-.61-.11-3.1-.16-3.97,0-.1-.1-.17-.1-.16,0-.1.13-.4.12-.58-.02-.58-.32-1.2.04-1.27-.2-.44-.28-1.07-.53-1.45-.1-.25.26-.26,0-.28.18-.4.37-.77.5-1.25.31.04.31.08.57.12.09.55.21,1.06.44,1.45.15-.14.22-.39.47-.35.07-.22.12-.42.18-.65.83-.7,2.27-1.14,3.3-.31.16.1.04-.24.21-.14.3.73,1.78,1.72.76,2.59-.79-.61-1.96-1.22-2.78-1.38-.87.43-1.12.97-1.66,1.77h0Z"/>
      <path class="cls-2" d="M115.54,124.36s4.73,5.48-2.3,6.7l-1.59.5-.6,2.95,2.39-1.43,3.22-2.02s1.67-2.04,1.73-2.9c.06-.85-1.01-4.67-1.75-4.59-1.09.11-1.11.79-1.11.79Z"/>
    </g>
  </g>
  <polygon class="cls-5" points="29.2 80.14 5.64 114.62 6.81 116.11 51.76 114.55 35.61 84.89 30.81 79.28 29.2 80.14 29.2 80.14"/>
  <path class="cls-2" d="M27.31,84.61c-.85.37-.24-.86-1.09-.48-.41.14-.18.86-1.03.59-.33,1.4-.66,2.8-1.98,3.3-.32,1.48.75,1.42,1.18,2.09-1.86,1.36-1.87,5.71-5.14,4.27.3.79,1.28.83,1.43,1.8-.71.36-1.23.5-1.57.61,1.14.93-.3.7-.74,1.37-1.14,1.77-1.76,4.55-3.76,5-.07,1.29-.54,2.23-1.76,2.49.68,1.38-.39.19-.76.84,1.72.32-1.1,1.17.1,1.87-1.9.4-1.44,2.95-2.75,3.88-.17-.46.25-1.59-.34-1.59,0,.41.09.92-.5.82-.28.88.87.16.59,1.04-1.11.27-.9,1.73-1.48,2.49,2.78-.62,7.3-.66,10.41-.52.04-.21-.02-.53.24-.55,10.35.95,18.6-.66,31.25-1-.58-2.81-3.06-4.15-4.03-5.69-.32-2.37-2.56-2.61-2.66-5.22-1.2.18-1.03-.95-.88-1.56-1.06.02-2.03-1.7-1.17-2.09-.83.45-.9-.16-1.63-.45-1.93-5.83-6.54-9.94-8.75-14.55.01.27-.45.36-.53.02.32-.04.63-.11.51-.56-.75.26-.71-.34-1.35-.2-1.29,1.8-1.87,4.25-4.02,5.28.56.91-.2,1.3-.7,1.91-.33-1.06-.07-2.08.39-2.96.44-.02.18.73.57.77.06-1.15.97-3.33,1.76-2.23-.03-.37.09-.6.22-.82h0ZM42.9,96.95c1.58.23,1.17,2.65,2.82,2.81.04,1.73.93,2.54,2.03,3.11-.12,1.82.91,2.37,2.01,2.84.12.45-.18.51-.51.56.38.37,1.26.61.6,1.31.21-.16.42-.3.78-.31.12.54-.01.84-.49.83.53.68,2.07,2.13,1.2,2.62.27.45.86.55,1.62.45.15,2.19,1.35,3.21,1.35,5.55-.26-.15-1.01-.57-.78.3-.48-.5-1.86-.01-1.92-.97-.59,1.05-1.83-.7-3.17.69-.81.14-.6-.84-.87-1.3-.76.27.38.65.07,1.34-.21-.18-.9-1.08-.8.04-3.73-.26-9.26-.28-12.56.08-.01-.27-.03-.53-.04-.8-1.2.71-2.61.85-3.74.19-.72,1.04-5.69,1.07-7.21.36-2.93,1.69-9.46.1-10.87,1.87-2.3-1.29-6.26.17-9.14-.88-.27-.84.18-1.03.47-1.37-1.07-.04-.45-.2-.62-1.84,1.24-.4,1.75-1.46,1.72-3.03,1.24.19.54-1.37,1.81-1.16-.23-.81-.22-.5-.07-1.34,1.81.2.72-2.24,2.29-2.25-.18-.26-.63-.25-.57-.78,1.07.3.5-.9,1.57-.61-.02-.45-.04-.89-.07-1.34.23-.22.59-.32,1.05-.32,1.57-4.03,4.49-6.81,6.16-10.74.92-.02,1.21-.6.99-1.66.78.04.78-.64,1.57-.61.65-3.57,4.06-4.66,4.67-8.26,2.93-.66,2.23-4.6,5.08-5.33-.18-.27-.62-.25-.58-.77.88-.06,1.31-.52,2.39-.39,1.2.85-.31,1.37,1.4,1.26-1.1,1.21.34,4.74,1.55,4.21.39.07.07,2.02,1.42,1.8-.14.82.33.96.36,1.59,3.43,2.86,4.09,8.8,7.53,11.66.12.45-.18.52-.51.56h0Z"/>
  <text class="cls-6" transform="translate(18.03 111.66) scale(.79 1)"><tspan x="0" y="0">34</tspan></text>
</svg>