<?xml version="1.0" encoding="UTF-8"?>
<svg id="Layer_1" data-name="Layer 1" xmlns="http://www.w3.org/2000/svg" viewBox="0 0 180 200">
  <defs>
    <style>
      .cls-1 {
        fill: #1d2b42;
      }

      .cls-2, .cls-3 {
        fill-rule: evenodd;
      }

      .cls-2, .cls-4 {
        fill: #231f20;
      }

      .cls-5 {
        fill: #fff;
      }

      .cls-3 {
        fill: #ffda40;
      }

      .cls-4 {
        font-family: AmericanTypewriter-Bold, 'American Typewriter';
        font-size: 20.52px;
        font-weight: 700;
      }
    </style>
  </defs>
  <g>
    <path class="cls-5" d="M46.62,73.83c-1.66.02-3,1.37-3,3.03.02,5.12.08,15.07.33,15.82.34,1.01-.34,22.85-.34,22.85l-.34,15.46v3.02h0c0,1.67,1.35,3.02,3.02,3.02h24.2l24.87.34,47.72-.67h28.39c1.74,0,3.12-1.46,3.02-3.19l-.83-14.96-.34-26.21.56-15.41c.06-1.69-1.27-3.1-2.96-3.13l-30.2-.61-61.84.34-32.29.31Z"/>
    <path class="cls-1" d="M62.9,91.88c.8-.87,1.17-1.74,1.54-2.56.48-1.08,1.1-2.08,1.66-3.11,1.01-1.84,2.19-3.59,3.12-5.47.64-1.3,1.61-1.62,3.04-1.5.65.05,1.29.28,1.94.42.2.04.4.07.6.12.7.16.81.29.84,1.05.03.77.04,1.54.03,2.31-.02,2.52-.04,5.03-.08,7.55,0,.56-.09,1.12-.14,1.68-.02.25-.07.51-.08.76-.05,2.36-.14,4.72-.13,7.08,0,.78-.24,1.51-.24,2.28,0,1.64-.03,3.28-.03,4.93,0,.98.02,1.95.03,2.93,0,.4-.19.7-.57.83-.38.14-.78.3-1.18.32-1.02.04-2.05,0-3.08,0-.15,0-.31-.03-.46-.07-.56-.16-.96-.64-.96-1.24-.02-1.54.01-3.08-.01-4.62-.02-1.43.14-2.87-.2-4.29-.07-.29-.02-.61-.02-.92,0-1.69-.16-3.36-.39-5.1-.46.41-.58.94-.8,1.41-.24.51-.38,1.07-.65,1.56-.73,1.33-1.05,2.76-1.26,4.24-.08.57-.23,1.1-.62,1.57-.81.13-1.63.09-2.44.05-.7-.03-1.05-.32-1.2-.98-.28-1.26-.74-2.44-1.22-3.63-.44-1.09-.73-2.23-.95-3.39-.04-.19-.1-.38-.15-.58-.14.05-.3.06-.32.11-.07.24-.12.49-.12.74-.02,3.75-.03,7.49-.04,11.24,0,.82,0,1.64,0,2.46,0,.4-.19.68-.56.83-.14.06-.28.14-.43.16-1.17.12-2.31.46-3.49.41-.45-.02-.91-.14-1.35-.26-.6-.17-.96-.58-1-1.22-.02-.36-.01-.72-.01-1.08,0-3.29,0-6.57,0-9.86,0-1.9.03-3.8.08-5.7.02-.61.19-1.21.21-1.82.05-1.28.06-2.57.08-3.85.01-.51-.01-1.02.14-1.52.1-.33.08-.71.08-1.07,0-1.28,0-2.57,0-3.85,0-.36.02-.72.07-1.07.07-.44.4-.71.87-.71.46,0,.93-.02,1.38.07.96.18,1.92.25,2.9.23.46,0,.79.23.97.63.3.65.6,1.3.83,1.98.4,1.17.89,2.29,1.41,3.4.58,1.25,1.09,2.54,1.59,3.82.13.33.17.69.22,1.04.06.41.27.75.51,1.26Z"/>
    <path class="cls-1" d="M115.95,94.12c.15.52.52.53.77.66.82.42,1.38,1.04,1.75,1.87.27.61.56,1.2.67,1.87.13.75.4,1.48.5,2.24.17,1.19-.14,2.32-.46,3.47-.58,2.08-1.81,3.63-3.56,4.84-1.04.72-2.15,1.07-3.4,1.25-1.43.21-2.86.21-4.29.27-.61.03-1.22.16-1.82.21-1.48.13-2.97.11-4.45.11-.48,0-.99-.47-1.02-.98-.04-.56.02-1.12.05-1.68.01-.2.13-.42.08-.59-.32-1.06-.04-2.16-.26-3.21-.29-1.37-.2-2.75-.21-4.13,0-.66-.04-1.32.18-1.98.11-.32.04-.71.05-1.07.03-2.77.05-5.54.07-8.31,0-.15-.02-.31,0-.46.41-2.03.15-4.09.23-6.13.02-.56.04-1.13.08-1.69.05-.69.48-1.14,1.13-1.21.15-.02.31,0,.46,0,1.9,0,3.8,0,5.69.03,2.24.05,4.34.57,6.22,1.86.89.61,1.79,1.19,2.54,1.98.36.38.65.8.83,1.28.85,2.22.98,4.48.23,6.76-.08.24-.14.49-.24.73-.28.67-.61,1.3-1.32,1.62-.18.08-.32.24-.5.39ZM107.78,105.26c.26.03.42.04.57.06.79.09,1.5-.27,2.25-.38,1.38-.79,2.36-1.92,2.89-3.42.11-.32.14-.77-.01-1.05-.43-.79-.77-1.71-1.72-2.06-1.05-.39-2.1-.76-3.16-1.1-.21-.07-.48,0-.68.02-.07.17-.15.27-.15.36-.03,2.35-.06,4.69-.09,7.04,0,.14.06.29.11.53ZM107.77,92.32c.38.02.63.05.88.05,1.89-.01,2.8-.64,3.46-2.41.35-.93.36-1.91.18-2.87-.13-.71-.85-.97-1.33-1.42-.07-.07-.15-.15-.23-.2-.82-.52-1.69-.95-2.65-1.11-.24-.04-.51-.06-.72.32.07,1.17.16,2.44.23,3.71.07,1.26-.14,2.54.18,3.93Z"/>
    <path class="cls-1" d="M97.15,91.78c0,1.59,0,3.18,0,4.77,0,.51,0,1.01-.14,1.52-.12.43-.07.91-.08,1.37-.02,1.18.03,2.35-.28,3.51-.13.49-.02,1.03-.12,1.53-.31,1.51-.91,2.93-1.59,4.31-.17.34-.52.64-.86.85-.48.28-1.03.44-1.54.68-1.87.86-3.83,1.06-5.85.82-.71-.08-1.44-.14-2.1-.39-2.27-.88-4.13-2.27-5.15-4.56-.21-.46-.37-.95-.48-1.45-.29-1.3-.52-2.6-.52-3.94,0-1.64,0-3.29,0-4.93,0-.61-.07-1.23.17-1.83.07-.18.05-.4.05-.61,0-2.26,0-4.51,0-6.77,0-1.02.07-2.02.47-3.01.53-1.32,1.44-2.24,2.6-2.92,1.33-.79,2.81-1.3,4.33-1.49,1.31-.17,2.67-.11,4,0,1.03.08,1.94.65,2.82,1.16,1.35.78,2.48,1.8,3.34,3.12.6.93.97,1.91.98,3.02,0,1.75,0,3.49,0,5.24-.02,0-.04,0-.06,0ZM84.19,98.43h-.03c.03,1.18.08,2.35.08,3.53,0,.84.37,1.46.96,2,.55.5,1.15.84,1.93.78.25-.02.51-.03.77,0,.71.08,1.18-.27,1.51-.84.18-.3.29-.65.39-.99.45-1.43.39-2.92.54-4.38.11-1.12-.03-2.26.14-3.37.13-.91.2-1.82.25-2.74.01-.25,0-.52.06-.76.44-1.71,0-3.33-.48-4.95-.07-.24-.2-.47-.32-.7-.46-.87-1.16-1.38-2.15-1.55-.5-.09-.92.05-1.3.32-.51.36-.84.94-.99,1.5-.23.83-.26,1.71-.38,2.57-.13,1.01-.22,2.03-.41,3.03-.34,1.81-.61,3.62-.57,5.47,0,.36,0,.72,0,1.08Z"/>
    <path class="cls-1" d="M149.96,100.85c.72-.52,1.42-.46,2.06-.36,1.07.17,2.14.2,3.21.21.53,0,.77.24.78.74.02.62.02,1.23.01,1.85,0,.53.13,1.02.35,1.49.23.5.63.83,1.19.86.82.04,1.64.04,2.46.04.52,0,.88-.3,1.1-.73.46-.89.65-1.84.38-2.83-.39-1.41-1.12-2.63-2.08-3.72-.31-.36-.71-.58-1.14-.76-.81-.33-1.55-.77-2.24-1.32-.56-.44-1.18-.83-1.82-1.15-1.23-.62-2.16-1.54-2.92-2.67-.23-.34-.45-.69-.7-1.02-.38-.51-.6-1.1-.67-1.7-.16-1.22-.18-2.44.13-3.67.34-1.3.72-2.56,1.51-3.67.27-.38.55-.72.95-.97.83-.51,1.61-1.09,2.44-1.61,1.46-.91,3.07-1.11,4.73-.88,3.14.44,5.34,2.2,6.8,4.95.38.72.72,1.47,1.05,2.22.12.27.18.58.22.88.05.45-.14.83-.57,1-1.1.42-2.19.87-3.33,1.15-.73.18-1.53.09-2.3.06-.41-.01-.82-.51-.85-.96-.04-.56-.02-1.13-.07-1.69-.05-.67-.24-1.31-.65-1.86-.36-.48-.81-.77-1.44-.74-.26.01-.51.02-.77,0-.85-.05-1.87,1.06-1.8,1.95.12,1.37.46,2.64,1.44,3.63.68.69,1.43,1.32,2.19,1.93.31.25.72.39,1.1.53,1.11.4,2.17.9,3.18,1.51.54.32,1.03.68,1.4,1.18.92,1.24,1.76,2.51,2.38,3.93.23.53.29,1.07.32,1.64.06,1.14-.17,2.24-.32,3.36-.07.5-.31.97-.49,1.45-.2.53-.46,1.03-.65,1.56-.4,1.12-1.18,1.9-2.17,2.51-1.38.85-2.88,1.33-4.5,1.4-.87.04-1.75.09-2.62.03-1.51-.1-2.91-.59-4.09-1.58-.59-.49-1.13-1.04-1.7-1.56-.62-.57-1.05-1.26-1.35-2.04-.13-.33-.26-.68-.28-1.03-.04-1.17-.11-2.36.1-3.56Z"/>
    <path class="cls-1" d="M130.26,90.28c.23-.32.41-.49.51-.7.97-2.2,1.92-4.41,2.87-6.62.34-.8.62-1.63.95-2.43.12-.28.27-.56.46-.79.31-.36.7-.55,1.22-.48,1.42.19,2.81.54,4.25.54.26,0,.44.28.37.55-.2.79-.39,1.59-.61,2.38-.79,2.86-1.72,5.69-2.9,8.41-.86,1.97-1.9,3.86-2.89,5.77-.92,1.77-.94,1.76-.94,3.79,0,.72-.01,1.44,0,2.16.02.82-.11,1.65.2,2.44,0,1.34.01,2.67,0,4.01,0,.25-.11.5-.19.74-.2.66-.42.86-1.08.86-1.44,0-2.87-.04-4.31-.07-.42-.01-.66-.21-.78-.61-.09-.29-.22-.6-.22-.89.02-1.38-.1-2.76.09-4.14.23-1.68.37-3.39.06-5.06-.32-1.7-.91-3.35-1.62-4.95-1.01-2.3-2.02-4.59-2.93-6.93-.63-1.62-1.15-3.28-1.85-4.88-.29-.66-.59-1.3-.89-1.95-.11-.23-.22-.46-.31-.7-.09-.25.05-.69.28-.82.31-.17.63-.38.97-.43,1.26-.2,2.52-.42,3.82-.35.61.04,1.06.26,1.42.77.64.88,1.16,1.81,1.48,2.85.39,1.27.76,2.55,1.19,3.81.41,1.21.86,2.4,1.35,3.74Z"/>
    <path class="cls-1" d="M123.99,122.7c.4.39.78.73,1.13,1.1.47.51.7,1.1.73,1.81.04.89-.11,1.76-.36,2.57-.39,1.25-1.3,2.1-2.6,2.38-.8.17-1.59.39-2.39.54-.69.13-1.42.06-2.14.02-.35-.02-.7-.15-1.04-.25-.44-.12-.67-.41-.69-.89-.02-.36,0-.72,0-1.08,0-2.77.02-5.55.02-8.32,0-1.03-.05-2.05-.06-3.08,0-.31,0-.62.04-.92.07-.58.56-1.01,1.15-1.04,1.7-.08,3.38.06,5.06.3.1.01.2.03.3.05,1.76.45,2.27,1.2,2.02,3.01-.09.66-.16,1.33-.35,1.96-.19.63-.53,1.21-.81,1.83ZM119.97,127.98c.52.3.87.25,1.18.05.31-.19.58-.42.87-.64.49-.36.55-.89.39-1.39-.2-.59-.6-1.08-1.25-1.24-.38-.09-.79-.11-1.14-.16-.08.09-.14.12-.15.17-.15,1.07.24,2.11.1,3.2ZM120.04,121.81c.5.16.86.19,1.18-.01.31-.19.52-.47.62-.83.07-.24.19-.48.22-.72.03-.24.04-.52-.06-.73-.14-.32-.34-.63-.58-.88-.38-.4-.85-.48-1.4-.22,0,1.14-.14,2.24.01,3.4Z"/>
    <path class="cls-1" d="M108.82,115.9c.09.93.05,5.6-.07,6.29-.26,1.48-.1,2.96-.11,4.45,0,.7.4,1.35,1.02,1.97.87-.15,1.3-.77,1.59-1.51.26-.67.39-1.36.39-2.09,0-2.56.02-5.13.04-7.69,0-.41.01-.82.05-1.23.03-.29.34-.56.64-.57.81-.02,1.63-.07,2.49.05.27.65.16,1.31.09,1.96-.04.35-.12.71-.13,1.06-.04,1.69-.01,3.38-.11,5.07-.09,1.53-.22,3.06-.61,4.54-.15.59-.39,1.17-.71,1.69-.57.92-1.35,1.42-2.55,1.38-1.24-.05-2.3-.37-3.27-1.12-.71-.55-1.21-1.25-1.44-2.12-.4-1.53-.7-3.09-.68-4.69.03-2,.04-4,.06-6,0-.1,0-.21.01-.31q.1-1.58,1.69-1.31c.25.04.51.03.76.06.25.03.49.07.82.12Z"/>
    <path class="cls-1" d="M95,115.97c.63-.38,1.14-.55,1.64-.39.96.31,1.93.23,2.9.22.74-.01,1.43.15,2.09.42,1.29.53,2.09,1.44,2.06,2.93-.03,1.38.06,2.76-.27,4.12-.08.34-.03.71-.05,1.07-.02.36-.01.73-.11,1.07-.18.68-.57,1.22-1.3,1.37-.85.18-1.67.49-2.56.47-.25,0-.51.01-.77.04-.24.02-.5.33-.44.54.39,1.18.13,2.32-.19,3.54-.7.27-1.46.2-2.21.06-.47-.09-.83-.41-.92-.92-.07-.35-.13-.71-.13-1.06,0-4.05.01-8.1.04-12.15,0-.45.14-.9.21-1.34ZM98.16,118.61c0,2.14,0,4.13,0,6.12,0,.08.1.16.16.24.54.19,1.01,0,1.46-.27.44-.26.51-.74.65-1.18.06-.19.1-.4.12-.6.08-.81.13-1.62.26-2.43.19-1.15-.6-1.97-1.76-1.98-.25,0-.5.05-.89.09Z"/>
    <path class="cls-1" d="M142.46,86.57c.03-.61.01-1.23.11-1.83.24-1.46.55-2.91.78-4.36.05-.32-.1-.68-.16-1.03.32-.37.78-.47,1.24-.48.82-.03,1.64-.04,2.46-.02.58.01.94.48.8,1.06-.16.69-.38,1.38-.59,2.06-.39,1.32-.79,2.64-1.19,3.96-.06.19-.09.42-.22.57-.2.22-.45.52-.7.55-.8.08-1.64.22-2.53-.46Z"/>
  </g>
  <polygon class="cls-3" points="27.99 87.61 4.42 122.1 5.6 123.58 50.55 122.02 34.4 92.37 29.6 86.75 27.99 87.61 27.99 87.61"/>
  <path class="cls-2" d="M26.1,92.08c-.85.37-.24-.86-1.09-.48-.41.14-.18.85-1.03.59-.33,1.41-.66,2.8-1.98,3.31-.32,1.48.75,1.42,1.18,2.08-1.86,1.36-1.87,5.71-5.14,4.27.3.79,1.28.83,1.43,1.8-.71.36-1.23.5-1.57.61,1.14.93-.3.7-.74,1.37-1.14,1.77-1.76,4.56-3.76,5-.07,1.29-.54,2.23-1.76,2.49.68,1.38-.39.19-.76.84,1.72.32-1.1,1.17.1,1.87-1.9.4-1.44,2.95-2.75,3.88-.17-.46.25-1.59-.34-1.59,0,.42.09.93-.5.83-.28.88.87.16.59,1.04-1.11.27-.9,1.73-1.48,2.49,2.78-.62,7.3-.66,10.41-.52.04-.21-.02-.53.24-.55,10.35.95,18.6-.66,31.25-1-.58-2.8-3.06-4.15-4.03-5.69-.32-2.37-2.56-2.61-2.66-5.22-1.2.18-1.03-.95-.88-1.55-1.06.02-2.03-1.7-1.17-2.09-.83.45-.9-.16-1.63-.46-1.93-5.83-6.54-9.94-8.75-14.54.01.27-.45.36-.53.02.32-.04.63-.11.51-.56-.75.26-.71-.34-1.35-.2-1.29,1.8-1.87,4.25-4.02,5.28.56.92-.2,1.3-.7,1.91-.33-1.06-.07-2.08.39-2.96.44-.02.18.73.57.78.06-1.15.97-3.33,1.76-2.23-.03-.37.09-.59.22-.82h0ZM41.69,104.41c1.58.23,1.17,2.66,2.82,2.81.04,1.73.93,2.54,2.03,3.11-.12,1.83.91,2.37,2.01,2.85.12.45-.18.51-.51.56.38.37,1.26.61.6,1.31.21-.15.42-.3.78-.31.12.54-.01.84-.49.83.53.68,2.07,2.13,1.2,2.61.27.45.86.55,1.62.46.15,2.18,1.35,3.2,1.35,5.55-.26-.15-1.01-.57-.78.3-.48-.5-1.86,0-1.92-.97-.59,1.05-1.83-.7-3.17.7-.81.13-.6-.84-.87-1.3-.76.27.38.65.07,1.33-.21-.17-.9-1.08-.8.04-3.73-.26-9.26-.28-12.56.08-.01-.26-.03-.53-.04-.8-1.2.71-2.61.85-3.74.19-.72,1.04-5.69,1.07-7.21.36-2.93,1.68-9.46.1-10.87,1.87-2.3-1.29-6.26.17-9.14-.88-.27-.84.18-1.02.47-1.37-1.07-.03-.45-.2-.62-1.84,1.24-.41,1.75-1.46,1.72-3.03,1.24.2.54-1.37,1.81-1.16-.23-.81-.22-.5-.07-1.34,1.81.2.72-2.23,2.29-2.25-.18-.27-.63-.25-.57-.78,1.07.3.5-.9,1.57-.61-.02-.45-.04-.89-.07-1.33.23-.22.59-.32,1.05-.32,1.57-4.03,4.49-6.81,6.16-10.74.92-.02,1.21-.6.99-1.66.78.04.78-.64,1.57-.61.65-3.58,4.06-4.66,4.67-8.26,2.93-.65,2.23-4.6,5.08-5.33-.18-.26-.62-.25-.58-.77.88-.06,1.31-.52,2.39-.39,1.2.85-.31,1.37,1.4,1.27-1.1,1.21.34,4.73,1.55,4.2.39.07.07,2.02,1.42,1.8-.14.82.33.96.36,1.59,3.43,2.87,4.09,8.8,7.53,11.66.12.45-.18.52-.51.56h0Z"/>
  <text class="cls-4" transform="translate(17.34 118.75) scale(.79 1)"><tspan x="0" y="0">35</tspan></text>
</svg>