<?xml version="1.0" encoding="UTF-8"?>
<svg id="Layer_1" data-name="Layer 1" xmlns="http://www.w3.org/2000/svg" viewBox="0 0 180 200">
  <defs>
    <style>
      .cls-1, .cls-2, .cls-3, .cls-4, .cls-5, .cls-6 {
        fill-rule: evenodd;
      }

      .cls-1, .cls-7 {
        fill: #fff;
      }

      .cls-2 {
        fill: #bababa;
      }

      .cls-3, .cls-8 {
        fill: #231f20;
      }

      .cls-4 {
        fill: #404040;
      }

      .cls-6 {
        fill: #ffda40;
      }

      .cls-8 {
        font-family: AmericanTypewriter-Bold, 'American Typewriter';
        font-size: 20.52px;
        font-weight: 700;
      }
    </style>
  </defs>
  <g>
    <path class="cls-1" d="M58.73,59.17s-1.12,4,.8,5.27c1.92,1.28,5.28,5.27,5.76,6.08.48.8.96,1.28.96,1.76s.48,2.08-1.12,2.4c-1.6.32-18.86,8.16-21.58,12.63-2.72,4.48-4.48,7.2-5.12,9.27s-.32,10.55,1.76,14.07c2.08,3.52,5.12,6.88,5.91,8.31.8,1.44,2.08,2.72,2.4,3.84.32,1.12,1.6,2.88,1.6,3.52s-.64,2.72-.16,6.4c.48,3.68.8,5.12,1.12,6.55.32,1.44,2.88,1.6,8.15,1.6s33.09.64,35.97.64,25.1.48,27.18.32c2.08-.16,15.03-.16,17.91-.16s10.39,0,15.99-.32c5.59-.32,11.03,1.44,11.19-1.76.16-3.2-.8-7.99-.8-10.07s-1.92-4.8-2.4-4.8-.8-1.44.16-2.24c.96-.8,6.23-6.71,7.19-8.15.96-1.44,8.31-10.71,6.72-18.23-1.6-7.51-8.95-12.95-9.59-13.43-.64-.48-14.55-8.63-15.03-8.63s-6.07-1.92-13.11-3.2c-7.03-1.28-26.38-3.2-27.34-3.04-.96.16-12.31.32-14.87.64-2.56.32-13.91.64-14.39.8-.48.16-5.28,0-5.28,0,0,0-7.99-10.39-12.15-12.31-4.16-1.92-6.56.48-7.83,2.24Z"/>
    <path class="cls-4" d="M47.03,107.07s7.12,11.19,14.99,13.19c7.87,2,13.88,5.09,18.66,5.86,4.78.77,12.34,2.01,14.65,2.16,2.31.15,19.75.31,21.29.31s19.13-2.16,22.21-2.93c3.08-.77,13.42-3.39,14.81-4.01,1.39-.62,10.33-5.71,11.88-8.02,1.54-2.31,5.55-7.1,6.17-10.18.62-3.09.62-5.25.15-7.1-.46-1.85-7.25-8.02-7.87-8.95-.62-.93-3.08-1.85-3.7-2-.62-.16-113.25,21.67-113.25,21.67Z"/>
    <path class="cls-5" d="M142.79,122.51c-1.11.26-2.16.51-3.22.74-.37.08-.62.27-.79.6-.63,1.26-1.26,2.51-1.88,3.77-.3.62-.57,1.26-.86,1.89-.13.29-.31.51-.68.42-.29-.07-.55-.5-.5-.82,0-.07.04-.14.06-.21.47-1.32.94-2.64,1.43-3.96.18-.49.42-.97.71-1.61-.43.15-.71.23-.97.33-1.57.62-3.18.98-4.88,1.09-1.52.1-3.03.42-4.52.73-2.2.47-4.42.74-6.66.98-1.3.14-2.58.4-3.89.51-2.53.21-5.07.35-7.61.16-1.87-.14-3.75-.16-5.61-.33-3-.27-5.99-.6-8.98-.92-1.4-.14-2.79-.34-4.2-.43-2.33-.14-4.57-.73-6.83-1.22-.58-.13-1.16-.22-1.74-.36-1.8-.43-3.59-.88-5.38-1.32-1.48-.36-2.98-.68-4.44-1.12-1.44-.44-2.84-.99-4.25-1.5-1.02-.36-2.05-.7-3.05-1.12-2.27-.97-4.53-1.95-6.76-2.99-.78-.36-1.48-.89-2.23-1.31-.49-.28-1.03-.48-1.52-.76-.22-.13-.49-.35-.52-.55-.06-.41-.32-.57-.58-.8-1.9-1.68-3.96-3.22-5.41-5.33-.91-1.31-1.71-2.71-2.4-4.15-.82-1.73-.66-3.55-.17-5.36.52-1.9,1.36-3.65,2.54-5.23.81-1.09,1.59-2.21,2.48-3.23,2.07-2.35,4.6-4.17,7.22-5.85,1.5-.97,3.15-1.62,4.77-2.36,1.91-.87,3.86-1.65,5.87-2.23,3.08-.9,6.1-1.97,9.25-2.6.35-.07.7-.19,1.15-.32-.28-.38-.5-.7-.74-1.01-.92-1.19-1.88-2.35-2.76-3.57-.91-1.28-1.99-2.38-3.2-3.37-1.17-.95-2.35-1.88-3.52-2.82-.14-.11-.27-.21-.42-.33-.07.12-.12.22-.21.38-.26-.24-.51-.47-.76-.69-.37-.33-.76-.63-1.11-.97-.26-.25-.49-.54-.69-.85-.24-.35-.12-.67.29-.81.23-.08.43-.12.55-.39.13-.28.42-.31.71-.18.13.07.27.13.39.21,1.82,1.19,3.66,2.35,5.18,3.91,1.22,1.25,2.37,2.58,3.45,3.96,1.37,1.75,2.65,3.56,3.94,5.37.26.36.51.48.98.4,2.77-.46,5.54-.93,8.33-1.3,2.98-.39,5.95-.98,8.96-1.06,3.79-.11,7.59-.34,11.39,0,3.36.29,6.74.43,10.11.72,2.9.25,5.79.61,8.68.96,2.3.28,4.6.57,6.89.92,2.68.42,5.33.97,7.93,1.78,4.37,1.34,8.64,2.93,12.77,4.88,3.14,1.48,6.05,3.35,8.64,5.66.95.85,1.71,1.9,2.54,2.88,1.29,1.52,2.21,3.26,3.09,5.03.03.07.07.14.09.21.37,1.37.93,2.74.95,4.16.02,1.44-.15,2.91-.88,4.22-.27.47-.53.95-.8,1.42-.48.86-1.03,1.67-1.71,2.4-.82.89-1.58,1.83-2.33,2.78-1.11,1.4-2.38,2.63-3.79,3.73-1.51,1.19-2.92,2.51-4.67,3.38-3.36,1.68-6.85,3.03-10.49,3.97-.5.12-1.13.17-1.43.5-.3.32-.27.96-.38,1.46-.41,1.73-.81,3.45-1.25,5.18-.09.35-.28.69-.48.99-.23.33-.53.41-.75.23-.27-.21-.21-.47-.1-.73.92-2.09,1.26-4.34,1.71-6.56.01-.07-.02-.14-.04-.29ZM56.45,89.43c-.14-.08-.37-.13-.39-.24-.03-.12.09-.33.21-.42.19-.15.43-.25.65-.33.95-.36,1.9-.71,2.84-1.06,1.85-.69,3.72-1.31,5.66-1.69.63-.12,1.27-.19,1.9-.27.43-.05.76.16,1.03.49.43.53.42,1.1.08,1.65-.63,1.03-1.26,2.06-1.94,3.06-1.18,1.74-2.44,3.41-3.58,5.17-1.15,1.78-2.23,3.61-3.28,5.46-1.33,2.33-2.63,4.69-3.49,7.25-.37,1.1-.7,2.21-.64,3.4.06.9.3,1.12,1.32.92.16-.03.32-.14.46-.23,1.06-.7,1.99-1.53,2.76-2.54.46-.61.95-1.21,1.49-1.74,1.56-1.53,2.96-3.17,3.9-5.17.26-.55.62-1.07.92-1.6.86-1.5,1.74-2.98,2.55-4.5.3-.55.64-.99,1.25-1.15.2-.05.5-.11.6,0,.15.14.19.42.2.65.01.16-.1.33-.16.49-.51,1.31-1.05,2.6-1.38,3.97-.57,2.38-.63,4.73.48,7.01.43.87,1.05,1.59,1.91,2,1.67.79,3.44,1.15,5.31,1,1.12-.09,2.15-.44,3.21-.8,2.17-.77,3.55-2.35,4.62-4.26.79-1.42.95-3,.96-4.59.02-2.92-.34-5.82-.84-8.68-.57-3.32-1.61-6.51-3.21-9.49-1.05-1.95-2.1-3.91-3.15-5.86-.1-.19-.25-.35-.37-.51-.19.03-.31.05-.43.08-3.55.75-7,1.86-10.47,2.91-1.94.59-3.81,1.35-5.66,2.18-1.58.71-3.17,1.36-4.63,2.3-2.49,1.61-4.9,3.34-6.87,5.58-.86.98-1.61,2.06-2.39,3.1-1.08,1.46-1.89,3.07-2.37,4.82-.43,1.61-.62,3.24.13,4.78.66,1.37,1.45,2.69,2.31,3.95,1.3,1.92,3.21,3.26,4.88,4.83.35.33.73.65,1.29.78-.02-.3,0-.54-.05-.78-.38-1.85.16-3.57.79-5.26.54-1.47,1.36-2.79,2.16-4.12,1.04-1.76,2.07-3.53,3.11-5.29.09-.15.18-.29.29-.42.88-1.03,1.77-2.05,2.66-3.08,1.42-1.65,2.69-3.41,3.55-5.43.08-.19.13-.39.19-.59-.56-.28-1-.04-1.43.1-1.15.38-2.29.77-3.43,1.17-.61.21-1.23.39-1.8.66-1.01.47-2.09.74-3.17.99-.54.12-.65,0-.58-.61.29.05.57.04.75-.26-.25.09-.49.18-.74.27ZM120.94,107.84c.69,1.02,1.28,1.08,2.2.43.46-.33.89-.72,1.39-.99,1.15-.62,1.97-1.54,2.56-2.68.14-.26.24-.54.39-.8.46-.78.92-1.57,1.4-2.34.17-.27.4-.5.65-.7.62-.49,1.72-.41,2.09.13.33.48.35,1.78-.01,2.24-.96,1.21-1.95,2.42-2.93,3.62-.12.15-.25.32-.41.43-.86.59-.63,1.43-.48,2.21.1.52.58.64,1.02.35.31-.2.64-.37.94-.59.91-.67,1.82-1.35,2.7-2.06.22-.18.37-.46.5-.72.43-.83.86-1.66,1.25-2.52.32-.7.94-.9,1.59-1.05.37-.09.67.13.91.38.29.3.27.61-.02.91-.53.55-1.08,1.09-1.58,1.66-.18.21-.36.51-.38.77-.03.67.02,1.33.09,1.99.05.4.24.52.62.41.42-.12.86-.25,1.23-.48,1.38-.85,2.58-1.92,3.57-3.2,1.43-1.85,2.8-3.76,4.17-5.66.16-.22.26-.52.32-.79.15-.69.48-.96,1.19-.91.38.03.53.18.51.56,0,.14-.05.28-.07.39.55.69,1.24.41,1.87.34.28-.03.44-.3.45-.61.03-.74.39-1.36.69-2.01.16-.35.29-.72.39-1.09.07-.27.19-.47.48-.48.29-.01.47.18.52.44.06.39.15.79.08,1.17-.19,1.08-.52,2.12-1.33,2.91-.54.52-1.13,1-1.81,1.58,0,.04,0,.24,0,.43.01.94.08,1.88.03,2.81-.1,1.63-.28,3.24-.42,4.87-.03.3-.04.6-.06.9.47-.33.74-.78,1.14-1.01.65-.38,1.05-.96,1.55-1.46.86-.84,1.7-1.71,2.59-2.52,1.1-.99,2.25-1.92,3.39-2.87.31-.26.4-.56.4-.96,0-1.22.67-2.09,1.65-2.71.25-.16.61-.2.92-.21.58-.03.82.3.6.86-.16.41-.4.8-.63,1.16-.36.56-.36,1.15-.23,1.77.09.43.21.87.21,1.3,0,1.83-.18,3.65-.88,5.37-.06.15-.09.33-.13.5.67-.39,1.23-.83,1.78-1.28,1.3-1.05,2.58-2.15,3.92-3.16,1.68-1.27,3.15-2.76,4.69-4.19.48-.45.52-1.03.38-1.57-.07-.28-.08-.5,0-.76.04-.11.06-.24.04-.36-.13-.83-.3-1.63-.66-2.41-1.12-2.43-2.76-4.49-4.46-6.51-.24-.29-.51-.54-.79-.78-2.61-2.22-5.46-4.07-8.56-5.52-1.63-.77-3.31-1.43-4.97-2.12-3.35-1.4-6.81-2.5-10.32-3.39-2.22-.56-4.5-.86-6.77-1.2-2.44-.37-4.88-.71-7.33-.97-3.07-.33-6.14-.57-9.21-.84-1.89-.17-3.78-.36-5.68-.48-2.07-.13-4.14-.19-6.21-.24-.68-.02-1.38.07-2.06.14-1.37.15-2.74.45-4.11.48-3.21.07-6.41.35-9.58.78-2.37.32-4.71.82-7.07,1.24-.23.04-.45.12-.72.2.15.24.24.42.36.57.81.98,1.4,2.09,1.91,3.24.15.33.22.7.31,1.05.08.33.1.68.23.99,1.33,3.06,2.43,6.2,3.23,9.44.55,2.23.82,4.51.96,6.8.07,1.15-.03,2.31.13,3.47.17,1.22.2,2.46.31,3.69.04.45.15.89.25,1.48.13-.23.18-.28.2-.35.46-1.37,1.15-2.63,1.99-3.79,1.38-1.92,3.39-2.44,5.61-2.37.67.02.99.45.99,1.15,0,.15-.03.3-.03.44,0,.48.4,1,.87,1.05.81.09,1.62.07,2.35-.42.51-.34,1.04-.67,1.59-.94.84-.41,1.7-.77,2.56-1.14.13-.06.29-.11.43-.1.27.02.58.23.47.45-.28.55.23.78.32,1.2.34-.02.63-.04.92-.07,1.04-.1,2.04-.31,2.92-.94.44-.32.94-.55,1.44-.74.77-.29,1.03-.14,1.34.61.01.03.08.04.19.08.1-.3.23-.59.3-.89.26-1.01.53-2.01.75-3.02.57-2.69,1.63-5.22,2.56-7.79.3-.82.93-1.44,1.55-2.06.19-.18.41-.29.67-.13.27.17.32.43.21.71-.25.62-.49,1.24-.77,1.85-.82,1.77-1.55,3.57-2.22,5.4-1.42,3.82-1.87,7.74-1.54,11.78.06.75.31,1.36.77,1.95.53.65,1.17.94,2,.86.75-.07,1.35-.46,1.9-.92,1.14-.97.94-.7.79-1.99-.41-3.63.03-7.13,1.49-10.49.44-1.01.82-2.07,1.12-3.13.64-2.28,1.71-4.35,2.96-6.35.44-.71.9-1.42,1.28-2.16.86-1.69,1.92-3.2,3.41-4.42.85-.69,1.72-.79,2.69-.41.6.23.92.69,1.04,1.33.21,1.04.07,2.08-.13,3.09-.32,1.57-.66,3.14-1.12,4.67-.49,1.63-1.02,3.26-1.72,4.8-1.54,3.36-3.33,6.61-5.38,9.69-.46.69-.99,1.35-1.54,1.98-.67.78-1.39,1.52-2.09,2.28ZM119.36,109.26c-1.35,1.2-2.71,2.06-4.59,1.41-1.74-.61-2.76-1.77-3.05-3.73-.42.4-.76.68-1.04,1.02-.73.87-1.43,1.76-2.14,2.64-.14.17-.29.35-.47.47-.61.42-1.23.86-2.03.73-.38-.06-.76-.17-1.14-.29-.46-.14-.77-.43-.84-.93-.18-1.27-.15-2.51.52-3.67.46-.79.91-1.58,1.36-2.37.08-.13.13-.29.21-.47-.41-.03-.74-.07-1.11-.1-.05.29-.09.53-.13.77-.18.93-.42,1.84-1.03,2.59-1.24,1.5-2.66,2.79-4.48,3.55-.7.3-1.45.31-2.18.14-.6-.14-1.01-.51-1.11-1.15-.13-.84-.14-1.67.26-2.46.49-.94,1.05-1.84,1.82-2.59.15-.14.29-.3.52-.55-1.01,0-1.89.01-2.62-.53-.06.04-.09.04-.1.07-.07.13-.15.26-.2.39-.88,2.16-2.3,3.96-3.75,5.74-.22.27-.46.52-.73.74-.18.15-.41.31-.63.35-.95.2-1.86.13-2.71-.41-.43-.27-.66-.61-.69-1.14-.09-1.37-.42-2.7-.81-4.09-.09.12-.17.19-.19.27-.33,1.03-1.01,1.85-1.64,2.7-1.47,1.99-3.58,2.93-5.85,3.49-2.31.57-4.61.27-6.82-.61-2.18-.86-3.26-2.61-3.76-4.79-.17-.74-.18-1.52-.27-2.28-.02-.15-.06-.3-.09-.47-1.02,1.1-2,2.14-2.96,3.19-.33.36-.63.76-.94,1.14-.63.79-1.25,1.59-1.87,2.39-.12.16-.34.3-.35.46-.03.37-.3.47-.55.62-.19.12-.36.26-.54.39-.64.46-1.25.96-1.93,1.36-.64.38-1.34.65-2.07.99.37.23.69.51,1.07.67,2.23,1,4.45,2,6.7,2.96,1.02.43,2.08.77,3.12,1.14,1.42.51,2.81,1.12,4.25,1.48,3.61.91,7.2,1.89,10.85,2.64,2.46.5,4.89,1.15,7.41,1.36,1.79.15,3.57.44,5.36.64,2.28.25,4.56.52,6.85.69,2.51.19,5.02.3,7.54.39,2.47.1,4.93,0,7.38-.32,1.1-.14,2.2-.3,3.3-.46,1.88-.27,3.76-.5,5.63-.86,2.13-.4,4.25-.89,6.43-.92.31,0,.64-.08.95-.16,1.24-.32,2.48-.63,3.72-.98.18-.05.36-.24.46-.41.74-1.23,1.44-2.47,2.18-3.69,1.21-2.02,2.58-3.91,4.32-5.52.2-.18.35-.49.39-.76.29-1.85.59-3.7.81-5.56.2-1.66.3-3.34.43-5.01.05-.57-.07-1.17-.26-1.59-.2.23-.39.48-.59.71-.45.53-.71,1.17-1.02,1.78-.61,1.22-1.57,2.2-2.46,3.23-.26.3-.53.59-.73.93-.55.95-1.2,1.8-2,2.56-.35.34-.69.71-.99,1.1-.67.9-1.56,1.31-2.66,1.35-1.07.04-2.18-.73-2.43-1.76-.03-.13-.06-.26-.09-.39-.06-.04-.12-.07-.18-.1-.14.2-.27.41-.43.59-.56.64-1.22,1.04-2.1,1.1-.58.03-1.16.17-1.74.27-.74.12-1.42-.08-2.06-.43-.47-.26-.45-.78-.56-1.23,0-.03-.07-.05-.07-.05-.81.36-1.58.74-2.39,1.04-1.23.44-2.33.23-3.18-.85-.14-.17-.28-.34-.48-.57ZM168.94,102.42c-.05-.03-.11-.07-.16-.1-.15.16-.31.31-.45.48-1.37,1.61-2.97,2.96-4.67,4.2-.72.52-1.51.96-2.16,1.55-1.99,1.8-4.33,3-6.8,3.97-.29.12-.61.18-.93.25-.35.08-.71.12-.92-.25-.24-.44.17-.59.4-.82-.18-.77-.15-.73.51-1.17.82-.54,1.6-1.15,2.39-1.74.28-.21.4-.47.31-.84-.22-.86-.07-1.71.13-2.56.15-.62.25-1.25.36-1.89.02-.12,0-.25,0-.49-.21.19-.32.29-.43.39-1.43,1.42-2.84,2.88-4.31,4.27-1.29,1.22-2.59,2.44-4.11,3.39-.18.11-.35.27-.5.44-.69.77-1.38,1.55-2.04,2.35-.19.24-.32.55-.37.86-.34,1.92-.65,3.84-.97,5.76-.03.18-.04.37-.06.58.17-.02.27-.02.36-.04,3.26-.75,6.36-1.95,9.41-3.29,1.67-.74,3.25-1.66,4.63-2.89.33-.29.7-.55,1.04-.84,1.3-1.07,2.6-2.12,3.66-3.44.41-.53.83-1.04,1.27-1.55,1.32-1.53,2.7-3.01,3.57-4.88.26-.57.55-1.14.82-1.7ZM120.34,106.29c.7-.78,1.42-1.43,1.96-2.2,1.02-1.45,1.98-2.94,2.89-4.46.66-1.1,1.11-2.32,1.8-3.4.91-1.42,1.54-2.97,2.32-4.45.14-.26.24-.54.33-.82.49-1.6,1-3.2,1.46-4.81.42-1.45.64-2.93.33-4.45-.15-.7-.43-.89-1.01-.48-.52.36-1.04.77-1.44,1.26-.71.88-1.35,1.82-1.99,2.75-2.57,3.74-4.4,7.8-5.43,12.22-.27,1.17-.51,2.36-.68,3.55-.22,1.54-.37,3.08-.54,4.63-.02.18,0,.37,0,.68ZM95.16,102.36c-.18-.01-.31-.04-.42-.02-1.32.18-2.54.53-3.39,1.68-.36.49-.78.95-1.16,1.44-.71.93-1.18,1.98-1.44,3.12-.1.43-.19.96.26,1.2.47.26.83-.15,1.12-.49,1.38-1.63,2.75-3.27,4.12-4.91.46-.56.75-1.2.91-2.01ZM103.61,102.93c-.57-.32-.99-.05-1.38.25-1.19.91-2.36,1.85-3.54,2.77-.91.7-1.23,1.69-1.32,2.77-.05.56.07.74.46.88.47.17.85.07,1.16-.29.14-.16.31-.31.49-.44,2-1.43,3.14-3.48,4.09-5.66.03-.07.02-.14.04-.28ZM111.06,102.01c-.64.62-1.21,1.12-1.73,1.67-.55.59-1.12,1.19-1.58,1.85-.76,1.1-1.24,2.35-1.7,3.6-.05.13-.09.28-.1.43-.01.26-.08.62.23.71.22.06.62,0,.74-.16.43-.56,1.03-.88,1.59-1.28.58-.41.91-1.01,1.18-1.67.43-1.05.86-2.1,1.37-3.1.2-.38.27-.73.2-1.12-.04-.27-.11-.53-.2-.92ZM144,116.24c-.15.05-.22.05-.24.08-1.24,1.89-2.48,3.78-3.71,5.68-.01.02,0,.05,0,.07,0,.02.03.03.08.09.83-.2,1.68-.42,2.54-.62.31-.07.43-.25.47-.57.05-.44.17-.87.25-1.3.2-1.13.4-2.25.61-3.43ZM128.01,105.48c1.07-.7,2.47-2.7,2.49-3.38-.38-.1-.6.16-.78.41-.47.66-.94,1.33-1.36,2.02-.17.28-.24.64-.35.95ZM126.93,110.23c-.07-.33-.1-.57-.17-.79-.07-.23.03-.52-.27-.74-.1.51,0,.94.13,1.35.02.06.14.09.31.18Z"/>
    <path class="cls-5" d="M133.98,137.9c.36,0,.68.01.99,0,.7-.05,1.42.07,2.09-.29.26-.14.49.09.41.38-.03.12-.1.23-.18.32-.57.67-1.82,1.02-2.64.73-.54-.19-.62-.29-.66-1.14Z"/>
    <path class="cls-2" d="M120.94,107.84c.7-.75,1.42-1.49,2.09-2.28.54-.63,1.08-1.29,1.54-1.98,2.05-3.09,3.84-6.33,5.38-9.69.71-1.54,1.24-3.17,1.72-4.8.46-1.53.8-3.11,1.12-4.67.21-1.01.34-2.04.13-3.09-.13-.64-.44-1.1-1.04-1.33-.97-.37-1.84-.28-2.69.41-1.49,1.21-2.55,2.72-3.41,4.42-.38.75-.83,1.45-1.28,2.16-1.25,1.99-2.32,4.06-2.96,6.35-.3,1.06-.68,2.12-1.12,3.13-1.46,3.37-1.9,6.86-1.49,10.49.15,1.29.34,1.02-.79,1.99-.55.46-1.14.85-1.9.92-.83.08-1.47-.21-2-.86-.46-.58-.71-1.2-.77-1.95-.32-4.04.13-7.96,1.54-11.78.68-1.83,1.41-3.63,2.22-5.4.28-.61.52-1.23.77-1.85.11-.28.06-.54-.21-.71-.25-.16-.48-.05-.67.13-.62.61-1.25,1.23-1.55,2.06-.94,2.57-1.99,5.1-2.56,7.79-.22,1.01-.49,2.01-.75,3.02-.08.3-.2.59-.3.89-.1-.04-.18-.05-.19-.08-.31-.75-.57-.9-1.34-.61-.5.19-1.01.42-1.44.74-.88.63-1.88.84-2.92.94-.29.03-.58.04-.92.07-.09-.42-.59-.64-.32-1.2.11-.22-.2-.43-.47-.45-.14-.01-.3.04-.43.1-.86.37-1.72.73-2.56,1.14-.55.27-1.08.6-1.59.94-.73.49-1.54.51-2.35.42-.48-.05-.87-.57-.87-1.05,0-.14.03-.29.03-.44,0-.7-.31-1.13-.99-1.15-2.22-.06-4.23.45-5.61,2.37-.84,1.16-1.52,2.42-1.99,3.79-.02.06-.07.12-.2.35-.1-.59-.21-1.03-.25-1.48-.11-1.23-.14-2.47-.31-3.69-.16-1.16-.06-2.31-.13-3.47-.14-2.29-.41-4.57-.96-6.8-.8-3.24-1.9-6.38-3.23-9.44-.13-.3-.15-.66-.23-.99-.09-.36-.17-.72-.31-1.05-.51-1.15-1.1-2.26-1.91-3.24-.12-.15-.21-.33-.36-.57.27-.08.49-.16.72-.2,2.35-.43,4.7-.92,7.07-1.24,3.18-.43,6.37-.71,9.58-.78,1.37-.03,2.74-.33,4.11-.48.68-.08,1.37-.16,2.06-.14,2.07.05,4.14.12,6.21.24,1.9.11,3.79.31,5.68.48,3.07.27,6.14.51,9.21.84,2.45.26,4.9.6,7.33.97,2.27.35,4.55.65,6.77,1.2,3.51.88,6.97,1.99,10.32,3.39,1.66.69,3.34,1.36,4.97,2.12,3.1,1.45,5.95,3.3,8.56,5.52.28.24.55.49.79.78,1.7,2.02,3.34,4.08,4.46,6.51.36.78.53,1.58.66,2.41.02.12,0,.25-.04.36-.08.26-.07.48,0,.76.14.54.1,1.12-.38,1.57-1.53,1.43-3.01,2.92-4.69,4.19-1.34,1.01-2.61,2.1-3.92,3.16-.55.45-1.11.89-1.78,1.28.04-.17.07-.34.13-.5.7-1.73.88-3.54.88-5.37,0-.43-.13-.87-.21-1.3-.12-.62-.13-1.21.23-1.77.24-.37.47-.76.63-1.16.22-.55-.02-.89-.6-.86-.31.01-.67.05-.92.21-.98.63-1.65,1.49-1.65,2.71,0,.4-.09.7-.4.96-1.14.95-2.28,1.88-3.39,2.87-.9.8-1.73,1.67-2.59,2.52-.51.49-.91,1.08-1.55,1.46-.4.23-.67.69-1.14,1.01.02-.3.03-.6.06-.9.14-1.62.32-3.24.42-4.87.06-.93-.02-1.87-.03-2.81,0-.2,0-.39,0-.43.67-.58,1.26-1.05,1.81-1.58.81-.79,1.14-1.83,1.33-2.91.07-.37-.02-.78-.08-1.17-.04-.26-.23-.45-.52-.44-.29.01-.4.22-.48.48-.1.37-.23.74-.39,1.09-.3.65-.66,1.27-.69,2.01-.02.31-.18.58-.45.61-.63.07-1.32.34-1.87-.34.02-.11.07-.25.07-.39.01-.39-.13-.53-.51-.56-.71-.05-1.04.22-1.19.91-.06.28-.16.57-.32.79-1.37,1.9-2.74,3.81-4.17,5.66-.99,1.27-2.19,2.35-3.57,3.2-.37.23-.81.36-1.23.48-.38.11-.58-.01-.62-.41-.08-.66-.12-1.32-.09-1.99.01-.26.19-.55.38-.77.5-.57,1.05-1.11,1.58-1.66.29-.31.31-.61.02-.91-.25-.25-.54-.47-.91-.38-.65.15-1.27.35-1.59,1.05-.39.85-.82,1.68-1.25,2.52-.13.26-.28.54-.5.72-.88.71-1.79,1.39-2.7,2.06-.3.22-.63.39-.94.59-.44.29-.91.17-1.02-.35-.16-.78-.38-1.62.48-2.21.16-.11.28-.28.41-.43.98-1.2,1.97-2.4,2.93-3.62.36-.46.34-1.77.01-2.24-.37-.54-1.47-.62-2.09-.13-.25.2-.48.43-.65.7-.49.77-.95,1.56-1.4,2.34-.15.26-.25.54-.39.8-.59,1.14-1.41,2.06-2.56,2.68-.5.27-.92.66-1.39.99-.93.65-1.52.59-2.2-.43Z"/>
    <path class="cls-2" d="M119.36,109.26c.2.23.34.4.48.57.85,1.08,1.95,1.29,3.18.85.81-.29,1.58-.68,2.38-1.04,0,0,.06.02.07.05.11.45.09.97.56,1.23.64.35,1.31.56,2.06.43.58-.1,1.16-.24,1.74-.27.88-.05,1.54-.46,2.1-1.1.16-.18.29-.39.43-.59.06.04.12.07.18.1.03.13.05.26.09.39.26,1.02,1.36,1.8,2.43,1.76,1.11-.04,2-.44,2.66-1.35.29-.39.63-.76.99-1.1.79-.76,1.45-1.61,2-2.56.2-.34.47-.63.73-.93.89-1.02,1.85-2,2.46-3.23.31-.62.57-1.25,1.02-1.78.2-.23.39-.48.59-.71.19.43.31,1.02.26,1.59-.13,1.67-.23,3.35-.43,5.01-.22,1.86-.52,3.71-.81,5.56-.04.27-.19.58-.39.76-1.74,1.61-3.11,3.5-4.32,5.52-.73,1.23-1.44,2.47-2.18,3.69-.1.17-.28.36-.46.41-1.23.35-2.48.66-3.72.98-.31.08-.63.15-.95.16-2.19.03-4.3.52-6.43.92-1.86.35-3.75.58-5.63.86-1.1.16-2.2.32-3.3.46-2.45.31-4.92.42-7.38.32-2.51-.1-5.03-.21-7.54-.39-2.29-.17-4.57-.44-6.85-.69-1.79-.2-3.57-.49-5.36-.64-2.52-.2-4.95-.85-7.41-1.36-3.65-.75-7.24-1.73-10.85-2.64-1.45-.36-2.84-.98-4.25-1.48-1.04-.37-2.1-.71-3.12-1.14-2.24-.96-4.47-1.96-6.7-2.96-.37-.17-.7-.44-1.07-.67.73-.34,1.43-.61,2.07-.99.67-.4,1.29-.9,1.93-1.36.18-.13.35-.27.54-.39.25-.15.52-.25.55-.62.01-.16.23-.3.35-.46.62-.79,1.24-1.59,1.87-2.39.3-.38.61-.78.94-1.14.96-1.05,1.94-2.09,2.96-3.19.04.18.08.32.09.47.09.76.1,1.54.27,2.28.5,2.18,1.58,3.92,3.76,4.79,2.21.88,4.51,1.17,6.82.61,2.27-.56,4.38-1.5,5.85-3.49.63-.85,1.31-1.67,1.64-2.7.03-.08.1-.15.19-.27.39,1.39.72,2.71.81,4.09.03.53.26.86.69,1.14.85.54,1.76.62,2.71.41.23-.05.45-.2.63-.35.26-.22.51-.47.73-.74,1.44-1.79,2.86-3.59,3.75-5.74.05-.13.13-.26.2-.39.01-.02.04-.03.1-.07.73.54,1.61.53,2.62.53-.23.24-.37.4-.52.55-.77.75-1.34,1.64-1.82,2.59-.4.79-.4,1.62-.26,2.46.1.64.52,1,1.11,1.15.74.17,1.48.16,2.18-.14,1.82-.76,3.24-2.05,4.48-3.55.61-.74.85-1.66,1.03-2.59.04-.24.08-.48.13-.77.37.03.7.07,1.11.1-.08.18-.13.33-.21.47-.45.79-.91,1.58-1.36,2.37-.67,1.15-.7,2.4-.52,3.67.07.5.39.79.84.93.37.11.75.23,1.14.29.8.13,1.42-.31,2.03-.73.18-.12.33-.3.47-.47.72-.88,1.42-1.77,2.14-2.64.28-.33.62-.61,1.04-1.02.3,1.96,1.31,3.12,3.05,3.73,1.88.65,3.24-.21,4.59-1.41Z"/>
    <path class="cls-2" d="M56.43,89.42c-.07.6.04.73.59.61,1.08-.25,2.15-.52,3.17-.99.58-.27,1.2-.45,1.8-.66,1.14-.39,2.28-.79,3.43-1.17.43-.14.87-.38,1.43-.1-.06.2-.1.41-.19.59-.86,2.02-2.13,3.78-3.55,5.43-.88,1.03-1.77,2.05-2.66,3.08-.11.13-.21.27-.29.42-1.04,1.77-2.07,3.53-3.11,5.29-.79,1.34-1.61,2.66-2.16,4.12-.63,1.7-1.17,3.41-.79,5.26.05.24.03.49.05.78-.56-.12-.95-.45-1.29-.78-1.67-1.57-3.57-2.91-4.88-4.83-.86-1.26-1.65-2.58-2.31-3.95-.74-1.53-.56-3.17-.13-4.78.48-1.76,1.29-3.36,2.37-4.82.77-1.05,1.53-2.13,2.39-3.1,1.98-2.24,4.38-3.97,6.87-5.58,1.46-.94,3.05-1.59,4.63-2.3,1.85-.83,3.72-1.59,5.66-2.18,3.47-1.05,6.92-2.15,10.47-2.91.12-.03.24-.05.43-.08.12.16.26.32.37.51,1.05,1.95,2.1,3.91,3.15,5.86,1.6,2.99,2.64,6.18,3.21,9.49.49,2.87.85,5.77.84,8.68,0,1.59-.17,3.18-.96,4.59-1.07,1.91-2.45,3.49-4.62,4.26-1.05.37-2.09.72-3.21.8-1.87.15-3.64-.21-5.31-1-.86-.41-1.48-1.13-1.91-2-1.11-2.27-1.05-4.63-.48-7.01.33-1.36.87-2.66,1.38-3.97.06-.16.17-.33.16-.49-.01-.23-.06-.51-.2-.65-.1-.1-.4-.04-.6,0-.61.16-.96.6-1.25,1.15-.82,1.52-1.7,3.01-2.55,4.5-.31.54-.66,1.05-.92,1.6-.94,2-2.34,3.64-3.9,5.17-.54.53-1.03,1.13-1.49,1.74-.77,1.01-1.71,1.85-2.76,2.54-.14.09-.3.2-.46.23-1.02.2-1.26-.02-1.32-.92-.07-1.19.27-2.3.64-3.4.86-2.56,2.16-4.92,3.49-7.25,1.05-1.84,2.12-3.68,3.28-5.46,1.14-1.76,2.4-3.43,3.58-5.17.68-1,1.31-2.03,1.94-3.06.34-.55.35-1.12-.08-1.65-.26-.32-.59-.54-1.03-.49-.63.08-1.27.14-1.9.27-1.94.38-3.81,1-5.66,1.69-.95.35-1.9.7-2.84,1.06-.23.09-.46.19-.65.33-.12.09-.23.3-.21.42.03.1.25.16.39.24h-.02Z"/>
    <path class="cls-2" d="M168.94,102.42c-.28.57-.56,1.13-.82,1.7-.86,1.87-2.25,3.35-3.57,4.88-.44.51-.85,1.02-1.27,1.55-1.05,1.32-2.36,2.38-3.66,3.44-.34.28-.71.54-1.04.84-1.38,1.22-2.96,2.15-4.63,2.89-3.05,1.34-6.16,2.54-9.41,3.29-.1.02-.19.02-.36.04.02-.21.02-.4.06-.58.32-1.92.63-3.84.97-5.76.05-.3.18-.62.37-.86.66-.8,1.35-1.57,2.04-2.35.14-.16.31-.32.5-.44,1.52-.95,2.81-2.17,4.11-3.39,1.47-1.39,2.88-2.85,4.31-4.27.1-.1.21-.2.43-.39,0,.24.02.37,0,.49-.11.63-.22,1.26-.36,1.89-.2.85-.35,1.7-.13,2.56.09.37-.03.63-.31.84-.79.58-1.57,1.19-2.39,1.74-.66.44-.69.4-.51,1.17-.23.22-.64.38-.4.82.21.38.57.33.92.25.31-.07.63-.13.93-.25,2.47-.98,4.81-2.17,6.8-3.97.65-.59,1.45-1.03,2.16-1.55,1.7-1.24,3.3-2.59,4.67-4.2.14-.17.3-.32.45-.48.05.03.11.07.16.1Z"/>
    <path class="cls-2" d="M120.34,106.29c0-.3-.02-.49,0-.68.17-1.54.31-3.09.54-4.63.17-1.19.41-2.38.68-3.55,1.03-4.42,2.86-8.48,5.43-12.22.64-.93,1.28-1.87,1.99-2.75.4-.49.92-.9,1.44-1.26.58-.4.86-.22,1.01.48.32,1.52.09,3-.33,4.45-.46,1.61-.96,3.21-1.46,4.81-.09.28-.19.56-.33.82-.78,1.48-1.42,3.03-2.32,4.45-.69,1.08-1.14,2.29-1.8,3.4-.91,1.52-1.87,3.01-2.89,4.46-.54.77-1.26,1.42-1.96,2.2Z"/>
    <path class="cls-2" d="M95.16,102.36c-.17.81-.45,1.45-.91,2.01-1.37,1.64-2.74,3.28-4.12,4.91-.29.34-.64.75-1.12.49-.45-.24-.35-.78-.26-1.2.26-1.14.73-2.19,1.44-3.12.37-.49.79-.94,1.16-1.44.85-1.14,2.07-1.5,3.39-1.68.12-.01.24.01.42.02Z"/>
    <path class="cls-2" d="M103.61,102.93c-.02.14-.01.22-.04.28-.95,2.19-2.1,4.23-4.09,5.66-.18.13-.34.28-.49.44-.31.35-.69.46-1.16.29-.4-.14-.51-.32-.46-.88.1-1.08.41-2.07,1.32-2.77,1.19-.92,2.35-1.86,3.54-2.77.38-.29.81-.57,1.38-.25Z"/>
    <path class="cls-2" d="M111.06,102.01c.09.39.15.65.2.92.07.39,0,.74-.2,1.12-.51,1.01-.94,2.06-1.37,3.1-.27.65-.6,1.25-1.18,1.67-.55.39-1.16.71-1.59,1.28-.12.16-.52.23-.74.16-.31-.09-.24-.44-.23-.71,0-.15.05-.3.1-.43.46-1.25.94-2.5,1.7-3.6.46-.66,1.02-1.25,1.58-1.85.52-.55,1.09-1.05,1.73-1.67Z"/>
    <path class="cls-2" d="M144,116.24c-.21,1.18-.4,2.31-.61,3.43-.08.44-.2.87-.25,1.3-.04.31-.16.5-.47.57-.86.21-1.71.42-2.54.62-.05-.06-.07-.08-.08-.09,0-.02-.01-.06,0-.07,1.24-1.9,2.47-3.79,3.71-5.68.02-.03.09-.03.24-.08Z"/>
    <path class="cls-2" d="M128.01,105.48c.11-.32.17-.67.35-.95.42-.69.89-1.36,1.36-2.02.18-.25.4-.5.78-.41-.02.68-1.42,2.68-2.49,3.38Z"/>
    <path class="cls-2" d="M126.93,110.23c-.17-.09-.29-.12-.31-.18-.13-.41-.23-.84-.13-1.35.31.22.2.51.27.74.07.22.1.46.17.79Z"/>
    <path class="cls-1" d="M56.45,89.43c.25-.09.5-.18.74-.27-.19.3-.46.31-.76.26,0,0,.02.01.02.01Z"/>
    <g>
      <path d="M110.05,133.33c1.41,1.28,1.12,2.79-.63,3.34-.54.17-1.18.16-1.75.08-.7-.1-.84-.4-.85-1.17-.02-1.23-.1-2.45-.09-3.68.01-.99.31-1.23,1.3-1.2.9.03,1.65.45,2.29,1.03.18.16.2.6.16.9-.03.23-.26.44-.43.7ZM107.93,135.76c.83.25,1.41.12,1.86-.41.38-.45.16-.96-.42-1.02-.39-.04-.79,0-1.26,0-.07.53-.12.95-.18,1.44ZM109.25,132.56c0-.1-.01-.2-.02-.3-.47-.11-.95-.23-1.54-.37.02.42.04.73.07,1.21.59-.22,1.04-.38,1.49-.54Z"/>
      <path d="M122.36,134.22c.32.45.59.8.84,1.17.21.31.26.63-.07.89-.31.24-.66.2-.9-.08-.37-.41-.69-.87-1.13-1.42-.27.04-.66.1-1.09.16-.09.4-.14.76-.25,1.11-.04.11-.21.26-.31.25-.16-.02-.36-.12-.43-.25-.1-.18-.13-.42-.14-.64-.02-1.3,0-2.6-.02-3.9-.01-.54.23-.9.74-.92.96-.04,1.93-.08,2.76.57.92.72,1.08,1.68.4,2.62-.11.15-.25.28-.4.45ZM120.01,133.91c.65-.29,1.24-.49,1.75-.81.41-.26.3-.93-.12-.94-.64-.01-1.06-.38-1.58-.75-.31.83-.22,1.57-.05,2.49Z"/>
      <path d="M94.36,134.33c.02-.72.02-1.45.07-2.17.03-.4-.19-1.04.5-1.01.56.02.44.61.44.99-.01,1.16-.04,2.31-.08,3.47-.01.36.02.87-.44.9-.29.02-.7-.26-.88-.53-.52-.77-.96-1.59-1.43-2.4-.11-.18-.21-.37-.38-.67-.39,1.19.2,2.38-.35,3.42-.65-.12-.72-.58-.73-.96-.06-1.45-.09-2.91-.07-4.36,0-.59.52-.78.91-.33.46.53.82,1.15,1.17,1.76.37.63.68,1.3,1.02,1.95.09-.02.18-.03.27-.05Z"/>
      <path d="M58.68,130.46c1.18.68.72,1.67.97,2.6.74-.79,1.41-1.5,2.08-2.22.4-.43.83-.74,1.56-.43-.36,1.22-1.65,1.67-2.23,2.8.63,1.01,1.28,2.07,1.93,3.12-.82.56-.96.58-1.35,0-.48-.71-.9-1.45-1.35-2.19-.67.17-.79.62-.75,1.19.02.36.12.86-.39.89-.49.03-.52-.45-.53-.82-.06-1.3-.13-2.6-.16-3.9,0-.3.13-.61.22-1.03Z"/>
      <path d="M157.28,136.43c-1.37-.02-2.38-1.21-2.28-2.67.03-.44.15-.88.29-1.3.84-2.45,2.33-2.25,4.04-1.46.65.3,1.04.92.93,1.64-.13.91-.32,1.84-.66,2.69-.42,1.02-1.45,1.03-2.32,1.09ZM157.19,135.59c1.11-.03,1.5-.32,1.8-1.28.09-.28.17-.57.24-.86.26-1.09.23-1.15-.79-1.7-.55-.29-1.11-.24-1.54.15-.6.55-.96,2.15-.7,2.92.19.54.56.76.98.76Z"/>
      <path d="M86.56,131.33v1.62c.63,0,1.22,0,1.8,0,.31,0,.66.06.61.45-.03.18-.31.42-.51.47-.61.14-1.24.21-1.93.31v1.01c.73.06,1.43.12,2.12.17.22.02.46-.02.66.04.16.05.39.22.38.32-.02.18-.16.49-.3.51-1.02.17-2.05.33-3.08.38-.59.03-.79-.54-.8-1.03-.04-1.45,0-2.9,0-4.35,0-.55.31-.84.82-.86.66-.02,1.34,0,1.99.09.22.03.53.31.58.52.08.42-.3.55-.64.59-.21.02-.43-.08-.65-.11-.32-.05-.64-.08-1.05-.13Z"/>
      <path d="M82.88,136.49c-.85-.58-.25-1.54-.63-2.34h-2.27c0,.5.04,1.01-.02,1.51-.02.21-.24.39-.38.58-.15-.19-.42-.37-.43-.56-.09-1.53-.15-3.05-.17-4.58,0-.19.24-.38.38-.58.15.18.41.34.44.53.1.58.11,1.17.16,1.83h2.4c0-.5,0-1.01,0-1.52,0-.31.07-.68.45-.62.19.03.44.39.45.62.08,1.41.12,2.82.15,4.23.01.38-.05.75-.55.88Z"/>
      <path d="M115.73,135.29h-1.87c-.19.43-.35.87-.58,1.29-.07.13-.28.19-.43.28-.1-.17-.3-.37-.28-.52.1-.51.28-1,.42-1.5.33-1.14.61-2.3.98-3.43.27-.83.84-.92,1.38-.23.29.37.5.83.65,1.28.37,1.09.7,2.2,1,3.31.06.23-.02.65-.18.75-.37.23-.6-.08-.74-.42-.11-.27-.24-.54-.37-.82ZM115.45,134.04c-.24-.61-.2-1.23-.75-1.73-.2.61-.36,1.12-.55,1.73h1.3Z"/>
      <path d="M143.1,135c-.64,0-1.2,0-1.75,0-.11,0-.21.05-.35.08-.26.48-.53.98-.83,1.52-.55-.41-.31-.77-.19-1.09.53-1.39,1.08-2.76,1.62-4.15.13-.33.25-.67.44-1.16.34.26.62.39.76.6.2.3.38.66.43,1.01.2,1.53.85,2.91,1.32,4.35.07.23.07.66-.07.76-.35.24-.64-.05-.78-.37-.23-.5-.4-1.03-.6-1.57ZM141.36,134.08c.5-.05.84-.08,1.26-.12-.12-.67-.22-1.23-.32-1.79-.07,0-.14-.02-.21-.03-.23.6-.46,1.2-.74,1.94Z"/>
      <path d="M76.86,131.61c-.23.02-.38.07-.51.04-1.1-.25-1.74.35-2.26,1.2-.58.94-.18,2.18.82,2.61.52.22.93,0,1.38-.18.77-.31,1.17-.27,1.24.12.11.62-.45.67-.83.86-1.57.8-3.01.07-3.7-1.02-.67-1.05-.43-2.11.11-3.07.53-.94,1.36-1.57,2.54-1.51.56.03,1.01.22,1.21.95Z"/>
      <path d="M135.31,135.34c-.17.26.23,1.02-.51,1.34-.49-.34-.23-.83-.33-1.24-.09-.38-.21-.76-.33-1.22.57-.58.34-1.38.34-2.14,0-1.17.18-1.39,1.34-1.37.4,0,.83.06,1.2.2,1.52.6,1.83,2.12.59,3.18-.6.51-1.4.77-2.3,1.25ZM135.46,131.53c-.04.64-.12,1.26-.11,1.88,0,.59.35.78.89.53.6-.28,1.07-.69,1.14-1.39.05-.44-.5-.84-1.29-1.02-.17-.04-.36,0-.64,0Z"/>
      <path d="M101.33,129.24c.1.45.21.75.23,1.05.09,2.23.15,4.47.23,6.71,0,.19.06.4-.01.55-.11.25-.3.46-.45.68-.22-.18-.48-.33-.64-.55-.11-.16-.11-.43-.12-.65,0-2.12-.01-4.25.01-6.37,0-.46-.02-.98.75-1.42Z"/>
      <path d="M69.28,136.12c-.76-1.36-.08-2.89-.47-4.32-.43-.06-.87-.1-1.3-.2-.15-.03-.37-.23-.37-.34.01-.18.16-.38.29-.53.09-.1.27-.15.41-.15,1.11-.05,2.23-.08,3.34-.11.34,0,.63.16.55.52-.06.24-.28.56-.49.62-.38.12-.81.07-1.35.1-.09,1.1-.06,2.21-.08,3.31,0,.38.12.84-.53,1.09Z"/>
      <path d="M147.48,131.69c-.45.05-.78.16-1.1.11-.21-.03-.38-.27-.57-.41.16-.21.3-.58.49-.61,1.07-.14,2.14-.2,3.22-.26.39-.02.66.22.69.59.05.46-.32.51-.68.53-.26.02-.51.04-.91.08,0,.49,0,.96,0,1.42,0,.85.03,1.71.02,2.56,0,.3-.1.66-.49.58-.17-.04-.37-.36-.39-.57-.07-.7-.04-1.41-.08-2.12-.04-.62-.13-1.24-.2-1.91Z"/>
      <path d="M128.77,137.39c-.31-.59-.65-1.18-.64-1.89.03-1.75.08-3.5.14-5.25,0-.26.12-.51.19-.77.08,0,.16-.01.25-.02.11.2.3.4.33.61.09.63.15,1.26.16,1.89.03,1.45.04,2.91.04,4.36,0,.34-.09.69-.14,1.03l-.33.03Z"/>
      <path d="M152.45,130.11c.19.28.36.41.37.56.1,1.86.18,3.73.26,5.61-.75.15-1.01-.26-1.06-.68-.18-1.66-.24-3.32.08-4.97.03-.13.15-.23.35-.51Z"/>
      <path d="M65.22,136.43c-.23-.37-.52-.63-.53-.89-.04-1.55,0-3.11,0-4.66,0-.06.09-.11.18-.21.57.02.96.26.92.93-.07,1.44-.15,2.88-.24,4.32,0,.09-.11.18-.34.51Z"/>
      <path class="cls-7" d="M107.93,135.76c.06-.49.12-.91.18-1.44.46,0,.86-.03,1.26,0,.58.06.8.57.42,1.02-.45.53-1.04.66-1.86.41Z"/>
      <path class="cls-7" d="M109.25,132.56c-.45.16-.9.33-1.49.54-.03-.48-.05-.79-.07-1.21.59.14,1.07.25,1.54.37,0,.1.01.2.02.3Z"/>
      <path class="cls-7" d="M120.01,133.91c-.17-.92-.26-1.66.05-2.49.52.36.94.73,1.58.75.42,0,.53.68.12.94-.51.32-1.1.52-1.75.81Z"/>
      <path class="cls-7" d="M157.19,135.59c-.43,0-.8-.22-.98-.76-.26-.76.1-2.37.7-2.92.43-.39.99-.45,1.54-.15,1.02.55,1.05.61.79,1.7-.07.29-.15.58-.24.86-.3.96-.69,1.25-1.8,1.28Z"/>
      <path class="cls-7" d="M115.45,134.04h-1.3c.19-.6.36-1.12.55-1.73.55.5.51,1.11.75,1.73Z"/>
      <path class="cls-7" d="M141.36,134.08c.28-.74.51-1.34.74-1.94.07,0,.14.02.21.03.1.56.2,1.11.32,1.79-.42.04-.77.07-1.26.12Z"/>
      <path class="cls-7" d="M135.46,131.53c.28,0,.46-.03.64,0,.8.17,1.34.58,1.29,1.02-.07.7-.55,1.11-1.14,1.39-.54.25-.89.06-.89-.53,0-.62.07-1.24.11-1.88Z"/>
    </g>
  </g>
  <g>
    <polygon class="cls-6" points="28.38 91.18 4.82 125.67 5.99 127.16 50.94 125.6 34.79 95.94 29.99 90.32 28.38 91.18 28.38 91.18"/>
    <path class="cls-3" d="M27.21,95.65c-.85.37-.24-.86-1.09-.48-.41.14-.18.85-1.03.59-.33,1.41-.66,2.8-1.98,3.31-.32,1.48.75,1.42,1.18,2.08-1.86,1.36-1.87,5.71-5.14,4.27.3.79,1.28.83,1.43,1.8-.71.36-1.23.5-1.57.61,1.14.93-.3.7-.74,1.37-1.14,1.77-1.76,4.56-3.76,5-.07,1.29-.54,2.23-1.76,2.49.68,1.38-.39.19-.76.84,1.72.32-1.1,1.17.1,1.87-1.9.4-1.44,2.95-2.75,3.88-.17-.46.25-1.59-.34-1.59,0,.42.09.93-.5.83-.28.88.87.16.59,1.04-1.11.27-.9,1.73-1.48,2.49,2.78-.62,7.3-.66,10.41-.52.04-.21-.02-.53.24-.55,10.35.95,18.6-.66,31.25-1-.58-2.8-3.06-4.15-4.03-5.69-.32-2.37-2.56-2.61-2.66-5.22-1.2.18-1.03-.95-.88-1.55-1.06.02-2.03-1.7-1.17-2.09-.83.45-.9-.16-1.63-.46-1.93-5.83-6.54-9.94-8.75-14.54.01.27-.45.36-.53.02.32-.04.63-.11.51-.56-.75.26-.71-.34-1.35-.2-1.29,1.8-1.87,4.25-4.02,5.28.56.92-.2,1.3-.7,1.91-.33-1.06-.07-2.08.39-2.96.44-.02.18.73.57.78.06-1.15.97-3.33,1.76-2.23-.03-.37.09-.59.22-.82h0ZM42.81,107.99c1.58.23,1.17,2.66,2.82,2.81.04,1.73.93,2.54,2.03,3.11-.12,1.83.91,2.37,2.01,2.85.12.45-.18.51-.51.56.38.37,1.26.61.6,1.31.21-.15.42-.3.78-.31.12.54-.01.84-.49.83.53.68,2.07,2.13,1.2,2.61.27.45.86.55,1.62.46.15,2.18,1.35,3.2,1.35,5.55-.26-.15-1.01-.57-.78.3-.48-.5-1.86,0-1.92-.97-.59,1.05-1.83-.7-3.17.7-.81.13-.6-.84-.87-1.3-.76.27.38.65.07,1.33-.21-.17-.9-1.08-.8.04-3.73-.26-9.26-.28-12.56.08-.01-.26-.03-.53-.04-.8-1.21.71-2.61.85-3.74.19-.72,1.04-5.69,1.07-7.21.36-2.93,1.68-9.46.1-10.87,1.87-2.3-1.29-6.26.17-9.14-.88-.27-.84.18-1.02.47-1.37-1.07-.04-.45-.2-.62-1.84,1.24-.41,1.75-1.46,1.72-3.03,1.24.2.54-1.37,1.81-1.16-.23-.81-.22-.5-.07-1.34,1.81.2.72-2.23,2.29-2.25-.18-.27-.63-.25-.57-.78,1.07.3.5-.9,1.57-.61-.02-.45-.04-.89-.07-1.33.23-.22.59-.32,1.05-.32,1.57-4.03,4.49-6.81,6.16-10.74.92-.02,1.21-.6.99-1.66.78.04.78-.64,1.57-.61.65-3.58,4.06-4.66,4.67-8.26,2.93-.65,2.23-4.6,5.08-5.33-.18-.26-.62-.25-.58-.77.88-.06,1.31-.52,2.39-.39,1.2.85-.31,1.37,1.4,1.27-1.1,1.21.34,4.73,1.55,4.2.39.07.07,2.02,1.42,1.8-.14.82.33.96.36,1.59,3.43,2.87,4.09,8.8,7.53,11.66.12.45-.18.52-.51.56h0Z"/>
    <text class="cls-8" transform="translate(18.04 122.3) scale(.79 1)"><tspan x="0" y="0">37</tspan></text>
  </g>
</svg>