<?xml version="1.0" encoding="UTF-8"?>
<svg id="Layer_1" data-name="Layer 1" xmlns="http://www.w3.org/2000/svg" viewBox="0 0 180 200">
  <defs>
    <style>
      .cls-1, .cls-2 {
        fill-rule: evenodd;
      }

      .cls-1, .cls-3 {
        fill: #231f20;
      }

      .cls-4, .cls-5 {
        fill: #fff;
      }

      .cls-2 {
        fill: #ffda40;
      }

      .cls-3 {
        font-family: AmericanTypewriter-Bold, 'American Typewriter';
        font-size: 20.52px;
        font-weight: 700;
      }

      .cls-5 {
        stroke: #000;
        stroke-width: 1.71px;
      }
    </style>
  </defs>
  <g>
    <path class="cls-5" d="M47.57,84.27s.56,19.99.56,21.1,1.11,13.88,1.11,15.27.83,9.99,1.11,11.1.56,1.67.83,2.5,2.78,3.05,2.78,3.05c0,0,4.16,1.39,11.38,1.39s54.96.28,58.57.28,46.35-2.5,47.46-2.5,4.44-.56,4.72-1.94.28-8.88.28-11.1-1.39-24.98-1.39-26.92-.83-14.16-.83-15.54-.28-3.05-.28-3.05c0,0-3.05-1.39-4.44-1.94s-3.05-1.39-5.83-1.39-18.32.56-20.54.56-26.92-.28-31.64,0-51.63,3.05-52.74,3.05-5.27.56-6.66.56-4.44.83-4.44,1.67v3.89Z"/>
    <path d="M135.75,94.65c-.67.09-1.13.17-1.6.21-.39.03-.82.13-1.15,0-.36-.15-.74-.49-.89-.84-.21-.51.11-.98.6-1.18.53-.22,1.11-.42,1.69-.45,2.02-.12,3.17-1.09,3.93-3.02.76-1.93,1.49-3.92,2.85-5.58.84-1.01,1.46-1.38,2.16-.99.73.41.71,1.28.07,2.46-1.05,1.92-2.04,3.86-3.14,5.95,1.16.17,2.1-.12,3.04-.11,1.79.02,2.89-.65,3.59-2.45.78-1.98,2.02-3.78,3.07-5.65.42-.75.95-1.03,1.52-.81.72.28.93.9.77,1.56-.19.8-.48,1.58-.83,2.32-.63,1.36-1.33,2.69-2.14,4.33.91-.06,1.51-.11,2.11-.14.89-.05,1.37.22,1.51.82.16.65-.23,1.3-1.06,1.51-.75.19-1.54.31-2.31.3-.79,0-1.24.27-1.6.98-1.71,3.35-3.35,6.73-4.13,10.45-.13.62-.25,1.25-.27,1.88-.02.74.25.98.99.89,1.14-.14,2.04-.72,2.6-1.7,1.23-2.16,2.41-4.35,3.56-6.55.91-1.73,1.72-3.5,2.63-5.23.85-1.61,1.95-3.05,3.37-4.21,1.94-1.58,4.12-1.92,6.46-1.03,1.04.39,1.63,1.13,1.83,2.26.38,2.19-.29,3.96-1.97,5.35-2.49,2.06-5.29,3.48-8.57,3.78-1.19.11-1.36.22-1.51,1.38-.15,1.15-.18,2.34-.09,3.5.1,1.2.64,1.58,1.82,1.67,1.69.13,3.19-.39,4.54-1.34,2.2-1.55,4.28-3.24,6.08-5.26.1-.11.18-.23.28-.34.72-.75,1.35-.89,1.9-.41.51.44.55,1.23-.05,1.98-.64.8-1.33,1.57-2.1,2.24-1.47,1.28-2.97,2.54-4.55,3.68-1.82,1.32-3.85,2.03-6.16,1.92-1.85-.08-3.2-.75-3.86-2.55-.1-.27-.25-.51-.49-1-.45.64-.81,1.13-1.14,1.64-.84,1.28-2.04,2.09-3.49,2.51-2.31.68-3.75-.05-4.68-2.44-.29.31-.52.57-.76.82-.88.91-1.72,1.87-2.66,2.7-1.04.91-2.29,1.09-3.55.47-1.33-.66-2.37-1.57-2.24-3.26.02-.28,0-.57,0-1.11-.37.4-.62.6-.8.85-1.33,1.83-2.91,3.41-4.71,4.78-1.16.88-2.49,1.34-3.92,1.47-2.81.27-5.61-2.05-5.17-4.8.04-.27-.02-.55-.05-1.01-.4.27-.67.44-.92.64-.69.54-1.34,1.14-2.07,1.63-1.17.8-2.3,1.59-3.1,2.83-.62.96-1.66,1.5-2.76,1.84-1.67.52-3.05-.02-3.79-1.59-.47-.99-.72-2.09-1.09-3.2-.07.05-.32.15-.48.33-1.75,1.88-3.82,3.32-6.14,4.41-.43.2-.8.54-1.16.86-.68.61-1.43,1.01-2.35,1.07-1.61.1-2.65-.57-3.05-2.12-.25-.98-.29-2.02-.43-3.14-.25.21-.5.39-.7.62-1.17,1.31-2.33,2.63-3.5,3.94-.16.18-.35.34-.52.52-1.53,1.65-3.51,2.1-5.11-.78-.75.62-1.48,1.23-2.23,1.82-.81.65-1.69,1.14-2.78,1.18-2.08.09-3.69-1.13-4.12-3.17-.11-.51-.18-1.03-.31-1.77-.47.53-.83.92-1.17,1.31-.61.7-1.18,1.44-1.81,2.11-1.89,2-4.11,3.14-6.94,2.5-2.97-.68-4.68-2.7-5.55-5.48-.68-2.19-.6-4.46-.18-6.68,1.19-6.28,4.31-11.46,9.25-15.52,1.75-1.44,3.8-2.17,6.09-2.15,1.6.02,2.96.58,3.95,1.88.92,1.21,1.01,2.48.03,3.63-.97,1.14-2.11,2.16-3.25,3.15-.64.56-1.57.42-1.98-.12-.43-.57-.27-1.28.46-1.91.77-.68,1.6-1.29,2.33-2,.83-.82.73-1.51-.38-1.85-.84-.26-1.84-.29-2.71-.12-.93.19-1.92.58-2.64,1.18-5.56,4.56-8.89,10.29-8.93,17.65,0,1.71.48,3.27,1.67,4.57,1.44,1.57,3.63,1.97,5.44.86.65-.4,1.24-.95,1.76-1.52,1.18-1.3,2.28-2.68,3.44-4,.45-.51.89-1.16,1.47-1.39.98-.4,1.33-1.2,1.81-1.99,1.56-2.54,3.25-4.99,5.37-7.11.21-.21.43-.4.65-.59,2.09-1.72,3.64-1.76,5.86-.1.22-.31.44-.62.66-.93.4-.58.93-.87,1.63-.61.63.23.93.88.65,1.73-.32.97-.68,1.96-1.2,2.82-1.38,2.28-2.24,4.76-3.09,7.26-.5,1.49-.85,3-.59,4.76.33-.2.64-.3.84-.51,2.04-2.17,4.13-4.27,5.47-7.01,1.29-2.64,2.92-5.1,5.04-7.16,1.18-1.15,2.54-2.12,3.83-3.16.22-.18.53-.38.78-.36.45.04,1,.11,1.29.4.24.24.24.8.22,1.21-.02.26-.24.53-.42.75-1.66,2.14-2.07,4.52-1.66,7.18.23,1.52.04,3.09.04,4.7.75-.29,1.5-.82,2.07-1.51,1.38-1.64,2.74-3.3,4.01-5.03,1.01-1.37,1.88-2.85,2.81-4.29,1.18-1.83,2.66-3.37,4.42-4.64.51-.37,1.08-.67,1.67-.89.53-.2,1.15-.11,1.42.43.19.38.19.92.09,1.36-.09.41-.37.8-.62,1.15-1.56,2.13-1.59,4.54-1.29,7.01.12,1.01.25,2.02.41,3.28.52-.44.88-.74,1.24-1.05.74-.64,1.41-1.38,2.22-1.91,1.13-.73,1.66-1.81,2.29-2.93,1.06-1.91,2.28-3.75,3.59-5.5,1.08-1.44,2.66-2.27,4.38-2.78,2.59-.77,4.04.46,3.69,3.11-.37,2.83-1.83,4.94-4.36,6.19-1.52.75-3.13,1.35-4.75,1.85-1,.31-1.48.84-1.53,1.84-.04.73-.13,1.46-.15,2.19-.03,1.23.68,2,1.92,2.12,1.12.11,2.17-.16,3.03-.85,1.06-.85,2.15-1.71,3.03-2.75,3-3.54,5.89-7.17,7.62-11.55.15-.39.3-.78.52-1.37ZM144.62,93.47c-1.06.08-1.82.24-2.57.18-2.44-.18-3.69,1.05-4.41,3.27-.96,2.96-2.1,5.86-3.14,8.8-.28.8-.28,1.63.18,2.4.43.72.75.85,1.39.33.68-.54,1.37-1.13,1.85-1.84,1.48-2.17,3.02-4.33,4.22-6.65,1.02-1.96,1.6-4.15,2.47-6.49ZM73.12,113.81c0,.15,0,.29,0,.44,0,.71.09,1.41.78,1.77.78.41,1.5.14,2.17-.36,1.26-.95,2.35-2.02,2.99-3.51,1.26-2.9,2.54-5.79,3.88-8.66.38-.82-.1-1.33-.5-1.83-.44-.54-1.1-.38-1.59-.03-.63.45-1.28.93-1.75,1.53-1.37,1.71-2.75,3.43-3.94,5.26-1.06,1.62-2.02,3.35-2.05,5.4ZM104.25,108.72c1.64.21,1.61.21,1.84,1.76.11.76.19,1.71,1.05,1.92.79.19,1.44-.43,1.97-1.04.13-.15.23-.31.34-.47.85-1.22,1.05-2.57.94-4.03-.16-2.03-.21-4.07-.32-6.1,0-.06-.12-.11-.29-.25-1.82,2.7-3.63,5.39-5.53,8.21ZM95.5,102.86l-.41-.09c-2.08,2.28-3.6,4.91-4.93,7.74,1.83.01,2,.17,2.16,1.88.04.39.04.79.13,1.16.14.57.63.77,1.11.43.26-.19.52-.48.64-.78.46-1.17,1.13-2.34,1.24-3.56.2-2.25.06-4.53.06-6.79ZM154.27,97.2c3.22-.22,5.54-1.67,7.59-3.6.43-.41.61-1.2.69-1.84.1-.92-.18-1.19-1.13-1.37-1.18-.22-2.24.11-3.14.86-1.82,1.54-2.98,3.55-4.01,5.95ZM127.81,96.11c-3.37.83-4.82,3.42-6.37,6.15,3.97-.74,6.81-3.32,6.37-6.15Z"/>
    <path d="M97.85,126.54c-.92-1.83-.52-2.91,1.35-3.51.64-.21,1.32-.31,2-.39.17-.02.49.21.53.38.04.16-.13.51-.29.58-.44.19-.93.27-1.4.39-.64.17-1.34.27-1.51,1.32,1.38.04,2.69.44,3.56-1.09.51.44,1.01.75,1.32,1.19.16.23.14.89-.04,1.01-.69.47-.52,1.07-.47,1.7.09,1.11-.11,1.45-1.18,1.61-.86.13-1.75.18-2.62.13-1.72-.09-2.36-1.32-1.55-2.85.09-.17.21-.32.3-.46ZM101.74,128.71c-.07-.78-.11-1.25-.15-1.73-1.02-.15-1.93-.03-2.74.45-.23.13-.4.55-.4.83,0,.15.41.42.65.43.81.05,1.62.02,2.64.02Z"/>
    <path d="M142.76,120.98c.29.21.5.33.67.49.82.79.86,1.84-.05,2.51-1.36,1-2.93,1.42-4.83,1.46-.17-2.43.08-4.74,0-7.09,1.37-.77,2.78-.7,4.14-.37,1.22.3,1.46,1.56.6,2.51-.13.14-.29.26-.55.49ZM139.35,124.7c1.25-.47,2.22-.79,3.13-1.22.28-.13.59-.63.54-.89-.05-.27-.52-.6-.83-.63-.85-.09-1.72-.03-2.71-.03-.04.94-.08,1.69-.13,2.77ZM142.98,119.32c-1.08-.96-2.19-.64-3.38-.46v1.84c1.63-.04,2.42-.35,3.38-1.39Z"/>
    <path d="M157.67,119.53c.23,1.27,1.19,2.23.87,3.69-1.39-.82-1.34-2.28-2.1-3.26h-1.73c-.07.83-.12,1.59-.2,2.35-.03.28-.06.59-.2.82-.23.37-.78.3-.92-.11-.09-.27-.11-.57-.1-.86.05-1.51.12-3.02.19-4.53.06-1.17.19-1.36,1.35-1.49.9-.1,1.88-.24,2.72,0,1.76.51,1.95,1.76.58,3-.14.13-.3.25-.46.38ZM158.15,117.63c-.79-.28-1.31-.58-1.86-.65-1.37-.17-1.75.37-1.36,1.86,1.11.05,2.16-.08,3.22-1.21Z"/>
    <path d="M86.26,124.59c1.4-.36,2.92-.61,4.47-.55.21,0,.41.3.62.46-.18.2-.32.53-.53.58-.52.11-1.06.06-1.59.13-.52.07-1.04.2-1.65.33-.02.45-.04.86-.07,1.33.71.08,1.33.14,1.96.21.03.12.06.25.09.37-.28.2-.53.48-.84.58-1.46.47-1.46.45-1.46,1.95,0,.09.05.18.1.38,1.28.17,2.6-.55,3.88-.1.23.57-.06.83-.48.9-1.29.21-2.59.39-3.9.54-.64.07-.84-.36-.8-.94.07-1.07.17-2.13.21-3.2.03-.91,0-1.81,0-2.97Z"/>
    <path d="M76.49,131.3h-3.19c-.31.54-.53,1.03-.85,1.45-.14.19-.47.23-.71.34-.08-.29-.32-.64-.23-.87.39-1,.87-1.96,1.32-2.93.49-1.06.96-2.13,1.49-3.17.13-.26.45-.51.73-.57.14-.03.45.33.56.57.82,1.82,1.61,3.65,2.41,5.47.04.09.12.19.11.27-.05.3-.14.59-.21.88-.25-.11-.57-.15-.73-.33-.28-.32-.47-.73-.7-1.12ZM73.72,130.17c.84-.06,1.39-.1,2.13-.15-.35-.8-.61-1.38-.98-2.22-.44.9-.72,1.5-1.15,2.37Z"/>
    <path d="M132.09,126.17c-.32.14-.63.34-.96.39-1.06.15-2.12.26-3.18.36-.85.08-1.13-.16-1.16-1.08-.03-1.02.03-2.05.03-3.07,0-.96,0-1.93,0-3.02,1.49-.6,3.12-.39,4.68-.61.16-.02.35.23.65.43-1.21,1.01-2.65.37-3.98,1.03-.05.39-.12.93-.2,1.53.93.07,1.71.13,2.67.21-.67,1.26-1.83.66-2.61,1.23v2.05c1.32.5,2.74-.49,4,.15.02.13.04.25.05.38Z"/>
    <path d="M109.65,121.71c1.14,0,2.22-.15,3.24.03,2.36.42,3.18,2.99,1.58,4.79-1.22,1.37-2.91,1.87-4.62,2.27-.59.14-.89-.23-.83-.86.1-1.01.15-2.03.26-3.04.1-1.01.23-2.01.37-3.19ZM110.06,127.55c1.49-.17,2.79-.74,3.52-1.5,1.22-1.27.8-2.94-.88-3.35-.64-.16-1.33-.14-2.15-.21-.17,1.78-.33,3.41-.48,5.07Z"/>
    <path d="M149.7,122.2c-.78.09-1.64.19-2.53.29-.23.47-.43.91-.66,1.32-.2.36-.35.93-.91.64-.15-.08-.15-.7-.03-1,.81-2.13,1.68-4.24,2.51-6.32.68-.19,1.14,0,1.36.6.68,1.82,1.35,3.65,1.99,5.48.07.19-.06.45-.1.71-1.04-.08-.88-1.12-1.62-1.73ZM148.63,119.13c-.41.91-.67,1.5-1.03,2.3.76-.11,1.24-.19,1.84-.28-.28-.7-.49-1.22-.81-2.02Z"/>
    <path d="M85.18,125.33c-1.26,1-2.74.39-4.12.88-.09.43-.18.94-.32,1.61h2.51c.23.91-.27,1.04-.84,1.11-.52.06-1.05.12-1.69.2-.06.7-.11,1.32-.17,1.94-.03.34-.04.69-.14,1.01-.04.15-.29.35-.41.33-.2-.03-.43-.19-.56-.36-.1-.14-.09-.38-.08-.57.07-1.17.12-2.34.23-3.5.09-.97.24-1.93.38-3.02,1.58-.07,3.12-.15,4.66-.18.15,0,.31.31.54.55Z"/>
    <path d="M69.76,128.11c-.31-.09-.66-.19-1-.29-1.16-.33-2.12.04-2.61,1-.62,1.21-.37,2.8.56,3.47.61.44,1.21.35,1.95-.33.38-.35.72-1,1.27-.39.54.59-.14.96-.5,1.29-1.48,1.33-3.14,1.12-4.23-.5-1.47-2.2-.1-5.51,2.44-5.79.59-.06,1.24.14,1.81.35.41.15.7.54.31,1.2Z"/>
    <path d="M122.66,127.23c-1.33-1.95-2.04-4.18-3.06-6.24-.08-.16.03-.42.07-.76,1.21.33,1.21,1.41,1.62,2.15.45.8.8,1.66,1.24,2.58.69-.51.82-1.24,1.06-1.88.33-.86.59-1.75.9-2.62.1-.27.21-.57.4-.77.13-.13.47-.21.61-.13.15.08.32.43.26.58-.88,2.31-1.8,4.6-2.71,6.89-.01.03-.08.05-.38.2Z"/>
    <path d="M116.8,127.71c-.49-1.45-.24-5.86.31-6.9.12.05.36.1.36.15-.03,2.03-.07,4.06-.14,6.09,0,.17-.26.33-.53.66Z"/>
    <path class="cls-4" d="M144.62,93.47c-.87,2.34-1.45,4.52-2.47,6.49-1.21,2.32-2.75,4.48-4.22,6.65-.48.71-1.17,1.3-1.85,1.84-.65.52-.97.38-1.39-.33-.46-.77-.46-1.6-.18-2.4,1.03-2.94,2.18-5.84,3.14-8.8.72-2.22,1.97-3.45,4.41-3.27.75.05,1.51-.1,2.57-.18Z"/>
    <path class="cls-4" d="M73.12,113.81c.02-2.05.99-3.77,2.04-5.4,1.19-1.83,2.57-3.55,3.94-5.26.48-.6,1.12-1.08,1.75-1.53.49-.35,1.15-.52,1.59.03.4.49.88,1.01.5,1.83-1.33,2.87-2.62,5.76-3.88,8.66-.65,1.49-1.73,2.57-2.99,3.51-.67.5-1.39.77-2.17.36-.69-.36-.78-1.06-.78-1.77,0-.15,0-.29,0-.44Z"/>
    <path class="cls-4" d="M104.25,108.72c1.9-2.82,3.71-5.51,5.53-8.21.17.14.29.19.29.25.11,2.03.16,4.07.32,6.1.11,1.46-.09,2.81-.94,4.03-.11.16-.22.33-.34.47-.53.6-1.18,1.23-1.97,1.04-.86-.21-.94-1.16-1.05-1.92-.23-1.55-.2-1.55-1.84-1.76Z"/>
    <path class="cls-4" d="M95.5,102.86c0,2.27.14,4.54-.06,6.79-.11,1.21-.78,2.38-1.24,3.56-.12.3-.37.58-.64.78-.47.34-.97.14-1.11-.43-.09-.38-.1-.77-.13-1.16-.16-1.72-.33-1.87-2.16-1.88,1.33-2.83,2.85-5.46,4.93-7.74l.41.09Z"/>
    <path class="cls-4" d="M154.27,97.2c1.03-2.4,2.19-4.4,4.01-5.95.89-.76,1.96-1.09,3.14-.86.94.18,1.23.45,1.13,1.37-.07.64-.25,1.43-.69,1.84-2.04,1.93-4.37,3.38-7.59,3.6Z"/>
    <path class="cls-4" d="M127.81,96.11c.44,2.83-2.4,5.41-6.37,6.15,1.55-2.73,3-5.32,6.37-6.15Z"/>
    <path class="cls-4" d="M101.74,128.71c-1.01,0-1.83.03-2.64-.02-.24-.02-.65-.28-.65-.43,0-.28.17-.7.4-.83.81-.47,1.72-.6,2.74-.45.04.48.08.94.15,1.73Z"/>
    <path class="cls-4" d="M139.35,124.7c.05-1.08.09-1.83.13-2.77.98,0,1.85-.06,2.71.03.31.03.78.37.83.63.05.26-.26.76-.54.89-.91.43-1.88.74-3.13,1.22Z"/>
    <path class="cls-4" d="M142.98,119.32c-.97,1.04-1.75,1.35-3.38,1.39v-1.84c1.2-.19,2.3-.51,3.38.46Z"/>
    <path class="cls-4" d="M158.15,117.63c-1.05,1.13-2.1,1.26-3.22,1.21-.39-1.49-.01-2.03,1.36-1.86.55.07,1.07.36,1.86.65Z"/>
    <path class="cls-4" d="M73.72,130.17c.42-.87.71-1.47,1.15-2.37.37.85.63,1.43.98,2.22-.74.05-1.28.09-2.13.15Z"/>
    <path class="cls-4" d="M110.06,127.55c.16-1.66.31-3.29.48-5.07.82.08,1.51.06,2.15.21,1.68.41,2.1,2.08.88,3.35-.73.76-2.03,1.33-3.52,1.5Z"/>
    <path class="cls-4" d="M148.63,119.13c.32.8.53,1.32.81,2.02-.6.09-1.08.16-1.84.28.36-.8.62-1.39,1.03-2.3Z"/>
  </g>
  <g>
    <polygon class="cls-2" points="26.47 92.12 2.91 126.61 4.09 128.09 49.03 126.54 32.89 96.88 28.08 91.26 26.47 92.12 26.47 92.12"/>
    <path class="cls-1" d="M25.31,96.59c-.85.37-.24-.86-1.09-.48-.41.14-.18.85-1.03.59-.33,1.41-.66,2.8-1.98,3.31-.32,1.48.75,1.42,1.18,2.08-1.86,1.36-1.87,5.71-5.14,4.27.3.79,1.28.83,1.43,1.8-.71.36-1.23.5-1.57.61,1.14.93-.3.7-.74,1.37-1.14,1.77-1.76,4.56-3.76,5-.07,1.29-.54,2.23-1.76,2.49.68,1.38-.39.19-.76.84,1.72.32-1.1,1.17.1,1.87-1.9.4-1.44,2.95-2.75,3.88-.17-.46.25-1.59-.34-1.59,0,.42.09.93-.5.83-.28.88.87.16.59,1.04-1.11.27-.9,1.73-1.48,2.49,2.78-.62,7.3-.66,10.41-.52.04-.21-.02-.53.24-.55,10.35.95,18.6-.66,31.25-1-.58-2.8-3.06-4.15-4.03-5.69-.32-2.37-2.56-2.61-2.66-5.22-1.2.18-1.03-.95-.88-1.55-1.06.02-2.03-1.7-1.17-2.09-.83.45-.9-.16-1.63-.46-1.93-5.83-6.54-9.94-8.75-14.54.01.27-.45.36-.53.02.32-.04.63-.11.51-.56-.75.26-.71-.34-1.35-.2-1.29,1.8-1.87,4.25-4.02,5.28.56.92-.2,1.3-.7,1.91-.33-1.06-.07-2.08.39-2.96.44-.02.18.73.57.78.06-1.15.97-3.33,1.76-2.23-.03-.37.09-.59.22-.82h0ZM40.9,108.93c1.58.23,1.17,2.66,2.82,2.81.04,1.73.93,2.54,2.03,3.11-.12,1.83.91,2.37,2.01,2.85.12.45-.18.51-.51.56.38.37,1.26.61.6,1.31.21-.15.42-.3.78-.31.12.54-.01.84-.49.83.53.68,2.07,2.13,1.2,2.61.27.45.86.55,1.62.46.15,2.18,1.35,3.2,1.35,5.55-.26-.15-1.01-.57-.78.3-.48-.5-1.86,0-1.92-.97-.59,1.05-1.83-.7-3.17.7-.81.13-.6-.84-.87-1.3-.76.27.38.65.07,1.33-.21-.17-.9-1.08-.8.04-3.73-.26-9.26-.28-12.56.08-.01-.26-.03-.53-.04-.8-1.2.71-2.61.85-3.74.19-.72,1.04-5.69,1.07-7.21.36-2.93,1.68-9.46.1-10.87,1.87-2.3-1.29-6.26.17-9.14-.88-.27-.84.18-1.02.47-1.37-1.07-.04-.45-.2-.62-1.84,1.24-.41,1.75-1.46,1.72-3.03,1.24.2.54-1.37,1.81-1.16-.23-.81-.22-.5-.07-1.34,1.81.2.72-2.23,2.29-2.25-.18-.27-.63-.25-.57-.78,1.07.3.5-.9,1.57-.61-.02-.45-.04-.89-.07-1.33.23-.22.59-.32,1.05-.32,1.57-4.03,4.49-6.81,6.16-10.74.92-.02,1.21-.6.99-1.66.78.04.78-.64,1.57-.61.65-3.58,4.06-4.66,4.67-8.26,2.93-.65,2.23-4.6,5.08-5.33-.18-.26-.62-.25-.58-.77.88-.06,1.31-.52,2.39-.39,1.2.85-.31,1.37,1.4,1.27-1.1,1.21.34,4.73,1.55,4.2.39.07.07,2.02,1.42,1.8-.14.82.33.96.36,1.59,3.43,2.87,4.09,8.8,7.53,11.66.12.45-.18.52-.51.56h0Z"/>
    <text class="cls-3" transform="translate(16.41 122.98) scale(.79 1)"><tspan x="0" y="0">38</tspan></text>
  </g>
</svg>