<?xml version="1.0" encoding="UTF-8"?>
<svg id="Layer_1" data-name="Layer 1" xmlns="http://www.w3.org/2000/svg" viewBox="0 0 180 200">
  <defs>
    <style>
      .cls-1, .cls-2 {
        fill-rule: evenodd;
      }

      .cls-1, .cls-3 {
        fill: #231f20;
      }

      .cls-4 {
        fill: #ea1f27;
      }

      .cls-2 {
        fill: #f5881f;
      }

      .cls-3 {
        font-family: AmericanTypewriter-Bold, 'American Typewriter';
        font-size: 24.93px;
        font-weight: 700;
        letter-spacing: .02em;
      }
    </style>
  </defs>
  <polygon class="cls-2" points="27.96 84.21 3.49 120.04 4.71 121.58 51.39 119.96 34.63 89.16 29.63 83.33 27.96 84.21 27.96 84.21"/>
  <path class="cls-1" d="M26,88.86c-.88.38-.25-.89-1.14-.51-.42.15-.19.89-1.08.62-.34,1.46-.68,2.91-2.06,3.44-.33,1.53.78,1.47,1.23,2.16-1.93,1.41-1.94,5.94-5.34,4.43.31.82,1.33.86,1.48,1.87-.73.38-1.27.52-1.63.63,1.18.97-.31.73-.77,1.43-1.18,1.83-1.82,4.73-3.9,5.19-.07,1.34-.56,2.32-1.82,2.58.7,1.44-.4.2-.79.88,1.78.34-1.14,1.22.1,1.94-1.97.41-1.49,3.06-2.86,4.03-.18-.48.26-1.65-.36-1.66,0,.43.09.96-.51.86-.29.91.91.17.61,1.08-1.15.28-.94,1.8-1.54,2.58,2.89-.64,7.59-.69,10.81-.54.05-.21-.02-.55.25-.57,10.75.98,19.32-.69,32.45-1.05-.6-2.92-3.17-4.31-4.18-5.91-.33-2.47-2.66-2.71-2.76-5.42-1.24.19-1.07-.99-.92-1.62-1.1.03-2.11-1.77-1.21-2.17-.87.47-.93-.16-1.69-.47-2.01-6.06-6.79-10.32-9.08-15.11.01.28-.47.37-.55.02.34-.04.65-.11.53-.58-.77.27-.74-.35-1.4-.21-1.34,1.87-1.94,4.42-4.18,5.48.58.95-.21,1.35-.73,1.98-.34-1.1-.07-2.16.41-3.08.45-.02.19.76.59.8.06-1.19,1.01-3.46,1.83-2.31-.03-.38.1-.62.23-.84h0ZM42.2,101.67c1.64.24,1.21,2.75,2.92,2.91.04,1.8.97,2.64,2.1,3.23-.13,1.89.94,2.47,2.09,2.95.13.47-.19.53-.52.58.39.38,1.31.63.62,1.36.22-.16.44-.31.82-.32.13.56-.01.87-.51.86.55.71,2.15,2.22,1.25,2.72.28.46.9.56,1.69.47.16,2.27,1.4,3.33,1.4,5.77-.27-.16-1.05-.6-.81.32-.5-.52-1.94,0-2-1.01-.61,1.1-1.9-.73-3.3.72-.84.14-.62-.88-.91-1.35-.79.28.4.68.07,1.39-.21-.18-.94-1.13-.83.04-3.87-.27-9.62-.29-13.05.09-.02-.28-.03-.55-.04-.83-1.25.74-2.71.88-3.88.19-.75,1.08-5.91,1.12-7.48.37-3.05,1.76-9.82.11-11.29,1.95-2.39-1.34-6.51.17-9.49-.92-.28-.87.18-1.07.48-1.42-1.12-.04-.46-.21-.65-1.91,1.29-.42,1.82-1.52,1.79-3.15,1.29.2.56-1.42,1.88-1.2-.24-.84-.22-.52-.07-1.39,1.88.21.74-2.32,2.38-2.34-.19-.27-.65-.25-.6-.8,1.12.3.52-.94,1.63-.64-.02-.46-.05-.93-.07-1.39.24-.23.61-.33,1.09-.33,1.62-4.18,4.67-7.07,6.4-11.15.96-.02,1.26-.62,1.02-1.72.81.03.82-.67,1.64-.64.67-3.71,4.21-4.84,4.85-8.58,3.04-.68,2.31-4.78,5.28-5.53-.19-.28-.65-.26-.6-.81.91-.05,1.36-.54,2.49-.4,1.24.88-.32,1.44,1.45,1.32-1.15,1.25.36,4.92,1.61,4.37.41.07.07,2.1,1.48,1.87-.15.86.34,1,.37,1.65,3.57,2.97,4.25,9.14,7.82,12.11.12.47-.19.54-.53.59h0Z"/>
  <text class="cls-3" transform="translate(20.79 115.87) scale(.79 1)"><tspan x="0" y="0">4</tspan></text>
  <g>
    <path class="cls-4" d="M165,92.04c2.55.26,4.17,1.81,5.68,3.32,1.28,1.27,2.05,2.96,1.99,4.9-.04,1.24-.08,2.47-.49,3.64-.56,1.64-1.17,3.27-1.81,4.88-.18.46-.47.92-.81,1.28-1.09,1.15-2.21,2.29-3.36,3.38-2.45,2.33-5.59,3.25-8.69,4.26-3.04.23-6.1.42-9.01-.7-2.42-.93-3.69-2.95-4.4-5.33-1.12-3.75-.13-7.14,1.96-10.29.28-.42.59-.83.94-1.2,2.02-2.17,4.02-4.37,6.67-5.82.31-.17.59-.39.89-.59-.11-.18-.16-.36-.24-.37-.93-.15-1.85-.32-2.79-.39-1.51-.12-2.76-.79-3.93-1.7-1.77-1.36-2.39-3.55-1.56-5.62.49-1.23,1.22-2.27,2.23-3.16,3.93-3.47,8.56-5.64,13.5-7.19,2.57-.81,5.17-.6,7.66.33,2.54.95,3.66,2.94,3.47,5.61-.18,2.59-1.33,4.73-3.03,6.56-1.13,1.21-2.48,2.22-3.73,3.3-.32.27-.67.51-1.16.89ZM154,98.55c-.61.51-1,.8-1.35,1.13-1.53,1.46-2.52,3.34-3.79,5-1.5,1.96-1.54,4.14-1.34,6.4.05.61.32,1.11.81,1.48.95.72,2.06,1.19,3.2,1.21,1.5.03,3.06-.09,4.51-.48,1.88-.49,3.7-1.24,5.49-2,4.28-1.8,6.31-5.36,7.15-9.69.52-2.73-1.12-5.24-3.61-5.88-1.21-.31-2.46-.39-3.65.01-2.62.88-5.18,1.88-6.89,4.25-.12.17-.3.32-.48.43-.09.06-.24,0-.5,0,.13-.55.26-1.06.46-1.88ZM152.32,88.63c.28-.73.82-1.41,1.35-2.08.73-.92,1.26-1.94,1.56-3.06.06-.23-.05-.51-.1-.85-1.61.32-2.76,1.15-3.8,2.17-.64.62-.92,1.46-1.09,2.32-.25,1.27.39,2.76,2.08,2.98,1.66.21,3.32.3,4.95-.07,2.46-.57,4.87-1.27,7.25-2.14,2.58-.94,4.11-2.84,5.01-5.32.28-.76.36-1.55-.21-2.33-1.16-.69-2.51-.91-3.85-1.13-.75-.12-1.42.04-2.06.46-1.39.91-2.78,1.8-3.99,2.97-1.5,1.46-2.96,2.96-4.28,4.58-.58.71-1.36,1.27-2.09,1.85-.24.19-.54.09-.75-.35Z"/>
    <path d="M79.78,85.68c-.57,1.04-1.27,1.82-2.32,2.41-.36-.27-.74-.48-1.02-.78-.9-.97-1.97-1.71-3.11-2.35-4.07-2.29-8.22-2.54-12.45-.45-3.34,1.65-5.55,4.36-7.08,7.65-.39.84-.64,1.78-.77,2.7-.77,5.82.94,10.72,5.56,14.49,1.04.85,2.32,1.18,3.54,1.6,2.37.82,4.83.95,7.28.42,1.49-.32,2.91-.94,4.07-1.96,1.2-1.05,2.4-2.11,3.47-3.28,1.45-1.6,2.2-3.55,2.43-5.7.01-.12-.1-.26-.19-.46-1.03,0-2.1.04-3.16-.01-1.16-.06-2.31-.21-3.46-.31-1.08-.1-2.17-.16-3.24-.3-1.05-.13-2.18.19-3.21-.44-.28-.95-.16-1.87-.07-2.78.68-.57,1.45-.43,2.12-.31,1.73.3,3.46.27,5.19.16.79-.05,1.6-.06,2.39.01,2.24.21,4.48.23,6.73.11.28-.02.56.05.87.09.36.57.03,1.14.08,1.69.05.5-.01,1.01-.03,1.52-.02.58-.04,1.16-.08,1.74-.02.21-.07.43-.15.63-1.52,3.55-3.31,6.93-6.21,9.58-2.78,2.54-5.95,4.04-9.82,3.91-1.89-.06-3.76-.22-5.61-.54-3.63-.64-6.67-2.31-9-5.21-.95-1.18-2.07-2.23-2.75-3.62-1.78-3.65-2.28-7.47-1.26-11.39.96-3.7,2.63-7.05,5.61-9.6,1.83-1.57,3.83-2.87,6.15-3.58,1.45-.45,2.93-.78,4.4-1.17,1.81-.48,3.6-.25,5.36.22,1.54.41,3.05.91,4.58,1.36,1.42.42,2.58,1.31,3.78,2.1.6.4,1.08.96,1.37,1.85Z"/>
    <path d="M149.26,112.7c-1.81-.11-3.39-.19-4.98-.3-.65-.05-1.29-.15-1.93-.28-1.1-.22-1.79-.92-2.12-1.96-.17-.55-.35-1.12-.38-1.68-.06-1.45-.11-2.9-.02-4.34.1-1.58.35-3.14.53-4.7.74-.28,1.03-.21,1.17.31.28.98.45,1.97.22,3-.4,1.79-.21,3.61-.16,5.41.02.63.28,1.25.38,1.67.77.83,1.6.78,2.39.84.72.06,1.45.07,2.17.09.79.01,1.58,0,2.49,0,.03-.46.08-.79.08-1.13,0-.65-.09-1.3-.07-1.95.05-2.02.12-4.05.2-6.07.02-.58.09-1.15.18-1.72.08-.49.38-.58,1.19-.38.07.19.22.39.22.59,0,2.39-.02,4.77-.02,7.16,0,.87.08,1.73.11,2.6.06,1.66.18,3.33.14,4.99-.05,1.87-.72,3.54-2.01,4.92-1.24,1.32-2.73,2.1-4.57,2.18-1.18.05-2.1-.41-2.89-1.23-.73-.76-1.06-1.72-1.23-2.73-.08-.53.1-1.02.54-1.34.2-.14.5-.14.83-.22.13.37.26.62.32.89.08.35.08.72.19,1.06.5,1.53,1.71,2.18,3.23,1.7,1.54-.48,2.65-1.52,3.28-2.97.57-1.33.77-2.76.51-4.39Z"/>
    <path d="M116.39,107.26c.86-1.38,2.25-1.95,3.38-2.81,1.13-.87,2.47-1.47,3.5-2.41-.05-.23-.03-.42-.11-.49-1.07-1-2.46-1.11-3.81-1.31-.21-.03-.43.02-.64.08-2.43.61-4.46,3.28-4.5,5.77-.04,2.17,1.85,4.97,4.76,4.93.86-.01,1.73-.12,2.56-.31,1.56-.36,2.71-1.32,3.46-2.73.27-.51.51-1.04.86-1.5.13-.17.54-.27.76-.2.22.07.48.36.52.6.06.33,0,.73-.13,1.04-1.13,2.68-3.16,4.28-6.01,4.75-2.55.42-4.92.02-6.73-2.05-1.97-2.24-2.32-4.79-1.16-7.48.9-2.08,2.54-3.5,4.64-4.34,2.34-.94,6.22.34,7.56,2.43.45.7.35,1.41-.37,1.88-2.29,1.51-4.61,3-6.92,4.48-.51.33-1.06.5-1.6-.33Z"/>
    <path d="M98.94,111.93c-.66.63-1.29.67-1.91.15-.08-.2-.19-.35-.17-.47.45-2.25-.01-4.48-.19-6.7-.17-2.2-1.42-3.67-3.59-4.44-1.53-.54-2.78-.29-4.06.64-2.91,2.12-2.75,6.5-1.29,8.63.31.46.8.87,1.3,1.11,1.8.87,3.6,1.05,5.29-.29.17-.13.36-.31.55-.32.26-.01.61.04.77.2.16.17.22.54.16.78-.18.67-.71,1.08-1.29,1.39-2.47,1.32-7.41.81-8.93-3.2-1.29-3.38-.53-7.12,2-9.37,1.92-1.7,4.04-2.16,6.42-1.08.59.27,1.18.56,1.73.9.94.59,1.67,1.38,2.02,2.47.22.69.58,1.37.63,2.07.17,2.51.7,5.01.57,7.52Z"/>
    <path d="M103.42,113.02c-.42-.65-.69-.91-.77-1.22-.1-.41-.11-.87-.06-1.29.45-4.05.25-8.1.2-12.16-.03-2.39-.17-4.78-.2-7.16-.01-1.01.12-2.02.26-3.02.03-.19.4-.48.6-.47.21,0,.55.28.61.49.13.48.16.99.18,1.5.13,4.92.31,9.85.35,14.77.02,2.38-.21,4.77-.38,7.15-.03.37-.38.71-.78,1.42Z"/>
    <path d="M109.18,87.53c.23.47.54.82.57,1.2.24,2.66.5,5.32.59,7.98.1,2.88,0,5.77.04,8.66.02,1.8.12,3.6.15,5.4,0,.5-.08,1-.16,1.49-.06.34-.53.66-.82.53-.24-.1-.5-.32-.58-.55-.12-.32-.12-.71-.13-1.06-.06-3.68-.19-7.36-.15-11.03.04-3.61-.27-7.21-.38-10.81-.02-.65-.14-1.3.88-1.82Z"/>
    <path d="M131.33,112.32c-.29-.41-.63-.67-.65-.95-.08-1.43-.29-2.84-.15-4.3.2-2.08.13-4.18.22-6.27.02-.56.14-1.13.3-1.68.12-.42.78-.47,1.07-.1.21.27.35.59.47.79,1.18-.29,2.29-.59,3.41-.82.6-.13,1.15.01,1.48.61.07.53-.23.83-.68.95-.7.18-1.41.3-2.11.45-.76.16-1.28.57-1.54,1.35-.43,1.3-.88,2.58-.84,3.99.04,1.29-.28,2.57,0,3.87.07.33.03.75-.11,1.06-.17.35-.5.62-.87,1.05Z"/>
  </g>
</svg>