<?xml version="1.0" encoding="UTF-8"?>
<svg id="Layer_1" data-name="Layer 1" xmlns="http://www.w3.org/2000/svg" viewBox="0 0 180 200">
  <defs>
    <style>
      .cls-1, .cls-2 {
        fill-rule: evenodd;
      }

      .cls-1, .cls-3 {
        fill: #231f20;
      }

      .cls-4 {
        fill: #fff;
      }

      .cls-2 {
        fill: #ffda40;
      }

      .cls-3 {
        font-family: AmericanTypewriter-Bold, 'American Typewriter';
        font-size: 20.52px;
        font-weight: 700;
      }
    </style>
  </defs>
  <polygon class="cls-2" points="27.85 84.47 4.29 118.96 5.46 120.44 50.41 118.88 34.26 89.22 29.46 83.61 27.85 84.47 27.85 84.47"/>
  <path class="cls-1" d="M25.96,88.94c-.85.37-.24-.86-1.09-.48-.41.14-.18.85-1.03.59-.33,1.41-.66,2.8-1.98,3.31-.32,1.48.75,1.42,1.18,2.08-1.86,1.36-1.87,5.71-5.14,4.27.3.79,1.28.83,1.43,1.8-.71.36-1.23.5-1.57.61,1.14.93-.3.7-.74,1.37-1.14,1.77-1.76,4.56-3.76,5-.07,1.29-.54,2.23-1.76,2.49.68,1.38-.39.19-.76.84,1.72.32-1.1,1.17.1,1.87-1.9.4-1.44,2.95-2.75,3.88-.17-.46.25-1.59-.34-1.59,0,.42.09.92-.5.83-.28.88.87.16.59,1.04-1.11.27-.9,1.73-1.48,2.49,2.78-.62,7.3-.66,10.41-.52.04-.21-.02-.53.24-.55,10.35.95,18.6-.66,31.25-1-.58-2.8-3.06-4.15-4.03-5.69-.32-2.37-2.56-2.61-2.66-5.22-1.2.18-1.03-.95-.88-1.56-1.06.02-2.03-1.7-1.17-2.08-.83.45-.9-.16-1.63-.46-1.93-5.83-6.54-9.94-8.75-14.54.01.27-.45.36-.53.02.32-.04.63-.11.51-.56-.75.26-.71-.34-1.35-.2-1.29,1.8-1.87,4.25-4.02,5.28.56.91-.2,1.3-.7,1.91-.33-1.06-.07-2.08.39-2.96.44-.02.18.73.57.77.06-1.15.97-3.33,1.76-2.23-.03-.37.09-.59.22-.82h0ZM41.55,101.27c1.58.23,1.17,2.65,2.82,2.81.04,1.73.93,2.54,2.03,3.11-.12,1.82.91,2.38,2.01,2.85.12.45-.18.51-.51.56.38.36,1.26.61.6,1.31.21-.16.42-.3.78-.31.12.53-.01.84-.49.82.53.68,2.07,2.13,1.2,2.62.27.45.86.55,1.62.46.15,2.18,1.35,3.2,1.35,5.55-.26-.15-1.01-.57-.78.3-.48-.5-1.86-.01-1.92-.97-.59,1.05-1.83-.7-3.17.69-.81.14-.6-.84-.87-1.3-.76.27.38.66.07,1.34-.21-.18-.9-1.08-.8.04-3.73-.26-9.26-.28-12.56.08-.01-.26-.03-.53-.04-.8-1.21.71-2.61.85-3.74.18-.72,1.05-5.69,1.08-7.21.36-2.93,1.68-9.46.1-10.87,1.87-2.3-1.29-6.26.17-9.14-.88-.27-.84.18-1.03.47-1.37-1.07-.04-.45-.2-.62-1.84,1.24-.4,1.75-1.46,1.72-3.03,1.24.2.54-1.37,1.81-1.16-.23-.81-.22-.5-.07-1.34,1.81.2.72-2.24,2.29-2.25-.18-.26-.63-.25-.57-.78,1.07.3.5-.9,1.57-.61-.02-.45-.04-.89-.07-1.34.23-.21.59-.32,1.05-.32,1.57-4.03,4.49-6.81,6.16-10.74.92-.02,1.21-.6.99-1.66.78.03.78-.64,1.57-.61.65-3.58,4.06-4.66,4.67-8.26,2.93-.65,2.23-4.6,5.08-5.33-.18-.27-.62-.25-.58-.77.88-.06,1.31-.52,2.39-.39,1.2.85-.31,1.38,1.4,1.27-1.1,1.2.34,4.73,1.55,4.2.39.07.07,2.02,1.42,1.8-.14.82.33.96.36,1.59,3.43,2.87,4.09,8.8,7.53,11.66.12.45-.18.52-.51.56h0Z"/>
  <text class="cls-3" transform="translate(16.68 115.81) scale(.79 1)"><tspan x="0" y="0">42</tspan></text>
  <g>
    <ellipse class="cls-4" cx="111.04" cy="96.17" rx="49.57" ry="44.82"/>
    <g>
      <path d="M158.81,112.53c-.71-.3-1.41-.62-2.12-.9-.71-.29-1.43-.55-2.09-1.08,1.05-.09,2.09-.18,3.14-.26.01-.14.02-.28.03-.42-1.06-.31-2.11-.63-3.17-.94,0-.09,0-.18.01-.27,1.16-.25,2.33-.5,3.49-.75l.05-.41c-1.38-.35-2.76-.69-4.13-1.04.01-.1.02-.19.03-.29,1.4-.21,2.8-.42,4.45-.67-1.41-1.12-3.11-.36-4.63-1.33,1.77-.38,3.32-.71,4.86-1.04.01-.09.02-.19.04-.28-1.38-.24-2.76-.49-4.34-.77,1.1-1.17,2.51-.52,3.76-1.09-.98-1.03-2.37-.71-3.49-1.57,1.98-.23,3.73-.44,5.48-.64.01-.12.02-.24.04-.37-1.83-.37-3.66-.73-5.49-1.1,0-.16,0-.31,0-.47,1.83-.3,3.66-.6,5.5-.9,0-.07,0-.13,0-.2-2-.33-4-.66-6-.99,0-.15-.01-.3-.02-.44,1.51-.25,3.01-.49,4.52-.74.02-.1.04-.2.05-.29-1.31-.31-2.62-.61-3.92-.92-.01-.12-.02-.25-.03-.37,1.45-.27,2.91-.55,4.47-.84-1.47-1.28-3.33-.37-5.3-1.27,1.78-.49,3.13-.86,4.7-1.29-1.19-.91-2.46-.36-3.92-.87,1.44-.42,2.57-.76,4.01-1.18-1.37-.69-1.61-1.8-2.08-2.75-1.41-2.94-2.72-5.93-4.21-8.82-2.47-4.81-5.96-8.8-10.26-12.06-8.28-6.29-17.66-9.71-28-10.43-2.31-.16-4.65.18-6.97.27-2.72.11-5.43.22-8.11.89-8.86,2.22-16.53,6.48-22.87,13.11-4.77,4.99-8.12,10.84-10.75,17.15-.73,1.74-.78,1.77-2.6,1.6.66-1.66.67-1.67-.84-2.7-.59-.4-1.08-.89-.88-1.63.24-.86.72-1.57,1.7-1.77,2.75-.56,2.82-.76,1.23-2.96-.39-.54-1-1.16-.46-1.75.36-.39,1.15-.46,1.76-.54.36-.05.75.18,1.08.27.89-.54,1.06-1.22.65-2.08-.06-.12-.11-.24-.16-.37-.99-2.48-.49-3.12,2.16-2.78,1.07.14,1.69-.36,1.62-1.4-.04-.52-.3-1.02-.4-1.54-.28-1.39.68-2.36,2.07-2.13,2.4.39,2.88-.08,2.56-2.57-.19-1.55.42-2.12,1.92-1.76,1.96.47,2.45.15,2.58-1.7.16-2.26.96-2.74,3.09-1.83.24.1.48.2.98.41.24-.72.52-1.35.67-2.01.39-1.71,1.26-2.18,2.89-1.52q1.69.68,3.4-.08c.06-.23.12-.55.21-.85.43-1.46,1.11-1.81,2.52-1.31.31.11.59.3.89.44,1.32.62,2.14.36,2.77-.9.09-.17.11-.38.18-.57.65-1.62,1.45-1.8,2.86-.71.66.51,1.37.94,2.19,1.5.39-.68.63-1.14.9-1.57.97-1.61,2.27-1.74,3.53-.36,1.29,1.42,2.71,1.31,3.6-.37.39-.74.65-1.47,1.66-1.43,1.05.04,1.49.75,1.81,1.6.07.19.14.38.23.55.67,1.28,1.25,1.32,2.22.24.42-.47.92-.99,1.49-1.19,1.45-.49,2.21,0,2.6,1.51.37,1.39.88,1.59,2.06.76.27-.19.49-.46.76-.64,1.44-.93,2.9-.39,3.42,1.26.06.19.07.39.12.59.04.12.12.23.28.52.43-.12.92-.23,1.39-.39.56-.19,1.1-.48,1.67-.62,1.71-.39,2.06-.17,2.53,1.54.22.79.45,1.54,1.3,1.58,1.07-.13,2.21-.55,3.2-.33,1.38.32.57,2.04,1.47,3.09.65-.17,1.4-.33,2.13-.56,2.04-.64,2.82.02,2.39,2.08-.08.39-.18.77-.27,1.13.83,1.3,1.92,1.69,3.41,1.5,2.24-.29,2.67.36,1.85,2.42-.1.24-.16.5-.32,1.01.58.17,1.1.39,1.64.45.52.05,1.06-.1,1.59-.12,1.78-.06,2,.25,1.42,2-.13.38-.31.74-.38,1.13-.19,1.15.42,1.95,1.57,2.06.4.04.8-.01,1.2,0,1.56.05,1.84.5,1.26,2-.26.68-.55,1.35-.79,2.04-.06.17.02.39.06.77.73-.04,1.44-.07,2.15-.11.87-.05,1.72.21,1.96,1.03.15.51-.23,1.21-.46,1.79-.11.3-.42.51-.6.79-.88,1.41-.52,2.32,1.09,2.82.63.2,1.3.37,1.83.73.44.31.98.9.96,1.34-.02.39-.71.81-1.18,1.1-.31.2-.74.2-1.21.31-.04.57-.08,1.07-.13,1.75.99-.11,1.88-.2,2.88-.31.15,1.17.29,2.26.43,3.4,2.5.39,4.91.71,7.39.35,1.7-.25,3.41-.2,5.31.73-2.29,3.12-4.48,6.1-6.67,9.09,1.93,2.93,3.78,5.72,5.76,8.72-4.02.12-7.65.23-11.29.35-.73,1.37.35,3-.62,4.1-1.45-.15-2.74-.28-4.04-.41l.06.05Z"/>
      <path d="M158.75,112.48c-.31,1.43-1.72.91-2.81,1.43.31.61.55,1.12.81,1.61.98,1.83.32,3.07-1.76,3.31-.2.02-.4.02-.6.04-1.41.2-1.62.59-.95,1.79.38.68,1.09,1.3.53,2.16-.6.91-1.51,1.26-2.59,1.14-.26-.03-.53-.11-.79-.09-.82.06-1.22.6-.87,1.35.32.68.85,1.46.14,1.97-.75.54-1.75.81-2.67,1.01-.51.11-1.11-.15-1.87-.27.06.63.06,1.01.14,1.36.46,2.06-.17,2.82-2.31,2.77-.97-.02-1.96-.54-3.01.2.03.26.05.57.11.87.35,2-.68,2.93-2.6,2.35-.19-.06-.37-.16-.55-.24-1.96-.88-2.29-.67-2.43,1.58,0,.13-.04.26-.08.51-1.05.8-2.1,1.47-3.44.27-.7-.63-1.49-.38-2.35.15,0,.24-.02.55,0,.86.08.88-.15,1.56-1.01,1.96-.87.4-1.67.36-2.43-.22-.32-.24-.61-.52-.95-.73-1.03-.64-2-.29-2.5.86-.69,1.61-2.24,1.85-3.39.53-.22-.25-.38-.57-.64-.74-.81-.54-1.85-.18-1.97.78-.11.86-.22,1.6-1.22,1.79-1,.19-1.84-.12-2.53-.85-.18-.19-.29-.44-.45-.65-.7-.87-1.39-.9-2.11-.1-.13.15-.2.35-.32.51-1.1,1.44-2.52,1.4-3.53-.1-.11-.16-.17-.36-.27-.53-.91-1.56-1.59-1.68-2.93-.51-1.57,1.36-2.52,1.22-3.7-.52-.36-.53-.77-1.02-1.26-1.67-1.51,1.11-2.74,3.38-4.77.77.04-.27.23-.73.16-1.14-.08-.48-.29-1.11-.65-1.32-.35-.21-.98-.04-1.45.09-.29.08-.54.38-.75.63-.61.74-1.38.78-2.17.44-.86-.37-1.4-1-1.27-2.03.12-.88.26-1.77-.91-2.1-2.48,1.14-2.86,1.1-4.57-.5.62-2.64.44-2.8-2.36-2.15-.51.12-1.06.14-1.57.08-.76-.1-1.17-.56-1.07-1.39.07-.58.13-1.17.11-1.75-.03-.9-.57-1.29-1.45-1.25-.73.03-1.47.13-2.19.03-1.64-.23-2.2-1.32-1.63-2.85.21-.56.24-1.18.4-2-1.03,0-1.75.07-2.46-.01-1.29-.15-1.6-.7-1.26-1.9.22-.78,1.29-1.55.45-2.33-.48-.44-1.46-.37-2.21-.48-.99-.15-1.8-.56-2.11-1.56-.29-.96.17-1.62.97-2.18.44-.31.71-.86,1.14-1.42.68-.05,1.55-.03,2.38-.19.76-.15,1.09.21,1.43.76,1.41,2.23,2.69,4.58,4.3,6.65,6.43,8.28,14.78,13.71,25.01,16.07,6.93,1.6,13.95,1.8,21.04,1.24,4.59-.36,8.91-1.56,12.98-3.61,6.84-3.43,12.63-8.11,16.86-14.57.47-.72,1.08-1.38,1.44-2.16,1.48-3.2,4.16-3.98,7.37-3.78,0,0-.06-.05-.06-.05Z"/>
      <path d="M111.14,54.39c-.16,10.5-.32,20.92-.49,31.59-2.23.05-4.33.08-6.44.15-1.45.05-2.62-.32-3.8-1.32-5.16-4.4-10.64-8.42-15.36-13.35-1.55-1.62-3.38-2.97-5.09-4.45,3.62-5.87,23.34-14,31.18-12.62ZM106.35,66.47c.19-1.72-.33-3.31-1.62-4.47-3.34-3-9.52-2.67-12.4.58-3.54,4-.72,9.52,3.35,10.28,2.12.4,4.21.2,6.29-.34,2.06-.53,4.79-3.67,4.37-6.05ZM102.74,81.85c1.42.53,2.47,1.6,3.96.76-.78-.96-2.05-1.74-2.78-1.6-.37.07-.67.47-1.18.84ZM104.81,77.46c1.96.07,2.32-.37,2.12-2.39-.99.5-1.72,1.14-2.12,2.39ZM97.5,77.07c.58,1.25,1.5,1.72,2.93,1.5-.64-1.58-1-1.77-2.93-1.5Z"/>
      <path d="M144.84,67.85c-1.54,1.32-2.93,2.62-4.43,3.78-2.73,2.12-5.53,4.14-8.27,6.26-2.94,2.28-5.88,4.57-8.74,6.96-1.34,1.12-2.74,1.79-4.5,1.68-1.97-.12-3.95-.18-6.19-.27,1.08-10.65-.51-21.08.91-31.64,3.81.42,7.62.5,11.33,1.7,5.98,1.93,11.13,5.3,16.17,8.91,1.17.84,2.36,1.67,3.72,2.62ZM127.57,73.87c.81-.23,2.29-.43,3.57-1.04,3.02-1.44,4.49-5.64,2.93-8.28-1.68-2.85-4.18-4.57-7.53-4.92-4.34-.46-7.56,2.9-8.22,6.48-.42,2.26.43,3.91,2.02,5.26,1.88,1.6,4.14,2.31,7.24,2.51ZM117.13,82.37c2.11.22,2.48-.05,2.6-1.77-1.74-.06-1.81-.01-2.6,1.77ZM116.49,74.68c.03,1.65.75,2.23,2.48,2.02-.47-1.62-.58-1.72-2.48-2.02ZM123.02,77.64c.45,1.45,1.14,1.91,2.17,1.64.26-.07.61-.37.64-.6.02-.25-.24-.71-.45-.76-.68-.16-1.39-.18-2.35-.28Z"/>
      <path d="M113.56,112.47c3.47-.13,6.71-.29,9.96-.37,2.59-.06,5.18,0,7.77-.02.74,0,1.4.04,2.03.57,3.51,2.95,7.07,5.85,10.6,8.78.14.11.19.33.26.45-3.96,5.03-9.33,7.94-15.15,9.94-4.93,1.69-9.96,3.24-15.47,3v-22.35ZM134.76,124.31c-.06-3.33-1.3-5.49-3.74-6.9-3.05-1.77-6.11-1.7-9.34-.25-4.23,1.9-4.88,7.6-1.43,10.2,4.27,3.22,8.41,3.07,12.74.07,1.2-.84,1.89-2.06,1.77-3.11Z"/>
      <path d="M79.61,122.46c.96-.99,1.75-1.96,2.7-2.73,3.05-2.47,6.17-4.85,9.24-7.29.66-.52,1.2-.81,2.13-.48.84.29,1.84.08,2.77.11,3.18.12,6.37.29,9.55.35,1.45.03,2.9-.19,4.35-.26.29-.01.6.13.77.18-.13,1.09-.34,2.05-.33,3,.06,5.39.18,10.78.27,16.17.02,1.12,0,2.23,0,3.64-2.03-.15-3.87-.02-5.55-.47-4.87-1.3-9.74-2.66-14.48-4.34-3.51-1.25-6.72-3.21-9.43-5.86-.61-.6-1.21-1.2-2.02-2.01ZM98.54,115.93c-.8.05-1.6.07-2.39.16-4.18.46-5.99,3.81-6.07,6.98-.04,1.46.54,2.9,1.71,3.91,3.48,2.98,8.5,3.8,12.67,1.65,2.29-1.18,3.89-4.29,3.2-6.44-.57-1.8-1.53-3.35-3.1-4.52-1.81-1.35-3.83-1.78-6.01-1.73Z"/>
      <path d="M62.73,100.35c1.24.2,2.44.25,3.54,1.32-1.59.25-2.92.45-4.24.65,0,.13,0,.26,0,.39,1.53.18,3.07.37,4.6.55,0,.17.01.34.02.52-1.32.26-2.63.53-4.38.88,1.71.48,3.03.86,4.36,1.23,0,.17,0,.34,0,.51-1.54.3-3.08.61-5.06,1,1.73.3,2.99.52,4.25.74,0,.15,0,.3,0,.46-1.36.69-3.01.32-4.79,1.07,1.94.77,3.93.31,5.32,1.48-.02.15-.04.31-.06.46-2.12.32-4.23.64-6.54.98-.15-1.42-.29-2.64-.42-3.8-3.7-.2-7.31-.4-11.26-.61,1.22-3.51,3.91-5.72,5.41-8.91-1.69-2.95-3.47-6.03-5.34-9.29,2.02-.61,3.86-.24,5.67-.28,1.78-.04,3.55,0,5.39,0v-4.09c2.5.62,4.88,1.22,7.5,1.87-1.2,1.32-2.67.72-4.07,1.25,1.32.38,2.45.71,3.58,1.03-.01.16-.02.32-.03.48-1.12.18-2.23.37-3.35.55-.01.09-.03.17-.04.26,1.01.23,2.01.46,3.25.75-1.12,1.29-2.51.79-3.88,1.24,1.39.44,2.77.14,3.91,1.48-1.66.15-3.07.28-4.48.41l-.03.23c1.56.39,3.11.78,4.9,1.23-1.01,1.35-2.48.67-3.4,1.47,1.1.29,2.18.58,3.54.94-1.21,1.28-2.73.54-3.88,1.56Z"/>
      <path d="M68.95,85.76c-.55-4.02,3.47-11.46,9.4-17.29.39.27.83.54,1.23.86,4.78,3.82,9.57,7.63,14.33,11.48,1.55,1.25,3.03,2.6,4.52,3.93.37.33.64.77,1.07,1.3-2.37.82-4.23.49-5.76-1.33-.78.43-1.42.95-2.15,1.13-.67.17-1.43-.03-2.27-.08-.24-2.38-1.09-4.38-2.51-6.21-2.2-2.84-7.79-3.8-11.01-1.12-1.65,1.37-2.59,3.35-2.69,5.6-.09,2.01-.09,1.99-2.02,1.75-.7-.09-1.41-.01-2.12-.01Z"/>
      <path d="M145.32,69.64c4.16,4.97,7.8,10.21,9.59,16.84h-5.36c-.17-.89-.3-1.71-.49-2.53-.57-2.48-1.4-4.82-4.18-5.57-3.05-.81-5.94-.25-8.51,1.55-1.2.84-1.67,2.2-1.71,3.66-.02.86,0,1.72,0,2.69-1.51.89-2.75.15-3.92-.66-.7.39-1.33,1.04-1.96,1.02-1.04-.02-2.3.36-3.26-.96,2.94-3.08,6.76-5.09,9.84-7.99,3.01-2.83,6.72-4.84,9.97-8.07Z"/>
      <path d="M71.82,112.25c1.2-.42,14.2-.82,16.11-.56.27.04.52.26,1.08.56-3.65,3-7.1,5.83-10.63,8.73-3.56-1.86-4.44-5.62-6.56-8.72Z"/>
      <path d="M75.59,86.19c-1.54-3.9-.14-5.74,1.9-7.04,2.64-1.69,5.52-1.59,7.56.26,1.71,1.55,2.18,4.66,1.01,6.78h-10.46Z"/>
      <path d="M135.29,111.87h16.85c-1.01,3.83-4.15,5.9-6.51,8.76-3.27-2.53-6.46-5-9.63-7.49-.27-.21-.37-.64-.71-1.28Z"/>
      <path d="M136.96,86.33c-.05-1.18-.26-2.31-.11-3.39.5-3.63,2.92-4.48,6.91-3.84,1.43.23,2.77,1.04,3.63,2.29.5.72.91,1.65.96,2.51.13,2.24-.38,2.51-2.67,2.43-2.57-.09-5.16.05-7.73.09-.19,0-.39-.03-.98-.08Z"/>
      <path d="M102.92,102.49c-.11-.83-.21-1.51-.33-2.38-.46.37-.82.7-1.22.99-.65.46-1.29.94-1.98,1.33-.64.37-1.35.71-2.03.09-.66-.6-.45-1.36-.16-2.04.78-1.84,1.99-3.3,3.86-4.13.23-.1.5-.15.76-.18.1,0,.21.12.5.29-1.3,1.55-3.45,2.39-3.92,4.56,1.32.4,2.19.07,3.12-1.44.64-1.03,1.08-2.18,1.67-3.41,1.07,3.46,1.03,5.06-.26,6.31Z"/>
      <path d="M113.34,95.58c-.79.69-1.76,1.64-1.97,3.01-.12.8-.15,1.97.31,2.4.46.43,1.64.32,2.41.12.93-.24,1.77-.84,2.91-1.41-.13.51-.14.87-.31,1.12-.64.98-1.53,1.62-2.71,1.86-2.42.51-4.08-.79-4.09-3.27-.02-2.26,1.11-3.91,2.84-5.21.58-.43,1.21-.5,1.85-.05.65.46.9,1.29.36,1.65-.29.19-.9-.11-1.59-.23Z"/>
      <path d="M72.91,99.23q.11,2.99-1.41,3.18v-6.67c-1.12.28-2.04.51-2.96.74-.04-.1-.08-.2-.13-.3.35-.23.67-.57,1.06-.68,1.58-.47,3.17-.95,4.79-1.26,1.11-.22,2.07.34,2.33,1.12.35,1.05-.11,1.84-.97,2.38-.82.52-1.71.95-2.72,1.49ZM72.75,98.21c.73-.26,1.31-.37,1.76-.66.63-.41,1.58-.81,1.3-1.75-.29-.98-1.27-.71-2.03-.62-.36.04-.71.21-1.04.31v2.72Z"/>
      <path d="M81.68,102.17c.25-.56.41-1.11.72-1.56.54-.77-.92-.78-.36-1.64.59-.28,1.97,0,1.8-1.59-.76.09-1.51.17-2.52.28,1-1.64,2.58-1.34,4.03-2.18v3.86c-.61.41-1.89.73-2.12,2.1,2.05.54,2.78.3,4.85-1.69.49.87,0,1.44-.57,1.81-1.73,1.17-3.58,1.7-5.84.61Z"/>
      <path d="M146.82,95.93c2.21.68,1.21,2.49,2.15,3.42.43-.5.84-1.11,1.38-1.55.36-.29.93-.5,1.37-.45.6.07,1.06.51,1.05,1.24,0,1.51,0,3.01,0,4.64-1.43.01-1.49-.82-1.49-1.69,0-.78,0-1.57,0-2.58-1.58.82-1.64,2.67-3.09,3.65-.97-2.15-.46-4.37-1.37-6.68Z"/>
      <path d="M88.99,97.7q1.34-1.07,4.39-1.52c-.19.75-.36,1.4-.55,2.17.25.22.58.5,1.05.9-1.24.53-2.82.45-3.01,2.29,2.09.53,3.77-.82,5.79-1.54-1.54,2.58-4.32,3.5-6.62,2.36-.71-.35-.69-.99-.24-1.49.56-.62.33-1.04-.17-1.48.75-.43,1.48-.84,2.21-1.26-.05-.15-.09-.29-.14-.44h-2.71Z"/>
      <path d="M135.26,99.27c-.06.78-.11,1.35-.17,1.99,1.92.47,3.02-1.24,4.64-1.55-.7,2.15-1.93,3.15-3.68,3.12-1.41-.02-2.26-.8-2.27-2.22-.02-1.8.88-3.18,2.3-4.2.38-.27,1.01-.34,1.51-.3.9.08,1.24.76.85,1.59-.58,1.25-1.68,1.59-3.18,1.56ZM135.77,98.44q1.67-.48,1.73-1.82c-.6.63-1.03,1.08-1.73,1.82Z"/>
      <path d="M129.28,100.5c1.96-4.46,2.02-4.54,3.66-5.55.29,1.01.11,1.8-.68,2.59-1.15,1.14-1.72,2.64-2,4.24-.07.4-.42.74-.65,1.12-.35-.24-.82-.39-1.04-.72-.63-.93-1.15-1.92-1.72-2.89-.51-.87-1.01-1.74-1.52-2.62,1.28-.7,1.21-.45,3.95,3.83Z"/>
      <path d="M122.91,100.37c-.82.58-1.62,1.15-2.43,1.71-.65.45-1.38.61-2.02.1-.68-.53-.55-1.29-.28-2,.61-1.59,1.6-2.9,3.03-3.82,1-.65,1.72-.39,2.29.61.92,1.64.97,3.34.53,5.12q-.92-.22-1.12-1.72ZM122.51,96.96c-2.33,1.13-3.63,3-3.22,4.6,3.1-1.5,3.98-2.76,3.22-4.6Z"/>
      <path d="M140.78,102.2c.32-2.1-.8-4.2.66-6.6.44,1,.71,1.61.99,2.24,1.99-2.09,2.49-2.19,3.66-.74-2.56.47-3.42,1.35-3.85,4.11-.12.75-.48.99-1.47.98Z"/>
      <path d="M78.74,96.32c.97,2.01.95,4.06.65,6.39-1.06-.48-1.04-1.16-1.02-1.77.05-1.54-.52-3.14.37-4.62Z"/>
      <path d="M77.66,94.43c-.04-.23-.06-.3-.05-.35.12-.58.24-1.2,1.03-1.12.17.02.46.33.44.49-.07.77-.51,1.12-1.42.99Z"/>
      <path class="cls-4" d="M106.35,66.47c.42,2.38-2.31,5.52-4.37,6.05-2.09.53-4.17.73-6.29.34-4.07-.76-6.89-6.28-3.35-10.28,2.88-3.25,9.05-3.58,12.4-.58,1.29,1.16,1.81,2.75,1.62,4.47ZM104.35,66.75c.11-1.4-.29-2.83-1.48-3.64-1.94-1.33-4.18-2.08-6.56-1.35-2.78.86-4.41,4.88-3.2,7.62.54,1.22,1.41,2.12,2.76,2.34,1.1.18,2.23.27,3.35.25,3.05-.04,5.05-2.09,5.12-5.23Z"/>
      <path class="cls-4" d="M102.74,81.85c.51-.38.81-.77,1.18-.84.73-.14,2.01.64,2.78,1.6-1.49.84-2.54-.22-3.96-.76Z"/>
      <path class="cls-4" d="M104.81,77.46c.41-1.25,1.13-1.89,2.12-2.39.2,2.02-.16,2.46-2.12,2.39Z"/>
      <path class="cls-4" d="M97.5,77.07c1.93-.27,2.3-.08,2.93,1.5-1.43.22-2.35-.25-2.93-1.5Z"/>
      <path class="cls-4" d="M127.57,73.87c-3.1-.2-5.36-.92-7.24-2.51-1.59-1.35-2.43-3-2.02-5.26.66-3.58,3.89-6.94,8.22-6.48,3.36.36,5.86,2.08,7.53,4.92,1.56,2.64.09,6.84-2.93,8.28-1.28.61-2.76.82-3.57,1.04ZM125.42,61.28c-1.82-.11-3.37.69-4.31,2.41-.99,1.8-1.51,3.68-.3,5.66,1.95,3.21,7.89,4.04,10.6,1.44,2.09-2,2.35-5.19.47-6.94-1.76-1.63-3.83-2.63-6.46-2.58Z"/>
      <path class="cls-4" d="M117.13,82.37c.8-1.79.87-1.83,2.6-1.77-.12,1.72-.49,1.99-2.6,1.77Z"/>
      <path class="cls-4" d="M116.49,74.68c1.9.3,2.01.4,2.48,2.02-1.73.21-2.45-.37-2.48-2.02Z"/>
      <path class="cls-4" d="M123.02,77.64c.96.1,1.68.12,2.35.28.21.05.48.52.45.76-.02.22-.38.53-.64.6-1.03.27-1.72-.2-2.17-1.64Z"/>
      <path class="cls-4" d="M134.76,124.31c.12,1.06-.57,2.28-1.77,3.11-4.33,3.01-8.47,3.15-12.74-.07-3.45-2.6-2.8-8.3,1.43-10.2,3.23-1.45,6.29-1.52,9.34.25,2.44,1.41,3.68,3.57,3.74,6.9ZM125.89,118.09c-.22.02-.62.02-1.01.09-2.17.38-3.46,2.11-5.04,3.37-.22.17-.15.85-.04,1.25.99,3.78,6.79,6.59,11.12,3.08,1.93-1.56,2.02-3.56.43-5.4-1.38-1.6-3.19-2.32-5.46-2.39Z"/>
      <path class="cls-4" d="M98.54,115.93c2.19-.05,4.21.38,6.01,1.73,1.57,1.17,2.53,2.72,3.1,4.52.69,2.16-.91,5.26-3.2,6.44-4.17,2.15-9.19,1.34-12.67-1.65-1.17-1-1.74-2.45-1.71-3.91.08-3.17,1.89-6.52,6.07-6.98.79-.09,1.59-.11,2.39-.16ZM98.56,128.31c1.4-.38,2.85-.62,4.18-1.16,2.22-.89,2.97-2.85,2.02-5.07-.84-1.98-2.38-3.2-4.49-3.56-2.32-.39-4.51.12-6.48,1.4-2.2,1.42-2.5,4.12-.67,6,1.47,1.51,3.26,2.25,5.44,2.39Z"/>
      <path class="cls-4" d="M72.75,98.21v-2.72c.33-.1.68-.27,1.04-.31.76-.08,1.73-.35,2.03.62.28.94-.67,1.34-1.3,1.75-.46.3-1.04.4-1.76.66Z"/>
      <path class="cls-4" d="M135.77,98.44c.7-.74,1.13-1.19,1.73-1.82q-.06,1.35-1.73,1.82Z"/>
      <path class="cls-4" d="M122.51,96.96c.77,1.84-.12,3.1-3.22,4.6-.42-1.6.89-3.47,3.22-4.6Z"/>
      <path d="M104.35,66.75c-.07,3.14-2.07,5.19-5.12,5.23-1.12.02-2.25-.07-3.35-.25-1.35-.22-2.22-1.12-2.76-2.34-1.21-2.74.42-6.76,3.2-7.62,2.38-.74,4.62.01,6.56,1.35,1.19.81,1.59,2.24,1.48,3.64Z"/>
      <path d="M125.42,61.28c2.64-.05,4.71.95,6.46,2.58,1.88,1.74,1.62,4.93-.47,6.94-2.72,2.6-8.65,1.78-10.6-1.44-1.21-1.98-.68-3.86.3-5.66.94-1.72,2.49-2.52,4.31-2.41Z"/>
      <path d="M125.89,118.09c2.27.07,4.08.78,5.46,2.39,1.59,1.84,1.5,3.84-.43,5.4-4.33,3.51-10.12.7-11.12-3.08-.11-.4-.17-1.08.04-1.25,1.58-1.27,2.87-2.99,5.04-3.37.39-.07.79-.07,1.01-.09Z"/>
      <path d="M98.56,128.31c-2.18-.14-3.98-.88-5.44-2.39-1.82-1.87-1.52-4.58.67-6,1.97-1.27,4.16-1.78,6.48-1.4,2.11.35,3.65,1.58,4.49,3.56.95,2.22.2,4.19-2.02,5.07-1.33.53-2.78.78-4.18,1.16Z"/>
      <path class="cls-4" d="M127.7,121.04s1.29-.65,1.37-.16-.65.73-1.29.56-.08-.4-.08-.4Z"/>
      <path class="cls-4" d="M125.7,121.16s-.42-1.38.07-1.38.61.76.34,1.37-.41.01-.41.01Z"/>
      <path class="cls-4" d="M125.63,124.34s-.11,1.44-.56,1.26-.29-.93.17-1.4c.47-.47.39.14.39.14Z"/>
      <path class="cls-4" d="M124.15,122.04s-1.42-.24-1.2-.67.95-.21,1.38.3-.17.37-.17.37Z"/>
      <path class="cls-4" d="M124.17,123.65s-1.25.72-1.36.25.6-.76,1.25-.64.11.4.11.4Z"/>
      <path class="cls-4" d="M128.63,123.37s1.44,0,1.3.46-.9.37-1.41-.06.11-.4.11-.4Z"/>
      <path class="cls-4" d="M127.01,124.15s.96,1.08.51,1.28-.87-.44-.88-1.1.37-.18.37-.18Z"/>
      <g>
        <path class="cls-4" d="M99.95,121.4s1.29-.65,1.37-.16-.65.73-1.29.56-.08-.4-.08-.4Z"/>
        <path class="cls-4" d="M97.96,121.53s-.42-1.38.07-1.38.61.76.34,1.37-.41.01-.41.01Z"/>
        <path class="cls-4" d="M97.88,124.7s-.11,1.44-.56,1.26-.29-.93.17-1.4.39.14.39.14Z"/>
        <path class="cls-4" d="M96.4,122.4s-1.42-.24-1.2-.67.95-.21,1.38.3-.17.37-.17.37Z"/>
        <path class="cls-4" d="M96.43,124.02s-1.25.72-1.36.25.6-.76,1.25-.64.11.4.11.4Z"/>
        <path class="cls-4" d="M100.88,123.73s1.44,0,1.3.46-.9.37-1.41-.06.11-.4.11-.4Z"/>
        <path class="cls-4" d="M99.26,124.51s.96,1.08.51,1.28-.87-.44-.88-1.1.37-.18.37-.18Z"/>
      </g>
      <g>
        <path class="cls-4" d="M100.11,64.94s1.29-.65,1.37-.16-.65.73-1.29.56-.08-.4-.08-.4Z"/>
        <path class="cls-4" d="M98.12,65.07s-.42-1.38.07-1.38.61.76.34,1.37-.41.01-.41.01Z"/>
        <path class="cls-4" d="M98.05,68.24s-.11,1.44-.56,1.26-.29-.93.17-1.4c.47-.47.39.14.39.14Z"/>
        <path class="cls-4" d="M96.56,65.94s-1.42-.24-1.2-.67.95-.21,1.38.3-.17.37-.17.37Z"/>
        <path class="cls-4" d="M96.59,67.56s-1.25.72-1.36.25.6-.76,1.25-.64.11.4.11.4Z"/>
        <path class="cls-4" d="M101.04,67.27s1.44,0,1.3.46-.9.37-1.41-.06.11-.4.11-.4Z"/>
        <path class="cls-4" d="M99.43,68.06s.96,1.08.51,1.28-.87-.44-.88-1.1.37-.18.37-.18Z"/>
      </g>
      <g>
        <path class="cls-4" d="M127.94,65.02s1.29-.65,1.37-.16-.65.73-1.29.56-.08-.4-.08-.4Z"/>
        <path class="cls-4" d="M125.94,65.15s-.42-1.38.07-1.38.61.76.34,1.37-.41.01-.41.01Z"/>
        <path class="cls-4" d="M125.87,68.32s-.11,1.44-.56,1.26-.29-.93.17-1.4.39.14.39.14Z"/>
        <path class="cls-4" d="M124.39,66.02s-1.42-.24-1.2-.67.95-.21,1.38.3-.17.37-.17.37Z"/>
        <path class="cls-4" d="M124.41,67.64s-1.25.72-1.36.25.6-.76,1.25-.64.11.4.11.4Z"/>
        <path class="cls-4" d="M128.87,67.35s1.44,0,1.3.46-.9.37-1.41-.06.11-.4.11-.4Z"/>
        <path class="cls-4" d="M127.25,68.14s.96,1.08.51,1.28-.87-.44-.88-1.1.37-.18.37-.18Z"/>
      </g>
      <g>
        <path class="cls-4" d="M144.15,82.28s1.29-.65,1.37-.16-.65.73-1.29.56c-.65-.16-.08-.4-.08-.4Z"/>
        <path class="cls-4" d="M142.16,82.41s-.42-1.38.07-1.38.61.76.34,1.37-.41.01-.41.01Z"/>
        <path class="cls-4" d="M140.6,83.28s-1.42-.24-1.2-.67.95-.21,1.38.3-.17.37-.17.37Z"/>
        <path class="cls-4" d="M140.63,84.9s-1.25.72-1.36.25.6-.76,1.25-.64.11.4.11.4Z"/>
        <path class="cls-4" d="M145.08,84.61s1.44,0,1.3.46-.9.37-1.41-.06.11-.4.11-.4Z"/>
      </g>
      <g>
        <path class="cls-4" d="M82.29,81.96s1.29-.65,1.37-.16-.65.73-1.29.56c-.65-.16-.08-.4-.08-.4Z"/>
        <path class="cls-4" d="M80.29,82.09s-.42-1.38.07-1.38.61.76.34,1.37-.41.01-.41.01Z"/>
        <path class="cls-4" d="M78.74,82.96s-1.42-.24-1.2-.67.95-.21,1.38.3-.17.37-.17.37Z"/>
        <path class="cls-4" d="M78.76,84.57s-1.25.72-1.36.25.6-.76,1.25-.64.11.4.11.4Z"/>
        <path class="cls-4" d="M83.22,84.29s1.44,0,1.3.46-.9.37-1.41-.06.11-.4.11-.4Z"/>
      </g>
    </g>
  </g>
</svg>