<?xml version="1.0" encoding="UTF-8"?>
<svg id="Layer_1" data-name="Layer 1" xmlns="http://www.w3.org/2000/svg" viewBox="0 0 180 200">
  <defs>
    <style>
      .cls-1, .cls-2 {
        fill: #f1e6cc;
      }

      .cls-3, .cls-4 {
        fill-rule: evenodd;
      }

      .cls-2 {
        stroke: #f1e6cc;
        stroke-miterlimit: 10;
        stroke-width: .83px;
      }

      .cls-4 {
        fill: #ffda40;
      }

      .cls-5 {
        fill: #231f20;
        font-family: AmericanTypewriter-Bold, 'American Typewriter';
        font-size: 20.52px;
        font-weight: 700;
      }

      .cls-6 {
        fill: #ee3b25;
      }
    </style>
  </defs>
  <g>
    <g>
      <polygon class="cls-4" points="27.8 82.23 4 117.07 5.18 118.57 50.59 116.99 34.28 87.03 29.43 81.36 27.8 82.23"/>
      <path class="cls-3" d="M42.37,99.21c1.59.23,1.18,2.68,2.84,2.84.04,1.75.94,2.56,2.05,3.14-.12,1.84.92,2.4,2.03,2.88.12.45-.18.52-.51.56.38.37,1.27.62.61,1.32.21-.16.43-.3.79-.31.12.54-.01.85-.5.84.54.69,2.09,2.15,1.21,2.64.28.46.88.55,1.64.46.15,2.21,1.36,3.24,1.36,5.61-.26-.16-1.02-.58-.79.31-.49-.51-1.88-.01-1.94-.98-.6,1.06-1.85-.7-3.21.7-.82.14-.61-.85-.88-1.31-.77.27.39.66.07,1.35-.21-.18-.91-1.09-.81.04-3.77-.26-9.36-.28-12.69.08-.01-.27-.03-.53-.04-.8-1.22.72-2.64.86-3.78.19-.73,1.05-5.74,1.09-7.28.36-2.96,1.7-9.55.1-10.98,1.89-2.32-1.3-6.33.17-9.23-.89-.27-.85.18-1.03.47-1.38-1.09-.04-.45-.2-.63-1.86,1.25-.41,1.77-1.48,1.74-3.06,1.25.2.54-1.39,1.83-1.17-.23-.82-.22-.5-.07-1.35,1.83.2.72-2.26,2.32-2.27-.19-.27-.63-.25-.58-.79,1.09.3.5-.91,1.59-.62-.02-.45-.04-.9-.07-1.35.23-.22.6-.32,1.06-.32,1.58-4.07,4.54-6.88,6.22-10.85.93-.02,1.22-.61,1-1.67.79.04.79-.65,1.59-.62.66-3.61,4.1-4.71,4.72-8.34,2.96-.66,2.25-4.65,5.13-5.38-.19-.27-.63-.25-.58-.78.89-.06,1.32-.53,2.42-.39,1.21.86-.32,1.39,1.41,1.28-1.11,1.22.35,4.79,1.56,4.25.4.07.07,2.04,1.44,1.82-.14.83.33.97.36,1.6,3.46,2.89,4.13,8.89,7.61,11.78.12.45-.18.52-.52.57ZM26.62,86.75c-.86.38-.25-.86-1.11-.49-.41.14-.19.86-1.04.6-.34,1.42-.67,2.82-2,3.34-.32,1.49.76,1.43,1.19,2.11-1.88,1.37-1.88,5.77-5.2,4.31.3.8,1.29.84,1.44,1.82-.71.37-1.24.51-1.59.62,1.15.94-.3.7-.75,1.39-1.15,1.79-1.77,4.6-3.79,5.05-.07,1.3-.55,2.25-1.77,2.52.68,1.4-.39.19-.77.85,1.73.33-1.11,1.18.1,1.89-1.92.4-1.45,2.98-2.78,3.92-.17-.46.25-1.6-.34-1.61,0,.42.09.93-.5.84-.29.89.88.16.59,1.05-1.12.28-.91,1.75-1.5,2.51,2.81-.62,7.38-.67,10.52-.52.05-.21-.02-.53.24-.55,10.46.96,18.79-.67,31.56-1.02-.58-2.84-3.09-4.2-4.07-5.75-.32-2.39-2.59-2.64-2.69-5.27-1.21.18-1.04-.96-.89-1.57-1.07.02-2.05-1.72-1.18-2.11-.84.46-.91-.16-1.64-.46-1.95-5.89-6.6-10.04-8.84-14.69.01.27-.46.36-.54.02.33-.04.63-.11.52-.56-.75.26-.72-.34-1.36-.2-1.3,1.82-1.89,4.3-4.06,5.33.57.93-.2,1.31-.71,1.93-.33-1.07-.07-2.1.39-2.99.44-.02.18.74.58.78.06-1.16.98-3.36,1.78-2.25-.03-.37.09-.6.23-.82Z"/>
    </g>
    <text class="cls-5" transform="translate(17.12 112.92) scale(.79 1)"><tspan x="0" y="0">43</tspan></text>
  </g>
  <g>
    <path class="cls-6" d="M113.77,40.72c20.43-.99,38.68,9.41,52,24.08,2.07,2.28,4.22,5.66,5.24,8.57,2.1,6.02,5.72,19.4,5.83,25.52.38,20.87-9.25,38.99-25.18,51.92-15.41,12.51-39.48,13.05-58.03,8.55-18.78-4.55-38.37-29.26-39.66-48.38-1.31-19.47,1.87-34.68,14.54-49.64,11.71-13.83,27.31-19.76,45.26-20.62ZM108.07,95.58h7.19l-2.63-12.33c-.82-.52-4.95.62-6-.47l5.09-1.81c2.35-1.58,2.03-7.87,1.82-10.57-.15-1.94-.72-5.2-2.73-5.9-1.17-.41-4.52-.87-5.77-.88-.61,0-1.17.29-1.73.31-.93.03-4.16-.32-4.42.47l-.33,31.46,7.36-.56c-.61-3.69-.18-7.24-.17-10.94l.88.13,1.42,11.09ZM132.82,63.65h-5.61c-.08,0-.99.34-1.02.47-.28,6.21.42,12.8.03,18.96-.06,1.01-.43,4.6-1.31,5.02-.57.15-.64-.68-.69-1.03-.4-2.91.45-7.52.56-10.61.15-4.17-.01-8.36.28-12.53l-6.5-.27-.65.46-.63,9.72c.7,7.27-3.08,19.94,7.41,21.26,1-.38.55-2.56.65-3.41,1.6-.69,1.24,2.12,1.89,3,.54.73,3.86.39,4.86.27.28-.03.97-.15,1.04-.45l-.3-30.88ZM93.54,75.73c-1.55-.26-3.7.19-5.32,0l-.29,13.52h-1.15s0-15.83,0-15.83l8.34.29-.32-1.69c-1.28-.11-7.17,0-7.77-.73-.55-.68.03-1.5.04-2.32.03-1.68-.05-3.37-.01-5.05l-6.91.29c-.06,6.64-.59,13.34-.3,20.01.28,6.34.32,10.88,7.91,11.08,3.52.09,5.79-.26,6.2-4.19.14-1.34.24-3.22.3-4.59.15-3.35-.15-6.74,0-10.09l-.07-.37c-.22-.05-.52-.31-.67-.34ZM144.9,80.62v4.75c0,.29-.55,2.8-.73,3.01-.33.39-.52.33-1,.3.43-1.45-.74-8.43,0-9.06,1.5-1.29,6.15.44,8.06.15-.35-3.37-.74-6.8-.31-10.17-.53-3.38-1.88-4.76-5.3-5.07-4.39-.39-7.32-.46-8.63,4.31-1.06,3.84-.26,13.65.15,17.98.42,4.38.71,7.77,5.92,8.46,1.52.2,5.6-.28,6.85-1.16,1.05-.74,1.55-5.85,1.63-7.29.11-1.98-.07-3.95-.3-5.91l-6.33-.29ZM129.08,131.26l2.75-33.67c-.94-.35-6.29-1.03-6.5-.09l-2,26.28h-.86s-1.15-26.18-1.15-26.18l-7.48.29,3.35,32.73c.66,1.16,1.91.28,2.83.33.82.04,1.53.31,2.29.33,2.25.06,4.52-.07,6.78-.01ZM87.07,98.17c-1.26.42-6.17-1.35-6.58-.1-.51,5.25-.26,10.52-.32,15.79-.06,5.33-.45,10.73,0,16.1.02.29.2,1.53.46,1.6,3.7.56,7.33-.23,11.04-.02l-.32-6.3c-1.21-.72-3.1.62-3.41-1.05-.24-1.27.09-3.18-.01-4.59-.2-2.71-.75-5.62-.87-8.33-.2-4.35.17-8.75.01-13.1ZM150.23,115.15c-1.78-.31-4.31.23-6.19,0v7.05c0,.14-.46,1.97-.55,2.03l-1.15.09c-.39-1.46-.65-9.56.04-10.26,1.51-.41,3.42-.48,4.98-.36,1.44.11,2.95,1.12,4.19.11-1.48-5.3,1.24-13.27-5.21-15.78-2.16-.84-7.24-.21-8.92,1.43-2.95,2.89-1.96,13.64-2,17.85,0,.68-.3,1.31-.31,1.99-.04,2.99-.05,9.45,3.07,11.05.97.5,5.84.47,7.16.33,1.6-.17,4.9-1.52,5.48-3.15.46-1.3,1.16-9.07,1.01-10.53-.11-1.05-.44-1.65-1.6-1.85ZM99.07,97.95c-.45.1-3.07,2.04-3.33,2.42-.46.67-.72,2.31-.86,3.17-.69,4.21-.82,19.29.45,23.06,1.38,4.07,5.03,4.69,8.86,4.95,5.89.39,6.69-.32,7.06-6.17.37-5.79.08-14.02-.29-19.87-.16-2.52-.54-5.19-2.62-6.88-1.14-.93-7.78-1.02-9.28-.67Z"/>
    <path class="cls-1" d="M99.07,97.95c1.49-.34,8.14-.25,9.28.67,2.07,1.69,2.46,4.36,2.62,6.88.37,5.85.65,14.09.29,19.87-.37,5.85-1.16,6.56-7.06,6.17-3.83-.26-7.48-.88-8.86-4.95-1.27-3.76-1.14-18.85-.45-23.06.14-.86.4-2.49.86-3.17.26-.38,2.89-2.32,3.33-2.42ZM102.04,124.35c.51.08.82-.02,1.16-.42.99-1.13.47-6.3.55-8.08.16-3.61.54-7.29.6-10.93,0-.95-1.34-2.29-1.96-1.07-.83,1.61-.28,11.94-.34,14.62-.04,1.87-.77,3.96,0,5.88Z"/>
    <path class="cls-1" d="M150.23,115.15c1.16.2,1.49.8,1.6,1.85.15,1.46-.55,9.23-1.01,10.53-.58,1.63-3.87,2.98-5.48,3.15-1.32.14-6.19.17-7.16-.33-3.12-1.6-3.11-8.06-3.07-11.05,0-.68.31-1.31.31-1.99.04-4.21-.95-14.96,2-17.85,1.68-1.64,6.75-2.28,8.92-1.43,6.45,2.51,3.73,10.47,5.21,15.78-1.24,1.01-2.75,0-4.19-.11-1.55-.12-3.47-.04-4.98.36-.69.7-.43,8.8-.04,10.26l1.15-.09c.09-.06.55-1.89.55-2.03v-7.05c1.87.23,4.41-.31,6.19,0ZM142.75,103.64c-.41.13-.68,2.7-.72,3.31-.07,1-.36,6.87,1.69,4.28.74-.94.68-2.56.62-3.72-.04-.76-.31-4.27-1.59-3.87Z"/>
    <path class="cls-1" d="M129.08,131.26c-2.25-.06-4.52.07-6.78.01-.75-.02-1.47-.29-2.29-.33-.92-.04-2.17.84-2.83-.33l-3.35-32.73,7.48-.29,1.15,26.18h.86s2-26.28,2-26.28c.22-.94,5.56-.26,6.5.09l-2.75,33.67Z"/>
    <path class="cls-1" d="M132.82,63.65l.3,30.88c-.07.3-.76.42-1.04.45-1,.12-4.32.45-4.86-.27-.65-.88-.28-3.69-1.89-3-.1.85.35,3.03-.65,3.41-10.5-1.32-6.71-13.99-7.41-21.26l.63-9.72.65-.46,6.5.27c-.29,4.16-.13,8.36-.28,12.53-.11,3.09-.96,7.69-.56,10.61.05.35.12,1.18.69,1.03.88-.42,1.25-4.01,1.31-5.02.4-6.16-.31-12.76-.03-18.96.03-.13.95-.47,1.02-.47h5.61Z"/>
    <path class="cls-1" d="M108.07,95.58l-1.42-11.09-.88-.13c-.02,3.7-.44,7.26.17,10.94l-7.36.56.33-31.46c.26-.79,3.49-.45,4.42-.47.56-.02,1.12-.31,1.73-.31,1.25,0,4.6.47,5.77.88,2.01.7,2.58,3.95,2.73,5.9.21,2.7.52,8.99-1.82,10.57l-5.09,1.81c1.05,1.1,5.18-.04,6,.47l2.63,12.33h-7.19ZM105.49,80.62c1.01-.01,1.62-.22,1.74-1.28.18-1.5.24-7.89-.02-9.22-.14-.7-.67-.98-1.29-1.24-1.4.84-.45,2.55-.42,3.81.06,2.64-.07,5.29-.01,7.92Z"/>
    <path class="cls-1" d="M144.9,80.62l6.33.29c.23,1.95.41,3.93.3,5.91-.08,1.44-.58,6.55-1.63,7.29-1.25.88-5.32,1.36-6.85,1.16-5.21-.69-5.5-4.09-5.92-8.46-.42-4.33-1.21-14.14-.15-17.98,1.32-4.76,4.24-4.7,8.63-4.31,3.42.3,4.77,1.68,5.3,5.07-.43,3.37-.04,6.8.31,10.17-1.9.29-6.56-1.43-8.06-.15-.74.63.44,7.62,0,9.06.47.03.66.1,1-.3.18-.21.73-2.72.73-3.01v-4.75ZM144.62,75.59c.21-1.25,0-3.49,0-4.89,0-.1-.28-.33-.27-.54l-.86-.16c-.23.89-.67,6.32-.46,6.61.64.91,1.47-.29,1.59-1.02Z"/>
    <path class="cls-1" d="M93.54,75.73c.16.03.45.29.67.34l.07.37c-.16,3.35.14,6.74,0,10.09-.06,1.37-.17,3.25-.3,4.59-.4,3.93-2.68,4.28-6.2,4.19-7.59-.2-7.63-4.73-7.91-11.08-.29-6.67.24-13.37.3-20.01l6.91-.29c-.03,1.68.04,3.37.01,5.05-.01.82-.59,1.64-.04,2.32.6.73,6.49.62,7.77.73l.32,1.69-8.34-.29v15.83s1.15,0,1.15,0l.29-13.52c1.63.19,3.77-.26,5.32,0Z"/>
    <path class="cls-1" d="M87.07,98.17c.16,4.35-.21,8.76-.01,13.1.12,2.71.67,5.62.87,8.33.1,1.41-.23,3.32.01,4.59.31,1.67,2.21.32,3.41,1.05l.32,6.3c-3.71-.22-7.35.58-11.04.02-.26-.07-.44-1.31-.46-1.6-.44-5.37-.05-10.76,0-16.1.06-5.27-.2-10.54.32-15.79.41-1.25,5.32.52,6.58.1Z"/>
    <path class="cls-2" d="M141.33,137.2c.45.28,1.79,10.36.31,10.42-1.11.04-.06-2.19-.24-2.37-1.11-.21-1.37,1.08-2.25,1.34-3.58,1.07-5.96-2.99-3.49-4.45,1.36-.8,4.56.6,5.68-1.5l-.72-2.58c-1.52-.13-3.79.21-4.01,1.93l-.95-.23c.03-1.85,4.26-3.42,5.66-2.55ZM141.39,142.38c-6.59-1.8-7.47,5.08-2.23,3.27.44-.15,2.58-2.97,2.23-3.27Z"/>
    <path class="cls-2" d="M95.46,137.71c.4.41,1.03,3.23,1.07,3.96.28,4.89-2.8,5.65-6.68,3.56l-.14,4.49c-.49.41-1.11.47-1.1-.65.04-2.68.89-9.77.04-12.41l1.59-.12v1.87c.94-1.36,4.07-1.89,5.22-.71ZM92.57,138.17c-4.28.93-2.42,10.42,2.78,6.61.4-2.52.91-7.41-2.78-6.61Z"/>
    <path class="cls-2" d="M123.73,146.67c-1-.93,5.03-6.98,5.73-7.88-1.66-.69-3.76.16-5.42-.3-.91-.25-.85-.89-.07-1.35,1.01,1.04,6.95-.2,6.92,1.18l-6.19,7.16c.65,1.03.82.4,1.31.38,1.55-.06,3.03-.28,4.6-.1.47.05,1.79.2,1.71.91h-8.59Z"/>
    <path class="cls-2" d="M112.99,146.19l-.48-.95c2.05-2.04,4.31-3.96,5.49-6.68l-6.21-.23c-.28-.35-.74-.42-.23-.73,1.69-1.02,5.68.57,7.87,0,.9.83-5.08,6.68-5.73,7.63,1.99.38,5.39-.94,6.68.96h-7.4Z"/>
    <path class="cls-2" d="M105.04,137.08l.07,7.69c.17.17,2.44.13,3.51.41.64.17.29.41.41,1.02-2.23-.24-6.3.3-8.42.2-.71-.03-.24-.57-.28-1.02l3.81-.16.29-6.69c-.84-1.21-4.03.59-3.61-1.4l4.22-.05Z"/>
    <polygon class="cls-2" points="105.57 133.74 105.3 135.16 103.93 135.21 103.78 133.78 105.57 133.74"/>
    <path class="cls-6" d="M102.04,124.35c-.76-1.93-.03-4.01,0-5.88.06-2.68-.49-13,.34-14.62.62-1.21,1.97.12,1.96,1.07-.06,3.65-.44,7.32-.6,10.93-.08,1.78.44,6.95-.55,8.08-.34.39-.65.49-1.16.42Z"/>
    <path class="cls-6" d="M142.75,103.64c1.27-.4,1.55,3.11,1.59,3.87.06,1.16.13,2.78-.62,3.72-2.05,2.59-1.76-3.28-1.69-4.28.04-.61.31-3.18.72-3.31Z"/>
    <path class="cls-6" d="M105.49,80.62c-.06-2.63.07-5.29.01-7.92-.03-1.25-.98-2.97.42-3.81.62.26,1.15.54,1.29,1.24.26,1.33.2,7.72.02,9.22-.12,1.05-.73,1.26-1.74,1.28Z"/>
    <path class="cls-6" d="M144.62,75.59c-.12.73-.95,1.93-1.59,1.02-.21-.3.23-5.73.46-6.61l.86.16c0,.21.27.44.27.54,0,1.4.21,3.64,0,4.89Z"/>
  </g>
</svg>