<?xml version="1.0" encoding="UTF-8"?>
<svg id="Layer_1" data-name="Layer 1" xmlns="http://www.w3.org/2000/svg" viewBox="0 0 180 200">
  <defs>
    <style>
      .cls-1, .cls-2 {
        fill-rule: evenodd;
      }

      .cls-1, .cls-3 {
        fill: #231f20;
      }

      .cls-4 {
        fill: #fff;
      }

      .cls-5 {
        fill: #18b59c;
      }

      .cls-2 {
        fill: #ffda40;
      }

      .cls-3 {
        font-family: AmericanTypewriter-Bold, 'American Typewriter';
        font-size: 20.52px;
        font-weight: 700;
      }
    </style>
  </defs>
  <g>
    <g>
      <path class="cls-4" d="M37.75,61.92l.22,29.08s-.44,16.2-.44,20.42-.44,14.65-.22,17.54.67,16.2.67,16.2c0,0,17.31.44,18.42.44s26.42-.22,29.74-.22,13.54.22,16.65.22,35.96-.44,38.62-.22,19.53.89,23.09.89,11.32-.44,11.32-.44c0,0,.89-48.17.89-49.94s.67-19.76.67-24.2-1.11-13.1-1.11-13.1c0,0-67.7.44-75.47.22s-28.41.44-31.74.22-30.85,0-30.85,0l-.44,2.89Z"/>
      <g>
        <rect class="cls-4" x="39.83" y="59.95" width="135.55" height="83.09"/>
        <path class="cls-5" d="M63.27,96.88s.98-3.37,1.86-3.55,1.78-.89,2.22.09.8,2.57.89,3.55.62,6.75.62,7.55-.18,4.26-1.24,4.62-2.75.71-2.93,0-.71-4.44-1.07-5.5-1.51-4.97-.36-6.75Z"/>
        <path class="cls-5" d="M80.84,96.52s-.8-1.51-2.04-1.24-2.31,1.42-2.22,4.79-.44,6.21-1.69,7.28c-1.24,1.07-2.04,2.04-1.51,2.4s2.49,1.69,3.11.71,3.2-5.59,3.46-7.01.89-6.92.89-6.92Z"/>
        <path d="M85.99,107.59c0,.37-.06.7.01,1,.18.8.34,1.62.63,2.39,1.61,4.21,2.01,8.65,2.48,13.07.21,2.02.46,4.03.93,6.02.63,2.68.9,5.41.83,8.17-.02.74-.08,1.44-.99,1.78-.86-.17-1.29-1.1-2.18-1.49-.39.58-.8,1.19-1.29,1.92-.52-.41-.93-.74-1.38-1.1-.44.55-.87,1.12-1.34,1.64-.47.53-.96.44-1.28-.22-.19-.39-.33-.81-.46-1.24-.96-3.22-2.17-6.33-3.62-9.36-.59-1.23-.95-2.56-1.47-3.99-.32.25-.63.39-.77.62-.66,1.16-1.01,2.43-1.09,3.76-.12,1.97-.28,3.95-.39,5.92-.03.51-.08.99-.51,1.33-1.25.97-1.98,2.18-1.82,3.83.01.14-.1.3-.17.45-.02.05-.08.07-.21.18-1.36-.38-1.67-1.84-2.55-2.78-.72.35-.89,1.34-1.81,1.42-.77-.42-.18-1.46-.88-2.09-.3.33-.58.63-.85.94-.21.25-.38.54-.63.76-.46.4-1.19.17-1.28-.43-.08-.54-.06-1.1,0-1.64.11-1.15.27-2.29.43-3.43.18-1.23-.02-2.39-.52-3.54-1.5-3.49-2.61-7.12-3.39-10.83-.53-2.47-.57-5.02-.58-7.55,0-1.37,0-2.73,0-4.16-.6,0-1.07,0-1.55,0-1.6,0-2.36-.47-2.76-2.03-.31-1.21-.46-2.49-.52-3.74-.16-3.35,0-6.7.35-10.04.19-1.71,1.04-3.11,2.15-4.37.91-1.03,1.89-1.99,2.82-3,.21-.23.41-.52.51-.82,1.15-3.63,2.88-7.01,4.64-10.36,1.04-2,2.14-3.96,3.2-5.95.62-1.17,1.2-2.33,1.22-3.72.02-.84.41-1.58,1.08-2.15.9-.74,1.75-.77,2.69-.06.52.4,1.03.81,1.55,1.21.08.06.21.07.37.11.26-.24.54-.49.81-.75.36-.34.68-.72,1.06-1.04,1.33-1.13,2.5-.71,2.81,1.03.11.64.12,1.29.17,1.92,1.14.28,2.21.47,3.24.81.72.24,1.39.63,2.05,1.02,1.13.67,2.24,1.39,3.36,2.08.78.49,1.58.71,2.5.34.36-.15.81-.36,1.22.05-.5.33-.97.65-1.45.97.02.07.05.14.07.21.61-.08,1.22-.16,1.95-.26.05.44.16.82.11,1.17-.2,1.51-.84,2.87-1.78,4.02-.83,1.01-1.84,1.89-2.86,2.72-1.25,1.02-2.65,1.75-4.35,1.73-.42,0-.84.12-1.36.2.19.74.72,1.07,1.2,1.34,1.45.82,2.69,1.89,3.83,3.08.52.55,1.04,1.16,1.37,1.83.63,1.28,1.14,2.62,1.67,3.94.72,1.79.59,3.67.51,5.53,0,.05-.02.11-.02.16-.04,2.82-.35,5.58-1.51,8.2-.28.63-.25,1.4-.4,2.1-.2.96-.48,1.19-1.46,1.19-.55,0-1.09-.1-1.64-.13-.21-.01-.42.05-.7.09ZM79.83,95.27c-.12.09-.21.19-.28.19-.71-.04-1.28.25-1.73.78-.47.55-.82,1.15-.86,1.91-.07,1.32-.22,2.63-.27,3.95-.07,1.56-.45,3.04-1.02,4.47-.35.88-.71,1.73-1.64,2.18-.18.09-.35.48-.3.67.05.2.35.42.59.48.99.28,1.88.12,2.42-.84.69-1.24,1.33-2.52,2-3.78.04-.08.16-.12.33-.23.23.14.5.31.8.49-.5,1.59-1.35,2.92-2.3,4.2-.87,1.17-1.93,1.78-3.41,1.38-.53-.14-.96-.07-1.36.31-.18.17-.41.28-.63.43-.75-.79.3-1.41.01-2-1-.46-1.97-.91-2.96-1.37q-.69.56-.76,2.03c-.03.59-.54.89-1.02.58-.13-.09-.27-.2-.35-.33-.46-.72-1.16-.66-1.92-.54.85.74,1.6,1.58,2.8,1.78,1.3.22,2.59.5,3.89.73.7.12,1.41.28,2.12.28,1.24,0,2.41-.32,3.14-1.46,1.17-1.84,2.32-3.71,3.53-5.66.36.14.79.32,1.3.52-.15.37-.23.62-.34.86-.97,1.93-2.22,3.66-3.84,5.11-.33.29-.85.51-.75,1.19.77.08,1.12-.48,1.53-.87,1.93-1.86,3.93-4.87,4.37-6.6-1.81-.8-3.64-1.61-5.55-2.45.75-1,2.02-.95,2.84-1.71-.59-.45-1.14-.82-1.62-1.26-.45-.41-1.3-.51-1.17-1.45.67-.75,1.7-.88,2.6-1.26-.24-.62-.44-1.15-.64-1.68,1.01-.37,1.84-.23,2.69.14.52.23,1.06.65,1.76.17-.66-1.38-1.31-2.76-1.97-4.14-.03-.06-.19-.06-.46-.14.41,1.17.78,2.25,1.18,3.38-1.06.03-1.54-.41-1.8-1.25-.25-.78-.59-1.53-.88-2.24-2.01-.76-4.08-.33-6.07-.64-.08-.01-.22.4-.4.74,1.77.19,2.65,1.35,3.4,2.71,1.11-.68,2.11-.73,3.03.21ZM61.21,98.29c1.37.11,2.43-.75,3.75-.48-.52,1.13-1.49,1.9-1.74,3.09,1.22.97,2.84,1.09,4.11,2.07-.39.36-.71.65-1.03.95-.73.68-.77.91-.35,1.86.15.34.29.68.39.94-1.15.53-2.21,1.03-3.36,1.56.34,1.24.36,2.5,1.18,3.45.93,1.08,2.27,1.5,3.56,1.96.41.15.86.43,1.5-.03-.36-.19-.58-.33-.81-.43-.76-.32-1.51-.66-2.28-.94-1.7-.62-2.22-1.96-2.31-3.62.38-.21.71-.4,1.04-.59.17.1.3.17.44.25,1.63.93,2.8.37,3.06-1.45.03-.22.04-.44.03-.66-.06-.99-.09-1.98-.23-2.95-.21-1.52-.49-3.04-.39-4.59.05-.77.06-1.54.02-2.31-.03-.54-.1-1.1-.27-1.61-.44-1.29-1.65-1.52-2.55-.48-.31.36-.51.84-.69,1.29-.18.45-.28.94-.43,1.44-.59.33-1.18.56-1.94.42.34-2.45,1.54-4.35,3.31-5.92.61-.55,1.29-1.03,1.44-2.07-1.48-1.27-.78-2.7.11-4.18-.79-.08-1.24.12-1.4.76-.34,1.35-.68,2.7.55,3.82.03.03.03.1.09.28-1.33.9-2.54,2.03-3.37,3.47-.82,1.41-1.6,2.86-1.42,4.69ZM75.79,99.39c-.13-1.19-.23-2.39-.41-3.58-.06-.42-.23-.86-.47-1.21-.86-1.24-2.16-1.17-2.85.15-.49.94-.67,1.95-.71,3.01-.06,1.75-.15,3.5-.31,5.24-.08.87-.35,1.71-.52,2.57-.15.78-.12,1.53.37,2.2.41.56,1.03.73,1.58.3,1.13-.88,2.17-1.83,2.55-3.32.45-1.76.73-3.54.78-5.37ZM66.31,92.19c1.69.66,2.23,1.19,2.35,2.47.2,2.13.33,4.26.47,6.39.04.66.02,1.32.07,1.97.01.17.19.34.43.74.09-.57.17-.87.19-1.17.08-1.48.14-2.96.2-4.44.11-3.05.23-3.35,2.19-5.51-.11-.52-.24-1.09-.36-1.65-1.27-.25-2.44-.47-3.38-.66-.77.66-1.38,1.19-2.15,1.86ZM68.83,86.34c.22.17.29.28.39.3,2.37.64,4.73,1.3,7.12,1.87.95.23,1.94.26,2.92.34.22.02.45-.1.81-.19-1.86-1.28-9.38-2.84-11.23-2.33ZM67.32,87.27c-.07.15-.17.25-.16.33.03.15.09.35.2.42.52.3,1.03.63,1.59.83,2.69.94,5.46,1.63,8.29,1.96,1.08.13,2.19.05,3.28,0,.25,0,.49-.26.74-.41-.48-.27-.9-.29-1.32-.31-.71-.02-1.43.03-2.13-.07-3.61-.49-7.24-.96-10.5-2.77ZM73.28,85.36c.68.11,1.36.2,2.03.35,1.7.39,3.4.79,5.1,1.23.35.09.69.28.99.49.92.66,1.29,1.58,1.28,2.7,0,.44-.2.99.44,1.36.39-.75.27-1.53.33-2.25.14-1.65-.47-2.41-2.08-2.78-2.07-.49-4.15-.98-6.22-1.47-.64-.15-1.27-.2-1.87.38ZM67.56,128.05c1.14-2.39.89-4.95.89-7.47,0-.76.09-1.58-.52-2.25-.33,3.24-.64,6.46-.38,9.72ZM76.06,64.91c.21.49.12,1.08.75,1.38.71-.31,1.43-.62,2.26-.97-1.26-.65-1.27-.65-3.01-.41ZM79.83,71.53c.01.11,0,.2.03.22.87.52,2.05.16,2.4-.71.15-.38,0-.82-.36-.95-.41-.15-.86-.07-.88.39-.05.81-.67.87-1.19,1.05ZM68.88,131.51c.47-.99.3-1.85.37-2.67.02-.18-.21-.38-.42-.76-.29,1.23-.63,2.23.05,3.43ZM69.27,69.59c1.44-.52,1.19-1.45,1.09-2.55-.56.82-.98,1.48-1.09,2.55ZM87.83,130.27c.07-.99.04-1.95-.87-2.75-.2,1.16.19,2,.87,2.75ZM56.93,100.93c-.36-.19-.67-.35-1.01-.54-.16.86,0,1.42.89,1.65.04-.37.08-.74.12-1.11ZM66.94,136.06c-.86.56-1.01,1-.7,1.66.69-.28.58-.82.7-1.66ZM89.38,137.48c.1-.52.2-.76.16-.99-.02-.15-.25-.26-.38-.39-.11.15-.35.32-.32.43.07.26.26.48.54.94ZM81.17,81.34c.01.08,0,.16.03.18.22.11.43.22.66.28.05.01.15-.22.23-.34-.17-.09-.33-.23-.51-.26-.13-.02-.28.09-.42.15ZM64.49,78.9c-.4.26-.82.57-.45,1.28.2-.56.32-.92.45-1.28Z"/>
        <path d="M103.05,95.73c-.26-5.01.32-10.1-.28-15.28-.22-.09-.51-.13-.68-.3-.2-.21-.44-.56-.4-.79.05-.24.4-.57.65-.59.7-.07,1.42-.02,2.13.01,1.09.06,2.19.12,3.28.22.71.06,1.41.19,2.11.29,1.51.21,2.29,1.19,2.68,2.55.67,2.31-.16,4.17-1.87,5.88.27.34.55.71.85,1.07,2.14,2.57,1.17,5.81-.24,7.59-.35.44-.95.77-1.5.94-2.4.76-4.87.56-7.32.36-.64-.05-.88-.7-.47-1.21.13-.16.36-.23.53-.35.13-.09.26-.19.51-.38ZM106.25,88.45c-.03,2.57-.06,5.03-.07,7.49,0,.12.19.25.29.37,1.49-.15,2.38-.97,2.92-2.33.38-.97.39-1.94.25-2.92-.25-1.72-1.33-2.59-3.4-2.62ZM106.03,80.17c-.11,1.18-.11,2.32.01,3.46.12,1.16-.21,2.37.3,3.51.71-.24,1.32-.45,1.94-.64.51-.16.81-.53,1-1,.72-1.79.15-3.82-1.39-4.99-.5-.38-1.01-.66-1.86-.33Z"/>
        <path d="M114.61,83.47c-.33-.22-.55-.39-.79-.51-.41-.2-.55-.51-.44-.94.11-.42.38-.66.81-.68,1.21-.07,2.41-.04,3.54.43,0,.15.04.32,0,.35-.82.48-.95,1.23-.92,2.1.1,2.91-.26,5.81.05,8.72.11,1.01.36,1.94.9,2.79.56.89,1.42,1.07,2.23.41.41-.33.75-.81.95-1.29.21-.49.27-1.07.28-1.61.04-3.13.05-6.26.06-9.39,0-.27-.06-.54-.1-.82-.38-.23-.74-.46-1.12-.7.06-.21.06-.43.15-.49,1.11-.7,2.31-.53,3.48-.23.47.12.52.74.08,1.03-.26.18-.59.26-.9.39-.29,1.58.13,3.08.39,4.58.46,2.67-.04,5.25-.58,7.83-.07.35-.33.74-.61.94-.99.7-2.04,1.32-3.27,1.43-.47.04-1.03-.04-1.42-.28-1.52-.92-2.63-2.18-2.72-4.06-.08-1.59-.05-3.18-.06-4.78,0-1.75,0-3.51,0-5.23Z"/>
        <path d="M134.66,97.53c.42-2.9,1.67-5.25,2.6-7.66.94-2.43,2.3-4.71,3.54-7.2-1.46-.37-2.8-.39-4.06.12-.44.18-.72.77-1.07,1.18-.3.35-.38.96-1.14.85.08-1.32.29-2.58,1.06-3.7,1.34-.46,2.62.13,3.92.17,1.31.04,2.62,0,3.89,0,.44.74.12,1.27-.13,1.8-.72,1.48-1.49,2.94-2.16,4.44-1.21,2.7-2.37,5.43-3.55,8.15-.06.14-.07.31-.13.59.55.27,1.15.17,1.72.22.54.05,1.1.12,1.64.06.28-.03.58-.29.77-.53.51-.65.95-1.35,1.43-2.01.18-.25.41-.46.83-.92.04.62.1.97.07,1.31-.06.66-.16,1.31-.25,1.96-.13.86-.32,1.04-1.13,1.13-.16.02-.33.02-.49.02-2.35,0-4.7,0-7.35,0Z"/>
        <path d="M131.27,96.18c.59-1.22,1.11-2.32,2.21-2.93.13.06.3.08.31.14.29,1.16-.05,2.27-.37,3.35-.08.28-.55.57-.88.62-.8.14-1.63.23-2.44.19-1.7-.07-3.39-.24-5.29-.38-.24-.16-.27-.58-.08-1.02.24-.55.52-1.09.79-1.63,1.32-2.6,2.5-5.25,3.45-8.01.41-1.19.99-2.31,1.49-3.47-1.84-.9-3.76-.45-4.92,1.11-.21.28-.49.5-.94.94.07-1.44.15-2.56.64-3.64.3-.05.57-.15.83-.13,2.45.2,4.9.41,7.46.63-.34,1.31-1.09,2.4-1.57,3.59-.47,1.17-1.05,2.3-1.57,3.45-.55,1.2-1.08,2.4-1.62,3.61-.52,1.14-1.07,2.27-1.33,3.59,1.33.53,2.54-.08,3.86-.02Z"/>
        <path d="M153.39,97.43c-1.54,0-2.69.01-3.84,0-.49,0-.83-.24-.93-.87.66-.43.74-1.13.75-1.93.02-1.65.12-3.29.21-4.94.04-.74-.14-1.4-.57-2.02-.95-1.35-1.84-2.74-2.82-4.06-.38-.51-.95-.88-1.41-1.35-.13-.13-.25-.41-.2-.56.05-.16.31-.33.49-.34,1.42-.09,2.82-.01,4.46.3-.41.37-.65.59-.93.84.73,1.39,1.31,2.88,2.54,4.07.71-.54.96-1.35,1.43-2,.44-.61.83-1.26,1.31-1.99-.41-.2-.71-.31-.96-.48-.28-.2-.19-.71.14-.8.26-.08.54-.14.81-.13.93.02,1.86.08,2.95.13-.13.41-.14.84-.31.92-.75.36-1.12,1.03-1.55,1.66-.73,1.1-1.39,2.25-2.2,3.29-.86,1.11-1.11,2.37-1.15,3.7-.04,1.26.01,2.53.04,3.79.02.74.1,1.42.96,1.74.24.09.36.47.77,1.03Z"/>
        <path d="M162.56,84.62c.48-.26.9-.49,1.43-.78.12.31.31.56.27.77-.1.59-.29,1.17-.47,1.74-.12.37-.31.76-.8.65-.47-.1-.48-.52-.49-.92,0-.21-.07-.42-.1-.63-.74-.45-1.38-.42-1.91.26-.5.63-.54,1.26-.07,1.98.27.41.64.75.96,1.12.75.87,1.57,1.7,2.23,2.64,2.04,2.88-.41,5.91-3.07,6.22-1.6.19-3.19-1.41-3-2.96.05-.4.21-.81.65-.82.27,0,.62.18.81.39.33.36.55.82.86,1.2.51.62.93.76,1.4.52.59-.3.97-.84.81-1.47-.35-1.32-.73-2.66-2.02-3.45-.47-.29-.94-.59-1.34-.95-1.39-1.27-1.6-3.44-.53-4.95,1.1-1.56,2.48-1.77,4.38-.56Z"/>
        <path d="M140.88,105.07c-.98-.91-1.06-2.35-1.86-3.44-.37.94-.46,2.14-.29,4-.26-.16-.58-.28-.58-.38.01-.6.13-1.2.16-1.8.05-1.07.38-2.17-.24-3.21.37-.3.68-.3.93.16.49.9.98,1.79,1.6,2.92.29-1.27.21-2.27.06-3.37.22-.03.41-.05.69-.09-.1,1.76-.19,3.44-.28,5.12,0,.02-.1.04-.2.09Z"/>
        <path d="M158.47,83.14c.13-.33.24-.67.39-.99.59-1.22.54-1.45-.46-2.35-.16-.15-.39-.3-.43-.48-.08-.35-.15-.76-.04-1.08.13-.39.52-.47.96-.4,1.26.19,1.59.57,1.6,1.82,0,1.49-.86,2.52-1.68,3.59-.11-.04-.23-.08-.34-.13Z"/>
        <path d="M117.73,105.38c-.3.02-.51.06-.73.04-1.17-.13-1.5-.45-1.63-1.64-.06-.54-.02-1.09-.04-1.64-.02-.7-.06-1.39-.1-2.2h1.05c-.16.46-.37.86-.43,1.28-.07.48-.02.98,0,1.47.02.49.02.99.12,1.46.05.23.27.47.48.6.57.36,1.11.09,1.14-.61.05-1.2.04-2.4.05-3.61,0-.16-.02-.33.02-.47.02-.08.17-.19.23-.18.14.03.37.14.37.21-.07,1.58-.15,3.16-.25,4.74,0,.14-.15.28-.3.54Z"/>
        <path d="M129.09,99.86h.83c-.33,1.92-.22,3.8-.01,5.75h-.9c.06-.88.11-1.66.18-2.58-.55-.1-1-.18-1.47-.26-.42.87-.11,1.6,0,2.35.07.44-.2.58-.61.43.12-1.82.24-3.63.01-5.56.03,0,.21-.07.46-.16-.06.78-.12,1.49-.19,2.33.61.07,1.07.12,1.4.16.47-.36.5-.75.31-2.45Z"/>
        <path d="M119.5,105.25v-5.18c.25.09.6.12.62.23.23,1.04.88,1.82,1.51,2.67.25-1.03.3-2.02.11-3.04.21-.05.36-.11.51-.13.1,0,.2.05.31.08.01.09.06.2.02.27-.58,1.09-.34,2.24-.27,3.38.03.53.26,1.06-.08,1.69-.7-.31-.72-1.05-1.04-1.55-.35-.53-.61-1.12-1.05-1.93-.52,1.34.09,2.55-.63,3.52Z"/>
        <path d="M111.68,99.93c.24-.02.48-.05.84-.08,0,1.26,0,2.44,0,3.61,0,.38.03.77.12,1.14.04.18.26.43.4.43.22,0,.48-.14.67-.28.15-.11.24-.32.54-.74-.05.72-.07,1.13-.11,1.6h-2.55c.47-1.92.05-3.76.08-5.69Z"/>
        <path d="M131.68,100.63c.03.49.06.97.1,1.55.45-.05.81-.09,1.26-.14.02.18.05.43.08.74h-1.21c-.39.74-.12,1.49-.18,2.12.71.57,1.22.08,1.77-.04-.32.95-.38.97-2.33.67-.19-1.81.7-3.64-.11-5.6.9.15,1.92-.58,2.67.88-.72-.25-1.27-.68-2.05-.18Z"/>
        <path d="M153.59,100.63c.03.49.06.97.1,1.55.45-.05.81-.09,1.26-.14.02.18.05.43.08.74h-1.21c-.39.74-.12,1.49-.18,2.12.71.57,1.22.08,1.77-.04-.32.95-.38.97-2.33.67-.19-1.81.7-3.64-.11-5.6.9.15,1.92-.58,2.67.88-.72-.25-1.27-.68-2.05-.18Z"/>
        <path d="M137.21,102.38c-.13.6-.28,1.45-.5,2.28-.14.51-.51.84-1.06.87-.46.03-1.01-.41-1.12-1.02-.21-1.23-.32-2.48.24-3.68.22-.48.57-.78,1.11-.84.63-.08,1.05.19,1.18.82.08.42.09.86.16,1.57ZM135.58,105.1c.8-.9,1-1.23,1.05-2.16.04-.7-.02-1.42-.16-2.1-.1-.49-.75-.55-1.02-.12-.73,1.14-.76,2.38-.39,3.64.07.24.3.43.53.74Z"/>
        <path d="M142.57,99.9c.9.02,1.84-.5,2.33.89-.59-.13-1.08-.24-1.63-.37-.38.65-.2,1.28-.15,2,.44.05.82.09,1.19.13-.05.8-.75.28-1.19.86-.18.35-.17.96.08,1.64.35,0,.67.04.98-.01.24-.04.45-.19.91-.4-.67,1.31-1.66.86-2.52,1.08v-5.81Z"/>
        <path d="M125.86,100.32c-.2.21-.26.34-.33.34-1.54.14-1.65.22-1.76,1.7-.04.59-.02,1.21.11,1.78.2.85.72.96,1.4.37.08-.07.13-.17.21-.25.04-.03.1-.04.22-.09.21.53.09.92-.44,1.16-.62.28-1.18.24-1.49-.22-.26-.4-.49-.87-.54-1.34-.08-.64-.05-1.32.06-1.96.25-1.46.79-1.77,2.55-1.5Z"/>
        <path d="M147.68,105.61c-.12.06-.21.15-.3.15-.15,0-.31-.06-.44-.09v-4.91c-.27-.09-.55-.19-.9-.31.18-.15.28-.3.41-.33.84-.17,1.71-.41,2.45.62-.48-.05-.82-.09-1.29-.14-.11,1.73-.18,3.37.08,5.02Z"/>
        <path d="M150.26,100.91c-.27-.03-.47-.05-.85-.09.28-.31.44-.65.66-.69.7-.14,1.46-.43,2.29.42h-1.32c-.32,1.59-.17,3.87.35,5.01h-1.23c.63-1.6.22-3.13.1-4.65Z"/>
        <path d="M96.18,140.08c-.05-.6.49-1.12-.31-1.57.43-.12.69-.19.9-.25.73.53.08,1,.03,1.55.26.11.54.24.96.43-.2.13-.36.32-.47.29-.36-.1-.69-.27-1.12-.45Z"/>
        <path d="M62.21,136.04c.56.49.88.75,1.27,1.1-.48.19-.84.34-1.36.54.02-.46.05-.91.08-1.64Z"/>
        <path d="M94.68,139.74q-1.05.46-1.77.22c.59-.56,1.23-.12,1.77-.22Z"/>
        <path d="M60.3,140.37c.58-.45,1.23-.25,2.09-.31-.76.68-1.49.17-2.09.31Z"/>
        <path d="M91.71,89c.52.27.69.59.21,1.18-.36-.41-.55-.72-.21-1.18Z"/>
        <path d="M60.46,138.84c.06-.25.11-.5.19-.73.03-.08.17-.11.27-.16.02.1.08.21.06.3-.08.23-.19.45-.29.68-.08-.03-.15-.05-.23-.08Z"/>
        <path d="M92.03,102.19c.02.18.07.36.04.52-.02.13-.14.25-.22.38-.55-.38-.16-.63.18-.91Z"/>
        <path class="cls-5" d="M75.79,99.39c-.04,1.83-.33,3.61-.78,5.37-.38,1.49-1.42,2.44-2.55,3.32-.55.43-1.17.26-1.58-.3-.49-.67-.52-1.42-.37-2.2.17-.86.44-1.71.52-2.57.16-1.74.25-3.49.31-5.24.04-1.06.22-2.07.71-3.01.69-1.32,2-1.4,2.85-.15.24.35.41.79.47,1.21.17,1.19.28,2.39.41,3.58Z"/>
        <path class="cls-4" d="M66.31,92.19c.77-.67,1.39-1.2,2.15-1.86.94.18,2.11.41,3.38.66.12.56.25,1.13.36,1.65-1.97,2.16-2.08,2.46-2.19,5.51-.05,1.48-.12,2.96-.2,4.44-.02.3-.09.6-.19,1.17-.24-.4-.41-.56-.43-.74-.05-.66-.03-1.32-.07-1.97-.14-2.13-.27-4.26-.47-6.39-.12-1.28-.66-1.81-2.35-2.47Z"/>
        <path class="cls-4" d="M68.83,86.34c1.86-.51,9.37,1.04,11.23,2.33-.35.09-.59.21-.81.19-.98-.09-1.97-.12-2.92-.34-2.39-.57-4.75-1.24-7.12-1.87-.1-.03-.17-.13-.39-.3Z"/>
        <path class="cls-4" d="M67.32,87.27c3.26,1.81,6.89,2.28,10.5,2.77.7.1,1.42.04,2.13.07.42.01.84.04,1.32.31-.25.14-.49.4-.74.41-1.09.04-2.2.12-3.28,0-2.84-.33-5.6-1.02-8.29-1.96-.56-.2-1.08-.53-1.59-.83-.11-.07-.17-.27-.2-.42-.02-.08.08-.18.16-.33Z"/>
        <path class="cls-4" d="M73.28,85.36c.6-.58,1.23-.53,1.87-.38,2.07.49,4.15.98,6.22,1.47,1.61.38,2.21,1.13,2.08,2.78-.06.72.06,1.5-.33,2.25-.64-.37-.44-.92-.44-1.36,0-1.12-.36-2.04-1.28-2.7-.3-.21-.64-.4-.99-.49-1.69-.43-3.39-.84-5.1-1.23-.67-.15-1.35-.24-2.03-.35Z"/>
        <path class="cls-4" d="M67.56,128.05c-.26-3.26.05-6.48.38-9.72.61.66.52,1.48.52,2.25,0,2.52.24,5.08-.89,7.47Z"/>
        <path class="cls-4" d="M76.06,64.91c1.73-.24,1.74-.24,3.01.41-.82.35-1.54.66-2.26.97-.63-.3-.54-.89-.75-1.38Z"/>
        <path class="cls-4" d="M79.83,71.53c.52-.18,1.14-.24,1.19-1.05.03-.46.47-.54.88-.39.36.13.51.57.36.95-.35.87-1.53,1.22-2.4.71-.03-.02-.01-.1-.03-.22Z"/>
        <path class="cls-4" d="M68.88,131.51c-.68-1.2-.34-2.2-.05-3.43.22.37.44.58.42.76-.08.82.09,1.69-.37,2.67Z"/>
        <path class="cls-4" d="M69.27,69.59c.11-1.07.53-1.73,1.09-2.55.09,1.1.35,2.03-1.09,2.55Z"/>
        <path class="cls-4" d="M87.83,130.27c-.68-.75-1.07-1.58-.87-2.75.92.8.95,1.76.87,2.75Z"/>
        <path class="cls-4" d="M56.93,100.93c-.04.38-.08.74-.12,1.11-.89-.23-1.05-.79-.89-1.65.34.18.65.35,1.01.54Z"/>
        <path class="cls-4" d="M66.94,136.06c-.13.84-.02,1.38-.7,1.66-.3-.67-.16-1.1.7-1.66Z"/>
        <path class="cls-4" d="M89.38,137.48c-.28-.47-.47-.69-.54-.94-.03-.11.21-.29.32-.43.13.13.36.24.38.39.04.23-.07.47-.16.99Z"/>
        <path class="cls-4" d="M81.17,81.34c.14-.05.29-.17.42-.15.18.03.34.17.51.26-.08.12-.18.35-.23.34-.23-.05-.45-.17-.66-.28-.03-.01-.02-.1-.03-.18Z"/>
        <path class="cls-4" d="M64.49,78.9c-.13.36-.25.72-.45,1.28-.37-.71.05-1.02.45-1.28Z"/>
      </g>
    </g>
    <path d="M132.97,133.31c-.99.97-1.49,1.93-1.96,2.89-.19.39-.32.8-.49,1.2-.14.32-.28.78-.7.6-.21-.09-.35-.56-.36-.87-.04-.67.02-1.34.03-2,0-.22-.03-.44-.25-.7-.25.72-.45,1.46-.77,2.15-.31.66-.22,1.57-1.1,1.98-.45-.39-.26-.8-.16-1.21.31-1.21.55-2.45.96-3.63.19-.54.65-1.05,1.12-1.42.37-.3.77.01.89.45.16.59.24,1.21.41,2.06.34-.5.55-.85.8-1.17.43-.56.83-1.16,1.34-1.64.58-.55,1.12-.31,1.22.47.05.47.01.94.03,1.42.04,1.06.12,2.12.12,3.18,0,.26-.14.68-.32.75-.38.15-.55-.24-.6-.54-.1-.62-.15-1.25-.18-1.87-.03-.61,0-1.22,0-2.09Z"/>
    <path d="M145.99,124.07c.24-.52.48-1.05.72-1.57.25-.54.45-1.1.76-1.59.19-.3.53-.68.82-.7.55-.04.56.56.67.96.17.64.31,1.3.47,1.94.09.34.21.67.32,1.01.06.19.1.38.14.57.07.36.13.78-.34.84-.18.02-.49-.33-.58-.57-.26-.66-.42-1.35-.63-2.02-.07-.22-.16-.43-.32-.84-.57,1.21-1.04,2.26-1.56,3.29-.22.43-.27,1.15-.9,1.09-.72-.07-.6-.82-.7-1.32-.14-.72-.2-1.45-.29-2.18-.08-.01-.16-.03-.23-.04-.16.46-.34.92-.48,1.39-.19.64-.32,1.3-.54,1.93-.07.21-.36.51-.52.5-.42-.03-.39-.44-.32-.74.18-.8.37-1.61.62-2.39.26-.81.57-1.62.92-2.39.11-.24.54-.56.67-.5.27.12.57.45.64.74.2.83.28,1.69.41,2.54.09.02.17.04.26.06Z"/>
    <path d="M110.8,126.22c-.82,1.1-1.51,2.28-1.95,3.59-.07.22-.1.47-.22.67-.09.14-.33.33-.43.29-.18-.06-.42-.27-.43-.43-.06-.5-.02-1.02-.02-1.53,0-.66,0-1.31-.1-1.99-1.07,1.32-1.53,2.91-2.07,4.5-.65-.19-.62-.6-.49-.97.38-1.07.76-2.15,1.22-3.19.28-.64.67-1.25,1.08-1.82.15-.21.55-.42.77-.36.22.06.44.42.5.69.11.43.1.9.16,1.57.29-.37.45-.57.61-.77.31-.41.57-.86.94-1.21.26-.25.68-.49,1-.47.49.04.64.55.65,1,.03,1.29.03,2.59.02,3.89,0,.32-.13.69-.54.59-.17-.04-.37-.38-.38-.6-.04-.63,0-1.26.02-1.89,0-.5,0-.99,0-1.49-.11-.02-.23-.05-.34-.07Z"/>
    <path d="M111.26,117.36c.58-1.02,1.03-1.84,1.51-2.64.2-.33.45-.76.9-.57.28.12.58.47.63.76.22,1.35.36,2.72.5,4.08.01.13-.18.39-.3.41-.14.03-.45-.1-.48-.22-.14-.52-.23-1.07-.3-1.61-.08-.64-.12-1.29-.2-2.18-.91,1.06-1.23,2.05-1.48,3.08-.1.42-.12.86-.26,1.27-.09.25-.34.44-.52.65-.16-.19-.4-.36-.47-.59-.21-.66-.36-1.34-.59-2.24-.23.45-.39.7-.48.97-.16.48-.26.99-.44,1.46-.07.18-.31.29-.48.43-.13-.21-.41-.47-.36-.62.47-1.45.98-2.88,1.52-4.31.06-.15.4-.3.58-.26.18.04.38.29.43.48.13.47.18.96.3,1.63Z"/>
    <path d="M119.49,139.46c.28-.37.47-.67.7-.92.09-.09.33-.18.4-.12.14.1.3.31.28.45-.02.26-.16.51-.27.77-.2.47-.4.93-.6,1.39-.5.04-1.07.09-1.63.13-1.39.12-2.04-.54-1.71-1.9.18-.74.74-1.39.92-2.13.17-.74.02-1.56.13-2.32.05-.35.32-.75.6-.97.27-.21.77-.37,1.05-.26.27.11.59.61.56.9-.08.68-.27,1.39-.59,1.99-.71,1.3-.75,1.46.16,2.99ZM118,138.7c-.09.02-.18.03-.28.05-.01.45-.4.93.08,1.35.15.13.52,0,.89-.02-.2-.45-.32-.73-.46-1.01-.06-.13-.16-.25-.24-.37ZM118.41,135.63q.53-.48.38-1.21c-.17.55-.27.88-.38,1.21Z"/>
    <path d="M136.1,115.9c-.28.58-.43.98-.66,1.33-.11.16-.38.33-.55.3-.16-.03-.36-.29-.39-.48-.05-.3-.01-.63.05-.93.32-1.51.9-2.91,1.72-4.22.27-.43.58-.74,1.13-.67.5.06.93.54,1.04,1.14.12.66-.05,1.25-.49,1.75-.31.35-.67.65-1.11,1.07.62.6,1.25,1.21,1.89,1.82.17.16.39.29.51.48.09.14.13.45.06.51-.15.12-.46.23-.6.15-.37-.21-.7-.49-1.02-.78-.49-.44-.96-.9-1.57-1.48ZM136.6,113.98c.97-.67,1.01-.78.65-1.64-.49.45-.76.95-.65,1.64Z"/>
    <path d="M124.45,116.03c.23-1.06.47-2.13.7-3.19.05-.23.04-.48.12-.69.04-.12.23-.28.33-.26.17.03.42.16.44.29.07.34.11.71.04,1.04-.27,1.3-.56,2.6-.9,3.89-.19.71-.68.83-1.22.3-.36-.35-.63-.8-.91-1.22-.23-.35-.43-.72-.75-1.06-.27,1.11-.38,2.2-.41,3.31,0,.39.19,1.03-.42,1.04-.69.02-.54-.67-.51-1.09.11-1.52.27-3.04.46-4.55.03-.27.29-.51.44-.76.28.17.64.28.82.52.35.47.59,1.02.88,1.53.19.33.4.65.59.97.1-.02.2-.05.3-.07Z"/>
    <path d="M141.34,133.29c.77.77,1.46,1.44,2.13,2.14.25.26.78.5.45.94-.38.5-.78.07-1.09-.21-.58-.51-1.12-1.05-1.81-1.71-.2.73-.32,1.3-.51,1.84-.06.17-.32.27-.5.39-.12-.18-.29-.34-.34-.54-.05-.17.03-.38.07-.58.16-.85.32-1.7.48-2.54.2-1.08.81-1.94,1.54-2.7.64-.66,1.55-.64,2.08-.02.57.66.43,1.64-.39,2.11-.6.35-1.28.54-2.1.88ZM141.9,131.77c.07.08.13.16.2.24.32-.17.66-.3.95-.52.09-.06.09-.39,0-.5-.08-.09-.4-.12-.49-.04-.25.24-.45.54-.66.82Z"/>
    <path d="M132.17,121.72c1.95.23,3.26,1.78,3.15,3.64-.11,1.7-1.74,3.18-3.52,3.2-.58,0-.76-.27-.58-.81.13-.39.2-.8.25-1.21.17-1.48.32-2.96.48-4.44.01-.1.11-.2.22-.37ZM132.47,127.34c1.25-.44,1.87-1.21,1.87-2.18,0-1.01-.55-1.83-1.48-2.12-.53,1.36-.34,2.77-.39,4.3Z"/>
    <path d="M159.91,122.23c-.34.07-.53.12-.72.14-.87.09-1.44.52-1.65,1.4-.04.19-.11.39-.23.54-.18.22-.47.58-.61.54-.46-.14-.28-.55-.18-.89.12-.41.21-.84.39-1.23.56-1.25,1.13-2.49,1.75-3.71.14-.27.53-.59.77-.56.25.02.58.4.67.69.31.92.54,1.86.79,2.8.15.57.29,1.14.43,1.71.1.41.34.93-.27,1.08-.58.14-.66-.35-.73-.81-.08-.53-.25-1.05-.41-1.69ZM159.32,119.73c-.37.72-.61,1.19-.85,1.66.05.06.11.11.16.17.34-.11.67-.23,1.08-.36-.12-.45-.21-.81-.39-1.47Z"/>
    <path d="M149.98,113.75c-.74.05-1.4.09-2.16.14-.12.57-.22,1.14-.38,1.69-.05.19-.26.34-.4.51-.17-.18-.34-.36-.51-.55-.02-.02-.02-.08-.02-.11.24-1.8.66-3.56,1.83-4.99.58-.7,1.18-.6,1.52.26.61,1.52,1.12,3.07,1.62,4.63.07.22-.07.68-.25.76-.44.21-.59-.2-.7-.54-.19-.59-.37-1.18-.57-1.81ZM149.07,111.14c-.59.67-.89,1.2-.92,2.01.56-.11.98-.2,1.52-.3-.21-.59-.36-1.04-.6-1.71Z"/>
    <path d="M126.67,128.14c.61-.04,1.16-.13,1.7-.1.21.01.4.29.59.45-.18.16-.34.4-.54.46-.72.19-1.45.32-2.18.46-.84.16-1.09-.12-.86-.94.16-.56.28-1.13.42-1.71-.33-.29-.61-.53-1.02-.89.47-.18.8-.3,1.21-.45.1-.49.21-1.02.32-1.52-.23-.2-.42-.36-.63-.53.46-.35.85-.65,1.24-.94.05-.04.15,0,.22-.02.9-.12,1.79-.24,2.69-.37.04.08.09.16.13.24-.15.17-.26.42-.45.51-.35.16-.74.24-1.12.34-1.19.31-1.29.1-1.43,1.8.25.09.52.19.88.31-.11.24-.16.48-.3.61-1.03.84-1.04.83-.88,2.31Z"/>
    <path d="M121.28,125.59c.49-.28.9-.51,1.3-.74.24-.13.47-.35.72-.38.26-.04.55.1.82.16-.1.23-.14.53-.31.67-.35.3-.78.52-1.17.78-.35.24-.7.49-1.18.84.46.33.82.6,1.19.85.23.15.5.25.7.43.12.11.22.42.16.49-.13.15-.4.3-.56.26-.41-.12-.79-.34-1.16-.55-.37-.21-.71-.47-1.19-.79-.15.53-.25.98-.42,1.39-.08.18-.36.45-.47.42-.22-.06-.52-.3-.54-.49-.04-.37-.02-.83.17-1.12.86-1.26,1.23-2.7,1.69-4.11.1-.31.28-.59.53-.85.28.91-.33,1.7-.28,2.74Z"/>
    <path d="M148.84,132.84c-.65.41-1.23.77-1.87,1.18v1.72c.46-.08.84-.21,1.22-.2.21,0,.42.24.63.37-.14.17-.25.4-.42.49-.49.23-1.02.41-1.53.6-.61.22-.89.05-.87-.64.03-1.09.17-2.18.23-3.27.03-.53.43-1.12-.34-1.55-.33-.18-.14-.59.18-.75.38-.2.8-.33,1.19-.49.65-.27,1.3-.56,1.97-.79.22-.07.62-.05.72.08.24.33-.04.59-.34.73-.53.25-1.09.45-1.63.67-.25.1-.5.2-.79.31v1.45c.5.26.94-.64,1.67.08Z"/>
    <path d="M152.68,122.85c.6-.11,1.03-.19,1.53-.28,0,1.32-1.68.7-1.78,1.94.39.03.76.08,1.12.08.27,0,.55-.11.81-.08.16.02.38.18.41.32.03.14-.09.38-.22.48-.48.37-2.1.37-2.62.05-.43-.27-.51-.65-.41-1.12.19-.84.37-1.69.51-2.54.06-.33.05-.69-.02-1.03-.11-.59,0-1.07.52-1.21,1.13-.3,2.29-.54,3.44-.74.2-.04.45.2.67.3-.17.18-.31.46-.52.51-.79.23-1.6.4-2.4.56-.54.1-.83.35-.86.92-.03.58-.12,1.15-.19,1.84Z"/>
    <path d="M114.25,127.81c.1-.93.18-1.87.32-2.8.11-.72.58-1.32,1.01-1.29.67.04,1.24.34,1.47.99.19.54.32,1.14.31,1.71-.02,1.15-.37,2.24-.97,3.23-.3.5-.6,1.12-1.33.92-.71-.2-.69-.88-.74-1.46-.03-.43,0-.86,0-1.29h-.06ZM115.28,129.31c.93-1,1.16-2.2,1.1-3.47-.02-.4-.1-.86-.74-1.02-.89,1.45-.55,2.97-.36,4.49Z"/>
    <path d="M135.91,133.53c0-.43.08-.87-.02-1.27-.14-.57.03-.93.52-1.15.53-.24,1.1-.24,1.51.22.25.28.44.65.52,1.02.36,1.49.12,2.95-.37,4.37-.16.46-.45.86-1.02.81-.55-.05-.8-.5-.88-.97-.17-1-.26-2.01-.39-3.01.04,0,.08,0,.12-.01ZM137.12,136.21c.53-1.22.64-2.47.36-3.76-.07-.32-.26-.57-.78-.4-.23,1.4-.04,2.78.42,4.16Z"/>
    <path d="M117.14,117.46c.11-1.17.19-2.1.3-3.03.03-.23.09-.47.21-.66.34-.58.96-.59,1.31-.03.04.07.08.14.1.21.34,1.69.75,3.37.26,5.1-.04.15-.07.33-.17.43-.26.26-.53.61-.85.68-.49.11-.82-.29-.91-.73-.14-.72-.18-1.46-.24-1.97ZM118.19,115c-.45,1.26-.4,3.23.12,4.13.48-1.41.34-2.7-.12-4.13Z"/>
    <path d="M143.84,113.55c-1.46.91-1.5,1-1.25,2.61.38-.08.75-.21,1.13-.22.22,0,.45.18.67.28-.15.2-.25.51-.45.59-.39.17-.82.27-1.24.31-1.07.1-1.29-.16-1.21-1.27.03-.43.05-.86.07-1.31-.3-.12-.57-.23-.9-.36.11-.15.17-.31.24-.31.71-.07.88-.52.87-1.14,0-.47,0-.95.09-1.41.12-.66.47-1.01,1.12-1,.68,0,1.35.12,2.21.21-.71.96-1.62.41-2.41.78-.04.54-.09,1.15-.14,1.85.36.12.69.23,1.2.39Z"/>
    <path d="M167.54,118.75c-.44-.05-.74-.1-1.04-.11-.27,0-.54.05-.97.1-.36,1.86-.73,3.73-1.06,5.61-.06.34-.08.7-.47.65-.21-.03-.49-.37-.53-.6-.06-.37.03-.78.12-1.16.31-1.29.64-2.58.97-3.92-.85-.3-1.63.83-2.44.07.8-.81,3.58-1.85,4.51-1.71.53.08.66.22.89,1.06Z"/>
    <path d="M103.37,125.59c-.37.43-.74.85-1.1,1.29-.37.45-.72.91-1.15,1.46.55.14.97.22,1.37.35.9.3,1.35.96,1.29,1.87-.05.82-.81,1.69-1.62,1.77-.23.02-.47-.14-.99-.3.48-.34.73-.54,1-.71.39-.24.7-.53.62-1.04-.09-.51-.49-.67-.94-.75-.31-.06-.62-.1-.92-.19-.71-.21-1.05-.76-.63-1.33.72-.96,1.61-1.79,2.44-2.66.07-.07.28,0,.43,0,.06.08.13.16.19.23Z"/>
    <path d="M154.64,109.93c.26,1.6-.68,2.83-.83,4.35.36-.12.63-.21.9-.29.63-.19,1.26-.46,1.91-.55.69-.1.86.14.94,1.07-1.2-.29-2.19.27-3.22.73-1.05.47-1.72,0-1.47-1.08.32-1.37.83-2.69,1.27-4.02.02-.07.19-.09.49-.22Z"/>
    <path d="M130.65,113.33c0,.86,0,1.68,0,2.5,0,.43.05.86.05,1.3,0,.37.14.93-.41.94-.54,0-.44-.56-.44-.93-.02-.75.01-1.49.02-2.24,0-.42,0-.84,0-1.24-.8-.22-1.52.64-2.29-.17.25-.17.44-.34.66-.44.61-.27,1.21-.6,1.85-.73.54-.12,1.13-.01,1.7.03.1,0,.27.24.25.32-.04.16-.18.35-.32.4-.32.12-.68.17-1.08.26Z"/>
    <path d="M152.1,128.11c.04.33.14.66.13.98-.05,1.33-.13,2.66-.2,3.99,0,.12-.02.24-.04.35-.09.34-.16.77-.63.69-.49-.09-.34-.51-.31-.86.14-1.32.26-2.65.41-3.97.04-.4.15-.8.23-1.19.14,0,.27,0,.41.01Z"/>
    <path d="M152.28,136.07c0,.63-.55,1.26-.94,1.23-.44-.03-.54-.39-.56-.75-.03-.48.39-.98.83-.91.27.04.51.31.67.42Z"/>
    <path class="cls-4" d="M118,138.7c.08.12.17.24.24.37.13.27.26.56.46,1.01-.37.02-.74.15-.89.02-.48-.42-.1-.89-.08-1.35.09-.02.18-.03.28-.05Z"/>
    <path class="cls-4" d="M118.41,135.63c.1-.33.21-.66.38-1.21q.15.73-.38,1.21Z"/>
    <path class="cls-4" d="M136.6,113.98c-.12-.7.15-1.19.65-1.64.36.86.32.97-.65,1.64Z"/>
    <path class="cls-4" d="M141.9,131.77c.22-.28.41-.58.66-.82.09-.08.41-.05.49.04.09.1.09.43,0,.5-.29.21-.63.35-.95.52-.07-.08-.13-.16-.2-.24Z"/>
    <path class="cls-4" d="M132.47,127.34c.05-1.52-.14-2.93.39-4.3.93.29,1.49,1.1,1.48,2.12,0,.97-.62,1.74-1.87,2.18Z"/>
    <path class="cls-4" d="M159.32,119.73c.17.66.27,1.02.39,1.47-.41.14-.74.25-1.08.36-.05-.06-.11-.11-.16-.17.24-.47.48-.94.85-1.66Z"/>
    <path class="cls-4" d="M149.07,111.14c.23.67.39,1.12.6,1.71-.53.11-.96.19-1.52.3.03-.81.33-1.34.92-2.01Z"/>
    <path class="cls-4" d="M115.28,129.31c-.19-1.52-.53-3.05.36-4.49.64.16.72.62.74,1.02.06,1.27-.17,2.47-1.1,3.47Z"/>
    <path class="cls-4" d="M137.12,136.21c-.46-1.37-.65-2.76-.42-4.16.53-.17.71.08.78.4.28,1.28.16,2.54-.36,3.76Z"/>
    <path class="cls-4" d="M118.19,115c.46,1.43.6,2.72.12,4.13-.51-.91-.57-2.87-.12-4.13Z"/>
  </g>
  <polygon class="cls-2" points="30.4 84.6 6.83 119.09 8.01 120.57 52.96 119.01 36.81 89.35 32.01 83.74 30.4 84.6 30.4 84.6"/>
  <path class="cls-1" d="M28.51,89.07c-.85.37-.24-.86-1.09-.48-.41.14-.18.85-1.03.59-.33,1.41-.66,2.8-1.98,3.31-.32,1.48.75,1.42,1.18,2.08-1.86,1.36-1.87,5.71-5.14,4.27.3.79,1.28.83,1.43,1.8-.7.36-1.23.5-1.57.61,1.14.93-.3.7-.74,1.37-1.14,1.77-1.76,4.56-3.76,5-.07,1.29-.54,2.23-1.76,2.49.68,1.38-.39.19-.76.84,1.72.32-1.1,1.17.1,1.87-1.9.4-1.44,2.95-2.75,3.88-.17-.46.25-1.59-.34-1.59,0,.42.09.92-.5.83-.28.88.87.16.59,1.04-1.11.27-.9,1.73-1.48,2.49,2.78-.62,7.3-.66,10.41-.52.05-.21-.02-.53.24-.55,10.35.95,18.6-.66,31.25-1-.58-2.8-3.06-4.15-4.03-5.69-.32-2.37-2.56-2.61-2.66-5.22-1.2.18-1.03-.95-.88-1.56-1.06.02-2.03-1.7-1.17-2.08-.83.45-.9-.16-1.63-.46-1.93-5.83-6.54-9.94-8.75-14.54.01.27-.45.36-.53.02.32-.04.63-.11.51-.56-.75.26-.71-.34-1.35-.2-1.29,1.8-1.87,4.25-4.02,5.28.56.91-.2,1.3-.7,1.91-.33-1.06-.07-2.08.39-2.96.44-.02.18.73.57.77.06-1.15.97-3.33,1.76-2.23-.03-.37.09-.59.22-.82h0ZM44.1,101.4c1.58.23,1.17,2.65,2.82,2.81.04,1.73.93,2.54,2.03,3.11-.12,1.82.91,2.37,2.01,2.85.12.45-.18.51-.51.56.38.36,1.26.61.6,1.31.21-.16.42-.3.78-.31.12.53-.01.84-.49.82.53.68,2.07,2.13,1.2,2.62.27.45.86.55,1.62.46.15,2.18,1.35,3.2,1.35,5.55-.26-.15-1.01-.57-.78.3-.48-.5-1.86-.01-1.92-.97-.59,1.05-1.83-.7-3.17.69-.81.14-.6-.84-.87-1.3-.76.27.38.66.07,1.34-.21-.18-.9-1.08-.8.04-3.73-.26-9.26-.28-12.56.08-.01-.26-.03-.53-.04-.8-1.21.71-2.61.85-3.74.18-.72,1.05-5.69,1.08-7.21.36-2.93,1.68-9.46.1-10.87,1.87-2.3-1.29-6.26.17-9.14-.88-.27-.84.18-1.03.47-1.37-1.07-.04-.45-.2-.62-1.84,1.24-.4,1.75-1.46,1.72-3.03,1.24.2.54-1.37,1.81-1.16-.23-.81-.22-.5-.07-1.34,1.81.2.72-2.24,2.29-2.25-.18-.26-.63-.25-.57-.78,1.07.3.5-.9,1.57-.61-.02-.45-.04-.89-.07-1.34.23-.21.59-.32,1.05-.32,1.57-4.03,4.49-6.81,6.16-10.74.92-.02,1.21-.6.99-1.66.78.04.78-.64,1.57-.61.65-3.58,4.06-4.66,4.67-8.26,2.93-.65,2.23-4.6,5.08-5.33-.18-.27-.62-.25-.58-.77.88-.06,1.31-.52,2.39-.39,1.2.85-.31,1.37,1.4,1.27-1.1,1.2.34,4.73,1.55,4.2.39.07.07,2.02,1.42,1.8-.14.82.33.96.36,1.59,3.43,2.87,4.09,8.8,7.53,11.66.12.45-.18.52-.51.56h0Z"/>
  <text class="cls-3" transform="translate(19.22 115.94) scale(.79 1)"><tspan x="0" y="0">44</tspan></text>
</svg>