<?xml version="1.0" encoding="UTF-8"?>
<svg id="Layer_1" data-name="Layer 1" xmlns="http://www.w3.org/2000/svg" viewBox="0 0 180 200">
  <defs>
    <style>
      .cls-1 {
        fill: #731915;
      }

      .cls-2 {
        fill: #efd1a4;
      }

      .cls-3 {
        fill: #d6d2b4;
      }

      .cls-4, .cls-5 {
        fill-rule: evenodd;
      }

      .cls-4, .cls-6 {
        fill: #231f20;
      }

      .cls-7 {
        fill: #f0ecca;
      }

      .cls-8 {
        fill: #ddbc8a;
      }

      .cls-9 {
        fill: #9c1c20;
      }

      .cls-10 {
        fill: #d5ab79;
      }

      .cls-11 {
        fill: #bf9a6e;
      }

      .cls-5 {
        fill: #ffda40;
      }

      .cls-6 {
        font-family: AmericanTypewriter-Bold, 'American Typewriter';
        font-size: 20.52px;
        font-weight: 700;
      }

      .cls-12 {
        fill: #ffedb0;
      }
    </style>
  </defs>
  <g>
    <polygon class="cls-5" points="30.31 85.44 6.74 119.92 7.92 121.41 52.87 119.85 36.72 90.19 31.92 84.58 30.31 85.44 30.31 85.44"/>
    <path class="cls-4" d="M29.14,89.9c-.85.37-.24-.86-1.09-.48-.41.14-.18.85-1.03.59-.33,1.41-.66,2.8-1.98,3.31-.32,1.48.75,1.42,1.18,2.08-1.86,1.36-1.87,5.71-5.14,4.27.3.79,1.28.83,1.43,1.8-.71.36-1.23.5-1.57.61,1.14.93-.3.7-.74,1.37-1.14,1.77-1.76,4.56-3.76,5-.07,1.29-.54,2.23-1.76,2.49.68,1.38-.39.19-.76.84,1.72.32-1.1,1.17.1,1.87-1.9.4-1.44,2.95-2.75,3.88-.17-.46.25-1.59-.34-1.59,0,.42.09.93-.5.83-.28.88.87.16.59,1.04-1.11.27-.9,1.73-1.48,2.49,2.78-.62,7.3-.66,10.41-.52.04-.21-.02-.53.24-.55,10.35.95,18.6-.66,31.25-1-.58-2.8-3.06-4.15-4.03-5.69-.32-2.37-2.56-2.61-2.66-5.22-1.2.18-1.03-.95-.88-1.55-1.06.02-2.03-1.7-1.17-2.09-.83.45-.9-.16-1.63-.46-1.93-5.83-6.54-9.94-8.75-14.54.01.27-.45.36-.53.02.32-.04.63-.11.51-.56-.75.26-.71-.34-1.35-.2-1.29,1.8-1.87,4.25-4.02,5.28.56.92-.2,1.3-.7,1.91-.33-1.06-.07-2.08.39-2.96.44-.02.18.73.57.78.06-1.15.97-3.33,1.76-2.23-.03-.37.09-.59.22-.82h0ZM44.73,102.24c1.58.23,1.17,2.66,2.82,2.81.04,1.73.93,2.54,2.03,3.11-.12,1.83.91,2.37,2.01,2.85.12.45-.18.51-.51.56.38.37,1.26.61.6,1.31.21-.15.42-.3.78-.31.12.54-.01.84-.49.83.53.68,2.07,2.13,1.2,2.61.27.45.86.55,1.62.46.15,2.18,1.35,3.2,1.35,5.55-.26-.15-1.01-.57-.78.3-.48-.5-1.86,0-1.92-.97-.59,1.05-1.83-.7-3.17.7-.81.13-.6-.84-.87-1.3-.76.27.38.65.07,1.33-.21-.17-.9-1.08-.8.04-3.73-.26-9.26-.28-12.56.08-.01-.26-.03-.53-.04-.8-1.2.71-2.61.85-3.74.19-.72,1.04-5.69,1.07-7.21.36-2.93,1.68-9.46.1-10.87,1.87-2.3-1.29-6.26.17-9.14-.88-.27-.84.18-1.02.47-1.37-1.07-.04-.45-.2-.62-1.84,1.24-.41,1.75-1.46,1.72-3.03,1.24.2.54-1.37,1.81-1.16-.23-.81-.22-.5-.07-1.34,1.81.2.72-2.23,2.29-2.25-.18-.27-.63-.25-.57-.78,1.07.3.5-.9,1.57-.61-.02-.45-.04-.89-.07-1.33.23-.22.59-.32,1.05-.32,1.57-4.03,4.49-6.81,6.16-10.74.92-.02,1.21-.6.99-1.66.78.04.78-.64,1.57-.61.65-3.58,4.06-4.66,4.67-8.26,2.93-.65,2.23-4.6,5.08-5.33-.18-.26-.62-.25-.58-.77.88-.06,1.31-.52,2.39-.39,1.2.85-.31,1.37,1.4,1.27-1.1,1.21.34,4.73,1.55,4.2.39.07.07,2.02,1.42,1.8-.14.82.33.96.36,1.59,3.43,2.87,4.09,8.8,7.53,11.66.12.45-.18.52-.51.56h0Z"/>
    <text class="cls-6" transform="translate(19.56 116.03) scale(.79 1)"><tspan x="0" y="0">45</tspan></text>
  </g>
  <g>
    <path d="M165.11,102.72c.32.25.49.42.7.54,1.29.77,2.38,1.8,3.52,2.77,1.28,1.1,2.57,2.19,3.84,3.31.76.67,1.5,1.37,2.21,2.09.91.94.73,1.59-.55,1.93-.46.12-.95.19-1.42.19-1.84.01-3.67,0-5.51-.02-1.85-.02-3.63.38-5.39.87-.4.11-.66.33-.86.7-.72,1.28-1.2,2.63-1.37,4.08-.13,1.12-.42,2.16-.91,3.18-.29.6-.53,1.25-.69,1.9-.25,1.03-.65,2.01-1.04,3-.98,2.47-2.07,4.88-3.69,7.02-.55.73-1,1.53-1.47,2.32-.72,1.21-1.53,2.33-2.47,3.38-.97,1.08-1.95,2.14-2.97,3.17-.44.44-.81.96-1.22,1.43-1.01,1.18-2.26,2.1-3.41,3.14-.5.45-1.04.87-1.55,1.3-.63.53-1.28,1.02-2.03,1.39-.3.15-.59.33-.87.52-2.11,1.4-4.38,2.41-6.86,2.95-.51.11-1,.35-1.51.49-.6.18-1.19.41-1.83.37-.6-.03-1.14.22-1.67.42-1.68.63-3.39,1.07-5.15,1.36-.28.05-.56.15-.84.23-.84.24-1.69.33-2.57.36-.81.03-1.62.22-2.43.34-.43.06-.85.16-1.28.18-.92.05-1.84.05-2.75.08-1.17.03-2.29-.31-3.44-.45-.38-.05-.76-.14-1.13-.21-.85-.15-1.69-.32-2.5-.68-1.19-.53-2.47-.85-3.75-1.01-2.32-.28-4.48-1.11-6.67-1.82-.18-.06-.37-.13-.52-.24-.95-.68-2.04-1.08-3.11-1.52-.62-.25-1.21-.59-1.74-1.02-.41-.33-.87-.61-1.34-.85-.91-.45-1.78-.96-2.57-1.61-.67-.55-1.43-.99-2.11-1.52-1.36-1.08-2.71-2.17-4.04-3.29-.59-.49-1.09-1.08-1.56-1.7-1.07-1.43-2.18-2.83-3.29-4.22-1.34-1.67-2.38-3.5-3-5.56-.26-.87-.65-1.71-.99-2.56-.46-1.12-.8-2.26-1.01-3.46-.18-1.04-.46-2.06-.68-3.1-.07-.33-.12-.66-.13-1-.04-1.21-.11-2.4-.27-3.6-.16-1.14-.59-2.13-1.19-3.07-.45-.72-1.14-1.18-1.97-1.37-.84-.2-1.69-.37-2.54-.53-.71-.14-1.44-.19-2.13-.37-.9-.23-1.81-.26-2.73-.26-.77,0-1.52-.08-2.29-.22-.79-.14-1.63,0-2.45.03-.14,0-.28.04-.42.03-.42-.05-.67-.54-.45-.88.16-.24.35-.46.55-.67.64-.66,1.27-1.32,1.94-1.96,1.04-1,2.1-1.98,3.3-2.81,1.31-.9,2.64-1.79,3.71-3,.15-.17.29-.35.46-.56-.76-.61-1.47-1.18-1.96-1.99-.2-.32-.53-.56-.81-.82-1.31-1.21-2.63-2.42-3.95-3.62-.72-.66-1.33-1.4-1.9-2.18-.21-.29-.34-.58-.35-.93-.03-.58.2-.9.77-1.05.52-.14,1.04-.18,1.58-.18,2.37.01,4.74,0,7.1,0,.48,0,.97-.05,1.45,0,1.57.19,2.55-.66,3.35-1.84.11-.16.24-.32.28-.5.21-1.08.64-2.12.6-3.26-.04-1.11.03-2.22-.01-3.33-.1-2.61.1-5.21.36-7.8.17-1.77.59-3.52,1.32-5.16.37-.84.77-1.67,1.23-2.46.36-.63.75-1.25,1.24-1.78,1.5-1.63,3.05-3.23,4.59-4.83.27-.28.56-.53.87-.76,1.44-1.06,2.8-2.21,4.12-3.41.51-.46,1.09-.8,1.69-1.11,1.11-.58,2.21-1.19,3.32-1.76,1.37-.7,2.74-1.38,4.21-1.88,2.78-.95,5.54-1.95,8.31-2.92.23-.08.46-.15.69-.21,1.26-.31,2.52-.63,3.78-.92.84-.2,1.7-.33,2.54-.54,1.19-.29,2.39-.27,3.6-.32,1.06-.04,2.12-.19,3.17-.17,2.46.04,4.93.07,7.38.27,2.1.17,4.22.3,6.3.76,1.41.31,2.85.46,4.27.7,1.15.19,2.19.73,3.29,1.08,2.81.89,5.53,1.99,8.1,3.45,1.93,1.1,3.84,2.22,5.61,3.56.38.29.79.55,1.19.82.99.69,1.94,1.43,2.81,2.28.93.91,1.91,1.78,2.86,2.67.53.5.98,1.06,1.34,1.69.31.54.71,1.03,1.06,1.55.6.87,1.23,1.72,1.64,2.71.31.75.75,1.45,1.07,2.21.6,1.39.6,2.81.41,4.26-.04.29-.11.57-.12.86-.05,1.45-.3,2.87-.52,4.3-.09.56-.02,1.15.02,1.73.04.53.16,1.05.19,1.58.13,1.94.55,3.81,1.43,5.56.27.53.59.99,1.07,1.34.19.14.39.29.55.47.28.3.61.43,1.01.49,1.15.19,2.3.25,3.46.26,1.74,0,3.48-.03,5.21-.09.77-.03,1.53-.18,2.3-.24.43-.04.87-.04,1.3,0,.71.06,1.03.8.61,1.4-.16.24-.37.45-.57.66-1.07,1.12-2.21,2.16-3.43,3.11-.99.77-1.98,1.55-2.89,2.4-1.35,1.25-2.63,2.56-4.05,3.95ZM66.84,91.77c.67.1,1.29,0,1.91-.05,2.64-.24,5.28-.49,7.93-.52,1.25-.01,2.5-.17,3.75-.2,2.8-.08,5.6.02,8.38-.35.57-.07,1.15-.15,1.72-.2,1-.08,2-.25,2.96.06.08-.06.13-.07.15-.11.07-.12.14-.25.18-.38.49-1.67,1.15-3.27,2.03-4.77.49-.83,1.06-1.61,1.57-2.43.96-1.53,2.2-2.82,3.53-4.01,1.12-1,2.44-1.73,3.82-2.32.48-.2.98-.36,1.53-.39.81-.05,1.64-.12,2.43-.33,1.18-.31,2.39-.24,3.58-.41.7-.09,1.44.07,2.15.18,1.09.18,2.18.36,3.23.74,1.51.54,2.91,1.29,4.3,2.05.42.22.78.56,1.12.9.76.74,1.48,1.53,2.25,2.26.97.91,1.63,2.03,2.29,3.14.64,1.08,1.17,2.22,1.81,3.29.51.85.8,1.74.93,2.7.06.47.22.92.34,1.37,1.12-.14,2.16-.34,3.21-.4,1.69-.09,3.38-.12,5.07-.13,2.08,0,4.15.06,6.23.06,4.78-.01,9.56-.05,14.35-.08.17,0,.37.06.51-.17-.26-.38-.57-.76-.8-1.18-.23-.42-.41-.87-.59-1.32-.61-1.53-1.11-3.08-1.13-4.75,0-.33-.07-.67-.12-1-.21-1.44-.25-2.88.01-4.32.09-.47.12-.95.17-1.43.05-.43.11-.86.15-1.29.11-1.05.2-2.08-.06-3.16-.23-.94-.55-1.84-.78-2.77-.17-.69-.55-1.31-1.05-1.87-.7-.79-1.3-1.67-1.93-2.53-.17-.23-.36-.5-.38-.77-.03-.5-.31-.8-.63-1.1-1.36-1.3-2.65-2.68-4.14-3.84-.68-.53-1.4-1.03-2.11-1.53-2.79-1.99-5.65-3.85-8.81-5.22-1.55-.67-3.09-1.35-4.69-1.87-1.64-.53-3.25-1.2-4.99-1.37-.57-.05-1.14-.19-1.7-.3-2.27-.43-4.56-.77-6.87-.84-1.06-.03-2.11-.2-3.17-.21-2.37-.04-4.73,0-7.1-.03-1.94-.02-3.85.29-5.72.75-2.61.64-5.24,1.24-7.77,2.19-1.31.49-2.62.97-3.95,1.39-1.38.44-2.72.99-4.03,1.57-.74.33-1.51.64-2.02,1.35-.19.26-.52.42-.81.59-1.2.72-2.4,1.43-3.6,2.15-.58.35-1.2.64-1.71,1.07-1.47,1.25-3.03,2.4-4.3,3.87-.22.25-.46.5-.73.7-2.62,2.02-4.22,4.74-5.21,7.82-.55,1.7-.73,3.48-.87,5.26-.09,1.15-.1,2.32-.1,3.48-.01,1.93.06,3.87-.02,5.8-.06,1.69-.37,3.35-1.53,4.71-.09.1-.11.26-.2.49ZM65.39,112.18c.54.28.94.51,1.35.7.28.13.51.34.56.62.17.82.65,1.5.98,2.24.23.53.47,1.07.57,1.63.17.95.3,1.91.32,2.87.03,1.7.31,3.35.78,4.98.17.6.34,1.21.38,1.83.04.5.16.95.36,1.39.56,1.23,1.06,2.48,1.48,3.76.24.73.54,1.46.95,2.1.59.94,1.28,1.81,1.95,2.69.61.8,1.25,1.59,1.88,2.38.66.83,1.24,1.75,2,2.47,1.19,1.12,2.49,2.13,3.77,3.15.87.69,1.79,1.3,2.68,1.96.62.46,1.27.87,1.97,1.21.48.23.98.45,1.38.79.86.73,1.85,1.22,2.89,1.6.64.24,1.23.54,1.81.89.49.29,1.05.47,1.59.68.41.15.85.21,1.24.39,1.33.63,2.75.83,4.18,1.08,1.47.26,2.92.6,4.3,1.2.48.21.99.38,1.51.48,1.27.25,2.57.4,3.83.68,1.21.27,2.39.17,3.59.03,1.15-.13,2.29-.35,3.43-.42.83-.05,1.62-.17,2.42-.35.33-.07.65-.16.98-.23,1.65-.35,3.3-.66,4.87-1.29.81-.33,1.65-.54,2.51-.64.54-.06,1.03-.23,1.54-.38.69-.2,1.39-.39,2.08-.59.88-.26,1.76-.48,2.56-.96,1.15-.69,2.33-1.35,3.51-2,.63-.35,1.28-.67,1.81-1.17.53-.49,1.09-.95,1.66-1.39,1.61-1.24,3.03-2.69,4.4-4.18,1.05-1.13,2.11-2.25,3.16-3.39.82-.9,1.56-1.84,2.17-2.88.71-1.2,1.47-2.38,2.24-3.54,1.81-2.71,3.04-5.68,4.02-8.77.09-.27.22-.55.23-.83.08-1.3.43-2.56.58-3.85.16-1.41.64-2.71,1.25-3.97.45-.92,1.09-1.69,2.34-2.13-.74-.03-1.22-.04-1.7-.06-.63-.02-1.26-.02-1.88-.08-1.53-.15-3.06-.4-4.6-.47-1.88-.08-3.77-.08-5.65,0-2.17.09-4.33.38-6.5.28-1.56-.07-3.08.22-4.61.38-1.3.14-2.59.25-3.89.23-.28,0-.56.05-.9.08-.27,1.14-.94,2.03-1.59,2.92-.88,1.21-1.7,2.46-2.52,3.7-1.03,1.55-2.29,2.86-3.59,4.15-.73.73-1.57,1.27-2.54,1.63-1.22.46-2.43.91-3.65,1.36-.86.32-1.78.47-2.68.56-2.22.21-4.42,0-6.62-.4-1.83-.33-3.47-1.12-5.1-1.96-.53-.27-.95-.66-1.3-1.13-.29-.38-.55-.79-.8-1.21-.47-.78-.91-1.59-1.4-2.36-.82-1.31-1.54-2.66-2.03-4.14-.42-1.27-1.06-2.47-1.44-3.77-.02-.08-.12-.15-.23-.28-.96-.03-1.96-.05-2.97-.08-.39-.01-.79.03-1.15-.06-1.15-.29-2.28-.19-3.44-.04-.71.09-1.46.11-2.16-.01-.68-.12-1.34-.13-2.01-.14-.63,0-1.26.04-1.88.04-4.11,0-8.21-.02-12.32-.03-1.06,0-2.12-.05-3.19-.06-.52,0-1.06-.07-1.74.11ZM173.27,93.33c-.32-.03-.55-.06-.78-.06-1.2,0-2.41-.06-3.6.21-2.56.04-5.12.12-7.68.11-5.79-.02-11.59-.07-17.38-.11-.39,0-.77-.02-1.15-.05-.67-.05-1.34-.16-2.01-.16-3.09-.01-6.17-.06-9.25.28-.13.01-.26.09-.42.15,0,.3-.04.59,0,.87.25,1.42.5,2.84.65,4.28.07.72.06,1.45.2,2.15.33,1.7.75,3.37,1.01,5.08.25,1.63.32,3.26-.2,4.87-.1.31-.17.64-.27,1.02.25.05.43.1.61.12,1.55.18,3.06-.33,4.6-.33.89-.3,1.82-.26,2.73-.25,2.17.04,4.33-.3,6.5-.3.19,0,.38-.05.57-.07.43-.05.86-.12,1.29-.14.87-.03,1.74-.04,2.61-.04.53,0,1.07-.02,1.59.06,2.1.32,4.2.53,6.33.56.34,0,.68-.02,1.01.04,1.34.23,2.69.2,4.04.2.91,0,1.82-.07,2.73-.2,1.43-.19,2.86-.43,4.32-.35.51.03,1.04.02,1.64-.15-.24-.23-.4-.4-.58-.56-1.06-.91-2.16-1.78-3.19-2.73-1.53-1.4-3.02-2.84-4.82-3.92-.33-.2-.58-.49-.73-.87-.11-.3-.12-.57.08-.81.4-.48.79-.96,1.23-1.39,2.21-2.16,4.42-4.31,6.91-6.15.5-.37.98-.77,1.4-1.36ZM96.07,110.34c-.12-.82-.22-1.49-.32-2.15-.15-1.05-.35-2.09-.43-3.14-.12-1.49-.35-2.96-.64-4.43-.1-.52-.2-1.04-.3-1.56-.18-.94-.31-1.9-.57-2.83-.2-.71-.31-1.41-.31-2.14,0-.43,0-.87,0-1.3,0-.23.04-.49-.22-.66-.42,0-.86-.05-1.28,0-1.86.26-3.72.51-5.6.57-.14,0-.3-.01-.43.02-1.41.37-2.87.22-4.3.48-1.46.26-2.96.38-4.44.52-1.29.13-2.58.34-3.88.33-1.79-.02-3.57.02-5.36.08-.72.02-1.43.18-2.15.2-1.3.03-2.61,0-3.91,0-.29,0-.6.05-.86-.03-.71-.23-1.43-.17-2.15-.19-.34,0-.69.02-1.01-.06-1-.24-2.01-.22-3.02-.26-.2,0-.46-.1-.56.15.47.46.92.88,1.36,1.33.81.83,1.67,1.6,2.57,2.33,1.28,1.02,2.55,2.07,3.69,3.26.61.64.74,1.3.37,2.1-.1.22-.21.45-.37.61-.79.78-1.54,1.61-2.41,2.29-1.56,1.22-3.17,2.36-4.64,3.68-.39.35-.8.7-.95,1.29,1.31-.08,2.62-.06,3.88-.28,1.29-.23,2.6-.12,3.87-.42,2.12.08,4.25-.19,6.36.18.28.05.58.02.87.02,4.59,0,9.18,0,13.77,0,.43,0,.88.02,1.3-.08.58-.14,1.15-.14,1.72-.14,1.64,0,3.29,0,4.93,0,.38,0,.78,0,1.15.08,1.39.26,2.78.11,4.3.11ZM113.11,126.69c1.57-.02,3.09-.25,4.56-.72,1.14-.37,2.26-.83,3.39-1.24.78-.28,1.49-.72,2.09-1.27.86-.78,1.72-1.56,2.39-2.52.94-1.34,1.99-2.6,2.8-4.03.17-.29.35-.58.56-.84.91-1.2,1.57-2.52,2.11-3.93.72-1.89,1.15-3.78.61-5.78-.04-.14-.07-.32-.01-.42.28-.5.02-.95-.13-1.38-.43-1.18-.62-2.43-.8-3.66-.22-1.57-.3-3.16-.6-4.72-.33-1.75-.45-3.53-.82-5.27-.2-.91-.47-1.76-.93-2.56-.57-1.01-1.1-2.04-1.67-3.04-.52-.92-1.07-1.84-1.81-2.61-.87-.91-1.75-1.8-2.65-2.67-.34-.33-.73-.65-1.15-.86-1.07-.56-2.16-1.07-3.25-1.57-.48-.22-.98-.41-1.5-.52-.99-.22-1.98-.41-2.98-.53-.57-.07-1.16-.06-1.73.04-1.04.17-2.1.16-3.14.43-.74.19-1.53.18-2.28.31-.37.06-.74.2-1.09.36-.35.16-.65.42-.99.6-2.25,1.14-3.96,2.89-5.44,4.88-.63.85-1.23,1.73-1.76,2.65-1.41,2.45-2.49,5.01-2.21,7.94.02.19,0,.39.01.58.03.29.02.59.11.86.3.92.46,1.87.64,2.81.09.52.14,1.05.26,1.57.39,1.64.7,3.29.8,4.98.05.96.2,1.91.36,2.86.21,1.28.54,2.54.71,3.83.36,2.67,1.36,5.11,2.62,7.45.71,1.31,1.54,2.56,2.31,3.83.05.08.09.17.14.25.69,1.03,1.58,1.8,2.8,2.16.46.14.91.32,1.34.54.73.39,1.52.64,2.32.76,1.33.2,2.67.32,4.01.47Z"/>
    <path class="cls-7" d="M66.84,91.77c.09-.23.11-.39.2-.49,1.16-1.36,1.47-3.01,1.53-4.71.07-1.93,0-3.86.02-5.8,0-1.16.02-2.32.1-3.48.14-1.77.32-3.56.87-5.26,1-3.09,2.59-5.8,5.21-7.82.26-.2.51-.45.73-.7,1.27-1.47,2.83-2.62,4.3-3.87.51-.43,1.13-.73,1.71-1.07,1.2-.72,2.4-1.43,3.6-2.15.29-.17.62-.33.81-.59.52-.71,1.28-1.02,2.02-1.35,1.32-.58,2.66-1.13,4.03-1.57,1.33-.43,2.64-.91,3.95-1.39,2.53-.95,5.15-1.55,7.77-2.19,1.87-.45,3.77-.77,5.72-.75,2.37.02,4.73,0,7.1.03,1.06.02,2.11.18,3.17.21,2.32.07,4.6.41,6.87.84.57.11,1.13.25,1.7.3,1.75.16,3.35.84,4.99,1.37,1.61.52,3.15,1.2,4.69,1.87,3.16,1.37,6.02,3.23,8.81,5.22.71.5,1.42,1,2.11,1.53,1.49,1.16,2.77,2.54,4.14,3.84.32.3.6.6.63,1.1.02.26.21.54.38.77.62.86,1.22,1.74,1.93,2.53.5.56.88,1.18,1.05,1.87.24.93.56,1.84.78,2.77.26,1.07.16,2.1.06,3.16-.04.43-.1.86-.15,1.29-.06.48-.09.96-.17,1.43-.26,1.44-.23,2.88-.01,4.32.05.33.12.67.12,1,.02,1.67.52,3.22,1.13,4.75.18.45.35.9.59,1.32.23.42.54.79.8,1.18-.14.23-.34.16-.51.17-4.78.03-9.56.06-14.35.08-2.08,0-4.15-.06-6.23-.06-1.69,0-3.38.03-5.07.13-1.05.06-2.09.25-3.21.4-.11-.45-.27-.9-.34-1.37-.13-.97-.42-1.86-.93-2.7-.64-1.07-1.18-2.21-1.81-3.29-.66-1.12-1.32-2.24-2.29-3.14-.78-.73-1.49-1.52-2.25-2.26-.34-.33-.71-.67-1.12-.9-1.4-.76-2.8-1.51-4.3-2.05-1.05-.37-2.14-.56-3.23-.74-.71-.12-1.45-.28-2.15-.18-1.19.16-2.4.09-3.58.41-.78.21-1.61.28-2.43.33-.55.03-1.05.19-1.53.39-1.38.59-2.7,1.32-3.82,2.32-1.33,1.19-2.57,2.48-3.53,4.01-.51.82-1.08,1.6-1.57,2.43-.88,1.5-1.55,3.1-2.03,4.77-.04.13-.11.26-.18.38-.02.04-.07.06-.15.11-.96-.31-1.96-.14-2.96-.06-.57.05-1.15.12-1.72.2-2.78.36-5.59.27-8.38.35-1.25.03-2.5.19-3.75.2-2.65.03-5.29.28-7.93.52-.61.05-1.24.15-1.91.05Z"/>
    <path class="cls-7" d="M65.39,112.18c.69-.18,1.22-.11,1.74-.11,1.06.01,2.12.06,3.19.06,4.11.02,8.21.03,12.32.03.63,0,1.26-.04,1.88-.04.67,0,1.34.02,2.01.14.7.13,1.45.1,2.16.01,1.16-.15,2.29-.25,3.44.04.37.09.77.05,1.15.06,1.01.03,2.02.06,2.97.08.11.13.2.2.23.28.38,1.3,1.01,2.49,1.44,3.77.49,1.48,1.2,2.83,2.03,4.14.49.77.93,1.58,1.4,2.36.25.41.51.82.8,1.21.35.46.78.85,1.3,1.13,1.63.84,3.27,1.63,5.1,1.96,2.19.4,4.4.61,6.62.4.9-.09,1.81-.24,2.68-.56,1.22-.45,2.44-.91,3.65-1.36.96-.36,1.81-.9,2.54-1.63,1.3-1.3,2.56-2.6,3.59-4.15.82-1.24,1.64-2.49,2.52-3.7.65-.9,1.32-1.78,1.59-2.92.34-.03.62-.09.9-.08,1.3.02,2.59-.09,3.89-.23,1.53-.17,3.05-.45,4.61-.38,2.17.1,4.33-.19,6.5-.28,1.88-.08,3.77-.08,5.65,0,1.54.07,3.06.32,4.6.47.62.06,1.25.06,1.88.08.48.02.96.04,1.7.06-1.25.44-1.89,1.21-2.34,2.13-.61,1.26-1.1,2.56-1.25,3.97-.14,1.29-.49,2.55-.58,3.85-.02.28-.15.56-.23.83-.98,3.09-2.22,6.07-4.02,8.77-.78,1.16-1.53,2.34-2.24,3.54-.61,1.04-1.35,1.99-2.17,2.88-1.04,1.14-2.11,2.25-3.16,3.39-1.38,1.49-2.79,2.94-4.4,4.18-.57.44-1.13.9-1.66,1.39-.54.51-1.18.82-1.81,1.17-1.18.65-2.36,1.31-3.51,2-.8.48-1.68.7-2.56.96-.69.2-1.39.39-2.08.59-.51.15-1,.32-1.54.38-.86.1-1.7.32-2.51.64-1.57.64-3.23.94-4.87,1.29-.33.07-.65.15-.98.23-.8.18-1.6.3-2.42.35-1.15.07-2.29.28-3.43.42-1.2.14-2.38.24-3.59-.03-1.27-.28-2.56-.43-3.83-.68-.51-.1-1.03-.27-1.51-.48-1.38-.61-2.83-.94-4.3-1.2-1.42-.25-2.85-.46-4.18-1.08-.39-.18-.83-.24-1.24-.39-.54-.2-1.1-.38-1.59-.68-.58-.35-1.17-.66-1.81-.89-1.04-.38-2.03-.87-2.89-1.6-.4-.34-.9-.56-1.38-.79-.7-.33-1.35-.74-1.97-1.21-.89-.66-1.81-1.28-2.68-1.96-1.28-1.02-2.58-2.03-3.77-3.15-.76-.72-1.34-1.64-2-2.47-.63-.79-1.27-1.57-1.88-2.38-.67-.88-1.37-1.75-1.95-2.69-.41-.65-.71-1.38-.95-2.1-.42-1.28-.91-2.54-1.48-3.76-.2-.44-.32-.89-.36-1.39-.05-.62-.21-1.23-.38-1.83-.47-1.63-.75-3.28-.78-4.98-.02-.96-.15-1.92-.32-2.87-.1-.56-.33-1.11-.57-1.63-.33-.74-.8-1.42-.98-2.24-.06-.28-.28-.49-.56-.62-.41-.2-.81-.42-1.35-.7ZM146.33,115.31l-.03-.02c-.06.17-.07.39-.19.5-.31.3-.69.52-1,.82-.51.49-.28,1.32.4,1.46.66.14,1.33.15,1.99-.04.18-.05.33-.18.46-.25.11-.62-.38-.85-.69-1.22.64-.59.87-1.35.8-2.21-.04-.48-.43-.9-.89-1.01-.72-.16-1.57.23-1.95.9-.18.31-.16.83.07,1.08.29.33.6.17.9,0,.04-.02.09,0,.14-.01ZM83.28,130.05c.19.5.37.93.53,1.38.33.94.92,1.68,1.65,2.34.37.33.78.59,1.27.63.92.09,1.83.1,2.68-.35.38-.2.78-.38,1.17-.57.58-.28,1.05-.69,1.42-1.2.69-.99,1.29-2.03,1.63-3.2.32-1.11.3-2.16-.26-3.21-.39-.74-.87-1.38-1.46-1.96-.41-.41-.9-.76-1.22-1.23-.57-.81-1.34-1.37-2.14-1.91-.19-.13-.41-.2-.54-.26-1.59,1.48-3.07,2.93-4.62,4.3-1.52,1.34-3.11,2.59-4.46,4.12-.15.17-.29.36-.46.58.74.84,1.43,1.63,2.13,2.42.06.06.17.08.33.15.75-.58,1.12-1.66,2.35-2.02ZM115.14,147.16c1.25.18,2.36-.11,3.47-.46.48-.15.71-.47.72-.95.01-.52.02-1.05.04-1.61.65-.15,1.24-.28,1.88-.43.16.5.3.95.45,1.4.12.39.34.68.78.8,1.69-.6,3.49-1,4.96-2.25-1.55-2.36-3.11-4.66-4.91-6.79-.9-1.07-1.73-2.19-2.18-3.55-.04-.12-.18-.21-.26-.3-1.19,0-2.34,0-3.49,0-.23,0-.45.07-.55.08-.48,1.12-.38,2.18-.41,3.24-.03.87-.08,1.73-.14,2.6-.03.48-.17.95-.15,1.43.04,1.36-.23,2.69-.44,4.01-.15.94-.13,1.8.25,2.77ZM148.63,128.01c-.21-.14-.35-.27-.51-.35-.68-.32-1.18-.82-1.49-1.51-.06-.13-.13-.26-.21-.38-.22-.34-.53-.41-.86-.18-1.03.74-1.9,1.63-2.63,2.66-.31.43-.57.89-1.08,1.18-.33-.19-.65-.37-1.04-.6.41-.46.74-.86,1.11-1.24.57-.58,1.17-1.15,1.76-1.72.2-.2.4-.42.58-.64.14-.17.09-.54-.09-.66-.88-.57-1.72-1.21-2.65-1.69-.39.3-.76.53-1.08.83-.28.26-.48.6-.73.89-.34.4-.7.79-1,1.12-.54.05-.84-.15-1.05-.49.03-.39.33-.59.55-.83.8-.9,1.62-1.78,2.43-2.67.21-.23.27-.56.09-.79-.5-.65-1-1.29-1.52-1.92-.12-.15-.28-.26-.4-.22-1.1,1.27-2.13,2.47-3.17,3.67-1.06,1.23-1.97,2.59-3.11,3.76.1.4.35.69.68.9.99.61,1.85,1.38,2.74,2.11,1.22,1.02,2.48,1.99,3.54,3.19.51.58,1.1,1.08,1.66,1.62.14.13.3.24.45.35.13.09.43.01.51-.13.17-.29.28-.62.51-.85.84-.86,1.7-1.71,2.6-2.51.72-.63,1.53-1.17,2.3-1.75.41-.32.84-.62,1.1-1.17ZM96.86,128.7c-.65.82-1.2,1.61-1.84,2.32-.74.83-1.42,1.7-2.1,2.58-.97,1.26-1.94,2.52-3.16,3.57-.4.34-.75.75-1.1,1.15-.51.58-.51.86.06,1.32.79.63,1.61,1.22,2.43,1.82.14.1.33.13.59.23.46-.98,1.23-1.63,2-2.37.52.26,1.02.51,1.5.76-.17.83-.32,1.58-.47,2.33-.04.24-.04.48.29.75,1.04-.25,2.07.19,3.11.54.27.09.54.21.82.26.37.06.76.16,1.16-.13.02-.15.07-.34.07-.52-.04-1.45-.13-2.89.19-4.32.03-.14.03-.29,0-.43-.17-1.05-.21-2.09.03-3.14.03-.14.01-.29.02-.43.02-1.01-.1-2.03.27-3.01.03-.09.02-.19.02-.29.01-.47-.13-.85-.61-1.04-.13-.05-.26-.14-.39-.18-1.08-.33-1.98-.97-2.91-1.77ZM135.58,138.94c-2.02-2.23-3.13-4.93-4.27-7.65.34-.21.62-.4.92-.56.33-.18.68-.33,1-.48-.03-.16-.02-.28-.07-.35-.51-.61-.8-1.3-.89-2.09-.03-.28-.12-.57-.22-.83-.04-.12-.18-.21-.31-.33-.85.47-1.68.94-2.52,1.4-.46.26-.95.48-1.4.75-1.2.72-2.4,1.44-3.57,2.2-.77.5-1.51,1.03-2.37,1.37-.21.09-.42.23-.43.5.36.52.71,1.04,1.07,1.55.42.59.85,1.17,1.3,1.74.35.43.66.43,1.12.08.61-.47,1.21-.94,1.8-1.4.13.07.24.1.29.17.96,1.5,1.92,3,2.86,4.52.38.61.7,1.27,1.05,1.89.42.75.78.82,1.31.18.51-.6,1.1-1.08,1.78-1.45.34-.18.67-.38.98-.61.19-.14.33-.34.57-.6ZM105.97,136.83c-.08.37-.18.6-.18.83-.04,1.35-.37,2.67-.33,4.02.02.52-.1,1.05-.21,1.56-.18.91-.19,1.82.05,2.75.94-.04,1.86.23,2.78.45.18.04.38.07.57.07.28,0,.55-.23.6-.52.08-.47.18-.95.2-1.42.05-.96-.05-1.92.31-2.86.1-.26.1-.58.08-.86-.09-.97.18-1.91.3-2.86.03-.26.16-.44.28-.49.79.06,1.46.13,2.13.14,1.05.03,1.08-.01,1.09-1.08,0-.24.05-.48.07-.71.04-.43.09-.86.11-1.29.02-.39-.2-.62-.61-.66-.53-.05-1.08,0-1.58-.12-1-.26-2-.22-3.01-.19-.63.01-1.24-.03-1.85-.23-1.1-.36-2.26-.46-3.42-.45-.24,0-.48,0-.66.21-.26,1.27-.25,2.38.05,3.59,1.01.18,2.07-.12,3.24.11ZM142.72,117.9c.66-.03,1.35-.29,1.68-1.11.16-.4.31-.8.41-1.22.15-.61-.26-1.53-.79-1.87-.08-.05-.17-.11-.26-.12-.84-.1-1.61-.07-2.17.73-.44.63-.63,1.27-.42,2.02.07.23.13.46.21.68.2.58.57.85,1.33.88ZM76.94,116.66c.28-.24.41-.38.56-.45.35-.16.73-.24,1.06-.42.48-.26.65-1.01.4-1.54-.16-.33-.84-.68-1.24-.58-1.57.37-2.36,1.54-2.14,3.09.02.18.14.35.24.52.52.86,2.28.87,2.82.18.1-.13.12-.36.09-.53-.01-.09-.21-.2-.34-.21-.42-.03-.85-.03-1.46-.04ZM139.95,116.4c.34-.41.62-.74.88-1.05-.02-.38-.01-.72-.05-1.05-.05-.47-.29-.71-.73-.75-.28-.03-.57-.03-.86-.02-.53.02-.89.32-1.15.75-.18.3-.15.64.14.91.13.12.31.19.49.29.06-.19.09-.33.16-.45.16-.29.49-.37.7-.18.17.15.19.46.02.65-.19.21-.4.41-.63.58-.19.14-.42.23-.61.37-.34.25-.47.61-.41,1.02.03.2.14.39.35.39.67,0,1.34.01,2.01-.04.29-.02.51-.25.55-.58.02-.24.05-.48-.16-.66-.19-.05-.37-.09-.69-.18ZM81.04,116.58c-.44.35-.88.13-1.28.18-.3.04-.5.38-.33.64.13.19.32.43.51.45.57.06,1.15.06,1.72.01.21-.02.42-.22.59-.38.3-.28.33-.59.07-.89-.19-.21-.41-.39-.62-.59-.27-.27-.55-.53-.8-.82-.05-.06,0-.3.08-.36.07-.05.25,0,.36.06.07.04.07.18.13.24.27.25.66.25.89,0,.19-.2.24-.57.09-.8-.16-.25-.37-.43-.68-.49-.78-.14-1.41.11-1.93.71-.35.4-.33.92.11,1.26.33.26.69.48,1.08.74ZM84.38,116.55c.02-.81.31-1.39,1.07-1.71.18-.07.19-.31.09-.51-.11-.22-.23-.44-.5-.46-.46-.04-.52-.33-.51-.7,0-.09-.03-.19-.05-.28-.05-.17-.36-.26-.47-.13-.4.53-.8,1.05-1.16,1.61-.08.12-.03.38.04.54.09.2.27.37.39.53-.21.56-.22,1.08-.11,1.6.1.51.54.89,1.01.85.22-.02.46-.11.65-.23.26-.17.35-.44.26-.79-.1-.05-.22-.12-.35-.17-.12-.06-.25-.11-.35-.15ZM87.07,116.88c-.06-.11-.09-.2-.15-.27-.29-.3-.93-.25-1.13.07-.23.37-.14.98.17,1.15.31.17.68,0,.91-.44.09-.16.14-.35.2-.51Z"/>
    <path class="cls-9" d="M173.27,93.33c-.42.6-.9.99-1.4,1.36-2.49,1.84-4.71,3.99-6.91,6.15-.44.43-.83.92-1.23,1.39-.2.24-.19.51-.08.81.15.39.4.67.73.87,1.79,1.08,3.29,2.52,4.82,3.92,1.03.94,2.12,1.82,3.19,2.73.18.15.34.33.58.56-.6.18-1.13.18-1.64.15-1.46-.08-2.89.16-4.32.35-.91.12-1.82.2-2.73.2-1.35,0-2.7.03-4.04-.2-.33-.06-.67-.04-1.01-.04-2.12-.02-4.23-.24-6.33-.56-.52-.08-1.06-.06-1.59-.06-.87,0-1.74.01-2.61.04-.43.02-.86.09-1.29.14-.19.02-.38.07-.57.07-2.17,0-4.32.34-6.5.3-.91-.02-1.84-.05-2.73.25-1.54,0-3.05.51-4.6.33-.18-.02-.36-.07-.61-.12.1-.38.17-.7.27-1.02.52-1.6.45-3.24.2-4.87-.26-1.71-.69-3.38-1.01-5.08-.14-.71-.12-1.44-.2-2.15-.15-1.44-.4-2.86-.65-4.28-.05-.27,0-.56,0-.87.16-.06.28-.13.42-.15,3.07-.34,6.16-.3,9.25-.28.67,0,1.34.11,2.01.16.38.03.77.04,1.15.05,5.79.04,11.59.1,17.38.11,2.56,0,5.12-.07,7.68-.11,1.19-.27,2.4-.22,3.6-.21.23,0,.46.04.78.06Z"/>
    <path class="cls-9" d="M96.07,110.34c-1.52,0-2.91.15-4.3-.11-.38-.07-.77-.08-1.15-.08-1.64,0-3.29,0-4.93,0-.58,0-1.15,0-1.72.14-.41.1-.86.08-1.3.08-4.59,0-9.18,0-13.77,0-.29,0-.59.03-.87-.02-2.11-.38-4.24-.11-6.36-.18-1.27.3-2.58.19-3.87.42-1.27.22-2.58.2-3.88.28.15-.59.56-.94.95-1.29,1.47-1.32,3.08-2.47,4.64-3.68.87-.68,1.62-1.51,2.41-2.29.16-.16.27-.39.37-.61.37-.81.25-1.46-.37-2.1-1.14-1.19-2.41-2.23-3.69-3.26-.91-.73-1.76-1.5-2.57-2.33-.44-.45-.89-.87-1.36-1.33.1-.25.37-.16.56-.15,1.01.04,2.02.02,3.02.26.32.08.67.05,1.01.06.72.02,1.44-.04,2.15.19.26.09.58.03.86.03,1.3,0,2.61.03,3.91,0,.72-.02,1.43-.18,2.15-.2,1.79-.05,3.57-.09,5.36-.08,1.31.01,2.59-.2,3.88-.33,1.48-.15,2.98-.26,4.44-.52,1.43-.26,2.89-.11,4.3-.48.14-.04.29-.02.43-.02,1.88-.06,3.74-.31,5.6-.57.42-.06.86,0,1.28,0,.26.17.22.42.22.66,0,.43,0,.87,0,1.3,0,.73.12,1.43.31,2.14.26.92.39,1.88.57,2.83.1.52.2,1.04.3,1.56.29,1.47.52,2.94.64,4.43.08,1.05.28,2.1.43,3.14.1.66.2,1.33.32,2.15ZM82.75,99.33c-1.35,0-2.55,0-3.76,0-.23,0-.56.05-.65.2-.23.37-.54.33-.87.33-.32,0-.68-.1-1,.32,0,.54.02,1.16,0,1.78-.02.38-.09.76-.19,1.13-.05.18-.24.35-.45.27-.16-.06-.34-.2-.41-.35-.09-.21-.08-.47-.1-.7-.04-.76,0-1.53-.11-2.31-.57-.2-1.07-.15-1.6-.02-.07.37-.12.68-.18,1.01-.11-.08-.22-.11-.26-.19-.48-.91-1.33-1.21-2.25-1.39-1.06-.22-2.26.52-2.61,1.58-.05.17-.07.35-.1.52-.09-.68-.42-1.21-.93-1.6-.75-.58-1.61-.87-2.56-.76-.42.05-.84.14-1.28.22-.1.35-.28.67-.28.98-.02,1.53-.18,3.06-.01,4.58q.91.13,1.16,0c.32-.17.23-.5.31-.76.03-.08.13-.13.24-.24.34,0,.72,0,1.11,0,.68,0,1.2-.32,1.58-.86.14-.2.22-.44.37-.74.1.53.17.96.28,1.37.1.38.3.71.65.92,1.25.74,3.42.73,4.09-.43.09-.16.26-.28.43-.46.3.85.92,1.28,1.71,1.39.57.08,1.16.08,1.73,0,.71-.09,1.28-.43,1.42-1.22.06-.33.15-.65.18-.98.04-.48.04-.96.07-1.44,0-.09.07-.17.11-.25.31-.17.62-.21,1.01.02.01.34.03.71.03,1.09,0,.43-.02.87,0,1.3.02.37-.12.77.17,1.17.57.05,1.18.17,1.77-.1.14-1.19.27-2.33.4-3.44.73-.43.78-.48.8-1.08,0-.23-.03-.47-.05-.86ZM85.16,99.43c-.02.32-.03.55-.04.79-.05,1.1.06,2.2-.24,3.29-.11.4-.02.86,0,1.29,0,.08.08.16.17.32.29,0,.62.02.94,0,.32-.02.53-.24.57-.55.05-.46-.09-.94.17-1.48.46.64.87,1.22,1.26,1.77.54.04,1.01.07,1.49-.11.14-.86.06-1.67.02-2.48-.04-.86.35-1.69.18-2.58-.37-.1-.69-.2-1.01-.27-.19-.04-.38-.05-.57.21-.04.39-.08.85-.13,1.38-1.03-1.62-1.1-1.66-2.79-1.58ZM93.47,101.46c-.51.07-.89.14-1.27.17-.2.02-.38-.07-.41-.31-.04-.24.15-.46.42-.48.43-.03.87-.04,1.3-.07.08,0,.16-.08.27-.14.16-.4.24-.81-.15-1.19-.66.12-1.32.19-1.99.03-.52-.13-1.05-.06-1.5.34-.03,1.4-.06,2.8-.09,4.2,0,.14,0,.29,0,.43.03.39.25.61.66.62.24,0,.49,0,.72-.05.43-.1.85-.07,1.29,0,1.28.21,1.46,0,1.27-1.44-.65-.05-1.31-.09-1.97-.15-.06,0-.17-.15-.16-.2.02-.12.1-.32.18-.33.38-.05.77-.05,1.15-.09.08,0,.16-.09.29-.17v-1.18ZM83.24,99.63c-.23.46-.14.95-.16,1.43-.03.91.08,1.83-.2,2.72-.07.21,0,.47.05.71.04.22.31.41.54.39.19-.01.39-.03.57-.08.3-.08.49-.29.52-.61.01-.14.03-.29.04-.43.03-.86-.02-1.71.22-2.57.15-.53.08-1.13-.02-1.74-.58-.16-1.08-.15-1.54.18Z"/>
    <path class="cls-1" d="M113.11,126.69c-1.34-.15-2.68-.27-4.01-.47-.8-.12-1.59-.37-2.32-.76-.42-.23-.88-.41-1.34-.54-1.22-.36-2.11-1.13-2.8-2.16-.05-.08-.09-.17-.14-.25-.78-1.28-1.61-2.52-2.31-3.83-1.26-2.34-2.26-4.78-2.62-7.45-.17-1.28-.49-2.55-.71-3.83-.16-.95-.3-1.9-.36-2.86-.1-1.69-.4-3.34-.8-4.98-.12-.51-.17-1.04-.26-1.57-.17-.95-.33-1.89-.64-2.81-.09-.27-.09-.57-.11-.86-.02-.19,0-.39-.01-.58-.27-2.93.8-5.49,2.21-7.94.53-.92,1.13-1.8,1.76-2.65,1.48-1.99,3.19-3.75,5.44-4.88.34-.17.64-.43.99-.6.34-.16.71-.29,1.09-.36.76-.13,1.54-.12,2.28-.31,1.04-.27,2.1-.26,3.14-.43.56-.09,1.16-.11,1.73-.04,1,.12,2,.31,2.98.53.51.11,1.02.3,1.5.52,1.1.5,2.19,1.02,3.25,1.57.42.22.8.53,1.15.86.9.87,1.79,1.77,2.65,2.67.74.77,1.29,1.68,1.81,2.61.57,1.01,1.1,2.04,1.67,3.04.46.8.73,1.65.93,2.56.38,1.74.49,3.52.82,5.27.3,1.56.37,3.15.6,4.72.17,1.23.37,2.47.8,3.66.16.44.41.88.13,1.38-.06.11-.02.29.01.42.53,2.01.1,3.9-.61,5.78-.54,1.41-1.2,2.73-2.11,3.93-.2.27-.39.55-.56.84-.81,1.43-1.86,2.69-2.8,4.03-.67.96-1.53,1.74-2.39,2.52-.61.55-1.31.98-2.09,1.27-1.13.41-2.25.87-3.39,1.24-1.47.47-3,.7-4.56.72ZM113.28,125.19h0c.77,0,1.55.04,2.32-.02,1.16-.08,2.31-.29,3.29-.95,1.72-1.17,3.32-2.48,4.67-4.08,1.41-1.68,2.55-3.49,3.18-5.62.25-.84.32-1.7.54-2.53.44-1.64.49-3.33.71-4.99.18-1.38.16-2.81.01-4.19-.15-1.39-.28-2.78-.27-4.17,0-.1,0-.19-.02-.29-.31-1.46-.6-2.92-.95-4.37-.33-1.35-.74-2.69-1.09-4.04-.34-1.31-.79-2.58-1.48-3.75-.42-.71-.88-1.38-1.26-2.11-.57-1.08-1.42-1.95-2.18-2.88-.82-1-1.89-1.65-3.08-2.09-1.49-.55-3.03-.95-4.65-.93-.72.01-1.45.08-2.17.03-.83-.05-1.64.08-2.43.28-2.67.69-4.99,1.99-6.91,4-1.24,1.3-2.25,2.76-3.24,4.25-1.48,2.2-2.01,4.66-2.09,7.25-.04,1.4.13,2.79.24,4.18.1,1.22.36,2.36.88,3.48.63,1.36,1.08,2.78,1.22,4.29.07.81.19,1.63.33,2.43.26,1.52.56,3.03.8,4.54.21,1.34.65,2.61.95,3.92.45.68.91,1.37,1.35,2.05.21.32.4.66.6.99.93,1.5,2.1,2.77,3.67,3.61,1.93,1.03,3.95,1.78,6.2,1.7.29-.01.58,0,.87,0Z"/>
    <path d="M87.07,116.88c-.06.16-.11.34-.2.51-.23.43-.6.61-.91.44-.31-.17-.4-.77-.17-1.15.2-.32.83-.36,1.13-.07.06.06.09.16.15.27Z"/>
    <path d="M155.03,99.77c-.71.31-1.35.15-1.97.22-.35.04-.43.14-.51.72.56.36,1.24-.06,1.83.26.2.36.07.74.01,1.14-.11.05-.24.14-.37.16-.46.07-.95-.06-1.37.07-.36.63.08,1.33-.38,1.9-.99-.35-1.97-.28-2.96,0-.47.13-.6.07-.86-.5-.16-.35-.4-.36-.69-.35-.26.02-.44.15-.48.43-.02.14-.07.27-.11.41-.58.32-1.11-.33-1.68-.06-.57.27-1.13.04-1.7-.05-.53-.09-1.05.07-1.57.14-.56.07-1.14.02-1.77.02-.12-.39-.22-.74-.33-1.1h-.85c-.16.4-.29.74-.44,1.11-.58,0-1.09-.02-1.62-.08-.04-.2-.12-.35-.1-.47.41-1.78.86-3.54,1.6-5.18.1-.03.15-.05.2-.05,2,0,1.63-.13,2.22,1.52.22.62.5,1.22.78,1.9.36-1,.39-1.96.39-2.99.59-.15,1.18-.3,1.81-.46.06.17.15.3.13.41-.25,1.19-.24,2.39-.18,3.59,0,.08.1.16.18.28.44-.07.91-.15,1.41-.23.91-1.25.85-2.93,1.74-4.25.64.09,1.15.48,1.71.62.51,1.13.67,2.35,1.51,3.44.18-.74.09-1.35.11-1.95.02-.57.03-1.14.05-1.73.48-.13.91-.12,1.33-.14.58-.03,1.15.03,1.71-.22.21-.09.47-.08.71-.08,1.3.01,2.61.04,3.91.06.14,0,.32-.04.43.02.61.37,1.21.17,1.87-.05.07.22.16.39.17.56.02.43.04.87,0,1.3-.06.78.04,1.54.37,2.34.47.06.98.12,1.51.19-.08.44-.15.81-.21,1.17-.1.07-.17.16-.25.17-.95.14-1.91.07-2.87.13-1.34.09-2.69-.08-4.03-.15-.04,0-.08-.04-.21-.11-.19-.65-.03-1.37-.06-2.08-.02-.66,0-1.33-.1-2.02ZM147.95,100.83c-.12.43-.21.73-.29,1.01.26.19.47.18.72-.04-.12-.27-.24-.55-.43-.97ZM139.22,101.61c.17.03.31.09.44.08.3-.01.4-.19.26-.48-.07-.16-.17-.33-.43-.25-.08.19-.17.41-.27.65Z"/>
    <path d="M137.56,98.57c-.11.56-.18.93-.26,1.33-.11.08-.22.17-.35.24-.49.28-1.05.07-1.56.18-.24.05-.29.21-.27.5.59.07,1.19.13,1.84.21.05.21.11.39.12.57.03.55-.12.74-.6.79-.42.04-.85.06-1.34.09-.03.51-.06.98-.09,1.46-.38.3-.83.16-1.28.19-.07-.1-.18-.2-.22-.33-.08-.27-.16-.56-.19-.84-.14-1.29.03-2.6-.2-3.89-.02-.1.13-.27.24-.33.16-.09.37-.14.55-.13.97,0,1.92-.05,2.88-.21.2-.03.44.1.73.18Z"/>
    <path class="cls-7" d="M137.41,97.97c-.11.56-.18.93-.26,1.33-.11.08-.22.17-.35.24-.49.28-1.05.07-1.56.18-.24.05-.29.21-.27.5.59.07,1.19.13,1.84.21.05.21.11.39.12.57.03.55-.12.74-.6.79-.42.04-.85.06-1.34.09-.03.51-.06.98-.09,1.46-.38.3-.83.16-1.28.19-.07-.1-.18-.2-.22-.33-.08-.27-.16-.56-.19-.84-.14-1.29.03-2.6-.2-3.89-.02-.1.13-.27.24-.33.16-.09.37-.14.55-.13.97,0,1.92-.05,2.88-.21.2-.03.44.1.73.18Z"/>
    <path d="M82.75,99.33c.03.39.06.63.05.86-.02.59-.07.65-.8,1.08-.13,1.12-.26,2.25-.4,3.44-.59.28-1.19.15-1.77.1-.29-.4-.15-.8-.17-1.17-.02-.43,0-.87,0-1.3,0-.38-.02-.75-.03-1.09-.39-.24-.7-.19-1.01-.02-.04.09-.11.17-.11.25-.03.48-.03.96-.07,1.44-.03.33-.12.65-.18.98-.14.79-.71,1.14-1.42,1.22-.57.07-1.16.07-1.73,0-.79-.12-1.41-.54-1.71-1.39-.17.18-.34.3-.43.46-.67,1.16-2.84,1.18-4.09.43-.35-.21-.55-.54-.65-.92-.11-.41-.17-.84-.28-1.37-.15.3-.23.54-.37.74-.38.54-.91.85-1.58.86-.38,0-.77,0-1.11,0-.12.11-.22.16-.24.24-.09.26,0,.59-.31.76q-.26.13-1.16,0c-.17-1.52,0-3.05.01-4.58,0-.32.18-.64.28-.98.44-.08.86-.17,1.28-.22.96-.11,1.81.18,2.56.76.51.4.84.92.93,1.6.03-.17.04-.35.1-.52.35-1.06,1.54-1.8,2.61-1.58.91.18,1.77.48,2.25,1.39.04.07.15.11.26.19.06-.33.12-.64.18-1.01.53-.14,1.03-.18,1.6.02.1.78.07,1.55.11,2.31.01.24,0,.49.1.7.06.15.25.29.41.35.21.08.4-.09.45-.27.1-.37.17-.75.19-1.13.03-.62,0-1.24,0-1.78.31-.41.67-.32,1-.32.34,0,.64.04.87-.33.09-.15.43-.19.65-.2,1.2-.02,2.41,0,3.76,0ZM70.83,101.09c-.42.26-.68.48-.75.83-.08.38-.1.77.1,1.12.12.22.32.39.57.35.17-.03.36-.14.46-.28.31-.42.37-.88.08-1.34-.12-.2-.26-.39-.45-.68ZM64.82,101.84c.04.06.1.28.23.35.34.17.85-.06.95-.42.04-.16,0-.41-.1-.53-.21-.24-.54-.2-.81-.12-.29.08-.27.35-.27.72Z"/>
    <path d="M85.16,99.43c1.69-.08,1.76-.04,2.79,1.58.05-.53.09-.99.13-1.38.19-.26.39-.25.57-.21.32.08.64.17,1.01.27.18.89-.22,1.72-.18,2.58.04.81.12,1.62-.02,2.48-.48.18-.95.15-1.49.11-.39-.55-.8-1.13-1.26-1.77-.26.54-.12,1.03-.17,1.48-.04.31-.24.53-.57.55-.33.02-.66,0-.94,0-.08-.16-.16-.24-.17-.32-.01-.43-.11-.89,0-1.29.3-1.09.19-2.19.24-3.29.01-.23.02-.47.04-.79Z"/>
    <path d="M93.47,101.46v1.18c-.13.08-.21.16-.29.17-.38.03-.77.03-1.15.09-.08.01-.15.21-.18.33-.01.06.1.2.16.2.66.06,1.32.1,1.97.15.19,1.43,0,1.65-1.27,1.44-.44-.07-.85-.1-1.29,0-.23.05-.48.06-.72.05-.41-.01-.63-.23-.66-.62,0-.14-.01-.29,0-.43.03-1.4.06-2.79.09-4.2.45-.4.98-.47,1.5-.34.68.17,1.34.09,1.99-.03.39.39.31.79.15,1.19-.1.06-.18.13-.27.14-.43.03-.87.04-1.3.07-.27.02-.45.24-.42.48.04.24.22.32.41.31.38-.03.76-.1,1.27-.17Z"/>
    <path d="M83.24,99.63c.47-.33.96-.34,1.54-.18.1.6.17,1.21.02,1.74-.24.86-.19,1.71-.22,2.57,0,.14-.02.29-.04.43-.03.33-.22.53-.52.61-.18.05-.38.07-.57.08-.23.01-.5-.18-.54-.39-.04-.23-.11-.5-.05-.71.28-.9.18-1.81.2-2.72.01-.48-.07-.96.16-1.43Z"/>
    <path d="M113.28,125.19c-.29,0-.58,0-.87,0-2.24.08-4.27-.67-6.2-1.7-1.57-.84-2.74-2.11-3.67-3.61-.2-.33-.39-.66-.6-.99-.45-.69-.9-1.37-1.35-2.05-.3-1.31-.74-2.58-.95-3.92-.24-1.52-.54-3.03-.8-4.54-.14-.81-.26-1.62-.33-2.43-.13-1.51-.59-2.93-1.22-4.29-.52-1.11-.78-2.26-.88-3.48-.11-1.39-.29-2.78-.24-4.18.08-2.59.61-5.05,2.09-7.25,1-1.48,2-2.95,3.24-4.25,1.92-2.01,4.24-3.31,6.91-4,.79-.21,1.59-.34,2.43-.28.72.05,1.45-.02,2.17-.03,1.62-.03,3.15.37,4.65.93,1.19.44,2.26,1.09,3.08,2.09.76.93,1.61,1.79,2.18,2.88.38.72.85,1.4,1.26,2.11.69,1.17,1.14,2.44,1.48,3.75.35,1.35.76,2.68,1.09,4.04.35,1.45.64,2.91.95,4.37.02.09.03.19.02.29-.01,1.4.12,2.78.27,4.17.15,1.38.17,2.81-.01,4.19-.22,1.66-.27,3.35-.71,4.99-.22.82-.29,1.69-.54,2.53-.63,2.13-1.77,3.94-3.18,5.62-1.35,1.6-2.95,2.91-4.67,4.08-.98.66-2.14.87-3.29.95-.77.06-1.54.01-2.32.01h0ZM113.26,124.35h0c.77,0,1.55.03,2.32-.02,1.01-.06,2.04-.21,2.89-.81,1.46-1.02,2.85-2.13,4.08-3.45,1.74-1.88,2.93-4.04,3.69-6.46.06-.18.07-.38.1-.57.11-.71.17-1.44.35-2.13.15-.57.19-1.14.23-1.71.03-.43.12-.85.16-1.28.12-1.24.28-2.49.31-3.74.02-.81-.1-1.64-.29-2.43-.17-.72-.17-1.43-.18-2.15-.01-.53.02-1.07-.08-1.59-.26-1.32-.56-2.64-.89-3.94-.25-1.03-.55-2.04-.84-3.06-.32-1.16-.56-2.35-1.14-3.42-.71-1.32-1.43-2.63-2.23-3.88-.62-.97-1.41-1.84-2.28-2.61-.32-.29-.68-.55-1.06-.74-1.58-.75-3.21-1.31-4.98-1.31-1.26,0-2.51.02-3.77.05-.28,0-.57.08-.85.15-2.71.63-5,1.97-6.9,4-.73.78-1.42,1.58-2.03,2.45-.6.87-1.19,1.76-1.67,2.71-.75,1.47-1.19,3.06-1.19,4.73,0,1.83-.06,3.66.24,5.49.16.96.37,1.88.78,2.76.5,1.05.85,2.14,1.08,3.28.15.76.17,1.53.32,2.29.39,1.98.61,3.99,1.02,5.98.26,1.28.59,2.53,1.05,3.74.17.45.43.86.68,1.27.3.49.65.96.96,1.45,1.14,1.8,2.63,3.19,4.62,4.01,1.9.78,2.8.96,4.92.98.19,0,.39,0,.58,0Z"/>
    <path class="cls-7" d="M142.28,115.88c.02-.11.04-.3.09-.48.14-.49.49-.8.75-.67.39.2.29.57.26.87-.04.32-.14.64-.26.95-.07.19-.26.27-.46.23-.19-.04-.33-.18-.34-.39,0-.14-.02-.28-.03-.5Z"/>
    <path class="cls-7" d="M77.42,114.77c.34.09.52.3.44.63-.06.24-.49.46-.69.41-.2-.05-.24-.46-.05-.76.07-.11.2-.19.3-.28Z"/>
    <path class="cls-9" d="M156.83,100.6c.8-.34,1.66.14,2.39-.3.25.95.25,1.52.04,2.69q-1.45.09-2.36-.26c.02-.3.18-.38.46-.32.23.05.47.08.71.1.09,0,.18-.04.28-.06.23-.15.17-.43.25-.64.23-.62.1-.94-.75-.98-.32-.02-.68.1-1.03-.21Z"/>
    <path class="cls-9" d="M148.19,101.36c.18.41.31.7.43.97-.25.22-.46.23-.72.04.08-.28.17-.58.29-1.01Z"/>
    <path class="cls-9" d="M70.83,101.09c.19.29.33.48.45.68.29.46.23.92-.08,1.34-.1.13-.29.25-.46.28-.26.04-.45-.13-.57-.35-.2-.36-.17-.75-.1-1.12.07-.35.34-.56.75-.83Z"/>
    <path class="cls-9" d="M64.82,101.84c0-.37-.02-.64.27-.72.27-.07.6-.12.81.12.1.12.14.37.1.53-.09.36-.61.59-.95.42-.14-.07-.19-.29-.23-.35Z"/>
    <path class="cls-11" d="M113.26,124.35c-.19,0-.39,0-.58,0-2.12-.02-3.02-.2-4.92-.98-1.99-.82-3.48-2.22-4.62-4.01-.31-.49-.66-.95-.96-1.45-.25-.41-.51-.82-.68-1.27-.46-1.21-.79-2.46-1.05-3.74-.41-1.98-.63-3.99-1.02-5.98-.15-.75-.17-1.53-.32-2.29-.22-1.15-.58-2.24-1.08-3.28-.42-.88-.62-1.8-.78-2.76-.3-1.83-.24-3.66-.24-5.49,0-1.67.44-3.25,1.19-4.73.48-.94,1.07-1.84,1.67-2.71.6-.87,1.3-1.68,2.03-2.45,1.91-2.03,4.2-3.37,6.9-4,.28-.07.56-.14.85-.15,1.26-.03,2.51-.05,3.77-.05,1.77,0,3.41.56,4.98,1.31.38.18.74.45,1.06.74.87.77,1.66,1.64,2.28,2.61.8,1.26,1.53,2.57,2.23,3.88.57,1.07.81,2.26,1.14,3.42.28,1.02.58,2.04.84,3.06.32,1.31.63,2.62.89,3.94.1.52.07,1.06.08,1.59.02.72.01,1.43.18,2.15.19.79.31,1.62.29,2.43-.03,1.25-.19,2.49-.31,3.74-.04.43-.13.85-.16,1.28-.04.58-.08,1.14-.23,1.71-.18.69-.24,1.42-.35,2.13-.03.19-.04.39-.1.57-.76,2.42-1.95,4.58-3.69,6.46-1.23,1.32-2.61,2.43-4.08,3.45-.85.59-1.87.74-2.89.81-.77.05-1.55,0-2.32,0h0ZM110.35,122.53c.19,0,.33-.06.29-.29.45.05.74-.15.87-.58.46.06.73-.16.87-.58.43.01.71-.19.87-.58.18-.02.29-.1.29-.3.08-.03.15-.06.23-.08-.02-.03-.05-.05-.07-.08-.04.07-.08.14-.12.21-.18.01-.32.07-.29.29-.45-.06-.74.15-.88.57-.43-.02-.72.17-.87.58-.43-.02-.72.17-.87.58-.19,0-.32.07-.28.3-.07.04-.27-.05-.14.16.04-.07.07-.13.11-.2ZM114.99,121.66c.1-.1.19-.2.29-.29.04-.02.07-.03.1-.05.02-.01.03-.04.04-.06-.03.05-.07.1-.1.15-.16.03-.29.1-.29.29-.18.01-.32.07-.31.28-.45-.05-.73.16-.87.58-.07.02-.14.05-.21.07.04.03.07.07.11.1.02-.07.05-.14.07-.21.14,0,.28,0,.42-.02.38-.06.38-.07.44-.56.21.02.25-.14.3-.29ZM114.12,121.08c.22.02.31-.08.29-.29.21.01.3-.09.29-.29.07-.03.27.05.15-.16-.04.07-.07.13-.11.2-.18.02-.27.12-.29.29-.18.01-.29.09-.29.29-.19,0-.31.07-.3.29-.17.05-.38.06-.51.16-.43.33-.86.66-1.18,1.13.11.05.16.09.19.08.6-.35,1.16-.75,1.49-1.4.21.01.32-.07.29-.3ZM121.37,118.46s.09-.02.13-.04c.02-.01.03-.05.05-.08-.05.05-.09.11-.14.16-.03.07-.27-.05-.16.17.04-.07.08-.14.12-.21ZM117.89,117.3c.18-.02.32-.07.28-.29.25.02.51.06.59-.28.43.01.74-.15.86-.59.26.03.5.02.59-.28.52-.06.95-.33,1.36-.64.05-.04.05-.16.07-.24.25.02.51.06.58-.29.24,0,.47-.01.58-.28.17-.03.31-.09.29-.3.23,0,.48.02.58-.28.17-.03.29-.11.29-.3.04-.01.09-.02.12-.04.02-.01.04-.04.06-.06l-.14.14c-.17.03-.3.1-.3.3-.23,0-.49-.03-.58.28-.17.02-.33.07-.29.3-.24,0-.52-.08-.59.28-.25,0-.49-.02-.58.29-.53.06-.96.32-1.37.64-.05.04-.04.16-.06.24-.26-.03-.52-.07-.6.28-.41.02-.73.16-.86.59-.25-.02-.48,0-.59.28-.16.03-.28.11-.28.3-.08.03-.16.06-.25.1.03.03.06.06.08.09.04-.07.08-.15.12-.23ZM125.75,106.04c-.23.02-.51-.05-.58.28-.23.01-.51-.07-.59.28-.18.04-.36.07-.53.11-.22.06-.44.12-.66.18.06-.33.34-.44.59-.57.75-.41,1.52-.79,2.27-1.2.18-.1.34-.25.57-.42-.2-.02-.31-.07-.38-.04-1.07.53-2.13,1.06-3.19,1.6-.12.06-.25.14-.34.24-.04.05-.02.17,0,.25,0,.03.07.07.11.08.14.01.29.01.43.01-.1.2-.21.41-.31.61-.36-.04-.59.15-.75.44q.46.04.74-.45c.74-.15,1.08-.36,1.43-.89.24,0,.51.06.58-.29.23-.02.5.04.58-.28.03-.07.28.05.16-.17-.04.07-.08.14-.11.21ZM125.75,107.49c-.25-.02-.52-.07-.59.28-.09,0-.2-.03-.27,0-.85.49-1.69.99-2.53,1.49-.06.03-.06.16-.09.24-.08.03-.17.07-.25.1.03.03.06.06.09.09.04-.08.08-.15.12-.23.09,0,.2.04.28,0,.91-.39,1.75-.91,2.55-1.49.05-.04.05-.16.07-.25.26.04.51.06.58-.29.07-.03.14-.05.21-.08-.04-.03-.07-.06-.11-.09l-.07.21ZM114.45,118.52c-.23.03-.51-.08-.58.28-.19.01-.33.06-.29.3-.25-.02-.52-.08-.59.28-.44-.03-.73.16-.87.58-.44-.04-.73.16-.88.56-.78.13-1.3.69-1.87,1.16-.15.12-.19.31.03.47.68-.47,1.45-.84,1.85-1.63.44.03.73-.16.86-.6.45.04.73-.17.86-.59.25.02.48,0,.58-.28.17-.03.29-.11.29-.3.24,0,.46-.04.57-.28.04-.06.27.02.13-.17-.03.07-.06.14-.08.22ZM119.04,119.91c.25.03.51.05.6-.28.4-.02.71-.18.85-.58.05-.06.3.07.17-.17l-.13.21c-.4.02-.73.15-.86.58-.25-.02-.49-.03-.59.28-.18.02-.33.07-.29.3-.25-.02-.51-.06-.59.28-.42,0-.74.15-.86.59-.25-.02-.5-.05-.58.28-.08.03-.17.07-.25.1.03.03.06.06.1.09.04-.08.08-.15.12-.23.25.01.5.04.59-.28.43.01.73-.16.86-.59.25.03.5.03.58-.28.18-.01.33-.06.29-.3ZM123.72,115.61c-.43-.02-.73.15-.88.57-.18.03-.38.03-.54.1-.69.33-1.38.67-2.04,1.05-1.24.72-2.46,1.46-3.69,2.21-.05.03-.06.19-.03.25.04.06.19.1.24.07.91-.53,1.8-1.09,2.71-1.61.95-.55,1.93-1.05,2.88-1.59.19-.11.44-.2.45-.5.44.04.72-.17.86-.58.04-.02.09-.03.13-.05.02-.01.02-.06.03-.09-.04.06-.08.12-.12.18ZM124.27,104.26c.41-.01.72-.17.86-.59.09,0,.19,0,.28-.03.06-.02.1-.09.15-.15-.08,0-.19-.04-.25,0-.07.04-.1.14-.14.22-.43-.02-.75.13-.86.58-.13,0-.26-.01-.39.01-.05,0-.07.11-.11.16.08.02.18.09.22.06.1-.06.17-.17.25-.26ZM120.21,114.12c.4-.02.73-.16.88-.57.18-.04.38-.03.53-.13,1.14-.74,2.27-1.49,3.4-2.25.06-.04.08-.16.12-.24.07-.03.15-.06.22-.09-.04-.03-.09-.06-.13-.08l-.05.21c-.18.03-.4,0-.54.09-1.16.74-2.31,1.49-3.45,2.25-.06.04-.06.16-.08.25-.46-.05-.75.13-.85.6-.07.04-.29-.08-.17.16.05-.07.09-.13.14-.2ZM125.87,109.35s-.06-.09-.09-.1c-.14,0-.3-.04-.41.02-1.28.65-2.62,1.2-3.74,2.13-.08.07-.12.19-.3.49,1.65-.93,3.09-1.74,4.54-2.55ZM118.24,96.59c0-.07,0-.23-.04-.36-.04-.12-.13-.3-.23-.32-.17-.03-.39-.02-.53.07-.39.25-.52.67-.61,1.1-.05.26.28.57.55.53.57-.08.85-.39.86-1.02ZM110.22,112.31c.3-.23.6-.44.88-.69.21-.19.09-.66-.19-.87-.18-.13-.49-.08-.62.14-.15.24-.29.49-.39.75-.12.32.02.54.33.67ZM119.58,91.43c0,.3.13.6.29.58.18-.02.37-.09.51-.2.15-.11.27-.27.36-.43.18-.31-.04-.71-.39-.74-.49-.04-.76.23-.78.8ZM111.25,100.02c-.36.14-.46.41-.52.67-.03.14.08.35.19.48.06.07.27.08.36.04.24-.12.46-.29.73-.48-.3-.28-.54-.5-.76-.71ZM105.17,100.03c-.07-.11-.12-.28-.22-.32-.1-.04-.28,0-.38.06-.11.07-.2.19-.26.31-.11.2-.02.52.15.61.16.08.46-.04.58-.26.06-.12.08-.26.13-.4ZM103.54,110.2q.57.17.92-.58-.54-.2-.92.58ZM106.18,106.55c.3.05.64-.24.66-.57,0-.07-.07-.19-.13-.21-.38-.16-.77.17-.69.58.01.08.11.14.17.2ZM113.88,93.41c-.32-.18-.48-.3-.66-.35-.1-.02-.25.06-.34.14-.05.04-.07.2-.03.25.08.11.22.25.32.24.18-.01.35-.13.7-.28ZM118.79,105.74c-.06-.05-.14-.18-.25-.21-.21-.06-.39.16-.35.44.02.1.14.24.23.26.22.05.39-.17.36-.5ZM107.71,117.04c-.04-.1-.08-.23-.16-.34-.04-.06-.17-.1-.24-.08-.19.06-.17.51.03.61.06.03.17-.02.26-.05.03-.01.05-.07.11-.15ZM116.19,88.42c.09.11.16.21.25.3.1.1.21.07.21-.06,0-.11-.08-.23-.17-.32-.03-.03-.16.04-.29.08Z"/>
    <path d="M122.82,116.15c0,.3-.25.39-.45.5-.96.54-1.93,1.05-2.88,1.59-.91.52-1.8,1.08-2.71,1.61-.05.03-.2-.02-.24-.07-.04-.06-.02-.22.03-.25,1.22-.74,2.45-1.49,3.69-2.21.66-.38,1.35-.71,2.04-1.05.16-.08.36-.07.54-.1l-.02-.02Z"/>
    <path d="M125.87,109.35c-1.45.81-2.89,1.62-4.54,2.55.18-.3.22-.43.3-.49,1.12-.93,2.46-1.48,3.74-2.13.11-.06.27-.02.41-.02.03,0,.06.06.09.1Z"/>
    <path d="M118.24,96.59c-.01.63-.29.94-.86,1.02-.27.04-.6-.27-.55-.53.08-.43.22-.85.61-1.1.14-.09.36-.1.53-.07.1.02.18.2.23.32.05.13.03.28.04.36Z"/>
    <path d="M125.14,110.94c-.04.08-.06.2-.12.24-1.13.76-2.26,1.51-3.4,2.25-.14.09-.35.09-.53.13h0c.03-.08.03-.2.08-.24,1.15-.76,2.29-1.52,3.45-2.25.14-.09.36-.06.54-.09l-.04-.03Z"/>
    <path d="M123.44,106.86c-.14,0-.29,0-.43-.01-.04,0-.11-.04-.11-.08-.01-.08-.03-.2,0-.25.09-.1.22-.18.34-.24,1.06-.54,2.12-1.07,3.19-1.6.07-.03.17.02.38.04-.23.18-.39.33-.57.42-.75.41-1.52.79-2.27,1.2-.24.13-.52.24-.59.57l.05-.05Z"/>
    <path d="M110.22,112.31c-.3-.12-.45-.35-.33-.67.1-.26.25-.51.39-.75.13-.21.44-.27.62-.14.29.21.41.68.19.87-.28.24-.59.46-.88.69Z"/>
    <path d="M119.58,91.43c.02-.56.28-.84.78-.8.35.03.58.44.39.74-.1.16-.21.33-.36.43-.14.1-.33.17-.51.2-.16.02-.3-.28-.29-.58Z"/>
    <path d="M122.27,109.51c.03-.08.03-.21.09-.24.84-.51,1.68-1,2.53-1.49.07-.04.18,0,.27,0l-.02-.02c-.02.09-.01.21-.07.25-.8.58-1.64,1.1-2.55,1.49-.08.03-.18,0-.28,0l.03.03Z"/>
    <path d="M111.25,100.02c.22.21.47.43.76.71-.27.18-.49.35-.73.48-.1.05-.3.03-.36-.04-.11-.13-.22-.34-.19-.48.06-.26.16-.53.52-.67Z"/>
    <path d="M111.24,120.52c-.41.79-1.18,1.16-1.85,1.63-.22-.17-.18-.35-.03-.47.57-.47,1.09-1.04,1.87-1.16h0Z"/>
    <path d="M113.83,121.37c-.32.65-.88,1.05-1.49,1.4-.02.01-.08-.03-.19-.08.32-.47.75-.81,1.18-1.13.13-.1.34-.11.51-.16l-.02-.02Z"/>
    <path d="M105.17,100.03c-.05.15-.07.29-.13.4-.11.22-.41.34-.58.26-.17-.09-.26-.42-.15-.61.07-.12.15-.25.26-.31.11-.06.28-.1.38-.06.1.04.15.21.22.32Z"/>
    <path d="M103.54,110.2q.39-.78.92-.58-.35.75-.92.58Z"/>
    <path d="M106.18,106.55c-.06-.07-.15-.13-.17-.2-.08-.41.31-.74.69-.58.06.03.13.14.13.21-.01.33-.36.62-.66.57Z"/>
    <path d="M123.39,106.91c.22-.06.44-.13.66-.18.18-.04.36-.08.53-.11l-.03-.03c-.36.53-.69.74-1.43.89h0c.1-.19.21-.4.31-.6l-.05.05Z"/>
    <path d="M121.65,114.98c-.02.08-.02.2-.07.24-.41.31-.84.58-1.36.64l.03.04c.02-.08.01-.2.06-.24.41-.31.85-.57,1.37-.64l-.03-.04Z"/>
    <path d="M113.88,93.41c-.35.15-.53.27-.7.28-.1,0-.24-.14-.32-.24-.04-.05-.02-.21.03-.25.09-.08.24-.16.34-.14.18.05.33.17.66.35Z"/>
    <path d="M118.79,105.74c.02.32-.15.55-.36.5-.1-.02-.22-.16-.23-.26-.05-.28.14-.5.35-.44.11.03.19.15.25.21Z"/>
    <path d="M107.71,117.04c-.05.08-.07.13-.11.15-.08.03-.19.08-.26.05-.2-.1-.22-.55-.03-.61.07-.02.2.02.24.08.08.1.11.24.16.34Z"/>
    <path d="M113.86,122.56c.14-.42.42-.63.87-.58l-.03-.03c-.07.49-.07.5-.44.56-.14.02-.28.01-.42.02l.03.03Z"/>
    <path d="M123.12,107.46q-.29.49-.74.45c.17-.29.39-.48.75-.44h0Z"/>
    <path d="M111.51,121.66c-.13.43-.42.63-.87.58l.03.03c.14-.41.44-.6.87-.58l-.02-.03Z"/>
    <path d="M121.09,113.55c-.15.41-.47.55-.88.57l.03.04c.1-.46.39-.65.85-.6h0Z"/>
    <path d="M124.3,104.3c.12-.45.43-.6.86-.58l-.04-.04c-.13.42-.44.58-.86.59l.03.03Z"/>
    <path d="M112.38,121.08c-.14.41-.41.64-.87.58l.02.03c.15-.4.44-.6.87-.58l-.03-.03Z"/>
    <path d="M118.17,120.49c-.13.43-.43.6-.86.59l.03.04c.12-.44.43-.59.86-.59l-.03-.03Z"/>
    <path d="M122.84,116.18c.15-.42.45-.59.88-.57l-.04-.04c-.15.4-.42.62-.86.58l.02.02Z"/>
    <path d="M119.62,116.14c-.12.44-.43.6-.86.59l.03.04c.13-.42.45-.57.86-.59l-.03-.03Z"/>
    <path d="M113.25,120.5c-.16.39-.44.59-.87.58l.03.03c.14-.42.43-.63.88-.57l-.04-.04Z"/>
    <path d="M119.67,119.67c.12-.43.46-.56.86-.58l-.04-.04c-.14.4-.45.56-.85.58l.03.04Z"/>
    <path d="M112.12,119.95c.14-.41.43-.61.87-.58l-.03-.03c-.13.42-.41.63-.86.59l.02.02Z"/>
    <path d="M111.23,120.51c.15-.41.44-.61.88-.56l-.02-.02c-.12.43-.41.62-.86.6h0Z"/>
    <path d="M116.19,88.42c.13-.04.26-.11.29-.08.08.09.16.21.17.32,0,.13-.11.16-.21.06-.09-.09-.16-.19-.25-.3Z"/>
    <path d="M117.31,121.08c-.09.32-.34.29-.59.28l.04.04c.08-.33.33-.3.58-.28l-.03-.04Z"/>
    <path d="M118.75,120.21c-.08.32-.33.31-.58.28l.03.03c.08-.34.34-.3.59-.28l-.04-.04Z"/>
    <path d="M119.08,119.95c.1-.31.34-.29.59-.28l-.03-.04c-.09.33-.34.31-.6.28l.04.04Z"/>
    <path d="M112.99,119.37c.07-.35.34-.3.59-.28l-.04-.04c-.1.29-.33.3-.58.28l.03.03Z"/>
    <path d="M114.4,118.47c-.11.25-.33.28-.57.28l.04.04c.06-.36.35-.25.58-.28l-.05-.04Z"/>
    <path d="M118.76,116.73c-.08.33-.34.3-.59.28l.04.04c.1-.28.34-.3.59-.28l-.03-.04Z"/>
    <path d="M120.21,115.86c-.1.3-.34.31-.59.28l.03.03c.08-.35.34-.31.6-.28l-.03-.04Z"/>
    <path d="M121.68,115.02c.09-.31.34-.3.58-.29l-.04-.04c-.07.35-.33.3-.58.29l.03.04Z"/>
    <path d="M122.81,114.41c-.11.27-.34.29-.58.28l.04.04c.07-.37.35-.28.59-.28l-.04-.04Z"/>
    <path d="M123.14,114.15c.09-.31.35-.27.58-.28l-.04-.04c-.1.3-.34.27-.58.28l.04.04Z"/>
    <path d="M125.72,107.45c-.07.35-.32.33-.58.29l.02.02c.07-.35.34-.3.59-.28l-.03-.03Z"/>
    <path d="M125.13,106.29c-.07.34-.33.3-.58.29l.03.03c.07-.35.35-.27.59-.28l-.04-.04Z"/>
    <path d="M125.17,106.33c.08-.34.36-.26.58-.28l-.04-.04c-.08.32-.35.26-.58.28l.04.04Z"/>
    <path d="M124.27,104.26c-.08.09-.15.2-.25.26-.04.03-.15-.04-.22-.06.04-.06.07-.15.11-.16.13-.02.26-.01.39-.01l-.03-.03Z"/>
    <path d="M125.16,103.71c.05-.08.08-.18.14-.22.06-.03.16,0,.25,0-.05.05-.09.13-.15.15-.09.03-.18.02-.28.03l.04.04Z"/>
    <path d="M125.75,106.04c.04-.07.08-.14.11-.21.12.22-.12.09-.16.17l.04.04Z"/>
    <path d="M125.75,107.49l.07-.21s.07.06.11.09c-.07.03-.14.05-.21.08l.03.03Z"/>
    <path d="M122.24,109.48c-.04.08-.08.15-.12.23-.03-.03-.06-.06-.09-.09.08-.03.17-.07.25-.1l-.03-.03Z"/>
    <path d="M125.17,110.97l.05-.21s.09.06.13.08c-.07.03-.15.06-.22.09l.04.03Z"/>
    <path d="M124.02,113.58l.14-.14s-.04.05-.06.06c-.04.02-.08.03-.12.04l.05.04Z"/>
    <path d="M123.72,113.87c0-.2.13-.27.3-.3l-.05-.04c0,.19-.13.27-.29.3l.04.04Z"/>
    <path d="M120.21,114.12c-.05.07-.09.13-.14.2-.12-.24.1-.13.17-.16l-.03-.04Z"/>
    <path d="M123.1,114.11c.01.21-.12.27-.29.3l.04.04c-.04-.23.11-.28.29-.3l-.04-.04Z"/>
    <path d="M123.72,115.61c.04-.06.08-.12.12-.18,0,.03,0,.07-.03.09-.04.03-.08.04-.13.05l.04.04Z"/>
    <path d="M118.17,117.01c.03.22-.1.28-.28.29l.04.04c0-.18.12-.26.28-.3l-.04-.04Z"/>
    <path d="M117.89,117.3c-.04.08-.08.15-.12.23-.03-.03-.06-.06-.08-.09.08-.03.16-.06.25-.1l-.04-.04Z"/>
    <path d="M114.45,118.52c.03-.07.06-.14.08-.22.14.2-.09.11-.13.17l.05.04Z"/>
    <path d="M121.41,118.5c.05-.05.09-.11.14-.16-.02.03-.03.06-.05.08-.04.02-.09.03-.13.04l.04.04Z"/>
    <path d="M121.37,118.46l-.12.21c-.11-.22.13-.09.16-.17l-.04-.04Z"/>
    <path d="M113.58,119.09c-.04-.24.1-.29.29-.3l-.04-.04c0,.19-.12.27-.29.3l.04.04Z"/>
    <path d="M120.53,119.09l.13-.21c.14.24-.12.11-.17.17l.04.04Z"/>
    <path d="M113.58,120.25c.04-.07.08-.14.12-.21.02.03.05.05.07.08-.08.03-.15.06-.23.08l.04.04Z"/>
    <path d="M119.04,119.91c.05.24-.1.29-.29.3l.04.04c-.04-.23.11-.28.29-.3l-.04-.04Z"/>
    <path d="M113.29,120.54c-.03-.22.11-.28.29-.29l-.04-.04c0,.2-.11.28-.29.3l.04.04Z"/>
    <path d="M114.74,120.53c.04-.07.07-.13.11-.2.12.21-.08.13-.15.16l.04.04Z"/>
    <path d="M114.45,120.82c.02-.17.12-.27.29-.29l-.04-.04c0,.2-.09.3-.29.29l.04.04Z"/>
    <path d="M114.15,121.11c0-.19.11-.28.29-.29l-.04-.04c.02.21-.07.31-.29.29l.03.03Z"/>
    <path d="M113.86,121.4c-.02-.22.1-.29.3-.29l-.03-.03c.03.22-.08.31-.29.3l.02.02Z"/>
    <path d="M115.33,121.41l.1-.15s-.02.05-.04.06c-.03.02-.07.03-.1.05,0,0,.04.04.04.04Z"/>
    <path d="M115.04,121.7c0-.19.13-.26.29-.29l-.04-.04c-.1.1-.19.2-.29.29l.04.04Z"/>
    <path d="M116.72,121.36c-.04.08-.08.15-.12.23-.03-.03-.06-.06-.1-.09.08-.03.17-.07.25-.1l-.04-.04Z"/>
    <path d="M114.73,121.98c-.01-.22.13-.27.31-.28l-.04-.04c-.04.15-.09.31-.3.29l.03.03Z"/>
    <path d="M110.64,122.24c.04.23-.09.29-.29.29l.04.04c-.04-.22.09-.29.28-.3l-.03-.03Z"/>
    <path d="M110.35,122.53c-.04.07-.07.13-.11.2-.13-.21.07-.13.14-.16l-.04-.04Z"/>
    <path d="M113.83,122.53c-.02.07-.05.14-.07.21-.04-.03-.07-.07-.11-.1.07-.02.14-.05.21-.07l-.03-.03Z"/>
    <path class="cls-7" d="M82.14,98.49c.03.39.06.63.05.86-.02.59-.07.65-.8,1.08-.13,1.12-.26,2.25-.4,3.44-.59.28-1.19.15-1.77.1-.29-.4-.15-.8-.17-1.17-.02-.43,0-.87,0-1.3,0-.38-.02-.75-.03-1.09-.39-.24-.7-.19-1.01-.02-.04.09-.11.17-.11.25-.03.48-.03.96-.07,1.44-.03.33-.12.65-.18.98-.14.79-.71,1.14-1.42,1.22-.57.07-1.16.07-1.73,0-.79-.12-1.41-.54-1.71-1.39-.17.18-.34.3-.43.46-.67,1.16-2.84,1.18-4.09.43-.35-.21-.55-.54-.65-.92-.11-.41-.17-.84-.28-1.37-.15.3-.23.54-.37.74-.38.54-.91.85-1.58.86-.38,0-.77,0-1.11,0-.12.11-.22.16-.24.24-.09.26,0,.59-.31.76q-.26.13-1.16,0c-.17-1.52,0-3.05.01-4.58,0-.32.18-.64.28-.98.44-.08.86-.17,1.28-.22.96-.11,1.81.18,2.56.76.51.4.84.92.93,1.6.03-.17.04-.35.1-.52.35-1.06,1.54-1.8,2.61-1.58.91.18,1.77.48,2.25,1.39.04.07.15.11.26.19.06-.33.12-.64.18-1.01.53-.14,1.03-.18,1.6.02.1.78.07,1.55.11,2.31.01.24,0,.49.1.7.06.15.25.29.41.35.21.08.4-.09.45-.27.1-.37.17-.75.19-1.13.03-.62,0-1.24,0-1.78.31-.41.67-.32,1-.32.34,0,.64.04.87-.33.09-.15.43-.19.65-.2,1.2-.02,2.41,0,3.76,0ZM70.23,100.25c-.42.26-.68.48-.75.83-.08.38-.1.77.1,1.12.12.22.32.39.57.35.17-.03.36-.14.46-.28.31-.42.37-.88.08-1.34-.12-.2-.26-.39-.45-.68ZM64.22,101c.04.06.1.28.23.35.34.17.85-.06.95-.42.04-.16,0-.41-.1-.53-.21-.24-.54-.2-.81-.12-.29.08-.27.35-.27.72Z"/>
    <path class="cls-7" d="M84.56,98.59c1.69-.08,1.76-.04,2.79,1.58.05-.53.09-.99.13-1.38.19-.26.39-.25.57-.21.32.08.64.17,1.01.27.18.89-.22,1.72-.18,2.58.04.81.12,1.62-.02,2.48-.48.18-.95.15-1.49.11-.39-.55-.8-1.13-1.26-1.77-.26.54-.12,1.03-.17,1.48-.04.31-.24.53-.57.55-.33.02-.66,0-.94,0-.08-.16-.16-.24-.17-.32-.01-.43-.11-.89,0-1.29.3-1.09.19-2.19.24-3.29.01-.23.02-.47.04-.79Z"/>
    <path class="cls-7" d="M92.87,100.61v1.18c-.13.08-.21.16-.29.17-.38.03-.77.03-1.15.09-.08.01-.15.21-.18.33-.01.06.1.2.16.2.66.06,1.32.1,1.97.15.19,1.43,0,1.65-1.27,1.44-.44-.07-.85-.1-1.29,0-.23.05-.48.06-.72.05-.41-.01-.63-.23-.66-.62,0-.14-.01-.29,0-.43.03-1.4.06-2.79.09-4.2.45-.4.98-.47,1.5-.34.68.17,1.34.09,1.99-.03.39.39.31.79.15,1.19-.1.06-.18.13-.27.14-.43.03-.87.04-1.3.07-.27.02-.45.24-.42.48.04.24.22.32.41.31.38-.03.76-.1,1.27-.17Z"/>
    <path class="cls-7" d="M82.63,98.79c.47-.33.96-.34,1.54-.18.1.6.17,1.21.02,1.74-.24.86-.19,1.71-.22,2.57,0,.14-.02.29-.04.43-.03.33-.22.53-.52.61-.18.05-.38.07-.57.08-.23.01-.5-.18-.54-.39-.04-.23-.11-.5-.05-.71.28-.9.18-1.81.2-2.72.01-.48-.07-.96.16-1.43Z"/>
    <g>
      <path class="cls-7" d="M158.46,101.94c-1.18.07-1.25.05-2.11-.28.02-.3.18-.38.46-.32.23.05.47.08.71.1.09,0,.18-.04.28-.06.23-.15.17-.43.25-.64.23-.62.1-.94-.75-.98-.32-.02-.68.1-1.03-.21.71-.3,1.47.04,2.14-.19l-.02-1.6c-.09,0-.2.01-.29,0-1.3-.02-2.61-.04-3.91-.06-.24,0-.51-.02-.71.08-.55.25-1.13.19-1.71.22-.43.02-.86,0-1.33.14-.02.59-.03,1.16-.05,1.73-.02.6.07,1.21-.11,1.95-.83-1.09-.99-2.31-1.51-3.44-.56-.14-1.06-.54-1.71-.62-.89,1.32-.83,3-1.74,4.25-.5.08-.97.16-1.41.23-.08-.13-.18-.2-.18-.28-.06-1.2-.07-2.4.18-3.59.02-.11-.07-.24-.13-.41-.63.16-1.22.31-1.81.46,0,1.03-.04,1.99-.39,2.99-.28-.67-.55-1.28-.77-1.9-.59-1.65-.22-1.52-2.22-1.52-.05,0-.09.02-.2.05-.74,1.64-1.19,3.4-1.6,5.18-.03.12.05.27.1.47.53.05,1.04.07,1.62.08.15-.37.29-.71.44-1.11h.85c.11.35.21.71.33,1.1.63,0,1.21.06,1.77-.02.52-.07,1.04-.23,1.57-.14.57.09,1.13.32,1.7.05.57-.27,1.09.38,1.68.06.04-.14.09-.27.11-.41.04-.29.22-.42.48-.43.29-.02.53,0,.69.35.26.57.39.63.86.5.99-.27,1.98-.35,2.96,0,.46-.57.01-1.27.38-1.9.42-.13.9,0,1.37-.07.13-.02.25-.11.37-.16.06-.4.19-.78-.01-1.14-.59-.32-1.27.09-1.83-.26.08-.58.16-.69.51-.72.62-.06,1.26.09,1.97-.22.11.69.08,1.36.1,2.02.02.71-.13,1.43.06,2.08.13.07.17.11.21.11,1.13.05,2.26.17,3.38.16l-.02-1.67ZM139.36,101.16c-.13,0-.27-.05-.44-.08.1-.24.19-.46.27-.65.26-.08.36.09.43.25.13.29.04.46-.26.48ZM147.37,101.31c.08-.28.17-.58.29-1.01.18.41.31.7.43.97-.25.22-.46.23-.72.04Z"/>
      <path class="cls-7" d="M161.12,101.86c-.33-.8-.43-1.55-.37-2.34.03-.43.02-.87,0-1.3,0-.17-.1-.34-.17-.56-.6.2-1.16.37-1.71.12v1.48c.22.88.22,1.46.01,2.58,0,0,0,0-.01,0v1.68c.14,0,.29,0,.43-.01.96-.06,1.92.01,2.87-.13.08-.01.15-.1.25-.17.06-.36.13-.73.21-1.17-.52-.06-1.04-.13-1.51-.19Z"/>
    </g>
    <path class="cls-3" d="M150.9,83.22s-4.27-2.69-7.12-4.9-7.91-6.96-7.91-6.96c0,0-2.85-3.16-6.01-4.27s-8.54-2.69-12.18-2.85-5.06-.63-10.12-.32-10.22,1.11-12.07,2.14-13.55,7.98-15.29,11.94-5.06,5.69-5.22,6.8,2.21,2.85,4.9,2.69,7.59.32,9.17-.47-.32,2.85,2.37-2.69,12.02-11.54,14.71-12.02c2.69-.47,11.7-.47,12.81-.16,1.11.32,4.59,1.9,5.38,2.69s3.64,4.74,4.27,6.64,1.9,5.22,3.79,5.53,3.48.95,6.32.32,3.79-1.26,5.06-1.26,1.11.47,3.48,0c2.37-.47,5.38-.16,5.06-1.11s-1.42-1.74-1.42-1.74Z"/>
    <path class="cls-12" d="M144.89,64.4s-6.32-6.96-9.01-7.91c-2.69-.95-5.69-1.9-6.8-2.06s-1.58-.47-2.37-.32-2.06,2.37-.47,3.48,2.37,1.74,5.22,3,3.48,1.26,5.53,2.69,3.79,2.53,4.43,3.32,1.11,3,2.37,2.21,1.11-4.43,1.11-4.43Z"/>
    <path class="cls-12" d="M107.89,52.07s-5.06-.47-7.12.16-9.96,4.43-10.44,4.59-6.01,3.79-6.8,4.43-2.85,2.37-4.11,3.79-2.85,1.42-4.11,5.69c-1.26,4.27-2.06,5.85-1.74,6.8s3.16,3.16,4.27.79.47-4.59,3.95-7.43,5.53-4.59,7.59-5.69c2.06-1.11,5.06-2.85,6.96-4.11s6.51-3.74,8.87-5.19,2.51-1.14,4.25-2.4-.16-1.26-1.58-1.42Z"/>
    <path d="M97.14,70.66c.24,1.24,1.13,2.2,1.1,3.47-.21.1-.37.23-.55.26-1.05.2-2.01.63-2.93,1.17-.08.05-.18.07-.27.1-.34.11-.71-.03-.84-.38-.23-.63-.49-1.26-.6-1.92-.13-.77-.39-1.48-.71-2.18-.22-.48-.41-.97-.6-1.47-.68-1.75-1.36-3.49-2.03-5.24-.21-.54-.38-1.09-.55-1.64-.09-.27-.15-.55-.21-.83-.1-.48.07-.92.5-1.1,1.18-.52,2.14-1.48,3.46-1.73.23-.04.45-.16.67-.26.98-.43,2-.68,3.08-.68.33,0,.66-.13,1-.14,1.65-.03,3.15.35,4.25,1.7.24.3.45.63.6.98.39.93.82,1.86,1.08,2.83.5,1.89.16,3.6-1.28,5.04-1.15,1.15-2.51,1.74-4.12,1.8-.33.01-.68-.04-1.05.21ZM96.11,67.27c.95-.14,1.75-.54,2.48-1.08.1-.08.18-.23.21-.36.22-1.13-.27-2.1-1.27-2.62-.82-.42-1.67-.34-2.52-.18-.1.02-.2.2-.24.32-.04.13-.04.29,0,.42.41,1.16.77,2.34,1.33,3.5Z"/>
    <path d="M140.09,66.89c-2.78-.13-2.46-.17-4.11.42-.35-.19-.33-.57-.44-.88-.28-.78-.84-1.28-1.61-1.56-.27-.1-.55-.19-.83-.25-.71-.17-.99-.02-1.51.81.3.59.78,1.06,1.36,1.42.57.36,1.17.66,1.75,1.01.87.52,1.7,1.09,2.31,1.94.38.53.57,1.09.62,1.74.08.98-.12,1.92-.36,2.85-.06.22-.22.43-.37.61-.35.41-.8.7-1.33.83-1.97.49-3.95.83-5.99.36-.68-.16-1.26-.48-1.82-.83-.45-.28-.86-.62-1.27-.95-1.29-1.03-2.09-2.36-2.36-4.04.72-.8,1.61-1.33,2.54-1.82.48.32.57.83.79,1.25.57,1.12,1.48,1.89,2.52,2.53.8.49,1.67.44,2.52.24.28-.07.5-.41.71-.58-.04-.71-.32-1.19-.82-1.55-.42-.32-.84-.65-1.27-.95-.28-.19-.57-.36-.88-.5-1.23-.59-2.02-1.64-2.72-2.72-.5-.78-.56-1.74-.58-2.65,0-.35.18-.78.42-1.05.6-.69,1.23-1.37,1.93-1.95.51-.42,1.14-.73,1.85-.74.19,0,.39-.03.57-.08,1.16-.36,2.2.03,3.19.54.68.35,1.3.84,1.93,1.27.85.58,1.51,1.33,2.01,2.24.4.71.84,1.4,1.25,2.11.14.25.22.53,0,.92Z"/>
    <path d="M115.15,57.69c.53-.38,1.06-.45,1.59-.32,1.1.28,2.19.26,3.28-.03.14-.04.29-.01.43-.02.26,0,.47.27.37.48-.08.17-.18.34-.27.51-.74,1.41-1.52,2.79-2.2,4.22-1.15,2.38-2.25,4.79-3.33,7.2-.27.61-.41,1.27-.63,1.95-1.55.35-3.11.47-4.67.37-.45-.54-.59-1.16-.74-1.75-.46-1.81-.93-3.62-1.52-5.4-.28-.86-.44-1.77-.67-2.65-.38-1.44-.78-2.87-1.17-4.31-.04-.14-.12-.3-.08-.42.05-.17.15-.39.29-.44.31-.12.65-.15.98-.2,1.14-.17,2.28-.35,3.42-.47.65-.07.9.09,1.07.72.22.83.37,1.69.51,2.54.23,1.42.44,2.85.66,4.27.03.17.21.31.29.24.06-.06.16-.12.18-.19.25-.78.5-1.56.73-2.34.21-.69.43-1.37.74-2.03.28-.61.49-1.25.75-1.94Z"/>
    <path d="M123.08,59.38c-.38-.05-.67-.08-.94-.14-.32-.07-.51-.34-.44-.63.23-.88.47-1.76.71-2.65.15-.04.31-.13.41-.09.84.3,1.7.3,2.57.27.14,0,.29.02.41.03.3.23.27.54.17.8-.43,1.07-.82,2.16-1.36,3.18-.53.99-1.36,1.75-2.4,2.21-.22.1-.45.15-.69.19-.23.05-.48-.13-.55-.37-.14-.42-.19-.83-.03-1.24.11-.06.19-.13.28-.14q1.26-.14,1.88-1.43Z"/>
    <path class="cls-9" d="M96.53,69.45c.24,1.24,1.13,2.2,1.1,3.47-.21.1-.37.23-.55.26-1.05.2-2.01.63-2.93,1.17-.08.05-.18.07-.27.1-.34.11-.71-.03-.84-.38-.23-.63-.49-1.26-.6-1.92-.13-.77-.39-1.48-.71-2.18-.22-.48-.41-.97-.6-1.47-.68-1.75-1.36-3.49-2.03-5.24-.21-.54-.38-1.09-.55-1.64-.09-.27-.15-.55-.21-.83-.1-.48.07-.92.5-1.1,1.18-.52,2.14-1.48,3.46-1.73.23-.04.45-.16.67-.26.98-.43,2-.68,3.08-.68.33,0,.66-.13,1-.14,1.65-.03,3.15.35,4.25,1.7.24.3.45.63.6.98.39.93.82,1.86,1.08,2.83.5,1.89.16,3.6-1.28,5.04-1.15,1.15-2.51,1.74-4.12,1.8-.33.01-.68-.04-1.05.21ZM95.51,66.06c.95-.14,1.75-.54,2.48-1.08.1-.08.18-.23.21-.36.22-1.13-.27-2.1-1.27-2.62-.82-.42-1.67-.34-2.52-.18-.1.02-.2.2-.24.32-.04.13-.04.29,0,.42.41,1.16.77,2.34,1.33,3.5Z"/>
    <path class="cls-9" d="M139.48,65.68c-2.78-.13-2.46-.17-4.11.42-.35-.19-.33-.57-.44-.88-.28-.78-.84-1.28-1.61-1.56-.27-.1-.55-.19-.83-.25-.71-.17-.99-.02-1.51.81.3.59.78,1.06,1.36,1.42.57.36,1.17.66,1.75,1.01.87.52,1.7,1.09,2.31,1.94.38.53.57,1.09.62,1.74.08.98-.12,1.92-.36,2.85-.06.22-.22.43-.37.61-.35.41-.8.7-1.33.83-1.97.49-3.95.83-5.99.36-.68-.16-1.26-.48-1.82-.83-.45-.28-.86-.62-1.27-.95-1.29-1.03-2.09-2.36-2.36-4.04.72-.8,1.61-1.33,2.54-1.82.48.32.57.83.79,1.25.57,1.12,1.48,1.89,2.52,2.53.8.49,1.67.44,2.52.24.28-.07.5-.41.71-.58-.04-.71-.32-1.19-.82-1.55-.42-.32-.84-.65-1.27-.95-.28-.19-.57-.36-.88-.5-1.23-.59-2.02-1.64-2.72-2.72-.5-.78-.56-1.74-.58-2.65,0-.35.18-.78.42-1.05.6-.69,1.23-1.37,1.93-1.95.51-.42,1.14-.73,1.85-.74.19,0,.39-.03.57-.08,1.16-.36,2.2.03,3.19.54.68.35,1.3.84,1.93,1.27.85.58,1.51,1.33,2.01,2.24.4.71.84,1.4,1.25,2.11.14.25.22.53,0,.92Z"/>
    <path class="cls-9" d="M114.54,56.48c.53-.38,1.06-.45,1.59-.32,1.1.28,2.19.26,3.28-.03.14-.04.29-.01.43-.02.26,0,.47.27.37.48-.08.17-.18.34-.27.51-.74,1.41-1.52,2.79-2.2,4.22-1.15,2.38-2.25,4.79-3.33,7.2-.27.61-.41,1.27-.63,1.95-1.55.35-3.11.47-4.67.37-.45-.54-.59-1.16-.74-1.75-.46-1.81-.93-3.62-1.52-5.4-.28-.86-.44-1.77-.67-2.65-.38-1.44-.78-2.87-1.17-4.31-.04-.14-.12-.3-.08-.42.05-.17.15-.39.29-.44.31-.12.65-.15.98-.2,1.14-.17,2.28-.35,3.42-.47.65-.07.9.09,1.07.72.22.83.37,1.69.51,2.54.23,1.42.44,2.85.66,4.27.03.17.21.31.29.24.06-.06.16-.12.18-.19.25-.78.5-1.56.73-2.34.21-.69.43-1.37.74-2.03.28-.61.49-1.25.75-1.94Z"/>
    <path class="cls-9" d="M122.47,58.17c-.38-.05-.67-.08-.94-.14-.32-.07-.51-.34-.44-.63.23-.88.47-1.76.71-2.65.15-.04.31-.13.41-.09.84.3,1.7.3,2.57.27.14,0,.29.02.41.03.3.23.27.54.17.8-.43,1.07-.82,2.16-1.36,3.18-.53.99-1.36,1.75-2.4,2.21-.22.1-.45.15-.69.19-.23.05-.48-.13-.55-.37-.14-.42-.19-.83-.03-1.24.11-.06.19-.13.28-.14q1.26-.14,1.88-1.43Z"/>
    <path class="cls-3" d="M71.68,116.58s16.92-.63,18.34-.32,1.9.63,2.69,1.9,2.21,3.79,3.48,5.06,5.22,4.59,5.85,4.9,3.48,2.06,4.59,2.21,5.38.79,7.43.32c2.06-.47,5.53-1.26,7.43-2.21s4.59-2.21,6.48-3.95,6.01-4.59,6.8-5.53.95-3.48,1.74-3.48,16.13-1.11,17.23-.47,1.58,2.37,1.42,3,1.9.79-.95,1.42c-2.85.63-1.74.79-5.22.95s-4.74.32-5.69.95-7.27,6.96-8.22,7.75-8.7,9.01-11.23,9.65-6.64,1.58-10.75,1.26c-4.11-.32-14.11-1.94-16.15-2.87s-4.72-2.71-6.38-3.64-3.88-2.83-6.25-4.41c-2.37-1.58-6.17-2.69-6.96-3s-1.58-.47-2.37-.79-1.9-.47-2.69-1.9-1.58-2.21-1.58-3.32.32-3.64.95-3.48Z"/>
    <path d="M83.28,130.05c-1.23.36-1.61,1.44-2.35,2.02-.17-.07-.28-.09-.33-.15-.7-.79-1.39-1.58-2.13-2.42.18-.22.31-.41.46-.58,1.34-1.53,2.94-2.78,4.46-4.12,1.55-1.37,3.03-2.82,4.62-4.3.13.06.35.14.54.26.8.54,1.57,1.1,2.14,1.91.33.47.81.82,1.22,1.23.59.58,1.07,1.22,1.46,1.96.56,1.05.58,2.1.26,3.21-.34,1.18-.94,2.22-1.63,3.2-.36.52-.84.93-1.42,1.2-.39.19-.79.37-1.17.57-.85.45-1.77.44-2.68.35-.49-.05-.91-.3-1.27-.63-.72-.66-1.32-1.4-1.65-2.34-.16-.45-.34-.89-.53-1.38ZM89.47,128.6c-.2-.43-.38-.87-.62-1.29-.11-.2-.3-.37-.48-.53-.28-.24-.62-.23-.91.01-.26.22-.49.47-.75.68-.62.51-.62.8,0,1.41.4.41.82.82,1.44.82.52-.2,1.01-.4,1.33-1.11Z"/>
    <path d="M115.14,147.16c-.37-.97-.39-1.83-.25-2.77.21-1.32.48-2.65.44-4.01-.01-.47.12-.95.15-1.43.06-.86.12-1.73.14-2.6.03-1.06-.08-2.12.41-3.24.1-.02.33-.08.55-.08,1.15-.01,2.31,0,3.49,0,.08.09.22.18.26.3.45,1.36,1.28,2.48,2.18,3.55,1.8,2.13,3.36,4.42,4.91,6.79-1.47,1.25-3.27,1.65-4.96,2.25-.44-.12-.66-.41-.78-.8-.14-.45-.29-.9-.45-1.4-.64.15-1.23.28-1.88.43-.01.56-.02,1.09-.04,1.61-.01.49-.23.8-.72.95-1.11.35-2.22.64-3.47.46ZM119.16,137.68c-.12.18-.33.36-.35.56-.07.84-.26,1.7.11,2.58.76-.13,1.46-.25,2.23-.39-.53-.84-1.01-1.6-1.5-2.36-.08-.12-.19-.21-.29-.31-.03-.03-.09-.04-.2-.08Z"/>
    <path d="M148.63,128.01c-.26.54-.69.85-1.1,1.17-.77.59-1.57,1.12-2.3,1.75-.91.79-1.76,1.65-2.6,2.51-.22.23-.34.57-.51.85-.08.14-.39.22-.51.13-.16-.11-.32-.22-.45-.35-.56-.53-1.15-1.04-1.66-1.62-1.06-1.2-2.32-2.17-3.54-3.19-.89-.74-1.76-1.5-2.74-2.11-.33-.21-.58-.5-.68-.9,1.14-1.17,2.04-2.53,3.11-3.76,1.04-1.2,2.07-2.4,3.17-3.67.12-.04.28.06.4.22.51.63,1.02,1.27,1.52,1.92.18.23.13.56-.09.79-.81.89-1.63,1.77-2.43,2.67-.22.24-.52.44-.55.83.21.35.51.54,1.05.49.3-.33.65-.72,1-1.12.25-.29.46-.63.73-.89.31-.3.68-.53,1.08-.83.93.48,1.77,1.12,2.65,1.69.18.12.22.49.09.66-.18.22-.37.44-.58.64-.58.58-1.18,1.14-1.76,1.72-.37.37-.7.78-1.11,1.24.39.22.71.41,1.04.6.52-.29.78-.75,1.08-1.18.73-1.03,1.61-1.92,2.63-2.66.33-.23.64-.16.86.18.08.12.15.25.21.38.31.69.81,1.19,1.49,1.51.16.08.3.2.51.35Z"/>
    <path d="M96.86,128.7c.93.79,1.82,1.43,2.91,1.77.14.04.26.13.39.18.48.19.62.57.61,1.04,0,.1.01.2-.02.29-.37.98-.25,2-.27,3.01,0,.14.02.3-.02.43-.24,1.05-.2,2.09-.03,3.14.02.14.02.29,0,.43-.32,1.43-.23,2.88-.19,4.32,0,.18-.05.37-.07.52-.4.29-.79.19-1.16.13-.28-.05-.55-.17-.82-.26-1.05-.35-2.08-.79-3.11-.54-.33-.26-.33-.51-.29-.75.14-.75.3-1.51.47-2.33-.48-.24-.98-.5-1.5-.76-.76.73-1.54,1.38-2,2.37-.26-.1-.45-.13-.59-.23-.82-.59-1.64-1.19-2.43-1.82-.57-.46-.57-.75-.06-1.32.35-.4.7-.8,1.1-1.15,1.22-1.05,2.19-2.31,3.16-3.57.68-.88,1.36-1.75,2.1-2.58.64-.72,1.19-1.5,1.84-2.32ZM94.98,136.61c.24.64.77.85,1.34,1,.2.05.63-.27.64-.49.04-.72.06-1.44.07-2.16,0-.13-.31-.33-.45-.27-.21.09-.46.18-.61.34-.42.46-.72,1.01-1,1.58Z"/>
    <path d="M135.58,138.94c-.25.26-.39.46-.57.6-.31.23-.64.42-.98.61-.69.37-1.27.85-1.78,1.45-.53.64-.89.56-1.31-.18-.36-.63-.67-1.28-1.05-1.89-.94-1.51-1.9-3.01-2.86-4.52-.05-.07-.16-.1-.29-.17-.59.46-1.19.94-1.8,1.4-.46.36-.77.35-1.12-.08-.45-.56-.88-1.15-1.3-1.74-.37-.51-.71-1.03-1.07-1.55.02-.27.22-.41.43-.5.86-.34,1.6-.87,2.37-1.37,1.17-.76,2.37-1.48,3.57-2.2.45-.27.94-.5,1.4-.75.84-.46,1.67-.93,2.52-1.4.12.13.26.21.31.33.1.27.19.55.22.83.09.79.38,1.49.89,2.09.05.06.04.18.07.35-.32.15-.67.31-1,.48-.29.16-.57.35-.92.56,1.14,2.72,2.25,5.41,4.27,7.65Z"/>
    <path d="M105.97,136.83c-1.17-.23-2.23.07-3.24-.11-.3-1.21-.31-2.32-.05-3.59.17-.2.42-.21.66-.21,1.16,0,2.31.09,3.42.45.61.2,1.22.25,1.85.23,1.01-.02,2.01-.06,3.01.19.5.13,1.05.07,1.58.12.41.04.63.27.61.66-.02.43-.07.86-.11,1.29-.02.24-.07.48-.07.71,0,1.07-.03,1.11-1.09,1.08-.67-.02-1.34-.09-2.13-.14-.12.05-.25.23-.28.49-.11.95-.38,1.88-.3,2.86.03.28.02.6-.08.86-.36.93-.26,1.9-.31,2.86-.02.48-.12.95-.2,1.42-.05.29-.32.52-.6.52-.19,0-.38-.02-.57-.07-.93-.22-1.84-.49-2.78-.45-.24-.93-.23-1.85-.05-2.75.1-.51.22-1.04.21-1.56-.04-1.36.29-2.68.33-4.02,0-.23.1-.46.18-.83Z"/>
    <path class="cls-7" d="M89.47,128.6c-.31.71-.8.91-1.33,1.11-.62,0-1.03-.41-1.44-.82-.61-.62-.61-.91,0-1.41.26-.21.49-.46.75-.68.29-.25.64-.26.91-.01.18.16.37.33.48.53.23.42.41.86.62,1.29Z"/>
    <path class="cls-7" d="M119.16,137.68c.11.04.16.05.2.08.1.1.22.19.29.31.49.76.97,1.52,1.5,2.36-.77.13-1.47.26-2.23.39-.37-.89-.18-1.74-.11-2.58.02-.2.23-.38.35-.56Z"/>
    <path class="cls-7" d="M94.98,136.61c.27-.57.58-1.11,1-1.58.15-.16.4-.25.61-.34.13-.06.45.14.45.27-.02.72-.03,1.44-.07,2.16-.01.22-.45.54-.64.49-.57-.15-1.09-.36-1.34-1Z"/>
    <path class="cls-9" d="M83.28,128.84c-1.23.36-1.61,1.44-2.35,2.02-.17-.07-.28-.09-.33-.15-.7-.79-1.39-1.58-2.13-2.42.18-.22.31-.41.46-.58,1.34-1.53,2.94-2.78,4.46-4.12,1.55-1.37,3.03-2.82,4.62-4.3.13.06.35.14.54.26.8.54,1.57,1.1,2.14,1.91.33.47.81.82,1.22,1.23.59.58,1.07,1.22,1.46,1.96.56,1.05.58,2.1.26,3.21-.34,1.18-.94,2.22-1.63,3.2-.36.52-.84.93-1.42,1.2-.39.19-.79.37-1.17.57-.85.45-1.77.44-2.68.35-.49-.05-.91-.3-1.27-.63-.72-.66-1.32-1.4-1.65-2.34-.16-.45-.34-.89-.53-1.38ZM89.47,127.39c-.2-.43-.38-.87-.62-1.29-.11-.2-.3-.37-.48-.53-.28-.24-.62-.23-.91.01-.26.22-.49.47-.75.68-.62.51-.62.8,0,1.41.4.41.82.82,1.44.82.52-.2,1.01-.4,1.33-1.11Z"/>
    <path class="cls-9" d="M115.14,145.95c-.37-.97-.39-1.83-.25-2.77.21-1.32.48-2.65.44-4.01-.01-.47.12-.95.15-1.43.06-.86.12-1.73.14-2.6.03-1.06-.08-2.12.41-3.24.1-.02.33-.08.55-.08,1.15-.01,2.31,0,3.49,0,.08.09.22.18.26.3.45,1.36,1.28,2.48,2.18,3.55,1.8,2.13,3.36,4.42,4.91,6.79-1.47,1.25-3.27,1.65-4.96,2.25-.44-.12-.66-.41-.78-.8-.14-.45-.29-.9-.45-1.4-.64.15-1.23.28-1.88.43-.01.56-.02,1.09-.04,1.61-.01.49-.23.8-.72.95-1.11.35-2.22.64-3.47.46ZM119.16,136.47c-.12.18-.33.36-.35.56-.07.84-.26,1.7.11,2.58.76-.13,1.46-.25,2.23-.39-.53-.84-1.01-1.6-1.5-2.36-.08-.12-.19-.21-.29-.31-.03-.03-.09-.04-.2-.08Z"/>
    <path class="cls-9" d="M148.63,126.8c-.26.54-.69.85-1.1,1.17-.77.59-1.57,1.12-2.3,1.75-.91.79-1.76,1.65-2.6,2.51-.22.23-.34.57-.51.85-.08.14-.39.22-.51.13-.16-.11-.32-.22-.45-.35-.56-.53-1.15-1.04-1.66-1.62-1.06-1.2-2.32-2.17-3.54-3.19-.89-.74-1.76-1.5-2.74-2.11-.33-.21-.58-.5-.68-.9,1.14-1.17,2.04-2.53,3.11-3.76,1.04-1.2,2.07-2.4,3.17-3.67.12-.04.28.06.4.22.51.63,1.02,1.27,1.52,1.92.18.23.13.56-.09.79-.81.89-1.63,1.77-2.43,2.67-.22.24-.52.44-.55.83.21.35.51.54,1.05.49.3-.33.65-.72,1-1.12.25-.29.46-.63.73-.89.31-.3.68-.53,1.08-.83.93.48,1.77,1.12,2.65,1.69.18.12.22.49.09.66-.18.22-.37.44-.58.64-.58.58-1.18,1.14-1.76,1.72-.37.37-.7.78-1.11,1.24.39.22.71.41,1.04.6.52-.29.78-.75,1.08-1.18.73-1.03,1.61-1.92,2.63-2.66.33-.23.64-.16.86.18.08.12.15.25.21.38.31.69.81,1.19,1.49,1.51.16.08.3.2.51.35Z"/>
    <path class="cls-9" d="M96.86,127.49c.93.79,1.82,1.43,2.91,1.77.14.04.26.13.39.18.48.19.62.57.61,1.04,0,.1.01.2-.02.29-.37.98-.25,2-.27,3.01,0,.14.02.3-.02.43-.24,1.05-.2,2.09-.03,3.14.02.14.02.29,0,.43-.32,1.43-.23,2.88-.19,4.32,0,.18-.05.37-.07.52-.4.29-.79.19-1.16.13-.28-.05-.55-.17-.82-.26-1.05-.35-2.08-.79-3.11-.54-.33-.26-.33-.51-.29-.75.14-.75.3-1.51.47-2.33-.48-.24-.98-.5-1.5-.76-.76.73-1.54,1.38-2,2.37-.26-.1-.45-.13-.59-.23-.82-.59-1.64-1.19-2.43-1.82-.57-.46-.57-.75-.06-1.32.35-.4.7-.8,1.1-1.15,1.22-1.05,2.19-2.31,3.16-3.57.68-.88,1.36-1.75,2.1-2.58.64-.72,1.19-1.5,1.84-2.32ZM94.98,135.4c.24.64.77.85,1.34,1,.2.05.63-.27.64-.49.04-.72.06-1.44.07-2.16,0-.13-.31-.33-.45-.27-.21.09-.46.18-.61.34-.42.46-.72,1.01-1,1.58Z"/>
    <path class="cls-9" d="M135.58,137.73c-.25.26-.39.46-.57.6-.31.23-.64.42-.98.61-.69.37-1.27.85-1.78,1.45-.53.64-.89.56-1.31-.18-.36-.63-.67-1.28-1.05-1.89-.94-1.51-1.9-3.01-2.86-4.52-.05-.07-.16-.1-.29-.17-.59.46-1.19.94-1.8,1.4-.46.36-.77.35-1.12-.08-.45-.56-.88-1.15-1.3-1.74-.37-.51-.71-1.03-1.07-1.55.02-.27.22-.41.43-.5.86-.34,1.6-.87,2.37-1.37,1.17-.76,2.37-1.48,3.57-2.2.45-.27.94-.5,1.4-.75.84-.46,1.67-.93,2.52-1.4.12.13.26.21.31.33.1.27.19.55.22.83.09.79.38,1.49.89,2.09.05.06.04.18.07.35-.32.15-.67.31-1,.48-.29.16-.57.35-.92.56,1.14,2.72,2.25,5.41,4.27,7.65Z"/>
    <path class="cls-9" d="M105.97,135.62c-1.17-.23-2.23.07-3.24-.11-.3-1.21-.31-2.32-.05-3.59.17-.2.42-.21.66-.21,1.16,0,2.31.09,3.42.45.61.2,1.22.25,1.85.23,1.01-.02,2.01-.06,3.01.19.5.13,1.05.07,1.58.12.41.04.63.27.61.66-.02.43-.07.86-.11,1.29-.02.24-.07.48-.07.71,0,1.07-.03,1.11-1.09,1.08-.67-.02-1.34-.09-2.13-.14-.12.05-.25.23-.28.49-.11.95-.38,1.88-.3,2.86.03.28.02.6-.08.86-.36.93-.26,1.9-.31,2.86-.02.48-.12.95-.2,1.42-.05.29-.32.52-.6.52-.19,0-.38-.02-.57-.07-.93-.22-1.84-.49-2.78-.45-.24-.93-.23-1.85-.05-2.75.1-.51.22-1.04.21-1.56-.04-1.36.29-2.68.33-4.02,0-.23.1-.46.18-.83Z"/>
    <path d="M146.19,115.32c-.3.16-.61.32-.9,0-.22-.25-.25-.77-.07-1.08.39-.67,1.23-1.06,1.95-.9.47.1.85.53.89,1.01.07.86-.15,1.61-.8,2.21.31.38.8.6.69,1.22-.13.07-.29.2-.46.25-.66.19-1.33.18-1.99.04-.68-.14-.9-.97-.4-1.46.31-.3.69-.52,1-.82.12-.11.13-.33.19-.5.07-.03.21-.05.21-.09"/>
    <path d="M142.72,117.9c-.76-.03-1.13-.3-1.33-.88-.08-.22-.15-.45-.21-.68-.21-.75-.02-1.39.42-2.02.56-.79,1.33-.83,2.17-.73.09.01.18.07.26.12.53.34.94,1.26.79,1.87-.1.41-.25.82-.41,1.22-.34.82-1.03,1.08-1.68,1.11ZM142.28,115.88c.01.22.02.36.03.5.01.22.15.35.34.39.2.05.39-.04.46-.23.12-.31.22-.62.26-.95.04-.31.14-.68-.26-.87-.26-.13-.61.18-.75.67-.05.18-.07.37-.09.48Z"/>
    <path d="M139.95,116.4c.32.08.5.13.69.18.21.18.18.42.16.66-.03.33-.26.56-.55.58-.67.05-1.34.05-2.01.04-.21,0-.33-.2-.35-.39-.06-.41.07-.77.41-1.02.19-.14.42-.23.61-.37.23-.17.44-.37.63-.58.17-.18.14-.5-.02-.65-.22-.19-.54-.12-.7.18-.07.12-.09.27-.16.45-.18-.11-.36-.17-.49-.29-.28-.28-.32-.61-.14-.91.27-.44.63-.73,1.15-.75.29-.01.58,0,.86.02.44.05.67.28.73.75.04.33.03.67.05,1.05-.26.31-.53.64-.88,1.05Z"/>
    <path d="M151.47,114.75c-.17-.86-.7-1.18-1.45-1.22-.14,0-.29,0-.43,0-.69.05-1.03.48-.9,1.14.27-.11.83-.3,1.11-.08.39.3.5.74.36.77-.12.02-1.01-.08-1.39-.13,0,.07-.02.13-.05.21-.19.51-.04.69.5.75.19.02.39-.02.57.04.09.03.16.19.2.31.01.04-.12.17-.18.17-.42.02-.85,0-1.29,0-.22.45-.2.75.03.95.16.14.41.23.63.25.43.04.85.03,1.27-.15.54-.24.86-.61.83-1.21-.01-.27-.12-.54-.2-.89.12-.27.27-.62.39-.91Z"/>
    <path d="M76.94,116.66c.62.01,1.04,0,1.46.04.12.01.32.12.34.21.03.17,0,.4-.09.53-.53.7-2.3.69-2.82-.18-.1-.16-.22-.34-.24-.52-.21-1.55.58-2.72,2.14-3.09.4-.09,1.08.25,1.24.58.25.53.08,1.27-.4,1.54-.33.18-.72.26-1.06.42-.16.07-.28.22-.56.45ZM77.42,114.77c-.1.09-.23.16-.3.28-.18.3-.14.71.05.76.2.06.63-.17.69-.41.08-.33-.1-.54-.44-.63Z"/>
    <path d="M81.04,116.58c-.39-.26-.75-.48-1.08-.74-.43-.35-.46-.86-.11-1.26.51-.59,1.14-.85,1.93-.71.31.05.52.24.68.49.15.23.1.6-.09.8-.24.24-.63.25-.89,0-.06-.06-.07-.21-.13-.24-.11-.06-.29-.12-.36-.06-.08.06-.13.29-.08.36.24.29.53.55.8.82.2.2.43.38.62.59.26.3.23.61-.07.89-.17.16-.38.36-.59.38-.57.05-1.15.05-1.72-.01-.19-.02-.38-.27-.51-.45-.17-.26.03-.6.33-.64.4-.05.84.17,1.28-.18Z"/>
    <path d="M84.38,116.55c.11.05.23.09.35.15.12.06.24.12.35.17.08.35,0,.62-.26.79-.19.12-.43.22-.65.23-.47.03-.91-.34-1.01-.85-.1-.52-.1-1.05.11-1.6-.12-.16-.3-.33-.39-.53-.07-.16-.12-.42-.04-.54.36-.55.77-1.08,1.16-1.61.1-.14.42-.05.47.13.03.09.05.19.05.28,0,.36.06.66.51.7.27.02.39.25.5.46.1.19.09.43-.09.51-.76.31-1.05.9-1.07,1.71Z"/>
    <path class="cls-3" d="M99.83,148.84s4.74.47,9.17.63,10.91.16,12.18-.32,7.59-2.37,8.38-2.69,7.43-3.48,8.22-4.27,2.37-2.69,3.64-2.85,1.74.47,1.74,1.26-2.06,3.95-3.16,4.43c-1.11.47-5.53,4.9-8.06,5.22s-11.54,3-13.12,3.16-3.95.63-6.01.63-1.58.95-3.48,0-3-1.42-4.11-2.21-2.85-1.11-3.95-1.42-2.21-1.11-1.42-1.58Z"/>
    <path class="cls-10" d="M116.11,80.21c.47.79,2.37,1.26.47,2.85s-2.53.95-3.16,1.9-.79,2.06-1.42,2.53-.79,1.26-2.53,1.42c-1.74.16-2.53.79-2.69,1.26s-.32,1.74-.63,2.69-.63,1.74-2.21,2.21-2.06.79-2.37,1.58-.47,1.58-1.26,2.06-3.04.04-2.53-1.42-2.06-17.71,17.71-17.39"/>
    <path class="cls-8" d="M112.64,81.54c.34.53,1.71.84.34,1.89s-1.83.63-2.28,1.26-.57,1.37-1.03,1.68-.57.84-1.83.95-1.83.53-1.94.84-.23,1.16-.46,1.79-.46,1.16-1.6,1.47c-1.14.32-1.48.53-1.71,1.05s-.34,1.05-.91,1.37-2.2.03-1.83-.95-1.48-11.79,12.78-11.58"/>
    <path class="cls-2" d="M105.68,82.59s-3.95,1.58-4.11,2.69-.79,2.06.16,1.74,1.58-1.42,2.37-2.06,2.37-1.42,2.37-1.42l-.79-.95Z"/>
  </g>
</svg>