<?xml version="1.0" encoding="UTF-8"?>
<svg id="Layer_1" data-name="Layer 1" xmlns="http://www.w3.org/2000/svg" viewBox="0 0 180 200">
  <defs>
    <style>
      .cls-1, .cls-2 {
        fill-rule: evenodd;
      }

      .cls-1, .cls-3 {
        fill: #231f20;
      }

      .cls-4 {
        fill: #fff;
      }

      .cls-2 {
        fill: #ffda40;
      }

      .cls-3 {
        font-family: AmericanTypewriter-Bold, 'American Typewriter';
        font-size: 20.52px;
        font-weight: 700;
      }
    </style>
  </defs>
  <g>
    <path class="cls-4" d="M51.98,75.19c.14,1.21,0,9.48,0,10.37s-.3,3.26-.3,6.52,0,7.7-.3,10.37-.3,18.07-.3,20.14.3,5.92.3,7.4v4.74s.3,1.18,1.18,1.78.89,1.18,2.67,1.18h8c.89,0,53.31,1.18,56.86,1.18h25.47c2.37,0,22.21,0,24.58-.3s5.92-1.18,6.22-4.74-.3-18.07-.3-18.07c0,0-.89-18.07-.89-18.95s-1.18-14.22-1.18-17.77-.89-7.4-.89-7.4c0,0-1.48-1.78-4.44-1.78s-6.22-.3-9.48,0c-3.26.3-30.51.3-33.47,0s-21.92.59-24.58.59h-27.25c-2.96,0-13.33.89-13.33.89,0,0-9.18-1.18-8.59,3.85Z"/>
    <path d="M120.68,96.97c-2.47-.3-1.86-.45-1.53-2.27.15-.84.43-1.66.68-2.61.97-.18,1.93-.45,2.9-.52,1.57-.12,2.23.93,1.56,2.37-.19.41-.41.79-.64,1.24,1.28.51,2.38.37,3.25-.63.77-.88,1.45-1.83,2.19-2.76,1.39.38,1.65.75,1.41,2.15-.13.77-.26,1.42.6,1.98.52.34.28,1.08-.15,1.57-.5.58-1.01,1.16-1.55,1.71-1.81,1.84-2.51,4.13-2.67,6.63-.05.77.42,1.11,1.13.78.57-.27,1.1-.63,1.6-1.02,2.54-1.98,3.01-2.87,3.46-6.53.13-1.08.27-2.16.32-3.24.14-2.96,1.34-5.59,2.39-8.29,1.47-3.79,4.16-6.49,7.48-8.68,1.43-.95,2.94-.88,4.4-.29.55.22,1.06.87,1.32,1.45.68,1.49.8,3.07.19,4.62-1.14,2.92-2.64,5.64-4.58,8.11-.53.67-.96,1.43-1.51,2.08-1.13,1.35-2.31,2.65-3.47,3.98-.42.48-.79.99-1.26,1.42-1.31,1.21-1.43,2.75-1.27,4.38.16,1.71,1.22,2.29,2.75,1.5.6-.31,1.18-.66,1.78-.97,1.78-.91,2.36-3.45,2.17-4.94-.06-.43-.27-.76-.76-.82-.26-.03-.52-.09-.77-.13-.42-.81-.13-1.54.06-2.27.04-.16.18-.39.31-.42.96-.21,1.93-.39,2.91-.52.12-.02.35.28.4.46.1.34.11.7.18,1.25.58-.42,1.04-.75,1.5-1.1.29-.22.55-.47.85-.68.41-.29.84-.61,1.33-.14.43.42.5,1.28.03,1.72-.45.43-1,.78-1.53,1.11-.97.61-1.46,1.45-1.76,2.59-.52,1.96-1.13,3.93-2.04,5.73-.61,1.2-1.71,2.21-2.74,3.14-1.03.93-2.19,1.77-3.41,2.44-.88.48-1.94.73-2.95.87-1.29.17-1.84-.34-2.02-1.62-.15-1.07-.24-2.16-.36-3.23-.05-.44-.12-.88-.21-1.55-.57.57-.97,1.01-1.41,1.42-1.61,1.52-3.23,3.03-4.85,4.54-.3.28-.63.51-.94.78-.79.69-1.67.71-2.52.21-.85-.5-1.15-1.32-1.12-2.31.08-2.18.9-4.14,1.82-6.05,1.15-2.41,2.34-4.79,2.91-7.6-.45,0-.88-.03-1.3,0-1.05.09-1.05.14-1.35,1.15-.27.91-.59,1.8-.92,2.69-.39,1.06-.88,2.08-1.21,3.16-.55,1.83-1.74,3.26-2.85,4.73-1.56,2.05-3.02,4.18-5.05,5.83-.32.26-.64.52-.99.71-1.74.97-3.27.25-3.65-1.72-.1-.51-.12-1.04-.19-1.69-1.7,1.44-3.25,2.83-4.88,4.1-1.04.81-2.22,1.35-3.65,1.12-.96-.16-1.6-.61-1.89-1.5-.16-.51-.29-1.06-.28-1.59.08-5.17,1.24-9.98,4.28-14.31,2.22-3.15,5.04-5.4,8.54-6.84,1.59-.66,3.26-1.05,5.07-.69.27.89.22,1.68-.27,2.44-1-.05-1.95-.21-2.88-.11-.83.09-1.73.3-2.41.74-3.19,2.09-5.12,5.05-5.72,8.83-.19,1.19-.27,2.39-.39,3.52.83.5,1.43.31,1.91-.15.91-.88,1.86-1.73,2.62-2.74,1.6-2.13,3.1-4.33,4.63-6.52.43-.62.8-1.29,1.17-1.9.26.02.39.02.52.05,1.31.31,1.51.64.97,1.88-.94,2.16-1.88,4.31-2.4,6.61-.15.66-.25,1.33-.32,2.01-.06.6.29.93.87,1,.86.1,1.62-.15,2.24-.75.35-.34.71-.72.93-1.16,1.59-3.03,2.73-6.2,3.09-9.62,0-.08-.05-.17-.11-.35ZM136.56,97.8c.1.06.21.13.31.19.79-.9,1.7-1.72,2.35-2.72,1.98-3.01,3.92-6.05,5.75-9.15.58-.98.87-2.17,1.14-3.3.23-.98-.38-1.43-1.35-1.08-.41.15-.8.42-1.14.7-1.86,1.56-3.29,3.5-4.35,5.64-1.51,3.05-2.19,6.37-2.71,9.71Z"/>
    <path d="M74.07,89c-.16-.54-.3-.81-.3-1.08,0-.9.1-1.81.07-2.71-.03-.82.33-1.32,1-1.76,1.45-.93,2.97-1.69,4.54-2.4,2.77-1.25,5.61-2.27,8.5-3.16,1.76-.54,3.57-1.05,5.39-1.28,4.57-.59,8.91,3.09,8.85,7.6-.02,1.91-.58,3.56-1.54,5.11-.88,1.43-1.92,2.72-3.29,3.75-1.61,1.22-3.15,2.52-4.8,3.85.89.16,1.73.29,2.56.47,3.46.74,5.02,3.3,4.21,6.77-.57,2.42-1.59,4.59-3.25,6.46-.39.44-.71.94-.99,1.46-.83,1.53-2.02,2.76-3.23,3.99-1.99,2.01-4.38,3.45-6.74,4.96-2.37,1.51-4.88,2.73-7.41,3.92-.85.4-1.77.65-2.66.98-2.92,1.07-5.83,2.14-8.75,3.2-.15.06-.34.03-.46.04-.45-.5-.04-.8.14-1.13,1.36-2.5,2.74-4.99,4.08-7.51.83-1.55,1.58-3.14,1.64-5.13.63,0,1.2.02,1.77,0,4.68-.17,9.14-1.22,13.17-3.66,1.15-.69,2.14-1.65,3.17-2.54,1.02-.89,2.05-1.78,2.96-2.77,1.2-1.3,1.27-2.82.58-4.43-.39-.91-1.03-1.43-2.01-1.61-2.39-.44-4.77-.26-7.15.09-1.2.18-2.41.31-3.63.41-.36.03-1.04-.16-1.04-.24,0-.6.02-1.27.3-1.76.21-.37.8-.59,1.26-.73,2.3-.7,4.56-1.55,6.52-2.95,1.98-1.42,3.84-3,5.68-4.59.98-.85,1.92-1.8,2.68-2.85.65-.9,1.16-1.95,1.48-3.02.48-1.58-.19-2.87-1.67-3.57-1.15-.55-2.36-.81-3.66-.88-3.21-.19-6.16.8-9.13,1.77-1.45.47-2.99.75-4.22,1.77-1.7,1.41-3.32,2.9-4.64,5.16Z"/>
    <path d="M57.39,134.5c.02-.34,0-.69.06-1.03.61-3.38,1.28-6.74,1.81-10.13.2-1.28.16-2.62.12-3.92-.03-.97.2-1.64,1.21-1.95.41-.13.83-.4,1.13-.72,1.87-2.02,3.81-3.99,5.24-6.37.37-.62.74-1.26,1.21-1.79,1.91-2.18,3.07-4.78,4.18-7.4,1.01-2.37,1.87-4.8,2.96-7.13,1.2-2.56,1.89-5.26,2.7-7.94.11-.35.33-.77.62-.93.98-.56,2-1.05,3.03-1.49.6-.26,1.03.02.99.67-.04.76-.19,1.53-.42,2.25-1.18,3.65-2.26,7.35-3.63,10.93-1.33,3.45-2.9,6.81-4.51,10.15-1.13,2.35-2.45,4.63-3.77,6.89-1.85,3.16-3.73,6.29-5.68,9.38-1.95,3.09-4,6.12-5.99,9.19-.19.3-.29.66-.47.97-.12.2-.31.36-.48.53-.11-.04-.22-.08-.33-.13Z"/>
    <path d="M145.56,108.55c.32-.42.57-.72.79-1.04.33-.48.79-.94.92-1.48.24-.98.89-1.26,1.73-1.44,1.24-.26,2.46-.57,3.69-.87.43-.11.85-.26,1.38-.42-.17-.27-.28-.45-.4-.63-.6-.9-.62-1.34.01-2.21,1.64-2.26,3.9-3.62,6.58-4.23,2.18-.49,4.4-.54,6.57.11.59.18,1.19.44,1.69.8.77.55.76,1.1-.08,1.55-1.99,1.05-4.03,2.02-6.05,3.01-.4.19-.85.29-1.52.51.46.19.7.35.96.39,2.14.37,4.28.71,6.41,1.08,1.17.2,2.28.59,3.18,1.4.73.66.66,1.28-.14,1.88-2.83,2.11-6.01,3.41-9.41,4.29-2.55.66-5.1,1.13-7.75,1.12-1.58,0-3.15.18-4.73.23-.66.02-1.34-.04-1.92-.72.8-.6,1.57-1.12,2.28-1.72.76-.64,1.49-1.31,2.16-2.03.32-.34.61-.49,1.05-.4.75.15,1.54.18,2.26.42,2.03.69,4.02.4,6.01-.09,1.21-.3,2.4-.71,3.59-1.06-.05-.83-.5-1.16-1.02-1.3-2.22-.6-4.44-1.18-6.68-1.68-.43-.1-.98.11-1.41.32-1.92.91-3.79,1.9-5.72,2.79-1.23.57-2.51,1-3.78,1.48-.14.05-.33-.03-.69-.06ZM157.6,101.19c.45.48.9.54,1.4.33,1.92-.77,3.85-1.53,5.76-2.32.47-.19.97-.4,1.22-.95-2.8-.7-7.31.86-8.39,2.94Z"/>
    <path d="M155.37,88.16c0-1.41-.02-2.52,0-3.63.02-.78.03-1.55-.89-2.09,1.67-1.6,2.08-3.74,3.03-5.6.03-.06.25-.04.37-.05,1.21,2.51-.2,9.58-2.52,11.38Z"/>
    <path d="M118.45,116.34c1.1.06,2.05.01,2.96.18,1.25.23,1.45.77.85,1.93-.06.12-.15.22-.19.29.21.48.47.92.59,1.39.27,1.02-.23,1.86-1.24,2.01-1.02.14-2.05.07-3.08-.24.57-.96.67-3.98.12-5.56ZM119.7,119.4v2.13c.9.12,1.76.37,2.26-.52.18-.32.16-.92-.03-1.25-.52-.93-1.35-.32-2.23-.35ZM119.67,118.61c.6-.1,1.12-.11,1.59-.29.22-.08.42-.45.45-.71.02-.19-.24-.53-.44-.58-.52-.13-1.08-.14-1.73-.22.05.68.08,1.16.13,1.79Z"/>
    <path d="M155.35,119.05c1.04,1.45.41,3.01-1.34,3.29-.65.1-1.32.02-2.03.02.69-1.96.78-3.78.18-5.72.87-.18,1.84-.23,2.77.1,1.06.37,1.2,1.15.42,2.31ZM152.98,121.92c.73-.19,1.23-.22,1.61-.45.44-.26.94-.65.78-1.27-.16-.63-.75-.7-1.3-.7-.26,0-.51.06-.83.11-.08.69-.15,1.34-.26,2.32ZM153.36,118.89c.55-.13,1.01-.19,1.41-.36.21-.09.49-.43.45-.58-.06-.25-.33-.6-.56-.64-.5-.1-1.03-.03-1.65-.03.12.56.21.99.35,1.61Z"/>
    <path d="M146.73,119.27c.42.53.8,1.01,1.18,1.49.76-.58.3-1.22.27-1.92.59.03,1.11.05,1.63.08-.91.63-1,1.54-1.15,2.51.44.09.83.17,1.41.29-.36.18-.58.39-.78.38-.76-.04-1.45,0-2.15.45-.52.34-1.43-.08-1.9-.66-.47-.59-.62-1.3-.14-1.86.56-.68.8-1.35.63-2.2-.03-.16.04-.36.12-.52.24-.53.69-.69,1.23-.57.48.11.74.63.51,1.2-.18.44-.51.82-.84,1.34ZM147.64,121.43c-.56-.63-.81-1.37-1.53-1.7-.8.96-.85,1.31-.31,1.85.5.5.92.49,1.84-.15ZM146.48,118.36c.45-.29.71-.54.39-1.1-.58.2-.65.53-.39,1.1Z"/>
    <path d="M129.21,120.44c-.83.88.07,1.1.61,1.63-.65.08-1.05.12-1.6.19.11-1.85.2-3.55.3-5.33-.21-.14-.45-.31-.82-.58.48-.16.84-.27,1.34-.43v3.65c.53-.39.96-.67,1.36-.99.42-.33.81-.69,1.44-.27-.75.54-1.42,1.03-2.21,1.6.79.7,1.53,1.36,2.36,2.09-.18.3-.48.54-.95.15-.27-.23-.47-.55-.73-.79-.35-.32-.72-.6-1.08-.9Z"/>
    <path d="M127.25,122.12c-.81.08-1.67.26-2.52.23-.51-.02-.83-.47-.86-1.05-.05-.82.31-1.49,1.02-1.73.37-.13.79-.14,1.18-.21-.3-1.1-.58-1.14-2.11-.22.08-.33.06-.6.19-.74.47-.49,1.06-.66,1.73-.44.68.22.86.75.89,1.37.02.5-.02,1,.05,1.48.06.38.24.74.43,1.3ZM125.87,119.88c-.46.24-.96.36-1.22.68-.17.22,0,.71,0,1.07.32-.04.69.02.95-.12.52-.29.7-.77.26-1.63Z"/>
    <path d="M142.06,121.06c.32-1.15.55-1.99.81-2.93.28.09.6.19.94.3-.75,1.76-1.46,3.45-2.19,5.13-.29.66-.73,1.16-1.55,1.01-.15-.03-.27-.16-.64-.4.96-.16,1.6-.38,1.88-1.2.23-.67.39-1.22.04-1.92-.43-.87-.72-1.82-1.1-2.82.37-.34.85-.33,1.5-.12-.92,1-.16,1.78.31,2.96Z"/>
    <path d="M135.88,122c-.66.56-1.57.61-2.27.13-.7-.48-.98-1.64-.63-2.6.33-.91,1.08-1.48,1.92-1.44.95.04,1.46.57,1.78,1.91-.97.66-2.01-.26-2.99.09-.42,1.37-.19,1.58,2.19,1.91ZM135.86,119.62c-.67-1.22-1.19-1.26-1.91-.25.59.08,1.15.15,1.91.25Z"/>
    <path d="M169.73,122.17c-1,.01-1.75-.78-1.73-1.83.02-1.03.78-1.89,1.7-1.93.84-.04,1.99.85,1.92,1.56-.13,1.32-.57,2.16-1.88,2.2ZM170.95,120.32c.06-.58-.58-1.32-1.18-1.34-.54-.02-1.13.58-1.19,1.24-.07.69.36,1.3.97,1.38.72.1,1.31-.43,1.4-1.28Z"/>
    <path d="M159.38,121.05c.16.33.2.54.32.61.19.12.46.23.66.18.15-.04.33-.33.33-.5,0-.16-.2-.37-.36-.48-.14-.09-.35-.06-.52-.11-.56-.17-.81-.56-.73-1.13.09-.62.4-1.13,1.08-1.22.55-.07,1.11-.06,1.27.66.02.07-.05.17-.11.36-.18-.14-.31-.29-.47-.37-.56-.27-1.02-.11-1.17.43-.15.55.18.75.65.77.75.04,1.04.46.99,1.16-.05.66-.53,1.06-1.3,1.12-.97.07-1.18-.29-.65-1.49Z"/>
    <path d="M139.63,118.32c-1.56.9-1.89,2.61-.8,3.88-.74.33-1.41.39-2.29-.16,1.11-.29,1.13-1.02,1.11-1.8-.01-.67.44-1.48-.82-1.71,1.01-.69,1.83-.4,2.8-.22Z"/>
    <path d="M167.96,119.01c-1.71.01-2.49,2.11-1.37,3.19-.56.07-1.02.13-1.52.19.24-1.28,1.05-2.4,0-3.74.6,0,1.12.13,1.53-.03.53-.2.9-.29,1.35.39Z"/>
    <path d="M163.76,122.29c-.57.27-.87,0-.94-.51-.06-.48.07-.99,0-1.47-.07-.46-.3-.9-.49-1.44.21-.21.57-.57.91-.91.15.31.35.69.52,1.08.04.1.04.24,0,.34-.57,1.57-.58,1.84,0,2.9Z"/>
    <path d="M157.8,118.85v3.36h-1.07c.62-1.12.92-2.16-.12-3.23.41-.05.73-.08,1.19-.13Z"/>
    <path d="M157.7,116.41c.15.39.29.57.25.72-.04.16-.24.28-.37.41-.11-.11-.28-.22-.3-.34-.02-.12.13-.27.41-.79Z"/>
    <path class="cls-4" d="M136.56,97.8c.52-3.34,1.21-6.66,2.71-9.71,1.06-2.14,2.49-4.08,4.35-5.64.34-.29.73-.56,1.14-.7.97-.35,1.58.1,1.35,1.08-.26,1.13-.56,2.31-1.14,3.3-1.83,3.1-3.77,6.14-5.75,9.15-.65.99-1.56,1.82-2.35,2.72-.1-.06-.21-.13-.31-.19Z"/>
    <path class="cls-4" d="M157.6,101.19c1.08-2.08,5.59-3.64,8.39-2.94-.25.55-.75.76-1.22.95-1.91.79-3.84,1.55-5.76,2.32-.51.2-.96.14-1.4-.33Z"/>
    <path class="cls-4" d="M119.7,119.4c.88.03,1.72-.58,2.23.35.18.33.21.93.03,1.25-.5.89-1.36.64-2.26.52v-2.13Z"/>
    <path class="cls-4" d="M119.67,118.61c-.05-.63-.08-1.1-.13-1.79.65.07,1.21.09,1.73.22.19.05.45.39.44.58-.02.26-.23.63-.45.71-.47.17-1,.19-1.59.29Z"/>
    <path class="cls-4" d="M152.98,121.92c.11-.98.18-1.63.26-2.32.32-.04.58-.11.83-.11.55,0,1.13.07,1.3.7.16.62-.34,1.01-.78,1.27-.38.23-.89.26-1.61.45Z"/>
    <path class="cls-4" d="M153.36,118.89c-.13-.62-.23-1.05-.35-1.61.62,0,1.15-.07,1.65.03.23.05.5.39.56.64.04.15-.24.49-.45.58-.4.17-.86.23-1.41.36Z"/>
    <path class="cls-4" d="M147.64,121.43c-.92.64-1.34.66-1.84.15-.54-.55-.49-.9.31-1.85.72.33.98,1.07,1.53,1.7Z"/>
    <path class="cls-4" d="M146.48,118.36c-.27-.57-.19-.9.39-1.1.32.55.07.81-.39,1.1Z"/>
    <path class="cls-4" d="M125.87,119.88c.44.87.27,1.35-.26,1.63-.26.14-.63.09-.95.12-.02-.37-.18-.86,0-1.07.26-.32.76-.44,1.22-.68Z"/>
    <path class="cls-4" d="M135.86,119.62c-.76-.1-1.33-.17-1.91-.25.72-1.01,1.24-.97,1.91.25Z"/>
    <path class="cls-4" d="M170.95,120.32c-.09.85-.67,1.38-1.4,1.28-.62-.09-1.04-.7-.97-1.38.07-.66.65-1.26,1.19-1.24.59.02,1.24.76,1.18,1.34Z"/>
  </g>
  <polygon class="cls-2" points="29.63 88.62 6.07 123.1 7.24 124.59 52.19 123.03 36.04 93.37 31.24 87.76 29.63 88.62 29.63 88.62"/>
  <path class="cls-1" d="M27.74,93.09c-.85.37-.24-.86-1.09-.48-.41.14-.18.85-1.03.59-.33,1.41-.66,2.8-1.98,3.31-.32,1.48.75,1.42,1.18,2.08-1.86,1.36-1.87,5.71-5.14,4.27.3.79,1.28.83,1.43,1.8-.7.36-1.23.5-1.57.61,1.14.93-.3.7-.74,1.37-1.14,1.77-1.76,4.56-3.76,5-.07,1.29-.54,2.23-1.76,2.49.68,1.38-.39.19-.76.84,1.72.32-1.1,1.17.1,1.87-1.9.4-1.44,2.95-2.75,3.88-.17-.46.25-1.59-.34-1.59,0,.42.09.92-.5.83-.28.88.87.16.59,1.04-1.11.27-.9,1.73-1.48,2.49,2.78-.62,7.3-.66,10.41-.52.05-.21-.02-.53.24-.55,10.35.95,18.6-.66,31.25-1-.58-2.8-3.06-4.15-4.03-5.69-.32-2.37-2.56-2.61-2.66-5.22-1.2.18-1.03-.95-.88-1.56-1.06.02-2.03-1.7-1.17-2.08-.83.45-.9-.16-1.63-.46-1.93-5.83-6.54-9.94-8.75-14.54.01.27-.45.36-.53.02.32-.04.63-.11.51-.56-.75.26-.71-.34-1.35-.2-1.29,1.8-1.87,4.25-4.02,5.28.56.91-.2,1.3-.7,1.91-.33-1.06-.07-2.08.39-2.96.44-.02.18.73.57.77.06-1.15.97-3.33,1.76-2.23-.03-.37.09-.59.22-.82h0ZM43.33,105.42c1.58.23,1.17,2.65,2.82,2.81.04,1.73.93,2.54,2.03,3.11-.12,1.82.91,2.37,2.01,2.85.12.45-.18.51-.51.56.38.36,1.26.61.6,1.31.21-.16.42-.3.78-.31.12.53-.01.84-.49.82.53.68,2.07,2.13,1.2,2.62.27.45.86.55,1.62.46.15,2.18,1.35,3.2,1.35,5.55-.26-.15-1.01-.57-.78.3-.48-.5-1.86-.01-1.92-.97-.59,1.05-1.83-.7-3.17.69-.81.14-.6-.84-.87-1.3-.76.27.38.66.07,1.34-.21-.18-.9-1.08-.8.04-3.73-.26-9.26-.28-12.56.08-.01-.26-.03-.53-.04-.8-1.21.71-2.61.85-3.74.18-.72,1.05-5.69,1.08-7.21.36-2.93,1.68-9.46.1-10.87,1.87-2.3-1.29-6.26.17-9.14-.88-.27-.84.18-1.03.47-1.37-1.07-.04-.45-.2-.62-1.84,1.24-.4,1.75-1.46,1.72-3.03,1.24.2.54-1.37,1.81-1.16-.23-.81-.22-.5-.07-1.34,1.81.2.72-2.24,2.29-2.25-.18-.26-.63-.25-.57-.78,1.07.3.5-.9,1.57-.61-.02-.45-.04-.89-.07-1.34.23-.21.59-.32,1.05-.32,1.57-4.03,4.49-6.81,6.16-10.74.92-.02,1.21-.6.99-1.66.78.04.78-.64,1.57-.61.65-3.58,4.06-4.66,4.67-8.26,2.93-.65,2.23-4.6,5.08-5.33-.18-.27-.62-.25-.58-.77.88-.06,1.31-.52,2.39-.39,1.2.85-.31,1.37,1.4,1.27-1.1,1.2.34,4.73,1.55,4.2.39.07.07,2.02,1.42,1.8-.14.82.33.96.36,1.59,3.43,2.87,4.09,8.8,7.53,11.66.12.45-.18.52-.51.56h0Z"/>
  <text class="cls-3" transform="translate(18.46 119.96) scale(.79 1)"><tspan x="0" y="0">46</tspan></text>
</svg>