<?xml version="1.0" encoding="UTF-8"?>
<svg id="Layer_1" data-name="Layer 1" xmlns="http://www.w3.org/2000/svg" viewBox="0 0 180 200">
  <defs>
    <style>
      .cls-1 {
        fill: #82949e;
      }

      .cls-2 {
        fill: #e37f81;
      }

      .cls-3 {
        fill: #0e0e10;
      }

      .cls-4 {
        fill: #d5d6d0;
      }

      .cls-5 {
        fill: #18609e;
      }

      .cls-6, .cls-7 {
        fill-rule: evenodd;
      }

      .cls-6, .cls-8 {
        fill: #231f20;
      }

      .cls-9 {
        fill: #8dc6b0;
      }

      .cls-10 {
        fill: #15609e;
      }

      .cls-11 {
        fill: #fff;
      }

      .cls-7 {
        fill: #ffda40;
      }

      .cls-8 {
        font-family: AmericanTypewriter-Bold, 'American Typewriter';
        font-size: 20.52px;
        font-weight: 700;
      }

      .cls-12 {
        fill: #e0ab29;
      }
    </style>
  </defs>
  <g>
    <polygon class="cls-7" points="28.55 84.1 4.99 118.59 6.16 120.08 51.11 118.52 34.97 88.86 30.16 83.24 28.55 84.1 28.55 84.1"/>
    <path class="cls-6" d="M27.39,88.57c-.85.37-.24-.86-1.09-.48-.41.14-.18.85-1.03.59-.33,1.41-.66,2.8-1.98,3.31-.32,1.48.75,1.42,1.18,2.08-1.86,1.36-1.87,5.71-5.14,4.27.3.79,1.28.83,1.43,1.8-.71.36-1.23.5-1.57.61,1.14.93-.3.7-.74,1.37-1.14,1.77-1.76,4.56-3.76,5-.07,1.29-.54,2.23-1.76,2.49.68,1.38-.39.19-.76.84,1.72.32-1.1,1.17.1,1.87-1.9.4-1.44,2.95-2.75,3.88-.17-.46.25-1.59-.34-1.59,0,.42.09.93-.5.83-.28.88.87.16.59,1.04-1.11.27-.9,1.73-1.48,2.49,2.78-.62,7.3-.66,10.41-.52.04-.21-.02-.53.24-.55,10.35.95,18.6-.66,31.25-1-.58-2.8-3.06-4.15-4.03-5.69-.32-2.37-2.56-2.61-2.66-5.22-1.2.18-1.03-.95-.88-1.55-1.06.02-2.03-1.7-1.17-2.09-.83.45-.9-.16-1.63-.46-1.93-5.83-6.54-9.94-8.75-14.54.01.27-.45.36-.53.02.32-.04.63-.11.51-.56-.75.26-.71-.34-1.35-.2-1.29,1.8-1.87,4.25-4.02,5.28.56.92-.2,1.3-.7,1.91-.33-1.06-.07-2.08.39-2.96.44-.02.18.73.57.78.06-1.15.97-3.33,1.76-2.23-.03-.37.09-.59.22-.82h0ZM42.98,100.91c1.58.23,1.17,2.66,2.82,2.81.04,1.73.93,2.54,2.03,3.11-.12,1.83.91,2.37,2.01,2.85.12.45-.18.51-.51.56.38.37,1.26.61.6,1.31.21-.15.42-.3.78-.31.12.54-.01.84-.49.83.53.68,2.07,2.13,1.2,2.61.27.45.86.55,1.62.46.15,2.18,1.35,3.2,1.35,5.55-.26-.15-1.01-.57-.78.3-.48-.5-1.86,0-1.92-.97-.59,1.05-1.83-.7-3.17.7-.81.13-.6-.84-.87-1.3-.76.27.38.65.07,1.33-.21-.17-.9-1.08-.8.04-3.73-.26-9.26-.28-12.56.08-.01-.26-.03-.53-.04-.8-1.2.71-2.61.85-3.74.19-.72,1.04-5.69,1.07-7.21.36-2.93,1.68-9.46.1-10.87,1.87-2.3-1.29-6.26.17-9.14-.88-.27-.84.18-1.02.47-1.37-1.07-.04-.45-.2-.62-1.84,1.24-.41,1.75-1.46,1.72-3.03,1.24.2.54-1.37,1.81-1.16-.23-.81-.22-.5-.07-1.34,1.81.2.72-2.23,2.29-2.25-.18-.27-.63-.25-.57-.78,1.07.3.5-.9,1.57-.61-.02-.45-.04-.89-.07-1.33.23-.22.59-.32,1.05-.32,1.57-4.03,4.49-6.81,6.16-10.74.92-.02,1.21-.6.99-1.66.78.04.78-.64,1.57-.61.65-3.58,4.06-4.66,4.67-8.26,2.93-.65,2.23-4.6,5.08-5.33-.18-.26-.62-.25-.58-.77.88-.06,1.31-.52,2.39-.39,1.2.85-.31,1.37,1.4,1.27-1.1,1.21.34,4.73,1.55,4.2.39.07.07,2.02,1.42,1.8-.14.82.33.96.36,1.59,3.43,2.87,4.09,8.8,7.53,11.66.12.45-.18.52-.51.56h0Z"/>
    <text class="cls-8" transform="translate(17.18 113.92) scale(.79 1)"><tspan x="0" y="0">49</tspan></text>
  </g>
  <g>
    <polygon class="cls-10" points="112.34 43.2 112.95 42.98 121.21 43.41 132.04 45.27 142.41 49 150.28 53.77 157.51 59.45 157.71 59.77 152.86 63.4 151.76 63.83 151.44 63.8 143.89 58.08 135.3 54.08 123.23 50.68 117.71 50.41 117.73 49.87 113.79 45.19 112.34 43.2"/>
    <polygon class="cls-4" points="176.66 103.62 176.82 104.99 176.57 105.49 176.57 108.5 176.16 112.67 175 119.08 172.23 127.31 169.89 132.4 167.74 136.03 167.56 136.22 167.35 136.03 161.93 131.61 161.87 131.38 164.01 127.84 165.19 125.17 167.65 118.69 168.92 112.47 169.41 108.87 169.61 104.91 169.44 102.07 171.3 102.55 176.66 103.62"/>
    <polygon class="cls-1" points="139.28 160.2 134.47 161.88 125.19 164.17 119.41 164.66 115.42 164.91 109.73 164.5 109.79 161.12 109.86 160.7 109.95 157.49 113.57 157.59 118.73 157.6 124.42 157.05 131.76 155.23 136.67 153.51 136.94 154.13 139.28 160.2"/>
    <polygon class="cls-2" points="176.76 103.62 171.32 102.44 169.53 102.16 169.36 99.7 168.64 94.08 165.31 82.74 164.61 81.07 168.22 72.93 169.74 75.83 173.93 85.86 176.09 94.58 176.52 100.38 176.76 103.62"/>
    <polygon class="cls-12" points="62.03 132.56 60.38 129.46 57.76 122.42 55.8 115.17 55.03 107.58 54.92 105.65 55.31 105.64 59.32 104.4 62.03 103.91 62.21 106.58 62.8 113.58 66.24 124.67 67.61 127.95 62.03 132.56"/>
    <polygon class="cls-3" points="62.05 132.67 67.71 128.03 68.08 128.55 73.9 137.75 81.55 145.52 83.15 146.74 83 146.99 81.51 149.99 79.81 153.06 79.41 152.96 73.08 147.54 67.18 140.6 62.13 133.02 62.05 132.67"/>
    <polygon class="cls-1" points="77.66 56.5 80.52 54.44 89.7 48.92 96.23 46.26 103.02 44.31 108.28 43.39 108 43.74 104.92 46.56 100.56 50.28 97.71 52.44 96.34 53.75 95.81 53.99 88.58 57.7 85.83 59.29 85.63 59.34 82.02 58.08 77.66 56.5"/>
    <polygon class="cls-4" points="79.87 153.09 81.37 149.92 83.08 147.03 83.12 146.64 83.43 146.78 84.91 148.02 92.85 152.65 96.87 154.29 97.25 154.75 100.21 158.12 104.41 162.75 105.49 164.01 104.18 163.88 95.38 161.3 90.11 159.34 81.05 154.05 79.87 153.09"/>
    <polygon class="cls-12" points="161.94 131.53 167.32 136.08 167.64 136.16 165.91 138.74 157.47 148.58 152.22 152.97 146.5 156.73 145.94 156.82 151.57 147.09 155.14 140.84 155.61 140.14 159.31 135.55 161.94 131.53"/>
    <polygon class="cls-9" points="62.08 103.91 59.37 104.57 55.32 105.66 54.94 105.65 54.94 100.92 55.29 96.12 56.39 90 58.53 83.37 58.53 83.09 59.63 83.38 62.94 83.87 65.77 84.26 65.59 84.63 64.09 89.29 62.44 97.87 62.11 102.97 62.08 103.91"/>
    <path class="cls-5" d="M65.79,84.2c-.95-.13-1.9-.26-2.85-.39-1.1-.16-2.21-.32-3.31-.48-.37-.05-.73-.11-1.1-.17.54-1.36,1.04-2.73,1.63-4.07,2.33-5.26,5.39-10.07,9.09-14.46.06-.08.14-.14.21-.21.96.62,1.92,1.23,2.89,1.85,1.07.68,2.14,1.37,3.21,2.05-.09.11-.17.23-.26.34-3.04,3.48-5.6,7.29-7.64,11.44-.67,1.35-1.25,2.74-1.87,4.11Z"/>
    <polygon class="cls-9" points="168.31 72.99 164.49 81.04 164.14 80.59 161.12 75.24 156.21 68.65 152.24 64.52 151.85 64 152.77 63.27 157.71 59.82 159.88 61.76 164.25 67.12 168.15 72.83 168.31 72.99"/>
    <polygon class="cls-5" points="155.12 140.82 151.49 147.04 145.99 156.85 145.68 157.13 139.39 160.21 139.3 160.21 136.83 154.17 136.63 153.46 140.5 151.76 147.81 147.12 154.34 141.44 155.12 140.82"/>
    <polygon class="cls-3" points="75.56 68.34 72.33 66.31 69.5 64.41 71.79 61.76 77.34 56.72 77.63 56.47 82.05 57.99 85.69 59.16 85.91 59.29 85.83 59.44 77.18 66.65 75.56 68.34"/>
    <polygon class="cls-2" points="105.44 164.03 104.35 162.8 100.22 158.11 97.22 154.77 96.83 154.3 97.12 154.35 108.31 157.15 109.9 157.45 109.78 160.69 109.72 161.12 109.66 164.6 107.18 164.25 105.44 164.03"/>
    <polygon class="cls-4" points="96.38 53.78 97.76 52.5 100.5 50.21 104.88 46.52 108.02 43.77 108.31 43.55 109.76 43.39 110.23 43.34 110.47 46.37 110.57 50.49 107.62 50.8 102.99 51.82 98.32 53.11 96.38 53.78"/>
    <polygon class="cls-3" points="110.57 50.48 110.39 46.37 110.25 43.32 112.41 43.16 113.83 45.16 117.6 49.97 117.73 50.24 117.47 50.26 110.57 50.48"/>
    <path class="cls-11" d="M62.43,104.49c0-1.55-.1-3.11.02-4.65.29-3.74.75-7.45,2.07-11.03.82-2.22,1.81-4.36,2.86-6.47,1.34-2.71,2.76-5.38,4.41-7.93.48-.74.99-1.47,1.52-2.17,1.06-1.42,2.13-2.83,3.24-4.22.74-.92,1.54-1.79,2.34-2.65,1.41-1.5,2.93-2.88,4.39-4.34,1.19-1.2,2.58-2.2,4.09-3,1.04-.56,2.07-1.14,3.11-1.7.52-.28,1.03-.59,1.58-.8,2.62-.98,5.26-1.91,7.87-2.9,2.01-.77,4.1-1.17,6.19-1.6,3.11-.63,6.26-.98,9.4-1.26,1.81-.16,3.69-.37,5.5.21,3.5.15,6.76,1.36,10.1,2.23,2.94.76,5.73,1.86,8.52,3.03,4.19,1.76,7.9,4.26,11.48,7.02,3.37,2.59,6.12,5.75,8.78,9.03,1.36,1.68,2.43,3.5,3.37,5.43.68,1.39,1.47,2.73,2.13,4.12.67,1.39,1.18,2.83,1.32,4.41.07.78.45,1.54.78,2.28.93,2.1,1.42,4.32,1.91,6.55.63,2.85.51,5.74.3,8.6-.13,1.83-.25,3.67-.39,5.5-.12,1.53-.59,3.04-.71,4.58-.18,2.3-.85,4.49-1.37,6.71-.64,2.74-1.71,5.33-2.9,7.87-.75,1.6-1.5,3.21-2.3,4.78-.5.99-.98,2.01-1.66,2.87-1.1,1.38-2.09,2.85-3.34,4.12-2.9,2.96-5.91,5.78-9.23,8.27-2.31,1.73-4.73,3.28-7.22,4.72-.96.56-1.91,1.12-2.88,1.65-1.94,1.07-3.95,1.98-6.11,2.52-1.21.31-2.39.74-3.6,1.03-1.07.26-2.16.49-3.25.6-3.82.38-7.65.55-11.48.44-1.54-.05-3.08-.04-4.62-.28-1.52-.24-3.07-.22-4.62-.41-2.8-.33-5.45-1.24-8.15-1.95-2.45-.65-4.59-2.05-6.69-3.39-2.61-1.67-5.05-3.59-7.54-5.43-3.54-2.61-6.53-5.72-8.93-9.43-2.73-4.22-5.09-8.64-7.02-13.28-.85-2.05-1.31-4.22-1.85-6.36-.56-2.21-.96-4.46-1.31-6.71-.19-1.23-.14-2.51-.18-3.76-.02-.96,0-1.92,0-2.88.02,0,.05,0,.07,0Z"/>
    <path class="cls-11" d="M134.87,129.02c-.85-.59-1.02-1.26-1.27-1.86-.52-1.22-.96-2.47-1.42-3.71-.32-.84-.76-1.57-1.52-2.11-1.42-1.03-2.92-1.32-5.02-.89-.02.2-.06.41-.07.62-.03,1.55-.02,3.1-.1,4.65-.05,1.02-.31,2.04-.32,3.06-.04,3.62-.02,7.23-.01,10.85,0,.43.07.87.1,1.27.99.83,2.03,1.33,3.26,1.39,1.37.07,2.08-.48,2.29-1.83.07-.43.05-.88.05-1.33,0-1.48,0-2.95.01-4.43,0-.49.09-.99.16-1.79.32.67.58,1.04.69,1.46.42,1.67,1.29,3.09,2.24,4.51.82,1.21,1.88,1.81,3.27,1.97.37.04.74,0,1.11.04,2.16.21,2.13-.39,2.62-2.14.1-.34.04-.73.04-1.1.02-2.36.02-4.72.06-7.09.02-1.11-.12-2.27.17-3.31.57-2.03.04-3.94-.21-5.9-.05-.42-.48-.76-.93-.83-.91-.14-3.44-.05-4.65.18-.34.63-.55,1.31-.51,2.07.03.81.04,1.62.04,2.43,0,1.17-.04,2.35-.07,3.8Z"/>
    <path class="cls-11" d="M86.47,104.82c0,.89-.02,1.48,0,2.07.14,2.95,1.08,5.61,2.86,7.97.3.4.66.83,1.1,1.06,1.39.72,2.89,1.08,4.46,1.07.35,0,.71-.15,1.06-.26,2.57-.84,4.16-2.68,5.15-5.11.3-.75.51-1.53.77-2.3.35-1.05.54-2.11.6-3.23.19-3.46-.65-6.51-2.9-9.23-1.22-1.47-2.67-2.24-4.48-2.49-.66-.09-1.33-.08-1.97-.24-1.3-.31-2.37.14-3.17,1.06-1.4,1.63-2.5,3.44-3.09,5.55-.41,1.45-.38,2.91-.39,4.08Z"/>
    <path class="cls-11" d="M115.43,77.34c-.03-.82-.07-1.54-.07-2.27-.01-1.7.02-3.4-.01-5.1-.02-.93-.58-1.44-1.42-1.2-1.1.31-2.18.28-3.29.22-.44-.02-.89-.09-1.25.23.17,1.39.35,2.76.5,4.14.03.29-.04.58-.07.88-.07.73-.19,1.46-.19,2.19,0,3.84.03,7.68.07,11.52,0,.5.15,1.01.27,1.51.11.49.5.74.96.78.81.07,1.62.1,2.43.09,1.09-.02,1.62-.47,1.8-1.56.1-.65.05-1.32.09-1.98.06-1.18.11-2.36.21-3.53.04-.47.47-.8.92-.77,1.02.06,2.01.22,3.03.58,0,1.03.02,1.99,0,2.95-.02,1.04.13,2.03.61,3.02.9.15,1.77.34,2.64.44,1.1.13,2.03-.24,2.73-1.08-.29-2.89-.71-5.71-.66-8.59.07-3.31-.2-6.63.36-9.95-.28-.19-.51-.45-.77-.5-1.22-.24-2.45-.45-3.68-.6-.53-.06-1.16.56-1.19,1.12-.04.66-.13,1.36.04,1.98.44,1.6.18,3.23.35,4.84.08.75-.52,1.23-1.29,1.13-.95-.13-1.89-.3-3.1-.49Z"/>
    <path class="cls-11" d="M147.16,107.96c.24-1.73.28-3.39-.07-4.96-1.59-1.2-3.44-.19-5.08-.86.18-.69.35-1.32.54-2.04.62,0,1.2,0,1.77,0,.74.01,1.48.07,2.22.06.53,0,1.03-.37,1.13-.89.24-1.15.6-2.28.47-3.49-.07-.68-.22-1.3-.8-1.78-3.15-.35-6.33-.1-9.5-.06-.65,0-1.1.39-1.32,1.01-.1.28-.25.56-.24.84,0,1.4.03,2.8.08,4.2.03.66.2,1.32.18,1.97-.05,1.17-.2,2.34-.3,3.51-.29,3.4.29,6.77.43,10.15,0,.07.06.13.11.23.49.44,1.1.63,1.79.64,1.7,0,3.4.06,5.1.07.81,0,1.62-.04,2.44-.06.69-.01,1.09-.38,1.29-1.01.09-.28.24-.55.26-.84.05-.66.06-1.33.03-1.99-.03-.72.18-1.48-.24-2.23-1.63-1.06-3.6-.17-5.41-.78.2-.65.39-1.26.57-1.85,1.52-.14,2.86.68,4.54.17Z"/>
    <path class="cls-11" d="M116.82,139.05c.3.77.51,1.4.79,1.99.21.43.65.63,1.1.61.95-.05,1.91-.15,2.85-.26.82-.09,1.59-.33,2.14-1.01.34-.42.5-.88.31-1.44-.39-1.11-.81-2.21-1.13-3.34-.63-2.19-1.2-4.39-1.82-6.58-.38-1.34-.82-2.67-1.22-4.01-.27-.91-.49-1.84-.77-2.75-.15-.5-.38-1.01-.91-1.18-1.04-.35-2.1-.67-3.16-.93-.46-.11-.9.09-1.09.56-.28.68-.54,1.36-.75,2.06-.84,2.81-1.64,5.64-2.49,8.45-.72,2.39-1.5,4.77-2.26,7.14-.25.79-.28,1.58-.11,2.39.89.66,1.91.82,2.9,1.05.53.12,1.01-.11,1.41-.48.45-.41.77-.89.91-1.48.08-.34.19-.68.3-1.11,1.03.09,1.98-.1,2.98.3Z"/>
    <path class="cls-11" d="M152.21,95.53c.48,1.47.46,3.01.46,4.55-.01,2.96-.07,5.91-.1,8.87-.02,1.77-.03,3.55,0,5.32.02,1.58.35,1.88,1.99,1.94.52.02,1.05-.07,1.55.03,2.28.48,4.55.19,6.82-.07.68-.08,1.1-.45,1.15-1.13.08-1.03.09-2.07.09-3.1,0-.34-.14-.69-.24-1.13-1.63-.1-3.18-.06-4.72-.13-.37-.02-.74,0-1.1-.08-.19-.04-.45-.23-.48-.39-.13-.84-.43-1.71.15-2.64,1.32.14,2.64.26,3.95.41.81.09,1.29-.19,1.35-1.05.09-1.25.08-2.51.08-3.76,0-.44-.39-.77-.91-.79-1.11-.04-2.22-.03-3.32-.08-.34-.01-.69-.12-1.06-.19,0-.89-.27-1.69.28-2.52,1.03,0,2.06,0,3.09,0,.44,0,.89.01,1.32-.07.94-.17,1.58-.88,1.61-1.84.03-.74,0-1.48-.09-2.21-.09-.81-.53-1.2-1.32-1.2-2.73.01-5.47.04-8.2.09-.92.02-1.72.35-2.38,1.15Z"/>
    <path class="cls-11" d="M139.79,70.2c-1.28-.59-2.46-.64-3.63-.79-1.68-.22-3.35-.49-5.03-.73-.22-.03-.44-.01-.66,0-.36.02-.74.31-.81.65-.07.36-.16.73-.15,1.09.07,2.3-.3,4.56-.39,6.84-.12,2.88-.07,5.77-.1,8.65,0,.88.05,1.76-.22,2.64-.11.36.11.83.17,1.21,2.03.73,4.03.59,6.02.58,1.54,0,3.09-.06,4.68-.65.16-.51.45-1.06.5-1.62.1-1.23.21-2.48-.1-3.8-.58-.07-1.08-.16-1.58-.17-1.03-.03-2.07,0-3.1-.03-.13,0-.25-.12-.47-.24v-1.76c.38-.04.74-.13,1.08-.1.73.06,1.46.18,2.18.29.37.06.72.16,1.12-.25.16-1.36.08-2.81-.12-4.31-.77-.2-1.47-.44-2.18-.54-.79-.12-1.59-.12-2.46-.17-.04-.38-.11-.66-.1-.94.02-.8.29-1.13,1.01-1.18.81-.06,1.62-.08,2.44-.09.69-.01,1.31-.16,1.79-.71.04-1.25.08-2.5.13-3.86Z"/>
    <path class="cls-11" d="M106.79,94.42c-.69.78-.81,1.65-.83,2.54-.02,1.11,0,2.22-.02,3.33,0,.51-.06,1.03-.11,1.54-.06.66-.2,1.31-.21,1.97-.02,2.59.03,5.17,0,7.76-.02,1.12.3,2.19.46,3.27.11.7.63,1.22,1.35,1.29.95.08,1.91.05,2.87,0,.55-.03.97-.49.99-1.02.05-1.03.04-2.07.06-3.1.01-.8-.14-1.61.24-2.47.46-.02.88-.05,1.31-.06.74-.02,1.48,0,2.21-.06.73-.07,1.3-.52,1.41-1.22.16-1.02.16-2.06.21-3.09.02-.43.12-.89-.32-1.38-.66-.14-1.44-.36-2.23-.46-.86-.11-1.75.08-2.53-.08-.39-.59-.26-1.11-.23-1.61.03-.38.21-.7.59-.88,1.64.25,3.29.71,5.06.12.52-1.92,1.09-3.8.9-5.76-.59-.44-1.15-.56-1.75-.58-.89-.02-1.77-.07-2.66-.08-2.28-.03-4.57-.12-6.79.03Z"/>
    <path class="cls-11" d="M84.25,97.1c-1-1.71-2.63-2.71-4.54-3.11-1.2-.25-2.51-.11-3.75,0-.72.06-1.39.44-1.95.97-2.18,2.09-3.42,4.59-3.48,7.64-.02.74.04,1.48-.01,2.22-.17,2.42.57,4.64,1.25,6.91.52,1.72,3.59,4.33,5.3,4.69.22.05.44.07.66.09,2.16.21,4.08-.43,5.8-1.71.18-.13.33-.3.47-.47.26-.31.34-.68.17-1.03-.7-1.38-1.46-2.73-2.48-3.91-.18-.21-.47-.32-.7-.46-.26.13-.47.21-.64.34-.23.18-.42.42-.65.6-1.07.82-2.6.89-3.16-.87-.22-.7-.48-1.4-.58-2.13-.24-1.76-.37-3.51.21-5.26.41-1.25,1.1-2.06,2.54-2.22.36.27.76.59,1.18.88.77.53,1.8.5,2.44-.13.85-.82,1.65-1.69,1.93-3.03Z"/>
    <path class="cls-11" d="M127.04,102.26c-.04-1.1.08-1.33.72-1.32.59,0,1.18.08,1.77.1.52.02,1.03.05,1.55.01.65-.05,1.14-.52,1.15-1.13.02-1.26,0-2.51-.02-3.77,0-.36-.03-.72-.05-1.12-.61-.2-1.16-.42-1.72-.56-.43-.11-.88-.17-1.32-.17-2.22-.02-4.43-.02-6.65,0-.64,0-1.05.36-.99.93.17,1.83-.02,3.68.3,5.51.15.86.23,1.8.05,2.63-.36,1.68-.33,3.37-.4,5.07-.07,1.62.1,3.23-.26,4.85-.17.77-.13,1.61.29,2.38.23.42.52.76.97.82,1.18.16,2.34.2,3.48-.3.63-.28.9-.7.9-1.36,0-1.18-.02-2.37,0-3.55.01-.57.11-1.14.19-1.8.46-.02.82-.05,1.17-.05.66,0,1.33.04,1.99,0,.65-.04,1.11-.39,1.25-1.05.11-.5.22-1.01.25-1.52.05-.81.04-1.62.05-2.44,0-.37.02-.74-.33-1.02-1.47-.34-3.02-.44-4.38-1.13Z"/>
    <path class="cls-11" d="M103.19,127.72c.25-1.18,1.2-1.79,1.9-2.61.29-.33.51-.72.72-1.11.29-.52.2-.96-.23-1.4-.15-.16-.3-.34-.48-.46-1.77-1.2-3.73-1.78-5.87-1.52-.87.11-1.76.32-2.46.92-1.82,1.56-3.42,3.28-3.88,5.76-.28,1.52-.62,3.04-.52,4.6.15,2.3.75,4.51,1.81,6.55.94,1.82,2.48,2.89,4.6,2.96.59.02,1.18.04,1.77.09,2.56.18,4.13-1.27,5.32-3.29.32-.54.26-1.15-.19-1.65-.39-.44-.8-.87-1.21-1.3-.32-.35-.72-.46-1.18-.51-1.01-.1-1.87.33-2.76.69-.79.32-1.78-.11-1.97-.9-.41-1.72-.76-3.49-.03-5.2.49-1.14,1-2.32,2.36-2.91.66.37,1.35.76,2.27,1.28Z"/>
    <path class="cls-11" d="M106.82,74.59c.05-1.31.1-2.56.13-3.81.01-.57-.3-1-.8-1.23-.4-.18-.84-.37-1.26-.36-2.06.04-4.12-.18-6.19.14-1.16.18-2.35.22-3.52-.09-.28-.08-.58-.11-.87-.13-.55-.04-1.12.32-1.14.82-.04,1.18-.06,2.36,0,3.53.03.66.53,1.05,1.15,1.2.42.1.88.07,1.32.1.43.03.89-.09,1.27.24.3.45.26.98.26,1.49,0,3.03-.04,6.06-.07,9.09,0,.81-.05,1.63-.02,2.44.03,1,.49,1.43,1.54,1.46,1.03.03,2.07.01,3.1,0,.37,0,.74.02,1.12-.41.03-.24.1-.59.11-.95.03-.81-.13-1.67.07-2.43.5-1.9.39-3.81.37-5.73-.01-1.41.33-2.75.41-4.15,1.06-.31,2.18-.21,3.02-1.23Z"/>
    <path d="M134.87,129.02c.03-1.46.06-2.63.07-3.8,0-.81,0-1.62-.04-2.43-.03-.76.17-1.45.51-2.07,1.21-.23,3.74-.32,4.65-.18.45.07.87.41.93.83.25,1.96.78,3.88.21,5.9-.29,1.04-.16,2.2-.17,3.31-.03,2.36-.04,4.72-.06,7.09,0,.37.06.76-.04,1.1-.49,1.75-.46,2.35-2.62,2.14-.37-.04-.74,0-1.11-.04-1.39-.16-2.45-.77-3.27-1.97-.96-1.41-1.82-2.83-2.24-4.51-.1-.42-.37-.79-.69-1.46-.08.8-.16,1.29-.16,1.79-.02,1.48,0,2.95-.01,4.43,0,.44.01.89-.05,1.33-.21,1.35-.93,1.9-2.29,1.83-1.23-.06-2.27-.56-3.26-1.39-.03-.4-.1-.83-.1-1.27,0-3.62-.03-7.24.01-10.85.01-1.02.27-2.04.32-3.06.08-1.55.07-3.1.1-4.65,0-.21.05-.42.07-.62,2.09-.43,3.6-.13,5.02.89.75.54,1.2,1.27,1.52,2.11.46,1.24.91,2.49,1.42,3.71.25.59.42,1.27,1.27,1.86Z"/>
    <path d="M86.47,104.82c.01-1.17-.02-2.63.39-4.08.59-2.11,1.69-3.92,3.09-5.55.79-.92,1.87-1.38,3.17-1.06.64.15,1.31.15,1.97.24,1.82.25,3.27,1.02,4.48,2.49,2.25,2.72,3.09,5.77,2.9,9.23-.06,1.12-.25,2.18-.6,3.23-.26.77-.46,1.55-.77,2.3-.99,2.43-2.58,4.26-5.15,5.11-.35.11-.71.26-1.06.26-1.57,0-3.07-.36-4.46-1.07-.43-.22-.79-.65-1.1-1.06-1.78-2.35-2.73-5.02-2.86-7.97-.03-.59,0-1.18,0-2.07ZM96.65,104.96c0-.68.06-1.2-.01-1.71-.15-1.01-.28-2.04-.86-2.93-.56-.86-1.35-.93-2.01-.2-.51.56-.89,1.21-1.02,1.93-.34,1.81-.59,3.63-.49,5.49.04.7.24,1.32.68,1.82.22.25.59.46.92.51,1.03.16,1.51-.13,1.98-1.01.67-1.28.91-2.64.81-3.91Z"/>
    <path d="M115.43,77.34c1.21.19,2.15.37,3.1.49.77.1,1.37-.38,1.29-1.13-.16-1.61.09-3.24-.35-4.84-.17-.62-.08-1.32-.04-1.98.03-.56.66-1.19,1.19-1.12,1.23.15,2.46.36,3.68.6.26.05.48.31.77.5-.56,3.32-.29,6.64-.36,9.95-.06,2.88.37,5.7.66,8.59-.71.84-1.64,1.2-2.73,1.08-.87-.1-1.73-.29-2.64-.44-.47-.99-.63-1.98-.61-3.02.02-.96,0-1.92,0-2.95-1.02-.36-2.02-.52-3.03-.58-.45-.03-.88.3-.92.77-.1,1.18-.15,2.36-.21,3.53-.03.66.02,1.33-.09,1.98-.17,1.1-.71,1.55-1.8,1.56-.81.01-1.62-.02-2.43-.09-.46-.04-.84-.29-.96-.78-.12-.5-.26-1.01-.27-1.51-.04-3.84-.07-7.68-.07-11.52,0-.73.12-1.46.19-2.19.03-.29.1-.59.07-.88-.15-1.38-.33-2.75-.5-4.14.35-.33.81-.26,1.25-.23,1.11.06,2.19.1,3.29-.22.84-.24,1.4.26,1.42,1.2.03,1.7,0,3.4.01,5.1,0,.73.04,1.45.07,2.27Z"/>
    <path d="M147.16,107.96c-1.68.51-3.02-.31-4.54-.17-.18.59-.37,1.2-.57,1.85,1.81.61,3.78-.27,5.41.78.41.75.2,1.51.24,2.23.03.66.02,1.33-.03,1.99-.02.28-.17.56-.26.84-.2.63-.6.99-1.29,1.01-.81.02-1.63.06-2.44.06-1.7-.01-3.4-.06-5.1-.07-.7,0-1.3-.19-1.79-.64-.05-.1-.11-.16-.11-.23-.15-3.38-.73-6.75-.43-10.15.1-1.17.26-2.34.3-3.51.03-.65-.15-1.31-.18-1.97-.05-1.4-.08-2.8-.08-4.2,0-.28.15-.56.24-.84.22-.62.68-1,1.32-1.01,3.17-.04,6.35-.29,9.5.06.58.48.73,1.1.8,1.78.13,1.21-.24,2.34-.47,3.49-.11.52-.6.89-1.13.89-.74,0-1.48-.05-2.22-.06-.58-.01-1.15,0-1.77,0-.19.72-.36,1.35-.54,2.04,1.64.68,3.49-.34,5.08.86.35,1.57.31,3.23.07,4.96Z"/>
    <path d="M116.82,139.05c-1-.41-1.95-.22-2.98-.3-.12.43-.22.77-.3,1.11-.15.59-.47,1.07-.91,1.48-.4.37-.88.6-1.41.48-.99-.23-2.02-.39-2.9-1.05-.17-.82-.15-1.6.11-2.39.76-2.38,1.53-4.75,2.26-7.14.85-2.81,1.65-5.64,2.49-8.45.21-.7.47-1.38.75-2.06.19-.47.63-.67,1.09-.56,1.07.26,2.12.58,3.16.93.53.18.76.69.91,1.18.28.91.5,1.84.77,2.75.4,1.34.84,2.66,1.22,4.01.62,2.19,1.19,4.39,1.82,6.58.33,1.13.74,2.23,1.13,3.34.2.55.03,1.01-.31,1.44-.55.68-1.32.91-2.14,1.01-.95.11-1.9.22-2.85.26-.45.02-.89-.18-1.1-.61-.28-.59-.49-1.22-.79-1.99ZM115.54,133.26c.35.55.78.56,1.22.45.31-.08.47-.67.24-1.15-.27-.55-.22-1.31-1.03-1.67-.14.79-.27,1.54-.42,2.37Z"/>
    <path d="M152.21,95.53c.66-.8,1.47-1.13,2.38-1.15,2.73-.06,5.47-.08,8.2-.09.79,0,1.22.4,1.32,1.2.08.73.12,1.48.09,2.21-.04.97-.67,1.67-1.61,1.84-.43.08-.88.06-1.32.07-1.03,0-2.06,0-3.09,0-.55.82-.27,1.63-.28,2.52.37.07.71.18,1.06.19,1.11.04,2.22.04,3.32.08.52.02.91.35.91.79,0,1.25,0,2.51-.08,3.76-.06.86-.54,1.14-1.35,1.05-1.31-.15-2.63-.27-3.95-.41-.59.92-.28,1.79-.15,2.64.02.16.29.35.48.39.35.08.73.06,1.1.08,1.54.08,3.09.03,4.72.13.1.45.24.79.24,1.13,0,1.03-.01,2.07-.09,3.1-.05.68-.47,1.05-1.15,1.13-2.27.26-4.54.55-6.82.07-.5-.1-1.03-.02-1.55-.03-1.64-.05-1.97-.36-1.99-1.94-.02-1.77,0-3.55,0-5.32.03-2.96.08-5.91.1-8.87,0-1.54.03-3.08-.46-4.55Z"/>
    <path d="M139.79,70.2c-.05,1.36-.09,2.61-.13,3.86-.48.55-1.1.7-1.79.71-.81.01-1.63.02-2.44.09-.72.06-.98.39-1.01,1.18,0,.28.06.56.1.94.87.06,1.67.06,2.46.17.72.11,1.41.35,2.18.54.2,1.51.29,2.95.12,4.31-.39.42-.75.31-1.12.25-.72-.11-1.45-.23-2.18-.29-.35-.03-.71.06-1.08.1v1.76c.22.12.34.24.47.24,1.03.02,2.07,0,3.1.03.5.01,1,.11,1.58.17.31,1.32.21,2.57.1,3.8-.05.56-.33,1.1-.5,1.62-1.59.59-3.13.64-4.68.65-1.99,0-3.99.15-6.02-.58-.06-.38-.28-.85-.17-1.21.27-.88.21-1.76.22-2.64.03-2.88-.02-5.77.1-8.65.09-2.28.47-4.55.39-6.84-.01-.36.08-.73.15-1.09.07-.34.44-.63.81-.65.22-.01.45-.03.66,0,1.68.24,3.35.51,5.03.73,1.16.15,2.35.2,3.63.79Z"/>
    <path d="M106.79,94.42c2.23-.15,4.51-.06,6.79-.03.89.01,1.77.06,2.66.08.6.01,1.16.13,1.75.58.19,1.96-.38,3.84-.9,5.76-1.77.59-3.42.13-5.06-.12-.39.17-.57.49-.59.88-.04.5-.16,1.02.23,1.61.78.16,1.67-.03,2.53.08.79.1,1.57.32,2.23.46.43.49.34.95.32,1.38-.05,1.03-.04,2.08-.21,3.09-.11.7-.68,1.15-1.41,1.22-.73.07-1.48.04-2.21.06-.43.01-.85.04-1.31.06-.37.86-.22,1.67-.24,2.47-.02,1.03,0,2.07-.06,3.1-.02.53-.45.99-.99,1.02-.95.05-1.92.08-2.87,0-.72-.06-1.24-.58-1.35-1.29-.17-1.09-.48-2.15-.46-3.27.04-2.59-.01-5.17,0-7.76,0-.66.15-1.31.21-1.97.05-.51.1-1.03.11-1.54.02-1.11,0-2.22.02-3.33.01-.89.14-1.76.83-2.54Z"/>
    <path d="M84.25,97.1c-.28,1.34-1.08,2.2-1.93,3.03-.64.62-1.67.66-2.44.13-.42-.29-.82-.61-1.18-.88-1.44.17-2.13.98-2.54,2.22-.58,1.75-.44,3.5-.21,5.26.1.72.36,1.43.58,2.13.55,1.76,2.09,1.69,3.16.87.23-.18.42-.42.65-.6.17-.13.38-.21.64-.34.23.15.52.26.7.46,1.02,1.18,1.78,2.53,2.48,3.91.18.35.1.72-.17,1.03-.14.17-.3.34-.47.47-1.72,1.28-3.63,1.92-5.8,1.71-.22-.02-.44-.05-.66-.09-1.71-.36-4.78-2.97-5.3-4.69-.69-2.27-1.42-4.49-1.25-6.91.05-.74,0-1.48.01-2.22.06-3.04,1.3-5.55,3.48-7.64.56-.53,1.23-.91,1.95-.97,1.25-.1,2.55-.25,3.75,0,1.91.4,3.54,1.39,4.54,3.11Z"/>
    <path d="M127.04,102.26c1.35.69,2.91.8,4.38,1.13.35.28.33.65.33,1.02-.01.81,0,1.63-.05,2.44-.03.51-.15,1.02-.25,1.52-.14.67-.61,1.01-1.25,1.05-.66.04-1.33,0-1.99,0-.35,0-.71.03-1.17.05-.07.65-.17,1.22-.19,1.8-.03,1.18-.02,2.36,0,3.55,0,.66-.27,1.08-.9,1.36-1.14.51-2.3.47-3.48.3-.45-.06-.74-.41-.97-.82-.42-.76-.46-1.61-.29-2.38.35-1.61.19-3.23.26-4.85.07-1.69.04-3.38.4-5.07.18-.84.1-1.78-.05-2.63-.33-1.83-.14-3.68-.3-5.51-.05-.57.36-.93.99-.93,2.22-.02,4.43-.01,6.65,0,.44,0,.89.06,1.32.17.56.14,1.1.35,1.72.56.02.41.04.76.05,1.12.01,1.26.04,2.51.02,3.77,0,.61-.5,1.08-1.15,1.13-.51.04-1.03.01-1.55-.01-.59-.02-1.18-.09-1.77-.1-.65,0-.77.22-.72,1.32Z"/>
    <path d="M103.19,127.72c-.92-.52-1.61-.91-2.27-1.28-1.36.59-1.88,1.77-2.36,2.91-.73,1.71-.38,3.48.03,5.2.19.79,1.18,1.23,1.97.9.89-.37,1.75-.79,2.76-.69.46.04.86.16,1.18.51.4.43.82.86,1.21,1.3.44.5.5,1.11.19,1.65-1.19,2.02-2.75,3.47-5.32,3.29-.59-.04-1.18-.06-1.77-.09-2.12-.08-3.66-1.15-4.6-2.96-1.06-2.04-1.67-4.25-1.81-6.55-.1-1.56.24-3.08.52-4.6.46-2.47,2.06-4.2,3.88-5.76.7-.6,1.59-.81,2.46-.92,2.14-.26,4.09.31,5.87,1.52.18.12.33.3.48.46.43.44.51.88.23,1.4-.21.38-.44.78-.72,1.11-.71.82-1.65,1.43-1.9,2.61Z"/>
    <path d="M106.82,74.59c-.84,1.03-1.96.93-3.02,1.23-.08,1.4-.42,2.74-.41,4.15.02,1.91.13,3.83-.37,5.73-.2.76-.04,1.62-.07,2.43-.01.36-.08.71-.11.95-.37.43-.75.41-1.12.41-1.03,0-2.07.02-3.1,0-1.05-.03-1.51-.46-1.54-1.46-.03-.81.01-1.62.02-2.44.02-3.03.06-6.06.07-9.09,0-.51.04-1.03-.26-1.49-.38-.34-.84-.21-1.27-.24-.44-.03-.89,0-1.32-.1-.62-.14-1.11-.54-1.15-1.2-.06-1.17-.05-2.35,0-3.53.02-.5.59-.87,1.14-.82.29.02.59.06.87.13,1.17.31,2.36.27,3.52.09,2.06-.32,4.13-.1,6.19-.14.42,0,.87.18,1.26.36.5.23.81.65.8,1.23-.03,1.25-.08,2.51-.13,3.81Z"/>
    <path class="cls-11" d="M96.65,104.96c.11,1.27-.14,2.63-.81,3.91-.46.88-.95,1.17-1.98,1.01-.33-.05-.7-.26-.92-.51-.44-.5-.65-1.12-.68-1.82-.1-1.86.15-3.68.49-5.49.14-.73.51-1.37,1.02-1.93.66-.73,1.45-.66,2.01.2.58.89.71,1.92.86,2.93.07.51.01,1.03.01,1.71Z"/>
    <path class="cls-11" d="M115.54,133.26c.15-.83.28-1.58.42-2.37.82.35.76,1.12,1.03,1.67.23.47.07,1.07-.24,1.15-.43.11-.86.1-1.22-.45Z"/>
  </g>
</svg>