<?xml version="1.0" encoding="UTF-8"?>
<svg id="Layer_1" data-name="Layer 1" xmlns="http://www.w3.org/2000/svg" viewBox="0 0 180 200">
  <defs>
    <style>
      .cls-1 {
        fill: #009366;
      }

      .cls-2 {
        fill: #98c93c;
      }

      .cls-2, .cls-3, .cls-4 {
        fill-rule: evenodd;
      }

      .cls-3, .cls-5 {
        fill: #231f20;
      }

      .cls-6 {
        fill: #fff;
      }

      .cls-5 {
        font-family: AmericanTypewriter-Bold, 'American Typewriter';
        font-size: 24px;
        font-weight: 700;
        letter-spacing: .02em;
      }

      .cls-4 {
        fill: #f5881f;
      }
    </style>
  </defs>
  <polygon class="cls-4" points="30.96 81.15 7.4 115.65 8.57 117.13 53.52 115.57 37.38 85.91 32.57 80.3 30.96 81.15 30.96 81.15"/>
  <path class="cls-3" d="M29.07,85.63c-.85.37-.24-.86-1.09-.49-.41.14-.18.86-1.04.59-.33,1.4-.66,2.8-1.98,3.31-.31,1.48.75,1.41,1.18,2.08-1.86,1.36-1.87,5.72-5.14,4.27.3.79,1.28.83,1.43,1.8-.71.36-1.23.5-1.57.61,1.14.93-.3.7-.74,1.38-1.14,1.77-1.76,4.55-3.76,5-.07,1.29-.54,2.23-1.75,2.49.67,1.39-.39.2-.76.85,1.72.32-1.1,1.17.1,1.87-1.9.4-1.44,2.95-2.75,3.88-.17-.46.25-1.59-.34-1.59,0,.42.09.93-.5.83-.28.88.87.16.59,1.04-1.11.27-.9,1.73-1.48,2.48,2.78-.61,7.3-.66,10.41-.52.05-.21-.02-.53.24-.55,10.36.95,18.61-.66,31.25-1.01-.58-2.81-3.05-4.15-4.03-5.69-.32-2.37-2.56-2.61-2.66-5.22-1.2.18-1.03-.95-.88-1.56-1.06.03-2.03-1.7-1.17-2.09-.83.45-.9-.16-1.63-.45-1.93-5.83-6.53-9.94-8.74-14.55.01.27-.45.36-.53.02.32-.04.63-.11.51-.56-.75.26-.71-.34-1.35-.2-1.29,1.8-1.87,4.25-4.02,5.28.56.91-.2,1.3-.7,1.91-.33-1.06-.07-2.08.39-2.96.44-.02.18.73.57.77.06-1.15.97-3.33,1.76-2.23-.03-.37.09-.59.22-.81h0ZM44.66,97.97c1.58.23,1.17,2.65,2.82,2.8.04,1.73.93,2.54,2.03,3.11-.13,1.82.9,2.37,2.01,2.84.13.45-.18.51-.5.56.38.37,1.26.61.6,1.31.21-.16.42-.3.79-.31.12.54-.01.84-.49.82.53.68,2.07,2.14,1.2,2.62.27.45.87.54,1.62.45.15,2.19,1.35,3.21,1.35,5.55-.26-.16-1.01-.58-.78.3-.48-.5-1.86,0-1.92-.97-.59,1.05-1.83-.7-3.17.69-.81.13-.6-.84-.87-1.3-.76.27.38.65.07,1.34-.21-.17-.9-1.09-.8.04-3.73-.26-9.26-.28-12.56.09-.02-.27-.03-.53-.04-.8-1.21.71-2.61.85-3.74.18-.72,1.04-5.69,1.07-7.21.36-2.94,1.69-9.46.1-10.87,1.87-2.3-1.29-6.26.17-9.14-.88-.27-.84.18-1.03.46-1.36-1.07-.04-.45-.21-.62-1.84,1.25-.4,1.76-1.47,1.73-3.03,1.24.2.54-1.37,1.81-1.16-.23-.8-.21-.5-.06-1.33,1.81.21.72-2.24,2.29-2.25-.18-.26-.62-.24-.57-.77,1.08.29.5-.91,1.57-.61-.02-.45-.04-.89-.07-1.34.23-.22.59-.32,1.05-.32,1.56-4.03,4.49-6.81,6.16-10.74.92-.02,1.21-.6.99-1.65.78.03.79-.64,1.58-.62.65-3.57,4.05-4.66,4.68-8.26,2.93-.66,2.23-4.61,5.08-5.33-.18-.26-.63-.25-.58-.77.88-.05,1.31-.52,2.39-.39,1.2.85-.31,1.38,1.4,1.27-1.11,1.21.34,4.74,1.55,4.2.39.07.07,2.02,1.42,1.81-.14.83.33.96.35,1.59,3.43,2.86,4.09,8.8,7.53,11.66.12.45-.19.52-.51.57h0Z"/>
  <path class="cls-2" d="M65.94,78.07c0,.18-.24.14-.42.14-.07-.25.28-.1.42-.14h0Z"/>
  <path class="cls-2" d="M60.01,80.62c-.03.19-.19.24-.36.28-.07-.28.21-.22.36-.28h0Z"/>
  <path class="cls-2" d="M55.21,84.08c.15-.02.03.25.07.35-.15.11-.6.29-.35.57-.53.07.02-.74.28-.92h0Z"/>
  <path class="cls-2" d="M57.4,84.71c.1.27-.08.43-.14.78-.2-.01-.13-.29-.14-.49.18,0,.27-.11.28-.29h0Z"/>
  <path class="cls-2" d="M54.43,87.89c-.14-.12-.09,0-.28,0v-.21c.2.06.18-.1.35-.07-.05.07-.08.16-.07.29h0Z"/>
  <text class="cls-5" transform="translate(24.05 111.7) scale(.79 1)"><tspan x="0" y="0">5</tspan></text>
  <g>
    <path class="cls-6" d="M53.08,72.51l3.4,55.6s-6.37,5.09,10.61,4.24c16.98-.85,96.77,1.7,98.47,1.7s7.22-1.27,7.22-1.27v-14.43c0-11.88.25-44.51.25-44.51l-2.8-5.57s-5.09-1.7-8.91-1.27-70.88-.42-74.27-.42-33.95.85-33.95.85v5.09Z"/>
    <g>
      <path class="cls-1" d="M132.5,122.46c4.17-2.44,3.5,1.68,3.02,4.55-1.27-.24-2.18.76-3.46.91-2.42.3-4.5-.98-5.33-3.26l-.57.17c-3.5,5.56-15.5,4.85-16.17-2.49-.9-9.88,8.5-7.66,14.34-9.8s.08-7.56-4.6-4.33c-1.24.86-2.13,3.26-2.94,3.64-1.09.5-3.82.57-4.96.15-1.03-.38-.26-3.15.03-3.97,2.12-5.99,9.87-6.84,15.13-4.88,8.34,3.11,4.4,12.77,5.49,19.32ZM126.46,115.61c-1.89,2.29-3.78,2.21-6.25,2.93-3.86,1.14-5,5.36-.5,4.99,4.29-.35,6.57-3.88,6.75-7.93Z"/>
      <path class="cls-1" d="M84.79,94.5c2.22-1.28,2.29-.28,2.2,1.79-.08,1.7-.29,2.18-1.93,2.73-3.82,1.28-6.66-.38-8.09-3.97-2.28,3.33-5.65,4.62-9.53,3.23s-6.8-4.9-5.15-9.13c1.66-4.26,9.27-4.09,13.09-5.83,1.69-.77,3.06-1.49,2.43-3.62-1.14-3.85-8.14-1.87-9.21,1.23-.28.81-.08,1.89-.69,2.32-.99.72-3.81-.3-5.15-.02-1.04-1.55-.45-4.33.65-5.85,4.86-6.75,18.96-6.89,20.76,2.82.85,4.61.54,9.63.63,14.31ZM77.93,86.01c-1.02.3-1.73,1.07-2.74,1.5-2.26.98-7.25,1.1-7.67,4.14-.48,3.49,4.66,3.17,6.85,2.17,3.07-1.4,3.91-4.67,3.56-7.81Z"/>
      <path class="cls-1" d="M139.21,128.22c-.15-.03-.61-.31-.71-.46-.58-6.54-.24-13.26.29-19.82l-4.32-.07c-1-3.76-.52-6.48,4.04-5.69.32-4.27.88-9.26,4.85-11.74,4.18-2.61,11.52-2.29,13.61,2.75.54,1.3,1.86,5.99-.23,6.26-.3.04-4.49-.38-4.72-.49-1.02-.46-.27-1.18-.32-2.12-.15-2.9-1.77-4.2-4.39-2.45-2.53,1.69-2.67,5.89-2.36,8.63.28.49,4.69-.91,6.02,0,.99.68,1.08,5.04-.02,5.42s-4.94-1.07-5.58-.04c-.51.82-.32,13.76-.28,15.86.02,1.38.86,2.82-.4,3.96-1.65-.21-3.93.28-5.48,0Z"/>
      <path class="cls-1" d="M85.54,113.07c-.83.88-4.99,1.02-6.08.32l-.36-.42c.26-2.11-1.89-5.51-4.06-5.84-5.12-.78-7.58,6.43-6.63,10.47,1.46,6.2,10.1,6.66,12.68,1.03.26-.58.37-2.03.85-2.18l4.74,1.52c-1.48,10.23-14,13.19-21.49,6.96-3.64-3.03-4.71-9.5-3.51-13.91,2.74-10.06,18.91-13.04,23.24-2.8.46,1.1,1.53,3.89.62,4.86Z"/>
      <path class="cls-1" d="M164.84,95.87l-.28,7.13c1.75.26,5.95-1.61,6.73.53.14.39.43,2.2.42,2.61-.13,3.23-5.63,1.64-7.7,1.78.32,3.58-.68,9.73.88,12.96,1.48,3.05,8.67-.37,6.05,6.17-1.01,2.54-5.48,2.46-7.71,1.78-3.05-.93-4.21-2.85-4.86-5.83-1.03-4.68-.8-10.07-.4-14.81-3.61.86-5.18.81-4.66-3.43.28-2.33,2.1-1.5,3.84-2.19,2.18-.87,3.16-3.83,2.5-6.01.06-.24,1.04-.7,1.2-.7h3.98Z"/>
      <path class="cls-1" d="M102.33,86.28c-.47-.45,4.17-5.81.98-7.15-1.97-.82-5.13.54-6.06,2.48-.88,1.86-1.18,6.47-1.24,8.63-.08,2.84.48,5.7.03,8.47-.52.83-5.72.41-6.89.34-.22-.16-.38-.93-.41-1.24-.6-6.81.15-13.86.44-20.7.05-1.12-.6-3.26.4-3.44,1.27-.22,3.92-.24,5.19.02l.97,4.09c3.47-6.16,11.96-7.68,13.64.76.33,1.65.93,6.74-1.01,7.35-.2.06-1.97.4-2.07.4h-3.98Z"/>
      <path class="cls-1" d="M114.67,78.33c-3.34.15-5.29,1.42-4.64-3.13.37-2.55,1.81-1.79,3.56-2.2,2.73-.64,2.5-3.65,3.25-5.8h4.15c.82.57-.34,5.3-.02,6.46,1.5.03,5.94-1.36,6.72.27.43.9.35,4.93-1.1,4.93h-5.35c.43,3.75-1.28,9.9.26,13.31,1.46,3.24,5.55,1.03,6.34,1.61.98.72-.24,3.6-1.29,4.23-2.67,1.61-7.97,1.4-10.08-1.08-.71-.83-1.8-3.77-1.8-4.77v-13.84Z"/>
      <path class="cls-1" d="M108.28,114.7c-.87.95-3.89,1.07-5.14.79-.93-.65,1.67-7.84-2.58-7.57-4.24.28-4.94,5.89-5.09,9.18-.16,3.46.64,6.85.16,10.31l-6.73.81.52-25.36c.33-.17,4.21-.38,4.61-.2,1.55.67.82,3.3,1.58,3.63,3.1-5.91,12.95-5.21,13.81,1.81.2,1.58-.04,5.39-1.15,6.6Z"/>
    </g>
  </g>
</svg>