<?xml version="1.0" encoding="UTF-8"?>
<svg id="Layer_1" data-name="Layer 1" xmlns="http://www.w3.org/2000/svg" viewBox="0 0 180 200">
  <defs>
    <style>
      .cls-1, .cls-2 {
        fill-rule: evenodd;
      }

      .cls-1, .cls-3 {
        fill: #231f20;
      }

      .cls-4 {
        fill: #1a223b;
      }

      .cls-5 {
        fill: #fff;
      }

      .cls-2 {
        fill: #ffda40;
      }

      .cls-3 {
        font-family: AmericanTypewriter-Bold, 'American Typewriter';
        font-size: 20.52px;
        font-weight: 700;
      }

      .cls-6 {
        letter-spacing: -.08em;
      }
    </style>
  </defs>
  <g>
    <path class="cls-5" d="M46.33,62.2l-.09,36.96-.15,16s9.63.18,16.88.83c2.72.24,12.81.32,12.81.32,0,0,62.43-.26,63.39-.26s20.68.71,20.68.71c0,0,17.3.76,17.3-.53,0-5.88.44-12.73.44-12.73l.32-32.65-.96-8.32-130.62-.32Z"/>
    <g>
      <path class="cls-4" d="M122.3,82.88c.62,1.74-.07,3.54-.25,5.29,1.62-1.52,3.96-3.98,4.66-.25.73-.71,3.38-1.57,3.91-2.14s.49-2.68,1.9-2.9c2.09-.32.98,2.66-.39,3.15l1.48.79-.64,3c.51,1.03,1.58.6,2.4.22,1.47-.68,4.61-3.54,5.75-3.83.46-.12.56,0,.83.34l-.51,2.14c1.81.14,3.72-.79,5.3-1.63.77-.41,2.32-1.76,2.9-1.89,1.67-.39-.48,2.39-.13,2.77l3.62-1.72c.97.42.56,1.35.66,2.11.05.37-.14.41.39.38,1.01-.06,1.99-1.46,2.81-1.98,4.74-3.04,9.27-3.77,9.91,3.23l5.98-3.21c.2-.25,2.71-.86,2.33.06-.28.68-3.5,1.72-4.36,2.19-1.26.68-2.39,1.72-3.72,2.33-.49,1.48-.09,3.09-.35,4.69-.71,4.55-4.27,8.7-8.09,11.06-2.15,1.33-5.37,1.82-5.36-1.63,0-3.09,5.59-9.39,7.9-11.46.71-.64,4.38-3.04,4.53-3.28.58-.96-.39-3.95-1.51-4.53-1.24,1.33-3.94,3.09-4.03,0-.91.65-2.04.97-2.98,1.55-1.17.72-2.18,2.48-3.95,1.85-.71-.35-.49-1.47-.51-2.15-1.07.67-4.96,3.15-4.33.33.19-.87-1.41.42-1.71.55-1.78.79-6.36,2.93-6.67-.12-1.6,1.15-6.43,5.2-7.9,2.36-.63-1.22.2-1.73.24-2.95-.02-.08-1.33-.82-1.41-.83-.24-.02-3.94,2.09-4.14,2.32-.39.44-.39,1.08-.71,1.55-.81,1.2-2.71,2.98-4.23,2.11-.64-2.17,4.25-3.24,3.64-5.14-.35-1.09-2.26.68-2.62,1.09-.88.97-2.06,3.46-2.58,4.73s-1.67,6.05-2.2,6.62c-.3.31-.47.29-.88.25.7-5.81,4.14-11.02,4.32-16.96l.71-.42ZM163.12,86.15v-.5c-.59.34-1.78.34-1.76,1.26l1.76-.76ZM165.9,92.2c-1.2.54-2.54,1.54-3.53,2.39-2.03,1.75-7.84,8.25-7.82,10.84s2.53,1.3,3.83.54c2.95-1.76,7.52-6.47,7.52-10.11v-3.65Z"/>
      <path class="cls-4" d="M87.79,76.83h3.78c.41-.89,1.28-6.27,2.39-6.04.39.08.4.76.37,1.1-.05.59-1.45,4.54-1.25,4.69,1.64-.02,3.28.03,4.92.01.37,0,2.29-.58,2.14.37,0,.37-.27.55-.57.69-.91.41-6.49.22-6.73.45-.1,2.22-1.27,4.4-1.71,6.48-.62,2.88-1.36,9.2-1.08,12.04.09.93,1.3,3.36-.97,1.47-.85-2.81.05-6.21.22-9.16-1.24,1.17-2.02,2.77-3.14,4.03-.97,1.09-3.41,3.24-4.65,3.91-5,2.72-5.12-2.71-4.55-6.18-3.24,1.62-10.16,3.11-11.09-1.77-7.18,3.99-3.57-5.26.32-3.22.28.15.76.43.69.82-.13.71-1.76-.09-2.51.26-.31.15-1.63,1.52-1.26,1.88l3.39-1.51c.48.12.42,2.17.92,2.87,1.48,2.05,8,.87,9.63-.83.22-.23.85-3.26,1.11-3.99,1.65-4.71,5.64-13.14,8.68-17.02,1.23-1.57,3.65-3.77,3.99-.29.31,3.24-2,6.04-3.02,8.94ZM89.55,67.26c-.44-.11-.5.18-.76.38-2.37,1.81-8.73,15.08-9.65,18.31-.11.4-.22.79-.17,1.21,1.17-.68,7.22-8.66,6.55-9.32-.52,0-1.88-.03-1.51-.88.34-.78,2-.05,2.54-.54.31-.28,2.3-4.36,2.51-4.99.46-1.41.6-2.68.49-4.17ZM91.06,78.09h-4.28c-1.19,2.65-3.06,5.3-4.91,7.56-1.56,1.91-3.67,3.06-3.9,5.67-.14,1.6.11,3.21.47,4.76,1.02,1.48,6.02-2.84,6.82-3.77,3.2-3.68,3.86-5.63,4.87-10.25.13-.59,1.11-3.81.93-3.98Z"/>
      <path class="cls-4" d="M63.85,76.08c-.52-.7,3.13-1.8,2.73-3.34-.53-2.07-5.65-.34-7.02.2-2.53,1.01-8.5,4.05-8.06,7.28.28,2.01,5.64,6.7,7.17,8.46,3.34,3.82,6.08,7.97.29,11.13-2.77,1.51-5.59,1.22-7.86-1.04-1.01-1.01-3.05-4.74-1.38-5.68,1.33-.75.67,1.39.82,2.22.29,1.66,2.77,3.92,4.42,4.16,1.88.27,6.18-1.81,6.12-3.84-.1-3.55-5.19-7.56-7.45-10.22-3.38-3.96-5.49-6.27-.49-10.32,2.33-1.89,8.16-4.7,11.12-4.77,5.4-.13,3.97,6.63-.42,5.77Z"/>
      <path class="cls-4" d="M119.53,75.33c1.32-.08,1.96-1.57,1.26-2.65-3.76-1.17-11.42,1.34-13.15,5-2.45,5.18,3.04,7.78,5.83,11.39,2.92,3.76,4.8,8.46-.76,10.82-2.14.91-3.83,1.22-6.02.23s-4.45-4.82-2.67-6.9c.83-.17.61,1.72.74,2.28.99,4.37,5.28,4.74,8.63,2.55,3.09-2.02.91-5.84-.82-8.09-3.12-4.05-9.07-6.82-6.04-12.88,1.96-3.93,9.97-6.65,14.07-5.73,1.59.36,1.99,2.04,1.19,3.35-.4.66-2.26,2.09-2.27.63Z"/>
      <path class="cls-4" d="M85.27,108.83c.14-.87-.09-1.41-.51-2.14.34-.57,1.76-.57,2.02,0l-.77,1.01.52,4.41h-1.26s-.03-2.1-.03-2.1c-.23-.7-1.64-.34-2.23-.41l-.04,2.23c-.55.25-1.08.51-1.48-.09.88-1.27.38-2.8.52-4.27l-.77-.14c-.45-1.3,1.9-1.25,2.02-.62-1.33,2.24-.01,2.28,2.02,2.14Z"/>
      <path class="cls-4" d="M108.63,106.35c1.23-.25,3.31.6,3.82,1.87,1.97,4.91-6.03,5.19-5.78.99.06-1.06.83-2.63,1.96-2.86ZM111.4,110.77c2.23-2.24-3.16-5.46-3.69-2.06-.38,2.43,2.36,3.4,3.69,2.06Z"/>
      <path class="cls-4" d="M92.01,106.11c1.08-.21,3.15.69,3.48,1.69.98,2.96-1.1,5.22-4.1,3.85-2.04-.93-1.7-5.1.62-5.55ZM91.73,107.11c-.87.3-.78,2.45-.55,3.24,4.69,3.33,4.7-4.65.55-3.24Z"/>
      <path class="cls-4" d="M125.58,106.56c.39,2.01,1.49,3.67,2.65,5.29l-.27.49-1.62-.24.51-.63c0-.98-1.7-.94-2.37-1.15-.97,1.06.13,1.1.09,2.03l-2.01-.63c1.45-.89,1.48-3.39,2.32-4.73.2-.31.23-.53.69-.44ZM125.83,109.83l-.63-1.26-.38,1.26h1.01Z"/>
      <path class="cls-4" d="M132.89,107.32l-1.63-.02-.64.77-.23-1.09c.32-1.17,4.31-.12,5.36-.38.58.19.41.99.41,1.48-.69.31-.74-.46-.92-.5-.5-.09-1.08.04-1.6,0v3.53h1.26c.74.65-2.6,1.19-3.02,1.01l.18-.76.83-.38v-3.65Z"/>
      <path class="cls-4" d="M139.69,107.32h-1.01c-.18-.6.45-.68.9-.73.98-.12,3.46-.43,3.13.98l-2.27-.25.02,1.5,1.22.24.4-.72.39.63-.5.75-1.52-.12.37,1.45,2.16-.06c-.04,1.34-3.38.75-4.29.88v-.75s1.01,0,1.01,0v-3.78Z"/>
      <path class="cls-4" d="M77.96,107.32c-1.8-.27-2.35-.64-3.24,1.17-1.57,3.18,1.11,2.83,3.49,2.36.89,1.05-3.24,1.97-4.43.53-1.07-1.3.24-4.95,1.85-5.27.81-.16,2.32.2,2.33,1.21Z"/>
      <path class="cls-4" d="M103.39,106.83v.73c-.16.18-3.39-1.27-3.54,1.63-.06,1.28.15,1.76,1.41,1.9.71.08,2.81-.37,2.13.74-.14.23-1.74.32-2.13.28-4.39-.44-2.19-7.7,2.13-5.28Z"/>
      <path class="cls-4" d="M118.02,106.31c.23.77-.94.61-1.02.91l.3,3.85,2.23-.13.52.53c-.2.98-5.5.52-4.53-.37l.77-.14v-3.52s-.77-1.13-.77-1.13h2.52Z"/>
      <path class="cls-4" d="M143.47,82.13l-.04.97c-.53.1-1.06.84-1.47.16-.09-.46.99-1.33,1.51-1.13Z"/>
    </g>
  </g>
  <polygon class="cls-2" points="28.45 75.46 4.89 109.95 6.06 111.44 51.01 109.88 34.86 80.22 30.06 74.6 28.45 75.46 28.45 75.46"/>
  <path class="cls-1" d="M26.56,79.93c-.85.37-.24-.86-1.09-.48-.41.14-.18.85-1.03.59-.33,1.41-.66,2.8-1.98,3.31-.32,1.48.75,1.42,1.18,2.08-1.86,1.36-1.87,5.71-5.14,4.27.3.79,1.28.83,1.43,1.8-.71.36-1.23.5-1.57.61,1.14.93-.3.7-.74,1.37-1.14,1.77-1.76,4.56-3.76,5-.07,1.29-.54,2.23-1.76,2.49.68,1.38-.39.19-.76.84,1.72.32-1.1,1.17.1,1.87-1.9.4-1.44,2.95-2.75,3.88-.17-.46.25-1.59-.34-1.59,0,.42.09.93-.5.83-.28.88.87.16.59,1.04-1.11.27-.9,1.73-1.48,2.49,2.78-.62,7.3-.66,10.41-.52.04-.21-.02-.53.24-.55,10.35.95,18.6-.66,31.25-1-.58-2.8-3.06-4.15-4.03-5.69-.32-2.37-2.56-2.61-2.66-5.22-1.2.18-1.03-.95-.88-1.55-1.06.02-2.03-1.7-1.17-2.09-.83.45-.9-.16-1.63-.46-1.93-5.83-6.54-9.94-8.75-14.54.01.27-.45.36-.53.02.32-.04.63-.11.51-.56-.75.26-.71-.34-1.35-.2-1.29,1.8-1.87,4.25-4.02,5.28.56.92-.2,1.3-.7,1.91-.33-1.06-.07-2.08.39-2.96.44-.02.18.73.57.78.06-1.15.97-3.33,1.76-2.23-.03-.37.09-.59.22-.82h0ZM42.15,92.27c1.58.23,1.17,2.66,2.82,2.81.04,1.73.93,2.54,2.03,3.11-.12,1.83.91,2.38,2.01,2.85.12.45-.18.51-.51.56.38.37,1.26.61.6,1.31.21-.15.42-.3.78-.31.12.53-.01.84-.49.83.53.68,2.07,2.13,1.2,2.61.27.45.86.55,1.62.46.15,2.18,1.35,3.2,1.35,5.55-.26-.15-1.01-.57-.78.3-.48-.5-1.86,0-1.92-.97-.59,1.05-1.83-.7-3.17.7-.81.13-.6-.84-.87-1.3-.76.27.38.65.07,1.33-.21-.17-.9-1.08-.8.04-3.73-.26-9.26-.28-12.56.08-.01-.26-.03-.53-.04-.8-1.21.71-2.61.85-3.74.19-.72,1.04-5.69,1.07-7.21.36-2.93,1.68-9.46.1-10.87,1.87-2.3-1.29-6.26.17-9.14-.88-.27-.84.18-1.02.47-1.37-1.07-.04-.45-.2-.62-1.84,1.24-.41,1.75-1.47,1.72-3.03,1.24.2.54-1.37,1.81-1.16-.23-.81-.22-.5-.07-1.34,1.81.2.72-2.23,2.29-2.25-.18-.27-.63-.25-.57-.78,1.07.3.5-.9,1.57-.61-.02-.45-.04-.89-.07-1.33.23-.22.59-.32,1.05-.32,1.57-4.03,4.49-6.81,6.16-10.74.92-.02,1.21-.6.99-1.66.78.04.78-.64,1.57-.61.65-3.58,4.06-4.66,4.67-8.26,2.93-.65,2.23-4.6,5.08-5.33-.18-.26-.62-.25-.58-.77.88-.06,1.31-.52,2.39-.39,1.2.85-.31,1.38,1.4,1.27-1.1,1.21.34,4.73,1.55,4.2.39.07.07,2.02,1.42,1.8-.14.82.33.96.36,1.59,3.43,2.87,4.09,8.8,7.53,11.66.12.45-.18.52-.51.56h0Z"/>
  <text class="cls-3" transform="translate(17.92 106.15) scale(.79 1)"><tspan class="cls-6" x="0" y="0">5</tspan><tspan x="11.82" y="0">1</tspan></text>
</svg>