<?xml version="1.0" encoding="UTF-8"?>
<svg id="Layer_1" data-name="Layer 1" xmlns="http://www.w3.org/2000/svg" viewBox="0 0 180 200">
  <defs>
    <style>
      .cls-1 {
        fill: #fff;
      }

      .cls-1, .cls-2, .cls-3, .cls-4, .cls-5, .cls-6 {
        fill-rule: evenodd;
      }

      .cls-2, .cls-7 {
        fill: #231f20;
      }

      .cls-3 {
        fill: #153056;
      }

      .cls-5 {
        fill: #ffda40;
      }

      .cls-7 {
        font-family: AmericanTypewriter-Bold, 'American Typewriter';
        font-size: 20.52px;
        font-weight: 700;
      }

      .cls-6 {
        fill: #dfac25;
      }
    </style>
  </defs>
  <polygon class="cls-5" points="27.58 77.99 4.02 112.48 5.19 113.97 50.14 112.41 33.99 82.75 29.19 77.13 27.58 77.99 27.58 77.99"/>
  <path class="cls-2" d="M25.69,82.46c-.85.37-.24-.86-1.09-.48-.41.14-.18.85-1.03.59-.33,1.41-.66,2.8-1.98,3.31-.32,1.48.75,1.42,1.18,2.08-1.86,1.36-1.87,5.71-5.14,4.27.3.79,1.28.83,1.43,1.8-.71.36-1.23.5-1.57.61,1.14.93-.3.7-.74,1.37-1.14,1.77-1.76,4.56-3.76,5-.07,1.29-.54,2.23-1.76,2.49.68,1.38-.39.19-.76.84,1.72.32-1.1,1.17.1,1.87-1.9.4-1.44,2.95-2.75,3.88-.17-.46.25-1.59-.34-1.59,0,.42.09.93-.5.83-.28.88.87.16.59,1.03-1.11.27-.9,1.73-1.48,2.49,2.78-.62,7.3-.66,10.41-.52.04-.21-.02-.53.24-.55,10.35.95,18.6-.66,31.25-1-.58-2.8-3.06-4.15-4.03-5.69-.32-2.37-2.56-2.61-2.66-5.22-1.2.18-1.03-.95-.88-1.55-1.06.02-2.03-1.7-1.17-2.09-.83.45-.9-.16-1.63-.46-1.93-5.83-6.54-9.94-8.75-14.54.01.27-.45.36-.53.02.32-.04.63-.11.51-.56-.75.26-.71-.34-1.35-.2-1.29,1.8-1.87,4.25-4.02,5.28.56.92-.2,1.3-.7,1.91-.33-1.06-.07-2.08.39-2.96.44-.02.18.73.57.78.06-1.15.97-3.33,1.76-2.23-.03-.37.09-.59.22-.82h0ZM41.28,94.8c1.58.23,1.17,2.66,2.82,2.81.04,1.73.93,2.54,2.03,3.11-.12,1.83.91,2.38,2.01,2.85.12.45-.18.51-.51.56.38.37,1.26.61.6,1.31.21-.15.42-.3.78-.31.12.54-.01.84-.49.83.53.68,2.07,2.13,1.2,2.61.27.45.86.55,1.62.46.15,2.18,1.35,3.2,1.35,5.55-.26-.15-1.01-.57-.78.3-.48-.5-1.86,0-1.92-.97-.59,1.05-1.83-.7-3.17.7-.81.13-.6-.84-.87-1.3-.76.27.38.65.07,1.33-.21-.17-.9-1.08-.8.04-3.73-.26-9.26-.28-12.56.08-.01-.26-.03-.53-.04-.8-1.21.71-2.61.85-3.74.19-.72,1.04-5.69,1.07-7.21.36-2.93,1.68-9.46.1-10.87,1.87-2.3-1.29-6.26.17-9.14-.88-.27-.84.18-1.02.47-1.37-1.07-.04-.45-.2-.62-1.84,1.24-.41,1.75-1.46,1.72-3.03,1.24.2.54-1.37,1.81-1.16-.23-.81-.22-.5-.07-1.34,1.81.2.72-2.23,2.29-2.25-.18-.27-.63-.25-.57-.78,1.07.3.5-.9,1.57-.61-.02-.45-.04-.89-.07-1.33.23-.22.59-.32,1.05-.32,1.57-4.03,4.49-6.81,6.16-10.74.92-.02,1.21-.6.99-1.66.78.03.78-.64,1.57-.61.65-3.58,4.06-4.66,4.67-8.26,2.93-.65,2.23-4.6,5.08-5.33-.18-.26-.62-.25-.58-.77.88-.06,1.31-.52,2.39-.39,1.2.85-.31,1.38,1.4,1.27-1.1,1.21.34,4.73,1.55,4.2.39.07.07,2.02,1.42,1.8-.14.82.33.96.36,1.59,3.43,2.87,4.09,8.8,7.53,11.66.12.45-.18.52-.51.56h0Z"/>
  <g>
    <g>
      <path class="cls-1" d="M110.83,125.18c-3.88-.3-6.57-.47-9.25-.73-6.22-.59-12.47-.99-18.65-1.94-3.97-.61-7.84-2.03-11.74-3.13-4.8-1.36-9.24-3.69-13.33-6.71-2.62-1.93-4.96-4.34-7.4-6.57-2.34-2.13-3.03-5.02-2.87-8.28.08-1.73.13-3.47.18-5.21.09-2.77.7-5.37,2.13-7.69,2.3-3.73,4.58-7.46,7.72-10.46,3.6-3.45,7.59-6.02,12.07-7.65,2.75-1,5.52-1.97,8.34-2.71,1.96-.51,4.01-.56,6-.88,3.33-.55,6.65-1.17,9.98-1.73,2.79-.46,5.59-1.01,8.4-1.25,3.82-.33,7.7-.09,11.49-.67,5.66-.87,11.29-.34,16.93-.34,1.41,0,2.83.14,4.22.4,5.37,1.01,10.79,1.8,16.07,3.22,4.28,1.15,8.51,2.7,12.47,5.02,3.2,1.86,5.46,4.81,7.68,7.82.9,1.21,1.66,2.55,2.45,3.86,3.99,6.55,3.77,13.59,1.01,20.47-1.43,3.58-3.83,6.7-6.14,9.79-1.61,2.16-3.63,3.79-5.25,5.9-.45.59-1.3.78-1.89,1.26-2.57,2.12-5.64,2.65-8.56,3.77-4.76,1.83-9.62,2.08-14.49,2.61-1.54.17-3.06.54-4.61.72-2.94.34-5.89.76-8.84.88-5.1.2-10.21.18-14.12.24ZM123.83,61.38c-3.09.1-6.19.25-9.28.28-6.62.07-13.15,1.14-19.67,2.32-2.73.49-5.42,1.31-8.15,1.59-6.13.62-12.16,1.69-17.98,4.04-5.17,2.09-9.47,5.33-12.09,11.03-1.32,2.88-2.96,5.59-4.49,8.35-1.48,2.66-2.9,5.36-2.65,8.63.13,1.68.18,3.56.89,4.93.91,1.76,2.36,3.24,3.76,4.6,2.48,2.41,5.15,4.55,8.17,6.08,2.75,1.39,5.44,2.96,8.26,4.13,2.38.99,4.92,1.51,7.38,2.25,1.16.35,2.29.89,3.47,1.05,4.93.67,9.88,1.28,14.83,1.8,3.95.42,7.9.72,11.86.97,2.47.16,4.96.21,7.43.15,3.49-.1,6.98-.29,10.47-.55,3.01-.24,6.03-.55,9.02-.98,3-.43,5.99-1.04,8.97-1.58.6-.11,1.21-.21,1.78-.41,2.45-.85,4.89-1.69,7.32-2.62,1.27-.49,2.55-1,3.74-1.7,2.56-1.52,5.07-3.14,7.38-5.15,4.32-3.75,7.66-8.23,9.45-14.1,1.41-4.6,1.43-9.09-.56-13.39-1.99-4.3-4.59-8.12-7.85-11.32-.7-.69-1.45-1.5-2.3-1.76-2.22-.68-4.07-2.25-6.22-3-3.45-1.2-6.8-2.68-10.48-3.12-7.48-.88-14.94-2.08-22.48-2.52Z"/>
      <path class="cls-3" d="M111.07,123.3c-3.77-.28-6.38-.45-8.99-.69-6.04-.57-12.11-.94-18.11-1.85-3.85-.58-7.61-1.93-11.41-2.97-4.66-1.28-8.97-3.48-12.96-6.33-2.55-1.83-4.82-4.1-7.19-6.2-2.28-2.02-2.95-4.75-2.8-7.83.08-1.64.12-3.27.17-4.91.09-2.62.68-5.07,2.07-7.26,2.24-3.52,4.44-7.03,7.48-9.87,3.49-3.25,7.37-5.67,11.71-7.2,2.67-.94,5.37-1.86,8.1-2.55,1.9-.48,3.89-.52,5.83-.83,3.23-.51,6.46-1.1,9.69-1.62,2.71-.44,5.43-.95,8.16-1.17,3.71-.31,7.48-.07,11.16-.62,5.5-.81,10.96-.31,16.44-.31,1.37,0,2.75.14,4.1.39,5.21.95,10.48,1.7,15.61,3.04,4.16,1.09,8.27,2.56,12.11,4.74,3.1,1.77,5.3,4.55,7.47,7.39.87,1.14,1.61,2.41,2.39,3.64,3.88,6.19,3.68,12.83,1.01,19.32-1.39,3.38-3.72,6.32-5.96,9.23-1.57,2.04-3.52,3.57-5.1,5.56-.44.56-1.26.73-1.83,1.2-2.5,1.99-5.47,2.5-8.31,3.55-4.62,1.72-9.34,1.95-14.08,2.44-1.5.16-2.97.51-4.47.68-2.86.31-5.72.71-8.58.82-4.96.18-9.92.16-13.71.2ZM123.64,63.13c-3.01.09-6.01.23-9.01.26-6.43.06-12.77,1.06-19.1,2.16-2.65.46-5.26,1.24-7.92,1.49-5.96.58-11.81,1.59-17.46,3.79-5.03,1.97-9.2,5.02-11.73,10.4-1.28,2.72-2.88,5.27-4.36,7.87-1.43,2.51-2.81,5.05-2.57,8.14.12,1.58.18,3.36.87,4.66.89,1.66,2.3,3.05,3.66,4.34,2.41,2.27,5.01,4.3,7.94,5.74,2.67,1.31,5.29,2.79,8.03,3.9,2.32.93,4.78,1.43,7.17,2.13,1.13.33,2.23.84,3.38,1,4.79.63,9.6,1.22,14.4,1.71,3.83.4,7.68.69,11.52.93,2.4.15,4.82.21,7.23.15,3.39-.09,6.78-.27,10.17-.51,2.93-.22,5.85-.51,8.76-.91,2.91-.4,5.81-.97,8.71-1.48.58-.1,1.17-.19,1.73-.38,2.37-.79,4.75-1.59,7.11-2.46,1.24-.45,2.48-.95,3.63-1.61,2.48-1.43,4.91-2.95,7.16-4.85,4.19-3.54,7.43-7.75,9.16-13.3,1.36-4.34,1.38-8.57-.56-12.63-1.94-4.05-4.47-7.67-7.64-10.69-.68-.65-1.41-1.42-2.24-1.66-2.15-.65-3.95-2.13-6.04-2.84-3.35-1.13-6.6-2.54-10.18-2.95-7.27-.84-14.51-1.98-21.84-2.4Z"/>
      <path class="cls-1" d="M123.64,63.13c7.33.42,14.57,1.56,21.84,2.4,3.57.41,6.83,1.82,10.18,2.95,2.09.71,3.89,2.19,6.04,2.84.83.25,1.56,1.01,2.24,1.66,3.17,3.02,5.7,6.63,7.64,10.69,1.94,4.06,1.92,8.29.56,12.63-1.74,5.54-4.97,9.76-9.16,13.3-2.25,1.89-4.67,3.42-7.16,4.85-1.15.66-2.39,1.15-3.63,1.61-2.36.87-4.73,1.66-7.11,2.46-.56.19-1.15.28-1.73.38-2.9.51-5.8,1.08-8.71,1.48-2.91.4-5.84.7-8.76.91-3.39.25-6.78.43-10.17.51-2.41.06-4.82,0-7.23-.15-3.84-.24-7.68-.53-11.52-.93-4.81-.5-9.61-1.08-14.4-1.71-1.15-.15-2.25-.67-3.38-1-2.39-.7-4.85-1.2-7.17-2.13-2.74-1.1-5.36-2.58-8.03-3.9-2.93-1.45-5.53-3.47-7.94-5.74-1.36-1.29-2.77-2.68-3.66-4.34-.7-1.3-.75-3.07-.87-4.66-.24-3.09,1.14-5.63,2.57-8.14,1.48-2.61,3.07-5.15,4.36-7.87,2.53-5.38,6.7-8.44,11.73-10.4,5.65-2.21,11.51-3.21,17.46-3.79,2.66-.26,5.27-1.04,7.92-1.49,6.33-1.1,12.67-2.11,19.1-2.16,3-.02,6-.17,9.01-.26Z"/>
    </g>
    <g>
      <path class="cls-4" d="M98.24,113.2c-.29.06-.57.11-.85.16-.59.12-1.18.25-1.77.38-.45.09-.85.19-1.35.02-.28-.09-.76.01-1.11.1-.44.11-.81.33-1.25.44-.21.05-.62,0-.74-.1-.24-.2.06-.34.32-.45,1.54-.67,3.13-1.26,4.97-1.46,1-.11,2.01-.23,3.01-.34.63-.07.63-.06,1.34-.52-.94,0-1.72-.04-2.49.01-1.08.07-2.16.21-3.24.31-.47.05-.94.1-1.4.1-.15,0-.35-.14-.41-.25-.03-.06.14-.23.27-.27.22-.07.49-.09.74-.12,1.72-.21,3.44-.41,5.16-.62.34-.04.66-.12,1-.18,0-.06-.01-.11-.02-.17-.77-.04-1.54-.09-2.32-.14-.9-.05-1.33-.18-1.2-.42.24-.41.8-.23,1.24-.23,1.94-.03,3.84.15,5.73.44,1.25.19,2.41.49,3.57.88,1.27.42,2.65.67,3.94,1.06,1.22.37,2.4.81,3.56,1.26.72.28,1.38.63,2.06.97.21.1.39.24.58.36-.41.32-.68.11-.93,0-1.23-.51-2.46-1.04-3.69-1.56-.81-.35-.8-.32-1.6.05-.68.32-1.44.56-2.15.86-1.86.78-3.58,1.67-4.81,2.92-.64-.37-.68-.51-.29-.94.24-.26.51-.5.87-.85-.69-.02-1.03.2-1.27.4-.56.48-1.26.79-2.12.97-.36-.1-.38-.29-.19-.47.23-.22.52-.41.79-.61.29-.21.59-.41.81-.69-2.01.23-3.61.99-5.14,1.84-.49-.18-.58-.4-.22-.66.32-.23.69-.42.97-.7-.66-.02-1.21.14-1.66.39-.66.37-1.39.05-2.07.14-.28.04-.48-.33-.25-.53.3-.26.67-.51,1.09-.68.68-.28,1.42-.49,2.13-.75.18-.06.33-.15.5-.24-.03-.05-.06-.09-.08-.14ZM103.92,113.59s.05.09.07.13c.13-.04.26-.08.39-.13-.02-.03-.03-.06-.05-.09-.14.03-.28.06-.41.09Z"/>
      <path class="cls-1" d="M107.57,113.36c-.08,0-.15.02-.21,0-.31-.05-.58,0-.72.19-.13.19.14.29.27.41.11.1.2.21.21.37-.17-.1-.33-.21-.51-.3-.2-.1-.37-.28-.68-.19-.3.09-.38.26-.19.53-.92-.23-1.2.36-1.82.51-.12-.44.6-.47.72-.76-.44-.36-.67-.34-1.39.14.05.05.11.1.18.17-.24.06-.46.12-.69.16-.08.02-.23,0-.28-.05-.05-.05-.06-.16,0-.2.2-.15.43-.29.65-.43.18-.11.53-.19.33-.4-.16-.18-.46-.19-.76-.1-.17.05-.35.08-.66.15.08-.17.1-.26.16-.34.25-.31.25-.32-.09-.56-.34-.23-.34-.29-.02-.54.4-.31.4-.31.02-.64-.13-.12-.28-.23-.39-.35-.14-.16-.13-.3.21-.4.24.2.47.41.72.61.44.35.65.33.95-.09.02-.03.06-.05.11-.09.09,0,.19,0,.29,0,.43,0,.51-.09.43-.38-.02-.1.02-.21.02-.32.18.02.38.02.52.09.29.13.54.29.8.45.3.18.6.28.99.12.07-.03.19-.02.42-.02-.16.18-.27.31-.39.44.46.47.52.48,1.34.27.2.12.03.2-.05.3-.17.23-.08.33.29.32.15,0,.29-.02.44-.03-.05.35-.14.46-.55.48-.45.03-.65.18-.68.48ZM105.49,112.06c.25.14.44.28.67.37.23.09.48,0,.63-.13.18-.16,0-.27-.17-.37-.37-.22-.62-.2-1.13.13ZM103.42,113.01c.21.12.37.24.57.31.24.08.48.03.63-.12.16-.16-.03-.27-.19-.37-.32-.19-.51-.16-1,.17ZM104.55,111.45c.13.22.29.37.59.3.18-.04.4-.16.43-.28.05-.17-.18-.27-.46-.31-.16.09-.35.18-.56.29ZM103.5,112.43c-.37-.29-.57-.34-.79-.22-.18.1-.15.28.06.41.22.13.35.1.73-.19ZM104.63,112.43c.21.14.36.27.55.36.09.04.32.04.39-.01.17-.11,0-.21-.13-.28-.2-.09-.39-.24-.82-.07ZM105.65,113.59c-.26-.24-.49-.19-.69-.1-.09.05-.12.16-.17.24.14.04.31.13.43.1.16-.04.28-.16.43-.25ZM107.71,112.58c-.42-.16-.63-.04-.81.17q.4.14.81-.17ZM103.69,111.88c.08.17.23.28.53.26.05,0,.14-.09.12-.12-.11-.17-.29-.27-.58-.19-.02,0-.03.02-.06.05ZM106.56,113.21c-.11-.1-.19-.2-.22-.19-.14.02-.27.08-.41.12.04.06.09.17.12.16.15,0,.29-.05.51-.09Z"/>
      <path class="cls-1" d="M103.92,113.59c.14-.03.28-.06.41-.09.02.03.03.06.05.09-.13.05-.26.09-.39.13-.02-.04-.05-.09-.07-.13Z"/>
    </g>
    <g>
      <path class="cls-4" d="M129.03,113.11c.17.08.32.17.5.23.72.25,1.46.45,2.14.72.42.17.8.42,1.09.68.23.2.03.56-.25.53-.69-.09-1.41.23-2.08-.12-.45-.24-1.01-.39-1.66-.37.28.27.66.46.98.69.35.25.27.47-.22.66-1.54-.84-3.14-1.58-5.16-1.8.22.28.53.48.82.69.27.19.57.38.8.6.19.18.17.37-.18.47-.86-.17-1.57-.47-2.13-.95-.25-.21-.58-.41-1.28-.39.36.34.64.58.88.84.4.42.35.56-.28.94-1.24-1.24-2.97-2.12-4.84-2.88-.71-.29-1.47-.53-2.16-.84-.8-.36-.78-.38-1.6-.03-1.22.53-2.44,1.07-3.67,1.6-.25.11-.52.31-.93,0,.19-.12.37-.26.58-.37.68-.33,1.33-.69,2.05-.98,1.16-.46,2.33-.91,3.55-1.29,1.28-.4,2.67-.67,3.93-1.1,1.15-.39,2.3-.71,3.55-.91,1.89-.3,3.79-.51,5.72-.49.43,0,1-.19,1.24.22.14.23-.29.37-1.19.43-.78.05-1.55.1-2.32.16,0,.05-.01.11-.02.17.33.06.66.13,1,.17,1.72.19,3.44.38,5.16.57.25.03.51.05.74.11.13.04.3.21.27.27-.06.11-.26.25-.41.26-.47,0-.94-.05-1.41-.09-1.08-.09-2.16-.22-3.24-.28-.77-.04-1.55,0-2.49.01.71.45.72.44,1.35.51,1,.1,2.01.2,3.02.3,1.84.19,3.43.77,4.98,1.42.26.11.56.25.32.46-.12.1-.52.15-.73.1-.44-.1-.82-.32-1.26-.43-.35-.09-.83-.19-1.11-.09-.5.18-.9.08-1.35,0-.59-.12-1.18-.24-1.77-.36-.28-.06-.57-.11-.85-.16-.03.05-.06.1-.08.15ZM123.02,113.33s-.03.06-.05.09c.13.04.26.09.39.13.02-.05.05-.09.07-.14-.14-.03-.27-.06-.41-.08Z"/>
      <path class="cls-1" d="M119.11,112.75c-.42-.02-.5-.12-.56-.48.15,0,.3.03.44.03.37,0,.46-.1.29-.32-.08-.1-.25-.18-.05-.3.82.2.88.18,1.34-.29-.11-.12-.22-.25-.39-.44.22,0,.34-.01.42.02.39.16.7.06.99-.13.25-.16.51-.32.79-.45.14-.07.34-.07.52-.1.01.1.05.22.03.32-.07.29,0,.37.43.38.1,0,.21,0,.29,0,.05.04.09.05.11.08.31.42.51.44.95.08.24-.2.48-.4.71-.61.33.1.35.24.21.4-.11.13-.25.24-.38.36q-.38.33.02.64c.32.25.32.3-.02.54-.34.23-.34.25-.09.56.06.08.08.17.16.34-.3-.06-.48-.09-.65-.14-.29-.09-.59-.08-.76.1-.19.22.16.29.34.4.22.14.45.27.65.42.05.04.04.15,0,.2-.05.05-.19.07-.28.06-.23-.04-.45-.1-.69-.16.07-.07.12-.12.18-.17-.72-.48-.95-.49-1.39-.12.11.29.84.31.72.76-.63-.15-.9-.73-1.83-.49.19-.27.11-.44-.19-.53-.3-.09-.48.08-.68.19-.18.09-.34.2-.51.3.01-.16.1-.27.21-.37.13-.12.4-.23.27-.41-.14-.2-.41-.24-.72-.18-.06,0-.12,0-.21,0-.02-.29-.23-.45-.68-.47ZM120.72,111.78c-.16.09-.34.21-.16.37.16.13.4.21.63.11.23-.09.42-.23.67-.37-.51-.32-.77-.34-1.14-.11ZM122.92,112.67c-.16.09-.35.21-.19.37.15.14.39.2.63.11.2-.07.35-.19.56-.31-.49-.32-.69-.35-1.01-.16ZM122.22,110.99c-.28.05-.52.15-.46.32.04.11.26.23.44.27.29.07.46-.09.58-.31-.21-.1-.39-.2-.56-.28ZM124.57,112.44c.21-.13.24-.31.06-.41-.22-.12-.42-.07-.79.23.38.29.51.32.73.18ZM121.9,112.34c-.14.07-.3.17-.13.28.07.05.3.05.39,0,.19-.09.34-.22.55-.37-.44-.17-.62-.02-.82.08ZM122.14,113.67c.11.02.28-.07.43-.11-.06-.08-.08-.19-.17-.24-.2-.1-.43-.14-.69.1.16.09.27.22.43.25ZM120.44,112.59c-.18-.2-.39-.32-.81-.16q.41.31.81.16ZM123.59,111.65c-.3-.08-.48.02-.58.2-.02.02.07.12.12.12.29.01.45-.1.52-.27-.04-.04-.04-.05-.06-.06ZM121.31,113.14s.08-.11.12-.16c-.14-.05-.27-.1-.41-.12-.04,0-.1.09-.22.19.22.04.36.08.51.09Z"/>
      <path class="cls-1" d="M123.43,113.42c-.14-.03-.27-.06-.41-.08-.02.03-.03.06-.05.09.13.04.26.09.39.13.02-.05.05-.09.07-.14Z"/>
    </g>
    <path class="cls-4" d="M111.07,123.3c-3.77-.28-6.38-.45-8.99-.69-6.04-.57-12.11-.94-18.11-1.85-3.85-.58-7.61-1.93-11.41-2.97-4.66-1.28-8.97-3.48-12.96-6.33-2.55-1.83-4.82-4.1-7.19-6.2-2.28-2.02-2.95-4.75-2.8-7.83.08-1.64.12-3.27.17-4.91.09-2.62.68-5.07,2.07-7.26,2.24-3.52,4.44-7.03,7.48-9.87,3.49-3.25,7.37-5.67,11.71-7.2,2.67-.94,5.37-1.86,8.1-2.55,1.9-.48,3.89-.52,5.83-.83,3.23-.51,6.46-1.1,9.69-1.62,2.71-.44,5.43-.95,8.16-1.17,3.71-.31,7.48-.07,11.16-.62,5.5-.81,10.96-.31,16.44-.31,1.37,0,2.75.14,4.1.39,5.21.95,10.48,1.7,15.61,3.04,4.16,1.09,8.27,2.56,12.11,4.74,3.1,1.77,5.3,4.55,7.47,7.39.87,1.14,1.61,2.41,2.39,3.64,3.88,6.19,3.68,12.83,1.01,19.32-1.39,3.38-3.72,6.32-5.96,9.23-1.57,2.04-3.52,3.57-5.1,5.56-.44.56-1.26.73-1.83,1.2-2.5,1.99-5.47,2.5-8.31,3.55-4.62,1.72-9.34,1.95-14.08,2.44-1.5.16-2.97.51-4.47.68-2.86.31-5.72.71-8.58.82-4.96.18-9.92.16-13.71.2ZM123.64,63.13c-3.01.09-6.01.23-9.01.26-6.43.06-12.77,1.06-19.1,2.16-2.65.46-5.26,1.24-7.92,1.49-5.96.58-11.81,1.59-17.46,3.79-5.03,1.97-9.2,5.02-11.73,10.4-1.28,2.72-2.88,5.27-4.36,7.87-1.43,2.51-2.81,5.05-2.57,8.14.12,1.58.18,3.36.87,4.66.89,1.66,2.3,3.05,3.66,4.34,2.41,2.27,5.01,4.3,7.94,5.74,2.67,1.31,5.29,2.79,8.03,3.9,2.32.93,4.78,1.43,7.17,2.13,1.13.33,2.23.84,3.38,1,4.79.63,9.6,1.22,14.4,1.71,3.83.4,7.68.69,11.52.93,2.4.15,4.82.21,7.23.15,3.39-.09,6.78-.27,10.17-.51,2.93-.22,5.85-.51,8.76-.91,2.91-.4,5.81-.97,8.71-1.48.58-.1,1.17-.19,1.73-.38,2.37-.79,4.75-1.59,7.11-2.46,1.24-.45,2.48-.95,3.63-1.61,2.48-1.43,4.91-2.95,7.16-4.85,4.19-3.54,7.43-7.75,9.16-13.3,1.36-4.34,1.38-8.57-.56-12.63-1.94-4.05-4.47-7.67-7.64-10.69-.68-.65-1.41-1.42-2.24-1.66-2.15-.65-3.95-2.13-6.04-2.84-3.35-1.13-6.6-2.54-10.18-2.95-7.27-.84-14.51-1.98-21.84-2.4Z"/>
    <g>
      <path class="cls-6" d="M101.01,77.3c.07-.2.18-.4.2-.61.52-3.73,1.46-7.38,2.49-11.01.13-.47.33-.81.88-.98,1.67-.52,3.38-.76,5.15-.58.34.04.7.1,1.01.23,1.38.53,1.6,1.38.44,2.21-.91.65-1.09,1.33-.94,2.32.51,3.41.86,6.84,1.35,10.25.21,1.46.62,2.89.92,4.34.16.79.3,1.59.39,2.38.09.77.52,1.14,1.32,1.43,1.24.46,2.4,1.08,3.58,1.67.22.11.34.39.52.61-.39.64-1.04.76-1.68.85-2.51.37-5.02.72-7.54,1.08-.94.13-1.78.03-2.45-.77.19-.27.32-.59.57-.74,1.3-.78,1.17-1.86.89-2.99-.52-2.14-1.06-4.27-1.54-6.41-.17-.78-.21-1.58-.34-2.59-.16.39-.28.58-.32.78-.85,4.03-2.69,7.76-4.47,11.51-.35.74-.9.88-1.44.26-.63-.74-1.14-1.58-1.6-2.42-.94-1.72-1.81-3.47-2.83-5.44-.1.45-.2.68-.19.89.05,1.11.14,2.23.19,3.35.04.82.34,1.47,1.18,1.88.51.25.85.63.74,1.2-.12.62-.65.88-1.24,1.03-.33.09-.69.16-1.03.13-2.33-.16-4.65-.35-6.97-.55-.74-.06-1.38-.29-1.62-.99-.22-.68.18-1.49.99-1.93.64-.35,1.31-.68,2.01-.89.85-.27,1.2-.78,1.16-1.52-.06-1.16-.09-2.33-.28-3.48-.52-3.18-1.1-6.36-1.7-9.52-.15-.79-.51-1.54-.7-2.32-.31-1.22-1.22-1.78-2.51-2-.67-.1-1.57-.06-1.66-.86-.09-.8.78-1.17,1.43-1.36,1.99-.58,4.02-1.06,6.14-.42.44.13.98.07,1.46.01,1.18-.14,2.06.21,2.6,1.17.31.56.67,1.1.93,1.68,1.11,2.54,2.17,5.09,3.28,7.63.23.52.57,1.01.85,1.52.12-.01.24-.02.36-.04ZM110.75,65.71c-.03-.13-.05-.27-.08-.4-.4-.09-.81-.24-1.21-.26-.7-.02-1.4.01-2.09.08-1.92.19-2.54.63-2.98,2.3-1.05,4-2.05,8.01-2.47,12.12-.03.28-.19.55-.38,1.09-.45-.41-.84-.63-1.01-.94-.7-1.28-1.38-2.58-1.96-3.9-1.13-2.58-2.2-5.17-3.29-7.76-.6-1.43-.95-1.67-2.51-1.5-.96.1-1.85.09-2.79-.19-1.15-.35-2.88.04-3.74.69.09.1.16.25.27.29,1.76.65,2.53,1.97,2.88,3.52.7,3.1,1.43,6.21,2,9.33.37,2.02.83,4.04.5,6.12-.18,1.15-.14,1.14-1.42,1.51-.89.25-1.75.54-2.41,1.39,2.26.67,4.32.7,6.46-.02-.13-1.22-.29-2.42-.37-3.61-.19-2.72-.14-5.45-1.17-8.07-.3-.75-.19-1.56.71-2.33,1.51,2.15,1.88,4.57,3,6.71,1.15,2.2,2.34,4.38,3.51,6.57.13,0,.25,0,.38,0,.34-.67.78-1.32,1.01-2.02.92-2.83,1.76-5.67,2.66-8.5.42-1.33.88-2.65,1.38-3.96.2-.54.54-1.06,1.38-.98.05.17.13.3.11.42-.36,2.35.15,4.64.58,6.92.55,2.9,1.26,5.78,1.9,8.66.13.58.51.96,1.16,1.1.6.13,3.56-.47,4.18-.81-.68-.32-1.39-.64-2.09-.97-.57-.27-.85-.69-.95-1.28-.46-2.82-1.01-5.64-1.43-8.46-.54-3.58-.98-7.18-1.49-10.76-.1-.66.04-1.11.77-1.4.38-.16.69-.46,1.03-.69Z"/>
      <path class="cls-6" d="M79.66,83.15c.26,1.73.55,3.4.75,5.08.14,1.18-.07,1.39-1.29,1.77-1.38.44-2.79.72-4.26.58-2.54-.24-5.06-.23-7.6,0-1.08.09-2.19-.07-3.27-.22-.83-.11-1.63-.38-2.18-1.15.5-.43,1.02-.76,1.38-1.21.34-.43.46-1,.78-1.44,1.12-1.55.92-3.24.71-4.94-.12-.97-.2-1.95-.26-2.92-.07-1.03-.12-2.05-.14-3.07-.04-1.83-.07-3.65-.09-5.48-.02-1.18-.38-2.1-1.88-2.35-.42-.07-.83-.3-1.21-.51-.76-.4-.61-1.06-.54-1.67.07-.64.62-.81,1.17-.83,1.59-.05,3.19-.03,4.78-.05,1.79-.03,3.58-.09,5.37-.09,1.84,0,3.68.05,5.52.08.89.01,1.38.46,1.53,1.2.26,1.27.54,2.54.74,3.82.1.61-.18,1.11-.84,1.44-.72.36-1.24.08-1.75-.31-.23-.17-.48-.33-.68-.53-.67-.61-1.49-.87-2.43-.87-.9,0-1.8-.02-2.69.07-.96.09-1.17.3-1.06,1.12.14,1.11.32,2.22.61,3.3.3,1.12,1.17,1.27,2.06.42.3-.29.51-.66.79-.97.51-.6,1.15-.61,1.53.04.3.5.54,1.08.58,1.65.11,1.34.13,2.68.1,4.01,0,.34-.3.88-.56.94-.32.07-.82-.2-1.14-.44-.37-.28-.62-.69-.95-1.03-.34-.35-.81-.69-1.29-.39-.28.17-.44.67-.44,1.01.01,1.52.09,3.03.16,4.55.06,1.47,1.22,2.18,2.74,1.6.63-.24,1.18-.66,1.75-1.01.53-.33,1.03-.71,1.57-1.02.56-.31,1.16-.54,1.93-.2ZM61.9,66.08c-.02.14-.03.27-.05.41.47.22.92.48,1.41.65,1.3.46,2,1.3,2.1,2.53.1,1.33.16,2.67.25,4.01.17,2.71-.02,5.44.53,8.14.24,1.17.17,2.4.2,3.6,0,.2-.18.4-.28.6-.54,1.03-1.09,2.06-1.74,3.29,1.42.06,2.72.29,3.95.12,2.55-.33,5.07-.19,7.61-.11.59.02,1.21.03,1.78-.1.32-.07.78-.37.83-.62.28-1.39.2-2.79-.05-4.44-.68.43-1.09.72-1.54.97-.85.47-1.66,1.04-2.58,1.32-2.27.69-4.45-.83-4.42-2.96,0-.53-.08-1.07-.09-1.6-.03-1.07-.09-2.14-.04-3.2.04-.96.4-1.26,1.4-1.47.94-.2,1.77-.07,2.46.6.27.26.64.44,1.23.83.04-1.65.22-2.97-.22-4.37-.68.49-1.16.88-1.7,1.2-1.2.71-2.68.16-3-1.09-.22-.87-.44-1.74-.63-2.62-.13-.66-.23-1.32-.31-1.99-.07-.54.08-1.05.75-1.14,2.53-.37,5.07-.73,7.26.98.31.24.69.42,1.15.7.17-.41.37-.66.35-.88-.07-.89-.18-1.78-.33-2.66-.12-.74-.67-1.05-1.48-1.05-.4,0-.8,0-1.2,0-3.28.06-6.56.34-9.85.04-.88-.08-1.79.02-2.69.08-.36.02-.71.17-1.06.26Z"/>
      <path class="cls-6" d="M135.66,75.39c.38.28.83.62,1.3.94,2.99,2.02,3.8,4.41,2.93,7.68-.57,2.14-1.87,3.59-4.04,4.5-.77.32-1.49.72-2.25,1.06-2.35,1.04-4.9,1.13-7.44,1.22-1.14.04-2.29-.07-3.44-.11-.51-.02-1.01-.09-1.22-.6-.18-.47.1-.78.51-1.01.55-.3.62-.78.59-1.29-.14-2.01-.23-4.01-.46-6.01-.35-3.02-.74-6.02-.52-9.07.1-1.46-.01-2.97-.33-4.4-.19-.86-.96-1.62-1.45-2.43-.31-.5-.73-.98-.86-1.52-.23-.9.22-1.38,1.25-1.42.69-.03,1.39.06,2.08.12,3.28.32,6.55.63,9.82.98,1.04.11,2.05.37,3.07.56,3.63.69,5.27,4.67,3.34,7.5-.76,1.12-1.81,2.08-2.88,3.3ZM120.54,64.45c.13.65.52.93,1.13.98.71.05.91.45.93,1,.08,1.91.18,3.83.27,5.75.13,2.81.2,5.62.39,8.43.18,2.63.49,5.25.72,7.87.05.61.2,1,1.02,1.04,3.69.2,7.12-.42,10.32-2.18,1.99-1.09,3.1-2.61,3.44-4.61.25-1.47.31-2.99-.8-4.23-1.11-1.25-2.39-2.32-4.4-2.13-.15.02-.33.02-.44-.05-.31-.19-.76-.39-.83-.66-.06-.23.23-.66.49-.84.63-.43,1.34-.78,2.03-1.14,1.41-.73,2.3-1.84,2.86-3.17.59-1.41.51-3.68-1.61-4.36-1.44-.47-2.97-.83-4.49-.94-3.03-.22-6.07-.31-9.05-.98-.62-.14-1.26-.27-1.97.21Z"/>
      <path class="cls-6" d="M151.76,98.73c.2-.14.26-.15.28-.19.73-1.32,1.46-2.64,2.37-4.27-.25-.16-.62-.29-.84-.56-.49-.61-.31-1.26.44-1.43.57-.13,1.18-.04,1.77-.02,1.34.04,2.67.15,4,.13,1.05,0,1.36.28,1.22,1.38-.24,1.86-1.17,2.85-2.99,2.9-1.03.03-1.51.52-1.89,1.44-.71,1.76-1.48,3.48-2.25,5.21-.57,1.28-.43,1.96.55,3.04.27.3.55.88.45,1.2-.09.29-.67.52-1.06.58-1.13.18-2.27.28-3.42.35-.49.03-1.01-.03-1.47-.19-.6-.21-.68-.75-.25-1.24.38-.45,1.13-.61,1.03-1.43-.16-1.24.01-2.54-.87-3.62-1.37-1.68-2.63-3.47-3.41-5.57-.27-.75-.91-.91-1.53-1.12-.6-.21-1.4-.34-1.31-1.24.08-.79.81-1.1,1.43-1.2,1.37-.23,2.76-.4,4.15-.45.92-.03,1.14.33,1.17,1.41.04,2.06.89,3.63,2.42,4.89ZM145.22,94.05c.37.55.79.96.96,1.47.72,2.21,2.07,4,3.44,5.73.77.97,1.08,1.97,1.14,3.16.03.79.09,1.6.26,2.36.05.25.47.56.73.57.46.02.7-.34.61-.87-.04-.21-.11-.43-.08-.63.18-1.15.09-2.49.64-3.39,1.03-1.66,1.71-3.47,2.46-5.26.5-1.17,1.22-1.87,2.54-1.79.49.03,1.05-.25,1.48-.54.22-.15.38-.69.3-.96-.08-.25-.5-.5-.8-.53-.83-.07-1.68-.03-2.57-.03-1.39,2.42-2.75,4.78-4.11,7.15-1.61-1.04-2.88-2.58-3.47-4.35-.91-2.76-.44-2.31-3.24-2.25-.09,0-.18.08-.3.14Z"/>
      <path class="cls-6" d="M103.43,101.68c-.76,1-.76,1.95-.65,2.88.04.31.51.58.79.87.41.43.81.87,1.35,1.43-.56.2-.84.4-1.13.4-2.45,0-4.91-.15-7.28.66-.2.07-.6-.02-.72-.17-.12-.15-.03-.45,0-.68.01-.09.1-.19.18-.25,1.45-.88,1.09-2.16.98-3.39-.19-2.29-.43-4.57-.55-6.87-.08-1.51-.13-1.63-1.89-1.88-.57-.08-1.41.11-1.54-.6-.15-.81.72-1.14,1.35-1.29.83-.2,1.82-.32,2.61-.11,1.73.45,3.41.39,5.12.11.22-.04.46-.13.66-.08.34.09.75.2.95.43.11.13-.08.56-.25.78-.93,1.25-.93,1.62.15,2.94,1.07-.49,1.73-1.36,2.42-2.19.92-1.1,1.94-2.05,3.55-2.32.64-.11,1.19-.27,1.54.43.44.86.42,1.41-.19,1.89-1.01.79-2.05,1.54-3.03,2.35-.61.51-1.12,1.11-1.67,1.67-.45.47-.41.93.1,1.31,1.93,1.41,3.32,3.39,5.73,4.3.36.14.88.61.82.81-.1.36-.53.73-.93.9-.69.3-1.46.51-2.21.67-1.19.25-1.39.09-1.81-1.05-.14-.36-.37-.75-.68-1.01-1.18-.98-2.42-1.9-3.79-2.97ZM97.37,94.3c-.6,4,0,7.76.63,11.5.1.61.61.83,1.22.81,1.16-.03,2.32-.12,3.48-.19-.8-.35-1.07-.9-.96-1.6.2-1.33.42-2.67.67-4,.05-.25.32-.47.47-.67.22.05.37.04.43.09,1.85,1.72,3.7,3.44,5.54,5.17.8.76,1.53.7,2.37-.24-.11-.11-.21-.23-.33-.33-1.88-1.48-3.78-2.93-5.64-4.43-.92-.75-.89-.99-.03-1.84.72-.7,1.45-1.39,2.18-2.08.97-.92,1.95-1.84,3.13-2.95-1.36-.21-2.18.26-2.85.9-.95.91-1.8,1.91-2.73,2.84-.43.43-.96.77-1.44,1.15-1.76-1.07-1.43-2.88-2.26-4.13-1.31,0-2.52-.01-3.89-.02Z"/>
      <path class="cls-6" d="M138.93,100.12c1.3,1.15,2.6,2.3,3.91,3.43.48.42,1.05.75,1.52,1.17.69.6.88,1.36.73,2.21-.12.65-.48.93-1.25.92-1.45,0-2.89.09-4.34.13-1.05.03-1.35-.35-1.08-1.3.08-.28.26-.63.15-.84-.72-1.4-1.7-2.63-3.02-3.66-1.08,1.36-1.16,2.47-.37,3.54.15.21.34.4.45.63.44.87.12,1.33-.96,1.37-1.45.05-2.9.07-4.35.09-.28,0-.56-.02-.83-.06-.61-.09-1.12-.4-1.11-.94.01-.38.3-.98.62-1.08,1.31-.44,1.41-1.3,1.49-2.37.14-2.04.47-4.06.69-6.09.14-1.25.07-2.39-1.55-2.97-.73-.26-.73-.86-.03-1.27.55-.32,1.2-.59,1.83-.67,1.82-.23,3.66-.43,5.49-.5,2.63-.1,4.86,1.73,5.11,4.07.15,1.37-.77,2.25-1.78,3.06-.36.28-.88.41-1.33.6,0,.18.02.36.02.54ZM131.33,93.68c.99,1.69.98,3.42.77,5.16-.22,1.78-.47,3.56-.64,5.34-.09.94-.1,1.88-.94,2.76,1.12-.1,2.25-.2,3.53-.31-.82-1.57-.43-3-.07-4.4.28-1.1,1.51-1.4,2.47-.67.37.28.66.67.93,1.05,1.04,1.41,2.05,2.82,3.12,4.28,1.15-.14,2.39.45,3.51-.32.08-.77-.52-1.08-1.01-1.48-1.68-1.39-3.4-2.74-4.96-4.23-1.31-1.26-1.14-1.58.72-2.06,1.39-.36,2.3-1.46,2.09-2.52-.44-2.16-2.41-3.49-4.85-3.24-1.26.12-2.53.27-3.79.42-.26.03-.51.12-.89.22Z"/>
      <path class="cls-6" d="M83.76,93.39c1.14-.09,2.26-.16,3.38-.26.61-.05.9.26,1.03.7.22.77.4,1.55.59,2.33.63,2.6,1.26,5.21,1.88,7.82.21.87.7,1.45,1.84,1.45.26,0,.53.1.77.21.7.31.78.88.19,1.36-.15.13-.34.26-.54.3-1.7.38-3.37,1.07-5.2.35-.49-.19-1.07-.22-1.81-.35.97-1.16.68-2.16.08-3.15-.47-.77-1.28-.94-1.94-.28-.76.77-1.51,1.58-.8,2.76.46.78.11,1.31-.88,1.65-1.57.53-3.19.48-4.79.16-.76-.15-1.47-.55-1.51-1.29-.04-.67.53-1.12,1.25-1.31.85-.22,1.05-.76,1.33-1.42.9-2.1,1.96-4.16,2.94-6.24.73-1.56,1.43-3.13,2.19-4.8ZM91.64,106.54c-.96-.21-1.23-.78-1.48-1.46-1.16-3.18-2.09-6.4-2.43-9.73-.04-.36-.18-.71-.3-1.17-.72.05-1.35.12-1.99.15-.75.02-1.11.35-1.39.96-1.1,2.39-2.28,4.75-3.4,7.14-.36.78-.74,1.59-.82,2.4-.06.74-.37,1.1-1.09,1.37-.56.21-1.2.43-1.23,1.29,1.52.02,2.97.32,4.4-.26q-.46-1.24.1-2.4c.13-.26.24-.52.36-.78.62-1.34,1.02-1.56,2.66-1.58.74-.01,1.22.15,1.45.83.3.9.72,1.76,1.06,2.65.36.93.79,1.21,1.92,1.06.74-.1,1.45-.31,2.18-.48Z"/>
      <path class="cls-3" d="M110.75,65.71c-.34.24-.65.54-1.03.69-.73.29-.87.74-.77,1.4.52,3.58.96,7.18,1.49,10.76.43,2.83.97,5.64,1.43,8.46.09.58.38,1.01.95,1.28.7.33,1.4.65,2.09.97-.62.34-3.57.94-4.18.81-.64-.14-1.03-.52-1.16-1.1-.64-2.88-1.35-5.76-1.9-8.66-.43-2.28-.94-4.57-.58-6.92.02-.12-.06-.25-.11-.42-.85-.08-1.18.44-1.38.98-.49,1.31-.96,2.63-1.38,3.96-.9,2.83-1.74,5.68-2.66,8.5-.23.7-.67,1.35-1.01,2.02-.13,0-.25,0-.38,0-1.17-2.19-2.36-4.37-3.51-6.57-1.12-2.14-1.49-4.57-3-6.71-.9.77-1,1.58-.71,2.33,1.03,2.62.98,5.36,1.17,8.07.09,1.2.24,2.39.37,3.61-2.14.72-4.2.69-6.46.02.66-.85,1.53-1.14,2.41-1.39,1.28-.37,1.24-.36,1.42-1.51.33-2.08-.14-4.11-.5-6.12-.57-3.12-1.3-6.23-2-9.33-.35-1.55-1.11-2.87-2.88-3.52-.12-.05-.18-.2-.27-.29.87-.65,2.6-1.05,3.74-.69.94.29,1.83.29,2.79.19,1.56-.17,1.91.08,2.51,1.5,1.09,2.59,2.16,5.19,3.29,7.76.59,1.32,1.27,2.62,1.96,3.9.16.31.55.53,1.01.94.19-.53.35-.81.38-1.09.41-4.11,1.42-8.12,2.47-12.12.44-1.67,1.06-2.1,2.98-2.3.7-.07,1.4-.1,2.09-.08.41.01.81.17,1.21.26.02.13.05.26.08.4Z"/>
      <path class="cls-3" d="M61.9,66.08c.35-.09.7-.24,1.06-.26.89-.06,1.8-.16,2.69-.08,3.29.3,6.57.03,9.85-.04.4,0,.8,0,1.2,0,.8,0,1.36.31,1.48,1.05.14.88.26,1.77.33,2.66.02.23-.18.47-.35.88-.46-.28-.84-.46-1.15-.7-2.19-1.71-4.73-1.34-7.26-.98-.67.1-.81.61-.75,1.14.08.67.18,1.33.31,1.99.18.88.41,1.75.63,2.62.32,1.25,1.8,1.81,3,1.09.53-.32,1.01-.71,1.7-1.2.45,1.4.26,2.72.22,4.37-.59-.39-.97-.57-1.23-.83-.69-.68-1.51-.8-2.46-.6-1,.21-1.35.51-1.4,1.47-.05,1.07,0,2.14.04,3.2.01.53.1,1.07.09,1.6-.04,2.13,2.14,3.65,4.42,2.96.92-.29,1.74-.86,2.58-1.32.45-.24.86-.54,1.54-.97.25,1.66.33,3.05.05,4.44-.05.25-.51.56-.83.62-.57.12-1.19.11-1.78.1-2.54-.08-5.07-.23-7.61.11-1.23.16-2.53-.07-3.95-.12.65-1.23,1.2-2.26,1.74-3.29.11-.2.29-.41.28-.6-.03-1.2.03-2.43-.2-3.6-.55-2.7-.35-5.43-.53-8.14-.09-1.34-.15-2.68-.25-4.01-.1-1.23-.8-2.07-2.1-2.53-.49-.17-.94-.43-1.41-.65.02-.13.03-.27.05-.41Z"/>
      <path class="cls-6" d="M126.25,103.25c.17,1.05.36,2.06.48,3.08.09.71-.05.84-.9,1.06-.95.26-1.93.42-2.93.33-1.74-.16-3.48-.16-5.22-.04-.74.05-1.51-.05-2.25-.15-.57-.07-1.12-.24-1.49-.71.34-.26.71-.46.95-.73.24-.26.33-.6.55-.87.78-.93.66-1.96.53-2.98-.08-.59-.13-1.18-.16-1.78-.04-.62-.07-1.24-.08-1.86-.02-1.1-.02-2.22-.03-3.32,0-.71-.24-1.27-1.28-1.43-.29-.05-.57-.19-.83-.32-.52-.25-.41-.64-.36-1.02.05-.39.43-.49.81-.5,1.09-.02,2.19,0,3.29,0,1.23,0,2.46-.03,3.69-.03,1.26,0,2.53.06,3.8.08.61.02.94.29,1.04.74.17.77.35,1.54.48,2.32.06.37-.13.68-.59.87-.5.21-.85.04-1.21-.2-.16-.1-.32-.2-.46-.32-.46-.38-1.02-.54-1.66-.54-.62,0-1.24-.02-1.85.03-.66.05-.8.18-.74.68.09.67.21,1.35.4,2,.2.68.79.78,1.41.27.21-.17.36-.39.55-.58.36-.36.79-.36,1.05.03.2.31.36.66.39,1,.07.81.07,1.62.04,2.43,0,.2-.21.53-.39.56-.23.04-.57-.12-.78-.27-.26-.17-.43-.42-.65-.63-.23-.22-.55-.42-.88-.25-.19.1-.3.4-.31.61,0,.92.04,1.84.08,2.76.03.89.82,1.32,1.88.99.44-.14.82-.39,1.21-.6.37-.2.71-.43,1.09-.61.38-.19.81-.32,1.33-.1ZM114.16,92.81c-.01.08-.03.16-.04.25.32.14.63.29.96.4.89.28,1.37.79,1.42,1.54.06.81.1,1.62.14,2.43.1,1.65-.05,3.3.3,4.94.16.71.1,1.45.12,2.18,0,.12-.12.24-.2.36-.38.62-.77,1.24-1.22,1.98.97.05,1.87.19,2.72.1,1.75-.19,3.49-.08,5.24-.03.41.02.83.02,1.23-.05.22-.04.54-.22.57-.37.2-.84.16-1.69,0-2.69-.46.26-.75.43-1.06.58-.59.27-1.15.62-1.79.78-1.57.41-3.06-.53-3.02-1.82,0-.32-.04-.65-.05-.97-.01-.65-.05-1.3,0-1.94.03-.58.28-.76.97-.88.65-.11,1.21-.03,1.68.38.18.16.44.27.85.51.04-1,.17-1.8-.12-2.65-.48.29-.81.53-1.18.72-.83.43-1.85.08-2.06-.68-.14-.53-.29-1.06-.41-1.59-.09-.4-.15-.8-.2-1.21-.04-.32.06-.63.52-.68,1.74-.21,3.49-.42,4.99.63.21.15.47.26.78.43.12-.25.26-.4.25-.53-.04-.54-.12-1.08-.21-1.61-.08-.45-.46-.64-1.01-.65-.27,0-.55,0-.82,0-2.26.02-4.52.17-6.78-.04-.61-.05-1.24,0-1.85.03-.25.02-.49.1-.73.15Z"/>
      <path class="cls-3" d="M114.16,92.81c.24-.05.48-.14.73-.15.62-.03,1.24-.09,1.85-.03,2.26.21,4.52.06,6.78.04.27,0,.55,0,.82,0,.55,0,.93.2,1.01.65.09.53.16,1.07.21,1.61,0,.14-.13.28-.25.53-.31-.17-.57-.28-.78-.43-1.49-1.05-3.24-.84-4.99-.63-.46.05-.56.36-.52.68.05.41.11.81.2,1.21.12.53.27,1.06.41,1.59.21.76,1.23,1.11,2.06.68.37-.19.7-.43,1.18-.72.3.85.16,1.65.12,2.65-.41-.24-.66-.35-.85-.51-.47-.41-1.03-.49-1.68-.38-.69.12-.93.3-.97.88-.05.65-.01,1.3,0,1.94,0,.32.06.65.05.97-.04,1.29,1.45,2.23,3.02,1.82.63-.17,1.2-.51,1.79-.78.31-.15.6-.32,1.06-.58.16,1.01.2,1.85,0,2.69-.04.15-.35.33-.57.37-.4.07-.82.06-1.23.05-1.75-.06-3.48-.16-5.24.03-.85.09-1.74-.06-2.72-.1.46-.74.84-1.36,1.22-1.98.08-.12.2-.24.2-.36-.01-.73.04-1.47-.12-2.18-.36-1.64-.21-3.29-.3-4.94-.05-.81-.08-1.62-.14-2.43-.06-.75-.53-1.26-1.42-1.54-.33-.11-.64-.27-.96-.4.01-.08.03-.16.04-.25Z"/>
      <path class="cls-6" d="M160.5,82.78c.26,1.73.55,3.4.75,5.08.14,1.18-.06,1.39-1.29,1.77-1.38.44-2.79.72-4.26.59-2.53-.24-5.06-.23-7.6,0-1.07.09-2.19-.07-3.27-.22-.83-.11-1.63-.38-2.18-1.16.5-.43,1.02-.76,1.38-1.21.35-.43.47-1,.79-1.44,1.12-1.55.92-3.24.71-4.94-.12-.97-.2-1.95-.26-2.92-.07-1.03-.12-2.05-.14-3.07-.04-1.83-.06-3.65-.09-5.48-.02-1.17-.38-2.1-1.89-2.35-.42-.07-.83-.31-1.21-.51-.76-.4-.61-1.05-.54-1.67.07-.64.62-.81,1.17-.83,1.59-.06,3.19-.04,4.78-.06,1.79-.02,3.58-.09,5.36-.09,1.84,0,3.68.06,5.52.08.89.02,1.37.46,1.53,1.2.27,1.27.54,2.54.74,3.82.09.61-.18,1.11-.84,1.44-.72.36-1.23.08-1.76-.31-.23-.17-.47-.33-.68-.52-.67-.62-1.49-.88-2.43-.87-.9,0-1.8-.01-2.69.07-.96.09-1.16.31-1.06,1.12.14,1.11.32,2.22.61,3.3.3,1.11,1.16,1.27,2.06.42.31-.29.52-.66.79-.97.51-.6,1.15-.61,1.53.04.29.5.54,1.08.59,1.64.11,1.34.13,2.68.1,4.02,0,.33-.29.87-.56.93-.32.08-.82-.2-1.13-.44-.38-.28-.62-.69-.95-1.03-.34-.35-.81-.69-1.28-.39-.28.18-.44.67-.43,1.02,0,1.51.09,3.03.15,4.54.06,1.47,1.22,2.17,2.75,1.6.63-.24,1.18-.66,1.75-1.01.53-.33,1.03-.71,1.57-1.02.55-.31,1.16-.54,1.93-.2ZM142.75,65.71c-.02.14-.04.27-.05.41.47.22.92.48,1.41.65,1.3.46,2,1.29,2.1,2.53.1,1.33.16,2.67.25,4.01.17,2.71-.02,5.44.53,8.14.23,1.17.17,2.4.2,3.6,0,.2-.18.41-.28.6-.55,1.03-1.09,2.06-1.75,3.28,1.42.06,2.72.29,3.95.13,2.55-.33,5.08-.19,7.61-.11.59.02,1.21.03,1.78-.09.33-.07.78-.37.83-.62.28-1.39.2-2.79-.05-4.45-.68.43-1.09.73-1.54.97-.85.46-1.66,1.03-2.58,1.32-2.28.69-4.46-.83-4.42-2.96,0-.54-.08-1.07-.09-1.61-.03-1.06-.09-2.14-.04-3.2.05-.97.4-1.26,1.4-1.47.95-.2,1.76-.08,2.46.6.26.26.64.44,1.23.83.04-1.66.23-2.97-.22-4.38-.68.49-1.16.89-1.7,1.21-1.2.71-2.68.15-3-1.1-.22-.87-.44-1.74-.63-2.62-.14-.66-.23-1.32-.31-1.99-.07-.54.08-1.05.75-1.14,2.53-.37,5.06-.73,7.25.97.31.24.69.42,1.15.7.17-.42.37-.66.35-.88-.07-.89-.18-1.78-.32-2.66-.12-.74-.67-1.05-1.48-1.05-.4,0-.8,0-1.2,0-3.28.06-6.56.34-9.85.03-.89-.08-1.8.02-2.69.08-.36.02-.7.17-1.05.26Z"/>
      <path class="cls-3" d="M142.75,65.71c.35-.09.7-.24,1.05-.26.89-.06,1.8-.16,2.69-.08,3.29.3,6.57.03,9.85-.03.4,0,.8,0,1.2,0,.8,0,1.36.31,1.48,1.05.14.88.26,1.77.32,2.66.02.23-.18.47-.35.88-.46-.28-.84-.46-1.15-.7-2.19-1.71-4.73-1.34-7.25-.97-.67.09-.82.6-.75,1.14.08.67.17,1.33.31,1.99.18.88.41,1.75.63,2.62.31,1.25,1.8,1.81,3,1.1.53-.32,1.01-.71,1.7-1.21.45,1.41.26,2.72.22,4.38-.59-.4-.97-.57-1.23-.83-.69-.68-1.51-.8-2.46-.6-1,.21-1.35.5-1.4,1.47-.05,1.07.01,2.14.04,3.2.02.54.1,1.07.09,1.61-.04,2.13,2.14,3.65,4.42,2.96.92-.29,1.73-.86,2.58-1.32.45-.24.87-.54,1.54-.97.25,1.66.33,3.06.05,4.45-.05.25-.5.55-.83.62-.57.12-1.19.11-1.78.09-2.54-.08-5.07-.23-7.61.11-1.23.16-2.53-.07-3.95-.13.65-1.23,1.2-2.25,1.75-3.28.1-.2.29-.4.28-.6-.03-1.2.03-2.43-.2-3.6-.55-2.7-.35-5.43-.53-8.14-.08-1.34-.15-2.68-.25-4.01-.09-1.23-.8-2.07-2.1-2.53-.49-.17-.94-.43-1.41-.65.02-.14.04-.27.05-.41Z"/>
      <path class="cls-3" d="M120.54,64.45c.7-.48,1.35-.34,1.97-.21,2.97.66,6.01.76,9.05.98,1.52.11,3.06.47,4.49.94,2.11.68,2.2,2.95,1.61,4.36-.56,1.33-1.45,2.44-2.86,3.17-.69.36-1.39.71-2.03,1.14-.27.18-.56.6-.49.84.08.27.52.47.83.66.11.07.29.06.44.05,2.01-.18,3.29.89,4.4,2.13,1.12,1.25,1.05,2.76.8,4.23-.34,2-1.45,3.52-3.44,4.61-3.2,1.76-6.63,2.38-10.32,2.18-.82-.05-.96-.43-1.02-1.04-.23-2.62-.54-5.25-.72-7.87-.19-2.81-.26-5.62-.39-8.43-.09-1.92-.18-3.84-.27-5.75-.02-.56-.22-.95-.93-1-.61-.05-1-.33-1.13-.98ZM128.01,87.41c.47.15.78.33,1.1.33,1.79-.03,3.46-.39,4.71-1.66.25-.25.5-.58.57-.91.57-2.45.51-4.97-2.91-6.59-.91-.43-1.77-.5-2.72-.23-.6.18-.91.46-.86,1.07.06.76.07,1.52.07,2.27.02,1.86.02,3.72.03,5.72ZM127.45,70.54s-.06,0-.09,0c.09,1.29.17,2.58.29,3.87.08.85.61,1.08,1.42.65.81-.43,1.64-.83,2.42-1.3.53-.32,1.04-.7,1.47-1.13,1.82-1.78,1.12-5.32-1.64-5.94-1.24-.28-2.37-.06-3.5.33-.49.17-.58.54-.54.99.08.84.11,1.69.16,2.53Z"/>
      <path class="cls-3" d="M145.22,94.05c.12-.06.21-.14.3-.14,2.8-.06,2.34-.51,3.24,2.25.58,1.78,1.85,3.32,3.47,4.35,1.36-2.36,2.72-4.73,4.11-7.15.89,0,1.73-.04,2.57.03.29.03.72.28.8.53.08.27-.08.81-.3.96-.44.29-1,.57-1.48.54-1.32-.09-2.04.62-2.54,1.79-.75,1.79-1.43,3.59-2.46,5.26-.55.9-.46,2.24-.64,3.39-.03.2.04.42.08.63.09.53-.15.89-.61.87-.27-.02-.68-.32-.73-.57-.17-.77-.22-1.57-.26-2.36-.06-1.2-.36-2.19-1.14-3.16-1.38-1.73-2.72-3.52-3.44-5.73-.17-.51-.59-.92-.96-1.47Z"/>
      <path class="cls-3" d="M97.37,94.3c1.37,0,2.58,0,3.89.02.83,1.24.5,3.06,2.26,4.13.48-.38,1.01-.72,1.44-1.15.93-.93,1.78-1.93,2.73-2.84.67-.64,1.49-1.11,2.85-.9-1.18,1.11-2.16,2.03-3.13,2.95-.73.69-1.46,1.38-2.18,2.08-.87.85-.9,1.09.03,1.84,1.85,1.5,3.76,2.96,5.64,4.43.12.1.22.22.33.33-.84.94-1.57.99-2.37.24-1.84-1.73-3.69-3.45-5.54-5.17-.07-.06-.21-.05-.43-.09-.15.2-.42.41-.47.67-.26,1.33-.47,2.66-.67,4-.11.7.16,1.25.96,1.6-1.16.07-2.32.16-3.48.19-.6.02-1.11-.2-1.22-.81-.63-3.75-1.23-7.5-.63-11.5Z"/>
      <path class="cls-3" d="M131.33,93.68c.38-.09.63-.19.89-.22,1.26-.15,2.53-.3,3.79-.42,2.44-.24,4.41,1.08,4.85,3.24.21,1.06-.7,2.16-2.09,2.52-1.86.48-2.04.8-.72,2.06,1.56,1.49,3.28,2.84,4.96,4.23.49.41,1.08.71,1.01,1.48-1.12.78-2.37.18-3.51.32-1.06-1.46-2.08-2.88-3.12-4.28-.27-.37-.56-.76-.93-1.05-.96-.73-2.19-.43-2.47.67-.36,1.4-.74,2.83.07,4.4-1.28.11-2.4.21-3.53.31.84-.88.85-1.82.94-2.76.17-1.79.42-3.57.64-5.34.22-1.74.23-3.47-.77-5.16ZM134.45,96.17c0,.35-.04.85-.02,1.35.03.63.44.91,1.12.78,2.64-.53,3.48-1.72,2.14-3.84-.38-.61-.96-.76-1.7-.66-.71.1-1.07.43-1.17,1.07-.06.39-.21.77-.37,1.3Z"/>
      <path class="cls-3" d="M91.64,106.54c-.73.16-1.44.37-2.18.48-1.13.15-1.55-.13-1.92-1.06-.34-.89-.76-1.76-1.06-2.65-.23-.68-.71-.85-1.45-.83-1.64.02-2.04.24-2.66,1.58-.12.26-.24.52-.36.78q-.55,1.15-.1,2.4c-1.43.58-2.88.28-4.4.26.03-.87.66-1.08,1.23-1.29.72-.27,1.03-.63,1.09-1.37.08-.81.46-1.63.82-2.4,1.11-2.39,2.3-4.75,3.4-7.14.28-.61.63-.94,1.39-.96.63-.02,1.26-.09,1.99-.15.12.46.26.81.3,1.17.34,3.33,1.27,6.55,2.43,9.73.25.68.52,1.25,1.48,1.46ZM85.73,97.58c-1.25,1.05-1.58,2.15-2.08,3.15-.07.14.43.68.74.73.5.09,1.07-.03,1.59-.12.51-.09.72-.41.6-.85-.23-.85-.49-1.69-.85-2.91Z"/>
      <path class="cls-6" d="M128.01,87.41c0-2.01-.01-3.86-.03-5.72,0-.76,0-1.52-.07-2.27-.05-.6.26-.89.86-1.07.96-.28,1.81-.2,2.72.23,3.42,1.62,3.48,4.14,2.91,6.59-.07.32-.32.66-.57.91-1.25,1.27-2.92,1.64-4.71,1.66-.31,0-.63-.18-1.1-.33ZM129.78,86.3c.5-.07.82-.05,1.07-.15,1.88-.77,2.56-1.55,2.48-3.96-.04-1.25-.86-2.06-2.05-2.58-1.11-.48-1.7-.12-1.71.98-.02,1.51,0,3.03.03,4.54,0,.34.11.68.19,1.16Z"/>
      <path class="cls-6" d="M127.45,70.54c-.05-.84-.08-1.69-.16-2.53-.04-.45.05-.82.54-.99,1.13-.39,2.26-.61,3.5-.33,2.76.62,3.46,4.16,1.64,5.94-.43.43-.94.81-1.47,1.13-.78.47-1.61.88-2.42,1.3-.81.43-1.34.2-1.42-.65-.12-1.29-.19-2.58-.29-3.87.03,0,.06,0,.09,0ZM130.24,67.96c-.95-.02-1.44.27-1.51,1.12-.1,1.19-.1,2.4-.03,3.59.04.74.48.95,1.22.66,1.29-.51,2.2-1.38,2.58-2.61.45-1.47-.62-2.73-2.26-2.77Z"/>
      <path class="cls-6" d="M134.45,96.17c.15-.53.31-.91.37-1.3.09-.64.46-.97,1.17-1.07.74-.1,1.32.05,1.7.66,1.34,2.12.5,3.3-2.14,3.84-.67.13-1.09-.14-1.12-.78-.02-.5.02-.99.02-1.35ZM136.17,95.05c-.22.43-.49.84-.63,1.27-.13.4-.04.82.54.92.53.09,1.16-.34,1.17-.83,0-.56-.19-1.07-1.08-1.36Z"/>
      <path class="cls-6" d="M85.73,97.58c.36,1.21.62,2.06.85,2.91.12.44-.09.76-.6.85-.52.09-1.09.21-1.59.12-.31-.06-.81-.59-.74-.73.5-.99.83-2.1,2.08-3.15ZM85.45,100.63c.06-.06.17-.12.17-.19,0-.06-.1-.12-.16-.19-.08.09-.16.17-.24.25.08.05.15.09.23.13Z"/>
      <path class="cls-1" d="M129.78,86.3c-.08-.48-.18-.82-.19-1.16-.03-1.51-.04-3.03-.03-4.54.01-1.11.61-1.46,1.71-.98,1.19.51,2.01,1.32,2.05,2.58.08,2.42-.6,3.19-2.48,3.96-.25.1-.57.08-1.07.15Z"/>
      <path class="cls-1" d="M130.24,67.96c1.64.04,2.71,1.29,2.26,2.77-.37,1.23-1.28,2.09-2.58,2.61-.74.29-1.17.09-1.22-.66-.07-1.19-.07-2.4.03-3.59.07-.86.56-1.14,1.51-1.12Z"/>
      <path class="cls-6" d="M73.05,99.99c.25.16.54.35.85.53,1.94,1.14,2.45,2.48,1.86,4.28-.39,1.19-1.24,1.99-2.67,2.48-.5.17-.98.39-1.48.58-1.54.57-3.21.6-4.87.64-.75.02-1.5-.05-2.25-.08-.33-.01-.66-.06-.79-.34-.12-.26.07-.43.34-.55.36-.17.41-.44.39-.71-.08-1.12-.12-2.23-.26-3.35-.21-1.68-.44-3.35-.28-5.04.07-.81,0-1.65-.19-2.45-.12-.48-.61-.9-.93-1.36-.2-.28-.46-.55-.55-.85-.14-.5.16-.76.83-.78.45-.01.91.04,1.36.08,2.13.19,4.27.38,6.4.6.68.07,1.34.21,2,.33,2.36.4,3.41,2.62,2.13,4.18-.51.62-1.19,1.15-1.9,1.82ZM63.25,93.83c.08.36.34.52.73.55.46.03.59.25.6.56.04,1.06.09,2.13.14,3.2.06,1.56.1,3.13.2,4.69.1,1.46.29,2.92.42,4.38.03.34.13.56.66.58,2.41.14,4.66-.19,6.76-1.15,1.3-.6,2.03-1.44,2.27-2.55.18-.82.23-1.66-.49-2.36-.72-.69-1.54-1.3-2.86-1.21-.09,0-.21,0-.29-.03-.2-.1-.49-.22-.54-.37-.04-.13.15-.36.33-.46.42-.24.88-.43,1.33-.62.93-.4,1.51-1.01,1.89-1.75.4-.78.36-2.04-1.02-2.43-.94-.27-1.94-.48-2.93-.54-1.98-.14-3.96-.21-5.9-.59-.4-.08-.83-.15-1.29.1Z"/>
      <path class="cls-3" d="M63.25,93.83c.46-.26.88-.18,1.29-.1,1.94.39,3.92.46,5.9.59.99.07,1.99.28,2.93.54,1.38.39,1.41,1.65,1.02,2.43-.37.74-.96,1.35-1.89,1.75-.45.2-.92.39-1.33.62-.18.1-.37.33-.33.46.05.15.34.27.54.37.07.04.19.04.29.03,1.31-.1,2.14.51,2.86,1.21.72.7.67,1.54.49,2.36-.23,1.11-.97,1.95-2.27,2.55-2.1.96-4.35,1.29-6.76,1.15-.53-.03-.63-.24-.66-.58-.13-1.46-.32-2.92-.42-4.38-.1-1.56-.13-3.13-.2-4.69-.04-1.06-.1-2.13-.14-3.2-.01-.31-.14-.53-.6-.56-.4-.03-.65-.19-.73-.55ZM67.97,106.63c.31.08.51.19.71.19,1.17,0,2.26-.2,3.09-.89.17-.14.33-.32.38-.5.39-1.36.37-2.76-1.85-3.68-.59-.24-1.15-.29-1.78-.14-.39.09-.6.25-.57.59.04.42.04.84.04,1.26,0,1.03-.01,2.07-.02,3.18ZM67.72,97.25s-.04,0-.06,0c.05.72.09,1.43.16,2.15.05.48.39.6.92.37.54-.24,1.08-.46,1.59-.72.35-.17.68-.38.97-.62,1.2-.98.77-2.95-1.03-3.31-.81-.16-1.55-.05-2.29.16-.32.09-.38.3-.36.55.05.47.06.94.09,1.41Z"/>
      <path class="cls-6" d="M67.97,106.63c0-1.11.02-2.15.02-3.18,0-.42,0-.84-.04-1.26-.03-.34.18-.49.57-.59.63-.15,1.19-.1,1.78.14,2.22.92,2.24,2.32,1.85,3.68-.05.18-.21.36-.38.5-.82.7-1.91.89-3.09.89-.2,0-.41-.1-.71-.19ZM69.14,106.02c.33-.03.53-.02.7-.08,1.23-.42,1.68-.85,1.64-2.19-.02-.7-.55-1.15-1.32-1.45-.72-.27-1.11-.08-1.12.53-.02.84-.02,1.68,0,2.53,0,.19.06.38.12.65Z"/>
      <path class="cls-6" d="M67.72,97.25c-.03-.47-.04-.94-.09-1.41-.02-.26.04-.46.36-.55.74-.21,1.48-.32,2.29-.16,1.8.36,2.23,2.33,1.03,3.31-.29.24-.62.45-.97.62-.51.26-1.06.48-1.59.72-.53.23-.87.1-.92-.37-.07-.72-.11-1.43-.16-2.15.02,0,.04,0,.06,0ZM69.56,95.83c-.62-.02-.94.14-.99.61-.07.66-.08,1.33-.04,2,.02.42.31.53.79.37.85-.27,1.45-.75,1.7-1.43.3-.81-.38-1.52-1.46-1.55Z"/>
      <path class="cls-1" d="M69.14,106.02c-.05-.27-.12-.45-.12-.65-.01-.84,0-1.68,0-2.53.01-.62.41-.81,1.12-.53.77.29,1.3.74,1.32,1.45.04,1.34-.41,1.77-1.64,2.19-.16.05-.37.04-.7.08Z"/>
      <path class="cls-1" d="M69.56,95.83c1.07.03,1.76.73,1.46,1.55-.25.68-.85,1.16-1.7,1.43-.48.16-.77.05-.79-.37-.04-.66-.03-1.33.04-2,.05-.48.37-.63.99-.61Z"/>
      <path class="cls-1" d="M136.17,95.05c.89.29,1.08.8,1.08,1.36,0,.49-.63.92-1.17.83-.58-.1-.67-.51-.54-.92.14-.44.41-.85.63-1.27Z"/>
      <path class="cls-1" d="M85.45,100.63c-.08-.04-.16-.08-.23-.13.08-.08.16-.17.24-.25.06.07.17.13.16.19,0,.06-.11.12-.17.19Z"/>
    </g>
  </g>
  <text class="cls-7" transform="translate(16.41 109.79) scale(.79 1)"><tspan x="0" y="0">53</tspan></text>
</svg>