<?xml version="1.0" encoding="UTF-8"?>
<svg id="Layer_1" data-name="Layer 1" xmlns="http://www.w3.org/2000/svg" viewBox="0 0 180 200">
  <defs>
    <style>
      .cls-1 {
        font-family: AmericanTypewriter-Bold, 'American Typewriter';
        font-size: 20px;
        font-weight: 700;
      }

      .cls-1, .cls-2 {
        fill: #fff;
      }

      .cls-3 {
        fill: #be202f;
      }

      .cls-4 {
        fill: #231f20;
      }

      .cls-4, .cls-5 {
        fill-rule: evenodd;
      }

      .cls-5 {
        fill: #00a9c7;
      }

      .cls-6 {
        fill: #0481bc;
      }

      .cls-7 {
        fill: #00679d;
      }
    </style>
  </defs>
  <g>
    <path class="cls-2" d="M47.04,70.28s-4.49,41.28-1.35,43.53c3.14,2.24,118.02,3.59,122.06,2.69,4.04-.9,9.24,3.86,7.54-7.72-1.7-11.58-1.7-39.85-1.7-39.85,0,0-4.94-.9-8.97-1.35-4.04-.45-115.33-.45-115.33-.45,0,0-3.14,1.35-2.24,3.14Z"/>
    <g>
      <path class="cls-6" d="M71.9,73.25c-1.16.3-2.33.57-3.49.89-3.48,1-6.49,2.75-8.75,5.64-2.78,3.56-2.69,7.71.32,11.09,1.39,1.56,2.92,3,4.46,4.41,1.91,1.74,3.37,3.75,4.16,6.23,1,3.12.17,5.41-2.39,7.51-1.89,1.55-3.74,1.63-5.75.48-1.66-.96-3.3-1.95-4.92-2.97-.43-.27-.8-.68-1.13-1.08-3.49-4.21-5.38-9.04-4.76-14.51.75-6.66,3.8-12.1,9.76-15.57,2.25-1.31,4.75-1.92,7.32-2.25,1.17-.15,2.34-.23,3.52-.27.55-.02,1.1.12,1.65.19,0,.07,0,.14,0,.21Z"/>
      <path class="cls-6" d="M85.49,100.86c-.08-.95-.09-1.92-.28-2.85-.16-.79-.4-1.65-.86-2.29-2.45-3.43-5.39-6.26-9.45-7.77-2.54-.94-4.76-2.38-6.3-4.69-.36-.54-.66-1.12-.95-1.71-.87-1.78-.34-3.3.96-4.64,1.54-1.58,3.52-2.17,5.62-2.51,1.22-.2,2.23.08,3.3.75,2.31,1.45,4.5,3.03,6.24,5.13.94,1.13,1.75,2.4,2.42,3.71,1.37,2.67,1.96,5.57,2.13,8.56.14,2.43-.57,4.65-1.66,6.77-.29.56-.62,1.1-.93,1.65-.08-.04-.17-.08-.25-.11Z"/>
      <path class="cls-7" d="M126.62,98.69c.43-.17.83-.43,1.24-.45,2.31-.12,4.61-.18,6.92-.25.78-.02,1.56,0,2.47,0,.05,1.07.09,2.04.14,3.19-1.19.1-2.3.19-3.5.29-.62,2.77.58,5.44.4,8.26h-3.55c-.11-2.8-.22-5.52-.34-8.41-.84,0-1.53,0-2.22,0q-1.17-.01-1.68-1.35c-.44,3.34-.08,6.45-.43,9.55-.92.32-1.72.33-2.38-.49-.19-.24-.44-.42-.67-.62-1.05-.91-2.11-1.82-3.16-2.72-.29-.24-.59-.47-.93-.75v4.96h-3.92c-.06-.51-.17-1.05-.17-1.6-.02-2.4,0-4.8,0-7.2,0-.48-.02-.96-.05-1.44-.07-1.16.07-1.3,1.18-1.35.79-.04,1.43.21,2.03.72,1.48,1.28,3,2.52,4.65,3.9.5-1.71-.14-3.31.15-4.95,1.03-.28,2.11-.21,3.19-.18.72.02.54.66.63.91Z"/>
      <path class="cls-3" d="M173.53,88.07c.29,1.25-.23,2.63-1.28,3.24-.58.34-1.29.55-1.96.63-.98.12-1.46-.34-1.28-1.3.2-1.06.62-2.08.97-3.1.11-.32.33-.61.6-1.08-.71.22-1.26.39-1.71.53-.57,1.27-1.07,2.46-1.63,3.63-.54,1.13-1.56,1.76-2.65,2.21-.44.18-1.03.12-1.53.04-.51-.08-.99-.31-1.53-.5-.78.77-1.56,1.64-2.81,1.06-1.43-.66-1.33-1.97-1.19-3.29h-.29c-.1.27-.22.55-.28.84-.22,1.06-.69,1.96-1.57,2.63-.82.63-1.72.92-2.68.42-.89-.46-1.27-1.28-1.2-2.29.03-.38.06-.76.1-1.3-.3.19-.58.26-.65.42-.21.48-.33.99-.5,1.49-.42,1.21-1.17,2.12-2.35,2.67-1.14.53-1.52.43-2.27-.67-.07-.1-.15-.2-.23-.31-.51.36-1,.74-1.52,1.05-1.13.67-2.67.75-3.33.09-.96-.96-1.29-2.12-.87-3.48.49-1.59,1.4-2.8,2.93-3.48,1.18-.53,2.1.02,2.18,1.32.04.56,0,1.14-.14,1.68-.11.43-.53.8-1,.58-.28-.13-.56-.58-.57-.89-.02-.59.15-1.19.24-1.81-1.67.82-2.8,2.89-2.55,4.61.18,1.26,1.01,1.71,2.16,1.13.89-.44,1.54-1.16,1.9-2.08.24-.6.33-1.27.57-1.87.37-.92.75-1.85,1.26-2.7.48-.81,1.44-1.1,2.28-.89,1.02.26,1.44.77,1.58,1.92.01.08.06.16.14.35.26-.14.55-.23.74-.41.68-.67,1.35-1.36,2-2.07.5-.56,1.02-.93,1.82-.61.87.34,1.75.63,1.82,1.78.01.24.07.48.11.75.69-.39,1.18-1.24,1.74-2.99-.41-.08-.81-.17-1.24-.25,0-.66.48-.81.87-.81.65-.01.89-.41,1.16-.88.36-.62.77-1.22,1.21-1.9,1.02.63.43,1.55.72,2.23.37.16.75.34,1.17.53-.19.57-.69.6-1.07.61-.81,0-1.19.47-1.41,1.13-.44,1.28-.87,2.56-1.26,3.85-.21.69-.18,1.37.52,1.89.71-.4,1.13-.8.96-1.75-.31-1.72.48-3.16,1.6-4.39.72-.79,1.68-1.06,2.75-.87,1.56.28,2.16,1.51,1.43,2.94-.63,1.24-2,1.96-3.44,1.81-.05.07-.14.12-.15.2-.14.66-.23,1.37.52,1.71.68.3,1.31-.03,1.76-.53,1.13-1.24,1.86-2.73,2.46-4.28.07-.17.01-.42-.05-.61-.44-1.44.04-2.41,1.51-3.05q.24.67.05,1.88c.46-.24.83-.4,1.17-.61.33-.2.64-.45,1.06-.74.35.36.7.73,1.16,1.21-1.1,1.37-1.68,2.94-1.63,4.69,0,.28.18.55.28.85,1.59-.29,1.5-1.85,2.34-2.83ZM154.23,88.54c-1.53,2.3-1.7,3.39-.66,4.66,1.42-.59,1.87-1.8,2.11-3.01-.56-.64-1.01-1.15-1.44-1.65ZM147.81,89.75c-1.24,1.14-1.58,2.57-.69,3.97,1.33-.56,1.87-1.69,2.13-2.57-.58-.57-1-.98-1.43-1.4ZM163.26,89.05c1.24-.66,1.91-1.43,2.35-2.6-1.09.24-1.83,1.06-2.35,2.6Z"/>
      <path class="cls-7" d="M125.09,96.31c-1.07.06-1.93.09-2.79.16-.69.06-1.14-.16-1.44-.83-.35-.79-.79-1.55-1.22-2.31-.14-.24-.35-.44-.62-.76-.69,1.36.1,2.71-.42,4.01h-3.22c-.14-3.91-.56-7.84.04-11.92,2.01,0,4.06-.18,6.06.04,2.91.33,3.83,3.52,3.03,5.33-.4.9-.95,1.74-1.54,2.8.61.99,1.33,2.16,2.14,3.48ZM119.09,90.25c.56-.17,1.07-.27,1.53-.47.6-.26.77-.8.53-1.41-.38-.96-1.1-1.16-2.43-.64.12.79.24,1.59.38,2.52Z"/>
      <path class="cls-7" d="M101.08,106.02c.98,1.33,1.89,2.57,2.91,3.95-1.52.4-2.86.15-4.14.26-.66-1.19-1.29-2.31-1.97-3.53-.62.65-.35,1.27-.37,1.83-.03.56.04,1.12.07,1.82-1.13.08-2.18.15-3.39.23v-12.02c2.03-.38,4.06-.54,6.09-.26,2.4.33,3.57,2.23,2.86,4.57-.36,1.19-.99,2.22-2.06,3.14ZM97.61,104.26c.76-.39,1.34-.63,1.87-.96.52-.33.53-.87.32-1.39-.22-.54-.95-.9-1.51-.77-.59.14-.68.59-.68,1.1,0,.56,0,1.11,0,2.02Z"/>
      <path class="cls-7" d="M109.34,107.21c1.21,0,2.34,0,3.47,0,.16,0,.32.09.59.16-.1.87-.19,1.72-.29,2.62-2.76.16-5.43.48-8.06.17.12-3.98.24-7.89.35-11.78,2.7-.5,6.46-.5,8,0-.09.98-.18,1.96-.27,3.02-1.4.39-2.78-.2-4.25.03v1.7c1.42-.08,2.74-.69,4.26-.35-.05.87-.1,1.71-.16,2.68-1.26.21-2.49.42-3.82.64.06.39.12.75.17,1.1Z"/>
      <path class="cls-7" d="M148.19,109.67c-1.13,0-2.16.02-3.19-.02-.21,0-.47-.2-.6-.39-.23-.31-.37-.68-.61-1.16-1.28.12-2.56.25-3.91.37-.12.44-.22.84-.35,1.34h-4.09c1.91-4.05,3.74-7.93,5.54-11.73,1.18-.38,1.88.08,2.32,1.02,1.24,2.64,2.48,5.28,3.71,7.92.41.89.8,1.79,1.18,2.64ZM141.97,103.91c-.38.8-.65,1.35-.98,2.05.67.04,1.11.06,1.71.1-.26-.76-.45-1.32-.73-2.15Z"/>
      <path class="cls-6" d="M74.02,73.99c-1.41.4-2.83.75-4.22,1.2-1.75.56-3.43,1.31-4.77,2.63-.49.49-.96,1.02-1.36,1.58-1,1.39-1.01,2.81-.11,4.28.93,1.51,2.29,2.61,3.54,3.83,2.98,2.88,6.07,5.67,8.83,8.74,2.54,2.82,3.92,6.27,3.74,10.18-.02.52-.14,1.03-.19,1.55-.05.49-.31.78-.73.99-.64.32-1.26.66-2.01,1.06.34-1.17.79-2.14.88-3.14.2-2.27.05-4.48-1.32-6.51-2.09-3.08-4.51-5.88-7.11-8.53-1.92-1.96-3.92-3.85-5.81-5.85-.68-.72-1.23-1.6-1.67-2.49-.63-1.28-.57-2.58.14-3.89,1.24-2.27,3.07-3.72,5.52-4.51,1.87-.6,3.74-1.18,5.7-1.37.29-.03.59,0,.88,0,.02.08.04.16.06.24Z"/>
      <path class="cls-7" d="M106.8,95.36c-.21.55-.38.99-.62,1.59-1.1-.1-2.2-.2-3.47-.32.99-2.5,1.92-4.93,2.91-7.32.49-1.16,1.18-2.24,1.64-3.41.36-.91.91-1.2,1.96-.95,1.72,3.68,3.49,7.45,5.27,11.25-.75.18-1.55.35-2.32.57-.68.2-1.08-.03-1.32-.68-.12-.32-.31-.61-.47-.93-1.21.06-2.37.13-3.59.19ZM107.71,92.68h1.35c-.23-.59-.43-1.1-.72-1.84-.25.72-.42,1.22-.64,1.84Z"/>
      <path class="cls-7" d="M157.34,105.97c1,.27,1.87.53,2.74.74.28.07.63.12.88.03.29-.11.7-.36.73-.6.04-.33-.12-.83-.37-1.01-.48-.36-1.06-.62-1.64-.78-1.35-.38-1.97-1.4-2.37-2.58-.41-1.22.59-2.9,2.05-3.57,1.26-.57,2.6-.7,3.96-.62.52.03,1.04.14,1.63.22.21.9.35,1.81.13,2.8-1.39.11-2.79-.44-4.15.29.34.65.95.58,1.4.76,1.41.57,2.44,1.47,2.95,2.94.7,2.01.03,3.66-1.93,4.49-.4.17-.83.32-1.26.33-1.43.04-2.86.02-4.47.02-.11-1.22-.2-2.32-.3-3.47Z"/>
      <path class="cls-7" d="M102.25,96.48c-.5.17-.87.41-1.23.4-1.47-.07-3.02.04-4.39-.4-1.88-.6-2.99-2.14-3.53-4.08-1.2-4.27,2.6-7.99,6.13-7.84,2.73.12,3.11.37,2.96,3.09,0,.08-.05.16-.12.37-.25,0-.53,0-.82,0-.57-.02-1.13-.08-1.7-.06-1.66.06-2.81,1.12-2.89,2.62-.09,1.74.75,2.77,2.53,3.03.47.07.95.06,1.42.02.43-.03.86-.14,1.35-.22.09.99.18,1.96.27,3.07Z"/>
      <path class="cls-7" d="M156.53,106.63v3.09c-1.3.45-2.49-.18-3.7-.24-1.21-.06-2.42-.14-3.79-.22-.25-3.84-.37-7.6-.38-11.42,1.15-.51,2.33.01,3.63-.36.18,3.1.35,6.03.52,9.01,1.19.61,2.45-.03,3.72.13Z"/>
      <path class="cls-3" d="M133.14,93.63c.97.58,1.74,1.13,2.6,1.52.87.4,1.66.17,1.85-.35.17-.47-.24-1.05-1.07-1.45-.43-.2-.92-.29-1.33-.52-1.62-.92-1.99-1.74-1.58-3.27.57-2.13,1.91-3.58,3.72-4.67.71-.43,1.48-.49,2.22,0,.77.52,1.07,1.26.93,2.15-.14.81-.32,1.62-.56,2.41-.1.33-.4.6-.62.9-1.05-.93-1.14-1.3-.72-2.47.25-.71.79-1.35.63-2.4-.54.3-.98.53-1.4.8-1.17.77-1.95,1.86-2.45,3.15-.5,1.29-.17,1.86,1.14,2.38.64.25,1.25.6,1.82.98.59.4.8,1,.61,1.72-.21.77-.6,1.39-1.4,1.57-1.88.44-3.72.42-5.39-.72-.29-.2-.65-.6-.62-.87.03-.26.5-.52.82-.68.3-.15.67-.16.8-.19Z"/>
      <path class="cls-6" d="M141.61,78.23c.83,1.21,1.64,2.38,2.5,3.63-1.02.24-1.67.12-2.09-.77-.28-.58-.7-1.1-1.09-1.63-.43-.57-.41-.97-1.74-.56v2.68c-.46.14-.82.24-1.38.41v-8.84c1.2,0,2.46-.09,3.69.03,1.04.1,1.93,1.22,2.06,2.26.14,1.09-.25,1.8-1.34,2.43-.18.11-.36.22-.6.36ZM139.25,77.6c.68-.12,1.32-.15,1.9-.36.62-.22.94-1,.86-1.74-.08-.75-.6-1.01-1.24-1.11-.49-.08-.99-.12-1.52-.19v3.4Z"/>
      <path class="cls-6" d="M149.96,75.66c0,1.83,0,3.39,0,4.94,0,.26.1.56,0,.77-.1.23-.37.39-.57.57-.16-.17-.46-.34-.46-.51-.04-2.74-.03-5.48-.03-8.22,0-.02.07-.04.25-.14,1.97,1.66,3.56,3.78,5.48,5.78.38-1.06.14-1.99.17-2.9.03-.9,0-1.81,0-2.8.26-.02.59-.05,1.09-.09,0,2.91.11,5.74-.08,8.55-.81.13-1.07-.36-1.35-.69-1.34-1.54-2.65-3.12-3.97-4.68-.11-.13-.23-.25-.54-.58Z"/>
      <path class="cls-3" d="M129.68,91.31c-.62-.06-1.14-.12-1.67-.17-.01-.09-.03-.19-.04-.28.92-.45,1.83-.93,2.77-1.33.76-.31.8-.25,1.6.36q-.37.63-1.51,1.09c-.03.31-.04.66-.11.99-.23,1.1-1.82,2.17-2.89,1.96-1.07-.21-1.75-1.29-1.61-2.49.13-1.08.88-1.75,1.58-2.45-.93-.96-.97-1.58-.21-2.62.64-.88,1.46-1.5,2.58-1.61.96-.1,1.41.3,1.38,1.25-.02.47-.09.96-.24,1.41-.08.22-.39.37-.6.54-.19-.26-.52-.52-.54-.79-.03-.44.16-.9.03-1.53-.43.32-.91.58-1.27.96-.8.87-.64,1.34.49,1.75.35.13.69.32,1.04.76-.47.17-.94.32-1.4.51-1.5.65-2.01,1.65-1.55,3.06,1.31.17,1.76-.11,2.17-1.37Z"/>
      <path class="cls-6" d="M132,78.88v2.86c-.35.09-.71.18-1.12.28-.1-2.87-.2-5.66-.3-8.48,1.42-.61,2.84-.45,4.23-.07,1.2.33,1.86,1.52,1.76,2.87-.09,1.18-.86,2.05-2.13,2.28-.8.14-1.62.18-2.44.27ZM132.18,74.44v3.14c.66-.11,1.22-.17,1.75-.32.57-.16.98-.55,1.09-1.17.11-.64-.22-1.1-.71-1.43-.65-.42-1.36-.53-2.13-.22Z"/>
      <path class="cls-6" d="M164.01,79.98c.07-.39.14-.81.24-1.38-.78-.11-1.53-.22-2.37-.34.07-.35.12-.63.18-.93h3.23c.05,1.25-.27,2.37-.66,3.46-.07.21-.32.45-.53.51-3.49,1.04-5.81-.44-6.52-3.98-.31-1.52,1.41-3.72,3.05-4.14,1.36-.35,2.74-.23,4.21.09-.11.39-.2.7-.29,1.02-2-.8-3.91-.32-5.09,1.21-1.1,1.44-.62,3.55,1,4.35,1.13.56,2.29.86,3.54.13Z"/>
      <path class="cls-6" d="M107.98,82.19c-.48.08-.81.14-1.19.21-.4-.71-.77-1.39-1.22-2.18-.87-.03-1.82-.02-2.77-.1-.68-.05-1.06.25-1.28.85-.07.2-.17.4-.21.62-.16.82-.65,1.06-1.6.81,1.14-3.05,2.69-5.86,3.85-8.85.1,0,.21,0,.31,0,1.35,2.84,2.69,5.69,4.09,8.64ZM103.7,75.88c-.52,1.22-.92,2.15-1.41,3.3,1.07-.13,1.9-.22,2.86-.34-.5-1.01-.91-1.85-1.46-2.96Z"/>
      <path class="cls-6" d="M128.72,73.43v.98c-.13.06-.21.13-.27.12-.51-.11-1.02-.33-1.52-.33-.44,0-.96.16-1.3.42-.6.47-.49,1.2.17,1.61.56.34,1.17.6,1.72.95.94.6,1.51,1.43,1.48,2.6-.03.98-.47,1.75-1.39,2.02-.9.26-1.88.36-2.82.38-.68.02-1.15-.39-.97-1.3.24.07.46.13.68.2,1.13.39,2.14.19,2.75-.55.72-.86.58-1.88-.38-2.45-.52-.31-1.09-.57-1.67-.73-.97-.26-1.3-.97-1.39-1.84-.08-.86.47-1.73,1.33-2.07,1.17-.46,2.36-.57,3.59-.01Z"/>
      <path class="cls-6" d="M93.99,81.09c.83.15,1.66.38,2.49.42.79.04,1.33-.5,1.46-1.22.12-.65-.18-1.24-.86-1.59-.46-.24-.95-.42-1.43-.64-.77-.35-1.21-.99-1.47-1.75-.38-1.13.04-1.96,1.16-2.38.32-.12.66-.27,1-.28.82-.04,1.64-.01,2.54-.01.02.34.03.7.05.94-.84,0-1.6-.03-2.36.01-.59.03-1.17.26-1.24.94-.07.65.42,1.01.94,1.28.5.26,1.02.49,1.51.76.86.48,1.32,1.24,1.48,2.19.17,1.02-.35,1.91-1.31,2.26-.95.35-1.91.58-2.94.42-1.03-.16-1.14-.31-1.03-1.36Z"/>
      <path class="cls-6" d="M115.79,74.65h-2.61c-.06-.39-.12-.75-.2-1.2.54-.04.96-.09,1.39-.1,1.82,0,3.64,0,5.54,0,.03.44.06.76.09,1.25-.93.04-1.78.08-2.81.13-.19,2.43.22,4.88.05,7.46-.26.05-.62.11-1.12.2-.35-2.57-.02-5.09-.34-7.73Z"/>
      <path class="cls-6" d="M110.37,81.25h3.78c-.06.36-.1.63-.16.94h-4.7c-.12-2.84-.24-5.63-.37-8.51h1.44v7.57Z"/>
      <path class="cls-6" d="M145.2,73.05c.55.03.89.04,1.31.06v8.5c-.41.04-.81.09-1.29.14-.53-2.94.03-5.74-.02-8.69Z"/>
    </g>
  </g>
  <g>
    <polygon class="cls-5" points="28.13 78.6 4.57 113.08 5.74 114.57 50.69 113.01 34.55 83.35 29.74 77.74 28.13 78.6 28.13 78.6"/>
    <path class="cls-4" d="M26.97,83.07c-.85.37-.24-.86-1.09-.48-.41.14-.18.86-1.03.59-.33,1.41-.66,2.8-1.98,3.31-.31,1.48.76,1.42,1.18,2.08-1.86,1.36-1.87,5.71-5.14,4.26.3.8,1.28.84,1.43,1.81-.71.36-1.23.5-1.57.61,1.14.93-.3.7-.74,1.37-1.14,1.77-1.76,4.56-3.76,5-.07,1.3-.54,2.23-1.75,2.49.67,1.38-.39.2-.76.84,1.72.32-1.1,1.17.1,1.87-1.9.39-1.44,2.94-2.75,3.88-.17-.46.25-1.59-.34-1.59,0,.42.08.92-.5.83-.28.88.87.16.59,1.03-1.11.27-.9,1.73-1.48,2.49,2.78-.61,7.3-.66,10.41-.52.05-.21-.02-.53.24-.55,10.36.95,18.61-.66,31.25-1.01-.58-2.81-3.05-4.15-4.03-5.69-.32-2.37-2.56-2.61-2.66-5.22-1.2.18-1.03-.95-.88-1.56-1.06.03-2.03-1.7-1.17-2.08-.84.45-.9-.16-1.63-.46-1.93-5.83-6.53-9.94-8.74-14.54.01.27-.45.36-.53.02.32-.04.63-.11.51-.56-.75.26-.71-.34-1.35-.2-1.29,1.8-1.87,4.25-4.02,5.28.56.91-.2,1.3-.7,1.91-.33-1.06-.07-2.08.39-2.96.44-.02.18.73.57.77.06-1.15.97-3.33,1.76-2.23-.03-.37.09-.59.22-.81h0ZM42.56,95.4c1.58.23,1.17,2.65,2.82,2.8.04,1.73.93,2.54,2.03,3.11-.13,1.83.9,2.38,2.01,2.84.13.45-.18.51-.5.56.38.37,1.26.61.6,1.31.21-.16.42-.3.79-.31.12.54-.01.84-.49.83.53.68,2.07,2.13,1.2,2.62.27.45.87.55,1.62.46.15,2.18,1.35,3.2,1.35,5.55-.26-.15-1.01-.57-.78.3-.48-.5-1.86,0-1.92-.97-.59,1.05-1.83-.7-3.17.69-.81.14-.6-.84-.87-1.3-.76.27.38.66.07,1.34-.21-.17-.9-1.09-.8.04-3.73-.26-9.26-.28-12.56.08-.02-.26-.03-.53-.04-.79-1.21.71-2.61.85-3.74.18-.72,1.04-5.69,1.07-7.21.36-2.94,1.68-9.46.1-10.87,1.87-2.3-1.29-6.26.17-9.14-.88-.27-.84.18-1.03.46-1.37-1.07-.04-.45-.2-.62-1.84,1.25-.41,1.76-1.46,1.73-3.03,1.24.2.54-1.37,1.81-1.16-.23-.81-.21-.5-.06-1.33,1.81.2.72-2.24,2.29-2.25-.18-.26-.62-.25-.57-.78,1.08.3.5-.9,1.57-.61-.02-.45-.04-.89-.07-1.34.23-.21.59-.32,1.05-.32,1.56-4.03,4.49-6.81,6.16-10.74.92-.02,1.21-.6.99-1.66.78.03.79-.64,1.58-.61.65-3.58,4.05-4.66,4.68-8.26,2.93-.66,2.23-4.61,5.08-5.33-.18-.26-.63-.25-.58-.78.88-.05,1.31-.52,2.39-.38,1.2.85-.31,1.38,1.4,1.27-1.11,1.2.34,4.73,1.55,4.2.39.07.07,2.02,1.42,1.8-.14.82.33.96.35,1.59,3.43,2.86,4.09,8.8,7.53,11.66.12.45-.19.51-.51.56h0Z"/>
  </g>
  <text class="cls-1" transform="translate(17.96 109.44) scale(.79 1)"><tspan x="0" y="0">54</tspan></text>
</svg>