<?xml version="1.0" encoding="UTF-8"?>
<svg id="Layer_1" data-name="Layer 1" xmlns="http://www.w3.org/2000/svg" viewBox="0 0 180 200">
  <defs>
    <style>
      .cls-1 {
        fill: #fff;
        font-family: AmericanTypewriter-Bold, 'American Typewriter';
        font-size: 20px;
        font-weight: 700;
      }

      .cls-2 {
        fill: #231f20;
      }

      .cls-2, .cls-3 {
        fill-rule: evenodd;
      }

      .cls-4 {
        fill: #c9c9c9;
      }

      .cls-3 {
        fill: #00a9c7;
      }

      .cls-5 {
        fill: #a1a1a1;
      }

      .cls-6 {
        fill: #eb4e24;
      }
    </style>
  </defs>
  <g>
    <path d="M46.01,63.4s0,4.37.14,7.24c.14,2.87.82,6.83.68,10.79-.14,3.96,0,4.92-.14,12.71-.14,7.79-.14,11.07-.14,13.8s.27,8.74.14,12.02c-.14,3.28-.14,5.19-.14,5.74s1.09,1.64,1.09,1.64c0,0,14.48,1.37,16.26,1.09s2.87-.27,9.02-.27,10.79.68,17.76.27,25.96-.55,33.2-.27c7.24.27,13.39.55,21.72.55s8.74-.27,14.62-.55c5.87-.27,13.53-.96,13.53-.96,0,0,1.64-5.05.96-7.38s-.41-3.14-1.23-7.92c-.82-4.78-1.91-19.13-1.91-22s-.96-4.51-.27-9.43c.68-4.92.82-3.14.68-7.65-.14-4.51-.68-4.65-.41-7.65.27-3.01.55-3.55.55-3.55,0,0-31.56-1.23-33.88-1.23s-22.68.68-30.47.96-14.48-.14-17.76-.14-8.61-.14-13.94-.14-15.16,0-19.13-.14c-3.96-.14-8.88.14-8.88.14l-2.46.55.41,1.78Z"/>
    <path class="cls-5" d="M110.52,84.42c-2.57-2.44-5.14-4.88-7.78-7.38-.77.99-1.04,2.08-1.46,3.07.68.82,1.36,1.56,1.95,2.37,3.3,4.5,2.07,12.26-4.98,14.78-4.7,1.68-9.65-1.16-11.36-5.44-1.19-2.97-.93-5.77.73-8.48,1.28-2.1,2.93-3.75,5.37-4.34,1.05-.26,2.17-.31,3.25-.35.79-.03,1.59.11,2.46.18,1.41-2.69,2.79-5.33,4.28-8.18-.75,0-1.32.02-1.88,0-.95-.03-1.37-.36-1.43-1.09-.07-.82.32-1.41,1.23-1.46,1.72-.09,3.46-.05,5.19-.04.54,0,.75.41.66.88-.09.45-.26.89-.49,1.29-.55,1-1.14,1.96-1.78,3.05,3.06,2.12,5.78,4.6,9.1,6.3.87-.95,1.6-1.89,2.43-3.08-.64,0-1.01,0-1.37,0-.66,0-1.12-.35-1.48-.85-.53-.73-.42-1.5.36-1.95.46-.26,1.02-.45,1.54-.49,1.47-.1,2.96-.12,4.44-.14,1-.01,1.37.31,1.28,1.28-.07.73-.34,1.48-.67,2.14-1.21,2.4-3.04,4.36-4.63,6.5-1.59,2.14-3.19,4.26-4.76,6.42-.28.39-.56.61-1.05.5-.55-.13-.98-.46-1.01-1-.03-.57.02-1.21.26-1.71.44-.95,1.04-1.82,1.6-2.77ZM97.43,81.95c-.28-.17-.51-.41-.76-.45-1.74-.28-3.42-.12-4.76,1.13-3.25,3.06-3.68,6.23-1.48,10.16.37.66,1.01,1.31,1.69,1.64,2.57,1.25,5.02,1.27,7.44-.62,2.3-1.8,3.45-4.43,2.69-7.21-.39-1.44-1.21-2.62-2.47-3.59-.21.36-.34.58-.46.8-.75,1.42-1.46,2.86-2.24,4.26-.55.98-1.36,1.6-2.61,1.33-.36-.72-.2-1.42.07-2.09.22-.54.57-1.03.83-1.56.63-1.27,1.69-2.31,2.07-3.81Z"/>
    <path class="cls-5" d="M128.13,79.91c-2.65,2.73-5.34,4.96-8.16,7.29,1.32.44,2.63-.12,3.92.49-1.07,1.25-2.07,2.42-3.07,3.59,3.12-1.09,5.77-2.92,8.64-4.96-1.85-.35-3.44.12-4.97-.22-.03-.1-.07-.2-.1-.29.32-.22.62-.48.96-.67,1.6-.85,3.21-1.7,4.83-2.52.95-.48,1.28-.47,1.74.47.53,1.08.97,2.26,1.17,3.45.71,4.08-.74,7.36-3.9,9.96-1.44,1.18-3.13,1.5-4.87,1.47-3.99-.08-6.99-2.01-8.75-5.51-1.94-3.87-1.06-7.89,2.13-11.01,2.54-2.48,5.65-2.79,8.96-2.15.43.08.83.34,1.47.62Z"/>
    <path class="cls-6" d="M114.29,109.78v-6.49c.31-.06.54-.13.77-.13,1.18,0,2.36.01,3.54.04,1.25.03,2.06.95,1.77,2.17-.16.67-.06,1.19.18,1.8.18.44.2,1,.13,1.48-.08.62-.48,1.12-1.16,1.13-1.71.03-3.42.01-5.23.01ZM115.84,107.05v-1.05c.23-.03.39-.07.55-.07.63-.03,1.27,0,1.89-.11.26-.05.45-.4.68-.61-.22-.21-.41-.54-.67-.62-.89-.27-1.8-.25-2.76-.04v3.92c1.35-.03,2.62.14,3.91-.1q-.29-.98-3.59-1.3Z"/>
    <path class="cls-6" d="M138.97,110.03v-1.37c.54,0,1.03,0,1.51,0,.97,0,1.95.01,2.92.04.46.01.72-.16.77-.63.05-.52-.28-.66-.7-.68-.89-.04-1.78,0-2.66-.09-1.58-.16-2.35-1.59-1.62-2.96.13-.25.36-.57.59-.61,1.64-.32,3.29-.75,5.04-.3v1.27c-.98.03-1.93.06-2.89.08-.34,0-.7-.09-1.01,0-.27.08-.49.37-.73.56.2.25.37.57.63.72.23.13.57.1.87.11.68.02,1.35.05,2.03.03.77-.02,1.35.33,1.64.97.35.75.37,1.57-.12,2.31-.31.47-.79.59-1.33.58-1.6-.01-3.21,0-4.94,0Z"/>
    <path class="cls-6" d="M58.21,109.28c-.21,0-.42,0-.63,0-1.48.06-2.32-.35-2.76-1.68-.36-1.07-.58-2.21-.04-3.34.29-.6.66-1.11,1.29-1.33,1.52-.53,3.05-.63,4.56.07.53.25.93.63.97,1.24.07,1.09.16,2.19.1,3.28-.04.78-1.12,1.65-1.96,1.73-.5.04-1.01,0-1.52,0v.02ZM60.36,106.13c0-.34,0-.67,0-1.01-.02-.59-.39-1.03-.9-1.06-.95-.05-1.91.05-2.86.15-.18.02-.38.32-.48.53-.91,1.93.04,3.37,2.15,3.26.13,0,.25-.01.38-.02,1.47-.12,1.74-.4,1.71-1.85Z"/>
    <path class="cls-6" d="M74.14,108.02c1.68-.32,3.48.28,5.18-.36-.09-.84-.63-.89-1.12-.91-.8-.04-1.6,0-2.4-.03-.73-.03-1.28-.35-1.53-1.1-.27-.84-.45-1.65.28-2.35.17-.17.41-.34.63-.36,1.22-.1,2.44-.19,3.66-.21.38,0,.77.22,1.12.33.06.82-.39,1.01-.93,1.04-.55.03-1.1-.02-1.64-.02-.34,0-.68,0-1.01.01-.48.03-.82.25-.82.77,0,.48.36.64.77.68.59.05,1.18.03,1.77.09.5.05,1.02.07,1.48.24.89.35,1.26,1.13,1.07,2.05-.17.83-.79,1.35-1.69,1.39-1.31.06-2.61.12-3.92.13-1.03,0-1.14-.19-.87-1.39Z"/>
    <path class="cls-6" d="M82.89,109.46c-.04.48-.07.89-.1,1.29-1.25.57-1.45.49-1.54-.74-.11-1.43-.27-2.86.13-4.28.19-.69.52-1.05,1.29-1.14,1.11-.14,2.18-.18,3.27.09.65.16,1.05.52,1.1,1.2.04.54.16,1.1.06,1.62-.32,1.58-.83,1.95-2.43,1.96-.55,0-1.09,0-1.77,0ZM82.68,108.07c.58-.05,1.03-.1,1.47-.13.29-.02.6,0,.87-.07.51-.15.71-.57.68-1.08-.02-.39-.05-.85-.52-.88-.77-.05-1.58-.35-2.39.17-.04.66-.08,1.33-.12,2Z"/>
    <path class="cls-6" d="M160.61,110.33v1.11c-.48.14-.94.28-1.56.46-.07-1.08-.14-1.99-.18-2.9-.03-.59,0-1.18,0-1.77,0-1.33.61-2.09,1.97-2.25.71-.08,1.44-.06,2.14.04.99.13,1.57.79,1.6,1.8.02.71.01,1.46-.19,2.13-.12.41-.6.88-1,.99-.83.24-1.72.25-2.77.38ZM160.45,109.67c.29-1.04.92-.88,1.49-.89.94-.02,1.19-.26,1.21-1.19,0-.35-.11-.71-.16-1.04h-2.53v3.12Z"/>
    <path class="cls-6" d="M158.15,107.41c0,.13,0,.25,0,.38.08,1.6-.22,2.24-2.44,2.41-.54.04-1.1,0-1.64-.09-.98-.15-1.48-.73-1.49-1.72,0-.63.04-1.26.12-1.89.1-.76.62-1.18,1.31-1.38,1.12-.31,2.26-.19,3.39.02.47.09.73.43.77.89.04.46,0,.93,0,1.39,0,0-.01,0-.02,0ZM154.33,108.59c.91-.09,1.74.04,2.53-.51-.1-.55-.19-1.07-.32-1.76-.76.05-1.48.1-2.31.15.04.76.06,1.4.1,2.12Z"/>
    <path class="cls-6" d="M94.06,109.5c0-2.13-.02-4.11.01-6.09.02-.96.08-.97,1.28-.97v4.2c.8-.64,1.42-1.11,2.01-1.61.69-.58,1.39-.71,2.29-.04-.75.61-1.47,1.2-2.3,1.88.78.83,1.52,1.62,2.27,2.42-.98.57-1.7.32-2.34-.47-.47-.57-1.03-1.07-1.7-1.77v2.44h-1.52Z"/>
    <path class="cls-6" d="M133.59,108.42c.08.43.16.83.25,1.28-1.02.44-2.02.35-2.94-.05-1.26-.53-1.49-3.64-.35-4.42.26-.18.62-.29.94-.31.79-.04,1.6-.06,2.39,0,1.06.09,1.34.36,1.53,1.18.15.67-.23,1.54-.89,1.94-.28.16-.6.24-.92.37ZM131.28,108.45h1.03c-.94-.22-.68-.86-.64-1.4.78-.35,1.67.19,2.3-.56-2.03-.95-2.95-.38-2.78,1.64,0,.08.05.16.1.33Z"/>
    <path class="cls-6" d="M90.09,109.57c-2.12,0-2.94-.97-2.6-3.08.03-.17.06-.33.1-.5.32-1.18.52-1.38,1.73-1.41.84-.02,1.68.06,2.52.12.57.04.91.38,1.14.88.44.97.43,1.97.13,2.96-.16.53-.57.83-1.12.89-.63.07-1.26.09-1.89.14ZM88.97,105.97c.09.82.16,1.47.24,2.17h2.47c.42-.81.14-1.49-.23-2.17h-2.49Z"/>
    <path class="cls-6" d="M102.83,104.83c1.24-.26,2.45-.24,3.66-.1,1.1.13,1.54.99,1.75,1.92.23.98.16,1.98-.11,2.95q-1.28,0-1.16-1.14c.23-2.09-.24-2.59-2.34-2.46-.08,0-.16.05-.37.12-.07,1.1-.13,2.26-.2,3.41-1.13.24-1.27.17-1.35-.77-.12-1.29-.19-2.59.13-3.92Z"/>
    <path class="cls-6" d="M66.71,107.81c0-.92-.03-1.8.01-2.67.04-.78.08-.78,1.16-.7v4.74c-1.23,0-2.45.08-3.65-.03-.82-.07-1.37-.71-1.56-1.49-.25-1.06-.42-2.15-.14-3.36.39-.03.78-.06,1.33-.1.04.62.09,1.15.1,1.67.04,2.02.41,2.32,2.74,1.93Z"/>
    <path class="cls-4" d="M136.79,121.41c-.03-1.98-.13-3.82-.07-5.65.04-1.33,1.43-1.88,2.55-1.11.96.66,1.09,1.59.41,3.01.79,1.01.9,2.02.34,2.98-.76,1.31-1.94.83-3.23.77ZM137.76,120.58c.62.2,1.22.31,1.49-.29.2-.45.35-1.12.16-1.51-.27-.54-.91-.79-1.65-.54v2.34ZM137.75,117.14c1.18-.13,1.56-.39,1.51-.95-.06-.68-.71-1.03-1.69-.84.06.56.11,1.13.18,1.79Z"/>
    <path class="cls-6" d="M70.22,104.29c.04-.65.08-1.17.12-1.79.54.09.98.17,1.43.25.07.54.14,1.02.21,1.54.56.06,1.05.11,1.63.17v1.14c-.55.08-1.08.15-1.76.24v3.55c-.57-.04-.97-.07-1.5-.11v-3.27c-.61-.15-1.09-.27-1.58-.4v-1.32h1.44Z"/>
    <path class="cls-4" d="M110,116.41c-.19.65-.36,1.18-.49,1.72-.18.78-.52,1.42-1.62,1.81.9.19,1.46.47,1.6,1.21.12.67-.01,1.07-.64,1.33-.38.16-.81.26-1.22.25-.78,0-1.2-.58-1.06-1.37.04-.2.19-.4.19-.59,0-.85.44-1.64.05-2.56-.18-.42.15-1.15.44-1.62.17-.28.7-.45,1.07-.46.56,0,1.12.18,1.67.28ZM108.02,118.94c.9-.99.89-1.32.03-2.03-.69.91-.69.96-.03,2.03ZM107.26,121.75c.67.29,1.14.38,1.42-.43-.64-.35-1.03-.17-1.42.43Z"/>
    <path class="cls-4" d="M131.38,121.56q-1.23-.38-2.33.13c-.28-1.42-.64-2.79-.27-4.2.23-.87,1.01-1.01,1.79-.89q.3-1.77,1.08-2.02c-.15,2.35.27,4.66-.26,6.98ZM130.67,120.38c0-.73,0-1.34,0-1.96,0-.17.05-.36-.02-.49-.11-.2-.27-.42-.47-.51-.13-.06-.5.08-.52.17-.1.56-.19,1.14-.15,1.7.03.49.22.98,1.16,1.08Z"/>
    <path class="cls-4" d="M94.65,121.28c-.17.62-.31,1.09-.5,1.77-.27-.35-.53-.53-.52-.7.04-1.98.11-3.97.19-5.95,0-.07.1-.13.18-.24.37,0,.78.03,1.19,0,1.04-.08,1.29.08,1.52,1.05.23.98.07,1.94-.27,2.86-.29.79-.93,1.17-1.79,1.21ZM94.86,120.44c1.11-.8,1.33-1.89.82-3.48-.66-.12-1.05.12-1.09.83-.04.59-.08,1.18-.05,1.77.02.29.2.56.32.89Z"/>
    <path class="cls-4" d="M144.28,117.38c-.19-.81-.33-1.4-.46-1.96-.57-.23-1.08-.15-1.22.37-.2.76-.33,1.57-.29,2.34.05.84-.22,1.83.7,2.47,1.07-.03.89-1.21,1.57-1.72.13.13.36.24.39.39.31,1.41-.67,2.41-2.08,2.19-.62-.09-1.09-.4-1.14-1.01-.12-1.38-.28-2.78-.17-4.16.11-1.27.85-1.8,1.91-1.79.59,0,.99.25,1.11.83.12.61.54,1.27-.33,2.04Z"/>
    <path class="cls-6" d="M129.58,109.71c-1,.34-1.66.29-2.22-.29-.59-.59-1.18-1.19-1.76-1.79-.37-.38-.3-.77.06-1.1.62-.57,1.23-1.15,1.9-1.66.67-.51,1.34-.17,2.07.1-.44,1.13-1.83,1.09-2.35,2.14.71.8,1.45,1.63,2.31,2.59Z"/>
    <path class="cls-4" d="M92.36,116.25c-.3-.43-.46-.66-.63-.88-.42-.56-.89-.71-1.28-.43-.45.33-.43.83.1,1.42.25.28.57.51.81.8.38.45.8.89,1.07,1.41.61,1.2-.14,2.51-1.43,2.62-.59.05-.99-.22-1.23-.71-.23-.48-.54-1,.2-1.52.13.31.23.55.33.8.15.37.33.74.82.59.43-.14.76-.44.69-.94-.05-.32-.19-.66-.38-.91-.33-.44-.73-.82-1.1-1.22-.25-.28-.54-.54-.75-.86-.43-.67-.32-1.43.22-1.97.47-.47,1.21-.54,1.88-.18.8.43.93.73.67,1.98Z"/>
    <path class="cls-4" d="M74.61,118.45c.19.52.31.82.4,1.12.16.51.52.66.98.47.45-.19.68-.58.43-1.02-.31-.54-.72-1.02-1.13-1.5-.32-.39-.74-.7-1.04-1.1-.4-.54-.33-1.34.11-1.89.39-.49.87-.82,1.53-.6.69.23,1.15.71,1.29,1.43.03.19-.17.42-.4.92-.26-.55-.39-.87-.56-1.15-.21-.34-.49-.6-.94-.41-.42.19-.65.77-.41,1.18.19.32.52.55.75.84.53.65,1.17,1.25,1.52,1.99.54,1.13-.35,2.27-1.59,2.2-1.17-.07-1.73-1.19-.96-2.46Z"/>
    <path class="cls-4" d="M123.65,121.53c-.62-.04-1.13-.1-1.64-.12-.96-.03-1.47-.68-1.19-1.61.28-.94.98-1.43,2.03-1.66-.06-.36-.11-.69-.21-1.31-.59.48-.97.8-1.36,1.12-.36-.69-.23-1.07.45-1.47.64-.38,1.31-.29,1.65.3.2.35.3.79.32,1.19.04.58-.03,1.17-.04,1.76,0,.58,0,1.15,0,1.79ZM122.69,118.97c-.8.24-1.12.7-1.12,1.41,1.15.18,1.29,0,1.12-1.41Z"/>
    <path class="cls-4" d="M80.92,121.28c-.54-.04-.97-.11-1.41-.11-1.13,0-1.75-.88-1.17-1.86.35-.6,1.03-1.02,1.75-1.38v-1.17c-1.02-.52-.89.9-1.64.86-.29-.67.02-1.21.51-1.5.38-.22.97-.24,1.42-.13.24.06.48.56.53.88.08.58.02,1.17.02,1.76,0,.87,0,1.74,0,2.65ZM80,118.9c-1.06.47-1.09.53-.77,1.46.76-.18,1.01-.62.77-1.46Z"/>
    <path class="cls-6" d="M150.57,106.59c-.88-.08-1.62-.15-2.47-.22-.02-.38-.04-.73-.06-1.06.96-.43,1.83-.24,2.7-.08.5.09.86.42.92.93.12,1.04.21,2.08.28,3.13.03.54-.3.75-.81.72-.5-.04-.58-.35-.57-.8.03-.83,0-1.66,0-2.6Z"/>
    <path class="cls-4" d="M127.02,121.45c-.56-1.48.1-2.89-.28-4.22-.74-.12-.91.29-.94.87-.03.8-.09,1.6-.14,2.4-.02.36-.09.7-.55.69-.46,0-.56-.34-.53-.7.07-1.34.17-2.67.26-3.99.64-.06,1.13-.12,1.63-.14.67-.03,1.14.23,1.15.88.03,1.29-.09,2.59-.17,3.89,0,.07-.18.14-.43.31Z"/>
    <path class="cls-6" d="M146.45,102.98c1.18-.04,1.2-.04,1.22.83.02,1.39.01,2.77.02,4.16,0,.25.03.5.07.75.18,1.19.07,1.3-1.31,1.22v-6.97Z"/>
    <path class="cls-6" d="M124.05,102.66c.57.03,1.09.06,1.1.77.01,2.06,0,4.12,0,6.16-1.08.32-1.3.27-1.31-.48-.02-1.98.03-3.97.06-5.95,0-.16.09-.31.14-.5Z"/>
    <path class="cls-4" d="M105.11,121.34c-.75-.57-.34-1.37-.37-2.06-.04-.75,0-1.5,0-2.27-.69,0-1,.29-.99.92,0,.76.02,1.52-.02,2.28-.02.34-.15.67-.27,1.18-.59-.94-.68-3.44-.3-4.94.4-.09.8-.2,1.2-.28.63-.13,1.13.06,1.14.65.04,1.45-.07,2.91-.13,4.37,0,.04-.14.08-.26.15Z"/>
    <path class="cls-4" d="M115.67,119.57c.25.35.36.6.55.72.18.11.51.17.66.07.14-.1.25-.48.17-.63-.17-.32-.47-.56-.7-.85-.31-.38-.68-.74-.87-1.18-.19-.46.04-1,.49-1.17.38-.14.92-.12,1.29.04.47.21.67.69.37,1.4-.32-.33-.53-.57-.77-.76-.11-.08-.41-.09-.45-.03-.09.15-.17.43-.09.54.19.26.5.43.72.68.3.34.65.69.8,1.09.36.94-.15,1.69-1.14,1.81-1.08.14-1.43-.35-1.02-1.73Z"/>
    <path class="cls-4" d="M84.39,116.48c.24-.66.47-1.29.71-1.92.08,0,.16,0,.25-.01.08.4.17.81.25,1.23.3.18.62.36,1.11.65-.43.26-.72.43-1.04.63,0,.62.06,1.3-.01,1.95-.08.75.18,1.28.84,1.62-.53.65-1.02.72-1.39.17-.22-.33-.31-.77-.35-1.17-.05-.63.04-1.26-.02-1.89-.04-.42-.22-.83-.34-1.26Z"/>
    <path class="cls-6" d="M101.6,109.59c-1.25.04-1.35-.05-1.28-1.1.06-1.05.1-2.09.16-3.14.02-.44.09-.89.68-.84.52.04.67.4.66.89-.02,1.37.28,2.76-.22,4.19Z"/>
    <path class="cls-4" d="M119.41,114.4c.38.74.53,4.03.27,5.86-.06.43-.03.94-.69,1.2-.1-.27-.29-.52-.28-.76.08-2.01.2-4.03.33-6.04,0-.09.24-.17.37-.26Z"/>
    <path class="cls-4" d="M113.57,114.4c.19.29.46.5.46.72-.01,1.97-.06,3.94-.12,5.91,0,.1-.12.2-.18.3-.46.02-.64-.25-.64-.62.04-1.97.1-3.94.16-5.9,0-.06.1-.13.32-.4Z"/>
    <path class="cls-4" d="M82.19,121.15c.02-2.47,0-4.83.33-7.17.09-.03.19-.05.28-.08.11.26.3.53.3.79,0,1.85,0,3.7-.05,5.54,0,.38-.03.86-.86.91Z"/>
    <path class="cls-6" d="M121.54,109.66v-4.84c.39.04.79.07,1.2.11v4.5c-.15.09-.25.2-.36.22-.24.03-.48,0-.84,0Z"/>
    <path class="cls-4" d="M97.79,115.82c.68.53,1.1.7,1.61.41.14-.08.45.15.69.25-.11.21-.13.33-.18.35-1.17.38-1.45,1.22-1.34,2.35.07.68.19,1.42-.43,2.09-.81-.76-.39-1.67-.43-2.47-.04-.87.04-1.74.07-2.98Z"/>
    <path class="cls-4" d="M101.17,121.45c-.45-.74-.66-3.55-.38-4.56.06-.22.3-.4.5-.66.36.73.61,3.32.41,4.22-.07.33-.32.62-.53,1.01Z"/>
    <path class="cls-6" d="M109.14,103.08c.56.13.95.23,1.45.35-.03.58.02,1.13-.11,1.64-.06.24-.44.56-.66.55-.23,0-.61-.34-.65-.58-.1-.56-.03-1.15-.03-1.95Z"/>
    <path class="cls-4" d="M132.83,122.59c-.15-.55-.33-.99-.38-1.45-.02-.22.17-.61.35-.67.19-.06.56.11.7.29.45.58.21,1.23-.67,1.83Z"/>
    <path class="cls-6" d="M121.52,104.13c.03-.56.04-.93.06-1.42.43-.03.81-.05,1.32-.08-.04.52-.07.92-.11,1.41-.41.03-.76.05-1.27.09Z"/>
    <path d="M101.71,102.65q.08,1.05-1.04,1.07c-.36-1.14-.34-1.16,1.04-1.07Z"/>
    <path class="cls-4" d="M100.9,115.78c-.19-.59-.34-1.05.31-1.2.19-.04.62.19.65.35.11.62-.38.71-.96.85Z"/>
    <path d="M135.66,107.6s-3.02.9-4.1.36l-.18.44s1.41.69,3.02.2c1.61-.49,1.26-1,1.26-1Z"/>
  </g>
  <g>
    <g>
      <polygon class="cls-3" points="27.95 80.02 4.39 114.52 5.56 116 50.51 114.44 34.37 84.78 29.56 79.17 27.95 80.02 27.95 80.02"/>
      <path class="cls-2" d="M26.79,84.5c-.85.37-.24-.86-1.09-.48-.41.14-.18.86-1.04.59-.33,1.41-.66,2.8-1.98,3.31-.31,1.48.76,1.41,1.18,2.08-1.86,1.36-1.87,5.72-5.14,4.27.3.79,1.28.83,1.43,1.8-.71.36-1.23.5-1.57.61,1.14.93-.3.7-.74,1.38-1.14,1.77-1.76,4.56-3.76,5-.07,1.3-.54,2.23-1.75,2.49.67,1.38-.39.2-.76.85,1.72.32-1.1,1.17.1,1.87-1.9.4-1.44,2.94-2.75,3.88-.17-.46.25-1.59-.34-1.59,0,.42.08.93-.5.83-.28.88.87.16.59,1.04-1.11.27-.9,1.73-1.48,2.48,2.78-.61,7.3-.66,10.41-.52.05-.21-.02-.53.24-.55,10.36.95,18.61-.66,31.25-1.01-.58-2.8-3.05-4.15-4.03-5.69-.32-2.37-2.56-2.61-2.66-5.22-1.2.18-1.03-.95-.88-1.56-1.06.03-2.03-1.7-1.17-2.08-.83.45-.9-.16-1.63-.46-1.93-5.83-6.53-9.94-8.74-14.54.01.27-.45.36-.53.02.32-.05.63-.11.51-.56-.75.25-.71-.34-1.35-.2-1.29,1.8-1.87,4.25-4.02,5.29.56.91-.2,1.29-.7,1.91-.33-1.06-.07-2.08.39-2.96.44-.02.18.73.57.77.06-1.15.97-3.33,1.76-2.23-.03-.37.09-.59.22-.81h0ZM42.38,96.83c1.58.23,1.16,2.65,2.82,2.8.04,1.73.93,2.54,2.03,3.11-.13,1.82.9,2.38,2.01,2.84.13.45-.18.51-.5.56.38.36,1.26.61.6,1.31.21-.16.42-.3.79-.3.12.53-.01.83-.49.82.53.68,2.07,2.14,1.2,2.62.27.45.87.54,1.62.45.15,2.18,1.35,3.2,1.35,5.55-.26-.15-1.01-.57-.78.3-.48-.5-1.86,0-1.92-.97-.59,1.05-1.83-.7-3.17.69-.81.14-.6-.84-.87-1.3-.76.27.38.66.07,1.34-.21-.17-.9-1.08-.8.04-3.73-.26-9.26-.28-12.56.09-.02-.26-.03-.53-.04-.8-1.21.71-2.61.85-3.74.18-.72,1.05-5.69,1.08-7.21.36-2.94,1.69-9.46.1-10.87,1.88-2.3-1.29-6.26.16-9.14-.89-.27-.84.18-1.03.46-1.36-1.07-.04-.45-.21-.62-1.84,1.25-.4,1.76-1.46,1.73-3.03,1.24.2.54-1.37,1.81-1.16-.23-.81-.21-.5-.06-1.33,1.81.2.72-2.24,2.29-2.25-.18-.26-.62-.24-.57-.77,1.08.29.5-.9,1.57-.61-.02-.45-.04-.89-.07-1.34.23-.22.59-.32,1.05-.32,1.56-4.03,4.49-6.8,6.16-10.74.92-.02,1.21-.6.99-1.65.78.03.79-.64,1.58-.61.65-3.58,4.05-4.66,4.68-8.26,2.93-.66,2.23-4.61,5.08-5.33-.18-.27-.63-.25-.58-.77.88-.05,1.31-.52,2.39-.39,1.2.85-.31,1.38,1.4,1.27-1.11,1.2.34,4.73,1.55,4.2.39.07.07,2.02,1.42,1.8-.14.83.33.96.35,1.59,3.43,2.86,4.09,8.8,7.53,11.66.12.45-.19.52-.51.56h0Z"/>
    </g>
    <text class="cls-1" transform="translate(18.28 109.82) scale(.79 1)"><tspan x="0" y="0">56</tspan></text>
  </g>
</svg>