<?xml version="1.0" encoding="UTF-8"?>
<svg id="Layer_1" data-name="Layer 1" xmlns="http://www.w3.org/2000/svg" viewBox="0 0 180 200">
  <defs>
    <style>
      .cls-1 {
        font-family: AmericanTypewriter-Bold, 'American Typewriter';
        font-size: 20px;
        font-weight: 700;
      }

      .cls-1, .cls-2 {
        fill: #fff;
      }

      .cls-3 {
        fill: #ec8f30;
      }

      .cls-4 {
        fill: #231f20;
      }

      .cls-4, .cls-5 {
        fill-rule: evenodd;
      }

      .cls-5 {
        fill: #00a9c7;
      }

      .cls-6 {
        fill: #f19231;
      }
    </style>
  </defs>
  <g>
    <polygon class="cls-2" points="177.11 149.27 169.84 148.94 162.77 148.78 155.71 148.79 148.64 149.17 141.58 148.84 134.51 148.81 127.44 149.15 120.37 149.11 113.3 148.76 106.23 148.98 99.17 149.38 92.1 148.87 85.04 149.16 77.97 149.25 70.9 148.85 63.83 148.83 56.76 149.11 49.68 149.21 42.55 149.13 42.77 141.98 42.61 134.89 42.77 127.8 42.31 120.7 42.46 113.61 42.74 106.52 42.91 99.43 42.78 92.34 42.8 85.24 42.72 78.15 42.56 71.06 42.91 63.96 42.79 57.04 49.67 56.82 56.74 56.85 63.8 56.64 70.87 56.56 77.94 56.67 85 57.07 92.07 56.76 99.14 56.75 106.21 56.84 113.28 56.84 120.34 56.77 127.41 56.78 134.48 56.81 141.54 56.67 148.61 56.64 155.68 57.14 162.75 57.03 169.83 57.06 176.81 56.95 177.01 63.95 176.62 71.04 176.64 78.13 177.17 85.23 176.86 92.31 177.21 99.41 176.98 106.5 176.93 113.59 177.11 120.68 176.97 127.77 177.23 134.87 176.88 141.97 177.11 149.27"/>
    <g>
      <path d="M90.29,85.73c-.27.39-.47.6-.59.86-.86,1.8-1.68,3.61-2.55,5.4-1.26,2.61-2.53,5.22-3.84,7.81-1.74,3.44-3.52,6.85-5.31,10.27-.48.92-1.05,1.79-1.57,2.69-1.38,2.35-2.82,4.68-4.11,7.08-.94,1.75-2.31,3.14-3.63,4.56-1.65,1.78-3.36,3.5-5.11,5.18-1.6,1.53-3.31,2.93-4.92,4.43-1.08,1-2.09,2.07-3.13,3.12-.8.81-1.62,1.54-2.74,1.9-.57.18-1.08.53-1.63.8-.71.35-1.08.2-1.17-.57-.47-3.86-.5-7.7.68-11.45.68-2.19,1.36-2.69,3.64-2.81.95-.05,1.91.06,2.84-.09.65-.1,1.32-.41,1.86-.8,4.57-3.33,8.68-7.14,12.27-11.53,2.78-3.39,5.53-6.79,7.86-10.5.74-1.17,1.38-2.41,2.08-3.6,1.36-2.32,2.75-4.61,4.09-6.94.45-.78.75-1.65,1.13-2.48.74-1.61,1.51-3.21,2.24-4.83,1.27-2.8,2.5-5.61,3.78-8.4.19-.41.51-.81.87-1.08.7-.51,1.43-.38,1.9.36.39.61.7,1.3.9,1.99.25.87.31,1.8.55,2.67.47,1.66.98,3.32,1.53,4.95.58,1.72,1.2,3.43,1.86,5.13,1.6,4.08,3.51,8.01,6.12,11.56,1.8,2.44,3.43,5,5.31,7.38,1.66,2.1,3.54,4.03,5.35,6.02.4.44.92.79,1.38,1.18,1.33,1.11,2.65,2.23,4,3.31,1.42,1.14,2.95,2.05,4.63,2.81,2.59,1.18,5.32,1.46,8.06,1.86.63.09,1.3.05,1.94,0,1.25-.07,2.42.2,3.47.86.75.46.69.81.04,1.41-1.85,1.7-4.02,2.24-6.48,1.99-2.37-.24-4.75-.39-7.12-.6-.3-.03-.61-.06-.88-.18-2.9-1.27-5.83-2.48-8.1-4.81-.6-.62-1.33-1.11-2.02-1.64-1.1-.84-2.09-1.79-3.01-2.85-1.62-1.86-3.39-3.58-5.1-5.36-.48-.5-.96-.99-1.44-1.5-.92-.98-1.83-1.96-2.74-2.95-.41-.45-.82-.89-1.19-1.37-1.29-1.68-2.58-3.37-3.85-5.07-1.88-2.51-3.31-5.28-4.73-8.06-.63-1.23-1.31-2.44-1.89-3.7-.48-1.06-.85-2.17-1.26-3.26-.11-.31-.16-.64-.29-1.15Z"/>
      <path d="M77.95,131.48c1.46,0,2.75,0,4.04,0,.81,0,1.27.43,1.46,1.21.31,1.35.64,2.69.96,4.04.04.16.09.31.21.72.31-.55.55-.89.71-1.26.49-1.15.97-2.31,1.43-3.49.28-.72.71-1.13,1.52-1.17,1.11-.05,2.22-.19,3.48-.31.04,2.54.08,4.98.13,7.43.02,1.08.09,2.16.11,3.24.01.55-.03,1.09-.04,1.69-1.04.09-1.94.21-2.84.25-.84.04-.99-.1-1.04-.94-.06-.95-.05-1.9-.08-2.86,0-.33-.03-.67-.29-1.08-.28.64-.57,1.27-.84,1.91-.19.44-.36.88-.53,1.33-.24.62-.22,1.4-1.2,1.44-1.29.06-1.9-.22-2.43-1.26-.19-.39-.38-.78-.55-1.18-.14-.35-.24-.72-.45-1.37-.15,1.43-.26,2.56-.4,3.69-.1.85-.2.96-1.07.93-.81-.03-1.61-.16-2.55-.26.16-4.28-.22-8.42.28-12.71ZM88.85,143.14c.9-.09,1.66-.16,2.52-.24-.58-3.67.39-7.28-.64-10.81-.48.03-.92.12-1.34.07-1.38-.16-1.97.54-2.41,1.77-.55,1.54-1.36,2.99-2.07,4.47-.1.21-.31.36-.6.69-.16-.47-.29-.77-.36-1.09-.37-1.6-.72-3.21-1.09-4.81-.12-.52-.29-1.02-.98-1.01-1.03,0-2.06,0-3.05,0-.48,1.15-.6,9.9-.18,11.39.29.04.59.09.89.11.29.02.59,0,.92,0,.74-2.56.13-5.16.59-7.71.29.24.44.51.54.79.52,1.6.94,3.24,1.54,4.81.52,1.37.61,1.34,2.24,1.19.92-2.38,1.86-4.8,2.8-7.22.09,0,.19,0,.28-.01.46,2.45.04,4.98.41,7.6Z"/>
      <path d="M124.02,67.92c-.05.23-.02.52-.16.67-1.61,1.75-3.02,3.66-4.86,5.21-3.89,3.28-8.95,2.29-11.54-.75-.61-.72-1.35-1.34-2.01-2.02-2.65-2.76-4.66-2.48-7.41-.11-.62.54-1.17,1.16-1.78,1.7-.32.28-.69.55-1.07.72-.97.43-1.86-.21-1.79-1.27.05-.73.16-1.46.23-2.2.12-1.2.07-1.26-1.07-1.42-.26-.04-.51-.1-.77-.12-.59-.06-.96-.37-1.1-.94-.13-.55,0-1.02.44-1.4,2.59-2.28,5.48-3.92,8.95-4.4,3.24-.45,6.1.4,8.51,2.61,1.63,1.49,3.21,3.03,4.74,4.62.89.93,1.92,1.32,3.14,1.2,1.42-.14,2.83-.37,4.24-.58,1.01-.15,1.94-.46,2.57-1.35.11-.15.34-.22.51-.32.08.05.16.11.24.16ZM121.53,70.05c-1.8.24-3.34.49-4.88.65-1.23.13-2.43-.03-3.38-.94-1.49-1.44-3.03-2.85-4.46-4.35-2.5-2.63-5.51-3.59-9.06-3.06-2.23.34-4.18,1.35-6.01,2.56-.91.6-1.79,1.33-2.38,2.55.46.1.81.21,1.16.25,1.72.21,1.96.51,1.81,2.27-.05.6-.16,1.2-.19,1.81-.01.27.06.74.2.79.28.08.69.03.93-.14.53-.36.98-.84,1.48-1.25.9-.73,1.76-1.53,2.74-2.15,1.72-1.1,3.46-.88,5.09.28.46.32.86.72,1.26,1.12.93.91,1.8,1.88,2.76,2.75,2.1,1.89,4.58,2.48,7.23,1.6,2.36-.78,4.07-2.51,5.69-4.72Z"/>
      <path d="M130.93,132.35c-1.56,2.28-3.78,3.71-5.95,5.42,1.81,1.77,3.58,3.5,5.46,5.34-1.3.66-2.68,1.09-3.88.54-1.08-.5-1.89-1.6-2.8-2.44-.23-.22-.41-.49-.86-.67.07.84.12,1.68.21,2.52.1.98,0,1.15-.99,1.24-.69.06-1.38.07-2.07.03-.75-.04-.9-.23-.86-.97.06-.95.2-1.9.2-2.85,0-2.72-.05-5.44-.07-8.17,0-.16.04-.33.07-.54,1.17-.15,2.3-.29,3.56-.45v3.5c.46-.43.77-.69,1.04-.98.75-.78,1.49-1.56,2.23-2.36.47-.51.93-.61,1.61-.3.92.43,1.91.7,3.1,1.12ZM120.07,132.54v10.98h2.27c.09-1.81-.59-3.55.15-5.27.22.1.34.12.37.17.82,1.65,1.86,3.09,3.44,4.14.93.62,1.51.75,2.62.16-1.22-1.21-2.44-2.42-3.67-3.62-1.37-1.34-1.35-1.54.3-2.67,1.5-1.03,2.8-2.28,4.21-3.58-1-.41-1.84-.74-2.71-1.1-1.73,1.43-2.98,3.33-4.86,4.96v-4.59c-.69.13-1.35.26-2.11.41Z"/>
      <path d="M135.15,139.54c.08.68.15,1.19.23,1.86.92-.09,1.8-.17,2.68-.26.3-.03.59-.15.89-.17.51-.04.86.17.87.72.02.77,0,1.53,0,2.38-.69,0-1.29-.03-1.88,0-1.17.07-2.33.17-3.5.27-.83.07-1.64.06-2.15-.43,0-2.16-.06-4.14.02-6.12.08-1.99.07-3.97-.4-5.96,1.32,0,2.56.07,3.78-.02,1.26-.1,2.5-.19,3.75.23.35.89,0,1.72-.3,2.5-.09.25-.61.46-.95.49-.82.07-1.64.02-2.55.02-.06.28-.12.55-.21.98,1.27-.07,2.45-.13,3.74-.19v3.75c-1.32.34-2.59-.07-4.03-.05ZM132.87,132.47c0,.37-.02.59,0,.8.24,1.81.22,3.61.04,5.44-.15,1.57.02,3.17.04,4.95,2.11-.13,4.08-.25,6.04-.38v-1.57c-1.49.21-2.88.47-4.35.4-.07-1.16-.13-2.21-.2-3.35,1.44.08,2.71.15,4.02.23v-2.26c-1.3-.42-2.54.44-3.77-.04.05-.83.09-1.58.13-2.43h3.71c.12-.58.22-1.07.33-1.59-2.04-.68-3.99.4-6-.2Z"/>
      <path d="M118.03,143.99c-.39.17-.61.33-.83.35-.43.04-.87.03-1.3,0-.63-.05-1.36.04-1.86-.25-.91-.52-1.53-1.38-1.79-2.45-.1-.42-.19-.84-.31-1.26-.1-.36-.3-.63-.9-.48.03.39.08.79.1,1.2.02.73.05,1.47.02,2.2-.02.62-.39.91-1.01.93-.82.03-1.63.09-2.6.15-.33-4.28.41-8.54-.2-12.94.91-.13,1.67-.37,2.42-.32,1.38.09,2.77.23,4.1.58,1.41.36,2.42,1.28,2.7,2.84.27,1.51-.13,2.73-1.41,3.63-.28.19-.53.42-.73.59,1.2,1.74,2.37,3.44,3.6,5.23ZM108.2,132.05v11.56c.83-.05,1.5-.09,2.28-.13,0-.65.02-1.16,0-1.67-.04-.65-.16-1.29-.17-1.94,0-.25.13-.63.32-.73.64-.34,1.73.2,1.95.92.19.62.29,1.27.54,1.87.57,1.35,1.65,2.21,3.61,1.42-.7-1.02-1.31-2.06-2.07-2.99-1.3-1.6-1.34-1.57.21-2.84.67-.55,1.09-1.19,1.06-2.11-.06-1.67-.88-2.75-2.58-3.11-1.1-.23-2.22-.37-3.34-.45-.58-.04-1.18.14-1.8.22Z"/>
      <path d="M106.18,144.05c-1.29.24-2.45.46-3.64.68-.62-.69-.78-1.51-.88-2.3-.1-.8-.56-1.04-1.22-1.03-.95,0-1.89.09-2.99.15-.3.93-.59,1.85-.91,2.84-1.14.06-2.29.24-3.47-.19.07-1.02.47-1.83.82-2.65,1.15-2.75,2.31-5.49,3.44-8.26.18-.44.18-.96.3-1.67.96-.39,2.17-.15,3.34-.13.16,0,.38.34.47.56.31.8.64,1.61.85,2.45.69,2.68,1.51,5.32,2.83,7.77.3.55.64,1.09,1.06,1.79ZM97.03,140.73c1.34,0,2.5-.04,3.66.01,1.13.05,1.4.33,1.65,1.43.13.57.3,1.13.47,1.76.76-.14,1.38-.25,2.18-.4-2.19-3.57-2.88-7.58-4.23-11.28h-2.35c-1.25,3.91-3.27,7.45-4.56,11.53.86-.04,1.52-.07,2.1-.09.38-1.05.7-1.94,1.06-2.95Z"/>
      <path d="M140.93,134.98v-3.54c.27-.02.63-.09,1-.08,1.08.03,2.16.12,3.24.14,1.5.03,3,0,4.6,0v3.47c-.77-.03-1.52-.07-2.42-.11v8.31c-1.05.36-2,.25-2.92.16-.61-.06-.55-.69-.56-1.16-.01-2.41,0-4.83,0-7.41-.99.07-1.9.13-2.94.21ZM144.61,134.02v8.58h1.91c0-.45,0-.83,0-1.21.03-2.03.05-4.07.09-6.1.02-1.21.11-1.27,1.27-1.15.33.04.67.05,1.09.08.05-.7.09-1.31.13-1.86-2.58-.09-5.02-.18-7.59-.27.05.71.1,1.37.15,2.05.99-.05,1.85-.09,2.93-.14Z"/>
      <g>
        <path d="M163.57,116.75c1.04-.38,1.56-1.15,1.95-2.02.44-.99.85-1.99,1.28-2.98.33-.77.88-1.32,1.75-1.34.34,0,.79.15.99.4.14.17-.01.65-.14.94-.33.78-.71,1.54-.96,2.38,1.06-.44,1.92-1.08,2.68-1.88.42-.44.85-1.01,1.85-.73-.3.47-.48.89-.78,1.19-1.11,1.09-2.28,2.12-3.38,3.22-.31.31-.56.77-.67,1.21-.64,2.51-1.25,5.03-1.83,7.55-.28,1.22-1.03,2.08-2,2.78-.56.4-1.17.47-1.82.07-.86-.53-1.34-1.26-1.23-2.25.08-.72.3-1.44.55-2.13.74-2.07,1.92-3.88,3.5-5.41.66-.64,1-1.38.93-2.54-.38.64-.6,1.15-.94,1.56-.52.63-1.09,1.22-1.68,1.77-.37.34-.86.31-1.15-.1-.5-.68-.92-1.42-1.45-2.27-.27.16-.67.38-1.06.63-.5.33-1.02.43-1.61.27-.56-.16-.93-.44-.89-1.08.06-1.01.1-2.03.16-3.16-.51.77-1.04,1.45-1.45,2.2-.45.82-.96,1.35-1.91.86-1.59,2.49-2.4,2.9-4.2,1.28-.83.99-1.67,1.98-2.5,2.96-.14.17-.29.32-.44.48-.55.57-1.15,1.19-2.02.81-.9-.4-.97-1.34-.87-2.13.16-1.28.52-2.54.8-3.81.04-.17.09-.33.15-.53-.83-.38-1.5-.19-2.15.38-1.11.97-2.3,1.85-3.34,2.88-.83.81-1.48,1.8-2.22,2.7-.76.92-1.35,1.06-2.25.57-.43-.23-.64-.56-.59-1.05.05-.45.15-.83.66-1.01,1.23-.42,2.03-1.32,2.5-2.48.52-1.28.94-2.61,1.37-3.92.07-.22.01-.49.01-.77-1.12.47-2.57,2.82-5.36,8.13-1.57,2.99-1.68,6.3-2.2,9.52-1.56-.33-1.72-.45-1.71-1.75,0-.99.09-1.99.24-2.97.32-2.14.65-4.28,1.08-6.39.28-1.39.72-2.75,1.11-4.12.22-.75.35-1.47.25-2.29-.06-.46.25-1.12.62-1.43.22-.19.9,0,1.3.2.55.27.56.84.43,1.37-.3,1.17-.62,2.34-.95,3.51-.13.45-.28.89-.26,1.43.64-.97,1.3-1.92,1.93-2.9.71-1.09,1.4-2.19,2.1-3.29.07-.11.13-.23.2-.33.62-.94,1.42-1.37,2.13-1.13.54.18,1.07,1.17,1.01,2.1-.09,1.19-.27,2.38-.42,3.68.9-.16,1.41-.98,2.14-1.37.22-2.76.67-3.31,2.32-2.79-.19.51-.37,1.02-.57,1.55.99.86,2.43-.07,3.32.98-.33.84-.72,1.65-.97,2.51-.25.85-.36,1.75-.32,2.72.19-.2.4-.4.57-.62.45-.58.83-1.24,1.35-1.74.99-.97,1.53-2.07,1.44-3.47-.07-1.16.49-1.85,2.07-1.96.96-.06,1.15.31.79,1.18-.29.71-.55,1.44-.72,2.19-.07.32.11.69.2,1.19,1.16-.69,1.47-1.67,1.71-2.67.18-.76.25-1.54.42-2.3.1-.46.27-.91.49-1.33.53-1,.64-1.02,1.96-.52-.35,1.16-.7,2.32-1.06,3.49l.26.13c.65-.82,1.27-1.67,1.96-2.46.42-.48.89-.96,1.42-1.31.67-.44,1.17-.16,1.28.63.07.5.08.97-.31,1.45-.96,1.18-1.18,2.63-1.26,4.31,1.14-.91,2.15-1.6,2.92-2.72,1.04-1.52,1.95-3.19,3.53-4.29.59-.41,1.19-.67,1.93-.61.63.04.93.41,1.1.94.17.53-.03.85-.58.91-2.11.21-3,1.77-3.79,3.42-.26.54-.41,1.14-.6,1.71-.19.61-.39,1.22-.11,1.95ZM162.86,126.26c1.88-.78,3.23-4.07,2.78-6.66-1.14.9-2.92,3.65-3.14,4.91-.1.59-.23,1.21.36,1.76Z"/>
        <path d="M94.51,120.77c-.5.7-.98,1.41-1.49,2.1-.36.49-.7,1-1.13,1.42-.84.81-1.51.66-2.01-.41-.13-.27-.22-.57-.24-.87-.08-1.9.22-3.74,1.28-5.35.39-.59.98-1.12,1.59-1.45.73-.39,1.53,0,2.56.97.11-.08.26-.15.35-.26.41-.48.86-.73,1.47-.36.61.38.88.96.61,1.66-.56,1.44-.76,2.9-.51,4.6.25-.24.43-.39.58-.56,2.23-2.47,3.06-5.58,3.93-8.66.46-1.62.74-3.29,1.15-4.93.39-1.59,1.24-2.95,2.22-4.22.45-.59,1.1-.87,1.84-.7.77.18,1.2.79,1.28,1.49.09.8.04,1.65-.16,2.42-.29,1.16-.76,2.28-1.19,3.51.93-.14,1.77-.27,2.64-.4.11-.42.22-.79.31-1.17.36-1.58,1.27-2.84,2.36-3.97.79-.83,1.88-.62,2.99-.76-.27,2.07-1.9,3.38-2.2,5.31.61,0,1.17-.04,1.72.01.32.03.69.13.93.33.39.33.21.83-.28.98-.97.3-1.96.56-2.91.92-.26.1-.48.47-.61.77-1.15,2.77-2.11,5.59-2.22,8.63-.03.73-.17,1.45-.28,2.42.32-.32.54-.47.68-.67,1.35-1.91,2.67-3.84,4.03-5.74.31-.43.56-1.01,1.39-.96.04.27.18.56.11.8-.14.5-.32,1-.59,1.43-1.16,1.88-2.34,3.75-3.55,5.59-.33.5-.74.98-1.21,1.35-1.07.84-2.24.35-2.45-.97-.09-.54-.18-1.08-.27-1.62-1.18,1.25-2.31,2.47-3.47,3.67-.26.27-.61.51-.96.65-1.13.47-1.96.15-2.42-.98-.27-.68-.43-1.4-.6-2.12-.14-.59-.22-1.19-.36-2.01-.5.47-.9.83-1.28,1.2-.37.37-.67.8-1.07,1.13-.7.58-1.7.47-2.13-.31-.32-.57-.48-1.28-.52-1.95-.04-.63.18-1.28.28-1.91-.06-.02-.12-.04-.19-.06ZM108.88,112.66c-.08-.09-.16-.18-.23-.26-.75.13-1.5.29-2.26.37-.5.05-.78.29-.98.71-.96,1.93-2,3.83-2.87,5.81-.7,1.61-.56,3.39-.63,5.11-.01.27.27.77.47.8.37.05.79-.14,1.17-.28.13-.05.21-.26.3-.41.51-.85,1.01-1.71,1.54-2.55,1.79-2.87,2.06-6.29,3.5-9.29ZM106.42,105.33c-1.6,1.33-3.21,6.26-2.81,8.22,1.17-2.64,2.95-4.95,2.81-8.22ZM91.69,122.2c.08.04.16.08.24.12.74-1.17,1.47-2.34,2.28-3.62-.2-.42-.45-.93-.79-1.64-1.12,1.74-1.51,3.41-1.74,5.14Z"/>
        <path d="M123.27,116.99c-.17,1.13-.33,2.14-.48,3.15-.01.09-.04.17-.04.26-.03.69-.2,1.47.5,1.9.69.42,1.33-.09,1.94-.38.38-.18.72-.48,1.06-.74.82-.64,1.27-1.48.96-2.5-.33-1.11-.69-2.25-1.27-3.24-.98-1.66-1.78-3.36-2.17-5.25-.18-.87-.02-1.65.22-2.52.56-2.04,2.02-3.12,3.7-4.04,1.52-.83,3.04-.49,4.48.19.85.41,1.21,1.34.92,2.2-.64,1.93-1.94,3.34-3.66,4.38-.08.05-.24-.02-.53-.05.81-1.09.6-2.53,1.66-3.44.27-.23.43-.65.55-1.02.23-.73-.32-1.25-1.08-1.07-2.49.58-4.08,3.78-3.41,5.92.54,1.72,1,3.49,2.44,4.77,1.29,1.15,1.04,2.64.66,3.99-.81,2.86-3.05,4.18-5.78,4.75-2.23.47-3.85-1.15-3.5-3.37.19-1.22.67-2.33,1.38-3.33.4-.56.42-.54,1.44-.56Z"/>
        <path d="M81.17,120.92c.27.86.11,1.66-.14,2.45-.12.37-.27.73-.36,1.11-.23.97.42,1.75,1.41,1.65.38-.04.76-.18,1.1-.36,1.76-.93,2.6-3.43,1.74-5.25-.45-.94-.98-1.83-1.46-2.75-1.06-2.02-1.25-4.21-1.13-6.44.02-.4.24-.88.53-1.14.92-.85,1.85-1.7,2.89-2.39,1.38-.91,2.91-.75,4.36-.14,1.22.51,1.68,1.5,1.03,2.64-.79,1.37-1.85,2.59-2.8,3.87-.05.07-.23.05-.38.08-.39-.49-.08-.9.11-1.32.34-.75.7-1.49,1.04-2.23.09-.2.24-.41.22-.6-.04-.46-.03-1.08-.31-1.3-.26-.21-.92-.11-1.3.07-2.26,1.02-3.44,3.69-2.65,6.06.49,1.47,1.05,2.88,2.07,4.12,1.01,1.23,1.31,2.71.9,4.39-.44,1.81-1.47,2.98-3.05,3.8-.73.38-1.48.72-2.21,1.09-1.85.92-4.97-.76-4.37-3.54.31-1.41.96-2.69,2.05-3.69.09-.08.21-.15.33-.19.07-.03.17,0,.39.02Z"/>
        <path d="M151.58,110.85c-.51-1-.14-1.84.07-2.69.08-.32.25-.68.18-.97-.12-.47-.02-.73.38-.96.39-.23.73-.2,1.06.1.36.33.71.67.52,1.22-.08.24-.22.47-.37.68-.61.88-1.22,1.75-1.84,2.63Z"/>
        <path class="cls-2" d="M108.88,112.66c-1.44,3-1.71,6.42-3.5,9.29-.53.84-1.02,1.7-1.54,2.55-.09.15-.17.36-.3.41-.38.15-.8.34-1.17.28-.2-.03-.48-.52-.47-.8.08-1.72-.07-3.5.63-5.11.87-1.98,1.91-3.87,2.87-5.81.21-.42.48-.66.98-.71.76-.08,1.51-.24,2.26-.37.08.09.16.18.23.26Z"/>
        <path class="cls-3" d="M163.02,115.67c1.04-.38,1.56-1.15,1.95-2.02.44-.99.85-1.99,1.28-2.98.33-.77.88-1.32,1.75-1.34.34,0,.79.15.99.4.14.17-.01.65-.14.94-.33.78-.71,1.54-.96,2.38,1.06-.44,1.92-1.08,2.68-1.88.42-.44.85-1.01,1.85-.73-.3.47-.48.89-.78,1.19-1.11,1.09-2.28,2.12-3.38,3.22-.31.31-.56.77-.67,1.21-.64,2.51-1.25,5.03-1.83,7.55-.28,1.22-1.03,2.08-2,2.78-.56.4-1.17.47-1.82.07-.86-.53-1.34-1.26-1.23-2.25.08-.72.3-1.44.55-2.13.74-2.07,1.92-3.88,3.5-5.41.66-.64,1-1.38.93-2.54-.38.64-.6,1.15-.94,1.56-.52.63-1.09,1.22-1.68,1.77-.37.34-.86.31-1.15-.1-.5-.68-.92-1.42-1.45-2.27-.27.16-.67.38-1.06.63-.5.33-1.02.43-1.61.27-.56-.16-.93-.44-.89-1.08.06-1.01.1-2.03.16-3.16-.51.77-1.04,1.45-1.45,2.2-.45.82-.96,1.35-1.91.86-1.59,2.49-2.4,2.9-4.2,1.28-.83.99-1.67,1.98-2.5,2.96-.14.17-.29.32-.44.48-.55.57-1.15,1.19-2.02.81-.9-.4-.97-1.34-.87-2.13.16-1.28.52-2.54.8-3.81.04-.17.09-.33.15-.53-.83-.38-1.5-.19-2.15.38-1.11.97-2.3,1.85-3.34,2.88-.83.81-1.48,1.8-2.22,2.7-.76.92-1.35,1.06-2.25.57-.43-.23-.64-.56-.59-1.05.05-.45.15-.83.66-1.01,1.23-.42,2.03-1.32,2.5-2.48.52-1.28.94-2.61,1.37-3.92.07-.22.01-.49.01-.77-1.12.47-2.57,2.82-5.36,8.13-1.57,2.99-1.68,6.3-2.2,9.52-1.56-.33-1.72-.45-1.71-1.75,0-.99.09-1.99.24-2.97.32-2.14.65-4.28,1.08-6.39.28-1.39.72-2.75,1.11-4.12.22-.75.35-1.47.25-2.29-.06-.46.25-1.12.62-1.43.22-.19.9,0,1.3.2.55.27.56.84.43,1.37-.3,1.17-.62,2.34-.95,3.51-.13.45-.28.89-.26,1.43.64-.97,1.3-1.92,1.93-2.9.71-1.09,1.4-2.19,2.1-3.29.07-.11.13-.23.2-.33.62-.94,1.42-1.37,2.13-1.13.54.18,1.07,1.17,1.01,2.1-.09,1.19-.27,2.38-.42,3.68.9-.16,1.41-.98,2.14-1.37.22-2.76.67-3.31,2.32-2.79-.19.51-.37,1.02-.57,1.55.99.86,2.43-.07,3.32.98-.33.84-.72,1.65-.97,2.51-.25.85-.36,1.75-.32,2.72.19-.2.4-.4.57-.62.45-.58.83-1.24,1.35-1.74.99-.97,1.53-2.07,1.44-3.47-.07-1.16.49-1.85,2.07-1.96.96-.06,1.15.31.79,1.18-.29.71-.55,1.44-.72,2.19-.07.32.11.69.2,1.19,1.16-.69,1.47-1.67,1.71-2.67.18-.76.25-1.54.42-2.3.1-.46.27-.91.49-1.33.53-1,.64-1.02,1.96-.52-.35,1.16-.7,2.32-1.06,3.49l.26.13c.65-.82,1.27-1.67,1.96-2.46.42-.48.89-.96,1.42-1.31.67-.44,1.17-.16,1.28.63.07.5.08.97-.31,1.45-.96,1.18-1.18,2.63-1.26,4.31,1.14-.91,2.15-1.6,2.92-2.72,1.04-1.52,1.95-3.19,3.53-4.29.59-.41,1.19-.67,1.93-.61.63.04.93.41,1.1.94.17.53-.03.85-.58.91-2.11.21-3,1.77-3.79,3.42-.26.54-.41,1.14-.6,1.71-.19.61-.39,1.22-.11,1.95ZM162.32,125.17c1.88-.78,3.23-4.07,2.78-6.66-1.14.9-2.92,3.65-3.14,4.91-.1.59-.23,1.21.36,1.76Z"/>
        <path class="cls-3" d="M93.97,119.68c-.5.7-.98,1.41-1.49,2.1-.36.49-.7,1-1.13,1.42-.84.81-1.51.66-2.01-.41-.13-.27-.22-.57-.24-.87-.08-1.9.22-3.74,1.28-5.35.39-.59.98-1.12,1.59-1.45.73-.39,1.53,0,2.56.97.11-.08.26-.15.35-.26.41-.48.86-.73,1.47-.36.61.38.88.96.61,1.66-.56,1.44-.76,2.9-.51,4.6.25-.24.43-.39.58-.56,2.23-2.47,3.06-5.58,3.93-8.66.46-1.62.74-3.29,1.15-4.93.39-1.59,1.24-2.95,2.22-4.22.45-.59,1.1-.87,1.84-.7.77.18,1.2.79,1.28,1.49.09.8.04,1.65-.16,2.42-.29,1.16-.76,2.28-1.19,3.51.93-.14,1.77-.27,2.64-.4.11-.42.22-.79.31-1.17.36-1.58,1.27-2.84,2.36-3.97.79-.83,1.88-.62,2.99-.76-.27,2.07-1.9,3.38-2.2,5.31.61,0,1.17-.04,1.72.01.32.03.69.13.93.33.39.33.21.83-.28.98-.97.3-1.96.56-2.91.92-.26.1-.48.47-.61.77-1.15,2.77-2.11,5.59-2.22,8.63-.03.73-.17,1.45-.28,2.42.32-.32.54-.47.68-.67,1.35-1.91,2.67-3.84,4.03-5.74.31-.43.56-1.01,1.39-.96.04.27.18.56.11.8-.14.5-.32,1-.59,1.43-1.16,1.88-2.34,3.75-3.55,5.59-.33.5-.74.98-1.21,1.35-1.07.84-2.24.35-2.45-.97-.09-.54-.18-1.08-.27-1.62-1.18,1.25-2.31,2.47-3.47,3.67-.26.27-.61.51-.96.65-1.13.47-1.96.15-2.42-.98-.27-.68-.43-1.4-.6-2.12-.14-.59-.22-1.19-.36-2.01-.5.47-.9.83-1.28,1.2-.37.37-.67.8-1.07,1.13-.7.58-1.7.47-2.13-.31-.32-.57-.48-1.28-.52-1.95-.04-.63.18-1.28.28-1.91-.06-.02-.12-.04-.19-.06ZM108.34,111.58c-.08-.09-.16-.18-.23-.26-.75.13-1.5.29-2.26.37-.5.05-.78.29-.98.71-.96,1.93-2,3.83-2.87,5.81-.7,1.61-.56,3.39-.63,5.11-.01.27.27.77.47.8.37.05.79-.14,1.17-.28.13-.05.21-.26.3-.41.51-.85,1.01-1.71,1.54-2.55,1.79-2.87,2.06-6.29,3.5-9.29ZM105.88,104.25c-1.6,1.33-3.21,6.26-2.81,8.22,1.17-2.64,2.95-4.95,2.81-8.22ZM91.15,121.11c.08.04.16.08.24.12.74-1.17,1.47-2.34,2.28-3.62-.2-.42-.45-.93-.79-1.64-1.12,1.74-1.51,3.41-1.74,5.14Z"/>
        <path class="cls-3" d="M122.73,115.9c-.17,1.13-.33,2.14-.48,3.15-.01.09-.04.17-.04.26-.03.69-.2,1.47.5,1.9.69.42,1.33-.09,1.94-.38.38-.18.72-.48,1.06-.74.82-.64,1.27-1.48.96-2.5-.33-1.11-.69-2.25-1.27-3.24-.98-1.66-1.78-3.36-2.17-5.25-.18-.87-.02-1.65.22-2.52.56-2.04,2.02-3.12,3.7-4.04,1.52-.83,3.04-.49,4.48.19.85.41,1.21,1.34.92,2.2-.64,1.93-1.94,3.34-3.66,4.38-.08.05-.24-.02-.53-.05.81-1.09.6-2.53,1.66-3.44.27-.23.43-.65.55-1.02.23-.73-.32-1.25-1.08-1.07-2.49.58-4.08,3.78-3.41,5.92.54,1.72,1,3.49,2.44,4.77,1.29,1.15,1.04,2.64.66,3.99-.81,2.86-3.05,4.18-5.78,4.75-2.23.47-3.85-1.15-3.5-3.37.19-1.22.67-2.33,1.38-3.33.4-.56.42-.54,1.44-.56Z"/>
        <path class="cls-3" d="M80.63,119.84c.27.86.11,1.66-.14,2.45-.12.37-.27.73-.36,1.11-.23.97.42,1.75,1.41,1.65.38-.04.76-.18,1.1-.36,1.76-.93,2.6-3.43,1.74-5.25-.45-.94-.98-1.83-1.46-2.75-1.06-2.02-1.25-4.21-1.13-6.44.02-.4.24-.88.53-1.14.92-.85,1.85-1.7,2.89-2.39,1.38-.91,2.91-.75,4.36-.14,1.22.51,1.68,1.5,1.03,2.64-.79,1.37-1.85,2.59-2.8,3.87-.05.07-.23.05-.38.08-.39-.49-.08-.9.11-1.32.34-.75.7-1.49,1.04-2.23.09-.2.24-.41.22-.6-.04-.46-.03-1.08-.31-1.3-.26-.21-.92-.11-1.3.07-2.26,1.02-3.44,3.69-2.65,6.06.49,1.47,1.05,2.88,2.07,4.12,1.01,1.23,1.31,2.71.9,4.39-.44,1.81-1.47,2.98-3.05,3.8-.73.38-1.48.72-2.21,1.09-1.85.92-4.97-.76-4.37-3.54.31-1.41.96-2.69,2.05-3.69.09-.08.21-.15.33-.19.07-.03.17,0,.39.02Z"/>
        <path class="cls-3" d="M151.03,109.77c-.51-1-.14-1.84.07-2.69.08-.32.25-.68.18-.97-.12-.47-.02-.73.38-.96.39-.23.73-.2,1.06.1.36.33.71.67.52,1.22-.08.24-.22.47-.37.68-.61.88-1.22,1.75-1.84,2.63Z"/>
      </g>
      <path class="cls-2" d="M88.85,143.14c-.37-2.62.05-5.15-.41-7.6-.09,0-.19,0-.28.01-.94,2.42-1.88,4.84-2.8,7.22-1.63.15-1.71.18-2.24-1.19-.6-1.57-1.03-3.21-1.54-4.81-.09-.29-.25-.55-.54-.79-.46,2.56.15,5.16-.59,7.71-.33,0-.63.01-.92,0-.3-.02-.6-.07-.89-.11-.42-1.49-.3-10.25.18-11.39.99,0,2.02,0,3.05,0,.69,0,.86.49.98,1.01.37,1.6.72,3.21,1.09,4.81.07.31.2.61.36,1.09.29-.33.5-.48.6-.69.72-1.48,1.52-2.93,2.07-4.47.44-1.23,1.04-1.93,2.41-1.77.42.05.86-.04,1.34-.07,1.03,3.53.06,7.14.64,10.81-.86.08-1.62.15-2.52.24Z"/>
      <path class="cls-6" d="M121.53,70.05c-1.61,2.21-3.33,3.94-5.69,4.72-2.65.88-5.13.29-7.23-1.6-.96-.87-1.83-1.84-2.76-2.75-.4-.39-.81-.79-1.26-1.12-1.63-1.16-3.37-1.37-5.09-.28-.97.62-1.84,1.42-2.74,2.15-.5.41-.95.89-1.48,1.25-.24.17-.65.22-.93.14-.14-.04-.21-.51-.2-.79.03-.6.14-1.2.19-1.81.15-1.76-.1-2.06-1.81-2.27-.36-.04-.7-.15-1.16-.25.59-1.22,1.47-1.95,2.38-2.55,1.84-1.21,3.79-2.23,6.01-2.56,3.55-.54,6.56.43,9.06,3.06,1.43,1.5,2.96,2.91,4.46,4.35.95.92,2.15,1.07,3.38.94,1.54-.16,3.08-.4,4.88-.65Z"/>
      <path class="cls-2" d="M120.07,132.54c.77-.15,1.43-.28,2.11-.41v4.59c1.89-1.63,3.14-3.52,4.86-4.96.87.35,1.71.69,2.71,1.1-1.4,1.3-2.71,2.55-4.21,3.58-1.65,1.13-1.67,1.33-.3,2.67,1.23,1.2,2.45,2.41,3.67,3.62-1.11.59-1.7.46-2.62-.16-1.57-1.05-2.62-2.49-3.44-4.14-.03-.06-.15-.07-.37-.17-.74,1.72-.06,3.47-.15,5.27h-2.27v-10.98Z"/>
      <path class="cls-2" d="M132.87,132.47c2.01.6,3.96-.49,6,.2-.11.52-.21,1.01-.33,1.59h-3.71c-.05.86-.09,1.61-.13,2.43,1.23.48,2.47-.38,3.77.04v2.26c-1.31-.07-2.58-.14-4.02-.23.07,1.14.13,2.19.2,3.35,1.47.07,2.86-.19,4.35-.4v1.57c-1.96.12-3.93.24-6.04.38-.03-1.78-.19-3.38-.04-4.95.17-1.83.19-3.63-.04-5.44-.03-.21,0-.42,0-.8Z"/>
      <path class="cls-2" d="M108.2,132.05c.62-.08,1.22-.26,1.8-.22,1.12.08,2.24.22,3.34.45,1.71.36,2.53,1.43,2.58,3.11.03.92-.38,1.56-1.06,2.11-1.55,1.27-1.51,1.25-.21,2.84.76.93,1.37,1.98,2.07,2.99-1.96.79-3.05-.07-3.61-1.42-.25-.59-.35-1.25-.54-1.87-.23-.72-1.32-1.26-1.95-.92-.19.1-.32.48-.32.73,0,.65.13,1.29.17,1.94.03.51,0,1.03,0,1.67-.78.04-1.45.08-2.28.13v-11.56ZM110.06,137.55c.72-.08,1.32-.14,1.92-.21.82-.1,1.45-.52,1.93-1.19.31-.44.38-.93.04-1.32-.48-.55-.99-1.11-1.6-1.49-.86-.53-1.48-.36-2.28.37v3.85Z"/>
      <path class="cls-2" d="M97.03,140.73c-.37,1.01-.68,1.9-1.06,2.95-.58.03-1.24.06-2.1.09,1.29-4.08,3.31-7.62,4.56-11.53h2.35c1.34,3.71,2.04,7.71,4.23,11.28-.8.15-1.42.26-2.18.4-.17-.63-.34-1.19-.47-1.76-.26-1.11-.52-1.39-1.65-1.43-1.16-.05-2.33-.01-3.66-.01ZM97.69,139.14c1.18.16,2.26.3,3.66.49-.56-1.85-1.12-3.45-2.28-4.85-.26.71-.3,1.42-.49,2.09-.21.73-.55,1.43-.89,2.26Z"/>
      <path class="cls-2" d="M144.61,134.02c-1.08.05-1.94.09-2.93.14-.05-.68-.1-1.34-.15-2.05,2.56.09,5,.18,7.59.27-.04.54-.08,1.16-.13,1.86-.42-.03-.76-.05-1.09-.08-1.16-.13-1.25-.06-1.27,1.15-.04,2.03-.07,4.07-.09,6.1,0,.38,0,.76,0,1.21h-1.91v-8.58Z"/>
      <path d="M110.06,137.55v-3.85c.79-.73,1.41-.9,2.28-.37.61.38,1.12.94,1.6,1.49.35.4.27.89-.04,1.32-.47.67-1.1,1.09-1.93,1.19-.6.08-1.19.13-1.92.21ZM110.79,136.58c1.15.18,2.09.02,2.62-1.1-.81-1.46-1.41-1.8-2.62-1.48v2.58Z"/>
      <path d="M97.69,139.14c.33-.83.68-1.53.89-2.26.19-.67.23-1.39.49-2.09,1.17,1.4,1.73,3,2.28,4.85-1.39-.19-2.48-.33-3.66-.49ZM100.35,138.7c-.35-.82-.6-1.4-.94-2.21-.25.85-.41,1.4-.6,2.06.52.05.92.09,1.54.15Z"/>
      <path class="cls-2" d="M110.79,136.58v-2.58c1.21-.32,1.82.02,2.62,1.48-.54,1.12-1.47,1.28-2.62,1.1Z"/>
      <path class="cls-2" d="M100.35,138.7c-.62-.06-1.02-.1-1.54-.15.19-.66.35-1.2.6-2.06.35.81.59,1.39.94,2.21Z"/>
    </g>
  </g>
  <g>
    <g>
      <polygon class="cls-5" points="29.12 83.45 5.56 117.95 6.73 119.43 51.68 117.87 35.53 88.21 30.73 82.6 29.12 83.45 29.12 83.45"/>
      <path class="cls-4" d="M27.95,87.93c-.85.37-.24-.86-1.09-.48-.41.14-.18.86-1.04.59-.33,1.41-.66,2.8-1.98,3.31-.31,1.48.76,1.41,1.18,2.08-1.86,1.36-1.87,5.72-5.14,4.27.3.79,1.28.83,1.43,1.8-.71.36-1.23.5-1.57.61,1.14.93-.3.7-.74,1.38-1.14,1.77-1.76,4.56-3.76,5-.07,1.3-.54,2.23-1.75,2.49.67,1.38-.39.2-.76.85,1.72.32-1.1,1.17.1,1.87-1.9.4-1.44,2.94-2.75,3.88-.17-.46.25-1.59-.34-1.59,0,.42.08.93-.5.83-.28.88.87.16.59,1.04-1.11.27-.9,1.73-1.48,2.48,2.78-.61,7.3-.66,10.41-.52.05-.21-.02-.53.24-.55,10.36.95,18.61-.66,31.25-1.01-.58-2.8-3.05-4.15-4.03-5.69-.32-2.37-2.56-2.61-2.66-5.22-1.2.18-1.03-.95-.88-1.56-1.06.03-2.03-1.7-1.17-2.08-.83.45-.9-.16-1.63-.46-1.93-5.83-6.53-9.94-8.74-14.54.01.27-.45.36-.53.02.32-.05.63-.11.51-.56-.75.25-.71-.34-1.35-.2-1.29,1.8-1.87,4.25-4.02,5.29.56.91-.2,1.29-.7,1.91-.33-1.06-.07-2.08.39-2.96.44-.02.18.73.57.77.06-1.15.97-3.33,1.76-2.23-.03-.37.09-.59.22-.81h0ZM43.55,100.26c1.58.23,1.16,2.65,2.82,2.8.04,1.73.93,2.54,2.03,3.11-.13,1.82.9,2.38,2.01,2.84.13.45-.18.51-.5.56.38.36,1.26.61.6,1.31.21-.16.42-.3.79-.3.12.53-.01.83-.49.82.53.68,2.07,2.14,1.2,2.62.27.45.87.54,1.62.45.15,2.18,1.35,3.2,1.35,5.55-.26-.15-1.01-.57-.78.3-.48-.5-1.86,0-1.92-.97-.59,1.05-1.83-.7-3.17.69-.81.14-.6-.84-.87-1.3-.76.27.38.66.07,1.34-.21-.17-.9-1.08-.8.04-3.73-.26-9.26-.28-12.56.09-.02-.26-.03-.53-.04-.8-1.21.71-2.61.85-3.74.18-.72,1.05-5.69,1.08-7.21.36-2.94,1.69-9.46.1-10.87,1.88-2.3-1.29-6.26.16-9.14-.89-.27-.84.18-1.03.46-1.36-1.07-.04-.45-.21-.62-1.84,1.25-.4,1.76-1.46,1.73-3.03,1.24.2.54-1.37,1.81-1.16-.23-.81-.21-.5-.06-1.33,1.81.2.72-2.24,2.29-2.25-.18-.26-.62-.24-.57-.77,1.08.29.5-.9,1.57-.61-.02-.45-.04-.89-.07-1.34.23-.22.59-.32,1.05-.32,1.56-4.03,4.49-6.8,6.16-10.74.92-.02,1.21-.6.99-1.65.78.03.79-.64,1.58-.61.65-3.58,4.05-4.66,4.68-8.26,2.93-.66,2.23-4.61,5.08-5.33-.18-.27-.63-.25-.58-.77.88-.05,1.31-.52,2.39-.39,1.2.85-.31,1.38,1.4,1.27-1.11,1.2.34,4.73,1.55,4.2.39.07.07,2.02,1.42,1.8-.14.83.33.96.35,1.59,3.43,2.86,4.09,8.8,7.53,11.66.12.45-.19.52-.51.56h0Z"/>
    </g>
    <text class="cls-1" transform="translate(19.45 113.25) scale(.79 1)"><tspan x="0" y="0">57</tspan></text>
  </g>
</svg>