<?xml version="1.0" encoding="UTF-8"?>
<svg id="Layer_1" data-name="Layer 1" xmlns="http://www.w3.org/2000/svg" viewBox="0 0 180 200">
  <defs>
    <style>
      .cls-1 {
        fill: #fff;
        font-family: AmericanTypewriter-Bold, 'American Typewriter';
        font-size: 20px;
        font-weight: 700;
      }

      .cls-2 {
        fill: #231f20;
      }

      .cls-2, .cls-3 {
        fill-rule: evenodd;
      }

      .cls-3 {
        fill: #00a9c7;
      }

      .cls-4 {
        fill: #f7ebd8;
      }

      .cls-5 {
        fill: #481919;
      }
    </style>
  </defs>
  <g>
    <path class="cls-4" d="M111.03,47.88c16.95-.62,35.5,8.72,47.52,20.16,14.56,13.86,20.44,35.24,11.31,53.91-15.29,31.26-55.84,44.44-87.77,32.26-17.82-6.79-36.22-23.64-39.82-43-2.66-14.34,4.31-29.95,13.6-40.66,12.65-14.57,36.29-21.98,55.15-22.67ZM111.35,72.77c.08-3.73-6.79-3.39-6.56-.16.21,2.99,4.59,3.21,4.74,4.78.18,1.89-3.18,1.74-3.18-.41l-1.57.26c-.36,5.31,7.61,3.86,6.06-.94-.62-1.93-2.23-2.01-3.84-2.73-.42-1.07-.03-2.32,1.31-2.12.71.11,1.76,1.77,3.04,1.32ZM112.66,70.41c0,3.28-.36,6.46.11,9.74,3.09.85,5.89.18,6.39-3.37.15-1.03.39-4.52-.08-5.31-.88-1.48-4.93-1.35-6.43-1.06ZM125.01,70.16c-.87-.06-1.79-.12-2.3.7-.64,1.02-1.52,4.86-1.88,6.27-.11.45-.69,2.86-.55,3l1.59.16.64-1.74c.43-.51,2.29-.25,2.76.14.66.57.21,2.54,2.36,1.01l-2.62-9.55ZM129.72,70.18c-.39.01-2.01-.35-1.8.35.5,1.65,2.02,3.77,2.3,5.59.22,1.42-.36,2.61-.2,4.01h1.84c.09-1.21.04-3.1.38-4.22.2-.66,3.38-5.2,3.04-5.51l-2.07.03c-.17.92-.64,1.89-1.13,2.68-.17.26-.88,1.59-1.26,1.23l-1.09-4.17ZM85.05,79.74v-7.75c1.14.02,2.72.32,2.63-1.31-1.78.42-4.62-.56-6.18-.26-.63.12-.66.33-.66.92,0,.82,1.6.23,2.11.4l.26,8.41,1.84-.4ZM89.26,70.41v7.75c0,.28,1.4,1.81,1.76,1.92.79.23,2.78.1,3.48-.36,1.51-.98,1.29-7.51,1.33-9.32l-1.99.25c-.5.72.22,5.58-.17,6.93-.22.76-1.33,1.28-2.05.85-1.19-.71-.13-6.58-.26-8.02h-2.1ZM103.72,70.41h-6.05v9.73h5.39l.4-1.84c-2.29.04-5.24,1.44-3.96-2.25l2.91-.11v-1.32s-2.78-.24-2.78-.24c-.15-.63-.39-2.38.32-2.61l3.74-.33.03-1.02ZM128.17,107.21v-4.21l-7.49.26c-.6-.36-.14-.56-.14-.66v-3.81l4.73-.26v-2.99c-.02-.12-.85-.43-.92-.43h-3.94c-.27-.2-.29-.23-.29-.54,0-.53.24-3.8.42-3.93l7.47.76c.84-.2-.05-3.21.04-3.93l-11.21-.4c-.45.32-.53,6.66-.52,7.65,0,.75.27,1.38.29,2.08.08,3.39-.01,6.76.37,10.14,3.45,1.21,7.52-.22,11.18.25ZM67.44,91.44v-3.81c-.23-.38-.52-.36-.91-.41-1.9-.22-6.21-.16-8.17,0-.46.04-1.89.21-2.11.52-.35,6.59-.49,13.16,0,19.75.5.72,2.74-.23,3.57-.02-.3-2.72-.28-5.39.04-8.11l5.22-.56-.25-3.3c-.88-.55-4.26.44-4.63-.1-.15-.22-.35-3.78-.14-4.06l7.39.11ZM143.95,107.47l-3.68-8.55c1.51-1.69,2.2-2.93,2.71-5.17.38-1.65.64-2.67-.48-4.16-.26-.35-2.28-1.52-2.76-1.71-2.68-1.07-5.91-.69-8.7-.28l.13,19.62c.48.68,2.28-.17,3.04-.02l.26-7.89,2.24.26,3.32,7.85c1.38.1,2.53.49,3.91.03ZM157.1,93.54c1.59-8.74-13.05-7.94-11.81-.15.46,2.88,5.62,4.94,7.61,6.58,2.97,2.45.41,5.83-2.82,4.13-1.83-.96-1.17-2.75-1.64-3.09h-2.93c-1.61,6.12,5.5,7.67,10.01,5.54,1.44-.68,2.13-1.29,2.34-2.92.71-5.75-2.34-5.56-6.19-7.94-1-.62-2.56-1.24-2.73-2.53-.53-3.96,5.22-3.3,5.56.09l2.6.29ZM92.94,107.47h3.81l.27-.52-3.73-8.55c4.77-3.66,4.4-9.98-2.39-10.84-1.94-.25-3.59.1-5.43.17-.54.02-1.34-.61-1.89,0-.39,6.55-.43,13.14-.38,19.73h3.81c.26-.17.34-.36.39-.66.1-.53-.07-7.78.4-7.76.51.23,1.22.18,1.69.41.98.48,2.9,6.61,3.43,8ZM105.83,93.8c-.03-.3-.12-.63-.3-.88-.62-.85-3.16-4.94-3.5-5.19-.72-.52-2.14-.14-3.04-.24l-.67,19.73c.2.31.42.22.72.19.75-.07,3.16-.13,3.33-.64l.43-12.45.4-.26c.54,1.31,1.54,2.88,2.4,4.04.18.25.24.44.62.45,1.44,0,4.38-9.51,4.09-1.45-.07,1.9-.46,4.14-.53,6.04-.05,1.3.03,2.6-.01,3.9.16.68,3.31.38,3.96.44l-.27-19.45-3.66-.52c-.69,1.84-1.69,3.61-2.8,5.23-.2.29-.74,1.39-1.16,1.07ZM164.2,87.5l-3.39.02-1.87,6.28c.81-.07,2.48.86,3.03.28.24-.26,2.48-6.33,2.23-6.58ZM76.62,87.78l-4.58.23c-1.98,5.78-4.36,11.87-5.52,17.88-.06.32-.47,1.53-.14,1.72l3.96.39c.11-1.8.02-4.01,2.22-4.22.63-.06,3.74-.07,4.1.14.88.74.87,3.86,1.64,4.17.56.22,3.23-.05,3.47-.61l-5.15-19.7ZM66.39,110.89h-4.21l.27,19.98,3.42-.26.26-12.62c.61-.15.43.12.6.33.94,1.2,1.53,2.88,2.33,3.97.16.22.24.5.6.42.84-.18,2.63-4.46,3.44-5.24.61-.13.42.55.4.93-.07,1.64-.48,3.6-.55,5.24-.09,2.32.09,4.66.01,6.98h3.81l.1-19.16-3.87-.25c-.35.22-2.34,4.85-2.87,5.66-.16.25.03.47-.58.34l-3.16-6.31ZM101.49,110.89c-1.57-.13-3.28.09-4.86,0l-.26,19.98c1.17-.17,2.77.41,3.68-.4v-7.62c0-.7,2.33.05,2.87-.11l2.66,7.85c1.3-.03,2.87.31,3.93-.64l-3.43-7.86c3.05-.87,3.87-7.16,1.99-9.1-.35-.37-1.47-.99-1.98-1.18-1.01-.37-3.52-.83-4.6-.92ZM131.33,126.93v-3.81c1.22-.95,2.88-.55,4.3-.69.69-.23.56-2.44.19-3-.75-.52-3.2.42-3.96-.51v-3.94c.17-.26.36-.34.66-.39,1.86-.34,4.57.28,6.54-.04.48-.16.85-2.76.58-3.14-3.92-.96-8.19-.32-12.13.26l.15,19.21,10.87-.25c.64-.15.4-2.94.45-3.52-.21-.91-6.58.2-7.64-.17ZM154.73,114.31l-.31-2.97-.35-.44h-12.75l-.26,3.42h4.47l.26,16.56,3.68-.27.25-15.87c.03-.12.86-.43.94-.43h4.08ZM89.25,111.43l-4.72-.28c-1.34,3.88-2.56,7.8-3.61,11.77-.28,1.05-2.07,7.27-1.65,7.68l3.7.15c.56-.4-.11-3.11,1.68-3.32.86-.1,4.18-.11,4.89.13,1.09.36,1.15,2.29,1.31,3.29l3.11-.28-4.71-19.15ZM115.82,111.15h-3.94l.11,19.47,3.3.24c-.15-1.53-.63-4.73-.21-6.12.09-.29,1.7-2.27,2.05-2.02.75,1.33,3.54,7.85,4.48,8.28.63.29,3.71-.29,3.64-1.01-.68-2.32-5.77-9.13-5.5-11.07.04-.29,3-3.74,3.54-4.64s1.35-2.11,1.47-3.13h-3.81c-.43,0-4.25,6.22-4.97,7.13-.23.29-.33.81-.81.76l.65-7.89Z"/>
    <path class="cls-5" d="M66.39,110.89l3.16,6.31c.61.13.42-.08.58-.34.53-.82,2.52-5.44,2.87-5.66l3.87.25-.1,19.16h-3.81c.08-2.32-.1-4.66-.01-6.98.06-1.64.48-3.6.55-5.24.02-.38.21-1.06-.4-.93-.81.78-2.6,5.06-3.44,5.24-.36.08-.44-.2-.6-.42-.79-1.09-1.38-2.76-2.33-3.97-.17-.21,0-.48-.6-.33l-.26,12.62-3.42.26-.27-19.98h4.21Z"/>
    <path class="cls-5" d="M105.83,93.8c.42.32.96-.79,1.16-1.07,1.11-1.62,2.11-3.39,2.8-5.23l3.66.52.27,19.45c-.65-.06-3.8.24-3.96-.44.05-1.3-.03-2.6.01-3.9.07-1.9.46-4.14.53-6.04.29-8.06-2.65,1.45-4.09,1.45-.38,0-.44-.2-.62-.45-.86-1.16-1.87-2.73-2.4-4.04l-.4.26-.43,12.45c-.17.51-2.58.57-3.33.64-.29.03-.52.12-.72-.19l.67-19.73c.9.1,2.32-.28,3.04.24.34.24,2.87,4.33,3.5,5.19.18.25.28.57.3.88Z"/>
    <path class="cls-5" d="M92.94,107.47c-.53-1.4-2.45-7.52-3.43-8-.48-.23-1.18-.18-1.69-.41-.47-.02-.3,7.22-.4,7.76-.05.29-.13.49-.39.66h-3.81c-.05-6.59-.01-13.18.38-19.73.55-.62,1.34.01,1.89,0,1.83-.08,3.48-.42,5.43-.17,6.79.86,7.16,7.17,2.39,10.84l3.73,8.55-.27.52h-3.81ZM92.08,91.25c-.88-1.07-3.4-.87-4.66-.86.23,1.23-.89,4.76.11,5.55,1.81.64,4.62.32,4.89-1.99.08-.69.09-2.17-.34-2.69Z"/>
    <path class="cls-5" d="M101.49,110.89c1.08.09,3.59.55,4.6.92.5.19,1.62.81,1.98,1.18,1.88,1.93,1.06,8.23-1.99,9.1l3.43,7.86c-1.06.95-2.63.61-3.93.64l-2.66-7.85c-.54.15-2.87-.6-2.87.11v7.62c-.91.81-2.51.23-3.68.4l.26-19.98c1.58.09,3.3-.13,4.86,0ZM100.04,114.05v5.39c2.57,1.53,6.56-.79,4.96-3.91-.93-1.82-3.27-1.49-4.96-1.48Z"/>
    <path class="cls-5" d="M143.95,107.47c-1.37.46-2.52.06-3.91-.03l-3.32-7.85-2.24-.26-.26,7.89c-.76-.15-2.56.7-3.04.02l-.13-19.62c2.79-.41,6.01-.79,8.7.28.48.19,2.49,1.36,2.76,1.71,1.12,1.49.86,2.51.48,4.16-.51,2.23-1.2,3.47-2.71,5.17l3.68,8.55ZM134.48,96.43c1.85-.04,4.15.32,4.97-1.73,1.47-3.67-2.33-4.74-4.97-3.39v5.13Z"/>
    <path class="cls-5" d="M76.62,87.78l5.15,19.7c-.24.56-2.92.83-3.47.61-.77-.31-.76-3.43-1.64-4.17-.36-.22-3.46-.2-4.1-.14-2.2.22-2.11,2.42-2.22,4.22l-3.96-.39c-.33-.19.08-1.4.14-1.72,1.16-6.01,3.54-12.1,5.52-17.88l4.58-.23ZM76.38,100.37l-2.24-8.14-2.23,8.41,4.47-.26Z"/>
    <path class="cls-5" d="M115.82,111.15l-.65,7.89c.48.05.58-.47.81-.76.71-.91,4.53-7.13,4.97-7.13h3.81c-.11,1.03-.91,2.21-1.47,3.13s-3.5,4.35-3.54,4.64c-.28,1.95,4.82,8.75,5.5,11.07.07.71-3.01,1.29-3.64,1.01-.94-.43-3.73-6.95-4.48-8.28-.34-.25-1.96,1.73-2.05,2.02-.42,1.39.06,4.59.21,6.12l-3.3-.24-.11-19.47h3.94Z"/>
    <path class="cls-5" d="M128.17,107.21c-3.67-.48-7.73.95-11.18-.25-.39-3.38-.29-6.75-.37-10.14-.02-.7-.28-1.33-.29-2.08,0-1,.07-7.33.52-7.65l11.21.4c-.09.72.81,3.73-.04,3.93l-7.47-.76c-.18.13-.42,3.4-.42,3.93,0,.31.02.34.29.54h3.94c.07,0,.9.31.94.43v2.99s-4.75.26-4.75.26v3.81c0,.1-.46.3.14.66l7.49-.26v4.21Z"/>
    <path class="cls-5" d="M131.33,126.93c1.06.37,7.43-.73,7.64.17-.05.58.19,3.37-.45,3.52l-10.87.25-.15-19.21c3.94-.58,8.21-1.23,12.13-.26.27.37-.1,2.98-.58,3.14-1.97.32-4.67-.31-6.54.04-.29.05-.49.13-.66.39v3.94c.76.93,3.21-.01,3.96.51.38.56.5,2.78-.19,3-1.42.14-3.08-.25-4.3.69v3.81Z"/>
    <path class="cls-5" d="M89.25,111.43l4.71,19.15-3.11.28c-.16-1-.22-2.93-1.31-3.29-.72-.24-4.03-.23-4.89-.13-1.78.21-1.12,2.92-1.68,3.32l-3.7-.15c-.42-.41,1.38-6.63,1.65-7.68,1.05-3.98,2.28-7.89,3.61-11.77l4.72.28ZM86.37,116.15l-2.07,8.26c.14.57,3.46.55,4,.38,1.11-.37-.28-3.05-.49-3.9-.09-.38-.9-5.15-1.44-4.73Z"/>
    <path class="cls-5" d="M157.1,93.54l-2.6-.29c-.34-3.39-6.09-4.04-5.56-.09.17,1.29,1.73,1.91,2.73,2.53,3.85,2.38,6.91,2.19,6.19,7.94-.2,1.63-.89,2.24-2.34,2.92-4.51,2.13-11.62.58-10.01-5.54h2.93c.47.34-.19,2.13,1.64,3.09,3.23,1.7,5.78-1.68,2.82-4.13-1.99-1.64-7.16-3.71-7.61-6.58-1.23-7.79,13.41-8.59,11.81.15Z"/>
    <path class="cls-5" d="M67.44,91.44l-7.39-.11c-.21.28,0,3.84.14,4.06.37.54,3.75-.45,4.63.1l.25,3.3-5.22.56c-.32,2.72-.33,5.39-.04,8.11-.83-.21-3.06.73-3.57.02-.49-6.59-.34-13.16,0-19.75.22-.31,1.65-.48,2.11-.52,1.96-.17,6.27-.23,8.17,0,.38.04.68.03.91.41v3.81Z"/>
    <path class="cls-5" d="M154.73,114.31h-4.08c-.07,0-.9.31-.94.43l-.25,15.87-3.68.27-.26-16.56h-4.47l.26-3.42h12.75l.35.44.31,2.97Z"/>
    <path class="cls-5" d="M112.66,70.41c1.5-.29,5.55-.42,6.43,1.06.46.79.22,4.27.08,5.31-.5,3.55-3.3,4.23-6.39,3.37-.48-3.28-.12-6.46-.11-9.74ZM114.5,71.46v6.44c0,.08.6.69.87.61,3.51-.29,2.81-7.77-.87-7.05Z"/>
    <path class="cls-5" d="M89.26,70.41h2.1c.13,1.44-.94,7.31.26,8.02.72.43,1.83-.09,2.05-.85.39-1.35-.33-6.21.17-6.93l1.99-.25c-.04,1.81.18,8.34-1.33,9.32-.7.45-2.69.59-3.48.36-.36-.11-1.76-1.63-1.76-1.92v-7.75Z"/>
    <path class="cls-5" d="M125.01,70.16l2.62,9.55c-2.15,1.53-1.69-.45-2.36-1.01-.46-.4-2.33-.65-2.76-.14l-.64,1.74-1.59-.16c-.15-.14.43-2.56.55-3,.35-1.41,1.24-5.25,1.88-6.27.51-.82,1.43-.76,2.3-.7ZM122.92,77.24l1.51.21.58-.37c-.37-1.23-.3-2.82-1.17-3.78l-.92,3.94Z"/>
    <path class="cls-5" d="M111.35,72.77c-1.28.45-2.32-1.22-3.04-1.32-1.34-.2-1.73,1.06-1.31,2.12,1.61.73,3.22.81,3.84,2.73,1.55,4.8-6.42,6.25-6.06.94l1.57-.26c0,2.15,3.36,2.3,3.18.41-.15-1.57-4.53-1.79-4.74-4.78-.22-3.23,6.64-3.57,6.56.16Z"/>
    <path class="cls-5" d="M103.72,70.41l-.03,1.02-3.74.33c-.7.23-.47,1.98-.32,2.61l2.78.24v1.32s-2.91.11-2.91.11c-1.28,3.69,1.67,2.29,3.96,2.25l-.4,1.84h-5.39v-9.73h6.05Z"/>
    <path class="cls-5" d="M129.72,70.18l1.09,4.17c.39.36,1.09-.97,1.26-1.23.49-.78.96-1.76,1.13-2.68l2.07-.03c.34.3-2.84,4.85-3.04,5.51-.33,1.12-.29,3.01-.38,4.22h-1.84c-.16-1.41.42-2.59.2-4.01-.28-1.82-1.8-3.94-2.3-5.59-.21-.7,1.41-.34,1.8-.35Z"/>
    <path class="cls-5" d="M85.05,79.74l-1.84.4-.26-8.41c-.51-.17-2.12.43-2.11-.4,0-.58.03-.8.66-.92,1.56-.3,4.4.69,6.18.26.09,1.64-1.48,1.33-2.63,1.31v7.75Z"/>
    <path class="cls-5" d="M164.2,87.5c.25.25-1.99,6.32-2.23,6.58-.54.59-2.22-.34-3.03-.28l1.87-6.28,3.39-.02Z"/>
    <path class="cls-4" d="M92.08,91.25c.43.52.42,2.01.34,2.69-.27,2.31-3.08,2.63-4.89,1.99-.99-.78.12-4.32-.11-5.55,1.26,0,3.77-.2,4.66.86Z"/>
    <path class="cls-4" d="M100.04,114.05c1.69,0,4.03-.34,4.96,1.48,1.6,3.12-2.39,5.44-4.96,3.91v-5.39Z"/>
    <path class="cls-4" d="M134.48,96.43v-5.13c2.64-1.34,6.44-.28,4.97,3.39-.82,2.05-3.12,1.69-4.97,1.73Z"/>
    <polygon class="cls-4" points="76.38 100.37 71.91 100.64 74.14 92.23 76.38 100.37"/>
    <path class="cls-4" d="M86.37,116.15c.54-.42,1.34,4.35,1.44,4.73.21.85,1.6,3.54.49,3.9-.54.18-3.87.2-4-.38l2.07-8.26Z"/>
    <path class="cls-4" d="M114.5,71.46c3.69-.72,4.38,6.76.87,7.05-.27.08-.87-.53-.87-.61v-6.44Z"/>
    <path class="cls-4" d="M122.92,77.24l.92-3.94c.87.97.8,2.56,1.17,3.78l-.58.37-1.51-.21Z"/>
  </g>
  <g>
    <g>
      <polygon class="cls-3" points="28.87 87.24 5.31 121.73 6.48 123.21 51.43 121.65 35.28 91.99 30.48 86.38 28.87 87.24 28.87 87.24"/>
      <path class="cls-2" d="M27.7,91.71c-.85.37-.24-.86-1.09-.48-.41.14-.18.86-1.04.59-.33,1.41-.66,2.8-1.98,3.31-.31,1.48.76,1.41,1.18,2.08-1.86,1.36-1.87,5.72-5.14,4.27.3.79,1.28.83,1.43,1.8-.71.36-1.23.5-1.57.61,1.14.93-.3.7-.74,1.38-1.14,1.77-1.76,4.56-3.76,5-.07,1.3-.54,2.23-1.75,2.49.67,1.38-.39.2-.76.85,1.72.32-1.1,1.17.1,1.87-1.9.4-1.44,2.94-2.75,3.88-.17-.46.25-1.59-.34-1.59,0,.42.08.93-.5.83-.28.88.87.16.59,1.04-1.11.27-.9,1.73-1.48,2.48,2.78-.61,7.3-.66,10.41-.52.05-.21-.02-.53.24-.55,10.36.95,18.61-.66,31.25-1.01-.58-2.8-3.05-4.15-4.03-5.69-.32-2.37-2.56-2.61-2.66-5.22-1.2.18-1.03-.95-.88-1.56-1.06.03-2.03-1.7-1.17-2.08-.83.45-.9-.16-1.63-.46-1.93-5.83-6.53-9.94-8.74-14.54.01.27-.45.36-.53.02.32-.05.63-.11.51-.56-.75.25-.71-.34-1.35-.2-1.29,1.8-1.87,4.25-4.02,5.29.56.91-.2,1.29-.7,1.91-.33-1.06-.07-2.08.39-2.96.44-.02.18.73.57.77.06-1.15.97-3.33,1.76-2.23-.03-.37.09-.59.22-.81h0ZM43.3,104.05c1.58.23,1.16,2.65,2.82,2.8.04,1.73.93,2.54,2.03,3.11-.13,1.82.9,2.38,2.01,2.84.13.45-.18.51-.5.56.38.36,1.26.61.6,1.31.21-.16.42-.3.79-.3.12.53-.01.83-.49.82.53.68,2.07,2.14,1.2,2.62.27.45.87.54,1.62.45.15,2.18,1.35,3.2,1.35,5.55-.26-.15-1.01-.57-.78.3-.48-.5-1.86,0-1.92-.97-.59,1.05-1.83-.7-3.17.69-.81.14-.6-.84-.87-1.3-.76.27.38.66.07,1.34-.21-.17-.9-1.08-.8.04-3.73-.26-9.26-.28-12.56.09-.02-.26-.03-.53-.04-.8-1.21.71-2.61.85-3.74.18-.72,1.05-5.69,1.08-7.21.36-2.94,1.69-9.46.1-10.87,1.88-2.3-1.29-6.26.16-9.14-.89-.27-.84.18-1.03.46-1.36-1.07-.04-.45-.21-.62-1.84,1.25-.4,1.76-1.46,1.73-3.03,1.24.2.54-1.37,1.81-1.16-.23-.81-.21-.5-.06-1.33,1.81.2.72-2.24,2.29-2.25-.18-.26-.62-.24-.57-.77,1.08.29.5-.9,1.57-.61-.02-.45-.04-.89-.07-1.34.23-.22.59-.32,1.05-.32,1.56-4.03,4.49-6.8,6.16-10.74.92-.02,1.21-.6.99-1.65.78.03.79-.64,1.58-.61.65-3.58,4.05-4.66,4.68-8.26,2.93-.66,2.23-4.61,5.08-5.33-.18-.27-.63-.25-.58-.77.88-.05,1.31-.52,2.39-.39,1.2.85-.31,1.38,1.4,1.27-1.11,1.2.34,4.73,1.55,4.2.39.07.07,2.02,1.42,1.8-.14.83.33.96.35,1.59,3.43,2.86,4.09,8.8,7.53,11.66.12.45-.19.52-.51.56h0Z"/>
    </g>
    <text class="cls-1" transform="translate(19.72 117.03) scale(.79 1)"><tspan x="0" y="0">58</tspan></text>
  </g>
</svg>