<?xml version="1.0" encoding="UTF-8"?>
<svg id="Layer_1" data-name="Layer 1" xmlns="http://www.w3.org/2000/svg" viewBox="0 0 180 200">
  <defs>
    <style>
      .cls-1 {
        font-family: AmericanTypewriter-Bold, 'American Typewriter';
        font-size: 20px;
        font-weight: 700;
      }

      .cls-1, .cls-2 {
        fill: #fff;
      }

      .cls-3 {
        fill: #475339;
      }

      .cls-4 {
        stroke: #231f20;
        stroke-miterlimit: 10;
        stroke-width: .44px;
      }

      .cls-4, .cls-5 {
        fill: #abcf7c;
      }

      .cls-6 {
        fill: #0e858f;
      }

      .cls-7 {
        fill: #231f20;
      }

      .cls-7, .cls-8 {
        fill-rule: evenodd;
      }

      .cls-9 {
        fill: #8ea479;
      }

      .cls-10 {
        fill: #5499c4;
      }

      .cls-11 {
        fill: #77282b;
      }

      .cls-8 {
        fill: #00a9c7;
      }

      .cls-12 {
        fill: #90a67a;
      }

      .cls-13 {
        fill: #db80ac;
      }
    </style>
  </defs>
  <g>
    <path class="cls-6" d="M175.13,100.15c-.39,4.64-.72,9.28-1.21,13.91-.2,1.92-.62,3.85-1.16,5.71-1.48,5.09-3.33,10.03-6.08,14.59-1.65,2.74-3.03,5.67-4.94,8.22-1.95,2.6-4.24,4.98-6.64,7.18-3.43,3.15-6.97,6.17-10.86,8.78-3.61,2.42-7.39,4.4-11.72,5.19-1.22.22-2.43.58-3.61.98-3.51,1.18-7.14,1.9-10.79,2.23-3.17.29-6.39.03-9.59-.02-.76,0-1.52-.16-2.28-.16-5.55,0-10.93-1.07-16.18-2.72-4.44-1.39-8.78-3.12-12.74-5.66-2.4-1.54-4.86-3.01-7.1-4.76-1.79-1.4-3.48-3.03-4.89-4.81-2.81-3.53-5.75-6.97-8.2-10.79-2.76-4.31-4.78-8.95-6.6-13.7-1.14-2.98-2.27-5.98-2.81-9.16-1.23-7.24-1.58-14.52-.95-21.83.36-4.19,1.56-8.21,3.05-12.11,2.75-7.19,6.51-13.84,11.46-19.76,4.56-5.45,10.08-9.76,16.14-13.41,3.15-1.9,6.34-3.75,9.58-5.5,2.4-1.29,5.01-2.05,7.74-2.32.62-.06,1.23-.2,1.84-.35,3.05-.74,6.16-1,9.25-1.42,2.57-.36,5.12-.42,7.69-.33,2.8.1,5.51.68,8.18,1.49,1.13.34,2.27.66,3.42.89,4.38.88,8.63,2.1,12.61,4.17.67.35,1.43.53,2.16.75,2.15.64,4.16,1.57,5.94,2.96,2.84,2.23,5.66,4.5,8.51,6.71,2.5,1.94,4.45,4.4,6.36,6.88,2.34,3.03,4.62,6.1,6.82,9.23,2.02,2.87,3.42,6.03,4.26,9.46.59,2.43,1.47,4.79,2.02,7.23.5,2.23.85,4.51,1.06,6.78.17,1.79.03,3.62.03,5.43.07,0,.15.02.22.02ZM86.32,147.54c.3-1.33-.89-1.55-1.59-2.13-.52-.43-1.04-.29-1.43.22-.46.6-.88,1.23-1.31,1.86-.93,1.37-1.86,2.74-2.78,4.12-.42.63-.3,1.1.36,1.55,1.72,1.18,2.26,1.09,3.45-.7,1.11-1.66,2.22-3.31,3.34-4.97-.77,1.28-.02,2.15.99,2.97-.72,1.24-1.37,2.38-2.05,3.5-1.37,2.28-1.31,2.48,1.16,3.28,1.38.45,1.53.4,2.2-1.02.56-1.19,1.06-2.41,1.61-3.6.25-.54.57-.81,1.3-.68,1.13.2,1.24-.01,1.73-1.19.35-.84.02-1.36-.65-1.71-1.47-.77-2.97-1.49-4.46-2.23-.89-.44-1.41.05-1.87.73ZM152.28,128.72c1.44-.15,2.89-.46,4.33-.4,1.49.06,2.96.49,4.4.75,1.46-2.59,1.27-2.81-1.25-3.46-.13-.03-.26-.12-.39-.14-1.15-.14-1.84-.82-2.32-1.84-.44-.94-.93-1.86-1.47-2.75-.39-.65-.93-.72-1.32-.16-.51.73-1.09,1.52-1.24,2.35-.09.51.58,1.15.89,1.74.05.09-.03.24-.05.44-1.45-.19-2.07.72-2.5,1.93-.35.97.52,1.12.97,1.56-.68-.1-1.37-.36-1.89.38-.88,1.25-1.79,2.48-2.65,3.74-.4.58-.71,1.22-.08,1.89.68.72,1.61,1.02,2.36.5.57-.4,1-.39,1.5-.06.64.42,1.28.84,1.89,1.3q2.21,1.67,3.63-.55c.18-.28.33-.57.53-.93-1.68-1.27-3.27-2.47-4.98-3.76.83-.99.81-1.88-.34-2.55ZM56.65,99.04l.03.03c-.26-.85-.42-1.75-.79-2.55-.66-1.43-1.41-1.49-2.49-.26-1.5,1.71-2.09,3.71-1.88,5.97.23,2.56,1.82,4.53,4.28,5.33,1.77.58,3.44.16,5.08-.41,3.46-1.18,4.68-2.84,4.89-6.42.21-3.59-2.52-6.4-6.14-6.31-1.62.04-2.08.41-2.43,1.98-.19.87-.37,1.75-.55,2.62ZM93.6,57.03c.15-.9.8-.83,1.29-1.02,1.53-.58,1.73-.93,1.43-2.48-.37-1.93-.89-2.19-2.71-1.5-.52.2-.99.87-1.75.26.45-.98,1.35-1.04,2.21-1.23,1.39-.31,1.56-.66,1.16-2.06-.1-.33-.22-.66-.36-.98-.29-.66-.79-.95-1.51-.74-1.6.46-3.23.85-4.79,1.42-1.31.47-1.58,1.11-1.23,2.45.24.94.62,1.85.94,2.76.61,1.7,1.22,3.4,1.86,5.09.36.95.78,1.87,1.22,2.9-1.32,1.11-2.62,2.47-4.68,2.61.25-.93.54-1.78.69-2.65.3-1.79-.14-3.46-1.12-4.97-.62-.96-1.05-1.02-2.1-.52-.7.33-1.3.93-2.28,1.07.26-.59.45-.96.58-1.35.58-1.78.11-2.46-1.75-2.59-2.91-.19-5.19,1.11-6.25,3.56-1.28,2.95-.82,5.91,1.31,7.89,2.02,1.88,4.36,2.92,7.59,2.2-.51.68-.7,1.19-1.05,1.36-1.57.74-2.13,2.09-2.49,3.64-.13.59-.32,1.24-.69,1.68-1.13,1.31-1.4,2.82-1.39,4.47,0,.46.05,1.03-.19,1.36-.95,1.36-1.99,2.66-3.05,4.03-.32-.54-.59-.99-.93-1.55-1.11,1.03-1.1,2.24-.92,3.36.17,1.04-.06,1.89-.53,2.77-2.22,4.21-3.11,8.76-3.28,13.46-.17,4.56.42,9.04,1.85,13.37,1.22,3.68,2.63,7.3,4,10.93.4,1.05.96,2.13,2.06,2.51,1.04.36,1.52,1.14,2.06,1.94,1.29,1.94,2.78,3.59,4.98,4.61,1.3.6,2.51,1.5,3.59,2.46,3.71,3.25,7.79,5.81,12.55,7.2,1.47.43,2.95.81,4.4,1.28,1.54.5,2.89,1.27,3.94,2.59,1.96,2.48,2.5,2.45,4.1-.31.9-1.55,2.12-2.52,3.79-3.04,1.39-.44,2.76-.94,4.14-1.42,3.37-1.18,6.54-2.76,9.28-5.09,2.7-2.3,5.48-4.53,7.13-7.8.21-.42.62-.74.96-1.09.88-.89,1.76-1.78,2.67-2.64.34-.33.7-.73,1.12-.87,1.15-.37,1.55-1.25,1.91-2.28.49-1.37.95-2.79,1.68-4.03,3.95-6.69,5.54-13.9,4.81-21.6-.55-5.74-2.27-11.14-4.87-16.3-1.79-3.54-4.77-5.93-7.59-8.48-2.4-2.16-5.28-3.57-8.09-5.11-3.57-1.95-7.35-3.36-11.29-4.17-3.18-.66-6.46-.86-9.7-1.2-1.05-.11-2.03-.13-2.84-1.01-.86-.94-2.04-1.46-3.3-1.66-1.29-.2-2.6-.31-3.85-.45.08-.39.29-.81.23-1.18-.39-2.65-.89-2.7-2.9-1.96-.64.23-1.26.68-2.03.13ZM111.85,154.82c2,1.64,3.25,3.54,4.25,5.61.47.98.85,1.07,2.04.97.91-.08,1.32-.57,1.54-1.41.49-1.87,1.03-3.73,1.57-5.59.1-.33.29-.64.44-.96.54,1,.68,1.95.9,2.88.25,1.08.51,2.16.88,3.2.37,1.06.65,1.12,1.74.73,1.37-.49,2.73-.98,4.11-1.46.6-.21.95-.6.87-1.24-.05-.47-.06-1.1-.36-1.36-.39-.34-1.03-.38-1.63-.57.8-.69.49-1.43.21-2.14-.41-1.05-1.49-.25-2.21-.73.3-.16.55-.27.78-.42.75-.49.97-1.28.59-2.11-.34-.75-.97-.74-1.59-.53-1.31.45-2.59.99-3.9,1.45-.64.23-1.3.46-1.97.53-1.94.21-2.03.26-2.45,2.14-.15.68,0,1.48-.68,2.14-.61-.92-1.1-1.76-1.7-2.51-.27-.35-.8-.8-1.14-.74-1.46.25-2.88.13-4.32-.12-.81-.14-1.33.32-1.38,1.17-.15,2.29-.31,4.58-.41,6.86-.02.38.1.9.36,1.13.83.74,1.84.45,2.77.21.81-.21.66-.95.67-1.56.01-1.86,0-3.71,0-5.57ZM77.74,70.81c-3.04-2.44-6.02-4.82-8.99-7.21-.11-.09-.21-.18-.32-.26-.59-.44-1.18-.37-1.71.09-.37.31-.7.68-1.02,1.04-.5.55-.53,1.13-.02,1.67.52.56,1.08,1.07,1.63,1.6.48.46.97.91,1.81,1.7-1.93,0-3.37,0-4.81,0-1.5,0-2.64.74-3.63,1.77-.73.76-.74,1.18.02,1.95,1.03,1.04,2.04,2.11,3.19,3,1.64,1.28,3.34,2.49,5.11,3.58,1.32.81,2.17.4,3.24-1.21q.58-.88-.82-2.13c-.47-.42-.96-.8-1.4-1.24-.35-.35-.64-.76-.98-1.18,1.36.05,2.53.15,3.69.12,3.15-.09,2.64.46,4.84-2.68.08-.11.09-.26.19-.6ZM149,67.54c-.13-.09-.26-.19-.4-.28.32-1.48.66-2.96.94-4.45.1-.52.26-1.26,0-1.58-.67-.85-1.53-1.58-2.4-2.25-.15-.12-.75.2-1.04.43-1.29,1.05-2.56,2.13-3.81,3.23-1.4,1.24-2.81,2.49-4.15,3.79-.88.85-.83,1.24.02,2.07.25.24.53.45.8.66,1.2.88,1.31.88,2.46-.18.8-.75,1.55-1.55,2.79-1.99,0,.68.07,1.21-.02,1.71-.18,1.02-.4,2.04-.68,3.04-.4,1.43-.06,2.51,1.14,3.44,1.29,1.01,1.42,1.11,2.62.04,2.44-2.16,4.86-4.35,7.27-6.54,1.33-1.21,1.35-1.56.24-2.91-.13-.16-.28-.31-.42-.46-1.2-1.19-1.53-1.18-2.74-.07-.86.78-1.75,1.53-2.62,2.29ZM103.61,58.68c1.34.05,2.39-.69,3.45-1.33,1.74-1.06,2.16-2.1,1.76-4.02-.44-2.07-1.51-3.22-3.31-3.55-.48-.09-.99-.04-1.43-.21-.23-.09-.48-.54-.44-.79.02-.2.48-.51.72-.48.54.06,1.06.32,1.6.43.23.04.69-.05.73-.17.28-.98.71-2.01.62-2.97-.05-.45-1.11-.98-1.79-1.15-1.48-.37-2.88.17-4.19.84-1.51.77-2.21,2.05-2.12,3.74.09,1.64.94,2.7,2.46,3.27.84.31,1.69.63,2.52.97.57.23.72.75.41,1.18-.24.32-.77.6-1.16.58-.44-.02-.86-.42-1.3-.6-1.53-.64-2.1-.33-2.57,1.26-.2.7,0,1.22.47,1.69.99,1.01,2.27,1.25,3.61,1.33ZM161.98,78.63c-.68-2.12-1.72-3.91-2.88-5.63-.75-1.12-1-1.21-2.22-.65-2.65,1.21-5.28,2.45-7.9,3.71-.56.27-1.06.65-1.58,1-.69.47-.8,1.1-.42,1.81.53.98,1.1,1.93,1.61,2.91.42.8.77,1.63,1.17,2.44.34.68.85.87,1.53.45.35-.22.72-.42,1.08-.62.77-.42.85-1,.46-1.74-.42-.77-.79-1.56-1.16-2.28.48-.57.89-.75,1.32-.25.22.26.34.6.53.89,1.19,1.75,1.71,1.87,3.6.85.29-.16.53-.4.73-.56.06-1.33-1.39-2.08-1.11-3.58.31.24.49.34.6.49q1.8,2.45,4.63.75ZM161.49,91.08c1.11.21,2.05.47,3,.54,1.08.09,1.58-.39,1.47-1.48-.11-1.09-.42-2.17-.7-3.23-.23-.85-.84-1.4-1.6-1.82-3.01-1.65-5.81-.27-6.45,3.17-.1.54-.21,1.12-.5,1.56-.15.23-.7.21-1.07.3-.06-.31-.25-.67-.16-.92.21-.58.57-1.1.86-1.66.32-.61.15-1.13-.46-1.37-.63-.25-1.31-.45-1.99-.51-1.13-.1-1.55.16-1.86,1.21-.24.79-.37,1.63-.43,2.45-.17,2.51,1.37,4.51,3.63,4.8,2.8.36,4.68-1.04,5.13-3.82.08-.48.19-.96.37-1.4.1-.24.37-.41.76-.8v2.98ZM59.41,80.71c-2.83-.12-3.29.18-4.34,2.81-.05.13-.09.27-.15.39-.5,1.01-.24,1.89.46,2.68.37.41.77.8,1.2,1.15,1.76,1.46,3.52,2.93,5.3,4.36.7.56,1.46,1.07,2.21,1.56.67.44,1.35.39,1.87-.22.53-.63,1.16-1.27,1.41-2.01.28-.83-.6-1.29-1.11-1.83-.81-.87-.33-1.83-.14-2.75.14-.7.59-.94,1.31-1.07,1.49-.26,2.13-1.23,2.08-2.83-.03-.95-.42-1.27-2.03-1.62-.41-.09-.81-.18-1.23-.21-2.28-.15-4.56-.27-6.84-.4ZM119.98,50.51c.03-.18.06-.36.08-.54.43.06.87.1,1.3.18,1.99.38,2.41.1,2.84-1.91.31-1.43.06-1.86-1.44-2.12-1.57-.27-3.15-.47-4.74-.64-1.32-.15-1.61,0-1.92,1.29-.75,3.03-1.47,6.07-2.11,9.13-.44,2.14.04,2.64,2.21,2.59.41,0,.87,0,1.22-.17.4-.2.78-.55,1.01-.93.2-.33.16-.81.27-1.21.33-1.24.34-1.24,1.7-1.3,1.94-.09,2.36-.44,2.62-2.21.15-1.02-.06-1.34-1.1-1.63-.65-.18-1.3-.34-1.95-.52ZM163.53,100.45c.69,1.04.65,1.03.46,2.26-.07.41,0,1.06.27,1.26.47.36,1.13.53,1.73.64.25.04.67-.2.82-.43,1.12-1.79,1.27-4.83-1.01-6.32-1.95-1.28-4.57-.53-5.87,1.62-.42.69-.89,1.34-1.32,1.98-1.02-.43-1.12-1.07-.85-1.8.17-.45.51-.83.66-1.29.09-.28.09-.74-.08-.93-1.43-1.59-3.9-1.04-4.47,1.01-.41,1.46-.15,2.89.47,4.26.75,1.64,1.88,2.67,3.81,2.73,1.98.06,3.31-.82,4.19-2.51.38-.73.71-1.48,1.19-2.48ZM138.54,57.97c.33.08.53.1.71.17,1.68.66,1.72.65,2.56-.89.1-.18.19-.37.28-.56.52-1.14.49-1.34-.55-2.06-1.66-1.14-3.35-2.22-5.03-3.33-.69-.46-1.29-.31-1.86.26-1.47,1.45-1.47,2.45.13,4.01-1.1,1.88-2.22,3.78-3.32,5.7-1.19,2.08-.97,2.65,1.29,3.44,1.25.44,1.84.25,2.61-.94.41-.64.76-1.32,1.13-1.99.69-1.27,1.38-2.54,2.07-3.82ZM135.66,145.2c-2.62.38-4.03,1.51-4.39,3.48-.33,1.79.85,3.17,2.67,3.11.34-.01.68-.14,1.03-.15.44,0,.99-.1,1.28.12.36.27-.18.86-1.09,1.14-.13.04-.28.02-.41.06-.8.24-1.01.63-.77,1.35.45,1.3,1.96,1.74,3.29.89,1.01-.65,1.72-1.6,2.2-2.72.5-1.17.24-2.22-.62-3.07-.83-.82-1.81-1.3-3-.62-.24.14-.51.29-.76.29-.21,0-.46-.2-.6-.38-.06-.07.1-.44.23-.49.43-.18.89-.28,1.48-.44-.2-.89.06-1.8-.53-2.57ZM72.64,133.75c-2.18,1.79-4.05,3.33-5.92,4.88-.32.26-.68.52-.89.86-.16.25-.25.74-.11.93.86,1.17,1.77,2.31,2.73,3.41.5.57,1.07.52,1.61-.05.66-.71.71-1.06.19-1.79-.29-.39-.92-.63-.65-1.5.6.41,1.07.76,1.58,1.06.66.38,1.2.06,1.68-.4.49-.46.48-.95.09-1.48-.26-.35-.49-.73-.73-1.1.47,0,.68.21.9.42.86.83,1.32.88,2.14.24.86-.66,1-1.2.3-2.11-.87-1.14-1.88-2.19-2.91-3.37ZM149.15,145.68c-2.49-1.52-4.88-3-7.31-4.44-1.09-.65-1.8.33-2.6.79-.8.46-.79,1.2-.51,2.01.7,1.96,1.36,3.93,2.05,5.89.16.46.36.9.58,1.33.09.17.3.46.39.43.65-.16,1.31-.34,1.91-.61.53-.24.76-.62.63-1.33-.26-1.35.6-2.12,1.92-1.96.36.04.87.05,1.1-.15.66-.58,1.22-1.29,1.82-1.96ZM125.92,61.15c1.08.16,1.5-.4,1.8-1.19,1.09-2.84,2.23-5.67,3.29-8.52.72-1.93.51-2.31-1.47-3.05-.32-.12-.65-.25-.99-.3-.66-.11-1.14,0-1.44.78-1.12,2.91-2.39,5.76-3.51,8.67-1.08,2.81-.87,3,2.31,3.61ZM79.46,145.27c.75.4,1.19.69,1.68.88.8.31,1.32-.19,1.73-.78.33-.48.18-.93-.23-1.29-.99-.87-1.96-1.74-2.98-2.58-.66-.54-1.29-.39-1.79.27-1.3,1.7-2.61,3.4-3.86,5.14-.72,1-.59,1.46.42,2.25.78.62.95.61,1.85-.38.32-.35.51-.82.63-1.01,1.41.38,2.25,1.76,3.36.43.81-.97.73-1.27-.81-2.92ZM154.27,140.4c-.41-.52-.8-.98-1.16-1.47-.46-.63-.98-.68-1.59-.23-.22.17-.48.3-.67.49-.66.66-1.18.43-1.75-.15-.82-.84-1.69-1.63-2.54-2.44-.47-.45-1.03-.58-1.46-.09-.57.65-1.61.94-1.6,2.02,0,.18.14.4.28.54,1.66,1.66,3.29,3.36,5.02,4.95,1.03.94,1.51.84,2.45-.16.85-.9,1.69-1.81,2.53-2.73.18-.19.3-.44.5-.73ZM64.42,137.53c1.34-.21,2.37-.37,2.87-1.3.44-.81,1.1-1.15,1.88-1.47,1.39-.58,1.92-1.71,1.85-3.17-.06-1.23-.63-2.25-1.35-3.2-.87-1.13-1.17-1.23-2.43-.55-1.65.88-3.28,1.8-4.87,2.77-2.08,1.26-2.23,1.84-1.12,4.03.28.55.56,1.17,1.02,1.55.72.59,1.59,1,2.15,1.35ZM102.02,152.29c-.12.29-.24.48-.27.67-.3,2.54-.59,5.08-.86,7.62-.08.74.23,1.19,1.04,1.2,1.24.02,2.49.12,3.73.08,1.12-.03,1.92-1.9,1.25-2.82-.11-.15-.32-.23-.5-.31-.56-.23-1.35-.28-1.62-.69-.28-.43-.08-1.19-.07-1.8,0-.35.03-.69.05-1.04q.15-2.73-2.75-2.92Z"/>
    <path class="cls-6" d="M111.85,154.82c0,1.86,0,3.71,0,5.57,0,.61.15,1.35-.67,1.56-.93.24-1.94.52-2.77-.21-.26-.23-.38-.75-.36-1.13.1-2.29.26-4.58.41-6.86.06-.85.57-1.31,1.38-1.17,1.44.25,2.86.37,4.32.12.33-.06.86.39,1.14.74.6.75,1.09,1.59,1.7,2.51.68-.66.53-1.45.68-2.14.42-1.88.51-1.93,2.45-2.14.67-.07,1.33-.31,1.97-.53,1.31-.46,2.59-1,3.9-1.45.62-.21,1.25-.22,1.59.53.37.83.15,1.62-.59,2.11-.22.15-.47.26-.78.42.72.49,1.8-.32,2.21.73.28.71.59,1.45-.21,2.14.59.19,1.24.23,1.63.57.29.26.3.89.36,1.36.07.64-.28,1.03-.87,1.24-1.37.48-2.74.97-4.11,1.46-1.09.39-1.36.33-1.74-.73-.37-1.04-.63-2.12-.88-3.2-.22-.93-.36-1.88-.9-2.88-.15.32-.35.63-.44.96-.54,1.86-1.08,3.72-1.57,5.59-.22.84-.63,1.33-1.54,1.41-1.19.1-1.57,0-2.04-.97-1-2.08-2.25-3.98-4.25-5.61ZM124.44,159.51c1.55-.51,2.8-.88,4.02-1.35.32-.12.73-.56.73-.85-.02-.72-.67-.53-1.12-.49-.48.04-.98.32-1.42.23-.4-.08-.79-.47-1.03-.82-.07-.1.35-.63.63-.84.33-.24.8-.27,1.13-.5.17-.11.24-.46.23-.69,0-.12-.27-.32-.44-.34-.48-.05-1,.09-1.44-.05-.33-.1-.66-.48-.78-.81-.07-.21.18-.64.41-.83.31-.26.77-.34,1.1-.58.17-.13.3-.5.23-.68-.07-.17-.45-.38-.63-.33-.87.23-1.72.53-2.57.82-.72.24-.93.74-.77,1.47.32,1.49.56,3,.92,4.49.17.73.52,1.41.81,2.15ZM117.49,158.04c-.61-.8-1.07-1.36-1.49-1.96-.43-.62-.83-1.28-1.23-1.92-.44-.71-1.01-.85-1.79-.44,1.38,2.24,2.72,4.47,4.13,6.66.11.18.81.17,1.07,0,.3-.19.48-.65.61-1.02.44-1.31.86-2.63,1.25-3.95.25-.84.45-1.7.68-2.57-1.82-.16-1.9-.13-2.18,1.19-.18.88-.25,1.78-.44,2.66-.08.37-.32.7-.63,1.36ZM110.91,157.39h.12c0-1.04.06-2.08-.04-3.11-.03-.29-.44-.66-.76-.77-.44-.15-.81.13-.85.64-.15,2.07-.29,4.15-.42,6.22-.04.59.27.87.88.87.65,0,1.07-.21,1.06-.94-.01-.97,0-1.94,0-2.91Z"/>
    <path class="cls-6" d="M56.65,99.04c.18-.87.36-1.75.55-2.62.35-1.57.81-1.94,2.43-1.98,3.62-.09,6.35,2.71,6.14,6.31-.21,3.58-1.44,5.24-4.89,6.42-1.64.56-3.31.98-5.08.41-2.46-.8-4.04-2.77-4.28-5.33-.2-2.27.38-4.26,1.88-5.97,1.08-1.23,1.83-1.18,2.49.26.37.8.53,1.69.79,2.55-.76.33-.96.94-.89,1.7.19,2.18,3.03,3.63,4.91,2.5,1.35-.82,1.41-2.62.05-3.71-.04.45-.03.86-.12,1.25-.06.25-.22.65-.38.68-.95.13-1.92.21-2.87.2-.18,0-.44-.49-.51-.79-.13-.61-.15-1.24-.22-1.86ZM54.72,96.37c-2.1,1.68-2.52,3.82-2.24,6.21.24,2.03,1.82,3.78,3.79,4.27,4.4,1.09,8.57-2.08,8.64-6.56.04-2.92-2.57-5.26-5.49-4.92-.55.06-.84.28-1.03.82-.53,1.53-.75,3.05-.43,4.66q1.41-.23,1.8-1.5c.32-1.04,1.03-1.27,1.86-.59,1.47,1.19,1.34,4.07-.23,5.14-1.84,1.26-4.96.5-6.02-1.47-.54-1.02-.95-2.18-.26-3.17.81-1.16.21-1.89-.4-2.88Z"/>
    <path class="cls-6" d="M77.74,70.81c-.11.34-.12.49-.19.6-2.2,3.14-1.69,2.59-4.84,2.68-1.16.03-2.33-.07-3.69-.12.35.42.63.83.98,1.18.44.44.94.83,1.4,1.24q1.4,1.25.82,2.13c-1.07,1.62-1.91,2.02-3.24,1.21-1.77-1.08-3.47-2.3-5.11-3.58-1.15-.89-2.16-1.96-3.19-3-.76-.77-.75-1.19-.02-1.95.99-1.02,2.13-1.77,3.63-1.77,1.44,0,2.88,0,4.81,0-.85-.79-1.33-1.24-1.81-1.7-.55-.53-1.11-1.04-1.63-1.6-.51-.54-.48-1.13.02-1.67.33-.36.66-.72,1.02-1.04.53-.45,1.12-.53,1.71-.09.11.08.22.18.32.26,2.98,2.39,5.95,4.77,8.99,7.21ZM71.46,77.8c-1.38-1.74-3.48-2.69-4.36-5.12,1.03.11,1.76.22,2.5.26,1.72.08,3.45.18,5.18.16.91-.01,1.16-.92,1.5-1.56.35-.66-.27-.99-.68-1.34-.53-.45-1.09-.86-1.63-1.29-1.79-1.43-3.61-2.82-5.36-4.29-.9-.75-1.29-.61-1.92.1-.7.79-.03,1.24.45,1.73.24.25.52.46.79.68,1.04.81,2.09,1.6,3.12,2.43.19.15.4.58.33.67-.18.23-.49.41-.78.49-.25.07-.57.04-.82-.05-1.84-.63-3.72-.29-5.58-.29-1.37,0-2.33.67-3.14,1.86,2.36,2.41,4.73,4.73,7.68,6.37,1.61.89,1.58.95,2.72-.79Z"/>
    <path class="cls-6" d="M149,67.54c.88-.76,1.77-1.51,2.62-2.29,1.21-1.11,1.54-1.12,2.74.07.15.15.29.3.42.46,1.11,1.34,1.1,1.7-.24,2.91-2.41,2.19-4.83,4.38-7.27,6.54-1.2,1.06-1.33.96-2.62-.04-1.2-.93-1.54-2.02-1.14-3.44.28-1,.5-2.02.68-3.04.09-.5.02-1.03.02-1.71-1.23.44-1.99,1.24-2.79,1.99-1.14,1.06-1.26,1.06-2.46.18-.28-.21-.56-.42-.8-.66-.86-.83-.9-1.21-.02-2.07,1.34-1.3,2.74-2.55,4.15-3.79,1.25-1.1,2.52-2.18,3.81-3.23.29-.24.89-.55,1.04-.43.87.67,1.72,1.4,2.4,2.25.26.33.09,1.06,0,1.58-.28,1.49-.62,2.96-.94,4.45.13.09.26.19.4.28ZM147.3,69.48c.41-2.01.75-3.84,1.16-5.65.48-2.13.51-2.12-1.04-3.55-.15-.13-.33-.22-.63-.41-2.81,2.43-5.73,4.74-8.47,7.6.75.59,1.31,1.04,1.91,1.51,1.64-1.69,3.36-2.93,5.41-4.12,0,.55.05.88,0,1.19-.37,1.84-.79,3.67-1.16,5.5-.43,2.14-.4,2.17,1.74,3.52,2.84-2.57,5.7-5.16,8.67-7.84-.69-.76-1.24-1.36-1.85-2.03-.96.82-1.76,1.58-2.64,2.24-.91.68-1.62,1.69-3.09,2.03Z"/>
    <path class="cls-6" d="M103.61,58.68c-1.34-.07-2.61-.31-3.61-1.33-.47-.48-.67-.99-.47-1.69.46-1.59,1.04-1.9,2.57-1.26.45.19.86.58,1.3.6.39.02.93-.26,1.16-.58.31-.43.16-.95-.41-1.18-.84-.34-1.68-.66-2.52-.97-1.52-.56-2.37-1.63-2.46-3.27-.09-1.69.62-2.97,2.12-3.74,1.31-.67,2.71-1.21,4.19-.84.68.17,1.75.7,1.79,1.15.1.96-.33,1.99-.62,2.97-.04.12-.5.22-.73.17-.54-.1-1.06-.37-1.6-.43-.24-.02-.69.28-.72.48-.03.25.21.7.44.79.44.17.95.12,1.43.21,1.8.33,2.87,1.48,3.31,3.55.41,1.92-.01,2.96-1.76,4.02-1.06.64-2.1,1.38-3.45,1.33ZM105.99,47.67c.71-1.98.46-2.39-1.32-2.44-1.16-.03-2.18.35-3.15.91-1.06.62-1.51,1.59-1.44,2.8.07,1.23.66,2.08,1.86,2.49.92.31,1.82.67,2.71,1.04.69.29,1.15.75,1.04,1.6-.12.92-.69,1.63-1.56,1.68-.6.04-1.22-.12-1.81-.27-.45-.11-.87-.35-1.29-.52-.75,1.36-.71,1.69.2,2.25,1.87,1.16,5.42.28,6.53-1.62.07-.12.13-.25.17-.38.59-1.92-.78-4.18-2.76-4.56-.48-.09-.96-.16-1.42-.31-.95-.31-1.28-.82-1.13-1.68.16-.91.82-1.38,1.81-1.26.53.07,1.06.19,1.56.28Z"/>
    <path class="cls-6" d="M161.98,78.63q-2.83,1.69-4.63-.75c-.11-.15-.29-.24-.6-.49-.29,1.49,1.17,2.24,1.11,3.58-.2.16-.44.4-.73.56-1.89,1.03-2.41.9-3.6-.85-.19-.29-.31-.63-.53-.89-.43-.5-.84-.32-1.32.25.36.72.74,1.51,1.16,2.28.4.74.31,1.32-.46,1.74-.37.2-.73.4-1.08.62-.68.42-1.19.23-1.53-.45-.4-.81-.75-1.64-1.17-2.44-.51-.98-1.08-1.94-1.61-2.91-.38-.71-.28-1.34.42-1.81.52-.35,1.02-.74,1.58-1,2.62-1.26,5.25-2.51,7.9-3.71,1.23-.56,1.47-.46,2.22.65,1.16,1.72,2.2,3.51,2.88,5.63ZM157.82,72.8c-1.53.69-2.93,1.29-4.3,1.95-1.63.78-3.26,1.55-4.83,2.43-1.09.61-1.1.92-.54,2.02.73,1.42,1.46,2.84,2.2,4.25.1.18.22.35.37.59.58-.4,1.01-.7,1.49-1.04-.46-.84-.88-1.56-1.25-2.3-.44-.9-.28-1.29.68-1.83,1.05-.59,1.52-.5,2.08.39.33.53.65,1.06.99,1.58.48.73,1.06.44,1.62.12.58-.33.44-.78.18-1.25-.3-.54-.71-1.06-.85-1.65-.09-.38.09-1.08.36-1.23.4-.22,1.08-.23,1.51-.04.38.17.6.73.87,1.12q.89,1.28,2.46.22c-.68-1.88-1.67-3.6-3.05-5.34Z"/>
    <path class="cls-6" d="M161.49,91.08v-2.98c-.39.4-.66.56-.76.8-.18.44-.29.93-.37,1.4-.46,2.77-2.33,4.18-5.13,3.82-2.26-.29-3.8-2.29-3.63-4.8.06-.82.19-1.66.43-2.45.32-1.05.73-1.32,1.86-1.21.67.06,1.36.26,1.99.51.61.24.78.76.46,1.37-.29.55-.65,1.08-.86,1.66-.09.25.1.61.16.92.37-.09.92-.07,1.07-.3.29-.44.4-1.02.5-1.56.64-3.44,3.44-4.82,6.45-3.17.76.42,1.38.97,1.6,1.82.29,1.07.59,2.14.7,3.23.11,1.09-.39,1.57-1.47,1.48-.95-.08-1.89-.33-3-.54ZM162.46,90.56c.94.08,1.74.16,2.82.25-.24-1.2-.35-2.15-.63-3.05-.57-1.85-1.77-2.57-3.83-2.43-1.59.1-2.37.92-2.74,2.86-.12.61-.18,1.26-.41,1.82-.39.93-1.37,1.31-2.24.97-.97-.38-1.19-1.05-.71-2.21.25-.61.54-1.2.82-1.82-2.53-.77-2.61-.72-2.99,1.58-.04.27-.09.55-.11.83-.13,1.97,1.01,3.64,2.74,3.83,1.89.2,4.23-.21,4.38-2.94.05-.86.46-1.74.89-2.51.16-.29.83-.45,1.25-.42.55.03.76.54.76,1.08,0,.68,0,1.36,0,2.17Z"/>
    <path class="cls-6" d="M59.41,80.71c2.28.13,4.56.26,6.84.4.41.03.82.12,1.23.21,1.61.35,2.01.67,2.03,1.62.05,1.6-.59,2.57-2.08,2.83-.72.13-1.17.37-1.31,1.07-.19.92-.67,1.88.14,2.75.5.54,1.39,1,1.11,1.83-.25.75-.88,1.39-1.41,2.01-.52.61-1.2.67-1.87.22-.75-.5-1.51-1-2.21-1.56-1.78-1.43-3.54-2.89-5.3-4.36-.42-.35-.83-.74-1.2-1.15-.7-.79-.96-1.67-.46-2.68.06-.12.1-.26.15-.39,1.05-2.63,1.51-2.93,4.34-2.81ZM66.57,91.34c-.3-.41-.38-.64-.54-.74-1.29-.73-1.28-1.86-1.01-3.08.08-.34.23-.66.26-1,.1-1.07.6-1.57,1.72-1.65,1.13-.08,1.61-.67,1.6-1.7-.01-.98-.84-1.03-1.49-1.08-2.9-.21-5.81-.35-8.72-.53-1.04-.06-1.71.41-2.09,1.36-.18.45-.36.9-.57,1.34-.32.66-.14,1.23.3,1.72.37.41.77.8,1.2,1.15,1.7,1.42,3.4,2.85,5.14,4.23.8.64,1.67,1.18,2.63,1.84.57-.68,1.05-1.24,1.58-1.86Z"/>
    <path class="cls-6" d="M119.98,50.51c.65.17,1.31.33,1.95.52,1.04.3,1.25.62,1.1,1.63-.26,1.77-.68,2.12-2.62,2.21-1.35.06-1.36.06-1.7,1.3-.11.4-.07.88-.27,1.21-.23.38-.62.73-1.01.93-.35.17-.81.16-1.22.17-2.18.05-2.66-.45-2.21-2.59.63-3.06,1.36-6.1,2.11-9.13.32-1.28.6-1.44,1.92-1.29,1.58.18,3.17.37,4.74.64,1.5.26,1.75.69,1.44,2.12-.43,2-.85,2.28-2.84,1.91-.43-.08-.87-.12-1.3-.18-.03.18-.06.36-.08.54ZM118.55,53.86c.49.02.82.04,1.16.05.35.02.69.06,1.04.05.91-.04,1.26-.38,1.37-1.21.1-.79-.49-.91-1.01-1.07-.46-.15-.98-.13-1.4-.34-.32-.16-.69-.54-.75-.86-.15-.89.63-1.61,1.5-1.48.48.07.93.26,1.41.34.69.11,1.25-.06,1.39-.86.07-.4.09-.8.14-1.33-1.64-.26-3.19-.52-4.75-.77-1.44-.23-1.51-.22-1.86,1.17-.65,2.62-1.26,5.25-1.84,7.89-.14.64-.09,1.32-.13,2.08.54.06.87.12,1.2.12,1.45,0,1.44,0,1.82-1.39.21-.78.47-1.56.73-2.38Z"/>
    <path class="cls-6" d="M163.53,100.45c-.48,1-.81,1.76-1.19,2.48-.88,1.69-2.21,2.57-4.19,2.51-1.93-.06-3.07-1.09-3.81-2.73-.62-1.37-.88-2.8-.47-4.26.57-2.05,3.04-2.6,4.47-1.01.17.19.17.65.08.93-.15.45-.49.84-.66,1.29-.27.73-.17,1.37.85,1.8.43-.64.91-1.29,1.32-1.98,1.3-2.15,3.92-2.89,5.87-1.62,2.28,1.49,2.14,4.53,1.01,6.32-.15.24-.57.48-.82.43-.6-.11-1.26-.28-1.73-.64-.26-.2-.33-.85-.27-1.26.19-1.23.24-1.22-.46-2.26ZM157.61,97.92c-2.27-.85-3.16-.38-3.1,1.69.03,1.07.35,2.18.75,3.18,1.02,2.57,5.08,2.51,6.21.12.32-.69.63-1.38.96-2.07.29-.6.71-1.06,1.45-.93.84.16,1.1.81,1.09,1.54-.01.66-.15,1.33-.23,1.97,1.45.36,1.56.36,1.82-.59.18-.65.3-1.37.23-2.03-.15-1.47-1.25-2.57-2.65-2.83-1.36-.25-2.58.28-3.36,1.51-.33.53-.59,1.1-.94,1.62-.63.92-1.36,1.18-2.09.81-.7-.36-1.08-1.22-.85-2.15.15-.59.43-1.16.71-1.85Z"/>
    <path class="cls-6" d="M138.54,57.97c-.69,1.28-1.38,2.55-2.07,3.82-.37.67-.72,1.35-1.13,1.99-.77,1.19-1.35,1.38-2.61.94-2.26-.79-2.48-1.36-1.29-3.44,1.1-1.92,2.23-3.82,3.32-5.7-1.6-1.56-1.6-2.56-.13-4.01.57-.56,1.17-.71,1.86-.26,1.68,1.1,3.37,2.19,5.03,3.33,1.05.72,1.07.92.55,2.06-.09.19-.18.38-.28.56-.83,1.54-.87,1.55-2.56.89-.18-.07-.38-.09-.71-.17ZM140.41,57.56c1.35-1.77,1.33-1.83-.46-2.95-1.18-.73-2.35-1.48-3.48-2.27-.64-.45-1.11-.43-1.58.21-.59.81-.61,1.2,0,1.75,1.05.96,1.07.97.37,2.17-.97,1.68-1.99,3.34-2.96,5.02-.29.51-.5,1.07-.76,1.63.39.24.61.41.86.52,1.48.7,1.65.67,2.47-.74.73-1.26,1.41-2.55,2.08-3.84,1.2-2.31,1.19-2.32,3.46-1.51Z"/>
    <path class="cls-6" d="M135.66,145.2c.6.77.33,1.68.53,2.57-.59.17-1.05.26-1.48.44-.13.06-.28.42-.23.49.14.18.39.38.6.38.25,0,.53-.15.76-.29,1.19-.69,2.18-.2,3,.62.85.84,1.11,1.89.62,3.07-.47,1.12-1.18,2.06-2.2,2.72-1.33.85-2.84.41-3.29-.89-.25-.72-.03-1.11.77-1.35.13-.04.28-.02.41-.06.91-.27,1.45-.87,1.09-1.14-.29-.22-.85-.13-1.28-.12-.34,0-.68.13-1.03.15-1.82.06-3-1.32-2.67-3.11.36-1.97,1.77-3.1,4.39-3.48ZM134.85,154.12c.44.84.91.9,1.51.63,1.14-.53,1.81-1.48,2.32-2.57.41-.88.12-1.64-.52-2.27-.6-.58-1.28-.81-2.07-.3-.23.15-.49.27-.75.36-.83.26-1.53.04-1.76-.62-.25-.71-.17-1.37.55-1.81.29-.18.62-.33.87-.56.11-.1.15-.41.08-.56-.06-.12-.34-.24-.49-.21-1.22.24-2.38,1.5-2.56,2.73-.16,1.1.66,2.08,1.8,2.05.55-.02,1.1-.16,1.64-.29.76-.19,1.43-.1,1.74.68.29.75-.08,1.38-.67,1.81-.49.35-1.06.59-1.69.93Z"/>
    <path class="cls-6" d="M72.64,133.75c1.03,1.18,2.04,2.22,2.91,3.37.7.92.55,1.45-.3,2.11-.82.64-1.29.59-2.14-.24-.22-.21-.43-.42-.9-.42.24.37.47.74.73,1.1.39.53.39,1.02-.09,1.48-.48.45-1.02.78-1.68.4-.51-.3-.98-.66-1.58-1.06-.26.87.37,1.11.65,1.5.53.72.48,1.08-.19,1.79-.54.58-1.11.62-1.61.05-.95-1.1-1.86-2.24-2.73-3.41-.14-.19-.04-.68.11-.93.21-.34.57-.6.89-.86,1.87-1.55,3.75-3.09,5.92-4.88ZM66.36,139.96c.64.89,1.11,1.66,1.69,2.34.36.41.72,1.35,1.41.75.58-.51-.26-.92-.58-1.3-.58-.7-.33-1.29.18-1.85.59-.64,1.1-.34,1.57.19.18.21.37.45.61.55.22.1.57.12.76,0,.12-.08.15-.5.06-.69-.14-.3-.45-.53-.64-.82-.45-.7,0-1.18.48-1.6.49-.42.9-.2,1.25.22.18.21.35.43.51.66.29.39.7.59,1.03.18.2-.25.27-.82.12-1.07-.61-.99-1.27-1.97-2.44-2.5-1.98,1.62-3.9,3.21-6.01,4.94Z"/>
    <path class="cls-6" d="M149.15,145.68c-.61.67-1.16,1.38-1.82,1.96-.23.21-.74.2-1.1.15-1.33-.16-2.18.6-1.92,1.96.14.71-.09,1.09-.63,1.33-.61.27-1.26.45-1.91.61-.09.02-.31-.26-.39-.43-.22-.43-.42-.88-.58-1.33-.69-1.96-1.35-3.93-2.05-5.89-.29-.8-.3-1.54.51-2.01.79-.46,1.51-1.43,2.6-.79,2.43,1.43,4.82,2.92,7.31,4.44ZM147.67,145.83c-2.23-1.36-4.34-2.64-6.54-3.98-.36.21-.78.44-1.19.68-.5.3-.58.78-.41,1.27.72,2.1,1.44,4.19,2.23,6.27.11.29.6.64.88.61.5-.05.9-.41.6-1.03-.39-.81.05-1.29.62-1.77.37-.31.64-.76,1.04-1.01.3-.19.84-.37,1.07-.23,1.08.67,1.26-.18,1.72-.8Z"/>
    <path class="cls-6" d="M125.92,61.15c-3.18-.61-3.39-.8-2.31-3.61,1.12-2.91,2.39-5.76,3.51-8.67.3-.79.78-.88,1.44-.78.34.05.67.18.99.3,1.98.74,2.19,1.12,1.47,3.05-1.07,2.85-2.2,5.68-3.29,8.52-.3.79-.72,1.34-1.8,1.19ZM126.48,60.31c1.75-3,2.74-6.32,3.85-9.59.1-.28.09-.73-.07-.95-.8-1.08-2.21-.92-2.75.34-1.03,2.42-2.04,4.86-2.98,7.32-.92,2.41-.83,2.5,1.95,2.88Z"/>
    <path class="cls-6" d="M152.32,128.75c-.44-.44-1.31-.58-.97-1.56.43-1.21,1.05-2.12,2.5-1.93.03-.2.1-.35.05-.44-.31-.59-.98-1.23-.89-1.74.15-.83.74-1.62,1.24-2.35.39-.56.93-.49,1.32.16.54.89,1.03,1.81,1.47,2.75.47,1.02,1.17,1.7,2.32,1.84.13.02.26.11.39.14,2.52.65,2.71.87,1.25,3.46-1.43-.26-2.91-.69-4.4-.75-1.43-.06-2.88.25-4.33.4l.04.03ZM155.4,125.55q-2.81.74-3.01,2.38c2.58-.83,5.06-.58,7.56.16.8.24.96-.51.92-1.22-.5-.19-.94-.43-1.41-.51-1.67-.26-2.71-1.2-3.35-2.74-.3-.74-.77-1.41-1.29-2.34-.49.79-.81,1.29-1.09,1.75.59.89,1.1,1.67,1.67,2.51Z"/>
    <path class="cls-6" d="M86.32,147.54c.45-.68.97-1.17,1.87-.73,1.49.74,2.99,1.46,4.46,2.23.67.35,1,.87.65,1.71-.49,1.18-.6,1.4-1.73,1.19-.73-.13-1.05.14-1.3.68-.55,1.2-1.06,2.41-1.61,3.6-.66,1.41-.81,1.47-2.2,1.02-2.46-.8-2.53-1-1.16-3.28.68-1.12,1.32-2.26,2.05-3.5-1.01-.82-1.76-1.7-.99-2.97l-.03.04ZM90.25,150.84c.39.09.72.13,1.03.24.56.2,1.03.05,1.13-.51.06-.3-.17-.84-.43-.99-1.2-.68-2.45-1.28-3.69-1.87-.54-.25-.89.04-1.18.52-.29.48-.11.84.28,1.04,1.07.53.88,1.22.39,2.03-.57.95-1.11,1.91-1.65,2.88-.29.52-.54,1.07-.87,1.74.8.3,1.42.53,2.21.83.94-1.99,1.85-3.9,2.79-5.9Z"/>
    <path class="cls-6" d="M79.46,145.27c1.54,1.65,1.61,1.96.81,2.92-1.11,1.34-1.95-.05-3.36-.43-.12.2-.31.66-.63,1.01-.89.99-1.06,1-1.85.38-1.01-.79-1.14-1.25-.42-2.25,1.25-1.74,2.56-3.44,3.86-5.14.5-.66,1.13-.81,1.79-.27,1.01.83,1.99,1.71,2.98,2.58.41.36.55.81.23,1.29-.41.6-.93,1.09-1.73.78-.49-.19-.93-.48-1.68-.88ZM79.49,144.19c.44.29.86.66,1.36.87.32.14.74.05,1.11.06-.1-.3-.11-.68-.31-.89-.58-.6-1.2-1.16-1.86-1.66-.86-.66-1.06-.62-1.69.21-.55.72-1.06,1.46-1.6,2.19-.62.84-1.29,1.64-1.86,2.51-.12.19-.02.7.16.86.15.14.6.06.85-.06.23-.11.36-.41.55-.61q.85-.93,2.02-.24c.12.07.23.22.34.23.37,0,.85.09,1.08-.1.44-.37.07-.7-.25-1.01-1.14-1.1-1.13-1.11.11-2.34Z"/>
    <path class="cls-6" d="M152.28,128.72c1.15.67,1.17,1.55.34,2.55,1.71,1.29,3.3,2.49,4.98,3.76-.2.36-.35.65-.53.93q-1.42,2.23-3.63.55c-.61-.46-1.25-.88-1.89-1.3-.51-.33-.93-.34-1.5.06-.75.52-1.68.22-2.36-.5-.63-.67-.31-1.31.08-1.89.86-1.26,1.78-2.49,2.65-3.74.52-.75,1.22-.48,1.89-.38l-.04-.03ZM156.49,135.2c-1.37-1-2.56-1.95-3.82-2.78-.79-.52-1.33-.97-.69-1.97.11-.17-.03-.72-.19-.79-.23-.1-.71-.01-.85.17-.85,1.09-1.66,2.21-2.41,3.37-.18.28-.23.86-.06,1.1.29.4.84.52,1.27.09.71-.71,1.38-.41,2.05.04,1.2.8,2.39,1.6,3.67,2.46.32-.52.6-.98,1.03-1.68Z"/>
    <path class="cls-6" d="M154.27,140.4c-.2.29-.32.54-.5.73-.83.92-1.68,1.83-2.53,2.73-.94,1-1.42,1.1-2.45.16-1.73-1.59-3.36-3.28-5.02-4.95-.14-.14-.28-.36-.28-.54-.01-1.08,1.04-1.37,1.6-2.02.43-.49.99-.36,1.46.09.85.81,1.72,1.6,2.54,2.44.57.58,1.1.81,1.75.15.19-.19.45-.32.67-.49.61-.46,1.13-.4,1.59.23.36.49.75.96,1.16,1.47ZM144.13,138.48c.92.82,1.65,1.44,2.34,2.11.9.86,1.72,1.8,2.64,2.63.75.68,1.01.62,1.7-.17.5-.57.97-1.17,1.49-1.72.89-.96.9-.95-.28-1.96-.22.14-.46.28-.69.44-1.41,1.02-1.44,1.02-2.76-.17-.92-.83-1.83-1.66-2.8-2.53-.49.41-.91.74-1.66,1.36Z"/>
    <path class="cls-6" d="M64.42,137.53c-.57-.34-1.43-.75-2.15-1.35-.46-.38-.74-1-1.02-1.55-1.11-2.19-.96-2.77,1.12-4.03,1.6-.97,3.22-1.89,4.87-2.77,1.26-.67,1.57-.58,2.43.55.72.94,1.3,1.96,1.35,3.2.07,1.46-.47,2.59-1.85,3.17-.78.32-1.44.66-1.88,1.47-.5.93-1.53,1.1-2.87,1.3ZM70.25,131.34c-.23-.49-.55-1.4-1.05-2.21-.57-.93-.88-.98-1.89-.45-1.35.71-2.67,1.46-3.98,2.25-2.3,1.39-2.41,1.96-.85,4.21.31.44.71.87,1.16,1.15,1.19.72,2.71.4,3.15-.87.34-1,.87-1.18,1.75-1.33,1.13-.2,1.69-1.08,1.71-2.75Z"/>
    <path class="cls-6" d="M102.02,152.29q2.89.19,2.75,2.92c-.02.35-.04.69-.05,1.04,0,.62-.21,1.37.07,1.8.27.41,1.06.46,1.62.69.18.07.4.16.5.31.67.92-.13,2.79-1.25,2.82-1.24.04-2.49-.06-3.73-.08-.81-.01-1.12-.46-1.04-1.2.27-2.54.57-5.08.86-7.62.02-.19.15-.37.27-.67ZM101.88,160.7c1.21.19,2.16.4,3.12.47.33.02.82-.2,1.01-.47.46-.65.14-1.15-.79-1.37q-1.53-.36-1.45-1.87c.07-1.17.18-2.35.2-3.52,0-.26-.3-.78-.39-.76-.35.06-.79.21-.97.48-.21.32-.22.79-.27,1.2-.17,1.3-.33,2.61-.45,3.92-.06.6,0,1.22,0,1.93Z"/>
    <path class="cls-6" d="M86.36,147.49c-1.11,1.66-2.23,3.31-3.34,4.97-1.19,1.78-1.73,1.87-3.45.7-.65-.45-.78-.92-.36-1.55.92-1.38,1.85-2.75,2.78-4.12.43-.63.85-1.26,1.31-1.86.39-.52.91-.65,1.43-.22.69.58,1.89.8,1.59,2.13,0,0,.03-.04.03-.04ZM81.57,153.26c1.35-2.14,2.63-4.17,3.97-6.29-.55-.37-.98-.67-1.5-1.02-1.47,2.13-2.87,4.16-4.36,6.32.74.39,1.27.66,1.89.99Z"/>
    <path class="cls-5" d="M134.79,84.45c-.59-.58-1.17-1.16-1.76-1.73-1.25-1.2-2.47-2.42-3.76-3.58-.54-.48-1.11-1.01-2.38-.99.58.58.89.96,1.27,1.25,3.08,2.32,5.59,5.16,7.6,8.44.2.33.37.68.41,1.14-2.13-2.5-4.41-4.8-7.27-6.6.15.31.24.68.47.92,1.23,1.32,2.52,2.58,3.72,3.91.49.55.83,1.23,1.24,1.85l.03-.03c-1.01-.93-2.02-1.88-3.05-2.8-.55-.5-1.14-.95-2-1.24.07.26.07.6.24.77,1.06,1.1,2.18,2.14,3.23,3.24.47.49.83,1.09,1.24,1.64l-.13.12c-.68-.54-1.37-1.08-2.05-1.62.05,1.36,1.04,2.02,1.68,2.91.64.88,1.3,1.74,1.72,2.85-1.27-.9-2.55-1.8-3.8-2.68.07-.57.35-1.21.15-1.57-.32-.57-.89-1.14-1.49-1.37-1.22-.47-2.51-.88-3.8-1.02-2.56-.27-5.13-.33-7.66.39-2.06.58-3.87,1.54-5.29,3.22-1.48-.59-2.76-1.47-4.39-1.27-4.73.57-7.46,4.11-6.63,7.83.37,1.68-.23,2.51-1.36,3.29-1.14.79-2.33,1.5-3.49,2.25-.94-.44-1.2-1.22-.96-1.94.52-1.54.07-2.92-.56-4.22-.7-1.42-.5-2.67.26-3.93,3.61-5.96,8.65-10.07,15.42-11.95,1.07-.3,2.13-.6,3.66-1.03-.76-.2-1.11-.42-1.41-.36-2.1.45-4.19.94-6.27,1.46-.59.15-1.1.52-1.75.02-.22-.17-.78,0-1.14.13-1.11.4-2.18.92-3.3,1.28-1.01.33-2.07.52-3.52.86.68.2.98.29,1.47.43-1.04.21-1.91.38-3.22.64.72-.73,1.03-1.29,1.49-1.48.83-.34,1.39-.79,1.67-1.68.2-.61.72-1.02,1.46-.97.9.06,1.44-.37,1.67-1.23.42-1.53,1.21-2.8,2.55-3.69.79-.53.85-1.41.92-2.23.08-.88.24-1.65,1.24-1.92.06-.02.12-.07.17-.11,1.95-1.39,2.3-2.67,1.25-5.18,2.24.23,4.37.42,6.49.68.45.05.98.23.87.93-.14.9.55,1.26,1.18,1.51,1.16.45,2.35.85,3.56,1.16,3.2.84,6.13,2.23,8.85,4.09,2.21,1.51,3.75,3.59,5,5.95-3.08-2.74-6.26-5.3-9.74-7.46-.11.11-.22.23-.33.34.2.29.34.63.6.85,1.55,1.29,3.2,2.48,4.68,3.84,1.53,1.4,2.94,2.95,4.35,4.48.31.33.44.84.66,1.26l.03-.03ZM118.79,81.08c-.91-.49-1.44-.79-2.41-.27.83.35,1.32.77,2.41.27Z"/>
    <path class="cls-6" d="M130.22,120.26c-.14-.44-.26-.63-.25-.82,0-.54.24-1.28-.48-1.38-.43-.06-1.03.36-1.38.74-1.23,1.32-2.29,2.81-3.58,4.06-2.52,2.46-5.43,4.35-8.92,5.15-1.14.26-2.3.38-3.6.59v-8.93c.5-.17,1.02-.34,1.53-.54.32-.13.83-.24.9-.46.51-1.72,2.19-1.69,3.4-2.32,1.26-.65,2.41-1.4,3.27-2.53.52-.68,1.22-1.22.96-2.37-.18-.81,1.59-2.43,2.46-2.7.86-.27,1.74-.54,2.51-.98,1.65-.96,2.03-2.68,1.04-4.31-.64-1.04-1.55-1.81-2.71-2.18-.59-.19-.92-.49-1.16-1.05-.8-1.87-2.51-2.74-4.21-3.54-.52-.24-1.25-.24-1.83-.1-.52.12-1.37.17-1.25,1.03.02.16.83.15,1.23.32.98.42,2.1.72,2.86,1.41.53.48.66,1.5.75,2.31.12.95-.35,1.5-1.27,1.56-2.76.18-5.52.3-8.46.08.34-.36.67-.72,1.02-1.07,1.63-1.63,2.86-3.53,2.58-5.91-.15-1.31-.86-2.56-1.38-4.03,1.4-2.04,3.81-2.66,6.29-3.18,2.73-.57,5.39-.08,8.04.48.53.11,1.04.38,1.52.65.48.27.72.67.27,1.18-.52.6-.19,1.01.31,1.37.68.48,1.38.93,2.07,1.41,4.39,3.06,6.69,7.19,6.26,12.62-.1,1.22-.37,2.5-.9,3.6-1.55,3.22-3.8,5.98-6.22,8.58-.44.47-1.05.79-1.68,1.25Z"/>
    <path class="cls-2" d="M84.13,93.42c-.7,1.33-.17,2.06.17,2.76.6,1.21.54,2.37.06,3.58-3.14-.95-5.72-5.05-5.28-8.27.12-.07.23-.19.35-.2,3.63-.1,6.1-2.04,7.91-5,.68-1.12,1.28-2.28,2.08-3.73.54.98.96,1.74,1.38,2.5.13.24.22.52.4.73,1.74,2.04,1.98,4.22,1.14,6.79-.7,2.15-.14,4.44.41,6.59.73,2.86.93,5.75,1.08,8.67.02.45.11.91.16,1.36.26-.04.49-.04.5-.08.51-2.37,2.19-3.81,4.13-4.94,2.19-1.27,4.1-2.82,5.76-4.74,1.22-1.41,2.06-2.94,2.5-4.73.27-1.07.61-2.11,1.03-3.57.35.67.49,1.01.7,1.31.26.38.5.88.87,1.06,1.5.74,2.03,2.22,2.82,3.5.13.22-.02.63-.08.94-.02.12-.16.24-.27.31-3.46,2.03-4.94,5.75-7.36,8.67-2.76,3.33-5.53,6.62-8.98,9.26-.83.63-1.69,1.24-2.6,1.72-1.58.83-2.52.59-3.63-.77-2.93-3.6-4.17-7.82-4.36-12.37-.07-1.66.05-3.35.32-4.98.25-1.49.35-2.87-.44-4.24-.3-.52-.42-1.14-.77-2.13Z"/>
    <path class="cls-12" d="M109.26,65.91c1.76-1.5,3.82-1.62,5.87-1.28,4.76.79,9.29,2.27,13.55,4.58,2.56,1.4,5.16,2.7,7.47,4.53,4.18,3.31,7.49,7.25,9.33,12.3,1,2.74,1.88,5.52,2.77,8.29.21.64.24,1.34.42,2.48-1.17-1.12-2.19-1.38-3.16-.55-.7.6-.76-.77-1.4-.27-.07.94.04,2.02-.27,2.96-.3.92-1.7,1.14-1.92,2.6.87-.57,1.56-1.02,2.29-1.49.88,1.02.5,2.07.38,3.06-.02.18-.4.32-.63.45-.6.34-1.2.66-1.93,1.06-.7-.34-.82-1.02-.73-1.83.39-3.65-.2-7.22-1.05-10.74-1.29-5.34-3.47-10.31-7.1-14.47-2.95-3.38-6.37-6.22-10.93-7.25-.95-.21-1.86-.57-2.8-.81-.88-.22-1.7-.33-1.86-1.55-.05-.42-.83-.95-1.36-1.07-1.75-.39-3.54-.62-5.32-.89-.53-.08-1.08-.09-1.62-.13Z"/>
    <path class="cls-11" d="M106.7,71.42c-.41-.37-.71-.66-1.03-.92-.78-.64-1.65-.8-2.5-.23-.92.62-1.8.47-2.76.15-1.04-.35-2.1-.72-3.25-.37-.33.1-.94,0-1.07-.21-.15-.26.03-.76.14-1.13.07-.23.27-.42.66-1-1.31.52-2.2,1.03-3.14,1.21-.99.18-2.04.04-3.55.04.67.45,1.01.61,1.26.86.17.17.38.52.32.67-.58,1.33-.71,2.97-2.45,3.68-.33-.41-.6-.9-1-1.24-1.78-1.5-1.33-3.75-.33-5.54.51-.91,1.05-1.8,1.63-2.66,1.46-2.18,3.66-3.19,6.13-3.51,1.85-.23,3.76-.26,5.61-.06,2.79.3,4.72,1.82,5.49,4.64.16.59.41,1.19.75,1.7,1.23,1.82,1.14,2.33-.89,3.92Z"/>
    <path class="cls-11" d="M79.89,74.37c.31.57.53.99.81,1.5.16-.23.37-.39.36-.54-.03-.41-.11-.83-.24-1.22-.44-1.35-.25-2.59.62-3.85.75.33.57,1.68,1.83,1.53.21-1.59-.24-3.45,1.18-4.75.26-.24.69-.3,1.04-.44.09.26.21.41.17.5-.78,1.9-.59,3.6.74,5.26,1.03,1.28,2.23,2.56,2.23,4.37,0,1.18-.2,2.36-.15,3.54.13,3.11-1.48,5.44-3.35,7.61-1.2,1.38-2.72,2.27-4.67,2.48-3.2.34-5.08-1.43-6.62-3.81-.33-.51-.31-1.26-.2-1.98.9,1.04,1.75,2.12,2.72,3.09,1.29,1.31,2.66,1.49,4.09.33,2.41-1.96,3.52-4,2.66-7.32-.04-.16-.23-.29-.38-.48-1,.9.19,2.06-.45,2.94-3.58-1.39-4.98-6.49-2.39-8.74Z"/>
    <path class="cls-10" d="M74.4,88.95c1.07.69,2.18,1.34,3.22,2.11.27.2.38.72.41,1.11.32,3.42,2.09,5.97,4.79,7.91,1,.72,1.48,1.48,1.39,2.74-.11,1.57-.03,3.16-.03,4.76-.09.05-.21.18-.32.18-3.35-.22-6.33-1.4-8.9-3.55-.41-.34-.75-.83-.95-1.33-.77-1.86-1.47-3.74-2.18-5.62-.62-1.65-.62-3.17.58-4.68.84-1.06,1.32-2.4,1.97-3.62Z"/>
    <path class="cls-2" d="M93.02,73.35c-.4-.28-.76-.53-1.12-.78.3-.34.56-.72.91-1,.59-.46,1.73-1.46,1.88-1.75.77,1.35.77,1.37,2.28,1.05,1.12-.24,2.21-.17,3.27.27,1.07.44,2.04.54,3.17-.09,1.36-.76,2.09-.14,1.9,1.39-.07.55-.21,1.1-.2,1.65,0,.85-.34,1.46-1.01,1.93-1.07.75-1.69,1.82-2.17,3q-.66,1.6-2.43,1.01c-.15,1.48-1.21,1.61-2.91,1.26.69.69,1,.99,1.3,1.29-.33.25-.67.47-.96.75-1.29,1.23-1.36,1.28-2.66.04-1.09-1.04-2.07-2.2-3.23-3.45-.13.34-.18.65-.35.89-.18.25-.47.43-.89.8,0-2.23-.08-4.21.04-6.19.05-.79.74-1.45,1.64-1.18.3.09.36,1,.68,2.03.4-1.32.64-2.14.88-2.93ZM98.63,74.52c.46,1.24.92,2.16,2.17,2.48-.13-1.16-.09-1.32.44-2.28-.79-.06-1.55-.12-2.61-.19ZM99.61,73.46c.43.2.61.3.8.37.98.32,2.37,1.04,2.94,1.51.04.03.22-.1.34-.16q-.98-2.3-4.09-1.72Z"/>
    <path class="cls-6" d="M99.05,114.38c2.48,2.1,5.08,3.79,8.07,5.03v8.36c-.44-.03-.82.05-1.1-.08-3.89-1.95-7.46-4.28-9.67-8.2-.14-.24-.29-.48-.41-.72-.59-1.22-.57-1.33.53-2.28.79-.68,1.6-1.31,2.57-2.1Z"/>
    <path class="cls-2" d="M81.7,54.63c-.02,1.52-.49,2.41-1.83,2.88-2.26.79-2.86,2.16-1.98,4.37.28.69.73,1.34,1.23,1.9.71.8,1.6,1.44,2.75.9,1.19-.56,2.03-1.5,2.26-2.82.17-.94-.64-1.61-1.57-1.34-.52.15-1,.46-1.55.73-.57-.65-.83-1.28.07-1.88,1.26-.84,2.54-1.65,3.76-2.44,2.68,2.2,1.86,7.03-.6,8.42-2.95,1.67-5.72,1.36-8.17-1.35-1.79-1.97-1.9-5.5-.17-7.73,1.46-1.86,3.44-2.12,5.8-1.65Z"/>
    <path class="cls-2" d="M85.34,111.6c-1.5.68-3.01,1.2-4.34,2.02-1.28.79-2.38,1.88-3.55,2.84-1.75-1.82-2.84-5.05-2.62-7.34.11-1.15.02-2.32.02-3.67.71.39,1.24.7,1.78.97,2.17,1.11,4.44,1.98,6.88,2.24.96.1,1.34.54,1.5,1.38.1.54.24,1.07.34,1.55Z"/>
    <path class="cls-5" d="M111.92,107.97c3.58,2.17,6.47,1.55,9.24-.84.47.51.93.99,1.43,1.53-.37,1.22-1.26,1.99-2.07,2.84-.35.36-.76.72,0,1.13.08.04,0,.69-.17.85-.77.68-1.54,1.43-2.44,1.9-1.53.8-3.08,1.61-4.87,1.73-.25.02-.48.22-.78.36.15.24.29.39.35.57.04.15,0,.46-.05.47-.19.04-.5.06-.57-.05-.5-.74-.15-1.79.65-2.01.4-.11.82-.1,1.24-.16,1.67-.24,2.79-.82,4.32-2.34-.49,0-.79-.07-1.04.01-1.25.4-2.48.92-3.75,1.25-1.28.34-1.66.02-1.65-1.31,0-1.86.1-3.72.17-5.93Z"/>
    <path class="cls-2" d="M94.42,49.93c-.78.27-1.6.46-2.32.84-.44.23-.9.71-1.04,1.17-.39,1.23.36,1.92,1.57,1.51.72-.24,1.4-.6,2.32-1,.2.59.41,1.06.5,1.56.11.53-.11.95-.69,1.11-.4.11-.78.29-1.19.38-.86.18-1.13.7-.96,1.52.2.95.62,1.34,1.6,1.19.74-.11,1.44-.5,2.18-.63.3-.05.8.16.98.42.27.39.38,1.04-.21,1.25-1.5.52-3.02.97-4.56,1.36-.6.15-1.02-.23-1.24-.85-1-2.81-2.07-5.61-3.05-8.43-.44-1.26-.25-1.59,1.01-2.03.98-.34,2-.56,3.01-.82q1.67-.44,2.07,1.45Z"/>
    <path class="cls-6" d="M71.88,114.74c-2.09-6.04-2.23-11.73-1.18-17.51,1.55,3.04,2.92,6.12,3.38,9.5.19,1.36.22,2.75-.83,3.93-.32.36-.28,1.04-.45,1.56-.24.72-.52,1.42-.93,2.52Z"/>
    <path class="cls-9" d="M124.51,125.91c-.35.82.18,1.93-.94,2.44-.78-.39-1.61-.81-2.57-1.29,2.93-2.11,6.03-4,7.67-7.71.4.84.67,1.42.96,2.02-.52.6-1,1.16-1.57,1.82.48.19.82.33,1.14.46-.16,1.26-1.46.58-2,1.31.09.13.18.38.3.4.71.13,1.2.43.98,1.25-.18.68-.45,1.35-1.25,1.48-.82.13-1.75-.38-1.96-1-.09-.26-.1-.55-.23-.79-.09-.16-.32-.23-.53-.38Z"/>
    <path class="cls-5" d="M105.59,107.02c1.34,1.7,1.47,2.81,1.01,7.48-2.22.33-3.63-1.09-5.31-2.4,1.45-1.71,2.81-3.32,4.29-5.08Z"/>
    <path class="cls-9" d="M80.42,116.14c-.08.94-.11,1.75-.25,2.53-.05.28-.33.65-.58.72-.27.08-.7-.06-.93-.25-.72-.64-.86-1.58-.26-2.2,1.45-1.5,2.96-2.95,4.99-3.68,2.45-.88,2.98-.18,3.37,1.82-1.18.88-1.77-.85-2.92-.64-.03.46-.03.93-.11,1.39-.17.9-.81,1.28-1.68,1.01-.26-.08-.47-.29-.73-.4-.24-.11-.49-.17-.92-.31Z"/>
    <path class="cls-2" d="M78.1,80.49c.33.25.47.31.55.42,1.75,2.42,2.11,1.75.36,4.37-.49.73-.79,1.58-1.24,2.49-.46-.38-.85-.65-1.18-.97-1.78-1.75-1.79-1.87-.28-3.94.56-.78,1.16-1.53,1.8-2.37Z"/>
    <path class="cls-6" d="M93.73,92.38c-.08-1.63.04-2.83-.23-3.92-.26-1.03-.93-1.96-1.45-2.99,2.11.18,4.19.35,6.43.54-.88.92-1.84,1.76-2.6,2.75-.74.98-1.27,2.12-2.15,3.62Z"/>
    <path class="cls-9" d="M130.53,123.73c-.11-1.44.37-2.53,1.46-3.48.93-.8,1.65-1.83,2.6-2.91.4,1.12.12,1.87-.58,2.38-.58.42-1.29.64-2.01.98.26.28.34.45.43.45.56.02,1.31-.43,1.47.57.13.88-.76,2.11-1.57,2.14-.6.03-1.21-.08-1.8-.12Z"/>
    <path class="cls-10" d="M94.6,103.28c-1.26-3.89-1.76-7.13-1.38-9.3.78,1.61,1.59,2.97,2.1,4.43.58,1.65.6,3.35-.73,4.88Z"/>
    <path class="cls-9" d="M121.29,135.74c-.68-.5-1.29-.94-1.79-1.31.42-2.15,1.99-2.35,3.66-2.29.36.01.98.26,1.02.48.06.4-.08,1-.37,1.27-.76.69-1.65,1.24-2.51,1.85Z"/>
    <path class="cls-5" d="M107.06,117.73c-.22.12-.5.33-.82.42-.15.04-.39-.11-.56-.22-1.73-1.12-3.47-2.23-5.17-3.39-.35-.24-.95-.56-.45-1.13.47-.53.86,0,1.24.24.75.48,1.48,1.01,2.27,1.44.83.46,1.68.91,2.58,1.21.67.22.82.64.91,1.43Z"/>
    <path class="cls-9" d="M147.88,100.88c-.81.24-1.4.42-2.01.6-.2-.51-.39-1.02-.6-1.53-.41-1-.12-2.28.69-2.97.64-.55,1.44-.36,1.58.48.19,1.09.22,2.2.33,3.43Z"/>
    <path class="cls-9" d="M146.44,105.98c-.68-1.21-1.08-2.37-.03-3.48.3-.32.8-.6,1.22-.61.58-.01,1,.43,1.13,1.04.06.27.1.55.11.82.06,1.35-.29,1.79-1.65,2.08-.26.06-.52.1-.78.15Z"/>
    <path class="cls-6" d="M83.25,61.02c-.14.77-.09,1.19-.28,1.45-.36.5-.78,1-1.29,1.31-.7.42-1.41.07-1.82-.53-.53-.78-1.1-1.63-1.32-2.53-.33-1.37.18-1.89,1.94-2.4-.36.61-.89,1.13-.94,1.69-.05.55.3,1.19.6,1.73.49.85.87.89,1.65.33.37-.26.74-.53,1.46-1.05Z"/>
    <path class="cls-9" d="M145.43,107.08c-.86.79-1.6,1.45-2.33,2.12-1.31-1.4-1.03-3.55.65-4.46.52-.28,1.1-.07,1.3.56.2.64.29,1.32.38,1.78Z"/>
    <path class="cls-9" d="M81.47,117.91c.48,0,.82.03,1.16,0,.62-.06,1.2-.17,1.61.54.46.78.55,1.56.25,2.37-.18.48-.58.72-1.16.61-1.66-.3-2.21-1.25-1.86-3.51Z"/>
    <path class="cls-9" d="M82.42,122.27c2.09.27,2.52.58,2.81,2.29.07.4-.11.98-.39,1.27-.42.43-1,.36-1.52-.02-1.32-.95-1.54-1.74-.91-3.54Z"/>
    <path class="cls-6" d="M119.69,106.77c-1.76,2.1-4.56,2.39-6.36.68,2.15-.7,4.3-.28,6.36-.68Z"/>
    <path class="cls-9" d="M122.24,131.03c.84-1.78,2.4-1.8,3.77-2.13.5-.12.82.35.66.79-.2.57-.54,1.11-.92,1.59-.44.55-.98.21-1.52.06-.59-.17-1.22-.19-1.99-.3Z"/>
    <path class="cls-9" d="M134.83,122.81c.15-1.03.04-1.9.42-2.43.39-.56,1.21-.87,1.9-1.14.55-.22,1.11.27.89.73-.43.93-.92,1.85-1.54,2.65-.2.25-.89.12-1.66.19Z"/>
    <path class="cls-9" d="M127.35,131.21c.62-1.97,1.26-2.5,2.66-2.44.78.04,1.2.55.83,1.25-.34.64-.87,1.34-1.49,1.61-.47.2-1.22-.23-1.99-.42Z"/>
    <path class="cls-9" d="M91.43,129.4c.16-.06.35-.14.54-.2,1.61-.5,2.02-.31,2.4,1.33.09.4,0,.98-.23,1.28-.16.2-.81.2-1.13.04-.98-.47-2.01-.99-1.57-2.46Z"/>
    <path class="cls-9" d="M89.81,125.75c.54-.07.81-.1,1.08-.14,1.35-.19,1.75.02,1.99,1.03.18.77-.16,1.37-.9,1.58-.96.27-1.85-.27-2.15-1.37-.08-.31-.01-.66-.01-1.1Z"/>
    <path class="cls-9" d="M116.61,135.37c-1.05.59-1.67.99-2.33,1.29-.57.26-1.4-.11-1.42-.72-.02-.63.19-1.34.53-1.86.16-.25.94-.32,1.31-.16.58.26,1.05.77,1.92,1.45Z"/>
    <path class="cls-9" d="M88.18,122.07c-.05.89-.58,1.42-1.13,1.19-.58-.24-1.24-.68-1.5-1.21-.22-.45,0-1.19.19-1.75.16-.46,1.33-.49,1.63-.01.39.62.62,1.35.81,1.78Z"/>
    <path class="cls-9" d="M120.36,131.34c-.78-.5-1.35-.86-1.92-1.22.77-1.73,1.35-2.09,2.93-1.78.73.14.99.58.58,1.17-.43.61-.97,1.14-1.58,1.83Z"/>
    <path class="cls-9" d="M129.36,127.81c.09-.75.11-1.36.26-1.94.07-.29.32-.67.56-.75.54-.17,1.2-.74,1.69-.13.3.37.47,1.07.33,1.5-.17.51-.66,1.04-1.14,1.28-.44.21-1.06.04-1.7.04Z"/>
    <path class="cls-9" d="M99.19,135.25c-.9-.03-1.77-.71-1.78-1.39,0-.48,1.01-1.41,1.54-1.4.8,0,1.86.9,1.9,1.61.04.59-.83,1.21-1.67,1.18Z"/>
    <path class="cls-9" d="M115.75,133.06c.29-.45.5-1.07.92-1.33.47-.29,1.14-.37,1.71-.33.26.02.62.53.7.87.14.68-.24,1.15-.87,1.46-1.05.51-1.29.46-2.45-.68Z"/>
    <path class="cls-9" d="M139.94,112.13c-1.21-.98-.78-2.08-.13-3.09.21-.33.75-.54,1.17-.61.14-.02.48.6.53.96.25,1.65-.12,2.25-1.58,2.74Z"/>
    <path class="cls-9" d="M147.13,111.35c-.15-.44-.2-.96-.47-1.31-.92-1.19-.08-2.03.51-2.9.14-.2.64-.35.87-.26.23.09.5.55.45.79-.24,1.25-.57,2.48-.88,3.71-.16,0-.32-.02-.48-.03Z"/>
    <path class="cls-9" d="M96.4,134.38c.03.97-.94,1.79-1.79,1.1-.11-.08-.25-.12-.36-.2-.75-.47-1.18-1.36-.74-1.86.29-.34.94-.51,1.42-.51.75,0,1.44.8,1.47,1.47Z"/>
    <path class="cls-9" d="M101.89,134.78c.14-.88-.58-1.65.3-2.25.48-.33,1.47-.16,2.01.5.26.31.47.96.31,1.25-.55,1.04-1.52.57-2.63.51Z"/>
    <path class="cls-9" d="M115.79,137.14c.45-.4.96-.75,1.34-1.21.48-.6,1.1-.59,1.67-.43.47.13,1.13.5,1.21.86.17.79-.67.67-1.14.76-.99.18-2,.28-3,.41-.03-.13-.05-.26-.08-.39Z"/>
    <path class="cls-9" d="M86.46,124.2c.74.11,1.32.08,1.78.3.55.27.79,1.58.47,2.28-.11.23-.52.49-.76.47-.67-.06-1.68-1.02-1.71-1.58-.02-.4.12-.8.23-1.47Z"/>
    <path class="cls-9" d="M138.45,116.08c-.11.37-.25.98-.49,1.55-.23.54-1.39.8-1.8.47-.35-.28-.52-1.38-.17-1.72.44-.43.96-.8,1.49-1.11.53-.31.96-.03.98.81Z"/>
    <path class="cls-9" d="M103.92,136.85c-1.24.57-2.37.75-3.52.41-.22-.07-.33-.55-.48-.83,1.68-1.14,2.45-1.08,4.01.41Z"/>
    <path class="cls-9" d="M96.86,132.67c-.5-.44-.93-.73-1.25-1.11-.15-.18-.14-.52-.15-.79-.02-.51-.2-1.31.04-1.46.62-.4,1.18.15,1.51.65.32.48.54,1.08.61,1.64.03.27-.39.59-.75,1.07Z"/>
    <path class="cls-9" d="M88.71,117.85c.53.46,1.08.85,1.54,1.34.5.54.44,1.53-.04,1.85-.45.3-1.11,0-1.51-.68-.58-1.01-.59-1.38.01-2.5Z"/>
    <path class="cls-9" d="M90.66,130.76c-.24.1-.48.22-.74.31-1,.33-2.28-.78-2.09-1.81.09-.49.26-1,.85-.96.33.02.74.26.95.53.36.48.58,1.05,1.03,1.93Z"/>
    <path class="cls-2" d="M79.01,126.81c1.14,1.59,2.28,3.18,3.42,4.76-1.79-.71-2.8-2.15-3.78-3.6-.16-.24-.02-.69-.02-1.05.13-.04.25-.07.38-.11Z"/>
    <path class="cls-9" d="M115.6,131.85c-.92.28-1.61.64-2.32.67-.44.02-.94-.41-1.33-.74-.09-.08.11-.79.26-.82,1.11-.26,2.31-.75,3.38.89Z"/>
    <path class="cls-9" d="M102.67,129.87c1.47-.63,2.05-.57,2.58.35.15.26.21.7.08.94-.12.23-.53.42-.82.44-.95.05-1.4-.41-1.83-1.72Z"/>
    <path class="cls-9" d="M84.66,116.18c.74.06,1.15.11,1.56.13.58.03.88.35.96.9.09.63.16,1.36-.53,1.64-.73.3-1.12-.35-1.39-.9-.24-.48-.36-1.02-.6-1.77Z"/>
    <path class="cls-9" d="M90.09,122.09c.89.04,1.72.98,1.53,1.74-.09.37-.57.82-.94.89-.7.14-1.47-.84-1.45-1.66.02-.68.35-1.01.86-.97Z"/>
    <path class="cls-9" d="M98.29,130.83c.99-.44,1.41-.65,1.85-.81.83-.31,1.45.04,1.61.89.12.61-.32,1.18-.9,1.02-.74-.21-1.43-.6-2.57-1.1Z"/>
    <path class="cls-2" d="M78.96,87.75c.21-1.53.92-2.49,1.69-3.41.77.31.7.92.57,1.42-.26.99-.93,1.64-2.26,1.99Z"/>
    <path class="cls-9" d="M99.64,128.88c-.19.15-.45.51-.76.57-.88.16-1.74-.65-1.67-1.58.02-.25.32-.65.55-.69.77-.15,1.82.75,1.89,1.71Z"/>
    <path class="cls-9" d="M99.31,124.82c.23.04.37.03.48.09.66.36,1.34.71,1.47,1.55.02.14-.15.39-.3.47-.55.28-1.64-.11-2.16-.79-.14-.19-.25-.56-.16-.74.14-.26.47-.42.67-.59Z"/>
    <path class="cls-5" d="M94.03,84.81c-1.49-.27-2.81-.49-3.44-2.01,1.46-.42,1.73-.26,3.44,2.01Z"/>
    <path class="cls-9" d="M141.35,113.08c-.29,1.26-.93,2.22-1.51,3.5-.77-2.59-.63-2.88,1.51-3.5Z"/>
    <path class="cls-9" d="M114.66,129.54c1.06-.87,2.09-.99,3.21-1.1-.82,1.96-1.4,2.18-3.21,1.1Z"/>
    <path class="cls-9" d="M94.31,121.91c.81-.07,1.33-.21,1.83-.13.33.05.8.37.85.64.06.33-.16.86-.43,1.05-.21.15-.77.01-1.04-.19-.41-.3-.69-.76-1.21-1.37Z"/>
    <path class="cls-9" d="M133.99,126.68c-1.04-1.73-.65-2.31,1.76-2.79-.34,1.15-1.08,1.9-1.76,2.79Z"/>
    <path class="cls-9" d="M128.29,132.66c-1.35.88-2.36,1.54-3.55,2.32,1.06-2.83,1.16-2.9,3.55-2.32Z"/>
    <path class="cls-2" d="M99.56,86.58c-1.21,1.41-2.43,2.82-3.66,4.25.2-1.47.81-2.21,3.66-4.25Z"/>
    <path class="cls-9" d="M96,127.58c-.21.14-.5.5-.79.5-.73.02-1.4-.6-1.19-1.05.16-.33.66-.61,1.05-.68.74-.13.86.46.92,1.23Z"/>
    <path class="cls-9" d="M100.76,128.3c.65-.44,1.14-.78,1.65-1.12.56.38,1.02.81.54,1.51-.39.57-.98.46-2.19-.39Z"/>
    <path class="cls-9" d="M92.41,123.89c.9-.13,1.38-.3,1.8-.22.24.05.52.48.58.78.06.27-.07.66-.26.88-.11.13-.57.13-.73,0-.41-.32-.74-.75-1.39-1.44Z"/>
    <path class="cls-9" d="M92.67,122.87c-.25-.41-.49-.84-.75-1.24-.27-.42-.58-.99.02-1.18.37-.12,1.12.2,1.36.55.24.35.05.99.05,1.5-.23.12-.46.25-.69.37Z"/>
    <path class="cls-9" d="M107.12,131.52c-.06.51-.08,1.04-.2,1.54-.11.47-.5.68-.94.44-.47-.25-.65-.66-.27-1.17.28-.38.51-.79.76-1.18.22.13.44.25.66.38Z"/>
    <path class="cls-2" d="M73.24,114.68v3.32c-1.11-1.37-1.14-1.73,0-3.32Z"/>
    <path class="cls-9" d="M84.57,126.98c1.47-.08,1.67.09,2.36,2.08-1.08-.49-1.72-1.21-2.36-2.08Z"/>
    <path class="cls-2" d="M124.42,105.9c.14-.68.28-1.36.43-2.07.87.24,1.17.74,1.03,1.41-.13.61-.59.85-1.45.67Z"/>
    <path class="cls-9" d="M79.57,120.43q1.33.76,1.45,2.22c-.92-.67-.94-.66-1.45-2.22Z"/>
    <path class="cls-5" d="M122.2,99.12q1.14,1,1.06,2.24c-.85-.58-.86-.58-1.06-2.24Z"/>
    <path class="cls-2" d="M104.13,83.48c-1.06.64-1.78,1.08-2.56,1.56q.38-1.04,2.56-1.56Z"/>
    <path class="cls-9" d="M96.82,136.17c.94-.49,1.54.02,2.29.71-1.08.44-1.65-.28-2.29-.71Z"/>
    <path class="cls-9" d="M92.21,133.73c-.52-.41-1.06-.81-1.55-1.26-.09-.08-.1-.43-.01-.52.11-.11.45-.17.53-.09.48.47.91.98,1.36,1.48-.11.13-.22.25-.33.38Z"/>
    <path class="cls-9" d="M106.17,134.61c.21.96-.25,1.37-.75,1.72-.11.08-.41.05-.51-.05-.12-.11-.22-.39-.16-.53.24-.58.65-.98,1.42-1.14Z"/>
    <path class="cls-9" d="M97.55,126.38c-.75-.63-1.12-.94-1.6-1.35q1.26-.24,1.6,1.35Z"/>
    <path class="cls-9" d="M106.6,130.31c-.14-.38-.29-.76-.43-1.14.24-.08.48-.15.71-.23.11.4.21.8.32,1.2-.2.05-.4.11-.6.16Z"/>
    <path class="cls-9" d="M94.14,119.78c.82-.32,1.33-.19,1.57.54.03.09-.05.27-.13.33-.32.25-.58.09-1.44-.88Z"/>
    <path class="cls-9" d="M137.25,113.8c.36-.57.65-1.04,1.09-1.74q.05,1.63-1.09,1.74Z"/>
    <path class="cls-6" d="M138.76,127.21c.39-.55.78-1.1,1.29-1.8q-.17,1.08-1.29,1.8Z"/>
    <path class="cls-9" d="M113.4,129.52l-1.19.33c-.03-.11-.05-.22-.08-.33.4-.09.81-.17,1.21-.26.02.09.04.17.06.26Z"/>
    <path class="cls-5" d="M134.35,89.07c.36.34.72.68,1.08,1.02-.1.08-.2.17-.3.25-.25-.43-.5-.86-.75-1.3,0,0-.03.03-.03.03Z"/>
    <path class="cls-5" d="M134.77,84.48l1.04,1.01c-.1.08-.2.15-.29.23-.24-.42-.48-.85-.72-1.27l-.03.03Z"/>
    <path class="cls-5" d="M134.03,90.66c.34.4.69.79,1.03,1.19-.75-.01-.95-.55-1.16-1.06l.13-.12Z"/>
    <path class="cls-6" d="M146.79,113.87c-.15.35-.29.7-.44,1.05-.08-.02-.16-.05-.24-.07.08-.38.17-.77.25-1.15.14.06.28.12.42.17Z"/>
    <path class="cls-2" d="M124.44,159.51c-.28-.74-.64-1.42-.81-2.15-.35-1.48-.6-2.99-.92-4.49-.15-.73.05-1.23.77-1.47.85-.29,1.7-.59,2.57-.82.18-.05.56.16.63.33.07.18-.07.55-.23.68-.32.25-.78.32-1.1.58-.23.19-.48.62-.41.83.12.33.46.71.78.81.44.14.96,0,1.44.05.16.02.43.21.44.34,0,.23-.07.58-.23.69-.34.23-.81.27-1.13.5-.29.2-.7.74-.63.84.25.35.64.74,1.03.82.44.09.94-.19,1.42-.23.45-.04,1.1-.23,1.12.49,0,.28-.41.72-.73.85-1.22.47-2.48.84-4.02,1.35Z"/>
    <path class="cls-2" d="M117.49,158.04c.31-.66.55-.99.63-1.36.18-.88.25-1.78.44-2.66.28-1.32.36-1.35,2.18-1.19-.23.88-.43,1.73-.68,2.57-.4,1.32-.81,2.64-1.25,3.95-.13.38-.31.83-.61,1.02-.27.17-.96.17-1.07,0-1.41-2.18-2.76-4.41-4.13-6.66.78-.41,1.35-.27,1.79.44.4.65.8,1.3,1.23,1.92.42.6.88,1.17,1.49,1.96Z"/>
    <path class="cls-2" d="M110.91,157.39c0,.97,0,1.94,0,2.91,0,.73-.4.94-1.06.94-.61,0-.92-.28-.88-.87.13-2.08.27-4.15.42-6.22.04-.51.4-.79.85-.64.32.11.73.48.76.77.09,1.03.04,2.07.04,3.11h-.12Z"/>
    <path class="cls-2" d="M54.72,96.37c.61.99,1.21,1.72.4,2.88-.69.99-.28,2.15.26,3.17,1.06,1.97,4.18,2.73,6.02,1.47,1.57-1.07,1.69-3.95.23-5.14-.83-.68-1.54-.45-1.86.59q-.39,1.26-1.8,1.5c-.32-1.6-.1-3.13.43-4.66.19-.55.48-.76,1.03-.82,2.92-.34,5.53,1.99,5.49,4.92-.07,4.49-4.23,7.65-8.64,6.56-1.96-.49-3.54-2.24-3.79-4.27-.29-2.38.13-4.53,2.24-6.21Z"/>
    <path class="cls-6" d="M56.65,99.04c.07.62.09,1.25.22,1.86.06.3.33.79.51.79.96.01,1.92-.07,2.87-.2.16-.02.33-.43.38-.68.09-.39.08-.8.12-1.25,1.36,1.09,1.31,2.89-.05,3.71-1.88,1.13-4.72-.32-4.91-2.5-.07-.76.14-1.38.89-1.7l-.03-.03Z"/>
    <path class="cls-2" d="M71.46,77.8c-1.14,1.74-1.11,1.69-2.72.79-2.95-1.64-5.32-3.96-7.68-6.37.8-1.19,1.77-1.85,3.14-1.86,1.87,0,3.75-.34,5.58.29.25.09.57.12.82.05.29-.08.61-.26.78-.49.07-.09-.14-.52-.33-.67-1.02-.83-2.08-1.62-3.12-2.43-.27-.21-.55-.43-.79-.68-.48-.48-1.15-.94-.45-1.73.63-.71,1.02-.85,1.92-.1,1.75,1.47,3.57,2.87,5.36,4.29.54.43,1.1.84,1.63,1.29.41.35,1.03.68.68,1.34-.34.64-.59,1.55-1.5,1.56-1.73.02-3.45-.08-5.18-.16-.73-.03-1.47-.15-2.5-.26.88,2.43,2.98,3.37,4.36,5.12Z"/>
    <path class="cls-2" d="M147.3,69.48c1.47-.34,2.18-1.35,3.09-2.03.88-.66,1.68-1.42,2.64-2.24.61.67,1.16,1.27,1.85,2.03-2.96,2.68-5.83,5.28-8.67,7.84-2.14-1.35-2.17-1.39-1.74-3.52.37-1.84.79-3.67,1.16-5.5.06-.31,0-.64,0-1.19-2.05,1.2-3.77,2.43-5.41,4.12-.6-.48-1.16-.92-1.91-1.51,2.73-2.86,5.66-5.17,8.47-7.6.29.19.48.27.63.41,1.56,1.43,1.53,1.42,1.04,3.55-.41,1.81-.75,3.63-1.16,5.65Z"/>
    <path class="cls-2" d="M105.99,47.67c-.51-.09-1.03-.22-1.56-.28-.99-.12-1.65.35-1.81,1.26-.15.86.17,1.38,1.13,1.68.46.15.94.22,1.42.31,1.98.39,3.35,2.65,2.76,4.56-.04.13-.1.26-.17.38-1.11,1.9-4.65,2.78-6.53,1.62-.91-.56-.95-.89-.2-2.25.42.18.84.41,1.29.52.59.15,1.21.31,1.81.27.87-.05,1.43-.77,1.56-1.68.12-.84-.35-1.31-1.04-1.6-.89-.37-1.8-.73-2.71-1.04-1.2-.41-1.78-1.26-1.86-2.49-.07-1.21.37-2.18,1.44-2.8.97-.56,2-.95,3.15-.91,1.78.05,2.03.46,1.32,2.44Z"/>
    <path class="cls-2" d="M157.82,72.8c1.38,1.74,2.37,3.46,3.05,5.34q-1.57,1.06-2.46-.22c-.28-.4-.49-.95-.87-1.12-.43-.19-1.1-.18-1.51.04-.28.15-.46.85-.36,1.23.14.58.55,1.1.85,1.65.26.46.4.91-.18,1.25-.56.32-1.14.61-1.62-.12-.34-.52-.66-1.06-.99-1.58-.56-.89-1.03-.97-2.08-.39-.96.54-1.12.92-.68,1.83.37.74.79,1.46,1.25,2.3-.48.34-.91.64-1.49,1.04-.15-.24-.28-.41-.37-.59-.74-1.42-1.47-2.84-2.2-4.25-.57-1.09-.55-1.41.54-2.02,1.57-.88,3.21-1.65,4.83-2.43,1.37-.66,2.77-1.26,4.3-1.95Z"/>
    <path class="cls-2" d="M162.46,90.56c0-.81,0-1.49,0-2.17,0-.54-.2-1.04-.76-1.08-.42-.03-1.09.13-1.25.42-.42.77-.84,1.65-.89,2.51-.15,2.74-2.49,3.14-4.38,2.94-1.73-.19-2.88-1.85-2.74-3.83.02-.28.07-.55.11-.83.37-2.31.46-2.36,2.99-1.58-.28.62-.57,1.21-.82,1.82-.48,1.16-.25,1.83.71,2.21.87.34,1.85-.04,2.24-.97.23-.57.29-1.21.41-1.82.37-1.94,1.15-2.76,2.74-2.86,2.06-.14,3.26.59,3.83,2.43.28.9.39,1.85.63,3.05-1.08-.1-1.88-.17-2.82-.25Z"/>
    <path class="cls-2" d="M66.57,91.34c-.53.62-1,1.19-1.58,1.86-.96-.66-1.83-1.2-2.63-1.84-1.73-1.38-3.44-2.81-5.14-4.23-.42-.35-.83-.74-1.2-1.15-.45-.5-.62-1.07-.3-1.72.21-.44.39-.89.57-1.34.38-.95,1.05-1.42,2.09-1.36,2.91.18,5.81.32,8.72.53.65.05,1.48.1,1.49,1.08.01,1.02-.47,1.62-1.6,1.7-1.12.08-1.62.58-1.72,1.65-.03.34-.18.67-.26,1-.28,1.22-.28,2.36,1.01,3.08.16.09.25.32.54.74ZM60.39,83.99c-.44,0-.67-.06-.86.01-.29.11-.55.31-.83.48.17.28.28.62.52.82.7.56,1.45,1.07,2.19,1.59.47.34.86.3,1.24-.2,1.14-1.49.97-1.99-.87-2.38-.54-.12-1.08-.25-1.39-.32Z"/>
    <path class="cls-2" d="M118.55,53.86c-.25.83-.51,1.6-.73,2.38-.38,1.39-.37,1.4-1.82,1.39-.33,0-.66-.06-1.2-.12.04-.76,0-1.44.13-2.08.58-2.64,1.19-5.27,1.84-7.89.35-1.39.42-1.4,1.86-1.17,1.56.24,3.11.5,4.75.77-.05.53-.07.93-.14,1.33-.13.8-.69.98-1.39.86-.47-.08-.93-.27-1.41-.34-.87-.13-1.65.6-1.5,1.48.06.33.42.7.75.86.42.21.94.2,1.4.34.51.16,1.11.28,1.01,1.07-.11.83-.46,1.17-1.37,1.21-.34.01-.69-.03-1.04-.05-.34-.02-.67-.03-1.16-.05Z"/>
    <path class="cls-2" d="M157.61,97.92c-.27.7-.56,1.26-.71,1.85-.23.93.15,1.79.85,2.15.73.37,1.46.11,2.09-.81.35-.51.6-1.09.94-1.62.78-1.23,2-1.77,3.36-1.51,1.4.26,2.5,1.36,2.65,2.83.07.67-.05,1.38-.23,2.03-.26.95-.37.95-1.82.59.08-.65.22-1.31.23-1.97.01-.74-.25-1.39-1.09-1.54-.74-.14-1.16.32-1.45.93-.33.69-.64,1.38-.96,2.07-1.13,2.39-5.19,2.45-6.21-.12-.4-1.01-.72-2.11-.75-3.18-.06-2.08.82-2.55,3.1-1.69Z"/>
    <path class="cls-2" d="M140.41,57.56c-2.27-.8-2.26-.8-3.46,1.51-.67,1.29-1.35,2.58-2.08,3.84-.82,1.41-.99,1.44-2.47.74-.25-.12-.47-.28-.86-.52.26-.56.47-1.12.76-1.63.97-1.68,1.98-3.34,2.96-5.02.7-1.2.68-1.21-.37-2.17-.61-.55-.59-.94,0-1.75.47-.64.94-.66,1.58-.21,1.13.79,2.3,1.54,3.48,2.27,1.79,1.11,1.81,1.18.46,2.95Z"/>
    <path class="cls-2" d="M134.85,154.12c.63-.34,1.2-.57,1.69-.93.6-.43.97-1.06.67-1.81-.31-.78-.98-.87-1.74-.68-.54.13-1.09.27-1.64.29-1.14.03-1.96-.94-1.8-2.05.18-1.23,1.34-2.49,2.56-2.73.15-.03.43.09.49.21.07.15.04.45-.08.56-.25.23-.57.38-.87.56-.72.44-.8,1.1-.55,1.81.23.65.92.88,1.76.62.26-.08.52-.21.75-.36.78-.51,1.47-.28,2.07.3.64.63.94,1.39.52,2.27-.51,1.09-1.18,2.04-2.32,2.57-.6.28-1.07.21-1.51-.63Z"/>
    <path class="cls-2" d="M66.36,139.96c2.11-1.73,4.03-3.32,6.01-4.94,1.17.53,1.84,1.51,2.44,2.5.15.25.08.82-.12,1.07-.32.41-.74.21-1.03-.18-.17-.22-.33-.45-.51-.66-.35-.42-.76-.64-1.25-.22-.49.42-.93.9-.48,1.6.19.29.49.51.64.82.09.19.07.62-.06.69-.19.12-.54.09-.76,0-.24-.1-.43-.35-.61-.55-.47-.53-.98-.83-1.57-.19-.51.56-.76,1.14-.18,1.85.32.38,1.16.8.58,1.3-.68.6-1.05-.34-1.41-.75-.58-.67-1.06-1.44-1.69-2.34Z"/>
    <path class="cls-2" d="M147.67,145.83c-.46.62-.64,1.47-1.72.8-.23-.14-.78.04-1.07.23-.4.26-.67.7-1.04,1.01-.57.48-1.01.96-.62,1.77.3.62-.1.99-.6,1.03-.28.03-.77-.33-.88-.61-.79-2.07-1.51-4.17-2.23-6.27-.17-.49-.09-.97.41-1.27.41-.24.83-.47,1.19-.68,2.2,1.34,4.31,2.63,6.54,3.98ZM142.02,146.89q1.72-.46,2.55-1.66c-.91-.49-1.78-1.03-2.71-1.44-.44-.2-.88.1-.74.62.23.85.6,1.66.9,2.48Z"/>
    <path class="cls-2" d="M126.48,60.31c-2.78-.39-2.87-.47-1.95-2.88.94-2.46,1.95-4.9,2.98-7.32.54-1.26,1.95-1.42,2.75-.34.16.22.17.67.07.95-1.11,3.27-2.1,6.6-3.85,9.59Z"/>
    <path class="cls-2" d="M155.4,125.55c-.56-.85-1.08-1.63-1.67-2.51.28-.46.6-.96,1.09-1.75.52.93.99,1.6,1.29,2.34.63,1.54,1.68,2.48,3.35,2.74.47.07.91.32,1.41.51.04.71-.12,1.45-.92,1.22-2.49-.74-4.98-.99-7.56-.16q.19-1.64,3.01-2.38Z"/>
    <path class="cls-2" d="M90.25,150.84c-.94,2-1.85,3.91-2.79,5.9-.79-.3-1.41-.53-2.21-.83.33-.67.58-1.21.87-1.74.54-.97,1.08-1.93,1.65-2.88.49-.81.68-1.51-.39-2.03-.39-.19-.56-.56-.28-1.04.29-.48.64-.77,1.18-.52,1.25.59,2.5,1.19,3.69,1.87.26.15.49.68.43.99-.1.56-.57.71-1.13.51-.31-.11-.63-.15-1.03-.24Z"/>
    <path class="cls-2" d="M79.49,144.19c-1.24,1.24-1.25,1.25-.11,2.34.32.31.69.64.25,1.01-.23.19-.71.11-1.08.1-.11,0-.22-.16-.34-.23q-1.17-.69-2.02.24c-.19.2-.32.5-.55.61-.25.12-.7.2-.85.06-.18-.16-.28-.67-.16-.86.57-.87,1.24-1.67,1.86-2.51.54-.72,1.05-1.47,1.6-2.19.63-.83.83-.87,1.69-.21.66.51,1.28,1.07,1.86,1.66.2.2.21.59.31.89-.37-.01-.79.07-1.11-.06-.49-.21-.92-.58-1.36-.87Z"/>
    <path class="cls-2" d="M156.49,135.2c-.43.7-.71,1.16-1.03,1.68-1.27-.85-2.47-1.66-3.67-2.46-.67-.45-1.34-.74-2.05-.04-.43.43-.98.3-1.27-.09-.17-.24-.12-.82.06-1.1.75-1.16,1.56-2.28,2.41-3.37.14-.18.62-.27.85-.17.16.07.3.62.19.79-.65,1-.1,1.45.69,1.97,1.26.83,2.46,1.77,3.82,2.78Z"/>
    <path class="cls-2" d="M144.13,138.48c.75-.62,1.16-.96,1.66-1.36.97.88,1.88,1.71,2.8,2.53,1.32,1.19,1.35,1.19,2.76.17.22-.16.46-.3.69-.44,1.18,1.01,1.17,1,.28,1.96-.52.56-.98,1.15-1.49,1.72-.69.78-.95.85-1.7.17-.92-.83-1.75-1.77-2.64-2.63-.69-.67-1.43-1.29-2.34-2.11Z"/>
    <path class="cls-2" d="M70.25,131.34c-.02,1.66-.58,2.55-1.71,2.75-.89.15-1.41.34-1.75,1.33-.44,1.27-1.96,1.6-3.15.87-.45-.28-.85-.71-1.16-1.15-1.56-2.25-1.44-2.82.85-4.21,1.3-.79,2.63-1.53,3.98-2.25,1-.53,1.32-.48,1.89.45.5.81.82,1.72,1.05,2.21ZM67.3,130.43c-.26.28-.84.69-1.07,1.24-.19.47,1.1,1.53,1.7,1.53.56,0,1.01-.82.9-1.62-.1-.71-.63-1.23-1.53-1.14ZM63.08,133.25c.97,1.78,1.63,2.18,2.45,1.6.79-.56.93-1.37.37-2.16-.63-.89-1.06-.81-2.83.56Z"/>
    <path class="cls-2" d="M101.88,160.7c0-.72-.05-1.33,0-1.93.12-1.31.29-2.61.45-3.92.05-.41.06-.88.27-1.2.18-.27.62-.42.97-.48.09-.02.4.5.39.76-.03,1.18-.14,2.35-.2,3.52q-.09,1.51,1.45,1.87c.93.22,1.25.72.79,1.37-.19.27-.68.5-1.01.47-.96-.07-1.91-.28-3.12-.47Z"/>
    <path class="cls-2" d="M81.57,153.26c-.63-.33-1.15-.6-1.89-.99,1.49-2.16,2.89-4.19,4.36-6.32.52.35.95.65,1.5,1.02-1.34,2.12-2.62,4.15-3.97,6.29Z"/>
    <path class="cls-5" d="M118.79,81.08c-1.09.5-1.57.08-2.41-.27.96-.52,1.49-.22,2.41.27Z"/>
    <path d="M98.63,74.52c1.06.08,1.82.14,2.61.19-.53.97-.57,1.12-.44,2.28-1.26-.31-1.71-1.23-2.17-2.48Z"/>
    <path d="M99.61,73.46q3.1-.59,4.09,1.72c-.12.06-.3.19-.34.16-.57-.47-1.96-1.19-2.94-1.51-.19-.06-.37-.17-.8-.37Z"/>
    <path class="cls-6" d="M60.39,83.99c.32.07.85.2,1.39.32,1.84.39,2.01.89.87,2.38-.38.49-.77.54-1.24.2-.73-.52-1.48-1.03-2.19-1.59-.24-.19-.35-.54-.52-.82.27-.16.53-.36.83-.48.18-.07.41-.01.86-.01ZM60.83,85.05c.08.18.09.28.14.3.34.17.69.33,1.03.5.04-.13.14-.35.11-.37-.28-.17-.58-.32-.88-.46-.05-.03-.13,0-.4.03Z"/>
    <path class="cls-6" d="M142.02,146.89c-.3-.81-.67-1.63-.9-2.48-.14-.52.3-.82.74-.62.93.42,1.81.95,2.71,1.44q-.83,1.2-2.55,1.66Z"/>
    <path class="cls-6" d="M67.3,130.43c.9-.08,1.43.43,1.53,1.14.11.8-.34,1.61-.9,1.62-.6,0-1.89-1.05-1.7-1.53.22-.55.81-.95,1.07-1.24Z"/>
    <path class="cls-6" d="M63.08,133.25c1.76-1.37,2.2-1.45,2.83-.56.56.79.42,1.6-.37,2.16-.82.58-1.48.18-2.45-1.6ZM64.72,134.41c.27-.27.59-.44.58-.59-.02-.27-.24-.53-.37-.79-.26.15-.51.31-.77.46.16.26.32.52.56.92Z"/>
    <path class="cls-6" d="M60.83,85.05c.26-.02.34-.05.4-.03.3.14.6.29.88.46.03.02-.07.24-.11.37-.34-.16-.69-.32-1.03-.5-.05-.02-.06-.12-.14-.3Z"/>
    <path class="cls-6" d="M64.72,134.41c-.24-.4-.4-.66-.56-.92l.77-.46c.13.26.35.52.37.79.01.15-.3.33-.58.59Z"/>
    <path class="cls-5" d="M114.91,80.07s-10.99.68-19.19,12.35l-1.2,2.22-.63-1.2s9.28-14.4,21.01-13.38Z"/>
    <path class="cls-5" d="M93.79,93.56s3.81-9.74,13.95-12.75l.85.74s-10.19,4.5-13.95,12.81l-.85-.8Z"/>
    <path class="cls-5" d="M96.41,85.25s1.71.63,4.21,0l4.27-3.47-6.32,1.99-2.16,1.48Z"/>
    <circle class="cls-6" cx="124.65" cy="104.89" r="2.11"/>
    <path class="cls-5" d="M122.43,101.53s-.11-2.11-.63-2.56-2.56-1.2-2.85-1.25-.97-.23-.97-.23c0,0,1.14-.46,2.22.06s2.51,1.2,2.79,1.88.51,1.65.51,1.65c0,0-.46.8-1.08.46Z"/>
    <path class="cls-4" d="M123.93,102.85s.7.26-.21,3.93c0,0-1.02-.45-1.13-1.37s.11-2.07,1.35-2.56Z"/>
    <path class="cls-3" d="M73.95,112.01s.34,9.99,1.28,12.21c0,0-2.05-5.29-2.39-5.72s-.94-1.62-.77-1.88,1.37-4.78,1.88-4.61Z"/>
    <path class="cls-3" d="M85.14,134.21l-6.32-8.2s-2.22.68-.85,2.05,4.61,7.69,7.17,6.15Z"/>
    <path class="cls-6" d="M83.03,67.37c1.75-.88,3.28-2.36,3.84-2.95.17-.58.41-1.99.5-2.56.3-1.79-.14-3.46-1.12-4.97-.62-.96-1.05-1.02-2.1-.52-.7.33-1.3.93-2.28,1.07.26-.59.45-.96.58-1.35.58-1.78.11-2.46-1.75-2.59-2.91-.19-5.19,1.11-6.25,3.56-1.28,2.95-.82,5.91,1.31,7.89,1.92,1.79,4.28,2.94,7.27,2.43ZM75.9,56.28c1.46-1.86,3.44-2.12,5.8-1.65-.02,1.52-.49,2.41-1.83,2.88-2.26.79-2.86,2.16-1.98,4.37.28.69.73,1.34,1.23,1.9.71.8,1.6,1.44,2.75.9,1.19-.56,2.03-1.5,2.26-2.82.17-.94-.64-1.61-1.57-1.34-.52.15-1,.46-1.55.73-.57-.65-.83-1.28.07-1.88,1.26-.84,2.54-1.65,3.76-2.44,2.68,2.2,1.86,7.03-.6,8.42-2.95,1.67-5.72,1.36-8.17-1.35-1.79-1.97-1.9-5.5-.17-7.73ZM80.14,61.73c.49.85.87.89,1.65.33.37-.26.74-.53,1.46-1.05-.14.77-.09,1.19-.28,1.45-.36.5-.78,1-1.29,1.31-.7.42-1.41.07-1.82-.53-.53-.78-1.1-1.63-1.32-2.53-.33-1.37.18-1.89,1.94-2.4-.36.61-.89,1.13-.94,1.69-.05.55.3,1.19.6,1.73Z"/>
    <path class="cls-2" d="M87.8,65.79c-.22.36-.44.71-.65,1.07-.1-.06-.2-.12-.3-.17.22-.36.44-.71.66-1.07l.3.17Z"/>
    <path class="cls-13" d="M88.21,65.47s-1.15-.21-1.37.3-.43.85-.34,1.02.38.47.38.47l.51.13.81-1.92Z"/>
    <g>
      <path d="M149.84,98.42c-.55-5.74-2.27-11.14-4.87-16.3-1.79-3.54-4.77-5.93-7.59-8.48-2.4-2.16-5.28-3.57-8.09-5.11-3.57-1.95-7.35-3.36-11.29-4.17-3.18-.66-6.46-.86-9.7-1.2-1.05-.11-2.03-.13-2.84-1.01-.86-.94-2.04-1.46-3.3-1.66-1.29-.2-2.6-.31-3.85-.45,0-.04.02-.09.03-.13l-7.08,1.72c.04.09.08.18.12.27-1.29,1.08-2.55,2.39-4.53,2.58-1.71,1.53-2.85,2.36-3.59,2.79-.43.61-.63,1.07-.96,1.22-1.57.74-2.13,2.09-2.49,3.64-.13.59-.32,1.24-.69,1.68-1.13,1.31-1.4,2.82-1.39,4.47,0,.46.05,1.03-.19,1.36-.95,1.36-1.99,2.66-3.05,4.03-.32-.54-.59-.99-.93-1.55-1.11,1.03-1.1,2.24-.92,3.36.17,1.04-.06,1.89-.53,2.77-2.22,4.21-3.11,8.76-3.28,13.46-.17,4.56.42,9.04,1.85,13.37,1.22,3.68,2.63,7.3,4,10.93.4,1.05.96,2.13,2.06,2.51,1.04.36,1.52,1.14,2.06,1.94,1.29,1.94,2.78,3.59,4.98,4.61,1.3.6,2.51,1.5,3.59,2.46,3.71,3.25,7.79,5.81,12.55,7.2,1.47.43,2.95.81,4.4,1.28,1.54.5,2.89,1.27,3.94,2.59,1.96,2.48,2.5,2.45,4.1-.31.9-1.55,2.12-2.52,3.79-3.04,1.39-.44,2.76-.94,4.14-1.42,3.37-1.18,6.54-2.76,9.28-5.09,2.7-2.3,5.48-4.53,7.13-7.8.21-.42.62-.74.96-1.09.88-.89,1.76-1.78,2.67-2.64.34-.33.7-.73,1.12-.87,1.15-.37,1.55-1.25,1.91-2.28.49-1.37.95-2.79,1.68-4.03,3.95-6.69,5.54-13.9,4.81-21.6ZM117.13,69.98c1.16.45,2.35.85,3.56,1.16,3.2.84,6.13,2.23,8.85,4.09,2.21,1.51,3.75,3.59,5,5.95-3.08-2.74-6.26-5.3-9.74-7.46-.11.11-.22.23-.33.34.2.29.34.63.6.85,1.55,1.29,3.2,2.48,4.68,3.84,1.53,1.4,2.94,2.95,4.35,4.48.29.31.42.76.61,1.16-.56-.55-1.12-1.11-1.69-1.65-1.25-1.2-2.47-2.42-3.76-3.58-.54-.48-1.11-1.01-2.38-.99.58.58.89.96,1.27,1.25,3.08,2.32,5.59,5.16,7.6,8.44.2.33.37.68.41,1.14-2.13-2.5-4.41-4.8-7.27-6.6.15.31.24.68.47.92,1.23,1.32,2.52,2.58,3.72,3.91.46.51.79,1.14,1.16,1.72-.98-.9-1.94-1.81-2.93-2.7-.55-.5-1.14-.95-2-1.24.07.26.07.6.24.77,1.06,1.1,2.18,2.14,3.23,3.24.47.49.83,1.09,1.24,1.64.34.4.69.79,1.03,1.19-.75-.01-.95-.55-1.16-1.06-.68-.54-1.37-1.08-2.05-1.62.05,1.36,1.04,2.02,1.68,2.91.64.88,1.3,1.74,1.72,2.85-1.27-.9-2.55-1.8-3.8-2.68.07-.57.35-1.21.15-1.57-.32-.57-.89-1.14-1.49-1.37-1.22-.47-2.51-.88-3.8-1.02-2.56-.27-5.13-.33-7.66.39-2.06.58-3.87,1.54-5.29,3.22-1.48-.59-2.76-1.47-4.39-1.27-4.73.57-7.46,4.11-6.63,7.83.37,1.68-.23,2.51-1.36,3.29-1.14.79-2.33,1.5-3.49,2.25-.94-.44-1.2-1.22-.96-1.94.52-1.54.07-2.92-.56-4.22-.7-1.42-.5-2.67.26-3.93,3.61-5.96,8.65-10.07,15.42-11.95,1.07-.3,2.13-.6,3.66-1.03-.76-.2-1.11-.42-1.41-.36-2.1.45-4.19.94-6.27,1.46-.59.15-1.1.52-1.75.02-.22-.17-.78,0-1.14.13-1.11.4-2.18.92-3.3,1.28-1.01.33-2.07.52-3.52.86.68.2.98.29,1.47.43-1.04.21-1.91.38-3.22.64.72-.73,1.03-1.29,1.49-1.48.83-.34,1.39-.79,1.67-1.68.2-.61.72-1.02,1.46-.97.9.06,1.44-.37,1.67-1.23.42-1.53,1.21-2.8,2.55-3.69.79-.53.85-1.41.92-2.23.08-.88.24-1.65,1.24-1.92.06-.02.12-.07.17-.11,1.95-1.39,2.3-2.67,1.25-5.18,2.24.23,4.37.42,6.49.68.45.05.98.23.87.93-.14.9.55,1.26,1.18,1.51ZM134.86,84.57c.31.31.63.61.94.92-.1.08-.2.15-.29.23-.22-.38-.43-.77-.65-1.15ZM138.12,110.43c-1.55,3.22-3.8,5.98-6.22,8.58-.44.47-1.05.79-1.68,1.25-.14-.44-.26-.63-.25-.82,0-.54.24-1.28-.48-1.38-.43-.06-1.03.36-1.38.74-1.23,1.32-2.29,2.81-3.58,4.06-2.52,2.46-5.43,4.35-8.92,5.15-1.14.26-2.3.38-3.6.59v-8.93c.5-.17,1.02-.34,1.53-.54.32-.13.83-.24.9-.46.51-1.72,2.19-1.69,3.4-2.32,1.26-.65,2.41-1.4,3.27-2.53.52-.68,1.22-1.22.96-2.37-.19-.81,1.59-2.43,2.46-2.7.86-.27,1.74-.54,2.51-.98,1.65-.96,2.03-2.68,1.04-4.31-.64-1.04-1.55-1.81-2.71-2.18-.59-.19-.92-.49-1.16-1.05-.8-1.87-2.51-2.74-4.21-3.54-.52-.24-1.25-.24-1.83-.1-.52.12-1.37.17-1.25,1.03.02.16.83.15,1.23.32.98.42,2.1.72,2.86,1.41.53.48.66,1.5.76,2.31.12.95-.35,1.5-1.27,1.56-2.76.18-5.52.3-8.46.08.34-.36.67-.72,1.02-1.07,1.63-1.63,2.86-3.53,2.58-5.91-.15-1.31-.86-2.56-1.38-4.03,1.4-2.04,3.81-2.66,6.29-3.18,2.73-.57,5.39-.08,8.04.48.53.11,1.04.38,1.52.65.48.27.72.67.27,1.18-.52.6-.19,1.01.31,1.37.68.48,1.38.93,2.07,1.41,4.39,3.06,6.69,7.19,6.26,12.62-.1,1.22-.37,2.5-.9,3.6ZM137.25,113.8c.36-.57.65-1.04,1.09-1.74q.05,1.63-1.09,1.74ZM129.2,123.64c-.16,1.26-1.46.58-2,1.31.09.13.18.38.3.4.71.13,1.2.43.98,1.25-.18.68-.45,1.35-1.25,1.48-.82.13-1.75-.38-1.96-1-.09-.26-.1-.55-.23-.79-.09-.16-.32-.23-.53-.38-.35.82.18,1.93-.94,2.44-.78-.39-1.61-.81-2.57-1.29,2.93-2.11,6.03-4,7.67-7.71.4.84.67,1.42.96,2.02-.52.6-1,1.16-1.57,1.82.48.19.82.33,1.14.46ZM116.67,131.73c.47-.29,1.14-.37,1.71-.33.26.02.62.53.7.87.14.68-.24,1.15-.87,1.46-1.05.51-1.29.46-2.45-.68.29-.45.5-1.07.92-1.33ZM114.66,129.54c1.06-.87,2.09-.99,3.21-1.1-.82,1.96-1.4,2.18-3.21,1.1ZM118.44,130.12c.77-1.73,1.35-2.09,2.93-1.78.73.14.99.58.58,1.17-.43.61-.97,1.14-1.58,1.83-.78-.5-1.35-.86-1.92-1.22ZM113.4,129.52c-.4.11-.8.22-1.19.33l-.08-.33c.4-.09.81-.17,1.21-.26.02.09.04.17.06.26ZM122.2,99.12q1.14,1,1.06,2.24c-.85-.58-.86-.58-1.06-2.24ZM124.42,105.9c.14-.68.28-1.36.43-2.07.87.24,1.17.74,1.03,1.41-.13.61-.59.85-1.45.67ZM119.69,106.77c-1.76,2.1-4.56,2.39-6.36.68,2.15-.7,4.3-.28,6.36-.68ZM135.43,90.09c-.1.08-.2.17-.3.25-.23-.39-.45-.78-.68-1.17.33.31.65.62.98.92ZM91.9,72.58c.3-.34.56-.72.91-1,.59-.46,1.73-1.46,1.88-1.75.77,1.35.77,1.37,2.28,1.05,1.12-.24,2.21-.17,3.27.27,1.07.44,2.04.54,3.17-.09,1.36-.76,2.09-.14,1.9,1.39-.07.55-.21,1.1-.2,1.65,0,.85-.34,1.46-1.01,1.93-1.07.75-1.69,1.82-2.17,3q-.66,1.6-2.43,1.01c-.15,1.48-1.21,1.61-2.91,1.26.69.69,1,.99,1.3,1.29-.33.25-.67.47-.96.75-1.29,1.23-1.36,1.28-2.66.04-1.09-1.04-2.07-2.2-3.23-3.45-.13.34-.18.65-.35.89-.18.25-.47.43-.89.8,0-2.23-.08-4.21.04-6.19.05-.79.74-1.45,1.64-1.18.3.09.36,1,.68,2.03.4-1.32.64-2.14.88-2.93-.4-.28-.76-.53-1.12-.78ZM94.03,84.81c-1.49-.27-2.81-.49-3.44-2.01,1.46-.42,1.73-.26,3.44,2.01ZM98.48,86.01c-.88.92-1.84,1.76-2.6,2.75-.74.98-1.27,2.12-2.15,3.62-.08-1.63.04-2.83-.23-3.92-.26-1.03-.93-1.96-1.45-2.99,2.11.18,4.19.35,6.43.54ZM99.56,86.58c-1.21,1.41-2.43,2.82-3.66,4.25.2-1.47.81-2.21,3.66-4.25ZM93.22,93.97c.78,1.61,1.59,2.97,2.1,4.43.58,1.65.6,3.35-.73,4.88-1.26-3.89-1.76-7.13-1.38-9.3ZM101.57,85.03q.38-1.04,2.56-1.56c-1.06.64-1.78,1.08-2.56,1.56ZM89.61,64.73c1.46-2.18,3.66-3.19,6.13-3.51,1.85-.23,3.76-.26,5.61-.06,2.79.3,4.72,1.82,5.49,4.64.16.59.41,1.19.75,1.7,1.23,1.82,1.14,2.33-.89,3.92-.41-.37-.71-.66-1.03-.92-.78-.64-1.65-.8-2.5-.23-.92.62-1.8.47-2.76.15-1.04-.35-2.1-.72-3.25-.37-.33.1-.94,0-1.07-.21-.15-.26.03-.76.14-1.13.07-.23.27-.42.66-1-1.31.52-2.2,1.03-3.14,1.21-.99.18-2.04.04-3.55.04.67.45,1.01.61,1.26.86.17.17.38.52.32.67-.58,1.33-.71,2.97-2.45,3.68-.33-.41-.6-.9-1-1.24-1.78-1.5-1.33-3.75-.33-5.54.51-.91,1.05-1.8,1.63-2.66ZM87.5,65.62c.1.06.2.12.3.17l-.65,1.07c-.1-.06-.2-.12-.3-.17.22-.36.44-.71.66-1.07ZM76.3,82.86c.56-.78,1.16-1.53,1.8-2.37.33.25.47.31.55.42,1.75,2.42,2.11,1.75.36,4.37-.49.73-.79,1.58-1.24,2.49-.46-.38-.85-.65-1.18-.97-1.78-1.75-1.79-1.87-.28-3.94ZM80.66,84.34c.77.31.7.92.57,1.42-.26.99-.93,1.64-2.26,1.99.21-1.53.92-2.49,1.69-3.41ZM73.64,84.57c.9,1.04,1.75,2.12,2.72,3.09,1.29,1.31,2.66,1.49,4.09.33,2.41-1.96,3.52-4,2.66-7.32-.04-.16-.23-.29-.38-.48-1,.9.19,2.06-.45,2.94-3.58-1.39-4.98-6.49-2.39-8.74.31.57.53.99.81,1.5.16-.23.37-.39.36-.54-.03-.41-.11-.83-.24-1.22-.44-1.35-.25-2.59.62-3.85.75.33.57,1.68,1.83,1.53.21-1.59-.24-3.45,1.18-4.75.26-.24.69-.3,1.04-.44.09.26.21.41.17.5-.78,1.9-.59,3.6.74,5.26,1.03,1.28,2.23,2.56,2.23,4.37,0,1.18-.2,2.36-.15,3.54.13,3.11-1.48,5.44-3.35,7.61-1.2,1.38-2.72,2.27-4.67,2.48-3.2.34-5.08-1.43-6.62-3.81-.33-.51-.31-1.26-.2-1.98ZM73.24,118c-1.11-1.37-1.14-1.73,0-3.32v3.32ZM73.26,110.65c-.32.36-.28,1.04-.45,1.56-.24.72-.52,1.42-.93,2.52-2.09-6.04-2.23-11.73-1.18-17.51,1.55,3.04,2.92,6.12,3.38,9.5.19,1.36.22,2.75-.83,3.93ZM74.03,102.88c-.77-1.86-1.47-3.74-2.18-5.62-.62-1.65-.62-3.17.58-4.68.84-1.06,1.33-2.4,1.97-3.62,1.07.69,2.18,1.34,3.22,2.11.27.2.38.72.41,1.11.32,3.42,2.09,5.97,4.79,7.91,1,.72,1.48,1.48,1.39,2.74-.11,1.57-.03,3.16-.03,4.76-.09.05-.21.18-.32.18-3.35-.22-6.33-1.4-8.9-3.55-.41-.34-.75-.83-.95-1.33ZM77.44,116.46c-1.75-1.82-2.84-5.05-2.62-7.34.11-1.15.02-2.32.02-3.67.71.39,1.24.7,1.78.97,2.17,1.11,4.44,1.98,6.88,2.24.96.1,1.34.54,1.5,1.38.1.54.24,1.07.34,1.55-1.5.68-3.01,1.2-4.34,2.02-1.28.79-2.38,1.88-3.55,2.84ZM78.41,116.94c1.45-1.5,2.96-2.95,4.99-3.68,2.45-.88,2.98-.18,3.37,1.82-1.18.88-1.77-.85-2.92-.64-.03.46-.03.93-.11,1.39-.17.9-.81,1.28-1.68,1.01-.26-.08-.47-.29-.73-.4-.24-.11-.49-.17-.92-.31-.08.94-.11,1.75-.25,2.53-.05.28-.33.65-.58.72-.27.08-.7-.06-.93-.25-.72-.64-.86-1.58-.26-2.2ZM86.66,118.84c-.73.3-1.12-.35-1.39-.9-.24-.48-.36-1.02-.6-1.77.74.06,1.15.11,1.56.13.58.03.88.35.96.9.09.63.16,1.36-.53,1.64ZM87.38,120.29c.39.62.62,1.35.81,1.78-.05.89-.58,1.42-1.13,1.19-.58-.24-1.24-.68-1.5-1.21-.22-.45,0-1.19.19-1.75.16-.46,1.33-.49,1.63-.01ZM84.49,120.8c-.18.48-.58.72-1.16.61-1.66-.3-2.21-1.25-1.86-3.51.48,0,.82.03,1.16,0,.62-.06,1.2-.17,1.61.54.46.78.55,1.56.25,2.37ZM81.02,122.65c-.92-.67-.94-.66-1.45-2.22q1.33.76,1.45,2.22ZM78.65,127.97c-.16-.24-.02-.69-.02-1.05.13-.04.25-.07.38-.11,1.14,1.59,2.28,3.18,3.42,4.76-1.79-.71-2.8-2.15-3.78-3.6ZM83.33,125.82c-1.32-.95-1.54-1.74-.91-3.54,2.09.27,2.52.58,2.81,2.29.07.4-.11.98-.39,1.27-.42.43-1,.36-1.52-.02ZM84.57,126.98c1.47-.08,1.67.09,2.36,2.08-1.08-.49-1.72-1.21-2.36-2.08ZM86.23,125.67c-.02-.4.12-.8.23-1.47.74.11,1.32.08,1.78.3.55.27.79,1.58.47,2.28-.11.23-.52.49-.76.47-.67-.06-1.68-1.02-1.71-1.58ZM101.3,113.65c.75.48,1.48,1.01,2.27,1.44.83.46,1.68.91,2.58,1.21.67.22.82.64.91,1.43-.22.12-.5.33-.82.42-.15.04-.39-.11-.56-.22-1.73-1.12-3.47-2.23-5.17-3.39-.35-.24-.95-.56-.45-1.13.47-.53.86,0,1.24.24ZM101.29,112.1c1.45-1.71,2.81-3.32,4.29-5.08,1.34,1.7,1.47,2.81,1.01,7.48-2.22.33-3.63-1.09-5.31-2.4ZM107.12,119.41v8.36c-.44-.03-.82.05-1.1-.08-3.89-1.94-7.46-4.28-9.67-8.2-.14-.24-.29-.48-.41-.72-.59-1.22-.57-1.33.53-2.28.79-.68,1.6-1.31,2.57-2.1,2.48,2.1,5.08,3.79,8.07,5.03ZM96.56,123.46c-.21.15-.77.01-1.04-.19-.41-.3-.69-.76-1.21-1.37.81-.07,1.33-.21,1.83-.13.33.05.8.37.85.64.06.33-.16.86-.43,1.05ZM97.55,126.38c-.75-.63-1.12-.94-1.6-1.35q1.26-.24,1.6,1.35ZM96,127.58c-.21.14-.5.5-.79.5-.73.02-1.4-.6-1.19-1.05.16-.33.66-.61,1.05-.68.74-.13.86.46.92,1.23ZM95.49,129.32c.62-.4,1.18.15,1.51.65.32.48.54,1.08.61,1.64.03.27-.39.59-.75,1.07-.5-.44-.93-.73-1.25-1.11-.15-.18-.14-.52-.15-.79-.02-.51-.2-1.31.04-1.46ZM97.2,127.86c.02-.25.32-.65.55-.69.77-.15,1.82.75,1.89,1.71-.19.15-.45.51-.76.57-.88.16-1.74-.65-1.67-1.58ZM98.65,125.41c.14-.26.47-.42.67-.59.23.04.37.03.48.09.66.36,1.34.71,1.47,1.55.02.14-.15.39-.3.47-.55.28-1.64-.11-2.16-.79-.14-.19-.25-.56-.16-.74ZM100.14,130.02c.83-.31,1.45.04,1.61.89.12.61-.32,1.18-.9,1.02-.74-.21-1.43-.6-2.57-1.1.99-.44,1.41-.65,1.85-.81ZM100.76,128.3c.65-.44,1.14-.78,1.65-1.12.56.38,1.02.81.54,1.51-.39.57-.98.46-2.19-.39ZM105.25,130.22c.15.26.21.7.08.94-.12.23-.53.42-.82.44-.95.05-1.4-.41-1.83-1.72,1.46-.63,2.05-.57,2.58.35ZM95.71,120.32c.03.09-.05.27-.13.33-.32.25-.58.09-1.44-.88.82-.32,1.33-.19,1.57.54ZM94.21,123.67c.24.05.52.48.58.78.06.27-.07.66-.26.88-.11.13-.57.13-.73,0-.41-.32-.74-.75-1.39-1.44.9-.13,1.38-.3,1.8-.22ZM91.98,128.22c-.96.27-1.85-.27-2.15-1.37-.08-.31-.01-.66-.01-1.1.54-.07.81-.1,1.08-.14,1.35-.19,1.75.02,1.99,1.03.18.77-.16,1.37-.9,1.58ZM93.36,122.5c-.23.12-.46.25-.69.37-.25-.41-.49-.84-.75-1.24-.27-.42-.58-.99.02-1.18.37-.12,1.12.2,1.36.55.24.35.05.99.05,1.5ZM91.62,123.83c-.09.37-.57.82-.94.89-.7.14-1.47-.84-1.45-1.66.02-.68.35-1.01.86-.97.89.04,1.72.98,1.53,1.74ZM90.2,121.03c-.45.3-1.11,0-1.51-.68-.58-1.01-.59-1.38.01-2.5.53.46,1.08.85,1.54,1.34.5.54.44,1.53-.04,1.85ZM87.83,129.26c.09-.49.26-1,.85-.96.33.02.74.26.95.53.36.48.58,1.05,1.03,1.93-.24.1-.48.22-.74.31-1,.33-2.28-.78-2.09-1.81ZM92.21,133.73c-.52-.41-1.06-.81-1.55-1.26-.09-.08-.1-.43-.01-.52.11-.11.45-.17.53-.09.48.47.91.98,1.36,1.48-.11.13-.22.25-.33.38ZM91.43,129.4c.16-.06.35-.14.54-.2,1.61-.5,2.02-.31,2.4,1.33.09.4,0,.98-.23,1.28-.16.2-.81.2-1.13.04-.98-.47-2.01-.99-1.57-2.46ZM94.61,135.48c-.11-.08-.25-.12-.36-.2-.75-.47-1.18-1.36-.74-1.86.29-.34.94-.51,1.42-.51.75,0,1.44.8,1.47,1.47.03.97-.94,1.79-1.79,1.1ZM96.82,136.17c.94-.49,1.54.02,2.29.71-1.08.44-1.65-.28-2.29-.71ZM97.41,133.86c0-.48,1.01-1.41,1.54-1.4.8,0,1.86.9,1.9,1.61.04.59-.83,1.21-1.67,1.18-.9-.03-1.77-.71-1.78-1.39ZM100.39,137.26c-.22-.07-.33-.55-.48-.83,1.68-1.14,2.45-1.08,4.01.41-1.24.57-2.37.75-3.52.41ZM104.52,134.27c-.55,1.04-1.52.57-2.63.51.14-.88-.58-1.65.3-2.25.48-.33,1.47-.16,2.01.5.26.31.47.96.31,1.25ZM105.43,136.33c-.11.08-.41.05-.51-.05-.12-.11-.22-.39-.16-.53.24-.58.65-.98,1.42-1.14.21.96-.25,1.37-.75,1.72ZM106.92,133.05c-.11.47-.5.68-.94.44-.47-.25-.65-.66-.27-1.17.28-.38.51-.79.76-1.18.22.13.44.25.66.38-.06.51-.08,1.04-.2,1.54ZM106.6,130.31c-.14-.38-.29-.76-.43-1.14.24-.08.48-.15.71-.23.11.4.21.8.32,1.2-.2.05-.4.11-.6.16ZM104.59,106.93c-2.76,3.33-5.53,6.62-8.98,9.26-.83.63-1.69,1.24-2.6,1.72-1.58.83-2.52.59-3.63-.77-2.93-3.6-4.17-7.82-4.36-12.37-.07-1.66.05-3.35.32-4.98.25-1.49.35-2.87-.44-4.24-.3-.52-.42-1.14-.77-2.13-.7,1.33-.17,2.06.17,2.76.6,1.21.54,2.37.06,3.58-3.14-.95-5.72-5.05-5.28-8.27.12-.07.23-.19.35-.2,3.63-.1,6.1-2.04,7.91-5,.68-1.12,1.28-2.28,2.08-3.73.54.98.96,1.74,1.38,2.5.13.24.22.52.4.73,1.74,2.04,1.98,4.22,1.14,6.79-.7,2.15-.14,4.44.41,6.59.73,2.86.93,5.75,1.08,8.67.02.45.11.91.16,1.36.26-.04.49-.04.5-.08.51-2.37,2.19-3.81,4.13-4.94,2.19-1.27,4.1-2.82,5.76-4.74,1.22-1.41,2.06-2.94,2.5-4.73.27-1.07.61-2.11,1.03-3.57.35.67.49,1.01.7,1.31.26.38.5.88.87,1.06,1.5.74,2.03,2.22,2.82,3.5.13.22-.02.63-.08.94-.02.12-.16.24-.27.31-3.46,2.03-4.94,5.75-7.36,8.67ZM117.16,113.96c-1.25.4-2.48.92-3.75,1.25-1.28.34-1.66.02-1.65-1.31,0-1.86.1-3.72.17-5.93,3.58,2.17,6.47,1.55,9.24-.84.47.51.93.99,1.43,1.53-.37,1.22-1.26,1.99-2.07,2.84-.35.36-.76.72,0,1.13.08.04,0,.69-.17.85-.77.69-1.54,1.43-2.44,1.9-1.53.8-3.08,1.61-4.87,1.73-.25.02-.48.22-.78.36.15.24.29.39.35.57.04.15,0,.46-.05.47-.19.04-.5.06-.57-.05-.5-.74-.15-1.79.65-2.01.4-.11.82-.1,1.24-.16,1.67-.24,2.79-.82,4.32-2.34-.49,0-.79-.07-1.04.01ZM111.96,131.78c-.09-.08.11-.79.26-.82,1.11-.26,2.31-.75,3.38.89-.92.28-1.61.64-2.32.67-.44.02-.94-.41-1.33-.74ZM112.85,135.93c-.02-.63.19-1.34.53-1.86.16-.25.94-.32,1.31-.16.58.26,1.05.77,1.92,1.45-1.05.59-1.66.99-2.33,1.29-.57.26-1.4-.11-1.42-.72ZM118.86,137.11c-.99.18-2,.28-3,.41-.03-.13-.05-.26-.08-.39.45-.4.96-.75,1.34-1.21.48-.6,1.1-.59,1.67-.43.47.13,1.13.5,1.21.86.17.79-.67.67-1.14.76ZM123.8,133.89c-.76.69-1.65,1.24-2.51,1.85-.68-.5-1.29-.94-1.79-1.31.42-2.15,1.99-2.35,3.66-2.29.36.01.98.26,1.02.48.06.4-.08,1-.37,1.27ZM122.24,131.03c.84-1.78,2.4-1.8,3.77-2.13.5-.12.82.35.66.79-.2.57-.54,1.11-.92,1.59-.44.55-.98.21-1.52.06-.59-.17-1.22-.19-1.99-.3ZM124.75,134.98c1.06-2.83,1.16-2.9,3.55-2.32-1.35.88-2.36,1.54-3.55,2.32ZM130.83,130.02c-.34.64-.87,1.34-1.49,1.61-.47.2-1.22-.23-1.99-.42.62-1.97,1.26-2.5,2.66-2.44.78.04,1.2.55.83,1.25ZM132.2,126.48c-.17.51-.66,1.04-1.14,1.28-.44.21-1.06.04-1.7.04.09-.75.11-1.36.26-1.94.07-.29.32-.67.56-.75.55-.17,1.2-.74,1.69-.13.3.37.47,1.07.33,1.5ZM132.34,123.85c-.6.03-1.21-.08-1.8-.12-.11-1.44.37-2.53,1.46-3.48.93-.8,1.65-1.83,2.6-2.91.4,1.12.12,1.87-.58,2.38-.58.42-1.29.64-2.01.98.26.28.34.45.43.45.56.02,1.31-.43,1.47.57.13.88-.76,2.11-1.57,2.14ZM133.99,126.68c-1.04-1.73-.65-2.31,1.76-2.79-.34,1.15-1.08,1.9-1.76,2.79ZM138.03,119.97c-.43.93-.92,1.85-1.54,2.65-.2.25-.89.12-1.66.19.15-1.03.04-1.9.42-2.43.39-.56,1.21-.87,1.9-1.14.55-.22,1.11.27.89.73ZM137.96,117.63c-.23.54-1.39.8-1.8.47-.35-.28-.52-1.38-.17-1.72.44-.43.96-.8,1.49-1.11.53-.31.96-.03.98.81-.11.37-.25.98-.49,1.55ZM138.76,127.21c.39-.55.78-1.1,1.29-1.8q-.17,1.08-1.29,1.8ZM139.84,116.58c-.77-2.59-.63-2.88,1.51-3.5-.29,1.26-.93,2.22-1.51,3.5ZM139.94,112.13c-1.21-.98-.78-2.08-.13-3.09.21-.33.75-.54,1.17-.61.14-.02.48.6.53.96.25,1.65-.12,2.25-1.58,2.74ZM141.31,102.82c.39-3.65-.2-7.22-1.05-10.74-1.29-5.34-3.47-10.31-7.1-14.47-2.95-3.38-6.37-6.22-10.93-7.25-.95-.21-1.86-.57-2.8-.81-.88-.22-1.7-.33-1.86-1.55-.05-.42-.83-.95-1.36-1.07-1.75-.39-3.54-.62-5.32-.89-.53-.08-1.08-.09-1.62-.13,1.76-1.5,3.82-1.62,5.87-1.28,4.75.79,9.29,2.27,13.55,4.58,2.56,1.4,5.16,2.7,7.47,4.53,4.18,3.31,7.49,7.25,9.33,12.3,1,2.74,1.88,5.52,2.77,8.29.21.64.24,1.34.42,2.48-1.17-1.12-2.19-1.38-3.16-.55-.7.6-.76-.77-1.4-.27-.07.94.04,2.02-.27,2.96-.3.92-1.7,1.14-1.92,2.6.87-.57,1.56-1.02,2.29-1.49.88,1.02.5,2.07.38,3.06-.02.18-.4.32-.63.45-.6.34-1.2.66-1.93,1.06-.7-.34-.82-1.02-.73-1.83ZM147.88,100.88c-.81.24-1.4.42-2.01.6-.2-.51-.39-1.02-.6-1.53-.41-1-.12-2.28.69-2.97.64-.55,1.44-.36,1.58.48.19,1.09.22,2.2.33,3.43ZM143.1,109.2c-1.31-1.4-1.03-3.55.65-4.46.52-.28,1.1-.07,1.3.56.2.64.29,1.32.38,1.78-.86.79-1.6,1.45-2.33,2.12ZM146.35,114.92c-.08-.02-.16-.05-.24-.07.08-.38.17-.77.25-1.15.14.06.28.12.42.17-.15.35-.29.7-.44,1.05ZM147.62,111.38c-.16,0-.32-.02-.48-.03-.15-.44-.2-.96-.47-1.31-.92-1.19-.08-2.03.51-2.9.14-.2.64-.35.87-.26.23.09.5.55.45.79-.24,1.25-.57,2.48-.88,3.71ZM147.22,105.83c-.26.06-.52.1-.78.15-.68-1.21-1.08-2.37-.03-3.48.3-.32.8-.6,1.22-.61.58-.01,1,.43,1.13,1.04.06.27.1.55.11.82.06,1.35-.29,1.79-1.65,2.08Z"/>
      <path class="cls-6" d="M88.29,53.91c.61,1.7,1.22,3.4,1.86,5.09.32.85.7,1.7,1.09,2.6,3.78-1.17,6.04-1.62,7.12-1.79.09-.32.22-.65.17-.96-.39-2.65-.89-2.7-2.9-1.96-.64.23-1.26.68-2.03.13.15-.9.8-.83,1.29-1.02,1.53-.58,1.73-.93,1.43-2.48-.37-1.93-.89-2.19-2.71-1.5-.52.2-.99.87-1.75.26.45-.98,1.35-1.04,2.21-1.23,1.39-.31,1.56-.66,1.16-2.06-.1-.33-.22-.66-.36-.98-.29-.66-.79-.95-1.51-.74-1.6.46-3.23.85-4.79,1.42-1.31.47-1.58,1.11-1.23,2.45.24.94.62,1.85.95,2.76ZM89.34,49.31c.98-.34,2-.56,3.01-.82q1.67-.44,2.07,1.45c-.78.27-1.6.46-2.32.84-.44.23-.9.71-1.04,1.17-.39,1.23.36,1.92,1.57,1.51.72-.24,1.4-.6,2.32-1,.2.59.41,1.06.5,1.56.11.53-.11.95-.69,1.11-.4.11-.78.29-1.19.38-.86.18-1.13.7-.96,1.52.2.95.62,1.34,1.6,1.19.74-.11,1.44-.5,2.18-.63.3-.05.8.16.98.42.27.39.38,1.04-.21,1.25-1.5.52-3.02.97-4.56,1.36-.6.15-1.02-.23-1.24-.85-1-2.81-2.07-5.61-3.05-8.43-.44-1.26-.25-1.59,1.01-2.03Z"/>
    </g>
    <path class="cls-6" d="M99.14,59.72s-2.36.14-8.34,2.02v.48s3.34-1.65,8.45-2.22l-.11-.28Z"/>
  </g>
  <g>
    <g>
      <polygon class="cls-8" points="28.94 82.62 5.38 117.11 6.55 118.6 51.5 117.04 35.36 87.38 30.55 81.77 28.94 82.62 28.94 82.62"/>
      <path class="cls-7" d="M27.78,87.1c-.85.37-.24-.86-1.09-.48-.41.14-.18.86-1.04.59-.33,1.41-.66,2.8-1.98,3.31-.31,1.48.76,1.41,1.18,2.08-1.86,1.36-1.87,5.72-5.14,4.27.3.79,1.28.83,1.43,1.8-.71.36-1.23.5-1.57.61,1.14.93-.3.7-.74,1.38-1.14,1.77-1.76,4.56-3.76,5-.07,1.3-.54,2.23-1.75,2.49.67,1.38-.39.2-.76.85,1.72.32-1.1,1.17.1,1.87-1.9.4-1.44,2.94-2.75,3.88-.17-.46.25-1.59-.34-1.59,0,.42.08.93-.5.83-.28.88.87.16.59,1.04-1.11.27-.9,1.73-1.48,2.48,2.78-.61,7.3-.66,10.41-.52.05-.21-.02-.53.24-.55,10.36.95,18.61-.66,31.25-1.01-.58-2.8-3.05-4.15-4.03-5.69-.32-2.37-2.56-2.61-2.66-5.22-1.2.18-1.03-.95-.88-1.56-1.06.03-2.03-1.7-1.17-2.08-.83.45-.9-.16-1.63-.46-1.93-5.83-6.53-9.94-8.74-14.54.01.27-.45.36-.53.02.32-.05.63-.11.51-.56-.75.25-.71-.34-1.35-.2-1.29,1.8-1.87,4.25-4.02,5.29.56.91-.2,1.29-.7,1.91-.33-1.06-.07-2.08.39-2.96.44-.02.18.73.57.77.06-1.15.97-3.33,1.76-2.23-.03-.37.09-.59.22-.81h0ZM43.37,99.43c1.58.23,1.16,2.65,2.82,2.8.04,1.73.93,2.54,2.03,3.11-.13,1.82.9,2.38,2.01,2.84.13.45-.18.51-.5.56.38.36,1.26.61.6,1.31.21-.16.42-.3.79-.3.12.53-.01.83-.49.82.53.68,2.07,2.14,1.2,2.62.27.45.87.54,1.62.45.15,2.18,1.35,3.2,1.35,5.55-.26-.15-1.01-.57-.78.3-.48-.5-1.86,0-1.92-.97-.59,1.05-1.83-.7-3.17.69-.81.14-.6-.84-.87-1.3-.76.27.38.66.07,1.34-.21-.17-.9-1.08-.8.04-3.73-.26-9.26-.28-12.56.09-.02-.26-.03-.53-.04-.8-1.21.71-2.61.85-3.74.18-.72,1.05-5.69,1.08-7.21.36-2.94,1.69-9.46.1-10.87,1.88-2.3-1.29-6.26.16-9.14-.89-.27-.84.18-1.03.46-1.36-1.07-.04-.45-.21-.62-1.84,1.25-.4,1.76-1.46,1.73-3.03,1.24.2.54-1.37,1.81-1.16-.23-.81-.21-.5-.06-1.33,1.81.2.72-2.24,2.29-2.25-.18-.26-.62-.24-.57-.77,1.08.29.5-.9,1.57-.61-.02-.45-.04-.89-.07-1.34.23-.22.59-.32,1.05-.32,1.56-4.03,4.49-6.8,6.16-10.74.92-.02,1.21-.6.99-1.65.78.03.79-.64,1.58-.61.65-3.58,4.05-4.66,4.68-8.26,2.93-.66,2.23-4.61,5.08-5.33-.18-.27-.63-.25-.58-.77.88-.05,1.31-.52,2.39-.39,1.2.85-.31,1.38,1.4,1.27-1.11,1.2.34,4.73,1.55,4.2.39.07.07,2.02,1.42,1.8-.14.83.33.96.35,1.59,3.43,2.86,4.09,8.8,7.53,11.66.12.45-.19.52-.51.56h0Z"/>
    </g>
    <text class="cls-1" transform="translate(19.27 112.42) scale(.79 1)"><tspan x="0" y="0">59</tspan></text>
  </g>
</svg>