<?xml version="1.0" encoding="UTF-8"?>
<svg id="Layer_1" data-name="Layer 1" xmlns="http://www.w3.org/2000/svg" viewBox="0 0 180 200">
  <defs>
    <style>
      .cls-1 {
        font-family: AmericanTypewriter-Bold, 'American Typewriter';
        font-size: 20px;
        font-weight: 700;
      }

      .cls-1, .cls-2 {
        fill: #fff;
      }

      .cls-3 {
        fill: #dbf0f4;
      }

      .cls-4 {
        fill: #231f20;
      }

      .cls-4, .cls-5 {
        fill-rule: evenodd;
      }

      .cls-6 {
        fill: #d0d1d2;
      }

      .cls-5 {
        fill: #00a9c7;
      }

      .cls-7 {
        letter-spacing: -.07em;
      }

      .cls-8 {
        fill: #f1e931;
      }
    </style>
  </defs>
  <g>
    <g>
      <polygon class="cls-5" points="29.64 81.72 6.08 116.22 7.26 117.7 52.21 116.14 36.06 86.48 31.25 80.87 29.64 81.72 29.64 81.72"/>
      <path class="cls-4" d="M28.48,86.2c-.85.37-.24-.86-1.09-.48-.41.14-.18.86-1.04.59-.33,1.41-.66,2.8-1.98,3.31-.31,1.48.76,1.41,1.18,2.08-1.86,1.36-1.87,5.72-5.14,4.27.3.79,1.28.83,1.43,1.8-.71.36-1.23.5-1.57.61,1.14.93-.3.7-.74,1.38-1.14,1.77-1.76,4.56-3.76,5-.07,1.3-.54,2.23-1.75,2.49.67,1.38-.39.2-.76.85,1.72.32-1.1,1.17.1,1.87-1.9.4-1.44,2.94-2.75,3.88-.17-.46.25-1.59-.34-1.59,0,.42.08.93-.5.83-.28.88.87.16.59,1.04-1.11.27-.9,1.73-1.48,2.48,2.78-.61,7.3-.66,10.41-.52.05-.21-.02-.53.24-.55,10.36.95,18.61-.66,31.25-1.01-.58-2.8-3.05-4.15-4.03-5.69-.32-2.37-2.56-2.61-2.66-5.22-1.2.18-1.03-.95-.88-1.56-1.06.03-2.03-1.7-1.17-2.08-.83.45-.9-.16-1.63-.46-1.93-5.83-6.53-9.94-8.74-14.54.01.27-.45.36-.53.02.32-.05.63-.11.51-.56-.75.25-.71-.34-1.35-.2-1.29,1.8-1.87,4.25-4.02,5.29.56.91-.2,1.29-.7,1.91-.33-1.06-.07-2.08.39-2.96.44-.02.18.73.57.77.06-1.15.97-3.33,1.76-2.23-.03-.37.09-.59.22-.81h0ZM44.07,98.53c1.58.23,1.16,2.65,2.82,2.8.04,1.73.93,2.54,2.03,3.11-.13,1.82.9,2.38,2.01,2.84.13.45-.18.51-.5.56.38.36,1.26.61.6,1.31.21-.16.42-.3.79-.3.12.53-.01.83-.49.82.53.68,2.07,2.14,1.2,2.62.27.45.87.54,1.62.45.15,2.18,1.35,3.2,1.35,5.55-.26-.15-1.01-.57-.78.3-.48-.5-1.86,0-1.92-.97-.59,1.05-1.83-.7-3.17.69-.81.14-.6-.84-.87-1.3-.76.27.38.66.07,1.34-.21-.17-.9-1.08-.8.04-3.73-.26-9.26-.28-12.56.09-.02-.26-.03-.53-.04-.8-1.21.71-2.61.85-3.74.18-.72,1.05-5.69,1.08-7.21.36-2.94,1.69-9.46.1-10.87,1.88-2.3-1.29-6.26.16-9.14-.89-.27-.84.18-1.03.46-1.36-1.07-.04-.45-.21-.62-1.84,1.25-.4,1.76-1.46,1.73-3.03,1.24.2.54-1.37,1.81-1.16-.23-.81-.21-.5-.06-1.33,1.81.2.72-2.24,2.29-2.25-.18-.26-.62-.24-.57-.77,1.08.29.5-.9,1.57-.61-.02-.45-.04-.89-.07-1.34.23-.22.59-.32,1.05-.32,1.56-4.03,4.49-6.8,6.16-10.74.92-.02,1.21-.6.99-1.65.78.03.79-.64,1.58-.61.65-3.58,4.05-4.66,4.68-8.26,2.93-.66,2.23-4.61,5.08-5.33-.18-.27-.63-.25-.58-.77.88-.05,1.31-.52,2.39-.39,1.2.85-.31,1.38,1.4,1.27-1.11,1.2.34,4.73,1.55,4.2.39.07.07,2.02,1.42,1.8-.14.83.33.96.35,1.59,3.43,2.86,4.09,8.8,7.53,11.66.12.45-.19.52-.51.56h0Z"/>
    </g>
    <text class="cls-1" transform="translate(19.45 112.04) scale(.79 1)"><tspan class="cls-7" x="0" y="0">6</tspan><tspan x="11.8" y="0">1</tspan></text>
  </g>
  <g>
    <path d="M74.41,110.11c.02-3.39,3.64-4,5.22-6.49-1.58-.49-1.64-1.69-1.54-2.99.28-3.68.53-7.37.84-11.05.13-1.53.3-1.6,2.61-1.95.08-.48.14-1.01.27-1.51.32-1.21,1.06-1.98,2.31-2.33,4.53-1.28,9.12-2.17,13.83-2.5,2.3-.16,4.58-.57,6.87-.83,4.44-.5,8.86-1.1,13.31-1.42,3.06-.22,6.16-.13,9.24-.05,5.92.17,11.85.38,17.76.69,1.44.08,2.87.53,4.27.96,1.66.51,2.49,1.73,2.47,3.49-.03,2.08-.1,4.16-.1,6.24,0,6.16,0,12.31.01,18.47,0,.08,0,.15,0,.23.06,3.73-.29,4.34-3.81,5.56-1.33.46-2.18,1.19-2.88,2.4-.68,1.18-1.58,2.32-2.63,3.17-1.93,1.58-4.84,1.49-7.08-.24-1.17-.9-2.2-1.12-3.59-.69-5.58,1.72-11.21,3.33-16.78,5.08-.99.31-1.83,1.1-2.72,1.7-1.74,1.17-3.21,3.15-4.38,4.88-1.15,1.7-2.51,3.36-4.1,4.62-.9.71-2.46.75-3.73.79-2.58.09-5.11-.14-6.9-2.44-.23-.3-.87-.61-1.16-.5-1.37.52-2.33-.29-3.46-.76-1.77-.74-3.63-1.26-5.45-1.88-4.95-1.69-9.9-3.37-14.84-5.09-1.55-.54-2.36-1.73-2.17-3.27.06-.5.55-1.15,1.02-1.37,1.28-.59,1.57-1.55,1.51-2.82-.03-.76.07-1.54.13-2.3.23-2.78,1.79-4.49,4.37-5.36.36-.12.72-.25,1.27-.44ZM91.2,120.5c-1.94,2.09-1.35,4.65-1.5,7.04q2.73,1.12,3.99,3.24c2.18-.07,2.46-.21,2.4-2.33-.07-2.42.62-4.57,1.84-6.58,2.05-3.39,5.94-3.71,8.35-.58,1.09,1.42,1.77,3.16,2.71,4.9,1.45-.12,2.71-.99,3.8-2.07.35-.35.5-1.1.44-1.64-.39-3.51-.86-7.02-1.32-10.53-.19-1.44-.55-2.87-.57-4.32-.05-3.85.05-7.7.06-11.54,0-.96.33-1.63,1.27-1.95.65-.22,1.29-.51,1.96-.68,3.28-.82,6.59-1.56,9.86-2.43,7.75-2.05,15.56-3.79,23.5-4.87.47-.06.96-.03,1.44-.04l.05.46c-5.66,1.15-11.33,2.22-16.97,3.46-5.75,1.27-11.47,2.7-17.04,4.01-.08,5.29-.15,10.24-.22,15.24l-2.74.07c.63,4.64,1.25,9.15,1.89,13.86,1.15-.35,2.01-.61,3.07-.92.07-4.38.18-8.68.2-12.98.02-4.27-.06-8.55-.1-13.01,1.46-.1,2.88-.2,4.48-.31.09,3.47.17,6.73.25,10.04-1.26.46-2.4.88-3.49,1.29-.49,2.77-.47,13.06.07,14.55,1.57-.51,3.15-1.03,4.41-1.44-.31-2.17-.58-4.11-.89-6.33-.54.69-.94,1.2-1.33,1.69-.76-.29-1.49-.56-2.66-1,.88-.67,1.54-1.17,2.17-1.65-.56-1.52-.18-2.66,1.08-3.25.83-.39,1.28-.84,1.61-1.7.29-.75.94-1.42,1.56-1.97.3-.27.9-.2,1.65-.33-.24.76-.35,1.19-.51,1.6-.17.44-.4.87-.65,1.41,1.5-.22,2.83-.71,4.05-.5,1.17.2,2.21,1.11,3.56,1.85.22-.02.82-.09,1.88-.2-.76.93-1.17,1.44-1.54,1.91q.8,1.71.65,2.89c-1.51-.8-2.97-1.94-4.61-2.35-1.91-.48-3.95-.18-5.71.75-.29,2.95-.23,3.58.49,5.28,3.47-.89,6.93-1.77,10.36-2.65.43-2.6,1.42-4.85,2.81-6.89,1.92-2.82,4.53-3.13,7.06-.81,1,.91,1.76,2.08,2.65,3.16.68-.08,1.47-.18,2.36-.28-.11,2.02-2.22,1.26-2.57,2.77,1.14-.47,2.27-.94,3.66-1.52-.07-2.97-.03-5.83-.24-8.66-.36-4.86-.23-9.69.19-14.54.14-1.6.06-3.24-.16-4.83-.22-1.62-1.02-2.89-2.92-3.03-4.06-.31-8.11-.81-12.18-.94-5-.17-10.01-.11-15.02-.03-2.84.05-5.69.24-8.52.53-5.13.53-10.25,1.2-15.38,1.79-3.91.45-7.77,1.09-11.54,2.26-1.79.56-2.16,1.7-1.18,3.29.32.53.49,1.24.47,1.87-.06,2.46-.24,4.92-.33,7.39-.06,1.78-.19,3.51-1.61,4.94.5.14.85.24,1.44.4-1.58,1.81-3.08,3.52-4.85,5.55,4.32.14,7.58,2.31,11.09,4.27,1.71-.61,3.51-1.29,5.33-1.89,1.75-.58,3.54-1.06,5.29-1.63,1.74-.57,3.59-.88,5.41-2.18-6.99-1.6-13.58-3.11-20.37-4.67-.1-1.94-.27-3.92-.28-5.91-.01-1.22.09-2.47.35-3.66.31-1.42.86-1.79,2.31-1.68,1.14.08,2.27.36,3.4.59,2.26.46,4.5.99,6.77,1.41,2.5.47,5.02.79,7.51,1.29,2.68.53,3.59,1.53,3.73,4.21.15,2.76.16,5.53.23,8.43-3.27,1.64-6.69,2.77-10.19,3.61-3.45.83-6.52,2.93-10.31,2.79,1.4,1.8,1.39,1.8,1.23,4.31-.03.52.06,1.05.12,1.89,4.52-5.43,4.88-5.66,7.57-4.84-2.03.44-3.68,1.01-4.67,2.59-.69,1.1-1.32,2.24-1.98,3.37l.05-.07ZM86.22,101.46c7.39,1.49,14.58,3.63,22.28,4.84-.07-2.64-.08-4.93-.19-7.22-.14-2.94-.74-3.52-3.63-4.07-4.97-.95-9.93-1.95-14.89-2.93-.3-.06-.6-.14-.9-.19-2.15-.32-2.74.03-2.82,2.15-.08,2.44.09,4.89.15,7.43ZM67.6,124.1c.35.18.67.39,1.02.51,5.08,1.74,10.17,3.44,15.24,5.19,2.02.7,4.05,1.4,6,2.28,1.28.58,1.99.09,2.66-.72-.11-1.57-.95-2.21-2.29-2.61-2.72-.81-5.41-1.71-8.06-2.71-4.3-1.62-8.55-3.34-12.83-5.02-1.1.6-2.1,1.3-1.74,3.08ZM101.9,123.33c-.38.95-.77,1.71-.99,2.52-.39,1.43-.63,2.94.17,4.27.39.65,1.16,1.26,1.87,1.47,1,.29,1.52-.66,1.82-1.43.9-2.32.95-4.63-.3-6.89l-2.57.06ZM74.66,111.68c-2.64.05-4.5,1.62-4.74,4.06-.15,1.5-.08,3.02-.11,4.44,1.62.62,3.08,1.19,4.62,1.78.08-3.59.16-6.93.23-10.28ZM140.08,117.15c1.83-1.01,3.09-2.62,3.3-4.03.12-.85-.07-1.6-.92-1.88-.77-.25-1.64-.53-2.34.27-1.11,1.27-1.18,3.98-.03,5.64ZM80.08,115.98c-.34.4-1.02.84-1.06,1.33-.07.82.73.87,1.44,1.04.82.2,1.56.78,2.4,1.23.36-.33.73-.68,1.18-1.1-1.32-.83-2.52-1.59-3.96-2.5Z"/>
    <path d="M65.19,66.01c-.22.35-.58.68-.62,1.05-.16,1.37-.2,2.75-.33,4.13-.16,1.68-.22,3.39-.59,5.02-.46,1.99-1.28,2.46-3.33,2.41-1.95-.04-3.09-.89-3.48-2.71-.22-1.05-.39-2.13-.42-3.2-.08-3.07-.08-6.15-.1-9.22-.03-4.38-.01-8.77-.07-13.15-.04-3.02,1.01-4.49,3.48-4.68,2.51-.18,4.44,1.55,4.67,4.33.19,2.22.24,4.46.38,6.68.04.58.17,1.15.31,2.12.54-.53,1.01-.78,1.04-1.07.2-1.83.29-3.67.43-5.51.1-1.38.1-2.78.36-4.12.31-1.6,1.45-2.4,3.17-2.49,1.6-.09,2.66.52,3.2,2.08.3.85.39,1.8.42,2.71.22,7.53.41,15.07.58,22.61.02.92-.06,1.85-.22,2.75-.36,1.98-.93,2.41-2.96,2.42-.23,0-.46,0-.69-.03-3.39-.27-3.85-.8-4.01-4.26-.12-2.58-.35-5.16-.53-7.74-.23-.04-.47-.08-.7-.12ZM71.67,75.88c.13-1.02.33-1.76.31-2.49-.17-7.77-.37-15.55-.57-23.32,0-.38.04-.85-.15-1.13-.28-.39-.76-.88-1.14-.87-.35,0-.91.58-.99.98-.21,1.05-.21,2.13-.28,3.21-.15,2.22-.24,4.45-.49,6.67-.07.6-.48,1.41-.97,1.67-2.54,1.33-4.73-.05-4.87-2.92-.12-2.54-.21-5.08-.45-7.61-.12-1.35-1.04-2.11-2.07-2.05-1,.07-1.37.6-1.37,2.25,0,6.7-.01,13.39.05,20.09.01,1.53.26,3.06.43,4.59.09.76.49,1.44,1.32,1.23.44-.11.97-.75,1.06-1.22.24-1.35.28-2.74.4-4.12.16-1.68.2-3.38.53-5.03.38-1.89,1.02-2.22,3.18-2.18,1.69.04,2.28.48,2.56,2.31.28,1.9.42,3.82.56,5.74.09,1.21.07,2.44.1,3.72.98.17,1.72.3,2.85.49Z"/>
    <path d="M151.67,49.52c.25-1.68.32-3.17.72-4.55.67-2.34,2.14-2.65,3.91-.94,1.44,1.39,2.39,3.09,2.47,5.08.31,7.69.57,15.39.77,23.08.06,2.23-.88,3.19-3.06,3.67-3.08.68-4.93-.46-5.63-3.49-.29-1.24-.54-2.48-1.13-3.67-.11,1.52-.17,3.06-.35,4.57-.27,2.16-1.3,3.04-3.52,3.16-3.4.19-4.24-.5-4.34-4-.1-3.46.01-6.92,0-10.38-.01-3.85-.04-7.7-.11-11.54-.01-.76-.21-1.52-.36-2.27-.55-2.79.63-4.19,3.41-4,1.07.07,2.15.1,3.22.21,1.66.17,2.05.55,2.54,2.19.29.98.22,2.15,1.47,2.89ZM154.35,45.72c-.16,2.3-.26,4.18-.43,6.06-.1,1.06-.21,2.15-.53,3.16-.15.47-.82,1.07-1.26,1.08-.44.01-1-.57-1.33-1.02-.3-.41-.35-1.01-.54-1.51-.85-2.21-1.7-4.42-2.59-6.71-1.48-.03-2.89-.06-4.26-.09-.06.42-.11.58-.1.73.83,6.98.67,13.98.47,20.99-.05,1.87-.36,3.83.52,5.58,2.63.19,2.64.19,2.91-2.09.06-.53.08-1.07.08-1.61.01-2.23-.01-4.47.04-6.7.02-.75.12-1.55.4-2.24.38-.92,1.39-1.06,2.05-.29.44.51.81,1.16,1,1.8.76,2.58,1.44,5.19,2.15,7.79.24.88.45,1.76.7,2.78l3.32-.08c.15-.49.28-.71.28-.93-.24-7.7-.46-15.4-.77-23.1-.05-1.21-.48-2.41-2.1-3.59Z"/>
    <path d="M63.64,149.62c.04-.94.19-1.88.1-2.8-.25-2.6.29-5.06,1.2-7.45.27-.7.64-1.42,1.14-1.98,1.23-1.37,3.13-1.27,4.14.27,1.02,1.55,1.74,3.27,1.6,5.2-.4,5.6-.58,11.21-.33,16.83.06,1.38,0,2.78-.17,4.15-.3,2.31-1.35,3.36-3.09,3.33-2.23-.04-4.04-1.39-4.31-3.42-.2-1.52-.13-3.07-.19-4.61-.05-1.04.08-2.1-.44-3.58-.55.72-1.04,1.07-1.08,1.46-.2,1.75-.26,3.51-.39,5.27-.1,1.3-.06,2.63-.39,3.87-.57,2.15-1.95,2.82-4.51,2.47-1.95-.26-2.74-1.05-2.79-3.29-.09-4.15-.17-8.31,0-12.46.19-4.45.65-8.89,1.06-13.33.21-2.24.34-2.29,2.44-2.53,2.9-.34,3.81.22,4.26,3.12.4,2.58.49,5.2.74,7.8.05.57.17,1.14.26,1.71.25,0,.51-.02.76-.03ZM69.06,164.86c.13-1.67.32-3.19.35-4.7.1-5.77.14-11.54.21-17.31.02-1.59-.41-2.99-1.66-4.21-.32.36-.71.59-.79.91-.51,2-1.07,3.99-1.39,6.02-.2,1.28.01,2.61-.02,3.92-.02,1-.48,1.73-1.47,2.13-2.16.87-3.57-.03-3.75-2.4-.21-2.76-.39-5.52-.71-8.27-.21-1.81-.46-1.89-2.51-1.48-.07.34-.21.7-.23,1.08-.31,6.22-.63,12.45-.87,18.67-.07,1.92.09,3.85.13,5.78.02.93.44,1.42,1.4,1.45.89.03,1.56-.29,1.69-1.2.15-1.06.12-2.14.21-3.21.18-2.06.29-4.13.62-6.17.3-1.91.82-2.14,3.68-2.05,1.38.04,1.81.67,1.91,2.62.1,2,.09,4.01.19,6.01.1,1.9.41,2.15,3.01,2.41Z"/>
    <path d="M157.45,143.28c-.11.86-.18,1.44-.27,2.15.59.05,1.03.12,1.46.11,3.65-.08,3.82.04,4.89,3.43,1.02,3.24.43,4.31-2.84,5.12-.52.13-1.05.18-1.82.31-.05,1.2-.13,2.4-.16,3.61-.02.85.06,1.69.06,2.54-.01,3.35-.88,4.53-4.05,5.57-2.58.85-4.25-.2-4.37-2.98-.1-2.29.11-4.6.18-6.91.06-1.99.18-3.99.18-5.99,0-4.15-.06-8.3-.06-12.44,0-1.6.72-2.48,2.34-2.57,2.84-.16,5.69-.24,8.53-.18,1.94.05,2.74.99,2.91,2.9.05.61.08,1.23.03,1.84-.16,2.22-1.09,3.18-3.31,3.37-1.14.1-2.3.07-3.71.11ZM152.7,164.19c3.5-.67,3.87-1.1,3.88-3.95.01-1.92.01-3.85.11-5.77.11-2.29.16-2.3,2.35-2.46.99-.07,2-.07,2.79-1.06-.36-1.05-.72-2.11-1.07-3.14-1.27.03-2.33.07-3.4.08-1.37,0-2.09-.49-2.2-1.82-.1-1.13.06-2.3.19-3.44.13-1.1.8-1.53,1.93-1.5,1.23.03,2.47-.01,3.68-.18,1.08-.15,1.42-.91,1.34-2.28-.06-1.07-.59-1.51-1.63-1.47-2.08.06-4.16.09-6.24.17-.51.02-1.01.2-1.52.31-.07,8.86-.15,17.58-.22,26.51Z"/>
    <path d="M103.49,68.35c-.17,2.05-.16,3.91-.51,5.7-.46,2.41-1.7,3.22-4.09,3.08-1.45-.08-2.08-.62-2.32-2.05-.08-.45-.08-.92-.08-1.38-.1-7.77-.2-15.55-.3-23.32-.01-.84-.06-1.69-.09-2.53-.07-1.77.45-2.51,2.17-3.03,2.77-.83,5.63-.95,8.47-.72,2.98.23,4.17,1.54,4.39,4.61.21,2.99.29,5.99.43,8.99.2,4.38-2.18,9.08-7.17,10.3-.29.07-.57.22-.89.35ZM98.88,74.73c1.63-.27,1.75-.26,1.9-1.36.19-1.44.19-2.91.23-4.37.05-2.06.31-2.65,2.34-3.12,4.28-1,6.02-4.58,5.89-8.27-.1-2.85-.22-5.7-.41-8.54-.13-1.98-.74-2.63-2.74-2.65-1.91-.02-3.85.14-5.74.43-2.15.34-2.15.44-2.1,2.51.16,7.7.32,15.41.49,23.11.02.68.09,1.37.16,2.25Z"/>
    <path d="M122.8,64.66c.27-5.44.49-10.89.84-16.33.17-2.72,2.26-4.65,4.97-4.85.84-.06,1.69-.08,2.54-.07,4.48.03,7.01,2.45,7.78,6.87.87,5.06.43,10.12.44,15.18,0,1.23-.02,2.46-.17,3.68-.67,5.25-2.38,5.74-6.69,6.91-1.15.31-2.46.22-3.67.12-1.99-.16-3.54-1.25-4.38-2.99-.69-1.42-1.07-3.02-1.36-4.59-.23-1.27-.11-2.61-.14-3.91-.05,0-.1,0-.15,0ZM125.12,64.33c.15,1.92.25,3.61.42,5.29.05.52.28,1.04.49,1.53.74,1.82,2,2.86,4.08,2.73,6.16-.37,6.72-1.99,6.88-6.71.08-2.23-.12-4.48.1-6.69.36-3.49-.04-6.92-.59-10.33-.46-2.84-1.96-4.12-4.82-4.4-.69-.07-1.38-.03-2.08,0-2.68.1-3.2.58-3.57,3.18-.11.76-.41,1.5-.44,2.25-.19,4.45-.33,8.91-.48,13.13Z"/>
    <path d="M76.82,63.88c.07-4.15.15-8.3.2-12.45.02-2.04.88-3.58,2.7-4.47,2.3-1.13,4.69-1.91,7.31-1.84,2.42.07,4.12,1.17,4.86,3.5.48,1.53.95,3.15.93,4.72-.07,5.61-.34,11.21-.57,16.81-.03.84-.22,1.68-.44,2.5-.81,2.97-3.16,4.64-6.2,4.3-2.23-.25-4.4-.74-6.19-2.27-1.48-1.27-2.36-2.79-2.37-4.79,0-2-.09-4-.14-6-.03,0-.06,0-.09,0ZM79.18,60.95s-.06,0-.1,0c.07,2.77.19,5.54.19,8.31,0,2.33,1.23,3.75,3.25,4.56.99.39,2.07.63,3.13.78,2.05.29,3.37-.63,3.92-2.67.18-.67.34-1.36.37-2.04.23-5.37.48-10.75.61-16.13.03-1.2-.29-2.44-.6-3.63-.56-2.13-1.46-2.83-3.7-2.55-1.66.21-3.28.76-4.89,1.26-1.69.53-2.39,1.87-2.38,3.56.03,2.85.13,5.69.2,8.54Z"/>
    <path d="M142.58,143.91l.05,1.97c1.41.66,3.37-.36,4.28,1.23.62,1.1.9,2.45,1.07,3.72.28,2.09-.12,2.42-3.74,3.87-.06,2.33,0,4.71-.2,7.07-.26,2.95-2.29,4.65-5.11,4.55-1.76-.06-2.6-.77-2.67-2.5-.37-8.54-.68-17.08-1.05-25.62-.05-1.12.37-1.79,1.43-2.01,3.13-.66,6.27-.65,9.41-.07.9.17,1.34.8,1.42,1.61.15,1.53.25,3.07.26,4.6,0,1.06-.79,1.43-1.72,1.48-1.07.06-2.14.06-3.43.09ZM145.69,151.79q-.06-3.46-3.19-3.25c-1.33.09-1.87-.3-2.01-1.61-.1-.99-.1-2-.09-2.99.03-1.69.34-2.01,1.99-2.15,1.04-.09,2.08-.11,3.22-.16-.03-1.01-.02-1.7-.07-2.38-.02-.29-.18-.57-.27-.82-2.45-.71-5.69-.65-8.22.22.44,8.38.87,16.84,1.31,25.27,2.58.14,3.26-.33,3.56-2.43.15-1.06.2-2.14.22-3.21.02-1.31-.07-2.61-.07-3.92,0-1.97.08-2.02,2.02-2.2.52-.05,1.02-.23,1.61-.38Z"/>
    <path d="M133.96,149.57c-.17,2.83-.23,5.68-.53,8.5-.51,4.87-5.22,10-12.25,6.78-2.47-1.13-3.73-3.31-3.91-5.86-.42-5.67-.53-11.36-.89-17.03-.14-2.15,1.02-3.66,2.21-5.1.51-.61,1.59-.98,2.43-1.03,2.06-.12,4.15-.06,6.22.06,2.06.12,3.62,1.17,4.71,2.92,1.04,1.66,1.66,3.46,1.71,5.44.05,1.77.09,3.54.13,5.31.05,0,.11,0,.16.01ZM118.71,149.55c.22,2.67.41,5.9.8,9.11.2,1.7.84,3.35,2.6,4.1,3.62,1.53,6.2,1.03,8.21-2.16.62-.99.99-2.29,1.04-3.47.17-4.15.26-8.31.12-12.45-.05-1.47-.72-2.96-1.31-4.36-.58-1.38-1.83-2.09-3.31-2.18-1.84-.11-3.69-.07-5.54-.1-.86-.01-1.57.32-1.77,1.18-.38,1.63-.8,3.28-.95,4.94-.14,1.6.04,3.23.1,5.4Z"/>
    <path d="M98.86,158.08c.04,1.55.1,2.92.1,4.3,0,.84,0,1.71-.16,2.53-.36,1.8-1.38,2.68-2.94,2.72-1.57.03-2.75-.79-3.14-2.5-.39-1.72-.71-3.48-.79-5.24-.26-5.69-.4-11.39-.58-17.08,0-.23-.02-.46,0-.69.17-3.6.92-5.54,5.35-4.68,1.27.25,2.6.24,3.9.26,3.41.03,5.41,1.53,6.48,4.8.78,2.4.72,4.86.65,7.32-.13,4.49-3.93,7.29-6.93,7.92-.52.11-1.04.2-1.92.36ZM95.65,165.68c1.24-.78,1.28-1.78,1.27-2.78-.02-1.62-.11-3.23-.09-4.85.01-1.45.41-1.93,1.78-2.26.52-.13,1.08-.1,1.6-.23,2.45-.65,4.47-1.96,5.03-4.55.61-2.81.45-5.66-.52-8.43-.51-1.46-1.52-2.38-3-2.53-2.64-.26-5.3-.36-8.15-.53-.08,1.29-.26,2.51-.21,3.72.21,5.54.45,11.07.75,16.6.08,1.45.34,2.91.64,4.33.11.52.56.96.91,1.51Z"/>
    <path d="M89.8,149.88c-.12,3.07-.12,6.15-.4,9.21-.15,1.66-.63,3.33-1.24,4.89-.85,2.19-2.63,3.33-4.97,3.58-4.95.54-8.87-2.69-8.89-7.66-.02-5.61.2-11.22.46-16.82.24-5.02,4.59-7.57,9.42-5.65,3.55,1.41,5.14,3.96,5.33,7.59.09,1.61.09,3.23.13,4.85.05,0,.1,0,.15,0ZM76.26,152.28c.07,2.78.18,5.24.18,7.7,0,3.81,3.02,5.17,5.48,5.37,2.41.2,3.78-.74,4.57-3.03.35-1.01.69-2.08.71-3.13.1-4.77.13-9.53.08-14.3-.03-2.9-1.68-4.55-4.39-5.52-3.22-1.15-6.15.89-6.35,4.22-.18,2.99-.2,5.99-.28,8.68Z"/>
    <path class="cls-2" d="M91.15,120.57c.66-1.12,1.29-2.26,1.98-3.37.99-1.59,2.64-2.15,4.67-2.59-2.69-.83-3.05-.59-7.57,4.84-.06-.84-.16-1.37-.12-1.89.16-2.51.17-2.51-1.23-4.31,3.8.14,6.87-1.96,10.31-2.79,3.5-.84,6.92-1.97,10.19-3.61-.07-2.9-.08-5.67-.23-8.43-.15-2.68-1.05-3.68-3.73-4.21-2.49-.49-5.01-.82-7.51-1.29-2.27-.42-4.51-.95-6.77-1.41-1.13-.23-2.26-.51-3.4-.59-1.46-.11-2,.27-2.31,1.68-.26,1.19-.36,2.44-.35,3.66.02,1.99.18,3.98.28,5.91,6.8,1.56,13.39,3.07,20.37,4.67-1.82,1.3-3.67,1.62-5.41,2.18-1.76.57-3.54,1.05-5.29,1.63-1.82.6-3.62,1.28-5.33,1.89-3.51-1.96-6.77-4.13-11.09-4.27,1.77-2.03,3.27-3.74,4.85-5.55-.59-.16-.94-.26-1.44-.4,1.42-1.43,1.55-3.16,1.61-4.94.09-2.46.27-4.92.33-7.39.01-.62-.15-1.34-.47-1.87-.97-1.58-.6-2.73,1.18-3.29,3.76-1.17,7.63-1.81,11.54-2.26,5.13-.59,10.24-1.26,15.38-1.79,2.83-.29,5.68-.49,8.52-.53,5-.08,10.02-.14,15.02.03,4.07.14,8.12.64,12.18.94,1.9.14,2.7,1.42,2.92,3.03.22,1.59.3,3.23.16,4.83-.42,4.85-.55,9.68-.19,14.54.21,2.83.17,5.69.24,8.66-1.39.57-2.52,1.04-3.66,1.52.35-1.51,2.46-.75,2.57-2.77-.89.11-1.68.2-2.36.28-.9-1.08-1.66-2.25-2.65-3.16-2.53-2.32-5.15-2-7.06.81-1.39,2.05-2.39,4.3-2.81,6.89-3.43.88-6.89,1.76-10.36,2.65-.73-1.7-.79-2.32-.49-5.28,1.76-.93,3.8-1.23,5.71-.75,1.64.41,3.11,1.55,4.61,2.35q.15-1.18-.65-2.89c.37-.46.79-.97,1.54-1.91-1.06.11-1.66.17-1.88.2-1.35-.73-2.4-1.65-3.56-1.85-1.22-.2-2.55.28-4.05.5.25-.54.47-.96.65-1.41.16-.41.27-.84.51-1.6-.75.13-1.35.06-1.65.33-.62.56-1.27,1.22-1.56,1.97-.33.86-.78,1.31-1.61,1.7-1.26.59-1.64,1.73-1.08,3.25-.63.48-1.29.98-2.17,1.65,1.17.44,1.9.71,2.66,1,.38-.49.78-.99,1.33-1.69.31,2.22.58,4.15.89,6.33-1.26.41-2.84.93-4.41,1.44-.54-1.49-.57-11.78-.07-14.55,1.09-.4,2.23-.82,3.49-1.29-.08-3.31-.17-6.57-.25-10.04-1.61.11-3.03.21-4.48.31.04,4.47.12,8.74.1,13.01-.02,4.3-.13,8.6-.2,12.98-1.06.32-1.92.58-3.07.92-.64-4.71-1.26-9.22-1.89-13.86l2.74-.07c.07-5,.15-9.94.22-15.24,5.56-1.32,11.28-2.75,17.04-4.01,5.64-1.24,11.31-2.32,16.97-3.46l-.05-.46c-.48.01-.97-.02-1.44.04-7.95,1.08-15.76,2.82-23.5,4.87-3.27.87-6.58,1.61-9.86,2.43-.67.17-1.3.45-1.96.68-.94.32-1.27.99-1.27,1.95-.01,3.85-.11,7.7-.06,11.54.02,1.44.38,2.88.57,4.32.46,3.51.93,7.01,1.32,10.53.06.53-.09,1.28-.44,1.64-1.08,1.08-2.35,1.95-3.8,2.07-.94-1.74-1.62-3.48-2.71-4.9-2.41-3.13-6.3-2.81-8.35.58-1.22,2.01-1.91,4.16-1.84,6.58.06,2.12-.21,2.27-2.4,2.33q-1.26-2.13-3.99-3.24c.15-2.39-.44-4.95,1.5-7.05-.1,1.29-.33,2.58-.24,3.86.05.84.43,1.74.91,2.46.4.61,1.2.69,1.83.15,1.8-1.51,1.67-5.4-.22-6.81-.92-.68-1.69-.57-2.32.41ZM109.85,86.45c-2.06,4.25-1.82,6.24.87,7.99.21-.39.41-.78.61-1.14-1.69-1.52-1.83-2.09-.87-3.92.77-1.46,1.62-2.81,3.62-2.56.29.04.6-.12.9-.19,6.97-1.6,13.99-2.93,21.13-3.55.24-.02.46-.21.69-.31-.72-.44-1.37-.54-2-.46-3.28.42-6.57.8-9.82,1.38-3.4.6-6.76,1.45-10.16,2.11-.88.17-2.02.43-2.67.04-1.93-1.16-4.1-1.3-6.16-1.79-3.45-.82-6.99-.46-10.54-.1,4.71.82,9.42,1.64,14.38,2.5ZM128.41,104.02c-.25-3.42-.5-6.8-.77-10.47-1.69.65-3.06,1.18-4.52,1.74.08,3,.15,5.96.22,8.93,1.78.58,3.31.26,5.06-.2ZM135.39,101.73c1.76-.61,3.04-1.06,4.51-1.57-.3-3.06-.6-6.06-.91-9.22-1.48.33-2.71.61-3.97.89-.48,3.34-.08,6.46.38,9.91ZM129.24,93.64c.08,3.23.16,6.32.24,9.7,1.62-.61,3.13-1.18,4.42-1.67-.41-3.1-.79-5.92-1.18-8.86-1.25.3-2.19.52-3.49.83ZM145.18,98.41c-.22-2.93-.42-5.71-.63-8.52-.44.01-.68-.03-.89.03-.87.25-1.74.54-2.56.8-.57,1.89-.56,6.85.01,8.86,1.3-.37,2.6-.75,4.06-1.17ZM81.64,107.43c1.76.39,3.37.54,4.82,1.11,1.5.59,2.84,1.59,4.25,2.41.35-.79.71-1.58,1.14-2.55-2.71.17-3.93-2.13-6.04-2.99.53-.52.92-.9,1.33-1.3-1.53-1.06-2.14.6-3.17.87-.82.21-1.38,1.39-2.33,2.45ZM110.03,125.09c.87-2.59.04-4.75.32-6.96.35-2.82-.42-5.79-.74-8.69-.03-.27-.28-.52-.43-.78-.11.04-.22.07-.33.11.23,3.25.47,6.51.73,10.19q-3.67-4.24-5.41-3.41c2.51.29,3.03,2.4,4.32,3.76,1.47,1.55.47,3.69,1.54,5.77Z"/>
    <path class="cls-3" d="M86.22,101.46c-.06-2.53-.24-4.98-.15-7.43.07-2.12.67-2.47,2.82-2.15.3.05.6.13.9.19,4.96.98,9.92,1.98,14.89,2.93,2.89.55,3.49,1.14,3.63,4.07.11,2.29.13,4.58.19,7.22-7.7-1.2-14.88-3.35-22.28-4.84Z"/>
    <path class="cls-2" d="M67.6,124.1c-.36-1.78.64-2.48,1.74-3.08,4.28,1.68,8.54,3.41,12.83,5.02,2.65,1,5.34,1.91,8.06,2.71,1.34.4,2.18,1.04,2.29,2.61-.68.81-1.38,1.3-2.66.72-1.95-.88-3.98-1.58-6-2.28-5.07-1.75-10.16-3.46-15.24-5.19-.35-.12-.67-.33-1.02-.51ZM71.52,123.05c.13.23.19.57.39.66,3.23,1.58,6.47,3.14,9.74,4.65.29.13.73-.06,1.54-.14-4.01-2.17-7.61-4.04-11.66-5.17Z"/>
    <path class="cls-6" d="M101.9,123.33l2.57-.06c1.25,2.26,1.2,4.57.3,6.89-.3.77-.82,1.72-1.82,1.43-.72-.21-1.49-.82-1.87-1.47-.79-1.33-.56-2.84-.17-4.27.22-.81.61-1.57.99-2.52Z"/>
    <path class="cls-2" d="M74.66,111.68c-.08,3.35-.15,6.69-.23,10.28-1.54-.59-3-1.16-4.62-1.78.03-1.42-.03-2.94.11-4.44.24-2.43,2.1-4.01,4.74-4.06ZM73.98,116.03c-.29-.67-.5-1.41-.9-2.04-.39-.62-1-.62-1.58-.13-1.4,1.22-1.44,4.47-.05,5.66.66.57,1.33.54,1.65-.3.37-.99.57-2.05.87-3.19Z"/>
    <path class="cls-6" d="M140.08,117.15c-1.14-1.66-1.08-4.37.03-5.64.7-.8,1.57-.52,2.34-.27.85.27,1.05,1.02.92,1.88-.2,1.41-1.47,3.02-3.3,4.03Z"/>
    <path class="cls-2" d="M80.08,115.98c1.45.91,2.64,1.67,3.96,2.5-.46.42-.83.77-1.18,1.1-.84-.45-1.58-1.03-2.4-1.23-.71-.17-1.51-.22-1.44-1.04.04-.5.73-.94,1.06-1.33Z"/>
    <path class="cls-2" d="M71.67,75.88c-1.13-.2-1.88-.32-2.85-.49-.03-1.29-.01-2.51-.1-3.72-.14-1.92-.28-3.84-.56-5.74-.27-1.83-.86-2.28-2.56-2.31-2.16-.05-2.81.29-3.18,2.18-.33,1.65-.37,3.35-.53,5.03-.13,1.37-.16,2.77-.4,4.12-.09.47-.61,1.11-1.06,1.22-.83.21-1.23-.47-1.32-1.23-.18-1.53-.42-3.06-.43-4.59-.06-6.69-.05-13.39-.05-20.09,0-1.65.37-2.18,1.37-2.25,1.03-.07,1.95.7,2.07,2.05.23,2.53.33,5.07.45,7.61.14,2.88,2.33,4.25,4.87,2.92.49-.26.91-1.07.97-1.67.25-2.21.34-4.44.49-6.67.07-1.07.08-2.16.28-3.21.08-.4.64-.97.99-.98.38-.01.87.48,1.14.87.19.27.14.74.15,1.13.2,7.77.4,15.55.57,23.32.02.73-.18,1.47-.31,2.49Z"/>
    <path class="cls-2" d="M154.35,45.72c1.62,1.17,2.05,2.38,2.1,3.59.31,7.7.53,15.4.77,23.1,0,.22-.12.44-.28.93l-3.32.08c-.26-1.02-.47-1.9-.7-2.78-.7-2.6-1.38-5.21-2.15-7.79-.19-.65-.56-1.29-1-1.8-.66-.77-1.67-.63-2.05.29-.28.69-.38,1.49-.4,2.24-.06,2.23-.03,4.47-.04,6.7,0,.54-.02,1.08-.08,1.61-.27,2.28-.28,2.28-2.91,2.09-.89-1.76-.58-3.71-.52-5.58.19-7.01.36-14.01-.47-20.99-.02-.15.04-.3.1-.73,1.38.03,2.78.06,4.26.09.88,2.29,1.74,4.49,2.59,6.71.19.5.24,1.1.54,1.51.33.45.89,1.03,1.33,1.02.45-.01,1.11-.61,1.26-1.08.32-1.01.44-2.09.53-3.16.17-1.88.27-3.76.43-6.06Z"/>
    <path class="cls-2" d="M69.06,164.86c-2.6-.26-2.92-.51-3.01-2.41-.1-2-.09-4.01-.19-6.01-.1-1.95-.53-2.58-1.91-2.62-2.86-.09-3.37.13-3.68,2.05-.32,2.04-.44,4.11-.62,6.17-.09,1.07-.07,2.15-.21,3.21-.13.91-.8,1.23-1.69,1.2-.96-.03-1.38-.52-1.4-1.45-.04-1.93-.21-3.86-.13-5.78.24-6.23.57-12.45.87-18.67.02-.37.15-.74.23-1.08,2.04-.41,2.29-.34,2.51,1.48.32,2.75.5,5.51.71,8.27.18,2.37,1.59,3.26,3.75,2.4.99-.4,1.45-1.12,1.47-2.13.03-1.31-.18-2.65.02-3.92.32-2.03.87-4.03,1.39-6.02.08-.32.47-.55.79-.91,1.25,1.22,1.68,2.62,1.66,4.21-.07,5.77-.11,11.54-.21,17.31-.03,1.52-.22,3.03-.35,4.7Z"/>
    <path class="cls-2" d="M152.7,164.19c.07-8.93.15-17.65.22-26.51.52-.11,1.02-.29,1.52-.31,2.08-.08,4.16-.1,6.24-.17,1.04-.03,1.57.41,1.63,1.47.08,1.38-.26,2.13-1.34,2.28-1.21.17-2.46.21-3.68.18-1.12-.03-1.8.4-1.93,1.5-.13,1.14-.29,2.3-.19,3.44.11,1.33.84,1.83,2.2,1.82,1.07,0,2.13-.05,3.4-.08.35,1.03.71,2.09,1.07,3.14-.79.98-1.79.99-2.79,1.06-2.2.16-2.24.17-2.35,2.46-.1,1.92-.1,3.84-.11,5.77-.01,2.85-.38,3.28-3.88,3.95Z"/>
    <path class="cls-2" d="M98.88,74.73c-.06-.88-.14-1.56-.16-2.25-.17-7.7-.34-15.41-.49-23.11-.04-2.07-.04-2.17,2.1-2.51,1.89-.3,3.83-.46,5.74-.43,2.01.02,2.61.68,2.74,2.65.19,2.84.31,5.69.41,8.54.13,3.69-1.6,7.26-5.89,8.27-2.02.47-2.29,1.06-2.34,3.12-.03,1.46-.03,2.93-.23,4.37-.15,1.1-.27,1.08-1.9,1.36ZM100.62,57.25c.07,0,.14,0,.21,0,.03,1.3-.08,2.62.14,3.89.24,1.41,1.19,1.71,2.33.94,3.01-2.06,4.03-5.09,3.09-8.6-.53-1.96-1.93-2.87-3.61-3.52-1.01-.39-1.66.06-1.74,1.12-.17,2.05-.28,4.11-.41,6.16Z"/>
    <path class="cls-2" d="M125.12,64.33c.15-4.22.29-8.68.48-13.13.03-.76.33-1.5.44-2.25.37-2.6.89-3.08,3.57-3.18.69-.03,1.39-.06,2.08,0,2.86.27,4.36,1.56,4.82,4.4.55,3.41.95,6.84.59,10.33-.23,2.21-.03,4.46-.1,6.69-.17,4.71-.73,6.33-6.88,6.71-2.07.13-3.33-.91-4.08-2.73-.2-.5-.43-1.01-.49-1.53-.18-1.68-.28-3.37-.42-5.29ZM128.16,63.63s-.03,0-.05,0c.03,1.31.03,2.62.12,3.92.05.68.18,1.38.42,2.02.34.88.89,1.67,1.97,1.7,1.01.03,1.56-.71,1.85-1.5.52-1.44,1.15-2.92,1.23-4.41.23-4.06.25-8.14.25-12.22,0-1.55-1.76-3.21-3.31-3.32-.34-.02-.86.11-1.01.36-.46.76-1.05,1.58-1.1,2.41-.22,3.68-.27,7.37-.38,11.06Z"/>
    <path class="cls-2" d="M79.18,60.95c-.07-2.85-.17-5.69-.2-8.54-.02-1.69.68-3.02,2.38-3.56,1.6-.51,3.23-1.06,4.89-1.26,2.25-.28,3.14.42,3.7,2.55.31,1.18.63,2.42.6,3.63-.13,5.38-.37,10.75-.61,16.13-.03.69-.19,1.38-.37,2.04-.55,2.03-1.86,2.96-3.92,2.67-1.06-.15-2.14-.39-3.13-.78-2.02-.81-3.24-2.23-3.25-4.56,0-2.77-.12-5.54-.19-8.31.03,0,.06,0,.1,0ZM87.54,59.54s-.08,0-.13,0c-.03-1.38-.06-2.77-.11-4.15-.04-1,0-2.02-.2-2.98-.27-1.32-1.27-1.99-2.51-1.9-1.4.1-2.13.69-2.3,2.11-.15,1.22-.16,2.45-.18,3.68-.05,2.61-.13,5.22-.07,7.83.05,1.99.25,3.97.5,5.95.12.97.69,1.73,1.79,1.81,1.07.08,1.77-.55,2.16-1.43.37-.83.72-1.74.77-2.63.17-2.76.19-5.52.27-8.28Z"/>
    <path class="cls-2" d="M145.69,151.79c-.59.14-1.09.33-1.61.38-1.94.19-2.02.23-2.02,2.2,0,1.31.09,2.61.07,3.92-.02,1.07-.07,2.15-.22,3.21-.3,2.09-.98,2.57-3.56,2.43-.44-8.43-.88-16.9-1.31-25.27,2.54-.87,5.78-.92,8.22-.22.08.25.24.53.27.82.06.68.05,1.37.07,2.38-1.14.06-2.18.08-3.22.16-1.66.14-1.96.46-1.99,2.15-.02,1-.02,2,.09,2.99.13,1.3.68,1.69,2.01,1.61q3.14-.21,3.19,3.25Z"/>
    <path class="cls-2" d="M118.71,149.55c-.05-2.17-.24-3.8-.1-5.4.15-1.66.56-3.31.95-4.94.2-.86.91-1.19,1.77-1.18,1.85.02,3.7-.01,5.54.1,1.47.09,2.73.8,3.31,2.18.59,1.4,1.26,2.89,1.31,4.36.14,4.15.04,8.31-.12,12.45-.05,1.18-.42,2.48-1.04,3.47-2.01,3.19-4.59,3.69-8.21,2.16-1.76-.74-2.4-2.4-2.6-4.1-.38-3.2-.57-6.43-.8-9.11ZM121.83,151.96c.06,0,.12,0,.19,0,.04,1.7.05,3.39.14,5.09.05.84.09,1.76.47,2.47.36.67,1.07,1.32,1.77,1.58.91.34,1.68-.36,2.01-1.17.7-1.7,1.64-3.42,1.77-5.19.3-4.08,0-8.17-1.25-12.12-.31-.98-.69-1.93-1.98-1.9-1.4.03-2.51.86-2.62,2.25-.24,2.99-.34,5.99-.49,8.98Z"/>
    <path class="cls-2" d="M95.65,165.68c-.34-.55-.8-.99-.91-1.51-.3-1.43-.56-2.88-.64-4.33-.3-5.53-.54-11.07-.75-16.6-.05-1.21.13-2.42.21-3.72,2.85.18,5.51.27,8.15.53,1.49.15,2.49,1.07,3,2.53.96,2.77,1.13,5.62.52,8.43-.56,2.59-2.58,3.9-5.03,4.55-.52.14-1.08.11-1.6.23-1.37.33-1.77.81-1.78,2.26-.01,1.62.07,3.23.09,4.85.01,1-.02,2-1.27,2.78ZM96.69,147.22s-.09,0-.13,0c.03.99.07,1.99.07,2.98,0,1.22.73,1.78,1.78,2.06,1.33.35,2.6-.42,3.1-2.04.54-1.79.59-3.67-.14-5.4-.39-.94-1.15-1.83-1.97-2.46-1.34-1.04-2.58-.49-2.77,1.19-.13,1.2.03,2.44.06,3.66Z"/>
    <path class="cls-2" d="M76.26,152.28c.08-2.69.1-5.69.28-8.68.2-3.33,3.13-5.37,6.35-4.22,2.71.97,4.36,2.61,4.39,5.52.05,4.77.02,9.53-.08,14.3-.02,1.05-.36,2.12-.71,3.13-.79,2.29-2.16,3.22-4.57,3.03-2.47-.2-5.48-1.56-5.48-5.37,0-2.46-.11-4.92-.18-7.7ZM84.59,152.73c-.04-1.5,0-2.51-.1-3.5-.15-1.45-.28-2.92-.62-4.33-.35-1.45-1.57-2.2-2.9-2.15-1.49.06-1.55,1.28-1.89,2.25-.13.35-.13.76-.14,1.14-.11,3.07-.28,6.14-.29,9.22,0,1.37.18,2.77.51,4.09.3,1.19.87,2.51,2.32,2.55,1.51.05,1.91-1.34,2.35-2.49.9-2.36.94-4.81.78-6.79Z"/>
    <path d="M109.85,86.45c-4.96-.86-9.67-1.68-14.38-2.5,3.55-.37,7.09-.73,10.54.1,2.06.49,4.23.63,6.16,1.79.65.39,1.79.13,2.67-.04,3.39-.67,6.75-1.51,10.16-2.11,3.25-.58,6.54-.95,9.82-1.38.63-.08,1.28.02,2,.46-.23.11-.45.29-.69.31-7.14.61-14.16,1.95-21.13,3.55-.3.07-.61.23-.9.19-2-.25-2.86,1.11-3.62,2.56-.96,1.83-.83,2.41.87,3.92-.2.37-.4.75-.61,1.14-2.7-1.75-2.94-3.75-.87-7.99Z"/>
    <path d="M128.41,104.02c-1.75.45-3.29.78-5.06.2-.07-2.97-.15-5.93-.22-8.93,1.46-.56,2.83-1.09,4.52-1.74.27,3.67.52,7.05.77,10.47Z"/>
    <path d="M135.39,101.73c-.46-3.44-.86-6.57-.38-9.91,1.26-.28,2.49-.56,3.97-.89.31,3.16.61,6.16.91,9.22-1.47.51-2.75.96-4.51,1.57Z"/>
    <path d="M129.24,93.64c1.3-.31,2.24-.53,3.49-.83.39,2.94.77,5.76,1.18,8.86-1.3.49-2.81,1.06-4.42,1.67-.08-3.38-.16-6.47-.24-9.7Z"/>
    <path d="M145.18,98.41c-1.47.42-2.77.8-4.06,1.17-.57-2.01-.58-6.98-.01-8.86.82-.26,1.69-.54,2.56-.8.21-.06.45-.02.89-.03.21,2.81.41,5.59.63,8.52Z"/>
    <path d="M81.64,107.43c.95-1.06,1.51-2.24,2.33-2.45,1.03-.27,1.64-1.93,3.17-.87-.41.4-.79.78-1.33,1.3,2.11.86,3.33,3.16,6.04,2.99-.43.97-.79,1.76-1.14,2.55-1.41-.82-2.75-1.82-4.25-2.41-1.45-.57-3.06-.73-4.82-1.11Z"/>
    <path d="M110.03,125.09c-1.08-2.08-.07-4.22-1.54-5.77-1.29-1.35-1.8-3.47-4.32-3.76q1.74-.83,5.41,3.41c-.26-3.68-.5-6.94-.73-10.19.11-.04.22-.07.33-.11.15.26.4.5.43.78.32,2.9,1.09,5.86.74,8.69-.27,2.21.55,4.37-.32,6.96Z"/>
    <path d="M91.15,120.57c.63-.98,1.4-1.09,2.32-.41,1.89,1.4,2.02,5.3.22,6.81-.63.53-1.43.46-1.83-.15-.47-.72-.85-1.62-.91-2.46-.08-1.28.15-2.58.24-3.86,0,0-.05.08-.05.08ZM92.62,120.9c-1.25,3.11-1.14,4.36.37,5.28,1.6-2.68,1.56-3.49-.37-5.28Z"/>
    <path d="M71.52,123.05c4.05,1.13,7.65,3.01,11.66,5.17-.81.09-1.25.28-1.54.14-3.26-1.52-6.5-3.08-9.74-4.65-.19-.09-.26-.44-.39-.66Z"/>
    <path d="M73.98,116.03c-.3,1.14-.5,2.2-.87,3.19-.32.85-.99.87-1.65.3-1.39-1.19-1.36-4.44.05-5.66.57-.5,1.18-.49,1.58.13.4.62.61,1.36.9,2.04ZM72.1,114.63c-.98,1.54-1.12,2.78-.05,4.1,1.11-1.98,1.12-2.44.05-4.1Z"/>
    <path d="M100.62,57.25c.13-2.05.24-4.11.41-6.16.09-1.06.74-1.51,1.74-1.12,1.68.65,3.08,1.56,3.61,3.52.95,3.51-.08,6.54-3.09,8.6-1.13.77-2.09.47-2.33-.94-.21-1.27-.1-2.59-.14-3.89-.07,0-.14,0-.21,0ZM103.42,53.22c-.7,2.23-.59,4,.22,5.59.95-2.05,1.03-3.85-.22-5.59Z"/>
    <path d="M128.16,63.63c.11-3.69.16-7.38.38-11.06.05-.83.64-1.65,1.1-2.41.15-.24.67-.38,1.01-.36,1.55.11,3.3,1.77,3.31,3.32,0,4.07-.02,8.15-.25,12.22-.09,1.49-.72,2.97-1.23,4.41-.28.79-.84,1.53-1.85,1.5-1.08-.03-1.63-.81-1.97-1.7-.24-.63-.38-1.33-.42-2.02-.09-1.3-.08-2.62-.12-3.92.02,0,.03,0,.05,0ZM130.68,67.51c1.15-2.34,1.18-4.82,1.06-7.3-.13-2.48.59-5.04-.64-7.42-.34,4.91-.97,9.8-.41,14.72Z"/>
    <path d="M87.54,59.54c-.08,2.76-.1,5.53-.27,8.28-.05.89-.4,1.8-.77,2.63-.39.88-1.09,1.52-2.16,1.43-1.1-.08-1.67-.85-1.79-1.81-.25-1.97-.45-3.96-.5-5.95-.07-2.61.02-5.22.07-7.83.02-1.23.03-2.47.18-3.68.18-1.42.9-2.01,2.3-2.11,1.23-.09,2.23.58,2.51,1.9.2.97.16,1.99.2,2.98.05,1.38.07,2.77.11,4.15.04,0,.08,0,.13,0ZM84.4,68.03c1.06-1.88,1.01-12.01-.01-14.43,0,4.81,0,9.62.01,14.43Z"/>
    <path d="M121.83,151.96c.15-2.99.25-5.99.49-8.98.11-1.4,1.22-2.22,2.62-2.25,1.29-.03,1.67.91,1.98,1.9,1.25,3.95,1.55,8.04,1.25,12.12-.13,1.77-1.07,3.5-1.77,5.19-.33.8-1.1,1.51-2.01,1.17-.7-.26-1.41-.91-1.77-1.58-.38-.71-.42-1.63-.47-2.47-.1-1.69-.1-3.39-.14-5.09-.06,0-.12,0-.19,0ZM124.75,158.51c2.09-3.65,1.89-12.22-.23-15.06-.76,2.28-.65,12.65.23,15.06Z"/>
    <path d="M96.69,147.22c-.03-1.22-.19-2.46-.06-3.66.19-1.68,1.43-2.23,2.77-1.19.81.63,1.57,1.52,1.97,2.46.73,1.73.68,3.61.14,5.4-.49,1.62-1.76,2.39-3.1,2.04-1.05-.28-1.78-.85-1.78-2.06,0-.99-.04-1.99-.07-2.98.04,0,.09,0,.13,0ZM98.78,149.92c1.46-2.06,1.32-3.6-.12-4.91.04,1.67.08,3.29.12,4.91Z"/>
    <path d="M84.59,152.73c.16,1.97.12,4.43-.78,6.79-.44,1.15-.84,2.54-2.35,2.49-1.45-.04-2.03-1.36-2.32-2.55-.33-1.33-.51-2.73-.51-4.09.01-3.07.18-6.14.29-9.22.01-.38.02-.79.14-1.14.35-.97.41-2.2,1.89-2.25,1.34-.05,2.55.69,2.9,2.15.34,1.41.48,2.88.62,4.33.1.99.06,2,.1,3.5ZM81.28,145.22c-.24,4.63-.99,9.21.12,13.79.99-1.12,1.18-2.45,1.12-3.81-.16-3.36.19-6.79-1.24-9.99Z"/>
    <path class="cls-8" d="M92.62,120.9c1.94,1.79,1.97,2.6.37,5.28-1.52-.92-1.63-2.17-.37-5.28Z"/>
    <path class="cls-8" d="M72.1,114.63c1.08,1.67,1.06,2.12-.05,4.1-1.07-1.32-.93-2.56.05-4.1Z"/>
  </g>
</svg>