<?xml version="1.0" encoding="UTF-8"?>
<svg id="Layer_1" data-name="Layer 1" xmlns="http://www.w3.org/2000/svg" viewBox="0 0 180 200">
  <defs>
    <style>
      .cls-1, .cls-2, .cls-3 {
        fill-rule: evenodd;
      }

      .cls-1, .cls-4 {
        fill: #fff;
      }

      .cls-2 {
        fill: #231f20;
      }

      .cls-4 {
        font-family: AmericanTypewriter-Bold, 'American Typewriter';
        font-size: 20.52px;
        font-weight: 700;
      }

      .cls-3 {
        fill: #6d2c90;
      }
    </style>
  </defs>
  <polygon class="cls-3" points="28.67 84.41 5.1 118.91 6.28 120.39 51.23 118.83 35.08 89.17 30.27 83.56 28.67 84.41 28.67 84.41"/>
  <path class="cls-2" d="M26.78,88.89c-.85.37-.24-.86-1.09-.48-.41.14-.18.86-1.04.59-.33,1.4-.66,2.8-1.98,3.31-.31,1.48.75,1.41,1.18,2.08-1.86,1.36-1.87,5.71-5.15,4.27.3.79,1.28.83,1.43,1.8-.71.36-1.23.5-1.58.61,1.14.93-.3.7-.74,1.38-1.14,1.77-1.76,4.56-3.76,5-.07,1.3-.54,2.23-1.75,2.49.67,1.38-.39.2-.76.85,1.72.32-1.1,1.17.1,1.87-1.9.4-1.43,2.94-2.75,3.88-.17-.46.25-1.59-.34-1.59,0,.42.09.93-.49.83-.28.88.87.16.59,1.04-1.11.27-.91,1.73-1.48,2.48,2.78-.61,7.3-.66,10.41-.52.05-.2-.02-.53.24-.55,10.36.95,18.61-.66,31.25-1.01-.58-2.8-3.05-4.15-4.03-5.69-.32-2.37-2.56-2.61-2.66-5.22-1.2.18-1.03-.95-.88-1.55-1.06.02-2.03-1.7-1.17-2.09-.84.45-.9-.16-1.63-.46-1.93-5.83-6.53-9.94-8.74-14.54.01.27-.45.36-.53.02.33-.05.63-.11.51-.56-.75.25-.71-.34-1.35-.2-1.29,1.8-1.87,4.25-4.02,5.28.56.91-.2,1.29-.7,1.91-.32-1.06-.07-2.08.39-2.96.44-.02.18.73.57.77.06-1.15.97-3.33,1.76-2.23-.03-.37.09-.59.22-.81h0ZM42.37,101.22c1.58.23,1.16,2.65,2.82,2.8.04,1.73.93,2.54,2.02,3.11-.13,1.82.91,2.38,2.01,2.84.13.45-.18.51-.5.56.38.36,1.26.61.6,1.31.21-.15.43-.3.79-.3.12.53-.01.83-.49.82.53.68,2.07,2.14,1.2,2.62.27.45.87.55,1.62.45.15,2.18,1.35,3.2,1.35,5.55-.25-.15-1.01-.57-.78.3-.48-.5-1.86,0-1.92-.97-.59,1.05-1.83-.7-3.17.69-.81.14-.6-.84-.87-1.3-.76.27.38.66.07,1.34-.21-.17-.9-1.08-.8.04-3.73-.26-9.26-.28-12.56.09-.02-.26-.03-.53-.04-.8-1.21.71-2.61.85-3.74.18-.72,1.04-5.69,1.08-7.21.36-2.94,1.69-9.46.1-10.88,1.88-2.3-1.29-6.26.16-9.14-.89-.27-.84.18-1.03.46-1.36-1.08-.04-.45-.21-.62-1.84,1.24-.4,1.76-1.46,1.73-3.03,1.24.2.54-1.37,1.81-1.16-.23-.81-.21-.5-.06-1.33,1.81.2.72-2.24,2.29-2.25-.18-.26-.63-.24-.57-.77,1.08.29.5-.91,1.57-.61-.02-.45-.05-.89-.07-1.34.23-.22.59-.32,1.05-.32,1.56-4.03,4.5-6.8,6.16-10.74.92-.02,1.21-.6.99-1.65.78.03.79-.64,1.58-.61.65-3.58,4.05-4.66,4.68-8.26,2.93-.66,2.23-4.61,5.08-5.33-.18-.26-.63-.25-.58-.77.88-.05,1.31-.52,2.39-.39,1.2.85-.31,1.38,1.4,1.27-1.1,1.2.35,4.73,1.55,4.2.39.07.07,2.02,1.42,1.8-.14.83.33.96.35,1.59,3.43,2.86,4.09,8.8,7.53,11.66.12.45-.19.52-.51.56h0Z"/>
  <g>
    <path class="cls-1" d="M128.48,95.13c-.38.6-.79,1.17-1.47,1.47.39-.59.77-1.19,1.47-1.47h0Z"/>
    <path class="cls-2" d="M90.69,118.56c-2.17,2.32-5.1,3.87-6.79,6.67,4.75,1.48,7.6-1.7,7.13-6.56-.15,0-.16-.15-.34-.11h0ZM83.34,114.49c-.57.17-1.96,1.03-2.94,1.81-1.1.87-2.05,2.13-2.6,3.28-1.89,3.97-2.14,8.34-.34,12.1,1.63-2.03,3.04-4.27,4.64-6.33-.27-.55-1.31-.72-.9-1.59.93-.06,1.17.56,1.81.8.62-.56,1.04-1.29,1.47-2.04.23.06.22.34.45.11,1.86-1.83,3.86-3.53,5.66-5.43-1.02-2.25-4.64-3.51-7.24-2.72h0ZM92.39,117.2c-.1.83.69,2.09.68,2.94-.03,2.55-1.89,4.49-3.39,5.66-.5.39-.88.97-1.7,1.13-1.88.39-3.36-.38-4.98-1.02-1.83,1.98-3.54,4.08-4.64,6.79,1.38,1.26,2.84,2.73,5.09,2.94,2.68.25,4.95-1.11,7.01-2.04,5.47-3.7,5.95-11.95,6.11-20.48,0-.07-.02-.13-.11-.11-.34,1.01-3.93,3.02-4.07,4.18h0ZM103.93,100.69c-.59-.93-1.21-.12-2.04-.45-1.72,1.67-2.06,5.09-2.26,7.92,2.2-1.71,4.14-3.7,4.3-7.47h0ZM77.91,134.06c-1.13.94-1.22,2.93-1.7,4.52-.44-.02-.52-.38-1.02-.34.21-1.03.37-2.23.79-3.39.22-.62.82-1.21.79-1.81-.03-.6-.63-.9-.9-1.36-1.02-1.69-2.08-5.63-1.58-8.03.27-1.3,1.21-3.31,1.81-4.52.79-1.61,2.3-3.22,3.85-4.41,1.35-1.05,2.74-2.13,4.64-2.26,1.25-.09,3.47.53,4.64,1.13,1.17.6,1.78,1.47,2.49,2.49.96-.7,1.85-1.45,2.72-2.26.67-.64,1.97-1.72,2.26-2.72.12-.42-.02-.92,0-1.36.05-1.29.29-3.12.57-4.64.68-3.61,1.95-5.75,6.11-5.99.81.48,1.46,1.17,1.36,2.6-.24,3.29-3.45,6.3-5.21,8.03.25,2.09-.29,4.18-.56,6.33-.17,1.31.14,2.63-.11,3.96-.24,1.24-.4,2.67-.79,3.96-.83,2.76-1.17,4.2-2.72,6.22-.63.82-1.29,1.85-1.81,2.37-.33.34-.94.54-1.36.91-2.09,1.83-5.54,4.71-9.16,3.51-.37-.12-.6-.51-1.02-.68-.42-.17-.91-.08-1.25-.23-.98-.45-1.73-1.56-2.83-2.04h0Z"/>
    <path class="cls-2" d="M108.12,127.16c.79-.76,2.11-.98,2.6-2.04-1.11.44-2.42.68-2.6,2.04h0ZM112.42,116.08c-.07.77-.9.81-1.36.9-.58,1.08-2.13,1.18-2.71,2.27,1.19-.03,2.57.25,3.85.68,1.6,3-.49,5.9-2.04,8.26-.77-.02-1.09.42-1.92.34-.57-.41-1.07-.89-1.36-1.58.32-2.36,2.93-2.63,4.64-3.28,1.59-3.82-3.13-3.41-4.19-1.24-.37,2.87-1.6,5.4-2.49,8.03-.87,2.58-2.21,4.86-3.17,7.24-1.94,4.84-4.79,9.21-8.71,12.22-.2.48-.58.78-.79,1.25-1.04.46-1.47,1.36-2.72,1.35-4.76,4.31-12.37,7.77-20.14,7.24-3.63-.24-6.88-1.21-9.39-2.83-1.37-.88-2.92-1.69-3.73-2.6-.44-.5-.74-1.28-1.25-1.92-.41-.52-1.11-.93-1.47-1.47-.67-.99-1.19-2.73-1.7-4.07-.21-.57-.54-1.39-.68-2.15-.1-.57-.56-1.93.57-2.04.14,2.51,1.35,4.05,2.26,6.11,3.06,6.9,9.65,10.6,19.12,9.84,1.72-.14,3.58-.63,5.32-1.02,1.39-.31,2.78-.99,4.07-1.7,2.43-1.34,3.96-2.05,5.88-3.62,2.9-2.36,5.36-4.85,7.47-7.81,2.18-3.07,4.03-6.27,5.77-9.5,1.29-3.68,2.77-7.19,3.62-11.31-.55.54-.85,1.33-1.24,2.04-1.02.47-2.38,2.55-3.51,1.47-.05-.66.74-.47,1.02-.79,1.12-1.22,2.31-2.4,3.28-4.19,1.35-2.48,1.77-5.66,4.75-6.34.85-.19,2.27-.48,2.94.23h0Z"/>
    <path class="cls-2" d="M152.81,102.26c-4.59,2.75-8.29,6.73-11.65,10.75-1.64,1.95-3.41,5.01-1.47,6.79,3.58-1.61,5.82-4.35,8.03-7.47,1.32-1.85,2.83-3.67,3.62-5.55.22-.53.29-1.21.57-1.81.42-.93,1.27-1.88,1.02-2.72h-.11ZM50.19,96.14c-.3-.76-.23-1.88-.68-2.49.04,1.08-.01,1.9.68,2.49h0ZM113.89,96.26c.42.41.74.91,1.25,1.25,1.73-.68,2.68-2.75,2.26-5.2-.89,1.6-2.58,2.39-3.51,3.96h0ZM95.1,90.6c-.4-.34-1.14.88-1.47,1.36,1.27-.54,2.27-1.36,2.83-2.61-.76.11-1.19.54-1.36,1.25h0ZM155.29,91.62c-.66.49-1.5,1.35-1.25,2.37.5.39,1.03.31,1.81.23,1.25-1.47,2.47-2.96,3.06-5.09-1.97.07-2.87,1.21-3.62,2.49h0ZM115.24,79.06c-1.93,1.01-3.16,3.16-4.52,5.32-1.76,2.78-2.8,5.56-3.17,9.05,1.02-.55,1.79-1.59,2.6-2.49,2.56-2.85,4.55-6.37,6.45-9.73-.16-.71-.04-1.7-.45-2.15-.21.04-.81-.05-.9,0h0ZM118.18,96.94c2.79-1.29,3.48-4.67,5.09-7.13.35,0,.44.24.68.34,1.71-1.67,5.34-.54,6,1.47,1.34-.7,2.3-2.25,4.3-1.93.4.25.27,1.01.68,1.25.84-1.06,3.78-1.97,4.53-.23,1.2-.16,1.32-1.39,2.49-1.59.47,1.15-.46,3.87.45,5.32,1.83-1.56,1.49-5.31,4.19-6,.28.55.24,1.42.57,1.92.37-1.06,1.8-1.07,3.17-1.13,1.12,1.23,1.2,3.22.91,5.43,2.47-1.91,3.2-7.11,8.03-6.67.55-.66.74-1.67,1.24-2.38,2.14.69.58,2.87,0,4.52-.38,1.09-.63,2.16-1.02,3.05-.89,2.08-1.93,4.02-2.6,5.66,2.67-.12,5.68-2.01,8.83-1.7.74.07,2.36.31,3.17.57,1.86.59,2.64,2.12,3.73,3.62.49,1.61.46,3.32-.11,4.98-1,2.87-2.93,4.82-5.32,6.34-1.41.89-2.44,1.36-4.07,1.24-.39-.21-.31-.71-.91-.45-1.61-1.43-3.12-4.56-1.58-6.9.95.13.35,1.21.34,1.92-.02,1.18.3,2.38.79,3.06,1.15,1.24,2.51,1.16,4.19.22,1.02-.57,2.45-1.4,3.28-2.15,1.02-.92,2.54-3.35,2.72-4.53.25-1.74-.31-3.51-1.02-4.98-2.13-2.63-6.83-2-10.18-1.13-1.6.42-3.79.84-4.53,1.36-.61.43-1.32,2.57-1.81,3.74-.61,1.46-1.19,2.71-1.7,3.73-1.7,3.49-3.74,6.51-6.33,9.05-2.19,2.15-3.99,3.75-7.01,5.09-3.88.19-3.53-5.31-1.92-7.69.22-.33.71-.62,1.02-1.02.31-.39.48-.89.79-1.25.34-.4.87-.54,1.25-.9.83-.8,1.39-1.93,2.04-2.61.77-.8,1.85-1.4,2.71-2.15,1.75-1.5,3.45-2.77,5.43-4.07,1.33-.87,2.8-1.5,3.85-2.49.6-1.81,1.55-3.27,2.26-4.98-.9.69-3.28,1.25-3.85-.45-1.05.57-1.42,2.13-2.83,1.7-.32-1.87.32-4.69-1.13-5.43-1.49-.17-2.13,2.14-2.38,3.85-.09.64.25,1.53-.45,1.7-1.15-.71-.13-2.54,0-4.07.05-.57-.03-1.05,0-1.58-1.79,1.86-1.95,6.8-5.77,5.54-.58-1.1-.25-2.76,0-3.96-1.11.83-2.57-.17-2.94-1.36-.99.33-1.91.81-2.38,1.7-.75,1.42-.52,3.69-1.92,4.53-1.23-1.39,1.86-5.33-.45-5.54-1.17-.11-1.49,1.25-2.38,1.7-.39,2.74-2.01,5.32-4.75,4.98-.66-2.69,3.17-3.5,3.28-5.09.13-1.77-2.45-2.44-3.85-1.47-.37.26-1.07.97-1.13,1.47-.41,3.48-1.96,8-3.06,11.2-.72,2.11-1.7,4.24-2.38,6.34-.35,1.08-.28,2.52-1.25,3.05-.85-.52-.22-1.69,0-2.38.74-2.3,1.63-5.05,2.15-7.58,1.17-2.83,1.67-6.32,2.72-9.28-.96,1-2.17,2.74-3.51,3.73-2.07.63-4.9,2.12-5.54-.79-.91.33-2,1.22-3.39,1.13-1.25-.08-2.81-.89-3.06-2.26-.62.43-1.12.73-1.81.57-1.06.58-2.1,1.53-3.39,1.36-1.58-.21-2.13-2.15-2.26-3.96-1.32,1.56-3.47,4.85-6.45,3.73-.81-.92-1.41-2.06-1.47-3.73-.2-.22-.79-.05-.79-.45.01-.63.95-.33,1.25-.68,1.29-1.89,2.5-5.5,5.66-4.41.29,3.47-2.97,4.94-4.98,6.1-.15,1.07.31,2.24,1.24,2.38,2.15.33,3.36-2.99,4.75-3.73,4.6-8.94,10.82-16.26,18.89-21.72.37-2.01,1.14-4.39,2.49-6.11,1.36-1.72,3.61-3.62,6.22-2.26-.37.72-1.44.14-2.15.23-.66.08-1.28.49-1.81.9-1.78,1.39-3.48,4.1-3.73,6.68,1.74-.53,5.22-.56,6.79.57.49,1.09.22,2.68-.45,3.51-.78-.15-.64-1.68-.34-2.26-1.26-1.3-3.86-.84-5.88-.45.43,3.95,2.45,6.3,7.13,6,.38,0,.47-.29.68-.45,1.93.42,3.92-1.04,4.98-2.38,2.21-2.78,4.43-7.31,4.3-11.2-.1-2.93-2.25-6.28-4.19-7.92-1.19-1-2.29-1.27-3.85-2.04-5.29.19-12.82.11-16.4,3.51-.35.03-.64.11-.9.23-6.8,4.43-10.96,11.51-15.84,17.87-1.49,4.21-4.29,7.87-5.77,12.11-.5,1.42-.85,2.57-1.58,3.85-.66,1.16-1.18,2.39-1.81,3.51-1.07,1.9-2.7,3.35-4.86,4.19-1.01-.43-1.84-.73-2.04-1.93-.46-2.82.08-6.91-.11-10.18-.2-3.36.35-8.25.68-11.09-.98.98-1.37,2.44-1.92,3.85-1.39,3.5-2.93,7.4-4.53,11.2-1.2,2.85-1.69,6.87-5.2,7.35-3.82-4.83-1.05-13.27.68-18.78,1.45-4.63,3.84-8.86,5.43-13.46-1.16.27-1.31,1.29-2.15,2.15-.44.45-1.11.67-1.58,1.13-1.26,1.2-2.45,2.7-3.85,4.08-3.5,3.45-6.85,7.37-9.96,11.31-.69.87-1.08,1.8-1.7,2.72-1.03,1.54-2.83,3.37-3.17,5.32-.36,2.13,1.46,3.71,2.72,4.3,2.04.62,3.69-.91,5.09-.34-.44,1.78-2.9,2.16-4.64,2.03-.73-.05-1.77-.18-2.38-.45-2.34-1.03-3.62-4.24-2.6-7.58.22-.71.87-1.88,1.36-2.6,1.47-2.17,3.49-4.37,5.32-6.56,1.79-2.14,3.59-4.27,5.54-6.22,4.09-4.09,7.98-8.45,12.33-11.2,1.48-1.16,1.8-4.08,4.41-3.73.37.89-.48,1.39-.79,2.04-1.04,2.16-2.03,4.63-3.17,7.13-1.06,2.33-2.17,4.84-2.94,7.35-.78,2.57-1.72,5.14-2.49,7.81-1.12,3.85-2.8,8.38-1.24,12.56,2.05-.28,2.98-3.14,3.85-5.43.68-1.8,1.27-3.76,1.92-5.43.65-1.67,1.43-3.43,2.15-5.2.76-1.85,1.17-3.8,1.92-5.32.67-1.34,1.35-2.75,2.04-4.07.65-1.26,1.38-2.77,2.83-3.17.82,1.82-.51,3.65-1.02,5.55-.68,2.54-.91,5.58-1.25,8.37-.59,4.97.21,10.17.34,15.16,1.06-.03,1.36-.83,2.26-1.02,3.27-3.87,4.95-9.17,7.13-14.03,1.22-2.72,3.02-4.82,3.96-7.8,5.38-7.85,10.79-15.68,19.35-20.36,1.33-.14,2.19-.75,3.17-1.25,2.45-.53,4.71-1.13,7.35-1.13,5.9,0,10.28,2.71,12.33,7.13,1.18,2.55,1.43,3.37,1.02,6.22-.4,2.82-1.63,7.44-3.17,9.39-.42.53-1.74,1.69-2.38,2.15-1.17.85-2.1,1.24-3.84,1.36-2.09.14-4.33.67-6.34-.34-2.04-1.03-2.87-2.79-3.39-5.66-1.42.52-2.61,1.74-3.85,2.72-2.58,2.04-4.09,4.24-6.22,6.9-2.03,2.53-4.04,4.59-5.88,7.47-.8,1.26-1.76,3.2-1.7,4.86.03.84.63,2.29,1.13,2.49.52.22,4.88-1.72,5.32-2.49.6-1.07.34-3.34.68-4.86.71-3.23,2.61-6.7,4.52-8.94,1.35-1.58,3.78-4.71,6.34-2.72.33,3.51-1.62,5.7-3.28,7.58-.08.95-.78,1.74-1.36,2.49-1.19,1.55-2.24,2.63-3.62,4.3-.52.62-1.62,1.58-1.7,2.15-.13.91.87,2.22,1.7,2.38,1.32.25,2.58-.74,3.28-1.47,1.72-1.81,3.89-4.62,5.2-6.45,1.8,1.26,1.64,5.47.23,7.36.02.09-.04.11-.11.11v.11h0Z"/>
    <path class="cls-2" d="M116.6,127.27c1.3.68,3.71-1.17,4.07-2.94.09-.43-.02-1,0-1.47.04-.72.48-1.74-.22-2.15-3.22.34-4.34,3.15-3.85,6.56h0ZM130.41,115.96c-1.83,3.45-4.16,6.97-3.4,12.33,4.59-.81,7.14-7.93,5.66-12.78-1-.42-1.49.31-2.26.45h0ZM132.9,114.49c1.13,1.15,1.16,3.55,1.02,5.2-.4,4.49-3.15,7.99-6.45,9.5.09,2.18,1.96,3.82,3.96,4.07.56.07,2.15-.45,2.04.68-2.44,1.12-5.26-1.06-6.68-2.71-.08-.53-.07-1.12-.34-1.7-2.95.43-5.2-.64-5.54-3.17-1.35,1.82-6.11,4.53-6.56.23-.23-2.22,1.24-4.53,2.49-6.11,1.02-1.29,2.43-1.23,4.07-.79.25-.2.02-.88.22-1.13.67-.2,1.04-.7,1.92-.68.24,2.39-1.77,6.03-.68,8.6.54,1.26,2.12,2.39,3.85,2.04-.07-6.42,1.32-13.42,6.68-14.03h0Z"/>
  </g>
  <text class="cls-4" transform="translate(17.49 114.6) scale(.79 1)"><tspan x="0" y="0">63</tspan></text>
</svg>