<?xml version="1.0" encoding="UTF-8"?>
<svg id="Layer_1" data-name="Layer 1" xmlns="http://www.w3.org/2000/svg" viewBox="0 0 180 200">
  <defs>
    <style>
      .cls-1, .cls-2, .cls-3, .cls-4, .cls-5, .cls-6 {
        fill-rule: evenodd;
      }

      .cls-1, .cls-7 {
        fill: #fff;
      }

      .cls-2 {
        fill: #231f20;
      }

      .cls-7 {
        font-family: AmericanTypewriter-Bold, 'American Typewriter';
        font-size: 20.52px;
        font-weight: 700;
      }

      .cls-3 {
        fill: #353435;
      }

      .cls-4 {
        fill: #6d2c90;
      }

      .cls-5 {
        fill: #8d8f91;
      }

      .cls-6 {
        fill: #4c883f;
      }
    </style>
  </defs>
  <g>
    <path class="cls-5" d="M152.87,79.1c.15.26.3.82.45,1.25.23.66.49,1.35.8,2.06.46,1.04,1.07,2.61,1.2,4.01.11,1.14-.31,2.51-.45,3.51-.07.55.03,1.09-.25,1.41-.37.11-.76.09-1.2,0-.84.17-1.63.63-2.36.75-.06-.27.18-.46.25-.7.13-.41.05-.87.15-1.31.09-.4.32-.75.4-1.15.25-1.19.17-2.84.6-3.96-.19-.41-.05-1.15-.55-1.25-.31.02-.24.3-.5.25.23.66-.09,1.12-.25,1.55-.22.59-.22.88-.45,1.3-.62,1.15-1.43,2.37-2.25,3.36-.12.03-.08.22-.3.15-.57.78-1.01,1.69-1.8,2.25-.08.15-.17.3-.25.45-1.22.78-2.16,1.53-3.81,1.85.34-.97.97-1.64,1.3-2.71.45-1.44-.06-3.11.1-4.61.15-1.36.48-2.21,1.2-3.06.35-.41.75-.92,1.1-1.15.41-.28.96-.26,1.4-.55,1.04.05,1.63-.44,2.55-.9.72-.35,1.31-.48,1.76-1,.42-.5.73-1.31,1.15-1.81h0Z"/>
    <path class="cls-5" d="M61.61,77.62c.02-.1.11-.13.1-.25-.03-.03-.24-.12-.25,0,.27-.03.04.21.15.25h0ZM86.77,60.24c-.16-.03-.61-.27-.65.05.45-.03.71.09,1.25.15.5.46.87,1.07,1,1.75.18.94.23,2.09-.4,2.66-.14.12-.32.1-.45.25-.17.19-.22.52-.4.75-.11.14-.29.22-.4.35-.35.46-.58,1.03-.9,1.55-.23.37-.61.67-.85,1.05-.41.66-.71,1.36-1.25,1.91-.25.25-.67.5-.95.8-.36.38-.57.88-1.1,1.05-.01.14-.1.21-.1.35-1.24.61-1.7,2-2.81,2.75-.36-.14-.72-.25-1.1-.25-.21-.4-.48-.78-.6-1.25-.02-.08.04-.26,0-.35-.14-.3-.58-.43-.7-.75-.07-.18.1-.32-.05-.5-.28-.01-.46.07-.6.2-.93.11-1.55.79-2.2,1.25-.48.34-1.02.62-1.41.9-.35.25-.53.66-.9.8-.68.69-1.61,1.22-1.95,2.1-.19.01-.01-.04-.05-.15-.36.08-.57.3-.7.6-.61.27-1.17.68-1.51,1.35-.04-.02-.08-.05-.15-.05-.18.5-.97.75-1.05,1.5-.14-.04-.13.07-.25.05-.1.27-.04.45-.15.65-.06,0-.04-.09-.05-.15-.12.2-.21.58-.35.9.01.07.15.01.15.1-.29.52.36.97.8.9v.2c.53.26,1.02.22,1.25.6,1.11.2,2.21.94,3.41,1.05.86.42,2.09.4,3.2.5,1.21.28,2.58.59,3.81.9.93.24,2.1.51,2.81,1.05.46.36.91.95,1.45,1.35.63.92,1.43,1.79,2.15,2.7.41.51.56,1.12.75,1.9.15.61-.04,1.25-.15,2.06-.03.18.04.34,0,.5-.05.19-.24.33-.3.5-.18.53-.25,1.1-.35,1.6-.15.08-.16.28-.3.35-.51,1.79-1.61,3-2.46,4.46-.44.37-.68.93-1.1,1.31-.89.22-1.09,1.11-1.8,1.5-1.16,1.13-2.54,2-3.66,3.06-.09-.05-.17.15-.2,0-1.34,1.18-3.21,1.83-4.66,3.11-.95.21-1.72,1.02-2.71,1.35-.28.03-.71.04-.95.25-.07-.05-.18-.04-.2-.15-.64.2-1.5.18-2.1.4-.56-.21-1.52.13-2.31,0-.24-.04-.45-.18-.65-.2-.17-.02-.36.06-.55.05-.77-.06-1.6-.28-2.4-.4-.11-.16-.28-.26-.55-.25,0-.14-.11-.19-.2-.25-.09,0-.17.03-.2.1-.18-.37-.62-.21-.8-.6-.36.24-.75-.36-1.15-.35-.14-.38-.72-.31-.9-.65-.58.04-.98-.32-1.36-.75-.05,0-.04.06-.05.1-.09-.08-.12-.22-.2-.3-.17-.02-.28.02-.4.05-.04-.43-.4-.24-.45-.65-.05,0-.04.06-.05.1-.13-.08-.23-.17-.25-.35-.87-.4-2.03-1.04-1.81-2.2-.11-.18-.18-.39-.4-.45-.07-.06-.07-.23,0-.3.03-.16-.23-.03-.25-.15.06-.15.23-.04.2-.35-.03-.15-.11.05-.2,0-.18-.92-.48-1.87-.2-2.6-.14-.26-.04-.57.1-.65-.06-.14-.14.08-.2.1.04-.36.45-.72.45-1.15.41-.15.61-.84,1.3-.85.32.18.35.58.55.85.1.14.29.22.4.35.7.76,1.03,1.8,1.65,2.66,1.1,1.09,2.21,2.17,3.51,3.06,1.03.12,2.2.25,3.31.55.3.08.54.3.8.35,1.4.25,2.97-.06,4.36-.35,1.32-.27,2.41-.81,3.51-1.25.79-.33,1.55-.73,2.2-1.15.67-.85,1.84-1.04,2.71-1.75.8-.65,1.57-1.26,2.45-1.81.3-.61.79-1.1,1.05-1.8.1-.27.1-.57.2-.85.49-1.38,1.02-2.74.85-4.61-.02-.21-.17-.41-.2-.6-.04-.28.1-.63-.05-1-.26-.64-.94-1.23-1.45-1.8-.11-.12-.15-.3-.25-.4-.3-.29-.84-.5-1.25-.8-.47-.35-.68-.64-1.15-.8-.3-.03-.62-.05-.7-.3-1.61-.41-3.54-1.46-5.11-1.35-.1.01,0-.14.05-.15-.05-.08-.23-.04-.25-.15-.14.15-.19.07-.35.2-.15-.06.03-.19.05-.25-.12-.22-.65-.28-.85-.15.15.18.33.02.6.05-.46.53-.79-.42-1.2-.25-.07-.04-.11-.12-.1-.25-.07.14-.22-.11-.2.1-.06,0-.04-.09-.05-.15-.44.11-.63-.32-.95-.2-.09.1-.1.3-.3.3.01-.1.14-.1.15-.2-.08-.14-.46-.22-.5,0-.13-.06-.03-.32.15-.25-.35-.27-.75-.13-1.3-.05-.05-.21.33,0,.3-.2-.3-.02-.6-.13-.65-.4-.34.11-.58-.14-.8-.3-.05.04-.08.09-.1.15-.11,0-.02-.18-.05-.25-.29.01-.16-.01-.5.05,0-.13.09-.1,0-.2-.46-.06-.61-.38-.95-.3-.3-.24-.84-.45-1.25-.65.16-.23-.14-.38-.25-.5.07-.25-.11-.35-.15-.55-.05-.29.08-.54.05-.8-.02-.22-.26-.44-.25-.65.03-.47.81-.69.5-1.25.04,0,.05.05.1.05-.04-.15-.07-.43.1-.55.09-.06.12.09.2,0,.16-.19.21-.52.4-.75.04-.04.17-.05.2-.1.05-.07-.05-.11,0-.2.06-.11.22-.05.3-.15.17-.2.07-.58.3-.7.16.02.18-.09.35-.05-.07-.25.05-.63.4-.6-.11-.2.03-.34.3-.3-.08-.32.24-.61.55-.7.1.12-.08.2.05.3.18,0,.19-.27.05-.3.05-.21.34-.11.2-.4.29.04.26-.24.35-.4.5-.2.82-.59,1.05-1.05.35.08.55-.41.7-.7.47-.14.43-.57.85-.55,0-.18.18-.18.15-.4.08-.01.09.05.15.05-.06-.31.31-.44.55-.7.1.02,0,.23.2.15.15-.03-.05-.11,0-.2.66-.52,1.31-1.06,2.1-1.45.67-.77,1.83-1.04,2.41-1.9.79-.4,1.5-.87,2.1-1.45.39,0,.65-.35.8-.2.06-.04.29-.18.15-.25.93-.54,2.24-1.13,3.06-1.95.37.06.43-.21.75-.2.07-.04.11-.13.1-.25.47-.16.89-.39,1.15-.75.93-.39,1.58-1.09,2.5-1.5.45-.54.96-1.01,1.66-1.31.1-.01.1-.13.15-.2,1.06-.33,2.13-.73,3.11-1.15-.15-.21-.03-.39-.15-.65.24.22.35.09.75.1.08.24.01.32.05.6h0Z"/>
    <path class="cls-5" d="M92.43,108.99c1.39-.34,2.4-1.23,3.41-1.95.6-.43,1.21-.84,1.76-1.31,1.08-.92,2.2-1.8,3.46-2.5.05-.35.39-.3.55-.4.1-.06.19-.23.3-.3.73-.47,1.26-.94,1.9-1.4.52-1.06,1.25-1.48,1.86-2.3.05-.41.36-.54.5-.8.11-.2.09-.46.2-.7.08-.18.3-.31.4-.5.21-.42.32-1.05.45-1.65.16-.75.53-1.44.05-2.15-1.34-.44-2.32.06-3.51.1.03.15-.13.14-.2.2-2.83.45-4.7,1.56-6.97,2.56-.23.31-.44.62-.7.9-.45,1.28-.78,2.68-1.3,3.96-.17.41-.42.83-.55,1.25-.26.84-.39,1.71-.65,2.55-.12.38-.3.73-.4,1.1-.38,1.35-.81,2.51-1.15,3.71.23-.09.47-.17.6-.35h0ZM121.39,104.88c.64-.68,1.35-1.3,2.06-1.9.02-.46.47-.5.5-.95.66-.38,1.1-1.33,1.5-2.06.27-.5.53-.95.7-1.4.29-.78.55-1.61.65-2.5.19-1.65.41-4.01-.7-4.56-.36-.17-.68.02-1.05.05-.15.01-.3-.11-.45-.1-.65.05-1.06.69-1.6.75-.09.34-.44.44-.65.7-.57.73-1.04,1.8-1.45,2.86-.11.27-.31.51-.4.8-.54,1.64-1.05,3.03-1.31,4.96-.16,1.23-.42,2.3-.4,3.66.14.16.15.45.3.6,1.03,0,1.43-.63,2.3-.9h0ZM125.35,105.43c-2.42,1.63-4.34,4.26-7.97,4.21-.46-.29-1.02-.24-1.4-.4-.71-.29-1.06-.85-1.5-1.46-.02-.13-.09.07-.2,0,.09-.2-.19-.43-.45-.45-.14-.27-.15-.85-.55-.7-.04-.18.07-.19.05-.35-.54-.37-.56-1.35-.4-1.91-.02-.17-.14.18-.15,0-.08-.1.04-.25.05-.3-.03-.15-.11.05-.2,0-.1-1.35-.02-2.31.45-3.41-.16-.82.63-1.48.55-2.35.13.03.18-.02.16-.15-.48.1-.79.55-1.16.85-1.15.95-2.55,1.87-3.56,3.01-.32.18-.59.41-.8.7-1.51.48-2.36,1.62-3.56,2.41-1.64,1.88-3.87,3.18-5.46,5.11-1.92,1.4-3.55,2.95-6.16,3.56-.24.17-.51.33-.85.4-.33.39-.63.81-.8,1.35-.16.02-.1.27-.3.25-.14.65-.56,1.13-.95,1.71-.33.48-.58,1.12-.95,1.51-.15.15-.38.65-.6,1-.1.15-.26.29-.35.45-.06.11-.03.3-.1.4-.01.02-.07-.12-.1-.1-.11.06-.21.45-.3.45-.02.17.25.06.15.3-.01.22-.37.09-.4.3.04.04.33-.04.3.2-.07,0-.14,0-.15.05-.06.26-.15-.22-.3-.2-.05.24.02.67-.1.95-.15-.01-.16.11-.3.1-.13.13-.18.35-.4.4-.14.73-.59,1.15-.7,1.9h-.2c.16.24-.2.25-.05.5-.06.06-.08.02-.15,0-.29.84-.66,1.61-1.15,2.25-.08.11-.05.51-.2.4.05.32.03.48-.2.6-.07.06-.05.21-.05.35-.92,1.53-1.3,3.28-2.15,4.86,0,.37-.17.54-.1.85-.22-.04-.3.49-.25.6-.14.13-.32.31-.2.55-.17,0-.43.5-.25.7-.28.22-.34.67-.55.95.08.09.01.32.15.35-.03.14-.14.2-.3.2.12.41-.23.72-.25,1.15h-.15c-.07.79-.58,1.24-.5,1.8-.16.12-.29.27-.25.6-.41.13-.21.55-.25.8-.06.33-.32.59-.4.9-.09.34-.03.74-.1,1.1-.08.41-.25.76-.35,1.21h-.2c-.16.64-.54,1.04-1,1.5-.11.03-.07-.1-.15-.1-.15.18-.6.33-.9.3-.15-.01-.33-.13-.6-.2-.53-.15-1.08-.44-1.2-.85-.16-.55.08-.85.15-1.3.01-.04-.1-.13-.1-.15-.02-.56.39-1.17.35-1.81.35-.29.29-.74.4-1.15.22-.83.7-1.61.95-2.45.12-.42.12-.85.25-1.25.2-.62.5-1.16.6-1.75-.05-.16.16-.07.15-.2,0-.75.37-1.4.6-2.05.12-.35.2-.75.3-1.05.32-.94.54-2.34,1.05-3.36.28-1.61.91-3.3,1.5-4.76-.09-.9.67-2.06.9-3.16.07-.33.05-.6.3-.8.27-1.21.59-2.14,1.05-3.21,0-.65.27-1.04.5-1.45,0-.13.02-.29-.05-.35.4-1.2,1.01-2.61.85-4.16-.55-.31-1.02-.68-1.65-.9-1.03-1.16-.46-3.4.25-4.56,1.23-.04,1.27,1.1,2.11,1.45,1.73-.46,1.66-2.71,2.45-4.11.04-.19-.06-.24-.05-.4.44-.56.51-1.49.85-2.16-.04-1.41-.18-2.98,0-4.41-.18-.34-.29-.97-.15-1.35,1.22-.56,1.94-1.63,2.2-3.16.29-.4.44-.93.8-1.25-.05-.85.56-1.15.55-1.8.17.01.29.08.5.05.17-.2.45-.5.75-.6.11-.04.27.02.4,0,.29-.06.52-.24.75-.25.25-.01.57.14,1,.2.36.04.76-.06,1.05,0,.94.18,1.21.79.96,2,.67,0,1.06-.45,1.85-.65.18-.04.36-.23.5-.25.15-.02.31.07.45.05.48-.08,1.01-.33,1.51-.45.28-.07.53-.16.8-.25.42-.14.85-.19,1.35-.45.87.02,1.55-.17,2.36-.3.41-.07.78-.27,1.2-.35,1.07-.2,2.08-.24,3.06-.35.69.19,1.14.34,1.8.5.91.68,1.2,2.04,1.16,3.51-.04,1.38-.53,2.66-.85,3.66-.53.57-.82,1.39-1.15,2.15.97-.39,1.94-.8,2.66-1.45,1.11-.11,1.39-1.05,2.25-1.4.89-1.07,1.53-2.37,2.76-3.11.42-.47,1.02-.75,1.4-1.25.12.01.2-.01.25-.05,1.76-1.62,3.71-2.75,6.66-2.56.74.05,1.38.22,2,.55.22.11.53.46.75.5.38.07,1.07-.41,1.5-.65.84-.46,1.45-.97,2.6-.9.19-.06.29-.21.45-.3.27,0,.5.03.7.1.29.35.09.55-.05.85-.23.53-.38,1.49-.6,2.05-.1.27-.31.5-.4.81-.11.32-.11.71-.2,1.1-.37,1.62-.92,3.32-1.35,4.86,0,.11.09.14.05.3-.95,2.51-1.28,5.29-1.75,8.17,0,.13.03.24.1.3-.24,1.16.04,2.58.45,3.41.21.29.58.42.85.65,1.26.06,1.94-.46,2.7-.9,1.07-1.34,2.07-2.74,3.26-3.96.49-.37.94-.76,1.35-1.2.83-.49,1.72-.92,2.46-1.5.66-.18,1.3-.46,1.95-.75.54-.24,1.12-.39,1.65-.6.37-.15,1.08-.33,1.4-.65,1.09-.03,2.47-.47,3.31.06-.22.73-1.43.68-2.25.95-.75.25-1.35.58-1.91.81-.7.05-1.46.43-2.11.85-.31.2-.45.39-.75.55-.32.17-.51.48-.75.7-.48.44-1.15.69-1.4,1.25-1.71.86-2.54,2.38-3.81,3.61-.11.43-.44.51-.8.95-.09.12-.19.35-.25.4-.03.03-.17-.03-.2,0-.14.17-.19.44-.35.61-.29.29-.75.44-1.1.65-.22.13-.36.39-.65.3-.28.12-.56.53-.9.7-.1.04-.14-.07-.2-.05-.24.06-.73.57-1.1.7-.31.11-.85.17-1.15.2-.43.04-1,.12-1.45.05-.75-.13-1.34-.81-2.11-.86-.35-.31-.59-.74-1.05-.95-.09-.2-.16-.39-.36-.35-.11-.85-.51-1.92-.4-2.95.11-1,.7-1.95.75-2.91h0Z"/>
    <path class="cls-3" d="M154.61,77.36c.15.26.3.82.45,1.25.23.66.49,1.35.8,2.06.46,1.04,1.07,2.61,1.2,4.01.1,1.14-.31,2.51-.45,3.51-.08.55.03,1.09-.25,1.41-.36.11-.76.09-1.2,0-.83.17-1.63.63-2.36.75-.06-.27.18-.46.25-.7.13-.41.05-.87.15-1.31.09-.4.32-.75.4-1.15.25-1.19.17-2.84.6-3.96-.19-.41-.05-1.15-.55-1.25-.31.02-.24.3-.5.25.23.66-.09,1.12-.25,1.55-.22.59-.22.88-.45,1.3-.62,1.15-1.43,2.37-2.25,3.36-.12.03-.08.22-.3.15-.57.78-1.02,1.69-1.8,2.25-.08.16-.17.3-.25.45-1.22.78-2.16,1.53-3.81,1.85.34-.97.97-1.64,1.3-2.71.45-1.44-.06-3.11.1-4.61.15-1.36.48-2.21,1.2-3.06.35-.41.75-.92,1.1-1.15.41-.28.96-.26,1.4-.55,1.04.04,1.63-.45,2.55-.9.72-.35,1.31-.48,1.76-1,.42-.5.73-1.31,1.15-1.8h0Z"/>
    <path class="cls-1" d="M109.91,91.71c.25.18.26.47.2.75-.14-.18-.2-.43-.2-.75h0Z"/>
    <path class="cls-1" d="M116.52,95.97c.04.1-.02.51-.2.55.05-.2.07-.43.2-.55h0Z"/>
    <path class="cls-1" d="M166.47,98.98c-.17.05-.2.23-.45.2.05-.25.21-.24.45-.2h0Z"/>
    <path class="cls-2" d="M160.66,101.08c.08.16-.29.24-.25.05.12.02.11-.09.25-.05h0Z"/>
    <path class="cls-1" d="M114.97,101.98c.18.07.19.17.35.15,0,.12-.08.16-.1.25h-.25c.12-.12-.04-.22,0-.4h0Z"/>
    <path class="cls-1" d="M115.22,103.29c.18.04.14.3.15.5-.21-.11-.05-.3-.15-.5h0Z"/>
    <path class="cls-1" d="M115.67,103.78c-.08.13-.05.38-.3.35v-.25c.05,0,.04.06.05.1.14,0,.09-.21.25-.2h0Z"/>
    <path class="cls-1" d="M117.23,106.34c.17.04.24.19.25.4-.09.02-.1-.04-.1-.1-.09-.01-.11.06-.2.05-.07-.15-.05-.26.05-.35h0Z"/>
    <path class="cls-1" d="M113.16,115.46c-.05.11-.48.25-.45,0,.23-.01.24-.06.45,0h0Z"/>
    <path class="cls-6" d="M155.71,128.95c-.15-.06-.15-.29-.3-.35-.13.14.2.45.3.35h0ZM153,127.7c.18-.37-.17-.65-.2-1-.03-.23.08-.4.1-.65.02-.36-.12-.73-.1-1.05.03-.67.41-1.31.45-1.9.23-.35.42-1.01.45-1.51.51-.26.43-1.37.95-1.45.19-.85,1.19-.89,1.6-1.51.99-.06,1.81-.64,2.76-.6,1.05.04,2.08.26,3.06.7.17.61.66.84.65,1.51,0,.68-.57,1.42-.2,2.15-.16.26-.46.2-.7.05-.3-.4-.32-1.11-.6-1.5-.16-.23-.49-.19-.55-.5-1.18-.45-2.06-.78-3.31-.3-.93.35-1.96,1.51-2.31,2.25-.16.33-.25.76-.3,1.06-.37,1.89.24,3.6,1.4,4.81.8.83,1.88,1.18,3.06,1.51.6-.04,1.22-.07,1.91-.35.14-.06.21-.23.35-.3.12-.05.52-.09.85-.2.36-.13.88-.34.9.25.01.2-.61,1.13-.75,1.3-.45.54-1.55,1.09-2.46,1.15-.63.04-1.25-.28-1.85-.1-1.14-.52-2.6-.56-3.51-1.1-.24-.46-.55-.85-.9-1.2-.12-.51-.15-.81-.4-1.21-.08-.12-.18-.38-.35-.3h0Z"/>
    <path class="cls-6" d="M104.7,122.23c-.05.16.16.07.15.2-.05.15-.26.14-.3.3-.26,1.51-1.53,2.27-1.6,3.81-.55.7-.74,1.77-1.3,2.46-.62.16-1.06.6-1.7.55-.46-.03-.79-.33-1.25-.4-.39-.3-.07-1,.4-1.15.78-.25,1.44.44,2.06-.35.1-.13.1-.35.2-.55.07-.14.26-.24.3-.35.08-.2.06-.58.15-.81.07-.18.18-.22.2-.35.1-.7-.47-.92-.45-1.6-.65-.81-.96-1.95-1.4-2.96-.03-.23.02-.38.05-.55.25-.22,1.01-.17,1.1.2.02.21-.22,0-.25-.05.31.91.63,1.81,1.25,2.4,0,.13-.16.11-.15.25.12.16.27.3.4.45.27-.26.34-.73.45-1.15.27-.09.23-.41.35-.65.08-.14.28-.25.4-.45.25-.41.35-.99.56-1.2.22-.24.76-.3.85.15.04.23-.11.35-.15.55-.09.45-.06.94-.3,1.26h0Z"/>
    <path class="cls-1" d="M142.32,123.53c.09-.12.03.33.05.45-.09.12-.03-.33-.05-.45h0Z"/>
    <path class="cls-1" d="M123.13,123.93c.18.03.14.23.1.35-.08-.07-.11-.2-.1-.35h0Z"/>
    <path class="cls-1" d="M142.32,124.13c.18-.03.18.18.1.25-.07-.04-.11-.13-.1-.25h0Z"/>
    <path class="cls-1" d="M119.08,129.49v.2c-.06.05-.14.07-.25.06.02-.14.11-.23.25-.25h0Z"/>
    <path class="cls-3" d="M63.36,75.88c.02-.1.11-.13.1-.25-.03-.03-.24-.12-.26,0,.27-.03.04.21.15.25h0ZM88.51,58.49c-.16-.03-.61-.27-.65.05.45-.03.71.09,1.25.15.5.46.87,1.07,1,1.75.18.94.23,2.09-.4,2.66-.13.12-.32.1-.45.25-.17.19-.22.53-.4.75-.11.14-.3.22-.4.35-.35.45-.58,1.03-.9,1.55-.23.37-.61.67-.85,1.05-.41.66-.71,1.36-1.25,1.91-.25.25-.67.5-.95.8-.36.38-.57.88-1.1,1.05-.01.14-.1.21-.1.35-1.24.61-1.7,2-2.81,2.76-.36-.15-.72-.26-1.1-.25-.21-.39-.48-.78-.6-1.25-.02-.08.04-.26,0-.35-.14-.3-.58-.43-.7-.75-.07-.18.11-.32-.05-.5-.28-.01-.46.07-.6.2-.93.11-1.55.79-2.2,1.25-.48.34-1.02.62-1.41.9-.35.26-.53.66-.9.8-.68.69-1.62,1.22-1.95,2.1-.19.01-.01-.04-.05-.15-.36.08-.57.3-.7.6-.61.28-1.17.68-1.51,1.35-.04-.02-.08-.05-.15-.05-.18.5-.97.75-1.05,1.5-.14-.04-.13.07-.25.05-.1.27-.04.45-.15.65-.06,0-.04-.09-.05-.15-.12.2-.21.58-.35.9.01.07.15.01.15.1-.29.52.36.97.8.91v.2c.53.26,1.02.22,1.25.6,1.11.21,2.21.94,3.41,1.05.86.42,2.09.4,3.2.5,1.21.29,2.58.59,3.81.9.93.24,2.1.51,2.81,1.05.46.36.91.95,1.45,1.35.62.92,1.43,1.79,2.15,2.71.41.5.56,1.11.75,1.9.15.61-.04,1.25-.15,2.05-.03.18.04.34,0,.5-.04.18-.24.32-.3.5-.18.53-.25,1.1-.35,1.6-.14.08-.16.28-.3.35-.51,1.79-1.61,3-2.46,4.46-.44.37-.68.93-1.1,1.31-.89.22-1.09,1.11-1.8,1.5-1.17,1.13-2.54,2-3.66,3.06-.09-.05-.17.15-.2,0-1.34,1.17-3.21,1.82-4.66,3.1-.95.21-1.72,1.02-2.71,1.35-.28.03-.71.04-.95.25-.07-.05-.19-.04-.2-.15-.64.2-1.49.18-2.1.4-.56-.21-1.52.13-2.31,0-.24-.04-.45-.18-.65-.2-.17-.02-.36.07-.55.05-.77-.06-1.6-.28-2.4-.4-.11-.15-.28-.26-.55-.25,0-.15-.12-.19-.2-.25-.09,0-.17.03-.2.1-.18-.37-.62-.21-.8-.6-.37.24-.75-.36-1.15-.35-.14-.38-.72-.32-.9-.65-.58.04-.98-.32-1.36-.75-.05,0-.04.06-.05.1-.09-.08-.12-.22-.2-.3-.17-.02-.28.02-.4.05-.04-.43-.4-.24-.45-.65-.05,0-.04.06-.05.1-.13-.08-.23-.17-.25-.35-.88-.4-2.03-1.04-1.81-2.2-.1-.18-.18-.39-.4-.45-.07-.06-.07-.23,0-.3.02-.16-.23-.03-.25-.15.06-.15.23-.04.2-.35-.03-.15-.11.05-.2,0-.18-.92-.48-1.87-.2-2.6-.14-.26-.04-.57.1-.65-.06-.14-.14.08-.2.1.04-.36.45-.72.45-1.15.4-.15.61-.84,1.3-.85.32.18.35.58.55.85.1.14.29.22.4.35.7.76,1.03,1.8,1.65,2.66,1.1,1.09,2.21,2.17,3.51,3.06,1.03.12,2.2.25,3.31.55.3.08.54.31.8.35,1.4.25,2.97-.06,4.36-.35,1.32-.27,2.41-.81,3.51-1.25.8-.32,1.55-.73,2.2-1.15.67-.85,1.84-1.04,2.71-1.75.8-.66,1.57-1.26,2.45-1.81.3-.61.8-1.1,1.05-1.8.1-.27.1-.57.2-.85.49-1.37,1.02-2.74.85-4.61-.02-.21-.17-.41-.2-.6-.04-.28.1-.63-.05-1-.26-.64-.94-1.23-1.45-1.8-.11-.12-.15-.3-.26-.4-.3-.29-.84-.5-1.25-.8-.47-.35-.68-.64-1.15-.8-.3-.03-.62-.05-.7-.3-1.61-.41-3.54-1.46-5.11-1.35-.1.01,0-.14.05-.15-.05-.08-.23-.03-.25-.15-.14.15-.19.07-.35.2-.15-.06.03-.19.05-.25-.12-.22-.65-.28-.85-.15.15.18.33.02.6.05-.46.53-.79-.42-1.2-.25-.07-.04-.11-.12-.1-.25-.08.14-.23-.11-.2.1-.06,0-.04-.09-.05-.15-.44.11-.63-.32-.95-.2-.09.11-.1.3-.3.3.01-.1.14-.1.15-.2-.08-.14-.46-.22-.5,0-.13-.06-.03-.32.15-.24-.35-.27-.75-.14-1.3-.05-.05-.21.33,0,.3-.2-.29-.02-.6-.13-.65-.4-.34.11-.58-.14-.8-.3-.04.04-.08.09-.1.15-.11,0-.02-.18-.05-.26-.3.01-.16-.01-.5.06,0-.14.09-.1,0-.2-.46-.06-.61-.38-.95-.3-.3-.24-.84-.45-1.25-.65.16-.23-.14-.38-.25-.5.07-.24-.11-.35-.15-.55-.05-.29.08-.54.05-.8-.02-.22-.26-.44-.25-.65.02-.46.81-.69.5-1.25.04,0,.05.05.1.05-.04-.15-.07-.43.1-.55.09-.06.12.09.2,0,.16-.19.21-.52.4-.75.04-.04.17-.05.2-.1.05-.07-.05-.11,0-.2.06-.11.22-.05.3-.15.17-.21.07-.58.3-.7.16.02.18-.09.35-.05-.08-.25.05-.63.4-.6-.11-.2.03-.34.3-.3-.08-.32.24-.6.55-.7.1.12-.07.2.05.3.18.01.19-.27.05-.3.05-.21.34-.11.2-.4.29.04.26-.24.35-.4.5-.2.82-.59,1.05-1.05.35.08.55-.41.7-.7.47-.14.43-.56.85-.55,0-.18.18-.19.15-.41.08-.01.09.05.15.05-.06-.31.31-.44.55-.7.1.02,0,.23.2.15.15-.03-.05-.1,0-.2.66-.52,1.31-1.06,2.1-1.45.67-.77,1.83-1.04,2.41-1.9.79-.4,1.5-.87,2.1-1.45.39,0,.65-.35.8-.2.06-.04.29-.18.15-.25.93-.54,2.24-1.13,3.06-1.95.37.06.43-.21.75-.2.08-.04.11-.13.1-.25.47-.16.89-.39,1.15-.75.93-.39,1.58-1.09,2.5-1.5.45-.53.96-1.01,1.66-1.31.1-.01.1-.13.15-.2,1.06-.33,2.13-.73,3.11-1.15-.15-.21-.03-.4-.15-.65.24.22.35.09.75.1.08.24.01.32.05.6h0Z"/>
    <path class="cls-3" d="M94.17,107.24c1.39-.34,2.4-1.23,3.41-1.95.6-.43,1.2-.84,1.76-1.31,1.08-.92,2.2-1.8,3.46-2.5.05-.35.39-.3.55-.4.1-.06.19-.23.3-.3.73-.47,1.26-.94,1.9-1.4.52-1.06,1.25-1.48,1.86-2.3.05-.41.36-.54.5-.8.11-.2.09-.47.2-.7.08-.18.3-.31.4-.5.21-.42.32-1.05.45-1.65.16-.75.53-1.44.05-2.15-1.34-.44-2.32.07-3.51.1.02.15-.13.14-.2.2-2.83.45-4.7,1.56-6.97,2.56-.23.31-.44.63-.7.9-.45,1.29-.78,2.68-1.3,3.96-.17.41-.42.83-.55,1.25-.26.84-.39,1.71-.65,2.55-.12.38-.3.73-.4,1.1-.38,1.35-.81,2.52-1.15,3.71.23-.09.47-.17.6-.35h0ZM123.13,103.13c.64-.68,1.35-1.29,2.06-1.91.02-.46.47-.5.5-.95.66-.38,1.1-1.33,1.5-2.06.27-.5.53-.95.7-1.4.28-.78.55-1.61.65-2.5.19-1.65.41-4.01-.7-4.56-.36-.17-.68.02-1.05.05-.15.01-.3-.11-.45-.1-.65.05-1.06.69-1.6.75-.09.34-.44.44-.65.7-.57.73-1.04,1.8-1.45,2.86-.11.27-.31.51-.4.8-.53,1.64-1.05,3.03-1.31,4.96-.16,1.23-.42,2.31-.4,3.66.14.16.15.45.3.6,1.03,0,1.43-.63,2.3-.9h0ZM127.1,103.68c-2.42,1.63-4.34,4.26-7.97,4.21-.46-.29-1.02-.24-1.4-.4-.71-.29-1.06-.85-1.5-1.45-.02-.13-.09.07-.2,0,.09-.21-.19-.43-.45-.45-.14-.27-.16-.85-.55-.7-.04-.17.07-.19.05-.35-.54-.37-.56-1.35-.4-1.91-.02-.17-.14.18-.15,0-.07-.1.04-.25.05-.3-.03-.15-.11.05-.2,0-.1-1.35-.02-2.31.45-3.41-.16-.82.63-1.48.55-2.35.13.03.18-.02.16-.15-.48.1-.79.55-1.16.85-1.15.95-2.55,1.87-3.56,3.01-.32.18-.59.41-.8.7-1.51.48-2.36,1.62-3.56,2.41-1.64,1.88-3.87,3.18-5.46,5.11-1.92,1.4-3.55,2.95-6.16,3.55-.24.18-.51.33-.85.4-.33.39-.63.81-.8,1.35-.16.02-.1.27-.3.25-.14.65-.56,1.13-.95,1.71-.33.48-.58,1.12-.95,1.51-.15.16-.38.65-.6,1-.1.16-.26.29-.35.45-.06.11-.02.3-.1.4-.01.02-.07-.12-.1-.1-.11.06-.21.45-.3.45-.02.17.25.06.15.3-.01.22-.37.09-.4.3.04.04.33-.04.3.2-.07,0-.14,0-.15.05-.06.26-.15-.22-.3-.2-.05.24.02.67-.1.95-.15-.01-.16.11-.3.1-.14.13-.18.35-.4.4-.14.73-.59,1.15-.7,1.91h-.2c.16.24-.2.25-.05.5-.06.06-.08.02-.15,0-.29.84-.66,1.61-1.15,2.25-.08.12-.05.52-.2.4.05.32.03.48-.2.6-.07.06-.05.21-.05.35-.92,1.53-1.3,3.28-2.15,4.86,0,.37-.17.54-.1.85-.22-.04-.3.49-.25.6-.14.13-.32.31-.2.55-.17,0-.43.5-.25.7-.28.22-.34.67-.55.95.08.09.01.32.15.35-.03.14-.14.2-.3.2.12.41-.23.72-.25,1.15h-.15c-.07.79-.58,1.24-.5,1.8-.16.12-.29.27-.25.6-.41.13-.21.55-.25.8-.06.33-.32.59-.4.9-.09.34-.03.74-.1,1.1-.08.41-.25.76-.35,1.21h-.2c-.16.64-.55,1.04-1,1.5-.11.03-.07-.1-.15-.1-.15.17-.6.33-.91.3-.15-.01-.33-.13-.6-.2-.53-.15-1.08-.44-1.2-.85-.16-.55.08-.86.15-1.31.01-.04-.1-.13-.1-.15-.02-.57.39-1.17.35-1.8.35-.29.29-.74.4-1.15.22-.83.7-1.61.95-2.45.12-.42.12-.85.25-1.25.2-.62.5-1.15.6-1.75-.05-.16.16-.07.15-.2,0-.76.37-1.41.6-2.06.12-.35.2-.75.3-1.05.32-.94.54-2.34,1.05-3.36.28-1.61.91-3.3,1.5-4.76-.09-.9.67-2.06.9-3.16.07-.33.05-.6.3-.8.27-1.21.59-2.14,1.05-3.21,0-.65.27-1.04.5-1.45,0-.13.02-.29-.05-.35.4-1.2,1.01-2.61.85-4.16-.54-.31-1.02-.68-1.65-.9-1.03-1.16-.46-3.4.25-4.56,1.23-.04,1.27,1.1,2.11,1.45,1.72-.47,1.66-2.71,2.45-4.11.04-.19-.06-.24-.05-.4.44-.56.51-1.49.85-2.16-.04-1.41-.19-2.98,0-4.41-.18-.34-.29-.97-.15-1.35,1.22-.56,1.94-1.63,2.2-3.16.29-.4.44-.93.8-1.25-.05-.85.56-1.15.55-1.81.17.01.29.08.5.05.17-.2.45-.5.75-.6.11-.04.27.02.4,0,.29-.06.52-.24.75-.25.25-.01.57.15,1,.2.36.04.76-.06,1.05,0,.94.18,1.21.8.95,2,.67,0,1.06-.45,1.85-.65.18-.04.36-.23.5-.25.14-.02.31.07.45.05.48-.08,1.01-.33,1.5-.45.28-.07.53-.16.8-.25.42-.14.84-.19,1.35-.45.87.02,1.55-.17,2.36-.3.41-.07.78-.27,1.2-.35,1.07-.2,2.08-.24,3.05-.35.69.19,1.14.34,1.8.5.91.68,1.2,2.04,1.16,3.51-.04,1.38-.53,2.66-.85,3.65-.53.57-.82,1.39-1.15,2.16.97-.4,1.94-.8,2.66-1.45,1.11-.11,1.39-1.05,2.25-1.4.89-1.07,1.53-2.37,2.75-3.11.42-.46,1.02-.75,1.4-1.25.12.01.2-.01.25-.05,1.76-1.62,3.71-2.75,6.66-2.56.73.05,1.38.22,2,.55.22.12.53.46.75.5.38.07,1.07-.41,1.5-.65.84-.47,1.45-.98,2.6-.91.19-.06.29-.21.45-.3.27,0,.5.03.7.1.29.35.09.55-.05.85-.23.52-.38,1.49-.6,2.05-.1.27-.31.5-.4.8-.11.32-.11.72-.2,1.1-.37,1.62-.92,3.32-1.35,4.86,0,.11.09.14.05.3-.95,2.51-1.28,5.29-1.75,8.17,0,.13.03.24.1.3-.24,1.16.04,2.58.45,3.41.21.29.58.42.85.65,1.26.06,1.95-.46,2.7-.9,1.07-1.34,2.07-2.74,3.26-3.96.49-.37.94-.76,1.35-1.2.83-.49,1.72-.92,2.46-1.5.66-.18,1.3-.46,1.95-.75.54-.24,1.12-.39,1.65-.6.37-.15,1.08-.33,1.4-.65,1.09-.03,2.47-.47,3.31.05-.22.73-1.43.68-2.25.95-.75.24-1.36.58-1.91.8-.7.05-1.46.43-2.1.85-.31.2-.45.39-.75.55-.32.17-.51.48-.75.7-.48.44-1.15.69-1.4,1.25-1.71.86-2.54,2.38-3.81,3.61-.11.43-.44.51-.8.95-.09.12-.19.35-.25.4-.04.03-.17-.03-.2,0-.14.17-.19.44-.35.61-.29.29-.75.44-1.1.65-.22.13-.36.39-.65.3-.28.13-.56.53-.9.7-.1.05-.15-.07-.2-.05-.24.06-.73.57-1.1.7-.31.11-.85.17-1.15.2-.43.04-1,.12-1.45.05-.75-.13-1.34-.81-2.11-.85-.35-.31-.59-.74-1.05-.95-.09-.2-.16-.39-.36-.35-.11-.85-.51-1.92-.4-2.95.11-1,.7-1.95.75-2.91h0Z"/>
    <path class="cls-6" d="M123.23,124.28c.04-.12.08-.33-.1-.35,0,.16.02.28.1.35h0ZM129.8,119.82c-.16-.38-.54-.5-.9-.7-.3-.18-.47-.44-.75-.5-2.07-.42-4.41,1.27-4.11,3.15,1.82.15,4.06-.35,5.86-.25,0-.62.07-1.31-.1-1.71h0ZM122.28,123.88c.04-.13-.24.04-.2-.1.17-.39.24-.59.2-.8.24-1.06.6-2.2,1-3.3.67-.5,1.1-1.24,2-1.51.12-.01.11-.15.2-.2,1.01-.22,2.37-.61,3.25-.2.45.21.69.67,1.25.85.19.06.37,0,.55.1.62.36,1.45,2.29,1.5,3.26,0,.15-.07.27-.05.4.07.39.43.68.4,1.1-.07.03-.12.08-.15.15-.14-.01-.34.04-.35-.1-.5.34-1.24-.14-1.71.2-.13,0-.17-.09-.25-.15-.39.19-.69-.06-.95.2-.35-.17-.84-.1-1.25-.05-.47.06-.96-.15-1.45-.15-.71,0-1.45.41-2.26.4.12.84-.13,1.67-.05,2.4.11.99,1,1.6,1.3,2.35.87.68,1.96.81,3.21,1,.3-.07,2.1-.43,2.26.05.09.28-.28.56-.55.45-.49.38-1.29.44-1.85.75-.8.05-1.47.12-2.16,0-.13-.26-.5-.27-.65-.5-.7.11-1.09-.46-1.65-.65-.56-.78-1.13-1.75-1.3-2.86-.19-.32-.23-.81-.15-1.15-.24-.55-.36-1.41-.15-1.96h0Z"/>
    <path class="cls-6" d="M142.35,123.62c-.01-.11.05-.54-.05-.42.01.11-.04.54.05.42h0ZM136.56,131.79c-.6-.22-1.35-.12-1.7-.19-.26-.13-.46-.32-.75-.42,0-.23.24-.24.3-.42-.02-.13-.1-.21-.25-.24.33-.22.15-.7.15-1.04,0-1.27.28-2.37.05-3.49.03-.16.17-.21.2-.38-.07-.35-.06-.43,0-.75-.14-.32-.19-.49-.05-.8-.12-.18-.01-.21-.05-.43-.01-.1-.15-.23-.15-.24,0-.08.18-.11.2-.23.02-.1-.14-.72-.25-.66-.04-.18.19-.1.2-.24-.08-.17.06-.37-.15-.47.18-.13.21-.69.05-.95.17-.73.11-1.46.05-2.27-.17-.02-.28.02-.4.05-.04-.17-.34-.34-.2-.52.68-.41,2.17-.38,2.75,0,.08.49-.11.93,0,1.41.52-.53,1.43-.69,2.2-.99.97.06,1.86-.51,2.75-.29.16.04.27.2.45.29.41.19.96.33,1.35.52.28.14.5.46.85.47.01.62.61,1.04.75,1.61.14.55.15,1.33.25,1.84.08.41-.02,1.06.05,1.65.05.46.23.89.2,1.23-.16,1.51.35,3.4-.05,5.05-.59.39-1.53.7-2.2.28-.13.2-.44.14-.6,0-.29-1.31-.32-2.65-.69-3.82.02-.08.02-.2.1-.23-.09-.09-.06-.29-.2-.33.07-.44.1-.83.1-1.23,0-.26-.13-.49-.15-.75-.12-1.42.1-3.04-.1-4.4-.4-.49-.91-.61-1.55-.85-.57.11-1.12.23-1.55.47,0,.04.05.05.05.1,0,.06-.05.03-.05,0-.28-.11-.58.37-.95.19-.45.2-.63.63-.9,1-.15,2.87-.18,6.4.25,9.26-.34.19-.08.95-.35,1.23h0Z"/>
    <path class="cls-6" d="M160.41,101.13c-.04.19.33.11.25-.05-.14-.04-.13.07-.25.05h0ZM155.55,92.16c-.06.42.41.29.35.7.2.04.03-.27.15-.3.69.38,1.24.66,2.1.8.11.12.04.13.1.25.05-.03.05-.12.15-.1.16.17.46.2.5.5.19-.07.52.1.55.35.09,0,.11-.06.2-.05.03.17.14.26.35.25.14.08.08.35.35.3.39.7,1.11,1.06,1.4,1.85.65.25,1.15.92,1.7,1.1.52.5,1.01.73,2.06.85.05.25.28.32.2.7-.99.38-1.8.97-2.8,1.5-.29.16-.56.4-.8.51-.23.09-.56,0-.7.25-.15-.07-.27.16-.25-.05-.19,0,0,.2-.1.2-.57-.21-.6.19-1.25.15.02-.24.22-.32.3-.5-.43-.04-.86.42-1-.1-.11,0-.02.21-.05.3-.97.32-1.73.84-2.81,1.05-.05.04-.08.09-.1.15-.35.02-.68.06-.75.35.66.99,1.69,1.62,2.6,2.35-.15.28-.49.33-.75.55-.06.05,0,.14-.05.2-.19.22-.76.42-1.15.75-.66.55-1.38,1.23-2.6,1.2-1.31-.03-2.47-.73-3.61-.95-.55-.51-1.17-.94-1.76-1.41-.29-.58-.91-.83-1.25-1.35-.5-.15-.83-.47-1.3-.65.78-.9,1.8-1.6,2.91-2.15.77-.39,1.57-.78,2.45-1.05.15-.05.09.11.1.2.19-.51.77-.63,1.26-.85,0,.07-.01.14.05.15.4-.43,1.44-1.12,2-.6.21-.12.41-.26.55-.45-.21-1.04-1.18-1.32-2.15-1.6-.33-.35-.83-.4-1.45-.4-.36,0-.7-.17-1.05-.2-.16-.02-.24.09-.4.1-.34.01-.97-.17-1.5-.15-.52.01-1.02.07-1.51-.05.72-1.5,2.02-2.49,3.41-3.36.61-.38,1.35-.55,2.01-.9.35.07.73-.19,1-.35.27.06.47.14.7,0-.02.24-.02.21,0,.45.52-.41.92-.59,1.65-.5h0Z"/>
    <path class="cls-6" d="M148.14,114.21c.84-.62,1.95-.12,2.46.55.23,1.08-.31,1.81-1.1,2.1-.29.11-.92.31-1.15.25-.26-.07-.7-.77-.7-1.25,0-.14.12-.3.15-.5.03-.21-.07-.46-.05-.55.05-.18.37-.37.4-.6h0Z"/>
    <path class="cls-6" d="M165.57,124.28c.04-.12.08-.33-.1-.35,0,.16.03.28.1.35h0ZM172.14,119.82c-.16-.38-.54-.5-.9-.7-.31-.18-.47-.44-.75-.5-2.07-.42-4.41,1.27-4.11,3.15,1.82.15,4.06-.35,5.86-.25,0-.62.07-1.31-.1-1.71h0ZM164.62,123.88c.04-.13-.24.04-.2-.1.17-.39.24-.59.2-.8.23-1.06.6-2.2,1-3.3.67-.5,1.1-1.24,2.01-1.51.12-.01.11-.15.2-.2,1.01-.22,2.37-.61,3.26-.2.45.21.69.67,1.25.85.18.06.37,0,.55.1.62.36,1.45,2.29,1.51,3.26,0,.15-.08.27-.05.4.07.39.43.68.4,1.1-.07.03-.12.08-.15.15-.14-.01-.34.04-.35-.1-.5.34-1.24-.14-1.7.2-.13,0-.18-.09-.25-.15-.39.19-.69-.06-.95.2-.35-.17-.85-.1-1.25-.05-.47.06-.97-.15-1.45-.15-.71,0-1.45.41-2.25.4.11.84-.13,1.67-.05,2.4.11.99,1,1.6,1.3,2.35.86.68,1.95.81,3.21,1,.29-.07,2.1-.43,2.25.05.09.28-.28.56-.55.45-.49.38-1.29.44-1.86.75-.8.05-1.47.12-2.15,0-.12-.26-.49-.27-.65-.5-.7.11-1.09-.46-1.65-.65-.57-.78-1.13-1.75-1.3-2.86-.19-.32-.23-.81-.15-1.15-.24-.55-.36-1.41-.15-1.96h0Z"/>
    <path class="cls-6" d="M97.98,122.73c-.03-1.03-1.12-2.05-2-2.1-.45,1.01-.35,2.59-.5,4.01,1.31-.06,2.54-.53,2.5-1.9h0ZM95.33,116.41c.23.06.2-.14.4-.1.81.68.16,2.28.3,3.21,1.9.46,3.08,1.63,3.56,3.51-.64,1.68-2.11,2.89-4.11,2.66-.21-.04-.1.24-.3.2-.21-.01-.34-.09-.51-.15-.37-2.23.53-5.66.2-8.06-.02-.2-.05-.47-.1-.7-.04-.18-.21-.35-.2-.5.03-.46.62-.63.75-.05h0Z"/>
    <path class="cls-6" d="M118.83,129.74c.11.02.19,0,.25-.05v-.2c-.15.02-.23.11-.25.25h0ZM114.06,114.81c.51,1.11,0,2.6.15,3.91-.14,0-.1.08-.2,0,0,.14.14.12.2.2-.43,2.69-.16,5.46-.3,8.67.02.09.02.21.15.2-.1.28-.05.52-.1.9.33.14.71.02,1.1,0,1.31-.07,2.86.32,3.95-.35.05-.22.12-.42.25-.55.04-.14-.07-.13-.05-.25.41-.37.01-1.23.9-1.1.47.71.23,2.13.3,3.16.02.22.14.41.05.6-.29.19-.56.09-.8,0-.11,0-.02.18-.05.25-.26.01.07-.25-.15-.25,0,.17-.2.18-.45.15,0-.1.17-.04.15-.15-.52.12-.67-.02-.9.2-.21-.09-.27-.18-.5-.05-.03-.16.09-.15,0-.25-.12.02-.18.09-.2.2-.64-.11-1.61-.17-2.25.1-.1,0-.03-.17-.15-.15-1.46.2-2.36.19-3.96.2-.12-.18-.29-.31-.41-.5.25-.32.09-1.03.3-1.5-.19-1.44-.24-2.88.05-4.41-.02-.1-.14-.09-.1-.25.21-.99-.12-1.95.1-2.7-.28-1.22.31-3.19-.1-4.66,0-.09.03-.17.1-.2-.24-.45-.62-.75-.8-1.25.25-.49.82-.15,1.2-.15.82-.01,1.71-.14,2.5,0h0Z"/>
    <path class="cls-6" d="M150.72,118.62c.21,1.84.22,3.48.37,5.32.18,2.21.11,4.42.09,6.74-.17.06-.44.22-.55,0-.49.4-1.17.27-1.66.58-.56-.12-.55-.6-.46-1.04.14-.71-.15-1.73.09-2.34-.2-.63-.04-1.34-.09-2.01-.02-.3-.14-.58-.14-.88.01-1.36.08-2.67-.18-3.81-.02-.13.06-.16.09-.25-.25-.18-.7-.22-.69-.59,0-.18.12-.02.23-.25.03-.07-.03-.22,0-.25.06-.08.26-.16.37-.29.12-.15.16-.37.23-.42.22-.19.61-.17.74-.3.13-.01.16.08.23.13.39-.16.69-.41,1.34-.33h0Z"/>
  </g>
  <polygon class="cls-4" points="27.98 84.91 4.41 119.4 5.59 120.88 50.54 119.32 34.39 89.66 29.58 84.05 27.98 84.91 27.98 84.91"/>
  <path class="cls-2" d="M26.09,89.38c-.85.37-.24-.86-1.09-.49-.41.14-.18.86-1.04.59-.33,1.4-.66,2.8-1.98,3.31-.31,1.48.75,1.41,1.18,2.08-1.86,1.36-1.87,5.71-5.15,4.27.3.79,1.28.83,1.43,1.8-.71.36-1.23.5-1.58.61,1.14.93-.3.7-.74,1.38-1.14,1.77-1.76,4.56-3.76,5-.07,1.29-.54,2.23-1.75,2.49.67,1.38-.39.19-.76.85,1.72.32-1.1,1.17.1,1.87-1.9.39-1.43,2.94-2.75,3.88-.17-.46.25-1.59-.34-1.59,0,.41.09.92-.5.82-.28.88.87.16.59,1.04-1.11.27-.91,1.73-1.48,2.48,2.78-.61,7.3-.66,10.41-.52.05-.21-.02-.53.24-.55,10.36.95,18.61-.66,31.25-1.01-.58-2.81-3.05-4.15-4.03-5.69-.32-2.38-2.56-2.61-2.66-5.22-1.2.18-1.03-.95-.88-1.56-1.06.03-2.03-1.7-1.17-2.09-.84.45-.9-.16-1.63-.45-1.93-5.83-6.53-9.94-8.74-14.55.01.27-.45.36-.53.02.33-.04.63-.11.51-.56-.75.26-.71-.34-1.35-.2-1.29,1.8-1.87,4.25-4.02,5.29.56.91-.2,1.29-.7,1.91-.32-1.06-.07-2.08.39-2.96.44-.02.18.73.57.77.06-1.15.97-3.33,1.76-2.23-.03-.37.09-.59.22-.81h0ZM41.68,101.72c1.58.23,1.16,2.65,2.82,2.8.04,1.73.93,2.54,2.02,3.11-.13,1.82.91,2.38,2.01,2.84.13.45-.18.51-.5.56.38.37,1.26.61.6,1.31.21-.16.43-.3.79-.31.12.54-.01.84-.49.82.53.68,2.07,2.14,1.2,2.62.27.45.87.54,1.62.45.15,2.19,1.35,3.21,1.35,5.55-.25-.15-1.01-.57-.78.3-.48-.5-1.86,0-1.92-.97-.59,1.05-1.83-.7-3.17.69-.81.13-.6-.84-.87-1.3-.76.27.38.65.07,1.34-.21-.17-.9-1.09-.8.04-3.73-.26-9.26-.28-12.56.09-.02-.27-.03-.53-.04-.8-1.21.71-2.61.85-3.74.18-.72,1.04-5.69,1.07-7.21.36-2.94,1.69-9.46.1-10.88,1.88-2.3-1.29-6.26.17-9.14-.88-.27-.84.18-1.03.46-1.36-1.08-.04-.45-.21-.62-1.84,1.25-.4,1.76-1.46,1.73-3.03,1.24.19.54-1.38,1.81-1.16-.23-.81-.21-.5-.06-1.34,1.81.21.72-2.24,2.29-2.25-.18-.26-.63-.24-.57-.77,1.08.29.5-.91,1.57-.61-.02-.45-.05-.89-.07-1.34.23-.22.59-.32,1.05-.32,1.56-4.03,4.5-6.81,6.16-10.74.92-.02,1.21-.6.99-1.65.78.03.79-.64,1.58-.62.65-3.57,4.05-4.65,4.68-8.25,2.93-.66,2.23-4.61,5.08-5.33-.18-.27-.63-.25-.58-.78.88-.05,1.31-.52,2.39-.38,1.2.85-.31,1.38,1.4,1.27-1.1,1.2.35,4.73,1.55,4.2.39.07.07,2.02,1.42,1.8-.14.83.33.96.35,1.59,3.43,2.86,4.09,8.8,7.53,11.66.12.45-.19.52-.51.56h0Z"/>
  <text class="cls-7" transform="translate(16.8 113.98) scale(.79 1)"><tspan x="0" y="0">64</tspan></text>
</svg>