<?xml version="1.0" encoding="UTF-8"?>
<svg id="Layer_1" data-name="Layer 1" xmlns="http://www.w3.org/2000/svg" viewBox="0 0 180 200">
  <defs>
    <style>
      .cls-1 {
        fill: #a2a3a3;
      }

      .cls-2 {
        fill: #231f20;
      }

      .cls-2, .cls-3 {
        fill-rule: evenodd;
      }

      .cls-4 {
        fill: #fff;
        font-family: AmericanTypewriter-Bold, 'American Typewriter';
        font-size: 20.52px;
        font-weight: 700;
      }

      .cls-3 {
        fill: #6d2c90;
      }

      .cls-5 {
        fill: #e5e4d9;
      }
    </style>
  </defs>
  <g>
    <polygon class="cls-5" points="169.74 141.49 161.47 141.35 153.21 141.08 144.94 140.98 136.68 141.11 128.41 141.18 120.14 141.45 111.88 141.21 103.61 141.16 95.35 141.07 87.08 141.3 78.81 141.05 70.54 141.53 62.27 141.15 53.99 141.17 49.95 137.2 49.76 129.01 49.95 120.82 49.97 112.63 49.72 104.44 49.83 96.25 50.05 88.05 49.77 79.86 50.04 71.66 50.07 63.46 53.99 59.13 62.26 59.33 70.53 59.6 78.79 59.51 87.06 59.35 95.33 59.19 103.59 59.6 111.86 59.36 120.12 59.61 128.39 59.1 136.65 59.39 144.92 59.63 153.19 59.19 161.46 59.26 169.74 59.24 173.95 63.46 173.59 71.65 173.87 79.84 173.99 88.03 173.77 96.22 173.62 104.42 173.92 112.61 174.11 120.8 173.59 129 174.13 137.2 169.74 141.49"/>
    <path d="M137.38,96.06c-.15.71-.31,1.4-.44,2.1-.18.99-.78,1.76-1.28,2.59-.17.27-.48.3-.77.31-1.01.02-2.01.05-3.02.03-.47,0-.92-.04-1.38.1-.38.12-.73-.04-.93-.37-.23-.36-.48-.74-.58-1.14-.35-1.43-.67-2.87-.93-4.31-.12-.67-.09-1.36-.12-2.04-.07-1.47-.13-2.94-.2-4.41,0-.1-.05-.2-.08-.29-.91-.21-1.82-.19-4.03.08-.09.19-.19.41-.29.63-.23.49-.43.98-.68,1.46-.51.97-1.31,1.61-2.35,1.94-.69.22-1.3.59-1.88,1.15.04.37.07.76.12,1.14.28,2.21.59,4.42.86,6.63.16,1.32.29,2.64.42,3.97.05.5.04,1.01.06,1.51.02.43.07.86.08,1.29,0,.32,0,.64-.07.95-.04.23-.25.35-.49.32-.2-.02-.31-.16-.36-.35,0-.03-.02-.07-.02-.11-.53-3.52-1.08-7.03-1.59-10.55-.14-.92-.19-1.86-.29-2.79-.02-.16-.07-.33-.13-.62-.26.25-.43.42-.6.58-.18.17-.37.22-.57.05-.18-.16-.22-.37-.09-.58.17-.27.34-.55.55-.79.82-.92,1.74-1.72,2.83-2.31.74-.4,1.31-1,1.88-1.58.73-.74.82-1.73.78-2.72,0-.17-.2-.38-.36-.48-.52-.33-1.1-.3-1.67-.19-.67.13-1.33.32-2,.43-.67.11-1.35.19-2.03.21-.93.03-1.87,0-2.8,0-.68,0-.78.09-.99.75-.2.61-.41,1.23-.2,1.98.17.08.37.22.6.29,1.44.45,2.9.48,4.37.19.25-.05.49-.12.74-.16.43-.06.67.03.73.27.08.28-.12.53-.56.66-.38.11-.77.24-1.15.26-1.29.06-2.59.06-3.88.09-.46,0-.82-.22-1.18-.47-.46-.32-.95-.33-1.42-.05-.17.11-.33.27-.45.43-.62.84-1.84.97-2.63.26-.21-.19-.39-.42-.55-.66-.33-.5-.75-.86-1.33-1.04-.38-.11-.7-.32-1.02-.58-.35-.29-.78-.47-1.28-.76-.02.29-.06.45-.04.61.23,1.53,1.02,2.74,2.09,3.8.28.28.57.55.85.82.34.33.45.74.35,1.19-.1.45-.25.9-.39,1.34-.09.27-.21.54-.28.81-.08.33.11.49.48.44.53-.06.81.17.65.63-.5,1.44-.53,2.96-.84,4.44-.27,1.34-.35,2.71-.34,4.07,0,.14,0,.29,0,.43-.03,1.07-.23,1.2-1.23.84-.27-.1-.43-.28-.44-.55-.01-.39-.03-.8.05-1.18.35-1.8.72-3.59,1.09-5.38.06-.32.15-.63.22-.94.15-.62.14-1.2-.29-1.73-.39-.49-.38-1.07-.18-1.64.14-.41.3-.81.46-1.21.19-.49.11-.89-.3-1.26-.4-.36-.79-.74-1.13-1.15-1.11-1.3-1.81-2.76-1.77-4.51,0-.24-.05-.48-.08-.7-1.23-.37-5.64-.23-8.58.25,0,.18-.02.39-.03.59,0,.18-.02.36-.03.54-.04,1.22-.07,2.44-.12,3.66-.01.32-.07.64-.12.96-.24,1.49-.51,2.98-.74,4.47-.26,1.74-.99,2.46-2.75,2.59-1.12.08-2.23-.05-3.33-.21-1.04-.15-1.67-.81-1.96-1.78-.22-.76-.36-1.54-.54-2.31-.05-.21-.1-.41-.17-.67-.34-.02-.65-.04-.97-.05-1.11-.03-1.86-.52-2.34-1.57-.53-1.16-.88-2.35-1.11-3.59-.03-.14-.07-.27-.12-.46-.22-.02-.42-.06-.62-.04-.58.06-.95-.21-1.24-.68-.49-.81-.77-1.66-.8-2.64-.05-2.17.27-4.3.52-6.44.02-.14.04-.28.07-.42.14-.64.29-.77.94-.8.35-.02.71-.03,1.04-.04.46-1.12.89-2.18,1.34-3.23.14-.33.32-.64.5-.95.44-.74,1.1-1.11,1.96-1.11.32,0,.63-.04.98-.06.07-.29.15-.53.19-.77.15-.85.41-1.67.76-2.47.34-.77.88-1.17,1.75-1.16,1.58.03,3.16.01,4.75.01.07,0,.14,0,.22,0,.49,0,.82.18.95.69.25.93.57,1.85.79,2.8.63,2.76.68,5.55.32,8.36-.04.27,0,.55,0,.79.14.07.21.13.27.13,2.01.09,4.02.17,6.03.25.04,0,.07,0,.11,0,.58.06,1.05-.18,1.44-.59.12-.13.25-.26.39-.38.36-.33.77-.52,1.26-.51.25,0,.5-.02.81-.04.11-.25.23-.5.34-.76.18-.43.32-.88.53-1.29.45-.85,1.18-1.32,2.13-1.46.07-.01.14-.02.22-.02.76,0,1.26-.36,1.58-1.07.35-.76.87-1.39,1.57-1.88,1.35-.94,2.79-1.04,4.11-.07.84.62,1.49.69,2.27-.02.49-.44,1.15-.58,1.8-.63.61-.05,1.04.23,1.31.76.07.13.13.26.16.4.2.98.55,1.93.51,2.96-.05,1.36.1,2.73-.15,4.09-.02.1.03.2.06.36.6.16,1.2-.06,1.8-.06.61,0,1.22-.01,1.83,0,.61.02,1.22.09,1.83.09.6,0,1.21.1,1.83-.11.24-.86.27-1.72.21-2.58-.16-2.5.08-4.96.64-7.39.12-.52.28-1.04.47-1.54.37-.96,1.05-1.54,2.14-1.47.68.05,1.36.11,2.03.19.53.06,1.06.18,1.6.25.95.12,1.72.54,2.21,1.37.62,1.05,1.24,2.11,1.52,3.32.02.1.1.19.18.34.33,0,.68.02,1.03,0,.53-.03.9.21,1.15.65.34.59.62,1.21.71,1.9.09.67.2,1.34.31,2.04.3.04.54.1.78.11.82.05,1.33.51,1.58,1.25.28.82.5,1.64.44,2.53-.04.64-.03,1.3.04,1.94.15,1.4.06,2.8-.01,4.2-.04.66-.18.86-.89.98-.28.05-.57.03-.86.05-.25.02-.5.04-.75.08-.06,0-.12.07-.25.14,0,.13-.03.3-.03.47.02,1.33-.4,2.54-1.01,3.7-.25.47-.59.65-1.14.6-.63-.06-1.28-.01-1.95-.01ZM105.39,85.11c.2-.23.06-.39.03-.55-.09-.42-.21-.83-.3-1.26-.03-.17-.04-.37.02-.52.06-.15.21-.32.35-.35.14-.03.37.07.45.19.15.24.25.52.32.79.17.62.27,1.27.48,1.88.26.78.59,1.53.92,2.29.11.27.32.46.64.52.68.13,1.74-.46,1.7-1.26-.02-.46,0-.93-.08-1.39-.08-.53-.27-1.04-.37-1.57-.15-.81-.27-1.63-.37-2.45-.04-.35-.05-.74.22-1.02.1-.11.31-.18.46-.17.1,0,.25.17.27.29.06.24.04.5.07.75.07.68.14,1.36.24,2.03.05.32.16.63.28.92.1.25.3.44.58.39.69-.12,1.42-.13,2.07-.5.1-.79.17-1.54.29-2.28.12-.74.29-1.48.45-2.21.05-.22.32-.39.49-.31.15.07.3.21.36.35.06.15.01.35,0,.53-.03,1.44-.07,2.87-.09,4.31,0,.24.08.47.12.67.55.22.99.02,1.44-.08.57-.13.91-.46,1.1-1.05.25-.78.57-1.55.95-2.28.18-.34.28-.65.27-1.01,0-1.01,0-2.01-.02-3.02,0-.36-.07-.71-.15-1.06-.07-.31-.3-.47-.61-.53-.42-.08-.77.06-1.1.31-.68.51-1.44.62-2.25.43-.56-.13-1.11-.28-1.66-.44-.38-.11-.75-.23-1.13-.35-.72-.23-1.31-.04-1.84.74-.16.23-.24.52-.38.77-.5.91-1.26,1.45-2.31,1.55-.21.02-.43,0-.65.02-.63.03-1.1.32-1.39.87-.2.38-.35.79-.51,1.19-.13.33-.24.67-.37,1.01-.23.6-.66.9-1.32.92-.35,0-.72.04-1.06.14-.87.26-1.23,1.2-.76,1.98.39.64.82,1.27,1.27,1.87.26.34.58.64.91.91.67.54,1.36,1.04,2.08,1.59.52-.11,1.2.24,1.63-.49-.12-.4-.35-.76-.61-1.1-.32-.43-.69-.82-1.02-1.26-.41-.55-.79-1.11-1.17-1.67-.09-.14-.15-.34-.14-.5,0-.12.11-.28.22-.33.1-.05.31-.02.38.06.21.23.38.49.58.76ZM87.49,99.49c0-.15.02-.24,0-.3-.72-1.66-1.05-3.43-1.38-5.19-.61-3.22-.85-6.47-.75-9.75,0-.28.06-.56.12-.84,0-.05.11-.1.17-.1.06,0,.16.05.17.1.06.2.12.41.13.61.02.97,0,1.94.03,2.91.14,3.2.65,6.35,1.39,9.47.24,1.01.58,2,1.13,2.9.06.11.18.18.27.27.26-.17.18-.34.15-.51-.21-1.06-.43-2.11-.63-3.17-.15-.78-.24-1.56-.41-2.33-.45-2.15-.83-4.31-.87-6.5-.05-2.26-.12-4.52.08-6.78.14-1.61.35-3.21.7-4.79.26-1.15.61-2.29.93-3.43.04-.16.08-.32.14-.56-.84,0-1.59-.02-2.33,0-.55.02-.94.31-1.13.85-.07.2-.18.4-.23.6-.35,1.25-.69,2.49-1.01,3.74-.07.28-.09.57-.11.85-.07.82-.13,1.65-.18,2.47-.06,1.08-.13,2.15-.13,3.23,0,1.97.09,3.95.09,5.92,0,2.21.35,4.36.85,6.5.29,1.21.91,2.26,1.57,3.29.15.23.4.41.65.53.16.08.39.02.6.02ZM132.19,71.68c.05.28.08.49.13.69.26,1.15.57,2.3.78,3.46.15.84.18,1.71.25,2.57.12,1.47.3,2.93.34,4.4.07,2.37.07,4.74.04,7.11-.01,1-.14,2-.26,3-.12,1-.33,1.98-.46,2.98-.13.99-.22,1.98-.33,2.99.76.23,1.45.27,2.17.18.08-.18.15-.3.19-.43,1.2-3.21,1.99-6.52,2.11-9.96.07-1.83.23-3.66.1-5.49-.02-.32.01-.65,0-.97-.02-1.62-.09-3.23-.45-4.82-.22-.98-.36-1.98-.5-2.97-.1-.72-.36-1.39-.68-2.03-.09-.18-.25-.39-.43-.45-.95-.35-1.94-.43-3-.25ZM90.39,97.77c.38-.59.55-1.05.61-1.56.24-2.03.48-4.07.72-6.1.05-.42.1-.85,0-1.26-.82-.11-.92-.04-.96.6-.02.36.01.72-.03,1.08-.04.31-.14.63-.25.92-.07.19-.44.19-.55.02-.09-.15-.18-.32-.2-.48-.04-.32-.02-.65-.02-.97-.01-1.69-.02-3.38-.05-5.07-.02-1.33-.05-2.66-.12-3.99-.03-.57.19-1.05.42-1.53.04-.08.19-.18.25-.16.11.05.26.16.28.27.08.42.14.85.17,1.28.06.75.09,1.49.14,2.21.42.11.67,0,.74-.34.07-.31.1-.64.11-.96.11-2.92-.09-5.82-.68-8.68-.07-.35-.18-.69-.29-1.11-.15.17-.28.25-.32.37-.18.51-.37,1.01-.5,1.53-.92,3.49-1.38,7.05-1.53,10.64-.08,1.98.02,3.95.43,5.9.46,2.22.88,4.44,1.33,6.66.04.2.16.39.3.74ZM130.35,98.71c.06-.09.15-.17.16-.26.27-1.43.98-2.77.92-4.28-.02-.56.15-1.13.27-1.7.15-.74.39-1.46.49-2.2.35-2.65.15-5.31.08-7.96-.03-1.18-.21-2.36-.3-3.54-.14-1.76-.41-3.49-.88-5.19-.08-.3-.2-.59-.31-.92-.43.22-.46.62-.54.94-.4,1.53-.67,3.09-.64,4.68.02,1.16-.12,2.29-.36,3.42-.07.31-.06.64-.07.96,0,.06.06.12.12.24.17,0,.37-.02.57-.03.2-.45.11-.88.11-1.31,0-.5-.06-1.01,0-1.5.06-.41.24-.82.41-1.21.04-.09.24-.18.36-.16.11.02.25.15.29.27.06.2.07.42.08.64.07,1.75.18,3.5.19,5.26,0,1.84-.06,3.66-.25,5.49-.05.5-.15.99-.26,1.48-.05.23-.23.38-.47.37-.24,0-.41-.15-.47-.38-.06-.24-.09-.5-.09-.74,0-.61.04-1.22.04-1.83,0-.24-.06-.47-.1-.71-.25,0-.42-.01-.6,0-.06,0-.11.08-.16.13-.05,2.23.5,9.01,1.38,10.05ZM137.53,94.74c.63.05,1.11.12,1.62-.05.05-.2.1-.36.13-.54.14-.85.28-1.7.41-2.55.29-1.88.7-3.74.67-5.66,0-.54-.02-1.08.02-1.62.15-2.06-.11-4.09-.62-6.08-.05-.21-.08-.44-.2-.61-.13-.2-.32-.38-.53-.51-.17-.11-.4-.17-.63.08.12,2.85.33,5.74.07,8.65-.26,2.93-.41,5.87-.95,8.89ZM99.63,84.24c-.28,0-.49-.01-.7,0-.93.05-1.86.14-2.79.16-1.51.03-3.01,0-4.52.01-.28,0-.58-.06-.83.25-.05.77-.12,1.58.06,2.43.21.04.39.09.56.09.57,0,1.15-.04,1.72-.05.54-.01,1.07-.04,1.61-.02,1.54.07,3.08.17,4.62.23.41.02.85,0,1.22-.34-.2-.45-.41-.87-.56-1.3-.16-.47-.26-.95-.39-1.46ZM129.8,86.9c.19-.98.33-1.88.15-2.81-.43-.17-.82-.06-1.2-.02-.61.06-1.21.17-1.82.17-1.97.02-3.95,0-5.92-.01-.42,0-.85-.11-1.24.09-.12,1.07-.08,1.12.82,1.22.04,0,.07.01.11.01,1.78.08,1.85.3,2.86,1.7,2.04-.07,4.14-.11,6.25-.35ZM82.93,94.4c.2-.3.08-.63.03-.94-.14-.99-.3-1.98-.47-2.97-.25-1.42-.39-2.84-.39-4.28.02-2.76,0-5.52,0-8.29,0-.34.07-.7-.14-1.15-.16.26-.3.42-.37.6-.25.75-.47,1.5-.72,2.25-.25.76-.34,1.53-.37,2.33-.08,2.26.09,4.51.27,6.75.14,1.79.55,3.54.91,5.29.04.17.13.33.19.48.56.09.56.09,1.04-.08ZM141.29,89.4c.86-.17,1.17-.54,1.22-1.28.14-2.01.21-4.02.1-6.03-.04-.7-.22-.83-1.08-.83-.17.67-.02,1.35-.03,2.02,0,.65.04,1.29.03,1.94,0,.68-.04,1.37-.08,2.05-.04.67-.1,1.34-.17,2.13ZM78.97,81.24c-.38.07-.47.28-.48.55-.08,1.32-.26,2.65-.19,3.97.06,1.21.4,2.4.63,3.6.02.12.16.21.26.34.39-1.04.22-6.4-.21-8.46Z"/>
    <path d="M138.7,117.08c-1.53.38-2.96.19-4.41.13-.07.24-.16.4-.17.57,0,1.44,0,2.88,0,4.32,0,.1.06.2.1.34.91.28,1.85-.17,2.79.09.33.47.25,1.01.12,1.53-.15.6-.65.82-1.22.9-.57.08-1.13.15-1.7.23-.69,2-.58,4.01-.44,6.07-.8.93-1.88,1.56-2.85,2.28-.32-.12-.3-.36-.29-.56.01-.61.04-1.22.06-1.83.07-1.94.11-3.88.23-5.82.17-2.73.21-5.46.21-8.19,0-.68,0-1.36,0-2.1.18-.04.38-.1.58-.13,2.04-.29,4.09-.19,6.13-.17.14,0,.29,0,.43.02.41.06.57.21.59.63.03.57.08,1.14-.19,1.69Z"/>
    <path d="M111.95,129c.98-.24,1.24-1.21,1.99-1.74.16.22.3.41.44.6.01-.01.09-.04.09-.09.17-1.35.32-2.71.5-4.07.14-1.1.34-2.2.47-3.31.19-1.6.35-3.21.52-4.82.01-.11,0-.22.01-.32.05-.4.25-.61.63-.57.71.06,1.41.16,2.12.24.21.39.2.78.21,1.17.01.47.01.94,0,1.4-.02.9.06,1.79.3,2.67.19.72.24,1.49.37,2.23.17.95.35,1.91.53,2.86.05.28.15.56.2.84.08.42-.03.76-.39,1.04-.33.27-.6.62-.91.92-.17.16-.39.28-.66.47-.1-.22-.21-.37-.22-.52-.16-1.68-.3-3.36-.45-5.04-.06-.64-.13-1.28-.34-1.93-.06.26-.12.51-.17.77-.06.28-.11.56-.16.85-.33,2.09-.67,4.19-.99,6.28-.2,1.31-.36,2.63-.54,3.95-.02.18-.01.36-.05.54-.06.32-.25.5-.57.56-.04,0-.07,0-.11.01-1.49.05-2.08,0-2.57-1.78-.12-.45-.23-.91-.26-1.37-.04-.57-.01-1.15-.01-1.84Z"/>
    <path d="M71.89,114.69c.5-.11.87-.25,1.26-.27.6-.03,1.18-.34,1.83-.1,0,.89-.02,1.78,0,2.66.03.9.13,1.79.17,2.68.05.89-.02,1.79.29,2.66.57,0,1.1,0,1.64,0,.25,0,.5,0,.75.04.28.03.49.2.51.47.03.5.03,1,0,1.5-.01.22-.18.4-.41.45-.56.11-1.12.22-1.69.3-.35.05-.72-.05-1.09.19-.18.41-.18.87-.18,1.34.04,2.12.08,4.24.13,6.35.01.49-.1.66-.6.68-.68.02-1.37.02-2.05,0-.53-.02-.67-.18-.68-.75-.01-.5,0-1.01.03-1.51.06-1.22.18-2.43.2-3.65.03-2.08.05-4.16-.15-6.24-.07-.71-.02-1.44-.02-2.15,0-1.15,0-2.3,0-3.45,0-.35.03-.71.06-1.18Z"/>
    <path d="M59.92,117.01c-.56,0-1.03-.02-1.49-.02-.46,0-.92,0-1.4,0-.21-.68-.2-1.3-.09-1.91,1.35-.1,2.62-.22,3.9-.27,1.26-.05,2.51,0,3.77-.02.47,0,.93-.08,1.39-.08.49,0,.73.23.76.72.03.46.12.93-.07,1.33-.31.28-.65.18-.96.22-.57.07-1.14.12-1.7.25-.7.16-.88.42-.89,1.14-.03,1.29,0,2.59-.07,3.88-.13,2.26-.11,4.52,0,6.78.07,1.4.02,2.8.02,4.2,0,.11,0,.22-.03.32-.05.25-.29.47-.53.44-.53-.07-1.07-.14-1.59-.26-.39-.09-.58-.38-.56-.81.1-2.4-.04-4.81.03-7.21.01-.39.07-.79.12-1.18.17-1.41-.1-2.79-.21-4.19-.08-1.07-.24-2.13-.38-3.32Z"/>
    <path d="M92.16,116.67c-.15.75-.09,1.39-.06,2.03.03.57.02,1.14,0,1.71-.01.64-.05,1.28-.08,1.98.28.03.48.08.69.07.43-.02.86-.08,1.29-.1.63-.03.97.25.96.87,0,.39-.11.78-.23,1.15-.05.14-.24.29-.39.33-.38.1-.77.14-1.16.19-.42.05-.84.08-1.32.12-.04.34-.11.62-.09.9.09,1.73-.2,3.44-.19,5.16,0,.41-.18.66-.53.85-.53.3-1.03.64-1.58.98-.24,0-.33-.19-.32-.42.02-1.18.07-2.37.07-3.55,0-.64-.06-1.29-.09-1.94-.02-.32-.06-.65-.06-.97-.01-3.63-.02-7.26-.03-10.89,0-.11.03-.21.06-.38.21-.07.44-.21.68-.21,1.79-.04,3.58-.29,5.38-.12.29.03.57.05.86.1.56.11.98.87.76,1.42-.06.14-.23.3-.38.34-.38.09-.78.14-1.17.16-.82.04-1.65.05-2.48.08-.17,0-.34.06-.58.11Z"/>
    <path d="M122.34,114.99c.76-.26,1.48-.15,2.19-.1.42.03.76.62.67,1.07-.57,2.63-1.12,5.27-1.71,7.89-.66,2.91-1.28,5.82-1.57,8.8-.03.32.02.64.02.96,0,.23-.2.41-.42.38-.71-.08-1.42-.17-2.22-.27-.05-.12-.17-.3-.2-.49-.2-1.06-.37-2.12-.59-3.18-.13-.64.02-1.11.56-1.5.55-.39,1.07-.83,1.64-1.27.09-.96.15-1.96.28-2.96.33-2.64.73-5.27,1.32-7.86.11-.49.22-.96.06-1.48Z"/>
    <path d="M81.85,114.91c.02.32.07.64.05.96-.12,2.37-.05,4.73.17,7.1.08.86.05,1.72.08,2.58.04,1.25.1,2.51.11,3.76,0,.68-.05,1.36-.07,2.04-.02.57-.02,1.15-.05,1.72-.03.45-.2.65-.65.72-.53.08-1.07.13-1.6.18-.35.03-.56-.13-.56-.48-.02-.72,0-1.44,0-2.15,0-1.15,0-2.29,0-3.44,0-1.26-.05-2.51,0-3.77.13-2.94.28-5.88.12-8.82-.01-.23.04-.5.27-.52.7-.09,1.41-.21,2.15.13Z"/>
    <path d="M144.62,132.59c-.09-.17-.17-.26-.18-.35-.05-.5-.12-1-.13-1.5-.02-3.74-.05-7.47-.03-11.21,0-1.58.14-3.15.21-4.72.42-.37.91-.24,1.36-.25.42,0,.86-.08,1.3.15.22.34.13.73.12,1.12-.04,1.15-.11,2.29-.13,3.44-.04,2.08-.08,4.17-.08,6.25,0,.82.1,1.65.16,2.47.02.25.05.5.06.75.02.31-.06.59-.35.73-.49.24-.71.68-.95,1.13-.28.54-.57,1.08-.89,1.6-.09.15-.3.24-.48.38Z"/>
    <path d="M157.49,132.38c-.07-.3-.18-.49-.16-.68.36-3.5.43-7.02.46-10.54.01-1.65.02-3.31.05-4.96,0-.46.08-.92.12-1.41.9-.45,1.7.06,2.54.07.21.76.15,1.48.06,2.18-.09.68-.07,1.35-.03,2.04.06,1,.04,2.01.03,3.02-.02,1.65-.07,3.3-.11,4.95,0,.4-.03.79,0,1.19.06.78-.08,1.4-.88,1.76-.27.12-.44.46-.63.72-.3.4-.58.83-.89,1.22-.12.15-.31.25-.56.45Z"/>
    <path d="M111.83,128.01c-.12-.29-.23-.48-.27-.68-.27-1.37-.49-2.75-.81-4.11-.37-1.54-.57-3.1-.85-4.65-.19-1.06-.48-2.09-.7-3.14-.04-.2,0-.41,0-.66.42.04.79.09,1.17.11.36.02.72,0,1.08.01.43.02.56.14.65.57.07.35.13.71.17,1.06.13,1.07.28,2.13.35,3.2.08,1.37.4,2.68.68,4.02.16.76.1,1.57.14,2.35.04.78-.37,1.28-1.01,1.64-.15.09-.32.15-.59.28Z"/>
    <path d="M109.48,99.35c-.06.69-.14,1.26-.16,1.82-.02.75,0,1.51,0,2.26,0,.25,0,.51-.07.75-.03.12-.17.28-.27.28-.16,0-.39-.05-.46-.16-.12-.2-.19-.47-.2-.71-.04-.79-.06-1.58-.07-2.37-.01-.61,0-1.22,0-1.73-.12-.13-.16-.2-.22-.23-.25-.16-.73-.06-.69-.53.03-.37.43-.3.69-.39.07-.02.13-.06.25-.13.04-.19.09-.43.14-.66-.1-.09-.16-.18-.25-.23-.12-.07-.27-.1-.39-.18-.24-.16-.25-.49,0-.62.21-.12.45-.19.73-.3.06-1.05.39-2.01,1.2-2.89.09.23.22.38.2.51-.06.5-.16.99-.24,1.49-.06.35-.11.7-.17,1.1.85.28,1.66.33,2.48.34.32,0,.65-.05.97,0,.14.02.35.17.37.3.03.13-.08.37-.2.44-.21.12-.47.21-.7.21-.46.01-.93-.04-1.39-.07-.46-.03-.92-.08-1.45-.12-.02.31-.03.53-.05.8.26.05.46.1.67.14.25.04.5.05.74.11.21.05.42.18.41.43,0,.25-.21.37-.44.4-.21.03-.42,0-.64-.01-.21,0-.41-.02-.77-.05Z"/>
    <path d="M145.39,133.56c-.02-.13-.06-.22-.04-.27.15-.28.29-.58.48-.83.55-.69.82-1.57,1.38-2.22.45.08.3.4.37.61.06.03.13.09.18.08,1.16-.29,2.34-.39,3.53-.25.14.02.29.01.43.05.26.06.44.29.41.55-.05.5-.13.99-.2,1.49-.2.3-.52.37-.85.39-.36.03-.72.03-1.08.02-.87-.03-1.71.04-2.56.28-.48.14-.99.18-1.49.22-.19.02-.4-.08-.57-.12Z"/>
    <path d="M111.21,64.35c.21-.2.43-.38.63-.58.7-.69,2.21-.16,2.39.84,0,.04.01.07.02.11.35,1.75.33,1.95-.87,3.3-.66.74-1.43,1.4-2.17,2.07-.16.15-.41.15-.6,0-.64-.51-1.33-.98-1.74-1.73-.14-.25-.28-.51-.45-.73-.6-.76-.69-1.64-.56-2.55.05-.37.24-.75.45-1.06.36-.52.7-.6,1.31-.37.5.19.98.43,1.59.7ZM111.03,69.48c.88-1,1.74-1.95,2.32-3.12.06-.13.11-.27.14-.41.16-.75-.18-1.38-.91-1.59-.18-.05-.41.03-.6.1-.12.05-.21.19-.3.3-.26.29-.55.28-.88.13-.26-.12-.51-.27-.79-.35-.95-.25-1.7.49-1.49,1.45.17.75.53,1.41.89,2.07.33.63.82,1.08,1.63,1.41Z"/>
    <path d="M164.67,131.53c.13.69.12,1.32,0,2.01-.24.01-.46.08-.65.03-1.41-.37-2.83-.32-4.26-.19-.32.03-.64.06-.96.06-.13,0-.26-.07-.46-.12.21-.56.72-.83.97-1.29.25-.46.6-.87.91-1.3.47.14.31.65.64.91.14,0,.36.04.55,0,.84-.22,1.69-.34,2.55-.29.24.01.47.11.71.17Z"/>
    <path d="M96.73,133.71c-1.17-.07-2.2-.12-3.23-.21-.89-.07-1.78-.18-2.67.05-.08.02-.24-.11-.31-.21-.03-.04.04-.21.12-.26.21-.14.44-.23.65-.37.36-.23.75-.44,1.06-.72.43-.38.9-.58,1.46-.56.89.02,1.79.04,2.68.08.42.02.58.21.52.63-.07.49-.17.98-.28,1.57Z"/>
    <path d="M132.91,133.44c.41-.85,1.12-1.2,1.6-1.78.08-.09.25-.14.38-.15,1.17-.08,2.35-.15,3.52-.21.1,0,.2.05.37.1-.09.69-.18,1.37-.27,2.1-.62-.03-1.21-.08-1.8-.09-.64-.01-1.29.03-1.93,0-.59-.03-1.17.23-1.86.03Z"/>
    <path d="M115.19,103.14c-.04,1.07-.07,2.14-.13,3.21-.01.24-.1.49-.21.71-.05.1-.23.19-.34.18-.12,0-.28-.11-.33-.22-.07-.15-.08-.34-.08-.52-.02-1.47-.03-2.93-.06-4.4,0-.5-.06-1-.08-1.5-.02-.44.03-.86.42-1.16.21-.16.56-.09.62.16.06.24.08.49.08.74,0,.93,0,1.86,0,2.79.04,0,.08,0,.11,0Z"/>
    <path class="cls-1" d="M88.98,106.57c.04.7-.02,1.37-.37,1.99-.37.65-1.05.71-1.45.07-.2-.32-.37-.72-.41-1.09-.1-.86.01-1.72.27-2.55.11-.35.3-.65.61-.86.31-.2.65-.15.84.17.3.5.46,1.05.5,1.63.02.21,0,.43,0,.64ZM87.95,104.58c-.15.11-.23.14-.26.19-.47.97-.53,1.99-.34,3.03.05.29.17.63.57.67.48-.63.52-.68.53-1.47,0-.81.1-1.64-.49-2.42Z"/>
    <path class="cls-1" d="M153.95,108.4c-.62,0-1.14-.4-1.69-.06-.38-.49-.21-1.16-.72-1.62-.37.6,0,1.26-.34,1.84-.12-.12-.22-.17-.25-.25-.16-.45-.17-.91-.07-1.38.11-.52.29-.75.62-.76.39-.01.57.24.7.56.08.19.16.39.29.68.2-.28.32-.54.51-.7.21-.17.49-.26.78-.41.07-.49.15-1,.24-1.55.13.06.24.08.24.12.15,1.11-.08,2.21-.14,3.31,0,.06-.09.11-.17.2ZM153.67,107.41c-.11-.13-.18-.27-.24-.27-.22,0-.3.17-.29.36,0,.07.11.14.17.21.11-.1.22-.19.35-.31Z"/>
    <path class="cls-1" d="M79.52,108.02c-.22-.27-.45-.5-.62-.77-.17-.27-.33-.56-.4-.87-.12-.49.29-.93.74-.75.52.2.96.09,1.45-.1.08-.23.17-.48.33-.9.21.54.35.92.52,1.36-.34.59-.25,1.29-.08,2,.1.4.54.29.76.5-.01.3-.25.35-.45.34-.2-.02-.43-.09-.57-.23-.26-.26-.36-.61-.36-.99,0-.43,0-.86,0-1.3-.2-.07-.35-.2-.45-.16-.44.17-.86.22-1.37-.31.02.44-.02.63.05.76.14.25.34.46.5.69.14.2.3.41.37.64.12.34-.04.68-.36.8-.26.1-.55.15-.83.17-.18,0-.35-.13-.33-.35.02-.2.12-.34.36-.24.27.11.49.06.72-.3Z"/>
    <path class="cls-1" d="M91.87,104.8v.83c.12.01.18.03.25.03.97-.07,1.25.12,1.35,1.04.06.53.05,1.08,0,1.61-.06.6-.49.95-1,.91-.57-.05-1.04-.56-1.05-1.14,0-.05.08-.1.17-.19.2.22.37.44.57.62.33.28.74.11.77-.32.03-.5.03-1-.01-1.5-.04-.5-.42-.64-.84-.32-.11.09-.19.21-.3.31-.08.07-.17.11-.33.2-.06-.09-.15-.17-.17-.26-.12-.79.09-1.55.17-2.34.58-.25,1.06.06,1.71,0-.42.52-.89.24-1.29.52Z"/>
    <path class="cls-1" d="M143.16,108.24c-.12-.37-.22-.63-.29-.91-.05-.21-.07-.42-.06-.63.01-.27.14-.53.4-.58.42-.08.68-.35.97-.67.28.33-.12.56,0,.83.09.22.09.49.08.74-.02.35-.1.48-.62,1.17.12.11.24.23.37.33.45.35.54.66.3,1.08-.22.4-.67.58-1.1.44-.43-.13-.78-.58-.81-1.04-.02-.23.09-.42.29-.54.12-.07.25-.12.48-.22ZM143.9,109.3c-.07-.14-.09-.27-.16-.3-.15-.08-.33-.13-.5-.15-.08,0-.21.07-.25.15-.04.08-.02.21.03.29.12.2.32.29.54.24.12-.03.22-.14.34-.23ZM143.45,106.65c-.06.04-.17.09-.2.17-.08.2.06.5.24.51.1,0,.26-.11.3-.21.08-.2-.09-.43-.34-.47Z"/>
    <path class="cls-1" d="M148.39,108.06c-.37-.78-.43-2.38-.3-3.09.45.38.2.99.55,1.41.26-.13.52-.29.8-.41.38-.16.76,0,.81.41.07.53.06,1.06.04,1.6-.01.31-.24.5-.54.59-.48.14-.78-.11-.72-.6.04-.33.16-.62.45-.81.12-.08.28-.14.33-.24.05-.1,0-.27-.05-.38-.03-.06-.18-.09-.28-.09-.4,0-.41.55-.81.61-.07.01-.1.3-.15.46-.05.18-.09.37-.14.56Z"/>
    <path class="cls-1" d="M84.15,105.51c-.28-.37-.13-.62.02-.79.21-.23.46-.45.75-.58.37-.16.83.07,1.11.46.23.32.22.68.09,1.03-.22.61-.46,1.2-.69,1.8-.09.22-.17.45-.25.65.37.36,1,.05,1.25.66-.72.09-1.37.17-2.09-.1.06-.2.1-.37.16-.52.35-.82.72-1.64,1.06-2.46.12-.3.2-.63-.11-.88-.26-.21-.59-.13-.93.24-.12.13-.21.28-.36.49Z"/>
    <path d="M116.32,88.58c.2.95-.09,1.58-.8,2.03-.15.1-.27.07-.69-.15.05-.46.74-.61.6-1.24-.72-.12-1.46-.4-2.21.08-.08.05-.25-.05-.37-.08.04-.13.04-.28.11-.39.2-.29.53-.37.86-.36.82.01,1.64.06,2.5.1Z"/>
    <path class="cls-1" d="M77.62,108.02c.03.41-.18.53-.44.59-.26.06-.5-.02-.69-.21-.57-.57-.68-1.98-.22-2.62.25-.35.62-.47.93-.31.39.2.63.72.49,1.09-.05.12-.16.24-.28.31-.15.09-.33.13-.5.19-.13.05-.25.11-.37.16q.23.93,1.07.81ZM76.54,106.54c.22-.02.34,0,.41-.04.09-.07.18-.19.21-.3.01-.05-.12-.2-.17-.2-.12.01-.25.07-.34.15-.06.06-.05.19-.1.39Z"/>
    <path class="cls-1" d="M135.56,105.61c-.38-.06-.68-.57-.98-.14-.23.33.12.57.34.8.17.18.36.36.48.57.12.21.2.46.22.7.05.49-.16.86-.49.98-.37.13-.8-.02-1.12-.42-.04-.05-.03-.13-.03-.2,0-.03.02-.06.03-.1.3-.23.39.2.63.21.27.02.54-.14.48-.41-.05-.23-.15-.48-.28-.67-.16-.23-.4-.41-.58-.63-.34-.41-.37-1.03-.03-1.25.19-.12.47-.15.71-.14.3.01.53.19.6.51,0,.03,0,.07,0,.2Z"/>
    <path class="cls-1" d="M136.35,105.91c.41.13.68.15.84.29.2.18.37.44.46.7.27.76-.33,1.09-.81,1.46-.06.42-.12.83-.18,1.3-.17-.1-.31-.14-.33-.2-.29-1.13-.08-2.25.02-3.55ZM136.78,106.63c-.03.38-.17.74.17,1.07.44-.58.42-.74-.17-1.07Z"/>
    <path class="cls-1" d="M128.71,105.59c-.12-.03-.16-.03-.18-.06-.16-.13-.25-.38-.52-.3-.2.07-.25.47-.09.76.11.19.26.34.37.52.13.21.3.42.36.65.19.78-.18,1.09-.78,1.05-.3-.02-.66.05-.83-.42.38-.04.72-.08,1.14-.12-.03-.23-.02-.44-.1-.61-.08-.19-.24-.36-.37-.52-.29-.36-.37-.77-.31-1.21.05-.42.24-.61.6-.61.52,0,.69.19.71.86Z"/>
    <path class="cls-1" d="M129.38,106.55c.06-.15.09-.34.19-.45.27-.27.68-.21.78.14.14.47.23.97.29,1.46.04.32-.3.56-.75.62-.3.04-.58-.14-.67-.42-.1-.34.02-.62.35-.79.03-.02.07-.02.1-.02.25-.03.41-.16.34-.42-.11-.44-.39-.02-.64-.11Z"/>
    <path class="cls-1" d="M142.02,108.41c-.53-.51-.16-1.23-.66-1.63-.42.51.02,1.17-.44,1.69-.1-.14-.22-.23-.24-.34-.07-.53-.03-1.06.16-1.57.09-.23.25-.33.45-.41.22-.09.44-.02.53.19.27.62.3,1.27.19,2.07Z"/>
    <path class="cls-1" d="M90.19,108.83c-.05-.19-.13-.38-.13-.57-.02-.72,0-1.43,0-2.15,0-.66,0-.66-.5-1.17q.39-.55.85-.58c.2.98.18,3.73-.21,4.46Z"/>
    <path class="cls-1" d="M146.74,106.6c.31.31.58.54.79.81.22.3.07.75-.3.87-.18.06-.42.02-.61-.04-.09-.03-.14-.2-.25-.37.27-.04.46-.07.77-.11-.17-.2-.27-.32-.39-.43-.18-.17-.4-.3-.55-.49-.21-.27-.04-.68.28-.76.2-.05.27-.03.87.21-.22.11-.38.19-.62.31Z"/>
    <path class="cls-1" d="M131.94,105.97c.14-.25.3-.55.52-.94.24.95-.21,1.81.12,2.63.19.03.36.06.57.09-.02.35-.24.49-.54.52-.24.02-.42-.13-.48-.36-.07-.24-.09-.49-.11-.74-.03-.35-.05-.7-.09-1.2Z"/>
    <path class="cls-1" d="M145.47,105.09c.06.03.16.06.17.09.05.92.08,1.84.11,2.77,0,.09-.06.2-.13.28-.03.04-.12.04-.19.05-.03,0-.06-.03-.08-.05-.02-.03-.05-.06-.05-.09.02-.96.04-1.92.07-2.88,0-.05.06-.11.1-.16Z"/>
    <path class="cls-1" d="M131.35,108.16c-.26.11-.41-.02-.42-.2-.07-.93-.12-1.86.19-2.76,0-.02.06-.03.17-.07.02,1,.04,1.98.06,3.03Z"/>
    <path class="cls-1" d="M139.09,105.99c-.42.61-.42.61-.45,1.38-.01.28-.06.56-.1.84,0,.02-.05.03-.08.04-.25-.52-.31-1.15-.21-2.15.25-.03.51-.06.83-.1Z"/>
    <path class="cls-1" d="M139.9,106.52c.23.48.23.93-.07,1.56-.18-.65-.05-1.11.07-1.56Z"/>
    <path class="cls-1" d="M139.03,105.42c.3-.23.44-.38.61-.46.16-.08.39.1.36.28-.02.12-.14.29-.22.3-.19.02-.38-.05-.75-.12Z"/>
    <path class="cls-1" d="M76.54,106.54c.05-.2.04-.33.1-.39.09-.08.22-.14.34-.15.06,0,.19.15.17.2-.03.11-.11.23-.21.3-.07.05-.19.03-.41.04Z"/>
    <path d="M136.03,81.51c0,.5-.01,1,0,1.51.03.75.09,1.5.11,2.25,0,.35-.01.71-.09,1.05-.03.12-.27.26-.4.25-.13,0-.36-.18-.37-.29-.09-1.03-.26-2.08-.19-3.1.12-1.94.05-3.87-.16-5.8-.16-1.39-.33-2.78-.5-4.16,0-.07-.01-.16.02-.21.08-.11.17-.27.28-.29.11-.02.31.07.35.16.12.26.21.54.25.82.12.85.22,1.71.32,2.56.01.11,0,.22.03.32.4,1.62.34,3.28.36,4.93Z"/>
    <path class="cls-5" d="M129.99,107.39s-.38.03-.38.18.12.44.26.35.47-.44.12-.53Z"/>
  </g>
  <g>
    <polygon class="cls-3" points="28.25 79.98 4.68 114.47 5.86 115.96 50.81 114.4 34.66 84.74 29.85 79.12 28.25 79.98 28.25 79.98"/>
    <path class="cls-2" d="M27.08,84.46c-.85.37-.24-.86-1.09-.49-.41.14-.18.86-1.04.59-.33,1.4-.66,2.8-1.98,3.3-.31,1.48.75,1.42,1.18,2.08-1.86,1.36-1.87,5.72-5.15,4.27.3.79,1.28.84,1.43,1.8-.71.36-1.23.5-1.58.61,1.14.93-.3.7-.74,1.37-1.14,1.77-1.76,4.55-3.76,5-.07,1.29-.54,2.23-1.75,2.49.67,1.39-.39.2-.76.84,1.72.32-1.1,1.17.1,1.87-1.9.39-1.43,2.94-2.75,3.88-.17-.46.25-1.59-.34-1.59,0,.42.09.93-.5.83-.28.88.87.16.59,1.04-1.11.27-.91,1.73-1.48,2.48,2.78-.61,7.3-.66,10.41-.52.05-.2-.02-.52.24-.54,10.36.94,18.61-.66,31.25-1.01-.58-2.81-3.05-4.15-4.03-5.69-.32-2.37-2.56-2.61-2.66-5.21-1.2.18-1.03-.95-.88-1.56-1.06.02-2.03-1.7-1.17-2.09-.84.45-.9-.16-1.63-.46-1.93-5.83-6.53-9.94-8.74-14.54.01.27-.45.36-.54.02.33-.04.63-.11.51-.56-.75.26-.71-.34-1.35-.2-1.29,1.8-1.87,4.25-4.02,5.28.56.92-.2,1.3-.7,1.91-.32-1.06-.07-2.08.39-2.96.44-.02.18.73.57.78.06-1.15.97-3.33,1.76-2.23-.03-.37.09-.59.22-.81h0ZM42.67,96.8c1.58.22,1.16,2.65,2.82,2.8.04,1.73.93,2.54,2.02,3.11-.13,1.82.91,2.38,2.01,2.84.13.45-.18.51-.5.56.38.37,1.26.61.6,1.31.21-.15.43-.3.79-.31.12.54-.01.84-.49.83.53.68,2.07,2.13,1.2,2.61.27.45.87.55,1.62.46.15,2.19,1.35,3.2,1.35,5.55-.25-.16-1.01-.58-.78.3-.48-.5-1.86,0-1.92-.98-.59,1.06-1.83-.7-3.17.7-.81.13-.6-.84-.87-1.3-.76.27.38.65.07,1.33-.21-.17-.9-1.09-.8.04-3.73-.26-9.26-.28-12.56.08-.02-.26-.03-.52-.04-.79-1.21.71-2.61.85-3.74.18-.72,1.04-5.69,1.07-7.21.36-2.94,1.68-9.46.1-10.88,1.87-2.3-1.29-6.26.17-9.14-.88-.27-.84.18-1.02.46-1.36-1.08-.04-.45-.21-.62-1.84,1.25-.41,1.76-1.46,1.73-3.03,1.24.2.54-1.37,1.81-1.16-.23-.81-.21-.5-.06-1.33,1.81.2.72-2.24,2.29-2.25-.18-.27-.63-.25-.57-.78,1.08.29.5-.9,1.57-.61-.02-.45-.05-.89-.07-1.34.23-.22.59-.32,1.05-.32,1.56-4.03,4.49-6.81,6.16-10.74.92-.02,1.21-.6.99-1.65.78.03.79-.64,1.58-.61.65-3.57,4.05-4.66,4.68-8.26,2.93-.66,2.23-4.61,5.08-5.33-.18-.26-.63-.25-.58-.78.88-.05,1.31-.52,2.39-.38,1.2.85-.31,1.38,1.4,1.27-1.1,1.21.35,4.73,1.55,4.2.39.07.07,2.02,1.42,1.81-.14.82.33.96.35,1.59,3.43,2.86,4.09,8.8,7.53,11.66.12.45-.19.52-.51.57h0Z"/>
    <text class="cls-4" transform="translate(17.77 111.58) scale(.79 1)"><tspan x="0" y="0">67</tspan></text>
  </g>
</svg>