<?xml version="1.0" encoding="UTF-8"?>
<svg id="Layer_1" data-name="Layer 1" xmlns="http://www.w3.org/2000/svg" viewBox="0 0 180 200">
  <defs>
    <style>
      .cls-1 {
        fill: #404041;
      }

      .cls-1, .cls-2, .cls-3, .cls-4, .cls-5, .cls-6 {
        fill-rule: evenodd;
      }

      .cls-2, .cls-7 {
        fill: #fff;
      }

      .cls-3 {
        fill: #231f20;
      }

      .cls-7 {
        font-family: AmericanTypewriter-Bold, 'American Typewriter';
        font-size: 20.52px;
        font-weight: 700;
      }

      .cls-4 {
        fill: #acd049;
      }

      .cls-5 {
        fill: #f4f4f4;
      }

      .cls-6 {
        fill: #6d2c90;
      }
    </style>
  </defs>
  <g>
    <path class="cls-5" d="M50.78,139.49c-3.75-7.92-2.44-21.01-2.82-30.71-.05-1.35-.49-2.77-.53-4.13-.13-4.8-.05-12.5,0-17.5.03-4.79-.33-9.79.88-13.94.63-.62,1.36-1.1,1.58-2.32,1.55-.37,3.05-1.41,4.93-1.81,1.52-.32,3.05.22,4.57,0,.81-.12,1.48-.87,2.29-1.03.77-.15,1.66.32,2.47.26,1.52-.13,3.04-1.09,4.57-1.29,5.6-.72,11.53-.71,17.6-.77,5.74-.06,11.87,1.19,17.6.98,3.57-.13,7.15-.04,10.74-.26,4.76-.29,9.62-.36,14.25-.52,2.91-.1,5.94-.08,8.62.26,2.36.3,5.39.99,8.45,1.03,1.88.03,3.91-.71,5.98-.77,1.94-.06,4.01.34,5.98.26,4.07-.17,8.57-.61,11.79.52.73.26,1.46,1.33,2.47,2.06,1.05.77,2.24,1.15,2.64,1.81,1.19,1.99.71,6.59.88,10.58.64,15.38,3.41,37.46.35,52.65-2.19,4.89-6.28,3.76-11.44,4.13-4.24.31-8.26.49-12.84.77-2.02.13-4.08.6-6.16.78-11.25.93-23.51.21-33.08.51-9.52.3-20.32-.08-29.03-.77-1.24-.1-2.46.53-3.7.52-2.26-.03-4.47-.79-6.69-.52-1.69.21-3.28,1.1-4.93,1.03-1.15-.05-2.44-.9-3.69-1.03-2.92-.29-6.14.84-9.15.26-1.63-.31-3.05-1.19-4.58-1.03h0Z"/>
    <path class="cls-4" d="M161.76,82.07c1.68,4.35-1.85,9.03-4.69,10.84,1.04.62,2.18.58,3.37.4.05.52-.5.8-.82,1.18-1.05,1.26-2.81,3.15-4.55,3.37-1.27.16-2.53-.39-3.74-.29-1.06-1.58-.6-4.24-1.04-6.27.14-.19.34-.31.45-.54.95-5.35,7.67-3.27,10-6.84.37-.57.44-1.24,1.03-1.86h0Z"/>
    <path class="cls-4" d="M107.38,71.79c.37,1.71.39,3.61.61,5.57.48,4.31.18,8.55.78,12.87.41.89,2.34.73,2.09,2-.43.39-1.08.11-1.57.09-1.77-.08-3.39.68-4.7.17.52-.6.76-.94.7-2.09-.04-.74-.27-1.57-.26-2.44.04-4.07.06-9.13-.09-13.22-.41-.52-1.09-.51-1.65-.7.48-.74,1.51-.47,2.18-.78.78-.36,1-1.32,1.82-1.48h.09Z"/>
    <path class="cls-2" d="M144.29,96.36c-2.34-.08-5.02-.89-7.17-1.94,1.93-1.42,5.01-1.54,7.33-2.09.5.95-.06,2.65-.16,4.03h0Z"/>
    <path class="cls-2" d="M159.28,95.94c.52.63,1.51.94,1.72,1.8-1.36,0-2.62.12-3.85.31.32-.82,1.55-1.29,2.13-2.1h0Z"/>
    <path class="cls-2" d="M146.95,100.43c-.71,1.8-.58,3.69-.69,5.53.6-.1.81.45,1.18.29.26-.7.13-1.74.27-2.6.36-.03.66-.13.93-.28.48.74,1.34,1.2,1.57,2.12-.58.66-1.21,1.26-1.68,2.09.46.34,1.08.16,1.43.42.33-.57.69-1.09,1.14-1.48.51.49.77,1.16,1.51,1.5.21-.24.5-.36.93-.28.05-1.19-1.39-1.32-1.63-2.31.44-.65,1.02-1.12,1.31-1.98-.77-1.39-1.66.47-2.21,1.03-.29-.65-.88-1.09-1.31-1.64,2.11-1.12-1.08-3.64-2.76-2.42h0ZM161.75,99.01c.08,0,.08.05.07.1-.89,3.5-2.03,7.07-4.18,9.43-2.94.74-7.64.33-10.98.23-1.66-.05-1.85-.14-2.77-1.36-2.05-2.73-3.07-6.76-4.13-10.33,2.98,1.09,6.16,1.25,8.98,2.16.42.14.48-.24.83-.21,4.49.5,8.51.91,12.18-.02h0Z"/>
    <path class="cls-4" d="M93.37,89.11c-.04,1.17.57,1.53,1.66,1.57,1.48-.76,2.07-.83,2.44-3.35-2.56-.35-3.01.38-4.1,1.78h0ZM103.46,92.59c-1.24,0-2.65-.07-4,.17-.03-.82.05-2.86-.78-3.05-.94-.21-1.5,1.69-2.17,2.09-.9.53-3.05.81-3.92.26-2.21-1.43-.43-5.7,1.39-6.35.16-.06.61,0,.96-.09.36-.09.68-.31,1.04-.35.9-.12,1.8-.08,1.91-1.13.17-1.58-2.11-2.5-3.83-2.18-.77.15-1.15.69-1.83.78,0-1.13-.1-2.37.35-3.05.08-.05.16-.1.18,0,1.64.33,3.62.02,5.13.96.45.28,1.92,1.35,2.26,1.83.94,1.34,1.05,3.56,1.13,5.22.04.84-.32,2.13,0,3.04.31.89,2.21.72,2.17,1.83h0Z"/>
    <path class="cls-2" d="M136.57,96.09c.88.26,1.11.55,2.17.73,1.68,3.91,2.39,8.5,5.24,11.58-2.89.38-3.79-2.9-4.82-4.8-.37-.7-.76-1.45-1.22-2.15-.21-.32-.35-.91-.66-1.26-.07-1.48-.62-2.63-.71-4.09h0Z"/>
    <path class="cls-1" d="M147.78,101.2c.12.39-.2,1.09-.08,1.48.73-.02,1.43-.45,1.37-1.26-.29-.23-.94-.45-1.29-.22h0ZM149.7,102.85c.43.55,1.02.98,1.31,1.64.54-.57,1.43-2.43,2.21-1.03-.3.86-.87,1.33-1.31,1.98.24.99,1.68,1.12,1.63,2.31-.43-.08-.73.04-.93.28-.74-.33-1-1-1.51-1.5-.45.39-.81.91-1.14,1.48-.35-.26-.96-.08-1.43-.42.47-.83,1.1-1.43,1.68-2.1-.23-.91-1.1-1.38-1.57-2.12-.27.15-.57.26-.93.28-.14.86,0,1.9-.27,2.6-.37.16-.58-.39-1.18-.29.11-1.84-.02-3.73.69-5.53,1.68-1.22,4.86,1.3,2.76,2.42h0Z"/>
    <path class="cls-2" d="M149.07,101.42c.06.81-.63,1.25-1.37,1.26-.12-.39.2-1.09.08-1.48.34-.23.99-.01,1.29.22h0Z"/>
    <path class="cls-4" d="M98.13,99.82c-.52-.19-.65-.8-1.22-1.04-1.09-.49-2.4.13-3.04.95.24,2.04-.66,4.65.09,6.35.25.56.84.73.87,1.33-1.5.07-3.11.38-4.44.1.12-.72,1.07-.54,1.3-1.14-.13-1.36-.3-3.43-.35-5.4-.03-1.26.48-2.75-1.04-2.84.54-.74,1.8-.69,2.35-1.42.38.21.37.86.78,1.04,1.54-.07,3.01-.67,3.91-1.71,1.06.77.81,2.02.78,3.8h0Z"/>
    <path class="cls-4" d="M83.06,100.59c.17,1.2,1.61,2.73,2.61,2.61.85-.1,1.81-1.75,1.65-3.13-.16-1.37-1.05-3.16-2.26-2.87-1.06.64-2.24,1.74-2,3.39h0ZM82.36,95.81c.21.6.08,1.55.61,1.83.83-.08,1.25-1.51,2.37-1.65.56-.07,1.51-.07,2.07-.08,2.91,1.28,2.26,5.6,1.41,8.16-.36.52-.64,1.22-1.24,1.74-.91.78-1.33.78-1.7.74-2.05-.23-2.6-2.36-2.47-1.52.09.59-.05,1.34-.09,2.09-.08,1.78.12,4.2,1.91,4.87.06.38-.44.2-.35.61-2.66-.22-3.64,0-6.18.61.18-.77,1.17-1.18,1.31-2,.04-.28-.08-.58-.09-.87-.09-3.83-.08-8.7-.96-12.09-.41-.28-1.1,0-1.48-.44.58-1.16,1.92-1.55,3.13-2.09.27-.1.21.14.35.17.27-.37.99-.28,1.39-.09h0Z"/>
    <path class="cls-4" d="M104.14,96.93c.3,2.86-.16,6.23.43,9.08.29.54,1.04.59,1.22,1.26-1.48.31-3.36-.07-4.78.1-.03-.35.32-.29.52-.39-.38-3.18,1.04-9.46-1.57-9.95,1.06-1.8,2.89-.44,4.18-.1h0Z"/>
    <path class="cls-4" d="M84.27,98.67c-.39.42-.74,1.47-.61,2.26.09.57.83,1.69,1.39,1.74,2.03.19,2.06-5.06.43-4.78-.2.03-.97.51-1.22.78h0ZM85.06,97.2c1.21-.29,2.1,1.5,2.26,2.87.16,1.38-.81,3.03-1.65,3.13-1,.12-2.44-1.41-2.61-2.61-.24-1.65.94-2.74,2-3.39h0Z"/>
    <path class="cls-4" d="M126.4,101.49c.68.05,1.68-.57,1.97-1.12.86-1.66-.74-4.19-2.36-3.87-2.17.43-1.51,4.83.39,4.99h0ZM128.77,100.75c-.71.7-1.92,1.55-3.15.82-1.22-.71-2.13-3.48-.87-4.98,1.39-1.64,3.77.02,4.26,1.56.3.95-.02,1.57-.24,2.6h0Z"/>
    <path class="cls-1" d="M66.84,116.66c0,2.22.11,4.66.09,7.28,6.12.78,5.86-8.13-.09-7.28h0ZM67.08,125.13c-.33,1.45-.24,3.28-.21,5.17.01,1.04.35,2.39-.52,2.92-1.07-.29-.73-1.65-.72-2.38.07-4.34.42-9.38.1-14.83,3.41-1.77,7.46,1.61,7.27,4.95-.15,2.58-2.86,3.95-5.91,4.18h0Z"/>
    <path class="cls-1" d="M90.46,124.23c1.37.08,2.3-.28,3.68-.19-.74-2.37-1.46-4.77-2.59-6.75-.26,2.42-.85,4.51-1.1,6.94h0ZM98.52,132.39c-2.76-.7-2.46-4.54-3.77-6.74-1.64.19-3.26.03-4.86.5-.48,1.76-.41,4.06-1.41,5.33-.43.04-.46-.33-.89-.29-.09-2.1,1.09-3.66.67-5.61,1.69-3.12,1.54-8.37,2.66-11.24.17-.03.26.03.29.15,2.18,2.08,3.01,5.41,4.09,8.5,1.09,3.12,2.25,6.34,3.21,9.4h0Z"/>
    <path class="cls-1" d="M106.06,122.27c2.3-1.52,1.53-5.23-.96-6.03-1.11-.07-1.97.12-2.94.18.25,3.03.34,4.46.24,7.22,1.54-.15,2.42-.94,3.67-1.37h0ZM106.68,124.33c.89,2.93,2.99,5.38,3.64,8.06-.54.51-.55-.04-1.32.02-1.37-2.43-2.5-5.1-3.78-7.62-1.06.23-1.98.59-2.79,1.06-.14,1.55.1,3.22.06,4.86-.02.84.13,2.23-.86,2.52-.73-.35-.89-2.48-.93-3.53-.09-2.33.59-4.94.35-7.52-.21-2.34-.2-4.94-.23-6.93,3.23-2.08,8.07.58,8.3,4.03.15,2.12-1.37,3.52-2.44,5.04h0Z"/>
    <path class="cls-1" d="M127.25,115.1c.46,5.96.71,12.79.47,16.81-.56.04-.52-.17-.94.01-.74-4.4-.2-9.22-.97-13.93-1.42,2.18-2.49,4.71-4.32,6.48.09.51.23.79-.12,1.1-2.48-.66-3.25-4.56-5.15-6.37-.06,3-.47,5.76-.56,8.9-.03,1.21.53,3.88-.68,4.56-1.38-.61-.87-3.66-.8-5.5.16-4.08.19-8.15.26-11.63.37-.39,1.17-.3,1.73-.16,1.51,2.52,2.8,5.28,4.36,7.74,2.31-2.33,3.59-5.69,5.5-8.41.61-.08.8.27,1.21.39h0Z"/>
    <path class="cls-1" d="M133.21,124.17c1.08-.15,1.84.03,3.14-.04-.58-2.47-.85-4.62-1.79-6.47-.53,2.09-.94,4.29-1.35,6.5h0ZM139.73,131.17c-.52.05-.93-.01-1.29-.13-.15-2.18-.98-3.64-1.64-5.29-1.29-.1-2.31-.6-3.72-.25-.98,1.63-.2,6.43-2.65,5.63.89-4.83,1.89-10.81,3.1-15.81,1.41-1.06,2.32,1.19,2.75,2.47.61,1.86,1.06,4.4,1.65,6.76.61,2.38,1.92,4.52,1.8,6.61h0Z"/>
    <path class="cls-1" d="M149.83,115.42c.19.19.19.54.01.74.77.16,1.67.09,1.73,1.31-1.67-.04-3.04-1.03-4.72-.53-3.58,1.05-4.29,7.54-2.16,10.49,1.22,1.7,3.09,1.83,4.74,1.57.75-.12,1.88-1.01,2.57.12-1.19,1.39-4.87,1.38-6.42.81-3.04-1.12-5.07-7-3.27-10.72.73-1.5,2.82-3.45,4.53-3.89.9-.23,1.99-.05,3,.11h0Z"/>
    <path class="cls-1" d="M158.45,120.66c1.08-.87,1.56-2.41,2.24-3.72.64-1.21,1.24-2.91,2.82-3.13.51,1.25-.62,2.64-1.24,3.85-.91,1.77-1.86,3.5-3.08,4.9.1,2.72.28,5.78.1,8.84-.55.04-1.05.02-1.43-.13-.25-2.67-.09-5.86-.11-8.85-1.94-2.48-4.51-5.09-5.25-8.34.49-.33,1.11.26,1.58.42,1.07,2.45,2.42,4.61,4.36,6.14h0Z"/>
    <path class="cls-1" d="M159.16,134.94c-.73.52-1.93.39-2.81.4-7.35.12-13.83-.25-21.67-.27-14.78-.04-30.72.93-45.58,1.2-3.95.07-8.01-.01-11.65.02-3.42.03-7.17-.2-9.88.04-.55.18-.27-.2-.58-.34-.63-.29-1.94-.1-1.9-.93,19.23.17,35.57-.39,53.69-1.17,6.56-.28,13.37-.32,19.91-.2,2.36.04,5.49.16,8.4.26,2.94.1,6.08.3,8.84.27.95-.01,2.93-.67,3.23.73h0Z"/>
    <path class="cls-4" d="M88.19,73.56c.06,1.18-.08,1.67-.18,2.61-1.76-.24-2.53-1.47-4.61-1.39-1.46.88-1.38,1.87-1.13,2.78.24.27,1.26,2.17,1.95,2.77.46.4,1.07,1.09,1.62,1.49.35.25.66.7,1.04.96.47.32.98.5,1.22.78.97,1.14,1.66,4.41.87,6.26-.19.45-.71.73-.69,1.22-1.3.7-2.78,1.7-4.78,1.92-1.43.15-3.49.15-4.26-.35-1.37-.87-1.39-3.97-.78-5.56.99.72,1.29,2.13,2.17,2.96,3.01,1.81,6.71-1.39,5.39-3.91-.72-1.38-2.35-2-3.57-3.31-1.08-1.16-1.49-2.41-2.44-3.22-.46-1.02-.85-2.03-.69-3.4.45-3.86,5.78-4.85,8.87-2.61h0Z"/>
    <path class="cls-4" d="M75.27,90.58c.06,1.18-.08,1.67-.17,2.61-1.76-.24-.98-1.47-4.61-1.39-1.84,1.12-1.17,2.03-1.13,2.78.24.27.54,1.42.26,1.39.63.52.87,1.32,1.57,1.92.46.4,1.2.56,1.74.96.35.25.66.7,1.04.96.47.32.98.5,1.22.78.97,1.13,1.66,4.41.87,6.26-.19.45-.71.72-.7,1.22-1.3.7-2.78,1.7-4.78,1.91-1.43.16-3.49.15-4.26-.35-1.37-.88-1.39-3.97-.78-5.57.99.72,1.29,2.13,2.18,2.96,3,1.81,6.71-1.39,5.39-3.91-.72-1.38-2.35-2-3.57-3.3-1.08-1.16-1.49-2.42-2.43-3.22-.46-1.01-.85-2.03-.7-3.39.45-3.86,5.78-4.85,8.87-2.61h0Z"/>
    <path class="cls-4" d="M111.26,95.31c.28.37-.03,2.08.43,2.78.94-.7,1.81-2.66,3.22-2.87,1.89-.29,2.95,1.65,3.04,3.48.12,2.39-.13,5.37-.09,7.82.2.58,1.14.42,1.3,1.04-1.17.18-2.24-.48-3.65-.35.02-1.57.07-3.68-.09-5.56-.11-1.31-.6-3.75-2.26-3.13-2.24.83-1.58,6.45-1.04,8.96-1.42,0-2.98.49-4.43-.09.11-.18.34-.23.44-.44,0-3.72-.32-6.79-.35-10.35,1.76.16,2.16-1.03,3.48-1.3h0Z"/>
    <path class="cls-4" d="M129,98.14c-.49-1.54-2.87-3.2-4.26-1.57-1.26,1.5-.35,4.27.87,4.99,1.23.73,2.44-.12,3.15-.81.22-1.04.54-1.65.24-2.61h0ZM123.88,103.5c0,2.3,2.72,2.14,4.8,2.9,1.3.48,2.23,1.35,3.39,1.86.7,1.26,1.74,2.17,1.11,4.17-.29.91-1.6,2.69-2.53,3.2-3.69,2.05-10.29.5-9.53-4.76,1.36-.03,2.34.1,3.47.07-.02,1.99,1.78,4.25,4.02,3.95.85-.12,2.01-1.05,2.05-1.86.04-.71-.82-1.73-1.34-2.16-.55-.46-1.54-.98-2.37-1.26-2.91-1-6.9-1.18-7.09-4.69,1.1-.82,2.65-1.22,3.78-2.01-1.07-.94-2.66-1.75-3-3.42-.31-1.53.56-2.66,1.34-3.72.19.05.36.11.63.07.06-.25-.32-.09-.24-.37.9-.93,2.81-1.15,4.17-.74.29-.19-.23-.41,0-.52,1.33-.27,2.83.13,4.26,0,.76-.07,1.31-.53,2.13-.45.15.23-.08.86,0,1.26-.69.22-1.21.82-1.89.82-.41,0-.69-.36-1.18-.15,1.21,1.34,2.65,3.85,1.5,5.88-.01.07.03.07.08.07-.77,1.29-2.34,2.51-4.26,1.94-.35-.1-1.14-.2-1.5-.37-.33-.15-.54-.54-.87-.52-.52.03-.68.65-.94.82h0Z"/>
    <path class="cls-1" d="M137.28,100.18c.32.35.46.94.66,1.26.46.7.84,1.45,1.22,2.15,1.03,1.9,1.93,5.18,4.82,4.8-2.85-3.08-3.56-7.67-5.24-11.58-1.06-.17-1.29-.46-2.17-.73.09,1.47.64,2.61.71,4.09h0ZM149.57,99.03c-.35-.03-.41.35-.83.21-2.82-.91-6-1.07-8.98-2.16,1.07,3.57,2.08,7.6,4.14,10.33.91,1.22,1.1,1.31,2.77,1.36,3.34.1,8.04.51,10.98-.23,2.15-2.36,3.3-5.93,4.18-9.43,0-.06,0-.11-.07-.1-3.66.93-7.69.52-12.18.02h0ZM157.15,98.05c1.22-.19,2.49-.31,3.85-.31-.21-.86-1.2-1.16-1.72-1.8-.58.81-1.81,1.28-2.13,2.1h0ZM144.46,92.33c-2.32.55-5.41.67-7.33,2.09,2.15,1.06,4.83,1.86,7.17,1.94.1-1.38.67-3.08.16-4.03h0ZM160.73,83.93c-2.33,3.57-9.05,1.49-10,6.84-.11.23-.3.35-.45.54.44,2.02-.02,4.68,1.04,6.27,1.22-.09,2.47.45,3.75.29,1.73-.22,3.5-2.1,4.55-3.37.32-.38.87-.66.82-1.18-1.2.17-2.34.22-3.37-.4,2.84-1.81,6.37-6.5,4.69-10.84-.58.61-.65,1.28-1.03,1.85h0ZM162.09,80.63c.47.31.24.86.31,1.29.19,1.25.61,2.4.41,3.78-.45,3.11-2.82,5.63-4.57,7.07,1.15.54,2.41-.2,3.35.05.03.8-.87,1.09-1.11,1.84.55.86,1.96,1.12,2.37,2.09.24.16.55.26.81.41.05,2.16-.67,4.42-1.49,6.62-.81,2.17-2.13,4.53-3.42,6.04-.59.67-.96,1-1.65,1.39-.39.06-.34-.36-.59-.19-3.56.43-7.6-.01-11.34-.28-1.52-.11-2.61-.79-4.1-.79-.45-.16-.28-.75-.83-.85-.86-1.69-1.89-3.35-2.83-5.08-1.22-2.22-2.58-4.73-2.43-7.92.02-.33-.12-.69-.35-1.03.39-.28.31-.83.6-1.4,2.57-1.83,5.56-3.07,9.51-2.95-.06-2.04.91-4.1-.13-5.4-.52-.65-1.3-.75-1.48-1.67.11-1.8,1.29-1.96,2.79-2.34.98-.26,1.92-.57,2.39-.56,1.32.03,2.21.78,2.72,1.61.31,1.62-1.31,1.84-1.59,2.55-.32.81.26,1.77.36,2.53.13.96-.02,1.76.36,2.53,1.12-2.44,3.08-3.31,5.63-3.97.95-.25,2.1-.52,2.99-.99,1.53-.81,1.81-2.54,3.01-4.16,0-.15.11-.13.13-.24.06,0,.12.02.17.03h0Z"/>
    <path class="cls-4" d="M117.35,80.36c.25.46.01.96-.17,1.48-.7.19-1.39-.14-1.82.26,0,2.21-.3,4.26.26,6.52.54.76,1.69.68,2.61.78.39.67-.12,1.94,0,2.78-1.64.58-4.03.11-5.22-.96-.06-.23.17-.17.17-.35-.87-2.52-.25-4.67-.35-7.57-.09-.35.26-.26.17-.61-.62-.51-1.31.19-2.09.09-.08-.48-.13-1.09,0-1.65.38.33,1.38-.12,1.92-.26-.07-1.03-.27-1.71-.09-2.78.77-.53,1.48-1.13,2.17-1.74.1-.01.15.02.18.09.29.79-.12,1.99.17,2.95.26.87,1.21.83,2.09.96h0Z"/>
    <path class="cls-1" d="M83.66,132.62c-.94.17-1.17-.88-1.27-1.44-.35-2-.08-4.93-.23-7.15-1.76.04-3.73.26-5.54.2-.65,2.41,1.45,5.91-.46,7.56-.84-1.07-.92-2.83-1.03-4.49-.25-3.91.04-8.07,0-11.26,1.1-.03,1.06,1.52,1.14,2.37.13,1.43-.05,3.18.05,4.5,1.86.26,3.61-.07,5.82-.2.1-2.65-.06-5.15-.1-7.81.43.09.41-.23.83-.15.4.59.35,1.62.86,2.11-.1,5.13.63,10.3-.08,15.76h0Z"/>
  </g>
  <polygon class="cls-6" points="29.01 81.92 5.45 116.41 6.63 117.9 51.58 116.34 35.43 86.68 30.62 81.06 29.01 81.92 29.01 81.92"/>
  <path class="cls-3" d="M27.13,86.4c-.85.37-.24-.86-1.09-.49-.41.14-.18.86-1.04.59-.33,1.4-.66,2.8-1.98,3.3-.31,1.48.75,1.42,1.18,2.08-1.86,1.36-1.87,5.71-5.15,4.27.3.79,1.28.84,1.43,1.8-.71.36-1.23.5-1.58.61,1.14.93-.3.7-.74,1.37-1.14,1.77-1.76,4.55-3.76,5-.07,1.29-.54,2.23-1.75,2.49.67,1.39-.39.2-.76.84,1.72.32-1.1,1.17.1,1.87-1.9.39-1.43,2.94-2.75,3.88-.17-.46.25-1.59-.34-1.59,0,.42.09.93-.5.83-.28.88.87.16.59,1.04-1.11.27-.91,1.73-1.48,2.48,2.78-.61,7.3-.66,10.41-.52.05-.21-.02-.53.24-.55,10.36.94,18.61-.66,31.25-1.01-.58-2.81-3.05-4.15-4.03-5.69-.32-2.37-2.56-2.61-2.66-5.21-1.2.18-1.03-.95-.88-1.56-1.06.02-2.03-1.7-1.17-2.09-.84.45-.9-.16-1.63-.45-1.93-5.83-6.53-9.95-8.74-14.55.01.27-.45.36-.54.02.33-.04.63-.11.51-.56-.75.26-.71-.34-1.35-.2-1.29,1.8-1.87,4.25-4.02,5.28.56.92-.2,1.3-.7,1.91-.32-1.06-.07-2.08.39-2.96.44-.02.18.73.57.78.06-1.15.97-3.33,1.76-2.23-.03-.37.09-.59.22-.81h0ZM42.72,98.74c1.58.22,1.16,2.65,2.82,2.8.04,1.73.93,2.54,2.02,3.11-.13,1.82.91,2.37,2.01,2.84.13.45-.18.51-.5.56.38.37,1.26.61.6,1.31.21-.16.43-.3.79-.31.12.54-.01.84-.49.83.53.68,2.07,2.13,1.2,2.61.27.45.87.55,1.62.46.15,2.19,1.35,3.21,1.35,5.55-.25-.16-1.01-.58-.78.3-.48-.5-1.86,0-1.92-.98-.59,1.06-1.83-.7-3.17.7-.81.13-.6-.84-.87-1.3-.76.27.38.65.07,1.33-.21-.17-.9-1.09-.8.04-3.73-.26-9.26-.28-12.56.08-.02-.26-.03-.52-.04-.79-1.21.71-2.61.85-3.74.18-.72,1.04-5.69,1.07-7.21.36-2.94,1.68-9.46.1-10.88,1.87-2.3-1.29-6.26.17-9.14-.88-.27-.84.18-1.02.46-1.36-1.08-.04-.45-.2-.62-1.84,1.25-.41,1.76-1.46,1.73-3.03,1.24.2.54-1.37,1.81-1.16-.23-.8-.21-.5-.06-1.33,1.81.2.72-2.24,2.29-2.25-.18-.27-.63-.25-.57-.78,1.08.29.5-.9,1.57-.61-.02-.45-.05-.89-.07-1.34.23-.22.59-.32,1.05-.32,1.56-4.03,4.49-6.81,6.16-10.74.92-.02,1.21-.6.99-1.66.78.03.79-.64,1.58-.61.65-3.57,4.05-4.66,4.68-8.26,2.93-.66,2.23-4.61,5.08-5.33-.18-.26-.63-.25-.58-.78.88-.05,1.31-.52,2.39-.38,1.2.85-.31,1.38,1.4,1.27-1.1,1.21.35,4.73,1.55,4.2.39.07.07,2.02,1.42,1.81-.14.82.33.96.35,1.59,3.43,2.86,4.09,8.8,7.53,11.66.12.45-.19.52-.51.57h0Z"/>
  <text class="cls-7" transform="translate(18.35 111.83) scale(.79 1)"><tspan x="0" y="0">68</tspan></text>
</svg>