<?xml version="1.0" encoding="UTF-8"?>
<svg id="Layer_1" data-name="Layer 1" xmlns="http://www.w3.org/2000/svg" viewBox="0 0 180 200">
  <defs>
    <style>
      .cls-1 {
        fill: #80c462;
      }

      .cls-1, .cls-2, .cls-3, .cls-4, .cls-5 {
        fill-rule: evenodd;
      }

      .cls-2, .cls-6 {
        fill: #fff;
      }

      .cls-3 {
        fill: #231f20;
      }

      .cls-6 {
        font-family: AmericanTypewriter-Bold, 'American Typewriter';
        font-size: 20.52px;
        font-weight: 700;
      }

      .cls-5 {
        fill: #6d2c90;
      }
    </style>
  </defs>
  <polygon class="cls-5" points="28.47 93.46 4.91 127.95 6.08 129.44 51.03 127.88 34.88 98.22 30.08 92.6 28.47 93.46 28.47 93.46"/>
  <path class="cls-3" d="M26.58,97.94c-.85.37-.24-.86-1.09-.49-.41.14-.18.86-1.04.59-.33,1.4-.66,2.8-1.98,3.3-.31,1.48.75,1.42,1.18,2.08-1.86,1.36-1.87,5.71-5.15,4.27.3.79,1.28.84,1.43,1.8-.71.36-1.23.5-1.58.61,1.14.93-.3.7-.74,1.38-1.14,1.77-1.76,4.55-3.76,5-.07,1.29-.54,2.23-1.75,2.49.67,1.39-.39.2-.76.84,1.72.32-1.1,1.17.1,1.87-1.9.39-1.43,2.94-2.75,3.88-.17-.46.25-1.59-.34-1.59,0,.42.09.93-.49.83-.28.88.87.16.59,1.04-1.11.27-.91,1.73-1.48,2.48,2.78-.61,7.3-.66,10.41-.52.05-.2-.02-.52.24-.54,10.36.94,18.61-.66,31.25-1.01-.58-2.81-3.05-4.15-4.03-5.69-.32-2.37-2.56-2.61-2.66-5.21-1.2.18-1.03-.95-.88-1.56-1.06.02-2.03-1.7-1.17-2.09-.84.45-.9-.16-1.63-.46-1.93-5.83-6.53-9.94-8.74-14.54.01.27-.45.36-.54.02.33-.04.63-.11.51-.56-.75.26-.71-.34-1.35-.2-1.29,1.8-1.87,4.25-4.02,5.28.56.92-.2,1.3-.7,1.91-.32-1.06-.07-2.08.39-2.96.44-.02.18.73.57.78.06-1.15.97-3.33,1.76-2.23-.03-.37.09-.59.22-.81h0ZM42.17,110.28c1.58.22,1.16,2.65,2.82,2.8.04,1.73.93,2.54,2.02,3.11-.13,1.82.91,2.37,2.01,2.84.13.45-.18.51-.5.56.38.37,1.26.61.6,1.31.21-.15.43-.3.79-.31.12.54-.01.84-.49.83.53.68,2.07,2.13,1.2,2.61.27.45.87.55,1.62.46.15,2.19,1.35,3.2,1.35,5.55-.25-.16-1.01-.58-.78.3-.48-.5-1.86,0-1.92-.98-.59,1.06-1.83-.7-3.17.7-.81.13-.6-.84-.87-1.3-.76.27.38.65.07,1.33-.21-.17-.9-1.09-.8.04-3.73-.26-9.26-.28-12.56.08-.02-.26-.03-.52-.04-.79-1.21.71-2.61.85-3.74.18-.72,1.04-5.69,1.07-7.21.36-2.94,1.68-9.46.1-10.88,1.87-2.3-1.29-6.26.17-9.14-.88-.27-.84.18-1.02.46-1.36-1.08-.04-.45-.21-.62-1.84,1.24-.41,1.76-1.46,1.73-3.03,1.24.2.54-1.37,1.81-1.16-.23-.81-.21-.5-.06-1.33,1.81.2.72-2.24,2.29-2.25-.18-.27-.63-.25-.57-.78,1.08.29.5-.9,1.57-.61-.02-.45-.05-.89-.07-1.34.23-.22.59-.32,1.05-.32,1.56-4.03,4.5-6.81,6.16-10.74.92-.02,1.21-.6.99-1.65.78.03.79-.64,1.58-.61.65-3.57,4.05-4.66,4.68-8.26,2.93-.66,2.23-4.61,5.08-5.33-.18-.26-.63-.25-.58-.78.88-.05,1.31-.52,2.39-.38,1.2.85-.31,1.38,1.4,1.27-1.1,1.21.35,4.73,1.55,4.2.39.07.07,2.02,1.42,1.81-.14.82.33.96.35,1.59,3.43,2.86,4.09,8.8,7.53,11.66.12.45-.19.52-.51.57h0Z"/>
  <text class="cls-6" transform="translate(17.3 124.06) scale(.79 1)"><tspan x="0" y="0">69</tspan></text>
  <g>
    <path class="cls-4" d="M168.06,87.99c.13.02.16.03.2.02.13-.05.26-.1.38-.16,1.6-.76,2.84-1.77,4.08-2.85,1.76-1.53,2.44-3.03,2.47-4.5.02-1.28-.07-2.55-.38-3.72-.51-1.95-1.17-3.85-1.9-5.71-.37-.97-1.02-1.83-1.53-2.73-.24-.43,1.18,2.58.88,2.19-1.46-1.9-2.89-3.82-4.44-5.67-1.62-1.94-3.33-3.82-5.05-5.7-.42-.46-.96-.85-1.55-1.18-.3-.16-.83-.24-1.29-.15-1.16.21-2.35.52-3.53.83-1.45.38-2.9.8-4.35,1.22-2.71.79-1.85-.09-4.27,1.6-.11.08-.25.13-.37.18-1.15.5-2.32.98-3.46,1.51-3.27,1.5-78.1,35.85-81.33,37.42-3.02,1.47-5.99,3.04-8.96,4.59-.91.48-1.74,1.03-2.24,1.78-1.48,2.22-2.11,4.28-1.36,6.11.5,1.22.94,2.46,1.4,3.69.26.67.5,1.34.77,2,.56,1.37,1.22,2.7,1.69,4.11.8,2.42.55,1.08,1.94,3.2.78,1.2,1.68,2.34,2.43,3.56,1.1,1.79,2.43,3.44,4.18,4.84.81.64,1.92.82,3.49.29,1.84-.62,3.67-1.27,5.5-1.93.39-.14.76-.34,1.14-.52.06-.28.11-.52.16-.75.79-.33,1.52-.62,2.24-.94,2.01-.87,4.02-1.76,6.04-2.63,3.26-1.4,78.05-35.67,81.14-37.43,2.69-1.54,1.87-1.36,4.59-2.87.67-.37,1.31-.67,2.01-.47-.25.28-.48.52-.72.78Z"/>
    <path class="cls-2" d="M168.06,87.99c.24-.26-5.14,3.35-4.89,3.07-.69-.21-79.4,37.11-82.66,38.51-2.02.87-2.66.75-4.67,1.62-.72.31-1.09.53-1.88.86-.05.23-1.3-.06-1.36.23-.39.18-.76.38-1.14.52-1.83.66-3.67,1.31-5.5,1.93-1.57.53-2.68.36-3.49-.29-1.76-1.4-3.08-3.05-4.18-4.84-.75-1.22-1.64-2.36-2.43-3.56-1.39-2.12-1.15-.78-1.94-3.2-.47-1.41-1.12-2.74-1.69-4.11-.27-.66-.51-1.33-.77-2-.47-1.23-.91-2.48-1.4-3.69-.75-1.83-.12-3.89,1.36-6.11.5-.75,1.33-1.3,2.24-1.78,2.98-1.55,5.94-3.12,8.96-4.59,3.23-1.57,78.06-35.92,81.33-37.42,1.14-.52,2.3-1.01,3.46-1.51.13-.06.27-.11.37-.18,2.42-1.69,1.56-.81,4.27-1.6,1.45-.42,2.9-.84,4.35-1.22,1.18-.31,2.37-.62,3.53-.83.46-.09.88-.61,1.17-.44.6.33,1.87.29,2.29.74,1.72,1.88,2.26,2.49,3.88,4.43,1.54,1.85,3.87,5.36,4.11,5.79.51.91,1.16,1.76,1.53,2.73.72,1.87,1.38,3.76,1.9,5.71.31,1.17.4,2.44.38,3.72-.03,1.47-.7,2.97-2.47,4.5-1.24,1.08-2.48,2.09-4.08,2.85-.12.06-.25.11-.38.16-.03.01-.07,0-.2-.02Z"/>
    <path class="cls-4" d="M60.65,119.54c.15-.18.27-.32.39-.45.91-1.04,2.08-1.58,3.42-1.79.42-.06.79.06,1.2.26,1.53.74,2.42,2.11,3.22,3.56.63,1.14,1.17,2.33,1.75,3.49.2.4.43.77.62,1.17.22.45.16.66-.23.89-.29.17-.59.34-.89.49-.32.16-.5.09-.69-.24-.11-.19-.18-.4-.27-.6-.89-1.92-1.94-3.75-3.28-5.39-1-1.22-2.82-1.29-3.73-.11-.38.5-.53,1.16-.35,1.77.45,1.52.76,3.1,1.59,4.5.36.61.78,1.19,1.14,1.8.15.26.49.53.26.84-.23.31-.58.52-1.01.47-.43-.05-.75-.25-.99-.71-1.26-2.39-2.57-4.75-3.83-7.13-.27-.51-.42-1.09-.58-1.66-.04-.14.07-.38.19-.49.28-.26.59-.49.91-.71.37-.26.75-.43,1.16.04ZM70.65,126.07c0-.1,0-.16-.01-.19-.81-1.63-1.59-3.27-2.44-4.87-.51-.95-1.09-1.86-1.92-2.58-.84-.73-1.71-1.01-2.69-.52-.2.1-.42.17-.62.26-.95.41-1.67,1.07-2.04,2.11-.05.15-.18.27-.34.52-.17-.36-.25-.58-.37-.79-.19-.33-.31-.36-.62-.16-.65.43-.74.73-.35,1.49.95,1.86,1.92,3.7,2.89,5.55.42.81.83,1.62,1.24,2.43.13.26.29.4.55.23.24-.16.24-.38.08-.62-.13-.21-.29-.4-.41-.61-.47-.86-.99-1.7-1.38-2.59-.36-.85-.58-1.77-.85-2.66-.35-1.17-.17-2.58,1.17-3.2.45-.2.93-.35,1.41-.45.61-.13,1.19.09,1.69.53.29.26.58.53.81.84.49.67.98,1.35,1.41,2.06.62,1.05,1.19,2.14,1.78,3.22.21.38.32.44.66.26.14-.07.24-.19.34-.27Z"/>
    <path class="cls-4" d="M96.27,114.23c-.86,1.21-2.07,1.78-3.41,2.13-1.08.29-2.13.02-3.16-.49-.59-.3-.92-.86-1.19-1.44-.43-.93-.82-1.89-1.21-2.84-.52-1.25-1.02-2.5-1.53-3.75-.35-.85-.33-.91.44-1.33.08-.04.16-.09.23-.14.53-.3.6-.28.84.36.32.85.83,1.61,1,2.52.25,1.32.82,2.51,1.58,3.61.23.34.52.65.78.97.57.71,1.27.82,2.01.56.93-.32,1.62-.99,2.13-1.84.36-.6.2-1.31-.02-1.96-.17-.51-.45-.98-.68-1.47-.57-1.25-1.14-2.5-1.7-3.76-.24-.54-.19-.72.28-.99.23-.14.47-.27.72-.39.4-.2.55-.16.75.31.36.83.7,1.67,1.04,2.51.46,1.11.9,2.23,1.36,3.34.41,1,.84,1.99,1.24,2.99.12.31.34.67.05.94-.34.32-.75.52-1.25.29-.1-.05-.2-.1-.31-.15ZM94.19,107.91s-.03.01-.05.02c.23.49.46.98.67,1.47.24.56.49,1.13.68,1.71.2.61.14,1.22-.19,1.73-.63.98-1.46,1.72-2.57,2.04-.69.21-1.45.26-2.04-.31-.55-.53-1.05-1.16-1.45-1.82-.63-1.06-1.07-2.2-1.4-3.39-.2-.72-.58-1.4-.9-2.09-.11-.24-.34-.32-.52-.16-.1.09-.14.31-.14.48,0,.13.11.27.16.41.26.64.55,1.26.78,1.91.53,1.5,1.05,3,1.8,4.43.44.84,1.04,1.34,1.87,1.56.8.22,1.6.3,2.36-.05.43-.2.87-.38,1.29-.61.65-.35,1.2-.79,1.37-1.63.09-.46.36-.48.69-.13.19.2.36.59.66.37.27-.2.05-.55-.05-.8-.41-1-.86-1.98-1.27-2.98-.42-1.02-.8-2.06-1.22-3.08-.29-.7-.6-1.4-.91-2.09-.11-.24-.29-.32-.52-.23-.23.09-.39.24-.3.54.04.14.1.28.16.41.35.76.7,1.52,1.05,2.28Z"/>
    <path class="cls-4" d="M114.85,100.25c-1.16.44-2.33.87-3.48,1.34-.52.21-1.01.5-1.48.8-.16.1-.27.38-.28.6-.05.78.38,1.49,1.08,1.84,1.84.91,3.18.57,4.58-.89.26-.28.46-.63.66-.97.49-.83.54-.86,1.49-.6.27.08.54.15.8.26.33.13.41.32.21.62-.93,1.37-1.82,2.79-3.3,3.6-.16.09-.32.18-.5.21-1.48.24-2.96.49-4.49.05-.65-.19-1.2-.52-1.65-1.07-1.12-1.36-1.56-2.91-1.45-4.63.07-1.12.32-2.17.71-3.19.49-1.28,1.5-1.94,2.65-2.42,1.17-.5,2.4-.43,3.64-.16.46.1.85.35,1.18.75.53.66,1.15,1.26,1.47,2.09.24.63.22.74-.33,1.01-.51.25-1.03.47-1.54.71,0,.02.01.03.02.05ZM114.19,105.54c-1,.65-3.43.32-4.68-.95-.68-.69-.62-2.06.11-2.61.71-.53,1.52-.88,2.34-1.21,1.21-.49,2.39-1.07,3.56-1.65.52-.26.58-.51.26-1.04-.33-.56-.73-1.1-1.15-1.6-.19-.22-.51-.34-.78-.43-1.04-.35-2.03-.25-3.03.1-1.33.48-2.32,1.31-2.74,2.75-.23.77-.41,1.56-.51,2.37-.18,1.51.16,2.93,1.05,4.23.47.68,1.07,1.1,1.85,1.26.87.18,1.73.13,2.6.07,2.14-.15,3.44-1.43,4.32-3.32.08-.18.15-.4-.06-.5-.16-.08-.41-.07-.56.02-.16.1-.26.31-.37.49-.56.91-1.27,1.62-2.21,2.04Z"/>
    <path class="cls-4" d="M83.18,107.32c.14.5.28.92.35,1.34.02.18-.07.44-.21.54-.49.36-.99.71-1.53.99-.65.35-.71.41-.39,1.16.3.72.55,1.45.78,2.21.4,1.31.97,2.59,1.8,3.69.81,1.06,1.08.99,1.98.7.36-.12.7-.31,1.03-.5.5-.29.7-.26.91.29.52,1.42.65,1.08-.42,1.9-.25.19-.53.35-.79.52-.93.62-1.94.55-2.97.21-.25-.08-.52-.29-.67-.52-.36-.55-.69-1.13-.96-1.73-.65-1.46-1.23-2.94-1.87-4.41-.26-.6-.61-1.17-.91-1.76-.17-.33-.4-.4-.69-.25-.32.16-.65.33-.96.5-.47.25-.67.19-.95-.32-.04-.06-.06-.13-.09-.2-.42-.97-.33-1.26.5-1.76.06-.03.12-.06.18-.1.82-.45.82-.52.3-1.42-.22-.38-.43-.77-.6-1.18-.2-.48-.11-.69.31-.95.91-.55,1.17-.46,1.6.61.13.32.2.66.35.97.32.63.65.77,1.25.52.66-.28,1.31-.6,1.98-.87.22-.09.46-.11.72-.17ZM87.33,117.99c-.56.2-1.09.4-1.62.58-.49.17-.96.06-1.36-.31-.32-.29-.69-.58-.89-.95-.61-1.09-1.21-2.2-1.7-3.35-.45-1.08-.7-2.24-1.31-3.27-.26-.44-.24-.58.16-.83.51-.32,1.08-.55,1.63-.81.14-.07.31-.07.45-.14.21-.1.28-.3.16-.54-.1-.22-.27-.27-.46-.19-.17.07-.32.17-.5.22-.67.21-1.33.41-2.01.6-.39.11-.66-.09-.83-.49-.23-.54-.49-1.07-.74-1.6-.1-.21-.24-.4-.49-.29-.24.1-.43.27-.36.6.03.14.08.29.15.42.21.42.42.83.65,1.24.42.74.4.87-.3,1.18-.18.08-.37.17-.55.27-.14.08-.27.18-.38.29-.2.22-.19.67.01.94.2.26.41.16.62.07.41-.18.82-.39,1.24-.56.22-.09.45-.13.62-.17.27.65.49,1.21.73,1.76.33.74.68,1.46,1,2.2.63,1.41,1.25,2.82,1.88,4.23.28.63.78.9,1.37,1.05.49.13.97.11,1.41-.11.46-.23.91-.5,1.34-.79.59-.4.58-.48.08-1.24Z"/>
    <path class="cls-4" d="M75.17,116.39c-.14-.5-.38-.83-.77-1.07-1.03-.6-2.01-.59-2.92.07-.44.31-.83.7-1.21,1.09-.5.52-.73.5-1.09-.18-.09-.17-.17-.36-.27-.52-.09-.14-.21-.26-.34-.41.04-.09.06-.21.12-.24,1-.61,1.9-1.41,3.05-1.75.26-.07.53-.16.8-.14,1.46.08,2.85.37,4.16,1.28,1.06.74,1.76,1.71,2.36,2.82.46.86.95,1.72,1.42,2.58.12.22.24.43.33.66.17.42.54.87.27,1.3-.31.48-.87.65-1.41.73-.24.04-.52-.15-.81-.26-.36.28-.71.59-1.11.85-.55.36-1.09.76-1.7.98-1.14.42-2.36.3-3.37-.5-1.15-.91-1.73-2.83-1.04-4.38.6-1.35,1.62-2.21,2.95-2.7.18-.07.37-.14.57-.22ZM80.07,121.07c-.25.22-.39.32-.5.45-.14.17-.05.51.15.53.21.02.46-.04.62-.16.11-.07.13-.32.12-.49,0-.13-.09-.28-.16-.41-.64-1.25-1.25-2.5-1.93-3.73-.3-.56-.64-1.15-1.1-1.55-1.06-.93-2.21-1.67-3.61-1.89-1.09-.17-2.05-.02-2.93.59-.34.23-.67.46-1.01.69-.53.37-.51.66.13,1.17.15-.14.3-.32.47-.45.55-.39,1.08-.83,1.69-1.12.36-.18.85-.22,1.26-.13.56.12,1.11.38,1.63.67.55.3.82.84.95,1.43-.09.08-.11.13-.15.14-.11.04-.21.07-.32.09-.99.17-1.83.65-2.52,1.37-1.15,1.2-1.16,2.95-.4,4.42.57,1.1,2.16,1.63,3.31,1.14,1.22-.52,2.33-1.2,3.07-2.39.24-.38.58-.54,1.22-.38Z"/>
    <path class="cls-4" d="M97.94,103.11c.17-.31.27-.45.34-.62.81-1.88,2.21-3.01,4.1-3.54.5-.15.89-.03,1.26.35.55.56.69,1.29.84,2,.02.09-.18.32-.26.3-1.68-.33-2.74.71-3.77,1.74-1.19,1.18-1.49,1.69-.54,4.02.52,1.29,1.21,2.52,1.83,3.78.08.15.16.31.23.46.37.73.19,1.12-.55,1.27-.55.11-1.2-.23-1.51-.85-.48-.97-.93-1.95-1.37-2.95-.91-2.07-1.8-4.14-2.69-6.22-.27-.63-.21-.79.36-1.06.04-.02.08-.03.13-.05.74-.31.8-.28,1.16.49.11.24.24.47.44.87ZM98.99,108.63s-.03.01-.04.02c.28.6.55,1.21.83,1.81.1.22.19.48.36.63.31.26.54.55.68.93.09.24.27.34.51.23.26-.13.28-.33.14-.59-.3-.56-.64-1.11-.9-1.69-.54-1.23-1.06-2.48-1.53-3.73-.4-1.05-.12-1.94.53-2.72,1.04-1.24,2.27-2.15,3.84-2.55.11-.03.26-.13.29-.24.2-.65-.55-1.53-1.18-1.34-1.67.52-3.11,1.37-3.74,3.21-.13.38-.24.77-.38,1.14-.14.37-.35.39-.61.07-.08-.1-.14-.2-.2-.31-.19-.34-.39-.68-.58-1.03-.12-.21-.26-.37-.5-.25-.24.12-.2.34-.11.56.05.12.1.23.15.34.81,1.84,1.62,3.69,2.43,5.53Z"/>
    <path class="cls-1" d="M70.65,126.07c-.1.08-.2.2-.34.27-.34.17-.45.12-.66-.26-.59-1.07-1.16-2.17-1.78-3.22-.43-.71-.92-1.39-1.41-2.06-.23-.31-.52-.59-.81-.84-.5-.43-1.07-.65-1.69-.53-.48.1-.97.24-1.41.45-1.34.62-1.52,2.03-1.17,3.2.26.89.48,1.81.85,2.66.38.9.91,1.74,1.38,2.59.12.21.28.4.41.61.16.24.16.46-.08.62-.26.17-.42.02-.55-.23-.41-.81-.82-1.62-1.24-2.43-.96-1.85-1.94-3.7-2.89-5.55-.39-.76-.3-1.07.35-1.49.3-.2.43-.17.62.16.12.2.2.43.37.79.17-.25.29-.37.34-.52.37-1.04,1.09-1.7,2.04-2.11.21-.09.42-.17.62-.26.97-.49,1.84-.21,2.69.52.82.72,1.41,1.63,1.92,2.58.85,1.61,1.63,3.25,2.44,4.87.02.04,0,.09.01.19Z"/>
    <path class="cls-1" d="M94.19,107.91c-.35-.76-.7-1.52-1.05-2.28-.06-.13-.12-.27-.16-.41-.09-.3.07-.45.3-.54.23-.09.41,0,.52.23.31.69.62,1.39.91,2.09.42,1.02.8,2.06,1.22,3.08.41,1,.87,1.98,1.27,2.98.1.25.32.61.05.8-.3.22-.47-.17-.66-.37-.32-.35-.6-.33-.69.13-.17.84-.72,1.27-1.37,1.63-.42.22-.85.41-1.29.61-.76.34-1.56.26-2.36.05-.83-.23-1.43-.72-1.87-1.56-.74-1.43-1.26-2.93-1.8-4.43-.23-.65-.52-1.27-.78-1.91-.06-.14-.16-.27-.16-.41,0-.17.04-.39.14-.48.18-.16.41-.08.52.16.32.69.7,1.37.9,2.09.33,1.2.77,2.34,1.4,3.39.4.66.9,1.29,1.45,1.82.59.58,1.35.52,2.04.31,1.1-.33,1.94-1.07,2.57-2.04.33-.51.39-1.12.19-1.73-.19-.58-.44-1.15-.68-1.71-.21-.5-.45-.98-.67-1.47.01,0,.03-.01.05-.02Z"/>
    <path class="cls-1" d="M114.19,105.54c.93-.42,1.65-1.14,2.21-2.04.11-.18.21-.39.37-.49.15-.08.4-.09.56-.02.22.1.15.32.06.5-.87,1.89-2.18,3.17-4.32,3.32-.87.06-1.73.11-2.6-.07-.77-.16-1.37-.58-1.85-1.26-.9-1.29-1.23-2.72-1.05-4.23.1-.8.28-1.6.51-2.37.42-1.44,1.41-2.28,2.74-2.75.99-.35,1.99-.45,3.03-.1.28.09.6.22.78.43.43.49.82,1.03,1.15,1.6.31.54.25.78-.26,1.04-1.17.59-2.35,1.16-3.56,1.65-.82.34-1.62.68-2.34,1.21-.73.54-.78,1.91-.11,2.61,1.24,1.27,3.68,1.6,4.68.95ZM115.14,98.46c-.43-.42-.76-.82-1.17-1.11-1.95-1.38-3.25-1.07-4.42.39-.48.6-.74,1.34-.79,2.15-.05.85.3,1.18,1.09,1.02.27-.05.53-.13.78-.24,1.38-.62,2.75-1.25,4.12-1.89.11-.06.2-.17.39-.32Z"/>
    <path class="cls-1" d="M87.33,117.99c.5.76.51.84-.08,1.24-.43.29-.87.56-1.34.79-.43.22-.91.24-1.41.11-.59-.15-1.1-.42-1.37-1.05-.62-1.41-1.25-2.82-1.88-4.23-.33-.74-.68-1.47-1-2.2-.24-.55-.46-1.11-.73-1.76-.16.05-.4.08-.62.17-.42.17-.82.37-1.24.56-.21.09-.42.19-.62-.07-.2-.26-.21-.72-.01-.94.11-.12.24-.21.38-.29.17-.1.36-.19.55-.27.7-.32.72-.44.3-1.18-.23-.41-.44-.82-.65-1.24-.07-.13-.12-.28-.15-.42-.07-.33.12-.49.36-.6.25-.11.39.08.49.29.25.53.51,1.06.74,1.6.17.4.44.6.83.49.67-.18,1.34-.39,2.01-.6.17-.05.33-.15.5-.22.19-.08.36-.03.46.19.12.24.05.44-.16.54-.14.07-.31.08-.45.14-.55.26-1.12.49-1.63.81-.4.26-.42.39-.16.83.61,1.03.86,2.19,1.31,3.27.48,1.15,1.09,2.25,1.7,3.35.21.37.57.65.89.95.41.37.87.47,1.36.31.53-.18,1.06-.38,1.62-.58Z"/>
    <path class="cls-1" d="M80.07,121.07c-.63-.16-.98,0-1.22.38-.74,1.19-1.85,1.87-3.07,2.39-1.16.49-2.74-.04-3.31-1.14-.77-1.47-.75-3.22.4-4.42.69-.72,1.53-1.21,2.52-1.37.11-.02.22-.05.32-.09.04-.01.06-.06.15-.14-.13-.59-.4-1.13-.95-1.43-.52-.28-1.07-.54-1.63-.67-.41-.09-.9-.05-1.26.13-.6.29-1.14.73-1.69,1.12-.18.13-.32.31-.47.45-.64-.51-.66-.8-.13-1.17.34-.23.67-.46,1.01-.69.88-.61,1.84-.76,2.93-.59,1.4.22,2.55.96,3.61,1.89.46.4.8.99,1.1,1.55.67,1.22,1.29,2.48,1.93,3.73.07.13.16.27.16.41,0,.17-.02.41-.12.49-.17.12-.41.18-.62.16-.2-.02-.29-.36-.15-.53.11-.13.25-.23.5-.45ZM75.54,117.94c-1.25.47-2.05,1.22-2.39,2.44-.2.71-.02,1.39.53,1.86.76.66,1.65,1.01,2.58.66,1.04-.39,1.74-1.2,2.1-2.31.12-.36.09-.73-.14-1.04-.32-.46-.66-.91-1.03-1.32-.69-.74-.71-.73-1.58-.33-.06.03-.12.06-.06.03Z"/>
    <path class="cls-1" d="M98.99,108.63c-.81-1.84-1.62-3.69-2.43-5.53-.05-.11-.1-.22-.15-.34-.09-.22-.13-.44.11-.56.24-.12.38.04.5.25.19.35.38.69.58,1.03.06.1.12.21.2.31.26.31.48.29.61-.07.14-.37.25-.76.38-1.14.63-1.85,2.07-2.7,3.74-3.21.63-.19,1.38.69,1.18,1.34-.03.11-.18.21-.29.24-1.57.4-2.8,1.32-3.84,2.55-.66.78-.93,1.67-.53,2.72.48,1.26,1,2.5,1.53,3.73.26.58.6,1.13.9,1.69.14.26.12.47-.14.59-.23.11-.41.01-.51-.23-.15-.38-.38-.67-.68-.93-.17-.15-.26-.41-.36-.63-.28-.6-.56-1.2-.83-1.81.01,0,.03-.01.04-.02Z"/>
    <path class="cls-4" d="M143.7,82.74c.17-.31.27-.45.34-.61.81-1.88,2.21-3.01,4.1-3.55.5-.14.89-.03,1.26.36.55.55.69,1.28.84,2,.02.09-.18.32-.26.3-1.68-.33-2.74.71-3.77,1.74-1.19,1.18-1.49,1.69-.54,4.02.53,1.29,1.21,2.52,1.83,3.78.08.15.16.31.23.46.36.74.2,1.12-.55,1.27-.55.11-1.2-.23-1.51-.85-.48-.97-.93-1.95-1.37-2.94-.91-2.07-1.8-4.15-2.7-6.22-.27-.63-.22-.79.37-1.06.04-.02.08-.03.12-.05.74-.31.8-.28,1.16.49.11.24.24.47.44.87ZM144.75,88.26s-.03.01-.04.02c.28.6.55,1.21.83,1.8.1.22.19.49.36.63.31.26.54.55.69.93.09.24.27.34.5.23.26-.13.28-.33.14-.6-.3-.56-.64-1.1-.9-1.69-.54-1.23-1.06-2.48-1.54-3.73-.4-1.05-.12-1.94.53-2.72,1.04-1.24,2.28-2.15,3.85-2.55.11-.03.26-.13.29-.24.2-.65-.55-1.53-1.18-1.34-1.67.51-3.11,1.36-3.74,3.21-.13.38-.24.77-.38,1.14-.14.37-.36.38-.62.07-.08-.09-.14-.2-.2-.31-.19-.34-.39-.68-.58-1.02-.12-.22-.26-.37-.5-.25-.24.12-.19.34-.11.56.05.11.1.22.14.34.81,1.84,1.62,3.69,2.43,5.53Z"/>
    <path class="cls-1" d="M144.75,88.26c-.81-1.84-1.62-3.69-2.43-5.53-.05-.11-.1-.23-.14-.34-.09-.22-.13-.44.11-.56.24-.12.39.04.5.25.19.34.38.68.58,1.02.06.11.12.22.2.31.26.31.48.3.62-.07.14-.37.25-.76.38-1.14.63-1.85,2.06-2.7,3.74-3.21.63-.19,1.38.69,1.18,1.34-.03.11-.18.21-.29.24-1.57.4-2.81,1.31-3.85,2.55-.66.78-.93,1.67-.53,2.72.48,1.26,1,2.5,1.54,3.73.25.58.59,1.13.9,1.69.14.26.12.47-.14.6-.23.11-.41.01-.5-.23-.15-.38-.38-.67-.69-.93-.17-.15-.26-.41-.36-.63-.28-.6-.56-1.2-.83-1.8.01,0,.03-.01.04-.02Z"/>
    <path class="cls-4" d="M115.14,98.46c-.18.15-.27.27-.39.32-1.37.63-2.74,1.27-4.12,1.89-.24.11-.51.19-.78.24-.79.15-1.14-.18-1.09-1.02.05-.81.31-1.55.79-2.15,1.17-1.46,2.47-1.76,4.42-.39.4.29.73.69,1.17,1.11ZM114.09,98.11c-.67-.61-1.28-1.15-2.09-1.14-1.31.02-2.61,1.36-2.68,3.05-.01.28.15.4.4.36.13-.02.27-.07.39-.13,1.21-.6,2.43-1.2,3.63-1.82.11-.06.19-.17.35-.33Z"/>
    <path class="cls-4" d="M75.54,117.94c-.06.03,0,0,.06-.03.88-.4.89-.42,1.58.33.38.4.71.86,1.03,1.32.22.32.25.68.14,1.04-.36,1.11-1.05,1.92-2.1,2.31-.93.35-1.82,0-2.58-.66-.55-.48-.73-1.15-.53-1.86.34-1.23,1.15-1.98,2.39-2.44ZM76.23,122.36c.76-.28,1.22-.91,1.54-1.65.11-.25.16-.66.04-.89-.28-.5-.68-.94-1.06-1.38-.21-.24-.51-.29-.77-.15-.47.26-.98.49-1.39.83-.52.45-.9,1.04-.96,1.8-.05.64.23,1.12.8,1.42.61.32,1.2.35,1.79,0Z"/>
    <path class="cls-2" d="M114.09,98.11c-.16.15-.24.27-.35.33-1.21.61-2.42,1.22-3.63,1.82-.12.06-.25.1-.39.13-.25.05-.42-.08-.4-.36.07-1.68,1.37-3.03,2.68-3.05.81-.02,1.42.52,2.09,1.14Z"/>
    <path class="cls-2" d="M76.23,122.36c-.58.34-1.18.31-1.79,0-.57-.3-.85-.78-.8-1.42.06-.77.44-1.35.96-1.8.41-.35.91-.58,1.39-.83.26-.14.56-.09.77.15.38.44.77.88,1.06,1.38.12.22.07.64-.04.89-.32.74-.78,1.37-1.54,1.65Z"/>
    <path class="cls-4" d="M124.1,97.82c.02-.23.06-.35.04-.46-.16-.97-.33-1.94-.5-2.91-.2-1.11-.43-2.23-.62-3.35-.1-.63.03-1.16.59-1.48.54-.32.84-.24,1.25.31.65.87,1.29,1.75,1.98,2.58.72.87,1.5,1.68,2.3,2.56.16-.35.12-.71-.01-1.04-.37-.95-.42-1.93-.45-2.9-.03-1.1-.01-2.2-.01-3.3,0-.24,0-.49,0-.74.04-.82.3-1.09,1.09-1.18.54-.06.99.26,1.24.91.23.6.37,1.17.24,1.84-.16.84-.12,1.74-.13,2.61-.02,1.34-.03,2.69,0,4.03.02.8.14,1.61.2,2.42.01.15.02.3,0,.44-.1.51-.66.74-1.06.4-.6-.5-1.18-1.03-1.74-1.57-.94-.9-1.86-1.82-2.79-2.73-.05-.05-.12-.06-.22-.1-.31.28-.21.66-.13,1,.15.65.41,1.29.49,1.94.14,1.19.21,2.39.25,3.59.02.6-.41.99-.9.94-.17-.02-.37-.1-.5-.22-1.6-1.48-3.2-2.96-4.79-4.45-.47-.44-.91-.9-1.37-1.34-.59-.55-1.19-1.09-1.78-1.64-.53-.5-.52-.94.06-1.28.35-.2.75-.32,1.15-.42.15-.04.37.05.51.16.25.19.48.42.67.68.74,1,1.65,1.82,2.59,2.6.6.5,1.16,1.05,1.74,1.58.17.16.36.29.62.49ZM124.88,98.82c-.32-.09-.5-.09-.64-.18-.26-.17-.51-.37-.75-.58-1.24-1.11-2.47-2.23-3.7-3.35-.16-.15-.28-.34-.43-.5-.34-.39-.68-.78-1.05-1.14-.27-.26-.84-.2-1.06.12-.26.37.1.57.31.78,2.32,2.3,4.66,4.57,7.16,6.65.19.15.34.37.61.27.29-.11.32-.38.31-.66-.07-1.37-.14-2.75-.55-4.09-.31-1.02-.24-2.05-.26-3.07,0-.1.08-.27.15-.28.11-.02.26.04.37.11.08.04.13.14.19.22,1.38,1.76,3.02,3.23,4.62,4.74.13.13.31.19.59.36.02-.4.06-.67.05-.95-.06-1.42-.14-2.83-.21-4.25,0-.17-.03-.35-.03-.52-.01-.88-.03-1.75-.02-2.63,0-.9.16-1.79-.2-2.68-.09-.23-.13-.52-.42-.53-.28-.01-.48.19-.52.47-.06.4-.13.81-.11,1.22.14,2.32.3,4.65.45,6.97.01.19-.04.37-.07.55-.61-.02-.75-.08-1.07-.49-.63-.79-1.21-1.63-2.1-2.13-.09-.05-.13-.2-.2-.3-.58-.83-1.16-1.66-1.74-2.49-.03-.04-.06-.09-.1-.1-.17-.04-.37-.15-.5-.09-.14.05-.26.24-.32.4-.04.12.01.29.04.43.4,2.5.8,5.01,1.23,7.72Z"/>
    <path class="cls-4" d="M154.47,81.08c.17-.4.28-.66.38-.92.53-1.26,1.06-2.53,1.58-3.79.04-.09.08-.18.12-.27.3-.94,1.06-.99,1.85-.96.35.01.49.21.42.6-.16.8-.35,1.59-.57,2.37-.18.63-.44,1.22-.66,1.84-.18.5-.14.58.31.91,1.03.76,2.11,1.39,3.26,1.85.58.23,1.14.55,1.7.85.39.22.43.46.21.82-.37.58-1.16.69-1.77.3-1.43-.92-2.88-1.8-4.31-2.71-.32-.2-.56-.16-.76.11-1,1.43-1.05,1.24-.21,2.94.42.83.71,1.74,1.03,2.62.12.33.01.62-.25.81-.51.36-1.19.3-1.65-.25-.51-.6-1.12-1.16-1.03-2.08.01-.14-.08-.31-.14-.46-.72-1.74-1.43-3.49-2.18-5.22-.94-2.18-1.95-4.33-2.87-6.51-.56-1.32-1.04-2.66-1.53-4-.2-.53-.06-.65.4-.84.71-.28,1.28-.01,1.73.64.36.52.71,1.09.92,1.68.98,2.8,2.1,5.54,3.38,8.21.1.22.19.45.29.67.09.21.19.42.37.8ZM158.18,75.74c-.79-.09-1.13.27-1.33.89-.21.64-.46,1.27-.72,1.89-.38.92-.77,1.83-1.17,2.74-.08.18-.17.36-.29.51-.2.25-.38.21-.57-.11-.05-.09-.08-.2-.12-.3-.51-1.21-1.04-2.42-1.54-3.64-.83-2.02-1.64-4.04-2.47-6.06-.25-.6-.52-1.19-.84-1.75-.33-.57-.6-.59-1.18-.21.06.19.11.39.18.59.51,1.27,1.01,2.55,1.54,3.82.55,1.29,1.07,2.6,1.73,3.83.96,1.79,1.68,3.67,2.41,5.56.54,1.38,1.08,2.76,1.64,4.13.18.45.36.54.68.44.36-.11.5-.33.35-.76-.24-.71-.54-1.41-.82-2.1-.22-.54-.45-1.08-.7-1.62-.15-.32-.07-.56.1-.79.39-.55.79-1.09,1.21-1.68.2.1.41.18.6.3,1.57.98,3.14,1.97,4.71,2.95.49.31.76.23,1.1-.41-.26-.15-.51-.34-.78-.45-1.63-.67-3.21-1.47-4.69-2.55-.41-.3-.46-.35-.34-.83.06-.22.15-.43.22-.64.28-.8.58-1.6.83-2.41.12-.4.17-.83.26-1.31Z"/>
    <path class="cls-4" d="M166.55,76.06c.34-.16.67-.33,1.02-.46.22-.08.48-.19.69-.13,1.31.37,2.44,1.04,3.09,2.42.33.71.31,1.36-.04,2.01-.29.52-.64.97-1.12,1.3-1.02.68-2.02,1.39-3.06,2.04-.42.26-.91.43-1.4.57-.56.16-1.04-.14-1.19-.66-.11-.39,0-.65.35-.75,1.44-.38,2.61-1.23,3.73-2.16.54-.44.91-1.03,1.03-1.77.1-.64-.13-1.02-.75-1.12-.37-.06-.76-.03-1.11.05-.81.18-1.62.4-2.42.63-.75.22-1.51.12-2.24-.14-1.44-.51-2.1-2.43-1.48-3.81.55-1.21,1.49-1.92,2.51-2.56.65-.41,1.31-.8,1.97-1.19.75-.45,1.14-.31,1.56.55.04.09.08.17.12.26.27.64.15.96-.45,1.19-.94.36-1.89.7-2.83,1.07-.55.21-.95.62-1.25,1.14-.57,1-.02,2.11,1.11,2.17.35.02.71-.05,1.04-.15.39-.12.76-.33,1.14-.51,0,0,0,.01,0,.02ZM166.72,76.46s0,0,0-.01c-.34.16-.68.32-1.02.47-.54.24-1.1.22-1.69.13-1.14-.17-1.7-1.71-1.21-2.6.36-.66.83-1.22,1.55-1.49.9-.34,1.8-.69,2.68-1.07.5-.21.52-.61.09-1.01-.29-.27-.55-.16-.79,0-1.2.8-2.41,1.61-3.43,2.66-.27.29-.58.55-.83.85-.14.16-.25.38-.27.6-.13,1.01.75,2.34,1.73,2.55.66.15,1.32.19,1.98-.03.79-.26,1.6-.46,2.42-.64.34-.07.71-.05,1.06,0,.87.13,1.27.74,1.09,1.62-.04.2-.12.4-.2.59-.36.87-.95,1.54-1.69,2.02-.86.56-1.79,1-2.69,1.5-.1.05-.21.09-.29.15-.2.16-.17.46.07.56.15.06.36.07.51.02.35-.11.69-.27,1.03-.42,1.3-.57,2.37-1.5,3.47-2.38.33-.26.56-.69.75-1.09.23-.49.17-1.01-.08-1.56-.45-.97-1.23-1.46-2.1-1.87-.4-.19-.77-.19-1.15,0-.31.17-.64.3-.95.44Z"/>
    <path class="cls-4" d="M135.64,83.9c.64-.16,1.28-.35,1.93-.45.29-.04.62.13.93.21.11.03.21.13.32.16.91.22,1.59.88,2.33,1.42.59.43,1,1.02,1.3,1.68.71,1.59,1.09,3.19.68,4.93-.22.92-.57,1.71-1.08,2.43-.55.79-1.37,1.25-2.31,1.36-.81.09-1.66.13-2.48.01-1.84-.27-3.18-1.36-3.91-3.21-.77-1.96-.92-3.93-.22-5.87.46-1.27,1.37-2.09,2.52-2.69ZM136.03,84.49s-.02-.02-.02-.04c-.35.22-.71.41-1.04.66-.39.29-.68.65-.83,1.17-.19.66-.57,1.25-.73,1.91-.28,1.17-.18,2.38.17,3.56.47,1.6,1.4,2.86,2.98,3.27,1.05.27,2.17.32,3.25.28.76-.03,1.42-.53,1.9-1.14.81-1.03,1.06-2.33,1.07-3.65,0-2.3-.87-4.23-2.82-5.56-1.19-.81-2.42-1.27-3.74-.56-.06.03-.12.06-.19.09Z"/>
    <path class="cls-1" d="M124.88,98.82c-.43-2.71-.83-5.21-1.23-7.72-.02-.15-.08-.32-.04-.43.06-.16.18-.35.32-.4.14-.05.33.05.5.09.04.01.07.07.1.1.58.83,1.16,1.66,1.74,2.49.07.1.11.25.2.3.89.5,1.48,1.33,2.1,2.13.32.4.47.47,1.07.49.03-.18.08-.36.07-.55-.15-2.32-.31-4.65-.45-6.97-.03-.41.04-.82.11-1.22.04-.28.24-.48.52-.47.3.01.33.31.42.53.35.89.21,1.79.2,2.68-.01.87,0,1.75.02,2.63,0,.17.03.34.03.52.07,1.42.15,2.83.21,4.25.01.28-.03.55-.05.95-.28-.17-.46-.24-.59-.36-1.6-1.52-3.24-2.99-4.62-4.74-.06-.08-.11-.18-.19-.22-.11-.06-.26-.13-.37-.11-.07.01-.15.18-.15.28.03,1.03-.04,2.05.26,3.07.41,1.34.48,2.72.55,4.09.01.28-.01.55-.31.66-.27.1-.43-.11-.61-.27-2.5-2.09-4.84-4.35-7.16-6.65-.21-.21-.57-.41-.31-.78.22-.31.79-.38,1.06-.12.37.35.7.75,1.05,1.14.15.16.27.36.43.5,1.23,1.12,2.46,2.24,3.7,3.35.24.21.49.41.75.58.14.09.32.1.64.18Z"/>
    <path class="cls-1" d="M158.18,75.74c-.09.47-.13.91-.26,1.31-.25.82-.55,1.61-.83,2.41-.07.21-.17.42-.22.64-.12.48-.06.53.34.83,1.48,1.09,3.06,1.88,4.69,2.55.27.11.52.29.78.45-.34.64-.6.73-1.1.41-1.57-.98-3.13-1.97-4.71-2.95-.19-.12-.4-.2-.6-.3-.43.59-.82,1.14-1.21,1.68-.17.23-.24.47-.1.79.24.53.48,1.07.7,1.62.28.7.57,1.39.82,2.1.15.43.01.65-.35.76-.32.1-.5,0-.68-.44-.56-1.37-1.1-2.75-1.64-4.13-.73-1.88-1.46-3.76-2.41-5.56-.66-1.23-1.18-2.54-1.73-3.83-.54-1.27-1.03-2.55-1.54-3.82-.08-.2-.13-.4-.18-.59.58-.38.85-.35,1.18.21.32.55.59,1.15.84,1.75.83,2.01,1.64,4.04,2.47,6.06.5,1.22,1.03,2.43,1.54,3.64.04.1.07.2.12.3.18.32.37.37.57.11.12-.15.21-.33.29-.51.39-.91.79-1.82,1.17-2.74.26-.62.51-1.24.72-1.89.2-.62.53-.98,1.33-.89Z"/>
    <path class="cls-1" d="M166.72,76.46c.32-.15.65-.27.95-.44.38-.2.75-.2,1.15,0,.86.41,1.65.9,2.1,1.87.25.54.31,1.07.08,1.56-.19.4-.42.83-.75,1.09-1.1.88-2.17,1.81-3.47,2.38-.34.15-.68.31-1.03.42-.15.05-.36.04-.51-.02-.25-.1-.27-.4-.07-.56.08-.07.19-.1.29-.15.9-.49,1.83-.94,2.69-1.5.74-.48,1.33-1.15,1.69-2.02.08-.19.16-.38.2-.59.18-.88-.22-1.49-1.09-1.62-.35-.05-.72-.07-1.06,0-.81.17-1.63.37-2.42.64-.66.22-1.32.18-1.98.03-.97-.22-1.85-1.54-1.73-2.55.03-.22.14-.44.27-.6.25-.31.55-.57.83-.85,1.02-1.05,2.23-1.86,3.43-2.66.24-.16.51-.28.79,0,.42.4.4.8-.09,1.01-.88.38-1.78.73-2.68,1.07-.72.27-1.18.82-1.55,1.49-.49.9.07,2.43,1.21,2.6.59.09,1.16.11,1.69-.13.34-.15.68-.31,1.02-.47,0,0,0,0,0,.01Z"/>
    <path class="cls-1" d="M136.03,84.49c.06-.03.13-.05.19-.09,1.31-.7,2.54-.25,3.74.56,1.95,1.33,2.83,3.26,2.82,5.56,0,1.31-.25,2.62-1.07,3.65-.48.61-1.14,1.11-1.9,1.14-1.07.04-2.19-.01-3.25-.28-1.58-.41-2.51-1.67-2.98-3.27-.35-1.18-.46-2.39-.17-3.56.16-.66.54-1.25.73-1.91.15-.52.44-.88.83-1.17.33-.25.69-.44,1.04-.66,0,.01.02.03.02.04ZM136.34,85.41c-.97.48-1.78,1.11-1.91,2.37-.03.34-.13.66-.2.99-.22.91-.12,1.84.29,2.66.52,1.04,1.23,1.95,2.34,2.44,1.35.6,2.61.71,3.75-.29.94-.82,1.31-1.91,1.21-3.2-.05-.71-.23-1.41-.34-2.11-.28-1.82-2.66-3.77-4.64-3.05-.17.06-.34.13-.51.2Z"/>
    <path class="cls-4" d="M136.34,85.41c.17-.07.34-.14.51-.2,1.98-.72,4.36,1.23,4.64,3.05.11.71.29,1.41.34,2.11.1,1.29-.27,2.38-1.21,3.2-1.14,1-2.4.89-3.75.29-1.11-.49-1.82-1.41-2.34-2.44-.41-.82-.51-1.75-.29-2.66.08-.33.17-.65.2-.99.12-1.26.93-1.89,1.91-2.37ZM135.01,91.4c.7,1.62,2.39,2.69,3.78,2.49,1.59-.24,2.62-1.3,2.58-3.02-.02-.68-.16-1.36-.26-2.05-.18-1.27-.83-2.19-1.91-2.82-1.27-.74-3-.31-3.69.95-.41.75-.63,1.58-.79,2.43-.13.71-.02,1.41.29,2.01Z"/>
    <path class="cls-2" d="M135.01,91.4c-.31-.6-.42-1.3-.29-2.01.16-.85.38-1.68.79-2.43.69-1.26,2.42-1.69,3.69-.95,1.08.63,1.74,1.55,1.91,2.82.1.68.24,1.37.26,2.05.04,1.72-1,2.78-2.58,3.02-1.39.21-3.07-.87-3.78-2.49Z"/>
    <path class="cls-4" d="M144.44,72.84c.62-.41.61-1.45,1.53-1.41.25.37.05.67-.09.94-.34.62-.27,1.14.12,1.81.89,1.52,1.36,3.21,1.54,4.95.09.85-.18,1.63-.59,2.33-.41.69-1.11.76-1.79.62-.61-.13-1.04-.54-1.26-1.25-.42-1.35-.39-2.67-.24-4,.04-.32,0-.65,0-1.14-.64.41-.18.88-.28,1.27-.3.19-.52.02-.71-.28-.2-.32-.35-.67-.57-.98-.26-.36-.57-.69-.89-1.06-.5.42-.52.87-.32,1.36.16.37.36.73.51,1.11.09.21.11.45.15.68-.66.16-.69-.54-1.17-.7-.11.27-.21.54-.32.81-.08.21-.13.43-.23.63-.23.47-.59.49-.85.01-.31-.56-.5-1.18-.83-1.73-.31-.52-.38-1.07-.48-1.63-.02-.1.04-.21.08-.45,1,.78.91,2.02,1.51,2.97.37-.52.47-1.09.53-1.66.05-.48.02-.97,0-1.46-.03-.79.34-1.12,1.04-.85.3.11.59.32.86.52.22.16.42.38.71.65.06-.26.11-.43.14-.6.12-.55.18-1.11.36-1.63.28-.78.69-.8,1.26-.14.07.09.15.17.26.31ZM144.94,75.26c-.13.16-.2.21-.22.28-.63,1.62-.59,3.31-.24,5.04.1.47.36.79.82.88.47.09.92-.04,1.11-.46.2-.43.35-.97.3-1.45-.15-1.56-.89-2.9-1.78-4.29ZM143.78,73.41c-.26.61-.51,1.1.03,1.76.26-.6.45-1.1-.03-1.76ZM146.35,76.61q-.06-.57-.4-.86c.15.32.26.57.4.86Z"/>
    <path class="cls-4" d="M111.27,89.38c-.31,0-.61-.04-.88.02-.68.16-1.33.41-2.02.53-.92.16-1.86.32-2.8.34-1.02.02-1.52-.58-1.5-1.66.02-1.22.26-2.37.82-3.41.63-1.17,1.38-2.24,2.33-3.13.12-.11.24-.22.37-.31.81-.57,1.76-.33,2.19.65.21.46.27,1.01.3,1.51.03.43-.3.62-.66.36-.26-.19-.47-.49-.63-.78-.15-.27-.22-.58-.32-.85-.47-.14-.75.08-1,.33-1.04,1.08-1.83,2.36-2.37,3.81-.22.59-.07,1.19.22,1.74.34.64.82.79,1.57.59.93-.25,1.85-.56,2.79-.76.51-.11,1.07-.04,1.61-.04.36,0,.59.23.81.54.54.79.69,1.52.18,2.37-.68,1.14-1.41,2.21-2.29,3.18-.33.36-.63.74-.95,1.11-.1.12-.19.3-.32.36-.15.06-.4.07-.5-.02-.1-.09-.16-.4-.09-.51.29-.46.61-.91.97-1.3.82-.89,1.43-1.92,1.93-3.04.2-.45.41-.92.23-1.63Z"/>
    <path class="cls-4" d="M129.81,81.54c-.31,0-.61-.04-.88.02-.68.16-1.33.41-2.02.53-.92.16-1.86.32-2.8.34-1.02.02-1.52-.58-1.5-1.66.02-1.22.27-2.37.82-3.41.63-1.17,1.38-2.24,2.33-3.13.12-.11.24-.22.37-.32.81-.57,1.76-.33,2.19.65.21.46.26,1,.3,1.51.03.43-.3.61-.66.36-.26-.18-.47-.49-.63-.78-.16-.26-.22-.58-.32-.84-.47-.14-.75.08-.99.33-1.05,1.08-1.83,2.37-2.37,3.81-.22.6-.07,1.19.22,1.74.34.64.82.79,1.57.59.93-.25,1.85-.56,2.79-.76.51-.11,1.07-.04,1.61-.04.36,0,.59.23.81.54.54.79.69,1.52.18,2.37-.68,1.14-1.41,2.21-2.29,3.18-.33.36-.63.74-.95,1.11-.1.12-.19.3-.32.36-.14.06-.39.07-.49-.02-.1-.09-.16-.4-.1-.51.3-.46.61-.91.97-1.3.82-.88,1.43-1.92,1.93-3.03.2-.45.41-.92.24-1.63Z"/>
    <path class="cls-4" d="M119.29,88.62c-.83-.09-1.29-.8-1.95-.99-.1.48-.14.96-.3,1.39-.15.44-.43.51-.85.29-.18-.09-.33-.22-.49-.33-.13-.09-.27-.19-.43-.31-.17.4-.3.77-.48,1.1-.31.59-.63.58-1.04,0-.75-1.06-.72-2.28.08-3.21.42-.48.85-.43,1.17.17.19.36.31.75.51,1.11.19.34.43.65.74,1.1.13-.33.25-.49.26-.66.06-.91-.02-1.75-.52-2.64-1.02-1.83-1.65-3.83-1.82-5.93-.03-.36.03-.74.14-1.08.13-.42.4-.52.76-.28.26.18.52.46.66.74.21.44.33.93.45,1.41.15.59.25,1.19.41,1.78.26.99.37,1.99.34,2.99-.03,1.04.47,1.76,1.27,2.31.39.26.81.49,1.08,1.07ZM116.15,84.56c.07-.02.13-.05.2-.07-.35-1.55-.7-3.1-1.05-4.64-.04-.17-.12-.33-.18-.49,0-.02-.04-.04-.07-.04-.02,0-.05.02-.15.08.31,1.73.49,3.51,1.25,5.17ZM114.53,87.29c-.71.76-.8,1.57-.2,2.2.17-.74.59-1.36.2-2.2Z"/>
    <path class="cls-4" d="M137.2,75.88c-.1.08-.19.18-.3.24-.91.48-1.24,1.2-1.01,2.28.12.55.28,1.1.43,1.67-.46.16-.57-.17-.7-.45-.2-.44-.4-.88-.62-1.34-.54.2-.67.63-.69,1.09-.04,1.07-.24,2.08-.72,3-.11.2-.06.56.03.81.55,1.57,1.14,3.11,1.71,4.67.07.2.11.42.17.66-.49.09-.67-.2-.8-.53-.28-.73-.54-1.47-.81-2.2-.3-.82-.58-1.65-.9-2.46-.1-.25-.35-.43-.51-.66-.13-.2-.36-.45-.33-.63.13-.82-.21-1.52-.53-2.24-.07-.16-.13-.32-.21-.48-.24-.5-.4-1-.03-1.45.39-.47.9-.71,1.51-.54.38.1.74.35,1.18.58.67-.26.61-.97.56-1.8.29.22.48.36.67.51.27-.32.51-.68.84-.95.35-.3.62-.21,1.06.22ZM132.64,80.33c.36-.56.65-.95.88-1.37.15-.28.15-.6-.14-.85-.31-.26-.78-.29-1.14-.06-.28.17-.43.42-.28.77.19.45.4.88.69,1.51ZM133.48,80.65c-.06-.03-.13-.05-.19-.08-.2.25-.4.5-.09.93.09-.28.19-.57.28-.85Z"/>
    <path class="cls-4" d="M121.79,87.62c-.59.14-.82-.29-1-.65-.27-.54-.45-1.13-.69-1.69-.15-.36-.34-.71-.53-1.1-.21.1-.33.13-.44.21-.26.19-.59.15-.73-.09-.12-.23-.11-.61-.03-.86.08-.25.32-.42.51-.65-.46-1.48-.92-2.94-1.38-4.4-.02-.08-.06-.16-.1-.24-.15-.4.04-.6.35-.71.35-.13.51.12.59.43.2.88.35,1.76.58,2.63.16.61.39,1.21.63,1.8.26.63.36.65.94.47.28-.09.55-.22.84-.26.14-.02.31.14.46.22-.08.13-.13.31-.24.38-.18.1-.41.13-.61.2-.68.24-.76.42-.46,1.13.4.96.83,1.92,1.24,2.88.03.07.03.17.06.33Z"/>
    <path class="cls-4" d="M137.28,73.76c-.15-.29-.3-.46-.3-.62,0-.2.1-.41.21-.58.03-.05.26,0,.34.07.21.2.25.44.1.69-.07.11-.16.2-.35.44Z"/>
    <path class="cls-2" d="M143.78,73.41c.48.66.29,1.17.03,1.76-.54-.66-.29-1.16-.03-1.76Z"/>
    <path class="cls-2" d="M146.35,76.61c-.13-.29-.25-.54-.4-.86q.34.29.4.86Z"/>
    <path class="cls-2" d="M116.15,84.56c-.77-1.66-.94-3.44-1.25-5.17.1-.06.13-.08.15-.08.02,0,.06.02.07.04.06.16.14.32.18.49.35,1.55.7,3.09,1.05,4.64-.06.02-.13.05-.2.07Z"/>
    <path class="cls-2" d="M114.53,87.29c.39.84-.03,1.46-.2,2.2-.6-.63-.51-1.45.2-2.2Z"/>
    <path class="cls-2" d="M132.64,80.33c-.29-.63-.5-1.06-.69-1.51-.15-.36,0-.6.28-.77.37-.23.84-.21,1.14.06.29.25.29.57.14.85-.23.42-.52.81-.88,1.37Z"/>
    <path class="cls-2" d="M133.48,80.65c-.09.28-.19.57-.28.85-.32-.43-.12-.68.09-.93.06.03.13.05.19.08Z"/>
  </g>
</svg>