<?xml version="1.0" encoding="UTF-8"?>
<svg id="Layer_1" data-name="Layer 1" xmlns="http://www.w3.org/2000/svg" viewBox="0 0 180 200">
  <defs>
    <style>
      .cls-1 {
        fill: #fff;
      }

      .cls-1, .cls-2, .cls-3, .cls-4, .cls-5 {
        fill-rule: evenodd;
      }

      .cls-2, .cls-6 {
        fill: #231f20;
      }

      .cls-3 {
        fill: #01588d;
      }

      .cls-4 {
        fill: #fdebca;
      }

      .cls-5 {
        fill: #f5881f;
      }

      .cls-6 {
        font-family: AmericanTypewriter-Bold, 'American Typewriter';
        font-size: 23.11px;
        font-weight: 700;
        letter-spacing: .02em;
      }
    </style>
  </defs>
  <polygon class="cls-5" points="27.87 83.26 5.18 116.47 6.31 117.91 49.6 116.4 34.05 87.84 29.42 82.43 27.87 83.26 27.87 83.26"/>
  <path class="cls-2" d="M26.06,87.57c-.82.35-.23-.82-1.05-.47-.39.14-.18.82-1,.57-.32,1.35-.63,2.69-1.91,3.18-.3,1.42.73,1.37,1.14,2.01-1.79,1.31-1.8,5.5-4.95,4.11.29.76,1.23.8,1.37,1.74-.68.35-1.18.49-1.52.59,1.09.9-.29.67-.71,1.32-1.1,1.7-1.69,4.39-3.62,4.82-.07,1.25-.52,2.15-1.69,2.4.65,1.34-.38.19-.74.81,1.65.32-1.06,1.13.09,1.8-1.83.38-1.38,2.84-2.65,3.74-.16-.44.24-1.53-.33-1.53,0,.4.08.89-.48.8-.27.85.84.15.57,1-1.07.26-.87,1.67-1.43,2.39,2.68-.59,7.03-.64,10.02-.5.05-.2-.02-.51.23-.53,9.97.91,17.92-.64,30.1-.97-.56-2.7-2.94-4-3.88-5.48-.31-2.28-2.47-2.51-2.56-5.02-1.15.17-.99-.92-.85-1.5-1.02.02-1.95-1.64-1.13-2.01-.8.43-.86-.15-1.57-.44-1.86-5.62-6.29-9.58-8.42-14.01.01.26-.44.34-.51.02.31-.04.6-.11.49-.54-.72.25-.68-.33-1.3-.19-1.24,1.73-1.8,4.1-3.87,5.08.54.88-.19,1.25-.68,1.84-.31-1.02-.06-2.01.38-2.86.42-.02.18.71.55.75.06-1.11.94-3.2,1.7-2.14-.03-.35.09-.57.22-.78h0ZM41.07,99.45c1.52.21,1.12,2.55,2.71,2.7.04,1.67.9,2.45,1.95,2.99-.12,1.76.87,2.29,1.93,2.74.12.43-.17.49-.48.54.36.35,1.21.59.57,1.26.2-.15.41-.29.76-.3.12.52-.01.81-.47.8.51.65,1.99,2.05,1.16,2.52.26.44.83.53,1.56.44.14,2.11,1.3,3.09,1.3,5.35-.25-.15-.97-.56-.75.29-.47-.49-1.79,0-1.85-.94-.57,1.02-1.76-.67-3.06.67-.78.13-.58-.81-.84-1.25-.73.26.37.63.06,1.29-.2-.17-.87-1.05-.77.04-3.59-.25-8.92-.27-12.1.08-.02-.25-.03-.5-.04-.76-1.16.68-2.52.82-3.6.18-.69,1-5.48,1.03-6.94.35-2.83,1.62-9.11.1-10.47,1.8-2.22-1.24-6.03.17-8.8-.85-.26-.81.17-.99.45-1.32-1.03-.04-.43-.2-.6-1.77,1.2-.39,1.69-1.41,1.66-2.92,1.19.19.52-1.32,1.74-1.12-.22-.78-.2-.48-.06-1.28,1.75.2.69-2.16,2.21-2.17-.18-.26-.6-.24-.55-.75,1.04.28.48-.87,1.52-.59-.02-.43-.04-.86-.06-1.29.22-.21.57-.3,1.01-.3,1.5-3.88,4.33-6.56,5.93-10.34.89-.02,1.17-.58.95-1.6.76.03.76-.62,1.52-.59.63-3.44,3.9-4.49,4.5-7.95,2.82-.63,2.14-4.43,4.89-5.14-.18-.25-.6-.24-.56-.75.85-.05,1.26-.5,2.31-.37,1.15.82-.3,1.33,1.34,1.22-1.06,1.16.33,4.56,1.49,4.04.38.07.07,1.95,1.37,1.74-.14.79.32.92.34,1.53,3.31,2.75,3.94,8.47,7.25,11.23.11.43-.18.5-.49.55h0Z"/>
  <g>
    <path class="cls-2" d="M150.67,88.71c.25.05.69-.11.72.18-.37.07-.71.11-.72-.18h0Z"/>
    <path class="cls-1" d="M94.83,109.15c1.39,1.78,2.97,4.11,4.09,6.27-1.47-1.96-3.08-3.77-4.09-6.27h0Z"/>
    <path class="cls-2" d="M152.85,107.86c.1.24.05.42-.29.44-.1-.24-.05-.41.29-.44h0Z"/>
    <path class="cls-1" d="M99.15,115.79c.59.3.77,1.06,1.19,1.54-.6-.29-.82-.99-1.19-1.54h0Z"/>
    <path class="cls-3" d="M157.25,67.52c.46.34.85.77,1.57.85.03.21.2.28.28.44-.22.24-.59-.01-.78-.06-.11-.67-.96-.55-1.21-1.09.13.01.14-.07.14-.15h0Z"/>
    <path class="cls-1" d="M163.36,72.43c-.01-.14-.03-.27-.04-.4-.26-.06-.03.22-.29.17-.01-.11-.03-.23-.03-.34.44-.14.82.42.37.58h0Z"/>
    <path class="cls-1" d="M169.47,77.27c.2-.05.39-.07.33.17-.14-.01-.33.02-.33-.17h0Z"/>
    <path class="cls-2" d="M170.29,78.33c-.02-.2-.43-.64-.36-.43.2.05-.02.56.36.43h0ZM169.8,77.44c.06-.24-.13-.21-.33-.17,0,.18.18.15.33.17h0ZM147.29,63.02c.33-.05.35.22.71.12-.16-.21-.55-.2-.74-.39.01.09.02.18.03.27h0ZM133.99,60.39c.22-.04.28.1.41.17-.02-.16-.03-.32-.05-.47-.25,0-.32.15-.35.3h0ZM133.45,60.45c0-.09-.02-.18-.03-.27-.26.06-.47.05-.41-.23-.1.01-.21.02-.31.03-.03.46.49.31.74.47h0ZM128.72,59.74c.06.29.55.09.73.26,0-.3-.13-.47-.44-.43.1.19-.16.14-.29.17h0ZM48.77,88.09c.05.15.16.23.33.24,0-.09-.02-.18-.03-.27-.1.01-.2.03-.3.03h0ZM107.76,59.51c-.17.1-.4.41-.53.06-.73.12-1.56.53-2.15.24-.18.19-.62.24-.84.08-.35.44-.81-.12-1.32,0,.09.23-.04.31-.19.37-.28-.25-.34.06-.48-.16-.63.17-1.51.26-2.14.23,0,.34-.33.05-.46.06-.55.45-1.52.24-2.58.48-.04.18-.93.35-.99.11-.33.11-.58.24-1,.12,0,.13-.03.23-.13.28-1.38.02-1.83.05-3.2.49-.05-.17-.26-.17-.41-.23,0,.1.06.24-.04.28-.17-.22-.27-.04-.46.05,0-.28-.48-.03-.7-.06,0,.08.03.19-.05.21-.56,0-1.46.15-2.08.16.09.31-.4.21-.5.39-.12-.21.25-.08.12-.29-.44.15-.84.32-1.18.54,0-.26-.14-.34-.35-.37.03.59-.93.65-1.2.4-.06.4-.87.64-1.19.47,0,.3-.63.14-.9.24,0,.11.04.24-.05.28-.3-.29-.65.27-1.31.14.03.24-.29.25-.59.27,0,.11.05.25-.04.28-.28.13-.17-.17-.4-.09,0,.18-.26.19-.26.37-.18-.16-.87.21-1.46.16-.06.4-.59.59-.96.44-.21-.02.09.31-.13.29-.12-.01-.08-.2-.32-.1,0,.1.06.24-.05.27-.63.15-1.5.46-2.08.84-.12-.02-.09-.21-.32-.1-.05.28-.58.25-.97.3-.09.18.37.12.1.26-.89-.15-1.17.55-2.32.73-.01.15-.13.24-.19.36-.52-.03-.6.27-.85.1-.05.31-.42.41-.88.43,0,.1.06.25-.05.28-.83-.04-.83.59-1.58.44-.13.15.01.17.04.33-.24-.05-.17.13-.29.17-.12,0-.08-.16-.25-.1.03.16,0,.27-.12.35-.12,0-.08-.17-.24-.11-.04.24-.29.33-.5.46-.06-.13.08-.47-.19-.38.01.13.03.27.04.41-.42.08-.92.61-1.28.34.1.28-.06.38-.18.5-.1-.06-.17-.17-.33-.17.03.54-.76.5-1.07.79-.03.12.13.38-.04.41-.03-.12.04-.34-.18-.25-.06.62-1.25.45-1.11,1.2-.48-.09-.24.34-.67.28.08-.09.21-.14.12-.36-.52.61-1.15,1.15-1.84,1.64-.63-.23-.51.8-1.18.53.14.31-.31.2-.52.26,0,.11.06.25-.05.28-.64.18-.78.86-1.54.78-.43.3-.55.81-1.22.96-.02.15-.14.23-.19.36-.4-.04-.11.41-.58.33-.22.44-.81.63-1.05,1.07-1.03.39-1.47,1.2-2.37,1.68-.25.42-.56.81-1.22.94-.07.23.25.03.18.26-.23.12-.41.3-.67.21.14.46-.32.48-.47.72-.06-.14.2-.23-.09-.18-.06.12-.18.21-.2.36.11,0,.29-.06.32.03-.12.11-.14.27-.44.25.1.53-.18.79-.09,1.31.25-.07.27.11.41.16.12.2-.25.08-.13.29.41.04.37.61.43,1.04-.26-.07-.45.21-.29.24,0-.07.13-.1.16-.03-.27.66.17,1.18-.2,1.72.35.24,0,.37-.08.62.17.23.34.7.1.95.26.05.04-.23.29-.17-.04.5-.16.93.15,1.35-.49.23-.02.59-.22.84.12,0,.28-.06.31.03-.24.13-.04.55-.23.71.2,0,.24.19.34.3-.07.25-.19.65-.21.97-.01.68.33.97.46,1.32.32.87.34,2.99.21,3.3.42.11.36,1.01.13,1.21.55.38-.25,1.39.34,1.8-.32.35.2,1.3-.3,1.53.51.77-.17,1.63.44,2.54-.37.44.21,1.17-.22,1.52.21.17.22.77.23.72-.25,1.38.21,3.73,0,5.03.09,0,.22-.04.24.04-.2.53-.15,1.49.2,1.88-.03.71-.05,2.51.38,3.49-.2,1.31.12,2.98-.07,4.29.44.88.03,2.19.35,3.24-.25.18-.35.74-.05.95-.27.25-.19.99.12,1.14-.23.51.2.58-.02,1.23.4-.17.56.24.69-.08.86.42,2.17.34,2.89.91,1.13-.13,1.46.61,2.41.69,0,.09.02.18.03.27.81.09,1.15.69,1.95.81.03.48.82.4.57.96.6-.08.47.65,1,.64.53.96,1.56,1.36,1.9,2.51.38,0,.77,0,1.23-.06.63.59,2.18.17,3.15.4.36-.32,1.15-.15,1.41.12.83-.13,2.19-.32,3.01-.13.15,0,.14-.11.21-.15,1.56.17,3.28.16,4.99.21.73,0,1.77-.18,2.47-.07.2.03.35.18.57.21.94.13,2.05.18,2.87.03,2.74.33,5.16-.18,8.35-.16.09-.33.46.18.6-.2.24.19.89.3,1.16.01.93.29,2.24.16,3.5.09.04-.22.27-.3.33-.51.59.11,1.42-1.24,2.13-1.05.05-.18.18-.29.26-.44,1.57-.5,2.65-1.32,3.98-1.99.24-.11.08.21.32.1.15-.28.82-.18,1.2-.33.19-.07.27-.28.43-.32.28-.08.62,0,.92-.1.18-.06.32-.27.51-.33.37-.12,1.04-.07,1.45-.23.25-.1.36-.31.51-.33.58-.06,2.08-.11,3.09-.06.24-.29.35.1.52-.19.56.2,1.49-.02,2.25-.03,1.19.38,2.48.65,3.88.79,1.03.27,1.52,1.11,2.62,1.29-.04.22.27.05.19.32.42-.08.61.09.66.4.59.09.92.46,1.18.9.44.02.68.26.7.74.63.02.78.55,1.32.67,1.37-.24,1.62-.36,3.06-.33.74-.44,1.89-.06,2.63,0,.3-.27,1.48-.36,1.84-.21.25-.47.81,0,1.09.02-.05,0,.06-.17.21-.16,1.5.13,3.79-.16,5.66,0,.41-.34.94.08,1.52-.29.74.38,2.35-.46,3.25-.02.15-.16,1.06-.38,1.23-.13,1.1-.29,3.58-.38,4.79-.18,0-.08-.04-.19.05-.21-.01.02.03.13.02.14.51-.2,1.8-.25,2.28-.39.06.33.33-.03.46-.05.88.17,2.32-.11,3.46-.24,2.65-.3,5.46-.5,7.74-.84-.04-.26.06-.41.26-.5-.71-1.87.42-3.5.76-5.04.72-.25.7-1,1.42-1.25.21-.87,1.23-1.16,1.75-1.82.13-.01.25-.02.38-.04.07-.57.77-.7,1.21-1.02,0,.12.09.15.24.11,1.45-.88,2.65-1.08,4.74-1.27-.26-1.21-.38-3.33-.51-4.63-.19-.87-.11-2.15-.35-3.22-.22-1.02-.13-2.26-.65-3.13.43-.74-.42-2.14-.14-2.7-1.62-5.48-1.07-11.49-2.21-17.44,0-.11.19-.08.13-.21-.2-.69-.38-2.78-.27-3.99-.65,0-.37-.77-.45-1.24-.02-.11-.37-.23-.19-.32.21-.01.07.38.34.3.14-1.97-.2-3.73-.27-5.35-1.06-.29-1.5-1.26-2.02-2.16-.12,0-.27.06-.31-.03-.11-.29-.28-.5-.6-.55-.2-.36-.36-.75-.79-.87-.78-.65-1.55-1.32-2.1-2.22-.12,0-.28.05-.31-.05-.62-.74-1.73-.97-2.22-1.86-.83-.11-1.08-.87-1.83-1.09.04-.56-.68-.3-.71-.81-.2.02-.4.05-.6.07-.12-.62-1.02-.39-1.05-1.11-.47-.24-1.13-.27-1.34-.81-.92-.17-1.41-.82-2.14-1.2-.26-.05-.04.23-.29.17-.62-.38-1.54-.44-1.97-1.01-1.57.28-1.56-1.16-3.05-.96-.32-.53-1.34-.29-1.58-.91-1.08-.11-1.64-.76-2.79-.79,0-.06-.01-.13-.02-.2-.44.14-.51-.11-.86-.05-.01-.09-.02-.18-.03-.27-.68-.09-1.21-.33-1.7-.63-.95.06-1.53-.29-2.5-.2-.02-.12.05-.35-.18-.26-.34.33-1.33-.29-1.71-.02-.26-.5-1.39-.05-1.61-.57-1.71.35-2.83-.52-4.14-.23-.02-.21-.29-.14-.27-.38-.83.43-1.74-.22-2.79-.03,0-.12-.03-.23-.04-.35-.41.33-.68,0-1.3.15-.05-.39-.49-.37-.89-.38,0-.08-.02-.17-.03-.27-.14-.02-.45.15-.4-.09-.26-.06-.04.22-.29.17-.85-.31-2.26-.3-3.18-.74-.42.18-1.59.08-2.11-.11-.55.5-1.54-.23-2.07.23-.08-.11-.29-.08-.27-.32-.43.11-.61.16-.93-.03-.22.49-1.06.11-1.4.02,0,.11.06.24-.05.28-.92-.4-2.44-.45-3.52-.23,0-.12-.1-.14-.1-.26-.27.27-.39-.09-.67.2,0-.06-.02-.13-.02-.2-.29-.08-.02.23-.21.23-.65-.34-1.47.11-2.39.12-.08-.68-.03.2-.4-.16-.12.42-.88.22-1.23.14h0ZM118.03,58.38c.28-.03.56-.06.84-.09.03-.53-.73-.04-.84.09h0ZM90.15,60.81c.21-.08.45-.14.51-.32-.33,0-.48.12-.51.32h0ZM91.96,60.34c-.09,0-.1-.09-.1-.19-.07.38-.88,0-.96.44.39-.03.77-.08,1.15-.12-.04-.11.09-.18-.03-.2,0,.04,0,.09-.06.08h0ZM92.27,60.44c.2-.05.2-.24.27-.37-.24.11-.08-.21-.31-.1.01.15.03.31.04.47h0ZM60.42,71.93c.16-.06.12.11.24.1.57-.34,1.06-.74,1.92-.89.23-.42.95-.5,1.06-.99.77-.25,1.81-.3,2.07-.91.15-.02.3-.03.46-.05.71-.71,1.98-1.01,2.77-1.66.7.15.84-.44,1.17-.6.24-.12.61.03.66-.28.99-.03,1.57-.77,2.69-.91.05-.11.24-.12.2-.29,1.11-.02,1.2-.77,2.32-.79.16-.47,1.06-.42,1.22-.88.28-.02.62-.12.7.06.09-.66,1.56-.35,1.6-1.05.4.21.97-.23,1.6-.24.1-.03.04-.17.05-.28.63.03.83-.23,1.11-.46.24.18.6.06.68-.21.2.12.57.17.52-.19.53.11,1.56-.35,2.02-.7.95.14,2.14-.55,3.09-.81.98-.18,1.7-.29,2.34-.59.58.13,1.72-.29,2.1-.71.16-.06.12.12.24.11,1.36-1.11,3.25-.88,4.74-1.27.85.12,2.28-.33,3.25-.01,2.18-.62,4.96.37,7.46-.54,1.55.13,3.63-.34,5.31-.37.02.41.72.06.89.31.72-.34,2.57.03,3.23-.28.2-.04.21.12.26.24.87-.33,2.23,0,3.39-.17.05.38.82.24,1.01.03,0,.17.19.14.26.24.25.05.03-.23.29-.16,2.29.17,4.59.31,6.67.7,0,.12.11.13.11.27,1.3.08,2.52.26,3.49.7.25.06.03-.22.28-.16.04.18.27.17.35.29.07-.05.07-.16.21-.15.42.3,1.26.14,1.53.58.5.13,1.33-.03,1.96.13.12.03.25.25.42.29.51.13.98.09,1.58.24.49.11,1.09.55,1.54.65.13.03.33-.09.46-.05.24.07.43.32.67.41.13.04.33-.09.46-.06.35.08.56.4.84.52.22-.03.46-.06.69-.08.09.41.81.12.91.51.07-.05.07-.16.22-.15.03.26.41.15.43.43.23-.03.46-.05.69-.08.02.25.39.12.36.44.34-.07.54,0,.57.28.17-.02.36-.05.54-.06.47.99,2.27.53,2.73,1.53.49-.15.55.16,1.01.02.25.29.37.7.99.58.02.42.43.44.9.38-.04.21.11.24.12.4,1.01-.24.93.69,1.77.62-.02.32.2.38.3.58.25.05.03-.23.3-.17.38.33.95.46,1.19.96.6.03.97.29,1.17.77.65.16,1.25.38,1.5.99.07-.05.06-.16.22-.15-.11.52.5.26.46.69.58-.08.66.39,1.2.35.36.58,1.01.85,1.33,1.49.09.11.26.12.48.08,0,.14.03.27.05.4.41-.06.33.4.8.25.07.35.17.67.61.62-.03.39.32.34.59.41.09.26.12.57.52.49.27.81,1.23.87,1.49,1.67.77.07.66,1.1,1.52,1.07.02.11.03.22.03.33.33.06.41.41.75.46.11,1.03,1.56.6,1.51,1.81.2.14.41.26.52.48.05.18-.14.19-.28.24-.07.4.22.4.23.73-.16.05-.13-.12-.25-.11-.23.25.22.41.41.23.02.11.03.23.04.33-.17.06-.13-.12-.25-.11-.11.22.21.62.33.85.06.25-.25.24-.1.55-.1.02-.2.03-.3.03.05,1.5.42,2.81.2,4.06.3.14.03.3.06.54.17,1.2.79,2.81.62,4.34-.01.13-.14.13-.13.22,0,.13.23.25.2.45-.07.76.14,2.45.36,3.36-.13.27-.17.87.12,1.07-.25-.01-.17.74.08.67-.13.48-.14,1.54.04,1.84-.39.31.47,1.01,0,1.43.62,2.87.82,6.23,1.8,8.71-.02.13.15.4-.12.36.51.52.19,1.94.68,2.64-.47.53.52,1.31.05,1.83.25.37.46,1.6.21,2.01.21.02.38.75.09.81.2.17.42,1.07.14,1.28.07.08.42.47.06.53.18.47.67,1.37.36,1.87.4,1.05.44,2.35.49,3.07-.23.13-.33.06-.61.07-.09.08-.07.23-.2.29.05.24.28.3.22.66-1.08.06-3.06-.14-3.48.72-.08-.11-.23-.15-.47-.08-.1.03-.05.17-.05.27-.19-.17-.88.2-.87.58-.43.01-.79.52-.97.31-.09.12-.28.17-.18.43-.32-.17-1.01.17-1.02.59-.46-.05-.47.21-.83.23.39.15-.5.56,0,.81-.17.06-.12-.11-.24-.11-.19.12-.34.59-.15.76.03.2-.51-.02-.36.25-.23.02-.21-.23-.48-.15-.06.05-.11.08-.22.09,0,.18.16.49-.19.43.09.52-.23.75-.34,1.12.27.52-.64,2.51.81,2.49-.06.44.25.48.26.86-.3-.21-.41.34-.47.66-.36.11-.82.13-.88.43-.22.02-.25-.18-.41-.22-.45.39-1.31-.09-1.67.32-.41-.27-1.06.07-1.29-.47-.05.05-.21.31-.23.03-.19.08-.3.27-.46.05-.1.18-.44.18-.58.34,0-.24-.38-.03-.41-.23-.3.12-.46.23-.77.08-.25.38-.79.21-.96.38-.22.09-.15-.14-.18-.26-.12.02-.4.38-.46.06-.11.08-.16.21-.28.3-.34-.15-.51.24-.71-.2-.22-.02.09.32-.13.29-.05,0-.1.01-.14.02-.23.09-.16-.14-.19-.26-.14.09-.34.13-.35.31-.39.04-1.35-.38-1.39.02-.26.14-.07-.22-.25-.18-.16,0-.13.11-.12.22-.27-.27-1.01.16-1.03-.22-.09.02-.05.12-.06.2-1.32-.2-2.06.12-3.53.32.07-.23-.25-.03-.18-.26-.19.08-.3.27-.46.05-.13.38-1.3.04-1.42.43-.07-.1-.25-.08-.25-.24-.27-.06-.04.22-.3.17-.02-.13-.08-.22-.19-.25-.05.11-.23.12-.19.3-.23-.15-.51-.12-.7.07.02-.26-.46,0-.49-.22-.05.12-.23.13-.2.29-.02-.19-.42.01-.41-.23-.45.26-.91.41-1.37.15-1.01.29-3.54-.01-4.66.64-.23-.14-.5-.11-.69.08-.04-.45-.52.03-.86-.04,0-.07-.02-.14-.02-.21-.06.18-.37.23-.46.05-.09.03-.05.13-.05.22-.62,0-1.1-.17-1.87,0-.16-.28-.91-.27-1.16,0,.09-.27-.34.02-.26-.24-.35.21-.21.05-.68.21-.92-.16-1.99-.07-3.11-.14,0,.17-.33.11-.28.3-.22.02-.25-.18-.41-.23-.36.17-1.23.24-1.93.08-.27.29-.79.17-1.15.12-.12.02-.11.52.12.4-.5.25-1.27-.11-2.16.11.07-.23-.26-.03-.18-.26-.25-.06-.03.22-.29.17,0-.24-.42-.05-.56-.14-.93-1.01-1.68-2.23-3.02-2.8-.01-.09-.02-.18-.03-.27-.13.04-.15-.04-.17-.12-.48.31-.98-.42-1.67-.37-.22-.9-1.65-.5-2.14-1.12-1.55-.16-2.94-.5-4.56-.59-.17.34-.58-.07-.6.21,0-.13-.59-.21-.54.06-.26-.12-.31-.11-.54.06-1.31-.29-4.13.86-5.74,1.37,0-.01-.03-.14-.01-.14-1.63.42-2.99,1.38-4.43,2.05,0-.05,0-.09-.01-.14-.57.32-.97.76-1.67,1-1,.62-1.57,1.55-3.06,1.82-.04-.23-.42-.1-.43-.37-.43.2-1.53.02-2.11-.11-.26.33-1.06.17-1.32.01-.26-.06-.04.23-.29.17-1.49-.21-3.51.47-4.88.06-.24-.01-.07.24-.36.17-.18,0-.29-.08-.34-.23-.16.06-.26.15-.28.3-.2.04-.22-.12-.26-.23-.75.39-1.75-.17-2.07.22-.86-.08-1.63-.23-2.58-.2-.04-.11.06-.12.05-.21-1.78.23-3.14-.06-4.97-.07-.51.26-.91-.18-1.3.14.07-.34-.62.14-.56-.21-.68.49-1.96-.3-2.69.22-.72-.29-2.19.23-2.74-.24-.94.3-1.01.08-2.05.36-.01-.06-.02-.13-.03-.2-.45.1-1.04.29-1.39.02-.09.02-.05.13-.06.21-1.1-.23-1.68.24-2.84.24-.09-.31.24-.33.08-.68-.14-.08-.2-.25-.48-.15-.2-.31-.36-.66-.36-1.18-.53-.76-1.35-1.18-1.84-1.98-.6-.3-.71-1.14-1.53-1.19.02-.65-.96-.2-1.01-.78-.99.11-1.63-.18-2.3-.43-.19.35-.61.01-.72-.19-.11.21-.75,0-1.01-.09-.86.68-1.76-.26-1.84-1.16-.36.38-.82.02-1.31.07-.08-.24-.15-.48-.37-.56,0-.63.31-1.29.33-1.94.05-1.27-.68-2.92-.09-3.73-.44-1.53.06-4.26-.57-5.92.14-.6.06-1.88-.1-2.3.05-2.1-.26-4.17-.11-6.03.02-.15-.17-.2-.17-.18,0-.69.31-1.67-.1-2.31,0-.79.05-2.87-.43-3.97.26.06.04-.22.29-.17-.41-1.43,0-2.68-.57-3.88.31-.75-.21-2.07-.27-2.48.28-1.4.05-2.66-.3-4.18.11-.01.22-.02.22-.09-.39-1.98-.96-5.27-.83-7.66-.22-.4-.11-1.59-.09-2.24.3.02.37-.11.36-.3.51.05.58-.22.9-.3,0-.45.61-.48.6-.94.91-.49,1.52-1.18,2.12-1.87.73.08.44-.56,1.02-.58.12-.08.15-.23.12-.42.64-.21,1.1-.55,1.27-1.09.71-.18,1.06-.62,1.35-1.1.93-.23,1.12-.99,1.87-1.35.42-.83,1.61-1.12,2.04-1.92.17-.06.12.12.24.11.16-.39.7-.51,1.26-.62.03-.18.14-.31.34-.38-.06-.06-.18-.05-.17-.18h0Z"/>
    <path class="cls-4" d="M137.94,125.3c.09.34-.24.37-.41.52.11.15.24.29.22.59.59.3,1.01-.38,1.57-.51.07-.22-.25-.03-.18-.26.24-.11.08.21.31.09.36-.53-.37-.7-.11-1.07-.47.21-.79.53-1.41.63h0ZM170.47,85.05c.43-.21-.16-.5-.09-.82-.24.09-.3-.03-.4-.09.05.43.59.32.49.91h0ZM57.86,83.3c.3.11.31-.39.04-.29.03.14-.07.17-.04.29h0ZM59.23,82.4c.24.08.19-.47-.04-.34.01.11.02.23.04.34h0ZM108.98,59.37c.38.36.33-.52.41.17.92-.02,1.74-.46,2.39-.12.19,0-.08-.31.21-.23,0,.07.02.14.02.2.29-.29.41.07.68-.2,0,.12.11.13.1.26,1.07-.21,2.6-.16,3.52.23.1-.04.05-.17.04-.28.34.1,1.18.48,1.4-.01.32.19.5.14.93.03-.02.24.18.21.27.31.53-.45,1.52.27,2.07-.23.52.19,1.69.29,2.11.11.92.44,2.33.43,3.18.74.25.05.03-.23.29-.17-.05.23.25.07.39.09.01.09.02.18.03.27.4.02.84-.01.89.38.62-.15.9.18,1.3-.15.01.12.03.23.04.35,1.05-.19,1.96.46,2.79.03-.02.24.26.17.27.38,1.31-.29,2.43.58,4.14.23.23.53,1.35.07,1.61.57.38-.28,1.37.36,1.71.02.22-.09.15.14.18.26.98-.09,1.55.26,2.51.2.48.3,1.01.55,1.7.63,0,.09.02.18.03.27.35-.06.42.19.85.05.01.07.02.14.02.2,1.16.03,1.72.68,2.8.79.24.62,1.26.38,1.58.91,1.49-.2,1.48,1.25,3.05.96.43.57,1.35.64,1.97,1.01.26.06.03-.22.29-.17.74.38,1.22,1.03,2.14,1.2.21.53.86.57,1.34.81.03.71.93.49,1.05,1.11.2-.02.4-.05.6-.07.02.5.75.23.71.81.74.22,1,.97,1.83,1.09.49.9,1.6,1.12,2.22,1.87.04.09.2.03.31.04.56.9,1.32,1.57,2.1,2.22.43.11.59.5.79.87.33.05.5.26.6.55.04.09.19.03.31.04.51.89.95,1.86,2.02,2.15.07,1.62.41,3.37.27,5.35-.27.08-.13-.32-.34-.31-.19.1.16.22.19.32.08.47-.2,1.24.45,1.24-.11,1.22.07,3.29.27,3.99.06.14-.14.11-.13.21,1.14,5.95.59,11.96,2.21,17.43-.28.57.57,1.97.14,2.71.52.87.43,2.11.65,3.12.24,1.08.16,2.36.36,3.23.13,1.31.24,3.42.5,4.63-2.09.19-3.3.39-4.74,1.27-.16.04-.24,0-.25-.11-.44.32-1.14.45-1.21,1.02-.13.02-.26.03-.38.04-.52.66-1.54.95-1.75,1.82-.72.24-.7.99-1.42,1.25-.34,1.54-1.47,3.17-.76,5.04-.19.09-.29.24-.26.5-2.28.33-5.09.54-7.74.83-1.14.14-2.58.42-3.46.25-.13.02-.4.38-.46.05-.49.14-1.78.18-2.29.39,0,0-.03-.12-.02-.14-.09.02-.05.12-.05.21-1.21-.19-3.69-.11-4.79.18-.17-.25-1.07-.03-1.23.13-.9-.44-2.51.4-3.25.02-.58.37-1.11-.05-1.52.29-1.87-.15-4.17.14-5.66,0-.15-.01-.26.16-.22.16-.27-.02-.83-.49-1.08-.02-.36-.15-1.54-.07-1.84.21-.75-.05-1.9-.44-2.64,0-1.44-.02-1.69.09-3.06.34-.54-.12-.69-.65-1.32-.67-.02-.48-.25-.72-.7-.74-.26-.44-.59-.81-1.18-.89-.06-.31-.24-.49-.67-.41.08-.26-.23-.11-.19-.32-1.1-.18-1.6-1.02-2.62-1.28-1.41-.14-2.69-.42-3.89-.81-.75.02-1.69.24-2.25.04-.17.29-.28-.09-.52.19-1.02-.04-2.51,0-3.09.06-.15.02-.26.23-.51.32-.41.16-1.08.11-1.45.23-.18.06-.32.26-.51.33-.3.09-.65.03-.92.1-.17.04-.25.25-.43.32-.38.15-1.05.05-1.2.33-.24.11-.08-.21-.32-.1-1.33.67-2.41,1.5-3.98,1.99-.08.15-.21.26-.26.43-.72-.18-1.55,1.16-2.14,1.05-.06.21-.29.29-.33.51-1.26.07-2.57.2-3.5-.09-.27.29-.92.18-1.16-.01-.14.38-.51-.13-.6.2-3.19-.01-5.61.49-8.35.16-.82.15-1.93.11-2.87-.03-.22-.03-.37-.18-.57-.21-.71-.11-1.74.08-2.47.07-1.7-.04-3.42-.04-4.99-.21-.07.05-.07.16-.21.15-.82-.19-2.18,0-3.01.13-.26-.27-1.05-.44-1.41-.12-.97-.23-2.52.18-3.15-.4-.46.07-.85.07-1.24.06-.34-1.15-1.37-1.55-1.9-2.51-.53,0-.4-.72-1-.64.25-.56-.54-.47-.57-.96-.79-.11-1.14-.71-1.95-.81,0-.09-.02-.18-.03-.27-.94-.08-1.27-.82-2.4-.69-.71-.57-2.03-.49-2.89-.91-.13.32-.29-.09-.69.08.22-.65-.21-.72.02-1.23-.32-.16-.39-.9-.12-1.14-.3-.21-.2-.77.05-.95-.32-1.05.09-2.36-.35-3.24.19-1.31-.12-2.98.07-4.28-.44-.99-.41-2.77-.38-3.49-.35-.39-.41-1.35-.2-1.89-.02-.07-.14-.04-.24-.04.21-1.29-.25-3.64,0-5.03,0,.05-.02-.55-.23-.72.44-.35-.15-1.09.22-1.52-.61-.91.08-1.77-.44-2.54.5-.23-.02-1.17.3-1.53-.59-.41.21-1.41-.34-1.79.23-.2.28-1.11-.13-1.21.14-.32.12-2.43-.21-3.3-.13-.34-.47-.64-.46-1.32.02-.31.13-.71.21-.97-.1-.12-.14-.3-.34-.3.19-.15,0-.58.23-.71-.03-.09-.2-.04-.31-.03.2-.25-.26-.59.22-.84-.31-.42-.19-.85-.15-1.35-.26-.06-.04.22-.29.17.24-.25.07-.71-.1-.95.09-.25.43-.38.08-.62.38-.55-.07-1.06.2-1.72-.03-.08-.16-.05-.16.01-.16-.02.03-.3.29-.23-.06-.44-.01-1-.43-1.04-.12-.21.25-.08.13-.29-.14-.05-.15-.23-.41-.16-.08-.52.19-.77.1-1.31.3.03.32-.14.44-.25-.03-.09-.2-.04-.32-.03.02-.15.14-.23.2-.36.3-.05.03.05.09.18.15-.24.61-.26.47-.72.26.09.45-.1.67-.21.06-.23-.25-.03-.19-.26.66-.14.97-.52,1.22-.95.9-.48,1.34-1.29,2.37-1.69.24-.43.83-.62,1.05-1.06.47.08.18-.38.58-.34.05-.12.17-.2.19-.35.67-.14.79-.66,1.22-.96.76.09.9-.59,1.54-.78.1-.03.04-.17.05-.28.21-.06.66.05.52-.26.67.26.55-.77,1.18-.53.7-.49,1.32-1.02,1.84-1.63.09.21-.04.26-.12.35.43.06.19-.36.67-.28-.14-.76,1.05-.58,1.11-1.2.22-.09.15.14.18.25.17-.03,0-.29.04-.41.32-.29,1.11-.26,1.07-.79.16,0,.22.11.33.17.12-.12.28-.22.18-.5.35.27.86-.26,1.28-.34-.02-.14-.03-.27-.04-.41.27-.09.14.26.2.39.2-.12.46-.22.5-.46.16-.06.12.12.24.11.11-.08.15-.19.11-.35.17-.06.12.11.25.1.11-.04.04-.22.29-.17-.02-.16-.17-.19-.04-.33.75.15.75-.49,1.58-.45.11-.03.05-.17.05-.27.46-.03.83-.12.88-.43.25.18.33-.13.85-.1.05-.13.17-.21.19-.36,1.16-.19,1.43-.88,2.32-.73.27-.14-.19-.08-.1-.25.39-.06.92-.02.96-.32.24-.1.2.09.33.11.57-.38,1.45-.69,2.08-.84.1-.03.05-.18.05-.27.24-.11.21.08.32.1.21.03-.09-.31.13-.29.37.15.9-.04.96-.44.59.05,1.28-.32,1.46-.17,0-.17.26-.18.26-.36.24-.08.12.22.4.09.1-.03.05-.17.04-.28.3-.01.61-.02.59-.27.66.14,1.01-.42,1.31-.14.09-.03.04-.17.05-.28.27-.1.9.06.9-.23.32.17,1.13-.08,1.19-.47.27.25,1.24.19,1.2-.4.21.03.36.12.35.37.34-.22.74-.38,1.18-.54.12.21-.24.08-.12.29.09-.18.59-.08.5-.39.62,0,1.52-.15,2.08-.16.08-.02.05-.13.05-.21.22.03.7-.22.7.06.19-.09.29-.27.46-.05.1-.04.05-.18.04-.28.16.06.37.06.41.23,1.37-.44,1.82-.47,3.2-.49.1-.06.13-.15.13-.28.42.12.67,0,1-.12.07.25.95.08.99-.11,1.06-.24,2.04-.03,2.59-.48.13-.01.46.29.46-.05.63.03,1.52-.07,2.14-.23.14.22.21-.09.48.16.16-.06.28-.14.19-.37.51-.12.97.42,1.32,0,.22.16.66.11.84-.08.59.29,1.41-.11,2.15-.24.13.35.36.04.53-.06.35.09,1.1.29,1.23-.14h0Z"/>
    <path class="cls-1" d="M169.93,77.9c-.07-.2.34.24.36.43-.37.12-.15-.38-.36-.43h0Z"/>
    <path class="cls-2" d="M169.99,84.15c.1.06.16.18.4.09-.06.31.52.61.09.81.1-.59-.44-.48-.49-.9h0Z"/>
    <path class="cls-2" d="M52.74,84.36c0,.24-.21.28-.14.57-.2.03-.31.17-.47.02-.29.25-.22.82-.33,1.22.12.35.23.71.44.97.49.09.99.23,1.59.09.65-.52,1.35-2.26.32-2.94-.26.23-.97-.06-1.41.07h0ZM55.84,86.26c.06.1.12.19.11.38-.06,0-.12,0-.17,0-.16.34-.22.79-.6.93-.06.04-.08.1-.08.18-.43.18-.93.4-1.4.41-.06.02-.03.12-.03.17-.13.06-.08-.08-.1-.16-1.06.15-1.6-.29-2.3-.52,0-.11-.08-.12-.05-.25-.14-.05-.03.14-.17.09-.13-.37-.2-.84-.36-1.18.05-.84.43-1.38.72-2.01.06,0,.11-.01.17-.02-.05-.2.14-.24.24-.39,0-.02.29-.39.32-.4.41-.23,1.11-.02,1.67-.09-.05.14.14.03.09.17.61-.02.79.45,1.32.53,0,.15.05.25.22.21.1.17.08.46.32.46.09.46.31.74.06,1.16.09.11.2.2.2.41-.14.06-.04-.13-.17-.08h0Z"/>
    <path class="cls-2" d="M54.15,84.28c1.03.68.33,2.42-.32,2.94-.6.15-1.1,0-1.59-.09-.21-.26-.32-.62-.44-.97.11-.4.03-.97.33-1.22.16.15.27,0,.47-.02-.07-.29.14-.33.14-.57.44-.14,1.15.15,1.41-.07h0Z"/>
    <path class="cls-2" d="M166.21,80.17c0,.23-.21.27-.14.57-.2.03-.31.18-.48.02-.29.24-.21.82-.32,1.22.12.35.24.71.44.97.5.09.99.23,1.6.09.64-.52,1.34-2.25.32-2.94-.26.22-.97-.07-1.42.07h0ZM169.32,82.08c.06.09.13.19.11.38-.06,0-.12,0-.17,0-.16.34-.21.78-.6.93-.05.03-.08.09-.08.17-.43.17-.93.39-1.4.42-.06.02-.03.11-.03.17-.13.06-.08-.09-.09-.17-1.06.15-1.6-.28-2.31-.52,0-.1-.08-.12-.06-.25-.14-.05-.02.14-.16.1-.14-.38-.19-.85-.36-1.19.05-.84.43-1.38.71-2.01.06,0,.11-.01.17-.01-.05-.2.15-.24.23-.4.01,0,.3-.39.32-.4.42-.22,1.12-.02,1.67-.09-.04.14.15.03.1.17.61-.02.79.44,1.32.53,0,.15.05.24.22.2.1.16.08.46.32.45.08.46.3.74.06,1.16.09.11.2.21.19.42-.14.06-.04-.14-.18-.08h0Z"/>
    <path class="cls-2" d="M167.63,80.11c1.02.67.32,2.41-.32,2.93-.6.14-1.1,0-1.6-.09-.2-.26-.32-.62-.44-.97.12-.4.04-.98.32-1.22.17.15.27,0,.47-.03-.07-.29.14-.34.14-.57.44-.14,1.16.16,1.42-.06h0Z"/>
    <path class="cls-2" d="M170.49,117.86c0,.23-.21.27-.14.57-.2.03-.3.17-.47.02-.29.24-.21.82-.32,1.22.12.35.24.71.43.97.5.09,1,.23,1.59.08.65-.52,1.35-2.25.32-2.93-.27.22-.97-.07-1.42.07h0ZM173.6,119.76c.06.09.13.19.11.38-.06,0-.12,0-.18,0-.16.34-.21.78-.59.93-.05.03-.07.1-.08.17-.43.18-.93.4-1.4.42-.06.02-.03.11-.03.17-.12.05-.08-.09-.09-.17-1.06.14-1.59-.28-2.3-.53,0-.09-.08-.12-.05-.25-.14-.05-.03.14-.17.09-.14-.38-.2-.85-.37-1.19.06-.84.43-1.38.72-2.01.05,0,.11,0,.17,0-.05-.2.14-.25.24-.4.01-.02.3-.39.32-.4.42-.23,1.11-.03,1.67-.09-.05.15.14.03.1.17.61-.02.79.45,1.31.53,0,.15.05.25.22.21.1.16.08.46.32.45.09.46.31.74.06,1.15.08.12.19.21.2.43-.14.06-.04-.14-.18-.08h0Z"/>
    <path class="cls-2" d="M171.91,117.78c1.03.68.33,2.42-.32,2.94-.6.14-1.1,0-1.6-.09-.2-.26-.31-.61-.43-.96.11-.4.03-.98.32-1.21.17.15.27,0,.47-.03-.07-.3.14-.34.14-.57.45-.14,1.15.15,1.42-.07h0Z"/>
    <path class="cls-2" d="M90.79,81.48c.08.02.13.09.24.09-.02.19.12.2.18.29.03.32-.27.33-.23.65-.05,0-.09,0-.13,0,0,.74-.62.91-.8,1.49-.11-.02-.12.04-.2.04-.15.38-.33.73-.48,1.1.23.3.93.45,1.33.33.53.33,1.33-.09,1.95-.1.04.1.11.16.21.2.1.4-.19.46-.41.65-.14.13-.44.35-.62.43,0,.05,0,.09.01.14-.36.05-.36.42-.75.45-.16-.33-.67-.32-.99-.2-.05.01-.06.13-.09.14-.02,0-.03-.06-.07-.06-.19.01-.54.27-.63.1-.09.2-.4.02-.6.13-.05.07-.03.2-.16.21,0,.63-.24,1.08-.31,1.76-.03.23-.16.55-.19.88-.01.11.04.23.02.33-.07.48-.13.8-.17,1.42-.02.73-.19,1.55-.25,2.33-.03.11.12.03.08.13.41.03.9.01,1.34.03.23,0,.39.1.57.03.31-.09.45-.46.53-.86.06,0,.06-.03.06-.07.06-.02.06.02.07.06.25-.21.65-.07,1-.12.38.32,0,.87-.14,1.18-.03.11.11.01.08.12-.2.55-.81,1.24-1.51.79-.32.13-.61-.05-1,.12.03.13.17.15.19.29-.04.04-.07.07-.1.11-.2-.08-.32-.26-.43-.45-.23.05-.64-.06-.67.17-.06-.04-.15-.05-.17-.12-.04.1-.28.02-.29.15-.16-.04-.44-.15-.55-.04-.27-.15-.65-.18-.73-.53-.03-.05-.08-.06-.14-.06,0-.58-.16-1.12.06-1.51-.02-.03-.08-.03-.07-.1.19-.56.09-1.2.14-1.78.02-.32.18-.63.25-.96.04-.18.01-.36.04-.55.06-.3.21-.58.26-.88.05-.33-.05-.7.05-1.01.01-.04.11-.09.13-.14.08-.36.04-.75.12-1.08-.51,0-.68-.25-1.08-.12-.07-.11-.41-.18-.51-.04-.2-.19-.8.16-.85-.26-.39.11-.46-.23-.69-.4-.05-.34.34-.3.34-.6.32,0,.29-.32.51-.43.05-.01.06.02.07.07.23-.23.55.01.74.03.17.02.27-.06.49-.09.07,0,.32.06.48-.02-.03.09.05.08.04.16.11-.02.21-.01.24.06.21-.15.57.05.93-.05.19-.33.17-.85.45-1.09,0-.36.29-.49.3-.85.32-.24.31-.79.61-1.04.03-.23.09-.43.28-.52.06-.4.4-.52.35-1.02.42-.33,1.31-.16,1.27.47h0Z"/>
    <path class="cls-2" d="M160.86,78.56c.1.02.14.1.26.1-.03.22.13.23.21.32.03.35-.3.37-.26.73h-.15c0,.82-.69,1.01-.89,1.65-.11-.02-.13.05-.22.05-.17.41-.37.81-.53,1.22.26.35,1.02.5,1.46.38.59.36,1.48-.11,2.16-.11.04.1.13.17.23.21.11.44-.2.51-.45.73-.15.14-.48.38-.68.47,0,.05,0,.1,0,.15-.39.06-.4.47-.83.49-.17-.36-.73-.34-1.09-.2-.05.03-.06.14-.1.16-.03,0-.04-.08-.08-.08-.21.02-.6.3-.7.11-.11.22-.45.01-.66.15-.06.08-.04.23-.18.23,0,.71-.26,1.21-.35,1.96-.02.26-.17.62-.21.99-.01.11.03.25.02.37-.07.53-.15.89-.18,1.58-.04.82-.21,1.72-.28,2.58-.04.12.12.03.08.15.46.05,1.01.01,1.5.04.24.01.43.11.63.04.35-.11.5-.51.58-.96.07,0,.08-.03.07-.08.06-.01.07.03.08.08.28-.23.71-.08,1.11-.14.43.35,0,.96-.16,1.31-.03.13.12.02.08.14-.22.62-.9,1.37-1.67.87-.36.14-.68-.05-1.11.13.04.14.18.17.2.33-.03.04-.07.08-.1.12-.23-.08-.36-.29-.47-.49-.26.05-.71-.08-.74.18-.08-.03-.18-.04-.19-.14-.05.12-.32.02-.33.17-.18-.05-.48-.17-.6-.05-.3-.16-.71-.19-.82-.59-.02-.05-.08-.07-.15-.06-.01-.64-.18-1.24.06-1.68-.03-.04-.09-.03-.08-.11.21-.63.11-1.33.16-1.98.03-.36.2-.69.28-1.06.04-.2,0-.41.05-.6.06-.34.23-.67.28-.98.06-.37-.05-.77.06-1.12,0-.04.13-.11.14-.16.09-.39.03-.83.13-1.19-.55-.01-.76-.27-1.2-.13-.08-.12-.45-.21-.56-.05-.21-.21-.89.17-.95-.29-.44.12-.52-.26-.77-.44-.06-.38.37-.33.38-.65.36,0,.32-.36.56-.48.07-.02.08.03.09.08.25-.25.6,0,.82.03.19.02.3-.07.55-.11.08,0,.36.07.53-.03-.03.11.06.09.05.19.12-.01.23-.02.26.05.23-.15.63.05,1.04-.05.21-.37.19-.94.49-1.21.02-.41.33-.54.33-.95.36-.26.34-.87.69-1.15.03-.26.11-.47.31-.57.06-.44.45-.59.39-1.14.46-.37,1.46-.18,1.41.53h0Z"/>
    <path class="cls-3" d="M59.71,86.79c.11,0,.17.05.3.02,0,.07.05.07.04.13-.07,0-.1.02-.09.08-.09-.04-.16-.08-.31-.05-.03-.11.11-.05.06-.18h0Z"/>
    <path class="cls-3" d="M119.92,84.13c.09,0,.1.11.18.12.05.13-.09.07-.06.17-.1-.04-.13-.14-.12-.3h0Z"/>
    <path class="cls-3" d="M63.15,88.43c.12-.05.1.2-.02.14-.01-.06.03-.07.02-.14h0Z"/>
    <path class="cls-3" d="M122.83,86.47c.13.05.14.35.02.41,0-.14-.01-.27-.02-.41h0Z"/>
    <path class="cls-3" d="M140.24,86.06c.11.02.15.13.21.22-.04,0-.09,0-.14,0,.02-.13-.12-.08-.07-.23h0Z"/>
    <path class="cls-3" d="M102.24,88.76c.08.02.15.05.15.16-.05,0-.09,0-.14,0,0-.06,0-.11,0-.17h0Z"/>
    <path class="cls-3" d="M102.23,89.67c.1-.06.11.21.01.17,0-.06,0-.11-.01-.17h0Z"/>
    <path class="cls-3" d="M67.01,91.62c.06.03.03.24-.05.24-.05-.14.04-.15.05-.24h0Z"/>
    <path class="cls-3" d="M98.99,90.17c.1-.06.12.21,0,.17,0-.06,0-.12,0-.17h0Z"/>
    <path class="cls-3" d="M98.94,90.4c.17.04-.01.24-.02.31-.12.04-.06-.11-.08-.16.11.03.11-.06.1-.15h0Z"/>
    <path class="cls-3" d="M99.3,90.46c.05,0,.09,0,.14,0,0,.04.01.06.04.07-.01.06-.24.07-.18-.06h0Z"/>
    <path class="cls-3" d="M99.08,90.54s.08,0,.14-.01c.03.14-.03.21-.13.24,0-.08,0-.15-.01-.23h0Z"/>
    <path class="cls-3" d="M75.47,92.78c0,.09,0,.18,0,.27-.1.04-.12-.3,0-.27h0Z"/>
    <path class="cls-3" d="M151.71,88.97c.11-.05.03.11.14.07-.05.09-.08.21-.12.3-.09-.08.04-.22-.02-.38h0Z"/>
    <path class="cls-3" d="M121.44,94.2s0,.06,0,.1c-.06,0-.16.04-.14-.06.06,0,.07-.05.13-.05h0Z"/>
    <path class="cls-3" d="M88.97,96.09s.09,0,.14-.01c0,.06,0,.12,0,.17-.08-.02-.15-.05-.15-.16h0Z"/>
    <path class="cls-3" d="M115.67,94.97c.11-.04.06.1.08.17-.07,0-.13,0-.2,0-.04-.1.07-.06.13-.07,0-.03,0-.07,0-.1h0Z"/>
    <path class="cls-3" d="M108.06,96c.07.01.12.05.14.12-.04,0-.09,0-.14.01,0-.05,0-.09,0-.14h0Z"/>
    <path class="cls-3" d="M118.69,99.42c.12-.04.05.13.07.19-.12.04-.05-.13-.07-.19h0Z"/>
    <path class="cls-3" d="M108.69,102.38c.05,0,.11,0,.16,0,.03.09-.2.18-.16,0h0Z"/>
    <path class="cls-2" d="M80.99,126.21c.17-.06.19.07.31.05-.05-.15-.14-.25-.34-.22-.03.1.05.09.04.17h0ZM79.38,125.65c-.09-.35-.28-.58-.41-.88-.04,0-.07,0-.1,0,.08.39.28.65.51.88h0ZM81.8,115.01c.02.24-.12.36.03.54.13.05,0-.15.12-.11-.02.16.11.14.18.2,0,.44.25.64.39.95.19,0,.41-.05.51.04,0-.03,0-.07.03-.07.63.31,1.15-.29,1.7-.25,0-.17.24-.13.32-.21.02.07.14.03.18.09.09.28.25.47.59.47,0,.19.14.23.22.33-.09.02-.03.17-.09.21-.13.06-.07-.09-.17-.06.02.18-.14.14-.23.09-.06.27-.11.55-.16.84-.26.04-.46.01-.58-.11-.06.14-.06,0-.2.01-.33.19-.94.14-1.22.36-.05,0-.03-.08-.1-.06-.2.24-.53.35-.6.7-.15.14-.35.24-.38.49-.44.36-.71.88-1.08,1.3.02.11-.05.12-.02.23-.04,0-.09,0-.13,0-.23.54-.68.89-.55,1.75-.12.55.33,1.07.26,1.81.43.5,1,.84,1.92.81-.03.11.11.02.07.13.49-.07,1.03.05,1.34-.14.3.21.73-.26.97-.12.46-.25,1.09-.35,1.37-.78.1-.73.15-1.56.18-2.4-.16-.38-.06-.71-.05-.93-.11.01-.13-.4-.02-.41-.23-1.06-.13-2.25-.24-3.45.13-.21-.2-.66.02-.94,0-.3.03-.55.1-.78-.07-.24-.27-.41-.48-.21.02-.09,0-.21.16-.18.13-.36.02-.91.17-1.25-.04-.2-.02-.68-.11-1-.14.08-.16-.23-.02-.17-.02-.15-.01-.29.05-.36-.17-.16.02-.31.04-.48-.14-.16-.07-.55-.11-.83-.06,0-.13.02-.14-.03.14-.26.02-.74.19-.97-.02-.31-.08-.56-.36-.56,0-.05,0-.09,0-.14-.19.04-.18-.1-.3.02.04-.2-.13-.17-.16-.29-.46.07-.8-.31-1.17-.11,0-.02,0-.04,0-.06-.09.08-.21.09-.31.02-.05.3-.77,0-.71.4-.11-.1-.18.05-.34-.05-.1.08-.23.14-.29.25-.08-.2-.3.08-.36.08-.08,0-.07-.11-.06.07-.06,0-.13,0-.2.01.02.09,0,.12-.1.11-.1.38-.39.59-.41,1.03-.11-.03-.02.12-.13.08-.03.39-.05.79-.18,1.09.14.17.14.7-.02.8.08.09.08.17.02.27.08.06.17.14.14.33.13.04,0-.15.09-.14,0,.06.05.06.07.1-.07.37-.18,1.45.38,1.66h0ZM87.95,106.4c.18.05.3.17.48.21.06.15.06.35.19.43-.01.08-.16.02-.23.05-.13.72-.16.82-.23,1.52-.1-.02-.08.05-.17.05-.03.14.11.43-.04.47.22.15-.13.52.1.67-.18.18.08.66-.03.74.06.03.08.12.14.16.06,1.1-.13,2.78-.04,3.9-.2.71.16,1.66-.12,2.28.19.59.12,1.47.04,2.02.04.63.12,1.29.1,1.91-.02.44.06.89,0,1.31-.12.83.03,1.66-.04,2.49-.19.22,0,.78-.32.88.03.13-.05.17-.02.31-.36.01-.49.22-.72.34-.17-.05-.23-.09-.44-.05-.04.01-.02.08-.02.14-.03-.14-.24.07-.3.18-.02.02.03.11,0,.13-.15.17-.78.33-.91.58-.19-.02-.31.04-.39.12-.05-.15-.28.01-.3.08-.05-.11-.33.04-.32-.15-.23.14-.61-.11-.77.04-.16-.18-.77.11-.94-.09-.18.17-.49.02-.61-.1-.47.05-1.23-.15-1.52-.09-.1-.05-.21-.09-.37-.08,0-.21-.24-.15-.38-.22-.13-.29-.56-.27-.67-.6-.19,0-.33-.42-.5-.61-.14-.16-.35-.62-.41-.98-.04-.2.03-.35.04-.45.04-.66.09-1.26.39-1.7,0-.09-.01-.2-.02-.3.17-.28.26-.64.32-1.03.33-.42.69-.81.73-1.51.19.05.08-.16.26-.11-.02-.49.43-.55.46-1,.26-.13.51-.45.46-.73-.04-.23-.35-.23-.32-.49-.09-.09-.25-.1-.25-.29-.04-.05-.15-.03-.21-.06-.06-.12.14-.03.13-.11-.06-.08-.16-.11-.25-.15-.04-.11.05-.08.06-.14-.12-.15-.11-.45-.23-.59.07-.73-.39-.89-.41-1.53.03,0,.07,0,.11,0-.03-.32-.16-.53-.21-.83-.02-.07.04-.07.09-.07-.16-.65.17-.95.05-1.65.12,0,.02-.2.16-.18,0-.15-.01-.29-.02-.43.27-.23.3-.67.63-.84,0-.17.02-.3.18-.32.08-.02-.02-.2.13-.14-.03-.28.1-.4.27-.49,0-.4.29-.53.36-.86.29-.03.32-.28.42-.49.3-.19.62-.37.91-.58.09.05.46-.04.52-.2.4-.05.53-.09.93-.21.5.15,1-.01,1.56.15,0,.41.56.19.69.44.06-.03.08-.12.13-.17.12-.03.02.17.17.1.11-.05-.09,0-.03-.1.1.02.12-.03.17-.08.11,0,.04.19.17.16.07-.1.14-.22.11-.4.25.06.16-.18.36-.15-.05-.17.07-.17.09-.28.19.03.39.03.43-.15.09.08.21.07.23-.08h0Z"/>
    <path class="cls-3" d="M88.23,108.71c.1-.06.11.21,0,.17,0-.06,0-.11,0-.17h0Z"/>
    <path class="cls-3" d="M131.38,107.52s.09,0,.13,0c0,.06,0,.12,0,.17-.08,0-.1-.09-.14-.16h0Z"/>
    <path class="cls-3" d="M143.12,107.09s.07,0,.1,0c0,.1.02.21-.09.21,0-.07,0-.14-.01-.21h0Z"/>
    <path class="cls-3" d="M85.62,112.26c.1.05.14.15.15.3-.14,0-.16-.13-.15-.3h0Z"/>
    <path class="cls-3" d="M102.47,112.42c.02.23-.02.41-.14.51,0-.21-.1-.52.14-.51h0Z"/>
    <path class="cls-3" d="M79.41,114.89c.12-.04.06.14.08.2-.12.03-.06-.13-.08-.2h0Z"/>
    <path class="cls-3" d="M85.47,115.7c.03-.11.11.29-.06.2-.01-.09.11-.08.06-.2h0Z"/>
    <path class="cls-3" d="M141.98,113.1c.2.17-.1.41,0,.71-.2-.17-.02-.53,0-.71h0Z"/>
    <path class="cls-3" d="M60.95,119.86c.1-.06.11.21,0,.17,0-.06,0-.11,0-.17h0Z"/>
    <path class="cls-3" d="M105.3,116.67c.08.01.13.06.14.13-.1-.02-.12.04-.19.04-.06-.12.09-.07.05-.17h0Z"/>
    <path class="cls-3" d="M105.08,116.75c.12,0,.13.17,0,.17,0-.05,0-.11,0-.17h0Z"/>
    <path class="cls-3" d="M105.01,116.85c-.01.19-.28.14-.47.16.12-.13.23-.19.47-.16h0Z"/>
    <path class="cls-3" d="M110.74,117.11c.04.09-.07.06-.13.07,0-.04,0-.09,0-.13.11-.05.03.11.14.06h0Z"/>
    <path class="cls-3" d="M110.57,117.89c.05,0,.09,0,.14,0,0,.05,0,.09,0,.13-.11.04-.16,0-.14-.12h0Z"/>
    <path class="cls-3" d="M130.82,118.27c.11-.01.15.05.18.12-.06.01-.11,0-.17,0,0-.04,0-.09,0-.13h0Z"/>
    <path class="cls-3" d="M131.06,118.39c.14-.02.21.02.24.11-.13.02-.2-.03-.24-.11h0Z"/>
    <path class="cls-3" d="M78.87,124.77s.06,0,.1,0c.14.3.33.53.41.88-.23-.23-.44-.49-.51-.88h0Z"/>
    <path class="cls-3" d="M80.95,126.04c.2-.02.3.07.34.22-.12,0-.14-.1-.31-.05.02-.08-.06-.06-.04-.17h0Z"/>
    <path class="cls-3" d="M147.87,125.62c.12-.03.05.14.08.2-.12.04-.06-.13-.08-.2h0Z"/>
    <path class="cls-3" d="M146.84,126.68c.11-.05.04.11.14.06.06.18-.06.21-.05.37-.13-.02-.15-.17-.34-.12-.03-.09.04-.08.02-.17.13,0,.3.03.23-.14h0Z"/>
    <path class="cls-2" d="M63.01,96.27c.05,0,.17.02.13-.08-.14.01-.13-.14-.18-.23.01.1-.11.08-.06.2.08-.02.12.01.1.1h0ZM66.96,91.87c.08,0,.11-.21.05-.24-.01.09-.1.11-.05.24h0ZM67.09,91.25c-.18.03.02.22-.15.25.06-.02.07.04.1.06.05-.11.04-.26.12-.34-.16-.14.09-.46-.1-.67.04.26-.21.54.03.7h0ZM63.13,88.57c.13.06.14-.18.03-.14.01.07-.04.08-.03.14h0ZM59.65,86.97c.15-.04.22,0,.31.05-.01-.06.02-.08.09-.08,0-.06-.03-.06-.04-.13-.14.03-.19-.01-.3-.02.06.13-.09.08-.06.18h0ZM64.66,86.41c0-.09-.08-.09-.14-.09.17.07-.13.18.01.33-.27.08-.23.46-.54.5,0,.05,0,.09.01.14-.08.02-.05-.06-.11-.06,0,.14.01.26-.07.47-.09-.21-.18.03-.23.11,0,.1.12.06.08.2-.16-.14-.08.08-.09.24-.15.02-.17.21-.3.16-.01.09.02.12.11.09,0,.11-.08.14-.09.24-.12.05-.03-.12-.1-.11-.08.09.11.16.05.33-.14.07-.16.26-.25.38-.14.05-.1-.1-.18-.12-.08.07.14.12.08.3-.07-.03-.09-.11-.14-.16-.1.08.12.13.05.3-.12.01-.18.09-.16.25-.04,0-.09,0-.14,0,0,.27-.18.37-.27.55.04.35-.06.57-.23.72-.13.06-.02-.15-.11-.13-.18.35-.15.89-.34,1.23.07.2.1.35.03.47.19.24.18.69.34.96.01.09-.07.09-.09.14-.09-.07-.13-.18-.22-.23-.04.39.26.7.48.92.01.17.06.31.25.29,0,.27.38.13.43.34.44.03.83-.03,1.17-.18.26.19.35-.16.63-.14.05-.02.03-.08.03-.13.28.09.37-.31.53-.13.26-.39.53-.77.71-1.25.3-.03.22-.4.45-.49.11-.42.02-.84.04-1.31.13.03,0-.16.13-.11.02-1.31.11-2.59.2-3.91,0-.07-.06-.05-.07-.09-.39-.93.52-.73,1.2-.8.04.06.13.06.14.15.1,0,.2,0,.3-.01.09.18-.16.31.02.36-.12.06-.03.17.01.23-.06.23-.25.59-.13.79-.06,0-.07.04-.13.04.01.22.02.44.03.67-.11.05-.04-.11-.14-.06-.04.13.1.06.07.16-.14.49.11,1.11.15,1.64-.02.09.16-.03.14.06-.04.22.07.6.21.82.06,0,.06-.03.07-.07.04.51.13.85.4,1.29-.08.19.11.6.33.68.07.48.52.55.59,1.02.15.01.12.21.31.19,0,.5.59.35.87.56.1-.02.17-.06.19-.15.12.12.21-.06.4-.05.12-.11.05-.3.11-.44.03-.07.15-.1.19-.18.02-.06,0-.18.02-.24.04-.07.18-.11.2-.17.02-.06-.04-.14,0-.2.03-.09.17-.18.22-.29.28-.64.11-1.61.35-2.4-.16-.04.03.22-.13.18.09-.52.19-1.37.04-1.89.13-.23-.21-.87-.05-.94-.13-.24-.2-.56-.47-.65,0-.47-.16-.78-.36-1.06-.08,0,.05.19-.09.14.01-.22-.03-.37-.13-.46-.29.17-.68.24-.71.64-.25,0-.19.28-.35.35-.3,0-.47-.28-.52-.37.08-.18.09-.45.35-.49-.03-.14.05-.17.02-.3.35-.15.29-.67.7-.74.04-.02.02-.09.02-.14.13.03.14-.05.2-.11.27.11.36-.14.6-.16.34-.45.91-.57,1.62-.45,0,.09.05.15.17.12,0,.15.1.23.25.23.14.3.42.45.45.87.29.14.24.69.19,1.04-.16-.01-.06.24-.22.24.08.6.05,1.15.15,1.67.02.07-.06.05-.06.1.14.18.07.61.11.9-.28.32-.2,1.31-.12,1.75-.17.38.11,1.15-.23,1.39-.02.19.09.49-.08.55,0,.1.01.2.02.3-.16.36-.15.64-.35.96-.11.18-.33.23-.28.55-.04,0-.09,0-.13,0,.02.37-.37.37-.44.66-.28.08-.5.2-.62.41-.33-.23-.72.27-1.03.05-.16.11-.38.09-.47-.04-.23.21-.44-.11-.71.04-.04-.13-.07-.07-.16-.03-.06-.11-.16-.18-.31-.18-.17-.46-.65-.59-.92-.93-.01-.05-.09-.02-.14-.03-.03-.17-.08-.31-.25-.33-.03-.46-.37-.58-.39-1.05-.11-.03-.02.11-.14.08,0-.42-.29-.85-.22-1.13-.11-.04-.02.11-.13.07-.03.11.12.03.08.17-.16.53-.42.97-.57,1.51-.04,0-.08,0-.13,0,0,.16-.05.25-.22.25,0,.06,0,.13,0,.2-.22.08-.35.23-.37.49-.15.01-.24.08-.22.24-.19.08-.43.11-.45.32-.13.03-.31,0-.26.19-.25.11-.47.05-.62.27-.05.02-.07-.02-.08-.07-.05.08-.14.1-.16.21-.14-.12-.23.07-.36.12.05-.16-.22.15-.24-.06-.11.14-.45.07-.53.23-.04-.01-.03-.09-.04-.13-.09.11-.35.05-.43.15-.02-.11-.19-.05-.24-.12-.35.2-.65-.13-.96-.18-.01-.02.01-.09,0-.1-.23-.23-.65-.22-.67-.67-.01-.05-.08-.02-.13-.02-.01-.19-.2-.16-.18-.37-.1-.08-.21-.15-.19-.36-.43-.33-.39-1.1-.35-1.73.02-.2,0-.43.03-.64.02-.13.17-.26.18-.38.05-.3-.06-.52,0-.77.02-.07.11-.1.13-.17.04-.19,0-.43.07-.64.02-.06.11-.08.12-.14.04-.12-.04-.28.09-.31,0-.1,0-.2-.02-.3.06,0,.07-.05.14-.04,0-.12-.01-.24-.02-.36.11.02.03-.14.16-.11.02-.57.32-.9.47-1.34.04,0,.09,0,.14,0,.04-.13.02-.32.22-.31-.03-.15.05-.21.01-.38-.04-.06-.19,0-.2-.09-.06.08-.45.16-.51.02-.09.17-.2-.06-.29.08-.01-.05-.03-.11-.08-.13-.41.01-1.16.41-1.67.21,0-.17-.05-.29-.15-.36.1-.48.14-1.09.09-1.62.17-.02.25-.12.29-.25.1-.03.07.07.08.13.11-.1.09.03.23-.08.29.35,1.15.47,1.49.32.76.44,1.97-.2,2.77.17.03-.02.03-.09.1-.08.08.1.3.17.4.05.08.07.15.16.31.15.12.21.08.44-.11.55-.02-.11.05-.15.13-.17h0Z"/>
    <path class="cls-2" d="M150.75,94.63c-.02-.07-.06-.12-.17-.1,0,.08.19.11.17.1h0ZM151.72,89.34c.04-.09.07-.21.12-.3-.11.04-.03-.12-.14-.07.06.15-.08.29.02.37h0ZM152.29,87.33c.2.27.31.76.37,1.29-.36-.02-.33.59-.27.75-.13-.04,0,.15-.13.11-.04.11.1.02.08.14-.15,0,0,.26-.16.24,0,.29-.08.47-.2.65,0,.08,0,.16.01.24-.33.41-.36,1.08-.84,1.35.05.18-.1.18-.04.38-.1,0-.07.11-.17.1.03.29-.13.41-.06.75.12.09.26.15.35.26.29-.12,1.04-.21,1.34-.08.09,0-.05-.21.09-.17,0,.11,0,.21.01.31.09-.03.26.12.34.01.11.15.27.27.46.35-.08.16-.05.43-.18.54-.11.03-.06-.12-.14-.12,0,.04.12.34,0,.44-.06,0-.17.04-.14-.06-.04.08-.04.18-.09.24-.11-.03-.19-.11-.15-.23-.03.02-.03.09-.1.07.15.06-.05.12.01.31-.09.01-.15.04-.19.11-.11.02-.17-.01-.21-.06,0,.11-.22.02-.19.15-.7-.25-.97-.22-1.79-.21,0-.06,0-.11,0-.17-.14,0-.09.18-.16.24-.11.03-.17,0-.2-.06-.37.2-.6-.26-1.09-.08-.4.24-.74-.18-.76-.63-.01-.14.17-.3-.03-.4,0-.23.09-.39.28-.45.06-.22.12-.43.3-.55,0-.07,0-.14-.01-.2.28-.17.24-.63.5-.83,0-.36.28-.47.4-.73-.1-.8.46-1.02.41-1.77.13.05,0-.15.13-.11-.06-.44.24-.8.3-1.26.08-.54,0-1.25.01-1.78,0-.08.05-.05.06-.1.03-.18-.11-.32-.16-.47-.03-.09-.01-.2-.05-.3-.08-.2-.33-.32-.26-.55-.17-.21-.29-.49-.48-.68-.23,0-.39-.05-.48-.21-.18.08-.45-.06-.57-.08-.03,0-.02.07-.02.07-.08,0-.16-.12-.25-.13-.45-.07-.89.12-1.19.37-.09,0-.1-.11-.24-.06-.04.02-.03.09-.03.14-.13.02-.32-.01-.33.11-.17-.14-.36.08-.46.19-.31-.11-.23.21-.45.26-.06.03-.07.11-.06.2-.19.03-.29.14-.28.35-.04,0-.09,0-.13,0,0,.22-.15.32-.07.61-.11-.04-.02.11-.13.07.07.77.07,1,.15,1.51-.01.58.07,1.28.22,1.83-.08.09-.07.29.02.38-.12.56-.05,1.07.01,1.54-.14.74.06,1.45-.13,2.19.14.2-.03.77.29.93.02.33.03.65.05.97-.14.08-.23.19-.4.26-.24-.09-.51-.29-.85-.17-.15-.1-.31-.19-.54-.2-.02-.06.03-.06.06-.07-.19-.29.11-.96-.13-1.31.08-.35.06-1.11-.08-1.44.09-.38.05-1.36-.16-1.83-.03-.99-.24-2.28-.41-3.48.12-.77-.38-1.83-.14-2.64,0-.03-.05-.02-.07-.03.09-.03.06-.15.06-.27.11.05.02-.1.13-.07-.04-.43.14-.66.29-.92.39-.08.79-.06,1.31-.07-.01.26.29.18.26.46.43.03.51-.26.79-.38.04-.01.02-.09.02-.14.47-.14.74-.47,1.28-.53,0,.02,0,.05,0,.06.24-.1.76-.14,1.17-.12.33.01.82.05.86.19.13.04.06-.09.17-.08-.06.16.11.08.11.2.11.04.02-.11.12-.08,0,.09.09.08.11.13.11.04.02-.11.13-.08.03.12.2.06.31.09,0,.05,0,.09,0,.14.22-.09.48.29.78.33.04.17-.15.12-.12.28.1-.03.12-.15.29-.11.11.26.25.47.5.57.06.13-.09.07-.06.18.03.1.07-.03.13,0,.06.14-.04.15-.05.24.03.1.08-.06.16,0-.03.11.05.1.14.09.08.3.2.58.41.75,0,.44.25.59.28.99-.11.05-.03-.11-.13-.06.08.08.09.21.01.3.06.01.06-.03.07-.07.13.01-.08.18.08.26-.16.02.16.35-.05.44h0Z"/>
    <path class="cls-2" d="M135.45,94.53s-.07.02-.06.08c.08,0,.09.1.24.06.02-.12-.06-.14-.05-.24-.3.06-.33-.18-.49-.27,0,.1.04.15.05.23.18-.03.19.13.31.15h0ZM140.31,86.29s.09,0,.13,0c-.06-.1-.1-.21-.21-.23-.05.15.09.1.07.23h0ZM139.81,85.61c0-.15-.24-.02-.18-.22h-.13c.06.12.17.19.31.22h0ZM134.48,87.94c-.3.39-.16,1.04-.22,1.58-.03.27-.08.57-.1.81,0-.01.08.03.08.1-.04.39-.04.92,0,1.34.26.17.35.5.64.64.05.2.22.27.26.5.23.06.31.32.43.51.56.24,1.15.45,1.94.44-.01-.09.07-.09.09-.14.14.12.36-.2.66-.14,0-.08.07-.08.1-.14.42-.11.66-.39,1.19-.39.41-.56.52-1.38.59-2.25.14-.67.2-1.41.11-2.28-.14-.23-.2-.54-.21-.91-.1.03-.07-.11-.14-.12.04-.29-.13-.36-.1-.63-.33-.38-.56-.85-1.06-1.02-.05,0-.02.08-.1.07,0-.06,0-.11,0-.17-.22-.06-.41-.14-.55-.28-.35.05-.61-.01-.85-.09-.1.17-.35.15-.53.09-.16.15-.37.26-.62.34-.02.08.16.11.07.16-.04,0-.09,0-.13,0-.01-.06.03-.2-.08-.17-.04.29-.22.44-.52.5.04.12-.04.13-.02.23-.23-.03-.08.27-.28.25-.03.53-.5.67-.62,1.11-.03-.02-.11-.14-.1,0,.03,0,.07,0,.07.04h0ZM135.89,85.21c0,.05-.02.17.07.13.06-.03.02-.15.1-.17-.09,0-.08.07-.17.05h0ZM141.59,90.19c.05.28-.07.4-.1.61.22.58-.18,1.11-.25,1.63-.16,0-.15.17-.15.3-.27.17-.28.57-.39.89-.22.07-.2.35-.35.49-.11.04-.08-.05-.14-.06-.06.03-.07.11-.06.21-.15.08-.34.13-.35.35-.39.25-.89.41-1.21.73-.1.04-.35-.06-.29.12-.06.01-.07-.02-.08-.07-.04.01-.02.09-.02.14-.12-.1-.15,0-.23.08-.07.03-.05-.06-.1-.06-.28.37-.9-.06-1.17.23-.12-.21-.46.07-.58-.14-.07.09-.24.07-.36.12-.06-.12-.22-.11-.3-.02,0-.11-.17-.03-.12-.19-.12.13-.15-.03-.37.02-.07-.37-.42-.43-.51-.79-.1-.01-.09.05-.17.04.09-.03.02-.29-.14-.26,0-.08,0-.16-.01-.23-.08-.02.03.14-.1.09-.06-.29-.21-.52-.47-.61-.2-.44-.44-.83-.63-1.28-.11-.03-.02.11-.13.08-.03-.11.11-.05.06-.18,0-.04-.06-.03-.1-.03-.09-.54-.36-.9-.38-1.52-.06-.02-.06-.11-.14-.09.05-.39.03-.78,0-1.14.11-.29.03-.58.13-.82.01-.04.11-.05.12-.07.1-.17.04-.4.07-.61.25-.34.27-.88.61-1.14.05-.44.4-.62.42-1.09.16-.06.25-.19.28-.38.2-.05.26-.24.31-.42.39-.17.63-.47.91-.76.28-.03.42-.18.58-.32.82-.08,1.9-.4,2.49.01.18-.04.26.04.44,0,.03.19.2.22.42.21.29.32.69.53,1.11.71,0,.17.07.25.24.23-.05.16.18.17.25.26.04.05.04.24.12.36.05.08.18.13.21.2.04.06.02.18.05.27.04.1.18.18.22.25.07.17,0,.42.19.53.01.12-.02.3.08.32.05.11-.11.04-.06.14.34.74.22,1.85.23,2.68-.03.12-.02-.09-.1-.03h0Z"/>
    <path class="cls-3" d="M99.02,86.07s0-.07,0-.1c.08,0,.1.1.14.16-.11.05-.04-.11-.14-.06h0Z"/>
    <path class="cls-2" d="M136.06,85.16c-.08.02-.04.14-.1.17-.1.04-.06-.08-.07-.13.1.02.08-.05.17-.05h0Z"/>
    <path class="cls-3" d="M139.5,85.39h.13c-.06.2.19.07.18.22-.14-.03-.25-.1-.31-.22h0Z"/>
    <path class="cls-3" d="M67.06,90.55c.19.21-.06.52.1.66-.08.08-.07.24-.12.34-.03-.02-.04-.07-.1-.06.18-.03-.03-.21.15-.25-.25-.16,0-.44-.03-.7h0Z"/>
    <path class="cls-3" d="M99.99,90.05c.17.05.02.3-.02.37-.17-.05.12-.17.02-.37h0Z"/>
    <path class="cls-3" d="M98.61,90.8c-.09.03-.04-.12-.17-.06-.03-.16.18-.12.19-.25.11.01.07.18.14.23-.07-.04-.21-.13-.17.08h0Z"/>
    <path class="cls-3" d="M62.91,96.16c-.05-.12.07-.1.06-.2.05.09.04.23.18.23.04.09-.08.07-.14.08.02-.09-.02-.12-.1-.1h0Z"/>
    <path class="cls-3" d="M100.57,94.26c-.03.07-.13.08-.13.17-.04,0-.03-.08-.04-.13.1.03.09-.05.16-.04h0Z"/>
    <path class="cls-2" d="M114.69,95.11c-.05.02-.17-.02-.13.08.06,0,.14,0,.2-.01-.02-.06.04-.21-.07-.16,0,.03,0,.06,0,.09h0ZM120.33,94.3c-.03.1.07.05.13.06,0-.03,0-.07,0-.1-.06-.01-.07.04-.13.04h0ZM121.86,86.93c.13-.06.11-.36-.02-.41,0,.13,0,.27.02.41h0ZM119.05,84.48c-.03-.11.11-.05.06-.17-.08-.02-.08-.12-.17-.12-.01.15.02.25.12.29h0ZM122.11,85.77c.06-.1.25.21.41.01.06.09.14.18.18.29-.03,0-.07,0-.1,0,.17.5-.21,1.26-.69.97-.08.12-.14.26-.18.41-.3.1-.23-.23-.51-.15.03-.18-.1-.18-.11-.32-.22-.2-.62-.19-.73-.5-.19.04-.18-.15-.38-.11-.1-.32-.56-.25-.67-.58-.34-.09-.62-.27-.99-.35.04-.19-.18-.11-.22-.22-.66.47-1.33.93-1.84,1.53.17,1.18.04,2.67.37,3.81.04.1-.05.08-.06.14.23.99.22,2.25.47,3.23.37-.03.63-.15.97-.05.42-.08.83-.09,1.2-.06.02-.12.28-.02.3-.15.19.15.52-.08.74.03.22-.17.57-.18.79-.35.05-.02.06.02.07.06.38-.28.54.22.79.3.05.28-.03.44-.04.67-.13.06-.07-.09-.17-.05.04.06.1.14.08.29.03-.02.03-.08.09-.07.02.18-.09.11.01.23-.11.18-.22.36-.45.43.02-.2-.25-.07-.24-.25-.28-.03-.49.15-.57-.04-.02.14-.16.04-.23.18-.27-.08-.7-.13-.91.04-.31-.12-.44,0-.66.17.02-.11-.04-.12-.04-.2-.11,0-.08.14-.2.14,0-.04,0-.09,0-.12-.16.2-.31.03-.49.22-.08-.11-.35,0-.41-.12-.09-.02.03.16-.06.14-.13.06-.11-.07-.2-.06-.12.03-.13.15-.23.18.23,1.14.35,2.51.57,3.84.03.11-.12.06-.13.14-.01.14.03.21.15.2.05.11-.11.03-.06.14.26.71.2,2.69.25,3.48-.28-.03-.86-.13-1.27.07-.18-.02-.35-.21-.47-.08,0-.13-.02-.23-.18-.19-.02-.61-.03-1.24-.18-1.71.08.02-.03-.15.1-.11-.09-.84.13-1.78-.2-2.45.16-.94-.16-2.15-.15-3.04-.43-.18-.81.15-1.51.04-.07,0-.09-.08-.14-.08-.16-.05-.32.03-.38-.13-.03.03-.03.08-.1.08-.01-.08-.11-.09-.07-.23-.06-.02-.06.03-.07.07-.07-.09-.06-.26-.18-.29.15-.35.24-.81.07-1.18.28-.03.35-.26.69-.23.04.37.76.23.82.33.14-.07.54-.16.57-.13.2-.82-.15-1.75-.1-2.72.04-.87-.04-1.74-.2-2.54.03-.74-.03-1.75-.14-2.78.09-.32.27-.56.15-.99.38-.16.42-.62,1.01-.59.08.16.24.23.42.29.11-.05.34-.23.39-.12.04-.2.43-.09.42-.33.66-.15,1.48-.71,2.14-.27.11.03.02-.11.13-.08.46.44,1.37.37,1.56,1.09.14.05,0-.15.13-.11.07.23.25.37.46.45.1,0-.06-.25.09-.21.14-.01.05.23.09.33.08.09.36.1.25.29h0Z"/>
    <path class="cls-3" d="M89.19,96.31c0-.09-.02-.19.02-.24.27.02.51.08.62.27-.16.08-.41,0-.64-.03h0Z"/>
    <path class="cls-3" d="M134.65,94.41c-.02-.08-.06-.12-.05-.23.17.09.2.33.49.28-.02.11.06.12.05.23-.14.05-.15-.05-.24-.05-.01-.06.03-.07.07-.08-.13-.03-.13-.18-.31-.15h0Z"/>
    <path class="cls-3" d="M150.58,94.54c.11-.03.15.03.17.1.02.02-.18-.02-.17-.1h0Z"/>
    <path class="cls-2" d="M104.55,117.02c.19-.02.46.03.47-.16-.23-.03-.34.03-.47.16h0ZM105.08,116.92c.12,0,.11-.18,0-.17,0,.06,0,.11,0,.17h0ZM105.25,116.84c.08,0,.09-.06.19-.04-.01-.07-.06-.12-.14-.13.04.1-.11.05-.05.17h0ZM101.37,101.35c-.05,0-.11,0-.17,0-.04.18.19.09.17,0h0ZM100.34,110.27c.13-.06.02.15.11.13-.05-.46,0-.8-.1-1.31.11-.09,0-.38.11-.48-.19-.33.15-1.23-.22-1.53.11-.05-.01-.31.12-.34-.08-.55,0-1.31-.23-1.84.03-.43.01-.96-.07-1.31.11.04.02-.11.13-.07,0-.09-.07-.09-.14-.09-.12-.7-.21-1.16-.09-1.74-.01-.11-.08-.15-.11-.23,0-.05.06-.04.1-.04-.09-.24-.14-.51-.21-.76.19-.03.33-.09.47-.16.37.52,1.43.26,1.85.21.11.48.12.72.1,1.3-.02.68.08,1.45,0,2.02-.01.12,0,.14.01.27,0,.08-.07.05-.06.1.01.1.18.23.02.3.2.32,0,1.08.21,1.4-.11-.02-.09.36.02.33-.05.16-.12.64.04.91-.2.04-.04.41-.17.52.2.98-.05,2.23.12,3.21-.13.09-.05.5.07.54-.18-.04-.04.2-.16.21.17.1.2.22.19.56-.12.05-.07-.11-.21-.06.04,1.1.01,2.41.09,3.12-.1.08-.2.42-.03.55-.08.05-.01.22-.13.24.08.07.09.22.1.39.33.13.8-.08,1.13-.15.44.14.85-.17,1.26-.3.32-.11.77-.1,1.03-.23.19,0,.87.01,1.14-.13.33.09.34.53.54.75-.1-.03-.06.08-.07.14-.07-.01-.13,0-.17.03.16.3-.16.61-.02.84-.09,0-.08.08-.13.11.16.14-.04.26.03.5-.21.12-.35.29-.44.5-.06-.05-.28-.26-.31-.12-.03-.05-.13-.05-.11-.16-.48.08-.75-.43-1.18-.18-.27-.15-.62-.02-.85-.19-.11.1-.08.03-.23.02-.16.3-.55-.16-.67.13-.13-.1-.3-.1-.33-.01-.1-.08-.22-.08-.3,0,.04-.13-.15,0-.11-.12-.27.14-.82-.06-1,.29-.12.04-.14-.05-.2-.09-.65.15-.7-.84-.53-1.25-.03-.1-.16-.29-.02-.37-.2-.2-.03-.8-.21-1.03.14-.09-.08-.2.06-.23-.27-.69.09-1.66-.25-2.24.07-.32.04-.97,0-1.31.19-.27-.09-.88.17-1.15-.04-.08-.13.05-.13.11-.1-.19.11-.32-.03-.5h0Z"/>
    <path class="cls-2" d="M113.18,116.82c.19-.02.46.04.46-.16-.23-.03-.34.04-.46.16h0ZM113.72,116.73c.12,0,.11-.18,0-.17,0,.05,0,.11,0,.17h0ZM113.88,116.65c.08,0,.09-.06.2-.04-.02-.08-.07-.12-.14-.13.03.1-.12.04-.06.17h0ZM110,101.16c-.05,0-.11,0-.17,0-.04.19.19.09.17,0h0ZM108.98,110.08c.13-.06.02.14.1.13-.05-.45,0-.81-.1-1.31.11-.09,0-.38.11-.47-.19-.35.15-1.24-.21-1.54.11-.05-.01-.32.12-.34-.09-.55,0-1.31-.23-1.84.03-.43.01-.96-.07-1.31.11.03.02-.11.13-.08,0-.09-.08-.08-.14-.09-.13-.69-.22-1.15-.09-1.74,0-.11-.08-.15-.12-.23.01-.04.06-.03.1-.04-.09-.24-.14-.5-.21-.76.18-.03.32-.09.46-.16.37.51,1.42.25,1.85.21.11.47.12.71.11,1.31-.02.68.07,1.45,0,2.01-.01.12.01.15.02.27,0,.07-.07.05-.07.11,0,.1.18.23.02.3.2.32,0,1.08.2,1.41-.11-.02-.08.36.02.33-.05.15-.11.64.05.9-.2.04-.05.41-.17.52.2.99-.05,2.22.12,3.21-.13.08-.04.5.07.53-.18-.05-.03.2-.15.21.17.1.2.22.19.56-.13.05-.07-.11-.2-.06.04,1.09.01,2.41.09,3.12-.1.08-.2.42-.03.54-.08.05-.02.22-.12.24.08.08.09.23.09.4.34.13.8-.08,1.14-.16.44.14.85-.17,1.26-.3.32-.1.77-.09,1.03-.22.19,0,.87,0,1.14-.12.33.08.34.52.54.74-.1-.03-.06.08-.06.13-.07,0-.13.01-.17.05.16.29-.16.6-.02.84-.09,0-.08.08-.13.11.16.14-.05.26.02.5-.2.11-.35.28-.45.5-.05-.05-.27-.26-.3-.12-.03-.05-.13-.05-.11-.16-.48.08-.76-.42-1.18-.17-.27-.16-.62-.02-.84-.2-.13.1-.09.03-.24.02-.16.3-.54-.16-.66.13-.13-.1-.3-.09-.34-.01-.1-.08-.21-.08-.3.02.04-.13-.15,0-.11-.14-.27.14-.83-.05-1,.29-.13.03-.15-.05-.21-.09-.65.15-.69-.84-.53-1.25-.03-.1-.16-.29-.02-.38-.2-.2-.04-.81-.22-1.02.14-.1-.09-.2.05-.24-.27-.69.09-1.66-.25-2.24.06-.32.04-.96,0-1.31.18-.27-.1-.87.17-1.15-.04-.08-.12.05-.13.11-.1-.2.1-.32-.03-.51h0Z"/>
    <path class="cls-2" d="M138.39,125.75c.02.09-.06.09-.03.2.22-.06.24.1.38.12-.02-.17.13-.19.06-.4-.12.05-.03-.12-.15-.07.07.2-.13.15-.26.16h0ZM139.88,124.65c-.02-.08.04-.26-.08-.22.02.08-.05.26.08.22h0ZM141.61,112.59c-.12-.33.22-.59,0-.77-.02.2-.22.59,0,.77h0ZM142.9,105.44c.12,0,.11-.11.1-.22-.04,0-.07,0-.11,0,0,.08.01.15.01.22h0ZM136.79,106.02c.35.67.53,1.37.79,2.1.08.21.05.56.19.83-.06.44.3,1.45.21,1.91.11.02.06.23.17.24.02.83.36,1.39.49,2.11,0,.41.17.61.3.87.57,0,.88.27,1.27.45.22-.14.03-.65.26-.79.02-.08-.07-.05-.08-.11.28-.94.23-2.18.52-3.12-.06-.06-.22,0-.16-.17.11-.01.08.12.23.06.03-.12-.13-.04-.08-.18.24-1.11.4-2.28.62-3.39.04-.11-.06-.09-.08-.14.1-.21.28-.66.14-.85.11-.12.14-.33.28-.42-.02-.55.48-.65.9-.82.03-.05.12-.06.11-.15.13-.01.27-.03.3.06.23-.09.13-.47.47-.46.05.04.11.06.08.18.05-.05.06-.11.19-.09-.01.06.03.06.07.07-.02.12-.11.11.08.11.07.26-.13.35.03.48-.21.22-.24.61-.29.97-.05,0-.1.01-.15.01-.04.12.12.02.08.14-.27.22-.13.78-.41.98,0,.14.02.27.02.41-.31,1-.5,2.1-.78,3.13-.04.12.13.03.09.15-.04.07-.05.17-.14.19,0,.23.14.39-.09.52.12.63.04,1.26-.05,1.88-.15.98-.26,1.96-.38,2.89-.07.57-.19,1.16-.33,1.71.1.23-.02.78-.14,1.04.04.08.04.83-.02,1.06-.01.03-.18.07-.1.23.13.24-.09.86-.17,1.15-.01.03.06.03.08.03.01.09-.08.09-.1.15.11.77-.33,1.7-.14,2.4-.1,0-.08.09-.15.11.09.19-.02.13.09.3.02.09-.07.1-.14.12.01.33-.03.63.02.99-.05,0-.1,0-.15,0,.07.32.11.46-.04.71-.09-.17-.11.06-.3,0-.03.17-.18.24-.13.49-.15.07-.02-.16-.12-.14-.08,0-.01.13-.03.19-.06-.05-.2-.02-.23-.1-.05.03-.07.1-.07.18-.53-.11-1.05-.08-1.54-.03-.42-.22-.55-.12-.95-.22,0-.05,0-.09-.01-.14-.14-.05-.06.1-.18.09-.01-.13-.2-.07-.2-.22-.12-.04-.02.12-.15.09-.11-.09-.44-.2-.61-.09,0-.09-.07-.11-.05-.22-.55-.11-1-.51-1.14-.94-.1-.03-.14-.13-.27-.14,0-.44-.41-.43-.42-.86-.02-.04-.1-.01-.16-.02-.12-.47-.06-1.11-.26-1.39-.04-.19.05-.52-.1-.58-.14-.96-.41-2.37,0-3.1-.15-.26.09-.52,0-.96.05,0,.1-.01.14-.02.13-.73.36-1.37,1.25-1.43.33.14.53.78.05.92-.05.15.1.06.09.18-.17,0-.08.21-.26.19-.02.09.08.05.08.11-.09.09-.07.29-.05.48-.32.73-.02,2.1,0,2.95.24.36.54.66.67,1.15,0,.05.09.03.15.02.21.26.26.68.64.75-.04.2.24.06.2.24.29-.02.35.2.69.12.02.03.04.05.04.1.11,0,.23-.02.34-.02.07.27.57.09.69.29.29-.25.36.22.73.12.06-.19-.13-.09-.13-.22.33-.64.25-1.65.33-2.52,0-.07-.14-.02-.12-.14.17.22.16-.82.2-1.01.04-.12-.03-.35.02-.52.03-.09.13-.12.14-.19.09-.58-.13-1.15.19-1.52.04-.14-.11-.43.05-.45.02-.08-.08-.05-.08-.11.12-.23.07-.55-.04-.73-.1.13-.17-.05-.19.08-.27-.03-.35-.27-.69-.23,0-.04,0-.09,0-.14-.34-.18-.82-.21-1.01-.54-.12.04-.14-.03-.23-.02-.04-.11-.04-.27-.2-.25.04-.32-.14-.41-.12-.73-.19-.06-.02.2-.18.16-.05-.19.16-.17.1-.38-.33-.29-.08-.85-.33-1.3.11-.91-.28-1.91-.41-2.81,0-.05-.07-.03-.11-.03.01-.17-.08-.43.05-.48-.01-.05-.1-.03-.15-.03.05-.31-.25-.85-.33-1.28-.15-.04,0,.17-.14.12.05-.18.06-.12-.01-.3.16-.47-.44-.74-.45-1.29-.3-.2-.5-.5-.72-.78-.07-.09-.26-.06-.27-.21-.15.12-.32-.2-.61-.15,0-.31-.33-.25-.29-.58.07,0,.14,0,.23-.02-.12-.42.28-.39.41-.6.08.05.25.12.3-.02.24.37,1.09-.12,1.29.27.13.04.03-.12.15-.09.05.08.11.16.09.33.01-.1.34-.16.26.06-.12.05-.03-.12-.15-.06.04.18.22.02.34.08.09.2.16.43.4.46h0Z"/>
    <path class="cls-3" d="M110.88,116.62c0,.06,0,.12,0,.17-.14-.02-.21.03-.29.08.05-.12.2-.16.29-.25h0Z"/>
    <path class="cls-3" d="M110.92,116.99c.11.03-.05.05-.09.04.02.23-.12.42-.03.6-.06-.03-.08-.11-.18-.09-.08-.28.22-.3.11-.51.1.02.09-.06.19-.05h0Z"/>
    <path class="cls-2" d="M100.41,94.3c.01.05,0,.12.04.13,0-.09.1-.11.13-.17-.08-.01-.07.07-.16.04h0ZM99.09,90.77c.1-.03.15-.09.12-.24-.05,0-.09.01-.13.01.01.08.01.16.01.23h0ZM99.48,90.52s-.04-.03-.04-.07c-.05,0-.09,0-.14,0-.06.13.17.12.18.06h0ZM98.78,90.72c-.08-.05-.04-.21-.14-.23,0,.13-.22.08-.19.25.12-.06.07.09.17.06-.04-.21.09-.12.17-.08h0ZM98.84,90.55c.02.06-.04.2.08.16,0-.07.19-.27.02-.31.01.09.02.17-.1.15h0ZM99,90.34c.11.05.09-.22-.01-.17,0,.06,0,.11.01.17h0ZM99.98,90.42c.03-.07.19-.32.02-.37.11.2-.19.32-.02.37h0ZM99.16,86.13c-.04-.06-.06-.15-.14-.17,0,.03,0,.07,0,.11.1-.05.03.1.14.06h0ZM96.71,86.19c.01.09,0,.17-.06.2-.05-.01-.03-.1-.13-.06-.11.14-.48.03-.42.32-.52.11-.43.76-.97.85,0,.17-.07.27-.22.32-.16.35-.34.71-.54,1.03,0,.21,0,.4-.14.48.07.27-.11.31-.07.54.15,0,.29-.01.43-.02.42.14.87-.23,1.33-.24.66-.15,1.06-.54,1.68-.72.05-.24.21-.38.38-.52.26-.73.67-1.3.52-2.31-.05-.06-.13-.06-.11-.2-.27-.12-.44-.35-.91-.23-.18.25-.45.42-.75.55h0ZM100.59,90.02c.17.34,0,.48-.09.74-.45.1-.72.35-1.16.46.04-.11-.11-.02-.07-.13,0,.08-.3.15-.3.02-.28.18-.95-.04-1.24.03,0-.06-.05-.06-.04-.13-.49.13-.59-.02-1.07.18-.09-.02-.16-.08-.17-.19-.2.17-.55-.11-.7.17-.14-.04-.31-.03-.41-.12-.08.05-.32.26-.39.09-.25.04-.64.12-.97.12-.14.59.02,1.24.19,1.73.37.51.65,1.11.96,1.67.08.07.14.15.31.12.05.27.39.22.59.34.07-.16.28.05.4-.09.03.02.11.14.1,0,.11-.03.18.1.34.12.15,0,.31-.22.5-.09.11-.17.52-.08.56-.33.87-.15,1.46-.55,2.13-.88.02-.19.19-.25.17-.48.15.03.15-.06.23-.08.43.27.23,1.09,0,1.41.01.05.08.03.13.02-.07.5-.22.91-.83.92-.04.02-.02.08-.03.14-.29.04-.54.13-.72.27-.12-.12-.14.07-.24-.06-.04.03-.06.08-.06.14-.09-.07-.22-.07-.3.02-.04-.01-.59-.05-.53.19-.08.03-.13-.16-.14,0-.05-.01-.03-.11-.13-.06-.05.01-.03.09-.03.14-.15.04-.36.04-.39.19-.11.04-.03-.11-.14-.06-.33.33-.79-.09-1.14.13-.36-.15-.83,0-.99-.32-.69-.02-.9-.58-1.48-.73.04-.18-.12-.15-.12-.29-.06,0-.14,0-.2,0-.04-.29-.23-.36-.13-.62-.03-.05-.08-.06-.14-.07-.12-.35-.27-.67-.39-1.02-.05-.32.04-.8-.12-1-.01-.13.03-.34-.09-.37.01-.25-.06-.48-.04-.74.01-.18.14-.35.17-.54.04-.26-.04-.55,0-.82.06-.44.32-.84.4-1.23.28-.2.29-.63.57-.83,0-.08,0-.14,0-.2.06,0,.06-.05.13-.04.21-.73.89-1.03,1.19-1.67.15.04.09-.11.23-.09.04-.01.02-.07.03-.1.19,0,.25-.09.26-.26.14-.03.28-.12.39-.22.12-.09.28-.21.35-.35.07,0,.13,0,.21,0,.27-.36.9-.39,1.24-.68.1-.02.04.12.17.07.99-.12,2,.36,2.22,1.32.06.03.06.11.14.1.03.2.03.25.09.43.05.14.06.03.04.17-.07.41.2,1.25-.23,1.35-.14.74-.72,1.09-1.2,1.53,0,.08.02.14.05.17.18-.07.47-.01.6-.14.26.17.8.04,1.14.02.11.08.47.33.19.49h0Z"/>
    <path class="cls-2" d="M123.75,115.3c0,.05,0,.12.04.13,0-.09.1-.11.12-.18-.08,0-.07.07-.16.05h0ZM122.43,111.77c.11-.03.15-.09.12-.24-.04,0-.09,0-.13.01.01.08,0,.15.01.23h0ZM122.82,111.52s-.04-.02-.03-.06c-.05,0-.09,0-.13.01-.06.12.16.12.17.05h0ZM122.13,111.72c-.08-.04-.04-.22-.15-.22,0,.13-.22.08-.19.24.12-.05.07.09.17.06-.04-.2.08-.11.17-.08h0ZM122.19,111.55c.02.05-.04.2.07.16.01-.08.2-.27.02-.3.02.09.02.17-.09.14h0ZM122.34,111.34c.11.05.09-.23-.01-.17,0,.06,0,.11.01.17h0ZM123.32,111.42c.03-.07.19-.32.02-.37.1.2-.2.32-.02.37h0ZM122.5,107.13c-.04-.06-.05-.15-.14-.15,0,.03,0,.07,0,.1.11-.05.03.11.14.06h0ZM120.05,107.19c.01.1,0,.17-.06.2-.05-.01-.03-.11-.14-.06-.1.14-.48.03-.42.32-.52.11-.43.76-.96.85,0,.18-.08.28-.22.32-.17.36-.35.72-.55,1.04,0,.21,0,.41-.15.48.08.27-.11.31-.07.53.15,0,.29-.01.43-.02.41.14.86-.21,1.33-.23.66-.15,1.06-.54,1.68-.73.05-.24.2-.39.38-.52.26-.73.68-1.29.52-2.31-.05-.06-.13-.06-.11-.2-.27-.12-.44-.34-.91-.23-.19.25-.45.41-.75.55h0ZM123.94,111.02c.16.34,0,.49-.09.74-.45.09-.72.36-1.15.46.03-.11-.11-.02-.08-.13,0,.08-.3.15-.3.02-.28.19-.94-.03-1.24.03,0-.06-.05-.06-.04-.13-.49.12-.59-.02-1.07.19-.1-.03-.16-.09-.18-.2-.2.18-.56-.11-.7.17-.14-.03-.31-.03-.41-.12-.08.05-.32.26-.4.09-.24.03-.64.12-.97.11-.13.59.03,1.24.18,1.74.37.5.65,1.1.96,1.67.07.07.14.15.31.11.05.27.38.23.59.35.08-.16.27.05.39-.09.03.02.12.14.1,0,.12-.03.18.1.35.12.14.02.31-.23.5-.09.11-.17.52-.08.56-.33.87-.15,1.47-.55,2.14-.88.02-.19.19-.25.18-.48.14.03.14-.06.23-.08.43.27.23,1.09,0,1.41.02.05.09.02.14.03-.07.49-.24.9-.83.91-.04.02-.02.09-.02.14-.29.04-.54.12-.72.27-.12-.12-.15.08-.24-.05-.04.02-.06.07-.06.13-.1-.08-.22-.07-.3.01-.04,0-.59-.05-.53.2-.08.03-.13-.16-.13,0-.06-.01-.03-.11-.14-.06-.05.01-.03.08-.03.14-.16.04-.36.03-.4.18-.1.05-.03-.11-.13-.06-.33.33-.78-.08-1.14.12-.37-.14-.83,0-.99-.32-.69-.03-.9-.58-1.48-.73.03-.19-.13-.15-.12-.3-.06,0-.13,0-.2.02-.04-.3-.22-.37-.13-.64-.02-.04-.08-.05-.14-.06-.12-.35-.27-.67-.39-1.02-.05-.32.04-.8-.12-1.01-.02-.14.02-.33-.09-.36.02-.25-.06-.48-.04-.73.02-.19.14-.35.18-.55.04-.25-.05-.55,0-.8.06-.45.33-.85.41-1.23.27-.2.29-.63.56-.84,0-.06,0-.13-.01-.2.06,0,.07-.04.13-.04.21-.74.89-1.03,1.19-1.68.15.04.09-.11.23-.08.04,0,.02-.07.03-.11.18.02.25-.08.26-.24.15-.03.28-.14.39-.23.12-.09.27-.21.35-.35.07,0,.14,0,.2-.01.28-.35.9-.38,1.25-.67.09-.03.05.11.17.05.99-.11,1.99.37,2.21,1.33.05.03.05.11.14.1.04.21.03.26.09.43.05.14.06.04.04.17-.07.4.2,1.26-.23,1.35-.15.75-.73,1.1-1.2,1.54,0,.08,0,.13.04.17.17-.06.48-.02.6-.13.25.17.79.03,1.14.01.11.08.48.32.2.49h0Z"/>
    <path class="cls-2" d="M108.06,96.13s.09,0,.14,0c-.02-.08-.07-.12-.14-.13,0,.05,0,.09,0,.14h0ZM102.24,89.84c.1.05.08-.22-.01-.17,0,.05,0,.11.01.17h0ZM102.26,88.93s.09,0,.13,0c0-.11-.06-.15-.14-.16,0,.05,0,.11.01.16h0ZM107,85.87c-.08-.12-.22-.17-.34-.18-.43-.08-.82.15-1.17.29.02.09-.06.09-.09.14-.14.05-.11-.07-.21-.06-.05.28-.39.42-.58.46-.11.44-.52.6-.58,1.07-.27-.02-.25.5-.45.33-.17.49-.32.98-.12,1.55-.03,0-.07,0-.1,0,.08.81.1,1.74,0,2.55.08-.01.08.07.14.09-.27.12.06.55-.02.91.54-.14.84-.4,1.24-.67.15-.11.25-.18.35-.26.15-.12.22-.15.33-.25.09-.08.23-.1.22-.25.17-.03.21-.19.29-.31.38-.24.67-.55.9-.92.03,0,.07,0,.09,0,.07-.24.26-.37.45-.49.06-.34.44-.38.37-.85.21,0,.28-.39.21-.45.2-.5.27-1.36.14-1.96-.08-.05-.19-.06-.17-.22-.4-.06-.4-.55-.87-.53h0ZM108.97,89.49c-.05.58-.58.99-.8,1.52-.23-.03-.1.27-.32.25-.21.3-.53.49-.77.74.27.17.31.58.64.68.03.2.19.26.33.35.11.63.59.85.71,1.47.22.24.3.62.7.64-.02.11.04.12.04.2.09-.05.16-.12.19-.21.14.12.18-.17.47-.09-.03.11.11.02.07.14.23-.04.38,0,.54.03.13.26-.02.49-.1.64-.07.14-.15.41-.21.48-.03.03-.22-.03-.13.14-.06,0-.11,0-.17.01,0,.05,0,.11,0,.16-.12-.14-.41.23-.57.03-.09.2-.5-.03-.53.1-.57-.2-1.38.04-1.58-.59-.32.02-.18-.46-.46-.48-.02-.09.04-.26-.11-.21,0-.03.06-.02.07-.06-.02-.05-.09-.03-.14-.03-.18-.4-.34-.82-.75-.97,0-.04,0-.07,0-.11-.01-.05-.09-.02-.14-.03-.03-.47-.83-.12-.96-.48-.09,0-.09.15-.1-.03-.12-.02-.09.11-.19.11.01-.18-.26-.03-.28-.16-.11.15-.59.15-.71-.03-.05.01-.02.08-.03.13-.13,0-.33.06-.37-.05-.06.04,0,.2-.1.21.03.03.08.03.08.1-.23.18.03.55-.19.82.07.06.14.34.02.4.13.36.17.96.17,1.27-.14.11-.27.05-.33.18-.13-.09-.27,0-.46.03-.02,0-.24-.05-.18-.06-.01,0-.04.06-.03.06-.12-.03-.08-.22-.24-.15.04-.2-.2-.21-.25-.35-.09-.23-.03-.55.02-.81,0-.04-.07-.02-.07-.03,0-.08.14-.33-.02-.4.08-.15.23-.42.11-.55.14-.26.09-.96.05-1.18.18-1.41-.09-3.16-.33-4.52-.02-.15.03-.36-.09-.41-.03-.19.04-.51-.09-.59.1-1.05-.46-1.5-.36-2.44.3-.39,1.04-.37,1.38-.73.43.2.49.79.6,1.34.15-.06.25-.16.29-.32.2-.08.46-.1.45-.36.77-.4,2-.7,2.93-.59.14.05.1-.08.2-.07-.04.13.15,0,.11.13.45-.09.7.05,1.01.12,0,.04.01.09,0,.13.53.03.69.47.88.86.01.04.08.03.14.02.03.35.02.7.21.93-.12.18.13.4.2.6,0,.14-.16.11-.16.23-.02.09.13.14.14.07.09.05-.03.17-.06.2.16.05-.08.14.07.13-.12.32-.1.41-.1.78-.2.12-.15.49-.27.68-.06.02-.06-.02-.07-.06h0Z"/>
    <path class="cls-2" d="M130.49,95.63s.08,0,.13,0c-.02-.08-.07-.12-.14-.12,0,.05,0,.09,0,.13h0ZM124.65,89.34c.11.05.09-.23,0-.17,0,.05,0,.11,0,.17h0ZM124.68,88.43s.09,0,.13,0c0-.11-.06-.14-.14-.16,0,.06,0,.12.02.17h0ZM129.42,85.37c-.08-.11-.22-.16-.35-.18-.42-.08-.81.15-1.16.3,0,.08-.07.08-.1.14-.13.05-.11-.07-.2-.06-.05.27-.39.43-.58.47-.11.43-.52.59-.58,1.06-.27-.02-.25.5-.46.33-.17.49-.31.99-.12,1.56-.04,0-.06,0-.1,0,.08.81.1,1.74,0,2.55.09-.01.09.07.14.09-.26.13.06.55-.02.91.54-.14.84-.39,1.24-.67.15-.11.26-.18.35-.26.15-.12.22-.16.33-.26.09-.08.24-.09.23-.24.17-.03.21-.2.28-.31.38-.24.67-.55.9-.93.03,0,.07,0,.1,0,.06-.24.26-.37.45-.49.05-.34.44-.39.36-.86.2,0,.28-.39.21-.45.2-.5.27-1.35.14-1.95-.08-.04-.19-.08-.18-.22-.4-.05-.4-.55-.87-.53h0ZM131.39,89c-.04.58-.57.99-.79,1.52-.23-.02-.1.27-.32.25-.2.3-.53.49-.76.74.27.16.31.58.63.68.02.21.2.25.32.35.11.63.59.85.71,1.47.22.24.3.62.71.64-.02.1.05.12.05.2.09-.05.15-.12.19-.21.14.13.17-.17.47-.09-.04.11.11.02.07.13.23-.04.38,0,.54.04.13.27-.02.49-.1.64-.08.14-.15.41-.21.49-.03.03-.21-.03-.13.14-.05,0-.11,0-.17,0,0,.06,0,.12,0,.17-.11-.14-.4.23-.56.03-.1.2-.51-.03-.54.1-.56-.2-1.38.04-1.58-.59-.32.03-.18-.46-.46-.49-.01-.09.03-.25-.11-.2,0-.03.06-.03.06-.07-.01-.04-.08-.02-.13-.02-.18-.41-.34-.83-.76-.97,0-.03,0-.07,0-.1-.02-.04-.09-.02-.14-.02-.04-.48-.83-.13-.96-.49-.1,0-.09.15-.11-.03-.12-.01-.09.11-.19.11.02-.17-.26-.03-.28-.15-.11.15-.59.15-.71-.03-.05.01-.02.08-.03.14-.14,0-.33.05-.37-.05-.06.03,0,.19-.09.2.02.04.08.03.07.1-.22.18.03.55-.19.82.07.06.14.34.02.41.13.35.17.96.17,1.26-.14.11-.27.05-.33.19-.13-.09-.26,0-.47.02-.02,0-.23-.05-.16-.06-.02,0-.04.06-.03.06-.12-.03-.08-.21-.25-.15.05-.2-.2-.21-.25-.36-.08-.23-.03-.55.03-.81,0-.04-.07-.02-.07-.03,0-.08.13-.34-.02-.4.07-.15.22-.42.1-.54.13-.26.08-.97.04-1.18.19-1.41-.09-3.15-.33-4.52-.02-.14.04-.36-.08-.39-.04-.2.04-.52-.1-.61.11-1.05-.46-1.5-.36-2.43.3-.39,1.04-.38,1.38-.74.42.2.49.8.6,1.34.15-.06.25-.15.29-.31.2-.08.45-.11.45-.37.77-.41,1.99-.7,2.93-.59.14.05.1-.07.19-.07-.04.13.15,0,.11.12.45-.09.7.06,1.02.12,0,.04,0,.08,0,.14.53.02.69.46.89.87.01.04.09.02.13.02.04.35.02.69.22.93-.11.17.13.4.2.59.01.14-.16.11-.16.24-.02.08.13.13.14.06.1.05-.02.17-.06.21.16.04-.07.14.08.13-.12.32-.1.4-.1.77-.2.14-.15.49-.26.69-.06.01-.07-.02-.08-.06h0Z"/>
    <path class="cls-2" d="M131.75,116.15s.09,0,.14,0c-.02-.08-.07-.12-.14-.13,0,.05,0,.09,0,.14h0ZM125.92,109.86c.1.05.09-.22,0-.17,0,.05,0,.11,0,.17h0ZM125.94,108.96s.09,0,.14-.01c0-.11-.06-.15-.15-.16,0,.06,0,.11,0,.17h0ZM130.69,105.89c-.08-.11-.23-.17-.35-.19-.43-.07-.82.15-1.16.29,0,.09-.07.09-.1.15-.13.05-.1-.07-.2-.06-.05.27-.39.43-.58.46-.11.43-.52.59-.58,1.08-.27-.02-.24.5-.46.32-.16.49-.31.98-.12,1.55-.04,0-.07,0-.1.01.07.81.1,1.73,0,2.55.08,0,.08.07.14.1-.26.12.07.54-.02.9.55-.14.84-.39,1.24-.67.15-.1.25-.17.36-.25.14-.12.22-.15.32-.25.09-.08.23-.09.22-.24.17-.04.21-.2.29-.32.38-.23.66-.55.9-.92.03,0,.07,0,.1,0,.06-.24.25-.37.44-.49.06-.35.44-.39.36-.86.21,0,.29-.4.21-.46.2-.49.27-1.35.14-1.95-.08-.05-.19-.07-.18-.23-.4-.04-.4-.54-.86-.52h0ZM132.65,109.52c-.04.58-.57.98-.79,1.52-.23-.03-.1.27-.32.25-.2.29-.53.48-.77.74.27.16.32.58.65.67.02.2.19.26.32.35.11.62.59.85.71,1.47.22.24.3.62.71.64-.03.1.04.12.04.2.09-.04.15-.12.19-.21.14.12.17-.17.46-.09-.04.12.11.03.07.13.23-.04.38,0,.54.03.14.27-.02.49-.1.65-.07.13-.14.41-.2.47-.04.04-.21-.02-.13.15-.05,0-.11,0-.16,0,0,.05,0,.11,0,.17-.12-.15-.41.21-.57.02-.09.2-.51-.03-.54.09-.56-.2-1.37.04-1.57-.59-.32.02-.18-.46-.47-.48-.01-.09.04-.25-.11-.2,0-.03.07-.03.07-.06-.02-.05-.09-.03-.14-.03-.18-.4-.34-.82-.76-.96,0-.04,0-.07,0-.1-.01-.05-.08-.02-.14-.04-.04-.47-.83-.11-.96-.47-.1-.01-.09.14-.1-.04-.13-.01-.1.11-.2.11.02-.18-.26-.02-.28-.15-.11.15-.59.15-.71-.03-.04.01-.02.08-.02.14-.13,0-.33.06-.37-.05-.06.04,0,.19-.09.21.03.04.09.04.07.09-.22.19.03.56-.19.82.07.06.14.35.02.41.13.35.17.95.16,1.27-.14.1-.27.05-.33.18-.13-.09-.26.01-.47.03-.03,0-.23-.06-.17-.06-.01,0-.04.06-.03.07-.12-.04-.08-.23-.24-.16.04-.2-.2-.21-.26-.35-.09-.24-.02-.55.03-.82,0-.03-.07-.02-.07-.03,0-.08.14-.34-.02-.4.08-.14.23-.41.11-.55.14-.25.09-.96.05-1.17.18-1.41-.08-3.16-.33-4.52-.02-.14.03-.36-.08-.4-.04-.2.04-.52-.11-.6.11-1.04-.46-1.5-.35-2.43.3-.39,1.04-.38,1.37-.74.43.2.5.8.61,1.35.16-.06.25-.16.29-.32.19-.08.45-.1.44-.36.77-.41,2-.7,2.93-.59.14.04.1-.08.2-.08-.05.13.14,0,.11.13.45-.09.69.05,1.01.12,0,.05,0,.08,0,.14.53.02.69.46.89.86,0,.05.08.03.13.03.04.34.03.69.21.93-.11.17.14.4.2.59.01.14-.16.12-.16.25-.02.08.13.13.14.06.1.05-.02.17-.06.21.16.04-.07.14.08.12-.12.33-.1.41-.1.78-.2.14-.15.49-.26.69-.05.02-.07-.02-.08-.06h0Z"/>
    <path class="cls-2" d="M75.48,93.04c0-.09-.01-.18-.01-.26-.11-.03-.09.31.01.26h0ZM79.76,87.35c-.63-.24-1.4.2-1.71.63-.73.23-1.03.86-1.2,1.61-.17-.03-.1.15-.23.17,0,.14.01.27.02.4,0,.07-.13.04-.1.14.04.4-.24.78,0,1.14-.02.06-.11.03-.07.14.02.05.11.02.08.13-.13.26,0,.76,0,1.11.11.03.07.23.08.36.25.49.49,1,.71,1.51.04,0,.09,0,.13,0,0,.05,0,.09,0,.13.25.15.86.24,1.15.02.05.02.03.11.14.06.1-.13.27-.06.4-.09.4-.1.68-.38,1.08-.49.28-.26.51-.57.83-.81.01-.24.18-.41.2-.65.04-.25.12-.33.14-.47.06-.3-.11-.56-.04-.87.04-.21.06-.53.09-.81.05-.41.12-.9-.06-1.24.13-.11.01-.44.04-.64-.09-.02-.14-.08-.21-.12-.17-.44-.44-.74-.63-1.15-.26-.06-.49-.15-.71-.27-.11-.04-.02.11-.13.07h0ZM82.76,85.39c-.05.61.31,1.22-.06,1.58.19.93-.11,1.98.11,2.76-.08.36-.04.89-.06,1.41.09.03.14.43.02.46-.02.1.12.04.08.17-.38,1.63.34,3.08.7,4.47-.06-.01-.06.03-.07.07-.11.04-.05-.11-.07-.17-.08.05,0,.24-.02.34-.2-.04-.21.09-.22.22-.1-.08-.17-.07-.27,0,0-.06-.05-.07-.04-.14-.12.13-.17.02-.34.02-.05,0-.02.09-.03.14-.09-.08-.24-.07-.4-.05-.16-.23-.49-.26-.63-.51-.06-.5-.18-.96-.18-1.53-.13.07-.21.17-.18.38-.41,0-.14.62-.51.67.08.24-.21.15-.15.38-.04,0-.09.01-.13,0-.13.4-.65.47-.95.62-.07-.02-.23.07-.2-.06-.05.08-.14.11-.16.21-.1,0-.07-.11-.2-.06-.03.06-.12.06-.09.17-.22-.04-.66-.05-.78.11.06-.15-.13-.04-.11-.17-.09.09-.23.16-.33.02-.05,0,0,.1-.06.11-.18-.01-.18-.22-.44-.14-.1-.22-.31-.33-.56-.38,0-.14-.07-.2-.17-.22-.1-.24-.23-.46-.43-.58,0-.07,0-.14,0-.21-.4-.37-.52-1.06-.69-1.67.05-.09-.15-.51-.27-.65-.06-.3-.06-.67-.18-.9.02-.26.14-.51.16-.75.03-.29-.07-.52-.04-.8.07-.44.4-.95.4-1.44.13-.26.29-.48.3-.86.26-.04.1-.46.38-.48.62-1.08,1.25-2.15,2.66-2.52.17,0,.42,0,.7.03.07,0,.11-.08.1-.07.54.05,1.06.35,1.32.77.18-.08.08.14.24.09,0,.05,0,.11,0,.16.14.03.17.15.35.12.03-.43.3-.64.38-1.03.18-.09.43-.11.45-.33.33-.03.47.14.69.24h0Z"/>
    <path class="cls-2" d="M89.89,114.38c0-.09-.01-.18-.01-.27-.11-.03-.09.31.01.27h0ZM94.17,108.69c-.64-.25-1.41.19-1.71.62-.74.24-1.03.87-1.2,1.61-.17-.02-.1.16-.23.18,0,.14.02.27.02.4-.01.07-.13.03-.09.14.03.39-.24.78-.01,1.14-.01.05-.11.04-.06.14.02.06.11.03.08.14-.13.26,0,.75-.01,1.11.11.04.07.24.09.36.25.5.49.99.72,1.52.04-.01.09-.01.14-.02,0,.05,0,.1,0,.13.24.15.86.23,1.14.02.05.01.03.11.13.06.1-.14.28-.05.41-.09.41-.09.68-.39,1.08-.49.28-.27.51-.58.83-.81.02-.24.17-.41.21-.65.03-.25.12-.33.14-.48.06-.3-.1-.56-.05-.87.04-.22.07-.53.1-.81.04-.41.12-.89-.06-1.24.12-.1.01-.43.03-.64-.09-.02-.13-.08-.21-.12-.16-.44-.44-.74-.63-1.15-.27-.06-.5-.15-.72-.27-.1-.03-.01.11-.12.08h0ZM97.15,106.72c-.05.62.31,1.23-.06,1.59.19.92-.1,1.97.1,2.75-.07.37-.03.9-.06,1.41.09.03.15.43.03.47-.02.1.12.03.08.17-.38,1.63.33,3.07.69,4.47-.06,0-.06.03-.06.08-.1.03-.06-.11-.08-.17-.07.05,0,.24-.02.34-.2-.04-.21.08-.22.21-.1-.07-.17-.07-.27.02,0-.06-.04-.07-.04-.13-.12.13-.16.02-.33,0-.05.02-.03.09-.03.14-.08-.08-.24-.06-.4-.05-.16-.22-.49-.26-.63-.5-.06-.52-.18-.96-.18-1.54-.13.07-.21.18-.18.38-.4.01-.14.62-.5.67.08.24-.21.14-.15.37-.05,0-.09,0-.13,0-.12.4-.65.47-.94.62-.07-.02-.24.07-.2-.06-.04.08-.15.12-.16.22-.09,0-.07-.11-.2-.06-.03.06-.12.06-.09.17-.22-.04-.65-.04-.77.11.05-.16-.13-.04-.11-.17-.1.09-.24.15-.33.02-.05.01,0,.11-.06.11-.19,0-.18-.22-.45-.14-.1-.22-.31-.32-.55-.38,0-.14-.07-.2-.18-.23-.1-.24-.23-.46-.43-.58,0-.07,0-.14-.01-.21-.4-.38-.51-1.06-.69-1.68.05-.09-.16-.51-.27-.65-.06-.31-.06-.67-.18-.91.02-.25.14-.5.16-.74.04-.29-.07-.52-.04-.8.07-.44.39-.95.4-1.43.13-.26.29-.49.29-.86.26-.04.1-.46.38-.49.63-1.07,1.26-2.14,2.67-2.52.16,0,.42,0,.7.03.07.01.11-.07.1-.07.54.05,1.06.35,1.32.77.17-.08.08.14.24.09,0,.05,0,.11,0,.16.13.03.17.15.35.12.03-.43.3-.65.38-1.03.18-.08.43-.1.45-.32.33-.04.48.13.68.23h0Z"/>
  </g>
  <text class="cls-6" transform="translate(21.22 112.43) scale(.79 1)"><tspan x="0" y="0">6</tspan></text>
</svg>