<?xml version="1.0" encoding="UTF-8"?>
<svg id="Layer_1" data-name="Layer 1" xmlns="http://www.w3.org/2000/svg" viewBox="0 0 180 200">
  <defs>
    <style>
      .cls-1 {
        fill: #e5d09e;
      }

      .cls-2, .cls-3 {
        fill-rule: evenodd;
      }

      .cls-2, .cls-4 {
        fill: #231f20;
      }

      .cls-3 {
        fill: #f48668;
      }

      .cls-4 {
        font-family: AmericanTypewriter-Bold, 'American Typewriter';
        font-size: 20px;
        font-weight: 700;
      }

      .cls-5 {
        stroke: #231f20;
        stroke-miterlimit: 2;
        stroke-width: .95px;
      }
    </style>
  </defs>
  <g>
    <path class="cls-1" d="M42.99,90.81s-.34,12.44,0,13.18.34,2.6.34,2.6l.34,1.67s-.69,1.49-.69,2.41-.17,2.04-.17,3.16-.17,4.09,0,4.64.52,2.41.52,2.41l.17.93-.17,1.86s-.69,1.67-.17,1.49,7.24,0,8.27,0,4.48,0,7.76.19c3.28.19,1.55.19,8.45.19s16.55-.37,20.51-.19c3.96.19,25.17.37,27.58.19s10.69-.19,13.45,0,11.03.74,16.55.37,14.14-1.3,17.24-1.11c3.1.19,9.77.5,9.77.5,0,0,.5-1.48.34-4.09-.05-.84-.63-5.32-.29-6.62.34-1.3.69-5.57.69-7.8s-.17-3.16,0-4.64c.17-1.49.17-9.47.17-9.47l-.17-1.67-12.58.93s-10.52-.56-16.55-.56-16.84-.37-22.87-.37h-19.65c-7.07,0-10.86-.5-18.27-.87-7.41-.37-8.85.87-16.61.68-7.76-.19-17.41.19-17.41.19l-6.55-.19Z"/>
    <path class="cls-5" d="M132.97,110.54c-.54-.03-1.04-.07-1.69-.11,0-.98,0-1.87,0-2.75s0-1.69,0-2.62c-1.98-.16-3.84-.12-5.8.02-.05,1.89-.1,3.69-.16,5.57h-1.92c.15-4.42.3-8.84.45-13.3.62-.26,1.23-.23,1.84-.04-.05,2.08-.11,4.12-.16,6.2h5.71c.11-2.04.22-4.01.34-6.07h1.5c.01.74.05,1.5.04,2.27-.04,2.02-.11,4.05-.14,6.07-.02,1.53,0,3.06,0,4.76Z"/>
    <path class="cls-5" d="M161.5,103.61h4.86v1.7c-1.56.3-3.15.03-4.76.1v3.72h6.03v1.73h-7.56c-.36-4.33-.02-8.6-.09-12.96,2.59-.43,5.08.23,7.6-.02.1.53.18.94.29,1.5h-6.18c-.07,1.43-.13,2.72-.19,4.22Z"/>
    <path class="cls-5" d="M149.83,111.37c-1.45-2.13-2.33-4.44-3.21-6.75-.88-2.28-1.84-4.54-2.79-6.87h1.81c1.3,2.99,2.63,6.05,3.97,9.15,1.41-3.04,2.8-6.03,4.21-9.08h1.75c-1.65,4.68-4.28,8.86-5.74,13.55Z"/>
    <path class="cls-5" d="M90.9,97.88c.49.2.53.67.67,1.04.79,2.02,1.53,4.05,2.35,6.06.6,1.48,1.3,2.92,1.96,4.38.06.13.16.25.18.38.01.12-.03.34-.11.36-.14.05-.38.06-.47-.03-.16-.17-.27-.42-.37-.64-.36-.81-.71-1.62-1.08-2.47-.83,0-1.64-.03-2.45,0-1.03.04-2.06.15-3.08.21-.67.04-1.13.28-1.32.99-.13.48-.35.93-.58,1.37-.09.18-.31.3-.51.47-.39-.54-.07-.92.08-1.27.7-1.6,1.43-3.17,2.16-4.76.68-1.49,1.37-2.97,2.03-4.46.22-.5.35-1.05.54-1.62ZM87.97,106.11c2.05.08,3.85.16,5.82.24-.91-2.15-1.76-4.17-2.68-6.33-1.07,2.08-2.05,4-3.14,6.1Z"/>
    <path class="cls-5" d="M115.88,109.29c.09.63-.2.78-.6.8-.57.02-1.14.01-1.71.01-1.46,0-2.91,0-4.41,0-.27-.49-.31-.99-.3-1.53.02-1.17,0-2.34,0-3.52,0-2.13,0-4.26,0-6.39,0-.17.05-.35.09-.66,2.22-.13,4.44-.04,6.65,0,.21,0,.42.13.6.41-2.08.1-4.16.19-6.3.29-.31,1.78-.07,3.44-.22,5.16.95-.04,1.8-.15,2.63-.1.79.05,1.71-.29,2.42.57-.9.43-1.73-.01-2.55.03-.81.04-1.62,0-2.52,0v4.92c.98.1,2.03-.02,3.08-.02,1.05,0,2.1,0,3.14,0Z"/>
    <path class="cls-5" d="M106.72,104.55h-3.77c.31-.27.47-.52.64-.53,1.23-.03,2.47-.02,3.81-.02.05,1.38-.15,2.7-1.1,3.66-.73.74-1.65,1.38-2.6,1.8-2.14.96-4.09.3-5.86-1.07-2.29-1.76-2.58-4.68-1.46-6.8.33-.63.7-1.25,1.14-1.79,1.26-1.56,2.96-2.01,4.87-1.76.53.07,1.04.22,1.55.37.34.1.63.29.6.8-1.81-.79-3.61-1.04-5.34-.13-1.35.71-2.13,1.99-2.58,3.41-.85,2.7.9,5.69,3.73,6.48,2.9.81,5.39-.87,6.35-4.42Z"/>
    <path class="cls-5" d="M137.89,97.55c.5.03.96.05,1.52.08-.05,2.17-.12,4.32-.15,6.46-.03,2.16,0,4.32,0,6.62-.41-.05-.9-.12-1.4-.18-.41-1.79-.41-8.03.03-12.98Z"/>
    <path class="cls-5" d="M55.24,97.47c.42-.04.54.29.65.56.75,1.76,1.48,3.53,2.21,5.31.59,1.44,1.15,2.9,1.83,4.37,1.39-3.65,3.12-7.09,5.28-10.36,0,.18.06.38,0,.53-.55,1.27-1.13,2.53-1.69,3.79-.95,2.14-1.9,4.28-2.83,6.43-.18.4-.27.85-.44,1.4-.2-.26-.37-.42-.47-.61-1.17-2.24-4.45-10.53-4.52-11.41Z"/>
    <path class="cls-5" d="M70.52,109.77c-.18-2.67-.38-5.24-.25-7.83.07-1.45.2-2.9.32-4.34,0-.07.14-.14.29-.27.08.24.18.42.18.6-.02,2.38-.08,4.75-.1,7.13-.01,1.3.03,2.61.05,3.89,1.94.13,3.72.24,5.51.37.03,0,.04.12.09.27-.61.4-1.28.12-1.91.14-.71.02-1.42.03-2.13.03-.66,0-1.32,0-2.06,0Z"/>
    <path class="cls-5" d="M78.97,109.77c-.18-2.67-.38-5.24-.25-7.83.07-1.45.2-2.9.32-4.34,0-.07.14-.14.29-.27.08.24.18.42.18.6-.02,2.38-.08,4.75-.1,7.13-.01,1.3.03,2.61.05,3.89,1.94.13,3.72.24,5.51.37.03,0,.04.12.09.27-.61.4-1.28.12-1.91.14-.71.02-1.42.03-2.13.03-.66,0-1.32,0-2.06,0Z"/>
    <path class="cls-5" d="M67.13,109.95c-.15-.19-.27-.27-.27-.35-.07-3.06-.16-6.12-.19-9.17-.01-1.01.11-2.02.19-3.16.55.28.56.68.56,1.04,0,1.21-.03,2.42-.03,3.63,0,1.95,0,3.91,0,5.86,0,.69.23,1.4-.27,2.15Z"/>
    <path class="cls-5" d="M51.97,100.08h-4.99c-.33-.93-.02-1.81.05-2.7.63.65.08,1.47.44,2.23h1.57c.05-.68.1-1.34.15-2.01.08,0,.17,0,.25,0,.06.6.12,1.21.18,1.87h1.91c.06-.71.12-1.4.18-2.12.5.38.57,1.21.26,2.73Z"/>
    <path class="cls-5" d="M47.24,101.5c1.51-.28,3.03-.12,4.55.03-.63.54-1.4.13-2.18.41-.12.89-.02,1.83.02,2.84.71.09,1.38.18,2.17.29-.68.46-3.45.54-4.88.18.73-.39,1.47-.05,2.16-.33v-3.02c-.64-.05-1.25-.09-1.86-.14,0-.08.02-.17.03-.25Z"/>
    <path class="cls-5" d="M47.3,108.23c-.07.48-.12.85-.18,1.3-.48-.83-.48-2.77,0-3.52.04.56.07,1.03.1,1.58,1.55.17,3.09-.21,4.58.1,0,.1,0,.2,0,.31-1.49.07-2.97.15-4.51.22Z"/>
    <path class="cls-5" d="M103.74,116.76c-.27.79-.82,1.33-1.45,1.81-.62.47-1.25.93-1.86,1.39.33.76.68.99,1.38.82.3-.07.59-.24.83-.44.26-.21.31-.53.26-.93-.29.08-.54.15-.85.24.04-.55.41-.6.72-.73.38.07.77.2,1.14.18.33-.01.65-.19.98-.3.18.18.06.37-.08.43-.4.2-.83.34-1.39.56-.16.32-.29.86-.81,1.13-.61.32-1.24.21-1.86.16-.88-.45-.85-1.25-.88-2.06.32-.61.65-1.19,1.51-1.2.18.11.38.24.59.37.43-.16.7-.5.96-.83q.48-.62.81-.61ZM100.33,119.13q.84-.35.92-.84c-.46.02-.67.32-.92.84Z"/>
    <path class="cls-5" d="M73.97,116.59c.31.1.58.18.78.24,1.04.78,1.1,2.24.34,3.32-.43.6-1.4.93-2.1.69-.35-.12-.61-.36-.77-.7-.45-.94-.43-1.87.13-2.74.16-.25.46-.44.74-.58.25-.13.54-.15.89-.23ZM74.17,120.37c1.25-1.01,1.33-2.2.23-3.26-.15-.02-.33-.05-.5-.05-.79.02-1.28.37-1.45,1.12-.17.78-.16,1.54.52,2.18h1.2Z"/>
    <path class="cls-5" d="M81.99,118.63c.05,1.26-.7,1.86-1.53,2.17-.86.32-1.73-.15-1.99-1.04-.17-.59-.25-1.17-.03-1.77.34-.9,1.17-1.53,1.9-1.41.94.15,1.64,1.02,1.65,2.05ZM80.44,120.36c1.1-.53,1.23-1.41,1-2.43-.46-.64-.55-.73-.8-.83-.76-.28-1.66.26-1.81,1.16-.12.7-.11,1.42.4,2,.42.21.84.17,1.22.1Z"/>
    <path class="cls-5" d="M85.07,116.82c.97-.08,1.81-.17,2.63.29.61.71.79,1.54.54,2.46-.15.55-.49.92-1.03,1.12-.63.23-1.01.27-2.04.14-.05-.16-.17-.36-.17-.55.01-1.12.05-2.25.08-3.47ZM87.59,119.96c.45-.95.45-1.82-.31-2.62-.6-.05-1.15-.43-1.83-.11.04,1.06-.11,2.14.04,3.35.75-.09,1.43-.06,2.1-.62Z"/>
    <path class="cls-5" d="M135.99,118.84c-.2.2-.45.45-.71.72.08.55.78.88.71,1.66-.18-.13-.31-.18-.38-.27-.25-.34-.48-.7-.74-1.04-.16-.21-.39-.31-.65-.17-.36.4.07,1-.36,1.38-.02.02-.07.01-.1.02-.19-.77-.22-2.36-.06-3.82.49-.41,1.03-.36,1.56-.08.59.32.82.85.74,1.61ZM134.22,117.52c-.23.58-.23,1.15-.02,1.81.48-.17.98-.18,1.31-.64.08-.51-.09-.89-.58-1.17h-.71Z"/>
    <path class="cls-5" d="M128.92,117.06c.1.18.23.35.29.54.32,1.15.9,2.21,1.14,3.52-.63-.24-.5-.84-1-1.23-.36-.19-.85.17-1.39.2-.17.29-.34.58-.6,1.03-.07-.29-.15-.43-.11-.51.48-1.14.97-2.28,1.46-3.42.02-.05.11-.07.23-.13ZM128.17,119.51c.42,0,.78.12,1.17-.14-.15-.46-.29-.88-.47-1.41-.34.52-.56.97-.7,1.56Z"/>
    <path class="cls-5" d="M111.24,119.9c-.4.31-.29.88-.79,1.06-.2-.4.06-.71.17-1.02.57-1.61,1.01-2.44,1.47-2.9.08.05.21.09.24.17.5,1.2.99,2.41,1.48,3.59-.27.24-.39.1-.47-.06-.14-.24-.26-.5-.41-.8-.57-.14-1.16-.09-1.68-.04ZM112.7,119.47c-.14-.63-.22-1.13-.6-1.55q-.5.7-.69,1.55h1.29Z"/>
    <path class="cls-5" d="M66.7,120.1c.68.27,1.18.37,1.67.03.18-.29,0-.74.44-.95.28.4.37.81.15,1.3-.68.38-1.42.22-2.12.19-.81-.46-.94-1.24-1.06-1.99.12-.72.21-1.44.92-1.82,1.16-.17,1.23-.17,1.98.14-.1.06-.18.14-.25.14-.28,0-.57-.05-.85-.04-.73.02-1.01.23-1.23.93-.06.2-.1.41-.18.73.16.41.35.89.53,1.36Z"/>
    <path class="cls-5" d="M141.38,119.3c-.65.07-1.1.11-1.57.16-.17.43-.15.84-.07,1.21.55.41,1.31-.11,1.85.52-.78.21-1.47.13-2.22.08-.32-1.33.03-2.61.07-3.87.9-.28,1.2-.29,2.04-.07-.45.34-.99.03-1.51.29-.22.39-.24.86-.19,1.33.5.17,1.02-.26,1.61.34Z"/>
    <path class="cls-5" d="M116.98,116.97c.39,0,.7-.02,1.02,0,.92.06,1.34.58,1.21,1.49-.02.17-.08.34-.11.46-.46.61-1.19.52-1.76.82-.06.43-.12.84-.2,1.47-.17-.33-.3-.47-.3-.61-.02-.53-.02-1.07,0-1.6.03-.63.09-1.27.14-2.03ZM117.39,117.39c-.16.86-.16.88.02,1.68.43.12.83.05,1.21-.28.18-.37.31-.76-.11-1.21-.31-.11-.67-.41-1.12-.19Z"/>
    <path class="cls-5" d="M123.09,119.74c-.26.46-.06.99-.43,1.36-.22-.69-.28-3-.1-4.01.62-.16,1.23-.14,1.8.25.39.44.42.95.3,1.49-.36.59-1.01.64-1.57.91ZM123.97,117.54c-.38-.02-.75-.2-1.12.12-.03.53-.1,1.07.15,1.65.45-.19.82-.35,1.14-.49.19-.48.15-.84-.16-1.29Z"/>
    <path class="cls-5" d="M91.2,117.98c.05-.56.41-.88.93-1.16.38-.04.84-.19,1.19.28-.28.33-.55-.04-.8.03q-.58.31-.88.84c.08.53.49.75.93.91.6.22.91.63.95,1.18-.21.68-.69.89-1.34,1.06-.23-.07-.55-.17-1.05-.33.7-.35,1.49.12,1.86-.65.1-.33-.06-.59-.36-.77-.15-.09-.32-.14-.48-.21-.51-.23-.89-.58-.96-1.18Z"/>
    <path class="cls-5" d="M144.93,117.26c.35.39.22.82.24,1.21.02.39,0,.78,0,1.16,0,.42.02.83.04,1.28.54.05,1.04-.07,1.61.3-.76.2-1.35.16-1.94.05-.24-.94-.23-3.23.04-4.01Z"/>
  </g>
  <g>
    <g>
      <polygon class="cls-3" points="26.56 97.98 3 132.48 4.17 133.96 49.12 132.4 32.97 102.74 28.17 97.13 26.56 97.98 26.56 97.98"/>
      <path class="cls-2" d="M25.4,102.46c-.85.37-.24-.86-1.1-.48-.41.14-.18.86-1.04.59-.33,1.41-.66,2.8-1.98,3.31-.31,1.48.76,1.41,1.18,2.08-1.86,1.36-1.87,5.72-5.14,4.27.3.79,1.28.83,1.43,1.8-.7.36-1.23.5-1.57.61,1.14.93-.3.7-.74,1.38-1.14,1.77-1.75,4.56-3.76,5-.07,1.3-.54,2.23-1.75,2.49.67,1.38-.39.2-.76.85,1.72.32-1.1,1.17.1,1.87-1.9.4-1.43,2.94-2.75,3.88-.17-.46.25-1.59-.34-1.59,0,.42.09.93-.5.83-.28.88.87.16.59,1.04-1.11.27-.91,1.73-1.48,2.48,2.78-.61,7.3-.66,10.41-.52.05-.21-.02-.53.24-.55,10.36.95,18.61-.66,31.25-1.01-.58-2.8-3.05-4.15-4.03-5.69-.32-2.37-2.57-2.61-2.66-5.22-1.2.18-1.03-.95-.88-1.56-1.06.03-2.03-1.7-1.17-2.08-.84.45-.9-.16-1.63-.46-1.93-5.83-6.53-9.94-8.74-14.54.01.27-.45.36-.54.02.32-.05.63-.11.51-.56-.75.25-.71-.34-1.35-.2-1.29,1.8-1.87,4.25-4.02,5.29.56.91-.2,1.29-.7,1.91-.33-1.06-.07-2.08.39-2.96.44-.02.18.73.57.77.06-1.15.97-3.33,1.76-2.23-.03-.37.09-.59.22-.81h0ZM40.99,114.79c1.58.23,1.17,2.65,2.81,2.8.04,1.73.93,2.54,2.03,3.11-.13,1.82.9,2.38,2.01,2.84.12.45-.18.51-.5.56.38.36,1.26.61.6,1.31.21-.16.42-.3.79-.3.12.53-.01.83-.49.82.53.68,2.07,2.14,1.2,2.62.27.45.87.54,1.62.45.15,2.18,1.35,3.2,1.35,5.55-.25-.15-1.01-.57-.78.3-.48-.5-1.86,0-1.92-.97-.59,1.05-1.83-.7-3.18.69-.81.14-.6-.84-.87-1.3-.76.27.38.66.06,1.34-.2-.17-.9-1.08-.8.04-3.73-.26-9.26-.28-12.56.09-.02-.26-.03-.53-.04-.8-1.21.71-2.61.85-3.74.18-.72,1.05-5.69,1.08-7.21.36-2.94,1.69-9.46.1-10.87,1.88-2.3-1.29-6.26.16-9.14-.89-.27-.84.18-1.03.46-1.36-1.07-.04-.45-.21-.62-1.84,1.25-.4,1.76-1.46,1.73-3.03,1.24.2.54-1.37,1.81-1.16-.23-.81-.21-.5-.06-1.33,1.81.2.72-2.24,2.29-2.25-.18-.26-.62-.24-.57-.77,1.07.29.5-.9,1.57-.61-.02-.45-.05-.89-.07-1.34.23-.22.59-.32,1.05-.32,1.56-4.03,4.5-6.8,6.16-10.74.92-.02,1.21-.6.98-1.65.79.03.79-.64,1.58-.61.65-3.58,4.05-4.66,4.68-8.26,2.93-.66,2.23-4.61,5.08-5.33-.19-.27-.63-.25-.58-.77.88-.05,1.31-.52,2.39-.39,1.2.85-.31,1.38,1.39,1.27-1.11,1.2.34,4.73,1.55,4.2.39.07.07,2.02,1.42,1.8-.14.83.33.96.35,1.59,3.43,2.86,4.09,8.8,7.53,11.66.12.45-.18.52-.51.56h0Z"/>
    </g>
    <text class="cls-4" transform="translate(18.06 129.77) scale(.79 1)"><tspan x="0" y="0">70</tspan></text>
  </g>
</svg>