<?xml version="1.0" encoding="UTF-8"?>
<svg id="Layer_1" data-name="Layer 1" xmlns="http://www.w3.org/2000/svg" viewBox="0 0 180 200">
  <defs>
    <style>
      .cls-1 {
        fill: #fff;
        font-family: AmericanTypewriter-Bold, 'American Typewriter';
        font-size: 20px;
        font-weight: 700;
      }

      .cls-2 {
        fill: #233169;
      }

      .cls-2, .cls-3, .cls-4 {
        fill-rule: evenodd;
      }

      .cls-3 {
        fill: #231f20;
      }

      .cls-4 {
        fill: #0059a5;
      }
    </style>
  </defs>
  <g>
    <path class="cls-2" d="M66.34,76.77c.07,0,.06.12.07.2,1.12.54,2.24,1.21,3.52,1.74.02,1.44.3,3.62-.32,4.65-.79-.25-1.28-1.25-2.02-1.13-.16-.1-.23-.3-.4-.39-.26-.06-.3.03-.63.02.02-.16-.12-.14-.08-.33-.07.23-.47.16-.45-.11-.16.06-.19.25-.3.35-.32-.57-.61.35-.9-.1-.79.72-2.43,1.34-2.19,2.72.14.78.97.89,1.22,1.7.69.19.94.9,1.58,1.15.69,1,1.5,1.91,2.41,2.79,1.27,1.22,2.27,1.71,2.71,3.86.39,1.92-.18,3.49-.75,4.94-.15.39-.44.77-.79.98-.3,1.38-1.9,1.5-2.57,2.53-2.46.59-4.27-.66-6.24-1.09-.57-.8-1.83-.81-2.24-1.79.66-.67.79-1.85,1.23-2.75.8-.45,1.45.24,1.87.66.13,0,.26,0,.38-.02.59.6,1.97,1.03,3.1,1.02.85-.01,2.17-.92,2.3-1.58.15-.79-.66-2.24-1.07-2.78-1.37-1.8-3.8-3.48-4.63-5.52-1.18-1.12-1.9-2.75-2.73-4.26.1-.19.01-.52-.1-.81.42-1.89,1.03-3.71,2.54-4.75.13-.09.29-.07.44-.16.2-.11.35-.37.55-.49,1.21-.76,2.59-1.06,4.48-1.07-.08-.09-.03-.1,0-.2h0Z"/>
    <path class="cls-2" d="M103.33,88.65c1.54-.32,3.91-1.58,5.46-.63.44.27,1.74,1.83,1.95,2.41.28.75.18,1.69.3,2.61.06.45.26.87.31,1.34.09.78-.03,1.58.04,2.42.13,1.6.49,3.07.51,4.56-.41.89-1.22.8-2.19,1.1-.1-.17-.26-.27-.46-.32-.08-2.94-.03-5.9-.55-8.67-.19-1.02-.09-1.22-.72-1.92-.3-.34-.47-.69-.8-.91-.12-.07-.37.09-.26-.19-1.01-.15-1.88.07-2.79.53-.26.24-.48.52-.66.83.07,3.61-.31,6.74.1,10.09-.34.32-.57-.11-.83-.03-.57-.05-1.29-.47-1.59.14-.2-.17-.37-.37-.6-.51-.1-1.16-.03-2.6-.11-3.97-.02-.48-.23-.96-.25-1.4-.03-.94.17-1.98.2-2.97.09-3.53.17-6.85.02-10.1-.09-1.99-.5-3.96-.44-5.97.02-.73.16-1.43.04-2.16.71-.51,1.62.11,2.43.03.16.14.27.34.47.45.85,3.89.27,8.84.42,13.24h0Z"/>
    <path class="cls-2" d="M133.84,92.22c.05,2.27.22,4.26.34,6.65.49.37.83,0,1.47-.13,1.76-.32,2.17-.86,2.64-2.27.45-1.32,1.06-2.92.33-4.45-1.08-.95-4.03-1.3-4.78.2h0ZM133.73,88.11c.95-.07,2.23-.65,3.31-.14.92.44,1.87,1.07,2.61,1.44.3.69.88,1.06,1.34,1.56.17.89.47,1.76.49,2.6.04,1.58-.72,3.94-1.51,5.25-.54.91-1.66,1.43-2.27,2.25-1.35.49-2.94.35-4.31.58-.66.11-1.3.55-1.91.08-.12-.4-.16-.89-.55-.98.02-1.31,0-2.72-.11-4.1-.51-6.75-.41-13.33-1.35-20.14.15-.31.64-.25,1.01-.24.1,0,.24-.14.25-.14.74.08,1.95.53,2.14.85.23.39.22,1.38.28,2.07.22,2.92.14,6.21.57,9.07h0Z"/>
    <path class="cls-2" d="M80.6,91.29c-.53-.52-.49-.52-1.18-.76-.78-.27-1.65-.44-2.42-.03-1.41,1.1-2.2,2.81-1.94,5.53.55.97.79,2.13,1.64,2.63,1.24.73,2.73-.08,3.54-.62.21-.13.51-.24.69-.36,1.38-.97,1.39-2.82,1.01-4.89-.38-.56-.86-1.02-1.34-1.49h0ZM80.73,88.26c.3.02.29.03.64.04,1.09.68,1.85,1.74,2.61,2.99.4.67.7,1.07.78,1.98.15,1.79-.63,3.69-1.05,5.23-.49.49-.91,1.06-1.27,1.67-.83.12-1.36.82-2.13.96-.49.1-1.13-.07-1.58.21-.22-.1-.49-.14-.83-.11-.19,0-.24-.14-.33-.26-.76.29-1.47-.5-1.95-.86-.14-.1-.34-.07-.39-.11-.96-.83-1.67-2.01-2.54-2.86-.55-1.88-.61-3.21,0-4.77.64-1.65,1.37-3.39,2.69-4.35,1.77-.78,3.9-.92,5.37.24h0Z"/>
    <path class="cls-2" d="M89.11,88.85c.02.22-.06.32-.24.35-.03-.22.06-.33.24-.35h0Z"/>
    <path class="cls-2" d="M170.42,95.93c.17-.03.22.08.2.26-.17.03-.21-.08-.2-.26h0Z"/>
    <path class="cls-2" d="M69.11,114.01c-.24.13-.27.45-.3.73-.2,1.93.43,5.07.02,6.71-1.09.15-.89-1.43-.91-2.76-.02-1.85-.21-3.18-.06-4.71-.67-.49-2.05-.04-2.16-1.27.13-.22.57-.48.71-.43,1.22.35,3.03-.17,4.42.21.31.08.91.54.9.92-.04,1.01-1.76.36-2.61.59h0Z"/>
    <path class="cls-2" d="M64.58,112.73c.64.88.33,2.36.35,3.58.02,1.61.36,3.46-.21,4.63-2.24-.58-2.3-4.02-3.85-5.51-.12,1.3.2,4,.17,5.66-.26.03-.49.03-.66-.05-.8-2.38-.48-4.91-.45-7.64.78-1.13,1.89,1,2.39,2.05.59,1.21.97,2.36,1.45,3.05.36-1.61.14-3.43.1-5.52.09-.2.55-.39.71-.27h0Z"/>
    <path class="cls-2" d="M58.57,121.36c-1.36.46-1.09-1.46-1.17-2.61-.16-1.98-.8-4.44-.24-5.93,1.02-.62,1.15,2.12,1.28,3.32.21,1.96.17,4.18.14,5.22h0Z"/>
    <path class="cls-2" d="M73.74,113.05c1.42.43,3.71-.6,4.58.77-.72.06-1.41.09-1.95.64-1.05-.02-2.19-.13-2.81.44-.08.5-.04,1.17,0,1.6.5.39,1.04.05,1.64,0,.27.41.82.79,1.34.58,0,.16.01.32.02.48-.77.21-1.84.59-3.08.2.18.83-.27,1.25-.06,1.84.36,1,2.35-.09,2.79.68.24-.01.2-.34.38-.42.35.18.89.12,1.14.43.04.44-.07.73-.29.88-.85-.48-1.55.01-2.19-.46-.29.48-.98.18-1.5.3-.42.1-.69.5-1.03.44-.09-.16-.2-.29-.35-.39-.03-3.17-.2-6.07.1-8.7.55.19,1.18-.32,1.28.66h0Z"/>
    <path class="cls-2" d="M81.43,113.57c-.33.18-.77-.06-1.13.12-.21.93-.24,2.25-.11,3.31,1.75.35,2.66-2.74,1.24-3.43h0ZM81.55,117.86c1.08.9,2.28,1.66,2.72,3.33-.27.32-.46-.18-.82.03-.81-1.08-2.01-1.68-2.94-2.62-.27.77.37,2.26-.33,2.69-.28,0-.35-.27-.58-.33-.13-.3,0-.76-.05-1.12-.3-2.24-1.13-5.69.09-7.04.82-.08,1.64-.38,2.32-.1.3.13.83.63.98.87.88,1.43-.41,3.47-1.39,4.28h0Z"/>
    <path class="cls-2" d="M89.03,120.78c-1.57-.57-2-2.53-3.29-3.46-.25,1.51.4,3.52-.44,4.38-.31.01-.44-.2-.64-.33.31-2.53-.31-4.83-.55-7.29.16-.25.25-.59.66-.59.89,2.01,1.99,3.77,3.3,5.28.08-1.43-.45-3.21-.38-4.7.03-.58.35-1.57.96-1.03-.05,2.01.56,5.38.38,7.73h0Z"/>
    <path class="cls-2" d="M101.46,113.85c.02.75-.86.41-1.1.75-.39-.24-1.11,0-1.69.07.03,2.4.11,3.43.29,5.62-.62.72-1.05-.07-1.05-1.01,0-1.53-.04-3.8-.33-4.78-.37-.13-.96-.07-1.19.12-.52-.25-.97-.6-1.36-1-.04-.4.45-.26.54-.52,1.37.56,3.57.62,5.05.42.28-.03.59.15.83.32h0Z"/>
    <path class="cls-2" d="M92.46,117.04c.41.04.66.19,1.01.1-.25-.55-.27-1.4-.7-1.73-.09.56-.26,1.03-.31,1.63h0ZM94.47,116.96c.7.04.98-.06,1.58.07-.08.71-.78.36-1.29.62,0,1.08.81,1.76.94,2.92-1.32.51-1.31-1.77-1.93-2.59-.5.03-.71.08-1.38.06-.31.84-.31,1.97-.51,2.91-.38.18-.7-.04-.95-.24.04-2.57.61-4.21.86-6.52.3-.11.4-.43.6-.65.56-.27.8.14,1.17,1.01.18.41.47.97.56,1.31.03.13-.07.22-.05.28.08.22.49.58.41.83h0Z"/>
    <path class="cls-2" d="M120,117.85c.42.03,1.3.14,1.76-.14-.27-1.22-.78-2.14-1.32-3.04-.1,1.06-.53,2.14-.43,3.18h0ZM123.15,117.94c.03,1.54,1.22,2.06,1.09,3.54-1.41.05-1.22-1.85-1.93-2.66-.92-.19-1.67.15-2.52-.04-.39.95-.22,2.47-.75,3.28-.33-.12-.56-.36-.72-.68.46-3.11,1.09-6.05,1.63-9.08.65-.09.66.67.87,1.23.12.31.37.53.54.89.58,1.2.96,2.91,1.78,3.52h0Z"/>
    <path class="cls-2" d="M106.64,114.34c-.79,1.34-1.15,3.24-.36,5.01,2.16.98,2.5-2.84,1.64-4.36-.21-.07-.45-.1-.58-.26-.1-.22-.03-.31-.02-.56-.32-.13-.37.13-.68.17h0ZM108.51,120.17c-.07-.01-.05-.14-.13-.13-.16.06.12.24-.05.35-.42.09-1.03.4-1.36.62-.44-.1-1.04-.23-1.35-.72-.14-.23-.15-.67-.29-.97-.12-.27-.24-.31-.35-.83-.1-.42-.29-.95-.3-1.11-.07-1.22.31-2.41.61-3.4.28-.26.71-.34.85-.74,2.2-.4,3.62,1.71,3.72,4.55-.32.9-1.17,1.56-1.35,2.38h0Z"/>
    <path class="cls-2" d="M116.84,112.92c.11,1.99-.04,4.19.14,6.33-.04.29.3.12.27.41-.05.6-.35.93-.64,1.3-.75.23-.81-.35-1.23-.79-.24-.26-.57-.35-.72-.54-.16-.21-.27-.64-.48-.96-.17-.27-.45-.5-.6-.75-.37-.64-.56-1.37-1.08-1.78-.2,1.63-.03,3.46-.42,5.15-.3.35-.82.49-1.07-.03.24-.97-.09-1.91-.12-2.95-.02-.5.17-1.14.18-1.7.01-.43-.1-.82-.05-1.2.05-.41.3-.96.06-1.62.16-.37.68-.65,1.11-.54.14.16.27.42.15.7,1.65,1.11,2.15,3.63,3.37,5.28.32-.43,0-1.21.05-1.83.1-1.31-.2-3.33.19-4.59.33-.15.63-.04.89.1h0Z"/>
    <path class="cls-2" d="M103.15,113.64c.14.1.05.48.33.41-.02.22-.23.25-.23.5.16,1.9-.18,4.02.42,5.54-.11.45-.28.84-.65,1.02-.28-.15-.56-.31-.78-.53.05-1.27-.24-3.12-.19-4.72.03-.89.09-2.46,1.1-2.22h0Z"/>
    <path class="cls-2" d="M125.47,113.19c.57,2.01.51,3.8.7,6.38,1.11.28,2.46-.41,3.39-.08.14.16.17.44.16.77-1.04.45-2.85.31-4.19.53-.31-.1-.44-.4-.65-.61.09-2.37-.24-4.49-.59-6.6.27-.24.74-.54,1.18-.4h0Z"/>
    <path class="cls-2" d="M137.32,112.43c-.06.2-.29.24-.36.42.21.48-.04,1.21.32,1.6.22-.03.5-.51,1.01-.31.45-.44.8-.99.88-1.79-.69-.5-1.09.1-1.85.08h0ZM139.02,115.06c.38.84,1.09,1.34,1.68,1.95.57.59,1.28,1.11,1.61,1.95-1.37.32-1.67-1.18-2.62-1.58-.54-.71-1-1.54-1.8-1.94-.33,0-.35.3-.69.3-.24,1.08.57,2.96-.1,3.64-1.2-.62-.42-3.08-1.13-4.25.34-.75.08-2.21.01-2.83.59-.26,1.58-1.25,2.43-1.24,1.03,0,2.01,1.05,1.94,2.2-.04.86-.98,1.32-1.33,1.81h0Z"/>
    <path class="cls-2" d="M146.58,112.65c-.19.18-.75.35-1.07.18-.34.37-1.12.32-1.52.46-.24.51.09,1.18.07,1.82,1.09-.03,1.9.37,2.56.09-.1.24.11.59-.03.89-.84.08-1.77-.23-2.35.16-.03.81.34,1.71.23,2.61.79.05,1.56-.06,2.42-.17.18.27.44.49.23.86-.29.12-1.03.21-1.15-.09-.56.35-1.32.64-1.89.49-.53-.21-.36-.88-.44-1.4-.05-.33-.22-.63-.29-1-.39-1.91-.38-4.13-.45-6.17.53-.18.55.41.98.63.83.43,2.79-1.01,2.7.63h0Z"/>
    <path class="cls-2" d="M171.03,114.72c0,.2.38.32.21.46-.03.35-.31.21-.5.29-.47,1.6.16,3.92-.47,5.41-.29.11-.48.02-.71-.1-.08-1.52-.2-2.84-.39-4.77.04-.19.14-.34.23-.48-.86-.96-1.97-1.68-2.67-2.98-.71-.12-.36-1.27.2-1.29.78-.02,1.79,2.79,2.61,2.86.95-.37,1.39-2.82,2.22-3.46.36-.28.75-.1.78.37.02.32-.26.41-.36.62-.15.33-.1.73-.27,1.09-.09.2-.32.34-.42.56-.21.45-.17,1.03-.45,1.43h0Z"/>
    <path class="cls-2" d="M149.44,115.5c.7-.01.95-.25,1.52-.27-.13-.87-.35-2.21-1.07-2.65-.08,1.05-.38,1.74-.45,2.92h0ZM153.05,119.45c-.8.18-.78-1.16-1.28-1.56.1-.55-.33-.95-.38-1.53-.8.04-1.27.36-2.09.22-.44.62.13,2.6-.59,2.78-.9.24-.52-1.3-.45-1.73.08-.65.09-1.42.23-2.17.14-.81.25-1.48.23-1.96.13-.48.26-1.29.38-1.57.34-.34.86-.56,1.39-.26,1.06,1.05,1.36,3.11,1.92,4.77.26.77.9,1.9.63,3h0Z"/>
    <path class="cls-2" d="M155.4,111.67c1.12,1.32-.05,4.92.85,6.7,1.09.11,2.49-.93,2.7.42-.32.33-.7.12-1.2.19-1.39.2-2.51,1.18-2.95-.42-.08-1.83.19-2.97-.18-4.37.43-.69-.29-2.31.79-2.53h0Z"/>
    <path class="cls-2" d="M165.06,112.28c-.75.54-1.67.62-2.44,1.05.1,2.02.29,3.75.36,5.64-.35.2-.63-.08-.84-.23-.37-1.6-.29-3.56-.54-5.23-.74-.18-1.41,0-2.24-.31-.03-.26-.02-.49.03-.68.38-.39,1.17-.13,2.09-.29,1.64-.28,3.09-1.45,3.58.05h0Z"/>
    <path class="cls-2" d="M163.64,78.71c.39.33,1.46.65,2,.65.66.73-.26,1.22-.49,2.04-.04.17.06.34.02.47-.13.44-.47.69-.33,1.09-.92,1.54-1.53,3.37-2.21,5.14-.85-.06-1.57-.27-2.13-.65-.09-.61.07-1.41.44-1.57,0-.16-.08-.11-.06,0,.11-2.11,1.01-4.01,1.14-6.31.25-.07.4-.51.63-.23.2-.42.55-.6.99-.64h0Z"/>
    <path class="cls-2" d="M97.08,90.33c-.69.17-1.27-.14-1.77.27-.51-.47-1.4-.1-2.17-.24-.16.06-.19.24-.31.35-.03.7.29,1.54.23,2.42-.02.26-.2.54-.22.82-.14,1.89.35,5.65,1.94,3.75,1.02.23,1.45-1.17,2.32-1.11.76.05.85,1.28,1.05,2.25-.64.92-1.32,1.81-1.93,2.77-1.99.79-4.43.46-5.72-.91-.26-.71-.52-1.42-.91-1.98.04-.49-.07-1.26-.13-1.68-.28-1.84.14-4.91-.14-6.39-.22-1.16-2.45-.13-2.8-1.37,1.79-1.39,2.87-3.49,3.71-5.81.22-.14.24.02.44.04.2-.47.49-.86.98-1.05,1.33.77.56,3.1,1.34,4.59,1.29.23,3.03-.46,3.84.44.05.65.32,1.88.24,2.82h0Z"/>
    <path class="cls-2" d="M119.36,87.78c-.48.71-1.17,1.56-.97,2.73,1.59.08,3.59-.39,4.94-.75-.75-1.28-1.96-2.81-3.98-1.98h0ZM118.44,93c.78,1.71,1.32,3.7,2.99,4.38,2.11.1,3.49-.63,4.32-1.93.36.05.4-.22.76-.17,1.06,1.27.4,2.46-.62,3.46-1.42,1.4-5.08,2.77-7.09,1.37-.57-.67-1.09-1.43-1.74-2.01-.17-.79-.53-1.36-.91-1.91.07-.44-.06-1.02-.19-1.6-.28-1.19-.72-2.17-.41-3.76.03-.15.18-.3.24-.48.19-.7.35-1.66.66-2.38.54-1.25,1.76-2.51,2.95-2.82,1.08-.28,2.2-.25,3.56-.22.1.21.32.29.65.25.48.4.66.69,1.07,1.23.13.18.38.31.47.46.16.26.26.74.42,1.13.15.34.41.7.49.99.11.4,0,.87.12,1.28.08.26.53.55.49.92-.05.48-1.34.74-2.01.83-.51.07-1.37-.04-1.79,0-.25.03-1.09.36-1.26.39-1.18.18-2.29.15-3.17.6h0Z"/>
    <path class="cls-2" d="M172.4,91.47c-.6-.04-.82-.52-1.18-.83-1.15-.27-1.88-.23-2.59.51-.4,1.5-.02,2.36,1.08,2.92.37.19.9.36,1.24.62.49.39.63.96,1.12,1.03.81,1.19,1.6,3.28,1.18,5.27-.06.28-.32.48-.54.83-.07.12-.04.31-.11.41-.12.17-.4.33-.55.5-.25.28-.51.56-.93.71-.12.01-.03.23-.12.28-.23,0-.47.02-.7.03-.78.47-1.79.92-2.84.73-.06,0-.03-.18-.07-.2-.1-.05-.42.06-.51.02-1.15-.41-2.63-1.56-2.67-2.92-.03-1.16.78-1.87,1.29-2.68.23,0,.38.09.58.11.31.89.78,1.59,1.43,2.09,1.31.03,1.69-.85,2.3-1.51-.3-.96-.45-1.75-.86-2.39-.19-.29-.48-.37-.73-.64-.3-.33-.46-.81-.75-1.18-.18-.04-.12.15-.18.22-.39-.55-.79-.82-1.21-1.43-.38-.77-.53-2-.32-3.15-.03-.26.05-.03.19-.08.04-.21-.12-.19-.08-.4.3-.63.72-1.15,1.08-1.72,1.68-1.11,4.97-1.6,6.26.14.16.4.02.76-.28.89-.27.51-.08,1.47-.5,1.84h0Z"/>
    <path class="cls-2" d="M150.46,95.89c.27,0,.18-.34.5-.29.64-1.98,1.66-3.59,2.25-5.62.06-.21-.11-.16-.14-.26-.03-.28.13-.04.25-.08-.04-.9,1.1-1.61.72-2.79.92-.2,2.02.46,3.09.81-.18,1.42-.68,2.72-1.3,3.89-.73,1.37-1.4,2.74-2,4.19-.21.53-.71,1.27-.87,2.06-.22.13-.27.43-.49.56-.63,1.62-1.5,3.01-2.03,4.73-.66.73-.97,1.77-1.29,2.81-.55.58-.75,1.5-.99,2.39-.93,1.57-.5.48-1.23,2.25-1.35.02-2.39-.31-2.68-1.5.62-.62-.47,1.07.13.43-.09-.43.26-.44.15-.88,1.01-1.19,1.37-3.01,2.45-4.14.12-.81.6-1.27.94-1.86.23-.8.53-1.55.86-2.26-.93-1.57-1.78-3.44-2.71-5.27-.21-.42-.56-.75-.75-1.11-.22-.41-.28-.85-.49-1.12-.25-.33-.3-.36-.54-.85-.11-.22-.4-.57-.61-.92-.19-.31-.35-.66-.55-.92-.38-.51-1.27-1.17-1.34-1.62-.09-.56.47-1.26.84-1.38.17-.06.48,0,.7-.03.69-.12,1.33-.57,1.84-.28.7.4.94,2.22,1.83,2.55.61,1.46,1.03,3.14,2.08,4.08.29,1.01.99,1.55,1.38,2.44h0Z"/>
  </g>
  <g>
    <polygon class="cls-4" points="26.12 86.18 2.92 120.73 4.11 122.2 48.87 120.29 32.55 90.87 27.72 85.32 26.12 86.18 26.12 86.18"/>
    <path class="cls-3" d="M25,90.65c-.84.37-.25-.86-1.09-.48-.41.14-.19.85-1.03.59-.32,1.41-.64,2.8-1.95,3.31-.3,1.47.76,1.41,1.19,2.07-1.84,1.37-1.81,5.71-5.09,4.29.3.79,1.28.82,1.43,1.79-.7.36-1.21.51-1.56.62,1.14.92-.29.7-.72,1.37-1.12,1.78-1.71,4.56-3.7,5.02-.06,1.29-.52,2.23-1.72,2.5.68,1.37-.39.19-.76.84,1.72.31-1.08,1.18.11,1.86-1.89.41-1.41,2.95-2.71,3.89-.17-.46.24-1.58-.36-1.58,0,.42.1.92-.49.83-.27.87.87.15.59,1.02-1.1.29-.88,1.73-1.45,2.49,2.77-.63,7.27-.72,10.36-.6.04-.2-.02-.52.23-.55,10.32.86,18.53-.81,31.12-1.25-.59-2.79-3.08-4.11-4.05-5.63-.35-2.36-2.58-2.58-2.7-5.18-1.2.19-1.04-.94-.89-1.55-1.06.04-2.04-1.68-1.19-2.07-.82.46-.89-.14-1.62-.44-1.97-5.79-6.58-9.84-8.83-14.42.01.27-.45.37-.53.03.32-.05.62-.12.5-.56-.75.26-.71-.34-1.35-.19-1.27,1.81-1.82,4.25-3.96,5.29.57.91-.18,1.29-.68,1.91-.33-1.06-.08-2.07.36-2.96.43-.03.19.73.58.76.05-1.14.94-3.32,1.73-2.23-.03-.37.09-.59.22-.81h0ZM40.63,102.82c1.57.21,1.18,2.63,2.82,2.77.05,1.72.95,2.52,2.04,3.08-.11,1.82.92,2.36,2.03,2.82.12.45-.17.51-.5.56.38.36,1.26.6.61,1.3.2-.15.41-.3.78-.32.12.53,0,.84-.48.84.54.67,2.08,2.1,1.21,2.59.27.45.87.54,1.63.44.16,2.18,1.36,3.18,1.37,5.52-.25-.15-1.01-.56-.77.31-.48-.5-1.85,0-1.93-.95-.57,1.05-1.82-.68-3.15.72-.8.13-.6-.84-.87-1.29-.76.27.38.65.07,1.33-.21-.17-.91-1.07-.79.05-3.72-.23-9.24-.21-12.52.18-.02-.26-.04-.52-.05-.79-1.2.72-2.6.87-3.72.21-.71,1.05-5.66,1.12-7.18.42-2.91,1.71-9.41.18-10.82,1.95-2.29-1.27-6.23.22-9.1-.8-.28-.84.16-1.03.45-1.36-1.07-.03-.45-.2-.63-1.83,1.24-.41,1.74-1.47,1.7-3.03,1.23.18.52-1.37,1.79-1.17-.24-.8-.22-.5-.08-1.32,1.81.19.7-2.24,2.27-2.27-.19-.26-.63-.23-.58-.77,1.07.29.49-.9,1.57-.62-.03-.44-.05-.88-.08-1.32.23-.22.59-.32,1.05-.32,1.53-4.02,4.43-6.82,6.05-10.74.92-.03,1.2-.61.98-1.66.78.03.78-.64,1.56-.62.62-3.57,4-4.67,4.59-8.27,2.92-.68,2.18-4.6,5.02-5.35-.19-.26-.62-.24-.58-.77.88-.06,1.3-.52,2.38-.4,1.2.84-.3,1.38,1.4,1.25-1.09,1.21.38,4.72,1.57,4.17.39.06.08,2.01,1.44,1.78-.14.83.33.96.36,1.58,3.44,2.83,4.15,8.74,7.59,11.56.13.45-.18.51-.5.57h0Z"/>
  </g>
  <text class="cls-1" transform="translate(16.23 117.13) scale(.79 1)"><tspan x="0" y="0">72</tspan></text>
</svg>