<?xml version="1.0" encoding="UTF-8"?>
<svg id="Layer_1" data-name="Layer 1" xmlns="http://www.w3.org/2000/svg" viewBox="0 0 180 200">
  <defs>
    <style>
      .cls-1 {
        fill: #fff;
        font-family: AmericanTypewriter-Bold, 'American Typewriter';
        font-size: 20px;
        font-weight: 700;
      }

      .cls-2 {
        fill: #231f20;
      }

      .cls-2, .cls-3 {
        fill-rule: evenodd;
      }

      .cls-4 {
        fill: #1a2a38;
      }

      .cls-5 {
        fill: #0455a4;
      }

      .cls-3 {
        fill: #0059a5;
      }
    </style>
  </defs>
  <g>
    <polygon class="cls-3" points="27.54 88.93 4.07 123.3 5.24 124.78 50.01 123.22 33.93 93.68 29.15 88.08 27.54 88.93 27.54 88.93"/>
    <path class="cls-2" d="M26.38,93.39c-.85.37-.24-.86-1.09-.48-.41.14-.19.86-1.03.59-.34,1.4-.66,2.79-1.97,3.3-.32,1.47.75,1.41,1.17,2.07-1.85,1.36-1.86,5.69-5.12,4.25.3.79,1.28.83,1.42,1.8-.7.36-1.22.5-1.56.61,1.13.92-.3.69-.74,1.36-1.13,1.77-1.75,4.54-3.74,4.99-.07,1.29-.54,2.22-1.74,2.48.67,1.38-.39.18-.77.84,1.72.32-1.09,1.17.1,1.86-1.89.39-1.43,2.93-2.74,3.87-.17-.46.25-1.58-.35-1.58,0,.41.09.92-.49.82-.28.87.87.16.58,1.03-1.1.27-.9,1.73-1.47,2.48,2.77-.61,7.28-.66,10.37-.51.05-.21-.02-.53.24-.55,10.31.95,18.54-.66,31.13-1-.58-2.79-3.05-4.13-4.01-5.66-.33-2.36-2.56-2.6-2.65-5.2-1.2.18-1.03-.95-.88-1.55-1.06.03-2.02-1.69-1.17-2.07-.83.45-.89-.15-1.62-.46-1.92-5.8-6.5-9.89-8.71-14.49,0,.27-.45.36-.53.02.32-.04.62-.11.51-.55-.75.25-.71-.34-1.35-.2-1.28,1.8-1.86,4.24-4.01,5.26.56.91-.2,1.29-.7,1.91-.32-1.06-.07-2.08.38-2.95.44-.02.18.73.57.76.06-1.14.97-3.3,1.75-2.21-.03-.36.09-.59.23-.81h0ZM41.92,105.69c1.57.22,1.16,2.64,2.8,2.79.04,1.72.93,2.53,2.02,3.1-.12,1.82.9,2.36,2.01,2.83.12.45-.18.51-.51.56.38.36,1.25.61.6,1.3.2-.15.42-.3.78-.31.12.54-.01.84-.49.83.53.67,2.06,2.12,1.2,2.61.27.45.86.54,1.62.45.14,2.17,1.34,3.2,1.34,5.53-.25-.16-1.01-.57-.78.3-.48-.5-1.85,0-1.92-.97-.58,1.05-1.82-.7-3.16.7-.8.13-.6-.85-.87-1.29-.77.26.37.65.06,1.32-.21-.17-.9-1.07-.79.04-3.72-.25-9.24-.28-12.52.09-.01-.26-.04-.53-.04-.8-1.2.71-2.61.85-3.73.18-.71,1.04-5.67,1.07-7.18.36-2.92,1.68-9.42.1-10.84,1.86-2.28-1.29-6.23.17-9.09-.88-.27-.84.17-1.02.46-1.36-1.07-.04-.45-.21-.62-1.84,1.24-.4,1.75-1.46,1.72-3.02,1.23.19.53-1.37,1.81-1.16-.23-.81-.22-.5-.07-1.33,1.81.2.72-2.23,2.29-2.24-.19-.27-.63-.24-.57-.78,1.07.3.5-.89,1.57-.61-.02-.44-.04-.89-.08-1.33.23-.21.59-.31,1.05-.31,1.56-4.01,4.48-6.79,6.14-10.7.92-.02,1.21-.61.99-1.66.78.03.79-.64,1.57-.61.65-3.56,4.04-4.64,4.66-8.23,2.92-.66,2.22-4.58,5.07-5.31-.19-.27-.62-.25-.58-.77.88-.05,1.31-.52,2.39-.38,1.19.84-.31,1.38,1.39,1.26-1.1,1.2.34,4.72,1.54,4.19.39.07.07,2.01,1.43,1.8-.15.83.32.96.35,1.58,3.42,2.85,4.08,8.77,7.5,11.62.12.45-.18.51-.5.57h0Z"/>
  </g>
  <text class="cls-1" transform="translate(17.37 119.6) scale(.79 1)"><tspan x="0" y="0">73</tspan></text>
  <g>
    <path class="cls-5" d="M173.98,87.26c.38,2.05.21,2.24-1.56,2.36-4.07.27-8.14.13-12.21.02-5.49-.15-11-.04-16.61-.04-.42-6.79-2.97-12.76-6.93-18.43-2.13,1.72-3.37,4.05-5.65,5.45-.44-.47-.92-.82-1.13-1.29-.16-.36-.04-.88.05-1.31.05-.21.31-.37.48-.55,2.29-2.26,4.58-4.51,6.89-6.76.35-.34.76-.62,1.26-1.01,3.25,2.64,5.02,6.25,6.75,9.86,1.72,3.58,2.82,7.37,3.14,11.33,8.58.12,17.02.24,25.54.36Z"/>
    <path class="cls-5" d="M88.46,65.89c2.9,2.73,5.74,5.39,8.54,8.08,1.02.98.95,1.3-.46,2.82-1.99-1.77-3.99-3.55-6.22-5.53-3.53,5.92-6.42,11.78-6.67,18.84-.65.06-1.37.21-2.08.19-3.34-.06-6.67-.2-10.01-.24-1.85-.02-3.71.14-5.56.17-3.77.06-7.55.09-11.32.12-.36,0-.72-.09-1.25-.16v-2.31c1.83,0,3.49,0,5.15,0,5.82.02,11.63.05,17.45.07.43,0,.87-.04,1.3-.03.91.03,1.28-.39,1.41-1.31.87-6.29,3.01-12.1,6.71-17.29.88-1.24,1.71-2.55,3.01-3.43Z"/>
    <path class="cls-4" d="M63.3,111.63c2.41-5.08,4.74-9.69,8.09-14.07.78,2.23.59,4.39,1.06,6.43.5,2.16.85,4.36,1.25,6.55.39,2.11.75,4.22,1.11,6.22-.31.21-.42.34-.52.34-3-.03-2.84.42-3.47-2.7-.56-2.78-1.14-5.56-1.76-8.59-.35.46-.63.73-.8,1.05-1.36,2.64-2.69,5.29-4.05,7.93-.44.86-.96,1.68-1.63,2.83-.54-.72-.94-1.15-1.22-1.65-1.55-2.75-3.07-5.51-4.6-8.26-.15-.26-.32-.51-.63-1.01-.44,1.19-.56,2.21-.62,3.21-.13,2.03-.2,4.07-.28,6.11-.04,1.12-.3,1.43-1.22,1.38-.88-.05-1.2-.43-1.06-1.55.6-4.78,1.24-9.55,1.86-14.33.16-1.2.29-2.39.63-3.63,1.32,1.25,1.7,2.97,2.53,4.42.83,1.45,1.61,2.92,2.44,4.37.85,1.5,1.74,2.98,2.89,4.95Z"/>
    <path class="cls-4" d="M89.19,135.82c2,2.6,4.46,5.06,6.11,8.32-1.42.25-2.66.57-3.91.64-.38.02-.89-.58-1.18-1.01-1.52-2.25-2.98-4.55-4.47-6.82-.23-.36-.5-.69-.8-1.1-.48.1-.95.19-1.47.3v7.93c-1,.1-2.08.2-3.41.32-.07-.8-.18-1.5-.19-2.21-.03-4.82-.03-9.65-.06-14.47,0-.92-.09-1.83-.15-2.89,3.45-.82,6.86-.65,10.08.82,2.97,1.36,4.12,4.81,2.5,7.31-.7,1.08-1.92,1.81-3.06,2.84ZM83.41,133.99c1.93-.24,3.81.02,4.8-1.79.71-1.31,1.04-2.75.06-4.2-1.1-1.64-2.58-1.9-4.44-1.49-.75,2.37-.41,4.76-.43,7.47Z"/>
    <path class="cls-5" d="M137.29,63.92c-1.1,1.34-2.11,2.58-3.23,3.95-1.79-1.16-3.46-2.42-5.28-3.39-1.79-.96-3.69-1.74-5.61-2.4-1.96-.67-3.96-1.32-6.3-1.51v7.34c-.84.05-1.48.09-2.33.14-.04-4.39-.89-8.61.06-12.94,1.18-.56,2.52-.4,3.75-.19,6.85,1.15,12.94,4.02,18.35,8.35.19.15.33.36.6.66Z"/>
    <path class="cls-4" d="M174.57,117.06c-1.03,0-1.9.21-2.6-.05-1.17-.43-2.08-.02-3.1.38-2.38.93-4.44.28-5.75-1.89-1.75-2.9-2.67-5.95-1.24-9.32,1.25-2.94,4.22-4.19,7.16-2.91.5.22.99.46,1.49.7.64-2.13.13-4.34-1.57-6.58,1.61-.14,3.1-.31,4.6-.35.25,0,.64.53.74.88.15.52.11,1.1.12,1.65.09,5.06.17,10.12.25,15.18,0,.66-.06,1.33-.11,2.32ZM170.92,110.44h-.04c0-.74.04-1.48,0-2.21-.08-1.36-.89-2.33-2.15-2.66-1.32-.35-2.33.08-3.13,1.33-1.24,1.96-1.06,5.69.37,7.54.43.55.91.99,1.7.89,2.24-.29,3.41-1.68,3.32-3.97-.01-.31-.04-.61-.06-.92Z"/>
    <path class="cls-4" d="M110.04,104.09c-.13-2.35.63-4.65-2.12-6.34,2.03-.15,3.59-.26,5.41-.4.49,3.23.59,6.46.56,9.7-.03,3.26,0,6.52,0,9.73q-2.94.91-4.17-.25c-.49.21-1.01.39-1.5.64-3.09,1.63-6.38-.72-7.17-3.46-.52-1.81-.18-3.56.06-5.33.55-4.02,3.44-5.36,6.95-4.79.59.1,1.17.28,1.99.49ZM110.42,112.19c-.14-1.35-.4-2.35-.31-3.31.16-1.72-.81-2.6-2.11-3.33-1.23-.69-2.35-.49-2.98.77-1.2,2.42-1.31,4.98-.43,7.53.19.55.65,1.04,1.08,1.47.23.23.73.46.97.36,1.13-.47,2.33-.9,3.25-1.66.48-.39.43-1.42.53-1.84Z"/>
    <path class="cls-5" d="M92.6,68.55c-1.12-1.27-2.16-2.44-3.16-3.58,5.42-6.34,17.22-10.9,23.14-9.68.12,1.2.28,2.41.34,3.64.05.97-.3,1.28-1.58,1.26-3.28-.04-6.34.77-9.29,2.13-3.05,1.41-5.74,3.37-8.39,5.4-.24.19-.48.38-1.05.83Z"/>
    <path class="cls-4" d="M151.01,116.42c-1.44.39-2.54.86-3.67.95-2.06.15-3.74-1.04-4.35-2.79-.62-1.78.05-4.26,1.64-5.31.95-.64,2.08-1.04,3.17-1.44.92-.34,1.89-.52,2.83-.77.17-1.43-.22-2.06-1.42-2.21-1.3-.16-2.46.18-3.35,1.18-.64.72-1.27.95-1.98.13.96-3.18,6.24-4.11,8.53-2.68,1.11.69,1.72,1.82,1.91,3.06.22,1.46.25,2.94.3,4.42.05,1.36,0,2.72.04,4.08.02.77.09,1.52-.9,1.75-.91.2-1.87.91-2.64-.28-.06-.09-.19-.13-.09-.07ZM151.07,109.62c-.88.19-1.77.28-2.58.57-1.94.7-2.39,1.84-1.62,3.78.42,1.06,1,1.46,1.93,1.33,1.29-.18,1.92-.79,2.01-1.96.09-1.16.17-2.33.26-3.72Z"/>
    <path class="cls-5" d="M128.16,76.09c3.69,3.79,5.49,8.25,5.91,13.51-1.74.11-3.36.22-5.19.33-.37-2.77-.57-5.57-2.69-7.84-2.45,2.27-4.85,4.39-7.13,6.65-1.24,1.23-2.48,1.45-4,.72.5-1.2,9.22-10.1,13.09-13.36Z"/>
    <path class="cls-4" d="M97.95,137.66c-.08,2.51,1.08,4.33,3.03,5.06,1.67.62,2.9.09,4.55-1.97,1.05.03,1.18.64.88,1.49-.56,1.6-2.36,2.7-4.31,2.6-.98-.05-1.97-.16-2.94-.31-1.23-.18-2.07-1.02-2.93-1.84-2.17-2.07-3-4.51-1.95-7.39,1.09-2.98,3.42-4.7,6.43-4.83,3.2-.13,4.86.64,5.93,4.12.84,2.76.69,2.91-2.21,2.89-1.67-.02-3.34-.01-5.01,0-.48,0-.95.11-1.48.17ZM98.17,135.23c1.5-.1,2.87-.18,4.2-.27.26-2.1.1-2.46-1.16-2.64-1.75-.25-2.73.65-3.04,2.91Z"/>
    <path class="cls-4" d="M141.46,117.4c-1.11-.16-2.06-.3-3.15-.46-.05-.76-.12-1.42-.12-2.08-.02-2.41.03-4.82-.03-7.23-.05-1.93-.98-2.68-2.86-2.45-1.38.17-2.01.82-2.05,2.37-.07,2.35-.06,4.7-.08,7.05,0,.73,0,1.46,0,2.35-1.05.18-1.92.33-3.03.52-.03-1.06-.05-1.9-.08-2.74-.08-2.47-.02-4.95-.27-7.4-.23-2.24-.37-2.23-1.99-3.4.03-.11.06-.32.09-.32,1.87.05,3.71-.8,5.6-.1.36.13.82.02,1.23-.06.66-.12,1.31-.37,1.98-.45,1.82-.22,3.24.43,3.92,2.13.58,1.47.98,3.07,1.1,4.64.17,2.21,0,4.45-.03,6.67,0,.24-.1.47-.22.96Z"/>
    <path class="cls-4" d="M128.38,110.92c.04,1.43-.35,3.02-1.5,4.35-1.85,2.11-3.96,2.93-7.55,1.82-2.54-.78-4.47-3.47-4.46-6.21.02-3.1,1.19-5.6,4.06-7.16,1.36-.74,2.74-.74,4.11-.37,3.37.92,5.45,3.82,5.34,7.58ZM118.89,109.64c-.06.02-.13.04-.19.06.34,1.49.59,3.01,1.05,4.46.39,1.25,1.16,1.65,2.38,1.62,1.19-.03,1.88-.77,2.06-1.79.31-1.69.5-3.41.56-5.13.03-.76-.31-1.57-.63-2.29-.59-1.33-1.42-1.83-2.56-1.73-1.24.11-2.21,1.01-2.46,2.4-.14.79-.14,1.6-.2,2.4Z"/>
    <path class="cls-4" d="M115.42,134.93c.26-2.34-.92-3.46-3-2.88-.74.21-1.45.68-2.04,1.19-.61.53-1.12.68-1.98.02.38-.49.66-1.02,1.09-1.38,1.78-1.45,3.85-1.92,6.1-1.61,1.7.23,2.91,1.24,3.18,2.91.53,3.24.75,6.52.24,9.79-.15.95-.87,1.45-1.97.93-1.18-.56-2.05-.15-3.12.11-1.11.26-2.36.28-3.47.04-1.59-.34-2.84-1.31-3.04-3.1-.19-1.74.41-3.23,1.95-4.12,1-.58,2.14-.94,3.25-1.3.87-.28,1.8-.4,2.81-.61ZM115.49,136.88c-3.15.03-4.63,2.33-3.47,5.37.83-.19,1.73-.3,2.55-.61.38-.15.84-.65.88-1.03.11-1.2.04-2.41.04-3.72Z"/>
    <path class="cls-5" d="M93.48,89.96c.29-5.24,1.15-9.94,5.21-13.55,5.08,3.93,9.05,8.76,13.62,13.05-1.73.84-2.45.74-3.7-.48-1.99-1.94-3.96-3.9-5.96-5.83-.48-.47-1.04-.85-1.55-1.26-1.75,1.82-2.41,4.12-2.24,7.81-1.68.49-3.43.16-5.38.27Z"/>
    <path class="cls-4" d="M83.44,116.03c-1.63,1.35-3.19,1.57-4.84,1.42-1.7-.16-2.7-1.17-2.84-2.85-.23-2.87,1.01-4.71,3.78-5.57,1.29-.4,2.58-.79,3.77-1.15.11-.24.2-.35.2-.46.15-2.53-.46-3.07-2.83-2.33-.74.23-1.44.67-2.07,1.13-.63.47-1.18.61-1.93.09.34-1.23,1.3-1.87,2.37-2.31,1.64-.68,3.4-.63,5.11-.42,1.59.2,3.15,1.8,3.2,3.41.1,3.08,0,6.17-.03,9.26,0,.71-.38,1.17-1.15,1.15-1.07-.03-2.33.42-2.76-1.37ZM83.9,109.58c-1.25.46-2.09.67-2.84,1.05-1.41.72-2.06,3.16-1.25,4.49.12.2.31.4.51.51.94.48,3.46-.79,3.55-1.86.1-1.26.02-2.53.02-4.19Z"/>
    <path class="cls-4" d="M134.76,130.84q3.65-.62,5.06,2.38c.71,1.51,1.39,3.03,2.1,4.54.14.3.39.56.71,1.01.8-2.15,1.54-4.1,2.26-6.05.15-.41.27-.82.43-1.22.54-1.32.64-1.36,2.31-.83.22,1-.22,1.9-.58,2.8-1.42,3.56-2.89,7.1-4.3,10.66-.54,1.38-.94,2.81-1.47,4.19-.64,1.63-.98,1.71-2.78.67.37-1.05.68-2.17,1.16-3.22.49-1.08.51-1.98-.04-3.12-1.63-3.39-3.08-6.87-4.58-10.32-.18-.42-.19-.91-.29-1.49Z"/>
    <path class="cls-5" d="M123.89,78.19c-2.19-1.59-4.38-2.64-7-3.13-.17.86-.38,1.57-.42,2.29-.13,2.28-.27,4.56.31,6.82.44,1.72-1.04,2.27-2.23,3.36-.9-3.15.02-6.07-.17-8.95-.2-2.95-.32-5.9.18-8.81,2.89-.63,10.43,2.52,12.9,5.43-1.15.97-2.31,1.94-3.56,2.99Z"/>
    <path class="cls-4" d="M121.18,143.69c-.04-.75-.1-1.41-.1-2.07,0-4.01-.01-8.02.02-12.03.01-1.75-.01-3.45-1.88-4.83,1.85-.13,3.32-.23,4.79-.32.87-.05,1.23.42,1.22,1.24-.05,2.96-.09,5.92-.15,8.88-.04,2.04-.12,4.07-.18,6.11-.08,2.86-.49,3.23-3.71,3.04Z"/>
    <path class="cls-4" d="M131.3,127.1c-.09,1.25-.16,2.26-.24,3.47.77-.04,1.48-.07,2.19-.11.72,1.41.66,1.5-1.48,2.16-.56,2.57-.54,5.23-.54,7.87,0,1.56.37,1.78,1.98,1.57.3-.04.59-.1,1.08-.19-.08.46-.04.85-.2,1.08-.86,1.19-2.02,1.76-3.52,1.62-1.41-.13-2.14-.59-2.31-1.94-.28-2.14-.41-4.3-.54-6.45-.07-1.22-.01-2.44-.01-3.75h-1.76c-.54-1.9-.48-1.97,1.88-2.37,0-.46-.04-.95.01-1.42.04-.41.19-.81.3-1.26.99-.09,1.9-.17,3.18-.29Z"/>
    <path class="cls-4" d="M156.39,116.78c0-2.39,0-4.43,0-6.47,0-2.6-.03-5.2-.01-7.79.01-1.88-.03-3.73-2.03-4.92,1.86-1.26,3.59-.25,5.55-.33.08.83.23,1.59.22,2.35-.04,4.27-.13,8.53-.18,12.8,0,.67.13,1.35.22,2.02.18,1.47.02,1.79-1.36,2.13-.68.17-1.42.13-2.41.21Z"/>
    <path class="cls-4" d="M100.13,114.46c-1.22,1.77-2.94,2.72-5.04,2.94-3.18.34-5.27-1.08-5.94-4.22-.35-1.66-.4-3.43-.31-5.13.04-.85.5-1.84,1.09-2.48,2.75-3,7.84-3.08,9.99.84-.32.27-.66.56-1.01.86-.24-.18-.44-.25-.52-.39-.77-1.36-1.95-2.21-3.48-1.91-1.69.33-2.57,1.68-2.69,3.37-.1,1.4-.13,2.83.05,4.22.18,1.36,1.07,2.39,2.42,2.78,1.29.37,2.4-.08,3.31-1.11.81-.91.86-.87,2.12.23Z"/>
    <path class="cls-5" d="M112.65,69.79c.1,1.24.22,2.28.27,3.32.05,1.11-.24,1.48-1.32,1.56-2.62.2-4.83,1.34-6.9,2.86-.43.32-.87.64-1.02.75-1.35-1.13-2.56-2.15-3.95-3.32,2.8-2.37,5.8-3.83,9.01-4.88,1.24-.4,2.54-1.03,3.9-.3Z"/>
  </g>
</svg>