<?xml version="1.0" encoding="UTF-8"?>
<svg id="Layer_1" data-name="Layer 1" xmlns="http://www.w3.org/2000/svg" viewBox="0 0 180 200">
  <defs>
    <style>
      .cls-1 {
        font-family: AmericanTypewriter-Bold, 'American Typewriter';
        font-size: 20px;
        font-weight: 700;
      }

      .cls-1, .cls-2 {
        fill: #fff;
      }

      .cls-2, .cls-3, .cls-4 {
        fill-rule: evenodd;
      }

      .cls-3 {
        fill: #231f20;
      }

      .cls-5 {
        letter-spacing: -.07em;
      }

      .cls-4 {
        fill: #0059a5;
      }
    </style>
  </defs>
  <g>
    <path class="cls-3" d="M163.03,68.31c-2.84-.5-5.89.49-8.65.23-1.18-.11-2.4-.86-3.49-.91-1.56-.06-3.06.72-4.66.91-2.09.24-4.18-.43-6.32-.46-1.16-.01-2.32.54-3.49.46-8.24-.61-18.44-.95-27.44-.68-9.04.27-20.62-.36-31.26.45-1.96.15-3.91.57-5.82.68-4.33.25-8.13.41-12.14.68-4.87.32-8.74-.67-10.81,3.62-2.89,13.33-.27,32.71.33,46.21.16,3.5-.29,7.54.83,9.28.37.59,1.5.91,2.49,1.59.95.65,1.64,1.59,2.33,1.81,3.04.99,7.29.6,11.14.45,1.87-.07,3.82.28,5.65.23,1.96-.06,3.88-.7,5.65-.68,2.89.04,5.75.64,7.98.91,2.53.29,5.41.31,8.15.23,4.37-.14,8.97-.2,13.47-.46,3.38-.2,6.77-.11,10.14-.23,5.42-.19,10.87-1.31,16.3-1.36,5.73-.06,11.34-.05,16.63-.68,1.45-.17,2.89-1.02,4.32-1.13.76-.06,1.6.36,2.33.23.76-.14,1.4-.8,2.16-.91,1.44-.19,2.88.29,4.32,0,1.77-.35,3.19-1.26,4.66-1.58.21-1.08.9-1.49,1.49-2.04,1.14-3.64.8-8.03.83-12.23.03-4.39.46-8.92.33-13.14-.04-1.19-.45-2.44-.5-3.62-.35-8.51.89-19.99-2.66-26.95-1.44.14-2.78-.63-4.32-.91h0ZM167.35,130.15c-7.88,1.55-16.85,3.75-26.77,4.08-3.16.11-6.13,1.1-8.48,1.14-1.49.01-3.16-.54-4.65-.68-4.24-.42-8.87.07-13.3,0-11.48-.18-24.23,1.38-36.91.46-2.88-.21-5.8-.27-8.82-.46-4.8-.3-10.19.95-13.97-.45-1.97-.73-4.98-3.03-5.82-4.98-1.11-2.6-.82-6.68-1-11.33-.23-5.81-.73-12.28-1.16-18.12-.14-1.87-.54-3.7-.66-5.43-.23-3.05.07-6.47,0-9.51-.08-3.09-.5-6.86-.17-8.83.73-4.34,3.05-7.67,5.99-9.06,2.97,1.27,6.24-.13,9.48-.22,4.17-.13,8.36.6,12.64.22,4.6-.4,9.2-1.43,13.8-1.36,4.43.06,8.81-.22,13.3-.23,7.91-.02,15.33.18,22.61-.23.3-.02.42,0,.5,0,9.01,0,20.34.42,30.59.23,3.77-.07,7.43.36,11.31,1.36,1.09.28,2.08.24,2.66.68,2.34,1.74,2.25,9.57,2.66,14.72.62,7.75,1.11,15.9,1.17,24.01.02,2.92-.07,6.31-.33,9.28-.26,2.93-.07,6.27-.67,8.61-.72,2.83-2.64,4.18-3.99,6.12h0Z"/>
    <path class="cls-2" d="M167.35,69.22c3.55,6.96,2.31,18.44,2.66,26.95.05,1.19.46,2.43.5,3.62.12,4.22-.3,8.75-.33,13.14-.03,4.2.31,8.59-.83,12.23-.6.55-1.29.96-1.49,2.04-1.47.33-2.89,1.23-4.66,1.58-1.44.29-2.88-.19-4.33,0-.76.11-1.4.77-2.16.91-.73.13-1.57-.29-2.33-.23-1.43.12-2.87.96-4.32,1.13-5.29.64-10.9.63-16.63.68-5.42.05-10.88,1.17-16.3,1.36-3.37.12-6.75.03-10.14.23-4.5.26-9.09.32-13.47.46-2.74.08-5.62.07-8.15-.23-2.23-.26-5.08-.87-7.98-.91-1.77-.02-3.69.62-5.65.68-1.83.05-3.78-.3-5.65-.23-3.85.15-8.1.54-11.14-.45-.69-.22-1.38-1.16-2.33-1.81-.99-.68-2.11-1-2.49-1.59-1.13-1.74-.68-5.78-.83-9.28-.6-13.49-3.23-32.88-.33-46.21,2.07-4.29,5.94-3.3,10.81-3.62,4.01-.27,7.81-.43,12.14-.68,1.91-.11,3.86-.53,5.82-.68,10.64-.82,22.22-.19,31.26-.45,8.99-.27,19.2.07,27.44.68,1.17.08,2.33-.47,3.49-.46,2.13.02,4.23.69,6.32.46,1.6-.19,3.1-.97,4.66-.91,1.09.05,2.31.8,3.49.91,2.76.26,5.81-.73,8.65-.23,1.54.28,2.88,1.04,4.32.91h0Z"/>
    <path class="cls-3" d="M97.24,82.07c.32.61.49,1.32.07,1.93-.16-.12-.39-.16-.6-.21-.22-.43-.16-.74-.2-1.29-.7-.05-1.55-.05-2.28.14-.17.25-.29.55-.47.79.02,1.29.73,2.05,1.41,2.72.43.43.96.64,1.41,1.08,1.09,1.03,1.55,3.82.54,5.51-1.1.81-3.12,1.1-4.36.36-.22-.83-.5-2.87.27-2.87.83.01.3,2.14,1.01,2.51,2.01.28,3.1-1.11,2.48-3.36-.1-.36-.49-.86-.87-1.29-.33-.38-.69-.82-1-1.15-.81-.85-2.24-1.28-1.88-3.22.12-.62.75-1.57,1.34-1.79,1-.37,2.21-.05,3.15.14h0Z"/>
    <path class="cls-3" d="M166.86,111.19c.36.62.54,1.36.06,1.98-.18-.12-.44-.16-.68-.22-.25-.43-.17-.76-.22-1.32-.79-.06-1.76-.07-2.59.13-.19.25-.34.56-.54.8.02,1.32.81,2.1,1.57,2.8.48.44,1.08.67,1.59,1.11,1.23,1.08,1.73,3.94.56,5.66-1.26.82-3.55,1.1-4.95.33-.24-.85-.54-2.95.33-2.94.94.01.32,2.2,1.12,2.58,2.28.29,3.52-1.11,2.84-3.43-.11-.37-.55-.88-.98-1.33-.37-.39-.78-.85-1.13-1.18-.91-.88-2.54-1.32-2.1-3.32.13-.63.86-1.6,1.53-1.82,1.13-.38,2.51-.04,3.57.17h0Z"/>
    <path class="cls-3" d="M146.1,82.07c.32.61.48,1.32.06,1.93-.16-.12-.39-.16-.6-.21-.22-.43-.16-.74-.2-1.29-.7-.05-1.55-.05-2.28.14-.17.25-.29.55-.47.79.02,1.29.73,2.05,1.41,2.72.42.43.96.64,1.41,1.08,1.09,1.03,1.55,3.82.54,5.51-1.1.81-3.12,1.1-4.36.36-.22-.83-.5-2.87.27-2.87.83.01.3,2.14,1.01,2.51,2.01.28,3.1-1.11,2.48-3.36-.1-.36-.49-.86-.87-1.29-.33-.38-.69-.82-1.01-1.15-.81-.85-2.24-1.28-1.87-3.22.12-.62.74-1.57,1.34-1.79.99-.37,2.21-.05,3.15.14h0Z"/>
    <path class="cls-3" d="M110.2,88.72c.76.02,1.71-.03,2.28,0-.29-1.54-.74-2.89-1.17-4.25-.33,1.47-.73,2.85-1.11,4.25h0ZM111.68,81.79c.96,3.65,2.02,7.39,2.9,11.34.43.16,1.18-.09,1.23.55-.88.4-1.9.48-2.53-.23.01-.22.11-.34.31-.32-.26-1.12-.48-2.28-.8-3.31-.77-.21-2,.28-2.84.23-.28.9-.44,1.96-.68,2.91.21.31.81.13.87.63-.58.13-2.24.28-2.71-.24.03-.35.4-.28.68-.32.66-2.09,1.29-4.92,1.91-7.09.23-.81.6-1.59.68-2.28.06-.53.13-2.27.99-1.89h0Z"/>
    <path class="cls-3" d="M106.04,82.01c.04.63-.1,2.03-.18,2.55-.3-.3-.43-1.38-.73-1.7-1.02-.32-2.24-.18-3.36-.09-.38.89-.22,2.35,0,3.88.75.03,1.43.48,1.76-.22.14.25-.08.76,0,1.2-.62-.19-1.29-.16-1.9-.15.09,1.38-.38,3.33-.21,4.7.8.31,2.04.16,2.96.3.77.12,1.3,0,1.83-.82.02.78,0,1.39-.21,2.17-2.13-.48-4.62-.2-6.56-.37.17-.47.7-.55.91-.97-.07-3.4.42-6.93-.07-9.92-.28-.28-.73-.37-1.05-.6-.01-.09.01-.13.07-.15,1.12-.21,1.79-.34,2.86-.21,1.22.15,2.76.01,3.88.42h0Z"/>
    <path class="cls-3" d="M126.63,81.64c.5-.04.44.49.8.6.17.69,1.12,1.57.41,2.13-.3-.08-.51-.25-.54-.6-.86-.53-2.28-1.06-3.56-.73.07,1.24.4,2.3.07,3.33.12.18.03.55.27.6-.15.08-.31.36,0,.4-.27,1.52.05,3.3.2,4.72.28.26.81.26,1.01.6-.04.32-.35.37-.34.74-1.12.15-2.04.2-2.96.07-.05-.24-.24-.34-.2-.67.13-.29.57-.28.81-.47.03-3.69-.36-5.82-.2-9.32-.86.07-2.08-.21-3.03.07-.58.17-.97.89-1.48.47.4-.67.83-1.31,1.35-1.86.45-.09.55.16.94.13.06.19-.09.17-.07.33,2.77,0,4.35,0,6.19.07.15-.16-.04-.66.34-.6h0Z"/>
    <path class="cls-3" d="M146.88,111.02c.42-.03.36.49.66.6.13.69.92,1.58.32,2.14-.25-.08-.41-.26-.44-.6-.7-.54-1.87-1.09-2.94-.76.05,1.25.32,2.31.03,3.34.1.18.02.55.22.6-.13.09-.26.37,0,.4-.23,1.52.02,3.31.13,4.74.23.26.67.27.83.61-.03.32-.29.37-.28.73-.93.14-1.68.19-2.45.05-.04-.24-.2-.34-.16-.67.11-.29.47-.27.67-.46.06-3.71-.25-5.84-.09-9.35-.71.07-1.72-.23-2.51.05-.47.16-.81.89-1.23.46.34-.67.7-1.31,1.13-1.86.37-.09.45.17.78.14.04.19-.08.17-.06.33,2.29.01,3.6.02,5.12.11.13-.16-.02-.66.28-.6h0Z"/>
    <path class="cls-3" d="M132.7,82.98c-.63-.1-1.45.37-1.66.56-.67.61-1.47,2.58-1.59,3.54-.42,3.38,2.2,7.3,5,5.06.66-.53,1.1-1.28,1.21-2.25.27-2.34-.41-4.44-1.44-5.86-.64-.3-.84-.94-1.51-1.04h0ZM132.09,81.61c2.19-.33,3.87,1.17,4.39,2.73.51,1.52.69,4.39.08,6.19-.37,1.08-1.23,2.3-1.97,2.73-.5.29-1.29.49-1.89.49-3.79-.03-5.42-5.49-4.16-9.01.48-1.34,1.88-2.87,3.56-3.13h0Z"/>
    <path class="cls-3" d="M112.35,112.5c-.57-.1-1.33.36-1.52.55-.62.61-1.37,2.57-1.48,3.53-.41,3.37,1.95,7.31,4.52,5.09.61-.52,1.02-1.27,1.12-2.24.26-2.34-.33-4.44-1.27-5.88-.58-.3-.75-.94-1.37-1.05h0ZM111.81,111.13c2-.32,3.51,1.19,3.98,2.76.45,1.52.59,4.39.02,6.19-.34,1.07-1.14,2.29-1.82,2.72-.46.28-1.18.48-1.73.47-3.46-.05-4.9-5.52-3.72-9.03.45-1.34,1.74-2.87,3.27-3.11h0Z"/>
    <path class="cls-3" d="M77.34,95.09c.73.07,2.02.68,2.52,1,.89.59,1.78,2.2,2.03,3.11.17.62.74,1.85,1.49,1.84.63,0,.92-.95.96-1.72.03-.67-.11-1.55-.36-2.28-.27-.77-.45-1.57-.72-2.11-.74-1.48-2.36-2.32-4.31-2.72-1.23-.26-2.94.18-3.77.61-.28.14-.49.45-.78.67-.89.67-1.66,1.24-2.45,1.95-.18.58-.55,1.02-.06,1.44,1.94-.4,3.33-1.97,5.45-1.78h0ZM78.84,96.09c-.88-.24-1.39-.55-2.34-.45-1.75.2-2.97,1.42-4.61,1.72-.49-.23-.68-.74-.78-1.34.4-1.05,1.47-1.82,2.51-2.61,1.31-1,2.2-1.64,4.25-1.78.81-.05,1.27.27,1.86.44.36.11.76.11,1.08.22,1.59.56,2.54,1.96,3.23,3.56.71,1.65,1.35,3.4.42,5.28-1.13,1.05-2.27-.31-3.05-1.44-.21-.31-.43-.61-.66-.89-.64-.82-1.31-1.91-1.91-2.73h0Z"/>
    <path class="cls-2" d="M71.9,96.87c-.49-.42-.12-.86.06-1.44.79-.71,1.57-1.28,2.45-1.94.29-.22.5-.53.78-.67.83-.43,2.54-.87,3.77-.61,1.95.4,3.57,1.25,4.31,2.72.27.55.45,1.34.72,2.11.25.73.39,1.61.36,2.28-.04.77-.33,1.72-.96,1.72-.76.01-1.32-1.22-1.49-1.84-.25-.91-1.14-2.52-2.03-3.11-.49-.33-1.79-.94-2.52-1-2.11-.19-3.5,1.38-5.45,1.78h0Z"/>
    <path class="cls-3" d="M155.88,82.12c-.16.57-.73.35-1.08.48-1.46.54-1.31,2.37-2.41,3.38-.18.03-.29.77-.5.84-.01,1.28,1.09,2.55,1.46,3.59.77.86.96,1.1,1.66,2.03.38.05.61.27.91.41-.25.66-1.36.8-1.82.48-1.51-1.05-2.48-4.19-3.56-5.6-.48.62-.28,1.86-.34,3.01-.03.71-.19,1.45-.17,2.12.05.33.53.14.63.41-.39.58-1.66.39-2.33.41.14-.52.68-.55.85-1.03.18-2.41-.06-5.26-.17-7.59-.04-.73.16-2.05-.19-2.47-.28-.09-.63-.11-.91-.2.32-.59,1.07-.19,1.65-.21.31-.3.87-.11,1.19-.07.14.17-.27.26-.28.48-.12.84-.4,3.36.19,3.77,1.1-1.17,1.72-2.48,2.66-3.83.02-.18-.08-.22-.23-.21.86-.23,1.99-.27,2.79-.21h0Z"/>
    <path class="cls-3" d="M165.28,81.86c-.09.38-.41.53-.82.58-1.21,1.87-2.04,4.13-3.29,5.96.1,1.46-.15,2.74-.06,4.28.1.33.61.23.7.58-.88.12-2.22.19-3.29.06.13-.36.61-.37.95-.52.1-1.06-.14-1.98-.13-2.92,0-.56.22-1.12.13-1.68-.08-.46-.47-.95-.7-1.43-.68-1.44-1.12-3.09-1.96-4.4-.19-.04-.55.09-.63-.07.78-.54,2.33-.16,3.17-.13-.19.34-1.02.04-1.27.33.29.87.72,1.55,1.08,2.52.23.61.61,2.27,1.33,2.2.44-.04,1.11-1.49,1.39-2.01.32-.6,1.73-2.97.12-2.98.65-.59,2.19-.28,3.29-.39h0Z"/>
    <path class="cls-3" d="M74.05,104.93c1.11,2.28-1.42,3.55-2.28,5.06-.06-.83.54-1.73.42-2.61-1.27-.59-.91-2.19.42-2.39.17-.03.11.16.24.16.17,0,.78-.4,1.2-.22h0Z"/>
    <path class="cls-3" d="M95.86,102.49c.25-.74,1.17-.48,1.7-.64.74-.22,1.49-.77,1.6-1.64.11-.82-.32-2.45-.85-3.1-.67-.82-2.02-1.13-3.02-.64-.08,4.03.28,7.64.28,11.58.63.37,1.88.12,2.07.91-.86.33-2.9.58-4.24,0,.06-.52.41-.75.75-1,.18-2.86.01-5.65-.37-8.76-.16-1.29-.16-2.33-.76-3.37,2.99-.95,6.51-.22,7.82,1.74.49,1.81-.02,3.5-.94,4.46-1,.66-3.18,1.19-4.05.46h0Z"/>
    <path class="cls-3" d="M94.71,117.11c.18-.66.87-.42,1.26-.55.55-.2,1.11-.68,1.2-1.45.09-.73-.22-2.17-.61-2.75-.49-.73-1.49-1.01-2.23-.59-.09,3.57.15,6.76.12,10.25.46.33,1.4.12,1.53.82-.64.29-2.15.5-3.14-.02.05-.46.31-.67.57-.89.15-2.52.05-5-.22-7.75-.11-1.14-.1-2.06-.53-2.99,2.23-.83,4.83-.16,5.79,1.57.35,1.61-.04,3.1-.73,3.95-.75.57-2.37,1.03-3.01.38h0Z"/>
    <path class="cls-3" d="M119.47,117.05c.2-.63.94-.4,1.37-.53.6-.19,1.21-.65,1.3-1.39.09-.7-.24-2.09-.66-2.65-.53-.7-1.62-.98-2.42-.56-.09,3.42.17,6.5.14,9.86.5.32,1.52.11,1.66.79-.7.28-2.33.48-3.41-.02.05-.44.33-.64.61-.85.16-2.42.05-4.81-.24-7.45-.12-1.1-.11-1.98-.58-2.88,2.41-.8,5.23-.15,6.28,1.52.38,1.55-.04,2.98-.79,3.8-.81.55-2.57.99-3.26.36h0Z"/>
    <path class="cls-3" d="M108.06,98.04c-.19-1.52-2.04-2.09-3.67-1.31.28,1.46.1,3.61.29,4.87,1.93.2,3.6-1.71,3.37-3.56h0ZM103.72,94.96c.08-.02.09.03.09.09.31.45,1,.18,1.45.19,1.79.04,3.4.72,4.15,1.97.55,1.93-.42,3.51-1.54,4.58.88,1.65,1.59,4.83,2.64,6.3.36-.01.61,0,.29.19.9.45,2.07-.49,2.7.28-.45,1.04-2.88,1.48-4.14.56-.31-.22-1.35-2.87-1.68-3.3-.82-1.09-1.15-2.16-1.45-3.46-.56-.19-.87.1-1.54.19-.02,1.47-.02,3.77-.1,5.71.48-.01,1.37.09,1.54.65-1.45.49-3.29.67-4.63.37-.07-.72.76-.57,1.06-.94.14-4.36-.48-7.47-.29-11.97.03-.44-.54-.28-.48-.75.47-.52,1.86.04,1.93-.66h0Z"/>
    <path class="cls-3" d="M137.22,113.43c-.13-1.27-1.57-1.76-2.84-1.11.2,1.22.05,3.02.19,4.06,1.5.18,2.81-1.41,2.65-2.95h0ZM133.87,110.83c.06-.01.07.03.07.08.23.37.78.15,1.12.16,1.39.05,2.64.62,3.21,1.67.41,1.61-.35,2.93-1.23,3.82.67,1.38,1.2,4.04,2.01,5.27.29-.01.48,0,.22.16.7.38,1.61-.39,2.1.25-.36.87-2.25,1.22-3.23.45-.23-.19-1.03-2.4-1.28-2.77-.62-.91-.87-1.81-1.1-2.9-.44-.16-.68.08-1.2.14-.03,1.23-.04,3.15-.11,4.77.37,0,1.06.09,1.19.56-1.13.4-2.56.54-3.6.28-.05-.61.59-.47.83-.77.14-3.64-.32-6.25-.14-10,.03-.37-.42-.24-.37-.63.37-.43,1.45.05,1.5-.54h0Z"/>
    <path class="cls-3" d="M104.73,113.47c-.14-1.3-1.63-1.79-2.94-1.14.21,1.24.05,3.08.2,4.15,1.56.17,2.91-1.44,2.74-3.01h0ZM101.26,110.82c.07-.01.08.03.08.08.24.38.8.16,1.16.17,1.44.04,2.73.63,3.32,1.7.43,1.64-.36,2.98-1.27,3.89.69,1.41,1.24,4.12,2.08,5.38.3-.01.49,0,.23.16.72.39,1.66-.4,2.17.26-.37.88-2.33,1.24-3.34.45-.24-.19-1.07-2.45-1.32-2.82-.65-.93-.91-1.84-1.14-2.95-.46-.16-.71.08-1.24.15-.03,1.25-.04,3.21-.12,4.86.39,0,1.1.08,1.24.56-1.17.41-2.65.55-3.73.29-.05-.62.62-.48.86-.79.14-3.71-.33-6.36-.14-10.19.03-.37-.43-.25-.38-.64.38-.43,1.5.05,1.56-.55h0Z"/>
    <path class="cls-3" d="M162.49,97.84c-.18-1.52-2.04-2.09-3.66-1.31.28,1.46.1,3.61.29,4.87,1.93.2,3.6-1.71,3.37-3.55h0ZM158.15,94.76c.08-.02.09.04.1.09.3.45,1,.18,1.45.19,1.79.04,3.4.72,4.15,1.97.54,1.92-.42,3.51-1.54,4.58.88,1.64,1.59,4.83,2.64,6.3.37-.02.61,0,.29.19.9.45,2.06-.48,2.7.28-.45,1.04-2.88,1.48-4.15.56-.3-.22-1.35-2.87-1.68-3.3-.81-1.08-1.14-2.16-1.44-3.46-.57-.19-.88.11-1.54.19-.02,1.47-.02,3.77-.1,5.71.48-.01,1.36.09,1.54.66-1.45.48-3.29.67-4.63.37-.07-.73.76-.57,1.06-.94.14-4.36-.48-7.47-.29-11.97.03-.44-.54-.28-.48-.75.47-.51,1.86.05,1.93-.65h0Z"/>
    <path class="cls-2" d="M77.53,117.22c.44-.04.76.03,1.08.11.35.62.53,1.68,1.49,1.56.35.82,1.68,1.41,2.45.61-.37-.73-1.5-1.05-1.68-1.78.79-.05,1.03.47,1.8.33.1-.15.1-.62,0-.77.41-.29.67-.9.12-1.22.13-.18.27-.34.3-.61-.32-.52-1.32,0-1.86.11.27-1.17,1.42-1.54,2.04-2.39-.06-.32-.25-.51-.48-.67-1.18.09-1.47,1.01-2.21,1.5-.28-.02.02-.58-.3-.56-.6.03-.81.44-1.08.78-.49.13-1.38.23-1.62-.16.17-.59.38-1.12.72-1.56.87-1.11,1.58-2.08,3.11-2.5.52-.14.97-.18,1.56.22,1.35.92,2.11,3.21,1.92,5.28-.06.59.14,1.22.12,1.72-.08,1.72-.64,3.88-1.92,4.67-.6.37-1.56.69-2.46.44-1.42-.4-2.38-1.29-2.93-2.5-.03-.89-.47-1.77-.18-2.61h0Z"/>
    <path class="cls-2" d="M80.99,118.77c.24.13.47.26.66.45,0,.19-.22.17-.42.17-.11-.18-.19-.38-.24-.61h0Z"/>
    <path class="cls-3" d="M136.4,107.99c.44-.22,1.32.23,1.09.86-.74.82-2.28.19-3.02.22-.11-.86.15-.86.48-1.16-.49-3.21-1.29-4.96-1.68-8.3-.49.31-.96,6.34-1.99,8.17-.36.02-.54-.17-.84-.22-1.14-2.86-1.8-6.11-2.94-8.74-.45,3.63-.7,5.96-1.41,9.26.18.39.2.69.42.54-.26,1.18-2.19,1.02-2.61.54.17-.58.57-.85.84-1.29.6-4.56.76-8.11,1.57-12.38.28.18.35-.27.84-.11.5.28.41,1.3.93,1.29.72,2.78,1.71,5.21,2.43,7.98.97-3,1.53-6.52,2.52-9.49.15.06.49-.13.5.11,1.86,3.21,1.55,9.07,2.86,12.73h0Z"/>
    <path class="cls-3" d="M80.75,98.81c.22.29.45.58.66.89.78,1.14,1.92,2.5,3.05,1.45.93-1.88.3-3.63-.42-5.28-.69-1.59-1.65-2.99-3.23-3.56-.32-.11-.72-.11-1.08-.22-.59-.18-1.05-.5-1.86-.44-2.05.14-2.94.78-4.25,1.78-1.04.8-2.11,1.56-2.51,2.61.1.6.29,1.1.78,1.33,1.64-.3,2.86-1.52,4.61-1.72.94-.11,1.46.2,2.33.45.61.82,1.28,1.91,1.92,2.72h0ZM76.98,88.97c.46-.21,1.3-.04,1.8-.28.77-.38,1.28-1.85,1.74-2.67.78.04.95,1.29,1.62,1.34.37.02.58-.32.96-.44.73-1.48.19-4.19-1.56-4.56-.38-.5-.56-1.19-.48-2.11,1.12-1.8,3.61.14,4.49,1.22.43.53.88.88,1.02,1.5.18.79.03,1.81.06,2.72.04,1.77-.29,3.34-1.5,4.34-.49.14-.7-.34-1.14-.33-.43.01-1.14.73-1.26,1.22-.25,1,.51,2.11,1.5,2.23.47.66,1.17,1.1,1.5,1.89-.19.52-.33,1.07-.72,1.39.51,1.71,2.25,2.77,1.56,5.22-.76.34-1.41.47-1.8,1.11-.18.28-.15.64-.42.89-.38.35-1.64.53-2.39.39-.29-.05-.6-.3-.96-.5-.93-.5-2.14-1.09-2.04-2.45.52-.35.9-.9.96-1.5.1-1.07-.91-1.48-1.43-2.06-1.07-.22-2.04-.42-2.99-.17-.43.12-.81.43-1.26.61-.25.11-.5.11-.72.22-.56.3-.91.8-1.38,1.11.02.28,0,.51-.06.72.7.29,2.05.27,2.16,1.17.13,1.05-1.27,1.93-2.27,2.06-.3.04-.62-.03-.9,0-1.38.14-2.37.89-3.35,1-.64.37-1.24.88-1.14,1.78.59.62,4.06,1.12,2.81,2.55-1.46.02-2.36-.89-3.65-.72-.58.07-1.32.64-1.68,1-.63.62-1.08,1.48-1.38,2.28.14.26.5.16.24.55,1.96.34,3.75-.02,5.75-.11.28-.01.55.08.78.06.32-.03.89-.52,1.08.06-.22.15-.55.09-.78.34-.67.16-1.42,0-2.1.11-.69.11-1.24.3-2.1.33-.99.04-2.08-.12-3.17,0-2.2.24-4.54.24-6.58-.22.76-.42,1.78-.17,2.69-.28.87-.11,1.75-.42,2.63-.28.3-.33,1.19-.12,1.32-.61-.09-.22-.43.06-.72,0-.87-1.3-.04-3.31.48-4.57,1.06-2.55,3.67-4.21,4.67-6.78,0-.51.3-1.17,0-1.61-1.28-.09-2.2.62-3.11,1.05-2.34-.51-3.65-1.98-5.39-3.06-.48.77-.47,2.01-.96,2.78-.36.17-.72.33-1.14.45-.54.69-.06,1.69-.78,2.23-.42-.28-.75-.75-1.02-1.17-.27-.43-.52-.93-.66-1.45-.05-.15-.22-.2-.24-.39.57-1.73,1.47-3.16,2.57-4.39.69-.54,1.87-.11,2.93-.22.63-.07,1.41-.28,1.98-.5.4-.16.5-.5,1.02-.55.02-.24.22-.45.24-.84-.48-.52-1.23-.84-1.85-1.28-.81-.57-1.97-1.34-2.22-2.39-.32-1.38.12-3.27-.66-4.44-.43-.04-.35.37-.72.39-.09-.25-.2-.48-.36-.67-.95-.49-1.2.7-1.86.83-.5.1-.73-.15-1.14-.39-.57.07-.66.57-1.26.61-.37-1.04.59-2.74,1.14-3.5.16-.22.62-.63.84-.73,1.07-.46,2.79.13,3.71.62.37.19.89.44,1.07.61,1.07.95.66,3.09,1.56,4.28.08.08.26.06.42.06.54.54,1.56,1.18,2.39,1.67.78.45,1.45.8,2.27.16.57-.43,1.57-1.64,1.38-2.61-.09-.46-.52-.65-.78-1.05-.77-.16-1.68-.18-1.8-.95.66-.28,1.52-.11,2.16-.45-.02-.18,0-.34.12-.39-.52-1.14-2.13-.39-3.41-.39-.23-1.16.7-1.48.96-2,.93.1,1.22.02,1.97-.17.17-.72.49-1.3,1.26-1.56.2-.06.51,0,.84-.06.37-.06,1.55-.36,1.79.12.12-.02,0-.26.24-.17.69.02.89.31,1.5.28.52-.03,1.17-.68,1.68-.55.36.08.61,1.48.66,1.94.09.98-.29,2.33-.54,3.34-.12.48-.52,2.33.3,2.5.86.18,1.11-1.09,2.04-.95.47.07.76.89.78,1.45.01.49-.35,1.09-.18,1.78.09.35.4.61.36.95h0Z"/>
    <path class="cls-3" d="M72.85,105.15c-.12,0-.06-.19-.24-.16-1.33.2-1.69,1.8-.42,2.39.12.89-.49,1.79-.42,2.61.86-1.5,3.39-2.78,2.28-5.06-.42-.18-1.03.23-1.2.22h0ZM76.63,88.03c-.17-.69.19-1.29.18-1.78-.01-.55-.31-1.37-.78-1.45-.92-.14-1.18,1.12-2.04.95-.83-.17-.42-2.03-.3-2.5.25-1.01.63-2.36.54-3.34-.05-.47-.3-1.86-.66-1.94-.51-.12-1.16.52-1.68.55-.61.03-.81-.25-1.5-.28-.23-.09-.12.15-.24.17-.25-.48-1.42-.17-1.79-.12-.33.06-.65,0-.84.06-.77.26-1.08.84-1.26,1.56-.76.19-1.04.27-1.97.17-.26.52-1.19.84-.96,2,1.28,0,2.89-.75,3.41.39-.13.05-.14.2-.12.39-.64.34-1.49.16-2.16.45.11.76,1.03.78,1.8.95.26.41.69.6.78,1.05.19.97-.81,2.18-1.38,2.61-.82.63-1.5.29-2.27-.16-.84-.49-1.85-1.13-2.39-1.67-.16,0-.34.02-.42-.05-.9-1.2-.49-3.34-1.56-4.28-.19-.17-.7-.42-1.08-.61-.92-.48-2.64-1.08-3.71-.61-.22.1-.68.5-.84.73-.55.76-1.51,2.46-1.14,3.5.59-.04.69-.54,1.26-.61.4.23.64.49,1.14.39.66-.14.9-1.32,1.86-.83.16.19.26.42.36.67.37-.01.29-.43.72-.39.77,1.17.33,3.06.66,4.45.25,1.05,1.41,1.82,2.22,2.39.63.44,1.37.76,1.85,1.28-.02.39-.21.6-.24.84-.52.05-.62.4-1.02.55-.57.23-1.35.43-1.98.5-1.06.12-2.25-.32-2.93.22-1.11,1.24-2,2.67-2.58,4.39.02.19.19.23.24.39.13.52.39,1.01.66,1.45.26.42.59.89,1.02,1.17.71-.53.24-1.53.78-2.22.42-.12.78-.28,1.14-.45.49-.76.47-2,.96-2.78,1.74,1.08,3.05,2.54,5.39,3.06.91-.43,1.83-1.15,3.11-1.05.3.44,0,1.1,0,1.61-1,2.57-3.61,4.23-4.67,6.78-.52,1.25-1.34,3.26-.48,4.56.29.06.63-.22.72,0-.13.49-1.02.28-1.32.61-.88-.15-1.76.17-2.63.28-.91.11-1.93-.14-2.7.28,2.05.46,4.38.46,6.58.22,1.09-.12,2.18.04,3.17,0,.86-.03,1.41-.23,2.1-.33.68-.1,1.42.05,2.1-.11.22-.25.56-.19.77-.33-.19-.58-.76-.09-1.08-.06-.23.02-.5-.07-.78-.05-2,.08-3.79.45-5.75.11.26-.39-.09-.29-.24-.56.3-.8.75-1.66,1.38-2.28.36-.35,1.1-.93,1.68-1,1.29-.17,2.2.74,3.65.72,1.25-1.44-2.23-1.93-2.81-2.55-.1-.9.5-1.41,1.14-1.78.98-.11,1.97-.86,3.35-1,.28-.03.6.04.9,0,1-.13,2.4-1,2.28-2.06-.11-.9-1.46-.88-2.16-1.17.05-.21.08-.44.06-.73.47-.31.82-.81,1.38-1.11.21-.12.46-.12.72-.22.44-.19.82-.5,1.25-.61.95-.25,1.93-.06,2.99.16.53.58,1.53.99,1.43,2.06-.05.6-.44,1.15-.96,1.5-.1,1.36,1.11,1.95,2.03,2.45.37.2.67.45.96.5.75.14,2.01-.04,2.39-.39.27-.25.25-.61.42-.89.39-.64,1.04-.78,1.8-1.11.69-2.46-1.05-3.53-1.56-5.23.39-.32.53-.88.72-1.39-.33-.79-1.03-1.23-1.5-1.89-.99-.11-1.74-1.23-1.5-2.23.13-.49.83-1.21,1.26-1.22.44-.01.65.47,1.14.33,1.21-1,1.54-2.57,1.5-4.33-.02-.92.12-1.93-.06-2.72-.14-.62-.59-.98-1.02-1.51-.88-1.08-3.36-3.02-4.49-1.22-.08.93.09,1.62.48,2.11,1.74.37,2.28,3.08,1.56,4.56-.38.13-.58.47-.96.44-.67-.05-.84-1.3-1.62-1.33-.45.82-.97,2.29-1.74,2.67-.49.24-1.34.06-1.8.28.04-.34-.27-.59-.36-.95h0ZM74.11,77.52c.38.74.8,1.94.66,3.28-.1.9-.37,1.37-.54,2.23-.12.6-.49,2.06.3,2.06.49,0,1-1.07,2.04-.78,1.55.54,0,3.09,1.02,3.95,1-.2,1.24-.98,1.8-1.78.22-.32.65-1.01.96-1.05.92-.13,1.09,1.25,2.15,1.16.36-.39.26-1.07.18-1.61-.07-.44-.26-1.17-.48-1.5-.23-.34-.74-.5-1.02-.84-.93-1.12-.94-3.18.36-3.61,2.74,0,4.26,1.77,5.45,3.56.42,1.23.18,3.03.12,4.56,0,.22.09.41.06.61-.09.64-.86,2.45-1.44,2.72-.56.27-1.28.08-2.04.17-.19.12-.25.36-.42.5.42,1.75,2.53,2.19,2.99,3.61.27.82-.47,1.05-.48,1.78,0,.88,1.22,1.72,1.44,2.89.16.84-.03,1.42,0,2.39-.55.29-.87.48-1.55.67-.38.58-.61,1.29-1.14,1.72-1.02.33-2.81.26-3.71,0-.57-.16-2.07-1.58-2.33-2.28-.1-.27-.16-.81-.12-.95.07-.26.36-.28.54-.5.31-.37.72-1.39.18-1.84-.21-.18-.94-.59-1.14-.67-1.68-.63-4.4.57-5.09,1.67,1.34.22,2.4,1.14,1.92,2.45-.17.47-.82,1.05-1.26,1.28-.86.44-2.07.39-3.17.61-1.32.27-2.48.82-3.11,1.5.54,1.11,3.21,1,2.99,2.78-.24,2.03-2.81-.03-4.31.17-.86.12-2.06,1.56-2.27,2.22-.08.27,0,.46-.06.67,1.95.22,5.05-.07,7-.33.19-.43.39-1,.6-1.61.17-.49.51-1.24.42-1.72-.06-.34-.42-.49-.54-.73-.91-1.84,1.66-3.34,3.47-2.11,1.08,2.57-1.67,4.01-2.45,5.83-.35.82-.62,1.57-.96,2.45-.86-.56-2.11.03-3.23-.06-.2-.02-.41-.15-.6-.16-.25-.02-.41.05-.66.05-3.26.12-6.94.28-9.82-.11-.92-.12-1.92-.18-1.86-.67.1-.85,2.63-.55,3.59-.67,1-.12,1.3-.27,2.21-.22-.09-1.75.27-3.36.96-4.9.39-.87.82-1.77,1.32-2.45.38-.53,1.02-1,1.49-1.56.94-1.09,1.96-1.96,2.1-3.67-1.29.11-1.83,1.36-3.35.89-.82-.26-2.2-.88-2.75-1.34-.21-.17-.27-.42-.48-.55-.41-.26-1-.35-1.25-.61-.34.29-.19.78-.3,1.11-.32,1.02-1.43,1.41-2.1,2.11,0,.87-.03,1.48-.66,1.83-1.32-.5-1.86-1.71-2.57-2.78.13-.61-.12-1.22.12-1.73.09-.2.41-.5.6-.83.63-1.1,1.53-3.28,3.11-3.44.58-.06,1.21.15,1.8.11.96-.07,2.15-.35,2.69-.89.09-.87-.91-1.23-1.62-1.78-.23-.18-.43-.4-.66-.61-.55-.52-.96-.87-1.43-1.5-.16-1.36-.3-2.39-.3-3.89-.29-.05-.46.2-.78.16-.37-.04-.54-.44-.84-.55-.36.22-.68.48-1.08.67-.47-.1-.83-.31-1.2-.5-.53.71-1.57.85-2.04-.11.12-1.02.37-2.01.96-2.89.46-.68,1.3-1.63,1.98-1.72.36-.05,1.26.07,1.8.11.8.07,1.34.38,2.04.78.66.38,1.44.78,1.73,1.39.51,1.04.28,2.18.84,3.34.54.33,1.04.85,1.73,1.28.62.38,1.51,1.24,2.21,1.06.47-.12.86-.58,1.14-1,.42-.64.9-1.82-.06-2.22-.26-.11-.57-.03-.84-.11-.74-.22-1.06-.6-1.31-1.39.42-.55,1.85-.17,2.33-.67-.53-.47-1.77.12-2.4.17-.34-.12-.57-.32-.84-.5,0-1.21.42-2.02,1.26-2.45.83.03,1.49.09,2.04-.22.02-1.38,2.36-1.93,4.07-1.78.72.07,1.36.44,1.97.39.75-.06,1.01-.89,1.92-.5h0Z"/>
    <path class="cls-3" d="M120.97,95.17c.33-.07.37.13.67.09.4,1.17,1.11,2.34.48,3.57-1.03.21-.98-.57-1.06-1.24-1.26-.23-2.7-.3-4.05-.45-.13.03-.08.22-.09.35-.35.14-.06-.3-.29-.27-.41,1.22-.15,3.3-.1,4.81.74-.18,1.41.08,2.31,0,.32,0,.1-.5.29-.62.17.11.67-.04.96-.09.4.52.17,1.17.58,1.52-.07.27-.21-.09-.39,0,.17.53-.04.66-.39.89-.73-.7-2.25-1.04-3.47-.62.08.81-.07,1.78,0,2.85.05.64.07,2.06.48,2.32.69.43,3.08-.61,4.43-.27.12-.72.05-1.63.39-2.32.53-.03.89-.16,1.25.09-.24,1.24.35,2.18-.29,3.21-3.44-.42-5.32.67-8.77.18v-.71c.22-.12.32-.36.77-.27-.1-3.84.19-7.55-.1-11.23-.59-.17-1.29-.23-1.25-.98,2.07-.35,5.48.95,7.62,0-.09-.35-.09-.45,0-.8h0Z"/>
    <path class="cls-3" d="M152.61,94.87c.33-.07.37.13.67.09.4,1.17,1.11,2.34.48,3.57-1.03.2-.98-.58-1.06-1.25-1.26-.23-2.7-.3-4.05-.44-.13.02-.08.22-.1.35-.34.14-.06-.3-.29-.27-.41,1.22-.15,3.3-.1,4.81.74-.18,1.41.07,2.31,0,.32,0,.09-.5.29-.62.17.11.67-.04.96-.09.4.52.17,1.17.58,1.52-.06.26-.2-.09-.38,0,.17.53-.04.66-.39.89-.73-.71-2.25-1.04-3.47-.63.09.81-.07,1.79,0,2.86.05.65.07,2.06.48,2.32.69.43,3.09-.61,4.43-.27.12-.71.04-1.63.39-2.32.53-.03.88-.16,1.25.09-.24,1.24.35,2.18-.29,3.21-3.44-.42-5.32.67-8.77.18v-.71c.22-.12.32-.36.77-.27-.1-3.84.19-7.55-.1-11.23-.59-.17-1.29-.23-1.25-.98,2.07-.35,5.48.95,7.62,0-.09-.36-.09-.45,0-.8h0Z"/>
    <path class="cls-3" d="M129.84,110.95c.26-.06.29.12.52.08.3,1,.84,2,.35,3.04-.79.17-.76-.49-.81-1.07-.97-.2-2.07-.27-3.11-.4-.1.02-.06.19-.08.3-.26.12-.04-.26-.22-.23-.32,1.04-.13,2.8-.11,4.1.57-.14,1.08.07,1.78.01.25,0,.08-.43.23-.53.13.1.52-.03.74-.07.3.44.12,1,.44,1.29-.05.23-.16-.07-.3,0,.13.45-.03.56-.3.76-.56-.61-1.73-.9-2.67-.55.06.69-.07,1.52-.02,2.42.03.55.04,1.76.35,1.98.53.37,2.38-.5,3.41-.2.1-.61.05-1.38.32-1.97.41-.03.68-.14.96.08-.19,1.05.25,1.86-.25,2.73-2.64-.38-4.1.54-6.76.1,0-.2,0-.4,0-.61.17-.1.25-.31.6-.22-.05-3.28.2-6.42,0-9.56-.46-.15-.99-.21-.96-.84,1.6-.28,4.21.84,5.86.05-.06-.3-.06-.39,0-.69h0Z"/>
    <path class="cls-3" d="M159.35,110.86c.26-.06.29.12.52.08.3.99.84,2,.35,3.03-.8.17-.76-.49-.81-1.07-.97-.2-2.07-.27-3.11-.4-.1.02-.06.19-.08.3-.26.12-.04-.26-.22-.23-.32,1.04-.13,2.81-.11,4.1.57-.14,1.08.07,1.78.01.24,0,.08-.43.23-.53.13.09.52-.03.74-.07.3.45.12,1,.43,1.29-.05.23-.16-.07-.29,0,.13.45-.03.56-.3.76-.56-.61-1.73-.9-2.67-.55.06.69-.07,1.52-.02,2.43.03.55.04,1.76.36,1.97.53.38,2.38-.5,3.42-.2.1-.61.05-1.39.32-1.97.41-.02.69-.14.96.08-.19,1.06.25,1.86-.25,2.73-2.64-.38-4.1.54-6.76.1,0-.2,0-.4,0-.61.18-.1.25-.3.6-.22-.05-3.28.21-6.43,0-9.56-.45-.15-.99-.21-.96-.84,1.6-.28,4.21.83,5.86.04-.06-.3-.06-.38,0-.68h0Z"/>
    <path class="cls-3" d="M142.42,96.06c.15.67-.79.35-1.13.56-.17,3.89.52,7.79.72,11.4.66.09,1.51,0,1.65.56-.32.39-1.76.64-2.57.65-.61.01-1.41-.11-1.44-.75.05-.36.59-.28.93-.37,0-4.12-.47-7.79-.72-11.41-.67-.07-1.77-.08-1.86-.93,1.16.18,3.5-.66,4.43.28h0Z"/>
    <path class="cls-3" d="M151.9,111.9c.11.56-.64.29-.91.47-.17,3.31.36,6.64.5,9.71.53.08,1.22,0,1.32.49-.26.34-1.43.54-2.08.54-.49,0-1.14-.1-1.16-.64.04-.31.47-.23.75-.31.03-3.5-.32-6.64-.5-9.71-.54-.06-1.43-.08-1.49-.81.93.15,2.83-.54,3.56.26h0Z"/>
    <path class="cls-3" d="M76.51,122.11c.13.19.71.88.9,1,.85.56,1.34,1.02,2.45,1.17,5.65.77,7.39-3.54,7.6-8.5.03-.64.08-1.34,0-1.94-.06-.48-.12-1.22-.24-1.62-.18-.59-.55-1.53-.9-2.17-.09-.16-.29-.28-.36-.45-.6-1.42-1.82-2.09-3.65-2.17-1.12-.05-3.31.75-3.95,1.17-.36.24-.7.71-1.08,1.06-1.22,1.12-1.98,2.64-2.63,4.17-.02.21.16.44,0,.61-.35,0-.66.15-1.02.28-.34-.25-.79.01-1.2,0-1.01-.02-1.74,0-2.81.06-3.86.21-8.45.02-11.61.33.23.31-.2.23-.24.45.06.39.58.41.96.61.52.28,1,.67,1.55.83,1.21.36,2.35-.23,3.35-.11.14.36-.24.25-.3.45.19.54.11,1.4.06,1.94-.88-.08-2.55-.23-4.01-.16-.19.65.11,1.42-.18,1.94-.74-.02-1.08.68-1.2,1.39.52.24,1.01.51,1.85.44.17-.72.11-1.81.3-2.33.78.06,1.57.26,2.33.28.39.01.92-.21,1.2.17.13.57-.2,1.3.12,1.83.5.03.91.23,1.5.06.39-.52.16-1.63.6-2.11.75.13,1.71.01,2.46,0,.52.46.17,1.73.66,2.23-.02-.46.16.07.42,0,.34-.21,1.02-.09,1.38-.28.33-.37.53-.96.3-1.56-.4-.31-.96-.13-1.32-.44-.27-.35.03-1.21-.24-1.56-.86.07-1.74-.07-2.57.05-.57.08-1.11.45-1.44.11-.15-.65.19-1.28.06-1.72-.1-.35-.71-.4-.48-.78,2.66.01,5.18.14,7.54.06.82-.03,1.57-.11,2.03-.39.55,2.01.75,4.15,1.8,5.62h0ZM66.21,118.72c.65.22,1.33,0,2.04,0,.68,0,1.58-.06,2.15.28.07.31-.09.11-.18.22v1.06c.28.36.93.36,1.38.55.66.73.08,1.86-.42,2.34-.66.26-1.78.17-2.57.44-.38-.59-.35-1.56-.54-2.33-.72.14-1.05,0-1.86.06-.08,1.01-.18,2.04-1.07,2.28-1.49.4-2.26-.99-1.92-2.39-.68-.04-1.62-.09-2.16-.12-.35.53-.47,1.27-.42,2.17-.24.17-.47.35-.72.5-1.72.05-3.03-1.27-2.1-2.5.25-.33.69-.48,1.08-.78-.11-.45-.22-1.24,0-1.67.92-.41,2.41-.02,3.77-.06.25-.2.22-.93.12-1.28-1.2.1-3.13.06-4.43-.16-.32-.06-.72-.09-.9-.17-.39-.16-.96-1.01-.96-1.33,0-.75,1.04-.82,1.44-1.33,1.47-.09,2.87-.25,4.37-.22,1.52.02,3.06.29,4.61.16.96-.07,1.89-.26,2.82-.33,1.52-.11,3.17.32,4.31-.22.45-.49.51-1.08.77-1.61,1.31-2.6,3.3-4.45,6.41-5.06.35-.06.85-.13,1.25-.11,1.52.08,2.85.77,3.59,1.89,1.04,1.57,1.63,3.02,1.79,5.06.12,1.53-.03,3.32-.3,4.72-.41,2.2-1.6,4.62-3.83,5.34-.79.26-1.46.72-2.21.73-.46,0-.9-.27-1.38-.28-.19,0-.41.13-.6.11-.49-.05-.67-.38-1.2-.33-.44-.36-.86-.75-1.38-1.06-.69-.87-1.4-1.78-1.79-2.94-.35-1.01-.37-2.19-.78-3.17-2.5.26-5.3.22-7.78.17-.17-.02-.35.5-.36.11-.15.28,0,.75-.12.94.09.12.22-.02.06.33h0Z"/>
    <path class="cls-3" d="M81.23,119.39c.2,0,.42.02.42-.17-.18-.18-.42-.31-.66-.45.05.23.13.44.24.61h0ZM77.7,119.83c.55,1.21,1.5,2.11,2.93,2.5.9.25,1.85-.08,2.45-.44,1.27-.79,1.84-2.95,1.92-4.67.02-.51-.17-1.13-.12-1.73.19-2.07-.57-4.36-1.92-5.28-.58-.4-1.04-.36-1.56-.22-1.53.41-2.24,1.38-3.11,2.5-.34.44-.54.97-.72,1.56.24.4,1.13.29,1.62.16.27-.34.47-.75,1.08-.78.32-.02.02.53.3.55.75-.49,1.03-1.41,2.21-1.5.23.16.42.35.48.67-.62.85-1.77,1.22-2.04,2.39.53-.12,1.54-.63,1.85-.11-.03.27-.17.43-.3.61.55.33.29.93-.12,1.23.1.16.1.62,0,.78-.77.14-1.01-.38-1.8-.33.17.73,1.3,1.05,1.68,1.78-.78.8-2.11.21-2.45-.61-.96.12-1.14-.94-1.49-1.56-.32-.08-.64-.15-1.08-.11-.29.84.15,1.72.18,2.61h0ZM79.86,118.5c.18-.05.26-.21.54-.17-.11-.35-.46-.69-.36-1.05.75-.09,1.59.18,2.21.39.2-.19-.15-.34-.12-.55.02-.32.5-.21.54-.5-.14-.28-.64.23-.78-.16.05-.38.53-.36.54-.78-.44-.09-.89.28-1.38.33-1.06-.62.79-1.91,1.19-2.5.3-.04.57-.1.48-.5-1.22.04-1.53,1.68-2.69,1.78-.16-.15-.21-.36-.12-.61-.54.83-2.39.8-2.99,0,.45-1.32,1.19-2.45,2.21-3.45.69-.67,1.94-1.66,3.29-1.28,1.33.38,2.57,2.3,2.93,4.06.12.59.09,1.23.06,1.89-.07,1.31.19,2.25,0,3.67-.21,1.58-1.48,3.01-2.82,3.61-1.4.64-3.98-.24-4.79-1.17-.75-.86-.57-1.99-.96-3.28.17-.56-.13-1.4.54-1.56.33-.08,1.09.15,1.38.34.56.35.55,1.3,1.08,1.5h0Z"/>
    <path class="cls-3" d="M78.78,117c-.29-.19-1.05-.41-1.38-.34-.67.16-.37,1-.54,1.56.39,1.29.21,2.42.96,3.28.81.93,3.38,1.81,4.79,1.17,1.34-.61,2.61-2.03,2.82-3.61.19-1.42-.07-2.36,0-3.67.03-.66.06-1.3-.06-1.89-.37-1.76-1.6-3.68-2.93-4.06-1.35-.39-2.6.6-3.29,1.28-1.02,1-1.76,2.13-2.21,3.45.6.8,2.45.83,2.99,0-.09.25-.05.46.12.61,1.16-.11,1.47-1.74,2.69-1.78.09.4-.18.46-.48.5-.4.59-2.26,1.88-1.2,2.5.49-.05.93-.42,1.38-.33-.01.41-.48.4-.54.78.13.4.64-.12.78.16-.04.3-.52.19-.54.5-.03.22.31.37.12.55-.62-.21-1.47-.48-2.21-.39-.1.37.25.71.36,1.05-.28-.04-.36.12-.54.17-.53-.2-.52-1.14-1.08-1.5h0ZM74.71,116.49c-.46.28-1.21.36-2.03.39-2.36.08-4.88-.05-7.54-.06-.23.37.38.43.48.78.13.44-.21,1.08-.06,1.72.32.33.87-.03,1.44-.11.83-.12,1.72.02,2.57-.05.27.34-.03,1.21.24,1.56.36.32.91.14,1.31.44.23.6.02,1.18-.3,1.56-.36.19-1.04.07-1.38.28-.26.07-.44-.46-.42,0-.49-.49-.13-1.77-.66-2.23-.74.01-1.71.13-2.46,0-.43.49-.2,1.59-.6,2.11-.59.18-1-.02-1.5-.06-.32-.53.01-1.26-.12-1.83-.28-.39-.8-.16-1.2-.17-.77-.01-1.55-.22-2.33-.28-.2.53-.13,1.61-.3,2.33-.84.06-1.34-.2-1.86-.44.12-.72.46-1.42,1.19-1.39.29-.52,0-1.29.18-1.94,1.46-.06,3.13.08,4.01.16.05-.54.13-1.41-.06-1.94.05-.19.44-.08.3-.45-1-.12-2.14.47-3.35.11-.56-.16-1.03-.56-1.55-.83-.37-.2-.9-.22-.96-.61.04-.22.47-.13.24-.45,3.16-.31,7.75-.13,11.61-.33,1.07-.06,1.8-.07,2.81-.06.4.01.85-.25,1.2,0,.36-.14.66-.27,1.02-.28.16-.17-.02-.39,0-.61.66-1.53,1.42-3.06,2.64-4.17.38-.34.72-.82,1.08-1.06.64-.42,2.83-1.21,3.95-1.17,1.83.08,3.05.75,3.65,2.17.07.16.27.28.36.44.35.64.72,1.58.9,2.17.12.39.18,1.14.24,1.62.08.6.03,1.3,0,1.94-.21,4.96-1.95,9.27-7.6,8.5-1.12-.15-1.6-.61-2.45-1.17-.19-.12-.76-.81-.9-1-1.04-1.48-1.25-3.61-1.8-5.62h0Z"/>
  </g>
  <g>
    <polygon class="cls-4" points="25.91 77.74 2.44 112.1 3.61 113.58 48.38 112.02 32.3 82.49 27.51 76.89 25.91 77.74 25.91 77.74"/>
    <path class="cls-3" d="M24.75,82.2c-.85.37-.24-.86-1.09-.48-.41.14-.19.86-1.03.59-.34,1.4-.66,2.79-1.97,3.3-.32,1.47.75,1.41,1.17,2.07-1.85,1.36-1.86,5.69-5.12,4.25.3.79,1.28.83,1.42,1.8-.7.36-1.22.5-1.56.61,1.13.92-.3.69-.74,1.36-1.13,1.77-1.75,4.55-3.74,4.99-.07,1.29-.54,2.22-1.74,2.48.67,1.38-.39.18-.77.84,1.71.32-1.09,1.17.1,1.86-1.89.39-1.43,2.93-2.74,3.87-.17-.46.25-1.58-.35-1.59,0,.42.09.92-.49.83-.28.87.87.16.58,1.03-1.1.27-.9,1.73-1.47,2.48,2.77-.61,7.28-.66,10.37-.51.05-.21-.02-.53.24-.55,10.31.95,18.54-.66,31.13-1-.58-2.79-3.05-4.13-4.01-5.66-.33-2.36-2.55-2.6-2.65-5.2-1.2.18-1.03-.95-.88-1.55-1.06.03-2.02-1.69-1.17-2.08-.83.46-.89-.15-1.62-.45-1.92-5.8-6.5-9.89-8.71-14.49,0,.27-.45.36-.53.02.32-.04.62-.11.51-.55-.75.25-.71-.34-1.35-.2-1.28,1.8-1.86,4.24-4.01,5.26.56.91-.2,1.29-.7,1.9-.32-1.05-.06-2.07.38-2.95.44-.02.18.73.57.76.06-1.14.97-3.3,1.75-2.21-.02-.37.09-.59.23-.81h0ZM40.28,94.49c1.57.22,1.16,2.64,2.8,2.79.04,1.72.93,2.53,2.02,3.1-.12,1.82.9,2.36,2.01,2.83.12.45-.18.51-.51.56.37.36,1.25.61.6,1.3.21-.15.42-.3.78-.31.12.53-.01.84-.49.83.53.67,2.06,2.12,1.2,2.61.27.45.86.54,1.62.45.14,2.17,1.34,3.19,1.34,5.53-.25-.16-1.01-.57-.78.3-.48-.5-1.85,0-1.92-.97-.58,1.05-1.82-.7-3.16.7-.8.13-.6-.85-.87-1.29-.77.26.37.65.06,1.32-.21-.17-.89-1.08-.79.04-3.73-.25-9.24-.28-12.52.09-.02-.26-.04-.53-.04-.8-1.21.71-2.61.85-3.73.18-.71,1.04-5.67,1.07-7.18.36-2.92,1.68-9.42.1-10.84,1.86-2.28-1.29-6.23.17-9.09-.88-.27-.84.17-1.02.46-1.36-1.07-.04-.45-.21-.62-1.84,1.24-.4,1.75-1.46,1.72-3.02,1.23.19.53-1.37,1.81-1.16-.23-.81-.22-.5-.07-1.33,1.81.2.72-2.23,2.29-2.24-.19-.27-.63-.24-.57-.78,1.07.3.5-.89,1.57-.61-.02-.44-.04-.89-.08-1.33.23-.22.59-.31,1.05-.31,1.56-4.01,4.48-6.79,6.14-10.7.92-.02,1.21-.6.99-1.65.78.03.79-.64,1.57-.61.65-3.56,4.04-4.64,4.66-8.23,2.92-.66,2.22-4.58,5.07-5.31-.19-.27-.63-.25-.58-.77.88-.05,1.3-.52,2.38-.38,1.19.84-.31,1.38,1.39,1.26-1.1,1.2.34,4.72,1.54,4.19.39.07.07,2.01,1.43,1.8-.15.83.32.96.35,1.58,3.42,2.85,4.08,8.77,7.5,11.62.12.45-.18.51-.5.57h0Z"/>
  </g>
  <text class="cls-1" transform="translate(15.73 108.83) scale(.79 1)"><tspan class="cls-5" x="0" y="0">7</tspan><tspan x="11.7" y="0">4</tspan></text>
</svg>