<?xml version="1.0" encoding="UTF-8"?>
<svg id="Layer_1" data-name="Layer 1" xmlns="http://www.w3.org/2000/svg" viewBox="0 0 180 200">
  <defs>
    <style>
      .cls-1 {
        font-family: AmericanTypewriter-Bold, 'American Typewriter';
        font-size: 20px;
        font-weight: 700;
      }

      .cls-1, .cls-2 {
        fill: #fff;
      }

      .cls-3 {
        fill: #231f20;
      }

      .cls-3, .cls-4 {
        fill-rule: evenodd;
      }

      .cls-5 {
        fill: #1e3160;
      }

      .cls-4 {
        fill: #9a495c;
      }
    </style>
  </defs>
  <g>
    <g>
      <polygon class="cls-4" points="26.22 78.86 2.75 113.23 3.92 114.71 48.7 113.15 32.62 83.61 27.83 78.01 26.22 78.86 26.22 78.86"/>
      <path class="cls-3" d="M25.06,83.32c-.85.37-.24-.86-1.09-.48-.41.14-.19.86-1.03.59-.34,1.4-.66,2.79-1.97,3.3-.32,1.47.75,1.41,1.17,2.07-1.85,1.36-1.86,5.69-5.12,4.25.3.79,1.28.83,1.42,1.8-.7.36-1.22.5-1.56.61,1.13.92-.3.69-.74,1.36-1.13,1.77-1.75,4.55-3.74,4.99-.07,1.29-.54,2.22-1.74,2.48.67,1.38-.39.18-.77.84,1.71.32-1.09,1.17.1,1.86-1.89.39-1.43,2.93-2.74,3.87-.17-.46.25-1.58-.35-1.59,0,.42.09.92-.49.83-.28.87.87.16.58,1.03-1.1.27-.9,1.73-1.47,2.48,2.77-.61,7.28-.66,10.37-.51.05-.21-.02-.53.24-.55,10.31.95,18.54-.66,31.13-1-.58-2.79-3.05-4.13-4.01-5.66-.33-2.36-2.55-2.6-2.65-5.2-1.2.18-1.03-.95-.88-1.55-1.06.03-2.02-1.69-1.17-2.08-.83.46-.89-.15-1.62-.45-1.92-5.8-6.5-9.89-8.71-14.49,0,.27-.45.36-.53.02.32-.04.62-.11.51-.55-.75.25-.71-.34-1.35-.2-1.28,1.8-1.86,4.24-4.01,5.26.56.91-.2,1.29-.7,1.9-.32-1.05-.06-2.07.38-2.95.44-.02.18.73.57.76.06-1.14.97-3.3,1.75-2.21-.02-.37.09-.59.23-.81h0ZM40.6,95.62c1.57.22,1.16,2.64,2.8,2.79.04,1.72.93,2.53,2.02,3.1-.12,1.82.9,2.36,2.01,2.83.12.45-.18.51-.51.56.37.36,1.25.61.6,1.3.21-.15.42-.3.78-.31.12.53-.01.84-.49.83.53.67,2.06,2.12,1.2,2.61.27.45.86.54,1.62.45.14,2.17,1.34,3.19,1.34,5.53-.25-.16-1.01-.57-.78.3-.48-.5-1.85,0-1.92-.97-.58,1.05-1.82-.7-3.16.7-.8.13-.6-.85-.87-1.29-.77.26.37.65.06,1.32-.21-.17-.89-1.08-.79.04-3.73-.25-9.24-.28-12.52.09-.02-.26-.04-.53-.04-.8-1.21.71-2.61.85-3.73.18-.71,1.04-5.67,1.07-7.18.36-2.92,1.68-9.42.1-10.84,1.86-2.28-1.29-6.23.17-9.09-.88-.27-.84.17-1.02.46-1.36-1.07-.04-.45-.21-.62-1.84,1.24-.4,1.75-1.46,1.72-3.02,1.23.19.53-1.37,1.81-1.16-.23-.81-.22-.5-.07-1.33,1.81.2.72-2.23,2.29-2.24-.19-.27-.63-.24-.57-.78,1.07.3.5-.89,1.57-.61-.02-.44-.04-.89-.08-1.33.23-.22.59-.31,1.05-.31,1.56-4.01,4.48-6.79,6.14-10.7.92-.02,1.21-.6.99-1.65.78.03.79-.64,1.57-.61.65-3.56,4.04-4.64,4.66-8.23,2.92-.66,2.22-4.58,5.07-5.31-.19-.27-.63-.25-.58-.77.88-.05,1.3-.52,2.38-.38,1.19.84-.31,1.38,1.39,1.26-1.1,1.2.34,4.72,1.54,4.19.39.07.07,2.01,1.43,1.8-.15.83.32.96.35,1.58,3.42,2.85,4.08,8.77,7.5,11.62.12.45-.18.51-.5.57h0Z"/>
    </g>
    <text class="cls-1" transform="translate(16.43 109.96) scale(.79 1)"><tspan x="0" y="0">75</tspan></text>
  </g>
  <g>
    <path class="cls-5" d="M84.02,103.05c-.65,0-1.26-.01-1.87,0-3.15.09-6.31.16-9.46.29-1.13.05-2.25.25-3.37.41-2.9.4-5.8.41-8.73.29-3.36-.14-6.72-.05-10.08-.06-.34,0-.67,0-1.16,0-.27-6.9-.53-13.72-.48-20.63.5-.02.87-.07,1.24-.06,2.57.06,5.15.04,7.71.23,4.53.34,9.05-.01,13.57-.05,3.05-.02,6.09-.25,9.14-.36,1.15-.04,2.31,0,3.59,0,.03.97.07,1.88.07,2.8,0,1.63,0,3.27-.04,4.9-.07,2.38-.21,4.75-.26,7.13-.03,1.38.08,2.77.12,4.15,0,.28,0,.55,0,.96Z"/>
    <path class="cls-2" d="M77.97,84.66c.14-.09.2-.16.26-.16,1.26-.04,2.53-.08,3.79-.11,1.11-.02,1.23.08,1.23,1.24,0,5.29,0,10.57,0,15.86,0,.4-.08.8-.12,1.22-1.7.28-3.29.13-4.89-.03-.38-.04-.51-.28-.52-.63-.01-.75-.04-1.51-.04-2.26,0-1.2,0-2.39,0-3.7-2.32-.1-4.56-.01-6.97.23-1.16,2.06-2.36,4.2-3.57,6.34-1.83.05-3.63.32-5.55-.12.31-1.19,1.16-2,1.64-2.99.49-1.01.95-2.04,1.48-3.19-1.82-.07-3.57-.14-5.36-.2-.47.89-.94,1.8-1.43,2.7-.65,1.17-1.33,2.32-1.98,3.49-.19.34-.43.52-.81.52-1.41.01-2.81.07-4.22.02-.99-.03-1.24-.48-.75-1.34.72-1.28,1.53-2.52,2.29-3.78.5-.82.97-1.65,1.47-2.47.53-.88,1.12-1.72,1.63-2.62,1.42-2.5,2.83-5.01,4.2-7.55.29-.53.54-.72,1.18-.66,1.12.12,2.26.06,3.39.08.44,0,.89,0,1.52,0-1.23,2.16-2.38,4.2-3.63,6.42.48.07.79.15,1.1.15,1.23-.03,2.47-.1,3.7-.11.46,0,.76-.17.99-.57.9-1.58,1.85-3.13,2.74-4.71.43-.77.88-1.27,1.9-1.2,1.29.09,2.6-.05,3.9-.07.25,0,.51.08.87.14-1.19,2.13-2.31,4.14-3.53,6.33,1.35.16,2.52.04,3.81.07.1-2.17.19-4.27.28-6.32Z"/>
    <path class="cls-5" d="M112.84,89.06c.23-.04.43-.12.62-.11,1.27.05,2.54.08,3.8.19.57.05,1.16.19,1.67.44,1.32.63,1.56,1.92.64,3.07-.13.16-.28.3-.48.52.19.18.38.36.57.53,1.33,1.15.94,3.18-.75,3.75-.45.15-.94.24-1.41.24-2.36.02-4.73,0-7.09.01-.81,0-1.37-.28-1.63-1.1-.12-.36-.36-.68-.55-1.03-.08.02-.16.04-.23.07v2.18h-6.44c-.21-.38-.37-1.04-.73-1.19-.52-.21-1.19-.05-1.81-.05-.18.4-.32.7-.49,1.07-1.01.12-2.04.25-3.22-.1.96-2.85,1.9-5.63,2.86-8.48,1.1,0,2.19-.02,3.28.02.19,0,.43.21.54.38.19.28.3.61.42.93.76,2.02,1.52,4.04,2.36,6.28.26-.99.14-1.79.17-2.57.03-.86.02-1.72.02-2.57,0-.82,0-1.64,0-2.41.11-.08.16-.15.22-.15,1.64-.18,3.28-.27,4.91.08,1.53.34,2.46,1.77,2.26,3.32-.12.92-.71,1.44-1.51,1.97.63.94,1.24,1.87,1.86,2.8.32-2.71.14-5.38.14-8.1ZM107.53,97.35c.05-.97.1-1.83.15-2.85.33.24.53.32.63.46.33.52.6,1.07.94,1.59.16.24.37.53.62.59.71.19,1.45.24,2.28.11-.67-1.11-1.27-2.12-1.9-3.19.77-.35,1.41-.68,1.63-1.45.35-1.24-.45-2.79-1.7-3.11-1.58-.4-3.18-.3-4.77-.15v7.89c.43.04.76.08,1.1.1.31.02.61,0,1.03,0ZM118.32,93.15c.39-.34.71-.56.94-.84.68-.81.52-1.71-.38-2.26-.23-.14-.49-.28-.75-.33-1.58-.31-3.18-.28-4.79-.33,0,2.49,0,4.88,0,7.27,0,.5.31.64.74.64.89,0,1.78.02,2.67-.01.58-.02,1.17-.08,1.73-.2.82-.17,1.29-.74,1.52-1.52.22-.76-.24-1.23-.76-1.65-.26-.21-.52-.43-.94-.77ZM98.49,89.48c-.97,2.56-1.85,5.12-2.6,7.77h2.3c.49-1.1.5-1.03,1.71-1.17,1.15-.13,1.74.35,1.92,1.48.93-.12,1.76-.24,2.69-.36-.99-2.62-1.95-5.17-2.91-7.72h-3.11Z"/>
    <path class="cls-5" d="M135.04,89.16c1.22-.35,2.31-.08,3.48.06,0,1.9.03,3.71,0,5.52-.04,1.71-.61,2.54-2.28,2.99-1.52.4-3.05.36-4.41-.67-.92-.7-1.36-1.57-1.27-2.75.09-1.2.1-2.4.11-3.6,0-.54-.07-1.07-.11-1.69h2.99c0,.9,0,1.81,0,2.72,0,.58-.04,1.17-.05,1.75,0,.14,0,.28.01.41.08.64.71,1.21,1.25,1.13.38-.05.62-.49.58-1.18-.07-1.27-.19-2.53-.28-3.79-.02-.27,0-.54,0-.88ZM135.46,89.55c.1,1.33.21,2.62.3,3.91.02.34.02.69-.06,1.02-.22.94-.85,1.22-1.7.77-.55-.29-.91-.73-.94-1.37-.01-.27,0-.55,0-.82,0-1.22,0-2.45,0-3.72h-2.05c0,1.87,0,3.68,0,5.49,0,.63.27,1.11.71,1.54,1.3,1.28,2.89,1.37,4.5.89.87-.26,1.77-.76,1.82-1.87.08-1.91.08-3.82.12-5.76-.96-.22-1.79-.32-2.69-.08Z"/>
    <path class="cls-5" d="M145.21,94.5c.82,1.03,1.59,2,2.41,3.03-1.22.74-2.44.25-3.61.52-.47-.8-.52-1.77-1.41-2.48.06.74.11,1.29.16,1.95-.26.06-.51.16-.76.17-.65.02-1.3.02-1.95,0-.55,0-.74-.17-.73-.75.01-.68.13-1.37.13-2.05,0-1.54-.06-3.08-.1-4.62,0-.37,0-.75,0-1.23,1.23-.26,2.46-.23,3.67-.08.74.09,1.51.26,2.16.59.58.3,1.11.81,1.5,1.34.64.89.36,2.11-.57,2.95-.22.21-.49.36-.9.66ZM139.74,89.31c.09,1.37.17,2.66.26,3.94.1,1.28.22,2.57.34,3.92.58.05,1.21.1,1.87.15.12-.96-.2-1.81.16-2.71,1.08.75,1.44,1.87,1.89,2.89,1.48.15,1.91.13,2.66-.2-.41-.48-.84-.92-1.2-1.41-.38-.51-.7-1.06-1.08-1.64.38-.21.66-.33.91-.5.98-.64,1.37-1.84.77-2.66-.35-.48-.83-.95-1.35-1.2-1.62-.76-3.36-.74-5.23-.58Z"/>
    <path class="cls-5" d="M154.01,97.81h-3.28c-.03-1.22.41-2.39,3.27-8.74.74,0,1.55.02,2.36,0,.61-.02.97.27,1.17.8.5,1.35,1.02,2.69,1.49,4.05.35,1,.66,2.01.98,3.02.06.19.07.39.1.61-1.06.46-2.11.29-3.21.26-.06-.4-.12-.76-.2-1.24-.58-.02-1.19-.07-1.79-.03-.18.01-.4.23-.51.41-.18.28-.28.62-.38.87ZM154.24,96.13c.72,0,1.43.01,2.15,0,.55-.01.85.19.83.77,0,.13.04.26.06.37,1.25.22,1.39.22,2.2-.09-.94-2.55-1.89-5.11-2.85-7.7-.55,0-1.09,0-1.64,0-.53,0-.86.22-1.07.75-.83,2.1-1.71,4.18-2.55,6.27-.1.24-.12.5-.21.88.9.06,1.7.11,2.51.16.19-.47.34-.85.58-1.43Z"/>
    <path class="cls-5" d="M170.52,94.22c.71,1.15,1.38,2.21,2.13,3.42h-3.6c-.36-.57-.75-1.17-1.27-1.97-.11.75-.2,1.29-.29,1.93-.77.08-1.54.2-2.31.22-.39.01-.72-.23-.7-.72,0-.24-.02-.48-.02-.72.02-2.4.04-4.8.06-7.2,0-.06.06-.12.13-.27,1.24-.07,2.53-.24,3.82-.18,1.57.06,2.67.94,3.34,2.37.47,1.01.22,2.08-.67,2.74-.16.12-.34.21-.62.39ZM169.92,94.09c.37-.21.67-.36.94-.55.65-.44.95-1.27.65-1.99-.48-1.15-1.18-2.04-2.51-2.33-1.38-.31-2.7.19-4.04.07v8.1c.77-.07,1.43-.13,2.13-.2.13-.93.24-1.78.36-2.62.08-.01.16-.02.23-.03.56.92,1.12,1.84,1.67,2.74.82-.05,1.56-.09,2.43-.15-.63-1.02-1.22-1.99-1.86-3.04Z"/>
    <path class="cls-5" d="M95.04,97.67h-3.01v-2.98c-.52-.03-1.01-.06-1.65-.11-.05,1.08-.1,2.05-.14,3.04h-2.97c-.24-2.89-.18-5.68-.01-8.53h3.04v2.66h1.77v-2.65h3.25c-.09,2.84-.19,5.66-.29,8.56ZM94.73,97.33c.08-2.72.16-5.3.24-7.95h-2.54c-.04.94-.08,1.81-.12,2.71h-2.32v-2.65c-.8-.04-1.53-.07-2.38-.11,0,2.71-.15,5.32.12,7.98h2.15c.07-1.01.14-1.95.2-2.85,1.02-.32,1.25-.3,2.28.12v2.75h2.36Z"/>
    <path class="cls-5" d="M125.38,97.47c-1.13.06-2.16-.33-3.11-.88-.96-.56-1.59-1.4-1.51-2.61,0-.14,0-.28-.02-.41-.39-2.05.63-3.44,2.33-4.23,2.01-.92,4.75-.79,6.21,1.46,1.47,2.27.77,6.28-3.3,6.66-.2.02-.41,0-.62,0ZM129.51,93.2c.02-2.02-1.2-3.39-2.96-3.8-.64-.15-1.35.03-2.02.02-1.36-.02-2.21.85-2.94,1.8-.29.37-.44.97-.39,1.44.08.84.33,1.67.57,2.49.17.58.55,1.05,1.11,1.29,1.17.51,2.36.82,3.69.52,1.85-.42,3.03-1.84,2.95-3.75Z"/>
    <path class="cls-5" d="M163.43,97.65h-2.84v-8.57c.92,0,1.77,0,2.61,0,.43,0,.62.23.6.65,0,.03,0,.07,0,.1-.07,2.4-.14,4.79-.21,7.19,0,.19-.1.39-.16.63ZM163.14,96.93c.06-2.51.12-4.95.18-7.36h-2.33v7.6c.73-.08,1.4-.15,2.14-.23Z"/>
    <path class="cls-5" d="M107.53,97.35c-.42,0-.72.01-1.03,0-.34-.02-.67-.06-1.1-.1v-7.89c1.59-.15,3.19-.25,4.77.15,1.25.32,2.05,1.87,1.7,3.11-.22.77-.85,1.1-1.63,1.45.63,1.06,1.24,2.07,1.9,3.19-.83.13-1.57.08-2.28-.11-.24-.07-.46-.36-.62-.59-.34-.51-.61-1.07-.94-1.59-.09-.15-.3-.22-.63-.46-.06,1.03-.1,1.89-.15,2.85ZM107.59,93.41c.52-.05.99-.07,1.45-.15.43-.07.61-.37.65-.8.09-1.19-.71-1.73-2.09-1.36v2.3Z"/>
    <path class="cls-5" d="M118.32,93.15c.42.34.68.55.94.77.52.43.98.89.76,1.65-.23.78-.7,1.35-1.52,1.52-.57.12-1.15.18-1.73.2-.89.03-1.78.01-2.67.01-.43,0-.74-.13-.74-.64,0-2.39,0-4.79,0-7.27,1.61.05,3.21.02,4.79.33.26.05.52.19.75.33.9.55,1.06,1.45.38,2.26-.24.28-.55.5-.94.84ZM115.48,93.88c-.02.39-.05.62-.04.85.05.87.32,1.12,1.21,1.14.2,0,.41,0,.61-.04.7-.14.94-.74.47-1.27-.21-.24-.53-.43-.84-.52-.41-.12-.86-.11-1.41-.16ZM115.7,90.87c-.4,1.36-.14,1.78.98,1.74.46-.02.81-.17.91-.65.08-.37-.29-.91-.71-1-.39-.08-.8-.07-1.18-.1Z"/>
    <path class="cls-5" d="M98.49,89.48h3.11c.96,2.55,1.92,5.1,2.91,7.72-.94.13-1.77.24-2.69.36-.18-1.13-.77-1.62-1.92-1.48-1.21.14-1.22.07-1.71,1.17h-2.3c.75-2.65,1.63-5.21,2.6-7.77ZM98.97,94.64c.7.22,1.31.51,2,.05-.15-1.18-.31-2.32-.98-3.59-.57,1.28-.79,2.38-1.01,3.54Z"/>
    <path class="cls-5" d="M135.46,89.55c.9-.24,1.73-.14,2.69.08-.04,1.95-.04,3.86-.12,5.76-.05,1.11-.95,1.62-1.82,1.87-1.61.47-3.19.38-4.5-.89-.43-.42-.71-.91-.71-1.54,0-1.81,0-3.62,0-5.49h2.05c0,1.28,0,2.5,0,3.72,0,.27-.02.55,0,.82.04.64.39,1.08.94,1.37.85.44,1.48.16,1.7-.77.08-.33.08-.68.06-1.02-.08-1.29-.19-2.58-.3-3.91Z"/>
    <path class="cls-5" d="M139.74,89.31c1.86-.16,3.6-.18,5.23.58.53.25,1.01.72,1.35,1.2.6.82.21,2.02-.77,2.66-.25.16-.53.29-.91.5.38.58.7,1.13,1.08,1.64.36.49.79.93,1.2,1.41-.76.33-1.19.36-2.66.2-.45-1.02-.81-2.14-1.89-2.89-.35.89-.04,1.75-.16,2.71-.66-.05-1.28-.1-1.87-.15-.12-1.35-.24-2.63-.34-3.92-.1-1.29-.17-2.57-.26-3.94ZM142.25,91.12c-.02.47-.07,1.01-.06,1.54,0,.16.24.45.32.44.45-.08.95-.14,1.3-.4.33-.24.08-1.18-.31-1.46-.34-.24-.71-.42-1.25-.12Z"/>
    <path class="cls-5" d="M154.24,96.13c-.23.58-.39.96-.58,1.43-.81-.05-1.61-.11-2.51-.16.09-.38.11-.65.21-.88.85-2.09,1.73-4.17,2.55-6.27.21-.53.54-.75,1.07-.75.54,0,1.09,0,1.64,0,.96,2.59,1.9,5.14,2.85,7.7-.81.3-.94.31-2.2.09-.02-.11-.06-.24-.06-.37.02-.58-.28-.79-.83-.77-.71.02-1.43,0-2.15,0ZM154.45,94.76c.75.13,1.43.23,2.1-.08-.33-1.09-.63-2.11-.96-3.2-.73.67-1.19,2.06-1.14,3.28Z"/>
    <path class="cls-5" d="M169.92,94.09c.64,1.04,1.24,2.02,1.86,3.04-.87.05-1.61.1-2.43.15-.55-.9-1.11-1.82-1.67-2.74-.08.01-.16.02-.23.03-.12.85-.23,1.69-.36,2.62-.69.07-1.36.13-2.13.2v-8.1c1.35.12,2.66-.38,4.04-.07,1.33.29,2.04,1.19,2.51,2.33.3.72,0,1.55-.65,1.99-.28.19-.58.34-.94.55ZM167.31,93.29c.49-.08.8-.1,1.09-.17.41-.11.8-.27.84-.78.04-.49-.16-.88-.58-1.12-.5-.3-1.02-.38-1.52.04.05.64.11,1.27.17,2.03Z"/>
    <path class="cls-5" d="M94.73,97.33h-2.36v-2.75c-1.03-.42-1.26-.43-2.28-.12-.06.9-.13,1.84-.2,2.85h-2.15c-.27-2.66-.12-5.27-.12-7.98.85.04,1.58.07,2.38.11v2.65h2.32c.04-.9.08-1.77.12-2.71h2.54c-.08,2.65-.16,5.22-.24,7.95Z"/>
    <path class="cls-5" d="M129.51,93.2c.08,1.91-1.1,3.33-2.95,3.75-1.32.3-2.51,0-3.69-.52-.56-.24-.94-.71-1.11-1.29-.24-.82-.48-1.65-.57-2.49-.05-.47.11-1.07.39-1.44.73-.95,1.58-1.82,2.94-1.8.68,0,1.39-.17,2.02-.02,1.76.41,2.98,1.78,2.96,3.8ZM127.24,93.19c.15-.87-.69-1.86-1.93-1.98-.97-.09-1.9.95-1.93,2.12-.02.97.86,1.99,1.78,2.06,1.09.09,2.01-.9,2.07-2.2Z"/>
    <path class="cls-5" d="M163.14,96.93c-.74.08-1.41.15-2.14.23v-7.6h2.33c-.06,2.42-.12,4.86-.18,7.36Z"/>
    <path class="cls-5" d="M107.59,93.41v-2.3c1.39-.38,2.18.17,2.09,1.36-.03.43-.21.73-.65.8-.46.07-.93.1-1.45.15ZM109.15,92.75c.11-1.17-.09-1.39-1.12-1.29v1.48c.16,0,.27.02.37,0,.23-.05.46-.11.75-.18Z"/>
    <path class="cls-5" d="M98.97,94.64c.22-1.15.44-2.26,1.01-3.54.67,1.27.83,2.4.98,3.59-.69.46-1.3.17-2-.05ZM100.55,94.45c-.17-.74-.31-1.33-.44-1.93-.08,0-.15,0-.23,0-.14.6-.28,1.19-.44,1.87.41.02.67.03,1.11.05Z"/>
    <path class="cls-5" d="M154.45,94.76c-.05-1.22.42-2.61,1.14-3.28.32,1.09.63,2.11.96,3.2-.67.31-1.35.21-2.1.08ZM154.78,94.39h1.16c-.17-.62-.32-1.15-.47-1.68-.07,0-.14,0-.21,0-.15.53-.3,1.06-.47,1.69Z"/>
  </g>
</svg>