<?xml version="1.0" encoding="UTF-8"?>
<svg id="Layer_1" data-name="Layer 1" xmlns="http://www.w3.org/2000/svg" viewBox="0 0 180 200">
  <defs>
    <style>
      .cls-1 {
        fill: #ee3645;
      }

      .cls-1, .cls-2, .cls-3, .cls-4 {
        fill-rule: evenodd;
      }

      .cls-2 {
        fill: #fff;
      }

      .cls-3, .cls-5 {
        fill: #231f20;
      }

      .cls-5 {
        font-family: AmericanTypewriter-Bold, 'American Typewriter';
        font-size: 24px;
        font-weight: 700;
        letter-spacing: .02em;
      }

      .cls-4 {
        fill: #f5881f;
      }
    </style>
  </defs>
  <g>
    <path class="cls-2" d="M44.82,79.38l-.3,9.23-.3,11.32.3,16.38-1.19,13.7.89,5.95,1.49,1.79s42.58.89,43.47,1.19c.89.29,12.8.89,14.29.89s32.75.89,35.43.59c2.68-.29,31.27-2.08,31.27-2.08l6.03-.6-.67-26.35v-18.31c0-1.49-.97-12.36-.67-14.74.3-2.38-5.88-3.72-5.88-3.72l-122.08,1.79-2.08,2.98Z"/>
    <g>
      <path class="cls-2" d="M64.67,110.73c.48.74,1.11,1.64,1.51,2.52.02.05-.02.13,0,.17.02.09.15.18.16.23.1.41-.04.81-.07,1.29-.23.19-.27.61-.71.56-.08-.3-.13-.49-.18-.73.12-.09.38.12.43-.11-.09-.34-.34-.5-.34-.83,0-.29.31-.54.09-.81.06-.02.11-.05.17-.08-.23-.24-.4-.54-.83-.6-.08-.27-.15-.4.03-.68-.15-.32-.33-.47-.26-.92h0Z"/>
      <path class="cls-2" d="M65.01,112.63c.09,0,.09.11.08.22-.15.02-.15-.16-.08-.22h0Z"/>
      <path class="cls-3" d="M68.33,95.7c0-.12.02-.19.14-.17,0,.12-.02.19-.14.17h0Z"/>
      <path class="cls-2" d="M79.47,99.81c0-.57.17-.99.28-1.32.15.08-.07.29-.06.42,0,.07.12.1.12.14,0,.1-.28.25-.06.34-.11.12-.13.34-.28.42h0Z"/>
      <path class="cls-2" d="M80.22,101.14c.41.57.52,1.41.75,2.14-.19.51.45,1.13.19,1.43-.08-.05-.17-.16-.12-.31-.13-.05-.11-.26-.33-.23-.26-.34-.57-.61-.59-1.15-.01-.4.04-.81.06-1.16-.11-.14,0-.56.04-.72h0Z"/>
      <path class="cls-2" d="M80.82,94.17s0-.06,0-.09c.66-1.93,2.51-3.14,4.15-4.18.56-.1,1.47-.36,1.92.14-.05.16-.49.12-.4.28-.46-.06-.99.32-1.43.27-.34.12-.63.51-.97.47-.11.14-.26.23-.32.41-.25-.05-.31.11-.48.15-.74.87-2.01,1.16-2.27,2.55-.07,0-.14,0-.22,0h0Z"/>
      <path class="cls-2" d="M82.05,106.68c.05-.16.21.02.21.14-.14.01-.11-.12-.21-.14h0Z"/>
      <path class="cls-2" d="M82.31,107.69c0-.09.15-.01.21-.03,0,.08.05.09.03.17-.12.1-.14-.12-.25-.14h0Z"/>
      <path class="cls-2" d="M97.51,114.75c.26.18.4.53.69.76.2.16.53.24.84.38.44.2.56.33,1.01.48.3.11.6.21.84.38.03.35.13.63.31.84-.1.09-.38.04-.53.19-.17-.05-.35-.1-.33-.32-.15-.04-.17.06-.3.03-.7-.42-1.7-.56-2.22-1.14-.17-.51-.33-.98-.31-1.6h0Z"/>
      <path class="cls-2" d="M101,103.96c.05-.3.41-.25.46-.54.43-.11.56-.43,1.1-.5.02.1-.09.06-.09.12.16.06.14-.08.22-.11.56.07,1.1.07,1.58.29.13.07.21.21.33.28.29.16.52.26.79.43.63.38,1.45.63,2.01,1.08.1.36.06.85.38,1.01.17.04.2-.07.35-.07.79.48.84,1.47.74,2.44-1.39-1.28-2.86-2.48-4.51-3.53-.41-.03-.74-.11-.93-.35-.79-.17-1.38-.52-2.42-.55h0Z"/>
      <path class="cls-2" d="M102.76,102.16c.08-.08.27-.18.39-.07,0,.17-.3.14-.39.07h0Z"/>
      <path class="cls-2" d="M102.21,116.91c.67.16,1.59.18,2.44.08.13.02.19.1.29.14.08-.05.23-.02.26-.12.13.21.35-.03.64.12-.05.22-.19.34-.16.64-.42.43-1.1.3-1.65.39-.13.02-.25.12-.39.11-.73-.08-1.09-.9-1.44-1.36h0Z"/>
      <path class="cls-2" d="M104.91,103.08c.3-.14.6.24.97.35-.32.2-.66-.27-.97-.35h0Z"/>
      <path class="cls-2" d="M106.77,92.26c.02-.05.08-.06.09-.13.11.01.09.17.03.22-.05-.02-.06-.08-.12-.09h0Z"/>
      <path class="cls-2" d="M107.01,89.05c.13-.14.47-.05.57-.23.03-.15-.15-.12-.11-.27.1-.03.19-.09.35-.07.16.9.13,1.8.16,2.76-.18-.05-.2-.23-.42-.24,0-.24-.06-.4-.28-.44.01-.11.15,0,.17,0,0-.16-.19-.16-.2-.31.08-.08.12.06.21-.03-.13-.14.12-.39-.11-.39.08-.07.18-.11.19-.25-.04-.18-.28-.28-.06-.47-.09-.13-.42.01-.47-.07h0Z"/>
      <path class="cls-2" d="M106.92,92.62c.15-.06.19.29.04.26,0-.1-.07-.13-.04-.26h0Z"/>
      <path class="cls-2" d="M107.72,92.27c.14.03.18.13.29.19.03,1.05.17,2.39,0,3.39-.04-.03-.09-.05-.17-.05.13-.28-.09-.39.08-.64-.21-.42-.37-1.05-.39-1.61,0-.12.08-.27.06-.38-.03-.19-.25-.76.13-.9h0Z"/>
      <path class="cls-2" d="M108.34,101.45c.15,1.27.2,2.07.36,3.2-.78-.43-.71-2.4-.36-3.2h0Z"/>
      <path class="cls-2" d="M108.91,115.99c-.06-.05-.18-.04-.16-.18.14-.01.19.05.16.18h0Z"/>
      <path class="cls-2" d="M109.67,105.89c.05.05.08.12.16.14-.05.05-.06.15-.06.25-.16-.05-.16-.2-.11-.39h0Z"/>
      <path class="cls-2" d="M109.78,107.96c.26.21.03.69.07,1.16-.1-.3-.13-.77-.07-1.16h0Z"/>
      <path class="cls-3" d="M72.34,82.32c0-.28-.09-.49-.27-.61-.01.31-.03.6.27.61h0ZM70.26,80.98c.55.17,1.26.76,1.75.99.14-.98-1.66-1.19-2.24-1.57-.03.01-.05.04-.05.08.22.13.38.32.53.5h0ZM65.08,112.85c.01-.11.02-.21-.07-.22-.07.06-.07.24.07.22h0ZM64.93,111.64c-.18.28-.11.41-.03.69.43.05.6.36.83.6-.07.02-.11.06-.17.08.22.27-.09.52-.08.81,0,.33.26.49.34.83-.05.23-.31.01-.43.11.05.25.1.43.18.74.45.04.48-.37.71-.56.02-.47.16-.88.06-1.29-.01-.04-.14-.13-.16-.23,0-.04.03-.12,0-.17-.4-.88-1.03-1.78-1.51-2.52-.07.45.11.59.26.91h0ZM61.84,98.48c-.08-.09.09-.31-.12-.35-.01.14.05.41.12.35h0ZM64.55,95.69s.05-.08.09-.08c1.01-.05,2.21.59,3.34.25.07.14.2.07.34.06.02-.09.05-.18.14-.21.26.3.45.07.81.12.01-.05,0-.12.05-.12.98-.33,1.82-.82,2.32-1.69.17-.09.34-.21.49-.32.13-.43.45-.64.77-.87-.18-.29-.02-.47,0-.86.04,0,.09,0,.13,0,.02-.12-.12-.1-.12-.22.3-.71.06-1.72-.09-2.62.06,0,.16.03.17-.03-.37-.13-.17-.52-.3-.87.23,0,.03-.02.05-.12.03-.18.13-.38.03-.6.1.1.23.02.22-.12.03-.11-.21.03-.17-.09.14-.13.22-.22.41-.37,0-.35.26-.57.39-.84-.09-.1-.18.04-.34-.02.08-.88-.2-1.59-.97-1.98.04-.12-.06-.11-.04-.21-1.23-.65-1.77-1.92-2.87-2.67-.07-.46-.64-.45-.82-.81-.61-.12-.92-.61-1.6-.56-1.06.09-2.32.22-3.54.43-.05.04-.09.08-.14.12-.18-.02-.3.02-.43.07.07.31.09.61-.17.76.27.85-.02,1.67-.08,2.48-.05.75-.4,1.53-.54,2.34-.07.38-.12.8-.19,1.19-.11.65-.27,1.36-.26,1.92,0,.4.16.85.2,1.26.07.91.26,1.68.3,2.55.02.39-.07.81.2,1.17.29-.12.68-.04.81.21.09.2-.11.31.03.35.07.11.12-.12.13-.12.06.1.28.05.34.15-.04.04-.16,0-.13.12.16.07.32-.1.39.02-.05.19-.41-.02-.4.32.43-.12.67.45,1.09.53h0ZM61.44,82.05c-.1.31-.3.67-.35,1.01-.07.52.06,1.11-.07,1.5.07.06.16.1.16.22.03.14-.12.08-.1.21.09.07.16.16.21.27-.14.26-.19.93.03,1.12,0-.32.17-.53.08-.81.03-.06.14-.05.14-.16.11-.67-.04-1.52-.02-2.1,0-.2.1-.39.19-.38-.12-.31-.13-.99.02-1.33-.3-.12-.23.3-.28.46h0ZM69.12,79.63c.82.33,1.64.63,2.45.81.1.19.34.39.59.32.19.32.46.57.78.77.06.49.56.93.41,1.35.34.57.65,1.27.94,1.76,0,.07,0,.14-.01.21.39.76.35,1.72.34,2.72-.02,1.3.23,2.46.6,3.47-.32.32-.95-.14-1.18-.4-.28.78,0,1.79-.17,2.48-.09.4-.47.59-.48,1.05-.04,0-.08,0-.13,0-.31.83-1.06,1.17-1.59,1.77-.11,0-.14.07-.21-.01,0,.08.05.09.03.17-.48.08-.79.71-1.27.49-.99.35-1.87.36-2.98.33-.12.02-.08-.09-.12-.14-.29.14-.47.02-.86,0-.32.17-.7.05-.99-.09-.68.21-1.75-.09-2.39-.33-.07.69,0,1.31-.27,1.92-.05.15.18.05.21.14.08.44-.02.81.07,1.24,0,.18-.06,0-.18.04.09.22.03.35.23.48.03.46.04,1.17.4,1.44-.04.21.06.3.02.52-.06,0-.11,0-.17,0-.01.09.15.03.21.05.2.68.51,1.01.51,1.87-.04,0-.08,0-.13,0-.03.07.2.08.17,0,.08.18.14.33.02.52,0,.15.09.22.16.31-.16.71.45,1.3.55,1.87.13.09.21.21.24.4.08.13.23.2.28.36.04.19-.12.16-.14.29.01.06.11.04.17.05-.1.67-.01.96-.11,1.42-.12.11-.06-.12-.17,0,.18.2.63.3.6.8.24.17.24.55.48.71-.02.1.08.1.04.21,1.02.83,1.51,2.83.95,4.26,0,.13.12.16.07.35-.17.37-.34.48-.47.88-.42.14-.63.34-1.17.16-.09-.14-.18-.27-.19-.48-.04-.08-.13-.1-.25-.09-.95-1.47-.99-3.73-1.77-5.15.08-.36-.26-.49-.08-.91-.26-.33-.19-.72-.42-1.05.17-.34.03-.53-.13-.82.03-1.01-.47-1.57-.48-2.47.04-.16.17-.21.27-.29-.24-1.43-.54-3.23-.53-4.88-.59-.47-.36-1.59-.93-2.15,0-.16.02-.31.11-.38-.15-.4-.11-.51-.26-.83.02-1.45.26-3.12.23-4.67-.01-.76-.31-1.67-.3-2.55,0-.68.08-1.27-.04-1.85-.07-.35-.21-.67-.25-1-.07-.64.04-1.19-.35-1.61-.2-1.23-.44-3.04.5-4.01.18-.66.07-1.23.47-1.61.08-.08.28-.14.39-.24.36-.29,1.11-.71,1.79-.56.29.07.67.14.99-.03,0,.05.11.04.17.05.17,0-.02.06.08.13.26.02.38-.12.61-.14-.14.24.41.33.6.16,0-.05-.08-.04-.12-.05.07-.07.24-.12.21.05.1-.26.38.04.6.03.05,0,.04-.07.05-.13.12.17.19.05.34-.02-.02.12.4.31.38.06.5.28,1.3.23,1.91.48.12.03.05-.15.14-.16.14-.03.13.08.21.1-.02.05-.17,0-.26.07h0Z"/>
      <path class="cls-2" d="M61.73,98.13c.21.04.03.25.11.35-.06.07-.13-.21-.11-.35h0Z"/>
      <path class="cls-3" d="M83.94,110.21c.3.06.37.44.49.54.08,0-.02-.07.05-.08.25.39.6.46,1.13.61.11-.17.57-.02.78-.04.32-.04,1.05-.29,1.27-.41.55-.32.83-.41,1.11-.85.01-.08-.04-.1-.03-.17.22-.16.55-.45.5-.75-.27.26-.79.21-1.05.42-.92-.14-1.57-.03-2.74-.22-.94-.4-1.66-1.01-2.64-1.38.04.21.1.4-.03.56.23.35.52.64.86.9-.06,0-.04.1-.05.17.11-.04.2.14.26.01-.07,0-.11-.06-.04-.09.13.04.05.12.03.22.19.07.12-.14.27-.11.1.02.26,0,.25.14-.22.11-.13.19-.35.24-.13-.04-.16-.19-.34-.19.1.14.39.28.28.49h0ZM82.56,107.83c.01-.08-.04-.1-.03-.17-.06.02-.22-.06-.21.03.11.03.13.24.25.15h0ZM82.26,106.82c0-.12-.16-.31-.21-.14.1.02.07.15.21.14h0ZM87.85,108.38c.05,0,.03.08.08.09.65-.18,1.43-.47,1.89-.85.68-.73.92-1.94,1.43-2.85.02-.42.19-.85.35-.97-.02,0-.05,0-.04-.04.14-.3.2-.57.3-.93.14-.5.45-.97.59-1.52.03-.13-.02-.3.02-.43.06-.21.2-.38.24-.59.09-.52,0-1.07-.05-1.59-.07-.8-.14-1.68-.13-2.5,0-.53.05-1.02-.06-1.5-.35-1.54-1.45-2.6-2.37-3.47-.63-.12-1.15-.19-1.72,0-.17.47.59,1.29-.08,1.58-.68-.12-.72-.8-.75-1.41-1.18,0-2.17.53-2.85,1.23,0,.07,0,.14,0,.21-1.03.34-1.1,1.47-1.99,1.97.11.14-.07.33-.23.33-.08.32-.4.72-.69.95-.4.46-.26,1.31-.47,1.83-.03.06-.1.03-.13.08.26.17-.03.62-.05.9-.12,1.7.73,3.26.91,5.2.47,1.64,1.27,2.77,2.3,3.85.67.34,1.43.52,2.19.79.1.02-.01-.2.14-.12.02.09-.13.13.04.13.18-.04.32-.09.26-.16.36,0,.62-.11.87-.22h0ZM81.04,94.18c.26-1.4,1.53-1.68,2.27-2.55.17-.04.23-.2.48-.15.06-.19.22-.27.32-.41.34.04.63-.35.97-.47.44.05.98-.32,1.43-.27-.09-.16.35-.12.4-.28-.45-.51-1.36-.24-1.93-.14-1.64,1.03-3.49,2.24-4.15,4.18,0,.03,0,.06,0,.09.07,0,.14,0,.21.01h0ZM80.18,101.87c-.02.35-.07.77-.06,1.16.02.53.33.8.59,1.15.22-.03.2.17.33.23-.05.15.04.26.12.31.26-.29-.38-.92-.19-1.43-.24-.73-.35-1.57-.75-2.14-.03.16-.14.58-.04.72h0ZM79.75,99.4c-.23-.09.05-.24.06-.34,0-.04-.12-.07-.12-.14-.01-.13.21-.34.06-.43-.11.33-.27.75-.28,1.32.15-.08.17-.29.28-.42h0ZM80.89,91.89c0-.08-.11-.06-.08-.17.27-.44.58-.87.92-1.24.25-.13.56-.2.71-.44.59-.03.9-.37,1.44-.44.85-.58,1.78-.59,2.98-.37.31.35.89.45,1.16.83.21.07.49-.08.73-.05.15.02.28.16.42.19.84.23,1.99.44,2.39,1.19.15-.13.48.19.54.41.23.02.48.28.48.63.41.55.57.81.61,1.62.09.07.12.19.2.27.03.12-.09.08-.09.17.16-.09.46.95.2,1.09,0,.08.14.03.17.09-.16.67.17,2-.13,2.74.26.34.02.94.19,1.3-.32.41-.11,1.3-.48,1.87,0,.89-.31,1.72-.56,2.64-.08,0-.06.11-.18.08,0,.05.08.04.13.04-.18.27-.19.65-.3.93-.02.04-.12.07-.13.12-.06.21.03.36-.02.51-.03.09-.19.14-.23.25-.02.06.04.27-.02.39-.05.09-.14.07-.18.16,0,.11.07.13.03.26-.61.76-.75,1.94-1.63,2.62-.26.68-.76.89-1.1,1.41-.23.06-.49.09-.53.36-1.06.28-2.15.7-3.07.36-.06,0-.02.13-.09.13-.84-.21-1.45-.63-2.1-1-1.06-1.2-1.52-2.93-2.72-4-.12-.86-.97-1.06-1.06-1.94-.33-.64-.59-1.59-.79-2.19-.01-.08.04-.08.09-.08-.21-.15-.09-.48-.27-.57.2-.34-.11-.95.02-1.24-.25-.53.04-.98.16-1.54.06-.25,0-.56.04-.77.23-1.16.9-2.18,1.02-3.34,0-.1.07-.13.14-.17-.05-.12-.03-.32-.1-.43.07-.26.1-.3.11-.64.24-.34.32-.85.45-1.31.26-.17.23-.37.38-.67.04-.04.1-.05.17-.04h0Z"/>
      <path class="cls-2" d="M83.66,109.73c.18,0,.2.15.33.19.23-.05.13-.13.35-.24.01-.13-.14-.12-.24-.14-.15-.03-.08.18-.26.11.02-.1.1-.18-.03-.22-.07.03-.03.1.04.09-.06.12-.14-.05-.26-.01,0-.07-.01-.16.05-.17-.34-.25-.62-.55-.86-.9.13-.15.07-.35.03-.55.98.37,1.7.97,2.64,1.38,1.16.19,1.81.08,2.74.22.26-.2.78-.16,1.05-.42.04.3-.28.59-.51.75-.01.08.05.09.03.17-.28.44-.56.53-1.11.85-.21.12-.95.37-1.27.41-.21.02-.67-.13-.78.04-.54-.15-.88-.22-1.13-.61-.07.01.03.08-.05.08-.12-.09-.19-.48-.49-.54.12-.2-.17-.35-.28-.49h0Z"/>
      <path class="cls-3" d="M109.85,109.12c-.04-.47.19-.95-.07-1.16-.06.4-.02.87.07,1.16h0ZM109.78,106.28c0-.11,0-.21.05-.25-.08-.02-.11-.09-.16-.14-.06.19-.05.34.11.39h0ZM110.48,84.07c.08-.07-.03-.11.01-.25-.04,0-.08,0-.13,0-.03.15.02.22.12.26h0ZM108.7,104.64c-.16-1.13-.2-1.93-.36-3.2-.35.8-.42,2.77.36,3.2h0ZM108.69,88.24c-.01.12-.1.22-.1.34,0,.48.23.98.18,1.47-.03.46-.12.93.15,1.29.08-1.3.24-2.51.54-3.88-.01-.81.11-1.72.08-2.49-.01-.25-.03-.63-.31-.74-.2.23-.41.42-.26.8,0,.16-.21.13-.27.24.08.32-.21.69.05.86-.11,0-.17.05-.18.17.09.53.19,1.26.12,1.94h0ZM107.59,93.16c.02.12-.07.26-.06.38.03.55.18,1.18.39,1.61-.16.25.05.36-.08.64.08,0,.13.02.17.05.16-1.01.03-2.34,0-3.39-.11-.05-.15-.16-.29-.19-.38.13-.16.71-.13.9h0ZM107.74,88.32c.04-.21.05-.29-.11-.39-.1.12-.04.37.11.39h0ZM106.96,92.87c.16.04.12-.32-.03-.26-.04.13.04.16.03.26h0ZM107.48,89.12c-.22.19.02.29.06.47,0,.15-.11.19-.18.25.23,0-.02.25.11.39-.09.09-.14-.05-.22.03.01.15.19.16.2.31-.03-.01-.16-.11-.17,0,.22.04.28.21.28.44.22,0,.24.19.42.24-.03-.96,0-1.86-.16-2.76-.16-.02-.24.04-.35.07-.03.15.14.11.11.27-.1.18-.44.08-.57.23.05.08.38-.07.47.07h0ZM106.89,92.36c.06-.05.08-.21-.03-.22-.01.07-.07.07-.09.13.06.01.07.07.13.09h0ZM105.88,103.43c-.37-.11-.67-.49-.97-.35.31.09.64.55.97.35h0ZM105.74,86.16c.11.03.15.13.2.23.03.13-.12.07-.1.21.33.31-.03,1.25.4,1.48.21-.59.36-1.19.47-1.74.11-.54.29-1,.46-1.57-.21-.7-1.05-1.01-1.73-.56.24.65.31,1.32.29,1.95h0ZM103.65,118.27c.14.01.27-.09.39-.11.55-.09,1.23.04,1.65-.39-.02-.3.11-.42.16-.64-.28-.15-.51.1-.64-.12-.04.09-.18.07-.26.12-.11-.04-.16-.12-.3-.14-.86.11-1.77.09-2.44-.08.35.46.71,1.28,1.43,1.36h0ZM103.15,102.09c-.12-.11-.31,0-.39.07.09.07.39.1.39-.07h0ZM103.42,104.51c.19.23.52.32.93.35,1.65,1.04,3.12,2.25,4.51,3.53.1-.97.06-1.96-.74-2.44-.14,0-.17.11-.35.07-.32-.16-.28-.65-.38-1-.56-.45-1.38-.71-2.01-1.09-.27-.16-.5-.27-.79-.42-.11-.07-.2-.22-.33-.28-.47-.22-1.02-.22-1.58-.29-.08.03-.06.17-.22.11,0-.07.11-.03.09-.12-.53.08-.66.4-1.1.51-.05.28-.41.24-.46.53,1.04.03,1.63.38,2.42.55h0ZM97.81,116.35c.52.57,1.52.72,2.22,1.14.13.03.15-.07.3-.03-.02.22.16.27.33.32.15-.15.43-.1.53-.19-.18-.21-.27-.49-.31-.84-.24-.17-.54-.28-.84-.39-.45-.15-.57-.27-1.01-.48-.31-.15-.64-.21-.84-.38-.29-.23-.43-.59-.69-.76-.02.62.14,1.09.3,1.6h0ZM98,112.58c.18.04.28-.01.43-.02.11.1-.14.13-.01.25.73.32,1.14.92,1.65,1.42.29.28.74.45.99.73.29.32.47.4.87.6.31.16.57.52.83.6.06.02.19-.05.26-.03.19.08.28.23.5.28.18.04.35-.05.56.03-.02-.18.52.01.61-.27-.19-.1-.43-.15-.41-.45,1.17-.11,2.13.48,2.97-.07-.06-.29.19-.33.19-.42.21.03.25-.18.48-.23.21-.29.29-.64.39-.93.18-.56.59-1.14.68-1.68.1-.59-.14-1.25,0-1.84-.43-.69-1.09-1.17-1.36-2-.28-.03-.38-.45-.61-.63-.04-.03-.18-.01-.21-.05-.04-.04.02-.17-.03-.21-.14-.12-.34-.2-.5-.32-.63-.52-1.49-1.09-2.16-1.53-.41-.27-.86-.37-1.35-.58-.53-.22-1-.58-1.52-.64-.68-.07-1,.39-1.53.57,0,.54-.59.4-.81.69-.11,0-.21,0-.26-.06.02.24-.21.18-.35.24-.33.63-.7,1.22-1,1.88.09.11.34.21.16.39-.07,0-.02-.12-.08-.13-.7,1.31.05,3.26.6,4.41h0ZM108.75,115.81c-.02.14.1.13.16.18.03-.13-.02-.19-.16-.18h0ZM104.82,119.83c-.11-.01.06-.07,0-.17-1.11.55-1.86-.4-2.62-.9-1.28-.12-2.18-.24-3.05-.84-1.38-.36-2.33-1.11-2.9-2.2-.64-.42-.7-1.38-.97-2.15.13-.48-.12-.92-.15-1.43-.01-.32.16-.65.18-.98.02-.39-.12-.77-.07-1.16.02-.17.19-.29.11-.47.34-.28.3-.97.62-1.26,0-.81.71-1.63.89-2.32.07,0,.07.04.12.05-.1-.24.17-.11.06-.34.04-.03.1-.04.17-.04-.06-.15.12-.39.28-.46,0-.07.01-.14.01-.21.64-.49,1.01-1.41,1.6-2.07.27-.3.6-.53.81-.82.45-.61.97-1.08,1.98-.93.22.03.45.07.68.12.38.08.71.31,1.1.4.75.17,1.87.36,2.26,1.09.41.07.59.58,1.22.57.24-1.95-.91-3.59-.76-5.58-.26-.69-.2-1.8-.44-2.43-.01-.82-.11-1.56-.37-2.16.1-.39-.22-.71-.25-1.05-.04-.38,0-.77-.03-1.16-.01-.16-.03-.35-.06-.56-.11-.9-.67-1.84-.77-2.75-.05-.47-.33-.85-.36-1.31-.04-.63.08-1.54.4-2-.06-.35.24-.61.38-.88.46-.24.98-.14,1.56-.23.57.2.95.21,1.53.46.33-.22.54-.57.94-.73.28.11.76-.16.85.22.42-.05.55.27.85.21.15.37.74.34.64.93.37.44.26.95.23,1.51-.03.51,0,.99-.16,1.45-.06.19-.12.16-.15.47-.04.42-.34.79-.49,1.22-.07.21-.05.51-.12.72-.02.08-.13.14-.14.21-.13.6.02,1.33-.26,1.84,0,.6-.15,1.29-.27,1.92-.16.87-.49,1.63-.64,2.46-.09.55,0,1-.08,1.59.23.12-.09.28.11.43-.17.61-.45,1.48-.01,1.94-.1.91.13,1.87.43,2.55-.39,1.17.89,1.79.59,2.91.02.06.09.08.16.09-.04.37-.15,1.67.3,1.86,0,.25.08.89-.14,1.16.1.38.07.97-.1,1.15.17.47.11.92.11,1.38,0,.08.07.1.17.09-.29.12-.03.47-.42.58.05.07.17.09.21.18,0,.15-.09.16-.14.29-.1.24,0,.56-.08.81-.05.13-.36.36-.36.45,0,.09.25.28.24.36-.07,0-.1.11-.26.12.27.28-.35.54-.3.85-.29.08-.4.3-.33.58-.11.06-.31-.07-.43.06.21.15.1.22.24.32-.94.65-1.42,1.99-2.04,2.99-.06.04-.11.04-.17-.01.14.28-.37.55-.54.53-.12.1.11.07,0,.17-.46.28-1.19-.03-1.6.27h0Z"/>
      <path class="cls-2" d="M108.57,86.3c.01-.11.07-.16.18-.16-.25-.17.04-.54-.04-.86.06-.12.26-.08.27-.25-.15-.38.06-.57.26-.8.27.11.3.49.31.75.03.77-.09,1.68-.08,2.48-.3,1.38-.46,2.58-.54,3.88-.27-.36-.19-.84-.15-1.29.04-.49-.18-.99-.18-1.47,0-.12.09-.22.1-.34.07-.67-.02-1.4-.12-1.94h0Z"/>
      <path class="cls-3" d="M55.08,126.02c-.45.37-.79-.2-1.15-.24-.69-.08-1.81.67-2.16,1.15-.24.34-.52.97-.56,1.45-.03.35-.06,1.08.07,1.44.18.51.92.68,1.57.75.85.09,1.52-.33,2.55,0-.07.33-.6.61-1.02.8-.8.35-1.51.28-2.38.16-.73-.11-1.28-.2-1.62-.75-.02-.43-.47-.75-.56-1.24-.08-.44.06-.9-.26-1.22.38-.91.31-1.9.94-2.72.91-1.01,4.52-1.65,4.58.45h0Z"/>
      <path class="cls-3" d="M58.26,129.5c.64.79,2.22,1.22,3.06.55.3-.24.83-1.31.89-1.74.14-1.06-.49-2.33-1.3-2.66-.87-.35-1.17.09-1.85.27-.4.65-1.02,1.32-1.09,2.18-.02.8-.06.97.29,1.4h0ZM60.96,131.11c-.08.18.25,0,.17.18-.16.05-.4,0-.54.07-.06.14.14.04.08.18-.26.04-.75.19-.84-.13-.15-.02-.27-.02-.32.08-1.11-.24-2.5-.46-2.51-1.56-.46-.23-.33-.9-.52-1.28-.02-.15.04-.21.06-.31-.05-.72.25-1.81.73-2.24.13-.6.98-1.25,1.59-1.48,1.26-.49,3.16.4,3.65,1.2.13.22.48.94.56,1.23.57,1.92-.36,3.32-1.68,4.12-.18,0-.24-.09-.44-.07h0Z"/>
      <path class="cls-3" d="M65.09,124.51c.71-.08.83.38.95.85.83-.17,1.63-.25,2.31.16.19.12.33.36.56.52.54.39.9.54,1.15,1.09.3,1.33.28,2.82,0,4.47-.76.1-1.18-.46-1.43-.96.05-1.65.44-3.1-.42-4.09-.81-.11-1.45-.05-1.86.53-.18.27-.41,1.11-.52,1.54-.23.88-.01,1.92-.54,2.7-.38.15-.63-.17-.78-.49-.17-.36-.12-.27-.1-.72.01-.27.08-.52.08-.76,0-.22-.11-.47-.1-.72.03-.72-.03-1.62.03-2.37.06-.79.22-1.39.67-1.75h0Z"/>
      <path class="cls-3" d="M71.25,125.59c.31-.3.8-.4,1.32-.47.45-.83.15-1.64.39-2.53.3-.37,1.03-.16,1.15.23-.06.75-.25,1.47-.16,2.23.36.4,1.23,0,1.65.17.16.07.43.36.38.6-.13.54-1.28.11-1.76.27-.51.18-.58,1.71-.48,2.48.08.63.34,1.16.5,1.64.3.41.84.83,1.11,1.13-.61.58-1.65.13-2.31-.34-.05-.44-.39-.77-.43-1.27-.11-1.24.26-2.64-.14-3.58-.48-.12-1.14-.08-1.23-.56h0Z"/>
      <path class="cls-2" d="M78.41,130.71c.06.01.07.19.09,0,.34.37.71.72,1.35.83-.67.27-1.64-.31-1.44-.83h0Z"/>
      <path class="cls-3" d="M85.93,125.66c.52-.19.64-.51,1.1-.52.51-.03.88.3,1.36.47.31.11.6-.27.91-.31.46-.07.7.18,1.16.1.57.25,1.06.57,1.42,1.01.04.21.1.39.29.46.09,1.41-.28,2.97-.27,4.5-.03.15-.24.12-.28.25-.27,0-.28-.23-.57-.21-.06-.23-.19-.4-.28-.59,0-1.74.48-3.56-.4-4.58-.18,0-.35-.01-.53-.03-.09.24-.41.24-.6.37-.37,1.4-.11,2.85-.34,4.32-.13.09-.36-.13-.41.11-.24-.05-.49-.1-.61-.25.15-1.43.01-3.14.18-4.59-.1-.07-.13-.2-.26-.24-.26,0-.22.18-.45.02-.36.23-.77.19-1.01.53-.61.87-.11,3.3-.34,4.19-.1.04-.19.11-.36.07-.1.15-.12.38-.2.53-.39-.02-.55-.24-.83-.36-.02-.44.26-.6.04-.89-.02-.09.07-.08.14-.08-.12-.7.02-1.8,0-2.77-.01-.15.2-.06.15-.26.03-.09-.06-.09-.13-.09.03-.52.1-1.15.04-1.74.14-.33.56-.3.85-.14.1.23.16.48.23.73h0Z"/>
      <path class="cls-2" d="M101.85,131.48c.07-.23.3.15.04.13,0-.07.01-.13-.04-.13h0Z"/>
      <path class="cls-2" d="M103.21,131.56c-.03-.17.29-.08.22.05-.11.01-.17-.01-.22-.05h0Z"/>
      <path class="cls-2" d="M103.51,131.56c0-.07.05-.08.05-.13.11.03.23.05.22.19-.11,0-.13-.08-.27-.06h0Z"/>
      <path class="cls-3" d="M108.77,131.33c.11-.77.19-1.98.14-2.81,0-.08.1-.12.1-.17,0-.09-.09-.07-.08-.14.03-.53.2-1.07.26-1.6.04-.35-.1-1.2.33-1.32.35-.1.59.17.79.35-.07.21-.16.4-.21.62.67-.32,1.82-.57,2.6-.1-.02.2-.16.27-.25.39-2.37-.31-2.54,1.89-2.49,4.26-.18,0-.13.23-.32.2.03.24,0,.36-.08.58-.47.15-.46-.27-.79-.26h0Z"/>
      <path class="cls-3" d="M120.29,131.33c.11-.77.19-1.98.14-2.81,0-.08.1-.12.1-.18,0-.09-.09-.07-.08-.13.03-.53.2-1.07.26-1.6.04-.35-.1-1.2.33-1.32.36-.1.58.17.79.35-.07.21-.16.39-.21.62.67-.32,1.82-.57,2.6-.1-.02.2-.16.27-.25.39-2.37-.31-2.54,1.89-2.49,4.26-.18,0-.13.24-.32.21.03.23,0,.36-.07.57-.47.15-.46-.27-.79-.26h0Z"/>
      <path class="cls-3" d="M95.57,130.28c.28-.03.81.02,1.07.14.8-.15,1.06-.9,1.46-1.49.04-.45.07-.81.11-1.29-.43-.27-.5-.89-1.07-.9.05-.2.01-.12-.03-.27-.19-.07-.17.1-.27.12-.02-.14.09-.13,0-.23-.38-.07-.27.16-.67.1,0,.16-.23.25-.5.24.02.29-.27.24-.5.25.06,1.01-.48,2.56.42,3.32h0ZM94.92,125.28c.1.21.21.41.28.64,2.31-.74,4.4.2,4.18,2.35-.04.43-.37,1.16-.66,1.53-.44.59-.71,1.09-1.49,1.22-.81.13-1.57.28-2.23-.2-.08.11-.08.47-.07.53.01.1.22.03.31.06-.77,1.07.04,2.63-.36,3.74.25.48.12,1.27.22,1.89-.22.11,0,.64-.3.74-.3-.01-.39-.22-.66-.25.04-.53.1-1.07-.1-1.53.15-.21.12-.25.02-.49.04,0,.09,0,.13,0-.02-.11-.07-.28.02-.36-.08-.01-.1.05-.18.03.19-.18,0-.25.24-.39-.13-.22-.2-.29-.24-.55.09-.09.14.01.22.06-.06-.24.07-.31-.25-.33.04-.35-.02-.51,0-.85.06.05.1.06.13-.04.02-.12-.25.03-.17-.14.05-.01.08.01.09.05-.18-.77-.15-2.03-.08-2.87,0-.13-.11-.16-.12-.27.28-.73.04-1.57.28-2.13-.23-.5-.29-1-.1-1.66-.37-.48.25-.97.89-.81h0Z"/>
      <path class="cls-3" d="M103.78,130.91c.01-.14-.11-.16-.22-.19,0,.05-.06.06-.05.13.14-.03.16.05.27.06h0ZM103.43,130.76c.07-.14-.25-.23-.22-.06.05.04.12.07.22.06h0ZM102.62,128.17c.02.41-.07.91.16,1.21-.14-.03-.15.09-.14.22.08.08.15-.03.22.1.11.72.9.83,1.7.93.3-.06.3-.45.61-.51,0-.15.01-.3.02-.44.08,0,.14,0,.18-.04-.11-.24.05-.48.13-.71-.11-.23-.08-.62.04-.8-.06-.45-.28-.53-.35-1-.33-.24-1.56-.32-1.43-.07-.62.1-.77.71-1.13,1.11h0ZM101.88,129.43c.26.01.04-.36-.04-.14.05.01.04.07.04.14h0ZM105.81,130.7c.13.2-.15.12-.15.35-.3.06-.49.25-.69.41-.76.22-1.93.19-2.51.05-1.05-.69-1.79-2.31-1.61-3.57.08-.09.31-.38.16-.44.29-.58.68-1.04,1.1-1.47.83-.35,1.41-.46,2.25-.38,2.16.2,3.15,3.08,1.82,4.74,0,.05-.08.03-.13.04-.03.04-.04.27-.23.25h0Z"/>
      <path class="cls-3" d="M125.63,136.21c-.1-.01.06-.11,0-.23-.2-.02-.37.25-.41.25-.28.2-.77-.08-1.03.08.02.06.06.09.13.1-.32.05-.76-.06-1.01-.32,0-.44.86-.17.78-.54.04-.08.08,0,.13.01.12.02-.1-.17.06-.18.34.52,1.08-.04,1.44-.33.32-.36.51-.77.77-1.13.08-.11.23-.14.28-.25.12-.25-.02-.62.31-.79.09-.33.18-.65.36-.88.02-.11-.07-.1-.04-.23.04-.02.08-.04.14-.04-.16-.07.02-.23-.02-.45-.04-.07-.07.01-.18-.05.03-.28-.31-.43-.46-.69-.2-.36-.2-.81-.53-1.01-.09-.44-.29-.79-.57-1.06.05-.13.02-.37-.16-.41.11-.3-.14-.35-.2-.59.15.04.08-.09.05-.13-.34-.08-.76-.96-.78-1.47.74-.3,1.18.65,1.33,1.14.5.2.31,1.03.79,1.25.29.72.59,1.45.92,2.14.2-.12.26-.59.27-.79.22-.11.17-.52.22-.79.07-.4.21-.79.28-1.15.01-.08.13-.12.14-.17.04-.19-.02-.38.03-.53.1-.36.39-.63.41-1.1.31-.06.97-.02,1.06.36-.1.46-.12,1.07-.3,1.6-.02.07-.1.3-.15.39-.11.19-.12.03-.1.27.01.16-.15.3-.2.48-.13.45-.19.93-.34,1.41-.12.39-.26.75-.41,1.15-.2.53-.24,1.34-.61,1.53.19.22-.19.32-.07.58-.08,0-.1.05-.18.04-.09.4-.25.73-.54.91-.17.55-.65,1.12-1.1,1.51-.17-.24-.3.01-.5.11h0Z"/>
      <path class="cls-3" d="M80.81,126.35c-.86-.29-1.98.37-2.19.92.74.43,1.59.15,2.54.26.12-.12.3-.17.42-.29.04-.46-.43-.77-.76-.88h0ZM82.59,128.5c-1.13.05-2.88-.21-4.06-.16-.18.13-.1.55-.3.66,0,.12.16.11.21.19.13,1.59,1.94,1.26,3.09.82.51-.2,1.09-.62,1.52-.01-.01.19-.24.13-.2.39-.9.23-1.34.97-2.42,1-.14,0-.11.2-.23.21-.73.1-1.26-.25-1.85-.49-.24-.44-.55-.81-.88-1.16-.19-.75-.12-1.58-.11-2.24.14-.1.23-.24.2-.53.49-.76,1.25-2.2,2.64-1.84,1.19.31,2.28,1.21,2.37,2.62,0,.16-.04.27-.15.3.03.11.1.16.17.24h0Z"/>
      <path class="cls-3" d="M115.98,128.85c-.64.1-.98.54-1.08,1.24.89.96,2.51.34,3.39-.12,0-.17-.1-.24-.1-.41.17-.11.11-.34.23-.43-.38-.31-1.04-.47-1.6-.52-.08.07-.29.19-.37.02-.14.11-.21.09-.46.22h0ZM116.27,131.24c-.24-.18-.31-.07-.64-.19.04.16.34.08.4.22-.41.15-.56-.48-1-.37-.02-.21-.37-.13-.35-.38-.91-.25-.56-1.64-.26-2.15.74-.27,1.52-.63,2.55-.48.28.04.76.06,1.14.01.35-.44.09-1.04-.13-1.45-.3-.1-.41-.38-.58-.6-.28.03-.62.11-.77-.12-.13.07-.18.1-.13.28-.21-.03-.06-.13-.19-.21-.1.03-.15.11-.33.07,0,.05.07.04.12.04-.31.3-.83.53-1.33.58-.18-.27-.46-.35-.5-.67.55-.51,1.49-.55,2.23-.65,1.2.28,2.06.87,2.47,1.86-.1.5.32.94.1,1.29-.02.73-.25,1.56-.03,2.33.17.26.24.69.07.97-.12-.22-.43-.26-.63-.4.01-.04.07-.03.12-.03-.08-.12-.19-.21-.31-.3-.87.31-1.2.15-2.01.35h0Z"/>
      <path class="cls-2" d="M142.66,81.22c.53.21.74.75.84,1.4-.43-.32-.71-.78-.84-1.4h0Z"/>
      <path class="cls-2" d="M159.19,84.73c.9.12.99,1.06,1.82,1.26.42,2.87-.12,6.52-1.54,8.4-1.55-2.1,1.5-6.15-.28-9.66h0Z"/>
      <path class="cls-2" d="M158.35,87.53c.18.47.39,3.23-.56,3.78.04-1.41.35-2.54.56-3.78h0Z"/>
      <path class="cls-2" d="M141.12,87.81h.7c.19.51-.94.67-.7,0h0Z"/>
      <path class="cls-1" d="M169.7,94.67c1.05-1.02.02-1.84-.14-3.08h-.42c.15,1.06.03,2.39.56,3.08h0ZM171.8,99.29c-.7.13-.75-.37-1.26-.42.22-.98-.04-1.58.28-2.38-.46.06-.4.62-.98.56-.63.07-.63-.49-1.12-.56-.02-.35.22-.44.28-.7-1.26-1.56-1.39-3.98-1.12-6.02.2-.22.72-.12,1.12-.14,1.06.88,2.25,1.72,2.52,3.22.12.64-.24,1.41-.14,2.1.16,1.12.88,2.74.42,4.34h0Z"/>
      <path class="cls-1" d="M131.74,96.07c-.08-.33.18-1.02-.14-1.12-.19.2-.29,1.11.14,1.12h0ZM131.6,89.91c.12.09.25.17.28,0,.67.51,2.27,3.35,2.66,6.02.3,2,.55,5.58-.56,6.16-1.35.71-1.71-1.15-3.36-.56-1.96-1.03-3.15-2.83-3.92-5.04.77-.7,1.51.11,2.1.42.04-.92-.51-1.44,0-2.1.93-.18.92.57,1.54.7-.13-2.43,1.22-3.77,1.26-5.61h0Z"/>
      <path class="cls-2" d="M150.65,91.45c2.38,1.75,3.61,7.08,2.24,10.79-1.29-.09-.67-1.12-.84-1.96-.29-1.46-1.43-2.73-1.68-3.92-.33-1.61.05-3.32.28-4.9h0Z"/>
      <path class="cls-2" d="M169.13,91.59h.42c.16,1.24,1.19,2.06.14,3.08-.53-.69-.41-2.02-.56-3.08h0Z"/>
      <path class="cls-2" d="M131.6,94.95c.32.1.06.79.14,1.12-.42-.01-.33-.92-.14-1.12h0Z"/>
      <path class="cls-2" d="M149.53,99.01c-.43-.27-1.18-.22-1.68-.42-.23-.8-.69-2.22-.14-2.94,1.61.05,2.19,1.79,1.82,3.36h0Z"/>
      <path class="cls-2" d="M165.07,96.91c.83,1-.18,2.59-.42,3.78-1.03-.99.75-2.16.42-3.78h0Z"/>
      <path class="cls-2" d="M138.6,99.43c.66,1.35,1.16,2.85,1.54,4.48-1.02-.15-1.57-.77-2.1-1.4.22-.99.2-2.23.56-3.08h0Z"/>
      <path class="cls-2" d="M156.81,100.41c.6.17.58.82.42,1.4-.54-.07-.39-.83-.42-1.4h0Z"/>
      <path class="cls-2" d="M159.05,102.37c.09.51-.29.55-.7.56.03-.4.25-.6.7-.56h0Z"/>
      <path class="cls-1" d="M131.27,112.56c-.27-.73-.83-1.17-1.33-1.67.12.88.36,1.64,1.33,1.67h0ZM131.6,111.89c-.31-1.22-.3-2.74-1.56-3-.67,1.38.87,2.26,1.56,3h0ZM124.48,109.33c.8-.53-.05-1.43-.67-1.56,0,.75.06,1.42.67,1.56h0ZM127.48,103.43c-.27.86-2.23-.04-2.45,1.33.61-.13,1.19-.15,1.56.23.05.54-.12,1.3.11,1.67,1.03-.11,1.67.84,2,1.78.09-.87.92-1.01,1-1.89,2.16,1.15,3.07,3.53,3.67,6.23-.38,1.13-1.38-.18-2.11.55-1.64-.65-2.21-2.39-2.56-4.34-.64-.29-1.68-.18-2.23-.56-1,.64-1.1,2.61-3.12,1.89-1.47-2.69.42-8.3,4.12-6.9h0Z"/>
      <path class="cls-2" d="M123.81,107.77c.61.13,1.47,1.03.67,1.56-.6-.14-.68-.81-.67-1.56h0Z"/>
      <path class="cls-2" d="M138.88,108.39c.52.37.96.81.84,1.82-.87-.01-.79-.99-.84-1.82h0Z"/>
      <path class="cls-2" d="M165.07,108.39c.02.58-.5,1.83-1.12,2.24-.13-1.26.72-1.52,1.12-2.24h0Z"/>
      <path class="cls-2" d="M143.36,109.1c.55.05.37.48.14.7-.24-.13-.36-.49-.14-.7h0Z"/>
      <path class="cls-2" d="M144.62,109.51c.95-.05.43,1.49-.28,1.4.06-.5.31-.81.28-1.4h0Z"/>
      <path class="cls-2" d="M130.04,108.89c1.26.25,1.25,1.79,1.56,3-.69-.74-2.23-1.62-1.56-3h0Z"/>
      <path class="cls-2" d="M159.61,111.48c-.5-.11-.51-.02-1.12-.14.11-.71,1.31-1,1.12.14h0Z"/>
      <path class="cls-2" d="M139.44,110.92c.36.01.28.47.28.84-.36-.02-.28-.47-.28-.84h0Z"/>
      <path class="cls-2" d="M137.34,111.48c.44-.07.55.2.84.28.02.64.11.55,0,1.12-.34-.43-1.08-.81-.84-1.4h0Z"/>
      <path class="cls-2" d="M129.93,110.89c.51.5,1.06.94,1.33,1.67-.97-.03-1.21-.79-1.33-1.67h0Z"/>
      <path class="cls-2" d="M163.67,112.6c-.25-.01-.3.17-.56.14-.07-.11-.14-.23-.14-.42.2-.21.73-.13.7.28h0Z"/>
      <path class="cls-2" d="M159.19,112.6c.06,1.23-.38,1.96-1.12,2.38-.46-.63.2-2.71,1.12-2.38h0Z"/>
      <path class="cls-1" d="M137.48,127.16c.3-.34.1-1.04-.42-.98-.3.35.1.83.42.98h0ZM136.92,128.56c.34-.85-.7-1.39-.98-2.24-.41-1.24-.04-2.52-.28-3.92-.64,1.56-1.01,6.64,1.26,6.16h0ZM137.76,122.4c.22-1.91-.54-.63,0,0h0ZM135.24,116.8c-2.19-.91-3.43,1.08-2.66,3.5.08-1.48,1.68-2.37,2.8-1.26.76.11.55-.76,1.4-.56,2.22.71,3.41,3.71,3.08,6.72-.17,1.55-1.92,4.38-3.22,4.48-2.28.18-2.21-4.82-2.24-7.01-.96-.08-.52,1.25-1.4,1.26-2.04-.8-1.68-4.02-1.96-6.59.38-1.6,3.29-2.06,4.2-.56h0Z"/>
      <path class="cls-2" d="M145.75,116.8c.24.43.3,1.88-.28,1.96.17-.67-.05-1.25.28-1.96h0Z"/>
      <path class="cls-2" d="M156.11,121c.6.33,1.02,1.29.84,1.96-1.16.23-.78-1.09-.84-1.96h0Z"/>
      <path class="cls-2" d="M137.76,122.4c-.54-.63.22-1.92,0,0h0Z"/>
      <path class="cls-2" d="M145.6,121.42c.46.57.79,1.26,1.54,1.54.22.29.22,1.25,0,1.54-1.42-.12-1.33-1.75-1.54-3.08h0Z"/>
      <path class="cls-2" d="M135.66,122.4c.24,1.4-.13,2.68.28,3.92.29.85,1.32,1.39.98,2.24-2.27.48-1.91-4.6-1.26-6.16h0Z"/>
      <path class="cls-2" d="M154.62,123.85c.44.16.53,1.19.19,1.54-.43-.14-.07-1.08-.19-1.54h0Z"/>
      <path class="cls-2" d="M138.23,127.32c.72-.08.99.88.58,1.35-.44-.21-1-.88-.58-1.35h0Z"/>
      <path class="cls-1" d="M158.35,102.93c.41-.01.79-.05.7-.56-.45-.04-.67.16-.7.56h0ZM157.23,101.81c.16-.59.18-1.24-.42-1.4.03.58-.11,1.33.42,1.4h0ZM164.65,100.69c.24-1.19,1.25-2.78.42-3.78.33,1.63-1.45,2.79-.42,3.78h0ZM157.79,91.31c.95-.55.74-3.32.56-3.78-.21,1.24-.52,2.38-.56,3.78h0ZM159.47,94.39c1.42-1.88,1.96-5.53,1.54-8.4-.83-.2-.92-1.14-1.82-1.26,1.78,3.51-1.27,7.56.28,9.66h0ZM162.27,91.31c1.91.33,2.77,1.71,2.94,3.78,1.93.45,1.75,6.7,0,7-.94.17-.8-1-2.1-.84-.29.22-.05.98-.28,1.26-.96.12-1.29-.39-1.68-.84-.5.57-.05.87.28,1.26-1.35.19-1.03,1.87-2.1,2.1-1.2.25-1.72-1.26-2.94-1.68-.04-1.13-.76-2.32-.42-3.36.13-.7,1.22-.46,1.4-1.12-.52-1.35-.43-3.31-1.26-4.34.98-2.84.8-6.86,1.96-9.52-.12-.34-.33-.61-.28-1.12,3.89-2.01,5.41,3.2,4.48,7.43h0Z"/>
      <path class="cls-2" d="M149.39,99.99c.52-.14.27.48.56.56-.07.24-.73-.09-.56-.56h0Z"/>
      <path class="cls-1" d="M141.82,87.81h-.7c-.24.67.89.51.7,0h0ZM143.5,82.62c-.1-.65-.31-1.19-.84-1.4.12.62.41,1.08.84,1.4h0ZM140.28,77.72c.44.22.38.28.98.14,2.37,2.07,3.88,4.27,4.34,7.98.19,1.51-.42,3.29.14,4.62-1.21,1.07-2.4-.39-3.08-1.12-1.35.03-1.85.61-2.94.42-.63-4.26.63-8.45.56-12.04h0Z"/>
      <path class="cls-1" d="M149.95,100.55c-.29-.08-.04-.7-.56-.56-.17.47.49.8.56.56h0ZM147.7,95.65c-.55.72-.09,2.14.14,2.94.5.2,1.25.15,1.68.42.36-1.57-.21-3.31-1.82-3.36h0ZM150.37,96.35c.25,1.19,1.39,2.46,1.68,3.92.17.84-.45,1.87.84,1.96,1.37-3.7.14-9.04-2.24-10.79-.23,1.59-.61,3.29-.28,4.9h0ZM153.73,103.35c.11.69.93.66,1.12,1.26-.19,1.86-.84,3.27-2.1,4.06-1.02-.13-.15-1.32-.56-1.96-.66-.33-.47,1.39-1.26,1.4-1.27-.64-1.8-2.03-3.08-2.66-2.09-2.01-1.84-6.54-1.68-10.08.79-.83,2.31-1.4,3.22-.28.13-1.95-.18-4.99,1.12-5.04.49-.02,1.38.75,1.82,1.4,1.83,2.7,2.96,8.48,1.4,11.91h0Z"/>
      <path class="cls-1" d="M138.04,102.51c.53.64,1.08,1.25,2.1,1.4-.38-1.63-.88-3.14-1.54-4.48-.36.85-.34,2.08-.56,3.08h0ZM140.84,94.11c.73,1.86,2.65,5.31,2.52,8.26-.06,1.35-.75,3.37-2.1,3.5-.98-1.21-3.24-1.15-4.06-2.52-.34-2.36,1.08-9.12,3.64-9.24h0Z"/>
      <path class="cls-1" d="M162.97,112.32c0,.19.07.31.14.42.27.03.31-.16.56-.14.03-.42-.5-.5-.7-.28h0ZM163.95,110.64c.62-.41,1.14-1.66,1.12-2.24-.4.72-1.25.99-1.12,2.24h0ZM166.33,105.31c1.17,1.22,1.32,3.1.42,5.04-.82,1.78-2.58,4.47-4.62,2.94-.06-4,.19-7.59,4.2-7.98h0Z"/>
      <path class="cls-1" d="M138.18,112.88c.12-.57.02-.48,0-1.12-.29-.08-.4-.35-.84-.28-.24.59.5.97.84,1.4h0ZM139.72,111.76c0-.37.08-.83-.28-.84,0,.37-.08.82.28.84h0ZM144.34,110.92c.71.08,1.23-1.46.28-1.4.03.59-.22.9-.28,1.4h0ZM143.5,109.8c.24-.23.41-.64-.14-.7-.22.21-.1.57.14.7h0ZM139.72,110.22c.13-1.01-.32-1.46-.84-1.82.05.83-.03,1.81.84,1.82h0ZM146.03,109.52c-.06,2.27-1.76,2.91-2.52,4.48-.74-.08-1.61.39-2.1-.28-.47.6-.91,1.23-1.26,1.96.19,1.04,1.68,1.48,1.4,2.52-1.47-.33-2.16-.62-3.22-1.4-.48-.02-.2.73-.56.84-2.42-.85-3.34-4.62-2.38-7.56.97-.06,1.18-.87,2.1-.98-.08-.67-.2-1.29-.14-2.1,1.43-.57,2.37.51,3.36.84,1.99-.9,4.04.61,5.32,1.68h0Z"/>
      <path class="cls-1" d="M149.11,124.78c.24-.26.18-1-.14-1.12.08.34-.18,1.02.14,1.12h0ZM147.15,124.5c.22-.29.22-1.26,0-1.54-.75-.28-1.08-.97-1.54-1.54.21,1.33.12,2.96,1.54,3.08h0ZM145.47,118.76c.58-.08.52-1.53.28-1.96-.33.71-.11,1.29-.28,1.96h0ZM150.23,120.86c.72,1.19,1.12,3.46.98,5.04-.39.5-.99.78-1.26,1.4-.92,0-1.73-.5-1.96-1.54-.37.09-.71.22-.98.42-3.13-1.64-2.81-7.78-2.1-11.35,1.12-1.01,1.71.35,2.38.7.36.18,1.13-.05,1.54.28,1.13.9,1.2,3.19,1.4,5.04h0Z"/>
      <path class="cls-1" d="M156.95,122.96c.18-.68-.24-1.63-.84-1.96.06.87-.32,2.19.84,1.96h0ZM158.07,114.98c.74-.42,1.18-1.15,1.12-2.38-.92-.33-1.58,1.75-1.12,2.38h0ZM158.49,111.34c.61.12.62.03,1.12.14.19-1.13-1.01-.85-1.12-.14h0ZM160.73,115.68c1.19.27,2.8.41,3.36,1.4.08.14.42,2.12.42,2.1-.02.41-.53.78-.7,1.4-.2.72-.18,1.49-.98,1.96-1.05-.39-1.47.17-2.1.56-1.66-.38-2.51.34-3.5.98-.91-.21-1.66-.58-2.24-1.12-.04-3.39-1.73-7.34.42-9.66-.03-1.39-.82-3.27.28-4.2.3-.26,1.18-.23,1.54-.42.94-.5,1.54-1.92,2.8-1.12,1.9,1.2.3,5.65.7,8.12h0Z"/>
      <path class="cls-1" d="M145.75,131.93c.08.29.54-.19.42-.56.34-.06-.08.64.42.42-.03,2.39-2.73,2.47-4.2,1.12-1.38-1.26-.85-5.08-1.54-6.86,1.21-.93,2.4,1.05,3.78,1.26.38,1.53,1.3,2.53,1.12,4.62h0Z"/>
    </g>
  </g>
  <polygon class="cls-4" points="27.69 84.26 4.13 118.75 5.3 120.24 50.25 118.68 34.11 89.02 29.3 83.4 27.69 84.26 27.69 84.26"/>
  <path class="cls-3" d="M25.8,88.74c-.85.37-.24-.86-1.09-.49-.41.14-.18.86-1.04.59-.33,1.4-.66,2.8-1.98,3.31-.31,1.48.75,1.41,1.18,2.08-1.86,1.36-1.87,5.71-5.14,4.26.3.8,1.28.84,1.43,1.8-.7.36-1.23.5-1.57.61,1.14.93-.3.7-.74,1.38-1.14,1.77-1.76,4.55-3.76,5-.07,1.29-.54,2.23-1.75,2.49.67,1.38-.39.19-.76.84,1.72.32-1.1,1.17.1,1.87-1.9.4-1.44,2.95-2.75,3.88-.17-.46.25-1.59-.34-1.59,0,.42.08.93-.5.83-.28.88.87.16.59,1.04-1.11.27-.9,1.73-1.48,2.49,2.78-.62,7.3-.66,10.41-.52.05-.21-.02-.53.24-.55,10.36.95,18.61-.66,31.25-1.01-.58-2.8-3.05-4.15-4.03-5.69-.32-2.37-2.56-2.61-2.66-5.22-1.2.18-1.03-.95-.88-1.56-1.06.03-2.03-1.7-1.17-2.09-.83.45-.9-.16-1.63-.45-1.93-5.83-6.53-9.94-8.74-14.55.01.27-.45.36-.53.02.32-.04.63-.11.51-.56-.75.26-.71-.34-1.35-.2-1.29,1.8-1.87,4.25-4.02,5.28.56.91-.2,1.3-.7,1.91-.33-1.06-.07-2.08.39-2.96.44-.02.18.73.57.77.06-1.15.97-3.33,1.76-2.23-.03-.37.09-.59.22-.81h0ZM41.4,101.07c1.58.23,1.17,2.65,2.82,2.8.04,1.73.93,2.54,2.03,3.11-.13,1.82.9,2.37,2.01,2.84.13.45-.18.51-.5.56.38.37,1.26.61.6,1.31.21-.16.42-.3.79-.31.12.53-.01.84-.49.82.53.68,2.07,2.13,1.2,2.62.27.45.87.55,1.62.45.15,2.19,1.35,3.21,1.35,5.55-.26-.16-1.01-.57-.78.3-.48-.5-1.86,0-1.92-.97-.59,1.05-1.83-.7-3.17.69-.81.14-.6-.84-.87-1.3-.76.27.38.65.07,1.34-.21-.17-.9-1.09-.8.04-3.73-.26-9.26-.28-12.56.08-.02-.27-.03-.53-.04-.8-1.21.71-2.61.85-3.74.18-.72,1.04-5.69,1.07-7.21.36-2.94,1.69-9.46.1-10.87,1.87-2.3-1.29-6.26.17-9.14-.88-.27-.84.18-1.03.46-1.37-1.07-.04-.45-.2-.62-1.84,1.24-.4,1.76-1.46,1.73-3.03,1.24.19.54-1.37,1.81-1.16-.23-.81-.21-.5-.06-1.34,1.81.2.72-2.24,2.29-2.25-.18-.26-.62-.25-.57-.78,1.08.29.5-.9,1.57-.61-.02-.45-.05-.89-.07-1.34.23-.22.59-.32,1.05-.32,1.56-4.03,4.49-6.81,6.16-10.74.92-.02,1.21-.6.99-1.66.78.03.79-.64,1.58-.61.65-3.57,4.05-4.66,4.68-8.25,2.93-.66,2.23-4.61,5.08-5.33-.18-.27-.63-.25-.58-.78.88-.05,1.31-.52,2.39-.38,1.2.85-.31,1.37,1.4,1.27-1.11,1.21.34,4.73,1.55,4.2.39.07.07,2.02,1.42,1.8-.14.82.33.96.35,1.59,3.43,2.86,4.09,8.8,7.53,11.66.12.45-.19.52-.51.57h0Z"/>
  <text class="cls-5" transform="translate(20.78 114.47) scale(.79 1)"><tspan x="0" y="0">7</tspan></text>
</svg>