<?xml version="1.0" encoding="UTF-8"?>
<svg id="Layer_1" data-name="Layer 1" xmlns="http://www.w3.org/2000/svg" viewBox="0 0 180 200">
  <defs>
    <style>
      .cls-1, .cls-2 {
        fill: #231f20;
      }

      .cls-1, .cls-3 {
        fill-rule: evenodd;
      }

      .cls-4 {
        fill: #fff;
      }

      .cls-2 {
        font-family: AmericanTypewriter-Bold, 'American Typewriter';
        font-size: 24px;
        font-weight: 700;
        letter-spacing: .02em;
      }

      .cls-5 {
        fill: #bba361;
      }

      .cls-3 {
        fill: #f5881f;
      }

      .cls-6 {
        fill: #bba45f;
      }
    </style>
  </defs>
  <g>
    <path class="cls-4" d="M50.62,65.52v13.25l.24,17.99s.47,18.46.71,20.35c.24,1.89.24,8.76.47,9.7s.24,5.68.47,6.86,1.18,5.44,1.18,5.44c0,0,8.52,1.18,10.89,1.18s37.4-.47,41.89-.47,20.59,0,24.14.24,23.9-.24,26.74-.71c2.84-.47,8.99-1.66,10.65-1.42s3.79-.47,3.79-.47l-.47-15.15s-.24-10.41-.47-14.44c-.24-4.02-.24-16.8-.71-21.06-.47-4.26-.71-8.52-.71-13.73s-.24-6.39-.24-7.57-.24-2.6-.24-2.6l-27.22-.47s-14.67.71-19.17.47c-4.5-.24-18.46-.47-21.77-.47s-31.01.47-34.08.47-12.31.24-13.25.24-3.31.24-2.84,2.37Z"/>
    <g>
      <path class="cls-6" d="M97.01,98.33c-.56.3-1.56,1.41-2.19,1.75-.17.09-.3-.59-.44-1.19-.17-.9-.38-1.77-.48-2.65-.23-2.1-.49-4.21-.6-6.32-.31-5.84,1.03-11.24,4.57-15.97,1.51-2.02,3.43-3.59,5.63-4.86,2.4-1.38,4.98-1.55,7.61-1.31,1.82.16,3.57.74,5.25,1.49,3.06,1.36,5.06,3.73,6.42,6.68.73,1.59,1.3,3.24,1.97,4.85,1.14,2.73,1.5,5.61,1.61,8.53.06,1.66.08,3.33,0,4.99-.18,3.54-.96,6.95-2.98,9.91-3.44,5.04-8.25,7.59-14.39,7.48-1.12-.02-2.24-.14-3.35-.28-1.83-.23-3.4-1.04-4.78-2.25-.61-.53-1.84-1.87-2.57-2.51,1.07-.34,2.47-.71,3.34-.95.24-.07.63.88.87.98.34.35.55.76,1.11,1.06-.07.35,2.48,2.25,9.99.68,3.92-1.53,6.51-4.4,8.42-7.99,1.28-2.41,1.67-5.01,1.86-7.69.23-3.32-.05-6.58-.86-9.78-.86-3.39-2.33-6.55-5.04-8.88-2.56-2.2-5.57-3.45-9.05-3.15-.49.04-.99.16-1.45.33-4.37,1.65-7.54,4.51-9.51,8.82-1.57,3.43-2.09,7.01-2.07,10.68.01,2.31.48,4.08.74,6.38,0,0,.38,1.15.38,1.15Z"/>
      <path d="M96.6,97.71c1.79-1.36,3.85-2.24,5.85-3.24,1.67-.83,3.32-1.73,4.86-2.78.83-.56,1.38-1.52,2.08-2.28.36-.39.71-.85,1.16-1.1,1.06-.6,2.15-.6,3.13.27,1.37-.53,2.73-1.08,4.4-.55-1.3.7-2.9.65-3.58,2.26,1.55.03,3.06-.26,4.47.95-.56.05-.91.08-1.26.12-1.13.14-2.03.57-2.62,1.64-1.18,2.14-2.52,4.19-3.65,6.36-.67,1.3-1.36,2.59-2.39,3.6-.64.63-.97,1.32-1.18,2.12-.3,1.11.17,2.33,1.11,2.96.16.11.38.14.57.16.82.07,1.63.15,2.45.18.68.02.95.38,1.05,1.14-.46-.23-.82-.42-1.41-.71.15.47.24.74.42,1.31-1.19-1.01-2.22-1.41-3.56-.26.42-1.32-.27-1.96-.81-2.66-.6-.77-1.18-1.55-1.82-2.39-.89.22-1.03.38-.69,1.23.31.77.73,1.48,1.05,2.1.73.2,1.35.3,1.88.56.18.08.17.56.27.93-1.18-.32-2.22-.61-3.3-.91-.14.15-.29.32-.45.49-.63-.71.07-.84.5-1.19-.34-.81-.69-1.64-1.07-2.56-2.14.53-4.19,1.04-6.22,1.54-.53-.96-1.42-1.24-2.27-.79-1.13.61-2.25,1.25-3.38,1.86-.39.21-.77.46-1.22-.06-.13-.16-.71-.06-1.02.08-1.13.52-2.31,1-3.32,1.71-1.03.73-2.02.97-3.27.51.65-1.12,1.9-1.56,2.76-2.51-.71.05-1.35.09-2.25.15,1.06-1.17,1.8-2.33,3.28-2.45.88-.07,1.57-.34,2.17-1.02.43-.49,1.06-.8,1.57-1.23.28-.23.64-.54.33-.93-.48-.61-.09-.92.36-1.18,1.07-.64,2.14-1.28,3.25-1.85.76-.39,1.41-.85,1.78-1.63l-.04.04Z"/>
      <path d="M115.16,120.92c.65.6,1.35,1.25,2.15,2,.45-.54,1.04-1.08,1.39-1.74.16-.31-.13-.86-.23-1.37,1.18-.12,2.42-.24,3.84-.39-.26.62-.68.73-1.02.86-1.58.61-2.4,2-3.37,3.24-.15.19-.11.65.01.91.38.82,1.43,1.3,2.32.96.52-.2.85-.13,1.21.19-1.23,1.58-2.71,1.38-4.8-.69-.31.24-.62.5-.95.73-.93.66-1.94,1.14-3.12,1.06-1.13-.07-1.92-.88-2.01-2.01-.1-1.35.36-2.45,1.49-3.23.37-.26.76-.5,1.23-.8-.14-.18-.26-.33-.38-.47-1.1-1.32-.87-2.43.64-3.21.72-.37,1.44-.38,2.16-.04.88.42,1.24,1.19.81,2.05-.32.65-.84,1.21-1.37,1.96ZM116.47,123.93c-.99-.89-1.88-1.7-2.86-2.59-.43.48-.81.85-1.14,1.27-.42.53-.46,1.13-.15,1.74.29.57.75.81,1.4.84,1.08.06,1.9-.41,2.76-1.27ZM114.36,119.94c.11.02.23.04.34.06.24-.4.53-.78.7-1.21.2-.49-.05-.93-.48-1.13-.28-.13-.73-.15-1,0-.44.23-.34.7-.16,1.1.18.4.4.79.6,1.19Z"/>
      <path d="M158.31,119.97c1.55-.08,2.97-.53,4.42-.04.31.11.64.19.94.33,1.16.53,1.54,1.22,1.41,2.48-.2,1.95-1.32,3.04-3.29,3.21-1.05.09-2.11.16-3.18.25.51-2.17.84-4.15-.3-6.23ZM160.47,125.16c1.1.22,1.84-.12,2.56-.56.59-.36.82-.87.78-1.57-.12-1.8-1.34-2.63-3.34-2.19v4.32Z"/>
      <path d="M141.86,119.94c1.92.05,3.2,1.32,3.15,3.13-.05,1.94-1.48,3.39-3.28,3.36-1.94-.04-3.49-1.49-3.42-3.22.08-1.87,1.65-3.32,3.55-3.27ZM139.93,122.99c.06.54.06.92.14,1.28.21.95.62,1.31,1.57,1.19.41-.05.89-.29,1.15-.6.8-.94.84-2.02.39-3.16-.23-.59-.56-.98-1.24-1.05-.73-.08-1.24.24-1.54.83-.26.51-.35,1.09-.47,1.5Z"/>
      <path d="M59.03,120.59c1.3-.09,2.61-.22,3.89.14.98.28,1.27,1.41.7,2.38-.12.21-.3.4-.48.57-.44.4-.4.84,0,1.18.72.6,1.49,1.14,2.24,1.71-.43.6-1.45.7-2.15-.01-.43-.44-.71-1.02-1.08-1.51-.22-.3-.51-.55-.93-.99-.26,1.13-.37,1.94.55,2.76h-2.7c.65-.59.79-1.24.76-2.02-.05-1.08-.01-2.16-.01-3.3-.25-.18-.55-.39-.84-.6.02-.1.03-.21.05-.31ZM60.88,121.29c.04.85.08,1.6.11,2.39,1.19-.28,1.84-.95,1.7-1.62-.13-.64-.68-.9-1.81-.77Z"/>
      <path d="M134.42,123.29c-.15.31-.19.55-.32.64-.45.28-.52.66-.5,1.16.03.89-.17,1.11-1.03,1.23-1.13.16-2.24.1-3.25-.52-1.83-1.13-2.04-3.29-.43-4.71,1.15-1.01,2.54-1.16,3.98-.97.73.1.86.59.52,1.75-.21-.13-.47-.2-.57-.37-.42-.71-.96-.66-1.6-.37-.99.44-1.81,1.03-1.9,2.23-.09,1.25,1.21,2.4,2.44,2.16.69-.13.95-.97.45-1.55-.15-.18-.38-.29-.68-.51.96-.46,1.83-.32,2.91-.16Z"/>
      <path d="M102.75,126.75c-1.87-1.34-2.67-3.42-4.63-4.71-.04,1.58-.47,2.98.65,4.39-.79.08-1.52.15-2.36.23,1.08-1.72.92-3.47.93-5.22-.39-.26-.75-.5-1.11-.74.01-.07.02-.15.03-.22.59-.02,1.2-.12,1.78-.04.3.04.64.33.84.6.93,1.27,1.87,2.53,3.36,3.63.02-1.13.11-2.1.02-3.05-.03-.35-.5-.66-.92-1.17.87-.05,1.61-.09,2.35-.13l.17.24c-1.06.56-.97,1.5-.99,2.41-.01.83.02,1.66,0,2.49,0,.38-.08.76-.14,1.29Z"/>
      <path d="M91.86,122.11c-.85-.73-1.6-1.24-2.66-.75v1.26c.61.47,1.2.37,1.81-.19.1.62.18,1.14.27,1.71-.69-.19-1.34-.37-2.22-.62.04.83.06,1.42.09,2.11,1.05.05,2.04.45,2.78-.78.11.62.19,1.06.26,1.5-.72.38-2.51.48-5.02.28-.11-.74.98-.97.73-1.84-.2-.7-.15-1.48-.13-2.23.02-.71-.01-1.38-.82-2.04h4.72c.05.45.09.92.16,1.61Z"/>
      <path d="M148.94,119.85c1.3-.04,2.46-.17,3.6.04.04.09.07.18.11.27-.22.19-.41.45-.67.55-.56.22-.72.63-.71,1.17.02,1.07.05,2.14.07,3.35.78,0,1.48.16,2.05-.05.54-.2.95-.78,1.66-1.11-.06.66-.12,1.31-.18,1.96-2.06.32-3.97.43-6.13-.04,1.55-.7,1.32-1.96,1.37-3.12.01-.33,0-.67.03-.99.08-.76.01-1.42-.9-1.63-.08-.02-.14-.17-.32-.41Z"/>
      <path d="M71.16,120.93c-.07.03.12-.05.29-.15.18-.1.35-.2.57-.33,1.18,2.06,1.05,4.67,2.94,6.44h-2.91c.25-.35.41-.57.55-.79.36-.55.22-1.09-.4-1.25-.55-.14-1.14-.13-1.77-.19-.18.49-.34.91-.55,1.47.18.17.38.37.61.6-.7.27-1.44.16-2.34.07,1.79-1.59,1.99-3.78,3-5.85ZM70.53,124.16c.6.06,1.03.1,1.64.17-.25-.71-.45-1.27-.75-2.13-.36.79-.6,1.32-.89,1.97Z"/>
      <path d="M81.61,121.39c-.29-.21-.52-.39-.87-.65.93-.46,1.71-.25,2.81-.19-1.49.99-1.67,2.43-2.22,3.68-.39.86-.76,1.73-1.21,2.76-.26-.36-.47-.59-.6-.87-.53-1.08-1.02-2.18-1.55-3.27-.35-.72-.75-1.42-1.16-2.18.75-.46,1.66-.09,2.68-.18-1.24,1.64-.13,2.75.73,4.13.5-1.15.93-2.15,1.4-3.23Z"/>
      <path d="M137.87,133.69c-.09.58-.18,1.1-.27,1.61,0,0-.08,0-.27.02v-3.78c.79,0,1.69-.05,2.58.02.54.04,1.06.27,1.16.94.09.62-.32.89-.79,1.11-.1.05-.2.12-.33.21.29.42.57.81.93,1.31-.65.09-.79-.37-1.01-.63-.51-.62-1.07-1.05-2-.81ZM137.78,133.22c.76,0,1.42.05,2.06-.02.26-.03.65-.29.7-.52.12-.47-.34-.64-.7-.67-.65-.06-1.3-.02-1.94-.02-.08.18-.15.29-.16.4-.01.2.01.41.03.83Z"/>
      <path d="M135.69,132.08c-.92.05-1.83.09-2.8.14v.95c.71.05,1.38.1,2.05.15,0,.08.01.15.02.23-.29.04-.59.11-.88.13-.33.02-.66,0-1.09,0-.06.39-.11.73-.18,1.22h3.22c-.83.51-1.97.59-3.58.34v-3.42h3.25v.25Z"/>
      <path d="M91.03,135.8c-.4-.55-.8-1.1-1.3-1.78-.33.66-.63,1.25-1.06,2.12-.25-1.53-.45-2.75-.7-4.22.77.75.55,1.67,1.05,2.38.22-.41.41-.76.69-1.27.45.7.82,1.29,1.33,2.1.27-1.19.49-2.15.7-3.12.29,1.31-.16,2.48-.36,3.69-.12.03-.24.07-.36.1Z"/>
      <path d="M83.71,134.25c-.04.32-.08.67-.13,1.11h2.49c-.96.37-1.91.67-2.94.24.08-1.11.15-2.17.24-3.39h3.42c-.88.68-1.9.23-2.89.51-.03.24-.07.54-.12.93.6.05,1.1.1,1.61.14,0,.08.01.16.02.25-.53.07-1.06.13-1.7.21Z"/>
      <path d="M102.65,131.9c.83,0,1.61,0,2.39,0,.55,0,.97.22,1.1.8.14.58-.1.96-.76,1.31-.07.03-.11.11-.2.21.21.43.44.87.66,1.31-.96-.47-1.14-2.04-2.72-1.31-.06.33-.16.82-.26,1.32-.07,0-.14-.01-.22-.02v-3.61ZM103.07,133.63c.77,0,1.4.06,2-.03.25-.03.6-.34.65-.57.1-.43-.24-.68-.66-.72-.65-.05-1.3-.06-1.99-.09v1.41Z"/>
      <path d="M116.91,134.41c-.35-.19-.61-.33-.87-.46.02-.09.05-.18.07-.27.44.06.88.12,1.33.18-.31,1.33-.66,1.71-1.53,1.73-.9.02-1.5-.54-1.73-1.62-.18-.87.21-1.7.98-2.08.8-.4,1.32-.21,2.18.91-1-.42-1.94-1.21-2.59.16-.31.65-.05,1.67.5,2.01.53.33.96.2,1.65-.55Z"/>
      <path d="M93.95,134.09v1.24h2.48c-.91.61-1.87.4-2.91.37v-3.54c1-.22,2.06-.24,3.12-.14,0,.09.02.18.03.27-.87.07-1.74.15-2.6.22-.2,1.01-.18,1.08.64,1.16.52.05,1.04,0,1.57.11-.67.63-1.47.17-2.32.32Z"/>
      <path d="M120.86,131.8c.54,1.24,1.07,2.49,1.61,3.73-.07.04-.15.09-.22.14-.27-.37-.54-.75-.85-1.18h-1.44c-.22.34-.44.68-.69,1.08-.16-.69-.16-.69.42-1.96.28-.62.59-1.22.89-1.83.1,0,.19.02.29.02ZM120.19,133.94h.99c-.15-.42-.27-.75-.47-1.32-.23.56-.34.85-.53,1.32Z"/>
      <path d="M142.18,131.66c.4.45.79.9,1.27,1.44.53-.57,1.04-1.12,1.75-1.89-.03.46,0,.63-.06.73-.38.55-.9,1.03-1.13,1.63-.21.52-.1,1.17-.27,1.81-.22-.63-.37-1.29-.66-1.87-.3-.6-.74-1.12-1.12-1.67.08-.06.16-.12.23-.18Z"/>
      <path d="M110.33,132.1c-.35.58-.82,1.11-1,1.74-.17.58-.04,1.25-.26,1.94-.19-.66-.29-1.37-.59-1.97-.3-.61-.81-1.12-1.13-1.76.7.18.88.94,1.5,1.36.4-.5.8-1,1.21-1.5.09.06.18.13.27.19Z"/>
      <path d="M131.09,135.48h-2.72v-3.73c.66.99.4,2.06.53,3.12.59.47,1.54-.24,2.18.62Z"/>
      <path d="M99.01,135.23h2.14c-.81.56-1.67.42-2.6.4v-3.59q.52.65.45,3.19Z"/>
      <path d="M124.62,135.29c.67.04,1.3.07,1.93.1,0,.1,0,.21,0,.31-.75.05-1.51.11-2.44.18,0-.75.02-1.43,0-2.11-.02-.64-.07-1.28-.01-1.93.69,1.04.35,2.26.54,3.44Z"/>
      <path d="M79.15,134.32c.21.38.25.55.36.66.5.49,1.03.39,1.2-.27.13-.51.1-1.06.16-1.6.03-.27.1-.53.18-.95.32,1.02.27,2.33-.01,2.96-.25.57-.72.63-1.24.57-.55-.07-.61-.19-.65-1.36Z"/>
      <path class="cls-4" d="M116.47,123.93c-.87.86-1.69,1.32-2.76,1.27-.64-.03-1.11-.28-1.4-.84-.31-.61-.26-1.21.15-1.74.33-.42.71-.79,1.14-1.27.98.89,1.88,1.69,2.86,2.59Z"/>
      <path class="cls-4" d="M114.36,119.94c-.2-.4-.41-.79-.6-1.19-.18-.4-.28-.86.16-1.1.27-.14.72-.13,1,0,.43.2.68.64.48,1.13-.18.43-.47.81-.7,1.21-.11-.02-.23-.04-.34-.06Z"/>
      <path class="cls-4" d="M160.47,125.16v-4.32c2-.44,3.22.38,3.34,2.19.04.7-.19,1.2-.78,1.57-.72.44-1.46.78-2.56.56Z"/>
      <path class="cls-4" d="M139.93,122.99c.12-.41.22-1,.47-1.5.3-.58.81-.91,1.54-.83.68.07,1.01.46,1.24,1.05.45,1.14.41,2.22-.39,3.16-.26.31-.74.55-1.15.6-.95.11-1.37-.24-1.57-1.19-.08-.36-.08-.74-.14-1.28Z"/>
      <path class="cls-4" d="M60.88,121.29c1.13-.13,1.69.13,1.81.77.14.67-.51,1.34-1.7,1.62-.04-.78-.07-1.54-.11-2.39Z"/>
      <path class="cls-4" d="M70.53,124.16c.29-.64.53-1.17.89-1.97.31.86.5,1.43.75,2.13-.61-.06-1.04-.11-1.64-.17Z"/>
      <path class="cls-4" d="M119.72,90.77c-.17-.6-.26-.91-.38-1.33.44.03.79.06,1.4.1-.38.46-.61.75-1.02,1.23Z"/>
      <path class="cls-4" d="M120.53,88.97c-.32-.03-.65-.05-1.19-.09.56-.56.88-.35,1.19.09Z"/>
      <path class="cls-4" d="M118.46,88.77c.25-.04.45-.07.73-.12q-.34.54-.73.12Z"/>
      <path class="cls-4" d="M137.78,133.22c-.02-.42-.05-.63-.03-.83,0-.11.08-.22.16-.4.64,0,1.3-.04,1.94.02.36.03.82.2.7.67-.06.23-.44.49-.7.52-.64.07-1.3.02-2.06.02Z"/>
      <path class="cls-4" d="M103.07,133.63v-1.41c.69.03,1.34.04,1.99.09.42.03.77.28.66.72-.06.24-.4.54-.65.57-.6.08-1.23.03-2,.03Z"/>
      <path class="cls-4" d="M120.19,133.94c.19-.47.3-.75.53-1.32.2.57.32.89.47,1.32h-.99Z"/>
      <g>
        <path class="cls-5" d="M115.89,89.75c.6.42,1.28.74,1.99.93.18.05.36.09.54.12s.37.07.56.05.33-.14.46-.26c.14-.14.28-.28.42-.42.3-.33.59-.67.85-1.03.12-.16-.15-.31-.26-.15-.22.29-.45.57-.69.84-.12.13-.24.26-.37.39-.11.11-.24.27-.39.32s-.34,0-.49-.03c-.17-.03-.34-.07-.51-.11-.33-.09-.65-.2-.96-.34-.35-.16-.69-.35-1-.57-.16-.11-.31.15-.15.26h0Z"/>
        <path class="cls-5" d="M116.04,89.57c.36-.62.99-1.02,1.66-1.22.84-.25,1.74-.19,2.61-.09.13.01.26.03.39.04.02,0,.04,0,.06,0,.04.02.02,0,.01.02-.01.04-.06.09-.09.13-.16.22-.32.43-.48.65-.12.16.15.31.26.15.16-.22.32-.43.48-.65.12-.16.23-.42,0-.55-.09-.05-.2-.05-.29-.06-.14-.02-.27-.03-.41-.05-.27-.03-.53-.05-.8-.06-.93-.04-1.89.07-2.7.56-.39.24-.73.57-.96.97-.1.17.16.32.26.15h0Z"/>
        <path class="cls-5" d="M119.52,88.21c0,.05.02.1.02.16v-.04c.03.26.04.53.01.79,0,.04.02.08.04.11s.07.05.11.04.08-.01.11-.04.04-.06.04-.11c.03-.33.01-.66-.05-.99,0-.04-.04-.07-.07-.09-.03-.02-.08-.03-.12-.02s-.07.03-.09.07c-.02.04-.02.07-.02.12h0Z"/>
        <path class="cls-5" d="M120.39,88.07c-.55.68-1.24,1.26-1.63,2.05-.1.22-.19.44-.23.68-.01.08.02.16.11.19.07.02.17-.02.19-.11.15-.82.74-1.45,1.29-2.04.17-.18.33-.37.49-.56.05-.06.06-.15,0-.21-.05-.05-.16-.06-.21,0h0Z"/>
        <path class="cls-5" d="M119.51,89.89c.22,0,.44.02.66.05h-.04s.04,0,.06,0c.02,0,.04,0,.06,0,.02,0,.04,0,.06-.02.03-.02.06-.05.07-.09,0-.04,0-.08-.02-.12-.02-.03-.05-.06-.09-.07-.25-.04-.5-.06-.75-.06-.04,0-.08.02-.11.04s-.05.07-.04.11c0,.08.07.15.15.15h0Z"/>
        <path class="cls-5" d="M120.28,88.95h.27s.08-.02.11-.04c.01-.01.03-.03.03-.05,0-.02.01-.04.01-.06,0-.04-.01-.08-.04-.11s-.07-.04-.11-.04h-.27s-.08.02-.11.04c-.01.01-.03.03-.03.05,0,.02-.01.04-.01.06,0,.04.01.08.04.11s.07.04.11.04h0Z"/>
        <path class="cls-5" d="M119.73,88.57c-.66-.08-1.38-.14-1.97.24-.12.08-.24.17-.33.29-.04.05-.08.1-.12.16-.02.04-.05.12-.08.14s-.11,0-.14,0c-.05,0-.1,0-.15,0-.1,0-.19,0-.29,0-.19,0-.39,0-.58.01s-.19.3,0,.3c.38,0,.77,0,1.15-.02.18-.01.25-.12.33-.26.07-.12.16-.22.26-.3.54-.42,1.28-.33,1.91-.26.08,0,.15-.08.15-.15,0-.09-.07-.14-.15-.15h0Z"/>
        <path class="cls-5" d="M116.41,88.94c.41.43.8.86,1.18,1.31.11.13.22.26.32.39.04.05.13.05.18.02.08-.04.14-.11.16-.2.02-.08-.03-.17-.11-.19s-.16.02-.19.11c0,.02,0,0,0,0-.02.02.01,0,0,0,0,0-.02.02,0,0,.02-.01-.02,0-.02,0l.18.02c-.37-.46-.76-.9-1.16-1.33-.11-.12-.23-.25-.35-.37-.05-.06-.16-.06-.21,0s-.06.15,0,.21h0Z"/>
        <path class="cls-5" d="M118.05,88.2c0,.12,0,.25-.01.37v-.04s0,.07-.01.1c0,.04,0,.08.02.12.02.03.05.06.09.07.04,0,.08,0,.12-.02.03-.02.06-.05.07-.09.03-.17.05-.34.03-.51,0-.02,0-.04-.01-.06,0-.02-.02-.03-.03-.05-.03-.03-.07-.05-.11-.04s-.08.01-.11.04-.05.07-.04.11h0Z"/>
        <path class="cls-5" d="M118.62,87.58c.01-.25.02-.49.03-.74,0-.08-.07-.15-.15-.15-.08,0-.15.07-.15.15-.01.25-.02.49-.03.74,0,.08.07.15.15.15.08,0,.15-.07.15-.15h0Z"/>
        <path class="cls-5" d="M121.1,87.62c.02-.05.03-.11.06-.16l-.02.04c.05-.11.11-.22.18-.32.01-.02.02-.04.02-.06,0-.02,0-.04,0-.06,0-.03-.04-.07-.07-.09-.04-.02-.08-.03-.12-.02l-.04.02s-.04.03-.05.05c-.09.12-.16.26-.22.4-.01.04-.03.07-.04.11s0,.08.02.12c.02.03.05.06.09.07.04,0,.08,0,.12-.02s.06-.05.07-.09h0Z"/>
        <path class="cls-5" d="M121.56,87.88l.65-.27s.04-.01.05-.03c.02-.01.03-.02.04-.04.02-.03.03-.08.02-.12s-.03-.07-.07-.09-.08-.03-.12-.02l-.65.27s-.04.01-.05.03c-.02.01-.03.02-.04.04-.02.03-.03.08-.02.12s.03.07.07.09.08.03.12.02h0Z"/>
        <path class="cls-5" d="M121.52,88.44h.18s.08-.02.11-.04c.01-.01.03-.03.03-.05,0-.02.01-.04.01-.06,0-.04-.01-.08-.04-.11s-.07-.04-.11-.04h-.18s-.08.02-.11.04c-.01.01-.03.03-.03.05,0,.02-.01.04-.01.06,0,.04.01.08.04.11s.07.04.11.04h0Z"/>
        <path class="cls-5" d="M119.93,90.62l.12.06s.04.02.06.02c.02,0,.04,0,.06,0,.02,0,.04-.01.05-.03.02-.01.03-.02.04-.04.02-.04.03-.08.02-.12-.01-.04-.03-.07-.07-.09l-.12-.06s-.04-.02-.06-.02c-.02,0-.04,0-.06,0-.02,0-.04.01-.05.03-.02.01-.03.02-.04.04-.02.04-.03.08-.02.12.01.04.03.07.07.09h0Z"/>
        <path class="cls-5" d="M119.53,90.84c0,.07.02.13.04.2.02.04.03.07.05.11s.05.07.07.1c.01.01.03.03.05.03.02,0,.04.01.06.01.02,0,.04,0,.06-.01.02,0,.03-.02.05-.03.03-.03.05-.07.04-.11v-.04s-.03-.05-.04-.07c0,0,0-.01-.01-.02l.02.03s-.05-.08-.07-.12l.02.04s-.03-.09-.04-.14v.04s0-.02,0-.02c0-.02,0-.04-.01-.06,0-.02-.02-.03-.03-.05-.01-.01-.03-.03-.05-.03-.02,0-.04-.01-.06-.01-.04,0-.08.01-.11.04-.03.03-.05.07-.04.11h0Z"/>
      </g>
    </g>
  </g>
  <polygon class="cls-3" points="32.85 80.46 9.29 114.95 10.46 116.43 55.41 114.87 39.27 85.21 34.46 79.6 32.85 80.46 32.85 80.46"/>
  <path class="cls-1" d="M30.96,84.93c-.85.37-.24-.86-1.09-.49-.41.14-.18.86-1.04.59-.33,1.4-.66,2.8-1.98,3.31-.31,1.48.75,1.41,1.18,2.08-1.86,1.36-1.87,5.71-5.14,4.26.3.8,1.28.84,1.43,1.8-.7.36-1.23.5-1.57.61,1.14.93-.3.7-.74,1.38-1.14,1.77-1.76,4.55-3.76,5-.07,1.29-.54,2.23-1.75,2.49.67,1.38-.39.19-.76.84,1.72.32-1.1,1.17.1,1.87-1.9.4-1.44,2.95-2.75,3.88-.17-.46.25-1.59-.34-1.59,0,.42.08.93-.5.83-.28.88.87.16.59,1.04-1.11.27-.9,1.73-1.48,2.49,2.78-.62,7.3-.66,10.41-.52.05-.21-.02-.53.24-.55,10.36.95,18.61-.66,31.25-1.01-.58-2.8-3.05-4.15-4.03-5.69-.32-2.37-2.56-2.61-2.66-5.22-1.2.18-1.03-.95-.88-1.56-1.06.03-2.03-1.7-1.17-2.09-.83.45-.9-.16-1.63-.45-1.93-5.83-6.53-9.94-8.74-14.55.01.27-.45.36-.53.02.32-.04.63-.11.51-.56-.75.26-.71-.34-1.35-.2-1.29,1.8-1.87,4.25-4.02,5.28.56.91-.2,1.3-.7,1.91-.33-1.06-.07-2.08.39-2.96.44-.02.18.73.57.77.06-1.15.97-3.33,1.76-2.23-.03-.37.09-.59.22-.81h0ZM46.56,97.27c1.58.23,1.17,2.65,2.82,2.8.04,1.73.93,2.54,2.03,3.11-.13,1.82.9,2.37,2.01,2.84.13.45-.18.51-.5.56.38.37,1.26.61.6,1.31.21-.16.42-.3.79-.31.12.53-.01.84-.49.82.53.68,2.07,2.13,1.2,2.62.27.45.87.55,1.62.45.15,2.19,1.35,3.21,1.35,5.55-.26-.16-1.01-.57-.78.3-.48-.5-1.86,0-1.92-.97-.59,1.05-1.83-.7-3.17.69-.81.14-.6-.84-.87-1.3-.76.27.38.65.07,1.34-.21-.17-.9-1.09-.8.04-3.73-.26-9.26-.28-12.56.08-.02-.27-.03-.53-.04-.8-1.21.71-2.61.85-3.74.18-.72,1.04-5.69,1.07-7.21.36-2.94,1.69-9.46.1-10.87,1.87-2.3-1.29-6.26.17-9.14-.88-.27-.84.18-1.03.46-1.37-1.07-.04-.45-.2-.62-1.84,1.24-.4,1.76-1.46,1.73-3.03,1.24.19.54-1.37,1.81-1.16-.23-.81-.21-.5-.06-1.34,1.81.2.72-2.24,2.29-2.25-.18-.26-.62-.25-.57-.78,1.08.29.5-.9,1.57-.61-.02-.45-.05-.89-.07-1.34.23-.22.59-.32,1.05-.32,1.56-4.03,4.49-6.81,6.16-10.74.92-.02,1.21-.6.99-1.66.78.03.79-.64,1.58-.61.65-3.57,4.05-4.66,4.68-8.25,2.93-.66,2.23-4.61,5.08-5.33-.18-.27-.63-.25-.58-.78.88-.05,1.31-.52,2.39-.38,1.2.85-.31,1.37,1.4,1.27-1.11,1.21.34,4.73,1.55,4.2.39.07.07,2.02,1.42,1.8-.14.82.33.96.35,1.59,3.43,2.86,4.09,8.8,7.53,11.66.12.45-.19.52-.51.57h0Z"/>
  <text class="cls-2" transform="translate(26.28 110.67) scale(.79 1)"><tspan x="0" y="0">8</tspan></text>
</svg>