<svg width="18" height="18" viewBox="0 0 18 18" fill="none" xmlns="http://www.w3.org/2000/svg">
<path fill-rule="evenodd" clip-rule="evenodd" d="M6.27625 0.703675C4.58467 1.19572 3.08081 2.18649 1.96112 3.54658C0.841426 4.90667 0.15796 6.57283 0 8.32743H4C4.23189 5.65749 5.00601 3.06293 6.275 0.702425L6.27625 0.703675ZM4 9.88993H0C0.15763 11.6446 0.840804 13.3109 1.96028 14.6712C3.07975 16.0315 4.58347 17.0226 6.275 17.5149C5.00601 15.1544 4.23189 12.5599 4 9.88993ZM8.28 17.8487C6.7635 15.4455 5.83425 12.719 5.5675 9.88993H11.8612C11.5945 12.719 10.6653 15.4455 9.14875 17.8487C8.85934 17.8627 8.56941 17.8627 8.28 17.8487ZM11.155 17.5137C12.8463 17.0214 14.3499 16.0306 15.4694 14.6705C16.5888 13.3104 17.2721 11.6444 17.43 9.88993H13.43C13.1981 12.5599 12.424 15.1544 11.155 17.5149V17.5137ZM13.43 8.32743H17.43C17.2724 6.57277 16.5892 4.90644 15.4697 3.54613C14.3503 2.18581 12.8465 1.19476 11.155 0.702425C12.424 3.06291 13.1981 5.65749 13.43 8.32743ZM8.28 0.368675C8.56983 0.354485 8.86017 0.354485 9.15 0.368675C10.6661 2.77194 11.5949 5.49844 11.8612 8.32743H5.56875C5.84 5.48118 6.77125 2.75243 8.28 0.368675Z" fill="white"/>
</svg>
