<svg width="57" height="56" viewBox="0 0 57 56" fill="none" xmlns="http://www.w3.org/2000/svg">
<g id="Group">
<path id="Vector" fill-rule="evenodd" clip-rule="evenodd" d="M47.8863 43.9103C47.2978 43.9064 46.7212 44.0762 46.2287 44.3984C45.7361 44.7206 45.3496 45.1809 45.1173 45.7217C44.5826 46.9786 43.6609 48.0279 42.4919 48.7302C40.3133 50.0389 36.3872 50.0389 34.2046 48.7302C33.0357 48.0274 32.1173 46.975 31.5792 45.7217C31.3481 45.1843 30.9645 44.7263 30.4759 44.4046C29.9873 44.0828 29.4151 43.9113 28.8301 43.9113C28.2451 43.9113 27.6729 44.0828 27.1843 44.4046C26.6957 44.7263 26.3121 45.1843 26.081 45.7217C25.5424 46.9786 24.6247 48.0279 23.4556 48.7302C21.2771 50.0389 17.3469 50.0389 15.1684 48.7302C13.9993 48.0279 13.0776 46.9746 12.543 45.7217C12.311 45.1808 11.9248 44.7203 11.4325 44.3978C10.9402 44.0753 10.3638 43.9051 9.77528 43.9085C9.18677 43.9119 8.61234 44.0888 8.12382 44.417C7.63531 44.7451 7.25441 45.2101 7.02878 45.7536C6.68884 46.5703 6.17117 47.3009 5.51342 47.8924C4.85566 48.4839 4.07436 48.9214 3.22631 49.1731C2.84958 49.2852 2.49861 49.4704 2.19346 49.7182C1.88831 49.966 1.63495 50.2714 1.44785 50.6171C1.26074 50.9628 1.14356 51.3419 1.10298 51.7329C1.0624 52.1239 1.09923 52.519 1.21136 52.8957C1.32349 53.2725 1.50873 53.6234 1.75649 53.9286C2.00426 54.2337 2.3097 54.4871 2.65539 54.6742C3.00107 54.8613 3.38022 54.9785 3.77119 55.0191C4.16216 55.0596 4.55729 55.0228 4.93403 54.9107C6.75392 54.3699 8.41858 53.4028 9.78985 52.0897C11.0422 53.3099 12.5365 54.254 14.1763 54.8608C15.8161 55.4677 17.565 55.7239 19.31 55.6129C21.0551 55.7256 22.8045 55.4702 24.4446 54.8633C26.0846 54.2563 27.5788 53.3114 28.8301 52.0897C30.0819 53.3108 31.5761 54.2553 33.2161 54.8622C34.856 55.4691 36.6052 55.7249 38.3502 55.6129C40.0954 55.7256 41.8447 55.4702 43.4848 54.8633C45.1249 54.2563 46.6191 53.3114 47.8704 52.0897C49.2416 53.4028 50.9063 54.3699 52.7262 54.9107C53.1029 55.0228 53.4981 55.0596 53.889 55.0191C54.28 54.9785 54.6592 54.8613 55.0048 54.6742C55.3505 54.4871 55.656 54.2337 55.9037 53.9286C56.1515 53.6234 56.3367 53.2725 56.4489 52.8957C56.561 52.519 56.5978 52.1239 56.5573 51.7329C56.5167 51.3419 56.3995 50.9628 56.2124 50.6171C56.0253 50.2714 55.7719 49.966 55.4668 49.7182C55.1616 49.4704 54.8107 49.2852 54.4339 49.1731C53.586 48.9212 52.8048 48.4836 52.1471 47.8921C51.4894 47.3007 50.9716 46.5701 50.6315 45.7536C50.4056 45.2106 50.0248 44.7462 49.5366 44.4184C49.0484 44.0905 48.4744 43.9138 47.8863 43.9103Z" fill="white"/>
<path id="Vector_2" fill-rule="evenodd" clip-rule="evenodd" d="M22.8458 0.092041C35.2547 0.092041 39.9948 9.06155 40.7728 13.7298C40.8307 14.0789 40.7947 14.437 40.6685 14.7676C40.5424 15.0981 40.3306 15.3891 40.0549 15.6108C39.7792 15.8325 39.4494 15.9769 39.0995 16.0292C38.7496 16.0815 38.3921 16.0398 38.0636 15.9084C35.8212 15.0106 34.0816 14.855 32.7569 15.0864C31.4602 15.3139 30.4188 15.9403 29.5649 16.8859C27.7894 18.861 26.8358 22.2724 26.8358 26.027C26.8358 30.7193 31.7235 36.002 38.8058 36.002C42.2252 36.002 45.6725 34.1945 46.9454 31.226C47.0994 30.8645 47.3568 30.5566 47.6852 30.3409C48.0136 30.1252 48.3984 30.0112 48.7914 30.0134C49.1843 30.0155 49.5678 30.1336 49.8939 30.3529C50.2199 30.5722 50.474 30.8828 50.6241 31.2459C51.462 33.2649 53.2376 34.8649 55.3323 35.4873C55.7446 35.6094 56.1063 35.8614 56.3637 36.2058C56.6211 36.5502 56.7604 36.9686 56.7607 37.3985V44.7241C56.4695 44.5965 56.1662 44.4847 55.855 44.393C55.7169 44.3517 55.5897 44.2801 55.4827 44.1835C55.3757 44.0869 55.2916 43.9676 55.2366 43.8344C54.6341 42.3855 53.618 41.1465 52.3151 40.2721C51.0122 39.3977 49.4805 38.9268 47.9115 38.9183C46.3424 38.9098 44.8057 39.364 43.4934 40.2242C42.1811 41.0844 41.1515 42.3124 40.5334 43.7546C40.4096 44.0452 40.1974 44.2895 39.927 44.4528C39.919 44.4568 39.7793 44.5326 39.4681 44.6044C38.7326 44.7707 37.9692 44.7707 37.2337 44.6044C37.0748 44.574 36.9206 44.523 36.7749 44.4528C36.5035 44.2912 36.2899 44.0483 36.1644 43.7586C35.5489 42.3238 34.526 41.1011 33.2225 40.2419C31.9189 39.3827 30.392 38.9247 28.8308 38.9247C27.2695 38.9247 25.7426 39.3827 24.4391 40.2419C23.1356 41.1011 22.1127 42.3238 21.4972 43.7586C21.3716 44.0483 21.158 44.2912 20.8867 44.4528C20.8787 44.4568 20.7391 44.5326 20.4278 44.6044C19.6923 44.7707 18.929 44.7707 18.1934 44.6044C17.8822 44.5326 17.7426 44.4568 17.7346 44.4528C17.4648 44.2906 17.2526 44.0477 17.1281 43.7586C16.51 42.3164 15.4804 41.0884 14.1682 40.2282C12.8559 39.368 11.3191 38.9137 9.75008 38.9223C8.18102 38.9308 6.6493 39.4017 5.34644 40.2761C4.04358 41.1505 3.0274 42.3895 2.42498 43.8384C2.37015 43.9717 2.28614 44.0912 2.17912 44.1878C2.0721 44.2845 1.94479 44.3559 1.80653 44.397C1.49531 44.4847 1.19207 44.5965 0.900799 44.7241V14.057C0.900818 13.7467 0.973228 13.4407 1.11227 13.1633C3.31475 8.7623 10.6643 0.092041 22.8458 0.092041ZM1.43945 53.4503C1.2313 53.0589 1.11266 52.6263 1.09213 52.1835C1.07159 51.7408 1.14967 51.299 1.32071 50.8901C1.49176 50.4812 1.75149 50.1154 2.08116 49.8191C2.41082 49.5229 2.80219 49.3035 3.22697 49.177C4.07528 48.9247 4.85671 48.4865 5.51446 47.8943C6.17221 47.3021 6.68974 46.5708 7.02943 45.7536C7.25507 45.21 7.63597 44.7451 8.12448 44.4169C8.61299 44.0887 9.18742 43.9118 9.77593 43.9084C10.3644 43.905 10.9409 44.0752 11.4332 44.3977C11.9254 44.7202 12.3117 45.1807 12.5436 45.7216C13.0805 46.9757 13.9992 48.0284 15.169 48.7301C17.3476 50.0388 21.2737 50.0388 23.4562 48.7301C24.6259 48.0282 25.5446 46.9755 26.0817 45.7216C26.3128 45.1842 26.6963 44.7263 27.1849 44.4045C27.6735 44.0828 28.2457 43.9113 28.8308 43.9113C29.4158 43.9113 29.988 44.0828 30.4766 44.4045C30.9652 44.7263 31.3488 45.1842 31.5799 45.7216C32.117 46.9755 33.0356 48.0282 34.2053 48.7301C36.3838 50.0388 40.314 50.0388 42.4925 48.7301C43.6622 48.0282 44.5808 46.9755 45.1179 45.7216C45.3498 45.1807 45.7361 44.7202 46.2284 44.3977C46.7207 44.0752 47.2971 43.905 47.8856 43.9084C48.4741 43.9118 49.0486 44.0887 49.5371 44.4169C50.0256 44.7451 50.4065 45.21 50.6321 45.7536C50.9723 46.5701 51.49 47.3006 52.1478 47.8921C52.8055 48.4835 53.5867 48.9211 54.4346 49.173C54.8113 49.2851 55.1623 49.4704 55.4674 49.7181C55.7726 49.9659 56.0259 50.2713 56.213 50.617C56.4001 50.9627 56.5173 51.3418 56.5579 51.7328C56.5985 52.1238 56.5617 52.5189 56.4495 52.8957C56.3374 53.2724 56.1522 53.6234 55.9044 53.9285C55.6566 54.2337 55.3512 54.487 55.0055 54.6741C54.6598 54.8612 54.2807 54.9784 53.8897 55.019C53.4987 55.0596 53.1036 55.0227 52.7269 54.9106C50.907 54.3698 49.2423 53.4027 47.871 52.0897C47.0721 52.8717 46.1716 53.5427 45.1937 54.0847C43.1061 55.2388 40.7314 55.7705 38.3509 55.6168C35.97 55.7696 33.5952 55.2364 31.5081 54.0807L31.129 53.8612C30.2967 53.362 29.5254 52.7675 28.8308 52.0897C28.0329 52.8712 27.1338 53.5422 26.1575 54.0847C24.0698 55.2388 21.6911 55.7705 19.3106 55.6168C16.9311 55.7688 14.5578 55.2357 12.4718 54.0807C11.4939 53.5388 10.5934 52.8678 9.7945 52.0857L9.5152 52.341C8.12818 53.5848 6.46932 54.4866 4.67134 54.9744C4.03995 55.1008 3.38465 55.0204 2.80254 54.7451C2.22042 54.4699 1.74246 54.0144 1.43945 53.4463V53.4503Z" fill="white"/>
</g>
</svg>
