<svg width="64" height="93" viewBox="0 0 64 93" fill="none" xmlns="http://www.w3.org/2000/svg">
<path d="M49.9818 17.081L42.0877 9.47076L32.8182 16.9502L28.4336 19.1058L21.669 12.3858L16.1548 17.7095C16.1548 17.7095 21.0396 23.164 21.4147 23.2906C21.7898 23.4171 41.5876 22.6578 42.3378 22.6578C43.0881 22.6578 49.9818 17.0767 49.9818 17.0767V17.081Z" fill="white" stroke="#231F20" stroke-width="0.147765" stroke-miterlimit="10"/>
<path fill-rule="evenodd" clip-rule="evenodd" d="M20.8646 1C12.5787 1 5.86414 7.80023 5.86414 16.1866C5.86414 24.573 12.5829 31.3732 20.8687 31.3732C29.1546 31.3732 35.8734 24.573 35.8734 16.1866C35.8734 7.80023 29.1505 1 20.8646 1ZM20.8646 28.1503C14.3376 28.1503 9.04428 22.7928 9.04428 16.1866C9.04428 9.58044 14.3376 4.22294 20.8646 4.22294C27.3916 4.22294 32.6849 9.58044 32.6849 16.1866C32.6849 22.7928 27.3916 28.1503 20.8646 28.1503Z" fill="#231F20" stroke="#231F20" stroke-width="0.370708" stroke-miterlimit="10"/>
<path fill-rule="evenodd" clip-rule="evenodd" d="M19.4892 13.4151C19.4892 13.4151 20.7646 12.2676 22.2525 13.2716L31.893 20.789C32.4765 19.3716 32.8016 17.8234 32.8016 16.1951C32.8016 9.55936 27.4291 4.17654 20.8021 4.17654C14.175 4.17654 8.80255 9.55936 8.80255 16.1951C8.80255 18.5321 9.46942 20.7131 10.6239 22.5608L19.485 13.4193L19.4892 13.4151Z" fill="#F38020"/>
<path d="M18.3179 16.6043L20.231 18.1103L22.0399 16.8194L23.953 18.6502L25.8661 16.9291C25.8661 16.9291 28.3127 21.232 30.9718 19.4053C33.631 17.5745 36.5027 14.4528 36.5027 14.4528L38.4158 16.8194L40.3289 14.9886L41.5001 16.8194L42.8838 15.634L44.5843 17.8951L46.2849 14.8831L48.944 15.9588L61.7021 28.9814V31.7782H4.38867L4.60124 28.6565L18.3179 16.6043Z" fill="url(#paint0_linear_5_2537)"/>
<path d="M62.4608 27.2391L44.872 9.34422C44.0051 8.46255 42.8548 7.97742 41.6252 7.97321H41.6169C40.3915 7.97321 39.2411 8.45412 38.3742 9.32735L30.9719 16.7983C30.7177 17.0557 30.3843 17.1949 30.0258 17.1949C29.6674 17.1949 29.3298 17.0514 29.0797 16.7941L24.6575 12.3014C23.7822 11.4113 22.6194 10.9219 21.369 10.9346C20.1269 10.943 18.9641 11.445 18.1013 12.352L2.2923 28.8928C1.45037 29.7745 0.991898 30.9345 1.00023 32.1621L1.46288 88.0784C1.48372 90.618 3.54268 92.6893 6.05595 92.6893H59.0097C61.5188 92.6893 63.5778 90.6264 63.6028 88.0911C63.7028 77.0133 63.7278 38.0216 63.7945 30.5591C63.807 29.3062 63.3319 28.1292 62.4566 27.2391H62.4608ZM49.8736 27.0493C47.7104 27.6779 45.4847 27.623 43.6633 27.3615C40.4999 26.7456 38.295 25.9778 34.548 23.8432C29.4923 20.962 27.8543 25.2058 27.8543 25.2058C30.7052 24.2018 31.4387 25.9736 30.0467 27.2771C27.5667 29.6015 22.2943 29.3948 17.2552 27.3404C13.8917 25.9694 10.9158 26.2478 8.51087 27.121L20.4312 14.6427C20.6813 14.3769 21.023 14.2335 21.3857 14.2293H21.394C21.7524 14.2293 22.09 14.3727 22.3443 14.63L26.7665 19.1227C27.6334 20.0044 28.7838 20.4895 30.0133 20.4895H30.0216C31.247 20.4895 32.3974 20.0086 33.2643 19.1354L40.6666 11.6644C40.9208 11.4071 41.2543 11.2679 41.6127 11.2679C41.9711 11.2679 42.3088 11.4113 42.5588 11.6686L59.1848 28.5806C53.7164 27.3741 54.2249 25.788 49.8736 27.0535V27.0493Z" fill="#231F20" stroke="#231F20" stroke-width="0.370708" stroke-miterlimit="10"/>
<path d="M26.2621 84.2944C26.0745 84.4252 25.8453 84.5138 25.5744 84.5686C25.3035 84.6234 25.0325 84.6488 24.7616 84.6488H24.1031C24.0031 84.6488 23.8238 84.653 23.5696 84.6699C23.3153 84.6825 23.0444 84.6614 22.7568 84.6108C22.4692 84.5602 22.2233 84.4589 22.0233 84.3197C21.819 84.1763 21.719 83.9611 21.719 83.6743V73.4655C21.6148 73.8578 21.5231 74.2459 21.4398 74.6382C21.3522 75.0306 21.2772 75.4102 21.2105 75.773C21.073 76.2413 20.9521 76.7137 20.8521 77.182C20.7521 77.6503 20.6312 78.1227 20.4936 78.591C20.3228 79.3714 20.1185 80.2615 19.881 81.2486C19.6434 82.24 19.3891 83.1512 19.1182 83.9865C19.014 84.1172 18.9057 84.2396 18.7848 84.3577C18.6639 84.4758 18.4889 84.5728 18.2513 84.6488H16.6675C16.3257 84.6741 15.8756 84.6614 15.3171 84.6108C14.7544 84.5602 14.3918 84.3239 14.2209 83.9063C13.9458 82.7336 13.6624 81.5186 13.3539 80.2699C13.0497 79.0171 12.7413 77.781 12.4328 76.5534C12.3661 76.1611 12.2744 75.6929 12.1536 75.1445C12.0369 74.5961 11.891 74.035 11.7201 73.4613V83.7123C11.7201 83.9738 11.6284 84.1679 11.445 84.2986C11.2616 84.4294 11.0366 84.518 10.7698 84.5728C10.4989 84.6277 10.2322 84.653 9.96541 84.653H8.76087C8.49412 84.653 8.23571 84.6277 7.98563 84.5728C7.73556 84.5222 7.50632 84.4294 7.31042 84.2986C7.1062 84.1679 7.00616 83.9611 7.00616 83.6743V54.1405C7.00616 53.8832 7.13954 53.4909 7.53549 53.3095C7.73972 53.2167 10.5281 53.2335 10.8657 53.2968C11.2033 53.3643 11.4909 53.3685 11.7743 54.0266C11.8702 54.2544 12.5579 56.9416 12.6954 57.3845C13.1664 59.0551 13.5999 60.734 13.9875 62.4299C14.3793 64.1257 14.7752 65.8342 15.1795 67.5554C15.4504 68.6522 15.7047 69.7616 15.9422 70.8796C16.1798 72.0017 16.4299 73.1238 16.705 74.2417L18.5806 66.5345C19.0515 64.5012 19.535 62.4679 20.0268 60.4303C20.5186 58.397 20.9396 56.3341 21.4731 54.2924C21.7315 53.3053 22.0149 53.3053 22.4901 53.1956H25.4327C26.5872 53.1534 26.5497 54.0055 26.5497 54.1321V83.7038C26.5497 83.9654 26.4538 84.1594 26.2704 84.2902L26.2621 84.2944ZM16.7967 74.866L16.7467 74.7901C16.7467 74.8407 16.7633 74.866 16.7967 74.866Z" fill="white"/>
<path d="M43.4674 84.4336C43.3424 84.5813 43.2715 84.5981 42.9339 84.6488H39.9413C39.7371 84.6488 39.5579 84.556 39.4078 84.3746C39.2536 84.1932 39.1202 83.978 38.9994 83.7291C38.8827 83.4802 38.8035 83.2735 38.7368 83.012C38.6659 82.7504 38.6659 82.5058 38.6201 82.3412C38.5992 82.2695 38.5742 82.202 38.5409 82.0966C38.5076 81.9911 38.4325 81.9489 38.4659 81.9489H33.2351C33.1017 82.105 33.0142 82.2695 32.9809 82.4383C32.9475 82.607 32.9142 82.7842 32.8808 82.9656C32.8475 83.2271 32.7766 83.4887 32.6766 83.746C32.5766 84.0076 32.339 84.3071 31.968 84.6446H29.0255C28.7546 84.6446 28.542 84.5644 28.3919 84.4083C28.2419 84.2522 28.2127 84.1974 28.146 84.1172L28.0627 83.9738C27.996 83.8177 27.9626 83.6743 27.9626 83.5435C27.9626 83.5182 28.0543 82.9951 28.2419 81.9785C28.4253 80.9618 28.6629 79.633 28.9504 77.9877C29.238 76.3425 29.5756 74.4779 29.9674 72.394C30.355 70.3101 30.7468 68.1755 31.1345 65.9987C31.5221 63.822 31.9055 61.6917 32.2765 59.6035C32.6516 57.5196 32.9225 55.8448 33.2309 54.2038C33.3643 53.5078 33.5685 53.3728 34.1104 53.3095C34.6522 53.2462 37.0446 53.3264 37.2155 53.3306C37.9824 53.3517 38.1158 53.7313 38.245 54.2671C38.2908 54.4696 38.8577 57.3635 38.9285 57.8064C39.3995 60.5442 39.8913 63.3031 40.3998 66.0789C40.9083 68.8547 41.4293 71.6136 41.9711 74.3514C42.242 75.811 42.5296 77.3423 42.8339 78.9496C43.1381 80.5526 43.4257 82.0966 43.6966 83.5857C43.6966 83.5857 43.8467 83.978 43.4716 84.4294L43.4674 84.4336ZM38.0074 78.7007C38.0074 78.65 37.9741 78.3885 37.9032 77.916C37.8365 77.4478 37.7448 76.8614 37.6239 76.1569C37.5072 75.4524 37.378 74.6636 37.2447 73.7903C37.1113 72.9171 36.9571 72.0228 36.7862 71.1116C36.6195 70.2004 36.4569 69.3061 36.3027 68.4328C36.1527 67.5596 36.0026 66.7834 35.8692 66.1042C35.5983 67.5891 35.3441 69.0572 35.1065 70.5041C34.8689 71.9511 34.6147 73.4318 34.3438 74.942C34.2104 75.6212 34.0979 76.2793 34.0145 76.9162C33.9311 77.5532 33.8186 78.2113 33.6852 78.8905C33.7186 78.9158 33.7686 78.9833 33.8353 79.0846C33.8686 79.1141 33.877 79.1141 33.8603 79.0846C33.8436 79.0592 33.852 79.0592 33.8853 79.0846C34.969 79.0846 35.8401 79.0803 36.4986 79.0677C37.1571 79.055 37.6239 79.0339 37.8949 79.0086C37.9616 78.8525 37.9991 78.7471 37.9991 78.6965L38.0074 78.7007ZM38.0074 78.7007C38.0074 78.65 37.9741 78.3885 37.9032 77.916C37.8365 77.4478 37.7448 76.8614 37.6239 76.1569C37.5072 75.4524 37.378 74.6636 37.2447 73.7903C37.1113 72.9171 36.9571 72.0228 36.7862 71.1116C36.6195 70.2004 36.4569 69.3061 36.3027 68.4328C36.1527 67.5596 36.0026 66.7834 35.8692 66.1042C35.5983 67.5891 35.3441 69.0572 35.1065 70.5041C34.8689 71.9511 34.6147 73.4318 34.3438 74.942C34.2104 75.6212 34.0979 76.2793 34.0145 76.9162C33.9311 77.5532 33.8186 78.2113 33.6852 78.8905C33.7186 78.9158 33.7686 78.9833 33.8353 79.0846C33.8686 79.1141 33.877 79.1141 33.8603 79.0846C33.8436 79.0592 33.852 79.0592 33.8853 79.0846C34.969 79.0846 35.8401 79.0803 36.4986 79.0677C37.1571 79.055 37.6239 79.0339 37.8949 79.0086C37.9616 78.8525 37.9991 78.7471 37.9991 78.6965L38.0074 78.7007Z" fill="white"/>
<path fill-rule="evenodd" clip-rule="evenodd" d="M35.6775 54.208C36.7112 55.9461 36.3277 59.7638 36.9738 61.9195C40.6124 63.0669 43.2424 65.2858 43.9134 69.5929C45.6639 69.7617 44.1885 69.9726 44.6511 70.4662C44.7053 71.1791 44.4427 71.5081 44.1802 71.8667C42.9256 75.5495 41.2001 78.7344 36.9738 79.2575C36.5611 81.6579 36.4278 86.0282 35.9568 88.3695C35.0107 86.5345 35.2357 81.679 34.573 79.5402C30.9219 78.4054 28.3711 76.0979 27.6334 71.8667C27.6334 71.8667 27.2708 71.563 27.2166 70.85C27.9293 69.5381 26.9999 69.7617 27.3625 69.5929C28.6837 65.9819 30.3009 62.683 34.5689 62.2063C34.9273 59.7469 35.3149 56.6716 35.6734 54.2123L35.6775 54.208ZM35.64 70.1582C35.4775 67.7705 36.2736 57.9541 35.6734 56.9796C35.7151 59.7765 33.5769 68.5383 35.64 70.1582ZM31.1053 64.7627C31.4596 66.0916 32.7225 66.4501 33.7728 67.0365C34.1021 65.965 34.3105 64.767 34.3063 63.3411C32.8183 63.3664 32.1473 64.2607 31.1053 64.7627ZM37.7782 67.0323C38.9619 66.5894 39.7996 65.7752 40.7124 65.0454C39.7663 64.2523 38.816 63.4634 37.2447 63.3411C37.2447 64.767 37.4531 65.965 37.7782 67.0365V67.0323ZM28.7004 69.3103C29.9466 69.1205 31.1261 68.8631 32.4349 68.7408C31.8139 67.606 31.3262 66.3194 30.3009 65.6149C29.7341 66.8129 28.9213 67.7452 28.7004 69.3103ZM39.1119 68.7408C40.4207 68.8631 41.6002 69.1205 42.8464 69.3103C42.5422 67.741 42.0003 66.4248 40.9792 65.6149C40.3748 66.6779 39.6288 67.5849 39.1119 68.7408ZM36.4403 70.7277C39.0202 70.5379 42.3087 71.1032 44.4469 70.4451C41.4877 70.5758 37.8657 68.1165 36.4403 70.7277ZM34.8398 70.7277C31.7513 70.8543 29.1755 70.5463 27.3667 71.0104C29.8716 70.9429 33.8895 73.4149 34.8398 70.7277ZM35.9068 72.1493V78.9707C35.9485 79.3039 35.8609 79.7764 36.1735 79.8228V78.4012C36.3903 76.0346 37.8074 72.6682 35.9068 71.2972V72.1536V72.1493ZM30.5718 75.8448C31.1095 74.7142 32.0181 73.976 32.439 72.7188C31.1303 72.5965 29.9508 72.3392 28.7046 72.1536C29.1089 73.6132 29.484 75.1107 30.5718 75.8448ZM39.1119 73.0015C39.9705 73.7903 40.2123 75.2373 41.2459 75.8405C41.8586 74.6931 42.663 73.7524 42.8464 72.1493C41.6711 72.5079 39.9664 72.3012 39.1119 73.0015ZM31.1053 76.6969C32.1473 77.1947 32.8183 78.089 34.3105 78.1143C34.4647 76.6252 33.8395 75.9629 34.0437 74.4189C32.6641 74.7479 31.6763 75.4988 31.1095 76.6927L31.1053 76.6969ZM37.2405 78.1185C38.7827 78.1565 39.4579 77.258 40.4415 76.7011C40.0872 75.3723 38.8285 75.0095 37.774 74.4273C37.4448 75.4988 37.2364 76.6969 37.2405 78.1228V78.1185Z" fill="#231F20"/>
<path fill-rule="evenodd" clip-rule="evenodd" d="M35.7818 56.351C36.382 57.3255 36.0902 67.3276 35.6401 70.1624C33.577 68.5425 35.8193 59.1479 35.7818 56.351Z" fill="white"/>
<path fill-rule="evenodd" clip-rule="evenodd" d="M34.3063 63.3411C34.3105 64.767 34.1021 65.965 33.7728 67.0365C32.7225 66.4544 31.4596 66.0916 31.1053 64.7627C32.1473 64.2607 32.8184 63.3664 34.3063 63.3411Z" fill="#F38020"/>
<path fill-rule="evenodd" clip-rule="evenodd" d="M37.2405 63.3411C38.8119 63.4677 39.7621 64.2565 40.7083 65.0454C39.7955 65.7752 38.9577 66.5894 37.774 67.0323C37.4448 65.9608 37.2364 64.7627 37.2405 63.3369V63.3411Z" fill="#F38020"/>
<path fill-rule="evenodd" clip-rule="evenodd" d="M30.3051 65.6149C31.3304 66.3194 31.818 67.606 32.4391 68.7408C31.1303 68.8631 29.9508 69.1204 28.7046 69.3103C28.9255 67.7452 29.7382 66.8129 30.3051 65.6149Z" fill="#F38020"/>
<path fill-rule="evenodd" clip-rule="evenodd" d="M40.9792 65.6149C42.0004 66.4206 42.5422 67.741 42.8465 69.3103C41.6003 69.1204 40.4207 68.8631 39.112 68.7408C39.6288 67.5849 40.3749 66.6779 40.9792 65.6149Z" fill="#F38020"/>
<path fill-rule="evenodd" clip-rule="evenodd" d="M44.447 70.4451C42.3088 71.1074 39.0245 70.5421 36.4404 70.7277C37.8616 68.1122 41.4878 70.5716 44.447 70.4451Z" fill="white"/>
<path fill-rule="evenodd" clip-rule="evenodd" d="M35.9068 71.2972C37.8032 72.6682 36.5654 76.0937 36.3528 78.4602C36.3528 78.9327 35.936 84.3282 35.936 84.8006C35.6234 84.7542 35.9485 79.3039 35.9068 78.9749V71.3014V71.2972Z" fill="white"/>
<path fill-rule="evenodd" clip-rule="evenodd" d="M28.7004 72.1494C29.9467 72.3392 31.1262 72.5965 32.4349 72.7146C32.014 73.9718 31.1053 74.71 30.5677 75.8405C29.4798 75.1023 29.1047 73.609 28.7004 72.1494Z" fill="#F38020"/>
<path fill-rule="evenodd" clip-rule="evenodd" d="M42.8465 72.1494C42.6631 73.7524 41.8587 74.6973 41.246 75.8405C40.2123 75.2373 39.9706 73.7904 39.112 73.0015C39.9664 72.3012 41.6711 72.5079 42.8465 72.1494Z" fill="#F38020"/>
<path fill-rule="evenodd" clip-rule="evenodd" d="M34.0396 74.4231C33.8354 75.9671 34.4647 76.6252 34.3063 78.1185C32.8184 78.0932 32.1474 77.1989 31.1012 76.7011C31.6722 75.5073 32.6558 74.7564 34.0354 74.4273L34.0396 74.4231Z" fill="#F38020"/>
<path fill-rule="evenodd" clip-rule="evenodd" d="M37.7782 74.4231C38.8286 75.0095 40.0915 75.3723 40.4457 76.6969C39.4621 77.2579 38.7869 78.1523 37.2448 78.1143C37.2448 76.6884 37.4531 75.4946 37.7782 74.4189V74.4231Z" fill="#F38020"/>
<path fill-rule="evenodd" clip-rule="evenodd" d="M27.3667 71.0103C29.1756 70.5463 31.7514 70.8542 34.8398 70.7277C33.8895 73.4149 29.8716 70.9428 27.3667 71.0103Z" fill="white"/>
<path d="M7.65654 88.9685L6.96466 88.0995C7.05219 88.0278 7.86494 87.3908 9.77386 87.0069L9.99059 88.1037C8.35259 88.4328 7.66488 88.9643 7.66071 88.9685H7.65654Z" fill="#F38020"/>
<path d="M48.3773 89.4368C47.9522 89.4368 47.5187 89.4368 47.0769 89.4326L47.0852 88.3147C49.1442 88.3315 51.0573 88.302 52.1785 88.2809L52.2035 89.3988C51.3199 89.4199 49.9361 89.441 48.3815 89.441L48.3773 89.4368ZM26.3705 89.3988C25.0035 89.3988 23.403 89.2723 21.6149 89.0192L21.7691 87.9097C23.5072 88.1544 25.0576 88.2767 26.3747 88.2767C26.5122 88.2767 26.6456 88.2767 26.7707 88.2767L26.7915 89.3946C26.6581 89.3946 26.5164 89.3946 26.3747 89.3946L26.3705 89.3988ZM43.6508 89.3524C41.5085 89.2638 39.908 89.1077 38.8994 88.8842C38.766 88.8546 38.6326 88.8293 38.4993 88.804L38.7035 87.7072C38.8494 87.7367 38.9952 87.7663 39.137 87.7958C40.0831 88.0025 41.6169 88.1544 43.6967 88.2387L43.6508 89.3566V89.3524ZM30.2551 88.8884L30.0133 87.8C30.9136 87.5933 32.7892 87.3739 34.7898 87.3739C34.9315 87.3739 35.0774 87.3739 35.2233 87.3739L35.2066 88.4918C35.0649 88.4918 34.9357 88.5045 34.7856 88.4918C32.7433 88.4918 30.9553 88.7323 30.2551 88.8926V88.8884ZM18.2264 88.4412L18.068 88.4117C16.3341 88.0658 14.717 87.8759 13.2582 87.8506L13.279 86.7327C14.8045 86.7623 16.4883 86.9563 18.2847 87.3149L18.4389 87.3444L18.2264 88.4412Z" fill="#F38020"/>
<path d="M57.7535 86.3068L55.2065 87.3915L55.6348 88.4219L58.1819 87.3372L57.7535 86.3068Z" fill="#F38020"/>
<path d="M12.7453 47.2686C12.8704 47.1715 12.9371 47.0323 12.9371 46.8678C12.9371 46.7666 12.8954 46.6737 12.8204 46.6063C12.7453 46.5345 12.637 46.4966 12.4994 46.4966H12.1827L12.3869 45.9566C12.4911 45.6824 12.5911 45.4082 12.6828 45.134C12.7703 44.8724 12.8454 44.6109 12.9121 44.3578C12.9704 44.1089 13.0037 43.8938 13.0037 43.7292C13.0037 43.6406 13.0037 43.3791 12.8204 43.2652C12.7245 43.2061 12.6286 43.1766 12.5411 43.1766C12.3369 43.1766 12.0993 43.2652 11.8117 43.4508C11.5491 43.6195 11.2615 43.8389 10.9656 44.1005C10.6739 44.3578 10.3779 44.6446 10.057 44.9779C9.74858 45.3027 9.45683 45.6191 9.18174 45.9313C8.90666 46.2435 8.65658 46.5345 8.43985 46.8003C8.23979 47.0492 8.0814 47.2475 7.9647 47.3993C7.7563 47.4668 7.56041 47.5343 7.37285 47.6018C7.16862 47.6735 6.96856 47.7537 6.77267 47.8507C6.68514 47.8971 6.61429 47.9604 6.5601 48.0363C6.50592 48.1165 6.48091 48.2008 6.48091 48.281C6.48091 48.4286 6.57678 48.5299 6.72265 48.5299C6.76433 48.5299 6.82268 48.5172 6.92271 48.4835L6.9894 48.4624C7.03108 48.4497 7.07693 48.4329 7.12694 48.416L6.6643 49.0024C6.49758 49.2133 6.33087 49.4284 6.16832 49.6478C6.0016 49.8672 5.85989 50.0654 5.73068 50.2468C5.63899 50.386 5.59314 50.5084 5.59314 50.6307C5.59314 50.753 5.64316 50.8627 5.73068 50.9429C5.8849 51.0821 6.12664 51.1032 6.35171 50.964C6.45174 50.9049 6.54343 50.8121 6.62679 50.6855C6.781 50.4282 6.94355 50.1751 7.11027 49.9347C7.28533 49.6815 7.46038 49.4326 7.64377 49.1922C7.82716 48.9475 8.00221 48.7155 8.16893 48.4961C8.32731 48.2894 8.47319 48.1038 8.60657 47.9393C8.74411 47.9056 8.89415 47.8676 9.06087 47.8296C9.24843 47.7832 9.44016 47.741 9.64438 47.7031L10.2654 47.5807C10.3779 47.5596 10.4863 47.5385 10.5905 47.5217C10.5447 47.6145 10.4988 47.7199 10.4446 47.8381C10.3613 48.0194 10.2654 48.2177 10.1695 48.4244L10.0779 48.6227C9.94031 48.9053 9.7986 49.2006 9.64438 49.5086C9.49434 49.8123 9.34429 50.1034 9.19841 50.3776C9.11089 50.5463 9.06921 50.6898 9.06921 50.8121C9.06921 50.9598 9.11505 51.0736 9.21092 51.1665C9.30261 51.2466 9.40681 51.2846 9.53185 51.2846C9.65689 51.2846 9.79026 51.2424 9.91947 51.1538C10.0445 51.0694 10.1529 50.9429 10.2446 50.7741C10.3571 50.5674 10.4863 50.3143 10.6322 50.0232C10.7781 49.7279 10.9281 49.4242 11.0782 49.112C11.2282 48.7957 11.3741 48.4835 11.5116 48.1713C11.6283 47.9056 11.7325 47.6482 11.8242 47.412C11.8701 47.412 11.9201 47.412 11.9701 47.412H12.2744C12.4744 47.412 12.6328 47.3656 12.7495 47.2728L12.7453 47.2686ZM11.6533 44.6784C11.645 44.7375 11.6325 44.8176 11.6033 44.9273C11.5616 45.0834 11.5116 45.2563 11.4491 45.4504C11.3866 45.6444 11.3116 45.8427 11.2282 46.0536C11.1573 46.235 11.0865 46.4122 11.0115 46.5767C10.678 46.6273 10.3279 46.6991 9.97365 46.7834C9.79026 46.8298 9.61521 46.872 9.44849 46.9142C9.6027 46.7412 9.76525 46.5641 9.93197 46.3827C10.2196 46.0663 10.4946 45.7752 10.7572 45.5094C11.0281 45.231 11.2532 45.0159 11.4408 44.8514C11.5366 44.767 11.6033 44.7121 11.6533 44.6784Z" fill="#F38020"/>
<path d="M18.8972 45.5137C18.8972 45.1678 18.8431 44.8556 18.7347 44.5772C18.6263 44.2945 18.4638 44.0541 18.2554 43.8558C18.047 43.6618 17.7969 43.5099 17.5093 43.4002C17.0467 43.2315 16.4965 43.1851 15.8755 43.3201C15.6379 43.3707 15.4087 43.4424 15.1878 43.531C14.9669 43.6196 14.7501 43.7293 14.5501 43.86C14.3417 43.9908 14.1625 44.1342 13.9999 44.2945C13.879 44.4127 13.7957 44.5223 13.7457 44.6194C13.6873 44.729 13.6581 44.8261 13.6581 44.9104C13.6581 45.1973 13.9791 45.2648 14.3333 44.9737C14.5959 44.767 14.9002 44.5814 15.2378 44.4211C15.7671 44.168 16.3923 44.1174 16.9383 44.2777C17.1467 44.3409 17.3301 44.4338 17.4843 44.5561C17.6385 44.6784 17.7594 44.8303 17.8553 45.0159C17.9511 45.2015 17.997 45.4082 17.997 45.6487C17.997 45.9904 17.9386 46.3405 17.8219 46.6949C17.701 47.0492 17.5427 47.3951 17.3468 47.72C17.155 48.0448 16.9258 48.3527 16.6757 48.6312C16.4215 48.9138 16.1589 49.1627 15.8963 49.3736C15.6254 49.5888 15.3712 49.7491 15.1253 49.863C14.8793 49.9769 14.6668 50.0317 14.4876 50.0317C14.3792 50.0317 14.0541 50.0317 13.9457 49.323C14.0791 49.0825 14.25 48.7788 14.4625 48.4245L14.5459 48.2853C14.746 47.9478 14.9585 47.5892 15.1836 47.218C15.4337 46.7961 15.6963 46.3743 15.9547 45.9566C16.2173 45.539 16.459 45.1551 16.6841 44.8134C16.7424 44.7164 16.7716 44.6278 16.7716 44.5477C16.7716 44.4422 16.7257 44.3494 16.6466 44.2903C16.4923 44.168 16.2173 44.1806 16.0589 44.3663C15.7963 44.6995 15.4962 45.1129 15.1628 45.5938C14.821 46.0832 14.4709 46.5978 14.1083 47.142C13.7457 47.6862 13.3914 48.2304 13.0496 48.7704C12.7037 49.3103 12.4078 49.7913 12.1535 50.2173C12.0952 50.3186 12.066 50.4072 12.066 50.4957C12.066 50.5759 12.0868 50.6603 12.1243 50.7362C12.1577 50.8079 12.1994 50.8754 12.2452 50.9303C12.2952 50.9935 12.3536 51.0442 12.4203 51.0821C12.4953 51.1327 12.5786 51.1538 12.662 51.1538C12.7662 51.1538 12.9162 51.1116 13.0454 50.9092C13.0788 50.8628 13.133 50.7657 13.208 50.6265C13.2288 50.5886 13.2497 50.5506 13.2663 50.5126C13.3372 50.6476 13.4289 50.7657 13.5414 50.867C13.7498 51.0526 14.0041 51.1496 14.3 51.1496C14.6376 51.1496 14.9919 51.0779 15.3545 50.9387C15.7129 50.7995 16.0672 50.6012 16.4006 50.3523C16.7382 50.0992 17.0633 49.7997 17.3593 49.4622C17.6635 49.1163 17.9303 48.7324 18.1595 48.319C18.3888 47.8971 18.5721 47.4458 18.7014 46.9775C18.8347 46.505 18.9014 46.003 18.9014 45.4968L18.8972 45.5137Z" fill="#F38020"/>
<path d="M25.4034 44.362C25.4992 44.2945 25.5659 44.2144 25.6118 44.1216C25.6576 44.0288 25.6785 43.9317 25.6785 43.8305C25.6785 43.6407 25.6118 43.4804 25.4784 43.3538C25.1866 43.0796 24.8157 43.1176 24.4281 43.434L24.2905 43.5479L24.4239 43.666C24.4698 43.7082 24.4739 43.7377 24.4739 43.763C24.4739 43.7883 24.4698 43.8263 24.4197 43.8727C24.0613 44.2017 23.6987 44.5772 23.3402 44.9948C22.9818 45.4082 22.6192 45.8469 22.2607 46.2983C21.9065 46.7413 21.5689 47.18 21.2438 47.6103L20.3685 48.7619C20.1142 49.0994 19.8933 49.3736 19.7141 49.5761C19.6349 49.6647 19.5766 49.7237 19.5349 49.7617C19.5516 49.6816 19.5808 49.5634 19.6433 49.382C19.7308 49.1289 19.8475 48.8379 19.985 48.5173C20.1142 48.2177 20.2768 47.876 20.4894 47.4373C20.6811 47.0577 20.8853 46.6695 21.1021 46.2857C21.3104 45.9144 21.5313 45.5474 21.7564 45.1931C21.9732 44.8514 22.1899 44.5519 22.3941 44.3072C22.5233 44.1511 22.5858 44.0077 22.5858 43.8642C22.5858 43.6871 22.4983 43.59 22.4233 43.5394C22.2482 43.4171 21.969 43.4129 21.7064 43.5394C21.5689 43.5985 21.448 43.6997 21.3438 43.8347C21.0854 44.1511 20.8311 44.5097 20.5852 44.9104C20.3352 45.3112 20.0976 45.7246 19.8767 46.1465C19.6474 46.5683 19.4349 46.9986 19.2431 47.4247C19.0556 47.8423 18.8847 48.2515 18.7388 48.6438C18.5888 49.0446 18.4804 49.3905 18.4012 49.69C18.3179 50.0064 18.2762 50.2637 18.2762 50.4535C18.2762 50.6434 18.3179 50.791 18.4012 50.9091C18.4929 51.0357 18.6221 51.1032 18.7763 51.1032C19.0139 51.1032 19.2848 50.9682 19.6058 50.6898C19.8933 50.4409 20.2226 50.1076 20.5852 49.6984C20.9353 49.2977 21.3146 48.8421 21.7147 48.3401C22.1065 47.8465 22.5192 47.3445 22.9359 46.8467C23.3611 46.3447 23.782 45.8723 24.1863 45.4462C24.599 45.0117 25.0074 44.6447 25.3992 44.3662L25.4034 44.362Z" fill="#F38020"/>
<path d="M25.6868 49.2639C25.9327 48.8716 26.1994 48.4034 26.4745 47.8761C26.5454 47.7411 26.6121 47.6103 26.6829 47.4795C26.7496 47.6314 26.908 47.6609 27.2164 47.5681C27.3206 47.5344 27.429 47.5048 27.5332 47.4753L27.9166 47.3698C28.025 47.3403 28.175 47.3234 28.3543 47.3234C28.546 47.3234 28.7085 47.2602 28.8294 47.1336C28.9503 47.0113 29.0086 46.8763 29.0086 46.7286C29.0086 46.4966 28.8794 46.4207 28.7961 46.3954C28.6252 46.3405 28.3543 46.3447 28.1083 46.3911C27.9875 46.4122 27.8749 46.4375 27.7707 46.4629C27.6624 46.4924 27.5665 46.5219 27.4873 46.5514C27.4206 46.5768 27.3706 46.5936 27.3289 46.6063C27.2497 46.6358 27.1747 46.6653 27.108 46.7033C27.1247 46.6738 27.1456 46.64 27.1622 46.6105C27.3915 46.2308 27.6415 45.8849 27.9083 45.5854C28.0625 45.4082 28.1417 45.231 28.1417 45.0539C28.1417 44.9273 28.0958 44.8134 28.0125 44.729C27.9958 44.7122 27.975 44.6953 27.9541 44.6826C28.1459 44.6362 28.3376 44.5941 28.5251 44.5645C29.042 44.4802 29.5088 44.4717 29.7463 44.5012C29.8464 44.5139 29.9047 44.5266 29.9339 44.5392L29.9798 44.3958L29.9589 44.5687C29.9589 44.6109 29.9381 44.6616 29.8964 44.7206C29.8464 44.7923 29.7922 44.8556 29.7338 44.9104L29.192 45.3829L29.8756 45.1678C30.2507 45.0497 30.5383 44.902 30.7508 44.7248C30.9842 44.5308 31.1009 44.2819 31.1009 43.995C31.1009 43.7419 30.9634 43.5521 30.7091 43.4677C30.2965 43.3243 29.588 43.3074 28.7502 43.4888C28.3584 43.5732 27.9583 43.6913 27.5498 43.8389C27.1539 43.9824 26.7496 44.1595 26.3495 44.362C25.9619 44.5603 25.5909 44.7754 25.2491 45.0032C25.1574 45.0665 25.0866 45.1425 25.0407 45.2268C24.9949 45.3112 24.9699 45.3956 24.9699 45.4842C24.9699 45.7246 25.1158 45.809 25.2575 45.809C25.3242 45.809 25.3908 45.7879 25.4534 45.7499C25.4992 45.7246 25.5492 45.6909 25.6076 45.6529C25.866 45.4799 26.1619 45.3239 26.4912 45.1846C26.6787 45.1045 26.8746 45.0286 27.0789 44.9568C27.0664 44.9695 27.0539 44.9864 27.0414 45.0032C26.7996 45.307 26.5537 45.674 26.312 46.0916C26.0744 46.505 25.816 46.9649 25.5326 47.4795C25.3867 47.7537 25.22 48.0532 25.0324 48.3654C24.8448 48.6776 24.6573 48.9813 24.4739 49.2724C24.2905 49.5635 24.1155 49.8292 23.9529 50.0655C23.7904 50.3059 23.6611 50.4873 23.5611 50.6223C23.4986 50.7067 23.4694 50.8121 23.4694 50.9303C23.4694 51.0399 23.4944 51.137 23.5528 51.2213C23.6195 51.3184 23.7153 51.369 23.832 51.369C23.9237 51.369 24.0904 51.3352 24.3322 51.2635C24.5614 51.196 24.8407 51.1243 25.1658 51.0484C25.4909 50.9724 25.8493 50.9007 26.2286 50.8332C26.5996 50.7699 26.983 50.7362 27.3581 50.7362C28.0125 50.7362 28.1083 50.3143 28.1083 50.0655C28.1083 49.9389 28.0625 49.8208 27.9791 49.728C27.8874 49.6267 27.7499 49.5719 27.5707 49.5719C27.0622 49.5719 26.5662 49.6267 26.0911 49.728C25.7785 49.7955 25.5034 49.8672 25.2491 49.9389C25.3825 49.7406 25.5242 49.5171 25.6826 49.2682L25.6868 49.2639Z" fill="#F38020"/>
<path d="M36.6818 43.8052C36.6818 43.6449 36.6402 43.5268 36.5568 43.4424C36.4734 43.3665 36.3776 43.3243 36.2734 43.3243C36.1067 43.3243 35.8191 43.3918 35.7524 43.8263C35.7065 44.1258 35.6065 44.4886 35.4606 44.902C35.3064 45.3281 35.1272 45.771 34.923 46.214C34.7146 46.6696 34.4853 47.1209 34.2394 47.5681C33.9935 48.0068 33.7476 48.4118 33.5059 48.7662C33.2683 49.1121 33.0432 49.3947 32.8307 49.6141C32.5847 49.863 32.4555 49.9009 32.3972 49.9009C32.3597 49.9009 32.3263 49.8967 32.2972 49.825C32.2596 49.728 32.2388 49.5972 32.2388 49.4327C32.2388 49.1036 32.2763 48.7324 32.3555 48.3316C32.4347 47.9182 32.5347 47.4879 32.6556 47.0577C32.7848 46.5936 32.9098 46.176 33.0349 45.7879C33.1683 45.3745 33.2891 45.0032 33.3975 44.6742C33.4475 44.535 33.4725 44.3873 33.4725 44.2355C33.4725 44.0583 33.4308 43.9233 33.3517 43.8263C33.2683 43.725 33.1558 43.6744 33.0266 43.6744C32.8473 43.6744 32.6848 43.7503 32.5431 43.8938C32.4139 44.0246 32.293 44.1975 32.1846 44.4042C32.0971 44.5645 31.9721 44.7881 31.8095 45.0623L31.7095 45.231C31.5678 45.4673 31.4094 45.7288 31.2343 46.0157L30.5508 47.142C30.309 47.5386 30.0756 47.9225 29.8506 48.3021L29.7422 48.4877C29.5588 48.7999 29.3838 49.0952 29.217 49.3736C29.0212 49.7069 28.8544 50.0022 28.7336 50.2384C28.6794 50.3397 28.6502 50.4536 28.6502 50.5759C28.6502 50.7362 28.7044 50.8712 28.8044 50.9682C28.9086 51.0695 29.017 51.1243 29.1295 51.1243C29.3463 51.1243 29.4546 51.0104 29.5088 50.9176C29.8506 50.3228 30.184 49.7617 30.4966 49.2513L31.3385 47.8592C31.5052 47.585 31.6553 47.3319 31.7928 47.1083C31.7512 47.2644 31.7136 47.4247 31.6761 47.5934C31.6011 47.914 31.5386 48.2431 31.4761 48.6016C31.4219 48.9433 31.3927 49.2682 31.3927 49.5677C31.3927 50.0612 31.4469 50.424 31.5594 50.6729C31.6845 50.9556 31.9179 51.1032 32.2388 51.1032C32.4722 51.1032 32.7431 50.9724 33.0641 50.6982C33.36 50.4451 33.6726 50.1076 33.9977 49.6942C34.3186 49.285 34.6437 48.8168 34.9646 48.2979C35.2856 47.779 35.5732 47.2475 35.8232 46.7202C36.0692 46.1971 36.2817 45.674 36.4443 45.1593C36.6068 44.6489 36.686 44.1933 36.686 43.8094L36.6818 43.8052Z" fill="#F38020"/>
<path d="M42.0668 44.5814C42.2085 44.5814 42.3127 44.5941 42.3794 44.6025C42.396 44.6025 42.4044 44.6067 42.4169 44.6109C42.4086 44.6362 42.3919 44.6784 42.346 44.7417L41.9834 45.2521L42.5336 44.9611C42.7545 44.8472 42.9212 44.6995 43.0254 44.5223C43.1296 44.3494 43.1838 44.1722 43.1838 44.0035C43.1838 43.7504 43.0588 43.5774 42.8337 43.5099C42.6586 43.4551 42.4127 43.4297 42.0835 43.4297C41.6583 43.4297 41.2165 43.4677 40.7747 43.5352C40.3246 43.6069 39.8828 43.7124 39.4576 43.8432C39.02 43.9782 38.5907 44.1427 38.1781 44.3325C37.7655 44.5223 37.3695 44.7417 37.0027 44.9822C36.9027 45.0539 36.811 45.1467 36.736 45.2648C36.661 45.3871 36.6234 45.5263 36.6234 45.6698C36.6234 45.8301 36.661 45.9566 36.7276 46.0452C36.7985 46.138 36.9027 46.1971 37.0319 46.2182L37.5946 46.3152L37.1486 45.9566L37.1236 45.9313C37.3695 45.7626 37.6363 45.6107 37.9155 45.4799C38.2114 45.345 38.4782 45.2353 38.7283 45.1425C38.9867 45.0454 39.2117 44.9695 39.3993 44.9189C39.3993 44.9189 39.3993 44.9189 39.4035 44.9189C39.1992 45.2184 38.9867 45.539 38.7616 45.8849C38.449 46.3658 38.1406 46.8552 37.8321 47.353C37.5196 47.8592 37.2278 48.3485 36.961 48.8126C36.6818 49.3019 36.4567 49.7238 36.2692 50.0992C36.2358 50.1751 36.2108 50.23 36.2025 50.2595C36.19 50.3017 36.1816 50.3354 36.1816 50.3692C36.1816 50.4578 36.2108 50.5421 36.265 50.6223C36.3108 50.6898 36.3692 50.7446 36.4275 50.791C36.4901 50.8417 36.5651 50.8838 36.6484 50.9092C36.7318 50.9387 36.8068 50.9513 36.8735 50.9513C37.1153 50.9513 37.1861 50.8037 37.207 50.7489C37.3362 50.4367 37.507 50.0781 37.7196 49.6816C37.9363 49.2766 38.1781 48.8379 38.4448 48.3823C38.7074 47.9309 38.9742 47.488 39.2451 47.0492C39.516 46.6105 39.7619 46.214 39.9828 45.8638L40.5205 45.0032C40.6955 44.7206 40.7414 44.6489 40.7497 44.6067C40.8372 44.5983 40.9289 44.5898 41.0123 44.5856C41.4416 44.5645 41.8292 44.573 42.0543 44.5814H42.0668Z" fill="#F38020"/>
<path d="M45.7679 48.7788C45.8013 48.648 45.8388 48.5215 45.8763 48.3992L45.9847 48.0743C46.4306 47.5555 46.8516 47.0408 47.2309 46.5388C47.6227 46.0284 47.9228 45.4884 48.1353 44.9315C48.1853 44.7839 48.2103 44.6826 48.2103 44.6067C48.2103 44.4633 48.1645 44.3452 48.0728 44.2524C47.9269 44.1005 47.681 44.0794 47.4976 44.1722C47.4143 44.2102 47.3351 44.2692 47.2601 44.3494C46.9016 44.7248 46.5598 45.1846 46.2431 45.7204C45.9263 46.2562 45.6554 46.813 45.447 47.353C45.372 47.4626 45.2678 47.6103 45.1302 47.7959C44.9927 47.9815 44.8343 48.184 44.6551 48.3992C44.48 48.6143 44.2841 48.8337 44.0841 49.0572C43.8757 49.2808 43.6756 49.4791 43.4756 49.6563C43.2797 49.8292 43.0838 49.9727 42.892 50.0823C42.717 50.1836 42.5628 50.2342 42.4377 50.2342C42.2502 50.2342 42.121 50.1751 42.121 49.8841C42.121 49.7238 42.1668 49.5128 42.2585 49.2555C42.3585 48.9813 42.4919 48.6818 42.6586 48.3654C42.8254 48.0448 43.0254 47.7031 43.2588 47.3403C43.4922 46.9775 43.7381 46.6147 43.9924 46.273C44.255 45.9187 44.5259 45.577 44.8051 45.2564C45.0844 44.9315 45.3595 44.6405 45.6346 44.3831C45.8054 44.2102 45.8888 44.0583 45.8888 43.9107C45.8888 43.7546 45.8138 43.6238 45.6762 43.5394C45.4637 43.4087 45.1844 43.396 44.9177 43.4846C44.801 43.5268 44.6926 43.5985 44.6051 43.6913C44.3258 43.9739 44.0382 44.2988 43.7506 44.6531C43.4547 45.0201 43.1796 45.3914 42.9254 45.7584C42.6628 46.1338 42.4169 46.5304 42.1877 46.9353C41.9584 47.3361 41.7542 47.7284 41.5875 48.0954C41.4124 48.4835 41.2791 48.8337 41.1832 49.1711C41.0832 49.5171 41.0331 49.8292 41.0331 50.0908C41.0331 50.3903 41.1082 50.6561 41.2582 50.8754C41.4208 51.1074 41.6833 51.2255 42.0334 51.2255C42.296 51.2255 42.5794 51.1538 42.8712 51.0104C43.1546 50.8712 43.4422 50.6898 43.7256 50.462C44.0049 50.2384 44.2841 49.9684 44.5509 49.6689C44.6551 49.5508 44.7593 49.4285 44.8635 49.3061C44.8301 49.5002 44.8135 49.6858 44.8135 49.8588C44.8135 50.1119 44.8468 50.3186 44.9093 50.4747C45.0385 50.7868 45.3636 50.8712 45.7346 50.6307C45.8638 50.5464 45.993 50.4451 46.1347 50.3144C46.2764 50.1836 46.414 50.0444 46.5473 49.8925C46.6849 49.7364 46.8141 49.5846 46.9391 49.4285C47.0183 49.3357 47.0558 49.2344 47.0558 49.1332C47.0558 48.9222 46.9266 48.8505 46.8141 48.8505C46.7557 48.8505 46.664 48.8758 46.5848 48.9855C46.5098 49.0825 46.4348 49.1669 46.3514 49.2471C46.2681 49.3314 46.1806 49.4074 46.093 49.4749C46.0055 49.5424 45.9221 49.593 45.8471 49.631C45.7596 49.6731 45.7096 49.6816 45.6721 49.69C45.6637 49.6731 45.6512 49.631 45.6512 49.5213C45.6512 49.3989 45.6596 49.285 45.6804 49.1669C45.7012 49.0404 45.7262 48.9096 45.7596 48.783L45.7679 48.7788Z" fill="#F38020"/>
<path d="M51.0821 49.8166C50.8987 49.3483 50.7945 48.8168 50.7695 48.2262C51.2322 48.1882 51.674 48.0912 52.0824 47.9393C52.5284 47.7748 52.9243 47.547 53.2578 47.2728C53.5954 46.9944 53.8621 46.6653 54.0455 46.2983C54.2372 45.9271 54.3331 45.5221 54.3331 45.0918C54.3331 44.7839 54.2789 44.5097 54.1706 44.265C54.0622 44.0203 53.908 43.8136 53.7079 43.6491C53.512 43.4846 53.2703 43.3623 52.9994 43.2779C52.47 43.1176 51.799 43.1134 51.1321 43.2779C50.7987 43.358 50.4819 43.4804 50.186 43.6407C49.8901 43.801 49.6108 44.0035 49.3649 44.2397C49.1148 44.4802 48.9148 44.7586 48.7647 45.0876C48.7272 45.1931 48.7105 45.2775 48.7105 45.3492C48.7105 45.4293 48.7231 45.501 48.7522 45.5685C48.8147 45.7077 48.9189 45.7204 48.9606 45.7204C49.0815 45.7204 49.1732 45.6023 49.2482 45.4926C49.4274 45.2395 49.6192 45.0201 49.8276 44.8429C50.0318 44.67 50.2444 44.5181 50.4653 44.4C50.682 44.2819 50.9029 44.1975 51.1196 44.1469C51.3405 44.0921 51.5573 44.0667 51.7573 44.0667C52.2366 44.0667 52.5992 44.1722 52.8368 44.3789C53.0702 44.5856 53.1828 44.864 53.1828 45.2353C53.1828 45.6065 53.0952 45.906 52.9243 46.176C52.7493 46.4502 52.5201 46.6864 52.2408 46.8763C51.9615 47.0661 51.6448 47.218 51.3072 47.3192C50.9654 47.4247 50.6278 47.4837 50.3027 47.4964C50.1818 47.5048 50.0818 47.5428 50.0026 47.6061L50.5778 46.5472C50.8445 46.0579 51.0738 45.6445 51.2613 45.307C51.3072 45.21 51.3322 45.1172 51.3322 45.0286C51.3322 44.8472 51.2447 44.7417 51.1696 44.6869C51.0196 44.5814 50.832 44.5561 50.6403 44.632C50.5569 44.67 50.4903 44.729 50.4528 44.8008C50.3444 44.9737 50.2152 45.1889 50.061 45.4546L48.9648 47.3319C48.7606 47.682 48.5605 48.0279 48.3729 48.3696C48.1812 48.7113 47.9978 49.0404 47.8269 49.3525C47.6561 49.6689 47.5102 49.9473 47.4018 50.1667C47.3601 50.23 47.3393 50.3101 47.3393 50.4072C47.3393 50.4915 47.356 50.5759 47.3851 50.6645C47.4185 50.7489 47.456 50.8248 47.5102 50.8923C47.5602 50.9556 47.6185 51.0146 47.6852 51.061C47.7644 51.1159 47.8436 51.1454 47.9228 51.1454C48.0228 51.1454 48.1645 51.099 48.2771 50.8838C48.4521 50.5295 48.6689 50.1034 48.9314 49.6056C49.194 49.1079 49.4691 48.5974 49.7525 48.0701L49.8151 47.9562C49.7817 48.1249 49.7609 48.3485 49.7609 48.6227C49.7609 48.9476 49.7817 49.2639 49.8234 49.5719C49.8651 49.8925 49.9359 50.1962 50.0318 50.4831C50.1318 50.77 50.2735 51.0399 50.4528 51.2846C50.632 51.5293 50.8612 51.7444 51.1363 51.9258C51.2405 51.9933 51.3572 52.0271 51.4864 52.0271C51.6573 52.0271 51.8157 51.9807 51.9657 51.8879C52.1408 51.7824 52.2283 51.6516 52.2283 51.4998C52.2283 51.4069 52.1866 51.3226 52.0949 51.2213C51.6114 50.7868 51.2697 50.3143 51.0696 49.8123L51.0821 49.8166Z" fill="#F38020"/>
<path d="M60.4266 43.4635C60.0223 43.3243 59.3055 43.3074 58.4719 43.4846C58.0843 43.5689 57.68 43.6871 57.2715 43.8347C56.8755 43.9781 56.4713 44.1553 56.0711 44.3578C55.6877 44.5519 55.3167 44.7712 54.9666 44.999C54.8749 45.0665 54.8041 45.1424 54.7624 45.2184C54.7165 45.2985 54.6957 45.3871 54.6957 45.4757C54.6957 45.7162 54.8416 45.8005 54.9833 45.8005C55.0458 45.8005 55.1083 45.7794 55.1834 45.7415C55.225 45.7162 55.2792 45.6824 55.3334 45.6444C55.596 45.4673 55.8961 45.3112 56.217 45.1762C56.4046 45.096 56.6046 45.0201 56.8047 44.9484C56.7922 44.9611 56.7797 44.9779 56.7672 44.9948C56.5254 45.3028 56.2795 45.6655 56.0378 46.0832C55.8002 46.4966 55.5376 46.9564 55.2584 47.4711C55.125 47.7242 54.9666 48.0026 54.7582 48.3569C54.5707 48.6691 54.3831 48.9729 54.1997 49.2639C54.0163 49.555 53.8413 49.8208 53.6787 50.057C53.5162 50.2975 53.387 50.4789 53.2869 50.6139C53.2244 50.6982 53.1953 50.8037 53.1953 50.926C53.1953 51.0357 53.2203 51.1327 53.2786 51.2171C53.3453 51.3141 53.4412 51.3647 53.5579 51.3647C53.6162 51.3647 53.7287 51.3521 54.058 51.2593C54.2873 51.1918 54.5665 51.1201 54.8916 51.0441C55.2125 50.9682 55.571 50.8965 55.9544 50.829C56.3254 50.7657 56.7088 50.732 57.0839 50.732C57.7341 50.732 57.8342 50.3101 57.8342 50.0612C57.8342 49.9389 57.7883 49.8208 57.705 49.7237C57.6133 49.6183 57.4757 49.5677 57.2965 49.5677C56.788 49.5677 56.292 49.6225 55.8127 49.7237C55.5043 49.7912 55.225 49.863 54.9708 49.9347C55.1125 49.7237 55.2542 49.5002 55.4043 49.2639C55.6502 48.8758 55.9086 48.4244 56.1962 47.876C56.2629 47.741 56.3337 47.6103 56.4046 47.4795C56.4713 47.6314 56.6296 47.6609 56.9381 47.5681C57.0464 47.5343 57.1506 47.5048 57.2548 47.4753L57.6383 47.3698C57.7467 47.3403 57.8967 47.3234 58.0759 47.3234C58.2718 47.3234 58.4302 47.2601 58.5552 47.1336C58.6761 47.0112 58.7345 46.872 58.7345 46.7286C58.7345 46.4882 58.5886 46.4164 58.5219 46.3953C58.351 46.3405 58.0759 46.3447 57.8342 46.3911C57.7133 46.4122 57.6008 46.4375 57.4966 46.4671C57.3882 46.4924 57.2923 46.5261 57.209 46.5556C57.1423 46.581 57.0964 46.5978 57.0506 46.6105C56.9714 46.64 56.8964 46.6695 56.8297 46.7075C56.8464 46.678 56.8672 46.6442 56.8839 46.6147C57.1089 46.235 57.359 45.8891 57.6299 45.5896C57.7842 45.4167 57.8634 45.2353 57.8634 45.0581C57.8634 44.9315 57.8217 44.8176 57.7341 44.7333C57.7175 44.7164 57.6966 44.6995 57.6758 44.6868C57.8675 44.6404 58.0592 44.5983 58.2468 44.5687C58.7636 44.4844 59.2304 44.4759 59.468 44.5012C59.568 44.5139 59.6222 44.5265 59.6556 44.5392L59.7014 44.3958L59.6806 44.5687C59.6806 44.6109 59.6597 44.6615 59.6222 44.7206C59.568 44.7965 59.5139 44.8598 59.4555 44.9104L58.9137 45.3829L59.5972 45.1678C59.9765 45.0496 60.2599 44.902 60.4725 44.7248C60.7059 44.5308 60.8226 44.2819 60.8226 43.995C60.8226 43.7419 60.6809 43.5521 60.4308 43.4677L60.4266 43.4635Z" fill="#F38020"/>
<path d="M57.0174 84.8006C57.0174 84.8006 58.8513 84.5011 60.9561 83.8557C60.9561 83.8557 60.4393 86.2644 59.7766 88.3568L59.5098 85.5136L57.0216 84.8006H57.0174Z" fill="#F38020"/>
<path d="M7.14792 89.905C7.14792 89.905 5.77667 89.808 4.15533 89.905C4.15533 89.905 4.89723 88.2556 5.69331 86.8593L5.45573 88.9601L7.14792 89.905Z" fill="#F38020"/>
<path d="M11.9244 31.9469C11.9244 31.9723 11.9244 32.0102 11.916 32.0566C11.9119 32.1073 11.8952 32.1579 11.8785 32.2127C11.8577 32.2676 11.8202 32.314 11.766 32.3561C11.7076 32.3983 11.6368 32.4194 11.5493 32.4194H10.4448C10.4073 32.4194 10.3906 32.4405 10.3906 32.4827V41.1349C10.3906 41.2192 10.3572 41.2783 10.2905 41.3205C10.2239 41.3627 10.1405 41.3922 10.0405 41.4048C9.94461 41.4217 9.84458 41.4302 9.74455 41.4302H9.48613C9.46113 41.4302 9.40277 41.4301 9.31108 41.4344C9.21938 41.4386 9.12352 41.4344 9.02349 41.4175C8.92346 41.4006 8.8401 41.3711 8.76508 41.3247C8.69006 41.2825 8.65254 41.2108 8.65254 41.1222V32.4954C8.65254 32.4954 8.65254 32.4785 8.64421 32.47C8.63587 32.4616 8.63587 32.4532 8.63587 32.4447V32.4194H7.49386C7.39382 32.4194 7.3188 32.3941 7.26879 32.3435C7.21877 32.2929 7.18126 32.2422 7.15625 32.1832C7.13124 32.1241 7.1104 32.0482 7.0979 31.9469C7.0979 31.8541 7.12291 31.7613 7.17292 31.6559C7.22294 31.5504 7.34798 31.4998 7.54387 31.4998H11.4742C11.5993 31.4998 11.691 31.5209 11.7535 31.5631C11.816 31.6052 11.8577 31.6517 11.8827 31.6981C11.9077 31.7487 11.9202 31.7951 11.9202 31.8457V31.9427L11.9244 31.9469Z" fill="white"/>
<path d="M21.494 40.0549C21.4731 40.1055 21.4523 40.1604 21.4273 40.2279C21.3773 40.3123 21.3523 40.3713 21.3523 40.4135C21.2897 40.6118 21.1564 40.7763 20.9521 40.9071C20.7479 41.0378 20.5145 41.1391 20.2603 41.215C20.0018 41.2867 19.7434 41.3416 19.4725 41.3753C19.2058 41.4091 18.9807 41.4259 18.8098 41.4259C18.5347 41.4259 18.2513 41.4048 17.9596 41.3627C17.6636 41.3205 17.3969 41.2488 17.1551 41.1475C16.9134 41.0463 16.7092 40.9028 16.5466 40.7215C16.3841 40.5401 16.2924 40.308 16.2674 40.0296C16.2674 40.0127 16.2674 39.9959 16.259 39.979C16.2549 39.9621 16.2507 39.941 16.2507 39.9157C16.2382 39.8904 16.2299 39.8609 16.2299 39.8229V33.0775C16.2299 33.0353 16.2299 32.9847 16.2382 32.9299C16.2465 32.8708 16.2549 32.8202 16.2674 32.7696C16.2924 32.6557 16.3424 32.5165 16.4174 32.3562C16.4924 32.1958 16.63 32.0355 16.83 31.8795C16.9301 31.8035 17.0801 31.7445 17.2802 31.6938C17.4802 31.6432 17.697 31.6053 17.9262 31.5757C18.1554 31.5462 18.3805 31.5251 18.5973 31.5124C18.814 31.4998 18.9932 31.4956 19.1307 31.4956C19.1433 31.4956 19.1849 31.4956 19.2516 31.4998C19.3183 31.504 19.4017 31.5082 19.4934 31.5124C19.5851 31.5124 19.6851 31.5251 19.7935 31.5293C19.8977 31.5378 19.9977 31.5462 20.0852 31.5546C20.3228 31.5715 20.5437 31.6221 20.7562 31.7023H20.7187C20.8188 31.7276 20.9146 31.7782 21.0063 31.8626C21.098 31.947 21.1855 32.0398 21.2564 32.1537C21.3314 32.2633 21.3939 32.373 21.444 32.4827C21.494 32.5882 21.519 32.681 21.519 32.7527V39.9495C21.519 39.9495 21.5106 40.0001 21.4898 40.0507L21.494 40.0549ZM19.7809 33.5373C19.7809 33.512 19.7809 33.4951 19.7684 33.4867C19.7643 33.4783 19.7601 33.4656 19.7601 33.4487C19.7351 33.415 19.7226 33.3812 19.7226 33.3391C19.6851 33.1239 19.5934 32.9383 19.4475 32.778C19.3016 32.6177 19.1433 32.5375 18.964 32.5375C18.7515 32.5375 18.5764 32.5755 18.443 32.6557C18.3097 32.7358 18.2096 32.8371 18.1388 32.9594C18.0721 33.0817 18.0221 33.2209 17.9971 33.3686C17.9721 33.5162 17.9596 33.6597 17.9596 33.7989V39.0467C17.9596 39.1353 17.9679 39.2534 17.9804 39.3968C17.9929 39.5403 18.0262 39.6837 18.0763 39.8229C18.1263 39.9621 18.2096 40.0845 18.3222 40.1857C18.4347 40.2912 18.6014 40.3418 18.814 40.3418C19.0266 40.3418 19.2266 40.2785 19.41 40.1562C19.5934 40.0338 19.6976 39.8524 19.7226 39.612C19.7226 39.5698 19.7226 39.5403 19.7309 39.515C19.7351 39.4896 19.7476 39.4643 19.7601 39.439C19.7726 39.4137 19.7809 39.3884 19.7809 39.3631V33.5373Z" fill="white"/>
<path d="M30.9886 31.9934C30.9886 32.0187 30.9803 32.0567 30.9678 32.1115C30.9553 32.1663 30.9344 32.217 30.9011 32.2718C30.8677 32.3266 30.8261 32.373 30.7677 32.4152C30.7135 32.4574 30.6385 32.4785 30.551 32.4785H28.3045C28.3045 32.4785 28.2878 32.4954 28.2878 32.5038V35.7732C28.2878 35.7732 28.2961 35.79 28.3045 35.7985H29.9133C30.0133 35.7985 30.0967 35.8238 30.155 35.8702C30.2175 35.9208 30.2634 35.9756 30.2884 36.0305C30.3259 36.0938 30.3468 36.1697 30.3468 36.2541C30.3468 36.2794 30.3384 36.3173 30.3259 36.3638C30.3134 36.4144 30.2926 36.465 30.2592 36.5198C30.2301 36.5747 30.1842 36.6211 30.13 36.6633C30.0758 36.7055 30.005 36.7265 29.9133 36.7265H28.3045C28.3045 36.7265 28.2878 36.7434 28.2878 36.7519V41.1349C28.2878 41.2193 28.2544 41.2783 28.1836 41.3205C28.1169 41.3627 28.0294 41.3922 27.9293 41.4049C27.8293 41.4217 27.7251 41.4302 27.6209 41.4302H27.1708C27.0791 41.4302 26.9791 41.4217 26.879 41.4049C26.779 41.388 26.6915 41.3585 26.6164 41.3205C26.5414 41.2783 26.5039 41.2108 26.5039 41.1222V31.8289C26.5039 31.7698 26.5581 31.7065 26.6706 31.6306C26.7832 31.5547 26.8874 31.5209 26.9874 31.5209H30.4676C30.5927 31.5209 30.6885 31.542 30.7594 31.5842C30.8302 31.6264 30.8761 31.6728 30.9094 31.7234C30.9386 31.7782 30.9594 31.8331 30.9678 31.8837C30.9719 31.9385 30.9761 31.9765 30.9761 32.0018L30.9886 31.9934Z" fill="white"/>
<path d="M37.8323 41.3247C37.7573 41.3669 37.6739 41.3964 37.5739 41.4091C37.4739 41.4259 37.378 41.4302 37.2863 41.4259C37.1946 41.4217 37.1238 41.4217 37.0737 41.4217H36.8695C36.7695 41.4217 36.6736 41.4133 36.5736 41.3964C36.4736 41.3795 36.3902 41.35 36.3152 41.312C36.2402 41.2699 36.2026 41.2024 36.2026 41.1138V31.8204C36.2026 31.7318 36.2402 31.6643 36.3152 31.6179C36.3902 31.5715 36.4736 31.542 36.5736 31.5251C36.6736 31.5082 36.7695 31.504 36.8695 31.5082C36.9695 31.5125 37.0446 31.5167 37.0904 31.5167H37.303C37.3988 31.5167 37.4905 31.5251 37.5822 31.542C37.6739 31.5589 37.7573 31.5884 37.8323 31.6348C37.9073 31.6812 37.9448 31.7445 37.9448 31.8246V41.1306C37.9448 41.2235 37.9073 41.2867 37.8323 41.3289V41.3247Z" fill="white"/>
<path d="M47.9813 41.3247C47.9021 41.3669 47.8104 41.3964 47.7145 41.4091C47.6145 41.4259 47.5186 41.4302 47.4269 41.4259C47.3352 41.4217 47.2686 41.4217 47.231 41.4217H47.1185C47.006 41.4217 46.9059 41.4217 46.8142 41.4133C46.7226 41.4091 46.6392 41.388 46.5725 41.35C46.5058 41.312 46.4433 41.2572 46.3891 41.177C46.3349 41.0969 46.2808 40.9914 46.2307 40.8522C46.0682 40.2785 45.889 39.709 45.7014 39.1479C45.5097 38.5869 45.3138 38.0258 45.1137 37.4563C45.0887 37.3888 45.0637 37.3213 45.0387 37.2496C45.0137 37.1821 44.9887 37.1146 44.9637 37.0471V41.1222C44.9637 41.215 44.9262 41.2783 44.8511 41.3205C44.7761 41.3627 44.6886 41.3922 44.5927 41.4048C44.4927 41.4217 44.3927 41.4259 44.2926 41.4217C44.1926 41.4175 44.1176 41.4175 44.0676 41.4175H43.8717C43.7758 41.4175 43.6841 41.4091 43.5883 41.3922C43.4966 41.3753 43.409 41.3458 43.3382 41.3078C43.2632 41.2656 43.2256 41.1981 43.2256 41.1096V31.7909C43.2256 31.7107 43.259 31.6474 43.3298 31.6053C43.3965 31.5631 43.4799 31.5335 43.5841 31.5124C43.6841 31.4914 43.7842 31.4829 43.8842 31.4871C43.9842 31.4914 44.0634 31.4956 44.1301 31.4956H44.2218C44.4344 31.4956 44.6177 31.5209 44.7761 31.5715C44.9345 31.6221 45.047 31.774 45.1221 32.0271C45.2846 32.5797 45.4597 33.1324 45.6472 33.685C45.8348 34.2418 46.0265 34.7902 46.2099 35.3344C46.2349 35.4188 46.2599 35.4947 46.2849 35.5622C46.3099 35.6339 46.3349 35.7014 46.3599 35.7647V31.7909C46.3599 31.7107 46.3975 31.6474 46.4725 31.6053C46.5475 31.5631 46.6392 31.5335 46.7434 31.5124C46.8476 31.4914 46.9476 31.4829 47.0477 31.4871C47.1435 31.4914 47.2269 31.4956 47.2894 31.4956H47.4936C47.5812 31.4956 47.6687 31.504 47.7645 31.5209C47.8562 31.5378 47.9354 31.5673 48.0021 31.6095C48.073 31.6517 48.1021 31.7107 48.1021 31.7951V41.1264C48.1021 41.2192 48.0646 41.2825 47.9813 41.3247Z" fill="white"/>
<path d="M58.3095 40.0549C58.2886 40.1055 58.2678 40.1604 58.2428 40.2279C58.1928 40.3123 58.1678 40.3713 58.1678 40.4135C58.1053 40.6118 57.9719 40.7763 57.7635 40.9071C57.5593 41.0378 57.33 41.1391 57.0716 41.215C56.8174 41.2867 56.5548 41.3416 56.2839 41.3753C56.0171 41.4091 55.7962 41.4259 55.6212 41.4259C55.3461 41.4259 55.0627 41.4048 54.7709 41.3627C54.4791 41.3205 54.2082 41.2488 53.9665 41.1475C53.7247 41.0463 53.5205 40.9028 53.3621 40.7215C53.1996 40.5401 53.1037 40.308 53.0787 40.0296C53.0787 40.0127 53.0787 39.9959 53.0704 39.979C53.062 39.9621 53.062 39.941 53.062 39.9157C53.0495 39.8904 53.0412 39.8609 53.0412 39.8229V33.0775C53.0412 33.0353 53.0412 32.9847 53.0495 32.9299C53.0579 32.8708 53.0662 32.8202 53.0787 32.7696C53.1037 32.6557 53.1537 32.5165 53.2288 32.3562C53.3038 32.1958 53.4413 32.0355 53.6414 31.8795C53.7414 31.8035 53.8915 31.7445 54.0915 31.6938C54.2916 31.6432 54.5041 31.6053 54.7376 31.5757C54.9668 31.5462 55.1919 31.5251 55.4128 31.5124C55.6295 31.4998 55.8087 31.4956 55.9463 31.4956C55.9588 31.4956 56.0004 31.4956 56.0671 31.4998C56.1338 31.504 56.2172 31.5082 56.3089 31.5124C56.4047 31.5124 56.5048 31.5251 56.609 31.5293C56.7173 31.5378 56.8132 31.5462 56.8966 31.5546C57.1341 31.5715 57.3592 31.6221 57.5718 31.7023H57.5342C57.6343 31.7276 57.7301 31.7782 57.8218 31.8626C57.9177 31.947 58.0011 32.0398 58.0761 32.1537C58.1511 32.2633 58.2136 32.373 58.2636 32.4827C58.3137 32.5882 58.3387 32.681 58.3387 32.7527V39.9495C58.3387 39.9495 58.3303 40.0001 58.3095 40.0507V40.0549ZM56.5965 33.5373C56.5965 33.512 56.5965 33.4951 56.5881 33.4867C56.584 33.4783 56.5798 33.4656 56.5798 33.4487C56.5548 33.415 56.5423 33.3812 56.5423 33.3391C56.5048 33.1239 56.4131 32.9383 56.2672 32.778C56.1213 32.6177 55.9588 32.5375 55.7837 32.5375C55.567 32.5375 55.3961 32.5755 55.2627 32.6557C55.1293 32.7358 55.0293 32.8371 54.9585 32.9594C54.8876 33.0817 54.8418 33.2209 54.8167 33.3686C54.7917 33.5162 54.7792 33.6597 54.7792 33.7989V39.0467C54.7792 39.1353 54.7834 39.2534 54.7959 39.3968C54.8084 39.5403 54.8417 39.6837 54.8918 39.8229C54.9418 39.9621 55.0251 40.0845 55.1377 40.1857C55.2502 40.2912 55.4169 40.3418 55.6295 40.3418C55.8421 40.3418 56.0421 40.2785 56.2255 40.1562C56.4089 40.0338 56.5131 39.8524 56.5381 39.612C56.5381 39.5698 56.5381 39.5403 56.5464 39.515C56.5548 39.4896 56.5631 39.4643 56.5756 39.439C56.5881 39.4137 56.5965 39.3884 56.5965 39.3631V33.5373Z" fill="white"/>
<path d="M57.3258 54.1954C56.9465 53.9085 56.4547 53.6934 55.9129 53.5879C55.9129 53.5879 54.1331 53.4782 53.1495 53.4529C52.7369 53.4403 51.4948 53.4529 50.1861 53.4782H45.7264C45.3888 53.4782 45.1137 53.7567 45.1137 54.0984V84.0624C45.1137 84.0624 45.122 84.1004 45.1262 84.1215V84.1468C45.1262 84.1468 45.1345 84.1594 45.1345 84.1637C45.1846 84.4547 45.4221 84.6825 45.7264 84.6825H49.8818C50.2194 84.6825 50.4945 84.4041 50.4945 84.0624V77.1862C51.9241 77.0892 53.4621 76.9964 53.5538 76.9838C53.9247 76.9585 54.6083 76.912 55.0668 76.7897C57.6217 76.0979 58.7554 74.4864 58.8596 73.0057C59.0096 70.8374 59.1305 63.7503 59.1305 62.9741V58.7092C59.1305 58.2662 59.0263 55.482 57.3258 54.1912V54.1954ZM54.1707 70.2932C54.0665 72.0776 53.683 72.6767 53.0161 73.1576C52.5201 73.5204 51.2156 73.5752 50.4945 73.5794V57.469C50.7988 57.469 51.0405 57.469 51.0405 57.469C54.0998 57.3171 54.0373 59.207 54.0373 59.207C54.2415 62.6872 54.2707 68.5046 54.1665 70.289L54.1707 70.2932Z" fill="white"/>
<defs>
<linearGradient id="paint0_linear_5_2537" x1="33.0475" y1="31.7782" x2="33.0475" y2="14.4528" gradientUnits="userSpaceOnUse">
<stop stop-color="#E4E7E8"/>
<stop offset="0.02" stop-color="#D2E0E6"/>
<stop offset="0.09" stop-color="#9FCDE1"/>
<stop offset="0.15" stop-color="#74BDDD"/>
<stop offset="0.22" stop-color="#50B0DA"/>
<stop offset="0.28" stop-color="#35A6D8"/>
<stop offset="0.35" stop-color="#219ED6"/>
<stop offset="0.42" stop-color="#159AD5"/>
<stop offset="0.49" stop-color="#1299D5"/>
<stop offset="0.78" stop-color="#1299D5"/>
</linearGradient>
</defs>
</svg>
