<svg width="62" height="60" viewBox="0 0 62 60" fill="none" xmlns="http://www.w3.org/2000/svg">
<path id="Vector" d="M15.4111 54.3626H26.2556C26.2556 57.3448 23.8156 59.7848 20.8333 59.7848C17.8511 59.7848 15.4111 57.3448 15.4111 54.3626ZM9.98889 48.9404C9.98889 50.4315 11.2089 51.6515 12.7 51.6515H28.9667C30.4578 51.6515 31.6778 50.4315 31.6778 48.9404C31.6778 47.4493 30.4578 46.2293 28.9667 46.2293H12.7C11.2089 46.2293 9.98889 47.4493 9.98889 48.9404ZM41.1667 25.8959C41.1667 36.2524 33.9551 41.783 30.9458 43.5182H10.7209C7.71156 41.783 0.5 36.2524 0.5 25.8959C0.5 14.6719 9.60933 5.5626 20.8333 5.5626C32.0573 5.5626 41.1667 14.6719 41.1667 25.8959ZM54.3698 20.1213L50.6556 21.8293L54.3698 23.5373L56.0778 27.2515L57.7858 23.5373L61.5 21.8293L57.7858 20.1213L56.0778 16.407L54.3698 20.1213ZM47.9444 16.407L50.4929 10.8222L56.0778 8.27371L50.4929 5.72527L47.9444 0.140381L45.396 5.72527L39.8111 8.27371L45.396 10.8222L47.9444 16.407Z" fill="white"/>
</svg>
